<svg xmlns="http://www.w3.org/2000/svg" width="300" height="300" viewBox="0 0 300 300">
<path d="M 97.5 97.5 L 95.0 96.25 L 92.5 96.25 L 92.5 96.25 L 96.25 97.5 L 105.0 98.75 L 116.25 100.0 L 122.5 100.0 L 122.5 101.25 " stroke="black" fill="none" stroke-width="6.0" stroke-linecap="round" stroke-linejoin="round" />
<path d="M 68.75 146.25 L 67.5 148.75 L 61.25 152.5 L 62.5 153.75 L 75.0 151.25 L 90.0 142.5 L 106.25 132.5 L 118.75 122.5 L 123.75 118.75 L 118.75 126.25 L 107.5 143.75 L 93.75 172.5 L 82.5 208.75 L 75.0 228.75 L 73.75 233.75 L 77.5 223.75 L 80.0 220.0 " stroke="black" fill="none" stroke-width="6.0" stroke-linecap="round" stroke-linejoin="round" />
<path d="M 100.0 166.25 L 100.0 165.0 L 98.75 165.0 L 98.75 165.0 L 98.75 166.25 L 105.0 172.5 L 113.75 180.0 L 120.0 193.75 L 118.75 215.0 L 108.75 236.25 L 100.0 243.75 L 96.25 241.25 L 95.0 226.25 L 96.25 206.25 L 97.5 201.25 " stroke="black" fill="none" stroke-width="6.0" stroke-linecap="round" stroke-linejoin="round" />
<path d="M 181.25 73.75 L 181.25 72.5 L 181.25 67.5 L 180.0 70.0 L 168.75 96.25 L 150.0 143.75 L 135.0 178.75 L 131.25 190.0 L 130.0 187.5 " stroke="black" fill="none" stroke-width="6.0" stroke-linecap="round" stroke-linejoin="round" />
<path d="M 162.5 113.75 L 162.5 112.5 L 162.5 110.0 L 163.75 110.0 L 168.75 116.25 L 190.0 136.25 L 213.75 156.25 L 236.25 173.75 L 255.0 188.75 L 261.25 197.5 L 260.0 198.75 " stroke="black" fill="none" stroke-width="6.0" stroke-linecap="round" stroke-linejoin="round" />
<path d="M 177.5 185.0 L 176.25 185.0 L 175.0 185.0 L 180.0 185.0 L 190.0 187.5 L 200.0 190.0 L 206.25 191.25 L 207.5 193.75 " stroke="black" fill="none" stroke-width="6.0" stroke-linecap="round" stroke-linejoin="round" />
<path d="M 182.5 203.75 L 181.25 205.0 L 175.0 207.5 L 175.0 210.0 L 182.5 212.5 L 193.75 215.0 L 205.0 218.75 L 210.0 220.0 " stroke="black" fill="none" stroke-width="6.0" stroke-linecap="round" stroke-linejoin="round" />
</svg>