<svg xmlns="http://www.w3.org/2000/svg" width="300" height="300" viewBox="0 0 300 300">
<path d="M 93.75 93.75 L 91.25 95.0 L 87.5 96.25 L 88.75 97.5 L 96.25 98.75 L 108.75 98.75 L 120.0 97.5 L 122.5 96.25 " stroke="black" fill="none" stroke-width="6.0" stroke-linecap="round" stroke-linejoin="round" />
<path d="M 81.25 148.75 L 78.75 151.25 L 76.25 153.75 L 80.0 152.5 L 92.5 146.25 L 107.5 136.25 L 118.75 128.75 L 122.5 126.25 L 116.25 138.75 L 103.75 166.25 L 90.0 202.5 L 77.5 227.5 L 73.75 232.5 L 75.0 220.0 L 82.5 203.75 L 90.0 187.5 L 97.5 172.5 L 106.25 160.0 L 112.5 158.75 L 120.0 166.25 L 127.5 185.0 L 130.0 205.0 L 127.5 220.0 L 120.0 228.75 L 113.75 231.25 L 108.75 231.25 L 105.0 221.25 L 105.0 217.5 " stroke="black" fill="none" stroke-width="6.0" stroke-linecap="round" stroke-linejoin="round" />
<path d="M 188.75 65.0 L 178.75 77.5 L 167.5 103.75 L 152.5 143.75 L 138.75 171.25 L 130.0 181.25 L 128.75 181.25 " stroke="black" fill="none" stroke-width="6.0" stroke-linecap="round" stroke-linejoin="round" />
<path d="M 168.75 107.5 L 170.0 108.75 L 172.5 113.75 L 185.0 133.75 L 205.0 158.75 L 226.25 176.25 L 247.5 187.5 L 260.0 192.5 L 262.5 195.0 " stroke="black" fill="none" stroke-width="6.0" stroke-linecap="round" stroke-linejoin="round" />
<path d="M 168.75 193.75 L 168.75 193.75 L 167.5 193.75 L 168.75 193.75 L 177.5 196.25 L 190.0 201.25 L 198.75 203.75 L 200.0 205.0 " stroke="black" fill="none" stroke-width="6.0" stroke-linecap="round" stroke-linejoin="round" />
<path d="M 178.75 218.75 L 176.25 221.25 L 175.0 225.0 L 180.0 228.75 L 191.25 228.75 L 203.75 228.75 " stroke="black" fill="none" stroke-width="6.0" stroke-linecap="round" stroke-linejoin="round" />
</svg>