<svg xmlns="http://www.w3.org/2000/svg" width="300" height="300" viewBox="0 0 300 300">
<path d="M 103.75 117.5 L 103.75 120.0 L 103.75 123.75 L 112.5 123.75 L 140.0 113.75 L 173.75 100.0 L 200.0 88.75 L 206.25 85.0 L 200.0 85.0 L 187.5 87.5 L 173.75 88.75 L 161.25 88.75 L 152.5 87.5 L 150.0 85.0 L 150.0 83.75 L 151.25 87.5 L 151.25 107.5 L 141.25 142.5 L 126.25 175.0 L 111.25 195.0 L 98.75 202.5 L 92.5 202.5 L 90.0 196.25 L 90.0 188.75 L 91.25 180.0 L 92.5 172.5 L 92.5 168.75 L 92.5 168.75 L 95.0 176.25 L 101.25 193.75 L 108.75 215.0 L 116.25 237.5 L 117.5 251.25 L 117.5 252.5 " stroke="black" fill="none" stroke-width="6.0" stroke-linecap="round" stroke-linejoin="round" />
<path d="M 140.0 188.75 L 140.0 190.0 L 140.0 192.5 L 147.5 192.5 L 167.5 187.5 L 193.75 177.5 L 210.0 168.75 L 212.5 162.5 L 207.5 161.25 L 200.0 161.25 " stroke="black" fill="none" stroke-width="6.0" stroke-linecap="round" stroke-linejoin="round" />
<path d="M 188.75 148.75 L 186.25 148.75 L 186.25 150.0 L 186.25 158.75 L 186.25 181.25 L 187.5 202.5 L 185.0 213.75 L 177.5 217.5 L 168.75 217.5 L 158.75 218.75 L 153.75 218.75 L 152.5 218.75 L 152.5 218.75 L 153.75 218.75 L 155.0 218.75 L 156.25 218.75 L 157.5 218.75 L 157.5 217.5 L 158.75 217.5 L 158.75 217.5 L 158.75 217.5 L 158.75 217.5 L 158.75 217.5 L 158.75 217.5 L 158.75 217.5 L 158.75 217.5 L 162.5 217.5 L 175.0 217.5 L 193.75 217.5 L 213.75 220.0 L 228.75 221.25 L 231.25 220.0 " stroke="black" fill="none" stroke-width="6.0" stroke-linecap="round" stroke-linejoin="round" />
</svg>