<svg xmlns="http://www.w3.org/2000/svg" width="300" height="300" viewBox="0 0 300 300">
<path d="M 97.5 130.0 L 93.75 132.5 L 91.25 132.5 L 100.0 131.25 L 126.25 122.5 L 158.75 108.75 L 185.0 97.5 L 191.25 92.5 L 185.0 92.5 L 172.5 93.75 L 160.0 93.75 L 151.25 91.25 L 143.75 86.25 L 141.25 82.5 L 141.25 83.75 L 141.25 105.0 L 132.5 150.0 L 113.75 197.5 L 96.25 216.25 L 87.5 217.5 " stroke="black" fill="none" stroke-width="6.0" stroke-linecap="round" stroke-linejoin="round" />
<path d="M 102.5 161.25 L 102.5 162.5 L 101.25 167.5 L 106.25 181.25 L 117.5 206.25 L 126.25 233.75 L 130.0 248.75 L 130.0 248.75 " stroke="black" fill="none" stroke-width="6.0" stroke-linecap="round" stroke-linejoin="round" />
<path d="M 138.75 190.0 L 140.0 191.25 L 142.5 191.25 L 163.75 187.5 L 200.0 176.25 L 218.75 167.5 L 230.0 156.25 L 225.0 153.75 L 211.25 156.25 L 198.75 157.5 L 186.25 158.75 L 180.0 158.75 L 177.5 158.75 L 181.25 160.0 L 188.75 168.75 L 193.75 185.0 L 195.0 203.75 L 190.0 217.5 L 180.0 225.0 L 168.75 230.0 L 156.25 232.5 L 150.0 233.75 L 150.0 233.75 L 153.75 233.75 L 166.25 232.5 L 185.0 231.25 L 203.75 230.0 L 221.25 230.0 L 235.0 230.0 L 240.0 231.25 L 240.0 231.25 " stroke="black" fill="none" stroke-width="6.0" stroke-linecap="round" stroke-linejoin="round" />
</svg>