<svg xmlns="http://www.w3.org/2000/svg" width="300" height="300" viewBox="0 0 300 300">
<path d="M 97.5 101.25 L 100.0 101.25 L 100.0 105.0 L 96.25 126.25 L 86.25 157.5 L 76.25 185.0 L 66.25 196.25 L 63.75 196.25 " stroke="black" fill="none" stroke-width="6.0" stroke-linecap="round" stroke-linejoin="round" />
<path d="M 93.75 148.75 L 93.75 148.75 L 96.25 153.75 L 98.75 183.75 L 100.0 220.0 L 96.25 243.75 L 91.25 250.0 " stroke="black" fill="none" stroke-width="6.0" stroke-linecap="round" stroke-linejoin="round" />
<path d="M 137.5 78.75 L 137.5 75.0 L 138.75 76.25 L 140.0 86.25 L 141.25 97.5 L 145.0 102.5 L 155.0 101.25 L 177.5 90.0 L 201.25 78.75 L 212.5 72.5 L 212.5 72.5 L 206.25 75.0 L 198.75 81.25 L 191.25 86.25 L 182.5 90.0 L 177.5 93.75 L 176.25 95.0 L 176.25 95.0 L 178.75 93.75 L 181.25 93.75 L 182.5 97.5 L 183.75 122.5 L 183.75 168.75 L 183.75 208.75 L 185.0 227.5 L 185.0 236.25 L 183.75 240.0 L 177.5 240.0 L 170.0 237.5 L 163.75 232.5 " stroke="black" fill="none" stroke-width="6.0" stroke-linecap="round" stroke-linejoin="round" />
<path d="M 190.0 153.75 L 190.0 152.5 L 190.0 152.5 L 190.0 152.5 L 195.0 150.0 L 206.25 145.0 L 221.25 137.5 L 225.0 135.0 " stroke="black" fill="none" stroke-width="6.0" stroke-linecap="round" stroke-linejoin="round" />
<path d="M 183.75 185.0 L 178.75 192.5 L 177.5 196.25 L 193.75 193.75 L 213.75 181.25 L 233.75 162.5 " stroke="black" fill="none" stroke-width="6.0" stroke-linecap="round" stroke-linejoin="round" />
</svg>