<svg xmlns="http://www.w3.org/2000/svg" width="300" height="300" viewBox="0 0 300 300">
<path d="M 67.5 111.25 L 67.5 111.25 L 66.25 112.5 L 66.25 112.5 L 73.75 111.25 L 86.25 110.0 L 98.75 107.5 L 106.25 103.75 " stroke="black" fill="none" stroke-width="6.0" stroke-linecap="round" stroke-linejoin="round" />
<path d="M 77.5 141.25 L 73.75 147.5 L 72.5 148.75 L 78.75 148.75 L 88.75 143.75 L 98.75 138.75 L 106.25 133.75 L 106.25 132.5 " stroke="black" fill="none" stroke-width="6.0" stroke-linecap="round" stroke-linejoin="round" />
<path d="M 76.25 232.5 L 72.5 236.25 L 75.0 233.75 L 86.25 216.25 L 100.0 193.75 L 103.75 186.25 " stroke="black" fill="none" stroke-width="6.0" stroke-linecap="round" stroke-linejoin="round" />
<path d="M 141.25 97.5 L 140.0 98.75 L 135.0 100.0 L 135.0 101.25 L 143.75 100.0 L 160.0 97.5 L 181.25 91.25 L 197.5 85.0 L 201.25 81.25 L 192.5 82.5 L 188.75 83.75 " stroke="black" fill="none" stroke-width="6.0" stroke-linecap="round" stroke-linejoin="round" />
<path d="M 137.5 130.0 L 133.75 141.25 L 132.5 166.25 L 135.0 202.5 L 140.0 231.25 L 143.75 241.25 L 146.25 238.75 L 147.5 230.0 L 147.5 225.0 " stroke="black" fill="none" stroke-width="6.0" stroke-linecap="round" stroke-linejoin="round" />
<path d="M 140.0 156.25 L 140.0 155.0 L 140.0 155.0 L 145.0 150.0 L 162.5 141.25 L 190.0 131.25 L 208.75 126.25 L 218.75 128.75 L 223.75 143.75 L 226.25 175.0 L 226.25 207.5 L 226.25 226.25 L 226.25 236.25 L 226.25 238.75 L 226.25 236.25 L 222.5 232.5 L 216.25 223.75 L 207.5 212.5 " stroke="black" fill="none" stroke-width="6.0" stroke-linecap="round" stroke-linejoin="round" />
<path d="M 161.25 111.25 L 160.0 111.25 L 157.5 111.25 L 156.25 116.25 L 156.25 133.75 L 156.25 160.0 L 152.5 183.75 L 152.5 186.25 " stroke="black" fill="none" stroke-width="6.0" stroke-linecap="round" stroke-linejoin="round" />
<path d="M 176.25 111.25 L 176.25 111.25 L 177.5 111.25 L 178.75 121.25 L 182.5 143.75 L 187.5 165.0 L 191.25 171.25 L 198.75 171.25 L 206.25 163.75 L 212.5 155.0 L 215.0 148.75 L 215.0 147.5 " stroke="black" fill="none" stroke-width="6.0" stroke-linecap="round" stroke-linejoin="round" />
<path d="M 161.25 195.0 L 161.25 196.25 L 161.25 197.5 L 173.75 193.75 L 190.0 187.5 L 202.5 180.0 L 203.75 177.5 " stroke="black" fill="none" stroke-width="6.0" stroke-linecap="round" stroke-linejoin="round" />
<path d="M 166.25 221.25 L 166.25 227.5 L 171.25 228.75 L 186.25 225.0 L 203.75 216.25 L 210.0 211.25 " stroke="black" fill="none" stroke-width="6.0" stroke-linecap="round" stroke-linejoin="round" />
</svg>