<svg xmlns="http://www.w3.org/2000/svg" width="300" height="300" viewBox="0 0 300 300">
<path d="M 131.25 67.5 L 130.0 67.5 L 127.5 67.5 L 133.75 67.5 L 148.75 70.0 L 166.25 76.25 L 173.75 83.75 " stroke="black" fill="none" stroke-width="6.0" stroke-linecap="round" stroke-linejoin="round" />
<path d="M 125.0 111.25 L 118.75 112.5 L 118.75 112.5 L 131.25 111.25 L 148.75 107.5 L 163.75 105.0 L 170.0 105.0 L 167.5 113.75 L 155.0 127.5 L 142.5 136.25 L 130.0 145.0 L 121.25 150.0 L 120.0 150.0 L 128.75 148.75 L 143.75 142.5 L 162.5 132.5 L 182.5 122.5 L 191.25 117.5 L 188.75 121.25 L 176.25 137.5 L 158.75 155.0 L 141.25 172.5 L 126.25 183.75 L 118.75 183.75 L 118.75 181.25 " stroke="black" fill="none" stroke-width="6.0" stroke-linecap="round" stroke-linejoin="round" />
<path d="M 118.75 125.0 L 115.0 128.75 L 113.75 142.5 L 116.25 173.75 L 122.5 211.25 L 130.0 236.25 L 137.5 246.25 L 146.25 246.25 L 156.25 237.5 L 172.5 221.25 L 186.25 206.25 L 197.5 192.5 L 201.25 182.5 L 198.75 180.0 L 188.75 178.75 L 175.0 182.5 L 161.25 188.75 L 148.75 195.0 L 141.25 200.0 L 140.0 202.5 L 142.5 202.5 L 145.0 201.25 L 147.5 201.25 L 150.0 200.0 L 150.0 200.0 L 150.0 200.0 L 150.0 200.0 L 150.0 200.0 L 150.0 200.0 L 150.0 200.0 L 151.25 200.0 L 157.5 203.75 L 177.5 212.5 L 201.25 221.25 L 218.75 227.5 L 222.5 230.0 " stroke="black" fill="none" stroke-width="6.0" stroke-linecap="round" stroke-linejoin="round" />
</svg>