<svg xmlns="http://www.w3.org/2000/svg" width="300" height="300" viewBox="0 0 300 300">
<path d="M 132.5 71.25 L 132.5 71.25 L 132.5 71.25 L 136.25 71.25 L 145.0 72.5 L 151.25 73.75 " stroke="black" fill="none" stroke-width="6.0" stroke-linecap="round" stroke-linejoin="round" />
<path d="M 110.0 125.0 L 110.0 125.0 L 110.0 126.25 L 118.75 123.75 L 133.75 117.5 L 150.0 108.75 L 160.0 103.75 L 161.25 103.75 L 158.75 111.25 L 150.0 123.75 L 138.75 137.5 L 125.0 150.0 L 112.5 158.75 L 110.0 161.25 L 115.0 160.0 L 127.5 153.75 L 142.5 145.0 L 157.5 135.0 L 168.75 127.5 L 172.5 127.5 L 167.5 138.75 L 156.25 158.75 L 142.5 180.0 L 126.25 195.0 L 112.5 198.75 L 107.5 193.75 L 107.5 191.25 " stroke="black" fill="none" stroke-width="6.0" stroke-linecap="round" stroke-linejoin="round" />
<path d="M 107.5 136.25 L 107.5 136.25 L 105.0 136.25 L 105.0 145.0 L 106.25 178.75 L 111.25 221.25 L 116.25 247.5 L 123.75 255.0 L 132.5 255.0 L 142.5 246.25 L 163.75 216.25 L 175.0 200.0 L 185.0 190.0 L 185.0 187.5 L 178.75 190.0 L 167.5 196.25 L 156.25 202.5 L 146.25 208.75 L 137.5 213.75 L 133.75 216.25 L 133.75 217.5 L 136.25 216.25 L 136.25 216.25 L 137.5 215.0 L 137.5 215.0 L 138.75 215.0 L 138.75 215.0 L 138.75 213.75 L 138.75 213.75 L 140.0 213.75 L 145.0 218.75 L 156.25 227.5 L 176.25 237.5 L 197.5 241.25 L 211.25 242.5 L 215.0 242.5 " stroke="black" fill="none" stroke-width="6.0" stroke-linecap="round" stroke-linejoin="round" />
</svg>