<svg xmlns="http://www.w3.org/2000/svg" width="300" height="300" viewBox="0 0 300 300">
<path d="M 127.5 77.5 L 126.25 78.75 L 123.75 80.0 L 127.5 80.0 L 142.5 78.75 L 161.25 72.5 L 176.25 63.75 L 175.0 62.5 " stroke="black" fill="none" stroke-width="6.0" stroke-linecap="round" stroke-linejoin="round" />
<path d="M 147.5 95.0 L 146.25 110.0 L 145.0 132.5 L 147.5 152.5 L 150.0 161.25 L 150.0 161.25 L 150.0 160.0 " stroke="black" fill="none" stroke-width="6.0" stroke-linecap="round" stroke-linejoin="round" />
<path d="M 147.5 115.0 L 146.25 111.25 L 145.0 107.5 L 147.5 105.0 L 155.0 103.75 L 165.0 105.0 L 172.5 116.25 L 173.75 133.75 L 167.5 150.0 L 158.75 158.75 " stroke="black" fill="none" stroke-width="6.0" stroke-linecap="round" stroke-linejoin="round" />
<path d="M 150.0 136.25 L 150.0 136.25 L 147.5 133.75 L 146.25 132.5 L 153.75 127.5 L 167.5 120.0 L 177.5 113.75 L 177.5 113.75 " stroke="black" fill="none" stroke-width="6.0" stroke-linecap="round" stroke-linejoin="round" />
<path d="M 155.0 157.5 L 151.25 163.75 L 150.0 165.0 L 157.5 161.25 L 171.25 148.75 L 186.25 133.75 L 191.25 126.25 " stroke="black" fill="none" stroke-width="6.0" stroke-linecap="round" stroke-linejoin="round" />
<path d="M 202.5 78.75 L 201.25 78.75 L 200.0 80.0 L 198.75 87.5 L 197.5 102.5 L 197.5 113.75 L 198.75 117.5 L 205.0 113.75 L 211.25 106.25 L 216.25 102.5 L 217.5 100.0 L 215.0 105.0 L 208.75 120.0 L 201.25 137.5 L 198.75 146.25 L 201.25 147.5 L 208.75 140.0 L 218.75 131.25 L 225.0 125.0 L 226.25 125.0 L 223.75 132.5 L 213.75 148.75 L 205.0 163.75 L 198.75 171.25 " stroke="black" fill="none" stroke-width="6.0" stroke-linecap="round" stroke-linejoin="round" />
<path d="M 88.75 116.25 L 88.75 112.5 L 90.0 108.75 L 91.25 108.75 L 92.5 120.0 L 92.5 137.5 L 92.5 147.5 L 91.25 152.5 L 96.25 148.75 L 106.25 136.25 L 118.75 123.75 L 126.25 116.25 L 126.25 117.5 L 118.75 131.25 L 110.0 146.25 L 103.75 158.75 L 100.0 165.0 L 102.5 163.75 L 112.5 156.25 L 123.75 148.75 L 133.75 142.5 L 138.75 141.25 L 137.5 148.75 L 127.5 165.0 L 116.25 181.25 L 110.0 187.5 " stroke="black" fill="none" stroke-width="6.0" stroke-linecap="round" stroke-linejoin="round" />
<path d="M 53.75 203.75 L 50.0 206.25 L 51.25 207.5 L 71.25 205.0 L 107.5 196.25 L 158.75 183.75 L 202.5 176.25 L 231.25 173.75 L 243.75 173.75 L 245.0 172.5 L 235.0 172.5 L 220.0 172.5 L 207.5 171.25 " stroke="black" fill="none" stroke-width="6.0" stroke-linecap="round" stroke-linejoin="round" />
<path d="M 161.25 155.0 L 161.25 156.25 L 161.25 157.5 L 161.25 158.75 L 163.75 168.75 L 170.0 198.75 L 173.75 232.5 L 175.0 250.0 L 171.25 252.5 L 166.25 252.5 L 158.75 251.25 L 150.0 247.5 L 138.75 241.25 L 131.25 237.5 " stroke="black" fill="none" stroke-width="6.0" stroke-linecap="round" stroke-linejoin="round" />
<path d="M 117.5 200.0 L 117.5 202.5 L 117.5 208.75 L 117.5 220.0 L 120.0 238.75 L 126.25 252.5 L 131.25 256.25 " stroke="black" fill="none" stroke-width="6.0" stroke-linecap="round" stroke-linejoin="round" />
<path d="M 201.25 205.0 L 203.75 206.25 L 206.25 208.75 L 215.0 212.5 L 231.25 222.5 L 245.0 237.5 L 248.75 251.25 " stroke="black" fill="none" stroke-width="6.0" stroke-linecap="round" stroke-linejoin="round" />
</svg>