<svg xmlns="http://www.w3.org/2000/svg" width="300" height="300" viewBox="0 0 300 300">
<path d="M 121.25 90.0 L 118.75 90.0 L 117.5 90.0 L 121.25 90.0 L 136.25 88.75 L 152.5 85.0 L 170.0 78.75 L 176.25 75.0 L 171.25 75.0 " stroke="black" fill="none" stroke-width="6.0" stroke-linecap="round" stroke-linejoin="round" />
<path d="M 117.5 118.75 L 115.0 122.5 L 115.0 125.0 L 123.75 125.0 L 141.25 116.25 L 160.0 103.75 L 173.75 95.0 L 175.0 92.5 L 168.75 93.75 " stroke="black" fill="none" stroke-width="6.0" stroke-linecap="round" stroke-linejoin="round" />
<path d="M 87.5 161.25 L 83.75 163.75 L 82.5 167.5 L 92.5 166.25 L 121.25 155.0 L 160.0 135.0 L 197.5 113.75 L 212.5 98.75 L 210.0 95.0 " stroke="black" fill="none" stroke-width="6.0" stroke-linecap="round" stroke-linejoin="round" />
<path d="M 137.5 103.75 L 136.25 106.25 L 127.5 121.25 L 117.5 152.5 L 101.25 195.0 L 85.0 231.25 L 73.75 248.75 L 68.75 247.5 L 70.0 238.75 " stroke="black" fill="none" stroke-width="6.0" stroke-linecap="round" stroke-linejoin="round" />
<path d="M 138.75 147.5 L 138.75 147.5 L 141.25 153.75 L 142.5 182.5 L 143.75 216.25 L 145.0 238.75 L 146.25 245.0 L 146.25 245.0 " stroke="black" fill="none" stroke-width="6.0" stroke-linecap="round" stroke-linejoin="round" />
<path d="M 143.75 157.5 L 143.75 157.5 L 142.5 157.5 L 148.75 153.75 L 166.25 148.75 L 186.25 148.75 L 200.0 162.5 L 201.25 192.5 L 197.5 217.5 L 193.75 236.25 L 191.25 243.75 L 188.75 243.75 L 185.0 238.75 " stroke="black" fill="none" stroke-width="6.0" stroke-linecap="round" stroke-linejoin="round" />
<path d="M 150.0 190.0 L 147.5 190.0 L 141.25 190.0 L 140.0 190.0 L 145.0 190.0 L 160.0 183.75 L 178.75 173.75 L 195.0 162.5 L 198.75 157.5 L 197.5 157.5 " stroke="black" fill="none" stroke-width="6.0" stroke-linecap="round" stroke-linejoin="round" />
<path d="M 150.0 203.75 L 148.75 207.5 L 147.5 208.75 L 151.25 207.5 L 166.25 200.0 L 182.5 191.25 L 192.5 185.0 " stroke="black" fill="none" stroke-width="6.0" stroke-linecap="round" stroke-linejoin="round" />
<path d="M 152.5 228.75 L 151.25 230.0 L 147.5 235.0 L 148.75 236.25 L 162.5 230.0 L 185.0 218.75 L 196.25 212.5 " stroke="black" fill="none" stroke-width="6.0" stroke-linecap="round" stroke-linejoin="round" />
</svg>