<svg xmlns="http://www.w3.org/2000/svg" width="300" height="300" viewBox="0 0 300 300">
<path d="M 68.75 107.5 L 67.5 107.5 L 66.25 107.5 L 72.5 107.5 L 86.25 107.5 L 100.0 108.75 L 110.0 110.0 " stroke="black" fill="none" stroke-width="6.0" stroke-linecap="round" stroke-linejoin="round" />
<path d="M 71.25 150.0 L 68.75 151.25 L 65.0 153.75 L 67.5 153.75 L 80.0 152.5 L 93.75 147.5 L 103.75 142.5 " stroke="black" fill="none" stroke-width="6.0" stroke-linecap="round" stroke-linejoin="round" />
<path d="M 73.75 226.25 L 68.75 233.75 L 68.75 235.0 L 81.25 226.25 L 101.25 203.75 L 123.75 172.5 " stroke="black" fill="none" stroke-width="6.0" stroke-linecap="round" stroke-linejoin="round" />
<path d="M 166.25 70.0 L 165.0 70.0 L 165.0 70.0 L 172.5 71.25 L 190.0 71.25 L 207.5 72.5 L 216.25 76.25 L 211.25 86.25 L 195.0 97.5 L 172.5 110.0 L 148.75 126.25 L 138.75 132.5 L 141.25 132.5 L 152.5 126.25 L 172.5 115.0 L 193.75 103.75 L 208.75 96.25 L 212.5 96.25 L 205.0 106.25 L 192.5 125.0 L 175.0 145.0 L 155.0 162.5 L 146.25 171.25 L 148.75 170.0 L 160.0 160.0 L 177.5 143.75 L 195.0 128.75 L 202.5 118.75 L 196.25 118.75 " stroke="black" fill="none" stroke-width="6.0" stroke-linecap="round" stroke-linejoin="round" />
<path d="M 147.5 135.0 L 146.25 138.75 L 145.0 152.5 L 143.75 186.25 L 140.0 218.75 L 136.25 240.0 L 133.75 243.75 L 130.0 237.5 " stroke="black" fill="none" stroke-width="6.0" stroke-linecap="round" stroke-linejoin="round" />
<path d="M 148.75 186.25 L 151.25 183.75 L 158.75 182.5 L 175.0 178.75 L 196.25 168.75 L 215.0 157.5 L 222.5 147.5 L 220.0 143.75 " stroke="black" fill="none" stroke-width="6.0" stroke-linecap="round" stroke-linejoin="round" />
<path d="M 188.75 152.5 L 187.5 155.0 L 185.0 171.25 L 185.0 196.25 L 183.75 223.75 L 178.75 245.0 L 172.5 255.0 L 163.75 257.5 L 157.5 252.5 L 156.25 243.75 " stroke="black" fill="none" stroke-width="6.0" stroke-linecap="round" stroke-linejoin="round" />
<path d="M 187.5 193.75 L 191.25 193.75 L 192.5 195.0 L 215.0 212.5 L 238.75 237.5 L 261.25 255.0 L 278.75 265.0 L 288.75 266.25 L 286.25 262.5 L 280.0 257.5 " stroke="black" fill="none" stroke-width="6.0" stroke-linecap="round" stroke-linejoin="round" />
<path d="M 252.5 128.75 L 251.25 128.75 L 250.0 128.75 L 256.25 140.0 L 268.75 166.25 L 272.5 180.0 " stroke="black" fill="none" stroke-width="6.0" stroke-linecap="round" stroke-linejoin="round" />
</svg>