<svg xmlns="http://www.w3.org/2000/svg" width="300" height="300" viewBox="0 0 300 300">
<path d="M 72.5 112.5 L 68.75 115.0 L 66.25 116.25 L 67.5 116.25 L 76.25 116.25 L 87.5 116.25 L 98.75 112.5 L 106.25 108.75 L 108.75 107.5 " stroke="black" fill="none" stroke-width="6.0" stroke-linecap="round" stroke-linejoin="round" />
<path d="M 76.25 165.0 L 71.25 170.0 L 71.25 171.25 L 78.75 167.5 L 88.75 161.25 L 97.5 152.5 L 103.75 145.0 L 105.0 142.5 " stroke="black" fill="none" stroke-width="6.0" stroke-linecap="round" stroke-linejoin="round" />
<path d="M 73.75 222.5 L 72.5 225.0 L 68.75 228.75 L 71.25 227.5 L 82.5 213.75 L 96.25 195.0 L 98.75 190.0 " stroke="black" fill="none" stroke-width="6.0" stroke-linecap="round" stroke-linejoin="round" />
<path d="M 148.75 72.5 L 146.25 72.5 L 143.75 72.5 L 146.25 72.5 L 158.75 72.5 L 175.0 71.25 L 188.75 70.0 L 192.5 70.0 " stroke="black" fill="none" stroke-width="6.0" stroke-linecap="round" stroke-linejoin="round" />
<path d="M 130.0 118.75 L 128.75 118.75 L 127.5 120.0 L 131.25 118.75 L 145.0 113.75 L 165.0 105.0 L 190.0 97.5 L 201.25 95.0 L 203.75 97.5 L 195.0 107.5 L 181.25 121.25 L 163.75 136.25 L 146.25 148.75 L 137.5 155.0 L 136.25 155.0 L 142.5 151.25 L 156.25 142.5 L 173.75 131.25 L 190.0 117.5 L 196.25 108.75 " stroke="black" fill="none" stroke-width="6.0" stroke-linecap="round" stroke-linejoin="round" />
<path d="M 140.0 117.5 L 140.0 118.75 L 138.75 122.5 L 138.75 142.5 L 138.75 182.5 L 132.5 212.5 L 123.75 226.25 L 113.75 230.0 L 108.75 227.5 " stroke="black" fill="none" stroke-width="6.0" stroke-linecap="round" stroke-linejoin="round" />
<path d="M 133.75 182.5 L 137.5 186.25 L 148.75 187.5 L 168.75 180.0 L 195.0 166.25 L 207.5 155.0 L 210.0 148.75 " stroke="black" fill="none" stroke-width="6.0" stroke-linecap="round" stroke-linejoin="round" />
<path d="M 170.0 148.75 L 168.75 152.5 L 166.25 167.5 L 166.25 192.5 L 165.0 215.0 L 160.0 230.0 L 153.75 236.25 L 148.75 235.0 L 147.5 233.75 " stroke="black" fill="none" stroke-width="6.0" stroke-linecap="round" stroke-linejoin="round" />
<path d="M 171.25 190.0 L 172.5 190.0 L 175.0 195.0 L 186.25 203.75 L 197.5 213.75 L 216.25 232.5 L 230.0 240.0 L 240.0 241.25 L 243.75 242.5 L 245.0 242.5 L 241.25 242.5 " stroke="black" fill="none" stroke-width="6.0" stroke-linecap="round" stroke-linejoin="round" />
<path d="M 223.75 122.5 L 223.75 118.75 L 225.0 117.5 L 230.0 118.75 L 238.75 128.75 L 245.0 138.75 " stroke="black" fill="none" stroke-width="6.0" stroke-linecap="round" stroke-linejoin="round" />
</svg>