<svg xmlns="http://www.w3.org/2000/svg" width="300" height="300" viewBox="0 0 300 300">
<path d="M 98.75 71.25 L 96.25 70.0 L 93.75 68.75 L 92.5 71.25 L 92.5 81.25 L 96.25 95.0 L 106.25 101.25 L 128.75 97.5 L 155.0 82.5 L 170.0 72.5 L 173.75 71.25 L 168.75 77.5 L 158.75 85.0 " stroke="black" fill="none" stroke-width="6.0" stroke-linecap="round" stroke-linejoin="round" />
<path d="M 66.25 187.5 L 66.25 188.75 L 66.25 190.0 L 77.5 188.75 L 106.25 176.25 L 143.75 158.75 L 171.25 145.0 L 185.0 138.75 L 180.0 137.5 L 161.25 142.5 " stroke="black" fill="none" stroke-width="6.0" stroke-linecap="round" stroke-linejoin="round" />
<path d="M 93.75 153.75 L 93.75 155.0 L 92.5 160.0 L 93.75 173.75 L 100.0 196.25 L 106.25 211.25 L 107.5 213.75 " stroke="black" fill="none" stroke-width="6.0" stroke-linecap="round" stroke-linejoin="round" />
<path d="M 125.0 150.0 L 125.0 150.0 L 125.0 150.0 L 126.25 150.0 L 128.75 162.5 L 130.0 185.0 L 131.25 200.0 L 131.25 198.75 " stroke="black" fill="none" stroke-width="6.0" stroke-linecap="round" stroke-linejoin="round" />
<path d="M 138.75 156.25 L 138.75 153.75 L 138.75 153.75 L 140.0 160.0 L 141.25 176.25 L 141.25 191.25 L 141.25 193.75 " stroke="black" fill="none" stroke-width="6.0" stroke-linecap="round" stroke-linejoin="round" />
<path d="M 172.5 126.25 L 175.0 117.5 L 175.0 118.75 L 175.0 132.5 L 166.25 156.25 L 153.75 185.0 L 136.25 210.0 L 112.5 225.0 L 77.5 237.5 L 71.25 240.0 L 71.25 240.0 L 82.5 238.75 L 103.75 232.5 L 133.75 221.25 L 166.25 206.25 L 196.25 192.5 L 207.5 187.5 L 206.25 186.25 L 193.75 192.5 L 188.75 193.75 " stroke="black" fill="none" stroke-width="6.0" stroke-linecap="round" stroke-linejoin="round" />
<path d="M 121.25 236.25 L 117.5 243.75 L 115.0 253.75 L 110.0 270.0 L 106.25 286.25 L 101.25 293.75 L 100.0 292.5 " stroke="black" fill="none" stroke-width="6.0" stroke-linecap="round" stroke-linejoin="round" />
<path d="M 141.25 240.0 L 142.5 240.0 L 143.75 241.25 L 147.5 247.5 L 150.0 257.5 L 152.5 262.5 L 153.75 263.75 " stroke="black" fill="none" stroke-width="6.0" stroke-linecap="round" stroke-linejoin="round" />
<path d="M 177.5 227.5 L 178.75 226.25 L 181.25 226.25 L 186.25 232.5 L 192.5 242.5 L 197.5 253.75 L 198.75 256.25 " stroke="black" fill="none" stroke-width="6.0" stroke-linecap="round" stroke-linejoin="round" />
<path d="M 216.25 223.75 L 216.25 223.75 L 216.25 223.75 L 218.75 226.25 L 226.25 238.75 L 231.25 247.5 " stroke="black" fill="none" stroke-width="6.0" stroke-linecap="round" stroke-linejoin="round" />
</svg>