<svg xmlns="http://www.w3.org/2000/svg" width="300" height="300" viewBox="0 0 300 300">
<path d="M 101.25 81.25 L 100.0 81.25 L 96.25 81.25 L 95.0 83.75 L 101.25 92.5 L 121.25 100.0 L 148.75 96.25 L 177.5 78.75 L 195.0 63.75 L 195.0 60.0 L 183.75 66.25 L 172.5 76.25 " stroke="black" fill="none" stroke-width="6.0" stroke-linecap="round" stroke-linejoin="round" />
<path d="M 87.5 188.75 L 85.0 190.0 L 83.75 191.25 L 90.0 192.5 L 113.75 186.25 L 151.25 167.5 L 183.75 148.75 L 193.75 142.5 L 186.25 143.75 L 173.75 146.25 " stroke="black" fill="none" stroke-width="6.0" stroke-linecap="round" stroke-linejoin="round" />
<path d="M 97.5 153.75 L 93.75 155.0 L 91.25 158.75 L 96.25 173.75 L 105.0 200.0 L 113.75 220.0 L 116.25 223.75 L 116.25 220.0 " stroke="black" fill="none" stroke-width="6.0" stroke-linecap="round" stroke-linejoin="round" />
<path d="M 128.75 161.25 L 130.0 161.25 L 130.0 168.75 L 131.25 188.75 L 132.5 210.0 L 133.75 215.0 L 136.25 210.0 " stroke="black" fill="none" stroke-width="6.0" stroke-linecap="round" stroke-linejoin="round" />
<path d="M 165.0 136.25 L 166.25 133.75 L 166.25 136.25 L 166.25 152.5 L 165.0 171.25 L 170.0 182.5 L 185.0 181.25 L 202.5 171.25 L 215.0 167.5 L 216.25 172.5 L 211.25 188.75 L 198.75 208.75 L 182.5 230.0 L 168.75 241.25 L 163.75 242.5 " stroke="black" fill="none" stroke-width="6.0" stroke-linecap="round" stroke-linejoin="round" />
</svg>