<svg xmlns="http://www.w3.org/2000/svg" width="300" height="300" viewBox="0 0 300 300">
<path d="M 93.75 67.5 L 93.75 66.25 L 92.5 63.75 L 91.25 62.5 L 92.5 68.75 L 97.5 81.25 L 107.5 90.0 L 132.5 92.5 L 165.0 81.25 L 191.25 70.0 L 200.0 65.0 L 193.75 66.25 L 178.75 76.25 L 175.0 78.75 " stroke="black" fill="none" stroke-width="6.0" stroke-linecap="round" stroke-linejoin="round" />
<path d="M 63.75 158.75 L 63.75 161.25 L 58.75 166.25 L 63.75 167.5 L 86.25 168.75 L 123.75 158.75 L 166.25 146.25 L 205.0 133.75 L 217.5 128.75 L 211.25 128.75 L 198.75 130.0 " stroke="black" fill="none" stroke-width="6.0" stroke-linecap="round" stroke-linejoin="round" />
<path d="M 102.5 141.25 L 100.0 142.5 L 98.75 146.25 L 98.75 160.0 L 102.5 183.75 L 107.5 200.0 L 108.75 202.5 " stroke="black" fill="none" stroke-width="6.0" stroke-linecap="round" stroke-linejoin="round" />
<path d="M 137.5 133.75 L 137.5 133.75 L 137.5 132.5 L 137.5 132.5 L 137.5 146.25 L 137.5 166.25 L 138.75 181.25 L 138.75 181.25 L 140.0 176.25 " stroke="black" fill="none" stroke-width="6.0" stroke-linecap="round" stroke-linejoin="round" />
<path d="M 151.25 141.25 L 152.5 138.75 L 152.5 137.5 L 152.5 140.0 L 152.5 151.25 L 152.5 166.25 L 152.5 176.25 L 152.5 176.25 " stroke="black" fill="none" stroke-width="6.0" stroke-linecap="round" stroke-linejoin="round" />
<path d="M 198.75 112.5 L 200.0 110.0 L 201.25 107.5 L 200.0 116.25 L 192.5 137.5 L 177.5 163.75 L 156.25 188.75 L 137.5 202.5 L 113.75 210.0 L 95.0 216.25 L 83.75 220.0 L 82.5 221.25 L 87.5 220.0 L 105.0 217.5 L 135.0 210.0 L 166.25 202.5 L 200.0 195.0 L 220.0 190.0 L 227.5 188.75 L 227.5 187.5 L 217.5 187.5 L 206.25 188.75 " stroke="black" fill="none" stroke-width="6.0" stroke-linecap="round" stroke-linejoin="round" />
<path d="M 115.0 237.5 L 113.75 241.25 L 112.5 247.5 L 110.0 258.75 L 107.5 271.25 L 103.75 280.0 L 100.0 283.75 L 98.75 282.5 " stroke="black" fill="none" stroke-width="6.0" stroke-linecap="round" stroke-linejoin="round" />
<path d="M 145.0 233.75 L 146.25 232.5 L 146.25 231.25 L 147.5 236.25 L 147.5 247.5 L 147.5 260.0 L 147.5 266.25 L 147.5 266.25 " stroke="black" fill="none" stroke-width="6.0" stroke-linecap="round" stroke-linejoin="round" />
<path d="M 172.5 235.0 L 172.5 235.0 L 172.5 235.0 L 172.5 235.0 L 175.0 238.75 L 182.5 246.25 L 190.0 252.5 L 191.25 255.0 " stroke="black" fill="none" stroke-width="6.0" stroke-linecap="round" stroke-linejoin="round" />
<path d="M 215.0 226.25 L 216.25 223.75 L 218.75 223.75 L 222.5 226.25 L 230.0 240.0 L 240.0 258.75 L 241.25 263.75 " stroke="black" fill="none" stroke-width="6.0" stroke-linecap="round" stroke-linejoin="round" />
</svg>