<svg xmlns="http://www.w3.org/2000/svg" width="300" height="300" viewBox="0 0 300 300">
<path d="M 106.25 85.0 L 106.25 81.25 L 106.25 80.0 L 107.5 81.25 L 110.0 90.0 L 115.0 102.5 L 125.0 110.0 L 146.25 106.25 L 170.0 92.5 L 187.5 81.25 L 191.25 78.75 L 185.0 81.25 L 172.5 86.25 " stroke="black" fill="none" stroke-width="6.0" stroke-linecap="round" stroke-linejoin="round" />
<path d="M 70.0 176.25 L 70.0 176.25 L 70.0 176.25 L 82.5 175.0 L 120.0 161.25 L 162.5 147.5 L 193.75 137.5 L 203.75 132.5 L 198.75 131.25 L 190.0 132.5 " stroke="black" fill="none" stroke-width="6.0" stroke-linecap="round" stroke-linejoin="round" />
<path d="M 106.25 142.5 L 106.25 142.5 L 106.25 143.75 L 111.25 156.25 L 118.75 181.25 L 121.25 198.75 L 120.0 201.25 " stroke="black" fill="none" stroke-width="6.0" stroke-linecap="round" stroke-linejoin="round" />
<path d="M 136.25 142.5 L 136.25 142.5 L 136.25 146.25 L 138.75 163.75 L 140.0 186.25 L 140.0 196.25 L 140.0 196.25 " stroke="black" fill="none" stroke-width="6.0" stroke-linecap="round" stroke-linejoin="round" />
<path d="M 160.0 141.25 L 160.0 143.75 L 160.0 151.25 L 157.5 166.25 L 153.75 181.25 L 152.5 183.75 " stroke="black" fill="none" stroke-width="6.0" stroke-linecap="round" stroke-linejoin="round" />
<path d="M 202.5 118.75 L 202.5 118.75 L 202.5 123.75 L 200.0 137.5 L 187.5 162.5 L 170.0 186.25 L 152.5 200.0 L 136.25 205.0 L 113.75 208.75 L 97.5 215.0 L 90.0 218.75 L 91.25 218.75 L 102.5 218.75 L 128.75 216.25 L 158.75 210.0 L 193.75 201.25 L 220.0 195.0 L 226.25 192.5 L 225.0 192.5 L 216.25 192.5 " stroke="black" fill="none" stroke-width="6.0" stroke-linecap="round" stroke-linejoin="round" />
<path d="M 133.75 231.25 L 130.0 240.0 L 130.0 251.25 L 128.75 262.5 L 128.75 268.75 L 126.25 270.0 L 126.25 268.75 " stroke="black" fill="none" stroke-width="6.0" stroke-linecap="round" stroke-linejoin="round" />
<path d="M 161.25 228.75 L 161.25 235.0 L 161.25 241.25 L 163.75 248.75 L 163.75 256.25 L 163.75 257.5 " stroke="black" fill="none" stroke-width="6.0" stroke-linecap="round" stroke-linejoin="round" />
<path d="M 192.5 230.0 L 192.5 230.0 L 193.75 230.0 L 196.25 233.75 L 200.0 238.75 L 202.5 245.0 " stroke="black" fill="none" stroke-width="6.0" stroke-linecap="round" stroke-linejoin="round" />
<path d="M 235.0 225.0 L 235.0 225.0 L 235.0 227.5 L 236.25 231.25 L 240.0 242.5 L 242.5 250.0 " stroke="black" fill="none" stroke-width="6.0" stroke-linecap="round" stroke-linejoin="round" />
</svg>