<svg xmlns="http://www.w3.org/2000/svg" width="300" height="300" viewBox="0 0 300 300">
<path d="M 71.25 137.5 L 62.5 140.0 L 57.5 142.5 L 57.5 142.5 L 73.75 140.0 L 98.75 130.0 L 123.75 116.25 L 140.0 105.0 L 141.25 102.5 L 132.5 102.5 L 121.25 102.5 L 111.25 102.5 L 103.75 102.5 L 101.25 102.5 L 103.75 110.0 L 107.5 136.25 L 112.5 183.75 L 112.5 220.0 L 113.75 241.25 L 113.75 243.75 L 110.0 236.25 L 108.75 232.5 " stroke="black" fill="none" stroke-width="6.0" stroke-linecap="round" stroke-linejoin="round" />
<path d="M 108.75 148.75 L 101.25 157.5 L 91.25 180.0 L 77.5 206.25 L 66.25 220.0 L 60.0 216.25 L 60.0 213.75 " stroke="black" fill="none" stroke-width="6.0" stroke-linecap="round" stroke-linejoin="round" />
<path d="M 98.75 156.25 L 101.25 156.25 L 108.75 162.5 L 123.75 182.5 L 142.5 198.75 L 153.75 201.25 L 155.0 200.0 " stroke="black" fill="none" stroke-width="6.0" stroke-linecap="round" stroke-linejoin="round" />
<path d="M 153.75 97.5 L 152.5 97.5 L 151.25 98.75 L 153.75 100.0 L 171.25 102.5 L 196.25 102.5 L 216.25 102.5 L 225.0 101.25 L 221.25 106.25 L 203.75 127.5 L 180.0 155.0 L 153.75 182.5 L 142.5 192.5 L 142.5 193.75 " stroke="black" fill="none" stroke-width="6.0" stroke-linecap="round" stroke-linejoin="round" />
<path d="M 180.0 148.75 L 180.0 148.75 L 178.75 153.75 L 183.75 172.5 L 192.5 201.25 L 197.5 221.25 L 200.0 245.0 L 200.0 252.5 L 193.75 253.75 L 188.75 251.25 " stroke="black" fill="none" stroke-width="6.0" stroke-linecap="round" stroke-linejoin="round" />
<path d="M 212.5 157.5 L 212.5 157.5 L 211.25 157.5 L 212.5 158.75 L 222.5 168.75 L 240.0 181.25 L 253.75 192.5 L 256.25 195.0 " stroke="black" fill="none" stroke-width="6.0" stroke-linecap="round" stroke-linejoin="round" />
</svg>