<svg xmlns="http://www.w3.org/2000/svg" width="300" height="300" viewBox="0 0 300 300">
<path d="M 137.5 52.5 L 136.25 51.25 L 136.25 50.0 L 138.75 51.25 L 147.5 56.25 L 157.5 63.75 L 162.5 71.25 L 162.5 73.75 " stroke="black" fill="none" stroke-width="6.0" stroke-linecap="round" stroke-linejoin="round" />
<path d="M 98.75 81.25 L 98.75 81.25 L 97.5 81.25 L 97.5 86.25 L 98.75 102.5 L 98.75 123.75 L 97.5 135.0 L 96.25 136.25 " stroke="black" fill="none" stroke-width="6.0" stroke-linecap="round" stroke-linejoin="round" />
<path d="M 91.25 100.0 L 92.5 100.0 L 101.25 96.25 L 131.25 91.25 L 167.5 86.25 L 196.25 86.25 L 205.0 86.25 L 201.25 91.25 L 188.75 98.75 L 171.25 105.0 L 152.5 108.75 " stroke="black" fill="none" stroke-width="6.0" stroke-linecap="round" stroke-linejoin="round" />
<path d="M 115.0 122.5 L 115.0 122.5 L 115.0 122.5 L 120.0 122.5 L 136.25 118.75 L 157.5 110.0 L 175.0 102.5 L 178.75 101.25 L 166.25 103.75 L 162.5 106.25 " stroke="black" fill="none" stroke-width="6.0" stroke-linecap="round" stroke-linejoin="round" />
<path d="M 107.5 145.0 L 106.25 146.25 L 107.5 147.5 L 121.25 145.0 L 145.0 135.0 L 168.75 122.5 L 180.0 116.25 L 173.75 118.75 L 156.25 127.5 L 148.75 132.5 " stroke="black" fill="none" stroke-width="6.0" stroke-linecap="round" stroke-linejoin="round" />
<path d="M 90.0 175.0 L 90.0 176.25 L 96.25 176.25 L 125.0 163.75 L 165.0 145.0 L 193.75 132.5 L 203.75 126.25 L 198.75 125.0 L 185.0 127.5 " stroke="black" fill="none" stroke-width="6.0" stroke-linecap="round" stroke-linejoin="round" />
<path d="M 130.0 98.75 L 128.75 96.25 L 127.5 93.75 L 127.5 96.25 L 130.0 108.75 L 133.75 137.5 L 135.0 156.25 L 133.75 160.0 L 132.5 155.0 " stroke="black" fill="none" stroke-width="6.0" stroke-linecap="round" stroke-linejoin="round" />
<path d="M 148.75 102.5 L 151.25 100.0 L 152.5 97.5 L 153.75 107.5 L 152.5 126.25 L 147.5 147.5 L 142.5 161.25 L 135.0 173.75 L 120.0 190.0 L 98.75 211.25 L 73.75 241.25 L 50.0 260.0 L 40.0 263.75 L 38.75 261.25 L 38.75 256.25 " stroke="black" fill="none" stroke-width="6.0" stroke-linecap="round" stroke-linejoin="round" />
<path d="M 156.25 153.75 L 162.5 157.5 L 177.5 167.5 L 197.5 183.75 L 213.75 196.25 L 230.0 206.25 L 243.75 213.75 L 245.0 216.25 L 238.75 220.0 L 226.25 221.25 " stroke="black" fill="none" stroke-width="6.0" stroke-linecap="round" stroke-linejoin="round" />
<path d="M 138.75 208.75 L 137.5 208.75 L 140.0 210.0 L 153.75 212.5 L 175.0 213.75 L 193.75 215.0 L 196.25 216.25 L 193.75 217.5 " stroke="black" fill="none" stroke-width="6.0" stroke-linecap="round" stroke-linejoin="round" />
<path d="M 145.0 232.5 L 142.5 232.5 L 142.5 233.75 L 147.5 233.75 L 163.75 235.0 L 183.75 240.0 L 195.0 243.75 " stroke="black" fill="none" stroke-width="6.0" stroke-linecap="round" stroke-linejoin="round" />
</svg>