<svg xmlns="http://www.w3.org/2000/svg" width="300" height="300" viewBox="0 0 300 300">
<path d="M 123.75 91.25 L 117.5 93.75 L 117.5 95.0 L 132.5 96.25 L 153.75 96.25 L 180.0 93.75 L 198.75 88.75 L 198.75 86.25 L 196.25 86.25 " stroke="black" fill="none" stroke-width="6.0" stroke-linecap="round" stroke-linejoin="round" />
<path d="M 87.5 142.5 L 85.0 146.25 L 81.25 156.25 L 83.75 183.75 L 87.5 221.25 L 90.0 241.25 L 91.25 242.5 L 92.5 236.25 " stroke="black" fill="none" stroke-width="6.0" stroke-linecap="round" stroke-linejoin="round" />
<path d="M 95.0 161.25 L 93.75 161.25 L 95.0 161.25 L 112.5 156.25 L 146.25 146.25 L 186.25 136.25 L 213.75 133.75 L 225.0 143.75 L 227.5 172.5 L 221.25 210.0 L 217.5 235.0 L 215.0 247.5 L 215.0 250.0 L 215.0 250.0 L 213.75 246.25 L 210.0 238.75 L 203.75 226.25 L 201.25 222.5 " stroke="black" fill="none" stroke-width="6.0" stroke-linecap="round" stroke-linejoin="round" />
<path d="M 153.75 103.75 L 152.5 106.25 L 151.25 115.0 L 151.25 143.75 L 151.25 186.25 L 147.5 216.25 L 142.5 225.0 " stroke="black" fill="none" stroke-width="6.0" stroke-linecap="round" stroke-linejoin="round" />
<path d="M 176.25 155.0 L 176.25 155.0 L 176.25 156.25 L 180.0 161.25 L 192.5 171.25 L 205.0 185.0 L 210.0 195.0 L 207.5 200.0 L 200.0 202.5 " stroke="black" fill="none" stroke-width="6.0" stroke-linecap="round" stroke-linejoin="round" />
<path d="M 192.5 178.75 L 191.25 175.0 L 188.75 176.25 L 180.0 186.25 L 165.0 201.25 L 156.25 210.0 " stroke="black" fill="none" stroke-width="6.0" stroke-linecap="round" stroke-linejoin="round" />
<path d="M 111.25 175.0 L 111.25 175.0 L 112.5 175.0 L 121.25 177.5 L 137.5 187.5 L 150.0 196.25 L 152.5 202.5 L 148.75 205.0 L 147.5 205.0 " stroke="black" fill="none" stroke-width="6.0" stroke-linecap="round" stroke-linejoin="round" />
<path d="M 132.5 190.0 L 127.5 192.5 L 120.0 198.75 L 108.75 213.75 L 96.25 236.25 " stroke="black" fill="none" stroke-width="6.0" stroke-linecap="round" stroke-linejoin="round" />
</svg>