<svg xmlns="http://www.w3.org/2000/svg" width="300" height="300" viewBox="0 0 300 300">
<path d="M 91.25 82.5 L 90.0 85.0 L 92.5 86.25 L 116.25 86.25 L 156.25 82.5 L 190.0 76.25 L 202.5 72.5 L 201.25 72.5 " stroke="black" fill="none" stroke-width="6.0" stroke-linecap="round" stroke-linejoin="round" />
<path d="M 85.0 133.75 L 83.75 135.0 L 81.25 140.0 L 82.5 155.0 L 87.5 191.25 L 90.0 220.0 L 92.5 235.0 L 95.0 233.75 L 95.0 223.75 " stroke="black" fill="none" stroke-width="6.0" stroke-linecap="round" stroke-linejoin="round" />
<path d="M 87.5 156.25 L 87.5 156.25 L 86.25 156.25 L 90.0 156.25 L 117.5 151.25 L 162.5 140.0 L 201.25 132.5 L 220.0 136.25 L 230.0 153.75 L 230.0 182.5 L 222.5 207.5 L 213.75 220.0 L 207.5 225.0 L 202.5 225.0 L 197.5 220.0 " stroke="black" fill="none" stroke-width="6.0" stroke-linecap="round" stroke-linejoin="round" />
<path d="M 152.5 96.25 L 152.5 96.25 L 150.0 96.25 L 150.0 111.25 L 148.75 163.75 L 147.5 203.75 L 147.5 216.25 L 148.75 217.5 " stroke="black" fill="none" stroke-width="6.0" stroke-linecap="round" stroke-linejoin="round" />
<path d="M 161.25 148.75 L 161.25 150.0 L 162.5 150.0 L 170.0 155.0 L 188.75 165.0 L 205.0 173.75 L 210.0 178.75 L 207.5 181.25 " stroke="black" fill="none" stroke-width="6.0" stroke-linecap="round" stroke-linejoin="round" />
<path d="M 188.75 166.25 L 187.5 163.75 L 185.0 162.5 L 181.25 163.75 L 171.25 177.5 L 160.0 195.0 L 153.75 202.5 " stroke="black" fill="none" stroke-width="6.0" stroke-linecap="round" stroke-linejoin="round" />
<path d="M 102.5 165.0 L 102.5 165.0 L 101.25 166.25 L 107.5 170.0 L 122.5 180.0 L 141.25 188.75 L 150.0 192.5 L 148.75 195.0 " stroke="black" fill="none" stroke-width="6.0" stroke-linecap="round" stroke-linejoin="round" />
<path d="M 126.25 187.5 L 125.0 187.5 L 122.5 187.5 L 118.75 187.5 L 112.5 197.5 L 103.75 216.25 " stroke="black" fill="none" stroke-width="6.0" stroke-linecap="round" stroke-linejoin="round" />
</svg>