<svg xmlns="http://www.w3.org/2000/svg" width="300" height="300" viewBox="0 0 300 300">
<path d="M 63.75 132.5 L 63.75 132.5 L 61.25 138.75 L 61.25 150.0 L 63.75 173.75 L 67.5 196.25 L 68.75 203.75 L 68.75 203.75 " stroke="black" fill="none" stroke-width="6.0" stroke-linecap="round" stroke-linejoin="round" />
<path d="M 63.75 142.5 L 62.5 141.25 L 61.25 138.75 L 68.75 130.0 L 81.25 122.5 L 93.75 117.5 L 100.0 121.25 L 100.0 140.0 L 100.0 168.75 L 97.5 196.25 L 97.5 208.75 L 97.5 210.0 L 97.5 206.25 L 96.25 200.0 L 96.25 196.25 " stroke="black" fill="none" stroke-width="6.0" stroke-linecap="round" stroke-linejoin="round" />
<path d="M 70.0 176.25 L 66.25 177.5 L 62.5 178.75 L 61.25 178.75 L 68.75 175.0 L 81.25 165.0 L 92.5 155.0 L 98.75 148.75 L 98.75 147.5 " stroke="black" fill="none" stroke-width="6.0" stroke-linecap="round" stroke-linejoin="round" />
<path d="M 73.75 202.5 L 71.25 211.25 L 73.75 210.0 L 87.5 198.75 L 105.0 180.0 L 110.0 175.0 " stroke="black" fill="none" stroke-width="6.0" stroke-linecap="round" stroke-linejoin="round" />
<path d="M 153.75 77.5 L 153.75 77.5 L 153.75 77.5 L 153.75 80.0 L 152.5 87.5 L 152.5 100.0 L 153.75 107.5 L 162.5 108.75 L 177.5 101.25 L 191.25 95.0 L 198.75 91.25 L 200.0 91.25 L 190.0 100.0 L 173.75 116.25 L 156.25 132.5 L 142.5 145.0 L 136.25 148.75 L 133.75 148.75 L 133.75 148.75 L 133.75 148.75 L 135.0 148.75 L 138.75 157.5 L 143.75 176.25 L 148.75 195.0 L 152.5 205.0 L 153.75 205.0 L 155.0 198.75 L 155.0 191.25 L 152.5 182.5 L 150.0 173.75 L 146.25 166.25 L 142.5 162.5 L 140.0 161.25 L 142.5 161.25 L 155.0 157.5 L 175.0 151.25 L 198.75 143.75 L 212.5 141.25 L 213.75 142.5 L 206.25 151.25 L 195.0 165.0 L 180.0 180.0 L 163.75 196.25 L 153.75 206.25 L 155.0 206.25 L 167.5 198.75 L 185.0 187.5 L 200.0 173.75 L 208.75 161.25 L 207.5 155.0 L 205.0 155.0 " stroke="black" fill="none" stroke-width="6.0" stroke-linecap="round" stroke-linejoin="round" />
<path d="M 172.5 156.25 L 171.25 161.25 L 168.75 175.0 L 166.25 198.75 L 161.25 226.25 L 155.0 248.75 L 148.75 257.5 L 145.0 256.25 L 145.0 250.0 " stroke="black" fill="none" stroke-width="6.0" stroke-linecap="round" stroke-linejoin="round" />
<path d="M 187.5 195.0 L 188.75 196.25 L 191.25 203.75 L 196.25 216.25 L 203.75 233.75 L 213.75 245.0 L 230.0 250.0 L 247.5 250.0 L 258.75 251.25 L 265.0 251.25 L 266.25 251.25 L 266.25 251.25 L 266.25 251.25 L 265.0 250.0 L 265.0 242.5 L 262.5 225.0 L 260.0 187.5 " stroke="black" fill="none" stroke-width="6.0" stroke-linecap="round" stroke-linejoin="round" />
</svg>