<svg xmlns="http://www.w3.org/2000/svg" width="300" height="300" viewBox="0 0 300 300">
<path d="M 62.5 123.75 L 60.0 123.75 L 53.75 125.0 L 52.5 125.0 L 61.25 121.25 L 77.5 115.0 L 91.25 106.25 L 100.0 100.0 L 100.0 97.5 L 97.5 97.5 L 95.0 97.5 " stroke="black" fill="none" stroke-width="6.0" stroke-linecap="round" stroke-linejoin="round" />
<path d="M 81.25 95.0 L 78.75 95.0 L 76.25 97.5 L 76.25 110.0 L 82.5 155.0 L 88.75 201.25 L 91.25 220.0 L 91.25 226.25 L 91.25 231.25 L 90.0 231.25 L 90.0 231.25 L 87.5 230.0 L 83.75 226.25 L 78.75 222.5 L 72.5 218.75 L 65.0 215.0 L 57.5 212.5 L 53.75 211.25 L 52.5 211.25 L 57.5 211.25 L 67.5 208.75 L 83.75 202.5 L 98.75 191.25 L 103.75 183.75 " stroke="black" fill="none" stroke-width="6.0" stroke-linecap="round" stroke-linejoin="round" />
<path d="M 130.0 72.5 L 125.0 72.5 L 121.25 72.5 L 121.25 72.5 L 128.75 72.5 L 138.75 71.25 L 147.5 68.75 L 153.75 66.25 L 155.0 65.0 L 155.0 65.0 L 150.0 73.75 L 143.75 85.0 L 137.5 95.0 L 133.75 102.5 L 133.75 105.0 L 133.75 105.0 L 138.75 102.5 L 145.0 98.75 L 151.25 95.0 L 156.25 92.5 L 157.5 92.5 L 156.25 98.75 L 150.0 110.0 L 142.5 120.0 L 138.75 126.25 L 138.75 127.5 L 142.5 127.5 L 147.5 123.75 L 152.5 122.5 L 152.5 122.5 L 151.25 127.5 L 145.0 136.25 L 137.5 142.5 L 133.75 145.0 " stroke="black" fill="none" stroke-width="6.0" stroke-linecap="round" stroke-linejoin="round" />
<path d="M 121.25 90.0 L 121.25 88.75 L 121.25 85.0 L 120.0 87.5 L 120.0 101.25 L 120.0 122.5 L 122.5 141.25 L 123.75 153.75 L 123.75 158.75 L 123.75 160.0 L 123.75 161.25 L 123.75 161.25 L 123.75 161.25 L 123.75 161.25 L 123.75 161.25 L 123.75 161.25 L 123.75 161.25 L 123.75 161.25 L 123.75 161.25 L 123.75 161.25 L 123.75 161.25 L 123.75 161.25 L 125.0 161.25 L 125.0 161.25 L 127.5 160.0 L 133.75 158.75 L 142.5 156.25 L 153.75 153.75 L 165.0 151.25 L 173.75 151.25 L 177.5 151.25 L 175.0 151.25 " stroke="black" fill="none" stroke-width="6.0" stroke-linecap="round" stroke-linejoin="round" />
<path d="M 178.75 58.75 L 178.75 57.5 L 177.5 57.5 L 177.5 61.25 L 180.0 76.25 L 181.25 90.0 L 181.25 100.0 L 181.25 103.75 L 181.25 101.25 " stroke="black" fill="none" stroke-width="6.0" stroke-linecap="round" stroke-linejoin="round" />
<path d="M 181.25 78.75 L 178.75 76.25 L 177.5 75.0 L 180.0 72.5 L 190.0 68.75 L 201.25 63.75 L 210.0 58.75 L 212.5 57.5 L 208.75 61.25 L 206.25 66.25 " stroke="black" fill="none" stroke-width="6.0" stroke-linecap="round" stroke-linejoin="round" />
<path d="M 181.25 90.0 L 180.0 92.5 L 180.0 92.5 L 188.75 91.25 L 200.0 85.0 L 212.5 78.75 L 218.75 73.75 L 218.75 72.5 " stroke="black" fill="none" stroke-width="6.0" stroke-linecap="round" stroke-linejoin="round" />
<path d="M 172.5 117.5 L 170.0 115.0 L 168.75 113.75 L 167.5 113.75 L 168.75 118.75 L 172.5 128.75 L 177.5 138.75 L 181.25 146.25 L 182.5 148.75 L 182.5 148.75 " stroke="black" fill="none" stroke-width="6.0" stroke-linecap="round" stroke-linejoin="round" />
<path d="M 171.25 122.5 L 171.25 121.25 L 170.0 120.0 L 172.5 117.5 L 185.0 112.5 L 201.25 107.5 L 216.25 103.75 L 228.75 102.5 L 232.5 106.25 L 230.0 113.75 L 221.25 125.0 L 211.25 135.0 L 203.75 140.0 L 202.5 140.0 " stroke="black" fill="none" stroke-width="6.0" stroke-linecap="round" stroke-linejoin="round" />
<path d="M 200.0 108.75 L 197.5 108.75 L 196.25 111.25 L 196.25 122.5 L 196.25 138.75 L 195.0 146.25 L 195.0 147.5 " stroke="black" fill="none" stroke-width="6.0" stroke-linecap="round" stroke-linejoin="round" />
<path d="M 208.75 106.25 L 208.75 106.25 L 208.75 110.0 L 208.75 116.25 L 206.25 128.75 L 202.5 140.0 L 197.5 145.0 L 190.0 147.5 L 185.0 147.5 L 182.5 147.5 L 183.75 147.5 L 191.25 145.0 L 202.5 140.0 L 213.75 133.75 L 223.75 127.5 L 225.0 126.25 " stroke="black" fill="none" stroke-width="6.0" stroke-linecap="round" stroke-linejoin="round" />
<path d="M 156.25 172.5 L 155.0 170.0 L 152.5 168.75 L 151.25 171.25 L 151.25 187.5 L 152.5 211.25 L 155.0 232.5 L 156.25 241.25 L 156.25 242.5 L 156.25 235.0 " stroke="black" fill="none" stroke-width="6.0" stroke-linecap="round" stroke-linejoin="round" />
<path d="M 156.25 187.5 L 155.0 187.5 L 153.75 185.0 L 153.75 182.5 L 160.0 180.0 L 172.5 177.5 L 191.25 173.75 L 202.5 173.75 L 207.5 180.0 L 206.25 191.25 L 201.25 205.0 L 195.0 218.75 L 187.5 230.0 L 178.75 235.0 L 173.75 236.25 " stroke="black" fill="none" stroke-width="6.0" stroke-linecap="round" stroke-linejoin="round" />
<path d="M 178.75 187.5 L 178.75 187.5 L 178.75 187.5 L 178.75 192.5 L 180.0 207.5 L 175.0 227.5 L 167.5 241.25 L 161.25 245.0 L 157.5 246.25 L 156.25 245.0 L 161.25 242.5 L 173.75 236.25 L 186.25 230.0 L 198.75 221.25 L 203.75 217.5 L 203.75 216.25 L 197.5 223.75 L 188.75 238.75 L 178.75 253.75 L 170.0 268.75 L 166.25 276.25 L 166.25 275.0 L 167.5 273.75 " stroke="black" fill="none" stroke-width="6.0" stroke-linecap="round" stroke-linejoin="round" />
<path d="M 196.25 231.25 L 196.25 230.0 L 195.0 230.0 L 195.0 232.5 L 197.5 242.5 L 202.5 251.25 L 208.75 258.75 L 218.75 261.25 L 230.0 261.25 L 238.75 258.75 L 242.5 256.25 L 243.75 255.0 L 243.75 252.5 L 243.75 248.75 L 243.75 241.25 L 243.75 225.0 L 243.75 202.5 " stroke="black" fill="none" stroke-width="6.0" stroke-linecap="round" stroke-linejoin="round" />
</svg>