<svg xmlns="http://www.w3.org/2000/svg" width="300" height="300" viewBox="0 0 300 300">
<path d="M 130.0 58.75 L 130.0 58.75 L 127.5 60.0 L 120.0 75.0 L 105.0 113.75 L 90.0 155.0 L 75.0 182.5 L 65.0 188.75 L 61.25 186.25 " stroke="black" fill="none" stroke-width="6.0" stroke-linecap="round" stroke-linejoin="round" />
<path d="M 115.0 78.75 L 116.25 78.75 L 120.0 78.75 L 140.0 88.75 L 166.25 110.0 L 191.25 128.75 L 207.5 140.0 L 217.5 150.0 L 218.75 157.5 " stroke="black" fill="none" stroke-width="6.0" stroke-linecap="round" stroke-linejoin="round" />
<path d="M 97.5 170.0 L 93.75 170.0 L 91.25 170.0 L 98.75 166.25 L 118.75 160.0 L 142.5 152.5 L 155.0 146.25 L 156.25 145.0 L 147.5 150.0 L 142.5 151.25 " stroke="black" fill="none" stroke-width="6.0" stroke-linecap="round" stroke-linejoin="round" />
<path d="M 96.25 191.25 L 95.0 200.0 L 93.75 213.75 L 100.0 226.25 L 106.25 235.0 L 110.0 237.5 L 110.0 237.5 L 107.5 236.25 L 101.25 233.75 L 97.5 230.0 L 95.0 226.25 L 96.25 220.0 L 106.25 212.5 L 120.0 205.0 L 133.75 201.25 L 138.75 202.5 L 136.25 212.5 L 126.25 226.25 L 117.5 233.75 L 112.5 236.25 L 115.0 230.0 L 123.75 216.25 L 133.75 203.75 L 143.75 190.0 L 156.25 178.75 L 172.5 168.75 L 192.5 162.5 L 203.75 162.5 L 207.5 167.5 L 207.5 178.75 L 200.0 191.25 L 192.5 202.5 L 182.5 208.75 L 175.0 210.0 L 173.75 210.0 " stroke="black" fill="none" stroke-width="6.0" stroke-linecap="round" stroke-linejoin="round" />
<path d="M 172.5 182.5 L 172.5 180.0 L 172.5 173.75 L 172.5 175.0 L 172.5 190.0 L 175.0 218.75 L 176.25 256.25 L 177.5 291.25 L 177.5 306.25 L 175.0 308.75 L 167.5 308.75 L 165.0 307.5 " stroke="black" fill="none" stroke-width="6.0" stroke-linecap="round" stroke-linejoin="round" />
</svg>