<svg xmlns="http://www.w3.org/2000/svg" width="300" height="300" viewBox="0 0 300 300">
<path d="M 131.25 56.25 L 131.25 56.25 L 128.75 62.5 L 122.5 85.0 L 113.75 111.25 L 112.5 118.75 L 117.5 118.75 L 142.5 106.25 L 163.75 93.75 L 187.5 85.0 L 198.75 80.0 L 198.75 80.0 L 191.25 85.0 " stroke="black" fill="none" stroke-width="6.0" stroke-linecap="round" stroke-linejoin="round" />
<path d="M 160.0 122.5 L 160.0 123.75 L 160.0 130.0 L 160.0 142.5 L 158.75 163.75 L 151.25 191.25 L 137.5 211.25 L 120.0 221.25 L 101.25 223.75 L 88.75 216.25 L 86.25 208.75 " stroke="black" fill="none" stroke-width="6.0" stroke-linecap="round" stroke-linejoin="round" />
<path d="M 95.0 160.0 L 96.25 158.75 L 101.25 161.25 L 117.5 177.5 L 145.0 200.0 L 170.0 217.5 L 192.5 227.5 L 210.0 236.25 L 223.75 238.75 L 226.25 238.75 " stroke="black" fill="none" stroke-width="6.0" stroke-linecap="round" stroke-linejoin="round" />
</svg>