<svg xmlns="http://www.w3.org/2000/svg" width="300" height="300" viewBox="0 0 300 300">
<path d="M 91.25 78.75 L 90.0 77.5 L 90.0 76.25 L 92.5 75.0 L 100.0 75.0 L 111.25 75.0 L 116.25 76.25 " stroke="black" fill="none" stroke-width="6.0" stroke-linecap="round" stroke-linejoin="round" />
<path d="M 70.0 108.75 L 68.75 110.0 L 68.75 111.25 L 77.5 107.5 L 93.75 100.0 L 113.75 88.75 L 126.25 80.0 L 127.5 77.5 L 116.25 81.25 L 106.25 85.0 L 98.75 90.0 L 92.5 95.0 L 90.0 101.25 L 90.0 110.0 L 90.0 122.5 L 90.0 135.0 L 90.0 140.0 L 88.75 140.0 " stroke="black" fill="none" stroke-width="6.0" stroke-linecap="round" stroke-linejoin="round" />
<path d="M 110.0 96.25 L 110.0 95.0 L 111.25 95.0 L 113.75 96.25 L 115.0 103.75 L 112.5 115.0 L 106.25 126.25 L 95.0 136.25 L 83.75 142.5 L 77.5 143.75 L 77.5 143.75 L 88.75 140.0 L 101.25 133.75 L 115.0 126.25 L 126.25 120.0 L 130.0 117.5 L 122.5 120.0 " stroke="black" fill="none" stroke-width="6.0" stroke-linecap="round" stroke-linejoin="round" />
<path d="M 67.5 183.75 L 65.0 186.25 L 70.0 185.0 L 87.5 175.0 L 110.0 158.75 L 126.25 146.25 L 131.25 141.25 L 125.0 141.25 L 116.25 142.5 L 108.75 143.75 L 105.0 143.75 L 103.75 146.25 L 105.0 153.75 L 107.5 177.5 L 110.0 208.75 L 111.25 227.5 L 111.25 232.5 L 110.0 231.25 L 103.75 228.75 L 95.0 227.5 L 85.0 226.25 L 77.5 225.0 L 76.25 220.0 L 87.5 211.25 L 105.0 197.5 L 127.5 177.5 L 136.25 166.25 " stroke="black" fill="none" stroke-width="6.0" stroke-linecap="round" stroke-linejoin="round" />
<path d="M 161.25 102.5 L 161.25 101.25 L 161.25 97.5 L 160.0 97.5 L 161.25 110.0 L 165.0 140.0 L 170.0 171.25 L 173.75 185.0 L 173.75 185.0 L 173.75 176.25 " stroke="black" fill="none" stroke-width="6.0" stroke-linecap="round" stroke-linejoin="round" />
<path d="M 166.25 100.0 L 163.75 97.5 L 163.75 93.75 L 170.0 88.75 L 182.5 85.0 L 196.25 83.75 L 205.0 87.5 L 208.75 105.0 L 210.0 132.5 L 208.75 160.0 L 207.5 176.25 L 206.25 181.25 L 205.0 181.25 L 201.25 176.25 L 200.0 173.75 " stroke="black" fill="none" stroke-width="6.0" stroke-linecap="round" stroke-linejoin="round" />
<path d="M 163.75 137.5 L 161.25 136.25 L 160.0 136.25 L 162.5 133.75 L 175.0 127.5 L 191.25 120.0 L 201.25 111.25 L 202.5 107.5 L 198.75 107.5 " stroke="black" fill="none" stroke-width="6.0" stroke-linecap="round" stroke-linejoin="round" />
<path d="M 167.5 150.0 L 167.5 151.25 L 166.25 152.5 L 171.25 151.25 L 185.0 143.75 L 197.5 133.75 L 205.0 125.0 L 203.75 123.75 " stroke="black" fill="none" stroke-width="6.0" stroke-linecap="round" stroke-linejoin="round" />
<path d="M 166.25 183.75 L 166.25 185.0 L 166.25 187.5 L 176.25 182.5 L 192.5 170.0 L 207.5 155.0 L 210.0 148.75 L 206.25 150.0 L 197.5 160.0 L 191.25 176.25 L 183.75 200.0 L 178.75 223.75 L 176.25 235.0 L 176.25 232.5 L 177.5 230.0 " stroke="black" fill="none" stroke-width="6.0" stroke-linecap="round" stroke-linejoin="round" />
<path d="M 203.75 195.0 L 206.25 207.5 L 212.5 220.0 L 223.75 226.25 L 235.0 226.25 L 243.75 223.75 L 246.25 221.25 L 246.25 221.25 L 246.25 221.25 L 246.25 221.25 L 243.75 218.75 L 242.5 211.25 L 242.5 193.75 L 242.5 187.5 " stroke="black" fill="none" stroke-width="6.0" stroke-linecap="round" stroke-linejoin="round" />
</svg>