<svg xmlns="http://www.w3.org/2000/svg" width="300" height="300" viewBox="0 0 300 300">
<path d="M 65.0 100.0 L 65.0 100.0 L 63.75 100.0 L 70.0 98.75 L 85.0 96.25 L 100.0 95.0 L 111.25 95.0 L 115.0 100.0 L 108.75 110.0 L 93.75 125.0 L 77.5 138.75 L 63.75 147.5 L 55.0 151.25 L 56.25 151.25 L 67.5 147.5 L 86.25 138.75 L 103.75 128.75 L 117.5 120.0 L 122.5 118.75 L 117.5 126.25 L 102.5 141.25 L 85.0 160.0 L 65.0 178.75 L 56.25 187.5 L 55.0 187.5 L 57.5 180.0 L 58.75 177.5 " stroke="black" fill="none" stroke-width="6.0" stroke-linecap="round" stroke-linejoin="round" />
<path d="M 76.25 122.5 L 73.75 120.0 L 71.25 118.75 L 67.5 122.5 L 63.75 146.25 L 58.75 191.25 L 53.75 232.5 L 50.0 251.25 L 50.0 251.25 " stroke="black" fill="none" stroke-width="6.0" stroke-linecap="round" stroke-linejoin="round" />
<path d="M 73.75 187.5 L 75.0 188.75 L 77.5 192.5 L 85.0 205.0 L 91.25 221.25 L 96.25 231.25 L 98.75 232.5 L 96.25 228.75 L 90.0 222.5 L 81.25 217.5 L 75.0 213.75 L 71.25 211.25 L 73.75 207.5 L 92.5 197.5 L 118.75 183.75 L 137.5 178.75 L 138.75 186.25 L 126.25 205.0 L 108.75 225.0 L 97.5 235.0 L 97.5 231.25 L 111.25 207.5 L 127.5 185.0 " stroke="black" fill="none" stroke-width="6.0" stroke-linecap="round" stroke-linejoin="round" />
<path d="M 153.75 90.0 L 153.75 90.0 L 153.75 90.0 L 152.5 90.0 L 152.5 103.75 L 155.0 126.25 L 156.25 138.75 " stroke="black" fill="none" stroke-width="6.0" stroke-linecap="round" stroke-linejoin="round" />
<path d="M 190.0 82.5 L 190.0 82.5 L 193.75 82.5 L 198.75 85.0 L 202.5 92.5 L 202.5 103.75 L 191.25 120.0 L 170.0 137.5 L 152.5 150.0 L 148.75 152.5 L 152.5 152.5 L 167.5 147.5 L 188.75 135.0 L 207.5 118.75 L 216.25 103.75 L 216.25 100.0 L 208.75 105.0 " stroke="black" fill="none" stroke-width="6.0" stroke-linecap="round" stroke-linejoin="round" />
<path d="M 151.25 195.0 L 152.5 195.0 L 158.75 191.25 L 176.25 180.0 L 205.0 155.0 L 212.5 146.25 L 210.0 146.25 L 200.0 155.0 L 196.25 158.75 " stroke="black" fill="none" stroke-width="6.0" stroke-linecap="round" stroke-linejoin="round" />
<path d="M 146.25 227.5 L 146.25 228.75 L 146.25 230.0 L 162.5 222.5 L 200.0 197.5 L 230.0 172.5 L 241.25 157.5 L 243.75 148.75 L 232.5 148.75 L 216.25 152.5 L 201.25 155.0 L 198.75 155.0 " stroke="black" fill="none" stroke-width="6.0" stroke-linecap="round" stroke-linejoin="round" />
<path d="M 191.25 136.25 L 191.25 135.0 L 190.0 133.75 L 190.0 133.75 L 190.0 148.75 L 192.5 185.0 L 196.25 236.25 L 197.5 270.0 L 198.75 285.0 L 196.25 292.5 L 191.25 295.0 L 181.25 295.0 L 177.5 293.75 " stroke="black" fill="none" stroke-width="6.0" stroke-linecap="round" stroke-linejoin="round" />
</svg>