<svg xmlns="http://www.w3.org/2000/svg" width="300" height="300" viewBox="0 0 300 300">
<path d="M 96.25 102.5 L 96.25 102.5 L 95.0 102.5 L 93.75 101.25 L 91.25 106.25 L 86.25 123.75 L 73.75 148.75 L 63.75 160.0 L 60.0 160.0 " stroke="black" fill="none" stroke-width="6.0" stroke-linecap="round" stroke-linejoin="round" />
<path d="M 106.25 122.5 L 107.5 122.5 L 107.5 123.75 L 105.0 133.75 L 96.25 157.5 L 83.75 186.25 L 72.5 196.25 L 68.75 195.0 " stroke="black" fill="none" stroke-width="6.0" stroke-linecap="round" stroke-linejoin="round" />
<path d="M 98.75 162.5 L 102.5 166.25 L 103.75 168.75 L 110.0 207.5 L 105.0 232.5 L 95.0 250.0 L 91.25 252.5 " stroke="black" fill="none" stroke-width="6.0" stroke-linecap="round" stroke-linejoin="round" />
<path d="M 142.5 101.25 L 140.0 102.5 L 141.25 103.75 L 152.5 103.75 L 173.75 102.5 L 192.5 97.5 L 197.5 95.0 L 192.5 95.0 " stroke="black" fill="none" stroke-width="6.0" stroke-linecap="round" stroke-linejoin="round" />
<path d="M 137.5 152.5 L 136.25 155.0 L 140.0 155.0 L 153.75 147.5 L 175.0 135.0 L 192.5 123.75 L 196.25 120.0 L 191.25 122.5 " stroke="black" fill="none" stroke-width="6.0" stroke-linecap="round" stroke-linejoin="round" />
<path d="M 143.75 191.25 L 143.75 191.25 L 143.75 192.5 L 152.5 190.0 L 172.5 178.75 L 195.0 162.5 L 201.25 153.75 L 198.75 152.5 " stroke="black" fill="none" stroke-width="6.0" stroke-linecap="round" stroke-linejoin="round" />
<path d="M 170.0 147.5 L 168.75 150.0 L 168.75 156.25 L 171.25 175.0 L 175.0 202.5 L 173.75 221.25 L 167.5 230.0 L 157.5 235.0 L 148.75 236.25 L 142.5 237.5 L 140.0 237.5 L 140.0 237.5 L 142.5 237.5 L 150.0 237.5 L 160.0 235.0 L 176.25 230.0 L 197.5 223.75 L 213.75 220.0 L 225.0 217.5 L 230.0 216.25 L 231.25 215.0 L 227.5 212.5 " stroke="black" fill="none" stroke-width="6.0" stroke-linecap="round" stroke-linejoin="round" />
</svg>