<svg xmlns="http://www.w3.org/2000/svg" width="300" height="300" viewBox="0 0 300 300">
<path d="M 88.75 97.5 L 88.75 97.5 L 88.75 97.5 L 88.75 97.5 L 95.0 96.25 L 105.0 95.0 L 113.75 93.75 L 115.0 93.75 " stroke="black" fill="none" stroke-width="6.0" stroke-linecap="round" stroke-linejoin="round" />
<path d="M 73.75 133.75 L 67.5 137.5 L 61.25 141.25 L 61.25 142.5 L 70.0 141.25 L 82.5 136.25 L 96.25 127.5 L 108.75 116.25 L 116.25 108.75 L 117.5 106.25 L 112.5 108.75 L 105.0 120.0 L 97.5 136.25 L 90.0 153.75 L 87.5 166.25 L 87.5 170.0 L 91.25 167.5 L 101.25 157.5 L 113.75 146.25 L 126.25 135.0 L 137.5 127.5 L 141.25 125.0 L 140.0 127.5 L 132.5 137.5 L 122.5 156.25 L 110.0 187.5 L 96.25 215.0 L 87.5 227.5 L 82.5 228.75 " stroke="black" fill="none" stroke-width="6.0" stroke-linecap="round" stroke-linejoin="round" />
<path d="M 80.0 181.25 L 80.0 181.25 L 78.75 181.25 L 85.0 187.5 L 98.75 200.0 L 118.75 213.75 L 135.0 220.0 L 140.0 220.0 " stroke="black" fill="none" stroke-width="6.0" stroke-linecap="round" stroke-linejoin="round" />
<path d="M 168.75 81.25 L 168.75 77.5 L 168.75 75.0 L 168.75 76.25 L 168.75 90.0 L 168.75 106.25 L 168.75 117.5 L 170.0 120.0 L 177.5 117.5 L 190.0 107.5 L 200.0 98.75 L 206.25 91.25 L 207.5 88.75 " stroke="black" fill="none" stroke-width="6.0" stroke-linecap="round" stroke-linejoin="round" />
<path d="M 173.75 131.25 L 173.75 133.75 L 173.75 142.5 L 177.5 157.5 L 180.0 180.0 L 173.75 202.5 L 163.75 217.5 L 152.5 223.75 L 142.5 226.25 L 136.25 222.5 " stroke="black" fill="none" stroke-width="6.0" stroke-linecap="round" stroke-linejoin="round" />
<path d="M 142.5 172.5 L 142.5 172.5 L 143.75 172.5 L 151.25 181.25 L 170.0 202.5 L 191.25 222.5 L 206.25 233.75 L 217.5 238.75 L 226.25 241.25 L 230.0 242.5 L 231.25 242.5 L 231.25 242.5 " stroke="black" fill="none" stroke-width="6.0" stroke-linecap="round" stroke-linejoin="round" />
</svg>