<svg xmlns="http://www.w3.org/2000/svg" width="300" height="300" viewBox="0 0 300 300">
<path d="M 58.75 117.5 L 57.5 117.5 L 56.25 116.25 L 56.25 117.5 L 65.0 127.5 L 76.25 141.25 L 86.25 151.25 L 88.75 152.5 L 88.75 151.25 " stroke="black" fill="none" stroke-width="6.0" stroke-linecap="round" stroke-linejoin="round" />
<path d="M 71.25 136.25 L 66.25 136.25 L 63.75 135.0 L 67.5 133.75 L 80.0 127.5 L 95.0 118.75 L 107.5 112.5 L 113.75 110.0 L 112.5 113.75 L 102.5 126.25 L 93.75 138.75 L 85.0 150.0 L 80.0 156.25 L 80.0 156.25 L 86.25 152.5 L 95.0 146.25 L 101.25 138.75 L 106.25 135.0 L 107.5 133.75 L 106.25 138.75 L 102.5 157.5 L 101.25 188.75 L 100.0 212.5 L 100.0 221.25 L 100.0 221.25 L 100.0 220.0 L 100.0 217.5 L 102.5 212.5 L 105.0 205.0 L 108.75 197.5 L 113.75 188.75 L 120.0 180.0 L 123.75 171.25 L 123.75 167.5 " stroke="black" fill="none" stroke-width="6.0" stroke-linecap="round" stroke-linejoin="round" />
<path d="M 66.25 183.75 L 66.25 182.5 L 65.0 182.5 L 67.5 190.0 L 75.0 210.0 L 80.0 232.5 L 85.0 241.25 L 90.0 240.0 L 98.75 230.0 L 112.5 218.75 L 126.25 207.5 L 133.75 201.25 " stroke="black" fill="none" stroke-width="6.0" stroke-linecap="round" stroke-linejoin="round" />
<path d="M 145.0 113.75 L 141.25 116.25 L 140.0 117.5 L 143.75 115.0 L 157.5 106.25 L 173.75 93.75 L 187.5 83.75 L 190.0 80.0 L 182.5 81.25 L 172.5 83.75 L 163.75 83.75 L 156.25 85.0 L 151.25 86.25 L 150.0 86.25 L 150.0 87.5 L 156.25 95.0 L 173.75 118.75 L 193.75 146.25 L 207.5 161.25 L 212.5 163.75 L 213.75 163.75 L 213.75 163.75 L 213.75 163.75 L 213.75 162.5 L 213.75 160.0 L 213.75 155.0 L 212.5 150.0 L 211.25 143.75 L 210.0 136.25 L 210.0 125.0 L 208.75 112.5 L 207.5 110.0 " stroke="black" fill="none" stroke-width="6.0" stroke-linecap="round" stroke-linejoin="round" />
<path d="M 202.5 102.5 L 200.0 103.75 L 197.5 106.25 L 192.5 112.5 L 181.25 128.75 L 165.0 148.75 L 152.5 157.5 L 151.25 158.75 " stroke="black" fill="none" stroke-width="6.0" stroke-linecap="round" stroke-linejoin="round" />
<path d="M 192.5 65.0 L 193.75 62.5 L 193.75 61.25 L 198.75 63.75 L 206.25 75.0 L 208.75 82.5 " stroke="black" fill="none" stroke-width="6.0" stroke-linecap="round" stroke-linejoin="round" />
<path d="M 146.25 203.75 L 141.25 206.25 L 137.5 207.5 L 140.0 207.5 L 153.75 203.75 L 175.0 193.75 L 193.75 181.25 L 202.5 171.25 L 200.0 168.75 L 192.5 168.75 L 186.25 168.75 L 178.75 170.0 L 172.5 172.5 L 168.75 176.25 L 168.75 183.75 L 175.0 202.5 L 193.75 235.0 L 213.75 255.0 L 227.5 260.0 L 236.25 260.0 L 237.5 260.0 L 237.5 260.0 L 237.5 258.75 L 237.5 255.0 L 236.25 250.0 L 232.5 243.75 L 227.5 236.25 L 218.75 226.25 L 213.75 218.75 " stroke="black" fill="none" stroke-width="6.0" stroke-linecap="round" stroke-linejoin="round" />
<path d="M 216.25 193.75 L 208.75 201.25 L 198.75 211.25 L 186.25 227.5 L 170.0 243.75 L 156.25 248.75 L 153.75 247.5 " stroke="black" fill="none" stroke-width="6.0" stroke-linecap="round" stroke-linejoin="round" />
<path d="M 228.75 153.75 L 228.75 153.75 L 228.75 152.5 L 230.0 152.5 L 235.0 155.0 L 241.25 163.75 L 242.5 166.25 " stroke="black" fill="none" stroke-width="6.0" stroke-linecap="round" stroke-linejoin="round" />
</svg>