<svg xmlns="http://www.w3.org/2000/svg" width="300" height="300" viewBox="0 0 300 300">
<path d="M 85.0 93.75 L 81.25 95.0 L 81.25 98.75 L 85.0 110.0 L 93.75 127.5 L 97.5 137.5 L 97.5 141.25 L 96.25 141.25 " stroke="black" fill="none" stroke-width="6.0" stroke-linecap="round" stroke-linejoin="round" />
<path d="M 83.75 108.75 L 81.25 108.75 L 78.75 108.75 L 78.75 107.5 L 87.5 103.75 L 102.5 98.75 L 116.25 93.75 L 126.25 92.5 L 127.5 96.25 L 117.5 107.5 L 105.0 122.5 L 93.75 135.0 L 88.75 141.25 L 88.75 141.25 L 93.75 138.75 L 103.75 132.5 L 113.75 125.0 L 121.25 117.5 L 122.5 115.0 L 120.0 115.0 L 115.0 122.5 L 111.25 137.5 L 110.0 166.25 L 111.25 202.5 L 116.25 218.75 L 117.5 221.25 L 117.5 221.25 L 117.5 220.0 L 117.5 216.25 L 117.5 210.0 L 117.5 203.75 L 120.0 196.25 L 123.75 187.5 L 130.0 178.75 L 137.5 170.0 L 141.25 165.0 L 142.5 163.75 " stroke="black" fill="none" stroke-width="6.0" stroke-linecap="round" stroke-linejoin="round" />
<path d="M 78.75 187.5 L 77.5 187.5 L 76.25 188.75 L 76.25 193.75 L 83.75 208.75 L 91.25 228.75 L 98.75 237.5 L 111.25 236.25 L 127.5 223.75 L 143.75 211.25 L 153.75 202.5 L 156.25 197.5 L 155.0 196.25 " stroke="black" fill="none" stroke-width="6.0" stroke-linecap="round" stroke-linejoin="round" />
<path d="M 153.75 100.0 L 151.25 101.25 L 147.5 103.75 L 148.75 105.0 L 165.0 100.0 L 187.5 90.0 L 205.0 76.25 L 210.0 67.5 L 205.0 67.5 L 197.5 71.25 L 188.75 73.75 L 181.25 75.0 L 175.0 76.25 L 171.25 77.5 L 171.25 78.75 L 180.0 93.75 L 197.5 128.75 L 213.75 158.75 L 223.75 171.25 L 228.75 171.25 L 228.75 171.25 L 228.75 168.75 L 226.25 162.5 L 222.5 153.75 L 216.25 145.0 L 210.0 135.0 L 206.25 127.5 " stroke="black" fill="none" stroke-width="6.0" stroke-linecap="round" stroke-linejoin="round" />
<path d="M 217.5 91.25 L 217.5 92.5 L 208.75 100.0 L 200.0 115.0 L 186.25 136.25 L 173.75 148.75 L 163.75 151.25 L 161.25 148.75 " stroke="black" fill="none" stroke-width="6.0" stroke-linecap="round" stroke-linejoin="round" />
<path d="M 201.25 56.25 L 201.25 56.25 L 202.5 53.75 L 206.25 52.5 L 216.25 56.25 L 230.0 67.5 L 235.0 80.0 " stroke="black" fill="none" stroke-width="6.0" stroke-linecap="round" stroke-linejoin="round" />
<path d="M 158.75 197.5 L 155.0 197.5 L 152.5 197.5 L 155.0 197.5 L 172.5 193.75 L 195.0 186.25 L 211.25 177.5 L 217.5 171.25 L 212.5 171.25 L 205.0 172.5 L 198.75 173.75 L 191.25 176.25 L 186.25 177.5 L 180.0 177.5 L 178.75 178.75 L 180.0 185.0 L 191.25 206.25 L 206.25 240.0 L 220.0 260.0 L 230.0 267.5 L 235.0 268.75 L 235.0 268.75 L 235.0 268.75 L 233.75 268.75 L 233.75 268.75 L 233.75 266.25 L 232.5 263.75 L 231.25 260.0 L 230.0 256.25 L 230.0 252.5 L 228.75 246.25 L 228.75 232.5 L 231.25 213.75 L 231.25 206.25 " stroke="black" fill="none" stroke-width="6.0" stroke-linecap="round" stroke-linejoin="round" />
<path d="M 223.75 200.0 L 222.5 200.0 L 218.75 200.0 L 215.0 200.0 L 207.5 206.25 L 192.5 222.5 L 172.5 238.75 L 160.0 243.75 L 156.25 243.75 " stroke="black" fill="none" stroke-width="6.0" stroke-linecap="round" stroke-linejoin="round" />
<path d="M 237.5 150.0 L 236.25 150.0 L 235.0 150.0 L 237.5 151.25 L 245.0 160.0 L 250.0 173.75 L 251.25 177.5 " stroke="black" fill="none" stroke-width="6.0" stroke-linecap="round" stroke-linejoin="round" />
</svg>