<svg xmlns="http://www.w3.org/2000/svg" width="300" height="300" viewBox="0 0 300 300">
<path d="M 80.0 90.0 L 78.75 88.75 L 78.75 87.5 L 78.75 88.75 L 82.5 122.5 L 87.5 181.25 L 88.75 215.0 L 91.25 222.5 L 91.25 218.75 L 91.25 212.5 " stroke="black" fill="none" stroke-width="6.0" stroke-linecap="round" stroke-linejoin="round" />
<path d="M 82.5 95.0 L 81.25 95.0 L 81.25 95.0 L 85.0 92.5 L 96.25 92.5 L 113.75 95.0 L 126.25 106.25 L 126.25 122.5 L 115.0 138.75 L 100.0 147.5 L 92.5 148.75 " stroke="black" fill="none" stroke-width="6.0" stroke-linecap="round" stroke-linejoin="round" />
<path d="M 86.25 116.25 L 86.25 116.25 L 87.5 116.25 L 92.5 116.25 L 105.0 112.5 L 117.5 110.0 L 117.5 110.0 " stroke="black" fill="none" stroke-width="6.0" stroke-linecap="round" stroke-linejoin="round" />
<path d="M 91.25 147.5 L 90.0 148.75 L 87.5 152.5 L 92.5 152.5 L 112.5 140.0 L 131.25 126.25 " stroke="black" fill="none" stroke-width="6.0" stroke-linecap="round" stroke-linejoin="round" />
<path d="M 181.25 83.75 L 178.75 85.0 L 172.5 91.25 L 168.75 111.25 L 170.0 135.0 L 178.75 143.75 L 192.5 143.75 L 205.0 133.75 L 212.5 120.0 L 215.0 110.0 L 211.25 103.75 L 202.5 103.75 L 190.0 108.75 L 176.25 113.75 L 165.0 118.75 L 161.25 121.25 L 162.5 121.25 L 175.0 115.0 L 191.25 103.75 L 206.25 90.0 L 210.0 82.5 L 210.0 81.25 " stroke="black" fill="none" stroke-width="6.0" stroke-linecap="round" stroke-linejoin="round" />
<path d="M 183.75 86.25 L 178.75 87.5 L 175.0 87.5 L 178.75 87.5 L 193.75 87.5 L 210.0 85.0 L 225.0 83.75 L 237.5 96.25 L 240.0 138.75 L 241.25 190.0 L 246.25 232.5 L 248.75 258.75 L 251.25 268.75 L 251.25 270.0 L 251.25 268.75 L 247.5 263.75 L 237.5 256.25 L 222.5 245.0 L 205.0 227.5 L 200.0 221.25 " stroke="black" fill="none" stroke-width="6.0" stroke-linecap="round" stroke-linejoin="round" />
<path d="M 128.75 158.75 L 123.75 160.0 L 121.25 160.0 L 123.75 160.0 L 137.5 157.5 L 152.5 151.25 L 167.5 146.25 L 175.0 142.5 L 175.0 142.5 L 168.75 145.0 L 163.75 150.0 L 161.25 158.75 L 163.75 181.25 L 172.5 216.25 L 176.25 245.0 L 176.25 255.0 L 175.0 255.0 L 167.5 253.75 L 163.75 250.0 " stroke="black" fill="none" stroke-width="6.0" stroke-linecap="round" stroke-linejoin="round" />
<path d="M 130.0 173.75 L 128.75 173.75 L 125.0 173.75 L 125.0 181.25 L 127.5 200.0 L 131.25 220.0 L 131.25 226.25 " stroke="black" fill="none" stroke-width="6.0" stroke-linecap="round" stroke-linejoin="round" />
<path d="M 135.0 187.5 L 135.0 187.5 L 133.75 186.25 L 137.5 185.0 L 150.0 178.75 L 166.25 171.25 L 171.25 167.5 L 170.0 167.5 " stroke="black" fill="none" stroke-width="6.0" stroke-linecap="round" stroke-linejoin="round" />
<path d="M 140.0 200.0 L 135.0 203.75 L 133.75 205.0 L 138.75 205.0 L 148.75 202.5 L 160.0 197.5 L 163.75 195.0 " stroke="black" fill="none" stroke-width="6.0" stroke-linecap="round" stroke-linejoin="round" />
<path d="M 130.0 226.25 L 130.0 227.5 L 131.25 227.5 L 147.5 220.0 L 185.0 200.0 L 206.25 190.0 " stroke="black" fill="none" stroke-width="6.0" stroke-linecap="round" stroke-linejoin="round" />
</svg>