<svg xmlns="http://www.w3.org/2000/svg" width="300" height="300" viewBox="0 0 300 300">
<path d="M 73.75 93.75 L 71.25 92.5 L 68.75 91.25 L 68.75 91.25 L 68.75 108.75 L 68.75 156.25 L 68.75 202.5 L 67.5 225.0 L 67.5 232.5 L 66.25 230.0 L 63.75 216.25 " stroke="black" fill="none" stroke-width="6.0" stroke-linecap="round" stroke-linejoin="round" />
<path d="M 67.5 96.25 L 66.25 96.25 L 65.0 96.25 L 72.5 95.0 L 91.25 92.5 L 108.75 92.5 L 130.0 95.0 L 132.5 105.0 L 122.5 122.5 L 108.75 136.25 L 96.25 142.5 L 95.0 142.5 " stroke="black" fill="none" stroke-width="6.0" stroke-linecap="round" stroke-linejoin="round" />
<path d="M 76.25 123.75 L 72.5 123.75 L 72.5 123.75 L 81.25 122.5 L 96.25 118.75 L 110.0 113.75 L 113.75 111.25 " stroke="black" fill="none" stroke-width="6.0" stroke-linecap="round" stroke-linejoin="round" />
<path d="M 73.75 153.75 L 70.0 155.0 L 71.25 156.25 L 86.25 150.0 L 112.5 137.5 L 135.0 126.25 " stroke="black" fill="none" stroke-width="6.0" stroke-linecap="round" stroke-linejoin="round" />
<path d="M 177.5 82.5 L 172.5 85.0 L 168.75 95.0 L 167.5 116.25 L 168.75 135.0 L 178.75 140.0 L 192.5 138.75 L 205.0 131.25 L 213.75 123.75 L 217.5 120.0 L 215.0 120.0 L 205.0 122.5 L 195.0 123.75 L 181.25 123.75 L 170.0 125.0 L 163.75 125.0 L 163.75 125.0 L 167.5 122.5 L 177.5 116.25 L 193.75 108.75 L 207.5 100.0 L 215.0 93.75 " stroke="black" fill="none" stroke-width="6.0" stroke-linecap="round" stroke-linejoin="round" />
<path d="M 176.25 95.0 L 172.5 95.0 L 171.25 95.0 L 177.5 93.75 L 195.0 87.5 L 216.25 81.25 L 233.75 77.5 L 241.25 77.5 L 241.25 88.75 L 238.75 118.75 L 238.75 166.25 L 242.5 216.25 L 246.25 241.25 L 250.0 248.75 L 250.0 250.0 L 250.0 250.0 L 247.5 247.5 L 240.0 240.0 L 228.75 226.25 L 212.5 206.25 L 208.75 202.5 " stroke="black" fill="none" stroke-width="6.0" stroke-linecap="round" stroke-linejoin="round" />
<path d="M 116.25 160.0 L 111.25 161.25 L 107.5 162.5 L 111.25 162.5 L 130.0 161.25 L 151.25 155.0 L 172.5 146.25 L 185.0 141.25 L 185.0 140.0 L 178.75 141.25 L 171.25 145.0 L 166.25 147.5 L 162.5 151.25 L 161.25 156.25 L 161.25 172.5 L 162.5 205.0 L 165.0 238.75 L 166.25 252.5 L 166.25 256.25 L 166.25 256.25 L 161.25 252.5 L 158.75 251.25 " stroke="black" fill="none" stroke-width="6.0" stroke-linecap="round" stroke-linejoin="round" />
<path d="M 115.0 173.75 L 113.75 173.75 L 112.5 173.75 L 112.5 178.75 L 112.5 197.5 L 115.0 216.25 L 115.0 225.0 L 113.75 225.0 " stroke="black" fill="none" stroke-width="6.0" stroke-linecap="round" stroke-linejoin="round" />
<path d="M 115.0 187.5 L 115.0 187.5 L 115.0 187.5 L 117.5 186.25 L 131.25 182.5 L 150.0 176.25 L 160.0 172.5 L 158.75 173.75 " stroke="black" fill="none" stroke-width="6.0" stroke-linecap="round" stroke-linejoin="round" />
<path d="M 118.75 206.25 L 116.25 206.25 L 116.25 206.25 L 127.5 203.75 L 143.75 198.75 L 161.25 192.5 L 165.0 191.25 " stroke="black" fill="none" stroke-width="6.0" stroke-linecap="round" stroke-linejoin="round" />
<path d="M 106.25 230.0 L 106.25 230.0 L 103.75 232.5 L 111.25 232.5 L 136.25 225.0 L 170.0 212.5 L 197.5 205.0 L 207.5 202.5 L 207.5 202.5 " stroke="black" fill="none" stroke-width="6.0" stroke-linecap="round" stroke-linejoin="round" />
</svg>