<svg xmlns="http://www.w3.org/2000/svg" width="300" height="300" viewBox="0 0 300 300">
<path d="M 71.25 93.75 L 71.25 93.75 L 70.0 92.5 L 70.0 98.75 L 70.0 135.0 L 71.25 185.0 L 71.25 213.75 L 73.75 225.0 L 76.25 221.25 L 76.25 213.75 " stroke="black" fill="none" stroke-width="6.0" stroke-linecap="round" stroke-linejoin="round" />
<path d="M 76.25 95.0 L 75.0 93.75 L 75.0 92.5 L 80.0 91.25 L 92.5 91.25 L 110.0 93.75 L 122.5 101.25 L 125.0 113.75 L 113.75 131.25 L 98.75 142.5 L 91.25 146.25 " stroke="black" fill="none" stroke-width="6.0" stroke-linecap="round" stroke-linejoin="round" />
<path d="M 77.5 127.5 L 76.25 127.5 L 75.0 127.5 L 75.0 126.25 L 76.25 125.0 L 100.0 111.25 L 111.25 106.25 L 108.75 107.5 " stroke="black" fill="none" stroke-width="6.0" stroke-linecap="round" stroke-linejoin="round" />
<path d="M 80.0 147.5 L 76.25 151.25 L 75.0 152.5 L 82.5 150.0 L 100.0 138.75 L 123.75 123.75 " stroke="black" fill="none" stroke-width="6.0" stroke-linecap="round" stroke-linejoin="round" />
<path d="M 161.25 86.25 L 161.25 86.25 L 158.75 86.25 L 157.5 90.0 L 157.5 111.25 L 165.0 132.5 L 177.5 140.0 L 191.25 136.25 L 206.25 118.75 L 210.0 108.75 L 210.0 103.75 L 202.5 103.75 L 190.0 111.25 L 175.0 118.75 L 161.25 125.0 L 152.5 130.0 L 152.5 130.0 L 158.75 126.25 L 171.25 116.25 L 187.5 102.5 L 201.25 90.0 L 203.75 85.0 " stroke="black" fill="none" stroke-width="6.0" stroke-linecap="round" stroke-linejoin="round" />
<path d="M 163.75 83.75 L 161.25 83.75 L 160.0 85.0 L 163.75 85.0 L 181.25 83.75 L 202.5 78.75 L 218.75 76.25 L 227.5 78.75 L 228.75 102.5 L 226.25 151.25 L 227.5 207.5 L 232.5 252.5 L 238.75 268.75 L 241.25 273.75 L 241.25 273.75 L 237.5 271.25 L 230.0 262.5 L 220.0 248.75 L 206.25 230.0 L 195.0 211.25 " stroke="black" fill="none" stroke-width="6.0" stroke-linecap="round" stroke-linejoin="round" />
<path d="M 121.25 162.5 L 120.0 162.5 L 115.0 163.75 L 113.75 163.75 L 123.75 161.25 L 143.75 155.0 L 163.75 146.25 L 178.75 141.25 L 181.25 140.0 L 176.25 143.75 L 166.25 148.75 L 160.0 151.25 L 156.25 152.5 L 153.75 155.0 L 155.0 167.5 L 158.75 196.25 L 162.5 227.5 L 162.5 243.75 L 161.25 247.5 L 156.25 245.0 L 152.5 237.5 " stroke="black" fill="none" stroke-width="6.0" stroke-linecap="round" stroke-linejoin="round" />
<path d="M 122.5 171.25 L 121.25 171.25 L 117.5 172.5 L 116.25 178.75 L 116.25 198.75 L 120.0 223.75 L 122.5 242.5 L 122.5 245.0 L 122.5 245.0 " stroke="black" fill="none" stroke-width="6.0" stroke-linecap="round" stroke-linejoin="round" />
<path d="M 122.5 197.5 L 121.25 196.25 L 118.75 195.0 L 120.0 191.25 L 130.0 187.5 L 142.5 181.25 L 153.75 176.25 L 156.25 176.25 L 153.75 178.75 " stroke="black" fill="none" stroke-width="6.0" stroke-linecap="round" stroke-linejoin="round" />
<path d="M 127.5 208.75 L 123.75 211.25 L 122.5 211.25 L 130.0 210.0 L 142.5 202.5 L 153.75 195.0 L 160.0 190.0 L 157.5 192.5 L 155.0 193.75 " stroke="black" fill="none" stroke-width="6.0" stroke-linecap="round" stroke-linejoin="round" />
<path d="M 123.75 240.0 L 123.75 241.25 L 121.25 243.75 L 125.0 243.75 L 140.0 235.0 L 162.5 217.5 L 186.25 200.0 L 196.25 191.25 " stroke="black" fill="none" stroke-width="6.0" stroke-linecap="round" stroke-linejoin="round" />
</svg>