<svg xmlns="http://www.w3.org/2000/svg" width="300" height="300" viewBox="0 0 300 300">
<path d="M 112.5 97.5 L 111.25 98.75 L 103.75 100.0 L 102.5 101.25 L 113.75 101.25 L 133.75 96.25 L 153.75 88.75 L 168.75 81.25 L 173.75 76.25 L 168.75 76.25 L 158.75 76.25 L 150.0 76.25 L 143.75 75.0 L 138.75 75.0 L 137.5 75.0 L 137.5 81.25 L 137.5 96.25 L 137.5 120.0 L 135.0 137.5 L 133.75 140.0 " stroke="black" fill="none" stroke-width="6.0" stroke-linecap="round" stroke-linejoin="round" />
<path d="M 92.5 143.75 L 91.25 142.5 L 87.5 142.5 L 86.25 143.75 L 88.75 163.75 L 93.75 201.25 L 97.5 231.25 L 101.25 240.0 L 102.5 240.0 L 102.5 230.0 " stroke="black" fill="none" stroke-width="6.0" stroke-linecap="round" stroke-linejoin="round" />
<path d="M 100.0 150.0 L 97.5 150.0 L 96.25 150.0 L 103.75 146.25 L 125.0 137.5 L 151.25 123.75 L 177.5 111.25 L 193.75 107.5 L 203.75 112.5 L 208.75 133.75 L 212.5 161.25 L 215.0 195.0 L 217.5 217.5 L 217.5 232.5 L 218.75 238.75 L 218.75 238.75 L 216.25 237.5 L 211.25 231.25 L 203.75 218.75 L 193.75 205.0 " stroke="black" fill="none" stroke-width="6.0" stroke-linecap="round" stroke-linejoin="round" />
<path d="M 126.25 138.75 L 123.75 140.0 L 121.25 142.5 L 122.5 148.75 L 127.5 161.25 L 128.75 173.75 L 127.5 178.75 " stroke="black" fill="none" stroke-width="6.0" stroke-linecap="round" stroke-linejoin="round" />
<path d="M 138.75 137.5 L 138.75 137.5 L 142.5 136.25 L 148.75 136.25 L 157.5 140.0 L 162.5 147.5 L 160.0 156.25 L 150.0 166.25 L 137.5 173.75 L 125.0 182.5 L 115.0 187.5 L 113.75 188.75 L 121.25 187.5 L 135.0 180.0 L 150.0 168.75 L 163.75 156.25 L 175.0 146.25 L 175.0 145.0 L 173.75 145.0 " stroke="black" fill="none" stroke-width="6.0" stroke-linecap="round" stroke-linejoin="round" />
<path d="M 131.25 213.75 L 131.25 213.75 L 130.0 215.0 L 136.25 211.25 L 152.5 200.0 L 171.25 186.25 L 181.25 173.75 L 180.0 171.25 L 172.5 171.25 L 171.25 171.25 " stroke="black" fill="none" stroke-width="6.0" stroke-linecap="round" stroke-linejoin="round" />
<path d="M 151.25 166.25 L 150.0 167.5 L 148.75 170.0 L 148.75 180.0 L 153.75 205.0 L 157.5 237.5 L 158.75 258.75 L 156.25 267.5 " stroke="black" fill="none" stroke-width="6.0" stroke-linecap="round" stroke-linejoin="round" />
</svg>