<svg xmlns="http://www.w3.org/2000/svg" width="300" height="300" viewBox="0 0 300 300">
<path d="M 85.0 100.0 L 81.25 101.25 L 80.0 101.25 L 90.0 101.25 L 117.5 93.75 L 148.75 83.75 L 162.5 76.25 L 163.75 73.75 L 161.25 73.75 L 151.25 72.5 L 142.5 72.5 L 136.25 73.75 L 131.25 75.0 L 130.0 78.75 L 130.0 88.75 L 132.5 102.5 L 133.75 118.75 L 133.75 121.25 " stroke="black" fill="none" stroke-width="6.0" stroke-linecap="round" stroke-linejoin="round" />
<path d="M 68.75 143.75 L 65.0 148.75 L 63.75 165.0 L 67.5 197.5 L 72.5 223.75 L 76.25 233.75 L 77.5 232.5 L 77.5 230.0 " stroke="black" fill="none" stroke-width="6.0" stroke-linecap="round" stroke-linejoin="round" />
<path d="M 87.5 150.0 L 90.0 148.75 L 100.0 143.75 L 132.5 133.75 L 166.25 121.25 L 190.0 116.25 L 200.0 125.0 L 202.5 151.25 L 203.75 187.5 L 206.25 222.5 L 211.25 247.5 L 215.0 253.75 L 215.0 253.75 L 213.75 250.0 L 206.25 242.5 L 193.75 228.75 L 176.25 210.0 L 171.25 205.0 " stroke="black" fill="none" stroke-width="6.0" stroke-linecap="round" stroke-linejoin="round" />
<path d="M 125.0 137.5 L 123.75 137.5 L 121.25 137.5 L 118.75 138.75 L 120.0 148.75 L 126.25 165.0 L 130.0 175.0 L 131.25 175.0 " stroke="black" fill="none" stroke-width="6.0" stroke-linecap="round" stroke-linejoin="round" />
<path d="M 146.25 132.5 L 146.25 131.25 L 147.5 131.25 L 150.0 133.75 L 150.0 145.0 L 145.0 161.25 L 132.5 176.25 L 113.75 186.25 L 100.0 190.0 L 98.75 190.0 L 108.75 186.25 L 130.0 173.75 L 151.25 160.0 L 165.0 148.75 L 163.75 145.0 L 161.25 146.25 " stroke="black" fill="none" stroke-width="6.0" stroke-linecap="round" stroke-linejoin="round" />
<path d="M 117.5 217.5 L 117.5 217.5 L 118.75 217.5 L 135.0 206.25 L 156.25 183.75 L 167.5 167.5 L 165.0 160.0 L 155.0 162.5 L 152.5 163.75 " stroke="black" fill="none" stroke-width="6.0" stroke-linecap="round" stroke-linejoin="round" />
<path d="M 138.75 167.5 L 138.75 167.5 L 137.5 168.75 L 140.0 183.75 L 145.0 221.25 L 146.25 252.5 L 143.75 265.0 " stroke="black" fill="none" stroke-width="6.0" stroke-linecap="round" stroke-linejoin="round" />
</svg>