<svg xmlns="http://www.w3.org/2000/svg" width="300" height="300" viewBox="0 0 300 300">
<path d="M 90.0 97.5 L 87.5 97.5 L 83.75 98.75 L 82.5 98.75 L 95.0 98.75 L 121.25 92.5 L 150.0 81.25 L 165.0 72.5 L 166.25 70.0 L 156.25 72.5 L 145.0 76.25 L 135.0 78.75 L 126.25 78.75 L 121.25 80.0 L 120.0 80.0 L 122.5 81.25 L 125.0 93.75 L 125.0 115.0 L 120.0 136.25 " stroke="black" fill="none" stroke-width="6.0" stroke-linecap="round" stroke-linejoin="round" />
<path d="M 86.25 132.5 L 83.75 132.5 L 80.0 135.0 L 77.5 143.75 L 77.5 172.5 L 80.0 208.75 L 83.75 232.5 L 85.0 236.25 L 86.25 236.25 " stroke="black" fill="none" stroke-width="6.0" stroke-linecap="round" stroke-linejoin="round" />
<path d="M 91.25 147.5 L 88.75 147.5 L 88.75 147.5 L 96.25 146.25 L 120.0 138.75 L 155.0 125.0 L 185.0 113.75 L 201.25 118.75 L 205.0 142.5 L 207.5 185.0 L 208.75 227.5 L 210.0 242.5 L 211.25 257.5 L 211.25 257.5 L 210.0 255.0 L 205.0 247.5 L 195.0 235.0 L 181.25 217.5 L 165.0 202.5 " stroke="black" fill="none" stroke-width="6.0" stroke-linecap="round" stroke-linejoin="round" />
<path d="M 117.5 140.0 L 117.5 140.0 L 115.0 140.0 L 113.75 145.0 L 113.75 160.0 L 115.0 177.5 L 115.0 180.0 " stroke="black" fill="none" stroke-width="6.0" stroke-linecap="round" stroke-linejoin="round" />
<path d="M 150.0 128.75 L 150.0 128.75 L 151.25 128.75 L 151.25 128.75 L 151.25 138.75 L 147.5 155.0 L 137.5 168.75 L 121.25 178.75 L 107.5 183.75 L 102.5 185.0 L 106.25 185.0 L 121.25 178.75 L 141.25 167.5 L 158.75 155.0 L 171.25 146.25 L 170.0 145.0 " stroke="black" fill="none" stroke-width="6.0" stroke-linecap="round" stroke-linejoin="round" />
<path d="M 126.25 215.0 L 122.5 218.75 L 122.5 220.0 L 136.25 212.5 L 153.75 197.5 L 171.25 178.75 L 175.0 166.25 " stroke="black" fill="none" stroke-width="6.0" stroke-linecap="round" stroke-linejoin="round" />
<path d="M 141.25 165.0 L 141.25 165.0 L 140.0 168.75 L 140.0 183.75 L 142.5 215.0 L 143.75 248.75 L 143.75 255.0 " stroke="black" fill="none" stroke-width="6.0" stroke-linecap="round" stroke-linejoin="round" />
</svg>