<svg xmlns="http://www.w3.org/2000/svg" width="300" height="300" viewBox="0 0 300 300">
<path d="M 100.0 87.5 L 96.25 87.5 L 95.0 88.75 L 98.75 90.0 L 117.5 90.0 L 147.5 83.75 L 172.5 73.75 L 183.75 68.75 L 181.25 67.5 L 168.75 67.5 L 156.25 67.5 L 146.25 67.5 L 138.75 68.75 L 137.5 72.5 L 138.75 85.0 L 141.25 103.75 L 143.75 120.0 L 143.75 127.5 " stroke="black" fill="none" stroke-width="6.0" stroke-linecap="round" stroke-linejoin="round" />
<path d="M 90.0 128.75 L 87.5 131.25 L 83.75 143.75 L 82.5 171.25 L 83.75 207.5 L 87.5 231.25 L 91.25 242.5 L 92.5 241.25 L 92.5 238.75 " stroke="black" fill="none" stroke-width="6.0" stroke-linecap="round" stroke-linejoin="round" />
<path d="M 92.5 146.25 L 92.5 146.25 L 98.75 143.75 L 126.25 138.75 L 161.25 131.25 L 191.25 125.0 L 207.5 126.25 L 211.25 143.75 L 212.5 176.25 L 212.5 211.25 L 213.75 235.0 L 215.0 247.5 L 215.0 250.0 L 215.0 250.0 L 213.75 247.5 L 207.5 237.5 L 197.5 223.75 L 182.5 208.75 L 177.5 206.25 " stroke="black" fill="none" stroke-width="6.0" stroke-linecap="round" stroke-linejoin="round" />
<path d="M 123.75 148.75 L 123.75 148.75 L 122.5 148.75 L 122.5 155.0 L 126.25 166.25 L 128.75 173.75 L 128.75 175.0 " stroke="black" fill="none" stroke-width="6.0" stroke-linecap="round" stroke-linejoin="round" />
<path d="M 151.25 136.25 L 151.25 136.25 L 152.5 136.25 L 155.0 141.25 L 155.0 151.25 L 151.25 165.0 L 138.75 176.25 L 121.25 183.75 L 107.5 187.5 L 105.0 187.5 L 111.25 186.25 L 127.5 180.0 L 148.75 170.0 L 167.5 160.0 L 178.75 153.75 L 176.25 155.0 L 167.5 160.0 " stroke="black" fill="none" stroke-width="6.0" stroke-linecap="round" stroke-linejoin="round" />
<path d="M 123.75 211.25 L 123.75 212.5 L 125.0 212.5 L 135.0 208.75 L 156.25 193.75 L 175.0 180.0 L 178.75 173.75 L 176.25 173.75 " stroke="black" fill="none" stroke-width="6.0" stroke-linecap="round" stroke-linejoin="round" />
<path d="M 145.0 168.75 L 143.75 168.75 L 142.5 172.5 L 142.5 190.0 L 143.75 213.75 L 145.0 255.0 L 145.0 260.0 " stroke="black" fill="none" stroke-width="6.0" stroke-linecap="round" stroke-linejoin="round" />
</svg>