<svg xmlns="http://www.w3.org/2000/svg" width="300" height="300" viewBox="0 0 300 300">
<path d="M 101.25 96.25 L 97.5 96.25 L 96.25 96.25 L 101.25 97.5 L 121.25 97.5 L 148.75 95.0 L 175.0 87.5 L 183.75 83.75 L 175.0 86.25 L 170.0 87.5 " stroke="black" fill="none" stroke-width="6.0" stroke-linecap="round" stroke-linejoin="round" />
<path d="M 91.25 141.25 L 90.0 147.5 L 91.25 165.0 L 98.75 205.0 L 110.0 238.75 L 118.75 251.25 L 122.5 252.5 L 120.0 248.75 " stroke="black" fill="none" stroke-width="6.0" stroke-linecap="round" stroke-linejoin="round" />
<path d="M 96.25 175.0 L 92.5 173.75 L 90.0 173.75 L 96.25 172.5 L 122.5 168.75 L 160.0 160.0 L 203.75 152.5 L 226.25 155.0 L 233.75 171.25 L 225.0 196.25 L 206.25 217.5 L 190.0 232.5 L 171.25 237.5 L 156.25 230.0 L 153.75 226.25 " stroke="black" fill="none" stroke-width="6.0" stroke-linecap="round" stroke-linejoin="round" />
<path d="M 138.75 102.5 L 137.5 102.5 L 135.0 116.25 L 131.25 156.25 L 127.5 197.5 L 126.25 216.25 L 126.25 215.0 " stroke="black" fill="none" stroke-width="6.0" stroke-linecap="round" stroke-linejoin="round" />
<path d="M 173.75 110.0 L 172.5 116.25 L 167.5 137.5 L 161.25 163.75 L 157.5 181.25 L 163.75 182.5 L 175.0 180.0 L 188.75 173.75 L 198.75 167.5 L 200.0 166.25 L 196.25 167.5 " stroke="black" fill="none" stroke-width="6.0" stroke-linecap="round" stroke-linejoin="round" />
<path d="M 116.25 228.75 L 113.75 231.25 L 113.75 232.5 L 123.75 231.25 L 143.75 225.0 L 170.0 217.5 L 193.75 213.75 L 203.75 212.5 L 202.5 212.5 " stroke="black" fill="none" stroke-width="6.0" stroke-linecap="round" stroke-linejoin="round" />
</svg>