<svg xmlns="http://www.w3.org/2000/svg" width="300" height="300" viewBox="0 0 300 300">
<path d="M 113.75 85.0 L 112.5 83.75 L 111.25 81.25 L 118.75 81.25 L 137.5 80.0 L 160.0 82.5 L 178.75 86.25 L 183.75 93.75 L 176.25 103.75 L 161.25 113.75 L 146.25 122.5 L 135.0 125.0 " stroke="black" fill="none" stroke-width="6.0" stroke-linecap="round" stroke-linejoin="round" />
<path d="M 90.0 112.5 L 87.5 112.5 L 85.0 112.5 L 87.5 111.25 L 108.75 106.25 L 145.0 96.25 L 181.25 87.5 L 205.0 83.75 L 208.75 83.75 L 200.0 87.5 L 187.5 92.5 " stroke="black" fill="none" stroke-width="6.0" stroke-linecap="round" stroke-linejoin="round" />
<path d="M 97.5 141.25 L 97.5 141.25 L 96.25 141.25 L 102.5 141.25 L 123.75 135.0 L 150.0 121.25 L 166.25 103.75 " stroke="black" fill="none" stroke-width="6.0" stroke-linecap="round" stroke-linejoin="round" />
<path d="M 137.5 53.75 L 137.5 53.75 L 136.25 57.5 L 137.5 77.5 L 141.25 110.0 L 141.25 133.75 L 140.0 147.5 L 127.5 153.75 L 111.25 157.5 L 96.25 162.5 L 85.0 167.5 L 76.25 170.0 L 75.0 170.0 L 78.75 170.0 L 92.5 168.75 L 115.0 163.75 L 146.25 155.0 L 178.75 142.5 L 205.0 131.25 L 215.0 126.25 L 212.5 126.25 L 202.5 131.25 L 193.75 135.0 " stroke="black" fill="none" stroke-width="6.0" stroke-linecap="round" stroke-linejoin="round" />
<path d="M 95.0 172.5 L 93.75 173.75 L 91.25 178.75 L 91.25 190.0 L 91.25 203.75 L 91.25 215.0 L 91.25 216.25 " stroke="black" fill="none" stroke-width="6.0" stroke-linecap="round" stroke-linejoin="round" />
<path d="M 122.5 163.75 L 122.5 163.75 L 122.5 163.75 L 126.25 166.25 L 130.0 172.5 L 137.5 187.5 L 140.0 191.25 L 140.0 191.25 " stroke="black" fill="none" stroke-width="6.0" stroke-linecap="round" stroke-linejoin="round" />
<path d="M 152.5 157.5 L 152.5 157.5 L 152.5 156.25 L 153.75 156.25 L 157.5 161.25 L 163.75 172.5 L 166.25 180.0 " stroke="black" fill="none" stroke-width="6.0" stroke-linecap="round" stroke-linejoin="round" />
<path d="M 192.5 147.5 L 192.5 147.5 L 193.75 146.25 L 193.75 146.25 L 198.75 150.0 L 205.0 158.75 " stroke="black" fill="none" stroke-width="6.0" stroke-linecap="round" stroke-linejoin="round" />
<path d="M 103.75 205.0 L 103.75 205.0 L 98.75 207.5 L 97.5 211.25 L 100.0 230.0 L 107.5 252.5 L 117.5 265.0 L 123.75 266.25 L 123.75 258.75 " stroke="black" fill="none" stroke-width="6.0" stroke-linecap="round" stroke-linejoin="round" />
<path d="M 106.25 217.5 L 103.75 216.25 L 100.0 212.5 L 103.75 210.0 L 125.0 205.0 L 152.5 200.0 L 183.75 196.25 L 205.0 195.0 L 208.75 197.5 L 206.25 206.25 L 193.75 222.5 L 176.25 237.5 L 153.75 248.75 L 150.0 250.0 " stroke="black" fill="none" stroke-width="6.0" stroke-linecap="round" stroke-linejoin="round" />
<path d="M 131.25 208.75 L 130.0 208.75 L 128.75 207.5 L 128.75 216.25 L 131.25 240.0 L 133.75 260.0 L 135.0 263.75 " stroke="black" fill="none" stroke-width="6.0" stroke-linecap="round" stroke-linejoin="round" />
<path d="M 153.75 206.25 L 155.0 205.0 L 156.25 205.0 L 157.5 212.5 L 156.25 232.5 L 148.75 255.0 L 136.25 267.5 L 118.75 271.25 L 102.5 272.5 L 91.25 273.75 L 82.5 273.75 L 80.0 273.75 L 80.0 273.75 L 82.5 272.5 L 90.0 271.25 L 98.75 270.0 L 108.75 268.75 L 123.75 266.25 L 145.0 262.5 L 166.25 258.75 L 188.75 255.0 L 205.0 253.75 L 215.0 253.75 L 223.75 256.25 L 228.75 258.75 L 231.25 258.75 L 232.5 260.0 L 240.0 260.0 L 251.25 261.25 L 252.5 261.25 " stroke="black" fill="none" stroke-width="6.0" stroke-linecap="round" stroke-linejoin="round" />
</svg>