<svg xmlns="http://www.w3.org/2000/svg" width="300" height="300" viewBox="0 0 300 300">
<path d="M 70.0 100.0 L 66.25 103.75 L 65.0 105.0 L 72.5 105.0 L 82.5 105.0 L 93.75 101.25 L 101.25 97.5 L 102.5 96.25 " stroke="black" fill="none" stroke-width="6.0" stroke-linecap="round" stroke-linejoin="round" />
<path d="M 77.5 137.5 L 76.25 142.5 L 75.0 163.75 L 76.25 195.0 L 77.5 211.25 L 80.0 215.0 L 80.0 210.0 L 80.0 208.75 " stroke="black" fill="none" stroke-width="6.0" stroke-linecap="round" stroke-linejoin="round" />
<path d="M 76.25 147.5 L 75.0 146.25 L 73.75 145.0 L 78.75 141.25 L 87.5 138.75 L 98.75 137.5 L 107.5 142.5 L 111.25 158.75 L 112.5 183.75 L 108.75 203.75 L 103.75 210.0 L 102.5 210.0 " stroke="black" fill="none" stroke-width="6.0" stroke-linecap="round" stroke-linejoin="round" />
<path d="M 88.75 172.5 L 92.5 170.0 L 100.0 166.25 L 111.25 160.0 L 115.0 156.25 " stroke="black" fill="none" stroke-width="6.0" stroke-linecap="round" stroke-linejoin="round" />
<path d="M 83.75 211.25 L 85.0 211.25 L 90.0 208.75 L 102.5 201.25 L 120.0 188.75 " stroke="black" fill="none" stroke-width="6.0" stroke-linecap="round" stroke-linejoin="round" />
<path d="M 143.75 80.0 L 141.25 82.5 L 141.25 83.75 L 151.25 83.75 L 166.25 81.25 L 181.25 76.25 L 191.25 71.25 L 191.25 70.0 L 188.75 71.25 " stroke="black" fill="none" stroke-width="6.0" stroke-linecap="round" stroke-linejoin="round" />
<path d="M 146.25 110.0 L 143.75 118.75 L 143.75 138.75 L 147.5 161.25 L 151.25 177.5 L 153.75 180.0 L 155.0 178.75 L 153.75 171.25 L 152.5 161.25 L 150.0 152.5 L 148.75 143.75 L 147.5 136.25 L 145.0 127.5 L 143.75 121.25 L 146.25 117.5 L 158.75 115.0 L 182.5 113.75 L 203.75 113.75 L 215.0 118.75 L 217.5 127.5 L 212.5 137.5 L 202.5 148.75 L 191.25 157.5 L 180.0 160.0 " stroke="black" fill="none" stroke-width="6.0" stroke-linecap="round" stroke-linejoin="round" />
<path d="M 155.0 152.5 L 152.5 155.0 L 150.0 156.25 L 155.0 155.0 L 167.5 150.0 L 183.75 143.75 L 197.5 137.5 L 200.0 136.25 L 196.25 137.5 " stroke="black" fill="none" stroke-width="6.0" stroke-linecap="round" stroke-linejoin="round" />
<path d="M 152.5 180.0 L 152.5 180.0 L 156.25 180.0 L 168.75 173.75 L 186.25 162.5 L 198.75 150.0 L 200.0 145.0 L 198.75 145.0 " stroke="black" fill="none" stroke-width="6.0" stroke-linecap="round" stroke-linejoin="round" />
<path d="M 162.5 125.0 L 162.5 127.5 L 161.25 136.25 L 162.5 158.75 L 161.25 192.5 L 156.25 221.25 L 151.25 236.25 L 145.0 240.0 L 140.0 237.5 L 138.75 232.5 " stroke="black" fill="none" stroke-width="6.0" stroke-linecap="round" stroke-linejoin="round" />
<path d="M 175.0 163.75 L 176.25 166.25 L 181.25 175.0 L 190.0 193.75 L 196.25 215.0 L 203.75 236.25 L 213.75 250.0 L 227.5 253.75 L 245.0 255.0 L 260.0 255.0 L 270.0 255.0 L 275.0 255.0 L 276.25 255.0 L 276.25 253.75 L 275.0 252.5 L 273.75 248.75 L 271.25 241.25 L 268.75 230.0 L 265.0 217.5 " stroke="black" fill="none" stroke-width="6.0" stroke-linecap="round" stroke-linejoin="round" />
<path d="M 225.0 175.0 L 225.0 175.0 L 223.75 176.25 L 221.25 177.5 L 218.75 183.75 L 216.25 195.0 L 216.25 202.5 L 222.5 206.25 L 232.5 203.75 L 242.5 197.5 L 248.75 190.0 L 251.25 185.0 L 250.0 182.5 L 247.5 182.5 L 246.25 182.5 L 245.0 182.5 L 245.0 183.75 L 250.0 188.75 L 257.5 198.75 L 261.25 203.75 " stroke="black" fill="none" stroke-width="6.0" stroke-linecap="round" stroke-linejoin="round" />
</svg>