<svg xmlns="http://www.w3.org/2000/svg" width="300" height="300" viewBox="0 0 300 300">
<path d="M 85.0 132.5 L 83.75 131.25 L 82.5 130.0 L 82.5 130.0 L 83.75 136.25 L 85.0 156.25 L 85.0 181.25 L 86.25 198.75 L 92.5 206.25 L 103.75 208.75 L 116.25 211.25 L 127.5 211.25 L 130.0 211.25 L 125.0 212.5 " stroke="black" fill="none" stroke-width="6.0" stroke-linecap="round" stroke-linejoin="round" />
<path d="M 103.75 121.25 L 103.75 120.0 L 105.0 117.5 L 107.5 121.25 L 111.25 146.25 L 111.25 187.5 L 105.0 213.75 L 92.5 236.25 L 85.0 241.25 L 76.25 241.25 L 73.75 237.5 " stroke="black" fill="none" stroke-width="6.0" stroke-linecap="round" stroke-linejoin="round" />
<path d="M 56.25 167.5 L 55.0 167.5 L 52.5 167.5 L 53.75 167.5 L 70.0 165.0 L 93.75 158.75 L 123.75 146.25 L 128.75 143.75 " stroke="black" fill="none" stroke-width="6.0" stroke-linecap="round" stroke-linejoin="round" />
<path d="M 160.0 85.0 L 153.75 85.0 L 151.25 85.0 L 156.25 85.0 L 171.25 82.5 L 191.25 78.75 L 206.25 73.75 L 211.25 72.5 L 205.0 73.75 L 196.25 75.0 L 187.5 75.0 L 178.75 72.5 L 172.5 67.5 L 170.0 62.5 L 170.0 62.5 L 173.75 70.0 L 178.75 86.25 L 180.0 106.25 L 178.75 120.0 L 172.5 125.0 L 163.75 126.25 L 158.75 126.25 L 156.25 126.25 L 157.5 126.25 L 166.25 126.25 L 181.25 125.0 L 197.5 118.75 L 207.5 111.25 L 211.25 106.25 L 207.5 105.0 L 198.75 108.75 L 197.5 110.0 " stroke="black" fill="none" stroke-width="6.0" stroke-linecap="round" stroke-linejoin="round" />
<path d="M 163.75 138.75 L 163.75 138.75 L 163.75 138.75 L 162.5 138.75 L 163.75 143.75 L 167.5 152.5 L 171.25 162.5 L 173.75 167.5 L 173.75 168.75 L 171.25 166.25 L 167.5 161.25 L 165.0 157.5 L 163.75 153.75 L 163.75 151.25 L 172.5 147.5 L 187.5 143.75 L 202.5 140.0 L 210.0 138.75 L 210.0 140.0 L 202.5 147.5 L 192.5 156.25 L 182.5 163.75 L 177.5 167.5 L 178.75 167.5 L 188.75 161.25 L 198.75 152.5 L 203.75 146.25 L 205.0 142.5 " stroke="black" fill="none" stroke-width="6.0" stroke-linecap="round" stroke-linejoin="round" />
<path d="M 145.0 190.0 L 142.5 192.5 L 141.25 195.0 L 146.25 195.0 L 166.25 190.0 L 192.5 177.5 L 217.5 161.25 L 231.25 152.5 L 232.5 150.0 L 223.75 152.5 L 210.0 156.25 L 202.5 160.0 " stroke="black" fill="none" stroke-width="6.0" stroke-linecap="round" stroke-linejoin="round" />
<path d="M 170.0 172.5 L 170.0 173.75 L 166.25 177.5 L 166.25 183.75 L 172.5 195.0 L 178.75 207.5 L 183.75 213.75 L 186.25 210.0 " stroke="black" fill="none" stroke-width="6.0" stroke-linecap="round" stroke-linejoin="round" />
<path d="M 208.75 166.25 L 210.0 165.0 L 212.5 163.75 L 213.75 166.25 L 210.0 180.0 L 201.25 200.0 L 188.75 216.25 L 173.75 228.75 L 161.25 231.25 L 156.25 230.0 L 155.0 222.5 L 156.25 216.25 L 157.5 216.25 L 160.0 217.5 L 167.5 227.5 L 176.25 241.25 L 183.75 252.5 L 187.5 257.5 L 187.5 257.5 L 186.25 253.75 L 183.75 247.5 L 178.75 241.25 L 175.0 233.75 L 171.25 230.0 L 170.0 227.5 L 170.0 227.5 L 177.5 225.0 L 190.0 218.75 L 206.25 210.0 L 222.5 203.75 L 232.5 202.5 L 236.25 205.0 L 233.75 212.5 L 225.0 223.75 L 215.0 235.0 L 202.5 246.25 L 192.5 255.0 L 186.25 260.0 L 185.0 260.0 L 185.0 260.0 L 190.0 258.75 L 196.25 256.25 L 203.75 253.75 L 212.5 250.0 L 221.25 246.25 L 228.75 242.5 L 235.0 241.25 L 237.5 240.0 L 237.5 240.0 L 237.5 241.25 L 236.25 241.25 " stroke="black" fill="none" stroke-width="6.0" stroke-linecap="round" stroke-linejoin="round" />
</svg>