<svg xmlns="http://www.w3.org/2000/svg" width="300" height="300" viewBox="0 0 300 300">
<path d="M 58.75 122.5 L 56.25 123.75 L 53.75 126.25 L 63.75 125.0 L 85.0 117.5 L 107.5 105.0 L 125.0 96.25 L 131.25 91.25 L 126.25 91.25 L 116.25 91.25 L 106.25 92.5 L 97.5 93.75 L 93.75 93.75 L 92.5 97.5 L 92.5 121.25 L 95.0 178.75 L 96.25 227.5 L 96.25 242.5 L 96.25 246.25 L 95.0 243.75 L 92.5 233.75 L 91.25 216.25 L 91.25 198.75 L 91.25 178.75 L 93.75 153.75 L 97.5 136.25 L 100.0 133.75 L 93.75 142.5 L 83.75 162.5 L 70.0 190.0 L 57.5 205.0 L 50.0 205.0 L 48.75 196.25 " stroke="black" fill="none" stroke-width="6.0" stroke-linecap="round" stroke-linejoin="round" />
<path d="M 93.75 141.25 L 97.5 141.25 L 108.75 145.0 L 122.5 161.25 L 135.0 181.25 L 138.75 191.25 " stroke="black" fill="none" stroke-width="6.0" stroke-linecap="round" stroke-linejoin="round" />
<path d="M 152.5 90.0 L 151.25 90.0 L 147.5 90.0 L 146.25 91.25 L 147.5 101.25 L 151.25 122.5 L 156.25 138.75 L 156.25 143.75 L 156.25 142.5 " stroke="black" fill="none" stroke-width="6.0" stroke-linecap="round" stroke-linejoin="round" />
<path d="M 147.5 100.0 L 147.5 98.75 L 147.5 97.5 L 156.25 93.75 L 180.0 88.75 L 202.5 86.25 L 211.25 86.25 L 207.5 91.25 L 196.25 100.0 L 181.25 108.75 L 163.75 115.0 L 152.5 120.0 L 150.0 120.0 L 158.75 117.5 L 177.5 111.25 L 198.75 103.75 L 213.75 98.75 L 217.5 97.5 L 208.75 103.75 L 191.25 116.25 L 170.0 131.25 L 153.75 140.0 L 153.75 141.25 L 165.0 137.5 L 185.0 128.75 L 202.5 118.75 L 210.0 111.25 L 205.0 112.5 " stroke="black" fill="none" stroke-width="6.0" stroke-linecap="round" stroke-linejoin="round" />
<path d="M 138.75 150.0 L 137.5 152.5 L 136.25 158.75 L 141.25 168.75 L 147.5 180.0 L 152.5 186.25 L 153.75 186.25 L 150.0 183.75 L 145.0 178.75 L 138.75 173.75 L 136.25 170.0 L 138.75 165.0 L 151.25 160.0 L 176.25 151.25 L 205.0 145.0 L 218.75 142.5 L 217.5 145.0 L 203.75 155.0 L 186.25 168.75 L 165.0 182.5 L 151.25 188.75 L 152.5 188.75 L 168.75 181.25 L 190.0 168.75 L 207.5 156.25 L 215.0 147.5 L 211.25 145.0 " stroke="black" fill="none" stroke-width="6.0" stroke-linecap="round" stroke-linejoin="round" />
<path d="M 172.5 68.75 L 173.75 65.0 L 173.75 62.5 L 175.0 65.0 L 176.25 86.25 L 177.5 131.25 L 173.75 185.0 L 170.0 215.0 L 168.75 228.75 L 172.5 236.25 L 181.25 240.0 L 195.0 242.5 L 207.5 242.5 L 216.25 242.5 L 221.25 242.5 L 221.25 242.5 L 215.0 242.5 L 213.75 242.5 " stroke="black" fill="none" stroke-width="6.0" stroke-linecap="round" stroke-linejoin="round" />
<path d="M 203.75 172.5 L 203.75 172.5 L 203.75 175.0 L 202.5 188.75 L 196.25 222.5 L 186.25 250.0 L 175.0 258.75 L 158.75 262.5 L 150.0 262.5 " stroke="black" fill="none" stroke-width="6.0" stroke-linecap="round" stroke-linejoin="round" />
<path d="M 118.75 218.75 L 118.75 218.75 L 117.5 220.0 L 122.5 220.0 L 138.75 216.25 L 181.25 206.25 L 215.0 198.75 L 235.0 192.5 L 240.0 190.0 L 237.5 191.25 " stroke="black" fill="none" stroke-width="6.0" stroke-linecap="round" stroke-linejoin="round" />
</svg>