<svg xmlns="http://www.w3.org/2000/svg" width="300" height="300" viewBox="0 0 300 300">
<path d="M 51.25 128.75 L 50.0 130.0 L 45.0 133.75 L 48.75 133.75 L 71.25 125.0 L 96.25 111.25 L 118.75 96.25 L 127.5 90.0 L 123.75 88.75 L 112.5 88.75 L 101.25 88.75 L 93.75 88.75 L 88.75 88.75 L 87.5 90.0 L 88.75 107.5 L 93.75 150.0 L 97.5 201.25 L 97.5 222.5 L 97.5 232.5 L 95.0 232.5 L 92.5 221.25 L 90.0 211.25 " stroke="black" fill="none" stroke-width="6.0" stroke-linecap="round" stroke-linejoin="round" />
<path d="M 91.25 146.25 L 82.5 160.0 L 72.5 183.75 L 60.0 205.0 L 53.75 211.25 L 51.25 207.5 " stroke="black" fill="none" stroke-width="6.0" stroke-linecap="round" stroke-linejoin="round" />
<path d="M 88.75 137.5 L 90.0 137.5 L 95.0 145.0 L 111.25 165.0 L 131.25 183.75 L 142.5 188.75 " stroke="black" fill="none" stroke-width="6.0" stroke-linecap="round" stroke-linejoin="round" />
<path d="M 162.5 82.5 L 161.25 82.5 L 160.0 82.5 L 160.0 82.5 L 162.5 92.5 L 167.5 107.5 L 171.25 120.0 L 172.5 121.25 " stroke="black" fill="none" stroke-width="6.0" stroke-linecap="round" stroke-linejoin="round" />
<path d="M 205.0 77.5 L 205.0 77.5 L 202.5 77.5 L 197.5 86.25 L 183.75 107.5 L 163.75 131.25 L 145.0 147.5 L 131.25 153.75 L 130.0 155.0 L 141.25 152.5 L 161.25 141.25 L 183.75 128.75 L 205.0 116.25 L 212.5 107.5 L 210.0 105.0 L 201.25 105.0 L 193.75 102.5 L 186.25 97.5 L 181.25 90.0 L 181.25 81.25 L 182.5 78.75 L 182.5 91.25 L 182.5 131.25 L 183.75 180.0 L 190.0 212.5 L 198.75 222.5 L 206.25 222.5 L 212.5 220.0 L 217.5 215.0 L 217.5 210.0 L 212.5 206.25 " stroke="black" fill="none" stroke-width="6.0" stroke-linecap="round" stroke-linejoin="round" />
<path d="M 202.5 135.0 L 202.5 135.0 L 203.75 142.5 L 205.0 175.0 L 198.75 208.75 L 186.25 227.5 L 167.5 238.75 L 148.75 241.25 L 146.25 240.0 " stroke="black" fill="none" stroke-width="6.0" stroke-linecap="round" stroke-linejoin="round" />
<path d="M 143.75 181.25 L 141.25 182.5 L 138.75 185.0 L 142.5 187.5 L 162.5 186.25 L 196.25 175.0 L 230.0 161.25 L 247.5 153.75 " stroke="black" fill="none" stroke-width="6.0" stroke-linecap="round" stroke-linejoin="round" />
</svg>