<svg xmlns="http://www.w3.org/2000/svg" width="300" height="300" viewBox="0 0 300 300">
<path d="M 115.0 96.25 L 113.75 97.5 L 105.0 102.5 L 103.75 102.5 L 117.5 98.75 L 142.5 87.5 L 166.25 75.0 L 182.5 65.0 L 185.0 61.25 L 175.0 63.75 L 160.0 67.5 L 147.5 67.5 L 138.75 67.5 L 135.0 67.5 L 135.0 71.25 L 140.0 86.25 L 141.25 113.75 L 140.0 143.75 L 133.75 153.75 L 131.25 153.75 " stroke="black" fill="none" stroke-width="6.0" stroke-linecap="round" stroke-linejoin="round" />
<path d="M 105.0 143.75 L 105.0 143.75 L 105.0 145.0 L 110.0 155.0 L 121.25 178.75 L 130.0 196.25 L 133.75 197.5 L 133.75 193.75 L 131.25 186.25 L 126.25 178.75 L 120.0 172.5 L 115.0 167.5 L 113.75 165.0 L 117.5 161.25 L 135.0 152.5 L 156.25 142.5 L 176.25 135.0 L 183.75 133.75 L 182.5 140.0 L 170.0 155.0 L 155.0 171.25 L 141.25 187.5 L 128.75 198.75 L 126.25 200.0 L 135.0 195.0 L 150.0 181.25 L 166.25 166.25 L 178.75 155.0 L 180.0 152.5 L 172.5 163.75 L 155.0 193.75 L 143.75 221.25 L 131.25 250.0 L 128.75 258.75 L 132.5 253.75 " stroke="black" fill="none" stroke-width="6.0" stroke-linecap="round" stroke-linejoin="round" />
<path d="M 166.25 182.5 L 166.25 182.5 L 166.25 182.5 L 170.0 201.25 L 186.25 238.75 L 202.5 257.5 L 216.25 256.25 L 227.5 246.25 L 235.0 235.0 L 237.5 226.25 L 237.5 220.0 L 235.0 208.75 L 231.25 191.25 L 230.0 155.0 L 226.25 126.25 " stroke="black" fill="none" stroke-width="6.0" stroke-linecap="round" stroke-linejoin="round" />
</svg>