<svg xmlns="http://www.w3.org/2000/svg" width="300" height="300" viewBox="0 0 300 300">
<path d="M 87.5 118.75 L 83.75 118.75 L 81.25 118.75 L 85.0 115.0 L 97.5 108.75 L 112.5 100.0 L 123.75 93.75 L 125.0 92.5 " stroke="black" fill="none" stroke-width="6.0" stroke-linecap="round" stroke-linejoin="round" />
<path d="M 97.5 91.25 L 95.0 93.75 L 95.0 97.5 L 97.5 105.0 L 102.5 116.25 L 105.0 128.75 L 102.5 138.75 L 93.75 143.75 L 85.0 148.75 L 75.0 152.5 L 70.0 156.25 L 70.0 156.25 L 78.75 155.0 L 91.25 147.5 L 108.75 136.25 L 126.25 122.5 L 137.5 112.5 L 140.0 108.75 L 130.0 113.75 L 126.25 116.25 " stroke="black" fill="none" stroke-width="6.0" stroke-linecap="round" stroke-linejoin="round" />
<path d="M 96.25 143.75 L 95.0 145.0 L 95.0 148.75 L 95.0 158.75 L 96.25 176.25 L 96.25 190.0 L 96.25 192.5 " stroke="black" fill="none" stroke-width="6.0" stroke-linecap="round" stroke-linejoin="round" />
<path d="M 106.25 146.25 L 107.5 146.25 L 110.0 145.0 L 117.5 145.0 L 126.25 150.0 L 128.75 158.75 L 123.75 171.25 L 110.0 183.75 L 96.25 192.5 L 83.75 197.5 L 76.25 198.75 L 76.25 198.75 L 82.5 198.75 L 95.0 195.0 L 108.75 186.25 L 127.5 173.75 L 140.0 162.5 L 141.25 158.75 L 137.5 158.75 " stroke="black" fill="none" stroke-width="6.0" stroke-linecap="round" stroke-linejoin="round" />
<path d="M 88.75 227.5 L 88.75 228.75 L 88.75 228.75 L 98.75 222.5 L 123.75 206.25 L 145.0 190.0 L 150.0 180.0 L 143.75 178.75 " stroke="black" fill="none" stroke-width="6.0" stroke-linecap="round" stroke-linejoin="round" />
<path d="M 112.5 187.5 L 112.5 195.0 L 112.5 208.75 L 116.25 233.75 L 117.5 256.25 L 115.0 260.0 " stroke="black" fill="none" stroke-width="6.0" stroke-linecap="round" stroke-linejoin="round" />
<path d="M 148.75 143.75 L 143.75 145.0 L 143.75 145.0 L 152.5 142.5 L 168.75 136.25 L 186.25 127.5 L 200.0 118.75 L 203.75 116.25 L 201.25 118.75 L 197.5 135.0 L 196.25 161.25 L 197.5 195.0 L 203.75 220.0 L 215.0 233.75 L 226.25 241.25 L 237.5 243.75 L 243.75 243.75 L 246.25 241.25 L 247.5 237.5 L 246.25 232.5 L 242.5 225.0 L 237.5 216.25 L 227.5 205.0 " stroke="black" fill="none" stroke-width="6.0" stroke-linecap="round" stroke-linejoin="round" />
<path d="M 168.75 93.75 L 168.75 93.75 L 168.75 93.75 L 170.0 110.0 L 172.5 158.75 L 167.5 210.0 L 161.25 231.25 L 155.0 240.0 L 152.5 241.25 " stroke="black" fill="none" stroke-width="6.0" stroke-linecap="round" stroke-linejoin="round" />
<path d="M 156.25 152.5 L 156.25 152.5 L 153.75 152.5 L 155.0 155.0 L 166.25 165.0 L 185.0 180.0 L 200.0 193.75 " stroke="black" fill="none" stroke-width="6.0" stroke-linecap="round" stroke-linejoin="round" />
</svg>