<svg xmlns="http://www.w3.org/2000/svg" width="300" height="300" viewBox="0 0 300 300">
<path d="M 165.0 95.0 L 163.75 95.0 L 158.75 93.75 L 157.5 93.75 L 161.25 110.0 L 167.5 142.5 L 170.0 170.0 L 168.75 181.25 L 160.0 183.75 L 157.5 183.75 " stroke="black" fill="none" stroke-width="6.0" stroke-linecap="round" stroke-linejoin="round" />
<path d="M 100.0 126.25 L 98.75 126.25 L 97.5 130.0 L 98.75 140.0 L 105.0 157.5 L 112.5 176.25 L 116.25 182.5 " stroke="black" fill="none" stroke-width="6.0" stroke-linecap="round" stroke-linejoin="round" />
<path d="M 188.75 135.0 L 190.0 135.0 L 195.0 135.0 L 207.5 135.0 L 225.0 135.0 L 236.25 135.0 L 241.25 135.0 L 241.25 136.25 L 230.0 145.0 L 210.0 163.75 L 175.0 197.5 L 130.0 238.75 L 93.75 265.0 L 75.0 271.25 L 70.0 271.25 " stroke="black" fill="none" stroke-width="6.0" stroke-linecap="round" stroke-linejoin="round" />
</svg>