<svg xmlns="http://www.w3.org/2000/svg" width="300" height="300" viewBox="0 0 300 300">
<path d="M 80.0 113.75 L 77.5 116.25 L 76.25 118.75 L 77.5 121.25 L 85.0 123.75 L 93.75 123.75 L 101.25 120.0 L 103.75 116.25 " stroke="black" fill="none" stroke-width="6.0" stroke-linecap="round" stroke-linejoin="round" />
<path d="M 75.0 185.0 L 73.75 186.25 L 70.0 190.0 L 72.5 190.0 L 81.25 183.75 L 91.25 172.5 L 98.75 162.5 L 101.25 157.5 " stroke="black" fill="none" stroke-width="6.0" stroke-linecap="round" stroke-linejoin="round" />
<path d="M 82.5 240.0 L 81.25 241.25 L 76.25 243.75 L 77.5 240.0 L 85.0 223.75 L 93.75 202.5 L 103.75 180.0 L 107.5 167.5 " stroke="black" fill="none" stroke-width="6.0" stroke-linecap="round" stroke-linejoin="round" />
<path d="M 130.0 76.25 L 127.5 76.25 L 127.5 75.0 L 130.0 78.75 L 138.75 92.5 L 147.5 107.5 L 152.5 116.25 L 153.75 117.5 L 150.0 116.25 " stroke="black" fill="none" stroke-width="6.0" stroke-linecap="round" stroke-linejoin="round" />
<path d="M 127.5 88.75 L 126.25 88.75 L 121.25 86.25 L 118.75 85.0 L 121.25 83.75 L 132.5 80.0 L 148.75 73.75 L 170.0 66.25 L 195.0 60.0 L 207.5 58.75 L 210.0 63.75 L 206.25 73.75 L 197.5 87.5 L 185.0 98.75 L 172.5 105.0 L 161.25 106.25 " stroke="black" fill="none" stroke-width="6.0" stroke-linecap="round" stroke-linejoin="round" />
<path d="M 160.0 71.25 L 160.0 71.25 L 158.75 71.25 L 158.75 71.25 L 157.5 81.25 L 157.5 92.5 L 157.5 100.0 L 157.5 100.0 " stroke="black" fill="none" stroke-width="6.0" stroke-linecap="round" stroke-linejoin="round" />
<path d="M 180.0 70.0 L 180.0 70.0 L 180.0 71.25 L 180.0 75.0 L 176.25 85.0 L 168.75 95.0 L 158.75 102.5 L 151.25 107.5 L 148.75 108.75 L 151.25 110.0 L 160.0 108.75 L 175.0 103.75 L 187.5 96.25 L 197.5 88.75 L 198.75 87.5 " stroke="black" fill="none" stroke-width="6.0" stroke-linecap="round" stroke-linejoin="round" />
<path d="M 143.75 135.0 L 140.0 136.25 L 138.75 137.5 L 142.5 137.5 L 155.0 132.5 L 170.0 123.75 L 182.5 113.75 L 185.0 107.5 L 180.0 106.25 " stroke="black" fill="none" stroke-width="6.0" stroke-linecap="round" stroke-linejoin="round" />
<path d="M 155.0 117.5 L 155.0 118.75 L 155.0 121.25 L 158.75 126.25 L 162.5 132.5 L 163.75 138.75 L 161.25 143.75 L 153.75 148.75 L 142.5 153.75 L 131.25 160.0 L 128.75 163.75 L 132.5 163.75 L 148.75 156.25 L 168.75 143.75 L 195.0 127.5 L 211.25 113.75 L 212.5 108.75 L 205.0 108.75 " stroke="black" fill="none" stroke-width="6.0" stroke-linecap="round" stroke-linejoin="round" />
<path d="M 163.75 146.25 L 157.5 156.25 L 156.25 166.25 L 157.5 185.0 L 158.75 190.0 L 158.75 190.0 " stroke="black" fill="none" stroke-width="6.0" stroke-linecap="round" stroke-linejoin="round" />
<path d="M 195.0 135.0 L 195.0 135.0 L 195.0 136.25 L 195.0 141.25 L 190.0 155.0 L 178.75 171.25 L 166.25 182.5 L 153.75 190.0 L 150.0 195.0 L 151.25 196.25 L 158.75 195.0 L 172.5 188.75 L 188.75 180.0 L 203.75 167.5 L 211.25 160.0 L 210.0 160.0 L 201.25 166.25 L 195.0 171.25 " stroke="black" fill="none" stroke-width="6.0" stroke-linecap="round" stroke-linejoin="round" />
<path d="M 147.5 220.0 L 147.5 221.25 L 147.5 222.5 L 150.0 222.5 L 162.5 217.5 L 185.0 206.25 L 206.25 192.5 L 217.5 182.5 L 218.75 176.25 L 212.5 173.75 L 208.75 173.75 " stroke="black" fill="none" stroke-width="6.0" stroke-linecap="round" stroke-linejoin="round" />
<path d="M 188.75 166.25 L 188.75 166.25 L 187.5 166.25 L 187.5 166.25 L 188.75 173.75 L 193.75 198.75 L 196.25 233.75 L 196.25 256.25 L 193.75 266.25 L 188.75 270.0 L 182.5 271.25 L 178.75 271.25 " stroke="black" fill="none" stroke-width="6.0" stroke-linecap="round" stroke-linejoin="round" />
</svg>