<svg xmlns="http://www.w3.org/2000/svg" width="300" height="300" viewBox="0 0 300 300">
<path d="M 82.5 110.0 L 82.5 110.0 L 83.75 110.0 L 93.75 105.0 L 112.5 97.5 L 127.5 91.25 L 131.25 88.75 " stroke="black" fill="none" stroke-width="6.0" stroke-linecap="round" stroke-linejoin="round" />
<path d="M 98.75 91.25 L 98.75 92.5 L 98.75 93.75 L 101.25 101.25 L 103.75 115.0 L 102.5 130.0 L 97.5 137.5 L 90.0 138.75 L 78.75 141.25 L 67.5 142.5 L 62.5 143.75 L 67.5 143.75 L 85.0 142.5 L 107.5 135.0 L 137.5 120.0 L 158.75 103.75 L 166.25 93.75 L 165.0 90.0 L 160.0 90.0 L 152.5 90.0 L 142.5 95.0 L 131.25 107.5 L 110.0 138.75 L 81.25 203.75 L 57.5 250.0 L 48.75 261.25 L 47.5 261.25 L 47.5 257.5 " stroke="black" fill="none" stroke-width="6.0" stroke-linecap="round" stroke-linejoin="round" />
<path d="M 106.25 158.75 L 106.25 160.0 L 105.0 163.75 L 105.0 177.5 L 105.0 202.5 L 107.5 225.0 L 110.0 232.5 L 110.0 233.75 L 110.0 230.0 " stroke="black" fill="none" stroke-width="6.0" stroke-linecap="round" stroke-linejoin="round" />
<path d="M 105.0 176.25 L 103.75 175.0 L 102.5 173.75 L 108.75 168.75 L 123.75 163.75 L 141.25 161.25 L 152.5 171.25 L 153.75 197.5 L 151.25 221.25 L 147.5 237.5 L 145.0 242.5 L 143.75 241.25 L 141.25 236.25 " stroke="black" fill="none" stroke-width="6.0" stroke-linecap="round" stroke-linejoin="round" />
<path d="M 112.5 207.5 L 110.0 207.5 L 107.5 208.75 L 113.75 206.25 L 128.75 197.5 L 145.0 185.0 L 155.0 171.25 L 155.0 170.0 " stroke="black" fill="none" stroke-width="6.0" stroke-linecap="round" stroke-linejoin="round" />
<path d="M 123.75 225.0 L 120.0 230.0 L 118.75 233.75 L 126.25 227.5 L 140.0 212.5 L 150.0 200.0 " stroke="black" fill="none" stroke-width="6.0" stroke-linecap="round" stroke-linejoin="round" />
<path d="M 183.75 97.5 L 182.5 98.75 L 180.0 100.0 L 181.25 100.0 L 192.5 98.75 L 207.5 96.25 L 221.25 95.0 L 228.75 95.0 L 226.25 103.75 L 212.5 123.75 L 203.75 141.25 L 202.5 148.75 L 212.5 151.25 L 226.25 151.25 L 236.25 152.5 L 237.5 166.25 L 226.25 191.25 L 213.75 207.5 L 205.0 215.0 L 200.0 216.25 L 198.75 212.5 L 196.25 203.75 L 192.5 192.5 L 190.0 178.75 L 187.5 165.0 L 186.25 152.5 L 186.25 148.75 L 186.25 147.5 L 186.25 153.75 L 185.0 173.75 L 185.0 205.0 L 185.0 240.0 L 185.0 258.75 L 186.25 265.0 L 186.25 267.5 L 185.0 267.5 " stroke="black" fill="none" stroke-width="6.0" stroke-linecap="round" stroke-linejoin="round" />
</svg>