<svg xmlns="http://www.w3.org/2000/svg" width="300" height="300" viewBox="0 0 300 300">
<path d="M 103.75 101.25 L 102.5 102.5 L 100.0 103.75 L 102.5 103.75 L 120.0 101.25 L 146.25 93.75 L 176.25 83.75 L 192.5 73.75 L 195.0 70.0 L 186.25 70.0 " stroke="black" fill="none" stroke-width="6.0" stroke-linecap="round" stroke-linejoin="round" />
<path d="M 152.5 67.5 L 151.25 67.5 L 150.0 68.75 L 150.0 72.5 L 150.0 87.5 L 147.5 111.25 L 142.5 127.5 " stroke="black" fill="none" stroke-width="6.0" stroke-linecap="round" stroke-linejoin="round" />
<path d="M 122.5 132.5 L 121.25 135.0 L 116.25 143.75 L 115.0 163.75 L 113.75 196.25 L 113.75 216.25 L 115.0 227.5 L 115.0 228.75 " stroke="black" fill="none" stroke-width="6.0" stroke-linecap="round" stroke-linejoin="round" />
<path d="M 116.25 146.25 L 116.25 142.5 L 120.0 138.75 L 132.5 131.25 L 151.25 126.25 L 172.5 125.0 L 187.5 138.75 L 190.0 166.25 L 186.25 197.5 L 178.75 216.25 L 172.5 225.0 L 168.75 227.5 L 165.0 225.0 L 163.75 223.75 " stroke="black" fill="none" stroke-width="6.0" stroke-linecap="round" stroke-linejoin="round" />
<path d="M 117.5 160.0 L 116.25 160.0 L 111.25 161.25 L 111.25 162.5 L 122.5 162.5 L 140.0 162.5 L 160.0 160.0 L 172.5 156.25 L 177.5 153.75 L 170.0 153.75 " stroke="black" fill="none" stroke-width="6.0" stroke-linecap="round" stroke-linejoin="round" />
<path d="M 125.0 185.0 L 123.75 186.25 L 122.5 188.75 L 123.75 190.0 L 135.0 188.75 L 150.0 183.75 L 162.5 176.25 L 170.0 171.25 L 167.5 170.0 L 158.75 175.0 L 156.25 176.25 " stroke="black" fill="none" stroke-width="6.0" stroke-linecap="round" stroke-linejoin="round" />
<path d="M 130.0 197.5 L 127.5 198.75 L 127.5 201.25 L 133.75 201.25 L 146.25 198.75 L 162.5 192.5 L 173.75 187.5 L 172.5 186.25 " stroke="black" fill="none" stroke-width="6.0" stroke-linecap="round" stroke-linejoin="round" />
<path d="M 75.0 231.25 L 72.5 236.25 L 77.5 236.25 L 97.5 233.75 L 132.5 225.0 L 168.75 212.5 L 197.5 201.25 L 206.25 196.25 L 207.5 193.75 L 200.0 196.25 L 197.5 197.5 " stroke="black" fill="none" stroke-width="6.0" stroke-linecap="round" stroke-linejoin="round" />
<path d="M 147.5 227.5 L 136.25 238.75 L 125.0 251.25 L 111.25 265.0 L 102.5 272.5 L 98.75 273.75 L 98.75 267.5 L 98.75 262.5 " stroke="black" fill="none" stroke-width="6.0" stroke-linecap="round" stroke-linejoin="round" />
<path d="M 157.5 223.75 L 165.0 226.25 L 175.0 233.75 L 185.0 246.25 L 195.0 260.0 L 201.25 270.0 L 205.0 275.0 L 206.25 278.75 L 206.25 282.5 L 206.25 286.25 " stroke="black" fill="none" stroke-width="6.0" stroke-linecap="round" stroke-linejoin="round" />
</svg>