<svg xmlns="http://www.w3.org/2000/svg" width="300" height="300" viewBox="0 0 300 300">
<path d="M 81.25 100.0 L 78.75 100.0 L 77.5 100.0 L 77.5 100.0 L 85.0 100.0 L 95.0 100.0 L 101.25 98.75 L 103.75 98.75 " stroke="black" fill="none" stroke-width="6.0" stroke-linecap="round" stroke-linejoin="round" />
<path d="M 56.25 132.5 L 56.25 133.75 L 55.0 136.25 L 57.5 136.25 L 67.5 135.0 L 82.5 127.5 L 96.25 120.0 L 102.5 113.75 L 101.25 113.75 L 97.5 116.25 " stroke="black" fill="none" stroke-width="6.0" stroke-linecap="round" stroke-linejoin="round" />
<path d="M 68.75 151.25 L 67.5 153.75 L 66.25 156.25 L 71.25 155.0 L 80.0 150.0 L 90.0 142.5 L 96.25 138.75 L 96.25 137.5 L 95.0 137.5 " stroke="black" fill="none" stroke-width="6.0" stroke-linecap="round" stroke-linejoin="round" />
<path d="M 56.25 187.5 L 56.25 191.25 L 58.75 192.5 L 68.75 186.25 L 83.75 173.75 L 93.75 161.25 L 93.75 158.75 " stroke="black" fill="none" stroke-width="6.0" stroke-linecap="round" stroke-linejoin="round" />
<path d="M 46.25 201.25 L 46.25 207.5 L 51.25 216.25 L 63.75 228.75 L 78.75 238.75 L 85.0 240.0 L 86.25 240.0 L 80.0 238.75 L 72.5 237.5 L 65.0 235.0 L 58.75 232.5 L 55.0 228.75 L 55.0 225.0 L 63.75 218.75 L 78.75 211.25 L 96.25 205.0 L 107.5 202.5 L 108.75 203.75 L 100.0 215.0 L 87.5 228.75 L 78.75 237.5 L 77.5 236.25 L 87.5 218.75 L 91.25 213.75 " stroke="black" fill="none" stroke-width="6.0" stroke-linecap="round" stroke-linejoin="round" />
<path d="M 116.25 93.75 L 113.75 96.25 L 115.0 96.25 L 125.0 96.25 L 140.0 95.0 L 153.75 90.0 L 161.25 85.0 L 158.75 85.0 " stroke="black" fill="none" stroke-width="6.0" stroke-linecap="round" stroke-linejoin="round" />
<path d="M 128.75 111.25 L 125.0 122.5 L 125.0 128.75 L 127.5 172.5 L 131.25 191.25 L 132.5 193.75 L 133.75 187.5 L 133.75 176.25 L 133.75 172.5 " stroke="black" fill="none" stroke-width="6.0" stroke-linecap="round" stroke-linejoin="round" />
<path d="M 130.0 133.75 L 127.5 131.25 L 126.25 130.0 L 128.75 127.5 L 138.75 122.5 L 151.25 116.25 L 161.25 115.0 L 170.0 120.0 L 172.5 142.5 L 173.75 178.75 L 173.75 215.0 L 173.75 233.75 L 173.75 238.75 L 173.75 238.75 L 172.5 233.75 L 167.5 225.0 L 160.0 213.75 L 153.75 205.0 " stroke="black" fill="none" stroke-width="6.0" stroke-linecap="round" stroke-linejoin="round" />
<path d="M 130.0 158.75 L 127.5 158.75 L 125.0 158.75 L 123.75 157.5 L 132.5 152.5 L 146.25 146.25 L 157.5 138.75 L 162.5 135.0 L 158.75 136.25 " stroke="black" fill="none" stroke-width="6.0" stroke-linecap="round" stroke-linejoin="round" />
<path d="M 130.0 167.5 L 128.75 168.75 L 127.5 171.25 L 133.75 168.75 L 146.25 162.5 L 160.0 151.25 L 170.0 143.75 L 168.75 142.5 L 167.5 142.5 " stroke="black" fill="none" stroke-width="6.0" stroke-linecap="round" stroke-linejoin="round" />
<path d="M 126.25 200.0 L 125.0 201.25 L 122.5 203.75 L 128.75 201.25 L 142.5 193.75 L 158.75 183.75 L 171.25 176.25 L 171.25 178.75 L 158.75 196.25 L 145.0 217.5 L 133.75 235.0 L 130.0 238.75 L 136.25 226.25 L 142.5 212.5 " stroke="black" fill="none" stroke-width="6.0" stroke-linecap="round" stroke-linejoin="round" />
<path d="M 181.25 138.75 L 177.5 140.0 L 175.0 141.25 L 177.5 141.25 L 192.5 136.25 L 212.5 125.0 L 238.75 110.0 L 255.0 98.75 L 256.25 95.0 L 248.75 95.0 L 238.75 97.5 L 228.75 100.0 L 218.75 101.25 L 213.75 101.25 L 211.25 100.0 L 211.25 98.75 L 212.5 98.75 L 213.75 97.5 L 215.0 100.0 L 217.5 115.0 L 222.5 148.75 L 227.5 192.5 L 230.0 218.75 L 230.0 237.5 L 227.5 247.5 L 223.75 250.0 L 220.0 250.0 L 212.5 250.0 L 208.75 250.0 " stroke="black" fill="none" stroke-width="6.0" stroke-linecap="round" stroke-linejoin="round" />
<path d="M 190.0 167.5 L 190.0 167.5 L 190.0 168.75 L 191.25 172.5 L 201.25 182.5 L 216.25 195.0 " stroke="black" fill="none" stroke-width="6.0" stroke-linecap="round" stroke-linejoin="round" />
</svg>