<svg xmlns="http://www.w3.org/2000/svg" width="300" height="300" viewBox="0 0 300 300">
<path d="M 96.25 92.5 L 96.25 92.5 L 95.0 92.5 L 100.0 92.5 L 122.5 87.5 L 157.5 80.0 L 188.75 71.25 L 201.25 63.75 L 200.0 61.25 L 191.25 62.5 " stroke="black" fill="none" stroke-width="6.0" stroke-linecap="round" stroke-linejoin="round" />
<path d="M 125.0 75.0 L 123.75 76.25 L 121.25 78.75 L 121.25 83.75 L 122.5 97.5 L 126.25 113.75 L 127.5 118.75 " stroke="black" fill="none" stroke-width="6.0" stroke-linecap="round" stroke-linejoin="round" />
<path d="M 162.5 63.75 L 162.5 63.75 L 162.5 65.0 L 161.25 81.25 L 153.75 111.25 " stroke="black" fill="none" stroke-width="6.0" stroke-linecap="round" stroke-linejoin="round" />
<path d="M 83.75 161.25 L 82.5 162.5 L 80.0 163.75 L 83.75 163.75 L 93.75 160.0 L 106.25 156.25 L 117.5 152.5 L 122.5 151.25 " stroke="black" fill="none" stroke-width="6.0" stroke-linecap="round" stroke-linejoin="round" />
<path d="M 85.0 198.75 L 85.0 198.75 L 82.5 200.0 L 85.0 200.0 L 92.5 195.0 L 103.75 187.5 L 111.25 183.75 L 111.25 183.75 " stroke="black" fill="none" stroke-width="6.0" stroke-linecap="round" stroke-linejoin="round" />
<path d="M 85.0 246.25 L 81.25 248.75 L 82.5 246.25 L 92.5 232.5 L 103.75 212.5 L 110.0 201.25 " stroke="black" fill="none" stroke-width="6.0" stroke-linecap="round" stroke-linejoin="round" />
<path d="M 152.5 128.75 L 152.5 128.75 L 152.5 128.75 L 152.5 128.75 L 151.25 131.25 L 151.25 137.5 L 152.5 143.75 L 161.25 145.0 L 175.0 140.0 L 187.5 132.5 L 193.75 127.5 L 193.75 127.5 L 181.25 141.25 L 161.25 171.25 L 137.5 212.5 L 108.75 251.25 L 95.0 262.5 L 92.5 258.75 L 92.5 256.25 " stroke="black" fill="none" stroke-width="6.0" stroke-linecap="round" stroke-linejoin="round" />
<path d="M 131.25 162.5 L 131.25 161.25 L 135.0 161.25 L 148.75 166.25 L 176.25 182.5 L 206.25 197.5 L 230.0 206.25 L 246.25 212.5 L 247.5 217.5 L 245.0 220.0 " stroke="black" fill="none" stroke-width="6.0" stroke-linecap="round" stroke-linejoin="round" />
<path d="M 145.0 210.0 L 145.0 211.25 L 141.25 212.5 L 141.25 213.75 L 148.75 223.75 L 160.0 240.0 L 170.0 251.25 L 175.0 253.75 L 175.0 251.25 L 170.0 245.0 L 162.5 238.75 L 156.25 232.5 L 153.75 226.25 L 155.0 220.0 L 170.0 213.75 L 191.25 210.0 L 208.75 208.75 L 213.75 212.5 L 208.75 221.25 L 195.0 236.25 L 180.0 250.0 L 172.5 255.0 L 176.25 253.75 L 196.25 240.0 L 218.75 220.0 L 230.0 208.75 " stroke="black" fill="none" stroke-width="6.0" stroke-linecap="round" stroke-linejoin="round" />
</svg>