<svg xmlns="http://www.w3.org/2000/svg" width="300" height="300" viewBox="0 0 300 300">
<path d="M 83.75 102.5 L 81.25 102.5 L 80.0 102.5 L 83.75 102.5 L 105.0 101.25 L 143.75 96.25 L 182.5 88.75 L 201.25 82.5 L 205.0 80.0 L 202.5 78.75 L 196.25 78.75 " stroke="black" fill="none" stroke-width="6.0" stroke-linecap="round" stroke-linejoin="round" />
<path d="M 135.0 78.75 L 133.75 80.0 L 131.25 82.5 L 131.25 95.0 L 131.25 118.75 L 136.25 135.0 L 138.75 136.25 " stroke="black" fill="none" stroke-width="6.0" stroke-linecap="round" stroke-linejoin="round" />
<path d="M 171.25 76.25 L 171.25 76.25 L 171.25 76.25 L 166.25 85.0 L 157.5 111.25 L 150.0 135.0 " stroke="black" fill="none" stroke-width="6.0" stroke-linecap="round" stroke-linejoin="round" />
<path d="M 91.25 170.0 L 88.75 171.25 L 87.5 172.5 L 88.75 172.5 L 97.5 170.0 L 110.0 162.5 L 120.0 157.5 L 121.25 153.75 " stroke="black" fill="none" stroke-width="6.0" stroke-linecap="round" stroke-linejoin="round" />
<path d="M 96.25 186.25 L 96.25 186.25 L 96.25 186.25 L 98.75 186.25 L 110.0 181.25 L 122.5 176.25 L 125.0 176.25 " stroke="black" fill="none" stroke-width="6.0" stroke-linecap="round" stroke-linejoin="round" />
<path d="M 91.25 237.5 L 90.0 240.0 L 90.0 241.25 L 98.75 235.0 L 120.0 216.25 L 143.75 193.75 L 150.0 183.75 " stroke="black" fill="none" stroke-width="6.0" stroke-linecap="round" stroke-linejoin="round" />
<path d="M 163.75 138.75 L 163.75 138.75 L 162.5 140.0 L 163.75 140.0 L 175.0 140.0 L 190.0 137.5 L 201.25 133.75 L 205.0 132.5 L 201.25 133.75 " stroke="black" fill="none" stroke-width="6.0" stroke-linecap="round" stroke-linejoin="round" />
<path d="M 148.75 180.0 L 148.75 180.0 L 148.75 180.0 L 155.0 176.25 L 175.0 165.0 L 196.25 152.5 L 205.0 148.75 L 203.75 147.5 L 196.25 151.25 L 187.5 156.25 L 177.5 165.0 L 168.75 175.0 L 163.75 190.0 L 163.75 208.75 L 171.25 223.75 L 183.75 228.75 L 200.0 223.75 L 218.75 211.25 L 233.75 201.25 L 245.0 197.5 L 248.75 197.5 L 247.5 201.25 " stroke="black" fill="none" stroke-width="6.0" stroke-linecap="round" stroke-linejoin="round" />
</svg>