<svg xmlns="http://www.w3.org/2000/svg" width="300" height="300" viewBox="0 0 300 300">
<path d="M 65.0 146.25 L 63.75 146.25 L 60.0 147.5 L 65.0 146.25 L 80.0 140.0 L 97.5 132.5 L 112.5 122.5 L 118.75 115.0 L 116.25 112.5 L 108.75 111.25 L 101.25 111.25 L 95.0 111.25 L 90.0 111.25 L 85.0 113.75 L 85.0 122.5 L 88.75 155.0 L 96.25 210.0 L 98.75 238.75 L 100.0 245.0 L 100.0 245.0 L 98.75 243.75 L 93.75 240.0 L 86.25 233.75 L 76.25 226.25 L 63.75 218.75 L 55.0 213.75 L 52.5 211.25 L 60.0 207.5 L 77.5 196.25 L 98.75 180.0 L 118.75 156.25 L 122.5 151.25 " stroke="black" fill="none" stroke-width="6.0" stroke-linecap="round" stroke-linejoin="round" />
<path d="M 137.5 90.0 L 133.75 92.5 L 133.75 98.75 L 141.25 117.5 L 150.0 137.5 L 157.5 142.5 L 166.25 138.75 L 176.25 127.5 L 186.25 115.0 L 190.0 105.0 L 186.25 101.25 L 173.75 101.25 L 160.0 106.25 L 147.5 110.0 L 136.25 115.0 L 133.75 117.5 L 136.25 117.5 L 147.5 111.25 L 163.75 102.5 L 180.0 93.75 L 186.25 90.0 " stroke="black" fill="none" stroke-width="6.0" stroke-linecap="round" stroke-linejoin="round" />
<path d="M 142.5 173.75 L 141.25 172.5 L 140.0 176.25 L 141.25 198.75 L 146.25 231.25 L 150.0 247.5 L 151.25 248.75 L 152.5 245.0 L 151.25 237.5 L 150.0 226.25 L 147.5 212.5 L 145.0 201.25 L 141.25 191.25 L 140.0 186.25 L 142.5 181.25 L 152.5 172.5 L 168.75 163.75 L 185.0 158.75 L 196.25 165.0 L 202.5 190.0 L 202.5 217.5 L 202.5 236.25 L 202.5 246.25 L 201.25 247.5 L 200.0 247.5 L 197.5 246.25 " stroke="black" fill="none" stroke-width="6.0" stroke-linecap="round" stroke-linejoin="round" />
<path d="M 152.5 225.0 L 148.75 228.75 L 147.5 228.75 L 156.25 222.5 L 171.25 211.25 L 187.5 197.5 L 196.25 187.5 L 196.25 186.25 " stroke="black" fill="none" stroke-width="6.0" stroke-linecap="round" stroke-linejoin="round" />
<path d="M 150.0 253.75 L 150.0 256.25 L 152.5 257.5 L 166.25 252.5 L 188.75 237.5 L 200.0 225.0 " stroke="black" fill="none" stroke-width="6.0" stroke-linecap="round" stroke-linejoin="round" />
</svg>