<svg xmlns="http://www.w3.org/2000/svg" width="300" height="300" viewBox="0 0 300 300">
<path d="M 82.5 115.0 L 77.5 112.5 L 75.0 111.25 L 75.0 111.25 L 77.5 118.75 L 82.5 130.0 L 87.5 137.5 L 92.5 141.25 L 98.75 140.0 L 108.75 133.75 L 117.5 125.0 L 122.5 120.0 L 122.5 117.5 L 116.25 117.5 L 106.25 120.0 L 96.25 120.0 L 88.75 122.5 L 81.25 123.75 L 76.25 125.0 L 76.25 125.0 L 81.25 123.75 L 95.0 115.0 L 111.25 105.0 L 123.75 97.5 L 126.25 95.0 " stroke="black" fill="none" stroke-width="6.0" stroke-linecap="round" stroke-linejoin="round" />
<path d="M 71.25 188.75 L 71.25 183.75 L 73.75 181.25 L 78.75 180.0 L 83.75 185.0 L 87.5 192.5 L 88.75 197.5 L 93.75 197.5 L 101.25 190.0 L 111.25 176.25 L 118.75 165.0 L 120.0 161.25 L 113.75 165.0 L 105.0 172.5 L 101.25 177.5 " stroke="black" fill="none" stroke-width="6.0" stroke-linecap="round" stroke-linejoin="round" />
<path d="M 75.0 233.75 L 75.0 235.0 L 75.0 236.25 L 77.5 236.25 L 88.75 230.0 L 107.5 213.75 L 127.5 195.0 L 135.0 185.0 L 131.25 183.75 L 128.75 183.75 " stroke="black" fill="none" stroke-width="6.0" stroke-linecap="round" stroke-linejoin="round" />
<path d="M 105.0 195.0 L 105.0 206.25 L 102.5 222.5 L 97.5 243.75 L 92.5 260.0 L 87.5 266.25 L 85.0 263.75 " stroke="black" fill="none" stroke-width="6.0" stroke-linecap="round" stroke-linejoin="round" />
<path d="M 103.75 210.0 L 105.0 208.75 L 107.5 208.75 L 111.25 208.75 L 121.25 218.75 L 135.0 237.5 L 146.25 253.75 L 152.5 263.75 L 155.0 266.25 L 151.25 265.0 " stroke="black" fill="none" stroke-width="6.0" stroke-linecap="round" stroke-linejoin="round" />
<path d="M 165.0 98.75 L 165.0 98.75 L 162.5 98.75 L 162.5 97.5 L 172.5 97.5 L 187.5 100.0 L 200.0 102.5 L 205.0 106.25 L 203.75 110.0 L 192.5 118.75 L 177.5 128.75 L 166.25 136.25 L 161.25 140.0 L 162.5 140.0 L 171.25 140.0 L 183.75 138.75 L 195.0 135.0 L 200.0 133.75 L 200.0 132.5 L 196.25 136.25 L 187.5 143.75 L 175.0 152.5 L 160.0 165.0 L 148.75 178.75 L 145.0 186.25 L 146.25 186.25 L 156.25 183.75 L 175.0 176.25 L 198.75 163.75 L 218.75 155.0 L 228.75 151.25 L 228.75 151.25 L 220.0 160.0 L 207.5 172.5 L 195.0 186.25 L 185.0 195.0 L 177.5 196.25 " stroke="black" fill="none" stroke-width="6.0" stroke-linecap="round" stroke-linejoin="round" />
<path d="M 185.0 183.75 L 183.75 182.5 L 182.5 182.5 L 182.5 192.5 L 185.0 213.75 L 186.25 236.25 L 186.25 245.0 L 185.0 243.75 " stroke="black" fill="none" stroke-width="6.0" stroke-linecap="round" stroke-linejoin="round" />
<path d="M 190.0 203.75 L 190.0 202.5 L 190.0 200.0 L 195.0 195.0 L 203.75 188.75 L 207.5 183.75 L 207.5 183.75 " stroke="black" fill="none" stroke-width="6.0" stroke-linecap="round" stroke-linejoin="round" />
<path d="M 156.25 188.75 L 156.25 190.0 L 152.5 196.25 L 151.25 213.75 L 151.25 241.25 L 153.75 257.5 L 155.0 262.5 L 155.0 260.0 L 155.0 253.75 " stroke="black" fill="none" stroke-width="6.0" stroke-linecap="round" stroke-linejoin="round" />
<path d="M 162.5 227.5 L 162.5 227.5 L 162.5 227.5 L 161.25 226.25 L 161.25 226.25 L 161.25 226.25 L 162.5 227.5 L 162.5 227.5 L 163.75 228.75 L 163.75 228.75 L 163.75 230.0 L 163.75 230.0 L 165.0 230.0 L 165.0 230.0 L 165.0 230.0 L 165.0 230.0 L 167.5 232.5 L 176.25 237.5 L 195.0 248.75 L 218.75 257.5 L 241.25 261.25 L 257.5 260.0 L 262.5 258.75 L 261.25 256.25 " stroke="black" fill="none" stroke-width="6.0" stroke-linecap="round" stroke-linejoin="round" />
</svg>