<svg xmlns="http://www.w3.org/2000/svg" width="300" height="300" viewBox="0 0 300 300">
<path d="M 96.25 82.5 L 93.75 82.5 L 92.5 83.75 L 92.5 82.5 L 101.25 78.75 L 113.75 72.5 L 126.25 67.5 L 133.75 65.0 L 135.0 70.0 L 133.75 83.75 L 132.5 105.0 L 132.5 130.0 L 132.5 145.0 L 133.75 148.75 L 133.75 147.5 L 132.5 145.0 L 128.75 141.25 L 122.5 136.25 L 117.5 131.25 " stroke="black" fill="none" stroke-width="6.0" stroke-linecap="round" stroke-linejoin="round" />
<path d="M 93.75 113.75 L 91.25 115.0 L 90.0 116.25 L 92.5 116.25 L 103.75 112.5 L 117.5 106.25 L 126.25 102.5 L 126.25 100.0 " stroke="black" fill="none" stroke-width="6.0" stroke-linecap="round" stroke-linejoin="round" />
<path d="M 96.25 137.5 L 96.25 137.5 L 96.25 138.75 L 107.5 133.75 L 135.0 115.0 L 152.5 100.0 " stroke="black" fill="none" stroke-width="6.0" stroke-linecap="round" stroke-linejoin="round" />
<path d="M 168.75 75.0 L 163.75 76.25 L 162.5 76.25 L 168.75 73.75 L 181.25 68.75 L 193.75 62.5 L 201.25 58.75 L 203.75 57.5 L 205.0 65.0 L 203.75 85.0 L 203.75 106.25 L 203.75 123.75 L 205.0 131.25 L 206.25 133.75 L 206.25 133.75 L 206.25 132.5 L 206.25 132.5 L 203.75 130.0 L 198.75 126.25 L 198.75 123.75 " stroke="black" fill="none" stroke-width="6.0" stroke-linecap="round" stroke-linejoin="round" />
<path d="M 172.5 96.25 L 171.25 96.25 L 168.75 97.5 L 168.75 97.5 L 177.5 97.5 L 190.0 95.0 L 196.25 95.0 " stroke="black" fill="none" stroke-width="6.0" stroke-linecap="round" stroke-linejoin="round" />
<path d="M 166.25 115.0 L 166.25 115.0 L 166.25 116.25 L 172.5 116.25 L 188.75 112.5 L 201.25 107.5 " stroke="black" fill="none" stroke-width="6.0" stroke-linecap="round" stroke-linejoin="round" />
<path d="M 145.0 145.0 L 145.0 145.0 L 143.75 145.0 L 143.75 145.0 L 147.5 145.0 L 155.0 145.0 L 165.0 146.25 L 170.0 147.5 L 170.0 148.75 L 165.0 150.0 " stroke="black" fill="none" stroke-width="6.0" stroke-linecap="round" stroke-linejoin="round" />
<path d="M 98.75 181.25 L 98.75 181.25 L 97.5 181.25 L 102.5 181.25 L 126.25 176.25 L 157.5 163.75 L 182.5 152.5 L 191.25 147.5 L 191.25 145.0 L 185.0 146.25 " stroke="black" fill="none" stroke-width="6.0" stroke-linecap="round" stroke-linejoin="round" />
<path d="M 141.25 181.25 L 138.75 186.25 L 131.25 200.0 L 121.25 216.25 L 112.5 230.0 L 110.0 232.5 L 111.25 225.0 L 113.75 217.5 " stroke="black" fill="none" stroke-width="6.0" stroke-linecap="round" stroke-linejoin="round" />
<path d="M 130.0 197.5 L 130.0 196.25 L 131.25 196.25 L 136.25 195.0 L 145.0 198.75 L 153.75 202.5 L 158.75 205.0 L 160.0 205.0 " stroke="black" fill="none" stroke-width="6.0" stroke-linecap="round" stroke-linejoin="round" />
<path d="M 191.25 166.25 L 191.25 166.25 L 190.0 166.25 L 186.25 167.5 L 176.25 177.5 L 166.25 188.75 L 161.25 193.75 L 161.25 195.0 L 167.5 193.75 L 178.75 192.5 L 191.25 190.0 L 202.5 188.75 L 210.0 187.5 L 212.5 187.5 L 210.0 188.75 " stroke="black" fill="none" stroke-width="6.0" stroke-linecap="round" stroke-linejoin="round" />
<path d="M 97.5 255.0 L 96.25 255.0 L 93.75 257.5 L 93.75 258.75 L 110.0 257.5 L 143.75 247.5 L 180.0 232.5 L 207.5 218.75 L 215.0 212.5 L 215.0 210.0 L 196.25 211.25 L 193.75 211.25 " stroke="black" fill="none" stroke-width="6.0" stroke-linecap="round" stroke-linejoin="round" />
<path d="M 166.25 207.5 L 166.25 207.5 L 166.25 207.5 L 166.25 207.5 L 166.25 207.5 L 170.0 216.25 L 173.75 245.0 L 176.25 287.5 L 176.25 316.25 L 172.5 330.0 L 168.75 335.0 L 162.5 336.25 " stroke="black" fill="none" stroke-width="6.0" stroke-linecap="round" stroke-linejoin="round" />
</svg>