<svg xmlns="http://www.w3.org/2000/svg" width="300" height="300" viewBox="0 0 300 300">
<path d="M 81.25 92.5 L 77.5 95.0 L 76.25 95.0 L 80.0 95.0 L 91.25 90.0 L 101.25 85.0 L 111.25 81.25 L 117.5 81.25 L 118.75 87.5 L 117.5 103.75 L 116.25 127.5 L 116.25 145.0 L 116.25 152.5 L 116.25 151.25 L 116.25 148.75 L 113.75 142.5 L 107.5 136.25 L 106.25 135.0 " stroke="black" fill="none" stroke-width="6.0" stroke-linecap="round" stroke-linejoin="round" />
<path d="M 85.0 117.5 L 81.25 118.75 L 78.75 120.0 L 82.5 120.0 L 92.5 113.75 L 105.0 107.5 L 112.5 101.25 L 112.5 101.25 " stroke="black" fill="none" stroke-width="6.0" stroke-linecap="round" stroke-linejoin="round" />
<path d="M 91.25 135.0 L 87.5 138.75 L 85.0 140.0 L 90.0 138.75 L 105.0 126.25 L 125.0 107.5 L 133.75 98.75 " stroke="black" fill="none" stroke-width="6.0" stroke-linecap="round" stroke-linejoin="round" />
<path d="M 150.0 77.5 L 148.75 77.5 L 145.0 77.5 L 145.0 77.5 L 153.75 73.75 L 170.0 66.25 L 185.0 58.75 L 192.5 57.5 L 193.75 65.0 L 193.75 86.25 L 191.25 112.5 L 191.25 136.25 L 191.25 142.5 L 191.25 141.25 L 191.25 140.0 L 190.0 136.25 L 186.25 131.25 L 180.0 123.75 L 173.75 120.0 " stroke="black" fill="none" stroke-width="6.0" stroke-linecap="round" stroke-linejoin="round" />
<path d="M 145.0 92.5 L 143.75 92.5 L 142.5 92.5 L 141.25 91.25 L 147.5 91.25 L 160.0 90.0 L 171.25 88.75 L 172.5 87.5 " stroke="black" fill="none" stroke-width="6.0" stroke-linecap="round" stroke-linejoin="round" />
<path d="M 148.75 107.5 L 147.5 108.75 L 147.5 110.0 L 151.25 110.0 L 165.0 107.5 L 173.75 105.0 " stroke="black" fill="none" stroke-width="6.0" stroke-linecap="round" stroke-linejoin="round" />
<path d="M 142.5 136.25 L 141.25 136.25 L 140.0 136.25 L 140.0 137.5 L 145.0 137.5 L 152.5 137.5 L 158.75 137.5 L 160.0 138.75 L 158.75 141.25 " stroke="black" fill="none" stroke-width="6.0" stroke-linecap="round" stroke-linejoin="round" />
<path d="M 92.5 177.5 L 91.25 177.5 L 88.75 178.75 L 91.25 178.75 L 110.0 171.25 L 142.5 157.5 L 173.75 143.75 L 190.0 136.25 L 190.0 135.0 L 176.25 141.25 L 160.0 146.25 L 145.0 153.75 L 132.5 162.5 L 122.5 173.75 L 113.75 190.0 L 106.25 208.75 L 102.5 223.75 L 102.5 227.5 L 101.25 225.0 " stroke="black" fill="none" stroke-width="6.0" stroke-linecap="round" stroke-linejoin="round" />
<path d="M 117.5 195.0 L 118.75 195.0 L 120.0 191.25 L 122.5 191.25 L 128.75 193.75 L 140.0 198.75 L 152.5 201.25 L 156.25 200.0 " stroke="black" fill="none" stroke-width="6.0" stroke-linecap="round" stroke-linejoin="round" />
<path d="M 188.75 160.0 L 188.75 158.75 L 186.25 157.5 L 180.0 156.25 L 170.0 166.25 L 158.75 180.0 L 151.25 192.5 L 150.0 197.5 L 155.0 197.5 L 170.0 195.0 L 188.75 187.5 L 205.0 180.0 L 211.25 175.0 L 208.75 177.5 L 193.75 188.75 L 185.0 193.75 " stroke="black" fill="none" stroke-width="6.0" stroke-linecap="round" stroke-linejoin="round" />
<path d="M 96.25 257.5 L 96.25 260.0 L 96.25 262.5 L 106.25 260.0 L 140.0 246.25 L 177.5 228.75 L 205.0 215.0 L 211.25 210.0 L 210.0 208.75 L 200.0 208.75 L 187.5 210.0 L 172.5 210.0 L 161.25 208.75 L 157.5 205.0 L 158.75 201.25 L 161.25 198.75 L 163.75 198.75 L 166.25 208.75 L 168.75 236.25 L 170.0 275.0 L 167.5 307.5 L 163.75 317.5 L 155.0 318.75 " stroke="black" fill="none" stroke-width="6.0" stroke-linecap="round" stroke-linejoin="round" />
</svg>