<svg xmlns="http://www.w3.org/2000/svg" width="300" height="300" viewBox="0 0 300 300">
<path d="M 85.0 86.25 L 82.5 86.25 L 80.0 86.25 L 78.75 86.25 L 82.5 86.25 L 93.75 85.0 L 108.75 82.5 L 120.0 80.0 L 125.0 80.0 L 126.25 87.5 L 121.25 102.5 L 118.75 126.25 L 117.5 143.75 L 118.75 150.0 L 120.0 150.0 L 120.0 148.75 L 120.0 147.5 L 117.5 145.0 L 113.75 142.5 " stroke="black" fill="none" stroke-width="6.0" stroke-linecap="round" stroke-linejoin="round" />
<path d="M 83.75 111.25 L 80.0 111.25 L 77.5 111.25 L 81.25 111.25 L 91.25 111.25 L 105.0 110.0 L 113.75 107.5 " stroke="black" fill="none" stroke-width="6.0" stroke-linecap="round" stroke-linejoin="round" />
<path d="M 83.75 136.25 L 82.5 137.5 L 77.5 140.0 L 80.0 140.0 L 91.25 133.75 L 120.0 116.25 L 133.75 107.5 " stroke="black" fill="none" stroke-width="6.0" stroke-linecap="round" stroke-linejoin="round" />
<path d="M 161.25 72.5 L 160.0 72.5 L 156.25 72.5 L 156.25 72.5 L 162.5 71.25 L 175.0 70.0 L 188.75 66.25 L 198.75 66.25 L 203.75 67.5 L 203.75 80.0 L 202.5 101.25 L 200.0 125.0 L 198.75 141.25 L 198.75 145.0 L 198.75 145.0 L 198.75 142.5 L 198.75 141.25 L 197.5 135.0 L 193.75 126.25 L 192.5 125.0 " stroke="black" fill="none" stroke-width="6.0" stroke-linecap="round" stroke-linejoin="round" />
<path d="M 155.0 92.5 L 153.75 92.5 L 151.25 92.5 L 150.0 91.25 L 151.25 91.25 L 161.25 91.25 L 175.0 91.25 L 187.5 90.0 L 188.75 90.0 " stroke="black" fill="none" stroke-width="6.0" stroke-linecap="round" stroke-linejoin="round" />
<path d="M 151.25 113.75 L 151.25 115.0 L 148.75 116.25 L 150.0 117.5 L 162.5 116.25 L 180.0 111.25 " stroke="black" fill="none" stroke-width="6.0" stroke-linecap="round" stroke-linejoin="round" />
<path d="M 133.75 142.5 L 132.5 142.5 L 131.25 142.5 L 131.25 142.5 L 136.25 142.5 L 146.25 142.5 L 157.5 142.5 L 161.25 142.5 L 161.25 145.0 " stroke="black" fill="none" stroke-width="6.0" stroke-linecap="round" stroke-linejoin="round" />
<path d="M 77.5 177.5 L 76.25 177.5 L 75.0 177.5 L 81.25 176.25 L 108.75 170.0 L 151.25 156.25 L 183.75 145.0 L 197.5 141.25 L 198.75 141.25 L 188.75 143.75 " stroke="black" fill="none" stroke-width="6.0" stroke-linecap="round" stroke-linejoin="round" />
<path d="M 133.75 170.0 L 123.75 176.25 L 113.75 190.0 L 102.5 208.75 L 95.0 225.0 L 92.5 230.0 L 92.5 225.0 L 93.75 221.25 " stroke="black" fill="none" stroke-width="6.0" stroke-linecap="round" stroke-linejoin="round" />
<path d="M 111.25 197.5 L 112.5 195.0 L 115.0 193.75 L 121.25 195.0 L 131.25 202.5 L 143.75 206.25 L 148.75 206.25 " stroke="black" fill="none" stroke-width="6.0" stroke-linecap="round" stroke-linejoin="round" />
<path d="M 192.5 161.25 L 192.5 158.75 L 188.75 156.25 L 180.0 160.0 L 167.5 171.25 L 156.25 183.75 L 152.5 190.0 L 152.5 190.0 L 161.25 190.0 L 175.0 190.0 L 191.25 187.5 L 206.25 185.0 L 212.5 185.0 L 208.75 188.75 L 206.25 190.0 " stroke="black" fill="none" stroke-width="6.0" stroke-linecap="round" stroke-linejoin="round" />
<path d="M 80.0 262.5 L 78.75 263.75 L 83.75 263.75 L 110.0 256.25 L 152.5 241.25 L 188.75 227.5 L 207.5 218.75 L 210.0 216.25 L 202.5 217.5 L 192.5 220.0 " stroke="black" fill="none" stroke-width="6.0" stroke-linecap="round" stroke-linejoin="round" />
<path d="M 156.25 208.75 L 156.25 208.75 L 156.25 208.75 L 156.25 207.5 L 157.5 221.25 L 158.75 256.25 L 155.0 297.5 L 147.5 321.25 L 140.0 330.0 " stroke="black" fill="none" stroke-width="6.0" stroke-linecap="round" stroke-linejoin="round" />
</svg>