<svg xmlns="http://www.w3.org/2000/svg" width="300" height="300" viewBox="0 0 300 300">
<path d="M 111.25 92.5 L 111.25 93.75 L 110.0 93.75 L 116.25 95.0 L 136.25 95.0 L 162.5 92.5 L 185.0 87.5 L 192.5 86.25 L 181.25 88.75 " stroke="black" fill="none" stroke-width="6.0" stroke-linecap="round" stroke-linejoin="round" />
<path d="M 111.25 155.0 L 111.25 156.25 L 111.25 160.0 L 117.5 160.0 L 138.75 151.25 L 162.5 138.75 L 180.0 128.75 L 180.0 125.0 " stroke="black" fill="none" stroke-width="6.0" stroke-linecap="round" stroke-linejoin="round" />
<path d="M 142.5 111.25 L 140.0 111.25 L 140.0 117.5 L 146.25 141.25 L 152.5 176.25 L 151.25 205.0 L 146.25 220.0 L 137.5 225.0 L 127.5 227.5 L 115.0 231.25 L 105.0 232.5 L 101.25 235.0 L 100.0 235.0 L 100.0 235.0 L 101.25 235.0 L 107.5 235.0 L 117.5 236.25 L 132.5 236.25 L 157.5 235.0 L 188.75 231.25 L 216.25 228.75 L 238.75 228.75 L 248.75 228.75 L 248.75 226.25 L 240.0 220.0 " stroke="black" fill="none" stroke-width="6.0" stroke-linecap="round" stroke-linejoin="round" />
<path d="M 202.5 173.75 L 202.5 173.75 L 201.25 173.75 L 200.0 173.75 L 201.25 177.5 L 211.25 190.0 L 216.25 197.5 " stroke="black" fill="none" stroke-width="6.0" stroke-linecap="round" stroke-linejoin="round" />
</svg>