<svg xmlns="http://www.w3.org/2000/svg" width="300" height="300" viewBox="0 0 300 300">
<path d="M 137.5 107.5 L 137.5 107.5 L 137.5 108.75 L 146.25 108.75 L 166.25 106.25 L 190.0 98.75 L 200.0 92.5 L 200.0 92.5 " stroke="black" fill="none" stroke-width="6.0" stroke-linecap="round" stroke-linejoin="round" />
<path d="M 107.5 182.5 L 106.25 185.0 L 106.25 186.25 L 125.0 182.5 L 158.75 168.75 L 190.0 155.0 L 202.5 147.5 L 198.75 145.0 " stroke="black" fill="none" stroke-width="6.0" stroke-linecap="round" stroke-linejoin="round" />
<path d="M 152.5 133.75 L 152.5 136.25 L 156.25 148.75 L 162.5 180.0 L 162.5 211.25 L 157.5 231.25 L 150.0 241.25 L 138.75 245.0 L 126.25 246.25 L 121.25 246.25 L 122.5 246.25 L 133.75 243.75 L 152.5 243.75 L 177.5 243.75 L 206.25 238.75 L 231.25 236.25 L 243.75 233.75 L 243.75 232.5 " stroke="black" fill="none" stroke-width="6.0" stroke-linecap="round" stroke-linejoin="round" />
<path d="M 207.5 183.75 L 207.5 183.75 L 205.0 183.75 L 205.0 183.75 L 211.25 191.25 L 223.75 203.75 L 226.25 206.25 " stroke="black" fill="none" stroke-width="6.0" stroke-linecap="round" stroke-linejoin="round" />
</svg>