<svg xmlns="http://www.w3.org/2000/svg" width="300" height="300" viewBox="0 0 300 300">
<path d="M 113.75 103.75 L 113.75 106.25 L 117.5 110.0 L 135.0 112.5 L 162.5 110.0 L 191.25 100.0 L 202.5 93.75 L 201.25 92.5 " stroke="black" fill="none" stroke-width="6.0" stroke-linecap="round" stroke-linejoin="round" />
<path d="M 112.5 171.25 L 112.5 171.25 L 117.5 172.5 L 141.25 165.0 L 173.75 153.75 L 192.5 146.25 L 195.0 140.0 " stroke="black" fill="none" stroke-width="6.0" stroke-linecap="round" stroke-linejoin="round" />
<path d="M 150.0 123.75 L 150.0 123.75 L 150.0 126.25 L 157.5 141.25 L 161.25 173.75 L 157.5 203.75 L 147.5 218.75 L 133.75 227.5 L 117.5 235.0 L 106.25 237.5 L 105.0 237.5 L 110.0 237.5 L 126.25 233.75 L 148.75 230.0 L 175.0 227.5 L 203.75 227.5 L 223.75 227.5 L 231.25 227.5 L 232.5 225.0 L 226.25 218.75 " stroke="black" fill="none" stroke-width="6.0" stroke-linecap="round" stroke-linejoin="round" />
<path d="M 206.25 171.25 L 206.25 171.25 L 205.0 171.25 L 211.25 180.0 L 222.5 193.75 L 228.75 200.0 " stroke="black" fill="none" stroke-width="6.0" stroke-linecap="round" stroke-linejoin="round" />
</svg>