<svg xmlns="http://www.w3.org/2000/svg" width="300" height="300" viewBox="0 0 300 300">
<path d="M 141.25 92.5 L 141.25 91.25 L 141.25 91.25 L 142.5 96.25 L 147.5 136.25 L 148.75 188.75 L 150.0 207.5 L 151.25 210.0 L 150.0 203.75 " stroke="black" fill="none" stroke-width="6.0" stroke-linecap="round" stroke-linejoin="round" />
<path d="M 148.75 146.25 L 148.75 146.25 L 148.75 146.25 L 150.0 146.25 L 161.25 146.25 L 191.25 143.75 L 218.75 137.5 L 231.25 135.0 L 231.25 135.0 " stroke="black" fill="none" stroke-width="6.0" stroke-linecap="round" stroke-linejoin="round" />
<path d="M 103.75 228.75 L 101.25 228.75 L 97.5 230.0 L 98.75 226.25 L 115.0 216.25 L 147.5 206.25 L 188.75 203.75 L 221.25 207.5 L 243.75 216.25 L 252.5 220.0 L 253.75 220.0 L 248.75 218.75 " stroke="black" fill="none" stroke-width="6.0" stroke-linecap="round" stroke-linejoin="round" />
</svg>