<svg xmlns="http://www.w3.org/2000/svg" width="300" height="300" viewBox="0 0 300 300">
<path d="M 153.75 98.75 L 153.75 98.75 L 153.75 100.0 L 155.0 125.0 L 156.25 172.5 L 156.25 205.0 L 156.25 216.25 L 156.25 218.75 L 156.25 220.0 L 152.5 220.0 L 151.25 218.75 " stroke="black" fill="none" stroke-width="6.0" stroke-linecap="round" stroke-linejoin="round" />
<path d="M 153.75 155.0 L 153.75 155.0 L 153.75 155.0 L 153.75 153.75 L 162.5 153.75 L 182.5 153.75 L 205.0 152.5 L 217.5 150.0 L 218.75 150.0 " stroke="black" fill="none" stroke-width="6.0" stroke-linecap="round" stroke-linejoin="round" />
<path d="M 93.75 231.25 L 93.75 231.25 L 91.25 232.5 L 91.25 232.5 L 100.0 227.5 L 123.75 218.75 L 155.0 213.75 L 186.25 213.75 L 208.75 218.75 L 223.75 221.25 L 238.75 223.75 L 260.0 221.25 L 263.75 221.25 L 263.75 222.5 " stroke="black" fill="none" stroke-width="6.0" stroke-linecap="round" stroke-linejoin="round" />
</svg>