<svg xmlns="http://www.w3.org/2000/svg" width="300" height="300" viewBox="0 0 300 300">
<path d="M 88.75 98.75 L 88.75 97.5 L 90.0 96.25 L 90.0 98.75 L 82.5 121.25 L 67.5 152.5 L 51.25 175.0 L 42.5 181.25 L 41.25 168.75 " stroke="black" fill="none" stroke-width="6.0" stroke-linecap="round" stroke-linejoin="round" />
<path d="M 81.25 128.75 L 82.5 128.75 L 87.5 135.0 L 91.25 160.0 L 91.25 188.75 L 87.5 223.75 L 82.5 241.25 L 77.5 241.25 " stroke="black" fill="none" stroke-width="6.0" stroke-linecap="round" stroke-linejoin="round" />
<path d="M 133.75 61.25 L 133.75 61.25 L 132.5 61.25 L 132.5 61.25 L 133.75 70.0 L 140.0 78.75 L 157.5 81.25 L 177.5 75.0 L 187.5 67.5 L 188.75 66.25 L 175.0 71.25 L 171.25 73.75 " stroke="black" fill="none" stroke-width="6.0" stroke-linecap="round" stroke-linejoin="round" />
<path d="M 131.25 102.5 L 128.75 107.5 L 128.75 117.5 L 133.75 137.5 L 137.5 155.0 L 140.0 161.25 L 141.25 157.5 L 141.25 156.25 " stroke="black" fill="none" stroke-width="6.0" stroke-linecap="round" stroke-linejoin="round" />
<path d="M 136.25 112.5 L 136.25 112.5 L 135.0 110.0 L 138.75 108.75 L 155.0 105.0 L 172.5 103.75 L 182.5 105.0 L 185.0 111.25 L 175.0 122.5 L 162.5 131.25 L 150.0 136.25 L 140.0 136.25 L 131.25 135.0 L 128.75 133.75 L 128.75 132.5 L 136.25 131.25 L 148.75 127.5 L 163.75 120.0 L 178.75 112.5 L 181.25 110.0 " stroke="black" fill="none" stroke-width="6.0" stroke-linecap="round" stroke-linejoin="round" />
<path d="M 138.75 142.5 L 137.5 143.75 L 137.5 143.75 L 145.0 141.25 L 161.25 133.75 L 177.5 123.75 L 183.75 118.75 " stroke="black" fill="none" stroke-width="6.0" stroke-linecap="round" stroke-linejoin="round" />
<path d="M 126.25 166.25 L 125.0 166.25 L 125.0 166.25 L 137.5 161.25 L 158.75 150.0 L 183.75 137.5 L 196.25 131.25 L 196.25 130.0 L 186.25 136.25 L 172.5 146.25 L 157.5 156.25 L 137.5 171.25 L 106.25 196.25 L 80.0 216.25 L 70.0 222.5 L 71.25 220.0 L 78.75 208.75 " stroke="black" fill="none" stroke-width="6.0" stroke-linecap="round" stroke-linejoin="round" />
<path d="M 137.5 180.0 L 137.5 180.0 L 145.0 180.0 L 168.75 178.75 L 200.0 177.5 L 223.75 180.0 L 233.75 185.0 L 231.25 191.25 L 217.5 203.75 L 200.0 218.75 L 181.25 231.25 L 160.0 241.25 L 156.25 241.25 " stroke="black" fill="none" stroke-width="6.0" stroke-linecap="round" stroke-linejoin="round" />
<path d="M 148.75 185.0 L 146.25 180.0 L 143.75 178.75 L 142.5 188.75 L 140.0 210.0 L 140.0 230.0 L 142.5 237.5 L 145.0 235.0 " stroke="black" fill="none" stroke-width="6.0" stroke-linecap="round" stroke-linejoin="round" />
<path d="M 172.5 183.75 L 172.5 181.25 L 172.5 178.75 L 172.5 183.75 L 168.75 202.5 L 163.75 231.25 L 161.25 243.75 " stroke="black" fill="none" stroke-width="6.0" stroke-linecap="round" stroke-linejoin="round" />
</svg>