<svg xmlns="http://www.w3.org/2000/svg" width="300" height="300" viewBox="0 0 300 300">
<path d="M 97.5 96.25 L 97.5 96.25 L 97.5 96.25 L 103.75 96.25 L 120.0 96.25 L 135.0 95.0 L 140.0 93.75 " stroke="black" fill="none" stroke-width="6.0" stroke-linecap="round" stroke-linejoin="round" />
<path d="M 55.0 178.75 L 55.0 178.75 L 55.0 180.0 L 68.75 178.75 L 107.5 162.5 L 150.0 143.75 L 175.0 132.5 L 181.25 128.75 L 175.0 128.75 L 162.5 130.0 " stroke="black" fill="none" stroke-width="6.0" stroke-linecap="round" stroke-linejoin="round" />
<path d="M 110.0 137.5 L 110.0 137.5 L 110.0 137.5 L 113.75 145.0 L 122.5 172.5 L 126.25 206.25 L 123.75 222.5 L 118.75 227.5 L 110.0 227.5 L 101.25 227.5 L 92.5 225.0 L 87.5 222.5 L 86.25 221.25 L 91.25 218.75 L 108.75 206.25 L 133.75 186.25 L 158.75 157.5 L 172.5 133.75 L 175.0 120.0 L 172.5 110.0 L 168.75 105.0 L 167.5 105.0 L 167.5 106.25 L 170.0 113.75 L 177.5 138.75 L 187.5 175.0 L 205.0 220.0 L 223.75 252.5 L 236.25 262.5 L 242.5 265.0 L 242.5 265.0 L 242.5 260.0 L 240.0 250.0 L 233.75 235.0 L 225.0 216.25 L 216.25 197.5 " stroke="black" fill="none" stroke-width="6.0" stroke-linecap="round" stroke-linejoin="round" />
<path d="M 222.5 150.0 L 222.5 150.0 L 222.5 148.75 L 218.75 153.75 L 200.0 183.75 L 170.0 217.5 L 145.0 236.25 L 142.5 238.75 " stroke="black" fill="none" stroke-width="6.0" stroke-linecap="round" stroke-linejoin="round" />
<path d="M 205.0 86.25 L 205.0 86.25 L 210.0 85.0 L 226.25 93.75 L 241.25 115.0 L 247.5 131.25 " stroke="black" fill="none" stroke-width="6.0" stroke-linecap="round" stroke-linejoin="round" />
</svg>