<svg xmlns="http://www.w3.org/2000/svg" width="300" height="300" viewBox="0 0 300 300">
<path d="M 100.0 93.75 L 97.5 93.75 L 93.75 93.75 L 92.5 95.0 L 92.5 95.0 L 102.5 95.0 L 117.5 90.0 L 130.0 85.0 L 133.75 82.5 L 126.25 82.5 L 120.0 82.5 " stroke="black" fill="none" stroke-width="6.0" stroke-linecap="round" stroke-linejoin="round" />
<path d="M 97.5 76.25 L 97.5 76.25 L 97.5 76.25 L 98.75 82.5 L 103.75 97.5 L 106.25 115.0 L 106.25 127.5 L 98.75 133.75 L 88.75 135.0 L 78.75 135.0 L 70.0 135.0 L 68.75 135.0 L 76.25 133.75 L 92.5 130.0 L 113.75 122.5 L 137.5 111.25 L 150.0 105.0 L 148.75 105.0 L 142.5 106.25 " stroke="black" fill="none" stroke-width="6.0" stroke-linecap="round" stroke-linejoin="round" />
<path d="M 93.75 145.0 L 91.25 151.25 L 91.25 165.0 L 91.25 181.25 L 92.5 191.25 L 93.75 191.25 L 93.75 187.5 L 91.25 178.75 L 87.5 171.25 L 83.75 166.25 L 81.25 162.5 L 81.25 158.75 L 91.25 155.0 L 110.0 148.75 L 128.75 145.0 L 133.75 146.25 L 126.25 157.5 L 110.0 172.5 L 96.25 185.0 L 86.25 193.75 L 83.75 195.0 L 87.5 192.5 L 96.25 185.0 L 106.25 176.25 L 111.25 172.5 L 112.5 172.5 L 107.5 187.5 L 102.5 207.5 L 100.0 228.75 L 98.75 245.0 L 98.75 246.25 " stroke="black" fill="none" stroke-width="6.0" stroke-linecap="round" stroke-linejoin="round" />
<path d="M 140.0 173.75 L 141.25 173.75 L 142.5 175.0 L 140.0 187.5 L 130.0 207.5 L 115.0 226.25 L 98.75 238.75 L 91.25 242.5 L 90.0 243.75 L 93.75 243.75 L 106.25 243.75 L 127.5 238.75 L 152.5 227.5 L 171.25 210.0 L 173.75 205.0 " stroke="black" fill="none" stroke-width="6.0" stroke-linecap="round" stroke-linejoin="round" />
<path d="M 167.5 111.25 L 165.0 111.25 L 165.0 111.25 L 177.5 107.5 L 198.75 98.75 L 217.5 90.0 L 228.75 83.75 L 226.25 83.75 L 213.75 85.0 L 203.75 85.0 L 196.25 85.0 L 192.5 85.0 L 191.25 85.0 L 192.5 101.25 L 191.25 135.0 L 185.0 165.0 L 181.25 176.25 L 181.25 175.0 L 185.0 168.75 L 197.5 157.5 L 211.25 146.25 L 222.5 141.25 L 226.25 143.75 L 218.75 165.0 L 203.75 193.75 L 186.25 221.25 L 167.5 240.0 L 155.0 247.5 L 152.5 243.75 " stroke="black" fill="none" stroke-width="6.0" stroke-linecap="round" stroke-linejoin="round" />
<path d="M 163.75 178.75 L 165.0 175.0 L 165.0 172.5 L 166.25 172.5 L 177.5 183.75 L 193.75 203.75 L 211.25 230.0 L 233.75 251.25 L 258.75 261.25 L 277.5 266.25 L 283.75 266.25 " stroke="black" fill="none" stroke-width="6.0" stroke-linecap="round" stroke-linejoin="round" />
</svg>