<svg xmlns="http://www.w3.org/2000/svg" width="300" height="300" viewBox="0 0 300 300">
<path d="M 73.75 107.5 L 72.5 107.5 L 70.0 108.75 L 68.75 108.75 L 76.25 108.75 L 91.25 102.5 L 107.5 95.0 L 116.25 90.0 L 117.5 88.75 L 113.75 90.0 L 108.75 96.25 L 103.75 107.5 L 101.25 126.25 L 101.25 143.75 L 101.25 151.25 L 101.25 152.5 L 101.25 150.0 L 98.75 146.25 L 95.0 145.0 " stroke="black" fill="none" stroke-width="6.0" stroke-linecap="round" stroke-linejoin="round" />
<path d="M 77.5 161.25 L 75.0 163.75 L 71.25 166.25 L 71.25 166.25 L 81.25 165.0 L 95.0 158.75 L 110.0 152.5 L 120.0 147.5 L 123.75 147.5 L 120.0 153.75 L 107.5 166.25 L 95.0 178.75 L 82.5 190.0 L 73.75 195.0 L 71.25 196.25 L 75.0 196.25 L 86.25 190.0 L 100.0 180.0 L 113.75 168.75 L 123.75 162.5 L 125.0 160.0 L 117.5 165.0 L 108.75 171.25 L 101.25 180.0 L 97.5 190.0 L 96.25 205.0 L 96.25 217.5 L 96.25 221.25 L 96.25 221.25 " stroke="black" fill="none" stroke-width="6.0" stroke-linecap="round" stroke-linejoin="round" />
<path d="M 57.5 138.75 L 57.5 137.5 L 56.25 136.25 L 56.25 135.0 L 58.75 146.25 L 61.25 180.0 L 63.75 215.0 L 66.25 235.0 L 71.25 236.25 L 81.25 235.0 L 96.25 228.75 L 112.5 223.75 L 126.25 220.0 L 137.5 220.0 L 142.5 216.25 L 142.5 213.75 " stroke="black" fill="none" stroke-width="6.0" stroke-linecap="round" stroke-linejoin="round" />
<path d="M 155.0 70.0 L 155.0 70.0 L 155.0 70.0 L 155.0 72.5 L 155.0 90.0 L 160.0 106.25 L 171.25 111.25 L 191.25 98.75 L 210.0 81.25 L 215.0 73.75 L 212.5 72.5 L 202.5 83.75 L 187.5 97.5 L 177.5 105.0 " stroke="black" fill="none" stroke-width="6.0" stroke-linecap="round" stroke-linejoin="round" />
<path d="M 147.5 136.25 L 147.5 136.25 L 147.5 136.25 L 150.0 136.25 L 155.0 141.25 L 162.5 151.25 L 167.5 161.25 L 168.75 163.75 L 166.25 161.25 L 160.0 155.0 L 155.0 148.75 L 152.5 142.5 L 155.0 136.25 L 165.0 130.0 L 180.0 127.5 L 193.75 126.25 L 198.75 128.75 L 196.25 136.25 L 186.25 146.25 L 175.0 153.75 L 170.0 156.25 L 171.25 156.25 L 181.25 148.75 L 193.75 140.0 L 200.0 135.0 " stroke="black" fill="none" stroke-width="6.0" stroke-linecap="round" stroke-linejoin="round" />
<path d="M 142.5 190.0 L 141.25 190.0 L 141.25 188.75 L 142.5 193.75 L 146.25 208.75 L 150.0 226.25 L 152.5 235.0 L 152.5 236.25 L 151.25 233.75 L 148.75 228.75 L 146.25 220.0 L 146.25 211.25 L 150.0 202.5 L 158.75 195.0 L 171.25 190.0 L 177.5 190.0 L 178.75 198.75 L 171.25 212.5 L 161.25 225.0 L 155.0 233.75 L 153.75 233.75 L 156.25 226.25 L 161.25 216.25 " stroke="black" fill="none" stroke-width="6.0" stroke-linecap="round" stroke-linejoin="round" />
<path d="M 190.0 185.0 L 190.0 185.0 L 190.0 183.75 L 190.0 187.5 L 192.5 203.75 L 196.25 226.25 L 200.0 240.0 L 202.5 241.25 L 202.5 231.25 L 202.5 218.75 L 201.25 206.25 L 198.75 197.5 L 196.25 191.25 L 195.0 188.75 L 196.25 188.75 L 205.0 187.5 L 216.25 187.5 L 223.75 191.25 L 225.0 202.5 L 216.25 218.75 L 210.0 231.25 L 206.25 237.5 L 208.75 235.0 L 223.75 218.75 L 240.0 198.75 L 247.5 188.75 " stroke="black" fill="none" stroke-width="6.0" stroke-linecap="round" stroke-linejoin="round" />
</svg>