<svg xmlns="http://www.w3.org/2000/svg" width="300" height="300" viewBox="0 0 300 300">
<path d="M 93.75 100.0 L 92.5 101.25 L 91.25 101.25 L 93.75 101.25 L 102.5 103.75 L 113.75 107.5 L 122.5 112.5 L 121.25 121.25 L 110.0 135.0 L 93.75 150.0 L 82.5 161.25 L 78.75 165.0 L 83.75 163.75 L 96.25 157.5 L 110.0 150.0 L 120.0 146.25 L 123.75 146.25 L 118.75 157.5 L 106.25 175.0 L 96.25 188.75 L 91.25 196.25 L 91.25 196.25 L 100.0 188.75 L 112.5 180.0 L 123.75 175.0 L 127.5 176.25 L 123.75 187.5 L 110.0 202.5 L 98.75 215.0 L 90.0 220.0 L 85.0 217.5 L 85.0 215.0 " stroke="black" fill="none" stroke-width="6.0" stroke-linecap="round" stroke-linejoin="round" />
<path d="M 76.25 131.25 L 72.5 131.25 L 68.75 137.5 L 68.75 158.75 L 72.5 190.0 L 77.5 212.5 L 83.75 222.5 L 92.5 225.0 L 102.5 227.5 L 118.75 228.75 L 136.25 227.5 L 147.5 222.5 L 153.75 216.25 " stroke="black" fill="none" stroke-width="6.0" stroke-linecap="round" stroke-linejoin="round" />
<path d="M 167.5 61.25 L 167.5 65.0 L 167.5 72.5 L 175.0 83.75 L 188.75 88.75 L 206.25 83.75 L 218.75 70.0 L 221.25 62.5 L 215.0 63.75 " stroke="black" fill="none" stroke-width="6.0" stroke-linecap="round" stroke-linejoin="round" />
<path d="M 155.0 130.0 L 155.0 130.0 L 156.25 132.5 L 162.5 138.75 L 172.5 147.5 L 178.75 152.5 L 181.25 153.75 L 176.25 152.5 L 168.75 150.0 L 161.25 146.25 L 157.5 142.5 L 157.5 137.5 L 166.25 130.0 L 183.75 122.5 L 200.0 116.25 L 205.0 116.25 L 202.5 122.5 L 192.5 135.0 L 182.5 145.0 L 176.25 150.0 L 176.25 150.0 L 185.0 142.5 L 196.25 133.75 L 202.5 125.0 L 203.75 123.75 " stroke="black" fill="none" stroke-width="6.0" stroke-linecap="round" stroke-linejoin="round" />
<path d="M 153.75 185.0 L 151.25 192.5 L 150.0 201.25 L 156.25 210.0 L 163.75 213.75 L 170.0 215.0 L 171.25 215.0 L 167.5 213.75 L 161.25 211.25 L 156.25 207.5 L 153.75 203.75 L 153.75 198.75 L 158.75 191.25 L 171.25 185.0 L 183.75 181.25 L 190.0 186.25 L 186.25 201.25 L 177.5 215.0 L 172.5 222.5 L 172.5 220.0 L 178.75 207.5 L 187.5 192.5 L 196.25 176.25 L 200.0 166.25 L 201.25 168.75 L 203.75 185.0 L 206.25 202.5 L 210.0 218.75 L 212.5 225.0 L 213.75 222.5 L 213.75 212.5 L 213.75 202.5 L 212.5 195.0 L 210.0 186.25 L 207.5 180.0 L 207.5 175.0 L 212.5 171.25 L 223.75 168.75 L 236.25 170.0 L 240.0 180.0 L 235.0 196.25 L 223.75 212.5 L 217.5 221.25 L 217.5 222.5 L 230.0 215.0 L 250.0 202.5 L 265.0 191.25 L 268.75 186.25 " stroke="black" fill="none" stroke-width="6.0" stroke-linecap="round" stroke-linejoin="round" />
</svg>