<svg xmlns="http://www.w3.org/2000/svg" width="300" height="300" viewBox="0 0 300 300">
<path d="M 103.75 92.5 L 105.0 93.75 L 101.25 101.25 L 88.75 125.0 L 71.25 152.5 L 57.5 173.75 L 47.5 182.5 L 45.0 181.25 " stroke="black" fill="none" stroke-width="6.0" stroke-linecap="round" stroke-linejoin="round" />
<path d="M 86.25 146.25 L 88.75 148.75 L 91.25 160.0 L 92.5 188.75 L 92.5 220.0 L 90.0 245.0 L 87.5 253.75 L 86.25 253.75 " stroke="black" fill="none" stroke-width="6.0" stroke-linecap="round" stroke-linejoin="round" />
<path d="M 115.0 168.75 L 115.0 170.0 L 112.5 172.5 L 113.75 170.0 L 123.75 161.25 L 137.5 151.25 L 145.0 142.5 L 145.0 141.25 " stroke="black" fill="none" stroke-width="6.0" stroke-linecap="round" stroke-linejoin="round" />
<path d="M 108.75 143.75 L 108.75 143.75 L 108.75 143.75 L 108.75 150.0 L 107.5 175.0 L 107.5 202.5 L 108.75 212.5 L 115.0 208.75 L 127.5 195.0 L 142.5 178.75 L 151.25 168.75 " stroke="black" fill="none" stroke-width="6.0" stroke-linecap="round" stroke-linejoin="round" />
<path d="M 153.75 90.0 L 152.5 92.5 L 151.25 92.5 L 152.5 92.5 L 168.75 88.75 L 191.25 83.75 L 207.5 78.75 L 211.25 77.5 L 207.5 78.75 L 198.75 85.0 L 188.75 91.25 L 181.25 96.25 L 175.0 101.25 L 172.5 105.0 L 171.25 108.75 L 170.0 111.25 L 170.0 111.25 L 170.0 112.5 L 170.0 112.5 L 170.0 113.75 L 168.75 116.25 L 168.75 121.25 L 168.75 133.75 L 170.0 160.0 L 172.5 192.5 L 176.25 212.5 L 178.75 213.75 L 181.25 211.25 L 182.5 202.5 L 182.5 196.25 " stroke="black" fill="none" stroke-width="6.0" stroke-linecap="round" stroke-linejoin="round" />
<path d="M 167.5 130.0 L 168.75 128.75 L 168.75 126.25 L 172.5 123.75 L 187.5 118.75 L 207.5 112.5 L 221.25 113.75 L 228.75 133.75 L 228.75 163.75 L 226.25 190.0 L 222.5 202.5 L 220.0 205.0 L 217.5 202.5 L 215.0 200.0 " stroke="black" fill="none" stroke-width="6.0" stroke-linecap="round" stroke-linejoin="round" />
<path d="M 176.25 160.0 L 176.25 160.0 L 175.0 160.0 L 178.75 155.0 L 192.5 146.25 L 210.0 133.75 L 222.5 123.75 L 222.5 122.5 " stroke="black" fill="none" stroke-width="6.0" stroke-linecap="round" stroke-linejoin="round" />
<path d="M 182.5 178.75 L 182.5 183.75 L 182.5 183.75 L 191.25 177.5 L 206.25 162.5 L 218.75 150.0 L 222.5 146.25 " stroke="black" fill="none" stroke-width="6.0" stroke-linecap="round" stroke-linejoin="round" />
<path d="M 178.75 211.25 L 178.75 217.5 L 180.0 217.5 L 191.25 210.0 L 208.75 196.25 L 223.75 183.75 L 228.75 180.0 L 222.5 185.0 L 210.0 200.0 L 198.75 216.25 L 187.5 236.25 L 177.5 248.75 L 175.0 251.25 " stroke="black" fill="none" stroke-width="6.0" stroke-linecap="round" stroke-linejoin="round" />
<path d="M 207.5 210.0 L 211.25 210.0 L 212.5 212.5 L 220.0 220.0 L 235.0 233.75 L 251.25 243.75 L 260.0 248.75 L 261.25 250.0 L 261.25 251.25 L 256.25 252.5 " stroke="black" fill="none" stroke-width="6.0" stroke-linecap="round" stroke-linejoin="round" />
</svg>