<svg xmlns="http://www.w3.org/2000/svg" width="300" height="300" viewBox="0 0 300 300">
<path d="M 83.75 107.5 L 85.0 98.75 L 86.25 92.5 L 88.75 92.5 L 90.0 100.0 L 85.0 125.0 L 76.25 151.25 L 62.5 172.5 L 52.5 183.75 L 50.0 181.25 L 53.75 168.75 " stroke="black" fill="none" stroke-width="6.0" stroke-linecap="round" stroke-linejoin="round" />
<path d="M 81.25 142.5 L 82.5 140.0 L 85.0 140.0 L 88.75 155.0 L 91.25 188.75 L 91.25 218.75 L 87.5 241.25 L 83.75 248.75 L 80.0 248.75 L 77.5 243.75 " stroke="black" fill="none" stroke-width="6.0" stroke-linecap="round" stroke-linejoin="round" />
<path d="M 112.5 168.75 L 107.5 172.5 L 107.5 172.5 L 116.25 168.75 L 130.0 157.5 L 141.25 146.25 L 145.0 140.0 L 140.0 140.0 " stroke="black" fill="none" stroke-width="6.0" stroke-linecap="round" stroke-linejoin="round" />
<path d="M 106.25 140.0 L 106.25 137.5 L 106.25 135.0 L 106.25 138.75 L 110.0 160.0 L 115.0 192.5 L 117.5 210.0 L 121.25 210.0 L 133.75 197.5 L 150.0 173.75 L 161.25 152.5 L 163.75 147.5 " stroke="black" fill="none" stroke-width="6.0" stroke-linecap="round" stroke-linejoin="round" />
<path d="M 175.0 95.0 L 167.5 96.25 L 162.5 97.5 L 162.5 97.5 L 173.75 96.25 L 191.25 91.25 L 206.25 85.0 L 215.0 81.25 L 215.0 80.0 L 206.25 85.0 L 195.0 93.75 L 183.75 103.75 L 175.0 111.25 L 172.5 116.25 L 172.5 116.25 L 173.75 116.25 L 175.0 116.25 L 175.0 116.25 L 175.0 116.25 L 175.0 117.5 L 175.0 118.75 L 175.0 122.5 L 173.75 135.0 L 172.5 166.25 L 173.75 201.25 L 178.75 218.75 L 182.5 221.25 L 183.75 220.0 L 185.0 215.0 L 185.0 207.5 L 181.25 200.0 L 178.75 193.75 " stroke="black" fill="none" stroke-width="6.0" stroke-linecap="round" stroke-linejoin="round" />
<path d="M 166.25 152.5 L 166.25 153.75 L 163.75 153.75 L 163.75 153.75 L 172.5 148.75 L 186.25 140.0 L 200.0 130.0 L 211.25 122.5 L 216.25 123.75 L 218.75 138.75 L 220.0 165.0 L 220.0 195.0 L 220.0 210.0 L 220.0 218.75 L 218.75 221.25 L 216.25 216.25 L 213.75 211.25 " stroke="black" fill="none" stroke-width="6.0" stroke-linecap="round" stroke-linejoin="round" />
<path d="M 188.75 163.75 L 182.5 167.5 L 178.75 168.75 L 178.75 168.75 L 186.25 166.25 L 197.5 158.75 L 205.0 150.0 L 212.5 143.75 L 212.5 141.25 L 207.5 145.0 " stroke="black" fill="none" stroke-width="6.0" stroke-linecap="round" stroke-linejoin="round" />
<path d="M 183.75 190.0 L 181.25 193.75 L 178.75 197.5 L 178.75 197.5 L 182.5 196.25 L 191.25 190.0 L 198.75 182.5 L 206.25 175.0 L 210.0 171.25 L 210.0 171.25 L 208.75 172.5 " stroke="black" fill="none" stroke-width="6.0" stroke-linecap="round" stroke-linejoin="round" />
<path d="M 180.0 218.75 L 176.25 225.0 L 171.25 231.25 L 173.75 231.25 L 182.5 225.0 L 196.25 215.0 L 208.75 203.75 L 217.5 196.25 L 218.75 195.0 L 215.0 200.0 L 205.0 213.75 L 193.75 230.0 L 180.0 246.25 L 172.5 255.0 L 171.25 256.25 L 177.5 248.75 L 185.0 240.0 L 193.75 230.0 L 202.5 221.25 L 206.25 216.25 L 207.5 216.25 L 207.5 216.25 L 207.5 217.5 L 208.75 218.75 L 208.75 220.0 L 210.0 220.0 L 210.0 220.0 L 210.0 220.0 L 210.0 220.0 L 210.0 220.0 L 210.0 220.0 L 210.0 220.0 L 210.0 220.0 L 211.25 222.5 L 216.25 228.75 L 232.5 243.75 L 253.75 257.5 L 265.0 266.25 L 265.0 267.5 " stroke="black" fill="none" stroke-width="6.0" stroke-linecap="round" stroke-linejoin="round" />
</svg>