<svg xmlns="http://www.w3.org/2000/svg" width="300" height="300" viewBox="0 0 300 300">
<path d="M 85.0 95.0 L 85.0 95.0 L 82.5 95.0 L 87.5 95.0 L 112.5 91.25 L 155.0 82.5 L 186.25 73.75 L 202.5 67.5 L 202.5 66.25 L 191.25 68.75 L 172.5 72.5 L 152.5 75.0 L 135.0 75.0 L 118.75 75.0 L 107.5 77.5 L 107.5 81.25 L 113.75 95.0 L 122.5 115.0 L 131.25 125.0 L 133.75 125.0 " stroke="black" fill="none" stroke-width="6.0" stroke-linecap="round" stroke-linejoin="round" />
<path d="M 161.25 65.0 L 160.0 66.25 L 153.75 72.5 L 147.5 92.5 L 136.25 121.25 L 123.75 138.75 " stroke="black" fill="none" stroke-width="6.0" stroke-linecap="round" stroke-linejoin="round" />
<path d="M 91.25 150.0 L 90.0 151.25 L 86.25 160.0 L 81.25 182.5 L 73.75 208.75 L 68.75 220.0 L 67.5 216.25 L 67.5 213.75 " stroke="black" fill="none" stroke-width="6.0" stroke-linecap="round" stroke-linejoin="round" />
<path d="M 87.5 178.75 L 87.5 178.75 L 88.75 178.75 L 91.25 187.5 L 95.0 216.25 L 97.5 246.25 L 97.5 250.0 " stroke="black" fill="none" stroke-width="6.0" stroke-linecap="round" stroke-linejoin="round" />
<path d="M 192.5 130.0 L 190.0 130.0 L 180.0 140.0 L 162.5 162.5 L 146.25 191.25 L 132.5 207.5 L 123.75 207.5 " stroke="black" fill="none" stroke-width="6.0" stroke-linecap="round" stroke-linejoin="round" />
<path d="M 146.25 146.25 L 146.25 146.25 L 143.75 147.5 L 141.25 161.25 L 142.5 192.5 L 153.75 211.25 L 176.25 218.75 L 203.75 218.75 L 222.5 218.75 L 237.5 218.75 L 242.5 218.75 L 242.5 218.75 L 242.5 217.5 L 241.25 213.75 L 241.25 203.75 L 241.25 185.0 L 241.25 145.0 L 241.25 132.5 " stroke="black" fill="none" stroke-width="6.0" stroke-linecap="round" stroke-linejoin="round" />
</svg>