<svg xmlns="http://www.w3.org/2000/svg" width="300" height="300" viewBox="0 0 300 300">
<path d="M 72.5 106.25 L 70.0 107.5 L 66.25 110.0 L 70.0 110.0 L 83.75 106.25 L 103.75 100.0 L 127.5 90.0 L 142.5 81.25 L 143.75 77.5 L 133.75 77.5 L 121.25 80.0 L 118.75 81.25 " stroke="black" fill="none" stroke-width="6.0" stroke-linecap="round" stroke-linejoin="round" />
<path d="M 90.0 91.25 L 88.75 92.5 L 87.5 95.0 L 87.5 103.75 L 88.75 121.25 L 90.0 136.25 L 90.0 138.75 " stroke="black" fill="none" stroke-width="6.0" stroke-linecap="round" stroke-linejoin="round" />
<path d="M 111.25 86.25 L 110.0 87.5 L 110.0 91.25 L 110.0 102.5 L 108.75 122.5 L 101.25 138.75 L 91.25 145.0 L 81.25 146.25 " stroke="black" fill="none" stroke-width="6.0" stroke-linecap="round" stroke-linejoin="round" />
<path d="M 52.5 153.75 L 46.25 155.0 L 45.0 156.25 L 53.75 156.25 L 75.0 153.75 L 100.0 147.5 L 128.75 137.5 L 147.5 128.75 L 150.0 125.0 L 141.25 126.25 L 130.0 132.5 L 116.25 140.0 L 103.75 146.25 L 95.0 157.5 L 91.25 178.75 L 91.25 210.0 L 95.0 242.5 L 98.75 257.5 L 101.25 261.25 L 101.25 261.25 L 100.0 257.5 L 95.0 251.25 L 92.5 245.0 " stroke="black" fill="none" stroke-width="6.0" stroke-linecap="round" stroke-linejoin="round" />
<path d="M 95.0 173.75 L 95.0 172.5 L 97.5 170.0 L 107.5 166.25 L 121.25 170.0 L 135.0 188.75 L 138.75 217.5 L 136.25 240.0 L 133.75 251.25 L 131.25 253.75 L 131.25 252.5 L 128.75 250.0 L 122.5 243.75 L 116.25 235.0 L 113.75 232.5 " stroke="black" fill="none" stroke-width="6.0" stroke-linecap="round" stroke-linejoin="round" />
<path d="M 96.25 201.25 L 95.0 201.25 L 91.25 201.25 L 90.0 201.25 L 93.75 200.0 L 107.5 192.5 L 123.75 182.5 L 132.5 175.0 L 132.5 173.75 " stroke="black" fill="none" stroke-width="6.0" stroke-linecap="round" stroke-linejoin="round" />
<path d="M 98.75 220.0 L 95.0 226.25 L 95.0 226.25 L 107.5 215.0 L 128.75 198.75 L 143.75 182.5 " stroke="black" fill="none" stroke-width="6.0" stroke-linecap="round" stroke-linejoin="round" />
<path d="M 170.0 95.0 L 170.0 93.75 L 170.0 92.5 L 173.75 91.25 L 178.75 98.75 L 182.5 113.75 L 186.25 126.25 L 190.0 130.0 L 200.0 123.75 L 211.25 108.75 L 222.5 95.0 L 228.75 86.25 L 227.5 85.0 " stroke="black" fill="none" stroke-width="6.0" stroke-linecap="round" stroke-linejoin="round" />
<path d="M 197.5 133.75 L 196.25 137.5 L 195.0 146.25 L 195.0 161.25 L 196.25 185.0 L 191.25 206.25 L 181.25 221.25 L 166.25 231.25 L 152.5 235.0 L 147.5 233.75 " stroke="black" fill="none" stroke-width="6.0" stroke-linecap="round" stroke-linejoin="round" />
<path d="M 158.75 163.75 L 158.75 163.75 L 158.75 163.75 L 160.0 167.5 L 172.5 181.25 L 191.25 202.5 L 211.25 225.0 L 230.0 241.25 L 250.0 251.25 L 262.5 257.5 L 270.0 258.75 L 277.5 258.75 " stroke="black" fill="none" stroke-width="6.0" stroke-linecap="round" stroke-linejoin="round" />
</svg>