<svg xmlns="http://www.w3.org/2000/svg" width="300" height="300" viewBox="0 0 300 300">
<path d="M 140.0 153.75 L 140.0 153.75 L 140.0 152.5 L 141.25 150.0 L 145.0 150.0 L 148.75 151.25 L 150.0 157.5 L 150.0 162.5 L 145.0 167.5 L 138.75 168.75 L 132.5 168.75 L 130.0 163.75 L 132.5 156.25 L 138.75 151.25 L 146.25 150.0 L 151.25 152.5 L 153.75 161.25 L 151.25 170.0 L 146.25 176.25 L 141.25 176.25 L 136.25 172.5 L 135.0 162.5 L 136.25 152.5 L 141.25 147.5 L 147.5 147.5 L 152.5 152.5 L 152.5 162.5 L 152.5 172.5 L 147.5 176.25 L 142.5 176.25 L 137.5 168.75 L 135.0 160.0 L 135.0 152.5 L 140.0 150.0 L 145.0 151.25 L 148.75 157.5 L 150.0 165.0 L 150.0 171.25 L 147.5 172.5 L 143.75 171.25 L 142.5 170.0 L 140.0 157.5 L 141.25 152.5 L 143.75 151.25 L 146.25 153.75 L 147.5 160.0 L 147.5 166.25 L 145.0 170.0 L 142.5 170.0 L 141.25 166.25 L 141.25 160.0 L 142.5 155.0 L 143.75 152.5 L 146.25 153.75 L 146.25 157.5 L 146.25 161.25 L 146.25 163.75 L 146.25 163.75 L 147.5 162.5 L 147.5 160.0 L 147.5 157.5 L 147.5 156.25 L 146.25 156.25 L 146.25 158.75 L 146.25 160.0 " stroke="black" fill="none" stroke-width="6.0" stroke-linecap="round" stroke-linejoin="round" />
</svg>