<svg xmlns="http://www.w3.org/2000/svg" width="300" height="300" viewBox="0 0 300 300">
<path d="M 98.75 90.0 L 96.25 85.0 L 96.25 82.5 L 96.25 82.5 L 98.75 92.5 L 101.25 113.75 L 101.25 133.75 L 101.25 142.5 L 98.75 141.25 L 98.75 133.75 " stroke="black" fill="none" stroke-width="6.0" stroke-linecap="round" stroke-linejoin="round" />
<path d="M 97.5 105.0 L 97.5 103.75 L 95.0 102.5 L 95.0 101.25 L 97.5 100.0 L 107.5 98.75 L 121.25 96.25 L 130.0 93.75 L 131.25 92.5 " stroke="black" fill="none" stroke-width="6.0" stroke-linecap="round" stroke-linejoin="round" />
<path d="M 103.75 115.0 L 98.75 121.25 L 98.75 123.75 L 107.5 125.0 L 125.0 120.0 L 141.25 111.25 L 145.0 108.75 " stroke="black" fill="none" stroke-width="6.0" stroke-linecap="round" stroke-linejoin="round" />
<path d="M 165.0 71.25 L 162.5 75.0 L 161.25 85.0 L 157.5 106.25 L 155.0 125.0 L 155.0 130.0 L 153.75 126.25 L 153.75 113.75 L 153.75 102.5 L 155.0 93.75 L 155.0 88.75 L 156.25 86.25 L 162.5 85.0 L 173.75 83.75 L 188.75 80.0 L 200.0 78.75 L 200.0 78.75 " stroke="black" fill="none" stroke-width="6.0" stroke-linecap="round" stroke-linejoin="round" />
<path d="M 163.75 113.75 L 158.75 118.75 L 157.5 120.0 L 168.75 116.25 L 185.0 107.5 L 192.5 103.75 " stroke="black" fill="none" stroke-width="6.0" stroke-linecap="round" stroke-linejoin="round" />
<path d="M 126.25 153.75 L 123.75 155.0 L 123.75 156.25 L 133.75 157.5 L 150.0 157.5 L 170.0 155.0 L 185.0 150.0 L 187.5 148.75 " stroke="black" fill="none" stroke-width="6.0" stroke-linecap="round" stroke-linejoin="round" />
<path d="M 71.25 215.0 L 71.25 215.0 L 70.0 216.25 L 77.5 216.25 L 103.75 212.5 L 147.5 200.0 L 181.25 188.75 L 196.25 182.5 L 198.75 178.75 " stroke="black" fill="none" stroke-width="6.0" stroke-linecap="round" stroke-linejoin="round" />
<path d="M 138.75 176.25 L 138.75 177.5 L 138.75 180.0 L 141.25 191.25 L 141.25 218.75 L 128.75 250.0 L 110.0 268.75 L 90.0 277.5 L 80.0 277.5 " stroke="black" fill="none" stroke-width="6.0" stroke-linecap="round" stroke-linejoin="round" />
<path d="M 147.5 202.5 L 150.0 207.5 L 157.5 220.0 L 177.5 241.25 L 200.0 260.0 L 218.75 272.5 L 233.75 282.5 L 240.0 287.5 L 238.75 291.25 " stroke="black" fill="none" stroke-width="6.0" stroke-linecap="round" stroke-linejoin="round" />
</svg>