<svg xmlns="http://www.w3.org/2000/svg" width="300" height="300" viewBox="0 0 300 300">
<path d="M 102.5 76.25 L 102.5 75.0 L 100.0 73.75 L 98.75 73.75 L 98.75 76.25 L 102.5 88.75 L 103.75 106.25 L 105.0 118.75 L 103.75 120.0 " stroke="black" fill="none" stroke-width="6.0" stroke-linecap="round" stroke-linejoin="round" />
<path d="M 102.5 91.25 L 101.25 91.25 L 100.0 91.25 L 105.0 88.75 L 116.25 85.0 L 128.75 80.0 L 135.0 78.75 L 135.0 78.75 " stroke="black" fill="none" stroke-width="6.0" stroke-linecap="round" stroke-linejoin="round" />
<path d="M 103.75 107.5 L 101.25 112.5 L 102.5 115.0 L 115.0 112.5 L 131.25 106.25 L 147.5 96.25 L 151.25 91.25 " stroke="black" fill="none" stroke-width="6.0" stroke-linecap="round" stroke-linejoin="round" />
<path d="M 165.0 55.0 L 163.75 61.25 L 162.5 68.75 L 162.5 82.5 L 162.5 96.25 L 161.25 102.5 L 158.75 102.5 " stroke="black" fill="none" stroke-width="6.0" stroke-linecap="round" stroke-linejoin="round" />
<path d="M 163.75 71.25 L 163.75 71.25 L 162.5 70.0 L 163.75 67.5 L 173.75 62.5 L 187.5 58.75 L 198.75 55.0 L 201.25 53.75 " stroke="black" fill="none" stroke-width="6.0" stroke-linecap="round" stroke-linejoin="round" />
<path d="M 163.75 86.25 L 161.25 90.0 L 160.0 92.5 L 168.75 92.5 L 182.5 88.75 L 197.5 82.5 L 200.0 81.25 " stroke="black" fill="none" stroke-width="6.0" stroke-linecap="round" stroke-linejoin="round" />
<path d="M 132.5 131.25 L 131.25 135.0 L 136.25 137.5 L 148.75 137.5 L 163.75 132.5 L 178.75 127.5 L 185.0 123.75 " stroke="black" fill="none" stroke-width="6.0" stroke-linecap="round" stroke-linejoin="round" />
<path d="M 87.5 186.25 L 87.5 187.5 L 96.25 187.5 L 128.75 176.25 L 167.5 160.0 L 196.25 148.75 L 205.0 140.0 L 205.0 137.5 " stroke="black" fill="none" stroke-width="6.0" stroke-linecap="round" stroke-linejoin="round" />
<path d="M 148.75 138.75 L 148.75 143.75 L 150.0 151.25 L 151.25 171.25 L 146.25 201.25 L 133.75 225.0 L 117.5 235.0 L 100.0 235.0 L 97.5 233.75 " stroke="black" fill="none" stroke-width="6.0" stroke-linecap="round" stroke-linejoin="round" />
<path d="M 148.75 166.25 L 151.25 166.25 L 158.75 170.0 L 173.75 182.5 L 192.5 202.5 L 207.5 225.0 L 221.25 241.25 L 233.75 248.75 L 240.0 250.0 L 240.0 251.25 L 240.0 251.25 " stroke="black" fill="none" stroke-width="6.0" stroke-linecap="round" stroke-linejoin="round" />
</svg>