<svg xmlns="http://www.w3.org/2000/svg" width="300" height="300" viewBox="0 0 300 300">
<path d="M 102.5 77.5 L 101.25 71.25 L 100.0 70.0 L 102.5 72.5 L 110.0 90.0 L 116.25 116.25 L 120.0 138.75 L 120.0 147.5 L 118.75 147.5 " stroke="black" fill="none" stroke-width="6.0" stroke-linecap="round" stroke-linejoin="round" />
<path d="M 107.5 93.75 L 107.5 92.5 L 111.25 88.75 L 126.25 83.75 L 151.25 76.25 L 173.75 73.75 L 183.75 76.25 L 182.5 86.25 L 171.25 100.0 L 156.25 113.75 L 143.75 123.75 L 133.75 127.5 " stroke="black" fill="none" stroke-width="6.0" stroke-linecap="round" stroke-linejoin="round" />
<path d="M 113.75 113.75 L 113.75 113.75 L 115.0 113.75 L 125.0 108.75 L 143.75 98.75 L 160.0 88.75 L 167.5 83.75 L 163.75 85.0 " stroke="black" fill="none" stroke-width="6.0" stroke-linecap="round" stroke-linejoin="round" />
<path d="M 122.5 142.5 L 122.5 142.5 L 122.5 142.5 L 132.5 138.75 L 155.0 121.25 L 173.75 105.0 L 177.5 100.0 L 172.5 101.25 " stroke="black" fill="none" stroke-width="6.0" stroke-linecap="round" stroke-linejoin="round" />
<path d="M 87.5 157.5 L 87.5 157.5 L 87.5 155.0 L 90.0 153.75 L 93.75 158.75 L 98.75 176.25 L 105.0 191.25 L 117.5 196.25 L 141.25 187.5 L 166.25 167.5 L 190.0 151.25 L 201.25 143.75 L 201.25 142.5 L 197.5 142.5 L 186.25 146.25 L 172.5 151.25 L 161.25 152.5 L 151.25 152.5 L 147.5 147.5 L 148.75 141.25 L 150.0 136.25 L 151.25 135.0 L 152.5 143.75 L 155.0 172.5 L 156.25 208.75 L 156.25 235.0 L 155.0 246.25 L 150.0 247.5 L 148.75 247.5 " stroke="black" fill="none" stroke-width="6.0" stroke-linecap="round" stroke-linejoin="round" />
<path d="M 125.0 228.75 L 125.0 228.75 L 126.25 228.75 L 136.25 226.25 L 157.5 216.25 L 181.25 207.5 L 191.25 203.75 L 187.5 205.0 L 185.0 206.25 " stroke="black" fill="none" stroke-width="6.0" stroke-linecap="round" stroke-linejoin="round" />
<path d="M 136.25 256.25 L 136.25 257.5 L 137.5 257.5 L 153.75 256.25 L 185.0 251.25 L 211.25 246.25 L 225.0 241.25 L 228.75 241.25 L 226.25 242.5 L 217.5 246.25 " stroke="black" fill="none" stroke-width="6.0" stroke-linecap="round" stroke-linejoin="round" />
</svg>