<svg xmlns="http://www.w3.org/2000/svg" width="300" height="300" viewBox="0 0 300 300">
<path d="M 136.25 83.75 L 135.0 83.75 L 133.75 82.5 L 131.25 82.5 L 126.25 86.25 L 113.75 102.5 L 101.25 118.75 " stroke="black" fill="none" stroke-width="6.0" stroke-linecap="round" stroke-linejoin="round" />
<path d="M 126.25 93.75 L 126.25 93.75 L 128.75 93.75 L 140.0 90.0 L 158.75 87.5 L 172.5 87.5 L 175.0 91.25 L 166.25 102.5 L 148.75 117.5 L 128.75 133.75 L 118.75 140.0 " stroke="black" fill="none" stroke-width="6.0" stroke-linecap="round" stroke-linejoin="round" />
<path d="M 98.75 146.25 L 98.75 147.5 L 95.0 150.0 L 95.0 151.25 L 107.5 150.0 L 131.25 143.75 L 158.75 135.0 L 182.5 128.75 L 190.0 128.75 L 186.25 137.5 L 172.5 153.75 L 158.75 168.75 L 146.25 182.5 L 136.25 188.75 L 132.5 188.75 " stroke="black" fill="none" stroke-width="6.0" stroke-linecap="round" stroke-linejoin="round" />
<path d="M 135.0 146.25 L 132.5 146.25 L 130.0 146.25 L 128.75 151.25 L 126.25 166.25 L 123.75 185.0 L 118.75 193.75 L 115.0 193.75 L 112.5 192.5 L 112.5 190.0 L 112.5 190.0 L 112.5 188.75 L 121.25 186.25 L 133.75 180.0 L 147.5 171.25 L 155.0 163.75 L 155.0 162.5 " stroke="black" fill="none" stroke-width="6.0" stroke-linecap="round" stroke-linejoin="round" />
<path d="M 102.5 146.25 L 98.75 147.5 L 95.0 151.25 L 93.75 167.5 L 95.0 193.75 L 102.5 216.25 L 117.5 230.0 L 140.0 236.25 L 166.25 236.25 L 196.25 230.0 L 218.75 225.0 L 238.75 221.25 L 251.25 220.0 L 253.75 220.0 L 253.75 220.0 L 253.75 218.75 L 252.5 213.75 L 250.0 200.0 L 245.0 172.5 L 237.5 137.5 " stroke="black" fill="none" stroke-width="6.0" stroke-linecap="round" stroke-linejoin="round" />
</svg>