<svg xmlns="http://www.w3.org/2000/svg" width="300" height="300" viewBox="0 0 300 300">
<path d="M 123.75 77.5 L 123.75 77.5 L 123.75 77.5 L 122.5 81.25 L 120.0 92.5 L 116.25 101.25 L 116.25 105.0 L 120.0 103.75 L 132.5 98.75 L 145.0 93.75 L 156.25 91.25 L 163.75 91.25 L 165.0 93.75 L 160.0 101.25 L 150.0 111.25 L 138.75 121.25 L 123.75 130.0 " stroke="black" fill="none" stroke-width="6.0" stroke-linecap="round" stroke-linejoin="round" />
<path d="M 86.25 148.75 L 85.0 148.75 L 83.75 148.75 L 91.25 146.25 L 112.5 140.0 L 148.75 132.5 L 181.25 127.5 L 198.75 126.25 L 202.5 130.0 L 198.75 136.25 L 185.0 146.25 L 166.25 156.25 L 150.0 165.0 L 137.5 170.0 " stroke="black" fill="none" stroke-width="6.0" stroke-linecap="round" stroke-linejoin="round" />
<path d="M 143.75 133.75 L 142.5 133.75 L 141.25 133.75 L 137.5 145.0 L 131.25 167.5 L 123.75 187.5 L 115.0 196.25 L 110.0 195.0 L 108.75 192.5 L 111.25 190.0 L 120.0 183.75 L 133.75 177.5 L 148.75 170.0 L 158.75 163.75 L 158.75 162.5 " stroke="black" fill="none" stroke-width="6.0" stroke-linecap="round" stroke-linejoin="round" />
<path d="M 86.25 153.75 L 85.0 156.25 L 83.75 170.0 L 86.25 197.5 L 88.75 220.0 L 98.75 237.5 L 120.0 243.75 L 145.0 243.75 L 170.0 241.25 L 193.75 238.75 L 211.25 238.75 L 225.0 236.25 L 233.75 233.75 L 236.25 232.5 L 237.5 231.25 L 237.5 227.5 L 240.0 221.25 L 242.5 210.0 L 242.5 193.75 L 242.5 165.0 L 237.5 128.75 " stroke="black" fill="none" stroke-width="6.0" stroke-linecap="round" stroke-linejoin="round" />
</svg>