<svg xmlns="http://www.w3.org/2000/svg" width="300" height="300" viewBox="0 0 300 300">
<path d="M 80.0 132.5 L 77.5 131.25 L 77.5 131.25 L 77.5 143.75 L 80.0 180.0 L 80.0 212.5 L 78.75 225.0 L 77.5 226.25 L 76.25 222.5 " stroke="black" fill="none" stroke-width="6.0" stroke-linecap="round" stroke-linejoin="round" />
<path d="M 81.25 135.0 L 81.25 135.0 L 80.0 132.5 L 81.25 128.75 L 87.5 123.75 L 93.75 120.0 L 98.75 118.75 L 102.5 126.25 L 105.0 146.25 L 106.25 177.5 L 108.75 206.25 L 111.25 218.75 L 112.5 225.0 L 112.5 227.5 L 108.75 226.25 L 105.0 221.25 " stroke="black" fill="none" stroke-width="6.0" stroke-linecap="round" stroke-linejoin="round" />
<path d="M 80.0 178.75 L 77.5 178.75 L 78.75 177.5 L 86.25 170.0 L 97.5 161.25 L 103.75 155.0 L 105.0 153.75 " stroke="black" fill="none" stroke-width="6.0" stroke-linecap="round" stroke-linejoin="round" />
<path d="M 87.5 200.0 L 86.25 201.25 L 83.75 205.0 L 88.75 205.0 L 96.25 198.75 L 105.0 190.0 L 106.25 186.25 L 106.25 185.0 " stroke="black" fill="none" stroke-width="6.0" stroke-linecap="round" stroke-linejoin="round" />
<path d="M 88.75 226.25 L 88.75 227.5 L 91.25 226.25 L 103.75 216.25 L 111.25 208.75 " stroke="black" fill="none" stroke-width="6.0" stroke-linecap="round" stroke-linejoin="round" />
<path d="M 147.5 108.75 L 142.5 110.0 L 141.25 110.0 L 152.5 108.75 L 166.25 103.75 L 180.0 97.5 L 190.0 91.25 L 193.75 88.75 L 193.75 88.75 L 190.0 90.0 L 185.0 97.5 L 180.0 113.75 L 175.0 138.75 L 173.75 156.25 L 173.75 163.75 L 176.25 163.75 L 178.75 161.25 L 185.0 156.25 L 193.75 147.5 L 200.0 138.75 L 202.5 133.75 L 201.25 133.75 L 197.5 135.0 " stroke="black" fill="none" stroke-width="6.0" stroke-linecap="round" stroke-linejoin="round" />
<path d="M 146.25 143.75 L 143.75 143.75 L 142.5 145.0 L 142.5 151.25 L 145.0 167.5 L 146.25 181.25 L 150.0 188.75 L 157.5 190.0 L 172.5 185.0 L 191.25 175.0 L 207.5 162.5 L 218.75 153.75 L 225.0 150.0 L 227.5 150.0 L 227.5 150.0 L 227.5 155.0 L 225.0 167.5 L 222.5 187.5 L 221.25 208.75 L 218.75 230.0 L 218.75 246.25 L 217.5 252.5 L 217.5 255.0 L 217.5 255.0 L 216.25 255.0 L 213.75 255.0 L 207.5 253.75 L 198.75 251.25 L 185.0 250.0 L 165.0 246.25 L 148.75 243.75 " stroke="black" fill="none" stroke-width="6.0" stroke-linecap="round" stroke-linejoin="round" />
</svg>