<svg xmlns="http://www.w3.org/2000/svg" width="300" height="300" viewBox="0 0 300 300">
<path d="M 66.25 78.75 L 66.25 81.25 L 68.75 81.25 L 82.5 81.25 L 98.75 75.0 L 112.5 68.75 L 118.75 63.75 L 111.25 65.0 L 106.25 67.5 " stroke="black" fill="none" stroke-width="6.0" stroke-linecap="round" stroke-linejoin="round" />
<path d="M 86.25 92.5 L 85.0 101.25 L 82.5 127.5 L 82.5 157.5 L 82.5 172.5 L 83.75 173.75 L 83.75 171.25 " stroke="black" fill="none" stroke-width="6.0" stroke-linecap="round" stroke-linejoin="round" />
<path d="M 83.75 102.5 L 82.5 102.5 L 82.5 102.5 L 88.75 100.0 L 101.25 96.25 L 112.5 95.0 L 117.5 96.25 L 115.0 101.25 L 105.0 108.75 L 93.75 116.25 L 86.25 121.25 L 82.5 122.5 L 83.75 122.5 L 93.75 118.75 L 106.25 113.75 L 118.75 108.75 L 126.25 106.25 L 123.75 108.75 L 111.25 120.0 L 98.75 131.25 L 90.0 140.0 L 83.75 146.25 L 82.5 147.5 L 87.5 146.25 L 98.75 140.0 L 113.75 130.0 L 126.25 120.0 L 131.25 117.5 " stroke="black" fill="none" stroke-width="6.0" stroke-linecap="round" stroke-linejoin="round" />
<path d="M 85.0 168.75 L 83.75 170.0 L 82.5 170.0 L 88.75 166.25 L 102.5 157.5 L 121.25 148.75 L 130.0 145.0 L 126.25 148.75 L 112.5 161.25 L 96.25 176.25 L 81.25 191.25 L 73.75 195.0 " stroke="black" fill="none" stroke-width="6.0" stroke-linecap="round" stroke-linejoin="round" />
<path d="M 101.25 168.75 L 101.25 170.0 L 98.75 173.75 L 98.75 183.75 L 100.0 201.25 L 101.25 215.0 L 101.25 218.75 L 101.25 218.75 L 103.75 212.5 L 108.75 203.75 L 116.25 193.75 L 125.0 182.5 L 130.0 172.5 L 127.5 170.0 " stroke="black" fill="none" stroke-width="6.0" stroke-linecap="round" stroke-linejoin="round" />
<path d="M 67.5 190.0 L 67.5 192.5 L 67.5 198.75 L 72.5 213.75 L 80.0 235.0 L 86.25 243.75 L 98.75 243.75 L 116.25 230.0 L 133.75 213.75 L 146.25 198.75 L 148.75 195.0 " stroke="black" fill="none" stroke-width="6.0" stroke-linecap="round" stroke-linejoin="round" />
<path d="M 173.75 76.25 L 172.5 77.5 L 166.25 80.0 L 166.25 80.0 L 176.25 81.25 L 193.75 82.5 L 208.75 83.75 L 218.75 83.75 L 218.75 86.25 L 208.75 92.5 L 192.5 101.25 L 175.0 108.75 L 161.25 113.75 L 156.25 115.0 L 160.0 113.75 L 172.5 110.0 L 188.75 105.0 L 203.75 100.0 L 213.75 96.25 L 215.0 96.25 L 206.25 102.5 L 192.5 113.75 L 175.0 127.5 L 162.5 136.25 L 162.5 137.5 L 177.5 132.5 L 197.5 121.25 L 211.25 110.0 L 218.75 103.75 L 211.25 105.0 " stroke="black" fill="none" stroke-width="6.0" stroke-linecap="round" stroke-linejoin="round" />
<path d="M 156.25 147.5 L 152.5 153.75 L 152.5 162.5 L 158.75 178.75 L 167.5 191.25 L 173.75 192.5 L 173.75 190.0 L 168.75 185.0 L 163.75 177.5 L 157.5 171.25 L 152.5 165.0 L 150.0 160.0 L 153.75 157.5 L 172.5 152.5 L 200.0 146.25 L 226.25 140.0 L 240.0 137.5 L 236.25 138.75 L 221.25 150.0 L 203.75 162.5 L 186.25 175.0 L 161.25 188.75 L 145.0 198.75 L 143.75 203.75 L 143.75 208.75 L 148.75 215.0 L 157.5 222.5 L 167.5 228.75 L 175.0 231.25 L 177.5 232.5 L 177.5 231.25 L 171.25 231.25 L 161.25 230.0 L 153.75 228.75 L 152.5 225.0 L 161.25 215.0 L 185.0 201.25 L 216.25 186.25 L 242.5 177.5 L 252.5 177.5 L 251.25 185.0 L 237.5 197.5 L 221.25 208.75 L 205.0 216.25 L 197.5 217.5 L 197.5 216.25 " stroke="black" fill="none" stroke-width="6.0" stroke-linecap="round" stroke-linejoin="round" />
<path d="M 201.25 158.75 L 198.75 155.0 L 197.5 153.75 L 197.5 153.75 L 201.25 170.0 L 203.75 206.25 L 202.5 246.25 L 200.0 267.5 L 198.75 271.25 L 193.75 272.5 " stroke="black" fill="none" stroke-width="6.0" stroke-linecap="round" stroke-linejoin="round" />
</svg>