<svg xmlns="http://www.w3.org/2000/svg" width="300" height="300" viewBox="0 0 300 300">
<path d="M 76.25 78.75 L 72.5 78.75 L 68.75 77.5 L 68.75 77.5 L 75.0 77.5 L 87.5 75.0 L 97.5 71.25 L 105.0 68.75 L 106.25 67.5 " stroke="black" fill="none" stroke-width="6.0" stroke-linecap="round" stroke-linejoin="round" />
<path d="M 82.5 91.25 L 81.25 93.75 L 77.5 102.5 L 77.5 120.0 L 80.0 143.75 L 82.5 156.25 L 82.5 158.75 L 82.5 156.25 " stroke="black" fill="none" stroke-width="6.0" stroke-linecap="round" stroke-linejoin="round" />
<path d="M 85.0 100.0 L 83.75 101.25 L 80.0 102.5 L 80.0 102.5 L 85.0 102.5 L 93.75 101.25 L 103.75 100.0 L 108.75 98.75 L 107.5 102.5 L 98.75 112.5 L 88.75 121.25 L 78.75 130.0 L 75.0 132.5 L 76.25 132.5 L 85.0 130.0 L 96.25 123.75 L 106.25 117.5 L 111.25 115.0 L 111.25 117.5 L 103.75 127.5 L 95.0 136.25 L 86.25 143.75 L 82.5 146.25 L 81.25 147.5 L 86.25 146.25 L 95.0 142.5 L 105.0 137.5 L 113.75 135.0 L 117.5 135.0 L 113.75 142.5 L 100.0 160.0 L 83.75 177.5 L 80.0 181.25 " stroke="black" fill="none" stroke-width="6.0" stroke-linecap="round" stroke-linejoin="round" />
<path d="M 101.25 178.75 L 103.75 173.75 L 103.75 172.5 L 103.75 175.0 L 103.75 191.25 L 103.75 213.75 L 102.5 230.0 L 102.5 231.25 L 102.5 225.0 L 103.75 213.75 L 106.25 205.0 L 108.75 198.75 L 112.5 193.75 L 115.0 190.0 L 117.5 187.5 L 115.0 186.25 L 113.75 186.25 " stroke="black" fill="none" stroke-width="6.0" stroke-linecap="round" stroke-linejoin="round" />
<path d="M 71.25 202.5 L 66.25 202.5 L 63.75 203.75 L 63.75 206.25 L 71.25 227.5 L 77.5 243.75 L 85.0 248.75 L 96.25 242.5 L 113.75 226.25 L 133.75 210.0 L 147.5 201.25 L 150.0 198.75 " stroke="black" fill="none" stroke-width="6.0" stroke-linecap="round" stroke-linejoin="round" />
<path d="M 167.5 68.75 L 163.75 70.0 L 158.75 70.0 L 157.5 71.25 L 166.25 72.5 L 181.25 73.75 L 196.25 73.75 L 205.0 73.75 L 206.25 73.75 L 197.5 81.25 L 182.5 90.0 L 166.25 98.75 L 152.5 106.25 L 148.75 107.5 L 151.25 107.5 L 161.25 102.5 L 175.0 96.25 L 188.75 90.0 L 201.25 86.25 L 203.75 86.25 L 197.5 95.0 L 182.5 107.5 L 163.75 118.75 L 152.5 126.25 L 150.0 128.75 L 158.75 125.0 L 175.0 115.0 L 190.0 105.0 L 198.75 96.25 L 198.75 95.0 L 196.25 95.0 " stroke="black" fill="none" stroke-width="6.0" stroke-linecap="round" stroke-linejoin="round" />
<path d="M 145.0 132.5 L 142.5 132.5 L 140.0 132.5 L 141.25 135.0 L 145.0 146.25 L 147.5 167.5 L 148.75 185.0 L 147.5 190.0 L 146.25 190.0 " stroke="black" fill="none" stroke-width="6.0" stroke-linecap="round" stroke-linejoin="round" />
<path d="M 150.0 150.0 L 150.0 147.5 L 148.75 145.0 L 148.75 142.5 L 158.75 141.25 L 181.25 135.0 L 208.75 125.0 L 226.25 118.75 L 228.75 118.75 L 220.0 127.5 L 206.25 143.75 L 191.25 156.25 L 172.5 171.25 L 153.75 185.0 L 147.5 190.0 L 147.5 191.25 L 151.25 197.5 L 157.5 208.75 L 165.0 222.5 L 171.25 232.5 L 173.75 235.0 L 173.75 235.0 L 172.5 233.75 L 170.0 227.5 L 165.0 221.25 L 158.75 216.25 L 155.0 212.5 L 152.5 210.0 L 153.75 208.75 L 166.25 203.75 L 186.25 195.0 L 212.5 181.25 L 236.25 171.25 L 248.75 170.0 L 247.5 176.25 L 236.25 190.0 L 221.25 205.0 L 205.0 216.25 L 196.25 220.0 " stroke="black" fill="none" stroke-width="6.0" stroke-linecap="round" stroke-linejoin="round" />
<path d="M 197.5 145.0 L 196.25 145.0 L 195.0 141.25 L 195.0 141.25 L 195.0 141.25 L 195.0 143.75 L 195.0 153.75 L 196.25 178.75 L 197.5 222.5 L 197.5 265.0 L 196.25 285.0 L 192.5 298.75 L 190.0 300.0 " stroke="black" fill="none" stroke-width="6.0" stroke-linecap="round" stroke-linejoin="round" />
</svg>