<svg xmlns="http://www.w3.org/2000/svg" width="300" height="300" viewBox="0 0 300 300">
<path d="M 108.75 100.0 L 108.75 100.0 L 108.75 101.25 L 111.25 101.25 L 127.5 100.0 L 148.75 98.75 L 166.25 97.5 L 170.0 98.75 L 161.25 105.0 L 147.5 113.75 L 120.0 132.5 L 98.75 142.5 L 86.25 147.5 L 81.25 147.5 L 81.25 146.25 L 83.75 143.75 L 86.25 143.75 L 86.25 147.5 L 86.25 156.25 L 87.5 183.75 L 91.25 222.5 L 96.25 247.5 L 98.75 250.0 L 98.75 248.75 " stroke="black" fill="none" stroke-width="6.0" stroke-linecap="round" stroke-linejoin="round" />
<path d="M 91.25 151.25 L 90.0 151.25 L 90.0 151.25 L 102.5 147.5 L 133.75 142.5 L 173.75 136.25 L 205.0 133.75 L 217.5 143.75 L 221.25 168.75 L 215.0 202.5 L 205.0 223.75 L 197.5 240.0 L 191.25 245.0 L 183.75 245.0 L 175.0 242.5 L 170.0 238.75 " stroke="black" fill="none" stroke-width="6.0" stroke-linecap="round" stroke-linejoin="round" />
<path d="M 117.5 147.5 L 116.25 147.5 L 115.0 148.75 L 113.75 163.75 L 117.5 197.5 L 120.0 226.25 L 118.75 235.0 " stroke="black" fill="none" stroke-width="6.0" stroke-linecap="round" stroke-linejoin="round" />
<path d="M 157.5 143.75 L 158.75 143.75 L 160.0 152.5 L 160.0 176.25 L 156.25 203.75 L 150.0 222.5 L 145.0 226.25 " stroke="black" fill="none" stroke-width="6.0" stroke-linecap="round" stroke-linejoin="round" />
<path d="M 122.5 181.25 L 120.0 180.0 L 118.75 177.5 L 126.25 175.0 L 141.25 170.0 L 158.75 163.75 L 171.25 158.75 L 172.5 158.75 " stroke="black" fill="none" stroke-width="6.0" stroke-linecap="round" stroke-linejoin="round" />
<path d="M 126.25 195.0 L 125.0 195.0 L 122.5 196.25 L 122.5 196.25 L 133.75 196.25 L 147.5 192.5 L 160.0 188.75 L 161.25 188.75 " stroke="black" fill="none" stroke-width="6.0" stroke-linecap="round" stroke-linejoin="round" />
<path d="M 100.0 256.25 L 97.5 256.25 L 96.25 255.0 L 101.25 252.5 L 121.25 246.25 L 150.0 240.0 L 175.0 237.5 L 192.5 237.5 L 198.75 238.75 L 198.75 242.5 L 198.75 243.75 " stroke="black" fill="none" stroke-width="6.0" stroke-linecap="round" stroke-linejoin="round" />
</svg>