<svg xmlns="http://www.w3.org/2000/svg" width="300" height="300" viewBox="0 0 300 300">
<path d="M 68.75 96.25 L 68.75 98.75 L 66.25 100.0 L 68.75 100.0 L 80.0 93.75 L 97.5 83.75 L 113.75 72.5 L 123.75 65.0 L 126.25 61.25 L 123.75 61.25 L 116.25 61.25 L 110.0 63.75 L 105.0 67.5 L 101.25 72.5 L 101.25 82.5 L 101.25 98.75 L 102.5 116.25 L 100.0 128.75 L 97.5 132.5 " stroke="black" fill="none" stroke-width="6.0" stroke-linecap="round" stroke-linejoin="round" />
<path d="M 55.0 142.5 L 55.0 142.5 L 55.0 141.25 L 55.0 141.25 L 55.0 141.25 L 60.0 150.0 L 70.0 167.5 L 80.0 182.5 L 83.75 188.75 L 85.0 188.75 L 82.5 186.25 L 77.5 182.5 L 72.5 178.75 L 67.5 173.75 L 63.75 167.5 L 62.5 162.5 L 67.5 155.0 L 81.25 147.5 L 101.25 137.5 L 123.75 130.0 L 135.0 130.0 L 135.0 137.5 L 123.75 152.5 L 111.25 167.5 L 100.0 178.75 L 92.5 185.0 L 88.75 185.0 L 87.5 183.75 " stroke="black" fill="none" stroke-width="6.0" stroke-linecap="round" stroke-linejoin="round" />
<path d="M 82.5 176.25 L 82.5 176.25 L 80.0 173.75 L 78.75 172.5 L 80.0 168.75 L 90.0 160.0 L 106.25 148.75 L 117.5 140.0 L 121.25 138.75 L 113.75 145.0 L 111.25 147.5 " stroke="black" fill="none" stroke-width="6.0" stroke-linecap="round" stroke-linejoin="round" />
<path d="M 90.0 182.5 L 88.75 185.0 L 83.75 190.0 L 82.5 191.25 L 88.75 185.0 L 98.75 173.75 L 108.75 162.5 L 116.25 155.0 L 115.0 156.25 L 108.75 163.75 " stroke="black" fill="none" stroke-width="6.0" stroke-linecap="round" stroke-linejoin="round" />
<path d="M 62.5 226.25 L 60.0 232.5 L 57.5 237.5 L 63.75 233.75 L 81.25 220.0 L 103.75 201.25 L 126.25 185.0 L 137.5 175.0 L 138.75 172.5 L 132.5 171.25 L 122.5 175.0 L 112.5 178.75 L 105.0 181.25 L 101.25 181.25 L 100.0 181.25 L 101.25 183.75 L 105.0 198.75 L 108.75 227.5 L 110.0 255.0 L 108.75 267.5 L 103.75 268.75 L 100.0 265.0 " stroke="black" fill="none" stroke-width="6.0" stroke-linecap="round" stroke-linejoin="round" />
<path d="M 165.0 113.75 L 165.0 110.0 L 163.75 107.5 L 162.5 106.25 L 162.5 116.25 L 163.75 146.25 L 165.0 183.75 L 166.25 207.5 L 166.25 217.5 L 165.0 218.75 L 165.0 218.75 " stroke="black" fill="none" stroke-width="6.0" stroke-linecap="round" stroke-linejoin="round" />
<path d="M 162.5 121.25 L 162.5 115.0 L 167.5 106.25 L 180.0 98.75 L 196.25 90.0 L 211.25 86.25 L 221.25 88.75 L 227.5 106.25 L 230.0 141.25 L 231.25 182.5 L 233.75 218.75 L 235.0 245.0 L 237.5 255.0 L 237.5 257.5 L 236.25 257.5 L 230.0 253.75 L 220.0 245.0 L 208.75 230.0 L 197.5 208.75 L 188.75 190.0 L 186.25 186.25 " stroke="black" fill="none" stroke-width="6.0" stroke-linecap="round" stroke-linejoin="round" />
<path d="M 168.75 167.5 L 168.75 167.5 L 162.5 168.75 L 161.25 168.75 L 171.25 162.5 L 190.0 150.0 L 207.5 136.25 L 217.5 126.25 L 217.5 125.0 " stroke="black" fill="none" stroke-width="6.0" stroke-linecap="round" stroke-linejoin="round" />
<path d="M 180.0 190.0 L 173.75 195.0 L 173.75 197.5 L 187.5 192.5 L 207.5 176.25 L 227.5 155.0 L 235.0 146.25 " stroke="black" fill="none" stroke-width="6.0" stroke-linecap="round" stroke-linejoin="round" />
</svg>