<svg xmlns="http://www.w3.org/2000/svg" width="300" height="300" viewBox="0 0 300 300">
<path d="M 95.0 121.25 L 95.0 122.5 L 95.0 123.75 L 101.25 118.75 L 115.0 108.75 L 127.5 97.5 L 133.75 88.75 L 131.25 87.5 " stroke="black" fill="none" stroke-width="6.0" stroke-linecap="round" stroke-linejoin="round" />
<path d="M 83.75 90.0 L 81.25 90.0 L 80.0 90.0 L 78.75 95.0 L 82.5 116.25 L 88.75 143.75 L 92.5 158.75 L 96.25 160.0 L 105.0 152.5 L 117.5 141.25 L 130.0 128.75 L 142.5 115.0 L 143.75 111.25 " stroke="black" fill="none" stroke-width="6.0" stroke-linecap="round" stroke-linejoin="round" />
<path d="M 167.5 103.75 L 166.25 105.0 L 162.5 108.75 L 163.75 108.75 L 172.5 102.5 L 185.0 92.5 L 195.0 81.25 L 197.5 73.75 " stroke="black" fill="none" stroke-width="6.0" stroke-linecap="round" stroke-linejoin="round" />
<path d="M 158.75 72.5 L 156.25 72.5 L 153.75 73.75 L 152.5 83.75 L 156.25 108.75 L 166.25 137.5 L 181.25 148.75 L 201.25 145.0 L 218.75 132.5 L 233.75 116.25 L 240.0 102.5 L 240.0 98.75 " stroke="black" fill="none" stroke-width="6.0" stroke-linecap="round" stroke-linejoin="round" />
<path d="M 106.25 185.0 L 102.5 187.5 L 102.5 187.5 L 117.5 183.75 L 140.0 176.25 L 161.25 165.0 L 173.75 156.25 L 175.0 153.75 L 165.0 153.75 " stroke="black" fill="none" stroke-width="6.0" stroke-linecap="round" stroke-linejoin="round" />
<path d="M 133.75 188.75 L 131.25 200.0 L 130.0 220.0 L 132.5 247.5 L 136.25 261.25 L 138.75 263.75 L 138.75 260.0 " stroke="black" fill="none" stroke-width="6.0" stroke-linecap="round" stroke-linejoin="round" />
<path d="M 132.5 213.75 L 130.0 212.5 L 130.0 211.25 L 136.25 207.5 L 150.0 201.25 L 168.75 195.0 L 186.25 193.75 L 196.25 202.5 L 197.5 223.75 L 193.75 245.0 L 188.75 257.5 L 183.75 261.25 " stroke="black" fill="none" stroke-width="6.0" stroke-linecap="round" stroke-linejoin="round" />
<path d="M 140.0 240.0 L 133.75 241.25 L 132.5 241.25 L 142.5 237.5 L 157.5 230.0 L 175.0 221.25 L 188.75 211.25 L 191.25 210.0 " stroke="black" fill="none" stroke-width="6.0" stroke-linecap="round" stroke-linejoin="round" />
<path d="M 137.5 272.5 L 136.25 278.75 L 141.25 278.75 L 156.25 272.5 L 178.75 261.25 L 188.75 256.25 " stroke="black" fill="none" stroke-width="6.0" stroke-linecap="round" stroke-linejoin="round" />
</svg>