<svg xmlns="http://www.w3.org/2000/svg" width="300" height="300" viewBox="0 0 300 300">
<path d="M 86.25 95.0 L 85.0 96.25 L 82.5 98.75 L 85.0 101.25 L 93.75 102.5 L 103.75 97.5 L 115.0 90.0 L 118.75 86.25 L 118.75 86.25 " stroke="black" fill="none" stroke-width="6.0" stroke-linecap="round" stroke-linejoin="round" />
<path d="M 91.25 138.75 L 90.0 140.0 L 87.5 145.0 L 90.0 145.0 L 100.0 137.5 L 111.25 127.5 L 128.75 102.5 L 133.75 92.5 " stroke="black" fill="none" stroke-width="6.0" stroke-linecap="round" stroke-linejoin="round" />
<path d="M 150.0 48.75 L 150.0 48.75 L 150.0 48.75 L 150.0 51.25 L 147.5 62.5 L 146.25 73.75 L 146.25 77.5 L 150.0 76.25 L 158.75 68.75 L 171.25 61.25 L 183.75 55.0 L 191.25 53.75 L 191.25 60.0 L 183.75 72.5 L 160.0 96.25 L 153.75 98.75 " stroke="black" fill="none" stroke-width="6.0" stroke-linecap="round" stroke-linejoin="round" />
<path d="M 153.75 80.0 L 153.75 80.0 L 151.25 81.25 L 150.0 90.0 L 146.25 113.75 L 141.25 141.25 L 137.5 151.25 L 136.25 148.75 L 136.25 147.5 " stroke="black" fill="none" stroke-width="6.0" stroke-linecap="round" stroke-linejoin="round" />
<path d="M 151.25 98.75 L 151.25 98.75 L 152.5 97.5 L 157.5 102.5 L 170.0 118.75 L 188.75 135.0 L 205.0 142.5 L 213.75 142.5 L 215.0 142.5 L 212.5 141.25 " stroke="black" fill="none" stroke-width="6.0" stroke-linecap="round" stroke-linejoin="round" />
<path d="M 145.0 161.25 L 145.0 161.25 L 143.75 160.0 L 142.5 158.75 L 142.5 170.0 L 140.0 196.25 L 140.0 221.25 L 147.5 233.75 L 158.75 237.5 L 173.75 236.25 L 185.0 232.5 L 186.25 231.25 " stroke="black" fill="none" stroke-width="6.0" stroke-linecap="round" stroke-linejoin="round" />
<path d="M 165.0 157.5 L 166.25 156.25 L 167.5 157.5 L 171.25 178.75 L 168.75 220.0 L 155.0 251.25 L 143.75 261.25 L 130.0 263.75 L 115.0 261.25 " stroke="black" fill="none" stroke-width="6.0" stroke-linecap="round" stroke-linejoin="round" />
<path d="M 85.0 203.75 L 82.5 203.75 L 80.0 203.75 L 81.25 202.5 L 93.75 200.0 L 122.5 193.75 L 158.75 186.25 L 193.75 180.0 L 217.5 176.25 L 233.75 176.25 L 242.5 176.25 L 243.75 176.25 L 242.5 176.25 " stroke="black" fill="none" stroke-width="6.0" stroke-linecap="round" stroke-linejoin="round" />
</svg>