<svg xmlns="http://www.w3.org/2000/svg" width="300" height="300" viewBox="0 0 300 300">
<path d="M 92.5 81.25 L 92.5 81.25 L 92.5 80.0 L 93.75 81.25 L 98.75 91.25 L 106.25 103.75 L 112.5 111.25 L 112.5 111.25 " stroke="black" fill="none" stroke-width="6.0" stroke-linecap="round" stroke-linejoin="round" />
<path d="M 95.0 86.25 L 92.5 85.0 L 91.25 85.0 L 95.0 83.75 L 108.75 83.75 L 125.0 83.75 L 135.0 85.0 L 133.75 91.25 L 121.25 100.0 L 108.75 106.25 L 101.25 110.0 L 101.25 108.75 L 112.5 102.5 L 130.0 93.75 L 143.75 85.0 L 146.25 82.5 " stroke="black" fill="none" stroke-width="6.0" stroke-linecap="round" stroke-linejoin="round" />
<path d="M 152.5 65.0 L 152.5 67.5 L 152.5 73.75 L 153.75 85.0 L 158.75 96.25 L 161.25 100.0 L 162.5 100.0 L 161.25 97.5 " stroke="black" fill="none" stroke-width="6.0" stroke-linecap="round" stroke-linejoin="round" />
<path d="M 155.0 76.25 L 153.75 72.5 L 153.75 68.75 L 156.25 65.0 L 165.0 63.75 L 175.0 63.75 L 181.25 66.25 L 180.0 75.0 L 170.0 85.0 L 161.25 95.0 L 155.0 101.25 L 155.0 101.25 L 165.0 96.25 L 178.75 87.5 L 188.75 78.75 L 188.75 77.5 " stroke="black" fill="none" stroke-width="6.0" stroke-linecap="round" stroke-linejoin="round" />
<path d="M 68.75 138.75 L 66.25 140.0 L 65.0 141.25 L 76.25 141.25 L 106.25 133.75 L 147.5 120.0 L 180.0 105.0 L 196.25 98.75 L 197.5 97.5 L 181.25 100.0 L 170.0 103.75 " stroke="black" fill="none" stroke-width="6.0" stroke-linecap="round" stroke-linejoin="round" />
<path d="M 86.25 147.5 L 85.0 156.25 L 83.75 182.5 L 78.75 215.0 L 70.0 241.25 L 58.75 255.0 L 50.0 258.75 L 46.25 251.25 L 46.25 245.0 " stroke="black" fill="none" stroke-width="6.0" stroke-linecap="round" stroke-linejoin="round" />
<path d="M 101.25 162.5 L 103.75 162.5 L 108.75 162.5 L 121.25 160.0 L 141.25 153.75 L 155.0 146.25 L 158.75 141.25 L 152.5 141.25 L 143.75 146.25 L 135.0 152.5 L 128.75 158.75 L 123.75 167.5 L 122.5 177.5 L 121.25 187.5 L 117.5 195.0 L 108.75 200.0 L 98.75 202.5 L 88.75 205.0 L 82.5 207.5 L 82.5 207.5 L 93.75 205.0 L 113.75 197.5 L 137.5 185.0 L 160.0 170.0 L 171.25 158.75 L 171.25 157.5 L 162.5 162.5 L 153.75 167.5 L 148.75 172.5 L 145.0 178.75 L 143.75 188.75 L 145.0 207.5 L 146.25 233.75 L 147.5 253.75 L 146.25 261.25 L 141.25 261.25 L 137.5 258.75 " stroke="black" fill="none" stroke-width="6.0" stroke-linecap="round" stroke-linejoin="round" />
<path d="M 103.75 202.5 L 103.75 202.5 L 102.5 203.75 L 102.5 217.5 L 103.75 236.25 L 105.0 250.0 L 105.0 251.25 " stroke="black" fill="none" stroke-width="6.0" stroke-linecap="round" stroke-linejoin="round" />
<path d="M 118.75 200.0 L 118.75 200.0 L 121.25 198.75 L 123.75 200.0 L 125.0 208.75 L 121.25 225.0 L 112.5 241.25 L 101.25 248.75 L 97.5 251.25 L 98.75 250.0 L 110.0 243.75 L 130.0 232.5 L 151.25 213.75 L 167.5 195.0 L 173.75 181.25 L 180.0 166.25 L 186.25 150.0 L 191.25 140.0 L 191.25 136.25 L 191.25 138.75 L 191.25 150.0 L 186.25 171.25 L 181.25 192.5 L 180.0 200.0 L 182.5 198.75 L 193.75 185.0 L 207.5 167.5 L 218.75 151.25 L 227.5 141.25 L 226.25 140.0 L 218.75 143.75 " stroke="black" fill="none" stroke-width="6.0" stroke-linecap="round" stroke-linejoin="round" />
<path d="M 201.25 191.25 L 200.0 200.0 L 200.0 212.5 L 196.25 228.75 L 187.5 243.75 L 172.5 252.5 L 155.0 253.75 L 150.0 252.5 " stroke="black" fill="none" stroke-width="6.0" stroke-linecap="round" stroke-linejoin="round" />
<path d="M 172.5 208.75 L 173.75 208.75 L 176.25 212.5 L 186.25 222.5 L 203.75 242.5 L 223.75 261.25 L 242.5 275.0 L 256.25 283.75 L 262.5 290.0 " stroke="black" fill="none" stroke-width="6.0" stroke-linecap="round" stroke-linejoin="round" />
</svg>