<svg xmlns="http://www.w3.org/2000/svg" width="300" height="300" viewBox="0 0 300 300">
<path d="M 98.75 96.25 L 98.75 93.75 L 98.75 92.5 L 103.75 92.5 L 113.75 96.25 L 130.0 100.0 L 148.75 98.75 L 161.25 91.25 L 170.0 83.75 L 171.25 77.5 L 167.5 76.25 L 158.75 78.75 " stroke="black" fill="none" stroke-width="6.0" stroke-linecap="round" stroke-linejoin="round" />
<path d="M 101.25 153.75 L 98.75 153.75 L 95.0 153.75 L 93.75 153.75 L 96.25 153.75 L 105.0 153.75 L 117.5 153.75 L 126.25 153.75 L 130.0 153.75 L 127.5 160.0 L 116.25 168.75 L 103.75 178.75 L 93.75 186.25 L 91.25 188.75 L 95.0 187.5 L 106.25 182.5 L 120.0 175.0 L 136.25 168.75 L 143.75 166.25 L 140.0 172.5 L 127.5 185.0 L 113.75 197.5 L 98.75 208.75 L 88.75 220.0 L 87.5 225.0 L 90.0 225.0 L 123.75 212.5 L 157.5 196.25 L 191.25 180.0 L 210.0 167.5 L 215.0 160.0 L 211.25 155.0 L 201.25 153.75 L 195.0 152.5 " stroke="black" fill="none" stroke-width="6.0" stroke-linecap="round" stroke-linejoin="round" />
<path d="M 158.75 125.0 L 157.5 118.75 L 157.5 112.5 L 161.25 110.0 L 165.0 115.0 L 168.75 138.75 L 172.5 182.5 L 173.75 227.5 L 172.5 255.0 L 171.25 267.5 L 170.0 272.5 L 165.0 275.0 L 160.0 275.0 " stroke="black" fill="none" stroke-width="6.0" stroke-linecap="round" stroke-linejoin="round" />
</svg>