<svg xmlns="http://www.w3.org/2000/svg" width="300" height="300" viewBox="0 0 300 300">
<path d="M 108.75 80.0 L 107.5 80.0 L 106.25 78.75 L 106.25 80.0 L 108.75 90.0 L 115.0 103.75 L 126.25 112.5 L 142.5 111.25 L 158.75 100.0 L 173.75 88.75 L 181.25 81.25 L 180.0 80.0 L 171.25 82.5 L 165.0 85.0 " stroke="black" fill="none" stroke-width="6.0" stroke-linecap="round" stroke-linejoin="round" />
<path d="M 98.75 157.5 L 98.75 158.75 L 97.5 161.25 L 101.25 161.25 L 117.5 157.5 L 137.5 153.75 L 148.75 151.25 L 151.25 151.25 L 140.0 160.0 L 125.0 172.5 L 110.0 183.75 L 101.25 190.0 L 103.75 190.0 L 116.25 183.75 L 132.5 175.0 L 147.5 168.75 L 155.0 166.25 L 153.75 171.25 L 141.25 183.75 L 126.25 197.5 L 110.0 208.75 L 96.25 220.0 L 95.0 223.75 L 110.0 221.25 L 138.75 211.25 L 176.25 196.25 L 213.75 183.75 L 236.25 175.0 L 241.25 171.25 L 232.5 167.5 L 217.5 163.75 L 200.0 157.5 L 186.25 148.75 L 176.25 136.25 L 172.5 120.0 L 172.5 107.5 L 175.0 100.0 L 176.25 100.0 L 177.5 103.75 L 181.25 128.75 L 186.25 175.0 L 187.5 237.5 L 186.25 278.75 L 182.5 296.25 L 180.0 302.5 L 175.0 305.0 L 166.25 301.25 L 161.25 298.75 " stroke="black" fill="none" stroke-width="6.0" stroke-linecap="round" stroke-linejoin="round" />
</svg>