<svg xmlns="http://www.w3.org/2000/svg" width="300" height="300" viewBox="0 0 300 300">
<path d="M 113.75 76.25 L 112.5 77.5 L 112.5 98.75 L 122.5 115.0 L 142.5 117.5 L 163.75 106.25 L 192.5 87.5 L 208.75 75.0 L 213.75 63.75 L 210.0 60.0 L 207.5 60.0 " stroke="black" fill="none" stroke-width="6.0" stroke-linecap="round" stroke-linejoin="round" />
<path d="M 91.25 148.75 L 91.25 148.75 L 91.25 148.75 L 98.75 150.0 L 115.0 151.25 L 130.0 155.0 L 135.0 160.0 L 128.75 170.0 L 115.0 180.0 L 101.25 187.5 L 91.25 192.5 L 90.0 192.5 L 93.75 192.5 L 105.0 188.75 L 120.0 183.75 L 133.75 180.0 L 138.75 177.5 L 137.5 180.0 L 125.0 188.75 L 108.75 200.0 L 97.5 211.25 L 93.75 216.25 L 100.0 217.5 L 120.0 215.0 L 150.0 203.75 L 185.0 191.25 L 215.0 180.0 L 231.25 171.25 L 235.0 167.5 L 230.0 165.0 L 218.75 161.25 L 206.25 156.25 L 198.75 150.0 L 192.5 141.25 L 188.75 131.25 L 188.75 122.5 L 188.75 115.0 L 188.75 113.75 L 188.75 113.75 L 188.75 116.25 L 187.5 130.0 L 185.0 158.75 L 180.0 210.0 L 175.0 267.5 L 170.0 301.25 L 165.0 321.25 L 160.0 333.75 L 155.0 340.0 L 150.0 341.25 L 143.75 333.75 " stroke="black" fill="none" stroke-width="6.0" stroke-linecap="round" stroke-linejoin="round" />
</svg>