<svg xmlns="http://www.w3.org/2000/svg" width="300" height="300" viewBox="0 0 300 300">
<path d="M 105.0 83.75 L 105.0 83.75 L 103.75 82.5 L 103.75 83.75 L 105.0 97.5 L 110.0 113.75 L 117.5 125.0 L 123.75 127.5 L 125.0 121.25 " stroke="black" fill="none" stroke-width="6.0" stroke-linecap="round" stroke-linejoin="round" />
<path d="M 111.25 85.0 L 106.25 82.5 L 103.75 81.25 L 107.5 78.75 L 122.5 73.75 L 141.25 66.25 L 158.75 61.25 L 163.75 61.25 L 158.75 71.25 L 147.5 83.75 L 135.0 95.0 L 120.0 103.75 L 107.5 110.0 L 105.0 110.0 L 111.25 106.25 L 125.0 97.5 L 138.75 88.75 L 151.25 81.25 L 156.25 77.5 L 153.75 82.5 L 143.75 95.0 L 130.0 110.0 L 117.5 123.75 L 112.5 128.75 L 113.75 127.5 L 121.25 121.25 L 130.0 112.5 L 136.25 106.25 L 136.25 105.0 " stroke="black" fill="none" stroke-width="6.0" stroke-linecap="round" stroke-linejoin="round" />
<path d="M 131.25 111.25 L 131.25 111.25 L 128.75 113.75 L 127.5 113.75 L 127.5 113.75 L 132.5 115.0 L 138.75 117.5 L 143.75 121.25 L 146.25 126.25 L 146.25 130.0 " stroke="black" fill="none" stroke-width="6.0" stroke-linecap="round" stroke-linejoin="round" />
<path d="M 73.75 166.25 L 68.75 170.0 L 67.5 171.25 L 80.0 167.5 L 101.25 153.75 L 135.0 136.25 L 163.75 116.25 L 175.0 108.75 L 173.75 107.5 L 163.75 111.25 " stroke="black" fill="none" stroke-width="6.0" stroke-linecap="round" stroke-linejoin="round" />
<path d="M 121.25 145.0 L 120.0 146.25 L 117.5 165.0 L 122.5 183.75 L 127.5 193.75 L 132.5 195.0 L 132.5 192.5 L 130.0 188.75 L 125.0 183.75 L 120.0 177.5 L 118.75 170.0 L 122.5 161.25 L 136.25 151.25 L 151.25 143.75 L 161.25 142.5 L 161.25 148.75 L 152.5 161.25 L 140.0 176.25 L 127.5 188.75 L 117.5 197.5 L 118.75 197.5 L 130.0 188.75 L 143.75 176.25 L 153.75 163.75 L 158.75 157.5 L 158.75 157.5 L 153.75 167.5 L 150.0 183.75 L 150.0 205.0 L 150.0 232.5 L 155.0 252.5 L 156.25 255.0 L 156.25 252.5 L 152.5 246.25 L 147.5 237.5 L 137.5 226.25 " stroke="black" fill="none" stroke-width="6.0" stroke-linecap="round" stroke-linejoin="round" />
<path d="M 90.0 202.5 L 90.0 202.5 L 90.0 203.75 L 91.25 207.5 L 98.75 222.5 L 107.5 240.0 L 117.5 250.0 L 120.0 251.25 " stroke="black" fill="none" stroke-width="6.0" stroke-linecap="round" stroke-linejoin="round" />
<path d="M 176.25 195.0 L 177.5 195.0 L 182.5 197.5 L 193.75 205.0 L 203.75 216.25 L 210.0 225.0 L 210.0 231.25 " stroke="black" fill="none" stroke-width="6.0" stroke-linecap="round" stroke-linejoin="round" />
</svg>