<svg xmlns="http://www.w3.org/2000/svg" width="300" height="300" viewBox="0 0 300 300">
<path d="M 67.5 115.0 L 65.0 116.25 L 63.75 118.75 L 68.75 118.75 L 81.25 118.75 L 96.25 115.0 L 107.5 110.0 L 110.0 108.75 " stroke="black" fill="none" stroke-width="6.0" stroke-linecap="round" stroke-linejoin="round" />
<path d="M 76.25 166.25 L 72.5 171.25 L 75.0 172.5 L 85.0 168.75 L 96.25 161.25 L 106.25 153.75 L 108.75 152.5 " stroke="black" fill="none" stroke-width="6.0" stroke-linecap="round" stroke-linejoin="round" />
<path d="M 71.25 233.75 L 67.5 237.5 L 63.75 241.25 L 71.25 236.25 L 86.25 221.25 L 103.75 198.75 L 112.5 186.25 " stroke="black" fill="none" stroke-width="6.0" stroke-linecap="round" stroke-linejoin="round" />
<path d="M 138.75 85.0 L 136.25 87.5 L 135.0 87.5 L 142.5 88.75 L 161.25 87.5 L 192.5 81.25 L 220.0 72.5 L 228.75 67.5 L 225.0 67.5 L 210.0 72.5 L 202.5 75.0 " stroke="black" fill="none" stroke-width="6.0" stroke-linecap="round" stroke-linejoin="round" />
<path d="M 147.5 82.5 L 143.75 83.75 L 140.0 87.5 L 141.25 96.25 L 147.5 116.25 L 156.25 130.0 L 163.75 132.5 L 171.25 125.0 L 176.25 111.25 L 181.25 98.75 L 186.25 87.5 L 191.25 80.0 L 192.5 80.0 L 191.25 90.0 L 183.75 111.25 L 172.5 135.0 L 160.0 150.0 " stroke="black" fill="none" stroke-width="6.0" stroke-linecap="round" stroke-linejoin="round" />
<path d="M 121.25 160.0 L 120.0 158.75 L 118.75 157.5 L 117.5 167.5 L 118.75 198.75 L 121.25 233.75 L 123.75 250.0 L 126.25 251.25 L 127.5 245.0 L 127.5 243.75 " stroke="black" fill="none" stroke-width="6.0" stroke-linecap="round" stroke-linejoin="round" />
<path d="M 125.0 185.0 L 123.75 185.0 L 122.5 185.0 L 127.5 182.5 L 145.0 176.25 L 175.0 163.75 L 206.25 152.5 L 226.25 147.5 L 237.5 148.75 L 243.75 158.75 L 247.5 180.0 L 247.5 207.5 L 247.5 228.75 L 245.0 245.0 L 242.5 252.5 L 240.0 255.0 L 238.75 255.0 L 237.5 255.0 L 235.0 253.75 L 231.25 250.0 L 225.0 243.75 L 218.75 233.75 " stroke="black" fill="none" stroke-width="6.0" stroke-linecap="round" stroke-linejoin="round" />
<path d="M 177.5 132.5 L 176.25 132.5 L 175.0 131.25 L 173.75 132.5 L 173.75 148.75 L 173.75 191.25 L 173.75 223.75 L 172.5 236.25 L 170.0 237.5 " stroke="black" fill="none" stroke-width="6.0" stroke-linecap="round" stroke-linejoin="round" />
<path d="M 191.25 171.25 L 192.5 176.25 L 197.5 183.75 L 208.75 193.75 L 218.75 201.25 L 225.0 203.75 L 222.5 203.75 L 216.25 203.75 L 212.5 202.5 L 208.75 201.25 L 206.25 198.75 L 202.5 197.5 L 198.75 197.5 L 192.5 202.5 L 183.75 212.5 L 177.5 217.5 " stroke="black" fill="none" stroke-width="6.0" stroke-linecap="round" stroke-linejoin="round" />
<path d="M 141.25 190.0 L 140.0 191.25 L 140.0 195.0 L 146.25 201.25 L 158.75 208.75 L 173.75 213.75 L 181.25 213.75 L 180.0 213.75 " stroke="black" fill="none" stroke-width="6.0" stroke-linecap="round" stroke-linejoin="round" />
<path d="M 158.75 203.75 L 156.25 206.25 L 151.25 213.75 L 142.5 228.75 L 128.75 246.25 " stroke="black" fill="none" stroke-width="6.0" stroke-linecap="round" stroke-linejoin="round" />
</svg>