<svg xmlns="http://www.w3.org/2000/svg" width="300" height="300" viewBox="0 0 300 300">
<path d="M 67.5 97.5 L 67.5 96.25 L 66.25 95.0 L 70.0 108.75 L 77.5 155.0 L 78.75 207.5 L 73.75 232.5 L 66.25 241.25 L 61.25 242.5 L 60.0 241.25 " stroke="black" fill="none" stroke-width="6.0" stroke-linecap="round" stroke-linejoin="round" />
<path d="M 65.0 113.75 L 63.75 107.5 L 66.25 101.25 L 75.0 95.0 L 86.25 90.0 L 95.0 87.5 L 100.0 87.5 L 102.5 93.75 L 105.0 111.25 L 108.75 145.0 L 111.25 185.0 L 116.25 210.0 L 117.5 221.25 L 117.5 230.0 L 115.0 233.75 L 112.5 233.75 L 108.75 232.5 L 103.75 225.0 L 98.75 216.25 " stroke="black" fill="none" stroke-width="6.0" stroke-linecap="round" stroke-linejoin="round" />
<path d="M 80.0 148.75 L 78.75 148.75 L 76.25 148.75 L 76.25 148.75 L 86.25 145.0 L 96.25 138.75 L 105.0 135.0 L 105.0 135.0 " stroke="black" fill="none" stroke-width="6.0" stroke-linecap="round" stroke-linejoin="round" />
<path d="M 87.5 162.5 L 85.0 167.5 L 88.75 167.5 L 100.0 161.25 L 117.5 147.5 " stroke="black" fill="none" stroke-width="6.0" stroke-linecap="round" stroke-linejoin="round" />
<path d="M 145.0 81.25 L 142.5 80.0 L 141.25 78.75 L 143.75 82.5 L 147.5 90.0 L 150.0 98.75 " stroke="black" fill="none" stroke-width="6.0" stroke-linecap="round" stroke-linejoin="round" />
<path d="M 165.0 75.0 L 166.25 73.75 L 168.75 72.5 L 175.0 72.5 L 181.25 75.0 L 183.75 81.25 L 180.0 88.75 L 167.5 96.25 L 152.5 102.5 L 137.5 111.25 L 126.25 118.75 L 125.0 121.25 L 135.0 121.25 L 148.75 113.75 L 166.25 103.75 L 183.75 92.5 L 195.0 83.75 L 193.75 82.5 L 185.0 86.25 " stroke="black" fill="none" stroke-width="6.0" stroke-linecap="round" stroke-linejoin="round" />
<path d="M 116.25 151.25 L 116.25 152.5 L 117.5 153.75 L 130.0 148.75 L 155.0 133.75 L 187.5 112.5 L 207.5 95.0 L 212.5 86.25 L 210.0 83.75 L 206.25 83.75 " stroke="black" fill="none" stroke-width="6.0" stroke-linecap="round" stroke-linejoin="round" />
<path d="M 160.0 86.25 L 160.0 90.0 L 158.75 100.0 L 155.0 128.75 L 145.0 167.5 L 133.75 195.0 L 121.25 201.25 L 112.5 201.25 " stroke="black" fill="none" stroke-width="6.0" stroke-linecap="round" stroke-linejoin="round" />
<path d="M 182.5 116.25 L 192.5 115.0 L 206.25 117.5 L 222.5 123.75 L 240.0 130.0 L 252.5 132.5 L 255.0 135.0 L 250.0 140.0 L 246.25 141.25 " stroke="black" fill="none" stroke-width="6.0" stroke-linecap="round" stroke-linejoin="round" />
<path d="M 150.0 152.5 L 150.0 151.25 L 148.75 150.0 L 148.75 150.0 L 152.5 162.5 L 157.5 183.75 L 160.0 201.25 L 158.75 207.5 L 155.0 206.25 " stroke="black" fill="none" stroke-width="6.0" stroke-linecap="round" stroke-linejoin="round" />
<path d="M 155.0 158.75 L 155.0 158.75 L 155.0 157.5 L 158.75 153.75 L 171.25 147.5 L 191.25 137.5 L 202.5 130.0 L 203.75 128.75 L 197.5 133.75 L 187.5 141.25 L 177.5 147.5 L 166.25 156.25 L 158.75 166.25 L 157.5 171.25 L 161.25 171.25 L 172.5 166.25 L 187.5 157.5 L 200.0 147.5 L 205.0 141.25 L 202.5 141.25 L 198.75 143.75 " stroke="black" fill="none" stroke-width="6.0" stroke-linecap="round" stroke-linejoin="round" />
<path d="M 163.75 185.0 L 163.75 186.25 L 166.25 187.5 L 176.25 183.75 L 195.0 171.25 L 208.75 157.5 L 212.5 148.75 L 208.75 147.5 L 203.75 147.5 L 197.5 147.5 L 192.5 146.25 L 190.0 143.75 L 187.5 143.75 L 187.5 146.25 L 188.75 158.75 L 191.25 180.0 L 191.25 198.75 L 191.25 206.25 L 191.25 207.5 L 195.0 203.75 L 202.5 198.75 L 212.5 193.75 L 223.75 190.0 L 231.25 188.75 L 232.5 195.0 L 225.0 208.75 L 212.5 227.5 L 201.25 243.75 L 193.75 250.0 L 190.0 251.25 " stroke="black" fill="none" stroke-width="6.0" stroke-linecap="round" stroke-linejoin="round" />
<path d="M 145.0 210.0 L 141.25 210.0 L 140.0 208.75 L 138.75 208.75 L 141.25 212.5 L 145.0 221.25 L 151.25 237.5 L 153.75 247.5 L 155.0 248.75 " stroke="black" fill="none" stroke-width="6.0" stroke-linecap="round" stroke-linejoin="round" />
<path d="M 162.5 216.25 L 162.5 216.25 L 163.75 216.25 L 168.75 220.0 L 177.5 226.25 L 183.75 233.75 L 185.0 238.75 L 185.0 238.75 " stroke="black" fill="none" stroke-width="6.0" stroke-linecap="round" stroke-linejoin="round" />
<path d="M 188.75 212.5 L 187.5 213.75 L 186.25 216.25 L 188.75 221.25 L 193.75 228.75 L 196.25 236.25 " stroke="black" fill="none" stroke-width="6.0" stroke-linecap="round" stroke-linejoin="round" />
<path d="M 207.5 211.25 L 207.5 211.25 L 207.5 211.25 L 207.5 211.25 L 213.75 213.75 L 225.0 222.5 L 230.0 228.75 " stroke="black" fill="none" stroke-width="6.0" stroke-linecap="round" stroke-linejoin="round" />
</svg>