<svg xmlns="http://www.w3.org/2000/svg" width="300" height="300" viewBox="0 0 300 300">
<path d="M 73.75 98.75 L 72.5 98.75 L 67.5 100.0 L 67.5 100.0 L 73.75 100.0 L 87.5 102.5 L 98.75 103.75 L 105.0 105.0 L 103.75 106.25 " stroke="black" fill="none" stroke-width="6.0" stroke-linecap="round" stroke-linejoin="round" />
<path d="M 55.0 145.0 L 55.0 146.25 L 57.5 147.5 L 67.5 147.5 L 85.0 141.25 L 102.5 132.5 L 115.0 123.75 L 117.5 120.0 L 111.25 120.0 L 108.75 121.25 " stroke="black" fill="none" stroke-width="6.0" stroke-linecap="round" stroke-linejoin="round" />
<path d="M 68.75 166.25 L 67.5 167.5 L 65.0 168.75 L 68.75 168.75 L 81.25 165.0 L 92.5 157.5 L 101.25 151.25 L 102.5 148.75 L 101.25 148.75 " stroke="black" fill="none" stroke-width="6.0" stroke-linecap="round" stroke-linejoin="round" />
<path d="M 65.0 195.0 L 65.0 197.5 L 62.5 202.5 L 68.75 201.25 L 82.5 195.0 L 97.5 183.75 L 105.0 175.0 L 105.0 171.25 " stroke="black" fill="none" stroke-width="6.0" stroke-linecap="round" stroke-linejoin="round" />
<path d="M 57.5 212.5 L 57.5 212.5 L 57.5 212.5 L 57.5 212.5 L 61.25 215.0 L 72.5 227.5 L 85.0 242.5 L 90.0 250.0 L 91.25 250.0 L 90.0 248.75 L 87.5 243.75 L 83.75 238.75 L 80.0 235.0 L 76.25 231.25 L 73.75 230.0 L 72.5 228.75 L 76.25 226.25 L 86.25 218.75 L 100.0 211.25 L 110.0 205.0 L 113.75 203.75 L 111.25 211.25 L 103.75 226.25 L 95.0 240.0 L 91.25 245.0 L 92.5 245.0 L 102.5 231.25 L 115.0 216.25 " stroke="black" fill="none" stroke-width="6.0" stroke-linecap="round" stroke-linejoin="round" />
<path d="M 150.0 96.25 L 148.75 97.5 L 147.5 100.0 L 151.25 102.5 L 162.5 103.75 L 175.0 103.75 L 185.0 101.25 L 185.0 98.75 L 182.5 98.75 " stroke="black" fill="none" stroke-width="6.0" stroke-linecap="round" stroke-linejoin="round" />
<path d="M 138.75 143.75 L 133.75 150.0 L 135.0 151.25 L 142.5 151.25 L 156.25 146.25 L 175.0 136.25 L 190.0 126.25 L 197.5 120.0 L 197.5 118.75 L 195.0 120.0 L 192.5 125.0 L 190.0 137.5 L 190.0 162.5 L 192.5 201.25 L 196.25 230.0 L 198.75 243.75 L 200.0 250.0 L 200.0 250.0 L 200.0 250.0 L 200.0 250.0 L 198.75 247.5 L 195.0 243.75 L 190.0 238.75 L 182.5 231.25 L 172.5 225.0 L 167.5 221.25 " stroke="black" fill="none" stroke-width="6.0" stroke-linecap="round" stroke-linejoin="round" />
<path d="M 140.0 192.5 L 133.75 193.75 L 131.25 195.0 L 132.5 195.0 L 142.5 192.5 L 153.75 188.75 L 163.75 186.25 L 170.0 186.25 L 171.25 190.0 L 166.25 202.5 L 160.0 213.75 L 158.75 217.5 L 160.0 217.5 L 171.25 208.75 L 188.75 192.5 L 206.25 172.5 L 217.5 155.0 L 223.75 148.75 L 223.75 148.75 L 223.75 153.75 L 222.5 166.25 L 222.5 178.75 L 227.5 187.5 L 236.25 190.0 L 245.0 191.25 L 250.0 195.0 L 252.5 203.75 L 248.75 218.75 L 242.5 235.0 L 237.5 246.25 L 233.75 252.5 L 232.5 253.75 " stroke="black" fill="none" stroke-width="6.0" stroke-linecap="round" stroke-linejoin="round" />
</svg>