<svg xmlns="http://www.w3.org/2000/svg" width="300" height="300" viewBox="0 0 300 300">
<path d="M 115.0 58.75 L 112.5 60.0 L 116.25 60.0 L 133.75 60.0 L 156.25 57.5 L 180.0 51.25 L 188.75 46.25 L 178.75 47.5 L 175.0 47.5 " stroke="black" fill="none" stroke-width="6.0" stroke-linecap="round" stroke-linejoin="round" />
<path d="M 98.75 86.25 L 97.5 86.25 L 93.75 87.5 L 92.5 90.0 L 93.75 101.25 L 98.75 118.75 L 101.25 131.25 L 101.25 135.0 L 100.0 133.75 " stroke="black" fill="none" stroke-width="6.0" stroke-linecap="round" stroke-linejoin="round" />
<path d="M 90.0 105.0 L 88.75 105.0 L 87.5 105.0 L 90.0 103.75 L 105.0 98.75 L 136.25 90.0 L 172.5 82.5 L 205.0 77.5 L 217.5 76.25 L 221.25 78.75 L 215.0 83.75 L 203.75 92.5 L 190.0 102.5 L 173.75 108.75 L 171.25 110.0 " stroke="black" fill="none" stroke-width="6.0" stroke-linecap="round" stroke-linejoin="round" />
<path d="M 161.25 71.25 L 158.75 72.5 L 158.75 80.0 L 158.75 97.5 L 157.5 115.0 L 156.25 117.5 " stroke="black" fill="none" stroke-width="6.0" stroke-linecap="round" stroke-linejoin="round" />
<path d="M 182.5 65.0 L 182.5 65.0 L 182.5 65.0 L 180.0 73.75 L 170.0 91.25 L 158.75 103.75 " stroke="black" fill="none" stroke-width="6.0" stroke-linecap="round" stroke-linejoin="round" />
<path d="M 130.0 78.75 L 130.0 78.75 L 131.25 81.25 L 138.75 93.75 L 146.25 116.25 " stroke="black" fill="none" stroke-width="6.0" stroke-linecap="round" stroke-linejoin="round" />
<path d="M 107.5 142.5 L 105.0 143.75 L 101.25 143.75 L 103.75 146.25 L 115.0 148.75 L 131.25 150.0 L 142.5 150.0 L 145.0 150.0 L 141.25 151.25 L 128.75 157.5 L 115.0 163.75 L 102.5 170.0 L 95.0 175.0 L 95.0 176.25 L 98.75 176.25 L 110.0 173.75 L 122.5 170.0 L 133.75 165.0 L 141.25 162.5 L 141.25 161.25 L 131.25 168.75 L 117.5 180.0 L 103.75 191.25 L 91.25 200.0 L 83.75 206.25 L 82.5 207.5 L 88.75 206.25 L 101.25 202.5 L 118.75 193.75 L 142.5 183.75 L 158.75 173.75 L 161.25 171.25 L 156.25 173.75 L 147.5 182.5 L 138.75 190.0 L 128.75 196.25 " stroke="black" fill="none" stroke-width="6.0" stroke-linecap="round" stroke-linejoin="round" />
<path d="M 130.0 193.75 L 130.0 193.75 L 130.0 195.0 L 132.5 206.25 L 137.5 232.5 L 138.75 252.5 L 137.5 257.5 L 132.5 257.5 L 126.25 256.25 L 120.0 251.25 L 113.75 243.75 L 111.25 237.5 " stroke="black" fill="none" stroke-width="6.0" stroke-linecap="round" stroke-linejoin="round" />
<path d="M 117.5 198.75 L 117.5 198.75 L 113.75 201.25 L 108.75 212.5 L 100.0 232.5 L 92.5 246.25 L 90.0 246.25 L 90.0 241.25 " stroke="black" fill="none" stroke-width="6.0" stroke-linecap="round" stroke-linejoin="round" />
<path d="M 155.0 142.5 L 156.25 141.25 L 160.0 138.75 L 165.0 138.75 L 170.0 141.25 L 172.5 146.25 L 173.75 148.75 L 177.5 150.0 L 187.5 145.0 L 200.0 133.75 L 212.5 122.5 L 221.25 115.0 L 221.25 115.0 L 215.0 122.5 L 206.25 136.25 L 198.75 147.5 L 190.0 161.25 L 182.5 172.5 " stroke="black" fill="none" stroke-width="6.0" stroke-linecap="round" stroke-linejoin="round" />
<path d="M 193.75 151.25 L 193.75 151.25 L 192.5 151.25 L 192.5 151.25 L 192.5 151.25 L 192.5 151.25 L 192.5 151.25 L 192.5 151.25 L 192.5 151.25 L 192.5 151.25 L 191.25 151.25 L 191.25 151.25 L 191.25 152.5 L 191.25 152.5 L 192.5 152.5 L 193.75 152.5 L 193.75 152.5 L 195.0 152.5 L 195.0 152.5 L 195.0 152.5 L 195.0 153.75 L 192.5 160.0 L 185.0 172.5 L 173.75 187.5 L 163.75 197.5 L 157.5 198.75 L 155.0 196.25 L 155.0 193.75 " stroke="black" fill="none" stroke-width="6.0" stroke-linecap="round" stroke-linejoin="round" />
<path d="M 168.75 157.5 L 168.75 157.5 L 167.5 157.5 L 168.75 157.5 L 180.0 156.25 L 196.25 162.5 L 216.25 171.25 L 238.75 177.5 L 255.0 180.0 L 258.75 182.5 L 255.0 185.0 L 246.25 190.0 " stroke="black" fill="none" stroke-width="6.0" stroke-linecap="round" stroke-linejoin="round" />
<path d="M 175.0 221.25 L 173.75 221.25 L 170.0 223.75 L 175.0 223.75 L 191.25 221.25 L 210.0 213.75 L 227.5 206.25 L 240.0 201.25 L 243.75 201.25 L 240.0 210.0 L 227.5 223.75 L 212.5 240.0 L 200.0 250.0 L 191.25 253.75 " stroke="black" fill="none" stroke-width="6.0" stroke-linecap="round" stroke-linejoin="round" />
<path d="M 198.75 192.5 L 196.25 190.0 L 195.0 190.0 L 192.5 201.25 L 187.5 228.75 L 181.25 256.25 L 177.5 266.25 " stroke="black" fill="none" stroke-width="6.0" stroke-linecap="round" stroke-linejoin="round" />
</svg>