<svg xmlns="http://www.w3.org/2000/svg" width="300" height="300" viewBox="0 0 300 300">
<path d="M 96.25 91.25 L 95.0 91.25 L 92.5 91.25 L 100.0 90.0 L 122.5 85.0 L 151.25 76.25 L 170.0 67.5 L 173.75 65.0 L 165.0 68.75 " stroke="black" fill="none" stroke-width="6.0" stroke-linecap="round" stroke-linejoin="round" />
<path d="M 136.25 86.25 L 131.25 90.0 L 126.25 96.25 L 123.75 110.0 L 123.75 126.25 L 123.75 130.0 L 133.75 133.75 L 146.25 125.0 L 158.75 112.5 L 170.0 102.5 L 177.5 92.5 L 178.75 86.25 L 178.75 85.0 L 176.25 83.75 L 175.0 83.75 L 175.0 86.25 L 176.25 93.75 L 181.25 105.0 L 186.25 118.75 L 188.75 133.75 L 187.5 140.0 " stroke="black" fill="none" stroke-width="6.0" stroke-linecap="round" stroke-linejoin="round" />
<path d="M 112.5 190.0 L 108.75 192.5 L 106.25 193.75 L 116.25 193.75 L 135.0 188.75 L 155.0 177.5 L 171.25 165.0 L 177.5 156.25 L 172.5 156.25 " stroke="black" fill="none" stroke-width="6.0" stroke-linecap="round" stroke-linejoin="round" />
<path d="M 143.75 150.0 L 142.5 153.75 L 141.25 161.25 L 147.5 177.5 L 152.5 196.25 L 152.5 211.25 L 147.5 220.0 L 138.75 223.75 L 127.5 226.25 L 116.25 228.75 L 111.25 228.75 L 111.25 228.75 L 113.75 227.5 L 122.5 227.5 L 141.25 223.75 L 165.0 218.75 L 195.0 212.5 L 217.5 210.0 L 228.75 210.0 L 233.75 210.0 L 235.0 210.0 L 232.5 210.0 " stroke="black" fill="none" stroke-width="6.0" stroke-linecap="round" stroke-linejoin="round" />
</svg>