<svg xmlns="http://www.w3.org/2000/svg" width="300" height="300" viewBox="0 0 300 300">
<path d="M 103.75 87.5 L 98.75 88.75 L 96.25 90.0 L 100.0 91.25 L 118.75 92.5 L 147.5 88.75 L 176.25 78.75 L 192.5 70.0 L 193.75 70.0 L 180.0 73.75 L 166.25 78.75 " stroke="black" fill="none" stroke-width="6.0" stroke-linecap="round" stroke-linejoin="round" />
<path d="M 132.5 93.75 L 130.0 96.25 L 126.25 100.0 L 123.75 108.75 L 121.25 128.75 L 120.0 143.75 L 126.25 147.5 L 145.0 143.75 L 166.25 130.0 L 185.0 116.25 L 193.75 105.0 L 195.0 100.0 L 188.75 97.5 L 185.0 97.5 L 183.75 97.5 L 183.75 97.5 L 190.0 101.25 L 198.75 108.75 L 208.75 120.0 L 212.5 131.25 L 212.5 133.75 " stroke="black" fill="none" stroke-width="6.0" stroke-linecap="round" stroke-linejoin="round" />
<path d="M 123.75 186.25 L 118.75 188.75 L 121.25 188.75 L 136.25 185.0 L 156.25 175.0 L 175.0 162.5 L 181.25 155.0 L 175.0 153.75 " stroke="black" fill="none" stroke-width="6.0" stroke-linecap="round" stroke-linejoin="round" />
<path d="M 145.0 155.0 L 145.0 155.0 L 143.75 155.0 L 147.5 157.5 L 157.5 172.5 L 162.5 196.25 L 157.5 215.0 L 148.75 222.5 L 135.0 225.0 L 117.5 226.25 L 110.0 226.25 L 108.75 225.0 L 116.25 223.75 L 132.5 223.75 L 153.75 222.5 L 181.25 221.25 L 203.75 218.75 L 218.75 216.25 L 226.25 213.75 L 226.25 207.5 " stroke="black" fill="none" stroke-width="6.0" stroke-linecap="round" stroke-linejoin="round" />
</svg>