<svg xmlns="http://www.w3.org/2000/svg" width="300" height="300" viewBox="0 0 300 300">
<path d="M 151.25 113.75 L 151.25 113.75 L 151.25 113.75 L 151.25 113.75 L 152.5 112.5 L 152.5 112.5 L 153.75 112.5 L 155.0 112.5 L 156.25 113.75 L 156.25 116.25 L 156.25 118.75 L 153.75 120.0 L 150.0 121.25 L 147.5 121.25 L 147.5 120.0 L 147.5 115.0 L 152.5 108.75 L 155.0 108.75 L 156.25 108.75 L 156.25 111.25 L 155.0 115.0 L 152.5 116.25 L 150.0 117.5 L 147.5 117.5 L 146.25 115.0 L 147.5 112.5 L 148.75 110.0 L 151.25 108.75 L 153.75 108.75 L 155.0 111.25 L 155.0 113.75 L 153.75 117.5 L 151.25 118.75 L 147.5 120.0 L 145.0 120.0 L 145.0 117.5 L 146.25 113.75 L 150.0 111.25 L 153.75 108.75 L 156.25 108.75 L 157.5 111.25 L 157.5 115.0 L 153.75 118.75 L 150.0 120.0 L 146.25 121.25 L 145.0 120.0 L 145.0 117.5 L 145.0 113.75 L 147.5 111.25 L 151.25 111.25 L 153.75 111.25 L 153.75 115.0 L 153.75 118.75 " stroke="black" fill="none" stroke-width="6.0" stroke-linecap="round" stroke-linejoin="round" />
<path d="M 150.0 120.0 L 150.0 120.0 L 150.0 118.75 L 150.0 118.75 L 150.0 117.5 L 150.0 116.25 L 150.0 116.25 L 150.0 115.0 L 151.25 115.0 L 152.5 115.0 L 152.5 115.0 L 152.5 115.0 L 152.5 117.5 L 151.25 118.75 L 148.75 118.75 L 147.5 118.75 L 146.25 118.75 L 146.25 116.25 L 147.5 111.25 L 150.0 108.75 L 153.75 107.5 L 156.25 108.75 L 157.5 113.75 L 158.75 117.5 L 158.75 121.25 L 156.25 123.75 L 152.5 125.0 L 150.0 125.0 L 147.5 123.75 L 146.25 118.75 L 146.25 113.75 L 147.5 108.75 L 151.25 106.25 L 155.0 105.0 L 158.75 106.25 L 160.0 111.25 L 161.25 117.5 L 158.75 121.25 L 155.0 125.0 L 150.0 126.25 L 147.5 125.0 L 145.0 122.5 L 145.0 117.5 L 147.5 112.5 L 151.25 110.0 L 156.25 108.75 L 160.0 111.25 L 160.0 120.0 L 158.75 123.75 " stroke="black" fill="none" stroke-width="6.0" stroke-linecap="round" stroke-linejoin="round" />
<path d="M 153.75 208.75 L 153.75 208.75 L 153.75 208.75 L 153.75 208.75 L 153.75 208.75 L 153.75 208.75 L 155.0 210.0 L 156.25 212.5 L 156.25 216.25 L 156.25 218.75 L 152.5 221.25 L 148.75 222.5 L 146.25 222.5 L 145.0 220.0 L 145.0 216.25 L 147.5 211.25 L 151.25 210.0 L 155.0 208.75 L 157.5 210.0 L 158.75 213.75 L 158.75 217.5 L 156.25 220.0 L 152.5 221.25 L 148.75 221.25 L 146.25 218.75 L 146.25 215.0 L 146.25 211.25 L 150.0 208.75 L 152.5 207.5 L 156.25 207.5 L 158.75 211.25 L 158.75 215.0 L 156.25 218.75 L 152.5 220.0 L 148.75 220.0 L 145.0 218.75 L 143.75 216.25 L 143.75 212.5 L 145.0 208.75 L 148.75 207.5 L 152.5 207.5 L 155.0 211.25 L 155.0 215.0 L 155.0 218.75 L 152.5 220.0 L 148.75 221.25 L 146.25 221.25 L 146.25 217.5 L 146.25 213.75 L 148.75 210.0 L 151.25 207.5 L 153.75 207.5 L 156.25 208.75 L 157.5 211.25 L 157.5 215.0 L 156.25 217.5 L 153.75 217.5 L 151.25 217.5 L 148.75 216.25 L 148.75 213.75 L 148.75 211.25 L 150.0 208.75 L 151.25 208.75 L 152.5 210.0 L 153.75 212.5 L 153.75 215.0 L 152.5 216.25 L 151.25 216.25 L 150.0 216.25 L 148.75 216.25 L 148.75 213.75 L 148.75 212.5 L 148.75 212.5 L 148.75 212.5 L 150.0 212.5 L 150.0 212.5 L 151.25 212.5 L 151.25 212.5 L 152.5 212.5 L 152.5 211.25 " stroke="black" fill="none" stroke-width="6.0" stroke-linecap="round" stroke-linejoin="round" />
</svg>