<svg xmlns="http://www.w3.org/2000/svg" width="300" height="300" viewBox="0 0 300 300">
<path d="M 147.5 107.5 L 146.25 107.5 L 146.25 107.5 L 145.0 107.5 L 146.25 108.75 L 147.5 110.0 L 150.0 111.25 L 151.25 113.75 L 151.25 116.25 L 148.75 118.75 L 145.0 120.0 L 141.25 120.0 L 140.0 117.5 L 140.0 112.5 L 142.5 108.75 L 146.25 106.25 L 150.0 106.25 L 152.5 108.75 L 152.5 112.5 L 152.5 117.5 L 150.0 120.0 L 147.5 120.0 L 143.75 120.0 L 142.5 116.25 L 142.5 112.5 L 145.0 108.75 L 148.75 107.5 L 151.25 107.5 L 152.5 112.5 L 152.5 117.5 L 150.0 122.5 L 146.25 125.0 L 142.5 125.0 L 141.25 120.0 L 141.25 113.75 L 142.5 110.0 L 146.25 107.5 L 150.0 106.25 L 152.5 110.0 L 153.75 115.0 L 152.5 120.0 L 150.0 122.5 L 146.25 123.75 L 143.75 122.5 L 142.5 117.5 L 143.75 112.5 L 146.25 108.75 L 150.0 107.5 L 152.5 108.75 L 153.75 115.0 L 153.75 120.0 L 152.5 122.5 L 150.0 122.5 L 150.0 118.75 L 150.0 112.5 L 150.0 111.25 " stroke="black" fill="none" stroke-width="6.0" stroke-linecap="round" stroke-linejoin="round" />
<path d="M 148.75 118.75 L 148.75 118.75 L 147.5 117.5 L 146.25 116.25 L 145.0 113.75 L 145.0 112.5 L 147.5 110.0 L 151.25 110.0 L 153.75 110.0 L 156.25 113.75 L 156.25 118.75 L 153.75 122.5 L 151.25 126.25 L 146.25 127.5 L 142.5 126.25 L 141.25 122.5 L 141.25 117.5 L 142.5 112.5 L 147.5 108.75 L 151.25 108.75 L 155.0 110.0 L 156.25 113.75 L 156.25 120.0 L 153.75 125.0 L 150.0 126.25 L 146.25 126.25 L 143.75 123.75 L 143.75 120.0 L 143.75 116.25 L 146.25 113.75 L 148.75 113.75 L 150.0 116.25 " stroke="black" fill="none" stroke-width="6.0" stroke-linecap="round" stroke-linejoin="round" />
<path d="M 150.0 215.0 L 148.75 215.0 L 147.5 213.75 L 147.5 212.5 L 147.5 212.5 L 150.0 212.5 L 152.5 216.25 L 152.5 218.75 L 152.5 221.25 L 150.0 223.75 L 146.25 223.75 L 142.5 223.75 L 141.25 220.0 L 141.25 216.25 L 145.0 211.25 L 148.75 210.0 L 152.5 210.0 L 155.0 212.5 L 155.0 216.25 L 155.0 220.0 L 152.5 222.5 L 150.0 222.5 L 147.5 222.5 L 146.25 218.75 L 146.25 215.0 L 148.75 212.5 L 152.5 212.5 L 155.0 212.5 L 157.5 216.25 L 157.5 221.25 L 155.0 225.0 L 151.25 226.25 L 146.25 226.25 L 143.75 225.0 L 142.5 221.25 L 143.75 217.5 L 147.5 215.0 L 151.25 213.75 L 156.25 213.75 L 158.75 217.5 L 158.75 220.0 L 157.5 223.75 L 153.75 225.0 L 150.0 225.0 L 146.25 225.0 L 145.0 221.25 L 145.0 217.5 L 148.75 212.5 L 152.5 211.25 L 156.25 211.25 L 158.75 213.75 L 158.75 218.75 L 157.5 222.5 L 153.75 226.25 L 150.0 226.25 L 147.5 226.25 L 145.0 223.75 L 145.0 220.0 L 146.25 216.25 L 150.0 215.0 L 153.75 213.75 L 156.25 216.25 L 158.75 221.25 L 158.75 225.0 L 155.0 230.0 L 150.0 231.25 L 146.25 231.25 L 143.75 230.0 L 142.5 225.0 L 142.5 221.25 L 145.0 217.5 L 147.5 216.25 L 151.25 215.0 L 153.75 217.5 L 157.5 220.0 L 158.75 223.75 L 158.75 225.0 " stroke="black" fill="none" stroke-width="6.0" stroke-linecap="round" stroke-linejoin="round" />
</svg>