<svg xmlns="http://www.w3.org/2000/svg" width="300" height="300" viewBox="0 0 300 300">
<path d="M 68.75 132.5 L 65.0 132.5 L 63.75 132.5 L 63.75 135.0 L 70.0 146.25 L 75.0 166.25 L 78.75 181.25 L 78.75 183.75 " stroke="black" fill="none" stroke-width="6.0" stroke-linecap="round" stroke-linejoin="round" />
<path d="M 68.75 138.75 L 62.5 140.0 L 63.75 140.0 L 80.0 138.75 L 101.25 135.0 L 126.25 130.0 L 141.25 130.0 L 140.0 136.25 L 125.0 151.25 L 108.75 166.25 L 98.75 173.75 L 93.75 171.25 L 93.75 168.75 " stroke="black" fill="none" stroke-width="6.0" stroke-linecap="round" stroke-linejoin="round" />
<path d="M 96.25 83.75 L 95.0 82.5 L 92.5 82.5 L 92.5 88.75 L 93.75 135.0 L 95.0 203.75 L 93.75 243.75 L 90.0 255.0 L 88.75 256.25 " stroke="black" fill="none" stroke-width="6.0" stroke-linecap="round" stroke-linejoin="round" />
<path d="M 161.25 82.5 L 161.25 82.5 L 160.0 83.75 L 160.0 96.25 L 160.0 133.75 L 162.5 160.0 L 165.0 165.0 L 165.0 163.75 L 165.0 161.25 " stroke="black" fill="none" stroke-width="6.0" stroke-linecap="round" stroke-linejoin="round" />
<path d="M 161.25 100.0 L 158.75 100.0 L 157.5 100.0 L 163.75 97.5 L 180.0 91.25 L 197.5 83.75 L 208.75 78.75 L 208.75 78.75 L 203.75 83.75 " stroke="black" fill="none" stroke-width="6.0" stroke-linecap="round" stroke-linejoin="round" />
<path d="M 167.5 116.25 L 166.25 117.5 L 161.25 122.5 L 162.5 123.75 L 175.0 121.25 L 190.0 113.75 L 203.75 105.0 L 210.0 98.75 L 207.5 100.0 " stroke="black" fill="none" stroke-width="6.0" stroke-linecap="round" stroke-linejoin="round" />
<path d="M 165.0 145.0 L 161.25 147.5 L 162.5 148.75 L 175.0 145.0 L 191.25 136.25 L 203.75 126.25 L 205.0 122.5 " stroke="black" fill="none" stroke-width="6.0" stroke-linecap="round" stroke-linejoin="round" />
<path d="M 127.5 191.25 L 125.0 193.75 L 128.75 193.75 L 147.5 186.25 L 177.5 167.5 L 203.75 148.75 L 208.75 142.5 L 207.5 142.5 " stroke="black" fill="none" stroke-width="6.0" stroke-linecap="round" stroke-linejoin="round" />
<path d="M 158.75 181.25 L 153.75 193.75 L 153.75 216.25 L 160.0 238.75 L 168.75 247.5 L 182.5 242.5 L 197.5 226.25 L 211.25 206.25 L 223.75 187.5 L 232.5 172.5 L 235.0 165.0 L 223.75 166.25 L 207.5 178.75 L 190.0 193.75 L 173.75 206.25 L 168.75 211.25 L 170.0 210.0 L 176.25 208.75 L 182.5 208.75 L 187.5 208.75 L 192.5 208.75 L 197.5 208.75 L 202.5 211.25 L 212.5 213.75 L 227.5 217.5 L 247.5 220.0 L 262.5 220.0 L 266.25 218.75 " stroke="black" fill="none" stroke-width="6.0" stroke-linecap="round" stroke-linejoin="round" />
</svg>