<svg xmlns="http://www.w3.org/2000/svg" width="300" height="300" viewBox="0 0 300 300">
<path d="M 65.0 123.75 L 65.0 125.0 L 63.75 127.5 L 63.75 130.0 L 63.75 136.25 L 63.75 145.0 L 65.0 155.0 L 66.25 166.25 L 67.5 176.25 L 68.75 182.5 L 68.75 182.5 L 68.75 178.75 " stroke="black" fill="none" stroke-width="6.0" stroke-linecap="round" stroke-linejoin="round" />
<path d="M 60.0 138.75 L 60.0 138.75 L 58.75 138.75 L 57.5 138.75 L 56.25 138.75 L 71.25 137.5 L 96.25 132.5 L 118.75 127.5 L 138.75 125.0 L 140.0 125.0 L 141.25 126.25 L 138.75 131.25 L 132.5 137.5 L 123.75 146.25 L 115.0 152.5 L 106.25 158.75 L 97.5 163.75 L 91.25 165.0 L 90.0 165.0 L 86.25 162.5 " stroke="black" fill="none" stroke-width="6.0" stroke-linecap="round" stroke-linejoin="round" />
<path d="M 91.25 88.75 L 90.0 87.5 L 88.75 86.25 L 88.75 85.0 L 88.75 85.0 L 88.75 85.0 L 88.75 97.5 L 91.25 143.75 L 91.25 206.25 L 87.5 238.75 L 85.0 243.75 " stroke="black" fill="none" stroke-width="6.0" stroke-linecap="round" stroke-linejoin="round" />
<path d="M 155.0 76.25 L 155.0 76.25 L 153.75 77.5 L 153.75 78.75 L 153.75 81.25 L 153.75 88.75 L 153.75 122.5 L 155.0 131.25 L 155.0 152.5 L 156.25 160.0 L 156.25 157.5 L 156.25 156.25 " stroke="black" fill="none" stroke-width="6.0" stroke-linecap="round" stroke-linejoin="round" />
<path d="M 153.75 88.75 L 151.25 88.75 L 151.25 88.75 L 153.75 87.5 L 156.25 87.5 L 162.5 86.25 L 171.25 83.75 L 180.0 82.5 L 188.75 80.0 L 195.0 77.5 L 197.5 76.25 L 197.5 75.0 L 195.0 76.25 L 183.75 82.5 L 170.0 88.75 L 157.5 97.5 L 151.25 105.0 L 150.0 106.25 L 151.25 106.25 L 156.25 106.25 L 158.75 106.25 L 165.0 106.25 L 172.5 103.75 L 181.25 102.5 L 187.5 100.0 L 193.75 96.25 L 198.75 93.75 L 200.0 92.5 L 200.0 91.25 L 198.75 91.25 " stroke="black" fill="none" stroke-width="6.0" stroke-linecap="round" stroke-linejoin="round" />
<path d="M 160.0 126.25 L 158.75 126.25 L 157.5 128.75 L 157.5 130.0 L 157.5 130.0 L 160.0 130.0 L 166.25 130.0 L 175.0 126.25 L 183.75 121.25 L 192.5 116.25 L 198.75 111.25 L 202.5 107.5 " stroke="black" fill="none" stroke-width="6.0" stroke-linecap="round" stroke-linejoin="round" />
<path d="M 131.25 168.75 L 130.0 170.0 L 130.0 172.5 L 131.25 172.5 L 133.75 172.5 L 140.0 171.25 L 145.0 170.0 L 163.75 160.0 L 191.25 146.25 L 205.0 135.0 L 205.0 135.0 " stroke="black" fill="none" stroke-width="6.0" stroke-linecap="round" stroke-linejoin="round" />
<path d="M 155.0 160.0 L 153.75 163.75 L 150.0 172.5 L 150.0 181.25 L 150.0 192.5 L 151.25 197.5 L 156.25 213.75 L 165.0 227.5 L 177.5 230.0 L 192.5 221.25 L 203.75 208.75 L 207.5 203.75 L 218.75 191.25 L 221.25 187.5 L 228.75 181.25 L 233.75 173.75 L 238.75 166.25 L 240.0 160.0 L 238.75 157.5 L 233.75 156.25 L 225.0 156.25 L 215.0 158.75 L 195.0 170.0 L 188.75 172.5 L 170.0 183.75 L 153.75 195.0 L 150.0 197.5 L 152.5 197.5 L 156.25 197.5 L 162.5 197.5 L 163.75 197.5 L 168.75 197.5 L 173.75 197.5 L 177.5 197.5 L 181.25 197.5 L 185.0 197.5 L 187.5 198.75 L 191.25 200.0 L 191.25 200.0 L 192.5 201.25 L 195.0 203.75 L 198.75 206.25 L 201.25 206.25 L 211.25 208.75 L 216.25 208.75 L 226.25 208.75 L 238.75 208.75 L 251.25 208.75 L 255.0 208.75 " stroke="black" fill="none" stroke-width="6.0" stroke-linecap="round" stroke-linejoin="round" />
</svg>