<svg xmlns="http://www.w3.org/2000/svg" width="300" height="300" viewBox="0 0 300 300">
<path d="M 93.75 90.0 L 92.5 90.0 L 87.5 90.0 L 86.25 90.0 L 95.0 90.0 L 108.75 92.5 L 120.0 96.25 L 126.25 100.0 L 123.75 106.25 L 111.25 116.25 L 98.75 125.0 L 88.75 132.5 L 82.5 135.0 L 80.0 136.25 L 83.75 132.5 L 91.25 125.0 L 100.0 115.0 L 110.0 105.0 L 117.5 101.25 L 121.25 103.75 L 118.75 121.25 L 110.0 141.25 L 103.75 156.25 L 101.25 161.25 L 105.0 157.5 L 117.5 143.75 L 135.0 123.75 L 147.5 102.5 L 150.0 97.5 " stroke="black" fill="none" stroke-width="6.0" stroke-linecap="round" stroke-linejoin="round" />
<path d="M 153.75 73.75 L 151.25 73.75 L 150.0 73.75 L 155.0 72.5 L 168.75 68.75 L 186.25 62.5 L 197.5 57.5 L 200.0 57.5 L 196.25 60.0 " stroke="black" fill="none" stroke-width="6.0" stroke-linecap="round" stroke-linejoin="round" />
<path d="M 156.25 87.5 L 155.0 92.5 L 155.0 101.25 L 157.5 120.0 L 161.25 137.5 L 163.75 146.25 L 163.75 147.5 L 163.75 142.5 " stroke="black" fill="none" stroke-width="6.0" stroke-linecap="round" stroke-linejoin="round" />
<path d="M 161.25 98.75 L 158.75 97.5 L 157.5 96.25 L 157.5 95.0 L 163.75 92.5 L 177.5 91.25 L 192.5 90.0 L 203.75 93.75 L 207.5 102.5 L 202.5 118.75 L 190.0 135.0 L 178.75 143.75 L 172.5 145.0 " stroke="black" fill="none" stroke-width="6.0" stroke-linecap="round" stroke-linejoin="round" />
<path d="M 160.0 127.5 L 158.75 127.5 L 156.25 127.5 L 158.75 125.0 L 175.0 117.5 L 192.5 106.25 L 203.75 97.5 L 202.5 96.25 L 201.25 97.5 " stroke="black" fill="none" stroke-width="6.0" stroke-linecap="round" stroke-linejoin="round" />
<path d="M 166.25 138.75 L 162.5 142.5 L 166.25 143.75 L 178.75 138.75 L 195.0 128.75 L 201.25 122.5 " stroke="black" fill="none" stroke-width="6.0" stroke-linecap="round" stroke-linejoin="round" />
<path d="M 118.75 170.0 L 116.25 171.25 L 106.25 173.75 L 106.25 175.0 L 113.75 176.25 L 132.5 176.25 L 153.75 172.5 L 176.25 165.0 L 192.5 160.0 L 193.75 158.75 L 183.75 165.0 L 163.75 183.75 L 140.0 205.0 L 108.75 233.75 L 87.5 255.0 L 82.5 256.25 " stroke="black" fill="none" stroke-width="6.0" stroke-linecap="round" stroke-linejoin="round" />
<path d="M 133.75 205.0 L 130.0 206.25 L 128.75 208.75 L 135.0 223.75 L 145.0 250.0 L 151.25 266.25 L 155.0 271.25 L 155.0 271.25 L 153.75 266.25 L 150.0 258.75 L 146.25 252.5 L 141.25 245.0 L 136.25 238.75 L 132.5 232.5 L 132.5 231.25 L 137.5 228.75 L 150.0 222.5 L 168.75 216.25 L 191.25 211.25 L 203.75 210.0 L 205.0 213.75 L 196.25 227.5 L 182.5 245.0 L 165.0 261.25 L 153.75 275.0 L 152.5 277.5 L 160.0 276.25 L 177.5 267.5 L 197.5 256.25 L 211.25 246.25 L 217.5 241.25 " stroke="black" fill="none" stroke-width="6.0" stroke-linecap="round" stroke-linejoin="round" />
</svg>