<svg xmlns="http://www.w3.org/2000/svg" width="300" height="300" viewBox="0 0 300 300">
<path d="M 101.25 93.75 L 100.0 95.0 L 96.25 98.75 L 97.5 100.0 L 117.5 100.0 L 150.0 92.5 L 186.25 80.0 L 207.5 70.0 L 208.75 67.5 L 201.25 70.0 L 191.25 73.75 " stroke="black" fill="none" stroke-width="6.0" stroke-linecap="round" stroke-linejoin="round" />
<path d="M 155.0 90.0 L 155.0 91.25 L 153.75 97.5 L 152.5 116.25 L 153.75 161.25 L 155.0 208.75 L 152.5 233.75 L 148.75 245.0 L 143.75 246.25 L 138.75 238.75 L 138.75 236.25 " stroke="black" fill="none" stroke-width="6.0" stroke-linecap="round" stroke-linejoin="round" />
<path d="M 153.75 142.5 L 155.0 142.5 L 161.25 148.75 L 183.75 167.5 L 211.25 188.75 L 236.25 201.25 L 240.0 205.0 " stroke="black" fill="none" stroke-width="6.0" stroke-linecap="round" stroke-linejoin="round" />
</svg>