<svg xmlns="http://www.w3.org/2000/svg" width="300" height="300" viewBox="0 0 300 300">
<path d="M 98.75 133.75 L 93.75 135.0 L 88.75 135.0 L 87.5 136.25 L 92.5 136.25 L 115.0 133.75 L 141.25 128.75 L 167.5 122.5 L 186.25 120.0 L 191.25 123.75 L 188.75 142.5 L 183.75 175.0 L 181.25 206.25 L 185.0 226.25 L 197.5 236.25 L 213.75 238.75 L 232.5 237.5 L 245.0 231.25 L 247.5 225.0 L 247.5 218.75 L 240.0 211.25 L 231.25 202.5 L 228.75 200.0 " stroke="black" fill="none" stroke-width="6.0" stroke-linecap="round" stroke-linejoin="round" />
<path d="M 142.5 70.0 L 142.5 70.0 L 140.0 71.25 L 140.0 83.75 L 138.75 131.25 L 130.0 190.0 L 112.5 223.75 L 97.5 241.25 L 83.75 247.5 " stroke="black" fill="none" stroke-width="6.0" stroke-linecap="round" stroke-linejoin="round" />
</svg>