<svg xmlns="http://www.w3.org/2000/svg" width="300" height="300" viewBox="0 0 300 300">
<path d="M 90.0 133.75 L 86.25 136.25 L 83.75 138.75 L 90.0 138.75 L 110.0 135.0 L 136.25 128.75 L 161.25 118.75 L 175.0 111.25 L 177.5 111.25 L 176.25 123.75 L 173.75 145.0 L 175.0 173.75 L 185.0 202.5 L 202.5 215.0 L 218.75 218.75 L 237.5 212.5 L 246.25 203.75 L 246.25 195.0 L 235.0 188.75 L 218.75 181.25 L 210.0 176.25 " stroke="black" fill="none" stroke-width="6.0" stroke-linecap="round" stroke-linejoin="round" />
<path d="M 148.75 72.5 L 147.5 71.25 L 146.25 71.25 L 143.75 85.0 L 138.75 135.0 L 126.25 190.0 L 110.0 216.25 L 95.0 220.0 L 92.5 220.0 " stroke="black" fill="none" stroke-width="6.0" stroke-linecap="round" stroke-linejoin="round" />
</svg>