<svg xmlns="http://www.w3.org/2000/svg" width="300" height="300" viewBox="0 0 300 300">
<path d="M 106.25 100.0 L 106.25 100.0 L 100.0 105.0 L 93.75 113.75 L 86.25 133.75 L 73.75 152.5 L 62.5 157.5 L 61.25 156.25 " stroke="black" fill="none" stroke-width="6.0" stroke-linecap="round" stroke-linejoin="round" />
<path d="M 112.5 123.75 L 112.5 123.75 L 113.75 127.5 L 108.75 140.0 L 97.5 163.75 L 85.0 187.5 L 75.0 195.0 L 72.5 193.75 L 75.0 187.5 L 83.75 176.25 L 91.25 166.25 L 98.75 160.0 L 103.75 163.75 L 105.0 186.25 L 101.25 217.5 L 92.5 245.0 L 85.0 253.75 L 81.25 252.5 " stroke="black" fill="none" stroke-width="6.0" stroke-linecap="round" stroke-linejoin="round" />
<path d="M 150.0 76.25 L 148.75 76.25 L 146.25 78.75 L 145.0 88.75 L 145.0 103.75 L 145.0 111.25 L 148.75 113.75 L 157.5 107.5 L 168.75 97.5 L 180.0 87.5 L 185.0 82.5 L 185.0 83.75 L 175.0 95.0 L 161.25 120.0 L 150.0 142.5 L 147.5 151.25 L 148.75 148.75 L 157.5 141.25 L 168.75 130.0 L 181.25 118.75 L 190.0 111.25 L 192.5 108.75 L 187.5 118.75 L 175.0 138.75 L 161.25 158.75 L 151.25 177.5 L 148.75 181.25 L 152.5 178.75 L 161.25 171.25 L 173.75 160.0 L 187.5 151.25 L 197.5 143.75 L 198.75 143.75 L 193.75 152.5 L 181.25 171.25 L 166.25 190.0 L 151.25 206.25 L 145.0 213.75 L 145.0 213.75 L 151.25 208.75 L 162.5 198.75 L 176.25 188.75 L 193.75 180.0 L 207.5 172.5 L 212.5 173.75 L 207.5 186.25 L 195.0 206.25 L 176.25 227.5 L 153.75 248.75 L 138.75 257.5 L 131.25 257.5 L 127.5 251.25 " stroke="black" fill="none" stroke-width="6.0" stroke-linecap="round" stroke-linejoin="round" />
<path d="M 133.75 213.75 L 133.75 211.25 L 132.5 208.75 L 132.5 207.5 L 132.5 207.5 L 135.0 207.5 L 137.5 207.5 L 138.75 208.75 L 141.25 210.0 L 143.75 211.25 L 146.25 213.75 L 148.75 215.0 L 151.25 217.5 L 155.0 218.75 L 163.75 223.75 L 178.75 231.25 L 200.0 243.75 L 217.5 256.25 L 231.25 266.25 L 232.5 268.75 " stroke="black" fill="none" stroke-width="6.0" stroke-linecap="round" stroke-linejoin="round" />
</svg>