<svg xmlns="http://www.w3.org/2000/svg" width="300" height="300" viewBox="0 0 300 300">
<path d="M 98.75 101.25 L 98.75 101.25 L 96.25 101.25 L 90.0 117.5 L 75.0 160.0 L 58.75 202.5 L 48.75 223.75 L 45.0 225.0 " stroke="black" fill="none" stroke-width="6.0" stroke-linecap="round" stroke-linejoin="round" />
<path d="M 88.75 116.25 L 90.0 116.25 L 96.25 121.25 L 115.0 135.0 L 136.25 146.25 L 150.0 151.25 L 148.75 152.5 " stroke="black" fill="none" stroke-width="6.0" stroke-linecap="round" stroke-linejoin="round" />
<path d="M 82.5 165.0 L 81.25 165.0 L 78.75 166.25 L 82.5 166.25 L 93.75 162.5 L 107.5 156.25 L 116.25 151.25 L 116.25 151.25 " stroke="black" fill="none" stroke-width="6.0" stroke-linecap="round" stroke-linejoin="round" />
<path d="M 76.25 197.5 L 75.0 198.75 L 73.75 200.0 L 77.5 200.0 L 91.25 192.5 L 105.0 181.25 L 113.75 171.25 L 112.5 167.5 L 102.5 170.0 L 96.25 172.5 L 91.25 173.75 L 91.25 178.75 L 92.5 191.25 L 95.0 212.5 L 96.25 231.25 L 93.75 237.5 " stroke="black" fill="none" stroke-width="6.0" stroke-linecap="round" stroke-linejoin="round" />
<path d="M 72.5 197.5 L 71.25 197.5 L 68.75 200.0 L 68.75 210.0 L 73.75 228.75 L 82.5 241.25 L 88.75 241.25 " stroke="black" fill="none" stroke-width="6.0" stroke-linecap="round" stroke-linejoin="round" />
<path d="M 122.5 185.0 L 118.75 186.25 L 111.25 195.0 L 101.25 211.25 L 91.25 230.0 L 88.75 240.0 L 91.25 240.0 L 105.0 232.5 L 126.25 218.75 L 145.0 205.0 L 157.5 192.5 L 157.5 187.5 " stroke="black" fill="none" stroke-width="6.0" stroke-linecap="round" stroke-linejoin="round" />
<path d="M 152.5 123.75 L 152.5 123.75 L 151.25 125.0 L 148.75 140.0 L 147.5 183.75 L 147.5 213.75 L 151.25 226.25 L 152.5 230.0 L 152.5 222.5 " stroke="black" fill="none" stroke-width="6.0" stroke-linecap="round" stroke-linejoin="round" />
<path d="M 152.5 127.5 L 152.5 126.25 L 151.25 123.75 L 152.5 121.25 L 163.75 115.0 L 183.75 106.25 L 203.75 105.0 L 213.75 116.25 L 217.5 142.5 L 217.5 177.5 L 218.75 208.75 L 221.25 235.0 L 223.75 246.25 L 225.0 246.25 L 225.0 246.25 L 221.25 241.25 L 215.0 232.5 L 206.25 220.0 L 198.75 210.0 " stroke="black" fill="none" stroke-width="6.0" stroke-linecap="round" stroke-linejoin="round" />
<path d="M 152.5 197.5 L 145.0 198.75 L 142.5 198.75 L 150.0 196.25 L 167.5 185.0 L 187.5 170.0 L 203.75 155.0 L 206.25 145.0 L 198.75 143.75 " stroke="black" fill="none" stroke-width="6.0" stroke-linecap="round" stroke-linejoin="round" />
<path d="M 168.75 140.0 L 168.75 140.0 L 168.75 141.25 L 171.25 151.25 L 177.5 185.0 L 180.0 212.5 L 180.0 223.75 L 171.25 227.5 L 160.0 228.75 L 150.0 230.0 L 145.0 230.0 L 145.0 230.0 L 148.75 230.0 L 161.25 230.0 L 177.5 227.5 L 196.25 221.25 L 211.25 213.75 L 213.75 212.5 " stroke="black" fill="none" stroke-width="6.0" stroke-linecap="round" stroke-linejoin="round" />
</svg>