<svg xmlns="http://www.w3.org/2000/svg" width="300" height="300" viewBox="0 0 300 300">
<path d="M 92.5 91.25 L 92.5 90.0 L 91.25 90.0 L 92.5 91.25 L 98.75 105.0 L 105.0 127.5 L 110.0 142.5 L 111.25 143.75 L 111.25 143.75 " stroke="black" fill="none" stroke-width="6.0" stroke-linecap="round" stroke-linejoin="round" />
<path d="M 126.25 81.25 L 126.25 82.5 L 126.25 93.75 L 128.75 116.25 L 128.75 131.25 L 130.0 138.75 L 130.0 138.75 " stroke="black" fill="none" stroke-width="6.0" stroke-linecap="round" stroke-linejoin="round" />
<path d="M 148.75 72.5 L 148.75 72.5 L 148.75 72.5 L 151.25 72.5 L 162.5 73.75 L 176.25 73.75 L 183.75 73.75 L 181.25 73.75 L 178.75 75.0 " stroke="black" fill="none" stroke-width="6.0" stroke-linecap="round" stroke-linejoin="round" />
<path d="M 148.75 83.75 L 146.25 83.75 L 145.0 85.0 L 147.5 85.0 L 158.75 85.0 L 171.25 83.75 L 182.5 81.25 L 182.5 82.5 " stroke="black" fill="none" stroke-width="6.0" stroke-linecap="round" stroke-linejoin="round" />
<path d="M 142.5 107.5 L 141.25 108.75 L 140.0 110.0 L 145.0 108.75 L 160.0 102.5 L 173.75 95.0 L 191.25 85.0 L 190.0 82.5 " stroke="black" fill="none" stroke-width="6.0" stroke-linecap="round" stroke-linejoin="round" />
<path d="M 166.25 66.25 L 165.0 65.0 L 163.75 65.0 L 162.5 81.25 L 160.0 108.75 L 153.75 135.0 " stroke="black" fill="none" stroke-width="6.0" stroke-linecap="round" stroke-linejoin="round" />
<path d="M 95.0 138.75 L 95.0 138.75 L 93.75 138.75 L 92.5 142.5 L 87.5 166.25 L 80.0 196.25 L 73.75 210.0 L 70.0 207.5 L 70.0 200.0 " stroke="black" fill="none" stroke-width="6.0" stroke-linecap="round" stroke-linejoin="round" />
<path d="M 98.75 152.5 L 113.75 145.0 L 138.75 141.25 L 163.75 140.0 L 191.25 140.0 L 203.75 141.25 L 200.0 143.75 " stroke="black" fill="none" stroke-width="6.0" stroke-linecap="round" stroke-linejoin="round" />
<path d="M 133.75 158.75 L 130.0 160.0 L 128.75 161.25 L 136.25 163.75 L 150.0 165.0 L 162.5 166.25 L 167.5 167.5 L 163.75 171.25 L 152.5 178.75 L 143.75 183.75 L 138.75 186.25 L 138.75 187.5 L 147.5 187.5 L 158.75 190.0 L 170.0 195.0 L 176.25 207.5 L 173.75 225.0 L 163.75 241.25 L 153.75 250.0 L 145.0 253.75 L 135.0 253.75 L 123.75 251.25 L 111.25 245.0 L 102.5 236.25 L 97.5 226.25 L 96.25 220.0 L 97.5 218.75 L 110.0 218.75 L 133.75 217.5 L 160.0 213.75 L 188.75 207.5 L 210.0 200.0 L 215.0 197.5 " stroke="black" fill="none" stroke-width="6.0" stroke-linecap="round" stroke-linejoin="round" />
</svg>