<svg xmlns="http://www.w3.org/2000/svg" width="300" height="300" viewBox="0 0 300 300">
<path d="M 157.5 92.5 L 157.5 91.25 L 157.5 90.0 L 157.5 110.0 L 162.5 161.25 L 163.75 207.5 L 165.0 226.25 L 165.0 228.75 L 163.75 228.75 L 158.75 220.0 L 151.25 205.0 L 143.75 192.5 " stroke="black" fill="none" stroke-width="6.0" stroke-linecap="round" stroke-linejoin="round" />
<path d="M 92.5 156.25 L 91.25 156.25 L 88.75 157.5 L 87.5 158.75 L 91.25 161.25 L 101.25 165.0 L 112.5 168.75 L 118.75 181.25 L 112.5 200.0 L 101.25 217.5 L 97.5 222.5 L 101.25 215.0 L 121.25 193.75 L 148.75 163.75 L 176.25 138.75 L 191.25 126.25 L 195.0 125.0 L 195.0 132.5 L 195.0 150.0 L 200.0 165.0 L 215.0 171.25 L 237.5 172.5 L 251.25 178.75 L 251.25 196.25 L 240.0 221.25 L 223.75 250.0 L 215.0 260.0 " stroke="black" fill="none" stroke-width="6.0" stroke-linecap="round" stroke-linejoin="round" />
</svg>