<svg xmlns="http://www.w3.org/2000/svg" width="300" height="300" viewBox="0 0 300 300">
<path d="M 171.25 87.5 L 171.25 86.25 L 170.0 80.0 L 170.0 78.75 L 170.0 81.25 L 172.5 103.75 L 177.5 151.25 L 181.25 205.0 L 183.75 230.0 L 185.0 238.75 L 185.0 241.25 L 185.0 241.25 L 182.5 241.25 L 177.5 237.5 L 156.25 217.5 L 142.5 205.0 " stroke="black" fill="none" stroke-width="6.0" stroke-linecap="round" stroke-linejoin="round" />
<path d="M 91.25 158.75 L 91.25 158.75 L 88.75 161.25 L 91.25 161.25 L 106.25 161.25 L 126.25 161.25 L 141.25 165.0 L 143.75 175.0 L 132.5 192.5 L 120.0 206.25 L 111.25 215.0 L 107.5 218.75 L 112.5 216.25 L 128.75 205.0 L 148.75 186.25 L 172.5 163.75 L 197.5 141.25 L 210.0 131.25 L 211.25 131.25 L 210.0 138.75 L 207.5 153.75 L 206.25 166.25 L 210.0 175.0 L 218.75 177.5 L 235.0 177.5 L 246.25 181.25 L 251.25 195.0 L 243.75 216.25 L 233.75 238.75 L 226.25 252.5 L 222.5 257.5 " stroke="black" fill="none" stroke-width="6.0" stroke-linecap="round" stroke-linejoin="round" />
</svg>