<svg xmlns="http://www.w3.org/2000/svg" width="300" height="300" viewBox="0 0 300 300">
<path d="M 172.5 92.5 L 171.25 88.75 L 168.75 87.5 L 168.75 91.25 L 171.25 122.5 L 177.5 178.75 L 182.5 223.75 L 185.0 240.0 L 185.0 241.25 L 185.0 240.0 L 177.5 236.25 L 165.0 227.5 L 150.0 213.75 L 133.75 197.5 " stroke="black" fill="none" stroke-width="6.0" stroke-linecap="round" stroke-linejoin="round" />
<path d="M 90.0 165.0 L 86.25 166.25 L 85.0 166.25 L 87.5 167.5 L 101.25 168.75 L 120.0 170.0 L 132.5 176.25 L 130.0 195.0 L 113.75 217.5 L 101.25 233.75 L 100.0 235.0 L 112.5 221.25 L 138.75 195.0 L 168.75 161.25 L 193.75 137.5 L 205.0 128.75 L 206.25 130.0 L 207.5 141.25 L 210.0 158.75 L 216.25 175.0 L 231.25 183.75 L 250.0 186.25 L 261.25 192.5 L 260.0 205.0 L 251.25 226.25 L 240.0 248.75 " stroke="black" fill="none" stroke-width="6.0" stroke-linecap="round" stroke-linejoin="round" />
</svg>