<svg xmlns="http://www.w3.org/2000/svg" width="300" height="300" viewBox="0 0 300 300">
<path d="M 90.0 82.5 L 90.0 81.25 L 91.25 77.5 L 91.25 76.25 L 91.25 76.25 L 87.5 85.0 L 80.0 95.0 L 72.5 105.0 L 67.5 110.0 L 68.75 110.0 L 76.25 106.25 L 88.75 100.0 L 97.5 95.0 L 105.0 92.5 L 106.25 97.5 L 101.25 112.5 L 91.25 136.25 L 78.75 157.5 L 65.0 172.5 L 52.5 178.75 L 46.25 177.5 " stroke="black" fill="none" stroke-width="6.0" stroke-linecap="round" stroke-linejoin="round" />
<path d="M 63.75 123.75 L 63.75 122.5 L 65.0 120.0 L 70.0 118.75 L 78.75 121.25 L 87.5 126.25 L 92.5 131.25 L 92.5 135.0 " stroke="black" fill="none" stroke-width="6.0" stroke-linecap="round" stroke-linejoin="round" />
<path d="M 58.75 141.25 L 53.75 142.5 L 51.25 143.75 L 56.25 143.75 L 67.5 145.0 L 77.5 145.0 " stroke="black" fill="none" stroke-width="6.0" stroke-linecap="round" stroke-linejoin="round" />
<path d="M 85.0 166.25 L 83.75 161.25 L 83.75 158.75 L 83.75 158.75 L 83.75 160.0 L 83.75 166.25 L 83.75 173.75 L 83.75 178.75 L 83.75 180.0 L 85.0 180.0 L 90.0 173.75 L 97.5 165.0 L 103.75 158.75 L 106.25 156.25 L 105.0 156.25 L 101.25 162.5 " stroke="black" fill="none" stroke-width="6.0" stroke-linecap="round" stroke-linejoin="round" />
<path d="M 58.75 213.75 L 56.25 216.25 L 55.0 217.5 L 67.5 216.25 L 85.0 207.5 L 102.5 196.25 L 117.5 185.0 L 122.5 181.25 L 118.75 180.0 L 108.75 183.75 L 102.5 186.25 " stroke="black" fill="none" stroke-width="6.0" stroke-linecap="round" stroke-linejoin="round" />
<path d="M 93.75 178.75 L 93.75 177.5 L 93.75 177.5 L 93.75 177.5 L 93.75 187.5 L 95.0 205.0 L 93.75 223.75 L 90.0 232.5 L 87.5 233.75 " stroke="black" fill="none" stroke-width="6.0" stroke-linecap="round" stroke-linejoin="round" />
<path d="M 71.25 212.5 L 68.75 210.0 L 68.75 208.75 L 68.75 210.0 L 72.5 217.5 L 76.25 226.25 L 82.5 231.25 L 91.25 232.5 L 102.5 223.75 L 112.5 213.75 L 120.0 206.25 L 122.5 203.75 L 122.5 203.75 L 120.0 203.75 L 117.5 203.75 L 117.5 203.75 L 116.25 203.75 L 116.25 203.75 L 115.0 202.5 L 115.0 202.5 L 115.0 201.25 L 115.0 201.25 L 115.0 200.0 L 113.75 200.0 L 113.75 200.0 L 113.75 200.0 L 115.0 201.25 L 120.0 207.5 L 125.0 220.0 L 127.5 232.5 " stroke="black" fill="none" stroke-width="6.0" stroke-linecap="round" stroke-linejoin="round" />
<path d="M 141.25 113.75 L 140.0 111.25 L 138.75 112.5 L 140.0 135.0 L 141.25 173.75 L 142.5 205.0 L 140.0 218.75 L 135.0 220.0 L 133.75 220.0 " stroke="black" fill="none" stroke-width="6.0" stroke-linecap="round" stroke-linejoin="round" />
<path d="M 147.5 100.0 L 147.5 98.75 L 148.75 98.75 L 156.25 96.25 L 175.0 92.5 L 195.0 88.75 L 208.75 87.5 L 212.5 87.5 L 212.5 95.0 L 211.25 113.75 L 210.0 143.75 L 213.75 177.5 L 221.25 206.25 L 231.25 228.75 L 242.5 243.75 L 251.25 248.75 L 257.5 248.75 L 258.75 248.75 L 260.0 247.5 L 260.0 246.25 L 260.0 246.25 L 260.0 243.75 L 258.75 240.0 L 256.25 233.75 L 253.75 221.25 L 248.75 200.0 " stroke="black" fill="none" stroke-width="6.0" stroke-linecap="round" stroke-linejoin="round" />
<path d="M 152.5 136.25 L 151.25 136.25 L 150.0 137.5 L 156.25 136.25 L 168.75 131.25 L 182.5 122.5 L 188.75 115.0 L 188.75 113.75 " stroke="black" fill="none" stroke-width="6.0" stroke-linecap="round" stroke-linejoin="round" />
<path d="M 155.0 145.0 L 155.0 146.25 L 152.5 155.0 L 155.0 170.0 L 161.25 185.0 L 167.5 191.25 L 168.75 191.25 L 168.75 186.25 L 166.25 180.0 L 161.25 175.0 L 157.5 170.0 L 153.75 167.5 L 153.75 165.0 L 156.25 162.5 L 168.75 157.5 L 185.0 151.25 L 198.75 147.5 L 200.0 147.5 L 193.75 156.25 L 182.5 167.5 L 168.75 178.75 L 157.5 186.25 L 155.0 186.25 " stroke="black" fill="none" stroke-width="6.0" stroke-linecap="round" stroke-linejoin="round" />
<path d="M 171.25 132.5 L 171.25 131.25 L 170.0 131.25 L 168.75 135.0 L 168.75 153.75 L 170.0 187.5 L 171.25 208.75 L 171.25 215.0 L 171.25 215.0 L 171.25 213.75 L 172.5 212.5 L 177.5 210.0 L 182.5 206.25 L 188.75 201.25 L 193.75 196.25 L 197.5 191.25 L 198.75 188.75 L 198.75 187.5 L 197.5 187.5 L 195.0 186.25 L 192.5 186.25 L 191.25 185.0 L 190.0 185.0 L 190.0 185.0 L 190.0 185.0 L 190.0 185.0 L 190.0 185.0 L 193.75 188.75 L 198.75 196.25 L 205.0 208.75 L 207.5 220.0 " stroke="black" fill="none" stroke-width="6.0" stroke-linecap="round" stroke-linejoin="round" />
</svg>