<svg xmlns="http://www.w3.org/2000/svg" width="300" height="300" viewBox="0 0 300 300">
<path d="M 88.75 130.0 L 87.5 130.0 L 85.0 132.5 L 91.25 133.75 L 107.5 135.0 L 128.75 132.5 L 141.25 128.75 L 141.25 128.75 " stroke="black" fill="none" stroke-width="6.0" stroke-linecap="round" stroke-linejoin="round" />
<path d="M 82.5 188.75 L 81.25 190.0 L 78.75 193.75 L 86.25 192.5 L 100.0 185.0 L 120.0 170.0 L 136.25 156.25 L 141.25 148.75 L 138.75 147.5 L 132.5 153.75 L 126.25 165.0 L 125.0 188.75 L 125.0 222.5 L 128.75 247.5 L 130.0 257.5 L 125.0 257.5 L 118.75 255.0 " stroke="black" fill="none" stroke-width="6.0" stroke-linecap="round" stroke-linejoin="round" />
<path d="M 113.75 181.25 L 111.25 181.25 L 107.5 183.75 L 101.25 198.75 L 96.25 218.75 L 95.0 227.5 L 97.5 228.75 L 111.25 223.75 L 132.5 213.75 L 153.75 200.0 L 172.5 185.0 L 181.25 171.25 L 182.5 167.5 " stroke="black" fill="none" stroke-width="6.0" stroke-linecap="round" stroke-linejoin="round" />
<path d="M 186.25 127.5 L 183.75 126.25 L 181.25 125.0 L 181.25 127.5 L 181.25 150.0 L 180.0 193.75 L 178.75 222.5 L 186.25 235.0 L 196.25 241.25 L 210.0 243.75 L 226.25 245.0 L 242.5 245.0 L 251.25 241.25 L 253.75 237.5 L 253.75 235.0 L 253.75 232.5 L 253.75 230.0 L 253.75 226.25 L 255.0 223.75 L 255.0 218.75 L 255.0 211.25 L 255.0 200.0 L 252.5 185.0 " stroke="black" fill="none" stroke-width="6.0" stroke-linecap="round" stroke-linejoin="round" />
</svg>