<svg xmlns="http://www.w3.org/2000/svg" width="300" height="300" viewBox="0 0 300 300">
<path d="M 108.75 91.25 L 105.0 93.75 L 98.75 97.5 L 105.0 98.75 L 125.0 100.0 L 152.5 93.75 L 182.5 81.25 L 201.25 70.0 L 202.5 66.25 L 192.5 66.25 L 175.0 75.0 L 168.75 77.5 " stroke="black" fill="none" stroke-width="6.0" stroke-linecap="round" stroke-linejoin="round" />
<path d="M 103.75 127.5 L 102.5 130.0 L 100.0 135.0 L 103.75 145.0 L 113.75 166.25 L 122.5 187.5 L 126.25 195.0 L 126.25 195.0 L 122.5 190.0 " stroke="black" fill="none" stroke-width="6.0" stroke-linecap="round" stroke-linejoin="round" />
<path d="M 111.25 146.25 L 110.0 146.25 L 106.25 145.0 L 115.0 141.25 L 138.75 135.0 L 172.5 126.25 L 202.5 125.0 L 216.25 130.0 L 216.25 142.5 L 203.75 158.75 L 187.5 175.0 L 172.5 185.0 L 156.25 187.5 L 152.5 187.5 " stroke="black" fill="none" stroke-width="6.0" stroke-linecap="round" stroke-linejoin="round" />
<path d="M 127.5 178.75 L 126.25 178.75 L 123.75 178.75 L 128.75 175.0 L 147.5 165.0 L 175.0 151.25 L 196.25 141.25 L 201.25 138.75 L 196.25 140.0 " stroke="black" fill="none" stroke-width="6.0" stroke-linecap="round" stroke-linejoin="round" />
<path d="M 137.5 198.75 L 135.0 202.5 L 138.75 201.25 L 153.75 191.25 L 176.25 172.5 L 196.25 151.25 L 200.0 140.0 L 196.25 138.75 " stroke="black" fill="none" stroke-width="6.0" stroke-linecap="round" stroke-linejoin="round" />
<path d="M 153.75 108.75 L 153.75 110.0 L 153.75 117.5 L 156.25 136.25 L 158.75 171.25 L 153.75 211.25 L 143.75 240.0 L 130.0 252.5 L 111.25 260.0 L 95.0 261.25 L 83.75 257.5 " stroke="black" fill="none" stroke-width="6.0" stroke-linecap="round" stroke-linejoin="round" />
<path d="M 90.0 200.0 L 90.0 200.0 L 91.25 202.5 L 98.75 208.75 L 118.75 222.5 L 146.25 240.0 L 172.5 248.75 L 201.25 253.75 L 225.0 257.5 L 243.75 260.0 L 255.0 260.0 L 260.0 258.75 " stroke="black" fill="none" stroke-width="6.0" stroke-linecap="round" stroke-linejoin="round" />
</svg>