<svg xmlns="http://www.w3.org/2000/svg" width="300" height="300" viewBox="0 0 300 300">
<path d="M 88.75 91.25 L 87.5 91.25 L 83.75 98.75 L 76.25 120.0 L 67.5 157.5 L 58.75 193.75 L 53.75 208.75 L 52.5 208.75 " stroke="black" fill="none" stroke-width="6.0" stroke-linecap="round" stroke-linejoin="round" />
<path d="M 83.75 102.5 L 83.75 103.75 L 90.0 107.5 L 106.25 120.0 L 127.5 133.75 L 142.5 145.0 L 140.0 151.25 " stroke="black" fill="none" stroke-width="6.0" stroke-linecap="round" stroke-linejoin="round" />
<path d="M 75.0 160.0 L 73.75 160.0 L 71.25 160.0 L 72.5 160.0 L 81.25 160.0 L 91.25 160.0 L 100.0 161.25 L 103.75 162.5 L 102.5 168.75 L 95.0 175.0 L 86.25 182.5 L 78.75 187.5 L 76.25 190.0 L 77.5 190.0 L 85.0 188.75 L 93.75 185.0 L 103.75 182.5 L 108.75 181.25 L 110.0 182.5 L 103.75 190.0 L 95.0 197.5 L 86.25 205.0 L 77.5 210.0 L 75.0 213.75 L 75.0 215.0 L 82.5 218.75 L 91.25 223.75 L 102.5 228.75 L 115.0 233.75 L 123.75 236.25 " stroke="black" fill="none" stroke-width="6.0" stroke-linecap="round" stroke-linejoin="round" />
<path d="M 147.5 95.0 L 145.0 96.25 L 142.5 96.25 L 143.75 96.25 L 152.5 96.25 L 165.0 93.75 L 177.5 91.25 L 183.75 90.0 L 186.25 90.0 L 178.75 91.25 L 167.5 100.0 L 155.0 111.25 L 146.25 126.25 L 143.75 137.5 L 143.75 141.25 L 143.75 141.25 " stroke="black" fill="none" stroke-width="6.0" stroke-linecap="round" stroke-linejoin="round" />
<path d="M 148.75 132.5 L 148.75 132.5 L 147.5 132.5 L 146.25 135.0 L 146.25 152.5 L 147.5 187.5 L 151.25 212.5 L 156.25 221.25 L 157.5 221.25 L 158.75 213.75 L 158.75 212.5 " stroke="black" fill="none" stroke-width="6.0" stroke-linecap="round" stroke-linejoin="round" />
<path d="M 150.0 145.0 L 147.5 142.5 L 147.5 138.75 L 152.5 133.75 L 163.75 126.25 L 180.0 117.5 L 192.5 113.75 L 200.0 121.25 L 202.5 143.75 L 203.75 173.75 L 205.0 196.25 L 205.0 208.75 L 205.0 212.5 L 205.0 212.5 L 205.0 210.0 L 203.75 205.0 L 202.5 201.25 " stroke="black" fill="none" stroke-width="6.0" stroke-linecap="round" stroke-linejoin="round" />
<path d="M 152.5 165.0 L 151.25 165.0 L 148.75 166.25 L 147.5 167.5 L 147.5 167.5 L 156.25 161.25 L 168.75 152.5 L 182.5 142.5 L 191.25 135.0 L 191.25 135.0 L 188.75 136.25 " stroke="black" fill="none" stroke-width="6.0" stroke-linecap="round" stroke-linejoin="round" />
<path d="M 155.0 187.5 L 153.75 188.75 L 153.75 190.0 L 158.75 187.5 L 172.5 180.0 L 186.25 168.75 L 192.5 161.25 L 191.25 161.25 L 187.5 165.0 " stroke="black" fill="none" stroke-width="6.0" stroke-linecap="round" stroke-linejoin="round" />
<path d="M 152.5 217.5 L 150.0 220.0 L 150.0 223.75 L 156.25 221.25 L 170.0 211.25 L 187.5 200.0 L 200.0 191.25 L 202.5 188.75 L 198.75 193.75 L 191.25 206.25 L 180.0 223.75 L 167.5 243.75 L 158.75 255.0 L 156.25 255.0 L 157.5 248.75 " stroke="black" fill="none" stroke-width="6.0" stroke-linecap="round" stroke-linejoin="round" />
<path d="M 185.0 218.75 L 185.0 218.75 L 185.0 218.75 L 185.0 218.75 L 185.0 218.75 L 185.0 218.75 L 185.0 218.75 L 186.25 218.75 L 186.25 218.75 L 187.5 218.75 L 187.5 218.75 L 187.5 218.75 L 187.5 220.0 L 188.75 220.0 L 188.75 220.0 L 188.75 221.25 L 193.75 225.0 L 202.5 233.75 L 216.25 243.75 L 223.75 248.75 L 223.75 250.0 " stroke="black" fill="none" stroke-width="6.0" stroke-linecap="round" stroke-linejoin="round" />
</svg>