<svg xmlns="http://www.w3.org/2000/svg" width="300" height="300" viewBox="0 0 300 300">
<path d="M 102.5 76.25 L 102.5 75.0 L 102.5 76.25 L 103.75 101.25 L 106.25 148.75 L 110.0 180.0 L 112.5 188.75 L 113.75 186.25 L 113.75 183.75 " stroke="black" fill="none" stroke-width="6.0" stroke-linecap="round" stroke-linejoin="round" />
<path d="M 101.25 96.25 L 100.0 91.25 L 100.0 87.5 L 106.25 81.25 L 121.25 72.5 L 142.5 65.0 L 160.0 62.5 L 170.0 73.75 L 175.0 97.5 L 175.0 132.5 L 173.75 157.5 L 173.75 168.75 L 173.75 171.25 L 173.75 168.75 L 170.0 158.75 L 165.0 151.25 " stroke="black" fill="none" stroke-width="6.0" stroke-linecap="round" stroke-linejoin="round" />
<path d="M 117.5 123.75 L 116.25 123.75 L 110.0 125.0 L 110.0 126.25 L 122.5 120.0 L 138.75 108.75 L 153.75 96.25 L 157.5 91.25 " stroke="black" fill="none" stroke-width="6.0" stroke-linecap="round" stroke-linejoin="round" />
<path d="M 115.0 152.5 L 113.75 153.75 L 115.0 153.75 L 128.75 148.75 L 142.5 138.75 L 162.5 122.5 L 163.75 121.25 " stroke="black" fill="none" stroke-width="6.0" stroke-linecap="round" stroke-linejoin="round" />
<path d="M 116.25 193.75 L 115.0 195.0 L 117.5 193.75 L 131.25 183.75 L 151.25 165.0 L 162.5 152.5 L 161.25 152.5 L 152.5 166.25 L 141.25 187.5 L 127.5 215.0 L 115.0 245.0 L 112.5 252.5 L 121.25 236.25 " stroke="black" fill="none" stroke-width="6.0" stroke-linecap="round" stroke-linejoin="round" />
<path d="M 162.5 168.75 L 162.5 168.75 L 162.5 176.25 L 162.5 201.25 L 168.75 230.0 L 186.25 243.75 L 205.0 241.25 L 221.25 230.0 L 235.0 221.25 L 240.0 215.0 L 241.25 215.0 L 240.0 215.0 L 236.25 213.75 L 232.5 207.5 L 228.75 190.0 L 221.25 161.25 " stroke="black" fill="none" stroke-width="6.0" stroke-linecap="round" stroke-linejoin="round" />
</svg>