<svg xmlns="http://www.w3.org/2000/svg" width="300" height="300" viewBox="0 0 300 300">
<path d="M 120.0 91.25 L 118.75 87.5 L 117.5 86.25 L 117.5 91.25 L 117.5 120.0 L 117.5 158.75 L 121.25 186.25 L 126.25 191.25 L 126.25 187.5 " stroke="black" fill="none" stroke-width="6.0" stroke-linecap="round" stroke-linejoin="round" />
<path d="M 120.0 85.0 L 120.0 83.75 L 122.5 81.25 L 136.25 76.25 L 153.75 71.25 L 172.5 71.25 L 185.0 83.75 L 187.5 112.5 L 188.75 150.0 L 187.5 173.75 L 186.25 183.75 L 186.25 185.0 L 185.0 178.75 L 180.0 166.25 L 173.75 156.25 " stroke="black" fill="none" stroke-width="6.0" stroke-linecap="round" stroke-linejoin="round" />
<path d="M 126.25 128.75 L 121.25 128.75 L 118.75 128.75 L 122.5 127.5 L 137.5 118.75 L 152.5 110.0 L 162.5 102.5 L 162.5 101.25 " stroke="black" fill="none" stroke-width="6.0" stroke-linecap="round" stroke-linejoin="round" />
<path d="M 127.5 150.0 L 126.25 150.0 L 125.0 151.25 L 128.75 151.25 L 143.75 141.25 L 160.0 130.0 L 168.75 125.0 L 168.75 125.0 " stroke="black" fill="none" stroke-width="6.0" stroke-linecap="round" stroke-linejoin="round" />
<path d="M 120.0 195.0 L 118.75 196.25 L 117.5 197.5 L 127.5 193.75 L 146.25 178.75 L 170.0 157.5 L 183.75 146.25 L 182.5 146.25 L 172.5 153.75 L 158.75 173.75 L 147.5 197.5 L 135.0 228.75 L 130.0 245.0 L 131.25 242.5 L 136.25 231.25 " stroke="black" fill="none" stroke-width="6.0" stroke-linecap="round" stroke-linejoin="round" />
<path d="M 170.0 176.25 L 170.0 176.25 L 170.0 176.25 L 170.0 190.0 L 171.25 220.0 L 183.75 242.5 L 202.5 247.5 L 223.75 240.0 L 243.75 231.25 L 255.0 223.75 L 256.25 222.5 L 256.25 222.5 L 253.75 222.5 L 250.0 216.25 L 247.5 203.75 L 242.5 182.5 L 237.5 156.25 " stroke="black" fill="none" stroke-width="6.0" stroke-linecap="round" stroke-linejoin="round" />
</svg>