<svg xmlns="http://www.w3.org/2000/svg" width="300" height="300" viewBox="0 0 300 300">
<path d="M 96.25 77.5 L 92.5 77.5 L 88.75 77.5 L 88.75 77.5 L 97.5 77.5 L 111.25 78.75 L 123.75 78.75 L 131.25 80.0 L 126.25 82.5 " stroke="black" fill="none" stroke-width="6.0" stroke-linecap="round" stroke-linejoin="round" />
<path d="M 67.5 113.75 L 61.25 116.25 L 60.0 116.25 L 71.25 113.75 L 90.0 105.0 L 108.75 95.0 L 126.25 86.25 L 132.5 83.75 L 130.0 85.0 L 118.75 92.5 L 106.25 105.0 L 93.75 123.75 L 81.25 141.25 L 75.0 148.75 L 72.5 148.75 " stroke="black" fill="none" stroke-width="6.0" stroke-linecap="round" stroke-linejoin="round" />
<path d="M 87.5 113.75 L 87.5 113.75 L 87.5 112.5 L 87.5 112.5 L 88.75 113.75 L 97.5 121.25 L 108.75 131.25 L 116.25 138.75 L 116.25 143.75 L 111.25 145.0 " stroke="black" fill="none" stroke-width="6.0" stroke-linecap="round" stroke-linejoin="round" />
<path d="M 61.25 141.25 L 61.25 141.25 L 60.0 141.25 L 62.5 145.0 L 71.25 152.5 L 81.25 158.75 L 91.25 161.25 L 98.75 156.25 L 108.75 146.25 L 120.0 135.0 L 128.75 126.25 L 133.75 118.75 L 135.0 117.5 L 133.75 117.5 L 132.5 117.5 L 130.0 117.5 L 128.75 117.5 L 128.75 117.5 L 128.75 117.5 L 127.5 117.5 L 127.5 117.5 L 127.5 117.5 L 127.5 117.5 L 127.5 117.5 L 127.5 117.5 L 127.5 117.5 L 127.5 117.5 L 131.25 118.75 L 137.5 123.75 L 145.0 131.25 L 147.5 140.0 " stroke="black" fill="none" stroke-width="6.0" stroke-linecap="round" stroke-linejoin="round" />
<path d="M 73.75 187.5 L 72.5 187.5 L 70.0 187.5 L 70.0 190.0 L 76.25 202.5 L 82.5 221.25 L 85.0 235.0 L 85.0 241.25 L 83.75 240.0 L 83.75 238.75 " stroke="black" fill="none" stroke-width="6.0" stroke-linecap="round" stroke-linejoin="round" />
<path d="M 81.25 202.5 L 78.75 201.25 L 78.75 198.75 L 87.5 193.75 L 106.25 183.75 L 128.75 173.75 L 140.0 168.75 L 142.5 171.25 L 142.5 185.0 L 142.5 203.75 L 141.25 222.5 L 140.0 235.0 L 140.0 238.75 L 138.75 238.75 L 136.25 235.0 L 131.25 228.75 L 123.75 221.25 " stroke="black" fill="none" stroke-width="6.0" stroke-linecap="round" stroke-linejoin="round" />
<path d="M 97.5 161.25 L 97.5 161.25 L 95.0 161.25 L 93.75 162.5 L 93.75 170.0 L 95.0 195.0 L 95.0 211.25 L 95.0 215.0 L 95.0 215.0 L 100.0 211.25 L 108.75 207.5 L 116.25 201.25 L 121.25 197.5 L 121.25 193.75 L 120.0 191.25 L 117.5 190.0 L 115.0 188.75 L 112.5 187.5 L 112.5 187.5 L 112.5 187.5 L 112.5 187.5 L 113.75 190.0 L 120.0 195.0 L 126.25 201.25 L 130.0 207.5 " stroke="black" fill="none" stroke-width="6.0" stroke-linecap="round" stroke-linejoin="round" />
<path d="M 180.0 83.75 L 178.75 81.25 L 177.5 80.0 L 176.25 81.25 L 170.0 97.5 L 161.25 125.0 L 151.25 146.25 L 150.0 148.75 L 152.5 142.5 L 156.25 135.0 L 162.5 126.25 L 167.5 118.75 L 171.25 113.75 L 175.0 117.5 L 178.75 137.5 L 180.0 175.0 L 178.75 207.5 L 173.75 228.75 L 170.0 235.0 L 168.75 231.25 L 168.75 227.5 " stroke="black" fill="none" stroke-width="6.0" stroke-linecap="round" stroke-linejoin="round" />
<path d="M 186.25 102.5 L 183.75 102.5 L 182.5 102.5 L 188.75 102.5 L 200.0 102.5 L 212.5 102.5 L 221.25 101.25 L 223.75 100.0 L 218.75 100.0 L 212.5 102.5 " stroke="black" fill="none" stroke-width="6.0" stroke-linecap="round" stroke-linejoin="round" />
<path d="M 183.75 136.25 L 180.0 140.0 L 181.25 140.0 L 191.25 136.25 L 205.0 127.5 L 216.25 117.5 L 221.25 111.25 L 218.75 111.25 " stroke="black" fill="none" stroke-width="6.0" stroke-linecap="round" stroke-linejoin="round" />
<path d="M 186.25 180.0 L 183.75 183.75 L 190.0 185.0 L 202.5 177.5 L 220.0 162.5 L 233.75 147.5 L 237.5 140.0 L 232.5 138.75 " stroke="black" fill="none" stroke-width="6.0" stroke-linecap="round" stroke-linejoin="round" />
<path d="M 207.5 133.75 L 206.25 133.75 L 205.0 138.75 L 208.75 155.0 L 213.75 186.25 L 215.0 208.75 L 213.75 217.5 L 208.75 220.0 L 207.5 220.0 " stroke="black" fill="none" stroke-width="6.0" stroke-linecap="round" stroke-linejoin="round" />
<path d="M 197.5 206.25 L 193.75 206.25 L 191.25 207.5 L 192.5 206.25 L 201.25 201.25 L 211.25 193.75 L 222.5 186.25 L 230.0 181.25 L 231.25 180.0 L 223.75 185.0 L 218.75 188.75 " stroke="black" fill="none" stroke-width="6.0" stroke-linecap="round" stroke-linejoin="round" />
<path d="M 191.25 228.75 L 190.0 231.25 L 187.5 235.0 L 191.25 235.0 L 202.5 231.25 L 218.75 221.25 L 236.25 210.0 L 248.75 201.25 L 251.25 198.75 L 251.25 198.75 L 248.75 198.75 L 248.75 200.0 L 247.5 201.25 L 246.25 201.25 L 246.25 202.5 L 246.25 202.5 L 246.25 202.5 L 246.25 203.75 " stroke="black" fill="none" stroke-width="6.0" stroke-linecap="round" stroke-linejoin="round" />
</svg>