<svg xmlns="http://www.w3.org/2000/svg" width="300" height="300" viewBox="0 0 300 300">
<path d="M 76.25 88.75 L 71.25 90.0 L 67.5 91.25 L 70.0 91.25 L 83.75 91.25 L 96.25 90.0 L 107.5 90.0 L 110.0 91.25 L 105.0 100.0 L 95.0 113.75 L 87.5 126.25 L 85.0 132.5 L 90.0 135.0 L 98.75 135.0 L 107.5 136.25 L 113.75 142.5 L 112.5 153.75 L 105.0 167.5 L 98.75 178.75 L 93.75 182.5 L 91.25 180.0 L 88.75 170.0 L 85.0 158.75 L 81.25 148.75 L 77.5 138.75 L 72.5 131.25 L 68.75 128.75 L 66.25 127.5 L 66.25 138.75 L 70.0 165.0 L 72.5 202.5 L 72.5 241.25 L 71.25 256.25 " stroke="black" fill="none" stroke-width="6.0" stroke-linecap="round" stroke-linejoin="round" />
<path d="M 142.5 73.75 L 141.25 73.75 L 140.0 73.75 L 140.0 82.5 L 142.5 100.0 L 146.25 115.0 L 148.75 120.0 L 148.75 120.0 " stroke="black" fill="none" stroke-width="6.0" stroke-linecap="round" stroke-linejoin="round" />
<path d="M 142.5 82.5 L 141.25 80.0 L 143.75 77.5 L 155.0 73.75 L 173.75 71.25 L 188.75 73.75 L 193.75 80.0 L 188.75 90.0 L 176.25 103.75 L 160.0 112.5 L 153.75 113.75 " stroke="black" fill="none" stroke-width="6.0" stroke-linecap="round" stroke-linejoin="round" />
<path d="M 143.75 101.25 L 143.75 101.25 L 143.75 101.25 L 145.0 98.75 L 155.0 95.0 L 172.5 87.5 L 187.5 82.5 L 188.75 81.25 " stroke="black" fill="none" stroke-width="6.0" stroke-linecap="round" stroke-linejoin="round" />
<path d="M 145.0 120.0 L 145.0 120.0 L 145.0 120.0 L 148.75 118.75 L 162.5 111.25 L 182.5 101.25 L 191.25 95.0 L 188.75 95.0 " stroke="black" fill="none" stroke-width="6.0" stroke-linecap="round" stroke-linejoin="round" />
<path d="M 128.75 150.0 L 128.75 150.0 L 128.75 150.0 L 136.25 148.75 L 158.75 138.75 L 183.75 127.5 L 192.5 123.75 L 188.75 125.0 L 172.5 140.0 L 152.5 158.75 L 130.0 183.75 L 112.5 201.25 L 110.0 203.75 L 113.75 201.25 L 121.25 196.25 L 130.0 191.25 L 136.25 187.5 L 143.75 183.75 L 151.25 181.25 L 163.75 177.5 L 185.0 172.5 L 207.5 167.5 L 221.25 163.75 L 225.0 165.0 L 223.75 173.75 L 215.0 190.0 L 206.25 205.0 L 197.5 217.5 L 188.75 226.25 L 182.5 228.75 L 180.0 228.75 " stroke="black" fill="none" stroke-width="6.0" stroke-linecap="round" stroke-linejoin="round" />
<path d="M 157.5 185.0 L 151.25 191.25 L 147.5 198.75 L 146.25 213.75 L 146.25 226.25 L 148.75 230.0 " stroke="black" fill="none" stroke-width="6.0" stroke-linecap="round" stroke-linejoin="round" />
<path d="M 182.5 171.25 L 182.5 171.25 L 181.25 175.0 L 177.5 195.0 L 173.75 223.75 L 170.0 236.25 " stroke="black" fill="none" stroke-width="6.0" stroke-linecap="round" stroke-linejoin="round" />
</svg>