<svg xmlns="http://www.w3.org/2000/svg" width="300" height="300" viewBox="0 0 300 300">
<path d="M 113.75 97.5 L 112.5 97.5 L 110.0 101.25 L 111.25 122.5 L 115.0 165.0 L 117.5 201.25 L 117.5 208.75 L 116.25 205.0 L 115.0 201.25 " stroke="black" fill="none" stroke-width="6.0" stroke-linecap="round" stroke-linejoin="round" />
<path d="M 117.5 110.0 L 117.5 108.75 L 121.25 105.0 L 136.25 97.5 L 156.25 91.25 L 175.0 91.25 L 187.5 103.75 L 190.0 131.25 L 188.75 162.5 L 186.25 186.25 L 185.0 197.5 L 185.0 201.25 L 185.0 201.25 L 185.0 197.5 L 182.5 192.5 " stroke="black" fill="none" stroke-width="6.0" stroke-linecap="round" stroke-linejoin="round" />
<path d="M 128.75 146.25 L 127.5 146.25 L 125.0 147.5 L 132.5 143.75 L 147.5 138.75 L 162.5 132.5 L 175.0 127.5 L 175.0 127.5 " stroke="black" fill="none" stroke-width="6.0" stroke-linecap="round" stroke-linejoin="round" />
<path d="M 132.5 166.25 L 130.0 171.25 L 133.75 172.5 L 147.5 168.75 L 163.75 163.75 L 181.25 156.25 L 182.5 155.0 " stroke="black" fill="none" stroke-width="6.0" stroke-linecap="round" stroke-linejoin="round" />
<path d="M 83.75 230.0 L 81.25 231.25 L 77.5 232.5 L 78.75 231.25 L 91.25 223.75 L 115.0 216.25 L 147.5 213.75 L 180.0 212.5 L 208.75 212.5 L 223.75 212.5 L 232.5 212.5 L 235.0 212.5 L 235.0 212.5 L 231.25 212.5 L 225.0 212.5 " stroke="black" fill="none" stroke-width="6.0" stroke-linecap="round" stroke-linejoin="round" />
</svg>