<svg xmlns="http://www.w3.org/2000/svg" width="300" height="300" viewBox="0 0 300 300">
<path d="M 86.25 95.0 L 86.25 95.0 L 86.25 93.75 L 86.25 96.25 L 87.5 111.25 L 87.5 126.25 L 88.75 132.5 L 96.25 128.75 L 107.5 113.75 L 116.25 101.25 L 120.0 95.0 L 120.0 93.75 L 117.5 93.75 L 116.25 93.75 L 115.0 93.75 L 115.0 93.75 L 115.0 93.75 L 120.0 95.0 L 128.75 97.5 L 138.75 101.25 L 143.75 106.25 " stroke="black" fill="none" stroke-width="6.0" stroke-linecap="round" stroke-linejoin="round" />
<path d="M 92.5 146.25 L 91.25 146.25 L 88.75 146.25 L 88.75 153.75 L 91.25 187.5 L 93.75 222.5 L 96.25 237.5 L 96.25 238.75 " stroke="black" fill="none" stroke-width="6.0" stroke-linecap="round" stroke-linejoin="round" />
<path d="M 88.75 168.75 L 86.25 163.75 L 87.5 157.5 L 96.25 151.25 L 110.0 145.0 L 125.0 145.0 L 135.0 163.75 L 137.5 196.25 L 136.25 220.0 L 132.5 235.0 L 132.5 237.5 L 131.25 232.5 L 128.75 222.5 L 126.25 216.25 " stroke="black" fill="none" stroke-width="6.0" stroke-linecap="round" stroke-linejoin="round" />
<path d="M 103.75 178.75 L 101.25 178.75 L 96.25 177.5 L 95.0 177.5 L 98.75 173.75 L 113.75 165.0 L 128.75 155.0 L 133.75 151.25 " stroke="black" fill="none" stroke-width="6.0" stroke-linecap="round" stroke-linejoin="round" />
<path d="M 97.5 202.5 L 93.75 207.5 L 92.5 207.5 L 101.25 201.25 L 121.25 185.0 L 143.75 165.0 " stroke="black" fill="none" stroke-width="6.0" stroke-linecap="round" stroke-linejoin="round" />
<path d="M 176.25 125.0 L 175.0 125.0 L 170.0 125.0 L 171.25 125.0 L 182.5 120.0 L 201.25 108.75 L 217.5 98.75 L 226.25 92.5 L 221.25 93.75 " stroke="black" fill="none" stroke-width="6.0" stroke-linecap="round" stroke-linejoin="round" />
<path d="M 161.25 175.0 L 158.75 178.75 L 155.0 183.75 L 163.75 182.5 L 182.5 171.25 L 206.25 151.25 L 223.75 133.75 L 226.25 126.25 L 223.75 125.0 " stroke="black" fill="none" stroke-width="6.0" stroke-linecap="round" stroke-linejoin="round" />
<path d="M 197.5 105.0 L 197.5 103.75 L 196.25 102.5 L 196.25 103.75 L 196.25 126.25 L 196.25 160.0 L 200.0 185.0 L 210.0 192.5 L 228.75 188.75 L 245.0 185.0 L 253.75 185.0 L 253.75 196.25 L 245.0 213.75 L 232.5 235.0 L 223.75 248.75 L 222.5 251.25 L 222.5 247.5 L 221.25 243.75 " stroke="black" fill="none" stroke-width="6.0" stroke-linecap="round" stroke-linejoin="round" />
</svg>