<svg xmlns="http://www.w3.org/2000/svg" width="300" height="300" viewBox="0 0 300 300">
<path d="M 86.25 108.75 L 83.75 111.25 L 81.25 115.0 L 81.25 122.5 L 85.0 136.25 L 87.5 146.25 L 91.25 147.5 L 96.25 141.25 L 105.0 128.75 L 112.5 116.25 L 117.5 106.25 L 118.75 101.25 L 118.75 101.25 L 117.5 101.25 L 116.25 101.25 L 116.25 102.5 L 117.5 103.75 L 123.75 106.25 L 135.0 111.25 L 145.0 117.5 L 150.0 126.25 L 150.0 131.25 " stroke="black" fill="none" stroke-width="6.0" stroke-linecap="round" stroke-linejoin="round" />
<path d="M 93.75 165.0 L 91.25 165.0 L 87.5 165.0 L 86.25 166.25 L 90.0 180.0 L 95.0 205.0 L 98.75 228.75 L 98.75 240.0 L 98.75 241.25 L 98.75 235.0 " stroke="black" fill="none" stroke-width="6.0" stroke-linecap="round" stroke-linejoin="round" />
<path d="M 93.75 183.75 L 88.75 178.75 L 88.75 173.75 L 95.0 166.25 L 106.25 156.25 L 120.0 148.75 L 132.5 146.25 L 140.0 156.25 L 142.5 180.0 L 145.0 206.25 L 145.0 226.25 L 146.25 238.75 L 146.25 243.75 L 143.75 243.75 L 141.25 240.0 L 140.0 238.75 " stroke="black" fill="none" stroke-width="6.0" stroke-linecap="round" stroke-linejoin="round" />
<path d="M 101.25 193.75 L 100.0 193.75 L 97.5 195.0 L 100.0 192.5 L 113.75 185.0 L 128.75 176.25 L 141.25 166.25 L 142.5 165.0 " stroke="black" fill="none" stroke-width="6.0" stroke-linecap="round" stroke-linejoin="round" />
<path d="M 111.25 212.5 L 110.0 213.75 L 107.5 216.25 L 115.0 212.5 L 131.25 201.25 L 150.0 183.75 L 153.75 180.0 " stroke="black" fill="none" stroke-width="6.0" stroke-linecap="round" stroke-linejoin="round" />
<path d="M 167.5 136.25 L 167.5 137.5 L 163.75 138.75 L 167.5 137.5 L 180.0 132.5 L 195.0 123.75 L 207.5 115.0 L 212.5 111.25 L 207.5 118.75 " stroke="black" fill="none" stroke-width="6.0" stroke-linecap="round" stroke-linejoin="round" />
<path d="M 155.0 191.25 L 155.0 192.5 L 153.75 193.75 L 160.0 192.5 L 177.5 181.25 L 198.75 162.5 L 211.25 147.5 L 212.5 142.5 L 211.25 142.5 " stroke="black" fill="none" stroke-width="6.0" stroke-linecap="round" stroke-linejoin="round" />
<path d="M 185.0 111.25 L 183.75 110.0 L 178.75 107.5 L 177.5 113.75 L 177.5 137.5 L 178.75 168.75 L 185.0 190.0 L 195.0 193.75 L 206.25 193.75 L 217.5 190.0 L 228.75 190.0 L 236.25 193.75 L 236.25 208.75 L 230.0 227.5 L 218.75 245.0 L 211.25 255.0 L 207.5 256.25 L 205.0 255.0 L 205.0 253.75 " stroke="black" fill="none" stroke-width="6.0" stroke-linecap="round" stroke-linejoin="round" />
</svg>