<svg xmlns="http://www.w3.org/2000/svg" width="300" height="300" viewBox="0 0 300 300">
<path d="M 83.75 146.25 L 82.5 146.25 L 78.75 150.0 L 85.0 153.75 L 105.0 157.5 L 140.0 158.75 L 180.0 152.5 L 208.75 145.0 L 218.75 140.0 L 213.75 140.0 L 208.75 140.0 " stroke="black" fill="none" stroke-width="6.0" stroke-linecap="round" stroke-linejoin="round" />
<path d="M 143.75 85.0 L 142.5 85.0 L 142.5 87.5 L 148.75 105.0 L 158.75 147.5 L 162.5 191.25 L 157.5 216.25 L 150.0 227.5 L 142.5 235.0 L 133.75 238.75 L 123.75 238.75 L 115.0 238.75 L 110.0 238.75 L 108.75 237.5 L 108.75 237.5 L 112.5 237.5 L 121.25 237.5 L 136.25 237.5 L 156.25 233.75 L 177.5 228.75 L 193.75 225.0 L 203.75 220.0 L 205.0 217.5 " stroke="black" fill="none" stroke-width="6.0" stroke-linecap="round" stroke-linejoin="round" />
</svg>