<svg xmlns="http://www.w3.org/2000/svg" width="300" height="300" viewBox="0 0 300 300">
<path d="M 101.25 92.5 L 103.75 92.5 L 103.75 96.25 L 96.25 113.75 L 85.0 142.5 L 71.25 166.25 L 61.25 177.5 L 57.5 176.25 " stroke="black" fill="none" stroke-width="6.0" stroke-linecap="round" stroke-linejoin="round" />
<path d="M 95.0 138.75 L 96.25 147.5 L 98.75 167.5 L 101.25 200.0 L 98.75 233.75 L 91.25 256.25 L 85.0 263.75 " stroke="black" fill="none" stroke-width="6.0" stroke-linecap="round" stroke-linejoin="round" />
<path d="M 136.25 113.75 L 133.75 115.0 L 132.5 116.25 L 140.0 113.75 L 157.5 106.25 L 183.75 96.25 L 203.75 86.25 L 212.5 80.0 L 208.75 77.5 " stroke="black" fill="none" stroke-width="6.0" stroke-linecap="round" stroke-linejoin="round" />
<path d="M 162.5 82.5 L 163.75 82.5 L 167.5 83.75 L 172.5 95.0 L 176.25 116.25 L 172.5 137.5 L 165.0 146.25 L 156.25 148.75 L 151.25 148.75 L 151.25 148.75 L 156.25 146.25 L 168.75 141.25 L 185.0 136.25 L 198.75 130.0 L 205.0 123.75 L 206.25 122.5 " stroke="black" fill="none" stroke-width="6.0" stroke-linecap="round" stroke-linejoin="round" />
<path d="M 136.25 190.0 L 131.25 192.5 L 135.0 193.75 L 153.75 187.5 L 182.5 176.25 L 212.5 163.75 L 231.25 153.75 L 235.0 147.5 L 230.0 146.25 L 227.5 146.25 " stroke="black" fill="none" stroke-width="6.0" stroke-linecap="round" stroke-linejoin="round" />
<path d="M 211.25 145.0 L 211.25 146.25 L 210.0 151.25 L 210.0 167.5 L 212.5 202.5 L 213.75 241.25 L 215.0 260.0 L 215.0 262.5 L 213.75 263.75 L 208.75 263.75 L 201.25 262.5 L 188.75 258.75 L 173.75 251.25 L 167.5 246.25 " stroke="black" fill="none" stroke-width="6.0" stroke-linecap="round" stroke-linejoin="round" />
<path d="M 156.25 195.0 L 156.25 196.25 L 156.25 196.25 L 162.5 203.75 L 175.0 212.5 L 178.75 215.0 " stroke="black" fill="none" stroke-width="6.0" stroke-linecap="round" stroke-linejoin="round" />
</svg>