<svg xmlns="http://www.w3.org/2000/svg" width="300" height="300" viewBox="0 0 300 300">
<path d="M 96.25 101.25 L 97.5 97.5 L 97.5 93.75 L 98.75 92.5 L 98.75 97.5 L 97.5 116.25 L 88.75 141.25 L 76.25 162.5 L 66.25 171.25 L 63.75 171.25 " stroke="black" fill="none" stroke-width="6.0" stroke-linecap="round" stroke-linejoin="round" />
<path d="M 96.25 140.0 L 97.5 140.0 L 98.75 142.5 L 100.0 152.5 L 100.0 180.0 L 93.75 210.0 L 86.25 238.75 L 76.25 251.25 " stroke="black" fill="none" stroke-width="6.0" stroke-linecap="round" stroke-linejoin="round" />
<path d="M 141.25 96.25 L 138.75 98.75 L 137.5 100.0 L 146.25 98.75 L 160.0 93.75 L 176.25 87.5 L 187.5 81.25 L 188.75 78.75 L 180.0 78.75 L 170.0 80.0 L 163.75 80.0 L 160.0 80.0 L 158.75 81.25 L 161.25 86.25 L 163.75 97.5 L 165.0 112.5 L 161.25 125.0 L 155.0 133.75 L 147.5 137.5 L 142.5 138.75 L 141.25 140.0 L 142.5 140.0 L 146.25 138.75 L 153.75 136.25 L 162.5 132.5 L 171.25 126.25 L 177.5 121.25 L 180.0 117.5 L 180.0 117.5 " stroke="black" fill="none" stroke-width="6.0" stroke-linecap="round" stroke-linejoin="round" />
<path d="M 103.75 197.5 L 103.75 200.0 L 102.5 203.75 L 102.5 205.0 L 118.75 197.5 L 148.75 178.75 L 185.0 156.25 L 208.75 141.25 L 217.5 133.75 L 218.75 130.0 L 211.25 130.0 L 203.75 132.5 L 197.5 133.75 L 192.5 135.0 L 190.0 136.25 L 190.0 136.25 L 190.0 138.75 L 193.75 148.75 L 197.5 178.75 L 200.0 221.25 L 200.0 250.0 L 200.0 257.5 L 197.5 260.0 L 195.0 260.0 L 188.75 258.75 L 180.0 253.75 L 171.25 248.75 " stroke="black" fill="none" stroke-width="6.0" stroke-linecap="round" stroke-linejoin="round" />
<path d="M 152.5 183.75 L 152.5 183.75 L 152.5 182.5 L 152.5 181.25 L 157.5 190.0 L 165.0 205.0 L 166.25 208.75 " stroke="black" fill="none" stroke-width="6.0" stroke-linecap="round" stroke-linejoin="round" />
</svg>