<svg xmlns="http://www.w3.org/2000/svg" width="300" height="300" viewBox="0 0 300 300">
<path d="M 103.75 86.25 L 100.0 87.5 L 93.75 88.75 L 93.75 90.0 L 105.0 90.0 L 128.75 87.5 L 156.25 80.0 L 181.25 72.5 L 188.75 71.25 L 188.75 75.0 L 181.25 86.25 L 177.5 105.0 L 181.25 132.5 L 193.75 152.5 L 208.75 160.0 L 223.75 161.25 L 231.25 162.5 L 232.5 163.75 L 226.25 162.5 L 217.5 157.5 L 213.75 153.75 " stroke="black" fill="none" stroke-width="6.0" stroke-linecap="round" stroke-linejoin="round" />
<path d="M 221.25 83.75 L 220.0 83.75 L 215.0 83.75 L 206.25 88.75 L 196.25 97.5 L 186.25 106.25 L 180.0 110.0 L 180.0 111.25 L 186.25 112.5 L 198.75 115.0 L 211.25 116.25 L 221.25 117.5 L 222.5 117.5 " stroke="black" fill="none" stroke-width="6.0" stroke-linecap="round" stroke-linejoin="round" />
<path d="M 96.25 122.5 L 96.25 122.5 L 93.75 123.75 L 92.5 123.75 L 98.75 126.25 L 112.5 126.25 L 130.0 123.75 L 142.5 120.0 L 143.75 120.0 " stroke="black" fill="none" stroke-width="6.0" stroke-linecap="round" stroke-linejoin="round" />
<path d="M 66.25 173.75 L 66.25 173.75 L 66.25 175.0 L 73.75 175.0 L 95.0 167.5 L 127.5 153.75 L 150.0 145.0 L 155.0 143.75 L 152.5 146.25 L 143.75 156.25 L 137.5 170.0 L 135.0 193.75 L 143.75 220.0 L 158.75 240.0 L 182.5 248.75 L 207.5 253.75 L 228.75 256.25 L 242.5 256.25 L 247.5 256.25 L 246.25 255.0 L 237.5 251.25 L 223.75 242.5 L 215.0 237.5 " stroke="black" fill="none" stroke-width="6.0" stroke-linecap="round" stroke-linejoin="round" />
<path d="M 208.75 173.75 L 208.75 172.5 L 205.0 171.25 L 198.75 170.0 L 185.0 178.75 L 167.5 191.25 L 148.75 201.25 L 137.5 205.0 L 136.25 205.0 L 137.5 205.0 L 147.5 202.5 L 165.0 201.25 L 187.5 200.0 L 208.75 200.0 L 218.75 200.0 L 218.75 200.0 " stroke="black" fill="none" stroke-width="6.0" stroke-linecap="round" stroke-linejoin="round" />
<path d="M 86.25 150.0 L 85.0 150.0 L 83.75 152.5 L 85.0 168.75 L 88.75 197.5 L 90.0 217.5 L 88.75 225.0 L 85.0 225.0 " stroke="black" fill="none" stroke-width="6.0" stroke-linecap="round" stroke-linejoin="round" />
<path d="M 110.0 146.25 L 111.25 145.0 L 115.0 152.5 L 117.5 182.5 L 113.75 216.25 L 102.5 245.0 L 92.5 256.25 " stroke="black" fill="none" stroke-width="6.0" stroke-linecap="round" stroke-linejoin="round" />
</svg>