<svg xmlns="http://www.w3.org/2000/svg" width="300" height="300" viewBox="0 0 300 300">
<path d="M 131.25 63.75 L 130.0 63.75 L 127.5 63.75 L 126.25 65.0 L 133.75 67.5 L 145.0 71.25 L 157.5 73.75 L 158.75 73.75 " stroke="black" fill="none" stroke-width="6.0" stroke-linecap="round" stroke-linejoin="round" />
<path d="M 82.5 100.0 L 81.25 100.0 L 77.5 97.5 L 75.0 96.25 L 75.0 96.25 L 75.0 98.75 L 78.75 111.25 L 85.0 123.75 L 88.75 131.25 L 88.75 132.5 " stroke="black" fill="none" stroke-width="6.0" stroke-linecap="round" stroke-linejoin="round" />
<path d="M 80.0 108.75 L 76.25 106.25 L 73.75 105.0 L 73.75 102.5 L 85.0 97.5 L 107.5 92.5 L 142.5 85.0 L 180.0 78.75 L 208.75 76.25 L 216.25 77.5 L 213.75 82.5 L 198.75 92.5 L 186.25 100.0 " stroke="black" fill="none" stroke-width="6.0" stroke-linecap="round" stroke-linejoin="round" />
<path d="M 115.0 108.75 L 115.0 108.75 L 112.5 108.75 L 111.25 108.75 L 108.75 115.0 L 102.5 126.25 L 97.5 136.25 L 96.25 138.75 L 96.25 138.75 L 102.5 135.0 L 112.5 128.75 L 122.5 123.75 L 130.0 121.25 L 132.5 122.5 L 127.5 135.0 L 115.0 152.5 L 100.0 173.75 L 88.75 191.25 L 82.5 198.75 L 80.0 197.5 L 80.0 196.25 " stroke="black" fill="none" stroke-width="6.0" stroke-linecap="round" stroke-linejoin="round" />
<path d="M 83.75 148.75 L 82.5 148.75 L 80.0 146.25 L 81.25 146.25 L 85.0 146.25 L 92.5 148.75 L 97.5 151.25 L 101.25 155.0 L 101.25 156.25 " stroke="black" fill="none" stroke-width="6.0" stroke-linecap="round" stroke-linejoin="round" />
<path d="M 76.25 158.75 L 72.5 160.0 L 66.25 160.0 L 66.25 161.25 L 70.0 165.0 L 80.0 168.75 L 90.0 171.25 " stroke="black" fill="none" stroke-width="6.0" stroke-linecap="round" stroke-linejoin="round" />
<path d="M 151.25 111.25 L 150.0 111.25 L 147.5 111.25 L 146.25 111.25 L 146.25 115.0 L 156.25 126.25 L 175.0 140.0 L 200.0 151.25 L 222.5 156.25 L 238.75 157.5 L 246.25 157.5 L 245.0 155.0 " stroke="black" fill="none" stroke-width="6.0" stroke-linecap="round" stroke-linejoin="round" />
<path d="M 185.0 112.5 L 181.25 113.75 L 176.25 113.75 L 175.0 113.75 L 177.5 115.0 L 186.25 116.25 L 193.75 116.25 L 200.0 117.5 L 202.5 118.75 L 198.75 125.0 L 185.0 136.25 " stroke="black" fill="none" stroke-width="6.0" stroke-linecap="round" stroke-linejoin="round" />
<path d="M 123.75 176.25 L 121.25 176.25 L 118.75 176.25 L 123.75 173.75 L 137.5 163.75 L 152.5 153.75 L 163.75 146.25 L 168.75 143.75 L 163.75 146.25 L 153.75 153.75 " stroke="black" fill="none" stroke-width="6.0" stroke-linecap="round" stroke-linejoin="round" />
<path d="M 121.25 197.5 L 118.75 200.0 L 120.0 201.25 L 131.25 200.0 L 148.75 188.75 L 167.5 172.5 L 177.5 160.0 L 177.5 157.5 L 168.75 161.25 L 161.25 168.75 L 155.0 177.5 L 151.25 183.75 L 151.25 191.25 L 152.5 206.25 L 156.25 230.0 L 158.75 247.5 L 158.75 256.25 L 158.75 257.5 L 158.75 256.25 L 157.5 255.0 L 153.75 251.25 L 148.75 247.5 L 146.25 246.25 " stroke="black" fill="none" stroke-width="6.0" stroke-linecap="round" stroke-linejoin="round" />
<path d="M 107.5 213.75 L 107.5 213.75 L 106.25 212.5 L 106.25 212.5 L 110.0 213.75 L 115.0 223.75 L 122.5 236.25 L 128.75 245.0 L 131.25 245.0 " stroke="black" fill="none" stroke-width="6.0" stroke-linecap="round" stroke-linejoin="round" />
<path d="M 182.5 192.5 L 182.5 192.5 L 182.5 192.5 L 182.5 192.5 L 182.5 192.5 L 182.5 192.5 L 183.75 192.5 L 183.75 192.5 L 185.0 192.5 L 185.0 192.5 L 185.0 192.5 L 186.25 192.5 L 186.25 192.5 L 186.25 192.5 L 186.25 192.5 L 186.25 192.5 L 188.75 193.75 L 197.5 198.75 L 212.5 210.0 L 226.25 221.25 L 232.5 228.75 L 232.5 231.25 " stroke="black" fill="none" stroke-width="6.0" stroke-linecap="round" stroke-linejoin="round" />
</svg>