<svg xmlns="http://www.w3.org/2000/svg" width="300" height="300" viewBox="0 0 300 300">
<path d="M 96.25 92.5 L 96.25 91.25 L 93.75 91.25 L 92.5 91.25 L 92.5 91.25 L 92.5 95.0 L 95.0 97.5 L 101.25 98.75 L 110.0 98.75 L 120.0 95.0 L 126.25 93.75 L 128.75 92.5 L 122.5 98.75 L 110.0 112.5 L 95.0 130.0 L 83.75 145.0 L 75.0 152.5 L 72.5 155.0 L 72.5 155.0 L 75.0 152.5 L 77.5 150.0 L 78.75 147.5 L 80.0 146.25 L 78.75 146.25 L 77.5 146.25 L 77.5 153.75 L 80.0 183.75 L 86.25 218.75 L 90.0 236.25 L 91.25 238.75 L 91.25 232.5 L 91.25 220.0 " stroke="black" fill="none" stroke-width="6.0" stroke-linecap="round" stroke-linejoin="round" />
<path d="M 82.5 155.0 L 78.75 153.75 L 75.0 152.5 L 77.5 151.25 L 87.5 146.25 L 101.25 138.75 L 126.25 132.5 L 133.75 141.25 L 136.25 162.5 L 140.0 191.25 L 142.5 215.0 L 143.75 227.5 L 143.75 236.25 L 143.75 237.5 L 143.75 236.25 L 143.75 233.75 L 142.5 225.0 L 138.75 215.0 L 132.5 205.0 L 130.0 200.0 " stroke="black" fill="none" stroke-width="6.0" stroke-linecap="round" stroke-linejoin="round" />
<path d="M 87.5 182.5 L 83.75 183.75 L 80.0 185.0 L 85.0 183.75 L 93.75 178.75 L 112.5 166.25 L 123.75 155.0 L 123.75 152.5 L 117.5 151.25 L 108.75 152.5 L 102.5 152.5 L 98.75 151.25 L 98.75 151.25 L 98.75 151.25 L 102.5 156.25 L 110.0 172.5 L 112.5 190.0 L 111.25 203.75 L 103.75 211.25 L 97.5 212.5 L 96.25 212.5 L 97.5 210.0 L 107.5 203.75 L 122.5 193.75 L 140.0 178.75 " stroke="black" fill="none" stroke-width="6.0" stroke-linecap="round" stroke-linejoin="round" />
<path d="M 156.25 95.0 L 152.5 96.25 L 150.0 97.5 L 153.75 97.5 L 170.0 95.0 L 193.75 91.25 L 210.0 88.75 L 216.25 88.75 L 211.25 96.25 L 198.75 113.75 L 185.0 130.0 L 168.75 138.75 L 165.0 140.0 " stroke="black" fill="none" stroke-width="6.0" stroke-linecap="round" stroke-linejoin="round" />
<path d="M 170.0 110.0 L 170.0 107.5 L 168.75 106.25 L 167.5 108.75 L 165.0 126.25 L 160.0 150.0 L 157.5 155.0 " stroke="black" fill="none" stroke-width="6.0" stroke-linecap="round" stroke-linejoin="round" />
<path d="M 167.5 151.25 L 167.5 151.25 L 166.25 152.5 L 166.25 155.0 L 166.25 165.0 L 167.5 178.75 L 167.5 186.25 L 168.75 187.5 L 177.5 182.5 L 192.5 170.0 L 205.0 160.0 L 213.75 152.5 L 216.25 151.25 L 211.25 155.0 L 202.5 165.0 L 190.0 177.5 " stroke="black" fill="none" stroke-width="6.0" stroke-linecap="round" stroke-linejoin="round" />
<path d="M 156.25 215.0 L 156.25 217.5 L 153.75 225.0 L 153.75 226.25 L 166.25 222.5 L 188.75 208.75 L 213.75 192.5 L 235.0 178.75 L 242.5 170.0 L 241.25 167.5 L 231.25 167.5 L 218.75 165.0 L 210.0 162.5 " stroke="black" fill="none" stroke-width="6.0" stroke-linecap="round" stroke-linejoin="round" />
<path d="M 195.0 146.25 L 192.5 143.75 L 190.0 138.75 L 190.0 136.25 L 193.75 137.5 L 200.0 155.0 L 205.0 190.0 L 206.25 231.25 L 206.25 258.75 L 203.75 267.5 L 196.25 271.25 L 193.75 271.25 " stroke="black" fill="none" stroke-width="6.0" stroke-linecap="round" stroke-linejoin="round" />
</svg>