<svg xmlns="http://www.w3.org/2000/svg" width="300" height="300" viewBox="0 0 300 300">
<path d="M 98.75 102.5 L 97.5 103.75 L 97.5 105.0 L 105.0 103.75 L 127.5 96.25 L 153.75 86.25 L 172.5 76.25 L 175.0 73.75 L 161.25 78.75 L 151.25 83.75 " stroke="black" fill="none" stroke-width="6.0" stroke-linecap="round" stroke-linejoin="round" />
<path d="M 113.75 110.0 L 111.25 112.5 L 106.25 125.0 L 101.25 147.5 L 98.75 170.0 L 97.5 182.5 L 96.25 183.75 L 96.25 181.25 " stroke="black" fill="none" stroke-width="6.0" stroke-linecap="round" stroke-linejoin="round" />
<path d="M 107.5 141.25 L 107.5 141.25 L 107.5 140.0 L 108.75 140.0 L 117.5 147.5 L 133.75 156.25 L 150.0 158.75 L 155.0 153.75 " stroke="black" fill="none" stroke-width="6.0" stroke-linecap="round" stroke-linejoin="round" />
<path d="M 190.0 98.75 L 186.25 98.75 L 177.5 105.0 L 165.0 122.5 L 153.75 140.0 L 147.5 150.0 L 147.5 151.25 L 153.75 151.25 L 171.25 148.75 L 192.5 141.25 L 208.75 136.25 L 218.75 132.5 L 216.25 131.25 L 210.0 131.25 " stroke="black" fill="none" stroke-width="6.0" stroke-linecap="round" stroke-linejoin="round" />
<path d="M 150.0 76.25 L 148.75 70.0 L 147.5 68.75 L 147.5 77.5 L 148.75 112.5 L 152.5 171.25 L 155.0 225.0 L 156.25 257.5 L 157.5 266.25 L 158.75 268.75 L 157.5 268.75 L 151.25 263.75 L 141.25 255.0 L 131.25 240.0 L 122.5 226.25 L 120.0 222.5 " stroke="black" fill="none" stroke-width="6.0" stroke-linecap="round" stroke-linejoin="round" />
<path d="M 153.75 173.75 L 153.75 175.0 L 147.5 181.25 L 138.75 192.5 L 126.25 211.25 L 111.25 230.0 L 98.75 241.25 L 96.25 241.25 " stroke="black" fill="none" stroke-width="6.0" stroke-linecap="round" stroke-linejoin="round" />
<path d="M 150.0 178.75 L 150.0 181.25 L 160.0 191.25 L 186.25 207.5 L 210.0 221.25 L 231.25 233.75 L 251.25 243.75 L 255.0 246.25 " stroke="black" fill="none" stroke-width="6.0" stroke-linecap="round" stroke-linejoin="round" />
</svg>