<svg xmlns="http://www.w3.org/2000/svg" width="300" height="300" viewBox="0 0 300 300">
<path d="M 101.25 107.5 L 95.0 111.25 L 91.25 113.75 L 100.0 113.75 L 120.0 111.25 L 147.5 101.25 L 172.5 88.75 L 186.25 81.25 L 188.75 78.75 L 173.75 83.75 L 168.75 85.0 " stroke="black" fill="none" stroke-width="6.0" stroke-linecap="round" stroke-linejoin="round" />
<path d="M 115.0 125.0 L 115.0 127.5 L 112.5 136.25 L 106.25 155.0 L 98.75 175.0 L 95.0 185.0 L 95.0 181.25 L 95.0 178.75 " stroke="black" fill="none" stroke-width="6.0" stroke-linecap="round" stroke-linejoin="round" />
<path d="M 107.5 155.0 L 107.5 155.0 L 110.0 155.0 L 112.5 155.0 L 121.25 160.0 L 133.75 167.5 L 147.5 171.25 L 148.75 170.0 " stroke="black" fill="none" stroke-width="6.0" stroke-linecap="round" stroke-linejoin="round" />
<path d="M 192.5 113.75 L 191.25 113.75 L 186.25 113.75 L 177.5 120.0 L 163.75 136.25 L 153.75 151.25 L 152.5 153.75 L 160.0 153.75 L 180.0 147.5 L 200.0 141.25 L 216.25 133.75 L 222.5 130.0 L 218.75 128.75 L 210.0 130.0 " stroke="black" fill="none" stroke-width="6.0" stroke-linecap="round" stroke-linejoin="round" />
<path d="M 162.5 76.25 L 160.0 75.0 L 157.5 75.0 L 157.5 77.5 L 157.5 93.75 L 158.75 133.75 L 160.0 182.5 L 161.25 215.0 L 162.5 231.25 L 163.75 240.0 L 162.5 242.5 L 160.0 242.5 L 155.0 241.25 L 147.5 238.75 L 138.75 236.25 L 126.25 236.25 L 113.75 237.5 L 110.0 236.25 " stroke="black" fill="none" stroke-width="6.0" stroke-linecap="round" stroke-linejoin="round" />
<path d="M 155.0 178.75 L 150.0 180.0 L 143.75 186.25 L 131.25 201.25 L 115.0 218.75 L 98.75 232.5 L 92.5 235.0 L 92.5 231.25 " stroke="black" fill="none" stroke-width="6.0" stroke-linecap="round" stroke-linejoin="round" />
<path d="M 157.5 171.25 L 157.5 171.25 L 157.5 172.5 L 163.75 177.5 L 180.0 191.25 L 198.75 206.25 L 212.5 215.0 L 225.0 223.75 L 237.5 230.0 L 243.75 233.75 L 243.75 235.0 " stroke="black" fill="none" stroke-width="6.0" stroke-linecap="round" stroke-linejoin="round" />
</svg>