<svg xmlns="http://www.w3.org/2000/svg" width="300" height="300" viewBox="0 0 300 300">
<path d="M 116.25 96.25 L 110.0 100.0 L 103.75 102.5 L 103.75 102.5 L 113.75 102.5 L 131.25 100.0 L 153.75 92.5 L 172.5 83.75 L 182.5 77.5 L 182.5 76.25 L 175.0 78.75 L 161.25 88.75 L 146.25 108.75 L 128.75 143.75 L 107.5 176.25 L 98.75 190.0 L 98.75 186.25 L 100.0 175.0 " stroke="black" fill="none" stroke-width="6.0" stroke-linecap="round" stroke-linejoin="round" />
<path d="M 128.75 140.0 L 128.75 140.0 L 130.0 138.75 L 130.0 138.75 L 135.0 142.5 L 145.0 152.5 L 158.75 162.5 L 165.0 165.0 " stroke="black" fill="none" stroke-width="6.0" stroke-linecap="round" stroke-linejoin="round" />
<path d="M 206.25 116.25 L 202.5 116.25 L 196.25 120.0 L 186.25 130.0 L 175.0 142.5 L 167.5 150.0 L 166.25 153.75 L 172.5 155.0 L 188.75 152.5 L 205.0 146.25 L 217.5 140.0 L 223.75 135.0 L 218.75 135.0 " stroke="black" fill="none" stroke-width="6.0" stroke-linecap="round" stroke-linejoin="round" />
<path d="M 168.75 72.5 L 168.75 71.25 L 168.75 70.0 L 167.5 70.0 L 167.5 85.0 L 170.0 120.0 L 173.75 173.75 L 175.0 215.0 L 175.0 242.5 L 175.0 251.25 L 172.5 252.5 L 168.75 252.5 L 162.5 248.75 L 153.75 240.0 L 146.25 225.0 L 141.25 207.5 " stroke="black" fill="none" stroke-width="6.0" stroke-linecap="round" stroke-linejoin="round" />
<path d="M 168.75 168.75 L 163.75 172.5 L 153.75 183.75 L 143.75 197.5 L 132.5 213.75 L 120.0 225.0 L 111.25 227.5 L 110.0 225.0 " stroke="black" fill="none" stroke-width="6.0" stroke-linecap="round" stroke-linejoin="round" />
<path d="M 168.75 167.5 L 171.25 171.25 L 178.75 181.25 L 193.75 192.5 L 211.25 201.25 L 232.5 207.5 L 253.75 218.75 L 263.75 231.25 L 263.75 236.25 " stroke="black" fill="none" stroke-width="6.0" stroke-linecap="round" stroke-linejoin="round" />
</svg>