<svg xmlns="http://www.w3.org/2000/svg" width="300" height="300" viewBox="0 0 300 300">
<path d="M 138.75 76.25 L 138.75 75.0 L 136.25 71.25 L 136.25 67.5 L 142.5 65.0 L 151.25 65.0 L 163.75 70.0 L 168.75 77.5 L 167.5 80.0 " stroke="black" fill="none" stroke-width="6.0" stroke-linecap="round" stroke-linejoin="round" />
<path d="M 96.25 100.0 L 95.0 100.0 L 92.5 101.25 L 92.5 106.25 L 97.5 120.0 L 105.0 135.0 L 108.75 142.5 L 108.75 142.5 " stroke="black" fill="none" stroke-width="6.0" stroke-linecap="round" stroke-linejoin="round" />
<path d="M 97.5 113.75 L 96.25 113.75 L 91.25 113.75 L 91.25 113.75 L 107.5 113.75 L 137.5 108.75 L 176.25 100.0 L 203.75 93.75 L 210.0 93.75 L 207.5 96.25 L 197.5 105.0 L 182.5 117.5 L 162.5 131.25 L 153.75 136.25 " stroke="black" fill="none" stroke-width="6.0" stroke-linecap="round" stroke-linejoin="round" />
<path d="M 136.25 138.75 L 135.0 137.5 L 132.5 137.5 L 130.0 141.25 L 125.0 151.25 L 123.75 160.0 L 126.25 162.5 L 138.75 160.0 L 157.5 148.75 L 177.5 137.5 L 187.5 133.75 L 183.75 141.25 L 167.5 162.5 L 146.25 188.75 L 123.75 212.5 L 102.5 230.0 L 91.25 236.25 L 88.75 232.5 " stroke="black" fill="none" stroke-width="6.0" stroke-linecap="round" stroke-linejoin="round" />
<path d="M 98.75 171.25 L 98.75 171.25 L 98.75 170.0 L 107.5 170.0 L 131.25 177.5 L 163.75 192.5 L 193.75 206.25 L 213.75 215.0 L 230.0 218.75 L 237.5 220.0 L 233.75 220.0 L 216.25 220.0 L 207.5 220.0 " stroke="black" fill="none" stroke-width="6.0" stroke-linecap="round" stroke-linejoin="round" />
<path d="M 136.25 215.0 L 133.75 215.0 L 131.25 215.0 L 131.25 218.75 L 137.5 231.25 L 146.25 245.0 L 152.5 252.5 L 155.0 255.0 L 155.0 252.5 L 148.75 247.5 L 142.5 242.5 L 137.5 238.75 L 136.25 232.5 L 142.5 226.25 L 158.75 217.5 L 181.25 211.25 L 195.0 210.0 L 196.25 217.5 L 183.75 233.75 L 167.5 247.5 L 156.25 256.25 L 155.0 256.25 L 166.25 250.0 L 186.25 235.0 L 201.25 222.5 " stroke="black" fill="none" stroke-width="6.0" stroke-linecap="round" stroke-linejoin="round" />
</svg>