<svg xmlns="http://www.w3.org/2000/svg" width="300" height="300" viewBox="0 0 300 300">
<path d="M 91.25 91.25 L 88.75 91.25 L 85.0 90.0 L 83.75 91.25 L 85.0 102.5 L 87.5 123.75 L 91.25 140.0 L 97.5 143.75 L 112.5 140.0 L 137.5 127.5 L 157.5 115.0 L 172.5 106.25 L 177.5 102.5 L 178.75 102.5 L 173.75 101.25 L 163.75 100.0 L 153.75 100.0 L 151.25 100.0 " stroke="black" fill="none" stroke-width="6.0" stroke-linecap="round" stroke-linejoin="round" />
<path d="M 138.75 81.25 L 138.75 81.25 L 138.75 80.0 L 138.75 87.5 L 140.0 130.0 L 140.0 182.5 L 138.75 212.5 L 138.75 226.25 L 137.5 232.5 L 131.25 231.25 L 125.0 225.0 " stroke="black" fill="none" stroke-width="6.0" stroke-linecap="round" stroke-linejoin="round" />
<path d="M 101.25 203.75 L 101.25 205.0 L 100.0 206.25 L 102.5 206.25 L 118.75 200.0 L 142.5 187.5 L 163.75 172.5 L 172.5 165.0 L 170.0 163.75 " stroke="black" fill="none" stroke-width="6.0" stroke-linecap="round" stroke-linejoin="round" />
<path d="M 101.25 246.25 L 98.75 250.0 L 98.75 251.25 L 108.75 251.25 L 131.25 246.25 L 158.75 237.5 L 186.25 228.75 L 206.25 221.25 L 212.5 218.75 L 215.0 217.5 L 215.0 217.5 L 213.75 220.0 L 211.25 220.0 " stroke="black" fill="none" stroke-width="6.0" stroke-linecap="round" stroke-linejoin="round" />
</svg>