<svg xmlns="http://www.w3.org/2000/svg" width="300" height="300" viewBox="0 0 300 300">
<path d="M 85.0 93.75 L 82.5 95.0 L 81.25 100.0 L 81.25 115.0 L 87.5 130.0 L 102.5 136.25 L 133.75 126.25 L 166.25 107.5 L 186.25 97.5 L 191.25 96.25 L 172.5 98.75 L 165.0 98.75 " stroke="black" fill="none" stroke-width="6.0" stroke-linecap="round" stroke-linejoin="round" />
<path d="M 145.0 81.25 L 145.0 81.25 L 145.0 81.25 L 145.0 101.25 L 145.0 153.75 L 143.75 192.5 L 142.5 208.75 L 141.25 212.5 L 137.5 208.75 " stroke="black" fill="none" stroke-width="6.0" stroke-linecap="round" stroke-linejoin="round" />
<path d="M 105.0 180.0 L 100.0 181.25 L 97.5 183.75 L 101.25 185.0 L 117.5 183.75 L 141.25 176.25 L 166.25 165.0 L 182.5 157.5 L 182.5 156.25 " stroke="black" fill="none" stroke-width="6.0" stroke-linecap="round" stroke-linejoin="round" />
<path d="M 103.75 235.0 L 100.0 237.5 L 100.0 237.5 L 116.25 233.75 L 145.0 225.0 L 176.25 216.25 L 197.5 212.5 L 206.25 212.5 L 205.0 216.25 " stroke="black" fill="none" stroke-width="6.0" stroke-linecap="round" stroke-linejoin="round" />
</svg>