<svg xmlns="http://www.w3.org/2000/svg" width="300" height="300" viewBox="0 0 300 300">
<path d="M 87.5 101.25 L 86.25 101.25 L 81.25 101.25 L 80.0 101.25 L 80.0 105.0 L 82.5 118.75 L 86.25 135.0 L 93.75 143.75 L 112.5 142.5 L 142.5 127.5 L 170.0 111.25 L 186.25 101.25 L 192.5 97.5 L 191.25 96.25 L 181.25 96.25 L 173.75 96.25 " stroke="black" fill="none" stroke-width="6.0" stroke-linecap="round" stroke-linejoin="round" />
<path d="M 146.25 68.75 L 146.25 68.75 L 145.0 67.5 L 145.0 72.5 L 148.75 107.5 L 150.0 165.0 L 150.0 202.5 L 148.75 218.75 L 147.5 220.0 " stroke="black" fill="none" stroke-width="6.0" stroke-linecap="round" stroke-linejoin="round" />
<path d="M 108.75 187.5 L 106.25 188.75 L 98.75 193.75 L 98.75 195.0 L 111.25 193.75 L 136.25 183.75 L 162.5 168.75 L 185.0 156.25 L 191.25 153.75 L 186.25 153.75 " stroke="black" fill="none" stroke-width="6.0" stroke-linecap="round" stroke-linejoin="round" />
<path d="M 106.25 227.5 L 105.0 228.75 L 101.25 231.25 L 102.5 231.25 L 117.5 227.5 L 140.0 223.75 L 166.25 222.5 L 192.5 222.5 L 210.0 222.5 L 217.5 222.5 L 218.75 221.25 L 218.75 221.25 L 217.5 221.25 " stroke="black" fill="none" stroke-width="6.0" stroke-linecap="round" stroke-linejoin="round" />
</svg>