<svg xmlns="http://www.w3.org/2000/svg" width="300" height="300" viewBox="0 0 300 300">
<path d="M 97.5 108.75 L 96.25 105.0 L 95.0 102.5 L 95.0 101.25 L 98.75 105.0 L 103.75 116.25 L 107.5 130.0 L 108.75 140.0 L 116.25 145.0 L 132.5 140.0 L 153.75 127.5 L 175.0 113.75 L 188.75 106.25 L 191.25 103.75 L 190.0 103.75 L 182.5 103.75 L 175.0 102.5 L 172.5 101.25 " stroke="black" fill="none" stroke-width="6.0" stroke-linecap="round" stroke-linejoin="round" />
<path d="M 156.25 81.25 L 153.75 77.5 L 151.25 76.25 L 151.25 78.75 L 153.75 102.5 L 157.5 146.25 L 158.75 186.25 L 158.75 206.25 L 157.5 213.75 L 151.25 215.0 " stroke="black" fill="none" stroke-width="6.0" stroke-linecap="round" stroke-linejoin="round" />
<path d="M 113.75 198.75 L 108.75 201.25 L 107.5 202.5 L 115.0 200.0 L 136.25 192.5 L 161.25 182.5 L 188.75 168.75 L 203.75 160.0 L 205.0 160.0 L 196.25 162.5 L 195.0 162.5 " stroke="black" fill="none" stroke-width="6.0" stroke-linecap="round" stroke-linejoin="round" />
<path d="M 118.75 231.25 L 116.25 235.0 L 112.5 236.25 L 115.0 237.5 L 131.25 236.25 L 155.0 232.5 L 182.5 228.75 L 206.25 226.25 L 220.0 225.0 L 223.75 225.0 L 223.75 225.0 L 221.25 226.25 L 216.25 226.25 " stroke="black" fill="none" stroke-width="6.0" stroke-linecap="round" stroke-linejoin="round" />
</svg>