<svg xmlns="http://www.w3.org/2000/svg" width="300" height="300" viewBox="0 0 300 300">
<path d="M 93.75 98.75 L 93.75 100.0 L 91.25 101.25 L 92.5 113.75 L 98.75 132.5 L 113.75 141.25 L 138.75 130.0 L 165.0 102.5 L 178.75 88.75 L 183.75 85.0 L 177.5 90.0 L 161.25 102.5 L 157.5 106.25 " stroke="black" fill="none" stroke-width="6.0" stroke-linecap="round" stroke-linejoin="round" />
<path d="M 86.25 200.0 L 85.0 200.0 L 86.25 201.25 L 107.5 192.5 L 156.25 166.25 L 192.5 145.0 L 203.75 132.5 L 201.25 121.25 L 187.5 118.75 " stroke="black" fill="none" stroke-width="6.0" stroke-linecap="round" stroke-linejoin="round" />
<path d="M 138.75 87.5 L 137.5 87.5 L 136.25 87.5 L 136.25 86.25 L 140.0 106.25 L 147.5 162.5 L 152.5 213.75 L 153.75 243.75 L 153.75 253.75 L 152.5 255.0 L 147.5 251.25 L 142.5 241.25 L 137.5 225.0 L 136.25 215.0 " stroke="black" fill="none" stroke-width="6.0" stroke-linecap="round" stroke-linejoin="round" />
<path d="M 152.5 170.0 L 152.5 170.0 L 140.0 195.0 L 121.25 222.5 L 103.75 246.25 L 92.5 252.5 L 90.0 246.25 " stroke="black" fill="none" stroke-width="6.0" stroke-linecap="round" stroke-linejoin="round" />
<path d="M 152.5 166.25 L 155.0 167.5 L 171.25 177.5 L 198.75 193.75 L 220.0 205.0 L 241.25 217.5 L 255.0 226.25 L 260.0 230.0 L 258.75 232.5 " stroke="black" fill="none" stroke-width="6.0" stroke-linecap="round" stroke-linejoin="round" />
</svg>