<svg xmlns="http://www.w3.org/2000/svg" width="300" height="300" viewBox="0 0 300 300">
<path d="M 113.75 113.75 L 112.5 107.5 L 110.0 103.75 L 110.0 102.5 L 110.0 105.0 L 113.75 116.25 L 117.5 125.0 L 120.0 132.5 L 126.25 133.75 L 138.75 125.0 L 155.0 108.75 L 168.75 96.25 L 175.0 91.25 L 173.75 91.25 L 162.5 100.0 L 157.5 105.0 " stroke="black" fill="none" stroke-width="6.0" stroke-linecap="round" stroke-linejoin="round" />
<path d="M 87.5 201.25 L 83.75 203.75 L 82.5 205.0 L 95.0 202.5 L 111.25 195.0 L 152.5 170.0 L 182.5 148.75 L 196.25 138.75 L 198.75 132.5 L 193.75 130.0 L 183.75 130.0 L 177.5 128.75 " stroke="black" fill="none" stroke-width="6.0" stroke-linecap="round" stroke-linejoin="round" />
<path d="M 150.0 85.0 L 150.0 83.75 L 150.0 76.25 L 150.0 73.75 L 150.0 75.0 L 152.5 88.75 L 156.25 125.0 L 161.25 180.0 L 162.5 222.5 L 162.5 242.5 L 162.5 250.0 L 158.75 255.0 L 156.25 256.25 L 152.5 255.0 L 150.0 248.75 L 150.0 246.25 " stroke="black" fill="none" stroke-width="6.0" stroke-linecap="round" stroke-linejoin="round" />
<path d="M 155.0 180.0 L 146.25 190.0 L 136.25 205.0 L 121.25 227.5 L 105.0 248.75 L 93.75 257.5 L 91.25 257.5 L 91.25 253.75 " stroke="black" fill="none" stroke-width="6.0" stroke-linecap="round" stroke-linejoin="round" />
<path d="M 160.0 166.25 L 162.5 166.25 L 170.0 168.75 L 181.25 178.75 L 196.25 198.75 L 207.5 218.75 L 217.5 232.5 L 228.75 241.25 L 241.25 247.5 L 247.5 253.75 " stroke="black" fill="none" stroke-width="6.0" stroke-linecap="round" stroke-linejoin="round" />
</svg>