<svg xmlns="http://www.w3.org/2000/svg" width="300" height="300" viewBox="0 0 300 300">
<path d="M 65.0 125.0 L 58.75 128.75 L 53.75 130.0 L 60.0 130.0 L 77.5 126.25 L 97.5 118.75 L 112.5 108.75 L 118.75 101.25 L 115.0 98.75 L 112.5 98.75 " stroke="black" fill="none" stroke-width="6.0" stroke-linecap="round" stroke-linejoin="round" />
<path d="M 92.5 97.5 L 90.0 100.0 L 86.25 105.0 L 86.25 116.25 L 88.75 136.25 L 90.0 153.75 L 88.75 160.0 L 86.25 162.5 L 83.75 162.5 L 83.75 162.5 L 87.5 161.25 L 96.25 156.25 L 106.25 147.5 L 117.5 137.5 L 123.75 130.0 L 123.75 128.75 L 117.5 130.0 L 112.5 135.0 L 107.5 140.0 L 103.75 147.5 L 100.0 158.75 L 98.75 177.5 L 98.75 191.25 L 100.0 195.0 L 105.0 192.5 L 112.5 182.5 L 123.75 167.5 L 132.5 155.0 L 136.25 147.5 L 132.5 146.25 " stroke="black" fill="none" stroke-width="6.0" stroke-linecap="round" stroke-linejoin="round" />
<path d="M 77.5 167.5 L 76.25 170.0 L 72.5 186.25 L 73.75 208.75 L 75.0 236.25 L 75.0 248.75 L 76.25 250.0 " stroke="black" fill="none" stroke-width="6.0" stroke-linecap="round" stroke-linejoin="round" />
<path d="M 82.5 198.75 L 82.5 198.75 L 82.5 197.5 L 85.0 200.0 L 97.5 207.5 L 117.5 223.75 L 138.75 238.75 L 158.75 245.0 L 182.5 241.25 L 203.75 236.25 L 218.75 233.75 L 228.75 232.5 L 232.5 232.5 L 232.5 232.5 " stroke="black" fill="none" stroke-width="6.0" stroke-linecap="round" stroke-linejoin="round" />
<path d="M 157.5 97.5 L 150.0 100.0 L 148.75 101.25 L 152.5 101.25 L 167.5 98.75 L 183.75 95.0 L 197.5 91.25 L 205.0 88.75 L 206.25 88.75 L 202.5 100.0 L 195.0 120.0 L 186.25 142.5 L 177.5 152.5 L 171.25 153.75 " stroke="black" fill="none" stroke-width="6.0" stroke-linecap="round" stroke-linejoin="round" />
<path d="M 167.5 107.5 L 165.0 111.25 L 162.5 120.0 L 158.75 138.75 L 153.75 161.25 L 148.75 173.75 " stroke="black" fill="none" stroke-width="6.0" stroke-linecap="round" stroke-linejoin="round" />
<path d="M 148.75 161.25 L 148.75 161.25 L 147.5 162.5 L 147.5 167.5 L 152.5 183.75 L 160.0 203.75 L 165.0 212.5 L 167.5 213.75 L 167.5 211.25 L 167.5 206.25 L 165.0 200.0 L 161.25 193.75 L 157.5 188.75 L 153.75 185.0 L 152.5 183.75 L 152.5 183.75 L 160.0 178.75 L 175.0 171.25 L 193.75 162.5 L 206.25 158.75 L 207.5 160.0 L 202.5 168.75 L 192.5 181.25 L 180.0 195.0 L 168.75 205.0 L 166.25 210.0 L 171.25 210.0 L 185.0 206.25 L 201.25 200.0 L 215.0 192.5 L 221.25 187.5 " stroke="black" fill="none" stroke-width="6.0" stroke-linecap="round" stroke-linejoin="round" />
</svg>