<svg xmlns="http://www.w3.org/2000/svg" width="300" height="300" viewBox="0 0 300 300">
<path d="M 78.75 112.5 L 76.25 116.25 L 76.25 117.5 L 83.75 116.25 L 87.5 115.0 L 93.75 111.25 L 102.5 107.5 L 118.75 100.0 L 125.0 95.0 L 128.75 92.5 L 130.0 91.25 L 128.75 88.75 " stroke="black" fill="none" stroke-width="6.0" stroke-linecap="round" stroke-linejoin="round" />
<path d="M 96.25 90.0 L 96.25 90.0 L 96.25 90.0 L 96.25 90.0 L 96.25 91.25 L 96.25 93.75 L 96.25 98.75 L 97.5 107.5 L 97.5 112.5 L 98.75 131.25 L 98.75 136.25 L 98.75 150.0 L 93.75 157.5 L 86.25 160.0 L 76.25 165.0 L 65.0 170.0 L 62.5 172.5 L 62.5 172.5 L 62.5 172.5 L 65.0 171.25 L 70.0 170.0 L 77.5 166.25 L 86.25 162.5 L 95.0 157.5 L 103.75 152.5 L 113.75 147.5 L 118.75 145.0 L 130.0 138.75 L 136.25 131.25 L 133.75 131.25 L 131.25 131.25 L 121.25 135.0 L 116.25 137.5 L 112.5 138.75 L 108.75 141.25 L 105.0 142.5 L 101.25 145.0 L 98.75 147.5 L 98.75 148.75 L 98.75 155.0 L 98.75 157.5 L 98.75 170.0 L 100.0 190.0 L 100.0 203.75 L 100.0 207.5 L 100.0 206.25 L 98.75 205.0 L 98.75 201.25 L 98.75 198.75 L 98.75 195.0 L 98.75 192.5 L 100.0 190.0 L 101.25 188.75 L 102.5 185.0 L 102.5 185.0 L 105.0 181.25 L 112.5 175.0 L 122.5 167.5 L 130.0 162.5 L 131.25 160.0 L 132.5 156.25 L 126.25 156.25 L 123.75 156.25 " stroke="black" fill="none" stroke-width="6.0" stroke-linecap="round" stroke-linejoin="round" />
<path d="M 78.75 168.75 L 77.5 171.25 L 76.25 178.75 L 76.25 192.5 L 76.25 203.75 L 76.25 217.5 L 75.0 230.0 L 73.75 241.25 L 71.25 246.25 L 68.75 247.5 L 66.25 247.5 L 63.75 246.25 L 62.5 242.5 L 62.5 240.0 " stroke="black" fill="none" stroke-width="6.0" stroke-linecap="round" stroke-linejoin="round" />
<path d="M 81.25 197.5 L 81.25 197.5 L 82.5 197.5 L 87.5 201.25 L 93.75 206.25 L 103.75 211.25 L 110.0 215.0 L 132.5 227.5 L 140.0 231.25 L 160.0 237.5 L 185.0 240.0 L 205.0 238.75 L 215.0 235.0 L 216.25 233.75 " stroke="black" fill="none" stroke-width="6.0" stroke-linecap="round" stroke-linejoin="round" />
<path d="M 152.5 91.25 L 148.75 92.5 L 147.5 93.75 L 145.0 95.0 L 142.5 96.25 L 142.5 96.25 L 145.0 96.25 L 147.5 96.25 L 158.75 96.25 L 163.75 96.25 L 180.0 96.25 L 200.0 95.0 L 210.0 93.75 L 211.25 93.75 L 211.25 95.0 L 203.75 106.25 L 198.75 117.5 L 191.25 128.75 L 186.25 137.5 L 180.0 146.25 L 175.0 151.25 L 171.25 153.75 L 170.0 153.75 L 166.25 152.5 L 166.25 151.25 L 163.75 146.25 L 163.75 140.0 " stroke="black" fill="none" stroke-width="6.0" stroke-linecap="round" stroke-linejoin="round" />
<path d="M 168.75 110.0 L 168.75 108.75 L 167.5 106.25 L 167.5 106.25 L 166.25 106.25 L 166.25 107.5 L 165.0 111.25 L 162.5 120.0 L 160.0 130.0 L 157.5 141.25 L 153.75 151.25 L 151.25 161.25 L 148.75 166.25 " stroke="black" fill="none" stroke-width="6.0" stroke-linecap="round" stroke-linejoin="round" />
<path d="M 146.25 173.75 L 150.0 181.25 L 156.25 193.75 L 165.0 206.25 L 168.75 212.5 L 170.0 213.75 L 170.0 213.75 L 170.0 213.75 L 170.0 211.25 L 168.75 208.75 L 168.75 207.5 L 167.5 202.5 L 166.25 201.25 L 165.0 197.5 L 161.25 191.25 L 157.5 187.5 L 156.25 185.0 L 155.0 183.75 L 155.0 181.25 L 157.5 180.0 L 163.75 178.75 L 170.0 177.5 L 180.0 176.25 L 188.75 173.75 L 197.5 172.5 L 200.0 172.5 L 207.5 170.0 L 208.75 170.0 L 210.0 170.0 L 205.0 176.25 L 193.75 187.5 L 181.25 198.75 L 170.0 208.75 L 166.25 213.75 L 166.25 215.0 L 168.75 215.0 L 173.75 215.0 L 181.25 215.0 L 188.75 212.5 L 196.25 208.75 L 203.75 205.0 L 213.75 195.0 L 217.5 190.0 " stroke="black" fill="none" stroke-width="6.0" stroke-linecap="round" stroke-linejoin="round" />
</svg>