<svg xmlns="http://www.w3.org/2000/svg" width="300" height="300" viewBox="0 0 300 300">
<path d="M 92.5 130.0 L 91.25 130.0 L 88.75 130.0 L 88.75 130.0 L 92.5 130.0 L 106.25 122.5 L 123.75 111.25 L 133.75 102.5 L 131.25 101.25 L 125.0 103.75 " stroke="black" fill="none" stroke-width="6.0" stroke-linecap="round" stroke-linejoin="round" />
<path d="M 86.25 157.5 L 86.25 161.25 L 86.25 172.5 L 95.0 190.0 L 106.25 203.75 L 116.25 211.25 L 120.0 211.25 L 120.0 211.25 L 118.75 211.25 L 112.5 208.75 L 106.25 205.0 L 100.0 202.5 L 95.0 198.75 L 93.75 193.75 L 97.5 185.0 L 111.25 171.25 L 130.0 158.75 L 145.0 151.25 L 151.25 151.25 L 151.25 160.0 L 145.0 175.0 L 137.5 188.75 L 127.5 200.0 L 118.75 205.0 L 115.0 203.75 " stroke="black" fill="none" stroke-width="6.0" stroke-linecap="round" stroke-linejoin="round" />
<path d="M 120.0 172.5 L 120.0 171.25 L 120.0 167.5 L 120.0 167.5 L 122.5 182.5 L 125.0 201.25 L 126.25 217.5 L 126.25 220.0 " stroke="black" fill="none" stroke-width="6.0" stroke-linecap="round" stroke-linejoin="round" />
<path d="M 170.0 98.75 L 170.0 98.75 L 166.25 100.0 L 168.75 101.25 L 178.75 101.25 L 190.0 100.0 L 198.75 98.75 L 201.25 97.5 L 198.75 100.0 L 188.75 113.75 L 176.25 138.75 L 168.75 172.5 L 168.75 195.0 L 172.5 202.5 L 177.5 202.5 L 180.0 201.25 L 181.25 201.25 L 181.25 200.0 L 177.5 198.75 L 172.5 196.25 L 167.5 193.75 L 165.0 190.0 L 165.0 186.25 L 170.0 178.75 L 183.75 167.5 L 201.25 153.75 L 218.75 146.25 L 230.0 145.0 L 232.5 151.25 L 228.75 163.75 L 221.25 175.0 L 212.5 185.0 L 205.0 190.0 " stroke="black" fill="none" stroke-width="6.0" stroke-linecap="round" stroke-linejoin="round" />
<path d="M 202.5 153.75 L 201.25 155.0 L 200.0 158.75 L 200.0 181.25 L 201.25 212.5 L 202.5 238.75 L 203.75 252.5 L 203.75 253.75 " stroke="black" fill="none" stroke-width="6.0" stroke-linecap="round" stroke-linejoin="round" />
</svg>