<svg xmlns="http://www.w3.org/2000/svg" width="300" height="300" viewBox="0 0 300 300">
<path d="M 86.25 88.75 L 85.0 90.0 L 83.75 92.5 L 91.25 93.75 L 116.25 92.5 L 155.0 86.25 L 187.5 78.75 L 202.5 72.5 L 202.5 71.25 L 191.25 71.25 L 182.5 72.5 " stroke="black" fill="none" stroke-width="6.0" stroke-linecap="round" stroke-linejoin="round" />
<path d="M 125.0 73.75 L 125.0 75.0 L 121.25 76.25 L 121.25 80.0 L 123.75 95.0 L 127.5 113.75 L 131.25 126.25 L 131.25 126.25 " stroke="black" fill="none" stroke-width="6.0" stroke-linecap="round" stroke-linejoin="round" />
<path d="M 161.25 60.0 L 160.0 62.5 L 152.5 75.0 L 145.0 93.75 L 133.75 115.0 " stroke="black" fill="none" stroke-width="6.0" stroke-linecap="round" stroke-linejoin="round" />
<path d="M 101.25 121.25 L 101.25 121.25 L 101.25 122.5 L 97.5 131.25 L 92.5 148.75 L 88.75 161.25 L 88.75 163.75 L 91.25 162.5 L 101.25 156.25 L 113.75 150.0 L 126.25 146.25 L 132.5 145.0 L 133.75 155.0 L 123.75 176.25 L 108.75 200.0 L 92.5 222.5 L 78.75 240.0 L 67.5 246.25 L 60.0 245.0 L 57.5 243.75 " stroke="black" fill="none" stroke-width="6.0" stroke-linecap="round" stroke-linejoin="round" />
<path d="M 71.25 188.75 L 71.25 188.75 L 71.25 187.5 L 73.75 187.5 L 82.5 193.75 L 96.25 203.75 L 111.25 211.25 " stroke="black" fill="none" stroke-width="6.0" stroke-linecap="round" stroke-linejoin="round" />
<path d="M 163.75 132.5 L 161.25 135.0 L 161.25 136.25 L 166.25 136.25 L 180.0 135.0 L 196.25 131.25 L 208.75 130.0 L 212.5 135.0 L 206.25 150.0 L 193.75 168.75 L 176.25 186.25 L 161.25 193.75 " stroke="black" fill="none" stroke-width="6.0" stroke-linecap="round" stroke-linejoin="round" />
<path d="M 153.75 140.0 L 153.75 140.0 L 152.5 141.25 L 150.0 151.25 L 147.5 181.25 L 148.75 210.0 L 156.25 227.5 L 172.5 233.75 L 192.5 235.0 L 208.75 233.75 L 221.25 231.25 L 232.5 230.0 L 238.75 227.5 L 241.25 225.0 L 242.5 222.5 L 243.75 217.5 L 245.0 210.0 L 245.0 196.25 L 238.75 170.0 L 231.25 151.25 " stroke="black" fill="none" stroke-width="6.0" stroke-linecap="round" stroke-linejoin="round" />
</svg>