<svg xmlns="http://www.w3.org/2000/svg" width="300" height="300" viewBox="0 0 300 300">
<path d="M 142.5 60.0 L 142.5 60.0 L 138.75 60.0 L 137.5 60.0 L 145.0 62.5 L 156.25 65.0 L 165.0 66.25 L 171.25 68.75 L 170.0 72.5 L 160.0 80.0 L 147.5 86.25 L 136.25 92.5 L 127.5 96.25 L 126.25 96.25 L 132.5 96.25 L 146.25 92.5 L 161.25 88.75 L 175.0 86.25 L 181.25 85.0 L 177.5 88.75 L 162.5 97.5 L 148.75 106.25 L 131.25 115.0 L 110.0 126.25 L 93.75 133.75 L 88.75 136.25 L 92.5 136.25 L 107.5 131.25 L 131.25 122.5 L 160.0 111.25 L 192.5 101.25 L 212.5 96.25 L 218.75 95.0 L 217.5 95.0 L 213.75 97.5 L 208.75 102.5 L 203.75 105.0 L 200.0 110.0 L 196.25 115.0 L 193.75 118.75 L 191.25 121.25 L 191.25 121.25 L 193.75 117.5 L 196.25 112.5 L 198.75 107.5 L 200.0 103.75 L 200.0 102.5 L 200.0 101.25 L 200.0 101.25 " stroke="black" fill="none" stroke-width="6.0" stroke-linecap="round" stroke-linejoin="round" />
<path d="M 163.75 113.75 L 163.75 113.75 L 163.75 113.75 L 163.75 112.5 L 163.75 112.5 L 167.5 120.0 L 173.75 136.25 L 177.5 153.75 L 178.75 162.5 L 177.5 165.0 L 173.75 166.25 L 171.25 166.25 L 168.75 165.0 L 163.75 163.75 L 158.75 162.5 " stroke="black" fill="none" stroke-width="6.0" stroke-linecap="round" stroke-linejoin="round" />
<path d="M 163.75 110.0 L 158.75 113.75 L 150.0 128.75 L 138.75 155.0 L 121.25 180.0 L 105.0 193.75 " stroke="black" fill="none" stroke-width="6.0" stroke-linecap="round" stroke-linejoin="round" />
<path d="M 103.75 216.25 L 101.25 218.75 L 101.25 221.25 L 118.75 218.75 L 146.25 206.25 L 177.5 187.5 L 200.0 172.5 L 207.5 163.75 L 206.25 163.75 L 200.0 167.5 L 190.0 173.75 L 180.0 180.0 L 172.5 183.75 L 166.25 186.25 L 166.25 187.5 L 168.75 192.5 L 172.5 210.0 L 176.25 241.25 L 177.5 263.75 L 177.5 273.75 L 176.25 275.0 L 172.5 272.5 L 166.25 265.0 L 162.5 255.0 " stroke="black" fill="none" stroke-width="6.0" stroke-linecap="round" stroke-linejoin="round" />
<path d="M 171.25 201.25 L 171.25 201.25 L 166.25 203.75 L 157.5 215.0 L 146.25 235.0 L 131.25 251.25 L 117.5 257.5 L 108.75 257.5 L 107.5 251.25 " stroke="black" fill="none" stroke-width="6.0" stroke-linecap="round" stroke-linejoin="round" />
<path d="M 160.0 198.75 L 161.25 198.75 L 167.5 198.75 L 180.0 203.75 L 195.0 216.25 L 207.5 230.0 L 220.0 240.0 L 233.75 243.75 L 245.0 246.25 L 248.75 246.25 L 251.25 248.75 L 251.25 250.0 L 251.25 250.0 " stroke="black" fill="none" stroke-width="6.0" stroke-linecap="round" stroke-linejoin="round" />
</svg>