<svg xmlns="http://www.w3.org/2000/svg" width="300" height="300" viewBox="0 0 300 300">
<path d="M 88.75 97.5 L 88.75 97.5 L 88.75 97.5 L 87.5 97.5 L 86.25 103.75 L 80.0 125.0 L 68.75 151.25 L 58.75 165.0 L 53.75 165.0 L 57.5 158.75 L 60.0 157.5 " stroke="black" fill="none" stroke-width="6.0" stroke-linecap="round" stroke-linejoin="round" />
<path d="M 100.0 126.25 L 102.5 125.0 L 103.75 128.75 L 101.25 143.75 L 92.5 171.25 L 78.75 197.5 L 65.0 210.0 L 60.0 211.25 " stroke="black" fill="none" stroke-width="6.0" stroke-linecap="round" stroke-linejoin="round" />
<path d="M 96.25 168.75 L 98.75 168.75 L 103.75 175.0 L 106.25 200.0 L 106.25 227.5 L 101.25 247.5 L 95.0 253.75 L 92.5 253.75 " stroke="black" fill="none" stroke-width="6.0" stroke-linecap="round" stroke-linejoin="round" />
<path d="M 161.25 92.5 L 161.25 92.5 L 161.25 92.5 L 161.25 101.25 L 165.0 121.25 L 167.5 133.75 L 170.0 135.0 L 177.5 127.5 L 186.25 113.75 L 193.75 101.25 L 197.5 95.0 L 193.75 93.75 L 181.25 100.0 " stroke="black" fill="none" stroke-width="6.0" stroke-linecap="round" stroke-linejoin="round" />
<path d="M 130.0 123.75 L 131.25 122.5 L 132.5 122.5 L 138.75 130.0 L 148.75 148.75 L 152.5 163.75 L 153.75 167.5 L 156.25 166.25 L 165.0 158.75 L 181.25 146.25 L 198.75 133.75 L 208.75 125.0 L 212.5 121.25 L 210.0 122.5 L 202.5 127.5 L 200.0 130.0 " stroke="black" fill="none" stroke-width="6.0" stroke-linecap="round" stroke-linejoin="round" />
<path d="M 181.25 152.5 L 181.25 152.5 L 178.75 152.5 L 177.5 155.0 L 177.5 168.75 L 178.75 190.0 L 180.0 202.5 L 180.0 205.0 L 181.25 205.0 L 186.25 200.0 L 193.75 192.5 L 203.75 182.5 L 210.0 173.75 L 211.25 166.25 L 205.0 165.0 L 202.5 165.0 " stroke="black" fill="none" stroke-width="6.0" stroke-linecap="round" stroke-linejoin="round" />
<path d="M 145.0 183.75 L 145.0 183.75 L 145.0 186.25 L 145.0 195.0 L 147.5 216.25 L 147.5 238.75 L 145.0 250.0 L 142.5 251.25 L 141.25 251.25 " stroke="black" fill="none" stroke-width="6.0" stroke-linecap="round" stroke-linejoin="round" />
<path d="M 152.5 210.0 L 153.75 208.75 L 153.75 208.75 L 155.0 207.5 L 161.25 208.75 L 172.5 213.75 L 186.25 221.25 L 200.0 228.75 L 212.5 236.25 L 227.5 242.5 L 245.0 246.25 L 258.75 247.5 L 268.75 247.5 L 270.0 247.5 L 266.25 250.0 " stroke="black" fill="none" stroke-width="6.0" stroke-linecap="round" stroke-linejoin="round" />
</svg>