<svg xmlns="http://www.w3.org/2000/svg" width="300" height="300" viewBox="0 0 300 300">
<path d="M 127.5 87.5 L 127.5 87.5 L 130.0 88.75 L 142.5 93.75 L 157.5 100.0 L 171.25 103.75 L 173.75 105.0 L 168.75 105.0 " stroke="black" fill="none" stroke-width="6.0" stroke-linecap="round" stroke-linejoin="round" />
<path d="M 87.5 135.0 L 83.75 136.25 L 81.25 138.75 L 90.0 138.75 L 112.5 133.75 L 143.75 123.75 L 168.75 116.25 L 176.25 113.75 L 170.0 120.0 L 152.5 140.0 L 130.0 171.25 L 102.5 210.0 L 82.5 245.0 L 80.0 253.75 L 82.5 252.5 " stroke="black" fill="none" stroke-width="6.0" stroke-linecap="round" stroke-linejoin="round" />
<path d="M 136.25 165.0 L 135.0 163.75 L 133.75 175.0 L 133.75 208.75 L 138.75 238.75 L 150.0 248.75 L 163.75 242.5 L 185.0 220.0 L 202.5 195.0 L 212.5 176.25 L 213.75 163.75 L 206.25 162.5 L 191.25 171.25 L 170.0 187.5 L 151.25 201.25 L 145.0 206.25 L 146.25 206.25 L 150.0 203.75 L 156.25 201.25 L 163.75 201.25 L 172.5 202.5 L 185.0 210.0 L 202.5 222.5 L 226.25 236.25 L 242.5 238.75 " stroke="black" fill="none" stroke-width="6.0" stroke-linecap="round" stroke-linejoin="round" />
</svg>