<svg xmlns="http://www.w3.org/2000/svg" width="300" height="300" viewBox="0 0 300 300">
<path d="M 127.5 68.75 L 127.5 68.75 L 126.25 67.5 L 128.75 70.0 L 138.75 76.25 L 153.75 83.75 L 168.75 88.75 L 171.25 90.0 L 170.0 91.25 " stroke="black" fill="none" stroke-width="6.0" stroke-linecap="round" stroke-linejoin="round" />
<path d="M 92.5 111.25 L 90.0 112.5 L 88.75 115.0 L 97.5 115.0 L 121.25 110.0 L 151.25 100.0 L 173.75 92.5 L 182.5 90.0 L 181.25 91.25 L 166.25 105.0 L 145.0 135.0 L 118.75 175.0 L 93.75 213.75 L 86.25 233.75 L 86.25 235.0 " stroke="black" fill="none" stroke-width="6.0" stroke-linecap="round" stroke-linejoin="round" />
<path d="M 138.75 160.0 L 136.25 160.0 L 132.5 161.25 L 128.75 166.25 L 128.75 188.75 L 131.25 221.25 L 138.75 243.75 L 147.5 246.25 L 158.75 235.0 L 177.5 210.0 L 196.25 186.25 L 210.0 166.25 L 215.0 152.5 L 215.0 151.25 L 203.75 153.75 L 187.5 162.5 L 168.75 172.5 L 151.25 181.25 L 143.75 183.75 L 145.0 183.75 L 147.5 182.5 L 148.75 181.25 L 148.75 181.25 L 148.75 181.25 L 148.75 181.25 L 148.75 181.25 L 150.0 181.25 L 150.0 181.25 L 156.25 185.0 L 172.5 195.0 L 200.0 206.25 L 235.0 213.75 L 252.5 213.75 " stroke="black" fill="none" stroke-width="6.0" stroke-linecap="round" stroke-linejoin="round" />
</svg>