<svg xmlns="http://www.w3.org/2000/svg" width="300" height="300" viewBox="0 0 300 300">
<path d="M 148.75 85.0 L 147.5 85.0 L 141.25 82.5 L 141.25 81.25 L 147.5 81.25 L 160.0 82.5 L 175.0 86.25 L 183.75 90.0 L 180.0 96.25 L 170.0 101.25 " stroke="black" fill="none" stroke-width="6.0" stroke-linecap="round" stroke-linejoin="round" />
<path d="M 106.25 127.5 L 102.5 131.25 L 103.75 131.25 L 117.5 130.0 L 142.5 123.75 L 168.75 111.25 L 183.75 103.75 L 185.0 103.75 L 175.0 107.5 L 160.0 121.25 L 141.25 143.75 L 116.25 180.0 L 97.5 213.75 L 93.75 223.75 L 96.25 221.25 L 98.75 216.25 " stroke="black" fill="none" stroke-width="6.0" stroke-linecap="round" stroke-linejoin="round" />
<path d="M 152.5 146.25 L 150.0 147.5 L 150.0 157.5 L 153.75 196.25 L 157.5 230.0 L 161.25 242.5 L 167.5 243.75 L 176.25 236.25 L 188.75 220.0 L 202.5 200.0 L 213.75 180.0 L 222.5 161.25 L 223.75 151.25 L 213.75 151.25 L 200.0 156.25 L 183.75 165.0 L 168.75 173.75 L 157.5 181.25 L 156.25 183.75 L 157.5 183.75 L 160.0 182.5 L 162.5 182.5 L 165.0 181.25 L 166.25 181.25 L 167.5 181.25 L 168.75 181.25 L 168.75 181.25 L 168.75 181.25 L 170.0 181.25 L 176.25 183.75 L 190.0 193.75 L 207.5 206.25 L 226.25 217.5 L 242.5 221.25 L 247.5 221.25 " stroke="black" fill="none" stroke-width="6.0" stroke-linecap="round" stroke-linejoin="round" />
</svg>