<svg xmlns="http://www.w3.org/2000/svg" width="300" height="300" viewBox="0 0 300 300">
<path d="M 86.25 101.25 L 85.0 98.75 L 83.75 97.5 L 86.25 97.5 L 92.5 108.75 L 100.0 126.25 L 103.75 140.0 L 103.75 146.25 L 102.5 146.25 " stroke="black" fill="none" stroke-width="6.0" stroke-linecap="round" stroke-linejoin="round" />
<path d="M 91.25 108.75 L 91.25 106.25 L 91.25 103.75 L 97.5 98.75 L 111.25 93.75 L 123.75 92.5 L 130.0 93.75 L 127.5 102.5 L 118.75 113.75 L 107.5 125.0 L 100.0 133.75 L 96.25 136.25 L 98.75 136.25 L 106.25 135.0 L 115.0 131.25 L 122.5 125.0 L 126.25 121.25 L 127.5 121.25 L 123.75 123.75 L 117.5 136.25 L 113.75 155.0 L 112.5 181.25 L 112.5 197.5 L 115.0 201.25 L 116.25 200.0 L 120.0 195.0 L 126.25 187.5 L 136.25 175.0 L 142.5 162.5 L 146.25 156.25 L 143.75 155.0 L 133.75 158.75 L 131.25 160.0 " stroke="black" fill="none" stroke-width="6.0" stroke-linecap="round" stroke-linejoin="round" />
<path d="M 90.0 168.75 L 87.5 170.0 L 86.25 172.5 L 86.25 183.75 L 91.25 206.25 L 95.0 223.75 L 98.75 228.75 L 106.25 225.0 L 116.25 212.5 L 130.0 195.0 L 145.0 176.25 L 152.5 155.0 " stroke="black" fill="none" stroke-width="6.0" stroke-linecap="round" stroke-linejoin="round" />
<path d="M 180.0 82.5 L 177.5 82.5 L 175.0 82.5 L 173.75 88.75 L 176.25 98.75 L 182.5 105.0 L 191.25 105.0 L 201.25 100.0 L 210.0 92.5 L 216.25 86.25 L 216.25 85.0 L 207.5 97.5 L 192.5 127.5 L 170.0 165.0 L 148.75 200.0 L 141.25 210.0 L 138.75 208.75 " stroke="black" fill="none" stroke-width="6.0" stroke-linecap="round" stroke-linejoin="round" />
<path d="M 155.0 131.25 L 155.0 127.5 L 161.25 126.25 L 177.5 133.75 L 200.0 148.75 L 221.25 162.5 L 243.75 171.25 L 260.0 176.25 L 267.5 177.5 L 267.5 178.75 L 261.25 180.0 L 258.75 180.0 " stroke="black" fill="none" stroke-width="6.0" stroke-linecap="round" stroke-linejoin="round" />
<path d="M 156.25 192.5 L 156.25 192.5 L 155.0 192.5 L 153.75 193.75 L 158.75 205.0 L 168.75 220.0 L 177.5 232.5 L 182.5 236.25 L 183.75 237.5 L 180.0 232.5 L 176.25 225.0 L 170.0 217.5 L 165.0 208.75 L 160.0 202.5 L 158.75 198.75 L 162.5 195.0 L 176.25 191.25 L 196.25 187.5 L 213.75 185.0 L 223.75 185.0 L 226.25 190.0 L 220.0 200.0 L 210.0 211.25 L 197.5 222.5 L 187.5 231.25 L 185.0 235.0 L 188.75 235.0 L 200.0 232.5 L 216.25 226.25 L 235.0 217.5 L 248.75 211.25 L 256.25 207.5 L 257.5 206.25 " stroke="black" fill="none" stroke-width="6.0" stroke-linecap="round" stroke-linejoin="round" />
</svg>