<svg xmlns="http://www.w3.org/2000/svg" width="300" height="300" viewBox="0 0 300 300">
<path d="M 96.25 93.75 L 96.25 93.75 L 96.25 92.5 L 96.25 95.0 L 90.0 118.75 L 73.75 157.5 L 62.5 181.25 L 60.0 186.25 L 62.5 172.5 L 72.5 153.75 L 85.0 138.75 L 97.5 131.25 L 105.0 133.75 L 108.75 153.75 L 107.5 188.75 L 98.75 228.75 L 91.25 256.25 L 86.25 258.75 " stroke="black" fill="none" stroke-width="6.0" stroke-linecap="round" stroke-linejoin="round" />
<path d="M 130.0 113.75 L 130.0 113.75 L 130.0 113.75 L 137.5 112.5 L 165.0 103.75 L 201.25 91.25 L 222.5 83.75 L 227.5 82.5 L 212.5 90.0 L 207.5 91.25 " stroke="black" fill="none" stroke-width="6.0" stroke-linecap="round" stroke-linejoin="round" />
<path d="M 145.0 142.5 L 143.75 147.5 L 142.5 157.5 L 148.75 173.75 L 155.0 188.75 L 157.5 193.75 L 158.75 193.75 L 153.75 187.5 L 148.75 181.25 L 145.0 172.5 L 143.75 162.5 L 150.0 153.75 L 165.0 147.5 L 180.0 148.75 L 182.5 162.5 L 170.0 182.5 L 155.0 197.5 L 147.5 200.0 L 151.25 186.25 L 161.25 162.5 " stroke="black" fill="none" stroke-width="6.0" stroke-linecap="round" stroke-linejoin="round" />
<path d="M 207.5 107.5 L 207.5 107.5 L 207.5 107.5 L 208.75 118.75 L 212.5 160.0 L 216.25 212.5 L 216.25 245.0 L 215.0 253.75 L 211.25 256.25 L 205.0 256.25 L 192.5 252.5 L 170.0 246.25 L 143.75 235.0 L 126.25 223.75 " stroke="black" fill="none" stroke-width="6.0" stroke-linecap="round" stroke-linejoin="round" />
</svg>