<svg xmlns="http://www.w3.org/2000/svg" width="300" height="300" viewBox="0 0 300 300">
<path d="M 102.5 87.5 L 96.25 86.25 L 92.5 86.25 L 93.75 86.25 L 102.5 86.25 L 118.75 87.5 L 132.5 87.5 L 138.75 87.5 L 138.75 87.5 " stroke="black" fill="none" stroke-width="6.0" stroke-linecap="round" stroke-linejoin="round" />
<path d="M 70.0 161.25 L 66.25 163.75 L 62.5 167.5 L 71.25 166.25 L 87.5 158.75 L 110.0 145.0 L 131.25 128.75 L 142.5 117.5 L 141.25 113.75 L 133.75 115.0 L 126.25 116.25 L 117.5 116.25 L 111.25 116.25 L 108.75 117.5 L 108.75 131.25 L 117.5 170.0 L 125.0 217.5 L 126.25 240.0 L 125.0 245.0 L 118.75 243.75 L 117.5 240.0 " stroke="black" fill="none" stroke-width="6.0" stroke-linecap="round" stroke-linejoin="round" />
<path d="M 112.5 157.5 L 112.5 157.5 L 107.5 162.5 L 101.25 176.25 L 93.75 197.5 L 86.25 211.25 L 83.75 216.25 L 85.0 215.0 L 96.25 207.5 L 113.75 196.25 L 136.25 181.25 L 158.75 162.5 L 173.75 146.25 L 178.75 136.25 L 178.75 130.0 L 175.0 125.0 L 171.25 121.25 L 168.75 120.0 L 168.75 123.75 L 168.75 136.25 L 168.75 151.25 L 172.5 161.25 L 178.75 165.0 L 188.75 161.25 L 200.0 147.5 L 212.5 130.0 L 223.75 112.5 L 230.0 101.25 L 227.5 98.75 L 217.5 101.25 " stroke="black" fill="none" stroke-width="6.0" stroke-linecap="round" stroke-linejoin="round" />
<path d="M 192.5 95.0 L 191.25 92.5 L 188.75 91.25 L 188.75 90.0 L 191.25 101.25 L 195.0 130.0 L 195.0 172.5 L 186.25 208.75 L 173.75 225.0 L 160.0 230.0 L 153.75 228.75 " stroke="black" fill="none" stroke-width="6.0" stroke-linecap="round" stroke-linejoin="round" />
<path d="M 198.75 157.5 L 201.25 157.5 L 206.25 161.25 L 213.75 171.25 L 222.5 185.0 L 231.25 197.5 L 241.25 208.75 L 251.25 221.25 L 258.75 231.25 L 265.0 236.25 L 267.5 237.5 L 267.5 237.5 L 263.75 237.5 " stroke="black" fill="none" stroke-width="6.0" stroke-linecap="round" stroke-linejoin="round" />
</svg>