<svg xmlns="http://www.w3.org/2000/svg" width="300" height="300" viewBox="0 0 300 300">
<path d="M 87.5 96.25 L 87.5 96.25 L 87.5 96.25 L 90.0 96.25 L 101.25 98.75 L 120.0 101.25 L 132.5 103.75 L 132.5 105.0 " stroke="black" fill="none" stroke-width="6.0" stroke-linecap="round" stroke-linejoin="round" />
<path d="M 71.25 145.0 L 68.75 147.5 L 67.5 147.5 L 78.75 146.25 L 100.0 138.75 L 122.5 130.0 L 136.25 123.75 L 132.5 122.5 L 128.75 123.75 " stroke="black" fill="none" stroke-width="6.0" stroke-linecap="round" stroke-linejoin="round" />
<path d="M 102.5 126.25 L 101.25 126.25 L 100.0 128.75 L 103.75 148.75 L 111.25 187.5 L 112.5 213.75 L 108.75 223.75 L 103.75 223.75 L 96.25 218.75 L 87.5 211.25 L 80.0 203.75 L 73.75 198.75 L 73.75 195.0 L 82.5 192.5 L 100.0 183.75 L 126.25 168.75 L 155.0 147.5 L 170.0 131.25 L 173.75 123.75 " stroke="black" fill="none" stroke-width="6.0" stroke-linecap="round" stroke-linejoin="round" />
<path d="M 175.0 107.5 L 173.75 107.5 L 165.0 111.25 L 160.0 118.75 L 157.5 135.0 L 156.25 153.75 L 158.75 162.5 L 166.25 163.75 L 180.0 156.25 L 195.0 143.75 L 212.5 127.5 L 227.5 113.75 L 233.75 105.0 L 228.75 103.75 L 217.5 103.75 " stroke="black" fill="none" stroke-width="6.0" stroke-linecap="round" stroke-linejoin="round" />
<path d="M 190.0 82.5 L 190.0 82.5 L 188.75 81.25 L 187.5 83.75 L 187.5 108.75 L 186.25 153.75 L 182.5 188.75 L 175.0 205.0 L 161.25 213.75 L 150.0 216.25 L 142.5 211.25 L 140.0 203.75 " stroke="black" fill="none" stroke-width="6.0" stroke-linecap="round" stroke-linejoin="round" />
<path d="M 186.25 156.25 L 188.75 160.0 L 196.25 173.75 L 207.5 195.0 L 220.0 220.0 L 232.5 237.5 L 246.25 248.75 L 255.0 251.25 L 258.75 251.25 L 260.0 250.0 " stroke="black" fill="none" stroke-width="6.0" stroke-linecap="round" stroke-linejoin="round" />
</svg>