<svg xmlns="http://www.w3.org/2000/svg" width="300" height="300" viewBox="0 0 300 300">
<path d="M 80.0 121.25 L 80.0 121.25 L 76.25 126.25 L 75.0 152.5 L 76.25 191.25 L 80.0 210.0 L 83.75 210.0 L 85.0 206.25 " stroke="black" fill="none" stroke-width="6.0" stroke-linecap="round" stroke-linejoin="round" />
<path d="M 78.75 133.75 L 77.5 132.5 L 76.25 132.5 L 76.25 130.0 L 85.0 126.25 L 96.25 122.5 L 105.0 123.75 L 112.5 138.75 L 115.0 166.25 L 115.0 192.5 L 115.0 203.75 L 116.25 203.75 L 116.25 198.75 L 112.5 192.5 L 107.5 187.5 " stroke="black" fill="none" stroke-width="6.0" stroke-linecap="round" stroke-linejoin="round" />
<path d="M 83.75 165.0 L 80.0 166.25 L 76.25 168.75 L 75.0 168.75 L 85.0 165.0 L 98.75 155.0 L 113.75 146.25 L 118.75 141.25 " stroke="black" fill="none" stroke-width="6.0" stroke-linecap="round" stroke-linejoin="round" />
<path d="M 85.0 208.75 L 82.5 211.25 L 80.0 216.25 L 86.25 212.5 L 101.25 196.25 L 120.0 173.75 " stroke="black" fill="none" stroke-width="6.0" stroke-linecap="round" stroke-linejoin="round" />
<path d="M 152.5 67.5 L 152.5 67.5 L 152.5 67.5 L 153.75 66.25 L 161.25 66.25 L 173.75 67.5 L 185.0 71.25 L 187.5 78.75 L 185.0 80.0 " stroke="black" fill="none" stroke-width="6.0" stroke-linecap="round" stroke-linejoin="round" />
<path d="M 128.75 106.25 L 125.0 107.5 L 122.5 108.75 L 133.75 106.25 L 156.25 96.25 L 190.0 81.25 L 212.5 67.5 L 215.0 65.0 L 203.75 68.75 L 190.0 77.5 L 172.5 85.0 L 157.5 92.5 L 150.0 102.5 L 151.25 121.25 L 156.25 143.75 L 158.75 153.75 L 158.75 153.75 " stroke="black" fill="none" stroke-width="6.0" stroke-linecap="round" stroke-linejoin="round" />
<path d="M 180.0 91.25 L 183.75 87.5 L 188.75 86.25 L 193.75 93.75 L 193.75 107.5 L 186.25 125.0 L 170.0 140.0 L 148.75 151.25 L 131.25 157.5 L 127.5 160.0 L 137.5 156.25 L 160.0 147.5 L 187.5 133.75 L 212.5 118.75 L 220.0 111.25 L 212.5 113.75 L 198.75 123.75 L 186.25 135.0 L 172.5 150.0 L 166.25 181.25 L 171.25 215.0 L 181.25 235.0 L 186.25 241.25 L 187.5 241.25 L 187.5 240.0 L 183.75 232.5 L 177.5 220.0 L 170.0 206.25 L 167.5 202.5 " stroke="black" fill="none" stroke-width="6.0" stroke-linecap="round" stroke-linejoin="round" />
<path d="M 171.25 157.5 L 171.25 157.5 L 172.5 155.0 L 180.0 151.25 L 196.25 147.5 L 213.75 152.5 L 227.5 171.25 L 228.75 197.5 L 221.25 216.25 L 212.5 230.0 L 203.75 235.0 L 200.0 235.0 " stroke="black" fill="none" stroke-width="6.0" stroke-linecap="round" stroke-linejoin="round" />
<path d="M 170.0 197.5 L 166.25 197.5 L 163.75 197.5 L 170.0 197.5 L 190.0 190.0 L 208.75 181.25 L 223.75 173.75 L 221.25 177.5 L 215.0 183.75 " stroke="black" fill="none" stroke-width="6.0" stroke-linecap="round" stroke-linejoin="round" />
<path d="M 183.75 226.25 L 178.75 233.75 L 178.75 235.0 L 188.75 232.5 L 203.75 222.5 L 213.75 212.5 " stroke="black" fill="none" stroke-width="6.0" stroke-linecap="round" stroke-linejoin="round" />
</svg>