<svg xmlns="http://www.w3.org/2000/svg" width="300" height="300" viewBox="0 0 300 300">
<path d="M 146.25 61.25 L 145.0 63.75 L 142.5 67.5 L 136.25 81.25 L 121.25 107.5 L 101.25 135.0 L 85.0 148.75 L 71.25 151.25 L 66.25 147.5 L 67.5 137.5 " stroke="black" fill="none" stroke-width="6.0" stroke-linecap="round" stroke-linejoin="round" />
<path d="M 140.0 72.5 L 142.5 72.5 L 148.75 72.5 L 162.5 78.75 L 185.0 92.5 L 206.25 106.25 L 222.5 117.5 L 236.25 126.25 L 242.5 132.5 " stroke="black" fill="none" stroke-width="6.0" stroke-linecap="round" stroke-linejoin="round" />
<path d="M 146.25 101.25 L 146.25 101.25 L 143.75 101.25 L 142.5 102.5 L 145.0 103.75 L 153.75 105.0 L 163.75 106.25 L 166.25 107.5 L 165.0 108.75 " stroke="black" fill="none" stroke-width="6.0" stroke-linecap="round" stroke-linejoin="round" />
<path d="M 128.75 131.25 L 126.25 132.5 L 125.0 133.75 L 131.25 132.5 L 145.0 127.5 L 161.25 118.75 L 176.25 110.0 L 181.25 107.5 L 177.5 112.5 L 163.75 126.25 L 148.75 142.5 L 135.0 157.5 L 123.75 167.5 L 121.25 166.25 " stroke="black" fill="none" stroke-width="6.0" stroke-linecap="round" stroke-linejoin="round" />
<path d="M 141.25 131.25 L 140.0 131.25 L 140.0 131.25 L 146.25 131.25 L 157.5 135.0 L 176.25 138.75 L 193.75 142.5 L 197.5 146.25 " stroke="black" fill="none" stroke-width="6.0" stroke-linecap="round" stroke-linejoin="round" />
<path d="M 120.0 150.0 L 120.0 148.75 L 117.5 147.5 L 117.5 146.25 L 118.75 146.25 L 121.25 152.5 L 123.75 161.25 L 127.5 167.5 L 136.25 171.25 L 148.75 168.75 L 163.75 160.0 L 180.0 150.0 L 191.25 142.5 L 195.0 138.75 L 196.25 137.5 L 195.0 137.5 L 192.5 137.5 L 191.25 137.5 L 191.25 136.25 L 191.25 136.25 L 191.25 136.25 L 191.25 136.25 L 191.25 136.25 L 191.25 136.25 L 191.25 136.25 L 191.25 136.25 L 191.25 136.25 L 191.25 136.25 L 192.5 137.5 L 195.0 141.25 L 198.75 148.75 L 201.25 158.75 L 201.25 162.5 " stroke="black" fill="none" stroke-width="6.0" stroke-linecap="round" stroke-linejoin="round" />
<path d="M 118.75 191.25 L 118.75 190.0 L 117.5 188.75 L 116.25 190.0 L 116.25 198.75 L 117.5 207.5 L 120.0 225.0 L 123.75 232.5 L 125.0 233.75 L 127.5 226.25 L 127.5 223.75 " stroke="black" fill="none" stroke-width="6.0" stroke-linecap="round" stroke-linejoin="round" />
<path d="M 125.0 201.25 L 122.5 201.25 L 121.25 200.0 L 122.5 198.75 L 133.75 195.0 L 151.25 187.5 L 175.0 177.5 L 195.0 170.0 L 205.0 167.5 L 207.5 172.5 L 208.75 183.75 L 208.75 197.5 L 207.5 213.75 L 206.25 228.75 L 205.0 238.75 L 203.75 242.5 L 203.75 242.5 L 202.5 241.25 L 201.25 237.5 L 200.0 235.0 " stroke="black" fill="none" stroke-width="6.0" stroke-linecap="round" stroke-linejoin="round" />
<path d="M 157.5 162.5 L 157.5 162.5 L 157.5 162.5 L 156.25 173.75 L 152.5 195.0 L 147.5 213.75 L 142.5 222.5 L 142.5 222.5 L 142.5 220.0 L 150.0 216.25 L 161.25 208.75 L 173.75 201.25 L 185.0 195.0 L 188.75 192.5 L 190.0 191.25 L 186.25 191.25 L 182.5 190.0 L 181.25 190.0 L 180.0 190.0 L 178.75 190.0 L 178.75 190.0 L 178.75 190.0 L 178.75 190.0 L 178.75 190.0 L 181.25 190.0 L 186.25 193.75 L 192.5 200.0 L 198.75 211.25 L 201.25 222.5 " stroke="black" fill="none" stroke-width="6.0" stroke-linecap="round" stroke-linejoin="round" />
</svg>