<svg xmlns="http://www.w3.org/2000/svg" width="300" height="300" viewBox="0 0 300 300">
<path d="M 87.5 107.5 L 87.5 107.5 L 87.5 108.75 L 87.5 111.25 L 87.5 118.75 L 85.0 136.25 L 75.0 161.25 L 61.25 180.0 L 48.75 187.5 L 43.75 187.5 " stroke="black" fill="none" stroke-width="6.0" stroke-linecap="round" stroke-linejoin="round" />
<path d="M 77.5 148.75 L 77.5 152.5 L 77.5 157.5 L 80.0 168.75 L 85.0 190.0 L 86.25 215.0 L 82.5 236.25 L 81.25 240.0 " stroke="black" fill="none" stroke-width="6.0" stroke-linecap="round" stroke-linejoin="round" />
<path d="M 155.0 76.25 L 152.5 78.75 L 152.5 80.0 L 160.0 81.25 L 173.75 81.25 L 186.25 81.25 L 193.75 80.0 L 192.5 80.0 " stroke="black" fill="none" stroke-width="6.0" stroke-linecap="round" stroke-linejoin="round" />
<path d="M 126.25 102.5 L 125.0 103.75 L 122.5 106.25 L 121.25 107.5 L 128.75 107.5 L 145.0 102.5 L 166.25 96.25 L 187.5 87.5 L 198.75 80.0 L 200.0 77.5 L 192.5 78.75 L 178.75 85.0 L 168.75 88.75 " stroke="black" fill="none" stroke-width="6.0" stroke-linecap="round" stroke-linejoin="round" />
<path d="M 137.5 103.75 L 136.25 105.0 L 135.0 106.25 L 135.0 116.25 L 138.75 142.5 L 140.0 183.75 L 133.75 213.75 L 125.0 227.5 L 118.75 228.75 L 117.5 225.0 " stroke="black" fill="none" stroke-width="6.0" stroke-linecap="round" stroke-linejoin="round" />
<path d="M 161.25 138.75 L 161.25 138.75 L 161.25 142.5 L 160.0 150.0 L 156.25 167.5 L 151.25 187.5 L 146.25 198.75 L 142.5 200.0 " stroke="black" fill="none" stroke-width="6.0" stroke-linecap="round" stroke-linejoin="round" />
<path d="M 165.0 161.25 L 165.0 163.75 L 165.0 176.25 L 166.25 187.5 L 166.25 196.25 L 167.5 201.25 L 167.5 201.25 " stroke="black" fill="none" stroke-width="6.0" stroke-linecap="round" stroke-linejoin="round" />
<path d="M 176.25 165.0 L 182.5 160.0 L 200.0 148.75 L 218.75 136.25 L 240.0 120.0 L 250.0 107.5 L 248.75 103.75 L 241.25 103.75 L 233.75 103.75 L 230.0 105.0 L 228.75 106.25 L 228.75 115.0 L 230.0 132.5 L 235.0 163.75 L 242.5 202.5 L 246.25 226.25 L 247.5 233.75 L 247.5 235.0 L 243.75 233.75 L 235.0 231.25 L 222.5 226.25 L 218.75 225.0 " stroke="black" fill="none" stroke-width="6.0" stroke-linecap="round" stroke-linejoin="round" />
<path d="M 198.75 170.0 L 198.75 172.5 L 197.5 177.5 L 203.75 182.5 L 212.5 188.75 L 222.5 193.75 " stroke="black" fill="none" stroke-width="6.0" stroke-linecap="round" stroke-linejoin="round" />
</svg>