<svg xmlns="http://www.w3.org/2000/svg" width="300" height="300" viewBox="0 0 300 300">
<path d="M 86.25 103.75 L 86.25 102.5 L 86.25 101.25 L 87.5 103.75 L 87.5 120.0 L 78.75 146.25 L 62.5 168.75 L 51.25 178.75 L 46.25 182.5 L 45.0 181.25 L 48.75 176.25 " stroke="black" fill="none" stroke-width="6.0" stroke-linecap="round" stroke-linejoin="round" />
<path d="M 72.5 158.75 L 73.75 157.5 L 75.0 157.5 L 76.25 157.5 L 78.75 160.0 L 80.0 175.0 L 80.0 203.75 L 72.5 228.75 L 65.0 240.0 L 62.5 241.25 " stroke="black" fill="none" stroke-width="6.0" stroke-linecap="round" stroke-linejoin="round" />
<path d="M 145.0 75.0 L 142.5 75.0 L 142.5 75.0 L 148.75 76.25 L 163.75 77.5 L 182.5 77.5 L 196.25 72.5 L 196.25 71.25 L 182.5 76.25 " stroke="black" fill="none" stroke-width="6.0" stroke-linecap="round" stroke-linejoin="round" />
<path d="M 125.0 117.5 L 117.5 125.0 L 115.0 130.0 L 123.75 128.75 L 140.0 120.0 L 158.75 107.5 L 171.25 97.5 L 175.0 92.5 L 167.5 93.75 " stroke="black" fill="none" stroke-width="6.0" stroke-linecap="round" stroke-linejoin="round" />
<path d="M 121.25 123.75 L 118.75 130.0 L 113.75 146.25 L 113.75 167.5 L 112.5 210.0 L 112.5 222.5 L 112.5 221.25 L 115.0 210.0 " stroke="black" fill="none" stroke-width="6.0" stroke-linecap="round" stroke-linejoin="round" />
<path d="M 145.0 140.0 L 145.0 136.25 L 145.0 141.25 L 141.25 158.75 L 136.25 178.75 L 133.75 187.5 L 136.25 183.75 L 145.0 168.75 L 150.0 160.0 L 153.75 156.25 L 155.0 168.75 L 152.5 188.75 L 147.5 206.25 L 143.75 213.75 L 143.75 210.0 L 143.75 202.5 " stroke="black" fill="none" stroke-width="6.0" stroke-linecap="round" stroke-linejoin="round" />
<path d="M 161.25 156.25 L 161.25 157.5 L 162.5 158.75 L 165.0 158.75 L 177.5 152.5 L 197.5 136.25 L 216.25 117.5 L 223.75 105.0 L 226.25 100.0 L 220.0 101.25 L 213.75 105.0 L 210.0 108.75 L 206.25 111.25 L 205.0 112.5 L 205.0 115.0 L 205.0 125.0 L 207.5 151.25 L 211.25 192.5 L 213.75 223.75 L 213.75 238.75 L 212.5 243.75 L 210.0 243.75 L 203.75 242.5 L 197.5 237.5 L 191.25 231.25 L 183.75 223.75 L 180.0 220.0 " stroke="black" fill="none" stroke-width="6.0" stroke-linecap="round" stroke-linejoin="round" />
<path d="M 173.75 178.75 L 172.5 178.75 L 171.25 178.75 L 175.0 180.0 L 185.0 187.5 L 190.0 192.5 " stroke="black" fill="none" stroke-width="6.0" stroke-linecap="round" stroke-linejoin="round" />
</svg>