<svg xmlns="http://www.w3.org/2000/svg" width="300" height="300" viewBox="0 0 300 300">
<path d="M 88.75 92.5 L 86.25 88.75 L 85.0 87.5 L 85.0 93.75 L 85.0 125.0 L 85.0 183.75 L 82.5 228.75 L 82.5 242.5 L 82.5 242.5 L 81.25 241.25 " stroke="black" fill="none" stroke-width="6.0" stroke-linecap="round" stroke-linejoin="round" />
<path d="M 87.5 98.75 L 83.75 98.75 L 81.25 98.75 L 83.75 98.75 L 92.5 97.5 L 106.25 95.0 L 120.0 93.75 L 130.0 93.75 L 131.25 97.5 L 122.5 106.25 L 108.75 117.5 L 95.0 127.5 L 86.25 132.5 L 83.75 133.75 L 85.0 132.5 L 95.0 126.25 L 107.5 117.5 L 122.5 108.75 L 131.25 106.25 L 130.0 113.75 L 115.0 132.5 L 96.25 151.25 L 77.5 165.0 L 71.25 166.25 L 77.5 151.25 " stroke="black" fill="none" stroke-width="6.0" stroke-linecap="round" stroke-linejoin="round" />
<path d="M 172.5 93.75 L 170.0 92.5 L 166.25 92.5 L 162.5 95.0 L 162.5 111.25 L 163.75 136.25 L 171.25 147.5 L 185.0 143.75 L 198.75 127.5 L 206.25 110.0 L 207.5 100.0 L 202.5 96.25 L 191.25 100.0 L 176.25 111.25 L 161.25 125.0 L 155.0 133.75 L 157.5 133.75 L 170.0 126.25 L 190.0 111.25 L 205.0 96.25 L 211.25 85.0 L 211.25 82.5 " stroke="black" fill="none" stroke-width="6.0" stroke-linecap="round" stroke-linejoin="round" />
<path d="M 163.75 90.0 L 161.25 91.25 L 156.25 92.5 L 156.25 92.5 L 170.0 88.75 L 191.25 81.25 L 210.0 73.75 L 225.0 72.5 L 232.5 86.25 L 235.0 130.0 L 238.75 185.0 L 243.75 223.75 L 245.0 251.25 L 246.25 261.25 L 245.0 262.5 L 243.75 262.5 L 238.75 258.75 L 228.75 250.0 L 216.25 235.0 L 205.0 217.5 " stroke="black" fill="none" stroke-width="6.0" stroke-linecap="round" stroke-linejoin="round" />
<path d="M 121.25 150.0 L 121.25 150.0 L 121.25 150.0 L 121.25 150.0 L 121.25 151.25 L 122.5 157.5 L 125.0 167.5 L 125.0 175.0 " stroke="black" fill="none" stroke-width="6.0" stroke-linecap="round" stroke-linejoin="round" />
<path d="M 138.75 147.5 L 140.0 147.5 L 140.0 150.0 L 140.0 153.75 L 137.5 161.25 L 131.25 171.25 L 121.25 178.75 L 108.75 186.25 L 100.0 190.0 L 98.75 190.0 L 102.5 190.0 L 113.75 190.0 L 128.75 183.75 L 141.25 176.25 L 147.5 168.75 L 147.5 167.5 L 140.0 173.75 L 127.5 188.75 L 115.0 205.0 L 105.0 220.0 L 101.25 230.0 L 105.0 231.25 L 112.5 231.25 L 122.5 227.5 L 132.5 220.0 L 140.0 211.25 L 145.0 203.75 L 145.0 200.0 L 145.0 198.75 L 142.5 197.5 L 142.5 197.5 L 141.25 197.5 L 142.5 197.5 L 147.5 200.0 L 155.0 202.5 L 161.25 203.75 L 162.5 205.0 L 162.5 205.0 " stroke="black" fill="none" stroke-width="6.0" stroke-linecap="round" stroke-linejoin="round" />
<path d="M 131.25 188.75 L 131.25 188.75 L 128.75 187.5 L 128.75 188.75 L 128.75 201.25 L 130.0 227.5 L 122.5 252.5 L 120.0 256.25 " stroke="black" fill="none" stroke-width="6.0" stroke-linecap="round" stroke-linejoin="round" />
<path d="M 163.75 151.25 L 165.0 151.25 L 165.0 150.0 L 165.0 150.0 L 165.0 148.75 L 165.0 150.0 L 163.75 157.5 L 162.5 167.5 L 162.5 175.0 L 163.75 177.5 L 170.0 175.0 L 181.25 167.5 L 192.5 160.0 L 200.0 156.25 L 202.5 156.25 L 202.5 162.5 L 198.75 171.25 L 191.25 181.25 L 185.0 188.75 L 177.5 192.5 L 176.25 192.5 " stroke="black" fill="none" stroke-width="6.0" stroke-linecap="round" stroke-linejoin="round" />
<path d="M 173.75 178.75 L 173.75 176.25 L 175.0 173.75 L 175.0 173.75 L 175.0 176.25 L 172.5 191.25 L 165.0 216.25 L 153.75 245.0 L 145.0 256.25 L 141.25 256.25 " stroke="black" fill="none" stroke-width="6.0" stroke-linecap="round" stroke-linejoin="round" />
<path d="M 168.75 197.5 L 170.0 195.0 L 171.25 195.0 L 175.0 196.25 L 181.25 202.5 L 188.75 211.25 L 198.75 223.75 L 215.0 236.25 L 217.5 238.75 " stroke="black" fill="none" stroke-width="6.0" stroke-linecap="round" stroke-linejoin="round" />
</svg>