<svg xmlns="http://www.w3.org/2000/svg" width="300" height="300" viewBox="0 0 300 300">
<path d="M 82.5 86.25 L 80.0 85.0 L 77.5 85.0 L 77.5 88.75 L 77.5 126.25 L 81.25 195.0 L 82.5 227.5 L 83.75 236.25 L 83.75 236.25 " stroke="black" fill="none" stroke-width="6.0" stroke-linecap="round" stroke-linejoin="round" />
<path d="M 81.25 96.25 L 81.25 96.25 L 80.0 96.25 L 80.0 95.0 L 91.25 91.25 L 108.75 90.0 L 123.75 95.0 L 128.75 108.75 L 121.25 127.5 L 106.25 141.25 L 95.0 143.75 L 91.25 143.75 " stroke="black" fill="none" stroke-width="6.0" stroke-linecap="round" stroke-linejoin="round" />
<path d="M 78.75 120.0 L 75.0 122.5 L 73.75 122.5 L 80.0 122.5 L 93.75 117.5 L 110.0 111.25 L 118.75 106.25 L 118.75 106.25 " stroke="black" fill="none" stroke-width="6.0" stroke-linecap="round" stroke-linejoin="round" />
<path d="M 81.25 148.75 L 76.25 156.25 L 77.5 157.5 L 92.5 153.75 L 115.0 140.0 L 128.75 132.5 " stroke="black" fill="none" stroke-width="6.0" stroke-linecap="round" stroke-linejoin="round" />
<path d="M 168.75 76.25 L 168.75 75.0 L 168.75 73.75 L 167.5 76.25 L 167.5 92.5 L 168.75 117.5 L 180.0 133.75 L 196.25 135.0 L 210.0 123.75 L 217.5 111.25 L 218.75 103.75 L 210.0 102.5 L 197.5 106.25 L 182.5 110.0 L 167.5 113.75 L 158.75 117.5 L 160.0 117.5 L 171.25 112.5 L 187.5 105.0 L 201.25 95.0 L 210.0 85.0 L 210.0 83.75 " stroke="black" fill="none" stroke-width="6.0" stroke-linecap="round" stroke-linejoin="round" />
<path d="M 167.5 83.75 L 166.25 83.75 L 161.25 83.75 L 162.5 81.25 L 176.25 77.5 L 196.25 72.5 L 213.75 70.0 L 225.0 71.25 L 230.0 90.0 L 230.0 133.75 L 230.0 186.25 L 228.75 230.0 L 230.0 251.25 L 231.25 257.5 L 231.25 258.75 L 228.75 258.75 L 223.75 253.75 L 213.75 241.25 L 201.25 217.5 L 193.75 205.0 " stroke="black" fill="none" stroke-width="6.0" stroke-linecap="round" stroke-linejoin="round" />
<path d="M 113.75 153.75 L 112.5 156.25 L 111.25 157.5 L 112.5 162.5 L 116.25 168.75 L 117.5 173.75 L 118.75 175.0 " stroke="black" fill="none" stroke-width="6.0" stroke-linecap="round" stroke-linejoin="round" />
<path d="M 132.5 147.5 L 132.5 147.5 L 132.5 147.5 L 132.5 148.75 L 133.75 151.25 L 133.75 157.5 L 126.25 167.5 L 113.75 176.25 L 98.75 183.75 L 92.5 186.25 L 93.75 186.25 L 103.75 182.5 L 120.0 177.5 L 135.0 171.25 L 146.25 165.0 L 148.75 163.75 L 143.75 168.75 L 132.5 182.5 L 120.0 196.25 L 108.75 210.0 L 102.5 218.75 L 101.25 221.25 L 110.0 221.25 L 122.5 218.75 L 137.5 212.5 L 148.75 206.25 L 156.25 201.25 L 160.0 198.75 L 160.0 198.75 L 158.75 198.75 L 157.5 198.75 L 157.5 198.75 L 156.25 198.75 L 155.0 198.75 L 153.75 198.75 " stroke="black" fill="none" stroke-width="6.0" stroke-linecap="round" stroke-linejoin="round" />
<path d="M 151.25 182.5 L 151.25 182.5 L 151.25 182.5 L 151.25 182.5 L 151.25 183.75 L 151.25 183.75 L 151.25 183.75 L 151.25 185.0 L 151.25 185.0 L 151.25 185.0 L 151.25 185.0 L 151.25 185.0 L 150.0 185.0 L 150.0 186.25 L 150.0 186.25 L 150.0 186.25 L 150.0 188.75 L 151.25 193.75 L 152.5 200.0 " stroke="black" fill="none" stroke-width="6.0" stroke-linecap="round" stroke-linejoin="round" />
<path d="M 135.0 176.25 L 135.0 176.25 L 133.75 176.25 L 133.75 178.75 L 131.25 196.25 L 126.25 226.25 L 117.5 250.0 L 113.75 252.5 " stroke="black" fill="none" stroke-width="6.0" stroke-linecap="round" stroke-linejoin="round" />
<path d="M 161.25 151.25 L 162.5 148.75 L 163.75 146.25 L 163.75 146.25 L 163.75 151.25 L 163.75 161.25 L 163.75 170.0 L 165.0 173.75 L 171.25 173.75 L 182.5 167.5 L 196.25 158.75 L 205.0 153.75 L 208.75 152.5 L 208.75 156.25 L 202.5 166.25 L 196.25 178.75 L 187.5 186.25 " stroke="black" fill="none" stroke-width="6.0" stroke-linecap="round" stroke-linejoin="round" />
<path d="M 182.5 168.75 L 180.0 171.25 L 177.5 177.5 L 173.75 193.75 L 166.25 216.25 L 157.5 235.0 L 152.5 240.0 " stroke="black" fill="none" stroke-width="6.0" stroke-linecap="round" stroke-linejoin="round" />
<path d="M 163.75 195.0 L 165.0 195.0 L 168.75 198.75 L 180.0 207.5 L 192.5 216.25 L 212.5 230.0 L 213.75 232.5 " stroke="black" fill="none" stroke-width="6.0" stroke-linecap="round" stroke-linejoin="round" />
</svg>