<svg xmlns="http://www.w3.org/2000/svg" width="300" height="300" viewBox="0 0 300 300">
<path d="M 140.0 61.25 L 136.25 62.5 L 137.5 62.5 L 143.75 66.25 L 153.75 70.0 L 162.5 73.75 L 165.0 76.25 " stroke="black" fill="none" stroke-width="6.0" stroke-linecap="round" stroke-linejoin="round" />
<path d="M 96.25 86.25 L 95.0 86.25 L 92.5 85.0 L 92.5 85.0 L 92.5 91.25 L 91.25 105.0 L 91.25 116.25 L 91.25 120.0 " stroke="black" fill="none" stroke-width="6.0" stroke-linecap="round" stroke-linejoin="round" />
<path d="M 91.25 91.25 L 90.0 91.25 L 91.25 91.25 L 111.25 88.75 L 153.75 82.5 L 196.25 77.5 L 220.0 77.5 L 223.75 80.0 L 220.0 85.0 L 206.25 92.5 L 200.0 95.0 " stroke="black" fill="none" stroke-width="6.0" stroke-linecap="round" stroke-linejoin="round" />
<path d="M 122.5 110.0 L 122.5 110.0 L 122.5 110.0 L 128.75 110.0 L 145.0 106.25 L 165.0 100.0 L 181.25 92.5 L 186.25 88.75 L 186.25 88.75 " stroke="black" fill="none" stroke-width="6.0" stroke-linecap="round" stroke-linejoin="round" />
<path d="M 157.5 103.75 L 153.75 107.5 L 152.5 116.25 L 152.5 132.5 L 152.5 145.0 L 152.5 151.25 L 151.25 150.0 " stroke="black" fill="none" stroke-width="6.0" stroke-linecap="round" stroke-linejoin="round" />
<path d="M 146.25 125.0 L 138.75 131.25 L 125.0 142.5 L 107.5 155.0 L 93.75 163.75 L 90.0 163.75 L 90.0 157.5 L 95.0 150.0 " stroke="black" fill="none" stroke-width="6.0" stroke-linecap="round" stroke-linejoin="round" />
<path d="M 157.5 127.5 L 163.75 127.5 L 178.75 127.5 L 196.25 127.5 L 206.25 127.5 L 210.0 126.25 L 208.75 126.25 L 202.5 128.75 L 188.75 138.75 L 160.0 156.25 L 126.25 181.25 L 91.25 201.25 L 73.75 208.75 L 67.5 208.75 L 68.75 205.0 " stroke="black" fill="none" stroke-width="6.0" stroke-linecap="round" stroke-linejoin="round" />
<path d="M 150.0 166.25 L 147.5 166.25 L 145.0 165.0 L 143.75 166.25 L 142.5 177.5 L 142.5 202.5 L 145.0 230.0 L 148.75 242.5 L 151.25 241.25 L 151.25 235.0 L 150.0 226.25 " stroke="black" fill="none" stroke-width="6.0" stroke-linecap="round" stroke-linejoin="round" />
<path d="M 137.5 175.0 L 137.5 175.0 L 137.5 173.75 L 141.25 170.0 L 156.25 162.5 L 180.0 153.75 L 196.25 153.75 L 201.25 171.25 L 201.25 197.5 L 197.5 218.75 L 196.25 232.5 L 195.0 237.5 L 195.0 236.25 L 192.5 231.25 L 187.5 222.5 " stroke="black" fill="none" stroke-width="6.0" stroke-linecap="round" stroke-linejoin="round" />
<path d="M 147.5 192.5 L 140.0 195.0 L 140.0 195.0 L 146.25 195.0 L 161.25 188.75 L 176.25 182.5 L 190.0 173.75 L 190.0 171.25 " stroke="black" fill="none" stroke-width="6.0" stroke-linecap="round" stroke-linejoin="round" />
<path d="M 150.0 205.0 L 147.5 206.25 L 147.5 207.5 L 156.25 206.25 L 171.25 198.75 L 187.5 190.0 L 192.5 186.25 " stroke="black" fill="none" stroke-width="6.0" stroke-linecap="round" stroke-linejoin="round" />
<path d="M 153.75 243.75 L 153.75 245.0 L 156.25 246.25 L 170.0 238.75 L 187.5 227.5 L 196.25 221.25 L 191.25 227.5 L 175.0 246.25 L 156.25 266.25 L 140.0 282.5 L 133.75 287.5 L 133.75 283.75 " stroke="black" fill="none" stroke-width="6.0" stroke-linecap="round" stroke-linejoin="round" />
<path d="M 182.5 235.0 L 182.5 235.0 L 183.75 240.0 L 192.5 250.0 L 205.0 263.75 L 216.25 275.0 L 222.5 278.75 L 223.75 278.75 L 223.75 278.75 " stroke="black" fill="none" stroke-width="6.0" stroke-linecap="round" stroke-linejoin="round" />
</svg>