<svg xmlns="http://www.w3.org/2000/svg" width="300" height="300" viewBox="0 0 300 300">
<path d="M 92.5 133.75 L 90.0 133.75 L 86.25 136.25 L 90.0 136.25 L 103.75 133.75 L 120.0 130.0 L 133.75 123.75 L 138.75 120.0 " stroke="black" fill="none" stroke-width="6.0" stroke-linecap="round" stroke-linejoin="round" />
<path d="M 86.25 185.0 L 82.5 188.75 L 78.75 190.0 L 85.0 188.75 L 101.25 181.25 L 118.75 170.0 L 133.75 158.75 L 137.5 156.25 L 131.25 162.5 L 121.25 180.0 L 111.25 201.25 L 103.75 220.0 L 101.25 232.5 L 105.0 233.75 L 116.25 228.75 L 131.25 216.25 L 142.5 203.75 L 147.5 196.25 L 148.75 191.25 L 146.25 188.75 L 143.75 188.75 L 142.5 188.75 L 142.5 188.75 L 142.5 192.5 L 150.0 213.75 L 155.0 221.25 L 157.5 221.25 " stroke="black" fill="none" stroke-width="6.0" stroke-linecap="round" stroke-linejoin="round" />
<path d="M 172.5 148.75 L 167.5 150.0 L 163.75 150.0 L 167.5 150.0 L 181.25 148.75 L 197.5 143.75 L 212.5 140.0 L 226.25 138.75 L 235.0 142.5 L 237.5 161.25 L 228.75 193.75 L 217.5 221.25 L 210.0 236.25 L 205.0 240.0 L 202.5 237.5 L 200.0 226.25 L 198.75 212.5 " stroke="black" fill="none" stroke-width="6.0" stroke-linecap="round" stroke-linejoin="round" />
<path d="M 193.75 98.75 L 192.5 97.5 L 191.25 95.0 L 190.0 101.25 L 186.25 138.75 L 176.25 201.25 L 161.25 248.75 L 151.25 265.0 " stroke="black" fill="none" stroke-width="6.0" stroke-linecap="round" stroke-linejoin="round" />
</svg>