<svg xmlns="http://www.w3.org/2000/svg" width="300" height="300" viewBox="0 0 300 300">
<path d="M 101.25 83.75 L 100.0 82.5 L 98.75 81.25 L 98.75 85.0 L 105.0 106.25 L 113.75 132.5 L 121.25 147.5 L 122.5 148.75 L 122.5 147.5 " stroke="black" fill="none" stroke-width="6.0" stroke-linecap="round" stroke-linejoin="round" />
<path d="M 101.25 101.25 L 100.0 100.0 L 97.5 97.5 L 100.0 93.75 L 117.5 90.0 L 145.0 86.25 L 168.75 85.0 L 180.0 87.5 L 176.25 98.75 L 161.25 113.75 L 146.25 127.5 L 135.0 135.0 L 123.75 136.25 L 121.25 135.0 " stroke="black" fill="none" stroke-width="6.0" stroke-linecap="round" stroke-linejoin="round" />
<path d="M 112.5 121.25 L 112.5 121.25 L 113.75 118.75 L 120.0 113.75 L 136.25 103.75 L 156.25 93.75 L 165.0 90.0 L 160.0 93.75 L 152.5 101.25 " stroke="black" fill="none" stroke-width="6.0" stroke-linecap="round" stroke-linejoin="round" />
<path d="M 122.5 137.5 L 115.0 142.5 L 115.0 143.75 L 125.0 141.25 L 141.25 131.25 L 155.0 121.25 L 165.0 111.25 L 162.5 110.0 L 157.5 115.0 " stroke="black" fill="none" stroke-width="6.0" stroke-linecap="round" stroke-linejoin="round" />
<path d="M 85.0 187.5 L 80.0 192.5 L 85.0 191.25 L 103.75 181.25 L 137.5 160.0 L 170.0 140.0 L 188.75 130.0 L 191.25 127.5 L 178.75 132.5 L 165.0 140.0 L 152.5 147.5 L 143.75 153.75 L 141.25 163.75 L 142.5 185.0 L 145.0 207.5 L 146.25 222.5 L 147.5 223.75 L 147.5 222.5 L 153.75 212.5 L 163.75 197.5 L 175.0 183.75 L 183.75 171.25 L 185.0 162.5 L 175.0 162.5 L 162.5 165.0 " stroke="black" fill="none" stroke-width="6.0" stroke-linecap="round" stroke-linejoin="round" />
<path d="M 106.25 181.25 L 105.0 182.5 L 101.25 191.25 L 100.0 213.75 L 100.0 243.75 L 100.0 258.75 L 100.0 262.5 L 98.75 260.0 " stroke="black" fill="none" stroke-width="6.0" stroke-linecap="round" stroke-linejoin="round" />
<path d="M 106.25 208.75 L 106.25 208.75 L 107.5 208.75 L 121.25 217.5 L 150.0 232.5 L 185.0 245.0 L 212.5 251.25 L 233.75 256.25 L 250.0 257.5 L 258.75 257.5 L 258.75 257.5 " stroke="black" fill="none" stroke-width="6.0" stroke-linecap="round" stroke-linejoin="round" />
</svg>