<svg xmlns="http://www.w3.org/2000/svg" width="300" height="300" viewBox="0 0 300 300">
<path d="M 86.25 100.0 L 85.0 101.25 L 85.0 102.5 L 95.0 103.75 L 130.0 101.25 L 168.75 90.0 L 191.25 80.0 L 196.25 77.5 L 186.25 82.5 L 181.25 85.0 " stroke="black" fill="none" stroke-width="6.0" stroke-linecap="round" stroke-linejoin="round" />
<path d="M 93.75 147.5 L 93.75 150.0 L 95.0 160.0 L 101.25 183.75 L 107.5 203.75 L 110.0 207.5 L 111.25 203.75 L 110.0 193.75 L 105.0 185.0 L 100.0 176.25 L 97.5 168.75 L 98.75 161.25 L 116.25 153.75 L 140.0 148.75 L 153.75 148.75 L 152.5 157.5 L 140.0 175.0 L 121.25 193.75 L 107.5 203.75 L 108.75 201.25 L 127.5 182.5 L 145.0 161.25 " stroke="black" fill="none" stroke-width="6.0" stroke-linecap="round" stroke-linejoin="round" />
<path d="M 173.75 96.25 L 173.75 96.25 L 175.0 96.25 L 176.25 111.25 L 178.75 158.75 L 180.0 206.25 L 178.75 238.75 L 177.5 248.75 L 175.0 250.0 L 170.0 250.0 L 156.25 246.25 L 140.0 241.25 L 113.75 232.5 L 106.25 230.0 " stroke="black" fill="none" stroke-width="6.0" stroke-linecap="round" stroke-linejoin="round" />
</svg>