<svg xmlns="http://www.w3.org/2000/svg" width="300" height="300" viewBox="0 0 300 300">
<path d="M 141.25 70.0 L 138.75 67.5 L 137.5 65.0 L 136.25 65.0 L 135.0 67.5 L 132.5 75.0 L 131.25 81.25 L 131.25 85.0 L 132.5 86.25 L 141.25 86.25 L 150.0 85.0 L 157.5 82.5 L 161.25 81.25 L 161.25 83.75 L 152.5 93.75 L 140.0 107.5 L 126.25 121.25 L 116.25 128.75 L 110.0 131.25 L 108.75 131.25 " stroke="black" fill="none" stroke-width="6.0" stroke-linecap="round" stroke-linejoin="round" />
<path d="M 108.75 123.75 L 107.5 123.75 L 106.25 123.75 L 106.25 132.5 L 112.5 153.75 L 116.25 175.0 L 120.0 188.75 L 121.25 190.0 L 121.25 186.25 " stroke="black" fill="none" stroke-width="6.0" stroke-linecap="round" stroke-linejoin="round" />
<path d="M 107.5 143.75 L 106.25 142.5 L 105.0 140.0 L 111.25 137.5 L 131.25 131.25 L 151.25 125.0 L 186.25 118.75 L 198.75 121.25 L 198.75 132.5 L 191.25 148.75 L 177.5 163.75 L 163.75 176.25 L 152.5 185.0 L 148.75 185.0 " stroke="black" fill="none" stroke-width="6.0" stroke-linecap="round" stroke-linejoin="round" />
<path d="M 128.75 158.75 L 128.75 158.75 L 127.5 158.75 L 131.25 156.25 L 143.75 152.5 L 158.75 146.25 L 170.0 141.25 L 171.25 140.0 L 171.25 138.75 " stroke="black" fill="none" stroke-width="6.0" stroke-linecap="round" stroke-linejoin="round" />
<path d="M 155.0 130.0 L 153.75 130.0 L 152.5 128.75 L 152.5 131.25 L 152.5 140.0 L 152.5 153.75 L 151.25 165.0 L 146.25 173.75 L 140.0 178.75 L 135.0 181.25 L 133.75 183.75 L 135.0 185.0 L 142.5 185.0 L 153.75 185.0 L 166.25 182.5 L 177.5 177.5 L 182.5 175.0 L 181.25 173.75 L 170.0 176.25 L 167.5 176.25 " stroke="black" fill="none" stroke-width="6.0" stroke-linecap="round" stroke-linejoin="round" />
<path d="M 113.75 201.25 L 113.75 201.25 L 112.5 201.25 L 110.0 206.25 L 108.75 222.5 L 107.5 238.75 L 105.0 247.5 L 103.75 248.75 " stroke="black" fill="none" stroke-width="6.0" stroke-linecap="round" stroke-linejoin="round" />
<path d="M 142.5 207.5 L 142.5 208.75 L 141.25 211.25 L 142.5 218.75 L 146.25 228.75 L 150.0 238.75 L 150.0 243.75 L 151.25 243.75 " stroke="black" fill="none" stroke-width="6.0" stroke-linecap="round" stroke-linejoin="round" />
<path d="M 172.5 210.0 L 172.5 210.0 L 172.5 210.0 L 172.5 210.0 L 176.25 215.0 L 180.0 226.25 L 182.5 236.25 L 183.75 240.0 " stroke="black" fill="none" stroke-width="6.0" stroke-linecap="round" stroke-linejoin="round" />
<path d="M 212.5 203.75 L 213.75 202.5 L 215.0 202.5 L 217.5 202.5 L 222.5 210.0 L 228.75 223.75 L 228.75 227.5 " stroke="black" fill="none" stroke-width="6.0" stroke-linecap="round" stroke-linejoin="round" />
</svg>