<svg xmlns="http://www.w3.org/2000/svg" width="300" height="300" viewBox="0 0 300 300">
<path d="M 210.38 84.72 L 210.88 83.46 C 211.20 82.65 210.81 81.73 210.00 81.41 C 209.19 81.09 208.27 81.48 207.95 82.29 L 207.44 83.55 C 207.12 84.36 207.52 85.28 208.33 85.60 C 209.13 85.93 210.05 85.53 210.38 84.72 Z M 210.94 83.36 L 211.24 82.40 C 211.51 81.55 211.04 80.66 210.20 80.39 C 209.35 80.12 208.45 80.59 208.19 81.43 L 207.89 82.40 C 207.62 83.24 208.09 84.14 208.93 84.40 C 209.77 84.67 210.67 84.20 210.94 83.36 Z M 211.28 81.50 L 211.19 81.14 C 210.96 80.27 210.08 79.76 209.21 79.98 C 208.34 80.21 207.82 81.10 208.05 81.96 L 208.15 82.33 C 208.37 83.19 209.26 83.71 210.13 83.49 C 210.99 83.26 211.51 82.37 211.28 81.50 Z M 208.72 80.18 L 208.15 80.55 C 207.40 81.05 207.19 82.07 207.69 82.83 C 208.18 83.58 209.20 83.79 209.96 83.29 L 210.52 82.92 C 211.28 82.42 211.49 81.41 210.99 80.65 C 210.49 79.89 209.47 79.68 208.72 80.18 Z M 207.84 80.80 L 207.02 81.69 C 206.40 82.36 206.45 83.41 207.12 84.03 C 207.79 84.65 208.84 84.60 209.46 83.93 L 210.27 83.05 C 210.89 82.37 210.85 81.33 210.18 80.71 C 209.50 80.09 208.46 80.13 207.84 80.80 Z M 206.90 81.82 L 206.23 82.72 C 205.69 83.46 205.85 84.51 206.59 85.05 C 207.33 85.60 208.37 85.44 208.92 84.70 L 209.58 83.80 C 210.13 83.06 209.97 82.01 209.23 81.47 C 208.49 80.92 207.45 81.08 206.90 81.82 Z M 206.15 82.83 L 205.73 83.52 C 205.24 84.31 205.49 85.34 206.27 85.82 C 207.06 86.31 208.09 86.07 208.57 85.28 L 209.00 84.59 C 209.48 83.80 209.24 82.77 208.46 82.29 C 207.67 81.80 206.64 82.05 206.15 82.83 Z M 205.68 83.61 L 205.26 84.39 C 204.81 85.20 205.12 86.21 205.93 86.65 C 206.74 87.09 207.75 86.79 208.19 85.98 L 208.62 85.20 C 209.06 84.39 208.76 83.37 207.95 82.93 C 207.13 82.49 206.12 82.79 205.68 83.61 Z M 205.23 84.44 L 204.77 85.36 C 204.36 86.19 204.70 87.19 205.53 87.60 C 206.36 88.01 207.36 87.67 207.77 86.84 L 208.22 85.93 C 208.63 85.10 208.29 84.10 207.47 83.69 C 206.64 83.28 205.64 83.62 205.23 84.44 Z M 204.76 85.39 L 204.25 86.48 C 203.85 87.32 204.21 88.31 205.05 88.71 C 205.88 89.10 206.88 88.74 207.27 87.90 L 207.78 86.81 C 208.18 85.98 207.82 84.98 206.98 84.59 C 206.15 84.20 205.15 84.56 204.76 85.39 Z M 204.24 86.49 L 203.78 87.49 C 203.40 88.32 203.76 89.32 204.60 89.70 C 205.44 90.09 206.43 89.72 206.82 88.89 L 207.28 87.89 C 207.66 87.05 207.30 86.06 206.46 85.67 C 205.62 85.29 204.63 85.65 204.24 86.49 Z M 203.78 87.49 L 203.39 88.35 C 203.00 89.19 203.37 90.18 204.21 90.57 C 205.05 90.95 206.04 90.58 206.43 89.74 L 206.82 88.88 C 207.21 88.04 206.84 87.05 206.00 86.67 C 205.16 86.28 204.17 86.65 203.78 87.49 Z M 203.39 88.35 L 202.97 89.27 C 202.59 90.11 202.95 91.10 203.79 91.48 C 204.63 91.86 205.63 91.50 206.01 90.66 L 206.43 89.74 C 206.81 88.90 206.44 87.91 205.60 87.53 C 204.76 87.14 203.77 87.51 203.39 88.35 Z M 202.97 89.27 L 202.54 90.22 C 202.15 91.06 202.52 92.05 203.36 92.43 C 204.20 92.81 205.19 92.44 205.58 91.60 L 206.01 90.65 C 206.39 89.81 206.02 88.82 205.18 88.44 C 204.34 88.06 203.35 88.43 202.97 89.27 Z M 202.53 90.22 L 202.10 91.18 C 201.71 92.02 202.09 93.01 202.93 93.40 C 203.77 93.78 204.76 93.41 205.14 92.57 L 205.58 91.60 C 205.96 90.76 205.59 89.77 204.75 89.39 C 203.91 89.01 202.92 89.38 202.53 90.22 Z M 202.10 91.18 L 201.66 92.14 C 201.28 92.98 201.65 93.97 202.49 94.36 C 203.33 94.74 204.32 94.36 204.71 93.52 L 205.14 92.57 C 205.52 91.72 205.15 90.73 204.31 90.35 C 203.47 89.97 202.48 90.34 202.10 91.18 Z M 201.66 92.14 L 201.24 93.08 C 200.86 93.92 201.23 94.91 202.07 95.29 C 202.91 95.67 203.90 95.30 204.28 94.46 L 204.71 93.52 C 205.09 92.68 204.71 91.69 203.87 91.31 C 203.03 90.93 202.04 91.30 201.66 92.14 Z M 201.24 93.08 L 200.84 93.97 C 200.46 94.81 200.83 95.80 201.67 96.18 C 202.51 96.56 203.50 96.18 203.88 95.34 L 204.28 94.45 C 204.66 93.61 204.29 92.62 203.45 92.24 C 202.61 91.86 201.62 92.24 201.24 93.08 Z M 200.84 93.97 L 200.39 94.95 C 200.01 95.80 200.39 96.79 201.23 97.16 C 202.07 97.54 203.06 97.17 203.44 96.33 L 203.89 95.34 C 204.26 94.50 203.89 93.51 203.05 93.13 C 202.20 92.75 201.21 93.13 200.84 93.97 Z M 200.39 94.96 L 199.93 95.99 C 199.55 96.84 199.93 97.83 200.77 98.20 C 201.61 98.58 202.60 98.20 202.98 97.36 L 203.44 96.32 C 203.82 95.48 203.44 94.49 202.60 94.11 C 201.76 93.74 200.77 94.11 200.39 94.96 Z M 199.93 96.00 L 199.51 96.93 C 199.14 97.77 199.52 98.76 200.36 99.14 C 201.20 99.51 202.19 99.13 202.57 98.29 L 202.98 97.36 C 203.36 96.51 202.98 95.52 202.13 95.15 C 201.29 94.77 200.30 95.15 199.93 96.00 Z M 199.51 96.93 L 199.13 97.79 C 198.76 98.64 199.14 99.62 199.98 100.00 C 200.83 100.37 201.81 99.99 202.19 99.15 L 202.57 98.28 C 202.94 97.44 202.56 96.45 201.72 96.08 C 200.87 95.71 199.88 96.09 199.51 96.93 Z M 199.13 97.80 L 198.77 98.62 C 198.39 99.46 198.78 100.45 199.62 100.82 C 200.47 101.19 201.45 100.81 201.82 99.97 L 202.19 99.14 C 202.56 98.30 202.18 97.31 201.33 96.94 C 200.49 96.57 199.50 96.95 199.13 97.80 Z M 198.76 98.62 L 198.40 99.44 C 198.03 100.29 198.42 101.27 199.26 101.64 C 200.11 102.02 201.09 101.63 201.47 100.79 L 201.83 99.97 C 202.20 99.12 201.81 98.13 200.97 97.76 C 200.12 97.39 199.14 97.78 198.76 98.62 Z M 198.40 99.44 L 198.03 100.29 C 197.66 101.14 198.05 102.12 198.89 102.49 C 199.74 102.86 200.72 102.48 201.09 101.63 L 201.47 100.78 C 201.84 99.94 201.45 98.95 200.61 98.58 C 199.76 98.21 198.77 98.60 198.40 99.44 Z M 198.03 100.29 L 197.64 101.17 C 197.27 102.02 197.66 103.01 198.51 103.38 C 199.35 103.75 200.34 103.36 200.71 102.52 L 201.09 101.63 C 201.46 100.79 201.08 99.80 200.23 99.43 C 199.39 99.06 198.40 99.45 198.03 100.29 Z M 197.64 101.17 L 197.25 102.08 C 196.88 102.93 197.26 103.92 198.11 104.29 C 198.95 104.66 199.94 104.27 200.31 103.43 L 200.71 102.52 C 201.08 101.67 200.69 100.68 199.85 100.31 C 199.00 99.94 198.02 100.33 197.64 101.17 Z M 197.25 102.08 L 196.84 103.02 C 196.47 103.86 196.85 104.85 197.70 105.22 C 198.54 105.59 199.53 105.20 199.90 104.36 L 200.31 103.43 C 200.68 102.58 200.29 101.59 199.45 101.22 C 198.60 100.85 197.62 101.24 197.25 102.08 Z M 196.84 103.02 L 196.42 103.97 C 196.05 104.81 196.43 105.80 197.28 106.17 C 198.13 106.54 199.11 106.16 199.48 105.31 L 199.90 104.36 C 200.27 103.51 199.89 102.53 199.04 102.16 C 198.19 101.79 197.21 102.17 196.84 103.02 Z M 196.42 103.97 L 196.00 104.92 C 195.63 105.76 196.02 106.75 196.86 107.12 C 197.71 107.49 198.69 107.11 199.07 106.26 L 199.48 105.31 C 199.85 104.47 199.47 103.48 198.62 103.11 C 197.78 102.74 196.79 103.12 196.42 103.97 Z M 196.00 104.92 L 195.61 105.81 C 195.24 106.66 195.62 107.64 196.47 108.02 C 197.31 108.39 198.30 108.00 198.67 107.16 L 199.06 106.26 C 199.44 105.42 199.05 104.43 198.21 104.06 C 197.36 103.69 196.37 104.07 196.00 104.92 Z M 195.61 105.81 L 195.21 106.71 C 194.84 107.56 195.22 108.55 196.07 108.92 C 196.91 109.29 197.90 108.91 198.27 108.06 L 198.67 107.16 C 199.04 106.31 198.66 105.33 197.81 104.95 C 196.97 104.58 195.98 104.96 195.61 105.81 Z M 195.21 106.71 L 194.81 107.62 C 194.44 108.47 194.82 109.46 195.67 109.83 C 196.51 110.20 197.50 109.82 197.87 108.97 L 198.27 108.06 C 198.65 107.22 198.26 106.23 197.42 105.86 C 196.57 105.48 195.58 105.87 195.21 106.71 Z M 194.81 107.62 L 194.40 108.54 C 194.03 109.39 194.41 110.38 195.26 110.75 C 196.11 111.12 197.09 110.74 197.47 109.89 L 197.87 108.97 C 198.25 108.13 197.86 107.14 197.02 106.77 C 196.17 106.39 195.18 106.78 194.81 107.62 Z M 194.40 108.54 L 193.99 109.47 C 193.62 110.32 194.00 111.31 194.85 111.68 C 195.69 112.05 196.68 111.67 197.06 110.82 L 197.47 109.90 C 197.84 109.05 197.46 108.06 196.61 107.69 C 195.77 107.31 194.78 107.70 194.40 108.54 Z M 193.99 109.47 L 193.58 110.41 C 193.21 111.25 193.59 112.24 194.43 112.62 C 195.28 112.99 196.27 112.61 196.64 111.76 L 197.06 110.83 C 197.43 109.98 197.05 108.99 196.20 108.62 C 195.36 108.24 194.37 108.63 193.99 109.47 Z M 193.58 110.41 L 193.19 111.30 C 192.81 112.14 193.19 113.13 194.04 113.51 C 194.88 113.88 195.87 113.50 196.25 112.65 L 196.64 111.76 C 197.02 110.92 196.63 109.93 195.79 109.55 C 194.94 109.18 193.95 109.56 193.58 110.41 Z M 193.19 111.30 L 192.79 112.19 C 192.41 113.04 192.79 114.03 193.64 114.40 C 194.48 114.78 195.47 114.40 195.85 113.55 L 196.25 112.66 C 196.62 111.81 196.24 110.82 195.40 110.45 C 194.55 110.07 193.56 110.45 193.19 111.30 Z M 192.79 112.19 L 192.38 113.10 C 192.01 113.94 192.39 114.93 193.23 115.31 C 194.07 115.69 195.06 115.31 195.44 114.46 L 195.85 113.56 C 196.22 112.71 195.84 111.72 195.00 111.35 C 194.15 110.97 193.16 111.35 192.79 112.19 Z M 192.38 113.10 L 191.97 114.01 C 191.60 114.85 191.97 115.84 192.82 116.22 C 193.66 116.60 194.65 116.22 195.03 115.38 L 195.44 114.47 C 195.82 113.62 195.44 112.63 194.60 112.25 C 193.75 111.87 192.76 112.25 192.38 113.10 Z M 191.98 114.01 L 191.56 114.93 C 191.18 115.77 191.55 116.76 192.40 117.14 C 193.24 117.52 194.23 117.15 194.61 116.31 L 195.03 115.38 C 195.41 114.54 195.03 113.55 194.19 113.17 C 193.35 112.79 192.36 113.16 191.98 114.01 Z M 191.56 114.92 L 191.14 115.85 C 190.76 116.69 191.13 117.69 191.97 118.07 C 192.81 118.45 193.80 118.08 194.19 117.24 L 194.61 116.31 C 194.99 115.47 194.62 114.48 193.78 114.09 C 192.94 113.71 191.94 114.08 191.56 114.92 Z M 191.14 115.85 L 190.72 116.76 C 190.33 117.61 190.70 118.60 191.54 118.99 C 192.38 119.37 193.38 119.00 193.76 118.16 L 194.18 117.25 C 194.57 116.41 194.20 115.41 193.36 115.02 C 192.52 114.64 191.53 115.01 191.14 115.85 Z M 190.72 116.76 L 190.30 117.66 C 189.91 118.50 190.28 119.50 191.12 119.89 C 191.96 120.27 192.95 119.91 193.34 119.07 L 193.76 118.17 C 194.15 117.33 193.78 116.33 192.95 115.94 C 192.11 115.56 191.11 115.92 190.72 116.76 Z M 190.31 117.66 L 189.88 118.56 C 189.49 119.40 189.85 120.40 190.69 120.79 C 191.53 121.18 192.53 120.82 192.92 119.98 L 193.34 119.08 C 193.73 118.24 193.37 117.24 192.53 116.85 C 191.69 116.46 190.70 116.82 190.31 117.66 Z M 189.88 118.56 L 189.46 119.46 C 189.06 120.30 189.42 121.30 190.26 121.69 C 191.09 122.09 192.09 121.73 192.49 120.89 L 192.92 119.99 C 193.31 119.15 192.95 118.15 192.11 117.76 C 191.28 117.36 190.28 117.72 189.88 118.56 Z M 189.46 119.46 L 189.03 120.37 C 188.63 121.20 188.99 122.20 189.82 122.60 C 190.66 123.00 191.66 122.64 192.05 121.81 L 192.49 120.90 C 192.88 120.06 192.53 119.06 191.69 118.67 C 190.86 118.27 189.86 118.62 189.46 119.46 Z M 189.03 120.36 L 188.60 121.27 C 188.20 122.10 188.55 123.10 189.38 123.50 C 190.22 123.90 191.22 123.55 191.62 122.72 L 192.05 121.81 C 192.45 120.98 192.10 119.98 191.26 119.58 C 190.43 119.18 189.43 119.53 189.03 120.36 Z M 188.60 121.26 L 188.16 122.16 C 187.76 123.00 188.11 124.00 188.94 124.40 C 189.78 124.80 190.78 124.46 191.18 123.62 L 191.62 122.72 C 192.02 121.89 191.67 120.89 190.84 120.48 C 190.00 120.08 189.00 120.43 188.60 121.26 Z M 188.16 122.16 L 187.72 123.07 C 187.32 123.90 187.66 124.90 188.49 125.31 C 189.33 125.72 190.33 125.37 190.74 124.54 L 191.18 123.63 C 191.58 122.79 191.24 121.79 190.41 121.39 C 189.57 120.98 188.57 121.33 188.16 122.16 Z M 187.72 123.06 L 187.28 123.98 C 186.87 124.81 187.21 125.81 188.04 126.22 C 188.87 126.63 189.88 126.28 190.29 125.45 L 190.73 124.54 C 191.14 123.71 190.80 122.71 189.97 122.30 C 189.14 121.89 188.13 122.23 187.72 123.06 Z M 187.28 123.97 L 186.83 124.87 C 186.42 125.70 186.76 126.71 187.59 127.12 C 188.42 127.53 189.43 127.19 189.84 126.36 L 190.28 125.46 C 190.69 124.63 190.35 123.62 189.52 123.21 C 188.70 122.80 187.69 123.14 187.28 123.97 Z M 186.83 124.87 L 186.39 125.76 C 185.97 126.59 186.31 127.60 187.14 128.01 C 187.97 128.43 188.97 128.09 189.39 127.26 L 189.83 126.37 C 190.25 125.54 189.91 124.53 189.08 124.12 C 188.25 123.70 187.25 124.04 186.83 124.87 Z M 186.39 125.76 L 185.94 126.65 C 185.53 127.47 185.86 128.48 186.69 128.90 C 187.51 129.31 188.52 128.98 188.94 128.15 L 189.38 127.27 C 189.80 126.44 189.47 125.43 188.64 125.02 C 187.81 124.60 186.81 124.93 186.39 125.76 Z M 185.95 126.64 L 185.50 127.52 C 185.08 128.35 185.41 129.36 186.23 129.78 C 187.06 130.20 188.07 129.87 188.49 129.04 L 188.93 128.16 C 189.35 127.33 189.02 126.33 188.20 125.91 C 187.37 125.49 186.36 125.82 185.95 126.64 Z M 185.50 127.52 L 185.05 128.39 C 184.63 129.22 184.96 130.23 185.78 130.65 C 186.61 131.07 187.62 130.74 188.04 129.92 L 188.49 129.05 C 188.91 128.22 188.58 127.21 187.76 126.79 C 186.93 126.37 185.92 126.69 185.50 127.52 Z M 185.06 128.39 L 184.60 129.28 C 184.17 130.10 184.49 131.11 185.32 131.54 C 186.14 131.96 187.15 131.64 187.57 130.82 L 188.04 129.93 C 188.46 129.10 188.14 128.09 187.31 127.67 C 186.49 127.24 185.48 127.56 185.06 128.39 Z M 184.60 129.28 L 184.14 130.16 C 183.71 130.98 184.03 132.00 184.85 132.43 C 185.67 132.85 186.68 132.53 187.11 131.71 L 187.57 130.82 C 188.00 130.00 187.68 128.99 186.86 128.56 C 186.04 128.13 185.02 128.45 184.60 129.28 Z M 184.14 130.16 L 183.67 131.04 C 183.24 131.86 183.56 132.88 184.38 133.31 C 185.20 133.74 186.21 133.42 186.64 132.60 L 187.11 131.72 C 187.54 130.90 187.22 129.88 186.40 129.45 C 185.58 129.02 184.57 129.34 184.14 130.16 Z M 183.68 131.04 L 183.21 131.92 C 182.78 132.74 183.09 133.75 183.91 134.19 C 184.73 134.62 185.75 134.31 186.18 133.49 L 186.64 132.60 C 187.08 131.79 186.76 130.77 185.94 130.34 C 185.12 129.91 184.11 130.22 183.68 131.04 Z M 183.21 131.92 L 182.74 132.80 C 182.31 133.61 182.62 134.63 183.44 135.07 C 184.26 135.50 185.27 135.19 185.71 134.37 L 186.18 133.49 C 186.61 132.67 186.30 131.66 185.48 131.22 C 184.66 130.79 183.65 131.10 183.21 131.92 Z M 182.75 132.79 L 182.27 133.68 C 181.84 134.49 182.15 135.51 182.97 135.95 C 183.78 136.38 184.80 136.07 185.24 135.26 L 185.71 134.37 C 186.14 133.56 185.83 132.54 185.02 132.10 C 184.20 131.67 183.18 131.98 182.75 132.79 Z M 182.28 133.67 L 181.79 134.57 C 181.36 135.39 181.66 136.41 182.48 136.84 C 183.30 137.28 184.31 136.97 184.75 136.16 L 185.24 135.26 C 185.67 134.44 185.37 133.42 184.55 132.99 C 183.73 132.55 182.71 132.86 182.28 133.67 Z M 181.80 134.57 L 181.30 135.48 C 180.86 136.30 181.17 137.32 181.98 137.76 C 182.80 138.20 183.82 137.89 184.26 137.08 L 184.75 136.16 C 185.19 135.35 184.89 134.33 184.07 133.89 C 183.25 133.45 182.24 133.75 181.80 134.57 Z M 181.31 135.48 L 180.81 136.38 C 180.37 137.20 180.67 138.22 181.49 138.66 C 182.30 139.10 183.32 138.80 183.76 137.99 L 184.26 137.08 C 184.70 136.27 184.40 135.25 183.58 134.80 C 182.77 134.36 181.75 134.66 181.31 135.48 Z M 180.82 136.37 L 180.33 137.26 C 179.88 138.08 180.18 139.10 180.99 139.54 C 181.80 139.99 182.82 139.70 183.27 138.88 L 183.76 137.99 C 184.21 137.18 183.91 136.16 183.10 135.71 C 182.29 135.27 181.27 135.56 180.82 136.37 Z M 180.33 137.25 L 179.85 138.12 C 179.39 138.93 179.68 139.95 180.49 140.40 C 181.30 140.86 182.32 140.57 182.78 139.76 L 183.26 138.89 C 183.72 138.09 183.43 137.06 182.62 136.61 C 181.81 136.16 180.79 136.44 180.33 137.25 Z M 179.86 138.11 L 179.38 138.94 C 178.92 139.74 179.20 140.77 180.00 141.23 C 180.81 141.69 181.83 141.41 182.29 140.61 L 182.77 139.77 C 183.23 138.97 182.95 137.94 182.15 137.48 C 181.34 137.02 180.32 137.30 179.86 138.11 Z M 179.39 138.92 L 178.89 139.76 C 178.42 140.56 178.69 141.59 179.49 142.06 C 180.29 142.53 181.32 142.26 181.79 141.46 L 182.28 140.62 C 182.75 139.83 182.49 138.80 181.69 138.33 C 180.89 137.86 179.86 138.12 179.39 138.92 Z M 178.91 139.74 L 178.34 140.67 C 177.86 141.46 178.11 142.49 178.90 142.97 C 179.69 143.46 180.72 143.21 181.21 142.41 L 181.77 141.49 C 182.26 140.70 182.01 139.66 181.22 139.18 C 180.42 138.70 179.39 138.95 178.91 139.74 Z M 178.36 140.64 L 177.81 141.51 C 177.31 142.29 177.54 143.33 178.33 143.83 C 179.11 144.32 180.15 144.09 180.64 143.31 L 181.19 142.44 C 181.69 141.66 181.46 140.62 180.67 140.12 C 179.89 139.63 178.85 139.86 178.36 140.64 Z M 177.82 141.49 L 177.28 142.31 C 176.78 143.08 176.99 144.12 177.77 144.63 C 178.55 145.14 179.59 144.92 180.09 144.15 L 180.63 143.33 C 181.14 142.55 180.92 141.51 180.14 141.00 C 179.37 140.50 178.33 140.71 177.82 141.49 Z M 177.30 142.29 L 176.77 143.07 C 176.25 143.84 176.46 144.88 177.23 145.40 C 178.00 145.92 179.04 145.71 179.56 144.94 L 180.08 144.16 C 180.60 143.39 180.40 142.35 179.63 141.83 C 178.86 141.32 177.81 141.52 177.30 142.29 Z M 176.78 143.06 L 176.26 143.82 C 175.74 144.58 175.93 145.63 176.69 146.15 C 177.46 146.68 178.50 146.48 179.03 145.72 L 179.55 144.96 C 180.07 144.19 179.88 143.15 179.11 142.62 C 178.35 142.10 177.30 142.29 176.78 143.06 Z M 176.27 143.81 L 175.73 144.58 C 175.21 145.34 175.39 146.38 176.15 146.91 C 176.91 147.44 177.95 147.25 178.48 146.49 L 179.01 145.72 C 179.54 144.97 179.36 143.92 178.60 143.40 C 177.84 142.87 176.80 143.05 176.27 143.81 Z M 175.75 144.57 L 175.20 145.35 C 174.67 146.09 174.84 147.13 175.59 147.67 C 176.34 148.20 177.37 148.03 177.91 147.28 L 178.46 146.50 C 178.99 145.76 178.82 144.72 178.07 144.18 C 177.32 143.65 176.29 143.82 175.75 144.57 Z M 175.22 145.34 L 174.63 146.14 C 174.09 146.87 174.25 147.91 174.99 148.45 C 175.73 148.99 176.76 148.83 177.30 148.09 L 177.89 147.29 C 178.43 146.55 178.27 145.52 177.53 144.98 C 176.79 144.44 175.76 144.60 175.22 145.34 Z M 174.65 146.12 L 174.02 146.97 C 173.47 147.70 173.62 148.73 174.34 149.27 C 175.07 149.82 176.10 149.67 176.65 148.95 L 177.28 148.10 C 177.83 147.38 177.68 146.34 176.96 145.80 C 176.23 145.25 175.20 145.40 174.65 146.12 Z M 174.03 146.96 L 173.40 147.77 C 172.85 148.49 172.98 149.52 173.70 150.07 C 174.42 150.62 175.45 150.49 176.00 149.78 L 176.63 148.96 C 177.18 148.24 177.05 147.21 176.33 146.66 C 175.61 146.11 174.59 146.24 174.03 146.96 Z M 173.42 147.76 L 172.83 148.51 C 172.27 149.22 172.39 150.25 173.10 150.81 C 173.81 151.36 174.84 151.24 175.40 150.53 L 175.99 149.79 C 176.55 149.08 176.42 148.05 175.71 147.49 C 175.00 146.93 173.97 147.05 173.42 147.76 Z M 172.84 148.50 L 172.22 149.27 C 171.65 149.98 171.77 151.01 172.48 151.57 C 173.18 152.14 174.21 152.02 174.78 151.32 L 175.40 150.54 C 175.96 149.83 175.85 148.80 175.14 148.24 C 174.43 147.67 173.40 147.79 172.84 148.50 Z M 172.22 149.26 L 171.58 150.06 C 171.01 150.76 171.12 151.79 171.82 152.36 C 172.53 152.93 173.56 152.82 174.13 152.12 L 174.77 151.33 C 175.34 150.62 175.23 149.59 174.53 149.02 C 173.83 148.45 172.79 148.56 172.22 149.26 Z M 171.59 150.05 L 170.93 150.85 C 170.36 151.55 170.46 152.58 171.16 153.15 C 171.86 153.73 172.89 153.63 173.47 152.93 L 174.12 152.13 C 174.70 151.43 174.60 150.39 173.90 149.82 C 173.20 149.24 172.16 149.35 171.59 150.05 Z M 170.94 150.84 L 170.28 151.63 C 169.70 152.33 169.79 153.36 170.49 153.94 C 171.19 154.52 172.22 154.43 172.80 153.73 L 173.46 152.94 C 174.04 152.24 173.95 151.20 173.25 150.62 C 172.55 150.04 171.52 150.14 170.94 150.84 Z M 170.28 151.62 L 169.62 152.41 C 169.03 153.11 169.12 154.14 169.82 154.73 C 170.51 155.31 171.55 155.22 172.13 154.53 L 172.80 153.74 C 173.38 153.04 173.29 152.01 172.60 151.42 C 171.90 150.84 170.87 150.93 170.28 151.62 Z M 169.62 152.40 L 168.94 153.21 C 168.35 153.90 168.43 154.94 169.12 155.53 C 169.81 156.12 170.85 156.04 171.44 155.35 L 172.12 154.54 C 172.71 153.85 172.63 152.81 171.94 152.22 C 171.25 151.63 170.21 151.71 169.62 152.40 Z M 168.94 153.20 L 168.27 153.98 C 167.67 154.67 167.75 155.71 168.43 156.30 C 169.12 156.90 170.16 156.82 170.76 156.13 L 171.43 155.36 C 172.02 154.67 171.95 153.63 171.26 153.03 C 170.58 152.44 169.54 152.51 168.94 153.20 Z M 168.27 153.97 L 167.61 154.72 C 167.01 155.41 167.08 156.45 167.76 157.05 C 168.45 157.65 169.49 157.58 170.09 156.90 L 170.75 156.14 C 171.35 155.46 171.28 154.42 170.60 153.82 C 169.91 153.22 168.87 153.29 168.27 153.97 Z M 167.62 154.71 L 166.97 155.44 C 166.36 156.12 166.42 157.16 167.10 157.77 C 167.78 158.37 168.83 158.31 169.43 157.63 L 170.08 156.91 C 170.69 156.23 170.63 155.18 169.95 154.58 C 169.27 153.97 168.23 154.03 167.62 154.71 Z M 166.98 155.43 L 166.34 156.14 C 165.73 156.82 165.78 157.86 166.46 158.47 C 167.13 159.08 168.18 159.03 168.79 158.35 L 169.42 157.64 C 170.04 156.97 169.98 155.93 169.31 155.31 C 168.63 154.70 167.59 154.76 166.98 155.43 Z M 166.34 156.13 L 165.67 156.86 C 165.06 157.54 165.10 158.58 165.78 159.20 C 166.45 159.81 167.49 159.77 168.11 159.09 L 168.78 158.36 C 169.40 157.69 169.35 156.64 168.68 156.03 C 168.00 155.41 166.96 155.46 166.34 156.13 Z M 165.68 156.86 L 164.96 157.63 C 164.34 158.30 164.38 159.35 165.05 159.97 C 165.72 160.59 166.77 160.55 167.39 159.88 L 168.10 159.10 C 168.72 158.43 168.68 157.39 168.01 156.77 C 167.34 156.14 166.30 156.19 165.68 156.86 Z M 164.96 157.63 L 164.26 158.38 C 163.64 159.05 163.68 160.10 164.35 160.72 C 165.02 161.35 166.07 161.30 166.69 160.63 L 167.39 159.88 C 168.01 159.21 167.97 158.16 167.30 157.54 C 166.63 156.92 165.58 156.96 164.96 157.63 Z M 164.25 158.39 L 163.59 159.12 C 162.97 159.79 163.01 160.84 163.69 161.46 C 164.37 162.08 165.42 162.03 166.04 161.36 L 166.70 160.63 C 167.32 159.95 167.27 158.90 166.60 158.28 C 165.92 157.66 164.87 157.71 164.25 158.39 Z M 163.57 159.13 L 162.94 159.84 C 162.33 160.52 162.39 161.57 163.07 162.18 C 163.76 162.80 164.81 162.74 165.42 162.05 L 166.05 161.34 C 166.66 160.66 166.60 159.61 165.92 159.00 C 165.23 158.38 164.18 158.44 163.57 159.13 Z M 162.91 159.86 L 162.29 160.59 C 161.69 161.30 161.77 162.35 162.47 162.95 C 163.17 163.54 164.22 163.46 164.82 162.76 L 165.45 162.03 C 166.05 161.33 165.96 160.27 165.26 159.67 C 164.56 159.08 163.51 159.16 162.91 159.86 Z M 162.24 160.64 L 161.62 161.42 C 161.04 162.14 161.17 163.20 161.89 163.77 C 162.61 164.35 163.67 164.23 164.24 163.50 L 164.87 162.72 C 165.44 161.99 165.32 160.94 164.60 160.37 C 163.87 159.79 162.82 159.91 162.24 160.64 Z M 161.56 161.49 L 160.99 162.28 C 160.45 163.04 160.63 164.09 161.38 164.63 C 162.14 165.17 163.19 164.99 163.73 164.24 L 164.30 163.44 C 164.84 162.68 164.66 161.63 163.91 161.09 C 163.15 160.55 162.10 160.73 161.56 161.49 Z M 160.93 162.37 L 160.41 163.20 C 159.91 164.00 160.16 165.04 160.95 165.53 C 161.74 166.03 162.78 165.78 163.28 164.99 L 163.80 164.15 C 164.29 163.36 164.05 162.32 163.25 161.82 C 162.46 161.33 161.42 161.57 160.93 162.37 Z M 160.34 163.30 L 159.86 164.20 C 159.42 165.03 159.74 166.06 160.57 166.50 C 161.40 166.94 162.43 166.62 162.87 165.79 L 163.35 164.89 C 163.79 164.06 163.47 163.03 162.64 162.59 C 161.81 162.15 160.78 162.47 160.34 163.30 Z M 159.77 164.30 L 159.36 165.24 C 158.97 166.12 159.37 167.15 160.25 167.54 C 161.13 167.92 162.16 167.52 162.54 166.64 L 162.96 165.70 C 163.35 164.82 162.95 163.79 162.07 163.40 C 161.19 163.02 160.16 163.41 159.77 164.30 Z M 159.25 165.36 L 158.91 166.34 C 158.58 167.28 159.09 168.31 160.03 168.63 C 160.97 168.95 161.99 168.45 162.32 167.51 L 162.65 166.53 C 162.98 165.59 162.48 164.56 161.53 164.24 C 160.59 163.92 159.57 164.42 159.25 165.36 Z M 158.80 166.52 L 158.58 167.50 C 158.35 168.50 158.98 169.50 159.98 169.72 C 160.98 169.95 161.98 169.32 162.21 168.31 L 162.43 167.33 C 162.65 166.33 162.02 165.34 161.02 165.11 C 160.02 164.88 159.02 165.51 158.80 166.52 Z M 158.47 167.77 L 158.41 168.71 C 158.34 169.77 159.13 170.69 160.19 170.76 C 161.25 170.83 162.17 170.04 162.24 168.98 L 162.31 168.04 C 162.38 166.98 161.58 166.06 160.52 165.99 C 159.47 165.92 158.55 166.71 158.47 167.77 Z M 158.39 169.14 L 158.53 170.09 C 158.70 171.15 159.70 171.89 160.77 171.72 C 161.84 171.56 162.57 170.56 162.41 169.49 L 162.26 168.54 C 162.10 167.48 161.10 166.74 160.03 166.91 C 158.96 167.07 158.22 168.07 158.39 169.14 Z M 158.65 170.53 L 159.01 171.42 C 159.42 172.42 160.56 172.91 161.57 172.50 C 162.58 172.09 163.07 170.94 162.66 169.94 L 162.30 169.05 C 161.89 168.04 160.74 167.55 159.73 167.96 C 158.72 168.37 158.24 169.52 158.65 170.53 Z M 159.14 171.69 L 159.65 172.54 C 160.22 173.47 161.43 173.77 162.36 173.21 C 163.29 172.65 163.59 171.44 163.03 170.51 L 162.52 169.66 C 161.96 168.73 160.75 168.43 159.81 168.99 C 158.88 169.55 158.58 170.76 159.14 171.69 Z M 159.73 172.66 L 160.32 173.51 C 160.95 174.40 162.18 174.62 163.07 173.99 C 163.96 173.37 164.18 172.14 163.56 171.24 L 162.96 170.39 C 162.33 169.50 161.10 169.28 160.21 169.91 C 159.32 170.53 159.10 171.76 159.73 172.66 Z M 160.32 173.51 L 160.83 174.24 C 161.46 175.14 162.69 175.35 163.58 174.73 C 164.48 174.11 164.70 172.87 164.07 171.98 L 163.56 171.24 C 162.93 170.35 161.70 170.13 160.81 170.76 C 159.91 171.38 159.69 172.61 160.32 173.51 Z M 160.81 174.21 L 161.32 174.97 C 161.93 175.88 163.16 176.12 164.07 175.51 C 164.97 174.90 165.21 173.67 164.60 172.77 L 164.09 172.01 C 163.48 171.10 162.25 170.86 161.35 171.47 C 160.44 172.08 160.20 173.31 160.81 174.21 Z M 161.31 174.95 L 161.84 175.77 C 162.44 176.68 163.66 176.94 164.57 176.34 C 165.49 175.75 165.75 174.53 165.15 173.61 L 164.62 172.79 C 164.02 171.88 162.80 171.62 161.89 172.21 C 160.97 172.81 160.71 174.03 161.31 174.95 Z M 161.83 175.74 L 162.39 176.64 C 162.97 177.56 164.19 177.84 165.12 177.26 C 166.04 176.67 166.31 175.45 165.73 174.53 L 165.17 173.64 C 164.58 172.71 163.36 172.44 162.44 173.02 C 161.52 173.60 161.24 174.82 161.83 175.74 Z M 162.38 176.62 L 162.98 177.60 C 163.55 178.53 164.77 178.82 165.70 178.25 C 166.63 177.68 166.92 176.47 166.35 175.54 L 165.74 174.55 C 165.17 173.62 163.96 173.33 163.03 173.90 C 162.10 174.47 161.81 175.69 162.38 176.62 Z M 162.97 177.59 L 163.47 178.41 C 164.03 179.34 165.24 179.64 166.18 179.08 C 167.11 178.52 167.41 177.31 166.85 176.37 L 166.36 175.55 C 165.80 174.62 164.58 174.32 163.65 174.88 C 162.71 175.44 162.41 176.65 162.97 177.59 Z M 163.46 178.40 L 163.97 179.26 C 164.53 180.19 165.74 180.50 166.68 179.94 C 167.62 179.39 167.92 178.18 167.37 177.24 L 166.86 176.38 C 166.30 175.44 165.09 175.13 164.15 175.69 C 163.21 176.25 162.90 177.46 163.46 178.40 Z M 163.97 179.25 L 164.49 180.13 C 165.04 181.07 166.25 181.38 167.19 180.83 C 168.13 180.28 168.44 179.07 167.89 178.13 L 167.37 177.24 C 166.82 176.31 165.61 175.99 164.67 176.55 C 163.73 177.10 163.41 178.31 163.97 179.25 Z M 164.49 180.13 L 165.01 181.02 C 165.56 181.96 166.77 182.28 167.71 181.72 C 168.65 181.17 168.97 179.96 168.41 179.02 L 167.89 178.13 C 167.34 177.19 166.13 176.88 165.19 177.43 C 164.25 177.98 163.94 179.19 164.49 180.13 Z M 165.01 181.02 L 165.52 181.90 C 166.07 182.84 167.28 183.16 168.22 182.61 C 169.16 182.06 169.48 180.85 168.93 179.91 L 168.42 179.03 C 167.86 178.08 166.66 177.77 165.72 178.32 C 164.77 178.87 164.46 180.08 165.01 181.02 Z M 165.52 181.90 L 166.02 182.75 C 166.57 183.69 167.78 184.01 168.72 183.46 C 169.66 182.91 169.98 181.70 169.43 180.76 L 168.93 179.91 C 168.38 178.97 167.17 178.65 166.23 179.20 C 165.29 179.75 164.97 180.96 165.52 181.90 Z M 166.03 182.76 L 166.56 183.66 C 167.11 184.60 168.32 184.91 169.26 184.36 C 170.20 183.81 170.51 182.60 169.96 181.66 L 169.43 180.76 C 168.88 179.82 167.67 179.50 166.73 180.06 C 165.79 180.61 165.48 181.82 166.03 182.76 Z M 166.56 183.67 L 167.10 184.58 C 167.66 185.52 168.87 185.83 169.80 185.27 C 170.74 184.72 171.05 183.51 170.50 182.57 L 169.96 181.66 C 169.40 180.72 168.19 180.41 167.25 180.97 C 166.32 181.52 166.01 182.73 166.56 183.67 Z M 167.11 184.59 L 167.62 185.45 C 168.18 186.38 169.39 186.69 170.33 186.13 C 171.26 185.57 171.57 184.36 171.01 183.43 L 170.49 182.56 C 169.93 181.63 168.72 181.33 167.79 181.88 C 166.85 182.44 166.55 183.65 167.11 184.59 Z M 167.63 185.46 L 168.13 186.28 C 168.69 187.21 169.91 187.51 170.84 186.95 C 171.77 186.38 172.06 185.17 171.50 184.24 L 171.00 183.42 C 170.44 182.49 169.23 182.19 168.29 182.75 C 167.36 183.32 167.07 184.53 167.63 185.46 Z M 168.14 186.29 L 168.63 187.10 C 169.20 188.02 170.42 188.31 171.34 187.74 C 172.27 187.17 172.56 185.96 171.99 185.03 L 171.49 184.23 C 170.92 183.30 169.71 183.02 168.78 183.59 C 167.86 184.16 167.57 185.37 168.14 186.29 Z M 168.64 187.11 L 169.14 187.91 C 169.72 188.84 170.93 189.12 171.86 188.54 C 172.78 187.96 173.06 186.75 172.48 185.83 L 171.98 185.02 C 171.40 184.10 170.19 183.82 169.27 184.40 C 168.34 184.97 168.06 186.19 168.64 187.11 Z M 169.15 187.92 L 169.67 188.75 C 170.26 189.67 171.47 189.94 172.39 189.36 C 173.31 188.77 173.58 187.56 173.00 186.64 L 172.47 185.82 C 171.89 184.90 170.68 184.63 169.76 185.21 C 168.84 185.79 168.57 187.01 169.15 187.92 Z M 169.68 188.76 L 170.21 189.59 C 170.80 190.50 172.02 190.77 172.93 190.18 C 173.85 189.60 174.11 188.38 173.53 187.47 L 172.99 186.63 C 172.41 185.72 171.19 185.45 170.27 186.04 C 169.36 186.63 169.09 187.84 169.68 188.76 Z M 170.22 189.60 L 170.76 190.44 C 171.35 191.35 172.57 191.61 173.48 191.02 C 174.39 190.43 174.66 189.21 174.07 188.30 L 173.52 187.46 C 172.93 186.55 171.72 186.29 170.80 186.88 C 169.89 187.47 169.63 188.68 170.22 189.60 Z M 170.77 190.44 L 171.32 191.29 C 171.91 192.20 173.13 192.46 174.04 191.87 C 174.95 191.28 175.21 190.06 174.62 189.15 L 174.06 188.30 C 173.47 187.39 172.26 187.13 171.34 187.72 C 170.43 188.31 170.17 189.53 170.77 190.44 Z M 171.32 191.29 L 171.87 192.15 C 172.46 193.06 173.68 193.32 174.59 192.73 C 175.50 192.14 175.76 190.92 175.17 190.01 L 174.62 189.15 C 174.03 188.24 172.81 187.98 171.90 188.57 C 170.99 189.16 170.73 190.38 171.32 191.29 Z M 171.87 192.15 L 172.40 192.96 C 172.99 193.87 174.21 194.14 175.12 193.55 C 176.03 192.96 176.29 191.74 175.70 190.83 L 175.17 190.01 C 174.58 189.10 173.37 188.84 172.46 189.43 C 171.54 190.02 171.28 191.23 171.87 192.15 Z M 172.40 192.96 L 172.94 193.79 C 173.52 194.70 174.74 194.96 175.65 194.38 C 176.56 193.79 176.82 192.57 176.24 191.66 L 175.70 190.83 C 175.11 189.92 173.90 189.66 172.99 190.25 C 172.08 190.83 171.81 192.05 172.40 192.96 Z M 172.93 193.79 L 173.47 194.63 C 174.06 195.54 175.28 195.80 176.19 195.22 C 177.10 194.63 177.36 193.42 176.78 192.50 L 176.24 191.66 C 175.65 190.75 174.44 190.49 173.52 191.07 C 172.61 191.66 172.35 192.87 172.93 193.79 Z M 173.47 194.62 L 174.02 195.47 C 174.60 196.39 175.82 196.65 176.73 196.07 C 177.64 195.48 177.91 194.27 177.32 193.36 L 176.78 192.51 C 176.19 191.59 174.98 191.33 174.07 191.91 C 173.15 192.50 172.89 193.71 173.47 194.62 Z M 174.02 195.47 L 174.57 196.33 C 175.15 197.25 176.37 197.51 177.28 196.93 C 178.19 196.35 178.46 195.13 177.87 194.22 L 177.32 193.36 C 176.74 192.45 175.53 192.18 174.61 192.76 C 173.70 193.35 173.43 194.56 174.02 195.47 Z M 174.57 196.33 L 175.11 197.18 C 175.69 198.09 176.90 198.36 177.82 197.78 C 178.73 197.19 179.00 195.98 178.41 195.07 L 177.88 194.22 C 177.29 193.31 176.08 193.04 175.17 193.62 C 174.25 194.21 173.99 195.42 174.57 196.33 Z M 175.11 197.18 L 175.64 198.01 C 176.22 198.92 177.43 199.19 178.35 198.61 C 179.26 198.03 179.53 196.82 178.95 195.90 L 178.41 195.07 C 177.83 194.16 176.62 193.89 175.71 194.47 C 174.79 195.05 174.53 196.26 175.11 197.18 Z M 175.64 198.01 L 176.18 198.85 C 176.76 199.77 177.97 200.03 178.89 199.45 C 179.80 198.87 180.06 197.66 179.48 196.74 L 178.94 195.90 C 178.36 194.99 177.15 194.72 176.24 195.31 C 175.33 195.89 175.06 197.10 175.64 198.01 Z M 176.18 198.86 L 176.72 199.70 C 177.31 200.61 178.52 200.88 179.43 200.29 C 180.34 199.71 180.61 198.50 180.02 197.59 L 179.48 196.74 C 178.89 195.83 177.68 195.57 176.77 196.15 C 175.86 196.73 175.60 197.95 176.18 198.86 Z M 176.73 199.71 L 177.28 200.55 C 177.86 201.46 179.08 201.72 179.98 201.13 C 180.89 200.55 181.15 199.33 180.56 198.42 L 180.02 197.58 C 179.43 196.67 178.22 196.41 177.31 197.00 C 176.40 197.59 176.14 198.80 176.73 199.71 Z M 177.28 200.56 L 177.83 201.40 C 178.43 202.31 179.64 202.56 180.54 201.97 C 181.45 201.38 181.70 200.17 181.11 199.26 L 180.56 198.42 C 179.97 197.51 178.75 197.26 177.85 197.85 C 176.94 198.44 176.69 199.66 177.28 200.56 Z M 177.84 201.41 L 178.40 202.26 C 179.00 203.16 180.21 203.40 181.11 202.81 C 182.01 202.21 182.26 200.99 181.66 200.09 L 181.10 199.25 C 180.51 198.35 179.29 198.10 178.39 198.70 C 177.49 199.30 177.24 200.51 177.84 201.41 Z M 178.41 202.26 L 178.97 203.10 C 179.57 204.00 180.78 204.24 181.68 203.64 C 182.58 203.04 182.82 201.82 182.22 200.92 L 181.66 200.08 C 181.05 199.19 179.84 198.95 178.94 199.55 C 178.04 200.15 177.80 201.37 178.41 202.26 Z M 178.97 203.11 L 179.53 203.94 C 180.14 204.84 181.35 205.07 182.25 204.47 C 183.14 203.86 183.38 202.65 182.78 201.75 L 182.21 200.92 C 181.61 200.02 180.39 199.79 179.50 200.39 C 178.60 201.00 178.37 202.21 178.97 203.11 Z M 179.54 203.94 L 180.10 204.77 C 180.70 205.66 181.92 205.90 182.81 205.29 C 183.71 204.69 183.94 203.47 183.33 202.58 L 182.77 201.75 C 182.17 200.86 180.95 200.62 180.06 201.23 C 179.16 201.83 178.93 203.05 179.54 203.94 Z M 180.09 204.77 L 180.65 205.59 C 181.25 206.49 182.47 206.72 183.36 206.12 C 184.26 205.51 184.49 204.30 183.89 203.40 L 183.34 202.58 C 182.73 201.69 181.52 201.45 180.62 202.05 C 179.73 202.66 179.49 203.87 180.09 204.77 Z M 180.65 205.58 L 181.20 206.40 C 181.80 207.30 183.01 207.54 183.91 206.94 C 184.80 206.34 185.04 205.12 184.44 204.23 L 183.89 203.41 C 183.29 202.51 182.08 202.27 181.18 202.87 C 180.29 203.47 180.05 204.69 180.65 205.58 Z M 181.19 206.39 L 181.74 207.23 C 182.34 208.13 183.55 208.37 184.45 207.78 C 185.35 207.18 185.60 205.97 185.00 205.07 L 184.45 204.24 C 183.85 203.34 182.64 203.09 181.74 203.69 C 180.84 204.28 180.59 205.49 181.19 206.39 Z M 181.74 207.22 L 182.29 208.05 C 182.88 208.95 184.09 209.21 184.99 208.61 C 185.89 208.02 186.14 206.81 185.55 205.91 L 185.00 205.08 C 184.41 204.18 183.20 203.92 182.30 204.52 C 181.40 205.11 181.15 206.32 181.74 207.22 Z M 182.28 208.05 L 182.83 208.88 C 183.42 209.78 184.63 210.04 185.53 209.45 C 186.43 208.86 186.69 207.65 186.10 206.75 L 185.55 205.91 C 184.96 205.01 183.75 204.76 182.85 205.35 C 181.95 205.94 181.69 207.15 182.28 208.05 Z M 182.83 208.88 L 183.37 209.71 C 183.96 210.62 185.17 210.87 186.07 210.28 C 186.97 209.70 187.23 208.49 186.64 207.58 L 186.10 206.75 C 185.51 205.85 184.30 205.59 183.40 206.18 C 182.49 206.77 182.24 207.98 182.83 208.88 Z M 183.37 209.71 L 183.92 210.56 C 184.51 211.46 185.72 211.71 186.62 211.12 C 187.52 210.54 187.78 209.33 187.19 208.43 L 186.64 207.58 C 186.05 206.68 184.84 206.43 183.94 207.01 C 183.04 207.60 182.78 208.81 183.37 209.71 Z M 183.92 210.56 L 184.48 211.41 C 185.07 212.31 186.27 212.56 187.18 211.97 C 188.08 211.38 188.33 210.17 187.74 209.27 L 187.18 208.42 C 186.60 207.52 185.39 207.27 184.49 207.86 C 183.58 208.45 183.33 209.66 183.92 210.56 Z M 184.48 211.41 L 185.04 212.26 C 185.63 213.16 186.84 213.41 187.74 212.82 C 188.64 212.23 188.89 211.02 188.30 210.12 L 187.74 209.27 C 187.15 208.37 185.94 208.12 185.04 208.71 C 184.14 209.30 183.89 210.51 184.48 211.41 Z M 185.04 212.26 L 185.60 213.12 C 186.20 214.01 187.40 214.26 188.30 213.67 C 189.20 213.08 189.45 211.88 188.86 210.98 L 188.30 210.12 C 187.70 209.22 186.50 208.98 185.60 209.57 C 184.70 210.16 184.45 211.36 185.04 212.26 Z M 185.60 213.11 L 186.16 213.96 C 186.75 214.86 187.95 215.11 188.85 214.52 C 189.75 213.93 190.00 212.73 189.41 211.83 L 188.86 210.98 C 188.27 210.08 187.06 209.83 186.17 210.42 C 185.27 211.01 185.02 212.21 185.60 213.11 Z M 186.16 213.95 L 186.70 214.78 C 187.28 215.68 188.48 215.94 189.38 215.36 C 190.28 214.77 190.54 213.57 189.96 212.67 L 189.41 211.84 C 188.83 210.94 187.63 210.68 186.73 211.26 C 185.83 211.85 185.57 213.05 186.16 213.95 Z M 186.69 214.77 L 187.21 215.59 C 187.79 216.49 188.99 216.75 189.89 216.17 C 190.80 215.60 191.06 214.40 190.48 213.49 L 189.96 212.68 C 189.38 211.78 188.18 211.52 187.28 212.09 C 186.38 212.67 186.12 213.87 186.69 214.77 Z M 187.20 215.57 L 187.76 216.45 C 188.32 217.36 189.52 217.63 190.43 217.06 C 191.33 216.49 191.61 215.30 191.04 214.39 L 190.49 213.51 C 189.92 212.60 188.73 212.33 187.82 212.90 C 186.91 213.47 186.64 214.66 187.20 215.57 Z M 187.75 216.43 L 188.29 217.32 C 188.85 218.23 190.04 218.52 190.95 217.96 C 191.87 217.41 192.15 216.21 191.60 215.30 L 191.05 214.41 C 190.49 213.50 189.30 213.21 188.39 213.77 C 187.48 214.33 187.19 215.52 187.75 216.43 Z M 188.28 217.31 L 188.80 218.16 C 189.35 219.08 190.54 219.38 191.45 218.83 C 192.37 218.28 192.67 217.09 192.12 216.18 L 191.60 215.32 C 191.05 214.40 189.87 214.10 188.95 214.65 C 188.03 215.20 187.74 216.39 188.28 217.31 Z M 188.79 218.15 L 189.29 218.98 C 189.83 219.90 191.01 220.21 191.93 219.66 C 192.85 219.12 193.15 217.94 192.61 217.02 L 192.12 216.19 C 191.58 215.27 190.39 214.96 189.48 215.51 C 188.56 216.05 188.25 217.23 188.79 218.15 Z M 189.28 218.98 L 189.76 219.79 C 190.30 220.71 191.48 221.01 192.40 220.47 C 193.32 219.93 193.63 218.75 193.09 217.83 L 192.61 217.02 C 192.07 216.10 190.89 215.80 189.97 216.34 C 189.05 216.88 188.74 218.06 189.28 218.98 Z M 189.76 219.79 L 190.28 220.67 C 190.82 221.59 192.00 221.90 192.92 221.36 C 193.84 220.82 194.14 219.64 193.61 218.72 L 193.09 217.83 C 192.55 216.92 191.37 216.61 190.45 217.15 C 189.53 217.69 189.22 218.87 189.76 219.79 Z M 190.28 220.67 L 190.80 221.55 C 191.33 222.46 192.51 222.77 193.43 222.23 C 194.35 221.69 194.66 220.51 194.12 219.60 L 193.60 218.72 C 193.07 217.80 191.89 217.49 190.97 218.03 C 190.05 218.57 189.74 219.75 190.28 220.67 Z M 190.80 221.54 L 191.30 222.40 C 191.83 223.32 193.01 223.63 193.93 223.09 C 194.85 222.56 195.16 221.38 194.62 220.46 L 194.12 219.60 C 193.58 218.68 192.41 218.37 191.49 218.91 C 190.57 219.45 190.26 220.62 190.80 221.54 Z M 191.29 222.39 L 191.78 223.23 C 192.31 224.15 193.49 224.47 194.41 223.94 C 195.33 223.40 195.64 222.23 195.11 221.31 L 194.62 220.47 C 194.09 219.55 192.92 219.23 192.00 219.76 C 191.08 220.30 190.76 221.47 191.29 222.39 Z M 191.77 223.22 L 192.24 224.03 C 192.76 224.96 193.94 225.28 194.86 224.75 C 195.78 224.23 196.10 223.05 195.58 222.13 L 195.12 221.32 C 194.59 220.40 193.42 220.07 192.49 220.60 C 191.57 221.13 191.25 222.30 191.77 223.22 Z M 192.23 224.02 L 192.68 224.83 C 193.20 225.76 194.37 226.09 195.30 225.58 C 196.22 225.06 196.56 223.89 196.04 222.96 L 195.59 222.15 C 195.07 221.22 193.90 220.89 192.97 221.41 C 192.05 221.92 191.71 223.09 192.23 224.02 Z M 192.67 224.81 L 193.14 225.67 C 193.64 226.60 194.81 226.94 195.74 226.44 C 196.67 225.93 197.02 224.77 196.51 223.84 L 196.05 222.98 C 195.54 222.05 194.38 221.70 193.45 222.21 C 192.51 222.71 192.17 223.88 192.67 224.81 Z M 193.13 225.64 L 193.62 226.58 C 194.11 227.51 195.27 227.87 196.21 227.38 C 197.14 226.89 197.50 225.73 197.01 224.79 L 196.52 223.86 C 196.03 222.92 194.87 222.56 193.93 223.05 C 192.99 223.55 192.63 224.71 193.13 225.64 Z M 193.61 226.56 L 194.09 227.49 C 194.57 228.44 195.72 228.81 196.67 228.33 C 197.61 227.84 197.98 226.69 197.50 225.75 L 197.02 224.81 C 196.54 223.87 195.38 223.50 194.44 223.98 C 193.50 224.46 193.13 225.61 193.61 226.56 Z M 194.08 227.48 L 194.50 228.31 C 194.97 229.26 196.12 229.64 197.07 229.17 C 198.01 228.69 198.40 227.55 197.92 226.60 L 197.50 225.76 C 197.03 224.82 195.88 224.44 194.94 224.91 C 193.99 225.38 193.61 226.53 194.08 227.48 Z M 194.50 228.30 L 194.93 229.18 C 195.40 230.13 196.54 230.52 197.49 230.06 C 198.43 229.59 198.83 228.45 198.36 227.50 L 197.93 226.62 C 197.46 225.67 196.32 225.28 195.37 225.74 C 194.42 226.21 194.03 227.35 194.50 228.30 Z M 194.93 229.17 L 195.37 230.09 C 195.82 231.04 196.96 231.44 197.91 230.99 C 198.86 230.53 199.26 229.39 198.81 228.44 L 198.37 227.52 C 197.91 226.57 196.77 226.17 195.82 226.62 C 194.87 227.08 194.47 228.22 194.93 229.17 Z M 195.36 230.07 L 195.81 231.02 C 196.25 231.97 197.38 232.38 198.34 231.93 C 199.29 231.49 199.70 230.35 199.25 229.40 L 198.81 228.46 C 198.37 227.51 197.23 227.10 196.28 227.54 C 195.33 227.99 194.92 229.12 195.36 230.07 Z M 195.80 231.00 L 196.23 231.94 C 196.66 232.90 197.79 233.32 198.75 232.89 C 199.70 232.45 200.12 231.32 199.69 230.37 L 199.26 229.42 C 198.83 228.47 197.70 228.05 196.74 228.48 C 195.79 228.91 195.37 230.04 195.80 231.00 Z M 196.22 231.92 L 196.65 232.88 C 197.07 233.84 198.19 234.28 199.14 233.85 C 200.10 233.43 200.54 232.32 200.12 231.36 L 199.70 230.39 C 199.28 229.44 198.16 229.00 197.20 229.42 C 196.24 229.84 195.80 230.96 196.22 231.92 Z M 196.64 232.85 L 197.05 233.82 C 197.45 234.78 198.56 235.23 199.52 234.83 C 200.49 234.42 200.94 233.32 200.53 232.35 L 200.12 231.38 C 199.72 230.42 198.61 229.97 197.65 230.38 C 196.69 230.78 196.23 231.89 196.64 232.85 Z M 197.04 233.79 L 197.43 234.74 C 197.82 235.70 198.91 236.17 199.88 235.78 C 200.84 235.39 201.31 234.29 200.92 233.33 L 200.54 232.38 C 200.15 231.42 199.05 230.95 198.08 231.34 C 197.12 231.73 196.65 232.83 197.04 233.79 Z M 197.42 234.71 L 197.78 235.64 C 198.15 236.60 199.24 237.08 200.21 236.71 C 201.18 236.34 201.66 235.25 201.28 234.28 L 200.92 233.36 C 200.55 232.39 199.46 231.91 198.50 232.28 C 197.53 232.66 197.05 233.74 197.42 234.71 Z M 197.78 235.61 L 198.11 236.51 C 198.47 237.48 199.54 237.98 200.51 237.62 C 201.48 237.26 201.98 236.18 201.62 235.21 L 201.29 234.31 C 200.93 233.34 199.85 232.85 198.88 233.20 C 197.91 233.56 197.42 234.64 197.78 235.61 Z M 198.11 236.48 L 198.42 237.37 C 198.76 238.34 199.83 238.85 200.80 238.50 C 201.77 238.16 202.28 237.09 201.93 236.12 L 201.62 235.24 C 201.28 234.27 200.22 233.76 199.24 234.10 C 198.27 234.45 197.76 235.51 198.11 236.48 Z M 198.42 237.33 L 198.75 238.34 C 199.08 239.31 200.13 239.83 201.10 239.51 C 202.07 239.18 202.60 238.13 202.27 237.16 L 201.94 236.15 C 201.61 235.18 200.56 234.66 199.59 234.98 C 198.61 235.31 198.09 236.36 198.42 237.33 Z M 198.75 238.30 L 199.06 239.28 C 199.37 240.25 200.40 240.79 201.38 240.48 C 202.35 240.17 202.89 239.14 202.58 238.17 L 202.27 237.19 C 201.96 236.22 200.93 235.68 199.96 235.99 C 198.98 236.29 198.45 237.33 198.75 238.30 Z M 199.06 239.24 L 199.34 240.19 C 199.63 241.17 200.65 241.72 201.62 241.43 C 202.59 241.15 203.15 240.13 202.86 239.15 L 202.58 238.20 C 202.29 237.23 201.27 236.68 200.30 236.96 C 199.33 237.25 198.77 238.27 199.06 239.24 Z M 199.34 240.16 L 199.60 241.09 C 199.87 242.06 200.87 242.63 201.84 242.36 C 202.81 242.10 203.38 241.09 203.12 240.12 L 202.86 239.19 C 202.59 238.22 201.59 237.65 200.62 237.92 C 199.65 238.18 199.08 239.19 199.34 240.16 Z M 199.60 241.05 L 199.87 242.10 C 200.11 243.07 201.10 243.66 202.07 243.41 C 203.04 243.17 203.63 242.18 203.38 241.21 L 203.11 240.16 C 202.87 239.19 201.88 238.60 200.91 238.85 C 199.94 239.09 199.35 240.08 199.60 241.05 Z M 199.87 242.07 L 200.18 243.39 C 200.41 244.36 201.38 244.96 202.35 244.73 C 203.32 244.50 203.92 243.53 203.69 242.56 L 203.38 241.24 C 203.15 240.27 202.18 239.67 201.21 239.90 C 200.24 240.13 199.64 241.10 199.87 242.07 Z M 200.20 243.41 L 200.43 244.34 C 200.67 245.30 201.65 245.88 202.61 245.64 C 203.57 245.40 204.15 244.42 203.91 243.46 L 203.68 242.54 C 203.43 241.58 202.46 240.99 201.50 241.24 C 200.54 241.48 199.95 242.45 200.20 243.41 Z M 200.63 244.77 L 200.77 245.02 C 201.25 245.87 202.33 246.16 203.18 245.68 C 204.03 245.20 204.33 244.12 203.85 243.27 L 203.71 243.02 C 203.23 242.17 202.14 241.88 201.29 242.36 C 200.44 242.84 200.15 243.92 200.63 244.77 Z M 204.00 244.22 L 204.03 243.59 C 204.07 242.66 203.35 241.87 202.41 241.82 C 201.48 241.78 200.69 242.50 200.64 243.44 L 200.62 244.06 C 200.57 245.00 201.30 245.79 202.23 245.83 C 203.16 245.87 203.95 245.15 204.00 244.22 Z M 203.91 243.43 L 203.83 242.17 C 203.79 241.30 203.04 240.64 202.17 240.69 C 201.31 240.74 200.64 241.48 200.69 242.35 L 200.76 243.60 C 200.81 244.47 201.56 245.14 202.42 245.09 C 203.29 245.04 203.95 244.29 203.91 243.43 Z M 203.74 242.12 L 203.63 240.89 C 203.55 240.08 202.83 239.47 202.02 239.55 C 201.20 239.62 200.60 240.34 200.67 241.16 L 200.79 242.39 C 200.86 243.21 201.58 243.81 202.40 243.74 C 203.21 243.66 203.81 242.94 203.74 242.12 Z M 203.60 240.87 L 203.49 239.91 C 203.40 239.11 202.69 238.54 201.89 238.62 C 201.09 238.71 200.51 239.43 200.60 240.23 L 200.71 241.18 C 200.79 241.98 201.51 242.56 202.31 242.47 C 203.11 242.38 203.68 241.66 203.60 240.87 Z M 203.49 239.89 L 203.37 238.90 C 203.27 238.11 202.55 237.54 201.75 237.64 C 200.96 237.73 200.39 238.46 200.48 239.25 L 200.60 240.24 C 200.70 241.04 201.42 241.61 202.22 241.51 C 203.02 241.42 203.59 240.69 203.49 239.89 Z M 203.37 238.89 L 203.24 237.88 C 203.14 237.08 202.41 236.52 201.61 236.62 C 200.82 236.72 200.25 237.45 200.35 238.25 L 200.49 239.26 C 200.59 240.06 201.32 240.62 202.11 240.52 C 202.91 240.42 203.47 239.69 203.37 238.89 Z M 203.24 237.87 L 203.10 236.84 C 203.00 236.05 202.27 235.49 201.47 235.59 C 200.67 235.70 200.11 236.43 200.22 237.22 L 200.36 238.25 C 200.46 239.05 201.19 239.61 201.99 239.50 C 202.78 239.40 203.34 238.67 203.24 237.87 Z M 203.10 236.84 L 203.06 236.51 C 202.95 235.71 202.22 235.15 201.42 235.26 C 200.63 235.36 200.07 236.09 200.18 236.89 L 200.22 237.23 C 200.33 238.02 201.06 238.58 201.85 238.48 C 202.65 238.37 203.21 237.64 203.10 236.84 Z"
      fill="black"
      fill-rule="nonzero" /><path d="M 229.56 86.43 L 230.22 85.69 C 230.76 85.09 230.71 84.17 230.11 83.63 C 229.51 83.10 228.59 83.15 228.06 83.75 L 227.39 84.49 C 226.85 85.09 226.90 86.01 227.50 86.55 C 228.10 87.08 229.02 87.03 229.56 86.43 Z M 230.24 85.67 L 230.90 84.91 C 231.42 84.30 231.36 83.38 230.75 82.86 C 230.14 82.33 229.22 82.40 228.69 83.01 L 228.04 83.76 C 227.51 84.37 227.58 85.29 228.19 85.82 C 228.79 86.34 229.71 86.28 230.24 85.67 Z M 230.93 84.88 L 231.56 84.10 C 232.07 83.48 231.97 82.56 231.34 82.05 C 230.72 81.54 229.80 81.64 229.29 82.26 L 228.66 83.04 C 228.16 83.67 228.25 84.58 228.88 85.09 C 229.50 85.60 230.42 85.50 230.93 84.88 Z M 231.60 84.05 L 232.19 83.24 C 232.67 82.59 232.53 81.68 231.88 81.20 C 231.23 80.72 230.31 80.86 229.84 81.52 L 229.25 82.32 C 228.77 82.97 228.91 83.88 229.56 84.36 C 230.21 84.84 231.13 84.70 231.60 84.05 Z M 232.27 83.17 L 232.92 82.13 C 233.35 81.44 233.15 80.52 232.46 80.09 C 231.76 79.65 230.85 79.86 230.42 80.55 L 229.76 81.59 C 229.33 82.28 229.54 83.20 230.23 83.63 C 230.92 84.07 231.83 83.86 232.27 83.17 Z M 233.02 82.05 L 233.61 80.92 C 234.00 80.18 233.71 79.25 232.97 78.86 C 232.22 78.47 231.30 78.76 230.91 79.51 L 230.32 80.63 C 229.93 81.38 230.22 82.30 230.96 82.69 C 231.71 83.08 232.63 82.79 233.02 82.05 Z M 233.72 80.82 L 234.04 80.04 C 234.38 79.23 234.00 78.30 233.19 77.97 C 232.38 77.63 231.46 78.02 231.12 78.82 L 230.80 79.61 C 230.46 80.41 230.85 81.34 231.65 81.67 C 232.46 82.01 233.38 81.63 233.72 80.82 Z M 234.18 79.11 L 234.15 78.94 C 233.97 78.06 233.11 77.49 232.23 77.67 C 231.34 77.84 230.78 78.70 230.95 79.59 L 230.99 79.75 C 231.17 80.64 232.03 81.20 232.91 81.03 C 233.79 80.85 234.36 79.99 234.18 79.11 Z M 231.22 78.28 L 230.82 78.82 C 230.28 79.55 230.43 80.59 231.17 81.13 C 231.90 81.67 232.94 81.52 233.48 80.79 L 233.88 80.24 C 234.42 79.51 234.27 78.48 233.53 77.93 C 232.80 77.39 231.76 77.54 231.22 78.28 Z M 230.72 78.96 L 230.07 80.04 C 229.60 80.83 229.87 81.86 230.66 82.32 C 231.45 82.79 232.47 82.53 232.94 81.74 L 233.58 80.65 C 234.05 79.86 233.79 78.84 233.00 78.37 C 232.21 77.90 231.19 78.16 230.72 78.96 Z M 230.03 80.11 L 229.41 81.27 C 228.98 82.09 229.29 83.10 230.11 83.53 C 230.92 83.97 231.94 83.65 232.37 82.84 L 232.98 81.67 C 233.42 80.86 233.10 79.85 232.29 79.41 C 231.47 78.98 230.46 79.29 230.03 80.11 Z M 229.38 81.31 L 228.95 82.19 C 228.54 83.03 228.89 84.03 229.72 84.44 C 230.55 84.85 231.56 84.51 231.96 83.67 L 232.40 82.79 C 232.80 81.96 232.46 80.96 231.63 80.55 C 230.80 80.14 229.79 80.48 229.38 81.31 Z M 228.94 82.22 L 228.50 83.14 C 228.11 83.98 228.47 84.98 229.31 85.38 C 230.15 85.77 231.15 85.41 231.54 84.57 L 231.98 83.65 C 232.37 82.81 232.01 81.81 231.17 81.41 C 230.33 81.02 229.33 81.38 228.94 82.22 Z M 228.49 83.16 L 228.07 84.10 C 227.68 84.94 228.05 85.94 228.90 86.33 C 229.75 86.71 230.74 86.34 231.13 85.49 L 231.56 84.55 C 231.94 83.71 231.57 82.71 230.72 82.33 C 229.88 81.94 228.88 82.31 228.49 83.16 Z M 228.06 84.11 L 227.64 85.04 C 227.27 85.89 227.65 86.89 228.50 87.26 C 229.35 87.64 230.34 87.26 230.72 86.41 L 231.14 85.48 C 231.51 84.63 231.13 83.64 230.28 83.26 C 229.43 82.88 228.44 83.26 228.06 84.11 Z M 227.64 85.05 L 227.25 85.94 C 226.87 86.79 227.26 87.79 228.11 88.16 C 228.96 88.54 229.96 88.15 230.33 87.30 L 230.73 86.40 C 231.10 85.55 230.71 84.56 229.86 84.18 C 229.01 83.81 228.01 84.19 227.64 85.05 Z M 227.24 85.94 L 226.81 86.93 C 226.44 87.78 226.83 88.78 227.68 89.15 C 228.54 89.53 229.53 89.14 229.90 88.28 L 230.34 87.30 C 230.71 86.44 230.32 85.45 229.47 85.07 C 228.61 84.70 227.62 85.09 227.24 85.94 Z M 226.81 86.94 L 226.40 87.87 C 226.03 88.72 226.43 89.72 227.28 90.09 C 228.14 90.46 229.13 90.06 229.50 89.21 L 229.91 88.28 C 230.28 87.42 229.88 86.43 229.03 86.06 C 228.17 85.69 227.18 86.08 226.81 86.94 Z M 226.40 87.88 L 226.02 88.77 C 225.65 89.63 226.05 90.62 226.91 90.99 C 227.77 91.35 228.76 90.95 229.13 90.09 L 229.51 89.20 C 229.87 88.34 229.47 87.35 228.62 86.98 C 227.76 86.62 226.77 87.02 226.40 87.88 Z M 226.01 88.78 L 225.65 89.67 C 225.29 90.53 225.70 91.52 226.56 91.88 C 227.42 92.23 228.41 91.83 228.77 90.96 L 229.14 90.08 C 229.49 89.22 229.08 88.23 228.22 87.87 C 227.36 87.51 226.37 87.92 226.01 88.78 Z M 225.64 89.69 L 225.28 90.57 C 224.93 91.44 225.35 92.42 226.22 92.77 C 227.09 93.12 228.07 92.70 228.42 91.83 L 228.78 90.95 C 229.12 90.08 228.70 89.10 227.84 88.75 C 226.97 88.40 225.99 88.82 225.64 89.69 Z M 225.28 90.59 L 224.93 91.48 C 224.59 92.35 225.02 93.33 225.89 93.67 C 226.76 94.01 227.74 93.58 228.08 92.71 L 228.43 91.82 C 228.77 90.95 228.34 89.96 227.47 89.63 C 226.60 89.29 225.62 89.72 225.28 90.59 Z M 224.92 91.49 L 224.57 92.41 C 224.24 93.28 224.68 94.26 225.55 94.59 C 226.42 94.92 227.40 94.49 227.73 93.61 L 228.09 92.70 C 228.42 91.82 227.98 90.84 227.11 90.51 C 226.24 90.18 225.26 90.61 224.92 91.49 Z M 224.57 92.41 L 224.21 93.36 C 223.88 94.23 224.32 95.21 225.20 95.54 C 226.07 95.87 227.05 95.43 227.38 94.56 L 227.74 93.61 C 228.07 92.73 227.63 91.76 226.75 91.43 C 225.88 91.10 224.90 91.54 224.57 92.41 Z M 224.21 93.36 L 223.84 94.34 C 223.51 95.21 223.95 96.19 224.83 96.52 C 225.70 96.85 226.68 96.41 227.01 95.53 L 227.38 94.56 C 227.71 93.68 227.27 92.70 226.39 92.37 C 225.52 92.04 224.54 92.48 224.21 93.36 Z M 223.84 94.33 L 223.49 95.27 C 223.16 96.14 223.60 97.12 224.47 97.45 C 225.35 97.78 226.32 97.34 226.66 96.47 L 227.01 95.53 C 227.34 94.66 226.90 93.68 226.03 93.35 C 225.15 93.02 224.17 93.46 223.84 94.33 Z M 223.49 95.26 L 223.14 96.17 C 222.81 97.04 223.25 98.02 224.12 98.35 C 225.00 98.69 225.98 98.25 226.31 97.37 L 226.66 96.47 C 226.99 95.60 226.55 94.62 225.68 94.28 C 224.80 93.95 223.82 94.39 223.49 95.26 Z M 223.14 96.17 L 222.79 97.09 C 222.46 97.96 222.90 98.94 223.77 99.28 C 224.65 99.61 225.63 99.17 225.96 98.30 L 226.31 97.37 C 226.65 96.50 226.21 95.52 225.33 95.19 C 224.46 94.85 223.48 95.29 223.14 96.17 Z M 222.79 97.09 L 222.43 98.03 C 222.10 98.91 222.54 99.89 223.42 100.22 C 224.29 100.56 225.27 100.11 225.60 99.24 L 225.96 98.30 C 226.29 97.42 225.85 96.44 224.98 96.11 C 224.10 95.78 223.12 96.22 222.79 97.09 Z M 222.43 98.04 L 222.07 99.00 C 221.74 99.88 222.18 100.86 223.06 101.19 C 223.94 101.52 224.91 101.07 225.24 100.20 L 225.61 99.23 C 225.94 98.36 225.49 97.38 224.62 97.05 C 223.74 96.72 222.76 97.16 222.43 98.04 Z M 222.06 99.01 L 221.71 99.98 C 221.38 100.86 221.83 101.83 222.71 102.16 C 223.58 102.49 224.56 102.04 224.89 101.16 L 225.25 100.19 C 225.57 99.31 225.13 98.33 224.25 98.01 C 223.37 97.68 222.39 98.13 222.06 99.01 Z M 221.70 99.98 L 221.37 100.88 C 221.05 101.76 221.50 102.74 222.38 103.06 C 223.26 103.38 224.24 102.93 224.56 102.05 L 224.89 101.15 C 225.21 100.27 224.76 99.29 223.88 98.97 C 223.00 98.65 222.02 99.10 221.70 99.98 Z M 221.37 100.89 L 221.04 101.80 C 220.72 102.69 221.18 103.66 222.06 103.98 C 222.94 104.30 223.92 103.84 224.23 102.96 L 224.57 102.04 C 224.88 101.16 224.43 100.19 223.55 99.87 C 222.66 99.55 221.69 100.01 221.37 100.89 Z M 221.04 101.81 L 220.70 102.74 C 220.39 103.62 220.85 104.60 221.73 104.91 C 222.61 105.23 223.59 104.77 223.90 103.89 L 224.24 102.96 C 224.55 102.07 224.09 101.10 223.21 100.78 C 222.33 100.46 221.35 100.92 221.04 101.81 Z M 220.70 102.74 L 220.36 103.69 C 220.05 104.58 220.51 105.55 221.39 105.86 C 222.28 106.18 223.25 105.72 223.57 104.83 L 223.90 103.88 C 224.22 103.00 223.76 102.03 222.87 101.71 C 221.99 101.40 221.02 101.86 220.70 102.74 Z M 220.36 103.69 L 220.02 104.66 C 219.70 105.55 220.16 106.52 221.05 106.84 C 221.93 107.15 222.91 106.69 223.22 105.80 L 223.57 104.83 C 223.88 103.95 223.42 102.97 222.53 102.66 C 221.65 102.35 220.68 102.81 220.36 103.69 Z M 220.02 104.66 L 219.66 105.65 C 219.35 106.53 219.81 107.51 220.70 107.82 C 221.58 108.14 222.56 107.67 222.87 106.79 L 223.22 105.80 C 223.54 104.92 223.08 103.94 222.19 103.63 C 221.30 103.31 220.33 103.78 220.02 104.66 Z M 219.66 105.65 L 219.34 106.56 C 219.02 107.45 219.48 108.42 220.37 108.74 C 221.26 109.05 222.23 108.59 222.55 107.71 L 222.87 106.79 C 223.19 105.90 222.73 104.93 221.84 104.61 C 220.95 104.30 219.98 104.76 219.66 105.65 Z M 219.34 106.56 L 219.00 107.49 C 218.69 108.38 219.15 109.35 220.03 109.67 C 220.92 109.99 221.90 109.53 222.21 108.64 L 222.55 107.71 C 222.86 106.82 222.40 105.85 221.52 105.53 C 220.63 105.21 219.65 105.67 219.34 106.56 Z M 219.00 107.49 L 218.67 108.43 C 218.35 109.32 218.81 110.29 219.69 110.61 C 220.58 110.93 221.56 110.47 221.87 109.58 L 222.21 108.64 C 222.53 107.76 222.07 106.78 221.18 106.46 C 220.30 106.14 219.32 106.60 219.00 107.49 Z M 218.67 108.43 L 218.32 109.38 C 218.00 110.26 218.46 111.24 219.35 111.56 C 220.23 111.88 221.21 111.42 221.53 110.54 L 221.87 109.59 C 222.19 108.70 221.73 107.72 220.85 107.40 C 219.96 107.08 218.99 107.54 218.67 108.43 Z M 218.32 109.38 L 217.98 110.33 C 217.66 111.21 218.11 112.19 219.00 112.51 C 219.89 112.83 220.86 112.38 221.19 111.49 L 221.53 110.54 C 221.85 109.65 221.40 108.67 220.51 108.35 C 219.62 108.03 218.65 108.49 218.32 109.38 Z M 217.98 110.32 L 217.63 111.27 C 217.31 112.16 217.76 113.14 218.65 113.46 C 219.53 113.79 220.51 113.33 220.84 112.44 L 221.19 111.49 C 221.51 110.61 221.05 109.63 220.17 109.31 C 219.28 108.98 218.30 109.44 217.98 110.32 Z M 217.63 111.27 L 217.28 112.22 C 216.96 113.10 217.41 114.08 218.30 114.41 C 219.18 114.73 220.16 114.28 220.49 113.39 L 220.84 112.45 C 221.16 111.56 220.71 110.58 219.82 110.26 C 218.94 109.93 217.96 110.38 217.63 111.27 Z M 217.28 112.21 L 216.94 113.15 C 216.61 114.04 217.06 115.02 217.94 115.35 C 218.83 115.67 219.81 115.22 220.14 114.34 L 220.49 113.40 C 220.82 112.51 220.36 111.53 219.48 111.20 C 218.60 110.88 217.61 111.33 217.28 112.21 Z M 216.94 113.15 L 216.59 114.08 C 216.26 114.97 216.71 115.95 217.59 116.28 C 218.48 116.61 219.46 116.16 219.79 115.28 L 220.14 114.34 C 220.47 113.46 220.02 112.47 219.13 112.14 C 218.25 111.81 217.27 112.26 216.94 113.15 Z M 216.59 114.08 L 216.24 115.02 C 215.91 115.90 216.36 116.89 217.24 117.22 C 218.13 117.55 219.11 117.10 219.44 116.21 L 219.79 115.28 C 220.12 114.39 219.67 113.41 218.79 113.08 C 217.90 112.75 216.92 113.20 216.59 114.08 Z M 216.24 115.02 L 215.89 115.95 C 215.56 116.83 216.01 117.82 216.90 118.15 C 217.78 118.48 218.77 118.03 219.10 117.15 L 219.44 116.21 C 219.77 115.33 219.32 114.34 218.44 114.01 C 217.55 113.68 216.57 114.13 216.24 115.02 Z M 215.89 115.95 L 215.54 116.89 C 215.21 117.77 215.66 118.76 216.55 119.09 C 217.43 119.42 218.42 118.97 218.75 118.08 L 219.10 117.14 C 219.43 116.26 218.98 115.27 218.09 114.94 C 217.20 114.62 216.22 115.07 215.89 115.95 Z M 215.54 116.89 L 215.19 117.83 C 214.86 118.72 215.32 119.70 216.20 120.03 C 217.09 120.36 218.07 119.90 218.40 119.02 L 218.75 118.08 C 219.08 117.19 218.63 116.21 217.74 115.88 C 216.85 115.55 215.87 116.00 215.54 116.89 Z M 215.19 117.83 L 214.85 118.77 C 214.52 119.66 214.97 120.64 215.86 120.97 C 216.75 121.29 217.73 120.84 218.06 119.95 L 218.40 119.02 C 218.73 118.13 218.27 117.14 217.39 116.82 C 216.50 116.49 215.52 116.95 215.19 117.83 Z M 214.84 118.77 L 214.50 119.71 C 214.18 120.60 214.63 121.59 215.52 121.91 C 216.41 122.23 217.39 121.78 217.72 120.89 L 218.06 119.95 C 218.38 119.06 217.93 118.08 217.04 117.75 C 216.15 117.43 215.17 117.89 214.84 118.77 Z M 214.50 119.72 L 214.16 120.66 C 213.83 121.55 214.29 122.53 215.18 122.86 C 216.07 123.18 217.05 122.72 217.38 121.83 L 217.72 120.89 C 218.04 120.00 217.58 119.01 216.69 118.69 C 215.80 118.37 214.82 118.83 214.50 119.72 Z M 214.16 120.66 L 213.81 121.61 C 213.49 122.50 213.96 123.48 214.85 123.80 C 215.74 124.12 216.72 123.66 217.04 122.77 L 217.38 121.83 C 217.70 120.94 217.24 119.95 216.35 119.63 C 215.46 119.31 214.48 119.77 214.16 120.66 Z M 213.81 121.61 L 213.47 122.55 C 213.16 123.45 213.62 124.43 214.51 124.75 C 215.40 125.07 216.38 124.60 216.70 123.71 L 217.04 122.77 C 217.36 121.88 216.90 120.90 216.01 120.58 C 215.11 120.26 214.13 120.72 213.81 121.61 Z M 213.47 122.56 L 213.14 123.50 C 212.82 124.39 213.28 125.37 214.18 125.69 C 215.07 126.01 216.05 125.54 216.37 124.65 L 216.70 123.71 C 217.02 122.82 216.56 121.84 215.66 121.52 C 214.77 121.20 213.79 121.67 213.47 122.56 Z M 213.14 123.50 L 212.80 124.44 C 212.49 125.33 212.95 126.31 213.84 126.63 C 214.74 126.94 215.72 126.48 216.03 125.59 L 216.37 124.65 C 216.68 123.76 216.22 122.78 215.33 122.46 C 214.43 122.14 213.45 122.61 213.14 123.50 Z M 212.80 124.44 L 212.46 125.39 C 212.15 126.28 212.61 127.26 213.51 127.58 C 214.40 127.90 215.38 127.43 215.70 126.54 L 216.04 125.58 C 216.35 124.69 215.88 123.71 214.99 123.39 C 214.10 123.08 213.12 123.54 212.80 124.44 Z M 212.46 125.39 L 212.13 126.34 C 211.81 127.23 212.28 128.21 213.17 128.53 C 214.06 128.85 215.04 128.38 215.36 127.49 L 215.70 126.54 C 216.01 125.64 215.55 124.66 214.65 124.35 C 213.76 124.03 212.78 124.50 212.46 125.39 Z M 212.13 126.34 L 211.79 127.28 C 211.48 128.18 211.94 129.16 212.84 129.47 C 213.73 129.79 214.71 129.32 215.03 128.43 L 215.36 127.49 C 215.68 126.59 215.21 125.61 214.32 125.30 C 213.42 124.98 212.44 125.45 212.13 126.34 Z M 211.79 127.28 L 211.46 128.22 C 211.14 129.11 211.61 130.09 212.50 130.41 C 213.39 130.73 214.37 130.26 214.69 129.37 L 215.03 128.43 C 215.34 127.54 214.88 126.56 213.98 126.24 C 213.09 125.92 212.11 126.39 211.79 127.28 Z M 211.46 128.22 L 211.12 129.15 C 210.81 130.05 211.27 131.03 212.16 131.35 C 213.05 131.67 214.04 131.20 214.36 130.31 L 214.69 129.37 C 215.01 128.48 214.55 127.50 213.65 127.18 C 212.76 126.86 211.78 127.33 211.46 128.22 Z M 211.13 129.15 L 210.79 130.08 C 210.47 130.98 210.93 131.96 211.82 132.28 C 212.71 132.60 213.70 132.14 214.02 131.25 L 214.35 130.31 C 214.68 129.42 214.21 128.44 213.32 128.12 C 212.43 127.80 211.45 128.26 211.13 129.15 Z M 210.79 130.08 L 210.45 131.02 C 210.12 131.91 210.58 132.90 211.47 133.22 C 212.36 133.54 213.35 133.09 213.67 132.20 L 214.02 131.25 C 214.34 130.36 213.88 129.38 212.99 129.05 C 212.10 128.73 211.12 129.19 210.79 130.08 Z M 210.45 131.02 L 210.10 131.97 C 209.77 132.86 210.23 133.84 211.12 134.17 C 212.01 134.50 212.99 134.04 213.32 133.15 L 213.67 132.20 C 214.00 131.31 213.54 130.33 212.65 130.00 C 211.76 129.67 210.78 130.13 210.45 131.02 Z M 210.10 131.97 L 209.75 132.92 C 209.42 133.80 209.88 134.79 210.76 135.12 C 211.65 135.44 212.63 134.99 212.96 134.11 L 213.31 133.16 C 213.64 132.27 213.19 131.28 212.30 130.96 C 211.42 130.63 210.43 131.08 210.10 131.97 Z M 209.76 132.91 L 209.40 133.86 C 209.07 134.74 209.52 135.73 210.41 136.06 C 211.29 136.39 212.28 135.94 212.61 135.05 L 212.96 134.11 C 213.29 133.22 212.84 132.24 211.95 131.91 C 211.07 131.58 210.09 132.03 209.76 132.91 Z M 209.41 133.86 L 209.06 134.79 C 208.73 135.68 209.18 136.66 210.06 136.99 C 210.94 137.32 211.92 136.87 212.25 135.99 L 212.60 135.05 C 212.93 134.17 212.49 133.19 211.60 132.86 C 210.72 132.53 209.74 132.97 209.41 133.86 Z M 209.06 134.79 L 208.71 135.72 C 208.38 136.60 208.83 137.58 209.71 137.91 C 210.60 138.24 211.58 137.79 211.91 136.91 L 212.25 135.99 C 212.58 135.11 212.13 134.12 211.25 133.79 C 210.37 133.47 209.39 133.91 209.06 134.79 Z M 208.72 135.72 L 208.38 136.63 C 208.05 137.51 208.50 138.49 209.38 138.82 C 210.26 139.15 211.24 138.70 211.57 137.82 L 211.90 136.91 C 212.23 136.03 211.78 135.05 210.90 134.72 C 210.02 134.39 209.04 134.84 208.72 135.72 Z M 208.38 136.64 L 208.02 137.59 C 207.70 138.47 208.15 139.45 209.03 139.78 C 209.91 140.10 210.89 139.65 211.21 138.77 L 211.57 137.82 C 211.89 136.94 211.44 135.96 210.56 135.63 C 209.68 135.31 208.70 135.76 208.38 136.64 Z M 208.02 137.59 L 207.67 138.54 C 207.35 139.42 207.80 140.40 208.68 140.72 C 209.56 141.05 210.54 140.60 210.87 139.72 L 211.21 138.77 C 211.54 137.89 211.09 136.91 210.21 136.59 C 209.32 136.26 208.35 136.71 208.02 137.59 Z M 207.67 138.54 L 207.33 139.48 C 207.00 140.36 207.46 141.34 208.34 141.66 C 209.22 141.98 210.20 141.53 210.52 140.65 L 210.87 139.71 C 211.19 138.83 210.74 137.85 209.86 137.53 C 208.97 137.20 207.99 137.66 207.67 138.54 Z M 207.33 139.48 L 206.99 140.41 C 206.66 141.29 207.12 142.27 208.00 142.59 C 208.88 142.92 209.86 142.46 210.18 141.58 L 210.53 140.65 C 210.85 139.76 210.40 138.79 209.51 138.46 C 208.63 138.14 207.65 138.59 207.33 139.48 Z M 206.98 140.41 L 206.64 141.34 C 206.32 142.22 206.77 143.20 207.66 143.52 C 208.54 143.85 209.52 143.39 209.84 142.51 L 210.19 141.58 C 210.51 140.69 210.06 139.72 209.17 139.39 C 208.29 139.07 207.31 139.52 206.98 140.41 Z M 206.64 141.34 L 206.30 142.27 C 205.98 143.15 206.43 144.13 207.31 144.46 C 208.20 144.78 209.18 144.33 209.50 143.44 L 209.85 142.51 C 210.17 141.63 209.72 140.65 208.83 140.32 C 207.95 140.00 206.97 140.45 206.64 141.34 Z M 206.30 142.27 L 205.94 143.24 C 205.62 144.13 206.07 145.11 206.95 145.43 C 207.84 145.76 208.82 145.31 209.14 144.42 L 209.50 143.45 C 209.83 142.56 209.37 141.58 208.49 141.26 C 207.61 140.93 206.63 141.38 206.30 142.27 Z M 205.94 143.24 L 205.58 144.22 C 205.26 145.10 205.71 146.08 206.59 146.41 C 207.47 146.74 208.45 146.28 208.78 145.40 L 209.14 144.42 C 209.47 143.54 209.02 142.56 208.13 142.23 C 207.25 141.91 206.27 142.36 205.94 143.24 Z M 205.58 144.22 L 205.23 145.18 C 204.90 146.06 205.35 147.04 206.23 147.37 C 207.11 147.70 208.09 147.25 208.42 146.37 L 208.78 145.40 C 209.11 144.52 208.66 143.54 207.77 143.21 C 206.89 142.89 205.91 143.34 205.58 144.22 Z M 205.23 145.18 L 204.88 146.12 C 204.55 147.00 205.00 147.98 205.88 148.31 C 206.76 148.63 207.74 148.19 208.07 147.31 L 208.42 146.37 C 208.75 145.49 208.30 144.51 207.42 144.18 C 206.54 143.85 205.56 144.30 205.23 145.18 Z M 204.88 146.11 L 204.54 147.01 C 204.21 147.89 204.66 148.87 205.54 149.20 C 206.42 149.53 207.40 149.09 207.73 148.21 L 208.07 147.31 C 208.40 146.43 207.95 145.45 207.07 145.12 C 206.19 144.79 205.21 145.23 204.88 146.11 Z M 204.54 147.01 L 204.21 147.89 C 203.88 148.77 204.32 149.75 205.20 150.08 C 206.08 150.41 207.06 149.97 207.40 149.09 L 207.73 148.21 C 208.06 147.33 207.62 146.35 206.74 146.02 C 205.86 145.69 204.88 146.13 204.54 147.01 Z M 204.22 147.88 L 203.86 148.83 C 203.52 149.70 203.96 150.68 204.84 151.02 C 205.71 151.35 206.70 150.91 207.03 150.04 L 207.39 149.09 C 207.73 148.22 207.29 147.23 206.41 146.90 C 205.53 146.57 204.55 147.00 204.22 147.88 Z M 203.86 148.82 L 203.51 149.73 C 203.18 150.60 203.61 151.58 204.49 151.92 C 205.36 152.26 206.35 151.82 206.68 150.94 L 207.03 150.04 C 207.37 149.17 206.93 148.18 206.05 147.85 C 205.18 147.51 204.20 147.95 203.86 148.82 Z M 203.51 149.72 L 203.17 150.63 C 202.83 151.50 203.26 152.48 204.14 152.82 C 205.01 153.16 205.99 152.72 206.33 151.85 L 206.68 150.95 C 207.02 150.07 206.58 149.09 205.71 148.75 C 204.83 148.42 203.85 148.85 203.51 149.72 Z M 203.17 150.63 L 202.81 151.56 C 202.47 152.44 202.91 153.42 203.78 153.75 C 204.65 154.09 205.63 153.65 205.97 152.78 L 206.33 151.85 C 206.67 150.97 206.23 149.99 205.36 149.65 C 204.49 149.32 203.50 149.75 203.17 150.63 Z M 202.81 151.57 L 202.44 152.52 C 202.11 153.39 202.54 154.37 203.42 154.71 C 204.29 155.04 205.27 154.60 205.60 153.73 L 205.97 152.78 C 206.30 151.91 205.87 150.93 204.99 150.59 C 204.12 150.26 203.14 150.69 202.81 151.57 Z M 202.44 152.52 L 202.10 153.42 C 201.76 154.30 202.20 155.28 203.07 155.61 C 203.95 155.94 204.93 155.51 205.26 154.63 L 205.61 153.73 C 205.94 152.85 205.50 151.88 204.63 151.54 C 203.75 151.21 202.77 151.65 202.44 152.52 Z M 202.09 153.42 L 201.73 154.37 C 201.40 155.24 201.84 156.22 202.72 156.56 C 203.59 156.89 204.57 156.45 204.91 155.57 L 205.26 154.63 C 205.60 153.75 205.16 152.77 204.28 152.44 C 203.41 152.11 202.43 152.55 202.09 153.42 Z M 201.73 154.37 L 201.36 155.33 C 201.03 156.21 201.47 157.19 202.35 157.52 C 203.23 157.86 204.21 157.41 204.54 156.54 L 204.91 155.57 C 205.24 154.70 204.80 153.71 203.92 153.38 C 203.05 153.05 202.06 153.49 201.73 154.37 Z M 201.36 155.33 L 201.00 156.29 C 200.66 157.17 201.10 158.15 201.98 158.49 C 202.86 158.82 203.85 158.38 204.18 157.50 L 204.55 156.54 C 204.88 155.66 204.44 154.67 203.56 154.34 C 202.68 154.01 201.70 154.45 201.36 155.33 Z M 200.99 156.29 L 200.64 157.23 C 200.30 158.11 200.74 159.09 201.63 159.43 C 202.51 159.76 203.49 159.32 203.83 158.44 L 204.18 157.50 C 204.52 156.62 204.08 155.63 203.19 155.30 C 202.31 154.96 201.33 155.41 200.99 156.29 Z M 200.63 157.22 L 200.26 158.20 C 199.93 159.08 200.37 160.07 201.25 160.41 C 202.13 160.74 203.12 160.30 203.46 159.42 L 203.83 158.44 C 204.17 157.56 203.72 156.57 202.84 156.24 C 201.96 155.90 200.97 156.34 200.63 157.22 Z M 200.26 158.20 L 199.88 159.19 C 199.54 160.08 199.99 161.07 200.87 161.40 C 201.76 161.74 202.75 161.30 203.08 160.41 L 203.46 159.42 C 203.80 158.53 203.35 157.54 202.47 157.21 C 201.58 156.87 200.60 157.32 200.26 158.20 Z M 199.87 159.20 L 199.52 160.14 C 199.18 161.03 199.63 162.02 200.52 162.35 C 201.41 162.69 202.40 162.24 202.73 161.35 L 203.09 160.41 C 203.42 159.52 202.98 158.53 202.09 158.20 C 201.20 157.86 200.21 158.31 199.87 159.20 Z M 199.51 160.15 L 199.18 161.05 C 198.85 161.94 199.30 162.93 200.19 163.26 C 201.09 163.59 202.08 163.14 202.41 162.25 L 202.74 161.34 C 203.07 160.45 202.62 159.46 201.72 159.13 C 200.83 158.80 199.84 159.26 199.51 160.15 Z M 199.17 161.07 L 198.85 161.95 C 198.53 162.85 198.99 163.83 199.89 164.16 C 200.79 164.48 201.78 164.01 202.10 163.12 L 202.42 162.23 C 202.74 161.34 202.27 160.35 201.38 160.02 C 200.48 159.70 199.49 160.17 199.17 161.07 Z M 198.84 161.97 L 198.52 162.90 C 198.20 163.81 198.69 164.79 199.59 165.10 C 200.50 165.42 201.48 164.93 201.79 164.03 L 202.11 163.10 C 202.43 162.19 201.94 161.20 201.04 160.89 C 200.13 160.58 199.15 161.06 198.84 161.97 Z M 198.49 162.93 L 198.18 163.91 C 197.89 164.82 198.39 165.81 199.31 166.10 C 200.23 166.39 201.21 165.89 201.50 164.97 L 201.82 164.00 C 202.11 163.08 201.60 162.10 200.69 161.80 C 199.77 161.51 198.79 162.01 198.49 162.93 Z M 198.15 163.95 L 197.87 164.92 C 197.61 165.86 198.15 166.83 199.08 167.10 C 200.01 167.37 200.99 166.82 201.26 165.89 L 201.53 164.92 C 201.80 163.99 201.26 163.02 200.33 162.75 C 199.39 162.48 198.42 163.02 198.15 163.95 Z M 197.84 164.99 L 197.61 165.95 C 197.38 166.90 197.97 167.86 198.92 168.09 C 199.87 168.32 200.83 167.73 201.06 166.78 L 201.29 165.82 C 201.52 164.87 200.93 163.91 199.98 163.68 C 199.03 163.45 198.07 164.04 197.84 164.99 Z M 197.57 166.04 L 197.40 167.01 C 197.22 167.98 197.87 168.91 198.84 169.09 C 199.81 169.26 200.74 168.62 200.92 167.65 L 201.09 166.68 C 201.27 165.71 200.63 164.78 199.65 164.60 C 198.68 164.43 197.75 165.07 197.57 166.04 Z M 197.35 167.14 L 197.24 168.17 C 197.14 169.17 197.87 170.07 198.87 170.17 C 199.87 170.27 200.76 169.54 200.87 168.54 L 200.97 167.51 C 201.07 166.51 200.35 165.62 199.34 165.51 C 198.34 165.41 197.45 166.14 197.35 167.14 Z M 197.18 168.37 L 197.19 169.37 C 197.20 170.40 198.04 171.24 199.07 171.23 C 200.11 171.22 200.94 170.38 200.93 169.35 L 200.92 168.34 C 200.92 167.31 200.07 166.48 199.04 166.49 C 198.01 166.50 197.18 167.34 197.18 168.37 Z M 197.17 169.64 L 197.31 170.61 C 197.47 171.65 198.44 172.37 199.49 172.22 C 200.53 172.06 201.25 171.09 201.10 170.04 L 200.95 169.08 C 200.80 168.03 199.82 167.31 198.78 167.47 C 197.73 167.62 197.01 168.60 197.17 169.64 Z M 197.35 170.94 L 197.65 171.85 C 197.99 172.88 199.10 173.43 200.12 173.09 C 201.15 172.75 201.71 171.64 201.37 170.62 L 201.06 169.71 C 200.72 168.68 199.61 168.12 198.59 168.46 C 197.56 168.80 197.00 169.91 197.35 170.94 Z M 197.75 172.16 L 198.20 173.01 C 198.71 173.98 199.91 174.36 200.88 173.84 C 201.85 173.33 202.23 172.13 201.71 171.16 L 201.27 170.31 C 200.75 169.34 199.55 168.96 198.58 169.48 C 197.61 169.99 197.24 171.19 197.75 172.16 Z M 198.27 173.18 L 198.82 174.01 C 199.42 174.94 200.66 175.20 201.59 174.60 C 202.52 173.99 202.78 172.75 202.18 171.82 L 201.64 170.99 C 201.03 170.06 199.79 169.80 198.86 170.40 C 197.93 171.01 197.67 172.25 198.27 173.18 Z M 198.82 174.05 L 199.39 174.89 C 200.02 175.82 201.28 176.06 202.20 175.43 C 203.13 174.81 203.37 173.55 202.74 172.62 L 202.17 171.78 C 201.54 170.86 200.29 170.62 199.36 171.24 C 198.44 171.87 198.19 173.13 198.82 174.05 Z M 199.33 174.82 L 199.86 175.69 C 200.44 176.65 201.70 176.95 202.66 176.37 C 203.62 175.78 203.92 174.53 203.34 173.56 L 202.81 172.70 C 202.22 171.73 200.97 171.43 200.00 172.02 C 199.04 172.60 198.74 173.86 199.33 174.82 Z M 199.76 175.54 L 200.19 176.39 C 200.69 177.40 201.92 177.82 202.93 177.32 C 203.94 176.82 204.36 175.59 203.86 174.57 L 203.43 173.72 C 202.93 172.70 201.70 172.29 200.69 172.79 C 199.67 173.29 199.26 174.52 199.76 175.54 Z M 200.13 176.26 L 200.49 177.16 C 200.92 178.21 202.12 178.71 203.17 178.28 C 204.21 177.85 204.71 176.66 204.29 175.61 L 203.92 174.71 C 203.49 173.66 202.29 173.16 201.25 173.59 C 200.20 174.01 199.70 175.21 200.13 176.26 Z M 200.46 177.07 L 200.79 178.02 C 201.17 179.08 202.34 179.65 203.40 179.27 C 204.47 178.89 205.03 177.73 204.66 176.66 L 204.32 175.71 C 203.95 174.64 202.78 174.08 201.71 174.45 C 200.64 174.83 200.08 176.00 200.46 177.07 Z M 200.77 177.96 L 201.09 178.96 C 201.44 180.04 202.59 180.63 203.67 180.29 C 204.75 179.94 205.34 178.79 205.00 177.71 L 204.68 176.71 C 204.33 175.63 203.18 175.04 202.10 175.38 C 201.02 175.73 200.43 176.88 200.77 177.96 Z M 201.08 178.94 L 201.38 179.91 C 201.72 180.99 202.86 181.60 203.95 181.27 C 205.03 180.93 205.64 179.78 205.30 178.70 L 205.00 177.73 C 204.67 176.65 203.52 176.04 202.44 176.37 C 201.36 176.71 200.75 177.85 201.08 178.94 Z M 201.38 179.90 L 201.67 180.87 C 202.00 181.96 203.15 182.57 204.23 182.24 C 205.32 181.91 205.93 180.76 205.60 179.68 L 205.31 178.71 C 204.98 177.62 203.83 177.01 202.75 177.34 C 201.66 177.67 201.05 178.82 201.38 179.90 Z M 201.67 180.87 L 201.96 181.84 C 202.29 182.93 203.43 183.55 204.52 183.22 C 205.61 182.90 206.22 181.75 205.90 180.66 L 205.61 179.69 C 205.28 178.60 204.14 177.98 203.05 178.31 C 201.96 178.63 201.34 179.78 201.67 180.87 Z M 201.96 181.83 L 202.24 182.80 C 202.56 183.89 203.70 184.51 204.79 184.19 C 205.88 183.87 206.51 182.73 206.19 181.64 L 205.90 180.67 C 205.58 179.58 204.44 178.96 203.35 179.28 C 202.26 179.60 201.64 180.74 201.96 181.83 Z M 202.24 182.78 L 202.50 183.72 C 202.82 184.81 203.96 185.44 205.05 185.13 C 206.14 184.81 206.77 183.67 206.46 182.58 L 206.19 181.65 C 205.88 180.55 204.74 179.92 203.64 180.24 C 202.55 180.55 201.92 181.69 202.24 182.78 Z M 202.50 183.71 L 202.78 184.70 C 203.08 185.79 204.22 186.43 205.31 186.12 C 206.41 185.82 207.05 184.68 206.74 183.59 L 206.46 182.60 C 206.16 181.50 205.02 180.86 203.93 181.17 C 202.83 181.47 202.19 182.61 202.50 183.71 Z M 202.77 184.69 L 203.04 185.65 C 203.34 186.75 204.47 187.39 205.57 187.09 C 206.66 186.79 207.31 185.66 207.01 184.56 L 206.75 183.60 C 206.45 182.50 205.31 181.86 204.22 182.16 C 203.12 182.46 202.47 183.59 202.77 184.69 Z M 203.04 185.65 L 203.29 186.59 C 203.59 187.69 204.72 188.34 205.82 188.04 C 206.92 187.74 207.57 186.61 207.27 185.51 L 207.01 184.57 C 206.71 183.47 205.58 182.82 204.48 183.12 C 203.39 183.42 202.74 184.55 203.04 185.65 Z M 203.29 186.60 L 203.55 187.54 C 203.86 188.64 204.99 189.29 206.09 188.99 C 207.18 188.69 207.83 187.55 207.53 186.46 L 207.27 185.51 C 206.97 184.41 205.83 183.77 204.74 184.07 C 203.64 184.37 202.99 185.50 203.29 186.60 Z M 203.56 187.56 L 203.81 188.47 C 204.12 189.56 205.26 190.20 206.35 189.89 C 207.45 189.59 208.09 188.45 207.78 187.36 L 207.52 186.44 C 207.22 185.35 206.08 184.71 204.98 185.02 C 203.89 185.32 203.25 186.46 203.56 187.56 Z M 203.82 188.48 L 204.08 189.38 C 204.39 190.48 205.53 191.11 206.62 190.79 C 207.72 190.48 208.35 189.34 208.03 188.24 L 207.78 187.34 C 207.46 186.25 206.32 185.62 205.23 185.93 C 204.13 186.25 203.50 187.39 203.82 188.48 Z M 204.08 189.39 L 204.36 190.33 C 204.68 191.43 205.82 192.05 206.91 191.73 C 208.00 191.41 208.63 190.27 208.31 189.17 L 208.03 188.23 C 207.71 187.14 206.57 186.52 205.48 186.84 C 204.38 187.16 203.76 188.30 204.08 189.39 Z M 204.36 190.34 L 204.65 191.33 C 204.98 192.42 206.13 193.04 207.22 192.71 C 208.31 192.39 208.93 191.24 208.60 190.15 L 208.30 189.16 C 207.98 188.08 206.83 187.46 205.74 187.78 C 204.65 188.11 204.03 189.25 204.36 190.34 Z M 204.66 191.34 L 204.97 192.37 C 205.30 193.46 206.45 194.08 207.54 193.75 C 208.63 193.42 209.24 192.27 208.91 191.18 L 208.60 190.14 C 208.27 189.05 207.12 188.44 206.03 188.77 C 204.94 189.10 204.33 190.25 204.66 191.34 Z M 204.97 192.38 L 205.26 193.30 C 205.59 194.39 206.74 195.00 207.83 194.67 C 208.92 194.33 209.53 193.18 209.19 192.09 L 208.91 191.17 C 208.58 190.08 207.42 189.47 206.34 189.81 C 205.25 190.14 204.64 191.29 204.97 192.38 Z M 205.26 193.31 L 205.54 194.22 C 205.88 195.31 207.03 195.92 208.12 195.58 C 209.20 195.25 209.81 194.09 209.47 193.01 L 209.19 192.09 C 208.86 191.00 207.70 190.39 206.62 190.73 C 205.53 191.07 204.92 192.22 205.26 193.31 Z M 205.54 194.22 L 205.83 195.17 C 206.17 196.26 207.32 196.86 208.41 196.53 C 209.50 196.19 210.10 195.04 209.77 193.95 L 209.47 193.00 C 209.14 191.92 207.98 191.31 206.90 191.65 C 205.81 191.98 205.20 193.14 205.54 194.22 Z M 205.83 195.17 L 206.14 196.14 C 206.47 197.23 207.62 197.83 208.71 197.50 C 209.80 197.16 210.40 196.01 210.07 194.92 L 209.77 193.95 C 209.43 192.86 208.28 192.26 207.19 192.59 C 206.11 192.93 205.50 194.08 205.83 195.17 Z M 206.13 196.14 L 206.44 197.13 C 206.78 198.21 207.93 198.82 209.02 198.49 C 210.10 198.15 210.71 197.00 210.37 195.91 L 210.07 194.92 C 209.73 193.84 208.58 193.23 207.49 193.56 C 206.41 193.90 205.80 195.05 206.13 196.14 Z M 206.44 197.13 L 206.75 198.13 C 207.08 199.22 208.23 199.83 209.32 199.49 C 210.41 199.16 211.02 198.01 210.68 196.92 L 210.38 195.92 C 210.04 194.83 208.89 194.22 207.80 194.55 C 206.72 194.89 206.11 196.04 206.44 197.13 Z M 206.75 198.13 L 207.03 199.06 C 207.36 200.14 208.51 200.76 209.60 200.43 C 210.69 200.10 211.30 198.94 210.97 197.86 L 210.69 196.93 C 210.35 195.84 209.20 195.23 208.12 195.56 C 207.03 195.89 206.42 197.04 206.75 198.13 Z M 207.03 199.05 L 207.31 199.98 C 207.64 201.07 208.79 201.69 209.88 201.36 C 210.97 201.03 211.58 199.88 211.25 198.79 L 210.97 197.86 C 210.64 196.77 209.49 196.16 208.40 196.49 C 207.31 196.82 206.70 197.96 207.03 199.05 Z M 207.31 199.98 L 207.59 200.93 C 207.92 202.01 209.07 202.63 210.16 202.30 C 211.25 201.98 211.86 200.83 211.54 199.74 L 211.25 198.79 C 210.92 197.71 209.78 197.09 208.69 197.42 C 207.60 197.75 206.98 198.89 207.31 199.98 Z M 207.59 200.93 L 207.88 201.88 C 208.21 202.97 209.36 203.59 210.45 203.26 C 211.54 202.93 212.15 201.78 211.82 200.70 L 211.54 199.74 C 211.21 198.65 210.06 198.03 208.97 198.36 C 207.88 198.69 207.27 199.84 207.59 200.93 Z M 207.88 201.88 L 208.17 202.85 C 208.50 203.94 209.65 204.56 210.74 204.23 C 211.83 203.90 212.44 202.75 212.12 201.67 L 211.82 200.69 C 211.50 199.61 210.35 198.99 209.26 199.32 C 208.17 199.65 207.55 200.79 207.88 201.88 Z M 208.18 202.85 L 208.47 203.84 C 208.80 204.93 209.95 205.55 211.04 205.22 C 212.13 204.89 212.74 203.74 212.41 202.65 L 212.12 201.66 C 211.79 200.58 210.64 199.96 209.55 200.29 C 208.46 200.62 207.85 201.77 208.18 202.85 Z M 208.47 203.85 L 208.77 204.81 C 209.10 205.90 210.25 206.51 211.33 206.18 C 212.42 205.85 213.04 204.70 212.71 203.61 L 212.41 202.65 C 212.08 201.56 210.93 200.95 209.85 201.28 C 208.76 201.61 208.14 202.76 208.47 203.85 Z M 208.77 204.81 L 209.05 205.73 C 209.38 206.82 210.53 207.43 211.62 207.10 C 212.71 206.77 213.32 205.62 212.99 204.53 L 212.71 203.61 C 212.37 202.52 211.22 201.91 210.14 202.24 C 209.05 202.57 208.44 203.73 208.77 204.81 Z M 209.05 205.74 L 209.34 206.67 C 209.67 207.76 210.82 208.37 211.91 208.03 C 213.00 207.70 213.61 206.55 213.27 205.46 L 212.98 204.53 C 212.65 203.44 211.50 202.83 210.41 203.16 C 209.33 203.50 208.72 204.65 209.05 205.74 Z M 209.34 206.67 L 209.63 207.62 C 209.97 208.71 211.12 209.31 212.21 208.98 C 213.29 208.64 213.90 207.49 213.56 206.40 L 213.27 205.46 C 212.93 204.37 211.78 203.76 210.70 204.10 C 209.61 204.43 209.00 205.59 209.34 206.67 Z M 209.63 207.62 L 209.93 208.58 C 210.27 209.67 211.43 210.27 212.51 209.94 C 213.59 209.60 214.20 208.44 213.86 207.36 L 213.56 206.40 C 213.22 205.31 212.07 204.71 210.98 205.05 C 209.90 205.39 209.30 206.54 209.63 207.62 Z M 209.94 208.59 L 210.24 209.56 C 210.58 210.64 211.74 211.25 212.82 210.91 C 213.90 210.56 214.51 209.41 214.17 208.33 L 213.86 207.35 C 213.52 206.27 212.36 205.67 211.28 206.01 C 210.20 206.35 209.59 207.51 209.94 208.59 Z M 210.24 209.57 L 210.56 210.55 C 210.90 211.63 212.06 212.23 213.14 211.89 C 214.22 211.54 214.82 210.39 214.48 209.30 L 214.16 208.32 C 213.82 207.24 212.66 206.64 211.58 206.98 C 210.50 207.33 209.90 208.48 210.24 209.57 Z M 210.56 210.56 L 210.87 211.54 C 211.22 212.62 212.38 213.21 213.46 212.87 C 214.54 212.52 215.14 211.36 214.79 210.28 L 214.47 209.30 C 214.13 208.22 212.97 207.62 211.89 207.97 C 210.81 208.32 210.21 209.47 210.56 210.56 Z M 210.87 211.54 L 211.18 212.47 C 211.53 213.55 212.69 214.15 213.77 213.80 C 214.85 213.45 215.44 212.29 215.09 211.21 L 214.79 210.28 C 214.44 209.19 213.28 208.60 212.20 208.95 C 211.12 209.30 210.52 210.46 210.87 211.54 Z M 211.18 212.48 L 211.49 213.42 C 211.84 214.50 213.00 215.09 214.08 214.73 C 215.16 214.38 215.75 213.22 215.39 212.14 L 215.09 211.20 C 214.73 210.12 213.57 209.53 212.49 209.89 C 211.41 210.24 210.83 211.40 211.18 212.48 Z M 211.49 213.42 L 211.80 214.37 C 212.15 215.45 213.32 216.03 214.39 215.68 C 215.47 215.32 216.06 214.16 215.70 213.08 L 215.39 212.14 C 215.04 211.06 213.87 210.47 212.80 210.83 C 211.72 211.18 211.13 212.35 211.49 213.42 Z M 211.80 214.37 L 212.12 215.33 C 212.48 216.40 213.64 216.99 214.72 216.63 C 215.79 216.27 216.38 215.11 216.02 214.03 L 215.70 213.08 C 215.34 212.00 214.18 211.42 213.10 211.78 C 212.03 212.13 211.44 213.30 211.80 214.37 Z M 212.12 215.33 L 212.44 216.28 C 212.80 217.36 213.96 217.94 215.04 217.58 C 216.12 217.22 216.70 216.05 216.34 214.98 L 216.02 214.02 C 215.65 212.95 214.49 212.37 213.41 212.73 C 212.34 213.09 211.76 214.25 212.12 215.33 Z M 212.44 216.29 L 212.76 217.25 C 213.13 218.32 214.29 218.90 215.37 218.53 C 216.44 218.17 217.02 217.00 216.66 215.93 L 216.33 214.97 C 215.97 213.90 214.80 213.32 213.73 213.68 C 212.65 214.05 212.08 215.21 212.44 216.29 Z M 212.77 217.25 L 213.09 218.21 C 213.46 219.28 214.63 219.86 215.70 219.49 C 216.78 219.12 217.35 217.96 216.98 216.88 L 216.66 215.92 C 216.29 214.85 215.12 214.28 214.05 214.64 C 212.97 215.01 212.40 216.18 212.77 217.25 Z M 213.10 218.21 L 213.42 219.17 C 213.79 220.24 214.96 220.81 216.04 220.45 C 217.11 220.08 217.68 218.91 217.31 217.83 L 216.98 216.88 C 216.61 215.81 215.44 215.23 214.37 215.60 C 213.30 215.97 212.73 217.14 213.10 218.21 Z M 213.43 219.18 L 213.76 220.13 C 214.13 221.20 215.30 221.77 216.37 221.40 C 217.44 221.02 218.01 219.85 217.64 218.78 L 217.31 217.83 C 216.94 216.76 215.77 216.19 214.69 216.56 C 213.62 216.93 213.05 218.10 213.43 219.18 Z M 213.76 220.13 L 214.09 221.08 C 214.47 222.15 215.64 222.72 216.71 222.34 C 217.78 221.97 218.34 220.80 217.97 219.73 L 217.64 218.78 C 217.26 217.71 216.09 217.14 215.02 217.52 C 213.95 217.89 213.38 219.06 213.76 220.13 Z M 214.09 221.09 L 214.43 222.04 C 214.81 223.11 215.98 223.67 217.05 223.29 C 218.12 222.91 218.68 221.74 218.30 220.67 L 217.97 219.72 C 217.59 218.65 216.42 218.09 215.35 218.47 C 214.28 218.85 213.72 220.02 214.09 221.09 Z M 214.43 222.04 L 214.77 222.99 C 215.15 224.06 216.32 224.61 217.39 224.23 C 218.46 223.85 219.01 222.68 218.63 221.61 L 218.30 220.67 C 217.92 219.60 216.75 219.04 215.68 219.42 C 214.61 219.80 214.05 220.97 214.43 222.04 Z M 214.77 222.99 L 215.11 223.93 C 215.49 225.00 216.66 225.55 217.73 225.17 C 218.80 224.79 219.35 223.61 218.97 222.55 L 218.63 221.61 C 218.25 220.54 217.07 219.98 216.01 220.37 C 214.94 220.75 214.39 221.93 214.77 222.99 Z M 215.11 223.94 L 215.45 224.87 C 215.83 225.94 217.01 226.49 218.07 226.10 C 219.14 225.72 219.69 224.54 219.31 223.48 L 218.97 222.54 C 218.58 221.48 217.41 220.92 216.34 221.31 C 215.27 221.70 214.72 222.87 215.11 223.94 Z M 215.45 224.88 L 215.79 225.81 C 216.17 226.87 217.35 227.42 218.42 227.03 C 219.48 226.64 220.03 225.46 219.64 224.40 L 219.30 223.47 C 218.92 222.41 217.74 221.86 216.67 222.25 C 215.61 222.63 215.06 223.81 215.45 224.88 Z M 215.79 225.81 L 216.13 226.75 C 216.53 227.81 217.70 228.36 218.77 227.97 C 219.83 227.58 220.38 226.40 219.99 225.33 L 219.64 224.39 C 219.25 223.33 218.07 222.79 217.01 223.18 C 215.94 223.57 215.40 224.75 215.79 225.81 Z M 216.14 226.76 L 216.49 227.70 C 216.88 228.76 218.06 229.31 219.12 228.91 C 220.19 228.52 220.73 227.34 220.33 226.27 L 219.98 225.33 C 219.59 224.27 218.41 223.72 217.35 224.12 C 216.28 224.51 215.74 225.69 216.14 226.76 Z M 216.49 227.71 L 216.84 228.65 C 217.24 229.71 218.42 230.25 219.48 229.85 C 220.54 229.45 221.08 228.27 220.68 227.21 L 220.33 226.27 C 219.94 225.21 218.75 224.67 217.69 225.07 C 216.63 225.46 216.09 226.64 216.49 227.71 Z M 216.84 228.65 L 217.19 229.58 C 217.59 230.64 218.77 231.18 219.83 230.78 C 220.89 230.39 221.43 229.20 221.03 228.14 L 220.68 227.21 C 220.28 226.15 219.10 225.61 218.04 226.01 C 216.98 226.41 216.44 227.59 216.84 228.65 Z M 217.19 229.59 L 217.55 230.52 C 217.94 231.58 219.13 232.11 220.19 231.71 C 221.25 231.32 221.78 230.13 221.38 229.07 L 221.03 228.14 C 220.63 227.08 219.45 226.55 218.39 226.94 C 217.33 227.34 216.79 228.53 217.19 229.59 Z M 217.55 230.52 L 217.90 231.45 C 218.30 232.51 219.48 233.04 220.54 232.64 C 221.60 232.24 222.13 231.06 221.73 230.00 L 221.38 229.07 C 220.98 228.01 219.80 227.48 218.74 227.88 C 217.68 228.28 217.15 229.46 217.55 230.52 Z M 217.90 231.45 L 218.25 232.38 C 218.65 233.44 219.83 233.97 220.89 233.57 C 221.95 233.17 222.48 231.99 222.08 230.93 L 221.73 230.00 C 221.33 228.94 220.15 228.41 219.09 228.81 C 218.03 229.21 217.50 230.39 217.90 231.45 Z M 218.25 232.38 L 218.60 233.31 C 219.00 234.37 220.18 234.90 221.24 234.51 C 222.30 234.11 222.83 232.92 222.43 231.87 L 222.08 230.93 C 221.68 229.87 220.50 229.34 219.44 229.74 C 218.38 230.14 217.85 231.32 218.25 232.38 Z M 218.60 233.31 L 218.97 234.29 C 219.37 235.35 220.55 235.89 221.61 235.49 C 222.67 235.09 223.20 233.91 222.80 232.85 L 222.44 231.87 C 222.04 230.81 220.86 230.27 219.80 230.67 C 218.74 231.07 218.20 232.25 218.60 233.31 Z M 218.97 234.29 L 219.34 235.27 C 219.74 236.33 220.92 236.87 221.98 236.47 C 223.04 236.07 223.57 234.89 223.17 233.83 L 222.80 232.85 C 222.41 231.79 221.22 231.26 220.17 231.65 C 219.11 232.05 218.57 233.23 218.97 234.29 Z M 219.34 235.28 L 219.71 236.24 C 220.10 237.30 221.29 237.84 222.35 237.44 C 223.40 237.04 223.94 235.86 223.54 234.80 L 223.17 233.83 C 222.77 232.77 221.59 232.24 220.53 232.64 C 219.47 233.04 218.94 234.22 219.34 235.28 Z M 219.71 236.25 L 220.07 237.20 C 220.47 238.26 221.65 238.79 222.71 238.38 C 223.77 237.98 224.30 236.80 223.90 235.74 L 223.54 234.79 C 223.13 233.73 221.95 233.20 220.89 233.61 C 219.84 234.01 219.31 235.19 219.71 236.25 Z M 220.07 237.21 L 220.43 238.13 C 220.84 239.19 222.02 239.71 223.08 239.31 C 224.13 238.90 224.66 237.71 224.25 236.66 L 223.89 235.73 C 223.49 234.68 222.30 234.15 221.25 234.56 C 220.19 234.97 219.67 236.15 220.07 237.21 Z M 220.43 238.14 L 220.78 239.03 C 221.20 240.09 222.38 240.61 223.44 240.19 C 224.49 239.78 225.01 238.59 224.60 237.54 L 224.25 236.65 C 223.83 235.60 222.64 235.08 221.59 235.49 C 220.54 235.90 220.02 237.09 220.43 238.14 Z M 220.79 239.05 L 221.13 239.90 C 221.55 240.95 222.74 241.46 223.79 241.04 C 224.84 240.62 225.35 239.43 224.93 238.38 L 224.59 237.53 C 224.17 236.48 222.98 235.97 221.93 236.39 C 220.88 236.81 220.37 238.00 220.79 239.05 Z M 221.14 239.92 L 221.56 240.94 C 221.99 241.98 223.19 242.48 224.24 242.05 C 225.28 241.62 225.78 240.42 225.34 239.37 L 224.92 238.36 C 224.49 237.31 223.29 236.82 222.25 237.25 C 221.20 237.68 220.71 238.88 221.14 239.92 Z M 221.57 240.96 L 221.99 241.95 C 222.44 242.99 223.64 243.47 224.68 243.02 C 225.72 242.58 226.20 241.37 225.76 240.34 L 225.33 239.35 C 224.89 238.31 223.68 237.83 222.65 238.28 C 221.61 238.72 221.13 239.92 221.57 240.96 Z M 222.00 241.97 L 222.41 242.89 C 222.87 243.92 224.08 244.39 225.11 243.93 C 226.14 243.48 226.61 242.27 226.15 241.24 L 225.75 240.31 C 225.29 239.28 224.08 238.81 223.05 239.27 C 222.01 239.73 221.55 240.94 222.00 241.97 Z M 222.42 242.91 L 222.81 243.78 C 223.28 244.80 224.49 245.26 225.52 244.80 C 226.55 244.33 227.00 243.12 226.54 242.09 L 226.15 241.22 C 225.68 240.19 224.47 239.73 223.44 240.20 C 222.41 240.67 221.95 241.88 222.42 242.91 Z M 222.82 243.79 L 223.20 244.61 C 223.67 245.64 224.88 246.09 225.91 245.62 C 226.94 245.15 227.39 243.93 226.91 242.91 L 226.53 242.08 C 226.06 241.05 224.85 240.60 223.82 241.07 C 222.80 241.55 222.35 242.76 222.82 243.79 Z M 223.20 244.62 L 223.59 245.46 C 224.06 246.48 225.28 246.93 226.30 246.46 C 227.33 245.99 227.77 244.77 227.30 243.75 L 226.91 242.90 C 226.44 241.88 225.23 241.43 224.20 241.91 C 223.18 242.38 222.73 243.59 223.20 244.62 Z M 223.59 245.46 L 224.00 246.34 C 224.47 247.37 225.68 247.81 226.71 247.34 C 227.73 246.87 228.18 245.65 227.71 244.63 L 227.30 243.75 C 226.83 242.72 225.61 242.28 224.59 242.75 C 223.56 243.22 223.12 244.44 223.59 245.46 Z M 224.00 246.35 L 224.41 247.23 C 224.89 248.25 226.10 248.69 227.12 248.22 C 228.15 247.74 228.59 246.53 228.11 245.50 L 227.70 244.62 C 227.23 243.60 226.01 243.16 224.99 243.63 C 223.97 244.11 223.53 245.32 224.00 246.35 Z M 224.42 247.24 L 224.84 248.14 C 225.32 249.16 226.54 249.59 227.56 249.11 C 228.58 248.63 229.01 247.41 228.53 246.39 L 228.11 245.49 C 227.63 244.48 226.41 244.04 225.39 244.52 C 224.37 245.00 223.94 246.22 224.42 247.24 Z M 224.85 248.15 L 225.30 249.09 C 225.79 250.10 227.01 250.53 228.02 250.04 C 229.04 249.55 229.46 248.33 228.98 247.32 L 228.52 246.38 C 228.04 245.36 226.82 244.94 225.80 245.43 C 224.79 245.92 224.36 247.13 224.85 248.15 Z M 225.31 249.10 L 225.76 250.01 C 226.25 251.02 227.48 251.44 228.49 250.94 C 229.50 250.44 229.91 249.22 229.41 248.21 L 228.97 247.30 C 228.47 246.29 227.25 245.88 226.24 246.37 C 225.23 246.87 224.81 248.09 225.31 249.10 Z M 225.77 250.02 L 226.22 250.92 C 226.72 251.93 227.95 252.33 228.95 251.83 C 229.96 251.32 230.36 250.10 229.86 249.10 L 229.41 248.20 C 228.90 247.19 227.68 246.79 226.67 247.29 C 225.67 247.80 225.26 249.02 225.77 250.02 Z M 226.22 250.94 L 226.69 251.85 C 227.20 252.85 228.43 253.25 229.43 252.74 C 230.43 252.22 230.83 251.00 230.32 250.00 L 229.85 249.08 C 229.34 248.08 228.11 247.68 227.11 248.20 C 226.11 248.71 225.71 249.94 226.22 250.94 Z M 226.70 251.87 L 227.18 252.77 C 227.70 253.77 228.93 254.16 229.92 253.63 C 230.92 253.11 231.30 251.88 230.78 250.89 L 230.31 249.98 C 229.79 248.98 228.56 248.60 227.56 249.12 C 226.57 249.64 226.18 250.87 226.70 251.87 Z M 227.19 252.79 L 227.66 253.67 C 228.19 254.66 229.42 255.04 230.41 254.51 C 231.40 253.98 231.77 252.74 231.24 251.75 L 230.77 250.87 C 230.24 249.88 229.01 249.51 228.02 250.04 C 227.03 250.57 226.66 251.80 227.19 252.79 Z M 227.67 253.69 L 228.14 254.55 C 228.68 255.53 229.91 255.89 230.90 255.35 C 231.88 254.81 232.24 253.57 231.70 252.59 L 231.23 251.73 C 230.69 250.75 229.46 250.39 228.47 250.93 C 227.49 251.47 227.13 252.71 227.67 253.69 Z M 228.16 254.57 L 228.68 255.50 C 229.24 256.47 230.48 256.81 231.45 256.26 C 232.43 255.70 232.77 254.46 232.21 253.49 L 231.68 252.56 C 231.13 251.59 229.89 251.25 228.91 251.80 C 227.94 252.36 227.60 253.60 228.16 254.57 Z M 228.71 255.54 L 229.23 256.40 C 229.80 257.35 231.05 257.66 232.01 257.09 C 232.97 256.51 233.28 255.27 232.70 254.31 L 232.19 253.45 C 231.61 252.49 230.36 252.18 229.40 252.76 C 228.44 253.33 228.13 254.58 228.71 255.54 Z M 229.26 256.44 L 229.78 257.26 C 230.38 258.20 231.63 258.47 232.58 257.87 C 233.52 257.27 233.79 256.02 233.19 255.07 L 232.67 254.26 C 232.07 253.32 230.81 253.04 229.87 253.65 C 228.93 254.25 228.66 255.50 229.26 256.44 Z M 229.82 257.31 L 230.36 258.10 C 230.99 259.02 232.25 259.26 233.17 258.63 C 234.09 258.00 234.33 256.74 233.70 255.82 L 233.15 255.02 C 232.52 254.10 231.27 253.87 230.34 254.50 C 229.42 255.13 229.19 256.38 229.82 257.31 Z M 230.40 258.15 L 230.97 258.93 C 231.63 259.83 232.89 260.03 233.79 259.38 C 234.69 258.72 234.89 257.46 234.23 256.56 L 233.66 255.77 C 233.00 254.87 231.74 254.67 230.84 255.33 C 229.94 255.99 229.74 257.25 230.40 258.15 Z M 231.00 258.97 L 231.60 259.76 C 232.28 260.64 233.54 260.81 234.42 260.14 C 235.31 259.46 235.48 258.20 234.80 257.32 L 234.20 256.53 C 233.53 255.64 232.27 255.47 231.38 256.15 C 230.50 256.82 230.33 258.08 231.00 258.97 Z M 231.62 259.77 L 232.24 260.57 C 232.92 261.44 234.18 261.60 235.06 260.92 C 235.93 260.24 236.09 258.98 235.41 258.10 L 234.79 257.31 C 234.11 256.43 232.85 256.27 231.97 256.95 C 231.10 257.63 230.94 258.89 231.62 259.77 Z M 232.24 260.56 L 232.86 261.36 C 233.54 262.24 234.80 262.40 235.67 261.72 C 236.55 261.04 236.70 259.78 236.03 258.91 L 235.41 258.11 C 234.73 257.23 233.47 257.07 232.60 257.75 C 231.72 258.43 231.56 259.69 232.24 260.56 Z M 232.85 261.34 L 233.45 262.14 C 234.12 263.02 235.37 263.19 236.25 262.53 C 237.13 261.86 237.31 260.61 236.64 259.73 L 236.04 258.93 C 235.37 258.05 234.12 257.88 233.24 258.54 C 232.36 259.21 232.18 260.46 232.85 261.34 Z M 233.44 262.09 L 234.04 262.92 C 234.68 263.81 235.91 264.01 236.80 263.37 C 237.69 262.74 237.89 261.50 237.25 260.61 L 236.65 259.78 C 236.02 258.89 234.78 258.69 233.89 259.33 C 233.01 259.97 232.80 261.20 233.44 262.09 Z M 234.05 262.86 L 234.62 263.69 C 235.22 264.58 236.43 264.80 237.31 264.20 C 238.19 263.60 238.42 262.39 237.81 261.51 L 237.24 260.67 C 236.64 259.79 235.44 259.57 234.55 260.17 C 233.67 260.77 233.44 261.98 234.05 262.86 Z M 234.63 263.64 L 235.18 264.47 C 235.75 265.35 236.93 265.59 237.80 265.01 C 238.68 264.44 238.92 263.26 238.34 262.39 L 237.80 261.56 C 237.22 260.69 236.05 260.44 235.17 261.02 C 234.30 261.59 234.06 262.77 234.63 263.64 Z M 235.20 264.43 L 235.73 265.26 C 236.29 266.12 237.43 266.37 238.29 265.81 C 239.15 265.26 239.40 264.12 238.85 263.26 L 238.32 262.43 C 237.77 261.57 236.62 261.32 235.76 261.87 C 234.90 262.43 234.65 263.57 235.20 264.43 Z M 235.76 265.23 L 236.06 265.70 C 236.60 266.55 237.72 266.79 238.56 266.26 C 239.41 265.72 239.66 264.59 239.12 263.75 L 238.82 263.28 C 238.29 262.43 237.16 262.18 236.32 262.72 C 235.47 263.26 235.22 264.39 235.76 265.23 Z"
      fill="black"
      fill-rule="nonzero" /></svg>