<svg xmlns="http://www.w3.org/2000/svg" width="300" height="300" viewBox="0 0 300 300">
<path d="M 212.5 71.25 L 212.5 68.75 L 212.5 67.5 L 212.5 66.25 L 211.25 68.75 L 206.25 81.25 L 198.75 100.0 L 187.5 123.75 L 175.0 142.5 L 165.0 152.5 L 161.25 157.5 L 161.25 157.5 L 162.5 157.5 L 162.5 157.5 L 163.75 157.5 L 165.0 157.5 L 166.25 158.75 L 167.5 158.75 L 168.75 161.25 L 170.0 165.0 L 175.0 173.75 L 183.75 192.5 L 196.25 218.75 L 205.0 240.0 L 208.75 246.25 L 210.0 246.25 L 210.0 246.25 L 210.0 245.0 L 207.5 240.0 L 207.5 238.75 " stroke="black" fill="none" stroke-width="6.0" stroke-linecap="round" stroke-linejoin="round" />
<path d="M 251.25 71.25 L 251.25 71.25 L 248.75 75.0 L 245.0 78.75 L 237.5 88.75 L 227.5 105.0 L 216.25 123.75 L 208.75 137.5 L 202.5 146.25 L 198.75 151.25 L 197.5 153.75 L 197.5 153.75 L 197.5 153.75 L 197.5 153.75 L 197.5 153.75 L 197.5 153.75 L 197.5 153.75 L 197.5 153.75 L 197.5 153.75 L 197.5 153.75 L 201.25 157.5 L 207.5 172.5 L 221.25 198.75 L 232.5 225.0 L 240.0 238.75 L 242.5 243.75 L 242.5 246.25 L 242.5 247.5 " stroke="black" fill="none" stroke-width="6.0" stroke-linecap="round" stroke-linejoin="round" />
</svg>