<svg xmlns="http://www.w3.org/2000/svg" width="300" height="300" viewBox="0 0 300 300">
<path d="M 202.5 75.0 L 202.5 73.75 L 202.5 73.75 L 200.0 76.25 L 195.0 91.25 L 186.25 116.25 L 176.25 140.0 L 166.25 153.75 L 161.25 161.25 L 160.0 167.5 L 160.0 170.0 L 160.0 170.0 L 160.0 170.0 L 160.0 170.0 L 160.0 170.0 L 160.0 170.0 L 161.25 170.0 L 161.25 171.25 L 162.5 172.5 L 165.0 176.25 L 170.0 183.75 L 178.75 200.0 L 188.75 223.75 L 197.5 240.0 L 201.25 246.25 L 203.75 246.25 L 203.75 246.25 L 203.75 245.0 L 203.75 240.0 " stroke="black" fill="none" stroke-width="6.0" stroke-linecap="round" stroke-linejoin="round" />
<path d="M 237.5 78.75 L 236.25 78.75 L 235.0 78.75 L 230.0 83.75 L 218.75 103.75 L 205.0 135.0 L 196.25 151.25 L 192.5 155.0 L 192.5 155.0 L 193.75 153.75 L 195.0 153.75 L 196.25 153.75 L 197.5 153.75 L 198.75 155.0 L 201.25 157.5 L 206.25 165.0 L 212.5 181.25 L 221.25 201.25 L 231.25 216.25 L 238.75 225.0 L 241.25 230.0 L 243.75 231.25 L 243.75 232.5 " stroke="black" fill="none" stroke-width="6.0" stroke-linecap="round" stroke-linejoin="round" />
</svg>