<svg xmlns="http://www.w3.org/2000/svg" width="300" height="300" viewBox="0 0 300 300">
<path d="M 196.25 85.0 L 195.0 85.0 L 192.5 85.0 L 188.75 91.25 L 178.75 111.25 L 163.75 137.5 L 152.5 151.25 L 146.25 156.25 L 143.75 160.0 L 142.5 161.25 L 142.5 161.25 L 143.75 161.25 L 146.25 162.5 L 148.75 165.0 L 156.25 175.0 L 168.75 196.25 L 187.5 226.25 L 202.5 248.75 L 207.5 253.75 L 207.5 255.0 L 207.5 250.0 L 207.5 241.25 " stroke="black" fill="none" stroke-width="6.0" stroke-linecap="round" stroke-linejoin="round" />
<path d="M 236.25 87.5 L 236.25 86.25 L 232.5 85.0 L 225.0 92.5 L 212.5 108.75 L 201.25 130.0 L 193.75 138.75 L 193.75 140.0 L 193.75 140.0 L 193.75 140.0 L 195.0 140.0 L 196.25 143.75 L 198.75 147.5 L 201.25 152.5 L 205.0 163.75 L 211.25 185.0 L 221.25 208.75 L 230.0 225.0 L 235.0 232.5 L 236.25 235.0 L 236.25 238.75 L 235.0 240.0 " stroke="black" fill="none" stroke-width="6.0" stroke-linecap="round" stroke-linejoin="round" />
</svg>