<svg xmlns="http://www.w3.org/2000/svg" width="300" height="300" viewBox="0 0 300 300">
<path d="M 206.25 81.25 L 206.25 81.25 L 206.25 78.75 L 206.25 78.75 L 206.25 78.75 L 202.5 85.0 L 193.75 102.5 L 180.0 128.75 L 167.5 148.75 L 161.25 157.5 L 158.75 161.25 L 157.5 163.75 L 157.5 165.0 L 157.5 165.0 L 157.5 165.0 L 157.5 165.0 L 157.5 165.0 L 157.5 165.0 L 157.5 165.0 L 157.5 166.25 L 158.75 168.75 L 161.25 176.25 L 168.75 191.25 L 181.25 213.75 L 193.75 236.25 L 203.75 250.0 L 207.5 255.0 L 208.75 255.0 L 208.75 255.0 L 208.75 255.0 L 207.5 252.5 L 205.0 246.25 L 202.5 242.5 " stroke="black" fill="none" stroke-width="6.0" stroke-linecap="round" stroke-linejoin="round" />
<path d="M 238.75 86.25 L 237.5 85.0 L 235.0 85.0 L 232.5 86.25 L 227.5 93.75 L 220.0 112.5 L 210.0 136.25 L 201.25 155.0 L 195.0 163.75 L 192.5 167.5 L 192.5 168.75 L 192.5 168.75 L 192.5 168.75 L 192.5 168.75 L 192.5 168.75 L 192.5 167.5 L 192.5 167.5 L 192.5 167.5 L 192.5 167.5 L 193.75 170.0 L 196.25 178.75 L 202.5 195.0 L 213.75 218.75 L 223.75 237.5 L 230.0 246.25 L 233.75 250.0 L 236.25 251.25 L 237.5 252.5 L 240.0 252.5 L 240.0 252.5 L 240.0 251.25 " stroke="black" fill="none" stroke-width="6.0" stroke-linecap="round" stroke-linejoin="round" />
</svg>