<svg xmlns="http://www.w3.org/2000/svg" width="300" height="300" viewBox="0 0 300 300">
<path d="M 207.5 71.25 L 206.25 72.5 L 202.5 78.75 L 196.25 95.0 L 185.0 118.75 L 173.75 137.5 L 166.25 147.5 L 162.5 151.25 L 162.5 152.5 L 162.5 153.75 L 162.5 155.0 L 162.5 155.0 L 162.5 155.0 L 162.5 155.0 L 162.5 155.0 L 162.5 155.0 L 162.5 155.0 L 162.5 155.0 L 162.5 157.5 L 165.0 165.0 L 173.75 185.0 L 186.25 215.0 L 197.5 240.0 L 205.0 250.0 L 207.5 252.5 L 207.5 253.75 L 207.5 253.75 L 207.5 253.75 L 207.5 253.75 L 206.25 247.5 L 205.0 246.25 " stroke="black" fill="none" stroke-width="6.0" stroke-linecap="round" stroke-linejoin="round" />
<path d="M 237.5 76.25 L 236.25 76.25 L 232.5 80.0 L 226.25 95.0 L 216.25 122.5 L 207.5 142.5 L 202.5 151.25 L 200.0 152.5 L 200.0 153.75 L 200.0 153.75 L 200.0 155.0 L 200.0 156.25 L 200.0 156.25 L 200.0 156.25 L 200.0 156.25 L 200.0 156.25 L 200.0 156.25 L 200.0 156.25 L 200.0 160.0 L 205.0 175.0 L 213.75 202.5 L 226.25 230.0 L 235.0 245.0 L 240.0 248.75 L 242.5 251.25 L 245.0 252.5 L 246.25 252.5 L 246.25 252.5 " stroke="black" fill="none" stroke-width="6.0" stroke-linecap="round" stroke-linejoin="round" />
</svg>