<svg xmlns="http://www.w3.org/2000/svg" width="300" height="300" viewBox="0 0 300 300">
<path d="M 98.75 88.75 L 97.5 88.75 L 93.75 90.0 L 97.5 90.0 L 116.25 85.0 L 142.5 71.25 L 162.5 56.25 L 171.25 47.5 L 172.5 46.25 L 168.75 46.25 L 158.75 48.75 L 150.0 51.25 L 143.75 55.0 L 138.75 57.5 L 136.25 60.0 L 136.25 61.25 L 137.5 67.5 L 141.25 81.25 L 143.75 103.75 L 145.0 122.5 L 145.0 128.75 L 145.0 128.75 L 142.5 123.75 L 138.75 117.5 L 137.5 116.25 " stroke="black" fill="none" stroke-width="6.0" stroke-linecap="round" stroke-linejoin="round" />
<path d="M 123.75 112.5 L 118.75 113.75 L 116.25 115.0 L 117.5 115.0 L 127.5 110.0 L 141.25 102.5 L 156.25 93.75 L 167.5 86.25 L 168.75 85.0 L 162.5 87.5 " stroke="black" fill="none" stroke-width="6.0" stroke-linecap="round" stroke-linejoin="round" />
<path d="M 108.75 142.5 L 103.75 145.0 L 101.25 147.5 L 107.5 146.25 L 125.0 141.25 L 147.5 127.5 L 175.0 108.75 L 192.5 95.0 L 188.75 92.5 " stroke="black" fill="none" stroke-width="6.0" stroke-linecap="round" stroke-linejoin="round" />
<path d="M 147.5 142.5 L 147.5 142.5 L 142.5 146.25 L 136.25 153.75 L 127.5 171.25 L 118.75 186.25 L 116.25 192.5 L 120.0 191.25 L 133.75 180.0 L 148.75 166.25 L 162.5 152.5 L 172.5 143.75 L 173.75 142.5 L 166.25 153.75 L 155.0 170.0 L 145.0 186.25 L 133.75 201.25 L 131.25 206.25 L 136.25 203.75 L 147.5 195.0 L 160.0 182.5 L 175.0 168.75 L 187.5 158.75 L 191.25 155.0 L 191.25 155.0 L 191.25 153.75 L 191.25 153.75 L 191.25 153.75 L 191.25 153.75 L 191.25 153.75 L 191.25 153.75 L 191.25 153.75 L 190.0 153.75 L 187.5 153.75 L 185.0 153.75 L 183.75 153.75 L 182.5 153.75 L 181.25 153.75 L 181.25 155.0 L 185.0 156.25 L 192.5 158.75 L 201.25 163.75 L 207.5 168.75 L 206.25 177.5 L 203.75 180.0 " stroke="black" fill="none" stroke-width="6.0" stroke-linecap="round" stroke-linejoin="round" />
<path d="M 166.25 190.0 L 166.25 190.0 L 166.25 188.75 L 166.25 188.75 L 166.25 190.0 L 170.0 202.5 L 173.75 222.5 L 173.75 238.75 L 172.5 243.75 L 167.5 242.5 L 158.75 237.5 L 152.5 233.75 " stroke="black" fill="none" stroke-width="6.0" stroke-linecap="round" stroke-linejoin="round" />
<path d="M 106.25 228.75 L 106.25 227.5 L 105.0 227.5 L 105.0 226.25 L 107.5 227.5 L 115.0 235.0 L 123.75 246.25 L 131.25 255.0 L 132.5 256.25 " stroke="black" fill="none" stroke-width="6.0" stroke-linecap="round" stroke-linejoin="round" />
<path d="M 201.25 198.75 L 201.25 198.75 L 201.25 202.5 L 206.25 208.75 L 213.75 218.75 L 221.25 228.75 L 225.0 233.75 L 226.25 233.75 L 226.25 233.75 L 222.5 235.0 " stroke="black" fill="none" stroke-width="6.0" stroke-linecap="round" stroke-linejoin="round" />
</svg>