<svg xmlns="http://www.w3.org/2000/svg" width="300" height="300" viewBox="0 0 300 300">
<path d="M 107.5 115.0 L 107.5 115.0 L 107.5 117.5 L 102.5 127.5 L 97.5 142.5 L 91.25 162.5 L 87.5 176.25 L 86.25 178.75 L 87.5 170.0 L 92.5 158.75 L 96.25 150.0 L 100.0 142.5 L 102.5 138.75 L 103.75 140.0 L 106.25 152.5 L 108.75 175.0 L 108.75 197.5 L 103.75 213.75 L 102.5 216.25 " stroke="black" fill="none" stroke-width="6.0" stroke-linecap="round" stroke-linejoin="round" />
<path d="M 136.25 138.75 L 135.0 140.0 L 131.25 141.25 L 132.5 141.25 L 142.5 140.0 L 162.5 128.75 L 187.5 110.0 L 202.5 96.25 L 203.75 91.25 L 200.0 91.25 L 193.75 92.5 L 188.75 92.5 L 185.0 92.5 L 180.0 92.5 L 176.25 91.25 L 173.75 88.75 L 170.0 86.25 L 168.75 83.75 L 168.75 82.5 L 168.75 82.5 L 168.75 83.75 L 168.75 90.0 L 170.0 108.75 L 173.75 151.25 L 176.25 200.0 L 178.75 232.5 L 178.75 248.75 L 177.5 253.75 L 173.75 255.0 L 166.25 252.5 L 160.0 243.75 " stroke="black" fill="none" stroke-width="6.0" stroke-linecap="round" stroke-linejoin="round" />
<path d="M 166.25 146.25 L 162.5 148.75 L 156.25 157.5 L 147.5 181.25 L 137.5 207.5 L 126.25 220.0 L 122.5 222.5 L 122.5 213.75 L 125.0 206.25 " stroke="black" fill="none" stroke-width="6.0" stroke-linecap="round" stroke-linejoin="round" />
<path d="M 163.75 147.5 L 163.75 147.5 L 167.5 147.5 L 181.25 151.25 L 205.0 163.75 L 226.25 176.25 L 241.25 183.75 L 247.5 187.5 L 247.5 190.0 L 242.5 193.75 L 235.0 195.0 " stroke="black" fill="none" stroke-width="6.0" stroke-linecap="round" stroke-linejoin="round" />
<path d="M 153.75 220.0 L 151.25 222.5 L 150.0 223.75 L 158.75 220.0 L 180.0 211.25 L 205.0 201.25 L 211.25 198.75 " stroke="black" fill="none" stroke-width="6.0" stroke-linecap="round" stroke-linejoin="round" />
</svg>