<svg xmlns="http://www.w3.org/2000/svg" width="300" height="300" viewBox="0 0 300 300">
<path d="M 98.75 125.0 L 98.75 125.0 L 97.5 126.25 L 96.25 133.75 L 95.0 147.5 L 92.5 160.0 L 91.25 166.25 L 91.25 165.0 L 95.0 160.0 L 105.0 151.25 L 112.5 147.5 L 120.0 148.75 L 121.25 161.25 L 115.0 185.0 L 106.25 201.25 L 100.0 207.5 L 97.5 203.75 L 97.5 201.25 " stroke="black" fill="none" stroke-width="6.0" stroke-linecap="round" stroke-linejoin="round" />
<path d="M 132.5 118.75 L 128.75 122.5 L 132.5 122.5 L 145.0 120.0 L 162.5 111.25 L 183.75 98.75 L 196.25 91.25 L 200.0 87.5 L 198.75 87.5 L 193.75 88.75 L 191.25 88.75 L 187.5 87.5 L 183.75 85.0 L 181.25 83.75 L 178.75 82.5 L 177.5 82.5 L 176.25 86.25 L 176.25 106.25 L 181.25 152.5 L 185.0 205.0 L 186.25 236.25 L 186.25 248.75 L 185.0 253.75 L 181.25 255.0 L 173.75 252.5 L 165.0 243.75 L 156.25 228.75 " stroke="black" fill="none" stroke-width="6.0" stroke-linecap="round" stroke-linejoin="round" />
<path d="M 173.75 148.75 L 171.25 151.25 L 160.0 166.25 L 148.75 185.0 L 136.25 203.75 L 125.0 213.75 L 121.25 215.0 L 121.25 212.5 " stroke="black" fill="none" stroke-width="6.0" stroke-linecap="round" stroke-linejoin="round" />
<path d="M 180.0 141.25 L 182.5 141.25 L 190.0 143.75 L 203.75 153.75 L 218.75 166.25 L 232.5 175.0 L 240.0 180.0 L 240.0 183.75 L 232.5 190.0 L 226.25 192.5 " stroke="black" fill="none" stroke-width="6.0" stroke-linecap="round" stroke-linejoin="round" />
<path d="M 153.75 212.5 L 152.5 212.5 L 151.25 212.5 L 157.5 210.0 L 173.75 203.75 L 192.5 198.75 L 205.0 195.0 " stroke="black" fill="none" stroke-width="6.0" stroke-linecap="round" stroke-linejoin="round" />
</svg>