<svg xmlns="http://www.w3.org/2000/svg" width="300" height="300" viewBox="0 0 300 300">
<path d="M 92.5 107.5 L 91.25 107.5 L 90.0 107.5 L 90.0 106.25 L 93.75 107.5 L 100.0 110.0 L 105.0 116.25 L 105.0 125.0 L 98.75 135.0 L 90.0 145.0 L 78.75 153.75 L 72.5 158.75 L 72.5 160.0 L 81.25 157.5 L 91.25 152.5 L 101.25 147.5 L 110.0 143.75 L 113.75 143.75 L 111.25 151.25 L 102.5 163.75 L 95.0 177.5 L 90.0 186.25 L 90.0 190.0 L 95.0 190.0 L 103.75 186.25 L 112.5 182.5 L 118.75 182.5 L 121.25 186.25 L 116.25 198.75 L 106.25 215.0 L 96.25 230.0 L 90.0 237.5 " stroke="black" fill="none" stroke-width="6.0" stroke-linecap="round" stroke-linejoin="round" />
<path d="M 57.5 207.5 L 57.5 207.5 L 56.25 207.5 L 56.25 210.0 L 65.0 223.75 L 75.0 238.75 L 81.25 247.5 L 81.25 248.75 " stroke="black" fill="none" stroke-width="6.0" stroke-linecap="round" stroke-linejoin="round" />
<path d="M 83.75 207.5 L 83.75 208.75 L 82.5 210.0 L 86.25 215.0 L 92.5 222.5 L 100.0 230.0 L 101.25 235.0 L 101.25 235.0 " stroke="black" fill="none" stroke-width="6.0" stroke-linecap="round" stroke-linejoin="round" />
<path d="M 101.25 206.25 L 101.25 206.25 L 101.25 205.0 L 101.25 205.0 L 107.5 208.75 L 120.0 218.75 L 133.75 231.25 " stroke="black" fill="none" stroke-width="6.0" stroke-linecap="round" stroke-linejoin="round" />
<path d="M 156.25 97.5 L 155.0 97.5 L 153.75 97.5 L 152.5 98.75 L 151.25 108.75 L 150.0 121.25 L 150.0 127.5 L 150.0 128.75 L 156.25 126.25 L 167.5 121.25 L 181.25 115.0 L 191.25 111.25 L 195.0 110.0 L 191.25 117.5 L 177.5 131.25 L 162.5 143.75 L 147.5 155.0 L 137.5 163.75 L 133.75 168.75 L 133.75 168.75 L 140.0 167.5 L 150.0 165.0 L 165.0 158.75 L 182.5 152.5 L 202.5 147.5 L 213.75 145.0 L 215.0 146.25 L 210.0 155.0 L 198.75 170.0 L 186.25 182.5 L 172.5 188.75 L 166.25 190.0 " stroke="black" fill="none" stroke-width="6.0" stroke-linecap="round" stroke-linejoin="round" />
<path d="M 173.75 153.75 L 173.75 153.75 L 171.25 156.25 L 170.0 165.0 L 167.5 183.75 L 163.75 197.5 L 161.25 203.75 L 161.25 203.75 L 161.25 201.25 L 165.0 197.5 L 173.75 190.0 L 182.5 183.75 L 190.0 177.5 L 192.5 176.25 L 192.5 176.25 " stroke="black" fill="none" stroke-width="6.0" stroke-linecap="round" stroke-linejoin="round" />
<path d="M 142.5 170.0 L 142.5 170.0 L 141.25 168.75 L 141.25 167.5 L 145.0 177.5 L 148.75 200.0 L 155.0 222.5 L 163.75 238.75 L 177.5 245.0 L 191.25 246.25 L 203.75 247.5 L 215.0 246.25 L 226.25 243.75 L 237.5 241.25 L 245.0 240.0 L 246.25 238.75 L 246.25 238.75 L 245.0 238.75 L 245.0 238.75 L 245.0 237.5 L 243.75 235.0 L 243.75 228.75 L 243.75 218.75 L 243.75 198.75 L 242.5 177.5 " stroke="black" fill="none" stroke-width="6.0" stroke-linecap="round" stroke-linejoin="round" />
</svg>