<svg xmlns="http://www.w3.org/2000/svg" width="300" height="300" viewBox="0 0 300 300">
<path d="M 131.25 65.0 L 131.25 63.75 L 131.25 62.5 L 135.0 65.0 L 145.0 71.25 L 156.25 77.5 L 163.75 82.5 L 161.25 87.5 L 160.0 88.75 " stroke="black" fill="none" stroke-width="6.0" stroke-linecap="round" stroke-linejoin="round" />
<path d="M 80.0 100.0 L 75.0 101.25 L 73.75 102.5 L 82.5 103.75 L 106.25 101.25 L 142.5 92.5 L 178.75 80.0 L 195.0 72.5 L 197.5 71.25 L 185.0 73.75 L 181.25 75.0 " stroke="black" fill="none" stroke-width="6.0" stroke-linecap="round" stroke-linejoin="round" />
<path d="M 120.0 111.25 L 120.0 113.75 L 118.75 120.0 L 123.75 133.75 L 131.25 146.25 L 136.25 152.5 L 136.25 152.5 L 133.75 150.0 " stroke="black" fill="none" stroke-width="6.0" stroke-linecap="round" stroke-linejoin="round" />
<path d="M 125.0 132.5 L 125.0 131.25 L 123.75 127.5 L 127.5 123.75 L 138.75 120.0 L 153.75 115.0 L 165.0 113.75 L 167.5 115.0 L 160.0 126.25 L 148.75 137.5 L 140.0 145.0 L 130.0 152.5 L 130.0 152.5 L 138.75 147.5 L 151.25 138.75 L 158.75 131.25 L 161.25 127.5 " stroke="black" fill="none" stroke-width="6.0" stroke-linecap="round" stroke-linejoin="round" />
<path d="M 91.25 161.25 L 90.0 161.25 L 88.75 163.75 L 88.75 180.0 L 92.5 212.5 L 95.0 237.5 L 96.25 247.5 L 97.5 247.5 L 97.5 238.75 " stroke="black" fill="none" stroke-width="6.0" stroke-linecap="round" stroke-linejoin="round" />
<path d="M 92.5 187.5 L 91.25 187.5 L 90.0 187.5 L 92.5 187.5 L 113.75 182.5 L 148.75 171.25 L 183.75 157.5 L 205.0 150.0 L 215.0 148.75 L 220.0 155.0 L 223.75 176.25 L 226.25 207.5 L 228.75 238.75 L 230.0 256.25 L 231.25 261.25 L 231.25 262.5 L 230.0 262.5 L 228.75 262.5 L 226.25 260.0 L 221.25 255.0 L 213.75 248.75 L 203.75 240.0 L 193.75 235.0 " stroke="black" fill="none" stroke-width="6.0" stroke-linecap="round" stroke-linejoin="round" />
<path d="M 137.5 195.0 L 136.25 195.0 L 133.75 195.0 L 132.5 195.0 L 135.0 202.5 L 140.0 211.25 L 145.0 218.75 L 145.0 221.25 " stroke="black" fill="none" stroke-width="6.0" stroke-linecap="round" stroke-linejoin="round" />
<path d="M 140.0 200.0 L 137.5 197.5 L 136.25 196.25 L 138.75 195.0 L 151.25 191.25 L 170.0 187.5 L 183.75 185.0 L 187.5 187.5 L 177.5 201.25 L 162.5 216.25 L 150.0 228.75 L 146.25 232.5 L 148.75 231.25 L 162.5 220.0 L 178.75 208.75 L 193.75 196.25 " stroke="black" fill="none" stroke-width="6.0" stroke-linecap="round" stroke-linejoin="round" />
</svg>