<svg xmlns="http://www.w3.org/2000/svg" width="300" height="300" viewBox="0 0 300 300">
<path d="M 135.0 72.5 L 135.0 72.5 L 133.75 71.25 L 133.75 71.25 L 138.75 73.75 L 147.5 78.75 L 156.25 83.75 L 161.25 87.5 L 161.25 88.75 " stroke="black" fill="none" stroke-width="6.0" stroke-linecap="round" stroke-linejoin="round" />
<path d="M 82.5 105.0 L 81.25 107.5 L 81.25 108.75 L 87.5 108.75 L 106.25 105.0 L 132.5 97.5 L 181.25 81.25 L 208.75 71.25 L 218.75 66.25 L 216.25 66.25 L 203.75 72.5 " stroke="black" fill="none" stroke-width="6.0" stroke-linecap="round" stroke-linejoin="round" />
<path d="M 116.25 122.5 L 117.5 123.75 L 118.75 125.0 L 122.5 127.5 L 128.75 133.75 L 136.25 141.25 L 142.5 146.25 L 143.75 146.25 L 142.5 145.0 L 138.75 141.25 L 128.75 135.0 L 125.0 132.5 L 125.0 131.25 L 131.25 128.75 L 146.25 123.75 L 162.5 118.75 L 172.5 116.25 L 173.75 117.5 L 163.75 126.25 L 152.5 136.25 L 142.5 145.0 L 136.25 148.75 L 136.25 148.75 L 145.0 145.0 L 156.25 137.5 L 163.75 132.5 L 165.0 130.0 " stroke="black" fill="none" stroke-width="6.0" stroke-linecap="round" stroke-linejoin="round" />
<path d="M 93.75 167.5 L 91.25 168.75 L 91.25 170.0 L 91.25 176.25 L 93.75 198.75 L 96.25 226.25 L 98.75 245.0 L 101.25 250.0 L 101.25 246.25 " stroke="black" fill="none" stroke-width="6.0" stroke-linecap="round" stroke-linejoin="round" />
<path d="M 103.75 188.75 L 103.75 188.75 L 106.25 188.75 L 112.5 186.25 L 131.25 180.0 L 160.0 167.5 L 193.75 155.0 L 213.75 148.75 L 223.75 147.5 L 228.75 155.0 L 230.0 180.0 L 230.0 211.25 L 230.0 237.5 L 231.25 251.25 L 231.25 253.75 L 231.25 253.75 L 231.25 253.75 L 231.25 251.25 L 228.75 246.25 L 223.75 237.5 L 215.0 226.25 L 207.5 218.75 " stroke="black" fill="none" stroke-width="6.0" stroke-linecap="round" stroke-linejoin="round" />
<path d="M 142.5 196.25 L 138.75 196.25 L 136.25 196.25 L 135.0 198.75 L 137.5 208.75 L 142.5 218.75 L 146.25 227.5 L 147.5 228.75 L 146.25 225.0 L 143.75 218.75 L 140.0 212.5 L 137.5 207.5 L 135.0 205.0 L 136.25 201.25 L 146.25 198.75 L 163.75 195.0 L 181.25 193.75 L 186.25 195.0 L 180.0 205.0 L 166.25 218.75 L 153.75 230.0 L 147.5 236.25 L 150.0 236.25 L 163.75 227.5 L 182.5 212.5 L 195.0 201.25 " stroke="black" fill="none" stroke-width="6.0" stroke-linecap="round" stroke-linejoin="round" />
</svg>