<svg xmlns="http://www.w3.org/2000/svg" width="300" height="300" viewBox="0 0 300 300">
<path d="M 125.0 76.25 L 125.0 76.25 L 122.5 73.75 L 125.0 72.5 L 136.25 72.5 L 147.5 76.25 L 153.75 81.25 L 153.75 86.25 L 152.5 86.25 " stroke="black" fill="none" stroke-width="6.0" stroke-linecap="round" stroke-linejoin="round" />
<path d="M 85.0 108.75 L 80.0 111.25 L 78.75 112.5 L 90.0 111.25 L 112.5 103.75 L 137.5 93.75 L 172.5 73.75 L 183.75 66.25 L 181.25 66.25 L 175.0 66.25 " stroke="black" fill="none" stroke-width="6.0" stroke-linecap="round" stroke-linejoin="round" />
<path d="M 125.0 113.75 L 121.25 118.75 L 121.25 127.5 L 125.0 142.5 L 128.75 155.0 L 131.25 160.0 L 131.25 158.75 L 131.25 151.25 L 128.75 143.75 L 125.0 138.75 L 122.5 135.0 L 121.25 132.5 L 121.25 130.0 L 130.0 127.5 L 145.0 121.25 L 156.25 117.5 L 160.0 117.5 L 156.25 126.25 L 146.25 137.5 L 136.25 146.25 L 130.0 151.25 L 131.25 150.0 L 142.5 142.5 L 155.0 133.75 L 163.75 125.0 L 165.0 122.5 " stroke="black" fill="none" stroke-width="6.0" stroke-linecap="round" stroke-linejoin="round" />
<path d="M 96.25 176.25 L 95.0 176.25 L 92.5 173.75 L 91.25 173.75 L 91.25 186.25 L 96.25 208.75 L 101.25 227.5 L 106.25 237.5 L 107.5 236.25 L 107.5 227.5 L 107.5 220.0 " stroke="black" fill="none" stroke-width="6.0" stroke-linecap="round" stroke-linejoin="round" />
<path d="M 102.5 191.25 L 102.5 191.25 L 100.0 190.0 L 100.0 188.75 L 106.25 187.5 L 135.0 173.75 L 163.75 157.5 L 188.75 145.0 L 201.25 141.25 L 205.0 140.0 L 206.25 150.0 L 206.25 171.25 L 206.25 201.25 L 208.75 228.75 L 210.0 246.25 L 211.25 253.75 L 211.25 253.75 L 211.25 253.75 L 210.0 251.25 L 206.25 245.0 L 200.0 235.0 L 191.25 223.75 L 185.0 218.75 " stroke="black" fill="none" stroke-width="6.0" stroke-linecap="round" stroke-linejoin="round" />
<path d="M 136.25 193.75 L 135.0 193.75 L 133.75 193.75 L 133.75 196.25 L 140.0 205.0 L 146.25 215.0 L 150.0 220.0 L 151.25 221.25 L 150.0 215.0 L 147.5 208.75 L 145.0 201.25 L 141.25 196.25 L 140.0 193.75 L 138.75 192.5 L 146.25 190.0 L 158.75 187.5 L 171.25 187.5 L 176.25 188.75 L 172.5 197.5 L 162.5 207.5 L 151.25 216.25 L 146.25 221.25 L 147.5 221.25 L 157.5 216.25 L 171.25 206.25 L 185.0 196.25 " stroke="black" fill="none" stroke-width="6.0" stroke-linecap="round" stroke-linejoin="round" />
</svg>