<svg xmlns="http://www.w3.org/2000/svg" width="300" height="300" viewBox="0 0 300 300">
<path d="M 77.5 125.0 L 77.5 125.0 L 80.0 125.0 L 88.75 123.75 L 102.5 121.25 L 112.5 120.0 L 113.75 120.0 L 112.5 121.25 " stroke="black" fill="none" stroke-width="6.0" stroke-linecap="round" stroke-linejoin="round" />
<path d="M 80.0 171.25 L 76.25 176.25 L 78.75 176.25 L 87.5 171.25 L 98.75 163.75 L 107.5 155.0 L 111.25 150.0 L 108.75 150.0 " stroke="black" fill="none" stroke-width="6.0" stroke-linecap="round" stroke-linejoin="round" />
<path d="M 78.75 227.5 L 75.0 232.5 L 77.5 231.25 L 87.5 221.25 L 96.25 210.0 L 108.75 190.0 L 111.25 186.25 " stroke="black" fill="none" stroke-width="6.0" stroke-linecap="round" stroke-linejoin="round" />
<path d="M 141.25 133.75 L 137.5 136.25 L 138.75 136.25 L 148.75 133.75 L 166.25 125.0 L 185.0 113.75 L 197.5 103.75 L 198.75 101.25 L 196.25 101.25 " stroke="black" fill="none" stroke-width="6.0" stroke-linecap="round" stroke-linejoin="round" />
<path d="M 162.5 128.75 L 161.25 130.0 L 161.25 132.5 L 163.75 141.25 L 168.75 158.75 L 170.0 183.75 L 163.75 202.5 L 156.25 212.5 L 148.75 217.5 L 141.25 220.0 L 136.25 222.5 L 133.75 222.5 L 132.5 222.5 L 131.25 222.5 L 131.25 222.5 L 130.0 222.5 L 130.0 222.5 L 130.0 222.5 L 130.0 222.5 L 130.0 222.5 L 130.0 222.5 L 130.0 222.5 L 130.0 222.5 L 132.5 222.5 L 140.0 220.0 L 156.25 217.5 L 183.75 213.75 L 208.75 210.0 L 222.5 207.5 L 228.75 207.5 L 230.0 207.5 L 230.0 207.5 L 226.25 207.5 L 223.75 207.5 " stroke="black" fill="none" stroke-width="6.0" stroke-linecap="round" stroke-linejoin="round" />
</svg>