<svg xmlns="http://www.w3.org/2000/svg" width="300" height="300" viewBox="0 0 300 300">
<path d="M 106.25 83.75 L 100.0 88.75 L 97.5 90.0 L 106.25 90.0 L 126.25 90.0 L 147.5 87.5 L 163.75 83.75 L 167.5 83.75 L 158.75 88.75 L 141.25 101.25 L 118.75 117.5 L 102.5 132.5 L 95.0 141.25 L 95.0 141.25 L 98.75 140.0 L 103.75 136.25 L 107.5 133.75 L 111.25 133.75 L 112.5 135.0 L 112.5 143.75 L 112.5 176.25 L 113.75 217.5 L 117.5 241.25 L 118.75 242.5 L 118.75 241.25 " stroke="black" fill="none" stroke-width="6.0" stroke-linecap="round" stroke-linejoin="round" />
<path d="M 115.0 145.0 L 115.0 145.0 L 113.75 143.75 L 118.75 141.25 L 136.25 133.75 L 160.0 126.25 L 185.0 123.75 L 197.5 140.0 L 201.25 171.25 L 197.5 205.0 L 193.75 222.5 L 190.0 233.75 L 190.0 235.0 L 190.0 232.5 L 188.75 223.75 L 187.5 218.75 " stroke="black" fill="none" stroke-width="6.0" stroke-linecap="round" stroke-linejoin="round" />
<path d="M 135.0 188.75 L 130.0 188.75 L 130.0 188.75 L 140.0 187.5 L 160.0 177.5 L 182.5 165.0 L 195.0 155.0 L 195.0 153.75 " stroke="black" fill="none" stroke-width="6.0" stroke-linecap="round" stroke-linejoin="round" />
<path d="M 132.5 232.5 L 131.25 235.0 L 128.75 245.0 L 137.5 245.0 L 156.25 237.5 L 182.5 222.5 L 193.75 213.75 " stroke="black" fill="none" stroke-width="6.0" stroke-linecap="round" stroke-linejoin="round" />
</svg>