<svg xmlns="http://www.w3.org/2000/svg" width="300" height="300" viewBox="0 0 300 300">
<path d="M 125.0 83.75 L 122.5 83.75 L 118.75 85.0 L 120.0 85.0 L 132.5 85.0 L 152.5 83.75 L 176.25 81.25 L 191.25 80.0 L 193.75 78.75 L 178.75 86.25 L 156.25 101.25 L 133.75 117.5 L 112.5 128.75 L 108.75 131.25 " stroke="black" fill="none" stroke-width="6.0" stroke-linecap="round" stroke-linejoin="round" />
<path d="M 121.25 127.5 L 120.0 128.75 L 116.25 130.0 L 115.0 142.5 L 116.25 177.5 L 117.5 210.0 L 118.75 228.75 L 118.75 237.5 L 118.75 237.5 " stroke="black" fill="none" stroke-width="6.0" stroke-linecap="round" stroke-linejoin="round" />
<path d="M 111.25 140.0 L 111.25 140.0 L 110.0 138.75 L 111.25 137.5 L 123.75 135.0 L 147.5 133.75 L 171.25 133.75 L 190.0 145.0 L 197.5 168.75 L 196.25 197.5 L 192.5 216.25 L 187.5 230.0 L 183.75 235.0 L 176.25 235.0 L 175.0 233.75 " stroke="black" fill="none" stroke-width="6.0" stroke-linecap="round" stroke-linejoin="round" />
<path d="M 122.5 185.0 L 117.5 185.0 L 112.5 186.25 L 117.5 186.25 L 135.0 185.0 L 156.25 177.5 L 176.25 170.0 L 183.75 166.25 " stroke="black" fill="none" stroke-width="6.0" stroke-linecap="round" stroke-linejoin="round" />
<path d="M 127.5 231.25 L 122.5 238.75 L 127.5 241.25 L 145.0 238.75 L 171.25 227.5 L 186.25 221.25 " stroke="black" fill="none" stroke-width="6.0" stroke-linecap="round" stroke-linejoin="round" />
</svg>