<svg xmlns="http://www.w3.org/2000/svg" width="300" height="300" viewBox="0 0 300 300">
<path d="M 98.75 112.5 L 96.25 117.5 L 96.25 121.25 L 107.5 122.5 L 136.25 116.25 L 166.25 105.0 L 185.0 96.25 L 187.5 93.75 L 183.75 93.75 " stroke="black" fill="none" stroke-width="6.0" stroke-linecap="round" stroke-linejoin="round" />
<path d="M 105.0 127.5 L 100.0 138.75 L 98.75 161.25 L 98.75 195.0 L 98.75 210.0 L 98.75 212.5 L 98.75 210.0 L 103.75 201.25 L 110.0 187.5 L 117.5 172.5 L 125.0 160.0 L 131.25 157.5 L 132.5 173.75 L 128.75 198.75 L 120.0 215.0 L 113.75 220.0 L 112.5 216.25 " stroke="black" fill="none" stroke-width="6.0" stroke-linecap="round" stroke-linejoin="round" />
<path d="M 148.75 83.75 L 148.75 83.75 L 152.5 92.5 L 170.0 131.25 L 192.5 181.25 L 207.5 215.0 L 221.25 236.25 L 230.0 242.5 L 232.5 243.75 L 232.5 243.75 L 232.5 241.25 L 232.5 231.25 L 231.25 211.25 L 226.25 190.0 L 225.0 183.75 L 213.75 152.5 " stroke="black" fill="none" stroke-width="6.0" stroke-linecap="round" stroke-linejoin="round" />
<path d="M 216.25 130.0 L 212.5 136.25 L 205.0 150.0 L 186.25 180.0 L 163.75 208.75 L 143.75 226.25 L 130.0 230.0 " stroke="black" fill="none" stroke-width="6.0" stroke-linecap="round" stroke-linejoin="round" />
<path d="M 186.25 76.25 L 187.5 75.0 L 191.25 72.5 L 201.25 72.5 L 212.5 81.25 L 222.5 98.75 L 225.0 110.0 " stroke="black" fill="none" stroke-width="6.0" stroke-linecap="round" stroke-linejoin="round" />
</svg>