<svg xmlns="http://www.w3.org/2000/svg" width="300" height="300" viewBox="0 0 300 300">
<path d="M 103.75 116.25 L 102.5 117.5 L 97.5 120.0 L 98.75 122.5 L 115.0 122.5 L 138.75 118.75 L 165.0 108.75 L 183.75 100.0 L 181.25 98.75 L 173.75 101.25 " stroke="black" fill="none" stroke-width="6.0" stroke-linecap="round" stroke-linejoin="round" />
<path d="M 102.5 125.0 L 100.0 126.25 L 95.0 131.25 L 95.0 147.5 L 100.0 183.75 L 101.25 206.25 L 102.5 220.0 L 102.5 218.75 L 102.5 216.25 L 105.0 208.75 L 108.75 195.0 L 115.0 181.25 L 123.75 167.5 L 135.0 158.75 L 141.25 162.5 L 142.5 181.25 L 137.5 200.0 L 128.75 213.75 L 122.5 220.0 L 118.75 215.0 L 118.75 208.75 " stroke="black" fill="none" stroke-width="6.0" stroke-linecap="round" stroke-linejoin="round" />
<path d="M 152.5 90.0 L 152.5 90.0 L 152.5 90.0 L 157.5 106.25 L 175.0 155.0 L 193.75 202.5 L 205.0 226.25 L 215.0 243.75 L 223.75 251.25 L 226.25 252.5 L 227.5 251.25 L 227.5 251.25 L 228.75 248.75 L 228.75 246.25 L 227.5 242.5 L 223.75 233.75 L 218.75 217.5 L 213.75 191.25 L 212.5 183.75 " stroke="black" fill="none" stroke-width="6.0" stroke-linecap="round" stroke-linejoin="round" />
<path d="M 212.5 146.25 L 207.5 151.25 L 196.25 166.25 L 181.25 191.25 L 162.5 213.75 L 150.0 222.5 L 147.5 223.75 " stroke="black" fill="none" stroke-width="6.0" stroke-linecap="round" stroke-linejoin="round" />
<path d="M 210.0 67.5 L 210.0 66.25 L 208.75 66.25 L 210.0 68.75 L 215.0 80.0 L 222.5 96.25 L 223.75 100.0 " stroke="black" fill="none" stroke-width="6.0" stroke-linecap="round" stroke-linejoin="round" />
</svg>