<svg xmlns="http://www.w3.org/2000/svg" width="300" height="300" viewBox="0 0 300 300">
<path d="M 126.25 70.0 L 122.5 70.0 L 121.25 70.0 L 127.5 70.0 L 140.0 71.25 L 147.5 73.75 L 150.0 77.5 " stroke="black" fill="none" stroke-width="6.0" stroke-linecap="round" stroke-linejoin="round" />
<path d="M 101.25 105.0 L 101.25 106.25 L 102.5 107.5 L 110.0 115.0 L 122.5 128.75 L 128.75 138.75 L 128.75 142.5 L 123.75 141.25 L 118.75 136.25 L 113.75 132.5 L 110.0 128.75 L 108.75 123.75 L 112.5 118.75 L 127.5 110.0 L 148.75 100.0 L 170.0 92.5 L 182.5 90.0 L 182.5 93.75 L 173.75 103.75 L 161.25 117.5 L 148.75 130.0 L 142.5 135.0 " stroke="black" fill="none" stroke-width="6.0" stroke-linecap="round" stroke-linejoin="round" />
<path d="M 111.25 167.5 L 111.25 170.0 L 111.25 170.0 L 122.5 166.25 L 140.0 153.75 L 160.0 137.5 L 173.75 126.25 L 176.25 122.5 L 166.25 127.5 L 157.5 135.0 " stroke="black" fill="none" stroke-width="6.0" stroke-linecap="round" stroke-linejoin="round" />
<path d="M 113.75 198.75 L 112.5 200.0 L 112.5 200.0 L 121.25 196.25 L 140.0 183.75 L 158.75 165.0 L 168.75 153.75 L 166.25 152.5 L 158.75 156.25 " stroke="black" fill="none" stroke-width="6.0" stroke-linecap="round" stroke-linejoin="round" />
<path d="M 106.25 222.5 L 105.0 226.25 L 103.75 227.5 L 117.5 221.25 L 142.5 206.25 L 172.5 183.75 L 191.25 166.25 L 196.25 155.0 L 192.5 151.25 " stroke="black" fill="none" stroke-width="6.0" stroke-linecap="round" stroke-linejoin="round" />
<path d="M 141.25 125.0 L 141.25 125.0 L 141.25 126.25 L 143.75 140.0 L 150.0 181.25 L 152.5 223.75 L 147.5 247.5 L 142.5 256.25 L 133.75 258.75 L 126.25 257.5 L 122.5 250.0 " stroke="black" fill="none" stroke-width="6.0" stroke-linecap="round" stroke-linejoin="round" />
<path d="M 157.5 190.0 L 158.75 190.0 L 158.75 190.0 L 161.25 190.0 L 170.0 192.5 L 180.0 200.0 L 188.75 207.5 L 195.0 215.0 L 198.75 223.75 L 202.5 235.0 L 208.75 245.0 L 217.5 253.75 L 227.5 257.5 L 240.0 261.25 L 250.0 265.0 L 250.0 266.25 " stroke="black" fill="none" stroke-width="6.0" stroke-linecap="round" stroke-linejoin="round" />
</svg>