<svg xmlns="http://www.w3.org/2000/svg" width="300" height="300" viewBox="0 0 300 300">
<path d="M 118.75 96.25 L 118.75 96.25 L 118.75 96.25 L 122.5 96.25 L 137.5 95.0 L 156.25 92.5 L 166.25 90.0 L 166.25 88.75 L 160.0 90.0 " stroke="black" fill="none" stroke-width="6.0" stroke-linecap="round" stroke-linejoin="round" />
<path d="M 126.25 121.25 L 122.5 132.5 L 121.25 155.0 L 121.25 185.0 L 126.25 201.25 L 131.25 202.5 L 131.25 198.75 " stroke="black" fill="none" stroke-width="6.0" stroke-linecap="round" stroke-linejoin="round" />
<path d="M 126.25 137.5 L 123.75 135.0 L 123.75 131.25 L 136.25 126.25 L 152.5 120.0 L 171.25 115.0 L 185.0 117.5 L 188.75 132.5 L 190.0 163.75 L 190.0 205.0 L 190.0 233.75 L 190.0 248.75 L 188.75 250.0 L 186.25 242.5 L 180.0 230.0 L 175.0 218.75 " stroke="black" fill="none" stroke-width="6.0" stroke-linecap="round" stroke-linejoin="round" />
<path d="M 131.25 156.25 L 131.25 156.25 L 128.75 156.25 L 128.75 155.0 L 141.25 148.75 L 158.75 141.25 L 175.0 135.0 L 180.0 133.75 L 168.75 138.75 " stroke="black" fill="none" stroke-width="6.0" stroke-linecap="round" stroke-linejoin="round" />
<path d="M 130.0 173.75 L 128.75 175.0 L 128.75 176.25 L 135.0 175.0 L 151.25 167.5 L 171.25 156.25 L 183.75 150.0 L 181.25 150.0 L 177.5 151.25 " stroke="black" fill="none" stroke-width="6.0" stroke-linecap="round" stroke-linejoin="round" />
<path d="M 92.5 222.5 L 85.0 232.5 L 83.75 233.75 L 93.75 230.0 L 120.0 218.75 L 153.75 205.0 L 187.5 192.5 L 198.75 186.25 " stroke="black" fill="none" stroke-width="6.0" stroke-linecap="round" stroke-linejoin="round" />
<path d="M 238.75 116.25 L 237.5 116.25 L 233.75 118.75 L 215.0 145.0 L 185.0 195.0 L 145.0 238.75 L 105.0 270.0 L 85.0 283.75 " stroke="black" fill="none" stroke-width="6.0" stroke-linecap="round" stroke-linejoin="round" />
</svg>