<svg xmlns="http://www.w3.org/2000/svg" width="300" height="300" viewBox="0 0 300 300">
<path d="M 127.5 65.0 L 127.5 65.0 L 126.25 65.0 L 132.5 65.0 L 145.0 66.25 L 158.75 67.5 L 166.25 67.5 L 166.25 68.75 " stroke="black" fill="none" stroke-width="6.0" stroke-linecap="round" stroke-linejoin="round" />
<path d="M 92.5 91.25 L 92.5 92.5 L 90.0 95.0 L 91.25 97.5 L 95.0 103.75 L 100.0 110.0 L 102.5 115.0 L 102.5 116.25 L 101.25 115.0 " stroke="black" fill="none" stroke-width="6.0" stroke-linecap="round" stroke-linejoin="round" />
<path d="M 96.25 103.75 L 95.0 102.5 L 95.0 102.5 L 95.0 100.0 L 108.75 95.0 L 138.75 86.25 L 171.25 80.0 L 192.5 78.75 L 195.0 81.25 L 188.75 87.5 L 175.0 98.75 L 158.75 108.75 L 152.5 111.25 " stroke="black" fill="none" stroke-width="6.0" stroke-linecap="round" stroke-linejoin="round" />
<path d="M 131.25 116.25 L 130.0 118.75 L 127.5 122.5 L 127.5 132.5 L 128.75 148.75 L 132.5 162.5 L 132.5 165.0 L 132.5 163.75 " stroke="black" fill="none" stroke-width="6.0" stroke-linecap="round" stroke-linejoin="round" />
<path d="M 126.25 130.0 L 125.0 127.5 L 123.75 125.0 L 130.0 121.25 L 145.0 118.75 L 162.5 117.5 L 173.75 120.0 L 175.0 126.25 L 166.25 137.5 L 153.75 148.75 L 145.0 153.75 L 136.25 155.0 L 133.75 155.0 " stroke="black" fill="none" stroke-width="6.0" stroke-linecap="round" stroke-linejoin="round" />
<path d="M 130.0 141.25 L 130.0 141.25 L 130.0 140.0 L 135.0 137.5 L 146.25 133.75 L 160.0 130.0 L 168.75 126.25 L 163.75 128.75 L 162.5 131.25 " stroke="black" fill="none" stroke-width="6.0" stroke-linecap="round" stroke-linejoin="round" />
<path d="M 128.75 163.75 L 127.5 166.25 L 128.75 166.25 L 138.75 161.25 L 152.5 152.5 L 166.25 143.75 L 171.25 140.0 L 167.5 141.25 L 158.75 147.5 L 151.25 157.5 L 147.5 175.0 L 150.0 198.75 L 158.75 217.5 L 171.25 223.75 L 186.25 225.0 L 196.25 225.0 L 200.0 225.0 L 200.0 225.0 " stroke="black" fill="none" stroke-width="6.0" stroke-linecap="round" stroke-linejoin="round" />
<path d="M 181.25 157.5 L 181.25 158.75 L 181.25 165.0 L 180.0 183.75 L 171.25 212.5 L 161.25 231.25 L 143.75 251.25 L 128.75 253.75 L 116.25 252.5 " stroke="black" fill="none" stroke-width="6.0" stroke-linecap="round" stroke-linejoin="round" />
<path d="M 77.5 193.75 L 73.75 193.75 L 77.5 191.25 L 96.25 187.5 L 131.25 183.75 L 171.25 178.75 L 205.0 173.75 L 222.5 171.25 L 231.25 168.75 L 231.25 167.5 " stroke="black" fill="none" stroke-width="6.0" stroke-linecap="round" stroke-linejoin="round" />
</svg>