<svg xmlns="http://www.w3.org/2000/svg" width="300" height="300" viewBox="0 0 300 300">
<path d="M 141.25 60.0 L 138.75 61.25 L 137.5 62.5 L 140.0 62.5 L 147.5 62.5 L 157.5 62.5 L 163.75 63.75 L 163.75 66.25 " stroke="black" fill="none" stroke-width="6.0" stroke-linecap="round" stroke-linejoin="round" />
<path d="M 88.75 86.25 L 87.5 86.25 L 85.0 85.0 L 83.75 87.5 L 86.25 98.75 L 88.75 120.0 L 92.5 136.25 L 92.5 138.75 L 92.5 138.75 " stroke="black" fill="none" stroke-width="6.0" stroke-linecap="round" stroke-linejoin="round" />
<path d="M 87.5 102.5 L 86.25 101.25 L 85.0 100.0 L 87.5 98.75 L 107.5 95.0 L 146.25 85.0 L 186.25 78.75 L 203.75 78.75 L 202.5 85.0 L 191.25 96.25 L 173.75 108.75 L 155.0 118.75 L 142.5 125.0 " stroke="black" fill="none" stroke-width="6.0" stroke-linecap="round" stroke-linejoin="round" />
<path d="M 118.75 122.5 L 120.0 122.5 L 120.0 121.25 L 120.0 130.0 L 120.0 148.75 L 123.75 170.0 L 127.5 181.25 L 127.5 185.0 L 126.25 181.25 " stroke="black" fill="none" stroke-width="6.0" stroke-linecap="round" stroke-linejoin="round" />
<path d="M 117.5 138.75 L 118.75 136.25 L 120.0 133.75 L 126.25 131.25 L 140.0 127.5 L 157.5 127.5 L 166.25 136.25 L 167.5 148.75 L 157.5 162.5 L 147.5 173.75 L 136.25 178.75 L 128.75 178.75 " stroke="black" fill="none" stroke-width="6.0" stroke-linecap="round" stroke-linejoin="round" />
<path d="M 123.75 157.5 L 125.0 157.5 L 126.25 157.5 L 127.5 156.25 L 136.25 151.25 L 147.5 143.75 L 160.0 137.5 L 162.5 136.25 L 155.0 141.25 " stroke="black" fill="none" stroke-width="6.0" stroke-linecap="round" stroke-linejoin="round" />
<path d="M 126.25 180.0 L 122.5 186.25 L 118.75 191.25 L 121.25 190.0 L 135.0 182.5 L 151.25 168.75 L 163.75 156.25 L 168.75 151.25 L 165.0 152.5 L 158.75 157.5 L 155.0 161.25 L 153.75 163.75 L 152.5 167.5 L 152.5 178.75 L 152.5 201.25 L 152.5 231.25 L 157.5 248.75 L 168.75 252.5 L 185.0 251.25 L 197.5 248.75 L 203.75 243.75 L 203.75 237.5 L 198.75 232.5 L 197.5 230.0 " stroke="black" fill="none" stroke-width="6.0" stroke-linecap="round" stroke-linejoin="round" />
<path d="M 182.5 157.5 L 183.75 158.75 L 185.0 161.25 L 185.0 175.0 L 180.0 203.75 L 171.25 233.75 L 160.0 251.25 L 146.25 260.0 L 130.0 263.75 L 125.0 263.75 " stroke="black" fill="none" stroke-width="6.0" stroke-linecap="round" stroke-linejoin="round" />
<path d="M 88.75 228.75 L 88.75 227.5 L 85.0 226.25 L 83.75 225.0 L 91.25 223.75 L 115.0 216.25 L 153.75 203.75 L 188.75 192.5 L 207.5 187.5 L 211.25 187.5 L 210.0 190.0 " stroke="black" fill="none" stroke-width="6.0" stroke-linecap="round" stroke-linejoin="round" />
</svg>