<svg xmlns="http://www.w3.org/2000/svg" width="300" height="300" viewBox="0 0 300 300">
<path d="M 133.75 85.0 L 132.5 83.75 L 131.25 82.5 L 131.25 82.5 L 137.5 83.75 L 150.0 87.5 L 167.5 92.5 L 183.75 96.25 L 188.75 97.5 " stroke="black" fill="none" stroke-width="6.0" stroke-linecap="round" stroke-linejoin="round" />
<path d="M 103.75 138.75 L 103.75 138.75 L 102.5 141.25 L 105.0 141.25 L 118.75 141.25 L 142.5 136.25 L 170.0 125.0 L 192.5 113.75 L 200.0 108.75 L 198.75 108.75 " stroke="black" fill="none" stroke-width="6.0" stroke-linecap="round" stroke-linejoin="round" />
<path d="M 107.5 203.75 L 106.25 206.25 L 105.0 207.5 L 110.0 207.5 L 128.75 201.25 L 155.0 190.0 L 181.25 178.75 L 195.0 171.25 L 196.25 167.5 L 187.5 166.25 " stroke="black" fill="none" stroke-width="6.0" stroke-linecap="round" stroke-linejoin="round" />
<path d="M 148.75 151.25 L 148.75 151.25 L 148.75 150.0 L 148.75 150.0 L 151.25 161.25 L 156.25 188.75 L 156.25 217.5 L 155.0 232.5 L 150.0 240.0 L 143.75 241.25 L 137.5 242.5 L 131.25 243.75 L 123.75 243.75 L 120.0 243.75 L 117.5 243.75 L 117.5 243.75 L 117.5 243.75 L 118.75 243.75 L 122.5 243.75 L 128.75 242.5 L 133.75 241.25 L 140.0 241.25 L 147.5 241.25 L 158.75 241.25 L 175.0 240.0 L 196.25 237.5 L 216.25 235.0 L 228.75 233.75 L 232.5 232.5 L 232.5 232.5 L 228.75 232.5 L 223.75 231.25 " stroke="black" fill="none" stroke-width="6.0" stroke-linecap="round" stroke-linejoin="round" />
</svg>