<svg xmlns="http://www.w3.org/2000/svg" width="300" height="300" viewBox="0 0 300 300">
<path d="M 98.75 78.75 L 92.5 78.75 L 92.5 78.75 L 103.75 78.75 L 127.5 78.75 L 155.0 71.25 L 177.5 60.0 L 183.75 52.5 L 172.5 51.25 " stroke="black" fill="none" stroke-width="6.0" stroke-linecap="round" stroke-linejoin="round" />
<path d="M 136.25 53.75 L 135.0 55.0 L 130.0 57.5 L 128.75 63.75 L 130.0 78.75 L 133.75 96.25 L 137.5 103.75 L 138.75 103.75 " stroke="black" fill="none" stroke-width="6.0" stroke-linecap="round" stroke-linejoin="round" />
<path d="M 181.25 46.25 L 180.0 47.5 L 175.0 55.0 L 165.0 73.75 L 152.5 93.75 L 145.0 102.5 " stroke="black" fill="none" stroke-width="6.0" stroke-linecap="round" stroke-linejoin="round" />
<path d="M 87.5 143.75 L 80.0 148.75 L 78.75 150.0 L 88.75 150.0 L 106.25 145.0 L 135.0 131.25 L 162.5 113.75 L 172.5 103.75 L 168.75 102.5 L 158.75 106.25 " stroke="black" fill="none" stroke-width="6.0" stroke-linecap="round" stroke-linejoin="round" />
<path d="M 107.5 133.75 L 103.75 137.5 L 98.75 151.25 L 98.75 190.0 L 102.5 227.5 L 105.0 242.5 L 110.0 245.0 L 111.25 233.75 " stroke="black" fill="none" stroke-width="6.0" stroke-linecap="round" stroke-linejoin="round" />
<path d="M 147.5 115.0 L 148.75 115.0 L 152.5 125.0 L 163.75 162.5 L 181.25 202.5 L 197.5 223.75 L 210.0 237.5 L 220.0 241.25 L 223.75 241.25 L 225.0 240.0 L 225.0 238.75 L 222.5 233.75 L 217.5 225.0 L 212.5 211.25 L 208.75 195.0 L 205.0 167.5 L 203.75 147.5 " stroke="black" fill="none" stroke-width="6.0" stroke-linecap="round" stroke-linejoin="round" />
<path d="M 198.75 135.0 L 195.0 137.5 L 183.75 147.5 L 168.75 163.75 L 151.25 186.25 L 141.25 195.0 " stroke="black" fill="none" stroke-width="6.0" stroke-linecap="round" stroke-linejoin="round" />
<path d="M 191.25 91.25 L 190.0 91.25 L 188.75 91.25 L 188.75 93.75 L 192.5 98.75 L 197.5 106.25 L 202.5 116.25 L 202.5 118.75 " stroke="black" fill="none" stroke-width="6.0" stroke-linecap="round" stroke-linejoin="round" />
</svg>