<svg xmlns="http://www.w3.org/2000/svg" width="300" height="300" viewBox="0 0 300 300">
<path d="M 86.25 115.0 L 86.25 122.5 L 85.0 138.75 L 87.5 167.5 L 88.75 191.25 L 90.0 196.25 L 90.0 195.0 L 90.0 193.75 " stroke="black" fill="none" stroke-width="6.0" stroke-linecap="round" stroke-linejoin="round" />
<path d="M 86.25 138.75 L 86.25 137.5 L 85.0 135.0 L 85.0 130.0 L 90.0 123.75 L 97.5 118.75 L 107.5 116.25 L 117.5 123.75 L 123.75 141.25 L 123.75 163.75 L 122.5 182.5 L 118.75 190.0 L 115.0 191.25 L 111.25 188.75 " stroke="black" fill="none" stroke-width="6.0" stroke-linecap="round" stroke-linejoin="round" />
<path d="M 86.25 163.75 L 86.25 163.75 L 83.75 165.0 L 83.75 165.0 L 87.5 163.75 L 96.25 157.5 L 106.25 151.25 L 112.5 146.25 " stroke="black" fill="none" stroke-width="6.0" stroke-linecap="round" stroke-linejoin="round" />
<path d="M 95.0 196.25 L 92.5 202.5 L 93.75 203.75 L 106.25 196.25 L 125.0 180.0 L 133.75 170.0 " stroke="black" fill="none" stroke-width="6.0" stroke-linecap="round" stroke-linejoin="round" />
<path d="M 156.25 100.0 L 156.25 100.0 L 156.25 101.25 L 158.75 128.75 L 158.75 178.75 L 152.5 213.75 L 148.75 228.75 L 145.0 232.5 L 143.75 227.5 " stroke="black" fill="none" stroke-width="6.0" stroke-linecap="round" stroke-linejoin="round" />
<path d="M 157.5 102.5 L 157.5 101.25 L 158.75 98.75 L 168.75 93.75 L 181.25 90.0 L 200.0 85.0 L 208.75 87.5 L 212.5 110.0 L 213.75 151.25 L 216.25 197.5 L 220.0 225.0 L 222.5 237.5 L 222.5 240.0 L 222.5 240.0 L 217.5 235.0 L 211.25 223.75 L 202.5 207.5 L 195.0 193.75 " stroke="black" fill="none" stroke-width="6.0" stroke-linecap="round" stroke-linejoin="round" />
<path d="M 153.75 157.5 L 151.25 158.75 L 150.0 158.75 L 157.5 157.5 L 173.75 150.0 L 193.75 141.25 L 205.0 135.0 L 203.75 133.75 " stroke="black" fill="none" stroke-width="6.0" stroke-linecap="round" stroke-linejoin="round" />
<path d="M 158.75 185.0 L 157.5 188.75 L 162.5 190.0 L 182.5 183.75 L 202.5 167.5 L 215.0 150.0 " stroke="black" fill="none" stroke-width="6.0" stroke-linecap="round" stroke-linejoin="round" />
</svg>