<svg xmlns="http://www.w3.org/2000/svg" width="300" height="300" viewBox="0 0 300 300">
<path d="M 103.75 87.5 L 103.75 88.75 L 102.5 88.75 L 107.5 88.75 L 128.75 83.75 L 156.25 71.25 L 176.25 58.75 L 180.0 52.5 L 171.25 52.5 L 160.0 53.75 L 152.5 53.75 L 146.25 55.0 L 142.5 57.5 L 142.5 61.25 L 142.5 70.0 L 142.5 90.0 L 142.5 113.75 L 142.5 131.25 L 137.5 135.0 L 137.5 135.0 " stroke="black" fill="none" stroke-width="6.0" stroke-linecap="round" stroke-linejoin="round" />
<path d="M 122.5 111.25 L 120.0 111.25 L 117.5 111.25 L 117.5 111.25 L 127.5 111.25 L 143.75 103.75 L 158.75 96.25 L 166.25 90.0 L 163.75 90.0 " stroke="black" fill="none" stroke-width="6.0" stroke-linecap="round" stroke-linejoin="round" />
<path d="M 78.75 158.75 L 76.25 162.5 L 78.75 163.75 L 98.75 156.25 L 136.25 138.75 L 175.0 117.5 L 200.0 101.25 L 203.75 97.5 L 197.5 98.75 L 181.25 105.0 L 177.5 107.5 " stroke="black" fill="none" stroke-width="6.0" stroke-linecap="round" stroke-linejoin="round" />
<path d="M 137.5 143.75 L 136.25 146.25 L 133.75 160.0 L 133.75 188.75 L 133.75 221.25 L 133.75 240.0 L 136.25 243.75 L 136.25 241.25 L 135.0 233.75 " stroke="black" fill="none" stroke-width="6.0" stroke-linecap="round" stroke-linejoin="round" />
<path d="M 133.75 157.5 L 132.5 157.5 L 133.75 157.5 L 145.0 152.5 L 166.25 145.0 L 183.75 143.75 L 192.5 160.0 L 192.5 196.25 L 192.5 231.25 L 192.5 251.25 L 192.5 255.0 L 192.5 253.75 L 190.0 247.5 L 183.75 236.25 L 175.0 222.5 " stroke="black" fill="none" stroke-width="6.0" stroke-linecap="round" stroke-linejoin="round" />
<path d="M 137.5 187.5 L 136.25 187.5 L 132.5 187.5 L 131.25 186.25 L 140.0 181.25 L 157.5 170.0 L 175.0 158.75 L 180.0 153.75 " stroke="black" fill="none" stroke-width="6.0" stroke-linecap="round" stroke-linejoin="round" />
<path d="M 140.0 203.75 L 137.5 206.25 L 137.5 206.25 L 146.25 201.25 L 166.25 186.25 L 177.5 176.25 " stroke="black" fill="none" stroke-width="6.0" stroke-linecap="round" stroke-linejoin="round" />
</svg>