<svg xmlns="http://www.w3.org/2000/svg" width="300" height="300" viewBox="0 0 300 300">
<path d="M 111.25 85.0 L 107.5 86.25 L 105.0 86.25 L 110.0 86.25 L 125.0 86.25 L 145.0 81.25 L 165.0 73.75 L 178.75 63.75 L 181.25 57.5 L 172.5 56.25 L 165.0 56.25 " stroke="black" fill="none" stroke-width="6.0" stroke-linecap="round" stroke-linejoin="round" />
<path d="M 147.5 57.5 L 147.5 60.0 L 147.5 66.25 L 147.5 80.0 L 146.25 100.0 L 145.0 117.5 L 142.5 123.75 L 141.25 123.75 " stroke="black" fill="none" stroke-width="6.0" stroke-linecap="round" stroke-linejoin="round" />
<path d="M 128.75 103.75 L 127.5 103.75 L 125.0 103.75 L 125.0 103.75 L 135.0 102.5 L 150.0 97.5 L 167.5 92.5 L 177.5 87.5 L 171.25 87.5 L 167.5 88.75 " stroke="black" fill="none" stroke-width="6.0" stroke-linecap="round" stroke-linejoin="round" />
<path d="M 97.5 130.0 L 91.25 135.0 L 87.5 138.75 L 92.5 138.75 L 112.5 138.75 L 143.75 132.5 L 180.0 122.5 L 207.5 115.0 L 221.25 110.0 L 221.25 108.75 L 220.0 108.75 L 213.75 110.0 L 205.0 113.75 L 203.75 113.75 " stroke="black" fill="none" stroke-width="6.0" stroke-linecap="round" stroke-linejoin="round" />
<path d="M 127.5 160.0 L 127.5 160.0 L 125.0 160.0 L 123.75 166.25 L 122.5 195.0 L 121.25 231.25 L 120.0 253.75 L 120.0 257.5 L 118.75 256.25 L 118.75 253.75 " stroke="black" fill="none" stroke-width="6.0" stroke-linecap="round" stroke-linejoin="round" />
<path d="M 127.5 180.0 L 127.5 171.25 L 132.5 165.0 L 146.25 157.5 L 163.75 152.5 L 178.75 155.0 L 188.75 167.5 L 191.25 193.75 L 191.25 220.0 L 190.0 245.0 L 187.5 258.75 L 186.25 262.5 L 185.0 263.75 L 182.5 262.5 L 177.5 260.0 L 171.25 255.0 L 160.0 248.75 L 157.5 246.25 " stroke="black" fill="none" stroke-width="6.0" stroke-linecap="round" stroke-linejoin="round" />
<path d="M 126.25 206.25 L 122.5 207.5 L 121.25 208.75 L 135.0 202.5 L 152.5 193.75 L 172.5 183.75 L 183.75 175.0 " stroke="black" fill="none" stroke-width="6.0" stroke-linecap="round" stroke-linejoin="round" />
<path d="M 137.5 221.25 L 132.5 227.5 L 132.5 228.75 L 145.0 222.5 L 166.25 211.25 L 185.0 201.25 " stroke="black" fill="none" stroke-width="6.0" stroke-linecap="round" stroke-linejoin="round" />
</svg>