<svg xmlns="http://www.w3.org/2000/svg" width="300" height="300" viewBox="0 0 300 300">
<path d="M 78.75 128.75 L 77.5 128.75 L 76.25 130.0 L 82.5 130.0 L 95.0 127.5 L 107.5 121.25 L 112.5 113.75 L 112.5 108.75 L 106.25 106.25 L 98.75 106.25 L 93.75 105.0 L 88.75 105.0 L 86.25 106.25 L 86.25 111.25 L 88.75 126.25 L 90.0 146.25 L 88.75 165.0 L 81.25 177.5 L 72.5 181.25 L 66.25 183.75 L 65.0 183.75 L 71.25 182.5 L 82.5 177.5 L 96.25 168.75 L 107.5 158.75 L 116.25 150.0 L 117.5 147.5 L 115.0 147.5 L 108.75 151.25 L 102.5 160.0 L 97.5 175.0 L 96.25 192.5 L 96.25 203.75 L 100.0 206.25 L 107.5 202.5 L 117.5 192.5 L 126.25 181.25 L 131.25 172.5 L 128.75 168.75 L 122.5 170.0 " stroke="black" fill="none" stroke-width="6.0" stroke-linecap="round" stroke-linejoin="round" />
<path d="M 65.0 191.25 L 65.0 192.5 L 62.5 202.5 L 62.5 220.0 L 63.75 240.0 L 63.75 262.5 L 63.75 265.0 L 63.75 262.5 " stroke="black" fill="none" stroke-width="6.0" stroke-linecap="round" stroke-linejoin="round" />
<path d="M 76.25 211.25 L 75.0 212.5 L 75.0 215.0 L 82.5 220.0 L 98.75 231.25 L 123.75 246.25 L 148.75 255.0 L 171.25 257.5 L 193.75 258.75 L 205.0 260.0 L 208.75 261.25 " stroke="black" fill="none" stroke-width="6.0" stroke-linecap="round" stroke-linejoin="round" />
<path d="M 147.5 133.75 L 140.0 137.5 L 138.75 137.5 L 143.75 137.5 L 158.75 136.25 L 177.5 130.0 L 192.5 123.75 L 200.0 120.0 L 193.75 121.25 L 182.5 126.25 L 171.25 130.0 L 160.0 133.75 L 150.0 138.75 L 145.0 147.5 L 143.75 168.75 L 145.0 201.25 L 147.5 222.5 L 148.75 226.25 L 148.75 225.0 L 151.25 220.0 L 155.0 208.75 L 161.25 195.0 L 167.5 181.25 L 173.75 170.0 L 177.5 165.0 L 177.5 165.0 L 176.25 166.25 " stroke="black" fill="none" stroke-width="6.0" stroke-linecap="round" stroke-linejoin="round" />
<path d="M 170.0 106.25 L 170.0 106.25 L 170.0 106.25 L 168.75 106.25 L 168.75 106.25 L 168.75 106.25 L 168.75 106.25 L 168.75 106.25 L 170.0 108.75 L 177.5 128.75 L 191.25 168.75 L 205.0 205.0 L 213.75 226.25 L 221.25 238.75 L 225.0 243.75 L 225.0 243.75 L 225.0 243.75 L 225.0 243.75 L 226.25 242.5 L 227.5 238.75 L 227.5 232.5 L 228.75 221.25 L 228.75 208.75 L 227.5 193.75 L 225.0 177.5 L 223.75 158.75 L 223.75 148.75 L 226.25 145.0 L 227.5 147.5 L 222.5 153.75 L 215.0 167.5 L 205.0 187.5 L 196.25 205.0 L 187.5 215.0 L 182.5 213.75 " stroke="black" fill="none" stroke-width="6.0" stroke-linecap="round" stroke-linejoin="round" />
<path d="M 203.75 103.75 L 203.75 103.75 L 205.0 102.5 L 208.75 102.5 L 217.5 108.75 L 227.5 122.5 " stroke="black" fill="none" stroke-width="6.0" stroke-linecap="round" stroke-linejoin="round" />
</svg>