<svg xmlns="http://www.w3.org/2000/svg" width="300" height="300" viewBox="0 0 300 300">
<path d="M 142.5 63.75 L 141.25 65.0 L 137.5 72.5 L 128.75 88.75 L 120.0 106.25 L 118.75 108.75 L 127.5 106.25 L 138.75 100.0 L 158.75 90.0 L 172.5 85.0 L 177.5 86.25 L 172.5 101.25 L 156.25 126.25 L 138.75 152.5 L 120.0 171.25 L 102.5 180.0 L 96.25 178.75 " stroke="black" fill="none" stroke-width="6.0" stroke-linecap="round" stroke-linejoin="round" />
<path d="M 117.5 123.75 L 118.75 122.5 L 121.25 122.5 L 127.5 123.75 L 140.0 132.5 L 155.0 143.75 L 156.25 146.25 " stroke="black" fill="none" stroke-width="6.0" stroke-linecap="round" stroke-linejoin="round" />
<path d="M 186.25 135.0 L 182.5 135.0 L 180.0 135.0 L 175.0 141.25 L 168.75 157.5 L 160.0 177.5 L 152.5 187.5 L 152.5 187.5 L 157.5 182.5 L 171.25 171.25 L 187.5 161.25 L 202.5 156.25 L 210.0 160.0 L 207.5 183.75 L 196.25 217.5 L 180.0 251.25 L 162.5 268.75 L 148.75 276.25 L 138.75 273.75 " stroke="black" fill="none" stroke-width="6.0" stroke-linecap="round" stroke-linejoin="round" />
<path d="M 147.5 196.25 L 147.5 196.25 L 148.75 197.5 L 152.5 202.5 L 168.75 216.25 L 185.0 230.0 " stroke="black" fill="none" stroke-width="6.0" stroke-linecap="round" stroke-linejoin="round" />
</svg>