<svg xmlns="http://www.w3.org/2000/svg" width="300" height="300" viewBox="0 0 300 300">
<path d="M 125.0 92.5 L 122.5 93.75 L 111.25 97.5 L 107.5 102.5 L 112.5 105.0 L 128.75 105.0 L 151.25 102.5 L 173.75 97.5 L 190.0 95.0 L 193.75 97.5 L 186.25 110.0 L 173.75 128.75 L 161.25 143.75 L 152.5 155.0 L 152.5 156.25 L 156.25 156.25 L 166.25 153.75 L 178.75 151.25 L 190.0 150.0 L 200.0 152.5 L 205.0 167.5 L 206.25 190.0 L 198.75 210.0 L 187.5 227.5 L 176.25 238.75 L 167.5 241.25 L 163.75 240.0 L 161.25 235.0 L 158.75 225.0 L 156.25 220.0 " stroke="black" fill="none" stroke-width="6.0" stroke-linecap="round" stroke-linejoin="round" />
<path d="M 133.75 116.25 L 131.25 116.25 L 128.75 117.5 L 127.5 123.75 L 122.5 151.25 L 108.75 201.25 L 93.75 240.0 " stroke="black" fill="none" stroke-width="6.0" stroke-linecap="round" stroke-linejoin="round" />
</svg>