<svg xmlns="http://www.w3.org/2000/svg" width="300" height="300" viewBox="0 0 300 300">
<path d="M 130.0 92.5 L 128.75 92.5 L 125.0 93.75 L 126.25 95.0 L 137.5 96.25 L 152.5 95.0 L 171.25 92.5 L 185.0 90.0 L 188.75 90.0 L 186.25 98.75 L 177.5 112.5 L 167.5 126.25 L 158.75 138.75 L 152.5 146.25 L 151.25 148.75 L 151.25 148.75 L 156.25 148.75 L 167.5 146.25 L 181.25 141.25 L 195.0 136.25 L 203.75 136.25 L 208.75 142.5 L 206.25 165.0 L 200.0 196.25 L 191.25 223.75 L 185.0 242.5 L 182.5 247.5 L 181.25 246.25 L 181.25 245.0 L 180.0 241.25 L 177.5 233.75 L 171.25 223.75 L 165.0 217.5 " stroke="black" fill="none" stroke-width="6.0" stroke-linecap="round" stroke-linejoin="round" />
<path d="M 120.0 123.75 L 121.25 118.75 L 121.25 113.75 L 122.5 113.75 L 122.5 130.0 L 117.5 166.25 L 106.25 206.25 L 96.25 232.5 L 91.25 240.0 " stroke="black" fill="none" stroke-width="6.0" stroke-linecap="round" stroke-linejoin="round" />
</svg>