<svg xmlns="http://www.w3.org/2000/svg" width="300" height="300" viewBox="0 0 300 300">
<path d="M 135.0 76.25 L 135.0 76.25 L 135.0 76.25 L 135.0 76.25 L 138.75 77.5 L 150.0 82.5 L 165.0 85.0 L 172.5 87.5 L 171.25 87.5 " stroke="black" fill="none" stroke-width="6.0" stroke-linecap="round" stroke-linejoin="round" />
<path d="M 90.0 101.25 L 86.25 102.5 L 85.0 103.75 L 97.5 106.25 L 126.25 106.25 L 158.75 103.75 L 186.25 100.0 L 195.0 97.5 L 191.25 97.5 L 178.75 102.5 L 155.0 117.5 L 128.75 143.75 L 97.5 182.5 L 78.75 213.75 L 73.75 222.5 L 73.75 221.25 " stroke="black" fill="none" stroke-width="6.0" stroke-linecap="round" stroke-linejoin="round" />
<path d="M 120.0 166.25 L 120.0 166.25 L 117.5 175.0 L 115.0 190.0 L 112.5 227.5 L 113.75 246.25 L 115.0 248.75 L 116.25 246.25 " stroke="black" fill="none" stroke-width="6.0" stroke-linecap="round" stroke-linejoin="round" />
<path d="M 172.5 140.0 L 172.5 138.75 L 173.75 135.0 L 175.0 132.5 L 175.0 135.0 L 171.25 145.0 L 168.75 153.75 L 168.75 158.75 L 176.25 157.5 L 193.75 150.0 L 206.25 143.75 L 211.25 143.75 L 207.5 158.75 L 195.0 186.25 L 180.0 212.5 L 163.75 232.5 L 155.0 240.0 L 152.5 238.75 " stroke="black" fill="none" stroke-width="6.0" stroke-linecap="round" stroke-linejoin="round" />
<path d="M 162.5 177.5 L 163.75 175.0 L 167.5 173.75 L 176.25 176.25 L 188.75 182.5 L 197.5 191.25 L 197.5 196.25 " stroke="black" fill="none" stroke-width="6.0" stroke-linecap="round" stroke-linejoin="round" />
<path d="M 142.5 191.25 L 141.25 191.25 L 140.0 191.25 L 140.0 190.0 L 151.25 193.75 L 176.25 206.25 L 207.5 223.75 L 236.25 236.25 L 262.5 241.25 L 281.25 241.25 L 283.75 241.25 " stroke="black" fill="none" stroke-width="6.0" stroke-linecap="round" stroke-linejoin="round" />
</svg>