<svg xmlns="http://www.w3.org/2000/svg" width="300" height="300" viewBox="0 0 300 300">
<path d="M 131.25 72.5 L 131.25 70.0 L 131.25 68.75 L 135.0 67.5 L 146.25 71.25 L 160.0 77.5 L 168.75 82.5 L 168.75 86.25 " stroke="black" fill="none" stroke-width="6.0" stroke-linecap="round" stroke-linejoin="round" />
<path d="M 80.0 102.5 L 78.75 102.5 L 73.75 105.0 L 72.5 106.25 L 85.0 106.25 L 110.0 103.75 L 143.75 98.75 L 166.25 92.5 L 171.25 90.0 L 166.25 90.0 L 151.25 100.0 L 131.25 116.25 L 105.0 143.75 L 76.25 183.75 L 57.5 208.75 L 52.5 216.25 L 52.5 212.5 L 53.75 210.0 " stroke="black" fill="none" stroke-width="6.0" stroke-linecap="round" stroke-linejoin="round" />
<path d="M 106.25 155.0 L 106.25 157.5 L 105.0 168.75 L 103.75 197.5 L 103.75 225.0 L 108.75 235.0 L 110.0 232.5 " stroke="black" fill="none" stroke-width="6.0" stroke-linecap="round" stroke-linejoin="round" />
<path d="M 161.25 123.75 L 161.25 123.75 L 160.0 123.75 L 156.25 128.75 L 151.25 141.25 L 147.5 153.75 L 150.0 156.25 L 163.75 152.5 L 198.75 132.5 L 205.0 130.0 L 200.0 142.5 L 185.0 167.5 L 167.5 196.25 L 150.0 218.75 L 141.25 228.75 L 140.0 228.75 " stroke="black" fill="none" stroke-width="6.0" stroke-linecap="round" stroke-linejoin="round" />
<path d="M 146.25 165.0 L 146.25 165.0 L 146.25 166.25 L 150.0 170.0 L 160.0 177.5 L 168.75 185.0 L 168.75 186.25 " stroke="black" fill="none" stroke-width="6.0" stroke-linecap="round" stroke-linejoin="round" />
<path d="M 122.5 178.75 L 122.5 178.75 L 122.5 178.75 L 126.25 178.75 L 143.75 187.5 L 177.5 205.0 L 210.0 222.5 L 238.75 233.75 L 261.25 243.75 L 280.0 250.0 L 281.25 250.0 " stroke="black" fill="none" stroke-width="6.0" stroke-linecap="round" stroke-linejoin="round" />
</svg>