<svg xmlns="http://www.w3.org/2000/svg" width="300" height="300" viewBox="0 0 300 300">
<path d="M 130.0 65.0 L 130.0 65.0 L 128.75 65.0 L 132.5 65.0 L 143.75 67.5 L 158.75 71.25 L 170.0 76.25 L 172.5 80.0 " stroke="black" fill="none" stroke-width="6.0" stroke-linecap="round" stroke-linejoin="round" />
<path d="M 90.0 93.75 L 90.0 95.0 L 87.5 97.5 L 88.75 98.75 L 100.0 98.75 L 131.25 93.75 L 172.5 83.75 L 205.0 73.75 L 216.25 67.5 L 216.25 68.75 L 206.25 73.75 L 200.0 76.25 " stroke="black" fill="none" stroke-width="6.0" stroke-linecap="round" stroke-linejoin="round" />
<path d="M 122.5 120.0 L 122.5 120.0 L 122.5 118.75 L 122.5 118.75 L 113.75 131.25 L 97.5 162.5 L 82.5 198.75 L 72.5 216.25 L 70.0 217.5 L 72.5 208.75 L 81.25 197.5 L 91.25 183.75 L 100.0 170.0 L 107.5 160.0 L 108.75 160.0 L 108.75 182.5 L 108.75 211.25 L 110.0 242.5 L 111.25 253.75 L 111.25 252.5 L 112.5 250.0 " stroke="black" fill="none" stroke-width="6.0" stroke-linecap="round" stroke-linejoin="round" />
<path d="M 158.75 123.75 L 161.25 122.5 L 165.0 121.25 L 163.75 125.0 L 160.0 133.75 L 158.75 140.0 L 158.75 143.75 L 166.25 143.75 L 181.25 138.75 L 195.0 132.5 L 202.5 130.0 L 203.75 132.5 L 195.0 150.0 L 177.5 181.25 L 158.75 215.0 L 142.5 245.0 L 130.0 258.75 L 125.0 260.0 " stroke="black" fill="none" stroke-width="6.0" stroke-linecap="round" stroke-linejoin="round" />
<path d="M 147.5 158.75 L 146.25 160.0 L 145.0 162.5 L 147.5 163.75 L 157.5 166.25 L 170.0 171.25 L 175.0 176.25 L 175.0 178.75 " stroke="black" fill="none" stroke-width="6.0" stroke-linecap="round" stroke-linejoin="round" />
<path d="M 133.75 178.75 L 131.25 178.75 L 128.75 178.75 L 127.5 178.75 L 130.0 178.75 L 143.75 185.0 L 158.75 196.25 L 180.0 208.75 L 203.75 220.0 L 226.25 230.0 L 245.0 236.25 L 260.0 238.75 L 263.75 238.75 " stroke="black" fill="none" stroke-width="6.0" stroke-linecap="round" stroke-linejoin="round" />
</svg>