<svg xmlns="http://www.w3.org/2000/svg" width="300" height="300" viewBox="0 0 300 300">
<path d="M 123.75 92.5 L 123.75 92.5 L 126.25 92.5 L 141.25 92.5 L 167.5 96.25 L 187.5 103.75 L 192.5 115.0 L 181.25 132.5 L 162.5 143.75 L 146.25 150.0 L 128.75 150.0 L 125.0 147.5 " stroke="black" fill="none" stroke-width="6.0" stroke-linecap="round" stroke-linejoin="round" />
<path d="M 90.0 130.0 L 86.25 130.0 L 81.25 130.0 L 80.0 130.0 L 85.0 130.0 L 107.5 128.75 L 145.0 118.75 L 193.75 105.0 L 221.25 98.75 L 227.5 97.5 L 215.0 102.5 L 206.25 106.25 " stroke="black" fill="none" stroke-width="6.0" stroke-linecap="round" stroke-linejoin="round" />
<path d="M 93.75 177.5 L 92.5 178.75 L 96.25 178.75 L 118.75 170.0 L 155.0 153.75 L 177.5 141.25 L 181.25 137.5 " stroke="black" fill="none" stroke-width="6.0" stroke-linecap="round" stroke-linejoin="round" />
<path d="M 136.25 105.0 L 135.0 107.5 L 132.5 118.75 L 123.75 152.5 L 105.0 202.5 L 85.0 240.0 L 68.75 258.75 L 58.75 258.75 L 58.75 256.25 " stroke="black" fill="none" stroke-width="6.0" stroke-linecap="round" stroke-linejoin="round" />
<path d="M 116.25 185.0 L 116.25 187.5 L 120.0 196.25 L 130.0 215.0 L 142.5 238.75 L 150.0 246.25 L 153.75 245.0 L 153.75 238.75 L 148.75 230.0 L 142.5 221.25 L 133.75 211.25 L 126.25 203.75 L 121.25 197.5 L 125.0 196.25 L 142.5 193.75 L 168.75 188.75 L 197.5 186.25 L 211.25 185.0 L 211.25 191.25 L 200.0 206.25 L 181.25 225.0 L 158.75 246.25 L 151.25 255.0 L 153.75 253.75 L 172.5 246.25 L 196.25 231.25 L 218.75 215.0 L 230.0 202.5 " stroke="black" fill="none" stroke-width="6.0" stroke-linecap="round" stroke-linejoin="round" />
</svg>