<svg xmlns="http://www.w3.org/2000/svg" width="300" height="300" viewBox="0 0 300 300">
<path d="M 140.0 77.5 L 136.25 77.5 L 128.75 77.5 L 130.0 77.5 L 142.5 78.75 L 161.25 80.0 L 181.25 82.5 L 193.75 85.0 L 195.0 90.0 L 182.5 100.0 L 165.0 110.0 L 147.5 120.0 L 131.25 127.5 L 117.5 132.5 L 115.0 133.75 L 123.75 131.25 L 141.25 125.0 L 161.25 117.5 L 182.5 110.0 L 197.5 107.5 L 197.5 111.25 L 185.0 122.5 L 165.0 137.5 L 142.5 151.25 L 117.5 166.25 L 98.75 177.5 L 92.5 180.0 L 91.25 180.0 " stroke="black" fill="none" stroke-width="6.0" stroke-linecap="round" stroke-linejoin="round" />
<path d="M 143.75 100.0 L 143.75 100.0 L 140.0 100.0 L 137.5 100.0 L 135.0 107.5 L 127.5 140.0 L 111.25 188.75 L 96.25 220.0 L 91.25 231.25 L 90.0 231.25 " stroke="black" fill="none" stroke-width="6.0" stroke-linecap="round" stroke-linejoin="round" />
<path d="M 131.25 170.0 L 131.25 170.0 L 132.5 172.5 L 140.0 190.0 L 145.0 208.75 L 148.75 230.0 L 150.0 236.25 L 150.0 236.25 L 150.0 232.5 L 148.75 222.5 L 147.5 212.5 L 145.0 202.5 L 142.5 195.0 L 138.75 191.25 L 136.25 191.25 L 136.25 191.25 L 143.75 190.0 L 160.0 182.5 L 183.75 172.5 L 201.25 166.25 L 205.0 167.5 L 201.25 177.5 L 192.5 193.75 L 166.25 225.0 L 158.75 235.0 L 158.75 236.25 L 168.75 236.25 L 183.75 233.75 L 198.75 228.75 L 211.25 223.75 L 220.0 221.25 L 223.75 218.75 L 222.5 217.5 L 220.0 217.5 " stroke="black" fill="none" stroke-width="6.0" stroke-linecap="round" stroke-linejoin="round" />
</svg>