<svg xmlns="http://www.w3.org/2000/svg" width="300" height="300" viewBox="0 0 300 300">
<path d="M 132.5 93.75 L 132.5 93.75 L 133.75 95.0 L 143.75 97.5 L 161.25 105.0 L 175.0 111.25 L 178.75 116.25 L 167.5 122.5 L 163.75 123.75 " stroke="black" fill="none" stroke-width="6.0" stroke-linecap="round" stroke-linejoin="round" />
<path d="M 85.0 151.25 L 82.5 152.5 L 81.25 155.0 L 91.25 155.0 L 115.0 152.5 L 152.5 142.5 L 188.75 132.5 L 207.5 125.0 L 208.75 123.75 " stroke="black" fill="none" stroke-width="6.0" stroke-linecap="round" stroke-linejoin="round" />
<path d="M 148.75 165.0 L 131.25 191.25 L 116.25 215.0 L 105.0 236.25 L 100.0 245.0 L 97.5 245.0 L 97.5 242.5 " stroke="black" fill="none" stroke-width="6.0" stroke-linecap="round" stroke-linejoin="round" />
<path d="M 173.75 186.25 L 176.25 185.0 L 180.0 185.0 L 186.25 188.75 L 195.0 200.0 L 205.0 215.0 L 215.0 227.5 L 225.0 235.0 L 233.75 238.75 L 238.75 240.0 L 241.25 241.25 L 241.25 245.0 L 238.75 246.25 " stroke="black" fill="none" stroke-width="6.0" stroke-linecap="round" stroke-linejoin="round" />
</svg>