<svg xmlns="http://www.w3.org/2000/svg" width="300" height="300" viewBox="0 0 300 300">
<path d="M 142.5 93.75 L 142.5 93.75 L 141.25 93.75 L 141.25 93.75 L 143.75 95.0 L 156.25 100.0 L 171.25 105.0 L 176.25 110.0 " stroke="black" fill="none" stroke-width="6.0" stroke-linecap="round" stroke-linejoin="round" />
<path d="M 88.75 128.75 L 86.25 128.75 L 83.75 128.75 L 90.0 128.75 L 113.75 128.75 L 148.75 125.0 L 186.25 116.25 L 206.25 107.5 L 208.75 105.0 L 205.0 105.0 " stroke="black" fill="none" stroke-width="6.0" stroke-linecap="round" stroke-linejoin="round" />
<path d="M 142.5 150.0 L 141.25 158.75 L 140.0 176.25 L 135.0 202.5 L 125.0 225.0 L 112.5 237.5 L 101.25 240.0 L 95.0 238.75 " stroke="black" fill="none" stroke-width="6.0" stroke-linecap="round" stroke-linejoin="round" />
<path d="M 175.0 168.75 L 177.5 168.75 L 186.25 176.25 L 200.0 187.5 L 215.0 201.25 L 228.75 210.0 L 240.0 216.25 L 246.25 220.0 L 247.5 222.5 L 247.5 223.75 " stroke="black" fill="none" stroke-width="6.0" stroke-linecap="round" stroke-linejoin="round" />
</svg>