<svg xmlns="http://www.w3.org/2000/svg" width="300" height="300" viewBox="0 0 300 300">
<path d="M 127.5 71.25 L 127.5 71.25 L 127.5 71.25 L 135.0 71.25 L 150.0 72.5 L 158.75 76.25 " stroke="black" fill="none" stroke-width="6.0" stroke-linecap="round" stroke-linejoin="round" />
<path d="M 90.0 98.75 L 90.0 100.0 L 90.0 101.25 L 90.0 106.25 L 93.75 116.25 L 96.25 127.5 L 97.5 133.75 L 96.25 136.25 L 96.25 131.25 L 95.0 125.0 L 93.75 118.75 L 93.75 115.0 L 92.5 111.25 L 95.0 108.75 L 111.25 102.5 L 145.0 96.25 L 181.25 91.25 L 203.75 88.75 L 207.5 88.75 L 202.5 95.0 L 190.0 103.75 L 183.75 108.75 " stroke="black" fill="none" stroke-width="6.0" stroke-linecap="round" stroke-linejoin="round" />
<path d="M 141.25 113.75 L 141.25 112.5 L 140.0 112.5 L 140.0 112.5 L 141.25 118.75 L 142.5 132.5 L 142.5 143.75 L 142.5 145.0 " stroke="black" fill="none" stroke-width="6.0" stroke-linecap="round" stroke-linejoin="round" />
<path d="M 115.0 130.0 L 115.0 128.75 L 116.25 128.75 L 121.25 131.25 L 131.25 138.75 L 141.25 143.75 L 147.5 145.0 L 152.5 141.25 L 158.75 131.25 L 167.5 121.25 L 175.0 115.0 L 176.25 113.75 L 171.25 120.0 L 158.75 132.5 L 146.25 146.25 L 135.0 157.5 L 126.25 162.5 L 123.75 161.25 L 126.25 157.5 L 130.0 153.75 L 130.0 152.5 L 130.0 155.0 L 128.75 172.5 L 128.75 205.0 L 128.75 236.25 L 131.25 250.0 L 132.5 251.25 L 133.75 246.25 L 135.0 237.5 L 135.0 235.0 " stroke="black" fill="none" stroke-width="6.0" stroke-linecap="round" stroke-linejoin="round" />
<path d="M 126.25 172.5 L 122.5 168.75 L 122.5 167.5 L 128.75 163.75 L 141.25 157.5 L 156.25 152.5 L 171.25 150.0 L 182.5 151.25 L 188.75 163.75 L 193.75 186.25 L 196.25 212.5 L 196.25 233.75 L 196.25 247.5 L 196.25 252.5 L 196.25 252.5 L 195.0 251.25 L 191.25 245.0 L 186.25 237.5 " stroke="black" fill="none" stroke-width="6.0" stroke-linecap="round" stroke-linejoin="round" />
<path d="M 133.75 195.0 L 128.75 196.25 L 126.25 197.5 L 130.0 196.25 L 143.75 190.0 L 157.5 180.0 L 170.0 170.0 L 172.5 166.25 L 167.5 168.75 " stroke="black" fill="none" stroke-width="6.0" stroke-linecap="round" stroke-linejoin="round" />
<path d="M 136.25 216.25 L 135.0 217.5 L 133.75 222.5 L 138.75 222.5 L 152.5 215.0 L 172.5 202.5 L 177.5 198.75 " stroke="black" fill="none" stroke-width="6.0" stroke-linecap="round" stroke-linejoin="round" />
</svg>