<svg xmlns="http://www.w3.org/2000/svg" width="300" height="300" viewBox="0 0 300 300">
<path d="M 106.25 111.25 L 105.0 112.5 L 102.5 113.75 L 103.75 115.0 L 120.0 115.0 L 148.75 106.25 L 176.25 96.25 L 191.25 90.0 L 192.5 88.75 L 185.0 88.75 " stroke="black" fill="none" stroke-width="6.0" stroke-linecap="round" stroke-linejoin="round" />
<path d="M 143.75 91.25 L 143.75 92.5 L 143.75 96.25 L 145.0 120.0 L 150.0 173.75 L 151.25 220.0 L 151.25 243.75 L 148.75 253.75 L 147.5 255.0 L 145.0 252.5 L 141.25 243.75 L 137.5 230.0 L 130.0 216.25 " stroke="black" fill="none" stroke-width="6.0" stroke-linecap="round" stroke-linejoin="round" />
<path d="M 87.5 181.25 L 85.0 181.25 L 83.75 181.25 L 85.0 181.25 L 96.25 178.75 L 111.25 178.75 L 122.5 182.5 L 121.25 197.5 L 107.5 217.5 L 96.25 233.75 L 92.5 237.5 L 98.75 232.5 L 117.5 215.0 L 143.75 195.0 L 168.75 178.75 L 191.25 165.0 L 201.25 162.5 L 202.5 166.25 L 203.75 177.5 L 211.25 202.5 L 223.75 208.75 L 233.75 215.0 L 236.25 225.0 L 225.0 241.25 L 211.25 252.5 L 200.0 257.5 L 192.5 256.25 L 191.25 253.75 " stroke="black" fill="none" stroke-width="6.0" stroke-linecap="round" stroke-linejoin="round" />
<path d="M 211.25 78.75 L 211.25 77.5 L 215.0 76.25 L 222.5 85.0 L 233.75 98.75 " stroke="black" fill="none" stroke-width="6.0" stroke-linecap="round" stroke-linejoin="round" />
</svg>