<svg xmlns="http://www.w3.org/2000/svg" width="300" height="300" viewBox="0 0 300 300">
<path d="M 93.75 106.25 L 92.5 107.5 L 90.0 110.0 L 92.5 111.25 L 113.75 108.75 L 148.75 98.75 L 181.25 88.75 L 195.0 83.75 L 193.75 83.75 L 181.25 83.75 L 165.0 85.0 L 151.25 85.0 L 140.0 85.0 L 133.75 82.5 L 132.5 82.5 L 135.0 93.75 L 142.5 141.25 L 146.25 198.75 L 146.25 232.5 L 146.25 240.0 L 146.25 240.0 L 145.0 235.0 L 140.0 221.25 L 132.5 206.25 L 120.0 190.0 L 117.5 185.0 " stroke="black" fill="none" stroke-width="6.0" stroke-linecap="round" stroke-linejoin="round" />
<path d="M 92.5 158.75 L 86.25 161.25 L 82.5 163.75 L 82.5 166.25 L 92.5 167.5 L 103.75 167.5 L 113.75 170.0 L 115.0 180.0 L 106.25 200.0 L 95.0 216.25 L 92.5 218.75 L 103.75 210.0 L 130.0 190.0 L 158.75 168.75 L 187.5 151.25 L 200.0 146.25 L 201.25 152.5 L 201.25 167.5 L 201.25 185.0 L 207.5 196.25 L 221.25 202.5 L 235.0 208.75 L 237.5 213.75 L 230.0 223.75 L 216.25 233.75 L 205.0 235.0 L 197.5 230.0 " stroke="black" fill="none" stroke-width="6.0" stroke-linecap="round" stroke-linejoin="round" />
<path d="M 203.75 41.25 L 203.75 40.0 L 203.75 38.75 L 206.25 41.25 L 217.5 57.5 L 222.5 72.5 " stroke="black" fill="none" stroke-width="6.0" stroke-linecap="round" stroke-linejoin="round" />
</svg>