<svg xmlns="http://www.w3.org/2000/svg" width="300" height="300" viewBox="0 0 300 300">
<path d="M 117.5 103.75 L 117.5 103.75 L 116.25 103.75 L 115.0 106.25 L 117.5 117.5 L 120.0 135.0 L 121.25 142.5 L 121.25 142.5 " stroke="black" fill="none" stroke-width="6.0" stroke-linecap="round" stroke-linejoin="round" />
<path d="M 115.0 118.75 L 112.5 117.5 L 113.75 117.5 L 130.0 116.25 L 153.75 111.25 L 183.75 105.0 L 203.75 100.0 L 210.0 100.0 L 210.0 101.25 L 203.75 107.5 L 191.25 122.5 L 175.0 137.5 L 163.75 143.75 " stroke="black" fill="none" stroke-width="6.0" stroke-linecap="round" stroke-linejoin="round" />
<path d="M 151.25 83.75 L 152.5 81.25 L 152.5 80.0 L 152.5 92.5 L 153.75 130.0 L 151.25 166.25 L 147.5 191.25 L 146.25 201.25 L 148.75 207.5 L 157.5 213.75 L 172.5 220.0 L 186.25 225.0 L 198.75 226.25 L 203.75 227.5 L 203.75 228.75 " stroke="black" fill="none" stroke-width="6.0" stroke-linecap="round" stroke-linejoin="round" />
<path d="M 186.25 153.75 L 186.25 155.0 L 186.25 160.0 L 186.25 185.0 L 178.75 213.75 L 162.5 235.0 L 146.25 245.0 L 133.75 246.25 " stroke="black" fill="none" stroke-width="6.0" stroke-linecap="round" stroke-linejoin="round" />
<path d="M 87.5 192.5 L 87.5 190.0 L 88.75 188.75 L 100.0 186.25 L 132.5 183.75 L 168.75 177.5 L 201.25 168.75 L 223.75 163.75 L 238.75 162.5 " stroke="black" fill="none" stroke-width="6.0" stroke-linecap="round" stroke-linejoin="round" />
</svg>