<svg xmlns="http://www.w3.org/2000/svg" width="300" height="300" viewBox="0 0 300 300">
<path d="M 96.25 105.0 L 96.25 105.0 L 95.0 108.75 L 93.75 127.5 L 90.0 153.75 L 88.75 167.5 L 88.75 170.0 L 88.75 165.0 " stroke="black" fill="none" stroke-width="6.0" stroke-linecap="round" stroke-linejoin="round" />
<path d="M 85.0 133.75 L 83.75 132.5 L 82.5 131.25 L 87.5 130.0 L 111.25 125.0 L 150.0 117.5 L 180.0 113.75 L 191.25 115.0 L 190.0 125.0 L 177.5 137.5 L 161.25 148.75 L 146.25 155.0 L 143.75 155.0 " stroke="black" fill="none" stroke-width="6.0" stroke-linecap="round" stroke-linejoin="round" />
<path d="M 128.75 76.25 L 128.75 75.0 L 127.5 72.5 L 127.5 82.5 L 126.25 120.0 L 122.5 167.5 L 118.75 202.5 L 117.5 218.75 L 123.75 231.25 L 133.75 240.0 L 145.0 243.75 L 155.0 246.25 L 162.5 246.25 L 167.5 245.0 L 170.0 243.75 L 167.5 241.25 L 166.25 241.25 " stroke="black" fill="none" stroke-width="6.0" stroke-linecap="round" stroke-linejoin="round" />
<path d="M 161.25 161.25 L 160.0 173.75 L 156.25 197.5 L 148.75 221.25 L 138.75 238.75 L 123.75 247.5 L 105.0 250.0 L 97.5 250.0 " stroke="black" fill="none" stroke-width="6.0" stroke-linecap="round" stroke-linejoin="round" />
<path d="M 70.0 203.75 L 70.0 203.75 L 72.5 203.75 L 91.25 200.0 L 130.0 193.75 L 166.25 185.0 L 195.0 178.75 L 208.75 176.25 L 211.25 177.5 " stroke="black" fill="none" stroke-width="6.0" stroke-linecap="round" stroke-linejoin="round" />
</svg>