<svg xmlns="http://www.w3.org/2000/svg" width="300" height="300" viewBox="0 0 300 300">
<path d="M 145.0 57.5 L 145.0 57.5 L 145.0 58.75 L 145.0 70.0 L 146.25 88.75 L 148.75 101.25 L 150.0 102.5 L 150.0 101.25 " stroke="black" fill="none" stroke-width="6.0" stroke-linecap="round" stroke-linejoin="round" />
<path d="M 142.5 76.25 L 142.5 76.25 L 140.0 76.25 L 140.0 77.5 L 151.25 76.25 L 167.5 70.0 L 183.75 65.0 L 188.75 63.75 " stroke="black" fill="none" stroke-width="6.0" stroke-linecap="round" stroke-linejoin="round" />
<path d="M 105.0 111.25 L 105.0 112.5 L 103.75 113.75 L 103.75 115.0 L 121.25 112.5 L 151.25 106.25 L 187.5 101.25 L 210.0 100.0 L 213.75 102.5 L 208.75 108.75 L 193.75 121.25 L 173.75 131.25 L 152.5 137.5 " stroke="black" fill="none" stroke-width="6.0" stroke-linecap="round" stroke-linejoin="round" />
<path d="M 108.75 122.5 L 108.75 121.25 L 107.5 120.0 L 106.25 123.75 L 107.5 147.5 L 110.0 197.5 L 111.25 240.0 L 111.25 262.5 L 108.75 265.0 L 107.5 263.75 " stroke="black" fill="none" stroke-width="6.0" stroke-linecap="round" stroke-linejoin="round" />
<path d="M 128.75 148.75 L 128.75 148.75 L 137.5 146.25 L 161.25 137.5 L 182.5 126.25 L 188.75 122.5 " stroke="black" fill="none" stroke-width="6.0" stroke-linecap="round" stroke-linejoin="round" />
<path d="M 142.5 127.5 L 141.25 128.75 L 140.0 140.0 L 140.0 158.75 L 147.5 175.0 L 158.75 178.75 L 172.5 170.0 L 183.75 155.0 L 190.0 146.25 L 187.5 143.75 L 177.5 151.25 L 165.0 163.75 L 153.75 180.0 L 143.75 198.75 L 137.5 210.0 L 137.5 210.0 L 145.0 207.5 L 156.25 197.5 L 170.0 187.5 L 178.75 182.5 L 180.0 185.0 L 170.0 201.25 L 156.25 221.25 L 143.75 240.0 L 131.25 255.0 L 122.5 260.0 L 118.75 260.0 " stroke="black" fill="none" stroke-width="6.0" stroke-linecap="round" stroke-linejoin="round" />
<path d="M 127.5 212.5 L 127.5 212.5 L 126.25 213.75 L 132.5 220.0 L 152.5 233.75 L 185.0 247.5 L 211.25 255.0 L 228.75 257.5 L 240.0 257.5 L 243.75 255.0 L 240.0 251.25 " stroke="black" fill="none" stroke-width="6.0" stroke-linecap="round" stroke-linejoin="round" />
<path d="M 197.5 191.25 L 197.5 191.25 L 195.0 191.25 L 195.0 200.0 L 198.75 220.0 L 200.0 238.75 L 200.0 242.5 L 198.75 238.75 L 198.75 227.5 L 200.0 213.75 L 205.0 200.0 L 211.25 191.25 L 217.5 192.5 L 221.25 206.25 L 225.0 226.25 L 227.5 241.25 L 235.0 243.75 L 247.5 233.75 L 258.75 213.75 L 262.5 200.0 " stroke="black" fill="none" stroke-width="6.0" stroke-linecap="round" stroke-linejoin="round" />
</svg>