<svg xmlns="http://www.w3.org/2000/svg" width="300" height="300" viewBox="0 0 300 300">
<path d="M 128.75 62.5 L 127.5 58.75 L 126.25 56.25 L 126.25 55.0 L 130.0 62.5 L 135.0 78.75 L 137.5 93.75 L 138.75 103.75 L 137.5 103.75 " stroke="black" fill="none" stroke-width="6.0" stroke-linecap="round" stroke-linejoin="round" />
<path d="M 128.75 86.25 L 128.75 86.25 L 127.5 86.25 L 128.75 85.0 L 141.25 81.25 L 161.25 76.25 L 177.5 73.75 L 181.25 75.0 L 177.5 78.75 " stroke="black" fill="none" stroke-width="6.0" stroke-linecap="round" stroke-linejoin="round" />
<path d="M 87.5 113.75 L 86.25 115.0 L 85.0 117.5 L 87.5 118.75 L 107.5 116.25 L 143.75 110.0 L 182.5 103.75 L 203.75 102.5 L 206.25 102.5 L 202.5 106.25 L 188.75 117.5 L 170.0 127.5 L 148.75 136.25 L 135.0 138.75 " stroke="black" fill="none" stroke-width="6.0" stroke-linecap="round" stroke-linejoin="round" />
<path d="M 93.75 122.5 L 92.5 121.25 L 92.5 120.0 L 91.25 126.25 L 91.25 158.75 L 92.5 213.75 L 90.0 251.25 L 85.0 268.75 L 80.0 268.75 " stroke="black" fill="none" stroke-width="6.0" stroke-linecap="round" stroke-linejoin="round" />
<path d="M 100.0 152.5 L 100.0 152.5 L 100.0 152.5 L 110.0 150.0 L 138.75 142.5 L 162.5 132.5 L 172.5 126.25 L 166.25 127.5 L 160.0 130.0 " stroke="black" fill="none" stroke-width="6.0" stroke-linecap="round" stroke-linejoin="round" />
<path d="M 131.25 132.5 L 128.75 135.0 L 127.5 141.25 L 127.5 156.25 L 133.75 168.75 L 143.75 171.25 L 156.25 163.75 L 167.5 151.25 L 173.75 142.5 L 172.5 140.0 L 168.75 141.25 " stroke="black" fill="none" stroke-width="6.0" stroke-linecap="round" stroke-linejoin="round" />
<path d="M 132.5 182.5 L 132.5 182.5 L 133.75 182.5 L 133.75 182.5 L 131.25 188.75 L 125.0 201.25 L 118.75 210.0 L 117.5 213.75 L 123.75 210.0 L 138.75 198.75 L 153.75 187.5 L 161.25 183.75 L 161.25 190.0 L 151.25 208.75 L 140.0 231.25 L 126.25 251.25 L 112.5 258.75 L 105.0 256.25 L 103.75 253.75 " stroke="black" fill="none" stroke-width="6.0" stroke-linecap="round" stroke-linejoin="round" />
<path d="M 111.25 201.25 L 111.25 198.75 L 111.25 197.5 L 113.75 198.75 L 126.25 212.5 L 146.25 235.0 L 168.75 252.5 L 188.75 256.25 L 198.75 252.5 L 201.25 246.25 L 201.25 243.75 " stroke="black" fill="none" stroke-width="6.0" stroke-linecap="round" stroke-linejoin="round" />
<path d="M 177.5 180.0 L 177.5 180.0 L 175.0 181.25 L 175.0 188.75 L 175.0 206.25 L 175.0 220.0 L 175.0 225.0 L 175.0 223.75 L 176.25 216.25 L 181.25 205.0 L 186.25 195.0 L 192.5 187.5 L 197.5 185.0 L 200.0 190.0 L 201.25 206.25 L 203.75 223.75 L 207.5 237.5 L 213.75 241.25 L 225.0 240.0 L 235.0 233.75 L 243.75 227.5 L 247.5 223.75 L 247.5 218.75 L 245.0 211.25 L 241.25 200.0 L 237.5 193.75 " stroke="black" fill="none" stroke-width="6.0" stroke-linecap="round" stroke-linejoin="round" />
</svg>