<svg xmlns="http://www.w3.org/2000/svg" width="300" height="300" viewBox="0 0 300 300">
<path d="M 150.0 63.75 L 150.0 62.5 L 147.5 61.25 L 146.25 58.75 L 146.25 58.75 L 147.5 63.75 L 151.25 76.25 L 153.75 91.25 L 156.25 102.5 L 156.25 107.5 L 156.25 107.5 " stroke="black" fill="none" stroke-width="6.0" stroke-linecap="round" stroke-linejoin="round" />
<path d="M 155.0 80.0 L 151.25 80.0 L 148.75 80.0 L 148.75 80.0 L 158.75 77.5 L 175.0 73.75 L 191.25 70.0 L 200.0 66.25 L 198.75 67.5 L 191.25 70.0 " stroke="black" fill="none" stroke-width="6.0" stroke-linecap="round" stroke-linejoin="round" />
<path d="M 120.0 106.25 L 115.0 107.5 L 112.5 107.5 L 113.75 107.5 L 127.5 106.25 L 147.5 103.75 L 175.0 100.0 L 202.5 97.5 L 215.0 96.25 L 216.25 97.5 L 211.25 98.75 L 201.25 105.0 L 190.0 112.5 L 175.0 118.75 L 170.0 118.75 " stroke="black" fill="none" stroke-width="6.0" stroke-linecap="round" stroke-linejoin="round" />
<path d="M 115.0 112.5 L 113.75 111.25 L 111.25 110.0 L 111.25 110.0 L 113.75 127.5 L 117.5 172.5 L 116.25 225.0 L 111.25 257.5 L 105.0 267.5 L 98.75 267.5 " stroke="black" fill="none" stroke-width="6.0" stroke-linecap="round" stroke-linejoin="round" />
<path d="M 128.75 145.0 L 125.0 146.25 L 125.0 146.25 L 133.75 146.25 L 150.0 142.5 L 170.0 136.25 L 185.0 130.0 L 187.5 126.25 L 183.75 126.25 " stroke="black" fill="none" stroke-width="6.0" stroke-linecap="round" stroke-linejoin="round" />
<path d="M 153.75 126.25 L 151.25 126.25 L 150.0 127.5 L 150.0 138.75 L 153.75 152.5 L 162.5 160.0 L 175.0 158.75 L 190.0 147.5 L 198.75 136.25 L 201.25 131.25 L 196.25 131.25 " stroke="black" fill="none" stroke-width="6.0" stroke-linecap="round" stroke-linejoin="round" />
<path d="M 142.5 165.0 L 142.5 165.0 L 142.5 165.0 L 142.5 166.25 L 142.5 172.5 L 143.75 181.25 L 143.75 186.25 L 146.25 188.75 L 152.5 187.5 L 161.25 183.75 L 171.25 181.25 L 173.75 183.75 L 170.0 197.5 L 157.5 218.75 L 146.25 241.25 L 138.75 251.25 L 132.5 251.25 L 131.25 250.0 " stroke="black" fill="none" stroke-width="6.0" stroke-linecap="round" stroke-linejoin="round" />
<path d="M 138.75 192.5 L 137.5 192.5 L 136.25 192.5 L 140.0 197.5 L 153.75 212.5 L 178.75 227.5 L 202.5 235.0 L 218.75 236.25 L 226.25 236.25 L 228.75 236.25 L 223.75 235.0 L 216.25 235.0 " stroke="black" fill="none" stroke-width="6.0" stroke-linecap="round" stroke-linejoin="round" />
<path d="M 191.25 176.25 L 190.0 176.25 L 188.75 175.0 L 188.75 182.5 L 192.5 201.25 L 195.0 220.0 L 195.0 226.25 L 195.0 223.75 L 193.75 212.5 L 195.0 200.0 L 197.5 188.75 L 201.25 177.5 L 206.25 171.25 L 211.25 173.75 L 217.5 186.25 L 222.5 202.5 L 227.5 215.0 L 236.25 220.0 L 248.75 216.25 L 258.75 206.25 L 263.75 198.75 L 265.0 192.5 L 261.25 187.5 L 256.25 185.0 " stroke="black" fill="none" stroke-width="6.0" stroke-linecap="round" stroke-linejoin="round" />
</svg>