<svg xmlns="http://www.w3.org/2000/svg" width="300" height="300" viewBox="0 0 300 300">
<path d="M 58.75 138.75 L 58.75 140.0 L 61.25 140.0 L 78.75 133.75 L 100.0 121.25 L 116.25 107.5 L 121.25 101.25 L 115.0 100.0 L 103.75 100.0 L 95.0 100.0 L 90.0 100.0 L 86.25 97.5 L 86.25 95.0 L 86.25 95.0 L 88.75 102.5 L 92.5 132.5 L 97.5 187.5 L 100.0 231.25 L 100.0 251.25 L 98.75 253.75 L 97.5 253.75 " stroke="black" fill="none" stroke-width="6.0" stroke-linecap="round" stroke-linejoin="round" />
<path d="M 93.75 158.75 L 87.5 170.0 L 76.25 191.25 L 61.25 210.0 L 51.25 220.0 L 47.5 215.0 L 46.25 208.75 " stroke="black" fill="none" stroke-width="6.0" stroke-linecap="round" stroke-linejoin="round" />
<path d="M 90.0 160.0 L 91.25 160.0 L 98.75 165.0 L 112.5 177.5 L 132.5 192.5 L 143.75 198.75 " stroke="black" fill="none" stroke-width="6.0" stroke-linecap="round" stroke-linejoin="round" />
<path d="M 155.0 107.5 L 155.0 107.5 L 153.75 106.25 L 152.5 117.5 L 152.5 161.25 L 156.25 208.75 L 161.25 227.5 L 163.75 230.0 L 163.75 227.5 " stroke="black" fill="none" stroke-width="6.0" stroke-linecap="round" stroke-linejoin="round" />
<path d="M 152.5 117.5 L 152.5 116.25 L 153.75 111.25 L 161.25 103.75 L 175.0 95.0 L 191.25 91.25 L 202.5 91.25 L 208.75 102.5 L 211.25 132.5 L 212.5 173.75 L 213.75 210.0 L 216.25 226.25 L 217.5 232.5 L 218.75 232.5 L 218.75 231.25 L 216.25 223.75 L 210.0 212.5 L 206.25 207.5 " stroke="black" fill="none" stroke-width="6.0" stroke-linecap="round" stroke-linejoin="round" />
<path d="M 153.75 166.25 L 151.25 166.25 L 150.0 166.25 L 156.25 162.5 L 175.0 152.5 L 195.0 142.5 L 205.0 137.5 L 205.0 137.5 " stroke="black" fill="none" stroke-width="6.0" stroke-linecap="round" stroke-linejoin="round" />
<path d="M 156.25 195.0 L 155.0 196.25 L 155.0 196.25 L 168.75 188.75 L 188.75 177.5 L 205.0 167.5 L 208.75 165.0 L 207.5 166.25 " stroke="black" fill="none" stroke-width="6.0" stroke-linecap="round" stroke-linejoin="round" />
<path d="M 168.75 220.0 L 168.75 221.25 L 168.75 223.75 L 173.75 225.0 L 191.25 218.75 L 210.0 206.25 L 212.5 203.75 " stroke="black" fill="none" stroke-width="6.0" stroke-linecap="round" stroke-linejoin="round" />
</svg>