<svg xmlns="http://www.w3.org/2000/svg" width="300" height="300" viewBox="0 0 300 300">
<path d="M 65.0 152.5 L 63.75 153.75 L 61.25 153.75 L 66.25 151.25 L 78.75 142.5 L 102.5 118.75 L 115.0 101.25 L 118.75 93.75 L 112.5 92.5 L 103.75 91.25 L 95.0 91.25 L 90.0 91.25 L 87.5 91.25 L 87.5 95.0 L 91.25 110.0 L 97.5 146.25 L 103.75 200.0 L 106.25 233.75 L 102.5 245.0 L 98.75 248.75 " stroke="black" fill="none" stroke-width="6.0" stroke-linecap="round" stroke-linejoin="round" />
<path d="M 93.75 163.75 L 90.0 171.25 L 80.0 191.25 L 67.5 215.0 L 58.75 228.75 L 56.25 226.25 L 56.25 215.0 " stroke="black" fill="none" stroke-width="6.0" stroke-linecap="round" stroke-linejoin="round" />
<path d="M 91.25 163.75 L 93.75 162.5 L 103.75 167.5 L 122.5 183.75 L 141.25 198.75 L 152.5 201.25 L 152.5 201.25 " stroke="black" fill="none" stroke-width="6.0" stroke-linecap="round" stroke-linejoin="round" />
<path d="M 148.75 108.75 L 148.75 108.75 L 147.5 108.75 L 146.25 116.25 L 147.5 151.25 L 151.25 201.25 L 155.0 222.5 L 156.25 222.5 L 156.25 221.25 " stroke="black" fill="none" stroke-width="6.0" stroke-linecap="round" stroke-linejoin="round" />
<path d="M 148.75 113.75 L 148.75 112.5 L 148.75 111.25 L 148.75 107.5 L 158.75 103.75 L 176.25 101.25 L 193.75 107.5 L 205.0 135.0 L 207.5 176.25 L 207.5 207.5 L 208.75 223.75 L 208.75 228.75 L 206.25 228.75 L 202.5 220.0 L 196.25 207.5 " stroke="black" fill="none" stroke-width="6.0" stroke-linecap="round" stroke-linejoin="round" />
<path d="M 145.0 177.5 L 145.0 177.5 L 142.5 178.75 L 142.5 177.5 L 152.5 167.5 L 171.25 153.75 L 187.5 142.5 L 191.25 140.0 L 186.25 145.0 " stroke="black" fill="none" stroke-width="6.0" stroke-linecap="round" stroke-linejoin="round" />
<path d="M 151.25 198.75 L 150.0 198.75 L 150.0 198.75 L 152.5 198.75 L 167.5 187.5 L 188.75 171.25 L 197.5 165.0 L 197.5 165.0 " stroke="black" fill="none" stroke-width="6.0" stroke-linecap="round" stroke-linejoin="round" />
<path d="M 157.5 231.25 L 157.5 231.25 L 157.5 232.5 L 163.75 230.0 L 186.25 213.75 L 198.75 205.0 " stroke="black" fill="none" stroke-width="6.0" stroke-linecap="round" stroke-linejoin="round" />
</svg>