<svg xmlns="http://www.w3.org/2000/svg" width="300" height="300" viewBox="0 0 300 300">
<path d="M 106.25 81.25 L 107.5 80.0 L 107.5 80.0 L 106.25 82.5 L 96.25 102.5 L 73.75 141.25 L 51.25 168.75 L 38.75 178.75 L 36.25 173.75 L 36.25 163.75 " stroke="black" fill="none" stroke-width="6.0" stroke-linecap="round" stroke-linejoin="round" />
<path d="M 87.5 91.25 L 91.25 91.25 L 105.0 95.0 L 133.75 107.5 L 162.5 123.75 L 187.5 136.25 L 195.0 145.0 L 191.25 148.75 " stroke="black" fill="none" stroke-width="6.0" stroke-linecap="round" stroke-linejoin="round" />
<path d="M 81.25 152.5 L 80.0 152.5 L 78.75 152.5 L 85.0 151.25 L 105.0 145.0 L 128.75 135.0 L 141.25 128.75 L 138.75 128.75 " stroke="black" fill="none" stroke-width="6.0" stroke-linecap="round" stroke-linejoin="round" />
<path d="M 75.0 175.0 L 73.75 187.5 L 76.25 202.5 L 82.5 211.25 L 86.25 213.75 L 88.75 210.0 L 87.5 202.5 L 81.25 196.25 L 75.0 192.5 L 71.25 188.75 L 70.0 186.25 L 76.25 183.75 L 91.25 178.75 L 105.0 175.0 L 112.5 173.75 L 108.75 183.75 L 98.75 196.25 L 90.0 206.25 L 87.5 207.5 L 90.0 201.25 L 96.25 191.25 " stroke="black" fill="none" stroke-width="6.0" stroke-linecap="round" stroke-linejoin="round" />
<path d="M 116.25 161.25 L 116.25 161.25 L 116.25 161.25 L 117.5 165.0 L 123.75 178.75 L 128.75 192.5 L 131.25 197.5 L 128.75 195.0 L 123.75 187.5 L 120.0 180.0 L 115.0 173.75 L 113.75 168.75 L 118.75 162.5 L 132.5 157.5 L 146.25 152.5 L 152.5 152.5 L 151.25 160.0 L 140.0 175.0 L 126.25 192.5 L 111.25 207.5 L 102.5 213.75 L 101.25 213.75 L 103.75 211.25 L 105.0 211.25 L 102.5 221.25 L 95.0 240.0 L 87.5 255.0 L 82.5 261.25 L 81.25 257.5 L 82.5 255.0 " stroke="black" fill="none" stroke-width="6.0" stroke-linecap="round" stroke-linejoin="round" />
<path d="M 105.0 217.5 L 107.5 218.75 L 110.0 220.0 L 120.0 227.5 L 135.0 237.5 L 142.5 241.25 " stroke="black" fill="none" stroke-width="6.0" stroke-linecap="round" stroke-linejoin="round" />
<path d="M 162.5 193.75 L 153.75 197.5 L 147.5 202.5 L 141.25 210.0 L 136.25 216.25 L 131.25 222.5 L 131.25 223.75 L 136.25 227.5 L 146.25 233.75 L 158.75 240.0 L 172.5 243.75 L 185.0 243.75 " stroke="black" fill="none" stroke-width="6.0" stroke-linecap="round" stroke-linejoin="round" />
<path d="M 206.25 152.5 L 205.0 152.5 L 201.25 152.5 L 198.75 153.75 L 198.75 168.75 L 201.25 192.5 L 206.25 208.75 L 207.5 210.0 " stroke="black" fill="none" stroke-width="6.0" stroke-linecap="round" stroke-linejoin="round" />
<path d="M 233.75 96.25 L 233.75 95.0 L 233.75 92.5 L 235.0 90.0 L 237.5 95.0 L 238.75 122.5 L 238.75 168.75 L 240.0 211.25 L 241.25 232.5 L 242.5 243.75 L 242.5 247.5 L 242.5 247.5 L 242.5 247.5 L 238.75 245.0 L 230.0 241.25 L 216.25 235.0 L 197.5 231.25 L 192.5 231.25 " stroke="black" fill="none" stroke-width="6.0" stroke-linecap="round" stroke-linejoin="round" />
</svg>