<svg xmlns="http://www.w3.org/2000/svg" width="300" height="300" viewBox="0 0 300 300">
<path d="M 72.5 90.0 L 68.75 90.0 L 68.75 90.0 L 77.5 86.25 L 92.5 81.25 L 108.75 75.0 L 118.75 71.25 L 117.5 71.25 L 115.0 72.5 " stroke="black" fill="none" stroke-width="6.0" stroke-linecap="round" stroke-linejoin="round" />
<path d="M 77.5 95.0 L 73.75 97.5 L 72.5 101.25 L 73.75 116.25 L 75.0 141.25 L 78.75 156.25 L 82.5 162.5 L 90.0 165.0 L 98.75 166.25 L 107.5 167.5 L 117.5 168.75 L 126.25 166.25 L 133.75 161.25 L 137.5 157.5 L 137.5 156.25 L 132.5 156.25 " stroke="black" fill="none" stroke-width="6.0" stroke-linecap="round" stroke-linejoin="round" />
<path d="M 96.25 98.75 L 95.0 97.5 L 92.5 96.25 L 91.25 95.0 L 92.5 95.0 L 97.5 100.0 L 103.75 103.75 L 112.5 105.0 L 123.75 101.25 L 133.75 93.75 L 136.25 88.75 L 127.5 88.75 L 122.5 91.25 " stroke="black" fill="none" stroke-width="6.0" stroke-linecap="round" stroke-linejoin="round" />
<path d="M 82.5 143.75 L 81.25 145.0 L 81.25 145.0 L 93.75 138.75 L 111.25 128.75 L 127.5 120.0 L 132.5 113.75 L 128.75 112.5 L 122.5 112.5 L 117.5 113.75 L 112.5 113.75 L 107.5 113.75 L 106.25 112.5 L 103.75 113.75 L 102.5 121.25 L 101.25 135.0 L 100.0 151.25 L 98.75 163.75 L 97.5 165.0 L 97.5 160.0 L 98.75 153.75 L 100.0 146.25 L 102.5 141.25 L 103.75 136.25 L 106.25 135.0 L 111.25 140.0 L 121.25 150.0 L 133.75 160.0 L 140.0 163.75 " stroke="black" fill="none" stroke-width="6.0" stroke-linecap="round" stroke-linejoin="round" />
<path d="M 148.75 71.25 L 148.75 70.0 L 147.5 67.5 L 147.5 65.0 L 148.75 67.5 L 148.75 78.75 L 148.75 92.5 L 146.25 102.5 L 143.75 105.0 L 142.5 102.5 L 143.75 93.75 L 146.25 86.25 L 147.5 78.75 L 147.5 73.75 L 147.5 71.25 L 150.0 70.0 L 155.0 67.5 L 165.0 66.25 L 175.0 66.25 L 181.25 67.5 L 182.5 75.0 L 178.75 85.0 L 172.5 93.75 L 170.0 96.25 L 171.25 96.25 L 180.0 92.5 L 191.25 86.25 L 200.0 80.0 L 202.5 78.75 " stroke="black" fill="none" stroke-width="6.0" stroke-linecap="round" stroke-linejoin="round" />
<path d="M 158.75 131.25 L 157.5 131.25 L 156.25 131.25 L 160.0 127.5 L 173.75 118.75 L 190.0 107.5 L 198.75 102.5 L 198.75 102.5 L 188.75 116.25 L 175.0 136.25 L 162.5 155.0 L 152.5 168.75 L 147.5 170.0 L 147.5 167.5 " stroke="black" fill="none" stroke-width="6.0" stroke-linecap="round" stroke-linejoin="round" />
<path d="M 151.25 133.75 L 150.0 130.0 L 150.0 128.75 L 150.0 130.0 L 155.0 137.5 L 165.0 146.25 L 180.0 153.75 L 198.75 157.5 L 211.25 158.75 L 217.5 158.75 L 217.5 158.75 " stroke="black" fill="none" stroke-width="6.0" stroke-linecap="round" stroke-linejoin="round" />
<path d="M 87.5 200.0 L 87.5 201.25 L 83.75 202.5 L 82.5 202.5 L 87.5 202.5 L 98.75 197.5 L 112.5 190.0 L 126.25 182.5 L 132.5 178.75 L 133.75 178.75 L 132.5 188.75 L 131.25 208.75 L 131.25 236.25 L 131.25 257.5 L 133.75 263.75 L 133.75 265.0 L 133.75 265.0 L 132.5 261.25 L 130.0 255.0 L 123.75 250.0 L 121.25 246.25 " stroke="black" fill="none" stroke-width="6.0" stroke-linecap="round" stroke-linejoin="round" />
<path d="M 95.0 232.5 L 92.5 232.5 L 88.75 233.75 L 87.5 233.75 L 92.5 232.5 L 103.75 225.0 L 116.25 217.5 L 123.75 211.25 L 123.75 211.25 L 117.5 215.0 L 110.0 222.5 " stroke="black" fill="none" stroke-width="6.0" stroke-linecap="round" stroke-linejoin="round" />
<path d="M 93.75 251.25 L 90.0 253.75 L 90.0 253.75 L 98.75 247.5 L 113.75 233.75 L 130.0 213.75 L 143.75 197.5 L 150.0 187.5 L 151.25 186.25 L 152.5 185.0 L 158.75 182.5 L 170.0 178.75 L 186.25 173.75 L 200.0 167.5 L 206.25 165.0 L 207.5 165.0 L 207.5 167.5 L 207.5 181.25 L 207.5 203.75 L 207.5 235.0 L 208.75 261.25 L 211.25 275.0 L 212.5 283.75 L 212.5 286.25 L 212.5 286.25 L 210.0 285.0 L 205.0 281.25 L 198.75 271.25 L 187.5 260.0 " stroke="black" fill="none" stroke-width="6.0" stroke-linecap="round" stroke-linejoin="round" />
<path d="M 158.75 212.5 L 155.0 213.75 L 153.75 213.75 L 161.25 211.25 L 175.0 207.5 L 188.75 205.0 L 191.25 203.75 " stroke="black" fill="none" stroke-width="6.0" stroke-linecap="round" stroke-linejoin="round" />
<path d="M 158.75 232.5 L 155.0 235.0 L 155.0 237.5 L 163.75 237.5 L 182.5 233.75 L 200.0 228.75 L 203.75 227.5 " stroke="black" fill="none" stroke-width="6.0" stroke-linecap="round" stroke-linejoin="round" />
</svg>