<svg xmlns="http://www.w3.org/2000/svg" width="300" height="300" viewBox="0 0 300 300">
<path d="M 105.0 116.25 L 102.5 117.5 L 97.5 120.0 L 100.0 120.0 L 118.75 120.0 L 147.5 112.5 L 185.0 100.0 L 210.0 88.75 L 212.5 83.75 L 207.5 83.75 " stroke="black" fill="none" stroke-width="6.0" stroke-linecap="round" stroke-linejoin="round" />
<path d="M 136.25 92.5 L 135.0 92.5 L 132.5 92.5 L 131.25 93.75 L 131.25 108.75 L 131.25 148.75 L 131.25 183.75 L 133.75 193.75 L 135.0 191.25 L 135.0 190.0 " stroke="black" fill="none" stroke-width="6.0" stroke-linecap="round" stroke-linejoin="round" />
<path d="M 175.0 82.5 L 177.5 81.25 L 182.5 87.5 L 185.0 118.75 L 182.5 160.0 L 176.25 187.5 L 172.5 195.0 L 167.5 196.25 L 166.25 196.25 " stroke="black" fill="none" stroke-width="6.0" stroke-linecap="round" stroke-linejoin="round" />
<path d="M 141.25 146.25 L 138.75 146.25 L 135.0 146.25 L 133.75 146.25 L 142.5 146.25 L 156.25 141.25 L 172.5 135.0 L 185.0 128.75 L 182.5 127.5 " stroke="black" fill="none" stroke-width="6.0" stroke-linecap="round" stroke-linejoin="round" />
<path d="M 143.75 161.25 L 142.5 165.0 L 141.25 166.25 L 148.75 165.0 L 162.5 156.25 L 178.75 147.5 L 181.25 145.0 " stroke="black" fill="none" stroke-width="6.0" stroke-linecap="round" stroke-linejoin="round" />
<path d="M 90.0 213.75 L 87.5 217.5 L 86.25 223.75 L 97.5 222.5 L 126.25 216.25 L 165.0 202.5 L 201.25 190.0 L 225.0 178.75 L 231.25 172.5 " stroke="black" fill="none" stroke-width="6.0" stroke-linecap="round" stroke-linejoin="round" />
<path d="M 157.5 207.5 L 155.0 217.5 L 147.5 233.75 L 137.5 246.25 L 126.25 253.75 L 117.5 255.0 " stroke="black" fill="none" stroke-width="6.0" stroke-linecap="round" stroke-linejoin="round" />
<path d="M 186.25 203.75 L 188.75 205.0 L 196.25 215.0 L 206.25 228.75 L 216.25 246.25 L 225.0 255.0 L 228.75 258.75 L 230.0 258.75 L 228.75 258.75 L 227.5 258.75 " stroke="black" fill="none" stroke-width="6.0" stroke-linecap="round" stroke-linejoin="round" />
</svg>