<svg xmlns="http://www.w3.org/2000/svg" width="300" height="300" viewBox="0 0 300 300">
<path d="M 96.25 118.75 L 96.25 120.0 L 95.0 121.25 L 93.75 121.25 L 97.5 121.25 L 120.0 115.0 L 155.0 103.75 L 183.75 91.25 L 188.75 87.5 L 180.0 86.25 L 171.25 88.75 " stroke="black" fill="none" stroke-width="6.0" stroke-linecap="round" stroke-linejoin="round" />
<path d="M 115.0 103.75 L 115.0 106.25 L 113.75 108.75 L 116.25 118.75 L 123.75 146.25 L 126.25 182.5 L 126.25 198.75 L 123.75 201.25 " stroke="black" fill="none" stroke-width="6.0" stroke-linecap="round" stroke-linejoin="round" />
<path d="M 158.75 91.25 L 162.5 91.25 L 166.25 95.0 L 171.25 121.25 L 170.0 160.0 L 162.5 182.5 L 156.25 191.25 L 151.25 191.25 " stroke="black" fill="none" stroke-width="6.0" stroke-linecap="round" stroke-linejoin="round" />
<path d="M 147.5 110.0 L 147.5 110.0 L 147.5 120.0 L 148.75 145.0 L 148.75 171.25 L 143.75 187.5 L 133.75 192.5 L 120.0 197.5 L 103.75 202.5 L 93.75 208.75 L 91.25 210.0 L 93.75 210.0 L 105.0 206.25 L 127.5 197.5 L 152.5 182.5 L 180.0 166.25 L 197.5 153.75 L 201.25 150.0 L 196.25 150.0 L 193.75 151.25 " stroke="black" fill="none" stroke-width="6.0" stroke-linecap="round" stroke-linejoin="round" />
<path d="M 160.0 182.5 L 160.0 183.75 L 155.0 196.25 L 150.0 213.75 L 140.0 240.0 L 130.0 253.75 L 118.75 257.5 L 112.5 253.75 " stroke="black" fill="none" stroke-width="6.0" stroke-linecap="round" stroke-linejoin="round" />
<path d="M 162.5 195.0 L 166.25 193.75 L 172.5 201.25 L 182.5 216.25 L 193.75 235.0 L 200.0 245.0 L 201.25 248.75 L 198.75 251.25 L 197.5 251.25 " stroke="black" fill="none" stroke-width="6.0" stroke-linecap="round" stroke-linejoin="round" />
</svg>