<svg xmlns="http://www.w3.org/2000/svg" width="300" height="300" viewBox="0 0 300 300">
<path d="M 57.5 132.5 L 56.25 133.75 L 53.75 135.0 L 56.25 135.0 L 72.5 125.0 L 91.25 110.0 L 107.5 96.25 L 111.25 92.5 L 105.0 92.5 L 97.5 95.0 L 91.25 97.5 L 87.5 100.0 L 83.75 101.25 L 82.5 107.5 L 85.0 128.75 L 90.0 170.0 L 92.5 207.5 L 92.5 221.25 L 90.0 226.25 L 87.5 222.5 L 85.0 215.0 " stroke="black" fill="none" stroke-width="6.0" stroke-linecap="round" stroke-linejoin="round" />
<path d="M 81.25 156.25 L 72.5 167.5 L 63.75 187.5 L 53.75 208.75 L 46.25 218.75 L 43.75 216.25 " stroke="black" fill="none" stroke-width="6.0" stroke-linecap="round" stroke-linejoin="round" />
<path d="M 83.75 148.75 L 85.0 148.75 L 88.75 148.75 L 96.25 157.5 L 108.75 171.25 L 118.75 178.75 L 120.0 178.75 " stroke="black" fill="none" stroke-width="6.0" stroke-linecap="round" stroke-linejoin="round" />
<path d="M 125.0 90.0 L 125.0 88.75 L 126.25 88.75 L 127.5 98.75 L 131.25 116.25 L 132.5 125.0 L 133.75 127.5 L 133.75 125.0 L 133.75 118.75 L 138.75 110.0 L 146.25 101.25 L 156.25 92.5 L 163.75 88.75 L 163.75 90.0 L 158.75 92.5 " stroke="black" fill="none" stroke-width="6.0" stroke-linecap="round" stroke-linejoin="round" />
<path d="M 110.0 157.5 L 110.0 157.5 L 110.0 160.0 L 112.5 160.0 L 127.5 150.0 L 147.5 135.0 L 161.25 120.0 L 165.0 115.0 L 158.75 116.25 L 152.5 122.5 L 147.5 128.75 L 143.75 135.0 L 143.75 147.5 L 147.5 175.0 L 152.5 208.75 L 152.5 230.0 L 152.5 232.5 L 151.25 232.5 L 147.5 228.75 L 140.0 222.5 L 126.25 220.0 L 112.5 218.75 L 108.75 218.75 L 110.0 218.75 L 123.75 208.75 L 142.5 193.75 L 162.5 175.0 L 183.75 153.75 L 191.25 142.5 " stroke="black" fill="none" stroke-width="6.0" stroke-linecap="round" stroke-linejoin="round" />
<path d="M 188.75 120.0 L 187.5 120.0 L 185.0 121.25 L 183.75 122.5 L 187.5 122.5 L 200.0 116.25 L 213.75 108.75 L 222.5 106.25 L 223.75 120.0 L 213.75 155.0 L 201.25 193.75 L 188.75 215.0 L 180.0 223.75 L 173.75 221.25 L 171.25 210.0 " stroke="black" fill="none" stroke-width="6.0" stroke-linecap="round" stroke-linejoin="round" />
<path d="M 180.0 130.0 L 180.0 130.0 L 180.0 130.0 L 182.5 136.25 L 196.25 165.0 L 213.75 198.75 L 231.25 222.5 L 247.5 237.5 L 262.5 247.5 L 271.25 248.75 L 271.25 248.75 " stroke="black" fill="none" stroke-width="6.0" stroke-linecap="round" stroke-linejoin="round" />
</svg>