<svg xmlns="http://www.w3.org/2000/svg" width="300" height="300" viewBox="0 0 300 300">
<path d="M 50.0 142.5 L 48.75 143.75 L 45.0 145.0 L 43.75 145.0 L 55.0 143.75 L 76.25 137.5 L 96.25 126.25 L 107.5 115.0 L 108.75 111.25 L 102.5 110.0 L 95.0 110.0 L 90.0 110.0 L 85.0 111.25 L 81.25 112.5 L 78.75 115.0 L 77.5 117.5 L 78.75 127.5 L 86.25 160.0 L 93.75 207.5 L 96.25 233.75 L 96.25 242.5 L 92.5 245.0 L 87.5 241.25 " stroke="black" fill="none" stroke-width="6.0" stroke-linecap="round" stroke-linejoin="round" />
<path d="M 87.5 162.5 L 85.0 163.75 L 81.25 171.25 L 73.75 191.25 L 62.5 213.75 L 52.5 222.5 L 48.75 220.0 " stroke="black" fill="none" stroke-width="6.0" stroke-linecap="round" stroke-linejoin="round" />
<path d="M 85.0 166.25 L 87.5 166.25 L 91.25 166.25 L 102.5 172.5 L 118.75 181.25 L 133.75 190.0 L 136.25 191.25 " stroke="black" fill="none" stroke-width="6.0" stroke-linecap="round" stroke-linejoin="round" />
<path d="M 136.25 102.5 L 136.25 102.5 L 135.0 102.5 L 137.5 108.75 L 143.75 127.5 L 147.5 140.0 L 148.75 142.5 L 151.25 140.0 L 157.5 128.75 L 166.25 115.0 L 173.75 103.75 L 176.25 100.0 L 172.5 102.5 L 166.25 108.75 " stroke="black" fill="none" stroke-width="6.0" stroke-linecap="round" stroke-linejoin="round" />
<path d="M 126.25 175.0 L 125.0 176.25 L 125.0 176.25 L 136.25 171.25 L 155.0 158.75 L 173.75 143.75 L 183.75 135.0 L 183.75 132.5 L 175.0 135.0 L 167.5 137.5 L 161.25 140.0 L 157.5 143.75 L 156.25 152.5 L 158.75 177.5 L 165.0 212.5 L 167.5 233.75 L 167.5 237.5 L 167.5 235.0 L 165.0 232.5 L 160.0 227.5 L 151.25 222.5 L 141.25 218.75 L 131.25 217.5 L 127.5 217.5 L 126.25 217.5 L 136.25 215.0 L 151.25 203.75 L 171.25 186.25 L 175.0 181.25 " stroke="black" fill="none" stroke-width="6.0" stroke-linecap="round" stroke-linejoin="round" />
<path d="M 203.75 131.25 L 202.5 132.5 L 197.5 133.75 L 196.25 133.75 L 198.75 132.5 L 208.75 123.75 L 220.0 113.75 L 230.0 105.0 L 235.0 101.25 L 235.0 102.5 L 232.5 122.5 L 227.5 155.0 L 220.0 193.75 L 211.25 218.75 L 205.0 227.5 L 197.5 231.25 L 196.25 231.25 " stroke="black" fill="none" stroke-width="6.0" stroke-linecap="round" stroke-linejoin="round" />
<path d="M 197.5 147.5 L 197.5 146.25 L 196.25 143.75 L 196.25 142.5 L 198.75 141.25 L 201.25 142.5 L 203.75 147.5 L 207.5 155.0 L 211.25 166.25 L 216.25 181.25 L 225.0 201.25 L 237.5 220.0 L 251.25 235.0 L 265.0 243.75 L 278.75 248.75 L 282.5 252.5 " stroke="black" fill="none" stroke-width="6.0" stroke-linecap="round" stroke-linejoin="round" />
</svg>