<svg xmlns="http://www.w3.org/2000/svg" width="300" height="300" viewBox="0 0 300 300">
<path d="M 113.75 78.75 L 113.75 75.0 L 112.5 72.5 L 112.5 72.5 L 117.5 78.75 L 121.25 90.0 L 123.75 103.75 L 121.25 115.0 L 112.5 123.75 L 100.0 127.5 L 87.5 128.75 L 77.5 128.75 L 73.75 128.75 L 75.0 126.25 L 86.25 116.25 L 98.75 106.25 L 112.5 97.5 L 122.5 96.25 L 122.5 105.0 L 112.5 126.25 L 101.25 142.5 L 92.5 151.25 L 91.25 151.25 L 96.25 141.25 L 110.0 123.75 L 128.75 101.25 L 148.75 78.75 L 160.0 67.5 L 163.75 66.25 L 165.0 73.75 L 161.25 95.0 L 160.0 118.75 L 163.75 132.5 L 172.5 133.75 L 183.75 122.5 L 192.5 106.25 L 195.0 96.25 L 187.5 91.25 L 172.5 91.25 L 157.5 92.5 L 148.75 96.25 L 147.5 97.5 L 160.0 95.0 L 181.25 85.0 L 200.0 73.75 L 208.75 66.25 " stroke="black" fill="none" stroke-width="6.0" stroke-linecap="round" stroke-linejoin="round" />
<path d="M 123.75 167.5 L 123.75 167.5 L 123.75 166.25 L 122.5 171.25 L 120.0 201.25 L 118.75 243.75 L 118.75 262.5 L 120.0 263.75 L 120.0 257.5 L 120.0 253.75 " stroke="black" fill="none" stroke-width="6.0" stroke-linecap="round" stroke-linejoin="round" />
<path d="M 126.25 158.75 L 125.0 157.5 L 123.75 156.25 L 125.0 155.0 L 133.75 152.5 L 145.0 151.25 L 158.75 151.25 L 170.0 165.0 L 175.0 198.75 L 176.25 236.25 L 173.75 256.25 L 170.0 262.5 L 168.75 262.5 L 166.25 260.0 L 162.5 251.25 L 157.5 238.75 L 150.0 225.0 " stroke="black" fill="none" stroke-width="6.0" stroke-linecap="round" stroke-linejoin="round" />
<path d="M 120.0 208.75 L 118.75 208.75 L 115.0 208.75 L 116.25 207.5 L 130.0 200.0 L 146.25 190.0 L 158.75 180.0 L 161.25 176.25 " stroke="black" fill="none" stroke-width="6.0" stroke-linecap="round" stroke-linejoin="round" />
<path d="M 135.0 218.75 L 133.75 221.25 L 126.25 227.5 L 132.5 225.0 L 147.5 213.75 L 162.5 200.0 L 170.0 192.5 " stroke="black" fill="none" stroke-width="6.0" stroke-linecap="round" stroke-linejoin="round" />
</svg>