<svg xmlns="http://www.w3.org/2000/svg" width="300" height="300" viewBox="0 0 300 300">
<path d="M 97.5 87.5 L 96.25 87.5 L 96.25 88.75 L 98.75 107.5 L 106.25 137.5 L 112.5 153.75 L 116.25 155.0 L 116.25 152.5 " stroke="black" fill="none" stroke-width="6.0" stroke-linecap="round" stroke-linejoin="round" />
<path d="M 101.25 90.0 L 100.0 90.0 L 100.0 90.0 L 112.5 86.25 L 136.25 81.25 L 178.75 73.75 L 201.25 76.25 L 206.25 90.0 L 201.25 112.5 L 190.0 133.75 L 178.75 146.25 L 168.75 148.75 L 162.5 148.75 " stroke="black" fill="none" stroke-width="6.0" stroke-linecap="round" stroke-linejoin="round" />
<path d="M 110.0 128.75 L 107.5 130.0 L 108.75 130.0 L 123.75 125.0 L 145.0 115.0 L 167.5 102.5 L 173.75 97.5 L 173.75 96.25 " stroke="black" fill="none" stroke-width="6.0" stroke-linecap="round" stroke-linejoin="round" />
<path d="M 143.75 86.25 L 143.75 87.5 L 145.0 91.25 L 145.0 105.0 L 146.25 126.25 L 142.5 142.5 L 136.25 147.5 L 128.75 148.75 L 120.0 148.75 L 117.5 148.75 L 117.5 148.75 L 127.5 148.75 L 140.0 147.5 L 153.75 142.5 L 168.75 136.25 L 180.0 131.25 L 182.5 130.0 " stroke="black" fill="none" stroke-width="6.0" stroke-linecap="round" stroke-linejoin="round" />
<path d="M 100.0 198.75 L 97.5 201.25 L 97.5 201.25 L 112.5 198.75 L 133.75 192.5 L 175.0 182.5 L 201.25 181.25 L 210.0 190.0 L 208.75 202.5 L 197.5 217.5 L 181.25 231.25 L 163.75 238.75 L 148.75 242.5 L 145.0 238.75 " stroke="black" fill="none" stroke-width="6.0" stroke-linecap="round" stroke-linejoin="round" />
<path d="M 152.5 146.25 L 152.5 143.75 L 152.5 141.25 L 152.5 143.75 L 148.75 166.25 L 137.5 200.0 L 117.5 235.0 L 98.75 251.25 L 93.75 251.25 " stroke="black" fill="none" stroke-width="6.0" stroke-linecap="round" stroke-linejoin="round" />
</svg>