<svg xmlns="http://www.w3.org/2000/svg" width="300" height="300" viewBox="0 0 300 300">
<path d="M 136.25 80.0 L 136.25 78.75 L 136.25 78.75 L 132.5 90.0 L 118.75 118.75 L 97.5 152.5 L 80.0 173.75 L 67.5 180.0 L 60.0 176.25 " stroke="black" fill="none" stroke-width="6.0" stroke-linecap="round" stroke-linejoin="round" />
<path d="M 131.25 93.75 L 136.25 96.25 L 147.5 103.75 L 163.75 118.75 L 185.0 133.75 L 205.0 142.5 L 225.0 147.5 L 241.25 155.0 L 248.75 165.0 " stroke="black" fill="none" stroke-width="6.0" stroke-linecap="round" stroke-linejoin="round" />
<path d="M 126.25 162.5 L 121.25 166.25 L 120.0 170.0 L 128.75 172.5 L 143.75 171.25 L 160.0 161.25 L 172.5 151.25 L 170.0 147.5 " stroke="black" fill="none" stroke-width="6.0" stroke-linecap="round" stroke-linejoin="round" />
<path d="M 108.75 203.75 L 106.25 216.25 L 112.5 232.5 L 126.25 248.75 L 138.75 256.25 L 143.75 256.25 L 143.75 255.0 L 140.0 253.75 L 133.75 250.0 L 126.25 246.25 L 117.5 241.25 L 112.5 236.25 L 108.75 232.5 L 111.25 228.75 L 126.25 223.75 L 147.5 217.5 L 171.25 211.25 L 191.25 208.75 L 196.25 211.25 L 192.5 218.75 L 180.0 232.5 L 163.75 246.25 L 146.25 260.0 L 133.75 267.5 L 132.5 268.75 L 137.5 267.5 L 150.0 262.5 L 167.5 253.75 L 186.25 243.75 L 200.0 236.25 L 202.5 232.5 " stroke="black" fill="none" stroke-width="6.0" stroke-linecap="round" stroke-linejoin="round" />
</svg>