<svg xmlns="http://www.w3.org/2000/svg" width="300" height="300" viewBox="0 0 300 300">
<path d="M 137.5 85.0 L 130.0 88.75 L 120.0 103.75 L 103.75 136.25 L 85.0 171.25 L 67.5 197.5 L 57.5 202.5 L 53.75 200.0 " stroke="black" fill="none" stroke-width="6.0" stroke-linecap="round" stroke-linejoin="round" />
<path d="M 123.75 90.0 L 126.25 90.0 L 132.5 93.75 L 150.0 106.25 L 173.75 125.0 L 198.75 138.75 L 216.25 147.5 L 231.25 155.0 L 235.0 161.25 L 227.5 166.25 " stroke="black" fill="none" stroke-width="6.0" stroke-linecap="round" stroke-linejoin="round" />
<path d="M 121.25 168.75 L 116.25 170.0 L 113.75 171.25 L 121.25 171.25 L 137.5 167.5 L 156.25 162.5 L 170.0 157.5 L 167.5 156.25 " stroke="black" fill="none" stroke-width="6.0" stroke-linecap="round" stroke-linejoin="round" />
<path d="M 107.5 190.0 L 106.25 191.25 L 106.25 197.5 L 116.25 210.0 L 132.5 228.75 L 145.0 240.0 L 147.5 242.5 L 143.75 238.75 L 137.5 232.5 L 128.75 223.75 L 118.75 217.5 L 112.5 211.25 L 112.5 207.5 L 132.5 202.5 L 138.75 200.0 L 191.25 185.0 L 205.0 183.75 L 203.75 187.5 L 188.75 203.75 L 170.0 220.0 L 153.75 235.0 L 151.25 237.5 L 166.25 230.0 L 190.0 212.5 L 210.0 195.0 " stroke="black" fill="none" stroke-width="6.0" stroke-linecap="round" stroke-linejoin="round" />
</svg>