<svg xmlns="http://www.w3.org/2000/svg" width="300" height="300" viewBox="0 0 300 300">
<path d="M 146.25 83.75 L 142.5 90.0 L 132.5 103.75 L 113.75 130.0 L 91.25 157.5 L 72.5 177.5 L 55.0 186.25 L 45.0 183.75 L 42.5 178.75 " stroke="black" fill="none" stroke-width="6.0" stroke-linecap="round" stroke-linejoin="round" />
<path d="M 112.5 100.0 L 126.25 100.0 L 142.5 108.75 L 162.5 127.5 L 181.25 138.75 L 210.0 155.0 L 228.75 166.25 L 233.75 170.0 L 232.5 171.25 L 223.75 172.5 L 212.5 167.5 " stroke="black" fill="none" stroke-width="6.0" stroke-linecap="round" stroke-linejoin="round" />
<path d="M 110.0 178.75 L 108.75 181.25 L 103.75 185.0 L 103.75 186.25 L 118.75 185.0 L 136.25 178.75 L 166.25 165.0 L 178.75 157.5 L 175.0 156.25 L 170.0 157.5 " stroke="black" fill="none" stroke-width="6.0" stroke-linecap="round" stroke-linejoin="round" />
<path d="M 112.5 202.5 L 113.75 208.75 L 115.0 221.25 L 121.25 238.75 L 131.25 252.5 L 138.75 256.25 L 141.25 256.25 L 140.0 250.0 L 135.0 245.0 L 128.75 238.75 L 122.5 232.5 L 115.0 226.25 L 111.25 222.5 L 113.75 218.75 L 130.0 213.75 L 153.75 205.0 L 178.75 198.75 L 193.75 198.75 L 195.0 205.0 L 183.75 217.5 L 168.75 233.75 L 152.5 248.75 L 145.0 257.5 L 146.25 258.75 L 157.5 257.5 L 173.75 250.0 L 188.75 240.0 L 200.0 228.75 L 202.5 222.5 " stroke="black" fill="none" stroke-width="6.0" stroke-linecap="round" stroke-linejoin="round" />
</svg>