<svg xmlns="http://www.w3.org/2000/svg" width="300" height="300" viewBox="0 0 300 300">
<path d="M 122.5 63.75 L 121.25 68.75 L 123.75 77.5 L 131.25 90.0 L 138.75 100.0 L 142.5 105.0 L 142.5 105.0 " stroke="black" fill="none" stroke-width="6.0" stroke-linecap="round" stroke-linejoin="round" />
<path d="M 177.5 63.75 L 171.25 75.0 L 165.0 87.5 L 153.75 103.75 L 145.0 116.25 L 138.75 118.75 " stroke="black" fill="none" stroke-width="6.0" stroke-linecap="round" stroke-linejoin="round" />
<path d="M 101.25 140.0 L 95.0 142.5 L 93.75 142.5 L 102.5 141.25 L 123.75 135.0 L 148.75 127.5 L 176.25 121.25 L 192.5 120.0 L 193.75 122.5 L 186.25 132.5 L 171.25 145.0 L 155.0 156.25 L 140.0 167.5 L 122.5 176.25 L 107.5 182.5 L 100.0 185.0 L 100.0 185.0 L 108.75 183.75 L 126.25 177.5 L 147.5 167.5 L 167.5 161.25 L 181.25 158.75 L 181.25 162.5 L 166.25 176.25 L 146.25 191.25 L 123.75 205.0 L 98.75 217.5 L 85.0 226.25 L 86.25 227.5 L 101.25 222.5 L 128.75 210.0 L 161.25 196.25 L 193.75 186.25 L 212.5 185.0 L 217.5 191.25 L 216.25 200.0 L 206.25 211.25 L 192.5 222.5 L 180.0 228.75 L 168.75 228.75 L 166.25 223.75 " stroke="black" fill="none" stroke-width="6.0" stroke-linecap="round" stroke-linejoin="round" />
<path d="M 152.5 136.25 L 151.25 136.25 L 150.0 135.0 L 148.75 136.25 L 151.25 150.0 L 156.25 193.75 L 158.75 238.75 L 160.0 261.25 L 158.75 265.0 L 158.75 263.75 L 155.0 257.5 L 155.0 255.0 " stroke="black" fill="none" stroke-width="6.0" stroke-linecap="round" stroke-linejoin="round" />
<path d="M 156.25 198.75 L 151.25 203.75 L 142.5 213.75 L 128.75 232.5 L 108.75 255.0 L 95.0 265.0 L 93.75 265.0 " stroke="black" fill="none" stroke-width="6.0" stroke-linecap="round" stroke-linejoin="round" />
</svg>