<svg xmlns="http://www.w3.org/2000/svg" width="300" height="300" viewBox="0 0 300 300">
<path d="M 96.25 81.25 L 95.0 80.0 L 95.0 78.75 L 100.0 83.75 L 110.0 97.5 L 118.75 110.0 L 122.5 116.25 L 121.25 116.25 " stroke="black" fill="none" stroke-width="6.0" stroke-linecap="round" stroke-linejoin="round" />
<path d="M 97.5 83.75 L 96.25 82.5 L 92.5 82.5 L 92.5 81.25 L 101.25 77.5 L 122.5 70.0 L 152.5 61.25 L 186.25 53.75 L 207.5 52.5 L 213.75 55.0 L 213.75 60.0 L 205.0 72.5 L 192.5 86.25 L 181.25 96.25 L 158.75 106.25 L 155.0 107.5 " stroke="black" fill="none" stroke-width="6.0" stroke-linecap="round" stroke-linejoin="round" />
<path d="M 141.25 80.0 L 140.0 80.0 L 138.75 80.0 L 137.5 82.5 L 137.5 92.5 L 138.75 102.5 L 138.75 106.25 " stroke="black" fill="none" stroke-width="6.0" stroke-linecap="round" stroke-linejoin="round" />
<path d="M 162.5 68.75 L 162.5 68.75 L 163.75 70.0 L 162.5 78.75 L 153.75 95.0 L 142.5 110.0 L 131.25 118.75 L 127.5 121.25 L 131.25 121.25 L 145.0 117.5 L 161.25 108.75 L 180.0 97.5 L 186.25 93.75 " stroke="black" fill="none" stroke-width="6.0" stroke-linecap="round" stroke-linejoin="round" />
<path d="M 107.5 143.75 L 107.5 143.75 L 106.25 142.5 L 106.25 141.25 L 108.75 140.0 L 116.25 140.0 L 121.25 141.25 L 122.5 143.75 L 120.0 150.0 L 112.5 156.25 L 105.0 162.5 L 100.0 167.5 L 100.0 170.0 L 106.25 170.0 L 116.25 170.0 L 125.0 167.5 L 128.75 166.25 L 128.75 167.5 L 122.5 173.75 L 117.5 181.25 L 115.0 185.0 L 115.0 188.75 L 120.0 188.75 L 127.5 188.75 L 133.75 190.0 L 135.0 193.75 L 130.0 203.75 L 118.75 216.25 L 107.5 227.5 L 96.25 233.75 L 95.0 233.75 " stroke="black" fill="none" stroke-width="6.0" stroke-linecap="round" stroke-linejoin="round" />
<path d="M 78.75 203.75 L 77.5 203.75 L 75.0 203.75 L 75.0 203.75 L 81.25 210.0 L 91.25 223.75 L 98.75 237.5 L 102.5 246.25 L 101.25 247.5 L 100.0 245.0 " stroke="black" fill="none" stroke-width="6.0" stroke-linecap="round" stroke-linejoin="round" />
<path d="M 97.5 211.25 L 97.5 210.0 L 96.25 208.75 L 96.25 208.75 L 100.0 211.25 L 105.0 220.0 L 108.75 227.5 L 110.0 235.0 L 110.0 235.0 L 110.0 235.0 " stroke="black" fill="none" stroke-width="6.0" stroke-linecap="round" stroke-linejoin="round" />
<path d="M 112.5 208.75 L 112.5 207.5 L 112.5 207.5 L 113.75 206.25 L 121.25 210.0 L 133.75 218.75 L 143.75 232.5 " stroke="black" fill="none" stroke-width="6.0" stroke-linecap="round" stroke-linejoin="round" />
<path d="M 167.5 126.25 L 167.5 125.0 L 166.25 125.0 L 163.75 125.0 L 160.0 136.25 L 153.75 158.75 L 151.25 173.75 L 151.25 175.0 L 155.0 165.0 L 160.0 155.0 L 165.0 146.25 L 168.75 138.75 L 171.25 136.25 L 173.75 141.25 L 175.0 166.25 L 175.0 201.25 L 172.5 235.0 L 170.0 252.5 L 167.5 252.5 L 167.5 248.75 " stroke="black" fill="none" stroke-width="6.0" stroke-linecap="round" stroke-linejoin="round" />
<path d="M 182.5 138.75 L 182.5 137.5 L 181.25 136.25 L 181.25 135.0 L 187.5 135.0 L 196.25 135.0 L 205.0 135.0 L 211.25 135.0 L 211.25 136.25 L 206.25 138.75 L 200.0 141.25 L 192.5 145.0 L 186.25 150.0 L 180.0 155.0 L 178.75 157.5 L 183.75 157.5 L 196.25 151.25 L 208.75 142.5 L 218.75 135.0 L 221.25 131.25 L 215.0 135.0 L 208.75 141.25 " stroke="black" fill="none" stroke-width="6.0" stroke-linecap="round" stroke-linejoin="round" />
<path d="M 183.75 190.0 L 182.5 192.5 L 185.0 192.5 L 196.25 186.25 L 210.0 173.75 L 222.5 161.25 L 227.5 152.5 L 223.75 152.5 L 217.5 152.5 L 211.25 153.75 L 206.25 153.75 L 203.75 153.75 L 202.5 152.5 L 202.5 155.0 L 205.0 167.5 L 207.5 191.25 L 207.5 216.25 L 207.5 227.5 L 206.25 230.0 L 203.75 225.0 " stroke="black" fill="none" stroke-width="6.0" stroke-linecap="round" stroke-linejoin="round" />
<path d="M 197.5 207.5 L 196.25 207.5 L 193.75 208.75 L 192.5 208.75 L 197.5 206.25 L 208.75 200.0 L 222.5 192.5 L 231.25 186.25 L 232.5 185.0 " stroke="black" fill="none" stroke-width="6.0" stroke-linecap="round" stroke-linejoin="round" />
<path d="M 200.0 227.5 L 198.75 233.75 L 198.75 235.0 L 207.5 231.25 L 221.25 221.25 L 236.25 210.0 L 246.25 202.5 L 247.5 201.25 L 245.0 201.25 " stroke="black" fill="none" stroke-width="6.0" stroke-linecap="round" stroke-linejoin="round" />
</svg>