<svg xmlns="http://www.w3.org/2000/svg" width="300" height="300" viewBox="0 0 300 300">
<path d="M 83.75 87.5 L 83.75 87.5 L 83.75 87.5 L 90.0 87.5 L 102.5 88.75 L 117.5 91.25 L 122.5 95.0 L 122.5 96.25 " stroke="black" fill="none" stroke-width="6.0" stroke-linecap="round" stroke-linejoin="round" />
<path d="M 52.5 135.0 L 50.0 136.25 L 50.0 136.25 L 63.75 133.75 L 86.25 127.5 L 108.75 118.75 L 122.5 112.5 L 118.75 111.25 " stroke="black" fill="none" stroke-width="6.0" stroke-linecap="round" stroke-linejoin="round" />
<path d="M 73.75 155.0 L 71.25 157.5 L 71.25 158.75 L 76.25 157.5 L 90.0 151.25 L 102.5 142.5 L 111.25 136.25 L 108.75 136.25 L 106.25 137.5 " stroke="black" fill="none" stroke-width="6.0" stroke-linecap="round" stroke-linejoin="round" />
<path d="M 68.75 183.75 L 66.25 185.0 L 65.0 187.5 L 71.25 186.25 L 86.25 178.75 L 102.5 166.25 L 113.75 157.5 L 111.25 156.25 " stroke="black" fill="none" stroke-width="6.0" stroke-linecap="round" stroke-linejoin="round" />
<path d="M 62.5 205.0 L 62.5 208.75 L 70.0 217.5 L 85.0 230.0 L 96.25 237.5 L 100.0 238.75 L 98.75 238.75 L 91.25 236.25 L 82.5 232.5 L 75.0 228.75 L 72.5 223.75 L 80.0 213.75 L 97.5 202.5 L 117.5 193.75 L 126.25 193.75 L 120.0 205.0 L 107.5 218.75 L 98.75 226.25 L 97.5 225.0 L 97.5 221.25 " stroke="black" fill="none" stroke-width="6.0" stroke-linecap="round" stroke-linejoin="round" />
<path d="M 160.0 93.75 L 158.75 95.0 L 157.5 95.0 L 162.5 95.0 L 173.75 91.25 L 187.5 85.0 L 197.5 77.5 L 198.75 75.0 L 192.5 73.75 L 185.0 73.75 L 180.0 73.75 L 176.25 77.5 L 175.0 92.5 L 173.75 118.75 L 170.0 140.0 L 167.5 143.75 L 167.5 142.5 L 170.0 137.5 L 181.25 130.0 L 193.75 122.5 L 205.0 118.75 L 210.0 117.5 L 206.25 123.75 L 195.0 133.75 " stroke="black" fill="none" stroke-width="6.0" stroke-linecap="round" stroke-linejoin="round" />
<path d="M 136.25 193.75 L 131.25 201.25 L 131.25 202.5 L 145.0 198.75 L 171.25 182.5 L 206.25 157.5 L 235.0 136.25 L 247.5 127.5 L 246.25 126.25 L 236.25 128.75 L 223.75 133.75 L 215.0 136.25 L 210.0 138.75 L 208.75 140.0 L 211.25 147.5 L 215.0 171.25 L 218.75 211.25 L 220.0 246.25 L 221.25 261.25 L 221.25 263.75 L 217.5 263.75 L 210.0 260.0 L 198.75 252.5 L 183.75 243.75 " stroke="black" fill="none" stroke-width="6.0" stroke-linecap="round" stroke-linejoin="round" />
<path d="M 165.0 188.75 L 165.0 188.75 L 165.0 188.75 L 166.25 187.5 L 173.75 192.5 L 188.75 206.25 L 195.0 216.25 " stroke="black" fill="none" stroke-width="6.0" stroke-linecap="round" stroke-linejoin="round" />
</svg>