<svg xmlns="http://www.w3.org/2000/svg" width="300" height="300" viewBox="0 0 300 300">
<path d="M 142.5 51.25 L 142.5 52.5 L 142.5 55.0 L 143.75 65.0 L 146.25 78.75 L 147.5 90.0 L 147.5 92.5 " stroke="black" fill="none" stroke-width="6.0" stroke-linecap="round" stroke-linejoin="round" />
<path d="M 113.75 75.0 L 113.75 72.5 L 113.75 71.25 L 117.5 71.25 L 125.0 75.0 L 135.0 82.5 L 136.25 85.0 " stroke="black" fill="none" stroke-width="6.0" stroke-linecap="round" stroke-linejoin="round" />
<path d="M 188.75 51.25 L 187.5 52.5 L 182.5 57.5 L 176.25 67.5 L 163.75 81.25 L 157.5 87.5 " stroke="black" fill="none" stroke-width="6.0" stroke-linecap="round" stroke-linejoin="round" />
<path d="M 95.0 98.75 L 95.0 98.75 L 92.5 101.25 L 91.25 105.0 L 91.25 117.5 L 91.25 132.5 L 91.25 141.25 L 92.5 142.5 " stroke="black" fill="none" stroke-width="6.0" stroke-linecap="round" stroke-linejoin="round" />
<path d="M 100.0 103.75 L 100.0 103.75 L 98.75 103.75 L 108.75 102.5 L 136.25 98.75 L 171.25 93.75 L 201.25 92.5 L 212.5 93.75 L 210.0 96.25 L 200.0 102.5 L 185.0 108.75 L 168.75 113.75 " stroke="black" fill="none" stroke-width="6.0" stroke-linecap="round" stroke-linejoin="round" />
<path d="M 130.0 122.5 L 127.5 122.5 L 126.25 122.5 L 126.25 126.25 L 128.75 133.75 L 132.5 141.25 L 135.0 145.0 L 135.0 145.0 " stroke="black" fill="none" stroke-width="6.0" stroke-linecap="round" stroke-linejoin="round" />
<path d="M 133.75 126.25 L 132.5 123.75 L 131.25 122.5 L 133.75 120.0 L 145.0 118.75 L 160.0 116.25 L 172.5 116.25 L 176.25 117.5 L 168.75 123.75 L 155.0 132.5 L 141.25 141.25 L 130.0 147.5 L 126.25 148.75 L 132.5 147.5 L 146.25 141.25 L 160.0 133.75 L 172.5 126.25 L 175.0 123.75 " stroke="black" fill="none" stroke-width="6.0" stroke-linecap="round" stroke-linejoin="round" />
<path d="M 126.25 161.25 L 126.25 161.25 L 125.0 161.25 L 123.75 161.25 L 122.5 162.5 L 122.5 175.0 L 123.75 198.75 L 126.25 220.0 L 128.75 228.75 L 128.75 228.75 L 128.75 222.5 " stroke="black" fill="none" stroke-width="6.0" stroke-linecap="round" stroke-linejoin="round" />
<path d="M 131.25 176.25 L 130.0 173.75 L 127.5 171.25 L 127.5 170.0 L 136.25 167.5 L 148.75 161.25 L 163.75 155.0 L 178.75 151.25 L 187.5 152.5 L 190.0 163.75 L 190.0 186.25 L 188.75 210.0 L 187.5 225.0 L 187.5 232.5 L 186.25 232.5 L 183.75 231.25 L 180.0 226.25 " stroke="black" fill="none" stroke-width="6.0" stroke-linecap="round" stroke-linejoin="round" />
<path d="M 133.75 198.75 L 132.5 198.75 L 127.5 200.0 L 128.75 200.0 L 141.25 195.0 L 156.25 187.5 L 170.0 178.75 L 177.5 171.25 L 177.5 170.0 " stroke="black" fill="none" stroke-width="6.0" stroke-linecap="round" stroke-linejoin="round" />
<path d="M 136.25 208.75 L 136.25 208.75 L 136.25 211.25 L 140.0 210.0 L 151.25 203.75 L 167.5 195.0 L 177.5 186.25 L 177.5 185.0 " stroke="black" fill="none" stroke-width="6.0" stroke-linecap="round" stroke-linejoin="round" />
<path d="M 135.0 236.25 L 131.25 240.0 L 131.25 242.5 L 141.25 238.75 L 157.5 228.75 L 176.25 216.25 L 190.0 207.5 L 188.75 207.5 L 176.25 218.75 L 160.0 237.5 L 145.0 255.0 L 136.25 266.25 L 135.0 266.25 " stroke="black" fill="none" stroke-width="6.0" stroke-linecap="round" stroke-linejoin="round" />
<path d="M 170.0 232.5 L 171.25 232.5 L 173.75 236.25 L 185.0 243.75 L 200.0 256.25 L 213.75 265.0 L 220.0 267.5 L 220.0 267.5 L 217.5 267.5 " stroke="black" fill="none" stroke-width="6.0" stroke-linecap="round" stroke-linejoin="round" />
</svg>