<svg xmlns="http://www.w3.org/2000/svg" width="300" height="300" viewBox="0 0 300 300">
<path d="M 76.25 128.75 L 73.75 128.75 L 70.0 132.5 L 70.0 142.5 L 71.25 158.75 L 75.0 168.75 L 80.0 171.25 L 90.0 165.0 L 102.5 153.75 L 115.0 143.75 L 125.0 135.0 L 127.5 130.0 L 125.0 127.5 L 120.0 127.5 L 115.0 126.25 L 111.25 123.75 L 107.5 120.0 L 103.75 116.25 L 102.5 111.25 L 101.25 108.75 L 101.25 108.75 L 101.25 117.5 L 103.75 150.0 L 106.25 198.75 L 107.5 232.5 L 107.5 245.0 L 106.25 246.25 L 103.75 245.0 " stroke="black" fill="none" stroke-width="6.0" stroke-linecap="round" stroke-linejoin="round" />
<path d="M 157.5 87.5 L 157.5 86.25 L 157.5 83.75 L 157.5 88.75 L 161.25 110.0 L 165.0 133.75 L 166.25 150.0 L 163.75 155.0 L 160.0 152.5 " stroke="black" fill="none" stroke-width="6.0" stroke-linecap="round" stroke-linejoin="round" />
<path d="M 153.75 97.5 L 153.75 97.5 L 153.75 96.25 L 153.75 93.75 L 162.5 90.0 L 178.75 83.75 L 193.75 77.5 L 198.75 76.25 L 195.0 80.0 L 191.25 82.5 " stroke="black" fill="none" stroke-width="6.0" stroke-linecap="round" stroke-linejoin="round" />
<path d="M 165.0 111.25 L 163.75 115.0 L 163.75 116.25 L 167.5 115.0 L 178.75 110.0 L 190.0 102.5 L 197.5 96.25 L 198.75 95.0 L 192.5 98.75 L 190.0 100.0 " stroke="black" fill="none" stroke-width="6.0" stroke-linecap="round" stroke-linejoin="round" />
<path d="M 168.75 131.25 L 166.25 133.75 L 165.0 137.5 L 170.0 137.5 L 182.5 132.5 L 197.5 123.75 L 206.25 115.0 L 207.5 110.0 L 203.75 110.0 " stroke="black" fill="none" stroke-width="6.0" stroke-linecap="round" stroke-linejoin="round" />
<path d="M 132.5 181.25 L 128.75 185.0 L 133.75 185.0 L 150.0 177.5 L 175.0 161.25 L 200.0 146.25 L 211.25 138.75 L 210.0 137.5 L 207.5 137.5 " stroke="black" fill="none" stroke-width="6.0" stroke-linecap="round" stroke-linejoin="round" />
<path d="M 166.25 170.0 L 158.75 191.25 L 157.5 218.75 L 162.5 242.5 L 170.0 252.5 L 181.25 255.0 L 192.5 252.5 L 205.0 240.0 L 213.75 225.0 L 223.75 208.75 L 231.25 193.75 L 232.5 182.5 L 227.5 177.5 L 215.0 178.75 L 202.5 186.25 L 191.25 196.25 L 182.5 203.75 L 178.75 207.5 L 178.75 208.75 L 181.25 207.5 L 183.75 207.5 L 185.0 206.25 L 186.25 205.0 L 187.5 205.0 L 187.5 203.75 L 188.75 203.75 L 190.0 203.75 L 193.75 203.75 L 205.0 206.25 L 226.25 215.0 L 248.75 223.75 L 262.5 227.5 L 267.5 227.5 " stroke="black" fill="none" stroke-width="6.0" stroke-linecap="round" stroke-linejoin="round" />
</svg>