<svg xmlns="http://www.w3.org/2000/svg" width="300" height="300" viewBox="0 0 300 300">
<path d="M 145.0 61.25 L 142.5 61.25 L 140.0 62.5 L 141.25 63.75 L 150.0 67.5 L 163.75 71.25 L 175.0 75.0 L 176.25 76.25 " stroke="black" fill="none" stroke-width="6.0" stroke-linecap="round" stroke-linejoin="round" />
<path d="M 91.25 103.75 L 90.0 105.0 L 92.5 106.25 L 115.0 105.0 L 151.25 97.5 L 183.75 86.25 L 200.0 77.5 L 201.25 73.75 L 197.5 73.75 " stroke="black" fill="none" stroke-width="6.0" stroke-linecap="round" stroke-linejoin="round" />
<path d="M 155.0 88.75 L 152.5 90.0 L 146.25 98.75 L 142.5 110.0 L 141.25 128.75 L 141.25 138.75 L 140.0 140.0 " stroke="black" fill="none" stroke-width="6.0" stroke-linecap="round" stroke-linejoin="round" />
<path d="M 172.5 96.25 L 175.0 100.0 L 175.0 106.25 L 167.5 117.5 L 156.25 130.0 L 143.75 138.75 L 126.25 143.75 L 106.25 147.5 L 96.25 150.0 L 96.25 151.25 L 110.0 150.0 L 136.25 143.75 L 163.75 133.75 L 190.0 123.75 L 201.25 117.5 L 196.25 116.25 L 182.5 122.5 L 165.0 132.5 L 147.5 141.25 L 136.25 150.0 L 125.0 176.25 L 125.0 198.75 L 131.25 210.0 L 136.25 213.75 L 137.5 213.75 L 136.25 210.0 L 133.75 207.5 " stroke="black" fill="none" stroke-width="6.0" stroke-linecap="round" stroke-linejoin="round" />
<path d="M 122.5 173.75 L 123.75 171.25 L 133.75 166.25 L 151.25 160.0 L 171.25 155.0 L 182.5 155.0 L 181.25 158.75 L 167.5 170.0 L 152.5 181.25 L 136.25 190.0 L 123.75 196.25 L 118.75 197.5 L 125.0 196.25 L 142.5 190.0 L 161.25 181.25 L 180.0 172.5 L 186.25 170.0 L 181.25 175.0 L 165.0 188.75 L 150.0 201.25 L 137.5 211.25 L 135.0 212.5 L 143.75 208.75 L 158.75 197.5 L 173.75 187.5 L 181.25 177.5 L 180.0 176.25 " stroke="black" fill="none" stroke-width="6.0" stroke-linecap="round" stroke-linejoin="round" />
<path d="M 92.5 206.25 L 88.75 212.5 L 88.75 225.0 L 96.25 248.75 L 103.75 268.75 L 115.0 277.5 L 118.75 276.25 " stroke="black" fill="none" stroke-width="6.0" stroke-linecap="round" stroke-linejoin="round" />
<path d="M 155.0 235.0 L 161.25 248.75 L 175.0 261.25 L 192.5 270.0 L 205.0 268.75 L 212.5 261.25 L 215.0 252.5 L 211.25 243.75 L 200.0 238.75 L 181.25 232.5 L 158.75 231.25 L 148.75 231.25 L 152.5 232.5 L 180.0 231.25 L 212.5 220.0 L 240.0 207.5 L 250.0 201.25 L 250.0 200.0 " stroke="black" fill="none" stroke-width="6.0" stroke-linecap="round" stroke-linejoin="round" />
</svg>