<svg xmlns="http://www.w3.org/2000/svg" width="300" height="300" viewBox="0 0 300 300">
<path d="M 92.5 100.0 L 91.25 101.25 L 82.5 105.0 L 82.5 106.25 L 91.25 106.25 L 113.75 101.25 L 143.75 91.25 L 175.0 78.75 L 192.5 71.25 L 193.75 68.75 L 183.75 68.75 L 170.0 67.5 L 156.25 65.0 L 146.25 62.5 L 138.75 61.25 L 135.0 70.0 L 127.5 102.5 L 113.75 161.25 L 102.5 197.5 L 95.0 208.75 L 93.75 210.0 " stroke="black" fill="none" stroke-width="6.0" stroke-linecap="round" stroke-linejoin="round" />
<path d="M 131.25 140.0 L 131.25 140.0 L 130.0 148.75 L 127.5 180.0 L 123.75 217.5 L 121.25 241.25 L 118.75 248.75 " stroke="black" fill="none" stroke-width="6.0" stroke-linecap="round" stroke-linejoin="round" />
<path d="M 133.75 147.5 L 135.0 138.75 L 137.5 133.75 L 146.25 130.0 L 158.75 127.5 L 171.25 132.5 L 181.25 152.5 L 183.75 190.0 L 182.5 220.0 L 180.0 240.0 L 178.75 250.0 L 177.5 251.25 L 176.25 251.25 L 173.75 246.25 L 168.75 238.75 L 162.5 227.5 L 156.25 218.75 " stroke="black" fill="none" stroke-width="6.0" stroke-linecap="round" stroke-linejoin="round" />
<path d="M 130.0 188.75 L 128.75 186.25 L 123.75 185.0 L 125.0 182.5 L 137.5 175.0 L 156.25 162.5 L 171.25 152.5 L 175.0 148.75 " stroke="black" fill="none" stroke-width="6.0" stroke-linecap="round" stroke-linejoin="round" />
<path d="M 137.5 203.75 L 136.25 203.75 L 131.25 206.25 L 137.5 206.25 L 153.75 196.25 L 177.5 178.75 " stroke="black" fill="none" stroke-width="6.0" stroke-linecap="round" stroke-linejoin="round" />
</svg>