<svg xmlns="http://www.w3.org/2000/svg" width="300" height="300" viewBox="0 0 300 300">
<path d="M 110.0 93.75 L 110.0 95.0 L 106.25 95.0 L 106.25 95.0 L 116.25 95.0 L 140.0 93.75 L 170.0 87.5 L 196.25 81.25 L 205.0 80.0 L 201.25 80.0 L 197.5 81.25 " stroke="black" fill="none" stroke-width="6.0" stroke-linecap="round" stroke-linejoin="round" />
<path d="M 101.25 162.5 L 102.5 165.0 L 102.5 170.0 L 112.5 171.25 L 135.0 163.75 L 161.25 152.5 L 186.25 138.75 L 198.75 128.75 L 196.25 122.5 " stroke="black" fill="none" stroke-width="6.0" stroke-linecap="round" stroke-linejoin="round" />
<path d="M 151.25 97.5 L 152.5 102.5 L 152.5 110.0 L 152.5 133.75 L 148.75 166.25 L 140.0 197.5 L 128.75 217.5 L 116.25 228.75 L 106.25 232.5 L 101.25 230.0 L 100.0 216.25 L 102.5 208.75 " stroke="black" fill="none" stroke-width="6.0" stroke-linecap="round" stroke-linejoin="round" />
<path d="M 148.75 161.25 L 152.5 161.25 L 158.75 162.5 L 168.75 171.25 L 181.25 188.75 L 198.75 208.75 L 215.0 221.25 L 231.25 231.25 L 246.25 238.75 L 253.75 242.5 L 256.25 247.5 L 255.0 251.25 " stroke="black" fill="none" stroke-width="6.0" stroke-linecap="round" stroke-linejoin="round" />
</svg>