<svg xmlns="http://www.w3.org/2000/svg" width="300" height="300" viewBox="0 0 300 300">
<path d="M 115.0 98.75 L 115.0 100.0 L 115.0 100.0 L 125.0 100.0 L 147.5 98.75 L 181.25 92.5 L 203.75 87.5 L 210.0 85.0 L 208.75 85.0 " stroke="black" fill="none" stroke-width="6.0" stroke-linecap="round" stroke-linejoin="round" />
<path d="M 86.25 173.75 L 85.0 176.25 L 87.5 177.5 L 105.0 173.75 L 140.0 157.5 L 172.5 142.5 L 193.75 131.25 L 198.75 125.0 L 197.5 122.5 " stroke="black" fill="none" stroke-width="6.0" stroke-linecap="round" stroke-linejoin="round" />
<path d="M 142.5 108.75 L 143.75 110.0 L 145.0 113.75 L 147.5 131.25 L 148.75 163.75 L 138.75 203.75 L 127.5 225.0 L 112.5 241.25 L 98.75 247.5 L 91.25 243.75 L 90.0 242.5 " stroke="black" fill="none" stroke-width="6.0" stroke-linecap="round" stroke-linejoin="round" />
<path d="M 147.5 161.25 L 148.75 162.5 L 152.5 165.0 L 165.0 178.75 L 183.75 200.0 L 198.75 218.75 L 227.5 245.0 L 248.75 256.25 L 261.25 263.75 L 266.25 267.5 L 267.5 271.25 L 266.25 272.5 " stroke="black" fill="none" stroke-width="6.0" stroke-linecap="round" stroke-linejoin="round" />
</svg>