<svg xmlns="http://www.w3.org/2000/svg" width="300" height="300" viewBox="0 0 300 300">
<path d="M 116.25 101.25 L 113.75 103.75 L 113.75 105.0 L 123.75 106.25 L 145.0 103.75 L 173.75 92.5 L 195.0 82.5 L 202.5 77.5 L 198.75 76.25 L 196.25 77.5 " stroke="black" fill="none" stroke-width="6.0" stroke-linecap="round" stroke-linejoin="round" />
<path d="M 81.25 181.25 L 77.5 185.0 L 78.75 186.25 L 90.0 187.5 L 115.0 180.0 L 153.75 161.25 L 185.0 143.75 L 198.75 133.75 L 200.0 130.0 L 197.5 130.0 " stroke="black" fill="none" stroke-width="6.0" stroke-linecap="round" stroke-linejoin="round" />
<path d="M 152.5 113.75 L 152.5 117.5 L 150.0 132.5 L 146.25 165.0 L 135.0 200.0 L 122.5 221.25 L 108.75 235.0 L 96.25 238.75 L 93.75 237.5 " stroke="black" fill="none" stroke-width="6.0" stroke-linecap="round" stroke-linejoin="round" />
<path d="M 143.75 168.75 L 143.75 170.0 L 148.75 175.0 L 165.0 191.25 L 187.5 208.75 L 207.5 225.0 L 226.25 237.5 L 243.75 246.25 L 253.75 252.5 L 258.75 255.0 L 258.75 257.5 " stroke="black" fill="none" stroke-width="6.0" stroke-linecap="round" stroke-linejoin="round" />
</svg>