<svg xmlns="http://www.w3.org/2000/svg" width="300" height="300" viewBox="0 0 300 300">
<path d="M 70.0 132.5 L 67.5 137.5 L 65.0 141.25 L 75.0 141.25 L 91.25 135.0 L 108.75 123.75 L 121.25 111.25 L 123.75 107.5 " stroke="black" fill="none" stroke-width="6.0" stroke-linecap="round" stroke-linejoin="round" />
<path d="M 92.5 135.0 L 92.5 145.0 L 95.0 157.5 L 97.5 178.75 L 96.25 197.5 L 88.75 206.25 L 80.0 208.75 L 71.25 210.0 L 68.75 210.0 L 71.25 208.75 L 85.0 202.5 L 100.0 193.75 L 118.75 180.0 " stroke="black" fill="none" stroke-width="6.0" stroke-linecap="round" stroke-linejoin="round" />
<path d="M 152.5 95.0 L 150.0 97.5 L 145.0 101.25 L 145.0 102.5 L 156.25 100.0 L 175.0 93.75 L 195.0 86.25 L 208.75 78.75 L 210.0 75.0 L 200.0 78.75 L 188.75 86.25 L 177.5 92.5 L 167.5 100.0 L 161.25 115.0 L 158.75 136.25 L 158.75 150.0 L 162.5 152.5 L 171.25 151.25 L 185.0 145.0 L 198.75 137.5 L 210.0 132.5 L 217.5 131.25 L 221.25 141.25 L 220.0 168.75 L 216.25 202.5 L 211.25 226.25 L 207.5 238.75 L 205.0 241.25 L 201.25 241.25 L 196.25 240.0 L 186.25 237.5 L 168.75 232.5 L 153.75 226.25 " stroke="black" fill="none" stroke-width="6.0" stroke-linecap="round" stroke-linejoin="round" />
</svg>