<svg xmlns="http://www.w3.org/2000/svg" width="300" height="300" viewBox="0 0 300 300">
<path d="M 77.5 103.75 L 73.75 103.75 L 73.75 103.75 L 83.75 102.5 L 98.75 100.0 L 116.25 98.75 L 126.25 100.0 L 123.75 107.5 L 107.5 122.5 L 91.25 136.25 L 76.25 146.25 L 67.5 150.0 L 70.0 150.0 L 85.0 143.75 L 102.5 135.0 L 118.75 128.75 L 130.0 126.25 L 128.75 131.25 L 115.0 147.5 L 98.75 163.75 L 85.0 175.0 L 76.25 176.25 L 72.5 167.5 L 72.5 153.75 L 72.5 140.0 L 72.5 125.0 L 70.0 112.5 L 66.25 111.25 L 65.0 128.75 L 65.0 161.25 L 70.0 201.25 L 76.25 225.0 L 82.5 228.75 L 90.0 223.75 L 97.5 211.25 L 106.25 197.5 L 113.75 186.25 L 117.5 178.75 L 118.75 176.25 L 118.75 176.25 L 117.5 177.5 L 117.5 182.5 L 118.75 193.75 L 123.75 206.25 L 131.25 213.75 L 137.5 212.5 L 138.75 211.25 " stroke="black" fill="none" stroke-width="6.0" stroke-linecap="round" stroke-linejoin="round" />
<path d="M 150.0 93.75 L 147.5 93.75 L 145.0 93.75 L 145.0 93.75 L 156.25 92.5 L 171.25 88.75 L 188.75 86.25 L 197.5 83.75 L 198.75 83.75 L 188.75 93.75 L 173.75 112.5 L 155.0 136.25 L 143.75 157.5 L 145.0 163.75 L 153.75 163.75 L 171.25 158.75 L 195.0 145.0 L 212.5 130.0 L 221.25 117.5 L 222.5 111.25 L 216.25 110.0 L 208.75 110.0 " stroke="black" fill="none" stroke-width="6.0" stroke-linecap="round" stroke-linejoin="round" />
<path d="M 185.0 98.75 L 183.75 98.75 L 181.25 97.5 L 180.0 100.0 L 177.5 127.5 L 167.5 185.0 L 157.5 225.0 L 152.5 240.0 L 148.75 240.0 L 148.75 237.5 " stroke="black" fill="none" stroke-width="6.0" stroke-linecap="round" stroke-linejoin="round" />
<path d="M 183.75 150.0 L 183.75 151.25 L 183.75 155.0 L 187.5 171.25 L 196.25 207.5 L 203.75 233.75 L 215.0 246.25 L 230.0 250.0 L 243.75 250.0 L 255.0 250.0 L 258.75 247.5 L 258.75 246.25 L 258.75 243.75 L 258.75 241.25 L 258.75 233.75 L 258.75 218.75 L 260.0 191.25 L 260.0 141.25 " stroke="black" fill="none" stroke-width="6.0" stroke-linecap="round" stroke-linejoin="round" />
</svg>