<svg xmlns="http://www.w3.org/2000/svg" width="300" height="300" viewBox="0 0 300 300">
<path d="M 143.75 82.5 L 143.75 81.25 L 140.0 78.75 L 140.0 77.5 L 142.5 77.5 L 148.75 81.25 L 155.0 91.25 L 160.0 101.25 L 161.25 106.25 " stroke="black" fill="none" stroke-width="6.0" stroke-linecap="round" stroke-linejoin="round" />
<path d="M 186.25 73.75 L 187.5 73.75 L 188.75 75.0 L 188.75 81.25 L 186.25 90.0 L 180.0 101.25 L 170.0 111.25 L 156.25 117.5 L 145.0 120.0 L 132.5 123.75 L 120.0 128.75 L 116.25 130.0 L 120.0 130.0 L 136.25 130.0 L 156.25 122.5 L 178.75 113.75 L 198.75 103.75 L 205.0 100.0 L 202.5 100.0 L 191.25 106.25 L 176.25 120.0 L 157.5 141.25 L 136.25 171.25 L 123.75 192.5 L 118.75 200.0 L 118.75 198.75 L 120.0 196.25 " stroke="black" fill="none" stroke-width="6.0" stroke-linecap="round" stroke-linejoin="round" />
<path d="M 155.0 146.25 L 155.0 146.25 L 156.25 143.75 L 161.25 143.75 L 171.25 146.25 L 186.25 157.5 L 193.75 175.0 L 188.75 197.5 L 171.25 216.25 L 156.25 225.0 L 147.5 226.25 L 147.5 217.5 L 148.75 207.5 " stroke="black" fill="none" stroke-width="6.0" stroke-linecap="round" stroke-linejoin="round" />
<path d="M 183.75 143.75 L 182.5 143.75 L 177.5 145.0 L 168.75 151.25 L 156.25 168.75 L 145.0 190.0 L 140.0 200.0 L 140.0 197.5 " stroke="black" fill="none" stroke-width="6.0" stroke-linecap="round" stroke-linejoin="round" />
<path d="M 183.75 153.75 L 186.25 153.75 L 185.0 156.25 L 175.0 167.5 L 162.5 185.0 L 153.75 200.0 L 151.25 203.75 L 151.25 202.5 " stroke="black" fill="none" stroke-width="6.0" stroke-linecap="round" stroke-linejoin="round" />
<path d="M 216.25 136.25 L 218.75 132.5 L 220.0 131.25 L 218.75 131.25 L 211.25 137.5 L 202.5 147.5 L 192.5 157.5 L 183.75 165.0 L 182.5 166.25 L 182.5 166.25 L 186.25 166.25 L 191.25 167.5 L 197.5 171.25 L 205.0 176.25 L 215.0 183.75 L 227.5 188.75 L 233.75 190.0 " stroke="black" fill="none" stroke-width="6.0" stroke-linecap="round" stroke-linejoin="round" />
<path d="M 77.5 92.5 L 76.25 92.5 L 70.0 92.5 L 68.75 92.5 L 73.75 93.75 L 87.5 95.0 L 100.0 98.75 L 106.25 101.25 " stroke="black" fill="none" stroke-width="6.0" stroke-linecap="round" stroke-linejoin="round" />
<path d="M 68.75 148.75 L 67.5 151.25 L 67.5 152.5 L 72.5 152.5 L 83.75 152.5 L 92.5 152.5 L 96.25 152.5 L 93.75 160.0 L 85.0 171.25 L 77.5 182.5 L 73.75 187.5 L 76.25 188.75 L 82.5 188.75 L 90.0 188.75 L 95.0 190.0 L 96.25 196.25 L 93.75 207.5 L 86.25 222.5 L 77.5 237.5 L 67.5 245.0 L 61.25 246.25 L 57.5 245.0 L 57.5 242.5 L 57.5 241.25 L 57.5 240.0 L 57.5 238.75 L 57.5 238.75 L 58.75 237.5 L 61.25 237.5 L 65.0 237.5 L 72.5 237.5 L 83.75 238.75 L 102.5 242.5 L 125.0 248.75 L 150.0 255.0 L 171.25 263.75 L 191.25 267.5 L 206.25 261.25 L 215.0 251.25 " stroke="black" fill="none" stroke-width="6.0" stroke-linecap="round" stroke-linejoin="round" />
</svg>