<svg xmlns="http://www.w3.org/2000/svg" width="300" height="300" viewBox="0 0 300 300">
<path d="M 80.0 95.0 L 75.0 98.75 L 77.5 98.75 L 100.0 92.5 L 137.5 83.75 L 175.0 73.75 L 198.75 65.0 L 202.5 60.0 L 197.5 60.0 " stroke="black" fill="none" stroke-width="6.0" stroke-linecap="round" stroke-linejoin="round" />
<path d="M 127.5 70.0 L 122.5 75.0 L 121.25 81.25 L 123.75 93.75 L 126.25 110.0 L 126.25 120.0 " stroke="black" fill="none" stroke-width="6.0" stroke-linecap="round" stroke-linejoin="round" />
<path d="M 152.5 71.25 L 152.5 72.5 L 150.0 78.75 L 148.75 90.0 L 145.0 107.5 L 143.75 111.25 " stroke="black" fill="none" stroke-width="6.0" stroke-linecap="round" stroke-linejoin="round" />
<path d="M 98.75 145.0 L 93.75 147.5 L 90.0 150.0 L 92.5 150.0 L 105.0 148.75 L 123.75 143.75 L 137.5 137.5 L 145.0 133.75 L 140.0 133.75 " stroke="black" fill="none" stroke-width="6.0" stroke-linecap="round" stroke-linejoin="round" />
<path d="M 83.75 173.75 L 82.5 173.75 L 81.25 175.0 L 90.0 172.5 L 106.25 163.75 L 130.0 152.5 L 142.5 143.75 L 145.0 140.0 L 136.25 141.25 L 127.5 143.75 L 118.75 150.0 L 110.0 156.25 L 105.0 167.5 L 102.5 183.75 L 102.5 197.5 L 102.5 200.0 L 103.75 197.5 " stroke="black" fill="none" stroke-width="6.0" stroke-linecap="round" stroke-linejoin="round" />
<path d="M 118.75 162.5 L 118.75 160.0 L 120.0 158.75 L 122.5 158.75 L 125.0 165.0 L 125.0 175.0 L 122.5 185.0 L 116.25 192.5 L 105.0 197.5 L 95.0 200.0 L 91.25 201.25 L 92.5 201.25 L 102.5 197.5 L 117.5 192.5 L 132.5 185.0 L 142.5 178.75 L 143.75 176.25 L 135.0 181.25 L 126.25 186.25 " stroke="black" fill="none" stroke-width="6.0" stroke-linecap="round" stroke-linejoin="round" />
<path d="M 97.5 212.5 L 95.0 215.0 L 90.0 221.25 L 91.25 222.5 L 98.75 220.0 L 112.5 212.5 L 128.75 202.5 L 141.25 192.5 L 146.25 186.25 L 143.75 185.0 L 137.5 186.25 L 132.5 190.0 L 130.0 193.75 L 127.5 201.25 L 127.5 215.0 L 127.5 237.5 L 126.25 253.75 L 123.75 258.75 L 118.75 258.75 L 112.5 256.25 L 105.0 253.75 L 100.0 251.25 L 98.75 246.25 L 106.25 238.75 L 122.5 225.0 L 146.25 205.0 L 170.0 180.0 L 183.75 155.0 L 185.0 140.0 L 176.25 130.0 L 166.25 126.25 L 158.75 125.0 L 157.5 125.0 L 158.75 127.5 L 167.5 131.25 L 178.75 135.0 L 190.0 136.25 L 200.0 136.25 L 205.0 136.25 L 206.25 137.5 " stroke="black" fill="none" stroke-width="6.0" stroke-linecap="round" stroke-linejoin="round" />
<path d="M 167.5 166.25 L 166.25 181.25 L 168.75 195.0 L 173.75 207.5 L 178.75 211.25 L 181.25 211.25 L 181.25 207.5 L 180.0 202.5 L 178.75 197.5 L 177.5 193.75 L 178.75 188.75 L 185.0 181.25 L 197.5 170.0 L 215.0 156.25 L 230.0 142.5 L 235.0 137.5 L 230.0 137.5 " stroke="black" fill="none" stroke-width="6.0" stroke-linecap="round" stroke-linejoin="round" />
<path d="M 210.0 160.0 L 207.5 168.75 L 207.5 186.25 L 208.75 210.0 L 211.25 238.75 L 211.25 255.0 L 211.25 261.25 L 207.5 262.5 L 202.5 263.75 L 198.75 263.75 " stroke="black" fill="none" stroke-width="6.0" stroke-linecap="round" stroke-linejoin="round" />
</svg>