<svg xmlns="http://www.w3.org/2000/svg" width="300" height="300" viewBox="0 0 300 300">
<path d="M 55.0 88.75 L 55.0 88.75 L 52.5 88.75 L 52.5 88.75 L 61.25 88.75 L 82.5 85.0 L 107.5 77.5 L 123.75 70.0 L 127.5 67.5 L 121.25 68.75 L 108.75 73.75 " stroke="black" fill="none" stroke-width="6.0" stroke-linecap="round" stroke-linejoin="round" />
<path d="M 82.5 90.0 L 81.25 91.25 L 76.25 97.5 L 75.0 108.75 L 76.25 121.25 L 81.25 127.5 L 85.0 125.0 L 87.5 115.0 " stroke="black" fill="none" stroke-width="6.0" stroke-linecap="round" stroke-linejoin="round" />
<path d="M 95.0 87.5 L 95.0 86.25 L 95.0 87.5 L 93.75 95.0 L 90.0 110.0 L 88.75 122.5 L 87.5 125.0 " stroke="black" fill="none" stroke-width="6.0" stroke-linecap="round" stroke-linejoin="round" />
<path d="M 111.25 82.5 L 111.25 82.5 L 110.0 85.0 L 107.5 92.5 L 102.5 105.0 L 96.25 118.75 L 91.25 126.25 " stroke="black" fill="none" stroke-width="6.0" stroke-linecap="round" stroke-linejoin="round" />
<path d="M 63.75 136.25 L 61.25 137.5 L 61.25 137.5 L 70.0 137.5 L 85.0 133.75 L 102.5 127.5 L 116.25 122.5 L 120.0 121.25 L 117.5 122.5 L 106.25 131.25 L 95.0 140.0 L 85.0 148.75 L 77.5 153.75 L 76.25 153.75 L 78.75 153.75 L 87.5 153.75 L 97.5 152.5 L 106.25 150.0 L 115.0 147.5 L 117.5 146.25 L 116.25 146.25 L 108.75 148.75 L 106.25 148.75 " stroke="black" fill="none" stroke-width="6.0" stroke-linecap="round" stroke-linejoin="round" />
<path d="M 52.5 177.5 L 52.5 177.5 L 51.25 178.75 L 52.5 192.5 L 53.75 221.25 L 56.25 247.5 L 57.5 257.5 L 58.75 257.5 L 57.5 248.75 L 57.5 246.25 " stroke="black" fill="none" stroke-width="6.0" stroke-linecap="round" stroke-linejoin="round" />
<path d="M 53.75 186.25 L 53.75 183.75 L 56.25 181.25 L 71.25 173.75 L 95.0 162.5 L 117.5 155.0 L 131.25 155.0 L 136.25 168.75 L 137.5 195.0 L 138.75 221.25 L 141.25 246.25 L 142.5 255.0 L 143.75 256.25 L 142.5 255.0 L 138.75 248.75 L 132.5 240.0 L 122.5 227.5 " stroke="black" fill="none" stroke-width="6.0" stroke-linecap="round" stroke-linejoin="round" />
<path d="M 91.25 165.0 L 88.75 167.5 L 86.25 176.25 L 83.75 193.75 L 82.5 206.25 L 83.75 210.0 L 90.0 206.25 L 97.5 197.5 L 106.25 188.75 L 111.25 180.0 L 113.75 176.25 L 113.75 176.25 L 112.5 180.0 L 111.25 188.75 L 110.0 198.75 L 108.75 207.5 L 103.75 213.75 L 102.5 215.0 " stroke="black" fill="none" stroke-width="6.0" stroke-linecap="round" stroke-linejoin="round" />
<path d="M 75.0 235.0 L 73.75 236.25 L 70.0 237.5 L 72.5 237.5 L 83.75 231.25 L 97.5 221.25 L 108.75 212.5 L 112.5 211.25 L 111.25 218.75 L 101.25 235.0 L 93.75 247.5 L 85.0 255.0 L 78.75 257.5 L 77.5 252.5 " stroke="black" fill="none" stroke-width="6.0" stroke-linecap="round" stroke-linejoin="round" />
<path d="M 77.5 227.5 L 77.5 227.5 L 76.25 227.5 L 75.0 230.0 L 81.25 236.25 L 92.5 243.75 L 107.5 247.5 L 120.0 247.5 L 125.0 247.5 " stroke="black" fill="none" stroke-width="6.0" stroke-linecap="round" stroke-linejoin="round" />
<path d="M 176.25 88.75 L 176.25 88.75 L 175.0 88.75 L 175.0 87.5 L 182.5 86.25 L 193.75 85.0 L 203.75 83.75 L 208.75 83.75 L 208.75 87.5 L 198.75 92.5 L 191.25 95.0 " stroke="black" fill="none" stroke-width="6.0" stroke-linecap="round" stroke-linejoin="round" />
<path d="M 152.5 117.5 L 148.75 120.0 L 150.0 121.25 L 162.5 120.0 L 183.75 112.5 L 205.0 101.25 L 217.5 91.25 L 220.0 90.0 L 210.0 91.25 L 202.5 95.0 L 195.0 98.75 L 186.25 106.25 L 180.0 116.25 L 175.0 133.75 L 172.5 153.75 L 172.5 162.5 L 172.5 161.25 " stroke="black" fill="none" stroke-width="6.0" stroke-linecap="round" stroke-linejoin="round" />
<path d="M 208.75 107.5 L 208.75 106.25 L 211.25 103.75 L 212.5 103.75 L 211.25 116.25 L 205.0 135.0 L 193.75 152.5 L 177.5 165.0 L 161.25 172.5 L 158.75 173.75 L 161.25 173.75 L 175.0 168.75 L 195.0 160.0 L 212.5 150.0 L 226.25 142.5 L 228.75 140.0 L 216.25 146.25 L 208.75 150.0 " stroke="black" fill="none" stroke-width="6.0" stroke-linecap="round" stroke-linejoin="round" />
<path d="M 151.25 213.75 L 151.25 213.75 L 151.25 215.0 L 157.5 213.75 L 183.75 202.5 L 213.75 185.0 L 235.0 168.75 L 240.0 162.5 L 235.0 162.5 L 222.5 165.0 L 210.0 166.25 L 201.25 165.0 L 197.5 162.5 L 197.5 158.75 L 198.75 156.25 L 200.0 156.25 L 202.5 162.5 L 205.0 185.0 L 205.0 220.0 L 202.5 251.25 L 200.0 265.0 L 196.25 270.0 L 190.0 272.5 L 177.5 273.75 " stroke="black" fill="none" stroke-width="6.0" stroke-linecap="round" stroke-linejoin="round" />
</svg>