<svg xmlns="http://www.w3.org/2000/svg" width="300" height="300" viewBox="0 0 300 300">
<path d="M 108.75 98.75 L 108.75 98.75 L 108.75 100.0 L 115.0 100.0 L 135.0 98.75 L 157.5 92.5 L 173.75 86.25 L 178.75 82.5 L 171.25 83.75 " stroke="black" fill="none" stroke-width="6.0" stroke-linecap="round" stroke-linejoin="round" />
<path d="M 112.5 130.0 L 112.5 130.0 L 112.5 130.0 L 118.75 130.0 L 138.75 123.75 L 160.0 115.0 L 173.75 107.5 L 175.0 103.75 " stroke="black" fill="none" stroke-width="6.0" stroke-linecap="round" stroke-linejoin="round" />
<path d="M 140.0 82.5 L 140.0 82.5 L 140.0 82.5 L 140.0 83.75 L 145.0 102.5 L 145.0 133.75 L 141.25 151.25 L 130.0 158.75 L 113.75 161.25 L 100.0 163.75 L 91.25 167.5 L 90.0 168.75 L 91.25 168.75 L 101.25 168.75 L 123.75 163.75 L 178.75 145.0 L 197.5 137.5 L 200.0 135.0 L 193.75 135.0 L 180.0 140.0 L 165.0 143.75 L 161.25 145.0 " stroke="black" fill="none" stroke-width="6.0" stroke-linecap="round" stroke-linejoin="round" />
<path d="M 130.0 187.5 L 122.5 197.5 L 107.5 221.25 L 100.0 241.25 L 97.5 246.25 L 97.5 245.0 " stroke="black" fill="none" stroke-width="6.0" stroke-linecap="round" stroke-linejoin="round" />
<path d="M 142.5 160.0 L 142.5 160.0 L 140.0 171.25 L 138.75 197.5 L 137.5 222.5 L 141.25 248.75 L 150.0 248.75 L 167.5 236.25 L 191.25 213.75 L 210.0 192.5 L 220.0 177.5 L 220.0 172.5 L 210.0 173.75 L 193.75 183.75 L 173.75 196.25 L 155.0 206.25 L 146.25 211.25 L 146.25 211.25 L 150.0 208.75 L 152.5 206.25 L 156.25 203.75 L 157.5 203.75 L 158.75 202.5 L 158.75 202.5 L 158.75 202.5 L 158.75 202.5 L 160.0 203.75 L 168.75 208.75 L 187.5 222.5 L 215.0 235.0 L 245.0 240.0 L 252.5 240.0 " stroke="black" fill="none" stroke-width="6.0" stroke-linecap="round" stroke-linejoin="round" />
</svg>