<svg xmlns="http://www.w3.org/2000/svg" width="300" height="300" viewBox="0 0 300 300">
<path d="M 101.24999999999972 137.5 L 99.99999999999972 137.5 L 94.99999999999972 137.5 L 92.49999999999972 137.5 L 92.49999999999972 137.5 L 101.24999999999972 138.75 L 122.49999999999972 138.75 L 146.24999999999972 137.5 L 171.24999999999972 133.75 L 188.74999999999972 130.0 L 192.49999999999972 128.75 L 189.99999999999972 128.75 L 181.24999999999972 128.75 L 167.49999999999972 133.75 L 163.74999999999972 135.0 " stroke="black" fill="none" stroke-width="6.0" stroke-linecap="round" stroke-linejoin="round" />
<path d="M 119.99999999999972 153.75 L 119.99999999999972 153.75 L 119.99999999999972 152.5 L 119.99999999999972 151.25 L 122.49999999999972 151.25 L 127.49999999999972 153.75 L 131.24999999999972 168.75 L 127.49999999999972 198.75 L 114.99999999999972 230.0 L 103.74999999999972 250.0 L 98.74999999999972 251.25 L 98.74999999999972 248.75 " stroke="black" fill="none" stroke-width="6.0" stroke-linecap="round" stroke-linejoin="round" />
<path d="M 163.74999999999972 143.75 L 163.74999999999972 143.75 L 163.74999999999972 143.75 L 163.74999999999972 143.75 L 163.74999999999972 158.75 L 163.74999999999972 190.0 L 167.49999999999972 217.5 L 178.74999999999972 228.75 L 192.49999999999972 228.75 L 207.49999999999972 215.0 L 222.49999999999972 198.75 L 234.99999999999972 182.5 L 238.74999999999972 167.5 " stroke="black" fill="none" stroke-width="6.0" stroke-linecap="round" stroke-linejoin="round" />
</svg>