<svg xmlns="http://www.w3.org/2000/svg" width="300" height="300" viewBox="0 0 300 300">
<path d="M 127.5 70.0 L 122.5 70.0 L 120.0 70.0 L 126.25 70.0 L 140.0 70.0 L 153.75 70.0 L 161.25 70.0 L 161.25 70.0 " stroke="black" fill="none" stroke-width="6.0" stroke-linecap="round" stroke-linejoin="round" />
<path d="M 90.0 97.5 L 88.75 97.5 L 86.25 97.5 L 90.0 97.5 L 110.0 91.25 L 146.25 80.0 L 182.5 66.25 L 197.5 60.0 L 195.0 60.0 L 188.75 61.25 " stroke="black" fill="none" stroke-width="6.0" stroke-linecap="round" stroke-linejoin="round" />
<path d="M 98.75 93.75 L 97.5 95.0 L 95.0 98.75 L 96.25 127.5 L 97.5 187.5 L 93.75 230.0 L 87.5 250.0 L 82.5 253.75 L 81.25 253.75 " stroke="black" fill="none" stroke-width="6.0" stroke-linecap="round" stroke-linejoin="round" />
<path d="M 120.0 110.0 L 113.75 113.75 L 115.0 113.75 L 132.5 112.5 L 153.75 105.0 L 178.75 95.0 L 195.0 88.75 L 198.75 87.5 L 192.5 95.0 L 180.0 105.0 L 166.25 116.25 L 162.5 118.75 " stroke="black" fill="none" stroke-width="6.0" stroke-linecap="round" stroke-linejoin="round" />
<path d="M 136.25 98.75 L 136.25 97.5 L 135.0 96.25 L 135.0 98.75 L 137.5 116.25 L 140.0 135.0 L 140.0 142.5 " stroke="black" fill="none" stroke-width="6.0" stroke-linecap="round" stroke-linejoin="round" />
<path d="M 158.75 90.0 L 158.75 88.75 L 158.75 88.75 L 158.75 93.75 L 157.5 112.5 L 151.25 132.5 L 143.75 143.75 L 137.5 145.0 L 136.25 145.0 L 136.25 145.0 L 145.0 140.0 L 156.25 132.5 L 167.5 123.75 L 176.25 116.25 " stroke="black" fill="none" stroke-width="6.0" stroke-linecap="round" stroke-linejoin="round" />
<path d="M 127.5 172.5 L 125.0 173.75 L 121.25 175.0 L 121.25 175.0 L 131.25 167.5 L 142.5 156.25 L 151.25 145.0 L 153.75 138.75 L 152.5 137.5 " stroke="black" fill="none" stroke-width="6.0" stroke-linecap="round" stroke-linejoin="round" />
<path d="M 115.0 148.75 L 113.75 155.0 L 115.0 167.5 L 122.5 182.5 L 135.0 191.25 L 145.0 190.0 L 155.0 177.5 L 166.25 161.25 L 176.25 146.25 L 183.75 138.75 L 186.25 136.25 L 186.25 137.5 L 185.0 138.75 L 185.0 138.75 L 190.0 135.0 L 197.5 130.0 L 202.5 123.75 L 202.5 122.5 " stroke="black" fill="none" stroke-width="6.0" stroke-linecap="round" stroke-linejoin="round" />
<path d="M 161.25 132.5 L 161.25 132.5 L 160.0 133.75 L 158.75 135.0 L 160.0 145.0 L 166.25 163.75 L 175.0 180.0 L 187.5 185.0 L 200.0 181.25 L 213.75 168.75 L 227.5 157.5 L 235.0 147.5 L 232.5 142.5 L 226.25 141.25 " stroke="black" fill="none" stroke-width="6.0" stroke-linecap="round" stroke-linejoin="round" />
<path d="M 140.0 220.0 L 138.75 221.25 L 133.75 222.5 L 137.5 222.5 L 151.25 220.0 L 168.75 212.5 L 185.0 203.75 L 193.75 197.5 L 191.25 196.25 " stroke="black" fill="none" stroke-width="6.0" stroke-linecap="round" stroke-linejoin="round" />
<path d="M 160.0 201.25 L 160.0 201.25 L 158.75 202.5 L 157.5 203.75 L 162.5 211.25 L 168.75 223.75 L 170.0 235.0 L 167.5 243.75 L 158.75 247.5 L 148.75 250.0 L 140.0 251.25 L 136.25 251.25 L 136.25 251.25 L 137.5 251.25 L 142.5 251.25 L 148.75 250.0 L 156.25 248.75 L 163.75 246.25 L 171.25 243.75 L 182.5 240.0 L 196.25 236.25 L 208.75 231.25 L 225.0 226.25 L 237.5 223.75 " stroke="black" fill="none" stroke-width="6.0" stroke-linecap="round" stroke-linejoin="round" />
</svg>