<svg xmlns="http://www.w3.org/2000/svg" width="300" height="300" viewBox="0 0 300 300">
<path d="M 100.0 106.25 L 98.75 108.75 L 97.5 125.0 L 100.0 160.0 L 102.5 197.5 L 103.75 213.75 L 103.75 215.0 L 102.5 208.75 " stroke="black" fill="none" stroke-width="6.0" stroke-linecap="round" stroke-linejoin="round" />
<path d="M 103.75 116.25 L 103.75 115.0 L 111.25 108.75 L 133.75 100.0 L 157.5 98.75 L 181.25 101.25 L 195.0 115.0 L 200.0 145.0 L 200.0 181.25 L 200.0 208.75 L 198.75 222.5 L 198.75 228.75 L 198.75 228.75 L 197.5 228.75 L 193.75 223.75 L 186.25 217.5 L 173.75 207.5 L 160.0 198.75 " stroke="black" fill="none" stroke-width="6.0" stroke-linecap="round" stroke-linejoin="round" />
<path d="M 110.0 227.5 L 116.25 225.0 L 132.5 218.75 L 153.75 212.5 L 177.5 203.75 L 188.75 201.25 L 193.75 200.0 " stroke="black" fill="none" stroke-width="6.0" stroke-linecap="round" stroke-linejoin="round" />
</svg>