<svg xmlns="http://www.w3.org/2000/svg" width="300" height="300" viewBox="0 0 300 300">
<path d="M 56.25 113.75 L 56.25 111.25 L 55.0 110.0 L 55.0 108.75 L 56.25 115.0 L 60.0 123.75 L 63.75 130.0 L 68.75 133.75 L 76.25 131.25 L 85.0 122.5 L 93.75 112.5 L 100.0 103.75 L 102.5 100.0 L 102.5 100.0 L 101.25 101.25 L 97.5 105.0 L 95.0 108.75 " stroke="black" fill="none" stroke-width="6.0" stroke-linecap="round" stroke-linejoin="round" />
<path d="M 57.5 180.0 L 53.75 183.75 L 52.5 187.5 L 55.0 187.5 L 67.5 182.5 L 83.75 168.75 L 98.75 152.5 L 108.75 138.75 L 108.75 135.0 L 103.75 135.0 " stroke="black" fill="none" stroke-width="6.0" stroke-linecap="round" stroke-linejoin="round" />
<path d="M 80.0 136.25 L 78.75 136.25 L 78.75 136.25 L 78.75 146.25 L 82.5 180.0 L 81.25 215.0 L 75.0 232.5 L 65.0 238.75 L 56.25 238.75 L 53.75 236.25 " stroke="black" fill="none" stroke-width="6.0" stroke-linecap="round" stroke-linejoin="round" />
<path d="M 80.0 180.0 L 81.25 180.0 L 82.5 181.25 L 91.25 191.25 L 105.0 211.25 L 118.75 231.25 L 127.5 241.25 L 130.0 243.75 L 127.5 243.75 L 121.25 243.75 " stroke="black" fill="none" stroke-width="6.0" stroke-linecap="round" stroke-linejoin="round" />
<path d="M 141.25 93.75 L 136.25 95.0 L 136.25 95.0 L 145.0 93.75 L 158.75 87.5 L 171.25 81.25 L 180.0 75.0 L 177.5 73.75 L 175.0 76.25 " stroke="black" fill="none" stroke-width="6.0" stroke-linecap="round" stroke-linejoin="round" />
<path d="M 141.25 113.75 L 138.75 122.5 L 141.25 138.75 L 147.5 157.5 L 152.5 167.5 L 155.0 170.0 L 155.0 170.0 L 152.5 163.75 L 151.25 156.25 L 148.75 148.75 L 145.0 143.75 L 142.5 138.75 L 140.0 136.25 L 142.5 133.75 L 153.75 128.75 L 173.75 120.0 L 191.25 115.0 L 193.75 116.25 L 187.5 128.75 L 175.0 143.75 L 160.0 157.5 L 147.5 168.75 L 145.0 171.25 L 148.75 168.75 L 158.75 160.0 L 171.25 150.0 L 181.25 141.25 L 186.25 138.75 L 182.5 140.0 L 175.0 147.5 L 167.5 161.25 L 162.5 185.0 L 161.25 208.75 L 163.75 222.5 L 167.5 225.0 L 170.0 225.0 L 170.0 220.0 L 168.75 215.0 " stroke="black" fill="none" stroke-width="6.0" stroke-linecap="round" stroke-linejoin="round" />
<path d="M 191.25 161.25 L 192.5 161.25 L 193.75 165.0 L 196.25 180.0 L 196.25 200.0 L 188.75 216.25 L 178.75 226.25 L 167.5 232.5 L 157.5 233.75 L 156.25 233.75 " stroke="black" fill="none" stroke-width="6.0" stroke-linecap="round" stroke-linejoin="round" />
<path d="M 150.0 233.75 L 147.5 233.75 L 146.25 233.75 L 146.25 233.75 L 146.25 232.5 L 147.5 232.5 L 148.75 231.25 L 150.0 231.25 L 152.5 231.25 L 152.5 231.25 L 153.75 231.25 L 153.75 231.25 L 153.75 231.25 L 153.75 231.25 L 153.75 231.25 L 155.0 231.25 L 155.0 231.25 L 160.0 231.25 L 176.25 228.75 L 203.75 221.25 L 228.75 215.0 L 242.5 213.75 L 245.0 213.75 L 245.0 213.75 L 243.75 213.75 L 240.0 213.75 " stroke="black" fill="none" stroke-width="6.0" stroke-linecap="round" stroke-linejoin="round" />
</svg>