<svg xmlns="http://www.w3.org/2000/svg" width="300" height="300" viewBox="0 0 300 300">
<path d="M 112.5 91.25 L 112.5 90.0 L 111.25 87.5 L 110.0 86.25 L 110.0 86.25 L 110.0 91.25 L 110.0 98.75 L 112.5 102.5 L 118.75 105.0 L 130.0 102.5 L 140.0 97.5 L 145.0 95.0 L 145.0 97.5 L 136.25 117.5 L 120.0 151.25 L 103.75 188.75 L 92.5 208.75 L 87.5 213.75 L 85.0 212.5 L 83.75 208.75 " stroke="black" fill="none" stroke-width="6.0" stroke-linecap="round" stroke-linejoin="round" />
<path d="M 90.0 138.75 L 90.0 137.5 L 88.75 135.0 L 90.0 135.0 L 97.5 135.0 L 108.75 137.5 L 120.0 140.0 L 121.25 143.75 " stroke="black" fill="none" stroke-width="6.0" stroke-linecap="round" stroke-linejoin="round" />
<path d="M 87.5 155.0 L 83.75 156.25 L 82.5 158.75 L 88.75 162.5 L 100.0 165.0 L 106.25 165.0 " stroke="black" fill="none" stroke-width="6.0" stroke-linecap="round" stroke-linejoin="round" />
<path d="M 153.75 131.25 L 152.5 133.75 L 151.25 136.25 L 153.75 136.25 L 168.75 131.25 L 188.75 118.75 L 206.25 102.5 L 215.0 92.5 L 215.0 88.75 L 207.5 88.75 L 200.0 91.25 L 193.75 92.5 L 188.75 95.0 L 185.0 100.0 L 181.25 115.0 L 176.25 146.25 L 168.75 178.75 L 161.25 192.5 L 155.0 193.75 L 152.5 191.25 L 152.5 190.0 " stroke="black" fill="none" stroke-width="6.0" stroke-linecap="round" stroke-linejoin="round" />
<path d="M 176.25 141.25 L 176.25 141.25 L 176.25 140.0 L 178.75 140.0 L 183.75 141.25 L 193.75 147.5 L 205.0 160.0 L 218.75 173.75 L 233.75 183.75 L 243.75 187.5 L 247.5 188.75 L 247.5 188.75 L 245.0 187.5 L 243.75 186.25 " stroke="black" fill="none" stroke-width="6.0" stroke-linecap="round" stroke-linejoin="round" />
<path d="M 226.25 83.75 L 226.25 82.5 L 225.0 81.25 L 227.5 83.75 L 233.75 92.5 L 241.25 105.0 L 246.25 113.75 " stroke="black" fill="none" stroke-width="6.0" stroke-linecap="round" stroke-linejoin="round" />
<path d="M 91.25 235.0 L 91.25 235.0 L 87.5 235.0 L 86.25 236.25 L 86.25 247.5 L 83.75 262.5 L 82.5 272.5 L 81.25 273.75 " stroke="black" fill="none" stroke-width="6.0" stroke-linecap="round" stroke-linejoin="round" />
<path d="M 128.75 220.0 L 130.0 220.0 L 136.25 225.0 L 145.0 238.75 L 150.0 252.5 L 150.0 260.0 L 150.0 260.0 L 150.0 257.5 " stroke="black" fill="none" stroke-width="6.0" stroke-linecap="round" stroke-linejoin="round" />
<path d="M 163.75 226.25 L 163.75 226.25 L 165.0 226.25 L 167.5 228.75 L 172.5 240.0 L 180.0 253.75 L 190.0 263.75 L 192.5 265.0 " stroke="black" fill="none" stroke-width="6.0" stroke-linecap="round" stroke-linejoin="round" />
<path d="M 217.5 220.0 L 217.5 220.0 L 217.5 216.25 L 218.75 216.25 L 222.5 220.0 L 230.0 236.25 L 237.5 255.0 L 242.5 270.0 L 242.5 273.75 " stroke="black" fill="none" stroke-width="6.0" stroke-linecap="round" stroke-linejoin="round" />
</svg>