<svg xmlns="http://www.w3.org/2000/svg" width="300" height="300" viewBox="0 0 300 300">
<path d="M 140.0 88.75 L 140.0 86.25 L 138.75 80.0 L 137.5 78.75 L 137.5 85.0 L 137.5 107.5 L 135.0 140.0 L 133.75 170.0 L 137.5 190.0 L 147.5 202.5 L 163.75 211.25 L 182.5 218.75 L 197.5 225.0 L 203.75 227.5 L 203.75 227.5 L 203.75 225.0 L 202.5 217.5 L 198.75 212.5 " stroke="black" fill="none" stroke-width="6.0" stroke-linecap="round" stroke-linejoin="round" />
<path d="M 180.0 97.5 L 181.25 95.0 L 181.25 92.5 L 185.0 100.0 L 185.0 136.25 L 172.5 195.0 L 157.5 231.25 L 143.75 250.0 L 125.0 256.25 L 106.25 255.0 " stroke="black" fill="none" stroke-width="6.0" stroke-linecap="round" stroke-linejoin="round" />
<path d="M 75.0 140.0 L 73.75 138.75 L 72.5 138.75 L 78.75 137.5 L 101.25 137.5 L 141.25 137.5 L 190.0 133.75 L 228.75 130.0 L 247.5 127.5 L 251.25 127.5 L 250.0 127.5 L 248.75 127.5 " stroke="black" fill="none" stroke-width="6.0" stroke-linecap="round" stroke-linejoin="round" />
</svg>