<svg xmlns="http://www.w3.org/2000/svg" width="300" height="300" viewBox="0 0 300 300">
<path d="M 110.0 100.0 L 111.25 98.75 L 112.5 93.75 L 116.25 97.5 L 120.0 125.0 L 116.25 165.0 L 110.0 197.5 L 110.0 211.25 L 118.75 216.25 L 141.25 220.0 L 163.75 230.0 L 186.25 237.5 L 195.0 240.0 L 197.5 240.0 L 195.0 238.75 L 186.25 232.5 L 185.0 230.0 " stroke="black" fill="none" stroke-width="6.0" stroke-linecap="round" stroke-linejoin="round" />
<path d="M 178.75 112.5 L 180.0 120.0 L 182.5 147.5 L 175.0 190.0 L 158.75 222.5 L 145.0 241.25 L 127.5 246.25 L 111.25 246.25 " stroke="black" fill="none" stroke-width="6.0" stroke-linecap="round" stroke-linejoin="round" />
<path d="M 47.5 171.25 L 45.0 170.0 L 46.25 167.5 L 68.75 163.75 L 110.0 158.75 L 157.5 148.75 L 201.25 140.0 L 223.75 138.75 L 226.25 138.75 " stroke="black" fill="none" stroke-width="6.0" stroke-linecap="round" stroke-linejoin="round" />
</svg>