<svg xmlns="http://www.w3.org/2000/svg" width="300" height="300" viewBox="0 0 300 300">
<path d="M 71.25 127.5 L 66.25 128.75 L 65.0 130.0 L 71.25 130.0 L 85.0 127.5 L 97.5 122.5 L 105.0 120.0 L 106.25 120.0 " stroke="black" fill="none" stroke-width="6.0" stroke-linecap="round" stroke-linejoin="round" />
<path d="M 75.0 176.25 L 72.5 178.75 L 68.75 182.5 L 73.75 180.0 L 83.75 172.5 L 93.75 162.5 L 100.0 156.25 L 101.25 155.0 " stroke="black" fill="none" stroke-width="6.0" stroke-linecap="round" stroke-linejoin="round" />
<path d="M 78.75 230.0 L 77.5 232.5 L 72.5 238.75 L 73.75 238.75 L 82.5 230.0 L 93.75 212.5 L 105.0 191.25 " stroke="black" fill="none" stroke-width="6.0" stroke-linecap="round" stroke-linejoin="round" />
<path d="M 141.25 92.5 L 140.0 92.5 L 133.75 93.75 L 133.75 93.75 L 143.75 90.0 L 160.0 81.25 L 178.75 70.0 L 192.5 58.75 L 196.25 55.0 L 191.25 55.0 L 183.75 58.75 L 175.0 61.25 L 167.5 63.75 L 162.5 65.0 L 161.25 66.25 L 161.25 73.75 L 165.0 90.0 L 170.0 111.25 L 173.75 125.0 L 175.0 131.25 L 173.75 131.25 L 172.5 131.25 " stroke="black" fill="none" stroke-width="6.0" stroke-linecap="round" stroke-linejoin="round" />
<path d="M 151.25 115.0 L 150.0 116.25 L 148.75 116.25 L 152.5 115.0 L 166.25 107.5 L 182.5 97.5 L 193.75 90.0 L 192.5 90.0 L 190.0 90.0 " stroke="black" fill="none" stroke-width="6.0" stroke-linecap="round" stroke-linejoin="round" />
<path d="M 131.25 151.25 L 126.25 155.0 L 123.75 157.5 L 135.0 155.0 L 152.5 145.0 L 178.75 128.75 L 205.0 106.25 L 216.25 95.0 L 217.5 92.5 L 210.0 96.25 L 200.0 103.75 L 187.5 116.25 L 172.5 133.75 L 161.25 156.25 L 158.75 195.0 L 161.25 225.0 L 167.5 237.5 L 171.25 242.5 L 172.5 242.5 L 172.5 242.5 L 172.5 237.5 L 168.75 230.0 L 163.75 221.25 L 161.25 215.0 " stroke="black" fill="none" stroke-width="6.0" stroke-linecap="round" stroke-linejoin="round" />
<path d="M 163.75 155.0 L 166.25 152.5 L 173.75 147.5 L 188.75 141.25 L 202.5 140.0 L 211.25 148.75 L 216.25 175.0 L 218.75 202.5 L 218.75 221.25 L 218.75 231.25 L 218.75 236.25 L 218.75 236.25 L 215.0 235.0 L 212.5 230.0 L 210.0 226.25 " stroke="black" fill="none" stroke-width="6.0" stroke-linecap="round" stroke-linejoin="round" />
<path d="M 163.75 188.75 L 160.0 190.0 L 156.25 191.25 L 161.25 188.75 L 175.0 180.0 L 192.5 168.75 L 205.0 157.5 L 207.5 153.75 L 206.25 153.75 " stroke="black" fill="none" stroke-width="6.0" stroke-linecap="round" stroke-linejoin="round" />
<path d="M 166.25 206.25 L 165.0 208.75 L 163.75 212.5 L 172.5 212.5 L 191.25 203.75 L 210.0 191.25 L 216.25 185.0 " stroke="black" fill="none" stroke-width="6.0" stroke-linecap="round" stroke-linejoin="round" />
</svg>