<svg xmlns="http://www.w3.org/2000/svg" width="300" height="300" viewBox="0 0 300 300">
<path d="M 73.75 122.5 L 72.5 122.5 L 72.5 122.5 L 75.0 122.5 L 83.75 121.25 L 95.0 117.5 L 102.5 113.75 " stroke="black" fill="none" stroke-width="6.0" stroke-linecap="round" stroke-linejoin="round" />
<path d="M 75.0 163.75 L 72.5 167.5 L 71.25 167.5 L 78.75 165.0 L 90.0 157.5 L 101.25 150.0 L 105.0 146.25 " stroke="black" fill="none" stroke-width="6.0" stroke-linecap="round" stroke-linejoin="round" />
<path d="M 76.25 243.75 L 75.0 247.5 L 71.25 253.75 L 71.25 253.75 L 82.5 242.5 L 97.5 221.25 L 105.0 207.5 " stroke="black" fill="none" stroke-width="6.0" stroke-linecap="round" stroke-linejoin="round" />
<path d="M 142.5 93.75 L 141.25 95.0 L 137.5 96.25 L 137.5 96.25 L 150.0 93.75 L 170.0 86.25 L 191.25 76.25 L 203.75 67.5 L 203.75 63.75 L 196.25 63.75 L 186.25 65.0 L 178.75 66.25 L 172.5 66.25 L 168.75 66.25 L 168.75 70.0 L 170.0 81.25 L 171.25 103.75 L 171.25 126.25 L 171.25 136.25 L 168.75 138.75 L 165.0 136.25 " stroke="black" fill="none" stroke-width="6.0" stroke-linecap="round" stroke-linejoin="round" />
<path d="M 150.0 118.75 L 148.75 118.75 L 147.5 118.75 L 148.75 118.75 L 158.75 116.25 L 176.25 110.0 L 191.25 102.5 L 197.5 100.0 L 188.75 101.25 " stroke="black" fill="none" stroke-width="6.0" stroke-linecap="round" stroke-linejoin="round" />
<path d="M 112.5 165.0 L 110.0 166.25 L 105.0 171.25 L 111.25 171.25 L 133.75 162.5 L 165.0 146.25 L 202.5 127.5 L 225.0 112.5 L 231.25 107.5 L 225.0 107.5 L 210.0 115.0 L 196.25 122.5 L 182.5 131.25 L 167.5 142.5 L 158.75 156.25 L 156.25 183.75 L 157.5 218.75 L 161.25 251.25 L 165.0 266.25 L 167.5 268.75 L 167.5 268.75 L 166.25 265.0 L 162.5 255.0 L 157.5 242.5 " stroke="black" fill="none" stroke-width="6.0" stroke-linecap="round" stroke-linejoin="round" />
<path d="M 167.5 160.0 L 168.75 158.75 L 172.5 156.25 L 182.5 152.5 L 198.75 152.5 L 211.25 165.0 L 217.5 192.5 L 218.75 223.75 L 213.75 245.0 L 210.0 255.0 L 208.75 257.5 L 206.25 256.25 L 203.75 251.25 L 203.75 250.0 " stroke="black" fill="none" stroke-width="6.0" stroke-linecap="round" stroke-linejoin="round" />
<path d="M 161.25 198.75 L 155.0 198.75 L 152.5 197.5 L 157.5 195.0 L 173.75 188.75 L 195.0 180.0 L 210.0 172.5 L 212.5 168.75 " stroke="black" fill="none" stroke-width="6.0" stroke-linecap="round" stroke-linejoin="round" />
<path d="M 166.25 223.75 L 166.25 226.25 L 171.25 226.25 L 188.75 217.5 L 210.0 203.75 L 218.75 198.75 " stroke="black" fill="none" stroke-width="6.0" stroke-linecap="round" stroke-linejoin="round" />
</svg>