<svg xmlns="http://www.w3.org/2000/svg" width="300" height="300" viewBox="0 0 300 300">
<path d="M 67.5 130.0 L 63.75 130.0 L 61.25 131.25 L 66.25 130.0 L 78.75 126.25 L 91.25 121.25 L 103.75 115.0 L 106.25 112.5 " stroke="black" fill="none" stroke-width="6.0" stroke-linecap="round" stroke-linejoin="round" />
<path d="M 77.5 171.25 L 73.75 176.25 L 73.75 176.25 L 81.25 171.25 L 91.25 162.5 L 98.75 153.75 L 101.25 148.75 L 101.25 148.75 " stroke="black" fill="none" stroke-width="6.0" stroke-linecap="round" stroke-linejoin="round" />
<path d="M 78.75 227.5 L 76.25 232.5 L 72.5 237.5 L 75.0 236.25 L 85.0 225.0 L 93.75 207.5 L 102.5 188.75 " stroke="black" fill="none" stroke-width="6.0" stroke-linecap="round" stroke-linejoin="round" />
<path d="M 135.0 102.5 L 130.0 103.75 L 127.5 105.0 L 135.0 102.5 L 148.75 97.5 L 165.0 88.75 L 181.25 80.0 L 188.75 73.75 L 187.5 72.5 L 178.75 72.5 L 171.25 73.75 L 163.75 75.0 L 160.0 76.25 L 158.75 76.25 L 158.75 80.0 L 158.75 92.5 L 161.25 117.5 L 162.5 138.75 L 163.75 147.5 L 163.75 148.75 L 160.0 145.0 L 160.0 143.75 " stroke="black" fill="none" stroke-width="6.0" stroke-linecap="round" stroke-linejoin="round" />
<path d="M 138.75 135.0 L 135.0 136.25 L 135.0 136.25 L 142.5 133.75 L 155.0 126.25 L 171.25 115.0 L 183.75 105.0 L 185.0 103.75 L 176.25 107.5 " stroke="black" fill="none" stroke-width="6.0" stroke-linecap="round" stroke-linejoin="round" />
<path d="M 102.5 171.25 L 102.5 171.25 L 101.25 172.5 L 108.75 172.5 L 132.5 162.5 L 166.25 145.0 L 197.5 127.5 L 210.0 116.25 L 211.25 111.25 L 205.0 113.75 L 197.5 120.0 L 192.5 123.75 " stroke="black" fill="none" stroke-width="6.0" stroke-linecap="round" stroke-linejoin="round" />
<path d="M 161.25 152.5 L 160.0 155.0 L 156.25 170.0 L 156.25 203.75 L 158.75 237.5 L 161.25 252.5 L 162.5 257.5 L 162.5 257.5 L 162.5 255.0 L 161.25 247.5 L 160.0 243.75 " stroke="black" fill="none" stroke-width="6.0" stroke-linecap="round" stroke-linejoin="round" />
<path d="M 155.0 180.0 L 155.0 176.25 L 157.5 171.25 L 170.0 163.75 L 187.5 158.75 L 201.25 158.75 L 208.75 177.5 L 211.25 206.25 L 211.25 235.0 L 211.25 252.5 L 211.25 258.75 L 211.25 260.0 L 210.0 260.0 L 206.25 257.5 L 203.75 252.5 " stroke="black" fill="none" stroke-width="6.0" stroke-linecap="round" stroke-linejoin="round" />
<path d="M 162.5 208.75 L 158.75 210.0 L 157.5 210.0 L 163.75 207.5 L 178.75 198.75 L 195.0 188.75 L 203.75 180.0 L 202.5 181.25 L 198.75 185.0 " stroke="black" fill="none" stroke-width="6.0" stroke-linecap="round" stroke-linejoin="round" />
<path d="M 167.5 226.25 L 165.0 230.0 L 165.0 231.25 L 177.5 226.25 L 196.25 215.0 L 211.25 200.0 " stroke="black" fill="none" stroke-width="6.0" stroke-linecap="round" stroke-linejoin="round" />
</svg>