<svg xmlns="http://www.w3.org/2000/svg" width="300" height="300" viewBox="0 0 300 300">
<path d="M 126.25 83.75 L 126.25 82.5 L 125.0 80.0 L 125.0 81.25 L 126.25 97.5 L 128.75 131.25 L 130.0 160.0 L 131.25 168.75 L 132.5 170.0 L 131.25 163.75 L 131.25 161.25 " stroke="black" fill="none" stroke-width="6.0" stroke-linecap="round" stroke-linejoin="round" />
<path d="M 122.5 90.0 L 121.25 90.0 L 117.5 88.75 L 117.5 87.5 L 126.25 86.25 L 141.25 82.5 L 157.5 77.5 L 171.25 72.5 L 175.0 70.0 L 168.75 71.25 " stroke="black" fill="none" stroke-width="6.0" stroke-linecap="round" stroke-linejoin="round" />
<path d="M 130.0 117.5 L 128.75 120.0 L 126.25 122.5 L 127.5 122.5 L 135.0 120.0 L 146.25 112.5 L 155.0 105.0 L 161.25 100.0 L 160.0 98.75 L 157.5 100.0 " stroke="black" fill="none" stroke-width="6.0" stroke-linecap="round" stroke-linejoin="round" />
<path d="M 128.75 138.75 L 128.75 140.0 L 127.5 141.25 L 133.75 141.25 L 146.25 135.0 L 161.25 126.25 L 172.5 117.5 L 173.75 115.0 " stroke="black" fill="none" stroke-width="6.0" stroke-linecap="round" stroke-linejoin="round" />
<path d="M 62.5 198.75 L 60.0 198.75 L 58.75 200.0 L 67.5 200.0 L 91.25 192.5 L 128.75 177.5 L 161.25 161.25 L 183.75 152.5 L 190.0 148.75 L 187.5 148.75 L 172.5 151.25 L 155.0 155.0 " stroke="black" fill="none" stroke-width="6.0" stroke-linecap="round" stroke-linejoin="round" />
<path d="M 118.75 185.0 L 117.5 191.25 L 116.25 206.25 L 116.25 231.25 L 120.0 253.75 L 128.75 263.75 L 138.75 265.0 L 153.75 255.0 L 172.5 238.75 L 190.0 221.25 L 201.25 205.0 L 203.75 195.0 L 200.0 193.75 L 188.75 195.0 L 171.25 202.5 L 152.5 212.5 L 136.25 221.25 L 130.0 225.0 L 131.25 225.0 L 136.25 223.75 L 141.25 220.0 L 146.25 217.5 L 148.75 216.25 L 151.25 216.25 L 152.5 216.25 L 155.0 218.75 L 160.0 225.0 L 172.5 231.25 L 192.5 236.25 L 215.0 236.25 L 238.75 236.25 " stroke="black" fill="none" stroke-width="6.0" stroke-linecap="round" stroke-linejoin="round" />
</svg>