<svg xmlns="http://www.w3.org/2000/svg" width="300" height="300" viewBox="0 0 300 300">
<path d="M 116.25 87.5 L 116.25 82.5 L 116.25 81.25 L 118.75 87.5 L 125.0 115.0 L 128.75 148.75 L 130.0 171.25 L 127.5 176.25 L 126.25 176.25 " stroke="black" fill="none" stroke-width="6.0" stroke-linecap="round" stroke-linejoin="round" />
<path d="M 116.25 92.5 L 115.0 92.5 L 115.0 92.5 L 125.0 91.25 L 145.0 86.25 L 165.0 77.5 L 176.25 72.5 L 172.5 72.5 L 168.75 75.0 " stroke="black" fill="none" stroke-width="6.0" stroke-linecap="round" stroke-linejoin="round" />
<path d="M 128.75 116.25 L 127.5 117.5 L 126.25 118.75 L 133.75 117.5 L 145.0 111.25 L 157.5 105.0 L 161.25 102.5 L 161.25 102.5 " stroke="black" fill="none" stroke-width="6.0" stroke-linecap="round" stroke-linejoin="round" />
<path d="M 127.5 137.5 L 127.5 137.5 L 125.0 138.75 L 128.75 138.75 L 142.5 132.5 L 160.0 122.5 L 173.75 113.75 L 170.0 113.75 L 166.25 116.25 " stroke="black" fill="none" stroke-width="6.0" stroke-linecap="round" stroke-linejoin="round" />
<path d="M 63.75 191.25 L 62.5 191.25 L 61.25 192.5 L 66.25 192.5 L 92.5 181.25 L 137.5 157.5 L 171.25 141.25 L 185.0 135.0 L 182.5 135.0 L 163.75 142.5 L 148.75 148.75 L 133.75 157.5 L 121.25 167.5 L 116.25 180.0 L 118.75 200.0 L 126.25 226.25 L 132.5 241.25 L 140.0 245.0 L 150.0 236.25 L 165.0 213.75 L 182.5 190.0 L 198.75 168.75 L 203.75 153.75 L 202.5 150.0 L 187.5 155.0 L 166.25 165.0 L 145.0 180.0 L 127.5 193.75 L 125.0 196.25 L 128.75 195.0 L 137.5 193.75 L 146.25 192.5 L 155.0 192.5 L 163.75 195.0 L 177.5 206.25 L 196.25 227.5 L 213.75 243.75 L 233.75 252.5 L 251.25 252.5 " stroke="black" fill="none" stroke-width="6.0" stroke-linecap="round" stroke-linejoin="round" />
</svg>