<svg xmlns="http://www.w3.org/2000/svg" width="300" height="300" viewBox="0 0 300 300">
<path d="M 107.5 88.75 L 107.5 88.75 L 107.5 90.0 L 117.5 91.25 L 142.5 91.25 L 172.5 87.5 L 187.5 83.75 L 180.0 86.25 " stroke="black" fill="none" stroke-width="6.0" stroke-linecap="round" stroke-linejoin="round" />
<path d="M 76.25 138.75 L 75.0 142.5 L 73.75 153.75 L 78.75 187.5 L 86.25 221.25 L 92.5 232.5 L 95.0 233.75 " stroke="black" fill="none" stroke-width="6.0" stroke-linecap="round" stroke-linejoin="round" />
<path d="M 90.0 161.25 L 87.5 161.25 L 86.25 161.25 L 95.0 161.25 L 125.0 161.25 L 168.75 156.25 L 203.75 153.75 L 221.25 157.5 L 228.75 176.25 L 220.0 200.0 L 203.75 221.25 L 185.0 236.25 L 166.25 241.25 L 153.75 232.5 L 151.25 220.0 " stroke="black" fill="none" stroke-width="6.0" stroke-linecap="round" stroke-linejoin="round" />
<path d="M 156.25 103.75 L 156.25 103.75 L 153.75 121.25 L 152.5 166.25 L 152.5 203.75 L 153.75 217.5 L 153.75 212.5 L 153.75 208.75 " stroke="black" fill="none" stroke-width="6.0" stroke-linecap="round" stroke-linejoin="round" />
<path d="M 193.75 115.0 L 193.75 115.0 L 193.75 118.75 L 186.25 142.5 L 171.25 178.75 L 155.0 202.5 L 142.5 210.0 L 135.0 210.0 " stroke="black" fill="none" stroke-width="6.0" stroke-linecap="round" stroke-linejoin="round" />
<path d="M 107.5 135.0 L 106.25 132.5 L 105.0 141.25 L 108.75 173.75 L 122.5 216.25 L 146.25 246.25 L 150.0 248.75 " stroke="black" fill="none" stroke-width="6.0" stroke-linecap="round" stroke-linejoin="round" />
</svg>