<svg xmlns="http://www.w3.org/2000/svg" width="300" height="300" viewBox="0 0 300 300">
<path d="M 110.0 81.25 L 107.5 82.5 L 101.25 86.25 L 102.5 88.75 L 117.5 90.0 L 141.25 90.0 L 170.0 85.0 L 195.0 78.75 L 201.25 77.5 L 190.0 81.25 " stroke="black" fill="none" stroke-width="6.0" stroke-linecap="round" stroke-linejoin="round" />
<path d="M 86.25 133.75 L 85.0 133.75 L 82.5 135.0 L 82.5 142.5 L 86.25 175.0 L 90.0 216.25 L 93.75 241.25 L 96.25 245.0 L 96.25 241.25 " stroke="black" fill="none" stroke-width="6.0" stroke-linecap="round" stroke-linejoin="round" />
<path d="M 88.75 161.25 L 87.5 161.25 L 81.25 163.75 L 80.0 165.0 L 91.25 167.5 L 120.0 167.5 L 160.0 160.0 L 200.0 155.0 L 226.25 158.75 L 240.0 175.0 L 240.0 195.0 L 227.5 215.0 L 210.0 232.5 L 195.0 241.25 L 178.75 241.25 " stroke="black" fill="none" stroke-width="6.0" stroke-linecap="round" stroke-linejoin="round" />
<path d="M 155.0 126.25 L 152.5 117.5 L 152.5 118.75 L 152.5 141.25 L 153.75 178.75 L 155.0 213.75 L 157.5 222.5 L 157.5 220.0 " stroke="black" fill="none" stroke-width="6.0" stroke-linecap="round" stroke-linejoin="round" />
<path d="M 205.0 115.0 L 205.0 115.0 L 203.75 120.0 L 197.5 145.0 L 182.5 180.0 L 166.25 201.25 L 153.75 205.0 L 147.5 203.75 " stroke="black" fill="none" stroke-width="6.0" stroke-linecap="round" stroke-linejoin="round" />
<path d="M 105.0 140.0 L 103.75 138.75 L 100.0 140.0 L 98.75 153.75 L 106.25 196.25 L 125.0 233.75 L 137.5 243.75 " stroke="black" fill="none" stroke-width="6.0" stroke-linecap="round" stroke-linejoin="round" />
</svg>