<svg xmlns="http://www.w3.org/2000/svg" width="300" height="300" viewBox="0 0 300 300">
<path d="M 71.25 105.0 L 71.25 103.75 L 70.0 102.5 L 71.25 106.25 L 73.75 128.75 L 76.25 155.0 L 78.75 190.0 L 78.75 193.75 L 78.75 191.25 " stroke="black" fill="none" stroke-width="6.0" stroke-linecap="round" stroke-linejoin="round" />
<path d="M 77.5 123.75 L 73.75 121.25 L 71.25 120.0 L 76.25 117.5 L 87.5 112.5 L 101.25 108.75 L 115.0 113.75 L 120.0 131.25 L 116.25 153.75 L 103.75 172.5 L 93.75 182.5 L 86.25 185.0 " stroke="black" fill="none" stroke-width="6.0" stroke-linecap="round" stroke-linejoin="round" />
<path d="M 91.25 122.5 L 92.5 123.75 L 92.5 135.0 L 92.5 157.5 L 88.75 181.25 L 85.0 192.5 L 80.0 193.75 L 77.5 192.5 L 76.25 188.75 L 80.0 185.0 L 87.5 177.5 L 96.25 171.25 L 103.75 165.0 L 107.5 165.0 L 105.0 180.0 L 93.75 201.25 L 80.0 221.25 L 70.0 232.5 L 67.5 231.25 " stroke="black" fill="none" stroke-width="6.0" stroke-linecap="round" stroke-linejoin="round" />
<path d="M 96.25 193.75 L 100.0 191.25 L 102.5 191.25 L 107.5 202.5 L 116.25 217.5 L 125.0 230.0 L 127.5 233.75 L 127.5 233.75 " stroke="black" fill="none" stroke-width="6.0" stroke-linecap="round" stroke-linejoin="round" />
<path d="M 147.5 117.5 L 146.25 117.5 L 138.75 117.5 L 136.25 117.5 L 136.25 117.5 L 147.5 117.5 L 170.0 116.25 L 198.75 112.5 L 222.5 106.25 L 230.0 100.0 L 226.25 98.75 " stroke="black" fill="none" stroke-width="6.0" stroke-linecap="round" stroke-linejoin="round" />
<path d="M 200.0 83.75 L 198.75 83.75 L 197.5 83.75 L 196.25 86.25 L 203.75 113.75 L 217.5 176.25 L 235.0 227.5 L 250.0 252.5 L 258.75 263.75 L 258.75 263.75 L 258.75 260.0 L 258.75 248.75 L 253.75 232.5 L 246.25 208.75 L 240.0 182.5 L 233.75 161.25 " stroke="black" fill="none" stroke-width="6.0" stroke-linecap="round" stroke-linejoin="round" />
<path d="M 230.0 86.25 L 230.0 83.75 L 230.0 82.5 L 230.0 82.5 L 231.25 82.5 L 236.25 87.5 L 236.25 90.0 " stroke="black" fill="none" stroke-width="6.0" stroke-linecap="round" stroke-linejoin="round" />
<path d="M 173.75 91.25 L 167.5 92.5 L 161.25 93.75 L 160.0 93.75 L 161.25 93.75 L 172.5 92.5 L 185.0 88.75 L 190.0 87.5 " stroke="black" fill="none" stroke-width="6.0" stroke-linecap="round" stroke-linejoin="round" />
<path d="M 165.0 147.5 L 165.0 146.25 L 166.25 145.0 L 166.25 150.0 L 168.75 173.75 L 171.25 198.75 L 172.5 205.0 L 175.0 202.5 L 181.25 191.25 L 186.25 178.75 L 190.0 166.25 L 190.0 157.5 L 185.0 156.25 L 182.5 157.5 " stroke="black" fill="none" stroke-width="6.0" stroke-linecap="round" stroke-linejoin="round" />
<path d="M 142.5 180.0 L 141.25 180.0 L 141.25 180.0 L 145.0 190.0 L 152.5 212.5 L 160.0 235.0 L 171.25 236.25 L 191.25 217.5 L 211.25 196.25 L 225.0 183.75 " stroke="black" fill="none" stroke-width="6.0" stroke-linecap="round" stroke-linejoin="round" />
</svg>