<svg xmlns="http://www.w3.org/2000/svg" width="300" height="300" viewBox="0 0 300 300">
<path d="M 90.0 111.25 L 91.25 106.25 L 95.0 102.5 L 101.25 103.75 L 106.25 130.0 L 106.25 170.0 L 100.0 205.0 L 93.75 222.5 L 88.75 225.0 L 86.25 225.0 " stroke="black" fill="none" stroke-width="6.0" stroke-linecap="round" stroke-linejoin="round" />
<path d="M 105.0 103.75 L 105.0 103.75 L 108.75 103.75 L 125.0 102.5 L 151.25 98.75 L 176.25 95.0 L 192.5 91.25 L 200.0 90.0 L 201.25 90.0 L 202.5 91.25 L 205.0 101.25 L 207.5 127.5 L 210.0 163.75 L 217.5 200.0 L 228.75 226.25 L 242.5 242.5 L 251.25 248.75 L 255.0 248.75 L 256.25 247.5 L 256.25 243.75 L 256.25 232.5 L 253.75 218.75 L 250.0 206.25 " stroke="black" fill="none" stroke-width="6.0" stroke-linecap="round" stroke-linejoin="round" />
<path d="M 147.5 127.5 L 142.5 126.25 L 140.0 126.25 L 140.0 125.0 L 148.75 122.5 L 165.0 116.25 L 181.25 112.5 L 186.25 113.75 " stroke="black" fill="none" stroke-width="6.0" stroke-linecap="round" stroke-linejoin="round" />
<path d="M 132.5 152.5 L 131.25 155.0 L 128.75 160.0 L 133.75 186.25 L 142.5 200.0 L 150.0 203.75 L 151.25 202.5 L 148.75 197.5 L 141.25 192.5 L 133.75 187.5 L 127.5 181.25 L 126.25 176.25 L 133.75 170.0 L 151.25 162.5 L 176.25 157.5 L 192.5 157.5 L 196.25 161.25 L 185.0 173.75 L 168.75 185.0 L 152.5 195.0 L 142.5 198.75 L 143.75 197.5 L 151.25 187.5 L 157.5 173.75 L 158.75 171.25 " stroke="black" fill="none" stroke-width="6.0" stroke-linecap="round" stroke-linejoin="round" />
<path d="M 157.5 135.0 L 156.25 132.5 L 156.25 131.25 L 157.5 148.75 L 160.0 188.75 L 160.0 223.75 L 155.0 238.75 L 151.25 241.25 L 151.25 240.0 L 152.5 236.25 L 160.0 227.5 L 172.5 217.5 L 185.0 208.75 L 193.75 202.5 L 197.5 201.25 L 196.25 201.25 L 191.25 201.25 L 187.5 200.0 L 185.0 198.75 L 183.75 197.5 L 183.75 197.5 L 183.75 197.5 L 183.75 197.5 L 190.0 206.25 L 200.0 223.75 L 205.0 236.25 " stroke="black" fill="none" stroke-width="6.0" stroke-linecap="round" stroke-linejoin="round" />
</svg>