<svg xmlns="http://www.w3.org/2000/svg" width="300" height="300" viewBox="0 0 300 300">
<path d="M 106.25 116.25 L 106.25 116.25 L 102.5 121.25 L 100.0 133.75 L 95.0 155.0 L 85.0 181.25 L 71.25 196.25 L 61.25 200.0 L 58.75 197.5 L 58.75 196.25 " stroke="black" fill="none" stroke-width="6.0" stroke-linecap="round" stroke-linejoin="round" />
<path d="M 96.25 155.0 L 96.25 156.25 L 96.25 157.5 L 97.5 166.25 L 100.0 191.25 L 100.0 218.75 L 96.25 235.0 L 92.5 236.25 L 92.5 233.75 " stroke="black" fill="none" stroke-width="6.0" stroke-linecap="round" stroke-linejoin="round" />
<path d="M 143.75 101.25 L 138.75 105.0 L 140.0 105.0 L 148.75 102.5 L 162.5 95.0 L 177.5 85.0 L 186.25 78.75 L 186.25 75.0 " stroke="black" fill="none" stroke-width="6.0" stroke-linecap="round" stroke-linejoin="round" />
<path d="M 162.5 75.0 L 162.5 76.25 L 157.5 81.25 L 153.75 100.0 L 146.25 140.0 L 137.5 166.25 L 128.75 173.75 L 123.75 173.75 " stroke="black" fill="none" stroke-width="6.0" stroke-linecap="round" stroke-linejoin="round" />
<path d="M 153.75 116.25 L 156.25 117.5 L 163.75 118.75 L 181.25 121.25 L 200.0 125.0 L 208.75 127.5 L 208.75 133.75 L 198.75 140.0 L 193.75 142.5 " stroke="black" fill="none" stroke-width="6.0" stroke-linecap="round" stroke-linejoin="round" />
<path d="M 110.0 182.5 L 110.0 182.5 L 111.25 182.5 L 128.75 177.5 L 161.25 161.25 L 195.0 141.25 L 212.5 130.0 L 216.25 123.75 L 210.0 122.5 L 200.0 130.0 " stroke="black" fill="none" stroke-width="6.0" stroke-linecap="round" stroke-linejoin="round" />
<path d="M 143.75 182.5 L 143.75 185.0 L 142.5 193.75 L 145.0 207.5 L 148.75 223.75 L 150.0 230.0 L 150.0 231.25 L 150.0 227.5 L 147.5 220.0 L 146.25 212.5 L 146.25 206.25 L 147.5 198.75 L 153.75 192.5 L 167.5 186.25 L 180.0 185.0 L 183.75 190.0 L 173.75 201.25 L 161.25 213.75 L 148.75 223.75 L 142.5 227.5 L 145.0 222.5 L 152.5 211.25 L 153.75 207.5 " stroke="black" fill="none" stroke-width="6.0" stroke-linecap="round" stroke-linejoin="round" />
<path d="M 201.25 141.25 L 201.25 141.25 L 201.25 141.25 L 201.25 141.25 L 203.75 146.25 L 208.75 171.25 L 212.5 207.5 L 213.75 235.0 L 213.75 251.25 L 213.75 256.25 L 212.5 257.5 L 211.25 257.5 L 207.5 256.25 L 201.25 253.75 L 188.75 250.0 L 170.0 247.5 L 156.25 246.25 " stroke="black" fill="none" stroke-width="6.0" stroke-linecap="round" stroke-linejoin="round" />
</svg>