<svg xmlns="http://www.w3.org/2000/svg" width="300" height="300" viewBox="0 0 300 300">
<path d="M 113.75 85.0 L 113.75 85.0 L 110.0 85.0 L 108.75 86.25 L 116.25 86.25 L 133.75 81.25 L 153.75 71.25 L 171.25 61.25 L 176.25 56.25 L 171.25 57.5 L 168.75 58.75 " stroke="black" fill="none" stroke-width="6.0" stroke-linecap="round" stroke-linejoin="round" />
<path d="M 147.5 82.5 L 147.5 83.75 L 146.25 87.5 L 146.25 93.75 L 146.25 112.5 L 146.25 133.75 L 146.25 141.25 " stroke="black" fill="none" stroke-width="6.0" stroke-linecap="round" stroke-linejoin="round" />
<path d="M 152.5 113.75 L 153.75 110.0 L 153.75 106.25 L 156.25 103.75 L 162.5 101.25 L 170.0 98.75 L 177.5 95.0 L 178.75 92.5 L 171.25 93.75 " stroke="black" fill="none" stroke-width="6.0" stroke-linecap="round" stroke-linejoin="round" />
<path d="M 102.5 122.5 L 102.5 121.25 L 101.25 121.25 L 100.0 123.75 L 100.0 137.5 L 101.25 152.5 L 108.75 157.5 L 127.5 153.75 L 157.5 136.25 L 187.5 121.25 L 210.0 112.5 L 217.5 108.75 L 217.5 108.75 L 210.0 112.5 L 198.75 120.0 " stroke="black" fill="none" stroke-width="6.0" stroke-linecap="round" stroke-linejoin="round" />
<path d="M 136.25 187.5 L 135.0 187.5 L 135.0 186.25 L 138.75 183.75 L 152.5 177.5 L 173.75 166.25 L 190.0 155.0 L 195.0 148.75 L 187.5 148.75 L 182.5 150.0 " stroke="black" fill="none" stroke-width="6.0" stroke-linecap="round" stroke-linejoin="round" />
<path d="M 135.0 157.5 L 131.25 158.75 L 125.0 163.75 L 121.25 172.5 L 120.0 190.0 L 122.5 206.25 L 131.25 211.25 L 146.25 208.75 L 163.75 197.5 L 186.25 186.25 L 205.0 178.75 L 211.25 180.0 L 210.0 193.75 L 200.0 215.0 L 188.75 237.5 L 177.5 251.25 L 172.5 255.0 L 170.0 251.25 L 167.5 245.0 L 166.25 243.75 " stroke="black" fill="none" stroke-width="6.0" stroke-linecap="round" stroke-linejoin="round" />
<path d="M 93.75 228.75 L 90.0 228.75 L 87.5 228.75 L 87.5 230.0 L 90.0 237.5 L 96.25 250.0 L 101.25 258.75 L 102.5 262.5 L 102.5 262.5 " stroke="black" fill="none" stroke-width="6.0" stroke-linecap="round" stroke-linejoin="round" />
<path d="M 113.75 226.25 L 115.0 225.0 L 115.0 225.0 L 117.5 227.5 L 122.5 236.25 L 127.5 246.25 L 132.5 253.75 L 133.75 256.25 L 133.75 256.25 " stroke="black" fill="none" stroke-width="6.0" stroke-linecap="round" stroke-linejoin="round" />
<path d="M 142.5 225.0 L 142.5 223.75 L 142.5 225.0 L 143.75 230.0 L 147.5 237.5 L 151.25 245.0 L 153.75 250.0 " stroke="black" fill="none" stroke-width="6.0" stroke-linecap="round" stroke-linejoin="round" />
<path d="M 173.75 213.75 L 173.75 213.75 L 173.75 212.5 L 177.5 213.75 L 185.0 222.5 L 192.5 235.0 L 198.75 243.75 L 201.25 250.0 L 201.25 250.0 " stroke="black" fill="none" stroke-width="6.0" stroke-linecap="round" stroke-linejoin="round" />
</svg>