<svg xmlns="http://www.w3.org/2000/svg" width="300" height="300" viewBox="0 0 300 300">
<path d="M 150.0 78.75 L 148.75 77.5 L 142.5 81.25 L 130.0 98.75 L 110.0 133.75 L 95.0 166.25 L 90.0 186.25 L 88.75 191.25 L 88.75 191.25 " stroke="black" fill="none" stroke-width="6.0" stroke-linecap="round" stroke-linejoin="round" />
<path d="M 136.25 90.0 L 137.5 90.0 L 142.5 88.75 L 153.75 91.25 L 176.25 102.5 L 197.5 117.5 L 212.5 132.5 L 217.5 143.75 L 211.25 151.25 L 206.25 153.75 " stroke="black" fill="none" stroke-width="6.0" stroke-linecap="round" stroke-linejoin="round" />
<path d="M 127.5 152.5 L 127.5 152.5 L 125.0 152.5 L 126.25 152.5 L 136.25 151.25 L 146.25 150.0 L 165.0 146.25 L 171.25 146.25 L 168.75 147.5 " stroke="black" fill="none" stroke-width="6.0" stroke-linecap="round" stroke-linejoin="round" />
<path d="M 127.5 192.5 L 126.25 193.75 L 123.75 195.0 L 126.25 195.0 L 136.25 192.5 L 157.5 182.5 L 172.5 176.25 L 177.5 175.0 L 171.25 183.75 L 156.25 201.25 L 145.0 220.0 L 136.25 238.75 L 137.5 247.5 L 147.5 247.5 L 161.25 240.0 L 175.0 228.75 L 185.0 220.0 L 186.25 215.0 L 183.75 213.75 L 177.5 213.75 L 172.5 213.75 L 171.25 212.5 L 170.0 212.5 L 170.0 211.25 L 177.5 213.75 L 187.5 221.25 L 198.75 232.5 L 207.5 243.75 L 211.25 252.5 L 211.25 257.5 L 210.0 260.0 " stroke="black" fill="none" stroke-width="6.0" stroke-linecap="round" stroke-linejoin="round" />
</svg>