<svg xmlns="http://www.w3.org/2000/svg" width="300" height="300" viewBox="0 0 300 300">
<path d="M 125.0 106.25 L 123.75 107.5 L 112.5 122.5 L 96.25 152.5 L 82.5 180.0 L 73.75 193.75 L 72.5 192.5 L 78.75 180.0 L 88.75 162.5 L 98.75 150.0 L 106.25 142.5 L 113.75 151.25 L 117.5 183.75 L 118.75 220.0 L 115.0 246.25 L 113.75 251.25 L 112.5 241.25 " stroke="black" fill="none" stroke-width="6.0" stroke-linecap="round" stroke-linejoin="round" />
<path d="M 136.25 113.75 L 136.25 113.75 L 136.25 113.75 L 142.5 115.0 L 168.75 111.25 L 202.5 100.0 L 217.5 91.25 L 217.5 91.25 L 205.0 98.75 L 197.5 101.25 " stroke="black" fill="none" stroke-width="6.0" stroke-linecap="round" stroke-linejoin="round" />
<path d="M 146.25 142.5 L 143.75 152.5 L 145.0 168.75 L 150.0 186.25 L 157.5 193.75 L 161.25 193.75 L 158.75 190.0 L 153.75 183.75 L 146.25 177.5 L 137.5 172.5 L 133.75 165.0 L 138.75 157.5 L 161.25 147.5 L 195.0 136.25 L 217.5 132.5 L 221.25 136.25 L 210.0 146.25 L 193.75 161.25 L 175.0 176.25 L 153.75 190.0 L 148.75 192.5 L 160.0 187.5 L 181.25 172.5 L 203.75 153.75 L 215.0 141.25 L 213.75 135.0 L 207.5 133.75 " stroke="black" fill="none" stroke-width="6.0" stroke-linecap="round" stroke-linejoin="round" />
<path d="M 168.75 86.25 L 168.75 87.5 L 172.5 102.5 L 180.0 150.0 L 181.25 200.0 L 175.0 225.0 L 165.0 242.5 L 150.0 251.25 L 137.5 251.25 L 127.5 243.75 L 123.75 237.5 " stroke="black" fill="none" stroke-width="6.0" stroke-linecap="round" stroke-linejoin="round" />
<path d="M 131.25 201.25 L 131.25 201.25 L 133.75 203.75 L 146.25 213.75 L 176.25 231.25 L 206.25 242.5 L 230.0 246.25 L 248.75 248.75 L 263.75 252.5 L 266.25 253.75 " stroke="black" fill="none" stroke-width="6.0" stroke-linecap="round" stroke-linejoin="round" />
</svg>