<svg xmlns="http://www.w3.org/2000/svg" width="300" height="300" viewBox="0 0 300 300">
<path d="M 90.0 93.75 L 90.0 92.5 L 87.5 92.5 L 86.25 92.5 L 86.25 107.5 L 87.5 150.0 L 88.75 203.75 L 90.0 230.0 L 90.0 238.75 L 90.0 232.5 " stroke="black" fill="none" stroke-width="6.0" stroke-linecap="round" stroke-linejoin="round" />
<path d="M 91.25 97.5 L 91.25 97.5 L 91.25 97.5 L 95.0 97.5 L 108.75 96.25 L 128.75 97.5 L 138.75 108.75 L 133.75 131.25 L 120.0 150.0 L 105.0 157.5 L 98.75 157.5 " stroke="black" fill="none" stroke-width="6.0" stroke-linecap="round" stroke-linejoin="round" />
<path d="M 93.75 132.5 L 92.5 132.5 L 91.25 132.5 L 90.0 132.5 L 91.25 132.5 L 103.75 125.0 L 118.75 115.0 L 125.0 111.25 " stroke="black" fill="none" stroke-width="6.0" stroke-linecap="round" stroke-linejoin="round" />
<path d="M 87.5 158.75 L 82.5 163.75 L 81.25 166.25 L 88.75 165.0 L 106.25 152.5 L 130.0 137.5 " stroke="black" fill="none" stroke-width="6.0" stroke-linecap="round" stroke-linejoin="round" />
<path d="M 173.75 86.25 L 173.75 87.5 L 168.75 91.25 L 165.0 105.0 L 161.25 133.75 L 161.25 151.25 L 171.25 153.75 L 190.0 147.5 L 207.5 135.0 L 215.0 125.0 L 217.5 118.75 L 212.5 117.5 L 203.75 121.25 L 195.0 123.75 " stroke="black" fill="none" stroke-width="6.0" stroke-linecap="round" stroke-linejoin="round" />
<path d="M 158.75 132.5 L 156.25 132.5 L 155.0 132.5 L 158.75 132.5 L 175.0 125.0 L 195.0 115.0 L 207.5 105.0 L 207.5 103.75 " stroke="black" fill="none" stroke-width="6.0" stroke-linecap="round" stroke-linejoin="round" />
<path d="M 158.75 97.5 L 158.75 97.5 L 156.25 97.5 L 160.0 96.25 L 176.25 91.25 L 197.5 86.25 L 215.0 83.75 L 226.25 87.5 L 228.75 110.0 L 227.5 151.25 L 227.5 196.25 L 228.75 233.75 L 231.25 248.75 L 233.75 253.75 L 233.75 253.75 L 231.25 251.25 L 223.75 245.0 L 213.75 235.0 L 200.0 217.5 L 192.5 208.75 " stroke="black" fill="none" stroke-width="6.0" stroke-linecap="round" stroke-linejoin="round" />
</svg>