<svg xmlns="http://www.w3.org/2000/svg" width="300" height="300" viewBox="0 0 300 300">
<path d="M 77.5 91.25 L 76.25 87.5 L 73.75 82.5 L 73.75 81.25 L 75.0 86.25 L 80.0 125.0 L 83.75 185.0 L 86.25 227.5 L 87.5 242.5 L 87.5 241.25 L 87.5 232.5 " stroke="black" fill="none" stroke-width="6.0" stroke-linecap="round" stroke-linejoin="round" />
<path d="M 75.0 108.75 L 73.75 107.5 L 72.5 105.0 L 76.25 100.0 L 87.5 93.75 L 103.75 90.0 L 118.75 90.0 L 122.5 102.5 L 116.25 125.0 L 102.5 145.0 L 92.5 153.75 L 85.0 153.75 L 82.5 150.0 " stroke="black" fill="none" stroke-width="6.0" stroke-linecap="round" stroke-linejoin="round" />
<path d="M 82.5 133.75 L 81.25 132.5 L 80.0 131.25 L 80.0 130.0 L 87.5 125.0 L 100.0 115.0 L 112.5 106.25 L 112.5 105.0 " stroke="black" fill="none" stroke-width="6.0" stroke-linecap="round" stroke-linejoin="round" />
<path d="M 90.0 150.0 L 87.5 152.5 L 82.5 160.0 L 83.75 160.0 L 96.25 152.5 L 115.0 138.75 L 136.25 121.25 " stroke="black" fill="none" stroke-width="6.0" stroke-linecap="round" stroke-linejoin="round" />
<path d="M 162.5 93.75 L 162.5 93.75 L 157.5 98.75 L 157.5 113.75 L 162.5 140.0 L 170.0 152.5 L 183.75 152.5 L 200.0 142.5 L 212.5 128.75 L 216.25 120.0 L 215.0 117.5 L 206.25 118.75 L 191.25 126.25 L 173.75 133.75 L 158.75 140.0 L 155.0 141.25 L 160.0 137.5 L 176.25 122.5 L 193.75 103.75 L 207.5 88.75 L 210.0 83.75 " stroke="black" fill="none" stroke-width="6.0" stroke-linecap="round" stroke-linejoin="round" />
<path d="M 165.0 97.5 L 160.0 98.75 L 157.5 98.75 L 165.0 96.25 L 182.5 87.5 L 201.25 76.25 L 216.25 68.75 L 218.75 67.5 L 217.5 71.25 L 215.0 82.5 L 215.0 98.75 L 216.25 131.25 L 221.25 177.5 L 223.75 226.25 L 227.5 253.75 L 230.0 262.5 L 230.0 265.0 L 230.0 265.0 L 227.5 262.5 L 220.0 257.5 L 208.75 248.75 L 192.5 235.0 L 168.75 218.75 " stroke="black" fill="none" stroke-width="6.0" stroke-linecap="round" stroke-linejoin="round" />
</svg>