<svg xmlns="http://www.w3.org/2000/svg" width="300" height="300" viewBox="0 0 300 300">
<path d="M 90.0 86.25 L 90.0 85.0 L 88.75 85.0 L 90.0 88.75 L 95.0 101.25 L 101.25 115.0 L 113.75 121.25 L 135.0 112.5 L 155.0 96.25 L 165.0 87.5 L 165.0 85.0 L 160.0 83.75 L 150.0 85.0 L 142.5 85.0 " stroke="black" fill="none" stroke-width="6.0" stroke-linecap="round" stroke-linejoin="round" />
<path d="M 132.5 76.25 L 132.5 76.25 L 132.5 76.25 L 133.75 80.0 L 136.25 97.5 L 136.25 125.0 L 132.5 143.75 L 123.75 148.75 L 108.75 150.0 L 96.25 153.75 L 87.5 161.25 L 85.0 165.0 L 91.25 165.0 L 110.0 161.25 L 141.25 147.5 L 171.25 130.0 L 190.0 115.0 L 188.75 111.25 " stroke="black" fill="none" stroke-width="6.0" stroke-linecap="round" stroke-linejoin="round" />
<path d="M 136.25 151.25 L 131.25 175.0 L 128.75 203.75 L 128.75 221.25 L 128.75 235.0 L 128.75 238.75 L 128.75 235.0 " stroke="black" fill="none" stroke-width="6.0" stroke-linecap="round" stroke-linejoin="round" />
<path d="M 161.25 142.5 L 161.25 145.0 L 161.25 160.0 L 166.25 192.5 L 175.0 218.75 L 190.0 235.0 L 205.0 238.75 L 215.0 236.25 L 225.0 233.75 L 228.75 231.25 L 228.75 231.25 L 228.75 231.25 L 228.75 228.75 L 228.75 218.75 L 232.5 193.75 L 237.5 138.75 " stroke="black" fill="none" stroke-width="6.0" stroke-linecap="round" stroke-linejoin="round" />
</svg>