<svg xmlns="http://www.w3.org/2000/svg" width="300" height="300" viewBox="0 0 300 300">
<path d="M 103.75 95.0 L 101.25 95.0 L 100.0 95.0 L 103.75 101.25 L 111.25 113.75 L 117.5 125.0 L 121.25 128.75 L 127.5 125.0 L 140.0 113.75 L 153.75 100.0 L 165.0 91.25 L 172.5 86.25 L 170.0 85.0 L 167.5 85.0 " stroke="black" fill="none" stroke-width="6.0" stroke-linecap="round" stroke-linejoin="round" />
<path d="M 137.5 76.25 L 135.0 78.75 L 133.75 83.75 L 137.5 102.5 L 141.25 131.25 L 141.25 157.5 L 135.0 168.75 L 132.5 170.0 " stroke="black" fill="none" stroke-width="6.0" stroke-linecap="round" stroke-linejoin="round" />
<path d="M 90.0 178.75 L 86.25 178.75 L 82.5 178.75 L 86.25 178.75 L 103.75 173.75 L 137.5 160.0 L 172.5 140.0 L 193.75 126.25 L 197.5 122.5 L 188.75 122.5 L 182.5 125.0 " stroke="black" fill="none" stroke-width="6.0" stroke-linecap="round" stroke-linejoin="round" />
<path d="M 138.75 162.5 L 135.0 175.0 L 130.0 198.75 L 130.0 222.5 L 130.0 238.75 L 131.25 242.5 L 131.25 237.5 L 131.25 235.0 " stroke="black" fill="none" stroke-width="6.0" stroke-linecap="round" stroke-linejoin="round" />
<path d="M 158.75 151.25 L 158.75 151.25 L 158.75 152.5 L 165.0 168.75 L 177.5 202.5 L 190.0 225.0 L 198.75 235.0 L 206.25 238.75 L 213.75 238.75 L 217.5 240.0 L 218.75 240.0 L 218.75 240.0 L 218.75 240.0 L 218.75 238.75 L 218.75 235.0 L 221.25 222.5 L 223.75 197.5 L 225.0 153.75 L 222.5 132.5 " stroke="black" fill="none" stroke-width="6.0" stroke-linecap="round" stroke-linejoin="round" />
</svg>