<svg xmlns="http://www.w3.org/2000/svg" width="300" height="300" viewBox="0 0 300 300">
<path d="M 138.75 95.0 L 135.0 97.5 L 127.5 111.25 L 111.25 140.0 L 95.0 161.25 L 87.5 170.0 L 81.25 167.5 L 81.25 165.0 " stroke="black" fill="none" stroke-width="6.0" stroke-linecap="round" stroke-linejoin="round" />
<path d="M 156.25 83.75 L 158.75 83.75 L 167.5 87.5 L 186.25 98.75 L 203.75 113.75 L 221.25 128.75 L 237.5 137.5 L 242.5 143.75 L 238.75 145.0 " stroke="black" fill="none" stroke-width="6.0" stroke-linecap="round" stroke-linejoin="round" />
<path d="M 163.75 147.5 L 160.0 148.75 L 152.5 158.75 L 142.5 181.25 L 128.75 203.75 L 116.25 218.75 L 110.0 226.25 L 110.0 228.75 L 120.0 232.5 L 137.5 233.75 L 155.0 232.5 L 175.0 223.75 L 192.5 217.5 L 203.75 212.5 L 206.25 211.25 L 206.25 211.25 L 203.75 207.5 L 200.0 203.75 L 196.25 198.75 L 192.5 192.5 L 188.75 187.5 L 187.5 183.75 L 186.25 182.5 L 186.25 181.25 L 186.25 181.25 L 188.75 185.0 L 193.75 191.25 L 200.0 206.25 L 207.5 227.5 L 208.75 233.75 L 223.75 258.75 L 228.75 262.5 L 228.75 266.25 " stroke="black" fill="none" stroke-width="6.0" stroke-linecap="round" stroke-linejoin="round" />
</svg>