<svg xmlns="http://www.w3.org/2000/svg" width="300" height="300" viewBox="0 0 300 300">
<path d="M 65.0 103.75 L 60.0 105.0 L 58.75 105.0 L 67.5 105.0 L 82.5 102.5 L 96.25 100.0 L 107.5 98.75 L 111.25 100.0 L 108.75 107.5 L 100.0 117.5 L 95.0 126.25 L 93.75 131.25 L 96.25 132.5 L 106.25 132.5 L 113.75 132.5 L 116.25 136.25 L 112.5 147.5 L 102.5 160.0 L 95.0 168.75 L 90.0 172.5 L 86.25 170.0 L 85.0 160.0 L 81.25 150.0 L 78.75 141.25 L 76.25 135.0 L 73.75 130.0 L 71.25 127.5 L 70.0 126.25 L 70.0 127.5 L 71.25 141.25 L 73.75 173.75 L 75.0 220.0 L 73.75 252.5 L 72.5 260.0 L 67.5 258.75 " stroke="black" fill="none" stroke-width="6.0" stroke-linecap="round" stroke-linejoin="round" />
<path d="M 118.75 97.5 L 118.75 97.5 L 117.5 97.5 L 116.25 98.75 L 117.5 111.25 L 123.75 135.0 L 131.25 148.75 L 140.0 150.0 L 150.0 141.25 L 156.25 128.75 L 161.25 117.5 L 161.25 110.0 L 156.25 108.75 L 146.25 111.25 L 135.0 118.75 L 123.75 123.75 L 117.5 127.5 L 116.25 128.75 L 123.75 125.0 L 141.25 115.0 L 158.75 102.5 L 175.0 91.25 L 180.0 86.25 " stroke="black" fill="none" stroke-width="6.0" stroke-linecap="round" stroke-linejoin="round" />
<path d="M 175.0 103.75 L 175.0 103.75 L 178.75 102.5 L 190.0 93.75 L 201.25 85.0 L 207.5 80.0 L 205.0 78.75 L 197.5 81.25 L 190.0 82.5 " stroke="black" fill="none" stroke-width="6.0" stroke-linecap="round" stroke-linejoin="round" />
<path d="M 172.5 81.25 L 171.25 81.25 L 170.0 82.5 L 171.25 96.25 L 178.75 120.0 L 187.5 135.0 L 197.5 136.25 L 207.5 123.75 L 218.75 108.75 L 227.5 97.5 L 227.5 93.75 " stroke="black" fill="none" stroke-width="6.0" stroke-linecap="round" stroke-linejoin="round" />
<path d="M 122.5 182.5 L 122.5 182.5 L 122.5 182.5 L 136.25 178.75 L 161.25 167.5 L 183.75 153.75 L 195.0 145.0 L 196.25 143.75 L 188.75 145.0 L 177.5 151.25 L 165.0 158.75 L 155.0 168.75 L 150.0 182.5 L 148.75 202.5 L 151.25 230.0 L 155.0 252.5 L 157.5 261.25 L 157.5 260.0 L 157.5 256.25 " stroke="black" fill="none" stroke-width="6.0" stroke-linecap="round" stroke-linejoin="round" />
<path d="M 150.0 196.25 L 150.0 195.0 L 151.25 193.75 L 158.75 191.25 L 172.5 186.25 L 196.25 182.5 L 205.0 186.25 L 207.5 201.25 L 207.5 222.5 L 205.0 241.25 L 202.5 252.5 L 198.75 255.0 L 196.25 255.0 " stroke="black" fill="none" stroke-width="6.0" stroke-linecap="round" stroke-linejoin="round" />
<path d="M 151.25 226.25 L 150.0 226.25 L 147.5 227.5 L 151.25 227.5 L 167.5 221.25 L 187.5 211.25 L 202.5 203.75 L 206.25 201.25 L 200.0 202.5 " stroke="black" fill="none" stroke-width="6.0" stroke-linecap="round" stroke-linejoin="round" />
<path d="M 160.0 255.0 L 160.0 255.0 L 160.0 258.75 L 170.0 260.0 L 187.5 257.5 L 210.0 248.75 L 225.0 241.25 " stroke="black" fill="none" stroke-width="6.0" stroke-linecap="round" stroke-linejoin="round" />
</svg>