<svg xmlns="http://www.w3.org/2000/svg" width="300" height="300" viewBox="0 0 300 300">
<path d="M 75.0 116.25 L 66.25 118.75 L 63.75 118.75 L 68.75 116.25 L 83.75 107.5 L 98.75 101.25 L 110.0 97.5 L 112.5 100.0 L 107.5 111.25 L 98.75 126.25 L 92.5 138.75 L 91.25 145.0 L 92.5 146.25 L 100.0 146.25 L 108.75 143.75 L 112.5 143.75 L 112.5 152.5 L 105.0 167.5 L 97.5 183.75 L 91.25 192.5 L 86.25 195.0 L 81.25 191.25 L 78.75 181.25 L 75.0 167.5 L 72.5 152.5 L 68.75 142.5 L 68.75 143.75 L 68.75 158.75 L 72.5 190.0 L 76.25 222.5 L 77.5 248.75 L 77.5 256.25 L 77.5 253.75 " stroke="black" fill="none" stroke-width="6.0" stroke-linecap="round" stroke-linejoin="round" />
<path d="M 136.25 101.25 L 135.0 101.25 L 133.75 101.25 L 133.75 107.5 L 133.75 127.5 L 140.0 143.75 L 150.0 146.25 L 162.5 133.75 L 173.75 116.25 L 176.25 105.0 L 171.25 101.25 L 158.75 106.25 L 147.5 115.0 L 136.25 126.25 L 130.0 132.5 L 131.25 133.75 L 142.5 126.25 L 161.25 111.25 L 182.5 95.0 L 198.75 83.75 L 203.75 81.25 L 202.5 81.25 " stroke="black" fill="none" stroke-width="6.0" stroke-linecap="round" stroke-linejoin="round" />
<path d="M 188.75 97.5 L 187.5 98.75 L 187.5 98.75 L 187.5 98.75 L 193.75 93.75 L 203.75 85.0 L 211.25 75.0 L 212.5 71.25 L 210.0 71.25 " stroke="black" fill="none" stroke-width="6.0" stroke-linecap="round" stroke-linejoin="round" />
<path d="M 183.75 81.25 L 182.5 85.0 L 181.25 97.5 L 187.5 120.0 L 197.5 135.0 L 212.5 135.0 L 228.75 125.0 L 240.0 112.5 L 243.75 105.0 L 241.25 102.5 " stroke="black" fill="none" stroke-width="6.0" stroke-linecap="round" stroke-linejoin="round" />
<path d="M 142.5 188.75 L 141.25 190.0 L 141.25 190.0 L 145.0 187.5 L 165.0 176.25 L 192.5 158.75 L 205.0 147.5 L 202.5 146.25 L 192.5 151.25 L 181.25 157.5 L 170.0 166.25 L 162.5 178.75 L 160.0 198.75 L 163.75 227.5 L 167.5 248.75 L 171.25 253.75 L 171.25 253.75 L 170.0 247.5 L 168.75 241.25 " stroke="black" fill="none" stroke-width="6.0" stroke-linecap="round" stroke-linejoin="round" />
<path d="M 167.5 196.25 L 167.5 195.0 L 168.75 193.75 L 177.5 188.75 L 193.75 183.75 L 206.25 183.75 L 212.5 198.75 L 213.75 220.0 L 208.75 240.0 L 205.0 251.25 L 201.25 252.5 L 197.5 251.25 " stroke="black" fill="none" stroke-width="6.0" stroke-linecap="round" stroke-linejoin="round" />
<path d="M 167.5 226.25 L 166.25 226.25 L 163.75 226.25 L 162.5 226.25 L 170.0 222.5 L 188.75 211.25 L 206.25 198.75 L 212.5 192.5 L 212.5 192.5 " stroke="black" fill="none" stroke-width="6.0" stroke-linecap="round" stroke-linejoin="round" />
<path d="M 172.5 252.5 L 172.5 253.75 L 172.5 256.25 L 178.75 255.0 L 195.0 246.25 L 208.75 232.5 " stroke="black" fill="none" stroke-width="6.0" stroke-linecap="round" stroke-linejoin="round" />
</svg>