<svg xmlns="http://www.w3.org/2000/svg" width="300" height="300" viewBox="0 0 300 300">
<path d="M 73.75 107.5 L 71.25 108.75 L 70.0 110.0 L 75.0 110.0 L 87.5 111.25 L 102.5 111.25 L 118.75 107.5 L 122.5 106.25 " stroke="black" fill="none" stroke-width="6.0" stroke-linecap="round" stroke-linejoin="round" />
<path d="M 71.25 156.25 L 68.75 160.0 L 66.25 162.5 L 68.75 162.5 L 78.75 158.75 L 97.5 147.5 L 111.25 137.5 L 115.0 135.0 " stroke="black" fill="none" stroke-width="6.0" stroke-linecap="round" stroke-linejoin="round" />
<path d="M 73.75 226.25 L 71.25 231.25 L 70.0 235.0 L 77.5 226.25 L 88.75 211.25 L 110.0 176.25 L 116.25 160.0 " stroke="black" fill="none" stroke-width="6.0" stroke-linecap="round" stroke-linejoin="round" />
<path d="M 133.75 91.25 L 132.5 91.25 L 131.25 91.25 L 136.25 91.25 L 155.0 90.0 L 186.25 82.5 L 212.5 73.75 L 218.75 71.25 L 207.5 81.25 L 203.75 83.75 " stroke="black" fill="none" stroke-width="6.0" stroke-linecap="round" stroke-linejoin="round" />
<path d="M 132.5 127.5 L 130.0 131.25 L 128.75 135.0 L 133.75 157.5 L 141.25 180.0 L 146.25 190.0 L 147.5 190.0 L 147.5 186.25 L 143.75 178.75 L 140.0 170.0 L 137.5 161.25 L 140.0 152.5 L 151.25 143.75 L 168.75 140.0 L 175.0 145.0 L 166.25 162.5 L 150.0 181.25 L 138.75 192.5 L 136.25 191.25 L 147.5 171.25 L 158.75 151.25 " stroke="black" fill="none" stroke-width="6.0" stroke-linecap="round" stroke-linejoin="round" />
<path d="M 202.5 92.5 L 202.5 91.25 L 203.75 90.0 L 205.0 95.0 L 206.25 126.25 L 207.5 181.25 L 206.25 222.5 L 203.75 242.5 L 200.0 250.0 L 195.0 251.25 L 183.75 250.0 L 163.75 247.5 L 140.0 242.5 L 120.0 236.25 " stroke="black" fill="none" stroke-width="6.0" stroke-linecap="round" stroke-linejoin="round" />
</svg>