<svg xmlns="http://www.w3.org/2000/svg" width="300" height="300" viewBox="0 0 300 300">
<path d="M 130.0 88.75 L 130.0 88.75 L 130.0 88.75 L 130.0 88.75 L 140.0 91.25 L 156.25 97.5 L 171.25 103.75 L 173.75 106.25 " stroke="black" fill="none" stroke-width="6.0" stroke-linecap="round" stroke-linejoin="round" />
<path d="M 87.5 131.25 L 83.75 133.75 L 83.75 135.0 L 98.75 135.0 L 128.75 127.5 L 165.0 113.75 L 196.25 101.25 L 203.75 96.25 L 202.5 96.25 L 192.5 98.75 L 177.5 108.75 L 157.5 130.0 L 136.25 168.75 L 115.0 213.75 L 107.5 237.5 L 107.5 241.25 L 107.5 237.5 " stroke="black" fill="none" stroke-width="6.0" stroke-linecap="round" stroke-linejoin="round" />
<path d="M 152.5 145.0 L 152.5 143.75 L 152.5 143.75 L 155.0 143.75 L 163.75 147.5 L 182.5 158.75 L 198.75 173.75 L 201.25 192.5 L 188.75 211.25 L 171.25 228.75 L 157.5 237.5 L 152.5 236.25 L 155.0 221.25 L 156.25 210.0 " stroke="black" fill="none" stroke-width="6.0" stroke-linecap="round" stroke-linejoin="round" />
</svg>