<svg xmlns="http://www.w3.org/2000/svg" width="300" height="300" viewBox="0 0 300 300">
<path d="M 110.0 76.25 L 110.0 76.25 L 112.5 76.25 L 125.0 80.0 L 145.0 86.25 L 160.0 91.25 L 163.75 93.75 L 162.5 95.0 " stroke="black" fill="none" stroke-width="6.0" stroke-linecap="round" stroke-linejoin="round" />
<path d="M 80.0 135.0 L 80.0 135.0 L 77.5 136.25 L 82.5 136.25 L 105.0 128.75 L 145.0 113.75 L 176.25 101.25 L 186.25 97.5 L 185.0 97.5 L 171.25 108.75 L 150.0 135.0 L 127.5 175.0 L 102.5 220.0 L 97.5 241.25 L 97.5 243.75 " stroke="black" fill="none" stroke-width="6.0" stroke-linecap="round" stroke-linejoin="round" />
<path d="M 138.75 148.75 L 138.75 147.5 L 140.0 147.5 L 148.75 148.75 L 167.5 156.25 L 187.5 171.25 L 196.25 191.25 L 188.75 210.0 L 171.25 227.5 L 153.75 240.0 L 141.25 242.5 L 138.75 236.25 L 141.25 215.0 " stroke="black" fill="none" stroke-width="6.0" stroke-linecap="round" stroke-linejoin="round" />
</svg>