<svg xmlns="http://www.w3.org/2000/svg" width="300" height="300" viewBox="0 0 300 300">
<path d="M 95.0 108.75 L 92.5 106.25 L 90.0 107.5 L 91.25 131.25 L 96.25 181.25 L 100.0 216.25 L 101.25 223.75 L 101.25 218.75 L 101.25 215.0 " stroke="black" fill="none" stroke-width="6.0" stroke-linecap="round" stroke-linejoin="round" />
<path d="M 106.25 101.25 L 106.25 101.25 L 106.25 101.25 L 113.75 98.75 L 136.25 92.5 L 166.25 87.5 L 190.0 86.25 L 202.5 93.75 L 207.5 116.25 L 208.75 157.5 L 208.75 202.5 L 208.75 230.0 L 207.5 241.25 L 206.25 242.5 L 205.0 240.0 L 200.0 231.25 L 193.75 217.5 L 183.75 201.25 L 171.25 188.75 L 162.5 185.0 " stroke="black" fill="none" stroke-width="6.0" stroke-linecap="round" stroke-linejoin="round" />
<path d="M 110.0 162.5 L 105.0 165.0 L 101.25 165.0 L 105.0 165.0 L 121.25 162.5 L 142.5 156.25 L 165.0 148.75 L 175.0 143.75 L 176.25 143.75 " stroke="black" fill="none" stroke-width="6.0" stroke-linecap="round" stroke-linejoin="round" />
<path d="M 112.5 215.0 L 111.25 216.25 L 108.75 218.75 L 111.25 220.0 L 125.0 216.25 L 143.75 207.5 L 160.0 198.75 L 167.5 193.75 " stroke="black" fill="none" stroke-width="6.0" stroke-linecap="round" stroke-linejoin="round" />
</svg>