<svg xmlns="http://www.w3.org/2000/svg" width="300" height="300" viewBox="0 0 300 300">
<path d="M 93.75 100.0 L 91.25 102.5 L 87.5 103.75 L 87.5 103.75 L 93.75 103.75 L 106.25 102.5 L 116.25 101.25 L 123.75 100.0 L 123.75 110.0 L 111.25 132.5 L 97.5 155.0 L 86.25 170.0 L 80.0 178.75 L 80.0 178.75 L 87.5 175.0 L 96.25 166.25 L 107.5 157.5 L 120.0 151.25 L 126.25 151.25 L 125.0 167.5 L 112.5 196.25 L 98.75 222.5 L 88.75 238.75 L 83.75 241.25 L 82.5 235.0 L 82.5 232.5 " stroke="black" fill="none" stroke-width="6.0" stroke-linecap="round" stroke-linejoin="round" />
<path d="M 91.25 178.75 L 91.25 175.0 L 90.0 175.0 L 91.25 181.25 L 96.25 193.75 L 103.75 205.0 L 110.0 211.25 " stroke="black" fill="none" stroke-width="6.0" stroke-linecap="round" stroke-linejoin="round" />
<path d="M 160.0 95.0 L 160.0 91.25 L 158.75 90.0 L 158.75 90.0 L 162.5 101.25 L 166.25 117.5 L 171.25 127.5 L 180.0 128.75 L 195.0 116.25 L 206.25 101.25 L 212.5 92.5 L 212.5 91.25 L 203.75 101.25 L 191.25 120.0 " stroke="black" fill="none" stroke-width="6.0" stroke-linecap="round" stroke-linejoin="round" />
<path d="M 145.0 185.0 L 141.25 192.5 L 143.75 192.5 L 155.0 183.75 L 176.25 167.5 L 202.5 151.25 L 220.0 138.75 L 228.75 132.5 L 227.5 127.5 L 218.75 126.25 L 210.0 122.5 L 202.5 117.5 L 195.0 108.75 L 188.75 101.25 L 185.0 95.0 L 183.75 88.75 L 185.0 83.75 L 187.5 81.25 L 188.75 81.25 L 188.75 86.25 L 190.0 102.5 L 191.25 132.5 L 192.5 166.25 L 195.0 195.0 L 196.25 210.0 L 196.25 218.75 L 196.25 225.0 L 196.25 231.25 L 193.75 236.25 L 190.0 238.75 L 186.25 241.25 L 180.0 242.5 L 175.0 242.5 " stroke="black" fill="none" stroke-width="6.0" stroke-linecap="round" stroke-linejoin="round" />
<path d="M 187.5 180.0 L 178.75 190.0 L 166.25 208.75 L 152.5 228.75 L 143.75 241.25 L 138.75 243.75 L 138.75 238.75 L 142.5 230.0 " stroke="black" fill="none" stroke-width="6.0" stroke-linecap="round" stroke-linejoin="round" />
<path d="M 191.25 165.0 L 191.25 165.0 L 193.75 165.0 L 198.75 173.75 L 208.75 190.0 L 221.25 206.25 L 236.25 216.25 L 247.5 223.75 L 251.25 227.5 " stroke="black" fill="none" stroke-width="6.0" stroke-linecap="round" stroke-linejoin="round" />
</svg>