<svg xmlns="http://www.w3.org/2000/svg" width="300" height="300" viewBox="0 0 300 300">
<path d="M 143.75 80.0 L 141.25 80.0 L 132.5 86.25 L 122.5 106.25 L 110.0 146.25 L 98.75 186.25 L 92.5 205.0 L 92.5 207.5 L 91.25 205.0 " stroke="black" fill="none" stroke-width="6.0" stroke-linecap="round" stroke-linejoin="round" />
<path d="M 133.75 86.25 L 135.0 83.75 L 137.5 80.0 L 148.75 80.0 L 168.75 90.0 L 193.75 108.75 L 212.5 131.25 L 226.25 145.0 L 232.5 153.75 L 228.75 158.75 " stroke="black" fill="none" stroke-width="6.0" stroke-linecap="round" stroke-linejoin="round" />
<path d="M 137.5 141.25 L 135.0 142.5 L 133.75 142.5 L 141.25 143.75 L 153.75 146.25 L 165.0 148.75 L 171.25 152.5 L 166.25 157.5 L 155.0 163.75 L 142.5 168.75 L 130.0 175.0 L 125.0 178.75 L 125.0 178.75 L 133.75 178.75 L 146.25 177.5 L 161.25 173.75 L 175.0 171.25 L 181.25 171.25 L 181.25 176.25 L 171.25 186.25 L 157.5 197.5 L 142.5 207.5 L 127.5 216.25 L 118.75 220.0 L 116.25 221.25 L 116.25 221.25 L 118.75 220.0 L 122.5 220.0 L 127.5 220.0 L 130.0 218.75 L 133.75 218.75 L 135.0 218.75 L 136.25 218.75 L 137.5 218.75 L 141.25 218.75 L 147.5 221.25 L 157.5 226.25 L 172.5 232.5 L 186.25 237.5 L 192.5 241.25 " stroke="black" fill="none" stroke-width="6.0" stroke-linecap="round" stroke-linejoin="round" />
</svg>