<svg xmlns="http://www.w3.org/2000/svg" width="300" height="300" viewBox="0 0 300 300">
<path d="M 85.0 112.5 L 83.75 112.5 L 80.0 113.75 L 80.0 115.0 L 86.25 115.0 L 100.0 115.0 L 113.75 111.25 L 126.25 106.25 L 126.25 103.75 " stroke="black" fill="none" stroke-width="6.0" stroke-linecap="round" stroke-linejoin="round" />
<path d="M 73.75 173.75 L 72.5 173.75 L 72.5 173.75 L 80.0 170.0 L 93.75 160.0 L 108.75 151.25 L 115.0 147.5 L 115.0 147.5 " stroke="black" fill="none" stroke-width="6.0" stroke-linecap="round" stroke-linejoin="round" />
<path d="M 77.5 230.0 L 73.75 233.75 L 76.25 232.5 L 90.0 218.75 L 106.25 198.75 L 117.5 180.0 " stroke="black" fill="none" stroke-width="6.0" stroke-linecap="round" stroke-linejoin="round" />
<path d="M 132.5 111.25 L 131.25 111.25 L 132.5 111.25 L 143.75 106.25 L 166.25 97.5 L 187.5 87.5 L 197.5 82.5 L 197.5 81.25 L 188.75 86.25 L 178.75 90.0 L 168.75 91.25 L 160.0 91.25 L 155.0 90.0 L 155.0 87.5 L 155.0 92.5 L 155.0 116.25 L 155.0 142.5 L 157.5 153.75 L 166.25 153.75 L 176.25 145.0 L 190.0 132.5 L 200.0 121.25 L 205.0 113.75 L 205.0 111.25 L 203.75 111.25 L 202.5 112.5 L 202.5 113.75 L 202.5 115.0 L 205.0 121.25 L 208.75 131.25 L 212.5 143.75 L 213.75 157.5 L 212.5 160.0 " stroke="black" fill="none" stroke-width="6.0" stroke-linecap="round" stroke-linejoin="round" />
<path d="M 143.75 188.75 L 141.25 188.75 L 141.25 188.75 L 141.25 196.25 L 142.5 213.75 L 143.75 232.5 L 145.0 242.5 L 143.75 242.5 " stroke="black" fill="none" stroke-width="6.0" stroke-linecap="round" stroke-linejoin="round" />
<path d="M 168.75 176.25 L 170.0 172.5 L 171.25 172.5 L 175.0 180.0 L 176.25 198.75 L 176.25 216.25 L 175.0 227.5 L 173.75 226.25 " stroke="black" fill="none" stroke-width="6.0" stroke-linecap="round" stroke-linejoin="round" />
<path d="M 202.5 173.75 L 202.5 175.0 L 201.25 178.75 L 202.5 192.5 L 207.5 211.25 L 218.75 227.5 L 238.75 233.75 L 255.0 233.75 L 265.0 231.25 L 268.75 228.75 L 268.75 227.5 L 267.5 222.5 L 265.0 211.25 L 262.5 197.5 L 262.5 171.25 L 262.5 162.5 " stroke="black" fill="none" stroke-width="6.0" stroke-linecap="round" stroke-linejoin="round" />
</svg>