<svg xmlns="http://www.w3.org/2000/svg" width="300" height="300" viewBox="0 0 300 300">
<path d="M 87.5 125.0 L 86.25 126.25 L 82.5 127.5 L 83.75 128.75 L 93.75 127.5 L 106.25 123.75 L 118.75 118.75 L 123.75 113.75 " stroke="black" fill="none" stroke-width="6.0" stroke-linecap="round" stroke-linejoin="round" />
<path d="M 91.25 175.0 L 90.0 176.25 L 86.25 178.75 L 87.5 178.75 L 97.5 172.5 L 110.0 163.75 L 120.0 153.75 L 123.75 150.0 " stroke="black" fill="none" stroke-width="6.0" stroke-linecap="round" stroke-linejoin="round" />
<path d="M 93.75 221.25 L 91.25 223.75 L 90.0 226.25 L 95.0 220.0 L 107.5 205.0 L 123.75 185.0 L 127.5 180.0 " stroke="black" fill="none" stroke-width="6.0" stroke-linecap="round" stroke-linejoin="round" />
<path d="M 140.0 93.75 L 136.25 95.0 L 135.0 95.0 L 143.75 92.5 L 161.25 86.25 L 182.5 76.25 L 197.5 68.75 L 200.0 65.0 L 195.0 63.75 L 185.0 66.25 L 176.25 70.0 L 168.75 73.75 L 162.5 83.75 L 161.25 100.0 L 162.5 120.0 L 168.75 132.5 L 175.0 133.75 L 182.5 130.0 L 188.75 120.0 L 191.25 112.5 L 192.5 105.0 L 192.5 100.0 L 192.5 97.5 L 192.5 97.5 L 192.5 97.5 L 191.25 98.75 L 191.25 98.75 L 191.25 100.0 L 192.5 100.0 L 193.75 100.0 L 193.75 100.0 L 195.0 100.0 L 197.5 101.25 L 202.5 106.25 L 210.0 113.75 L 213.75 127.5 L 213.75 130.0 " stroke="black" fill="none" stroke-width="6.0" stroke-linecap="round" stroke-linejoin="round" />
<path d="M 148.75 177.5 L 148.75 176.25 L 148.75 173.75 L 148.75 172.5 L 150.0 177.5 L 152.5 192.5 L 152.5 211.25 L 152.5 222.5 L 151.25 223.75 " stroke="black" fill="none" stroke-width="6.0" stroke-linecap="round" stroke-linejoin="round" />
<path d="M 172.5 171.25 L 172.5 171.25 L 172.5 176.25 L 175.0 190.0 L 180.0 206.25 L 180.0 218.75 L 181.25 217.5 " stroke="black" fill="none" stroke-width="6.0" stroke-linecap="round" stroke-linejoin="round" />
<path d="M 205.0 158.75 L 205.0 160.0 L 205.0 167.5 L 206.25 192.5 L 211.25 213.75 L 218.75 223.75 L 227.5 227.5 L 235.0 227.5 L 242.5 230.0 L 247.5 232.5 L 248.75 235.0 L 248.75 235.0 L 248.75 235.0 L 248.75 235.0 L 248.75 235.0 L 248.75 228.75 L 250.0 216.25 L 253.75 198.75 L 256.25 168.75 L 256.25 160.0 " stroke="black" fill="none" stroke-width="6.0" stroke-linecap="round" stroke-linejoin="round" />
</svg>