<svg xmlns="http://www.w3.org/2000/svg" width="300" height="300" viewBox="0 0 300 300">
<path d="M 78.75 92.5 L 78.75 91.25 L 76.25 90.0 L 76.25 95.0 L 80.0 127.5 L 85.0 182.5 L 86.25 216.25 L 87.5 226.25 L 87.5 226.25 " stroke="black" fill="none" stroke-width="6.0" stroke-linecap="round" stroke-linejoin="round" />
<path d="M 71.25 102.5 L 71.25 102.5 L 68.75 101.25 L 68.75 101.25 L 77.5 100.0 L 93.75 98.75 L 107.5 98.75 L 117.5 100.0 L 117.5 103.75 L 108.75 112.5 L 97.5 121.25 L 87.5 127.5 L 80.0 130.0 L 78.75 131.25 L 82.5 127.5 L 92.5 120.0 L 106.25 111.25 L 120.0 106.25 L 126.25 106.25 L 123.75 117.5 L 112.5 133.75 L 98.75 147.5 L 87.5 155.0 L 83.75 155.0 L 90.0 143.75 " stroke="black" fill="none" stroke-width="6.0" stroke-linecap="round" stroke-linejoin="round" />
<path d="M 153.75 83.75 L 150.0 85.0 L 150.0 90.0 L 155.0 108.75 L 165.0 128.75 L 180.0 132.5 L 195.0 123.75 L 205.0 108.75 L 207.5 97.5 L 207.5 91.25 L 198.75 90.0 L 183.75 95.0 L 167.5 105.0 L 153.75 117.5 L 151.25 121.25 L 157.5 118.75 L 172.5 107.5 L 188.75 95.0 L 200.0 83.75 L 202.5 77.5 L 200.0 76.25 " stroke="black" fill="none" stroke-width="6.0" stroke-linecap="round" stroke-linejoin="round" />
<path d="M 155.0 81.25 L 152.5 81.25 L 151.25 81.25 L 156.25 80.0 L 172.5 73.75 L 193.75 66.25 L 208.75 63.75 L 215.0 71.25 L 221.25 97.5 L 223.75 141.25 L 225.0 183.75 L 228.75 218.75 L 235.0 241.25 L 236.25 251.25 L 236.25 255.0 L 233.75 255.0 L 228.75 253.75 L 218.75 246.25 L 208.75 233.75 L 197.5 215.0 L 191.25 205.0 " stroke="black" fill="none" stroke-width="6.0" stroke-linecap="round" stroke-linejoin="round" />
<path d="M 112.5 167.5 L 110.0 168.75 L 107.5 170.0 L 112.5 171.25 L 130.0 167.5 L 147.5 158.75 L 163.75 147.5 L 171.25 137.5 L 172.5 133.75 L 166.25 133.75 L 158.75 136.25 L 152.5 137.5 L 148.75 138.75 L 145.0 140.0 L 142.5 140.0 L 142.5 140.0 L 142.5 142.5 L 146.25 161.25 L 150.0 198.75 L 152.5 227.5 L 152.5 236.25 L 148.75 237.5 L 146.25 230.0 " stroke="black" fill="none" stroke-width="6.0" stroke-linecap="round" stroke-linejoin="round" />
<path d="M 142.5 160.0 L 137.5 166.25 L 132.5 177.5 L 122.5 196.25 L 112.5 210.0 L 103.75 216.25 L 101.25 213.75 " stroke="black" fill="none" stroke-width="6.0" stroke-linecap="round" stroke-linejoin="round" />
<path d="M 140.0 160.0 L 140.0 160.0 L 143.75 161.25 L 156.25 173.75 L 177.5 193.75 L 193.75 205.0 L 202.5 211.25 L 203.75 215.0 L 203.75 217.5 " stroke="black" fill="none" stroke-width="6.0" stroke-linecap="round" stroke-linejoin="round" />
</svg>