<svg xmlns="http://www.w3.org/2000/svg" width="300" height="300" viewBox="0 0 300 300">
<path d="M 163.75 83.75 L 161.25 85.0 L 155.0 92.5 L 145.0 110.0 L 126.25 140.0 L 102.5 161.25 L 90.0 170.0 L 82.5 167.5 " stroke="black" fill="none" stroke-width="6.0" stroke-linecap="round" stroke-linejoin="round" />
<path d="M 160.0 85.0 L 163.75 88.75 L 177.5 98.75 L 197.5 116.25 L 213.75 133.75 L 231.25 145.0 L 240.0 148.75 L 238.75 150.0 " stroke="black" fill="none" stroke-width="6.0" stroke-linecap="round" stroke-linejoin="round" />
<path d="M 143.75 151.25 L 142.5 151.25 L 140.0 152.5 L 140.0 152.5 L 150.0 151.25 L 165.0 147.5 L 180.0 141.25 L 183.75 140.0 " stroke="black" fill="none" stroke-width="6.0" stroke-linecap="round" stroke-linejoin="round" />
<path d="M 132.5 196.25 L 131.25 200.0 L 132.5 202.5 L 145.0 200.0 L 170.0 185.0 L 192.5 168.75 L 200.0 157.5 L 192.5 156.25 " stroke="black" fill="none" stroke-width="6.0" stroke-linecap="round" stroke-linejoin="round" />
<path d="M 167.5 157.5 L 166.25 160.0 L 166.25 162.5 L 167.5 181.25 L 171.25 211.25 L 172.5 235.0 L 171.25 242.5 L 167.5 242.5 L 158.75 237.5 L 151.25 227.5 L 146.25 215.0 L 141.25 203.75 L 137.5 195.0 L 137.5 195.0 L 138.75 200.0 L 143.75 213.75 L 147.5 230.0 L 153.75 240.0 L 156.25 241.25 " stroke="black" fill="none" stroke-width="6.0" stroke-linecap="round" stroke-linejoin="round" />
<path d="M 203.75 186.25 L 203.75 186.25 L 203.75 186.25 L 201.25 190.0 L 191.25 205.0 L 175.0 226.25 L 160.0 241.25 L 147.5 246.25 L 137.5 248.75 L 133.75 248.75 L 132.5 248.75 L 132.5 248.75 L 132.5 247.5 L 132.5 247.5 L 132.5 247.5 L 132.5 247.5 L 132.5 247.5 L 132.5 247.5 L 132.5 247.5 L 132.5 247.5 L 131.25 247.5 L 130.0 247.5 L 128.75 248.75 L 127.5 248.75 L 126.25 248.75 L 126.25 250.0 L 126.25 250.0 L 128.75 250.0 L 141.25 250.0 L 168.75 246.25 L 200.0 240.0 L 217.5 235.0 L 228.75 233.75 L 235.0 233.75 L 240.0 233.75 L 242.5 233.75 L 242.5 233.75 L 241.25 232.5 " stroke="black" fill="none" stroke-width="6.0" stroke-linecap="round" stroke-linejoin="round" />
</svg>