<svg xmlns="http://www.w3.org/2000/svg" width="300" height="300" viewBox="0 0 300 300">
<path d="M 147.5 95.0 L 141.25 102.5 L 128.75 126.25 L 108.75 155.0 L 92.5 176.25 L 82.5 185.0 L 78.75 180.0 " stroke="black" fill="none" stroke-width="6.0" stroke-linecap="round" stroke-linejoin="round" />
<path d="M 133.75 98.75 L 142.5 97.5 L 160.0 102.5 L 186.25 117.5 L 200.0 130.0 L 211.25 147.5 L 211.25 151.25 L 202.5 153.75 L 195.0 153.75 " stroke="black" fill="none" stroke-width="6.0" stroke-linecap="round" stroke-linejoin="round" />
<path d="M 137.5 150.0 L 136.25 151.25 L 135.0 151.25 L 137.5 151.25 L 147.5 151.25 L 160.0 148.75 L 166.25 147.5 L 166.25 147.5 " stroke="black" fill="none" stroke-width="6.0" stroke-linecap="round" stroke-linejoin="round" />
<path d="M 125.0 201.25 L 121.25 203.75 L 123.75 205.0 L 138.75 200.0 L 161.25 183.75 L 182.5 163.75 L 187.5 153.75 L 185.0 152.5 " stroke="black" fill="none" stroke-width="6.0" stroke-linecap="round" stroke-linejoin="round" />
<path d="M 155.0 158.75 L 155.0 160.0 L 155.0 165.0 L 160.0 185.0 L 161.25 210.0 L 156.25 230.0 L 147.5 242.5 L 138.75 243.75 " stroke="black" fill="none" stroke-width="6.0" stroke-linecap="round" stroke-linejoin="round" />
<path d="M 132.5 206.25 L 132.5 206.25 L 131.25 206.25 L 130.0 208.75 L 135.0 217.5 L 145.0 232.5 L 151.25 237.5 " stroke="black" fill="none" stroke-width="6.0" stroke-linecap="round" stroke-linejoin="round" />
<path d="M 201.25 186.25 L 201.25 186.25 L 198.75 186.25 L 195.0 192.5 L 185.0 206.25 L 170.0 222.5 L 152.5 235.0 L 136.25 241.25 L 120.0 246.25 L 108.75 247.5 L 106.25 247.5 L 106.25 247.5 L 106.25 247.5 L 107.5 247.5 L 108.75 247.5 L 112.5 247.5 L 115.0 247.5 L 118.75 246.25 L 123.75 246.25 L 128.75 246.25 L 133.75 246.25 L 141.25 245.0 L 152.5 243.75 L 167.5 240.0 L 190.0 236.25 L 211.25 233.75 L 228.75 233.75 L 245.0 236.25 L 255.0 238.75 L 257.5 240.0 L 258.75 240.0 L 258.75 240.0 L 258.75 240.0 L 258.75 240.0 " stroke="black" fill="none" stroke-width="6.0" stroke-linecap="round" stroke-linejoin="round" />
</svg>