<svg xmlns="http://www.w3.org/2000/svg" width="300" height="300" viewBox="0 0 300 300">
<path d="M 136.25 78.75 L 132.5 80.0 L 127.5 96.25 L 113.75 132.5 L 96.25 163.75 L 81.25 185.0 L 72.5 191.25 L 68.75 187.5 " stroke="black" fill="none" stroke-width="6.0" stroke-linecap="round" stroke-linejoin="round" />
<path d="M 136.25 78.75 L 138.75 77.5 L 146.25 80.0 L 165.0 92.5 L 188.75 112.5 L 210.0 136.25 L 223.75 155.0 L 220.0 168.75 L 212.5 176.25 " stroke="black" fill="none" stroke-width="6.0" stroke-linecap="round" stroke-linejoin="round" />
<path d="M 127.5 153.75 L 122.5 153.75 L 121.25 153.75 L 127.5 153.75 L 143.75 148.75 L 165.0 140.0 L 181.25 131.25 L 186.25 126.25 L 173.75 127.5 L 163.75 133.75 " stroke="black" fill="none" stroke-width="6.0" stroke-linecap="round" stroke-linejoin="round" />
<path d="M 122.5 188.75 L 117.5 196.25 L 123.75 196.25 L 138.75 192.5 L 156.25 180.0 L 171.25 165.0 L 177.5 156.25 L 172.5 153.75 L 165.0 153.75 L 157.5 152.5 L 152.5 152.5 L 148.75 152.5 L 148.75 155.0 L 150.0 168.75 L 153.75 193.75 L 153.75 216.25 L 151.25 227.5 L 147.5 228.75 " stroke="black" fill="none" stroke-width="6.0" stroke-linecap="round" stroke-linejoin="round" />
<path d="M 121.25 193.75 L 121.25 193.75 L 118.75 198.75 L 120.0 211.25 L 126.25 231.25 L 131.25 240.0 " stroke="black" fill="none" stroke-width="6.0" stroke-linecap="round" stroke-linejoin="round" />
<path d="M 190.0 185.0 L 190.0 183.75 L 190.0 183.75 L 188.75 191.25 L 178.75 208.75 L 161.25 228.75 L 143.75 242.5 L 131.25 246.25 L 120.0 247.5 L 115.0 247.5 L 115.0 247.5 L 115.0 247.5 L 116.25 247.5 L 118.75 247.5 L 120.0 246.25 L 120.0 246.25 L 120.0 246.25 L 120.0 246.25 L 120.0 246.25 L 120.0 246.25 L 120.0 246.25 L 120.0 246.25 L 121.25 246.25 L 123.75 246.25 L 135.0 245.0 L 161.25 238.75 L 191.25 232.5 L 211.25 230.0 L 218.75 228.75 L 221.25 228.75 L 221.25 228.75 L 220.0 230.0 L 218.75 231.25 " stroke="black" fill="none" stroke-width="6.0" stroke-linecap="round" stroke-linejoin="round" />
</svg>