<svg xmlns="http://www.w3.org/2000/svg" width="300" height="300" viewBox="0 0 300 300">
<path d="M 148.75 72.5 L 148.75 72.5 L 146.25 76.25 L 136.25 98.75 L 110.0 140.0 L 86.25 168.75 L 66.25 183.75 L 55.0 180.0 L 52.5 170.0 " stroke="black" fill="none" stroke-width="6.0" stroke-linecap="round" stroke-linejoin="round" />
<path d="M 138.75 76.25 L 142.5 76.25 L 157.5 86.25 L 185.0 105.0 L 206.25 120.0 L 218.75 128.75 L 232.5 136.25 L 230.0 137.5 L 226.25 137.5 " stroke="black" fill="none" stroke-width="6.0" stroke-linecap="round" stroke-linejoin="round" />
<path d="M 133.75 143.75 L 130.0 145.0 L 128.75 146.25 L 138.75 146.25 L 153.75 143.75 L 171.25 136.25 L 180.0 131.25 L 180.0 131.25 " stroke="black" fill="none" stroke-width="6.0" stroke-linecap="round" stroke-linejoin="round" />
<path d="M 126.25 197.5 L 126.25 200.0 L 130.0 202.5 L 147.5 196.25 L 172.5 180.0 L 191.25 163.75 L 193.75 155.0 L 187.5 155.0 " stroke="black" fill="none" stroke-width="6.0" stroke-linecap="round" stroke-linejoin="round" />
<path d="M 157.5 155.0 L 157.5 156.25 L 157.5 158.75 L 158.75 172.5 L 160.0 201.25 L 158.75 225.0 L 153.75 236.25 L 148.75 238.75 L 143.75 237.5 " stroke="black" fill="none" stroke-width="6.0" stroke-linecap="round" stroke-linejoin="round" />
<path d="M 127.5 212.5 L 126.25 212.5 L 125.0 212.5 L 125.0 213.75 L 127.5 217.5 L 136.25 228.75 L 145.0 240.0 L 147.5 241.25 " stroke="black" fill="none" stroke-width="6.0" stroke-linecap="round" stroke-linejoin="round" />
<path d="M 196.25 186.25 L 196.25 186.25 L 193.75 187.5 L 188.75 195.0 L 177.5 211.25 L 163.75 226.25 L 147.5 237.5 L 133.75 243.75 L 123.75 245.0 L 122.5 245.0 L 122.5 243.75 L 126.25 243.75 L 133.75 241.25 L 140.0 240.0 L 146.25 238.75 L 148.75 238.75 L 150.0 238.75 L 150.0 238.75 L 150.0 238.75 L 148.75 238.75 L 147.5 238.75 L 147.5 238.75 L 147.5 240.0 L 150.0 240.0 L 163.75 238.75 L 191.25 237.5 L 221.25 235.0 L 245.0 236.25 L 257.5 238.75 L 258.75 240.0 L 255.0 240.0 L 253.75 240.0 " stroke="black" fill="none" stroke-width="6.0" stroke-linecap="round" stroke-linejoin="round" />
</svg>