<svg xmlns="http://www.w3.org/2000/svg" width="300" height="300" viewBox="0 0 300 300">
<path d="M 128.75 52.5 L 128.75 52.5 L 126.25 52.5 L 125.0 57.5 L 125.0 71.25 L 125.0 83.75 L 131.25 87.5 L 142.5 83.75 L 151.25 72.5 L 156.25 63.75 L 157.5 60.0 L 157.5 58.75 L 156.25 58.75 L 156.25 58.75 L 156.25 58.75 L 156.25 61.25 L 160.0 66.25 L 165.0 73.75 L 166.25 83.75 " stroke="black" fill="none" stroke-width="6.0" stroke-linecap="round" stroke-linejoin="round" />
<path d="M 97.5 107.5 L 97.5 107.5 L 97.5 107.5 L 97.5 111.25 L 100.0 121.25 L 102.5 133.75 L 103.75 141.25 L 105.0 142.5 L 107.5 141.25 L 111.25 136.25 L 117.5 128.75 L 122.5 122.5 L 125.0 117.5 L 125.0 115.0 L 125.0 115.0 L 125.0 116.25 L 123.75 122.5 L 123.75 131.25 L 127.5 137.5 L 133.75 141.25 " stroke="black" fill="none" stroke-width="6.0" stroke-linecap="round" stroke-linejoin="round" />
<path d="M 160.0 92.5 L 158.75 92.5 L 157.5 95.0 L 157.5 102.5 L 162.5 112.5 L 167.5 121.25 L 172.5 123.75 L 180.0 118.75 L 188.75 107.5 L 195.0 96.25 L 198.75 87.5 L 200.0 83.75 L 200.0 82.5 L 200.0 85.0 L 201.25 90.0 L 203.75 95.0 L 205.0 102.5 L 205.0 108.75 " stroke="black" fill="none" stroke-width="6.0" stroke-linecap="round" stroke-linejoin="round" />
<path d="M 138.75 145.0 L 131.25 151.25 L 113.75 170.0 L 97.5 192.5 L 83.75 207.5 L 75.0 211.25 L 72.5 206.25 L 72.5 203.75 " stroke="black" fill="none" stroke-width="6.0" stroke-linecap="round" stroke-linejoin="round" />
<path d="M 143.75 143.75 L 156.25 142.5 L 181.25 148.75 L 207.5 157.5 L 228.75 167.5 L 246.25 176.25 L 248.75 178.75 L 242.5 180.0 L 231.25 180.0 " stroke="black" fill="none" stroke-width="6.0" stroke-linecap="round" stroke-linejoin="round" />
<path d="M 148.75 166.25 L 143.75 171.25 L 136.25 185.0 L 123.75 205.0 L 110.0 222.5 L 105.0 230.0 L 106.25 223.75 L 108.75 220.0 " stroke="black" fill="none" stroke-width="6.0" stroke-linecap="round" stroke-linejoin="round" />
<path d="M 166.25 175.0 L 165.0 176.25 L 160.0 185.0 L 151.25 201.25 L 142.5 220.0 L 138.75 228.75 L 140.0 222.5 " stroke="black" fill="none" stroke-width="6.0" stroke-linecap="round" stroke-linejoin="round" />
<path d="M 190.0 182.5 L 190.0 182.5 L 188.75 187.5 L 180.0 203.75 L 161.25 236.25 L 145.0 261.25 L 131.25 272.5 L 123.75 273.75 " stroke="black" fill="none" stroke-width="6.0" stroke-linecap="round" stroke-linejoin="round" />
</svg>