<svg xmlns="http://www.w3.org/2000/svg" width="300" height="300" viewBox="0 0 300 300">
<path d="M 78.75 111.25 L 73.75 113.75 L 73.75 115.0 L 83.75 110.0 L 97.5 102.5 L 112.5 93.75 L 125.0 86.25 L 126.25 83.75 L 123.75 83.75 " stroke="black" fill="none" stroke-width="6.0" stroke-linecap="round" stroke-linejoin="round" />
<path d="M 102.5 102.5 L 102.5 102.5 L 101.25 105.0 L 100.0 107.5 L 100.0 113.75 L 101.25 123.75 L 102.5 133.75 L 102.5 142.5 L 98.75 150.0 L 93.75 156.25 L 88.75 160.0 L 87.5 162.5 L 86.25 162.5 L 86.25 162.5 L 86.25 162.5 L 87.5 162.5 L 90.0 161.25 L 92.5 160.0 L 97.5 157.5 L 103.75 153.75 L 112.5 146.25 L 123.75 136.25 L 126.25 131.25 " stroke="black" fill="none" stroke-width="6.0" stroke-linecap="round" stroke-linejoin="round" />
<path d="M 152.5 82.5 L 150.0 83.75 L 146.25 85.0 L 145.0 85.0 L 150.0 85.0 L 161.25 83.75 L 175.0 81.25 L 187.5 78.75 L 196.25 78.75 L 196.25 85.0 L 192.5 100.0 L 190.0 122.5 L 192.5 138.75 L 201.25 146.25 L 213.75 146.25 L 225.0 143.75 L 232.5 138.75 L 233.75 133.75 L 231.25 131.25 L 222.5 128.75 L 212.5 125.0 L 211.25 123.75 " stroke="black" fill="none" stroke-width="6.0" stroke-linecap="round" stroke-linejoin="round" />
<path d="M 177.5 97.5 L 176.25 97.5 L 175.0 97.5 L 173.75 97.5 L 172.5 108.75 L 166.25 135.0 L 157.5 157.5 L 148.75 165.0 L 142.5 163.75 L 141.25 160.0 " stroke="black" fill="none" stroke-width="6.0" stroke-linecap="round" stroke-linejoin="round" />
<path d="M 143.75 111.25 L 142.5 111.25 L 142.5 112.5 L 151.25 116.25 L 167.5 123.75 L 187.5 132.5 L 202.5 137.5 L 202.5 138.75 " stroke="black" fill="none" stroke-width="6.0" stroke-linecap="round" stroke-linejoin="round" />
<path d="M 87.5 203.75 L 83.75 203.75 L 81.25 203.75 L 80.0 206.25 L 87.5 221.25 L 96.25 240.0 L 106.25 252.5 L 113.75 255.0 L 115.0 253.75 " stroke="black" fill="none" stroke-width="6.0" stroke-linecap="round" stroke-linejoin="round" />
<path d="M 143.75 195.0 L 143.75 201.25 L 147.5 218.75 L 160.0 240.0 L 177.5 252.5 L 198.75 253.75 L 212.5 250.0 L 217.5 245.0 L 217.5 238.75 L 210.0 233.75 L 197.5 227.5 L 180.0 222.5 L 162.5 216.25 L 153.75 213.75 L 156.25 211.25 L 177.5 206.25 L 205.0 200.0 L 228.75 195.0 L 243.75 193.75 L 245.0 193.75 " stroke="black" fill="none" stroke-width="6.0" stroke-linecap="round" stroke-linejoin="round" />
</svg>