<svg xmlns="http://www.w3.org/2000/svg" width="300" height="300" viewBox="0 0 300 300">
<path d="M 126.25 75.0 L 126.25 75.0 L 126.25 75.0 L 128.75 75.0 L 143.75 75.0 L 165.0 73.75 L 181.25 70.0 L 181.25 68.75 L 177.5 70.0 " stroke="black" fill="none" stroke-width="6.0" stroke-linecap="round" stroke-linejoin="round" />
<path d="M 81.25 96.25 L 81.25 96.25 L 80.0 98.75 L 82.5 107.5 L 91.25 127.5 L 98.75 145.0 L 103.75 151.25 L 103.75 151.25 " stroke="black" fill="none" stroke-width="6.0" stroke-linecap="round" stroke-linejoin="round" />
<path d="M 98.75 117.5 L 97.5 116.25 L 98.75 115.0 L 116.25 111.25 L 152.5 105.0 L 190.0 100.0 L 210.0 97.5 L 212.5 100.0 L 203.75 108.75 L 188.75 122.5 L 171.25 132.5 L 152.5 135.0 L 147.5 135.0 " stroke="black" fill="none" stroke-width="6.0" stroke-linecap="round" stroke-linejoin="round" />
<path d="M 153.75 87.5 L 153.75 86.25 L 153.75 86.25 L 153.75 91.25 L 153.75 112.5 L 153.75 136.25 L 155.0 142.5 L 158.75 131.25 L 167.5 112.5 L 177.5 93.75 L 186.25 80.0 L 188.75 76.25 L 186.25 81.25 L 176.25 97.5 L 163.75 116.25 L 150.0 133.75 L 137.5 138.75 L 135.0 138.75 " stroke="black" fill="none" stroke-width="6.0" stroke-linecap="round" stroke-linejoin="round" />
<path d="M 126.25 98.75 L 126.25 97.5 L 125.0 96.25 L 125.0 98.75 L 125.0 118.75 L 126.25 146.25 L 127.5 165.0 " stroke="black" fill="none" stroke-width="6.0" stroke-linecap="round" stroke-linejoin="round" />
<path d="M 123.75 153.75 L 122.5 153.75 L 121.25 155.0 L 123.75 156.25 L 140.0 155.0 L 165.0 146.25 L 188.75 135.0 L 197.5 130.0 L 188.75 132.5 L 180.0 136.25 " stroke="black" fill="none" stroke-width="6.0" stroke-linecap="round" stroke-linejoin="round" />
<path d="M 120.0 195.0 L 118.75 196.25 L 115.0 200.0 L 115.0 200.0 L 131.25 195.0 L 155.0 182.5 L 178.75 168.75 L 191.25 160.0 L 190.0 160.0 L 176.25 175.0 L 157.5 195.0 L 140.0 218.75 L 133.75 237.5 L 136.25 241.25 L 150.0 238.75 L 168.75 227.5 L 190.0 213.75 L 202.5 207.5 L 205.0 206.25 L 201.25 206.25 L 195.0 206.25 L 190.0 205.0 L 186.25 202.5 L 183.75 200.0 L 182.5 197.5 L 182.5 197.5 L 185.0 197.5 L 193.75 206.25 L 205.0 220.0 L 218.75 237.5 L 225.0 248.75 " stroke="black" fill="none" stroke-width="6.0" stroke-linecap="round" stroke-linejoin="round" />
</svg>