<svg xmlns="http://www.w3.org/2000/svg" width="300" height="300" viewBox="0 0 300 300">
<path d="M 86.25 108.75 L 86.25 108.75 L 85.0 108.75 L 82.5 112.5 L 78.75 128.75 L 68.75 152.5 L 57.5 166.25 " stroke="black" fill="none" stroke-width="6.0" stroke-linecap="round" stroke-linejoin="round" />
<path d="M 95.0 140.0 L 95.0 142.5 L 92.5 152.5 L 88.75 171.25 L 80.0 198.75 L 67.5 216.25 L 60.0 218.75 L 60.0 213.75 " stroke="black" fill="none" stroke-width="6.0" stroke-linecap="round" stroke-linejoin="round" />
<path d="M 86.25 185.0 L 88.75 185.0 L 92.5 201.25 L 95.0 231.25 L 92.5 256.25 L 87.5 265.0 " stroke="black" fill="none" stroke-width="6.0" stroke-linecap="round" stroke-linejoin="round" />
<path d="M 118.75 103.75 L 118.75 102.5 L 117.5 101.25 L 118.75 105.0 L 121.25 116.25 L 123.75 125.0 L 128.75 128.75 L 137.5 125.0 L 147.5 113.75 L 156.25 103.75 L 160.0 96.25 L 161.25 92.5 L 161.25 91.25 L 160.0 90.0 L 158.75 90.0 L 158.75 90.0 L 158.75 90.0 L 158.75 90.0 L 158.75 90.0 L 158.75 90.0 L 158.75 90.0 L 158.75 90.0 L 158.75 90.0 L 158.75 90.0 L 158.75 92.5 L 162.5 98.75 L 168.75 107.5 L 172.5 117.5 L 171.25 125.0 " stroke="black" fill="none" stroke-width="6.0" stroke-linecap="round" stroke-linejoin="round" />
<path d="M 135.0 86.25 L 133.75 85.0 L 131.25 85.0 L 131.25 88.75 L 136.25 102.5 L 142.5 120.0 " stroke="black" fill="none" stroke-width="6.0" stroke-linecap="round" stroke-linejoin="round" />
<path d="M 115.0 170.0 L 113.75 170.0 L 111.25 171.25 L 113.75 171.25 L 128.75 165.0 L 147.5 155.0 L 163.75 142.5 L 170.0 137.5 L 165.0 138.75 L 161.25 141.25 " stroke="black" fill="none" stroke-width="6.0" stroke-linecap="round" stroke-linejoin="round" />
<path d="M 135.0 187.5 L 132.5 191.25 L 128.75 201.25 L 128.75 211.25 L 131.25 225.0 L 132.5 232.5 L 132.5 230.0 L 132.5 227.5 " stroke="black" fill="none" stroke-width="6.0" stroke-linecap="round" stroke-linejoin="round" />
<path d="M 147.5 178.75 L 147.5 176.25 L 147.5 176.25 L 151.25 185.0 L 155.0 208.75 L 157.5 231.25 L 158.75 240.0 L 160.0 237.5 L 165.0 228.75 L 170.0 216.25 L 175.0 203.75 L 178.75 192.5 L 181.25 182.5 L 181.25 172.5 " stroke="black" fill="none" stroke-width="6.0" stroke-linecap="round" stroke-linejoin="round" />
<path d="M 197.5 106.25 L 197.5 105.0 L 196.25 102.5 L 196.25 102.5 L 196.25 107.5 L 197.5 121.25 L 198.75 130.0 L 202.5 132.5 L 211.25 127.5 L 225.0 112.5 L 240.0 95.0 L 252.5 81.25 L 253.75 77.5 L 248.75 78.75 " stroke="black" fill="none" stroke-width="6.0" stroke-linecap="round" stroke-linejoin="round" />
<path d="M 218.75 126.25 L 218.75 128.75 L 218.75 137.5 L 221.25 150.0 L 222.5 171.25 L 216.25 196.25 L 207.5 211.25 L 198.75 220.0 L 190.0 222.5 L 183.75 221.25 " stroke="black" fill="none" stroke-width="6.0" stroke-linecap="round" stroke-linejoin="round" />
<path d="M 192.5 153.75 L 192.5 153.75 L 191.25 153.75 L 191.25 155.0 L 196.25 162.5 L 206.25 180.0 L 216.25 200.0 L 227.5 215.0 L 240.0 231.25 L 255.0 246.25 L 268.75 255.0 L 282.5 262.5 L 286.25 266.25 " stroke="black" fill="none" stroke-width="6.0" stroke-linecap="round" stroke-linejoin="round" />
</svg>