<svg xmlns="http://www.w3.org/2000/svg" width="300" height="300" viewBox="0 0 300 300">
<path d="M 81.25 107.5 L 78.75 108.75 L 76.25 110.0 L 75.0 118.75 L 68.75 136.25 L 58.75 155.0 L 47.5 166.25 L 45.0 166.25 " stroke="black" fill="none" stroke-width="6.0" stroke-linecap="round" stroke-linejoin="round" />
<path d="M 85.0 136.25 L 85.0 138.75 L 82.5 146.25 L 78.75 162.5 L 68.75 187.5 L 56.25 206.25 L 46.25 212.5 L 45.0 210.0 " stroke="black" fill="none" stroke-width="6.0" stroke-linecap="round" stroke-linejoin="round" />
<path d="M 82.5 172.5 L 82.5 183.75 L 82.5 200.0 L 82.5 218.75 L 77.5 237.5 L 76.25 241.25 " stroke="black" fill="none" stroke-width="6.0" stroke-linecap="round" stroke-linejoin="round" />
<path d="M 116.25 103.75 L 115.0 105.0 L 111.25 110.0 L 110.0 118.75 L 110.0 127.5 L 113.75 132.5 L 122.5 132.5 L 135.0 123.75 L 147.5 112.5 L 157.5 102.5 L 162.5 96.25 L 162.5 93.75 L 161.25 93.75 L 158.75 93.75 L 157.5 93.75 L 156.25 93.75 L 156.25 93.75 L 156.25 93.75 L 156.25 93.75 L 156.25 93.75 L 156.25 93.75 L 156.25 93.75 L 156.25 95.0 L 158.75 97.5 L 162.5 103.75 L 166.25 111.25 L 167.5 118.75 L 166.25 120.0 " stroke="black" fill="none" stroke-width="6.0" stroke-linecap="round" stroke-linejoin="round" />
<path d="M 131.25 87.5 L 131.25 87.5 L 130.0 86.25 L 131.25 87.5 L 135.0 95.0 L 138.75 108.75 L 138.75 113.75 " stroke="black" fill="none" stroke-width="6.0" stroke-linecap="round" stroke-linejoin="round" />
<path d="M 110.0 186.25 L 107.5 188.75 L 108.75 188.75 L 120.0 183.75 L 137.5 173.75 L 151.25 162.5 L 157.5 153.75 L 155.0 153.75 L 152.5 155.0 " stroke="black" fill="none" stroke-width="6.0" stroke-linecap="round" stroke-linejoin="round" />
<path d="M 120.0 202.5 L 118.75 205.0 L 116.25 215.0 L 116.25 227.5 L 120.0 237.5 L 121.25 238.75 L 122.5 237.5 " stroke="black" fill="none" stroke-width="6.0" stroke-linecap="round" stroke-linejoin="round" />
<path d="M 142.5 187.5 L 142.5 187.5 L 142.5 187.5 L 142.5 190.0 L 145.0 206.25 L 148.75 227.5 L 150.0 237.5 L 151.25 237.5 L 153.75 231.25 L 158.75 221.25 L 162.5 211.25 L 166.25 201.25 L 170.0 192.5 L 171.25 185.0 L 171.25 183.75 " stroke="black" fill="none" stroke-width="6.0" stroke-linecap="round" stroke-linejoin="round" />
<path d="M 193.75 125.0 L 192.5 123.75 L 190.0 123.75 L 188.75 125.0 L 188.75 133.75 L 188.75 143.75 L 190.0 148.75 L 193.75 148.75 L 201.25 143.75 L 212.5 132.5 L 226.25 118.75 L 236.25 106.25 L 238.75 100.0 L 237.5 100.0 " stroke="black" fill="none" stroke-width="6.0" stroke-linecap="round" stroke-linejoin="round" />
<path d="M 202.5 147.5 L 202.5 147.5 L 202.5 150.0 L 203.75 153.75 L 208.75 167.5 L 210.0 188.75 L 207.5 207.5 L 198.75 218.75 L 188.75 223.75 L 181.25 223.75 " stroke="black" fill="none" stroke-width="6.0" stroke-linecap="round" stroke-linejoin="round" />
<path d="M 187.5 168.75 L 187.5 168.75 L 187.5 168.75 L 192.5 171.25 L 202.5 185.0 L 216.25 205.0 L 233.75 223.75 L 248.75 236.25 L 260.0 242.5 L 268.75 246.25 L 270.0 246.25 " stroke="black" fill="none" stroke-width="6.0" stroke-linecap="round" stroke-linejoin="round" />
</svg>