<svg xmlns="http://www.w3.org/2000/svg" width="300" height="300" viewBox="0 0 300 300">
<path d="M 117.5 66.25 L 117.5 66.25 L 117.5 66.25 L 118.75 70.0 L 122.5 78.75 L 127.5 86.25 L 128.75 88.75 " stroke="black" fill="none" stroke-width="6.0" stroke-linecap="round" stroke-linejoin="round" />
<path d="M 158.75 52.5 L 158.75 52.5 L 158.75 52.5 L 158.75 52.5 L 158.75 57.5 L 151.25 72.5 L 138.75 86.25 L 121.25 95.0 L 102.5 98.75 L 88.75 105.0 L 82.5 107.5 L 85.0 107.5 L 97.5 105.0 L 126.25 96.25 L 156.25 87.5 L 183.75 80.0 L 193.75 76.25 L 190.0 77.5 L 178.75 82.5 L 162.5 87.5 L 146.25 92.5 L 130.0 98.75 L 116.25 108.75 L 108.75 120.0 L 106.25 136.25 L 105.0 157.5 L 106.25 176.25 L 110.0 190.0 L 113.75 193.75 L 116.25 193.75 L 116.25 187.5 L 113.75 183.75 " stroke="black" fill="none" stroke-width="6.0" stroke-linecap="round" stroke-linejoin="round" />
<path d="M 107.5 136.25 L 107.5 136.25 L 110.0 136.25 L 132.5 131.25 L 167.5 123.75 L 195.0 122.5 L 205.0 131.25 L 206.25 142.5 L 198.75 155.0 L 188.75 165.0 L 180.0 170.0 L 170.0 171.25 " stroke="black" fill="none" stroke-width="6.0" stroke-linecap="round" stroke-linejoin="round" />
<path d="M 142.5 92.5 L 140.0 92.5 L 138.75 92.5 L 136.25 106.25 L 131.25 135.0 L 131.25 151.25 L 137.5 152.5 L 146.25 143.75 L 150.0 136.25 " stroke="black" fill="none" stroke-width="6.0" stroke-linecap="round" stroke-linejoin="round" />
<path d="M 158.75 101.25 L 157.5 102.5 L 152.5 108.75 L 151.25 121.25 L 153.75 135.0 L 162.5 142.5 L 177.5 142.5 L 191.25 137.5 L 200.0 130.0 L 201.25 127.5 " stroke="black" fill="none" stroke-width="6.0" stroke-linecap="round" stroke-linejoin="round" />
<path d="M 136.25 155.0 L 133.75 155.0 L 132.5 157.5 L 135.0 157.5 L 145.0 157.5 L 157.5 153.75 L 168.75 150.0 L 171.25 148.75 L 166.25 148.75 " stroke="black" fill="none" stroke-width="6.0" stroke-linecap="round" stroke-linejoin="round" />
<path d="M 117.5 191.25 L 117.5 191.25 L 118.75 191.25 L 132.5 186.25 L 156.25 173.75 L 178.75 163.75 L 183.75 160.0 " stroke="black" fill="none" stroke-width="6.0" stroke-linecap="round" stroke-linejoin="round" />
<path d="M 85.0 222.5 L 81.25 226.25 L 78.75 228.75 L 91.25 227.5 L 120.0 217.5 L 158.75 202.5 L 191.25 190.0 L 203.75 183.75 L 205.0 183.75 L 200.0 183.75 L 190.0 187.5 L 177.5 191.25 L 166.25 193.75 L 161.25 193.75 L 161.25 192.5 L 165.0 190.0 L 170.0 191.25 L 173.75 203.75 L 176.25 230.0 L 176.25 255.0 L 175.0 268.75 L 173.75 275.0 L 167.5 276.25 L 156.25 276.25 L 145.0 273.75 L 135.0 270.0 L 127.5 262.5 " stroke="black" fill="none" stroke-width="6.0" stroke-linecap="round" stroke-linejoin="round" />
<path d="M 125.0 215.0 L 125.0 215.0 L 125.0 215.0 L 123.75 218.75 L 126.25 226.25 L 137.5 233.75 L 152.5 243.75 L 157.5 250.0 " stroke="black" fill="none" stroke-width="6.0" stroke-linecap="round" stroke-linejoin="round" />
</svg>