<svg xmlns="http://www.w3.org/2000/svg" width="300" height="300" viewBox="0 0 300 300">
<path d="M 146.25 68.75 L 146.25 67.5 L 145.0 66.25 L 147.5 68.75 L 152.5 78.75 L 155.0 92.5 L 155.0 105.0 " stroke="black" fill="none" stroke-width="6.0" stroke-linecap="round" stroke-linejoin="round" />
<path d="M 112.5 86.25 L 112.5 86.25 L 110.0 87.5 L 112.5 90.0 L 122.5 97.5 L 132.5 106.25 L 135.0 108.75 " stroke="black" fill="none" stroke-width="6.0" stroke-linecap="round" stroke-linejoin="round" />
<path d="M 185.0 68.75 L 185.0 68.75 L 183.75 68.75 L 180.0 72.5 L 170.0 87.5 L 153.75 107.5 " stroke="black" fill="none" stroke-width="6.0" stroke-linecap="round" stroke-linejoin="round" />
<path d="M 105.0 115.0 L 105.0 115.0 L 105.0 115.0 L 103.75 122.5 L 98.75 143.75 L 95.0 167.5 L 93.75 175.0 L 93.75 175.0 " stroke="black" fill="none" stroke-width="6.0" stroke-linecap="round" stroke-linejoin="round" />
<path d="M 101.25 126.25 L 101.25 126.25 L 101.25 123.75 L 110.0 120.0 L 135.0 111.25 L 168.75 105.0 L 200.0 101.25 L 213.75 100.0 L 216.25 102.5 L 211.25 107.5 L 200.0 117.5 L 186.25 128.75 L 183.75 130.0 " stroke="black" fill="none" stroke-width="6.0" stroke-linecap="round" stroke-linejoin="round" />
<path d="M 146.25 132.5 L 143.75 132.5 L 142.5 131.25 L 142.5 132.5 L 142.5 141.25 L 143.75 150.0 L 145.0 157.5 L 146.25 158.75 L 146.25 156.25 " stroke="black" fill="none" stroke-width="6.0" stroke-linecap="round" stroke-linejoin="round" />
<path d="M 145.0 135.0 L 143.75 135.0 L 141.25 133.75 L 142.5 132.5 L 148.75 132.5 L 160.0 131.25 L 170.0 131.25 L 176.25 131.25 L 176.25 135.0 L 166.25 141.25 L 153.75 148.75 L 143.75 155.0 L 140.0 156.25 L 142.5 156.25 L 151.25 153.75 L 165.0 148.75 L 177.5 143.75 L 182.5 140.0 L 182.5 140.0 " stroke="black" fill="none" stroke-width="6.0" stroke-linecap="round" stroke-linejoin="round" />
<path d="M 117.5 178.75 L 116.25 180.0 L 115.0 181.25 L 117.5 190.0 L 123.75 203.75 L 132.5 230.0 L 136.25 241.25 L 137.5 242.5 L 136.25 240.0 L 133.75 233.75 L 133.75 232.5 " stroke="black" fill="none" stroke-width="6.0" stroke-linecap="round" stroke-linejoin="round" />
<path d="M 121.25 188.75 L 117.5 188.75 L 116.25 187.5 L 118.75 185.0 L 135.0 181.25 L 153.75 176.25 L 180.0 171.25 L 205.0 171.25 L 213.75 176.25 L 215.0 185.0 L 207.5 197.5 L 195.0 210.0 L 180.0 221.25 L 163.75 227.5 L 157.5 228.75 " stroke="black" fill="none" stroke-width="6.0" stroke-linecap="round" stroke-linejoin="round" />
<path d="M 138.75 206.25 L 136.25 207.5 L 136.25 207.5 L 142.5 206.25 L 157.5 201.25 L 173.75 196.25 L 188.75 190.0 L 192.5 187.5 " stroke="black" fill="none" stroke-width="6.0" stroke-linecap="round" stroke-linejoin="round" />
<path d="M 158.75 181.25 L 158.75 181.25 L 157.5 182.5 L 158.75 190.0 L 161.25 203.75 L 161.25 218.75 L 157.5 230.0 L 152.5 235.0 L 146.25 237.5 L 142.5 238.75 L 142.5 238.75 L 143.75 238.75 L 150.0 237.5 L 158.75 235.0 L 170.0 230.0 L 183.75 225.0 L 195.0 221.25 L 200.0 220.0 L 200.0 220.0 " stroke="black" fill="none" stroke-width="6.0" stroke-linecap="round" stroke-linejoin="round" />
</svg>