<svg xmlns="http://www.w3.org/2000/svg" width="300" height="300" viewBox="0 0 300 300">
<path d="M 92.5 111.25 L 90.0 112.5 L 90.0 112.5 L 93.75 111.25 L 105.0 111.25 L 112.5 111.25 L 113.75 111.25 " stroke="black" fill="none" stroke-width="6.0" stroke-linecap="round" stroke-linejoin="round" />
<path d="M 83.75 163.75 L 80.0 167.5 L 77.5 170.0 L 85.0 168.75 L 95.0 162.5 L 106.25 155.0 L 112.5 147.5 " stroke="black" fill="none" stroke-width="6.0" stroke-linecap="round" stroke-linejoin="round" />
<path d="M 83.75 228.75 L 80.0 233.75 L 76.25 237.5 L 81.25 233.75 L 95.0 218.75 L 107.5 202.5 L 113.75 192.5 " stroke="black" fill="none" stroke-width="6.0" stroke-linecap="round" stroke-linejoin="round" />
<path d="M 138.75 88.75 L 135.0 90.0 L 131.25 91.25 L 136.25 91.25 L 151.25 88.75 L 173.75 82.5 L 198.75 73.75 L 210.0 68.75 L 208.75 67.5 L 200.0 73.75 L 188.75 77.5 L 175.0 82.5 L 160.0 86.25 L 150.0 91.25 L 145.0 96.25 L 145.0 103.75 L 147.5 120.0 L 151.25 138.75 L 155.0 146.25 L 156.25 146.25 " stroke="black" fill="none" stroke-width="6.0" stroke-linecap="round" stroke-linejoin="round" />
<path d="M 176.25 92.5 L 176.25 92.5 L 176.25 95.0 L 175.0 102.5 L 172.5 123.75 L 168.75 145.0 L 166.25 148.75 " stroke="black" fill="none" stroke-width="6.0" stroke-linecap="round" stroke-linejoin="round" />
<path d="M 197.5 90.0 L 197.5 90.0 L 197.5 90.0 L 198.75 93.75 L 197.5 112.5 L 190.0 136.25 L 180.0 150.0 L 168.75 153.75 L 158.75 157.5 L 153.75 160.0 L 153.75 161.25 L 153.75 161.25 L 160.0 161.25 L 172.5 158.75 L 188.75 152.5 L 205.0 145.0 L 213.75 141.25 L 215.0 141.25 L 207.5 150.0 L 197.5 160.0 L 185.0 171.25 L 175.0 181.25 L 172.5 183.75 L 173.75 183.75 L 183.75 183.75 L 193.75 182.5 L 201.25 183.75 L 207.5 193.75 L 207.5 210.0 L 205.0 231.25 L 200.0 246.25 L 196.25 252.5 L 193.75 253.75 L 191.25 253.75 L 188.75 252.5 L 185.0 248.75 L 177.5 243.75 L 172.5 241.25 " stroke="black" fill="none" stroke-width="6.0" stroke-linecap="round" stroke-linejoin="round" />
<path d="M 137.5 215.0 L 135.0 215.0 L 131.25 215.0 L 133.75 215.0 L 148.75 215.0 L 173.75 211.25 L 207.5 203.75 L 235.0 195.0 L 255.0 191.25 L 262.5 188.75 L 262.5 188.75 " stroke="black" fill="none" stroke-width="6.0" stroke-linecap="round" stroke-linejoin="round" />
</svg>