<svg xmlns="http://www.w3.org/2000/svg" width="300" height="300" viewBox="0 0 300 300">
<path d="M 82.5 125.0 L 80.0 125.0 L 76.25 126.25 L 76.25 125.0 L 87.5 117.5 L 100.0 111.25 L 111.25 106.25 L 111.25 108.75 L 110.0 110.0 " stroke="black" fill="none" stroke-width="6.0" stroke-linecap="round" stroke-linejoin="round" />
<path d="M 72.5 158.75 L 67.5 166.25 L 65.0 172.5 L 72.5 171.25 L 86.25 162.5 L 103.75 148.75 L 117.5 136.25 L 122.5 128.75 L 120.0 127.5 L 110.0 131.25 L 103.75 137.5 L 98.75 148.75 L 98.75 176.25 L 102.5 221.25 L 106.25 252.5 L 106.25 260.0 L 105.0 261.25 L 101.25 257.5 L 98.75 247.5 L 98.75 233.75 L 98.75 223.75 " stroke="black" fill="none" stroke-width="6.0" stroke-linecap="round" stroke-linejoin="round" />
<path d="M 100.0 182.5 L 91.25 195.0 L 82.5 211.25 L 73.75 228.75 L 70.0 235.0 L 68.75 231.25 " stroke="black" fill="none" stroke-width="6.0" stroke-linecap="round" stroke-linejoin="round" />
<path d="M 92.5 191.25 L 93.75 188.75 L 97.5 187.5 L 107.5 190.0 L 123.75 197.5 L 140.0 205.0 L 146.25 206.25 " stroke="black" fill="none" stroke-width="6.0" stroke-linecap="round" stroke-linejoin="round" />
<path d="M 146.25 132.5 L 145.0 131.25 L 140.0 130.0 L 140.0 132.5 L 142.5 146.25 L 150.0 171.25 L 156.25 190.0 L 161.25 196.25 L 162.5 195.0 L 158.75 190.0 L 156.25 182.5 L 153.75 173.75 L 151.25 163.75 L 148.75 153.75 L 147.5 145.0 L 153.75 137.5 L 172.5 130.0 L 198.75 123.75 L 215.0 123.75 L 222.5 128.75 L 221.25 141.25 L 210.0 156.25 L 198.75 171.25 L 183.75 183.75 L 168.75 190.0 L 156.25 191.25 L 151.25 191.25 L 151.25 190.0 L 151.25 187.5 L 155.0 183.75 L 167.5 173.75 L 186.25 160.0 L 206.25 146.25 L 213.75 138.75 L 208.75 141.25 L 198.75 151.25 L 187.5 165.0 L 175.0 182.5 L 166.25 197.5 L 166.25 198.75 L 177.5 191.25 L 196.25 175.0 L 208.75 157.5 L 213.75 145.0 L 212.5 140.0 " stroke="black" fill="none" stroke-width="6.0" stroke-linecap="round" stroke-linejoin="round" />
<path d="M 185.0 93.75 L 183.75 88.75 L 181.25 85.0 L 181.25 85.0 L 181.25 92.5 L 183.75 130.0 L 185.0 195.0 L 185.0 241.25 L 182.5 262.5 L 178.75 272.5 L 175.0 277.5 L 172.5 277.5 L 167.5 271.25 L 165.0 268.75 " stroke="black" fill="none" stroke-width="6.0" stroke-linecap="round" stroke-linejoin="round" />
</svg>