<svg xmlns="http://www.w3.org/2000/svg" width="300" height="300" viewBox="0 0 300 300">
<path d="M 76.25 120.0 L 75.0 118.75 L 75.0 117.5 L 80.0 115.0 L 91.25 112.5 L 101.25 108.75 L 107.5 106.25 L 108.75 105.0 L 103.75 105.0 L 96.25 110.0 " stroke="black" fill="none" stroke-width="6.0" stroke-linecap="round" stroke-linejoin="round" />
<path d="M 51.25 170.0 L 50.0 176.25 L 50.0 176.25 L 58.75 170.0 L 78.75 153.75 L 97.5 138.75 L 107.5 127.5 L 111.25 122.5 L 111.25 122.5 L 108.75 122.5 L 106.25 123.75 L 102.5 130.0 L 100.0 140.0 L 97.5 160.0 L 97.5 196.25 L 97.5 227.5 L 98.75 246.25 L 98.75 250.0 L 98.75 250.0 L 98.75 248.75 L 97.5 242.5 L 95.0 231.25 L 93.75 218.75 " stroke="black" fill="none" stroke-width="6.0" stroke-linecap="round" stroke-linejoin="round" />
<path d="M 100.0 165.0 L 98.75 166.25 L 91.25 176.25 L 82.5 191.25 L 73.75 206.25 L 67.5 215.0 L 65.0 213.75 L 66.25 206.25 L 72.5 197.5 L 80.0 187.5 L 87.5 177.5 L 93.75 170.0 L 98.75 168.75 L 108.75 175.0 L 125.0 183.75 L 138.75 190.0 L 143.75 193.75 L 143.75 195.0 L 142.5 196.25 L 138.75 196.25 " stroke="black" fill="none" stroke-width="6.0" stroke-linecap="round" stroke-linejoin="round" />
<path d="M 150.0 135.0 L 150.0 131.25 L 148.75 128.75 L 147.5 128.75 L 150.0 138.75 L 153.75 162.5 L 160.0 186.25 L 163.75 198.75 L 163.75 200.0 L 162.5 193.75 L 160.0 185.0 L 158.75 172.5 L 156.25 160.0 L 153.75 148.75 L 151.25 141.25 L 148.75 137.5 L 147.5 136.25 L 153.75 133.75 L 170.0 126.25 L 193.75 120.0 L 213.75 117.5 L 225.0 121.25 L 226.25 132.5 L 217.5 147.5 L 203.75 165.0 L 192.5 178.75 L 180.0 187.5 L 170.0 188.75 L 166.25 186.25 " stroke="black" fill="none" stroke-width="6.0" stroke-linecap="round" stroke-linejoin="round" />
<path d="M 163.75 168.75 L 163.75 168.75 L 163.75 168.75 L 163.75 168.75 L 163.75 168.75 L 168.75 161.25 L 183.75 150.0 L 200.0 136.25 L 207.5 130.0 L 203.75 132.5 L 200.0 137.5 " stroke="black" fill="none" stroke-width="6.0" stroke-linecap="round" stroke-linejoin="round" />
<path d="M 165.0 190.0 L 163.75 195.0 L 161.25 200.0 L 165.0 201.25 L 180.0 192.5 L 200.0 175.0 L 212.5 156.25 L 218.75 142.5 L 218.75 135.0 L 212.5 132.5 L 206.25 130.0 L 205.0 128.75 " stroke="black" fill="none" stroke-width="6.0" stroke-linecap="round" stroke-linejoin="round" />
<path d="M 193.75 91.25 L 193.75 85.0 L 193.75 81.25 L 193.75 78.75 L 193.75 80.0 L 193.75 90.0 L 192.5 117.5 L 190.0 168.75 L 186.25 230.0 L 183.75 268.75 L 180.0 290.0 L 175.0 297.5 L 173.75 297.5 L 170.0 288.75 " stroke="black" fill="none" stroke-width="6.0" stroke-linecap="round" stroke-linejoin="round" />
</svg>