<svg xmlns="http://www.w3.org/2000/svg" width="300" height="300" viewBox="0 0 300 300">
<path d="M 85.0 96.25 L 82.5 98.75 L 81.25 100.0 L 86.25 101.25 L 96.25 101.25 L 107.5 97.5 L 113.75 93.75 L 113.75 92.5 " stroke="black" fill="none" stroke-width="6.0" stroke-linecap="round" stroke-linejoin="round" />
<path d="M 72.5 142.5 L 70.0 147.5 L 68.75 150.0 L 78.75 146.25 L 93.75 136.25 L 111.25 120.0 L 126.25 106.25 L 131.25 101.25 L 127.5 102.5 L 118.75 111.25 L 111.25 122.5 L 107.5 143.75 L 108.75 183.75 L 115.0 220.0 L 118.75 235.0 L 118.75 238.75 L 117.5 237.5 L 113.75 231.25 L 108.75 220.0 L 105.0 207.5 L 102.5 192.5 L 102.5 178.75 " stroke="black" fill="none" stroke-width="6.0" stroke-linecap="round" stroke-linejoin="round" />
<path d="M 110.0 153.75 L 108.75 156.25 L 102.5 167.5 L 92.5 188.75 L 80.0 207.5 L 71.25 215.0 L 68.75 212.5 L 68.75 210.0 " stroke="black" fill="none" stroke-width="6.0" stroke-linecap="round" stroke-linejoin="round" />
<path d="M 105.0 156.25 L 106.25 156.25 L 111.25 157.5 L 121.25 165.0 L 133.75 177.5 L 142.5 186.25 L 146.25 190.0 L 146.25 191.25 " stroke="black" fill="none" stroke-width="6.0" stroke-linecap="round" stroke-linejoin="round" />
<path d="M 155.0 105.0 L 153.75 105.0 L 151.25 103.75 L 151.25 110.0 L 156.25 140.0 L 163.75 171.25 L 171.25 181.25 L 173.75 180.0 L 175.0 173.75 L 172.5 165.0 L 170.0 156.25 L 166.25 146.25 L 161.25 136.25 L 157.5 125.0 L 153.75 118.75 L 152.5 116.25 L 155.0 115.0 L 166.25 110.0 L 186.25 102.5 L 207.5 97.5 L 223.75 97.5 L 228.75 108.75 L 222.5 127.5 L 210.0 146.25 L 197.5 158.75 L 185.0 165.0 L 178.75 165.0 " stroke="black" fill="none" stroke-width="6.0" stroke-linecap="round" stroke-linejoin="round" />
<path d="M 168.75 147.5 L 168.75 147.5 L 167.5 147.5 L 170.0 146.25 L 182.5 138.75 L 198.75 126.25 L 208.75 115.0 L 208.75 112.5 " stroke="black" fill="none" stroke-width="6.0" stroke-linecap="round" stroke-linejoin="round" />
<path d="M 176.25 173.75 L 173.75 178.75 L 172.5 181.25 L 182.5 172.5 L 197.5 156.25 L 211.25 137.5 L 218.75 123.75 L 217.5 121.25 " stroke="black" fill="none" stroke-width="6.0" stroke-linecap="round" stroke-linejoin="round" />
<path d="M 192.5 70.0 L 192.5 65.0 L 193.75 63.75 L 193.75 63.75 L 193.75 70.0 L 195.0 85.0 L 197.5 116.25 L 200.0 171.25 L 200.0 215.0 L 200.0 233.75 L 198.75 241.25 L 196.25 242.5 L 191.25 241.25 L 190.0 240.0 " stroke="black" fill="none" stroke-width="6.0" stroke-linecap="round" stroke-linejoin="round" />
</svg>