<svg xmlns="http://www.w3.org/2000/svg" width="300" height="300" viewBox="0 0 300 300">
<path d="M 100.0 116.25 L 96.25 116.25 L 93.75 116.25 L 92.5 116.25 L 96.25 116.25 L 106.25 116.25 L 121.25 113.75 L 133.75 110.0 L 140.0 107.5 L 136.25 106.25 L 130.0 108.75 " stroke="black" fill="none" stroke-width="6.0" stroke-linecap="round" stroke-linejoin="round" />
<path d="M 82.5 158.75 L 81.25 161.25 L 80.0 162.5 L 87.5 162.5 L 103.75 152.5 L 125.0 138.75 L 141.25 127.5 L 143.75 122.5 L 136.25 126.25 L 128.75 131.25 L 121.25 137.5 L 117.5 143.75 L 117.5 161.25 L 122.5 193.75 L 125.0 223.75 L 126.25 237.5 L 123.75 238.75 L 118.75 233.75 L 113.75 220.0 " stroke="black" fill="none" stroke-width="6.0" stroke-linecap="round" stroke-linejoin="round" />
<path d="M 117.5 172.5 L 108.75 183.75 L 96.25 201.25 L 88.75 216.25 L 85.0 221.25 L 85.0 215.0 L 85.0 212.5 " stroke="black" fill="none" stroke-width="6.0" stroke-linecap="round" stroke-linejoin="round" />
<path d="M 111.25 161.25 L 112.5 161.25 L 118.75 161.25 L 132.5 171.25 L 148.75 187.5 L 161.25 197.5 L 165.0 200.0 L 163.75 200.0 " stroke="black" fill="none" stroke-width="6.0" stroke-linecap="round" stroke-linejoin="round" />
<path d="M 156.25 107.5 L 156.25 105.0 L 156.25 102.5 L 156.25 102.5 L 160.0 115.0 L 168.75 141.25 L 178.75 162.5 L 185.0 172.5 L 187.5 172.5 L 186.25 163.75 L 182.5 156.25 " stroke="black" fill="none" stroke-width="6.0" stroke-linecap="round" stroke-linejoin="round" />
<path d="M 161.25 122.5 L 161.25 122.5 L 161.25 122.5 L 168.75 118.75 L 187.5 112.5 L 212.5 105.0 L 232.5 105.0 L 238.75 113.75 L 237.5 128.75 L 226.25 145.0 L 213.75 157.5 L 200.0 166.25 L 195.0 167.5 " stroke="black" fill="none" stroke-width="6.0" stroke-linecap="round" stroke-linejoin="round" />
<path d="M 173.75 152.5 L 173.75 152.5 L 173.75 152.5 L 175.0 151.25 L 190.0 143.75 L 210.0 131.25 L 223.75 120.0 L 225.0 116.25 L 216.25 123.75 " stroke="black" fill="none" stroke-width="6.0" stroke-linecap="round" stroke-linejoin="round" />
<path d="M 187.5 178.75 L 187.5 178.75 L 188.75 178.75 L 197.5 171.25 L 216.25 153.75 L 231.25 136.25 L 235.0 128.75 L 228.75 128.75 " stroke="black" fill="none" stroke-width="6.0" stroke-linecap="round" stroke-linejoin="round" />
<path d="M 200.0 82.5 L 200.0 81.25 L 198.75 80.0 L 198.75 80.0 L 198.75 85.0 L 201.25 112.5 L 203.75 168.75 L 203.75 216.25 L 203.75 246.25 L 202.5 261.25 L 200.0 265.0 L 193.75 262.5 L 186.25 256.25 " stroke="black" fill="none" stroke-width="6.0" stroke-linecap="round" stroke-linejoin="round" />
</svg>