<svg xmlns="http://www.w3.org/2000/svg" width="300" height="300" viewBox="0 0 300 300">
<path d="M 63.75 143.75 L 62.5 142.5 L 60.0 142.5 L 60.0 142.5 L 63.75 153.75 L 70.0 171.25 L 76.25 186.25 L 76.25 192.5 L 76.25 192.5 L 75.0 192.5 " stroke="black" fill="none" stroke-width="6.0" stroke-linecap="round" stroke-linejoin="round" />
<path d="M 65.0 165.0 L 63.75 163.75 L 60.0 160.0 L 62.5 156.25 L 72.5 151.25 L 86.25 147.5 L 97.5 146.25 L 103.75 148.75 L 103.75 156.25 L 96.25 167.5 L 88.75 178.75 L 80.0 188.75 L 76.25 191.25 L 78.75 191.25 L 90.0 182.5 L 103.75 170.0 L 115.0 160.0 " stroke="black" fill="none" stroke-width="6.0" stroke-linecap="round" stroke-linejoin="round" />
<path d="M 147.5 88.75 L 146.25 88.75 L 141.25 88.75 L 141.25 88.75 L 147.5 88.75 L 163.75 88.75 L 182.5 88.75 L 198.75 88.75 L 205.0 90.0 L 203.75 92.5 L 193.75 98.75 L 180.0 106.25 L 163.75 113.75 L 146.25 120.0 L 136.25 123.75 L 133.75 123.75 L 137.5 123.75 L 150.0 117.5 L 165.0 111.25 L 183.75 103.75 L 200.0 97.5 L 207.5 96.25 L 205.0 98.75 L 193.75 107.5 L 178.75 118.75 L 158.75 131.25 L 142.5 141.25 L 140.0 143.75 L 145.0 143.75 L 161.25 138.75 L 182.5 128.75 L 203.75 115.0 L 213.75 105.0 " stroke="black" fill="none" stroke-width="6.0" stroke-linecap="round" stroke-linejoin="round" />
<path d="M 131.25 163.75 L 131.25 163.75 L 130.0 163.75 L 130.0 163.75 L 131.25 177.5 L 131.25 208.75 L 127.5 240.0 L 122.5 255.0 L 117.5 255.0 " stroke="black" fill="none" stroke-width="6.0" stroke-linecap="round" stroke-linejoin="round" />
<path d="M 235.0 141.25 L 235.0 138.75 L 232.5 137.5 L 232.5 137.5 L 232.5 152.5 L 235.0 187.5 L 238.75 225.0 L 240.0 248.75 L 240.0 258.75 L 237.5 261.25 L 233.75 261.25 " stroke="black" fill="none" stroke-width="6.0" stroke-linecap="round" stroke-linejoin="round" />
<path d="M 150.0 163.75 L 150.0 163.75 L 150.0 162.5 L 150.0 162.5 L 155.0 162.5 L 160.0 168.75 L 161.25 177.5 L 160.0 185.0 L 152.5 193.75 L 145.0 196.25 L 141.25 197.5 L 140.0 197.5 L 140.0 197.5 L 145.0 195.0 L 152.5 188.75 L 161.25 181.25 L 168.75 173.75 L 170.0 170.0 " stroke="black" fill="none" stroke-width="6.0" stroke-linecap="round" stroke-linejoin="round" />
<path d="M 140.0 237.5 L 138.75 237.5 L 137.5 237.5 L 138.75 235.0 L 145.0 226.25 L 153.75 216.25 L 162.5 207.5 L 165.0 205.0 L 165.0 206.25 L 165.0 215.0 L 165.0 232.5 L 166.25 248.75 L 172.5 258.75 L 175.0 262.5 L 175.0 261.25 L 175.0 260.0 " stroke="black" fill="none" stroke-width="6.0" stroke-linecap="round" stroke-linejoin="round" />
<path d="M 208.75 148.75 L 207.5 148.75 L 205.0 150.0 L 203.75 155.0 L 203.75 168.75 L 203.75 181.25 L 205.0 187.5 L 207.5 186.25 L 213.75 178.75 L 220.0 168.75 L 227.5 160.0 L 232.5 153.75 L 231.25 153.75 " stroke="black" fill="none" stroke-width="6.0" stroke-linecap="round" stroke-linejoin="round" />
<path d="M 198.75 226.25 L 197.5 227.5 L 196.25 228.75 L 200.0 227.5 L 208.75 220.0 L 217.5 211.25 L 222.5 203.75 L 223.75 201.25 L 222.5 201.25 L 220.0 206.25 L 217.5 220.0 L 216.25 237.5 L 216.25 250.0 L 215.0 256.25 L 211.25 256.25 L 210.0 253.75 " stroke="black" fill="none" stroke-width="6.0" stroke-linecap="round" stroke-linejoin="round" />
<path d="M 161.25 200.0 L 158.75 201.25 L 156.25 201.25 L 160.0 201.25 L 173.75 197.5 L 193.75 190.0 L 210.0 181.25 L 217.5 173.75 L 217.5 172.5 " stroke="black" fill="none" stroke-width="6.0" stroke-linecap="round" stroke-linejoin="round" />
<path d="M 180.0 80.0 L 180.0 78.75 L 178.75 76.25 L 177.5 73.75 L 177.5 71.25 L 177.5 70.0 L 177.5 68.75 L 177.5 68.75 L 177.5 68.75 L 177.5 68.75 L 178.75 72.5 L 181.25 83.75 L 183.75 101.25 L 187.5 130.0 L 188.75 157.5 L 190.0 182.5 L 191.25 202.5 L 191.25 217.5 L 191.25 233.75 L 192.5 246.25 L 192.5 253.75 L 193.75 258.75 L 193.75 260.0 L 193.75 260.0 L 193.75 260.0 L 193.75 257.5 L 193.75 255.0 " stroke="black" fill="none" stroke-width="6.0" stroke-linecap="round" stroke-linejoin="round" />
</svg>