<svg xmlns="http://www.w3.org/2000/svg" width="300" height="300" viewBox="0 0 300 300">
<path d="M 110.0 97.5 L 110.0 98.75 L 105.0 102.5 L 103.75 102.5 L 111.25 103.75 L 131.25 103.75 L 161.25 96.25 L 190.0 87.5 L 202.5 82.5 L 202.5 81.25 L 190.0 81.25 L 186.25 82.5 " stroke="black" fill="none" stroke-width="6.0" stroke-linecap="round" stroke-linejoin="round" />
<path d="M 93.75 176.25 L 92.5 185.0 L 92.5 187.5 L 100.0 187.5 L 123.75 182.5 L 156.25 173.75 L 191.25 165.0 L 215.0 158.75 L 225.0 156.25 L 222.5 155.0 L 208.75 153.75 L 202.5 152.5 " stroke="black" fill="none" stroke-width="6.0" stroke-linecap="round" stroke-linejoin="round" />
<path d="M 147.5 117.5 L 147.5 115.0 L 146.25 111.25 L 146.25 111.25 L 148.75 120.0 L 153.75 153.75 L 157.5 210.0 L 156.25 258.75 L 155.0 282.5 L 150.0 296.25 L 142.5 300.0 " stroke="black" fill="none" stroke-width="6.0" stroke-linecap="round" stroke-linejoin="round" />
</svg>