<svg xmlns="http://www.w3.org/2000/svg" width="300" height="300" viewBox="0 0 300 300">
<path d="M 113.75 88.75 L 113.75 88.75 L 112.5 91.25 L 118.75 91.25 L 133.75 90.0 L 152.5 85.0 L 165.0 80.0 L 168.75 78.75 " stroke="black" fill="none" stroke-width="6.0" stroke-linecap="round" stroke-linejoin="round" />
<path d="M 122.5 123.75 L 116.25 140.0 L 115.0 176.25 L 112.5 221.25 L 112.5 242.5 L 113.75 245.0 L 113.75 243.75 L 113.75 242.5 " stroke="black" fill="none" stroke-width="6.0" stroke-linecap="round" stroke-linejoin="round" />
<path d="M 118.75 143.75 L 118.75 143.75 L 120.0 141.25 L 130.0 135.0 L 150.0 123.75 L 170.0 115.0 L 183.75 116.25 L 190.0 136.25 L 191.25 171.25 L 191.25 206.25 L 191.25 228.75 L 191.25 238.75 L 191.25 241.25 L 191.25 241.25 L 191.25 238.75 L 187.5 232.5 L 180.0 222.5 " stroke="black" fill="none" stroke-width="6.0" stroke-linecap="round" stroke-linejoin="round" />
<path d="M 116.25 161.25 L 115.0 161.25 L 111.25 162.5 L 112.5 162.5 L 128.75 157.5 L 148.75 151.25 L 168.75 142.5 L 177.5 137.5 " stroke="black" fill="none" stroke-width="6.0" stroke-linecap="round" stroke-linejoin="round" />
<path d="M 112.5 198.75 L 112.5 200.0 L 116.25 201.25 L 132.5 196.25 L 153.75 187.5 L 170.0 177.5 L 172.5 175.0 L 170.0 177.5 " stroke="black" fill="none" stroke-width="6.0" stroke-linecap="round" stroke-linejoin="round" />
<path d="M 107.5 253.75 L 106.25 256.25 L 106.25 258.75 L 120.0 258.75 L 142.5 253.75 L 167.5 243.75 L 181.25 237.5 " stroke="black" fill="none" stroke-width="6.0" stroke-linecap="round" stroke-linejoin="round" />
</svg>