<svg xmlns="http://www.w3.org/2000/svg" width="300" height="300" viewBox="0 0 300 300">
<path d="M 192.5 87.5 L 191.25 87.5 L 188.75 87.5 L 190.0 87.5 L 198.75 86.25 L 213.75 85.0 L 232.5 85.0 L 243.75 83.75 L 246.25 82.5 L 240.0 82.5 L 228.75 83.75 " stroke="black" fill="none" stroke-width="6.0" stroke-linecap="round" stroke-linejoin="round" />
<path d="M 200.0 86.25 L 200.0 86.25 L 198.75 85.0 L 197.5 85.0 L 197.5 85.0 L 197.5 85.0 L 197.5 85.0 L 197.5 85.0 L 197.5 85.0 L 197.5 88.75 L 197.5 95.0 L 197.5 110.0 L 198.75 132.5 L 200.0 155.0 L 201.25 171.25 L 201.25 177.5 L 201.25 178.75 L 201.25 178.75 L 200.0 176.25 " stroke="black" fill="none" stroke-width="6.0" stroke-linecap="round" stroke-linejoin="round" />
</svg>