<svg xmlns="http://www.w3.org/2000/svg" width="300" height="300" viewBox="0 0 300 300">
<path d="M 143.75 75.0 L 142.5 75.0 L 140.0 80.0 L 131.25 100.0 L 113.75 133.75 L 97.5 156.25 L 87.5 167.5 L 83.75 166.25 L 83.75 161.25 " stroke="black" fill="none" stroke-width="6.0" stroke-linecap="round" stroke-linejoin="round" />
<path d="M 173.75 72.5 L 175.0 72.5 L 182.5 73.75 L 197.5 81.25 L 215.0 90.0 L 231.25 97.5 L 241.25 103.75 L 238.75 108.75 L 236.25 111.25 " stroke="black" fill="none" stroke-width="6.0" stroke-linecap="round" stroke-linejoin="round" />
<path d="M 135.0 146.25 L 127.5 148.75 L 126.25 148.75 L 132.5 148.75 L 146.25 145.0 L 163.75 140.0 L 181.25 132.5 L 191.25 127.5 L 191.25 126.25 L 182.5 130.0 L 171.25 137.5 L 160.0 148.75 L 148.75 162.5 L 142.5 175.0 L 142.5 180.0 L 148.75 180.0 L 158.75 177.5 L 173.75 171.25 L 190.0 165.0 L 203.75 161.25 L 212.5 160.0 L 215.0 163.75 L 216.25 173.75 L 213.75 191.25 L 210.0 213.75 L 205.0 238.75 L 201.25 255.0 L 198.75 262.5 L 196.25 265.0 L 193.75 265.0 L 190.0 265.0 L 183.75 262.5 L 175.0 257.5 L 163.75 251.25 L 150.0 242.5 L 136.25 236.25 " stroke="black" fill="none" stroke-width="6.0" stroke-linecap="round" stroke-linejoin="round" />
</svg>