<svg xmlns="http://www.w3.org/2000/svg" width="300" height="300" viewBox="0 0 300 300">
<path d="M 80.0 91.25 L 80.0 91.25 L 78.75 91.25 L 78.75 91.25 L 91.25 91.25 L 125.0 88.75 L 165.0 83.75 L 192.5 78.75 L 201.25 75.0 L 201.25 72.5 L 192.5 72.5 L 185.0 72.5 " stroke="black" fill="none" stroke-width="6.0" stroke-linecap="round" stroke-linejoin="round" />
<path d="M 130.0 68.75 L 128.75 68.75 L 128.75 68.75 L 127.5 72.5 L 127.5 87.5 L 126.25 107.5 L 126.25 116.25 " stroke="black" fill="none" stroke-width="6.0" stroke-linecap="round" stroke-linejoin="round" />
<path d="M 163.75 70.0 L 163.75 68.75 L 163.75 70.0 L 160.0 82.5 L 151.25 101.25 L 141.25 125.0 " stroke="black" fill="none" stroke-width="6.0" stroke-linecap="round" stroke-linejoin="round" />
<path d="M 86.25 140.0 L 82.5 141.25 L 82.5 141.25 L 96.25 141.25 L 127.5 133.75 L 163.75 122.5 L 183.75 113.75 L 187.5 111.25 L 181.25 113.75 L 163.75 121.25 L 148.75 128.75 L 145.0 130.0 " stroke="black" fill="none" stroke-width="6.0" stroke-linecap="round" stroke-linejoin="round" />
<path d="M 113.75 141.25 L 113.75 142.5 L 112.5 150.0 L 111.25 178.75 L 107.5 220.0 L 100.0 250.0 L 95.0 262.5 L 88.75 266.25 L 82.5 260.0 " stroke="black" fill="none" stroke-width="6.0" stroke-linecap="round" stroke-linejoin="round" />
<path d="M 67.5 162.5 L 67.5 163.75 L 67.5 167.5 L 68.75 178.75 L 70.0 192.5 L 70.0 201.25 L 70.0 202.5 L 70.0 202.5 L 77.5 197.5 L 87.5 190.0 L 97.5 183.75 L 106.25 177.5 L 107.5 175.0 L 107.5 175.0 " stroke="black" fill="none" stroke-width="6.0" stroke-linecap="round" stroke-linejoin="round" />
<path d="M 60.0 220.0 L 60.0 220.0 L 61.25 220.0 L 73.75 215.0 L 91.25 203.75 L 102.5 196.25 L 103.75 193.75 L 96.25 197.5 L 88.75 202.5 L 81.25 208.75 L 76.25 215.0 L 72.5 226.25 L 70.0 242.5 L 70.0 253.75 L 68.75 255.0 " stroke="black" fill="none" stroke-width="6.0" stroke-linecap="round" stroke-linejoin="round" />
<path d="M 141.25 157.5 L 140.0 157.5 L 140.0 157.5 L 141.25 157.5 L 150.0 158.75 L 156.25 158.75 L 165.0 161.25 L 162.5 168.75 L 152.5 181.25 L 138.75 192.5 L 127.5 201.25 L 126.25 202.5 L 133.75 201.25 L 146.25 193.75 L 157.5 187.5 L 163.75 183.75 L 165.0 185.0 L 156.25 196.25 L 146.25 210.0 L 137.5 222.5 L 135.0 226.25 L 140.0 222.5 L 150.0 211.25 L 158.75 205.0 L 162.5 202.5 L 160.0 208.75 L 150.0 222.5 L 138.75 237.5 L 126.25 245.0 L 121.25 245.0 " stroke="black" fill="none" stroke-width="6.0" stroke-linecap="round" stroke-linejoin="round" />
<path d="M 123.75 182.5 L 121.25 188.75 L 120.0 201.25 L 121.25 223.75 L 127.5 242.5 L 137.5 247.5 L 150.0 241.25 L 163.75 223.75 L 176.25 206.25 L 186.25 190.0 L 188.75 176.25 L 188.75 170.0 " stroke="black" fill="none" stroke-width="6.0" stroke-linecap="round" stroke-linejoin="round" />
<path d="M 180.0 133.75 L 180.0 131.25 L 178.75 128.75 L 178.75 128.75 L 183.75 142.5 L 191.25 175.0 L 202.5 212.5 L 213.75 242.5 L 226.25 256.25 L 233.75 262.5 L 238.75 265.0 L 242.5 266.25 L 243.75 267.5 L 243.75 267.5 L 243.75 266.25 L 245.0 263.75 L 245.0 257.5 L 245.0 246.25 L 246.25 228.75 L 247.5 202.5 L 246.25 181.25 " stroke="black" fill="none" stroke-width="6.0" stroke-linecap="round" stroke-linejoin="round" />
<path d="M 238.75 150.0 L 237.5 151.25 L 233.75 156.25 L 220.0 173.75 L 205.0 197.5 L 190.0 216.25 L 172.5 228.75 L 165.0 228.75 " stroke="black" fill="none" stroke-width="6.0" stroke-linecap="round" stroke-linejoin="round" />
<path d="M 211.25 115.0 L 212.5 115.0 L 213.75 112.5 L 217.5 112.5 L 223.75 120.0 L 232.5 131.25 L 236.25 137.5 " stroke="black" fill="none" stroke-width="6.0" stroke-linecap="round" stroke-linejoin="round" />
</svg>