<svg xmlns="http://www.w3.org/2000/svg" width="300" height="300" viewBox="0 0 300 300">
<path d="M 82.5 102.5 L 82.5 102.5 L 82.5 102.5 L 83.75 113.75 L 86.25 155.0 L 85.0 197.5 L 80.0 218.75 L 75.0 227.5 L 71.25 227.5 L 71.25 226.25 " stroke="black" fill="none" stroke-width="6.0" stroke-linecap="round" stroke-linejoin="round" />
<path d="M 86.25 116.25 L 82.5 115.0 L 81.25 111.25 L 87.5 106.25 L 97.5 103.75 L 106.25 102.5 L 116.25 112.5 L 122.5 137.5 L 125.0 167.5 L 126.25 195.0 L 126.25 211.25 L 128.75 218.75 L 128.75 223.75 L 130.0 227.5 L 130.0 230.0 L 130.0 231.25 L 128.75 231.25 L 125.0 227.5 L 122.5 220.0 " stroke="black" fill="none" stroke-width="6.0" stroke-linecap="round" stroke-linejoin="round" />
<path d="M 93.75 147.5 L 87.5 150.0 L 82.5 151.25 L 82.5 151.25 L 91.25 150.0 L 103.75 143.75 L 113.75 136.25 L 118.75 133.75 L 118.75 133.75 " stroke="black" fill="none" stroke-width="6.0" stroke-linecap="round" stroke-linejoin="round" />
<path d="M 91.25 176.25 L 86.25 185.0 L 87.5 185.0 L 96.25 180.0 L 110.0 167.5 L 116.25 158.75 " stroke="black" fill="none" stroke-width="6.0" stroke-linecap="round" stroke-linejoin="round" />
<path d="M 156.25 95.0 L 152.5 96.25 L 151.25 96.25 L 156.25 96.25 L 176.25 93.75 L 197.5 90.0 L 216.25 87.5 L 223.75 87.5 L 220.0 91.25 L 207.5 100.0 L 195.0 111.25 L 188.75 115.0 " stroke="black" fill="none" stroke-width="6.0" stroke-linecap="round" stroke-linejoin="round" />
<path d="M 158.75 102.5 L 158.75 102.5 L 155.0 103.75 L 153.75 110.0 L 156.25 138.75 L 160.0 182.5 L 160.0 216.25 L 157.5 228.75 L 157.5 232.5 L 156.25 232.5 L 156.25 225.0 " stroke="black" fill="none" stroke-width="6.0" stroke-linecap="round" stroke-linejoin="round" />
<path d="M 163.75 161.25 L 158.75 166.25 L 160.0 166.25 L 175.0 162.5 L 193.75 155.0 L 212.5 145.0 L 221.25 140.0 L 222.5 142.5 L 215.0 161.25 L 203.75 186.25 L 193.75 206.25 L 183.75 220.0 L 176.25 222.5 L 171.25 221.25 L 170.0 217.5 " stroke="black" fill="none" stroke-width="6.0" stroke-linecap="round" stroke-linejoin="round" />
<path d="M 171.25 166.25 L 171.25 165.0 L 170.0 163.75 L 170.0 162.5 L 173.75 162.5 L 178.75 163.75 L 183.75 167.5 L 187.5 170.0 L 190.0 173.75 L 191.25 176.25 L 191.25 178.75 L 192.5 182.5 L 195.0 187.5 L 200.0 195.0 L 207.5 206.25 L 218.75 216.25 L 235.0 223.75 L 250.0 225.0 L 258.75 225.0 L 258.75 225.0 " stroke="black" fill="none" stroke-width="6.0" stroke-linecap="round" stroke-linejoin="round" />
</svg>