<svg xmlns="http://www.w3.org/2000/svg" width="300" height="300" viewBox="0 0 300 300">
<path d="M 148.75 57.5 L 148.75 57.5 L 148.75 57.5 L 148.75 57.5 L 150.0 65.0 L 153.75 77.5 L 156.25 88.75 L 155.0 93.75 " stroke="black" fill="none" stroke-width="6.0" stroke-linecap="round" stroke-linejoin="round" />
<path d="M 112.5 68.75 L 111.25 67.5 L 110.0 67.5 L 112.5 71.25 L 121.25 83.75 L 132.5 96.25 L 136.25 101.25 " stroke="black" fill="none" stroke-width="6.0" stroke-linecap="round" stroke-linejoin="round" />
<path d="M 191.25 53.75 L 192.5 53.75 L 193.75 53.75 L 193.75 55.0 L 185.0 70.0 L 166.25 90.0 L 151.25 100.0 " stroke="black" fill="none" stroke-width="6.0" stroke-linecap="round" stroke-linejoin="round" />
<path d="M 93.75 102.5 L 93.75 103.75 L 93.75 108.75 L 91.25 132.5 L 87.5 160.0 L 86.25 173.75 L 86.25 171.25 " stroke="black" fill="none" stroke-width="6.0" stroke-linecap="round" stroke-linejoin="round" />
<path d="M 100.0 110.0 L 100.0 110.0 L 110.0 110.0 L 142.5 108.75 L 181.25 108.75 L 206.25 108.75 L 211.25 111.25 L 206.25 115.0 L 193.75 125.0 L 177.5 131.25 L 163.75 133.75 " stroke="black" fill="none" stroke-width="6.0" stroke-linecap="round" stroke-linejoin="round" />
<path d="M 137.5 118.75 L 136.25 118.75 L 135.0 121.25 L 133.75 130.0 L 137.5 146.25 L 142.5 157.5 L 143.75 161.25 L 143.75 156.25 L 142.5 148.75 L 141.25 140.0 L 140.0 132.5 L 138.75 127.5 L 143.75 123.75 L 155.0 123.75 L 167.5 126.25 L 172.5 132.5 L 168.75 140.0 L 156.25 148.75 L 142.5 155.0 L 132.5 158.75 L 131.25 158.75 L 137.5 157.5 L 151.25 153.75 L 163.75 147.5 L 173.75 143.75 L 172.5 143.75 L 170.0 143.75 " stroke="black" fill="none" stroke-width="6.0" stroke-linecap="round" stroke-linejoin="round" />
<path d="M 146.25 156.25 L 146.25 157.5 L 146.25 158.75 L 150.0 162.5 L 156.25 168.75 L 161.25 176.25 L 158.75 183.75 " stroke="black" fill="none" stroke-width="6.0" stroke-linecap="round" stroke-linejoin="round" />
<path d="M 87.5 198.75 L 85.0 200.0 L 82.5 200.0 L 88.75 201.25 L 113.75 193.75 L 147.5 182.5 L 172.5 172.5 L 180.0 167.5 L 177.5 168.75 L 165.0 175.0 L 148.75 186.25 L 128.75 202.5 L 103.75 225.0 L 91.25 245.0 L 90.0 248.75 L 95.0 246.25 " stroke="black" fill="none" stroke-width="6.0" stroke-linecap="round" stroke-linejoin="round" />
<path d="M 135.0 201.25 L 135.0 202.5 L 132.5 208.75 L 132.5 228.75 L 136.25 252.5 L 142.5 266.25 L 152.5 265.0 L 168.75 251.25 L 187.5 231.25 L 200.0 210.0 L 205.0 198.75 L 202.5 196.25 L 192.5 198.75 L 176.25 207.5 L 156.25 218.75 L 142.5 230.0 L 140.0 233.75 L 143.75 233.75 L 150.0 232.5 L 157.5 232.5 L 165.0 232.5 L 175.0 235.0 L 185.0 238.75 L 197.5 246.25 L 212.5 252.5 L 228.75 256.25 L 248.75 256.25 L 256.25 252.5 " stroke="black" fill="none" stroke-width="6.0" stroke-linecap="round" stroke-linejoin="round" />
</svg>