<svg xmlns="http://www.w3.org/2000/svg" width="300" height="300" viewBox="0 0 300 300">
<path d="M 92.5 75.0 L 90.0 76.25 L 88.75 77.5 L 98.75 78.75 L 128.75 75.0 L 167.5 62.5 L 192.5 51.25 L 198.75 47.5 L 193.75 47.5 L 177.5 50.0 L 168.75 51.25 " stroke="black" fill="none" stroke-width="6.0" stroke-linecap="round" stroke-linejoin="round" />
<path d="M 118.75 50.0 L 117.5 50.0 L 117.5 50.0 L 117.5 57.5 L 120.0 75.0 L 122.5 87.5 L 123.75 88.75 " stroke="black" fill="none" stroke-width="6.0" stroke-linecap="round" stroke-linejoin="round" />
<path d="M 150.0 48.75 L 146.25 53.75 L 140.0 67.5 L 128.75 88.75 L 117.5 101.25 L 115.0 102.5 " stroke="black" fill="none" stroke-width="6.0" stroke-linecap="round" stroke-linejoin="round" />
<path d="M 111.25 92.5 L 106.25 97.5 L 100.0 110.0 L 93.75 132.5 L 88.75 150.0 L 87.5 155.0 L 87.5 150.0 " stroke="black" fill="none" stroke-width="6.0" stroke-linecap="round" stroke-linejoin="round" />
<path d="M 110.0 108.75 L 110.0 108.75 L 112.5 107.5 L 116.25 115.0 L 120.0 141.25 L 120.0 168.75 L 120.0 183.75 L 117.5 182.5 L 117.5 180.0 " stroke="black" fill="none" stroke-width="6.0" stroke-linecap="round" stroke-linejoin="round" />
<path d="M 140.0 92.5 L 140.0 92.5 L 141.25 92.5 L 145.0 91.25 L 155.0 91.25 L 167.5 90.0 L 175.0 90.0 L 171.25 91.25 L 168.75 92.5 " stroke="black" fill="none" stroke-width="6.0" stroke-linecap="round" stroke-linejoin="round" />
<path d="M 137.5 108.75 L 137.5 108.75 L 137.5 107.5 L 147.5 102.5 L 163.75 93.75 L 176.25 87.5 L 177.5 86.25 L 165.0 93.75 L 156.25 98.75 " stroke="black" fill="none" stroke-width="6.0" stroke-linecap="round" stroke-linejoin="round" />
<path d="M 136.25 128.75 L 136.25 130.0 L 136.25 131.25 L 143.75 128.75 L 158.75 117.5 L 173.75 106.25 L 178.75 98.75 L 173.75 98.75 L 165.0 101.25 L 158.75 102.5 L 155.0 103.75 L 155.0 106.25 L 155.0 115.0 L 155.0 135.0 L 155.0 153.75 L 155.0 162.5 L 152.5 161.25 " stroke="black" fill="none" stroke-width="6.0" stroke-linecap="round" stroke-linejoin="round" />
<path d="M 137.5 148.75 L 136.25 150.0 L 132.5 151.25 L 132.5 151.25 L 143.75 148.75 L 161.25 140.0 L 178.75 128.75 L 188.75 121.25 L 183.75 123.75 L 168.75 135.0 L 153.75 148.75 L 143.75 163.75 L 141.25 171.25 L 146.25 171.25 L 162.5 160.0 L 181.25 145.0 L 200.0 131.25 L 201.25 127.5 " stroke="black" fill="none" stroke-width="6.0" stroke-linecap="round" stroke-linejoin="round" />
<path d="M 96.25 202.5 L 95.0 202.5 L 91.25 205.0 L 88.75 206.25 L 93.75 206.25 L 110.0 200.0 L 126.25 192.5 L 138.75 183.75 L 140.0 181.25 L 128.75 185.0 L 116.25 191.25 L 106.25 197.5 L 101.25 207.5 L 101.25 223.75 L 102.5 241.25 L 106.25 252.5 L 110.0 255.0 L 111.25 252.5 L 111.25 251.25 " stroke="black" fill="none" stroke-width="6.0" stroke-linecap="round" stroke-linejoin="round" />
<path d="M 101.25 233.75 L 96.25 235.0 L 93.75 236.25 L 96.25 236.25 L 112.5 230.0 L 131.25 218.75 L 150.0 206.25 L 157.5 197.5 " stroke="black" fill="none" stroke-width="6.0" stroke-linecap="round" stroke-linejoin="round" />
<path d="M 153.75 191.25 L 153.75 190.0 L 155.0 190.0 L 162.5 190.0 L 178.75 188.75 L 196.25 192.5 L 203.75 202.5 L 201.25 218.75 L 191.25 237.5 L 180.0 248.75 L 166.25 253.75 L 163.75 253.75 " stroke="black" fill="none" stroke-width="6.0" stroke-linecap="round" stroke-linejoin="round" />
<path d="M 148.75 225.0 L 145.0 225.0 L 142.5 225.0 L 145.0 225.0 L 161.25 217.5 L 180.0 211.25 L 193.75 207.5 L 195.0 207.5 L 192.5 210.0 " stroke="black" fill="none" stroke-width="6.0" stroke-linecap="round" stroke-linejoin="round" />
<path d="M 106.25 268.75 L 105.0 268.75 L 103.75 271.25 L 108.75 270.0 L 131.25 261.25 L 158.75 250.0 L 182.5 242.5 L 188.75 241.25 " stroke="black" fill="none" stroke-width="6.0" stroke-linecap="round" stroke-linejoin="round" />
</svg>