<svg xmlns="http://www.w3.org/2000/svg" width="300" height="300" viewBox="0 0 300 300">
<path d="M 98.75 83.75 L 98.75 83.75 L 98.75 82.5 L 98.75 82.5 L 106.25 82.5 L 121.25 83.75 L 136.25 83.75 L 140.0 85.0 L 140.0 85.0 " stroke="black" fill="none" stroke-width="6.0" stroke-linecap="round" stroke-linejoin="round" />
<path d="M 78.75 121.25 L 78.75 121.25 L 78.75 122.5 L 86.25 122.5 L 106.25 113.75 L 131.25 103.75 L 143.75 96.25 L 142.5 93.75 L 137.5 93.75 L 125.0 93.75 L 118.75 93.75 L 115.0 92.5 L 115.0 96.25 L 121.25 112.5 L 126.25 136.25 L 127.5 152.5 L 125.0 156.25 L 116.25 156.25 L 105.0 155.0 L 96.25 153.75 L 95.0 151.25 L 101.25 146.25 L 120.0 135.0 L 143.75 120.0 L 167.5 102.5 L 181.25 90.0 L 183.75 86.25 L 181.25 86.25 L 176.25 86.25 L 173.75 87.5 L 172.5 95.0 L 172.5 110.0 L 173.75 127.5 L 176.25 140.0 L 178.75 142.5 L 178.75 140.0 " stroke="black" fill="none" stroke-width="6.0" stroke-linecap="round" stroke-linejoin="round" />
<path d="M 205.0 73.75 L 205.0 73.75 L 205.0 75.0 L 206.25 88.75 L 207.5 113.75 L 210.0 153.75 L 211.25 161.25 L 211.25 162.5 L 211.25 160.0 L 207.5 158.75 L 197.5 152.5 L 181.25 143.75 " stroke="black" fill="none" stroke-width="6.0" stroke-linecap="round" stroke-linejoin="round" />
<path d="M 96.25 208.75 L 91.25 211.25 L 88.75 212.5 L 90.0 212.5 L 110.0 207.5 L 142.5 196.25 L 180.0 182.5 L 200.0 171.25 L 202.5 167.5 L 196.25 166.25 L 182.5 166.25 L 167.5 166.25 L 155.0 166.25 L 146.25 166.25 L 145.0 165.0 L 145.0 163.75 L 147.5 163.75 L 150.0 175.0 L 152.5 203.75 L 155.0 246.25 L 156.25 268.75 L 156.25 276.25 L 152.5 277.5 L 148.75 270.0 L 146.25 263.75 " stroke="black" fill="none" stroke-width="6.0" stroke-linecap="round" stroke-linejoin="round" />
<path d="M 148.75 206.25 L 138.75 213.75 L 125.0 228.75 L 111.25 243.75 L 93.75 257.5 L 88.75 257.5 L 88.75 253.75 " stroke="black" fill="none" stroke-width="6.0" stroke-linecap="round" stroke-linejoin="round" />
<path d="M 140.0 196.25 L 141.25 196.25 L 150.0 198.75 L 170.0 211.25 L 196.25 233.75 L 212.5 246.25 L 227.5 255.0 L 243.75 262.5 L 250.0 265.0 " stroke="black" fill="none" stroke-width="6.0" stroke-linecap="round" stroke-linejoin="round" />
</svg>