<svg xmlns="http://www.w3.org/2000/svg" width="300" height="300" viewBox="0 0 300 300">
<path d="M 77.5 110.0 L 77.5 110.0 L 75.0 111.25 L 73.75 121.25 L 77.5 153.75 L 80.0 196.25 L 80.0 211.25 L 78.75 212.5 L 76.25 207.5 L 75.0 203.75 " stroke="black" fill="none" stroke-width="6.0" stroke-linecap="round" stroke-linejoin="round" />
<path d="M 80.0 118.75 L 80.0 118.75 L 78.75 116.25 L 82.5 111.25 L 90.0 106.25 L 97.5 103.75 L 105.0 108.75 L 110.0 132.5 L 111.25 168.75 L 111.25 198.75 L 111.25 211.25 L 111.25 212.5 L 110.0 211.25 L 106.25 206.25 L 101.25 201.25 L 100.0 200.0 " stroke="black" fill="none" stroke-width="6.0" stroke-linecap="round" stroke-linejoin="round" />
<path d="M 72.5 162.5 L 68.75 162.5 L 68.75 161.25 L 76.25 155.0 L 88.75 146.25 L 98.75 138.75 L 103.75 135.0 L 102.5 136.25 " stroke="black" fill="none" stroke-width="6.0" stroke-linecap="round" stroke-linejoin="round" />
<path d="M 80.0 175.0 L 76.25 181.25 L 80.0 181.25 L 88.75 176.25 L 96.25 168.75 L 101.25 162.5 L 102.5 158.75 " stroke="black" fill="none" stroke-width="6.0" stroke-linecap="round" stroke-linejoin="round" />
<path d="M 85.0 208.75 L 81.25 213.75 L 81.25 216.25 L 91.25 210.0 L 105.0 196.25 L 111.25 187.5 " stroke="black" fill="none" stroke-width="6.0" stroke-linecap="round" stroke-linejoin="round" />
<path d="M 150.0 80.0 L 150.0 80.0 L 150.0 80.0 L 152.5 91.25 L 156.25 110.0 L 160.0 120.0 L 165.0 118.75 L 173.75 106.25 L 182.5 92.5 L 188.75 82.5 L 192.5 77.5 L 192.5 77.5 L 192.5 78.75 L 191.25 78.75 L 191.25 81.25 L 196.25 85.0 L 202.5 90.0 L 207.5 93.75 L 210.0 98.75 L 211.25 102.5 " stroke="black" fill="none" stroke-width="6.0" stroke-linecap="round" stroke-linejoin="round" />
<path d="M 142.5 147.5 L 141.25 147.5 L 141.25 146.25 L 141.25 146.25 L 145.0 148.75 L 150.0 156.25 L 155.0 162.5 L 160.0 165.0 L 170.0 161.25 L 186.25 148.75 L 200.0 135.0 L 207.5 127.5 L 208.75 127.5 L 202.5 133.75 L 191.25 146.25 L 180.0 155.0 " stroke="black" fill="none" stroke-width="6.0" stroke-linecap="round" stroke-linejoin="round" />
<path d="M 142.5 203.75 L 140.0 208.75 L 141.25 211.25 L 152.5 210.0 L 172.5 198.75 L 198.75 182.5 L 216.25 165.0 L 221.25 156.25 L 217.5 153.75 L 207.5 153.75 " stroke="black" fill="none" stroke-width="6.0" stroke-linecap="round" stroke-linejoin="round" />
<path d="M 175.0 126.25 L 175.0 125.0 L 173.75 122.5 L 173.75 121.25 L 175.0 125.0 L 181.25 146.25 L 187.5 187.5 L 188.75 222.5 L 186.25 241.25 L 182.5 247.5 L 177.5 250.0 L 171.25 250.0 L 170.0 250.0 " stroke="black" fill="none" stroke-width="6.0" stroke-linecap="round" stroke-linejoin="round" />
</svg>