<svg xmlns="http://www.w3.org/2000/svg" width="300" height="300" viewBox="0 0 300 300">
<path d="M 118.75 92.5 L 115.0 92.5 L 111.25 93.75 L 111.25 93.75 L 120.0 93.75 L 135.0 93.75 L 151.25 87.5 L 166.25 78.75 L 173.75 70.0 L 171.25 65.0 L 166.25 65.0 " stroke="black" fill="none" stroke-width="6.0" stroke-linecap="round" stroke-linejoin="round" />
<path d="M 118.75 121.25 L 115.0 125.0 L 116.25 126.25 L 126.25 123.75 L 141.25 113.75 L 155.0 101.25 L 165.0 91.25 L 165.0 88.75 L 160.0 88.75 " stroke="black" fill="none" stroke-width="6.0" stroke-linecap="round" stroke-linejoin="round" />
<path d="M 102.5 148.75 L 96.25 153.75 L 101.25 153.75 L 118.75 148.75 L 147.5 135.0 L 177.5 112.5 L 197.5 95.0 L 198.75 87.5 L 195.0 86.25 " stroke="black" fill="none" stroke-width="6.0" stroke-linecap="round" stroke-linejoin="round" />
<path d="M 145.0 65.0 L 141.25 71.25 L 140.0 88.75 L 135.0 136.25 L 122.5 187.5 L 105.0 221.25 L 91.25 238.75 L 80.0 241.25 L 71.25 235.0 " stroke="black" fill="none" stroke-width="6.0" stroke-linecap="round" stroke-linejoin="round" />
<path d="M 162.5 128.75 L 175.0 132.5 L 197.5 143.75 L 215.0 155.0 L 228.75 162.5 L 233.75 165.0 L 232.5 166.25 L 225.0 170.0 L 212.5 172.5 " stroke="black" fill="none" stroke-width="6.0" stroke-linecap="round" stroke-linejoin="round" />
<path d="M 145.0 171.25 L 143.75 171.25 L 142.5 173.75 L 142.5 196.25 L 147.5 231.25 L 150.0 250.0 L 151.25 252.5 L 150.0 247.5 " stroke="black" fill="none" stroke-width="6.0" stroke-linecap="round" stroke-linejoin="round" />
<path d="M 148.75 166.25 L 148.75 165.0 L 150.0 158.75 L 155.0 153.75 L 163.75 153.75 L 175.0 161.25 L 183.75 183.75 L 186.25 208.75 L 182.5 230.0 L 175.0 241.25 L 171.25 242.5 L 166.25 240.0 L 161.25 233.75 L 161.25 231.25 " stroke="black" fill="none" stroke-width="6.0" stroke-linecap="round" stroke-linejoin="round" />
<path d="M 147.5 206.25 L 142.5 207.5 L 140.0 208.75 L 140.0 208.75 L 150.0 203.75 L 162.5 196.25 L 173.75 187.5 L 177.5 183.75 " stroke="black" fill="none" stroke-width="6.0" stroke-linecap="round" stroke-linejoin="round" />
<path d="M 145.0 245.0 L 143.75 247.5 L 140.0 252.5 L 143.75 252.5 L 155.0 247.5 L 168.75 236.25 L 175.0 231.25 " stroke="black" fill="none" stroke-width="6.0" stroke-linecap="round" stroke-linejoin="round" />
</svg>