<svg xmlns="http://www.w3.org/2000/svg" width="300" height="300" viewBox="0 0 300 300">
<path d="M 106.25 92.5 L 106.25 92.5 L 106.25 92.5 L 113.75 92.5 L 135.0 88.75 L 157.5 80.0 L 172.5 73.75 L 175.0 71.25 L 166.25 72.5 " stroke="black" fill="none" stroke-width="6.0" stroke-linecap="round" stroke-linejoin="round" />
<path d="M 110.0 118.75 L 108.75 120.0 L 107.5 123.75 L 112.5 123.75 L 127.5 121.25 L 146.25 111.25 L 160.0 101.25 L 162.5 96.25 L 153.75 97.5 " stroke="black" fill="none" stroke-width="6.0" stroke-linecap="round" stroke-linejoin="round" />
<path d="M 92.5 145.0 L 90.0 147.5 L 87.5 151.25 L 92.5 151.25 L 115.0 146.25 L 148.75 132.5 L 181.25 116.25 L 201.25 102.5 L 201.25 97.5 " stroke="black" fill="none" stroke-width="6.0" stroke-linecap="round" stroke-linejoin="round" />
<path d="M 135.0 60.0 L 135.0 62.5 L 132.5 77.5 L 128.75 113.75 L 117.5 160.0 L 98.75 201.25 L 82.5 228.75 L 66.25 241.25 L 55.0 241.25 L 50.0 228.75 L 52.5 217.5 " stroke="black" fill="none" stroke-width="6.0" stroke-linecap="round" stroke-linejoin="round" />
<path d="M 151.25 140.0 L 170.0 143.75 L 195.0 152.5 L 213.75 165.0 L 230.0 173.75 L 235.0 176.25 L 226.25 177.5 L 221.25 177.5 " stroke="black" fill="none" stroke-width="6.0" stroke-linecap="round" stroke-linejoin="round" />
<path d="M 136.25 163.75 L 131.25 177.5 L 130.0 202.5 L 131.25 230.0 L 135.0 243.75 L 140.0 247.5 L 140.0 242.5 " stroke="black" fill="none" stroke-width="6.0" stroke-linecap="round" stroke-linejoin="round" />
<path d="M 128.75 188.75 L 126.25 182.5 L 123.75 177.5 L 127.5 172.5 L 137.5 168.75 L 150.0 170.0 L 163.75 181.25 L 175.0 201.25 L 176.25 226.25 L 172.5 245.0 L 166.25 252.5 L 158.75 252.5 L 153.75 247.5 L 152.5 246.25 " stroke="black" fill="none" stroke-width="6.0" stroke-linecap="round" stroke-linejoin="round" />
<path d="M 138.75 205.0 L 133.75 207.5 L 131.25 208.75 L 136.25 208.75 L 150.0 206.25 L 165.0 201.25 L 175.0 196.25 L 175.0 196.25 " stroke="black" fill="none" stroke-width="6.0" stroke-linecap="round" stroke-linejoin="round" />
<path d="M 137.5 250.0 L 136.25 253.75 L 135.0 256.25 L 147.5 253.75 L 172.5 241.25 L 197.5 226.25 " stroke="black" fill="none" stroke-width="6.0" stroke-linecap="round" stroke-linejoin="round" />
</svg>