<svg xmlns="http://www.w3.org/2000/svg" width="300" height="300" viewBox="0 0 300 300">
<path d="M 103.75 92.5 L 103.75 92.5 L 105.0 95.0 L 105.0 96.25 L 107.5 98.75 L 118.75 98.75 L 140.0 95.0 L 158.75 86.25 L 173.75 80.0 L 177.5 77.5 L 170.0 77.5 L 163.75 80.0 " stroke="black" fill="none" stroke-width="6.0" stroke-linecap="round" stroke-linejoin="round" />
<path d="M 107.5 121.25 L 107.5 126.25 L 106.25 127.5 L 112.5 127.5 L 130.0 122.5 L 147.5 113.75 L 160.0 106.25 L 165.0 101.25 L 158.75 101.25 " stroke="black" fill="none" stroke-width="6.0" stroke-linecap="round" stroke-linejoin="round" />
<path d="M 78.75 152.5 L 76.25 155.0 L 68.75 163.75 L 67.5 165.0 L 78.75 165.0 L 106.25 156.25 L 145.0 140.0 L 181.25 123.75 L 201.25 111.25 L 203.75 105.0 L 198.75 103.75 " stroke="black" fill="none" stroke-width="6.0" stroke-linecap="round" stroke-linejoin="round" />
<path d="M 132.5 73.75 L 135.0 76.25 L 136.25 85.0 L 128.75 113.75 L 113.75 157.5 L 95.0 200.0 L 80.0 222.5 L 65.0 233.75 L 52.5 235.0 L 50.0 221.25 " stroke="black" fill="none" stroke-width="6.0" stroke-linecap="round" stroke-linejoin="round" />
<path d="M 155.0 133.75 L 162.5 133.75 L 185.0 136.25 L 208.75 148.75 L 231.25 163.75 L 252.5 177.5 L 260.0 183.75 L 260.0 185.0 L 256.25 185.0 " stroke="black" fill="none" stroke-width="6.0" stroke-linecap="round" stroke-linejoin="round" />
<path d="M 130.0 167.5 L 127.5 168.75 L 123.75 170.0 L 121.25 173.75 L 118.75 187.5 L 118.75 212.5 L 121.25 236.25 L 126.25 246.25 L 126.25 248.75 L 126.25 247.5 " stroke="black" fill="none" stroke-width="6.0" stroke-linecap="round" stroke-linejoin="round" />
<path d="M 117.5 195.0 L 118.75 192.5 L 118.75 186.25 L 121.25 181.25 L 130.0 176.25 L 142.5 170.0 L 156.25 167.5 L 166.25 172.5 L 170.0 191.25 L 171.25 213.75 L 168.75 235.0 L 167.5 248.75 L 166.25 251.25 L 163.75 252.5 L 160.0 250.0 L 155.0 246.25 " stroke="black" fill="none" stroke-width="6.0" stroke-linecap="round" stroke-linejoin="round" />
<path d="M 120.0 213.75 L 118.75 215.0 L 117.5 215.0 L 118.75 213.75 L 131.25 206.25 L 146.25 198.75 L 160.0 192.5 L 163.75 191.25 " stroke="black" fill="none" stroke-width="6.0" stroke-linecap="round" stroke-linejoin="round" />
<path d="M 126.25 236.25 L 126.25 243.75 L 125.0 246.25 L 133.75 247.5 L 150.0 243.75 L 167.5 233.75 L 171.25 231.25 " stroke="black" fill="none" stroke-width="6.0" stroke-linecap="round" stroke-linejoin="round" />
</svg>