<svg xmlns="http://www.w3.org/2000/svg" width="300" height="300" viewBox="0 0 300 300">
<path d="M 70.0 118.75 L 70.0 120.0 L 72.5 120.0 L 83.75 116.25 L 100.0 107.5 L 113.75 98.75 L 115.0 96.25 " stroke="black" fill="none" stroke-width="6.0" stroke-linecap="round" stroke-linejoin="round" />
<path d="M 58.75 160.0 L 58.75 160.0 L 58.75 162.5 L 68.75 160.0 L 92.5 145.0 L 118.75 123.75 L 133.75 106.25 L 132.5 98.75 " stroke="black" fill="none" stroke-width="6.0" stroke-linecap="round" stroke-linejoin="round" />
<path d="M 91.25 97.5 L 90.0 103.75 L 90.0 127.5 L 86.25 162.5 L 78.75 198.75 L 67.5 216.25 L 57.5 221.25 L 51.25 217.5 L 51.25 205.0 L 52.5 201.25 " stroke="black" fill="none" stroke-width="6.0" stroke-linecap="round" stroke-linejoin="round" />
<path d="M 92.5 150.0 L 98.75 157.5 L 110.0 177.5 L 125.0 202.5 L 138.75 217.5 L 147.5 222.5 L 148.75 222.5 " stroke="black" fill="none" stroke-width="6.0" stroke-linecap="round" stroke-linejoin="round" />
<path d="M 165.0 86.25 L 163.75 86.25 L 160.0 87.5 L 158.75 98.75 L 160.0 135.0 L 163.75 168.75 L 168.75 182.5 L 170.0 182.5 L 170.0 181.25 " stroke="black" fill="none" stroke-width="6.0" stroke-linecap="round" stroke-linejoin="round" />
<path d="M 165.0 96.25 L 165.0 95.0 L 167.5 92.5 L 180.0 85.0 L 200.0 78.75 L 218.75 76.25 L 230.0 83.75 L 232.5 106.25 L 231.25 142.5 L 230.0 167.5 L 230.0 178.75 L 230.0 181.25 L 228.75 178.75 L 225.0 172.5 L 221.25 167.5 " stroke="black" fill="none" stroke-width="6.0" stroke-linecap="round" stroke-linejoin="round" />
<path d="M 175.0 126.25 L 175.0 127.5 L 171.25 128.75 L 173.75 128.75 L 186.25 121.25 L 201.25 111.25 L 213.75 102.5 L 215.0 97.5 " stroke="black" fill="none" stroke-width="6.0" stroke-linecap="round" stroke-linejoin="round" />
<path d="M 168.75 147.5 L 166.25 151.25 L 170.0 151.25 L 185.0 146.25 L 201.25 137.5 L 215.0 126.25 L 220.0 120.0 L 213.75 123.75 " stroke="black" fill="none" stroke-width="6.0" stroke-linecap="round" stroke-linejoin="round" />
<path d="M 165.0 183.75 L 162.5 187.5 L 166.25 187.5 L 181.25 177.5 L 201.25 162.5 L 215.0 148.75 L 218.75 145.0 L 211.25 151.25 L 201.25 168.75 L 191.25 193.75 L 181.25 220.0 L 180.0 232.5 L 182.5 230.0 L 187.5 220.0 " stroke="black" fill="none" stroke-width="6.0" stroke-linecap="round" stroke-linejoin="round" />
<path d="M 208.75 171.25 L 208.75 172.5 L 208.75 180.0 L 212.5 200.0 L 221.25 221.25 L 233.75 235.0 L 245.0 236.25 L 253.75 236.25 L 257.5 232.5 L 260.0 228.75 L 260.0 227.5 L 260.0 226.25 L 260.0 222.5 L 262.5 210.0 L 267.5 175.0 L 268.75 160.0 " stroke="black" fill="none" stroke-width="6.0" stroke-linecap="round" stroke-linejoin="round" />
</svg>