<svg xmlns="http://www.w3.org/2000/svg" width="300" height="300" viewBox="0 0 300 300">
<path d="M 112.5 80.0 L 112.5 78.75 L 111.25 75.0 L 110.0 72.5 L 110.0 71.25 L 110.0 73.75 L 110.0 85.0 L 110.0 95.0 L 113.75 100.0 L 133.75 103.75 L 157.5 97.5 L 176.25 91.25 L 186.25 88.75 L 186.25 88.75 L 182.5 91.25 L 171.25 97.5 L 157.5 111.25 L 143.75 132.5 L 123.75 162.5 L 101.25 195.0 L 92.5 211.25 L 88.75 217.5 L 88.75 218.75 L 88.75 218.75 L 90.0 218.75 L 92.5 218.75 L 95.0 218.75 L 97.5 218.75 L 100.0 218.75 L 103.75 218.75 L 111.25 218.75 L 130.0 221.25 L 156.25 225.0 L 182.5 226.25 L 198.75 226.25 L 202.5 220.0 L 202.5 218.75 " stroke="black" fill="none" stroke-width="6.0" stroke-linecap="round" stroke-linejoin="round" />
<path d="M 157.5 132.5 L 157.5 132.5 L 157.5 131.25 L 163.75 131.25 L 182.5 132.5 L 202.5 146.25 L 210.0 176.25 L 203.75 205.0 L 190.0 226.25 L 172.5 241.25 L 155.0 246.25 L 142.5 243.75 L 137.5 236.25 " stroke="black" fill="none" stroke-width="6.0" stroke-linecap="round" stroke-linejoin="round" />
<path d="M 75.0 178.75 L 70.0 180.0 L 67.5 181.25 L 78.75 183.75 L 107.5 185.0 L 151.25 183.75 L 190.0 181.25 L 208.75 180.0 L 208.75 178.75 " stroke="black" fill="none" stroke-width="6.0" stroke-linecap="round" stroke-linejoin="round" />
<path d="M 161.25 146.25 L 161.25 148.75 L 158.75 165.0 L 152.5 202.5 L 147.5 227.5 " stroke="black" fill="none" stroke-width="6.0" stroke-linecap="round" stroke-linejoin="round" />
</svg>