<svg xmlns="http://www.w3.org/2000/svg" width="300" height="300" viewBox="0 0 300 300">
<path d="M 120.0 67.5 L 118.75 67.5 L 115.0 70.0 L 111.25 75.0 L 110.0 86.25 L 111.25 98.75 L 122.5 105.0 L 141.25 106.25 L 160.0 97.5 L 175.0 90.0 L 181.25 86.25 L 180.0 86.25 L 171.25 91.25 L 157.5 102.5 L 142.5 121.25 L 126.25 147.5 L 106.25 177.5 L 93.75 200.0 L 91.25 208.75 L 93.75 208.75 L 101.25 208.75 L 111.25 210.0 L 126.25 211.25 L 143.75 211.25 L 161.25 210.0 L 175.0 210.0 L 183.75 208.75 L 185.0 208.75 " stroke="black" fill="none" stroke-width="6.0" stroke-linecap="round" stroke-linejoin="round" />
<path d="M 143.75 122.5 L 143.75 122.5 L 143.75 122.5 L 150.0 121.25 L 168.75 121.25 L 190.0 131.25 L 198.75 153.75 L 191.25 187.5 L 176.25 213.75 L 161.25 231.25 L 152.5 237.5 L 146.25 236.25 L 142.5 232.5 " stroke="black" fill="none" stroke-width="6.0" stroke-linecap="round" stroke-linejoin="round" />
<path d="M 76.25 167.5 L 70.0 171.25 L 68.75 172.5 L 82.5 172.5 L 110.0 166.25 L 150.0 157.5 L 187.5 150.0 L 203.75 146.25 L 203.75 145.0 " stroke="black" fill="none" stroke-width="6.0" stroke-linecap="round" stroke-linejoin="round" />
<path d="M 157.5 138.75 L 157.5 141.25 L 156.25 147.5 L 156.25 158.75 L 155.0 180.0 L 152.5 192.5 " stroke="black" fill="none" stroke-width="6.0" stroke-linecap="round" stroke-linejoin="round" />
</svg>