<svg xmlns="http://www.w3.org/2000/svg" width="300" height="300" viewBox="0 0 300 300">
<path d="M 137.5 82.5 L 133.75 82.5 L 131.25 83.75 L 135.0 83.75 L 145.0 83.75 L 155.0 83.75 L 163.75 85.0 L 166.25 90.0 L 163.75 98.75 L 155.0 111.25 L 150.0 120.0 L 147.5 126.25 L 147.5 128.75 L 152.5 132.5 L 158.75 138.75 L 162.5 156.25 L 162.5 188.75 L 161.25 222.5 L 158.75 243.75 L 157.5 251.25 L 156.25 255.0 L 153.75 255.0 L 150.0 255.0 L 147.5 252.5 L 143.75 247.5 L 143.75 246.25 " stroke="black" fill="none" stroke-width="6.0" stroke-linecap="round" stroke-linejoin="round" />
<path d="M 130.0 176.25 L 130.0 176.25 L 127.5 175.0 L 127.5 175.0 L 136.25 171.25 L 148.75 165.0 L 161.25 157.5 L 168.75 152.5 L 166.25 151.25 L 162.5 152.5 " stroke="black" fill="none" stroke-width="6.0" stroke-linecap="round" stroke-linejoin="round" />
<path d="M 136.25 190.0 L 136.25 190.0 L 135.0 193.75 L 136.25 193.75 L 145.0 191.25 L 157.5 183.75 L 167.5 173.75 L 168.75 168.75 L 165.0 168.75 " stroke="black" fill="none" stroke-width="6.0" stroke-linecap="round" stroke-linejoin="round" />
<path d="M 137.5 211.25 L 137.5 213.75 L 137.5 216.25 L 147.5 215.0 L 163.75 203.75 L 176.25 191.25 L 178.75 181.25 L 177.5 181.25 " stroke="black" fill="none" stroke-width="6.0" stroke-linecap="round" stroke-linejoin="round" />
<path d="M 83.75 171.25 L 80.0 172.5 L 76.25 173.75 L 76.25 173.75 L 87.5 173.75 L 102.5 168.75 L 117.5 167.5 L 123.75 172.5 L 113.75 191.25 L 95.0 213.75 L 81.25 233.75 L 76.25 241.25 L 76.25 238.75 " stroke="black" fill="none" stroke-width="6.0" stroke-linecap="round" stroke-linejoin="round" />
<path d="M 213.75 123.75 L 210.0 127.5 L 205.0 136.25 L 197.5 151.25 L 190.0 165.0 L 185.0 168.75 L 185.0 170.0 L 185.0 168.75 L 185.0 168.75 L 185.0 168.75 L 185.0 168.75 L 185.0 168.75 L 186.25 170.0 L 190.0 175.0 L 197.5 185.0 L 207.5 200.0 L 225.0 220.0 L 245.0 236.25 L 257.5 241.25 L 262.5 241.25 L 262.5 238.75 " stroke="black" fill="none" stroke-width="6.0" stroke-linecap="round" stroke-linejoin="round" />
</svg>