<svg xmlns="http://www.w3.org/2000/svg" width="300" height="300" viewBox="0 0 300 300">
<path d="M 127.5 77.5 L 126.25 77.5 L 126.25 80.0 L 136.25 80.0 L 155.0 77.5 L 173.75 77.5 L 183.75 78.75 L 176.25 88.75 L 161.25 100.0 L 150.0 108.75 L 143.75 113.75 L 145.0 113.75 L 153.75 113.75 L 166.25 115.0 L 176.25 123.75 L 180.0 153.75 L 175.0 210.0 L 166.25 248.75 L 161.25 262.5 L 157.5 263.75 L 157.5 261.25 L 156.25 248.75 L 152.5 232.5 L 151.25 222.5 " stroke="black" fill="none" stroke-width="6.0" stroke-linecap="round" stroke-linejoin="round" />
<path d="M 131.25 152.5 L 130.0 152.5 L 128.75 153.75 L 136.25 152.5 L 153.75 146.25 L 177.5 138.75 L 195.0 130.0 L 196.25 128.75 L 193.75 130.0 " stroke="black" fill="none" stroke-width="6.0" stroke-linecap="round" stroke-linejoin="round" />
<path d="M 148.75 171.25 L 147.5 173.75 L 148.75 173.75 L 160.0 166.25 L 176.25 157.5 L 188.75 150.0 L 187.5 150.0 " stroke="black" fill="none" stroke-width="6.0" stroke-linecap="round" stroke-linejoin="round" />
<path d="M 148.75 201.25 L 146.25 205.0 L 145.0 208.75 L 153.75 205.0 L 170.0 195.0 L 186.25 182.5 L 191.25 171.25 L 182.5 170.0 " stroke="black" fill="none" stroke-width="6.0" stroke-linecap="round" stroke-linejoin="round" />
<path d="M 93.75 157.5 L 91.25 157.5 L 90.0 158.75 L 98.75 156.25 L 112.5 155.0 L 125.0 162.5 L 122.5 185.0 L 105.0 212.5 L 88.75 232.5 L 81.25 237.5 L 81.25 236.25 " stroke="black" fill="none" stroke-width="6.0" stroke-linecap="round" stroke-linejoin="round" />
<path d="M 235.0 131.25 L 232.5 133.75 L 223.75 141.25 L 215.0 150.0 L 207.5 158.75 L 202.5 162.5 L 202.5 163.75 L 202.5 163.75 L 202.5 163.75 L 202.5 163.75 L 202.5 166.25 L 203.75 173.75 L 207.5 190.0 L 215.0 211.25 L 228.75 236.25 L 245.0 252.5 L 256.25 257.5 L 267.5 261.25 L 278.75 261.25 L 282.5 260.0 " stroke="black" fill="none" stroke-width="6.0" stroke-linecap="round" stroke-linejoin="round" />
</svg>