<svg xmlns="http://www.w3.org/2000/svg" width="300" height="300" viewBox="0 0 300 300">
<path d="M 77.5 106.25 L 77.5 105.0 L 76.25 105.0 L 76.25 116.25 L 76.25 150.0 L 77.5 193.75 L 77.5 212.5 L 77.5 213.75 L 77.5 207.5 L 77.5 202.5 " stroke="black" fill="none" stroke-width="6.0" stroke-linecap="round" stroke-linejoin="round" />
<path d="M 80.0 112.5 L 77.5 110.0 L 77.5 106.25 L 82.5 101.25 L 91.25 97.5 L 101.25 96.25 L 108.75 102.5 L 112.5 122.5 L 113.75 151.25 L 113.75 182.5 L 115.0 200.0 L 115.0 203.75 L 116.25 203.75 L 115.0 201.25 L 110.0 197.5 L 106.25 192.5 L 101.25 186.25 " stroke="black" fill="none" stroke-width="6.0" stroke-linecap="round" stroke-linejoin="round" />
<path d="M 82.5 155.0 L 76.25 157.5 L 75.0 157.5 L 77.5 155.0 L 87.5 148.75 L 98.75 141.25 L 107.5 133.75 L 108.75 132.5 " stroke="black" fill="none" stroke-width="6.0" stroke-linecap="round" stroke-linejoin="round" />
<path d="M 78.75 176.25 L 76.25 178.75 L 76.25 178.75 L 83.75 175.0 L 95.0 166.25 L 107.5 157.5 L 111.25 153.75 L 111.25 153.75 " stroke="black" fill="none" stroke-width="6.0" stroke-linecap="round" stroke-linejoin="round" />
<path d="M 86.25 206.25 L 83.75 211.25 L 83.75 213.75 L 92.5 207.5 L 107.5 193.75 L 117.5 185.0 " stroke="black" fill="none" stroke-width="6.0" stroke-linecap="round" stroke-linejoin="round" />
<path d="M 160.0 88.75 L 157.5 91.25 L 157.5 92.5 L 170.0 92.5 L 186.25 90.0 L 201.25 90.0 L 208.75 88.75 L 210.0 91.25 L 200.0 100.0 L 183.75 112.5 L 165.0 127.5 L 150.0 140.0 L 148.75 142.5 L 157.5 141.25 L 173.75 135.0 L 191.25 126.25 L 203.75 116.25 L 207.5 108.75 L 203.75 105.0 L 201.25 105.0 " stroke="black" fill="none" stroke-width="6.0" stroke-linecap="round" stroke-linejoin="round" />
<path d="M 152.5 95.0 L 150.0 100.0 L 148.75 116.25 L 151.25 152.5 L 152.5 193.75 L 152.5 216.25 L 155.0 222.5 L 156.25 222.5 L 160.0 220.0 L 166.25 215.0 L 171.25 210.0 L 175.0 205.0 L 178.75 201.25 L 183.75 195.0 L 188.75 185.0 " stroke="black" fill="none" stroke-width="6.0" stroke-linecap="round" stroke-linejoin="round" />
<path d="M 168.75 161.25 L 161.25 167.5 L 165.0 167.5 L 180.0 162.5 L 198.75 153.75 L 218.75 143.75 L 231.25 136.25 L 232.5 135.0 " stroke="black" fill="none" stroke-width="6.0" stroke-linecap="round" stroke-linejoin="round" />
<path d="M 202.5 140.0 L 201.25 142.5 L 200.0 148.75 L 206.25 171.25 L 217.5 206.25 L 227.5 231.25 L 235.0 243.75 L 238.75 246.25 L 241.25 246.25 L 242.5 246.25 L 243.75 243.75 L 245.0 241.25 L 245.0 238.75 L 245.0 237.5 L 245.0 236.25 L 245.0 231.25 L 247.5 222.5 L 251.25 203.75 L 258.75 161.25 L 262.5 126.25 " stroke="black" fill="none" stroke-width="6.0" stroke-linecap="round" stroke-linejoin="round" />
</svg>