<svg xmlns="http://www.w3.org/2000/svg" width="300" height="300" viewBox="0 0 300 300">
<path d="M 88.75 92.5 L 88.75 92.5 L 85.0 93.75 L 83.75 93.75 L 88.75 95.0 L 107.5 95.0 L 132.5 91.25 L 151.25 85.0 L 153.75 82.5 " stroke="black" fill="none" stroke-width="6.0" stroke-linecap="round" stroke-linejoin="round" />
<path d="M 70.0 136.25 L 66.25 137.5 L 66.25 140.0 L 80.0 141.25 L 107.5 140.0 L 150.0 130.0 L 187.5 118.75 L 206.25 112.5 L 208.75 108.75 L 206.25 106.25 " stroke="black" fill="none" stroke-width="6.0" stroke-linecap="round" stroke-linejoin="round" />
<path d="M 172.5 82.5 L 172.5 82.5 L 172.5 83.75 L 177.5 103.75 L 191.25 158.75 L 203.75 208.75 L 215.0 236.25 L 225.0 247.5 L 231.25 251.25 L 232.5 251.25 L 232.5 251.25 L 232.5 245.0 L 231.25 236.25 L 226.25 222.5 L 221.25 206.25 L 212.5 185.0 L 208.75 171.25 " stroke="black" fill="none" stroke-width="6.0" stroke-linecap="round" stroke-linejoin="round" />
<path d="M 200.0 81.25 L 200.0 77.5 L 200.0 73.75 L 205.0 73.75 L 212.5 82.5 L 217.5 97.5 " stroke="black" fill="none" stroke-width="6.0" stroke-linecap="round" stroke-linejoin="round" />
<path d="M 125.0 163.75 L 123.75 163.75 L 122.5 163.75 L 125.0 172.5 L 131.25 200.0 L 133.75 222.5 L 135.0 233.75 L 135.0 235.0 L 133.75 228.75 L 131.25 220.0 L 131.25 212.5 L 131.25 206.25 L 133.75 202.5 L 138.75 198.75 L 146.25 195.0 L 156.25 191.25 L 163.75 187.5 L 166.25 185.0 L 161.25 185.0 " stroke="black" fill="none" stroke-width="6.0" stroke-linecap="round" stroke-linejoin="round" />
<path d="M 87.5 195.0 L 87.5 195.0 L 85.0 196.25 L 86.25 205.0 L 95.0 232.5 L 106.25 255.0 L 125.0 260.0 L 146.25 252.5 L 167.5 237.5 L 183.75 226.25 L 190.0 220.0 L 188.75 218.75 " stroke="black" fill="none" stroke-width="6.0" stroke-linecap="round" stroke-linejoin="round" />
</svg>