<svg xmlns="http://www.w3.org/2000/svg" width="300" height="300" viewBox="0 0 300 300">
<path d="M 98.75 120.0 L 97.5 122.5 L 96.25 125.0 L 100.0 127.5 L 120.0 127.5 L 150.0 126.25 L 183.75 118.75 L 205.0 111.25 L 211.25 105.0 L 208.75 102.5 " stroke="black" fill="none" stroke-width="6.0" stroke-linecap="round" stroke-linejoin="round" />
<path d="M 172.5 81.25 L 172.5 85.0 L 172.5 96.25 L 180.0 131.25 L 196.25 181.25 L 208.75 212.5 L 217.5 225.0 L 226.25 233.75 L 232.5 236.25 L 233.75 236.25 L 233.75 235.0 L 233.75 231.25 L 233.75 226.25 L 231.25 218.75 L 226.25 207.5 L 220.0 193.75 L 218.75 190.0 " stroke="black" fill="none" stroke-width="6.0" stroke-linecap="round" stroke-linejoin="round" />
<path d="M 206.25 72.5 L 206.25 71.25 L 206.25 71.25 L 210.0 76.25 L 215.0 85.0 L 218.75 91.25 " stroke="black" fill="none" stroke-width="6.0" stroke-linecap="round" stroke-linejoin="round" />
<path d="M 113.75 87.5 L 113.75 87.5 L 112.5 91.25 L 112.5 93.75 L 122.5 93.75 L 137.5 92.5 L 153.75 85.0 L 158.75 81.25 " stroke="black" fill="none" stroke-width="6.0" stroke-linecap="round" stroke-linejoin="round" />
<path d="M 133.75 156.25 L 132.5 155.0 L 131.25 153.75 L 131.25 153.75 L 132.5 166.25 L 135.0 191.25 L 136.25 210.0 L 137.5 216.25 L 137.5 216.25 L 137.5 212.5 L 142.5 205.0 L 152.5 192.5 L 161.25 181.25 L 170.0 171.25 L 172.5 166.25 L 165.0 167.5 L 161.25 168.75 " stroke="black" fill="none" stroke-width="6.0" stroke-linecap="round" stroke-linejoin="round" />
<path d="M 102.5 181.25 L 97.5 181.25 L 95.0 182.5 L 96.25 191.25 L 101.25 212.5 L 108.75 231.25 L 118.75 238.75 L 132.5 236.25 L 150.0 225.0 L 165.0 213.75 L 176.25 207.5 L 180.0 203.75 L 180.0 203.75 " stroke="black" fill="none" stroke-width="6.0" stroke-linecap="round" stroke-linejoin="round" />
</svg>