<svg xmlns="http://www.w3.org/2000/svg" width="300" height="300" viewBox="0 0 300 300">
<path d="M 87.5 76.25 L 86.25 76.25 L 85.0 76.25 L 85.0 76.25 L 90.0 76.25 L 98.75 78.75 L 107.5 80.0 L 108.75 81.25 " stroke="black" fill="none" stroke-width="6.0" stroke-linecap="round" stroke-linejoin="round" />
<path d="M 68.75 100.0 L 66.25 101.25 L 63.75 102.5 L 70.0 102.5 L 85.0 97.5 L 101.25 91.25 L 117.5 83.75 L 123.75 78.75 L 121.25 77.5 L 118.75 77.5 " stroke="black" fill="none" stroke-width="6.0" stroke-linecap="round" stroke-linejoin="round" />
<path d="M 106.25 93.75 L 102.5 101.25 L 97.5 113.75 L 87.5 132.5 L 76.25 146.25 L 65.0 148.75 L 57.5 146.25 L 56.25 142.5 " stroke="black" fill="none" stroke-width="6.0" stroke-linecap="round" stroke-linejoin="round" />
<path d="M 76.25 103.75 L 76.25 103.75 L 78.75 106.25 L 87.5 112.5 L 105.0 122.5 L 127.5 130.0 L 140.0 132.5 L 141.25 132.5 L 136.25 133.75 " stroke="black" fill="none" stroke-width="6.0" stroke-linecap="round" stroke-linejoin="round" />
<path d="M 68.75 151.25 L 66.25 153.75 L 65.0 156.25 L 71.25 157.5 L 90.0 153.75 L 115.0 145.0 L 137.5 133.75 L 145.0 126.25 L 137.5 126.25 " stroke="black" fill="none" stroke-width="6.0" stroke-linecap="round" stroke-linejoin="round" />
<path d="M 77.5 153.75 L 76.25 156.25 L 75.0 158.75 L 68.75 197.5 L 61.25 227.5 L 55.0 245.0 L 50.0 248.75 L 47.5 240.0 " stroke="black" fill="none" stroke-width="6.0" stroke-linecap="round" stroke-linejoin="round" />
<path d="M 96.25 167.5 L 96.25 168.75 L 96.25 177.5 L 93.75 193.75 L 87.5 212.5 L 80.0 222.5 L 77.5 222.5 " stroke="black" fill="none" stroke-width="6.0" stroke-linecap="round" stroke-linejoin="round" />
<path d="M 118.75 166.25 L 117.5 172.5 L 113.75 185.0 L 106.25 203.75 L 100.0 216.25 L 96.25 217.5 L 97.5 210.0 " stroke="black" fill="none" stroke-width="6.0" stroke-linecap="round" stroke-linejoin="round" />
<path d="M 131.25 185.0 L 131.25 186.25 L 127.5 195.0 L 110.0 220.0 L 90.0 247.5 L 75.0 255.0 " stroke="black" fill="none" stroke-width="6.0" stroke-linecap="round" stroke-linejoin="round" />
<path d="M 167.5 86.25 L 166.25 87.5 L 166.25 88.75 L 178.75 88.75 L 196.25 88.75 L 210.0 86.25 L 213.75 85.0 L 207.5 87.5 L 193.75 96.25 L 181.25 103.75 L 173.75 108.75 L 173.75 110.0 L 176.25 108.75 L 177.5 107.5 L 178.75 108.75 L 178.75 122.5 L 176.25 151.25 L 176.25 188.75 L 178.75 210.0 L 183.75 213.75 L 183.75 211.25 L 183.75 208.75 " stroke="black" fill="none" stroke-width="6.0" stroke-linecap="round" stroke-linejoin="round" />
<path d="M 172.5 135.0 L 173.75 135.0 L 173.75 132.5 L 176.25 128.75 L 186.25 123.75 L 202.5 117.5 L 217.5 121.25 L 225.0 143.75 L 226.25 173.75 L 223.75 198.75 L 221.25 208.75 L 220.0 211.25 L 217.5 207.5 L 215.0 203.75 " stroke="black" fill="none" stroke-width="6.0" stroke-linecap="round" stroke-linejoin="round" />
<path d="M 178.75 151.25 L 177.5 152.5 L 175.0 152.5 L 178.75 152.5 L 191.25 148.75 L 206.25 140.0 L 216.25 132.5 L 217.5 131.25 " stroke="black" fill="none" stroke-width="6.0" stroke-linecap="round" stroke-linejoin="round" />
<path d="M 180.0 178.75 L 177.5 181.25 L 175.0 185.0 L 178.75 183.75 L 193.75 176.25 L 208.75 163.75 L 217.5 155.0 L 218.75 153.75 " stroke="black" fill="none" stroke-width="6.0" stroke-linecap="round" stroke-linejoin="round" />
<path d="M 182.5 218.75 L 182.5 220.0 L 181.25 221.25 L 183.75 220.0 L 197.5 210.0 L 213.75 198.75 L 225.0 191.25 L 223.75 192.5 L 213.75 205.0 L 201.25 222.5 L 188.75 242.5 L 177.5 256.25 L 173.75 257.5 L 173.75 255.0 " stroke="black" fill="none" stroke-width="6.0" stroke-linecap="round" stroke-linejoin="round" />
<path d="M 206.25 216.25 L 207.5 215.0 L 207.5 215.0 L 211.25 218.75 L 225.0 232.5 L 242.5 247.5 L 253.75 256.25 L 257.5 258.75 L 257.5 261.25 L 252.5 262.5 " stroke="black" fill="none" stroke-width="6.0" stroke-linecap="round" stroke-linejoin="round" />
</svg>