<svg xmlns="http://www.w3.org/2000/svg" width="300" height="300" viewBox="0 0 300 300">
<path d="M 96.25 83.75 L 96.25 83.75 L 96.25 83.75 L 105.0 83.75 L 117.5 83.75 L 125.0 83.75 L 125.0 85.0 L 120.0 86.25 " stroke="black" fill="none" stroke-width="6.0" stroke-linecap="round" stroke-linejoin="round" />
<path d="M 71.25 117.5 L 71.25 118.75 L 70.0 120.0 L 77.5 117.5 L 93.75 108.75 L 115.0 95.0 L 131.25 83.75 L 136.25 78.75 L 131.25 80.0 " stroke="black" fill="none" stroke-width="6.0" stroke-linecap="round" stroke-linejoin="round" />
<path d="M 110.0 101.25 L 110.0 103.75 L 108.75 108.75 L 107.5 120.0 L 102.5 138.75 L 93.75 153.75 L 81.25 162.5 L 68.75 162.5 L 66.25 162.5 " stroke="black" fill="none" stroke-width="6.0" stroke-linecap="round" stroke-linejoin="round" />
<path d="M 83.75 122.5 L 86.25 121.25 L 95.0 121.25 L 112.5 126.25 L 135.0 132.5 L 153.75 137.5 L 160.0 141.25 L 156.25 143.75 " stroke="black" fill="none" stroke-width="6.0" stroke-linecap="round" stroke-linejoin="round" />
<path d="M 67.5 175.0 L 66.25 176.25 L 65.0 177.5 L 75.0 177.5 L 96.25 173.75 L 121.25 163.75 L 138.75 153.75 L 141.25 148.75 L 135.0 147.5 L 126.25 148.75 " stroke="black" fill="none" stroke-width="6.0" stroke-linecap="round" stroke-linejoin="round" />
<path d="M 82.5 181.25 L 80.0 185.0 L 77.5 195.0 L 77.5 213.75 L 73.75 241.25 L 71.25 253.75 L 66.25 256.25 L 62.5 251.25 " stroke="black" fill="none" stroke-width="6.0" stroke-linecap="round" stroke-linejoin="round" />
<path d="M 101.25 187.5 L 101.25 186.25 L 101.25 186.25 L 101.25 192.5 L 97.5 208.75 L 92.5 227.5 L 87.5 233.75 L 87.5 233.75 " stroke="black" fill="none" stroke-width="6.0" stroke-linecap="round" stroke-linejoin="round" />
<path d="M 120.0 182.5 L 120.0 182.5 L 120.0 182.5 L 120.0 188.75 L 115.0 206.25 L 107.5 223.75 L 103.75 227.5 L 103.75 221.25 " stroke="black" fill="none" stroke-width="6.0" stroke-linecap="round" stroke-linejoin="round" />
<path d="M 135.0 187.5 L 135.0 187.5 L 136.25 195.0 L 135.0 216.25 L 123.75 245.0 L 112.5 260.0 " stroke="black" fill="none" stroke-width="6.0" stroke-linecap="round" stroke-linejoin="round" />
<path d="M 162.5 90.0 L 160.0 90.0 L 158.75 91.25 L 161.25 91.25 L 176.25 91.25 L 192.5 91.25 L 202.5 88.75 L 206.25 87.5 L 201.25 90.0 L 188.75 100.0 L 176.25 111.25 L 167.5 118.75 L 165.0 123.75 L 165.0 126.25 L 165.0 130.0 L 166.25 143.75 L 167.5 171.25 L 170.0 197.5 L 172.5 211.25 L 173.75 215.0 L 173.75 211.25 L 173.75 207.5 " stroke="black" fill="none" stroke-width="6.0" stroke-linecap="round" stroke-linejoin="round" />
<path d="M 165.0 147.5 L 163.75 147.5 L 160.0 147.5 L 161.25 146.25 L 172.5 141.25 L 188.75 133.75 L 203.75 126.25 L 212.5 123.75 L 216.25 131.25 L 217.5 153.75 L 217.5 183.75 L 217.5 202.5 L 217.5 211.25 L 215.0 215.0 L 212.5 215.0 L 210.0 213.75 L 207.5 207.5 L 205.0 202.5 " stroke="black" fill="none" stroke-width="6.0" stroke-linecap="round" stroke-linejoin="round" />
<path d="M 168.75 165.0 L 165.0 167.5 L 163.75 167.5 L 170.0 166.25 L 185.0 160.0 L 200.0 151.25 L 210.0 143.75 L 211.25 141.25 L 207.5 142.5 " stroke="black" fill="none" stroke-width="6.0" stroke-linecap="round" stroke-linejoin="round" />
<path d="M 175.0 186.25 L 175.0 187.5 L 172.5 190.0 L 175.0 191.25 L 186.25 187.5 L 200.0 178.75 L 207.5 171.25 L 208.75 168.75 L 207.5 168.75 " stroke="black" fill="none" stroke-width="6.0" stroke-linecap="round" stroke-linejoin="round" />
<path d="M 170.0 221.25 L 168.75 225.0 L 171.25 225.0 L 182.5 220.0 L 198.75 210.0 L 211.25 200.0 L 216.25 196.25 L 215.0 197.5 L 206.25 208.75 L 195.0 225.0 L 181.25 242.5 L 168.75 253.75 L 165.0 255.0 L 165.0 253.75 " stroke="black" fill="none" stroke-width="6.0" stroke-linecap="round" stroke-linejoin="round" />
<path d="M 198.75 220.0 L 198.75 220.0 L 198.75 220.0 L 198.75 220.0 L 201.25 220.0 L 203.75 222.5 L 205.0 225.0 L 206.25 226.25 L 207.5 227.5 L 207.5 228.75 L 207.5 228.75 L 207.5 228.75 L 207.5 228.75 L 207.5 228.75 L 207.5 228.75 L 207.5 228.75 L 208.75 232.5 L 213.75 240.0 L 226.25 252.5 L 240.0 263.75 L 245.0 268.75 " stroke="black" fill="none" stroke-width="6.0" stroke-linecap="round" stroke-linejoin="round" />
</svg>