<svg xmlns="http://www.w3.org/2000/svg" width="300" height="300" viewBox="0 0 300 300">
<path d="M 115.0 72.5 L 115.0 72.5 L 115.0 72.5 L 121.25 72.5 L 140.0 73.75 L 166.25 73.75 L 185.0 68.75 L 190.0 65.0 L 178.75 67.5 " stroke="black" fill="none" stroke-width="6.0" stroke-linecap="round" stroke-linejoin="round" />
<path d="M 90.0 93.75 L 90.0 93.75 L 88.75 93.75 L 87.5 93.75 L 88.75 100.0 L 92.5 115.0 L 97.5 128.75 L 98.75 135.0 L 98.75 136.25 " stroke="black" fill="none" stroke-width="6.0" stroke-linecap="round" stroke-linejoin="round" />
<path d="M 92.5 110.0 L 90.0 106.25 L 88.75 103.75 L 100.0 100.0 L 128.75 96.25 L 167.5 93.75 L 206.25 91.25 L 226.25 92.5 L 231.25 96.25 L 226.25 102.5 L 210.0 111.25 L 195.0 120.0 L 177.5 125.0 L 162.5 126.25 " stroke="black" fill="none" stroke-width="6.0" stroke-linecap="round" stroke-linejoin="round" />
<path d="M 153.75 82.5 L 153.75 82.5 L 153.75 82.5 L 153.75 85.0 L 153.75 100.0 L 153.75 118.75 L 153.75 125.0 L 156.25 118.75 L 163.75 103.75 L 172.5 90.0 L 178.75 78.75 L 180.0 73.75 L 177.5 77.5 L 170.0 88.75 L 160.0 102.5 L 151.25 110.0 L 146.25 111.25 " stroke="black" fill="none" stroke-width="6.0" stroke-linecap="round" stroke-linejoin="round" />
<path d="M 132.5 86.25 L 131.25 83.75 L 131.25 83.75 L 131.25 90.0 L 133.75 108.75 L 140.0 131.25 L 141.25 136.25 " stroke="black" fill="none" stroke-width="6.0" stroke-linecap="round" stroke-linejoin="round" />
<path d="M 80.0 178.75 L 78.75 178.75 L 76.25 181.25 L 78.75 181.25 L 96.25 176.25 L 126.25 162.5 L 153.75 147.5 L 162.5 142.5 L 161.25 141.25 L 152.5 143.75 L 143.75 146.25 L 136.25 148.75 L 130.0 150.0 L 126.25 152.5 L 125.0 166.25 L 126.25 198.75 L 127.5 235.0 L 127.5 255.0 L 123.75 262.5 L 118.75 257.5 L 117.5 246.25 L 117.5 236.25 " stroke="black" fill="none" stroke-width="6.0" stroke-linecap="round" stroke-linejoin="round" />
<path d="M 125.0 180.0 L 122.5 180.0 L 117.5 185.0 L 105.0 202.5 L 92.5 228.75 L 85.0 243.75 L 82.5 241.25 L 85.0 231.25 " stroke="black" fill="none" stroke-width="6.0" stroke-linecap="round" stroke-linejoin="round" />
<path d="M 115.0 190.0 L 117.5 188.75 L 125.0 186.25 L 137.5 190.0 L 150.0 202.5 L 162.5 213.75 L 172.5 216.25 L 172.5 212.5 " stroke="black" fill="none" stroke-width="6.0" stroke-linecap="round" stroke-linejoin="round" />
<path d="M 177.5 158.75 L 175.0 153.75 L 175.0 157.5 L 173.75 181.25 L 172.5 212.5 L 172.5 233.75 L 175.0 240.0 L 175.0 235.0 L 175.0 232.5 " stroke="black" fill="none" stroke-width="6.0" stroke-linecap="round" stroke-linejoin="round" />
<path d="M 176.25 161.25 L 175.0 160.0 L 172.5 153.75 L 173.75 151.25 L 182.5 150.0 L 196.25 148.75 L 207.5 148.75 L 217.5 158.75 L 220.0 186.25 L 218.75 218.75 L 215.0 247.5 L 213.75 260.0 L 213.75 260.0 L 213.75 256.25 L 210.0 248.75 L 203.75 240.0 L 197.5 226.25 L 192.5 218.75 " stroke="black" fill="none" stroke-width="6.0" stroke-linecap="round" stroke-linejoin="round" />
<path d="M 175.0 195.0 L 173.75 192.5 L 171.25 191.25 L 171.25 190.0 L 181.25 185.0 L 195.0 178.75 L 208.75 172.5 L 215.0 168.75 L 213.75 170.0 " stroke="black" fill="none" stroke-width="6.0" stroke-linecap="round" stroke-linejoin="round" />
<path d="M 173.75 212.5 L 173.75 213.75 L 170.0 217.5 L 170.0 217.5 L 180.0 213.75 L 196.25 205.0 L 210.0 197.5 L 213.75 195.0 " stroke="black" fill="none" stroke-width="6.0" stroke-linecap="round" stroke-linejoin="round" />
<path d="M 172.5 241.25 L 166.25 245.0 L 168.75 246.25 L 188.75 237.5 L 208.75 225.0 L 220.0 216.25 " stroke="black" fill="none" stroke-width="6.0" stroke-linecap="round" stroke-linejoin="round" />
</svg>