<svg xmlns="http://www.w3.org/2000/svg" width="300" height="300" viewBox="0 0 300 300">
<path d="M 105.0 76.25 L 105.0 76.25 L 103.75 76.25 L 111.25 76.25 L 136.25 75.0 L 165.0 72.5 L 186.25 71.25 L 191.25 71.25 L 186.25 72.5 " stroke="black" fill="none" stroke-width="6.0" stroke-linecap="round" stroke-linejoin="round" />
<path d="M 81.25 92.5 L 78.75 92.5 L 76.25 95.0 L 78.75 103.75 L 86.25 121.25 L 95.0 137.5 L 98.75 142.5 L 98.75 141.25 " stroke="black" fill="none" stroke-width="6.0" stroke-linecap="round" stroke-linejoin="round" />
<path d="M 87.5 110.0 L 85.0 108.75 L 85.0 108.75 L 96.25 108.75 L 131.25 102.5 L 181.25 95.0 L 217.5 93.75 L 231.25 97.5 L 228.75 105.0 L 215.0 115.0 L 198.75 123.75 L 182.5 128.75 L 173.75 128.75 " stroke="black" fill="none" stroke-width="6.0" stroke-linecap="round" stroke-linejoin="round" />
<path d="M 157.5 81.25 L 157.5 81.25 L 155.0 80.0 L 153.75 85.0 L 153.75 100.0 L 156.25 118.75 L 158.75 122.5 " stroke="black" fill="none" stroke-width="6.0" stroke-linecap="round" stroke-linejoin="round" />
<path d="M 185.0 85.0 L 185.0 85.0 L 182.5 85.0 L 176.25 91.25 L 163.75 108.75 L 150.0 125.0 L 138.75 128.75 " stroke="black" fill="none" stroke-width="6.0" stroke-linecap="round" stroke-linejoin="round" />
<path d="M 120.0 97.5 L 117.5 95.0 L 117.5 93.75 L 126.25 100.0 L 137.5 120.0 L 143.75 133.75 " stroke="black" fill="none" stroke-width="6.0" stroke-linecap="round" stroke-linejoin="round" />
<path d="M 80.0 188.75 L 75.0 191.25 L 71.25 195.0 L 76.25 195.0 L 91.25 193.75 L 111.25 183.75 L 131.25 171.25 L 142.5 160.0 L 142.5 156.25 L 133.75 156.25 L 121.25 158.75 L 110.0 161.25 L 102.5 162.5 L 100.0 166.25 L 102.5 180.0 L 110.0 212.5 L 116.25 251.25 L 117.5 273.75 L 117.5 281.25 L 110.0 282.5 L 103.75 275.0 " stroke="black" fill="none" stroke-width="6.0" stroke-linecap="round" stroke-linejoin="round" />
<path d="M 107.5 198.75 L 107.5 198.75 L 103.75 198.75 L 97.5 208.75 L 88.75 227.5 L 76.25 252.5 L 72.5 252.5 L 72.5 250.0 " stroke="black" fill="none" stroke-width="6.0" stroke-linecap="round" stroke-linejoin="round" />
<path d="M 97.5 206.25 L 98.75 205.0 L 102.5 205.0 L 113.75 207.5 L 131.25 217.5 L 148.75 225.0 L 155.0 222.5 " stroke="black" fill="none" stroke-width="6.0" stroke-linecap="round" stroke-linejoin="round" />
<path d="M 166.25 166.25 L 165.0 166.25 L 162.5 166.25 L 161.25 181.25 L 161.25 212.5 L 165.0 237.5 L 170.0 246.25 L 170.0 243.75 L 168.75 241.25 " stroke="black" fill="none" stroke-width="6.0" stroke-linecap="round" stroke-linejoin="round" />
<path d="M 160.0 175.0 L 157.5 171.25 L 156.25 168.75 L 157.5 167.5 L 167.5 163.75 L 181.25 160.0 L 195.0 158.75 L 205.0 167.5 L 208.75 192.5 L 210.0 220.0 L 210.0 243.75 L 210.0 256.25 L 210.0 257.5 L 208.75 253.75 L 205.0 246.25 L 197.5 236.25 " stroke="black" fill="none" stroke-width="6.0" stroke-linecap="round" stroke-linejoin="round" />
<path d="M 167.5 205.0 L 162.5 206.25 L 162.5 206.25 L 170.0 206.25 L 185.0 201.25 L 200.0 195.0 L 207.5 188.75 L 208.75 188.75 " stroke="black" fill="none" stroke-width="6.0" stroke-linecap="round" stroke-linejoin="round" />
<path d="M 170.0 225.0 L 167.5 228.75 L 166.25 231.25 L 171.25 232.5 L 185.0 227.5 L 198.75 217.5 L 208.75 208.75 " stroke="black" fill="none" stroke-width="6.0" stroke-linecap="round" stroke-linejoin="round" />
<path d="M 181.25 246.25 L 176.25 248.75 L 180.0 248.75 L 195.0 241.25 L 202.5 236.25 " stroke="black" fill="none" stroke-width="6.0" stroke-linecap="round" stroke-linejoin="round" />
</svg>