<svg xmlns="http://www.w3.org/2000/svg" width="300" height="300" viewBox="0 0 300 300">
<path d="M 91.25 101.25 L 91.25 101.25 L 91.25 101.25 L 91.25 101.25 L 90.0 111.25 L 80.0 135.0 L 63.75 157.5 L 52.5 166.25 L 50.0 165.0 " stroke="black" fill="none" stroke-width="6.0" stroke-linecap="round" stroke-linejoin="round" />
<path d="M 107.5 132.5 L 107.5 132.5 L 103.75 138.75 L 93.75 160.0 L 78.75 187.5 L 66.25 200.0 L 60.0 201.25 L 60.0 197.5 " stroke="black" fill="none" stroke-width="6.0" stroke-linecap="round" stroke-linejoin="round" />
<path d="M 90.0 165.0 L 91.25 165.0 L 93.75 165.0 L 96.25 178.75 L 96.25 207.5 L 91.25 235.0 L 83.75 248.75 L 76.25 248.75 L 73.75 245.0 " stroke="black" fill="none" stroke-width="6.0" stroke-linecap="round" stroke-linejoin="round" />
<path d="M 143.75 106.25 L 140.0 108.75 L 138.75 111.25 L 147.5 111.25 L 166.25 107.5 L 193.75 98.75 L 211.25 95.0 L 215.0 95.0 L 207.5 103.75 L 193.75 118.75 L 173.75 131.25 L 153.75 140.0 L 145.0 142.5 " stroke="black" fill="none" stroke-width="6.0" stroke-linecap="round" stroke-linejoin="round" />
<path d="M 142.5 130.0 L 142.5 128.75 L 142.5 125.0 L 142.5 123.75 L 142.5 132.5 L 145.0 162.5 L 146.25 205.0 L 146.25 232.5 L 145.0 237.5 L 142.5 230.0 " stroke="black" fill="none" stroke-width="6.0" stroke-linecap="round" stroke-linejoin="round" />
<path d="M 165.0 75.0 L 165.0 83.75 L 167.5 110.0 L 167.5 151.25 L 165.0 177.5 L 162.5 188.75 L 161.25 190.0 L 161.25 187.5 L 163.75 182.5 L 171.25 175.0 L 181.25 166.25 L 191.25 161.25 L 198.75 160.0 L 200.0 167.5 L 195.0 186.25 L 186.25 200.0 L 168.75 220.0 L 156.25 226.25 L 151.25 226.25 L 150.0 223.75 " stroke="black" fill="none" stroke-width="6.0" stroke-linecap="round" stroke-linejoin="round" />
<path d="M 158.75 183.75 L 158.75 182.5 L 156.25 182.5 L 155.0 182.5 L 155.0 182.5 L 155.0 182.5 L 156.25 182.5 L 157.5 182.5 L 158.75 182.5 L 160.0 182.5 L 161.25 182.5 L 162.5 182.5 L 163.75 182.5 L 166.25 183.75 L 175.0 192.5 L 192.5 208.75 L 216.25 226.25 L 241.25 236.25 L 255.0 237.5 " stroke="black" fill="none" stroke-width="6.0" stroke-linecap="round" stroke-linejoin="round" />
</svg>