<svg xmlns="http://www.w3.org/2000/svg" width="300" height="300" viewBox="0 0 300 300">
<path d="M 165.0 76.25 L 166.25 76.25 L 167.5 76.25 L 175.0 76.25 L 188.75 78.75 L 201.25 80.0 L 205.0 82.5 L 201.25 86.25 L 188.75 92.5 L 171.25 100.0 L 157.5 107.5 L 151.25 111.25 L 153.75 111.25 L 166.25 111.25 L 183.75 110.0 L 198.75 106.25 L 203.75 105.0 L 202.5 106.25 L 190.0 113.75 L 176.25 120.0 L 161.25 127.5 L 150.0 132.5 L 145.0 137.5 L 143.75 146.25 L 143.75 163.75 L 146.25 195.0 L 148.75 220.0 L 152.5 231.25 L 152.5 228.75 " stroke="black" fill="none" stroke-width="6.0" stroke-linecap="round" stroke-linejoin="round" />
<path d="M 145.0 151.25 L 145.0 151.25 L 145.0 151.25 L 151.25 148.75 L 175.0 142.5 L 206.25 136.25 L 223.75 135.0 L 231.25 146.25 L 232.5 171.25 L 230.0 197.5 L 226.25 212.5 L 222.5 217.5 L 220.0 217.5 L 215.0 211.25 L 211.25 207.5 " stroke="black" fill="none" stroke-width="6.0" stroke-linecap="round" stroke-linejoin="round" />
<path d="M 155.0 186.25 L 155.0 186.25 L 153.75 186.25 L 156.25 183.75 L 171.25 175.0 L 193.75 161.25 L 207.5 151.25 L 210.0 147.5 L 207.5 148.75 " stroke="black" fill="none" stroke-width="6.0" stroke-linecap="round" stroke-linejoin="round" />
<path d="M 156.25 203.75 L 156.25 203.75 L 160.0 202.5 L 178.75 190.0 L 201.25 171.25 L 210.0 158.75 L 207.5 156.25 " stroke="black" fill="none" stroke-width="6.0" stroke-linecap="round" stroke-linejoin="round" />
<path d="M 185.0 158.75 L 185.0 160.0 L 183.75 168.75 L 185.0 192.5 L 185.0 215.0 L 182.5 226.25 " stroke="black" fill="none" stroke-width="6.0" stroke-linecap="round" stroke-linejoin="round" />
<path d="M 73.75 116.25 L 73.75 116.25 L 73.75 116.25 L 76.25 117.5 L 82.5 118.75 L 93.75 121.25 L 101.25 126.25 " stroke="black" fill="none" stroke-width="6.0" stroke-linecap="round" stroke-linejoin="round" />
<path d="M 87.5 152.5 L 87.5 152.5 L 87.5 153.75 L 87.5 155.0 L 93.75 155.0 L 100.0 157.5 L 103.75 161.25 L 103.75 168.75 L 95.0 180.0 L 88.75 187.5 L 86.25 191.25 L 87.5 192.5 L 93.75 192.5 L 100.0 192.5 L 106.25 195.0 L 107.5 200.0 L 106.25 210.0 L 100.0 222.5 L 92.5 231.25 L 85.0 236.25 L 77.5 236.25 L 73.75 235.0 L 73.75 232.5 L 73.75 231.25 L 78.75 231.25 L 86.25 230.0 L 96.25 232.5 L 110.0 237.5 L 132.5 243.75 L 158.75 248.75 L 185.0 250.0 L 208.75 253.75 L 227.5 256.25 L 242.5 256.25 L 256.25 255.0 L 267.5 252.5 L 275.0 246.25 " stroke="black" fill="none" stroke-width="6.0" stroke-linecap="round" stroke-linejoin="round" />
</svg>