<svg xmlns="http://www.w3.org/2000/svg" width="300" height="300" viewBox="0 0 300 300">
<path d="M 152.5 76.25 L 148.75 75.0 L 146.25 73.75 L 150.0 75.0 L 161.25 77.5 L 175.0 80.0 L 187.5 81.25 L 193.75 82.5 L 192.5 85.0 L 181.25 90.0 L 167.5 97.5 L 156.25 105.0 L 148.75 110.0 L 147.5 112.5 L 148.75 112.5 L 155.0 113.75 L 163.75 113.75 L 173.75 113.75 L 180.0 113.75 L 181.25 113.75 L 177.5 115.0 L 173.75 117.5 " stroke="black" fill="none" stroke-width="6.0" stroke-linecap="round" stroke-linejoin="round" />
<path d="M 137.5 135.0 L 136.25 135.0 L 133.75 132.5 L 133.75 132.5 L 133.75 142.5 L 137.5 175.0 L 143.75 210.0 L 147.5 223.75 L 150.0 222.5 L 150.0 212.5 " stroke="black" fill="none" stroke-width="6.0" stroke-linecap="round" stroke-linejoin="round" />
<path d="M 142.5 143.75 L 141.25 143.75 L 137.5 143.75 L 137.5 143.75 L 147.5 141.25 L 166.25 132.5 L 190.0 123.75 L 206.25 120.0 L 212.5 136.25 L 213.75 166.25 L 212.5 197.5 L 211.25 215.0 L 211.25 220.0 L 210.0 221.25 L 208.75 218.75 L 206.25 211.25 L 202.5 200.0 L 196.25 188.75 L 191.25 182.5 " stroke="black" fill="none" stroke-width="6.0" stroke-linecap="round" stroke-linejoin="round" />
<path d="M 155.0 171.25 L 148.75 173.75 L 143.75 176.25 L 145.0 176.25 L 155.0 167.5 L 171.25 155.0 L 187.5 143.75 L 196.25 137.5 L 196.25 137.5 " stroke="black" fill="none" stroke-width="6.0" stroke-linecap="round" stroke-linejoin="round" />
<path d="M 157.5 186.25 L 156.25 187.5 L 153.75 190.0 L 157.5 186.25 L 171.25 173.75 L 185.0 158.75 L 193.75 147.5 L 192.5 143.75 L 186.25 143.75 L 178.75 143.75 L 172.5 141.25 L 167.5 141.25 L 166.25 142.5 L 167.5 158.75 L 168.75 186.25 L 170.0 208.75 L 168.75 213.75 " stroke="black" fill="none" stroke-width="6.0" stroke-linecap="round" stroke-linejoin="round" />
<path d="M 98.75 113.75 L 97.5 115.0 L 95.0 116.25 L 95.0 117.5 L 96.25 117.5 L 102.5 118.75 L 106.25 120.0 " stroke="black" fill="none" stroke-width="6.0" stroke-linecap="round" stroke-linejoin="round" />
<path d="M 92.5 143.75 L 90.0 147.5 L 88.75 148.75 L 92.5 148.75 L 100.0 148.75 L 106.25 148.75 L 108.75 151.25 L 107.5 157.5 L 101.25 165.0 L 95.0 172.5 L 91.25 178.75 L 91.25 182.5 L 93.75 183.75 L 100.0 183.75 L 106.25 183.75 L 110.0 187.5 L 110.0 195.0 L 107.5 203.75 L 102.5 211.25 L 95.0 220.0 L 88.75 225.0 L 81.25 227.5 L 76.25 227.5 L 75.0 226.25 L 75.0 225.0 L 75.0 225.0 L 76.25 225.0 L 80.0 223.75 L 85.0 222.5 L 91.25 222.5 L 97.5 225.0 L 106.25 230.0 L 117.5 235.0 L 133.75 241.25 L 150.0 243.75 L 167.5 247.5 L 188.75 250.0 L 206.25 250.0 L 222.5 245.0 L 228.75 242.5 " stroke="black" fill="none" stroke-width="6.0" stroke-linecap="round" stroke-linejoin="round" />
</svg>