<svg xmlns="http://www.w3.org/2000/svg" width="300" height="300" viewBox="0 0 300 300">
<path d="M 136.25 75.0 L 136.25 75.0 L 133.75 73.75 L 133.75 73.75 L 140.0 73.75 L 151.25 75.0 L 162.5 76.25 L 165.0 78.75 " stroke="black" fill="none" stroke-width="6.0" stroke-linecap="round" stroke-linejoin="round" />
<path d="M 98.75 100.0 L 98.75 100.0 L 97.5 101.25 L 97.5 103.75 L 105.0 111.25 L 113.75 122.5 L 117.5 130.0 L 117.5 131.25 L 115.0 127.5 L 112.5 122.5 L 108.75 117.5 L 105.0 113.75 L 102.5 112.5 L 102.5 111.25 L 110.0 110.0 L 131.25 103.75 L 161.25 93.75 L 186.25 88.75 L 192.5 88.75 L 191.25 91.25 L 183.75 97.5 L 173.75 102.5 L 163.75 106.25 L 161.25 107.5 " stroke="black" fill="none" stroke-width="6.0" stroke-linecap="round" stroke-linejoin="round" />
<path d="M 131.25 136.25 L 127.5 136.25 L 126.25 136.25 L 132.5 135.0 L 147.5 130.0 L 162.5 122.5 L 171.25 113.75 L 171.25 108.75 L 170.0 108.75 " stroke="black" fill="none" stroke-width="6.0" stroke-linecap="round" stroke-linejoin="round" />
<path d="M 145.0 118.75 L 142.5 121.25 L 137.5 130.0 L 132.5 146.25 L 123.75 167.5 L 116.25 180.0 L 111.25 180.0 " stroke="black" fill="none" stroke-width="6.0" stroke-linecap="round" stroke-linejoin="round" />
<path d="M 143.75 136.25 L 146.25 136.25 L 153.75 136.25 L 167.5 142.5 L 185.0 150.0 L 193.75 156.25 L 187.5 161.25 " stroke="black" fill="none" stroke-width="6.0" stroke-linecap="round" stroke-linejoin="round" />
<path d="M 82.5 198.75 L 80.0 200.0 L 82.5 200.0 L 102.5 192.5 L 142.5 177.5 L 182.5 157.5 L 205.0 146.25 L 210.0 142.5 L 203.75 142.5 " stroke="black" fill="none" stroke-width="6.0" stroke-linecap="round" stroke-linejoin="round" />
<path d="M 121.25 195.0 L 120.0 197.5 L 116.25 210.0 L 117.5 230.0 L 122.5 247.5 L 126.25 251.25 L 126.25 252.5 L 125.0 250.0 L 121.25 245.0 L 118.75 237.5 L 117.5 227.5 L 123.75 218.75 L 133.75 208.75 L 146.25 205.0 L 153.75 208.75 L 152.5 221.25 L 145.0 236.25 L 136.25 245.0 L 130.0 247.5 L 131.25 240.0 L 132.5 237.5 " stroke="black" fill="none" stroke-width="6.0" stroke-linecap="round" stroke-linejoin="round" />
<path d="M 187.5 161.25 L 187.5 161.25 L 187.5 160.0 L 188.75 165.0 L 191.25 188.75 L 191.25 225.0 L 192.5 253.75 L 192.5 266.25 L 192.5 270.0 L 192.5 271.25 L 191.25 271.25 L 188.75 272.5 L 185.0 272.5 L 176.25 272.5 L 161.25 272.5 L 142.5 272.5 L 123.75 270.0 " stroke="black" fill="none" stroke-width="6.0" stroke-linecap="round" stroke-linejoin="round" />
</svg>