<svg xmlns="http://www.w3.org/2000/svg" width="300" height="300" viewBox="0 0 300 300">
<path d="M 141.25 115.0 L 136.25 115.0 L 130.0 112.5 L 130.0 106.25 L 141.25 96.25 L 157.5 87.5 L 177.5 83.75 L 193.75 87.5 L 200.0 100.0 L 197.5 121.25 L 185.0 142.5 L 171.25 157.5 L 160.0 170.0 L 156.25 176.25 L 157.5 182.5 L 161.25 187.5 L 165.0 192.5 L 167.5 196.25 L 170.0 200.0 L 170.0 201.25 L 170.0 201.25 L 170.0 201.25 L 170.0 201.25 L 168.75 198.75 L 166.25 196.25 " stroke="black" fill="none" stroke-width="6.0" stroke-linecap="round" stroke-linejoin="round" />
<path d="M 152.5 225.0 L 152.5 225.0 L 151.25 225.0 L 151.25 225.0 L 152.5 225.0 L 156.25 226.25 L 158.75 227.5 L 160.0 230.0 L 160.0 231.25 L 158.75 232.5 L 155.0 232.5 L 153.75 232.5 L 153.75 228.75 L 153.75 223.75 L 156.25 220.0 L 160.0 218.75 L 163.75 218.75 L 165.0 222.5 L 163.75 226.25 L 160.0 231.25 L 155.0 232.5 L 150.0 232.5 L 147.5 231.25 L 147.5 227.5 L 147.5 223.75 L 150.0 220.0 L 153.75 220.0 L 155.0 220.0 L 156.25 222.5 L 156.25 226.25 L 156.25 227.5 L 155.0 228.75 " stroke="black" fill="none" stroke-width="6.0" stroke-linecap="round" stroke-linejoin="round" />
</svg>