<svg xmlns="http://www.w3.org/2000/svg" width="300" height="300" viewBox="0 0 300 300">
<path d="M 103.75 81.25 L 103.75 81.25 L 102.5 81.25 L 108.75 81.25 L 133.75 77.5 L 166.25 71.25 L 187.5 66.25 L 192.5 65.0 L 185.0 67.5 L 166.25 75.0 L 161.25 77.5 " stroke="black" fill="none" stroke-width="6.0" stroke-linecap="round" stroke-linejoin="round" />
<path d="M 85.0 106.25 L 83.75 106.25 L 83.75 106.25 L 85.0 113.75 L 91.25 130.0 L 97.5 147.5 L 98.75 155.0 L 98.75 155.0 " stroke="black" fill="none" stroke-width="6.0" stroke-linecap="round" stroke-linejoin="round" />
<path d="M 95.0 120.0 L 95.0 120.0 L 95.0 120.0 L 106.25 117.5 L 145.0 108.75 L 190.0 102.5 L 215.0 100.0 L 221.25 102.5 L 217.5 110.0 L 202.5 121.25 L 186.25 130.0 L 166.25 132.5 " stroke="black" fill="none" stroke-width="6.0" stroke-linecap="round" stroke-linejoin="round" />
<path d="M 147.5 85.0 L 147.5 85.0 L 147.5 83.75 L 147.5 83.75 L 147.5 95.0 L 147.5 113.75 L 151.25 126.25 L 151.25 126.25 " stroke="black" fill="none" stroke-width="6.0" stroke-linecap="round" stroke-linejoin="round" />
<path d="M 180.0 83.75 L 180.0 80.0 L 176.25 83.75 L 166.25 100.0 L 153.75 125.0 L 142.5 141.25 " stroke="black" fill="none" stroke-width="6.0" stroke-linecap="round" stroke-linejoin="round" />
<path d="M 113.75 93.75 L 113.75 93.75 L 111.25 92.5 L 110.0 93.75 L 111.25 110.0 L 118.75 135.0 L 125.0 150.0 " stroke="black" fill="none" stroke-width="6.0" stroke-linecap="round" stroke-linejoin="round" />
<path d="M 102.5 167.5 L 100.0 168.75 L 97.5 170.0 L 97.5 171.25 L 110.0 170.0 L 128.75 165.0 L 143.75 158.75 L 148.75 153.75 L 146.25 153.75 " stroke="black" fill="none" stroke-width="6.0" stroke-linecap="round" stroke-linejoin="round" />
<path d="M 111.25 175.0 L 110.0 178.75 L 108.75 185.0 L 108.75 200.0 L 112.5 211.25 L 115.0 217.5 L 116.25 216.25 L 116.25 215.0 " stroke="black" fill="none" stroke-width="6.0" stroke-linecap="round" stroke-linejoin="round" />
<path d="M 107.5 192.5 L 103.75 192.5 L 102.5 192.5 L 102.5 192.5 L 113.75 191.25 L 133.75 187.5 L 151.25 183.75 L 157.5 180.0 " stroke="black" fill="none" stroke-width="6.0" stroke-linecap="round" stroke-linejoin="round" />
<path d="M 163.75 156.25 L 163.75 156.25 L 163.75 156.25 L 165.0 156.25 L 176.25 158.75 L 192.5 163.75 L 202.5 171.25 L 205.0 181.25 L 196.25 191.25 L 183.75 197.5 L 166.25 201.25 L 148.75 201.25 " stroke="black" fill="none" stroke-width="6.0" stroke-linecap="round" stroke-linejoin="round" />
<path d="M 146.25 191.25 L 146.25 190.0 L 147.5 188.75 L 153.75 185.0 L 170.0 181.25 L 188.75 178.75 L 197.5 177.5 L 195.0 181.25 " stroke="black" fill="none" stroke-width="6.0" stroke-linecap="round" stroke-linejoin="round" />
<path d="M 116.25 220.0 L 115.0 220.0 L 115.0 221.25 L 122.5 220.0 L 143.75 212.5 L 171.25 201.25 L 191.25 193.75 L 193.75 191.25 L 192.5 191.25 " stroke="black" fill="none" stroke-width="6.0" stroke-linecap="round" stroke-linejoin="round" />
<path d="M 147.5 212.5 L 142.5 217.5 L 135.0 232.5 L 128.75 250.0 L 127.5 261.25 L 132.5 263.75 L 137.5 260.0 " stroke="black" fill="none" stroke-width="6.0" stroke-linecap="round" stroke-linejoin="round" />
<path d="M 170.0 207.5 L 168.75 208.75 L 167.5 213.75 L 168.75 230.0 L 177.5 247.5 L 196.25 257.5 L 213.75 258.75 L 227.5 256.25 L 240.0 255.0 L 246.25 253.75 L 246.25 253.75 L 246.25 253.75 L 246.25 253.75 L 247.5 250.0 L 250.0 238.75 L 252.5 213.75 L 252.5 182.5 " stroke="black" fill="none" stroke-width="6.0" stroke-linecap="round" stroke-linejoin="round" />
</svg>