<svg xmlns="http://www.w3.org/2000/svg" width="300" height="300" viewBox="0 0 300 300">
<path d="M 132.5 72.5 L 132.5 70.0 L 131.25 66.25 L 138.75 66.25 L 151.25 68.75 L 162.5 76.25 L 165.0 83.75 " stroke="black" fill="none" stroke-width="6.0" stroke-linecap="round" stroke-linejoin="round" />
<path d="M 91.25 97.5 L 90.0 100.0 L 88.75 106.25 L 88.75 127.5 L 90.0 152.5 L 93.75 163.75 L 93.75 163.75 " stroke="black" fill="none" stroke-width="6.0" stroke-linecap="round" stroke-linejoin="round" />
<path d="M 96.25 110.0 L 96.25 110.0 L 96.25 110.0 L 112.5 107.5 L 151.25 100.0 L 191.25 95.0 L 210.0 96.25 L 212.5 103.75 L 202.5 120.0 L 185.0 136.25 L 163.75 143.75 L 157.5 145.0 " stroke="black" fill="none" stroke-width="6.0" stroke-linecap="round" stroke-linejoin="round" />
<path d="M 130.0 137.5 L 128.75 137.5 L 127.5 136.25 L 126.25 137.5 L 128.75 151.25 L 133.75 171.25 L 137.5 185.0 L 138.75 187.5 L 138.75 181.25 " stroke="black" fill="none" stroke-width="6.0" stroke-linecap="round" stroke-linejoin="round" />
<path d="M 132.5 145.0 L 130.0 141.25 L 128.75 140.0 L 128.75 140.0 L 138.75 140.0 L 153.75 140.0 L 167.5 141.25 L 172.5 143.75 L 165.0 153.75 L 151.25 167.5 L 135.0 181.25 L 125.0 188.75 L 122.5 190.0 L 132.5 187.5 L 147.5 181.25 L 161.25 173.75 L 171.25 171.25 L 172.5 175.0 L 162.5 190.0 L 147.5 206.25 L 135.0 220.0 L 120.0 231.25 L 106.25 236.25 L 98.75 236.25 L 98.75 233.75 L 100.0 228.75 L 101.25 227.5 L 102.5 227.5 L 108.75 227.5 L 118.75 233.75 L 132.5 243.75 L 146.25 256.25 L 155.0 265.0 L 157.5 268.75 L 158.75 268.75 L 157.5 266.25 L 152.5 261.25 L 146.25 253.75 L 138.75 247.5 L 130.0 241.25 L 123.75 237.5 L 120.0 236.25 L 120.0 236.25 L 130.0 233.75 L 148.75 225.0 L 173.75 215.0 L 197.5 207.5 L 207.5 207.5 L 208.75 211.25 L 203.75 221.25 L 193.75 236.25 L 182.5 248.75 L 168.75 261.25 L 158.75 267.5 L 157.5 268.75 L 160.0 268.75 L 170.0 263.75 L 187.5 255.0 L 205.0 246.25 L 217.5 235.0 L 220.0 228.75 " stroke="black" fill="none" stroke-width="6.0" stroke-linecap="round" stroke-linejoin="round" />
</svg>