<svg xmlns="http://www.w3.org/2000/svg" width="300" height="300" viewBox="0 0 300 300">
<path d="M 140.0 63.75 L 140.0 63.75 L 140.0 63.75 L 140.0 63.75 L 145.0 63.75 L 157.5 71.25 L 157.5 72.5 " stroke="black" fill="none" stroke-width="6.0" stroke-linecap="round" stroke-linejoin="round" />
<path d="M 93.75 87.5 L 92.5 87.5 L 91.25 87.5 L 91.25 87.5 L 91.25 92.5 L 91.25 112.5 L 90.0 132.5 L 88.75 137.5 " stroke="black" fill="none" stroke-width="6.0" stroke-linecap="round" stroke-linejoin="round" />
<path d="M 88.75 105.0 L 88.75 105.0 L 90.0 103.75 L 106.25 100.0 L 147.5 92.5 L 193.75 87.5 L 220.0 87.5 L 228.75 95.0 L 221.25 106.25 L 203.75 117.5 L 191.25 125.0 " stroke="black" fill="none" stroke-width="6.0" stroke-linecap="round" stroke-linejoin="round" />
<path d="M 135.0 125.0 L 133.75 126.25 L 132.5 128.75 L 132.5 138.75 L 133.75 153.75 L 137.5 165.0 L 140.0 167.5 " stroke="black" fill="none" stroke-width="6.0" stroke-linecap="round" stroke-linejoin="round" />
<path d="M 135.0 136.25 L 133.75 136.25 L 133.75 136.25 L 142.5 135.0 L 160.0 133.75 L 176.25 133.75 L 182.5 136.25 L 173.75 145.0 L 157.5 153.75 L 142.5 163.75 L 130.0 172.5 L 127.5 173.75 L 133.75 173.75 L 150.0 168.75 L 165.0 162.5 L 180.0 160.0 L 185.0 162.5 L 176.25 175.0 L 158.75 192.5 L 140.0 206.25 L 122.5 217.5 L 105.0 223.75 L 96.25 223.75 L 96.25 221.25 L 97.5 218.75 L 98.75 216.25 L 103.75 216.25 L 113.75 220.0 L 130.0 233.75 L 147.5 252.5 L 162.5 267.5 L 170.0 270.0 L 170.0 270.0 L 165.0 265.0 L 156.25 257.5 L 146.25 251.25 L 135.0 245.0 L 123.75 238.75 L 120.0 235.0 L 121.25 231.25 L 137.5 226.25 L 161.25 217.5 L 192.5 210.0 L 215.0 205.0 L 223.75 206.25 L 222.5 213.75 L 210.0 228.75 L 195.0 243.75 L 178.75 256.25 L 172.5 260.0 L 176.25 258.75 L 192.5 250.0 L 207.5 237.5 L 215.0 230.0 " stroke="black" fill="none" stroke-width="6.0" stroke-linecap="round" stroke-linejoin="round" />
</svg>