<svg xmlns="http://www.w3.org/2000/svg" width="300" height="300" viewBox="0 0 300 300">
<path d="M 127.5 72.5 L 127.5 72.5 L 127.5 71.25 L 135.0 70.0 L 147.5 70.0 L 158.75 71.25 L 160.0 75.0 " stroke="black" fill="none" stroke-width="6.0" stroke-linecap="round" stroke-linejoin="round" />
<path d="M 75.0 101.25 L 75.0 102.5 L 76.25 103.75 L 85.0 116.25 L 92.5 137.5 L 97.5 152.5 L 97.5 153.75 " stroke="black" fill="none" stroke-width="6.0" stroke-linecap="round" stroke-linejoin="round" />
<path d="M 88.75 111.25 L 88.75 111.25 L 88.75 111.25 L 97.5 108.75 L 130.0 100.0 L 175.0 92.5 L 208.75 88.75 L 217.5 90.0 L 211.25 100.0 L 195.0 113.75 L 172.5 127.5 L 150.0 135.0 " stroke="black" fill="none" stroke-width="6.0" stroke-linecap="round" stroke-linejoin="round" />
<path d="M 118.75 128.75 L 117.5 128.75 L 116.25 131.25 L 116.25 143.75 L 121.25 162.5 L 128.75 176.25 L 132.5 178.75 L 131.25 167.5 L 130.0 157.5 L 127.5 147.5 L 125.0 140.0 L 123.75 135.0 L 128.75 132.5 L 142.5 132.5 L 157.5 136.25 L 165.0 142.5 L 162.5 151.25 L 151.25 161.25 L 135.0 172.5 L 122.5 180.0 L 117.5 182.5 L 130.0 180.0 L 151.25 171.25 L 173.75 161.25 L 188.75 158.75 L 187.5 163.75 L 171.25 181.25 L 151.25 197.5 L 133.75 210.0 L 111.25 220.0 L 93.75 226.25 L 90.0 227.5 L 90.0 227.5 L 92.5 227.5 L 101.25 231.25 L 117.5 241.25 L 137.5 253.75 L 153.75 265.0 L 166.25 271.25 L 170.0 272.5 L 170.0 272.5 L 166.25 270.0 L 156.25 263.75 L 145.0 257.5 L 130.0 250.0 L 115.0 243.75 L 108.75 241.25 L 112.5 240.0 L 136.25 231.25 L 166.25 217.5 L 202.5 203.75 L 226.25 198.75 L 232.5 200.0 L 230.0 208.75 L 213.75 223.75 L 196.25 241.25 L 176.25 260.0 L 168.75 270.0 L 180.0 267.5 L 202.5 255.0 L 228.75 233.75 L 245.0 216.25 " stroke="black" fill="none" stroke-width="6.0" stroke-linecap="round" stroke-linejoin="round" />
</svg>