<svg xmlns="http://www.w3.org/2000/svg" width="300" height="300" viewBox="0 0 300 300">
<path d="M 130.0 77.5 L 130.0 77.5 L 130.0 76.25 L 132.5 77.5 L 141.25 82.5 L 150.0 90.0 L 151.25 92.5 " stroke="black" fill="none" stroke-width="6.0" stroke-linecap="round" stroke-linejoin="round" />
<path d="M 83.75 96.25 L 82.5 97.5 L 81.25 103.75 L 81.25 122.5 L 80.0 147.5 L 78.75 158.75 L 77.5 160.0 " stroke="black" fill="none" stroke-width="6.0" stroke-linecap="round" stroke-linejoin="round" />
<path d="M 87.5 121.25 L 96.25 120.0 L 123.75 117.5 L 162.5 111.25 L 198.75 108.75 L 216.25 110.0 L 220.0 112.5 L 215.0 117.5 L 200.0 126.25 L 182.5 132.5 L 177.5 133.75 " stroke="black" fill="none" stroke-width="6.0" stroke-linecap="round" stroke-linejoin="round" />
<path d="M 123.75 138.75 L 120.0 141.25 L 118.75 148.75 L 118.75 167.5 L 122.5 187.5 L 126.25 195.0 L 127.5 193.75 L 127.5 192.5 " stroke="black" fill="none" stroke-width="6.0" stroke-linecap="round" stroke-linejoin="round" />
<path d="M 115.0 155.0 L 115.0 152.5 L 115.0 150.0 L 126.25 147.5 L 143.75 147.5 L 162.5 146.25 L 170.0 147.5 L 166.25 155.0 L 153.75 167.5 L 137.5 181.25 L 120.0 191.25 L 111.25 196.25 L 115.0 196.25 L 131.25 191.25 L 150.0 183.75 L 167.5 177.5 L 175.0 175.0 L 171.25 177.5 L 157.5 190.0 L 141.25 203.75 L 121.25 217.5 L 101.25 230.0 L 95.0 231.25 L 95.0 231.25 L 98.75 228.75 L 102.5 227.5 L 110.0 230.0 L 121.25 240.0 L 133.75 253.75 L 143.75 265.0 L 147.5 268.75 L 147.5 268.75 L 145.0 263.75 L 140.0 256.25 L 131.25 248.75 L 120.0 241.25 L 108.75 236.25 L 105.0 233.75 L 105.0 232.5 L 117.5 232.5 L 137.5 227.5 L 161.25 221.25 L 186.25 213.75 L 200.0 211.25 L 202.5 213.75 L 196.25 222.5 L 182.5 236.25 L 165.0 250.0 L 150.0 260.0 L 147.5 262.5 L 152.5 261.25 L 166.25 255.0 L 183.75 246.25 L 201.25 236.25 L 203.75 235.0 " stroke="black" fill="none" stroke-width="6.0" stroke-linecap="round" stroke-linejoin="round" />
</svg>