<svg xmlns="http://www.w3.org/2000/svg" width="300" height="300" viewBox="0 0 300 300">
<path d="M 86.25 82.5 L 85.0 82.5 L 83.75 82.5 L 83.75 82.5 L 93.75 83.75 L 111.25 85.0 L 126.25 86.25 L 132.5 86.25 L 125.0 90.0 L 108.75 97.5 L 91.25 106.25 L 75.0 116.25 L 67.5 122.5 L 68.75 122.5 L 82.5 118.75 L 100.0 108.75 L 118.75 98.75 L 130.0 93.75 L 125.0 92.5 " stroke="black" fill="none" stroke-width="6.0" stroke-linecap="round" stroke-linejoin="round" />
<path d="M 76.25 92.5 L 73.75 95.0 L 70.0 106.25 L 68.75 141.25 L 66.25 177.5 L 63.75 202.5 L 58.75 212.5 L 56.25 213.75 " stroke="black" fill="none" stroke-width="6.0" stroke-linecap="round" stroke-linejoin="round" />
<path d="M 70.0 148.75 L 71.25 148.75 L 73.75 148.75 L 87.5 146.25 L 108.75 142.5 L 131.25 135.0 L 140.0 128.75 L 133.75 128.75 " stroke="black" fill="none" stroke-width="6.0" stroke-linecap="round" stroke-linejoin="round" />
<path d="M 91.25 128.75 L 88.75 135.0 L 88.75 146.25 L 88.75 163.75 L 91.25 176.25 L 91.25 176.25 " stroke="black" fill="none" stroke-width="6.0" stroke-linecap="round" stroke-linejoin="round" />
<path d="M 117.5 112.5 L 117.5 113.75 L 115.0 123.75 L 110.0 143.75 L 101.25 163.75 L 90.0 181.25 L 80.0 190.0 L 78.75 190.0 L 81.25 188.75 L 92.5 181.25 L 106.25 172.5 L 118.75 165.0 L 123.75 165.0 L 117.5 178.75 L 103.75 200.0 L 91.25 218.75 L 83.75 230.0 L 82.5 231.25 L 86.25 220.0 L 92.5 207.5 L 98.75 197.5 L 105.0 191.25 L 110.0 191.25 L 118.75 200.0 L 131.25 213.75 L 142.5 227.5 L 152.5 235.0 L 153.75 235.0 " stroke="black" fill="none" stroke-width="6.0" stroke-linecap="round" stroke-linejoin="round" />
<path d="M 165.0 81.25 L 165.0 80.0 L 163.75 78.75 L 163.75 83.75 L 162.5 105.0 L 162.5 128.75 L 161.25 138.75 " stroke="black" fill="none" stroke-width="6.0" stroke-linecap="round" stroke-linejoin="round" />
<path d="M 158.75 92.5 L 158.75 91.25 L 158.75 90.0 L 161.25 87.5 L 172.5 85.0 L 190.0 85.0 L 201.25 87.5 L 203.75 95.0 L 197.5 112.5 L 183.75 136.25 L 177.5 148.75 L 177.5 151.25 L 186.25 147.5 L 198.75 138.75 L 211.25 126.25 L 220.0 116.25 L 218.75 115.0 L 217.5 117.5 " stroke="black" fill="none" stroke-width="6.0" stroke-linecap="round" stroke-linejoin="round" />
<path d="M 165.0 186.25 L 165.0 187.5 L 166.25 187.5 L 181.25 180.0 L 201.25 165.0 L 213.75 155.0 L 215.0 155.0 L 207.5 171.25 L 198.75 191.25 L 188.75 210.0 L 176.25 227.5 L 165.0 236.25 L 163.75 236.25 " stroke="black" fill="none" stroke-width="6.0" stroke-linecap="round" stroke-linejoin="round" />
<path d="M 161.25 186.25 L 158.75 185.0 L 158.75 185.0 L 162.5 188.75 L 175.0 203.75 L 192.5 223.75 L 210.0 246.25 L 223.75 256.25 L 236.25 257.5 L 248.75 253.75 " stroke="black" fill="none" stroke-width="6.0" stroke-linecap="round" stroke-linejoin="round" />
</svg>