<svg xmlns="http://www.w3.org/2000/svg" width="300" height="300" viewBox="0 0 300 300">
<path d="M 78.75 95.0 L 78.75 95.0 L 76.25 96.25 L 76.25 103.75 L 80.0 137.5 L 81.25 188.75 L 77.5 221.25 L 72.5 232.5 L 66.25 231.25 L 65.0 226.25 " stroke="black" fill="none" stroke-width="6.0" stroke-linecap="round" stroke-linejoin="round" />
<path d="M 80.0 110.0 L 78.75 107.5 L 80.0 102.5 L 88.75 95.0 L 100.0 91.25 L 111.25 93.75 L 118.75 106.25 L 122.5 136.25 L 123.75 177.5 L 125.0 210.0 L 125.0 222.5 L 126.25 226.25 L 126.25 226.25 L 122.5 221.25 L 117.5 212.5 L 110.0 201.25 L 101.25 188.75 L 97.5 182.5 " stroke="black" fill="none" stroke-width="6.0" stroke-linecap="round" stroke-linejoin="round" />
<path d="M 82.5 148.75 L 82.5 148.75 L 80.0 150.0 L 78.75 151.25 L 86.25 147.5 L 98.75 141.25 L 112.5 132.5 L 118.75 127.5 " stroke="black" fill="none" stroke-width="6.0" stroke-linecap="round" stroke-linejoin="round" />
<path d="M 86.25 178.75 L 85.0 182.5 L 85.0 185.0 L 95.0 177.5 L 112.5 160.0 L 136.25 138.75 " stroke="black" fill="none" stroke-width="6.0" stroke-linecap="round" stroke-linejoin="round" />
<path d="M 151.25 73.75 L 150.0 73.75 L 147.5 75.0 L 147.5 82.5 L 151.25 102.5 L 157.5 125.0 L 161.25 135.0 L 160.0 136.25 L 158.75 133.75 " stroke="black" fill="none" stroke-width="6.0" stroke-linecap="round" stroke-linejoin="round" />
<path d="M 153.75 83.75 L 152.5 83.75 L 151.25 83.75 L 152.5 83.75 L 166.25 82.5 L 183.75 82.5 L 198.75 87.5 L 203.75 95.0 L 198.75 103.75 L 188.75 113.75 L 176.25 121.25 L 167.5 123.75 " stroke="black" fill="none" stroke-width="6.0" stroke-linecap="round" stroke-linejoin="round" />
<path d="M 155.0 108.75 L 155.0 108.75 L 155.0 108.75 L 158.75 106.25 L 171.25 102.5 L 187.5 95.0 L 198.75 88.75 L 198.75 87.5 " stroke="black" fill="none" stroke-width="6.0" stroke-linecap="round" stroke-linejoin="round" />
<path d="M 158.75 126.25 L 158.75 126.25 L 158.75 127.5 L 162.5 128.75 L 173.75 125.0 L 190.0 116.25 L 202.5 107.5 L 203.75 105.0 " stroke="black" fill="none" stroke-width="6.0" stroke-linecap="round" stroke-linejoin="round" />
<path d="M 153.75 155.0 L 152.5 156.25 L 153.75 156.25 L 165.0 152.5 L 186.25 143.75 L 205.0 135.0 L 212.5 131.25 L 210.0 133.75 L 198.75 145.0 L 183.75 162.5 L 166.25 181.25 L 150.0 196.25 L 145.0 202.5 L 145.0 202.5 L 151.25 198.75 L 161.25 193.75 L 175.0 187.5 L 190.0 181.25 L 206.25 175.0 L 221.25 172.5 L 233.75 173.75 L 240.0 182.5 L 238.75 195.0 L 227.5 208.75 L 216.25 222.5 L 203.75 233.75 L 200.0 236.25 " stroke="black" fill="none" stroke-width="6.0" stroke-linecap="round" stroke-linejoin="round" />
<path d="M 205.0 182.5 L 205.0 182.5 L 203.75 187.5 L 200.0 207.5 L 195.0 233.75 L 193.75 240.0 " stroke="black" fill="none" stroke-width="6.0" stroke-linecap="round" stroke-linejoin="round" />
<path d="M 187.5 178.75 L 182.5 185.0 L 177.5 197.5 L 172.5 220.0 L 165.0 247.5 L 162.5 256.25 " stroke="black" fill="none" stroke-width="6.0" stroke-linecap="round" stroke-linejoin="round" />
</svg>