<svg xmlns="http://www.w3.org/2000/svg" width="300" height="300" viewBox="0 0 300 300">
<path d="M 57.5 117.5 L 57.5 117.5 L 58.75 117.5 L 61.25 117.5 L 65.0 121.25 L 70.0 133.75 L 73.75 145.0 L 80.0 150.0 L 91.25 147.5 L 105.0 138.75 L 118.75 128.75 L 126.25 121.25 L 126.25 118.75 L 117.5 118.75 L 107.5 120.0 L 100.0 120.0 L 95.0 120.0 L 91.25 118.75 L 91.25 120.0 L 92.5 130.0 L 97.5 160.0 L 102.5 212.5 L 103.75 245.0 L 103.75 251.25 L 102.5 251.25 L 101.25 250.0 L 97.5 245.0 L 90.0 237.5 L 80.0 230.0 L 70.0 222.5 L 62.5 217.5 L 61.25 217.5 L 67.5 216.25 L 82.5 208.75 L 100.0 195.0 L 122.5 166.25 L 130.0 151.25 " stroke="black" fill="none" stroke-width="6.0" stroke-linecap="round" stroke-linejoin="round" />
<path d="M 161.25 90.0 L 161.25 90.0 L 158.75 92.5 L 155.0 98.75 L 151.25 116.25 L 148.75 132.5 L 150.0 136.25 L 158.75 136.25 L 178.75 131.25 L 202.5 123.75 L 221.25 120.0 L 233.75 118.75 L 237.5 131.25 L 235.0 163.75 L 225.0 203.75 L 216.25 228.75 L 212.5 238.75 L 208.75 238.75 L 205.0 232.5 L 202.5 223.75 " stroke="black" fill="none" stroke-width="6.0" stroke-linecap="round" stroke-linejoin="round" />
<path d="M 172.5 140.0 L 171.25 140.0 L 166.25 150.0 L 158.75 181.25 L 150.0 212.5 L 147.5 221.25 L 146.25 216.25 " stroke="black" fill="none" stroke-width="6.0" stroke-linecap="round" stroke-linejoin="round" />
<path d="M 198.75 135.0 L 198.75 137.5 L 196.25 156.25 L 186.25 198.75 L 172.5 232.5 L 158.75 252.5 " stroke="black" fill="none" stroke-width="6.0" stroke-linecap="round" stroke-linejoin="round" />
</svg>