<svg xmlns="http://www.w3.org/2000/svg" width="300" height="300" viewBox="0 0 300 300">
<path d="M 95.0 107.5 L 96.25 103.75 L 98.75 100.0 L 100.0 100.0 L 101.25 101.25 L 98.75 116.25 L 88.75 143.75 L 71.25 176.25 L 52.5 195.0 L 42.5 195.0 " stroke="black" fill="none" stroke-width="6.0" stroke-linecap="round" stroke-linejoin="round" />
<path d="M 93.75 140.0 L 93.75 140.0 L 93.75 140.0 L 93.75 141.25 L 96.25 158.75 L 97.5 196.25 L 93.75 225.0 L 90.0 236.25 " stroke="black" fill="none" stroke-width="6.0" stroke-linecap="round" stroke-linejoin="round" />
<path d="M 147.5 91.25 L 143.75 91.25 L 141.25 91.25 L 146.25 91.25 L 162.5 90.0 L 186.25 90.0 L 205.0 90.0 L 212.5 95.0 L 208.75 102.5 L 195.0 115.0 L 178.75 126.25 L 157.5 136.25 L 137.5 142.5 L 126.25 146.25 L 126.25 146.25 L 136.25 145.0 L 152.5 140.0 L 175.0 132.5 L 198.75 123.75 L 213.75 120.0 L 215.0 121.25 L 205.0 132.5 L 187.5 147.5 L 161.25 161.25 L 138.75 180.0 L 125.0 192.5 L 125.0 192.5 L 140.0 187.5 L 162.5 173.75 L 188.75 156.25 L 208.75 142.5 L 213.75 135.0 L 207.5 132.5 " stroke="black" fill="none" stroke-width="6.0" stroke-linecap="round" stroke-linejoin="round" />
<path d="M 170.0 106.25 L 170.0 105.0 L 168.75 102.5 L 167.5 101.25 L 167.5 100.0 L 171.25 106.25 L 173.75 132.5 L 172.5 177.5 L 165.0 213.75 L 156.25 231.25 L 145.0 240.0 L 142.5 240.0 " stroke="black" fill="none" stroke-width="6.0" stroke-linecap="round" stroke-linejoin="round" />
</svg>