<svg xmlns="http://www.w3.org/2000/svg" width="300" height="300" viewBox="0 0 300 300">
<path d="M 132.5 62.5 L 132.5 63.75 L 131.25 66.25 L 130.0 67.5 L 131.25 70.0 L 136.25 72.5 L 138.75 73.75 L 146.25 76.25 L 156.25 78.75 L 163.75 80.0 L 163.75 81.25 " stroke="black" fill="none" stroke-width="6.0" stroke-linecap="round" stroke-linejoin="round" />
<path d="M 92.5 115.0 L 90.0 117.5 L 88.75 118.75 L 87.5 120.0 L 96.25 121.25 L 117.5 116.25 L 141.25 108.75 L 148.75 106.25 L 178.75 95.0 L 188.75 90.0 L 192.5 87.5 L 192.5 87.5 L 191.25 87.5 L 185.0 87.5 L 177.5 90.0 L 172.5 91.25 L 160.0 95.0 " stroke="black" fill="none" stroke-width="6.0" stroke-linecap="round" stroke-linejoin="round" />
<path d="M 107.5 142.5 L 106.25 146.25 L 100.0 158.75 L 100.0 167.5 L 101.25 178.75 L 103.75 188.75 L 106.25 197.5 L 108.75 203.75 L 110.0 207.5 L 111.25 207.5 L 112.5 208.75 L 112.5 208.75 L 107.5 202.5 L 103.75 196.25 L 102.5 191.25 L 101.25 190.0 L 98.75 185.0 L 98.75 183.75 L 98.75 182.5 L 98.75 181.25 L 100.0 180.0 L 103.75 178.75 L 112.5 176.25 L 118.75 175.0 L 140.0 166.25 L 150.0 163.75 L 178.75 153.75 L 206.25 145.0 L 213.75 145.0 L 213.75 150.0 L 212.5 152.5 L 203.75 166.25 L 197.5 175.0 L 191.25 182.5 L 185.0 188.75 L 177.5 193.75 L 170.0 196.25 L 165.0 196.25 " stroke="black" fill="none" stroke-width="6.0" stroke-linecap="round" stroke-linejoin="round" />
<path d="M 156.25 111.25 L 155.0 110.0 L 153.75 110.0 L 156.25 125.0 L 158.75 166.25 L 156.25 220.0 L 151.25 257.5 L 150.0 270.0 L 145.0 276.25 " stroke="black" fill="none" stroke-width="6.0" stroke-linecap="round" stroke-linejoin="round" />
</svg>