<svg xmlns="http://www.w3.org/2000/svg" width="300" height="300" viewBox="0 0 300 300">
<path d="M 108.75 101.25 L 108.75 102.5 L 111.25 102.5 L 125.0 100.0 L 150.0 91.25 L 168.75 82.5 L 178.75 76.25 L 175.0 77.5 " stroke="black" fill="none" stroke-width="6.0" stroke-linecap="round" stroke-linejoin="round" />
<path d="M 102.5 126.25 L 102.5 135.0 L 106.25 148.75 L 115.0 167.5 L 122.5 182.5 L 126.25 186.25 L 123.75 185.0 L 122.5 183.75 " stroke="black" fill="none" stroke-width="6.0" stroke-linecap="round" stroke-linejoin="round" />
<path d="M 103.75 152.5 L 102.5 151.25 L 101.25 150.0 L 106.25 146.25 L 126.25 140.0 L 153.75 132.5 L 178.75 125.0 L 191.25 123.75 L 191.25 128.75 L 183.75 140.0 L 170.0 152.5 L 156.25 163.75 L 150.0 167.5 " stroke="black" fill="none" stroke-width="6.0" stroke-linecap="round" stroke-linejoin="round" />
<path d="M 120.0 173.75 L 118.75 173.75 L 122.5 170.0 L 142.5 156.25 L 170.0 138.75 L 188.75 127.5 L 188.75 126.25 L 186.25 128.75 " stroke="black" fill="none" stroke-width="6.0" stroke-linecap="round" stroke-linejoin="round" />
<path d="M 135.0 186.25 L 133.75 187.5 L 131.25 188.75 L 140.0 182.5 L 156.25 167.5 L 177.5 148.75 L 188.75 133.75 L 188.75 131.25 " stroke="black" fill="none" stroke-width="6.0" stroke-linecap="round" stroke-linejoin="round" />
<path d="M 155.0 62.5 L 153.75 62.5 L 151.25 60.0 L 151.25 60.0 L 152.5 70.0 L 157.5 103.75 L 160.0 165.0 L 160.0 211.25 L 158.75 231.25 L 157.5 240.0 L 156.25 242.5 L 156.25 242.5 L 153.75 241.25 L 150.0 241.25 L 143.75 238.75 L 136.25 233.75 L 130.0 226.25 " stroke="black" fill="none" stroke-width="6.0" stroke-linecap="round" stroke-linejoin="round" />
<path d="M 158.75 173.75 L 148.75 190.0 L 138.75 205.0 L 125.0 222.5 L 112.5 236.25 L 103.75 238.75 L 98.75 232.5 L 98.75 223.75 " stroke="black" fill="none" stroke-width="6.0" stroke-linecap="round" stroke-linejoin="round" />
<path d="M 156.25 155.0 L 157.5 155.0 L 158.75 156.25 L 181.25 178.75 L 198.75 198.75 L 210.0 211.25 L 221.25 218.75 L 230.0 225.0 L 237.5 231.25 L 241.25 233.75 " stroke="black" fill="none" stroke-width="6.0" stroke-linecap="round" stroke-linejoin="round" />
</svg>