<svg xmlns="http://www.w3.org/2000/svg" width="300" height="300" viewBox="0 0 300 300">
<path d="M 103.75 100.0 L 102.5 100.0 L 98.75 100.0 L 102.5 100.0 L 123.75 95.0 L 155.0 85.0 L 181.25 75.0 L 190.0 68.75 L 186.25 67.5 L 170.0 75.0 L 156.25 81.25 " stroke="black" fill="none" stroke-width="6.0" stroke-linecap="round" stroke-linejoin="round" />
<path d="M 98.75 121.25 L 98.75 121.25 L 98.75 126.25 L 101.25 137.5 L 108.75 155.0 L 122.5 182.5 L 127.5 191.25 L 128.75 191.25 L 126.25 183.75 L 121.25 176.25 L 116.25 166.25 L 110.0 156.25 L 105.0 147.5 L 102.5 143.75 L 103.75 141.25 L 115.0 137.5 L 136.25 130.0 L 163.75 121.25 L 188.75 118.75 L 196.25 126.25 L 193.75 140.0 L 182.5 155.0 L 170.0 167.5 L 153.75 177.5 " stroke="black" fill="none" stroke-width="6.0" stroke-linecap="round" stroke-linejoin="round" />
<path d="M 117.5 172.5 L 115.0 172.5 L 112.5 171.25 L 123.75 163.75 L 146.25 150.0 L 167.5 136.25 L 177.5 128.75 L 173.75 130.0 L 158.75 142.5 L 155.0 145.0 " stroke="black" fill="none" stroke-width="6.0" stroke-linecap="round" stroke-linejoin="round" />
<path d="M 125.0 197.5 L 123.75 198.75 L 122.5 201.25 L 132.5 196.25 L 153.75 177.5 L 178.75 150.0 L 190.0 127.5 L 190.0 113.75 L 180.0 106.25 L 166.25 101.25 L 153.75 95.0 L 147.5 87.5 L 147.5 86.25 L 145.0 73.75 L 145.0 72.5 L 147.5 76.25 L 151.25 100.0 L 156.25 143.75 L 160.0 195.0 L 161.25 228.75 L 161.25 246.25 L 161.25 251.25 L 160.0 250.0 L 152.5 242.5 L 145.0 228.75 L 138.75 208.75 L 138.75 196.25 " stroke="black" fill="none" stroke-width="6.0" stroke-linecap="round" stroke-linejoin="round" />
<path d="M 153.75 170.0 L 153.75 171.25 L 147.5 180.0 L 136.25 197.5 L 121.25 218.75 L 102.5 238.75 L 90.0 247.5 L 88.75 241.25 L 88.75 237.5 " stroke="black" fill="none" stroke-width="6.0" stroke-linecap="round" stroke-linejoin="round" />
<path d="M 160.0 167.5 L 162.5 175.0 L 177.5 191.25 L 196.25 208.75 L 212.5 222.5 L 231.25 232.5 L 246.25 240.0 L 252.5 243.75 L 255.0 245.0 L 255.0 245.0 " stroke="black" fill="none" stroke-width="6.0" stroke-linecap="round" stroke-linejoin="round" />
</svg>