<svg xmlns="http://www.w3.org/2000/svg" width="300" height="300" viewBox="0 0 300 300">
<path d="M 108.75 97.5 L 108.75 98.75 L 108.75 100.0 L 118.75 101.25 L 141.25 101.25 L 165.0 92.5 L 183.75 82.5 L 188.75 75.0 L 185.0 73.75 L 170.0 77.5 " stroke="black" fill="none" stroke-width="6.0" stroke-linecap="round" stroke-linejoin="round" />
<path d="M 112.5 128.75 L 111.25 128.75 L 110.0 133.75 L 110.0 146.25 L 112.5 166.25 L 116.25 182.5 L 118.75 186.25 L 120.0 182.5 L 118.75 172.5 L 117.5 168.75 " stroke="black" fill="none" stroke-width="6.0" stroke-linecap="round" stroke-linejoin="round" />
<path d="M 112.5 143.75 L 112.5 142.5 L 111.25 141.25 L 113.75 140.0 L 130.0 135.0 L 155.0 130.0 L 181.25 126.25 L 193.75 128.75 L 193.75 137.5 L 182.5 150.0 L 166.25 162.5 L 151.25 170.0 L 143.75 172.5 " stroke="black" fill="none" stroke-width="6.0" stroke-linecap="round" stroke-linejoin="round" />
<path d="M 126.25 161.25 L 126.25 161.25 L 126.25 161.25 L 130.0 160.0 L 140.0 156.25 L 161.25 147.5 L 178.75 140.0 L 171.25 142.5 L 165.0 145.0 " stroke="black" fill="none" stroke-width="6.0" stroke-linecap="round" stroke-linejoin="round" />
<path d="M 121.25 192.5 L 118.75 195.0 L 117.5 196.25 L 132.5 190.0 L 155.0 173.75 L 181.25 152.5 L 192.5 140.0 L 188.75 136.25 L 177.5 136.25 L 166.25 133.75 L 156.25 127.5 L 152.5 115.0 L 151.25 101.25 L 151.25 91.25 L 151.25 82.5 L 150.0 78.75 L 150.0 76.25 L 150.0 76.25 L 150.0 80.0 L 152.5 95.0 L 156.25 128.75 L 158.75 183.75 L 160.0 227.5 L 160.0 246.25 L 160.0 250.0 L 157.5 250.0 L 153.75 245.0 L 148.75 232.5 L 145.0 220.0 " stroke="black" fill="none" stroke-width="6.0" stroke-linecap="round" stroke-linejoin="round" />
<path d="M 156.25 178.75 L 145.0 195.0 L 132.5 213.75 L 115.0 233.75 L 98.75 246.25 L 90.0 247.5 L 90.0 246.25 " stroke="black" fill="none" stroke-width="6.0" stroke-linecap="round" stroke-linejoin="round" />
<path d="M 166.25 176.25 L 170.0 178.75 L 182.5 187.5 L 201.25 201.25 L 218.75 213.75 L 237.5 227.5 L 253.75 240.0 L 260.0 246.25 L 260.0 247.5 " stroke="black" fill="none" stroke-width="6.0" stroke-linecap="round" stroke-linejoin="round" />
</svg>