<svg xmlns="http://www.w3.org/2000/svg" width="300" height="300" viewBox="0 0 300 300">
<path d="M 88.75 98.75 L 80.0 100.0 L 76.25 100.0 L 77.5 100.0 L 85.0 100.0 L 96.25 100.0 L 107.5 97.5 L 115.0 97.5 L 117.5 98.75 L 113.75 107.5 L 103.75 121.25 L 95.0 132.5 L 92.5 138.75 L 93.75 140.0 L 100.0 140.0 L 107.5 140.0 L 113.75 140.0 L 117.5 142.5 L 117.5 151.25 L 111.25 162.5 L 105.0 171.25 L 98.75 176.25 L 95.0 177.5 L 92.5 175.0 L 92.5 168.75 L 91.25 161.25 L 90.0 153.75 L 87.5 147.5 L 86.25 143.75 L 85.0 141.25 L 85.0 146.25 L 87.5 172.5 L 90.0 211.25 L 92.5 248.75 L 91.25 263.75 L 91.25 263.75 " stroke="black" fill="none" stroke-width="6.0" stroke-linecap="round" stroke-linejoin="round" />
<path d="M 141.25 96.25 L 137.5 97.5 L 138.75 97.5 L 148.75 93.75 L 165.0 88.75 L 182.5 82.5 L 186.25 80.0 L 191.25 75.0 L 183.75 75.0 " stroke="black" fill="none" stroke-width="6.0" stroke-linecap="round" stroke-linejoin="round" />
<path d="M 158.75 73.75 L 158.75 73.75 L 157.5 75.0 L 157.5 78.75 L 160.0 87.5 L 162.5 102.5 L 160.0 113.75 L 153.75 121.25 L 145.0 125.0 L 136.25 127.5 L 132.5 128.75 L 135.0 128.75 L 145.0 128.75 L 158.75 125.0 L 178.75 113.75 L 195.0 102.5 L 202.5 95.0 L 202.5 93.75 L 193.75 97.5 L 182.5 102.5 L 168.75 112.5 L 156.25 131.25 L 143.75 163.75 L 136.25 202.5 L 132.5 220.0 L 131.25 225.0 L 133.75 223.75 L 135.0 218.75 " stroke="black" fill="none" stroke-width="6.0" stroke-linecap="round" stroke-linejoin="round" />
<path d="M 177.5 127.5 L 177.5 127.5 L 181.25 127.5 L 195.0 130.0 L 212.5 132.5 L 227.5 135.0 L 233.75 137.5 L 227.5 141.25 L 216.25 143.75 " stroke="black" fill="none" stroke-width="6.0" stroke-linecap="round" stroke-linejoin="round" />
<path d="M 192.5 152.5 L 191.25 155.0 L 180.0 190.0 L 170.0 212.5 L 165.0 223.75 L 161.25 227.5 L 162.5 225.0 L 168.75 216.25 L 178.75 201.25 L 191.25 187.5 L 203.75 176.25 L 215.0 168.75 L 218.75 173.75 L 213.75 191.25 L 205.0 211.25 L 192.5 231.25 L 180.0 243.75 L 170.0 247.5 " stroke="black" fill="none" stroke-width="6.0" stroke-linecap="round" stroke-linejoin="round" />
<path d="M 180.0 203.75 L 180.0 203.75 L 178.75 203.75 L 178.75 203.75 L 178.75 203.75 L 180.0 203.75 L 182.5 203.75 L 186.25 203.75 L 188.75 206.25 L 191.25 207.5 L 195.0 211.25 L 202.5 218.75 L 212.5 228.75 L 227.5 240.0 L 243.75 248.75 L 252.5 252.5 L 253.75 253.75 " stroke="black" fill="none" stroke-width="6.0" stroke-linecap="round" stroke-linejoin="round" />
</svg>