<svg xmlns="http://www.w3.org/2000/svg" width="300" height="300" viewBox="0 0 300 300">
<path d="M 121.25 88.75 L 121.25 88.75 L 120.0 87.5 L 118.75 87.5 L 120.0 88.75 L 123.75 93.75 L 128.75 100.0 L 132.5 103.75 L 133.75 103.75 " stroke="black" fill="none" stroke-width="6.0" stroke-linecap="round" stroke-linejoin="round" />
<path d="M 156.25 65.0 L 156.25 67.5 L 150.0 85.0 L 133.75 130.0 L 115.0 177.5 L 97.5 210.0 L 86.25 232.5 L 85.0 235.0 " stroke="black" fill="none" stroke-width="6.0" stroke-linecap="round" stroke-linejoin="round" />
<path d="M 140.0 122.5 L 142.5 122.5 L 146.25 121.25 L 152.5 120.0 L 162.5 120.0 L 173.75 120.0 L 180.0 121.25 L 178.75 126.25 L 167.5 136.25 L 152.5 146.25 L 142.5 152.5 L 138.75 155.0 L 142.5 153.75 L 153.75 147.5 L 170.0 141.25 L 183.75 137.5 L 188.75 137.5 L 185.0 142.5 L 172.5 153.75 L 158.75 166.25 L 148.75 177.5 L 146.25 181.25 L 150.0 181.25 L 160.0 176.25 L 176.25 168.75 L 193.75 165.0 L 208.75 166.25 L 212.5 178.75 L 207.5 197.5 L 195.0 216.25 L 176.25 233.75 L 157.5 242.5 L 142.5 245.0 L 135.0 242.5 " stroke="black" fill="none" stroke-width="6.0" stroke-linecap="round" stroke-linejoin="round" />
<path d="M 102.5 193.75 L 101.25 192.5 L 100.0 192.5 L 98.75 193.75 L 105.0 205.0 L 112.5 217.5 L 120.0 226.25 L 120.0 227.5 " stroke="black" fill="none" stroke-width="6.0" stroke-linecap="round" stroke-linejoin="round" />
<path d="M 131.25 193.75 L 131.25 193.75 L 130.0 193.75 L 130.0 195.0 L 136.25 202.5 L 142.5 213.75 L 146.25 222.5 L 146.25 223.75 " stroke="black" fill="none" stroke-width="6.0" stroke-linecap="round" stroke-linejoin="round" />
<path d="M 156.25 193.75 L 156.25 192.5 L 156.25 192.5 L 156.25 191.25 L 156.25 193.75 L 160.0 202.5 L 162.5 211.25 L 162.5 215.0 " stroke="black" fill="none" stroke-width="6.0" stroke-linecap="round" stroke-linejoin="round" />
<path d="M 182.5 190.0 L 183.75 188.75 L 183.75 187.5 L 186.25 187.5 L 192.5 196.25 L 200.0 215.0 " stroke="black" fill="none" stroke-width="6.0" stroke-linecap="round" stroke-linejoin="round" />
</svg>