<svg xmlns="http://www.w3.org/2000/svg" width="300" height="300" viewBox="0 0 300 300">
<path d="M 121.25 98.75 L 118.75 98.75 L 116.25 97.5 L 116.25 97.5 L 121.25 101.25 L 130.0 110.0 L 137.5 120.0 " stroke="black" fill="none" stroke-width="6.0" stroke-linecap="round" stroke-linejoin="round" />
<path d="M 168.75 72.5 L 166.25 72.5 L 160.0 77.5 L 152.5 98.75 L 141.25 152.5 L 127.5 215.0 L 113.75 257.5 L 106.25 267.5 L 101.25 268.75 " stroke="black" fill="none" stroke-width="6.0" stroke-linecap="round" stroke-linejoin="round" />
<path d="M 156.25 127.5 L 156.25 127.5 L 155.0 126.25 L 157.5 125.0 L 170.0 125.0 L 183.75 127.5 L 193.75 132.5 L 195.0 137.5 L 187.5 145.0 L 175.0 151.25 L 163.75 157.5 L 156.25 161.25 L 156.25 162.5 L 161.25 162.5 L 172.5 161.25 L 185.0 157.5 L 192.5 155.0 L 195.0 153.75 L 191.25 158.75 L 182.5 170.0 L 171.25 181.25 L 163.75 190.0 L 162.5 192.5 L 168.75 192.5 L 183.75 190.0 L 202.5 187.5 L 218.75 186.25 L 228.75 187.5 L 227.5 200.0 L 216.25 218.75 L 203.75 237.5 L 191.25 248.75 L 175.0 253.75 L 172.5 253.75 " stroke="black" fill="none" stroke-width="6.0" stroke-linecap="round" stroke-linejoin="round" />
<path d="M 122.5 220.0 L 120.0 221.25 L 117.5 222.5 L 120.0 227.5 L 127.5 236.25 L 136.25 247.5 L 141.25 253.75 L 142.5 255.0 L 142.5 255.0 " stroke="black" fill="none" stroke-width="6.0" stroke-linecap="round" stroke-linejoin="round" />
<path d="M 143.75 222.5 L 143.75 222.5 L 143.75 223.75 L 147.5 227.5 L 156.25 236.25 L 165.0 245.0 L 166.25 248.75 L 166.25 248.75 " stroke="black" fill="none" stroke-width="6.0" stroke-linecap="round" stroke-linejoin="round" />
<path d="M 170.0 221.25 L 170.0 221.25 L 170.0 221.25 L 171.25 223.75 L 176.25 231.25 L 182.5 240.0 L 185.0 246.25 " stroke="black" fill="none" stroke-width="6.0" stroke-linecap="round" stroke-linejoin="round" />
<path d="M 202.5 212.5 L 203.75 212.5 L 203.75 212.5 L 211.25 222.5 L 223.75 242.5 " stroke="black" fill="none" stroke-width="6.0" stroke-linecap="round" stroke-linejoin="round" />
</svg>