<svg xmlns="http://www.w3.org/2000/svg" width="300" height="300" viewBox="0 0 300 300">
<path d="M 106.25 92.5 L 106.25 93.75 L 102.5 96.25 L 100.0 97.5 L 103.75 97.5 L 122.5 93.75 L 148.75 82.5 L 176.25 67.5 L 192.5 53.75 L 193.75 51.25 L 182.5 55.0 " stroke="black" fill="none" stroke-width="6.0" stroke-linecap="round" stroke-linejoin="round" />
<path d="M 105.0 128.75 L 105.0 128.75 L 105.0 127.5 L 106.25 126.25 L 112.5 128.75 L 121.25 137.5 L 130.0 147.5 L 133.75 153.75 L 131.25 153.75 L 125.0 151.25 L 118.75 146.25 L 112.5 142.5 L 108.75 138.75 L 108.75 133.75 L 121.25 127.5 L 142.5 118.75 L 165.0 110.0 L 178.75 105.0 L 177.5 106.25 L 166.25 115.0 L 151.25 128.75 L 137.5 141.25 L 126.25 151.25 L 123.75 152.5 L 133.75 148.75 L 150.0 137.5 L 166.25 125.0 L 177.5 113.75 L 178.75 111.25 " stroke="black" fill="none" stroke-width="6.0" stroke-linecap="round" stroke-linejoin="round" />
<path d="M 112.5 177.5 L 110.0 180.0 L 107.5 182.5 L 113.75 180.0 L 135.0 167.5 L 161.25 155.0 L 187.5 146.25 L 197.5 146.25 L 191.25 151.25 L 175.0 163.75 L 152.5 180.0 L 128.75 198.75 L 103.75 215.0 L 95.0 221.25 L 100.0 218.75 L 118.75 208.75 L 145.0 195.0 L 171.25 180.0 L 197.5 167.5 L 203.75 166.25 L 195.0 176.25 L 172.5 195.0 L 145.0 215.0 L 120.0 232.5 L 108.75 238.75 L 110.0 228.75 L 117.5 208.75 " stroke="black" fill="none" stroke-width="6.0" stroke-linecap="round" stroke-linejoin="round" />
<path d="M 136.25 83.75 L 135.0 81.25 L 131.25 76.25 L 131.25 73.75 L 132.5 72.5 L 135.0 73.75 L 138.75 78.75 L 142.5 93.75 L 146.25 120.0 L 150.0 163.75 L 152.5 211.25 L 152.5 241.25 L 152.5 256.25 L 152.5 266.25 L 152.5 270.0 L 151.25 270.0 L 150.0 270.0 L 146.25 267.5 L 140.0 263.75 L 133.75 260.0 L 127.5 258.75 L 120.0 256.25 L 112.5 255.0 " stroke="black" fill="none" stroke-width="6.0" stroke-linecap="round" stroke-linejoin="round" />
</svg>