<svg xmlns="http://www.w3.org/2000/svg" width="300" height="300" viewBox="0 0 300 300">
<path d="M 77.5 135.0 L 76.25 136.25 L 67.5 138.75 L 65.0 138.75 L 67.5 140.0 L 77.5 140.0 L 91.25 140.0 L 103.75 136.25 L 107.5 135.0 " stroke="black" fill="none" stroke-width="6.0" stroke-linecap="round" stroke-linejoin="round" />
<path d="M 72.5 180.0 L 71.25 180.0 L 68.75 182.5 L 68.75 182.5 L 78.75 177.5 L 91.25 167.5 L 101.25 160.0 " stroke="black" fill="none" stroke-width="6.0" stroke-linecap="round" stroke-linejoin="round" />
<path d="M 77.5 237.5 L 72.5 245.0 L 68.75 248.75 L 77.5 241.25 L 95.0 218.75 L 117.5 187.5 L 132.5 162.5 " stroke="black" fill="none" stroke-width="6.0" stroke-linecap="round" stroke-linejoin="round" />
<path d="M 135.0 142.5 L 128.75 146.25 L 123.75 150.0 L 128.75 150.0 L 146.25 145.0 L 171.25 133.75 L 198.75 118.75 L 211.25 110.0 L 212.5 112.5 L 206.25 127.5 L 198.75 145.0 L 191.25 160.0 L 185.0 168.75 L 181.25 168.75 " stroke="black" fill="none" stroke-width="6.0" stroke-linecap="round" stroke-linejoin="round" />
<path d="M 162.5 105.0 L 161.25 103.75 L 161.25 103.75 L 161.25 126.25 L 162.5 158.75 L 163.75 185.0 L 158.75 191.25 " stroke="black" fill="none" stroke-width="6.0" stroke-linecap="round" stroke-linejoin="round" />
<path d="M 136.25 107.5 L 133.75 105.0 L 133.75 106.25 L 135.0 131.25 L 137.5 166.25 L 143.75 201.25 L 152.5 220.0 L 168.75 228.75 L 188.75 233.75 L 207.5 233.75 L 221.25 232.5 L 233.75 228.75 L 240.0 225.0 L 240.0 223.75 L 241.25 220.0 L 241.25 213.75 L 241.25 202.5 L 238.75 178.75 L 230.0 143.75 " stroke="black" fill="none" stroke-width="6.0" stroke-linecap="round" stroke-linejoin="round" />
</svg>