<svg xmlns="http://www.w3.org/2000/svg" width="300" height="300" viewBox="0 0 300 300">
<path d="M 81.25 100.0 L 80.0 100.0 L 78.75 100.0 L 83.75 100.0 L 93.75 102.5 L 108.75 106.25 L 117.5 111.25 L 117.5 113.75 " stroke="black" fill="none" stroke-width="6.0" stroke-linecap="round" stroke-linejoin="round" />
<path d="M 76.25 141.25 L 73.75 145.0 L 72.5 146.25 L 81.25 147.5 L 92.5 148.75 L 106.25 148.75 L 113.75 148.75 " stroke="black" fill="none" stroke-width="6.0" stroke-linecap="round" stroke-linejoin="round" />
<path d="M 77.5 241.25 L 73.75 248.75 L 72.5 251.25 L 81.25 242.5 L 96.25 223.75 L 110.0 205.0 " stroke="black" fill="none" stroke-width="6.0" stroke-linecap="round" stroke-linejoin="round" />
<path d="M 148.75 146.25 L 143.75 151.25 L 137.5 157.5 L 141.25 158.75 L 157.5 153.75 L 183.75 142.5 L 215.0 127.5 L 238.75 117.5 L 250.0 116.25 L 248.75 121.25 L 236.25 136.25 L 217.5 153.75 L 205.0 165.0 " stroke="black" fill="none" stroke-width="6.0" stroke-linecap="round" stroke-linejoin="round" />
<path d="M 192.5 111.25 L 192.5 110.0 L 191.25 108.75 L 191.25 116.25 L 193.75 137.5 L 196.25 161.25 L 193.75 177.5 " stroke="black" fill="none" stroke-width="6.0" stroke-linecap="round" stroke-linejoin="round" />
<path d="M 152.5 126.25 L 152.5 126.25 L 152.5 125.0 L 152.5 127.5 L 157.5 146.25 L 162.5 182.5 L 170.0 213.75 L 183.75 232.5 L 202.5 240.0 L 220.0 242.5 L 241.25 245.0 L 257.5 246.25 L 265.0 246.25 L 267.5 245.0 L 268.75 243.75 L 268.75 243.75 L 268.75 241.25 L 267.5 235.0 L 267.5 218.75 L 267.5 185.0 " stroke="black" fill="none" stroke-width="6.0" stroke-linecap="round" stroke-linejoin="round" />
</svg>