<svg xmlns="http://www.w3.org/2000/svg" width="300" height="300" viewBox="0 0 300 300">
<path d="M 88.75 71.25 L 88.75 70.0 L 88.75 68.75 L 92.5 67.5 L 100.0 68.75 L 111.25 72.5 L 118.75 75.0 L 118.75 77.5 " stroke="black" fill="none" stroke-width="6.0" stroke-linecap="round" stroke-linejoin="round" />
<path d="M 61.25 92.5 L 55.0 95.0 L 52.5 96.25 L 57.5 96.25 L 76.25 93.75 L 98.75 85.0 L 122.5 75.0 L 132.5 68.75 L 127.5 68.75 L 115.0 76.25 L 102.5 80.0 L 92.5 85.0 L 83.75 91.25 L 80.0 100.0 L 77.5 115.0 L 75.0 138.75 L 68.75 158.75 L 63.75 166.25 L 60.0 163.75 L 58.75 151.25 " stroke="black" fill="none" stroke-width="6.0" stroke-linecap="round" stroke-linejoin="round" />
<path d="M 73.75 128.75 L 75.0 127.5 L 80.0 126.25 L 87.5 126.25 L 97.5 131.25 L 106.25 136.25 L 110.0 136.25 " stroke="black" fill="none" stroke-width="6.0" stroke-linecap="round" stroke-linejoin="round" />
<path d="M 127.5 92.5 L 127.5 92.5 L 123.75 92.5 L 115.0 106.25 L 105.0 125.0 L 98.75 133.75 L 100.0 130.0 L 107.5 121.25 L 113.75 116.25 L 120.0 111.25 L 127.5 110.0 L 135.0 110.0 L 142.5 113.75 L 145.0 116.25 " stroke="black" fill="none" stroke-width="6.0" stroke-linecap="round" stroke-linejoin="round" />
<path d="M 52.5 192.5 L 48.75 195.0 L 47.5 196.25 L 51.25 196.25 L 71.25 187.5 L 96.25 170.0 L 122.5 148.75 L 133.75 137.5 L 133.75 135.0 L 122.5 137.5 L 110.0 142.5 L 98.75 146.25 L 93.75 148.75 L 92.5 148.75 L 95.0 148.75 L 97.5 151.25 L 100.0 167.5 L 103.75 197.5 L 105.0 230.0 L 106.25 251.25 L 106.25 258.75 L 101.25 257.5 L 96.25 251.25 L 91.25 241.25 L 88.75 223.75 L 88.75 202.5 L 91.25 186.25 L 97.5 176.25 L 100.0 175.0 L 96.25 186.25 L 87.5 205.0 L 75.0 225.0 L 61.25 237.5 L 55.0 235.0 L 55.0 231.25 " stroke="black" fill="none" stroke-width="6.0" stroke-linecap="round" stroke-linejoin="round" />
<path d="M 90.0 180.0 L 95.0 176.25 L 102.5 178.75 L 116.25 188.75 L 130.0 201.25 L 145.0 207.5 L 147.5 207.5 " stroke="black" fill="none" stroke-width="6.0" stroke-linecap="round" stroke-linejoin="round" />
<path d="M 165.0 91.25 L 162.5 91.25 L 158.75 93.75 L 153.75 105.0 L 143.75 130.0 L 137.5 147.5 L 136.25 148.75 L 138.75 138.75 L 146.25 127.5 L 152.5 115.0 L 156.25 108.75 L 161.25 111.25 L 165.0 142.5 L 165.0 191.25 L 162.5 228.75 L 158.75 245.0 L 153.75 246.25 L 153.75 243.75 " stroke="black" fill="none" stroke-width="6.0" stroke-linecap="round" stroke-linejoin="round" />
<path d="M 178.75 102.5 L 178.75 102.5 L 181.25 101.25 L 190.0 101.25 L 202.5 101.25 L 215.0 100.0 L 220.0 100.0 L 217.5 100.0 " stroke="black" fill="none" stroke-width="6.0" stroke-linecap="round" stroke-linejoin="round" />
<path d="M 180.0 138.75 L 177.5 141.25 L 175.0 142.5 L 182.5 141.25 L 197.5 131.25 L 211.25 120.0 L 220.0 111.25 L 216.25 115.0 L 205.0 131.25 L 202.5 136.25 " stroke="black" fill="none" stroke-width="6.0" stroke-linecap="round" stroke-linejoin="round" />
<path d="M 176.25 185.0 L 173.75 190.0 L 176.25 192.5 L 190.0 185.0 L 210.0 165.0 L 227.5 143.75 L 232.5 133.75 L 231.25 133.75 " stroke="black" fill="none" stroke-width="6.0" stroke-linecap="round" stroke-linejoin="round" />
<path d="M 201.25 136.25 L 201.25 136.25 L 201.25 136.25 L 201.25 140.0 L 203.75 157.5 L 206.25 188.75 L 206.25 211.25 L 203.75 221.25 L 198.75 226.25 L 197.5 226.25 " stroke="black" fill="none" stroke-width="6.0" stroke-linecap="round" stroke-linejoin="round" />
<path d="M 203.75 206.25 L 217.5 196.25 L 227.5 188.75 L 230.0 186.25 " stroke="black" fill="none" stroke-width="6.0" stroke-linecap="round" stroke-linejoin="round" />
<path d="M 197.5 235.0 L 196.25 236.25 L 196.25 238.75 L 203.75 237.5 L 220.0 225.0 L 238.75 211.25 L 250.0 200.0 " stroke="black" fill="none" stroke-width="6.0" stroke-linecap="round" stroke-linejoin="round" />
<path d="M 212.5 197.5 L 212.5 197.5 L 211.25 197.5 L 211.25 197.5 L 210.0 197.5 L 210.0 197.5 L 210.0 197.5 L 210.0 197.5 L 210.0 197.5 L 210.0 197.5 L 210.0 198.75 L 211.25 198.75 L 211.25 198.75 L 211.25 198.75 L 211.25 200.0 L 211.25 200.0 L 208.75 201.25 L 205.0 203.75 L 198.75 206.25 L 191.25 208.75 L 188.75 211.25 L 187.5 211.25 L 190.0 210.0 " stroke="black" fill="none" stroke-width="6.0" stroke-linecap="round" stroke-linejoin="round" />
</svg>