<svg xmlns="http://www.w3.org/2000/svg" width="300" height="300" viewBox="0 0 300 300">
<path d="M 96.25 82.5 L 93.75 80.0 L 93.75 78.75 L 98.75 78.75 L 111.25 78.75 L 125.0 78.75 L 130.0 78.75 L 126.25 81.25 L 122.5 82.5 " stroke="black" fill="none" stroke-width="6.0" stroke-linecap="round" stroke-linejoin="round" />
<path d="M 82.5 116.25 L 81.25 116.25 L 78.75 118.75 L 78.75 118.75 L 88.75 113.75 L 101.25 106.25 L 113.75 100.0 L 120.0 95.0 L 118.75 95.0 L 112.5 97.5 L 106.25 102.5 L 100.0 111.25 L 93.75 127.5 L 85.0 153.75 L 78.75 175.0 L 76.25 180.0 L 76.25 177.5 L 78.75 166.25 " stroke="black" fill="none" stroke-width="6.0" stroke-linecap="round" stroke-linejoin="round" />
<path d="M 91.25 140.0 L 91.25 138.75 L 90.0 138.75 L 90.0 138.75 L 93.75 141.25 L 101.25 146.25 L 110.0 151.25 L 115.0 153.75 " stroke="black" fill="none" stroke-width="6.0" stroke-linecap="round" stroke-linejoin="round" />
<path d="M 142.5 116.25 L 136.25 116.25 L 131.25 121.25 L 123.75 130.0 L 117.5 138.75 L 112.5 142.5 L 111.25 143.75 L 113.75 143.75 L 121.25 145.0 L 131.25 145.0 L 141.25 143.75 L 148.75 142.5 L 150.0 142.5 " stroke="black" fill="none" stroke-width="6.0" stroke-linecap="round" stroke-linejoin="round" />
<path d="M 73.75 192.5 L 72.5 193.75 L 65.0 197.5 L 63.75 197.5 L 71.25 198.75 L 85.0 195.0 L 101.25 186.25 L 118.75 173.75 L 131.25 161.25 L 133.75 157.5 L 131.25 156.25 L 125.0 157.5 L 120.0 160.0 L 115.0 162.5 L 111.25 165.0 L 108.75 165.0 L 107.5 166.25 L 107.5 166.25 L 107.5 170.0 L 107.5 183.75 L 110.0 207.5 L 111.25 231.25 L 113.75 245.0 L 112.5 250.0 L 107.5 248.75 L 103.75 243.75 L 103.75 241.25 " stroke="black" fill="none" stroke-width="6.0" stroke-linecap="round" stroke-linejoin="round" />
<path d="M 105.0 195.0 L 105.0 195.0 L 101.25 193.75 L 97.5 196.25 L 91.25 206.25 L 82.5 223.75 L 73.75 235.0 L 71.25 235.0 L 71.25 231.25 " stroke="black" fill="none" stroke-width="6.0" stroke-linecap="round" stroke-linejoin="round" />
<path d="M 100.0 195.0 L 102.5 193.75 L 108.75 193.75 L 121.25 201.25 L 135.0 212.5 L 143.75 220.0 " stroke="black" fill="none" stroke-width="6.0" stroke-linecap="round" stroke-linejoin="round" />
<path d="M 162.5 100.0 L 165.0 97.5 L 166.25 93.75 L 166.25 92.5 L 165.0 95.0 L 157.5 110.0 L 148.75 132.5 L 142.5 152.5 L 141.25 157.5 L 145.0 151.25 L 152.5 141.25 L 157.5 132.5 L 162.5 123.75 L 165.0 122.5 L 165.0 133.75 L 165.0 162.5 L 165.0 202.5 L 161.25 230.0 L 160.0 243.75 L 158.75 243.75 L 157.5 233.75 " stroke="black" fill="none" stroke-width="6.0" stroke-linecap="round" stroke-linejoin="round" />
<path d="M 175.0 116.25 L 175.0 115.0 L 175.0 112.5 L 176.25 111.25 L 186.25 110.0 L 198.75 110.0 L 208.75 108.75 L 212.5 108.75 L 208.75 110.0 L 205.0 112.5 " stroke="black" fill="none" stroke-width="6.0" stroke-linecap="round" stroke-linejoin="round" />
<path d="M 170.0 146.25 L 170.0 148.75 L 168.75 151.25 L 176.25 150.0 L 191.25 142.5 L 205.0 132.5 L 212.5 125.0 L 211.25 126.25 L 210.0 127.5 " stroke="black" fill="none" stroke-width="6.0" stroke-linecap="round" stroke-linejoin="round" />
<path d="M 167.5 196.25 L 167.5 198.75 L 171.25 198.75 L 183.75 192.5 L 200.0 180.0 L 211.25 167.5 L 213.75 160.0 L 208.75 160.0 L 206.25 160.0 " stroke="black" fill="none" stroke-width="6.0" stroke-linecap="round" stroke-linejoin="round" />
<path d="M 198.75 148.75 L 198.75 146.25 L 198.75 146.25 L 198.75 146.25 L 200.0 160.0 L 201.25 183.75 L 202.5 205.0 L 203.75 215.0 L 200.0 217.5 L 196.25 216.25 L 192.5 215.0 L 188.75 212.5 L 187.5 211.25 L 187.5 212.5 L 186.25 213.75 L 188.75 213.75 L 196.25 210.0 L 206.25 201.25 L 218.75 192.5 L 225.0 187.5 L 222.5 188.75 " stroke="black" fill="none" stroke-width="6.0" stroke-linecap="round" stroke-linejoin="round" />
<path d="M 183.75 237.5 L 181.25 238.75 L 178.75 240.0 L 182.5 238.75 L 196.25 228.75 L 210.0 216.25 L 223.75 205.0 L 230.0 200.0 L 228.75 200.0 L 225.0 201.25 " stroke="black" fill="none" stroke-width="6.0" stroke-linecap="round" stroke-linejoin="round" />
</svg>