<svg xmlns="http://www.w3.org/2000/svg" width="300" height="300" viewBox="0 0 300 300">
<path d="M 106.25 86.25 L 103.75 86.25 L 102.5 86.25 L 115.0 86.25 L 140.0 80.0 L 165.0 71.25 L 180.0 63.75 L 182.5 61.25 L 176.25 60.0 L 171.25 58.75 " stroke="black" fill="none" stroke-width="6.0" stroke-linecap="round" stroke-linejoin="round" />
<path d="M 141.25 57.5 L 140.0 58.75 L 140.0 62.5 L 140.0 75.0 L 138.75 96.25 L 135.0 108.75 L 133.75 111.25 L 135.0 110.0 L 142.5 106.25 L 152.5 102.5 L 162.5 97.5 L 168.75 95.0 L 171.25 91.25 L 171.25 90.0 L 168.75 88.75 L 167.5 87.5 L 166.25 87.5 L 165.0 87.5 L 165.0 87.5 L 168.75 90.0 L 173.75 96.25 L 175.0 107.5 L 173.75 116.25 " stroke="black" fill="none" stroke-width="6.0" stroke-linecap="round" stroke-linejoin="round" />
<path d="M 83.75 160.0 L 83.75 160.0 L 81.25 161.25 L 85.0 162.5 L 103.75 161.25 L 141.25 150.0 L 180.0 133.75 L 208.75 121.25 L 220.0 115.0 L 221.25 113.75 L 213.75 115.0 " stroke="black" fill="none" stroke-width="6.0" stroke-linecap="round" stroke-linejoin="round" />
<path d="M 128.75 137.5 L 128.75 137.5 L 128.75 136.25 L 130.0 141.25 L 135.0 157.5 L 141.25 173.75 L 148.75 180.0 L 157.5 176.25 L 170.0 163.75 L 181.25 152.5 L 188.75 142.5 L 192.5 135.0 L 193.75 131.25 L 193.75 128.75 L 192.5 127.5 L 190.0 127.5 L 188.75 127.5 L 188.75 127.5 L 188.75 127.5 L 188.75 127.5 L 188.75 127.5 L 188.75 127.5 L 188.75 127.5 L 190.0 127.5 L 191.25 128.75 L 193.75 133.75 L 196.25 142.5 L 196.25 155.0 L 193.75 161.25 " stroke="black" fill="none" stroke-width="6.0" stroke-linecap="round" stroke-linejoin="round" />
<path d="M 93.75 222.5 L 91.25 222.5 L 91.25 222.5 L 107.5 220.0 L 145.0 206.25 L 182.5 187.5 L 201.25 172.5 L 206.25 163.75 L 205.0 157.5 L 202.5 156.25 " stroke="black" fill="none" stroke-width="6.0" stroke-linecap="round" stroke-linejoin="round" />
<path d="M 146.25 135.0 L 146.25 133.75 L 146.25 132.5 L 148.75 131.25 L 156.25 140.0 L 166.25 171.25 L 170.0 210.0 L 168.75 235.0 L 163.75 247.5 L 157.5 253.75 L 151.25 255.0 L 147.5 251.25 L 147.5 250.0 " stroke="black" fill="none" stroke-width="6.0" stroke-linecap="round" stroke-linejoin="round" />
<path d="M 166.25 206.25 L 165.0 207.5 L 156.25 211.25 L 147.5 222.5 L 137.5 240.0 L 123.75 251.25 L 111.25 255.0 L 110.0 255.0 " stroke="black" fill="none" stroke-width="6.0" stroke-linecap="round" stroke-linejoin="round" />
<path d="M 156.25 201.25 L 156.25 201.25 L 158.75 200.0 L 163.75 200.0 L 168.75 200.0 L 172.5 201.25 L 175.0 202.5 L 175.0 203.75 L 175.0 203.75 L 175.0 203.75 L 175.0 203.75 L 175.0 203.75 L 175.0 203.75 L 175.0 203.75 L 180.0 206.25 L 191.25 215.0 L 210.0 232.5 L 230.0 250.0 L 247.5 260.0 L 252.5 265.0 " stroke="black" fill="none" stroke-width="6.0" stroke-linecap="round" stroke-linejoin="round" />
</svg>