<svg xmlns="http://www.w3.org/2000/svg" width="300" height="300" viewBox="0 0 300 300">
<path d="M 115.0 86.25 L 115.0 86.25 L 112.5 85.0 L 115.0 83.75 L 126.25 81.25 L 145.0 80.0 L 160.0 81.25 L 165.0 85.0 L 158.75 92.5 L 141.25 106.25 L 117.5 121.25 L 93.75 136.25 L 78.75 146.25 L 75.0 150.0 L 76.25 151.25 L 82.5 156.25 L 93.75 171.25 L 107.5 200.0 L 117.5 227.5 L 121.25 238.75 L 121.25 240.0 L 121.25 236.25 L 118.75 223.75 L 112.5 210.0 L 108.75 205.0 " stroke="black" fill="none" stroke-width="6.0" stroke-linecap="round" stroke-linejoin="round" />
<path d="M 87.5 168.75 L 85.0 168.75 L 81.25 168.75 L 80.0 167.5 L 83.75 166.25 L 98.75 160.0 L 125.0 152.5 L 161.25 143.75 L 198.75 138.75 L 215.0 141.25 L 218.75 150.0 L 213.75 162.5 L 201.25 177.5 L 187.5 190.0 L 171.25 197.5 L 162.5 200.0 " stroke="black" fill="none" stroke-width="6.0" stroke-linecap="round" stroke-linejoin="round" />
<path d="M 140.0 155.0 L 137.5 155.0 L 136.25 158.75 L 137.5 178.75 L 141.25 206.25 L 145.0 223.75 L 146.25 225.0 " stroke="black" fill="none" stroke-width="6.0" stroke-linecap="round" stroke-linejoin="round" />
<path d="M 165.0 146.25 L 166.25 146.25 L 166.25 151.25 L 168.75 187.5 L 170.0 240.0 L 167.5 285.0 L 165.0 293.75 " stroke="black" fill="none" stroke-width="6.0" stroke-linecap="round" stroke-linejoin="round" />
</svg>