<svg xmlns="http://www.w3.org/2000/svg" width="300" height="300" viewBox="0 0 300 300">
<path d="M 128.75 105.0 L 126.25 105.0 L 123.75 106.25 L 132.5 106.25 L 145.0 105.0 L 157.5 102.5 L 162.5 102.5 L 161.25 105.0 L 150.0 118.75 L 135.0 135.0 L 116.25 150.0 L 100.0 158.75 L 93.75 161.25 L 91.25 162.5 L 91.25 162.5 L 90.0 162.5 L 88.75 162.5 L 88.75 163.75 L 95.0 173.75 L 105.0 192.5 L 115.0 210.0 L 120.0 218.75 L 122.5 222.5 L 120.0 220.0 L 116.25 212.5 L 115.0 211.25 " stroke="black" fill="none" stroke-width="6.0" stroke-linecap="round" stroke-linejoin="round" />
<path d="M 98.75 182.5 L 96.25 181.25 L 92.5 181.25 L 91.25 181.25 L 98.75 177.5 L 122.5 167.5 L 156.25 155.0 L 195.0 143.75 L 215.0 142.5 L 227.5 147.5 L 231.25 160.0 L 227.5 180.0 L 216.25 200.0 L 202.5 216.25 L 190.0 225.0 L 180.0 228.75 " stroke="black" fill="none" stroke-width="6.0" stroke-linecap="round" stroke-linejoin="round" />
<path d="M 147.5 171.25 L 145.0 171.25 L 142.5 171.25 L 142.5 173.75 L 147.5 198.75 L 152.5 218.75 L 153.75 230.0 L 155.0 226.25 " stroke="black" fill="none" stroke-width="6.0" stroke-linecap="round" stroke-linejoin="round" />
<path d="M 180.0 158.75 L 180.0 158.75 L 180.0 161.25 L 182.5 182.5 L 186.25 216.25 L 187.5 252.5 L 185.0 272.5 " stroke="black" fill="none" stroke-width="6.0" stroke-linecap="round" stroke-linejoin="round" />
</svg>