<svg xmlns="http://www.w3.org/2000/svg" width="300" height="300" viewBox="0 0 300 300">
<path d="M 136.25 81.25 L 133.75 81.25 L 125.0 83.75 L 126.25 86.25 L 138.75 88.75 L 152.5 88.75 L 163.75 90.0 L 167.5 90.0 L 162.5 96.25 L 148.75 111.25 L 130.0 131.25 L 107.5 147.5 L 92.5 156.25 L 87.5 156.25 L 87.5 156.25 L 87.5 155.0 L 87.5 155.0 L 90.0 162.5 L 98.75 190.0 L 107.5 218.75 L 115.0 232.5 L 117.5 235.0 L 117.5 232.5 L 116.25 225.0 L 111.25 215.0 L 106.25 203.75 L 101.25 192.5 L 97.5 178.75 L 93.75 166.25 L 88.75 163.75 L 87.5 163.75 L 87.5 165.0 L 96.25 165.0 L 115.0 160.0 L 145.0 153.75 L 181.25 148.75 L 210.0 146.25 L 223.75 148.75 L 227.5 156.25 L 222.5 171.25 L 208.75 190.0 L 195.0 205.0 L 178.75 213.75 L 167.5 217.5 " stroke="black" fill="none" stroke-width="6.0" stroke-linecap="round" stroke-linejoin="round" />
<path d="M 151.25 172.5 L 148.75 172.5 L 142.5 176.25 L 141.25 187.5 L 141.25 192.5 L 146.25 226.25 L 150.0 232.5 L 151.25 231.25 " stroke="black" fill="none" stroke-width="6.0" stroke-linecap="round" stroke-linejoin="round" />
<path d="M 166.25 156.25 L 166.25 155.0 L 166.25 155.0 L 168.75 167.5 L 172.5 202.5 L 173.75 237.5 L 171.25 265.0 L 166.25 273.75 " stroke="black" fill="none" stroke-width="6.0" stroke-linecap="round" stroke-linejoin="round" />
</svg>