<svg xmlns="http://www.w3.org/2000/svg" width="300" height="300" viewBox="0 0 300 300">
<path d="M 73.75 126.25 L 70.0 127.5 L 68.75 127.5 L 75.0 127.5 L 90.0 122.5 L 107.5 113.75 L 123.75 102.5 L 132.5 96.25 L 128.75 95.0 L 120.0 95.0 " stroke="black" fill="none" stroke-width="6.0" stroke-linecap="round" stroke-linejoin="round" />
<path d="M 86.25 110.0 L 83.75 111.25 L 80.0 111.25 L 78.75 113.75 L 81.25 127.5 L 87.5 156.25 L 91.25 183.75 L 91.25 192.5 L 91.25 192.5 " stroke="black" fill="none" stroke-width="6.0" stroke-linecap="round" stroke-linejoin="round" />
<path d="M 110.0 97.5 L 112.5 96.25 L 117.5 98.75 L 121.25 120.0 L 121.25 143.75 L 115.0 176.25 L 106.25 190.0 L 97.5 192.5 L 96.25 192.5 " stroke="black" fill="none" stroke-width="6.0" stroke-linecap="round" stroke-linejoin="round" />
<path d="M 101.25 120.0 L 101.25 122.5 L 101.25 130.0 L 101.25 146.25 L 102.5 167.5 L 101.25 182.5 L 96.25 190.0 L 90.0 192.5 L 82.5 196.25 L 73.75 200.0 L 70.0 203.75 L 70.0 205.0 L 77.5 206.25 L 88.75 200.0 L 102.5 190.0 L 117.5 177.5 L 130.0 166.25 L 135.0 161.25 L 135.0 161.25 L 131.25 165.0 L 126.25 171.25 L 121.25 180.0 L 116.25 187.5 L 110.0 196.25 L 102.5 208.75 L 96.25 222.5 L 90.0 240.0 L 85.0 248.75 L 82.5 250.0 L 82.5 246.25 " stroke="black" fill="none" stroke-width="6.0" stroke-linecap="round" stroke-linejoin="round" />
<path d="M 107.5 196.25 L 107.5 195.0 L 107.5 193.75 L 110.0 192.5 L 115.0 192.5 L 122.5 196.25 L 130.0 210.0 L 137.5 227.5 L 142.5 241.25 L 141.25 246.25 " stroke="black" fill="none" stroke-width="6.0" stroke-linecap="round" stroke-linejoin="round" />
<path d="M 155.0 95.0 L 153.75 95.0 L 153.75 93.75 L 158.75 92.5 L 172.5 86.25 L 190.0 77.5 L 202.5 68.75 L 202.5 67.5 L 195.0 71.25 " stroke="black" fill="none" stroke-width="6.0" stroke-linecap="round" stroke-linejoin="round" />
<path d="M 156.25 108.75 L 153.75 113.75 L 152.5 122.5 L 156.25 140.0 L 160.0 162.5 L 162.5 175.0 L 163.75 177.5 L 163.75 173.75 L 163.75 166.25 L 161.25 158.75 L 160.0 153.75 L 160.0 148.75 L 160.0 143.75 L 162.5 138.75 L 175.0 131.25 L 196.25 118.75 L 216.25 103.75 L 226.25 95.0 L 227.5 92.5 L 220.0 95.0 L 211.25 101.25 L 203.75 107.5 L 202.5 110.0 " stroke="black" fill="none" stroke-width="6.0" stroke-linecap="round" stroke-linejoin="round" />
<path d="M 201.25 120.0 L 201.25 120.0 L 201.25 120.0 L 201.25 120.0 L 201.25 118.75 L 201.25 121.25 L 201.25 132.5 L 202.5 161.25 L 205.0 200.0 L 205.0 227.5 L 206.25 240.0 L 205.0 243.75 L 201.25 245.0 L 195.0 245.0 L 186.25 243.75 L 183.75 242.5 " stroke="black" fill="none" stroke-width="6.0" stroke-linecap="round" stroke-linejoin="round" />
</svg>