<svg xmlns="http://www.w3.org/2000/svg" width="300" height="300" viewBox="0 0 300 300">
<path d="M 61.25 143.75 L 57.5 146.25 L 55.0 148.75 L 60.0 147.5 L 77.5 142.5 L 101.25 132.5 L 123.75 120.0 L 136.25 111.25 L 135.0 110.0 L 123.75 112.5 L 110.0 116.25 L 97.5 120.0 L 87.5 123.75 L 77.5 127.5 L 72.5 132.5 L 70.0 140.0 L 71.25 157.5 L 75.0 188.75 L 78.75 210.0 L 81.25 213.75 L 82.5 211.25 " stroke="black" fill="none" stroke-width="6.0" stroke-linecap="round" stroke-linejoin="round" />
<path d="M 113.75 116.25 L 116.25 116.25 L 118.75 118.75 L 122.5 132.5 L 122.5 161.25 L 118.75 186.25 L 112.5 200.0 L 103.75 201.25 L 102.5 201.25 " stroke="black" fill="none" stroke-width="6.0" stroke-linecap="round" stroke-linejoin="round" />
<path d="M 97.5 148.75 L 100.0 148.75 L 101.25 155.0 L 101.25 171.25 L 96.25 193.75 L 90.0 210.0 L 81.25 217.5 L 71.25 220.0 L 66.25 220.0 L 66.25 220.0 L 77.5 215.0 L 93.75 206.25 L 112.5 195.0 L 127.5 185.0 L 133.75 181.25 L 126.25 185.0 L 111.25 201.25 L 96.25 222.5 L 83.75 242.5 L 78.75 251.25 L 78.75 248.75 L 82.5 245.0 " stroke="black" fill="none" stroke-width="6.0" stroke-linecap="round" stroke-linejoin="round" />
<path d="M 112.5 210.0 L 112.5 210.0 L 116.25 210.0 L 123.75 216.25 L 136.25 235.0 L 145.0 247.5 L 147.5 250.0 L 148.75 242.5 " stroke="black" fill="none" stroke-width="6.0" stroke-linecap="round" stroke-linejoin="round" />
<path d="M 165.0 90.0 L 165.0 90.0 L 163.75 93.75 L 166.25 95.0 L 176.25 95.0 L 192.5 91.25 L 202.5 87.5 L 205.0 86.25 L 197.5 87.5 L 186.25 91.25 L 175.0 95.0 L 167.5 101.25 L 161.25 110.0 L 160.0 133.75 L 160.0 167.5 L 160.0 191.25 L 161.25 197.5 L 161.25 193.75 L 161.25 186.25 L 161.25 175.0 L 162.5 165.0 L 163.75 157.5 L 166.25 153.75 L 176.25 148.75 L 196.25 140.0 L 215.0 128.75 L 226.25 118.75 L 227.5 115.0 L 221.25 115.0 L 215.0 120.0 L 208.75 125.0 L 205.0 130.0 L 201.25 137.5 L 200.0 152.5 L 201.25 190.0 L 202.5 230.0 L 202.5 251.25 L 200.0 258.75 L 197.5 261.25 L 193.75 262.5 L 185.0 262.5 L 172.5 262.5 " stroke="black" fill="none" stroke-width="6.0" stroke-linecap="round" stroke-linejoin="round" />
</svg>