<svg xmlns="http://www.w3.org/2000/svg" width="300" height="300" viewBox="0 0 300 300">
<path d="M 58.75 128.75 L 58.75 128.75 L 60.0 128.75 L 71.25 125.0 L 93.75 113.75 L 120.0 101.25 L 131.25 92.5 L 130.0 88.75 L 120.0 90.0 " stroke="black" fill="none" stroke-width="6.0" stroke-linecap="round" stroke-linejoin="round" />
<path d="M 81.25 103.75 L 78.75 107.5 L 76.25 112.5 L 76.25 125.0 L 80.0 148.75 L 80.0 177.5 L 80.0 191.25 L 80.0 191.25 " stroke="black" fill="none" stroke-width="6.0" stroke-linecap="round" stroke-linejoin="round" />
<path d="M 106.25 95.0 L 108.75 95.0 L 111.25 100.0 L 111.25 118.75 L 108.75 148.75 L 102.5 172.5 L 95.0 183.75 L 91.25 185.0 " stroke="black" fill="none" stroke-width="6.0" stroke-linecap="round" stroke-linejoin="round" />
<path d="M 92.5 112.5 L 92.5 113.75 L 93.75 117.5 L 95.0 133.75 L 93.75 162.5 L 87.5 185.0 L 80.0 193.75 L 71.25 196.25 L 63.75 197.5 L 61.25 198.75 L 65.0 198.75 L 75.0 195.0 L 87.5 187.5 L 100.0 178.75 L 112.5 167.5 L 120.0 160.0 L 120.0 160.0 L 111.25 171.25 L 100.0 188.75 L 88.75 203.75 L 77.5 218.75 L 66.25 227.5 L 62.5 230.0 " stroke="black" fill="none" stroke-width="6.0" stroke-linecap="round" stroke-linejoin="round" />
<path d="M 92.5 195.0 L 95.0 192.5 L 98.75 192.5 L 106.25 198.75 L 116.25 212.5 L 125.0 225.0 L 128.75 232.5 L 128.75 232.5 L 126.25 232.5 " stroke="black" fill="none" stroke-width="6.0" stroke-linecap="round" stroke-linejoin="round" />
<path d="M 157.5 73.75 L 155.0 73.75 L 153.75 75.0 L 158.75 76.25 L 173.75 78.75 L 188.75 78.75 L 197.5 78.75 L 197.5 78.75 L 193.75 78.75 " stroke="black" fill="none" stroke-width="6.0" stroke-linecap="round" stroke-linejoin="round" />
<path d="M 158.75 93.75 L 156.25 105.0 L 152.5 128.75 L 152.5 160.0 L 151.25 178.75 L 151.25 181.25 L 150.0 175.0 L 151.25 160.0 L 151.25 146.25 L 152.5 135.0 L 152.5 127.5 L 152.5 126.25 L 155.0 128.75 L 168.75 128.75 L 192.5 118.75 L 208.75 103.75 L 212.5 96.25 L 207.5 95.0 L 201.25 102.5 L 195.0 111.25 L 188.75 120.0 L 185.0 130.0 L 183.75 146.25 L 183.75 180.0 L 185.0 226.25 L 181.25 257.5 L 176.25 271.25 L 171.25 276.25 L 165.0 275.0 L 157.5 266.25 " stroke="black" fill="none" stroke-width="6.0" stroke-linecap="round" stroke-linejoin="round" />
</svg>