<svg xmlns="http://www.w3.org/2000/svg" width="300" height="300" viewBox="0 0 300 300">
<path d="M 127.5 67.5 L 127.5 67.5 L 128.75 67.5 L 135.0 67.5 L 145.0 71.25 L 151.25 77.5 " stroke="black" fill="none" stroke-width="6.0" stroke-linecap="round" stroke-linejoin="round" />
<path d="M 95.0 96.25 L 95.0 96.25 L 95.0 96.25 L 97.5 98.75 L 105.0 106.25 L 111.25 117.5 L 112.5 125.0 L 110.0 123.75 " stroke="black" fill="none" stroke-width="6.0" stroke-linecap="round" stroke-linejoin="round" />
<path d="M 102.5 108.75 L 101.25 108.75 L 101.25 106.25 L 107.5 103.75 L 128.75 96.25 L 160.0 87.5 L 191.25 81.25 L 203.75 80.0 L 202.5 81.25 L 193.75 88.75 L 190.0 91.25 " stroke="black" fill="none" stroke-width="6.0" stroke-linecap="round" stroke-linejoin="round" />
<path d="M 136.25 120.0 L 135.0 120.0 L 131.25 121.25 L 125.0 132.5 L 115.0 155.0 L 103.75 175.0 L 101.25 178.75 " stroke="black" fill="none" stroke-width="6.0" stroke-linecap="round" stroke-linejoin="round" />
<path d="M 147.5 125.0 L 152.5 122.5 L 161.25 121.25 L 175.0 121.25 L 188.75 126.25 L 193.75 131.25 " stroke="black" fill="none" stroke-width="6.0" stroke-linecap="round" stroke-linejoin="round" />
<path d="M 155.0 143.75 L 146.25 155.0 L 132.5 178.75 L 115.0 206.25 L 98.75 227.5 L 91.25 232.5 L 90.0 226.25 " stroke="black" fill="none" stroke-width="6.0" stroke-linecap="round" stroke-linejoin="round" />
<path d="M 152.5 152.5 L 156.25 152.5 L 167.5 155.0 L 190.0 161.25 L 211.25 171.25 L 228.75 180.0 L 240.0 185.0 L 236.25 190.0 L 225.0 193.75 " stroke="black" fill="none" stroke-width="6.0" stroke-linecap="round" stroke-linejoin="round" />
<path d="M 123.75 210.0 L 120.0 211.25 L 118.75 215.0 L 127.5 226.25 L 141.25 241.25 L 152.5 251.25 L 156.25 253.75 L 155.0 252.5 L 151.25 248.75 L 145.0 241.25 L 138.75 235.0 L 133.75 227.5 L 133.75 220.0 L 140.0 212.5 L 158.75 205.0 L 182.5 198.75 L 200.0 196.25 L 203.75 197.5 L 198.75 203.75 L 186.25 215.0 L 170.0 230.0 L 153.75 243.75 L 150.0 251.25 L 153.75 251.25 L 167.5 248.75 L 186.25 241.25 L 203.75 232.5 L 212.5 225.0 " stroke="black" fill="none" stroke-width="6.0" stroke-linecap="round" stroke-linejoin="round" />
</svg>