<svg xmlns="http://www.w3.org/2000/svg" width="300" height="300" viewBox="0 0 300 300">
<path d="M 70.0 102.5 L 67.5 102.5 L 67.5 103.75 L 78.75 102.5 L 97.5 97.5 L 117.5 87.5 L 128.75 80.0 L 126.25 78.75 L 123.75 78.75 " stroke="black" fill="none" stroke-width="6.0" stroke-linecap="round" stroke-linejoin="round" />
<path d="M 65.0 138.75 L 65.0 138.75 L 63.75 141.25 L 63.75 148.75 L 68.75 167.5 L 75.0 187.5 L 78.75 195.0 L 78.75 195.0 " stroke="black" fill="none" stroke-width="6.0" stroke-linecap="round" stroke-linejoin="round" />
<path d="M 63.75 147.5 L 63.75 147.5 L 63.75 147.5 L 70.0 145.0 L 90.0 137.5 L 113.75 131.25 L 130.0 130.0 L 133.75 137.5 L 126.25 151.25 L 112.5 166.25 L 97.5 175.0 L 95.0 176.25 " stroke="black" fill="none" stroke-width="6.0" stroke-linecap="round" stroke-linejoin="round" />
<path d="M 77.5 167.5 L 76.25 167.5 L 78.75 165.0 L 91.25 157.5 L 107.5 147.5 L 120.0 140.0 L 120.0 140.0 L 117.5 141.25 " stroke="black" fill="none" stroke-width="6.0" stroke-linecap="round" stroke-linejoin="round" />
<path d="M 77.5 187.5 L 77.5 187.5 L 77.5 187.5 L 88.75 180.0 L 105.0 167.5 L 123.75 152.5 L 125.0 150.0 L 122.5 150.0 " stroke="black" fill="none" stroke-width="6.0" stroke-linecap="round" stroke-linejoin="round" />
<path d="M 70.0 221.25 L 71.25 221.25 L 83.75 215.0 L 107.5 200.0 L 131.25 187.5 L 138.75 178.75 L 137.5 173.75 L 126.25 173.75 L 122.5 173.75 " stroke="black" fill="none" stroke-width="6.0" stroke-linecap="round" stroke-linejoin="round" />
<path d="M 86.25 88.75 L 86.25 88.75 L 86.25 86.25 L 86.25 85.0 L 87.5 85.0 L 91.25 100.0 L 93.75 128.75 L 97.5 201.25 L 96.25 242.5 L 93.75 263.75 L 88.75 275.0 L 81.25 277.5 L 80.0 276.25 " stroke="black" fill="none" stroke-width="6.0" stroke-linecap="round" stroke-linejoin="round" />
<path d="M 143.75 105.0 L 143.75 105.0 L 143.75 105.0 L 150.0 103.75 L 173.75 95.0 L 198.75 83.75 L 208.75 77.5 L 208.75 76.25 L 198.75 80.0 L 191.25 83.75 " stroke="black" fill="none" stroke-width="6.0" stroke-linecap="round" stroke-linejoin="round" />
<path d="M 152.5 123.75 L 153.75 132.5 L 157.5 146.25 L 162.5 157.5 L 168.75 166.25 L 168.75 167.5 L 166.25 163.75 L 161.25 155.0 L 156.25 147.5 L 153.75 141.25 L 150.0 135.0 L 148.75 130.0 L 150.0 127.5 L 161.25 125.0 L 182.5 120.0 L 203.75 116.25 L 212.5 113.75 L 212.5 117.5 L 202.5 128.75 L 188.75 138.75 L 173.75 148.75 L 161.25 153.75 L 158.75 155.0 L 168.75 150.0 L 186.25 141.25 L 202.5 132.5 L 215.0 126.25 L 217.5 125.0 L 210.0 136.25 L 196.25 152.5 L 181.25 168.75 L 168.75 173.75 L 163.75 167.5 L 163.75 155.0 " stroke="black" fill="none" stroke-width="6.0" stroke-linecap="round" stroke-linejoin="round" />
<path d="M 180.0 85.0 L 180.0 85.0 L 180.0 85.0 L 182.5 108.75 L 187.5 147.5 L 193.75 171.25 L 197.5 176.25 L 200.0 175.0 L 202.5 168.75 L 207.5 158.75 L 215.0 151.25 L 221.25 147.5 L 223.75 147.5 L 222.5 156.25 L 211.25 176.25 L 198.75 193.75 L 182.5 203.75 L 177.5 205.0 " stroke="black" fill="none" stroke-width="6.0" stroke-linecap="round" stroke-linejoin="round" />
<path d="M 141.25 225.0 L 138.75 227.5 L 141.25 227.5 L 156.25 221.25 L 191.25 206.25 L 223.75 191.25 L 242.5 182.5 L 248.75 178.75 L 246.25 178.75 L 237.5 182.5 L 228.75 183.75 L 220.0 185.0 L 215.0 185.0 L 212.5 185.0 L 212.5 187.5 L 215.0 197.5 L 218.75 220.0 L 221.25 251.25 L 221.25 267.5 L 220.0 272.5 L 216.25 272.5 L 208.75 267.5 L 200.0 261.25 L 190.0 252.5 L 185.0 248.75 " stroke="black" fill="none" stroke-width="6.0" stroke-linecap="round" stroke-linejoin="round" />
<path d="M 165.0 215.0 L 165.0 216.25 L 166.25 216.25 L 173.75 223.75 L 188.75 238.75 L 201.25 252.5 L 202.5 255.0 " stroke="black" fill="none" stroke-width="6.0" stroke-linecap="round" stroke-linejoin="round" />
</svg>