<svg xmlns="http://www.w3.org/2000/svg" width="300" height="300" viewBox="0 0 300 300">
<path d="M 75.0 118.75 L 71.25 121.25 L 66.25 122.5 L 70.0 122.5 L 83.75 118.75 L 96.25 113.75 L 107.5 106.25 L 113.75 100.0 L 111.25 98.75 L 103.75 101.25 " stroke="black" fill="none" stroke-width="6.0" stroke-linecap="round" stroke-linejoin="round" />
<path d="M 70.0 143.75 L 68.75 146.25 L 68.75 150.0 L 72.5 161.25 L 80.0 181.25 L 85.0 196.25 L 87.5 203.75 L 86.25 202.5 L 86.25 201.25 " stroke="black" fill="none" stroke-width="6.0" stroke-linecap="round" stroke-linejoin="round" />
<path d="M 76.25 158.75 L 73.75 158.75 L 72.5 158.75 L 75.0 157.5 L 87.5 151.25 L 101.25 146.25 L 112.5 142.5 L 117.5 142.5 L 113.75 146.25 L 103.75 156.25 L 93.75 166.25 L 85.0 173.75 L 78.75 180.0 L 78.75 180.0 L 85.0 176.25 L 95.0 167.5 L 106.25 158.75 L 116.25 152.5 L 121.25 150.0 L 120.0 153.75 L 112.5 165.0 L 102.5 181.25 L 91.25 193.75 L 86.25 200.0 L 85.0 201.25 L 87.5 200.0 L 90.0 195.0 L 92.5 192.5 " stroke="black" fill="none" stroke-width="6.0" stroke-linecap="round" stroke-linejoin="round" />
<path d="M 70.0 232.5 L 70.0 232.5 L 71.25 233.75 L 82.5 225.0 L 105.0 207.5 L 126.25 190.0 L 138.75 178.75 L 138.75 172.5 L 135.0 170.0 L 132.5 168.75 " stroke="black" fill="none" stroke-width="6.0" stroke-linecap="round" stroke-linejoin="round" />
<path d="M 91.25 106.25 L 91.25 105.0 L 90.0 103.75 L 90.0 103.75 L 93.75 120.0 L 98.75 152.5 L 103.75 222.5 L 103.75 250.0 L 102.5 261.25 L 98.75 265.0 L 93.75 261.25 L 93.75 258.75 " stroke="black" fill="none" stroke-width="6.0" stroke-linecap="round" stroke-linejoin="round" />
<path d="M 142.5 132.5 L 142.5 131.25 L 143.75 130.0 L 148.75 127.5 L 160.0 122.5 L 175.0 117.5 L 185.0 115.0 L 186.25 116.25 L 183.75 117.5 " stroke="black" fill="none" stroke-width="6.0" stroke-linecap="round" stroke-linejoin="round" />
<path d="M 138.75 171.25 L 137.5 173.75 L 137.5 175.0 L 146.25 173.75 L 160.0 165.0 L 175.0 153.75 L 185.0 146.25 L 186.25 143.75 L 182.5 147.5 L 171.25 165.0 L 160.0 190.0 L 151.25 216.25 L 150.0 230.0 L 155.0 232.5 L 166.25 231.25 L 180.0 222.5 L 191.25 213.75 L 197.5 205.0 L 198.75 200.0 L 198.75 196.25 L 196.25 195.0 L 193.75 193.75 L 191.25 192.5 L 188.75 191.25 L 186.25 190.0 L 185.0 188.75 L 185.0 188.75 L 185.0 188.75 L 185.0 188.75 L 187.5 192.5 L 196.25 203.75 L 206.25 220.0 L 217.5 237.5 L 223.75 247.5 L 225.0 250.0 " stroke="black" fill="none" stroke-width="6.0" stroke-linecap="round" stroke-linejoin="round" />
</svg>