<svg xmlns="http://www.w3.org/2000/svg" width="300" height="300" viewBox="0 0 300 300">
<path d="M 90.0 83.75 L 90.0 82.5 L 88.75 81.25 L 87.5 83.75 L 82.5 96.25 L 72.5 118.75 L 55.0 138.75 " stroke="black" fill="none" stroke-width="6.0" stroke-linecap="round" stroke-linejoin="round" />
<path d="M 105.0 107.5 L 103.75 111.25 L 98.75 122.5 L 87.5 141.25 L 75.0 161.25 L 63.75 172.5 L 61.25 172.5 L 65.0 161.25 L 76.25 150.0 L 88.75 143.75 L 97.5 141.25 L 101.25 145.0 L 100.0 165.0 L 91.25 190.0 L 83.75 208.75 L 78.75 211.25 L 78.75 210.0 " stroke="black" fill="none" stroke-width="6.0" stroke-linecap="round" stroke-linejoin="round" />
<path d="M 151.25 78.75 L 151.25 77.5 L 152.5 76.25 L 161.25 73.75 L 180.0 71.25 L 197.5 65.0 L 206.25 62.5 L 205.0 63.75 " stroke="black" fill="none" stroke-width="6.0" stroke-linecap="round" stroke-linejoin="round" />
<path d="M 141.25 140.0 L 141.25 140.0 L 141.25 141.25 L 147.5 138.75 L 177.5 118.75 L 210.0 93.75 L 223.75 82.5 L 223.75 80.0 L 212.5 85.0 L 207.5 87.5 " stroke="black" fill="none" stroke-width="6.0" stroke-linecap="round" stroke-linejoin="round" />
<path d="M 195.0 103.75 L 195.0 107.5 L 195.0 123.75 L 197.5 162.5 L 198.75 211.25 L 198.75 235.0 L 197.5 242.5 L 196.25 242.5 L 193.75 242.5 L 188.75 238.75 L 178.75 230.0 L 163.75 217.5 L 148.75 207.5 " stroke="black" fill="none" stroke-width="6.0" stroke-linecap="round" stroke-linejoin="round" />
</svg>