<svg xmlns="http://www.w3.org/2000/svg" width="300" height="300" viewBox="0 0 300 300">
<path d="M 75.0 103.75 L 75.0 103.75 L 76.25 105.0 L 76.25 115.0 L 72.5 137.5 L 63.75 155.0 L 58.75 161.25 L 58.75 155.0 L 62.5 146.25 L 77.5 131.25 L 92.5 121.25 L 103.75 120.0 L 107.5 127.5 L 103.75 147.5 L 91.25 172.5 L 75.0 198.75 L 61.25 211.25 L 56.25 210.0 L 58.75 201.25 " stroke="black" fill="none" stroke-width="6.0" stroke-linecap="round" stroke-linejoin="round" />
<path d="M 107.5 156.25 L 107.5 161.25 L 107.5 172.5 L 103.75 195.0 L 100.0 216.25 L 95.0 228.75 L 93.75 228.75 " stroke="black" fill="none" stroke-width="6.0" stroke-linecap="round" stroke-linejoin="round" />
<path d="M 170.0 88.75 L 170.0 88.75 L 170.0 90.0 L 172.5 90.0 L 187.5 86.25 L 210.0 77.5 L 223.75 70.0 L 221.25 70.0 " stroke="black" fill="none" stroke-width="6.0" stroke-linecap="round" stroke-linejoin="round" />
<path d="M 156.25 153.75 L 156.25 153.75 L 156.25 155.0 L 165.0 150.0 L 196.25 131.25 L 223.75 108.75 L 236.25 96.25 L 232.5 95.0 " stroke="black" fill="none" stroke-width="6.0" stroke-linecap="round" stroke-linejoin="round" />
<path d="M 208.75 118.75 L 207.5 127.5 L 208.75 148.75 L 212.5 185.0 L 213.75 216.25 L 211.25 236.25 L 207.5 241.25 L 202.5 242.5 L 191.25 241.25 L 175.0 237.5 L 155.0 226.25 " stroke="black" fill="none" stroke-width="6.0" stroke-linecap="round" stroke-linejoin="round" />
</svg>