<svg xmlns="http://www.w3.org/2000/svg" width="300" height="300" viewBox="0 0 300 300">
<path d="M 101.25 95.0 L 101.25 95.0 L 101.25 95.0 L 98.75 95.0 L 93.75 108.75 L 81.25 135.0 L 71.25 152.5 L 68.75 155.0 L 70.0 150.0 " stroke="black" fill="none" stroke-width="6.0" stroke-linecap="round" stroke-linejoin="round" />
<path d="M 126.25 116.25 L 127.5 117.5 L 126.25 125.0 L 115.0 142.5 L 97.5 166.25 L 88.75 182.5 L 85.0 183.75 L 85.0 178.75 " stroke="black" fill="none" stroke-width="6.0" stroke-linecap="round" stroke-linejoin="round" />
<path d="M 115.0 143.75 L 116.25 145.0 L 120.0 156.25 L 120.0 172.5 L 117.5 202.5 L 112.5 216.25 L 110.0 216.25 " stroke="black" fill="none" stroke-width="6.0" stroke-linecap="round" stroke-linejoin="round" />
<path d="M 163.75 87.5 L 163.75 87.5 L 167.5 87.5 L 183.75 85.0 L 206.25 78.75 L 221.25 71.25 L 220.0 68.75 L 212.5 72.5 " stroke="black" fill="none" stroke-width="6.0" stroke-linecap="round" stroke-linejoin="round" />
<path d="M 145.0 151.25 L 142.5 156.25 L 146.25 157.5 L 163.75 148.75 L 196.25 127.5 L 220.0 105.0 L 233.75 90.0 L 233.75 88.75 L 222.5 93.75 L 211.25 100.0 L 205.0 107.5 L 203.75 115.0 L 203.75 127.5 L 207.5 157.5 L 210.0 205.0 L 208.75 238.75 L 207.5 248.75 L 205.0 248.75 L 201.25 246.25 L 192.5 241.25 L 176.25 232.5 " stroke="black" fill="none" stroke-width="6.0" stroke-linecap="round" stroke-linejoin="round" />
</svg>