<svg xmlns="http://www.w3.org/2000/svg" width="300" height="300" viewBox="0 0 300 300">
<path d="M 82.5 91.25 L 82.5 87.5 L 82.5 85.0 L 82.5 87.5 L 81.25 103.75 L 73.75 126.25 L 63.75 145.0 L 55.0 150.0 L 55.0 148.75 " stroke="black" fill="none" stroke-width="6.0" stroke-linecap="round" stroke-linejoin="round" />
<path d="M 111.25 100.0 L 112.5 101.25 L 110.0 111.25 L 95.0 141.25 L 77.5 170.0 L 62.5 187.5 L 55.0 190.0 L 53.75 186.25 " stroke="black" fill="none" stroke-width="6.0" stroke-linecap="round" stroke-linejoin="round" />
<path d="M 105.0 151.25 L 105.0 163.75 L 103.75 186.25 L 100.0 211.25 L 96.25 226.25 L 93.75 227.5 " stroke="black" fill="none" stroke-width="6.0" stroke-linecap="round" stroke-linejoin="round" />
<path d="M 161.25 82.5 L 160.0 82.5 L 156.25 83.75 L 156.25 85.0 L 168.75 85.0 L 190.0 81.25 L 210.0 75.0 L 220.0 71.25 L 215.0 73.75 L 203.75 82.5 " stroke="black" fill="none" stroke-width="6.0" stroke-linecap="round" stroke-linejoin="round" />
<path d="M 141.25 147.5 L 137.5 153.75 L 140.0 155.0 L 153.75 151.25 L 182.5 135.0 L 211.25 112.5 L 230.0 95.0 L 233.75 91.25 L 227.5 92.5 L 217.5 98.75 L 208.75 106.25 L 203.75 115.0 L 200.0 125.0 L 201.25 145.0 L 203.75 181.25 L 205.0 216.25 L 203.75 238.75 L 201.25 245.0 L 200.0 246.25 L 200.0 245.0 L 197.5 245.0 L 192.5 242.5 L 185.0 237.5 L 170.0 230.0 L 147.5 217.5 " stroke="black" fill="none" stroke-width="6.0" stroke-linecap="round" stroke-linejoin="round" />
</svg>