<svg xmlns="http://www.w3.org/2000/svg" width="300" height="300" viewBox="0 0 300 300">
<path d="M 87.5 80.0 L 85.0 81.25 L 83.75 81.25 L 87.5 81.25 L 110.0 76.25 L 143.75 65.0 L 170.0 55.0 L 177.5 51.25 L 167.5 50.0 " stroke="black" fill="none" stroke-width="6.0" stroke-linecap="round" stroke-linejoin="round" />
<path d="M 113.75 60.0 L 112.5 66.25 L 112.5 78.75 L 115.0 95.0 L 120.0 108.75 L 125.0 108.75 " stroke="black" fill="none" stroke-width="6.0" stroke-linecap="round" stroke-linejoin="round" />
<path d="M 171.25 38.75 L 172.5 38.75 L 170.0 42.5 L 158.75 58.75 L 145.0 81.25 L 130.0 96.25 L 115.0 106.25 L 108.75 110.0 L 110.0 111.25 L 123.75 107.5 L 143.75 98.75 L 163.75 87.5 L 180.0 77.5 L 183.75 75.0 L 176.25 78.75 L 166.25 83.75 " stroke="black" fill="none" stroke-width="6.0" stroke-linecap="round" stroke-linejoin="round" />
<path d="M 90.0 160.0 L 88.75 160.0 L 88.75 160.0 L 101.25 156.25 L 137.5 141.25 L 173.75 121.25 L 195.0 106.25 L 198.75 102.5 L 185.0 105.0 L 166.25 112.5 L 145.0 122.5 L 123.75 135.0 L 107.5 151.25 L 101.25 176.25 L 107.5 192.5 L 122.5 193.75 L 138.75 182.5 L 156.25 161.25 L 175.0 138.75 L 191.25 118.75 L 197.5 110.0 L 195.0 111.25 L 180.0 128.75 L 160.0 153.75 L 137.5 181.25 L 111.25 210.0 L 100.0 222.5 L 106.25 220.0 L 128.75 208.75 L 153.75 192.5 L 176.25 176.25 L 193.75 163.75 L 193.75 161.25 L 178.75 176.25 L 156.25 197.5 L 132.5 222.5 L 108.75 250.0 L 105.0 260.0 L 123.75 257.5 L 152.5 243.75 L 187.5 218.75 L 220.0 195.0 L 233.75 182.5 L 231.25 176.25 L 215.0 173.75 L 197.5 172.5 L 177.5 166.25 L 158.75 153.75 L 152.5 142.5 L 152.5 130.0 L 153.75 120.0 L 153.75 112.5 L 153.75 107.5 L 155.0 106.25 L 155.0 106.25 L 155.0 106.25 L 155.0 108.75 L 155.0 115.0 L 156.25 126.25 L 157.5 137.5 L 160.0 151.25 L 162.5 176.25 L 165.0 216.25 L 168.75 261.25 L 171.25 297.5 L 172.5 315.0 L 171.25 325.0 L 167.5 332.5 L 158.75 336.25 " stroke="black" fill="none" stroke-width="6.0" stroke-linecap="round" stroke-linejoin="round" />
</svg>