<svg xmlns="http://www.w3.org/2000/svg" width="300" height="300" viewBox="0 0 300 300">
<path d="M 57.5 136.25 L 57.5 136.25 L 52.5 136.25 L 57.5 136.25 L 76.25 132.5 L 97.5 125.0 L 111.25 117.5 L 113.75 111.25 L 110.0 110.0 L 105.0 108.75 L 100.0 107.5 L 96.25 106.25 L 92.5 105.0 L 90.0 105.0 L 88.75 115.0 L 90.0 150.0 L 95.0 203.75 L 96.25 235.0 L 97.5 241.25 L 97.5 241.25 L 97.5 238.75 L 95.0 235.0 L 88.75 227.5 L 80.0 218.75 L 68.75 210.0 L 57.5 205.0 L 53.75 203.75 L 55.0 203.75 L 68.75 201.25 L 88.75 191.25 L 110.0 173.75 L 127.5 152.5 L 130.0 148.75 " stroke="black" fill="none" stroke-width="6.0" stroke-linecap="round" stroke-linejoin="round" />
<path d="M 142.5 86.25 L 142.5 86.25 L 140.0 86.25 L 141.25 86.25 L 151.25 87.5 L 166.25 87.5 L 181.25 87.5 L 187.5 90.0 L 187.5 90.0 " stroke="black" fill="none" stroke-width="6.0" stroke-linecap="round" stroke-linejoin="round" />
<path d="M 128.75 138.75 L 123.75 143.75 L 125.0 143.75 L 136.25 141.25 L 150.0 133.75 L 167.5 122.5 L 178.75 112.5 L 181.25 108.75 L 173.75 112.5 L 163.75 118.75 L 153.75 130.0 L 146.25 150.0 L 142.5 188.75 L 143.75 218.75 L 146.25 228.75 L 147.5 231.25 L 148.75 227.5 L 148.75 218.75 L 148.75 210.0 L 146.25 200.0 L 145.0 191.25 L 143.75 183.75 L 143.75 177.5 L 150.0 171.25 L 161.25 161.25 L 177.5 151.25 L 188.75 146.25 L 193.75 148.75 L 192.5 162.5 L 190.0 187.5 L 190.0 208.75 L 192.5 225.0 L 198.75 235.0 L 205.0 238.75 L 212.5 240.0 L 221.25 241.25 L 227.5 241.25 L 231.25 242.5 L 231.25 242.5 L 231.25 242.5 L 231.25 243.75 L 231.25 243.75 L 231.25 243.75 L 231.25 243.75 L 231.25 243.75 L 231.25 243.75 L 231.25 243.75 L 233.75 237.5 L 238.75 220.0 L 243.75 187.5 L 243.75 176.25 " stroke="black" fill="none" stroke-width="6.0" stroke-linecap="round" stroke-linejoin="round" />
</svg>