<svg xmlns="http://www.w3.org/2000/svg" width="300" height="300" viewBox="0 0 300 300">
<path d="M 58.75 158.75 L 53.75 161.25 L 55.0 162.5 L 68.75 158.75 L 91.25 148.75 L 112.5 133.75 L 128.75 120.0 L 132.5 112.5 L 125.0 112.5 " stroke="black" fill="none" stroke-width="6.0" stroke-linecap="round" stroke-linejoin="round" />
<path d="M 95.0 127.5 L 95.0 127.5 L 92.5 127.5 L 92.5 127.5 L 95.0 142.5 L 102.5 186.25 L 107.5 225.0 L 107.5 241.25 L 107.5 245.0 L 107.5 245.0 L 106.25 245.0 L 103.75 242.5 L 98.75 238.75 L 92.5 232.5 L 85.0 225.0 L 78.75 218.75 L 73.75 213.75 L 71.25 212.5 L 70.0 212.5 L 71.25 212.5 L 73.75 212.5 L 82.5 212.5 L 97.5 205.0 L 115.0 188.75 L 128.75 166.25 " stroke="black" fill="none" stroke-width="6.0" stroke-linecap="round" stroke-linejoin="round" />
<path d="M 163.75 85.0 L 160.0 85.0 L 158.75 86.25 L 165.0 87.5 L 181.25 88.75 L 197.5 90.0 L 207.5 90.0 L 210.0 90.0 L 206.25 91.25 " stroke="black" fill="none" stroke-width="6.0" stroke-linecap="round" stroke-linejoin="round" />
<path d="M 148.75 150.0 L 146.25 152.5 L 142.5 155.0 L 143.75 155.0 L 152.5 151.25 L 166.25 143.75 L 182.5 133.75 L 197.5 122.5 L 202.5 116.25 L 201.25 115.0 " stroke="black" fill="none" stroke-width="6.0" stroke-linecap="round" stroke-linejoin="round" />
<path d="M 158.75 150.0 L 158.75 151.25 L 156.25 153.75 L 156.25 156.25 L 156.25 157.5 L 156.25 157.5 L 156.25 157.5 L 156.25 157.5 L 156.25 157.5 L 156.25 157.5 L 156.25 157.5 L 156.25 158.75 L 157.5 165.0 L 157.5 177.5 L 158.75 195.0 L 160.0 210.0 L 160.0 220.0 L 160.0 222.5 L 160.0 223.75 L 160.0 223.75 L 160.0 222.5 L 160.0 220.0 L 160.0 216.25 L 158.75 210.0 L 158.75 206.25 " stroke="black" fill="none" stroke-width="6.0" stroke-linecap="round" stroke-linejoin="round" />
<path d="M 157.5 193.75 L 156.25 193.75 L 153.75 193.75 L 153.75 193.75 L 158.75 192.5 L 170.0 185.0 L 185.0 171.25 L 197.5 157.5 L 202.5 150.0 L 202.5 148.75 L 201.25 150.0 L 201.25 153.75 L 201.25 167.5 L 202.5 190.0 L 206.25 215.0 L 213.75 233.75 L 223.75 243.75 L 232.5 246.25 L 240.0 248.75 L 243.75 250.0 L 245.0 250.0 L 245.0 251.25 L 245.0 251.25 L 245.0 251.25 L 245.0 251.25 L 245.0 251.25 L 245.0 251.25 L 245.0 251.25 L 245.0 251.25 L 247.5 245.0 L 251.25 225.0 L 253.75 190.0 L 255.0 167.5 " stroke="black" fill="none" stroke-width="6.0" stroke-linecap="round" stroke-linejoin="round" />
</svg>