<svg xmlns="http://www.w3.org/2000/svg" width="300" height="300" viewBox="0 0 300 300">
<path d="M 71.25 135.0 L 66.25 137.5 L 61.25 140.0 L 63.75 140.0 L 77.5 138.75 L 93.75 133.75 L 111.25 123.75 L 122.5 112.5 L 123.75 106.25 L 122.5 105.0 " stroke="black" fill="none" stroke-width="6.0" stroke-linecap="round" stroke-linejoin="round" />
<path d="M 96.25 107.5 L 95.0 111.25 L 92.5 122.5 L 95.0 153.75 L 98.75 201.25 L 100.0 222.5 L 100.0 232.5 L 100.0 235.0 L 100.0 235.0 L 100.0 235.0 L 100.0 232.5 L 98.75 228.75 L 96.25 223.75 L 93.75 217.5 L 91.25 213.75 L 88.75 210.0 L 86.25 207.5 L 85.0 206.25 L 83.75 206.25 L 83.75 207.5 L 83.75 208.75 L 85.0 208.75 " stroke="black" fill="none" stroke-width="6.0" stroke-linecap="round" stroke-linejoin="round" />
<path d="M 73.75 182.5 L 68.75 190.0 L 68.75 191.25 L 78.75 190.0 L 95.0 177.5 L 108.75 158.75 " stroke="black" fill="none" stroke-width="6.0" stroke-linecap="round" stroke-linejoin="round" />
<path d="M 148.75 83.75 L 147.5 83.75 L 147.5 83.75 L 148.75 83.75 L 158.75 85.0 L 175.0 86.25 L 190.0 86.25 L 198.75 85.0 L 196.25 85.0 L 187.5 87.5 " stroke="black" fill="none" stroke-width="6.0" stroke-linecap="round" stroke-linejoin="round" />
<path d="M 140.0 128.75 L 138.75 130.0 L 135.0 132.5 L 136.25 132.5 L 145.0 130.0 L 160.0 121.25 L 177.5 108.75 L 190.0 98.75 L 193.75 95.0 L 187.5 97.5 L 177.5 102.5 L 167.5 108.75 L 157.5 118.75 L 151.25 131.25 L 148.75 155.0 L 147.5 191.25 L 147.5 213.75 L 150.0 221.25 L 151.25 222.5 L 152.5 220.0 L 153.75 213.75 L 153.75 211.25 " stroke="black" fill="none" stroke-width="6.0" stroke-linecap="round" stroke-linejoin="round" />
<path d="M 153.75 162.5 L 151.25 161.25 L 150.0 160.0 L 151.25 157.5 L 160.0 152.5 L 171.25 146.25 L 181.25 142.5 L 186.25 141.25 L 187.5 143.75 L 187.5 153.75 L 188.75 172.5 L 191.25 195.0 L 196.25 211.25 L 200.0 221.25 L 205.0 227.5 L 210.0 230.0 L 217.5 232.5 L 223.75 233.75 L 228.75 233.75 L 232.5 235.0 L 232.5 236.25 L 233.75 237.5 L 233.75 237.5 L 233.75 238.75 L 233.75 238.75 L 233.75 238.75 L 233.75 237.5 L 235.0 228.75 L 236.25 208.75 L 236.25 171.25 " stroke="black" fill="none" stroke-width="6.0" stroke-linecap="round" stroke-linejoin="round" />
</svg>