<svg xmlns="http://www.w3.org/2000/svg" width="300" height="300" viewBox="0 0 300 300">
<path d="M 96.25 138.75 L 95.0 140.0 L 93.75 141.25 L 101.25 140.0 L 125.0 131.25 L 157.5 112.5 L 180.0 97.5 L 185.0 92.5 " stroke="black" fill="none" stroke-width="6.0" stroke-linecap="round" stroke-linejoin="round" />
<path d="M 132.5 91.25 L 128.75 98.75 L 125.0 125.0 L 120.0 168.75 L 108.75 206.25 L 101.25 220.0 L 96.25 222.5 L 95.0 221.25 " stroke="black" fill="none" stroke-width="6.0" stroke-linecap="round" stroke-linejoin="round" />
<path d="M 125.0 165.0 L 125.0 165.0 L 126.25 165.0 L 135.0 163.75 L 157.5 157.5 L 185.0 150.0 L 202.5 142.5 L 205.0 138.75 L 202.5 138.75 " stroke="black" fill="none" stroke-width="6.0" stroke-linecap="round" stroke-linejoin="round" />
<path d="M 168.75 155.0 L 168.75 158.75 L 166.25 163.75 L 165.0 172.5 L 165.0 188.75 L 165.0 205.0 L 162.5 217.5 L 158.75 223.75 L 153.75 227.5 L 147.5 228.75 L 142.5 230.0 L 137.5 231.25 L 133.75 231.25 L 132.5 231.25 L 131.25 231.25 L 131.25 231.25 L 131.25 231.25 L 131.25 231.25 L 131.25 231.25 L 131.25 231.25 L 132.5 231.25 L 133.75 231.25 L 136.25 231.25 L 141.25 230.0 L 152.5 226.25 L 175.0 220.0 L 201.25 213.75 L 220.0 211.25 L 228.75 210.0 L 230.0 210.0 L 228.75 210.0 L 223.75 208.75 " stroke="black" fill="none" stroke-width="6.0" stroke-linecap="round" stroke-linejoin="round" />
</svg>