<svg xmlns="http://www.w3.org/2000/svg" width="300" height="300" viewBox="0 0 300 300">
<path d="M 130.0 127.5 L 125.0 123.75 L 123.75 122.5 L 122.5 122.5 L 118.75 127.5 L 107.5 146.25 L 87.5 181.25 L 67.5 208.75 L 58.75 211.25 L 56.25 203.75 L 60.0 196.25 " stroke="black" fill="none" stroke-width="6.0" stroke-linecap="round" stroke-linejoin="round" />
<path d="M 106.25 172.5 L 106.25 196.25 L 103.75 222.5 L 97.5 250.0 L 92.5 263.75 L 90.0 260.0 " stroke="black" fill="none" stroke-width="6.0" stroke-linecap="round" stroke-linejoin="round" />
<path d="M 132.5 153.75 L 132.5 153.75 L 133.75 156.25 L 137.5 170.0 L 140.0 200.0 L 140.0 220.0 L 137.5 226.25 L 137.5 226.25 L 141.25 223.75 L 155.0 218.75 L 180.0 215.0 L 206.25 213.75 L 231.25 212.5 L 246.25 212.5 L 248.75 210.0 L 250.0 206.25 L 246.25 200.0 L 242.5 195.0 L 241.25 190.0 L 241.25 183.75 L 241.25 181.25 L 241.25 180.0 L 241.25 178.75 L 241.25 178.75 L 242.5 181.25 L 245.0 190.0 L 247.5 203.75 L 250.0 221.25 L 250.0 236.25 " stroke="black" fill="none" stroke-width="6.0" stroke-linecap="round" stroke-linejoin="round" />
<path d="M 185.0 102.5 L 182.5 102.5 L 182.5 107.5 L 188.75 131.25 L 193.75 167.5 L 192.5 201.25 L 190.0 207.5 " stroke="black" fill="none" stroke-width="6.0" stroke-linecap="round" stroke-linejoin="round" />
</svg>