<svg xmlns="http://www.w3.org/2000/svg" width="300" height="300" viewBox="0 0 300 300">
<path d="M 98.75 96.25 L 96.25 96.25 L 93.75 96.25 L 100.0 96.25 L 122.5 92.5 L 153.75 86.25 L 181.25 76.25 L 191.25 70.0 L 188.75 67.5 L 176.25 66.25 L 166.25 67.5 " stroke="black" fill="none" stroke-width="6.0" stroke-linecap="round" stroke-linejoin="round" />
<path d="M 132.5 75.0 L 130.0 77.5 L 128.75 83.75 L 130.0 95.0 L 132.5 107.5 L 133.75 115.0 L 133.75 115.0 " stroke="black" fill="none" stroke-width="6.0" stroke-linecap="round" stroke-linejoin="round" />
<path d="M 161.25 70.0 L 162.5 68.75 L 163.75 68.75 L 162.5 80.0 L 155.0 102.5 L 145.0 131.25 L 141.25 136.25 " stroke="black" fill="none" stroke-width="6.0" stroke-linecap="round" stroke-linejoin="round" />
<path d="M 110.0 155.0 L 105.0 157.5 L 102.5 157.5 L 107.5 157.5 L 123.75 153.75 L 145.0 146.25 L 163.75 137.5 L 175.0 131.25 L 172.5 130.0 L 168.75 131.25 " stroke="black" fill="none" stroke-width="6.0" stroke-linecap="round" stroke-linejoin="round" />
<path d="M 92.5 202.5 L 90.0 203.75 L 90.0 205.0 L 101.25 205.0 L 125.0 196.25 L 153.75 180.0 L 173.75 162.5 L 181.25 152.5 L 178.75 148.75 L 168.75 147.5 " stroke="black" fill="none" stroke-width="6.0" stroke-linecap="round" stroke-linejoin="round" />
<path d="M 133.75 135.0 L 133.75 133.75 L 133.75 133.75 L 136.25 142.5 L 138.75 173.75 L 132.5 216.25 L 122.5 241.25 L 110.0 250.0 L 96.25 252.5 L 91.25 251.25 " stroke="black" fill="none" stroke-width="6.0" stroke-linecap="round" stroke-linejoin="round" />
<path d="M 140.0 186.25 L 141.25 185.0 L 145.0 185.0 L 148.75 186.25 L 152.5 192.5 L 157.5 198.75 L 161.25 206.25 L 167.5 212.5 L 175.0 217.5 L 183.75 223.75 L 193.75 232.5 L 203.75 240.0 L 211.25 245.0 L 218.75 248.75 L 225.0 250.0 L 227.5 250.0 L 230.0 251.25 L 230.0 251.25 " stroke="black" fill="none" stroke-width="6.0" stroke-linecap="round" stroke-linejoin="round" />
</svg>