<svg xmlns="http://www.w3.org/2000/svg" width="300" height="300" viewBox="0 0 300 300">
<path d="M 75.0 141.25 L 72.5 142.5 L 71.25 142.5 L 80.0 140.0 L 91.25 136.25 L 101.25 131.25 L 103.75 130.0 " stroke="black" fill="none" stroke-width="6.0" stroke-linecap="round" stroke-linejoin="round" />
<path d="M 75.0 182.5 L 73.75 183.75 L 70.0 188.75 L 72.5 190.0 L 82.5 186.25 L 93.75 178.75 L 103.75 167.5 L 107.5 161.25 " stroke="black" fill="none" stroke-width="6.0" stroke-linecap="round" stroke-linejoin="round" />
<path d="M 80.0 238.75 L 77.5 241.25 L 75.0 242.5 L 82.5 235.0 L 97.5 216.25 L 108.75 200.0 " stroke="black" fill="none" stroke-width="6.0" stroke-linecap="round" stroke-linejoin="round" />
<path d="M 142.5 106.25 L 138.75 108.75 L 136.25 108.75 L 141.25 108.75 L 156.25 107.5 L 176.25 102.5 L 196.25 97.5 L 205.0 96.25 L 205.0 100.0 L 195.0 112.5 L 180.0 128.75 L 166.25 137.5 L 152.5 141.25 " stroke="black" fill="none" stroke-width="6.0" stroke-linecap="round" stroke-linejoin="round" />
<path d="M 140.0 123.75 L 136.25 118.75 L 135.0 117.5 L 135.0 116.25 L 136.25 127.5 L 137.5 153.75 L 133.75 187.5 L 126.25 217.5 L 117.5 228.75 L 111.25 230.0 " stroke="black" fill="none" stroke-width="6.0" stroke-linecap="round" stroke-linejoin="round" />
<path d="M 158.75 80.0 L 158.75 75.0 L 161.25 73.75 L 163.75 81.25 L 166.25 108.75 L 166.25 146.25 L 163.75 171.25 L 161.25 182.5 L 160.0 182.5 L 160.0 181.25 L 160.0 180.0 L 162.5 177.5 L 170.0 171.25 L 181.25 165.0 L 191.25 160.0 L 198.75 158.75 L 200.0 161.25 L 195.0 175.0 L 183.75 192.5 L 171.25 210.0 L 157.5 222.5 L 150.0 228.75 L 148.75 228.75 " stroke="black" fill="none" stroke-width="6.0" stroke-linecap="round" stroke-linejoin="round" />
<path d="M 148.75 195.0 L 146.25 193.75 L 145.0 192.5 L 145.0 190.0 L 145.0 188.75 L 147.5 187.5 L 148.75 187.5 L 148.75 187.5 L 150.0 187.5 L 150.0 187.5 L 150.0 187.5 L 150.0 187.5 L 152.5 190.0 L 158.75 195.0 L 172.5 203.75 L 192.5 215.0 L 210.0 225.0 L 225.0 232.5 L 232.5 236.25 " stroke="black" fill="none" stroke-width="6.0" stroke-linecap="round" stroke-linejoin="round" />
</svg>