<svg xmlns="http://www.w3.org/2000/svg" width="300" height="300" viewBox="0 0 300 300">
<path d="M 86.25 132.5 L 82.5 132.5 L 78.75 132.5 L 81.25 131.25 L 91.25 130.0 L 102.5 126.25 L 113.75 122.5 L 120.0 120.0 L 120.0 120.0 " stroke="black" fill="none" stroke-width="6.0" stroke-linecap="round" stroke-linejoin="round" />
<path d="M 83.75 178.75 L 80.0 182.5 L 80.0 183.75 L 86.25 182.5 L 97.5 173.75 L 108.75 163.75 L 115.0 156.25 L 115.0 156.25 " stroke="black" fill="none" stroke-width="6.0" stroke-linecap="round" stroke-linejoin="round" />
<path d="M 83.75 231.25 L 80.0 236.25 L 78.75 237.5 L 85.0 233.75 L 96.25 221.25 L 107.5 207.5 L 110.0 202.5 " stroke="black" fill="none" stroke-width="6.0" stroke-linecap="round" stroke-linejoin="round" />
<path d="M 140.0 128.75 L 135.0 130.0 L 132.5 131.25 L 135.0 131.25 L 147.5 128.75 L 166.25 121.25 L 192.5 111.25 L 210.0 105.0 L 213.75 105.0 L 211.25 107.5 L 201.25 121.25 L 190.0 135.0 L 175.0 146.25 L 168.75 148.75 " stroke="black" fill="none" stroke-width="6.0" stroke-linecap="round" stroke-linejoin="round" />
<path d="M 143.75 142.5 L 143.75 142.5 L 140.0 141.25 L 138.75 141.25 L 138.75 145.0 L 140.0 165.0 L 141.25 198.75 L 142.5 220.0 L 142.5 225.0 L 143.75 220.0 " stroke="black" fill="none" stroke-width="6.0" stroke-linecap="round" stroke-linejoin="round" />
<path d="M 166.25 88.75 L 166.25 88.75 L 166.25 86.25 L 166.25 86.25 L 170.0 100.0 L 171.25 132.5 L 171.25 163.75 L 166.25 183.75 L 163.75 187.5 L 163.75 187.5 L 163.75 185.0 L 170.0 181.25 L 180.0 173.75 L 191.25 163.75 L 198.75 157.5 L 201.25 157.5 L 200.0 166.25 L 191.25 187.5 L 180.0 207.5 L 166.25 225.0 L 155.0 235.0 L 151.25 233.75 L 151.25 232.5 " stroke="black" fill="none" stroke-width="6.0" stroke-linecap="round" stroke-linejoin="round" />
<path d="M 156.25 192.5 L 155.0 191.25 L 153.75 191.25 L 153.75 190.0 L 153.75 190.0 L 155.0 190.0 L 157.5 190.0 L 158.75 191.25 L 160.0 192.5 L 161.25 192.5 L 162.5 193.75 L 162.5 193.75 L 163.75 195.0 L 165.0 196.25 L 168.75 200.0 L 177.5 210.0 L 192.5 227.5 L 210.0 243.75 L 231.25 250.0 L 250.0 250.0 L 252.5 250.0 " stroke="black" fill="none" stroke-width="6.0" stroke-linecap="round" stroke-linejoin="round" />
</svg>