<svg xmlns="http://www.w3.org/2000/svg" width="300" height="300" viewBox="0 0 300 300">
<path d="M 132.5 88.75 L 132.5 88.75 L 132.5 88.75 L 137.5 87.5 L 152.5 86.25 L 168.75 86.25 L 175.0 92.5 L 170.0 102.5 L 161.25 111.25 L 151.25 121.25 L 151.25 122.5 L 156.25 122.5 L 167.5 123.75 L 177.5 133.75 L 181.25 161.25 L 180.0 200.0 L 173.75 227.5 L 168.75 243.75 L 165.0 246.25 L 162.5 246.25 L 157.5 241.25 L 148.75 232.5 L 145.0 227.5 " stroke="black" fill="none" stroke-width="6.0" stroke-linecap="round" stroke-linejoin="round" />
<path d="M 87.5 176.25 L 87.5 176.25 L 87.5 176.25 L 120.0 176.25 L 166.25 168.75 L 211.25 162.5 L 246.25 161.25 L 255.0 161.25 " stroke="black" fill="none" stroke-width="6.0" stroke-linecap="round" stroke-linejoin="round" />
</svg>