<svg xmlns="http://www.w3.org/2000/svg" width="300" height="300" viewBox="0 0 300 300">
<path d="M 128.75 82.5 L 127.5 82.5 L 123.75 82.5 L 122.5 82.5 L 133.75 82.5 L 155.0 82.5 L 178.75 81.25 L 192.5 81.25 L 191.25 88.75 L 175.0 102.5 L 158.75 113.75 L 147.5 123.75 L 145.0 126.25 L 150.0 126.25 L 160.0 128.75 L 172.5 135.0 L 183.75 152.5 L 187.5 188.75 L 186.25 225.0 L 181.25 251.25 L 176.25 261.25 L 171.25 263.75 L 165.0 262.5 L 153.75 256.25 L 147.5 250.0 " stroke="black" fill="none" stroke-width="6.0" stroke-linecap="round" stroke-linejoin="round" />
<path d="M 88.75 173.75 L 85.0 173.75 L 83.75 173.75 L 90.0 175.0 L 121.25 173.75 L 168.75 168.75 L 213.75 166.25 L 243.75 166.25 L 250.0 168.75 " stroke="black" fill="none" stroke-width="6.0" stroke-linecap="round" stroke-linejoin="round" />
</svg>