<svg xmlns="http://www.w3.org/2000/svg" width="300" height="300" viewBox="0 0 300 300">
<path d="M 132.5 83.75 L 121.25 83.75 L 115.0 83.75 L 113.75 83.75 L 118.75 83.75 L 136.25 81.25 L 158.75 76.25 L 177.5 73.75 L 188.75 75.0 L 187.5 82.5 L 172.5 96.25 L 158.75 108.75 L 151.25 117.5 L 151.25 121.25 L 158.75 125.0 L 168.75 130.0 L 176.25 141.25 L 178.75 168.75 L 178.75 202.5 L 176.25 223.75 L 173.75 238.75 L 170.0 242.5 L 165.0 243.75 L 155.0 242.5 L 143.75 237.5 L 133.75 231.25 " stroke="black" fill="none" stroke-width="6.0" stroke-linecap="round" stroke-linejoin="round" />
<path d="M 91.25 158.75 L 88.75 160.0 L 87.5 162.5 L 95.0 166.25 L 123.75 168.75 L 168.75 163.75 L 216.25 152.5 L 248.75 148.75 L 258.75 148.75 L 256.25 150.0 " stroke="black" fill="none" stroke-width="6.0" stroke-linecap="round" stroke-linejoin="round" />
</svg>