<svg xmlns="http://www.w3.org/2000/svg" width="300" height="300" viewBox="0 0 300 300">
<path d="M 150.0 141.25 L 148.75 141.25 L 148.75 141.25 L 148.75 141.25 L 150.0 142.5 L 151.25 146.25 L 151.25 151.25 L 147.5 153.75 L 142.5 155.0 L 136.25 153.75 L 135.0 147.5 L 138.75 138.75 L 146.25 132.5 L 152.5 131.25 L 157.5 133.75 L 158.75 141.25 L 156.25 148.75 L 151.25 152.5 L 146.25 153.75 L 142.5 151.25 L 142.5 143.75 L 145.0 136.25 L 148.75 131.25 L 153.75 131.25 L 157.5 136.25 L 157.5 143.75 L 155.0 150.0 L 151.25 153.75 L 146.25 155.0 L 142.5 152.5 L 142.5 146.25 L 145.0 138.75 L 150.0 135.0 L 155.0 135.0 L 158.75 137.5 L 158.75 143.75 L 157.5 150.0 L 153.75 152.5 L 150.0 152.5 L 148.75 150.0 L 148.75 143.75 L 148.75 140.0 L 151.25 137.5 L 153.75 137.5 L 156.25 141.25 L 156.25 145.0 L 155.0 150.0 L 152.5 151.25 L 148.75 151.25 L 147.5 148.75 L 147.5 143.75 L 150.0 140.0 L 153.75 137.5 L 155.0 138.75 L 156.25 142.5 L 155.0 147.5 L 152.5 150.0 L 150.0 150.0 L 147.5 150.0 L 146.25 147.5 L 146.25 143.75 L 146.25 141.25 L 148.75 141.25 L 151.25 141.25 L 152.5 142.5 L 152.5 145.0 L 152.5 147.5 L 150.0 147.5 L 148.75 147.5 L 148.75 145.0 L 148.75 141.25 L 151.25 138.75 L 156.25 138.75 L 161.25 141.25 L 163.75 151.25 L 162.5 165.0 L 153.75 180.0 L 141.25 191.25 L 132.5 195.0 " stroke="black" fill="none" stroke-width="6.0" stroke-linecap="round" stroke-linejoin="round" />
</svg>