<svg xmlns="http://www.w3.org/2000/svg" width="300" height="300" viewBox="0 0 300 300">
<path d="M 152.5 137.5 L 152.5 137.5 L 151.25 137.5 L 150.0 137.5 L 151.25 137.5 L 155.0 138.75 L 158.75 143.75 L 161.25 147.5 L 161.25 150.0 L 157.5 151.25 L 152.5 150.0 L 147.5 145.0 L 145.0 138.75 L 146.25 132.5 L 150.0 130.0 L 156.25 128.75 L 158.75 132.5 L 160.0 138.75 L 157.5 145.0 L 152.5 148.75 L 148.75 148.75 L 145.0 148.75 L 145.0 143.75 L 146.25 137.5 L 151.25 135.0 L 155.0 135.0 L 158.75 136.25 L 160.0 141.25 L 158.75 145.0 L 155.0 148.75 L 151.25 148.75 L 148.75 147.5 L 147.5 142.5 L 148.75 137.5 L 151.25 135.0 L 155.0 133.75 L 158.75 133.75 L 160.0 137.5 L 161.25 142.5 L 158.75 146.25 L 156.25 148.75 L 152.5 148.75 L 151.25 148.75 L 151.25 145.0 L 152.5 141.25 L 155.0 138.75 L 158.75 138.75 L 160.0 138.75 L 161.25 141.25 L 160.0 143.75 L 157.5 145.0 L 155.0 146.25 L 152.5 146.25 L 152.5 143.75 L 152.5 138.75 L 155.0 136.25 L 158.75 135.0 L 161.25 135.0 L 162.5 138.75 L 162.5 142.5 L 160.0 146.25 L 157.5 148.75 L 155.0 148.75 L 153.75 147.5 L 153.75 142.5 L 155.0 137.5 L 158.75 133.75 L 162.5 132.5 L 166.25 133.75 L 167.5 137.5 L 167.5 142.5 L 163.75 146.25 L 158.75 147.5 L 155.0 148.75 L 151.25 146.25 L 148.75 142.5 L 150.0 137.5 L 152.5 133.75 L 157.5 131.25 L 163.75 131.25 L 167.5 133.75 L 168.75 138.75 L 166.25 143.75 L 162.5 146.25 L 157.5 147.5 L 152.5 147.5 L 150.0 145.0 L 150.0 140.0 L 150.0 135.0 L 153.75 130.0 L 158.75 127.5 L 161.25 127.5 L 165.0 127.5 L 166.25 127.5 L 167.5 128.75 L 167.5 130.0 L 167.5 130.0 L 168.75 132.5 L 171.25 136.25 L 172.5 145.0 L 172.5 160.0 L 163.75 178.75 L 150.0 195.0 L 136.25 201.25 " stroke="black" fill="none" stroke-width="6.0" stroke-linecap="round" stroke-linejoin="round" />
</svg>