<svg xmlns="http://www.w3.org/2000/svg" width="300" height="300" viewBox="0 0 300 300">
<path d="M 152.5 153.75 L 152.5 153.75 L 151.25 153.75 L 151.25 152.5 L 151.25 152.5 L 153.75 156.25 L 153.75 160.0 L 153.75 163.75 L 147.5 166.25 L 141.25 166.25 L 137.5 161.25 L 137.5 153.75 L 143.75 147.5 L 152.5 143.75 L 160.0 143.75 L 163.75 150.0 L 162.5 157.5 L 156.25 163.75 L 150.0 165.0 L 145.0 165.0 L 141.25 161.25 L 141.25 153.75 L 146.25 147.5 L 152.5 145.0 L 158.75 146.25 L 161.25 152.5 L 160.0 160.0 L 156.25 166.25 L 151.25 167.5 L 147.5 167.5 L 145.0 162.5 L 145.0 156.25 L 148.75 151.25 L 152.5 148.75 L 157.5 148.75 L 158.75 152.5 L 158.75 158.75 L 155.0 162.5 L 147.5 165.0 L 146.25 161.25 L 146.25 157.5 L 147.5 155.0 L 151.25 152.5 L 153.75 152.5 L 155.0 155.0 L 155.0 157.5 L 155.0 160.0 L 155.0 160.0 L 153.75 160.0 L 153.75 157.5 L 153.75 153.75 L 156.25 151.25 L 157.5 151.25 L 158.75 151.25 L 158.75 155.0 L 156.25 158.75 L 152.5 161.25 L 148.75 162.5 L 146.25 163.75 L 146.25 162.5 L 147.5 158.75 L 152.5 155.0 L 156.25 153.75 L 158.75 152.5 L 158.75 152.5 L 157.5 155.0 L 155.0 156.25 L 152.5 156.25 L 152.5 156.25 L 152.5 153.75 L 156.25 151.25 L 161.25 151.25 L 166.25 153.75 L 167.5 165.0 L 163.75 180.0 L 155.0 192.5 L 141.25 201.25 L 136.25 202.5 " stroke="black" fill="none" stroke-width="6.0" stroke-linecap="round" stroke-linejoin="round" />
</svg>