<svg xmlns="http://www.w3.org/2000/svg" width="300" height="300" viewBox="0 0 300 300">
<path d="M 156.25 135.0 L 156.25 135.0 L 155.0 135.0 L 153.75 136.25 L 153.75 138.75 L 153.75 142.5 L 152.5 145.0 L 151.25 146.25 L 147.5 146.25 L 143.75 146.25 L 142.5 143.75 L 145.0 138.75 L 151.25 135.0 L 157.5 132.5 L 161.25 135.0 L 162.5 140.0 L 158.75 146.25 L 153.75 151.25 L 150.0 152.5 L 146.25 151.25 L 146.25 146.25 L 148.75 140.0 L 153.75 135.0 L 160.0 135.0 L 163.75 137.5 L 165.0 143.75 L 161.25 151.25 L 155.0 156.25 L 150.0 157.5 L 145.0 156.25 L 143.75 151.25 L 145.0 145.0 L 148.75 138.75 L 155.0 136.25 L 160.0 135.0 L 163.75 138.75 L 163.75 145.0 L 161.25 150.0 L 157.5 152.5 L 152.5 153.75 L 148.75 153.75 L 147.5 152.5 L 147.5 148.75 L 156.25 141.25 L 160.0 141.25 L 162.5 142.5 L 161.25 146.25 L 158.75 150.0 L 153.75 152.5 L 150.0 152.5 L 148.75 150.0 L 148.75 143.75 L 152.5 141.25 L 156.25 140.0 L 160.0 143.75 L 163.75 153.75 L 162.5 168.75 L 155.0 185.0 L 142.5 197.5 L 131.25 202.5 " stroke="black" fill="none" stroke-width="6.0" stroke-linecap="round" stroke-linejoin="round" />
</svg>