<svg xmlns="http://www.w3.org/2000/svg" width="300" height="300" viewBox="0 0 300 300">
<path d="M 150.0 151.25 L 148.75 151.25 L 148.75 151.25 L 148.75 151.25 L 150.0 151.25 L 151.25 153.75 L 151.25 156.25 L 151.25 158.75 L 147.5 158.75 L 145.0 157.5 L 143.75 151.25 L 145.0 145.0 L 150.0 142.5 L 156.25 141.25 L 160.0 143.75 L 160.0 150.0 L 156.25 155.0 L 152.5 158.75 L 147.5 158.75 L 145.0 156.25 L 145.0 150.0 L 147.5 145.0 L 153.75 140.0 L 160.0 140.0 L 165.0 143.75 L 165.0 150.0 L 161.25 156.25 L 156.25 158.75 L 150.0 160.0 L 146.25 157.5 L 146.25 152.5 L 150.0 146.25 L 155.0 142.5 L 161.25 141.25 L 165.0 143.75 L 165.0 150.0 L 162.5 155.0 L 158.75 157.5 L 153.75 158.75 L 151.25 156.25 L 151.25 152.5 L 152.5 147.5 L 157.5 145.0 L 161.25 145.0 L 165.0 147.5 L 166.25 151.25 L 163.75 153.75 L 161.25 156.25 L 157.5 156.25 L 155.0 155.0 L 155.0 152.5 L 155.0 150.0 L 156.25 148.75 L 158.75 148.75 L 160.0 150.0 L 160.0 152.5 L 160.0 153.75 L 158.75 153.75 L 156.25 153.75 L 155.0 152.5 L 155.0 148.75 L 157.5 146.25 L 161.25 145.0 L 163.75 143.75 L 166.25 145.0 L 165.0 147.5 L 162.5 151.25 L 158.75 151.25 L 157.5 151.25 L 156.25 151.25 L 161.25 148.75 L 167.5 148.75 L 173.75 156.25 L 175.0 173.75 L 162.5 198.75 L 146.25 215.0 " stroke="black" fill="none" stroke-width="6.0" stroke-linecap="round" stroke-linejoin="round" />
</svg>