<svg xmlns="http://www.w3.org/2000/svg" width="300" height="300" viewBox="0 0 300 300">
<path d="M 147.5 147.5 L 147.5 147.5 L 147.5 147.5 L 146.25 146.25 L 146.25 146.25 L 147.5 146.25 L 150.0 146.25 L 151.25 147.5 L 152.5 148.75 L 151.25 151.25 L 148.75 152.5 L 145.0 152.5 L 142.5 152.5 L 141.25 151.25 L 145.0 148.75 L 150.0 146.25 L 155.0 146.25 L 157.5 148.75 L 158.75 152.5 L 156.25 155.0 L 151.25 157.5 L 147.5 157.5 L 145.0 156.25 L 143.75 152.5 L 145.0 146.25 L 150.0 142.5 L 153.75 141.25 L 157.5 141.25 L 158.75 146.25 L 157.5 150.0 L 155.0 153.75 L 151.25 155.0 L 147.5 155.0 L 145.0 153.75 L 143.75 150.0 L 145.0 145.0 L 148.75 142.5 L 153.75 141.25 L 157.5 142.5 L 158.75 146.25 L 158.75 151.25 L 156.25 155.0 L 152.5 156.25 L 148.75 156.25 L 146.25 153.75 L 146.25 150.0 L 147.5 146.25 L 150.0 143.75 L 153.75 143.75 L 155.0 146.25 L 155.0 151.25 L 153.75 155.0 L 150.0 157.5 L 147.5 157.5 L 145.0 156.25 L 145.0 151.25 L 146.25 146.25 L 150.0 142.5 L 155.0 141.25 L 160.0 141.25 L 165.0 146.25 L 167.5 155.0 L 167.5 167.5 L 162.5 181.25 L 153.75 191.25 L 143.75 196.25 L 130.0 197.5 " stroke="black" fill="none" stroke-width="6.0" stroke-linecap="round" stroke-linejoin="round" />
</svg>