<svg xmlns="http://www.w3.org/2000/svg" width="300" height="300" viewBox="0 0 300 300">
<path d="M 146.25 143.75 L 145.0 143.75 L 143.75 143.75 L 143.75 142.5 L 147.5 141.25 L 153.75 141.25 L 158.75 142.5 L 160.0 143.75 L 158.75 147.5 L 153.75 150.0 L 148.75 150.0 L 145.0 147.5 L 145.0 142.5 L 148.75 137.5 L 153.75 135.0 L 158.75 136.25 L 161.25 142.5 L 161.25 147.5 L 157.5 152.5 L 152.5 153.75 L 147.5 153.75 L 146.25 148.75 L 146.25 143.75 L 150.0 137.5 L 156.25 136.25 L 161.25 136.25 L 163.75 141.25 L 163.75 147.5 L 158.75 152.5 L 153.75 155.0 L 148.75 155.0 L 146.25 151.25 L 145.0 146.25 L 148.75 141.25 L 153.75 137.5 L 158.75 137.5 L 161.25 141.25 L 162.5 146.25 L 160.0 151.25 L 155.0 153.75 L 151.25 153.75 L 148.75 151.25 L 147.5 148.75 L 147.5 146.25 L 150.0 143.75 L 153.75 143.75 L 156.25 143.75 L 157.5 143.75 L 157.5 145.0 L 157.5 146.25 L 157.5 146.25 L 156.25 147.5 L 156.25 147.5 L 156.25 147.5 L 156.25 147.5 L 157.5 147.5 L 157.5 147.5 L 157.5 147.5 L 157.5 148.75 L 157.5 148.75 L 156.25 150.0 L 153.75 151.25 L 151.25 152.5 L 151.25 152.5 L 151.25 152.5 L 151.25 150.0 L 152.5 147.5 L 153.75 146.25 L 153.75 146.25 L 153.75 146.25 L 153.75 146.25 L 153.75 146.25 L 151.25 147.5 L 150.0 147.5 L 150.0 147.5 L 150.0 147.5 L 150.0 146.25 L 150.0 143.75 L 152.5 143.75 L 153.75 142.5 L 157.5 142.5 L 162.5 143.75 L 165.0 150.0 L 166.25 161.25 L 160.0 177.5 L 150.0 190.0 L 145.0 195.0 " stroke="black" fill="none" stroke-width="6.0" stroke-linecap="round" stroke-linejoin="round" />
</svg>