<svg xmlns="http://www.w3.org/2000/svg" width="300" height="300" viewBox="0 0 300 300">
<path d="M 147.5 150.0 L 147.5 148.75 L 147.5 148.75 L 148.75 147.5 L 152.5 147.5 L 156.25 147.5 L 157.5 148.75 L 157.5 151.25 L 152.5 155.0 L 145.0 156.25 L 138.75 156.25 L 136.25 155.0 L 137.5 150.0 L 143.75 146.25 L 151.25 143.75 L 156.25 143.75 L 158.75 147.5 L 157.5 152.5 L 152.5 158.75 L 147.5 161.25 L 141.25 161.25 L 137.5 158.75 L 137.5 151.25 L 143.75 143.75 L 150.0 140.0 L 155.0 138.75 L 158.75 141.25 L 160.0 147.5 L 157.5 153.75 L 152.5 158.75 L 145.0 160.0 L 140.0 160.0 L 138.75 156.25 L 140.0 151.25 L 145.0 146.25 L 150.0 145.0 L 155.0 145.0 L 158.75 150.0 L 158.75 155.0 L 157.5 158.75 L 153.75 161.25 L 148.75 161.25 L 145.0 160.0 L 143.75 156.25 L 143.75 151.25 L 147.5 148.75 L 150.0 147.5 L 153.75 148.75 L 153.75 152.5 L 152.5 157.5 L 147.5 160.0 L 138.75 158.75 L 138.75 153.75 L 142.5 148.75 L 148.75 145.0 L 156.25 143.75 L 162.5 151.25 L 163.75 166.25 L 156.25 186.25 L 145.0 202.5 L 131.25 211.25 L 121.25 213.75 " stroke="black" fill="none" stroke-width="6.0" stroke-linecap="round" stroke-linejoin="round" />
</svg>