<svg xmlns="http://www.w3.org/2000/svg" width="300" height="300" viewBox="0 0 300 300">
<path d="M 148.75 138.75 L 148.75 138.75 L 148.75 138.75 L 148.75 138.75 L 151.25 138.75 L 155.0 140.0 L 157.5 143.75 L 158.75 147.5 L 155.0 152.5 L 148.75 155.0 L 142.5 155.0 L 140.0 152.5 L 140.0 145.0 L 145.0 138.75 L 152.5 133.75 L 158.75 132.5 L 163.75 133.75 L 165.0 138.75 L 162.5 145.0 L 156.25 148.75 L 151.25 151.25 L 147.5 151.25 L 145.0 148.75 L 146.25 143.75 L 151.25 137.5 L 157.5 135.0 L 162.5 133.75 L 166.25 138.75 L 165.0 145.0 L 161.25 152.5 L 155.0 156.25 L 150.0 156.25 L 147.5 155.0 L 147.5 148.75 L 150.0 141.25 L 155.0 136.25 L 160.0 133.75 L 163.75 135.0 L 163.75 138.75 L 163.75 143.75 L 158.75 147.5 L 155.0 148.75 L 151.25 150.0 L 150.0 147.5 L 151.25 142.5 L 155.0 137.5 L 158.75 136.25 L 162.5 136.25 L 163.75 140.0 L 162.5 143.75 L 160.0 147.5 L 156.25 150.0 L 153.75 150.0 L 152.5 147.5 L 152.5 143.75 L 155.0 138.75 L 158.75 136.25 L 161.25 136.25 L 162.5 138.75 L 162.5 143.75 L 158.75 147.5 L 155.0 148.75 L 151.25 150.0 L 148.75 148.75 L 148.75 146.25 L 150.0 141.25 L 153.75 138.75 L 158.75 137.5 L 161.25 137.5 L 162.5 138.75 L 162.5 142.5 L 160.0 145.0 L 156.25 146.25 L 152.5 147.5 L 150.0 147.5 L 150.0 147.5 L 151.25 145.0 L 155.0 143.75 L 157.5 141.25 L 160.0 141.25 L 161.25 141.25 L 161.25 143.75 L 157.5 146.25 L 155.0 148.75 L 152.5 148.75 L 150.0 148.75 L 150.0 146.25 L 152.5 142.5 L 155.0 140.0 L 158.75 138.75 L 162.5 138.75 L 162.5 141.25 L 162.5 146.25 L 158.75 148.75 L 153.75 151.25 L 150.0 151.25 L 146.25 151.25 L 143.75 148.75 L 143.75 145.0 L 147.5 140.0 L 152.5 135.0 L 160.0 132.5 L 167.5 132.5 L 173.75 135.0 L 177.5 141.25 L 178.75 151.25 L 173.75 163.75 L 165.0 176.25 L 153.75 185.0 L 142.5 191.25 L 136.25 192.5 " stroke="black" fill="none" stroke-width="6.0" stroke-linecap="round" stroke-linejoin="round" />
</svg>