<svg xmlns="http://www.w3.org/2000/svg" width="300" height="300" viewBox="0 0 300 300">
<path d="M 145.0 145.0 L 145.0 145.0 L 145.0 143.75 L 145.0 142.5 L 146.25 142.5 L 148.75 142.5 L 151.25 146.25 L 151.25 151.25 L 151.25 155.0 L 147.5 157.5 L 142.5 157.5 L 138.75 155.0 L 138.75 150.0 L 142.5 145.0 L 148.75 141.25 L 155.0 141.25 L 158.75 142.5 L 158.75 147.5 L 156.25 152.5 L 151.25 155.0 L 146.25 156.25 L 142.5 155.0 L 141.25 152.5 L 141.25 147.5 L 146.25 142.5 L 152.5 141.25 L 156.25 141.25 L 157.5 146.25 L 156.25 151.25 L 152.5 155.0 L 146.25 156.25 L 142.5 156.25 L 138.75 153.75 L 138.75 148.75 L 143.75 143.75 L 148.75 141.25 L 153.75 141.25 L 156.25 143.75 L 156.25 148.75 L 153.75 152.5 L 150.0 155.0 L 146.25 155.0 L 145.0 153.75 L 143.75 151.25 L 143.75 148.75 L 147.5 147.5 L 148.75 146.25 L 151.25 147.5 L 151.25 150.0 L 151.25 151.25 L 150.0 152.5 L 147.5 152.5 L 145.0 152.5 L 143.75 152.5 L 143.75 151.25 L 145.0 148.75 L 147.5 148.75 L 150.0 147.5 L 152.5 147.5 L 152.5 148.75 L 152.5 150.0 L 150.0 151.25 L 147.5 151.25 L 146.25 151.25 L 145.0 148.75 L 146.25 146.25 L 150.0 145.0 L 155.0 143.75 L 158.75 147.5 L 160.0 157.5 L 158.75 171.25 L 150.0 186.25 L 137.5 198.75 L 126.25 203.75 " stroke="black" fill="none" stroke-width="6.0" stroke-linecap="round" stroke-linejoin="round" />
</svg>