<svg xmlns="http://www.w3.org/2000/svg" width="300" height="300" viewBox="0 0 300 300">
<path d="M 160.0 147.5 L 160.0 147.5 L 158.75 146.25 L 157.5 146.25 L 157.5 146.25 L 158.75 146.25 L 162.5 146.25 L 165.0 148.75 L 166.25 151.25 L 166.25 152.5 L 161.25 153.75 L 156.25 153.75 L 152.5 152.5 L 151.25 150.0 L 151.25 147.5 L 153.75 145.0 L 157.5 145.0 L 160.0 147.5 L 161.25 151.25 L 161.25 153.75 L 160.0 156.25 L 157.5 156.25 L 156.25 153.75 L 156.25 148.75 L 156.25 145.0 L 160.0 143.75 L 162.5 143.75 L 165.0 146.25 L 165.0 150.0 L 163.75 153.75 L 160.0 156.25 L 155.0 157.5 L 152.5 157.5 L 152.5 155.0 L 152.5 150.0 L 156.25 147.5 L 160.0 146.25 L 163.75 146.25 L 165.0 148.75 L 166.25 152.5 L 162.5 155.0 L 158.75 156.25 L 155.0 156.25 L 153.75 153.75 L 152.5 150.0 L 155.0 145.0 L 158.75 142.5 L 162.5 142.5 L 165.0 143.75 L 166.25 147.5 L 165.0 151.25 L 162.5 153.75 L 157.5 155.0 L 153.75 155.0 L 151.25 152.5 L 148.75 150.0 L 148.75 146.25 L 152.5 143.75 L 156.25 142.5 L 161.25 141.25 L 165.0 141.25 L 166.25 142.5 L 166.25 145.0 L 166.25 146.25 L 165.0 146.25 L 165.0 146.25 L 165.0 147.5 L 167.5 150.0 L 168.75 156.25 L 167.5 171.25 L 160.0 186.25 L 147.5 200.0 L 145.0 202.5 " stroke="black" fill="none" stroke-width="6.0" stroke-linecap="round" stroke-linejoin="round" />
</svg>