<svg xmlns="http://www.w3.org/2000/svg" width="300" height="300" viewBox="0 0 300 300">
<path d="M 147.5 143.75 L 147.5 142.5 L 147.5 141.25 L 150.0 141.25 L 152.5 142.5 L 155.0 147.5 L 155.0 152.5 L 151.25 156.25 L 146.25 157.5 L 142.5 157.5 L 141.25 151.25 L 142.5 145.0 L 148.75 140.0 L 153.75 138.75 L 158.75 141.25 L 158.75 147.5 L 156.25 155.0 L 150.0 161.25 L 143.75 162.5 L 138.75 161.25 L 137.5 155.0 L 140.0 148.75 L 146.25 142.5 L 152.5 140.0 L 158.75 140.0 L 161.25 143.75 L 158.75 151.25 L 153.75 157.5 L 148.75 161.25 L 145.0 161.25 L 142.5 160.0 L 145.0 152.5 L 150.0 145.0 L 156.25 142.5 L 160.0 142.5 L 162.5 146.25 L 161.25 151.25 L 157.5 156.25 L 153.75 160.0 L 150.0 160.0 L 148.75 157.5 L 148.75 153.75 L 151.25 148.75 L 153.75 146.25 L 157.5 145.0 L 158.75 145.0 L 158.75 148.75 L 157.5 151.25 L 155.0 153.75 L 153.75 155.0 L 152.5 155.0 L 152.5 152.5 L 153.75 150.0 L 156.25 147.5 L 157.5 146.25 L 158.75 146.25 L 157.5 150.0 L 153.75 152.5 L 150.0 155.0 L 148.75 155.0 L 147.5 153.75 L 148.75 150.0 L 152.5 147.5 L 157.5 146.25 L 162.5 147.5 L 166.25 155.0 L 166.25 167.5 L 158.75 183.75 L 143.75 197.5 " stroke="black" fill="none" stroke-width="6.0" stroke-linecap="round" stroke-linejoin="round" />
</svg>