<svg xmlns="http://www.w3.org/2000/svg" width="300" height="300" viewBox="0 0 300 300">
<path d="M 146.25 145.0 L 145.0 145.0 L 143.75 145.0 L 143.75 145.0 L 148.75 145.0 L 153.75 147.5 L 157.5 150.0 L 157.5 153.75 L 153.75 156.25 L 146.25 157.5 L 140.0 157.5 L 137.5 152.5 L 140.0 146.25 L 147.5 141.25 L 156.25 138.75 L 163.75 138.75 L 165.0 142.5 L 161.25 148.75 L 155.0 152.5 L 148.75 155.0 L 143.75 155.0 L 142.5 151.25 L 143.75 145.0 L 148.75 140.0 L 152.5 138.75 L 157.5 140.0 L 158.75 145.0 L 157.5 151.25 L 152.5 156.25 L 147.5 158.75 L 143.75 158.75 L 142.5 152.5 L 143.75 146.25 L 148.75 141.25 L 155.0 138.75 L 160.0 138.75 L 162.5 142.5 L 160.0 147.5 L 156.25 152.5 L 151.25 155.0 L 147.5 155.0 L 146.25 153.75 L 146.25 150.0 L 150.0 147.5 L 152.5 146.25 L 155.0 146.25 L 156.25 147.5 L 156.25 150.0 L 155.0 152.5 L 152.5 153.75 L 150.0 153.75 L 147.5 153.75 L 146.25 152.5 L 146.25 151.25 L 150.0 150.0 L 152.5 148.75 L 155.0 148.75 L 155.0 148.75 L 153.75 152.5 L 150.0 155.0 L 146.25 156.25 L 143.75 156.25 L 143.75 155.0 L 146.25 151.25 L 151.25 146.25 L 156.25 143.75 L 162.5 142.5 L 167.5 142.5 L 170.0 146.25 L 170.0 152.5 L 163.75 163.75 L 150.0 180.0 L 137.5 193.75 " stroke="black" fill="none" stroke-width="6.0" stroke-linecap="round" stroke-linejoin="round" />
</svg>