<svg xmlns="http://www.w3.org/2000/svg" width="300" height="300" viewBox="0 0 300 300">
<path d="M 145.0 146.25 L 145.0 146.25 L 142.5 146.25 L 142.5 146.25 L 143.75 146.25 L 147.5 147.5 L 150.0 150.0 L 150.0 151.25 L 150.0 152.5 L 147.5 152.5 L 145.0 152.5 L 143.75 148.75 L 145.0 143.75 L 150.0 141.25 L 155.0 140.0 L 158.75 142.5 L 158.75 147.5 L 156.25 153.75 L 151.25 156.25 L 146.25 156.25 L 142.5 155.0 L 142.5 151.25 L 143.75 146.25 L 148.75 143.75 L 152.5 142.5 L 156.25 145.0 L 157.5 151.25 L 155.0 156.25 L 151.25 160.0 L 146.25 161.25 L 142.5 158.75 L 141.25 152.5 L 143.75 145.0 L 148.75 140.0 L 153.75 137.5 L 157.5 138.75 L 157.5 143.75 L 156.25 150.0 L 153.75 153.75 L 150.0 156.25 L 146.25 156.25 L 145.0 152.5 L 143.75 148.75 L 146.25 146.25 L 151.25 145.0 L 156.25 145.0 L 158.75 148.75 L 158.75 151.25 L 157.5 155.0 L 153.75 156.25 L 150.0 156.25 L 148.75 156.25 L 147.5 153.75 L 147.5 151.25 L 151.25 150.0 L 152.5 148.75 L 153.75 148.75 L 153.75 151.25 L 152.5 153.75 L 150.0 155.0 L 147.5 155.0 L 145.0 153.75 L 145.0 150.0 L 147.5 145.0 L 150.0 143.75 L 155.0 142.5 L 161.25 147.5 L 165.0 157.5 L 166.25 170.0 L 157.5 186.25 L 147.5 197.5 " stroke="black" fill="none" stroke-width="6.0" stroke-linecap="round" stroke-linejoin="round" />
</svg>