<svg xmlns="http://www.w3.org/2000/svg" width="300" height="300" viewBox="0 0 300 300">
<path d="M 150.0 147.5 L 150.0 147.5 L 150.0 147.5 L 150.0 147.5 L 150.0 148.75 L 151.25 153.75 L 150.0 157.5 L 147.5 161.25 L 143.75 161.25 L 142.5 156.25 L 142.5 148.75 L 147.5 142.5 L 153.75 138.75 L 161.25 138.75 L 162.5 146.25 L 161.25 153.75 L 156.25 160.0 L 150.0 162.5 L 145.0 162.5 L 142.5 157.5 L 143.75 150.0 L 148.75 145.0 L 153.75 141.25 L 160.0 141.25 L 162.5 147.5 L 161.25 155.0 L 156.25 161.25 L 151.25 163.75 L 147.5 162.5 L 146.25 157.5 L 146.25 148.75 L 151.25 142.5 L 156.25 140.0 L 161.25 141.25 L 163.75 148.75 L 162.5 155.0 L 158.75 160.0 L 156.25 161.25 L 153.75 160.0 L 152.5 153.75 L 152.5 148.75 L 155.0 146.25 L 156.25 145.0 L 157.5 147.5 L 157.5 151.25 L 157.5 155.0 L 156.25 156.25 L 153.75 156.25 L 152.5 153.75 L 152.5 151.25 L 152.5 148.75 L 153.75 147.5 L 156.25 147.5 L 158.75 148.75 L 160.0 151.25 L 160.0 155.0 L 157.5 157.5 L 155.0 158.75 L 152.5 158.75 L 151.25 158.75 L 152.5 156.25 L 155.0 153.75 L 157.5 152.5 L 160.0 151.25 L 161.25 151.25 L 161.25 151.25 L 160.0 153.75 L 156.25 155.0 L 153.75 155.0 L 151.25 155.0 L 150.0 153.75 L 148.75 151.25 L 150.0 147.5 L 152.5 145.0 L 157.5 142.5 L 162.5 142.5 L 168.75 143.75 L 173.75 151.25 L 173.75 165.0 L 165.0 183.75 L 151.25 198.75 L 147.5 201.25 " stroke="black" fill="none" stroke-width="6.0" stroke-linecap="round" stroke-linejoin="round" />
</svg>