<svg xmlns="http://www.w3.org/2000/svg" width="300" height="300" viewBox="0 0 300 300">
<path d="M 155.0 146.25 L 155.0 146.25 L 155.0 146.25 L 155.0 146.25 L 155.0 146.25 L 157.5 146.25 L 158.75 148.75 L 158.75 151.25 L 156.25 153.75 L 151.25 155.0 L 146.25 155.0 L 145.0 151.25 L 145.0 145.0 L 148.75 141.25 L 155.0 138.75 L 160.0 140.0 L 161.25 146.25 L 161.25 152.5 L 156.25 156.25 L 151.25 158.75 L 146.25 157.5 L 143.75 152.5 L 145.0 146.25 L 148.75 140.0 L 155.0 137.5 L 161.25 137.5 L 163.75 142.5 L 165.0 148.75 L 161.25 155.0 L 156.25 157.5 L 151.25 157.5 L 150.0 156.25 L 148.75 151.25 L 151.25 146.25 L 155.0 142.5 L 160.0 142.5 L 162.5 143.75 L 162.5 150.0 L 161.25 153.75 L 157.5 156.25 L 155.0 157.5 L 153.75 156.25 L 153.75 152.5 L 155.0 150.0 L 157.5 147.5 L 158.75 147.5 L 158.75 147.5 L 158.75 148.75 L 157.5 151.25 L 155.0 151.25 L 152.5 151.25 L 151.25 151.25 L 151.25 150.0 L 151.25 147.5 L 153.75 146.25 L 155.0 145.0 L 156.25 145.0 L 156.25 147.5 L 156.25 150.0 L 155.0 150.0 L 155.0 150.0 L 155.0 150.0 L 155.0 147.5 L 155.0 146.25 L 156.25 145.0 L 156.25 145.0 L 156.25 147.5 L 155.0 151.25 L 151.25 153.75 L 148.75 153.75 L 147.5 153.75 L 147.5 151.25 L 150.0 146.25 L 155.0 145.0 L 160.0 143.75 L 166.25 150.0 L 168.75 162.5 L 165.0 180.0 L 153.75 196.25 L 147.5 202.5 " stroke="black" fill="none" stroke-width="6.0" stroke-linecap="round" stroke-linejoin="round" />
</svg>