<svg xmlns="http://www.w3.org/2000/svg" width="300" height="300" viewBox="0 0 300 300">
<path d="M 97.5 95.0 L 95.0 96.25 L 92.5 97.5 L 95.0 97.5 L 107.5 95.0 L 127.5 90.0 L 145.0 83.75 L 152.5 78.75 L 150.0 78.75 " stroke="black" fill="none" stroke-width="6.0" stroke-linecap="round" stroke-linejoin="round" />
<path d="M 120.0 78.75 L 120.0 78.75 L 118.75 80.0 L 117.5 81.25 L 122.5 87.5 L 128.75 97.5 L 130.0 108.75 L 125.0 120.0 L 113.75 127.5 L 101.25 131.25 L 93.75 133.75 L 92.5 133.75 L 101.25 133.75 L 120.0 127.5 L 146.25 115.0 L 172.5 100.0 L 188.75 88.75 L 193.75 83.75 L 192.5 80.0 L 187.5 77.5 L 180.0 77.5 L 172.5 77.5 L 168.75 80.0 L 167.5 88.75 L 172.5 118.75 L 191.25 172.5 L 206.25 212.5 L 217.5 232.5 L 227.5 246.25 L 233.75 251.25 L 236.25 251.25 L 236.25 251.25 L 236.25 250.0 L 236.25 246.25 L 233.75 237.5 L 228.75 223.75 L 221.25 208.75 L 218.75 205.0 " stroke="black" fill="none" stroke-width="6.0" stroke-linecap="round" stroke-linejoin="round" />
<path d="M 215.0 133.75 L 213.75 135.0 L 205.0 146.25 L 197.5 162.5 L 185.0 183.75 L 170.0 195.0 L 165.0 195.0 " stroke="black" fill="none" stroke-width="6.0" stroke-linecap="round" stroke-linejoin="round" />
<path d="M 207.5 71.25 L 208.75 70.0 L 213.75 70.0 L 221.25 76.25 L 226.25 83.75 " stroke="black" fill="none" stroke-width="6.0" stroke-linecap="round" stroke-linejoin="round" />
<path d="M 97.5 160.0 L 97.5 160.0 L 96.25 161.25 L 96.25 161.25 L 108.75 158.75 L 131.25 151.25 L 151.25 143.75 L 158.75 138.75 L 155.0 138.75 L 151.25 138.75 " stroke="black" fill="none" stroke-width="6.0" stroke-linecap="round" stroke-linejoin="round" />
<path d="M 103.75 173.75 L 100.0 185.0 L 100.0 197.5 L 103.75 210.0 L 108.75 217.5 L 110.0 218.75 L 110.0 215.0 L 108.75 211.25 " stroke="black" fill="none" stroke-width="6.0" stroke-linecap="round" stroke-linejoin="round" />
<path d="M 100.0 185.0 L 101.25 183.75 L 103.75 181.25 L 120.0 175.0 L 146.25 166.25 L 166.25 163.75 L 171.25 167.5 L 166.25 178.75 L 153.75 190.0 L 142.5 197.5 L 130.0 201.25 " stroke="black" fill="none" stroke-width="6.0" stroke-linecap="round" stroke-linejoin="round" />
<path d="M 107.5 193.75 L 107.5 193.75 L 107.5 193.75 L 112.5 191.25 L 128.75 183.75 L 148.75 173.75 L 160.0 166.25 L 158.75 165.0 L 151.25 171.25 " stroke="black" fill="none" stroke-width="6.0" stroke-linecap="round" stroke-linejoin="round" />
<path d="M 108.75 211.25 L 106.25 212.5 L 107.5 212.5 L 121.25 207.5 L 138.75 197.5 L 153.75 186.25 L 157.5 181.25 L 156.25 181.25 " stroke="black" fill="none" stroke-width="6.0" stroke-linecap="round" stroke-linejoin="round" />
<path d="M 106.25 237.5 L 106.25 240.0 L 108.75 241.25 L 125.0 236.25 L 148.75 220.0 L 166.25 205.0 L 173.75 195.0 L 172.5 190.0 L 168.75 188.75 " stroke="black" fill="none" stroke-width="6.0" stroke-linecap="round" stroke-linejoin="round" />
<path d="M 132.5 136.25 L 128.75 133.75 L 127.5 133.75 L 127.5 133.75 L 127.5 138.75 L 128.75 148.75 L 132.5 167.5 L 138.75 196.25 L 141.25 223.75 L 141.25 241.25 L 140.0 252.5 L 135.0 261.25 L 127.5 267.5 L 121.25 270.0 " stroke="black" fill="none" stroke-width="6.0" stroke-linecap="round" stroke-linejoin="round" />
</svg>