<svg xmlns="http://www.w3.org/2000/svg" width="300" height="300" viewBox="0 0 300 300">
<path d="M 88.75 98.75 L 86.25 96.25 L 85.0 93.75 L 85.0 96.25 L 88.75 113.75 L 95.0 137.5 L 101.25 151.25 L 101.25 153.75 " stroke="black" fill="none" stroke-width="6.0" stroke-linecap="round" stroke-linejoin="round" />
<path d="M 87.5 110.0 L 87.5 108.75 L 86.25 108.75 L 86.25 107.5 L 95.0 107.5 L 113.75 105.0 L 131.25 105.0 L 136.25 110.0 L 125.0 125.0 L 106.25 142.5 L 90.0 158.75 L 82.5 168.75 L 83.75 170.0 L 96.25 166.25 L 113.75 157.5 L 128.75 151.25 L 132.5 152.5 L 120.0 172.5 L 98.75 201.25 L 83.75 223.75 L 72.5 240.0 L 72.5 241.25 L 80.0 230.0 L 82.5 226.25 " stroke="black" fill="none" stroke-width="6.0" stroke-linecap="round" stroke-linejoin="round" />
<path d="M 111.25 185.0 L 111.25 183.75 L 111.25 183.75 L 111.25 182.5 L 116.25 182.5 L 127.5 190.0 L 136.25 205.0 L 136.25 226.25 L 121.25 245.0 L 98.75 252.5 L 86.25 251.25 L 86.25 246.25 " stroke="black" fill="none" stroke-width="6.0" stroke-linecap="round" stroke-linejoin="round" />
<path d="M 180.0 126.25 L 178.75 125.0 L 177.5 123.75 L 176.25 127.5 L 175.0 148.75 L 173.75 177.5 L 173.75 195.0 L 175.0 195.0 " stroke="black" fill="none" stroke-width="6.0" stroke-linecap="round" stroke-linejoin="round" />
<path d="M 210.0 87.5 L 210.0 87.5 L 210.0 87.5 L 212.5 108.75 L 216.25 163.75 L 218.75 217.5 L 221.25 242.5 L 221.25 245.0 L 218.75 245.0 L 210.0 245.0 L 197.5 240.0 L 175.0 232.5 L 161.25 225.0 " stroke="black" fill="none" stroke-width="6.0" stroke-linecap="round" stroke-linejoin="round" />
</svg>