<svg xmlns="http://www.w3.org/2000/svg" width="300" height="300" viewBox="0 0 300 300">
<path d="M 101.25 86.25 L 96.25 87.5 L 93.75 88.75 L 97.5 90.0 L 115.0 92.5 L 142.5 93.75 L 172.5 90.0 L 193.75 86.25 L 197.5 85.0 L 192.5 87.5 L 176.25 102.5 L 151.25 130.0 L 120.0 163.75 L 90.0 196.25 L 77.5 206.25 L 75.0 205.0 L 75.0 201.25 " stroke="black" fill="none" stroke-width="6.0" stroke-linecap="round" stroke-linejoin="round" />
<path d="M 141.25 136.25 L 142.5 136.25 L 142.5 135.0 L 145.0 150.0 L 150.0 192.5 L 152.5 228.75 L 155.0 248.75 L 155.0 251.25 " stroke="black" fill="none" stroke-width="6.0" stroke-linecap="round" stroke-linejoin="round" />
<path d="M 172.5 142.5 L 172.5 142.5 L 172.5 142.5 L 181.25 148.75 L 202.5 167.5 L 225.0 190.0 L 237.5 206.25 " stroke="black" fill="none" stroke-width="6.0" stroke-linecap="round" stroke-linejoin="round" />
</svg>