<svg xmlns="http://www.w3.org/2000/svg" width="300" height="300" viewBox="0 0 300 300">
<path d="M 127.5 97.5 L 123.75 97.5 L 118.75 98.75 L 118.75 100.0 L 132.5 101.25 L 155.0 101.25 L 181.25 98.75 L 201.25 95.0 L 206.25 95.0 L 196.25 106.25 L 172.5 130.0 L 142.5 158.75 L 110.0 185.0 L 88.75 200.0 L 77.5 201.25 " stroke="black" fill="none" stroke-width="6.0" stroke-linecap="round" stroke-linejoin="round" />
<path d="M 147.5 152.5 L 147.5 152.5 L 148.75 156.25 L 155.0 181.25 L 157.5 217.5 L 156.25 238.75 L 152.5 257.5 L 146.25 261.25 " stroke="black" fill="none" stroke-width="6.0" stroke-linecap="round" stroke-linejoin="round" />
<path d="M 187.5 146.25 L 187.5 146.25 L 187.5 145.0 L 196.25 148.75 L 212.5 166.25 L 231.25 192.5 L 241.25 210.0 L 242.5 222.5 " stroke="black" fill="none" stroke-width="6.0" stroke-linecap="round" stroke-linejoin="round" />
</svg>