<svg xmlns="http://www.w3.org/2000/svg" width="300" height="300" viewBox="0 0 300 300">
<path d="M 116.25 98.75 L 107.5 100.0 L 106.25 100.0 L 118.75 101.25 L 140.0 102.5 L 161.25 102.5 L 176.25 100.0 L 178.75 98.75 L 173.75 102.5 L 160.0 116.25 L 141.25 138.75 L 116.25 166.25 L 91.25 195.0 L 81.25 207.5 L 80.0 208.75 L 81.25 206.25 L 82.5 205.0 " stroke="black" fill="none" stroke-width="6.0" stroke-linecap="round" stroke-linejoin="round" />
<path d="M 133.75 155.0 L 133.75 155.0 L 131.25 155.0 L 130.0 160.0 L 133.75 193.75 L 140.0 235.0 L 143.75 252.5 L 146.25 258.75 L 147.5 260.0 L 147.5 256.25 " stroke="black" fill="none" stroke-width="6.0" stroke-linecap="round" stroke-linejoin="round" />
<path d="M 150.0 167.5 L 146.25 166.25 L 145.0 165.0 L 147.5 163.75 L 157.5 165.0 L 180.0 172.5 L 198.75 181.25 L 212.5 190.0 L 217.5 193.75 L 220.0 196.25 L 221.25 198.75 L 220.0 201.25 L 218.75 201.25 " stroke="black" fill="none" stroke-width="6.0" stroke-linecap="round" stroke-linejoin="round" />
</svg>