<svg xmlns="http://www.w3.org/2000/svg" width="300" height="300" viewBox="0 0 300 300">
<path d="M 112.5 83.75 L 107.5 83.75 L 100.0 83.75 L 98.75 85.0 L 107.5 88.75 L 131.25 90.0 L 158.75 88.75 L 186.25 83.75 L 198.75 80.0 L 197.5 80.0 L 185.0 90.0 L 163.75 112.5 L 138.75 145.0 L 108.75 183.75 L 88.75 207.5 L 78.75 216.25 L 76.25 215.0 " stroke="black" fill="none" stroke-width="6.0" stroke-linecap="round" stroke-linejoin="round" />
<path d="M 146.25 141.25 L 146.25 140.0 L 146.25 140.0 L 150.0 151.25 L 161.25 191.25 L 171.25 232.5 L 173.75 250.0 L 172.5 255.0 L 167.5 252.5 " stroke="black" fill="none" stroke-width="6.0" stroke-linecap="round" stroke-linejoin="round" />
<path d="M 186.25 142.5 L 186.25 141.25 L 188.75 140.0 L 196.25 142.5 L 207.5 153.75 L 221.25 171.25 L 232.5 190.0 L 233.75 197.5 " stroke="black" fill="none" stroke-width="6.0" stroke-linecap="round" stroke-linejoin="round" />
</svg>