<svg xmlns="http://www.w3.org/2000/svg" width="300" height="300" viewBox="0 0 300 300">
<path d="M 102.5 55.0 L 98.75 58.75 L 96.25 61.25 L 95.0 62.5 L 98.75 67.5 L 115.0 73.75 L 141.25 77.5 L 168.75 80.0 L 186.25 82.5 L 188.75 88.75 L 172.5 107.5 L 148.75 136.25 L 118.75 167.5 L 87.5 198.75 L 73.75 211.25 L 70.0 212.5 L 75.0 201.25 " stroke="black" fill="none" stroke-width="6.0" stroke-linecap="round" stroke-linejoin="round" />
<path d="M 131.25 152.5 L 133.75 153.75 L 136.25 168.75 L 140.0 197.5 L 143.75 222.5 L 147.5 235.0 L 148.75 228.75 " stroke="black" fill="none" stroke-width="6.0" stroke-linecap="round" stroke-linejoin="round" />
<path d="M 162.5 146.25 L 162.5 145.0 L 162.5 146.25 L 171.25 160.0 L 191.25 190.0 L 212.5 213.75 L 218.75 225.0 " stroke="black" fill="none" stroke-width="6.0" stroke-linecap="round" stroke-linejoin="round" />
</svg>