<svg xmlns="http://www.w3.org/2000/svg" width="300" height="300" viewBox="0 0 300 300">
<path d="M 128.75 102.5 L 120.0 107.5 L 115.0 107.5 L 120.0 107.5 L 137.5 106.25 L 162.5 102.5 L 188.75 100.0 L 203.75 98.75 L 205.0 100.0 L 197.5 107.5 L 176.25 127.5 L 148.75 152.5 L 120.0 178.75 L 96.25 192.5 L 87.5 195.0 " stroke="black" fill="none" stroke-width="6.0" stroke-linecap="round" stroke-linejoin="round" />
<path d="M 156.25 150.0 L 157.5 152.5 L 160.0 160.0 L 163.75 183.75 L 165.0 208.75 L 166.25 227.5 L 161.25 240.0 L 158.75 242.5 " stroke="black" fill="none" stroke-width="6.0" stroke-linecap="round" stroke-linejoin="round" />
<path d="M 190.0 151.25 L 190.0 148.75 L 190.0 147.5 L 190.0 147.5 L 191.25 147.5 L 196.25 148.75 L 202.5 151.25 L 212.5 155.0 L 225.0 161.25 L 237.5 170.0 L 247.5 181.25 L 253.75 193.75 L 253.75 200.0 " stroke="black" fill="none" stroke-width="6.0" stroke-linecap="round" stroke-linejoin="round" />
</svg>