<svg xmlns="http://www.w3.org/2000/svg" width="300" height="300" viewBox="0 0 300 300">
<path d="M 123.75 86.25 L 116.25 86.25 L 111.25 86.25 L 113.75 88.75 L 130.0 92.5 L 153.75 92.5 L 185.0 92.5 L 207.5 90.0 L 213.75 88.75 L 211.25 90.0 L 198.75 98.75 L 180.0 116.25 L 151.25 141.25 L 118.75 170.0 L 93.75 188.75 L 86.25 195.0 L 85.0 195.0 " stroke="black" fill="none" stroke-width="6.0" stroke-linecap="round" stroke-linejoin="round" />
<path d="M 143.75 143.75 L 145.0 143.75 L 145.0 143.75 L 147.5 152.5 L 151.25 186.25 L 152.5 213.75 L 153.75 241.25 L 152.5 246.25 L 150.0 246.25 " stroke="black" fill="none" stroke-width="6.0" stroke-linecap="round" stroke-linejoin="round" />
<path d="M 176.25 146.25 L 176.25 146.25 L 177.5 146.25 L 186.25 147.5 L 202.5 161.25 L 220.0 180.0 L 231.25 193.75 L 235.0 205.0 " stroke="black" fill="none" stroke-width="6.0" stroke-linecap="round" stroke-linejoin="round" />
</svg>