<svg xmlns="http://www.w3.org/2000/svg" width="300" height="300" viewBox="0 0 300 300">
<path d="M 102.5 92.5 L 102.5 92.5 L 100.0 91.25 L 98.75 96.25 L 101.25 118.75 L 110.0 148.75 L 116.25 165.0 L 120.0 167.5 L 120.0 165.0 " stroke="black" fill="none" stroke-width="6.0" stroke-linecap="round" stroke-linejoin="round" />
<path d="M 106.25 110.0 L 105.0 110.0 L 100.0 110.0 L 98.75 110.0 L 108.75 107.5 L 131.25 101.25 L 156.25 95.0 L 182.5 92.5 L 195.0 98.75 L 192.5 115.0 L 181.25 135.0 L 153.75 153.75 " stroke="black" fill="none" stroke-width="6.0" stroke-linecap="round" stroke-linejoin="round" />
<path d="M 121.25 138.75 L 117.5 140.0 L 115.0 140.0 L 122.5 140.0 L 137.5 133.75 L 153.75 125.0 L 163.75 115.0 L 162.5 111.25 L 156.25 111.25 L 153.75 111.25 " stroke="black" fill="none" stroke-width="6.0" stroke-linecap="round" stroke-linejoin="round" />
<path d="M 143.75 106.25 L 142.5 108.75 L 141.25 111.25 L 141.25 121.25 L 141.25 138.75 L 141.25 153.75 L 137.5 162.5 L 131.25 167.5 L 128.75 167.5 L 128.75 167.5 L 136.25 165.0 L 147.5 158.75 L 158.75 151.25 L 168.75 142.5 L 171.25 138.75 " stroke="black" fill="none" stroke-width="6.0" stroke-linecap="round" stroke-linejoin="round" />
<path d="M 96.25 190.0 L 93.75 190.0 L 91.25 190.0 L 91.25 192.5 L 102.5 205.0 L 117.5 222.5 L 128.75 237.5 L 132.5 241.25 L 132.5 237.5 " stroke="black" fill="none" stroke-width="6.0" stroke-linecap="round" stroke-linejoin="round" />
<path d="M 143.75 190.0 L 143.75 191.25 L 143.75 197.5 L 150.0 207.5 L 163.75 218.75 L 185.0 223.75 L 203.75 220.0 L 211.25 213.75 L 211.25 210.0 L 207.5 206.25 L 196.25 203.75 L 180.0 200.0 L 162.5 195.0 L 150.0 190.0 L 148.75 187.5 L 156.25 185.0 L 176.25 180.0 L 196.25 175.0 L 213.75 171.25 L 223.75 170.0 " stroke="black" fill="none" stroke-width="6.0" stroke-linecap="round" stroke-linejoin="round" />
</svg>