<svg xmlns="http://www.w3.org/2000/svg" width="300" height="300" viewBox="0 0 300 300">
<path d="M 101.25 91.25 L 101.25 91.25 L 101.25 91.25 L 103.75 108.75 L 110.0 148.75 L 113.75 171.25 L 117.5 173.75 L 117.5 168.75 " stroke="black" fill="none" stroke-width="6.0" stroke-linecap="round" stroke-linejoin="round" />
<path d="M 102.5 101.25 L 102.5 102.5 L 106.25 101.25 L 125.0 97.5 L 155.0 92.5 L 182.5 91.25 L 193.75 98.75 L 193.75 113.75 L 182.5 133.75 L 168.75 147.5 L 156.25 153.75 L 146.25 156.25 L 143.75 156.25 " stroke="black" fill="none" stroke-width="6.0" stroke-linecap="round" stroke-linejoin="round" />
<path d="M 112.5 136.25 L 108.75 136.25 L 106.25 137.5 L 111.25 136.25 L 128.75 130.0 L 148.75 121.25 L 161.25 111.25 L 162.5 108.75 " stroke="black" fill="none" stroke-width="6.0" stroke-linecap="round" stroke-linejoin="round" />
<path d="M 136.25 103.75 L 135.0 103.75 L 135.0 102.5 L 135.0 108.75 L 137.5 128.75 L 136.25 151.25 L 130.0 165.0 L 120.0 168.75 L 113.75 171.25 L 112.5 171.25 L 118.75 170.0 L 135.0 165.0 L 152.5 156.25 L 166.25 146.25 L 170.0 141.25 L 167.5 141.25 " stroke="black" fill="none" stroke-width="6.0" stroke-linecap="round" stroke-linejoin="round" />
<path d="M 82.5 185.0 L 81.25 187.5 L 80.0 196.25 L 86.25 213.75 L 93.75 235.0 L 102.5 247.5 L 107.5 250.0 L 108.75 248.75 " stroke="black" fill="none" stroke-width="6.0" stroke-linecap="round" stroke-linejoin="round" />
<path d="M 143.75 181.25 L 147.5 185.0 L 153.75 197.5 L 163.75 217.5 L 177.5 235.0 L 193.75 237.5 L 202.5 223.75 L 207.5 210.0 L 206.25 197.5 L 197.5 190.0 L 177.5 185.0 L 152.5 185.0 L 140.0 191.25 L 141.25 193.75 L 165.0 188.75 L 200.0 173.75 L 230.0 161.25 L 243.75 157.5 " stroke="black" fill="none" stroke-width="6.0" stroke-linecap="round" stroke-linejoin="round" />
</svg>