<svg xmlns="http://www.w3.org/2000/svg" width="300" height="300" viewBox="0 0 300 300">
<path d="M 92.5 125.0 L 92.5 125.0 L 91.25 125.0 L 91.25 123.75 L 101.25 122.5 L 121.25 116.25 L 140.0 106.25 L 150.0 98.75 L 150.0 97.5 " stroke="black" fill="none" stroke-width="6.0" stroke-linecap="round" stroke-linejoin="round" />
<path d="M 71.25 198.75 L 66.25 205.0 L 61.25 208.75 L 71.25 208.75 L 88.75 202.5 L 113.75 187.5 L 138.75 165.0 L 151.25 150.0 L 150.0 145.0 L 140.0 146.25 L 133.75 148.75 " stroke="black" fill="none" stroke-width="6.0" stroke-linecap="round" stroke-linejoin="round" />
<path d="M 97.5 157.5 L 95.0 158.75 L 90.0 160.0 L 90.0 161.25 L 91.25 171.25 L 96.25 195.0 L 100.0 221.25 L 100.0 232.5 L 98.75 233.75 " stroke="black" fill="none" stroke-width="6.0" stroke-linecap="round" stroke-linejoin="round" />
<path d="M 118.75 152.5 L 120.0 152.5 L 121.25 152.5 L 127.5 160.0 L 135.0 190.0 L 136.25 220.0 L 131.25 230.0 " stroke="black" fill="none" stroke-width="6.0" stroke-linecap="round" stroke-linejoin="round" />
<path d="M 176.25 112.5 L 176.25 110.0 L 177.5 102.5 L 178.75 101.25 L 181.25 106.25 L 182.5 127.5 L 178.75 152.5 L 172.5 167.5 L 171.25 171.25 L 172.5 163.75 L 182.5 151.25 L 192.5 140.0 L 201.25 135.0 L 206.25 137.5 L 206.25 152.5 L 198.75 178.75 L 187.5 201.25 L 177.5 213.75 L 176.25 213.75 L 182.5 206.25 L 195.0 196.25 L 206.25 187.5 L 218.75 183.75 L 227.5 187.5 L 225.0 207.5 L 210.0 241.25 L 191.25 270.0 L 175.0 281.25 " stroke="black" fill="none" stroke-width="6.0" stroke-linecap="round" stroke-linejoin="round" />
</svg>