<svg xmlns="http://www.w3.org/2000/svg" width="300" height="300" viewBox="0 0 300 300">
<path d="M 72.5 98.75 L 68.75 100.0 L 61.25 101.25 L 63.75 102.5 L 80.0 101.25 L 101.25 96.25 L 126.25 87.5 L 145.0 77.5 L 147.5 72.5 L 141.25 71.25 " stroke="black" fill="none" stroke-width="6.0" stroke-linecap="round" stroke-linejoin="round" />
<path d="M 116.25 91.25 L 116.25 92.5 L 112.5 101.25 L 112.5 122.5 L 113.75 162.5 L 115.0 202.5 L 112.5 221.25 L 108.75 226.25 " stroke="black" fill="none" stroke-width="6.0" stroke-linecap="round" stroke-linejoin="round" />
<path d="M 76.25 122.5 L 75.0 120.0 L 72.5 116.25 L 72.5 116.25 L 76.25 131.25 L 81.25 157.5 L 82.5 186.25 L 82.5 200.0 L 82.5 200.0 " stroke="black" fill="none" stroke-width="6.0" stroke-linecap="round" stroke-linejoin="round" />
<path d="M 81.25 147.5 L 80.0 147.5 L 78.75 147.5 L 80.0 145.0 L 90.0 137.5 L 100.0 130.0 L 106.25 126.25 L 103.75 127.5 " stroke="black" fill="none" stroke-width="6.0" stroke-linecap="round" stroke-linejoin="round" />
<path d="M 86.25 160.0 L 85.0 160.0 L 82.5 163.75 L 83.75 165.0 L 91.25 161.25 L 97.5 156.25 L 101.25 151.25 L 101.25 151.25 " stroke="black" fill="none" stroke-width="6.0" stroke-linecap="round" stroke-linejoin="round" />
<path d="M 68.75 208.75 L 65.0 215.0 L 68.75 215.0 L 83.75 206.25 L 102.5 191.25 L 117.5 175.0 " stroke="black" fill="none" stroke-width="6.0" stroke-linecap="round" stroke-linejoin="round" />
<path d="M 146.25 108.75 L 142.5 111.25 L 142.5 116.25 L 146.25 132.5 L 150.0 148.75 L 153.75 155.0 L 160.0 152.5 L 172.5 141.25 L 188.75 125.0 L 205.0 108.75 L 212.5 97.5 L 215.0 95.0 L 210.0 96.25 L 203.75 100.0 " stroke="black" fill="none" stroke-width="6.0" stroke-linecap="round" stroke-linejoin="round" />
<path d="M 168.75 88.75 L 168.75 88.75 L 168.75 86.25 L 171.25 85.0 L 175.0 103.75 L 175.0 143.75 L 165.0 187.5 L 153.75 213.75 L 145.0 225.0 L 140.0 225.0 " stroke="black" fill="none" stroke-width="6.0" stroke-linecap="round" stroke-linejoin="round" />
<path d="M 173.75 155.0 L 176.25 161.25 L 190.0 173.75 L 207.5 195.0 L 221.25 208.75 L 236.25 220.0 L 247.5 232.5 L 251.25 240.0 " stroke="black" fill="none" stroke-width="6.0" stroke-linecap="round" stroke-linejoin="round" />
</svg>