<svg xmlns="http://www.w3.org/2000/svg" width="300" height="300" viewBox="0 0 300 300">
<path d="M 83.75 158.75 L 81.25 160.0 L 80.0 162.5 L 82.5 178.75 L 90.0 200.0 L 98.75 212.5 L 102.5 213.75 " stroke="black" fill="none" stroke-width="6.0" stroke-linecap="round" stroke-linejoin="round" />
<path d="M 133.75 151.25 L 133.75 152.5 L 136.25 162.5 L 148.75 186.25 L 166.25 206.25 L 188.75 216.25 L 207.5 215.0 L 213.75 206.25 L 213.75 197.5 L 207.5 190.0 L 195.0 181.25 L 177.5 171.25 L 157.5 161.25 L 145.0 155.0 L 143.75 152.5 L 160.0 146.25 L 191.25 137.5 L 222.5 133.75 L 246.25 137.5 L 256.25 145.0 L 257.5 152.5 L 255.0 155.0 " stroke="black" fill="none" stroke-width="6.0" stroke-linecap="round" stroke-linejoin="round" />
</svg>