<svg xmlns="http://www.w3.org/2000/svg" width="300" height="300" viewBox="0 0 300 300">
<path d="M 113.75 73.75 L 113.75 73.75 L 111.25 73.75 L 110.0 73.75 L 116.25 73.75 L 133.75 71.25 L 153.75 63.75 L 167.5 56.25 L 167.5 55.0 L 160.0 57.5 " stroke="black" fill="none" stroke-width="6.0" stroke-linecap="round" stroke-linejoin="round" />
<path d="M 95.0 100.0 L 93.75 100.0 L 91.25 100.0 L 90.0 101.25 L 92.5 105.0 L 98.75 113.75 L 105.0 123.75 L 108.75 131.25 L 110.0 133.75 L 107.5 133.75 L 105.0 128.75 L 105.0 127.5 " stroke="black" fill="none" stroke-width="6.0" stroke-linecap="round" stroke-linejoin="round" />
<path d="M 100.0 111.25 L 98.75 111.25 L 97.5 111.25 L 100.0 111.25 L 116.25 105.0 L 143.75 96.25 L 176.25 87.5 L 202.5 83.75 L 213.75 82.5 L 217.5 85.0 L 216.25 87.5 L 208.75 93.75 L 198.75 102.5 L 190.0 108.75 " stroke="black" fill="none" stroke-width="6.0" stroke-linecap="round" stroke-linejoin="round" />
<path d="M 157.5 80.0 L 157.5 80.0 L 156.25 80.0 L 156.25 86.25 L 157.5 101.25 L 158.75 115.0 L 160.0 122.5 L 160.0 122.5 " stroke="black" fill="none" stroke-width="6.0" stroke-linecap="round" stroke-linejoin="round" />
<path d="M 185.0 72.5 L 185.0 72.5 L 186.25 72.5 L 185.0 78.75 L 180.0 92.5 L 170.0 110.0 L 158.75 120.0 L 150.0 121.25 " stroke="black" fill="none" stroke-width="6.0" stroke-linecap="round" stroke-linejoin="round" />
<path d="M 123.75 87.5 L 122.5 87.5 L 122.5 92.5 L 125.0 101.25 L 135.0 115.0 L 145.0 128.75 L 145.0 131.25 " stroke="black" fill="none" stroke-width="6.0" stroke-linecap="round" stroke-linejoin="round" />
<path d="M 100.0 161.25 L 98.75 161.25 L 97.5 161.25 L 97.5 161.25 L 100.0 166.25 L 106.25 176.25 L 112.5 183.75 L 117.5 188.75 L 117.5 188.75 L 116.25 187.5 L 112.5 182.5 L 108.75 177.5 L 105.0 173.75 L 102.5 171.25 L 101.25 170.0 L 102.5 168.75 L 108.75 166.25 L 118.75 162.5 L 128.75 160.0 L 136.25 158.75 L 137.5 160.0 L 133.75 167.5 L 125.0 176.25 L 116.25 183.75 L 111.25 187.5 L 110.0 188.75 L 113.75 186.25 L 125.0 178.75 L 137.5 168.75 L 145.0 158.75 L 146.25 156.25 " stroke="black" fill="none" stroke-width="6.0" stroke-linecap="round" stroke-linejoin="round" />
<path d="M 147.5 147.5 L 145.0 148.75 L 145.0 150.0 L 145.0 152.5 L 147.5 160.0 L 152.5 168.75 L 156.25 175.0 L 157.5 180.0 L 157.5 178.75 L 156.25 176.25 " stroke="black" fill="none" stroke-width="6.0" stroke-linecap="round" stroke-linejoin="round" />
<path d="M 152.5 156.25 L 151.25 156.25 L 150.0 156.25 L 148.75 156.25 L 150.0 155.0 L 157.5 152.5 L 167.5 150.0 L 173.75 148.75 L 177.5 148.75 L 175.0 155.0 L 168.75 165.0 L 161.25 173.75 L 157.5 177.5 L 156.25 177.5 L 162.5 172.5 L 172.5 162.5 L 180.0 156.25 " stroke="black" fill="none" stroke-width="6.0" stroke-linecap="round" stroke-linejoin="round" />
<path d="M 186.25 136.25 L 183.75 135.0 L 181.25 133.75 L 181.25 135.0 L 183.75 143.75 L 186.25 153.75 L 188.75 160.0 L 191.25 166.25 L 191.25 166.25 L 191.25 161.25 L 190.0 155.0 L 187.5 150.0 L 187.5 145.0 L 187.5 140.0 L 190.0 136.25 L 196.25 135.0 L 201.25 133.75 L 203.75 137.5 L 203.75 143.75 L 198.75 151.25 L 195.0 157.5 L 193.75 160.0 L 193.75 160.0 L 201.25 155.0 L 208.75 147.5 L 211.25 146.25 " stroke="black" fill="none" stroke-width="6.0" stroke-linecap="round" stroke-linejoin="round" />
<path d="M 106.25 212.5 L 101.25 213.75 L 100.0 215.0 L 106.25 215.0 L 125.0 208.75 L 148.75 200.0 L 172.5 187.5 L 186.25 178.75 L 190.0 175.0 L 186.25 176.25 L 176.25 182.5 L 162.5 190.0 L 150.0 198.75 L 138.75 208.75 L 128.75 223.75 L 122.5 240.0 L 121.25 246.25 L 121.25 247.5 L 123.75 243.75 " stroke="black" fill="none" stroke-width="6.0" stroke-linecap="round" stroke-linejoin="round" />
<path d="M 137.5 220.0 L 136.25 220.0 L 135.0 221.25 L 135.0 223.75 L 138.75 230.0 L 143.75 237.5 L 147.5 242.5 L 148.75 242.5 " stroke="black" fill="none" stroke-width="6.0" stroke-linecap="round" stroke-linejoin="round" />
<path d="M 200.0 192.5 L 200.0 192.5 L 198.75 192.5 L 195.0 195.0 L 186.25 203.75 L 175.0 213.75 L 166.25 221.25 L 162.5 222.5 L 163.75 222.5 L 172.5 220.0 L 186.25 215.0 L 200.0 208.75 L 211.25 203.75 L 215.0 201.25 L 212.5 201.25 L 207.5 201.25 " stroke="black" fill="none" stroke-width="6.0" stroke-linecap="round" stroke-linejoin="round" />
<path d="M 161.25 196.25 L 161.25 196.25 L 161.25 197.5 L 163.75 202.5 L 167.5 216.25 L 168.75 235.0 L 165.0 248.75 L 156.25 256.25 L 146.25 257.5 L 136.25 258.75 L 127.5 258.75 L 122.5 260.0 L 121.25 260.0 L 120.0 260.0 L 120.0 260.0 L 120.0 260.0 L 122.5 260.0 L 123.75 260.0 L 125.0 260.0 L 126.25 260.0 L 126.25 260.0 L 127.5 260.0 L 127.5 258.75 L 127.5 258.75 L 127.5 258.75 L 127.5 258.75 L 127.5 258.75 L 127.5 258.75 L 128.75 258.75 L 133.75 258.75 L 147.5 255.0 L 175.0 248.75 L 202.5 242.5 L 223.75 238.75 L 240.0 237.5 L 248.75 236.25 L 251.25 236.25 L 252.5 236.25 L 252.5 236.25 L 252.5 236.25 L 251.25 236.25 L 250.0 236.25 " stroke="black" fill="none" stroke-width="6.0" stroke-linecap="round" stroke-linejoin="round" />
</svg>