<svg xmlns="http://www.w3.org/2000/svg" width="300" height="300" viewBox="0 0 300 300">
<path d="M 106.25 82.5 L 106.25 82.5 L 107.5 82.5 L 120.0 81.25 L 145.0 81.25 L 171.25 77.5 L 187.5 73.75 L 188.75 71.25 L 186.25 71.25 " stroke="black" fill="none" stroke-width="6.0" stroke-linecap="round" stroke-linejoin="round" />
<path d="M 95.0 100.0 L 91.25 103.75 L 90.0 113.75 L 93.75 128.75 L 97.5 142.5 L 100.0 147.5 L 100.0 147.5 " stroke="black" fill="none" stroke-width="6.0" stroke-linecap="round" stroke-linejoin="round" />
<path d="M 90.0 115.0 L 88.75 113.75 L 88.75 112.5 L 100.0 111.25 L 132.5 108.75 L 171.25 101.25 L 200.0 96.25 L 212.5 95.0 L 216.25 96.25 L 212.5 100.0 L 201.25 111.25 L 187.5 125.0 L 180.0 130.0 " stroke="black" fill="none" stroke-width="6.0" stroke-linecap="round" stroke-linejoin="round" />
<path d="M 146.25 88.75 L 145.0 87.5 L 145.0 86.25 L 145.0 88.75 L 145.0 105.0 L 146.25 125.0 L 146.25 132.5 " stroke="black" fill="none" stroke-width="6.0" stroke-linecap="round" stroke-linejoin="round" />
<path d="M 182.5 82.5 L 183.75 80.0 L 183.75 80.0 L 177.5 91.25 L 166.25 108.75 L 155.0 125.0 " stroke="black" fill="none" stroke-width="6.0" stroke-linecap="round" stroke-linejoin="round" />
<path d="M 112.5 98.75 L 112.5 98.75 L 111.25 98.75 L 111.25 103.75 L 116.25 122.5 L 120.0 131.25 " stroke="black" fill="none" stroke-width="6.0" stroke-linecap="round" stroke-linejoin="round" />
<path d="M 93.75 147.5 L 92.5 148.75 L 91.25 150.0 L 93.75 157.5 L 98.75 171.25 L 103.75 182.5 L 106.25 187.5 L 105.0 187.5 L 103.75 183.75 " stroke="black" fill="none" stroke-width="6.0" stroke-linecap="round" stroke-linejoin="round" />
<path d="M 98.75 166.25 L 98.75 163.75 L 97.5 161.25 L 102.5 160.0 L 112.5 158.75 L 126.25 158.75 L 132.5 160.0 L 130.0 167.5 L 118.75 176.25 L 106.25 183.75 L 101.25 186.25 L 101.25 186.25 L 113.75 177.5 L 128.75 167.5 L 140.0 157.5 L 146.25 150.0 L 146.25 147.5 L 143.75 147.5 L 140.0 150.0 L 138.75 153.75 L 138.75 162.5 L 138.75 172.5 L 141.25 180.0 L 142.5 181.25 " stroke="black" fill="none" stroke-width="6.0" stroke-linecap="round" stroke-linejoin="round" />
<path d="M 142.5 157.5 L 141.25 157.5 L 141.25 157.5 L 143.75 157.5 L 151.25 156.25 L 160.0 156.25 L 165.0 156.25 L 162.5 161.25 L 152.5 170.0 L 145.0 176.25 L 142.5 177.5 L 145.0 175.0 L 156.25 165.0 L 167.5 155.0 " stroke="black" fill="none" stroke-width="6.0" stroke-linecap="round" stroke-linejoin="round" />
<path d="M 177.5 138.75 L 177.5 138.75 L 177.5 138.75 L 176.25 141.25 L 176.25 148.75 L 176.25 158.75 L 178.75 167.5 L 180.0 170.0 " stroke="black" fill="none" stroke-width="6.0" stroke-linecap="round" stroke-linejoin="round" />
<path d="M 181.25 146.25 L 181.25 143.75 L 180.0 141.25 L 180.0 138.75 L 183.75 138.75 L 188.75 137.5 L 192.5 138.75 L 193.75 142.5 L 186.25 150.0 L 178.75 157.5 L 173.75 161.25 L 175.0 162.5 L 183.75 160.0 L 193.75 152.5 L 201.25 147.5 L 202.5 146.25 " stroke="black" fill="none" stroke-width="6.0" stroke-linecap="round" stroke-linejoin="round" />
<path d="M 95.0 207.5 L 95.0 208.75 L 95.0 208.75 L 111.25 205.0 L 145.0 192.5 L 175.0 180.0 L 193.75 168.75 L 197.5 165.0 L 195.0 165.0 " stroke="black" fill="none" stroke-width="6.0" stroke-linecap="round" stroke-linejoin="round" />
<path d="M 143.75 197.5 L 133.75 208.75 L 120.0 230.0 L 107.5 248.75 L 102.5 251.25 L 100.0 248.75 L 100.0 246.25 " stroke="black" fill="none" stroke-width="6.0" stroke-linecap="round" stroke-linejoin="round" />
<path d="M 126.25 208.75 L 126.25 208.75 L 127.5 210.0 L 132.5 216.25 L 141.25 226.25 L 147.5 231.25 " stroke="black" fill="none" stroke-width="6.0" stroke-linecap="round" stroke-linejoin="round" />
<path d="M 205.0 178.75 L 202.5 180.0 L 195.0 187.5 L 185.0 197.5 L 172.5 210.0 L 163.75 216.25 L 161.25 216.25 L 161.25 216.25 L 166.25 216.25 L 178.75 215.0 L 192.5 212.5 L 205.0 210.0 L 210.0 208.75 L 211.25 207.5 " stroke="black" fill="none" stroke-width="6.0" stroke-linecap="round" stroke-linejoin="round" />
<path d="M 163.75 186.25 L 162.5 188.75 L 161.25 197.5 L 160.0 218.75 L 156.25 242.5 L 151.25 253.75 L 145.0 256.25 L 136.25 256.25 L 125.0 256.25 L 116.25 256.25 L 113.75 256.25 L 113.75 256.25 L 113.75 256.25 L 115.0 256.25 L 117.5 256.25 L 121.25 256.25 L 125.0 256.25 L 132.5 256.25 L 141.25 255.0 L 155.0 253.75 L 177.5 252.5 L 201.25 250.0 L 215.0 250.0 L 223.75 250.0 L 230.0 250.0 L 233.75 250.0 " stroke="black" fill="none" stroke-width="6.0" stroke-linecap="round" stroke-linejoin="round" />
</svg>