<svg xmlns="http://www.w3.org/2000/svg" width="300" height="300" viewBox="0 0 300 300">
<path d="M 93.75 88.75 L 91.25 88.75 L 90.0 90.0 L 90.0 91.25 L 96.25 91.25 L 107.5 91.25 L 117.5 91.25 L 120.0 92.5 " stroke="black" fill="none" stroke-width="6.0" stroke-linecap="round" stroke-linejoin="round" />
<path d="M 71.25 131.25 L 71.25 131.25 L 70.0 133.75 L 78.75 131.25 L 95.0 123.75 L 116.25 113.75 L 130.0 106.25 L 136.25 102.5 L 128.75 103.75 " stroke="black" fill="none" stroke-width="6.0" stroke-linecap="round" stroke-linejoin="round" />
<path d="M 85.0 148.75 L 85.0 151.25 L 83.75 153.75 L 87.5 152.5 L 97.5 146.25 L 110.0 138.75 L 117.5 132.5 L 116.25 131.25 L 112.5 133.75 " stroke="black" fill="none" stroke-width="6.0" stroke-linecap="round" stroke-linejoin="round" />
<path d="M 82.5 175.0 L 82.5 177.5 L 81.25 180.0 L 87.5 176.25 L 98.75 167.5 L 112.5 156.25 L 118.75 150.0 L 113.75 148.75 " stroke="black" fill="none" stroke-width="6.0" stroke-linecap="round" stroke-linejoin="round" />
<path d="M 65.0 202.5 L 63.75 208.75 L 67.5 216.25 L 80.0 226.25 L 91.25 237.5 L 98.75 241.25 L 98.75 241.25 L 97.5 241.25 L 93.75 238.75 L 90.0 236.25 L 86.25 232.5 L 82.5 228.75 L 80.0 225.0 L 80.0 220.0 L 90.0 213.75 L 107.5 205.0 L 127.5 198.75 L 137.5 197.5 L 133.75 203.75 L 120.0 218.75 L 106.25 232.5 L 98.75 238.75 L 100.0 231.25 L 102.5 227.5 " stroke="black" fill="none" stroke-width="6.0" stroke-linecap="round" stroke-linejoin="round" />
<path d="M 160.0 91.25 L 160.0 91.25 L 157.5 91.25 L 160.0 91.25 L 171.25 91.25 L 186.25 93.75 L 196.25 101.25 L 197.5 116.25 L 186.25 133.75 L 168.75 147.5 L 152.5 155.0 L 143.75 157.5 L 140.0 156.25 L 141.25 151.25 L 148.75 142.5 L 161.25 133.75 L 176.25 125.0 L 192.5 123.75 L 200.0 127.5 L 197.5 140.0 L 185.0 156.25 L 167.5 171.25 L 151.25 183.75 L 145.0 187.5 L 146.25 187.5 L 156.25 181.25 L 173.75 171.25 L 191.25 162.5 L 206.25 155.0 L 211.25 152.5 L 211.25 152.5 " stroke="black" fill="none" stroke-width="6.0" stroke-linecap="round" stroke-linejoin="round" />
<path d="M 152.5 206.25 L 152.5 206.25 L 150.0 206.25 L 148.75 206.25 L 153.75 216.25 L 163.75 232.5 L 172.5 243.75 L 176.25 246.25 L 176.25 245.0 L 172.5 238.75 L 166.25 235.0 L 160.0 230.0 L 155.0 225.0 L 155.0 217.5 L 162.5 208.75 L 177.5 201.25 L 196.25 196.25 L 211.25 193.75 L 216.25 193.75 L 216.25 198.75 L 206.25 211.25 L 193.75 226.25 L 180.0 241.25 L 172.5 248.75 L 176.25 247.5 L 190.0 240.0 L 206.25 226.25 L 221.25 212.5 L 228.75 205.0 " stroke="black" fill="none" stroke-width="6.0" stroke-linecap="round" stroke-linejoin="round" />
</svg>