<svg xmlns="http://www.w3.org/2000/svg" width="300" height="300" viewBox="0 0 300 300">
<path d="M 76.25 96.25 L 76.25 96.25 L 73.75 96.25 L 72.5 96.25 L 83.75 96.25 L 100.0 91.25 L 115.0 83.75 L 123.75 77.5 L 121.25 76.25 L 112.5 77.5 " stroke="black" fill="none" stroke-width="6.0" stroke-linecap="round" stroke-linejoin="round" />
<path d="M 96.25 78.75 L 96.25 80.0 L 95.0 81.25 L 95.0 88.75 L 96.25 106.25 L 96.25 126.25 L 96.25 137.5 L 96.25 138.75 " stroke="black" fill="none" stroke-width="6.0" stroke-linecap="round" stroke-linejoin="round" />
<path d="M 81.25 126.25 L 80.0 126.25 L 77.5 126.25 L 77.5 126.25 L 87.5 123.75 L 100.0 116.25 L 113.75 108.75 L 120.0 105.0 L 116.25 105.0 L 107.5 108.75 " stroke="black" fill="none" stroke-width="6.0" stroke-linecap="round" stroke-linejoin="round" />
<path d="M 58.75 155.0 L 56.25 157.5 L 56.25 158.75 L 71.25 156.25 L 97.5 146.25 L 126.25 130.0 L 142.5 116.25 L 145.0 112.5 L 140.0 112.5 L 128.75 118.75 L 116.25 126.25 L 105.0 135.0 L 96.25 146.25 L 93.75 172.5 L 97.5 211.25 L 103.75 238.75 L 107.5 251.25 L 107.5 255.0 L 106.25 255.0 L 102.5 252.5 L 98.75 243.75 L 95.0 231.25 L 93.75 226.25 " stroke="black" fill="none" stroke-width="6.0" stroke-linecap="round" stroke-linejoin="round" />
<path d="M 93.75 153.75 L 93.75 153.75 L 93.75 153.75 L 100.0 152.5 L 110.0 156.25 L 121.25 177.5 L 125.0 207.5 L 123.75 230.0 L 120.0 240.0 L 117.5 240.0 L 115.0 236.25 L 113.75 228.75 " stroke="black" fill="none" stroke-width="6.0" stroke-linecap="round" stroke-linejoin="round" />
<path d="M 97.5 191.25 L 95.0 191.25 L 91.25 191.25 L 92.5 191.25 L 101.25 185.0 L 113.75 172.5 L 126.25 161.25 L 130.0 156.25 L 128.75 156.25 " stroke="black" fill="none" stroke-width="6.0" stroke-linecap="round" stroke-linejoin="round" />
<path d="M 100.0 205.0 L 96.25 208.75 L 97.5 208.75 L 107.5 203.75 L 118.75 193.75 L 121.25 192.5 " stroke="black" fill="none" stroke-width="6.0" stroke-linecap="round" stroke-linejoin="round" />
<path d="M 146.25 91.25 L 146.25 91.25 L 145.0 91.25 L 156.25 87.5 L 180.0 78.75 L 201.25 67.5 L 208.75 58.75 L 207.5 57.5 L 200.0 61.25 L 197.5 62.5 " stroke="black" fill="none" stroke-width="6.0" stroke-linecap="round" stroke-linejoin="round" />
<path d="M 167.5 86.25 L 163.75 90.0 L 161.25 98.75 L 162.5 116.25 L 165.0 135.0 L 168.75 145.0 L 170.0 145.0 L 170.0 142.5 " stroke="black" fill="none" stroke-width="6.0" stroke-linecap="round" stroke-linejoin="round" />
<path d="M 181.25 93.75 L 181.25 93.75 L 181.25 91.25 L 181.25 91.25 L 181.25 100.0 L 178.75 116.25 L 175.0 131.25 L 173.75 133.75 " stroke="black" fill="none" stroke-width="6.0" stroke-linecap="round" stroke-linejoin="round" />
<path d="M 200.0 77.5 L 200.0 77.5 L 200.0 76.25 L 201.25 78.75 L 201.25 95.0 L 191.25 126.25 L 176.25 147.5 L 166.25 152.5 " stroke="black" fill="none" stroke-width="6.0" stroke-linecap="round" stroke-linejoin="round" />
<path d="M 161.25 143.75 L 158.75 145.0 L 158.75 145.0 L 163.75 145.0 L 178.75 140.0 L 195.0 133.75 L 210.0 127.5 L 218.75 126.25 L 220.0 128.75 L 212.5 137.5 L 202.5 148.75 L 188.75 160.0 L 170.0 171.25 L 156.25 180.0 L 153.75 181.25 L 158.75 178.75 L 175.0 170.0 L 192.5 160.0 L 211.25 151.25 L 226.25 145.0 L 231.25 145.0 L 227.5 151.25 L 213.75 163.75 L 198.75 180.0 L 177.5 197.5 L 155.0 213.75 L 147.5 220.0 L 148.75 220.0 L 156.25 212.5 L 163.75 205.0 " stroke="black" fill="none" stroke-width="6.0" stroke-linecap="round" stroke-linejoin="round" />
<path d="M 191.25 136.25 L 190.0 136.25 L 190.0 136.25 L 190.0 140.0 L 193.75 157.5 L 200.0 191.25 L 203.75 220.0 L 205.0 240.0 L 205.0 251.25 L 203.75 256.25 L 202.5 257.5 L 201.25 257.5 L 198.75 257.5 L 193.75 255.0 L 187.5 250.0 L 178.75 242.5 L 165.0 232.5 " stroke="black" fill="none" stroke-width="6.0" stroke-linecap="round" stroke-linejoin="round" />
</svg>