<svg xmlns="http://www.w3.org/2000/svg" width="300" height="300" viewBox="0 0 300 300">
<path d="M 82.5 105.0 L 82.5 106.25 L 78.75 106.25 L 81.25 105.0 L 92.5 100.0 L 107.5 92.5 L 120.0 86.25 L 122.5 82.5 L 120.0 81.25 L 113.75 81.25 L 108.75 81.25 L 103.75 81.25 L 101.25 81.25 L 100.0 83.75 L 100.0 88.75 L 100.0 102.5 L 101.25 123.75 L 101.25 143.75 L 98.75 148.75 " stroke="black" fill="none" stroke-width="6.0" stroke-linecap="round" stroke-linejoin="round" />
<path d="M 86.25 137.5 L 85.0 137.5 L 83.75 137.5 L 90.0 133.75 L 103.75 126.25 L 116.25 118.75 L 121.25 115.0 L 115.0 116.25 L 105.0 122.5 " stroke="black" fill="none" stroke-width="6.0" stroke-linecap="round" stroke-linejoin="round" />
<path d="M 67.5 161.25 L 63.75 167.5 L 61.25 171.25 L 68.75 170.0 L 85.0 162.5 L 108.75 147.5 L 131.25 131.25 L 145.0 120.0 L 145.0 117.5 L 137.5 120.0 L 123.75 128.75 L 110.0 138.75 L 97.5 151.25 L 90.0 177.5 L 90.0 215.0 L 95.0 241.25 L 100.0 251.25 L 101.25 252.5 L 101.25 252.5 L 101.25 250.0 L 97.5 242.5 L 95.0 233.75 L 93.75 227.5 " stroke="black" fill="none" stroke-width="6.0" stroke-linecap="round" stroke-linejoin="round" />
<path d="M 92.5 176.25 L 93.75 173.75 L 98.75 168.75 L 108.75 163.75 L 121.25 163.75 L 130.0 177.5 L 133.75 197.5 L 135.0 220.0 L 131.25 238.75 L 128.75 246.25 L 125.0 248.75 L 121.25 246.25 L 120.0 245.0 " stroke="black" fill="none" stroke-width="6.0" stroke-linecap="round" stroke-linejoin="round" />
<path d="M 96.25 201.25 L 95.0 201.25 L 92.5 202.5 L 93.75 202.5 L 105.0 197.5 L 117.5 190.0 L 125.0 183.75 L 125.0 183.75 L 123.75 183.75 " stroke="black" fill="none" stroke-width="6.0" stroke-linecap="round" stroke-linejoin="round" />
<path d="M 96.25 218.75 L 93.75 223.75 L 96.25 223.75 L 110.0 216.25 L 135.0 198.75 L 148.75 186.25 " stroke="black" fill="none" stroke-width="6.0" stroke-linecap="round" stroke-linejoin="round" />
<path d="M 148.75 95.0 L 147.5 95.0 L 145.0 96.25 L 145.0 96.25 L 156.25 92.5 L 175.0 86.25 L 195.0 77.5 L 205.0 71.25 L 205.0 70.0 L 196.25 72.5 L 185.0 77.5 L 171.25 83.75 L 160.0 90.0 L 153.75 96.25 L 152.5 103.75 L 153.75 120.0 L 156.25 136.25 L 158.75 146.25 L 160.0 146.25 L 160.0 141.25 " stroke="black" fill="none" stroke-width="6.0" stroke-linecap="round" stroke-linejoin="round" />
<path d="M 176.25 100.0 L 176.25 100.0 L 175.0 101.25 L 175.0 105.0 L 173.75 117.5 L 170.0 132.5 L 168.75 138.75 L 168.75 136.25 L 171.25 127.5 L 177.5 115.0 L 185.0 102.5 L 192.5 92.5 L 200.0 87.5 L 201.25 87.5 L 201.25 93.75 L 200.0 106.25 L 192.5 122.5 L 181.25 136.25 L 165.0 147.5 L 150.0 153.75 L 145.0 157.5 L 145.0 157.5 L 152.5 157.5 L 166.25 152.5 L 185.0 143.75 L 203.75 135.0 L 216.25 130.0 L 220.0 130.0 L 215.0 136.25 L 205.0 147.5 L 191.25 162.5 L 170.0 178.75 L 152.5 191.25 L 147.5 195.0 L 152.5 193.75 L 166.25 186.25 L 185.0 176.25 L 205.0 165.0 L 220.0 158.75 L 225.0 157.5 L 217.5 166.25 L 202.5 183.75 L 183.75 198.75 L 165.0 206.25 " stroke="black" fill="none" stroke-width="6.0" stroke-linecap="round" stroke-linejoin="round" />
<path d="M 181.25 142.5 L 181.25 142.5 L 181.25 142.5 L 180.0 142.5 L 181.25 147.5 L 186.25 165.0 L 192.5 195.0 L 195.0 222.5 L 196.25 242.5 L 196.25 252.5 L 196.25 255.0 L 196.25 256.25 L 196.25 256.25 L 193.75 255.0 L 190.0 253.75 L 185.0 250.0 L 176.25 246.25 L 165.0 241.25 L 153.75 240.0 " stroke="black" fill="none" stroke-width="6.0" stroke-linecap="round" stroke-linejoin="round" />
</svg>