<svg xmlns="http://www.w3.org/2000/svg" width="300" height="300" viewBox="0 0 300 300">
<path d="M 137.5 85.0 L 137.5 85.0 L 137.5 85.0 L 138.75 85.0 L 150.0 85.0 L 167.5 85.0 L 178.75 85.0 L 180.0 85.0 L 175.0 85.0 " stroke="black" fill="none" stroke-width="6.0" stroke-linecap="round" stroke-linejoin="round" />
<path d="M 93.75 120.0 L 91.25 121.25 L 87.5 123.75 L 90.0 125.0 L 105.0 123.75 L 133.75 115.0 L 162.5 101.25 L 183.75 90.0 L 190.0 86.25 L 187.5 86.25 L 175.0 91.25 L 168.75 93.75 " stroke="black" fill="none" stroke-width="6.0" stroke-linecap="round" stroke-linejoin="round" />
<path d="M 128.75 133.75 L 127.5 135.0 L 126.25 141.25 L 126.25 155.0 L 126.25 172.5 L 125.0 185.0 L 121.25 187.5 " stroke="black" fill="none" stroke-width="6.0" stroke-linecap="round" stroke-linejoin="round" />
<path d="M 102.5 170.0 L 102.5 170.0 L 101.25 170.0 L 102.5 167.5 L 112.5 162.5 L 125.0 156.25 L 131.25 152.5 L 130.0 152.5 " stroke="black" fill="none" stroke-width="6.0" stroke-linecap="round" stroke-linejoin="round" />
<path d="M 105.0 193.75 L 105.0 193.75 L 103.75 197.5 L 107.5 197.5 L 123.75 188.75 L 145.0 172.5 L 160.0 155.0 L 168.75 142.5 " stroke="black" fill="none" stroke-width="6.0" stroke-linecap="round" stroke-linejoin="round" />
<path d="M 185.0 122.5 L 183.75 122.5 L 182.5 125.0 L 181.25 135.0 L 183.75 153.75 L 188.75 167.5 L 198.75 172.5 L 210.0 167.5 L 220.0 158.75 L 226.25 151.25 L 226.25 147.5 L 217.5 146.25 L 205.0 147.5 L 191.25 152.5 L 181.25 157.5 L 180.0 158.75 L 191.25 153.75 L 207.5 141.25 L 223.75 128.75 L 231.25 118.75 " stroke="black" fill="none" stroke-width="6.0" stroke-linecap="round" stroke-linejoin="round" />
<path d="M 155.0 116.25 L 155.0 115.0 L 155.0 115.0 L 153.75 115.0 L 153.75 118.75 L 156.25 140.0 L 160.0 181.25 L 163.75 215.0 L 165.0 230.0 L 166.25 238.75 L 166.25 241.25 L 163.75 242.5 L 158.75 242.5 L 153.75 237.5 L 150.0 228.75 L 148.75 226.25 " stroke="black" fill="none" stroke-width="6.0" stroke-linecap="round" stroke-linejoin="round" />
<path d="M 161.25 186.25 L 155.0 192.5 L 146.25 206.25 L 135.0 223.75 L 120.0 241.25 L 106.25 248.75 L 101.25 247.5 L 101.25 246.25 " stroke="black" fill="none" stroke-width="6.0" stroke-linecap="round" stroke-linejoin="round" />
<path d="M 156.25 185.0 L 160.0 183.75 L 167.5 183.75 L 181.25 190.0 L 197.5 200.0 L 210.0 210.0 L 220.0 220.0 L 231.25 228.75 L 245.0 235.0 L 256.25 238.75 L 263.75 242.5 L 266.25 246.25 L 266.25 247.5 " stroke="black" fill="none" stroke-width="6.0" stroke-linecap="round" stroke-linejoin="round" />
</svg>