<svg xmlns="http://www.w3.org/2000/svg" width="300" height="300" viewBox="0 0 300 300">
<path d="M 126.25 78.75 L 120.0 78.75 L 112.5 83.75 L 98.75 102.5 L 82.5 131.25 L 71.25 143.75 L 67.5 145.0 " stroke="black" fill="none" stroke-width="6.0" stroke-linecap="round" stroke-linejoin="round" />
<path d="M 146.25 76.25 L 147.5 73.75 L 152.5 73.75 L 161.25 80.0 L 176.25 86.25 L 190.0 93.75 L 191.25 93.75 " stroke="black" fill="none" stroke-width="6.0" stroke-linecap="round" stroke-linejoin="round" />
<path d="M 146.25 112.5 L 145.0 112.5 L 138.75 117.5 L 125.0 135.0 L 100.0 162.5 L 82.5 183.75 L 68.75 192.5 L 61.25 191.25 L 61.25 190.0 " stroke="black" fill="none" stroke-width="6.0" stroke-linecap="round" stroke-linejoin="round" />
<path d="M 127.5 108.75 L 128.75 108.75 L 132.5 107.5 L 143.75 112.5 L 162.5 128.75 L 190.0 145.0 L 213.75 153.75 L 233.75 158.75 L 245.0 161.25 L 243.75 162.5 L 238.75 163.75 " stroke="black" fill="none" stroke-width="6.0" stroke-linecap="round" stroke-linejoin="round" />
<path d="M 106.25 201.25 L 103.75 198.75 L 100.0 196.25 L 100.0 195.0 L 103.75 205.0 L 111.25 228.75 L 121.25 247.5 L 128.75 253.75 L 131.25 251.25 L 131.25 242.5 L 126.25 233.75 L 117.5 223.75 L 108.75 215.0 L 102.5 207.5 L 100.0 205.0 L 110.0 202.5 L 132.5 195.0 L 158.75 185.0 L 180.0 180.0 L 186.25 182.5 L 178.75 196.25 L 160.0 215.0 L 141.25 233.75 L 127.5 246.25 L 126.25 247.5 L 137.5 245.0 L 153.75 237.5 L 173.75 226.25 L 190.0 215.0 " stroke="black" fill="none" stroke-width="6.0" stroke-linecap="round" stroke-linejoin="round" />
</svg>