<svg xmlns="http://www.w3.org/2000/svg" width="300" height="300" viewBox="0 0 300 300">
<path d="M 100.0 96.25 L 98.75 97.5 L 98.75 97.5 L 111.25 95.0 L 133.75 87.5 L 151.25 80.0 L 155.0 76.25 L 155.0 76.25 " stroke="black" fill="none" stroke-width="6.0" stroke-linecap="round" stroke-linejoin="round" />
<path d="M 123.75 75.0 L 123.75 76.25 L 123.75 83.75 L 123.75 100.0 L 125.0 118.75 L 118.75 131.25 L 108.75 133.75 L 97.5 133.75 L 85.0 135.0 L 73.75 136.25 L 70.0 136.25 L 77.5 137.5 L 100.0 136.25 L 133.75 127.5 L 173.75 111.25 L 205.0 95.0 L 212.5 87.5 L 208.75 82.5 L 205.0 81.25 " stroke="black" fill="none" stroke-width="6.0" stroke-linecap="round" stroke-linejoin="round" />
<path d="M 172.5 75.0 L 170.0 78.75 L 157.5 98.75 L 142.5 143.75 L 126.25 178.75 L 100.0 225.0 L 91.25 242.5 L 88.75 243.75 " stroke="black" fill="none" stroke-width="6.0" stroke-linecap="round" stroke-linejoin="round" />
<path d="M 142.5 147.5 L 142.5 147.5 L 146.25 146.25 L 152.5 146.25 L 163.75 148.75 L 170.0 151.25 L 172.5 155.0 L 165.0 161.25 L 153.75 168.75 L 148.75 176.25 L 147.5 178.75 L 157.5 180.0 L 171.25 180.0 L 182.5 183.75 L 186.25 198.75 L 181.25 220.0 L 166.25 250.0 L 161.25 251.25 L 155.0 250.0 L 148.75 245.0 L 141.25 237.5 " stroke="black" fill="none" stroke-width="6.0" stroke-linecap="round" stroke-linejoin="round" />
<path d="M 113.75 213.75 L 112.5 213.75 L 111.25 215.0 L 126.25 213.75 L 155.0 206.25 L 191.25 195.0 L 215.0 187.5 L 226.25 187.5 " stroke="black" fill="none" stroke-width="6.0" stroke-linecap="round" stroke-linejoin="round" />
</svg>