<svg xmlns="http://www.w3.org/2000/svg" width="300" height="300" viewBox="0 0 300 300">
<path d="M 96.25 93.75 L 93.75 93.75 L 91.25 93.75 L 98.75 92.5 L 123.75 87.5 L 158.75 75.0 L 181.25 62.5 L 183.75 58.75 " stroke="black" fill="none" stroke-width="6.0" stroke-linecap="round" stroke-linejoin="round" />
<path d="M 135.0 70.0 L 132.5 71.25 L 127.5 77.5 L 127.5 86.25 L 132.5 98.75 L 135.0 107.5 L 137.5 106.25 " stroke="black" fill="none" stroke-width="6.0" stroke-linecap="round" stroke-linejoin="round" />
<path d="M 168.75 55.0 L 170.0 55.0 L 170.0 57.5 L 166.25 70.0 L 156.25 95.0 L 148.75 111.25 " stroke="black" fill="none" stroke-width="6.0" stroke-linecap="round" stroke-linejoin="round" />
<path d="M 111.25 118.75 L 111.25 118.75 L 110.0 118.75 L 110.0 122.5 L 112.5 138.75 L 118.75 160.0 L 125.0 171.25 L 128.75 173.75 L 128.75 171.25 L 126.25 163.75 L 125.0 155.0 L 122.5 147.5 L 120.0 141.25 L 116.25 135.0 L 110.0 133.75 L 107.5 133.75 L 108.75 132.5 L 121.25 128.75 L 140.0 120.0 L 161.25 111.25 L 177.5 106.25 L 181.25 106.25 L 176.25 113.75 L 163.75 126.25 L 151.25 137.5 L 137.5 146.25 L 123.75 153.75 L 117.5 156.25 L 117.5 155.0 L 130.0 148.75 L 143.75 140.0 L 158.75 131.25 L 173.75 123.75 L 181.25 122.5 L 178.75 128.75 L 165.0 142.5 L 150.0 156.25 L 133.75 168.75 L 126.25 175.0 L 126.25 173.75 L 136.25 167.5 L 147.5 157.5 L 157.5 148.75 L 161.25 145.0 " stroke="black" fill="none" stroke-width="6.0" stroke-linecap="round" stroke-linejoin="round" />
<path d="M 100.0 223.75 L 98.75 225.0 L 97.5 226.25 L 106.25 222.5 L 131.25 210.0 L 155.0 196.25 L 192.5 171.25 L 202.5 158.75 L 203.75 155.0 " stroke="black" fill="none" stroke-width="6.0" stroke-linecap="round" stroke-linejoin="round" />
<path d="M 157.5 170.0 L 157.5 173.75 L 156.25 183.75 L 157.5 201.25 L 157.5 225.0 L 151.25 245.0 L 143.75 252.5 L 135.0 253.75 L 130.0 250.0 " stroke="black" fill="none" stroke-width="6.0" stroke-linecap="round" stroke-linejoin="round" />
<path d="M 158.75 192.5 L 163.75 192.5 L 173.75 201.25 L 192.5 225.0 L 208.75 251.25 L 220.0 265.0 L 230.0 273.75 L 235.0 277.5 L 235.0 278.75 L 230.0 278.75 " stroke="black" fill="none" stroke-width="6.0" stroke-linecap="round" stroke-linejoin="round" />
</svg>