<svg xmlns="http://www.w3.org/2000/svg" width="300" height="300" viewBox="0 0 300 300">
<path d="M 93.75 115.0 L 93.75 112.5 L 95.0 110.0 L 95.0 110.0 L 93.75 123.75 L 86.25 145.0 L 73.75 167.5 L 61.25 183.75 L 55.0 187.5 L 56.25 181.25 L 62.5 170.0 L 65.0 167.5 " stroke="black" fill="none" stroke-width="6.0" stroke-linecap="round" stroke-linejoin="round" />
<path d="M 87.5 148.75 L 88.75 147.5 L 90.0 148.75 L 93.75 163.75 L 95.0 190.0 L 95.0 211.25 L 92.5 218.75 L 91.25 218.75 " stroke="black" fill="none" stroke-width="6.0" stroke-linecap="round" stroke-linejoin="round" />
<path d="M 116.25 120.0 L 110.0 123.75 L 106.25 126.25 L 106.25 126.25 L 113.75 126.25 L 127.5 120.0 L 138.75 112.5 L 145.0 107.5 L 146.25 106.25 L 142.5 123.75 L 136.25 152.5 L 133.75 182.5 L 133.75 195.0 L 140.0 192.5 L 150.0 182.5 L 160.0 165.0 L 167.5 151.25 L 171.25 141.25 L 171.25 135.0 L 166.25 133.75 L 158.75 132.5 L 155.0 132.5 L 153.75 132.5 L 160.0 128.75 L 180.0 113.75 L 205.0 97.5 L 227.5 86.25 L 238.75 85.0 L 241.25 90.0 L 237.5 101.25 L 228.75 117.5 L 220.0 132.5 L 213.75 143.75 L 210.0 147.5 L 208.75 148.75 L 208.75 143.75 L 208.75 138.75 L 207.5 133.75 L 205.0 128.75 L 202.5 125.0 L 200.0 122.5 L 198.75 121.25 L 198.75 121.25 L 198.75 122.5 L 198.75 122.5 L 198.75 123.75 L 198.75 123.75 L 198.75 123.75 L 198.75 123.75 L 198.75 123.75 L 198.75 125.0 L 198.75 125.0 L 198.75 125.0 L 198.75 123.75 L 198.75 123.75 L 198.75 123.75 L 198.75 122.5 L 198.75 122.5 L 198.75 122.5 L 198.75 122.5 L 200.0 123.75 L 200.0 137.5 L 201.25 167.5 L 201.25 198.75 L 202.5 223.75 L 202.5 245.0 L 201.25 257.5 L 198.75 266.25 L 193.75 270.0 L 190.0 271.25 " stroke="black" fill="none" stroke-width="6.0" stroke-linecap="round" stroke-linejoin="round" />
</svg>