<svg xmlns="http://www.w3.org/2000/svg" width="300" height="300" viewBox="0 0 300 300">
<path d="M 120.0 71.25 L 120.0 71.25 L 120.0 70.0 L 126.25 70.0 L 140.0 70.0 L 158.75 72.5 L 172.5 73.75 L 175.0 73.75 L 167.5 77.5 " stroke="black" fill="none" stroke-width="6.0" stroke-linecap="round" stroke-linejoin="round" />
<path d="M 110.0 105.0 L 110.0 106.25 L 112.5 106.25 L 126.25 102.5 L 148.75 96.25 L 168.75 91.25 L 176.25 90.0 L 172.5 95.0 L 158.75 106.25 L 146.25 118.75 L 132.5 131.25 L 120.0 138.75 L 117.5 138.75 L 126.25 135.0 L 141.25 123.75 L 155.0 112.5 L 165.0 102.5 L 166.25 96.25 L 157.5 96.25 L 147.5 98.75 L 137.5 100.0 L 125.0 102.5 L 112.5 105.0 L 103.75 111.25 L 102.5 126.25 L 102.5 158.75 L 102.5 203.75 L 100.0 222.5 L 98.75 226.25 L 97.5 222.5 " stroke="black" fill="none" stroke-width="6.0" stroke-linecap="round" stroke-linejoin="round" />
<path d="M 107.5 167.5 L 106.25 170.0 L 106.25 170.0 L 115.0 166.25 L 128.75 158.75 L 140.0 152.5 L 146.25 151.25 L 147.5 161.25 L 147.5 185.0 L 147.5 211.25 L 147.5 230.0 L 147.5 237.5 L 147.5 237.5 L 147.5 235.0 L 143.75 230.0 L 138.75 223.75 L 135.0 217.5 " stroke="black" fill="none" stroke-width="6.0" stroke-linecap="round" stroke-linejoin="round" />
<path d="M 110.0 193.75 L 112.5 192.5 L 122.5 188.75 L 136.25 181.25 L 146.25 171.25 L 147.5 170.0 " stroke="black" fill="none" stroke-width="6.0" stroke-linecap="round" stroke-linejoin="round" />
<path d="M 143.75 191.25 L 152.5 183.75 L 166.25 165.0 L 175.0 152.5 L 176.25 147.5 L 177.5 146.25 L 180.0 145.0 L 187.5 142.5 L 198.75 137.5 L 207.5 133.75 L 213.75 132.5 L 216.25 138.75 L 216.25 155.0 L 216.25 178.75 L 216.25 203.75 L 217.5 222.5 L 218.75 235.0 L 218.75 241.25 L 218.75 243.75 L 218.75 243.75 L 216.25 245.0 L 212.5 245.0 L 210.0 245.0 " stroke="black" fill="none" stroke-width="6.0" stroke-linecap="round" stroke-linejoin="round" />
<path d="M 175.0 185.0 L 173.75 185.0 L 173.75 186.25 L 182.5 186.25 L 193.75 185.0 L 206.25 181.25 L 208.75 178.75 " stroke="black" fill="none" stroke-width="6.0" stroke-linecap="round" stroke-linejoin="round" />
<path d="M 177.5 203.75 L 175.0 210.0 L 180.0 211.25 L 192.5 210.0 L 207.5 203.75 " stroke="black" fill="none" stroke-width="6.0" stroke-linecap="round" stroke-linejoin="round" />
</svg>