<svg xmlns="http://www.w3.org/2000/svg" width="300" height="300" viewBox="0 0 300 300">
<path d="M 71.25 132.5 L 62.5 136.25 L 60.0 137.5 L 62.5 137.5 L 77.5 131.25 L 93.75 122.5 L 111.25 111.25 L 125.0 101.25 L 127.5 96.25 L 120.0 96.25 L 110.0 96.25 L 102.5 96.25 L 97.5 95.0 L 93.75 92.5 L 92.5 90.0 L 92.5 87.5 L 92.5 88.75 L 93.75 108.75 L 97.5 156.25 L 98.75 212.5 L 98.75 232.5 L 98.75 241.25 L 96.25 242.5 L 95.0 237.5 " stroke="black" fill="none" stroke-width="6.0" stroke-linecap="round" stroke-linejoin="round" />
<path d="M 93.75 160.0 L 91.25 165.0 L 82.5 182.5 L 71.25 200.0 L 57.5 212.5 L 51.25 216.25 L 48.75 210.0 L 48.75 206.25 " stroke="black" fill="none" stroke-width="6.0" stroke-linecap="round" stroke-linejoin="round" />
<path d="M 87.5 158.75 L 90.0 158.75 L 97.5 160.0 L 111.25 170.0 L 130.0 187.5 L 147.5 197.5 L 152.5 200.0 " stroke="black" fill="none" stroke-width="6.0" stroke-linecap="round" stroke-linejoin="round" />
<path d="M 151.25 110.0 L 147.5 117.5 L 147.5 138.75 L 147.5 182.5 L 148.75 216.25 L 150.0 230.0 L 151.25 233.75 " stroke="black" fill="none" stroke-width="6.0" stroke-linecap="round" stroke-linejoin="round" />
<path d="M 157.5 97.5 L 157.5 96.25 L 163.75 93.75 L 180.0 90.0 L 201.25 86.25 L 217.5 83.75 L 227.5 85.0 L 233.75 92.5 L 237.5 113.75 L 237.5 145.0 L 237.5 180.0 L 237.5 216.25 L 241.25 241.25 L 243.75 252.5 L 245.0 257.5 L 245.0 258.75 L 243.75 258.75 L 240.0 255.0 L 232.5 247.5 L 223.75 233.75 L 215.0 217.5 " stroke="black" fill="none" stroke-width="6.0" stroke-linecap="round" stroke-linejoin="round" />
<path d="M 173.75 147.5 L 168.75 150.0 L 167.5 150.0 L 177.5 146.25 L 191.25 140.0 L 203.75 133.75 L 211.25 128.75 L 211.25 128.75 " stroke="black" fill="none" stroke-width="6.0" stroke-linecap="round" stroke-linejoin="round" />
<path d="M 177.5 172.5 L 177.5 181.25 L 177.5 186.25 L 182.5 205.0 L 186.25 207.5 L 186.25 207.5 L 186.25 205.0 L 182.5 201.25 L 177.5 196.25 L 173.75 191.25 L 172.5 186.25 L 178.75 180.0 L 190.0 176.25 L 202.5 173.75 L 212.5 177.5 L 213.75 185.0 L 207.5 193.75 L 196.25 202.5 L 185.0 208.75 L 180.0 211.25 L 182.5 210.0 L 193.75 202.5 L 202.5 196.25 " stroke="black" fill="none" stroke-width="6.0" stroke-linecap="round" stroke-linejoin="round" />
</svg>