<svg xmlns="http://www.w3.org/2000/svg" width="300" height="300" viewBox="0 0 300 300">
<path d="M 147.5 77.5 L 146.25 77.5 L 143.75 76.25 L 143.75 77.5 L 151.25 86.25 L 161.25 92.5 L 168.75 97.5 " stroke="black" fill="none" stroke-width="6.0" stroke-linecap="round" stroke-linejoin="round" />
<path d="M 106.25 122.5 L 103.75 122.5 L 100.0 122.5 L 101.25 123.75 L 113.75 125.0 L 136.25 125.0 L 160.0 122.5 L 181.25 117.5 L 191.25 113.75 L 192.5 113.75 L 186.25 116.25 L 175.0 126.25 L 160.0 140.0 L 142.5 162.5 L 120.0 198.75 L 101.25 226.25 L 93.75 240.0 L 92.5 242.5 L 92.5 242.5 L 92.5 242.5 L 92.5 242.5 L 92.5 242.5 L 92.5 241.25 L 93.75 241.25 L 93.75 240.0 L 93.75 240.0 L 95.0 240.0 L 97.5 240.0 L 103.75 240.0 L 116.25 241.25 L 137.5 246.25 L 162.5 250.0 L 185.0 251.25 L 200.0 251.25 L 210.0 250.0 L 216.25 247.5 L 221.25 245.0 L 223.75 241.25 " stroke="black" fill="none" stroke-width="6.0" stroke-linecap="round" stroke-linejoin="round" />
</svg>