<svg xmlns="http://www.w3.org/2000/svg" width="300" height="300" viewBox="0 0 300 300">
<path d="M 142.5 90.0 L 142.5 90.0 L 142.5 90.0 L 143.75 92.5 L 152.5 98.75 L 161.25 105.0 L 162.5 106.25 " stroke="black" fill="none" stroke-width="6.0" stroke-linecap="round" stroke-linejoin="round" />
<path d="M 121.25 131.25 L 116.25 132.5 L 117.5 132.5 L 128.75 132.5 L 146.25 130.0 L 163.75 123.75 L 180.0 118.75 L 183.75 117.5 L 178.75 121.25 L 168.75 130.0 L 156.25 142.5 L 143.75 158.75 L 128.75 178.75 L 113.75 196.25 L 108.75 202.5 L 108.75 202.5 L 108.75 202.5 L 108.75 202.5 L 108.75 202.5 L 108.75 202.5 L 108.75 202.5 L 108.75 202.5 L 108.75 202.5 L 108.75 202.5 L 108.75 202.5 L 108.75 202.5 L 110.0 202.5 L 115.0 202.5 L 130.0 206.25 L 157.5 215.0 L 190.0 223.75 L 216.25 225.0 L 233.75 221.25 L 243.75 215.0 " stroke="black" fill="none" stroke-width="6.0" stroke-linecap="round" stroke-linejoin="round" />
</svg>