<svg xmlns="http://www.w3.org/2000/svg" width="300" height="300" viewBox="0 0 300 300">
<path d="M 151.25 85.0 L 147.5 78.75 L 145.0 76.25 L 145.0 76.25 L 151.25 77.5 L 162.5 82.5 L 175.0 86.25 L 185.0 92.5 L 185.0 93.75 " stroke="black" fill="none" stroke-width="6.0" stroke-linecap="round" stroke-linejoin="round" />
<path d="M 120.0 142.5 L 116.25 146.25 L 115.0 147.5 L 123.75 147.5 L 142.5 142.5 L 161.25 135.0 L 176.25 128.75 L 180.0 127.5 L 176.25 132.5 L 163.75 147.5 L 148.75 167.5 L 135.0 188.75 L 120.0 207.5 L 108.75 218.75 L 107.5 222.5 L 106.25 223.75 L 106.25 223.75 L 106.25 223.75 L 106.25 223.75 L 106.25 223.75 L 106.25 223.75 L 106.25 223.75 L 106.25 223.75 L 106.25 223.75 L 107.5 223.75 L 113.75 223.75 L 128.75 227.5 L 151.25 240.0 L 181.25 251.25 L 203.75 253.75 L 217.5 252.5 L 226.25 247.5 L 226.25 246.25 " stroke="black" fill="none" stroke-width="6.0" stroke-linecap="round" stroke-linejoin="round" />
</svg>