<svg xmlns="http://www.w3.org/2000/svg" width="300" height="300" viewBox="0 0 300 300">
<path d="M 110.0 107.5 L 110.0 107.5 L 110.0 110.0 L 110.0 137.5 L 107.5 186.25 L 101.25 220.0 L 97.5 236.25 L 93.75 238.75 " stroke="black" fill="none" stroke-width="6.0" stroke-linecap="round" stroke-linejoin="round" />
<path d="M 115.0 100.0 L 120.0 97.5 L 130.0 93.75 L 145.0 90.0 L 161.25 87.5 L 176.25 87.5 L 183.75 96.25 L 186.25 118.75 L 185.0 157.5 L 185.0 203.75 L 187.5 235.0 L 191.25 245.0 L 192.5 246.25 L 192.5 246.25 L 192.5 246.25 L 187.5 242.5 L 180.0 236.25 L 170.0 225.0 L 157.5 212.5 " stroke="black" fill="none" stroke-width="6.0" stroke-linecap="round" stroke-linejoin="round" />
<path d="M 111.25 167.5 L 108.75 167.5 L 108.75 165.0 L 117.5 157.5 L 137.5 145.0 L 156.25 132.5 L 165.0 127.5 L 163.75 127.5 " stroke="black" fill="none" stroke-width="6.0" stroke-linecap="round" stroke-linejoin="round" />
<path d="M 112.5 193.75 L 112.5 195.0 L 111.25 196.25 L 118.75 192.5 L 141.25 176.25 L 171.25 153.75 L 177.5 148.75 " stroke="black" fill="none" stroke-width="6.0" stroke-linecap="round" stroke-linejoin="round" />
</svg>