<svg xmlns="http://www.w3.org/2000/svg" width="300" height="300" viewBox="0 0 300 300">
<path d="M 115.0 91.25 L 115.0 90.0 L 115.0 96.25 L 120.0 137.5 L 120.0 187.5 L 113.75 212.5 L 108.75 221.25 L 105.0 218.75 L 102.5 210.0 " stroke="black" fill="none" stroke-width="6.0" stroke-linecap="round" stroke-linejoin="round" />
<path d="M 120.0 96.25 L 120.0 93.75 L 121.25 91.25 L 127.5 87.5 L 137.5 85.0 L 153.75 80.0 L 171.25 76.25 L 185.0 75.0 L 193.75 78.75 L 197.5 90.0 L 198.75 116.25 L 200.0 156.25 L 201.25 197.5 L 205.0 225.0 L 206.25 247.5 L 207.5 255.0 L 207.5 257.5 L 206.25 257.5 L 201.25 255.0 L 193.75 248.75 L 183.75 232.5 L 165.0 191.25 " stroke="black" fill="none" stroke-width="6.0" stroke-linecap="round" stroke-linejoin="round" />
<path d="M 143.75 147.5 L 141.25 148.75 L 132.5 151.25 L 130.0 151.25 L 131.25 151.25 L 141.25 146.25 L 155.0 137.5 L 168.75 128.75 L 176.25 122.5 L 177.5 121.25 " stroke="black" fill="none" stroke-width="6.0" stroke-linecap="round" stroke-linejoin="round" />
<path d="M 140.0 173.75 L 135.0 177.5 L 137.5 177.5 L 150.0 170.0 L 167.5 156.25 L 175.0 148.75 " stroke="black" fill="none" stroke-width="6.0" stroke-linecap="round" stroke-linejoin="round" />
</svg>