<svg xmlns="http://www.w3.org/2000/svg" width="300" height="300" viewBox="0 0 300 300">
<path d="M 85.0 121.25 L 85.0 120.0 L 85.0 118.75 L 85.0 118.75 L 85.0 123.75 L 80.0 141.25 L 67.5 167.5 L 55.0 187.5 L 48.75 191.25 " stroke="black" fill="none" stroke-width="6.0" stroke-linecap="round" stroke-linejoin="round" />
<path d="M 102.5 142.5 L 102.5 142.5 L 100.0 143.75 L 97.5 152.5 L 91.25 173.75 L 80.0 198.75 L 67.5 213.75 L 60.0 215.0 L 58.75 211.25 " stroke="black" fill="none" stroke-width="6.0" stroke-linecap="round" stroke-linejoin="round" />
<path d="M 92.5 180.0 L 92.5 182.5 L 92.5 192.5 L 92.5 211.25 L 90.0 236.25 L 85.0 255.0 L 82.5 256.25 " stroke="black" fill="none" stroke-width="6.0" stroke-linecap="round" stroke-linejoin="round" />
<path d="M 137.5 80.0 L 137.5 78.75 L 136.25 77.5 L 136.25 78.75 L 136.25 85.0 L 140.0 91.25 L 146.25 92.5 L 157.5 90.0 L 172.5 80.0 L 185.0 70.0 L 187.5 67.5 L 180.0 71.25 L 166.25 82.5 L 157.5 88.75 " stroke="black" fill="none" stroke-width="6.0" stroke-linecap="round" stroke-linejoin="round" />
<path d="M 136.25 111.25 L 135.0 111.25 L 135.0 111.25 L 135.0 115.0 L 137.5 128.75 L 140.0 147.5 L 141.25 160.0 L 141.25 165.0 L 141.25 165.0 L 140.0 158.75 L 140.0 156.25 " stroke="black" fill="none" stroke-width="6.0" stroke-linecap="round" stroke-linejoin="round" />
<path d="M 136.25 132.5 L 133.75 128.75 L 133.75 123.75 L 140.0 118.75 L 151.25 112.5 L 165.0 108.75 L 178.75 108.75 L 185.0 115.0 L 183.75 125.0 L 173.75 138.75 L 162.5 148.75 L 152.5 152.5 " stroke="black" fill="none" stroke-width="6.0" stroke-linecap="round" stroke-linejoin="round" />
<path d="M 142.5 145.0 L 141.25 145.0 L 140.0 145.0 L 141.25 142.5 L 150.0 137.5 L 165.0 130.0 L 180.0 121.25 L 186.25 117.5 L 185.0 117.5 " stroke="black" fill="none" stroke-width="6.0" stroke-linecap="round" stroke-linejoin="round" />
<path d="M 138.75 163.75 L 138.75 165.0 L 136.25 167.5 L 138.75 166.25 L 148.75 160.0 L 163.75 150.0 L 177.5 140.0 L 183.75 136.25 L 180.0 138.75 L 168.75 152.5 L 156.25 172.5 L 143.75 196.25 L 132.5 213.75 L 128.75 218.75 L 130.0 217.5 L 136.25 212.5 L 145.0 203.75 L 156.25 193.75 L 171.25 181.25 L 187.5 170.0 L 198.75 165.0 L 201.25 165.0 L 198.75 175.0 L 190.0 190.0 L 177.5 203.75 L 163.75 218.75 L 147.5 236.25 L 136.25 247.5 L 131.25 250.0 L 130.0 247.5 L 130.0 246.25 " stroke="black" fill="none" stroke-width="6.0" stroke-linecap="round" stroke-linejoin="round" />
<path d="M 145.0 205.0 L 145.0 205.0 L 143.75 203.75 L 143.75 202.5 L 143.75 202.5 L 146.25 202.5 L 150.0 203.75 L 156.25 206.25 L 163.75 211.25 L 177.5 220.0 L 195.0 231.25 L 212.5 240.0 L 228.75 243.75 L 240.0 246.25 L 245.0 247.5 L 246.25 248.75 " stroke="black" fill="none" stroke-width="6.0" stroke-linecap="round" stroke-linejoin="round" />
</svg>