<svg xmlns="http://www.w3.org/2000/svg" width="300" height="300" viewBox="0 0 300 300">
<path d="M 62.5 152.5 L 62.5 151.25 L 62.5 151.25 L 62.5 150.0 L 65.0 157.5 L 66.25 171.25 L 67.5 185.0 L 67.5 192.5 L 67.5 195.0 L 68.75 196.25 L 75.0 196.25 L 83.75 193.75 L 93.75 187.5 L 103.75 178.75 L 111.25 168.75 L 117.5 160.0 L 120.0 155.0 L 121.25 153.75 L 117.5 153.75 L 115.0 155.0 L 112.5 155.0 L 111.25 155.0 L 111.25 155.0 L 111.25 155.0 L 111.25 155.0 L 111.25 155.0 L 111.25 155.0 L 111.25 155.0 L 111.25 155.0 L 115.0 158.75 L 118.75 165.0 L 122.5 175.0 L 123.75 183.75 L 123.75 185.0 " stroke="black" fill="none" stroke-width="6.0" stroke-linecap="round" stroke-linejoin="round" />
<path d="M 85.0 125.0 L 82.5 125.0 L 82.5 128.75 L 83.75 145.0 L 87.5 166.25 L 91.25 186.25 L 92.5 192.5 " stroke="black" fill="none" stroke-width="6.0" stroke-linecap="round" stroke-linejoin="round" />
<path d="M 135.0 105.0 L 135.0 106.25 L 136.25 106.25 L 145.0 106.25 L 158.75 106.25 L 170.0 103.75 L 175.0 102.5 L 170.0 105.0 L 167.5 106.25 " stroke="black" fill="none" stroke-width="6.0" stroke-linecap="round" stroke-linejoin="round" />
<path d="M 133.75 152.5 L 132.5 156.25 L 130.0 160.0 L 133.75 161.25 L 145.0 157.5 L 157.5 148.75 L 171.25 137.5 L 178.75 130.0 L 176.25 127.5 L 165.0 131.25 L 155.0 133.75 L 147.5 136.25 L 141.25 136.25 L 137.5 137.5 L 138.75 138.75 L 143.75 147.5 L 152.5 167.5 L 156.25 191.25 L 157.5 205.0 L 155.0 211.25 L 151.25 211.25 L 145.0 211.25 L 138.75 212.5 L 132.5 212.5 L 130.0 212.5 L 130.0 208.75 L 138.75 198.75 L 153.75 181.25 L 175.0 155.0 L 196.25 130.0 L 203.75 110.0 L 205.0 97.5 L 202.5 93.75 L 200.0 93.75 L 198.75 93.75 L 197.5 95.0 L 197.5 100.0 L 198.75 118.75 L 205.0 151.25 L 218.75 195.0 L 235.0 220.0 L 247.5 232.5 L 253.75 237.5 L 255.0 237.5 L 255.0 235.0 L 255.0 230.0 L 255.0 223.75 L 251.25 217.5 L 246.25 211.25 L 240.0 206.25 " stroke="black" fill="none" stroke-width="6.0" stroke-linecap="round" stroke-linejoin="round" />
<path d="M 240.0 142.5 L 240.0 142.5 L 235.0 147.5 L 225.0 166.25 L 208.75 195.0 L 193.75 215.0 L 178.75 226.25 L 172.5 225.0 " stroke="black" fill="none" stroke-width="6.0" stroke-linecap="round" stroke-linejoin="round" />
<path d="M 230.0 87.5 L 230.0 87.5 L 232.5 87.5 L 241.25 90.0 L 250.0 102.5 L 253.75 110.0 " stroke="black" fill="none" stroke-width="6.0" stroke-linecap="round" stroke-linejoin="round" />
</svg>