<svg xmlns="http://www.w3.org/2000/svg" width="300" height="300" viewBox="0 0 300 300">
<path d="M 146.25 86.25 L 145.0 86.25 L 143.75 86.25 L 145.0 100.0 L 150.0 125.0 L 155.0 141.25 L 157.5 146.25 L 157.5 143.75 " stroke="black" fill="none" stroke-width="6.0" stroke-linecap="round" stroke-linejoin="round" />
<path d="M 148.75 95.0 L 145.0 95.0 L 143.75 96.25 L 143.75 96.25 L 147.5 95.0 L 160.0 92.5 L 180.0 87.5 L 200.0 83.75 L 211.25 82.5 L 213.75 83.75 L 212.5 92.5 L 205.0 103.75 L 196.25 115.0 L 188.75 121.25 L 186.25 122.5 " stroke="black" fill="none" stroke-width="6.0" stroke-linecap="round" stroke-linejoin="round" />
<path d="M 176.25 105.0 L 175.0 105.0 L 172.5 105.0 L 172.5 105.0 L 176.25 103.75 L 185.0 100.0 L 191.25 96.25 L 192.5 95.0 L 192.5 95.0 " stroke="black" fill="none" stroke-width="6.0" stroke-linecap="round" stroke-linejoin="round" />
<path d="M 176.25 102.5 L 173.75 103.75 L 171.25 106.25 L 170.0 115.0 L 170.0 130.0 L 170.0 132.5 L 170.0 143.75 " stroke="black" fill="none" stroke-width="6.0" stroke-linecap="round" stroke-linejoin="round" />
<path d="M 138.75 140.0 L 136.25 140.0 L 135.0 141.25 L 133.75 151.25 L 135.0 173.75 L 138.75 197.5 L 142.5 207.5 L 145.0 210.0 L 145.0 205.0 L 145.0 197.5 L 145.0 190.0 " stroke="black" fill="none" stroke-width="6.0" stroke-linecap="round" stroke-linejoin="round" />
<path d="M 137.5 158.75 L 136.25 158.75 L 132.5 158.75 L 131.25 158.75 L 136.25 158.75 L 152.5 152.5 L 176.25 145.0 L 200.0 136.25 L 212.5 133.75 L 216.25 136.25 L 218.75 146.25 L 220.0 163.75 L 222.5 187.5 L 223.75 207.5 L 225.0 213.75 L 225.0 215.0 L 225.0 213.75 L 225.0 212.5 L 223.75 210.0 L 218.75 203.75 L 212.5 196.25 L 203.75 190.0 " stroke="black" fill="none" stroke-width="6.0" stroke-linecap="round" stroke-linejoin="round" />
<path d="M 168.75 163.75 L 166.25 165.0 L 162.5 166.25 L 162.5 171.25 L 165.0 182.5 L 170.0 191.25 L 172.5 195.0 L 172.5 195.0 L 170.0 188.75 L 167.5 183.75 L 165.0 177.5 L 163.75 173.75 L 165.0 170.0 L 175.0 166.25 L 188.75 163.75 L 198.75 165.0 L 198.75 173.75 L 187.5 188.75 L 172.5 201.25 L 163.75 206.25 L 167.5 203.75 L 185.0 191.25 L 198.75 177.5 " stroke="black" fill="none" stroke-width="6.0" stroke-linecap="round" stroke-linejoin="round" />
<path d="M 86.25 102.5 L 85.0 102.5 L 82.5 102.5 L 81.25 102.5 L 82.5 105.0 L 90.0 108.75 L 96.25 113.75 " stroke="black" fill="none" stroke-width="6.0" stroke-linecap="round" stroke-linejoin="round" />
<path d="M 82.5 140.0 L 80.0 141.25 L 80.0 142.5 L 83.75 143.75 L 90.0 147.5 L 93.75 150.0 L 95.0 153.75 L 92.5 158.75 L 87.5 163.75 L 85.0 166.25 L 85.0 167.5 L 88.75 168.75 L 95.0 172.5 L 97.5 177.5 L 98.75 186.25 L 95.0 196.25 L 87.5 205.0 L 80.0 211.25 L 72.5 213.75 L 68.75 213.75 L 67.5 213.75 L 67.5 212.5 L 67.5 211.25 L 67.5 211.25 L 68.75 211.25 L 68.75 211.25 L 70.0 211.25 L 72.5 211.25 L 76.25 212.5 L 85.0 215.0 L 96.25 217.5 L 112.5 221.25 L 132.5 227.5 L 152.5 231.25 L 171.25 232.5 L 195.0 233.75 L 213.75 235.0 L 230.0 236.25 L 246.25 238.75 L 261.25 241.25 " stroke="black" fill="none" stroke-width="6.0" stroke-linecap="round" stroke-linejoin="round" />
</svg>