<svg xmlns="http://www.w3.org/2000/svg" width="300" height="300" viewBox="0 0 300 300">
<path d="M 110.0 92.5 L 108.75 92.5 L 105.0 92.5 L 106.25 92.5 L 122.5 86.25 L 146.25 77.5 L 172.5 65.0 L 186.25 57.5 L 185.0 56.25 L 178.75 57.5 " stroke="black" fill="none" stroke-width="6.0" stroke-linecap="round" stroke-linejoin="round" />
<path d="M 130.0 76.25 L 123.75 78.75 L 122.5 86.25 L 125.0 97.5 L 130.0 106.25 L 133.75 107.5 " stroke="black" fill="none" stroke-width="6.0" stroke-linecap="round" stroke-linejoin="round" />
<path d="M 155.0 71.25 L 156.25 71.25 L 156.25 70.0 L 156.25 73.75 L 152.5 87.5 L 142.5 106.25 L 138.75 111.25 " stroke="black" fill="none" stroke-width="6.0" stroke-linecap="round" stroke-linejoin="round" />
<path d="M 103.75 123.75 L 103.75 123.75 L 103.75 123.75 L 103.75 123.75 L 107.5 133.75 L 115.0 147.5 L 118.75 158.75 L 120.0 160.0 L 118.75 156.25 L 117.5 151.25 L 115.0 146.25 L 113.75 141.25 L 115.0 135.0 L 126.25 128.75 L 147.5 120.0 L 173.75 111.25 L 193.75 110.0 L 197.5 112.5 L 191.25 123.75 L 178.75 138.75 L 160.0 153.75 L 138.75 171.25 L 113.75 188.75 L 90.0 205.0 L 76.25 216.25 L 73.75 221.25 L 78.75 221.25 L 96.25 215.0 L 120.0 201.25 L 152.5 183.75 L 185.0 165.0 L 201.25 153.75 L 201.25 151.25 L 191.25 153.75 L 185.0 153.75 " stroke="black" fill="none" stroke-width="6.0" stroke-linecap="round" stroke-linejoin="round" />
<path d="M 156.25 148.75 L 156.25 146.25 L 156.25 143.75 L 156.25 143.75 L 156.25 167.5 L 157.5 213.75 L 160.0 256.25 L 162.5 268.75 L 161.25 270.0 L 157.5 268.75 L 151.25 262.5 L 146.25 251.25 L 142.5 236.25 L 141.25 231.25 " stroke="black" fill="none" stroke-width="6.0" stroke-linecap="round" stroke-linejoin="round" />
<path d="M 156.25 187.5 L 155.0 190.0 L 148.75 202.5 L 136.25 226.25 L 120.0 250.0 L 105.0 260.0 L 97.5 258.75 L 96.25 256.25 " stroke="black" fill="none" stroke-width="6.0" stroke-linecap="round" stroke-linejoin="round" />
<path d="M 143.75 192.5 L 145.0 191.25 L 146.25 191.25 L 152.5 191.25 L 163.75 198.75 L 180.0 210.0 L 196.25 223.75 L 208.75 233.75 L 220.0 240.0 L 230.0 243.75 L 236.25 247.5 L 236.25 251.25 " stroke="black" fill="none" stroke-width="6.0" stroke-linecap="round" stroke-linejoin="round" />
</svg>