<svg xmlns="http://www.w3.org/2000/svg" width="300" height="300" viewBox="0 0 300 300">
<path d="M 111.25 111.25 L 111.25 113.75 L 108.75 116.25 L 115.0 117.5 L 135.0 113.75 L 158.75 103.75 L 175.0 95.0 L 180.0 90.0 L 175.0 90.0 " stroke="black" fill="none" stroke-width="6.0" stroke-linecap="round" stroke-linejoin="round" />
<path d="M 97.5 175.0 L 93.75 180.0 L 97.5 180.0 L 117.5 173.75 L 150.0 156.25 L 183.75 136.25 L 203.75 120.0 L 207.5 110.0 L 203.75 103.75 L 202.5 101.25 " stroke="black" fill="none" stroke-width="6.0" stroke-linecap="round" stroke-linejoin="round" />
<path d="M 156.25 81.25 L 155.0 77.5 L 153.75 75.0 L 153.75 75.0 L 156.25 86.25 L 161.25 120.0 L 166.25 177.5 L 168.75 220.0 L 170.0 237.5 L 168.75 246.25 L 166.25 248.75 L 161.25 248.75 L 155.0 245.0 L 150.0 236.25 L 146.25 225.0 L 146.25 221.25 " stroke="black" fill="none" stroke-width="6.0" stroke-linecap="round" stroke-linejoin="round" />
<path d="M 156.25 181.25 L 150.0 190.0 L 140.0 202.5 L 126.25 218.75 L 111.25 236.25 L 102.5 242.5 L 100.0 241.25 L 100.0 238.75 " stroke="black" fill="none" stroke-width="6.0" stroke-linecap="round" stroke-linejoin="round" />
<path d="M 163.75 156.25 L 163.75 155.0 L 165.0 155.0 L 167.5 155.0 L 171.25 155.0 L 175.0 157.5 L 177.5 158.75 L 180.0 160.0 L 180.0 160.0 L 181.25 160.0 L 181.25 160.0 L 181.25 160.0 L 181.25 160.0 L 180.0 160.0 L 180.0 161.25 L 182.5 165.0 L 191.25 180.0 L 207.5 202.5 L 226.25 221.25 L 246.25 233.75 L 260.0 242.5 L 261.25 246.25 " stroke="black" fill="none" stroke-width="6.0" stroke-linecap="round" stroke-linejoin="round" />
</svg>