<svg xmlns="http://www.w3.org/2000/svg" width="300" height="300" viewBox="0 0 300 300">
<path d="M 128.75 112.5 L 125.0 112.5 L 121.25 113.75 L 120.0 113.75 L 128.75 113.75 L 145.0 111.25 L 163.75 105.0 L 178.75 98.75 L 182.5 96.25 L 173.75 97.5 " stroke="black" fill="none" stroke-width="6.0" stroke-linecap="round" stroke-linejoin="round" />
<path d="M 96.25 181.25 L 92.5 187.5 L 97.5 187.5 L 118.75 182.5 L 152.5 165.0 L 182.5 145.0 L 201.25 131.25 L 206.25 122.5 L 203.75 117.5 L 195.0 116.25 L 185.0 113.75 L 171.25 111.25 L 158.75 106.25 L 151.25 100.0 L 148.75 93.75 L 148.75 87.5 L 148.75 83.75 L 148.75 82.5 L 151.25 86.25 L 155.0 106.25 L 158.75 148.75 L 162.5 206.25 L 165.0 240.0 L 165.0 251.25 L 161.25 257.5 L 157.5 258.75 L 152.5 257.5 L 147.5 250.0 L 145.0 235.0 L 143.75 230.0 " stroke="black" fill="none" stroke-width="6.0" stroke-linecap="round" stroke-linejoin="round" />
<path d="M 152.5 170.0 L 148.75 175.0 L 141.25 190.0 L 127.5 212.5 L 110.0 238.75 L 97.5 252.5 L 91.25 253.75 L 91.25 250.0 " stroke="black" fill="none" stroke-width="6.0" stroke-linecap="round" stroke-linejoin="round" />
<path d="M 151.25 170.0 L 152.5 170.0 L 157.5 171.25 L 172.5 178.75 L 193.75 197.5 L 210.0 217.5 L 225.0 236.25 L 238.75 247.5 L 248.75 255.0 L 252.5 261.25 L 252.5 261.25 " stroke="black" fill="none" stroke-width="6.0" stroke-linecap="round" stroke-linejoin="round" />
</svg>