<svg xmlns="http://www.w3.org/2000/svg" width="300" height="300" viewBox="0 0 300 300">
<path d="M 116.25 123.75 L 116.25 123.75 L 116.25 123.75 L 123.75 123.75 L 146.25 117.5 L 177.5 106.25 L 195.0 100.0 L 197.5 97.5 L 185.0 101.25 " stroke="black" fill="none" stroke-width="6.0" stroke-linecap="round" stroke-linejoin="round" />
<path d="M 85.0 210.0 L 85.0 210.0 L 87.5 210.0 L 106.25 202.5 L 150.0 181.25 L 191.25 157.5 L 208.75 143.75 L 211.25 135.0 L 205.0 131.25 L 191.25 130.0 L 175.0 125.0 L 155.0 117.5 L 141.25 107.5 L 136.25 97.5 L 135.0 91.25 L 137.5 91.25 L 143.75 95.0 L 151.25 116.25 L 156.25 158.75 L 158.75 216.25 L 158.75 255.0 L 157.5 267.5 L 155.0 273.75 L 151.25 275.0 L 147.5 267.5 L 143.75 260.0 " stroke="black" fill="none" stroke-width="6.0" stroke-linecap="round" stroke-linejoin="round" />
<path d="M 148.75 203.75 L 142.5 212.5 L 128.75 231.25 L 115.0 247.5 L 105.0 253.75 L 101.25 251.25 L 101.25 250.0 " stroke="black" fill="none" stroke-width="6.0" stroke-linecap="round" stroke-linejoin="round" />
<path d="M 152.5 182.5 L 153.75 182.5 L 158.75 186.25 L 176.25 198.75 L 198.75 217.5 L 220.0 235.0 L 240.0 246.25 L 252.5 253.75 L 260.0 261.25 L 262.5 265.0 " stroke="black" fill="none" stroke-width="6.0" stroke-linecap="round" stroke-linejoin="round" />
</svg>