<svg xmlns="http://www.w3.org/2000/svg" width="300" height="300" viewBox="0 0 300 300">
<path d="M 123.75 112.5 L 118.75 115.0 L 113.75 117.5 L 117.5 117.5 L 133.75 111.25 L 152.5 100.0 L 173.75 90.0 L 186.25 83.75 L 183.75 83.75 L 176.25 87.5 " stroke="black" fill="none" stroke-width="6.0" stroke-linecap="round" stroke-linejoin="round" />
<path d="M 97.5 171.25 L 95.0 178.75 L 98.75 181.25 L 116.25 177.5 L 140.0 165.0 L 177.5 141.25 L 198.75 125.0 L 206.25 113.75 L 202.5 106.25 L 192.5 105.0 L 178.75 102.5 L 165.0 98.75 L 153.75 92.5 L 147.5 86.25 L 147.5 80.0 L 150.0 77.5 L 153.75 77.5 L 157.5 88.75 L 162.5 120.0 L 166.25 181.25 L 167.5 228.75 L 168.75 250.0 L 167.5 258.75 L 163.75 261.25 L 160.0 261.25 L 156.25 255.0 L 151.25 243.75 L 150.0 241.25 " stroke="black" fill="none" stroke-width="6.0" stroke-linecap="round" stroke-linejoin="round" />
<path d="M 165.0 171.25 L 165.0 172.5 L 157.5 180.0 L 148.75 192.5 L 135.0 210.0 L 121.25 220.0 L 102.5 230.0 L 96.25 227.5 L 96.25 217.5 L 97.5 215.0 " stroke="black" fill="none" stroke-width="6.0" stroke-linecap="round" stroke-linejoin="round" />
<path d="M 153.75 167.5 L 155.0 167.5 L 158.75 167.5 L 163.75 170.0 L 171.25 176.25 L 183.75 186.25 L 197.5 198.75 L 212.5 211.25 L 227.5 218.75 L 242.5 222.5 L 252.5 223.75 L 255.0 225.0 " stroke="black" fill="none" stroke-width="6.0" stroke-linecap="round" stroke-linejoin="round" />
</svg>