<svg xmlns="http://www.w3.org/2000/svg" width="300" height="300" viewBox="0 0 300 300">
<path d="M 100.0 82.5 L 100.0 82.5 L 97.5 85.0 L 90.0 101.25 L 76.25 140.0 L 63.75 172.5 L 53.75 192.5 L 46.25 195.0 " stroke="black" fill="none" stroke-width="6.0" stroke-linecap="round" stroke-linejoin="round" />
<path d="M 83.75 97.5 L 83.75 97.5 L 86.25 97.5 L 96.25 97.5 L 117.5 102.5 L 140.0 107.5 L 148.75 112.5 L 148.75 113.75 " stroke="black" fill="none" stroke-width="6.0" stroke-linecap="round" stroke-linejoin="round" />
<path d="M 91.25 136.25 L 91.25 136.25 L 91.25 136.25 L 93.75 136.25 L 100.0 135.0 L 107.5 135.0 L 111.25 135.0 L 107.5 141.25 L 98.75 147.5 L 88.75 156.25 L 82.5 163.75 L 76.25 170.0 L 77.5 171.25 L 87.5 167.5 L 101.25 160.0 L 117.5 152.5 L 126.25 150.0 L 127.5 151.25 L 117.5 163.75 L 105.0 177.5 L 93.75 188.75 L 87.5 193.75 L 87.5 195.0 L 93.75 188.75 L 103.75 178.75 L 116.25 167.5 L 126.25 161.25 L 127.5 162.5 L 120.0 175.0 L 107.5 191.25 L 96.25 205.0 L 86.25 213.75 L 78.75 215.0 L 77.5 211.25 " stroke="black" fill="none" stroke-width="6.0" stroke-linecap="round" stroke-linejoin="round" />
<path d="M 82.5 173.75 L 80.0 173.75 L 78.75 173.75 L 77.5 183.75 L 80.0 202.5 L 86.25 220.0 L 92.5 228.75 L 100.0 228.75 L 108.75 218.75 L 115.0 208.75 L 120.0 200.0 L 120.0 195.0 L 120.0 192.5 L 118.75 192.5 L 118.75 192.5 L 118.75 193.75 L 121.25 198.75 L 127.5 206.25 L 132.5 213.75 L 137.5 216.25 L 138.75 216.25 " stroke="black" fill="none" stroke-width="6.0" stroke-linecap="round" stroke-linejoin="round" />
<path d="M 172.5 91.25 L 172.5 88.75 L 168.75 88.75 L 160.0 97.5 L 148.75 122.5 L 136.25 146.25 L 127.5 152.5 " stroke="black" fill="none" stroke-width="6.0" stroke-linecap="round" stroke-linejoin="round" />
<path d="M 168.75 81.25 L 168.75 81.25 L 171.25 81.25 L 186.25 83.75 L 207.5 90.0 L 227.5 95.0 L 241.25 97.5 L 240.0 102.5 " stroke="black" fill="none" stroke-width="6.0" stroke-linecap="round" stroke-linejoin="round" />
<path d="M 157.5 145.0 L 156.25 145.0 L 156.25 145.0 L 166.25 143.75 L 186.25 135.0 L 203.75 125.0 L 208.75 121.25 L 205.0 126.25 L 192.5 136.25 L 185.0 141.25 " stroke="black" fill="none" stroke-width="6.0" stroke-linecap="round" stroke-linejoin="round" />
<path d="M 150.0 176.25 L 148.75 178.75 L 151.25 180.0 L 167.5 172.5 L 192.5 156.25 L 211.25 142.5 L 217.5 136.25 L 215.0 135.0 L 206.25 138.75 L 198.75 141.25 L 191.25 142.5 L 187.5 143.75 L 186.25 148.75 L 188.75 167.5 L 193.75 198.75 L 195.0 227.5 L 196.25 240.0 L 195.0 241.25 L 190.0 238.75 L 180.0 233.75 L 166.25 227.5 L 152.5 220.0 L 148.75 213.75 L 151.25 211.25 L 166.25 207.5 L 188.75 201.25 L 211.25 193.75 L 232.5 188.75 L 247.5 187.5 L 251.25 187.5 " stroke="black" fill="none" stroke-width="6.0" stroke-linecap="round" stroke-linejoin="round" />
</svg>