<svg xmlns="http://www.w3.org/2000/svg" width="300" height="300" viewBox="0 0 300 300">
<path d="M 136.25 68.75 L 136.25 68.75 L 135.0 68.75 L 136.25 68.75 L 142.5 72.5 L 151.25 76.25 L 155.0 81.25 " stroke="black" fill="none" stroke-width="6.0" stroke-linecap="round" stroke-linejoin="round" />
<path d="M 82.5 86.25 L 81.25 86.25 L 76.25 87.5 L 73.75 97.5 L 70.0 118.75 L 66.25 137.5 L 62.5 142.5 L 62.5 142.5 " stroke="black" fill="none" stroke-width="6.0" stroke-linecap="round" stroke-linejoin="round" />
<path d="M 78.75 110.0 L 81.25 110.0 L 95.0 106.25 L 130.0 100.0 L 170.0 95.0 L 201.25 93.75 L 211.25 93.75 L 210.0 97.5 L 198.75 105.0 L 183.75 111.25 L 162.5 118.75 L 157.5 120.0 " stroke="black" fill="none" stroke-width="6.0" stroke-linecap="round" stroke-linejoin="round" />
<path d="M 115.0 131.25 L 112.5 133.75 L 105.0 141.25 L 93.75 157.5 L 80.0 182.5 L 63.75 201.25 L 53.75 208.75 L 52.5 206.25 L 56.25 197.5 L 66.25 187.5 L 77.5 175.0 L 86.25 166.25 L 91.25 162.5 L 91.25 178.75 L 88.75 202.5 L 85.0 228.75 L 85.0 246.25 L 83.75 246.25 " stroke="black" fill="none" stroke-width="6.0" stroke-linecap="round" stroke-linejoin="round" />
<path d="M 146.25 137.5 L 146.25 137.5 L 146.25 137.5 L 147.5 137.5 L 157.5 137.5 L 170.0 137.5 L 181.25 136.25 L 185.0 136.25 L 180.0 137.5 L 168.75 143.75 L 155.0 152.5 L 142.5 158.75 L 135.0 165.0 L 131.25 167.5 L 131.25 167.5 L 131.25 167.5 L 132.5 167.5 L 132.5 167.5 L 132.5 167.5 L 132.5 168.75 L 132.5 172.5 L 132.5 181.25 L 132.5 197.5 L 132.5 218.75 L 133.75 235.0 L 136.25 242.5 L 138.75 242.5 L 138.75 237.5 " stroke="black" fill="none" stroke-width="6.0" stroke-linecap="round" stroke-linejoin="round" />
<path d="M 130.0 167.5 L 128.75 167.5 L 128.75 167.5 L 130.0 167.5 L 142.5 168.75 L 165.0 168.75 L 188.75 170.0 L 202.5 177.5 L 203.75 191.25 L 198.75 206.25 L 191.25 221.25 L 183.75 231.25 L 176.25 236.25 L 171.25 237.5 " stroke="black" fill="none" stroke-width="6.0" stroke-linecap="round" stroke-linejoin="round" />
<path d="M 126.25 208.75 L 125.0 210.0 L 122.5 211.25 L 127.5 211.25 L 145.0 208.75 L 168.75 202.5 L 190.0 196.25 L 196.25 195.0 L 187.5 198.75 " stroke="black" fill="none" stroke-width="6.0" stroke-linecap="round" stroke-linejoin="round" />
<path d="M 141.25 232.5 L 136.25 237.5 L 137.5 237.5 L 152.5 235.0 L 173.75 227.5 L 192.5 221.25 " stroke="black" fill="none" stroke-width="6.0" stroke-linecap="round" stroke-linejoin="round" />
</svg>