<svg xmlns="http://www.w3.org/2000/svg" width="300" height="300" viewBox="0 0 300 300">
<path d="M 120.0 98.75 L 120.0 98.75 L 117.5 100.0 L 117.5 100.0 L 126.25 101.25 L 142.5 101.25 L 163.75 98.75 L 176.25 91.25 L 176.25 90.0 " stroke="black" fill="none" stroke-width="6.0" stroke-linecap="round" stroke-linejoin="round" />
<path d="M 116.25 122.5 L 116.25 125.0 L 112.5 135.0 L 117.5 151.25 L 128.75 170.0 L 138.75 177.5 L 140.0 177.5 " stroke="black" fill="none" stroke-width="6.0" stroke-linecap="round" stroke-linejoin="round" />
<path d="M 220.0 96.25 L 216.25 98.75 L 207.5 110.0 L 186.25 133.75 L 178.75 140.0 " stroke="black" fill="none" stroke-width="6.0" stroke-linecap="round" stroke-linejoin="round" />
<path d="M 111.25 196.25 L 101.25 203.75 L 102.5 205.0 L 118.75 201.25 L 143.75 188.75 L 177.5 170.0 L 207.5 151.25 L 220.0 142.5 L 218.75 138.75 L 210.0 138.75 " stroke="black" fill="none" stroke-width="6.0" stroke-linecap="round" stroke-linejoin="round" />
<path d="M 158.75 122.5 L 158.75 120.0 L 160.0 118.75 L 162.5 123.75 L 167.5 152.5 L 172.5 206.25 L 173.75 248.75 L 173.75 263.75 L 175.0 268.75 L 175.0 271.25 L 172.5 272.5 L 167.5 273.75 L 163.75 276.25 L 158.75 277.5 L 153.75 278.75 L 142.5 278.75 L 122.5 278.75 L 95.0 276.25 L 82.5 268.75 " stroke="black" fill="none" stroke-width="6.0" stroke-linecap="round" stroke-linejoin="round" />
</svg>