<svg xmlns="http://www.w3.org/2000/svg" width="300" height="300" viewBox="0 0 300 300">
<path d="M 130.0 75.0 L 127.5 73.75 L 123.75 73.75 L 121.25 78.75 L 118.75 91.25 L 117.5 103.75 L 122.5 108.75 L 136.25 108.75 L 156.25 102.5 L 177.5 95.0 L 193.75 91.25 L 201.25 91.25 L 201.25 96.25 L 193.75 113.75 L 182.5 141.25 L 171.25 162.5 L 162.5 175.0 L 156.25 178.75 L 153.75 173.75 " stroke="black" fill="none" stroke-width="6.0" stroke-linecap="round" stroke-linejoin="round" />
<path d="M 141.25 120.0 L 137.5 122.5 L 135.0 128.75 L 133.75 143.75 L 133.75 162.5 L 133.75 167.5 L 135.0 167.5 " stroke="black" fill="none" stroke-width="6.0" stroke-linecap="round" stroke-linejoin="round" />
<path d="M 162.5 112.5 L 162.5 111.25 L 162.5 113.75 L 160.0 127.5 L 152.5 162.5 " stroke="black" fill="none" stroke-width="6.0" stroke-linecap="round" stroke-linejoin="round" />
<path d="M 97.5 198.75 L 97.5 198.75 L 93.75 201.25 L 93.75 206.25 L 102.5 223.75 L 118.75 242.5 L 131.25 251.25 L 133.75 251.25 " stroke="black" fill="none" stroke-width="6.0" stroke-linecap="round" stroke-linejoin="round" />
<path d="M 153.75 196.25 L 153.75 200.0 L 156.25 210.0 L 170.0 230.0 L 191.25 245.0 L 207.5 246.25 L 215.0 242.5 L 216.25 236.25 L 212.5 228.75 L 205.0 220.0 L 193.75 213.75 L 178.75 207.5 L 166.25 203.75 L 162.5 202.5 L 170.0 202.5 L 192.5 200.0 L 216.25 193.75 L 237.5 190.0 L 247.5 188.75 L 246.25 188.75 " stroke="black" fill="none" stroke-width="6.0" stroke-linecap="round" stroke-linejoin="round" />
</svg>