<svg xmlns="http://www.w3.org/2000/svg" width="300" height="300" viewBox="0 0 300 300">
<path d="M 113.75 68.75 L 113.75 68.75 L 112.5 68.75 L 110.0 75.0 L 107.5 87.5 L 107.5 98.75 L 110.0 102.5 L 121.25 101.25 L 140.0 95.0 L 160.0 87.5 L 177.5 85.0 L 188.75 86.25 L 191.25 90.0 L 187.5 101.25 L 177.5 122.5 L 167.5 146.25 L 160.0 165.0 L 157.5 172.5 L 156.25 171.25 L 156.25 167.5 " stroke="black" fill="none" stroke-width="6.0" stroke-linecap="round" stroke-linejoin="round" />
<path d="M 127.5 106.25 L 126.25 106.25 L 123.75 110.0 L 120.0 125.0 L 117.5 147.5 L 115.0 161.25 L 113.75 162.5 L 113.75 161.25 " stroke="black" fill="none" stroke-width="6.0" stroke-linecap="round" stroke-linejoin="round" />
<path d="M 153.75 92.5 L 152.5 95.0 L 148.75 108.75 L 141.25 138.75 L 133.75 166.25 L 128.75 180.0 " stroke="black" fill="none" stroke-width="6.0" stroke-linecap="round" stroke-linejoin="round" />
<path d="M 91.25 182.5 L 91.25 181.25 L 90.0 181.25 L 90.0 183.75 L 93.75 197.5 L 98.75 220.0 L 103.75 236.25 L 106.25 240.0 " stroke="black" fill="none" stroke-width="6.0" stroke-linecap="round" stroke-linejoin="round" />
<path d="M 136.25 186.25 L 135.0 195.0 L 137.5 211.25 L 148.75 226.25 L 167.5 230.0 L 190.0 221.25 L 202.5 210.0 L 203.75 205.0 L 196.25 201.25 L 181.25 201.25 L 163.75 201.25 L 148.75 201.25 L 141.25 201.25 L 141.25 201.25 L 152.5 198.75 L 173.75 195.0 L 201.25 191.25 L 223.75 187.5 L 242.5 185.0 L 248.75 182.5 " stroke="black" fill="none" stroke-width="6.0" stroke-linecap="round" stroke-linejoin="round" />
</svg>