<svg xmlns="http://www.w3.org/2000/svg" width="300" height="300" viewBox="0 0 300 300">
<path d="M 68.75 110.0 L 68.75 110.0 L 67.5 110.0 L 72.5 110.0 L 87.5 108.75 L 101.25 107.5 L 106.25 106.25 L 106.25 106.25 " stroke="black" fill="none" stroke-width="6.0" stroke-linecap="round" stroke-linejoin="round" />
<path d="M 65.0 143.75 L 62.5 146.25 L 60.0 148.75 L 68.75 147.5 L 82.5 142.5 L 96.25 135.0 L 105.0 128.75 L 105.0 127.5 " stroke="black" fill="none" stroke-width="6.0" stroke-linecap="round" stroke-linejoin="round" />
<path d="M 67.5 165.0 L 65.0 168.75 L 63.75 170.0 L 76.25 166.25 L 90.0 158.75 L 102.5 151.25 L 105.0 146.25 " stroke="black" fill="none" stroke-width="6.0" stroke-linecap="round" stroke-linejoin="round" />
<path d="M 57.5 207.5 L 55.0 215.0 L 52.5 220.0 L 63.75 223.75 L 80.0 226.25 L 93.75 226.25 L 98.75 226.25 L 98.75 225.0 L 96.25 225.0 L 95.0 225.0 L 95.0 226.25 L 93.75 226.25 L 93.75 227.5 L 93.75 227.5 L 93.75 227.5 L 93.75 227.5 L 93.75 227.5 L 93.75 227.5 L 93.75 227.5 L 93.75 227.5 L 93.75 227.5 L 93.75 227.5 L 93.75 227.5 L 93.75 227.5 L 92.5 227.5 L 91.25 227.5 L 88.75 225.0 L 85.0 223.75 L 82.5 222.5 L 78.75 220.0 L 77.5 220.0 L 77.5 218.75 L 78.75 215.0 L 86.25 207.5 L 98.75 197.5 L 112.5 188.75 L 118.75 185.0 L 118.75 188.75 L 112.5 200.0 L 103.75 212.5 L 96.25 222.5 L 93.75 227.5 L 93.75 226.25 L 102.5 217.5 L 113.75 205.0 L 122.5 196.25 " stroke="black" fill="none" stroke-width="6.0" stroke-linecap="round" stroke-linejoin="round" />
<path d="M 72.5 188.75 L 68.75 191.25 L 67.5 191.25 L 73.75 191.25 L 86.25 185.0 L 100.0 175.0 " stroke="black" fill="none" stroke-width="6.0" stroke-linecap="round" stroke-linejoin="round" />
<path d="M 132.5 133.75 L 128.75 135.0 L 123.75 135.0 L 127.5 135.0 L 143.75 132.5 L 163.75 125.0 L 186.25 115.0 L 200.0 106.25 L 198.75 103.75 L 193.75 103.75 " stroke="black" fill="none" stroke-width="6.0" stroke-linecap="round" stroke-linejoin="round" />
<path d="M 147.5 132.5 L 146.25 135.0 L 141.25 142.5 L 141.25 162.5 L 143.75 193.75 L 146.25 213.75 L 147.5 217.5 L 147.5 217.5 L 147.5 216.25 L 150.0 208.75 L 155.0 198.75 L 161.25 186.25 L 170.0 175.0 L 176.25 168.75 L 180.0 171.25 L 178.75 186.25 L 172.5 201.25 L 166.25 213.75 L 158.75 217.5 L 157.5 215.0 " stroke="black" fill="none" stroke-width="6.0" stroke-linecap="round" stroke-linejoin="round" />
<path d="M 173.75 100.0 L 172.5 97.5 L 171.25 96.25 L 172.5 96.25 L 180.0 106.25 L 193.75 133.75 L 208.75 178.75 L 220.0 212.5 L 230.0 231.25 L 238.75 245.0 L 242.5 250.0 L 243.75 251.25 L 243.75 251.25 L 243.75 251.25 L 245.0 250.0 L 245.0 247.5 L 246.25 245.0 L 246.25 240.0 L 246.25 232.5 L 247.5 218.75 L 247.5 198.75 L 246.25 192.5 " stroke="black" fill="none" stroke-width="6.0" stroke-linecap="round" stroke-linejoin="round" />
<path d="M 230.0 143.75 L 221.25 150.0 L 215.0 161.25 L 205.0 183.75 L 195.0 203.75 L 182.5 213.75 L 180.0 215.0 " stroke="black" fill="none" stroke-width="6.0" stroke-linecap="round" stroke-linejoin="round" />
<path d="M 215.0 71.25 L 215.0 71.25 L 215.0 71.25 L 215.0 71.25 L 221.25 80.0 L 231.25 95.0 " stroke="black" fill="none" stroke-width="6.0" stroke-linecap="round" stroke-linejoin="round" />
</svg>