<svg xmlns="http://www.w3.org/2000/svg" width="300" height="300" viewBox="0 0 300 300">
<path d="M 71.25 101.25 L 71.25 101.25 L 70.0 101.25 L 71.25 101.25 L 78.75 102.5 L 93.75 103.75 L 108.75 105.0 L 117.5 105.0 L 117.5 105.0 " stroke="black" fill="none" stroke-width="6.0" stroke-linecap="round" stroke-linejoin="round" />
<path d="M 60.0 147.5 L 57.5 150.0 L 57.5 150.0 L 68.75 150.0 L 85.0 143.75 L 101.25 136.25 L 110.0 130.0 L 105.0 130.0 " stroke="black" fill="none" stroke-width="6.0" stroke-linecap="round" stroke-linejoin="round" />
<path d="M 62.5 177.5 L 61.25 178.75 L 61.25 178.75 L 65.0 178.75 L 80.0 171.25 L 95.0 160.0 L 105.0 151.25 L 103.75 150.0 L 101.25 151.25 " stroke="black" fill="none" stroke-width="6.0" stroke-linecap="round" stroke-linejoin="round" />
<path d="M 65.0 202.5 L 65.0 203.75 L 63.75 205.0 L 68.75 203.75 L 82.5 196.25 L 96.25 185.0 L 102.5 176.25 L 100.0 176.25 " stroke="black" fill="none" stroke-width="6.0" stroke-linecap="round" stroke-linejoin="round" />
<path d="M 57.5 217.5 L 57.5 223.75 L 58.75 236.25 L 67.5 246.25 L 80.0 251.25 L 87.5 251.25 L 88.75 251.25 L 85.0 250.0 L 77.5 247.5 L 70.0 245.0 L 62.5 241.25 L 57.5 238.75 L 58.75 235.0 L 72.5 227.5 L 92.5 216.25 L 110.0 210.0 L 116.25 210.0 L 112.5 220.0 L 101.25 236.25 L 90.0 246.25 L 83.75 250.0 L 88.75 238.75 L 91.25 235.0 " stroke="black" fill="none" stroke-width="6.0" stroke-linecap="round" stroke-linejoin="round" />
<path d="M 128.75 135.0 L 128.75 135.0 L 130.0 135.0 L 145.0 132.5 L 173.75 123.75 L 201.25 112.5 L 212.5 105.0 L 211.25 103.75 L 205.0 105.0 " stroke="black" fill="none" stroke-width="6.0" stroke-linecap="round" stroke-linejoin="round" />
<path d="M 145.0 143.75 L 142.5 148.75 L 140.0 167.5 L 140.0 200.0 L 140.0 222.5 L 140.0 228.75 L 140.0 228.75 L 141.25 223.75 L 146.25 211.25 L 152.5 198.75 L 161.25 185.0 L 170.0 176.25 L 176.25 178.75 L 175.0 193.75 L 167.5 212.5 L 158.75 225.0 L 153.75 228.75 L 152.5 221.25 " stroke="black" fill="none" stroke-width="6.0" stroke-linecap="round" stroke-linejoin="round" />
<path d="M 183.75 111.25 L 185.0 108.75 L 187.5 108.75 L 195.0 128.75 L 206.25 175.0 L 220.0 223.75 L 236.25 255.0 L 248.75 270.0 L 253.75 272.5 L 253.75 272.5 L 255.0 266.25 L 253.75 252.5 L 247.5 231.25 L 238.75 205.0 L 233.75 193.75 " stroke="black" fill="none" stroke-width="6.0" stroke-linecap="round" stroke-linejoin="round" />
<path d="M 241.25 150.0 L 242.5 150.0 L 243.75 150.0 L 245.0 153.75 L 235.0 173.75 L 217.5 201.25 L 201.25 218.75 L 190.0 221.25 " stroke="black" fill="none" stroke-width="6.0" stroke-linecap="round" stroke-linejoin="round" />
<path d="M 220.0 87.5 L 222.5 85.0 L 230.0 85.0 L 242.5 93.75 L 253.75 111.25 L 262.5 132.5 " stroke="black" fill="none" stroke-width="6.0" stroke-linecap="round" stroke-linejoin="round" />
</svg>