<svg xmlns="http://www.w3.org/2000/svg" width="300" height="300" viewBox="0 0 300 300">
<path d="M 100.0 92.5 L 100.0 92.5 L 100.0 92.5 L 103.75 92.5 L 111.25 96.25 L 117.5 105.0 L 118.75 117.5 L 111.25 130.0 L 98.75 138.75 L 87.5 145.0 L 85.0 146.25 L 91.25 143.75 L 105.0 138.75 L 117.5 135.0 L 125.0 136.25 L 123.75 146.25 L 108.75 163.75 L 93.75 181.25 L 85.0 190.0 L 83.75 191.25 L 90.0 186.25 L 102.5 180.0 L 117.5 175.0 L 131.25 177.5 L 135.0 196.25 L 125.0 223.75 L 110.0 245.0 L 100.0 251.25 L 96.25 241.25 L 96.25 228.75 " stroke="black" fill="none" stroke-width="6.0" stroke-linecap="round" stroke-linejoin="round" />
<path d="M 166.25 87.5 L 166.25 87.5 L 166.25 95.0 L 167.5 133.75 L 168.75 170.0 L 175.0 185.0 L 177.5 185.0 L 177.5 181.25 " stroke="black" fill="none" stroke-width="6.0" stroke-linecap="round" stroke-linejoin="round" />
<path d="M 167.5 100.0 L 167.5 100.0 L 163.75 97.5 L 163.75 97.5 L 172.5 95.0 L 186.25 92.5 L 201.25 87.5 L 208.75 85.0 L 208.75 85.0 " stroke="black" fill="none" stroke-width="6.0" stroke-linecap="round" stroke-linejoin="round" />
<path d="M 175.0 113.75 L 173.75 116.25 L 168.75 121.25 L 171.25 122.5 L 181.25 122.5 L 195.0 117.5 L 206.25 110.0 L 211.25 105.0 L 208.75 105.0 " stroke="black" fill="none" stroke-width="6.0" stroke-linecap="round" stroke-linejoin="round" />
<path d="M 171.25 147.5 L 167.5 151.25 L 166.25 152.5 L 172.5 152.5 L 188.75 145.0 L 203.75 135.0 L 212.5 126.25 L 211.25 125.0 L 203.75 131.25 " stroke="black" fill="none" stroke-width="6.0" stroke-linecap="round" stroke-linejoin="round" />
<path d="M 143.75 188.75 L 142.5 188.75 L 142.5 191.25 L 147.5 192.5 L 170.0 181.25 L 201.25 161.25 L 218.75 147.5 L 222.5 143.75 L 216.25 145.0 " stroke="black" fill="none" stroke-width="6.0" stroke-linecap="round" stroke-linejoin="round" />
<path d="M 176.25 177.5 L 173.75 181.25 L 170.0 195.0 L 170.0 211.25 L 181.25 241.25 L 192.5 255.0 L 202.5 260.0 L 211.25 256.25 L 222.5 243.75 L 233.75 226.25 L 243.75 205.0 L 248.75 187.5 L 248.75 173.75 L 241.25 170.0 L 226.25 175.0 L 206.25 190.0 L 186.25 206.25 L 175.0 217.5 L 173.75 220.0 L 182.5 216.25 L 192.5 212.5 L 201.25 208.75 L 207.5 206.25 L 211.25 206.25 L 211.25 206.25 L 210.0 206.25 L 208.75 206.25 L 208.75 206.25 L 208.75 207.5 L 217.5 211.25 L 237.5 217.5 L 265.0 222.5 L 277.5 222.5 " stroke="black" fill="none" stroke-width="6.0" stroke-linecap="round" stroke-linejoin="round" />
</svg>