<svg xmlns="http://www.w3.org/2000/svg" width="300" height="300" viewBox="0 0 300 300">
<path d="M 107.5 83.75 L 103.75 83.75 L 102.5 83.75 L 115.0 83.75 L 147.5 76.25 L 186.25 65.0 L 205.0 56.25 L 207.5 53.75 L 202.5 53.75 L 200.0 53.75 " stroke="black" fill="none" stroke-width="6.0" stroke-linecap="round" stroke-linejoin="round" />
<path d="M 135.0 66.25 L 132.5 70.0 L 132.5 76.25 L 132.5 87.5 L 136.25 98.75 " stroke="black" fill="none" stroke-width="6.0" stroke-linecap="round" stroke-linejoin="round" />
<path d="M 168.75 57.5 L 168.75 58.75 L 165.0 65.0 L 158.75 81.25 L 152.5 95.0 L 147.5 101.25 " stroke="black" fill="none" stroke-width="6.0" stroke-linecap="round" stroke-linejoin="round" />
<path d="M 128.75 116.25 L 127.5 116.25 L 127.5 116.25 L 133.75 112.5 L 146.25 105.0 L 157.5 96.25 L 162.5 91.25 L 160.0 90.0 L 155.0 90.0 L 150.0 93.75 L 147.5 98.75 L 147.5 106.25 L 147.5 120.0 L 147.5 133.75 L 146.25 138.75 " stroke="black" fill="none" stroke-width="6.0" stroke-linecap="round" stroke-linejoin="round" />
<path d="M 87.5 156.25 L 80.0 160.0 L 77.5 161.25 L 91.25 160.0 L 120.0 151.25 L 161.25 136.25 L 202.5 120.0 L 215.0 108.75 L 218.75 101.25 L 215.0 97.5 L 207.5 96.25 L 198.75 96.25 L 188.75 97.5 L 178.75 103.75 L 162.5 123.75 L 140.0 163.75 L 110.0 211.25 L 93.75 237.5 L 90.0 242.5 L 90.0 242.5 " stroke="black" fill="none" stroke-width="6.0" stroke-linecap="round" stroke-linejoin="round" />
<path d="M 142.5 167.5 L 142.5 167.5 L 140.0 172.5 L 140.0 191.25 L 140.0 223.75 L 143.75 251.25 L 147.5 260.0 L 148.75 260.0 " stroke="black" fill="none" stroke-width="6.0" stroke-linecap="round" stroke-linejoin="round" />
<path d="M 142.5 185.0 L 141.25 183.75 L 141.25 181.25 L 147.5 177.5 L 160.0 175.0 L 177.5 178.75 L 187.5 200.0 L 188.75 231.25 L 183.75 256.25 L 178.75 266.25 L 175.0 268.75 L 170.0 267.5 L 167.5 263.75 " stroke="black" fill="none" stroke-width="6.0" stroke-linecap="round" stroke-linejoin="round" />
<path d="M 142.5 225.0 L 141.25 225.0 L 137.5 223.75 L 136.25 225.0 L 141.25 222.5 L 152.5 215.0 L 170.0 205.0 L 186.25 195.0 " stroke="black" fill="none" stroke-width="6.0" stroke-linecap="round" stroke-linejoin="round" />
<path d="M 145.0 262.5 L 143.75 266.25 L 143.75 270.0 L 153.75 268.75 L 177.5 256.25 L 195.0 243.75 " stroke="black" fill="none" stroke-width="6.0" stroke-linecap="round" stroke-linejoin="round" />
</svg>