<svg xmlns="http://www.w3.org/2000/svg" width="300" height="300" viewBox="0 0 300 300">
<path d="M 75.0 87.5 L 73.75 86.25 L 72.5 85.0 L 72.5 83.75 L 80.0 91.25 L 86.25 105.0 L 91.25 117.5 L 93.75 121.25 L 106.25 110.0 L 121.25 91.25 L 131.25 81.25 L 132.5 80.0 L 125.0 87.5 L 118.75 92.5 " stroke="black" fill="none" stroke-width="6.0" stroke-linecap="round" stroke-linejoin="round" />
<path d="M 58.75 190.0 L 57.5 195.0 L 62.5 195.0 L 86.25 181.25 L 120.0 153.75 L 147.5 132.5 L 155.0 120.0 L 153.75 116.25 " stroke="black" fill="none" stroke-width="6.0" stroke-linecap="round" stroke-linejoin="round" />
<path d="M 103.75 127.5 L 103.75 128.75 L 105.0 138.75 L 106.25 163.75 L 103.75 197.5 L 95.0 218.75 L 86.25 230.0 L 76.25 232.5 L 73.75 226.25 " stroke="black" fill="none" stroke-width="6.0" stroke-linecap="round" stroke-linejoin="round" />
<path d="M 107.5 157.5 L 112.5 157.5 L 123.75 162.5 L 138.75 181.25 L 153.75 205.0 L 170.0 226.25 L 180.0 236.25 L 182.5 236.25 " stroke="black" fill="none" stroke-width="6.0" stroke-linecap="round" stroke-linejoin="round" />
<path d="M 177.5 137.5 L 176.25 135.0 L 175.0 133.75 L 177.5 138.75 L 185.0 166.25 L 192.5 197.5 L 197.5 212.5 L 198.75 210.0 L 197.5 205.0 " stroke="black" fill="none" stroke-width="6.0" stroke-linecap="round" stroke-linejoin="round" />
<path d="M 178.75 145.0 L 176.25 142.5 L 173.75 138.75 L 177.5 135.0 L 193.75 130.0 L 215.0 127.5 L 236.25 130.0 L 246.25 142.5 L 242.5 160.0 L 226.25 183.75 L 211.25 203.75 L 206.25 212.5 L 210.0 212.5 L 226.25 203.75 L 248.75 186.25 L 265.0 167.5 " stroke="black" fill="none" stroke-width="6.0" stroke-linecap="round" stroke-linejoin="round" />
</svg>