<svg xmlns="http://www.w3.org/2000/svg" width="300" height="300" viewBox="0 0 300 300">
<path d="M 92.5 97.5 L 90.0 96.25 L 88.75 96.25 L 88.75 106.25 L 93.75 128.75 L 102.5 142.5 L 120.0 142.5 L 137.5 126.25 L 148.75 108.75 L 151.25 102.5 L 145.0 103.75 L 131.25 116.25 " stroke="black" fill="none" stroke-width="6.0" stroke-linecap="round" stroke-linejoin="round" />
<path d="M 66.25 200.0 L 66.25 201.25 L 71.25 201.25 L 92.5 191.25 L 127.5 168.75 L 152.5 150.0 L 158.75 141.25 L 153.75 141.25 " stroke="black" fill="none" stroke-width="6.0" stroke-linecap="round" stroke-linejoin="round" />
<path d="M 115.0 145.0 L 115.0 146.25 L 113.75 157.5 L 112.5 185.0 L 105.0 218.75 L 95.0 241.25 L 85.0 251.25 L 77.5 248.75 L 75.0 242.5 " stroke="black" fill="none" stroke-width="6.0" stroke-linecap="round" stroke-linejoin="round" />
<path d="M 102.5 188.75 L 106.25 188.75 L 115.0 193.75 L 131.25 207.5 L 148.75 230.0 L 161.25 243.75 L 171.25 246.25 L 173.75 240.0 L 173.75 237.5 " stroke="black" fill="none" stroke-width="6.0" stroke-linecap="round" stroke-linejoin="round" />
<path d="M 182.5 131.25 L 182.5 132.5 L 182.5 145.0 L 182.5 176.25 L 186.25 198.75 L 191.25 203.75 L 191.25 198.75 " stroke="black" fill="none" stroke-width="6.0" stroke-linecap="round" stroke-linejoin="round" />
<path d="M 172.5 142.5 L 170.0 140.0 L 170.0 137.5 L 182.5 136.25 L 200.0 135.0 L 218.75 136.25 L 227.5 145.0 L 225.0 161.25 L 208.75 183.75 L 193.75 200.0 L 186.25 207.5 L 191.25 207.5 L 207.5 203.75 L 230.0 193.75 L 251.25 185.0 L 261.25 180.0 L 262.5 177.5 " stroke="black" fill="none" stroke-width="6.0" stroke-linecap="round" stroke-linejoin="round" />
</svg>