<svg xmlns="http://www.w3.org/2000/svg" width="300" height="300" viewBox="0 0 300 300">
<path d="M 90.0 98.75 L 88.75 101.25 L 83.75 115.0 L 83.75 151.25 L 83.75 192.5 L 85.0 217.5 L 88.75 226.25 L 88.75 226.25 " stroke="black" fill="none" stroke-width="6.0" stroke-linecap="round" stroke-linejoin="round" />
<path d="M 106.25 97.5 L 111.25 97.5 L 131.25 92.5 L 162.5 86.25 L 192.5 85.0 L 210.0 86.25 L 216.25 92.5 L 223.75 120.0 L 225.0 156.25 L 228.75 200.0 L 235.0 230.0 L 240.0 242.5 L 242.5 248.75 L 243.75 248.75 L 243.75 248.75 L 242.5 247.5 L 237.5 242.5 L 230.0 233.75 L 217.5 221.25 L 202.5 206.25 L 188.75 196.25 " stroke="black" fill="none" stroke-width="6.0" stroke-linecap="round" stroke-linejoin="round" />
<path d="M 101.25 142.5 L 97.5 142.5 L 93.75 142.5 L 96.25 140.0 L 112.5 135.0 L 133.75 127.5 L 151.25 121.25 L 155.0 120.0 L 153.75 120.0 " stroke="black" fill="none" stroke-width="6.0" stroke-linecap="round" stroke-linejoin="round" />
<path d="M 106.25 148.75 L 105.0 153.75 L 105.0 163.75 L 110.0 177.5 L 113.75 185.0 L 116.25 186.25 L 116.25 181.25 L 110.0 176.25 L 105.0 171.25 L 102.5 166.25 L 101.25 162.5 L 107.5 158.75 L 120.0 153.75 L 133.75 150.0 L 141.25 148.75 L 140.0 152.5 L 130.0 165.0 L 117.5 178.75 L 107.5 188.75 L 105.0 190.0 L 110.0 186.25 L 125.0 173.75 L 137.5 162.5 L 146.25 155.0 L 147.5 155.0 L 138.75 170.0 L 128.75 190.0 L 117.5 208.75 L 111.25 218.75 L 113.75 217.5 L 128.75 205.0 L 146.25 186.25 L 158.75 163.75 L 165.0 145.0 L 162.5 136.25 L 155.0 132.5 L 150.0 130.0 L 148.75 130.0 L 152.5 135.0 L 162.5 153.75 L 177.5 187.5 L 191.25 216.25 L 197.5 227.5 L 195.0 225.0 L 195.0 222.5 " stroke="black" fill="none" stroke-width="6.0" stroke-linecap="round" stroke-linejoin="round" />
<path d="M 198.75 137.5 L 198.75 136.25 L 197.5 135.0 L 193.75 142.5 L 182.5 170.0 L 162.5 203.75 L 143.75 225.0 L 140.0 230.0 L 146.25 225.0 L 166.25 211.25 L 192.5 193.75 L 208.75 180.0 L 212.5 168.75 " stroke="black" fill="none" stroke-width="6.0" stroke-linecap="round" stroke-linejoin="round" />
<path d="M 193.75 115.0 L 192.5 115.0 L 191.25 112.5 L 191.25 111.25 L 196.25 113.75 L 206.25 130.0 L 215.0 147.5 " stroke="black" fill="none" stroke-width="6.0" stroke-linecap="round" stroke-linejoin="round" />
</svg>