<svg xmlns="http://www.w3.org/2000/svg" width="300" height="300" viewBox="0 0 300 300">
<path d="M 70.0 105.0 L 71.25 103.75 L 71.25 102.5 L 72.5 111.25 L 75.0 147.5 L 76.25 198.75 L 76.25 232.5 L 76.25 241.25 L 76.25 241.25 L 75.0 231.25 " stroke="black" fill="none" stroke-width="6.0" stroke-linecap="round" stroke-linejoin="round" />
<path d="M 90.0 93.75 L 91.25 93.75 L 93.75 92.5 L 108.75 90.0 L 137.5 87.5 L 166.25 86.25 L 193.75 87.5 L 207.5 92.5 L 215.0 101.25 L 217.5 113.75 L 220.0 132.5 L 221.25 160.0 L 225.0 196.25 L 227.5 225.0 L 228.75 242.5 L 228.75 251.25 L 228.75 253.75 L 230.0 255.0 L 230.0 253.75 L 230.0 253.75 L 228.75 252.5 L 225.0 250.0 L 217.5 243.75 L 210.0 235.0 L 191.25 212.5 " stroke="black" fill="none" stroke-width="6.0" stroke-linecap="round" stroke-linejoin="round" />
<path d="M 82.5 141.25 L 82.5 141.25 L 78.75 140.0 L 77.5 140.0 L 82.5 137.5 L 101.25 132.5 L 126.25 121.25 L 148.75 110.0 L 155.0 105.0 L 150.0 106.25 L 147.5 107.5 " stroke="black" fill="none" stroke-width="6.0" stroke-linecap="round" stroke-linejoin="round" />
<path d="M 96.25 151.25 L 96.25 151.25 L 96.25 153.75 L 97.5 158.75 L 100.0 170.0 L 105.0 181.25 L 107.5 186.25 L 107.5 186.25 L 106.25 183.75 L 102.5 178.75 L 98.75 173.75 L 97.5 167.5 L 97.5 162.5 L 103.75 156.25 L 118.75 150.0 L 135.0 147.5 L 145.0 146.25 L 145.0 151.25 L 136.25 162.5 L 123.75 173.75 L 111.25 183.75 L 102.5 190.0 L 101.25 190.0 L 108.75 185.0 L 122.5 176.25 L 135.0 166.25 L 143.75 160.0 L 145.0 160.0 L 136.25 175.0 L 125.0 193.75 L 113.75 211.25 L 105.0 227.5 L 105.0 230.0 L 115.0 220.0 L 131.25 203.75 L 147.5 185.0 L 156.25 168.75 L 158.75 156.25 L 153.75 150.0 L 148.75 146.25 L 145.0 141.25 L 142.5 136.25 L 141.25 132.5 L 141.25 130.0 L 143.75 130.0 L 148.75 141.25 L 158.75 168.75 L 172.5 205.0 L 183.75 228.75 L 187.5 236.25 L 187.5 236.25 L 187.5 236.25 L 185.0 231.25 L 180.0 221.25 L 176.25 211.25 " stroke="black" fill="none" stroke-width="6.0" stroke-linecap="round" stroke-linejoin="round" />
<path d="M 191.25 153.75 L 191.25 153.75 L 191.25 153.75 L 186.25 161.25 L 176.25 182.5 L 161.25 205.0 L 146.25 218.75 L 133.75 228.75 L 130.0 231.25 L 130.0 231.25 L 138.75 230.0 L 150.0 226.25 L 162.5 221.25 L 173.75 215.0 L 185.0 210.0 L 191.25 206.25 L 192.5 202.5 L 191.25 201.25 " stroke="black" fill="none" stroke-width="6.0" stroke-linecap="round" stroke-linejoin="round" />
<path d="M 170.0 100.0 L 170.0 100.0 L 170.0 100.0 L 171.25 101.25 L 178.75 107.5 L 187.5 117.5 L 192.5 125.0 " stroke="black" fill="none" stroke-width="6.0" stroke-linecap="round" stroke-linejoin="round" />
</svg>