<svg xmlns="http://www.w3.org/2000/svg" width="300" height="300" viewBox="0 0 300 300">
<path d="M 82.5 98.75 L 81.25 98.75 L 80.0 106.25 L 80.0 153.75 L 80.0 198.75 L 81.25 218.75 L 81.25 223.75 L 81.25 221.25 " stroke="black" fill="none" stroke-width="6.0" stroke-linecap="round" stroke-linejoin="round" />
<path d="M 101.25 86.25 L 105.0 83.75 L 118.75 78.75 L 146.25 70.0 L 177.5 65.0 L 202.5 66.25 L 212.5 72.5 L 218.75 92.5 L 218.75 123.75 L 218.75 166.25 L 221.25 210.0 L 227.5 236.25 L 230.0 243.75 L 231.25 243.75 L 231.25 243.75 L 226.25 238.75 L 216.25 226.25 L 203.75 210.0 L 187.5 191.25 " stroke="black" fill="none" stroke-width="6.0" stroke-linecap="round" stroke-linejoin="round" />
<path d="M 102.5 132.5 L 102.5 132.5 L 101.25 132.5 L 103.75 132.5 L 118.75 127.5 L 137.5 121.25 L 150.0 115.0 L 150.0 115.0 " stroke="black" fill="none" stroke-width="6.0" stroke-linecap="round" stroke-linejoin="round" />
<path d="M 102.5 147.5 L 102.5 152.5 L 101.25 165.0 L 103.75 181.25 L 108.75 190.0 L 110.0 191.25 L 108.75 186.25 L 103.75 181.25 L 98.75 173.75 L 97.5 167.5 L 98.75 161.25 L 107.5 156.25 L 120.0 152.5 L 132.5 152.5 L 135.0 156.25 L 128.75 166.25 L 116.25 177.5 L 105.0 186.25 L 100.0 190.0 L 102.5 187.5 L 115.0 178.75 L 130.0 167.5 L 142.5 157.5 L 146.25 155.0 L 143.75 161.25 L 133.75 182.5 L 122.5 203.75 L 113.75 222.5 L 110.0 228.75 L 117.5 221.25 L 133.75 203.75 L 151.25 181.25 L 162.5 156.25 L 166.25 140.0 L 162.5 131.25 L 155.0 128.75 L 151.25 127.5 L 151.25 127.5 L 156.25 138.75 L 166.25 166.25 L 180.0 201.25 L 190.0 222.5 L 191.25 227.5 L 190.0 227.5 " stroke="black" fill="none" stroke-width="6.0" stroke-linecap="round" stroke-linejoin="round" />
<path d="M 188.75 146.25 L 188.75 147.5 L 183.75 152.5 L 177.5 168.75 L 165.0 195.0 L 152.5 213.75 L 146.25 218.75 L 147.5 218.75 L 157.5 211.25 L 175.0 200.0 L 191.25 186.25 L 202.5 171.25 L 202.5 167.5 " stroke="black" fill="none" stroke-width="6.0" stroke-linecap="round" stroke-linejoin="round" />
<path d="M 177.5 105.0 L 177.5 105.0 L 177.5 105.0 L 177.5 106.25 L 187.5 120.0 L 196.25 140.0 " stroke="black" fill="none" stroke-width="6.0" stroke-linecap="round" stroke-linejoin="round" />
</svg>