<svg xmlns="http://www.w3.org/2000/svg" width="300" height="300" viewBox="0 0 300 300">
<path d="M 81.25 106.25 L 80.0 103.75 L 78.75 101.25 L 77.5 102.5 L 80.0 128.75 L 81.25 177.5 L 81.25 216.25 L 82.5 235.0 L 83.75 236.25 L 83.75 233.75 " stroke="black" fill="none" stroke-width="6.0" stroke-linecap="round" stroke-linejoin="round" />
<path d="M 96.25 92.5 L 97.5 91.25 L 108.75 88.75 L 142.5 83.75 L 173.75 82.5 L 200.0 85.0 L 215.0 91.25 L 221.25 102.5 L 226.25 125.0 L 228.75 157.5 L 231.25 191.25 L 233.75 222.5 L 236.25 248.75 L 237.5 261.25 L 237.5 266.25 L 237.5 266.25 L 236.25 265.0 L 230.0 257.5 L 220.0 245.0 L 207.5 225.0 L 196.25 208.75 " stroke="black" fill="none" stroke-width="6.0" stroke-linecap="round" stroke-linejoin="round" />
<path d="M 96.25 143.75 L 93.75 143.75 L 88.75 143.75 L 87.5 143.75 L 97.5 137.5 L 118.75 130.0 L 138.75 125.0 L 146.25 123.75 " stroke="black" fill="none" stroke-width="6.0" stroke-linecap="round" stroke-linejoin="round" />
<path d="M 95.0 153.75 L 92.5 157.5 L 93.75 167.5 L 101.25 181.25 L 108.75 191.25 L 112.5 193.75 L 112.5 190.0 L 106.25 183.75 L 98.75 178.75 L 92.5 173.75 L 90.0 170.0 L 92.5 167.5 L 105.0 162.5 L 123.75 157.5 L 138.75 155.0 L 142.5 156.25 L 136.25 166.25 L 122.5 180.0 L 108.75 191.25 L 98.75 197.5 L 98.75 197.5 L 108.75 191.25 L 125.0 180.0 L 140.0 168.75 L 148.75 162.5 L 148.75 165.0 L 138.75 182.5 L 127.5 201.25 L 115.0 220.0 L 110.0 228.75 L 113.75 226.25 L 130.0 212.5 L 147.5 192.5 L 162.5 171.25 L 171.25 151.25 L 168.75 141.25 L 158.75 138.75 L 151.25 136.25 L 150.0 136.25 L 150.0 138.75 L 158.75 157.5 L 170.0 191.25 L 185.0 225.0 L 195.0 243.75 L 198.75 247.5 L 198.75 246.25 L 196.25 238.75 L 192.5 228.75 " stroke="black" fill="none" stroke-width="6.0" stroke-linecap="round" stroke-linejoin="round" />
<path d="M 200.0 152.5 L 200.0 152.5 L 200.0 151.25 L 196.25 158.75 L 181.25 186.25 L 160.0 215.0 L 146.25 225.0 L 140.0 221.25 " stroke="black" fill="none" stroke-width="6.0" stroke-linecap="round" stroke-linejoin="round" />
<path d="M 191.25 103.75 L 191.25 102.5 L 191.25 102.5 L 193.75 105.0 L 201.25 118.75 L 211.25 136.25 L 218.75 151.25 L 220.0 156.25 " stroke="black" fill="none" stroke-width="6.0" stroke-linecap="round" stroke-linejoin="round" />
<path d="M 113.75 258.75 L 110.0 258.75 L 106.25 260.0 L 110.0 258.75 L 128.75 257.5 L 153.75 256.25 L 185.0 256.25 L 208.75 256.25 " stroke="black" fill="none" stroke-width="6.0" stroke-linecap="round" stroke-linejoin="round" />
</svg>