<svg xmlns="http://www.w3.org/2000/svg" width="300" height="300" viewBox="0 0 300 300">
<path d="M 83.75 122.5 L 83.75 122.5 L 85.0 123.75 L 86.25 141.25 L 90.0 178.75 L 95.0 208.75 L 103.75 223.75 L 117.5 230.0 L 132.5 230.0 L 142.5 226.25 L 146.25 225.0 L 145.0 225.0 " stroke="black" fill="none" stroke-width="6.0" stroke-linecap="round" stroke-linejoin="round" />
<path d="M 123.75 120.0 L 125.0 120.0 L 127.5 125.0 L 127.5 155.0 L 120.0 195.0 L 110.0 217.5 L 97.5 230.0 L 85.0 233.75 L 77.5 232.5 " stroke="black" fill="none" stroke-width="6.0" stroke-linecap="round" stroke-linejoin="round" />
<path d="M 51.25 192.5 L 52.5 191.25 L 52.5 190.0 L 61.25 187.5 L 87.5 181.25 L 122.5 166.25 L 151.25 152.5 L 162.5 143.75 L 162.5 140.0 L 162.5 140.0 " stroke="black" fill="none" stroke-width="6.0" stroke-linecap="round" stroke-linejoin="round" />
<path d="M 160.0 136.25 L 160.0 136.25 L 158.75 140.0 L 158.75 156.25 L 161.25 186.25 L 163.75 206.25 L 166.25 212.5 L 163.75 212.5 L 163.75 211.25 " stroke="black" fill="none" stroke-width="6.0" stroke-linecap="round" stroke-linejoin="round" />
<path d="M 153.75 146.25 L 153.75 145.0 L 156.25 142.5 L 166.25 138.75 L 183.75 135.0 L 202.5 133.75 L 215.0 136.25 L 218.75 146.25 L 213.75 163.75 L 202.5 185.0 L 186.25 202.5 L 170.0 216.25 L 166.25 221.25 L 172.5 220.0 L 188.75 213.75 L 208.75 205.0 L 245.0 192.5 L 253.75 191.25 L 253.75 191.25 " stroke="black" fill="none" stroke-width="6.0" stroke-linecap="round" stroke-linejoin="round" />
</svg>