<svg xmlns="http://www.w3.org/2000/svg" width="300" height="300" viewBox="0 0 300 300">
<path d="M 101.25 115.0 L 100.0 115.0 L 97.5 118.75 L 93.75 137.5 L 91.25 177.5 L 96.25 208.75 L 112.5 218.75 L 131.25 220.0 L 145.0 220.0 L 148.75 220.0 L 145.0 220.0 " stroke="black" fill="none" stroke-width="6.0" stroke-linecap="round" stroke-linejoin="round" />
<path d="M 127.5 108.75 L 128.75 110.0 L 131.25 115.0 L 133.75 146.25 L 130.0 191.25 L 118.75 217.5 L 107.5 233.75 L 93.75 238.75 L 78.75 237.5 L 73.75 235.0 " stroke="black" fill="none" stroke-width="6.0" stroke-linecap="round" stroke-linejoin="round" />
<path d="M 42.5 197.5 L 42.5 193.75 L 47.5 191.25 L 72.5 188.75 L 105.0 182.5 L 143.75 165.0 L 171.25 147.5 L 180.0 138.75 " stroke="black" fill="none" stroke-width="6.0" stroke-linecap="round" stroke-linejoin="round" />
<path d="M 185.0 122.5 L 182.5 122.5 L 177.5 127.5 L 176.25 145.0 L 180.0 182.5 L 187.5 213.75 L 192.5 225.0 L 192.5 225.0 " stroke="black" fill="none" stroke-width="6.0" stroke-linecap="round" stroke-linejoin="round" />
<path d="M 172.5 132.5 L 172.5 131.25 L 171.25 128.75 L 177.5 127.5 L 192.5 131.25 L 207.5 138.75 L 218.75 150.0 L 218.75 165.0 L 208.75 187.5 L 200.0 202.5 L 197.5 208.75 L 198.75 208.75 L 212.5 202.5 L 233.75 190.0 L 256.25 177.5 L 262.5 171.25 " stroke="black" fill="none" stroke-width="6.0" stroke-linecap="round" stroke-linejoin="round" />
</svg>