<svg xmlns="http://www.w3.org/2000/svg" width="300" height="300" viewBox="0 0 300 300">
<path d="M 91.25 97.5 L 91.25 97.5 L 91.25 97.5 L 91.25 115.0 L 88.75 155.0 L 90.0 185.0 L 101.25 201.25 L 122.5 208.75 L 142.5 216.25 L 155.0 220.0 L 157.5 221.25 L 153.75 220.0 L 152.5 218.75 " stroke="black" fill="none" stroke-width="6.0" stroke-linecap="round" stroke-linejoin="round" />
<path d="M 122.5 112.5 L 123.75 110.0 L 128.75 116.25 L 132.5 148.75 L 131.25 186.25 L 117.5 228.75 L 103.75 242.5 L 90.0 246.25 L 83.75 243.75 " stroke="black" fill="none" stroke-width="6.0" stroke-linecap="round" stroke-linejoin="round" />
<path d="M 47.5 158.75 L 47.5 158.75 L 47.5 158.75 L 51.25 158.75 L 66.25 157.5 L 113.75 153.75 L 152.5 145.0 L 171.25 137.5 L 175.0 130.0 L 172.5 125.0 L 168.75 123.75 L 165.0 122.5 L 163.75 126.25 L 166.25 147.5 L 171.25 182.5 L 177.5 210.0 L 180.0 216.25 L 180.0 215.0 " stroke="black" fill="none" stroke-width="6.0" stroke-linecap="round" stroke-linejoin="round" />
<path d="M 160.0 120.0 L 158.75 120.0 L 157.5 120.0 L 163.75 118.75 L 185.0 116.25 L 208.75 117.5 L 223.75 126.25 L 225.0 142.5 L 212.5 166.25 L 197.5 190.0 L 182.5 210.0 L 177.5 218.75 L 182.5 217.5 L 197.5 212.5 L 218.75 201.25 L 241.25 192.5 L 257.5 186.25 L 258.75 185.0 " stroke="black" fill="none" stroke-width="6.0" stroke-linecap="round" stroke-linejoin="round" />
</svg>