<svg xmlns="http://www.w3.org/2000/svg" width="300" height="300" viewBox="0 0 300 300">
<path d="M 90.0 128.75 L 91.25 125.0 L 92.5 123.75 L 96.25 131.25 L 100.0 160.0 L 103.75 200.0 L 115.0 220.0 L 136.25 225.0 L 156.25 220.0 L 165.0 213.75 L 165.0 212.5 " stroke="black" fill="none" stroke-width="6.0" stroke-linecap="round" stroke-linejoin="round" />
<path d="M 132.5 122.5 L 135.0 128.75 L 141.25 152.5 L 143.75 191.25 L 137.5 216.25 L 127.5 231.25 L 110.0 236.25 " stroke="black" fill="none" stroke-width="6.0" stroke-linecap="round" stroke-linejoin="round" />
<path d="M 60.0 202.5 L 60.0 201.25 L 57.5 197.5 L 66.25 193.75 L 88.75 187.5 L 123.75 176.25 L 157.5 158.75 L 173.75 147.5 L 176.25 141.25 L 172.5 137.5 L 165.0 137.5 L 162.5 137.5 L 162.5 146.25 L 166.25 170.0 L 173.75 197.5 L 181.25 212.5 L 181.25 212.5 " stroke="black" fill="none" stroke-width="6.0" stroke-linecap="round" stroke-linejoin="round" />
<path d="M 161.25 138.75 L 161.25 136.25 L 157.5 132.5 L 161.25 130.0 L 175.0 130.0 L 193.75 131.25 L 212.5 136.25 L 222.5 145.0 L 220.0 160.0 L 205.0 186.25 L 190.0 206.25 L 183.75 213.75 L 202.5 202.5 L 225.0 187.5 L 248.75 172.5 L 258.75 166.25 " stroke="black" fill="none" stroke-width="6.0" stroke-linecap="round" stroke-linejoin="round" />
</svg>