<svg xmlns="http://www.w3.org/2000/svg" width="300" height="300" viewBox="0 0 300 300">
<path d="M 133.75 77.5 L 133.75 77.5 L 131.25 76.25 L 131.25 73.75 L 135.0 72.5 L 143.75 72.5 L 152.5 75.0 L 157.5 80.0 " stroke="black" fill="none" stroke-width="6.0" stroke-linecap="round" stroke-linejoin="round" />
<path d="M 83.75 101.25 L 82.5 101.25 L 81.25 102.5 L 82.5 111.25 L 90.0 128.75 L 97.5 142.5 L 101.25 147.5 L 101.25 147.5 " stroke="black" fill="none" stroke-width="6.0" stroke-linecap="round" stroke-linejoin="round" />
<path d="M 87.5 116.25 L 85.0 115.0 L 83.75 113.75 L 87.5 112.5 L 111.25 110.0 L 148.75 106.25 L 185.0 102.5 L 201.25 102.5 L 200.0 107.5 L 185.0 118.75 L 165.0 128.75 L 160.0 130.0 " stroke="black" fill="none" stroke-width="6.0" stroke-linecap="round" stroke-linejoin="round" />
<path d="M 132.5 112.5 L 131.25 112.5 L 127.5 116.25 L 118.75 138.75 L 103.75 177.5 L 93.75 205.0 L 87.5 212.5 L 86.25 210.0 " stroke="black" fill="none" stroke-width="6.0" stroke-linecap="round" stroke-linejoin="round" />
<path d="M 151.25 125.0 L 162.5 127.5 L 182.5 138.75 L 203.75 152.5 L 217.5 162.5 L 222.5 161.25 L 220.0 160.0 " stroke="black" fill="none" stroke-width="6.0" stroke-linecap="round" stroke-linejoin="round" />
<path d="M 123.75 177.5 L 122.5 178.75 L 120.0 180.0 L 125.0 180.0 L 141.25 177.5 L 162.5 171.25 L 180.0 166.25 L 181.25 165.0 L 172.5 167.5 " stroke="black" fill="none" stroke-width="6.0" stroke-linecap="round" stroke-linejoin="round" />
<path d="M 152.5 176.25 L 150.0 177.5 L 148.75 180.0 L 150.0 190.0 L 152.5 208.75 L 152.5 226.25 L 147.5 235.0 L 138.75 237.5 L 126.25 237.5 L 115.0 236.25 L 111.25 235.0 L 111.25 235.0 L 113.75 235.0 L 123.75 232.5 L 137.5 231.25 L 153.75 231.25 L 175.0 231.25 L 198.75 231.25 L 216.25 228.75 L 226.25 225.0 L 228.75 217.5 " stroke="black" fill="none" stroke-width="6.0" stroke-linecap="round" stroke-linejoin="round" />
</svg>