<svg xmlns="http://www.w3.org/2000/svg" width="300" height="300" viewBox="0 0 300 300">
<path d="M 127.5 70.0 L 127.5 70.0 L 127.5 70.0 L 132.5 70.0 L 146.25 72.5 L 160.0 73.75 L 167.5 78.75 L 165.0 82.5 " stroke="black" fill="none" stroke-width="6.0" stroke-linecap="round" stroke-linejoin="round" />
<path d="M 90.0 102.5 L 88.75 102.5 L 86.25 103.75 L 86.25 106.25 L 91.25 122.5 L 98.75 142.5 L 102.5 153.75 L 102.5 153.75 " stroke="black" fill="none" stroke-width="6.0" stroke-linecap="round" stroke-linejoin="round" />
<path d="M 91.25 113.75 L 91.25 113.75 L 91.25 113.75 L 112.5 111.25 L 155.0 103.75 L 192.5 97.5 L 205.0 97.5 L 203.75 102.5 L 191.25 116.25 L 168.75 130.0 L 147.5 140.0 L 142.5 141.25 " stroke="black" fill="none" stroke-width="6.0" stroke-linecap="round" stroke-linejoin="round" />
<path d="M 142.5 122.5 L 142.5 122.5 L 137.5 126.25 L 128.75 146.25 L 112.5 177.5 L 97.5 202.5 L 90.0 211.25 L 88.75 207.5 " stroke="black" fill="none" stroke-width="6.0" stroke-linecap="round" stroke-linejoin="round" />
<path d="M 153.75 123.75 L 153.75 125.0 L 161.25 137.5 L 172.5 157.5 L 190.0 178.75 L 207.5 183.75 L 220.0 180.0 L 220.0 177.5 " stroke="black" fill="none" stroke-width="6.0" stroke-linecap="round" stroke-linejoin="round" />
<path d="M 122.5 208.75 L 122.5 208.75 L 120.0 210.0 L 122.5 210.0 L 137.5 203.75 L 157.5 195.0 L 176.25 186.25 L 180.0 183.75 L 168.75 186.25 L 156.25 192.5 L 148.75 198.75 L 142.5 205.0 L 141.25 213.75 L 141.25 227.5 L 142.5 242.5 L 138.75 252.5 L 127.5 255.0 L 112.5 257.5 L 100.0 257.5 L 96.25 257.5 L 96.25 257.5 L 100.0 257.5 L 113.75 257.5 L 136.25 255.0 L 163.75 252.5 L 190.0 248.75 L 207.5 246.25 L 212.5 243.75 L 212.5 241.25 " stroke="black" fill="none" stroke-width="6.0" stroke-linecap="round" stroke-linejoin="round" />
</svg>