<svg xmlns="http://www.w3.org/2000/svg" width="300" height="300" viewBox="0 0 300 300">
<path d="M 91.25 121.25 L 85.0 123.75 L 81.25 125.0 L 92.5 123.75 L 117.5 116.25 L 152.5 102.5 L 187.5 86.25 L 200.0 78.75 L 198.75 76.25 L 187.5 76.25 L 176.25 76.25 L 162.5 76.25 L 150.0 77.5 L 140.0 77.5 L 136.25 77.5 L 135.0 81.25 L 133.75 95.0 L 128.75 131.25 L 113.75 183.75 L 95.0 217.5 L 82.5 233.75 L 73.75 236.25 " stroke="black" fill="none" stroke-width="6.0" stroke-linecap="round" stroke-linejoin="round" />
<path d="M 123.75 155.0 L 121.25 155.0 L 120.0 153.75 L 120.0 152.5 L 123.75 157.5 L 132.5 178.75 L 142.5 206.25 L 147.5 221.25 L 148.75 225.0 L 148.75 221.25 L 147.5 212.5 L 147.5 208.75 " stroke="black" fill="none" stroke-width="6.0" stroke-linecap="round" stroke-linejoin="round" />
<path d="M 133.75 177.5 L 131.25 178.75 L 127.5 178.75 L 128.75 180.0 L 140.0 176.25 L 158.75 168.75 L 183.75 161.25 L 203.75 157.5 L 208.75 158.75 L 206.25 167.5 L 195.0 185.0 L 180.0 201.25 L 161.25 216.25 L 148.75 228.75 L 148.75 230.0 L 156.25 230.0 L 172.5 227.5 L 191.25 220.0 L 207.5 212.5 L 216.25 205.0 L 216.25 202.5 " stroke="black" fill="none" stroke-width="6.0" stroke-linecap="round" stroke-linejoin="round" />
</svg>