<svg xmlns="http://www.w3.org/2000/svg" width="300" height="300" viewBox="0 0 300 300">
<path d="M 157.5 122.5 L 156.25 121.25 L 155.0 121.25 L 155.0 135.0 L 160.0 165.0 L 165.0 195.0 L 166.25 207.5 L 165.0 208.75 L 161.25 208.75 " stroke="black" fill="none" stroke-width="6.0" stroke-linecap="round" stroke-linejoin="round" />
<path d="M 162.5 173.75 L 158.75 173.75 L 157.5 173.75 L 161.25 173.75 L 177.5 166.25 L 196.25 156.25 L 207.5 147.5 L 206.25 145.0 L 203.75 145.0 " stroke="black" fill="none" stroke-width="6.0" stroke-linecap="round" stroke-linejoin="round" />
<path d="M 102.5 187.5 L 101.25 183.75 L 101.25 182.5 L 103.75 181.25 L 110.0 186.25 L 117.5 201.25 L 125.0 217.5 L 135.0 227.5 L 152.5 228.75 L 177.5 220.0 L 205.0 210.0 L 222.5 202.5 L 235.0 196.25 L 237.5 195.0 L 236.25 195.0 L 228.75 196.25 L 222.5 198.75 " stroke="black" fill="none" stroke-width="6.0" stroke-linecap="round" stroke-linejoin="round" />
</svg>