<svg xmlns="http://www.w3.org/2000/svg" width="300" height="300" viewBox="0 0 300 300">
<path d="M 156.25 107.5 L 156.25 106.25 L 156.25 106.25 L 156.25 110.0 L 157.5 138.75 L 158.75 177.5 L 158.75 198.75 L 158.75 203.75 L 157.5 202.5 L 157.5 201.25 " stroke="black" fill="none" stroke-width="6.0" stroke-linecap="round" stroke-linejoin="round" />
<path d="M 153.75 166.25 L 155.0 165.0 L 155.0 165.0 L 161.25 160.0 L 180.0 153.75 L 200.0 146.25 L 210.0 140.0 L 208.75 138.75 L 198.75 145.0 " stroke="black" fill="none" stroke-width="6.0" stroke-linecap="round" stroke-linejoin="round" />
<path d="M 102.5 150.0 L 98.75 150.0 L 97.5 151.25 L 97.5 171.25 L 98.75 201.25 L 98.75 221.25 L 98.75 225.0 L 100.0 225.0 L 111.25 222.5 L 128.75 218.75 L 151.25 213.75 L 177.5 210.0 L 203.75 206.25 L 217.5 205.0 L 226.25 203.75 L 228.75 202.5 L 228.75 202.5 L 226.25 202.5 L 223.75 202.5 " stroke="black" fill="none" stroke-width="6.0" stroke-linecap="round" stroke-linejoin="round" />
</svg>