<svg xmlns="http://www.w3.org/2000/svg" width="300" height="300" viewBox="0 0 300 300">
<path d="M 102.5 82.5 L 102.5 82.5 L 103.75 82.5 L 116.25 80.0 L 140.0 76.25 L 157.5 73.75 L 163.75 72.5 L 162.5 72.5 " stroke="black" fill="none" stroke-width="6.0" stroke-linecap="round" stroke-linejoin="round" />
<path d="M 120.0 100.0 L 116.25 107.5 L 115.0 126.25 L 117.5 147.5 L 123.75 158.75 L 126.25 158.75 " stroke="black" fill="none" stroke-width="6.0" stroke-linecap="round" stroke-linejoin="round" />
<path d="M 120.0 122.5 L 117.5 118.75 L 116.25 115.0 L 123.75 108.75 L 143.75 102.5 L 165.0 98.75 L 182.5 98.75 L 186.25 110.0 L 173.75 130.0 L 157.5 148.75 L 142.5 158.75 L 130.0 161.25 L 125.0 158.75 " stroke="black" fill="none" stroke-width="6.0" stroke-linecap="round" stroke-linejoin="round" />
<path d="M 116.25 140.0 L 116.25 140.0 L 115.0 138.75 L 116.25 137.5 L 127.5 132.5 L 148.75 122.5 L 167.5 112.5 L 173.75 110.0 L 168.75 111.25 " stroke="black" fill="none" stroke-width="6.0" stroke-linecap="round" stroke-linejoin="round" />
<path d="M 122.5 162.5 L 120.0 166.25 L 120.0 167.5 L 131.25 161.25 L 148.75 150.0 L 165.0 137.5 L 171.25 131.25 L 166.25 133.75 L 160.0 138.75 L 155.0 147.5 L 152.5 158.75 L 152.5 182.5 L 153.75 217.5 L 155.0 241.25 L 155.0 248.75 L 153.75 248.75 L 150.0 246.25 L 143.75 242.5 L 133.75 236.25 L 126.25 233.75 " stroke="black" fill="none" stroke-width="6.0" stroke-linecap="round" stroke-linejoin="round" />
<path d="M 90.0 196.25 L 88.75 196.25 L 88.75 196.25 L 95.0 193.75 L 105.0 195.0 L 112.5 205.0 L 108.75 225.0 L 98.75 240.0 L 93.75 245.0 L 98.75 238.75 L 120.0 216.25 L 150.0 190.0 L 178.75 166.25 L 196.25 157.5 L 200.0 156.25 L 200.0 167.5 L 200.0 185.0 L 203.75 197.5 L 217.5 200.0 L 232.5 200.0 L 241.25 205.0 L 236.25 222.5 L 221.25 247.5 L 207.5 266.25 L 202.5 276.25 L 203.75 276.25 " stroke="black" fill="none" stroke-width="6.0" stroke-linecap="round" stroke-linejoin="round" />
</svg>