<svg xmlns="http://www.w3.org/2000/svg" width="300" height="300" viewBox="0 0 300 300">
<path d="M 80.0 95.0 L 80.0 93.75 L 78.75 93.75 L 78.75 96.25 L 75.0 110.0 L 66.25 131.25 L 58.75 143.75 L 56.25 143.75 " stroke="black" fill="none" stroke-width="6.0" stroke-linecap="round" stroke-linejoin="round" />
<path d="M 98.75 108.75 L 98.75 110.0 L 98.75 117.5 L 92.5 133.75 L 77.5 156.25 L 65.0 171.25 L 53.75 176.25 " stroke="black" fill="none" stroke-width="6.0" stroke-linecap="round" stroke-linejoin="round" />
<path d="M 88.75 148.75 L 90.0 152.5 L 93.75 167.5 L 93.75 196.25 L 86.25 221.25 L 78.75 237.5 L 67.5 241.25 " stroke="black" fill="none" stroke-width="6.0" stroke-linecap="round" stroke-linejoin="round" />
<path d="M 125.0 116.25 L 123.75 117.5 L 122.5 118.75 L 127.5 118.75 L 141.25 110.0 L 158.75 97.5 L 171.25 86.25 L 168.75 81.25 " stroke="black" fill="none" stroke-width="6.0" stroke-linecap="round" stroke-linejoin="round" />
<path d="M 136.25 88.75 L 136.25 88.75 L 137.5 90.0 L 142.5 95.0 L 153.75 117.5 L 155.0 137.5 L 146.25 150.0 L 135.0 155.0 L 123.75 158.75 L 120.0 158.75 L 123.75 157.5 L 137.5 150.0 L 152.5 140.0 L 166.25 130.0 L 172.5 122.5 " stroke="black" fill="none" stroke-width="6.0" stroke-linecap="round" stroke-linejoin="round" />
<path d="M 130.0 197.5 L 128.75 197.5 L 133.75 195.0 L 150.0 181.25 L 167.5 163.75 L 171.25 156.25 L 162.5 156.25 L 151.25 161.25 L 143.75 166.25 L 140.0 168.75 L 141.25 170.0 L 151.25 171.25 L 162.5 177.5 L 171.25 188.75 L 170.0 202.5 L 160.0 215.0 L 148.75 222.5 L 146.25 222.5 L 151.25 215.0 L 168.75 197.5 L 190.0 176.25 L 202.5 157.5 " stroke="black" fill="none" stroke-width="6.0" stroke-linecap="round" stroke-linejoin="round" />
<path d="M 206.25 95.0 L 201.25 97.5 L 200.0 98.75 L 206.25 100.0 L 220.0 97.5 L 236.25 92.5 L 248.75 85.0 L 248.75 83.75 " stroke="black" fill="none" stroke-width="6.0" stroke-linecap="round" stroke-linejoin="round" />
<path d="M 200.0 132.5 L 200.0 132.5 L 198.75 133.75 L 208.75 130.0 L 231.25 115.0 L 253.75 96.25 L 260.0 87.5 L 256.25 87.5 " stroke="black" fill="none" stroke-width="6.0" stroke-linecap="round" stroke-linejoin="round" />
<path d="M 235.0 107.5 L 235.0 116.25 L 235.0 130.0 L 237.5 152.5 L 238.75 185.0 L 241.25 216.25 L 242.5 228.75 L 243.75 235.0 L 243.75 236.25 L 242.5 236.25 L 241.25 236.25 L 237.5 236.25 L 230.0 236.25 L 216.25 235.0 L 195.0 228.75 " stroke="black" fill="none" stroke-width="6.0" stroke-linecap="round" stroke-linejoin="round" />
</svg>