<svg xmlns="http://www.w3.org/2000/svg" width="300" height="300" viewBox="0 0 300 300">
<path d="M 68.75 162.5 L 66.25 163.75 L 61.25 165.0 L 66.25 163.75 L 80.0 156.25 L 96.25 148.75 L 108.75 140.0 L 108.75 137.5 " stroke="black" fill="none" stroke-width="6.0" stroke-linecap="round" stroke-linejoin="round" />
<path d="M 81.25 131.25 L 81.25 131.25 L 80.0 131.25 L 80.0 132.5 L 82.5 143.75 L 88.75 186.25 L 88.75 208.75 L 86.25 213.75 L 86.25 211.25 L 91.25 205.0 L 105.0 191.25 L 123.75 171.25 L 137.5 148.75 L 140.0 143.75 " stroke="black" fill="none" stroke-width="6.0" stroke-linecap="round" stroke-linejoin="round" />
<path d="M 150.0 87.5 L 147.5 87.5 L 146.25 87.5 L 145.0 93.75 L 146.25 105.0 L 156.25 112.5 L 173.75 110.0 L 195.0 96.25 L 207.5 85.0 L 210.0 80.0 L 210.0 81.25 L 210.0 97.5 L 210.0 138.75 L 211.25 201.25 L 216.25 246.25 L 218.75 258.75 L 220.0 261.25 L 218.75 261.25 L 210.0 256.25 L 197.5 246.25 L 181.25 227.5 L 176.25 222.5 " stroke="black" fill="none" stroke-width="6.0" stroke-linecap="round" stroke-linejoin="round" />
<path d="M 157.5 155.0 L 157.5 155.0 L 157.5 155.0 L 160.0 155.0 L 172.5 156.25 L 191.25 160.0 L 200.0 162.5 " stroke="black" fill="none" stroke-width="6.0" stroke-linecap="round" stroke-linejoin="round" />
<path d="M 158.75 190.0 L 155.0 192.5 L 152.5 195.0 L 163.75 195.0 L 191.25 185.0 L 205.0 177.5 " stroke="black" fill="none" stroke-width="6.0" stroke-linecap="round" stroke-linejoin="round" />
</svg>