<svg xmlns="http://www.w3.org/2000/svg" width="300" height="300" viewBox="0 0 300 300">
<path d="M 87.5 101.25 L 87.5 101.25 L 86.25 102.5 L 83.75 115.0 L 77.5 136.25 L 73.75 151.25 L 70.0 157.5 L 70.0 157.5 L 72.5 153.75 L 85.0 143.75 L 96.25 136.25 L 102.5 132.5 L 106.25 135.0 L 102.5 148.75 L 93.75 166.25 L 86.25 180.0 L 82.5 186.25 L 85.0 183.75 L 95.0 173.75 L 106.25 163.75 L 116.25 158.75 L 121.25 158.75 L 120.0 171.25 L 111.25 192.5 L 100.0 211.25 L 91.25 222.5 " stroke="black" fill="none" stroke-width="6.0" stroke-linecap="round" stroke-linejoin="round" />
<path d="M 56.25 195.0 L 56.25 196.25 L 56.25 197.5 L 61.25 203.75 L 71.25 222.5 L 81.25 238.75 L 85.0 246.25 L 85.0 246.25 " stroke="black" fill="none" stroke-width="6.0" stroke-linecap="round" stroke-linejoin="round" />
<path d="M 87.5 195.0 L 88.75 196.25 L 90.0 198.75 L 93.75 207.5 L 98.75 221.25 L 100.0 230.0 L 100.0 230.0 " stroke="black" fill="none" stroke-width="6.0" stroke-linecap="round" stroke-linejoin="round" />
<path d="M 101.25 190.0 L 102.5 191.25 L 105.0 196.25 L 112.5 207.5 L 121.25 218.75 " stroke="black" fill="none" stroke-width="6.0" stroke-linecap="round" stroke-linejoin="round" />
<path d="M 147.5 113.75 L 147.5 113.75 L 147.5 113.75 L 150.0 112.5 L 165.0 108.75 L 183.75 105.0 L 192.5 103.75 L 192.5 110.0 L 173.75 137.5 L 153.75 160.0 L 137.5 176.25 L 123.75 181.25 L 122.5 181.25 " stroke="black" fill="none" stroke-width="6.0" stroke-linecap="round" stroke-linejoin="round" />
<path d="M 137.5 137.5 L 138.75 137.5 L 142.5 137.5 L 152.5 138.75 L 166.25 143.75 L 197.5 153.75 L 213.75 160.0 L 218.75 165.0 L 218.75 167.5 " stroke="black" fill="none" stroke-width="6.0" stroke-linecap="round" stroke-linejoin="round" />
<path d="M 143.75 208.75 L 143.75 208.75 L 145.0 210.0 L 158.75 202.5 L 186.25 187.5 L 202.5 175.0 L 205.0 168.75 L 201.25 168.75 " stroke="black" fill="none" stroke-width="6.0" stroke-linecap="round" stroke-linejoin="round" />
<path d="M 168.75 170.0 L 168.75 170.0 L 172.5 173.75 L 177.5 183.75 L 178.75 200.0 L 176.25 216.25 L 167.5 225.0 L 157.5 228.75 L 148.75 230.0 L 146.25 230.0 L 146.25 228.75 L 150.0 227.5 L 162.5 225.0 L 182.5 222.5 L 208.75 222.5 L 228.75 222.5 L 242.5 225.0 L 246.25 226.25 L 245.0 226.25 L 243.75 226.25 " stroke="black" fill="none" stroke-width="6.0" stroke-linecap="round" stroke-linejoin="round" />
</svg>