<svg xmlns="http://www.w3.org/2000/svg" width="300" height="300" viewBox="0 0 300 300">
<path d="M 71.25 118.75 L 70.0 118.75 L 66.25 118.75 L 63.75 118.75 L 66.25 118.75 L 80.0 118.75 L 95.0 118.75 L 106.25 118.75 L 108.75 118.75 " stroke="black" fill="none" stroke-width="6.0" stroke-linecap="round" stroke-linejoin="round" />
<path d="M 60.0 165.0 L 57.5 167.5 L 55.0 168.75 L 58.75 168.75 L 73.75 162.5 L 88.75 155.0 L 101.25 148.75 L 101.25 147.5 " stroke="black" fill="none" stroke-width="6.0" stroke-linecap="round" stroke-linejoin="round" />
<path d="M 60.0 226.25 L 58.75 227.5 L 55.0 231.25 L 57.5 228.75 L 73.75 213.75 L 91.25 191.25 L 98.75 177.5 " stroke="black" fill="none" stroke-width="6.0" stroke-linecap="round" stroke-linejoin="round" />
<path d="M 142.5 85.0 L 142.5 85.0 L 138.75 87.5 L 132.5 97.5 L 128.75 115.0 L 128.75 125.0 L 140.0 125.0 L 155.0 115.0 L 170.0 102.5 L 182.5 93.75 L 186.25 91.25 L 183.75 95.0 L 170.0 113.75 L 153.75 141.25 L 135.0 175.0 L 118.75 206.25 L 111.25 220.0 L 110.0 225.0 L 112.5 225.0 L 117.5 226.25 L 126.25 226.25 L 141.25 227.5 L 158.75 228.75 L 180.0 231.25 L 198.75 233.75 L 207.5 233.75 L 207.5 228.75 " stroke="black" fill="none" stroke-width="6.0" stroke-linecap="round" stroke-linejoin="round" />
<path d="M 145.0 148.75 L 142.5 147.5 L 143.75 146.25 L 158.75 143.75 L 183.75 143.75 L 203.75 153.75 L 208.75 176.25 L 198.75 201.25 L 182.5 220.0 L 166.25 233.75 L 150.0 238.75 L 143.75 238.75 " stroke="black" fill="none" stroke-width="6.0" stroke-linecap="round" stroke-linejoin="round" />
<path d="M 96.25 196.25 L 93.75 196.25 L 92.5 195.0 L 105.0 195.0 L 136.25 190.0 L 170.0 181.25 L 196.25 175.0 L 203.75 171.25 L 201.25 171.25 L 200.0 171.25 " stroke="black" fill="none" stroke-width="6.0" stroke-linecap="round" stroke-linejoin="round" />
<path d="M 165.0 155.0 L 165.0 156.25 L 162.5 158.75 L 157.5 177.5 L 152.5 212.5 L 147.5 235.0 " stroke="black" fill="none" stroke-width="6.0" stroke-linecap="round" stroke-linejoin="round" />
</svg>