<svg xmlns="http://www.w3.org/2000/svg" width="300" height="300" viewBox="0 0 300 300">
<path d="M 90.0 105.0 L 90.0 105.0 L 90.0 105.0 L 88.75 105.0 L 88.75 108.75 L 88.75 125.0 L 86.25 143.75 L 83.75 152.5 L 81.25 153.75 L 82.5 151.25 L 87.5 147.5 L 96.25 142.5 L 103.75 140.0 L 108.75 140.0 L 110.0 147.5 L 105.0 161.25 L 96.25 176.25 L 91.25 186.25 L 88.75 190.0 L 92.5 187.5 L 101.25 181.25 L 112.5 173.75 L 120.0 171.25 L 122.5 176.25 L 118.75 190.0 L 110.0 207.5 L 100.0 222.5 L 91.25 230.0 L 88.75 230.0 " stroke="black" fill="none" stroke-width="6.0" stroke-linecap="round" stroke-linejoin="round" />
<path d="M 56.25 208.75 L 55.0 208.75 L 51.25 208.75 L 50.0 208.75 L 55.0 211.25 L 65.0 221.25 L 76.25 236.25 L 83.75 247.5 L 86.25 251.25 L 86.25 251.25 " stroke="black" fill="none" stroke-width="6.0" stroke-linecap="round" stroke-linejoin="round" />
<path d="M 86.25 202.5 L 83.75 202.5 L 83.75 202.5 L 86.25 208.75 L 92.5 218.75 L 98.75 228.75 L 101.25 236.25 L 101.25 237.5 " stroke="black" fill="none" stroke-width="6.0" stroke-linecap="round" stroke-linejoin="round" />
<path d="M 100.0 200.0 L 100.0 200.0 L 98.75 200.0 L 100.0 201.25 L 107.5 212.5 L 120.0 227.5 L 125.0 233.75 " stroke="black" fill="none" stroke-width="6.0" stroke-linecap="round" stroke-linejoin="round" />
<path d="M 148.75 102.5 L 148.75 102.5 L 147.5 102.5 L 147.5 103.75 L 147.5 108.75 L 150.0 116.25 L 157.5 120.0 L 168.75 120.0 L 185.0 113.75 L 198.75 106.25 L 207.5 102.5 L 208.75 102.5 L 208.75 106.25 L 208.75 120.0 L 208.75 142.5 L 212.5 173.75 L 215.0 203.75 L 217.5 222.5 L 218.75 233.75 L 218.75 240.0 L 218.75 241.25 L 217.5 241.25 L 213.75 240.0 L 207.5 236.25 L 197.5 232.5 L 185.0 228.75 " stroke="black" fill="none" stroke-width="6.0" stroke-linecap="round" stroke-linejoin="round" />
<path d="M 155.0 171.25 L 153.75 171.25 L 152.5 171.25 L 155.0 175.0 L 168.75 182.5 L 185.0 191.25 L 188.75 193.75 " stroke="black" fill="none" stroke-width="6.0" stroke-linecap="round" stroke-linejoin="round" />
</svg>