<svg xmlns="http://www.w3.org/2000/svg" width="300" height="300" viewBox="0 0 300 300">
<path d="M 91.25 90.0 L 91.25 88.75 L 91.25 86.25 L 93.75 86.25 L 96.25 88.75 L 98.75 101.25 L 98.75 117.5 L 93.75 132.5 L 86.25 142.5 L 80.0 146.25 L 78.75 147.5 L 85.0 145.0 L 96.25 140.0 L 108.75 135.0 L 116.25 133.75 L 116.25 141.25 L 105.0 156.25 L 95.0 171.25 L 87.5 181.25 L 85.0 183.75 L 90.0 182.5 L 100.0 175.0 L 111.25 167.5 L 122.5 163.75 L 126.25 167.5 L 123.75 181.25 L 111.25 197.5 L 100.0 208.75 L 91.25 216.25 L 86.25 217.5 " stroke="black" fill="none" stroke-width="6.0" stroke-linecap="round" stroke-linejoin="round" />
<path d="M 68.75 202.5 L 67.5 202.5 L 66.25 202.5 L 65.0 202.5 L 70.0 206.25 L 77.5 215.0 L 85.0 223.75 L 88.75 228.75 L 90.0 228.75 " stroke="black" fill="none" stroke-width="6.0" stroke-linecap="round" stroke-linejoin="round" />
<path d="M 91.25 197.5 L 91.25 197.5 L 90.0 196.25 L 90.0 196.25 L 92.5 207.5 L 96.25 218.75 L 98.75 227.5 L 98.75 228.75 " stroke="black" fill="none" stroke-width="6.0" stroke-linecap="round" stroke-linejoin="round" />
<path d="M 107.5 187.5 L 107.5 187.5 L 107.5 186.25 L 108.75 187.5 L 112.5 197.5 L 116.25 207.5 L 118.75 210.0 " stroke="black" fill="none" stroke-width="6.0" stroke-linecap="round" stroke-linejoin="round" />
<path d="M 161.25 91.25 L 161.25 92.5 L 160.0 96.25 L 160.0 103.75 L 162.5 111.25 L 172.5 113.75 L 187.5 110.0 L 201.25 100.0 L 212.5 92.5 L 218.75 88.75 L 222.5 91.25 L 223.75 110.0 L 223.75 151.25 L 223.75 198.75 L 225.0 238.75 L 225.0 257.5 L 223.75 262.5 L 221.25 262.5 L 217.5 258.75 L 211.25 250.0 L 203.75 238.75 L 201.25 235.0 " stroke="black" fill="none" stroke-width="6.0" stroke-linecap="round" stroke-linejoin="round" />
<path d="M 161.25 165.0 L 160.0 165.0 L 158.75 167.5 L 166.25 173.75 L 176.25 181.25 L 191.25 191.25 " stroke="black" fill="none" stroke-width="6.0" stroke-linecap="round" stroke-linejoin="round" />
</svg>