<svg xmlns="http://www.w3.org/2000/svg" width="300" height="300" viewBox="0 0 300 300">
<path d="M 67.5 83.75 L 67.5 83.75 L 65.0 83.75 L 63.75 83.75 L 71.25 81.25 L 88.75 75.0 L 110.0 62.5 L 127.5 51.25 L 131.25 46.25 L 118.75 47.5 L 116.25 48.75 " stroke="black" fill="none" stroke-width="6.0" stroke-linecap="round" stroke-linejoin="round" />
<path d="M 81.25 70.0 L 78.75 71.25 L 76.25 72.5 L 75.0 76.25 L 77.5 85.0 L 82.5 96.25 L 87.5 100.0 L 87.5 100.0 " stroke="black" fill="none" stroke-width="6.0" stroke-linecap="round" stroke-linejoin="round" />
<path d="M 107.5 57.5 L 107.5 58.75 L 106.25 61.25 L 105.0 70.0 L 101.25 85.0 L 96.25 97.5 L 95.0 100.0 " stroke="black" fill="none" stroke-width="6.0" stroke-linecap="round" stroke-linejoin="round" />
<path d="M 73.75 107.5 L 71.25 107.5 L 67.5 107.5 L 65.0 110.0 L 65.0 112.5 L 65.0 117.5 L 70.0 122.5 L 77.5 123.75 L 87.5 120.0 L 98.75 108.75 L 113.75 96.25 L 125.0 86.25 L 128.75 82.5 L 128.75 82.5 L 127.5 83.75 L 125.0 88.75 L 123.75 97.5 L 123.75 110.0 L 126.25 130.0 L 128.75 147.5 L 131.25 155.0 L 131.25 156.25 L 131.25 155.0 L 131.25 152.5 L 127.5 150.0 L 121.25 147.5 " stroke="black" fill="none" stroke-width="6.0" stroke-linecap="round" stroke-linejoin="round" />
<path d="M 83.75 141.25 L 82.5 141.25 L 80.0 141.25 L 80.0 141.25 L 82.5 145.0 L 88.75 153.75 L 93.75 158.75 L 96.25 162.5 L 96.25 161.25 L 93.75 156.25 L 88.75 151.25 L 85.0 146.25 L 81.25 141.25 L 80.0 138.75 L 83.75 135.0 L 93.75 131.25 L 106.25 128.75 L 112.5 130.0 L 111.25 137.5 L 103.75 147.5 L 96.25 155.0 L 92.5 156.25 L 92.5 153.75 " stroke="black" fill="none" stroke-width="6.0" stroke-linecap="round" stroke-linejoin="round" />
<path d="M 162.5 55.0 L 162.5 55.0 L 162.5 53.75 L 162.5 52.5 L 163.75 58.75 L 166.25 67.5 L 168.75 72.5 L 173.75 73.75 L 182.5 66.25 L 191.25 55.0 L 195.0 48.75 L 195.0 48.75 L 191.25 58.75 L 183.75 80.0 L 172.5 108.75 L 158.75 141.25 L 150.0 155.0 L 146.25 155.0 L 145.0 151.25 L 145.0 146.25 " stroke="black" fill="none" stroke-width="6.0" stroke-linecap="round" stroke-linejoin="round" />
<path d="M 150.0 97.5 L 150.0 96.25 L 150.0 92.5 L 150.0 90.0 L 150.0 90.0 L 152.5 91.25 L 158.75 95.0 L 167.5 102.5 L 182.5 113.75 L 201.25 126.25 L 218.75 133.75 L 232.5 135.0 L 233.75 133.75 " stroke="black" fill="none" stroke-width="6.0" stroke-linecap="round" stroke-linejoin="round" />
<path d="M 132.5 161.25 L 128.75 158.75 L 126.25 157.5 L 123.75 160.0 L 125.0 181.25 L 128.75 206.25 L 132.5 221.25 L 133.75 223.75 L 133.75 217.5 " stroke="black" fill="none" stroke-width="6.0" stroke-linecap="round" stroke-linejoin="round" />
<path d="M 125.0 172.5 L 121.25 172.5 L 117.5 172.5 L 116.25 172.5 L 127.5 168.75 L 143.75 160.0 L 160.0 150.0 L 171.25 143.75 L 173.75 142.5 L 166.25 147.5 L 158.75 152.5 " stroke="black" fill="none" stroke-width="6.0" stroke-linecap="round" stroke-linejoin="round" />
<path d="M 136.25 183.75 L 135.0 186.25 L 135.0 186.25 L 140.0 185.0 L 151.25 177.5 L 162.5 168.75 L 170.0 162.5 L 167.5 162.5 L 161.25 168.75 " stroke="black" fill="none" stroke-width="6.0" stroke-linecap="round" stroke-linejoin="round" />
<path d="M 138.75 200.0 L 135.0 203.75 L 135.0 203.75 L 142.5 201.25 L 153.75 191.25 L 166.25 177.5 L 178.75 161.25 L 183.75 150.0 L 181.25 146.25 L 176.25 146.25 L 171.25 147.5 L 168.75 155.0 L 166.25 172.5 L 165.0 196.25 L 168.75 211.25 L 178.75 216.25 L 191.25 211.25 L 202.5 205.0 L 210.0 203.75 L 212.5 211.25 L 207.5 227.5 L 197.5 247.5 L 185.0 262.5 L 175.0 267.5 L 167.5 265.0 L 165.0 261.25 " stroke="black" fill="none" stroke-width="6.0" stroke-linecap="round" stroke-linejoin="round" />
<path d="M 98.75 236.25 L 98.75 236.25 L 97.5 236.25 L 97.5 236.25 L 100.0 238.75 L 105.0 247.5 L 110.0 256.25 L 111.25 263.75 L 111.25 265.0 " stroke="black" fill="none" stroke-width="6.0" stroke-linecap="round" stroke-linejoin="round" />
<path d="M 118.75 231.25 L 117.5 231.25 L 117.5 233.75 L 120.0 238.75 L 128.75 247.5 L 136.25 253.75 L 141.25 258.75 L 142.5 258.75 L 143.75 257.5 " stroke="black" fill="none" stroke-width="6.0" stroke-linecap="round" stroke-linejoin="round" />
<path d="M 150.0 230.0 L 150.0 228.75 L 150.0 227.5 L 151.25 227.5 L 153.75 233.75 L 157.5 245.0 L 160.0 255.0 L 161.25 258.75 " stroke="black" fill="none" stroke-width="6.0" stroke-linecap="round" stroke-linejoin="round" />
<path d="M 188.75 225.0 L 188.75 223.75 L 188.75 223.75 L 188.75 225.0 L 195.0 233.75 L 202.5 246.25 L 208.75 256.25 L 211.25 260.0 L 211.25 260.0 " stroke="black" fill="none" stroke-width="6.0" stroke-linecap="round" stroke-linejoin="round" />
</svg>