<svg xmlns="http://www.w3.org/2000/svg" width="300" height="300" viewBox="0 0 300 300">
<path d="M 81.25 76.25 L 77.5 76.25 L 75.0 76.25 L 75.0 76.25 L 86.25 73.75 L 107.5 68.75 L 133.75 60.0 L 148.75 52.5 L 151.25 50.0 L 142.5 51.25 " stroke="black" fill="none" stroke-width="6.0" stroke-linecap="round" stroke-linejoin="round" />
<path d="M 86.25 70.0 L 83.75 71.25 L 81.25 73.75 L 81.25 81.25 L 83.75 91.25 L 86.25 96.25 L 87.5 96.25 " stroke="black" fill="none" stroke-width="6.0" stroke-linecap="round" stroke-linejoin="round" />
<path d="M 112.5 58.75 L 112.5 58.75 L 112.5 60.0 L 110.0 70.0 L 102.5 86.25 L 95.0 97.5 " stroke="black" fill="none" stroke-width="6.0" stroke-linecap="round" stroke-linejoin="round" />
<path d="M 77.5 95.0 L 77.5 95.0 L 77.5 96.25 L 77.5 101.25 L 76.25 110.0 L 77.5 120.0 L 82.5 121.25 L 93.75 117.5 L 111.25 106.25 L 132.5 96.25 L 146.25 88.75 L 151.25 87.5 L 152.5 88.75 L 150.0 98.75 L 147.5 117.5 L 145.0 138.75 L 145.0 152.5 L 145.0 153.75 L 145.0 153.75 L 143.75 151.25 L 137.5 148.75 L 126.25 147.5 L 122.5 146.25 " stroke="black" fill="none" stroke-width="6.0" stroke-linecap="round" stroke-linejoin="round" />
<path d="M 83.75 130.0 L 82.5 130.0 L 82.5 130.0 L 82.5 136.25 L 86.25 145.0 L 88.75 151.25 L 91.25 153.75 L 91.25 152.5 L 90.0 146.25 L 88.75 140.0 L 88.75 135.0 L 90.0 130.0 L 97.5 126.25 L 108.75 125.0 L 116.25 126.25 L 117.5 131.25 L 107.5 138.75 L 96.25 146.25 L 90.0 150.0 L 91.25 147.5 L 103.75 135.0 L 107.5 131.25 " stroke="black" fill="none" stroke-width="6.0" stroke-linecap="round" stroke-linejoin="round" />
<path d="M 181.25 52.5 L 180.0 51.25 L 178.75 50.0 L 177.5 51.25 L 175.0 65.0 L 173.75 82.5 L 173.75 90.0 L 177.5 91.25 L 186.25 85.0 L 197.5 75.0 L 206.25 65.0 L 210.0 61.25 L 206.25 62.5 " stroke="black" fill="none" stroke-width="6.0" stroke-linecap="round" stroke-linejoin="round" />
<path d="M 192.5 81.25 L 191.25 81.25 L 191.25 85.0 L 188.75 93.75 L 181.25 111.25 L 170.0 130.0 L 157.5 141.25 L 147.5 142.5 L 143.75 137.5 L 143.75 132.5 " stroke="black" fill="none" stroke-width="6.0" stroke-linecap="round" stroke-linejoin="round" />
<path d="M 158.75 105.0 L 160.0 105.0 L 163.75 105.0 L 171.25 111.25 L 185.0 122.5 L 201.25 133.75 L 213.75 140.0 L 220.0 143.75 L 220.0 145.0 " stroke="black" fill="none" stroke-width="6.0" stroke-linecap="round" stroke-linejoin="round" />
<path d="M 115.0 175.0 L 115.0 171.25 L 111.25 167.5 L 111.25 166.25 L 111.25 166.25 L 112.5 177.5 L 115.0 197.5 L 116.25 215.0 L 116.25 225.0 L 115.0 225.0 " stroke="black" fill="none" stroke-width="6.0" stroke-linecap="round" stroke-linejoin="round" />
<path d="M 121.25 172.5 L 121.25 172.5 L 122.5 171.25 L 136.25 167.5 L 158.75 160.0 L 182.5 152.5 L 193.75 147.5 L 192.5 147.5 L 185.0 151.25 " stroke="black" fill="none" stroke-width="6.0" stroke-linecap="round" stroke-linejoin="round" />
<path d="M 130.0 195.0 L 130.0 195.0 L 130.0 196.25 L 133.75 196.25 L 147.5 190.0 L 165.0 181.25 L 178.75 171.25 L 181.25 168.75 L 170.0 175.0 L 162.5 178.75 " stroke="black" fill="none" stroke-width="6.0" stroke-linecap="round" stroke-linejoin="round" />
<path d="M 135.0 210.0 L 133.75 211.25 L 135.0 212.5 L 143.75 210.0 L 160.0 200.0 L 178.75 187.5 L 186.25 175.0 L 186.25 173.75 " stroke="black" fill="none" stroke-width="6.0" stroke-linecap="round" stroke-linejoin="round" />
<path d="M 168.75 158.75 L 167.5 158.75 L 166.25 158.75 L 165.0 167.5 L 162.5 193.75 L 160.0 218.75 L 160.0 227.5 L 162.5 227.5 L 170.0 223.75 L 182.5 217.5 L 196.25 212.5 L 206.25 210.0 L 208.75 212.5 L 206.25 223.75 L 197.5 242.5 L 187.5 257.5 L 181.25 262.5 L 172.5 263.75 L 165.0 262.5 " stroke="black" fill="none" stroke-width="6.0" stroke-linecap="round" stroke-linejoin="round" />
<path d="M 90.0 227.5 L 88.75 227.5 L 87.5 228.75 L 86.25 230.0 L 88.75 236.25 L 95.0 248.75 L 101.25 260.0 L 103.75 266.25 L 103.75 266.25 " stroke="black" fill="none" stroke-width="6.0" stroke-linecap="round" stroke-linejoin="round" />
<path d="M 117.5 236.25 L 118.75 236.25 L 120.0 236.25 L 125.0 241.25 L 132.5 250.0 L 140.0 256.25 L 142.5 257.5 " stroke="black" fill="none" stroke-width="6.0" stroke-linecap="round" stroke-linejoin="round" />
<path d="M 151.25 233.75 L 151.25 233.75 L 151.25 233.75 L 153.75 238.75 L 160.0 247.5 L 166.25 253.75 L 167.5 253.75 " stroke="black" fill="none" stroke-width="6.0" stroke-linecap="round" stroke-linejoin="round" />
<path d="M 188.75 230.0 L 188.75 228.75 L 190.0 227.5 L 192.5 228.75 L 200.0 238.75 L 208.75 252.5 L 212.5 260.0 " stroke="black" fill="none" stroke-width="6.0" stroke-linecap="round" stroke-linejoin="round" />
</svg>