<svg xmlns="http://www.w3.org/2000/svg" width="300" height="300" viewBox="0 0 300 300">
<path d="M 100.0 125.0 L 100.0 125.0 L 100.0 125.0 L 102.5 131.25 L 112.5 145.0 L 126.25 157.5 L 132.5 161.25 " stroke="black" fill="none" stroke-width="6.0" stroke-linecap="round" stroke-linejoin="round" />
<path d="M 211.25 95.0 L 211.25 95.0 L 210.0 97.5 L 203.75 110.0 L 188.75 135.0 L 171.25 155.0 L 156.25 161.25 L 150.0 161.25 " stroke="black" fill="none" stroke-width="6.0" stroke-linecap="round" stroke-linejoin="round" />
<path d="M 147.5 81.25 L 147.5 81.25 L 147.5 81.25 L 148.75 90.0 L 150.0 128.75 L 147.5 168.75 L 128.75 216.25 L 111.25 237.5 L 96.25 248.75 L 90.0 247.5 L 87.5 242.5 " stroke="black" fill="none" stroke-width="6.0" stroke-linecap="round" stroke-linejoin="round" />
<path d="M 141.25 187.5 L 141.25 187.5 L 147.5 192.5 L 163.75 206.25 L 188.75 225.0 L 210.0 242.5 L 226.25 252.5 L 236.25 258.75 L 240.0 262.5 " stroke="black" fill="none" stroke-width="6.0" stroke-linecap="round" stroke-linejoin="round" />
</svg>