<svg xmlns="http://www.w3.org/2000/svg" width="300" height="300" viewBox="0 0 300 300">
<path d="M 111.25 97.5 L 111.25 98.75 L 111.25 100.0 L 111.25 101.25 L 116.25 110.0 L 123.75 125.0 L 130.0 138.75 L 130.0 141.25 " stroke="black" fill="none" stroke-width="6.0" stroke-linecap="round" stroke-linejoin="round" />
<path d="M 140.0 93.75 L 140.0 95.0 L 140.0 100.0 L 142.5 112.5 L 146.25 130.0 L 147.5 140.0 L 147.5 141.25 " stroke="black" fill="none" stroke-width="6.0" stroke-linecap="round" stroke-linejoin="round" />
<path d="M 156.25 85.0 L 156.25 83.75 L 158.75 82.5 L 165.0 78.75 L 177.5 75.0 L 190.0 71.25 L 196.25 68.75 L 196.25 68.75 " stroke="black" fill="none" stroke-width="6.0" stroke-linecap="round" stroke-linejoin="round" />
<path d="M 160.0 98.75 L 158.75 100.0 L 158.75 101.25 L 166.25 100.0 L 178.75 95.0 L 191.25 87.5 L 200.0 81.25 L 200.0 80.0 " stroke="black" fill="none" stroke-width="6.0" stroke-linecap="round" stroke-linejoin="round" />
<path d="M 162.5 116.25 L 162.5 117.5 L 161.25 120.0 L 165.0 120.0 L 175.0 113.75 L 187.5 103.75 L 195.0 92.5 L 196.25 87.5 " stroke="black" fill="none" stroke-width="6.0" stroke-linecap="round" stroke-linejoin="round" />
<path d="M 180.0 71.25 L 180.0 71.25 L 180.0 70.0 L 180.0 75.0 L 181.25 90.0 L 181.25 111.25 L 172.5 131.25 L 161.25 140.0 " stroke="black" fill="none" stroke-width="6.0" stroke-linecap="round" stroke-linejoin="round" />
<path d="M 96.25 157.5 L 90.0 162.5 L 88.75 165.0 L 98.75 163.75 L 123.75 156.25 L 161.25 141.25 L 200.0 122.5 L 218.75 106.25 L 222.5 98.75 L 216.25 97.5 " stroke="black" fill="none" stroke-width="6.0" stroke-linecap="round" stroke-linejoin="round" />
<path d="M 142.5 163.75 L 132.5 180.0 L 112.5 208.75 L 98.75 225.0 L 90.0 230.0 L 87.5 225.0 L 90.0 210.0 L 92.5 202.5 " stroke="black" fill="none" stroke-width="6.0" stroke-linecap="round" stroke-linejoin="round" />
<path d="M 152.5 137.5 L 158.75 137.5 L 178.75 140.0 L 202.5 151.25 L 216.25 167.5 L 231.25 180.0 L 242.5 186.25 L 246.25 187.5 L 245.0 187.5 L 235.0 190.0 L 225.0 191.25 " stroke="black" fill="none" stroke-width="6.0" stroke-linecap="round" stroke-linejoin="round" />
<path d="M 145.0 185.0 L 138.75 187.5 L 137.5 187.5 L 145.0 186.25 L 162.5 180.0 L 181.25 172.5 L 193.75 166.25 L 193.75 165.0 " stroke="black" fill="none" stroke-width="6.0" stroke-linecap="round" stroke-linejoin="round" />
<path d="M 132.5 218.75 L 132.5 220.0 L 132.5 223.75 L 145.0 220.0 L 170.0 206.25 L 196.25 191.25 L 207.5 178.75 L 207.5 171.25 L 198.75 170.0 L 196.25 170.0 " stroke="black" fill="none" stroke-width="6.0" stroke-linecap="round" stroke-linejoin="round" />
<path d="M 171.25 158.75 L 170.0 158.75 L 167.5 157.5 L 166.25 156.25 L 166.25 155.0 L 166.25 162.5 L 170.0 192.5 L 175.0 240.0 L 177.5 271.25 L 177.5 283.75 L 176.25 287.5 L 171.25 287.5 L 163.75 282.5 L 155.0 277.5 " stroke="black" fill="none" stroke-width="6.0" stroke-linecap="round" stroke-linejoin="round" />
</svg>