<svg xmlns="http://www.w3.org/2000/svg" width="300" height="300" viewBox="0 0 300 300">
<path d="M 66.25 138.75 L 66.25 138.75 L 65.0 138.75 L 73.75 136.25 L 95.0 127.5 L 120.0 115.0 L 132.5 106.25 L 130.0 103.75 " stroke="black" fill="none" stroke-width="6.0" stroke-linecap="round" stroke-linejoin="round" />
<path d="M 102.5 97.5 L 101.25 101.25 L 101.25 108.75 L 101.25 140.0 L 102.5 191.25 L 103.75 232.5 L 103.75 248.75 L 103.75 250.0 L 103.75 248.75 L 101.25 243.75 L 96.25 235.0 L 90.0 225.0 L 78.75 215.0 L 68.75 210.0 L 61.25 208.75 L 58.75 208.75 L 60.0 210.0 L 72.5 206.25 L 90.0 193.75 L 110.0 176.25 L 121.25 163.75 " stroke="black" fill="none" stroke-width="6.0" stroke-linecap="round" stroke-linejoin="round" />
<path d="M 153.75 130.0 L 153.75 130.0 L 152.5 130.0 L 158.75 130.0 L 178.75 123.75 L 202.5 111.25 L 215.0 103.75 L 213.75 102.5 " stroke="black" fill="none" stroke-width="6.0" stroke-linecap="round" stroke-linejoin="round" />
<path d="M 143.75 190.0 L 143.75 191.25 L 142.5 192.5 L 151.25 187.5 L 176.25 168.75 L 203.75 146.25 L 212.5 133.75 L 212.5 130.0 " stroke="black" fill="none" stroke-width="6.0" stroke-linecap="round" stroke-linejoin="round" />
<path d="M 178.75 78.75 L 177.5 86.25 L 177.5 106.25 L 177.5 143.75 L 173.75 180.0 L 163.75 208.75 L 148.75 227.5 L 136.25 238.75 L 123.75 238.75 L 122.5 237.5 " stroke="black" fill="none" stroke-width="6.0" stroke-linecap="round" stroke-linejoin="round" />
<path d="M 182.5 166.25 L 186.25 168.75 L 193.75 178.75 L 206.25 195.0 L 226.25 213.75 L 248.75 227.5 L 266.25 238.75 L 280.0 246.25 L 291.25 251.25 L 293.75 255.0 " stroke="black" fill="none" stroke-width="6.0" stroke-linecap="round" stroke-linejoin="round" />
</svg>