<svg xmlns="http://www.w3.org/2000/svg" width="300" height="300" viewBox="0 0 300 300">
<path d="M 145.0 80.0 L 145.0 78.75 L 145.0 78.75 L 140.0 83.75 L 125.0 106.25 L 100.0 141.25 L 81.25 160.0 L 70.0 165.0 L 65.0 161.25 L 65.0 158.75 " stroke="black" fill="none" stroke-width="6.0" stroke-linecap="round" stroke-linejoin="round" />
<path d="M 128.75 85.0 L 130.0 85.0 L 135.0 83.75 L 145.0 88.75 L 156.25 100.0 L 182.5 128.75 L 205.0 141.25 L 216.25 143.75 L 216.25 143.75 " stroke="black" fill="none" stroke-width="6.0" stroke-linecap="round" stroke-linejoin="round" />
<path d="M 116.25 152.5 L 116.25 155.0 L 116.25 157.5 L 121.25 157.5 L 136.25 153.75 L 153.75 143.75 L 165.0 135.0 L 163.75 132.5 L 162.5 132.5 " stroke="black" fill="none" stroke-width="6.0" stroke-linecap="round" stroke-linejoin="round" />
<path d="M 96.25 201.25 L 95.0 206.25 L 93.75 208.75 L 103.75 207.5 L 125.0 197.5 L 152.5 180.0 L 170.0 162.5 L 175.0 153.75 L 171.25 151.25 L 160.0 155.0 L 151.25 158.75 L 143.75 161.25 L 138.75 161.25 L 136.25 161.25 L 136.25 160.0 L 136.25 157.5 L 138.75 156.25 L 141.25 157.5 L 143.75 172.5 L 145.0 203.75 L 145.0 240.0 L 146.25 257.5 L 145.0 261.25 L 140.0 261.25 L 133.75 256.25 L 126.25 247.5 " stroke="black" fill="none" stroke-width="6.0" stroke-linecap="round" stroke-linejoin="round" />
<path d="M 146.25 182.5 L 147.5 182.5 L 145.0 187.5 L 136.25 202.5 L 116.25 228.75 L 98.75 250.0 L 90.0 255.0 L 88.75 251.25 L 88.75 250.0 " stroke="black" fill="none" stroke-width="6.0" stroke-linecap="round" stroke-linejoin="round" />
<path d="M 140.0 183.75 L 145.0 180.0 L 148.75 180.0 L 156.25 186.25 L 167.5 200.0 L 185.0 217.5 L 202.5 235.0 L 216.25 243.75 L 230.0 248.75 L 233.75 251.25 L 231.25 251.25 " stroke="black" fill="none" stroke-width="6.0" stroke-linecap="round" stroke-linejoin="round" />
</svg>