<svg xmlns="http://www.w3.org/2000/svg" width="300" height="300" viewBox="0 0 300 300">
<path d="M 118.75 51.25 L 118.75 51.25 L 118.75 52.5 L 120.0 57.5 L 126.25 67.5 L 131.25 77.5 L 135.0 82.5 " stroke="black" fill="none" stroke-width="6.0" stroke-linecap="round" stroke-linejoin="round" />
<path d="M 151.25 42.5 L 151.25 42.5 L 152.5 43.75 L 152.5 48.75 L 152.5 61.25 L 150.0 72.5 L 138.75 87.5 L 125.0 91.25 L 110.0 92.5 L 102.5 93.75 L 103.75 93.75 L 116.25 92.5 L 135.0 87.5 L 151.25 78.75 L 166.25 70.0 L 171.25 63.75 L 162.5 63.75 " stroke="black" fill="none" stroke-width="6.0" stroke-linecap="round" stroke-linejoin="round" />
<path d="M 141.25 80.0 L 138.75 83.75 L 136.25 92.5 L 135.0 105.0 L 135.0 116.25 L 132.5 121.25 L 131.25 121.25 " stroke="black" fill="none" stroke-width="6.0" stroke-linecap="round" stroke-linejoin="round" />
<path d="M 112.5 111.25 L 111.25 111.25 L 111.25 111.25 L 120.0 111.25 L 137.5 106.25 L 155.0 98.75 L 165.0 92.5 L 162.5 92.5 L 151.25 100.0 L 140.0 108.75 L 123.75 121.25 L 105.0 136.25 L 93.75 145.0 L 93.75 145.0 L 106.25 140.0 L 126.25 128.75 L 147.5 116.25 L 161.25 106.25 L 162.5 106.25 L 148.75 123.75 L 128.75 147.5 L 102.5 173.75 L 75.0 202.5 L 57.5 216.25 L 55.0 211.25 L 55.0 208.75 " stroke="black" fill="none" stroke-width="6.0" stroke-linecap="round" stroke-linejoin="round" />
<path d="M 156.25 113.75 L 161.25 113.75 L 173.75 117.5 L 195.0 128.75 L 225.0 148.75 L 231.25 152.5 L 225.0 153.75 L 217.5 155.0 " stroke="black" fill="none" stroke-width="6.0" stroke-linecap="round" stroke-linejoin="round" />
<path d="M 136.25 145.0 L 135.0 145.0 L 133.75 145.0 L 135.0 143.75 L 143.75 143.75 L 155.0 143.75 L 163.75 143.75 L 166.25 143.75 L 161.25 146.25 " stroke="black" fill="none" stroke-width="6.0" stroke-linecap="round" stroke-linejoin="round" />
<path d="M 122.5 166.25 L 120.0 168.75 L 118.75 168.75 L 131.25 167.5 L 150.0 161.25 L 166.25 156.25 L 175.0 153.75 L 172.5 157.5 L 158.75 168.75 L 145.0 182.5 L 132.5 192.5 L 125.0 197.5 L 126.25 196.25 L 140.0 190.0 L 157.5 180.0 L 176.25 168.75 L 188.75 163.75 L 190.0 166.25 L 177.5 182.5 L 161.25 198.75 L 146.25 211.25 L 131.25 218.75 L 121.25 217.5 L 120.0 207.5 L 120.0 195.0 L 122.5 181.25 L 122.5 170.0 L 121.25 170.0 L 118.75 187.5 L 117.5 213.75 L 122.5 241.25 L 135.0 251.25 L 151.25 250.0 L 170.0 235.0 L 187.5 215.0 L 198.75 198.75 L 200.0 192.5 L 193.75 192.5 L 180.0 197.5 L 161.25 206.25 L 145.0 216.25 L 136.25 223.75 L 138.75 225.0 L 150.0 225.0 L 167.5 223.75 L 186.25 222.5 L 202.5 222.5 L 213.75 222.5 L 220.0 222.5 L 221.25 222.5 L 221.25 218.75 " stroke="black" fill="none" stroke-width="6.0" stroke-linecap="round" stroke-linejoin="round" />
</svg>