<svg xmlns="http://www.w3.org/2000/svg" width="300" height="300" viewBox="0 0 300 300">
<path d="M 128.75 66.25 L 128.75 65.0 L 128.75 62.5 L 128.75 63.75 L 133.75 70.0 L 138.75 78.75 L 141.25 85.0 " stroke="black" fill="none" stroke-width="6.0" stroke-linecap="round" stroke-linejoin="round" />
<path d="M 152.5 55.0 L 152.5 55.0 L 153.75 56.25 L 157.5 60.0 L 161.25 66.25 L 163.75 75.0 L 158.75 81.25 L 152.5 86.25 " stroke="black" fill="none" stroke-width="6.0" stroke-linecap="round" stroke-linejoin="round" />
<path d="M 122.5 102.5 L 118.75 105.0 L 116.25 106.25 L 118.75 106.25 L 131.25 102.5 L 146.25 95.0 L 160.0 87.5 L 167.5 83.75 L 163.75 82.5 L 161.25 83.75 " stroke="black" fill="none" stroke-width="6.0" stroke-linecap="round" stroke-linejoin="round" />
<path d="M 143.75 97.5 L 142.5 103.75 L 142.5 115.0 L 142.5 128.75 L 142.5 140.0 L 141.25 143.75 L 137.5 143.75 L 135.0 141.25 " stroke="black" fill="none" stroke-width="6.0" stroke-linecap="round" stroke-linejoin="round" />
<path d="M 125.0 132.5 L 125.0 132.5 L 125.0 132.5 L 126.25 132.5 L 133.75 130.0 L 147.5 122.5 L 162.5 115.0 L 168.75 111.25 L 163.75 113.75 L 152.5 123.75 L 142.5 131.25 " stroke="black" fill="none" stroke-width="6.0" stroke-linecap="round" stroke-linejoin="round" />
<path d="M 93.75 173.75 L 91.25 175.0 L 85.0 181.25 L 87.5 181.25 L 100.0 171.25 L 123.75 156.25 L 152.5 140.0 L 175.0 126.25 L 182.5 122.5 L 175.0 127.5 L 157.5 142.5 L 137.5 165.0 L 108.75 196.25 L 80.0 232.5 L 66.25 246.25 L 62.5 246.25 " stroke="black" fill="none" stroke-width="6.0" stroke-linecap="round" stroke-linejoin="round" />
<path d="M 156.25 146.25 L 161.25 146.25 L 173.75 148.75 L 193.75 156.25 L 212.5 166.25 L 226.25 173.75 L 232.5 177.5 L 231.25 181.25 L 221.25 182.5 " stroke="black" fill="none" stroke-width="6.0" stroke-linecap="round" stroke-linejoin="round" />
<path d="M 148.75 167.5 L 147.5 167.5 L 147.5 167.5 L 147.5 167.5 L 153.75 168.75 L 161.25 168.75 L 163.75 171.25 " stroke="black" fill="none" stroke-width="6.0" stroke-linecap="round" stroke-linejoin="round" />
<path d="M 135.0 195.0 L 133.75 195.0 L 137.5 193.75 L 151.25 187.5 L 170.0 181.25 L 181.25 178.75 L 181.25 181.25 L 170.0 192.5 L 155.0 203.75 L 141.25 213.75 L 128.75 225.0 L 125.0 227.5 L 131.25 223.75 L 146.25 215.0 L 162.5 203.75 L 181.25 195.0 L 191.25 191.25 L 190.0 195.0 L 177.5 208.75 L 161.25 225.0 L 147.5 240.0 L 136.25 247.5 L 131.25 247.5 L 130.0 238.75 L 130.0 236.25 " stroke="black" fill="none" stroke-width="6.0" stroke-linecap="round" stroke-linejoin="round" />
<path d="M 133.75 203.75 L 131.25 203.75 L 127.5 206.25 L 127.5 220.0 L 127.5 242.5 L 132.5 258.75 L 141.25 263.75 L 153.75 260.0 L 171.25 248.75 L 190.0 237.5 L 201.25 227.5 L 203.75 222.5 L 197.5 222.5 L 185.0 227.5 L 170.0 235.0 L 155.0 241.25 L 145.0 246.25 L 143.75 247.5 L 145.0 247.5 L 148.75 245.0 L 151.25 243.75 L 153.75 242.5 L 155.0 241.25 L 156.25 241.25 L 156.25 241.25 L 156.25 241.25 L 156.25 241.25 L 156.25 241.25 L 158.75 241.25 L 167.5 241.25 L 186.25 245.0 L 210.0 251.25 L 232.5 255.0 L 246.25 258.75 " stroke="black" fill="none" stroke-width="6.0" stroke-linecap="round" stroke-linejoin="round" />
</svg>