<svg xmlns="http://www.w3.org/2000/svg" width="300" height="300" viewBox="0 0 300 300">
<path d="M 71.25 111.25 L 70.0 112.5 L 65.0 113.75 L 66.25 115.0 L 75.0 115.0 L 86.25 112.5 L 95.0 108.75 L 100.0 106.25 L 101.25 105.0 " stroke="black" fill="none" stroke-width="6.0" stroke-linecap="round" stroke-linejoin="round" />
<path d="M 72.5 163.75 L 70.0 167.5 L 67.5 170.0 L 71.25 168.75 L 80.0 163.75 L 88.75 157.5 L 95.0 151.25 L 97.5 148.75 L 97.5 148.75 " stroke="black" fill="none" stroke-width="6.0" stroke-linecap="round" stroke-linejoin="round" />
<path d="M 71.25 232.5 L 70.0 235.0 L 65.0 242.5 L 65.0 243.75 L 75.0 237.5 L 87.5 222.5 L 98.75 203.75 " stroke="black" fill="none" stroke-width="6.0" stroke-linecap="round" stroke-linejoin="round" />
<path d="M 117.5 86.25 L 115.0 87.5 L 108.75 88.75 L 107.5 88.75 L 113.75 88.75 L 125.0 87.5 L 136.25 82.5 L 143.75 78.75 L 147.5 76.25 L 145.0 76.25 L 136.25 83.75 L 127.5 96.25 L 116.25 111.25 L 108.75 127.5 L 107.5 133.75 L 108.75 135.0 L 115.0 135.0 L 122.5 132.5 L 131.25 127.5 L 141.25 118.75 L 150.0 110.0 L 156.25 102.5 L 157.5 101.25 L 153.75 102.5 L 148.75 106.25 L 143.75 108.75 L 138.75 110.0 L 133.75 111.25 L 132.5 110.0 L 132.5 106.25 L 132.5 102.5 L 133.75 100.0 L 133.75 100.0 L 133.75 107.5 L 130.0 127.5 L 125.0 148.75 L 121.25 160.0 L 120.0 157.5 L 122.5 150.0 L 127.5 141.25 L 132.5 132.5 L 136.25 125.0 L 138.75 118.75 L 141.25 118.75 L 143.75 127.5 L 148.75 140.0 L 155.0 148.75 L 162.5 148.75 L 171.25 141.25 L 180.0 126.25 L 182.5 116.25 " stroke="black" fill="none" stroke-width="6.0" stroke-linecap="round" stroke-linejoin="round" />
<path d="M 176.25 76.25 L 175.0 76.25 L 171.25 76.25 L 170.0 76.25 L 171.25 77.5 L 181.25 77.5 L 193.75 76.25 L 205.0 71.25 L 210.0 66.25 L 208.75 65.0 L 201.25 70.0 L 197.5 72.5 " stroke="black" fill="none" stroke-width="6.0" stroke-linecap="round" stroke-linejoin="round" />
<path d="M 175.0 83.75 L 175.0 82.5 L 175.0 81.25 L 175.0 81.25 L 175.0 85.0 L 172.5 98.75 L 170.0 112.5 L 170.0 120.0 L 173.75 122.5 L 185.0 116.25 L 197.5 106.25 L 207.5 97.5 L 213.75 91.25 L 215.0 90.0 L 210.0 91.25 L 205.0 95.0 L 200.0 96.25 L 195.0 96.25 L 192.5 96.25 L 191.25 95.0 L 191.25 92.5 L 191.25 91.25 L 191.25 93.75 L 191.25 106.25 L 188.75 126.25 L 183.75 141.25 L 178.75 146.25 L 177.5 141.25 L 177.5 138.75 " stroke="black" fill="none" stroke-width="6.0" stroke-linecap="round" stroke-linejoin="round" />
<path d="M 196.25 103.75 L 196.25 105.0 L 196.25 110.0 L 202.5 120.0 L 212.5 130.0 L 228.75 131.25 L 243.75 126.25 L 252.5 116.25 L 253.75 113.75 " stroke="black" fill="none" stroke-width="6.0" stroke-linecap="round" stroke-linejoin="round" />
<path d="M 152.5 163.75 L 150.0 163.75 L 147.5 167.5 L 146.25 183.75 L 146.25 208.75 L 150.0 225.0 L 152.5 233.75 L 153.75 233.75 L 153.75 226.25 L 153.75 223.75 " stroke="black" fill="none" stroke-width="6.0" stroke-linecap="round" stroke-linejoin="round" />
<path d="M 148.75 183.75 L 147.5 182.5 L 147.5 178.75 L 152.5 173.75 L 167.5 166.25 L 187.5 158.75 L 201.25 157.5 L 207.5 163.75 L 210.0 181.25 L 211.25 201.25 L 211.25 221.25 L 210.0 236.25 L 208.75 243.75 L 205.0 245.0 L 201.25 245.0 L 197.5 238.75 " stroke="black" fill="none" stroke-width="6.0" stroke-linecap="round" stroke-linejoin="round" />
<path d="M 150.0 201.25 L 147.5 203.75 L 146.25 203.75 L 153.75 203.75 L 170.0 198.75 L 191.25 192.5 L 203.75 186.25 L 206.25 185.0 L 201.25 190.0 L 200.0 191.25 " stroke="black" fill="none" stroke-width="6.0" stroke-linecap="round" stroke-linejoin="round" />
<path d="M 156.25 238.75 L 156.25 240.0 L 155.0 241.25 L 158.75 242.5 L 173.75 240.0 L 192.5 232.5 L 207.5 225.0 L 211.25 220.0 " stroke="black" fill="none" stroke-width="6.0" stroke-linecap="round" stroke-linejoin="round" />
</svg>