<svg xmlns="http://www.w3.org/2000/svg" width="300" height="300" viewBox="0 0 300 300">
<path d="M 88.75 90.0 L 88.75 90.0 L 88.75 90.0 L 88.75 91.25 L 90.0 105.0 L 90.0 127.5 L 85.0 143.75 L 80.0 148.75 L 78.75 148.75 L 82.5 145.0 L 91.25 141.25 L 100.0 136.25 L 107.5 133.75 L 111.25 133.75 L 108.75 142.5 L 101.25 156.25 L 93.75 171.25 L 87.5 182.5 L 85.0 185.0 L 87.5 183.75 L 96.25 177.5 L 106.25 170.0 L 118.75 165.0 L 126.25 162.5 L 127.5 168.75 L 118.75 186.25 L 106.25 205.0 L 95.0 216.25 L 90.0 221.25 " stroke="black" fill="none" stroke-width="6.0" stroke-linecap="round" stroke-linejoin="round" />
<path d="M 62.5 200.0 L 61.25 200.0 L 58.75 200.0 L 58.75 201.25 L 65.0 211.25 L 75.0 228.75 L 83.75 242.5 L 86.25 247.5 L 87.5 246.25 " stroke="black" fill="none" stroke-width="6.0" stroke-linecap="round" stroke-linejoin="round" />
<path d="M 92.5 196.25 L 92.5 196.25 L 91.25 195.0 L 91.25 195.0 L 95.0 200.0 L 100.0 208.75 L 105.0 217.5 L 106.25 223.75 L 106.25 223.75 " stroke="black" fill="none" stroke-width="6.0" stroke-linecap="round" stroke-linejoin="round" />
<path d="M 108.75 192.5 L 110.0 190.0 L 110.0 188.75 L 115.0 192.5 L 123.75 203.75 L 132.5 215.0 L 135.0 220.0 " stroke="black" fill="none" stroke-width="6.0" stroke-linecap="round" stroke-linejoin="round" />
<path d="M 168.75 92.5 L 161.25 95.0 L 158.75 95.0 L 161.25 96.25 L 173.75 96.25 L 190.0 92.5 L 205.0 86.25 L 213.75 81.25 L 212.5 80.0 L 207.5 82.5 " stroke="black" fill="none" stroke-width="6.0" stroke-linecap="round" stroke-linejoin="round" />
<path d="M 145.0 162.5 L 145.0 165.0 L 142.5 170.0 L 146.25 170.0 L 161.25 165.0 L 186.25 152.5 L 210.0 138.75 L 220.0 128.75 L 221.25 126.25 L 213.75 126.25 " stroke="black" fill="none" stroke-width="6.0" stroke-linecap="round" stroke-linejoin="round" />
<path d="M 190.0 113.75 L 188.75 112.5 L 187.5 112.5 L 188.75 117.5 L 195.0 141.25 L 202.5 181.25 L 205.0 212.5 L 205.0 228.75 L 203.75 236.25 L 202.5 238.75 L 201.25 240.0 L 200.0 240.0 L 198.75 240.0 L 196.25 241.25 L 191.25 241.25 L 185.0 241.25 L 173.75 241.25 L 158.75 238.75 L 155.0 238.75 " stroke="black" fill="none" stroke-width="6.0" stroke-linecap="round" stroke-linejoin="round" />
</svg>