<svg xmlns="http://www.w3.org/2000/svg" width="300" height="300" viewBox="0 0 300 300">
<path d="M 93.75 76.25 L 92.5 75.0 L 91.25 73.75 L 91.25 72.5 L 93.75 72.5 L 101.25 71.25 L 108.75 71.25 L 111.25 73.75 L 107.5 80.0 " stroke="black" fill="none" stroke-width="6.0" stroke-linecap="round" stroke-linejoin="round" />
<path d="M 57.5 108.75 L 53.75 110.0 L 51.25 111.25 L 55.0 111.25 L 71.25 105.0 L 92.5 95.0 L 108.75 83.75 L 117.5 77.5 L 115.0 76.25 L 106.25 78.75 L 98.75 83.75 L 91.25 88.75 L 86.25 95.0 L 83.75 103.75 L 83.75 121.25 L 83.75 135.0 L 83.75 137.5 L 83.75 136.25 " stroke="black" fill="none" stroke-width="6.0" stroke-linecap="round" stroke-linejoin="round" />
<path d="M 95.0 96.25 L 96.25 93.75 L 96.25 92.5 L 97.5 93.75 L 97.5 102.5 L 96.25 113.75 L 91.25 125.0 L 85.0 133.75 L 75.0 138.75 L 65.0 143.75 L 61.25 145.0 L 63.75 145.0 L 77.5 142.5 L 93.75 133.75 L 112.5 120.0 L 125.0 108.75 L 126.25 106.25 L 120.0 110.0 L 107.5 118.75 L 97.5 131.25 L 87.5 147.5 L 82.5 177.5 L 82.5 213.75 L 93.75 256.25 L 95.0 257.5 L 95.0 258.75 L 95.0 257.5 L 92.5 252.5 L 88.75 245.0 L 85.0 235.0 L 82.5 227.5 " stroke="black" fill="none" stroke-width="6.0" stroke-linecap="round" stroke-linejoin="round" />
<path d="M 87.5 168.75 L 85.0 167.5 L 85.0 166.25 L 87.5 163.75 L 93.75 163.75 L 101.25 165.0 L 110.0 180.0 L 115.0 205.0 L 115.0 227.5 L 112.5 241.25 L 108.75 242.5 L 105.0 240.0 L 105.0 238.75 " stroke="black" fill="none" stroke-width="6.0" stroke-linecap="round" stroke-linejoin="round" />
<path d="M 86.25 203.75 L 81.25 203.75 L 77.5 205.0 L 80.0 203.75 L 90.0 196.25 L 102.5 186.25 L 112.5 176.25 L 113.75 175.0 " stroke="black" fill="none" stroke-width="6.0" stroke-linecap="round" stroke-linejoin="round" />
<path d="M 91.25 213.75 L 88.75 218.75 L 87.5 220.0 L 93.75 213.75 L 107.5 196.25 L 120.0 178.75 " stroke="black" fill="none" stroke-width="6.0" stroke-linecap="round" stroke-linejoin="round" />
<path d="M 157.5 111.25 L 156.25 113.75 L 153.75 116.25 L 153.75 117.5 L 158.75 117.5 L 170.0 112.5 L 181.25 102.5 L 188.75 92.5 L 191.25 87.5 L 185.0 86.25 L 178.75 88.75 " stroke="black" fill="none" stroke-width="6.0" stroke-linecap="round" stroke-linejoin="round" />
<path d="M 145.0 83.75 L 145.0 82.5 L 143.75 81.25 L 146.25 85.0 L 150.0 106.25 L 153.75 136.25 L 155.0 151.25 L 156.25 152.5 L 160.0 148.75 L 167.5 142.5 L 177.5 133.75 L 187.5 126.25 L 193.75 123.75 L 193.75 126.25 L 186.25 138.75 L 175.0 155.0 L 162.5 171.25 L 151.25 185.0 L 150.0 188.75 L 152.5 187.5 L 161.25 180.0 L 171.25 170.0 L 182.5 160.0 L 188.75 155.0 L 188.75 155.0 L 181.25 165.0 L 172.5 182.5 L 166.25 203.75 L 163.75 227.5 L 170.0 246.25 L 182.5 251.25 L 198.75 250.0 L 213.75 246.25 L 227.5 245.0 L 235.0 243.75 L 235.0 241.25 L 228.75 238.75 L 220.0 233.75 L 210.0 225.0 " stroke="black" fill="none" stroke-width="6.0" stroke-linecap="round" stroke-linejoin="round" />
<path d="M 171.25 201.25 L 171.25 201.25 L 170.0 201.25 L 171.25 198.75 L 182.5 192.5 L 196.25 183.75 L 207.5 175.0 L 210.0 171.25 L 206.25 176.25 " stroke="black" fill="none" stroke-width="6.0" stroke-linecap="round" stroke-linejoin="round" />
<path d="M 170.0 215.0 L 170.0 217.5 L 168.75 218.75 L 172.5 218.75 L 185.0 212.5 L 198.75 203.75 L 208.75 195.0 L 210.0 192.5 L 206.25 195.0 " stroke="black" fill="none" stroke-width="6.0" stroke-linecap="round" stroke-linejoin="round" />
<path d="M 178.75 225.0 L 176.25 228.75 L 173.75 233.75 L 178.75 233.75 L 192.5 230.0 L 207.5 218.75 L 218.75 206.25 " stroke="black" fill="none" stroke-width="6.0" stroke-linecap="round" stroke-linejoin="round" />
</svg>