<svg xmlns="http://www.w3.org/2000/svg" width="300" height="300" viewBox="0 0 300 300">
<path d="M 155.0 102.5 L 147.5 110.0 L 140.0 127.5 L 130.0 157.5 L 117.5 202.5 L 110.0 233.75 L 107.5 248.75 L 110.0 248.75 L 111.25 242.5 L 112.5 235.0 " stroke="black" fill="none" stroke-width="6.0" stroke-linecap="round" stroke-linejoin="round" />
<path d="M 152.5 107.5 L 152.5 106.25 L 152.5 105.0 L 152.5 105.0 L 153.75 105.0 L 162.5 116.25 L 173.75 146.25 L 186.25 191.25 L 195.0 227.5 L 196.25 245.0 L 197.5 250.0 L 196.25 250.0 L 192.5 247.5 L 190.0 243.75 " stroke="black" fill="none" stroke-width="6.0" stroke-linecap="round" stroke-linejoin="round" />
<path d="M 126.25 195.0 L 123.75 195.0 L 118.75 197.5 L 120.0 197.5 L 135.0 197.5 L 156.25 191.25 L 180.0 183.75 L 185.0 181.25 " stroke="black" fill="none" stroke-width="6.0" stroke-linecap="round" stroke-linejoin="round" />
</svg>