<svg xmlns="http://www.w3.org/2000/svg" width="300" height="300" viewBox="0 0 300 300">
<path d="M 81.25 108.75 L 81.25 108.75 L 80.0 108.75 L 81.25 108.75 L 90.0 107.5 L 103.75 102.5 L 115.0 97.5 L 116.25 96.25 " stroke="black" fill="none" stroke-width="6.0" stroke-linecap="round" stroke-linejoin="round" />
<path d="M 85.0 146.25 L 78.75 152.5 L 77.5 153.75 L 83.75 151.25 L 97.5 143.75 L 111.25 133.75 L 120.0 126.25 " stroke="black" fill="none" stroke-width="6.0" stroke-linecap="round" stroke-linejoin="round" />
<path d="M 83.75 213.75 L 80.0 218.75 L 80.0 220.0 L 90.0 207.5 L 107.5 185.0 L 120.0 161.25 " stroke="black" fill="none" stroke-width="6.0" stroke-linecap="round" stroke-linejoin="round" />
<path d="M 140.0 80.0 L 138.75 80.0 L 138.75 80.0 L 143.75 78.75 L 162.5 72.5 L 191.25 61.25 L 208.75 52.5 L 210.0 51.25 L 200.0 55.0 L 183.75 61.25 L 166.25 65.0 L 150.0 67.5 L 143.75 67.5 L 142.5 67.5 L 145.0 67.5 L 150.0 78.75 L 153.75 95.0 L 157.5 108.75 L 158.75 111.25 L 158.75 107.5 " stroke="black" fill="none" stroke-width="6.0" stroke-linecap="round" stroke-linejoin="round" />
<path d="M 183.75 53.75 L 183.75 52.5 L 185.0 52.5 L 185.0 55.0 L 181.25 72.5 L 170.0 101.25 L 156.25 116.25 " stroke="black" fill="none" stroke-width="6.0" stroke-linecap="round" stroke-linejoin="round" />
<path d="M 143.75 122.5 L 143.75 122.5 L 142.5 122.5 L 143.75 126.25 L 147.5 137.5 L 150.0 151.25 L 152.5 158.75 L 152.5 160.0 L 150.0 153.75 L 148.75 146.25 L 148.75 140.0 L 148.75 133.75 L 150.0 127.5 L 160.0 121.25 L 180.0 115.0 L 200.0 110.0 L 207.5 110.0 L 206.25 113.75 L 193.75 127.5 L 178.75 140.0 L 158.75 151.25 L 147.5 157.5 L 146.25 158.75 L 153.75 155.0 L 167.5 147.5 L 185.0 138.75 L 198.75 130.0 L 203.75 127.5 L 200.0 128.75 " stroke="black" fill="none" stroke-width="6.0" stroke-linecap="round" stroke-linejoin="round" />
<path d="M 153.75 173.75 L 152.5 173.75 L 152.5 173.75 L 160.0 171.25 L 180.0 158.75 L 198.75 148.75 L 202.5 145.0 L 190.0 152.5 L 173.75 163.75 L 155.0 180.0 L 140.0 198.75 L 136.25 205.0 L 143.75 202.5 L 160.0 192.5 L 180.0 180.0 L 198.75 166.25 L 207.5 157.5 L 201.25 160.0 L 187.5 171.25 " stroke="black" fill="none" stroke-width="6.0" stroke-linecap="round" stroke-linejoin="round" />
<path d="M 141.25 220.0 L 140.0 223.75 L 145.0 222.5 L 166.25 210.0 L 201.25 187.5 L 225.0 167.5 L 232.5 156.25 L 232.5 155.0 " stroke="black" fill="none" stroke-width="6.0" stroke-linecap="round" stroke-linejoin="round" />
<path d="M 175.0 118.75 L 175.0 118.75 L 176.25 125.0 L 177.5 156.25 L 173.75 197.5 L 165.0 225.0 L 151.25 243.75 L 137.5 251.25 L 125.0 252.5 L 121.25 250.0 " stroke="black" fill="none" stroke-width="6.0" stroke-linecap="round" stroke-linejoin="round" />
<path d="M 173.75 192.5 L 173.75 193.75 L 177.5 196.25 L 185.0 200.0 L 192.5 206.25 L 200.0 213.75 L 205.0 222.5 L 210.0 230.0 L 215.0 237.5 L 221.25 246.25 L 230.0 255.0 L 241.25 265.0 L 253.75 273.75 L 262.5 278.75 " stroke="black" fill="none" stroke-width="6.0" stroke-linecap="round" stroke-linejoin="round" />
</svg>