<svg xmlns="http://www.w3.org/2000/svg" width="300" height="300" viewBox="0 0 300 300">
<path d="M 72.5 111.25 L 70.0 111.25 L 68.75 111.25 L 70.0 112.5 L 81.25 111.25 L 93.75 108.75 L 103.75 106.25 L 107.5 103.75 L 107.5 103.75 " stroke="black" fill="none" stroke-width="6.0" stroke-linecap="round" stroke-linejoin="round" />
<path d="M 71.25 178.75 L 65.0 185.0 L 65.0 185.0 L 73.75 181.25 L 85.0 172.5 L 95.0 163.75 L 100.0 156.25 L 100.0 155.0 " stroke="black" fill="none" stroke-width="6.0" stroke-linecap="round" stroke-linejoin="round" />
<path d="M 71.25 247.5 L 65.0 252.5 L 61.25 256.25 L 67.5 251.25 L 82.5 235.0 L 97.5 211.25 L 103.75 200.0 " stroke="black" fill="none" stroke-width="6.0" stroke-linecap="round" stroke-linejoin="round" />
<path d="M 122.5 92.5 L 116.25 92.5 L 115.0 92.5 L 127.5 91.25 L 147.5 86.25 L 172.5 75.0 L 195.0 61.25 L 198.75 56.25 L 193.75 57.5 L 181.25 63.75 L 167.5 70.0 L 153.75 73.75 L 143.75 77.5 L 136.25 78.75 L 135.0 80.0 L 136.25 85.0 L 140.0 95.0 L 146.25 107.5 L 151.25 117.5 L 153.75 118.75 L 155.0 117.5 " stroke="black" fill="none" stroke-width="6.0" stroke-linecap="round" stroke-linejoin="round" />
<path d="M 170.0 66.25 L 170.0 66.25 L 170.0 65.0 L 170.0 68.75 L 167.5 88.75 L 156.25 120.0 L 147.5 136.25 " stroke="black" fill="none" stroke-width="6.0" stroke-linecap="round" stroke-linejoin="round" />
<path d="M 136.25 133.75 L 135.0 132.5 L 131.25 131.25 L 130.0 131.25 L 131.25 135.0 L 137.5 148.75 L 142.5 161.25 L 145.0 170.0 L 146.25 172.5 L 146.25 166.25 L 143.75 157.5 L 141.25 148.75 L 140.0 143.75 L 138.75 140.0 L 138.75 138.75 L 145.0 136.25 L 157.5 131.25 L 175.0 123.75 L 190.0 118.75 L 195.0 117.5 L 191.25 123.75 L 180.0 135.0 L 166.25 145.0 L 153.75 155.0 L 146.25 161.25 L 146.25 161.25 L 155.0 157.5 L 168.75 148.75 L 183.75 138.75 L 193.75 131.25 L 196.25 128.75 L 190.0 132.5 " stroke="black" fill="none" stroke-width="6.0" stroke-linecap="round" stroke-linejoin="round" />
<path d="M 145.0 188.75 L 142.5 190.0 L 142.5 190.0 L 150.0 187.5 L 165.0 175.0 L 185.0 160.0 L 192.5 152.5 L 190.0 152.5 L 180.0 160.0 L 166.25 170.0 " stroke="black" fill="none" stroke-width="6.0" stroke-linecap="round" stroke-linejoin="round" />
<path d="M 143.75 203.75 L 141.25 206.25 L 142.5 207.5 L 152.5 202.5 L 170.0 190.0 L 190.0 173.75 L 200.0 162.5 L 195.0 162.5 " stroke="black" fill="none" stroke-width="6.0" stroke-linecap="round" stroke-linejoin="round" />
<path d="M 131.25 238.75 L 131.25 238.75 L 132.5 237.5 L 155.0 220.0 L 191.25 193.75 L 213.75 172.5 L 225.0 156.25 L 221.25 151.25 L 218.75 150.0 " stroke="black" fill="none" stroke-width="6.0" stroke-linecap="round" stroke-linejoin="round" />
<path d="M 160.0 120.0 L 160.0 120.0 L 161.25 121.25 L 165.0 138.75 L 168.75 186.25 L 163.75 223.75 L 155.0 243.75 L 142.5 255.0 L 130.0 258.75 L 121.25 256.25 L 117.5 252.5 " stroke="black" fill="none" stroke-width="6.0" stroke-linecap="round" stroke-linejoin="round" />
<path d="M 176.25 195.0 L 177.5 195.0 L 180.0 195.0 L 183.75 197.5 L 188.75 201.25 L 193.75 206.25 L 196.25 210.0 L 197.5 211.25 L 197.5 212.5 L 197.5 213.75 L 197.5 213.75 L 197.5 213.75 L 198.75 215.0 L 201.25 218.75 L 205.0 223.75 L 212.5 235.0 L 222.5 248.75 L 235.0 260.0 L 248.75 270.0 L 258.75 275.0 L 260.0 276.25 " stroke="black" fill="none" stroke-width="6.0" stroke-linecap="round" stroke-linejoin="round" />
</svg>