<svg xmlns="http://www.w3.org/2000/svg" width="300" height="300" viewBox="0 0 300 300">
<path d="M 77.5 137.5 L 72.5 138.75 L 71.25 138.75 L 80.0 136.25 L 93.75 128.75 L 107.5 120.0 L 117.5 110.0 L 117.5 107.5 " stroke="black" fill="none" stroke-width="6.0" stroke-linecap="round" stroke-linejoin="round" />
<path d="M 96.25 107.5 L 95.0 113.75 L 93.75 135.0 L 100.0 176.25 L 106.25 216.25 L 108.75 230.0 L 108.75 236.25 L 108.75 236.25 L 107.5 236.25 L 103.75 233.75 L 97.5 228.75 L 91.25 222.5 L 82.5 217.5 L 73.75 213.75 L 68.75 213.75 L 67.5 213.75 L 72.5 213.75 L 86.25 205.0 L 103.75 190.0 L 112.5 178.75 " stroke="black" fill="none" stroke-width="6.0" stroke-linecap="round" stroke-linejoin="round" />
<path d="M 163.75 75.0 L 163.75 75.0 L 162.5 73.75 L 163.75 73.75 L 171.25 75.0 L 182.5 77.5 L 191.25 80.0 L 192.5 83.75 L 191.25 85.0 " stroke="black" fill="none" stroke-width="6.0" stroke-linecap="round" stroke-linejoin="round" />
<path d="M 143.75 107.5 L 142.5 108.75 L 142.5 108.75 L 152.5 105.0 L 172.5 95.0 L 192.5 86.25 L 201.25 80.0 L 200.0 80.0 " stroke="black" fill="none" stroke-width="6.0" stroke-linecap="round" stroke-linejoin="round" />
<path d="M 163.75 105.0 L 157.5 116.25 L 157.5 128.75 L 158.75 143.75 L 160.0 148.75 L 161.25 147.5 " stroke="black" fill="none" stroke-width="6.0" stroke-linecap="round" stroke-linejoin="round" />
<path d="M 180.0 97.5 L 180.0 97.5 L 181.25 96.25 L 182.5 96.25 L 185.0 100.0 L 186.25 118.75 L 180.0 136.25 L 168.75 150.0 L 155.0 155.0 L 143.75 158.75 L 140.0 160.0 L 141.25 160.0 L 150.0 157.5 L 165.0 151.25 L 183.75 142.5 L 202.5 133.75 L 211.25 126.25 L 211.25 125.0 L 203.75 130.0 L 193.75 140.0 L 181.25 155.0 L 170.0 180.0 L 167.5 212.5 L 172.5 232.5 L 182.5 240.0 L 195.0 242.5 L 205.0 242.5 L 212.5 243.75 L 215.0 243.75 L 215.0 243.75 L 210.0 242.5 L 205.0 241.25 " stroke="black" fill="none" stroke-width="6.0" stroke-linecap="round" stroke-linejoin="round" />
<path d="M 197.5 151.25 L 198.75 151.25 L 201.25 158.75 L 202.5 188.75 L 196.25 218.75 L 185.0 238.75 L 171.25 246.25 L 160.0 246.25 " stroke="black" fill="none" stroke-width="6.0" stroke-linecap="round" stroke-linejoin="round" />
<path d="M 128.75 202.5 L 127.5 202.5 L 127.5 202.5 L 131.25 202.5 L 147.5 198.75 L 181.25 191.25 L 216.25 180.0 L 242.5 172.5 L 256.25 168.75 " stroke="black" fill="none" stroke-width="6.0" stroke-linecap="round" stroke-linejoin="round" />
</svg>