<svg xmlns="http://www.w3.org/2000/svg" width="300" height="300" viewBox="0 0 300 300">
<path d="M 80.0 127.5 L 72.5 130.0 L 67.5 130.0 L 71.25 130.0 L 86.25 128.75 L 105.0 122.5 L 122.5 113.75 L 132.5 106.25 L 128.75 105.0 L 118.75 105.0 L 108.75 105.0 L 101.25 105.0 L 95.0 103.75 L 93.75 107.5 L 95.0 130.0 L 101.25 177.5 L 105.0 213.75 L 106.25 221.25 L 106.25 221.25 L 106.25 220.0 L 105.0 218.75 L 100.0 215.0 L 93.75 210.0 L 85.0 205.0 L 75.0 201.25 L 67.5 198.75 L 66.25 198.75 L 72.5 197.5 L 88.75 191.25 L 110.0 177.5 L 133.75 156.25 " stroke="black" fill="none" stroke-width="6.0" stroke-linecap="round" stroke-linejoin="round" />
<path d="M 167.5 56.25 L 166.25 53.75 L 165.0 52.5 L 170.0 51.25 L 181.25 52.5 L 191.25 57.5 L 195.0 65.0 L 188.75 72.5 " stroke="black" fill="none" stroke-width="6.0" stroke-linecap="round" stroke-linejoin="round" />
<path d="M 140.0 91.25 L 137.5 93.75 L 133.75 95.0 L 137.5 95.0 L 148.75 93.75 L 165.0 87.5 L 182.5 80.0 L 190.0 75.0 L 187.5 73.75 L 178.75 76.25 L 168.75 80.0 L 161.25 86.25 L 156.25 96.25 L 155.0 111.25 L 156.25 128.75 L 156.25 136.25 " stroke="black" fill="none" stroke-width="6.0" stroke-linecap="round" stroke-linejoin="round" />
<path d="M 176.25 88.75 L 177.5 88.75 L 177.5 88.75 L 180.0 92.5 L 183.75 102.5 L 182.5 120.0 L 172.5 135.0 L 157.5 142.5 L 145.0 143.75 L 140.0 143.75 L 141.25 143.75 L 150.0 141.25 L 166.25 136.25 L 188.75 125.0 L 210.0 112.5 L 221.25 103.75 L 220.0 103.75 L 211.25 106.25 L 201.25 111.25 L 190.0 120.0 L 180.0 133.75 L 172.5 165.0 L 171.25 202.5 L 177.5 217.5 L 186.25 223.75 L 196.25 231.25 L 205.0 235.0 L 210.0 237.5 L 213.75 238.75 L 215.0 240.0 L 215.0 241.25 L 208.75 242.5 L 207.5 242.5 " stroke="black" fill="none" stroke-width="6.0" stroke-linecap="round" stroke-linejoin="round" />
<path d="M 201.25 137.5 L 202.5 136.25 L 203.75 141.25 L 205.0 175.0 L 200.0 217.5 L 190.0 241.25 L 176.25 247.5 L 161.25 248.75 L 156.25 246.25 " stroke="black" fill="none" stroke-width="6.0" stroke-linecap="round" stroke-linejoin="round" />
<path d="M 143.75 178.75 L 143.75 178.75 L 145.0 178.75 L 161.25 175.0 L 192.5 166.25 L 217.5 155.0 L 233.75 146.25 L 236.25 143.75 " stroke="black" fill="none" stroke-width="6.0" stroke-linecap="round" stroke-linejoin="round" />
</svg>