<svg xmlns="http://www.w3.org/2000/svg" width="300" height="300" viewBox="0 0 300 300">
<path d="M 77.5 142.5 L 76.25 143.75 L 73.75 145.0 L 80.0 145.0 L 95.0 138.75 L 112.5 131.25 L 128.75 120.0 L 132.5 112.5 " stroke="black" fill="none" stroke-width="6.0" stroke-linecap="round" stroke-linejoin="round" />
<path d="M 97.5 112.5 L 97.5 116.25 L 100.0 125.0 L 103.75 143.75 L 103.75 170.0 L 100.0 192.5 L 92.5 203.75 L 83.75 208.75 L 78.75 211.25 L 78.75 211.25 L 87.5 208.75 L 100.0 203.75 L 118.75 192.5 L 140.0 177.5 L 143.75 173.75 " stroke="black" fill="none" stroke-width="6.0" stroke-linecap="round" stroke-linejoin="round" />
<path d="M 153.75 85.0 L 150.0 87.5 L 148.75 91.25 L 156.25 93.75 L 172.5 93.75 L 193.75 88.75 L 210.0 80.0 L 215.0 73.75 L 208.75 73.75 L 200.0 78.75 " stroke="black" fill="none" stroke-width="6.0" stroke-linecap="round" stroke-linejoin="round" />
<path d="M 161.25 122.5 L 158.75 131.25 L 157.5 148.75 L 158.75 173.75 L 161.25 193.75 L 162.5 198.75 L 163.75 197.5 L 162.5 191.25 " stroke="black" fill="none" stroke-width="6.0" stroke-linecap="round" stroke-linejoin="round" />
<path d="M 157.5 140.0 L 157.5 138.75 L 158.75 135.0 L 170.0 130.0 L 188.75 127.5 L 205.0 127.5 L 215.0 136.25 L 216.25 150.0 L 208.75 165.0 L 200.0 177.5 L 191.25 185.0 L 185.0 186.25 " stroke="black" fill="none" stroke-width="6.0" stroke-linecap="round" stroke-linejoin="round" />
<path d="M 166.25 162.5 L 172.5 161.25 L 185.0 157.5 L 198.75 153.75 L 206.25 151.25 L 207.5 151.25 " stroke="black" fill="none" stroke-width="6.0" stroke-linecap="round" stroke-linejoin="round" />
<path d="M 158.75 191.25 L 158.75 192.5 L 158.75 196.25 L 165.0 196.25 L 182.5 190.0 L 202.5 178.75 L 212.5 170.0 " stroke="black" fill="none" stroke-width="6.0" stroke-linecap="round" stroke-linejoin="round" />
<path d="M 150.0 233.75 L 147.5 233.75 L 146.25 233.75 L 152.5 232.5 L 172.5 228.75 L 200.0 223.75 L 226.25 220.0 L 240.0 216.25 L 245.0 215.0 L 242.5 215.0 L 241.25 215.0 " stroke="black" fill="none" stroke-width="6.0" stroke-linecap="round" stroke-linejoin="round" />
</svg>