<svg xmlns="http://www.w3.org/2000/svg" width="300" height="300" viewBox="0 0 300 300">
<path d="M 86.25 83.75 L 83.75 83.75 L 82.5 86.25 L 87.5 86.25 L 100.0 86.25 L 115.0 83.75 L 127.5 80.0 L 128.75 78.75 " stroke="black" fill="none" stroke-width="6.0" stroke-linecap="round" stroke-linejoin="round" />
<path d="M 73.75 122.5 L 71.25 125.0 L 68.75 126.25 L 72.5 125.0 L 85.0 118.75 L 97.5 108.75 L 106.25 102.5 L 108.75 101.25 L 105.0 110.0 L 100.0 128.75 L 98.75 151.25 L 101.25 162.5 L 110.0 158.75 L 125.0 141.25 L 140.0 116.25 L 151.25 95.0 L 160.0 78.75 L 167.5 71.25 L 168.75 71.25 L 163.75 80.0 L 153.75 101.25 L 143.75 123.75 L 136.25 141.25 L 136.25 143.75 L 136.25 141.25 " stroke="black" fill="none" stroke-width="6.0" stroke-linecap="round" stroke-linejoin="round" />
<path d="M 152.5 81.25 L 152.5 81.25 L 152.5 80.0 L 157.5 80.0 L 176.25 81.25 L 195.0 85.0 L 205.0 93.75 L 200.0 112.5 L 185.0 135.0 L 168.75 150.0 L 157.5 156.25 L 153.75 153.75 L 153.75 152.5 " stroke="black" fill="none" stroke-width="6.0" stroke-linecap="round" stroke-linejoin="round" />
<path d="M 161.25 105.0 L 160.0 105.0 L 156.25 103.75 L 155.0 103.75 L 157.5 103.75 L 170.0 103.75 L 183.75 103.75 L 190.0 103.75 L 190.0 103.75 " stroke="black" fill="none" stroke-width="6.0" stroke-linecap="round" stroke-linejoin="round" />
<path d="M 151.25 127.5 L 151.25 127.5 L 151.25 128.75 L 158.75 128.75 L 178.75 126.25 L 188.75 126.25 " stroke="black" fill="none" stroke-width="6.0" stroke-linecap="round" stroke-linejoin="round" />
<path d="M 145.0 187.5 L 145.0 187.5 L 143.75 187.5 L 143.75 187.5 L 150.0 188.75 L 163.75 193.75 L 177.5 200.0 L 182.5 208.75 L 173.75 221.25 L 153.75 233.75 L 128.75 242.5 L 107.5 243.75 L 98.75 241.25 L 101.25 235.0 L 116.25 223.75 L 138.75 215.0 L 158.75 210.0 L 171.25 213.75 L 171.25 228.75 L 160.0 246.25 L 148.75 257.5 L 143.75 262.5 L 147.5 262.5 L 165.0 256.25 L 193.75 245.0 L 218.75 233.75 L 222.5 230.0 " stroke="black" fill="none" stroke-width="6.0" stroke-linecap="round" stroke-linejoin="round" />
</svg>