<svg xmlns="http://www.w3.org/2000/svg" width="300" height="300" viewBox="0 0 300 300">
<path d="M 96.25 61.25 L 95.0 62.5 L 91.25 63.75 L 90.0 67.5 L 90.0 77.5 L 90.0 87.5 L 91.25 90.0 L 97.5 90.0 L 106.25 86.25 L 115.0 81.25 L 120.0 76.25 L 121.25 75.0 L 120.0 77.5 L 110.0 86.25 L 100.0 100.0 L 90.0 115.0 L 80.0 132.5 L 76.25 146.25 L 77.5 151.25 L 83.75 152.5 L 93.75 152.5 L 105.0 153.75 L 118.75 155.0 L 131.25 156.25 L 136.25 157.5 L 135.0 157.5 L 133.75 157.5 " stroke="black" fill="none" stroke-width="6.0" stroke-linecap="round" stroke-linejoin="round" />
<path d="M 106.25 102.5 L 105.0 102.5 L 105.0 102.5 L 111.25 102.5 L 123.75 107.5 L 133.75 118.75 L 137.5 131.25 L 132.5 142.5 L 120.0 151.25 L 106.25 155.0 L 96.25 155.0 " stroke="black" fill="none" stroke-width="6.0" stroke-linecap="round" stroke-linejoin="round" />
<path d="M 70.0 141.25 L 68.75 141.25 L 67.5 141.25 L 75.0 136.25 L 87.5 132.5 L 116.25 122.5 L 133.75 117.5 L 137.5 116.25 L 132.5 116.25 L 127.5 116.25 L 121.25 115.0 L 116.25 113.75 L 112.5 115.0 L 111.25 122.5 L 112.5 136.25 L 112.5 143.75 " stroke="black" fill="none" stroke-width="6.0" stroke-linecap="round" stroke-linejoin="round" />
<path d="M 165.0 56.25 L 165.0 56.25 L 161.25 57.5 L 161.25 61.25 L 161.25 72.5 L 161.25 81.25 L 163.75 85.0 L 168.75 85.0 L 178.75 77.5 L 188.75 68.75 L 197.5 61.25 L 202.5 56.25 L 203.75 55.0 L 202.5 56.25 L 197.5 62.5 L 192.5 68.75 L 188.75 73.75 L 183.75 78.75 L 180.0 81.25 L 178.75 81.25 L 178.75 81.25 L 178.75 80.0 L 178.75 80.0 L 180.0 80.0 L 180.0 82.5 L 178.75 92.5 L 171.25 113.75 L 158.75 136.25 L 147.5 147.5 L 137.5 150.0 L 132.5 147.5 " stroke="black" fill="none" stroke-width="6.0" stroke-linecap="round" stroke-linejoin="round" />
<path d="M 151.25 107.5 L 151.25 107.5 L 157.5 108.75 L 180.0 117.5 L 206.25 127.5 L 225.0 132.5 L 238.75 136.25 L 242.5 137.5 " stroke="black" fill="none" stroke-width="6.0" stroke-linecap="round" stroke-linejoin="round" />
<path d="M 151.25 148.75 L 151.25 148.75 L 151.25 147.5 L 150.0 146.25 L 150.0 147.5 L 146.25 158.75 L 140.0 175.0 L 133.75 187.5 L 131.25 191.25 L 135.0 190.0 L 145.0 183.75 L 156.25 175.0 L 165.0 167.5 L 171.25 161.25 L 172.5 160.0 L 168.75 165.0 L 158.75 178.75 L 150.0 192.5 L 142.5 203.75 L 137.5 210.0 L 137.5 210.0 L 145.0 206.25 L 156.25 200.0 L 170.0 192.5 L 182.5 185.0 L 193.75 180.0 L 197.5 180.0 L 192.5 186.25 L 181.25 198.75 L 168.75 211.25 L 157.5 217.5 L 151.25 220.0 " stroke="black" fill="none" stroke-width="6.0" stroke-linecap="round" stroke-linejoin="round" />
<path d="M 156.25 203.75 L 156.25 203.75 L 156.25 203.75 L 157.5 206.25 L 162.5 221.25 L 167.5 243.75 L 167.5 257.5 L 166.25 261.25 L 162.5 262.5 L 158.75 262.5 L 153.75 260.0 L 148.75 257.5 " stroke="black" fill="none" stroke-width="6.0" stroke-linecap="round" stroke-linejoin="round" />
<path d="M 96.25 231.25 L 96.25 230.0 L 95.0 230.0 L 95.0 230.0 L 102.5 236.25 L 112.5 247.5 L 122.5 260.0 L 126.25 268.75 L 127.5 268.75 " stroke="black" fill="none" stroke-width="6.0" stroke-linecap="round" stroke-linejoin="round" />
<path d="M 182.5 216.25 L 183.75 217.5 L 186.25 218.75 L 196.25 225.0 L 207.5 235.0 L 216.25 243.75 L 221.25 250.0 L 222.5 255.0 " stroke="black" fill="none" stroke-width="6.0" stroke-linecap="round" stroke-linejoin="round" />
</svg>