<svg xmlns="http://www.w3.org/2000/svg" width="300" height="300" viewBox="0 0 300 300">
<path d="M 142.5 75.0 L 142.5 75.0 L 140.0 75.0 L 135.0 85.0 L 120.0 121.25 L 100.0 165.0 L 85.0 193.75 L 76.25 201.25 L 72.5 200.0 " stroke="black" fill="none" stroke-width="6.0" stroke-linecap="round" stroke-linejoin="round" />
<path d="M 132.5 85.0 L 133.75 83.75 L 136.25 82.5 L 146.25 83.75 L 165.0 100.0 L 191.25 125.0 L 212.5 143.75 L 226.25 153.75 L 232.5 160.0 " stroke="black" fill="none" stroke-width="6.0" stroke-linecap="round" stroke-linejoin="round" />
<path d="M 146.25 135.0 L 145.0 135.0 L 143.75 135.0 L 143.75 137.5 L 151.25 140.0 L 160.0 143.75 L 166.25 146.25 L 166.25 148.75 L 158.75 151.25 L 150.0 153.75 L 140.0 158.75 L 131.25 165.0 L 126.25 170.0 L 126.25 171.25 L 136.25 171.25 L 148.75 171.25 L 161.25 167.5 L 171.25 165.0 L 175.0 165.0 L 168.75 171.25 L 156.25 182.5 L 142.5 193.75 L 127.5 203.75 L 115.0 211.25 L 107.5 216.25 L 106.25 216.25 L 106.25 216.25 L 106.25 215.0 L 107.5 213.75 L 110.0 212.5 L 111.25 211.25 L 115.0 211.25 L 121.25 218.75 L 131.25 232.5 L 141.25 246.25 L 147.5 255.0 L 150.0 256.25 L 150.0 255.0 L 150.0 255.0 L 148.75 252.5 L 145.0 248.75 L 140.0 243.75 L 133.75 240.0 L 128.75 236.25 L 125.0 232.5 L 123.75 231.25 L 125.0 230.0 L 136.25 225.0 L 152.5 216.25 L 176.25 210.0 L 196.25 207.5 L 201.25 208.75 L 200.0 215.0 L 190.0 225.0 L 176.25 236.25 L 161.25 246.25 L 150.0 252.5 L 148.75 252.5 L 155.0 252.5 L 170.0 246.25 L 188.75 238.75 L 206.25 230.0 L 210.0 227.5 " stroke="black" fill="none" stroke-width="6.0" stroke-linecap="round" stroke-linejoin="round" />
</svg>