<svg xmlns="http://www.w3.org/2000/svg" width="300" height="300" viewBox="0 0 300 300">
<path d="M 95.0 86.25 L 90.0 88.75 L 87.5 91.25 L 90.0 92.5 L 101.25 91.25 L 118.75 86.25 L 136.25 81.25 L 145.0 80.0 L 145.0 90.0 L 132.5 107.5 L 118.75 123.75 L 106.25 132.5 L 101.25 127.5 L 101.25 123.75 " stroke="black" fill="none" stroke-width="6.0" stroke-linecap="round" stroke-linejoin="round" />
<path d="M 126.25 56.25 L 127.5 55.0 L 125.0 56.25 L 113.75 77.5 L 97.5 115.0 L 85.0 143.75 L 82.5 148.75 " stroke="black" fill="none" stroke-width="6.0" stroke-linecap="round" stroke-linejoin="round" />
<path d="M 162.5 77.5 L 162.5 77.5 L 162.5 77.5 L 162.5 80.0 L 162.5 91.25 L 166.25 105.0 L 171.25 113.75 L 175.0 115.0 L 176.25 110.0 L 176.25 101.25 L 172.5 93.75 L 168.75 87.5 L 163.75 82.5 L 161.25 78.75 L 165.0 76.25 L 180.0 73.75 L 196.25 71.25 L 205.0 70.0 L 205.0 76.25 L 195.0 87.5 L 181.25 97.5 L 167.5 106.25 L 163.75 108.75 L 170.0 106.25 L 186.25 95.0 L 201.25 82.5 L 205.0 78.75 " stroke="black" fill="none" stroke-width="6.0" stroke-linecap="round" stroke-linejoin="round" />
<path d="M 123.75 143.75 L 123.75 143.75 L 123.75 142.5 L 123.75 143.75 L 123.75 166.25 L 127.5 196.25 L 130.0 210.0 L 131.25 211.25 L 131.25 205.0 " stroke="black" fill="none" stroke-width="6.0" stroke-linecap="round" stroke-linejoin="round" />
<path d="M 127.5 147.5 L 125.0 147.5 L 123.75 147.5 L 130.0 146.25 L 143.75 140.0 L 160.0 132.5 L 175.0 125.0 L 177.5 122.5 L 168.75 128.75 L 160.0 136.25 " stroke="black" fill="none" stroke-width="6.0" stroke-linecap="round" stroke-linejoin="round" />
<path d="M 131.25 171.25 L 130.0 172.5 L 128.75 172.5 L 137.5 166.25 L 151.25 155.0 L 166.25 142.5 L 175.0 136.25 L 168.75 140.0 L 166.25 142.5 " stroke="black" fill="none" stroke-width="6.0" stroke-linecap="round" stroke-linejoin="round" />
<path d="M 132.5 193.75 L 131.25 196.25 L 131.25 197.5 L 138.75 193.75 L 151.25 180.0 L 166.25 161.25 L 173.75 148.75 L 172.5 143.75 L 166.25 143.75 L 161.25 143.75 L 157.5 141.25 L 156.25 140.0 L 155.0 143.75 L 155.0 160.0 L 156.25 185.0 L 158.75 203.75 L 165.0 210.0 L 175.0 205.0 L 187.5 197.5 L 197.5 192.5 L 202.5 193.75 L 200.0 205.0 L 191.25 221.25 L 178.75 238.75 L 166.25 251.25 L 156.25 255.0 L 153.75 255.0 " stroke="black" fill="none" stroke-width="6.0" stroke-linecap="round" stroke-linejoin="round" />
<path d="M 98.75 220.0 L 98.75 220.0 L 95.0 218.75 L 93.75 218.75 L 98.75 223.75 L 106.25 236.25 L 116.25 248.75 L 121.25 258.75 L 122.5 260.0 " stroke="black" fill="none" stroke-width="6.0" stroke-linecap="round" stroke-linejoin="round" />
<path d="M 126.25 220.0 L 126.25 220.0 L 126.25 218.75 L 127.5 220.0 L 132.5 228.75 L 138.75 238.75 L 145.0 246.25 L 146.25 247.5 " stroke="black" fill="none" stroke-width="6.0" stroke-linecap="round" stroke-linejoin="round" />
<path d="M 150.0 220.0 L 150.0 218.75 L 150.0 217.5 L 150.0 218.75 L 152.5 226.25 L 157.5 235.0 L 160.0 241.25 L 161.25 242.5 " stroke="black" fill="none" stroke-width="6.0" stroke-linecap="round" stroke-linejoin="round" />
<path d="M 178.75 211.25 L 178.75 210.0 L 178.75 206.25 L 181.25 206.25 L 188.75 212.5 L 198.75 226.25 L 207.5 238.75 L 213.75 247.5 L 215.0 248.75 L 213.75 248.75 " stroke="black" fill="none" stroke-width="6.0" stroke-linecap="round" stroke-linejoin="round" />
</svg>