<svg xmlns="http://www.w3.org/2000/svg" width="300" height="300" viewBox="0 0 300 300">
<path d="M 152.5 100.0 L 147.5 100.0 L 143.75 101.25 L 143.75 101.25 L 152.5 100.0 L 167.5 96.25 L 182.5 90.0 L 191.25 86.25 L 192.5 85.0 L 186.25 87.5 L 175.0 93.75 L 165.0 98.75 L 156.25 106.25 L 151.25 117.5 L 150.0 141.25 L 152.5 178.75 L 155.0 202.5 L 160.0 206.25 L 162.5 202.5 L 162.5 195.0 " stroke="black" fill="none" stroke-width="6.0" stroke-linecap="round" stroke-linejoin="round" />
<path d="M 152.5 143.75 L 150.0 142.5 L 150.0 140.0 L 155.0 135.0 L 168.75 128.75 L 182.5 125.0 L 196.25 128.75 L 202.5 148.75 L 202.5 176.25 L 200.0 196.25 L 196.25 201.25 L 193.75 200.0 L 191.25 195.0 L 190.0 191.25 " stroke="black" fill="none" stroke-width="6.0" stroke-linecap="round" stroke-linejoin="round" />
<path d="M 155.0 180.0 L 151.25 180.0 L 150.0 180.0 L 155.0 175.0 L 168.75 162.5 L 183.75 151.25 L 193.75 143.75 L 193.75 142.5 " stroke="black" fill="none" stroke-width="6.0" stroke-linecap="round" stroke-linejoin="round" />
<path d="M 158.75 197.5 L 152.5 202.5 L 153.75 205.0 L 163.75 205.0 L 178.75 198.75 L 192.5 190.0 " stroke="black" fill="none" stroke-width="6.0" stroke-linecap="round" stroke-linejoin="round" />
<path d="M 90.0 101.25 L 87.5 102.5 L 82.5 103.75 L 81.25 103.75 L 88.75 105.0 L 98.75 106.25 L 108.75 107.5 L 112.5 108.75 " stroke="black" fill="none" stroke-width="6.0" stroke-linecap="round" stroke-linejoin="round" />
<path d="M 87.5 143.75 L 85.0 145.0 L 80.0 148.75 L 80.0 151.25 L 87.5 151.25 L 93.75 150.0 L 103.75 147.5 L 108.75 146.25 L 107.5 147.5 L 100.0 156.25 L 91.25 168.75 L 86.25 180.0 L 85.0 186.25 L 87.5 188.75 L 93.75 191.25 L 102.5 193.75 L 107.5 197.5 L 107.5 205.0 L 103.75 213.75 L 96.25 220.0 L 90.0 225.0 L 83.75 227.5 L 80.0 227.5 L 78.75 226.25 L 78.75 226.25 L 78.75 225.0 L 78.75 225.0 L 81.25 225.0 L 82.5 225.0 L 85.0 225.0 L 88.75 227.5 L 93.75 228.75 L 98.75 231.25 L 103.75 233.75 L 112.5 236.25 L 123.75 238.75 L 140.0 241.25 L 156.25 242.5 L 172.5 245.0 L 188.75 248.75 L 202.5 251.25 L 217.5 251.25 L 236.25 245.0 L 245.0 241.25 " stroke="black" fill="none" stroke-width="6.0" stroke-linecap="round" stroke-linejoin="round" />
</svg>