<svg xmlns="http://www.w3.org/2000/svg" width="300" height="300" viewBox="0 0 300 300">
<path d="M 85.0 101.25 L 76.25 106.25 L 75.0 106.25 L 80.0 106.25 L 92.5 102.5 L 107.5 95.0 L 120.0 87.5 L 126.25 82.5 L 125.0 82.5 " stroke="black" fill="none" stroke-width="6.0" stroke-linecap="round" stroke-linejoin="round" />
<path d="M 86.25 110.0 L 83.75 116.25 L 83.75 126.25 L 83.75 136.25 L 85.0 145.0 L 86.25 147.5 " stroke="black" fill="none" stroke-width="6.0" stroke-linecap="round" stroke-linejoin="round" />
<path d="M 98.75 105.0 L 98.75 105.0 L 98.75 106.25 L 98.75 112.5 L 96.25 127.5 L 93.75 141.25 L 92.5 146.25 " stroke="black" fill="none" stroke-width="6.0" stroke-linecap="round" stroke-linejoin="round" />
<path d="M 118.75 101.25 L 118.75 102.5 L 115.0 108.75 L 106.25 123.75 L 96.25 140.0 L 86.25 152.5 L 75.0 160.0 L 68.75 162.5 L 67.5 162.5 L 76.25 161.25 L 88.75 158.75 L 101.25 156.25 L 113.75 155.0 L 126.25 153.75 L 133.75 160.0 L 135.0 175.0 L 125.0 196.25 L 110.0 217.5 L 96.25 236.25 L 86.25 245.0 L 80.0 246.25 " stroke="black" fill="none" stroke-width="6.0" stroke-linecap="round" stroke-linejoin="round" />
<path d="M 105.0 162.5 L 101.25 165.0 L 95.0 172.5 L 87.5 187.5 L 80.0 206.25 L 76.25 215.0 L 76.25 215.0 " stroke="black" fill="none" stroke-width="6.0" stroke-linecap="round" stroke-linejoin="round" />
<path d="M 121.25 165.0 L 113.75 175.0 L 102.5 188.75 L 91.25 205.0 L 85.0 217.5 " stroke="black" fill="none" stroke-width="6.0" stroke-linecap="round" stroke-linejoin="round" />
<path d="M 156.25 90.0 L 153.75 91.25 L 150.0 92.5 L 151.25 92.5 L 165.0 92.5 L 183.75 87.5 L 201.25 82.5 L 210.0 76.25 L 208.75 75.0 L 196.25 81.25 L 182.5 88.75 L 167.5 95.0 L 158.75 103.75 L 155.0 116.25 L 156.25 135.0 L 160.0 155.0 L 163.75 167.5 L 166.25 171.25 L 166.25 170.0 L 165.0 165.0 " stroke="black" fill="none" stroke-width="6.0" stroke-linecap="round" stroke-linejoin="round" />
<path d="M 160.0 125.0 L 160.0 122.5 L 161.25 118.75 L 170.0 115.0 L 188.75 112.5 L 205.0 113.75 L 215.0 123.75 L 213.75 138.75 L 205.0 152.5 L 193.75 162.5 L 182.5 167.5 L 178.75 167.5 " stroke="black" fill="none" stroke-width="6.0" stroke-linecap="round" stroke-linejoin="round" />
<path d="M 156.25 150.0 L 156.25 151.25 L 156.25 151.25 L 158.75 151.25 L 172.5 146.25 L 192.5 138.75 L 206.25 132.5 L 208.75 131.25 " stroke="black" fill="none" stroke-width="6.0" stroke-linecap="round" stroke-linejoin="round" />
<path d="M 157.5 182.5 L 156.25 185.0 L 156.25 186.25 L 167.5 178.75 L 186.25 166.25 L 205.0 151.25 L 212.5 143.75 L 212.5 142.5 " stroke="black" fill="none" stroke-width="6.0" stroke-linecap="round" stroke-linejoin="round" />
<path d="M 173.75 192.5 L 165.0 216.25 L 162.5 237.5 L 162.5 247.5 L 166.25 248.75 L 170.0 242.5 " stroke="black" fill="none" stroke-width="6.0" stroke-linecap="round" stroke-linejoin="round" />
<path d="M 196.25 166.25 L 196.25 165.0 L 198.75 167.5 L 202.5 185.0 L 208.75 212.5 L 216.25 233.75 L 223.75 242.5 L 231.25 243.75 L 237.5 243.75 L 240.0 242.5 L 240.0 242.5 L 240.0 242.5 L 240.0 242.5 L 240.0 241.25 L 240.0 238.75 L 242.5 232.5 L 247.5 215.0 L 256.25 178.75 L 258.75 153.75 " stroke="black" fill="none" stroke-width="6.0" stroke-linecap="round" stroke-linejoin="round" />
</svg>