<svg xmlns="http://www.w3.org/2000/svg" width="300" height="300" viewBox="0 0 300 300">
<path d="M 95.0 142.5 L 93.75 145.0 L 97.5 145.0 L 118.75 141.25 L 152.5 128.75 L 182.5 110.0 L 195.0 97.5 L 195.0 93.75 " stroke="black" fill="none" stroke-width="6.0" stroke-linecap="round" stroke-linejoin="round" />
<path d="M 147.5 97.5 L 146.25 102.5 L 145.0 118.75 L 145.0 151.25 L 141.25 188.75 L 131.25 212.5 L 117.5 223.75 L 105.0 227.5 L 102.5 227.5 " stroke="black" fill="none" stroke-width="6.0" stroke-linecap="round" stroke-linejoin="round" />
<path d="M 145.0 150.0 L 145.0 150.0 L 147.5 152.5 L 155.0 165.0 L 170.0 188.75 L 182.5 207.5 L 198.75 227.5 L 207.5 237.5 L 217.5 243.75 L 225.0 246.25 L 230.0 247.5 L 232.5 247.5 L 232.5 248.75 L 230.0 250.0 " stroke="black" fill="none" stroke-width="6.0" stroke-linecap="round" stroke-linejoin="round" />
</svg>