<svg xmlns="http://www.w3.org/2000/svg" width="300" height="300" viewBox="0 0 300 300">
<path d="M 120.0 116.25 L 116.25 116.25 L 112.5 116.25 L 111.25 116.25 L 123.75 115.0 L 145.0 108.75 L 168.75 100.0 L 186.25 92.5 L 187.5 91.25 L 180.0 92.5 " stroke="black" fill="none" stroke-width="6.0" stroke-linecap="round" stroke-linejoin="round" />
<path d="M 105.0 175.0 L 102.5 178.75 L 105.0 181.25 L 122.5 181.25 L 146.25 170.0 L 163.75 155.0 L 172.5 142.5 L 167.5 136.25 " stroke="black" fill="none" stroke-width="6.0" stroke-linecap="round" stroke-linejoin="round" />
<path d="M 136.25 127.5 L 136.25 130.0 L 136.25 132.5 L 138.75 140.0 L 146.25 157.5 L 150.0 186.25 L 150.0 203.75 L 146.25 211.25 L 138.75 213.75 L 127.5 217.5 L 113.75 221.25 L 103.75 225.0 L 98.75 226.25 L 98.75 226.25 L 98.75 226.25 L 100.0 226.25 L 102.5 226.25 L 105.0 226.25 L 107.5 226.25 L 110.0 226.25 L 113.75 225.0 L 118.75 225.0 L 128.75 222.5 L 150.0 218.75 L 183.75 213.75 L 211.25 211.25 L 221.25 210.0 L 223.75 208.75 L 223.75 206.25 L 216.25 205.0 " stroke="black" fill="none" stroke-width="6.0" stroke-linecap="round" stroke-linejoin="round" />
</svg>