<svg xmlns="http://www.w3.org/2000/svg" width="300" height="300" viewBox="0 0 300 300">
<path d="M 103.75 112.5 L 103.75 113.75 L 105.0 115.0 L 117.5 115.0 L 145.0 113.75 L 175.0 106.25 L 193.75 101.25 L 195.0 100.0 " stroke="black" fill="none" stroke-width="6.0" stroke-linecap="round" stroke-linejoin="round" />
<path d="M 120.0 176.25 L 120.0 177.5 L 121.25 178.75 L 133.75 176.25 L 157.5 165.0 L 182.5 151.25 L 195.0 142.5 L 193.75 140.0 " stroke="black" fill="none" stroke-width="6.0" stroke-linecap="round" stroke-linejoin="round" />
<path d="M 142.5 128.75 L 142.5 131.25 L 143.75 140.0 L 150.0 165.0 L 152.5 197.5 L 151.25 213.75 L 145.0 221.25 L 132.5 226.25 L 117.5 230.0 L 103.75 233.75 L 100.0 235.0 L 100.0 235.0 L 102.5 235.0 L 107.5 235.0 L 116.25 236.25 L 128.75 236.25 L 147.5 236.25 L 172.5 232.5 L 201.25 226.25 L 225.0 222.5 L 242.5 221.25 L 253.75 221.25 L 256.25 222.5 " stroke="black" fill="none" stroke-width="6.0" stroke-linecap="round" stroke-linejoin="round" />
</svg>