<svg xmlns="http://www.w3.org/2000/svg" width="300" height="300" viewBox="0 0 300 300">
<path d="M 110.0 106.25 L 110.0 107.5 L 108.75 108.75 L 118.75 110.0 L 142.5 110.0 L 171.25 106.25 L 191.25 101.25 L 196.25 97.5 L 195.0 97.5 " stroke="black" fill="none" stroke-width="6.0" stroke-linecap="round" stroke-linejoin="round" />
<path d="M 106.25 183.75 L 106.25 185.0 L 106.25 188.75 L 120.0 190.0 L 148.75 181.25 L 178.75 167.5 L 198.75 152.5 L 202.5 143.75 L 202.5 142.5 " stroke="black" fill="none" stroke-width="6.0" stroke-linecap="round" stroke-linejoin="round" />
<path d="M 153.75 130.0 L 153.75 130.0 L 153.75 130.0 L 155.0 135.0 L 160.0 161.25 L 161.25 200.0 L 156.25 221.25 L 148.75 230.0 L 137.5 233.75 L 123.75 237.5 L 113.75 238.75 L 110.0 238.75 L 110.0 238.75 L 112.5 238.75 L 121.25 238.75 L 137.5 238.75 L 160.0 238.75 L 188.75 240.0 L 213.75 241.25 L 231.25 242.5 L 240.0 240.0 L 243.75 235.0 L 245.0 231.25 " stroke="black" fill="none" stroke-width="6.0" stroke-linecap="round" stroke-linejoin="round" />
</svg>