<svg xmlns="http://www.w3.org/2000/svg" width="300" height="300" viewBox="0 0 300 300">
<path d="M 108.75 106.25 L 108.75 106.25 L 107.5 106.25 L 115.0 108.75 L 135.0 110.0 L 163.75 108.75 L 190.0 102.5 L 203.75 98.75 L 202.5 96.25 L 197.5 96.25 " stroke="black" fill="none" stroke-width="6.0" stroke-linecap="round" stroke-linejoin="round" />
<path d="M 111.25 172.5 L 111.25 173.75 L 115.0 175.0 L 132.5 173.75 L 157.5 162.5 L 181.25 150.0 L 193.75 138.75 L 190.0 136.25 " stroke="black" fill="none" stroke-width="6.0" stroke-linecap="round" stroke-linejoin="round" />
<path d="M 145.0 125.0 L 145.0 126.25 L 145.0 130.0 L 148.75 146.25 L 153.75 177.5 L 155.0 203.75 L 148.75 221.25 L 137.5 231.25 L 122.5 235.0 L 103.75 238.75 L 93.75 238.75 L 92.5 238.75 L 93.75 238.75 L 96.25 237.5 L 103.75 237.5 L 115.0 237.5 L 130.0 237.5 L 148.75 236.25 L 171.25 232.5 L 195.0 231.25 L 213.75 232.5 L 228.75 236.25 L 242.5 238.75 L 250.0 238.75 L 252.5 238.75 " stroke="black" fill="none" stroke-width="6.0" stroke-linecap="round" stroke-linejoin="round" />
</svg>