<svg xmlns="http://www.w3.org/2000/svg" width="300" height="300" viewBox="0 0 300 300">
<path d="M 67.5 102.5 L 67.5 102.5 L 66.25 103.75 L 68.75 103.75 L 80.0 102.5 L 91.25 98.75 L 100.0 96.25 L 101.25 95.0 L 100.0 96.25 " stroke="black" fill="none" stroke-width="6.0" stroke-linecap="round" stroke-linejoin="round" />
<path d="M 53.75 157.5 L 55.0 161.25 L 57.5 161.25 L 72.5 155.0 L 91.25 138.75 L 103.75 125.0 L 107.5 115.0 L 103.75 112.5 L 96.25 113.75 L 91.25 117.5 L 87.5 123.75 L 86.25 138.75 L 90.0 175.0 L 97.5 220.0 L 100.0 243.75 L 100.0 246.25 L 98.75 242.5 L 93.75 235.0 L 87.5 223.75 L 76.25 213.75 L 62.5 206.25 L 55.0 203.75 L 55.0 203.75 L 68.75 201.25 L 88.75 188.75 L 111.25 165.0 L 135.0 138.75 L 143.75 126.25 " stroke="black" fill="none" stroke-width="6.0" stroke-linecap="round" stroke-linejoin="round" />
<path d="M 145.0 88.75 L 143.75 88.75 L 141.25 88.75 L 141.25 96.25 L 145.0 115.0 L 148.75 133.75 L 151.25 140.0 L 152.5 140.0 " stroke="black" fill="none" stroke-width="6.0" stroke-linecap="round" stroke-linejoin="round" />
<path d="M 172.5 72.5 L 173.75 71.25 L 175.0 68.75 L 177.5 73.75 L 178.75 90.0 L 175.0 108.75 L 167.5 126.25 L 157.5 136.25 " stroke="black" fill="none" stroke-width="6.0" stroke-linecap="round" stroke-linejoin="round" />
<path d="M 143.75 136.25 L 143.75 137.5 L 143.75 145.0 L 145.0 162.5 L 147.5 183.75 L 148.75 192.5 L 148.75 193.75 L 148.75 187.5 L 146.25 180.0 L 145.0 168.75 L 145.0 156.25 L 151.25 145.0 L 162.5 133.75 L 177.5 130.0 L 186.25 131.25 L 185.0 143.75 L 172.5 160.0 L 157.5 178.75 L 142.5 195.0 L 136.25 201.25 L 138.75 200.0 L 150.0 190.0 L 162.5 176.25 L 175.0 163.75 L 181.25 160.0 L 175.0 176.25 L 162.5 201.25 L 148.75 228.75 L 141.25 246.25 L 141.25 247.5 L 142.5 242.5 " stroke="black" fill="none" stroke-width="6.0" stroke-linecap="round" stroke-linejoin="round" />
<path d="M 180.0 182.5 L 181.25 182.5 L 180.0 187.5 L 178.75 205.0 L 178.75 223.75 L 186.25 235.0 L 196.25 236.25 L 207.5 236.25 L 215.0 236.25 L 223.75 237.5 L 228.75 238.75 L 230.0 238.75 L 230.0 238.75 L 228.75 238.75 L 227.5 235.0 L 226.25 226.25 L 223.75 210.0 L 220.0 178.75 L 213.75 137.5 " stroke="black" fill="none" stroke-width="6.0" stroke-linecap="round" stroke-linejoin="round" />
</svg>