<svg xmlns="http://www.w3.org/2000/svg" width="300" height="300" viewBox="0 0 300 300">
<path d="M 112.5 110.0 L 115.0 113.75 L 120.0 115.0 L 133.75 117.5 L 152.5 117.5 L 170.0 112.5 L 185.0 105.0 L 196.25 98.75 L 200.0 95.0 L 198.75 95.0 L 190.0 98.75 " stroke="black" fill="none" stroke-width="6.0" stroke-linecap="round" stroke-linejoin="round" />
<path d="M 126.25 161.25 L 125.0 162.5 L 122.5 166.25 L 123.75 167.5 L 132.5 167.5 L 147.5 162.5 L 165.0 156.25 L 178.75 150.0 L 183.75 147.5 L 180.0 146.25 L 171.25 148.75 " stroke="black" fill="none" stroke-width="6.0" stroke-linecap="round" stroke-linejoin="round" />
<path d="M 81.25 237.5 L 77.5 237.5 L 73.75 238.75 L 72.5 238.75 L 81.25 240.0 L 100.0 240.0 L 131.25 237.5 L 170.0 235.0 L 200.0 233.75 L 218.75 233.75 L 228.75 233.75 L 232.5 233.75 L 233.75 233.75 L 233.75 233.75 L 232.5 233.75 " stroke="black" fill="none" stroke-width="6.0" stroke-linecap="round" stroke-linejoin="round" />
</svg>