<svg xmlns="http://www.w3.org/2000/svg" width="300" height="300" viewBox="0 0 300 300">
<path d="M 112.5 110.0 L 110.0 111.25 L 108.75 112.5 L 121.25 115.0 L 145.0 117.5 L 177.5 117.5 L 201.25 113.75 L 210.0 110.0 L 207.5 108.75 L 202.5 108.75 " stroke="black" fill="none" stroke-width="6.0" stroke-linecap="round" stroke-linejoin="round" />
<path d="M 123.75 167.5 L 123.75 168.75 L 123.75 170.0 L 131.25 171.25 L 147.5 170.0 L 171.25 165.0 L 196.25 158.75 L 206.25 156.25 L 205.0 156.25 L 200.0 158.75 " stroke="black" fill="none" stroke-width="6.0" stroke-linecap="round" stroke-linejoin="round" />
<path d="M 105.0 240.0 L 103.75 242.5 L 103.75 242.5 L 117.5 242.5 L 146.25 241.25 L 183.75 238.75 L 215.0 237.5 L 230.0 237.5 L 238.75 237.5 L 240.0 237.5 L 231.25 238.75 " stroke="black" fill="none" stroke-width="6.0" stroke-linecap="round" stroke-linejoin="round" />
</svg>