<svg xmlns="http://www.w3.org/2000/svg" width="300" height="300" viewBox="0 0 300 300">
<path d="M 105.0 108.75 L 105.0 111.25 L 102.5 112.5 L 105.0 115.0 L 123.75 115.0 L 151.25 113.75 L 183.75 110.0 L 203.75 106.25 L 205.0 105.0 L 200.0 105.0 " stroke="black" fill="none" stroke-width="6.0" stroke-linecap="round" stroke-linejoin="round" />
<path d="M 106.25 158.75 L 102.5 165.0 L 102.5 167.5 L 115.0 168.75 L 141.25 167.5 L 163.75 162.5 L 182.5 157.5 L 188.75 156.25 L 186.25 155.0 L 182.5 156.25 " stroke="black" fill="none" stroke-width="6.0" stroke-linecap="round" stroke-linejoin="round" />
<path d="M 67.5 242.5 L 67.5 243.75 L 67.5 247.5 L 72.5 250.0 L 92.5 251.25 L 128.75 250.0 L 163.75 247.5 L 191.25 246.25 L 210.0 246.25 L 215.0 245.0 L 215.0 245.0 L 213.75 245.0 L 210.0 241.25 " stroke="black" fill="none" stroke-width="6.0" stroke-linecap="round" stroke-linejoin="round" />
</svg>