<svg xmlns="http://www.w3.org/2000/svg" width="300" height="300" viewBox="0 0 300 300">
<path d="M 120.0 93.75 L 120.0 93.75 L 120.0 93.75 L 120.0 93.75 L 128.75 95.0 L 148.75 97.5 L 177.5 97.5 L 193.75 93.75 L 197.5 91.25 L 188.75 91.25 " stroke="black" fill="none" stroke-width="6.0" stroke-linecap="round" stroke-linejoin="round" />
<path d="M 120.0 157.5 L 120.0 157.5 L 120.0 158.75 L 127.5 158.75 L 146.25 157.5 L 172.5 153.75 L 190.0 150.0 L 196.25 148.75 L 195.0 150.0 L 192.5 150.0 " stroke="black" fill="none" stroke-width="6.0" stroke-linecap="round" stroke-linejoin="round" />
<path d="M 100.0 240.0 L 100.0 240.0 L 98.75 240.0 L 100.0 240.0 L 117.5 238.75 L 147.5 236.25 L 182.5 236.25 L 210.0 236.25 L 228.75 236.25 L 236.25 235.0 L 237.5 235.0 L 236.25 233.75 L 228.75 231.25 " stroke="black" fill="none" stroke-width="6.0" stroke-linecap="round" stroke-linejoin="round" />
</svg>