<svg xmlns="http://www.w3.org/2000/svg" width="300" height="300" viewBox="0 0 300 300">
<path d="M 95.0 108.75 L 96.25 110.0 L 96.25 112.5 L 101.25 112.5 L 118.75 113.75 L 150.0 110.0 L 177.5 103.75 L 195.0 100.0 L 200.0 97.5 L 196.25 97.5 L 192.5 98.75 " stroke="black" fill="none" stroke-width="6.0" stroke-linecap="round" stroke-linejoin="round" />
<path d="M 105.0 160.0 L 105.0 165.0 L 103.75 167.5 L 107.5 167.5 L 123.75 167.5 L 147.5 162.5 L 170.0 157.5 L 182.5 155.0 L 182.5 155.0 " stroke="black" fill="none" stroke-width="6.0" stroke-linecap="round" stroke-linejoin="round" />
<path d="M 65.0 246.25 L 60.0 247.5 L 57.5 248.75 L 56.25 248.75 L 63.75 248.75 L 81.25 247.5 L 105.0 246.25 L 141.25 242.5 L 175.0 242.5 L 202.5 243.75 L 215.0 245.0 L 220.0 245.0 L 223.75 245.0 L 223.75 245.0 L 222.5 245.0 L 218.75 246.25 " stroke="black" fill="none" stroke-width="6.0" stroke-linecap="round" stroke-linejoin="round" />
</svg>