<svg xmlns="http://www.w3.org/2000/svg" width="300" height="300" viewBox="0 0 300 300">
<path d="M 86.25 101.25 L 85.0 101.25 L 82.5 101.25 L 81.25 100.0 L 81.25 110.0 L 81.25 138.75 L 83.75 173.75 L 86.25 193.75 L 88.75 195.0 L 88.75 192.5 " stroke="black" fill="none" stroke-width="6.0" stroke-linecap="round" stroke-linejoin="round" />
<path d="M 85.0 105.0 L 85.0 100.0 L 86.25 95.0 L 96.25 88.75 L 110.0 86.25 L 123.75 88.75 L 132.5 107.5 L 133.75 137.5 L 133.75 167.5 L 132.5 186.25 L 132.5 191.25 L 132.5 191.25 L 128.75 183.75 " stroke="black" fill="none" stroke-width="6.0" stroke-linecap="round" stroke-linejoin="round" />
<path d="M 90.0 141.25 L 90.0 141.25 L 86.25 142.5 L 86.25 142.5 L 95.0 138.75 L 108.75 130.0 L 120.0 121.25 L 122.5 118.75 " stroke="black" fill="none" stroke-width="6.0" stroke-linecap="round" stroke-linejoin="round" />
<path d="M 90.0 162.5 L 87.5 165.0 L 88.75 165.0 L 97.5 157.5 L 111.25 148.75 L 122.5 141.25 L 122.5 140.0 " stroke="black" fill="none" stroke-width="6.0" stroke-linecap="round" stroke-linejoin="round" />
<path d="M 87.5 197.5 L 85.0 202.5 L 85.0 203.75 L 95.0 197.5 L 112.5 186.25 L 127.5 176.25 L 132.5 173.75 L 122.5 187.5 L 106.25 206.25 L 90.0 226.25 L 80.0 238.75 L 78.75 238.75 L 80.0 236.25 " stroke="black" fill="none" stroke-width="6.0" stroke-linecap="round" stroke-linejoin="round" />
<path d="M 116.25 200.0 L 117.5 200.0 L 120.0 201.25 L 127.5 205.0 L 140.0 213.75 L 153.75 221.25 L 163.75 223.75 L 165.0 222.5 " stroke="black" fill="none" stroke-width="6.0" stroke-linecap="round" stroke-linejoin="round" />
<path d="M 168.75 121.25 L 167.5 121.25 L 165.0 120.0 L 163.75 118.75 L 166.25 132.5 L 168.75 157.5 L 173.75 180.0 L 176.25 188.75 " stroke="black" fill="none" stroke-width="6.0" stroke-linecap="round" stroke-linejoin="round" />
<path d="M 221.25 82.5 L 221.25 82.5 L 221.25 82.5 L 220.0 83.75 L 220.0 111.25 L 220.0 166.25 L 221.25 206.25 L 225.0 227.5 L 228.75 243.75 L 228.75 246.25 L 228.75 246.25 L 226.25 245.0 L 218.75 240.0 L 205.0 232.5 L 185.0 221.25 L 170.0 213.75 " stroke="black" fill="none" stroke-width="6.0" stroke-linecap="round" stroke-linejoin="round" />
</svg>