<svg xmlns="http://www.w3.org/2000/svg" width="300" height="300" viewBox="0 0 300 300">
<path d="M 87.5 126.25 L 87.5 125.0 L 85.0 118.75 L 83.75 117.5 L 83.75 121.25 L 87.5 137.5 L 91.25 162.5 L 95.0 183.75 L 96.25 192.5 L 97.5 188.75 L 97.5 178.75 L 97.5 172.5 " stroke="black" fill="none" stroke-width="6.0" stroke-linecap="round" stroke-linejoin="round" />
<path d="M 88.75 130.0 L 85.0 127.5 L 81.25 126.25 L 81.25 126.25 L 86.25 123.75 L 96.25 118.75 L 111.25 112.5 L 126.25 111.25 L 136.25 122.5 L 137.5 143.75 L 130.0 163.75 L 120.0 180.0 L 111.25 187.5 L 106.25 185.0 " stroke="black" fill="none" stroke-width="6.0" stroke-linecap="round" stroke-linejoin="round" />
<path d="M 106.25 121.25 L 107.5 120.0 L 107.5 122.5 L 108.75 136.25 L 108.75 156.25 L 106.25 176.25 L 100.0 188.75 L 95.0 191.25 L 93.75 191.25 L 95.0 188.75 L 103.75 181.25 L 113.75 171.25 L 125.0 163.75 L 131.25 161.25 L 130.0 168.75 L 120.0 190.0 L 107.5 210.0 L 96.25 227.5 L 87.5 236.25 L 86.25 237.5 L 87.5 230.0 L 91.25 221.25 " stroke="black" fill="none" stroke-width="6.0" stroke-linecap="round" stroke-linejoin="round" />
<path d="M 108.75 201.25 L 111.25 201.25 L 115.0 202.5 L 121.25 210.0 L 127.5 220.0 L 131.25 226.25 L 133.75 228.75 L 133.75 228.75 " stroke="black" fill="none" stroke-width="6.0" stroke-linecap="round" stroke-linejoin="round" />
<path d="M 165.0 128.75 L 165.0 126.25 L 165.0 125.0 L 166.25 128.75 L 168.75 150.0 L 170.0 176.25 L 171.25 193.75 L 172.5 195.0 " stroke="black" fill="none" stroke-width="6.0" stroke-linecap="round" stroke-linejoin="round" />
<path d="M 206.25 88.75 L 206.25 87.5 L 207.5 87.5 L 207.5 93.75 L 207.5 123.75 L 208.75 166.25 L 211.25 203.75 L 215.0 225.0 L 216.25 237.5 L 216.25 243.75 L 216.25 243.75 L 215.0 243.75 L 210.0 242.5 L 201.25 238.75 L 190.0 235.0 L 171.25 230.0 L 166.25 228.75 " stroke="black" fill="none" stroke-width="6.0" stroke-linecap="round" stroke-linejoin="round" />
</svg>