<svg xmlns="http://www.w3.org/2000/svg" width="300" height="300" viewBox="0 0 300 300">
<path d="M 95.0 65.0 L 95.0 65.0 L 92.5 65.0 L 92.5 67.5 L 92.5 78.75 L 92.5 100.0 L 91.25 117.5 L 90.0 121.25 L 90.0 117.5 " stroke="black" fill="none" stroke-width="6.0" stroke-linecap="round" stroke-linejoin="round" />
<path d="M 93.75 86.25 L 93.75 86.25 L 93.75 86.25 L 98.75 86.25 L 113.75 82.5 L 133.75 76.25 L 145.0 72.5 L 145.0 72.5 " stroke="black" fill="none" stroke-width="6.0" stroke-linecap="round" stroke-linejoin="round" />
<path d="M 103.75 98.75 L 101.25 101.25 L 101.25 102.5 L 111.25 103.75 L 128.75 101.25 L 143.75 95.0 " stroke="black" fill="none" stroke-width="6.0" stroke-linecap="round" stroke-linejoin="round" />
<path d="M 173.75 51.25 L 173.75 52.5 L 170.0 57.5 L 166.25 67.5 L 160.0 87.5 L 155.0 105.0 L 151.25 111.25 " stroke="black" fill="none" stroke-width="6.0" stroke-linecap="round" stroke-linejoin="round" />
<path d="M 161.25 73.75 L 162.5 72.5 L 162.5 72.5 L 168.75 68.75 L 181.25 62.5 L 191.25 57.5 L 192.5 56.25 " stroke="black" fill="none" stroke-width="6.0" stroke-linecap="round" stroke-linejoin="round" />
<path d="M 157.5 88.75 L 153.75 92.5 L 155.0 95.0 L 166.25 95.0 L 185.0 91.25 L 203.75 82.5 L 206.25 80.0 " stroke="black" fill="none" stroke-width="6.0" stroke-linecap="round" stroke-linejoin="round" />
<path d="M 87.5 145.0 L 87.5 145.0 L 85.0 145.0 L 85.0 145.0 L 88.75 145.0 L 101.25 143.75 L 112.5 142.5 L 118.75 143.75 L 115.0 151.25 L 101.25 163.75 L 88.75 175.0 L 83.75 182.5 L 86.25 182.5 L 96.25 180.0 L 106.25 175.0 L 113.75 173.75 L 117.5 176.25 L 112.5 193.75 L 100.0 222.5 L 88.75 248.75 L 80.0 258.75 L 73.75 257.5 L 70.0 255.0 " stroke="black" fill="none" stroke-width="6.0" stroke-linecap="round" stroke-linejoin="round" />
<path d="M 65.0 196.25 L 62.5 196.25 L 61.25 197.5 L 68.75 201.25 L 88.75 213.75 L 121.25 231.25 L 152.5 241.25 L 176.25 243.75 L 195.0 243.75 L 202.5 242.5 L 205.0 240.0 " stroke="black" fill="none" stroke-width="6.0" stroke-linecap="round" stroke-linejoin="round" />
<path d="M 141.25 141.25 L 138.75 141.25 L 133.75 141.25 L 132.5 140.0 L 141.25 137.5 L 157.5 135.0 L 180.0 132.5 L 198.75 130.0 L 206.25 127.5 L 206.25 126.25 L 197.5 128.75 L 186.25 131.25 L 175.0 133.75 L 167.5 136.25 L 163.75 141.25 L 163.75 156.25 L 163.75 187.5 L 163.75 208.75 L 163.75 213.75 L 163.75 208.75 L 166.25 200.0 L 170.0 191.25 L 172.5 186.25 L 176.25 181.25 L 183.75 177.5 L 195.0 172.5 L 205.0 166.25 L 208.75 161.25 " stroke="black" fill="none" stroke-width="6.0" stroke-linecap="round" stroke-linejoin="round" />
<path d="M 137.5 171.25 L 132.5 177.5 L 131.25 187.5 L 140.0 205.0 L 153.75 218.75 L 172.5 221.25 L 195.0 215.0 L 211.25 205.0 L 220.0 200.0 L 225.0 197.5 L 225.0 197.5 " stroke="black" fill="none" stroke-width="6.0" stroke-linecap="round" stroke-linejoin="round" />
</svg>