<svg xmlns="http://www.w3.org/2000/svg" width="300" height="300" viewBox="0 0 300 300">
<path d="M 97.5 103.75 L 93.75 103.75 L 92.5 105.0 L 102.5 105.0 L 126.25 101.25 L 153.75 93.75 L 173.75 86.25 L 181.25 83.75 L 180.0 83.75 L 173.75 85.0 L 166.25 90.0 L 158.75 103.75 L 152.5 135.0 L 147.5 178.75 L 145.0 208.75 L 143.75 218.75 L 143.75 220.0 L 143.75 215.0 L 142.5 207.5 " stroke="black" fill="none" stroke-width="6.0" stroke-linecap="round" stroke-linejoin="round" />
<path d="M 102.5 168.75 L 101.25 170.0 L 97.5 171.25 L 101.25 171.25 L 123.75 168.75 L 152.5 162.5 L 186.25 157.5 L 206.25 160.0 L 208.75 172.5 L 203.75 192.5 L 191.25 208.75 L 180.0 221.25 L 166.25 231.25 L 151.25 237.5 " stroke="black" fill="none" stroke-width="6.0" stroke-linecap="round" stroke-linejoin="round" />
<path d="M 90.0 240.0 L 87.5 240.0 L 85.0 240.0 L 83.75 238.75 L 91.25 236.25 L 112.5 233.75 L 138.75 233.75 L 167.5 233.75 L 196.25 235.0 L 218.75 233.75 L 232.5 231.25 L 242.5 230.0 L 243.75 228.75 L 243.75 228.75 " stroke="black" fill="none" stroke-width="6.0" stroke-linecap="round" stroke-linejoin="round" />
</svg>