<svg xmlns="http://www.w3.org/2000/svg" width="300" height="300" viewBox="0 0 300 300">
<path d="M 115.0 111.25 L 113.75 111.25 L 108.75 113.75 L 111.25 115.0 L 130.0 115.0 L 157.5 110.0 L 183.75 101.25 L 198.75 95.0 L 201.25 92.5 L 198.75 92.5 L 191.25 92.5 L 183.75 96.25 L 176.25 103.75 L 168.75 117.5 L 161.25 150.0 L 156.25 193.75 L 152.5 220.0 L 151.25 231.25 L 150.0 232.5 L 148.75 225.0 L 147.5 218.75 " stroke="black" fill="none" stroke-width="6.0" stroke-linecap="round" stroke-linejoin="round" />
<path d="M 115.0 178.75 L 112.5 180.0 L 110.0 181.25 L 120.0 181.25 L 143.75 180.0 L 176.25 176.25 L 203.75 177.5 L 210.0 190.0 L 206.25 203.75 L 195.0 218.75 L 182.5 230.0 L 165.0 237.5 L 160.0 238.75 " stroke="black" fill="none" stroke-width="6.0" stroke-linecap="round" stroke-linejoin="round" />
<path d="M 97.5 248.75 L 95.0 248.75 L 95.0 250.0 L 103.75 248.75 L 131.25 241.25 L 166.25 233.75 L 212.5 228.75 L 235.0 232.5 L 255.0 236.25 L 262.5 237.5 L 265.0 238.75 " stroke="black" fill="none" stroke-width="6.0" stroke-linecap="round" stroke-linejoin="round" />
</svg>