<svg xmlns="http://www.w3.org/2000/svg" width="300" height="300" viewBox="0 0 300 300">
<path d="M 102.5 113.75 L 101.25 113.75 L 97.5 115.0 L 96.25 115.0 L 108.75 115.0 L 135.0 108.75 L 166.25 100.0 L 190.0 91.25 L 196.25 88.75 L 192.5 88.75 L 186.25 91.25 " stroke="black" fill="none" stroke-width="6.0" stroke-linecap="round" stroke-linejoin="round" />
<path d="M 148.75 113.75 L 147.5 115.0 L 146.25 121.25 L 145.0 142.5 L 142.5 183.75 L 137.5 215.0 L 132.5 227.5 L 127.5 230.0 L 126.25 228.75 " stroke="black" fill="none" stroke-width="6.0" stroke-linecap="round" stroke-linejoin="round" />
<path d="M 100.0 180.0 L 97.5 181.25 L 95.0 181.25 L 101.25 182.5 L 125.0 178.75 L 155.0 173.75 L 185.0 173.75 L 196.25 181.25 L 193.75 195.0 L 180.0 208.75 L 165.0 218.75 L 152.5 227.5 L 142.5 232.5 " stroke="black" fill="none" stroke-width="6.0" stroke-linecap="round" stroke-linejoin="round" />
<path d="M 91.25 241.25 L 88.75 242.5 L 85.0 243.75 L 83.75 243.75 L 87.5 243.75 L 101.25 242.5 L 126.25 237.5 L 158.75 231.25 L 191.25 225.0 L 211.25 222.5 L 220.0 222.5 L 225.0 222.5 L 226.25 222.5 L 225.0 222.5 " stroke="black" fill="none" stroke-width="6.0" stroke-linecap="round" stroke-linejoin="round" />
</svg>