<svg xmlns="http://www.w3.org/2000/svg" width="300" height="300" viewBox="0 0 300 300">
<path d="M 75.0 133.75 L 72.5 136.25 L 70.0 137.5 L 75.0 138.75 L 86.25 142.5 L 97.5 147.5 L 103.75 156.25 L 102.5 167.5 L 93.75 176.25 L 75.0 188.75 L 56.25 196.25 L 47.5 198.75 L 48.75 197.5 L 60.0 187.5 L 76.25 173.75 L 91.25 162.5 L 102.5 155.0 L 105.0 160.0 L 100.0 185.0 L 90.0 216.25 L 82.5 236.25 L 80.0 240.0 L 87.5 227.5 L 100.0 201.25 L 115.0 173.75 L 130.0 145.0 L 135.0 133.75 " stroke="black" fill="none" stroke-width="6.0" stroke-linecap="round" stroke-linejoin="round" />
<path d="M 137.5 105.0 L 136.25 105.0 L 133.75 108.75 L 133.75 113.75 L 135.0 128.75 L 138.75 150.0 L 142.5 165.0 L 143.75 171.25 " stroke="black" fill="none" stroke-width="6.0" stroke-linecap="round" stroke-linejoin="round" />
<path d="M 136.25 115.0 L 136.25 115.0 L 136.25 113.75 L 142.5 110.0 L 160.0 106.25 L 187.5 103.75 L 206.25 106.25 L 211.25 117.5 L 203.75 132.5 L 190.0 147.5 L 173.75 156.25 L 162.5 158.75 " stroke="black" fill="none" stroke-width="6.0" stroke-linecap="round" stroke-linejoin="round" />
<path d="M 141.25 151.25 L 141.25 151.25 L 140.0 151.25 L 142.5 148.75 L 156.25 140.0 L 180.0 130.0 L 198.75 120.0 L 201.25 118.75 " stroke="black" fill="none" stroke-width="6.0" stroke-linecap="round" stroke-linejoin="round" />
<path d="M 148.75 175.0 L 146.25 180.0 L 147.5 180.0 L 157.5 172.5 L 176.25 157.5 L 193.75 141.25 L 198.75 128.75 L 193.75 125.0 L 183.75 125.0 L 176.25 125.0 L 170.0 121.25 L 168.75 116.25 L 168.75 112.5 L 168.75 111.25 L 168.75 117.5 L 171.25 142.5 L 171.25 185.0 L 171.25 222.5 L 172.5 235.0 L 172.5 237.5 L 172.5 237.5 L 170.0 233.75 L 166.25 230.0 " stroke="black" fill="none" stroke-width="6.0" stroke-linecap="round" stroke-linejoin="round" />
<path d="M 137.5 216.25 L 135.0 218.75 L 135.0 218.75 L 146.25 213.75 L 168.75 202.5 L 193.75 191.25 L 210.0 182.5 L 213.75 181.25 L 213.75 181.25 " stroke="black" fill="none" stroke-width="6.0" stroke-linecap="round" stroke-linejoin="round" />
<path d="M 150.0 248.75 L 148.75 251.25 L 147.5 255.0 L 158.75 251.25 L 180.0 243.75 L 205.0 232.5 L 221.25 222.5 L 228.75 215.0 L 227.5 212.5 L 225.0 212.5 " stroke="black" fill="none" stroke-width="6.0" stroke-linecap="round" stroke-linejoin="round" />
</svg>