<svg xmlns="http://www.w3.org/2000/svg" width="300" height="300" viewBox="0 0 300 300">
<path d="M 101.25 96.25 L 97.5 97.5 L 97.5 97.5 L 107.5 98.75 L 123.75 100.0 L 136.25 101.25 L 141.25 105.0 L 136.25 110.0 " stroke="black" fill="none" stroke-width="6.0" stroke-linecap="round" stroke-linejoin="round" />
<path d="M 75.0 166.25 L 72.5 170.0 L 76.25 171.25 L 90.0 167.5 L 110.0 160.0 L 132.5 150.0 L 143.75 143.75 L 140.0 142.5 " stroke="black" fill="none" stroke-width="6.0" stroke-linecap="round" stroke-linejoin="round" />
<path d="M 117.5 136.25 L 115.0 136.25 L 113.75 142.5 L 120.0 171.25 L 126.25 213.75 L 127.5 236.25 L 127.5 241.25 L 126.25 241.25 L 123.75 237.5 L 117.5 232.5 L 106.25 226.25 L 95.0 218.75 L 85.0 213.75 L 80.0 212.5 L 80.0 212.5 L 88.75 212.5 L 107.5 207.5 L 133.75 196.25 L 156.25 178.75 L 168.75 162.5 L 172.5 152.5 L 172.5 146.25 L 171.25 141.25 L 168.75 140.0 L 166.25 140.0 L 166.25 142.5 L 166.25 156.25 L 168.75 183.75 L 172.5 208.75 L 175.0 221.25 L 176.25 222.5 L 176.25 212.5 L 176.25 207.5 " stroke="black" fill="none" stroke-width="6.0" stroke-linecap="round" stroke-linejoin="round" />
<path d="M 165.0 158.75 L 165.0 157.5 L 165.0 156.25 L 168.75 153.75 L 180.0 152.5 L 196.25 151.25 L 207.5 152.5 L 211.25 160.0 L 207.5 176.25 L 197.5 196.25 L 186.25 215.0 L 178.75 226.25 L 178.75 227.5 L 183.75 227.5 L 193.75 222.5 L 206.25 216.25 L 218.75 207.5 L 231.25 201.25 L 233.75 197.5 " stroke="black" fill="none" stroke-width="6.0" stroke-linecap="round" stroke-linejoin="round" />
</svg>