<svg xmlns="http://www.w3.org/2000/svg" width="300" height="300" viewBox="0 0 300 300">
<path d="M 90.0 103.75 L 90.0 103.75 L 90.0 103.75 L 90.0 103.75 L 102.5 105.0 L 122.5 105.0 L 138.75 103.75 L 140.0 102.5 " stroke="black" fill="none" stroke-width="6.0" stroke-linecap="round" stroke-linejoin="round" />
<path d="M 66.25 160.0 L 63.75 162.5 L 61.25 167.5 L 70.0 166.25 L 91.25 157.5 L 120.0 141.25 L 143.75 126.25 L 148.75 118.75 L 142.5 120.0 L 132.5 122.5 L 122.5 123.75 L 113.75 123.75 L 110.0 126.25 L 108.75 137.5 L 117.5 172.5 L 122.5 213.75 L 123.75 237.5 L 122.5 242.5 L 120.0 240.0 L 112.5 235.0 L 101.25 228.75 L 88.75 223.75 L 77.5 220.0 L 72.5 218.75 L 76.25 218.75 L 92.5 211.25 L 118.75 197.5 L 147.5 176.25 L 170.0 151.25 L 178.75 136.25 L 180.0 132.5 L 176.25 130.0 L 175.0 130.0 L 175.0 132.5 L 176.25 151.25 L 181.25 177.5 L 186.25 197.5 L 190.0 205.0 L 191.25 202.5 L 186.25 192.5 " stroke="black" fill="none" stroke-width="6.0" stroke-linecap="round" stroke-linejoin="round" />
<path d="M 172.5 148.75 L 173.75 142.5 L 178.75 137.5 L 192.5 133.75 L 208.75 132.5 L 221.25 136.25 L 225.0 148.75 L 216.25 166.25 L 201.25 188.75 L 188.75 205.0 L 186.25 211.25 L 198.75 211.25 L 220.0 202.5 L 245.0 190.0 L 262.5 180.0 L 265.0 177.5 " stroke="black" fill="none" stroke-width="6.0" stroke-linecap="round" stroke-linejoin="round" />
</svg>