<svg xmlns="http://www.w3.org/2000/svg" width="300" height="300" viewBox="0 0 300 300">
<path d="M 100.0 106.25 L 96.25 107.5 L 95.0 108.75 L 98.75 107.5 L 120.0 100.0 L 148.75 87.5 L 175.0 73.75 L 185.0 66.25 L 180.0 65.0 L 177.5 65.0 " stroke="black" fill="none" stroke-width="6.0" stroke-linecap="round" stroke-linejoin="round" />
<path d="M 130.0 80.0 L 125.0 82.5 L 122.5 88.75 L 123.75 102.5 L 128.75 118.75 L 133.75 126.25 L 136.25 122.5 " stroke="black" fill="none" stroke-width="6.0" stroke-linecap="round" stroke-linejoin="round" />
<path d="M 161.25 67.5 L 161.25 67.5 L 161.25 72.5 L 156.25 91.25 L 147.5 117.5 L 140.0 136.25 L 135.0 141.25 " stroke="black" fill="none" stroke-width="6.0" stroke-linecap="round" stroke-linejoin="round" />
<path d="M 96.25 157.5 L 92.5 161.25 L 90.0 162.5 L 92.5 162.5 L 106.25 156.25 L 131.25 145.0 L 162.5 126.25 L 188.75 108.75 L 196.25 102.5 L 188.75 101.25 L 186.25 102.5 " stroke="black" fill="none" stroke-width="6.0" stroke-linecap="round" stroke-linejoin="round" />
<path d="M 142.5 127.5 L 132.5 141.25 L 122.5 173.75 L 107.5 220.0 L 95.0 248.75 L 87.5 258.75 L 82.5 257.5 L 82.5 250.0 " stroke="black" fill="none" stroke-width="6.0" stroke-linecap="round" stroke-linejoin="round" />
<path d="M 117.5 168.75 L 122.5 165.0 L 127.5 167.5 L 135.0 185.0 L 145.0 213.75 L 151.25 236.25 L 156.25 241.25 L 157.5 241.25 L 157.5 241.25 L 156.25 237.5 L 153.75 230.0 L 148.75 221.25 L 145.0 213.75 L 141.25 207.5 L 137.5 205.0 L 136.25 203.75 L 136.25 205.0 L 142.5 203.75 L 153.75 196.25 L 177.5 185.0 L 202.5 173.75 L 216.25 170.0 L 216.25 176.25 L 206.25 192.5 L 193.75 212.5 L 177.5 231.25 L 163.75 246.25 L 161.25 248.75 L 168.75 246.25 L 183.75 238.75 L 202.5 228.75 L 220.0 218.75 L 230.0 212.5 " stroke="black" fill="none" stroke-width="6.0" stroke-linecap="round" stroke-linejoin="round" />
</svg>