<svg xmlns="http://www.w3.org/2000/svg" width="300" height="300" viewBox="0 0 300 300">
<path d="M 95.0 92.5 L 95.0 93.75 L 93.75 93.75 L 101.25 95.0 L 130.0 90.0 L 163.75 78.75 L 190.0 66.25 L 198.75 58.75 L 193.75 58.75 " stroke="black" fill="none" stroke-width="6.0" stroke-linecap="round" stroke-linejoin="round" />
<path d="M 125.0 68.75 L 120.0 71.25 L 117.5 76.25 L 120.0 91.25 L 127.5 110.0 L 135.0 122.5 L 137.5 122.5 " stroke="black" fill="none" stroke-width="6.0" stroke-linecap="round" stroke-linejoin="round" />
<path d="M 160.0 63.75 L 158.75 67.5 L 156.25 76.25 L 152.5 92.5 L 147.5 113.75 L 140.0 130.0 " stroke="black" fill="none" stroke-width="6.0" stroke-linecap="round" stroke-linejoin="round" />
<path d="M 83.75 161.25 L 80.0 165.0 L 76.25 168.75 L 82.5 170.0 L 100.0 165.0 L 128.75 151.25 L 161.25 132.5 L 190.0 115.0 L 200.0 106.25 L 198.75 105.0 L 188.75 106.25 L 176.25 110.0 L 162.5 116.25 L 148.75 126.25 L 133.75 150.0 L 118.75 197.5 L 107.5 242.5 L 103.75 260.0 L 103.75 262.5 L 103.75 260.0 L 103.75 250.0 " stroke="black" fill="none" stroke-width="6.0" stroke-linecap="round" stroke-linejoin="round" />
<path d="M 125.0 185.0 L 123.75 185.0 L 122.5 185.0 L 122.5 186.25 L 131.25 198.75 L 142.5 220.0 L 153.75 237.5 L 157.5 243.75 L 158.75 243.75 L 157.5 238.75 L 153.75 231.25 L 151.25 220.0 L 146.25 208.75 L 141.25 201.25 L 133.75 198.75 L 130.0 198.75 L 133.75 200.0 L 147.5 196.25 L 168.75 188.75 L 193.75 181.25 L 207.5 180.0 L 208.75 185.0 L 201.25 197.5 L 188.75 213.75 L 172.5 228.75 L 158.75 241.25 L 155.0 246.25 L 157.5 245.0 L 167.5 242.5 L 182.5 237.5 L 197.5 230.0 L 208.75 226.25 L 215.0 223.75 L 216.25 223.75 L 216.25 223.75 " stroke="black" fill="none" stroke-width="6.0" stroke-linecap="round" stroke-linejoin="round" />
</svg>