<svg xmlns="http://www.w3.org/2000/svg" width="300" height="300" viewBox="0 0 300 300">
<path d="M 156.25 93.75 L 156.25 95.0 L 151.25 95.0 L 151.25 95.0 L 158.75 95.0 L 173.75 90.0 L 188.75 83.75 L 197.5 80.0 L 196.25 78.75 L 188.75 78.75 L 178.75 78.75 L 168.75 78.75 L 160.0 76.25 L 157.5 76.25 L 156.25 75.0 L 161.25 81.25 L 167.5 91.25 L 171.25 102.5 L 171.25 111.25 L 163.75 118.75 L 153.75 125.0 L 142.5 130.0 L 136.25 132.5 L 135.0 132.5 L 140.0 131.25 L 153.75 122.5 L 175.0 110.0 L 198.75 97.5 L 211.25 91.25 L 212.5 90.0 L 205.0 93.75 L 198.75 97.5 " stroke="black" fill="none" stroke-width="6.0" stroke-linecap="round" stroke-linejoin="round" />
<path d="M 161.25 125.0 L 160.0 126.25 L 156.25 130.0 L 156.25 136.25 L 158.75 150.0 L 161.25 165.0 L 162.5 172.5 L 163.75 173.75 L 163.75 167.5 L 162.5 157.5 L 161.25 150.0 L 161.25 143.75 L 158.75 140.0 L 157.5 137.5 L 157.5 137.5 L 161.25 137.5 L 171.25 137.5 L 182.5 136.25 L 187.5 135.0 L 187.5 136.25 L 180.0 145.0 L 168.75 153.75 L 157.5 162.5 L 151.25 167.5 L 150.0 167.5 L 156.25 165.0 L 168.75 157.5 L 180.0 151.25 L 188.75 147.5 L 191.25 146.25 L 191.25 146.25 L 188.75 147.5 L 187.5 148.75 L 186.25 148.75 L 186.25 150.0 L 186.25 150.0 L 187.5 150.0 L 190.0 150.0 L 191.25 150.0 L 191.25 150.0 L 191.25 150.0 L 191.25 150.0 L 191.25 150.0 L 191.25 150.0 L 190.0 150.0 L 190.0 150.0 L 188.75 150.0 L 188.75 150.0 " stroke="black" fill="none" stroke-width="6.0" stroke-linecap="round" stroke-linejoin="round" />
<path d="M 133.75 190.0 L 132.5 191.25 L 128.75 192.5 L 131.25 193.75 L 145.0 190.0 L 165.0 178.75 L 191.25 160.0 L 207.5 146.25 L 210.0 142.5 L 205.0 143.75 L 197.5 148.75 L 188.75 157.5 L 177.5 172.5 L 162.5 196.25 L 152.5 225.0 L 150.0 240.0 L 151.25 241.25 L 152.5 235.0 " stroke="black" fill="none" stroke-width="6.0" stroke-linecap="round" stroke-linejoin="round" />
<path d="M 168.75 190.0 L 167.5 192.5 L 167.5 200.0 L 170.0 218.75 L 173.75 238.75 L 180.0 245.0 L 188.75 242.5 L 200.0 228.75 L 210.0 212.5 L 220.0 197.5 L 223.75 187.5 L 222.5 186.25 L 213.75 187.5 L 201.25 193.75 L 191.25 200.0 L 180.0 206.25 L 175.0 211.25 L 175.0 211.25 L 176.25 211.25 L 178.75 211.25 L 180.0 211.25 L 182.5 211.25 L 182.5 211.25 L 183.75 211.25 L 183.75 211.25 L 183.75 211.25 L 183.75 211.25 L 183.75 211.25 L 185.0 211.25 L 188.75 211.25 L 198.75 213.75 L 213.75 217.5 L 222.5 218.75 " stroke="black" fill="none" stroke-width="6.0" stroke-linecap="round" stroke-linejoin="round" />
<path d="M 87.5 130.0 L 83.75 131.25 L 78.75 132.5 L 81.25 133.75 L 90.0 136.25 L 102.5 140.0 L 108.75 142.5 " stroke="black" fill="none" stroke-width="6.0" stroke-linecap="round" stroke-linejoin="round" />
<path d="M 85.0 172.5 L 83.75 173.75 L 81.25 176.25 L 82.5 176.25 L 90.0 176.25 L 98.75 176.25 L 103.75 175.0 L 105.0 176.25 L 100.0 183.75 L 92.5 193.75 L 87.5 201.25 L 87.5 206.25 L 90.0 208.75 L 97.5 211.25 L 105.0 216.25 L 107.5 223.75 L 107.5 235.0 L 101.25 242.5 L 93.75 247.5 L 87.5 248.75 L 80.0 248.75 L 76.25 246.25 L 75.0 245.0 L 75.0 245.0 L 76.25 243.75 L 81.25 243.75 L 87.5 243.75 L 96.25 243.75 L 108.75 243.75 L 126.25 243.75 L 142.5 245.0 L 155.0 247.5 L 168.75 248.75 L 186.25 248.75 L 205.0 248.75 L 220.0 251.25 L 233.75 255.0 L 246.25 260.0 L 253.75 262.5 L 261.25 261.25 " stroke="black" fill="none" stroke-width="6.0" stroke-linecap="round" stroke-linejoin="round" />
</svg>