<svg xmlns="http://www.w3.org/2000/svg" width="300" height="300" viewBox="0 0 300 300">
<path d="M 126.25 111.25 L 126.25 111.25 L 126.25 108.75 L 125.0 106.25 L 125.0 105.0 L 123.75 105.0 L 126.25 125.0 L 128.75 166.25 L 132.5 206.25 L 136.25 223.75 L 137.5 231.25 L 137.5 230.0 L 137.5 227.5 " stroke="black" fill="none" stroke-width="6.0" stroke-linecap="round" stroke-linejoin="round" />
<path d="M 126.25 107.5 L 126.25 107.5 L 123.75 108.75 L 121.25 108.75 L 121.25 108.75 L 125.0 107.5 L 140.0 103.75 L 165.0 102.5 L 193.75 105.0 L 212.5 120.0 L 211.25 148.75 L 200.0 176.25 L 182.5 201.25 L 161.25 220.0 L 145.0 232.5 L 137.5 236.25 L 136.25 235.0 L 138.75 222.5 L 138.75 218.75 " stroke="black" fill="none" stroke-width="6.0" stroke-linecap="round" stroke-linejoin="round" />
</svg>