<svg xmlns="http://www.w3.org/2000/svg" width="300" height="300" viewBox="0 0 300 300">
<path d="M 149.99999999999972 132.5 L 148.74999999999972 132.5 L 147.49999999999972 132.5 L 147.49999999999972 131.25 L 147.49999999999972 131.25 L 148.74999999999972 130.0 L 151.24999999999972 130.0 L 152.49999999999972 132.5 L 152.49999999999972 135.0 L 152.49999999999972 137.5 L 151.24999999999972 140.0 L 149.99999999999972 141.25 L 147.49999999999972 141.25 L 146.24999999999972 141.25 L 146.24999999999972 138.75 L 147.49999999999972 136.25 L 149.99999999999972 135.0 L 152.49999999999972 133.75 L 153.74999999999972 136.25 L 153.74999999999972 140.0 L 153.74999999999972 142.5 L 151.24999999999972 145.0 L 149.99999999999972 145.0 L 147.49999999999972 145.0 L 147.49999999999972 142.5 L 147.49999999999972 138.75 L 148.74999999999972 135.0 L 151.24999999999972 133.75 L 153.74999999999972 132.5 L 156.24999999999972 135.0 L 156.24999999999972 138.75 L 154.99999999999972 142.5 L 152.49999999999972 143.75 " stroke="black" fill="none" stroke-width="6.0" stroke-linecap="round" stroke-linejoin="round" />
<path d="M 152.49999999999972 183.75 L 151.24999999999972 181.25 L 151.24999999999972 180.0 L 149.99999999999972 180.0 L 151.24999999999972 182.5 L 152.49999999999972 195.0 L 152.49999999999972 217.5 L 152.49999999999972 245.0 L 151.24999999999972 260.0 L 151.24999999999972 263.75 L 151.24999999999972 262.5 L 151.24999999999972 260.0 L 151.24999999999972 256.25 " stroke="black" fill="none" stroke-width="6.0" stroke-linecap="round" stroke-linejoin="round" />
</svg>