<svg xmlns="http://www.w3.org/2000/svg" width="300" height="300" viewBox="0 0 300 300">
<path d="M 123.75 92.5 L 121.25 93.75 L 116.25 95.0 L 115.0 96.25 L 117.5 96.25 L 130.0 93.75 L 143.75 88.75 L 155.0 82.5 L 161.25 78.75 L 161.25 77.5 L 155.0 78.75 L 150.0 82.5 " stroke="black" fill="none" stroke-width="6.0" stroke-linecap="round" stroke-linejoin="round" />
<path d="M 143.75 87.5 L 143.75 86.25 L 143.75 85.0 L 143.75 83.75 L 143.75 83.75 L 143.75 82.5 L 143.75 83.75 L 145.0 96.25 L 145.0 135.0 L 143.75 178.75 L 142.5 201.25 L 142.5 207.5 L 142.5 208.75 L 142.5 208.75 L 142.5 206.25 L 143.75 203.75 L 143.75 201.25 " stroke="black" fill="none" stroke-width="6.0" stroke-linecap="round" stroke-linejoin="round" />
<path d="M 127.5 210.0 L 126.25 211.25 L 125.0 211.25 L 125.0 211.25 L 130.0 211.25 L 140.0 210.0 L 150.0 206.25 L 166.25 197.5 L 173.75 193.75 L 175.0 193.75 " stroke="black" fill="none" stroke-width="6.0" stroke-linecap="round" stroke-linejoin="round" />
</svg>