<svg xmlns="http://www.w3.org/2000/svg" width="300" height="300" viewBox="0 0 300 300">
<path d="M 97.49999999999972 111.25 L 97.49999999999972 111.25 L 94.99999999999972 110.0 L 93.74999999999972 110.0 L 94.99999999999972 110.0 L 103.74999999999972 117.5 L 117.49999999999972 133.75 L 136.24999999999972 157.5 L 152.49999999999972 183.75 L 164.99999999999972 200.0 L 176.24999999999972 208.75 L 183.74999999999972 213.75 L 184.99999999999972 216.25 L 186.24999999999972 216.25 L 186.24999999999972 216.25 L 181.24999999999972 215.0 L 177.49999999999972 213.75 " stroke="black" fill="none" stroke-width="6.0" stroke-linecap="round" stroke-linejoin="round" />
<path d="M 209.99999999999972 103.75 L 208.74999999999972 102.5 L 206.24999999999972 101.25 L 201.24999999999972 105.0 L 186.24999999999972 121.25 L 159.99999999999972 150.0 L 129.99999999999972 183.75 L 104.99999999999972 206.25 L 91.24999999999972 220.0 L 87.49999999999972 227.5 L 88.74999999999972 227.5 L 93.74999999999972 226.25 L 99.99999999999972 220.0 L 101.24999999999972 213.75 " stroke="black" fill="none" stroke-width="6.0" stroke-linecap="round" stroke-linejoin="round" />
</svg>