<svg xmlns="http://www.w3.org/2000/svg" width="300" height="300" viewBox="0 0 300 300">
<path d="M 152.5 98.75 L 153.75 97.5 L 156.25 95.0 L 156.25 92.5 L 155.0 93.75 L 150.0 105.0 L 142.5 131.25 L 132.5 170.0 L 123.75 208.75 L 122.5 227.5 L 122.5 233.75 L 122.5 232.5 " stroke="black" fill="none" stroke-width="6.0" stroke-linecap="round" stroke-linejoin="round" />
<path d="M 157.5 93.75 L 158.75 91.25 L 158.75 90.0 L 158.75 88.75 L 158.75 86.25 L 160.0 85.0 L 165.0 85.0 L 173.75 92.5 L 187.5 123.75 L 198.75 175.0 L 203.75 216.25 L 205.0 240.0 L 205.0 251.25 L 202.5 255.0 L 202.5 255.0 " stroke="black" fill="none" stroke-width="6.0" stroke-linecap="round" stroke-linejoin="round" />
<path d="M 128.75 191.25 L 126.25 192.5 L 123.75 193.75 L 126.25 193.75 L 142.5 190.0 L 166.25 178.75 L 186.25 168.75 L 201.25 160.0 " stroke="black" fill="none" stroke-width="6.0" stroke-linecap="round" stroke-linejoin="round" />
</svg>