<svg xmlns="http://www.w3.org/2000/svg" width="300" height="300" viewBox="0 0 300 300">
<path d="M 89.99999999999972 167.5 L 86.24999999999972 167.5 L 81.24999999999972 168.75 L 79.99999999999972 170.0 L 81.24999999999972 170.0 L 89.99999999999972 172.5 L 108.74999999999972 173.75 L 133.74999999999972 173.75 L 166.24999999999972 172.5 L 198.74999999999972 171.25 L 214.99999999999972 167.5 L 223.74999999999972 165.0 L 224.99999999999972 163.75 L 224.99999999999972 163.75 L 219.99999999999972 163.75 L 211.24999999999972 163.75 L 209.99999999999972 163.75 " stroke="black" fill="none" stroke-width="6.0" stroke-linecap="round" stroke-linejoin="round" />
<path d="M 151.24999999999972 111.25 L 149.99999999999972 111.25 L 149.99999999999972 111.25 L 149.99999999999972 110.0 L 151.24999999999972 110.0 L 152.49999999999972 112.5 L 153.74999999999972 116.25 L 153.74999999999972 117.5 L 151.24999999999972 118.75 L 147.49999999999972 118.75 L 144.99999999999972 116.25 L 143.74999999999972 112.5 L 143.74999999999972 107.5 L 146.24999999999972 103.75 L 149.99999999999972 102.5 L 152.49999999999972 103.75 L 153.74999999999972 107.5 L 153.74999999999972 111.25 L 153.74999999999972 115.0 L 151.24999999999972 116.25 L 147.49999999999972 116.25 L 146.24999999999972 116.25 L 144.99999999999972 113.75 L 144.99999999999972 111.25 L 147.49999999999972 108.75 L 149.99999999999972 108.75 L 152.49999999999972 108.75 L 152.49999999999972 112.5 L 152.49999999999972 115.0 L 151.24999999999972 117.5 L 148.74999999999972 118.75 L 147.49999999999972 118.75 " stroke="black" fill="none" stroke-width="6.0" stroke-linecap="round" stroke-linejoin="round" />
<path d="M 146.24999999999972 212.5 L 146.24999999999972 212.5 L 146.24999999999972 212.5 L 144.99999999999972 212.5 L 144.99999999999972 213.75 L 146.24999999999972 213.75 L 147.49999999999972 216.25 L 148.74999999999972 217.5 L 148.74999999999972 220.0 L 147.49999999999972 221.25 L 144.99999999999972 221.25 L 142.49999999999972 221.25 L 141.24999999999972 217.5 L 141.24999999999972 212.5 L 142.49999999999972 208.75 L 144.99999999999972 207.5 L 148.74999999999972 207.5 L 149.99999999999972 208.75 L 152.49999999999972 212.5 L 152.49999999999972 216.25 L 151.24999999999972 218.75 L 147.49999999999972 220.0 L 144.99999999999972 220.0 L 142.49999999999972 218.75 L 142.49999999999972 215.0 L 142.49999999999972 212.5 L 146.24999999999972 210.0 L 148.74999999999972 210.0 L 151.24999999999972 210.0 L 152.49999999999972 212.5 L 152.49999999999972 215.0 L 151.24999999999972 218.75 L 147.49999999999972 218.75 L 146.24999999999972 218.75 L 144.99999999999972 217.5 L 144.99999999999972 213.75 L 147.49999999999972 211.25 L 149.99999999999972 210.0 L 152.49999999999972 210.0 L 152.49999999999972 215.0 L 152.49999999999972 218.75 " stroke="black" fill="none" stroke-width="6.0" stroke-linecap="round" stroke-linejoin="round" />
</svg>