<svg xmlns="http://www.w3.org/2000/svg" width="300" height="300" viewBox="0 0 300 300">
<path d="M 182.5 98.75 L 182.5 98.75 L 183.75 97.5 L 185.0 95.0 L 185.0 91.25 L 185.0 86.25 L 182.5 81.25 L 173.75 80.0 L 158.75 80.0 L 141.25 87.5 L 121.25 102.5 L 103.75 127.5 L 97.5 150.0 L 103.75 161.25 L 120.0 163.75 L 140.0 157.5 L 157.5 142.5 L 172.5 122.5 L 182.5 103.75 L 185.0 91.25 L 185.0 82.5 L 183.75 80.0 L 181.25 80.0 L 177.5 93.75 L 171.25 125.0 L 161.25 173.75 L 150.0 226.25 L 143.75 252.5 L 141.25 258.75 L 140.0 261.25 L 140.0 261.25 " stroke="black" fill="none" stroke-width="6.0" stroke-linecap="round" stroke-linejoin="round" />
</svg>