<svg xmlns="http://www.w3.org/2000/svg" width="300" height="300" viewBox="0 0 300 300">
<path d="M 105.0 92.5 L 103.75 92.5 L 102.5 92.5 L 101.25 92.5 L 101.25 92.5 L 111.25 103.75 L 128.75 125.0 L 145.0 143.75 L 152.5 150.0 L 153.75 150.0 L 152.5 151.25 L 150.0 152.5 L 148.75 152.5 " stroke="black" fill="none" stroke-width="6.0" stroke-linecap="round" stroke-linejoin="round" />
<path d="M 192.5 82.5 L 195.0 81.25 L 196.25 78.75 L 196.25 78.75 L 196.25 77.5 L 196.25 77.5 L 196.25 77.5 L 196.25 77.5 L 196.25 77.5 L 195.0 78.75 L 191.25 82.5 L 182.5 92.5 L 170.0 111.25 L 157.5 131.25 L 153.75 140.0 L 152.5 143.75 L 152.5 145.0 L 152.5 145.0 L 152.5 145.0 L 152.5 145.0 L 152.5 145.0 L 152.5 145.0 L 152.5 145.0 L 152.5 145.0 L 152.5 145.0 L 152.5 145.0 L 152.5 145.0 L 152.5 145.0 L 152.5 146.25 L 152.5 151.25 L 153.75 172.5 L 157.5 206.25 L 160.0 232.5 L 162.5 246.25 L 163.75 251.25 L 163.75 251.25 L 163.75 247.5 L 162.5 241.25 " stroke="black" fill="none" stroke-width="6.0" stroke-linecap="round" stroke-linejoin="round" />
</svg>