<svg xmlns="http://www.w3.org/2000/svg" width="300" height="300" viewBox="0 0 300 300">
<path d="M 129.99999999999972 90.0 L 129.99999999999972 88.75 L 129.99999999999972 87.5 L 129.99999999999972 86.25 L 132.49999999999972 85.0 L 139.99999999999972 85.0 L 146.24999999999972 85.0 L 151.24999999999972 88.75 L 154.99999999999972 93.75 L 157.49999999999972 100.0 L 158.74999999999972 108.75 L 157.49999999999972 121.25 L 154.99999999999972 135.0 L 153.74999999999972 148.75 L 152.49999999999972 158.75 L 152.49999999999972 168.75 L 156.24999999999972 177.5 L 161.24999999999972 183.75 L 169.99999999999972 187.5 L 176.24999999999972 190.0 L 182.49999999999972 190.0 L 184.99999999999972 190.0 L 186.24999999999972 190.0 L 186.24999999999972 190.0 L 184.99999999999972 188.75 L 183.74999999999972 188.75 L 181.24999999999972 188.75 L 178.74999999999972 188.75 L 174.99999999999972 188.75 L 172.49999999999972 190.0 L 168.74999999999972 192.5 L 164.99999999999972 195.0 L 162.49999999999972 200.0 L 161.24999999999972 205.0 L 161.24999999999972 212.5 L 162.49999999999972 221.25 L 164.99999999999972 230.0 L 166.24999999999972 240.0 L 167.49999999999972 247.5 L 167.49999999999972 252.5 L 167.49999999999972 255.0 L 164.99999999999972 255.0 L 161.24999999999972 255.0 L 154.99999999999972 257.5 L 147.49999999999972 260.0 L 142.49999999999972 262.5 L 138.74999999999972 262.5 " stroke="black" fill="none" stroke-width="6.0" stroke-linecap="round" stroke-linejoin="round" />
</svg>