<svg xmlns="http://www.w3.org/2000/svg" width="300" height="300" viewBox="0 0 300 300">
<path d="M 121.25 90.0 L 118.75 91.25 L 112.5 92.5 L 112.5 93.75 L 121.25 92.5 L 140.0 87.5 L 163.75 77.5 L 183.75 67.5 L 191.25 62.5 L 187.5 62.5 L 177.5 68.75 L 170.0 73.75 " stroke="black" fill="none" stroke-width="6.0" stroke-linecap="round" stroke-linejoin="round" />
<path d="M 160.0 82.5 L 160.0 83.75 L 160.0 83.75 L 160.0 85.0 L 158.75 85.0 L 158.75 85.0 L 158.75 85.0 L 160.0 86.25 L 162.5 90.0 L 165.0 110.0 L 166.25 151.25 L 161.25 197.5 L 155.0 216.25 L 150.0 227.5 L 145.0 235.0 L 137.5 236.25 L 126.25 236.25 L 112.5 232.5 L 100.0 225.0 L 88.75 211.25 L 82.5 202.5 " stroke="black" fill="none" stroke-width="6.0" stroke-linecap="round" stroke-linejoin="round" />
</svg>