<svg xmlns="http://www.w3.org/2000/svg" width="300" height="300" viewBox="0 0 300 300">
<path d="M 202.49999999999972 216.25 L 202.49999999999972 216.25 L 202.49999999999972 216.25 L 201.24999999999972 216.25 L 199.99999999999972 216.25 L 198.74999999999972 216.25 L 197.49999999999972 215.0 L 194.99999999999972 215.0 L 188.74999999999972 212.5 L 181.24999999999972 210.0 L 171.24999999999972 206.25 L 161.24999999999972 201.25 L 152.49999999999972 196.25 L 146.24999999999972 190.0 L 139.99999999999972 182.5 L 133.74999999999972 173.75 L 128.74999999999972 162.5 L 124.99999999999972 150.0 L 119.99999999999972 138.75 L 116.24999999999972 128.75 L 114.99999999999972 120.0 L 113.74999999999972 111.25 L 116.24999999999972 105.0 L 122.49999999999972 98.75 L 129.99999999999972 95.0 L 138.74999999999972 92.5 L 148.74999999999972 91.25 L 156.24999999999972 91.25 L 163.74999999999972 93.75 L 167.49999999999972 98.75 L 169.99999999999972 103.75 L 169.99999999999972 110.0 L 167.49999999999972 117.5 L 163.74999999999972 126.25 L 156.24999999999972 135.0 L 149.99999999999972 145.0 L 141.24999999999972 155.0 L 132.49999999999972 165.0 L 122.49999999999972 176.25 L 112.49999999999972 187.5 L 103.74999999999972 198.75 L 97.49999999999972 208.75 L 94.99999999999972 217.5 L 94.99999999999972 226.25 L 96.24999999999972 232.5 L 99.99999999999972 238.75 L 107.49999999999972 242.5 L 117.49999999999972 243.75 L 128.74999999999972 243.75 L 142.49999999999972 241.25 L 153.74999999999972 235.0 L 166.24999999999972 226.25 L 178.74999999999972 218.75 L 191.24999999999972 205.0 L 197.49999999999972 193.75 L 199.99999999999972 186.25 L 202.49999999999972 178.75 L 204.99999999999972 172.5 L 204.99999999999972 170.0 L 204.99999999999972 170.0 L 202.49999999999972 171.25 L 201.24999999999972 172.5 " stroke="black" fill="none" stroke-width="6.0" stroke-linecap="round" stroke-linejoin="round" />
</svg>