<svg xmlns="http://www.w3.org/2000/svg" width="300" height="300" viewBox="0 0 300 300">
<path d="M 164.99999999999972 150.0 L 163.74999999999972 147.5 L 159.99999999999972 146.25 L 157.49999999999972 143.75 L 154.99999999999972 142.5 L 151.24999999999972 142.5 L 146.24999999999972 142.5 L 141.24999999999972 146.25 L 133.74999999999972 153.75 L 127.49999999999972 165.0 L 121.24999999999972 180.0 L 117.49999999999972 196.25 L 117.49999999999972 206.25 L 122.49999999999972 212.5 L 128.74999999999972 216.25 L 134.99999999999972 217.5 L 142.49999999999972 217.5 L 148.74999999999972 211.25 L 154.99999999999972 202.5 L 161.24999999999972 190.0 L 164.99999999999972 176.25 L 167.49999999999972 162.5 L 167.49999999999972 151.25 L 163.74999999999972 146.25 L 162.49999999999972 145.0 L 161.24999999999972 145.0 L 161.24999999999972 147.5 L 161.24999999999972 155.0 L 162.49999999999972 166.25 L 164.99999999999972 181.25 L 169.99999999999972 196.25 L 177.49999999999972 206.25 L 188.74999999999972 211.25 L 198.74999999999972 213.75 L 204.99999999999972 211.25 L 212.49999999999972 203.75 L 219.99999999999972 191.25 L 226.24999999999972 176.25 L 229.99999999999972 158.75 L 229.99999999999972 141.25 L 226.24999999999972 128.75 L 219.99999999999972 117.5 L 212.49999999999972 107.5 L 203.74999999999972 102.5 L 192.49999999999972 101.25 L 178.74999999999972 102.5 L 163.74999999999972 106.25 L 148.74999999999972 112.5 L 137.49999999999972 120.0 L 127.49999999999972 127.5 L 117.49999999999972 136.25 L 107.49999999999972 145.0 L 99.99999999999972 155.0 L 94.99999999999972 167.5 L 92.49999999999972 183.75 L 92.49999999999972 198.75 L 94.99999999999972 217.5 L 99.99999999999972 236.25 L 107.49999999999972 248.75 L 118.74999999999972 256.25 L 133.74999999999972 260.0 L 148.74999999999972 261.25 L 162.49999999999972 258.75 L 174.99999999999972 252.5 L 186.24999999999972 243.75 L 191.24999999999972 235.0 L 191.24999999999972 232.5 " stroke="black" fill="none" stroke-width="6.0" stroke-linecap="round" stroke-linejoin="round" />
</svg>