<svg xmlns="http://www.w3.org/2000/svg" width="300" height="300" viewBox="0 0 300 300">
<path d="M 131.24999999999972 85.0 L 124.99999999999972 85.0 L 121.24999999999972 85.0 L 121.24999999999972 85.0 L 123.74999999999972 85.0 L 134.99999999999972 85.0 L 144.99999999999972 83.75 L 153.74999999999972 83.75 L 159.99999999999972 83.75 L 161.24999999999972 85.0 L 161.24999999999972 88.75 L 161.24999999999972 95.0 L 161.24999999999972 105.0 L 161.24999999999972 120.0 L 161.24999999999972 138.75 L 163.74999999999972 158.75 L 166.24999999999972 180.0 L 168.74999999999972 200.0 L 169.99999999999972 211.25 L 169.99999999999972 223.75 L 171.24999999999972 235.0 L 171.24999999999972 241.25 L 172.49999999999972 243.75 L 172.49999999999972 246.25 L 172.49999999999972 248.75 L 172.49999999999972 250.0 L 171.24999999999972 252.5 L 169.99999999999972 255.0 L 168.74999999999972 258.75 L 168.74999999999972 261.25 L 167.49999999999972 262.5 L 166.24999999999972 262.5 L 163.74999999999972 262.5 L 158.74999999999972 262.5 L 153.74999999999972 262.5 L 146.24999999999972 261.25 L 139.99999999999972 261.25 L 134.99999999999972 260.0 L 129.99999999999972 260.0 L 127.49999999999972 258.75 L 127.49999999999972 257.5 L 127.49999999999972 256.25 " stroke="black" fill="none" stroke-width="6.0" stroke-linecap="round" stroke-linejoin="round" />
</svg>