<svg xmlns="http://www.w3.org/2000/svg" width="300" height="300" viewBox="0 0 300 300">
<path d="M 152.5 142.5 L 150.0 142.5 L 148.75 141.25 L 147.5 140.0 L 147.5 138.75 L 152.5 137.5 L 156.25 137.5 L 160.0 137.5 L 161.25 140.0 L 160.0 143.75 L 156.25 146.25 L 152.5 147.5 L 150.0 148.75 L 147.5 147.5 L 147.5 143.75 L 147.5 140.0 L 150.0 137.5 L 152.5 136.25 L 153.75 136.25 L 155.0 138.75 L 155.0 141.25 L 152.5 142.5 L 151.25 143.75 L 150.0 143.75 L 148.75 143.75 L 148.75 143.75 L 148.75 143.75 L 150.0 143.75 " stroke="black" fill="none" stroke-width="6.0" stroke-linecap="round" stroke-linejoin="round" />
<path d="M 150.0 215.0 L 148.75 216.25 L 146.25 217.5 L 145.0 218.75 L 145.0 218.75 L 146.25 218.75 L 152.5 218.75 L 160.0 216.25 L 168.75 216.25 L 175.0 220.0 L 177.5 231.25 L 172.5 245.0 L 161.25 258.75 L 153.75 263.75 " stroke="black" fill="none" stroke-width="6.0" stroke-linecap="round" stroke-linejoin="round" />
<path d="M 153.75 213.75 L 153.75 213.75 L 152.5 213.75 L 151.25 215.0 L 150.0 215.0 L 150.0 215.0 L 150.0 215.0 L 151.25 213.75 L 153.75 212.5 L 157.5 212.5 L 160.0 212.5 L 161.25 213.75 L 162.5 216.25 L 161.25 218.75 L 157.5 221.25 L 153.75 221.25 L 150.0 221.25 L 147.5 221.25 L 146.25 218.75 L 146.25 217.5 L 148.75 215.0 L 156.25 213.75 L 160.0 212.5 " stroke="black" fill="none" stroke-width="6.0" stroke-linecap="round" stroke-linejoin="round" />
</svg>