<svg xmlns="http://www.w3.org/2000/svg" width="300" height="300" viewBox="0 0 300 300">
<path d="M 132.5 101.25 L 123.75 101.25 L 120.0 102.5 L 122.5 102.5 L 138.75 102.5 L 161.25 100.0 L 188.75 97.5 L 211.25 95.0 L 220.0 95.0 L 221.25 95.0 L 216.25 98.75 L 205.0 108.75 L 191.25 128.75 L 170.0 156.25 L 147.5 190.0 L 133.75 215.0 L 128.75 227.5 L 128.75 233.75 L 132.5 235.0 L 135.0 236.25 L 140.0 236.25 L 145.0 235.0 L 151.25 232.5 L 157.5 232.5 L 171.25 233.75 L 191.25 238.75 L 210.0 242.5 L 225.0 245.0 L 232.5 245.0 L 232.5 245.0 L 228.75 241.25 L 223.75 238.75 " stroke="black" fill="none" stroke-width="6.0" stroke-linecap="round" stroke-linejoin="round" />
<path d="M 155.0 157.5 L 152.5 157.5 L 150.0 157.5 L 151.25 158.75 L 163.75 162.5 L 188.75 172.5 L 202.5 181.25 " stroke="black" fill="none" stroke-width="6.0" stroke-linecap="round" stroke-linejoin="round" />
</svg>