<svg xmlns="http://www.w3.org/2000/svg" width="300" height="300" viewBox="0 0 300 300">
<path d="M 105.0 173.75 L 105.0 172.5 L 102.5 168.75 L 102.5 166.25 L 105.0 162.5 L 115.0 162.5 L 125.0 170.0 L 131.25 187.5 L 132.5 205.0 L 126.25 218.75 L 121.25 225.0 L 120.0 225.0 L 122.5 217.5 L 131.25 201.25 L 142.5 181.25 L 152.5 160.0 L 161.25 147.5 L 167.5 147.5 L 171.25 161.25 L 172.5 185.0 L 172.5 206.25 L 168.75 217.5 L 166.25 220.0 L 166.25 216.25 L 170.0 202.5 L 180.0 183.75 L 191.25 161.25 L 202.5 143.75 L 210.0 140.0 L 218.75 153.75 L 225.0 185.0 L 230.0 215.0 L 236.25 231.25 L 241.25 226.25 " stroke="black" fill="none" stroke-width="6.0" stroke-linecap="round" stroke-linejoin="round" />
</svg>