<svg xmlns="http://www.w3.org/2000/svg" width="300" height="300" viewBox="0 0 300 300">
<path d="M 187.49999999999972 105.0 L 183.74999999999972 105.0 L 178.74999999999972 103.75 L 173.74999999999972 101.25 L 168.74999999999972 98.75 L 164.99999999999972 97.5 L 159.99999999999972 97.5 L 154.99999999999972 98.75 L 149.99999999999972 103.75 L 146.24999999999972 111.25 L 143.74999999999972 123.75 L 142.49999999999972 138.75 L 144.99999999999972 153.75 L 147.49999999999972 170.0 L 148.74999999999972 185.0 L 149.99999999999972 197.5 L 148.74999999999972 207.5 L 146.24999999999972 213.75 L 143.74999999999972 217.5 L 141.24999999999972 221.25 L 138.74999999999972 223.75 L 137.49999999999972 226.25 L 136.24999999999972 227.5 L 136.24999999999972 227.5 L 134.99999999999972 227.5 L 134.99999999999972 226.25 L 133.74999999999972 225.0 L 133.74999999999972 222.5 L 132.49999999999972 221.25 " stroke="black" fill="none" stroke-width="6.0" stroke-linecap="round" stroke-linejoin="round" />
<path d="M 132.49999999999972 225.0 L 131.24999999999972 225.0 L 128.74999999999972 225.0 L 126.24999999999972 225.0 L 126.24999999999972 225.0 L 128.74999999999972 223.75 L 136.24999999999972 222.5 L 144.99999999999972 220.0 L 153.74999999999972 220.0 L 164.99999999999972 221.25 L 177.49999999999972 226.25 L 187.49999999999972 232.5 L 194.99999999999972 236.25 L 199.99999999999972 237.5 L 203.74999999999972 235.0 L 204.99999999999972 228.75 L 206.24999999999972 221.25 L 206.24999999999972 220.0 " stroke="black" fill="none" stroke-width="6.0" stroke-linecap="round" stroke-linejoin="round" />
<path d="M 127.49999999999972 167.5 L 119.99999999999972 167.5 L 119.99999999999972 168.75 L 123.74999999999972 170.0 L 137.49999999999972 172.5 L 154.99999999999972 172.5 L 173.74999999999972 172.5 L 189.99999999999972 168.75 L 193.74999999999972 166.25 " stroke="black" fill="none" stroke-width="6.0" stroke-linecap="round" stroke-linejoin="round" />
</svg>