<svg xmlns="http://www.w3.org/2000/svg" width="300" height="300" viewBox="0 0 300 300">
<path d="M 107.5 85.0 L 107.5 82.5 L 107.5 80.0 L 105.0 80.0 L 105.0 80.0 L 105.0 88.75 L 107.5 103.75 L 112.5 117.5 L 115.0 126.25 L 116.25 130.0 L 115.0 127.5 L 112.5 122.5 " stroke="black" fill="none" stroke-width="6.0" stroke-linecap="round" stroke-linejoin="round" />
<path d="M 107.5 83.75 L 106.25 81.25 L 103.75 80.0 L 103.75 80.0 L 108.75 78.75 L 131.25 77.5 L 155.0 75.0 L 177.5 73.75 L 191.25 73.75 L 192.5 73.75 L 190.0 73.75 L 185.0 78.75 L 177.5 88.75 L 167.5 111.25 L 156.25 160.0 L 152.5 216.25 L 152.5 248.75 L 153.75 260.0 L 156.25 262.5 L 158.75 262.5 L 161.25 261.25 L 161.25 256.25 L 161.25 250.0 L 160.0 248.75 " stroke="black" fill="none" stroke-width="6.0" stroke-linecap="round" stroke-linejoin="round" />
</svg>