<svg xmlns="http://www.w3.org/2000/svg" width="300" height="300" viewBox="0 0 300 300">
<path d="M 147.49999999999972 85.0 L 147.49999999999972 82.5 L 147.49999999999972 77.5 L 147.49999999999972 73.75 L 147.49999999999972 71.25 L 147.49999999999972 71.25 L 149.99999999999972 72.5 L 151.24999999999972 85.0 L 151.24999999999972 108.75 L 151.24999999999972 138.75 L 151.24999999999972 162.5 L 152.49999999999972 173.75 L 152.49999999999972 176.25 L 152.49999999999972 175.0 L 152.49999999999972 171.25 L 152.49999999999972 163.75 L 152.49999999999972 152.5 " stroke="black" fill="none" stroke-width="6.0" stroke-linecap="round" stroke-linejoin="round" />
<path d="M 152.49999999999972 198.75 L 149.99999999999972 197.5 L 148.74999999999972 197.5 L 148.74999999999972 197.5 L 149.99999999999972 200.0 L 152.49999999999972 213.75 L 153.74999999999972 237.5 L 153.74999999999972 255.0 L 153.74999999999972 276.25 L 153.74999999999972 286.25 L 153.74999999999972 290.0 L 154.99999999999972 291.25 L 156.24999999999972 290.0 L 156.24999999999972 290.0 " stroke="black" fill="none" stroke-width="6.0" stroke-linecap="round" stroke-linejoin="round" />
</svg>