<svg xmlns="http://www.w3.org/2000/svg" width="300" height="300" viewBox="0 0 300 300">
<path d="M 172.49999999999972 102.5 L 171.24999999999972 101.25 L 167.49999999999972 98.75 L 162.49999999999972 98.75 L 153.74999999999972 100.0 L 142.49999999999972 105.0 L 127.49999999999972 116.25 L 112.49999999999972 130.0 L 106.24999999999972 141.25 L 109.99999999999972 150.0 L 126.24999999999972 157.5 L 148.74999999999972 162.5 L 168.74999999999972 167.5 L 183.74999999999972 172.5 L 187.49999999999972 181.25 L 186.24999999999972 188.75 L 174.99999999999972 197.5 L 162.49999999999972 205.0 L 149.99999999999972 211.25 L 138.74999999999972 215.0 L 127.49999999999972 211.25 L 123.74999999999972 206.25 L 117.49999999999972 201.25 " stroke="black" fill="none" stroke-width="6.0" stroke-linecap="round" stroke-linejoin="round" />
<path d="M 144.99999999999972 92.5 L 143.74999999999972 91.25 L 142.49999999999972 88.75 L 141.24999999999972 86.25 L 141.24999999999972 86.25 L 141.24999999999972 85.0 L 142.49999999999972 85.0 L 142.49999999999972 85.0 L 143.74999999999972 85.0 L 143.74999999999972 86.25 L 144.99999999999972 87.5 L 144.99999999999972 88.75 L 144.99999999999972 92.5 L 146.24999999999972 98.75 L 146.24999999999972 113.75 L 144.99999999999972 150.0 L 142.49999999999972 197.5 L 141.24999999999972 228.75 L 138.74999999999972 250.0 L 136.24999999999972 262.5 L 131.24999999999972 265.0 " stroke="black" fill="none" stroke-width="6.0" stroke-linecap="round" stroke-linejoin="round" />
</svg>