<svg xmlns="http://www.w3.org/2000/svg" width="300" height="300" viewBox="0 0 300 300">
<path d="M 138.75 97.5 L 138.75 96.25 L 138.75 93.75 L 138.75 92.5 L 137.5 95.0 L 136.25 118.75 L 133.75 162.5 L 132.5 205.0 L 132.5 222.5 L 136.25 226.25 L 138.75 222.5 L 140.0 213.75 L 140.0 208.75 " stroke="black" fill="none" stroke-width="6.0" stroke-linecap="round" stroke-linejoin="round" />
<path d="M 141.25 103.75 L 140.0 103.75 L 138.75 101.25 L 138.75 98.75 L 141.25 96.25 L 152.5 95.0 L 165.0 97.5 L 190.0 107.5 L 198.75 121.25 L 196.25 138.75 L 183.75 155.0 L 166.25 168.75 L 148.75 182.5 L 133.75 191.25 L 127.5 193.75 L 130.0 192.5 L 143.75 185.0 L 163.75 172.5 L 186.25 162.5 L 205.0 160.0 L 211.25 166.25 L 206.25 185.0 L 191.25 206.25 L 170.0 226.25 L 148.75 241.25 L 140.0 245.0 L 140.0 241.25 L 142.5 231.25 " stroke="black" fill="none" stroke-width="6.0" stroke-linecap="round" stroke-linejoin="round" />
</svg>