<svg xmlns="http://www.w3.org/2000/svg" width="300" height="300" viewBox="0 0 300 300">
<path d="M 111.25 111.25 L 111.25 113.75 L 110.0 116.25 L 110.0 116.25 L 121.25 116.25 L 147.5 108.75 L 176.25 96.25 L 193.75 87.5 L 195.0 86.25 L 186.25 87.5 L 182.5 88.75 " stroke="black" fill="none" stroke-width="6.0" stroke-linecap="round" stroke-linejoin="round" />
<path d="M 125.0 120.0 L 125.0 118.75 L 125.0 117.5 L 125.0 116.25 L 126.25 115.0 L 128.75 122.5 L 130.0 152.5 L 132.5 192.5 L 142.5 215.0 L 182.5 220.0 L 205.0 212.5 L 216.25 208.75 L 217.5 206.25 L 211.25 205.0 L 202.5 202.5 " stroke="black" fill="none" stroke-width="6.0" stroke-linecap="round" stroke-linejoin="round" />
<path d="M 125.0 178.75 L 126.25 178.75 L 126.25 177.5 L 133.75 173.75 L 152.5 168.75 L 181.25 161.25 L 202.5 152.5 L 210.0 146.25 " stroke="black" fill="none" stroke-width="6.0" stroke-linecap="round" stroke-linejoin="round" />
</svg>