<svg xmlns="http://www.w3.org/2000/svg" width="300" height="300" viewBox="0 0 300 300">
<path d="M 116.25 100.0 L 116.25 97.5 L 117.5 96.25 L 112.5 106.25 L 101.25 141.25 L 87.5 190.0 L 78.75 220.0 L 76.25 235.0 L 75.0 237.5 L 75.0 236.25 " stroke="black" fill="none" stroke-width="6.0" stroke-linecap="round" stroke-linejoin="round" />
<path d="M 105.0 130.0 L 105.0 125.0 L 105.0 121.25 L 106.25 121.25 L 111.25 128.75 L 122.5 153.75 L 136.25 188.75 L 150.0 216.25 L 160.0 226.25 L 170.0 228.75 L 175.0 228.75 L 178.75 225.0 L 180.0 216.25 L 182.5 203.75 L 185.0 182.5 L 192.5 147.5 L 203.75 101.25 L 212.5 62.5 L 213.75 48.75 L 213.75 48.75 L 207.5 56.25 L 203.75 63.75 " stroke="black" fill="none" stroke-width="6.0" stroke-linecap="round" stroke-linejoin="round" />
</svg>