<svg xmlns="http://www.w3.org/2000/svg" width="300" height="300" viewBox="0 0 300 300">
<path d="M 150.0 157.5 L 150.0 158.75 L 150.0 160.0 L 148.75 162.5 L 147.5 163.75 L 146.25 165.0 L 146.25 165.0 L 145.0 165.0 L 145.0 163.75 L 145.0 161.25 L 145.0 160.0 L 146.25 157.5 L 148.75 157.5 L 152.5 157.5 L 153.75 158.75 L 155.0 162.5 L 155.0 166.25 L 151.25 168.75 L 145.0 171.25 L 138.75 171.25 L 135.0 168.75 L 133.75 162.5 L 133.75 157.5 L 138.75 153.75 L 145.0 152.5 L 150.0 152.5 L 153.75 153.75 L 155.0 157.5 L 155.0 161.25 L 152.5 165.0 L 148.75 167.5 L 145.0 168.75 L 142.5 168.75 L 141.25 165.0 L 142.5 160.0 L 145.0 156.25 L 148.75 152.5 L 153.75 152.5 L 158.75 153.75 L 160.0 158.75 L 160.0 163.75 L 157.5 168.75 L 152.5 172.5 L 147.5 173.75 L 145.0 173.75 L 142.5 168.75 L 142.5 163.75 L 146.25 158.75 L 150.0 155.0 L 153.75 153.75 L 157.5 155.0 L 161.25 158.75 L 161.25 163.75 L 160.0 168.75 L 156.25 171.25 L 151.25 172.5 L 147.5 172.5 L 145.0 171.25 L 145.0 166.25 L 145.0 160.0 L 148.75 155.0 L 152.5 152.5 L 156.25 152.5 L 158.75 156.25 L 160.0 162.5 L 158.75 170.0 L 155.0 175.0 L 150.0 178.75 L 145.0 180.0 L 141.25 178.75 L 140.0 173.75 L 140.0 166.25 L 142.5 158.75 L 146.25 152.5 L 151.25 150.0 L 156.25 148.75 L 160.0 153.75 L 162.5 162.5 L 162.5 171.25 L 158.75 178.75 L 155.0 181.25 L 150.0 181.25 L 146.25 181.25 L 141.25 176.25 L 138.75 171.25 L 138.75 165.0 L 140.0 158.75 L 145.0 153.75 L 151.25 151.25 L 157.5 150.0 L 162.5 153.75 L 166.25 160.0 L 166.25 166.25 L 162.5 173.75 L 156.25 178.75 L 150.0 181.25 L 143.75 181.25 L 140.0 178.75 L 137.5 173.75 L 137.5 167.5 L 140.0 161.25 L 145.0 156.25 L 151.25 153.75 L 156.25 153.75 L 160.0 157.5 L 161.25 166.25 L 161.25 175.0 L 157.5 181.25 L 152.5 185.0 L 146.25 186.25 L 141.25 185.0 L 136.25 180.0 L 133.75 173.75 L 133.75 166.25 L 136.25 158.75 L 140.0 153.75 L 146.25 151.25 L 151.25 151.25 L 155.0 153.75 L 158.75 160.0 L 158.75 165.0 L 160.0 170.0 L 156.25 172.5 L 151.25 175.0 L 145.0 175.0 L 140.0 175.0 L 136.25 171.25 L 136.25 165.0 L 136.25 158.75 L 141.25 152.5 L 147.5 148.75 L 152.5 147.5 L 158.75 148.75 L 162.5 155.0 L 163.75 162.5 L 163.75 171.25 L 158.75 178.75 L 153.75 183.75 L 147.5 183.75 L 146.25 183.75 " stroke="black" fill="none" stroke-width="6.0" stroke-linecap="round" stroke-linejoin="round" />
</svg>