<svg xmlns="http://www.w3.org/2000/svg" width="300" height="300" viewBox="0 0 300 300">
<path d="M 153.74999999999972 135.0 L 153.74999999999972 135.0 L 153.74999999999972 135.0 L 153.74999999999972 135.0 L 153.74999999999972 135.0 L 154.99999999999972 136.25 L 156.24999999999972 140.0 L 156.24999999999972 141.25 L 154.99999999999972 143.75 L 152.49999999999972 143.75 L 149.99999999999972 143.75 L 148.74999999999972 140.0 L 148.74999999999972 136.25 L 149.99999999999972 131.25 L 152.49999999999972 130.0 L 154.99999999999972 130.0 L 156.24999999999972 133.75 L 156.24999999999972 140.0 L 153.74999999999972 145.0 L 151.24999999999972 147.5 L 148.74999999999972 147.5 L 147.49999999999972 146.25 L 147.49999999999972 141.25 L 148.74999999999972 136.25 L 151.24999999999972 132.5 L 153.74999999999972 131.25 L 154.99999999999972 132.5 L 154.99999999999972 137.5 L 154.99999999999972 142.5 L 153.74999999999972 145.0 L 151.24999999999972 146.25 L 149.99999999999972 145.0 L 149.99999999999972 143.75 " stroke="black" fill="none" stroke-width="6.0" stroke-linecap="round" stroke-linejoin="round" />
<path d="M 149.99999999999972 176.25 L 149.99999999999972 175.0 L 149.99999999999972 173.75 L 149.99999999999972 173.75 L 149.99999999999972 172.5 L 149.99999999999972 172.5 L 151.24999999999972 172.5 L 151.24999999999972 173.75 L 151.24999999999972 178.75 L 151.24999999999972 182.5 L 151.24999999999972 187.5 L 151.24999999999972 192.5 L 151.24999999999972 196.25 L 151.24999999999972 198.75 L 151.24999999999972 200.0 L 151.24999999999972 200.0 L 151.24999999999972 200.0 L 151.24999999999972 200.0 L 151.24999999999972 200.0 L 149.99999999999972 200.0 L 148.74999999999972 200.0 L 147.49999999999972 201.25 L 144.99999999999972 201.25 L 143.74999999999972 202.5 L 141.24999999999972 205.0 L 139.99999999999972 207.5 L 137.49999999999972 211.25 L 136.24999999999972 215.0 L 133.74999999999972 218.75 L 132.49999999999972 222.5 L 131.24999999999972 226.25 L 129.99999999999972 230.0 L 128.74999999999972 232.5 L 127.49999999999972 236.25 L 126.24999999999972 240.0 L 126.24999999999972 243.75 L 126.24999999999972 246.25 L 126.24999999999972 248.75 L 126.24999999999972 252.5 L 126.24999999999972 256.25 L 128.74999999999972 260.0 L 131.24999999999972 263.75 L 134.99999999999972 268.75 L 141.24999999999972 273.75 L 146.24999999999972 276.25 L 152.49999999999972 277.5 L 157.49999999999972 277.5 L 161.24999999999972 275.0 L 166.24999999999972 272.5 L 171.24999999999972 268.75 L 177.49999999999972 265.0 L 182.49999999999972 260.0 L 184.99999999999972 256.25 L 184.99999999999972 252.5 " stroke="black" fill="none" stroke-width="6.0" stroke-linecap="round" stroke-linejoin="round" />
</svg>