<svg xmlns="http://www.w3.org/2000/svg" width="300" height="300" viewBox="0 0 300 300">
<path d="M 156.24999999999972 95.0 L 156.24999999999972 93.75 L 156.24999999999972 90.0 L 156.24999999999972 87.5 L 156.24999999999972 86.25 L 156.24999999999972 87.5 L 156.24999999999972 103.75 L 156.24999999999972 136.25 L 156.24999999999972 170.0 L 156.24999999999972 190.0 L 156.24999999999972 193.75 L 156.24999999999972 193.75 L 156.24999999999972 192.5 L 156.24999999999972 190.0 L 156.24999999999972 183.75 " stroke="black" fill="none" stroke-width="6.0" stroke-linecap="round" stroke-linejoin="round" />
<path d="M 154.99999999999972 217.5 L 153.74999999999972 217.5 L 152.49999999999972 218.75 L 151.24999999999972 218.75 L 152.49999999999972 218.75 L 154.99999999999972 218.75 L 157.49999999999972 221.25 L 158.74999999999972 223.75 L 158.74999999999972 227.5 L 156.24999999999972 231.25 L 153.74999999999972 232.5 L 152.49999999999972 233.75 L 149.99999999999972 232.5 L 149.99999999999972 228.75 L 149.99999999999972 223.75 L 152.49999999999972 221.25 L 153.74999999999972 220.0 L 156.24999999999972 220.0 L 157.49999999999972 223.75 L 157.49999999999972 226.25 L 157.49999999999972 228.75 L 156.24999999999972 230.0 L 154.99999999999972 230.0 L 153.74999999999972 228.75 L 153.74999999999972 225.0 L 153.74999999999972 222.5 L 154.99999999999972 220.0 L 157.49999999999972 220.0 L 159.99999999999972 220.0 L 159.99999999999972 221.25 L 161.24999999999972 222.5 L 159.99999999999972 223.75 L 158.74999999999972 225.0 L 158.74999999999972 225.0 " stroke="black" fill="none" stroke-width="6.0" stroke-linecap="round" stroke-linejoin="round" />
<path d="M 154.99999999999972 225.0 L 154.99999999999972 225.0 L 154.99999999999972 225.0 L 154.99999999999972 225.0 L 154.99999999999972 223.75 L 154.99999999999972 223.75 L 157.49999999999972 222.5 L 159.99999999999972 222.5 L 161.24999999999972 223.75 L 161.24999999999972 227.5 L 161.24999999999972 230.0 L 161.24999999999972 232.5 L 158.74999999999972 233.75 L 157.49999999999972 235.0 L 154.99999999999972 235.0 L 153.74999999999972 232.5 L 153.74999999999972 228.75 L 153.74999999999972 225.0 L 154.99999999999972 222.5 L 157.49999999999972 220.0 L 158.74999999999972 220.0 L 161.24999999999972 220.0 L 161.24999999999972 221.25 " stroke="black" fill="none" stroke-width="6.0" stroke-linecap="round" stroke-linejoin="round" />
</svg>