<svg xmlns="http://www.w3.org/2000/svg" width="300" height="300" viewBox="0 0 300 300">
<path d="M 125.0 95.0 L 123.75 95.0 L 122.5 96.25 L 121.25 123.75 L 121.25 175.0 L 120.0 213.75 L 120.0 235.0 L 121.25 241.25 L 123.75 240.0 L 123.75 228.75 L 123.75 221.25 " stroke="black" fill="none" stroke-width="6.0" stroke-linecap="round" stroke-linejoin="round" />
<path d="M 121.25 118.75 L 120.0 113.75 L 117.5 110.0 L 122.5 106.25 L 138.75 103.75 L 161.25 102.5 L 185.0 107.5 L 196.25 120.0 L 191.25 137.5 L 171.25 158.75 L 145.0 181.25 L 122.5 195.0 L 110.0 198.75 L 113.75 192.5 " stroke="black" fill="none" stroke-width="6.0" stroke-linecap="round" stroke-linejoin="round" />
<path d="M 163.75 158.75 L 163.75 161.25 L 163.75 165.0 L 170.0 177.5 L 183.75 197.5 L 203.75 223.75 L 211.25 247.5 " stroke="black" fill="none" stroke-width="6.0" stroke-linecap="round" stroke-linejoin="round" />
</svg>