<svg xmlns="http://www.w3.org/2000/svg" width="300" height="300" viewBox="0 0 300 300">
<path d="M 149.99999999999972 147.5 L 149.99999999999972 147.5 L 148.74999999999972 146.25 L 148.74999999999972 146.25 L 149.99999999999972 145.0 L 153.74999999999972 145.0 L 156.24999999999972 146.25 L 156.24999999999972 148.75 L 156.24999999999972 151.25 L 152.49999999999972 153.75 L 148.74999999999972 153.75 L 146.24999999999972 153.75 L 144.99999999999972 151.25 L 144.99999999999972 147.5 L 147.49999999999972 145.0 L 149.99999999999972 142.5 L 152.49999999999972 142.5 L 153.74999999999972 143.75 L 153.74999999999972 146.25 L 153.74999999999972 148.75 L 151.24999999999972 151.25 L 149.99999999999972 152.5 L 147.49999999999972 152.5 L 147.49999999999972 151.25 L 147.49999999999972 148.75 L 147.49999999999972 146.25 L 149.99999999999972 145.0 L 151.24999999999972 145.0 L 152.49999999999972 146.25 L 152.49999999999972 148.75 L 151.24999999999972 151.25 L 149.99999999999972 152.5 L 148.74999999999972 152.5 L 148.74999999999972 151.25 L 148.74999999999972 148.75 L 149.99999999999972 146.25 L 151.24999999999972 145.0 L 152.49999999999972 146.25 " stroke="black" fill="none" stroke-width="6.0" stroke-linecap="round" stroke-linejoin="round" />
<path d="M 153.74999999999972 211.25 L 153.74999999999972 211.25 L 152.49999999999972 211.25 L 152.49999999999972 212.5 L 152.49999999999972 213.75 L 154.99999999999972 215.0 L 156.24999999999972 217.5 L 156.24999999999972 221.25 L 154.99999999999972 222.5 L 152.49999999999972 223.75 L 149.99999999999972 223.75 L 147.49999999999972 222.5 L 147.49999999999972 218.75 L 147.49999999999972 215.0 L 149.99999999999972 212.5 L 152.49999999999972 211.25 L 153.74999999999972 211.25 L 154.99999999999972 213.75 L 154.99999999999972 216.25 L 154.99999999999972 220.0 L 153.74999999999972 221.25 L 151.24999999999972 221.25 L 149.99999999999972 221.25 L 149.99999999999972 218.75 L 149.99999999999972 215.0 L 151.24999999999972 212.5 L 153.74999999999972 211.25 L 156.24999999999972 211.25 L 158.74999999999972 211.25 L 158.74999999999972 213.75 L 158.74999999999972 215.0 L 158.74999999999972 216.25 L 156.24999999999972 216.25 " stroke="black" fill="none" stroke-width="6.0" stroke-linecap="round" stroke-linejoin="round" />
</svg>