<svg xmlns="http://www.w3.org/2000/svg" width="300" height="300" viewBox="0 0 300 300">
<path d="M 137.5 102.5 L 137.5 102.5 L 135.0 101.25 L 133.75 102.5 L 133.75 125.0 L 133.75 168.75 L 135.0 207.5 L 140.0 223.75 L 143.75 230.0 L 145.0 226.25 L 145.0 220.0 " stroke="black" fill="none" stroke-width="6.0" stroke-linecap="round" stroke-linejoin="round" />
<path d="M 211.25 100.0 L 210.0 98.75 L 205.0 102.5 L 188.75 123.75 L 168.75 145.0 L 148.75 165.0 L 135.0 178.75 L 131.25 182.5 L 132.5 183.75 L 135.0 183.75 " stroke="black" fill="none" stroke-width="6.0" stroke-linecap="round" stroke-linejoin="round" />
<path d="M 156.25 163.75 L 157.5 165.0 L 157.5 165.0 L 157.5 165.0 L 158.75 166.25 L 165.0 173.75 L 182.5 191.25 L 207.5 212.5 L 233.75 228.75 L 247.5 238.75 L 247.5 241.25 " stroke="black" fill="none" stroke-width="6.0" stroke-linecap="round" stroke-linejoin="round" />
</svg>