<svg xmlns="http://www.w3.org/2000/svg" width="300" height="300" viewBox="0 0 300 300">
<path d="M 190.0 108.75 L 188.75 106.25 L 185.0 103.75 L 177.5 102.5 L 163.75 105.0 L 148.75 116.25 L 133.75 133.75 L 122.5 153.75 L 122.5 167.5 L 135.0 171.25 L 153.75 162.5 L 172.5 147.5 L 188.75 131.25 L 195.0 116.25 L 196.25 108.75 L 193.75 108.75 L 190.0 123.75 L 186.25 158.75 L 182.5 218.75 L 176.25 267.5 L 173.75 282.5 L 166.25 285.0 L 156.25 280.0 L 143.75 270.0 L 136.25 260.0 L 140.0 245.0 L 163.75 218.75 L 205.0 186.25 L 243.75 157.5 " stroke="black" fill="none" stroke-width="6.0" stroke-linecap="round" stroke-linejoin="round" />
</svg>