<svg xmlns="http://www.w3.org/2000/svg" width="300" height="300" viewBox="0 0 300 300">
<path d="M 145.0 155.0 L 145.0 155.0 L 146.25 153.75 L 147.5 152.5 L 150.0 152.5 L 153.75 156.25 L 156.25 161.25 L 156.25 166.25 L 155.0 170.0 L 150.0 172.5 L 146.25 173.75 L 141.25 172.5 L 140.0 166.25 L 140.0 157.5 L 143.75 151.25 L 148.75 148.75 L 153.75 150.0 L 157.5 157.5 L 157.5 166.25 L 156.25 173.75 L 151.25 176.25 L 147.5 176.25 L 142.5 171.25 L 141.25 163.75 L 141.25 156.25 L 145.0 151.25 L 151.25 150.0 L 155.0 153.75 L 157.5 162.5 L 157.5 170.0 L 153.75 175.0 L 150.0 176.25 L 146.25 172.5 L 143.75 166.25 L 143.75 158.75 L 146.25 155.0 L 150.0 153.75 L 153.75 155.0 L 156.25 161.25 L 156.25 166.25 L 153.75 170.0 L 151.25 170.0 L 148.75 168.75 L 147.5 166.25 L 147.5 162.5 L 148.75 160.0 L 150.0 158.75 L 152.5 160.0 L 152.5 163.75 L 152.5 166.25 L 151.25 168.75 L 150.0 168.75 L 148.75 167.5 L 148.75 165.0 L 148.75 162.5 L 150.0 161.25 L 151.25 161.25 L 152.5 161.25 L 152.5 162.5 L 152.5 162.5 L 152.5 162.5 L 151.25 162.5 L 151.25 162.5 L 151.25 162.5 L 151.25 162.5 L 151.25 165.0 L 151.25 167.5 L 151.25 170.0 L 151.25 171.25 L 151.25 170.0 L 150.0 165.0 L 148.75 162.5 " stroke="black" fill="none" stroke-width="6.0" stroke-linecap="round" stroke-linejoin="round" />
</svg>