<svg xmlns="http://www.w3.org/2000/svg" width="300" height="300" viewBox="0 0 300 300">
<path d="M 156.25 83.75 L 156.25 83.75 L 155.0 82.5 L 153.75 82.5 L 151.25 82.5 L 148.75 82.5 L 145.0 83.75 L 141.25 86.25 L 137.5 92.5 L 132.5 105.0 L 126.25 127.5 L 122.5 152.5 L 120.0 176.25 L 120.0 197.5 L 123.75 213.75 L 130.0 226.25 L 137.5 236.25 L 146.25 241.25 L 153.75 242.5 L 163.75 240.0 L 175.0 231.25 L 182.5 218.75 L 187.5 203.75 L 190.0 188.75 L 188.75 171.25 L 186.25 148.75 L 182.5 126.25 L 178.75 110.0 L 173.75 102.5 L 166.25 97.5 L 161.25 93.75 L 155.0 90.0 L 151.25 88.75 L 147.5 88.75 L 146.25 90.0 L 145.0 91.25 L 143.75 92.5 L 143.75 96.25 L 143.75 100.0 " stroke="black" fill="none" stroke-width="6.0" stroke-linecap="round" stroke-linejoin="round" />
<path d="M 127.5 163.75 L 121.25 165.0 L 117.5 166.25 L 117.5 166.25 L 127.5 163.75 L 145.0 160.0 L 167.5 157.5 L 185.0 158.75 " stroke="black" fill="none" stroke-width="6.0" stroke-linecap="round" stroke-linejoin="round" />
</svg>