<svg xmlns="http://www.w3.org/2000/svg" width="300" height="300" viewBox="0 0 300 300">
<path d="M 80.0 75.0 L 80.0 73.75 L 78.75 72.5 L 73.75 76.25 L 63.75 90.0 L 51.25 108.75 L 48.75 112.5 " stroke="black" fill="none" stroke-width="6.0" stroke-linecap="round" stroke-linejoin="round" />
<path d="M 131.25 103.75 L 130.0 101.25 L 128.75 98.75 L 126.25 95.0 L 126.25 91.25 L 126.25 88.75 L 127.5 88.75 L 128.75 92.5 L 128.75 105.0 L 123.75 145.0 L 116.25 192.5 L 113.75 222.5 L 113.75 233.75 L 113.75 238.75 L 113.75 238.75 L 115.0 233.75 L 117.5 222.5 L 117.5 208.75 L 117.5 202.5 " stroke="black" fill="none" stroke-width="6.0" stroke-linecap="round" stroke-linejoin="round" />
<path d="M 128.75 157.5 L 123.75 158.75 L 121.25 158.75 L 120.0 160.0 L 125.0 160.0 L 133.75 161.25 L 150.0 160.0 L 171.25 153.75 L 188.75 148.75 L 190.0 147.5 " stroke="black" fill="none" stroke-width="6.0" stroke-linecap="round" stroke-linejoin="round" />
<path d="M 218.75 85.0 L 221.25 82.5 L 221.25 80.0 L 221.25 78.75 L 221.25 78.75 L 220.0 86.25 L 216.25 106.25 L 208.75 143.75 L 202.5 185.0 L 200.0 207.5 L 200.0 215.0 L 201.25 217.5 L 202.5 217.5 L 202.5 217.5 L 203.75 213.75 L 203.75 211.25 " stroke="black" fill="none" stroke-width="6.0" stroke-linecap="round" stroke-linejoin="round" />
</svg>