<svg xmlns="http://www.w3.org/2000/svg" width="300" height="300" viewBox="0 0 300 300">
<path d="M 166.25 145.0 L 166.25 145.0 L 165.0 145.0 L 163.75 145.0 L 162.5 145.0 L 162.5 145.0 L 167.5 147.5 L 172.5 151.25 L 180.0 156.25 L 186.25 162.5 L 190.0 171.25 L 191.25 182.5 L 192.5 191.25 L 191.25 198.75 L 187.5 207.5 L 183.75 213.75 L 178.75 220.0 L 172.5 225.0 L 167.5 228.75 L 161.25 231.25 L 153.75 232.5 L 147.5 235.0 L 141.25 236.25 L 136.25 236.25 L 132.5 236.25 L 130.0 233.75 L 127.5 228.75 L 125.0 223.75 L 122.5 217.5 L 120.0 210.0 L 117.5 203.75 L 116.25 197.5 L 116.25 192.5 L 116.25 187.5 L 116.25 182.5 L 117.5 176.25 L 120.0 168.75 L 123.75 162.5 L 126.25 157.5 L 128.75 153.75 L 131.25 151.25 L 133.75 150.0 L 137.5 148.75 L 141.25 146.25 L 145.0 145.0 L 148.75 143.75 L 152.5 142.5 L 157.5 142.5 L 162.5 142.5 L 170.0 141.25 L 176.25 141.25 L 181.25 141.25 L 186.25 141.25 L 191.25 142.5 L 196.25 146.25 L 202.5 148.75 L 207.5 150.0 L 211.25 150.0 L 215.0 150.0 L 215.0 150.0 " stroke="black" fill="none" stroke-width="6.0" stroke-linecap="round" stroke-linejoin="round" />
</svg>