<svg xmlns="http://www.w3.org/2000/svg" width="300" height="300" viewBox="0 0 300 300">
<path d="M 88.75 133.75 L 85.0 135.0 L 80.0 136.25 L 77.5 137.5 L 80.0 140.0 L 91.25 143.75 L 111.25 145.0 L 140.0 142.5 L 165.0 135.0 L 182.5 127.5 L 190.0 123.75 L 190.0 122.5 L 186.25 122.5 L 176.25 126.25 L 162.5 133.75 L 148.75 140.0 " stroke="black" fill="none" stroke-width="6.0" stroke-linecap="round" stroke-linejoin="round" />
<path d="M 117.5 155.0 L 117.5 155.0 L 117.5 153.75 L 117.5 155.0 L 122.5 173.75 L 117.5 245.0 L 106.25 268.75 L 98.75 268.75 L 96.25 265.0 " stroke="black" fill="none" stroke-width="6.0" stroke-linecap="round" stroke-linejoin="round" />
<path d="M 163.75 150.0 L 163.75 150.0 L 163.75 150.0 L 163.75 150.0 L 163.75 150.0 L 163.75 150.0 L 163.75 150.0 L 163.75 152.5 L 163.75 161.25 L 163.75 180.0 L 163.75 205.0 L 166.25 222.5 L 172.5 228.75 L 181.25 231.25 L 192.5 227.5 L 202.5 220.0 L 211.25 211.25 L 213.75 205.0 L 215.0 203.75 L 210.0 202.5 L 206.25 202.5 " stroke="black" fill="none" stroke-width="6.0" stroke-linecap="round" stroke-linejoin="round" />
</svg>