<svg xmlns="http://www.w3.org/2000/svg" width="300" height="300" viewBox="0 0 300 300">
<path d="M 135.0 43.75 L 133.75 42.5 L 132.5 41.25 L 132.5 40.0 L 132.5 38.75 L 133.75 38.75 L 136.25 37.5 L 138.75 37.5 L 140.0 38.75 L 140.0 41.25 L 140.0 43.75 L 137.5 46.25 L 135.0 47.5 L 132.5 48.75 L 131.25 48.75 L 130.0 47.5 L 130.0 45.0 L 131.25 42.5 L 133.75 41.25 L 135.0 41.25 L 136.25 41.25 L 136.25 41.25 L 136.25 42.5 L 133.75 43.75 L 131.25 43.75 L 131.25 43.75 L 131.25 42.5 " stroke="black" fill="none" stroke-width="6.0" stroke-linecap="round" stroke-linejoin="round" />
<path d="M 172.5 46.25 L 172.5 46.25 L 171.25 46.25 L 170.0 46.25 L 168.75 45.0 L 168.75 43.75 L 168.75 42.5 L 171.25 41.25 L 172.5 40.0 L 175.0 40.0 L 177.5 42.5 L 177.5 46.25 L 177.5 48.75 L 175.0 51.25 L 171.25 51.25 L 168.75 51.25 L 167.5 48.75 L 166.25 46.25 L 167.5 43.75 L 170.0 42.5 L 172.5 42.5 L 173.75 42.5 L 175.0 42.5 L 175.0 43.75 L 173.75 43.75 L 173.75 43.75 " stroke="black" fill="none" stroke-width="6.0" stroke-linecap="round" stroke-linejoin="round" />
<path d="M 107.5 95.0 L 107.5 93.75 L 107.5 92.5 L 107.5 92.5 L 107.5 91.25 L 107.5 91.25 L 107.5 93.75 L 112.5 98.75 L 120.0 111.25 L 131.25 130.0 L 140.0 147.5 L 145.0 157.5 L 147.5 161.25 L 148.75 162.5 L 148.75 162.5 L 148.75 160.0 L 147.5 152.5 L 146.25 143.75 " stroke="black" fill="none" stroke-width="6.0" stroke-linecap="round" stroke-linejoin="round" />
<path d="M 200.0 93.75 L 200.0 92.5 L 198.75 92.5 L 198.75 91.25 L 198.75 91.25 L 196.25 92.5 L 193.75 95.0 L 181.25 111.25 L 163.75 132.5 L 151.25 146.25 L 147.5 152.5 L 147.5 152.5 L 148.75 152.5 L 150.0 151.25 L 150.0 151.25 L 150.0 151.25 L 150.0 151.25 L 150.0 151.25 L 150.0 151.25 L 150.0 151.25 L 150.0 151.25 L 151.25 151.25 L 151.25 151.25 L 151.25 151.25 L 151.25 151.25 L 151.25 151.25 L 151.25 156.25 L 151.25 176.25 L 151.25 202.5 L 152.5 227.5 L 152.5 241.25 L 153.75 246.25 L 153.75 247.5 L 155.0 247.5 L 156.25 242.5 " stroke="black" fill="none" stroke-width="6.0" stroke-linecap="round" stroke-linejoin="round" />
</svg>