<svg xmlns="http://www.w3.org/2000/svg" width="300" height="300" viewBox="0 0 300 300">
<path d="M 83.75 80.0 L 82.5 77.5 L 80.0 76.25 L 78.75 75.0 L 78.75 73.75 L 77.5 73.75 L 77.5 73.75 L 77.5 73.75 L 78.75 76.25 L 78.75 78.75 L 80.0 83.75 L 80.0 88.75 L 81.25 95.0 L 81.25 101.25 L 82.5 107.5 L 82.5 115.0 L 82.5 122.5 L 82.5 128.75 L 82.5 136.25 L 83.75 142.5 L 83.75 148.75 L 83.75 155.0 L 85.0 162.5 L 85.0 168.75 L 86.25 176.25 L 87.5 182.5 L 88.75 188.75 L 91.25 193.75 L 92.5 197.5 L 95.0 200.0 L 98.75 202.5 L 102.5 205.0 L 107.5 206.25 L 113.75 208.75 L 118.75 210.0 L 122.5 211.25 L 126.25 211.25 L 130.0 211.25 L 132.5 210.0 L 136.25 208.75 L 138.75 206.25 L 142.5 201.25 L 145.0 196.25 L 147.5 190.0 L 147.5 181.25 L 148.75 173.75 L 148.75 163.75 L 148.75 153.75 L 148.75 143.75 L 148.75 132.5 L 148.75 120.0 L 148.75 108.75 L 148.75 100.0 L 150.0 93.75 L 150.0 90.0 L 150.0 86.25 L 150.0 82.5 L 150.0 81.25 L 150.0 80.0 L 150.0 78.75 L 150.0 78.75 L 150.0 77.5 L 150.0 76.25 L 150.0 76.25 L 150.0 75.0 L 150.0 75.0 L 150.0 75.0 L 150.0 75.0 L 150.0 75.0 L 150.0 75.0 L 150.0 76.25 L 150.0 78.75 L 148.75 85.0 L 147.5 92.5 L 146.25 101.25 L 145.0 111.25 L 145.0 121.25 L 145.0 131.25 L 145.0 138.75 L 145.0 146.25 L 145.0 153.75 L 145.0 160.0 L 146.25 166.25 L 146.25 172.5 L 147.5 178.75 L 147.5 183.75 L 148.75 190.0 L 150.0 193.75 L 150.0 197.5 L 151.25 201.25 L 153.75 202.5 L 155.0 203.75 L 158.75 206.25 L 161.25 206.25 L 165.0 207.5 L 168.75 208.75 L 172.5 210.0 L 177.5 211.25 L 181.25 211.25 L 183.75 211.25 L 186.25 211.25 L 190.0 211.25 L 192.5 210.0 L 195.0 206.25 L 198.75 202.5 L 201.25 197.5 L 202.5 192.5 L 205.0 187.5 L 206.25 180.0 L 208.75 172.5 L 210.0 165.0 L 212.5 158.75 L 213.75 152.5 L 215.0 146.25 L 216.25 140.0 L 220.0 131.25 L 222.5 121.25 L 223.75 111.25 L 225.0 102.5 L 225.0 93.75 L 225.0 87.5 L 225.0 81.25 L 225.0 76.25 L 226.25 72.5 L 226.25 71.25 L 226.25 70.0 L 226.25 70.0 L 226.25 70.0 L 226.25 70.0 L 226.25 71.25 L 226.25 72.5 L 226.25 75.0 L 226.25 78.75 L 226.25 83.75 L 225.0 91.25 L 223.75 100.0 L 223.75 111.25 L 222.5 123.75 L 221.25 133.75 L 221.25 142.5 L 221.25 150.0 L 221.25 156.25 L 221.25 162.5 L 221.25 168.75 L 221.25 175.0 L 221.25 182.5 L 221.25 191.25 L 221.25 198.75 L 221.25 205.0 L 221.25 210.0 L 221.25 215.0 L 221.25 220.0 L 221.25 225.0 L 220.0 231.25 L 220.0 236.25 L 218.75 243.75 L 217.5 248.75 L 215.0 251.25 L 212.5 255.0 L 210.0 256.25 L 207.5 258.75 L 203.75 260.0 L 200.0 261.25 L 196.25 262.5 L 191.25 265.0 L 186.25 267.5 L 181.25 268.75 L 176.25 268.75 L 171.25 268.75 L 165.0 268.75 L 158.75 268.75 L 155.0 268.75 L 150.0 268.75 L 146.25 268.75 L 143.75 267.5 L 140.0 267.5 L 136.25 267.5 L 131.25 267.5 L 127.5 267.5 L 122.5 267.5 L 117.5 267.5 L 111.25 267.5 L 103.75 270.0 L 96.25 272.5 L 90.0 276.25 L 83.75 278.75 L 78.75 281.25 L 76.25 281.25 L 75.0 281.25 L 75.0 281.25 L 75.0 281.25 L 75.0 281.25 L 75.0 281.25 L 75.0 281.25 L 75.0 281.25 L 76.25 278.75 L 76.25 277.5 " stroke="black" fill="none" stroke-width="6.0" stroke-linecap="round" stroke-linejoin="round" />
</svg>