<svg xmlns="http://www.w3.org/2000/svg" width="300" height="300" viewBox="0 0 300 300">
<path d="M 127.5 88.75 L 122.5 90.0 L 112.5 92.5 L 107.5 93.75 L 106.25 95.0 L 110.0 98.75 L 123.75 103.75 L 145.0 105.0 L 166.25 105.0 L 187.5 103.75 L 200.0 102.5 L 205.0 101.25 L 205.0 101.25 L 202.5 101.25 L 200.0 102.5 L 195.0 105.0 L 188.75 111.25 L 177.5 122.5 L 161.25 141.25 L 143.75 166.25 L 128.75 192.5 L 118.75 207.5 L 116.25 211.25 L 116.25 212.5 L 116.25 212.5 L 116.25 212.5 L 116.25 212.5 L 116.25 212.5 L 116.25 213.75 L 116.25 213.75 L 116.25 215.0 L 115.0 215.0 L 115.0 215.0 L 115.0 216.25 L 115.0 216.25 L 116.25 216.25 L 123.75 216.25 L 140.0 216.25 L 165.0 216.25 L 195.0 220.0 L 215.0 221.25 L 222.5 221.25 L 222.5 220.0 " stroke="black" fill="none" stroke-width="6.0" stroke-linecap="round" stroke-linejoin="round" />
</svg>