<svg xmlns="http://www.w3.org/2000/svg" width="300" height="300" viewBox="0 0 300 300">
<path d="M 170.0 71.25 L 170.0 71.25 L 166.25 71.25 L 161.25 73.75 L 153.75 83.75 L 146.25 98.75 L 140.0 107.5 " stroke="black" fill="none" stroke-width="6.0" stroke-linecap="round" stroke-linejoin="round" />
<path d="M 101.25 137.5 L 101.25 133.75 L 101.25 132.5 L 101.25 131.25 L 100.0 132.5 L 98.75 138.75 L 96.25 153.75 L 93.75 177.5 L 92.5 196.25 L 93.75 220.0 L 98.75 231.25 L 107.5 237.5 L 118.75 238.75 L 130.0 235.0 L 137.5 225.0 L 143.75 213.75 L 148.75 202.5 L 150.0 191.25 L 150.0 180.0 L 148.75 168.75 L 147.5 162.5 L 147.5 160.0 L 147.5 161.25 L 147.5 162.5 L 147.5 162.5 L 147.5 163.75 L 147.5 165.0 L 147.5 167.5 L 147.5 171.25 L 147.5 176.25 L 148.75 185.0 L 150.0 196.25 L 153.75 208.75 L 158.75 220.0 L 167.5 227.5 L 180.0 230.0 L 193.75 227.5 L 205.0 217.5 L 211.25 206.25 L 213.75 195.0 L 212.5 181.25 L 207.5 165.0 L 205.0 147.5 L 201.25 136.25 L 198.75 135.0 L 196.25 133.75 L 193.75 133.75 L 190.0 136.25 " stroke="black" fill="none" stroke-width="6.0" stroke-linecap="round" stroke-linejoin="round" />
</svg>