<svg xmlns="http://www.w3.org/2000/svg" width="300" height="300" viewBox="0 0 300 300">
<path d="M 108.75 115.0 L 106.25 108.75 L 103.75 103.75 L 102.5 101.25 L 101.25 100.0 L 105.0 102.5 L 116.25 117.5 L 133.75 142.5 L 151.25 177.5 L 168.75 205.0 L 185.0 220.0 L 196.25 231.25 L 198.75 235.0 L 198.75 235.0 L 197.5 233.75 L 195.0 226.25 L 188.75 212.5 L 186.25 210.0 " stroke="black" fill="none" stroke-width="6.0" stroke-linecap="round" stroke-linejoin="round" />
<path d="M 208.75 102.5 L 208.75 101.25 L 206.25 97.5 L 206.25 95.0 L 205.0 95.0 L 197.5 107.5 L 181.25 133.75 L 153.75 170.0 L 127.5 205.0 L 106.25 228.75 L 98.75 241.25 L 98.75 242.5 L 103.75 241.25 L 110.0 235.0 " stroke="black" fill="none" stroke-width="6.0" stroke-linecap="round" stroke-linejoin="round" />
</svg>