<svg xmlns="http://www.w3.org/2000/svg" width="300" height="300" viewBox="0 0 300 300">
<path d="M 110.0 106.25 L 110.0 105.0 L 110.0 102.5 L 110.0 100.0 L 110.0 98.75 L 110.0 97.5 L 110.0 103.75 L 110.0 130.0 L 108.75 160.0 L 106.25 206.25 L 106.25 215.0 L 106.25 215.0 L 107.5 211.25 L 107.5 205.0 L 107.5 195.0 L 106.25 183.75 L 105.0 175.0 " stroke="black" fill="none" stroke-width="6.0" stroke-linecap="round" stroke-linejoin="round" />
<path d="M 107.5 106.25 L 107.5 106.25 L 107.5 106.25 L 107.5 106.25 L 107.5 106.25 L 106.25 106.25 L 106.25 106.25 L 107.5 106.25 L 111.25 106.25 L 118.75 106.25 L 131.25 105.0 L 145.0 103.75 L 158.75 103.75 L 171.25 103.75 L 181.25 103.75 L 188.75 102.5 L 191.25 102.5 L 191.25 102.5 L 191.25 102.5 L 190.0 102.5 L 190.0 102.5 L 188.75 102.5 L 188.75 102.5 L 188.75 102.5 L 188.75 102.5 L 188.75 102.5 L 188.75 102.5 L 188.75 102.5 L 188.75 102.5 L 188.75 102.5 L 188.75 102.5 L 188.75 107.5 L 188.75 122.5 L 188.75 147.5 L 188.75 175.0 L 192.5 197.5 L 195.0 208.75 L 196.25 217.5 L 197.5 227.5 L 198.75 233.75 L 198.75 235.0 L 198.75 235.0 L 198.75 235.0 L 198.75 231.25 L 197.5 225.0 " stroke="black" fill="none" stroke-width="6.0" stroke-linecap="round" stroke-linejoin="round" />
</svg>