<svg xmlns="http://www.w3.org/2000/svg" width="300" height="300" viewBox="0 0 300 300">
<path d="M 177.5 118.75 L 176.25 118.75 L 173.75 118.75 L 172.5 118.75 L 170.0 117.5 L 168.75 117.5 L 166.25 116.25 L 162.5 116.25 L 160.0 116.25 L 156.25 115.0 L 153.75 115.0 L 151.25 115.0 L 148.75 115.0 L 146.25 115.0 L 142.5 116.25 L 140.0 117.5 L 135.0 120.0 L 130.0 122.5 L 126.25 126.25 L 122.5 128.75 L 118.75 131.25 L 115.0 133.75 L 112.5 135.0 L 108.75 137.5 L 106.25 141.25 L 103.75 143.75 L 102.5 146.25 L 101.25 148.75 L 100.0 152.5 L 98.75 156.25 L 98.75 161.25 L 98.75 167.5 L 98.75 173.75 L 98.75 181.25 L 98.75 186.25 L 98.75 191.25 L 101.25 195.0 L 105.0 198.75 L 108.75 202.5 L 115.0 205.0 L 122.5 207.5 L 131.25 208.75 L 140.0 208.75 L 147.5 208.75 L 153.75 207.5 L 161.25 205.0 L 168.75 202.5 L 177.5 200.0 L 185.0 196.25 L 192.5 192.5 L 198.75 188.75 L 202.5 185.0 L 203.75 182.5 L 205.0 178.75 L 206.25 173.75 L 208.75 168.75 L 211.25 165.0 L 212.5 160.0 L 212.5 157.5 L 212.5 153.75 L 212.5 150.0 L 210.0 146.25 L 207.5 140.0 L 203.75 135.0 L 200.0 130.0 L 195.0 125.0 L 190.0 121.25 L 185.0 118.75 L 181.25 118.75 L 177.5 120.0 L 175.0 122.5 " stroke="black" fill="none" stroke-width="6.0" stroke-linecap="round" stroke-linejoin="round" />
<path d="M 153.75 73.75 L 152.5 73.75 L 152.5 73.75 L 151.25 73.75 L 151.25 73.75 L 151.25 73.75 L 151.25 80.0 L 152.5 92.5 L 153.75 122.5 L 153.75 166.25 L 150.0 207.5 L 150.0 230.0 L 150.0 242.5 L 150.0 246.25 L 151.25 246.25 L 151.25 246.25 L 150.0 243.75 " stroke="black" fill="none" stroke-width="6.0" stroke-linecap="round" stroke-linejoin="round" />
</svg>