<svg xmlns="http://www.w3.org/2000/svg" width="300" height="300" viewBox="0 0 300 300">
<path d="M 165.0 65.0 L 165.0 63.75 L 165.0 61.25 L 165.0 60.0 L 163.75 60.0 L 161.25 67.5 L 153.75 83.75 L 148.75 92.5 " stroke="black" fill="none" stroke-width="6.0" stroke-linecap="round" stroke-linejoin="round" />
<path d="M 148.75 127.5 L 147.5 127.5 L 146.25 126.25 L 145.0 126.25 L 143.75 125.0 L 143.75 125.0 L 143.75 125.0 L 143.75 125.0 L 143.75 127.5 L 143.75 130.0 L 145.0 135.0 L 145.0 141.25 L 146.25 147.5 L 146.25 156.25 L 146.25 166.25 L 146.25 177.5 L 146.25 190.0 L 145.0 200.0 L 145.0 208.75 L 145.0 216.25 L 146.25 218.75 L 147.5 221.25 L 150.0 222.5 L 152.5 222.5 L 157.5 222.5 L 163.75 222.5 L 171.25 222.5 L 178.75 221.25 L 183.75 220.0 L 187.5 220.0 L 188.75 218.75 L 188.75 217.5 L 188.75 216.25 L 187.5 213.75 " stroke="black" fill="none" stroke-width="6.0" stroke-linecap="round" stroke-linejoin="round" />
</svg>