<svg xmlns="http://www.w3.org/2000/svg" width="300" height="300" viewBox="0 0 300 300">
<path d="M 106.25 87.5 L 105.0 87.5 L 100.0 87.5 L 97.5 87.5 L 98.75 86.25 L 107.5 85.0 L 122.5 85.0 L 138.75 92.5 L 153.75 116.25 L 167.5 156.25 L 178.75 187.5 L 188.75 203.75 L 196.25 210.0 L 202.5 213.75 L 206.25 213.75 L 208.75 211.25 L 210.0 206.25 L 207.5 200.0 L 205.0 198.75 " stroke="black" fill="none" stroke-width="6.0" stroke-linecap="round" stroke-linejoin="round" />
<path d="M 157.5 138.75 L 157.5 136.25 L 156.25 135.0 L 155.0 135.0 L 148.75 143.75 L 136.25 168.75 L 122.5 195.0 L 105.0 228.75 L 105.0 235.0 L 107.5 236.25 " stroke="black" fill="none" stroke-width="6.0" stroke-linecap="round" stroke-linejoin="round" />
</svg>