<svg xmlns="http://www.w3.org/2000/svg" width="300" height="300" viewBox="0 0 300 300">
<path d="M 148.75 85.0 L 148.75 85.0 L 146.25 83.75 L 143.75 83.75 L 143.75 83.75 L 143.75 83.75 L 143.75 83.75 L 147.5 83.75 L 150.0 83.75 L 152.5 83.75 L 155.0 83.75 L 156.25 83.75 L 156.25 83.75 L 156.25 83.75 L 156.25 85.0 L 153.75 86.25 L 150.0 86.25 L 147.5 86.25 L 145.0 86.25 L 143.75 86.25 L 143.75 86.25 L 142.5 86.25 L 142.5 86.25 L 143.75 86.25 L 145.0 85.0 L 146.25 83.75 L 146.25 83.75 " stroke="black" fill="none" stroke-width="6.0" stroke-linecap="round" stroke-linejoin="round" />
<path d="M 150.0 131.25 L 148.75 130.0 L 147.5 128.75 L 146.25 128.75 L 146.25 130.0 L 147.5 136.25 L 151.25 148.75 L 155.0 172.5 L 157.5 198.75 L 158.75 216.25 L 158.75 231.25 L 158.75 243.75 L 158.75 250.0 L 156.25 255.0 L 153.75 257.5 L 148.75 260.0 L 143.75 262.5 L 136.25 265.0 L 130.0 266.25 L 123.75 267.5 L 120.0 267.5 L 118.75 265.0 L 117.5 260.0 L 117.5 256.25 " stroke="black" fill="none" stroke-width="6.0" stroke-linecap="round" stroke-linejoin="round" />
</svg>