<svg xmlns="http://www.w3.org/2000/svg" width="300" height="300" viewBox="0 0 300 300">
<path d="M 197.5 87.5 L 195.0 86.25 L 193.75 85.0 L 192.5 85.0 L 191.25 83.75 L 190.0 82.5 L 188.75 81.25 L 186.25 80.0 L 182.5 80.0 L 177.5 80.0 L 170.0 80.0 L 162.5 81.25 L 155.0 85.0 L 147.5 87.5 L 141.25 91.25 L 136.25 96.25 L 130.0 103.75 L 122.5 111.25 L 116.25 118.75 L 111.25 127.5 L 106.25 136.25 L 103.75 143.75 L 102.5 152.5 L 102.5 162.5 L 102.5 175.0 L 106.25 188.75 L 111.25 201.25 L 118.75 210.0 L 130.0 217.5 L 143.75 223.75 L 155.0 226.25 L 167.5 227.5 L 181.25 223.75 L 193.75 218.75 L 201.25 213.75 L 205.0 210.0 L 205.0 208.75 L 205.0 208.75 L 203.75 205.0 L 203.75 205.0 " stroke="black" fill="none" stroke-width="6.0" stroke-linecap="round" stroke-linejoin="round" />
</svg>