<svg xmlns="http://www.w3.org/2000/svg" width="300" height="300" viewBox="0 0 300 300">
<path d="M 92.5 100.0 L 91.25 100.0 L 88.75 98.75 L 87.5 98.75 L 86.25 97.5 L 86.25 97.5 L 86.25 100.0 L 88.75 111.25 L 91.25 128.75 L 92.5 145.0 L 95.0 156.25 L 96.25 163.75 L 98.75 167.5 L 103.75 170.0 L 108.75 172.5 L 116.25 175.0 L 125.0 177.5 L 133.75 177.5 L 141.25 177.5 L 148.75 176.25 L 155.0 175.0 L 161.25 173.75 L 168.75 172.5 L 176.25 171.25 L 182.5 168.75 L 187.5 166.25 L 191.25 162.5 L 192.5 157.5 L 193.75 151.25 L 195.0 145.0 L 195.0 138.75 L 195.0 131.25 L 196.25 120.0 L 196.25 107.5 L 197.5 97.5 L 197.5 92.5 L 197.5 91.25 L 196.25 90.0 L 196.25 90.0 L 196.25 90.0 L 196.25 90.0 L 196.25 90.0 L 196.25 90.0 L 195.0 90.0 " stroke="black" fill="none" stroke-width="6.0" stroke-linecap="round" stroke-linejoin="round" />
<path d="M 141.25 95.0 L 141.25 95.0 L 138.75 93.75 L 137.5 92.5 L 137.5 91.25 L 137.5 91.25 L 140.0 92.5 L 142.5 105.0 L 143.75 133.75 L 143.75 172.5 L 143.75 208.75 L 143.75 232.5 L 145.0 243.75 L 145.0 248.75 L 145.0 248.75 L 145.0 248.75 L 145.0 246.25 L 145.0 240.0 L 143.75 228.75 " stroke="black" fill="none" stroke-width="6.0" stroke-linecap="round" stroke-linejoin="round" />
</svg>