<svg xmlns="http://www.w3.org/2000/svg" width="300" height="300" viewBox="0 0 300 300">
<path d="M 197.5 88.75 L 197.5 87.5 L 197.5 86.25 L 197.5 86.25 L 196.25 85.0 L 195.0 83.75 L 192.5 81.25 L 188.75 80.0 L 182.5 78.75 L 173.75 78.75 L 163.75 80.0 L 153.75 83.75 L 146.25 90.0 L 140.0 95.0 L 135.0 102.5 L 130.0 111.25 L 126.25 123.75 L 122.5 137.5 L 120.0 148.75 L 120.0 158.75 L 121.25 170.0 L 123.75 183.75 L 127.5 198.75 L 132.5 210.0 L 137.5 220.0 L 145.0 230.0 L 152.5 237.5 L 162.5 240.0 L 176.25 241.25 L 188.75 240.0 L 198.75 236.25 L 205.0 233.75 L 207.5 230.0 L 208.75 227.5 L 210.0 225.0 L 210.0 221.25 L 210.0 218.75 " stroke="black" fill="none" stroke-width="6.0" stroke-linecap="round" stroke-linejoin="round" />
<path d="M 167.5 148.75 L 170.0 148.75 L 171.25 148.75 L 172.5 148.75 L 175.0 151.25 L 175.0 155.0 L 175.0 158.75 L 171.25 163.75 L 166.25 166.25 L 161.25 166.25 L 157.5 163.75 L 156.25 157.5 L 157.5 151.25 L 161.25 146.25 L 166.25 143.75 L 170.0 143.75 L 173.75 147.5 L 175.0 153.75 L 173.75 158.75 L 171.25 162.5 L 166.25 165.0 L 162.5 165.0 L 160.0 163.75 L 158.75 160.0 L 158.75 156.25 L 161.25 153.75 L 163.75 152.5 L 167.5 151.25 L 168.75 153.75 L 170.0 156.25 L 170.0 158.75 L 167.5 160.0 L 165.0 160.0 L 162.5 160.0 L 161.25 158.75 L 160.0 157.5 L 160.0 157.5 L 161.25 156.25 L 161.25 156.25 " stroke="black" fill="none" stroke-width="6.0" stroke-linecap="round" stroke-linejoin="round" />
</svg>