<svg xmlns="http://www.w3.org/2000/svg" width="300" height="300" viewBox="0 0 300 300">
<path d="M 107.5 92.5 L 102.5 95.0 L 98.75 96.25 L 97.5 97.5 L 100.0 98.75 L 111.25 100.0 L 132.5 101.25 L 156.25 101.25 L 177.5 98.75 L 195.0 96.25 L 200.0 95.0 L 200.0 93.75 L 197.5 93.75 L 191.25 95.0 L 188.75 95.0 " stroke="black" fill="none" stroke-width="6.0" stroke-linecap="round" stroke-linejoin="round" />
<path d="M 140.0 143.75 L 137.5 143.75 L 132.5 146.25 L 128.75 146.25 L 128.75 147.5 L 133.75 148.75 L 145.0 148.75 L 160.0 148.75 L 175.0 148.75 L 186.25 148.75 L 190.0 148.75 L 187.5 150.0 " stroke="black" fill="none" stroke-width="6.0" stroke-linecap="round" stroke-linejoin="round" />
<path d="M 135.0 243.75 L 132.5 242.5 L 128.75 241.25 L 125.0 241.25 L 122.5 241.25 L 122.5 241.25 L 123.75 241.25 L 130.0 242.5 L 141.25 242.5 L 155.0 242.5 L 170.0 242.5 L 185.0 242.5 L 195.0 242.5 L 202.5 242.5 L 203.75 242.5 L 202.5 242.5 L 200.0 242.5 " stroke="black" fill="none" stroke-width="6.0" stroke-linecap="round" stroke-linejoin="round" />
</svg>