<svg xmlns="http://www.w3.org/2000/svg" width="300" height="300" viewBox="0 0 300 300">
<path d="M 138.75 75.0 L 133.75 75.0 L 127.5 75.0 L 122.5 75.0 L 121.25 75.0 L 122.5 76.25 L 132.5 80.0 L 147.5 82.5 L 165.0 83.75 L 182.5 83.75 L 196.25 83.75 L 200.0 83.75 L 200.0 83.75 L 197.5 83.75 L 192.5 86.25 L 186.25 90.0 L 177.5 97.5 L 170.0 103.75 L 160.0 115.0 L 148.75 128.75 L 141.25 142.5 L 135.0 155.0 L 131.25 167.5 L 130.0 178.75 L 128.75 188.75 L 128.75 197.5 L 128.75 203.75 L 130.0 208.75 L 132.5 211.25 L 137.5 215.0 L 143.75 217.5 L 151.25 220.0 L 158.75 221.25 L 166.25 221.25 L 172.5 223.75 L 177.5 225.0 L 182.5 227.5 L 186.25 230.0 L 190.0 232.5 L 191.25 236.25 L 191.25 240.0 L 188.75 246.25 L 185.0 252.5 L 178.75 260.0 L 172.5 265.0 " stroke="black" fill="none" stroke-width="6.0" stroke-linecap="round" stroke-linejoin="round" />
</svg>