<svg xmlns="http://www.w3.org/2000/svg" width="300" height="300" viewBox="0 0 300 300">
<path d="M 115.0 117.5 L 116.25 115.0 L 117.5 110.0 L 117.5 103.75 L 117.5 97.5 L 117.5 93.75 L 117.5 91.25 L 117.5 97.5 L 113.75 130.0 L 107.5 178.75 L 101.25 227.5 L 100.0 243.75 L 101.25 243.75 L 102.5 232.5 L 103.75 213.75 L 103.75 207.5 " stroke="black" fill="none" stroke-width="6.0" stroke-linecap="round" stroke-linejoin="round" />
<path d="M 118.75 113.75 L 120.0 111.25 L 120.0 108.75 L 121.25 107.5 L 121.25 106.25 L 122.5 106.25 L 127.5 108.75 L 132.5 118.75 L 138.75 133.75 L 148.75 157.5 L 160.0 185.0 L 170.0 203.75 L 180.0 215.0 L 186.25 221.25 L 188.75 223.75 L 190.0 223.75 L 190.0 223.75 L 190.0 223.75 L 190.0 223.75 L 190.0 223.75 L 190.0 223.75 L 190.0 223.75 L 190.0 223.75 L 190.0 223.75 L 190.0 221.25 L 193.75 211.25 L 198.75 190.0 L 203.75 152.5 L 206.25 113.75 L 206.25 90.0 L 205.0 83.75 L 205.0 83.75 L 205.0 83.75 L 203.75 87.5 L 203.75 95.0 L 203.75 96.25 " stroke="black" fill="none" stroke-width="6.0" stroke-linecap="round" stroke-linejoin="round" />
</svg>