<svg xmlns="http://www.w3.org/2000/svg" width="300" height="300" viewBox="0 0 300 300">
<path d="M 175.0 151.25 L 175.0 151.25 L 176.25 151.25 L 176.25 151.25 L 176.25 151.25 L 176.25 151.25 L 176.25 150.0 L 175.0 148.75 L 173.75 146.25 L 170.0 143.75 L 166.25 140.0 L 161.25 137.5 L 156.25 135.0 L 151.25 133.75 L 147.5 133.75 L 143.75 133.75 L 141.25 133.75 L 138.75 133.75 L 136.25 135.0 L 133.75 136.25 L 130.0 138.75 L 126.25 142.5 L 122.5 146.25 L 118.75 150.0 L 116.25 153.75 L 115.0 157.5 L 112.5 163.75 L 112.5 172.5 L 111.25 181.25 L 110.0 190.0 L 108.75 197.5 L 108.75 203.75 L 108.75 211.25 L 111.25 218.75 L 113.75 226.25 L 117.5 232.5 L 121.25 237.5 L 126.25 238.75 L 131.25 240.0 L 137.5 240.0 L 142.5 238.75 L 148.75 235.0 L 153.75 231.25 L 157.5 227.5 L 161.25 223.75 L 165.0 217.5 L 168.75 211.25 L 171.25 205.0 L 173.75 197.5 L 176.25 190.0 L 178.75 182.5 L 182.5 173.75 L 185.0 163.75 L 187.5 153.75 L 190.0 146.25 L 191.25 141.25 L 192.5 137.5 L 192.5 136.25 L 192.5 135.0 L 193.75 133.75 L 193.75 132.5 L 193.75 132.5 L 193.75 132.5 L 193.75 132.5 L 193.75 132.5 L 193.75 132.5 L 193.75 132.5 L 193.75 132.5 L 193.75 132.5 L 192.5 133.75 L 190.0 136.25 L 187.5 140.0 L 183.75 146.25 L 181.25 155.0 L 178.75 167.5 L 177.5 180.0 L 177.5 191.25 L 180.0 201.25 L 183.75 208.75 L 187.5 212.5 L 192.5 218.75 L 198.75 222.5 L 202.5 225.0 L 208.75 227.5 L 212.5 227.5 L 212.5 227.5 L 212.5 226.25 L 212.5 226.25 " stroke="black" fill="none" stroke-width="6.0" stroke-linecap="round" stroke-linejoin="round" />
</svg>