<svg xmlns="http://www.w3.org/2000/svg" width="300" height="300" viewBox="0 0 300 300">
<path d="M 95.0 82.5 L 93.75 81.25 L 91.25 78.75 L 86.25 82.5 L 77.5 97.5 L 66.25 125.0 L 63.75 136.25 " stroke="black" fill="none" stroke-width="6.0" stroke-linecap="round" stroke-linejoin="round" />
<path d="M 140.0 86.25 L 138.75 86.25 L 135.0 85.0 L 133.75 83.75 L 132.5 83.75 L 133.75 85.0 L 138.75 93.75 L 147.5 113.75 L 160.0 143.75 L 172.5 163.75 L 178.75 176.25 " stroke="black" fill="none" stroke-width="6.0" stroke-linecap="round" stroke-linejoin="round" />
<path d="M 235.0 85.0 L 235.0 83.75 L 235.0 80.0 L 233.75 78.75 L 233.75 78.75 L 231.25 80.0 L 226.25 87.5 L 215.0 102.5 L 202.5 123.75 L 190.0 141.25 L 183.75 151.25 L 182.5 155.0 L 182.5 155.0 L 182.5 156.25 L 182.5 156.25 L 182.5 156.25 L 182.5 156.25 L 182.5 156.25 L 182.5 156.25 L 182.5 156.25 L 182.5 156.25 L 182.5 156.25 L 182.5 156.25 L 182.5 156.25 L 182.5 156.25 L 182.5 157.5 L 182.5 168.75 L 182.5 193.75 L 182.5 225.0 L 185.0 248.75 L 186.25 256.25 L 187.5 260.0 L 188.75 260.0 L 188.75 260.0 L 190.0 257.5 " stroke="black" fill="none" stroke-width="6.0" stroke-linecap="round" stroke-linejoin="round" />
</svg>