<svg xmlns="http://www.w3.org/2000/svg" width="300" height="300" viewBox="0 0 300 300">
<path d="M 151.25 88.75 L 150.0 87.5 L 150.0 85.0 L 148.75 83.75 L 148.75 83.75 L 148.75 83.75 L 148.75 83.75 L 148.75 85.0 L 148.75 87.5 L 148.75 93.75 L 150.0 100.0 L 150.0 108.75 L 150.0 118.75 L 150.0 128.75 L 151.25 137.5 L 151.25 145.0 L 151.25 151.25 L 151.25 157.5 L 151.25 163.75 L 151.25 170.0 L 150.0 176.25 L 150.0 183.75 L 150.0 188.75 L 150.0 192.5 L 150.0 197.5 L 150.0 201.25 L 150.0 205.0 L 150.0 210.0 L 148.75 213.75 L 148.75 218.75 L 148.75 222.5 L 147.5 226.25 L 147.5 231.25 L 146.25 235.0 L 145.0 238.75 L 142.5 243.75 L 141.25 248.75 L 140.0 252.5 L 137.5 256.25 L 136.25 257.5 L 132.5 260.0 L 127.5 260.0 L 120.0 261.25 L 112.5 262.5 L 107.5 263.75 L 106.25 263.75 L 110.0 257.5 " stroke="black" fill="none" stroke-width="6.0" stroke-linecap="round" stroke-linejoin="round" />
</svg>