<svg xmlns="http://www.w3.org/2000/svg" width="300" height="300" viewBox="0 0 300 300">
<path d="M 158.75 53.75 L 160.0 53.75 L 161.25 53.75 L 161.25 53.75 L 161.25 53.75 L 158.75 67.5 L 148.75 92.5 L 137.5 117.5 L 135.0 121.25 " stroke="black" fill="none" stroke-width="6.0" stroke-linecap="round" stroke-linejoin="round" />
<path d="M 126.25 81.25 L 123.75 81.25 L 121.25 81.25 L 120.0 81.25 L 121.25 81.25 L 123.75 81.25 L 126.25 81.25 L 127.5 81.25 L 128.75 81.25 L 128.75 82.5 L 127.5 83.75 L 125.0 83.75 L 123.75 83.75 L 123.75 83.75 L 123.75 82.5 L 125.0 81.25 L 126.25 81.25 L 127.5 81.25 L 128.75 82.5 L 128.75 83.75 L 128.75 85.0 L 128.75 85.0 L 127.5 85.0 L 127.5 85.0 L 127.5 85.0 L 127.5 85.0 L 127.5 85.0 " stroke="black" fill="none" stroke-width="6.0" stroke-linecap="round" stroke-linejoin="round" />
<path d="M 186.25 83.75 L 185.0 83.75 L 185.0 82.5 L 185.0 82.5 L 185.0 81.25 L 185.0 81.25 L 186.25 81.25 L 187.5 81.25 L 190.0 81.25 L 191.25 83.75 L 191.25 85.0 L 191.25 86.25 L 190.0 87.5 L 187.5 88.75 L 185.0 88.75 L 185.0 88.75 L 185.0 87.5 L 185.0 86.25 L 185.0 85.0 L 185.0 85.0 L 186.25 85.0 L 186.25 85.0 L 186.25 85.0 L 186.25 85.0 L 186.25 85.0 L 186.25 83.75 L 186.25 83.75 L 186.25 83.75 L 186.25 83.75 " stroke="black" fill="none" stroke-width="6.0" stroke-linecap="round" stroke-linejoin="round" />
<path d="M 115.0 136.25 L 115.0 136.25 L 115.0 136.25 L 113.75 135.0 L 113.75 135.0 L 113.75 133.75 L 112.5 133.75 L 112.5 132.5 L 112.5 132.5 L 112.5 132.5 L 113.75 135.0 L 115.0 141.25 L 116.25 148.75 L 116.25 157.5 L 117.5 166.25 L 117.5 173.75 L 118.75 181.25 L 118.75 186.25 L 120.0 192.5 L 121.25 196.25 L 121.25 201.25 L 122.5 203.75 L 123.75 206.25 L 125.0 208.75 L 126.25 212.5 L 127.5 215.0 L 128.75 217.5 L 130.0 220.0 L 132.5 222.5 L 133.75 225.0 L 136.25 227.5 L 138.75 228.75 L 141.25 230.0 L 143.75 231.25 L 147.5 231.25 L 150.0 231.25 L 153.75 230.0 L 156.25 230.0 L 160.0 228.75 L 162.5 227.5 L 165.0 226.25 L 168.75 225.0 L 170.0 223.75 L 172.5 221.25 L 175.0 220.0 L 176.25 218.75 L 177.5 216.25 L 180.0 213.75 L 181.25 211.25 L 182.5 208.75 L 183.75 206.25 L 185.0 203.75 L 186.25 200.0 L 186.25 197.5 L 187.5 195.0 L 188.75 193.75 L 188.75 190.0 L 190.0 187.5 L 191.25 185.0 L 191.25 181.25 L 192.5 176.25 L 192.5 171.25 L 192.5 163.75 L 192.5 157.5 L 191.25 152.5 L 191.25 146.25 L 190.0 141.25 L 190.0 135.0 L 190.0 131.25 L 190.0 126.25 L 190.0 123.75 L 190.0 122.5 L 190.0 122.5 L 190.0 122.5 L 190.0 122.5 L 190.0 122.5 L 190.0 123.75 " stroke="black" fill="none" stroke-width="6.0" stroke-linecap="round" stroke-linejoin="round" />
</svg>