<svg xmlns="http://www.w3.org/2000/svg" width="300" height="300" viewBox="0 0 300 300">
<path d="M 176.25 137.5 L 177.5 135.0 L 178.75 132.5 L 180.0 131.25 L 180.0 128.75 L 176.25 127.5 L 171.25 126.25 L 166.25 125.0 L 155.0 126.25 L 142.5 131.25 L 131.25 138.75 L 121.25 147.5 L 116.25 157.5 L 118.75 168.75 L 130.0 178.75 L 145.0 185.0 L 160.0 188.75 L 171.25 188.75 L 178.75 187.5 L 180.0 187.5 L 178.75 186.25 L 172.5 186.25 L 162.5 186.25 L 151.25 190.0 L 140.0 196.25 L 127.5 207.5 L 120.0 221.25 L 120.0 233.75 L 130.0 243.75 L 146.25 250.0 L 163.75 251.25 L 185.0 247.5 L 195.0 242.5 L 198.75 237.5 L 198.75 236.25 " stroke="black" fill="none" stroke-width="6.0" stroke-linecap="round" stroke-linejoin="round" />
</svg>