<svg xmlns="http://www.w3.org/2000/svg" width="300" height="300" viewBox="0 0 300 300">
<path d="M 136.25 98.75 L 136.25 98.75 L 137.5 97.5 L 138.75 96.25 L 138.75 95.0 L 138.75 95.0 L 136.25 95.0 L 135.0 95.0 L 131.25 97.5 L 128.75 101.25 L 125.0 105.0 L 122.5 110.0 L 120.0 116.25 L 117.5 121.25 L 116.25 127.5 L 116.25 135.0 L 115.0 141.25 L 113.75 147.5 L 113.75 155.0 L 113.75 160.0 L 113.75 165.0 L 113.75 172.5 L 115.0 178.75 L 116.25 186.25 L 116.25 193.75 L 117.5 198.75 L 118.75 203.75 L 120.0 207.5 L 122.5 212.5 L 125.0 216.25 L 127.5 220.0 L 131.25 222.5 L 136.25 225.0 L 142.5 227.5 L 150.0 228.75 L 157.5 228.75 L 163.75 227.5 L 170.0 225.0 L 176.25 222.5 L 181.25 218.75 L 185.0 212.5 L 188.75 206.25 L 191.25 200.0 L 193.75 193.75 L 195.0 187.5 L 196.25 180.0 L 197.5 172.5 L 198.75 163.75 L 200.0 156.25 L 200.0 150.0 L 201.25 145.0 L 201.25 141.25 L 201.25 138.75 L 200.0 135.0 L 198.75 131.25 L 196.25 126.25 L 195.0 122.5 L 192.5 117.5 L 190.0 113.75 L 187.5 111.25 L 185.0 107.5 L 181.25 105.0 L 178.75 102.5 L 176.25 101.25 L 173.75 100.0 L 170.0 100.0 L 166.25 100.0 L 162.5 98.75 L 158.75 98.75 L 155.0 98.75 L 153.75 98.75 L 152.5 98.75 L 151.25 98.75 L 150.0 98.75 L 147.5 100.0 L 143.75 102.5 " stroke="black" fill="none" stroke-width="6.0" stroke-linecap="round" stroke-linejoin="round" />
</svg>