<svg xmlns="http://www.w3.org/2000/svg" width="300" height="300" viewBox="0 0 300 300">
<path d="M 165.0 73.75 L 166.25 71.25 L 166.25 68.75 L 166.25 66.25 L 166.25 66.25 L 163.75 71.25 L 157.5 86.25 L 150.0 102.5 L 147.5 106.25 " stroke="black" fill="none" stroke-width="6.0" stroke-linecap="round" stroke-linejoin="round" />
<path d="M 157.5 132.5 L 157.5 131.25 L 157.5 130.0 L 157.5 128.75 L 157.5 127.5 L 157.5 127.5 L 157.5 126.25 L 156.25 126.25 L 153.75 126.25 L 152.5 126.25 L 147.5 126.25 L 143.75 127.5 L 140.0 130.0 L 136.25 132.5 L 132.5 135.0 L 128.75 138.75 L 126.25 143.75 L 122.5 148.75 L 121.25 155.0 L 118.75 161.25 L 117.5 167.5 L 116.25 173.75 L 115.0 178.75 L 115.0 185.0 L 113.75 190.0 L 113.75 196.25 L 115.0 201.25 L 116.25 207.5 L 117.5 213.75 L 120.0 218.75 L 123.75 225.0 L 127.5 230.0 L 131.25 235.0 L 136.25 238.75 L 141.25 240.0 L 146.25 241.25 L 150.0 241.25 L 155.0 241.25 L 160.0 240.0 L 165.0 237.5 L 170.0 233.75 L 176.25 228.75 L 181.25 222.5 L 185.0 216.25 L 188.75 208.75 L 191.25 201.25 L 192.5 195.0 L 192.5 187.5 L 192.5 181.25 L 191.25 175.0 L 190.0 167.5 L 187.5 158.75 L 186.25 152.5 L 183.75 146.25 L 180.0 142.5 L 176.25 138.75 L 172.5 135.0 L 170.0 133.75 L 166.25 132.5 L 163.75 132.5 L 160.0 132.5 L 156.25 135.0 L 153.75 136.25 " stroke="black" fill="none" stroke-width="6.0" stroke-linecap="round" stroke-linejoin="round" />
</svg>