<svg xmlns="http://www.w3.org/2000/svg" width="300" height="300" viewBox="0 0 300 300">
<path d="M 181.25 137.5 L 181.25 137.5 L 178.75 135.0 L 176.25 132.5 L 173.75 131.25 L 172.5 130.0 L 170.0 128.75 L 168.75 127.5 L 167.5 127.5 L 165.0 127.5 L 162.5 127.5 L 158.75 130.0 L 155.0 133.75 L 151.25 137.5 L 147.5 142.5 L 142.5 148.75 L 138.75 155.0 L 136.25 161.25 L 133.75 168.75 L 132.5 177.5 L 131.25 185.0 L 131.25 192.5 L 131.25 198.75 L 133.75 203.75 L 137.5 210.0 L 141.25 216.25 L 147.5 221.25 L 153.75 226.25 L 162.5 230.0 L 171.25 232.5 L 180.0 233.75 L 187.5 236.25 L 190.0 237.5 L 190.0 238.75 L 188.75 242.5 L 183.75 248.75 L 176.25 260.0 L 170.0 270.0 L 166.25 276.25 L 163.75 278.75 L 161.25 278.75 L 156.25 275.0 L 155.0 272.5 " stroke="black" fill="none" stroke-width="6.0" stroke-linecap="round" stroke-linejoin="round" />
</svg>