<svg xmlns="http://www.w3.org/2000/svg" width="300" height="300" viewBox="0 0 300 300">
<path d="M 151.25 145.0 L 151.25 143.75 L 151.25 142.5 L 151.25 141.25 L 151.25 140.0 L 151.25 138.75 L 151.25 138.75 L 151.25 151.25 L 151.25 181.25 L 151.25 220.0 L 151.25 243.75 L 151.25 253.75 L 152.5 255.0 L 152.5 255.0 L 153.75 251.25 L 153.75 238.75 L 153.75 232.5 " stroke="black" fill="none" stroke-width="6.0" stroke-linecap="round" stroke-linejoin="round" />
<path d="M 160.0 200.0 L 160.0 200.0 L 160.0 200.0 L 158.75 198.75 L 157.5 198.75 L 156.25 198.75 L 156.25 197.5 L 155.0 197.5 L 153.75 197.5 L 153.75 197.5 L 153.75 196.25 L 153.75 196.25 L 152.5 196.25 L 152.5 196.25 L 152.5 196.25 L 152.5 196.25 L 152.5 197.5 L 156.25 197.5 L 165.0 197.5 L 176.25 197.5 L 186.25 197.5 L 191.25 196.25 L 191.25 196.25 L 191.25 196.25 L 188.75 198.75 " stroke="black" fill="none" stroke-width="6.0" stroke-linecap="round" stroke-linejoin="round" />
</svg>