<svg xmlns="http://www.w3.org/2000/svg" width="300" height="300" viewBox="0 0 300 300">
<path d="M 130.0 138.75 L 126.25 138.75 L 121.25 137.5 L 117.5 137.5 L 117.5 137.5 L 118.75 137.5 L 127.5 137.5 L 141.25 138.75 L 155.0 138.75 L 170.0 138.75 L 181.25 138.75 L 185.0 138.75 L 185.0 138.75 L 177.5 140.0 L 170.0 141.25 " stroke="black" fill="none" stroke-width="6.0" stroke-linecap="round" stroke-linejoin="round" />
<path d="M 152.5 145.0 L 152.5 145.0 L 152.5 145.0 L 151.25 145.0 L 151.25 145.0 L 150.0 145.0 L 150.0 145.0 L 150.0 145.0 L 150.0 147.5 L 150.0 158.75 L 148.75 182.5 L 148.75 207.5 L 150.0 223.75 L 155.0 230.0 L 160.0 231.25 L 168.75 231.25 L 178.75 230.0 L 187.5 227.5 L 188.75 227.5 " stroke="black" fill="none" stroke-width="6.0" stroke-linecap="round" stroke-linejoin="round" />
</svg>