<svg xmlns="http://www.w3.org/2000/svg" width="300" height="300" viewBox="0 0 300 300">
<path d="M 97.5 82.5 L 97.5 82.5 L 96.25 82.5 L 95.0 82.5 L 93.75 82.5 L 93.75 83.75 L 93.75 83.75 L 95.0 83.75 L 97.5 82.5 L 101.25 82.5 L 105.0 81.25 L 110.0 81.25 L 113.75 81.25 L 118.75 81.25 L 122.5 82.5 L 125.0 82.5 L 128.75 83.75 L 132.5 85.0 L 136.25 87.5 L 140.0 88.75 L 143.75 91.25 L 147.5 93.75 L 151.25 96.25 L 153.75 100.0 L 157.5 103.75 L 162.5 108.75 L 166.25 113.75 L 170.0 120.0 L 172.5 126.25 L 175.0 132.5 L 177.5 137.5 L 180.0 142.5 L 182.5 148.75 L 185.0 155.0 L 185.0 162.5 L 186.25 170.0 L 187.5 178.75 L 187.5 187.5 L 187.5 196.25 L 187.5 203.75 L 186.25 211.25 L 183.75 218.75 L 182.5 223.75 L 181.25 227.5 L 180.0 228.75 L 180.0 228.75 L 180.0 228.75 L 180.0 228.75 L 180.0 227.5 L 180.0 222.5 L 180.0 220.0 " stroke="black" fill="none" stroke-width="6.0" stroke-linecap="round" stroke-linejoin="round" />
<path d="M 122.5 135.0 L 121.25 136.25 L 118.75 137.5 L 117.5 137.5 L 117.5 137.5 L 121.25 137.5 L 127.5 136.25 L 136.25 132.5 L 142.5 130.0 L 152.5 121.25 L 160.0 115.0 L 165.0 110.0 L 167.5 108.75 L 167.5 108.75 L 163.75 111.25 L 161.25 112.5 " stroke="black" fill="none" stroke-width="6.0" stroke-linecap="round" stroke-linejoin="round" />
<path d="M 142.5 170.0 L 140.0 171.25 L 136.25 173.75 L 135.0 173.75 L 133.75 173.75 L 137.5 173.75 L 145.0 168.75 L 153.75 162.5 L 163.75 156.25 L 172.5 151.25 L 180.0 148.75 L 182.5 148.75 L 182.5 147.5 L 182.5 147.5 L 182.5 147.5 " stroke="black" fill="none" stroke-width="6.0" stroke-linecap="round" stroke-linejoin="round" />
</svg>