<svg xmlns="http://www.w3.org/2000/svg" width="300" height="300" viewBox="0 0 300 300">
<path d="M 103.75 92.5 L 103.75 92.5 L 102.5 90.0 L 101.25 87.5 L 100.0 86.25 L 100.0 86.25 L 101.25 93.75 L 103.75 120.0 L 103.75 158.75 L 102.5 192.5 L 100.0 210.0 L 98.75 220.0 L 98.75 227.5 L 100.0 232.5 L 100.0 233.75 L 101.25 233.75 L 101.25 233.75 L 101.25 233.75 L 101.25 232.5 L 103.75 230.0 L 106.25 225.0 L 111.25 220.0 L 117.5 211.25 L 128.75 198.75 L 148.75 171.25 L 173.75 138.75 L 193.75 115.0 L 201.25 102.5 L 205.0 96.25 L 205.0 93.75 L 205.0 93.75 L 205.0 93.75 L 205.0 93.75 L 205.0 93.75 L 205.0 93.75 L 205.0 93.75 L 205.0 93.75 L 205.0 93.75 L 205.0 93.75 L 205.0 93.75 L 205.0 93.75 L 205.0 98.75 L 201.25 121.25 L 197.5 170.0 L 198.75 215.0 L 205.0 230.0 L 206.25 238.75 L 205.0 242.5 " stroke="black" fill="none" stroke-width="6.0" stroke-linecap="round" stroke-linejoin="round" />
</svg>