<svg xmlns="http://www.w3.org/2000/svg" width="300" height="300" viewBox="0 0 300 300">
<path d="M 195.0 87.5 L 195.0 87.5 L 195.0 87.5 L 195.0 86.25 L 193.75 86.25 L 193.75 85.0 L 192.5 85.0 L 191.25 83.75 L 190.0 83.75 L 188.75 82.5 L 187.5 82.5 L 185.0 82.5 L 181.25 82.5 L 176.25 82.5 L 172.5 83.75 L 166.25 83.75 L 161.25 85.0 L 157.5 86.25 L 152.5 88.75 L 148.75 90.0 L 145.0 91.25 L 141.25 93.75 L 137.5 95.0 L 133.75 97.5 L 130.0 98.75 L 126.25 100.0 L 123.75 102.5 L 121.25 103.75 L 118.75 106.25 L 116.25 107.5 L 113.75 110.0 L 111.25 113.75 L 108.75 118.75 L 106.25 123.75 L 105.0 128.75 L 103.75 135.0 L 102.5 141.25 L 101.25 147.5 L 101.25 153.75 L 101.25 158.75 L 103.75 163.75 L 106.25 168.75 L 110.0 173.75 L 115.0 178.75 L 121.25 182.5 L 128.75 185.0 L 137.5 187.5 L 145.0 187.5 L 150.0 187.5 L 156.25 185.0 L 161.25 182.5 L 166.25 181.25 L 171.25 180.0 L 176.25 180.0 L 180.0 180.0 L 183.75 180.0 L 185.0 180.0 L 185.0 180.0 L 185.0 180.0 L 185.0 180.0 L 183.75 180.0 L 183.75 180.0 L 182.5 180.0 L 181.25 180.0 L 178.75 181.25 L 177.5 185.0 L 175.0 191.25 L 173.75 203.75 L 173.75 220.0 L 175.0 238.75 L 176.25 251.25 L 177.5 256.25 L 178.75 258.75 L 178.75 260.0 L 178.75 260.0 L 178.75 258.75 L 176.25 255.0 L 175.0 251.25 " stroke="black" fill="none" stroke-width="6.0" stroke-linecap="round" stroke-linejoin="round" />
</svg>