<svg xmlns="http://www.w3.org/2000/svg" width="300" height="300" viewBox="0 0 300 300">
<path d="M 95.0 126.25 L 95.0 125.0 L 93.75 122.5 L 93.75 120.0 L 93.75 118.75 L 92.5 118.75 L 92.5 122.5 L 93.75 137.5 L 93.75 170.0 L 93.75 203.75 L 95.0 255.0 L 96.25 275.0 L 96.25 285.0 L 97.5 291.25 L 97.5 293.75 L 97.5 293.75 L 97.5 293.75 L 97.5 292.5 L 96.25 286.25 L 96.25 276.25 " stroke="black" fill="none" stroke-width="6.0" stroke-linecap="round" stroke-linejoin="round" />
<path d="M 96.25 136.25 L 96.25 136.25 L 93.75 135.0 L 92.5 133.75 L 91.25 132.5 L 92.5 131.25 L 95.0 131.25 L 101.25 131.25 L 108.75 138.75 L 118.75 148.75 L 130.0 162.5 L 138.75 173.75 L 143.75 183.75 L 147.5 190.0 L 150.0 195.0 L 150.0 196.25 L 151.25 196.25 L 152.5 195.0 L 157.5 190.0 L 165.0 181.25 L 172.5 171.25 L 181.25 160.0 L 188.75 148.75 L 193.75 140.0 L 196.25 133.75 L 197.5 130.0 L 198.75 127.5 L 198.75 125.0 L 200.0 123.75 L 200.0 123.75 L 200.0 123.75 L 200.0 123.75 L 200.0 123.75 L 200.0 123.75 L 200.0 123.75 L 200.0 125.0 L 200.0 130.0 L 200.0 141.25 L 200.0 158.75 L 200.0 181.25 L 200.0 198.75 L 202.5 210.0 L 203.75 217.5 L 205.0 223.75 L 205.0 230.0 L 205.0 233.75 L 205.0 233.75 L 205.0 233.75 L 205.0 232.5 " stroke="black" fill="none" stroke-width="6.0" stroke-linecap="round" stroke-linejoin="round" />
</svg>