<svg xmlns="http://www.w3.org/2000/svg" width="300" height="300" viewBox="0 0 300 300">
<path d="M 147.5 91.25 L 147.5 90.0 L 147.5 87.5 L 147.5 85.0 L 146.25 82.5 L 146.25 81.25 L 146.25 78.75 L 146.25 78.75 L 146.25 80.0 L 146.25 93.75 L 146.25 126.25 L 146.25 170.0 L 146.25 205.0 L 146.25 220.0 L 146.25 230.0 L 146.25 235.0 L 146.25 235.0 L 146.25 232.5 L 146.25 222.5 L 146.25 208.75 " stroke="black" fill="none" stroke-width="6.0" stroke-linecap="round" stroke-linejoin="round" />
<path d="M 153.75 156.25 L 153.75 156.25 L 153.75 156.25 L 153.75 156.25 L 153.75 156.25 L 153.75 156.25 L 153.75 156.25 L 153.75 156.25 L 152.5 156.25 L 152.5 157.5 L 152.5 157.5 L 152.5 157.5 L 155.0 158.75 L 163.75 160.0 L 178.75 161.25 L 190.0 162.5 L 195.0 162.5 L 195.0 162.5 L 192.5 162.5 " stroke="black" fill="none" stroke-width="6.0" stroke-linecap="round" stroke-linejoin="round" />
</svg>