<svg xmlns="http://www.w3.org/2000/svg" width="300" height="300" viewBox="0 0 300 300">
<path d="M 128.75 43.75 L 128.75 43.75 L 127.5 43.75 L 126.25 43.75 L 126.25 43.75 L 126.25 45.0 L 126.25 46.25 L 126.25 47.5 L 126.25 48.75 L 126.25 48.75 L 126.25 48.75 L 125.0 48.75 L 125.0 47.5 L 126.25 46.25 L 127.5 43.75 L 130.0 43.75 L 132.5 43.75 L 133.75 45.0 L 133.75 46.25 L 131.25 48.75 L 128.75 48.75 L 126.25 48.75 L 125.0 47.5 L 125.0 45.0 L 125.0 43.75 L 126.25 41.25 L 127.5 41.25 L 128.75 41.25 L 128.75 42.5 L 128.75 42.5 " stroke="black" fill="none" stroke-width="6.0" stroke-linecap="round" stroke-linejoin="round" />
<path d="M 170.0 45.0 L 168.75 45.0 L 167.5 45.0 L 166.25 45.0 L 166.25 43.75 L 167.5 43.75 L 170.0 43.75 L 171.25 43.75 L 171.25 46.25 L 171.25 48.75 L 168.75 51.25 L 163.75 51.25 L 161.25 51.25 L 158.75 50.0 L 158.75 47.5 L 160.0 45.0 L 162.5 43.75 L 165.0 43.75 L 166.25 46.25 L 166.25 48.75 L 166.25 51.25 L 163.75 51.25 " stroke="black" fill="none" stroke-width="6.0" stroke-linecap="round" stroke-linejoin="round" />
<path d="M 98.75 91.25 L 98.75 91.25 L 98.75 91.25 L 98.75 91.25 L 98.75 93.75 L 103.75 101.25 L 113.75 116.25 L 126.25 133.75 L 137.5 146.25 L 143.75 153.75 L 147.5 158.75 L 151.25 162.5 L 152.5 163.75 L 152.5 163.75 L 152.5 163.75 L 152.5 162.5 L 151.25 156.25 L 150.0 153.75 " stroke="black" fill="none" stroke-width="6.0" stroke-linecap="round" stroke-linejoin="round" />
<path d="M 210.0 85.0 L 210.0 83.75 L 208.75 83.75 L 207.5 82.5 L 206.25 82.5 L 205.0 82.5 L 202.5 85.0 L 200.0 87.5 L 192.5 93.75 L 185.0 101.25 L 176.25 111.25 L 167.5 121.25 L 161.25 131.25 L 156.25 140.0 L 153.75 148.75 L 151.25 157.5 L 151.25 172.5 L 151.25 190.0 L 151.25 206.25 L 151.25 221.25 L 151.25 232.5 L 151.25 240.0 L 151.25 243.75 L 151.25 245.0 L 151.25 245.0 L 151.25 240.0 L 150.0 236.25 " stroke="black" fill="none" stroke-width="6.0" stroke-linecap="round" stroke-linejoin="round" />
</svg>