<svg xmlns="http://www.w3.org/2000/svg" width="300" height="300" viewBox="0 0 300 300">
<path d="M 170.0 135.0 L 170.0 133.75 L 171.25 128.75 L 170.0 126.25 L 165.0 123.75 L 161.25 122.5 L 156.25 122.5 L 150.0 122.5 L 145.0 123.75 L 138.75 127.5 L 130.0 135.0 L 122.5 145.0 L 115.0 158.75 L 112.5 177.5 L 113.75 197.5 L 121.25 215.0 L 132.5 227.5 L 146.25 232.5 L 161.25 231.25 L 177.5 223.75 L 190.0 216.25 L 197.5 211.25 L 198.75 210.0 L 198.75 208.75 L 195.0 208.75 L 190.0 208.75 " stroke="black" fill="none" stroke-width="6.0" stroke-linecap="round" stroke-linejoin="round" />
<path d="M 126.25 167.5 L 122.5 168.75 L 118.75 168.75 L 120.0 170.0 L 131.25 171.25 L 151.25 168.75 L 176.25 162.5 L 198.75 156.25 L 203.75 153.75 " stroke="black" fill="none" stroke-width="6.0" stroke-linecap="round" stroke-linejoin="round" />
</svg>