<svg xmlns="http://www.w3.org/2000/svg" width="300" height="300" viewBox="0 0 300 300">
<path d="M 185.0 120.0 L 185.0 120.0 L 185.0 120.0 L 182.5 120.0 L 180.0 120.0 L 177.5 120.0 L 175.0 120.0 L 172.5 120.0 L 168.75 120.0 L 165.0 121.25 L 160.0 122.5 L 156.25 125.0 L 152.5 127.5 L 148.75 128.75 L 146.25 131.25 L 143.75 132.5 L 141.25 136.25 L 138.75 138.75 L 136.25 142.5 L 133.75 147.5 L 130.0 152.5 L 128.75 156.25 L 126.25 161.25 L 125.0 167.5 L 125.0 172.5 L 125.0 178.75 L 125.0 185.0 L 126.25 191.25 L 130.0 197.5 L 135.0 203.75 L 140.0 208.75 L 146.25 212.5 L 152.5 215.0 L 158.75 218.75 L 166.25 222.5 L 173.75 225.0 L 178.75 227.5 L 183.75 231.25 L 187.5 233.75 L 190.0 237.5 L 191.25 242.5 L 192.5 248.75 L 192.5 252.5 L 192.5 257.5 L 190.0 261.25 L 186.25 265.0 L 181.25 270.0 L 173.75 273.75 L 165.0 275.0 L 156.25 276.25 L 147.5 276.25 L 142.5 275.0 L 137.5 272.5 L 136.25 268.75 L 136.25 265.0 L 136.25 257.5 L 136.25 256.25 " stroke="black" fill="none" stroke-width="6.0" stroke-linecap="round" stroke-linejoin="round" />
</svg>