<svg xmlns="http://www.w3.org/2000/svg" width="300" height="300" viewBox="0 0 300 300">
<path d="M 133.75 131.25 L 133.75 131.25 L 133.75 130.0 L 133.75 128.75 L 132.5 128.75 L 132.5 127.5 L 131.25 127.5 L 130.0 127.5 L 130.0 127.5 L 128.75 127.5 L 128.75 127.5 L 128.75 127.5 L 127.5 127.5 L 127.5 128.75 L 126.25 130.0 L 123.75 133.75 L 121.25 136.25 L 118.75 141.25 L 117.5 146.25 L 115.0 151.25 L 115.0 156.25 L 113.75 162.5 L 113.75 167.5 L 113.75 172.5 L 113.75 180.0 L 113.75 186.25 L 113.75 192.5 L 116.25 198.75 L 117.5 203.75 L 120.0 207.5 L 123.75 211.25 L 127.5 215.0 L 132.5 217.5 L 136.25 220.0 L 138.75 222.5 L 141.25 223.75 L 143.75 223.75 L 145.0 223.75 L 147.5 223.75 L 150.0 223.75 L 152.5 223.75 L 156.25 223.75 L 158.75 223.75 L 162.5 221.25 L 165.0 220.0 L 168.75 217.5 L 172.5 213.75 L 176.25 210.0 L 180.0 206.25 L 182.5 202.5 L 185.0 197.5 L 186.25 193.75 L 188.75 190.0 L 188.75 186.25 L 190.0 181.25 L 191.25 176.25 L 192.5 171.25 L 193.75 166.25 L 195.0 162.5 L 195.0 158.75 L 195.0 155.0 L 193.75 151.25 L 192.5 146.25 L 191.25 142.5 L 190.0 138.75 L 188.75 135.0 L 186.25 131.25 L 185.0 128.75 L 182.5 126.25 L 178.75 123.75 L 173.75 122.5 L 168.75 120.0 L 163.75 118.75 L 157.5 118.75 L 152.5 117.5 L 146.25 117.5 L 141.25 117.5 L 136.25 118.75 L 131.25 120.0 L 126.25 122.5 L 123.75 125.0 L 121.25 126.25 L 120.0 128.75 L 118.75 130.0 L 118.75 131.25 " stroke="black" fill="none" stroke-width="6.0" stroke-linecap="round" stroke-linejoin="round" />
<path d="M 156.25 223.75 L 157.5 223.75 L 157.5 225.0 L 157.5 225.0 L 157.5 225.0 L 157.5 225.0 L 157.5 225.0 L 157.5 225.0 L 157.5 223.75 L 157.5 223.75 L 157.5 222.5 L 157.5 222.5 L 157.5 222.5 L 157.5 222.5 L 156.25 223.75 L 156.25 232.5 L 156.25 251.25 L 156.25 273.75 L 157.5 287.5 L 158.75 292.5 L 158.75 292.5 L 158.75 291.25 L 158.75 286.25 L 157.5 283.75 " stroke="black" fill="none" stroke-width="6.0" stroke-linecap="round" stroke-linejoin="round" />
</svg>