<svg xmlns="http://www.w3.org/2000/svg" width="300" height="300" viewBox="0 0 300 300">
<path d="M 127.5 140.0 L 127.5 140.0 L 127.5 140.0 L 126.25 138.75 L 126.25 137.5 L 126.25 137.5 L 126.25 136.25 L 126.25 135.0 L 126.25 135.0 L 126.25 135.0 L 126.25 135.0 L 126.25 140.0 L 126.25 155.0 L 126.25 183.75 L 126.25 208.75 L 126.25 226.25 L 127.5 236.25 L 128.75 241.25 L 128.75 241.25 L 128.75 241.25 L 128.75 241.25 L 128.75 241.25 L 128.75 241.25 L 128.75 241.25 L 128.75 240.0 L 128.75 240.0 L 128.75 238.75 L 128.75 237.5 L 127.5 236.25 L 127.5 233.75 L 127.5 231.25 L 127.5 227.5 L 127.5 222.5 L 128.75 212.5 L 135.0 200.0 L 142.5 187.5 L 150.0 173.75 L 160.0 160.0 L 170.0 150.0 L 181.25 143.75 L 188.75 140.0 L 193.75 140.0 L 196.25 142.5 L 198.75 145.0 L 200.0 146.25 L 200.0 147.5 L 198.75 148.75 L 197.5 148.75 " stroke="black" fill="none" stroke-width="6.0" stroke-linecap="round" stroke-linejoin="round" />
<path d="M 151.25 181.25 L 150.0 180.0 L 150.0 180.0 L 148.75 178.75 L 150.0 180.0 L 157.5 187.5 L 170.0 198.75 L 180.0 207.5 L 191.25 218.75 L 193.75 227.5 L 193.75 233.75 L 190.0 237.5 " stroke="black" fill="none" stroke-width="6.0" stroke-linecap="round" stroke-linejoin="round" />
</svg>