<svg xmlns="http://www.w3.org/2000/svg" width="300" height="300" viewBox="0 0 300 300">
<path d="M 193.75 101.25 L 193.75 101.25 L 192.5 100.0 L 191.25 100.0 L 191.25 98.75 L 190.0 97.5 L 188.75 97.5 L 188.75 96.25 L 187.5 95.0 L 186.25 95.0 L 185.0 93.75 L 182.5 91.25 L 180.0 90.0 L 177.5 88.75 L 175.0 86.25 L 172.5 85.0 L 168.75 83.75 L 165.0 83.75 L 160.0 81.25 L 156.25 80.0 L 151.25 78.75 L 147.5 78.75 L 145.0 77.5 L 142.5 77.5 L 140.0 78.75 L 137.5 80.0 L 133.75 81.25 L 131.25 83.75 L 126.25 88.75 L 123.75 92.5 L 120.0 97.5 L 116.25 102.5 L 113.75 107.5 L 111.25 112.5 L 108.75 118.75 L 107.5 123.75 L 105.0 130.0 L 102.5 136.25 L 101.25 141.25 L 100.0 146.25 L 100.0 152.5 L 100.0 161.25 L 100.0 172.5 L 100.0 185.0 L 101.25 196.25 L 103.75 206.25 L 107.5 215.0 L 112.5 222.5 L 118.75 230.0 L 125.0 237.5 L 131.25 241.25 L 136.25 243.75 L 141.25 243.75 L 147.5 243.75 L 152.5 243.75 L 157.5 242.5 L 163.75 240.0 L 170.0 237.5 L 176.25 233.75 L 182.5 228.75 L 187.5 222.5 L 193.75 216.25 L 197.5 208.75 L 201.25 203.75 L 205.0 197.5 L 207.5 192.5 L 210.0 186.25 L 211.25 180.0 L 212.5 173.75 L 212.5 165.0 L 212.5 157.5 L 212.5 148.75 L 211.25 138.75 L 208.75 127.5 L 206.25 117.5 L 202.5 110.0 L 200.0 103.75 L 196.25 100.0 L 192.5 93.75 L 190.0 88.75 L 187.5 85.0 L 186.25 83.75 L 185.0 83.75 L 183.75 86.25 L 180.0 91.25 L 175.0 100.0 L 171.25 105.0 " stroke="black" fill="none" stroke-width="6.0" stroke-linecap="round" stroke-linejoin="round" />
<path d="M 103.75 158.75 L 103.75 160.0 L 102.5 161.25 L 101.25 162.5 L 98.75 162.5 L 98.75 162.5 L 97.5 162.5 L 97.5 162.5 L 102.5 162.5 L 111.25 162.5 L 126.25 162.5 L 145.0 161.25 L 161.25 160.0 L 177.5 158.75 L 190.0 156.25 L 197.5 155.0 L 200.0 153.75 L 200.0 152.5 L 200.0 152.5 L 198.75 152.5 L 197.5 153.75 " stroke="black" fill="none" stroke-width="6.0" stroke-linecap="round" stroke-linejoin="round" />
</svg>