<svg xmlns="http://www.w3.org/2000/svg" width="300" height="300" viewBox="0 0 300 300">
<path d="M 122.5 267.5 L 122.5 267.5 L 121.25 270.0 L 120.0 271.25 L 120.0 271.25 L 120.0 271.25 L 120.0 271.25 L 121.25 271.25 L 121.25 271.25 L 121.25 271.25 L 122.5 271.25 L 122.5 271.25 L 122.5 271.25 L 122.5 271.25 L 122.5 271.25 L 122.5 271.25 L 122.5 270.0 L 122.5 270.0 L 122.5 268.75 L 122.5 266.25 L 122.5 263.75 L 122.5 260.0 L 122.5 255.0 L 122.5 250.0 L 121.25 242.5 L 120.0 235.0 L 118.75 223.75 L 117.5 211.25 L 116.25 200.0 L 115.0 187.5 L 113.75 173.75 L 112.5 158.75 L 112.5 145.0 L 112.5 135.0 L 113.75 123.75 L 116.25 113.75 L 120.0 105.0 L 123.75 98.75 L 130.0 91.25 L 135.0 87.5 L 140.0 85.0 L 147.5 83.75 L 153.75 83.75 L 163.75 87.5 L 172.5 91.25 L 180.0 96.25 L 185.0 103.75 L 188.75 112.5 L 190.0 121.25 L 188.75 131.25 L 185.0 138.75 L 177.5 145.0 L 168.75 151.25 L 161.25 155.0 L 155.0 157.5 L 151.25 158.75 L 151.25 158.75 L 152.5 158.75 L 160.0 157.5 L 168.75 157.5 L 178.75 157.5 L 188.75 161.25 L 197.5 167.5 L 202.5 177.5 L 203.75 187.5 L 202.5 197.5 L 196.25 207.5 L 188.75 216.25 L 178.75 223.75 L 167.5 230.0 L 155.0 233.75 L 147.5 233.75 L 143.75 227.5 L 143.75 225.0 " stroke="black" fill="none" stroke-width="6.0" stroke-linecap="round" stroke-linejoin="round" />
</svg>