<svg xmlns="http://www.w3.org/2000/svg" width="300" height="300" viewBox="0 0 300 300">
<path d="M 81.25 223.75 L 78.75 226.25 L 76.25 227.5 L 75.0 227.5 L 75.0 227.5 L 80.0 228.75 L 87.5 230.0 L 98.75 232.5 L 107.5 232.5 L 121.25 232.5 L 128.75 232.5 L 131.25 232.5 L 131.25 231.25 L 130.0 231.25 L 130.0 231.25 L 128.75 231.25 L 128.75 231.25 L 127.5 231.25 L 126.25 228.75 L 123.75 226.25 L 120.0 222.5 L 116.25 218.75 L 112.5 212.5 L 108.75 206.25 L 106.25 200.0 L 102.5 193.75 L 100.0 187.5 L 98.75 181.25 L 97.5 176.25 L 97.5 171.25 L 97.5 165.0 L 97.5 157.5 L 97.5 151.25 L 98.75 145.0 L 98.75 140.0 L 100.0 135.0 L 101.25 130.0 L 103.75 126.25 L 105.0 121.25 L 106.25 118.75 L 112.5 110.0 L 116.25 105.0 L 121.25 101.25 L 126.25 98.75 L 130.0 97.5 L 133.75 96.25 L 137.5 95.0 L 142.5 95.0 L 147.5 95.0 L 152.5 95.0 L 158.75 96.25 L 163.75 97.5 L 170.0 98.75 L 175.0 101.25 L 180.0 103.75 L 185.0 106.25 L 187.5 110.0 L 190.0 115.0 L 191.25 120.0 L 192.5 126.25 L 192.5 132.5 L 192.5 138.75 L 192.5 143.75 L 191.25 150.0 L 191.25 153.75 L 190.0 158.75 L 188.75 163.75 L 186.25 170.0 L 185.0 177.5 L 182.5 186.25 L 180.0 193.75 L 176.25 201.25 L 172.5 208.75 L 168.75 216.25 L 165.0 222.5 L 162.5 228.75 L 161.25 232.5 L 161.25 233.75 L 161.25 233.75 L 161.25 233.75 L 161.25 233.75 L 162.5 233.75 L 165.0 233.75 L 167.5 233.75 L 170.0 235.0 L 175.0 235.0 L 183.75 237.5 L 193.75 238.75 L 203.75 240.0 L 211.25 240.0 L 216.25 240.0 L 216.25 240.0 L 216.25 240.0 L 213.75 240.0 L 211.25 240.0 " stroke="black" fill="none" stroke-width="6.0" stroke-linecap="round" stroke-linejoin="round" />
</svg>