<svg xmlns="http://www.w3.org/2000/svg" width="300" height="300" viewBox="0 0 300 300">
<path d="M 128.75 87.5 L 127.5 86.25 L 126.25 86.25 L 125.0 85.0 L 125.0 85.0 L 125.0 83.75 L 128.75 83.75 L 131.25 83.75 L 133.75 83.75 L 133.75 86.25 L 133.75 87.5 L 132.5 90.0 L 130.0 90.0 L 127.5 90.0 L 126.25 90.0 L 126.25 86.25 L 126.25 85.0 L 126.25 82.5 L 127.5 82.5 L 128.75 82.5 L 128.75 83.75 L 128.75 85.0 L 127.5 86.25 L 126.25 86.25 L 126.25 86.25 L 126.25 86.25 " stroke="black" fill="none" stroke-width="6.0" stroke-linecap="round" stroke-linejoin="round" />
<path d="M 168.75 85.0 L 167.5 85.0 L 165.0 86.25 L 162.5 86.25 L 162.5 86.25 L 162.5 86.25 L 163.75 87.5 L 166.25 87.5 L 167.5 88.75 L 168.75 91.25 L 168.75 92.5 L 167.5 92.5 L 166.25 93.75 L 163.75 93.75 L 162.5 91.25 L 162.5 88.75 L 162.5 86.25 L 163.75 85.0 L 166.25 85.0 L 168.75 85.0 L 170.0 86.25 L 170.0 87.5 L 170.0 88.75 L 167.5 90.0 L 165.0 90.0 " stroke="black" fill="none" stroke-width="6.0" stroke-linecap="round" stroke-linejoin="round" />
<path d="M 116.25 131.25 L 116.25 130.0 L 116.25 130.0 L 116.25 128.75 L 116.25 127.5 L 116.25 127.5 L 116.25 127.5 L 116.25 127.5 L 116.25 130.0 L 116.25 135.0 L 117.5 140.0 L 117.5 147.5 L 118.75 153.75 L 118.75 160.0 L 120.0 166.25 L 121.25 171.25 L 122.5 177.5 L 122.5 182.5 L 123.75 186.25 L 125.0 190.0 L 126.25 193.75 L 128.75 197.5 L 130.0 201.25 L 132.5 203.75 L 135.0 205.0 L 138.75 207.5 L 141.25 208.75 L 142.5 210.0 L 145.0 211.25 L 147.5 212.5 L 150.0 212.5 L 152.5 213.75 L 155.0 213.75 L 157.5 213.75 L 161.25 212.5 L 166.25 210.0 L 170.0 207.5 L 175.0 203.75 L 178.75 198.75 L 181.25 195.0 L 185.0 188.75 L 186.25 181.25 L 187.5 171.25 L 188.75 161.25 L 188.75 151.25 L 188.75 143.75 L 188.75 135.0 L 187.5 127.5 L 187.5 121.25 L 187.5 117.5 L 187.5 116.25 L 187.5 116.25 L 187.5 117.5 L 185.0 120.0 L 183.75 122.5 " stroke="black" fill="none" stroke-width="6.0" stroke-linecap="round" stroke-linejoin="round" />
</svg>