<svg xmlns="http://www.w3.org/2000/svg" width="300" height="300" viewBox="0 0 300 300">
<path d="M 101.25 87.5 L 97.5 88.75 L 96.25 88.75 L 95.0 88.75 L 96.25 87.5 L 102.5 85.0 L 110.0 83.75 L 117.5 82.5 L 126.25 82.5 L 136.25 83.75 L 142.5 85.0 L 150.0 86.25 L 156.25 87.5 L 161.25 88.75 L 168.75 91.25 L 175.0 96.25 L 180.0 101.25 L 185.0 108.75 L 190.0 118.75 L 192.5 128.75 L 196.25 138.75 L 197.5 148.75 L 197.5 155.0 L 197.5 161.25 L 196.25 166.25 L 195.0 171.25 L 192.5 175.0 L 190.0 178.75 L 186.25 182.5 L 182.5 187.5 L 176.25 192.5 L 171.25 196.25 L 165.0 201.25 L 158.75 205.0 L 153.75 208.75 L 150.0 212.5 L 145.0 216.25 L 141.25 218.75 L 137.5 221.25 L 132.5 221.25 L 128.75 222.5 L 122.5 222.5 L 118.75 222.5 L 115.0 222.5 L 112.5 221.25 L 111.25 220.0 L 110.0 218.75 L 108.75 217.5 L 107.5 216.25 L 107.5 215.0 L 107.5 213.75 " stroke="black" fill="none" stroke-width="6.0" stroke-linecap="round" stroke-linejoin="round" />
<path d="M 137.5 150.0 L 137.5 150.0 L 136.25 151.25 L 136.25 151.25 L 136.25 151.25 L 140.0 151.25 L 142.5 152.5 L 143.75 155.0 L 145.0 158.75 L 143.75 161.25 L 140.0 163.75 L 135.0 165.0 L 132.5 165.0 L 131.25 161.25 L 131.25 156.25 L 132.5 153.75 L 135.0 151.25 L 137.5 150.0 L 140.0 151.25 L 140.0 153.75 L 140.0 156.25 L 138.75 160.0 L 136.25 162.5 L 133.75 162.5 L 132.5 162.5 L 131.25 161.25 L 132.5 157.5 L 135.0 155.0 L 137.5 153.75 L 138.75 153.75 L 140.0 153.75 L 140.0 153.75 L 140.0 155.0 L 138.75 155.0 " stroke="black" fill="none" stroke-width="6.0" stroke-linecap="round" stroke-linejoin="round" />
</svg>