<svg xmlns="http://www.w3.org/2000/svg" width="300" height="300" viewBox="0 0 300 300">
<path d="M 80.0 78.75 L 78.75 75.0 L 76.25 73.75 L 72.5 78.75 L 62.5 96.25 L 53.75 118.75 " stroke="black" fill="none" stroke-width="6.0" stroke-linecap="round" stroke-linejoin="round" />
<path d="M 123.75 108.75 L 123.75 108.75 L 125.0 107.5 L 125.0 106.25 L 126.25 105.0 L 126.25 103.75 L 126.25 102.5 L 126.25 102.5 L 126.25 101.25 L 126.25 101.25 L 126.25 101.25 L 125.0 102.5 L 123.75 105.0 L 121.25 108.75 L 118.75 115.0 L 116.25 122.5 L 113.75 130.0 L 111.25 137.5 L 110.0 143.75 L 110.0 148.75 L 110.0 153.75 L 110.0 160.0 L 110.0 165.0 L 111.25 171.25 L 112.5 177.5 L 113.75 183.75 L 115.0 187.5 L 116.25 192.5 L 118.75 195.0 L 120.0 198.75 L 122.5 202.5 L 125.0 205.0 L 127.5 207.5 L 130.0 210.0 L 132.5 211.25 L 135.0 212.5 L 137.5 213.75 L 140.0 215.0 L 143.75 215.0 L 146.25 215.0 L 150.0 215.0 L 153.75 213.75 L 157.5 212.5 L 161.25 210.0 L 166.25 207.5 L 170.0 206.25 L 173.75 203.75 L 177.5 201.25 L 180.0 198.75 L 183.75 195.0 L 186.25 192.5 L 188.75 188.75 L 191.25 186.25 L 192.5 183.75 L 193.75 180.0 L 196.25 176.25 L 198.75 171.25 L 200.0 165.0 L 200.0 160.0 L 201.25 153.75 L 201.25 147.5 L 201.25 142.5 L 202.5 137.5 L 202.5 132.5 L 202.5 127.5 L 202.5 123.75 L 202.5 118.75 L 202.5 113.75 L 202.5 108.75 L 201.25 103.75 L 198.75 100.0 L 196.25 97.5 L 192.5 95.0 L 190.0 93.75 L 186.25 92.5 L 182.5 92.5 L 177.5 91.25 L 171.25 91.25 L 166.25 91.25 L 161.25 92.5 L 158.75 95.0 L 155.0 96.25 L 152.5 97.5 L 148.75 98.75 L 145.0 100.0 L 142.5 102.5 L 140.0 102.5 L 136.25 103.75 L 133.75 103.75 L 132.5 105.0 L 130.0 105.0 L 130.0 105.0 L 128.75 105.0 L 130.0 106.25 " stroke="black" fill="none" stroke-width="6.0" stroke-linecap="round" stroke-linejoin="round" />
</svg>