<svg xmlns="http://www.w3.org/2000/svg" width="300" height="300" viewBox="0 0 300 300">
<path d="M 107.5 91.25 L 103.75 91.25 L 98.75 91.25 L 96.25 91.25 L 96.25 92.5 L 97.5 93.75 L 106.25 98.75 L 117.5 105.0 L 126.25 108.75 L 136.25 115.0 L 140.0 117.5 L 140.0 121.25 L 135.0 128.75 L 127.5 137.5 L 120.0 146.25 L 113.75 152.5 L 110.0 157.5 L 110.0 160.0 L 110.0 160.0 L 110.0 160.0 L 112.5 160.0 L 116.25 161.25 L 120.0 161.25 L 131.25 161.25 L 145.0 161.25 L 160.0 160.0 L 173.75 160.0 L 182.5 160.0 L 186.25 160.0 L 186.25 160.0 L 185.0 160.0 L 185.0 160.0 L 183.75 160.0 L 183.75 160.0 L 182.5 160.0 L 180.0 162.5 L 176.25 167.5 L 173.75 177.5 L 172.5 191.25 L 172.5 206.25 L 177.5 220.0 L 183.75 230.0 L 192.5 235.0 L 200.0 236.25 L 207.5 235.0 L 212.5 232.5 L 216.25 230.0 L 217.5 228.75 " stroke="black" fill="none" stroke-width="6.0" stroke-linecap="round" stroke-linejoin="round" />
</svg>