<svg xmlns="http://www.w3.org/2000/svg" width="300" height="300" viewBox="0 0 300 300">
<path d="M 118.75 133.75 L 117.5 131.25 L 116.25 130.0 L 115.0 130.0 L 115.0 136.25 L 116.25 157.5 L 117.5 190.0 L 117.5 216.25 L 117.5 227.5 L 117.5 235.0 L 117.5 235.0 L 117.5 235.0 L 117.5 232.5 L 116.25 228.75 L 115.0 223.75 L 115.0 217.5 L 115.0 212.5 L 115.0 206.25 L 113.75 202.5 L 112.5 198.75 L 111.25 197.5 L 110.0 195.0 L 110.0 192.5 L 110.0 190.0 L 113.75 183.75 L 118.75 176.25 L 125.0 168.75 L 130.0 160.0 L 133.75 153.75 L 137.5 148.75 L 142.5 143.75 L 147.5 140.0 L 152.5 136.25 L 158.75 132.5 L 165.0 131.25 L 171.25 132.5 L 177.5 138.75 L 182.5 145.0 L 186.25 153.75 L 187.5 166.25 L 187.5 186.25 L 186.25 207.5 L 183.75 232.5 L 183.75 257.5 L 183.75 272.5 L 185.0 282.5 L 186.25 288.75 L 186.25 288.75 L 186.25 288.75 L 186.25 287.5 L 183.75 282.5 L 181.25 280.0 " stroke="black" fill="none" stroke-width="6.0" stroke-linecap="round" stroke-linejoin="round" />
</svg>