<svg xmlns="http://www.w3.org/2000/svg" width="300" height="300" viewBox="0 0 300 300">
<path d="M 103.75 110.0 L 103.75 107.5 L 103.75 101.25 L 102.5 96.25 L 102.5 92.5 L 103.75 92.5 L 106.25 110.0 L 107.5 140.0 L 107.5 173.75 L 105.0 200.0 L 105.0 211.25 L 106.25 213.75 L 107.5 213.75 L 111.25 213.75 L 115.0 206.25 L 116.25 202.5 " stroke="black" fill="none" stroke-width="6.0" stroke-linecap="round" stroke-linejoin="round" />
<path d="M 200.0 92.5 L 200.0 92.5 L 200.0 92.5 L 198.75 91.25 L 197.5 91.25 L 196.25 92.5 L 191.25 97.5 L 183.75 106.25 L 171.25 117.5 L 156.25 130.0 L 143.75 140.0 L 135.0 146.25 L 128.75 150.0 L 126.25 152.5 L 125.0 152.5 L 125.0 152.5 L 123.75 152.5 L 122.5 153.75 L 121.25 155.0 L 120.0 155.0 L 118.75 156.25 L 118.75 156.25 L 118.75 156.25 L 118.75 156.25 L 118.75 156.25 L 118.75 156.25 L 118.75 156.25 L 118.75 156.25 L 118.75 156.25 L 118.75 156.25 L 118.75 156.25 L 117.5 156.25 L 117.5 156.25 L 116.25 157.5 L 116.25 157.5 L 116.25 158.75 L 115.0 158.75 L 115.0 158.75 L 115.0 160.0 L 115.0 160.0 L 115.0 160.0 L 113.75 160.0 L 113.75 160.0 L 113.75 161.25 L 113.75 161.25 L 113.75 161.25 L 113.75 161.25 L 113.75 161.25 L 113.75 161.25 L 113.75 161.25 L 113.75 161.25 L 113.75 161.25 L 113.75 161.25 L 113.75 161.25 L 113.75 161.25 L 113.75 161.25 L 113.75 161.25 L 113.75 161.25 L 113.75 161.25 L 113.75 161.25 L 113.75 161.25 " stroke="black" fill="none" stroke-width="6.0" stroke-linecap="round" stroke-linejoin="round" />
<path d="M 143.75 147.5 L 142.5 147.5 L 142.5 147.5 L 141.25 147.5 L 141.25 147.5 L 141.25 147.5 L 141.25 147.5 L 141.25 147.5 L 141.25 147.5 L 141.25 147.5 L 141.25 147.5 L 141.25 147.5 L 141.25 147.5 L 141.25 147.5 L 141.25 147.5 L 141.25 147.5 L 142.5 147.5 L 142.5 148.75 L 142.5 148.75 L 143.75 150.0 L 143.75 151.25 L 143.75 152.5 L 145.0 153.75 L 145.0 155.0 L 146.25 155.0 L 146.25 156.25 L 146.25 157.5 L 147.5 158.75 L 147.5 160.0 L 148.75 161.25 L 150.0 162.5 L 151.25 166.25 L 153.75 170.0 L 157.5 176.25 L 161.25 181.25 L 166.25 186.25 L 171.25 190.0 L 176.25 193.75 L 180.0 197.5 L 185.0 201.25 L 190.0 206.25 L 193.75 211.25 L 197.5 215.0 L 201.25 220.0 L 202.5 225.0 L 202.5 230.0 L 202.5 235.0 L 201.25 240.0 L 200.0 245.0 L 198.75 250.0 L 197.5 253.75 L 195.0 256.25 L 191.25 258.75 L 187.5 261.25 L 182.5 263.75 L 177.5 265.0 L 170.0 266.25 L 162.5 267.5 L 153.75 267.5 L 146.25 267.5 L 140.0 267.5 L 135.0 267.5 L 131.25 267.5 L 128.75 267.5 L 126.25 266.25 L 125.0 265.0 L 123.75 262.5 L 121.25 261.25 L 120.0 260.0 L 118.75 258.75 L 118.75 258.75 L 118.75 257.5 " stroke="black" fill="none" stroke-width="6.0" stroke-linecap="round" stroke-linejoin="round" />
</svg>