<svg xmlns="http://www.w3.org/2000/svg" width="300" height="300" viewBox="0 0 300 300">
<path d="M 123.75 131.25 L 121.25 130.0 L 118.75 128.75 L 117.5 127.5 L 118.75 127.5 L 126.25 125.0 L 137.5 122.5 L 146.25 122.5 L 153.75 122.5 L 162.5 126.25 L 168.75 132.5 L 173.75 142.5 L 178.75 152.5 L 182.5 161.25 L 185.0 170.0 L 185.0 180.0 L 183.75 192.5 L 180.0 202.5 L 177.5 211.25 L 173.75 218.75 L 170.0 223.75 L 162.5 228.75 L 155.0 232.5 L 148.75 235.0 L 142.5 236.25 L 136.25 236.25 L 128.75 235.0 L 120.0 231.25 L 112.5 225.0 L 105.0 218.75 L 100.0 211.25 L 100.0 210.0 " stroke="black" fill="none" stroke-width="6.0" stroke-linecap="round" stroke-linejoin="round" />
<path d="M 145.0 168.75 L 143.75 168.75 L 142.5 168.75 L 142.5 168.75 L 142.5 168.75 L 142.5 168.75 L 143.75 170.0 L 143.75 171.25 L 143.75 172.5 L 142.5 173.75 L 140.0 173.75 L 138.75 173.75 L 137.5 172.5 L 137.5 170.0 L 140.0 168.75 L 141.25 168.75 L 143.75 168.75 L 145.0 168.75 L 145.0 168.75 L 145.0 168.75 L 145.0 167.5 " stroke="black" fill="none" stroke-width="6.0" stroke-linecap="round" stroke-linejoin="round" />
</svg>