<svg xmlns="http://www.w3.org/2000/svg" width="300" height="300" viewBox="0 0 300 300">
<path d="M 178.75 58.75 L 178.75 58.75 L 178.75 57.5 L 176.25 60.0 L 167.5 76.25 L 153.75 102.5 L 148.75 111.25 " stroke="black" fill="none" stroke-width="6.0" stroke-linecap="round" stroke-linejoin="round" />
<path d="M 195.0 128.75 L 195.0 127.5 L 195.0 126.25 L 195.0 123.75 L 195.0 122.5 L 195.0 122.5 L 193.75 121.25 L 192.5 120.0 L 190.0 120.0 L 186.25 120.0 L 181.25 120.0 L 173.75 120.0 L 166.25 121.25 L 157.5 123.75 L 151.25 125.0 L 145.0 127.5 L 140.0 130.0 L 135.0 133.75 L 130.0 137.5 L 127.5 141.25 L 125.0 146.25 L 122.5 151.25 L 122.5 156.25 L 122.5 162.5 L 125.0 168.75 L 132.5 175.0 L 142.5 178.75 L 153.75 181.25 L 163.75 180.0 L 170.0 177.5 L 172.5 175.0 L 172.5 175.0 L 170.0 175.0 L 166.25 175.0 L 162.5 175.0 L 157.5 175.0 L 151.25 176.25 L 143.75 180.0 L 135.0 185.0 L 126.25 191.25 L 121.25 197.5 L 120.0 203.75 L 120.0 211.25 L 122.5 218.75 L 126.25 226.25 L 135.0 232.5 L 147.5 236.25 L 165.0 237.5 L 185.0 236.25 L 201.25 231.25 L 208.75 225.0 L 210.0 220.0 L 208.75 215.0 " stroke="black" fill="none" stroke-width="6.0" stroke-linecap="round" stroke-linejoin="round" />
</svg>