<svg xmlns="http://www.w3.org/2000/svg" width="300" height="300" viewBox="0 0 300 300">
<path d="M 96.25 95.0 L 95.0 92.5 L 93.75 92.5 L 93.75 97.5 L 93.75 116.25 L 93.75 155.0 L 88.75 200.0 L 85.0 223.75 L 83.75 227.5 L 86.25 217.5 L 88.75 208.75 " stroke="black" fill="none" stroke-width="6.0" stroke-linecap="round" stroke-linejoin="round" />
<path d="M 102.5 130.0 L 101.25 127.5 L 101.25 125.0 L 100.0 122.5 L 100.0 121.25 L 100.0 121.25 L 103.75 122.5 L 112.5 135.0 L 125.0 158.75 L 137.5 187.5 L 146.25 205.0 L 151.25 211.25 L 153.75 213.75 L 156.25 213.75 L 158.75 208.75 L 165.0 196.25 L 176.25 176.25 L 190.0 150.0 L 201.25 125.0 L 205.0 107.5 L 205.0 101.25 L 205.0 98.75 L 203.75 97.5 L 203.75 97.5 L 203.75 97.5 L 203.75 97.5 L 203.75 97.5 L 203.75 97.5 L 203.75 97.5 L 203.75 97.5 L 203.75 98.75 L 203.75 100.0 L 203.75 103.75 L 202.5 113.75 L 201.25 133.75 L 201.25 166.25 L 201.25 196.25 L 203.75 211.25 L 205.0 217.5 L 205.0 221.25 L 205.0 222.5 L 205.0 222.5 L 205.0 222.5 L 203.75 220.0 " stroke="black" fill="none" stroke-width="6.0" stroke-linecap="round" stroke-linejoin="round" />
</svg>