<svg xmlns="http://www.w3.org/2000/svg" width="300" height="300" viewBox="0 0 300 300">
<path d="M 158.75 72.5 L 158.75 72.5 L 157.5 72.5 L 153.75 78.75 L 147.5 92.5 L 142.5 105.0 " stroke="black" fill="none" stroke-width="6.0" stroke-linecap="round" stroke-linejoin="round" />
<path d="M 117.5 143.75 L 117.5 142.5 L 117.5 141.25 L 117.5 140.0 L 117.5 140.0 L 117.5 140.0 L 117.5 142.5 L 117.5 147.5 L 117.5 155.0 L 117.5 162.5 L 118.75 173.75 L 118.75 183.75 L 121.25 191.25 L 122.5 198.75 L 126.25 205.0 L 128.75 210.0 L 132.5 215.0 L 136.25 218.75 L 138.75 221.25 L 142.5 223.75 L 147.5 226.25 L 151.25 226.25 L 156.25 227.5 L 161.25 227.5 L 166.25 225.0 L 172.5 222.5 L 177.5 218.75 L 182.5 213.75 L 187.5 208.75 L 190.0 203.75 L 192.5 198.75 L 193.75 195.0 L 196.25 190.0 L 196.25 186.25 L 197.5 180.0 L 197.5 171.25 L 197.5 161.25 L 197.5 150.0 L 197.5 137.5 L 197.5 128.75 L 196.25 125.0 L 195.0 122.5 L 195.0 122.5 L 195.0 123.75 L 195.0 123.75 L 195.0 125.0 L 195.0 125.0 " stroke="black" fill="none" stroke-width="6.0" stroke-linecap="round" stroke-linejoin="round" />
</svg>