<svg xmlns="http://www.w3.org/2000/svg" width="300" height="300" viewBox="0 0 300 300">
<path d="M 91.25 131.25 L 88.75 131.25 L 86.25 131.25 L 83.75 130.0 L 83.75 127.5 L 87.5 123.75 L 92.5 118.75 L 98.75 112.5 L 105.0 108.75 L 110.0 106.25 L 115.0 106.25 L 120.0 111.25 L 123.75 117.5 L 128.75 125.0 L 133.75 135.0 L 138.75 145.0 L 143.75 153.75 L 148.75 162.5 L 153.75 168.75 L 157.5 177.5 L 161.25 186.25 L 162.5 192.5 L 163.75 197.5 L 165.0 201.25 L 165.0 205.0 L 165.0 208.75 L 163.75 211.25 L 163.75 213.75 L 162.5 216.25 L 160.0 216.25 L 157.5 217.5 L 153.75 218.75 L 150.0 220.0 L 146.25 221.25 L 142.5 221.25 L 138.75 222.5 L 132.5 222.5 L 128.75 222.5 L 125.0 220.0 L 122.5 218.75 L 121.25 216.25 L 121.25 213.75 L 121.25 211.25 L 123.75 206.25 L 126.25 200.0 L 131.25 192.5 L 136.25 183.75 L 142.5 172.5 L 147.5 158.75 L 153.75 147.5 L 158.75 138.75 L 162.5 132.5 L 166.25 127.5 L 172.5 121.25 L 178.75 116.25 L 185.0 113.75 L 190.0 113.75 L 195.0 116.25 L 200.0 121.25 L 205.0 126.25 L 208.75 131.25 L 212.5 133.75 L 215.0 135.0 L 215.0 135.0 L 213.75 135.0 L 210.0 136.25 " stroke="black" fill="none" stroke-width="6.0" stroke-linecap="round" stroke-linejoin="round" />
</svg>