<svg xmlns="http://www.w3.org/2000/svg" width="300" height="300" viewBox="0 0 300 300">
<path d="M 120.0 145.0 L 120.0 143.75 L 120.0 141.25 L 120.0 140.0 L 120.0 137.5 L 120.0 136.25 L 120.0 135.0 L 118.75 135.0 L 115.0 141.25 L 108.75 160.0 L 102.5 187.5 L 100.0 212.5 L 101.25 228.75 L 110.0 235.0 L 122.5 235.0 L 135.0 231.25 L 142.5 221.25 L 147.5 210.0 L 150.0 197.5 L 150.0 188.75 L 148.75 180.0 L 147.5 173.75 L 146.25 172.5 L 146.25 172.5 L 146.25 176.25 L 146.25 187.5 L 150.0 202.5 L 157.5 220.0 L 170.0 235.0 L 183.75 241.25 L 195.0 242.5 L 203.75 240.0 L 210.0 236.25 L 212.5 228.75 L 212.5 213.75 L 211.25 196.25 L 206.25 176.25 L 202.5 153.75 L 198.75 141.25 L 197.5 138.75 L 197.5 138.75 L 195.0 142.5 L 192.5 146.25 " stroke="black" fill="none" stroke-width="6.0" stroke-linecap="round" stroke-linejoin="round" />
</svg>