<svg xmlns="http://www.w3.org/2000/svg" width="300" height="300" viewBox="0 0 300 300">
<path d="M 101.25 93.75 L 101.25 92.5 L 101.25 90.0 L 101.25 87.5 L 101.25 85.0 L 101.25 83.75 L 100.0 82.5 L 100.0 87.5 L 100.0 105.0 L 100.0 122.5 L 101.25 135.0 L 103.75 137.5 L 103.75 132.5 L 103.75 131.25 " stroke="black" fill="none" stroke-width="6.0" stroke-linecap="round" stroke-linejoin="round" />
<path d="M 98.75 90.0 L 98.75 88.75 L 97.5 88.75 L 96.25 88.75 L 98.75 88.75 L 111.25 88.75 L 135.0 87.5 L 160.0 83.75 L 180.0 80.0 L 190.0 80.0 L 193.75 78.75 L 195.0 78.75 L 196.25 78.75 L 196.25 78.75 L 196.25 78.75 L 197.5 78.75 L 198.75 78.75 L 200.0 78.75 L 200.0 78.75 L 201.25 78.75 L 201.25 78.75 L 202.5 78.75 L 203.75 78.75 L 203.75 78.75 L 203.75 78.75 L 203.75 80.0 L 203.75 80.0 L 203.75 81.25 L 203.75 82.5 L 203.75 83.75 L 202.5 88.75 L 200.0 97.5 L 200.0 111.25 L 200.0 125.0 L 200.0 127.5 " stroke="black" fill="none" stroke-width="6.0" stroke-linecap="round" stroke-linejoin="round" />
<path d="M 151.25 91.25 L 151.25 91.25 L 151.25 91.25 L 151.25 90.0 L 151.25 90.0 L 151.25 90.0 L 151.25 88.75 L 151.25 88.75 L 151.25 87.5 L 151.25 87.5 L 151.25 86.25 L 151.25 86.25 L 151.25 88.75 L 151.25 95.0 L 152.5 112.5 L 153.75 143.75 L 153.75 170.0 L 155.0 186.25 L 156.25 196.25 L 157.5 203.75 L 157.5 211.25 L 157.5 217.5 L 157.5 220.0 L 157.5 220.0 L 153.75 211.25 " stroke="black" fill="none" stroke-width="6.0" stroke-linecap="round" stroke-linejoin="round" />
</svg>