<svg xmlns="http://www.w3.org/2000/svg" width="300" height="300" viewBox="0 0 300 300">
<path d="M 97.5 77.5 L 97.5 76.25 L 97.5 71.25 L 97.5 67.5 L 97.5 65.0 L 98.75 63.75 L 98.75 63.75 L 98.75 63.75 L 100.0 72.5 L 100.0 92.5 L 101.25 125.0 L 102.5 163.75 L 103.75 192.5 L 105.0 205.0 L 106.25 210.0 L 107.5 213.75 L 108.75 215.0 L 108.75 215.0 L 108.75 213.75 L 108.75 203.75 L 108.75 198.75 " stroke="black" fill="none" stroke-width="6.0" stroke-linecap="round" stroke-linejoin="round" />
<path d="M 112.5 136.25 L 110.0 136.25 L 105.0 137.5 L 105.0 137.5 L 103.75 137.5 L 106.25 137.5 L 112.5 136.25 L 120.0 132.5 L 130.0 130.0 L 140.0 127.5 L 151.25 127.5 L 163.75 130.0 L 173.75 133.75 L 182.5 138.75 L 188.75 143.75 L 192.5 150.0 L 196.25 156.25 L 200.0 166.25 L 202.5 177.5 L 205.0 188.75 L 206.25 197.5 L 206.25 205.0 L 207.5 211.25 L 207.5 217.5 L 206.25 223.75 L 203.75 228.75 L 201.25 233.75 L 198.75 237.5 L 195.0 241.25 L 188.75 246.25 L 183.75 250.0 L 176.25 252.5 L 168.75 255.0 L 161.25 257.5 L 153.75 260.0 L 146.25 261.25 L 140.0 261.25 L 132.5 261.25 L 125.0 261.25 L 117.5 260.0 L 110.0 260.0 L 103.75 260.0 L 98.75 261.25 L 97.5 262.5 L 96.25 262.5 L 96.25 262.5 L 96.25 262.5 L 97.5 262.5 L 97.5 261.25 L 97.5 258.75 " stroke="black" fill="none" stroke-width="6.0" stroke-linecap="round" stroke-linejoin="round" />
</svg>