<svg xmlns="http://www.w3.org/2000/svg" width="300" height="300" viewBox="0 0 300 300">
<path d="M 100.0 87.5 L 100.0 87.5 L 100.0 86.25 L 100.0 85.0 L 100.0 85.0 L 100.0 85.0 L 102.5 87.5 L 110.0 91.25 L 121.25 97.5 L 133.75 102.5 L 146.25 110.0 L 155.0 121.25 L 162.5 137.5 L 170.0 163.75 L 176.25 195.0 L 178.75 216.25 L 180.0 233.75 L 178.75 243.75 L 176.25 248.75 L 172.5 252.5 L 167.5 257.5 L 163.75 260.0 L 162.5 261.25 L 162.5 261.25 L 161.25 260.0 L 161.25 260.0 " stroke="black" fill="none" stroke-width="6.0" stroke-linecap="round" stroke-linejoin="round" />
<path d="M 117.5 143.75 L 116.25 146.25 L 113.75 147.5 L 113.75 147.5 L 123.75 147.5 L 140.0 145.0 L 153.75 140.0 L 165.0 135.0 L 167.5 132.5 L 165.0 132.5 " stroke="black" fill="none" stroke-width="6.0" stroke-linecap="round" stroke-linejoin="round" />
<path d="M 127.5 190.0 L 125.0 192.5 L 121.25 196.25 L 121.25 197.5 L 127.5 198.75 L 138.75 198.75 L 150.0 197.5 L 161.25 195.0 L 170.0 191.25 L 172.5 190.0 " stroke="black" fill="none" stroke-width="6.0" stroke-linecap="round" stroke-linejoin="round" />
</svg>