<svg xmlns="http://www.w3.org/2000/svg" width="300" height="300" viewBox="0 0 300 300">
<path d="M 112.5 82.5 L 113.75 80.0 L 113.75 77.5 L 113.75 77.5 L 113.75 80.0 L 113.75 97.5 L 115.0 136.25 L 116.25 190.0 L 116.25 220.0 L 117.5 233.75 L 118.75 240.0 L 120.0 241.25 L 120.0 241.25 L 121.25 237.5 L 122.5 230.0 L 122.5 226.25 " stroke="black" fill="none" stroke-width="6.0" stroke-linecap="round" stroke-linejoin="round" />
<path d="M 116.25 126.25 L 116.25 126.25 L 113.75 125.0 L 112.5 123.75 L 111.25 123.75 L 113.75 121.25 L 120.0 118.75 L 128.75 116.25 L 137.5 113.75 L 148.75 112.5 L 160.0 111.25 L 172.5 111.25 L 183.75 115.0 L 191.25 121.25 L 197.5 127.5 L 201.25 133.75 L 202.5 140.0 L 203.75 145.0 L 203.75 148.75 L 203.75 153.75 L 201.25 158.75 L 198.75 165.0 L 193.75 170.0 L 190.0 176.25 L 182.5 181.25 L 173.75 185.0 L 160.0 188.75 L 147.5 192.5 L 136.25 196.25 L 127.5 198.75 L 120.0 198.75 L 117.5 198.75 L 117.5 198.75 L 117.5 198.75 L 117.5 196.25 L 120.0 191.25 L 121.25 187.5 " stroke="black" fill="none" stroke-width="6.0" stroke-linecap="round" stroke-linejoin="round" />
</svg>