<svg xmlns="http://www.w3.org/2000/svg" width="300" height="300" viewBox="0 0 300 300">
<path d="M 111.25 75.0 L 111.25 73.75 L 110.0 70.0 L 108.75 66.25 L 107.5 63.75 L 107.5 62.5 L 107.5 61.25 L 107.5 63.75 L 108.75 73.75 L 110.0 92.5 L 111.25 123.75 L 112.5 165.0 L 112.5 201.25 L 115.0 221.25 L 116.25 237.5 L 117.5 247.5 L 117.5 252.5 L 117.5 253.75 L 117.5 253.75 L 117.5 253.75 L 117.5 253.75 L 117.5 248.75 L 117.5 243.75 " stroke="black" fill="none" stroke-width="6.0" stroke-linecap="round" stroke-linejoin="round" />
<path d="M 120.0 136.25 L 120.0 136.25 L 120.0 136.25 L 120.0 136.25 L 118.75 136.25 L 118.75 135.0 L 121.25 135.0 L 128.75 135.0 L 140.0 133.75 L 152.5 132.5 L 165.0 132.5 L 173.75 133.75 L 180.0 137.5 L 186.25 143.75 L 190.0 148.75 L 192.5 153.75 L 193.75 160.0 L 195.0 167.5 L 195.0 175.0 L 193.75 183.75 L 192.5 190.0 L 191.25 195.0 L 190.0 198.75 L 187.5 202.5 L 185.0 205.0 L 180.0 208.75 L 175.0 211.25 L 168.75 212.5 L 160.0 215.0 L 153.75 217.5 L 147.5 218.75 L 142.5 220.0 L 137.5 221.25 L 132.5 221.25 L 127.5 220.0 L 122.5 217.5 L 117.5 213.75 L 113.75 210.0 L 111.25 208.75 L 111.25 207.5 L 112.5 205.0 L 116.25 203.75 " stroke="black" fill="none" stroke-width="6.0" stroke-linecap="round" stroke-linejoin="round" />
</svg>