<svg xmlns="http://www.w3.org/2000/svg" width="300" height="300" viewBox="0 0 300 300">
<path d="M 130.0 75.0 L 123.75 73.75 L 116.25 73.75 L 111.25 76.25 L 110.0 77.5 L 118.75 81.25 L 140.0 83.75 L 165.0 83.75 L 186.25 81.25 L 208.75 78.75 L 212.5 78.75 L 211.25 78.75 L 207.5 78.75 L 200.0 81.25 L 190.0 83.75 L 178.75 87.5 L 166.25 93.75 L 152.5 101.25 L 143.75 111.25 L 138.75 122.5 L 137.5 131.25 L 143.75 138.75 L 153.75 146.25 L 170.0 152.5 L 187.5 155.0 L 198.75 156.25 L 203.75 156.25 L 203.75 156.25 L 202.5 156.25 L 198.75 155.0 L 191.25 155.0 L 180.0 156.25 L 165.0 162.5 L 150.0 173.75 L 140.0 190.0 L 137.5 206.25 L 142.5 221.25 L 153.75 233.75 L 170.0 242.5 L 187.5 246.25 L 203.75 247.5 L 211.25 246.25 " stroke="black" fill="none" stroke-width="6.0" stroke-linecap="round" stroke-linejoin="round" />
</svg>