<svg xmlns="http://www.w3.org/2000/svg" width="300" height="300" viewBox="0 0 300 300">
<path d="M 76.25 121.25 L 75.0 121.25 L 71.25 121.25 L 67.5 121.25 L 63.75 122.5 L 63.75 123.75 L 63.75 125.0 L 68.75 126.25 L 78.75 128.75 L 90.0 130.0 L 103.75 132.5 L 123.75 136.25 L 143.75 138.75 L 163.75 137.5 L 185.0 132.5 L 201.25 126.25 L 210.0 122.5 L 212.5 122.5 L 212.5 122.5 L 211.25 125.0 L 207.5 130.0 L 206.25 130.0 " stroke="black" fill="none" stroke-width="6.0" stroke-linecap="round" stroke-linejoin="round" />
<path d="M 100.0 142.5 L 100.0 140.0 L 98.75 136.25 L 98.75 133.75 L 97.5 132.5 L 97.5 132.5 L 96.25 137.5 L 95.0 147.5 L 91.25 162.5 L 87.5 183.75 L 86.25 202.5 L 86.25 215.0 L 92.5 223.75 L 98.75 230.0 L 108.75 233.75 L 120.0 235.0 L 131.25 233.75 L 141.25 228.75 L 147.5 221.25 L 152.5 211.25 L 153.75 201.25 L 155.0 190.0 L 155.0 178.75 L 153.75 170.0 L 152.5 163.75 L 152.5 162.5 L 152.5 162.5 L 152.5 162.5 L 152.5 165.0 L 152.5 171.25 L 152.5 180.0 L 152.5 191.25 L 153.75 205.0 L 158.75 217.5 L 166.25 227.5 L 178.75 232.5 L 191.25 233.75 L 200.0 230.0 L 206.25 223.75 L 210.0 213.75 L 210.0 203.75 L 210.0 191.25 L 207.5 177.5 L 205.0 162.5 L 201.25 150.0 L 200.0 141.25 L 198.75 136.25 L 198.75 135.0 L 197.5 135.0 L 197.5 135.0 L 197.5 136.25 " stroke="black" fill="none" stroke-width="6.0" stroke-linecap="round" stroke-linejoin="round" />
</svg>