<svg xmlns="http://www.w3.org/2000/svg" width="300" height="300" viewBox="0 0 300 300">
<path d="M 97.5 103.75 L 97.5 103.75 L 96.25 103.75 L 93.75 103.75 L 93.75 101.25 L 93.75 95.0 L 97.5 88.75 L 103.75 81.25 L 111.25 73.75 L 118.75 68.75 L 127.5 63.75 L 136.25 61.25 L 146.25 60.0 L 155.0 60.0 L 165.0 62.5 L 175.0 67.5 L 183.75 73.75 L 192.5 80.0 L 198.75 85.0 L 202.5 90.0 L 205.0 97.5 L 205.0 102.5 L 203.75 108.75 L 202.5 113.75 L 198.75 118.75 L 195.0 122.5 L 190.0 125.0 L 182.5 128.75 L 172.5 131.25 L 161.25 133.75 L 151.25 137.5 L 143.75 141.25 L 137.5 145.0 L 130.0 151.25 L 123.75 158.75 L 117.5 166.25 L 113.75 173.75 L 112.5 182.5 L 112.5 191.25 L 113.75 200.0 L 116.25 208.75 L 118.75 217.5 L 123.75 225.0 L 130.0 231.25 L 138.75 235.0 L 148.75 235.0 L 158.75 233.75 L 168.75 228.75 L 180.0 222.5 L 188.75 218.75 L 196.25 215.0 L 202.5 212.5 L 208.75 211.25 L 211.25 210.0 L 212.5 207.5 L 210.0 203.75 " stroke="black" fill="none" stroke-width="6.0" stroke-linecap="round" stroke-linejoin="round" />
</svg>