<svg xmlns="http://www.w3.org/2000/svg" width="300" height="300" viewBox="0 0 300 300">
<path d="M 125.0 113.75 L 125.0 113.75 L 123.75 113.75 L 122.5 112.5 L 122.5 112.5 L 122.5 112.5 L 123.75 113.75 L 127.5 116.25 L 132.5 120.0 L 138.75 121.25 L 146.25 121.25 L 153.75 121.25 L 161.25 118.75 L 167.5 115.0 L 171.25 111.25 L 176.25 107.5 L 180.0 103.75 L 183.75 101.25 L 185.0 97.5 L 186.25 95.0 L 186.25 91.25 L 185.0 88.75 L 183.75 85.0 L 182.5 82.5 L 180.0 80.0 L 177.5 77.5 L 172.5 76.25 L 167.5 76.25 L 162.5 76.25 L 156.25 76.25 L 151.25 77.5 L 147.5 78.75 L 145.0 80.0 L 141.25 81.25 L 138.75 82.5 L 136.25 83.75 L 133.75 85.0 L 131.25 86.25 L 127.5 88.75 L 125.0 90.0 L 122.5 92.5 L 120.0 95.0 L 118.75 97.5 L 116.25 101.25 L 113.75 105.0 L 111.25 110.0 L 108.75 115.0 L 107.5 120.0 L 106.25 125.0 L 105.0 131.25 L 103.75 137.5 L 103.75 145.0 L 103.75 151.25 L 103.75 158.75 L 103.75 166.25 L 103.75 175.0 L 105.0 182.5 L 106.25 190.0 L 106.25 196.25 L 107.5 200.0 L 107.5 203.75 L 107.5 207.5 L 108.75 210.0 L 111.25 212.5 L 113.75 215.0 L 116.25 217.5 L 118.75 220.0 L 122.5 222.5 L 126.25 225.0 L 130.0 227.5 L 133.75 228.75 L 136.25 230.0 L 140.0 230.0 L 143.75 230.0 L 147.5 230.0 L 150.0 230.0 L 153.75 228.75 L 157.5 226.25 L 161.25 223.75 L 165.0 221.25 L 170.0 218.75 L 173.75 215.0 L 177.5 211.25 L 180.0 208.75 L 182.5 206.25 L 185.0 203.75 L 186.25 201.25 L 187.5 198.75 L 188.75 197.5 L 188.75 195.0 L 190.0 193.75 L 190.0 192.5 L 191.25 190.0 L 191.25 187.5 L 191.25 185.0 L 191.25 182.5 L 191.25 178.75 L 191.25 176.25 L 191.25 173.75 L 191.25 171.25 L 192.5 168.75 L 192.5 166.25 L 192.5 163.75 L 192.5 162.5 L 192.5 160.0 L 191.25 158.75 L 190.0 157.5 L 190.0 155.0 L 188.75 153.75 L 186.25 152.5 L 185.0 151.25 L 182.5 150.0 L 178.75 148.75 L 176.25 147.5 L 172.5 146.25 L 168.75 145.0 L 165.0 145.0 L 161.25 145.0 L 156.25 143.75 L 152.5 143.75 L 148.75 143.75 L 143.75 145.0 L 137.5 146.25 L 132.5 148.75 L 126.25 151.25 L 118.75 153.75 L 111.25 158.75 L 106.25 162.5 L 102.5 165.0 L 102.5 166.25 L 102.5 166.25 L 103.75 166.25 L 106.25 166.25 L 107.5 165.0 L 108.75 165.0 " stroke="black" fill="none" stroke-width="6.0" stroke-linecap="round" stroke-linejoin="round" />
</svg>