<svg xmlns="http://www.w3.org/2000/svg" width="300" height="300" viewBox="0 0 300 300">
<path d="M 122.5 92.5 L 123.75 91.25 L 123.75 90.0 L 123.75 90.0 L 123.75 90.0 L 122.5 90.0 L 121.25 90.0 L 120.0 90.0 L 120.0 90.0 L 118.75 90.0 L 118.75 90.0 L 117.5 91.25 L 116.25 92.5 L 115.0 95.0 L 113.75 97.5 L 112.5 101.25 L 110.0 106.25 L 108.75 111.25 L 107.5 116.25 L 106.25 122.5 L 105.0 127.5 L 105.0 132.5 L 103.75 136.25 L 103.75 140.0 L 102.5 143.75 L 102.5 146.25 L 102.5 150.0 L 102.5 153.75 L 102.5 157.5 L 103.75 161.25 L 105.0 165.0 L 106.25 168.75 L 107.5 172.5 L 110.0 176.25 L 112.5 180.0 L 116.25 182.5 L 120.0 185.0 L 123.75 186.25 L 128.75 187.5 L 133.75 188.75 L 137.5 190.0 L 142.5 191.25 L 147.5 192.5 L 151.25 192.5 L 155.0 192.5 L 158.75 192.5 L 162.5 191.25 L 167.5 188.75 L 175.0 185.0 L 181.25 182.5 L 188.75 177.5 L 193.75 173.75 L 197.5 170.0 L 200.0 165.0 L 202.5 161.25 L 203.75 158.75 L 205.0 155.0 L 206.25 150.0 L 206.25 145.0 L 206.25 138.75 L 206.25 132.5 L 206.25 127.5 L 205.0 122.5 L 202.5 116.25 L 200.0 111.25 L 197.5 106.25 L 195.0 101.25 L 192.5 98.75 L 188.75 96.25 L 186.25 93.75 L 182.5 92.5 L 178.75 91.25 L 175.0 90.0 L 171.25 88.75 L 167.5 87.5 L 163.75 87.5 L 160.0 87.5 L 156.25 87.5 L 151.25 87.5 L 147.5 87.5 L 143.75 88.75 L 138.75 90.0 L 135.0 90.0 L 130.0 91.25 L 126.25 92.5 L 122.5 93.75 L 118.75 93.75 L 116.25 93.75 L 116.25 93.75 L 116.25 93.75 L 116.25 93.75 L 116.25 95.0 L 116.25 96.25 " stroke="black" fill="none" stroke-width="6.0" stroke-linecap="round" stroke-linejoin="round" />
<path d="M 155.0 196.25 L 155.0 195.0 L 155.0 195.0 L 155.0 195.0 L 155.0 193.75 L 155.0 193.75 L 155.0 192.5 L 155.0 192.5 L 155.0 192.5 L 153.75 192.5 L 153.75 192.5 L 153.75 192.5 L 153.75 192.5 L 153.75 193.75 L 153.75 197.5 L 153.75 203.75 L 153.75 216.25 L 155.0 230.0 L 155.0 238.75 L 155.0 241.25 L 155.0 241.25 L 155.0 240.0 L 155.0 236.25 L 155.0 235.0 " stroke="black" fill="none" stroke-width="6.0" stroke-linecap="round" stroke-linejoin="round" />
</svg>