<svg xmlns="http://www.w3.org/2000/svg" width="300" height="300" viewBox="0 0 300 300">
<path d="M 105.0 96.25 L 103.75 96.25 L 97.5 96.25 L 91.25 96.25 L 88.75 96.25 L 87.5 95.0 L 91.25 95.0 L 103.75 98.75 L 125.0 102.5 L 151.25 103.75 L 180.0 103.75 L 201.25 100.0 L 212.5 96.25 L 217.5 93.75 L 218.75 93.75 L 218.75 93.75 L 217.5 93.75 L 210.0 95.0 L 207.5 96.25 " stroke="black" fill="none" stroke-width="6.0" stroke-linecap="round" stroke-linejoin="round" />
<path d="M 157.5 101.25 L 157.5 102.5 L 157.5 103.75 L 157.5 105.0 L 158.75 111.25 L 158.75 132.5 L 158.75 176.25 L 157.5 211.25 L 157.5 227.5 L 156.25 236.25 L 156.25 237.5 L 156.25 238.75 L 152.5 238.75 " stroke="black" fill="none" stroke-width="6.0" stroke-linecap="round" stroke-linejoin="round" />
</svg>