<svg xmlns="http://www.w3.org/2000/svg" width="300" height="300" viewBox="0 0 300 300">
<path d="M 128.75 95.0 L 125.0 96.25 L 120.0 96.25 L 115.0 97.5 L 113.75 98.75 L 116.25 100.0 L 128.75 100.0 L 146.25 100.0 L 163.75 95.0 L 175.0 91.25 L 180.0 88.75 L 176.25 87.5 L 165.0 92.5 L 156.25 95.0 " stroke="black" fill="none" stroke-width="6.0" stroke-linecap="round" stroke-linejoin="round" />
<path d="M 121.25 103.75 L 121.25 103.75 L 121.25 103.75 L 121.25 103.75 L 121.25 103.75 L 121.25 105.0 L 121.25 110.0 L 121.25 141.25 L 120.0 187.5 L 118.75 216.25 L 121.25 228.75 L 126.25 233.75 L 135.0 235.0 L 148.75 233.75 L 166.25 227.5 L 185.0 222.5 L 200.0 217.5 L 206.25 213.75 L 206.25 212.5 L 202.5 210.0 L 195.0 207.5 L 192.5 206.25 " stroke="black" fill="none" stroke-width="6.0" stroke-linecap="round" stroke-linejoin="round" />
<path d="M 132.5 160.0 L 126.25 162.5 L 122.5 162.5 L 121.25 162.5 L 126.25 162.5 L 137.5 162.5 L 156.25 161.25 L 186.25 155.0 L 203.75 151.25 L 208.75 150.0 L 208.75 150.0 " stroke="black" fill="none" stroke-width="6.0" stroke-linecap="round" stroke-linejoin="round" />
</svg>