<svg xmlns="http://www.w3.org/2000/svg" width="300" height="300" viewBox="0 0 300 300">
<path d="M 140.0 65.0 L 140.0 65.0 L 138.75 65.0 L 137.5 63.75 L 136.25 63.75 L 136.25 62.5 L 136.25 61.25 L 135.0 60.0 L 133.75 58.75 L 132.5 58.75 L 128.75 58.75 L 123.75 61.25 L 117.5 65.0 L 112.5 71.25 L 108.75 80.0 L 106.25 87.5 L 106.25 97.5 L 106.25 107.5 L 106.25 121.25 L 107.5 135.0 L 110.0 146.25 L 112.5 156.25 L 115.0 165.0 L 118.75 171.25 L 123.75 177.5 L 130.0 182.5 L 136.25 185.0 L 142.5 185.0 L 147.5 182.5 L 152.5 177.5 L 157.5 172.5 L 163.75 165.0 L 171.25 156.25 L 178.75 147.5 L 185.0 140.0 L 190.0 123.75 L 190.0 111.25 L 192.5 97.5 L 193.75 85.0 L 195.0 73.75 L 195.0 66.25 L 195.0 62.5 L 195.0 61.25 L 195.0 60.0 L 193.75 60.0 L 193.75 60.0 L 193.75 60.0 L 193.75 61.25 L 193.75 66.25 L 192.5 76.25 L 191.25 90.0 L 191.25 107.5 L 191.25 131.25 L 191.25 152.5 L 191.25 175.0 L 193.75 196.25 L 195.0 210.0 L 196.25 221.25 L 197.5 230.0 L 197.5 233.75 L 197.5 235.0 L 197.5 233.75 L 197.5 233.75 L 197.5 231.25 L 195.0 223.75 " stroke="black" fill="none" stroke-width="6.0" stroke-linecap="round" stroke-linejoin="round" />
</svg>