<svg xmlns="http://www.w3.org/2000/svg" width="300" height="300" viewBox="0 0 300 300">
<path d="M 103.75 103.75 L 103.75 103.75 L 102.5 105.0 L 100.0 105.0 L 98.75 105.0 L 98.75 103.75 L 98.75 101.25 L 100.0 97.5 L 103.75 91.25 L 108.75 86.25 L 116.25 80.0 L 123.75 75.0 L 132.5 71.25 L 138.75 68.75 L 146.25 67.5 L 153.75 66.25 L 161.25 66.25 L 170.0 67.5 L 180.0 70.0 L 187.5 72.5 L 193.75 77.5 L 197.5 82.5 L 200.0 88.75 L 202.5 95.0 L 202.5 101.25 L 202.5 106.25 L 201.25 112.5 L 197.5 117.5 L 193.75 121.25 L 188.75 126.25 L 183.75 131.25 L 176.25 135.0 L 166.25 138.75 L 156.25 142.5 L 148.75 145.0 L 142.5 148.75 L 137.5 151.25 L 132.5 155.0 L 127.5 158.75 L 123.75 162.5 L 120.0 166.25 L 117.5 171.25 L 115.0 178.75 L 112.5 186.25 L 111.25 193.75 L 110.0 201.25 L 110.0 208.75 L 111.25 215.0 L 113.75 221.25 L 117.5 227.5 L 122.5 232.5 L 130.0 237.5 L 136.25 238.75 L 145.0 238.75 L 153.75 238.75 L 161.25 236.25 L 168.75 232.5 L 176.25 228.75 L 183.75 223.75 L 190.0 218.75 L 196.25 213.75 L 201.25 210.0 L 205.0 203.75 L 207.5 200.0 L 208.75 196.25 L 210.0 191.25 L 212.5 186.25 L 212.5 178.75 L 212.5 170.0 L 212.5 161.25 L 210.0 156.25 L 207.5 153.75 L 205.0 152.5 L 203.75 152.5 " stroke="black" fill="none" stroke-width="6.0" stroke-linecap="round" stroke-linejoin="round" />
</svg>