<svg xmlns="http://www.w3.org/2000/svg" width="300" height="300" viewBox="0 0 300 300">
<path d="M 130.0 86.25 L 127.5 87.5 L 123.75 88.75 L 121.25 90.0 L 120.0 90.0 L 122.5 90.0 L 135.0 90.0 L 153.75 90.0 L 175.0 87.5 L 192.5 83.75 L 200.0 81.25 L 201.25 80.0 L 201.25 80.0 L 198.75 80.0 L 195.0 80.0 L 191.25 82.5 " stroke="black" fill="none" stroke-width="6.0" stroke-linecap="round" stroke-linejoin="round" />
<path d="M 131.25 87.5 L 131.25 87.5 L 131.25 87.5 L 131.25 87.5 L 131.25 87.5 L 131.25 87.5 L 131.25 92.5 L 130.0 108.75 L 128.75 143.75 L 128.75 185.0 L 128.75 213.75 L 131.25 228.75 L 131.25 238.75 L 132.5 241.25 L 132.5 241.25 L 132.5 241.25 L 132.5 238.75 L 132.5 231.25 L 132.5 220.0 " stroke="black" fill="none" stroke-width="6.0" stroke-linecap="round" stroke-linejoin="round" />
<path d="M 136.25 156.25 L 133.75 156.25 L 128.75 157.5 L 127.5 157.5 L 126.25 157.5 L 128.75 157.5 L 136.25 157.5 L 145.0 157.5 L 157.5 157.5 L 171.25 155.0 L 183.75 151.25 L 190.0 150.0 L 192.5 150.0 L 192.5 151.25 L 192.5 157.5 L 192.5 168.75 L 191.25 185.0 L 191.25 196.25 L 191.25 200.0 L 191.25 201.25 L 191.25 200.0 L 191.25 196.25 L 191.25 195.0 " stroke="black" fill="none" stroke-width="6.0" stroke-linecap="round" stroke-linejoin="round" />
</svg>