<svg xmlns="http://www.w3.org/2000/svg" width="300" height="300" viewBox="0 0 300 300">
<path d="M 108.75 150.0 L 108.75 148.75 L 108.75 143.75 L 107.5 136.25 L 107.5 126.25 L 107.5 120.0 L 107.5 118.75 L 110.0 123.75 L 111.25 156.25 L 111.25 191.25 L 108.75 220.0 L 108.75 231.25 L 108.75 232.5 L 111.25 232.5 L 116.25 230.0 L 126.25 223.75 L 138.75 208.75 L 152.5 187.5 L 167.5 157.5 L 181.25 133.75 L 187.5 120.0 L 188.75 112.5 L 188.75 112.5 L 188.75 113.75 L 188.75 113.75 L 187.5 118.75 L 187.5 123.75 L 187.5 127.5 L 187.5 130.0 L 187.5 132.5 L 187.5 137.5 L 187.5 148.75 L 191.25 178.75 L 198.75 213.75 L 203.75 233.75 L 206.25 237.5 L 206.25 238.75 " stroke="black" fill="none" stroke-width="6.0" stroke-linecap="round" stroke-linejoin="round" />
</svg>