<svg xmlns="http://www.w3.org/2000/svg" width="300" height="300" viewBox="0 0 300 300">
<path d="M 97.5 85.0 L 98.75 82.5 L 98.75 77.5 L 98.75 77.5 L 96.25 81.25 L 88.75 98.75 L 78.75 121.25 L 71.25 136.25 " stroke="black" fill="none" stroke-width="6.0" stroke-linecap="round" stroke-linejoin="round" />
<path d="M 151.25 91.25 L 146.25 92.5 L 141.25 93.75 L 138.75 93.75 L 138.75 95.0 L 146.25 96.25 L 161.25 96.25 L 180.0 92.5 L 195.0 87.5 L 200.0 85.0 L 196.25 83.75 L 188.75 85.0 " stroke="black" fill="none" stroke-width="6.0" stroke-linecap="round" stroke-linejoin="round" />
<path d="M 145.0 105.0 L 145.0 105.0 L 145.0 103.75 L 145.0 103.75 L 145.0 103.75 L 145.0 106.25 L 143.75 117.5 L 140.0 152.5 L 136.25 190.0 L 136.25 208.75 L 137.5 218.75 L 141.25 222.5 L 147.5 225.0 L 156.25 225.0 L 170.0 222.5 L 183.75 218.75 L 193.75 215.0 L 198.75 210.0 L 198.75 205.0 L 195.0 200.0 L 193.75 198.75 " stroke="black" fill="none" stroke-width="6.0" stroke-linecap="round" stroke-linejoin="round" />
<path d="M 148.75 157.5 L 142.5 161.25 L 140.0 161.25 L 142.5 161.25 L 155.0 161.25 L 172.5 160.0 L 197.5 155.0 L 220.0 148.75 " stroke="black" fill="none" stroke-width="6.0" stroke-linecap="round" stroke-linejoin="round" />
</svg>