<svg xmlns="http://www.w3.org/2000/svg" width="300" height="300" viewBox="0 0 300 300">
<path d="M 82.5 111.25 L 82.5 111.25 L 80.0 113.75 L 78.75 115.0 L 77.5 118.75 L 76.25 126.25 L 76.25 137.5 L 77.5 153.75 L 80.0 171.25 L 80.0 180.0 L 81.25 203.75 L 83.75 215.0 L 86.25 221.25 L 88.75 226.25 L 93.75 228.75 L 97.5 230.0 L 103.75 230.0 L 112.5 226.25 L 121.25 220.0 L 130.0 212.5 L 137.5 201.25 L 142.5 190.0 L 145.0 177.5 L 146.25 163.75 L 147.5 150.0 L 150.0 136.25 L 152.5 125.0 L 153.75 117.5 L 155.0 113.75 L 155.0 113.75 L 155.0 113.75 L 155.0 113.75 L 153.75 116.25 L 152.5 123.75 L 151.25 135.0 L 150.0 146.25 L 148.75 158.75 L 148.75 173.75 L 148.75 188.75 L 148.75 197.5 L 151.25 203.75 L 152.5 210.0 L 155.0 213.75 L 157.5 217.5 L 161.25 220.0 L 165.0 221.25 L 168.75 222.5 L 173.75 222.5 L 178.75 222.5 L 183.75 218.75 L 190.0 215.0 L 195.0 212.5 L 200.0 210.0 L 205.0 207.5 L 208.75 203.75 L 212.5 198.75 L 216.25 192.5 L 218.75 185.0 L 222.5 175.0 L 225.0 162.5 L 227.5 148.75 L 228.75 136.25 L 230.0 125.0 L 230.0 116.25 L 228.75 111.25 L 228.75 106.25 L 227.5 103.75 L 226.25 103.75 L 226.25 103.75 L 226.25 103.75 L 226.25 105.0 L 226.25 111.25 L 225.0 120.0 L 223.75 133.75 L 223.75 148.75 L 222.5 165.0 L 222.5 182.5 L 222.5 195.0 L 222.5 205.0 L 221.25 215.0 L 221.25 225.0 L 221.25 235.0 L 221.25 243.75 L 221.25 247.5 L 221.25 248.75 L 218.75 248.75 L 217.5 248.75 L 215.0 250.0 L 210.0 250.0 L 206.25 251.25 L 200.0 252.5 L 193.75 255.0 L 187.5 257.5 L 181.25 260.0 L 176.25 263.75 L 170.0 266.25 L 165.0 267.5 L 158.75 268.75 L 152.5 270.0 L 147.5 271.25 L 141.25 271.25 L 136.25 271.25 L 131.25 271.25 L 125.0 270.0 L 120.0 270.0 L 113.75 268.75 L 107.5 268.75 L 101.25 267.5 L 97.5 266.25 L 93.75 266.25 L 91.25 265.0 L 90.0 265.0 L 88.75 265.0 L 87.5 265.0 L 86.25 265.0 L 85.0 266.25 L 83.75 266.25 L 82.5 266.25 L 82.5 266.25 L 82.5 266.25 L 82.5 266.25 " stroke="black" fill="none" stroke-width="6.0" stroke-linecap="round" stroke-linejoin="round" />
</svg>