<svg xmlns="http://www.w3.org/2000/svg" width="300" height="300" viewBox="0 0 300 300">
<path d="M 97.5 137.5 L 97.5 137.5 L 97.5 136.25 L 96.25 136.25 L 96.25 135.0 L 96.25 136.25 L 96.25 141.25 L 96.25 151.25 L 97.5 163.75 L 98.75 180.0 L 98.75 193.75 L 101.25 205.0 L 105.0 212.5 L 110.0 215.0 L 116.25 217.5 L 125.0 220.0 L 135.0 221.25 L 146.25 221.25 L 155.0 221.25 L 163.75 218.75 L 172.5 215.0 L 180.0 211.25 L 186.25 207.5 L 191.25 202.5 L 195.0 197.5 L 197.5 192.5 L 200.0 186.25 L 202.5 180.0 L 203.75 172.5 L 203.75 162.5 L 205.0 151.25 L 205.0 142.5 L 205.0 135.0 L 203.75 128.75 L 202.5 127.5 L 202.5 126.25 L 201.25 125.0 L 201.25 125.0 L 201.25 125.0 L 198.75 125.0 L 197.5 127.5 " stroke="black" fill="none" stroke-width="6.0" stroke-linecap="round" stroke-linejoin="round" />
<path d="M 153.75 96.25 L 153.75 96.25 L 151.25 96.25 L 150.0 95.0 L 148.75 96.25 L 148.75 112.5 L 150.0 150.0 L 151.25 201.25 L 150.0 241.25 L 147.5 267.5 L 147.5 287.5 L 147.5 293.75 L 147.5 295.0 L 147.5 295.0 L 147.5 290.0 L 148.75 276.25 L 148.75 272.5 " stroke="black" fill="none" stroke-width="6.0" stroke-linecap="round" stroke-linejoin="round" />
</svg>