<svg xmlns="http://www.w3.org/2000/svg" width="300" height="300" viewBox="0 0 300 300">
<path d="M 150.0 70.0 L 151.25 66.25 L 151.25 63.75 L 152.5 62.5 L 153.75 62.5 L 152.5 68.75 L 145.0 83.75 L 132.5 100.0 " stroke="black" fill="none" stroke-width="6.0" stroke-linecap="round" stroke-linejoin="round" />
<path d="M 117.5 117.5 L 117.5 117.5 L 116.25 116.25 L 116.25 117.5 L 116.25 130.0 L 116.25 160.0 L 117.5 196.25 L 117.5 216.25 L 117.5 225.0 L 117.5 223.75 " stroke="black" fill="none" stroke-width="6.0" stroke-linecap="round" stroke-linejoin="round" />
<path d="M 122.5 166.25 L 121.25 167.5 L 118.75 167.5 L 117.5 167.5 L 116.25 167.5 L 116.25 167.5 L 116.25 167.5 L 116.25 166.25 L 117.5 163.75 L 118.75 161.25 L 120.0 157.5 L 121.25 153.75 L 122.5 151.25 L 123.75 148.75 L 125.0 146.25 L 126.25 143.75 L 127.5 141.25 L 128.75 138.75 L 130.0 136.25 L 132.5 132.5 L 136.25 128.75 L 140.0 126.25 L 145.0 122.5 L 148.75 120.0 L 152.5 118.75 L 156.25 118.75 L 158.75 118.75 L 163.75 118.75 L 167.5 121.25 L 172.5 125.0 L 176.25 128.75 L 180.0 135.0 L 183.75 141.25 L 185.0 151.25 L 185.0 163.75 L 185.0 181.25 L 185.0 201.25 L 185.0 221.25 L 186.25 241.25 L 187.5 258.75 L 188.75 275.0 L 190.0 291.25 L 191.25 298.75 L 191.25 301.25 L 191.25 301.25 L 191.25 300.0 L 190.0 295.0 L 188.75 288.75 " stroke="black" fill="none" stroke-width="6.0" stroke-linecap="round" stroke-linejoin="round" />
</svg>