<svg xmlns="http://www.w3.org/2000/svg" width="300" height="300" viewBox="0 0 300 300">
<path d="M 144.99999999999972 191.25 L 143.74999999999972 191.25 L 141.24999999999972 191.25 L 138.74999999999972 190.0 L 137.49999999999972 188.75 L 137.49999999999972 187.5 L 137.49999999999972 186.25 L 141.24999999999972 185.0 L 144.99999999999972 185.0 L 147.49999999999972 186.25 L 148.74999999999972 187.5 L 149.99999999999972 190.0 L 148.74999999999972 192.5 L 144.99999999999972 193.75 L 139.99999999999972 195.0 L 137.49999999999972 192.5 L 137.49999999999972 188.75 L 137.49999999999972 185.0 L 139.99999999999972 182.5 L 142.49999999999972 182.5 L 144.99999999999972 182.5 L 146.24999999999972 185.0 L 146.24999999999972 188.75 L 144.99999999999972 191.25 L 142.49999999999972 192.5 L 139.99999999999972 192.5 L 138.74999999999972 192.5 L 137.49999999999972 191.25 L 138.74999999999972 188.75 L 142.49999999999972 186.25 L 144.99999999999972 185.0 L 147.49999999999972 185.0 L 147.49999999999972 186.25 L 147.49999999999972 188.75 L 144.99999999999972 191.25 L 141.24999999999972 192.5 L 137.49999999999972 192.5 L 133.74999999999972 190.0 L 132.49999999999972 185.0 L 132.49999999999972 176.25 L 137.49999999999972 165.0 L 144.99999999999972 153.75 L 153.74999999999972 146.25 L 161.24999999999972 143.75 L 163.74999999999972 143.75 " stroke="black" fill="none" stroke-width="6.0" stroke-linecap="round" stroke-linejoin="round" />
</svg>