<svg xmlns="http://www.w3.org/2000/svg" width="300" height="300" viewBox="0 0 300 300">
<path d="M 133.74999999999972 146.25 L 133.74999999999972 146.25 L 133.74999999999972 145.0 L 132.49999999999972 142.5 L 132.49999999999972 140.0 L 132.49999999999972 136.25 L 132.49999999999972 132.5 L 131.24999999999972 128.75 L 128.74999999999972 125.0 L 122.49999999999972 122.5 L 114.99999999999972 121.25 L 106.24999999999972 122.5 L 98.74999999999972 126.25 L 93.74999999999972 132.5 L 92.49999999999972 137.5 L 92.49999999999972 143.75 L 96.24999999999972 150.0 L 102.49999999999972 156.25 L 112.49999999999972 160.0 L 123.74999999999972 161.25 L 133.74999999999972 161.25 L 142.49999999999972 157.5 L 152.49999999999972 150.0 L 158.74999999999972 141.25 L 166.24999999999972 132.5 L 171.24999999999972 123.75 L 173.74999999999972 118.75 L 173.74999999999972 116.25 L 173.74999999999972 116.25 L 172.49999999999972 117.5 L 172.49999999999972 117.5 L 172.49999999999972 118.75 L 172.49999999999972 122.5 L 172.49999999999972 127.5 L 172.49999999999972 135.0 L 172.49999999999972 150.0 L 173.74999999999972 172.5 L 173.74999999999972 196.25 L 173.74999999999972 208.75 L 171.24999999999972 218.75 L 167.49999999999972 226.25 L 164.99999999999972 230.0 L 159.99999999999972 232.5 L 156.24999999999972 235.0 L 151.24999999999972 236.25 L 148.74999999999972 236.25 " stroke="black" fill="none" stroke-width="6.0" stroke-linecap="round" stroke-linejoin="round" />
</svg>