<svg xmlns="http://www.w3.org/2000/svg" width="300" height="300" viewBox="0 0 300 300">
<path d="M 111.24999999999972 175.0 L 111.24999999999972 173.75 L 109.99999999999972 173.75 L 109.99999999999972 173.75 L 111.24999999999972 173.75 L 113.74999999999972 173.75 L 116.24999999999972 175.0 L 117.49999999999972 176.25 L 116.24999999999972 178.75 L 112.49999999999972 180.0 L 108.74999999999972 180.0 L 106.24999999999972 180.0 L 104.99999999999972 178.75 L 104.99999999999972 175.0 L 107.49999999999972 173.75 L 109.99999999999972 173.75 L 112.49999999999972 173.75 L 112.49999999999972 176.25 L 112.49999999999972 178.75 L 111.24999999999972 181.25 L 108.74999999999972 181.25 L 107.49999999999972 181.25 L 106.24999999999972 177.5 L 106.24999999999972 173.75 L 107.49999999999972 171.25 L 109.99999999999972 170.0 L 112.49999999999972 171.25 L 113.74999999999972 175.0 L 113.74999999999972 176.25 " stroke="black" fill="none" stroke-width="6.0" stroke-linecap="round" stroke-linejoin="round" />
<path d="M 151.24999999999972 173.75 L 149.99999999999972 173.75 L 148.74999999999972 173.75 L 147.49999999999972 173.75 L 148.74999999999972 173.75 L 152.49999999999972 173.75 L 154.99999999999972 176.25 L 154.99999999999972 180.0 L 156.24999999999972 182.5 L 153.74999999999972 185.0 L 149.99999999999972 186.25 L 147.49999999999972 186.25 L 144.99999999999972 186.25 L 144.99999999999972 183.75 L 144.99999999999972 181.25 L 147.49999999999972 180.0 L 149.99999999999972 180.0 L 151.24999999999972 180.0 L 152.49999999999972 182.5 L 152.49999999999972 185.0 L 151.24999999999972 186.25 L 149.99999999999972 186.25 L 148.74999999999972 185.0 L 147.49999999999972 181.25 L 147.49999999999972 178.75 L 148.74999999999972 175.0 L 149.99999999999972 175.0 L 152.49999999999972 175.0 L 153.74999999999972 177.5 " stroke="black" fill="none" stroke-width="6.0" stroke-linecap="round" stroke-linejoin="round" />
<path d="M 193.74999999999972 175.0 L 193.74999999999972 175.0 L 192.49999999999972 176.25 L 192.49999999999972 177.5 L 192.49999999999972 178.75 L 193.74999999999972 181.25 L 194.99999999999972 183.75 L 194.99999999999972 185.0 L 193.74999999999972 187.5 L 189.99999999999972 187.5 L 187.49999999999972 187.5 L 186.24999999999972 185.0 L 186.24999999999972 181.25 L 189.99999999999972 177.5 L 193.74999999999972 176.25 L 197.49999999999972 175.0 L 198.74999999999972 177.5 L 199.99999999999972 181.25 L 198.74999999999972 183.75 L 196.24999999999972 186.25 L 193.74999999999972 187.5 L 191.24999999999972 187.5 L 189.99999999999972 185.0 L 189.99999999999972 183.75 L 191.24999999999972 181.25 L 193.74999999999972 181.25 L 196.24999999999972 181.25 L 196.24999999999972 182.5 L 196.24999999999972 183.75 " stroke="black" fill="none" stroke-width="6.0" stroke-linecap="round" stroke-linejoin="round" />
<path d="M 242.49999999999972 177.5 L 242.49999999999972 177.5 L 238.74999999999972 177.5 L 238.74999999999972 177.5 L 238.74999999999972 178.75 L 242.49999999999972 180.0 L 244.99999999999972 182.5 L 244.99999999999972 185.0 L 243.74999999999972 187.5 L 239.99999999999972 187.5 L 234.99999999999972 187.5 L 232.49999999999972 186.25 L 231.24999999999972 183.75 L 232.49999999999972 178.75 L 236.24999999999972 176.25 L 239.99999999999972 175.0 L 242.49999999999972 176.25 L 243.74999999999972 180.0 L 243.74999999999972 183.75 L 241.24999999999972 186.25 L 237.49999999999972 187.5 L 234.99999999999972 188.75 L 232.49999999999972 187.5 L 232.49999999999972 185.0 L 233.74999999999972 183.75 L 237.49999999999972 182.5 L 239.99999999999972 182.5 L 242.49999999999972 182.5 L 242.49999999999972 185.0 L 242.49999999999972 186.25 L 241.24999999999972 187.5 L 238.74999999999972 187.5 L 237.49999999999972 187.5 " stroke="black" fill="none" stroke-width="6.0" stroke-linecap="round" stroke-linejoin="round" />
</svg>