<svg xmlns="http://www.w3.org/2000/svg" width="300" height="300" viewBox="0 0 300 300">
<path d="M 190.0 108.75 L 190.0 108.75 L 187.5 108.75 L 186.25 107.5 L 185.0 107.5 L 185.0 106.25 L 187.5 105.0 L 191.25 105.0 L 195.0 105.0 L 197.5 106.25 L 198.75 110.0 L 197.5 113.75 L 192.5 117.5 L 188.75 120.0 L 185.0 120.0 L 183.75 117.5 L 185.0 112.5 L 188.75 107.5 L 192.5 105.0 L 196.25 103.75 L 197.5 105.0 L 198.75 108.75 L 197.5 112.5 L 196.25 113.75 L 192.5 115.0 L 191.25 115.0 L 190.0 113.75 L 190.0 110.0 L 191.25 107.5 L 193.75 106.25 L 196.25 106.25 L 197.5 106.25 L 198.75 107.5 L 198.75 110.0 L 198.75 112.5 L 195.0 113.75 L 191.25 113.75 L 186.25 113.75 L 182.5 110.0 L 182.5 103.75 L 182.5 95.0 L 188.75 85.0 L 195.0 77.5 L 202.5 72.5 L 206.25 72.5 L 206.25 72.5 " stroke="black" fill="none" stroke-width="6.0" stroke-linecap="round" stroke-linejoin="round" />
<path d="M 227.5 110.0 L 227.5 110.0 L 227.5 110.0 L 227.5 110.0 L 227.5 110.0 L 228.75 110.0 L 230.0 110.0 L 232.5 110.0 L 233.75 110.0 L 233.75 111.25 L 231.25 113.75 L 227.5 115.0 L 223.75 115.0 L 222.5 113.75 L 223.75 110.0 L 226.25 106.25 L 230.0 105.0 L 233.75 105.0 L 237.5 106.25 L 238.75 110.0 L 237.5 113.75 L 235.0 115.0 L 231.25 116.25 L 228.75 116.25 L 226.25 116.25 L 226.25 113.75 L 228.75 111.25 L 232.5 110.0 L 235.0 110.0 L 237.5 110.0 L 238.75 111.25 L 240.0 113.75 L 237.5 115.0 L 233.75 117.5 L 230.0 118.75 L 226.25 118.75 L 225.0 116.25 L 225.0 111.25 L 226.25 103.75 L 231.25 95.0 L 237.5 87.5 L 246.25 80.0 L 250.0 77.5 " stroke="black" fill="none" stroke-width="6.0" stroke-linecap="round" stroke-linejoin="round" />
</svg>