<svg xmlns="http://www.w3.org/2000/svg" width="300" height="300" viewBox="0 0 300 300">
<path d="M 65.0 81.25 L 66.25 81.25 L 67.5 80.0 L 68.75 78.75 L 71.25 78.75 L 72.5 78.75 L 73.75 78.75 L 73.75 80.0 L 73.75 81.25 L 71.25 82.5 L 65.0 83.75 L 61.25 83.75 L 58.75 83.75 L 57.5 82.5 L 57.5 80.0 L 61.25 77.5 L 65.0 76.25 L 70.0 76.25 L 72.5 78.75 L 73.75 82.5 L 73.75 85.0 L 70.0 87.5 L 66.25 87.5 L 62.5 87.5 L 61.25 86.25 L 61.25 82.5 L 62.5 78.75 L 66.25 76.25 L 70.0 75.0 L 72.5 76.25 L 73.75 80.0 L 73.75 82.5 L 72.5 85.0 L 67.5 86.25 L 63.75 86.25 L 58.75 86.25 L 56.25 86.25 L 56.25 83.75 L 58.75 81.25 L 63.75 78.75 L 70.0 78.75 L 76.25 78.75 L 83.75 85.0 L 86.25 95.0 L 86.25 108.75 L 78.75 120.0 L 68.75 126.25 L 55.0 130.0 L 48.75 128.75 " stroke="black" fill="none" stroke-width="6.0" stroke-linecap="round" stroke-linejoin="round" />
<path d="M 105.0 76.25 L 105.0 75.0 L 106.25 75.0 L 106.25 75.0 L 106.25 75.0 L 107.5 75.0 L 107.5 76.25 L 108.75 77.5 L 107.5 80.0 L 105.0 81.25 L 101.25 81.25 L 98.75 81.25 L 98.75 78.75 L 98.75 75.0 L 103.75 71.25 L 107.5 70.0 L 111.25 70.0 L 113.75 72.5 L 113.75 77.5 L 111.25 81.25 L 107.5 83.75 L 105.0 83.75 L 102.5 83.75 L 102.5 81.25 L 103.75 77.5 L 106.25 75.0 L 110.0 73.75 L 112.5 72.5 L 113.75 73.75 L 113.75 76.25 L 111.25 78.75 L 108.75 81.25 L 106.25 81.25 L 103.75 81.25 L 102.5 81.25 L 102.5 78.75 L 106.25 76.25 L 111.25 75.0 L 117.5 75.0 L 123.75 82.5 L 125.0 96.25 L 120.0 110.0 L 107.5 122.5 L 105.0 125.0 " stroke="black" fill="none" stroke-width="6.0" stroke-linecap="round" stroke-linejoin="round" />
</svg>