<svg xmlns="http://www.w3.org/2000/svg" width="300" height="300" viewBox="0 0 300 300">
<path d="M 62.5 90.0 L 62.5 90.0 L 62.5 90.0 L 61.25 90.0 L 60.0 90.0 L 60.0 87.5 L 60.0 86.25 L 60.0 83.75 L 61.25 81.25 L 65.0 80.0 L 68.75 78.75 L 72.5 78.75 L 73.75 81.25 L 73.75 83.75 L 71.25 87.5 L 66.25 88.75 L 62.5 88.75 L 60.0 88.75 L 58.75 87.5 L 60.0 83.75 L 63.75 82.5 L 68.75 81.25 L 71.25 81.25 L 72.5 82.5 L 72.5 85.0 L 71.25 87.5 L 68.75 88.75 L 65.0 90.0 L 63.75 90.0 L 63.75 88.75 L 65.0 86.25 L 67.5 85.0 L 70.0 83.75 L 70.0 85.0 L 70.0 87.5 L 67.5 90.0 L 65.0 90.0 L 63.75 90.0 L 62.5 87.5 L 65.0 83.75 L 70.0 81.25 L 76.25 80.0 L 82.5 83.75 L 86.25 93.75 L 85.0 108.75 L 76.25 123.75 L 67.5 131.25 L 53.75 136.25 " stroke="black" fill="none" stroke-width="6.0" stroke-linecap="round" stroke-linejoin="round" />
</svg>