<svg xmlns="http://www.w3.org/2000/svg" width="300" height="300" viewBox="0 0 300 300">
<path d="M 110.0 133.75 L 110.0 132.5 L 110.0 127.5 L 110.0 122.5 L 108.75 116.25 L 108.75 110.0 L 108.75 106.25 L 111.25 106.25 L 115.0 111.25 L 117.5 131.25 L 117.5 158.75 L 118.75 193.75 L 118.75 217.5 L 120.0 227.5 L 120.0 227.5 L 121.25 226.25 L 122.5 222.5 L 125.0 216.25 L 128.75 207.5 L 132.5 197.5 L 138.75 183.75 L 145.0 165.0 L 152.5 145.0 L 156.25 131.25 L 158.75 121.25 L 158.75 115.0 L 158.75 113.75 L 158.75 113.75 L 158.75 113.75 L 158.75 115.0 L 158.75 118.75 L 160.0 132.5 L 162.5 155.0 L 165.0 187.5 L 168.75 216.25 L 175.0 237.5 L 178.75 243.75 L 181.25 245.0 L 182.5 245.0 L 183.75 243.75 L 185.0 237.5 L 187.5 223.75 L 190.0 206.25 L 193.75 181.25 L 198.75 146.25 L 202.5 113.75 L 205.0 91.25 L 205.0 85.0 L 205.0 85.0 L 205.0 86.25 L 205.0 90.0 L 205.0 98.75 L 205.0 101.25 " stroke="black" fill="none" stroke-width="6.0" stroke-linecap="round" stroke-linejoin="round" />
<path d="M 105.0 162.5 L 105.0 163.75 L 101.25 165.0 L 98.75 165.0 L 97.5 165.0 L 101.25 165.0 L 117.5 165.0 L 141.25 165.0 L 171.25 162.5 L 201.25 160.0 L 221.25 157.5 L 231.25 157.5 L 232.5 157.5 L 232.5 157.5 L 231.25 157.5 L 230.0 157.5 L 226.25 156.25 " stroke="black" fill="none" stroke-width="6.0" stroke-linecap="round" stroke-linejoin="round" />
</svg>