<svg xmlns="http://www.w3.org/2000/svg" width="300" height="300" viewBox="0 0 300 300">
<path d="M 108.75 96.25 L 108.75 96.25 L 108.75 96.25 L 108.75 96.25 L 108.75 96.25 L 108.75 96.25 L 108.75 96.25 L 108.75 98.75 L 108.75 112.5 L 108.75 143.75 L 107.5 171.25 L 107.5 186.25 L 107.5 188.75 L 107.5 188.75 L 107.5 187.5 L 108.75 183.75 L 108.75 175.0 " stroke="black" fill="none" stroke-width="6.0" stroke-linecap="round" stroke-linejoin="round" />
<path d="M 106.25 218.75 L 106.25 218.75 L 106.25 218.75 L 106.25 218.75 L 106.25 218.75 L 106.25 218.75 L 107.5 220.0 L 108.75 221.25 L 108.75 222.5 L 108.75 225.0 L 106.25 227.5 L 103.75 228.75 L 101.25 228.75 L 100.0 228.75 L 100.0 225.0 L 101.25 222.5 L 103.75 221.25 L 107.5 221.25 L 110.0 222.5 L 111.25 226.25 L 110.0 231.25 L 107.5 233.75 L 103.75 235.0 L 101.25 235.0 L 98.75 233.75 L 98.75 230.0 L 100.0 225.0 L 102.5 222.5 L 105.0 221.25 L 107.5 221.25 L 108.75 221.25 L 108.75 223.75 L 107.5 226.25 L 105.0 228.75 L 103.75 228.75 L 102.5 230.0 L 102.5 228.75 " stroke="black" fill="none" stroke-width="6.0" stroke-linecap="round" stroke-linejoin="round" />
<path d="M 162.5 112.5 L 161.25 110.0 L 157.5 107.5 L 156.25 105.0 L 155.0 102.5 L 158.75 98.75 L 168.75 95.0 L 180.0 92.5 L 193.75 92.5 L 202.5 97.5 L 206.25 107.5 L 206.25 122.5 L 198.75 138.75 L 188.75 151.25 L 181.25 163.75 L 175.0 176.25 L 173.75 188.75 L 175.0 197.5 L 178.75 202.5 L 182.5 203.75 L 185.0 205.0 L 187.5 206.25 L 187.5 206.25 L 187.5 206.25 L 187.5 205.0 " stroke="black" fill="none" stroke-width="6.0" stroke-linecap="round" stroke-linejoin="round" />
<path d="M 173.75 233.75 L 173.75 233.75 L 173.75 232.5 L 173.75 231.25 L 173.75 231.25 L 175.0 230.0 L 177.5 230.0 L 180.0 231.25 L 180.0 233.75 L 178.75 235.0 L 176.25 236.25 L 173.75 236.25 L 171.25 235.0 L 171.25 228.75 L 173.75 222.5 L 177.5 218.75 L 181.25 216.25 L 183.75 217.5 L 185.0 220.0 L 185.0 225.0 L 181.25 230.0 L 177.5 232.5 L 173.75 233.75 L 172.5 233.75 L 171.25 233.75 L 172.5 230.0 L 175.0 227.5 L 178.75 226.25 L 182.5 226.25 L 185.0 227.5 L 185.0 231.25 L 183.75 236.25 L 178.75 238.75 L 175.0 238.75 L 172.5 237.5 " stroke="black" fill="none" stroke-width="6.0" stroke-linecap="round" stroke-linejoin="round" />
<path d="M 178.75 220.0 L 178.75 220.0 L 178.75 221.25 L 177.5 222.5 L 177.5 222.5 L 177.5 222.5 L 177.5 222.5 L 177.5 223.75 L 177.5 223.75 L 177.5 225.0 L 177.5 225.0 L 177.5 226.25 L 177.5 226.25 " stroke="black" fill="none" stroke-width="6.0" stroke-linecap="round" stroke-linejoin="round" />
</svg>