<svg xmlns="http://www.w3.org/2000/svg" width="300" height="300" viewBox="0 0 300 300">
<path d="M 167.5 171.25 L 168.75 168.75 L 170.0 165.0 L 168.75 165.0 L 165.0 166.25 L 156.25 176.25 L 146.25 191.25 L 133.75 210.0 L 125.0 227.5 L 125.0 236.25 L 133.75 238.75 L 150.0 238.75 L 170.0 233.75 L 190.0 227.5 L 201.25 222.5 L 202.5 221.25 L 201.25 221.25 L 197.5 221.25 L 190.0 222.5 L 183.75 222.5 " stroke="black" fill="none" stroke-width="6.0" stroke-linecap="round" stroke-linejoin="round" />
<path d="M 163.75 186.25 L 163.75 183.75 L 162.5 178.75 L 162.5 178.75 L 162.5 181.25 L 163.75 203.75 L 162.5 240.0 L 158.75 271.25 L 156.25 281.25 L 156.25 282.5 L 155.0 276.25 " stroke="black" fill="none" stroke-width="6.0" stroke-linecap="round" stroke-linejoin="round" />
</svg>