<svg xmlns="http://www.w3.org/2000/svg" width="300" height="300" viewBox="0 0 300 300">
<path d="M 166.25 57.5 L 168.75 57.5 L 170.0 57.5 L 171.25 57.5 L 170.0 57.5 L 166.25 60.0 L 161.25 65.0 L 153.75 72.5 L 145.0 82.5 L 136.25 95.0 L 127.5 106.25 L 121.25 117.5 L 121.25 123.75 L 125.0 125.0 L 135.0 125.0 L 147.5 118.75 L 162.5 115.0 L 180.0 111.25 L 192.5 111.25 L 198.75 111.25 L 198.75 111.25 L 197.5 111.25 L 195.0 111.25 L 192.5 107.5 L 190.0 105.0 " stroke="black" fill="none" stroke-width="6.0" stroke-linecap="round" stroke-linejoin="round" />
<path d="M 168.75 60.0 L 168.75 60.0 L 167.5 58.75 L 167.5 60.0 L 167.5 77.5 L 170.0 112.5 L 170.0 146.25 L 170.0 162.5 L 170.0 166.25 L 168.75 166.25 L 166.25 162.5 " stroke="black" fill="none" stroke-width="6.0" stroke-linecap="round" stroke-linejoin="round" />
</svg>