<svg xmlns="http://www.w3.org/2000/svg" width="300" height="300" viewBox="0 0 300 300">
<path d="M 37.5 115.0 L 37.5 113.75 L 36.25 111.25 L 35.0 111.25 L 31.25 112.5 L 27.5 122.5 L 26.25 137.5 L 26.25 151.25 L 32.5 157.5 L 42.5 155.0 L 51.25 145.0 L 58.75 133.75 L 61.25 125.0 L 58.75 118.75 L 51.25 113.75 L 42.5 112.5 L 35.0 116.25 L 31.25 122.5 L 30.0 128.75 L 30.0 131.25 " stroke="black" fill="none" stroke-width="6.0" stroke-linecap="round" stroke-linejoin="round" />
<path d="M 118.75 86.25 L 123.75 81.25 L 123.75 78.75 L 123.75 78.75 L 117.5 83.75 L 106.25 103.75 L 90.0 143.75 L 68.75 197.5 L 50.0 235.0 L 46.25 247.5 L 46.25 248.75 L 48.75 246.25 L 53.75 232.5 " stroke="black" fill="none" stroke-width="6.0" stroke-linecap="round" stroke-linejoin="round" />
<path d="M 122.5 171.25 L 122.5 172.5 L 118.75 176.25 L 113.75 181.25 L 110.0 192.5 L 111.25 203.75 L 120.0 210.0 L 133.75 210.0 L 145.0 200.0 L 151.25 187.5 L 152.5 177.5 L 147.5 170.0 L 135.0 167.5 L 120.0 170.0 L 108.75 176.25 L 105.0 182.5 L 112.5 187.5 L 115.0 187.5 " stroke="black" fill="none" stroke-width="6.0" stroke-linecap="round" stroke-linejoin="round" />
<path d="M 176.25 171.25 L 177.5 171.25 L 178.75 168.75 L 178.75 168.75 L 176.25 175.0 L 171.25 190.0 L 168.75 203.75 L 172.5 215.0 L 185.0 216.25 L 198.75 206.25 L 206.25 192.5 L 208.75 183.75 L 205.0 177.5 L 196.25 176.25 L 183.75 176.25 L 173.75 181.25 L 168.75 185.0 L 172.5 185.0 " stroke="black" fill="none" stroke-width="6.0" stroke-linecap="round" stroke-linejoin="round" />
<path d="M 251.25 177.5 L 250.0 177.5 L 245.0 178.75 L 238.75 181.25 L 232.5 188.75 L 230.0 201.25 L 235.0 212.5 L 248.75 216.25 L 265.0 208.75 L 278.75 193.75 L 286.25 181.25 L 282.5 173.75 L 267.5 170.0 L 251.25 173.75 L 240.0 180.0 L 237.5 186.25 " stroke="black" fill="none" stroke-width="6.0" stroke-linecap="round" stroke-linejoin="round" />
</svg>