<svg xmlns="http://www.w3.org/2000/svg" width="300" height="300" viewBox="0 0 300 300">
<path d="M 218.75 113.75 L 218.75 113.75 L 220.0 113.75 L 221.25 112.5 L 222.5 112.5 L 225.0 111.25 L 228.75 111.25 L 232.5 112.5 L 233.75 115.0 L 232.5 118.75 L 227.5 121.25 L 221.25 123.75 L 217.5 123.75 L 216.25 121.25 L 216.25 117.5 L 220.0 112.5 L 222.5 110.0 L 226.25 108.75 L 228.75 108.75 L 228.75 111.25 L 228.75 115.0 L 227.5 117.5 L 225.0 118.75 L 223.75 118.75 L 222.5 118.75 L 222.5 118.75 L 223.75 117.5 L 227.5 116.25 L 230.0 115.0 L 231.25 113.75 L 232.5 113.75 L 232.5 113.75 L 231.25 115.0 L 228.75 117.5 L 225.0 118.75 L 221.25 118.75 L 217.5 118.75 L 216.25 118.75 L 215.0 117.5 L 213.75 113.75 L 213.75 108.75 L 215.0 101.25 L 222.5 91.25 L 231.25 81.25 L 238.75 76.25 L 242.5 75.0 " stroke="black" fill="none" stroke-width="6.0" stroke-linecap="round" stroke-linejoin="round" />
</svg>