<svg xmlns="http://www.w3.org/2000/svg" width="300" height="300" viewBox="0 0 300 300">
<path d="M 105.0 141.25 L 105.0 141.25 L 105.0 142.5 L 105.0 142.5 L 105.0 142.5 L 111.25 143.75 L 132.5 142.5 L 161.25 137.5 L 187.5 133.75 L 200.0 132.5 L 201.25 131.25 L 201.25 131.25 L 196.25 131.25 L 192.5 131.25 " stroke="black" fill="none" stroke-width="6.0" stroke-linecap="round" stroke-linejoin="round" />
<path d="M 151.25 83.75 L 152.5 82.5 L 152.5 80.0 L 152.5 78.75 L 152.5 77.5 L 152.5 80.0 L 153.75 100.0 L 153.75 146.25 L 153.75 201.25 L 152.5 231.25 L 151.25 245.0 L 150.0 250.0 L 150.0 251.25 L 148.75 251.25 L 147.5 245.0 L 146.25 243.75 " stroke="black" fill="none" stroke-width="6.0" stroke-linecap="round" stroke-linejoin="round" />
</svg>