<svg xmlns="http://www.w3.org/2000/svg" width="300" height="300" viewBox="0 0 300 300">
<path d="M 101.25 101.25 L 101.25 101.25 L 101.25 101.25 L 101.25 100.0 L 101.25 98.75 L 106.25 96.25 L 117.5 93.75 L 132.5 91.25 L 143.75 91.25 L 150.0 93.75 L 151.25 101.25 L 151.25 111.25 L 148.75 122.5 L 143.75 133.75 L 140.0 142.5 L 135.0 153.75 L 131.25 165.0 L 128.75 175.0 L 127.5 183.75 L 127.5 190.0 L 127.5 196.25 L 127.5 202.5 L 128.75 206.25 L 130.0 207.5 L 130.0 207.5 L 131.25 207.5 L 131.25 207.5 L 131.25 207.5 L 131.25 206.25 " stroke="black" fill="none" stroke-width="6.0" stroke-linecap="round" stroke-linejoin="round" />
<path d="M 122.5 238.75 L 122.5 237.5 L 122.5 237.5 L 122.5 236.25 L 122.5 236.25 L 123.75 236.25 L 125.0 236.25 L 125.0 236.25 L 123.75 238.75 L 122.5 238.75 L 120.0 240.0 L 117.5 238.75 L 117.5 236.25 L 117.5 232.5 L 118.75 228.75 L 122.5 227.5 L 125.0 226.25 L 126.25 227.5 L 127.5 230.0 L 127.5 232.5 L 126.25 235.0 L 123.75 236.25 L 122.5 236.25 L 121.25 236.25 L 121.25 236.25 L 122.5 235.0 L 125.0 233.75 L 126.25 233.75 L 127.5 233.75 L 127.5 236.25 L 126.25 237.5 L 123.75 238.75 L 121.25 238.75 L 118.75 238.75 L 118.75 235.0 L 118.75 231.25 L 121.25 228.75 L 125.0 228.75 L 126.25 230.0 L 127.5 233.75 L 127.5 236.25 L 126.25 238.75 L 122.5 240.0 L 120.0 240.0 L 120.0 237.5 " stroke="black" fill="none" stroke-width="6.0" stroke-linecap="round" stroke-linejoin="round" />
<path d="M 192.5 95.0 L 192.5 95.0 L 190.0 95.0 L 188.75 95.0 L 187.5 95.0 L 187.5 95.0 L 187.5 105.0 L 188.75 130.0 L 188.75 160.0 L 188.75 180.0 L 188.75 187.5 L 190.0 190.0 L 191.25 190.0 L 191.25 190.0 " stroke="black" fill="none" stroke-width="6.0" stroke-linecap="round" stroke-linejoin="round" />
<path d="M 195.0 240.0 L 193.75 240.0 L 192.5 238.75 L 191.25 238.75 L 191.25 237.5 L 191.25 237.5 L 192.5 235.0 L 193.75 235.0 L 196.25 233.75 L 197.5 233.75 L 197.5 236.25 L 196.25 238.75 L 193.75 241.25 L 190.0 242.5 L 186.25 242.5 L 185.0 240.0 L 185.0 235.0 L 186.25 231.25 L 190.0 228.75 L 193.75 227.5 L 196.25 228.75 L 198.75 231.25 L 198.75 233.75 L 197.5 237.5 L 193.75 238.75 L 191.25 240.0 L 190.0 240.0 L 188.75 237.5 L 190.0 233.75 L 191.25 231.25 L 193.75 230.0 L 196.25 230.0 L 196.25 232.5 L 196.25 236.25 L 193.75 240.0 L 190.0 241.25 L 187.5 242.5 L 187.5 236.25 " stroke="black" fill="none" stroke-width="6.0" stroke-linecap="round" stroke-linejoin="round" />
</svg>