<svg xmlns="http://www.w3.org/2000/svg" width="300" height="300" viewBox="0 0 300 300">
<path d="M 73.75 227.5 L 73.75 227.5 L 76.25 227.5 L 77.5 228.75 L 77.5 230.0 L 78.75 232.5 L 78.75 235.0 L 76.25 236.25 L 73.75 236.25 L 70.0 236.25 L 67.5 233.75 L 66.25 230.0 L 67.5 226.25 L 71.25 222.5 L 77.5 221.25 L 82.5 222.5 L 85.0 227.5 L 85.0 233.75 L 82.5 237.5 L 77.5 238.75 L 73.75 238.75 L 70.0 237.5 L 68.75 235.0 L 68.75 230.0 L 71.25 226.25 L 75.0 223.75 L 78.75 223.75 L 81.25 227.5 L 82.5 232.5 L 81.25 236.25 L 77.5 238.75 L 73.75 238.75 L 70.0 237.5 L 68.75 235.0 L 68.75 231.25 L 70.0 230.0 L 72.5 230.0 L 75.0 232.5 " stroke="black" fill="none" stroke-width="6.0" stroke-linecap="round" stroke-linejoin="round" />
<path d="M 148.75 230.0 L 148.75 230.0 L 148.75 230.0 L 147.5 228.75 L 147.5 227.5 L 147.5 227.5 L 151.25 226.25 L 156.25 226.25 L 160.0 230.0 L 161.25 233.75 L 161.25 236.25 L 156.25 238.75 L 151.25 240.0 L 147.5 238.75 L 146.25 236.25 L 145.0 232.5 L 147.5 227.5 L 150.0 225.0 L 153.75 223.75 L 156.25 223.75 L 157.5 227.5 L 157.5 231.25 L 153.75 235.0 L 151.25 236.25 L 148.75 236.25 L 147.5 236.25 L 147.5 233.75 L 148.75 230.0 L 151.25 227.5 L 153.75 227.5 L 155.0 227.5 L 156.25 231.25 L 156.25 235.0 L 153.75 237.5 L 151.25 238.75 L 148.75 238.75 L 147.5 235.0 L 147.5 232.5 L 147.5 232.5 " stroke="black" fill="none" stroke-width="6.0" stroke-linecap="round" stroke-linejoin="round" />
<path d="M 233.75 236.25 L 231.25 236.25 L 227.5 236.25 L 225.0 236.25 L 222.5 236.25 L 222.5 233.75 L 222.5 232.5 L 227.5 230.0 L 232.5 228.75 L 237.5 228.75 L 241.25 230.0 L 242.5 233.75 L 242.5 237.5 L 237.5 241.25 L 231.25 243.75 L 226.25 243.75 L 222.5 242.5 L 221.25 237.5 L 222.5 232.5 L 226.25 228.75 L 231.25 227.5 L 235.0 226.25 L 237.5 226.25 L 238.75 228.75 L 238.75 233.75 L 235.0 237.5 L 230.0 240.0 L 226.25 241.25 L 223.75 241.25 L 223.75 241.25 L 223.75 237.5 L 226.25 235.0 L 230.0 232.5 L 231.25 232.5 L 232.5 232.5 L 232.5 235.0 L 231.25 237.5 L 226.25 240.0 L 222.5 240.0 L 220.0 240.0 " stroke="black" fill="none" stroke-width="6.0" stroke-linecap="round" stroke-linejoin="round" />
</svg>