<svg xmlns="http://www.w3.org/2000/svg" width="300" height="300" viewBox="0 0 300 300">
<path d="M 93.75 156.25 L 91.25 156.25 L 88.75 156.25 L 87.5 156.25 L 86.25 156.25 L 86.25 156.25 L 86.25 155.0 L 87.5 155.0 L 92.5 155.0 L 98.75 155.0 L 116.25 155.0 L 136.25 155.0 L 157.5 156.25 L 178.75 155.0 L 196.25 152.5 L 205.0 150.0 L 207.5 150.0 L 207.5 150.0 L 207.5 150.0 L 206.25 150.0 L 202.5 151.25 L 198.75 151.25 " stroke="black" fill="none" stroke-width="6.0" stroke-linecap="round" stroke-linejoin="round" />
<path d="M 151.25 92.5 L 151.25 92.5 L 150.0 92.5 L 148.75 92.5 L 148.75 92.5 L 147.5 92.5 L 148.75 103.75 L 152.5 137.5 L 153.75 187.5 L 153.75 218.75 L 152.5 242.5 L 152.5 242.5 L 152.5 241.25 L 152.5 233.75 L 151.25 228.75 " stroke="black" fill="none" stroke-width="6.0" stroke-linecap="round" stroke-linejoin="round" />
<path d="M 102.5 103.75 L 102.5 103.75 L 101.25 103.75 L 101.25 103.75 L 101.25 103.75 L 101.25 103.75 L 101.25 103.75 L 102.5 103.75 L 103.75 105.0 L 103.75 107.5 L 103.75 110.0 L 101.25 111.25 L 98.75 111.25 L 97.5 111.25 L 96.25 107.5 L 97.5 105.0 L 100.0 102.5 L 102.5 101.25 L 103.75 102.5 L 105.0 106.25 L 105.0 108.75 L 103.75 112.5 L 101.25 113.75 L 98.75 113.75 L 96.25 113.75 L 96.25 111.25 L 96.25 107.5 L 101.25 103.75 L 105.0 101.25 L 107.5 101.25 L 108.75 102.5 L 107.5 107.5 L 103.75 111.25 L 101.25 112.5 L 101.25 112.5 " stroke="black" fill="none" stroke-width="6.0" stroke-linecap="round" stroke-linejoin="round" />
<path d="M 200.0 100.0 L 200.0 101.25 L 200.0 102.5 L 200.0 102.5 L 200.0 102.5 L 200.0 103.75 L 198.75 103.75 L 196.25 105.0 L 192.5 105.0 L 190.0 105.0 L 188.75 103.75 L 188.75 100.0 L 192.5 97.5 L 197.5 95.0 L 201.25 95.0 L 203.75 96.25 L 205.0 98.75 L 205.0 102.5 L 202.5 105.0 L 198.75 106.25 L 195.0 106.25 L 192.5 105.0 L 192.5 102.5 L 193.75 100.0 L 196.25 98.75 L 198.75 97.5 L 201.25 97.5 L 202.5 100.0 L 201.25 102.5 L 200.0 105.0 L 196.25 107.5 L 195.0 107.5 L 195.0 105.0 L 195.0 102.5 L 196.25 100.0 L 198.75 98.75 L 198.75 98.75 " stroke="black" fill="none" stroke-width="6.0" stroke-linecap="round" stroke-linejoin="round" />
<path d="M 103.75 203.75 L 103.75 205.0 L 101.25 207.5 L 98.75 207.5 L 97.5 207.5 L 97.5 207.5 L 98.75 207.5 L 101.25 206.25 L 103.75 206.25 L 105.0 206.25 L 105.0 210.0 L 103.75 213.75 L 100.0 216.25 L 96.25 218.75 L 93.75 218.75 L 92.5 216.25 L 92.5 212.5 L 96.25 208.75 L 98.75 205.0 L 102.5 203.75 L 105.0 203.75 L 106.25 205.0 L 106.25 208.75 L 102.5 211.25 L 98.75 213.75 L 96.25 213.75 L 95.0 213.75 L 95.0 212.5 L 95.0 211.25 L 96.25 208.75 L 97.5 208.75 L 100.0 208.75 L 100.0 208.75 L 101.25 211.25 L 101.25 213.75 L 98.75 215.0 L 98.75 216.25 L 97.5 216.25 L 97.5 216.25 L 97.5 215.0 L 100.0 213.75 L 101.25 212.5 L 102.5 212.5 " stroke="black" fill="none" stroke-width="6.0" stroke-linecap="round" stroke-linejoin="round" />
<path d="M 201.25 207.5 L 200.0 207.5 L 198.75 207.5 L 196.25 206.25 L 195.0 206.25 L 195.0 205.0 L 196.25 203.75 L 200.0 203.75 L 202.5 203.75 L 203.75 205.0 L 203.75 208.75 L 202.5 211.25 L 200.0 212.5 L 197.5 213.75 L 195.0 213.75 L 193.75 210.0 L 193.75 206.25 L 195.0 203.75 L 197.5 202.5 L 200.0 201.25 L 202.5 201.25 L 202.5 205.0 L 202.5 207.5 L 200.0 211.25 L 196.25 212.5 L 193.75 213.75 L 192.5 212.5 L 192.5 210.0 L 193.75 206.25 L 197.5 203.75 L 200.0 203.75 L 202.5 203.75 L 202.5 205.0 L 202.5 207.5 L 200.0 208.75 " stroke="black" fill="none" stroke-width="6.0" stroke-linecap="round" stroke-linejoin="round" />
</svg>