<svg xmlns="http://www.w3.org/2000/svg" width="300" height="300" viewBox="0 0 300 300">
<path d="M 145.0 178.75 L 143.75 178.75 L 140.0 176.25 L 137.5 172.5 L 137.5 167.5 L 138.75 162.5 L 142.5 157.5 L 148.75 156.25 L 155.0 155.0 L 160.0 160.0 L 161.25 167.5 L 160.0 176.25 L 156.25 182.5 L 150.0 185.0 L 145.0 185.0 L 138.75 181.25 L 136.25 173.75 L 135.0 165.0 L 137.5 157.5 L 142.5 152.5 L 148.75 151.25 L 153.75 152.5 L 156.25 157.5 L 157.5 165.0 L 156.25 171.25 L 153.75 175.0 L 150.0 176.25 L 146.25 176.25 L 143.75 172.5 L 143.75 166.25 L 145.0 160.0 L 148.75 156.25 L 152.5 155.0 L 156.25 157.5 L 157.5 165.0 L 156.25 173.75 L 153.75 180.0 L 148.75 182.5 L 145.0 182.5 L 141.25 180.0 L 140.0 173.75 L 140.0 167.5 L 142.5 162.5 L 146.25 160.0 L 150.0 160.0 L 152.5 163.75 L 152.5 167.5 L 152.5 172.5 L 151.25 175.0 L 148.75 176.25 L 146.25 176.25 L 146.25 173.75 L 146.25 168.75 L 148.75 163.75 L 152.5 161.25 L 155.0 161.25 L 156.25 165.0 L 156.25 170.0 L 153.75 175.0 L 151.25 178.75 L 148.75 178.75 L 147.5 177.5 L 146.25 173.75 L 146.25 168.75 L 148.75 166.25 L 150.0 165.0 L 151.25 165.0 L 152.5 165.0 L 152.5 167.5 L 152.5 170.0 L 152.5 171.25 L 151.25 171.25 L 151.25 171.25 " stroke="black" fill="none" stroke-width="6.0" stroke-linecap="round" stroke-linejoin="round" />
</svg>