<svg xmlns="http://www.w3.org/2000/svg" width="300" height="300" viewBox="0 0 300 300">
<path d="M 133.75 77.5 L 133.75 77.5 L 133.75 75.0 L 133.75 72.5 L 133.75 71.25 L 133.75 71.25 L 133.75 71.25 L 133.75 76.25 L 133.75 95.0 L 133.75 130.0 L 132.5 172.5 L 132.5 207.5 L 132.5 230.0 L 132.5 248.75 L 132.5 260.0 L 132.5 262.5 L 132.5 263.75 L 132.5 263.75 L 132.5 262.5 L 132.5 257.5 L 132.5 250.0 L 132.5 245.0 " stroke="black" fill="none" stroke-width="6.0" stroke-linecap="round" stroke-linejoin="round" />
<path d="M 162.5 68.75 L 165.0 68.75 L 166.25 68.75 L 166.25 68.75 L 166.25 68.75 L 166.25 72.5 L 167.5 87.5 L 167.5 123.75 L 166.25 170.0 L 166.25 207.5 L 166.25 231.25 L 167.5 252.5 L 168.75 265.0 L 170.0 275.0 L 170.0 277.5 L 170.0 277.5 L 170.0 273.75 L 165.0 265.0 L 163.75 262.5 " stroke="black" fill="none" stroke-width="6.0" stroke-linecap="round" stroke-linejoin="round" />
</svg>