<svg xmlns="http://www.w3.org/2000/svg" width="300" height="300" viewBox="0 0 300 300">
<path d="M 145.0 161.25 L 145.0 161.25 L 145.0 160.0 L 145.0 157.5 L 145.0 156.25 L 146.25 155.0 L 148.75 152.5 L 153.75 152.5 L 158.75 153.75 L 161.25 158.75 L 161.25 167.5 L 160.0 173.75 L 155.0 177.5 L 150.0 178.75 L 145.0 178.75 L 140.0 175.0 L 138.75 168.75 L 138.75 162.5 L 142.5 156.25 L 146.25 151.25 L 151.25 151.25 L 156.25 152.5 L 160.0 157.5 L 161.25 165.0 L 161.25 172.5 L 156.25 178.75 L 151.25 181.25 L 147.5 181.25 L 143.75 176.25 L 143.75 170.0 L 145.0 162.5 L 147.5 156.25 L 152.5 152.5 L 157.5 152.5 L 161.25 156.25 L 162.5 162.5 L 162.5 170.0 L 153.75 177.5 L 148.75 177.5 L 146.25 173.75 L 145.0 167.5 L 145.0 162.5 L 148.75 157.5 L 152.5 156.25 L 156.25 156.25 L 158.75 158.75 L 160.0 162.5 L 158.75 167.5 L 156.25 170.0 L 152.5 171.25 L 150.0 171.25 L 147.5 170.0 L 146.25 167.5 L 147.5 165.0 L 148.75 162.5 L 151.25 162.5 L 153.75 162.5 L 155.0 166.25 L 155.0 168.75 L 153.75 171.25 L 151.25 172.5 L 150.0 172.5 L 148.75 171.25 L 148.75 168.75 L 148.75 166.25 L 150.0 166.25 L 151.25 165.0 L 152.5 165.0 L 152.5 167.5 L 152.5 168.75 L 152.5 168.75 L 151.25 170.0 L 150.0 170.0 L 150.0 168.75 L 150.0 167.5 L 151.25 166.25 L 152.5 165.0 L 153.75 165.0 L 153.75 166.25 L 153.75 168.75 L 153.75 170.0 L 152.5 171.25 L 151.25 172.5 L 150.0 172.5 L 150.0 171.25 L 150.0 170.0 L 150.0 168.75 L 150.0 166.25 L 151.25 165.0 " stroke="black" fill="none" stroke-width="6.0" stroke-linecap="round" stroke-linejoin="round" />
</svg>