<svg xmlns="http://www.w3.org/2000/svg" width="300" height="300" viewBox="0 0 300 300">
<path d="M 162.5 43.75 L 162.5 43.75 L 162.5 43.75 L 162.5 43.75 L 160.0 43.75 L 156.25 43.75 L 152.5 43.75 L 146.25 45.0 L 138.75 50.0 L 131.25 57.5 L 123.75 70.0 L 120.0 85.0 L 118.75 100.0 L 122.5 115.0 L 128.75 127.5 L 138.75 133.75 L 150.0 137.5 L 158.75 136.25 L 170.0 130.0 L 180.0 121.25 L 186.25 110.0 L 190.0 100.0 L 190.0 91.25 L 186.25 86.25 L 177.5 83.75 L 165.0 83.75 L 150.0 86.25 L 136.25 93.75 L 128.75 100.0 L 128.75 103.75 L 130.0 103.75 " stroke="black" fill="none" stroke-width="6.0" stroke-linecap="round" stroke-linejoin="round" />
</svg>