<svg xmlns="http://www.w3.org/2000/svg" width="300" height="300" viewBox="0 0 300 300">
<path d="M 92.5 95.0 L 92.5 95.0 L 90.0 96.25 L 90.0 97.5 L 88.75 97.5 L 88.75 106.25 L 91.25 135.0 L 92.5 176.25 L 92.5 206.25 L 92.5 212.5 L 93.75 213.75 L 93.75 212.5 L 93.75 211.25 L 93.75 208.75 L 93.75 205.0 L 93.75 201.25 " stroke="black" fill="none" stroke-width="6.0" stroke-linecap="round" stroke-linejoin="round" />
<path d="M 152.5 98.75 L 152.5 97.5 L 152.5 97.5 L 152.5 97.5 L 152.5 97.5 L 152.5 108.75 L 155.0 145.0 L 156.25 191.25 L 161.25 220.0 L 162.5 228.75 L 163.75 232.5 L 163.75 232.5 L 163.75 232.5 L 163.75 230.0 L 162.5 218.75 L 161.25 211.25 " stroke="black" fill="none" stroke-width="6.0" stroke-linecap="round" stroke-linejoin="round" />
<path d="M 223.75 93.75 L 222.5 93.75 L 221.25 95.0 L 220.0 97.5 L 220.0 123.75 L 221.25 172.5 L 222.5 206.25 L 226.25 221.25 L 226.25 226.25 L 227.5 227.5 L 227.5 227.5 L 226.25 226.25 L 221.25 223.75 " stroke="black" fill="none" stroke-width="6.0" stroke-linecap="round" stroke-linejoin="round" />
</svg>