<svg xmlns="http://www.w3.org/2000/svg" width="300" height="300" viewBox="0 0 300 300">
<path d="M 81.25 105.0 L 77.5 101.25 L 73.75 98.75 L 72.5 97.5 L 72.5 97.5 L 76.25 106.25 L 83.75 133.75 L 92.5 177.5 L 98.75 216.25 L 103.75 231.25 L 108.75 232.5 L 113.75 227.5 L 120.0 216.25 L 126.25 200.0 L 136.25 177.5 L 147.5 147.5 L 160.0 118.75 L 170.0 100.0 L 175.0 91.25 L 175.0 91.25 L 175.0 91.25 L 173.75 92.5 L 172.5 96.25 L 171.25 97.5 " stroke="black" fill="none" stroke-width="6.0" stroke-linecap="round" stroke-linejoin="round" />
<path d="M 210.0 96.25 L 210.0 96.25 L 210.0 96.25 L 210.0 96.25 L 210.0 96.25 L 210.0 96.25 L 210.0 96.25 L 210.0 95.0 L 210.0 95.0 L 210.0 93.75 L 210.0 93.75 L 210.0 93.75 L 210.0 92.5 L 210.0 92.5 L 210.0 96.25 L 210.0 107.5 L 210.0 130.0 L 210.0 157.5 L 210.0 185.0 L 211.25 206.25 L 213.75 221.25 L 213.75 228.75 L 215.0 231.25 L 215.0 231.25 L 215.0 230.0 L 215.0 228.75 L 215.0 222.5 L 215.0 213.75 L 215.0 205.0 " stroke="black" fill="none" stroke-width="6.0" stroke-linecap="round" stroke-linejoin="round" />
</svg>