<svg xmlns="http://www.w3.org/2000/svg" width="300" height="300" viewBox="0 0 300 300">
<path d="M 150.0 93.75 L 150.0 91.25 L 150.0 90.0 L 150.0 88.75 L 150.0 88.75 L 150.0 88.75 L 151.25 92.5 L 152.5 106.25 L 152.5 133.75 L 152.5 172.5 L 152.5 206.25 L 152.5 230.0 L 153.75 241.25 L 155.0 247.5 L 155.0 248.75 L 155.0 248.75 L 155.0 247.5 L 155.0 241.25 L 153.75 232.5 L 151.25 230.0 " stroke="black" fill="none" stroke-width="6.0" stroke-linecap="round" stroke-linejoin="round" />
<path d="M 117.5 203.75 L 118.75 202.5 L 118.75 202.5 L 120.0 201.25 L 120.0 201.25 L 122.5 201.25 L 127.5 205.0 L 135.0 215.0 L 145.0 228.75 L 152.5 243.75 L 156.25 253.75 L 158.75 258.75 L 158.75 260.0 L 158.75 260.0 L 158.75 258.75 L 158.75 257.5 L 158.75 256.25 L 160.0 252.5 L 161.25 248.75 L 165.0 243.75 L 168.75 236.25 L 175.0 228.75 L 182.5 218.75 L 188.75 212.5 L 191.25 210.0 L 191.25 210.0 L 190.0 211.25 L 187.5 212.5 " stroke="black" fill="none" stroke-width="6.0" stroke-linecap="round" stroke-linejoin="round" />
<path d="M 147.5 83.75 L 148.75 82.5 L 150.0 81.25 L 151.25 80.0 L 151.25 80.0 L 150.0 80.0 L 145.0 86.25 L 136.25 97.5 L 123.75 112.5 L 115.0 122.5 L 110.0 128.75 L 111.25 128.75 L 116.25 123.75 L 120.0 116.25 " stroke="black" fill="none" stroke-width="6.0" stroke-linecap="round" stroke-linejoin="round" />
<path d="M 142.5 90.0 L 142.5 87.5 L 142.5 86.25 L 143.75 83.75 L 145.0 83.75 L 147.5 83.75 L 151.25 87.5 L 158.75 93.75 L 166.25 102.5 L 175.0 110.0 L 182.5 118.75 L 187.5 125.0 L 190.0 130.0 L 188.75 133.75 " stroke="black" fill="none" stroke-width="6.0" stroke-linecap="round" stroke-linejoin="round" />
</svg>