<svg xmlns="http://www.w3.org/2000/svg" width="300" height="300" viewBox="0 0 300 300">
<path d="M 100.0 91.25 L 98.75 90.0 L 96.25 87.5 L 93.75 87.5 L 93.75 97.5 L 91.25 131.25 L 90.0 175.0 L 86.25 207.5 L 85.0 220.0 L 85.0 221.25 L 85.0 220.0 L 85.0 217.5 L 85.0 211.25 L 86.25 202.5 L 86.25 200.0 " stroke="black" fill="none" stroke-width="6.0" stroke-linecap="round" stroke-linejoin="round" />
<path d="M 128.75 115.0 L 128.75 115.0 L 125.0 112.5 L 123.75 111.25 L 123.75 111.25 L 130.0 116.25 L 140.0 132.5 L 151.25 160.0 L 161.25 195.0 L 170.0 215.0 L 177.5 222.5 L 182.5 226.25 L 186.25 228.75 L 186.25 230.0 L 187.5 230.0 L 187.5 230.0 L 187.5 230.0 L 191.25 222.5 L 196.25 206.25 L 203.75 183.75 L 215.0 147.5 L 226.25 113.75 L 233.75 90.0 L 237.5 80.0 L 237.5 77.5 L 237.5 77.5 L 237.5 77.5 L 237.5 80.0 L 235.0 85.0 " stroke="black" fill="none" stroke-width="6.0" stroke-linecap="round" stroke-linejoin="round" />
</svg>