<svg xmlns="http://www.w3.org/2000/svg" width="300" height="300" viewBox="0 0 300 300">
<path d="M 83.75 116.25 L 82.5 116.25 L 81.25 116.25 L 80.0 117.5 L 80.0 120.0 L 81.25 123.75 L 86.25 128.75 L 93.75 130.0 L 101.25 128.75 L 110.0 122.5 L 115.0 112.5 L 116.25 103.75 L 115.0 96.25 L 110.0 91.25 L 103.75 88.75 L 96.25 87.5 L 86.25 91.25 L 77.5 97.5 L 72.5 105.0 L 71.25 108.75 L 77.5 111.25 " stroke="black" fill="none" stroke-width="6.0" stroke-linecap="round" stroke-linejoin="round" />
<path d="M 161.25 101.25 L 161.25 102.5 L 158.75 103.75 L 158.75 103.75 L 162.5 103.75 L 175.0 102.5 L 192.5 100.0 L 208.75 97.5 L 217.5 96.25 L 220.0 95.0 L 218.75 95.0 L 212.5 95.0 L 206.25 95.0 L 200.0 96.25 L 192.5 97.5 " stroke="black" fill="none" stroke-width="6.0" stroke-linecap="round" stroke-linejoin="round" />
<path d="M 162.5 103.75 L 166.25 103.75 L 166.25 103.75 L 167.5 103.75 L 167.5 103.75 L 167.5 115.0 L 165.0 143.75 L 161.25 186.25 L 160.0 221.25 L 160.0 241.25 L 160.0 248.75 L 158.75 252.5 L 158.75 252.5 L 157.5 250.0 L 157.5 242.5 L 156.25 231.25 L 156.25 227.5 " stroke="black" fill="none" stroke-width="6.0" stroke-linecap="round" stroke-linejoin="round" />
<path d="M 168.75 163.75 L 168.75 165.0 L 167.5 166.25 L 166.25 166.25 L 167.5 167.5 L 176.25 170.0 L 192.5 171.25 L 211.25 171.25 L 228.75 168.75 L 236.25 167.5 L 238.75 166.25 L 237.5 166.25 " stroke="black" fill="none" stroke-width="6.0" stroke-linecap="round" stroke-linejoin="round" />
</svg>