<svg xmlns="http://www.w3.org/2000/svg" width="300" height="300" viewBox="0 0 300 300">
<path d="M 77.5 102.5 L 76.25 105.0 L 73.75 107.5 L 72.5 110.0 L 71.25 113.75 L 71.25 120.0 L 76.25 128.75 L 81.25 136.25 L 87.5 138.75 L 95.0 138.75 L 100.0 132.5 L 105.0 122.5 L 107.5 112.5 L 108.75 105.0 L 106.25 98.75 L 101.25 95.0 L 95.0 95.0 L 87.5 95.0 L 78.75 97.5 L 71.25 103.75 L 68.75 111.25 L 68.75 118.75 " stroke="black" fill="none" stroke-width="6.0" stroke-linecap="round" stroke-linejoin="round" />
<path d="M 218.75 103.75 L 220.0 102.5 L 221.25 101.25 L 221.25 100.0 L 220.0 98.75 L 217.5 98.75 L 215.0 97.5 L 212.5 96.25 L 210.0 96.25 L 207.5 95.0 L 203.75 95.0 L 200.0 95.0 L 195.0 95.0 L 191.25 96.25 L 187.5 96.25 L 183.75 97.5 L 180.0 98.75 L 172.5 101.25 L 168.75 103.75 L 166.25 106.25 L 162.5 108.75 L 160.0 111.25 L 157.5 113.75 L 155.0 117.5 L 153.75 122.5 L 152.5 127.5 L 151.25 135.0 L 150.0 142.5 L 150.0 148.75 L 148.75 157.5 L 148.75 165.0 L 148.75 172.5 L 148.75 181.25 L 148.75 190.0 L 148.75 197.5 L 148.75 203.75 L 150.0 210.0 L 152.5 215.0 L 155.0 220.0 L 158.75 225.0 L 163.75 230.0 L 168.75 233.75 L 175.0 236.25 L 180.0 238.75 L 185.0 240.0 L 190.0 240.0 L 195.0 240.0 L 200.0 240.0 L 205.0 237.5 L 208.75 236.25 L 212.5 233.75 L 217.5 230.0 L 222.5 226.25 L 227.5 222.5 L 231.25 218.75 L 235.0 216.25 L 236.25 212.5 L 237.5 210.0 L 237.5 208.75 " stroke="black" fill="none" stroke-width="6.0" stroke-linecap="round" stroke-linejoin="round" />
</svg>