<svg xmlns="http://www.w3.org/2000/svg" width="300" height="300" viewBox="0 0 300 300">
<path d="M 88.75 222.5 L 88.75 223.75 L 85.0 227.5 L 82.5 230.0 L 81.25 230.0 L 81.25 230.0 L 85.0 226.25 L 91.25 220.0 L 100.0 212.5 L 110.0 201.25 L 125.0 188.75 L 141.25 172.5 L 155.0 156.25 L 168.75 141.25 L 183.75 128.75 L 196.25 116.25 L 202.5 108.75 L 206.25 105.0 L 207.5 103.75 L 207.5 103.75 L 207.5 103.75 L 207.5 103.75 L 207.5 103.75 L 207.5 103.75 L 207.5 106.25 " stroke="black" fill="none" stroke-width="6.0" stroke-linecap="round" stroke-linejoin="round" />
<path d="M 151.25 100.0 L 150.0 101.25 L 148.75 102.5 L 147.5 103.75 L 147.5 103.75 L 151.25 105.0 L 161.25 105.0 L 175.0 105.0 L 192.5 105.0 L 206.25 105.0 L 215.0 105.0 L 217.5 103.75 L 220.0 103.75 L 220.0 103.75 L 220.0 103.75 L 220.0 103.75 L 220.0 103.75 L 220.0 103.75 L 220.0 103.75 L 220.0 103.75 L 220.0 103.75 L 220.0 103.75 L 220.0 103.75 L 218.75 105.0 L 218.75 108.75 L 217.5 118.75 L 216.25 135.0 L 216.25 148.75 L 216.25 158.75 L 216.25 162.5 L 216.25 163.75 L 216.25 163.75 L 216.25 162.5 L 216.25 162.5 L 216.25 161.25 L 215.0 158.75 " stroke="black" fill="none" stroke-width="6.0" stroke-linecap="round" stroke-linejoin="round" />
</svg>