<svg xmlns="http://www.w3.org/2000/svg" width="300" height="300" viewBox="0 0 300 300">
<path d="M 95.0 95.0 L 95.0 92.5 L 95.0 91.25 L 95.0 88.75 L 95.0 87.5 L 97.5 87.5 L 101.25 87.5 L 103.75 88.75 L 105.0 91.25 L 103.75 96.25 L 100.0 98.75 L 96.25 100.0 L 93.75 100.0 L 91.25 98.75 L 91.25 95.0 L 93.75 91.25 L 96.25 88.75 L 98.75 88.75 L 100.0 88.75 L 100.0 91.25 L 100.0 92.5 L 98.75 93.75 L 97.5 95.0 L 97.5 95.0 L 97.5 95.0 L 97.5 95.0 " stroke="black" fill="none" stroke-width="6.0" stroke-linecap="round" stroke-linejoin="round" />
<path d="M 95.0 135.0 L 93.75 136.25 L 92.5 136.25 L 92.5 141.25 L 92.5 153.75 L 95.0 181.25 L 96.25 205.0 L 96.25 217.5 L 96.25 221.25 L 96.25 221.25 L 96.25 221.25 L 96.25 221.25 L 96.25 217.5 L 97.5 211.25 " stroke="black" fill="none" stroke-width="6.0" stroke-linecap="round" stroke-linejoin="round" />
<path d="M 153.75 92.5 L 152.5 91.25 L 152.5 90.0 L 151.25 87.5 L 151.25 87.5 L 151.25 87.5 L 152.5 87.5 L 155.0 88.75 L 155.0 91.25 L 155.0 95.0 L 153.75 97.5 L 151.25 98.75 L 147.5 100.0 L 146.25 98.75 L 145.0 96.25 L 146.25 92.5 L 147.5 90.0 L 148.75 90.0 L 150.0 90.0 L 151.25 90.0 L 151.25 91.25 L 151.25 91.25 L 151.25 92.5 L 150.0 92.5 L 150.0 92.5 L 150.0 92.5 L 150.0 92.5 " stroke="black" fill="none" stroke-width="6.0" stroke-linecap="round" stroke-linejoin="round" />
<path d="M 150.0 130.0 L 150.0 130.0 L 150.0 128.75 L 148.75 128.75 L 148.75 128.75 L 148.75 131.25 L 148.75 146.25 L 150.0 176.25 L 151.25 205.0 L 151.25 220.0 L 152.5 227.5 L 152.5 228.75 L 152.5 228.75 L 152.5 226.25 L 153.75 218.75 L 153.75 210.0 " stroke="black" fill="none" stroke-width="6.0" stroke-linecap="round" stroke-linejoin="round" />
<path d="M 208.75 86.25 L 208.75 87.5 L 207.5 88.75 L 206.25 90.0 L 206.25 91.25 L 206.25 92.5 L 206.25 93.75 L 205.0 95.0 L 203.75 96.25 L 202.5 96.25 L 201.25 96.25 L 201.25 95.0 L 201.25 93.75 L 202.5 91.25 L 203.75 91.25 L 205.0 91.25 L 206.25 91.25 L 206.25 92.5 L 206.25 95.0 L 205.0 96.25 L 202.5 96.25 L 201.25 96.25 L 201.25 96.25 L 201.25 96.25 L 201.25 95.0 L 202.5 95.0 L 203.75 95.0 L 205.0 95.0 L 205.0 95.0 " stroke="black" fill="none" stroke-width="6.0" stroke-linecap="round" stroke-linejoin="round" />
<path d="M 207.5 133.75 L 207.5 132.5 L 207.5 130.0 L 207.5 128.75 L 207.5 127.5 L 207.5 128.75 L 208.75 140.0 L 210.0 162.5 L 210.0 192.5 L 210.0 216.25 L 210.0 228.75 L 210.0 233.75 L 210.0 233.75 L 210.0 232.5 L 210.0 231.25 L 210.0 227.5 " stroke="black" fill="none" stroke-width="6.0" stroke-linecap="round" stroke-linejoin="round" />
</svg>