<svg xmlns="http://www.w3.org/2000/svg" width="300" height="300" viewBox="0 0 300 300">
<path d="M 122.5 98.75 L 123.75 98.75 L 125.0 96.25 L 125.0 92.5 L 125.0 90.0 L 123.75 87.5 L 120.0 86.25 L 113.75 86.25 L 105.0 90.0 L 96.25 98.75 L 90.0 110.0 L 86.25 126.25 L 87.5 140.0 L 95.0 147.5 L 107.5 152.5 L 122.5 155.0 L 135.0 155.0 L 142.5 155.0 L 145.0 155.0 L 143.75 152.5 L 143.75 152.5 " stroke="black" fill="none" stroke-width="6.0" stroke-linecap="round" stroke-linejoin="round" />
<path d="M 218.75 83.75 L 218.75 82.5 L 217.5 82.5 L 212.5 82.5 L 178.75 132.5 L 152.5 172.5 L 131.25 207.5 L 113.75 231.25 L 110.0 240.0 L 110.0 243.75 L 110.0 243.75 " stroke="black" fill="none" stroke-width="6.0" stroke-linecap="round" stroke-linejoin="round" />
<path d="M 206.25 185.0 L 205.0 185.0 L 201.25 186.25 L 197.5 187.5 L 195.0 195.0 L 193.75 208.75 L 196.25 226.25 L 202.5 237.5 L 213.75 238.75 L 227.5 225.0 L 240.0 208.75 L 245.0 195.0 L 245.0 185.0 L 235.0 178.75 L 217.5 177.5 L 201.25 183.75 L 191.25 191.25 L 191.25 198.75 " stroke="black" fill="none" stroke-width="6.0" stroke-linecap="round" stroke-linejoin="round" />
</svg>