<svg xmlns="http://www.w3.org/2000/svg" width="300" height="300" viewBox="0 0 300 300">
<path d="M 75.0 138.75 L 71.25 135.0 L 67.5 131.25 L 67.5 128.75 L 70.0 128.75 L 77.5 140.0 L 87.5 166.25 L 93.75 198.75 L 97.5 225.0 L 100.0 232.5 L 101.25 230.0 L 105.0 220.0 L 111.25 205.0 L 117.5 190.0 L 126.25 171.25 L 137.5 150.0 L 145.0 137.5 L 148.75 133.75 L 148.75 133.75 L 146.25 137.5 L 143.75 142.5 " stroke="black" fill="none" stroke-width="6.0" stroke-linecap="round" stroke-linejoin="round" />
<path d="M 183.75 91.25 L 183.75 91.25 L 183.75 91.25 L 183.75 91.25 L 185.0 91.25 L 185.0 92.5 L 185.0 93.75 L 182.5 95.0 L 180.0 96.25 L 177.5 96.25 L 175.0 96.25 L 175.0 93.75 L 175.0 91.25 L 177.5 90.0 L 181.25 88.75 L 183.75 88.75 L 185.0 91.25 L 185.0 93.75 L 183.75 95.0 L 181.25 95.0 L 180.0 95.0 L 180.0 93.75 L 180.0 92.5 L 180.0 91.25 L 182.5 91.25 L 182.5 91.25 " stroke="black" fill="none" stroke-width="6.0" stroke-linecap="round" stroke-linejoin="round" />
<path d="M 183.75 137.5 L 181.25 136.25 L 178.75 136.25 L 177.5 135.0 L 177.5 135.0 L 181.25 145.0 L 185.0 171.25 L 187.5 203.75 L 188.75 223.75 L 188.75 232.5 L 188.75 232.5 L 188.75 231.25 L 187.5 226.25 L 185.0 220.0 " stroke="black" fill="none" stroke-width="6.0" stroke-linecap="round" stroke-linejoin="round" />
<path d="M 230.0 96.25 L 231.25 96.25 L 231.25 96.25 L 232.5 95.0 L 232.5 93.75 L 233.75 93.75 L 235.0 93.75 L 235.0 93.75 L 235.0 95.0 L 232.5 96.25 L 230.0 96.25 L 227.5 96.25 L 226.25 96.25 L 226.25 95.0 L 226.25 92.5 L 227.5 92.5 L 230.0 92.5 L 232.5 92.5 L 232.5 92.5 L 233.75 92.5 L 233.75 92.5 L 232.5 92.5 L 231.25 92.5 L 231.25 91.25 L 231.25 90.0 L 232.5 90.0 L 235.0 88.75 L 236.25 88.75 L 237.5 92.5 " stroke="black" fill="none" stroke-width="6.0" stroke-linecap="round" stroke-linejoin="round" />
<path d="M 232.5 141.25 L 232.5 138.75 L 232.5 135.0 L 232.5 132.5 L 232.5 131.25 L 232.5 130.0 L 233.75 132.5 L 235.0 147.5 L 236.25 178.75 L 236.25 210.0 L 236.25 227.5 L 237.5 232.5 L 237.5 233.75 L 237.5 232.5 L 237.5 231.25 L 237.5 227.5 L 235.0 225.0 " stroke="black" fill="none" stroke-width="6.0" stroke-linecap="round" stroke-linejoin="round" />
</svg>