<svg xmlns="http://www.w3.org/2000/svg" width="300" height="300" viewBox="0 0 300 300">
<path d="M 115.0 93.75 L 115.0 91.25 L 115.0 88.75 L 113.75 87.5 L 113.75 87.5 L 113.75 92.5 L 113.75 117.5 L 113.75 166.25 L 111.25 215.0 L 110.0 235.0 L 111.25 242.5 L 112.5 243.75 L 112.5 242.5 L 112.5 241.25 L 112.5 236.25 L 113.75 227.5 L 113.75 218.75 " stroke="black" fill="none" stroke-width="6.0" stroke-linecap="round" stroke-linejoin="round" />
<path d="M 185.0 97.5 L 183.75 97.5 L 182.5 97.5 L 181.25 97.5 L 180.0 96.25 L 180.0 96.25 L 180.0 96.25 L 180.0 100.0 L 180.0 128.75 L 181.25 178.75 L 182.5 217.5 L 187.5 248.75 L 188.75 253.75 L 188.75 253.75 L 188.75 253.75 L 188.75 252.5 L 186.25 250.0 L 182.5 246.25 " stroke="black" fill="none" stroke-width="6.0" stroke-linecap="round" stroke-linejoin="round" />
</svg>