<svg xmlns="http://www.w3.org/2000/svg" width="300" height="300" viewBox="0 0 300 300">
<path d="M 61.25 141.25 L 61.25 141.25 L 60.0 137.5 L 58.75 136.25 L 58.75 135.0 L 62.5 137.5 L 68.75 155.0 L 77.5 185.0 L 85.0 217.5 L 88.75 238.75 L 91.25 243.75 L 92.5 245.0 L 93.75 245.0 L 95.0 240.0 L 100.0 225.0 L 106.25 206.25 L 115.0 186.25 L 123.75 167.5 L 132.5 152.5 L 136.25 146.25 L 136.25 145.0 L 133.75 147.5 L 132.5 151.25 " stroke="black" fill="none" stroke-width="6.0" stroke-linecap="round" stroke-linejoin="round" />
<path d="M 153.75 97.5 L 153.75 97.5 L 152.5 96.25 L 151.25 93.75 L 151.25 92.5 L 152.5 92.5 L 153.75 92.5 L 157.5 92.5 L 158.75 93.75 L 158.75 95.0 L 158.75 96.25 L 156.25 97.5 L 153.75 98.75 L 151.25 98.75 L 151.25 98.75 L 151.25 96.25 L 152.5 93.75 L 153.75 93.75 L 156.25 92.5 L 156.25 93.75 L 156.25 95.0 L 156.25 95.0 L 156.25 96.25 " stroke="black" fill="none" stroke-width="6.0" stroke-linecap="round" stroke-linejoin="round" />
<path d="M 156.25 141.25 L 156.25 141.25 L 152.5 141.25 L 152.5 141.25 L 151.25 145.0 L 151.25 162.5 L 153.75 195.0 L 153.75 222.5 L 155.0 236.25 L 155.0 237.5 L 156.25 236.25 L 156.25 230.0 L 157.5 218.75 " stroke="black" fill="none" stroke-width="6.0" stroke-linecap="round" stroke-linejoin="round" />
<path d="M 200.0 96.25 L 200.0 96.25 L 198.75 96.25 L 198.75 95.0 L 198.75 95.0 L 198.75 96.25 L 198.75 98.75 L 198.75 100.0 L 198.75 101.25 L 197.5 102.5 L 196.25 102.5 L 195.0 102.5 L 193.75 100.0 L 195.0 96.25 L 196.25 93.75 L 198.75 92.5 L 200.0 92.5 L 200.0 95.0 L 200.0 97.5 L 200.0 98.75 L 198.75 98.75 L 197.5 98.75 L 196.25 98.75 L 196.25 98.75 L 196.25 98.75 L 198.75 98.75 " stroke="black" fill="none" stroke-width="6.0" stroke-linecap="round" stroke-linejoin="round" />
<path d="M 196.25 140.0 L 196.25 138.75 L 195.0 138.75 L 195.0 143.75 L 195.0 167.5 L 195.0 203.75 L 196.25 227.5 L 196.25 236.25 L 196.25 235.0 L 196.25 227.5 L 196.25 216.25 " stroke="black" fill="none" stroke-width="6.0" stroke-linecap="round" stroke-linejoin="round" />
<path d="M 237.5 95.0 L 237.5 95.0 L 237.5 95.0 L 237.5 95.0 L 237.5 95.0 L 237.5 95.0 L 237.5 95.0 L 237.5 95.0 L 237.5 95.0 L 236.25 96.25 L 235.0 97.5 L 233.75 97.5 L 232.5 96.25 L 232.5 95.0 L 232.5 93.75 L 233.75 92.5 L 236.25 92.5 L 236.25 95.0 L 237.5 96.25 L 237.5 98.75 L 235.0 98.75 L 233.75 98.75 L 231.25 98.75 L 231.25 97.5 L 231.25 96.25 L 233.75 95.0 L 235.0 95.0 L 235.0 95.0 " stroke="black" fill="none" stroke-width="6.0" stroke-linecap="round" stroke-linejoin="round" />
<path d="M 232.5 137.5 L 232.5 136.25 L 232.5 136.25 L 232.5 135.0 L 232.5 135.0 L 233.75 143.75 L 236.25 170.0 L 237.5 205.0 L 237.5 230.0 L 237.5 240.0 L 237.5 241.25 L 237.5 241.25 L 237.5 237.5 L 237.5 230.0 L 236.25 227.5 " stroke="black" fill="none" stroke-width="6.0" stroke-linecap="round" stroke-linejoin="round" />
</svg>