<svg xmlns="http://www.w3.org/2000/svg" width="300" height="300" viewBox="0 0 300 300">
<path d="M 152.5 46.25 L 153.75 45.0 L 153.75 43.75 L 155.0 42.5 L 155.0 42.5 L 155.0 42.5 L 155.0 42.5 L 152.5 42.5 L 150.0 45.0 L 145.0 48.75 L 137.5 55.0 L 130.0 62.5 L 121.25 68.75 L 116.25 72.5 L 115.0 72.5 L 115.0 72.5 L 116.25 72.5 L 116.25 72.5 L 117.5 72.5 L 117.5 72.5 L 117.5 72.5 L 118.75 72.5 L 118.75 72.5 L 118.75 72.5 L 120.0 73.75 L 120.0 73.75 L 120.0 73.75 L 120.0 73.75 L 120.0 73.75 L 120.0 73.75 L 120.0 73.75 L 120.0 73.75 L 120.0 73.75 L 121.25 73.75 L 121.25 73.75 L 123.75 73.75 L 126.25 73.75 L 130.0 73.75 L 135.0 73.75 L 138.75 73.75 L 143.75 73.75 L 148.75 73.75 L 153.75 73.75 L 158.75 73.75 L 165.0 73.75 L 170.0 75.0 L 175.0 75.0 L 178.75 75.0 L 181.25 75.0 L 182.5 75.0 L 182.5 75.0 L 182.5 75.0 L 181.25 73.75 L 181.25 73.75 L 181.25 73.75 L 181.25 73.75 L 181.25 73.75 L 181.25 73.75 L 181.25 73.75 L 181.25 73.75 L 181.25 72.5 L 181.25 72.5 L 181.25 72.5 L 181.25 72.5 L 181.25 72.5 L 181.25 72.5 L 181.25 71.25 L 180.0 70.0 L 177.5 68.75 L 173.75 66.25 L 170.0 62.5 L 165.0 60.0 L 160.0 55.0 L 156.25 52.5 L 153.75 48.75 L 152.5 46.25 L 151.25 46.25 L 151.25 45.0 L 151.25 45.0 L 151.25 45.0 L 151.25 45.0 L 151.25 45.0 L 151.25 45.0 L 151.25 45.0 L 151.25 46.25 L 151.25 46.25 " stroke="black" fill="none" stroke-width="6.0" stroke-linecap="round" stroke-linejoin="round" />
<path d="M 147.5 56.25 L 147.5 56.25 L 147.5 55.0 L 147.5 55.0 L 147.5 53.75 L 147.5 52.5 L 147.5 52.5 L 146.25 52.5 L 142.5 56.25 L 137.5 61.25 L 133.75 66.25 L 130.0 70.0 L 128.75 71.25 L 130.0 71.25 L 135.0 68.75 L 141.25 63.75 L 146.25 60.0 L 150.0 56.25 L 152.5 53.75 L 152.5 53.75 L 151.25 53.75 L 147.5 58.75 L 141.25 65.0 L 136.25 71.25 L 132.5 75.0 L 131.25 76.25 L 132.5 76.25 L 138.75 71.25 L 143.75 65.0 L 147.5 60.0 L 150.0 56.25 L 151.25 53.75 L 151.25 53.75 L 150.0 56.25 L 146.25 62.5 L 142.5 70.0 L 140.0 73.75 L 140.0 76.25 L 140.0 75.0 L 145.0 68.75 L 150.0 61.25 L 152.5 55.0 L 155.0 52.5 L 155.0 51.25 L 153.75 53.75 L 152.5 58.75 L 150.0 62.5 L 148.75 65.0 L 147.5 66.25 L 147.5 67.5 L 147.5 66.25 L 151.25 62.5 L 153.75 58.75 L 155.0 56.25 L 156.25 55.0 L 156.25 55.0 L 155.0 57.5 L 152.5 61.25 L 151.25 65.0 L 150.0 67.5 L 150.0 68.75 L 150.0 70.0 L 150.0 70.0 L 150.0 70.0 L 150.0 70.0 L 150.0 70.0 L 151.25 70.0 L 153.75 68.75 L 156.25 68.75 L 158.75 68.75 L 162.5 68.75 L 166.25 68.75 L 168.75 68.75 L 171.25 68.75 L 172.5 68.75 L 173.75 68.75 L 173.75 68.75 L 173.75 68.75 L 173.75 68.75 L 173.75 68.75 L 173.75 68.75 L 172.5 68.75 L 171.25 68.75 L 170.0 67.5 L 167.5 66.25 L 163.75 65.0 L 161.25 62.5 L 157.5 60.0 L 155.0 57.5 L 153.75 53.75 L 152.5 51.25 L 151.25 50.0 L 151.25 48.75 L 151.25 47.5 L 151.25 47.5 L 151.25 47.5 L 151.25 47.5 L 152.5 47.5 L 153.75 50.0 L 155.0 53.75 L 157.5 57.5 L 161.25 62.5 L 162.5 65.0 L 165.0 67.5 L 165.0 68.75 L 165.0 68.75 L 165.0 68.75 L 163.75 66.25 L 161.25 63.75 L 158.75 60.0 L 156.25 55.0 L 155.0 51.25 L 153.75 47.5 L 153.75 43.75 L 153.75 42.5 L 153.75 42.5 L 153.75 42.5 L 153.75 42.5 L 155.0 45.0 L 156.25 47.5 L 158.75 51.25 L 160.0 53.75 L 162.5 56.25 L 162.5 57.5 L 163.75 58.75 L 163.75 58.75 L 163.75 58.75 L 162.5 58.75 L 160.0 56.25 L 157.5 53.75 L 155.0 50.0 L 153.75 48.75 L 152.5 46.25 L 152.5 46.25 L 152.5 45.0 L 152.5 45.0 L 152.5 45.0 L 155.0 47.5 L 158.75 51.25 L 162.5 55.0 L 166.25 60.0 L 170.0 62.5 L 172.5 66.25 L 175.0 67.5 L 176.25 68.75 L 176.25 68.75 L 176.25 68.75 L 176.25 68.75 L 176.25 68.75 L 175.0 68.75 L 175.0 68.75 L 175.0 68.75 L 173.75 67.5 L 171.25 67.5 L 167.5 67.5 L 161.25 66.25 L 155.0 66.25 L 150.0 65.0 L 146.25 65.0 L 145.0 65.0 L 145.0 65.0 L 145.0 65.0 L 146.25 65.0 L 148.75 65.0 L 152.5 65.0 L 156.25 65.0 L 160.0 65.0 L 161.25 65.0 L 163.75 65.0 L 163.75 65.0 L 165.0 65.0 L 165.0 65.0 L 165.0 65.0 L 163.75 65.0 L 161.25 65.0 L 160.0 65.0 " stroke="black" fill="none" stroke-width="6.0" stroke-linecap="round" stroke-linejoin="round" />
<path d="M 136.25 71.25 L 135.0 71.25 L 133.75 71.25 L 131.25 72.5 L 128.75 72.5 L 126.25 73.75 L 122.5 73.75 L 120.0 75.0 L 118.75 76.25 L 117.5 76.25 L 116.25 77.5 L 115.0 78.75 L 115.0 78.75 L 115.0 78.75 L 117.5 78.75 L 118.75 78.75 L 122.5 78.75 L 126.25 78.75 L 131.25 78.75 L 136.25 78.75 L 141.25 78.75 L 146.25 78.75 L 150.0 78.75 L 153.75 78.75 L 156.25 78.75 L 157.5 78.75 L 160.0 78.75 L 161.25 78.75 L 161.25 78.75 L 162.5 78.75 L 163.75 80.0 L 163.75 80.0 L 165.0 80.0 L 166.25 80.0 L 167.5 81.25 L 168.75 81.25 L 168.75 81.25 L 170.0 81.25 L 171.25 81.25 L 171.25 81.25 L 171.25 81.25 L 171.25 81.25 L 171.25 81.25 L 171.25 81.25 L 171.25 81.25 L 171.25 81.25 L 171.25 80.0 L 172.5 80.0 L 172.5 80.0 L 172.5 80.0 L 173.75 80.0 L 173.75 80.0 L 175.0 78.75 L 175.0 78.75 L 176.25 78.75 L 176.25 78.75 L 177.5 78.75 L 177.5 78.75 L 178.75 78.75 L 178.75 78.75 L 178.75 78.75 L 180.0 78.75 L 180.0 78.75 L 180.0 78.75 L 180.0 78.75 L 180.0 78.75 L 180.0 78.75 L 180.0 78.75 L 180.0 78.75 L 180.0 78.75 L 180.0 78.75 L 180.0 78.75 L 180.0 78.75 " stroke="black" fill="none" stroke-width="6.0" stroke-linecap="round" stroke-linejoin="round" />
<path d="M 173.75 78.75 L 173.75 78.75 L 173.75 78.75 L 173.75 78.75 L 173.75 78.75 L 172.5 78.75 L 172.5 78.75 L 172.5 78.75 L 172.5 78.75 L 172.5 78.75 L 173.75 78.75 L 175.0 78.75 L 176.25 78.75 L 178.75 78.75 L 180.0 78.75 L 182.5 78.75 L 183.75 78.75 L 185.0 78.75 L 186.25 78.75 L 186.25 78.75 L 187.5 78.75 L 187.5 78.75 L 188.75 78.75 L 188.75 78.75 L 188.75 78.75 L 188.75 78.75 L 188.75 78.75 L 187.5 78.75 L 185.0 78.75 L 182.5 77.5 L 178.75 76.25 L 175.0 76.25 " stroke="black" fill="none" stroke-width="6.0" stroke-linecap="round" stroke-linejoin="round" />
<path d="M 150.0 120.0 L 150.0 120.0 L 150.0 118.75 L 150.0 117.5 L 150.0 116.25 L 150.0 115.0 L 151.25 115.0 L 151.25 115.0 L 153.75 115.0 L 155.0 115.0 L 155.0 117.5 L 155.0 120.0 L 152.5 122.5 L 150.0 125.0 L 146.25 125.0 L 143.75 125.0 L 143.75 122.5 L 143.75 117.5 L 145.0 115.0 L 148.75 112.5 L 151.25 112.5 L 153.75 115.0 L 155.0 117.5 L 155.0 121.25 L 153.75 123.75 L 150.0 126.25 L 146.25 126.25 L 143.75 126.25 L 142.5 123.75 L 142.5 120.0 L 143.75 117.5 L 147.5 116.25 L 150.0 116.25 L 152.5 117.5 L 152.5 120.0 L 152.5 123.75 L 151.25 125.0 L 148.75 126.25 L 147.5 126.25 L 145.0 125.0 L 145.0 122.5 L 146.25 118.75 L 148.75 117.5 L 151.25 116.25 L 153.75 117.5 L 153.75 120.0 L 153.75 122.5 L 152.5 126.25 L 150.0 127.5 L 147.5 127.5 L 146.25 127.5 L 145.0 126.25 L 145.0 123.75 L 147.5 122.5 L 150.0 122.5 L 151.25 122.5 L 151.25 127.5 L 151.25 130.0 " stroke="black" fill="none" stroke-width="6.0" stroke-linecap="round" stroke-linejoin="round" />
<path d="M 152.5 162.5 L 152.5 162.5 L 151.25 162.5 L 151.25 162.5 L 150.0 162.5 L 150.0 161.25 L 150.0 161.25 L 150.0 161.25 L 153.75 162.5 L 156.25 165.0 L 158.75 168.75 L 158.75 171.25 L 157.5 173.75 L 152.5 175.0 L 147.5 175.0 L 143.75 173.75 L 141.25 170.0 L 141.25 166.25 L 142.5 162.5 L 146.25 160.0 L 150.0 158.75 L 152.5 158.75 L 153.75 161.25 L 155.0 163.75 L 155.0 165.0 L 153.75 167.5 L 151.25 167.5 L 148.75 167.5 L 147.5 167.5 L 147.5 165.0 L 147.5 162.5 L 150.0 160.0 L 152.5 158.75 L 153.75 158.75 L 155.0 161.25 L 155.0 165.0 L 153.75 167.5 L 151.25 170.0 L 148.75 170.0 L 146.25 170.0 L 146.25 168.75 L 146.25 166.25 L 147.5 163.75 L 148.75 162.5 L 151.25 162.5 L 152.5 165.0 L 152.5 166.25 L 152.5 167.5 L 152.5 168.75 L 151.25 168.75 L 150.0 168.75 L 150.0 166.25 L 150.0 166.25 " stroke="black" fill="none" stroke-width="6.0" stroke-linecap="round" stroke-linejoin="round" />
<path d="M 153.75 216.25 L 152.5 216.25 L 151.25 216.25 L 150.0 216.25 L 150.0 216.25 L 150.0 216.25 L 151.25 216.25 L 153.75 216.25 L 156.25 216.25 L 158.75 218.75 L 158.75 222.5 L 156.25 225.0 L 153.75 227.5 L 150.0 227.5 L 147.5 227.5 L 147.5 226.25 L 147.5 222.5 L 150.0 220.0 L 152.5 218.75 L 155.0 218.75 L 156.25 220.0 L 157.5 221.25 L 157.5 223.75 L 153.75 226.25 L 151.25 227.5 L 147.5 227.5 L 146.25 227.5 L 145.0 223.75 L 146.25 221.25 L 148.75 218.75 L 152.5 218.75 L 155.0 218.75 L 156.25 220.0 L 157.5 222.5 L 156.25 225.0 L 152.5 227.5 L 150.0 227.5 L 147.5 227.5 L 146.25 225.0 L 146.25 221.25 L 148.75 218.75 L 152.5 217.5 L 155.0 217.5 L 156.25 221.25 L 156.25 225.0 " stroke="black" fill="none" stroke-width="6.0" stroke-linecap="round" stroke-linejoin="round" />
</svg>