<svg xmlns="http://www.w3.org/2000/svg" width="300" height="300" viewBox="0 0 300 300">
<path d="M 87.5 91.25 L 83.75 92.5 L 81.25 93.75 L 80.0 93.75 L 80.0 93.75 L 83.75 93.75 L 92.5 93.75 L 106.25 92.5 L 121.25 90.0 L 132.5 86.25 L 136.25 83.75 L 136.25 83.75 L 131.25 86.25 L 126.25 88.75 L 125.0 88.75 " stroke="black" fill="none" stroke-width="6.0" stroke-linecap="round" stroke-linejoin="round" />
<path d="M 105.0 95.0 L 105.0 95.0 L 105.0 95.0 L 105.0 95.0 L 103.75 96.25 L 103.75 96.25 L 103.75 98.75 L 105.0 108.75 L 106.25 130.0 L 103.75 151.25 L 98.75 162.5 " stroke="black" fill="none" stroke-width="6.0" stroke-linecap="round" stroke-linejoin="round" />
<path d="M 153.75 95.0 L 153.75 95.0 L 153.75 95.0 L 153.75 93.75 L 153.75 93.75 L 153.75 100.0 L 152.5 118.75 L 150.0 140.0 L 148.75 153.75 L 147.5 156.25 L 146.25 152.5 L 146.25 143.75 L 147.5 135.0 L 148.75 125.0 L 151.25 112.5 L 152.5 102.5 L 152.5 98.75 L 153.75 97.5 L 155.0 100.0 L 158.75 107.5 L 166.25 118.75 L 172.5 128.75 L 178.75 133.75 L 186.25 133.75 L 196.25 127.5 L 203.75 116.25 L 210.0 105.0 L 213.75 95.0 L 215.0 88.75 L 216.25 86.25 L 215.0 86.25 L 215.0 86.25 L 215.0 86.25 L 215.0 87.5 L 213.75 95.0 L 211.25 107.5 L 210.0 125.0 L 210.0 140.0 L 211.25 148.75 L 212.5 151.25 L 213.75 151.25 L 215.0 151.25 L 213.75 151.25 " stroke="black" fill="none" stroke-width="6.0" stroke-linecap="round" stroke-linejoin="round" />
</svg>