<svg xmlns="http://www.w3.org/2000/svg" width="300" height="300" viewBox="0 0 300 300">
<path d="M 98.75 108.75 L 98.75 108.75 L 98.75 108.75 L 97.5 108.75 L 96.25 108.75 L 96.25 108.75 L 96.25 108.75 L 96.25 108.75 L 96.25 108.75 L 98.75 110.0 L 100.0 111.25 L 102.5 112.5 L 105.0 113.75 L 107.5 116.25 L 110.0 117.5 L 112.5 118.75 L 113.75 121.25 L 115.0 121.25 L 116.25 122.5 L 117.5 123.75 L 117.5 125.0 L 118.75 127.5 L 121.25 128.75 L 122.5 130.0 L 125.0 132.5 L 128.75 135.0 L 131.25 137.5 L 135.0 140.0 L 138.75 143.75 L 142.5 148.75 L 147.5 152.5 L 151.25 156.25 L 155.0 160.0 L 160.0 165.0 L 165.0 168.75 L 170.0 175.0 L 175.0 180.0 L 180.0 186.25 L 185.0 191.25 L 190.0 197.5 L 195.0 202.5 L 198.75 206.25 L 201.25 210.0 L 205.0 213.75 L 207.5 217.5 L 211.25 222.5 L 216.25 225.0 L 221.25 228.75 L 223.75 230.0 L 225.0 232.5 L 226.25 232.5 L 226.25 233.75 L 226.25 233.75 L 226.25 233.75 L 226.25 233.75 L 226.25 233.75 L 225.0 230.0 L 223.75 228.75 " stroke="black" fill="none" stroke-width="6.0" stroke-linecap="round" stroke-linejoin="round" />
<path d="M 102.5 111.25 L 102.5 110.0 L 102.5 108.75 L 102.5 107.5 L 102.5 106.25 L 102.5 105.0 L 102.5 103.75 L 102.5 103.75 L 102.5 111.25 L 102.5 131.25 L 101.25 152.5 L 100.0 163.75 L 100.0 167.5 L 100.0 166.25 L 101.25 163.75 L 101.25 157.5 L 101.25 150.0 " stroke="black" fill="none" stroke-width="6.0" stroke-linecap="round" stroke-linejoin="round" />
<path d="M 105.0 105.0 L 105.0 105.0 L 102.5 105.0 L 101.25 105.0 L 101.25 105.0 L 101.25 105.0 L 103.75 105.0 L 108.75 105.0 L 117.5 105.0 L 131.25 105.0 L 145.0 105.0 L 156.25 105.0 L 161.25 105.0 L 163.75 106.25 L 163.75 106.25 L 161.25 108.75 L 158.75 112.5 " stroke="black" fill="none" stroke-width="6.0" stroke-linecap="round" stroke-linejoin="round" />
</svg>