<svg xmlns="http://www.w3.org/2000/svg" width="300" height="300" viewBox="0 0 300 300">
<path d="M 116.25 92.5 L 116.25 92.5 L 115.0 93.75 L 113.75 93.75 L 112.5 93.75 L 116.25 95.0 L 130.0 96.25 L 152.5 96.25 L 180.0 96.25 L 198.75 97.5 L 205.0 97.5 L 203.75 97.5 L 201.25 97.5 L 193.75 98.75 L 185.0 100.0 L 173.75 100.0 L 170.0 100.0 " stroke="black" fill="none" stroke-width="6.0" stroke-linecap="round" stroke-linejoin="round" />
<path d="M 123.75 97.5 L 123.75 97.5 L 121.25 97.5 L 118.75 97.5 L 117.5 96.25 L 117.5 96.25 L 121.25 100.0 L 130.0 115.0 L 141.25 137.5 L 153.75 155.0 L 163.75 166.25 L 172.5 172.5 L 175.0 173.75 L 176.25 175.0 L 176.25 175.0 L 173.75 175.0 L 167.5 176.25 L 158.75 178.75 L 147.5 182.5 L 135.0 190.0 L 118.75 200.0 L 107.5 211.25 L 101.25 218.75 L 101.25 221.25 L 101.25 221.25 L 105.0 221.25 L 108.75 222.5 L 112.5 222.5 L 118.75 222.5 L 127.5 222.5 L 140.0 222.5 L 158.75 223.75 L 182.5 227.5 L 200.0 227.5 L 212.5 223.75 L 212.5 221.25 L 210.0 217.5 " stroke="black" fill="none" stroke-width="6.0" stroke-linecap="round" stroke-linejoin="round" />
</svg>