<svg xmlns="http://www.w3.org/2000/svg" width="300" height="300" viewBox="0 0 300 300">
<path d="M 92.5 108.75 L 92.5 108.75 L 92.5 108.75 L 93.75 108.75 L 95.0 108.75 L 96.25 108.75 L 97.5 111.25 L 98.75 115.0 L 98.75 120.0 L 96.25 123.75 L 92.5 125.0 L 88.75 125.0 L 86.25 123.75 L 85.0 118.75 L 85.0 113.75 L 88.75 110.0 L 92.5 108.75 L 96.25 107.5 L 98.75 108.75 L 100.0 113.75 L 98.75 118.75 L 96.25 122.5 L 92.5 123.75 L 88.75 123.75 L 87.5 121.25 L 86.25 116.25 L 87.5 111.25 L 90.0 108.75 L 92.5 107.5 L 95.0 108.75 L 96.25 113.75 L 96.25 118.75 L 96.25 122.5 L 93.75 125.0 L 91.25 126.25 L 88.75 125.0 L 87.5 122.5 L 87.5 118.75 L 87.5 116.25 L 88.75 116.25 L 90.0 116.25 L 91.25 117.5 L 92.5 120.0 L 92.5 121.25 L 92.5 122.5 L 92.5 122.5 L 92.5 122.5 L 92.5 120.0 L 92.5 118.75 L 92.5 117.5 L 92.5 116.25 L 92.5 116.25 L 93.75 116.25 " stroke="black" fill="none" stroke-width="6.0" stroke-linecap="round" stroke-linejoin="round" />
<path d="M 208.75 123.75 L 208.75 123.75 L 208.75 122.5 L 208.75 121.25 L 208.75 120.0 L 207.5 118.75 L 207.5 116.25 L 207.5 113.75 L 207.5 111.25 L 210.0 110.0 L 212.5 110.0 L 215.0 111.25 L 216.25 116.25 L 217.5 121.25 L 215.0 126.25 L 212.5 130.0 L 207.5 130.0 L 205.0 130.0 L 202.5 126.25 L 201.25 121.25 L 201.25 116.25 L 203.75 111.25 L 207.5 108.75 L 211.25 108.75 L 213.75 108.75 L 216.25 111.25 L 216.25 115.0 L 216.25 117.5 L 213.75 120.0 L 210.0 121.25 L 207.5 121.25 L 206.25 121.25 L 205.0 120.0 L 205.0 116.25 L 206.25 113.75 L 208.75 113.75 L 210.0 112.5 L 212.5 116.25 L 212.5 120.0 L 212.5 125.0 L 211.25 127.5 L 207.5 130.0 L 205.0 130.0 L 203.75 130.0 L 203.75 127.5 L 203.75 125.0 " stroke="black" fill="none" stroke-width="6.0" stroke-linecap="round" stroke-linejoin="round" />
<path d="M 148.75 213.75 L 150.0 212.5 L 150.0 212.5 L 150.0 212.5 L 151.25 211.25 L 151.25 212.5 L 152.5 213.75 L 152.5 216.25 L 152.5 218.75 L 150.0 221.25 L 147.5 222.5 L 143.75 222.5 L 141.25 220.0 L 141.25 215.0 L 142.5 208.75 L 146.25 205.0 L 150.0 203.75 L 152.5 203.75 L 155.0 208.75 L 155.0 213.75 L 155.0 218.75 L 152.5 221.25 L 148.75 222.5 L 145.0 222.5 L 143.75 222.5 L 142.5 218.75 L 142.5 216.25 L 143.75 213.75 L 146.25 212.5 L 148.75 212.5 L 150.0 213.75 L 151.25 216.25 L 152.5 218.75 L 151.25 221.25 L 148.75 222.5 L 145.0 222.5 L 143.75 221.25 L 142.5 218.75 L 142.5 216.25 L 145.0 213.75 L 147.5 213.75 L 148.75 213.75 L 150.0 215.0 L 151.25 217.5 L 151.25 218.75 L 151.25 218.75 L 151.25 218.75 L 150.0 218.75 L 150.0 216.25 L 150.0 216.25 L 150.0 215.0 L 150.0 215.0 L 148.75 215.0 L 148.75 216.25 " stroke="black" fill="none" stroke-width="6.0" stroke-linecap="round" stroke-linejoin="round" />
<path d="M 147.5 212.5 L 147.5 212.5 L 147.5 212.5 L 146.25 211.25 L 146.25 210.0 L 146.25 208.75 L 146.25 207.5 L 146.25 207.5 L 146.25 206.25 L 145.0 206.25 L 145.0 210.0 L 145.0 213.75 L 145.0 217.5 L 146.25 220.0 L 146.25 220.0 L 147.5 220.0 L 148.75 217.5 L 150.0 213.75 L 150.0 212.5 L 151.25 211.25 L 151.25 210.0 L 151.25 210.0 L 151.25 210.0 L 150.0 211.25 L 150.0 212.5 L 148.75 212.5 L 148.75 213.75 " stroke="black" fill="none" stroke-width="6.0" stroke-linecap="round" stroke-linejoin="round" />
</svg>