<svg xmlns="http://www.w3.org/2000/svg" width="300" height="300" viewBox="0 0 300 300">
<path d="M 102.5 116.25 L 102.5 116.25 L 102.5 113.75 L 102.5 111.25 L 102.5 108.75 L 102.5 107.5 L 101.25 106.25 L 101.25 105.0 L 101.25 106.25 L 101.25 112.5 L 101.25 142.5 L 101.25 186.25 L 101.25 223.75 L 101.25 237.5 L 102.5 241.25 L 102.5 241.25 L 102.5 240.0 L 102.5 236.25 L 101.25 230.0 L 100.0 220.0 L 98.75 210.0 L 98.75 207.5 " stroke="black" fill="none" stroke-width="6.0" stroke-linecap="round" stroke-linejoin="round" />
<path d="M 100.0 106.25 L 100.0 106.25 L 100.0 106.25 L 98.75 107.5 L 98.75 107.5 L 98.75 107.5 L 101.25 107.5 L 107.5 107.5 L 126.25 107.5 L 150.0 106.25 L 171.25 103.75 L 187.5 102.5 L 195.0 101.25 L 198.75 101.25 L 200.0 101.25 L 200.0 101.25 L 200.0 101.25 L 200.0 101.25 L 200.0 101.25 L 200.0 101.25 L 200.0 101.25 L 200.0 101.25 L 200.0 101.25 L 200.0 101.25 L 200.0 101.25 L 200.0 101.25 L 200.0 103.75 L 200.0 107.5 L 198.75 120.0 L 196.25 140.0 L 193.75 163.75 L 193.75 187.5 L 193.75 202.5 L 195.0 210.0 L 195.0 215.0 L 196.25 220.0 L 196.25 223.75 L 196.25 227.5 L 196.25 230.0 L 196.25 231.25 L 196.25 231.25 L 196.25 231.25 L 196.25 231.25 L 196.25 231.25 L 196.25 230.0 L 196.25 230.0 " stroke="black" fill="none" stroke-width="6.0" stroke-linecap="round" stroke-linejoin="round" />
</svg>