<svg xmlns="http://www.w3.org/2000/svg" width="300" height="300" viewBox="0 0 300 300">
<path d="M 73.75 232.5 L 73.75 232.5 L 72.5 232.5 L 72.5 232.5 L 72.5 232.5 L 72.5 232.5 L 75.0 232.5 L 83.75 232.5 L 98.75 233.75 L 121.25 236.25 L 148.75 236.25 L 173.75 236.25 L 196.25 236.25 L 211.25 236.25 L 221.25 236.25 L 227.5 236.25 L 230.0 235.0 L 230.0 233.75 L 230.0 232.5 L 227.5 230.0 L 223.75 227.5 L 220.0 226.25 " stroke="black" fill="none" stroke-width="6.0" stroke-linecap="round" stroke-linejoin="round" />
<path d="M 150.0 92.5 L 150.0 92.5 L 151.25 90.0 L 151.25 90.0 L 151.25 88.75 L 152.5 90.0 L 153.75 93.75 L 155.0 105.0 L 155.0 117.5 L 155.0 145.0 L 156.25 161.25 L 156.25 182.5 L 156.25 195.0 L 156.25 203.75 L 156.25 210.0 L 156.25 215.0 L 156.25 218.75 L 156.25 221.25 L 156.25 223.75 L 156.25 226.25 L 156.25 230.0 L 156.25 233.75 L 156.25 236.25 L 156.25 238.75 L 156.25 241.25 L 156.25 242.5 L 155.0 242.5 L 155.0 242.5 L 155.0 243.75 L 155.0 245.0 L 155.0 246.25 L 153.75 246.25 L 153.75 246.25 L 153.75 246.25 " stroke="black" fill="none" stroke-width="6.0" stroke-linecap="round" stroke-linejoin="round" />
</svg>