<svg xmlns="http://www.w3.org/2000/svg" width="300" height="300" viewBox="0 0 300 300">
<path d="M 151.25 166.25 L 152.5 166.25 L 152.5 165.0 L 153.75 162.5 L 153.75 161.25 L 155.0 160.0 L 156.25 158.75 L 157.5 158.75 L 160.0 158.75 L 160.0 160.0 L 161.25 162.5 L 158.75 166.25 L 155.0 168.75 L 151.25 170.0 L 147.5 170.0 L 146.25 167.5 L 146.25 163.75 L 146.25 160.0 L 148.75 157.5 L 152.5 157.5 L 155.0 157.5 L 156.25 160.0 L 156.25 163.75 L 155.0 166.25 L 152.5 168.75 L 148.75 168.75 L 147.5 168.75 L 146.25 166.25 L 146.25 162.5 L 147.5 160.0 L 150.0 158.75 L 152.5 158.75 L 153.75 160.0 L 153.75 161.25 L 153.75 163.75 L 152.5 165.0 L 150.0 165.0 L 148.75 165.0 L 147.5 165.0 L 147.5 163.75 L 147.5 163.75 L 151.25 162.5 L 152.5 162.5 L 153.75 165.0 L 152.5 168.75 L 151.25 171.25 " stroke="black" fill="none" stroke-width="6.0" stroke-linecap="round" stroke-linejoin="round" />
<path d="M 108.75 201.25 L 106.25 201.25 L 105.0 201.25 L 102.5 201.25 L 101.25 201.25 L 100.0 201.25 L 98.75 201.25 L 97.5 200.0 L 96.25 198.75 L 95.0 196.25 L 93.75 195.0 L 91.25 192.5 L 90.0 188.75 L 88.75 185.0 L 87.5 180.0 L 86.25 175.0 L 86.25 168.75 L 86.25 161.25 L 86.25 156.25 L 86.25 150.0 L 87.5 146.25 L 88.75 141.25 L 90.0 137.5 L 91.25 133.75 L 93.75 130.0 L 96.25 126.25 L 98.75 122.5 L 101.25 120.0 L 105.0 116.25 L 110.0 111.25 L 113.75 107.5 L 120.0 103.75 L 125.0 101.25 L 131.25 97.5 L 136.25 96.25 L 141.25 93.75 L 145.0 91.25 L 148.75 90.0 L 153.75 88.75 L 157.5 88.75 L 162.5 88.75 L 168.75 90.0 L 176.25 91.25 L 183.75 93.75 L 190.0 95.0 L 195.0 98.75 L 198.75 102.5 L 202.5 106.25 L 206.25 110.0 L 208.75 115.0 L 211.25 120.0 L 212.5 123.75 L 215.0 127.5 L 216.25 130.0 L 217.5 133.75 L 218.75 136.25 L 220.0 140.0 L 221.25 142.5 L 222.5 145.0 L 223.75 148.75 L 223.75 151.25 L 223.75 155.0 L 223.75 157.5 L 223.75 161.25 L 223.75 165.0 L 223.75 168.75 L 222.5 171.25 L 222.5 175.0 L 221.25 178.75 L 218.75 182.5 L 217.5 186.25 L 216.25 190.0 L 215.0 192.5 L 213.75 195.0 L 212.5 197.5 L 211.25 200.0 L 210.0 202.5 L 208.75 205.0 L 207.5 206.25 L 206.25 207.5 L 203.75 210.0 L 202.5 211.25 L 200.0 213.75 L 197.5 215.0 L 195.0 217.5 L 191.25 218.75 L 188.75 221.25 L 185.0 223.75 L 182.5 226.25 L 180.0 227.5 L 176.25 228.75 L 173.75 230.0 L 170.0 231.25 L 167.5 232.5 L 165.0 232.5 L 162.5 233.75 L 160.0 233.75 L 157.5 233.75 L 155.0 235.0 L 153.75 235.0 L 151.25 235.0 L 148.75 235.0 L 146.25 235.0 L 143.75 235.0 L 141.25 235.0 L 138.75 235.0 L 137.5 233.75 L 135.0 233.75 L 133.75 232.5 L 131.25 231.25 L 128.75 230.0 L 125.0 227.5 L 122.5 226.25 L 120.0 223.75 L 116.25 221.25 L 112.5 218.75 L 110.0 217.5 L 107.5 215.0 L 105.0 213.75 L 102.5 212.5 L 101.25 211.25 L 98.75 208.75 L 98.75 207.5 L 98.75 206.25 L 97.5 203.75 L 97.5 201.25 L 96.25 200.0 " stroke="black" fill="none" stroke-width="6.0" stroke-linecap="round" stroke-linejoin="round" />
</svg>