<svg xmlns="http://www.w3.org/2000/svg" width="300" height="300" viewBox="0 0 300 300">
<path d="M 98.75 78.75 L 98.75 78.75 L 98.75 76.25 L 97.5 76.25 L 96.25 75.0 L 96.25 75.0 L 96.25 78.75 L 102.5 85.0 L 115.0 91.25 L 133.75 97.5 L 151.25 101.25 L 166.25 103.75 L 180.0 106.25 L 193.75 108.75 L 206.25 112.5 L 216.25 116.25 L 225.0 118.75 L 231.25 122.5 L 232.5 123.75 L 233.75 123.75 L 233.75 123.75 L 232.5 123.75 L 232.5 123.75 L 230.0 123.75 L 226.25 125.0 L 220.0 126.25 L 211.25 128.75 L 200.0 133.75 L 178.75 142.5 L 152.5 152.5 L 130.0 162.5 L 107.5 173.75 L 91.25 181.25 L 81.25 185.0 L 75.0 186.25 L 73.75 186.25 L 73.75 186.25 L 73.75 186.25 L 73.75 186.25 L 75.0 186.25 L 77.5 188.75 " stroke="black" fill="none" stroke-width="6.0" stroke-linecap="round" stroke-linejoin="round" />
<path d="M 102.5 216.25 L 101.25 217.5 L 98.75 217.5 L 96.25 217.5 L 95.0 217.5 L 95.0 217.5 L 101.25 217.5 L 115.0 217.5 L 136.25 217.5 L 160.0 216.25 L 183.75 213.75 L 202.5 211.25 L 212.5 210.0 L 218.75 208.75 L 220.0 208.75 L 220.0 208.75 L 218.75 208.75 L 215.0 208.75 L 207.5 210.0 L 202.5 211.25 " stroke="black" fill="none" stroke-width="6.0" stroke-linecap="round" stroke-linejoin="round" />
<path d="M 86.25 252.5 L 85.0 252.5 L 83.75 252.5 L 81.25 253.75 L 80.0 253.75 L 80.0 253.75 L 81.25 253.75 L 87.5 255.0 L 96.25 255.0 L 111.25 255.0 L 132.5 255.0 L 152.5 252.5 L 171.25 250.0 L 186.25 250.0 L 201.25 250.0 L 212.5 251.25 L 222.5 252.5 L 231.25 253.75 L 240.0 253.75 L 245.0 253.75 L 247.5 253.75 L 247.5 252.5 L 247.5 252.5 L 246.25 252.5 " stroke="black" fill="none" stroke-width="6.0" stroke-linecap="round" stroke-linejoin="round" />
</svg>