<svg xmlns="http://www.w3.org/2000/svg" width="300" height="300" viewBox="0 0 300 300">
<path d="M 93.75 142.5 L 90.0 142.5 L 85.0 142.5 L 82.5 142.5 L 81.25 143.75 L 82.5 143.75 L 91.25 143.75 L 108.75 143.75 L 132.5 143.75 L 162.5 141.25 L 193.75 140.0 L 215.0 137.5 L 228.75 136.25 L 235.0 136.25 L 235.0 136.25 L 232.5 136.25 L 223.75 136.25 L 212.5 137.5 " stroke="black" fill="none" stroke-width="6.0" stroke-linecap="round" stroke-linejoin="round" />
<path d="M 80.0 192.5 L 78.75 192.5 L 76.25 193.75 L 73.75 195.0 L 73.75 195.0 L 75.0 195.0 L 82.5 195.0 L 96.25 195.0 L 120.0 191.25 L 152.5 186.25 L 186.25 181.25 L 210.0 180.0 L 227.5 180.0 L 236.25 180.0 L 237.5 180.0 L 237.5 180.0 L 230.0 178.75 " stroke="black" fill="none" stroke-width="6.0" stroke-linecap="round" stroke-linejoin="round" />
<path d="M 181.25 98.75 L 182.5 98.75 L 183.75 97.5 L 185.0 97.5 L 180.0 116.25 L 163.75 157.5 L 146.25 205.0 L 133.75 230.0 L 128.75 237.5 L 127.5 238.75 L 127.5 237.5 L 128.75 227.5 L 133.75 211.25 " stroke="black" fill="none" stroke-width="6.0" stroke-linecap="round" stroke-linejoin="round" />
</svg>