<svg xmlns="http://www.w3.org/2000/svg" width="300" height="300" viewBox="0 0 300 300">
<path d="M 192.5 75.0 L 192.5 73.75 L 192.5 73.75 L 192.5 73.75 L 192.5 73.75 L 192.5 72.5 L 192.5 72.5 L 191.25 71.25 L 191.25 71.25 L 188.75 70.0 L 185.0 70.0 L 180.0 70.0 L 172.5 72.5 L 166.25 76.25 L 161.25 78.75 L 157.5 81.25 L 155.0 83.75 L 153.75 86.25 L 153.75 90.0 L 153.75 93.75 L 153.75 97.5 L 153.75 103.75 L 153.75 110.0 L 153.75 116.25 L 153.75 123.75 L 153.75 131.25 L 153.75 138.75 L 153.75 146.25 L 153.75 152.5 L 152.5 158.75 L 152.5 166.25 L 152.5 172.5 L 152.5 178.75 L 152.5 186.25 L 152.5 191.25 L 151.25 196.25 L 151.25 201.25 L 151.25 205.0 L 150.0 210.0 L 150.0 213.75 L 150.0 218.75 L 148.75 223.75 L 148.75 228.75 L 147.5 233.75 L 147.5 236.25 L 147.5 238.75 L 147.5 240.0 L 146.25 241.25 L 145.0 242.5 L 143.75 243.75 L 142.5 246.25 L 141.25 248.75 L 138.75 251.25 L 137.5 252.5 L 133.75 253.75 L 131.25 256.25 L 128.75 257.5 L 125.0 258.75 L 122.5 258.75 L 120.0 260.0 L 117.5 260.0 L 116.25 260.0 L 113.75 260.0 L 111.25 260.0 L 110.0 260.0 L 108.75 258.75 L 108.75 257.5 " stroke="black" fill="none" stroke-width="6.0" stroke-linecap="round" stroke-linejoin="round" />
<path d="M 140.0 182.5 L 140.0 182.5 L 137.5 182.5 L 136.25 182.5 L 133.75 182.5 L 132.5 182.5 L 132.5 181.25 L 131.25 178.75 L 131.25 177.5 L 130.0 175.0 L 130.0 172.5 L 128.75 170.0 L 128.75 167.5 L 128.75 166.25 L 128.75 163.75 L 128.75 161.25 L 128.75 160.0 L 128.75 157.5 L 128.75 155.0 L 128.75 153.75 L 128.75 151.25 L 130.0 150.0 L 132.5 147.5 L 133.75 145.0 L 136.25 143.75 L 137.5 141.25 L 140.0 140.0 L 142.5 137.5 L 145.0 136.25 L 147.5 135.0 L 150.0 132.5 L 152.5 131.25 L 156.25 130.0 L 158.75 128.75 L 160.0 128.75 L 163.75 128.75 L 166.25 130.0 L 168.75 132.5 L 172.5 135.0 L 175.0 137.5 L 177.5 140.0 L 180.0 142.5 L 182.5 145.0 L 183.75 147.5 L 185.0 150.0 L 185.0 152.5 L 185.0 155.0 L 185.0 158.75 L 185.0 162.5 L 183.75 166.25 L 182.5 170.0 L 181.25 173.75 L 178.75 177.5 L 177.5 181.25 L 176.25 183.75 L 173.75 186.25 L 171.25 187.5 L 170.0 188.75 L 167.5 190.0 L 163.75 190.0 L 161.25 191.25 L 158.75 192.5 L 155.0 192.5 L 152.5 192.5 L 150.0 192.5 L 147.5 192.5 L 146.25 192.5 L 143.75 192.5 L 141.25 190.0 L 138.75 188.75 L 136.25 187.5 L 133.75 185.0 L 132.5 183.75 L 132.5 180.0 L 132.5 176.25 " stroke="black" fill="none" stroke-width="6.0" stroke-linecap="round" stroke-linejoin="round" />
</svg>