<svg xmlns="http://www.w3.org/2000/svg" width="300" height="300" viewBox="0 0 300 300">
<path d="M 80.0 131.25 L 77.5 131.25 L 76.25 131.25 L 73.75 131.25 L 73.75 131.25 L 73.75 131.25 L 73.75 131.25 L 76.25 131.25 L 81.25 131.25 L 87.5 131.25 L 96.25 131.25 L 110.0 131.25 L 130.0 131.25 L 151.25 128.75 L 172.5 126.25 L 195.0 125.0 L 208.75 123.75 L 216.25 123.75 L 218.75 123.75 L 218.75 123.75 L 218.75 123.75 L 218.75 123.75 L 217.5 123.75 L 212.5 125.0 " stroke="black" fill="none" stroke-width="6.0" stroke-linecap="round" stroke-linejoin="round" />
<path d="M 90.0 170.0 L 90.0 170.0 L 87.5 171.25 L 85.0 171.25 L 85.0 171.25 L 83.75 171.25 L 86.25 171.25 L 92.5 171.25 L 103.75 171.25 L 123.75 171.25 L 147.5 170.0 L 168.75 167.5 L 186.25 165.0 L 198.75 165.0 L 205.0 165.0 L 205.0 165.0 L 205.0 165.0 L 202.5 167.5 L 198.75 170.0 " stroke="black" fill="none" stroke-width="6.0" stroke-linecap="round" stroke-linejoin="round" />
<path d="M 82.5 220.0 L 80.0 221.25 L 76.25 221.25 L 75.0 221.25 L 75.0 221.25 L 78.75 221.25 L 91.25 220.0 L 112.5 217.5 L 140.0 215.0 L 163.75 215.0 L 187.5 218.75 L 206.25 222.5 L 220.0 223.75 L 231.25 225.0 L 238.75 225.0 L 240.0 225.0 L 240.0 226.25 L 240.0 226.25 L 237.5 226.25 L 236.25 226.25 " stroke="black" fill="none" stroke-width="6.0" stroke-linecap="round" stroke-linejoin="round" />
</svg>