<svg xmlns="http://www.w3.org/2000/svg" width="300" height="300" viewBox="0 0 300 300">
<path d="M 48.75 228.75 L 45.0 232.5 L 41.25 232.5 L 40.0 230.0 L 41.25 220.0 L 47.5 210.0 L 55.0 201.25 L 61.25 198.75 L 66.25 197.5 L 70.0 203.75 L 76.25 215.0 L 82.5 231.25 L 91.25 247.5 L 98.75 257.5 L 105.0 261.25 L 107.5 261.25 L 107.5 260.0 L 107.5 256.25 L 107.5 246.25 L 107.5 231.25 L 110.0 208.75 L 116.25 177.5 L 125.0 146.25 L 133.75 122.5 L 140.0 103.75 L 143.75 93.75 L 145.0 88.75 L 146.25 87.5 L 146.25 86.25 L 146.25 85.0 L 146.25 85.0 L 147.5 85.0 L 147.5 83.75 L 147.5 83.75 L 147.5 83.75 L 147.5 83.75 L 147.5 83.75 L 150.0 83.75 L 156.25 83.75 L 170.0 85.0 L 192.5 87.5 L 218.75 87.5 L 246.25 87.5 L 265.0 87.5 L 275.0 87.5 L 278.75 87.5 L 277.5 87.5 L 275.0 87.5 L 267.5 90.0 L 265.0 90.0 " stroke="black" fill="none" stroke-width="6.0" stroke-linecap="round" stroke-linejoin="round" />
</svg>