<svg xmlns="http://www.w3.org/2000/svg" width="300" height="300" viewBox="0 0 300 300">
<path d="M 148.75 122.5 L 148.75 122.5 L 148.75 118.75 L 148.75 116.25 L 148.75 115.0 L 148.75 112.5 L 150.0 112.5 L 152.5 112.5 L 155.0 115.0 L 156.25 118.75 L 156.25 123.75 L 153.75 126.25 L 151.25 127.5 L 147.5 127.5 L 145.0 125.0 L 143.75 121.25 L 143.75 115.0 L 145.0 111.25 L 147.5 108.75 L 151.25 108.75 L 153.75 111.25 L 155.0 115.0 L 155.0 118.75 L 155.0 121.25 L 152.5 122.5 L 150.0 122.5 L 148.75 122.5 L 147.5 120.0 L 147.5 117.5 L 148.75 115.0 L 150.0 115.0 L 152.5 115.0 L 153.75 117.5 L 155.0 121.25 L 153.75 125.0 L 152.5 127.5 L 150.0 128.75 L 147.5 127.5 L 146.25 125.0 L 146.25 120.0 L 147.5 116.25 L 150.0 113.75 L 152.5 112.5 L 153.75 113.75 L 155.0 116.25 L 155.0 121.25 L 152.5 126.25 L 150.0 127.5 " stroke="black" fill="none" stroke-width="6.0" stroke-linecap="round" stroke-linejoin="round" />
<path d="M 98.75 213.75 L 98.75 213.75 L 98.75 215.0 L 98.75 215.0 L 98.75 215.0 L 98.75 216.25 L 101.25 217.5 L 103.75 218.75 L 105.0 220.0 L 103.75 222.5 L 101.25 223.75 L 98.75 225.0 L 95.0 223.75 L 93.75 220.0 L 93.75 216.25 L 95.0 211.25 L 98.75 208.75 L 101.25 208.75 L 103.75 208.75 L 103.75 212.5 L 103.75 217.5 L 102.5 221.25 L 98.75 223.75 L 96.25 223.75 L 95.0 223.75 L 95.0 220.0 L 95.0 215.0 L 97.5 212.5 L 100.0 210.0 L 101.25 210.0 L 102.5 211.25 L 103.75 215.0 L 102.5 218.75 L 101.25 221.25 L 98.75 221.25 L 96.25 222.5 L 95.0 221.25 L 95.0 217.5 L 95.0 215.0 L 96.25 212.5 L 98.75 212.5 L 101.25 212.5 L 102.5 216.25 L 102.5 218.75 L 102.5 221.25 L 100.0 222.5 L 96.25 222.5 L 95.0 222.5 L 93.75 220.0 L 93.75 218.75 " stroke="black" fill="none" stroke-width="6.0" stroke-linecap="round" stroke-linejoin="round" />
<path d="M 206.25 216.25 L 205.0 216.25 L 203.75 216.25 L 203.75 216.25 L 202.5 216.25 L 202.5 215.0 L 203.75 213.75 L 207.5 213.75 L 210.0 213.75 L 210.0 216.25 L 211.25 218.75 L 208.75 222.5 L 206.25 225.0 L 202.5 226.25 L 200.0 225.0 L 200.0 221.25 L 200.0 216.25 L 202.5 211.25 L 205.0 208.75 L 207.5 208.75 L 210.0 208.75 L 211.25 211.25 L 211.25 215.0 L 208.75 218.75 L 206.25 220.0 L 203.75 221.25 L 201.25 221.25 L 201.25 218.75 L 201.25 215.0 L 203.75 211.25 L 205.0 210.0 L 207.5 210.0 L 208.75 211.25 L 210.0 215.0 L 210.0 218.75 L 208.75 221.25 L 206.25 222.5 L 202.5 222.5 L 201.25 222.5 L 200.0 220.0 L 200.0 216.25 L 201.25 213.75 L 202.5 211.25 L 206.25 211.25 L 207.5 212.5 L 208.75 217.5 " stroke="black" fill="none" stroke-width="6.0" stroke-linecap="round" stroke-linejoin="round" />
</svg>