<svg xmlns="http://www.w3.org/2000/svg" width="300" height="300" viewBox="0 0 300 300">
<path d="M 211.25 108.75 L 211.25 108.75 L 211.25 108.75 L 211.25 107.5 L 211.25 106.25 L 211.25 105.0 L 211.25 101.25 L 213.75 97.5 L 217.5 91.25 L 220.0 87.5 L 221.25 85.0 L 221.25 85.0 L 218.75 86.25 L 212.5 92.5 L 205.0 101.25 L 196.25 113.75 L 183.75 127.5 L 170.0 138.75 L 158.75 147.5 L 148.75 156.25 L 141.25 165.0 L 133.75 175.0 L 127.5 182.5 L 121.25 188.75 L 115.0 193.75 L 108.75 200.0 L 102.5 207.5 L 97.5 212.5 L 93.75 218.75 L 88.75 226.25 L 85.0 232.5 L 83.75 236.25 L 82.5 237.5 L 82.5 237.5 L 82.5 237.5 L 82.5 237.5 L 82.5 237.5 L 82.5 237.5 L 82.5 237.5 L 82.5 237.5 L 82.5 237.5 L 82.5 237.5 L 82.5 237.5 L 82.5 237.5 L 85.0 237.5 L 87.5 237.5 L 91.25 237.5 L 97.5 237.5 L 103.75 236.25 L 108.75 236.25 L 113.75 235.0 L 118.75 233.75 L 123.75 233.75 L 128.75 232.5 L 135.0 232.5 L 140.0 231.25 L 143.75 231.25 L 147.5 231.25 L 151.25 231.25 L 153.75 231.25 L 157.5 231.25 L 162.5 231.25 L 166.25 231.25 L 171.25 231.25 L 177.5 231.25 L 182.5 231.25 L 186.25 231.25 L 191.25 231.25 L 196.25 231.25 L 200.0 232.5 L 205.0 232.5 L 207.5 233.75 L 211.25 233.75 L 213.75 235.0 L 216.25 235.0 L 216.25 235.0 L 217.5 235.0 L 217.5 235.0 L 218.75 235.0 L 218.75 235.0 L 220.0 233.75 L 220.0 233.75 L 221.25 233.75 L 221.25 232.5 L 221.25 232.5 L 221.25 231.25 L 221.25 230.0 L 221.25 228.75 L 221.25 226.25 L 221.25 225.0 L 221.25 221.25 L 221.25 218.75 L 221.25 215.0 L 221.25 211.25 L 221.25 207.5 L 221.25 203.75 L 220.0 200.0 L 218.75 195.0 L 218.75 191.25 L 218.75 186.25 L 218.75 180.0 L 217.5 175.0 L 217.5 168.75 L 217.5 162.5 L 217.5 156.25 L 217.5 150.0 L 218.75 145.0 L 218.75 138.75 L 218.75 135.0 L 218.75 130.0 L 218.75 125.0 L 218.75 121.25 L 218.75 117.5 L 218.75 112.5 L 218.75 108.75 L 218.75 103.75 L 218.75 100.0 L 218.75 97.5 L 218.75 93.75 L 218.75 92.5 L 220.0 90.0 L 220.0 88.75 L 221.25 87.5 L 221.25 87.5 L 222.5 86.25 L 222.5 86.25 L 222.5 86.25 L 218.75 87.5 " stroke="black" fill="none" stroke-width="6.0" stroke-linecap="round" stroke-linejoin="round" />
</svg>