<svg xmlns="http://www.w3.org/2000/svg" width="300" height="300" viewBox="0 0 300 300">
<path d="M 71.25 93.75 L 70.0 93.75 L 68.75 93.75 L 67.5 93.75 L 67.5 93.75 L 67.5 95.0 L 67.5 95.0 L 68.75 97.5 L 70.0 100.0 L 71.25 106.25 L 71.25 116.25 L 71.25 130.0 L 71.25 148.75 L 71.25 167.5 L 71.25 186.25 L 71.25 202.5 L 71.25 213.75 L 71.25 225.0 L 71.25 233.75 L 71.25 238.75 L 71.25 241.25 L 71.25 243.75 L 71.25 243.75 L 71.25 243.75 L 71.25 243.75 L 71.25 243.75 L 71.25 243.75 L 71.25 243.75 L 71.25 243.75 L 71.25 243.75 L 71.25 243.75 L 72.5 243.75 L 73.75 243.75 L 76.25 243.75 L 80.0 243.75 L 83.75 243.75 L 87.5 243.75 L 91.25 243.75 L 93.75 243.75 L 97.5 243.75 L 100.0 243.75 L 103.75 243.75 L 107.5 243.75 L 112.5 243.75 L 116.25 243.75 L 121.25 243.75 L 125.0 243.75 L 130.0 243.75 L 135.0 243.75 L 140.0 243.75 L 146.25 243.75 L 152.5 242.5 L 157.5 242.5 L 163.75 242.5 L 170.0 242.5 L 175.0 243.75 L 182.5 243.75 L 188.75 245.0 L 196.25 246.25 L 201.25 246.25 L 207.5 246.25 L 211.25 245.0 L 215.0 243.75 L 218.75 242.5 L 220.0 241.25 L 221.25 241.25 L 221.25 241.25 L 222.5 241.25 L 222.5 241.25 L 222.5 241.25 " stroke="black" fill="none" stroke-width="6.0" stroke-linecap="round" stroke-linejoin="round" />
<path d="M 72.5 90.0 L 70.0 91.25 L 67.5 91.25 L 66.25 91.25 L 65.0 91.25 L 65.0 91.25 L 65.0 91.25 L 68.75 91.25 L 73.75 91.25 L 80.0 91.25 L 87.5 91.25 L 96.25 90.0 L 106.25 90.0 L 117.5 90.0 L 127.5 88.75 L 140.0 88.75 L 151.25 88.75 L 162.5 88.75 L 176.25 88.75 L 188.75 90.0 L 198.75 90.0 L 205.0 90.0 L 208.75 90.0 L 212.5 90.0 L 213.75 90.0 L 215.0 90.0 L 216.25 90.0 L 216.25 90.0 L 216.25 90.0 L 216.25 90.0 L 216.25 90.0 L 216.25 90.0 L 216.25 91.25 L 216.25 91.25 L 216.25 92.5 L 216.25 95.0 L 217.5 100.0 L 217.5 110.0 L 217.5 125.0 L 217.5 137.5 L 217.5 150.0 L 217.5 160.0 L 217.5 170.0 L 217.5 181.25 L 217.5 188.75 L 216.25 195.0 L 216.25 200.0 L 215.0 206.25 L 215.0 211.25 L 215.0 216.25 L 215.0 220.0 L 215.0 223.75 L 215.0 227.5 L 215.0 228.75 L 215.0 231.25 L 215.0 232.5 L 215.0 235.0 L 215.0 237.5 L 215.0 240.0 L 215.0 243.75 L 215.0 246.25 L 215.0 248.75 L 215.0 248.75 L 215.0 250.0 L 215.0 250.0 L 215.0 247.5 " stroke="black" fill="none" stroke-width="6.0" stroke-linecap="round" stroke-linejoin="round" />
</svg>