<svg xmlns="http://www.w3.org/2000/svg" width="300" height="300" viewBox="0 0 300 300">
<path d="M 70.0 96.25 L 68.75 96.25 L 66.25 97.5 L 65.0 97.5 L 63.75 97.5 L 65.0 100.0 L 68.75 102.5 L 73.75 106.25 L 77.5 112.5 L 82.5 118.75 L 87.5 126.25 L 90.0 135.0 L 93.75 145.0 L 96.25 152.5 L 100.0 162.5 L 103.75 172.5 L 108.75 183.75 L 115.0 193.75 L 118.75 203.75 L 123.75 212.5 L 127.5 221.25 L 130.0 228.75 L 131.25 236.25 L 133.75 240.0 L 135.0 242.5 L 136.25 243.75 L 137.5 245.0 L 137.5 245.0 L 138.75 246.25 L 138.75 246.25 L 140.0 246.25 L 141.25 246.25 L 142.5 246.25 L 142.5 246.25 L 143.75 246.25 L 145.0 245.0 L 146.25 243.75 L 147.5 242.5 L 150.0 238.75 L 152.5 233.75 L 155.0 226.25 L 160.0 218.75 L 165.0 208.75 L 171.25 197.5 L 178.75 185.0 L 187.5 172.5 L 195.0 160.0 L 201.25 150.0 L 206.25 141.25 L 210.0 133.75 L 215.0 125.0 L 218.75 116.25 L 222.5 108.75 L 225.0 103.75 L 227.5 101.25 L 228.75 98.75 L 231.25 96.25 L 231.25 96.25 L 232.5 95.0 L 232.5 95.0 L 232.5 95.0 L 231.25 95.0 L 228.75 95.0 L 226.25 95.0 L 221.25 93.75 L 215.0 93.75 L 208.75 93.75 L 202.5 93.75 L 196.25 93.75 L 188.75 93.75 L 182.5 93.75 L 175.0 95.0 L 170.0 95.0 L 163.75 95.0 L 157.5 95.0 L 151.25 95.0 L 147.5 95.0 L 142.5 95.0 L 138.75 95.0 L 133.75 95.0 L 128.75 95.0 L 123.75 95.0 L 118.75 95.0 L 112.5 95.0 L 107.5 93.75 L 103.75 93.75 L 100.0 93.75 L 97.5 93.75 L 96.25 93.75 L 93.75 93.75 L 92.5 93.75 L 90.0 93.75 L 87.5 93.75 L 83.75 93.75 L 80.0 93.75 L 76.25 95.0 L 73.75 95.0 L 71.25 96.25 L 68.75 96.25 L 66.25 96.25 L 63.75 96.25 L 62.5 96.25 L 61.25 96.25 " stroke="black" fill="none" stroke-width="6.0" stroke-linecap="round" stroke-linejoin="round" />
</svg>