<svg xmlns="http://www.w3.org/2000/svg" width="300" height="300" viewBox="0 0 300 300">
<path d="M 83.75 86.25 L 82.5 86.25 L 82.5 86.25 L 81.25 85.0 L 81.25 85.0 L 81.25 85.0 L 81.25 83.75 L 81.25 83.75 L 81.25 83.75 L 81.25 83.75 L 81.25 83.75 L 81.25 83.75 L 82.5 85.0 L 82.5 88.75 L 83.75 97.5 L 83.75 108.75 L 83.75 123.75 L 83.75 136.25 L 83.75 147.5 L 83.75 156.25 L 85.0 165.0 L 85.0 172.5 L 85.0 181.25 L 85.0 187.5 L 85.0 193.75 L 86.25 200.0 L 86.25 206.25 L 86.25 213.75 L 86.25 218.75 L 86.25 225.0 L 86.25 230.0 L 86.25 232.5 L 86.25 235.0 L 86.25 235.0 L 86.25 235.0 L 86.25 235.0 L 86.25 236.25 L 85.0 236.25 L 85.0 238.75 L 85.0 241.25 L 85.0 243.75 L 85.0 246.25 L 85.0 247.5 L 85.0 248.75 L 85.0 250.0 L 85.0 250.0 L 85.0 248.75 L 86.25 247.5 L 88.75 243.75 L 92.5 240.0 L 95.0 236.25 L 98.75 231.25 L 103.75 227.5 L 108.75 222.5 L 115.0 218.75 L 121.25 215.0 L 127.5 211.25 L 133.75 207.5 L 140.0 205.0 L 145.0 201.25 L 150.0 198.75 L 155.0 195.0 L 161.25 192.5 L 166.25 188.75 L 172.5 185.0 L 177.5 182.5 L 183.75 180.0 L 187.5 177.5 L 192.5 175.0 L 196.25 172.5 L 198.75 171.25 L 202.5 168.75 L 205.0 167.5 L 207.5 165.0 L 210.0 163.75 L 211.25 162.5 L 213.75 161.25 L 215.0 160.0 L 217.5 158.75 L 220.0 157.5 L 220.0 157.5 L 220.0 157.5 L 220.0 157.5 L 220.0 157.5 L 220.0 157.5 L 220.0 157.5 L 218.75 157.5 " stroke="black" fill="none" stroke-width="20.0" stroke-linecap="round" stroke-linejoin="round" />
<path d="M 96.25 93.75 L 96.25 93.75 L 98.75 95.0 L 101.25 97.5 L 105.0 98.75 L 110.0 101.25 L 113.75 103.75 L 118.75 106.25 L 122.5 108.75 L 127.5 110.0 L 131.25 112.5 L 135.0 115.0 L 140.0 116.25 L 143.75 118.75 L 147.5 121.25 L 151.25 123.75 L 155.0 125.0 L 158.75 127.5 L 162.5 130.0 L 166.25 131.25 L 170.0 133.75 L 175.0 135.0 L 178.75 137.5 L 182.5 138.75 L 186.25 140.0 L 190.0 141.25 L 193.75 142.5 L 196.25 143.75 L 198.75 145.0 L 200.0 146.25 L 202.5 147.5 L 203.75 148.75 L 206.25 148.75 L 207.5 150.0 L 208.75 150.0 L 210.0 151.25 L 210.0 151.25 L 211.25 151.25 L 212.5 152.5 L 212.5 152.5 " stroke="black" fill="none" stroke-width="20.0" stroke-linecap="round" stroke-linejoin="round" />
<path d="M 197.5 168.75 L 197.5 168.75 L 197.5 167.5 L 198.75 165.0 L 198.75 163.75 L 198.75 162.5 L 200.0 161.25 L 200.0 160.0 L 200.0 160.0 L 200.0 158.75 L 198.75 158.75 L 191.25 161.25 L 178.75 167.5 L 161.25 176.25 L 143.75 185.0 L 127.5 193.75 L 115.0 198.75 L 106.25 202.5 L 103.75 205.0 L 101.25 206.25 L 101.25 206.25 L 101.25 206.25 L 103.75 206.25 L 110.0 202.5 L 121.25 196.25 L 133.75 187.5 L 151.25 173.75 L 168.75 160.0 L 178.75 153.75 L 180.0 153.75 L 176.25 156.25 L 163.75 165.0 L 147.5 180.0 L 127.5 197.5 L 106.25 213.75 L 95.0 223.75 L 95.0 223.75 L 97.5 221.25 L 107.5 213.75 L 122.5 202.5 L 137.5 190.0 L 153.75 172.5 L 166.25 155.0 L 172.5 147.5 L 173.75 147.5 L 166.25 151.25 L 152.5 161.25 L 137.5 175.0 L 120.0 188.75 L 106.25 197.5 L 102.5 200.0 L 106.25 198.75 L 120.0 191.25 L 138.75 180.0 L 155.0 166.25 L 165.0 152.5 L 167.5 147.5 L 162.5 148.75 L 150.0 157.5 L 133.75 171.25 L 117.5 186.25 L 106.25 196.25 L 103.75 197.5 L 106.25 197.5 L 117.5 190.0 L 133.75 178.75 L 146.25 165.0 L 151.25 153.75 L 152.5 148.75 L 147.5 148.75 L 137.5 157.5 L 121.25 172.5 L 106.25 186.25 L 97.5 193.75 L 97.5 195.0 L 105.0 188.75 L 120.0 178.75 L 133.75 166.25 L 146.25 152.5 L 150.0 145.0 L 150.0 143.75 L 142.5 147.5 L 131.25 157.5 L 120.0 168.75 L 110.0 177.5 L 107.5 181.25 L 110.0 180.0 L 122.5 171.25 L 136.25 160.0 L 147.5 148.75 L 152.5 140.0 L 151.25 138.75 L 143.75 141.25 L 131.25 151.25 L 120.0 162.5 L 110.0 171.25 L 106.25 175.0 L 107.5 176.25 L 116.25 172.5 L 127.5 163.75 L 138.75 153.75 L 145.0 145.0 L 147.5 140.0 L 142.5 140.0 L 130.0 147.5 L 115.0 161.25 L 102.5 176.25 L 96.25 183.75 L 96.25 183.75 L 105.0 178.75 L 117.5 167.5 L 128.75 155.0 L 137.5 143.75 L 138.75 136.25 L 136.25 133.75 L 127.5 136.25 L 115.0 146.25 L 103.75 158.75 L 96.25 167.5 L 93.75 171.25 L 98.75 170.0 L 108.75 162.5 L 120.0 152.5 L 130.0 142.5 L 136.25 133.75 L 136.25 128.75 L 131.25 128.75 L 121.25 136.25 L 108.75 147.5 L 100.0 158.75 L 96.25 165.0 L 96.25 166.25 L 101.25 163.75 L 107.5 156.25 L 115.0 147.5 L 120.0 140.0 L 121.25 132.5 L 118.75 128.75 L 112.5 127.5 L 106.25 131.25 L 98.75 140.0 L 95.0 147.5 L 93.75 151.25 L 93.75 152.5 L 96.25 152.5 L 98.75 148.75 L 101.25 143.75 L 101.25 137.5 L 102.5 132.5 L 102.5 128.75 L 101.25 126.25 L 100.0 125.0 L 98.75 123.75 L 98.75 123.75 L 97.5 125.0 L 97.5 127.5 L 97.5 130.0 L 97.5 132.5 L 98.75 133.75 L 98.75 133.75 L 100.0 133.75 L 100.0 133.75 L 100.0 130.0 L 100.0 125.0 L 97.5 120.0 L 96.25 115.0 L 95.0 111.25 L 95.0 110.0 L 96.25 110.0 L 100.0 112.5 L 105.0 118.75 L 111.25 126.25 L 116.25 131.25 L 118.75 135.0 L 120.0 135.0 L 118.75 135.0 L 115.0 132.5 L 111.25 128.75 L 107.5 125.0 L 103.75 121.25 L 101.25 118.75 L 100.0 117.5 L 98.75 116.25 L 101.25 116.25 L 107.5 116.25 L 113.75 117.5 L 120.0 120.0 " stroke="black" fill="none" stroke-width="20.0" stroke-linecap="round" stroke-linejoin="round" />
</svg>