<svg xmlns="http://www.w3.org/2000/svg" width="300" height="300" viewBox="0 0 300 300">
<path d="M 220.0 81.25 L 220.0 81.25 L 220.0 81.25 L 218.75 80.0 L 217.5 80.0 L 216.25 80.0 L 215.0 81.25 L 211.25 83.75 L 206.25 87.5 L 200.0 92.5 L 186.25 102.5 L 173.75 108.75 L 161.25 116.25 L 150.0 122.5 L 142.5 127.5 L 135.0 132.5 L 127.5 136.25 L 121.25 138.75 L 113.75 141.25 L 107.5 145.0 L 103.75 146.25 L 100.0 148.75 L 97.5 151.25 L 95.0 152.5 L 92.5 155.0 L 91.25 155.0 L 90.0 156.25 L 88.75 156.25 L 88.75 157.5 L 87.5 158.75 L 86.25 160.0 L 85.0 161.25 L 83.75 162.5 L 83.75 162.5 L 82.5 163.75 L 82.5 163.75 L 82.5 163.75 L 83.75 165.0 L 86.25 166.25 L 88.75 167.5 L 92.5 170.0 L 96.25 172.5 L 102.5 176.25 L 110.0 180.0 L 117.5 183.75 L 126.25 187.5 L 133.75 190.0 L 140.0 192.5 L 146.25 195.0 L 151.25 197.5 L 156.25 201.25 L 162.5 203.75 L 168.75 207.5 L 173.75 210.0 L 181.25 211.25 L 187.5 213.75 L 192.5 216.25 L 198.75 218.75 L 202.5 220.0 L 206.25 222.5 L 210.0 223.75 L 212.5 226.25 L 215.0 227.5 L 217.5 228.75 L 220.0 230.0 L 221.25 230.0 L 221.25 230.0 L 222.5 230.0 L 222.5 230.0 L 222.5 230.0 L 222.5 230.0 L 223.75 230.0 L 223.75 230.0 L 223.75 230.0 L 223.75 228.75 L 223.75 227.5 L 223.75 223.75 L 223.75 220.0 L 221.25 212.5 L 220.0 202.5 L 218.75 192.5 L 217.5 182.5 L 217.5 171.25 L 217.5 160.0 L 217.5 151.25 L 217.5 142.5 L 218.75 135.0 L 218.75 127.5 L 218.75 118.75 L 218.75 111.25 L 218.75 103.75 L 218.75 97.5 L 217.5 91.25 L 217.5 86.25 L 218.75 82.5 L 218.75 78.75 L 218.75 77.5 L 218.75 76.25 L 218.75 76.25 L 218.75 76.25 L 218.75 76.25 L 218.75 76.25 L 217.5 80.0 " stroke="black" fill="none" stroke-width="6.0" stroke-linecap="round" stroke-linejoin="round" />
</svg>