<svg xmlns="http://www.w3.org/2000/svg" width="300" height="300" viewBox="0 0 300 300">
<path d="M 152.5 85.0 L 152.5 83.75 L 152.5 82.5 L 151.25 81.25 L 151.25 81.25 L 151.25 81.25 L 151.25 81.25 L 150.0 82.5 L 148.75 85.0 L 147.5 88.75 L 143.75 93.75 L 140.0 101.25 L 135.0 110.0 L 130.0 120.0 L 123.75 130.0 L 117.5 138.75 L 112.5 146.25 L 106.25 153.75 L 101.25 162.5 L 96.25 173.75 L 91.25 185.0 L 86.25 193.75 L 81.25 201.25 L 76.25 208.75 L 71.25 216.25 L 66.25 225.0 L 62.5 232.5 L 60.0 236.25 L 60.0 238.75 L 60.0 238.75 L 60.0 238.75 L 60.0 238.75 L 60.0 238.75 L 60.0 238.75 L 60.0 238.75 L 60.0 238.75 L 60.0 238.75 L 60.0 238.75 L 61.25 240.0 L 63.75 240.0 L 66.25 241.25 L 70.0 241.25 L 75.0 242.5 L 81.25 243.75 L 87.5 243.75 L 93.75 243.75 L 100.0 243.75 L 106.25 242.5 L 111.25 241.25 L 117.5 241.25 L 123.75 240.0 L 131.25 238.75 L 140.0 237.5 L 147.5 237.5 L 155.0 236.25 L 161.25 236.25 L 170.0 236.25 L 177.5 236.25 L 186.25 237.5 L 195.0 237.5 L 202.5 237.5 L 210.0 236.25 L 217.5 236.25 L 223.75 236.25 L 232.5 236.25 L 240.0 236.25 L 245.0 236.25 L 248.75 236.25 L 251.25 237.5 L 251.25 237.5 L 251.25 237.5 L 251.25 237.5 L 251.25 237.5 L 250.0 237.5 L 250.0 237.5 L 248.75 236.25 L 247.5 236.25 L 246.25 235.0 L 245.0 232.5 L 241.25 230.0 L 238.75 226.25 L 235.0 222.5 L 231.25 217.5 L 226.25 212.5 L 223.75 208.75 L 220.0 203.75 L 216.25 200.0 L 213.75 196.25 L 211.25 191.25 L 208.75 185.0 L 206.25 180.0 L 203.75 175.0 L 202.5 170.0 L 200.0 165.0 L 197.5 160.0 L 195.0 155.0 L 192.5 150.0 L 190.0 145.0 L 187.5 141.25 L 185.0 138.75 L 181.25 135.0 L 177.5 131.25 L 175.0 127.5 L 171.25 123.75 L 168.75 118.75 L 166.25 115.0 L 163.75 111.25 L 162.5 107.5 L 161.25 103.75 L 158.75 101.25 L 156.25 98.75 L 155.0 97.5 L 153.75 97.5 L 153.75 96.25 L 152.5 95.0 L 151.25 93.75 L 150.0 93.75 L 150.0 92.5 L 148.75 92.5 L 148.75 91.25 L 148.75 91.25 L 148.75 91.25 L 148.75 91.25 L 148.75 91.25 L 148.75 91.25 " stroke="black" fill="none" stroke-width="6.0" stroke-linecap="round" stroke-linejoin="round" />
</svg>