<svg xmlns="http://www.w3.org/2000/svg" width="300" height="300" viewBox="0 0 300 300">
<path d="M 70.0 98.75 L 67.5 100.0 L 65.0 100.0 L 63.75 100.0 L 63.75 100.0 L 65.0 100.0 L 67.5 101.25 L 71.25 101.25 L 73.75 102.5 L 77.5 105.0 L 80.0 107.5 L 83.75 111.25 L 87.5 117.5 L 91.25 125.0 L 93.75 131.25 L 96.25 137.5 L 100.0 145.0 L 102.5 150.0 L 106.25 156.25 L 111.25 161.25 L 115.0 167.5 L 118.75 173.75 L 122.5 181.25 L 126.25 187.5 L 128.75 193.75 L 132.5 200.0 L 135.0 206.25 L 137.5 212.5 L 138.75 217.5 L 141.25 222.5 L 142.5 227.5 L 143.75 232.5 L 145.0 235.0 L 145.0 236.25 L 146.25 238.75 L 147.5 242.5 L 148.75 246.25 L 150.0 248.75 L 150.0 250.0 L 150.0 250.0 L 150.0 250.0 L 150.0 250.0 L 151.25 247.5 L 153.75 243.75 L 156.25 237.5 L 158.75 230.0 L 162.5 220.0 L 166.25 210.0 L 172.5 197.5 L 178.75 185.0 L 183.75 173.75 L 188.75 161.25 L 193.75 150.0 L 198.75 140.0 L 203.75 128.75 L 210.0 117.5 L 215.0 110.0 L 220.0 103.75 L 225.0 100.0 L 228.75 97.5 L 231.25 93.75 L 233.75 91.25 L 236.25 90.0 L 237.5 88.75 L 237.5 88.75 L 237.5 88.75 L 237.5 88.75 L 237.5 88.75 L 236.25 88.75 L 235.0 88.75 L 231.25 88.75 L 226.25 88.75 L 221.25 88.75 L 213.75 90.0 L 206.25 91.25 L 198.75 93.75 L 188.75 95.0 L 180.0 96.25 L 170.0 98.75 L 161.25 98.75 L 155.0 100.0 L 148.75 100.0 L 142.5 100.0 L 136.25 100.0 L 131.25 100.0 L 127.5 98.75 L 123.75 98.75 L 118.75 97.5 L 115.0 97.5 L 111.25 97.5 L 105.0 97.5 L 101.25 97.5 L 97.5 97.5 L 93.75 97.5 L 90.0 97.5 L 85.0 97.5 L 81.25 97.5 L 77.5 97.5 L 73.75 98.75 L 70.0 100.0 L 67.5 101.25 L 66.25 102.5 L 66.25 102.5 L 66.25 102.5 " stroke="black" fill="none" stroke-width="20.0" stroke-linecap="round" stroke-linejoin="round" />
<path d="M 205.0 98.75 L 205.0 98.75 L 203.75 98.75 L 201.25 98.75 L 198.75 98.75 L 191.25 111.25 L 178.75 140.0 L 165.0 172.5 L 156.25 192.5 L 155.0 197.5 L 155.0 197.5 L 155.0 197.5 L 157.5 193.75 L 163.75 183.75 L 170.0 167.5 L 177.5 148.75 L 185.0 130.0 L 191.25 113.75 L 192.5 106.25 L 190.0 110.0 L 180.0 130.0 L 167.5 157.5 L 155.0 190.0 L 148.75 213.75 L 147.5 222.5 L 147.5 221.25 L 150.0 215.0 L 155.0 201.25 L 161.25 183.75 L 167.5 162.5 L 172.5 141.25 L 173.75 126.25 L 175.0 122.5 L 170.0 128.75 L 163.75 148.75 L 156.25 173.75 L 152.5 197.5 L 151.25 207.5 L 151.25 207.5 L 153.75 197.5 L 160.0 180.0 L 166.25 158.75 L 171.25 135.0 L 172.5 116.25 L 172.5 111.25 L 168.75 118.75 L 161.25 140.0 L 155.0 163.75 L 150.0 183.75 L 148.75 188.75 L 151.25 186.25 L 157.5 168.75 L 166.25 147.5 L 172.5 127.5 L 175.0 107.5 L 175.0 100.0 L 172.5 102.5 L 165.0 125.0 L 157.5 151.25 L 151.25 173.75 L 150.0 186.25 L 150.0 185.0 L 155.0 176.25 L 160.0 160.0 L 165.0 145.0 L 166.25 131.25 L 166.25 121.25 L 162.5 118.75 L 156.25 130.0 L 150.0 151.25 L 146.25 176.25 L 143.75 195.0 L 143.75 197.5 L 143.75 193.75 L 146.25 180.0 L 148.75 161.25 L 150.0 145.0 L 150.0 128.75 L 150.0 120.0 L 147.5 120.0 L 145.0 131.25 L 141.25 151.25 L 137.5 170.0 L 136.25 183.75 L 136.25 185.0 L 137.5 180.0 L 142.5 165.0 L 145.0 147.5 L 147.5 131.25 L 147.5 116.25 L 146.25 111.25 L 142.5 118.75 L 137.5 141.25 L 135.0 163.75 L 133.75 178.75 L 133.75 182.5 L 133.75 178.75 L 137.5 166.25 L 140.0 151.25 L 141.25 136.25 L 141.25 121.25 L 138.75 113.75 L 135.0 113.75 L 131.25 127.5 L 127.5 146.25 L 125.0 162.5 L 125.0 170.0 L 125.0 171.25 L 125.0 167.5 L 126.25 157.5 L 126.25 143.75 L 125.0 128.75 L 122.5 113.75 L 118.75 103.75 L 117.5 105.0 L 117.5 120.0 L 117.5 140.0 L 118.75 155.0 L 122.5 160.0 L 123.75 161.25 L 123.75 158.75 L 123.75 152.5 L 122.5 143.75 L 117.5 133.75 L 113.75 123.75 L 108.75 115.0 L 106.25 111.25 L 106.25 111.25 L 106.25 113.75 L 107.5 125.0 L 111.25 135.0 L 112.5 142.5 L 115.0 146.25 L 115.0 146.25 L 115.0 143.75 L 111.25 138.75 L 106.25 131.25 L 100.0 125.0 L 96.25 118.75 L 93.75 116.25 L 93.75 115.0 L 93.75 115.0 L 96.25 117.5 L 101.25 120.0 L 106.25 122.5 L 110.0 125.0 L 116.25 127.5 L 118.75 130.0 " stroke="black" fill="none" stroke-width="20.0" stroke-linecap="round" stroke-linejoin="round" />
<path d="M 73.75 105.0 L 72.5 105.0 L 71.25 106.25 L 71.25 106.25 L 70.0 106.25 L 70.0 106.25 L 68.75 106.25 L 68.75 106.25 L 68.75 106.25 L 70.0 106.25 L 71.25 106.25 L 72.5 107.5 L 76.25 110.0 L 80.0 115.0 L 85.0 122.5 L 92.5 131.25 L 100.0 140.0 L 111.25 150.0 L 127.5 160.0 L 133.75 162.5 " stroke="black" fill="none" stroke-width="20.0" stroke-linecap="round" stroke-linejoin="round" />
<path d="M 116.25 103.75 L 116.25 103.75 L 116.25 103.75 L 116.25 103.75 L 116.25 103.75 L 117.5 103.75 L 120.0 102.5 L 123.75 102.5 L 128.75 101.25 L 133.75 101.25 L 137.5 101.25 L 141.25 100.0 L 145.0 100.0 L 147.5 100.0 L 150.0 100.0 L 153.75 101.25 L 158.75 101.25 L 162.5 101.25 L 168.75 101.25 L 175.0 101.25 L 182.5 101.25 L 190.0 101.25 L 196.25 101.25 L 200.0 101.25 L 205.0 101.25 L 206.25 100.0 L 207.5 100.0 L 207.5 100.0 L 206.25 101.25 " stroke="black" fill="none" stroke-width="20.0" stroke-linecap="round" stroke-linejoin="round" />
<path d="M 107.5 105.0 L 107.5 105.0 L 107.5 105.0 L 106.25 106.25 L 106.25 106.25 L 106.25 106.25 L 108.75 106.25 L 115.0 103.75 L 123.75 102.5 L 132.5 101.25 L 140.0 101.25 L 147.5 100.0 L 152.5 98.75 L 157.5 98.75 L 162.5 98.75 L 166.25 97.5 L 171.25 97.5 L 175.0 97.5 L 177.5 97.5 L 181.25 97.5 L 185.0 97.5 L 188.75 96.25 L 192.5 96.25 L 196.25 95.0 L 200.0 95.0 L 203.75 93.75 L 206.25 93.75 L 208.75 93.75 L 210.0 93.75 L 212.5 93.75 L 212.5 95.0 " stroke="black" fill="none" stroke-width="20.0" stroke-linecap="round" stroke-linejoin="round" />
<path d="M 103.75 100.0 L 103.75 100.0 L 102.5 100.0 L 102.5 100.0 L 101.25 100.0 L 102.5 100.0 L 106.25 100.0 L 113.75 101.25 L 121.25 101.25 L 128.75 101.25 L 136.25 101.25 L 143.75 100.0 L 148.75 100.0 L 153.75 98.75 L 158.75 97.5 L 162.5 97.5 L 166.25 96.25 L 170.0 96.25 L 173.75 95.0 L 177.5 95.0 L 181.25 95.0 L 183.75 95.0 L 187.5 95.0 L 190.0 95.0 L 193.75 95.0 L 196.25 95.0 L 198.75 93.75 L 202.5 93.75 L 205.0 93.75 L 207.5 93.75 L 210.0 93.75 L 211.25 93.75 L 213.75 93.75 L 213.75 93.75 " stroke="black" fill="none" stroke-width="20.0" stroke-linecap="round" stroke-linejoin="round" />
<path d="M 101.25 105.0 L 100.0 105.0 L 98.75 103.75 L 97.5 103.75 L 97.5 102.5 L 97.5 101.25 L 97.5 100.0 L 100.0 100.0 L 103.75 98.75 L 107.5 97.5 L 111.25 97.5 L 116.25 97.5 L 121.25 97.5 L 126.25 97.5 L 132.5 97.5 L 137.5 97.5 L 142.5 96.25 L 147.5 95.0 L 151.25 95.0 L 155.0 93.75 L 158.75 93.75 L 162.5 93.75 L 166.25 92.5 L 170.0 92.5 L 173.75 92.5 L 176.25 92.5 L 180.0 91.25 L 183.75 91.25 L 187.5 91.25 L 191.25 91.25 L 193.75 90.0 L 196.25 90.0 L 198.75 90.0 L 200.0 90.0 L 202.5 90.0 L 203.75 90.0 L 205.0 90.0 L 205.0 90.0 L 206.25 90.0 L 206.25 90.0 L 207.5 90.0 L 207.5 90.0 L 208.75 90.0 L 210.0 90.0 L 211.25 90.0 L 212.5 90.0 L 213.75 90.0 L 213.75 90.0 L 215.0 90.0 L 216.25 90.0 L 217.5 90.0 L 218.75 90.0 " stroke="black" fill="none" stroke-width="20.0" stroke-linecap="round" stroke-linejoin="round" />
<path d="M 223.75 97.5 L 225.0 97.5 L 225.0 97.5 L 225.0 97.5 L 225.0 97.5 L 225.0 97.5 L 225.0 97.5 L 225.0 100.0 L 221.25 107.5 L 210.0 130.0 L 193.75 162.5 L 176.25 192.5 L 172.5 197.5 " stroke="black" fill="none" stroke-width="20.0" stroke-linecap="round" stroke-linejoin="round" />
</svg>