<svg xmlns="http://www.w3.org/2000/svg" width="300" height="300" viewBox="0 0 300 300">
<path d="M 85.0 82.5 L 82.5 80.0 L 81.25 77.5 L 81.25 76.25 L 81.25 76.25 L 81.25 78.75 L 82.5 87.5 L 82.5 100.0 L 82.5 120.0 L 82.5 142.5 L 82.5 163.75 L 81.25 185.0 L 81.25 201.25 L 81.25 212.5 L 81.25 223.75 L 81.25 232.5 L 80.0 238.75 L 80.0 241.25 L 80.0 242.5 L 80.0 242.5 L 80.0 245.0 L 80.0 247.5 L 80.0 250.0 L 80.0 251.25 L 80.0 252.5 L 80.0 253.75 L 80.0 253.75 L 80.0 255.0 L 80.0 255.0 L 80.0 255.0 L 80.0 255.0 L 82.5 255.0 L 85.0 252.5 L 88.75 250.0 L 93.75 247.5 L 100.0 242.5 L 107.5 237.5 L 117.5 231.25 L 127.5 226.25 L 136.25 222.5 L 143.75 218.75 L 151.25 215.0 L 157.5 211.25 L 165.0 207.5 L 173.75 205.0 L 182.5 201.25 L 190.0 197.5 L 197.5 192.5 L 202.5 188.75 L 207.5 185.0 L 212.5 181.25 L 217.5 177.5 L 222.5 175.0 L 227.5 172.5 L 231.25 170.0 L 235.0 168.75 L 238.75 166.25 L 241.25 166.25 L 242.5 165.0 L 242.5 165.0 L 242.5 165.0 L 241.25 165.0 L 241.25 165.0 L 240.0 165.0 L 237.5 165.0 L 235.0 163.75 L 232.5 162.5 L 228.75 161.25 L 223.75 160.0 L 218.75 157.5 L 212.5 155.0 L 207.5 153.75 L 202.5 150.0 L 197.5 147.5 L 192.5 143.75 L 187.5 141.25 L 181.25 138.75 L 175.0 135.0 L 170.0 132.5 L 165.0 130.0 L 160.0 126.25 L 155.0 122.5 L 151.25 118.75 L 146.25 115.0 L 142.5 112.5 L 140.0 110.0 L 136.25 107.5 L 133.75 105.0 L 130.0 102.5 L 126.25 100.0 L 122.5 98.75 L 117.5 97.5 L 113.75 96.25 L 110.0 95.0 L 106.25 93.75 L 102.5 92.5 L 98.75 91.25 L 95.0 90.0 L 92.5 87.5 L 90.0 86.25 L 87.5 83.75 L 85.0 82.5 L 85.0 81.25 L 85.0 81.25 L 85.0 81.25 L 85.0 81.25 L 85.0 81.25 L 86.25 82.5 " stroke="black" fill="none" stroke-width="6.0" stroke-linecap="round" stroke-linejoin="round" />
</svg>