<svg xmlns="http://www.w3.org/2000/svg" width="300" height="300" viewBox="0 0 300 300">
<path d="M 50.0 68.75 L 50.0 68.75 L 50.0 68.75 L 50.0 67.5 L 50.0 67.5 L 48.75 67.5 L 48.75 67.5 L 48.75 67.5 L 48.75 67.5 L 48.75 67.5 L 48.75 68.75 L 50.0 71.25 L 51.25 76.25 L 52.5 82.5 L 53.75 87.5 L 53.75 95.0 L 55.0 101.25 L 55.0 107.5 L 55.0 113.75 L 55.0 120.0 L 55.0 126.25 L 55.0 132.5 L 55.0 138.75 L 55.0 143.75 L 55.0 148.75 L 55.0 155.0 L 55.0 160.0 L 55.0 165.0 L 56.25 171.25 L 56.25 176.25 L 56.25 183.75 L 56.25 188.75 L 56.25 195.0 L 56.25 198.75 L 57.5 203.75 L 57.5 208.75 L 57.5 213.75 L 58.75 218.75 L 58.75 223.75 L 58.75 230.0 L 58.75 235.0 L 58.75 240.0 L 58.75 245.0 L 58.75 248.75 L 60.0 251.25 L 60.0 252.5 L 60.0 255.0 L 60.0 255.0 L 60.0 256.25 L 60.0 256.25 L 60.0 256.25 L 60.0 256.25 L 60.0 256.25 L 60.0 256.25 L 60.0 256.25 L 60.0 256.25 L 60.0 256.25 L 60.0 256.25 L 60.0 256.25 L 60.0 256.25 L 60.0 256.25 L 60.0 256.25 L 60.0 256.25 L 61.25 256.25 L 62.5 256.25 L 65.0 256.25 L 68.75 256.25 L 75.0 255.0 L 80.0 255.0 L 85.0 253.75 L 90.0 253.75 L 93.75 253.75 L 96.25 252.5 L 98.75 252.5 L 101.25 252.5 L 103.75 252.5 L 107.5 252.5 L 110.0 252.5 L 112.5 252.5 L 116.25 252.5 L 120.0 252.5 L 122.5 251.25 L 126.25 251.25 L 128.75 251.25 L 132.5 251.25 L 135.0 251.25 L 137.5 251.25 L 140.0 251.25 L 141.25 251.25 L 143.75 251.25 L 145.0 251.25 L 147.5 251.25 L 150.0 251.25 L 151.25 251.25 L 153.75 251.25 L 156.25 251.25 L 158.75 251.25 L 161.25 252.5 L 163.75 252.5 L 166.25 252.5 L 170.0 252.5 L 173.75 251.25 L 177.5 251.25 L 180.0 251.25 L 183.75 251.25 L 187.5 251.25 L 191.25 251.25 L 195.0 251.25 L 197.5 251.25 L 201.25 251.25 L 203.75 251.25 L 206.25 251.25 L 210.0 251.25 L 212.5 251.25 L 215.0 251.25 L 216.25 251.25 L 216.25 250.0 L 215.0 250.0 L 215.0 250.0 " stroke="black" fill="none" stroke-width="6.0" stroke-linecap="round" stroke-linejoin="round" />
<path d="M 58.75 75.0 L 58.75 75.0 L 57.5 75.0 L 55.0 73.75 L 53.75 73.75 L 52.5 72.5 L 52.5 72.5 L 52.5 72.5 L 52.5 71.25 L 55.0 71.25 L 60.0 71.25 L 67.5 71.25 L 76.25 70.0 L 85.0 70.0 L 93.75 68.75 L 102.5 68.75 L 111.25 67.5 L 120.0 65.0 L 130.0 63.75 L 138.75 62.5 L 147.5 61.25 L 155.0 61.25 L 162.5 60.0 L 170.0 60.0 L 177.5 58.75 L 183.75 57.5 L 188.75 57.5 L 191.25 57.5 L 193.75 57.5 L 195.0 57.5 L 197.5 57.5 L 200.0 57.5 L 202.5 57.5 L 205.0 56.25 L 207.5 56.25 L 208.75 56.25 L 210.0 56.25 L 211.25 56.25 L 212.5 56.25 L 215.0 56.25 L 216.25 56.25 L 217.5 56.25 L 217.5 56.25 L 218.75 56.25 L 218.75 57.5 L 220.0 57.5 L 220.0 57.5 L 221.25 57.5 L 221.25 58.75 L 221.25 60.0 L 221.25 61.25 L 221.25 65.0 L 221.25 72.5 L 220.0 81.25 L 218.75 90.0 L 217.5 97.5 L 217.5 105.0 L 216.25 111.25 L 216.25 118.75 L 216.25 125.0 L 216.25 130.0 L 216.25 135.0 L 216.25 138.75 L 216.25 142.5 L 216.25 146.25 L 216.25 150.0 L 216.25 153.75 L 216.25 157.5 L 216.25 162.5 L 216.25 166.25 L 215.0 170.0 L 215.0 173.75 L 215.0 177.5 L 215.0 181.25 L 215.0 183.75 L 215.0 186.25 L 215.0 188.75 L 213.75 191.25 L 213.75 195.0 L 213.75 197.5 L 213.75 200.0 L 213.75 203.75 L 213.75 206.25 L 213.75 210.0 L 212.5 213.75 L 212.5 216.25 L 212.5 218.75 L 212.5 222.5 L 212.5 225.0 L 212.5 227.5 L 212.5 231.25 L 212.5 233.75 L 212.5 236.25 L 212.5 237.5 L 212.5 240.0 L 212.5 241.25 L 212.5 243.75 L 212.5 246.25 L 212.5 247.5 L 212.5 250.0 L 212.5 251.25 L 212.5 251.25 L 212.5 251.25 L 212.5 251.25 L 212.5 251.25 L 212.5 247.5 L 212.5 242.5 " stroke="black" fill="none" stroke-width="6.0" stroke-linecap="round" stroke-linejoin="round" />
<path d="M 61.25 80.0 L 61.25 80.0 L 61.25 80.0 L 61.25 78.75 L 61.25 78.75 L 61.25 78.75 L 61.25 78.75 L 61.25 78.75 L 61.25 78.75 L 61.25 78.75 L 61.25 78.75 L 61.25 78.75 L 61.25 80.0 L 61.25 80.0 L 61.25 80.0 L 61.25 80.0 L 61.25 80.0 L 61.25 80.0 L 61.25 80.0 L 61.25 80.0 L 61.25 80.0 L 61.25 80.0 L 61.25 80.0 L 61.25 80.0 L 61.25 80.0 L 61.25 80.0 L 61.25 80.0 L 61.25 80.0 L 61.25 78.75 L 61.25 78.75 L 61.25 78.75 L 61.25 80.0 L 61.25 83.75 L 62.5 88.75 L 63.75 97.5 L 63.75 107.5 L 63.75 116.25 L 65.0 125.0 L 65.0 130.0 L 66.25 133.75 L 66.25 135.0 L 66.25 135.0 L 66.25 135.0 L 66.25 133.75 L 66.25 132.5 L 66.25 131.25 L 65.0 127.5 L 65.0 121.25 L 63.75 112.5 L 62.5 103.75 L 62.5 95.0 L 62.5 88.75 L 61.25 83.75 L 61.25 81.25 L 60.0 80.0 L 60.0 80.0 L 60.0 80.0 L 60.0 80.0 L 60.0 83.75 L 60.0 92.5 L 62.5 110.0 L 66.25 130.0 L 68.75 143.75 L 70.0 148.75 L 70.0 150.0 L 70.0 148.75 L 70.0 147.5 L 70.0 145.0 L 67.5 141.25 L 65.0 135.0 L 62.5 126.25 L 60.0 116.25 L 58.75 102.5 L 58.75 91.25 L 58.75 82.5 L 58.75 77.5 L 58.75 75.0 L 58.75 75.0 L 58.75 75.0 L 58.75 75.0 L 58.75 80.0 L 58.75 95.0 L 60.0 122.5 L 61.25 151.25 L 62.5 170.0 L 63.75 180.0 L 63.75 183.75 L 63.75 183.75 L 63.75 182.5 L 63.75 178.75 L 63.75 170.0 L 63.75 158.75 L 65.0 147.5 L 65.0 135.0 L 65.0 122.5 L 65.0 111.25 L 65.0 102.5 L 65.0 98.75 L 65.0 98.75 L 65.0 101.25 L 66.25 115.0 L 68.75 143.75 L 71.25 175.0 L 72.5 197.5 L 73.75 203.75 L 73.75 207.5 L 73.75 207.5 L 73.75 206.25 L 73.75 198.75 L 73.75 187.5 L 73.75 173.75 L 72.5 157.5 L 72.5 140.0 L 72.5 127.5 L 72.5 118.75 L 72.5 115.0 L 73.75 116.25 L 75.0 125.0 L 77.5 148.75 L 80.0 177.5 L 82.5 202.5 L 83.75 211.25 L 83.75 211.25 L 83.75 208.75 L 83.75 205.0 L 83.75 196.25 L 82.5 181.25 L 80.0 161.25 L 77.5 137.5 L 75.0 115.0 L 72.5 97.5 L 72.5 90.0 L 72.5 86.25 L 72.5 86.25 L 72.5 87.5 L 72.5 96.25 L 75.0 121.25 L 77.5 155.0 L 78.75 190.0 L 78.75 206.25 L 78.75 207.5 L 78.75 205.0 L 78.75 201.25 L 78.75 192.5 L 78.75 176.25 L 77.5 156.25 L 75.0 133.75 L 72.5 111.25 L 71.25 96.25 L 70.0 90.0 L 70.0 88.75 L 70.0 88.75 L 70.0 93.75 L 71.25 108.75 L 72.5 125.0 L 73.75 138.75 L 75.0 145.0 L 76.25 146.25 L 76.25 143.75 L 75.0 137.5 L 72.5 128.75 L 71.25 117.5 L 68.75 106.25 L 68.75 93.75 L 68.75 86.25 L 67.5 80.0 L 67.5 78.75 L 67.5 78.75 L 67.5 78.75 L 68.75 83.75 L 71.25 92.5 L 73.75 105.0 L 75.0 118.75 L 76.25 126.25 L 76.25 127.5 L 76.25 127.5 L 73.75 123.75 L 72.5 115.0 L 71.25 106.25 L 71.25 97.5 L 70.0 88.75 L 70.0 81.25 L 70.0 76.25 L 70.0 73.75 L 71.25 73.75 L 73.75 81.25 L 76.25 93.75 L 77.5 108.75 L 78.75 120.0 L 78.75 126.25 L 78.75 126.25 L 78.75 125.0 L 77.5 121.25 L 75.0 115.0 L 73.75 108.75 L 71.25 102.5 L 70.0 96.25 L 68.75 91.25 L 67.5 88.75 L 66.25 87.5 L 65.0 86.25 L 63.75 86.25 L 62.5 85.0 L 61.25 82.5 L 60.0 81.25 L 58.75 80.0 L 58.75 80.0 L 58.75 80.0 L 58.75 80.0 L 58.75 80.0 L 60.0 80.0 L 61.25 80.0 L 62.5 80.0 L 65.0 80.0 L 66.25 80.0 L 68.75 80.0 L 71.25 80.0 L 73.75 80.0 L 76.25 80.0 L 77.5 80.0 L 80.0 80.0 L 82.5 80.0 L 85.0 80.0 L 87.5 80.0 L 90.0 81.25 L 92.5 81.25 L 95.0 81.25 L 97.5 81.25 L 100.0 81.25 L 103.75 81.25 L 106.25 80.0 L 110.0 80.0 L 113.75 80.0 L 117.5 78.75 L 121.25 78.75 L 125.0 77.5 L 130.0 77.5 L 133.75 76.25 L 138.75 76.25 L 142.5 75.0 L 147.5 75.0 L 150.0 73.75 L 153.75 73.75 L 156.25 73.75 L 157.5 72.5 L 157.5 72.5 L 157.5 73.75 L 155.0 76.25 " stroke="black" fill="none" stroke-width="6.0" stroke-linecap="round" stroke-linejoin="round" />
<path d="M 111.25 98.75 L 111.25 95.0 L 110.0 92.5 L 108.75 88.75 L 108.75 87.5 L 108.75 87.5 L 110.0 93.75 L 115.0 137.5 L 118.75 181.25 L 120.0 205.0 L 121.25 206.25 L 121.25 202.5 L 118.75 195.0 L 113.75 180.0 L 110.0 161.25 L 105.0 138.75 L 100.0 110.0 L 98.75 90.0 L 98.75 85.0 L 98.75 87.5 L 100.0 103.75 L 102.5 140.0 L 105.0 177.5 L 107.5 201.25 L 107.5 205.0 L 107.5 201.25 L 107.5 193.75 L 105.0 178.75 L 102.5 156.25 L 100.0 132.5 L 98.75 106.25 L 97.5 90.0 L 97.5 90.0 L 97.5 101.25 L 98.75 131.25 L 101.25 163.75 L 102.5 191.25 L 103.75 198.75 L 103.75 195.0 L 103.75 187.5 L 102.5 171.25 L 102.5 150.0 L 100.0 125.0 L 97.5 97.5 L 95.0 80.0 L 95.0 77.5 L 93.75 88.75 L 95.0 118.75 L 97.5 155.0 L 100.0 188.75 L 101.25 198.75 L 102.5 198.75 L 102.5 193.75 L 102.5 182.5 L 100.0 163.75 L 97.5 143.75 L 93.75 120.0 L 90.0 97.5 L 86.25 87.5 L 86.25 90.0 L 87.5 106.25 L 91.25 141.25 L 96.25 176.25 L 100.0 200.0 L 101.25 206.25 L 101.25 205.0 L 101.25 203.75 L 100.0 198.75 L 100.0 197.5 " stroke="black" fill="none" stroke-width="13.0" stroke-linecap="round" stroke-linejoin="round" />
<path d="M 133.75 111.25 L 133.75 108.75 L 132.5 103.75 L 132.5 100.0 L 131.25 97.5 L 131.25 93.75 L 130.0 92.5 L 130.0 92.5 L 130.0 92.5 L 133.75 106.25 L 138.75 140.0 L 143.75 173.75 L 146.25 190.0 L 146.25 191.25 L 146.25 188.75 L 146.25 186.25 L 143.75 181.25 L 140.0 168.75 L 137.5 152.5 L 132.5 132.5 L 128.75 108.75 L 125.0 88.75 L 125.0 81.25 L 125.0 81.25 L 125.0 83.75 L 127.5 102.5 L 133.75 138.75 L 138.75 176.25 L 141.25 200.0 L 142.5 203.75 L 142.5 201.25 L 142.5 198.75 L 140.0 192.5 L 136.25 178.75 L 132.5 160.0 L 127.5 137.5 L 123.75 110.0 L 121.25 91.25 L 120.0 83.75 L 120.0 83.75 L 122.5 93.75 L 130.0 127.5 L 138.75 171.25 L 143.75 202.5 L 143.75 211.25 L 143.75 210.0 L 143.75 206.25 L 142.5 197.5 L 140.0 183.75 L 137.5 163.75 L 133.75 138.75 L 131.25 115.0 L 130.0 106.25 " stroke="black" fill="none" stroke-width="19.0" stroke-linecap="round" stroke-linejoin="round" />
<path d="M 82.5 82.5 L 82.5 82.5 L 78.75 80.0 L 77.5 78.75 L 75.0 77.5 L 75.0 77.5 L 75.0 77.5 L 75.0 77.5 L 76.25 76.25 L 77.5 76.25 L 78.75 76.25 L 81.25 76.25 L 82.5 76.25 L 86.25 76.25 L 90.0 76.25 L 92.5 77.5 L 96.25 77.5 L 100.0 78.75 L 102.5 78.75 L 105.0 80.0 L 107.5 80.0 L 110.0 80.0 L 113.75 80.0 L 117.5 80.0 L 121.25 80.0 L 125.0 80.0 L 128.75 78.75 L 132.5 78.75 L 136.25 77.5 L 140.0 76.25 L 142.5 75.0 L 146.25 73.75 L 148.75 72.5 L 151.25 71.25 L 153.75 71.25 L 157.5 70.0 L 160.0 68.75 L 163.75 68.75 L 166.25 67.5 L 170.0 67.5 L 173.75 66.25 L 177.5 66.25 L 180.0 66.25 L 183.75 65.0 L 186.25 65.0 L 188.75 65.0 L 190.0 65.0 L 192.5 65.0 L 193.75 65.0 L 195.0 65.0 L 196.25 65.0 L 197.5 65.0 L 198.75 65.0 L 200.0 65.0 L 200.0 65.0 L 200.0 65.0 L 201.25 65.0 L 201.25 66.25 L 201.25 66.25 L 202.5 66.25 L 202.5 66.25 L 202.5 66.25 L 202.5 66.25 L 202.5 66.25 L 203.75 67.5 L 203.75 68.75 L 203.75 71.25 L 203.75 75.0 L 202.5 81.25 L 202.5 88.75 L 201.25 95.0 L 200.0 101.25 L 198.75 106.25 L 198.75 112.5 L 198.75 118.75 L 198.75 126.25 L 198.75 132.5 L 197.5 136.25 L 197.5 141.25 L 197.5 145.0 L 197.5 150.0 L 197.5 153.75 L 197.5 158.75 L 197.5 162.5 L 197.5 166.25 L 197.5 171.25 L 197.5 175.0 L 197.5 180.0 L 197.5 185.0 L 197.5 188.75 L 197.5 193.75 L 197.5 198.75 L 197.5 202.5 L 197.5 206.25 L 197.5 211.25 L 197.5 215.0 L 197.5 220.0 L 197.5 225.0 L 197.5 227.5 L 197.5 230.0 L 197.5 230.0 L 197.5 230.0 L 197.5 228.75 L 197.5 221.25 L 197.5 218.75 " stroke="black" fill="none" stroke-width="19.0" stroke-linecap="round" stroke-linejoin="round" />
<path d="M 192.5 81.25 L 192.5 81.25 L 192.5 80.0 L 192.5 78.75 L 192.5 77.5 L 192.5 77.5 L 191.25 77.5 L 191.25 77.5 L 191.25 81.25 L 188.75 101.25 L 188.75 138.75 L 188.75 176.25 L 190.0 195.0 L 192.5 202.5 L 193.75 205.0 L 193.75 205.0 L 193.75 205.0 L 193.75 203.75 L 193.75 200.0 L 193.75 192.5 L 192.5 181.25 L 190.0 167.5 L 187.5 148.75 L 185.0 128.75 L 185.0 108.75 L 185.0 93.75 L 186.25 85.0 L 186.25 82.5 L 185.0 82.5 L 183.75 82.5 L 183.75 83.75 L 182.5 93.75 L 182.5 122.5 L 183.75 161.25 L 185.0 197.5 L 186.25 213.75 L 186.25 215.0 L 186.25 215.0 L 187.5 212.5 L 187.5 205.0 L 187.5 192.5 L 187.5 173.75 L 186.25 148.75 L 183.75 120.0 L 180.0 95.0 L 178.75 82.5 L 177.5 78.75 L 176.25 80.0 L 175.0 86.25 L 175.0 110.0 L 175.0 150.0 L 177.5 191.25 L 178.75 213.75 L 180.0 218.75 L 180.0 218.75 L 181.25 215.0 L 182.5 206.25 L 182.5 192.5 L 182.5 171.25 L 180.0 143.75 L 175.0 116.25 L 171.25 95.0 L 168.75 88.75 L 168.75 91.25 L 168.75 107.5 L 168.75 145.0 L 168.75 183.75 L 170.0 208.75 L 171.25 215.0 L 171.25 213.75 L 172.5 211.25 L 172.5 200.0 L 173.75 182.5 L 173.75 157.5 L 171.25 126.25 L 167.5 96.25 L 165.0 80.0 L 163.75 78.75 L 163.75 90.0 L 163.75 122.5 L 163.75 163.75 L 166.25 198.75 L 166.25 213.75 L 167.5 215.0 L 167.5 212.5 L 168.75 206.25 L 170.0 191.25 L 170.0 168.75 L 168.75 143.75 L 165.0 113.75 L 160.0 90.0 L 156.25 78.75 L 155.0 80.0 L 152.5 91.25 L 152.5 121.25 L 152.5 160.0 L 153.75 192.5 L 157.5 206.25 L 158.75 206.25 L 158.75 203.75 L 160.0 196.25 L 160.0 180.0 L 160.0 160.0 L 157.5 135.0 L 153.75 106.25 L 150.0 88.75 L 147.5 85.0 L 147.5 95.0 L 147.5 125.0 L 150.0 165.0 L 153.75 200.0 L 156.25 210.0 L 156.25 210.0 L 156.25 206.25 L 157.5 195.0 L 157.5 176.25 L 157.5 151.25 L 153.75 125.0 L 151.25 101.25 L 150.0 97.5 L 150.0 107.5 L 150.0 131.25 L 150.0 155.0 L 151.25 167.5 L 152.5 170.0 L 153.75 162.5 L 152.5 150.0 L 152.5 143.75 " stroke="black" fill="none" stroke-width="19.0" stroke-linecap="round" stroke-linejoin="round" />
<path d="M 121.25 73.75 L 121.25 73.75 L 121.25 73.75 L 121.25 73.75 L 121.25 73.75 L 121.25 73.75 L 121.25 73.75 L 121.25 73.75 L 121.25 73.75 L 121.25 73.75 L 121.25 73.75 L 123.75 73.75 L 126.25 73.75 L 131.25 73.75 L 138.75 76.25 L 146.25 77.5 L 153.75 78.75 L 157.5 78.75 " stroke="black" fill="none" stroke-width="19.0" stroke-linecap="round" stroke-linejoin="round" />
<path d="M 130.0 77.5 L 128.75 77.5 L 126.25 77.5 L 125.0 76.25 L 125.0 76.25 L 125.0 76.25 L 127.5 76.25 L 133.75 77.5 L 141.25 78.75 L 150.0 78.75 L 158.75 78.75 L 167.5 78.75 L 175.0 78.75 L 182.5 77.5 L 187.5 75.0 L 192.5 73.75 L 197.5 72.5 L 200.0 71.25 L 203.75 70.0 L 205.0 70.0 L 205.0 70.0 L 206.25 70.0 L 206.25 70.0 L 206.25 70.0 L 207.5 70.0 L 207.5 70.0 L 207.5 70.0 L 208.75 70.0 L 210.0 70.0 L 210.0 70.0 L 211.25 70.0 L 211.25 70.0 L 212.5 68.75 L 212.5 68.75 L 212.5 68.75 L 212.5 68.75 L 213.75 68.75 L 213.75 68.75 L 213.75 68.75 L 213.75 68.75 L 213.75 70.0 L 213.75 73.75 L 212.5 78.75 L 211.25 87.5 L 211.25 95.0 L 210.0 103.75 L 210.0 110.0 L 210.0 117.5 L 210.0 123.75 L 210.0 128.75 L 210.0 135.0 L 210.0 140.0 L 210.0 143.75 L 210.0 147.5 L 210.0 151.25 L 210.0 153.75 L 210.0 157.5 L 210.0 160.0 L 210.0 163.75 L 210.0 167.5 L 210.0 171.25 L 210.0 175.0 L 210.0 178.75 L 210.0 182.5 L 210.0 186.25 L 210.0 190.0 L 210.0 192.5 L 210.0 196.25 L 210.0 200.0 L 210.0 203.75 L 210.0 206.25 L 210.0 210.0 L 210.0 212.5 L 210.0 215.0 L 210.0 217.5 L 210.0 220.0 L 210.0 223.75 L 210.0 226.25 L 210.0 230.0 L 210.0 232.5 L 210.0 233.75 L 210.0 235.0 L 210.0 235.0 L 210.0 236.25 L 210.0 236.25 L 210.0 236.25 L 210.0 237.5 L 210.0 238.75 L 210.0 240.0 L 210.0 242.5 L 208.75 243.75 L 208.75 243.75 L 208.75 245.0 L 208.75 245.0 L 208.75 245.0 L 208.75 245.0 L 208.75 245.0 L 208.75 245.0 L 207.5 245.0 L 207.5 245.0 L 207.5 245.0 L 206.25 245.0 L 206.25 245.0 L 205.0 245.0 L 202.5 245.0 L 200.0 245.0 L 197.5 245.0 L 195.0 245.0 L 191.25 245.0 L 188.75 245.0 L 186.25 245.0 L 183.75 245.0 L 181.25 245.0 L 178.75 245.0 L 176.25 245.0 L 175.0 245.0 L 172.5 245.0 L 170.0 245.0 L 167.5 245.0 L 165.0 245.0 L 162.5 245.0 L 160.0 245.0 L 157.5 245.0 L 155.0 246.25 L 152.5 246.25 L 150.0 246.25 L 147.5 247.5 L 146.25 248.75 L 143.75 248.75 L 141.25 250.0 L 140.0 250.0 L 137.5 251.25 L 135.0 251.25 L 132.5 251.25 L 128.75 252.5 L 125.0 252.5 L 120.0 253.75 L 113.75 253.75 L 108.75 255.0 L 102.5 255.0 L 97.5 256.25 L 93.75 256.25 L 90.0 257.5 L 86.25 257.5 L 83.75 258.75 L 80.0 260.0 L 76.25 261.25 L 73.75 262.5 L 72.5 262.5 L 72.5 263.75 L 72.5 263.75 L 72.5 263.75 L 72.5 263.75 L 72.5 262.5 L 72.5 261.25 " stroke="black" fill="none" stroke-width="19.0" stroke-linecap="round" stroke-linejoin="round" />
<path d="M 93.75 101.25 L 91.25 103.75 L 88.75 116.25 L 88.75 143.75 L 88.75 182.5 L 88.75 215.0 L 92.5 225.0 L 93.75 228.75 L 93.75 230.0 L 93.75 226.25 L 93.75 217.5 L 92.5 202.5 L 92.5 181.25 L 91.25 156.25 L 91.25 128.75 L 91.25 110.0 L 91.25 106.25 L 91.25 112.5 L 92.5 140.0 L 95.0 176.25 L 97.5 210.0 L 100.0 225.0 L 100.0 225.0 L 100.0 221.25 L 100.0 211.25 L 100.0 196.25 L 100.0 176.25 L 100.0 150.0 L 100.0 132.5 L 100.0 133.75 L 100.0 156.25 L 100.0 178.75 L 97.5 195.0 L 96.25 200.0 L 95.0 196.25 L 93.75 183.75 L 92.5 167.5 L 91.25 150.0 L 90.0 131.25 L 88.75 111.25 L 88.75 97.5 L 88.75 92.5 L 88.75 91.25 L 88.75 90.0 L 88.75 88.75 L 88.75 87.5 L 88.75 87.5 L 88.75 86.25 L 88.75 86.25 L 88.75 86.25 L 88.75 86.25 L 88.75 86.25 L 88.75 86.25 L 88.75 86.25 L 87.5 86.25 L 87.5 86.25 L 86.25 86.25 L 85.0 86.25 L 82.5 86.25 L 81.25 86.25 L 80.0 86.25 L 77.5 86.25 L 76.25 86.25 L 73.75 86.25 L 72.5 87.5 L 71.25 87.5 L 70.0 87.5 L 68.75 87.5 L 67.5 87.5 L 67.5 86.25 L 66.25 86.25 L 66.25 85.0 L 65.0 83.75 L 65.0 82.5 L 63.75 81.25 L 63.75 81.25 L 63.75 80.0 L 63.75 80.0 L 63.75 80.0 L 63.75 80.0 L 63.75 80.0 L 63.75 82.5 L 66.25 90.0 L 68.75 102.5 L 72.5 118.75 L 75.0 133.75 L 77.5 146.25 L 78.75 155.0 L 80.0 160.0 L 80.0 165.0 L 80.0 170.0 L 81.25 175.0 L 81.25 180.0 L 81.25 183.75 L 81.25 185.0 L 81.25 187.5 L 81.25 190.0 L 81.25 191.25 L 81.25 193.75 L 81.25 197.5 L 81.25 201.25 L 81.25 206.25 L 81.25 213.75 L 82.5 222.5 L 83.75 230.0 L 85.0 237.5 L 86.25 240.0 L 86.25 240.0 L 86.25 240.0 L 86.25 236.25 L 85.0 227.5 L 82.5 213.75 L 80.0 198.75 L 78.75 177.5 L 77.5 155.0 L 77.5 141.25 L 77.5 132.5 L 76.25 128.75 L 75.0 127.5 L 75.0 127.5 L 73.75 130.0 L 73.75 136.25 L 73.75 148.75 L 73.75 165.0 L 73.75 181.25 L 73.75 197.5 L 73.75 210.0 L 75.0 218.75 L 76.25 227.5 L 76.25 233.75 L 76.25 237.5 L 77.5 238.75 L 77.5 240.0 L 77.5 240.0 L 77.5 240.0 L 77.5 240.0 L 77.5 240.0 L 78.75 235.0 L 80.0 226.25 L 80.0 212.5 L 81.25 197.5 L 81.25 180.0 L 80.0 166.25 L 77.5 157.5 L 76.25 156.25 L 76.25 156.25 L 75.0 160.0 L 75.0 168.75 L 75.0 185.0 L 75.0 201.25 L 73.75 218.75 L 73.75 232.5 L 73.75 241.25 L 73.75 246.25 L 75.0 250.0 L 75.0 252.5 L 75.0 255.0 L 75.0 256.25 L 75.0 256.25 L 75.0 256.25 L 75.0 256.25 L 75.0 256.25 L 76.25 253.75 L 76.25 247.5 L 76.25 238.75 L 76.25 225.0 L 76.25 208.75 L 75.0 191.25 L 73.75 178.75 L 73.75 172.5 L 72.5 171.25 L 72.5 172.5 L 72.5 180.0 L 72.5 195.0 L 71.25 212.5 L 71.25 230.0 L 71.25 243.75 L 71.25 248.75 L 71.25 248.75 L 71.25 245.0 L 72.5 240.0 L 72.5 230.0 L 72.5 216.25 L 72.5 200.0 L 72.5 182.5 L 71.25 166.25 L 70.0 156.25 L 70.0 155.0 L 70.0 156.25 L 70.0 165.0 L 70.0 182.5 L 70.0 206.25 L 70.0 227.5 L 72.5 242.5 L 73.75 246.25 L 75.0 246.25 L 75.0 245.0 L 76.25 243.75 L 76.25 238.75 L 77.5 230.0 L 77.5 216.25 L 77.5 202.5 L 76.25 187.5 L 73.75 175.0 L 72.5 167.5 L 71.25 165.0 L 71.25 165.0 L 71.25 176.25 L 71.25 196.25 L 71.25 217.5 L 71.25 233.75 L 72.5 242.5 L 72.5 242.5 L 73.75 241.25 L 75.0 238.75 L 76.25 233.75 L 77.5 227.5 L 77.5 220.0 L 78.75 215.0 L 78.75 212.5 L 78.75 213.75 L 78.75 222.5 L 80.0 232.5 L 81.25 240.0 L 83.75 245.0 L 87.5 247.5 L 91.25 247.5 L 97.5 246.25 L 103.75 243.75 L 112.5 240.0 L 121.25 235.0 L 128.75 228.75 L 137.5 222.5 L 143.75 215.0 L 145.0 211.25 L 146.25 208.75 L 145.0 206.25 L 142.5 201.25 L 140.0 195.0 L 138.75 186.25 L 137.5 176.25 L 136.25 165.0 L 135.0 155.0 L 135.0 151.25 L 133.75 151.25 L 131.25 155.0 L 128.75 172.5 L 125.0 195.0 L 122.5 215.0 L 121.25 226.25 L 121.25 227.5 L 121.25 223.75 L 122.5 217.5 L 125.0 206.25 L 127.5 193.75 L 131.25 180.0 L 132.5 167.5 L 132.5 166.25 L 128.75 182.5 L 123.75 202.5 L 120.0 218.75 L 116.25 230.0 L 115.0 232.5 L 115.0 227.5 L 116.25 215.0 L 120.0 200.0 L 125.0 185.0 L 130.0 170.0 L 131.25 165.0 L 131.25 173.75 L 126.25 195.0 L 122.5 212.5 L 118.75 226.25 L 117.5 230.0 L 116.25 226.25 L 117.5 213.75 L 118.75 201.25 L 120.0 190.0 L 121.25 182.5 L 121.25 182.5 L 120.0 196.25 L 117.5 212.5 L 117.5 226.25 L 117.5 233.75 L 122.5 236.25 L 130.0 233.75 L 137.5 228.75 L 143.75 227.5 L 148.75 227.5 L 151.25 228.75 L 151.25 228.75 L 151.25 230.0 L 148.75 231.25 L 145.0 231.25 L 140.0 232.5 L 135.0 232.5 L 132.5 232.5 L 131.25 232.5 L 130.0 232.5 L 133.75 232.5 L 138.75 233.75 L 145.0 235.0 L 152.5 235.0 L 160.0 233.75 L 168.75 231.25 L 175.0 230.0 L 180.0 228.75 L 182.5 228.75 L 182.5 228.75 L 182.5 230.0 L 182.5 230.0 L 181.25 230.0 L 178.75 228.75 L 175.0 227.5 L 168.75 225.0 L 165.0 222.5 L 161.25 220.0 L 158.75 217.5 L 158.75 216.25 L 163.75 215.0 L 170.0 213.75 L 176.25 212.5 L 182.5 212.5 L 185.0 212.5 L 186.25 212.5 L 185.0 211.25 L 180.0 207.5 L 175.0 202.5 L 168.75 196.25 L 166.25 195.0 " stroke="black" fill="none" stroke-width="19.0" stroke-linecap="round" stroke-linejoin="round" />
<path d="M 158.75 181.25 L 157.5 183.75 L 157.5 190.0 L 158.75 201.25 L 166.25 212.5 L 173.75 218.75 L 180.0 221.25 L 183.75 221.25 L 186.25 218.75 L 188.75 217.5 L 188.75 216.25 L 188.75 216.25 L 188.75 217.5 L 187.5 218.75 L 183.75 220.0 L 178.75 220.0 " stroke="black" fill="none" stroke-width="19.0" stroke-linecap="round" stroke-linejoin="round" />
<path d="M 78.75 111.25 L 78.75 111.25 L 77.5 111.25 L 76.25 111.25 L 76.25 120.0 L 76.25 145.0 L 78.75 176.25 L 80.0 195.0 L 80.0 198.75 L 80.0 197.5 L 80.0 196.25 L 78.75 191.25 L 77.5 183.75 L 76.25 172.5 L 75.0 158.75 L 73.75 145.0 L 72.5 133.75 L 72.5 127.5 L 72.5 127.5 L 72.5 132.5 L 72.5 147.5 L 73.75 167.5 L 75.0 190.0 L 75.0 203.75 L 76.25 206.25 L 76.25 203.75 L 76.25 201.25 L 76.25 197.5 L 76.25 190.0 L 76.25 180.0 L 75.0 167.5 L 73.75 155.0 L 72.5 145.0 L 72.5 140.0 L 71.25 137.5 L 70.0 137.5 L 70.0 137.5 L 70.0 138.75 L 70.0 148.75 L 72.5 170.0 L 75.0 193.75 L 76.25 208.75 L 77.5 211.25 L 77.5 210.0 L 77.5 207.5 L 77.5 203.75 L 77.5 197.5 L 77.5 187.5 L 76.25 176.25 L 75.0 162.5 L 72.5 148.75 L 70.0 142.5 L 68.75 138.75 L 67.5 138.75 L 66.25 138.75 L 66.25 138.75 L 66.25 143.75 L 66.25 153.75 L 66.25 172.5 L 68.75 196.25 L 71.25 211.25 L 73.75 217.5 L 73.75 217.5 L 73.75 215.0 L 73.75 212.5 L 73.75 207.5 L 73.75 201.25 L 73.75 193.75 L 71.25 186.25 L 70.0 175.0 " stroke="black" fill="none" stroke-width="19.0" stroke-linecap="round" stroke-linejoin="round" />
</svg>