<svg xmlns="http://www.w3.org/2000/svg" width="300" height="300" viewBox="0 0 300 300">
<path d="M 146.25 162.5 L 146.25 161.25 L 145.0 158.75 L 145.0 156.25 L 143.75 153.75 L 143.75 152.5 L 145.0 150.0 L 147.5 150.0 L 150.0 150.0 L 153.75 152.5 L 155.0 157.5 L 155.0 163.75 L 153.75 170.0 L 151.25 176.25 L 146.25 180.0 L 141.25 181.25 L 137.5 180.0 L 133.75 175.0 L 133.75 167.5 L 133.75 158.75 L 136.25 151.25 L 141.25 146.25 L 145.0 143.75 L 151.25 143.75 L 157.5 146.25 L 161.25 152.5 L 163.75 161.25 L 162.5 171.25 L 156.25 180.0 L 148.75 186.25 L 141.25 188.75 L 135.0 188.75 L 130.0 186.25 L 126.25 178.75 L 126.25 170.0 L 127.5 160.0 L 132.5 151.25 L 137.5 146.25 L 145.0 145.0 L 152.5 146.25 L 158.75 153.75 L 165.0 165.0 L 166.25 177.5 L 165.0 186.25 L 158.75 193.75 L 151.25 196.25 L 145.0 197.5 L 136.25 197.5 L 128.75 195.0 L 122.5 188.75 L 117.5 178.75 L 117.5 166.25 L 121.25 155.0 L 130.0 146.25 L 140.0 140.0 L 151.25 137.5 L 162.5 138.75 L 172.5 146.25 L 177.5 158.75 L 178.75 175.0 L 173.75 190.0 L 165.0 198.75 L 155.0 203.75 L 145.0 206.25 L 135.0 206.25 L 123.75 205.0 L 113.75 198.75 L 107.5 190.0 L 105.0 177.5 L 105.0 162.5 L 110.0 148.75 L 118.75 138.75 L 130.0 131.25 L 141.25 127.5 L 151.25 127.5 L 161.25 135.0 L 168.75 146.25 L 173.75 160.0 L 175.0 173.75 L 171.25 186.25 L 165.0 195.0 L 157.5 202.5 L 148.75 207.5 L 140.0 211.25 L 130.0 211.25 L 120.0 207.5 L 110.0 201.25 L 102.5 191.25 L 98.75 176.25 L 97.5 160.0 L 100.0 148.75 L 107.5 138.75 L 120.0 130.0 L 133.75 122.5 L 148.75 121.25 L 162.5 122.5 L 173.75 130.0 L 182.5 140.0 L 186.25 151.25 L 187.5 165.0 L 186.25 177.5 L 182.5 190.0 L 177.5 200.0 L 171.25 206.25 L 163.75 211.25 L 156.25 215.0 L 148.75 216.25 L 138.75 216.25 L 127.5 216.25 L 117.5 213.75 L 111.25 210.0 L 106.25 205.0 L 103.75 197.5 L 101.25 188.75 L 98.75 178.75 L 98.75 167.5 L 98.75 157.5 L 98.75 150.0 L 101.25 145.0 L 105.0 138.75 L 108.75 133.75 L 113.75 128.75 L 120.0 125.0 L 125.0 121.25 L 131.25 118.75 L 138.75 117.5 L 145.0 117.5 L 151.25 117.5 L 156.25 118.75 L 162.5 120.0 L 167.5 122.5 L 172.5 125.0 L 176.25 128.75 L 181.25 133.75 L 185.0 137.5 L 187.5 142.5 L 190.0 147.5 L 191.25 151.25 L 191.25 156.25 L 192.5 162.5 L 193.75 167.5 L 193.75 172.5 L 193.75 178.75 L 192.5 185.0 L 191.25 190.0 L 190.0 195.0 L 188.75 197.5 L 187.5 201.25 L 185.0 203.75 L 182.5 206.25 L 180.0 208.75 L 177.5 211.25 L 172.5 213.75 L 168.75 216.25 L 163.75 218.75 L 158.75 220.0 L 153.75 222.5 L 150.0 223.75 L 145.0 223.75 L 141.25 223.75 L 136.25 223.75 L 131.25 223.75 L 127.5 222.5 L 123.75 221.25 L 120.0 218.75 L 116.25 216.25 L 113.75 213.75 L 110.0 210.0 L 107.5 205.0 L 105.0 201.25 L 103.75 196.25 L 102.5 191.25 L 101.25 186.25 L 100.0 181.25 L 98.75 176.25 L 97.5 171.25 L 97.5 166.25 L 96.25 161.25 L 96.25 155.0 L 96.25 148.75 L 97.5 143.75 L 100.0 136.25 L 102.5 130.0 L 106.25 123.75 L 112.5 117.5 L 118.75 112.5 L 126.25 107.5 L 135.0 105.0 L 142.5 103.75 L 148.75 103.75 L 155.0 103.75 L 161.25 107.5 L 167.5 110.0 L 172.5 113.75 L 177.5 116.25 L 182.5 118.75 L 187.5 122.5 L 191.25 126.25 L 195.0 131.25 L 197.5 135.0 L 198.75 138.75 L 200.0 142.5 L 202.5 146.25 L 203.75 148.75 L 205.0 152.5 L 206.25 156.25 L 206.25 160.0 L 207.5 165.0 L 207.5 168.75 L 207.5 172.5 L 207.5 177.5 L 207.5 182.5 L 206.25 187.5 L 206.25 191.25 L 205.0 196.25 L 205.0 200.0 L 203.75 202.5 L 202.5 206.25 L 202.5 208.75 L 201.25 211.25 L 200.0 213.75 L 198.75 216.25 L 197.5 218.75 L 195.0 221.25 L 193.75 223.75 L 190.0 226.25 L 186.25 228.75 L 182.5 230.0 L 178.75 232.5 L 173.75 233.75 L 168.75 235.0 L 165.0 236.25 L 160.0 236.25 L 156.25 237.5 L 152.5 238.75 L 150.0 238.75 L 147.5 238.75 L 145.0 238.75 L 142.5 238.75 L 141.25 240.0 L 138.75 240.0 L 136.25 240.0 L 132.5 240.0 L 130.0 238.75 L 127.5 238.75 L 123.75 237.5 L 121.25 236.25 L 118.75 235.0 L 115.0 232.5 L 112.5 230.0 L 110.0 226.25 L 107.5 222.5 L 105.0 218.75 L 102.5 216.25 L 100.0 213.75 L 98.75 211.25 L 96.25 208.75 L 96.25 205.0 L 95.0 202.5 L 93.75 200.0 L 92.5 198.75 L 92.5 196.25 L 91.25 193.75 L 90.0 191.25 L 90.0 188.75 L 88.75 185.0 L 88.75 181.25 L 87.5 176.25 L 87.5 171.25 L 87.5 166.25 L 87.5 162.5 L 87.5 157.5 L 87.5 153.75 L 87.5 150.0 L 87.5 145.0 L 87.5 141.25 L 90.0 136.25 L 91.25 131.25 L 93.75 126.25 L 97.5 121.25 L 102.5 115.0 L 107.5 108.75 L 115.0 103.75 L 122.5 100.0 L 130.0 96.25 L 136.25 95.0 L 143.75 95.0 L 150.0 95.0 L 156.25 95.0 L 163.75 95.0 L 171.25 97.5 L 177.5 98.75 L 183.75 101.25 L 188.75 103.75 L 192.5 106.25 L 196.25 108.75 L 198.75 112.5 L 202.5 115.0 L 205.0 117.5 L 206.25 120.0 L 208.75 122.5 L 211.25 125.0 L 212.5 127.5 L 213.75 130.0 L 215.0 132.5 L 217.5 136.25 L 218.75 138.75 L 220.0 141.25 L 221.25 145.0 L 221.25 148.75 L 222.5 151.25 L 222.5 155.0 L 222.5 157.5 L 222.5 161.25 L 222.5 166.25 L 222.5 170.0 L 221.25 173.75 L 221.25 178.75 L 220.0 182.5 L 218.75 187.5 L 216.25 191.25 L 215.0 195.0 L 213.75 197.5 L 212.5 201.25 L 211.25 203.75 L 210.0 206.25 L 208.75 207.5 L 208.75 208.75 L 207.5 208.75 L 206.25 210.0 L 206.25 211.25 L 205.0 212.5 L 203.75 212.5 L 202.5 213.75 L 201.25 216.25 L 200.0 217.5 L 198.75 218.75 L 197.5 220.0 L 196.25 222.5 L 193.75 223.75 L 191.25 226.25 L 188.75 227.5 L 186.25 230.0 L 183.75 232.5 L 181.25 233.75 L 178.75 235.0 L 175.0 236.25 L 172.5 237.5 L 168.75 237.5 L 165.0 238.75 L 161.25 238.75 L 157.5 240.0 L 155.0 240.0 L 151.25 240.0 L 148.75 240.0 L 146.25 240.0 L 143.75 241.25 L 142.5 241.25 L 140.0 241.25 L 138.75 241.25 L 136.25 241.25 L 133.75 240.0 L 131.25 240.0 L 130.0 240.0 L 127.5 240.0 L 125.0 238.75 L 123.75 238.75 L 121.25 238.75 L 120.0 237.5 L 118.75 237.5 L 117.5 236.25 L 115.0 236.25 L 113.75 235.0 L 111.25 233.75 L 110.0 232.5 L 107.5 231.25 L 106.25 230.0 L 103.75 228.75 L 102.5 227.5 L 101.25 226.25 L 98.75 225.0 L 97.5 222.5 L 96.25 221.25 L 95.0 220.0 L 93.75 217.5 L 91.25 216.25 L 90.0 215.0 L 88.75 212.5 L 86.25 211.25 L 85.0 208.75 L 83.75 207.5 L 81.25 206.25 L 80.0 205.0 L 78.75 203.75 L 77.5 202.5 L 75.0 201.25 L 73.75 200.0 L 73.75 198.75 L 72.5 197.5 L 71.25 196.25 L 71.25 195.0 L 71.25 193.75 L 70.0 191.25 L 70.0 190.0 L 70.0 187.5 L 70.0 185.0 L 70.0 182.5 L 70.0 180.0 L 70.0 176.25 L 70.0 173.75 L 71.25 170.0 L 71.25 167.5 L 71.25 163.75 L 72.5 161.25 L 72.5 157.5 L 73.75 155.0 L 73.75 152.5 L 75.0 148.75 L 76.25 146.25 L 76.25 143.75 L 77.5 141.25 L 78.75 137.5 L 80.0 135.0 L 81.25 132.5 L 82.5 128.75 L 83.75 126.25 L 85.0 122.5 L 86.25 118.75 L 88.75 116.25 L 90.0 112.5 L 92.5 108.75 L 93.75 106.25 L 96.25 103.75 L 98.75 102.5 L 101.25 101.25 L 103.75 98.75 L 106.25 97.5 L 110.0 96.25 L 115.0 95.0 L 121.25 93.75 L 126.25 93.75 L 131.25 92.5 L 137.5 92.5 L 141.25 92.5 L 146.25 92.5 L 150.0 92.5 L 153.75 92.5 L 157.5 92.5 L 161.25 93.75 L 165.0 95.0 L 168.75 96.25 L 172.5 97.5 L 176.25 98.75 L 180.0 100.0 L 182.5 101.25 L 185.0 102.5 L 187.5 103.75 L 190.0 103.75 L 191.25 105.0 L 193.75 107.5 L 195.0 108.75 L 196.25 112.5 L 198.75 115.0 L 200.0 118.75 L 201.25 122.5 L 202.5 127.5 L 203.75 132.5 L 205.0 137.5 L 205.0 142.5 L 205.0 148.75 L 203.75 157.5 L 201.25 165.0 L 201.25 166.25 " stroke="black" fill="none" stroke-width="20.0" stroke-linecap="round" stroke-linejoin="round" />
<path d="M 88.75 167.5 L 88.75 167.5 L 86.25 166.25 L 83.75 165.0 L 82.5 162.5 L 82.5 160.0 L 82.5 156.25 L 82.5 151.25 L 85.0 146.25 L 86.25 142.5 L 88.75 137.5 L 91.25 132.5 L 95.0 127.5 L 97.5 122.5 L 100.0 117.5 L 101.25 113.75 L 103.75 111.25 L 105.0 108.75 L 107.5 106.25 L 110.0 103.75 L 112.5 102.5 L 116.25 100.0 L 120.0 98.75 L 123.75 96.25 L 127.5 95.0 L 131.25 92.5 L 133.75 91.25 L 137.5 91.25 L 140.0 90.0 L 142.5 90.0 L 146.25 90.0 L 148.75 90.0 L 151.25 90.0 L 155.0 90.0 L 157.5 90.0 L 161.25 91.25 L 166.25 91.25 L 170.0 92.5 L 173.75 95.0 L 177.5 96.25 L 181.25 98.75 L 185.0 101.25 L 187.5 105.0 L 191.25 107.5 L 193.75 111.25 L 195.0 113.75 L 197.5 117.5 L 200.0 121.25 L 201.25 125.0 L 202.5 127.5 L 203.75 130.0 L 205.0 132.5 L 205.0 135.0 L 206.25 136.25 L 206.25 138.75 L 206.25 141.25 L 207.5 145.0 L 207.5 147.5 L 207.5 151.25 L 207.5 155.0 L 207.5 161.25 L 205.0 168.75 L 203.75 171.25 " stroke="black" fill="none" stroke-width="20.0" stroke-linecap="round" stroke-linejoin="round" />
<path d="M 97.5 131.25 L 97.5 130.0 L 96.25 130.0 L 95.0 127.5 L 95.0 126.25 L 93.75 125.0 L 93.75 122.5 L 93.75 118.75 L 95.0 116.25 L 97.5 112.5 L 100.0 108.75 L 102.5 106.25 L 106.25 103.75 L 110.0 101.25 L 113.75 98.75 L 118.75 97.5 L 122.5 95.0 L 125.0 95.0 L 127.5 93.75 L 131.25 93.75 L 135.0 93.75 L 138.75 92.5 L 143.75 92.5 L 147.5 92.5 L 152.5 93.75 L 156.25 95.0 L 160.0 96.25 L 166.25 98.75 L 172.5 101.25 L 177.5 103.75 L 183.75 108.75 L 190.0 113.75 L 195.0 120.0 L 200.0 127.5 L 202.5 132.5 L 205.0 138.75 L 206.25 143.75 L 205.0 146.25 " stroke="black" fill="none" stroke-width="20.0" stroke-linecap="round" stroke-linejoin="round" />
<path d="M 100.0 132.5 L 98.75 131.25 L 98.75 128.75 L 97.5 127.5 L 97.5 125.0 L 97.5 123.75 L 97.5 121.25 L 97.5 118.75 L 98.75 116.25 L 100.0 113.75 L 101.25 110.0 L 103.75 107.5 L 106.25 105.0 L 110.0 102.5 L 112.5 100.0 L 115.0 98.75 L 116.25 97.5 L 118.75 96.25 L 121.25 95.0 L 122.5 93.75 L 125.0 92.5 L 126.25 92.5 L 127.5 91.25 L 130.0 91.25 L 132.5 90.0 L 135.0 88.75 L 138.75 88.75 L 141.25 87.5 L 143.75 87.5 L 146.25 87.5 L 148.75 87.5 L 151.25 87.5 L 153.75 87.5 L 156.25 87.5 L 158.75 88.75 L 161.25 88.75 L 163.75 90.0 L 166.25 91.25 L 168.75 92.5 L 171.25 93.75 L 173.75 96.25 L 176.25 97.5 L 177.5 98.75 L 180.0 100.0 L 181.25 101.25 L 183.75 102.5 L 185.0 103.75 L 187.5 105.0 L 190.0 106.25 L 191.25 106.25 L 193.75 107.5 L 195.0 108.75 L 196.25 110.0 L 197.5 111.25 L 198.75 112.5 L 200.0 113.75 L 201.25 116.25 L 202.5 117.5 L 203.75 120.0 L 205.0 121.25 L 206.25 123.75 L 206.25 125.0 L 207.5 127.5 L 208.75 130.0 L 210.0 133.75 L 210.0 138.75 L 210.0 145.0 L 210.0 153.75 L 207.5 165.0 L 206.25 176.25 L 205.0 187.5 L 203.75 192.5 " stroke="black" fill="none" stroke-width="20.0" stroke-linecap="round" stroke-linejoin="round" />
<path d="M 98.75 103.75 L 98.75 103.75 L 98.75 102.5 L 100.0 101.25 L 101.25 100.0 L 105.0 98.75 L 112.5 97.5 L 123.75 96.25 L 137.5 95.0 L 150.0 93.75 L 156.25 92.5 L 157.5 92.5 " stroke="black" fill="none" stroke-width="20.0" stroke-linecap="round" stroke-linejoin="round" />
<path d="M 101.25 100.0 L 101.25 100.0 L 101.25 98.75 L 101.25 97.5 L 102.5 96.25 L 107.5 96.25 L 117.5 96.25 L 131.25 98.75 L 142.5 100.0 L 147.5 100.0 " stroke="black" fill="none" stroke-width="20.0" stroke-linecap="round" stroke-linejoin="round" />
<path d="M 101.25 110.0 L 101.25 110.0 L 100.0 108.75 L 100.0 107.5 L 100.0 106.25 L 100.0 103.75 L 101.25 102.5 L 103.75 100.0 L 106.25 98.75 L 108.75 96.25 L 112.5 95.0 L 116.25 93.75 L 120.0 92.5 L 123.75 92.5 L 128.75 92.5 L 132.5 91.25 L 137.5 91.25 L 141.25 91.25 L 143.75 91.25 L 147.5 91.25 L 151.25 93.75 L 155.0 95.0 L 155.0 96.25 " stroke="black" fill="none" stroke-width="20.0" stroke-linecap="round" stroke-linejoin="round" />
<path d="M 95.0 112.5 L 95.0 112.5 L 93.75 111.25 L 93.75 110.0 L 92.5 108.75 L 92.5 106.25 L 93.75 105.0 L 95.0 102.5 L 96.25 100.0 L 98.75 97.5 L 100.0 95.0 L 103.75 92.5 L 106.25 90.0 L 110.0 87.5 L 112.5 86.25 L 116.25 85.0 L 120.0 83.75 L 123.75 83.75 L 128.75 85.0 L 135.0 87.5 L 140.0 90.0 L 147.5 91.25 L 153.75 92.5 L 161.25 93.75 L 167.5 93.75 " stroke="black" fill="none" stroke-width="20.0" stroke-linecap="round" stroke-linejoin="round" />
<path d="M 107.5 106.25 L 107.5 106.25 L 106.25 106.25 L 106.25 105.0 L 106.25 103.75 L 107.5 101.25 L 111.25 98.75 L 116.25 95.0 L 121.25 93.75 L 125.0 92.5 L 130.0 90.0 L 133.75 88.75 L 136.25 88.75 L 140.0 87.5 L 141.25 87.5 L 143.75 87.5 L 145.0 87.5 L 146.25 87.5 L 148.75 87.5 L 150.0 87.5 L 151.25 87.5 L 152.5 87.5 L 153.75 87.5 L 155.0 88.75 L 156.25 88.75 L 157.5 88.75 L 158.75 90.0 L 160.0 90.0 L 161.25 91.25 L 163.75 91.25 L 165.0 93.75 L 168.75 95.0 L 171.25 98.75 L 176.25 102.5 L 183.75 107.5 L 191.25 115.0 L 192.5 121.25 " stroke="black" fill="none" stroke-width="20.0" stroke-linecap="round" stroke-linejoin="round" />
<path d="M 118.75 100.0 L 117.5 98.75 L 116.25 98.75 L 116.25 97.5 L 115.0 96.25 L 115.0 95.0 L 116.25 92.5 L 117.5 91.25 L 120.0 90.0 L 123.75 88.75 L 127.5 87.5 L 130.0 86.25 L 133.75 86.25 L 136.25 86.25 L 137.5 86.25 L 140.0 86.25 L 142.5 86.25 L 145.0 87.5 L 147.5 87.5 L 148.75 88.75 L 150.0 88.75 L 151.25 88.75 L 152.5 90.0 L 153.75 90.0 L 155.0 90.0 L 156.25 90.0 L 157.5 91.25 L 158.75 91.25 L 160.0 91.25 L 161.25 91.25 L 161.25 91.25 L 162.5 92.5 L 163.75 92.5 L 165.0 92.5 L 166.25 93.75 L 168.75 95.0 L 170.0 96.25 L 172.5 100.0 L 172.5 105.0 L 172.5 105.0 " stroke="black" fill="none" stroke-width="20.0" stroke-linecap="round" stroke-linejoin="round" />
<path d="M 118.75 100.0 L 117.5 98.75 L 117.5 97.5 L 116.25 96.25 L 116.25 95.0 L 116.25 93.75 L 120.0 91.25 L 123.75 88.75 L 128.75 87.5 L 132.5 85.0 L 136.25 83.75 L 140.0 83.75 L 143.75 83.75 L 147.5 83.75 L 151.25 86.25 L 156.25 88.75 L 161.25 92.5 L 168.75 97.5 L 177.5 102.5 L 186.25 105.0 L 195.0 107.5 L 196.25 107.5 " stroke="black" fill="none" stroke-width="20.0" stroke-linecap="round" stroke-linejoin="round" />
<path d="M 133.75 91.25 L 132.5 91.25 L 132.5 90.0 L 132.5 90.0 L 132.5 88.75 L 136.25 88.75 L 140.0 88.75 L 145.0 88.75 L 150.0 90.0 L 155.0 90.0 L 158.75 91.25 L 162.5 91.25 L 166.25 92.5 L 168.75 92.5 L 171.25 92.5 L 173.75 92.5 L 175.0 93.75 L 177.5 93.75 L 178.75 95.0 L 181.25 95.0 L 182.5 96.25 L 185.0 97.5 L 186.25 98.75 L 187.5 100.0 L 190.0 101.25 L 191.25 102.5 L 192.5 103.75 L 193.75 106.25 L 195.0 108.75 L 196.25 111.25 L 197.5 112.5 L 198.75 115.0 L 198.75 117.5 L 200.0 118.75 L 201.25 120.0 L 202.5 122.5 L 202.5 122.5 L 203.75 125.0 L 205.0 125.0 L 205.0 127.5 L 206.25 128.75 L 207.5 132.5 L 208.75 137.5 L 210.0 147.5 L 210.0 156.25 " stroke="black" fill="none" stroke-width="20.0" stroke-linecap="round" stroke-linejoin="round" />
<path d="M 111.25 105.0 L 110.0 105.0 L 108.75 103.75 L 107.5 103.75 L 107.5 103.75 L 106.25 102.5 L 106.25 102.5 L 106.25 102.5 L 105.0 101.25 L 105.0 101.25 L 103.75 101.25 L 103.75 101.25 L 102.5 101.25 L 102.5 101.25 L 101.25 101.25 L 101.25 101.25 L 100.0 101.25 L 98.75 101.25 L 98.75 101.25 L 97.5 101.25 L 97.5 101.25 L 96.25 102.5 L 96.25 102.5 L 95.0 103.75 L 93.75 103.75 L 93.75 105.0 L 92.5 106.25 L 91.25 107.5 L 91.25 108.75 L 90.0 110.0 L 90.0 111.25 L 88.75 113.75 L 88.75 115.0 L 87.5 116.25 L 87.5 118.75 L 86.25 120.0 L 86.25 121.25 L 85.0 123.75 L 83.75 126.25 L 83.75 128.75 L 82.5 130.0 L 82.5 132.5 L 81.25 133.75 L 81.25 135.0 L 81.25 136.25 L 80.0 138.75 L 80.0 140.0 L 80.0 142.5 L 80.0 143.75 L 80.0 145.0 L 80.0 147.5 L 80.0 148.75 L 80.0 151.25 L 80.0 152.5 L 78.75 155.0 L 78.75 157.5 L 78.75 160.0 L 78.75 162.5 L 78.75 166.25 L 80.0 170.0 L 80.0 175.0 L 81.25 177.5 L 81.25 178.75 L 81.25 180.0 L 81.25 180.0 L 81.25 180.0 L 81.25 180.0 L 81.25 180.0 L 80.0 178.75 L 78.75 177.5 L 78.75 176.25 L 77.5 173.75 L 77.5 172.5 L 76.25 170.0 L 76.25 167.5 L 76.25 165.0 L 76.25 162.5 L 76.25 160.0 L 76.25 156.25 L 76.25 153.75 L 76.25 150.0 L 76.25 146.25 L 76.25 143.75 L 76.25 140.0 L 77.5 136.25 L 77.5 132.5 L 78.75 127.5 L 80.0 123.75 L 82.5 120.0 L 82.5 117.5 L 85.0 113.75 L 86.25 111.25 L 88.75 108.75 L 91.25 107.5 L 92.5 105.0 L 96.25 103.75 L 98.75 103.75 L 98.75 103.75 " stroke="black" fill="none" stroke-width="20.0" stroke-linecap="round" stroke-linejoin="round" />
<path d="M 105.0 113.75 L 105.0 112.5 L 105.0 111.25 L 103.75 110.0 L 103.75 110.0 L 102.5 110.0 L 101.25 110.0 L 100.0 111.25 L 97.5 112.5 L 96.25 113.75 L 95.0 116.25 L 93.75 117.5 L 92.5 118.75 L 91.25 120.0 L 90.0 122.5 L 88.75 123.75 L 88.75 125.0 L 87.5 125.0 L 86.25 126.25 L 85.0 127.5 L 83.75 127.5 L 83.75 128.75 L 82.5 130.0 L 81.25 131.25 L 80.0 132.5 L 80.0 133.75 L 78.75 135.0 L 78.75 136.25 L 77.5 137.5 L 77.5 138.75 L 77.5 140.0 L 76.25 141.25 L 76.25 142.5 L 76.25 143.75 L 75.0 145.0 L 75.0 146.25 L 75.0 147.5 L 73.75 148.75 L 73.75 150.0 L 73.75 151.25 L 72.5 152.5 L 72.5 153.75 L 72.5 155.0 L 71.25 157.5 L 71.25 158.75 L 71.25 160.0 L 71.25 161.25 L 71.25 162.5 L 70.0 165.0 L 70.0 166.25 L 70.0 167.5 L 70.0 170.0 L 70.0 171.25 L 70.0 173.75 L 70.0 175.0 L 70.0 177.5 L 70.0 178.75 L 70.0 180.0 L 70.0 181.25 L 70.0 183.75 L 70.0 185.0 L 70.0 186.25 L 70.0 188.75 L 71.25 190.0 L 71.25 192.5 L 72.5 195.0 L 75.0 198.75 L 77.5 202.5 L 80.0 207.5 L 83.75 211.25 L 87.5 213.75 L 91.25 216.25 L 97.5 216.25 L 107.5 217.5 L 113.75 216.25 " stroke="black" fill="none" stroke-width="20.0" stroke-linecap="round" stroke-linejoin="round" />
</svg>