<svg xmlns="http://www.w3.org/2000/svg" width="300" height="300" viewBox="0 0 300 300">
<path d="M 148.75 87.5 L 148.75 86.25 L 147.5 85.0 L 147.5 85.0 L 147.5 85.0 L 146.25 86.25 L 145.0 92.5 L 143.75 102.5 L 141.25 118.75 L 137.5 137.5 L 132.5 155.0 L 127.5 171.25 L 123.75 182.5 L 121.25 191.25 L 120.0 197.5 L 118.75 203.75 L 116.25 211.25 L 115.0 217.5 L 112.5 221.25 L 112.5 226.25 L 111.25 232.5 L 110.0 237.5 L 108.75 240.0 L 108.75 241.25 L 108.75 241.25 L 108.75 240.0 L 108.75 240.0 L 110.0 238.75 L 111.25 237.5 L 112.5 235.0 L 116.25 232.5 L 120.0 228.75 L 126.25 223.75 L 133.75 218.75 L 142.5 212.5 L 150.0 206.25 L 157.5 201.25 L 166.25 196.25 L 175.0 190.0 L 182.5 185.0 L 188.75 180.0 L 195.0 175.0 L 200.0 171.25 L 205.0 166.25 L 208.75 162.5 L 211.25 158.75 L 215.0 156.25 L 217.5 153.75 L 218.75 152.5 L 220.0 151.25 L 220.0 150.0 L 220.0 150.0 L 220.0 150.0 L 220.0 150.0 L 220.0 150.0 L 217.5 150.0 L 216.25 150.0 L 212.5 150.0 L 208.75 150.0 L 205.0 150.0 L 198.75 150.0 L 192.5 151.25 L 185.0 152.5 L 177.5 152.5 L 168.75 153.75 L 161.25 155.0 L 152.5 156.25 L 146.25 158.75 L 141.25 160.0 L 136.25 160.0 L 131.25 161.25 L 126.25 161.25 L 120.0 161.25 L 113.75 161.25 L 108.75 162.5 L 103.75 162.5 L 98.75 162.5 L 93.75 162.5 L 90.0 162.5 L 87.5 162.5 L 82.5 162.5 L 78.75 162.5 L 75.0 162.5 L 72.5 162.5 L 70.0 162.5 L 68.75 162.5 L 67.5 162.5 L 67.5 162.5 L 67.5 162.5 L 68.75 162.5 L 70.0 163.75 L 72.5 165.0 L 76.25 167.5 L 82.5 171.25 L 90.0 176.25 L 98.75 180.0 L 108.75 185.0 L 120.0 188.75 L 130.0 192.5 L 137.5 195.0 L 143.75 197.5 L 148.75 200.0 L 152.5 201.25 L 156.25 205.0 L 161.25 208.75 L 167.5 212.5 L 172.5 215.0 L 176.25 217.5 L 178.75 218.75 L 181.25 220.0 L 182.5 221.25 L 183.75 221.25 L 185.0 221.25 L 186.25 222.5 L 187.5 222.5 L 188.75 222.5 L 188.75 222.5 L 190.0 222.5 L 191.25 222.5 L 191.25 222.5 L 191.25 223.75 L 192.5 223.75 L 192.5 223.75 L 193.75 223.75 L 193.75 225.0 L 195.0 225.0 L 196.25 225.0 L 196.25 226.25 L 196.25 226.25 L 197.5 226.25 L 197.5 227.5 L 197.5 227.5 L 197.5 227.5 L 197.5 227.5 L 197.5 223.75 L 196.25 218.75 L 192.5 210.0 L 188.75 200.0 L 185.0 185.0 L 180.0 168.75 L 176.25 155.0 L 171.25 142.5 L 167.5 131.25 L 166.25 117.5 L 163.75 106.25 L 161.25 98.75 L 160.0 95.0 L 157.5 92.5 L 156.25 92.5 L 156.25 91.25 L 156.25 91.25 L 156.25 91.25 L 156.25 91.25 L 156.25 91.25 L 156.25 91.25 L 156.25 91.25 L 156.25 91.25 L 156.25 91.25 L 156.25 91.25 L 156.25 91.25 L 156.25 91.25 L 156.25 91.25 L 155.0 91.25 L 155.0 91.25 L 155.0 91.25 L 153.75 91.25 L 153.75 92.5 L 152.5 95.0 L 151.25 100.0 L 150.0 113.75 L 147.5 132.5 L 146.25 153.75 L 143.75 176.25 L 142.5 195.0 L 141.25 205.0 L 140.0 208.75 L 140.0 208.75 L 140.0 208.75 L 140.0 207.5 L 140.0 205.0 L 140.0 197.5 L 141.25 186.25 L 142.5 170.0 L 145.0 151.25 L 146.25 133.75 L 147.5 123.75 L 147.5 118.75 L 147.5 118.75 L 147.5 120.0 L 146.25 123.75 L 145.0 136.25 L 141.25 156.25 L 137.5 177.5 L 132.5 195.0 L 130.0 200.0 L 128.75 200.0 L 128.75 196.25 L 133.75 190.0 L 140.0 176.25 L 145.0 161.25 L 148.75 147.5 L 150.0 142.5 L 150.0 143.75 L 146.25 156.25 L 142.5 176.25 L 137.5 193.75 L 133.75 203.75 L 133.75 206.25 L 133.75 205.0 L 136.25 200.0 L 141.25 190.0 L 145.0 178.75 L 148.75 170.0 L 148.75 166.25 L 147.5 168.75 L 142.5 182.5 L 137.5 196.25 L 132.5 208.75 L 128.75 215.0 L 127.5 217.5 L 126.25 218.75 L 125.0 221.25 L 123.75 223.75 L 123.75 223.75 L 123.75 223.75 L 125.0 220.0 L 131.25 213.75 L 137.5 205.0 L 145.0 196.25 L 155.0 187.5 L 165.0 181.25 L 172.5 176.25 L 175.0 175.0 L 175.0 175.0 L 175.0 175.0 L 173.75 175.0 L 172.5 176.25 L 167.5 178.75 L 160.0 183.75 L 152.5 190.0 L 143.75 197.5 L 136.25 202.5 L 135.0 203.75 L 135.0 203.75 L 142.5 200.0 L 152.5 192.5 L 165.0 182.5 L 176.25 171.25 L 181.25 165.0 L 182.5 163.75 L 178.75 163.75 L 172.5 166.25 L 163.75 172.5 L 153.75 180.0 L 147.5 186.25 L 142.5 190.0 L 141.25 190.0 L 141.25 183.75 L 142.5 175.0 L 142.5 162.5 L 143.75 151.25 L 145.0 140.0 L 146.25 131.25 L 148.75 126.25 L 148.75 125.0 L 150.0 125.0 L 150.0 126.25 L 150.0 131.25 L 152.5 143.75 L 152.5 157.5 L 153.75 170.0 L 155.0 177.5 L 155.0 178.75 L 155.0 178.75 L 155.0 175.0 L 155.0 168.75 L 155.0 158.75 L 155.0 147.5 L 156.25 136.25 L 157.5 125.0 L 157.5 118.75 L 157.5 117.5 L 157.5 120.0 L 157.5 133.75 L 157.5 151.25 L 157.5 170.0 L 158.75 183.75 L 160.0 187.5 L 160.0 187.5 L 160.0 185.0 L 160.0 180.0 L 160.0 171.25 L 158.75 157.5 L 157.5 145.0 L 156.25 132.5 L 156.25 120.0 L 156.25 113.75 L 156.25 112.5 L 156.25 113.75 L 157.5 125.0 L 161.25 145.0 L 163.75 163.75 L 168.75 178.75 L 170.0 183.75 L 171.25 183.75 L 171.25 182.5 L 171.25 180.0 L 170.0 175.0 L 168.75 165.0 L 167.5 152.5 L 166.25 137.5 L 166.25 125.0 L 166.25 116.25 L 166.25 115.0 L 166.25 116.25 L 167.5 128.75 L 167.5 148.75 L 168.75 168.75 L 170.0 183.75 L 170.0 190.0 L 171.25 191.25 L 171.25 190.0 L 171.25 188.75 L 171.25 186.25 L 170.0 182.5 L 170.0 177.5 L 168.75 172.5 L 167.5 168.75 L 166.25 166.25 L 166.25 165.0 L 166.25 165.0 L 166.25 165.0 L 166.25 165.0 L 166.25 166.25 L 168.75 167.5 L 171.25 167.5 L 175.0 167.5 L 181.25 166.25 L 186.25 162.5 L 191.25 160.0 L 195.0 158.75 L 196.25 157.5 L 196.25 157.5 L 196.25 157.5 L 196.25 157.5 L 196.25 157.5 L 196.25 157.5 L 196.25 157.5 L 196.25 157.5 L 196.25 157.5 L 196.25 158.75 L 196.25 158.75 L 197.5 158.75 L 197.5 158.75 L 198.75 158.75 L 198.75 158.75 L 198.75 158.75 L 200.0 158.75 L 200.0 158.75 L 200.0 158.75 L 200.0 160.0 L 200.0 161.25 L 196.25 165.0 L 191.25 170.0 L 185.0 176.25 L 178.75 182.5 L 175.0 186.25 L 173.75 186.25 L 173.75 186.25 L 177.5 183.75 L 183.75 177.5 L 190.0 171.25 L 196.25 165.0 L 200.0 160.0 L 201.25 158.75 L 201.25 157.5 L 200.0 158.75 L 196.25 165.0 L 190.0 172.5 L 183.75 180.0 L 177.5 185.0 L 176.25 186.25 L 176.25 186.25 L 180.0 182.5 L 185.0 177.5 L 186.25 173.75 L 187.5 171.25 L 187.5 170.0 L 186.25 170.0 L 183.75 170.0 L 181.25 171.25 L 180.0 172.5 L 178.75 175.0 L 178.75 176.25 L 178.75 180.0 L 178.75 182.5 L 178.75 187.5 L 180.0 190.0 L 182.5 193.75 L 183.75 196.25 L 185.0 198.75 L 186.25 201.25 L 186.25 203.75 L 186.25 206.25 L 186.25 207.5 L 186.25 208.75 L 186.25 210.0 L 186.25 211.25 L 186.25 211.25 L 186.25 212.5 L 186.25 212.5 L 186.25 212.5 L 186.25 212.5 L 186.25 212.5 L 185.0 213.75 L 185.0 213.75 L 185.0 213.75 L 185.0 213.75 L 185.0 213.75 L 185.0 215.0 L 185.0 215.0 L 185.0 215.0 L 185.0 215.0 L 185.0 215.0 L 183.75 215.0 L 182.5 215.0 L 180.0 213.75 L 175.0 211.25 L 170.0 207.5 L 163.75 203.75 L 160.0 202.5 L 157.5 200.0 L 156.25 200.0 L 155.0 200.0 L 155.0 200.0 L 155.0 198.75 L 156.25 197.5 L 158.75 193.75 L 161.25 190.0 L 165.0 186.25 L 168.75 182.5 L 170.0 180.0 L 171.25 180.0 L 171.25 178.75 L 167.5 178.75 L 163.75 181.25 L 158.75 185.0 L 152.5 192.5 L 146.25 202.5 L 138.75 213.75 L 132.5 221.25 L 130.0 225.0 L 130.0 225.0 L 133.75 221.25 L 138.75 212.5 L 143.75 205.0 L 147.5 197.5 L 150.0 192.5 L 150.0 190.0 L 148.75 190.0 L 143.75 193.75 L 140.0 200.0 L 135.0 206.25 L 131.25 212.5 L 128.75 216.25 L 127.5 217.5 L 127.5 217.5 L 131.25 212.5 L 135.0 206.25 L 137.5 201.25 L 138.75 196.25 L 140.0 195.0 L 140.0 195.0 L 136.25 200.0 L 131.25 207.5 L 126.25 216.25 L 122.5 221.25 L 121.25 223.75 L 121.25 223.75 L 121.25 222.5 L 123.75 217.5 L 126.25 212.5 L 128.75 207.5 L 130.0 202.5 L 131.25 200.0 L 132.5 198.75 L 132.5 198.75 L 131.25 200.0 L 128.75 202.5 L 125.0 207.5 L 121.25 213.75 L 118.75 220.0 L 116.25 226.25 L 113.75 230.0 L 113.75 232.5 L 112.5 232.5 L 112.5 232.5 L 112.5 232.5 L 112.5 231.25 L 113.75 231.25 L 115.0 230.0 L 117.5 226.25 L 122.5 220.0 L 131.25 208.75 L 143.75 195.0 L 153.75 181.25 L 160.0 173.75 L 160.0 170.0 L 156.25 170.0 L 155.0 171.25 " stroke="black" fill="none" stroke-width="12.0" stroke-linecap="round" stroke-linejoin="round" />
<path d="M 133.75 203.75 L 131.25 203.75 L 130.0 205.0 L 128.75 206.25 L 127.5 207.5 L 125.0 211.25 L 122.5 216.25 L 118.75 223.75 L 115.0 232.5 L 112.5 238.75 L 111.25 243.75 L 111.25 245.0 L 111.25 245.0 L 111.25 243.75 L 111.25 243.75 L 111.25 242.5 L 111.25 242.5 L 112.5 241.25 L 115.0 238.75 L 116.25 236.25 L 120.0 232.5 L 125.0 227.5 L 133.75 218.75 L 143.75 207.5 L 153.75 196.25 L 161.25 187.5 L 165.0 182.5 L 163.75 181.25 " stroke="black" fill="none" stroke-width="12.0" stroke-linecap="round" stroke-linejoin="round" />
<path d="M 116.25 236.25 L 116.25 235.0 L 116.25 233.75 L 118.75 231.25 L 126.25 222.5 L 140.0 208.75 L 153.75 192.5 L 161.25 185.0 L 163.75 181.25 L 163.75 181.25 " stroke="black" fill="none" stroke-width="12.0" stroke-linecap="round" stroke-linejoin="round" />
<path d="M 160.0 193.75 L 160.0 193.75 L 160.0 193.75 L 158.75 193.75 L 158.75 193.75 L 160.0 195.0 L 165.0 197.5 L 171.25 201.25 L 177.5 205.0 L 181.25 206.25 L 183.75 208.75 L 183.75 208.75 L 183.75 208.75 L 183.75 208.75 L 183.75 208.75 L 183.75 208.75 L 182.5 208.75 L 182.5 207.5 L 182.5 206.25 L 181.25 206.25 L 181.25 203.75 L 181.25 202.5 L 180.0 201.25 L 180.0 200.0 L 180.0 198.75 L 180.0 198.75 L 178.75 197.5 L 178.75 197.5 L 177.5 197.5 L 177.5 197.5 L 176.25 197.5 L 173.75 197.5 L 168.75 197.5 L 161.25 196.25 L 150.0 193.75 " stroke="black" fill="none" stroke-width="12.0" stroke-linecap="round" stroke-linejoin="round" />
<path d="M 97.5 176.25 L 97.5 176.25 L 97.5 175.0 L 97.5 175.0 L 97.5 173.75 L 97.5 173.75 L 97.5 173.75 L 97.5 173.75 L 97.5 172.5 L 97.5 172.5 L 98.75 172.5 L 101.25 172.5 L 105.0 173.75 L 111.25 176.25 L 118.75 178.75 L 127.5 181.25 L 136.25 185.0 L 145.0 187.5 L 150.0 188.75 L 153.75 188.75 L 155.0 188.75 L 155.0 188.75 L 155.0 190.0 L 152.5 190.0 L 148.75 190.0 " stroke="black" fill="none" stroke-width="12.0" stroke-linecap="round" stroke-linejoin="round" />
<path d="M 105.0 177.5 L 105.0 177.5 L 103.75 177.5 L 102.5 177.5 L 102.5 177.5 L 106.25 176.25 L 112.5 175.0 L 121.25 173.75 L 132.5 171.25 L 142.5 171.25 L 148.75 170.0 L 152.5 168.75 L 152.5 168.75 L 151.25 168.75 L 146.25 170.0 L 141.25 170.0 L 136.25 170.0 L 131.25 170.0 L 126.25 170.0 L 122.5 170.0 L 118.75 170.0 L 116.25 171.25 L 112.5 172.5 L 111.25 173.75 L 111.25 173.75 L 113.75 175.0 L 120.0 175.0 L 130.0 172.5 L 138.75 170.0 L 146.25 167.5 L 150.0 166.25 " stroke="black" fill="none" stroke-width="12.0" stroke-linecap="round" stroke-linejoin="round" />
<path d="M 150.0 102.5 L 150.0 102.5 L 150.0 102.5 L 150.0 102.5 L 150.0 102.5 L 150.0 102.5 L 150.0 101.25 L 150.0 100.0 L 150.0 98.75 L 150.0 98.75 L 151.25 97.5 L 152.5 101.25 L 156.25 115.0 L 161.25 136.25 L 163.75 155.0 L 163.75 162.5 L 161.25 163.75 " stroke="black" fill="none" stroke-width="12.0" stroke-linecap="round" stroke-linejoin="round" />
<path d="M 180.0 203.75 L 180.0 203.75 L 180.0 203.75 L 180.0 203.75 L 180.0 205.0 L 181.25 206.25 L 182.5 207.5 L 183.75 208.75 L 185.0 211.25 L 186.25 213.75 L 187.5 216.25 L 188.75 218.75 L 188.75 218.75 L 190.0 220.0 L 190.0 220.0 L 190.0 220.0 L 190.0 220.0 L 190.0 220.0 L 190.0 221.25 L 190.0 221.25 L 190.0 221.25 L 190.0 222.5 L 190.0 222.5 L 190.0 223.75 L 190.0 225.0 L 190.0 226.25 L 191.25 226.25 L 191.25 227.5 L 191.25 228.75 L 192.5 230.0 L 192.5 230.0 L 193.75 231.25 L 193.75 232.5 L 195.0 233.75 L 195.0 235.0 L 196.25 235.0 L 197.5 237.5 L 200.0 240.0 L 201.25 242.5 " stroke="black" fill="none" stroke-width="12.0" stroke-linecap="round" stroke-linejoin="round" />
<path d="M 163.75 200.0 L 163.75 200.0 L 163.75 201.25 L 163.75 201.25 L 163.75 202.5 L 165.0 205.0 L 167.5 207.5 L 171.25 210.0 L 176.25 213.75 L 180.0 218.75 L 183.75 222.5 L 187.5 226.25 L 190.0 228.75 L 191.25 231.25 L 192.5 232.5 L 192.5 233.75 L 193.75 233.75 L 193.75 235.0 L 195.0 235.0 L 195.0 235.0 L 195.0 236.25 L 195.0 236.25 L 196.25 237.5 L 196.25 237.5 L 196.25 237.5 L 196.25 238.75 L 196.25 238.75 L 196.25 238.75 L 197.5 240.0 L 197.5 241.25 L 197.5 242.5 L 198.75 243.75 L 198.75 245.0 L 198.75 246.25 L 200.0 246.25 L 200.0 246.25 L 200.0 247.5 L 200.0 247.5 L 200.0 245.0 L 200.0 241.25 L 198.75 235.0 L 197.5 226.25 L 195.0 215.0 L 191.25 203.75 L 187.5 193.75 " stroke="black" fill="none" stroke-width="12.0" stroke-linecap="round" stroke-linejoin="round" />
<path d="M 157.5 202.5 L 157.5 202.5 L 156.25 202.5 L 156.25 203.75 L 156.25 205.0 L 161.25 207.5 L 167.5 211.25 L 173.75 215.0 L 180.0 221.25 L 186.25 227.5 L 188.75 232.5 L 191.25 235.0 L 192.5 235.0 L 192.5 236.25 L 193.75 236.25 L 193.75 236.25 L 193.75 236.25 L 193.75 236.25 L 193.75 236.25 L 193.75 236.25 L 193.75 236.25 L 193.75 236.25 L 193.75 236.25 L 193.75 236.25 L 193.75 236.25 L 193.75 236.25 L 193.75 236.25 L 193.75 236.25 L 193.75 236.25 L 193.75 236.25 L 193.75 236.25 L 193.75 236.25 L 193.75 236.25 L 193.75 236.25 L 193.75 236.25 L 191.25 232.5 L 185.0 222.5 " stroke="black" fill="none" stroke-width="12.0" stroke-linecap="round" stroke-linejoin="round" />
</svg>