<svg xmlns="http://www.w3.org/2000/svg" width="300" height="300" viewBox="0 0 300 300">
<path d="M 117.5 135.0 L 113.75 130.0 L 111.25 125.0 L 110.0 117.5 L 110.0 111.25 L 113.75 103.75 L 120.0 97.5 L 127.5 92.5 L 136.25 87.5 L 146.25 83.75 L 153.75 82.5 L 163.75 82.5 L 172.5 86.25 L 180.0 91.25 L 186.25 97.5 L 191.25 107.5 L 193.75 118.75 L 195.0 128.75 L 195.0 137.5 L 192.5 142.5 L 188.75 146.25 L 182.5 148.75 L 173.75 150.0 L 163.75 151.25 L 152.5 152.5 L 142.5 153.75 L 133.75 155.0 L 126.25 153.75 L 120.0 150.0 L 113.75 143.75 L 108.75 136.25 L 106.25 130.0 L 106.25 126.25 L 106.25 125.0 " stroke="black" fill="none" stroke-width="6.0" stroke-linecap="round" stroke-linejoin="round" />
<path d="M 77.5 198.75 L 76.25 198.75 L 73.75 198.75 L 72.5 198.75 L 72.5 198.75 L 80.0 200.0 L 93.75 200.0 L 113.75 200.0 L 141.25 198.75 L 166.25 196.25 L 191.25 193.75 L 211.25 190.0 L 226.25 187.5 L 233.75 185.0 L 233.75 185.0 L 232.5 183.75 L 223.75 183.75 L 213.75 182.5 " stroke="black" fill="none" stroke-width="6.0" stroke-linecap="round" stroke-linejoin="round" />
<path d="M 152.5 158.75 L 152.5 158.75 L 151.25 158.75 L 151.25 158.75 L 150.0 158.75 L 150.0 157.5 L 150.0 157.5 L 150.0 157.5 L 151.25 157.5 L 152.5 158.75 L 153.75 170.0 L 156.25 196.25 L 158.75 232.5 L 162.5 258.75 L 166.25 272.5 L 168.75 280.0 L 168.75 283.75 L 168.75 283.75 L 168.75 282.5 L 165.0 277.5 L 160.0 268.75 " stroke="black" fill="none" stroke-width="6.0" stroke-linecap="round" stroke-linejoin="round" />
</svg>