<svg xmlns="http://www.w3.org/2000/svg" width="300" height="300" viewBox="0 0 300 300">
<path d="M 153.75 88.75 L 153.75 88.75 L 153.75 88.75 L 152.5 88.75 L 151.25 92.5 L 148.75 102.5 L 145.0 118.75 L 140.0 133.75 L 133.75 150.0 L 126.25 167.5 L 115.0 191.25 L 106.25 208.75 L 102.5 218.75 L 101.25 225.0 L 101.25 230.0 L 101.25 232.5 L 102.5 233.75 L 103.75 233.75 L 105.0 233.75 L 105.0 233.75 L 105.0 233.75 L 105.0 233.75 L 105.0 233.75 L 106.25 233.75 L 106.25 233.75 L 107.5 233.75 L 108.75 232.5 L 111.25 230.0 L 115.0 227.5 L 121.25 222.5 L 128.75 217.5 L 140.0 210.0 L 152.5 202.5 L 163.75 196.25 L 175.0 190.0 L 186.25 183.75 L 196.25 177.5 L 202.5 171.25 L 207.5 168.75 L 211.25 166.25 L 215.0 165.0 L 218.75 162.5 L 221.25 160.0 L 222.5 158.75 L 223.75 157.5 L 223.75 157.5 L 223.75 157.5 L 222.5 157.5 L 220.0 156.25 L 217.5 156.25 L 213.75 155.0 L 210.0 155.0 L 203.75 155.0 L 197.5 155.0 L 190.0 155.0 L 180.0 155.0 L 170.0 155.0 L 158.75 156.25 L 148.75 156.25 L 140.0 157.5 L 131.25 157.5 L 122.5 158.75 L 113.75 160.0 L 105.0 160.0 L 96.25 160.0 L 91.25 160.0 L 87.5 160.0 L 85.0 160.0 L 82.5 158.75 L 81.25 157.5 L 78.75 156.25 L 78.75 156.25 L 78.75 156.25 L 78.75 156.25 L 78.75 156.25 L 80.0 158.75 L 83.75 162.5 L 88.75 167.5 L 93.75 173.75 L 101.25 180.0 L 111.25 187.5 L 122.5 195.0 L 135.0 201.25 L 143.75 206.25 L 150.0 211.25 L 155.0 215.0 L 160.0 218.75 L 165.0 223.75 L 171.25 227.5 L 175.0 230.0 L 180.0 231.25 L 185.0 233.75 L 188.75 235.0 L 192.5 236.25 L 195.0 236.25 L 196.25 237.5 L 198.75 237.5 L 200.0 237.5 L 200.0 237.5 L 200.0 237.5 L 200.0 237.5 L 200.0 236.25 L 200.0 233.75 L 200.0 230.0 L 198.75 225.0 L 196.25 217.5 L 191.25 207.5 L 186.25 195.0 L 180.0 173.75 L 175.0 147.5 L 171.25 127.5 L 168.75 113.75 L 165.0 105.0 L 161.25 100.0 L 157.5 95.0 L 155.0 91.25 L 155.0 90.0 L 155.0 90.0 L 155.0 90.0 L 155.0 90.0 L 155.0 90.0 L 155.0 91.25 L 155.0 92.5 L 155.0 95.0 " stroke="black" fill="none" stroke-width="6.0" stroke-linecap="round" stroke-linejoin="round" />
</svg>