<svg xmlns="http://www.w3.org/2000/svg" width="300" height="300" viewBox="0 0 300 300">
<path d="M 82.5 75.0 L 80.0 75.0 L 78.75 75.0 L 77.5 75.0 L 77.5 75.0 L 78.75 76.25 L 81.25 77.5 L 83.75 78.75 L 86.25 81.25 L 88.75 82.5 L 90.0 85.0 L 92.5 86.25 L 93.75 87.5 L 95.0 90.0 L 96.25 91.25 L 97.5 92.5 L 98.75 95.0 L 101.25 97.5 L 103.75 100.0 L 106.25 103.75 L 111.25 107.5 L 116.25 113.75 L 121.25 121.25 L 127.5 130.0 L 133.75 138.75 L 140.0 146.25 L 146.25 153.75 L 150.0 160.0 L 153.75 165.0 L 157.5 172.5 L 162.5 178.75 L 168.75 186.25 L 175.0 193.75 L 181.25 200.0 L 187.5 206.25 L 191.25 211.25 L 193.75 213.75 L 196.25 217.5 L 198.75 220.0 L 200.0 223.75 L 202.5 227.5 L 203.75 231.25 L 203.75 232.5 L 205.0 233.75 L 205.0 233.75 L 205.0 233.75 L 205.0 233.75 L 203.75 228.75 L 198.75 220.0 L 197.5 216.25 " stroke="black" fill="none" stroke-width="5.0" stroke-linecap="round" stroke-linejoin="round" />
<path d="M 213.75 73.75 L 213.75 73.75 L 212.5 73.75 L 211.25 73.75 L 210.0 73.75 L 207.5 75.0 L 201.25 81.25 L 188.75 92.5 L 170.0 111.25 L 151.25 130.0 L 135.0 148.75 L 120.0 165.0 L 106.25 180.0 L 98.75 190.0 L 95.0 195.0 L 92.5 198.75 L 91.25 200.0 L 91.25 201.25 L 90.0 201.25 L 90.0 202.5 L 88.75 202.5 L 88.75 202.5 L 87.5 202.5 L 86.25 202.5 L 86.25 203.75 L 86.25 203.75 L 86.25 203.75 L 86.25 203.75 L 86.25 203.75 L 86.25 203.75 L 86.25 203.75 L 85.0 203.75 " stroke="black" fill="none" stroke-width="5.0" stroke-linecap="round" stroke-linejoin="round" />
</svg>