<svg xmlns="http://www.w3.org/2000/svg" width="300" height="300" viewBox="0 0 300 300">
<path d="M 202.5 77.5 L 202.5 77.5 L 202.5 77.5 L 201.25 77.5 L 201.25 77.5 L 201.25 77.5 L 201.25 77.5 L 201.25 77.5 L 201.25 77.5 L 200.0 77.5 L 200.0 77.5 L 200.0 77.5 L 198.75 78.75 L 197.5 80.0 L 195.0 82.5 L 192.5 85.0 L 191.25 86.25 L 188.75 88.75 L 186.25 90.0 L 183.75 92.5 L 181.25 95.0 L 177.5 97.5 L 173.75 100.0 L 168.75 103.75 L 163.75 106.25 L 158.75 111.25 L 153.75 116.25 L 148.75 122.5 L 145.0 127.5 L 142.5 132.5 L 140.0 135.0 L 137.5 138.75 L 133.75 142.5 L 130.0 146.25 L 126.25 150.0 L 121.25 153.75 L 116.25 158.75 L 112.5 162.5 L 110.0 165.0 L 107.5 167.5 L 106.25 168.75 L 103.75 172.5 L 100.0 176.25 L 97.5 180.0 L 96.25 182.5 L 93.75 185.0 L 92.5 186.25 L 92.5 187.5 L 91.25 187.5 L 91.25 188.75 L 90.0 188.75 L 90.0 190.0 L 90.0 190.0 L 88.75 190.0 L 88.75 190.0 L 88.75 190.0 L 88.75 190.0 L 88.75 190.0 L 88.75 190.0 L 88.75 190.0 L 88.75 190.0 L 88.75 190.0 L 88.75 190.0 L 88.75 190.0 L 88.75 190.0 L 88.75 190.0 L 88.75 190.0 L 88.75 190.0 L 88.75 190.0 L 88.75 190.0 L 88.75 190.0 L 88.75 190.0 L 90.0 191.25 L 91.25 193.75 L 92.5 196.25 L 96.25 200.0 L 98.75 203.75 L 101.25 207.5 L 103.75 208.75 L 103.75 208.75 L 103.75 208.75 L 103.75 208.75 L 103.75 208.75 L 103.75 208.75 L 103.75 208.75 L 103.75 208.75 L 103.75 208.75 L 103.75 208.75 L 103.75 208.75 L 103.75 207.5 L 103.75 207.5 L 103.75 206.25 L 105.0 205.0 L 107.5 202.5 L 110.0 200.0 L 112.5 196.25 L 116.25 191.25 L 120.0 187.5 L 123.75 182.5 L 127.5 178.75 L 131.25 173.75 L 135.0 170.0 L 137.5 167.5 L 140.0 163.75 L 142.5 161.25 L 145.0 158.75 L 147.5 156.25 L 150.0 152.5 L 152.5 150.0 L 156.25 147.5 L 158.75 145.0 L 162.5 142.5 L 165.0 140.0 L 168.75 137.5 L 171.25 135.0 L 175.0 132.5 L 178.75 130.0 L 181.25 127.5 L 183.75 125.0 L 186.25 122.5 L 188.75 121.25 L 191.25 118.75 L 193.75 116.25 L 196.25 113.75 L 198.75 111.25 L 201.25 108.75 L 202.5 107.5 L 203.75 105.0 L 205.0 103.75 L 205.0 102.5 L 206.25 101.25 L 207.5 101.25 L 207.5 100.0 L 207.5 100.0 L 208.75 98.75 L 208.75 97.5 L 208.75 96.25 L 208.75 96.25 L 208.75 95.0 L 207.5 93.75 L 206.25 91.25 L 205.0 90.0 L 202.5 88.75 L 201.25 87.5 L 200.0 86.25 L 198.75 83.75 L 198.75 83.75 L 197.5 82.5 L 197.5 82.5 L 197.5 82.5 L 197.5 82.5 L 197.5 82.5 L 195.0 86.25 L 191.25 95.0 L 182.5 107.5 L 168.75 125.0 L 156.25 137.5 L 147.5 145.0 L 142.5 148.75 L 142.5 148.75 L 142.5 148.75 L 145.0 147.5 L 151.25 140.0 L 160.0 128.75 L 171.25 115.0 L 182.5 102.5 L 190.0 93.75 L 191.25 92.5 L 190.0 93.75 L 186.25 98.75 L 176.25 110.0 L 163.75 126.25 L 147.5 146.25 L 135.0 160.0 L 132.5 162.5 L 133.75 160.0 L 140.0 152.5 L 150.0 140.0 L 160.0 126.25 L 171.25 112.5 L 176.25 106.25 L 177.5 106.25 L 170.0 115.0 L 160.0 131.25 L 150.0 146.25 L 138.75 163.75 L 128.75 178.75 L 120.0 187.5 L 115.0 191.25 L 113.75 191.25 L 113.75 191.25 L 113.75 191.25 L 113.75 191.25 L 113.75 191.25 L 113.75 191.25 L 112.5 191.25 L 112.5 191.25 L 111.25 191.25 L 110.0 191.25 L 110.0 191.25 L 108.75 192.5 L 107.5 193.75 L 106.25 195.0 L 105.0 196.25 L 103.75 197.5 L 103.75 197.5 L 102.5 198.75 L 102.5 198.75 L 103.75 196.25 L 110.0 186.25 L 121.25 170.0 L 132.5 155.0 L 138.75 148.75 L 138.75 148.75 L 136.25 152.5 L 128.75 160.0 L 121.25 170.0 L 112.5 180.0 L 103.75 190.0 L 96.25 196.25 L 92.5 200.0 L 92.5 200.0 L 93.75 200.0 L 98.75 195.0 L 106.25 183.75 L 115.0 173.75 L 123.75 163.75 L 128.75 157.5 L 130.0 156.25 L 130.0 156.25 L 128.75 157.5 L 128.75 157.5 L 128.75 158.75 L 128.75 158.75 L 127.5 160.0 L 126.25 160.0 L 126.25 160.0 " stroke="black" fill="none" stroke-width="20.0" stroke-linecap="round" stroke-linejoin="round" />
<path d="M 200.0 86.25 L 200.0 85.0 L 200.0 85.0 L 200.0 83.75 L 198.75 83.75 L 198.75 83.75 L 198.75 83.75 L 198.75 83.75 L 198.75 83.75 L 198.75 83.75 L 200.0 83.75 L 200.0 83.75 L 201.25 85.0 L 202.5 86.25 L 203.75 87.5 L 206.25 90.0 L 207.5 92.5 L 208.75 93.75 L 210.0 95.0 L 210.0 96.25 L 211.25 97.5 L 212.5 97.5 L 212.5 97.5 L 213.75 98.75 L 213.75 98.75 L 213.75 98.75 L 213.75 98.75 L 213.75 98.75 L 213.75 98.75 L 212.5 100.0 " stroke="black" fill="none" stroke-width="20.0" stroke-linecap="round" stroke-linejoin="round" />
<path d="M 82.5 102.5 L 82.5 102.5 L 82.5 102.5 L 82.5 102.5 L 82.5 102.5 L 82.5 102.5 L 82.5 102.5 L 85.0 102.5 L 87.5 105.0 L 91.25 108.75 L 96.25 115.0 L 101.25 121.25 L 106.25 127.5 L 111.25 132.5 L 116.25 137.5 L 121.25 141.25 L 126.25 145.0 L 131.25 150.0 L 135.0 153.75 L 138.75 158.75 L 142.5 162.5 L 145.0 167.5 L 148.75 172.5 L 152.5 178.75 L 155.0 185.0 L 158.75 191.25 L 161.25 195.0 L 165.0 197.5 L 168.75 201.25 L 173.75 205.0 L 177.5 208.75 L 182.5 212.5 L 185.0 216.25 L 187.5 218.75 L 188.75 220.0 L 188.75 220.0 L 188.75 220.0 L 188.75 220.0 L 188.75 220.0 L 188.75 220.0 L 188.75 220.0 L 188.75 220.0 L 188.75 220.0 L 188.75 220.0 L 188.75 220.0 L 188.75 218.75 L 190.0 218.75 L 191.25 217.5 L 193.75 215.0 L 196.25 212.5 L 200.0 208.75 L 203.75 206.25 L 207.5 203.75 L 211.25 200.0 L 213.75 198.75 L 215.0 197.5 L 215.0 197.5 L 212.5 196.25 L 210.0 196.25 " stroke="black" fill="none" stroke-width="20.0" stroke-linecap="round" stroke-linejoin="round" />
<path d="M 82.5 98.75 L 81.25 98.75 L 78.75 100.0 L 77.5 100.0 L 77.5 98.75 L 80.0 95.0 L 83.75 90.0 L 87.5 83.75 L 91.25 78.75 L 95.0 76.25 L 97.5 73.75 L 98.75 73.75 L 100.0 73.75 L 101.25 73.75 L 101.25 76.25 L 102.5 77.5 L 103.75 78.75 L 106.25 81.25 L 107.5 83.75 L 110.0 86.25 L 111.25 87.5 L 113.75 90.0 L 117.5 93.75 L 121.25 96.25 L 125.0 100.0 L 128.75 103.75 L 133.75 107.5 L 137.5 111.25 L 141.25 116.25 L 145.0 120.0 L 148.75 125.0 L 151.25 131.25 L 155.0 136.25 L 157.5 140.0 L 161.25 143.75 L 163.75 147.5 L 166.25 150.0 L 170.0 152.5 L 172.5 156.25 L 176.25 160.0 L 180.0 162.5 L 182.5 165.0 L 185.0 168.75 L 186.25 172.5 L 188.75 175.0 L 191.25 178.75 L 192.5 182.5 L 195.0 185.0 L 196.25 187.5 L 197.5 188.75 L 198.75 191.25 L 200.0 192.5 L 201.25 193.75 L 202.5 195.0 L 202.5 196.25 L 203.75 197.5 L 205.0 198.75 L 205.0 198.75 L 205.0 198.75 L 205.0 198.75 L 205.0 198.75 L 201.25 195.0 " stroke="black" fill="none" stroke-width="20.0" stroke-linecap="round" stroke-linejoin="round" />
<path d="M 97.5 88.75 L 96.25 88.75 L 95.0 90.0 L 93.75 90.0 L 92.5 90.0 L 92.5 90.0 L 92.5 90.0 L 92.5 90.0 L 93.75 90.0 L 96.25 91.25 L 102.5 98.75 L 113.75 112.5 L 130.0 131.25 L 143.75 146.25 L 151.25 155.0 L 156.25 162.5 L 161.25 166.25 L 162.5 167.5 L 162.5 168.75 L 162.5 168.75 L 160.0 167.5 L 155.0 163.75 L 150.0 157.5 " stroke="black" fill="none" stroke-width="20.0" stroke-linecap="round" stroke-linejoin="round" />
<path d="M 106.25 100.0 L 106.25 101.25 L 105.0 102.5 L 105.0 103.75 L 115.0 113.75 L 133.75 133.75 L 151.25 155.0 L 163.75 170.0 L 172.5 181.25 L 180.0 188.75 L 185.0 195.0 L 187.5 197.5 L 188.75 197.5 L 188.75 197.5 L 188.75 197.5 L 188.75 197.5 L 186.25 193.75 L 183.75 191.25 L 180.0 187.5 L 175.0 181.25 L 168.75 172.5 L 163.75 162.5 L 160.0 153.75 L 158.75 151.25 L 158.75 153.75 L 160.0 160.0 L 166.25 171.25 L 175.0 182.5 L 185.0 193.75 L 191.25 201.25 L 193.75 203.75 L 195.0 203.75 L 195.0 203.75 L 195.0 201.25 L 192.5 198.75 L 188.75 193.75 L 185.0 187.5 " stroke="black" fill="none" stroke-width="20.0" stroke-linecap="round" stroke-linejoin="round" />
<path d="M 170.0 160.0 L 170.0 162.5 L 171.25 167.5 L 176.25 173.75 L 182.5 181.25 L 190.0 186.25 L 196.25 191.25 L 198.75 193.75 L 201.25 195.0 L 201.25 196.25 L 202.5 196.25 L 202.5 196.25 L 201.25 195.0 L 198.75 191.25 L 198.75 188.75 " stroke="black" fill="none" stroke-width="20.0" stroke-linecap="round" stroke-linejoin="round" />
<path d="M 177.5 160.0 L 177.5 162.5 L 176.25 165.0 L 177.5 166.25 L 182.5 170.0 L 188.75 173.75 L 193.75 178.75 L 198.75 183.75 L 202.5 188.75 L 205.0 191.25 L 206.25 192.5 L 207.5 193.75 L 207.5 193.75 L 207.5 193.75 L 207.5 193.75 L 206.25 192.5 L 206.25 192.5 " stroke="black" fill="none" stroke-width="20.0" stroke-linecap="round" stroke-linejoin="round" />
</svg>