<svg xmlns="http://www.w3.org/2000/svg" width="300" height="300" viewBox="0 0 300 300">
<path d="M 132.5 53.75 L 128.75 51.25 L 127.5 48.75 L 126.25 48.75 L 127.5 50.0 L 135.0 56.25 L 145.0 70.0 L 157.5 87.5 L 171.25 106.25 L 183.75 120.0 L 191.25 128.75 L 192.5 132.5 L 193.75 133.75 L 193.75 133.75 L 192.5 133.75 L 192.5 133.75 L 191.25 133.75 L 190.0 133.75 L 186.25 135.0 L 178.75 140.0 L 166.25 151.25 L 151.25 173.75 L 135.0 198.75 L 123.75 217.5 L 117.5 227.5 L 116.25 231.25 L 115.0 231.25 L 115.0 232.5 L 113.75 232.5 L 111.25 226.25 L 110.0 223.75 " stroke="black" fill="none" stroke-width="6.0" stroke-linecap="round" stroke-linejoin="round" />
</svg>