<svg xmlns="http://www.w3.org/2000/svg" width="300" height="300" viewBox="0 0 300 300">
<path d="M 106.25 207.5 L 105.0 208.75 L 101.25 212.5 L 98.75 213.75 L 98.75 215.0 L 98.75 215.0 L 98.75 215.0 L 102.5 212.5 L 107.5 206.25 L 116.25 192.5 L 131.25 168.75 L 150.0 140.0 L 168.75 115.0 L 185.0 98.75 L 197.5 87.5 L 202.5 83.75 L 202.5 83.75 L 202.5 83.75 L 202.5 83.75 L 201.25 88.75 L 197.5 92.5 " stroke="black" fill="none" stroke-width="20.0" stroke-linecap="round" stroke-linejoin="round" />
<path d="M 123.75 91.25 L 123.75 91.25 L 122.5 90.0 L 121.25 90.0 L 121.25 90.0 L 122.5 88.75 L 127.5 90.0 L 136.25 100.0 L 148.75 120.0 L 161.25 147.5 L 171.25 166.25 L 178.75 177.5 L 181.25 183.75 L 182.5 186.25 L 182.5 186.25 L 182.5 186.25 L 182.5 186.25 L 181.25 183.75 L 176.25 181.25 " stroke="black" fill="none" stroke-width="20.0" stroke-linecap="round" stroke-linejoin="round" />
</svg>