<svg xmlns="http://www.w3.org/2000/svg" width="300" height="300" viewBox="0 0 300 300">
<path d="M 191.25 37.5 L 191.25 36.25 L 190.0 35.0 L 188.75 35.0 L 185.0 37.5 L 177.5 50.0 L 163.75 72.5 L 148.75 92.5 L 140.0 102.5 L 132.5 108.75 L 127.5 112.5 L 125.0 115.0 L 125.0 116.25 L 125.0 117.5 L 125.0 120.0 L 126.25 121.25 L 126.25 123.75 L 127.5 126.25 L 127.5 127.5 L 128.75 130.0 L 130.0 132.5 L 131.25 136.25 L 132.5 140.0 L 135.0 146.25 L 138.75 157.5 L 145.0 177.5 L 152.5 200.0 L 156.25 213.75 L 161.25 218.75 L 163.75 218.75 L 165.0 218.75 L 165.0 218.75 L 166.25 218.75 L 166.25 218.75 L 166.25 217.5 L 163.75 212.5 " stroke="black" fill="none" stroke-width="6.0" stroke-linecap="round" stroke-linejoin="round" />
</svg>