<svg xmlns="http://www.w3.org/2000/svg" width="300" height="300" viewBox="0 0 300 300">
<path d="M 162.5 171.25 L 162.5 171.25 L 161.25 172.5 L 161.25 173.75 L 160.0 175.0 L 160.0 176.25 L 158.75 176.25 L 158.75 178.75 L 156.25 180.0 L 153.75 182.5 L 150.0 183.75 L 145.0 186.25 L 140.0 187.5 L 133.75 188.75 L 128.75 188.75 L 123.75 188.75 L 118.75 188.75 L 116.25 188.75 L 113.75 187.5 L 111.25 185.0 L 108.75 182.5 L 105.0 178.75 L 102.5 175.0 L 100.0 171.25 L 97.5 166.25 L 96.25 162.5 L 95.0 158.75 L 95.0 156.25 L 93.75 153.75 L 93.75 151.25 L 92.5 148.75 L 92.5 146.25 L 91.25 143.75 L 91.25 141.25 L 91.25 138.75 L 91.25 136.25 L 91.25 133.75 L 91.25 130.0 L 91.25 126.25 L 91.25 122.5 L 92.5 118.75 L 93.75 115.0 L 96.25 111.25 L 98.75 107.5 L 102.5 103.75 L 107.5 100.0 L 112.5 97.5 L 118.75 95.0 L 125.0 93.75 L 130.0 92.5 L 135.0 91.25 L 140.0 91.25 L 143.75 92.5 L 147.5 95.0 L 151.25 97.5 L 156.25 100.0 L 160.0 102.5 L 165.0 106.25 L 168.75 108.75 L 171.25 113.75 L 175.0 117.5 L 177.5 122.5 L 178.75 126.25 L 180.0 128.75 L 181.25 131.25 L 181.25 131.25 L 182.5 131.25 L 182.5 131.25 L 182.5 131.25 L 182.5 131.25 L 182.5 131.25 L 182.5 131.25 L 182.5 131.25 L 182.5 132.5 L 182.5 132.5 L 182.5 132.5 L 182.5 133.75 " stroke="black" fill="none" stroke-width="6.0" stroke-linecap="round" stroke-linejoin="round" />
<path d="M 147.5 133.75 L 147.5 133.75 L 145.0 133.75 L 143.75 132.5 L 142.5 132.5 L 142.5 132.5 L 142.5 132.5 L 143.75 132.5 L 146.25 132.5 L 148.75 132.5 L 153.75 135.0 L 158.75 136.25 L 165.0 138.75 L 172.5 141.25 L 176.25 142.5 L 180.0 143.75 L 181.25 143.75 L 181.25 145.0 L 181.25 145.0 L 181.25 145.0 L 180.0 145.0 L 180.0 145.0 L 180.0 145.0 L 180.0 145.0 L 180.0 145.0 L 180.0 145.0 L 180.0 143.75 L 180.0 142.5 L 180.0 141.25 L 181.25 137.5 L 185.0 133.75 L 190.0 127.5 L 195.0 121.25 L 198.75 115.0 L 200.0 113.75 L 200.0 112.5 L 200.0 112.5 L 200.0 113.75 L 200.0 113.75 L 200.0 113.75 L 200.0 113.75 L 200.0 113.75 " stroke="black" fill="none" stroke-width="6.0" stroke-linecap="round" stroke-linejoin="round" />
</svg>