<svg xmlns="http://www.w3.org/2000/svg" width="300" height="300" viewBox="0 0 300 300">
<path d="M 128.75 45.0 L 125.0 46.25 L 121.25 46.25 L 120.0 46.25 L 120.0 46.25 L 120.0 46.25 L 123.75 46.25 L 130.0 46.25 L 137.5 46.25 L 145.0 46.25 L 153.75 46.25 L 162.5 46.25 L 168.75 46.25 L 175.0 46.25 L 177.5 46.25 L 178.75 46.25 L 178.75 46.25 L 178.75 46.25 L 177.5 46.25 L 177.5 46.25 L 177.5 47.5 L 177.5 48.75 L 177.5 51.25 L 177.5 57.5 L 177.5 66.25 L 177.5 77.5 L 176.25 90.0 L 173.75 116.25 L 172.5 130.0 L 172.5 141.25 L 172.5 150.0 L 173.75 158.75 L 173.75 166.25 L 175.0 175.0 L 175.0 181.25 L 175.0 187.5 L 173.75 192.5 L 173.75 200.0 L 172.5 207.5 L 172.5 213.75 L 172.5 218.75 L 172.5 221.25 L 172.5 222.5 L 172.5 223.75 L 172.5 225.0 L 172.5 225.0 L 172.5 225.0 L 172.5 223.75 L 170.0 222.5 L 167.5 220.0 L 162.5 217.5 L 157.5 215.0 L 151.25 215.0 L 143.75 215.0 L 136.25 216.25 L 130.0 217.5 L 122.5 218.75 L 117.5 220.0 L 115.0 220.0 L 113.75 220.0 L 113.75 220.0 L 113.75 218.75 L 115.0 216.25 L 118.75 208.75 L 120.0 203.75 " stroke="black" fill="none" stroke-width="6.0" stroke-linecap="round" stroke-linejoin="round" />
<path d="M 147.5 46.25 L 146.25 46.25 L 145.0 46.25 L 143.75 46.25 L 143.75 46.25 L 143.75 46.25 L 143.75 46.25 L 143.75 46.25 L 143.75 46.25 L 143.75 46.25 L 143.75 46.25 L 145.0 46.25 L 145.0 47.5 L 145.0 51.25 L 145.0 57.5 L 145.0 68.75 L 145.0 82.5 L 145.0 96.25 L 145.0 108.75 L 143.75 121.25 L 143.75 133.75 L 143.75 143.75 L 143.75 153.75 L 143.75 160.0 L 143.75 167.5 L 143.75 173.75 L 143.75 181.25 L 143.75 186.25 L 143.75 190.0 L 143.75 193.75 L 143.75 196.25 L 143.75 200.0 L 143.75 201.25 L 143.75 205.0 L 143.75 206.25 L 143.75 208.75 L 143.75 210.0 L 143.75 210.0 L 143.75 210.0 L 143.75 211.25 L 143.75 212.5 L 143.75 213.75 L 143.75 215.0 L 143.75 216.25 L 143.75 216.25 L 143.75 215.0 L 143.75 211.25 " stroke="black" fill="none" stroke-width="6.0" stroke-linecap="round" stroke-linejoin="round" />
</svg>