<svg xmlns="http://www.w3.org/2000/svg" width="300" height="300" viewBox="0 0 300 300">
<path d="M 51.25 151.25 L 51.25 151.25 L 50.0 150.0 L 50.0 150.0 L 50.0 150.0 L 50.0 150.0 L 52.5 150.0 L 56.25 150.0 L 61.25 150.0 L 67.5 150.0 L 73.75 150.0 L 80.0 150.0 L 86.25 150.0 L 92.5 150.0 L 98.75 150.0 L 106.25 150.0 L 112.5 150.0 L 122.5 150.0 L 131.25 150.0 L 141.25 150.0 L 151.25 148.75 L 160.0 147.5 L 168.75 146.25 L 178.75 146.25 L 187.5 145.0 L 195.0 145.0 L 202.5 145.0 L 207.5 145.0 L 212.5 145.0 L 217.5 145.0 L 220.0 145.0 L 221.25 145.0 L 222.5 145.0 L 222.5 145.0 L 218.75 145.0 L 216.25 145.0 " stroke="black" fill="none" stroke-width="16.0" stroke-linecap="round" stroke-linejoin="round" />
<path d="M 205.0 116.25 L 203.75 115.0 L 202.5 113.75 L 201.25 112.5 L 201.25 112.5 L 201.25 112.5 L 201.25 112.5 L 201.25 112.5 L 201.25 113.75 L 201.25 117.5 L 202.5 122.5 L 202.5 131.25 L 203.75 140.0 L 203.75 150.0 L 205.0 158.75 L 205.0 166.25 L 205.0 171.25 L 205.0 173.75 L 205.0 176.25 L 205.0 176.25 L 205.0 176.25 L 205.0 176.25 L 205.0 176.25 L 205.0 176.25 L 205.0 176.25 L 205.0 177.5 L 205.0 177.5 L 205.0 177.5 L 205.0 177.5 L 205.0 177.5 L 205.0 177.5 L 206.25 176.25 L 210.0 172.5 L 216.25 166.25 L 222.5 160.0 L 228.75 155.0 L 235.0 151.25 L 237.5 150.0 L 238.75 148.75 L 238.75 148.75 L 238.75 148.75 L 238.75 148.75 L 238.75 148.75 L 237.5 148.75 L 236.25 147.5 L 235.0 146.25 L 231.25 143.75 L 228.75 140.0 L 223.75 136.25 L 218.75 132.5 L 213.75 127.5 L 211.25 123.75 L 208.75 120.0 L 207.5 117.5 L 207.5 113.75 L 206.25 111.25 L 206.25 110.0 L 205.0 108.75 L 205.0 107.5 L 205.0 106.25 L 203.75 106.25 L 203.75 105.0 L 203.75 105.0 L 203.75 105.0 L 203.75 105.0 L 203.75 105.0 L 203.75 105.0 L 203.75 105.0 L 203.75 106.25 L 203.75 107.5 L 203.75 110.0 L 205.0 116.25 L 207.5 125.0 L 210.0 135.0 L 211.25 143.75 L 213.75 148.75 L 213.75 150.0 L 213.75 151.25 L 213.75 151.25 L 213.75 151.25 L 213.75 151.25 L 212.5 151.25 L 212.5 152.5 L 212.5 152.5 " stroke="black" fill="none" stroke-width="16.0" stroke-linecap="round" stroke-linejoin="round" />
<path d="M 206.25 113.75 L 203.75 112.5 L 202.5 111.25 L 202.5 111.25 L 202.5 110.0 L 202.5 110.0 L 202.5 110.0 L 202.5 111.25 L 205.0 113.75 L 207.5 118.75 L 210.0 123.75 L 213.75 128.75 L 216.25 133.75 L 218.75 137.5 L 221.25 140.0 L 223.75 141.25 L 225.0 142.5 L 226.25 142.5 L 227.5 142.5 L 228.75 142.5 L 230.0 142.5 L 230.0 142.5 " stroke="black" fill="none" stroke-width="16.0" stroke-linecap="round" stroke-linejoin="round" />
<path d="M 202.5 111.25 L 201.25 111.25 L 200.0 110.0 L 200.0 110.0 L 200.0 110.0 L 200.0 110.0 L 202.5 112.5 L 205.0 115.0 L 207.5 118.75 L 210.0 121.25 L 212.5 125.0 L 213.75 127.5 L 216.25 130.0 L 218.75 132.5 L 220.0 135.0 L 221.25 136.25 L 222.5 137.5 L 225.0 138.75 L 226.25 140.0 L 227.5 141.25 L 228.75 141.25 L 230.0 142.5 L 231.25 143.75 L 232.5 145.0 L 232.5 145.0 L 233.75 145.0 L 235.0 146.25 L 235.0 146.25 L 235.0 146.25 L 235.0 146.25 L 235.0 146.25 L 232.5 147.5 " stroke="black" fill="none" stroke-width="16.0" stroke-linecap="round" stroke-linejoin="round" />
<path d="M 212.5 121.25 L 212.5 121.25 L 211.25 121.25 L 211.25 120.0 L 211.25 120.0 L 210.0 120.0 L 210.0 118.75 L 210.0 118.75 L 210.0 118.75 L 210.0 118.75 L 211.25 118.75 L 211.25 120.0 L 212.5 121.25 L 215.0 122.5 L 217.5 126.25 L 221.25 128.75 L 225.0 132.5 L 228.75 136.25 L 231.25 138.75 L 232.5 140.0 L 235.0 142.5 L 236.25 143.75 L 237.5 146.25 L 238.75 147.5 L 238.75 148.75 " stroke="black" fill="none" stroke-width="16.0" stroke-linecap="round" stroke-linejoin="round" />
</svg>