<svg xmlns="http://www.w3.org/2000/svg" width="300" height="300" viewBox="0 0 300 300">
<path d="M 132.5 145.0 L 130.0 145.0 L 128.75 145.0 L 127.5 145.0 L 127.5 145.0 L 128.75 145.0 L 131.25 145.0 L 135.0 145.0 L 138.75 143.75 L 142.5 143.75 L 146.25 143.75 L 150.0 143.75 L 153.75 143.75 L 158.75 143.75 L 165.0 142.5 L 171.25 142.5 L 177.5 142.5 L 183.75 142.5 L 190.0 142.5 L 195.0 142.5 L 198.75 142.5 L 201.25 142.5 L 202.5 142.5 L 202.5 142.5 L 203.75 142.5 L 203.75 142.5 L 203.75 142.5 L 203.75 142.5 L 203.75 142.5 L 203.75 142.5 L 203.75 142.5 L 203.75 142.5 L 203.75 142.5 " stroke="black" fill="none" stroke-width="16.0" stroke-linecap="round" stroke-linejoin="round" />
<path d="M 196.25 120.0 L 195.0 118.75 L 193.75 118.75 L 192.5 117.5 L 192.5 117.5 L 192.5 117.5 L 192.5 117.5 L 192.5 117.5 L 192.5 120.0 L 193.75 122.5 L 193.75 128.75 L 193.75 137.5 L 193.75 147.5 L 192.5 157.5 L 192.5 165.0 L 192.5 170.0 L 192.5 172.5 L 192.5 172.5 L 192.5 172.5 L 192.5 172.5 L 192.5 171.25 L 192.5 171.25 L 192.5 170.0 L 192.5 168.75 L 193.75 167.5 L 196.25 166.25 L 197.5 165.0 L 200.0 162.5 L 202.5 161.25 L 206.25 158.75 L 210.0 156.25 L 213.75 153.75 L 217.5 151.25 L 220.0 151.25 L 221.25 150.0 L 222.5 150.0 L 222.5 150.0 L 222.5 150.0 L 222.5 148.75 L 221.25 147.5 L 218.75 145.0 L 216.25 142.5 L 213.75 138.75 L 210.0 133.75 L 205.0 130.0 L 201.25 125.0 L 198.75 121.25 L 196.25 117.5 L 195.0 115.0 L 195.0 113.75 L 195.0 112.5 L 195.0 112.5 L 195.0 112.5 L 195.0 112.5 L 195.0 112.5 L 195.0 112.5 L 195.0 112.5 L 196.25 113.75 L 197.5 115.0 " stroke="black" fill="none" stroke-width="16.0" stroke-linecap="round" stroke-linejoin="round" />
<path d="M 126.25 153.75 L 126.25 153.75 L 125.0 153.75 L 125.0 153.75 L 123.75 153.75 L 123.75 153.75 L 123.75 153.75 L 123.75 153.75 L 123.75 153.75 L 125.0 153.75 L 125.0 153.75 L 126.25 153.75 L 127.5 153.75 L 130.0 153.75 L 132.5 153.75 L 135.0 153.75 L 137.5 153.75 L 138.75 153.75 L 141.25 153.75 L 142.5 153.75 L 145.0 153.75 L 146.25 153.75 L 148.75 153.75 L 150.0 153.75 L 151.25 153.75 L 153.75 153.75 L 155.0 153.75 L 156.25 153.75 L 157.5 153.75 L 160.0 153.75 L 161.25 153.75 L 162.5 153.75 L 163.75 153.75 L 166.25 153.75 L 167.5 153.75 L 168.75 153.75 L 171.25 153.75 L 172.5 153.75 L 175.0 153.75 L 177.5 153.75 L 180.0 153.75 L 185.0 153.75 L 188.75 153.75 L 192.5 153.75 L 195.0 153.75 L 197.5 153.75 L 200.0 152.5 L 201.25 152.5 L 202.5 152.5 L 202.5 152.5 L 202.5 152.5 " stroke="black" fill="none" stroke-width="16.0" stroke-linecap="round" stroke-linejoin="round" />
<path d="M 190.0 133.75 L 190.0 133.75 L 190.0 133.75 L 188.75 133.75 L 188.75 133.75 L 188.75 133.75 L 188.75 133.75 L 188.75 133.75 L 188.75 132.5 L 187.5 132.5 L 187.5 132.5 L 186.25 132.5 L 185.0 132.5 L 183.75 132.5 L 181.25 132.5 L 178.75 133.75 L 176.25 133.75 L 172.5 133.75 L 170.0 133.75 L 167.5 135.0 L 165.0 135.0 L 163.75 135.0 L 161.25 135.0 L 160.0 135.0 L 157.5 135.0 L 156.25 136.25 L 155.0 136.25 L 152.5 136.25 L 151.25 136.25 L 150.0 136.25 L 148.75 136.25 L 147.5 136.25 L 146.25 136.25 L 145.0 136.25 L 143.75 136.25 L 142.5 136.25 L 141.25 136.25 L 140.0 136.25 L 138.75 136.25 L 138.75 136.25 L 137.5 136.25 L 136.25 136.25 L 135.0 136.25 L 133.75 136.25 L 133.75 136.25 L 132.5 136.25 L 132.5 136.25 L 131.25 136.25 L 131.25 136.25 L 131.25 136.25 L 131.25 136.25 L 130.0 136.25 L 130.0 136.25 L 130.0 136.25 L 130.0 136.25 L 128.75 136.25 L 128.75 136.25 L 128.75 136.25 L 128.75 136.25 L 127.5 136.25 L 127.5 136.25 L 127.5 136.25 L 127.5 136.25 L 127.5 136.25 L 127.5 136.25 L 127.5 136.25 " stroke="black" fill="none" stroke-width="16.0" stroke-linecap="round" stroke-linejoin="round" />
<path d="M 126.25 138.75 L 126.25 138.75 L 126.25 138.75 L 126.25 138.75 L 126.25 140.0 L 126.25 141.25 L 126.25 142.5 " stroke="black" fill="none" stroke-width="16.0" stroke-linecap="round" stroke-linejoin="round" />
<path d="M 101.25 133.75 L 101.25 133.75 L 101.25 133.75 L 101.25 133.75 L 101.25 133.75 L 101.25 133.75 L 101.25 133.75 L 101.25 133.75 L 101.25 133.75 L 101.25 133.75 L 100.0 132.5 L 100.0 132.5 L 100.0 131.25 L 100.0 131.25 L 100.0 131.25 L 100.0 131.25 L 100.0 130.0 L 100.0 130.0 L 100.0 130.0 L 100.0 131.25 L 100.0 133.75 L 100.0 138.75 L 101.25 146.25 L 101.25 153.75 L 101.25 158.75 L 101.25 162.5 L 101.25 165.0 L 101.25 165.0 L 101.25 165.0 L 101.25 163.75 L 101.25 160.0 L 101.25 157.5 " stroke="black" fill="none" stroke-width="10.0" stroke-linecap="round" stroke-linejoin="round" />
<path d="M 86.25 130.0 L 85.0 130.0 L 83.75 130.0 L 82.5 130.0 L 82.5 130.0 L 82.5 130.0 L 82.5 130.0 L 82.5 131.25 L 82.5 135.0 L 83.75 141.25 L 83.75 150.0 L 85.0 156.25 L 85.0 162.5 L 85.0 165.0 L 85.0 165.0 L 85.0 165.0 L 85.0 165.0 L 85.0 165.0 L 85.0 163.75 L 85.0 163.75 L 85.0 163.75 L 85.0 163.75 " stroke="black" fill="none" stroke-width="9.0" stroke-linecap="round" stroke-linejoin="round" />
<path d="M 63.75 130.0 L 63.75 130.0 L 62.5 130.0 L 61.25 128.75 L 61.25 128.75 L 61.25 128.75 L 61.25 128.75 L 61.25 128.75 L 61.25 128.75 L 61.25 130.0 L 62.5 136.25 L 62.5 145.0 L 63.75 156.25 L 63.75 163.75 L 63.75 168.75 L 63.75 170.0 L 63.75 170.0 L 63.75 170.0 L 63.75 167.5 L 65.0 163.75 L 65.0 157.5 L 65.0 155.0 " stroke="black" fill="none" stroke-width="6.0" stroke-linecap="round" stroke-linejoin="round" />
</svg>