<svg xmlns="http://www.w3.org/2000/svg" width="300" height="300" viewBox="0 0 300 300">
<path d="M 113.75 145.0 L 113.75 145.0 L 112.5 145.0 L 112.5 145.0 L 111.25 143.75 L 111.25 143.75 L 111.25 143.75 L 111.25 142.5 L 111.25 142.5 L 110.0 141.25 L 110.0 141.25 L 110.0 140.0 L 108.75 138.75 L 107.5 136.25 L 105.0 133.75 L 102.5 131.25 L 98.75 127.5 L 93.75 123.75 L 88.75 118.75 L 82.5 112.5 L 75.0 107.5 L 67.5 103.75 L 61.25 101.25 L 56.25 98.75 L 53.75 96.25 L 51.25 95.0 L 50.0 93.75 L 50.0 92.5 L 50.0 92.5 L 50.0 91.25 L 50.0 91.25 L 50.0 91.25 L 50.0 91.25 L 50.0 91.25 L 50.0 91.25 L 50.0 91.25 L 51.25 91.25 L 55.0 91.25 L 58.75 91.25 L 65.0 91.25 L 73.75 91.25 L 80.0 91.25 L 87.5 92.5 L 93.75 95.0 L 100.0 97.5 L 107.5 100.0 L 117.5 102.5 L 131.25 107.5 L 145.0 111.25 L 155.0 116.25 L 162.5 118.75 L 171.25 120.0 L 183.75 122.5 L 195.0 123.75 L 205.0 125.0 L 212.5 126.25 L 217.5 127.5 L 221.25 130.0 L 225.0 131.25 L 227.5 132.5 L 230.0 133.75 L 232.5 133.75 L 233.75 135.0 L 233.75 135.0 L 233.75 135.0 L 233.75 135.0 L 233.75 135.0 L 233.75 135.0 L 233.75 135.0 L 233.75 135.0 L 233.75 135.0 L 233.75 135.0 L 233.75 135.0 L 233.75 135.0 L 233.75 135.0 L 233.75 135.0 L 233.75 135.0 L 233.75 135.0 L 235.0 136.25 L 236.25 136.25 L 237.5 137.5 L 238.75 137.5 L 238.75 138.75 L 240.0 138.75 L 240.0 138.75 L 241.25 138.75 L 241.25 140.0 L 241.25 140.0 L 241.25 140.0 L 241.25 140.0 L 241.25 140.0 L 241.25 140.0 L 240.0 140.0 L 236.25 140.0 L 231.25 141.25 L 223.75 142.5 L 213.75 145.0 L 205.0 147.5 L 196.25 150.0 L 186.25 153.75 L 176.25 156.25 L 166.25 158.75 L 158.75 162.5 L 152.5 165.0 L 147.5 167.5 L 140.0 170.0 L 131.25 172.5 L 121.25 176.25 L 110.0 178.75 L 101.25 181.25 L 95.0 182.5 L 87.5 183.75 L 80.0 186.25 L 71.25 187.5 L 65.0 188.75 L 60.0 188.75 L 58.75 190.0 L 56.25 190.0 L 56.25 190.0 L 55.0 191.25 L 55.0 191.25 L 55.0 192.5 L 55.0 192.5 L 55.0 192.5 L 55.0 192.5 L 55.0 192.5 L 55.0 192.5 L 57.5 190.0 L 61.25 186.25 L 68.75 180.0 L 77.5 172.5 L 86.25 165.0 L 92.5 158.75 L 97.5 153.75 L 100.0 151.25 L 100.0 150.0 L 100.0 150.0 L 100.0 150.0 L 100.0 150.0 L 100.0 150.0 L 100.0 150.0 L 100.0 150.0 L 100.0 151.25 L 98.75 151.25 " stroke="black" fill="none" stroke-width="6.0" stroke-linecap="round" stroke-linejoin="round" />
<path d="M 93.75 162.5 L 93.75 162.5 L 93.75 162.5 L 93.75 162.5 L 92.5 162.5 L 92.5 162.5 L 93.75 160.0 L 96.25 157.5 L 100.0 153.75 L 103.75 150.0 L 106.25 146.25 L 107.5 143.75 L 107.5 143.75 " stroke="black" fill="none" stroke-width="6.0" stroke-linecap="round" stroke-linejoin="round" />
<path d="M 103.75 146.25 L 103.75 146.25 L 103.75 146.25 L 102.5 145.0 L 102.5 145.0 L 102.5 143.75 L 102.5 143.75 L 103.75 142.5 L 106.25 142.5 L 108.75 141.25 L 112.5 141.25 L 116.25 141.25 L 120.0 141.25 L 125.0 141.25 L 130.0 141.25 L 136.25 141.25 L 140.0 141.25 L 145.0 141.25 L 147.5 141.25 L 151.25 141.25 L 153.75 141.25 L 157.5 141.25 L 161.25 141.25 L 163.75 141.25 L 167.5 141.25 L 171.25 142.5 L 176.25 142.5 L 181.25 142.5 L 185.0 142.5 L 188.75 142.5 L 192.5 142.5 L 195.0 142.5 L 197.5 142.5 L 200.0 142.5 L 203.75 142.5 L 207.5 142.5 L 210.0 142.5 L 212.5 141.25 L 213.75 141.25 L 213.75 141.25 L 215.0 141.25 L 215.0 141.25 L 216.25 141.25 L 218.75 141.25 L 220.0 141.25 L 221.25 141.25 L 222.5 141.25 L 223.75 141.25 L 223.75 141.25 L 223.75 141.25 " stroke="black" fill="none" stroke-width="6.0" stroke-linecap="round" stroke-linejoin="round" />
<path d="M 101.25 127.5 L 101.25 127.5 L 101.25 126.25 L 101.25 126.25 L 106.25 126.25 L 118.75 126.25 L 137.5 128.75 L 155.0 131.25 L 168.75 132.5 L 180.0 133.75 L 185.0 133.75 L 186.25 133.75 L 185.0 133.75 L 176.25 133.75 L 163.75 133.75 L 150.0 132.5 L 136.25 131.25 L 122.5 131.25 L 116.25 130.0 L 116.25 130.0 L 122.5 130.0 L 135.0 130.0 L 150.0 130.0 L 165.0 130.0 L 176.25 130.0 L 190.0 131.25 L 192.5 132.5 L 191.25 132.5 L 180.0 132.5 L 163.75 132.5 L 147.5 132.5 L 137.5 133.75 L 127.5 133.75 L 127.5 135.0 L 133.75 135.0 L 148.75 135.0 L 166.25 135.0 L 186.25 135.0 L 203.75 135.0 L 211.25 135.0 L 211.25 135.0 L 207.5 135.0 L 198.75 135.0 L 182.5 135.0 L 168.75 136.25 L 165.0 136.25 L 153.75 136.25 L 151.25 136.25 L 153.75 137.5 L 162.5 138.75 L 175.0 138.75 L 188.75 140.0 L 201.25 140.0 L 207.5 140.0 L 208.75 140.0 L 208.75 140.0 L 208.75 140.0 L 207.5 140.0 L 207.5 140.0 L 208.75 140.0 L 212.5 140.0 L 217.5 140.0 L 221.25 140.0 L 226.25 140.0 L 228.75 140.0 L 230.0 140.0 L 230.0 140.0 L 230.0 140.0 L 228.75 138.75 L 226.25 138.75 L 220.0 137.5 L 213.75 136.25 L 206.25 135.0 L 198.75 135.0 L 192.5 135.0 L 190.0 135.0 L 190.0 135.0 L 196.25 135.0 L 203.75 136.25 L 213.75 137.5 L 221.25 137.5 L 226.25 137.5 L 226.25 137.5 L 225.0 137.5 L 215.0 136.25 L 203.75 135.0 L 190.0 133.75 L 178.75 133.75 L 172.5 133.75 L 172.5 133.75 L 176.25 133.75 L 185.0 135.0 L 193.75 135.0 L 200.0 136.25 L 203.75 136.25 L 203.75 136.25 L 196.25 135.0 L 182.5 135.0 L 166.25 133.75 L 153.75 133.75 L 150.0 133.75 L 151.25 133.75 L 158.75 135.0 L 172.5 135.0 L 185.0 135.0 L 197.5 135.0 L 205.0 135.0 L 206.25 135.0 L 205.0 135.0 L 196.25 133.75 L 183.75 132.5 L 168.75 132.5 L 157.5 131.25 L 155.0 131.25 L 155.0 131.25 L 163.75 131.25 L 176.25 132.5 L 191.25 132.5 L 203.75 132.5 L 211.25 132.5 L 213.75 132.5 L 212.5 132.5 L 207.5 132.5 L 198.75 132.5 L 187.5 131.25 L 178.75 131.25 L 173.75 131.25 L 173.75 131.25 L 180.0 131.25 L 193.75 131.25 L 206.25 132.5 L 216.25 132.5 L 223.75 133.75 L 226.25 133.75 L 226.25 133.75 L 218.75 132.5 L 208.75 131.25 L 196.25 131.25 L 182.5 131.25 L 171.25 131.25 L 167.5 131.25 L 168.75 131.25 L 175.0 131.25 L 183.75 132.5 L 191.25 132.5 L 196.25 132.5 L 197.5 132.5 L 193.75 131.25 L 181.25 130.0 L 166.25 128.75 L 151.25 128.75 L 142.5 128.75 L 138.75 128.75 L 138.75 128.75 L 142.5 128.75 L 150.0 128.75 L 158.75 128.75 L 166.25 128.75 L 170.0 128.75 L 172.5 128.75 L 167.5 128.75 L 156.25 127.5 L 143.75 125.0 L 131.25 123.75 L 121.25 123.75 L 117.5 122.5 L 120.0 122.5 L 128.75 122.5 L 142.5 123.75 L 155.0 123.75 L 168.75 125.0 L 180.0 126.25 L 185.0 126.25 L 183.75 126.25 L 172.5 125.0 L 157.5 123.75 L 142.5 121.25 L 123.75 118.75 L 107.5 117.5 L 100.0 116.25 L 100.0 115.0 L 105.0 116.25 L 115.0 118.75 L 131.25 121.25 L 146.25 123.75 L 160.0 125.0 L 166.25 125.0 L 166.25 125.0 L 160.0 123.75 L 150.0 120.0 L 137.5 116.25 L 122.5 112.5 L 107.5 108.75 L 101.25 107.5 L 100.0 106.25 L 102.5 107.5 L 110.0 110.0 L 120.0 112.5 L 132.5 115.0 L 143.75 116.25 L 148.75 116.25 L 148.75 116.25 L 142.5 116.25 L 128.75 113.75 L 113.75 111.25 L 100.0 110.0 L 90.0 108.75 L 86.25 108.75 L 87.5 108.75 L 95.0 111.25 L 106.25 112.5 L 121.25 113.75 L 133.75 115.0 L 141.25 115.0 L 141.25 115.0 L 137.5 113.75 L 125.0 111.25 L 112.5 110.0 L 101.25 110.0 L 93.75 108.75 L 91.25 108.75 L 92.5 108.75 L 98.75 110.0 L 105.0 111.25 L 112.5 111.25 L 116.25 111.25 L 117.5 111.25 L 115.0 110.0 L 107.5 108.75 L 98.75 106.25 L 91.25 106.25 L 86.25 105.0 L 85.0 105.0 L 87.5 105.0 L 93.75 106.25 L 101.25 106.25 L 108.75 106.25 L 115.0 106.25 L 116.25 106.25 L 117.5 106.25 L 112.5 105.0 L 106.25 103.75 L 100.0 102.5 L 95.0 102.5 L 92.5 102.5 L 92.5 102.5 L 95.0 102.5 L 102.5 103.75 L 108.75 105.0 L 112.5 105.0 L 115.0 105.0 L 116.25 105.0 L 113.75 105.0 L 106.25 103.75 L 98.75 103.75 L 90.0 102.5 L 83.75 102.5 L 80.0 102.5 L 80.0 102.5 L 82.5 102.5 L 88.75 102.5 L 93.75 102.5 L 97.5 102.5 L 98.75 102.5 L 98.75 102.5 L 93.75 102.5 L 87.5 102.5 L 81.25 102.5 L 76.25 101.25 L 72.5 101.25 L 68.75 100.0 L 67.5 100.0 L 65.0 100.0 L 62.5 100.0 L 61.25 98.75 L 58.75 98.75 L 57.5 98.75 L 56.25 98.75 L 55.0 98.75 L 53.75 98.75 L 52.5 98.75 L 52.5 98.75 L 52.5 98.75 L 52.5 98.75 L 56.25 98.75 L 62.5 98.75 L 71.25 98.75 L 81.25 98.75 L 88.75 98.75 L 91.25 98.75 L 92.5 98.75 L 90.0 98.75 L 86.25 97.5 L 81.25 97.5 L 77.5 96.25 L 75.0 96.25 L 72.5 95.0 L 71.25 95.0 L 70.0 95.0 L 71.25 95.0 L 76.25 95.0 L 82.5 95.0 L 87.5 96.25 L 91.25 96.25 L 93.75 96.25 L 93.75 96.25 L 92.5 96.25 L 86.25 96.25 L 78.75 96.25 L 70.0 96.25 L 63.75 96.25 L 58.75 96.25 L 57.5 96.25 L 57.5 96.25 L 57.5 96.25 L 60.0 96.25 L 61.25 97.5 L 61.25 97.5 L 62.5 97.5 L 62.5 98.75 L 62.5 98.75 L 61.25 98.75 L 61.25 98.75 L 60.0 98.75 L 58.75 98.75 L 58.75 98.75 L 58.75 98.75 L 57.5 98.75 L 57.5 100.0 L 60.0 100.0 L 63.75 101.25 L 68.75 102.5 L 75.0 102.5 L 80.0 103.75 L 83.75 105.0 L 86.25 105.0 L 87.5 106.25 L 87.5 107.5 L 88.75 108.75 L 88.75 108.75 L 90.0 110.0 L 91.25 111.25 L 91.25 112.5 L 93.75 115.0 L 95.0 116.25 L 97.5 118.75 L 100.0 120.0 L 103.75 122.5 L 110.0 126.25 L 116.25 128.75 L 121.25 132.5 L 121.25 132.5 " stroke="black" fill="none" stroke-width="6.0" stroke-linecap="round" stroke-linejoin="round" />
<path d="M 107.5 137.5 L 107.5 137.5 L 106.25 136.25 L 105.0 135.0 L 105.0 133.75 L 106.25 132.5 L 110.0 132.5 L 116.25 131.25 L 121.25 131.25 L 126.25 131.25 L 127.5 131.25 L 127.5 131.25 L 122.5 132.5 L 116.25 132.5 L 110.0 133.75 L 106.25 133.75 L 103.75 135.0 L 103.75 135.0 L 105.0 133.75 L 108.75 131.25 L 111.25 128.75 L 112.5 126.25 L 113.75 123.75 L 113.75 121.25 L 113.75 121.25 L 113.75 122.5 L 112.5 126.25 L 112.5 130.0 L 112.5 132.5 L 111.25 135.0 L 111.25 136.25 L 111.25 136.25 L 111.25 135.0 L 111.25 131.25 L 111.25 125.0 L 110.0 120.0 L 108.75 117.5 L 107.5 117.5 L 107.5 123.75 L 108.75 130.0 " stroke="black" fill="none" stroke-width="6.0" stroke-linecap="round" stroke-linejoin="round" />
<path d="M 107.5 133.75 L 103.75 133.75 L 102.5 133.75 L 101.25 133.75 L 101.25 133.75 L 105.0 133.75 L 110.0 133.75 L 120.0 133.75 L 130.0 133.75 L 137.5 133.75 L 140.0 133.75 " stroke="black" fill="none" stroke-width="6.0" stroke-linecap="round" stroke-linejoin="round" />
<path d="M 106.25 138.75 L 105.0 138.75 L 105.0 138.75 L 105.0 138.75 L 110.0 137.5 L 118.75 137.5 L 128.75 136.25 L 136.25 136.25 L 138.75 135.0 " stroke="black" fill="none" stroke-width="6.0" stroke-linecap="round" stroke-linejoin="round" />
<path d="M 112.5 140.0 L 112.5 140.0 L 112.5 138.75 L 113.75 137.5 L 122.5 137.5 L 135.0 136.25 L 142.5 135.0 " stroke="black" fill="none" stroke-width="6.0" stroke-linecap="round" stroke-linejoin="round" />
<path d="M 130.0 135.0 L 130.0 135.0 L 131.25 135.0 L 135.0 135.0 L 147.5 135.0 L 166.25 137.5 L 190.0 138.75 L 207.5 138.75 L 215.0 138.75 L 216.25 138.75 L 216.25 138.75 " stroke="black" fill="none" stroke-width="6.0" stroke-linecap="round" stroke-linejoin="round" />
<path d="M 202.5 135.0 L 202.5 135.0 L 202.5 135.0 L 202.5 133.75 L 202.5 132.5 L 202.5 132.5 L 202.5 131.25 L 201.25 131.25 L 200.0 130.0 L 197.5 130.0 L 193.75 128.75 L 190.0 128.75 L 187.5 128.75 L 187.5 128.75 L 190.0 128.75 L 196.25 128.75 L 202.5 128.75 L 206.25 130.0 L 207.5 130.0 L 207.5 130.0 L 203.75 128.75 L 197.5 128.75 L 192.5 127.5 L 188.75 126.25 L 186.25 126.25 L 186.25 126.25 L 186.25 126.25 L 187.5 126.25 L 190.0 126.25 L 192.5 127.5 L 193.75 128.75 L 195.0 128.75 " stroke="black" fill="none" stroke-width="6.0" stroke-linecap="round" stroke-linejoin="round" />
</svg>