<svg xmlns="http://www.w3.org/2000/svg" width="300" height="300" viewBox="0 0 300 300">
<path d="M 132.5 73.75 L 132.5 73.75 L 130.0 72.5 L 127.5 71.25 L 127.5 71.25 L 127.5 71.25 L 130.0 72.5 L 132.5 76.25 L 136.25 81.25 L 140.0 88.75 L 142.5 97.5 L 145.0 108.75 L 146.25 120.0 L 146.25 131.25 L 146.25 140.0 L 145.0 148.75 L 142.5 156.25 L 141.25 165.0 L 140.0 172.5 L 138.75 181.25 L 136.25 190.0 L 133.75 197.5 L 132.5 205.0 L 131.25 210.0 L 128.75 213.75 L 127.5 218.75 L 126.25 222.5 L 123.75 227.5 L 122.5 232.5 L 121.25 235.0 L 121.25 237.5 L 121.25 237.5 L 121.25 237.5 L 121.25 237.5 L 121.25 237.5 L 121.25 236.25 L 121.25 236.25 L 122.5 235.0 L 123.75 232.5 L 127.5 227.5 L 132.5 222.5 L 137.5 216.25 L 143.75 210.0 L 148.75 205.0 L 153.75 201.25 L 157.5 196.25 L 162.5 192.5 L 167.5 187.5 L 171.25 183.75 L 175.0 178.75 L 177.5 173.75 L 180.0 168.75 L 181.25 163.75 L 182.5 160.0 L 182.5 155.0 L 182.5 150.0 L 181.25 145.0 L 180.0 138.75 L 177.5 132.5 L 173.75 126.25 L 171.25 120.0 L 168.75 113.75 L 165.0 107.5 L 161.25 102.5 L 157.5 97.5 L 153.75 93.75 L 151.25 90.0 L 147.5 87.5 L 145.0 83.75 L 141.25 81.25 L 138.75 78.75 L 137.5 76.25 L 136.25 75.0 L 136.25 73.75 L 136.25 72.5 L 135.0 72.5 L 135.0 71.25 " stroke="black" fill="none" stroke-width="6.0" stroke-linecap="round" stroke-linejoin="round" />
</svg>