<svg xmlns="http://www.w3.org/2000/svg" width="300" height="300" viewBox="0 0 300 300">
<path d="M 168.75 80.0 L 168.75 78.75 L 170.0 77.5 L 170.0 75.0 L 171.25 73.75 L 171.25 73.75 L 171.25 72.5 L 171.25 72.5 L 170.0 73.75 L 166.25 77.5 L 161.25 81.25 L 155.0 87.5 L 150.0 95.0 L 145.0 102.5 L 141.25 108.75 L 138.75 113.75 L 137.5 118.75 L 135.0 125.0 L 132.5 130.0 L 131.25 135.0 L 130.0 138.75 L 128.75 142.5 L 127.5 146.25 L 127.5 150.0 L 127.5 153.75 L 127.5 157.5 L 128.75 163.75 L 130.0 168.75 L 131.25 175.0 L 133.75 181.25 L 136.25 186.25 L 140.0 192.5 L 142.5 197.5 L 145.0 201.25 L 147.5 205.0 L 150.0 207.5 L 152.5 208.75 L 155.0 210.0 L 158.75 210.0 L 162.5 211.25 L 166.25 211.25 L 168.75 211.25 L 171.25 211.25 L 172.5 211.25 L 173.75 211.25 L 175.0 211.25 L 177.5 211.25 L 178.75 211.25 L 181.25 211.25 L 182.5 211.25 L 183.75 211.25 L 182.5 206.25 " stroke="black" fill="none" stroke-width="6.0" stroke-linecap="round" stroke-linejoin="round" />
<path d="M 175.0 68.75 L 175.0 68.75 L 172.5 70.0 L 171.25 71.25 L 170.0 73.75 L 168.75 77.5 L 167.5 83.75 L 165.0 91.25 L 162.5 101.25 L 160.0 115.0 L 156.25 127.5 L 155.0 138.75 L 155.0 146.25 L 155.0 153.75 L 155.0 160.0 L 156.25 167.5 L 158.75 173.75 L 160.0 181.25 L 162.5 187.5 L 165.0 191.25 L 168.75 195.0 L 171.25 198.75 L 173.75 201.25 L 176.25 203.75 L 178.75 205.0 L 180.0 206.25 L 182.5 206.25 L 182.5 207.5 L 183.75 208.75 L 185.0 208.75 L 186.25 210.0 L 187.5 211.25 L 187.5 211.25 L 187.5 211.25 L 187.5 211.25 L 187.5 211.25 L 187.5 211.25 " stroke="black" fill="none" stroke-width="6.0" stroke-linecap="round" stroke-linejoin="round" />
</svg>