<svg xmlns="http://www.w3.org/2000/svg" width="300" height="300" viewBox="0 0 300 300">
<path d="M 108.75 122.5 L 108.75 122.5 L 108.75 122.5 L 108.75 123.75 L 107.5 123.75 L 107.5 123.75 L 107.5 125.0 L 107.5 125.0 L 110.0 126.25 L 115.0 130.0 L 122.5 136.25 L 133.75 147.5 L 146.25 158.75 L 155.0 170.0 L 160.0 177.5 L 163.75 181.25 L 165.0 182.5 L 165.0 182.5 L 165.0 182.5 L 165.0 181.25 L 163.75 178.75 L 160.0 173.75 L 153.75 167.5 L 152.5 166.25 " stroke="black" fill="none" stroke-width="20.0" stroke-linecap="round" stroke-linejoin="round" />
<path d="M 110.0 123.75 L 110.0 122.5 L 108.75 122.5 L 108.75 120.0 L 110.0 115.0 L 115.0 110.0 L 117.5 106.25 L 118.75 105.0 L 120.0 105.0 L 122.5 106.25 L 125.0 110.0 L 130.0 115.0 L 135.0 122.5 L 142.5 131.25 L 151.25 140.0 L 158.75 146.25 L 165.0 151.25 L 170.0 153.75 L 172.5 156.25 L 172.5 156.25 L 173.75 157.5 L 173.75 157.5 L 173.75 157.5 L 173.75 157.5 L 173.75 158.75 L 171.25 160.0 " stroke="black" fill="none" stroke-width="20.0" stroke-linecap="round" stroke-linejoin="round" />
<path d="M 120.0 116.25 L 120.0 116.25 L 117.5 116.25 L 116.25 116.25 L 116.25 116.25 L 116.25 116.25 L 123.75 120.0 L 138.75 135.0 L 156.25 152.5 L 168.75 165.0 L 172.5 170.0 L 173.75 170.0 L 172.5 168.75 L 170.0 165.0 L 163.75 158.75 L 157.5 152.5 L 152.5 146.25 L 147.5 138.75 L 145.0 133.75 L 142.5 130.0 L 142.5 130.0 L 142.5 131.25 L 147.5 138.75 L 156.25 148.75 L 163.75 157.5 L 171.25 165.0 L 175.0 167.5 L 176.25 167.5 L 176.25 167.5 " stroke="black" fill="none" stroke-width="20.0" stroke-linecap="round" stroke-linejoin="round" />
<path d="M 153.75 196.25 L 153.75 196.25 L 153.75 196.25 L 153.75 196.25 L 153.75 196.25 L 155.0 196.25 L 160.0 191.25 L 168.75 183.75 L 178.75 172.5 L 187.5 161.25 L 193.75 155.0 L 197.5 150.0 L 198.75 147.5 L 198.75 147.5 L 198.75 147.5 L 198.75 147.5 L 198.75 147.5 L 198.75 147.5 L 198.75 148.75 L 198.75 148.75 L 198.75 151.25 L 198.75 155.0 L 198.75 160.0 L 198.75 168.75 L 198.75 177.5 L 198.75 186.25 L 198.75 193.75 L 198.75 197.5 L 198.75 198.75 L 198.75 198.75 L 198.75 198.75 L 198.75 197.5 L 198.75 197.5 L 198.75 196.25 L 198.75 196.25 L 198.75 196.25 L 198.75 196.25 L 198.75 196.25 L 197.5 196.25 L 196.25 196.25 L 192.5 196.25 L 187.5 196.25 L 180.0 196.25 L 172.5 196.25 L 163.75 198.75 L 157.5 201.25 L 153.75 203.75 L 153.75 205.0 L 153.75 205.0 L 153.75 205.0 L 155.0 205.0 L 155.0 205.0 L 157.5 205.0 L 161.25 202.5 L 162.5 202.5 " stroke="black" fill="none" stroke-width="20.0" stroke-linecap="round" stroke-linejoin="round" />
<path d="M 192.5 161.25 L 190.0 161.25 L 188.75 162.5 L 186.25 165.0 L 183.75 170.0 L 180.0 178.75 L 176.25 185.0 L 173.75 190.0 L 173.75 191.25 L 173.75 191.25 L 176.25 188.75 L 181.25 186.25 L 186.25 182.5 L 188.75 180.0 L 191.25 178.75 L 192.5 178.75 L 192.5 180.0 L 190.0 185.0 L 186.25 188.75 L 185.0 191.25 L 183.75 192.5 L 182.5 193.75 L 183.75 191.25 L 186.25 187.5 L 188.75 183.75 L 191.25 180.0 L 192.5 177.5 " stroke="black" fill="none" stroke-width="20.0" stroke-linecap="round" stroke-linejoin="round" />
<path d="M 162.5 196.25 L 161.25 198.75 L 160.0 200.0 L 160.0 200.0 L 163.75 201.25 L 170.0 201.25 L 178.75 200.0 L 186.25 197.5 L 195.0 193.75 L 198.75 191.25 " stroke="black" fill="none" stroke-width="20.0" stroke-linecap="round" stroke-linejoin="round" />
<path d="M 172.5 198.75 L 171.25 200.0 L 170.0 201.25 L 168.75 201.25 L 168.75 201.25 L 168.75 201.25 L 170.0 201.25 L 171.25 200.0 L 175.0 200.0 L 178.75 198.75 L 183.75 197.5 L 187.5 196.25 L 191.25 195.0 L 193.75 195.0 L 195.0 195.0 L 197.5 195.0 L 197.5 195.0 L 198.75 195.0 L 198.75 195.0 L 198.75 195.0 " stroke="black" fill="none" stroke-width="20.0" stroke-linecap="round" stroke-linejoin="round" />
</svg>