<svg xmlns="http://www.w3.org/2000/svg" width="300" height="300" viewBox="0 0 300 300">
<path d="M 100.0 127.5 L 100.0 127.5 L 100.0 127.5 L 100.0 127.5 L 100.0 127.5 L 101.25 127.5 L 103.75 127.5 L 110.0 127.5 L 118.75 127.5 L 127.5 127.5 L 137.5 127.5 L 145.0 127.5 L 153.75 127.5 L 162.5 127.5 L 172.5 127.5 L 182.5 127.5 L 188.75 127.5 L 192.5 127.5 L 192.5 127.5 L 191.25 128.75 L 182.5 131.25 " stroke="black" fill="none" stroke-width="20.0" stroke-linecap="round" stroke-linejoin="round" />
<path d="M 111.25 136.25 L 108.75 136.25 L 106.25 136.25 L 103.75 136.25 L 102.5 136.25 L 102.5 136.25 L 102.5 136.25 L 103.75 136.25 L 107.5 137.5 L 113.75 137.5 L 121.25 138.75 L 130.0 138.75 L 140.0 138.75 L 148.75 140.0 L 156.25 141.25 L 162.5 141.25 L 168.75 141.25 L 173.75 141.25 L 177.5 141.25 L 178.75 141.25 L 178.75 141.25 L 177.5 142.5 L 176.25 142.5 " stroke="black" fill="none" stroke-width="20.0" stroke-linecap="round" stroke-linejoin="round" />
<path d="M 185.0 101.25 L 185.0 101.25 L 185.0 101.25 L 185.0 101.25 L 185.0 100.0 L 185.0 100.0 L 185.0 100.0 L 185.0 102.5 L 185.0 111.25 L 185.0 122.5 L 185.0 133.75 L 185.0 142.5 L 186.25 147.5 L 186.25 150.0 L 186.25 151.25 L 186.25 151.25 L 186.25 151.25 L 186.25 151.25 L 186.25 151.25 L 186.25 151.25 L 186.25 151.25 L 186.25 151.25 L 186.25 151.25 L 186.25 151.25 L 186.25 151.25 L 187.5 150.0 L 188.75 150.0 L 192.5 148.75 L 196.25 146.25 L 200.0 143.75 L 202.5 142.5 L 203.75 141.25 L 205.0 138.75 L 206.25 137.5 L 206.25 136.25 L 206.25 136.25 L 206.25 135.0 L 205.0 132.5 L 205.0 131.25 L 203.75 127.5 L 201.25 123.75 L 198.75 120.0 L 196.25 115.0 L 193.75 108.75 L 191.25 105.0 L 190.0 102.5 L 188.75 100.0 L 188.75 98.75 L 187.5 97.5 L 187.5 97.5 L 186.25 96.25 L 186.25 95.0 L 186.25 95.0 L 186.25 95.0 L 186.25 95.0 L 186.25 95.0 L 186.25 95.0 L 186.25 96.25 " stroke="black" fill="none" stroke-width="20.0" stroke-linecap="round" stroke-linejoin="round" />
<path d="M 105.0 108.75 L 105.0 108.75 L 105.0 107.5 L 103.75 106.25 L 103.75 106.25 L 103.75 106.25 L 103.75 106.25 L 103.75 106.25 L 103.75 106.25 L 103.75 106.25 L 103.75 106.25 L 102.5 108.75 L 100.0 113.75 L 96.25 120.0 L 91.25 127.5 L 88.75 132.5 L 87.5 135.0 L 87.5 135.0 L 87.5 135.0 L 87.5 135.0 L 87.5 133.75 L 87.5 133.75 L 88.75 133.75 L 88.75 132.5 L 90.0 132.5 L 90.0 132.5 L 91.25 132.5 L 91.25 132.5 L 92.5 132.5 L 93.75 132.5 L 96.25 136.25 L 100.0 142.5 L 102.5 148.75 L 105.0 155.0 L 107.5 160.0 L 107.5 162.5 L 108.75 163.75 L 108.75 163.75 L 108.75 163.75 L 108.75 163.75 L 108.75 162.5 L 108.75 160.0 L 108.75 155.0 L 108.75 150.0 L 108.75 143.75 L 108.75 135.0 L 108.75 126.25 L 107.5 117.5 L 106.25 108.75 L 105.0 103.75 L 103.75 101.25 L 103.75 100.0 L 102.5 100.0 L 102.5 100.0 L 102.5 100.0 L 102.5 100.0 L 105.0 102.5 " stroke="black" fill="none" stroke-width="20.0" stroke-linecap="round" stroke-linejoin="round" />
<path d="M 101.25 105.0 L 101.25 105.0 L 101.25 105.0 L 100.0 105.0 L 100.0 105.0 L 100.0 103.75 L 100.0 103.75 L 100.0 103.75 L 100.0 103.75 L 98.75 103.75 L 97.5 106.25 L 95.0 111.25 L 91.25 118.75 L 88.75 125.0 L 87.5 128.75 L 87.5 128.75 " stroke="black" fill="none" stroke-width="20.0" stroke-linecap="round" stroke-linejoin="round" />
<path d="M 88.75 135.0 L 87.5 135.0 L 85.0 133.75 L 85.0 133.75 L 83.75 133.75 L 83.75 133.75 L 83.75 133.75 L 85.0 135.0 L 87.5 137.5 L 88.75 141.25 L 91.25 146.25 L 95.0 152.5 L 100.0 158.75 L 106.25 163.75 " stroke="black" fill="none" stroke-width="20.0" stroke-linecap="round" stroke-linejoin="round" />
<path d="M 187.5 141.25 L 187.5 141.25 L 187.5 141.25 L 187.5 141.25 L 187.5 141.25 L 187.5 141.25 L 187.5 141.25 L 187.5 141.25 L 186.25 142.5 L 186.25 146.25 L 185.0 151.25 L 185.0 155.0 L 185.0 158.75 L 185.0 160.0 L 185.0 161.25 L 185.0 161.25 L 185.0 161.25 L 185.0 161.25 L 185.0 161.25 L 185.0 160.0 L 185.0 160.0 L 185.0 160.0 L 185.0 160.0 L 185.0 160.0 L 185.0 160.0 L 185.0 161.25 L 185.0 162.5 L 185.0 162.5 L 185.0 163.75 L 186.25 165.0 L 186.25 165.0 L 186.25 165.0 L 187.5 163.75 L 190.0 162.5 L 192.5 158.75 L 195.0 155.0 L 198.75 151.25 L 201.25 147.5 L 203.75 145.0 L 205.0 143.75 L 206.25 142.5 L 206.25 141.25 " stroke="black" fill="none" stroke-width="20.0" stroke-linecap="round" stroke-linejoin="round" />
</svg>