<svg xmlns="http://www.w3.org/2000/svg" width="300" height="300" viewBox="0 0 300 300">
<path d="M 108.75 177.5 L 107.5 177.5 L 106.25 177.5 L 106.25 177.5 L 105.0 177.5 L 105.0 177.5 L 105.0 177.5 L 105.0 177.5 L 105.0 177.5 L 107.5 175.0 L 110.0 172.5 L 115.0 168.75 L 120.0 165.0 L 127.5 158.75 L 135.0 152.5 L 140.0 147.5 L 145.0 143.75 L 148.75 138.75 L 151.25 136.25 L 152.5 133.75 L 155.0 130.0 L 157.5 127.5 L 158.75 126.25 L 161.25 125.0 L 161.25 123.75 L 161.25 123.75 L 161.25 123.75 L 161.25 125.0 L 158.75 128.75 L 153.75 133.75 " stroke="black" fill="none" stroke-width="20.0" stroke-linecap="round" stroke-linejoin="round" />
<path d="M 107.5 176.25 L 107.5 176.25 L 107.5 177.5 L 107.5 177.5 L 106.25 177.5 L 106.25 177.5 L 106.25 177.5 L 107.5 178.75 L 110.0 180.0 L 113.75 182.5 L 117.5 185.0 L 120.0 187.5 L 122.5 188.75 L 123.75 190.0 L 125.0 190.0 L 125.0 191.25 L 125.0 191.25 L 125.0 191.25 L 125.0 191.25 L 125.0 191.25 L 126.25 190.0 L 126.25 188.75 L 128.75 186.25 L 130.0 183.75 L 133.75 180.0 L 137.5 175.0 L 142.5 167.5 L 147.5 160.0 L 152.5 153.75 L 157.5 148.75 L 161.25 145.0 L 163.75 141.25 L 167.5 138.75 L 170.0 135.0 L 172.5 132.5 L 173.75 131.25 L 173.75 130.0 L 173.75 128.75 L 172.5 130.0 L 168.75 133.75 L 163.75 137.5 " stroke="black" fill="none" stroke-width="20.0" stroke-linecap="round" stroke-linejoin="round" />
<path d="M 151.25 102.5 L 151.25 102.5 L 151.25 101.25 L 150.0 101.25 L 150.0 100.0 L 150.0 100.0 L 150.0 100.0 L 150.0 100.0 L 150.0 100.0 L 151.25 100.0 L 152.5 101.25 L 155.0 105.0 L 157.5 108.75 L 160.0 113.75 L 163.75 120.0 L 167.5 125.0 L 171.25 128.75 L 175.0 132.5 L 178.75 135.0 L 182.5 136.25 L 185.0 138.75 L 187.5 140.0 L 188.75 141.25 L 190.0 142.5 L 191.25 143.75 L 192.5 145.0 L 192.5 145.0 L 193.75 146.25 L 193.75 146.25 L 193.75 146.25 L 193.75 146.25 L 193.75 146.25 L 193.75 146.25 L 193.75 146.25 L 193.75 146.25 L 193.75 146.25 L 193.75 145.0 L 193.75 143.75 L 195.0 141.25 L 195.0 138.75 L 196.25 135.0 L 196.25 130.0 L 197.5 123.75 L 197.5 118.75 L 197.5 115.0 L 196.25 111.25 L 196.25 110.0 L 195.0 108.75 L 195.0 108.75 L 192.5 107.5 L 191.25 107.5 L 188.75 106.25 L 186.25 105.0 L 182.5 103.75 L 178.75 102.5 L 173.75 101.25 L 170.0 98.75 L 165.0 97.5 L 160.0 96.25 L 155.0 95.0 L 152.5 93.75 L 148.75 92.5 L 147.5 92.5 L 147.5 92.5 L 147.5 92.5 L 147.5 92.5 L 150.0 92.5 L 152.5 92.5 " stroke="black" fill="none" stroke-width="20.0" stroke-linecap="round" stroke-linejoin="round" />
<path d="M 176.25 110.0 L 172.5 110.0 L 168.75 110.0 L 168.75 110.0 L 168.75 110.0 L 172.5 115.0 L 178.75 120.0 L 183.75 125.0 L 187.5 127.5 L 188.75 128.75 L 188.75 128.75 L 185.0 125.0 L 181.25 120.0 L 177.5 115.0 L 173.75 110.0 L 172.5 106.25 L 171.25 105.0 L 171.25 105.0 L 175.0 106.25 L 176.25 108.75 " stroke="black" fill="none" stroke-width="20.0" stroke-linecap="round" stroke-linejoin="round" />
</svg>