<svg xmlns="http://www.w3.org/2000/svg" width="300" height="300" viewBox="0 0 300 300">
<path d="M 126.25 83.75 L 125.0 83.75 L 123.75 83.75 L 122.5 83.75 L 121.25 83.75 L 121.25 83.75 L 121.25 83.75 L 121.25 83.75 L 122.5 85.0 L 122.5 85.0 L 123.75 86.25 L 123.75 87.5 L 125.0 90.0 L 125.0 95.0 L 125.0 105.0 L 125.0 122.5 L 125.0 142.5 L 125.0 160.0 L 123.75 173.75 L 123.75 183.75 L 123.75 188.75 L 123.75 188.75 L 123.75 188.75 L 123.75 187.5 L 125.0 186.25 L 126.25 182.5 L 126.25 176.25 L 126.25 167.5 L 126.25 165.0 " stroke="black" fill="none" stroke-width="20.0" stroke-linecap="round" stroke-linejoin="round" />
<path d="M 128.75 76.25 L 128.75 76.25 L 127.5 75.0 L 126.25 73.75 L 126.25 72.5 L 126.25 72.5 L 128.75 71.25 L 131.25 71.25 L 133.75 71.25 L 138.75 72.5 L 145.0 73.75 L 151.25 73.75 L 157.5 75.0 L 163.75 75.0 L 168.75 75.0 L 173.75 75.0 L 176.25 76.25 L 177.5 76.25 L 177.5 76.25 L 177.5 76.25 L 177.5 76.25 L 177.5 76.25 L 177.5 77.5 L 177.5 77.5 L 177.5 78.75 L 177.5 80.0 L 177.5 82.5 L 177.5 88.75 L 176.25 97.5 L 175.0 110.0 L 173.75 123.75 L 173.75 136.25 L 172.5 146.25 L 172.5 153.75 L 172.5 161.25 L 172.5 167.5 L 172.5 172.5 L 172.5 175.0 L 172.5 176.25 L 172.5 176.25 L 171.25 176.25 L 171.25 177.5 L 171.25 177.5 L 171.25 178.75 L 167.5 178.75 " stroke="black" fill="none" stroke-width="20.0" stroke-linecap="round" stroke-linejoin="round" />
<path d="M 145.0 75.0 L 142.5 75.0 L 140.0 73.75 L 138.75 73.75 L 138.75 77.5 L 140.0 96.25 L 142.5 128.75 L 142.5 158.75 L 143.75 172.5 L 143.75 177.5 L 143.75 177.5 L 143.75 173.75 L 143.75 165.0 L 145.0 152.5 L 145.0 140.0 L 145.0 136.25 " stroke="black" fill="none" stroke-width="20.0" stroke-linecap="round" stroke-linejoin="round" />
<path d="M 147.5 85.0 L 147.5 85.0 L 145.0 83.75 L 145.0 82.5 L 145.0 88.75 L 145.0 111.25 L 145.0 145.0 L 145.0 168.75 L 145.0 176.25 L 146.25 176.25 L 147.5 168.75 L 148.75 157.5 L 151.25 143.75 L 153.75 127.5 L 156.25 106.25 L 158.75 86.25 L 158.75 78.75 L 160.0 81.25 L 160.0 95.0 L 157.5 121.25 L 156.25 145.0 L 155.0 163.75 L 155.0 167.5 L 156.25 165.0 L 158.75 155.0 L 160.0 142.5 L 162.5 128.75 L 165.0 108.75 L 167.5 91.25 L 168.75 86.25 L 168.75 90.0 L 165.0 112.5 L 162.5 138.75 L 160.0 161.25 L 158.75 180.0 L 158.75 182.5 " stroke="black" fill="none" stroke-width="20.0" stroke-linecap="round" stroke-linejoin="round" />
<path d="M 96.25 190.0 L 95.0 190.0 L 93.75 188.75 L 92.5 188.75 L 92.5 188.75 L 92.5 188.75 L 92.5 188.75 L 95.0 190.0 L 98.75 192.5 L 103.75 196.25 L 108.75 201.25 L 115.0 206.25 L 121.25 212.5 L 127.5 218.75 L 131.25 225.0 L 137.5 233.75 L 140.0 238.75 L 141.25 241.25 L 142.5 242.5 L 142.5 242.5 L 142.5 242.5 L 142.5 242.5 L 143.75 242.5 L 143.75 243.75 L 143.75 243.75 L 145.0 245.0 L 145.0 245.0 L 146.25 246.25 L 147.5 246.25 L 147.5 247.5 L 148.75 247.5 L 150.0 247.5 L 151.25 247.5 L 155.0 243.75 L 161.25 236.25 L 168.75 226.25 L 177.5 216.25 L 186.25 207.5 L 192.5 201.25 L 197.5 196.25 L 201.25 191.25 L 203.75 188.75 L 205.0 187.5 L 205.0 187.5 L 205.0 187.5 L 205.0 187.5 L 205.0 187.5 L 205.0 187.5 L 203.75 187.5 L 201.25 187.5 L 198.75 187.5 L 193.75 187.5 L 186.25 187.5 L 177.5 187.5 L 167.5 187.5 L 157.5 187.5 L 150.0 187.5 L 142.5 187.5 L 137.5 187.5 L 133.75 187.5 L 130.0 187.5 L 127.5 186.25 L 123.75 186.25 L 121.25 186.25 L 120.0 186.25 L 118.75 186.25 L 118.75 186.25 L 118.75 186.25 L 120.0 187.5 " stroke="black" fill="none" stroke-width="20.0" stroke-linecap="round" stroke-linejoin="round" />
<path d="M 101.25 190.0 L 101.25 190.0 L 101.25 190.0 L 101.25 188.75 L 101.25 188.75 L 102.5 188.75 L 106.25 188.75 L 115.0 188.75 L 130.0 188.75 L 142.5 188.75 " stroke="black" fill="none" stroke-width="20.0" stroke-linecap="round" stroke-linejoin="round" />
<path d="M 133.75 192.5 L 130.0 190.0 L 126.25 190.0 L 125.0 190.0 L 125.0 195.0 L 125.0 201.25 L 126.25 206.25 L 128.75 208.75 L 130.0 210.0 L 133.75 211.25 L 135.0 210.0 L 138.75 207.5 L 141.25 201.25 L 143.75 196.25 L 145.0 192.5 L 145.0 192.5 L 143.75 195.0 L 140.0 202.5 L 138.75 208.75 L 137.5 213.75 L 137.5 213.75 L 142.5 212.5 L 147.5 206.25 L 151.25 201.25 L 153.75 198.75 L 153.75 197.5 L 150.0 203.75 L 147.5 212.5 L 143.75 218.75 L 143.75 222.5 L 143.75 222.5 L 146.25 218.75 L 151.25 211.25 L 156.25 203.75 L 158.75 200.0 L 158.75 198.75 L 156.25 206.25 L 151.25 216.25 L 147.5 225.0 L 146.25 230.0 L 146.25 230.0 L 151.25 222.5 L 157.5 212.5 L 163.75 202.5 L 168.75 193.75 L 170.0 192.5 L 168.75 195.0 L 163.75 205.0 L 157.5 216.25 L 152.5 225.0 L 150.0 228.75 L 150.0 228.75 L 156.25 220.0 L 165.0 210.0 L 172.5 201.25 L 180.0 193.75 L 182.5 190.0 L 182.5 188.75 " stroke="black" fill="none" stroke-width="20.0" stroke-linecap="round" stroke-linejoin="round" />
</svg>