<svg xmlns="http://www.w3.org/2000/svg" width="300" height="300" viewBox="0 0 300 300">
<path d="M 107.5 103.75 L 105.0 100.0 L 103.75 98.75 L 103.75 102.5 L 103.75 130.0 L 106.25 170.0 L 108.75 202.5 L 112.5 213.75 L 112.5 213.75 " stroke="black" fill="none" stroke-width="6.0" stroke-linecap="round" stroke-linejoin="round" />
<path d="M 113.75 101.25 L 113.75 95.0 L 122.5 87.5 L 142.5 80.0 L 171.25 75.0 L 198.75 75.0 L 212.5 91.25 L 215.0 128.75 L 211.25 175.0 L 208.75 208.75 L 207.5 221.25 L 207.5 222.5 L 207.5 221.25 L 205.0 212.5 L 198.75 200.0 L 188.75 185.0 L 185.0 181.25 " stroke="black" fill="none" stroke-width="6.0" stroke-linecap="round" stroke-linejoin="round" />
<path d="M 131.25 151.25 L 127.5 152.5 L 121.25 153.75 L 121.25 153.75 L 136.25 153.75 L 160.0 148.75 L 185.0 141.25 L 203.75 137.5 L 202.5 138.75 " stroke="black" fill="none" stroke-width="6.0" stroke-linecap="round" stroke-linejoin="round" />
<path d="M 130.0 218.75 L 128.75 220.0 L 125.0 223.75 L 130.0 223.75 L 152.5 216.25 L 176.25 207.5 L 208.75 195.0 " stroke="black" fill="none" stroke-width="6.0" stroke-linecap="round" stroke-linejoin="round" />
</svg>