<svg xmlns="http://www.w3.org/2000/svg" width="300" height="300" viewBox="0 0 300 300">
<path d="M 120.0 76.25 L 121.25 73.75 L 121.25 68.75 L 121.25 68.75 L 121.25 75.0 L 115.0 101.25 L 101.25 141.25 L 83.75 181.25 L 71.25 197.5 L 65.0 197.5 L 62.5 192.5 " stroke="black" fill="none" stroke-width="6.0" stroke-linecap="round" stroke-linejoin="round" />
<path d="M 112.5 125.0 L 113.75 125.0 L 120.0 123.75 L 140.0 117.5 L 166.25 110.0 L 192.5 103.75 L 206.25 101.25 L 210.0 102.5 L 207.5 115.0 L 197.5 143.75 L 178.75 182.5 L 155.0 217.5 L 135.0 241.25 L 117.5 252.5 L 106.25 255.0 L 101.25 250.0 L 100.0 243.75 " stroke="black" fill="none" stroke-width="6.0" stroke-linecap="round" stroke-linejoin="round" />
<path d="M 115.0 150.0 L 115.0 150.0 L 115.0 148.75 L 113.75 148.75 L 116.25 148.75 L 125.0 160.0 L 140.0 182.5 L 158.75 208.75 L 183.75 230.0 L 206.25 245.0 L 226.25 252.5 L 243.75 256.25 L 252.5 257.5 " stroke="black" fill="none" stroke-width="6.0" stroke-linecap="round" stroke-linejoin="round" />
</svg>