<svg xmlns="http://www.w3.org/2000/svg" width="300" height="300" viewBox="0 0 300 300">
<path d="M 93.75 120.0 L 86.25 123.75 L 85.0 125.0 L 98.75 121.25 L 121.25 111.25 L 143.75 98.75 L 153.75 90.0 L 153.75 87.5 L 145.0 83.75 L 133.75 82.5 L 123.75 81.25 L 115.0 81.25 L 112.5 82.5 L 115.0 86.25 L 123.75 96.25 L 132.5 110.0 L 136.25 123.75 L 135.0 138.75 L 126.25 148.75 L 113.75 153.75 " stroke="black" fill="none" stroke-width="6.0" stroke-linecap="round" stroke-linejoin="round" />
<path d="M 71.25 178.75 L 62.5 182.5 L 61.25 183.75 L 73.75 182.5 L 101.25 171.25 L 143.75 148.75 L 186.25 125.0 L 201.25 110.0 L 202.5 106.25 " stroke="black" fill="none" stroke-width="6.0" stroke-linecap="round" stroke-linejoin="round" />
<path d="M 148.75 145.0 L 146.25 146.25 L 143.75 151.25 L 143.75 167.5 L 143.75 191.25 L 145.0 203.75 L 147.5 210.0 L 147.5 207.5 L 147.5 200.0 L 148.75 191.25 L 150.0 183.75 L 151.25 178.75 L 152.5 176.25 L 156.25 172.5 L 166.25 167.5 L 176.25 160.0 L 178.75 156.25 L 168.75 155.0 " stroke="black" fill="none" stroke-width="6.0" stroke-linecap="round" stroke-linejoin="round" />
<path d="M 103.75 178.75 L 100.0 182.5 L 98.75 191.25 L 98.75 215.0 L 93.75 246.25 L 90.0 263.75 L 87.5 266.25 L 85.0 262.5 L 85.0 251.25 L 90.0 240.0 L 95.0 226.25 L 98.75 216.25 L 102.5 211.25 L 108.75 215.0 L 121.25 227.5 L 140.0 245.0 L 161.25 256.25 L 186.25 261.25 L 207.5 265.0 L 223.75 270.0 L 237.5 275.0 L 245.0 277.5 L 247.5 278.75 L 246.25 278.75 " stroke="black" fill="none" stroke-width="6.0" stroke-linecap="round" stroke-linejoin="round" />
</svg>