<svg xmlns="http://www.w3.org/2000/svg" width="300" height="300" viewBox="0 0 300 300">
<path d="M 110.0 78.75 L 110.0 78.75 L 107.5 77.5 L 106.25 78.75 L 105.0 97.5 L 106.25 132.5 L 111.25 156.25 L 115.0 161.25 L 115.0 157.5 " stroke="black" fill="none" stroke-width="6.0" stroke-linecap="round" stroke-linejoin="round" />
<path d="M 111.25 83.75 L 110.0 82.5 L 110.0 82.5 L 111.25 78.75 L 123.75 73.75 L 143.75 70.0 L 158.75 70.0 L 170.0 76.25 L 175.0 93.75 L 175.0 121.25 L 173.75 143.75 L 173.75 152.5 L 173.75 152.5 L 172.5 150.0 L 168.75 143.75 L 162.5 137.5 L 160.0 135.0 " stroke="black" fill="none" stroke-width="6.0" stroke-linecap="round" stroke-linejoin="round" />
<path d="M 115.0 106.25 L 115.0 106.25 L 113.75 106.25 L 112.5 106.25 L 118.75 105.0 L 132.5 100.0 L 145.0 95.0 L 151.25 91.25 " stroke="black" fill="none" stroke-width="6.0" stroke-linecap="round" stroke-linejoin="round" />
<path d="M 116.25 122.5 L 115.0 125.0 L 115.0 126.25 L 123.75 126.25 L 138.75 120.0 L 152.5 111.25 L 155.0 108.75 " stroke="black" fill="none" stroke-width="6.0" stroke-linecap="round" stroke-linejoin="round" />
<path d="M 128.75 152.5 L 126.25 157.5 L 128.75 158.75 L 143.75 152.5 L 162.5 138.75 L 166.25 135.0 " stroke="black" fill="none" stroke-width="6.0" stroke-linecap="round" stroke-linejoin="round" />
<path d="M 63.75 131.25 L 62.5 130.0 L 60.0 126.25 L 58.75 125.0 L 61.25 127.5 L 66.25 141.25 L 70.0 160.0 L 73.75 175.0 L 77.5 182.5 L 86.25 182.5 L 98.75 178.75 L 112.5 176.25 L 122.5 173.75 L 128.75 172.5 L 130.0 171.25 L 130.0 171.25 L 128.75 171.25 L 127.5 171.25 L 127.5 171.25 L 127.5 171.25 L 126.25 175.0 L 126.25 187.5 L 126.25 213.75 L 126.25 242.5 L 126.25 255.0 L 127.5 257.5 L 126.25 257.5 L 121.25 256.25 " stroke="black" fill="none" stroke-width="6.0" stroke-linecap="round" stroke-linejoin="round" />
<path d="M 202.5 102.5 L 202.5 102.5 L 202.5 102.5 L 202.5 102.5 L 203.75 112.5 L 206.25 133.75 L 207.5 148.75 L 207.5 156.25 L 205.0 158.75 L 198.75 158.75 L 190.0 160.0 L 181.25 162.5 L 176.25 167.5 L 172.5 170.0 L 171.25 171.25 L 171.25 171.25 L 171.25 171.25 L 175.0 171.25 L 181.25 167.5 L 186.25 165.0 L 190.0 162.5 L 188.75 162.5 L 182.5 167.5 L 175.0 173.75 L 170.0 183.75 L 167.5 203.75 L 167.5 235.0 L 167.5 255.0 L 168.75 261.25 L 168.75 260.0 L 168.75 252.5 L 168.75 247.5 " stroke="black" fill="none" stroke-width="6.0" stroke-linecap="round" stroke-linejoin="round" />
<path d="M 167.5 208.75 L 163.75 211.25 L 162.5 212.5 L 167.5 211.25 L 185.0 203.75 L 202.5 192.5 L 215.0 182.5 L 221.25 178.75 L 220.0 178.75 L 216.25 186.25 L 213.75 200.0 L 215.0 220.0 L 225.0 240.0 L 237.5 251.25 L 247.5 257.5 L 250.0 257.5 L 250.0 257.5 L 246.25 257.5 " stroke="black" fill="none" stroke-width="6.0" stroke-linecap="round" stroke-linejoin="round" />
<path d="M 77.5 212.5 L 76.25 212.5 L 72.5 212.5 L 70.0 212.5 L 70.0 212.5 L 82.5 211.25 L 100.0 206.25 L 118.75 201.25 L 130.0 197.5 L 131.25 196.25 L 118.75 200.0 L 106.25 205.0 " stroke="black" fill="none" stroke-width="6.0" stroke-linecap="round" stroke-linejoin="round" />
<path d="M 85.0 216.25 L 83.75 216.25 L 81.25 217.5 L 81.25 217.5 L 81.25 222.5 L 83.75 238.75 L 82.5 262.5 L 73.75 287.5 L 70.0 292.5 " stroke="black" fill="none" stroke-width="6.0" stroke-linecap="round" stroke-linejoin="round" />
</svg>