<svg xmlns="http://www.w3.org/2000/svg" width="300" height="300" viewBox="0 0 300 300">
<path d="M 95.0 96.25 L 95.0 96.25 L 91.25 95.0 L 90.0 95.0 L 91.25 93.75 L 106.25 93.75 L 136.25 95.0 L 168.75 96.25 L 198.75 96.25 L 217.5 95.0 L 227.5 95.0 L 232.5 98.75 L 235.0 106.25 L 235.0 126.25 L 230.0 153.75 L 223.75 190.0 L 217.5 213.75 L 212.5 228.75 L 208.75 240.0 L 205.0 246.25 L 203.75 248.75 L 202.5 250.0 L 200.0 250.0 L 196.25 250.0 L 191.25 247.5 L 187.5 242.5 L 181.25 231.25 L 173.75 217.5 " stroke="black" fill="none" stroke-width="6.0" stroke-linecap="round" stroke-linejoin="round" />
<path d="M 156.25 101.25 L 156.25 101.25 L 155.0 101.25 L 153.75 101.25 L 153.75 101.25 L 153.75 101.25 L 153.75 101.25 L 153.75 101.25 L 153.75 101.25 L 153.75 102.5 L 153.75 102.5 L 153.75 103.75 L 153.75 103.75 L 153.75 105.0 L 153.75 107.5 L 153.75 122.5 L 147.5 152.5 L 138.75 185.0 L 127.5 206.25 L 112.5 220.0 L 101.25 227.5 L 91.25 235.0 L 82.5 238.75 L 80.0 238.75 " stroke="black" fill="none" stroke-width="6.0" stroke-linecap="round" stroke-linejoin="round" />
</svg>