<svg xmlns="http://www.w3.org/2000/svg" width="300" height="300" viewBox="0 0 300 300">
<path d="M 128.75 78.75 L 126.25 81.25 L 122.5 83.75 L 122.5 83.75 L 128.75 83.75 L 141.25 78.75 L 153.75 71.25 L 162.5 63.75 L 162.5 61.25 L 161.25 61.25 " stroke="black" fill="none" stroke-width="6.0" stroke-linecap="round" stroke-linejoin="round" />
<path d="M 126.25 122.5 L 123.75 130.0 L 120.0 152.5 L 120.0 188.75 L 120.0 216.25 L 120.0 232.5 L 121.25 238.75 L 121.25 230.0 " stroke="black" fill="none" stroke-width="6.0" stroke-linecap="round" stroke-linejoin="round" />
<path d="M 122.5 140.0 L 120.0 138.75 L 120.0 137.5 L 130.0 132.5 L 148.75 123.75 L 173.75 116.25 L 191.25 121.25 L 197.5 151.25 L 197.5 195.0 L 196.25 238.75 L 196.25 252.5 L 196.25 253.75 L 196.25 251.25 L 192.5 242.5 L 183.75 227.5 L 170.0 211.25 L 156.25 196.25 L 145.0 183.75 L 138.75 177.5 L 133.75 175.0 L 128.75 173.75 L 128.75 173.75 L 138.75 168.75 L 155.0 158.75 L 168.75 151.25 L 177.5 146.25 L 173.75 146.25 " stroke="black" fill="none" stroke-width="6.0" stroke-linecap="round" stroke-linejoin="round" />
<path d="M 136.25 206.25 L 133.75 210.0 L 135.0 211.25 L 146.25 205.0 L 165.0 191.25 L 180.0 178.75 L 180.0 175.0 " stroke="black" fill="none" stroke-width="6.0" stroke-linecap="round" stroke-linejoin="round" />
<path d="M 138.75 237.5 L 138.75 238.75 L 136.25 243.75 L 141.25 243.75 L 160.0 228.75 L 187.5 206.25 " stroke="black" fill="none" stroke-width="6.0" stroke-linecap="round" stroke-linejoin="round" />
</svg>