<svg xmlns="http://www.w3.org/2000/svg" width="300" height="300" viewBox="0 0 300 300">
<path d="M 130.0 57.5 L 128.75 61.25 L 132.5 62.5 L 142.5 63.75 L 155.0 65.0 L 165.0 68.75 L 165.0 75.0 L 162.5 76.25 " stroke="black" fill="none" stroke-width="6.0" stroke-linecap="round" stroke-linejoin="round" />
<path d="M 106.25 108.75 L 98.75 111.25 L 97.5 112.5 L 111.25 110.0 L 137.5 101.25 L 163.75 90.0 L 180.0 82.5 L 181.25 80.0 L 167.5 81.25 L 152.5 87.5 L 141.25 93.75 L 132.5 101.25 L 131.25 115.0 L 133.75 136.25 L 136.25 152.5 L 136.25 156.25 " stroke="black" fill="none" stroke-width="6.0" stroke-linecap="round" stroke-linejoin="round" />
<path d="M 171.25 96.25 L 171.25 95.0 L 171.25 95.0 L 172.5 96.25 L 172.5 106.25 L 166.25 127.5 L 153.75 145.0 L 138.75 156.25 L 125.0 162.5 L 120.0 165.0 L 125.0 165.0 L 141.25 161.25 L 162.5 151.25 L 188.75 138.75 L 201.25 130.0 L 201.25 127.5 L 187.5 135.0 L 173.75 142.5 " stroke="black" fill="none" stroke-width="6.0" stroke-linecap="round" stroke-linejoin="round" />
<path d="M 140.0 193.75 L 138.75 196.25 L 137.5 200.0 L 137.5 202.5 L 141.25 203.75 L 150.0 201.25 L 166.25 192.5 L 187.5 176.25 L 202.5 161.25 L 206.25 153.75 L 202.5 152.5 L 197.5 152.5 " stroke="black" fill="none" stroke-width="6.0" stroke-linecap="round" stroke-linejoin="round" />
<path d="M 173.75 151.25 L 171.25 151.25 L 168.75 151.25 L 167.5 151.25 L 172.5 162.5 L 178.75 193.75 L 180.0 233.75 L 176.25 262.5 L 171.25 272.5 L 160.0 278.75 L 151.25 280.0 " stroke="black" fill="none" stroke-width="6.0" stroke-linecap="round" stroke-linejoin="round" />
</svg>