<svg xmlns="http://www.w3.org/2000/svg" width="300" height="300" viewBox="0 0 300 300">
<path d="M 116.25 90.0 L 116.25 91.25 L 112.5 91.25 L 113.75 91.25 L 132.5 90.0 L 158.75 81.25 L 181.25 72.5 L 188.75 68.75 L 177.5 71.25 L 160.0 77.5 L 143.75 83.75 L 128.75 88.75 L 118.75 97.5 L 116.25 116.25 L 117.5 155.0 L 116.25 200.0 L 110.0 230.0 L 103.75 242.5 L 101.25 241.25 L 98.75 225.0 L 98.75 220.0 " stroke="black" fill="none" stroke-width="6.0" stroke-linecap="round" stroke-linejoin="round" />
<path d="M 140.0 132.5 L 143.75 130.0 L 148.75 126.25 L 161.25 121.25 L 178.75 116.25 L 193.75 112.5 L 197.5 110.0 L 193.75 111.25 " stroke="black" fill="none" stroke-width="6.0" stroke-linecap="round" stroke-linejoin="round" />
<path d="M 147.5 158.75 L 145.0 162.5 L 142.5 166.25 L 146.25 167.5 L 161.25 160.0 L 183.75 147.5 L 200.0 135.0 L 201.25 132.5 L 188.75 138.75 L 175.0 147.5 L 161.25 158.75 L 153.75 177.5 L 153.75 207.5 L 157.5 240.0 L 162.5 256.25 L 168.75 262.5 L 176.25 262.5 L 188.75 255.0 L 203.75 240.0 L 216.25 216.25 L 226.25 192.5 L 230.0 170.0 L 225.0 162.5 L 211.25 165.0 L 196.25 176.25 L 178.75 191.25 L 166.25 201.25 L 162.5 203.75 L 163.75 203.75 L 166.25 202.5 L 167.5 201.25 L 170.0 201.25 L 170.0 200.0 L 170.0 200.0 L 170.0 200.0 L 170.0 200.0 L 170.0 200.0 L 171.25 200.0 L 175.0 201.25 L 191.25 206.25 L 223.75 217.5 L 262.5 227.5 L 277.5 228.75 " stroke="black" fill="none" stroke-width="6.0" stroke-linecap="round" stroke-linejoin="round" />
</svg>