<svg xmlns="http://www.w3.org/2000/svg" width="300" height="300" viewBox="0 0 300 300">
<path d="M 102.5 100.0 L 100.0 101.25 L 92.5 105.0 L 90.0 106.25 L 92.5 107.5 L 110.0 107.5 L 138.75 101.25 L 168.75 88.75 L 191.25 76.25 L 196.25 71.25 L 188.75 72.5 L 170.0 81.25 L 165.0 82.5 " stroke="black" fill="none" stroke-width="6.0" stroke-linecap="round" stroke-linejoin="round" />
<path d="M 128.75 118.75 L 128.75 118.75 L 126.25 117.5 L 123.75 117.5 L 123.75 135.0 L 127.5 166.25 L 135.0 188.75 L 143.75 192.5 L 153.75 182.5 L 162.5 168.75 L 168.75 156.25 L 172.5 147.5 L 172.5 141.25 L 170.0 135.0 L 166.25 126.25 L 166.25 117.5 L 165.0 108.75 L 165.0 105.0 L 165.0 105.0 L 167.5 120.0 L 168.75 146.25 L 166.25 172.5 L 160.0 192.5 " stroke="black" fill="none" stroke-width="6.0" stroke-linecap="round" stroke-linejoin="round" />
<path d="M 81.25 156.25 L 78.75 157.5 L 77.5 160.0 L 80.0 182.5 L 86.25 216.25 L 88.75 235.0 L 90.0 237.5 L 90.0 232.5 " stroke="black" fill="none" stroke-width="6.0" stroke-linecap="round" stroke-linejoin="round" />
<path d="M 93.75 148.75 L 93.75 148.75 L 92.5 147.5 L 95.0 146.25 L 117.5 141.25 L 160.0 130.0 L 198.75 120.0 L 217.5 118.75 L 223.75 125.0 L 225.0 141.25 L 223.75 166.25 L 222.5 198.75 L 222.5 232.5 L 223.75 252.5 L 225.0 262.5 L 225.0 265.0 L 223.75 265.0 L 221.25 262.5 L 215.0 257.5 L 205.0 247.5 L 191.25 235.0 L 186.25 232.5 " stroke="black" fill="none" stroke-width="6.0" stroke-linecap="round" stroke-linejoin="round" />
</svg>