<svg xmlns="http://www.w3.org/2000/svg" width="300" height="300" viewBox="0 0 300 300">
<path d="M 108.75 100.0 L 103.75 102.5 L 102.5 102.5 L 116.25 101.25 L 142.5 95.0 L 172.5 87.5 L 190.0 82.5 L 186.25 82.5 L 182.5 83.75 " stroke="black" fill="none" stroke-width="6.0" stroke-linecap="round" stroke-linejoin="round" />
<path d="M 111.25 103.75 L 110.0 107.5 L 110.0 123.75 L 111.25 160.0 L 106.25 203.75 L 95.0 237.5 L 86.25 252.5 L 76.25 255.0 L 73.75 248.75 " stroke="black" fill="none" stroke-width="6.0" stroke-linecap="round" stroke-linejoin="round" />
<path d="M 137.5 138.75 L 137.5 137.5 L 142.5 136.25 L 147.5 145.0 L 151.25 172.5 L 148.75 207.5 L 143.75 226.25 L 141.25 231.25 L 141.25 230.0 L 145.0 228.75 L 155.0 223.75 L 170.0 212.5 L 185.0 202.5 L 193.75 193.75 L 193.75 188.75 L 188.75 185.0 L 183.75 181.25 L 182.5 180.0 L 182.5 180.0 L 182.5 180.0 L 186.25 187.5 L 191.25 201.25 L 196.25 220.0 L 200.0 235.0 L 200.0 237.5 " stroke="black" fill="none" stroke-width="6.0" stroke-linecap="round" stroke-linejoin="round" />
<path d="M 200.0 137.5 L 198.75 136.25 L 196.25 135.0 L 201.25 145.0 L 213.75 175.0 L 232.5 217.5 L 256.25 255.0 L 278.75 273.75 L 282.5 276.25 " stroke="black" fill="none" stroke-width="6.0" stroke-linecap="round" stroke-linejoin="round" />
</svg>