<svg xmlns="http://www.w3.org/2000/svg" width="300" height="300" viewBox="0 0 300 300">
<path d="M 123.75 76.25 L 120.0 77.5 L 115.0 77.5 L 112.5 77.5 L 113.75 78.75 L 118.75 78.75 L 126.25 77.5 L 133.75 75.0 L 141.25 72.5 L 146.25 68.75 L 150.0 65.0 L 153.75 60.0 L 160.0 52.5 L 165.0 47.5 L 166.25 46.25 " stroke="black" fill="none" stroke-width="6.0" stroke-linecap="round" stroke-linejoin="round" />
<path d="M 110.0 115.0 L 110.0 115.0 L 108.75 121.25 L 108.75 153.75 L 111.25 201.25 L 116.25 227.5 L 118.75 236.25 L 120.0 233.75 L 117.5 217.5 " stroke="black" fill="none" stroke-width="6.0" stroke-linecap="round" stroke-linejoin="round" />
<path d="M 110.0 141.25 L 107.5 137.5 L 103.75 132.5 L 107.5 130.0 L 118.75 126.25 L 128.75 122.5 L 173.75 115.0 L 195.0 128.75 L 202.5 157.5 L 203.75 193.75 L 200.0 220.0 L 198.75 238.75 L 197.5 240.0 L 196.25 237.5 L 191.25 228.75 L 185.0 217.5 L 172.5 206.25 L 166.25 201.25 " stroke="black" fill="none" stroke-width="6.0" stroke-linecap="round" stroke-linejoin="round" />
<path d="M 133.75 186.25 L 131.25 187.5 L 123.75 190.0 L 122.5 191.25 L 127.5 190.0 L 143.75 183.75 L 162.5 171.25 L 177.5 161.25 L 181.25 157.5 " stroke="black" fill="none" stroke-width="6.0" stroke-linecap="round" stroke-linejoin="round" />
<path d="M 135.0 243.75 L 133.75 246.25 L 128.75 255.0 L 133.75 256.25 L 151.25 248.75 L 177.5 232.5 L 198.75 215.0 " stroke="black" fill="none" stroke-width="6.0" stroke-linecap="round" stroke-linejoin="round" />
</svg>