<svg xmlns="http://www.w3.org/2000/svg" width="300" height="300" viewBox="0 0 300 300">
<path d="M 108.75 101.25 L 108.75 98.75 L 107.5 96.25 L 107.5 95.0 L 108.75 100.0 L 108.75 122.5 L 103.75 147.5 L 100.0 158.75 L 98.75 157.5 " stroke="black" fill="none" stroke-width="6.0" stroke-linecap="round" stroke-linejoin="round" />
<path d="M 110.0 100.0 L 111.25 98.75 L 113.75 96.25 L 127.5 91.25 L 150.0 86.25 L 168.75 85.0 L 180.0 91.25 L 181.25 112.5 L 177.5 137.5 L 176.25 148.75 L 185.0 148.75 L 198.75 140.0 L 211.25 130.0 L 216.25 122.5 L 215.0 122.5 " stroke="black" fill="none" stroke-width="6.0" stroke-linecap="round" stroke-linejoin="round" />
<path d="M 128.75 196.25 L 126.25 197.5 L 125.0 197.5 L 132.5 192.5 L 151.25 178.75 L 177.5 165.0 L 191.25 162.5 L 192.5 175.0 L 177.5 198.75 L 156.25 222.5 L 136.25 243.75 L 120.0 253.75 L 111.25 251.25 L 107.5 246.25 " stroke="black" fill="none" stroke-width="6.0" stroke-linecap="round" stroke-linejoin="round" />
<path d="M 121.25 191.25 L 121.25 191.25 L 121.25 191.25 L 121.25 191.25 L 137.5 203.75 L 160.0 227.5 L 188.75 247.5 L 211.25 256.25 L 232.5 260.0 L 250.0 263.75 L 258.75 267.5 L 258.75 267.5 " stroke="black" fill="none" stroke-width="6.0" stroke-linecap="round" stroke-linejoin="round" />
</svg>