<svg xmlns="http://www.w3.org/2000/svg" width="300" height="300" viewBox="0 0 300 300">
<path d="M 125.0 48.75 L 120.0 51.25 L 117.5 52.5 L 117.5 60.0 L 123.75 73.75 L 133.75 86.25 L 138.75 90.0 " stroke="black" fill="none" stroke-width="6.0" stroke-linecap="round" stroke-linejoin="round" />
<path d="M 163.75 47.5 L 165.0 47.5 L 165.0 47.5 L 165.0 47.5 L 165.0 47.5 L 161.25 58.75 L 150.0 77.5 L 130.0 97.5 L 103.75 111.25 L 87.5 120.0 L 82.5 125.0 L 88.75 125.0 L 112.5 116.25 L 146.25 100.0 L 171.25 87.5 L 182.5 83.75 L 177.5 85.0 L 163.75 92.5 L 150.0 100.0 L 140.0 106.25 L 131.25 117.5 L 127.5 142.5 L 126.25 183.75 L 127.5 216.25 L 131.25 232.5 L 135.0 237.5 L 136.25 235.0 L 135.0 227.5 " stroke="black" fill="none" stroke-width="6.0" stroke-linecap="round" stroke-linejoin="round" />
<path d="M 126.25 143.75 L 125.0 141.25 L 125.0 137.5 L 135.0 130.0 L 152.5 121.25 L 175.0 116.25 L 192.5 125.0 L 197.5 157.5 L 193.75 192.5 L 188.75 217.5 L 188.75 231.25 L 188.75 233.75 L 188.75 230.0 L 182.5 218.75 " stroke="black" fill="none" stroke-width="6.0" stroke-linecap="round" stroke-linejoin="round" />
<path d="M 136.25 168.75 L 132.5 168.75 L 128.75 168.75 L 130.0 168.75 L 141.25 165.0 L 158.75 157.5 L 177.5 148.75 L 185.0 145.0 L 185.0 145.0 " stroke="black" fill="none" stroke-width="6.0" stroke-linecap="round" stroke-linejoin="round" />
<path d="M 137.5 198.75 L 135.0 200.0 L 133.75 201.25 L 140.0 201.25 L 155.0 191.25 L 175.0 177.5 L 186.25 168.75 L 186.25 168.75 " stroke="black" fill="none" stroke-width="6.0" stroke-linecap="round" stroke-linejoin="round" />
<path d="M 148.75 218.75 L 147.5 222.5 L 142.5 230.0 L 148.75 228.75 L 167.5 217.5 L 192.5 200.0 " stroke="black" fill="none" stroke-width="6.0" stroke-linecap="round" stroke-linejoin="round" />
</svg>