<svg xmlns="http://www.w3.org/2000/svg" width="300" height="300" viewBox="0 0 300 300">
<path d="M 53.75 150.0 L 53.75 150.0 L 56.25 151.25 L 78.75 151.25 L 123.75 145.0 L 166.25 141.25 L 198.75 140.0 L 216.25 141.25 L 222.5 141.25 L 218.75 141.25 L 205.0 136.25 L 201.25 135.0 " stroke="black" fill="none" stroke-width="6.0" stroke-linecap="round" stroke-linejoin="round" />
<path d="M 106.25 92.5 L 105.0 91.25 L 103.75 91.25 L 107.5 95.0 L 118.75 118.75 L 123.75 166.25 L 111.25 210.0 L 95.0 233.75 L 81.25 240.0 L 77.5 240.0 " stroke="black" fill="none" stroke-width="6.0" stroke-linecap="round" stroke-linejoin="round" />
<path d="M 191.25 83.75 L 188.75 82.5 L 186.25 82.5 L 185.0 87.5 L 187.5 121.25 L 193.75 178.75 L 195.0 221.25 L 193.75 248.75 L 185.0 263.75 " stroke="black" fill="none" stroke-width="6.0" stroke-linecap="round" stroke-linejoin="round" />
</svg>