<svg xmlns="http://www.w3.org/2000/svg" width="300" height="300" viewBox="0 0 300 300">
<path d="M 100.0 78.75 L 98.75 77.5 L 96.25 75.0 L 96.25 73.75 L 102.5 81.25 L 111.25 113.75 L 115.0 168.75 L 105.0 218.75 L 93.75 245.0 L 85.0 253.75 L 76.25 248.75 L 75.0 246.25 " stroke="black" fill="none" stroke-width="6.0" stroke-linecap="round" stroke-linejoin="round" />
<path d="M 146.25 67.5 L 148.75 66.25 L 152.5 70.0 L 156.25 90.0 L 157.5 118.75 L 151.25 142.5 L 145.0 150.0 L 135.0 151.25 " stroke="black" fill="none" stroke-width="6.0" stroke-linecap="round" stroke-linejoin="round" />
<path d="M 118.75 155.0 L 117.5 156.25 L 116.25 157.5 L 118.75 157.5 L 131.25 151.25 L 146.25 141.25 L 156.25 131.25 L 156.25 130.0 " stroke="black" fill="none" stroke-width="6.0" stroke-linecap="round" stroke-linejoin="round" />
<path d="M 112.5 206.25 L 108.75 208.75 L 108.75 210.0 L 118.75 206.25 L 138.75 192.5 L 157.5 175.0 L 167.5 167.5 L 167.5 168.75 L 165.0 186.25 L 165.0 210.0 L 196.25 246.25 L 212.5 248.75 L 221.25 246.25 L 223.75 242.5 L 223.75 242.5 L 218.75 242.5 L 211.25 242.5 " stroke="black" fill="none" stroke-width="6.0" stroke-linecap="round" stroke-linejoin="round" />
</svg>