<svg xmlns="http://www.w3.org/2000/svg" width="300" height="300" viewBox="0 0 300 300">
<path d="M 122.5 108.75 L 122.5 110.0 L 122.5 115.0 L 121.25 138.75 L 112.5 182.5 L 103.75 215.0 L 96.25 227.5 L 88.75 231.25 L 82.5 230.0 L 78.75 220.0 " stroke="black" fill="none" stroke-width="6.0" stroke-linecap="round" stroke-linejoin="round" />
<path d="M 157.5 100.0 L 156.25 100.0 L 153.75 100.0 L 152.5 100.0 L 152.5 100.0 L 156.25 102.5 L 162.5 105.0 L 168.75 106.25 L 173.75 108.75 L 177.5 111.25 L 181.25 118.75 L 185.0 131.25 L 188.75 148.75 L 196.25 172.5 L 205.0 195.0 L 213.75 212.5 L 222.5 227.5 L 231.25 240.0 L 238.75 247.5 L 243.75 252.5 L 246.25 256.25 L 250.0 258.75 L 252.5 258.75 L 253.75 258.75 L 255.0 257.5 L 255.0 256.25 " stroke="black" fill="none" stroke-width="6.0" stroke-linecap="round" stroke-linejoin="round" />
</svg>