<svg xmlns="http://www.w3.org/2000/svg" width="300" height="300" viewBox="0 0 300 300">
<path d="M 83.75 137.5 L 82.5 135.0 L 78.75 126.25 L 77.5 118.75 L 77.5 117.5 L 78.75 122.5 L 83.75 151.25 L 87.5 190.0 L 87.5 218.75 L 87.5 232.5 L 83.75 235.0 L 83.75 235.0 L 83.75 233.75 L 83.75 233.75 L 88.75 233.75 L 97.5 232.5 L 116.25 232.5 L 143.75 232.5 L 175.0 231.25 L 207.5 227.5 L 226.25 221.25 L 236.25 217.5 L 237.5 216.25 L 237.5 216.25 L 236.25 216.25 L 232.5 216.25 L 230.0 215.0 " stroke="black" fill="none" stroke-width="6.0" stroke-linecap="round" stroke-linejoin="round" />
<path d="M 226.25 122.5 L 223.75 122.5 L 220.0 121.25 L 220.0 121.25 L 222.5 136.25 L 227.5 177.5 L 228.75 217.5 L 228.75 241.25 L 226.25 250.0 L 220.0 250.0 L 213.75 245.0 " stroke="black" fill="none" stroke-width="6.0" stroke-linecap="round" stroke-linejoin="round" />
<path d="M 151.25 83.75 L 150.0 80.0 L 147.5 76.25 L 147.5 73.75 L 147.5 73.75 L 150.0 75.0 L 156.25 95.0 L 160.0 135.0 L 161.25 182.5 L 161.25 210.0 L 161.25 218.75 L 160.0 225.0 L 158.75 225.0 L 158.75 225.0 L 158.75 225.0 L 157.5 220.0 " stroke="black" fill="none" stroke-width="6.0" stroke-linecap="round" stroke-linejoin="round" />
</svg>