<svg xmlns="http://www.w3.org/2000/svg" width="300" height="300" viewBox="0 0 300 300">
<path d="M 100.0 88.75 L 93.75 91.25 L 90.0 93.75 L 95.0 96.25 L 116.25 97.5 L 147.5 92.5 L 175.0 85.0 L 188.75 81.25 L 188.75 83.75 L 175.0 101.25 L 153.75 130.0 L 133.75 161.25 L 110.0 190.0 L 95.0 205.0 L 91.25 207.5 L 93.75 202.5 " stroke="black" fill="none" stroke-width="6.0" stroke-linecap="round" stroke-linejoin="round" />
<path d="M 135.0 152.5 L 132.5 152.5 L 130.0 151.25 L 131.25 148.75 L 145.0 147.5 L 160.0 150.0 L 172.5 165.0 L 171.25 190.0 L 155.0 215.0 L 136.25 235.0 L 116.25 245.0 L 103.75 246.25 L 100.0 236.25 L 100.0 233.75 " stroke="black" fill="none" stroke-width="6.0" stroke-linecap="round" stroke-linejoin="round" />
<path d="M 115.0 190.0 L 112.5 190.0 L 111.25 190.0 L 115.0 190.0 L 128.75 193.75 L 143.75 200.0 L 157.5 210.0 L 166.25 218.75 L 168.75 223.75 " stroke="black" fill="none" stroke-width="6.0" stroke-linecap="round" stroke-linejoin="round" />
</svg>