<svg xmlns="http://www.w3.org/2000/svg" width="300" height="300" viewBox="0 0 300 300">
<path d="M 96.25 103.75 L 96.25 103.75 L 96.25 106.25 L 98.75 132.5 L 97.5 182.5 L 91.25 212.5 L 86.25 223.75 L 80.0 218.75 " stroke="black" fill="none" stroke-width="6.0" stroke-linecap="round" stroke-linejoin="round" />
<path d="M 112.5 98.75 L 117.5 96.25 L 130.0 90.0 L 152.5 82.5 L 177.5 76.25 L 202.5 72.5 L 216.25 75.0 L 223.75 92.5 L 225.0 132.5 L 223.75 183.75 L 226.25 230.0 L 232.5 247.5 L 233.75 252.5 L 233.75 252.5 L 232.5 251.25 L 226.25 245.0 L 213.75 232.5 L 198.75 213.75 L 183.75 197.5 " stroke="black" fill="none" stroke-width="6.0" stroke-linecap="round" stroke-linejoin="round" />
<path d="M 120.0 157.5 L 115.0 158.75 L 113.75 158.75 L 127.5 152.5 L 151.25 140.0 L 177.5 126.25 L 190.0 120.0 L 187.5 122.5 " stroke="black" fill="none" stroke-width="6.0" stroke-linecap="round" stroke-linejoin="round" />
<path d="M 123.75 205.0 L 123.75 205.0 L 126.25 206.25 L 142.5 196.25 L 175.0 168.75 L 196.25 148.75 L 200.0 138.75 L 196.25 138.75 " stroke="black" fill="none" stroke-width="6.0" stroke-linecap="round" stroke-linejoin="round" />
<path d="M 151.25 113.75 L 150.0 113.75 L 148.75 113.75 L 152.5 152.5 L 156.25 223.75 L 156.25 267.5 " stroke="black" fill="none" stroke-width="6.0" stroke-linecap="round" stroke-linejoin="round" />
</svg>