<svg xmlns="http://www.w3.org/2000/svg" width="300" height="300" viewBox="0 0 300 300">
<path d="M 117.5 97.5 L 116.25 97.5 L 118.75 97.5 L 140.0 96.25 L 168.75 95.0 L 193.75 98.75 L 200.0 106.25 L 195.0 115.0 L 183.75 126.25 L 158.75 138.75 L 138.75 143.75 " stroke="black" fill="none" stroke-width="6.0" stroke-linecap="round" stroke-linejoin="round" />
<path d="M 88.75 147.5 L 87.5 147.5 L 87.5 147.5 L 96.25 142.5 L 132.5 127.5 L 173.75 108.75 L 203.75 97.5 L 211.25 92.5 L 207.5 93.75 L 192.5 102.5 " stroke="black" fill="none" stroke-width="6.0" stroke-linecap="round" stroke-linejoin="round" />
<path d="M 115.0 166.25 L 111.25 171.25 L 121.25 167.5 L 145.0 151.25 L 170.0 128.75 L 186.25 110.0 L 182.5 100.0 L 180.0 100.0 " stroke="black" fill="none" stroke-width="6.0" stroke-linecap="round" stroke-linejoin="round" />
<path d="M 141.25 83.75 L 138.75 78.75 L 138.75 77.5 L 143.75 86.25 L 152.5 123.75 L 160.0 191.25 L 161.25 238.75 L 161.25 253.75 L 161.25 257.5 L 160.0 256.25 L 152.5 247.5 L 142.5 233.75 L 132.5 222.5 " stroke="black" fill="none" stroke-width="6.0" stroke-linecap="round" stroke-linejoin="round" />
<path d="M 95.0 203.75 L 93.75 205.0 L 88.75 206.25 L 87.5 207.5 L 90.0 207.5 L 106.25 205.0 L 121.25 202.5 L 131.25 202.5 L 130.0 216.25 L 113.75 237.5 L 102.5 250.0 L 102.5 248.75 L 125.0 228.75 L 155.0 200.0 L 187.5 171.25 L 201.25 158.75 L 202.5 161.25 L 201.25 182.5 L 201.25 206.25 L 207.5 221.25 L 220.0 225.0 L 232.5 223.75 L 238.75 223.75 L 236.25 236.25 L 220.0 256.25 " stroke="black" fill="none" stroke-width="6.0" stroke-linecap="round" stroke-linejoin="round" />
</svg>