<svg xmlns="http://www.w3.org/2000/svg" width="300" height="300" viewBox="0 0 300 300">
<path d="M 98.75 83.75 L 95.0 80.0 L 93.75 77.5 L 93.75 78.75 L 98.75 105.0 L 107.5 150.0 L 117.5 182.5 L 127.5 188.75 L 128.75 183.75 L 127.5 180.0 " stroke="black" fill="none" stroke-width="6.0" stroke-linecap="round" stroke-linejoin="round" />
<path d="M 101.25 125.0 L 98.75 122.5 L 96.25 118.75 L 102.5 113.75 L 123.75 105.0 L 156.25 95.0 L 190.0 88.75 L 207.5 92.5 L 208.75 105.0 L 197.5 130.0 L 180.0 150.0 L 162.5 163.75 L 147.5 170.0 L 142.5 170.0 " stroke="black" fill="none" stroke-width="6.0" stroke-linecap="round" stroke-linejoin="round" />
<path d="M 121.25 150.0 L 117.5 148.75 L 115.0 148.75 L 122.5 145.0 L 143.75 133.75 L 170.0 117.5 L 186.25 107.5 L 185.0 107.5 " stroke="black" fill="none" stroke-width="6.0" stroke-linecap="round" stroke-linejoin="round" />
<path d="M 127.5 182.5 L 122.5 187.5 L 123.75 187.5 L 140.0 176.25 L 163.75 152.5 L 187.5 127.5 L 193.75 112.5 L 181.25 110.0 " stroke="black" fill="none" stroke-width="6.0" stroke-linecap="round" stroke-linejoin="round" />
<path d="M 150.0 107.5 L 150.0 107.5 L 151.25 115.0 L 153.75 152.5 L 153.75 200.0 L 152.5 225.0 L 152.5 236.25 L 150.0 238.75 L 146.25 236.25 L 141.25 228.75 L 136.25 220.0 " stroke="black" fill="none" stroke-width="6.0" stroke-linecap="round" stroke-linejoin="round" />
<path d="M 131.25 206.25 L 131.25 206.25 L 127.5 208.75 L 126.25 208.75 L 135.0 207.5 L 153.75 200.0 L 176.25 190.0 L 195.0 182.5 L 200.0 180.0 L 193.75 183.75 " stroke="black" fill="none" stroke-width="6.0" stroke-linecap="round" stroke-linejoin="round" />
<path d="M 132.5 242.5 L 131.25 243.75 L 127.5 248.75 L 130.0 248.75 L 140.0 247.5 L 163.75 242.5 L 187.5 238.75 L 206.25 237.5 L 216.25 236.25 L 220.0 236.25 L 220.0 235.0 L 216.25 232.5 L 213.75 231.25 " stroke="black" fill="none" stroke-width="6.0" stroke-linecap="round" stroke-linejoin="round" />
</svg>