<svg xmlns="http://www.w3.org/2000/svg" width="300" height="300" viewBox="0 0 300 300">
<path d="M 98.75 152.5 L 97.5 152.5 L 97.5 152.5 L 105.0 150.0 L 126.25 138.75 L 146.25 123.75 L 150.0 113.75 L 146.25 112.5 " stroke="black" fill="none" stroke-width="6.0" stroke-linecap="round" stroke-linejoin="round" />
<path d="M 90.0 102.5 L 90.0 103.75 L 87.5 106.25 L 87.5 128.75 L 92.5 180.0 L 96.25 215.0 L 101.25 226.25 L 108.75 227.5 L 120.0 222.5 L 137.5 211.25 L 153.75 200.0 L 163.75 188.75 L 167.5 177.5 " stroke="black" fill="none" stroke-width="6.0" stroke-linecap="round" stroke-linejoin="round" />
<path d="M 166.25 145.0 L 165.0 145.0 L 163.75 146.25 L 167.5 145.0 L 185.0 135.0 L 205.0 117.5 L 216.25 102.5 L 216.25 97.5 L 205.0 97.5 L 196.25 98.75 L 188.75 98.75 " stroke="black" fill="none" stroke-width="6.0" stroke-linecap="round" stroke-linejoin="round" />
<path d="M 167.5 90.0 L 167.5 90.0 L 166.25 90.0 L 166.25 115.0 L 171.25 168.75 L 182.5 205.0 L 195.0 213.75 L 208.75 217.5 L 226.25 217.5 L 245.0 216.25 L 256.25 213.75 L 261.25 213.75 L 261.25 213.75 L 260.0 212.5 L 260.0 206.25 L 258.75 192.5 L 258.75 162.5 L 256.25 141.25 " stroke="black" fill="none" stroke-width="6.0" stroke-linecap="round" stroke-linejoin="round" />
</svg>