<svg xmlns="http://www.w3.org/2000/svg" width="300" height="300" viewBox="0 0 300 300">
<path d="M 90.0 77.5 L 87.5 71.25 L 85.0 61.25 L 85.0 56.25 L 88.75 58.75 L 93.75 78.75 L 96.25 111.25 L 93.75 142.5 L 90.0 157.5 L 87.5 158.75 " stroke="black" fill="none" stroke-width="6.0" stroke-linecap="round" stroke-linejoin="round" />
<path d="M 95.0 97.5 L 96.25 97.5 L 100.0 97.5 L 123.75 97.5 L 157.5 91.25 L 186.25 83.75 L 202.5 76.25 L 202.5 73.75 L 196.25 73.75 " stroke="black" fill="none" stroke-width="6.0" stroke-linecap="round" stroke-linejoin="round" />
<path d="M 128.75 135.0 L 127.5 136.25 L 126.25 138.75 L 135.0 137.5 L 148.75 130.0 L 165.0 120.0 L 172.5 113.75 L 170.0 113.75 " stroke="black" fill="none" stroke-width="6.0" stroke-linecap="round" stroke-linejoin="round" />
<path d="M 103.75 186.25 L 100.0 191.25 L 100.0 192.5 L 115.0 187.5 L 145.0 168.75 L 176.25 148.75 L 198.75 138.75 L 203.75 138.75 L 203.75 153.75 L 202.5 186.25 L 205.0 222.5 L 220.0 245.0 L 240.0 251.25 L 256.25 251.25 L 262.5 246.25 L 265.0 241.25 L 265.0 238.75 L 263.75 236.25 L 262.5 235.0 L 262.5 230.0 L 262.5 223.75 L 262.5 212.5 L 262.5 190.0 L 261.25 168.75 " stroke="black" fill="none" stroke-width="6.0" stroke-linecap="round" stroke-linejoin="round" />
</svg>