<svg xmlns="http://www.w3.org/2000/svg" width="300" height="300" viewBox="0 0 300 300">
<path d="M 88.75 82.5 L 86.25 81.25 L 85.0 81.25 L 83.75 88.75 L 85.0 116.25 L 86.25 148.75 L 88.75 165.0 L 90.0 167.5 " stroke="black" fill="none" stroke-width="6.0" stroke-linecap="round" stroke-linejoin="round" />
<path d="M 83.75 102.5 L 80.0 102.5 L 77.5 101.25 L 81.25 100.0 L 95.0 95.0 L 113.75 88.75 L 130.0 82.5 L 135.0 80.0 L 133.75 80.0 " stroke="black" fill="none" stroke-width="6.0" stroke-linecap="round" stroke-linejoin="round" />
<path d="M 92.5 116.25 L 91.25 117.5 L 88.75 120.0 L 91.25 121.25 L 100.0 120.0 L 115.0 113.75 L 126.25 107.5 L 128.75 105.0 " stroke="black" fill="none" stroke-width="6.0" stroke-linecap="round" stroke-linejoin="round" />
<path d="M 76.25 151.25 L 72.5 155.0 L 70.0 157.5 L 75.0 156.25 L 92.5 147.5 L 115.0 135.0 L 135.0 123.75 L 138.75 121.25 L 132.5 125.0 " stroke="black" fill="none" stroke-width="6.0" stroke-linecap="round" stroke-linejoin="round" />
<path d="M 52.5 187.5 L 50.0 188.75 L 47.5 191.25 L 58.75 190.0 L 82.5 181.25 L 111.25 166.25 L 136.25 153.75 L 140.0 151.25 L 133.75 155.0 L 116.25 172.5 L 97.5 193.75 L 85.0 213.75 L 83.75 225.0 L 92.5 226.25 L 107.5 218.75 L 126.25 206.25 L 140.0 196.25 L 145.0 192.5 L 141.25 192.5 L 135.0 192.5 L 131.25 192.5 L 128.75 192.5 L 128.75 192.5 L 131.25 195.0 L 138.75 205.0 L 147.5 217.5 L 155.0 225.0 L 156.25 225.0 " stroke="black" fill="none" stroke-width="6.0" stroke-linecap="round" stroke-linejoin="round" />
<path d="M 190.0 77.5 L 186.25 76.25 L 183.75 80.0 L 175.0 100.0 L 166.25 132.5 L 161.25 146.25 L 160.0 147.5 " stroke="black" fill="none" stroke-width="6.0" stroke-linecap="round" stroke-linejoin="round" />
<path d="M 201.25 108.75 L 201.25 108.75 L 201.25 108.75 L 198.75 117.5 L 186.25 148.75 L 173.75 178.75 L 167.5 193.75 L 167.5 193.75 " stroke="black" fill="none" stroke-width="6.0" stroke-linecap="round" stroke-linejoin="round" />
<path d="M 210.0 152.5 L 210.0 152.5 L 211.25 151.25 L 212.5 151.25 L 203.75 171.25 L 187.5 201.25 L 170.0 228.75 L 160.0 238.75 " stroke="black" fill="none" stroke-width="6.0" stroke-linecap="round" stroke-linejoin="round" />
</svg>