<svg xmlns="http://www.w3.org/2000/svg" width="300" height="300" viewBox="0 0 300 300">
<path d="M 111.25 86.25 L 106.25 87.5 L 103.75 88.75 L 112.5 90.0 L 137.5 90.0 L 166.25 86.25 L 192.5 78.75 L 201.25 75.0 L 192.5 77.5 L 187.5 78.75 " stroke="black" fill="none" stroke-width="6.0" stroke-linecap="round" stroke-linejoin="round" />
<path d="M 93.75 156.25 L 93.75 157.5 L 91.25 162.5 L 98.75 162.5 L 123.75 155.0 L 160.0 136.25 L 192.5 115.0 L 203.75 103.75 L 200.0 102.5 L 193.75 103.75 " stroke="black" fill="none" stroke-width="6.0" stroke-linecap="round" stroke-linejoin="round" />
<path d="M 155.0 141.25 L 153.75 147.5 L 153.75 163.75 L 156.25 196.25 L 155.0 232.5 L 151.25 256.25 L 147.5 263.75 L 142.5 265.0 L 136.25 262.5 L 130.0 252.5 L 121.25 240.0 L 118.75 236.25 " stroke="black" fill="none" stroke-width="6.0" stroke-linecap="round" stroke-linejoin="round" />
<path d="M 83.75 202.5 L 80.0 203.75 L 78.75 206.25 L 81.25 218.75 L 85.0 238.75 L 90.0 251.25 L 95.0 253.75 " stroke="black" fill="none" stroke-width="6.0" stroke-linecap="round" stroke-linejoin="round" />
<path d="M 193.75 188.75 L 200.0 192.5 L 207.5 200.0 L 215.0 212.5 L 223.75 223.75 L 232.5 235.0 L 235.0 240.0 L 235.0 241.25 " stroke="black" fill="none" stroke-width="6.0" stroke-linecap="round" stroke-linejoin="round" />
</svg>