<svg xmlns="http://www.w3.org/2000/svg" width="300" height="300" viewBox="0 0 300 300">
<path d="M 98.75 125.0 L 96.25 126.25 L 90.0 132.5 L 88.75 135.0 L 100.0 136.25 L 130.0 130.0 L 165.0 113.75 L 187.5 101.25 L 191.25 98.75 L 181.25 97.5 " stroke="black" fill="none" stroke-width="6.0" stroke-linecap="round" stroke-linejoin="round" />
<path d="M 130.0 87.5 L 127.5 86.25 L 125.0 86.25 L 127.5 97.5 L 142.5 145.0 L 163.75 203.75 L 186.25 233.75 L 205.0 245.0 L 217.5 251.25 L 228.75 255.0 L 235.0 256.25 L 236.25 256.25 L 236.25 256.25 L 236.25 256.25 L 235.0 253.75 L 233.75 243.75 L 232.5 226.25 L 230.0 200.0 L 226.25 183.75 " stroke="black" fill="none" stroke-width="6.0" stroke-linecap="round" stroke-linejoin="round" />
<path d="M 211.25 137.5 L 208.75 138.75 L 203.75 142.5 L 186.25 162.5 L 165.0 188.75 L 130.0 218.75 L 103.75 226.25 L 100.0 225.0 " stroke="black" fill="none" stroke-width="6.0" stroke-linecap="round" stroke-linejoin="round" />
<path d="M 168.75 81.25 L 168.75 80.0 L 168.75 76.25 L 178.75 71.25 L 195.0 71.25 L 206.25 87.5 " stroke="black" fill="none" stroke-width="6.0" stroke-linecap="round" stroke-linejoin="round" />
</svg>