<svg xmlns="http://www.w3.org/2000/svg" width="300" height="300" viewBox="0 0 300 300">
<path d="M 85.0 72.5 L 82.5 73.75 L 76.25 77.5 L 78.75 80.0 L 93.75 81.25 L 122.5 76.25 L 155.0 66.25 L 176.25 60.0 L 182.5 58.75 L 176.25 68.75 L 155.0 93.75 L 128.75 127.5 L 93.75 168.75 L 60.0 206.25 L 41.25 221.25 L 36.25 225.0 L 38.75 215.0 " stroke="black" fill="none" stroke-width="6.0" stroke-linecap="round" stroke-linejoin="round" />
<path d="M 103.75 147.5 L 103.75 147.5 L 103.75 148.75 L 107.5 161.25 L 122.5 203.75 L 137.5 235.0 L 145.0 241.25 L 148.75 242.5 L 147.5 237.5 L 142.5 227.5 L 133.75 215.0 L 125.0 202.5 L 118.75 190.0 L 115.0 182.5 L 115.0 180.0 L 121.25 180.0 L 135.0 178.75 L 153.75 176.25 L 175.0 172.5 L 192.5 172.5 L 197.5 178.75 L 190.0 193.75 L 172.5 211.25 L 153.75 228.75 L 147.5 238.75 L 151.25 240.0 L 166.25 236.25 L 187.5 223.75 L 207.5 206.25 L 217.5 193.75 L 217.5 192.5 " stroke="black" fill="none" stroke-width="6.0" stroke-linecap="round" stroke-linejoin="round" />
</svg>