<svg xmlns="http://www.w3.org/2000/svg" width="300" height="300" viewBox="0 0 300 300">
<path d="M 86.25 88.75 L 85.0 88.75 L 82.5 88.75 L 81.25 88.75 L 82.5 88.75 L 91.25 88.75 L 103.75 90.0 L 112.5 93.75 L 115.0 100.0 L 105.0 121.25 L 92.5 136.25 L 83.75 146.25 L 82.5 147.5 L 88.75 147.5 L 101.25 142.5 L 116.25 137.5 L 126.25 136.25 L 130.0 143.75 L 122.5 171.25 L 110.0 207.5 L 98.75 241.25 L 88.75 260.0 L 81.25 265.0 L 73.75 266.25 L 71.25 262.5 " stroke="black" fill="none" stroke-width="6.0" stroke-linecap="round" stroke-linejoin="round" />
<path d="M 70.0 182.5 L 70.0 182.5 L 68.75 181.25 L 70.0 183.75 L 78.75 193.75 L 97.5 211.25 L 128.75 232.5 L 158.75 246.25 L 186.25 253.75 L 210.0 258.75 L 228.75 260.0 L 243.75 260.0 L 252.5 257.5 L 253.75 253.75 " stroke="black" fill="none" stroke-width="6.0" stroke-linecap="round" stroke-linejoin="round" />
</svg>