<svg xmlns="http://www.w3.org/2000/svg" width="300" height="300" viewBox="0 0 300 300">
<path d="M 73.75 97.5 L 71.25 97.5 L 66.25 98.75 L 63.75 100.0 L 73.75 103.75 L 97.5 107.5 L 133.75 108.75 L 168.75 107.5 L 198.75 105.0 L 212.5 101.25 L 215.0 100.0 L 215.0 100.0 L 208.75 98.75 L 196.25 100.0 L 185.0 101.25 " stroke="black" fill="none" stroke-width="6.0" stroke-linecap="round" stroke-linejoin="round" />
<path d="M 103.75 120.0 L 103.75 120.0 L 102.5 118.75 L 101.25 118.75 L 100.0 121.25 L 100.0 136.25 L 100.0 163.75 L 100.0 212.5 L 102.5 231.25 L 106.25 237.5 L 108.75 238.75 L 112.5 240.0 L 122.5 241.25 L 138.75 241.25 L 160.0 241.25 L 182.5 241.25 L 201.25 240.0 L 213.75 240.0 L 221.25 238.75 L 223.75 237.5 L 226.25 236.25 L 228.75 233.75 L 228.75 232.5 " stroke="black" fill="none" stroke-width="6.0" stroke-linecap="round" stroke-linejoin="round" />
</svg>