<svg xmlns="http://www.w3.org/2000/svg" width="300" height="300" viewBox="0 0 300 300">
<path d="M 101.25 116.25 L 101.25 116.25 L 98.75 116.25 L 98.75 116.25 L 112.5 111.25 L 145.0 101.25 L 183.75 86.25 L 206.25 72.5 L 210.0 65.0 L 207.5 63.75 L 201.25 65.0 L 195.0 68.75 L 191.25 73.75 L 188.75 81.25 L 188.75 95.0 L 190.0 128.75 L 191.25 183.75 L 192.5 227.5 L 195.0 243.75 L 195.0 250.0 L 195.0 251.25 L 192.5 251.25 L 187.5 246.25 L 176.25 240.0 L 173.75 237.5 " stroke="black" fill="none" stroke-width="6.0" stroke-linecap="round" stroke-linejoin="round" />
<path d="M 140.0 135.0 L 136.25 130.0 L 135.0 128.75 L 135.0 131.25 L 138.75 150.0 L 140.0 180.0 L 142.5 205.0 L 142.5 208.75 " stroke="black" fill="none" stroke-width="6.0" stroke-linecap="round" stroke-linejoin="round" />
<path d="M 145.0 143.75 L 145.0 142.5 L 142.5 140.0 L 142.5 138.75 L 151.25 137.5 L 165.0 132.5 L 178.75 127.5 L 182.5 126.25 L 182.5 126.25 " stroke="black" fill="none" stroke-width="6.0" stroke-linecap="round" stroke-linejoin="round" />
<path d="M 155.0 161.25 L 153.75 166.25 L 152.5 167.5 L 155.0 167.5 L 163.75 162.5 L 173.75 157.5 L 180.0 153.75 L 180.0 152.5 " stroke="black" fill="none" stroke-width="6.0" stroke-linecap="round" stroke-linejoin="round" />
<path d="M 117.5 221.25 L 113.75 223.75 L 110.0 226.25 L 113.75 226.25 L 138.75 215.0 L 170.0 201.25 L 206.25 183.75 L 231.25 171.25 L 245.0 167.5 L 248.75 166.25 L 248.75 166.25 L 247.5 166.25 L 247.5 167.5 L 247.5 167.5 " stroke="black" fill="none" stroke-width="6.0" stroke-linecap="round" stroke-linejoin="round" />
</svg>