<svg xmlns="http://www.w3.org/2000/svg" width="300" height="300" viewBox="0 0 300 300">
<path d="M 103.75 90.0 L 101.25 87.5 L 98.75 87.5 L 100.0 87.5 L 110.0 96.25 L 122.5 108.75 L 133.75 121.25 L 137.5 125.0 L 135.0 122.5 L 123.75 115.0 L 112.5 108.75 L 101.25 102.5 L 97.5 96.25 L 100.0 92.5 L 117.5 87.5 L 140.0 83.75 L 160.0 82.5 L 171.25 82.5 L 171.25 87.5 L 160.0 97.5 L 146.25 108.75 L 132.5 120.0 L 123.75 128.75 L 123.75 128.75 L 137.5 122.5 L 155.0 110.0 L 172.5 97.5 L 181.25 90.0 L 175.0 91.25 " stroke="black" fill="none" stroke-width="6.0" stroke-linecap="round" stroke-linejoin="round" />
<path d="M 108.75 180.0 L 108.75 180.0 L 110.0 180.0 L 128.75 168.75 L 158.75 151.25 L 183.75 141.25 L 192.5 140.0 L 190.0 148.75 L 157.5 187.5 L 142.5 202.5 L 131.25 206.25 " stroke="black" fill="none" stroke-width="6.0" stroke-linecap="round" stroke-linejoin="round" />
<path d="M 145.0 160.0 L 146.25 160.0 L 145.0 161.25 L 141.25 181.25 L 133.75 210.0 L 128.75 225.0 L 127.5 223.75 L 136.25 212.5 L 150.0 195.0 L 163.75 177.5 L 171.25 162.5 L 165.0 158.75 " stroke="black" fill="none" stroke-width="6.0" stroke-linecap="round" stroke-linejoin="round" />
<path d="M 100.0 185.0 L 100.0 185.0 L 100.0 188.75 L 112.5 207.5 L 133.75 236.25 L 156.25 250.0 L 180.0 252.5 L 202.5 248.75 L 217.5 243.75 L 230.0 240.0 L 236.25 238.75 L 237.5 238.75 L 237.5 238.75 L 237.5 233.75 L 238.75 223.75 L 240.0 206.25 L 240.0 182.5 L 235.0 138.75 " stroke="black" fill="none" stroke-width="6.0" stroke-linecap="round" stroke-linejoin="round" />
</svg>