<svg xmlns="http://www.w3.org/2000/svg" width="300" height="300" viewBox="0 0 300 300">
<path d="M 95.0 100.0 L 91.25 100.0 L 86.25 100.0 L 85.0 100.0 L 96.25 100.0 L 122.5 100.0 L 153.75 97.5 L 182.5 96.25 L 193.75 95.0 L 197.5 100.0 L 196.25 112.5 L 193.75 141.25 L 191.25 180.0 L 191.25 208.75 L 192.5 218.75 L 192.5 222.5 L 192.5 223.75 L 192.5 223.75 L 188.75 220.0 L 182.5 217.5 " stroke="black" fill="none" stroke-width="6.0" stroke-linecap="round" stroke-linejoin="round" />
<path d="M 98.75 162.5 L 93.75 166.25 L 91.25 166.25 L 97.5 166.25 L 118.75 165.0 L 147.5 160.0 L 172.5 155.0 L 182.5 153.75 L 182.5 153.75 " stroke="black" fill="none" stroke-width="6.0" stroke-linecap="round" stroke-linejoin="round" />
<path d="M 70.0 241.25 L 68.75 241.25 L 66.25 241.25 L 63.75 241.25 L 63.75 241.25 L 73.75 238.75 L 88.75 235.0 L 108.75 230.0 L 131.25 227.5 L 156.25 227.5 L 178.75 228.75 L 200.0 232.5 L 217.5 233.75 L 233.75 236.25 L 248.75 237.5 L 257.5 240.0 L 261.25 241.25 L 262.5 242.5 L 262.5 242.5 L 262.5 243.75 " stroke="black" fill="none" stroke-width="6.0" stroke-linecap="round" stroke-linejoin="round" />
</svg>