<svg xmlns="http://www.w3.org/2000/svg" width="300" height="300" viewBox="0 0 300 300">
<path d="M 120.0 85.0 L 120.0 85.0 L 121.25 85.0 L 132.5 86.25 L 147.5 88.75 L 156.25 92.5 L 156.25 93.75 " stroke="black" fill="none" stroke-width="6.0" stroke-linecap="round" stroke-linejoin="round" />
<path d="M 82.5 125.0 L 76.25 130.0 L 77.5 135.0 L 95.0 136.25 L 127.5 130.0 L 168.75 111.25 L 196.25 96.25 L 201.25 91.25 L 191.25 92.5 L 186.25 93.75 " stroke="black" fill="none" stroke-width="6.0" stroke-linecap="round" stroke-linejoin="round" />
<path d="M 121.25 151.25 L 121.25 152.5 L 121.25 153.75 L 128.75 153.75 L 145.0 148.75 L 162.5 140.0 L 172.5 135.0 L 171.25 132.5 L 163.75 135.0 " stroke="black" fill="none" stroke-width="6.0" stroke-linecap="round" stroke-linejoin="round" />
<path d="M 121.25 188.75 L 118.75 191.25 L 121.25 192.5 L 135.0 188.75 L 158.75 173.75 L 177.5 158.75 L 183.75 155.0 L 168.75 160.0 " stroke="black" fill="none" stroke-width="6.0" stroke-linecap="round" stroke-linejoin="round" />
<path d="M 111.25 211.25 L 108.75 212.5 L 105.0 213.75 L 105.0 213.75 L 105.0 213.75 L 108.75 213.75 L 112.5 215.0 L 115.0 216.25 L 116.25 216.25 L 117.5 216.25 L 117.5 216.25 L 117.5 216.25 L 116.25 216.25 L 115.0 216.25 L 112.5 216.25 L 111.25 216.25 L 108.75 216.25 L 107.5 216.25 L 106.25 217.5 L 106.25 217.5 L 106.25 221.25 L 115.0 235.0 L 128.75 255.0 L 141.25 267.5 L 145.0 270.0 L 145.0 268.75 L 142.5 267.5 L 137.5 263.75 L 130.0 257.5 L 123.75 251.25 L 121.25 243.75 L 125.0 235.0 L 142.5 222.5 L 170.0 208.75 L 196.25 200.0 L 203.75 201.25 L 197.5 215.0 L 180.0 236.25 L 160.0 256.25 L 146.25 268.75 L 146.25 270.0 L 161.25 263.75 L 185.0 247.5 L 207.5 228.75 L 217.5 215.0 " stroke="black" fill="none" stroke-width="6.0" stroke-linecap="round" stroke-linejoin="round" />
</svg>