<svg xmlns="http://www.w3.org/2000/svg" width="300" height="300" viewBox="0 0 300 300">
<path d="M 110.0 65.0 L 108.75 67.5 L 107.5 90.0 L 111.25 136.25 L 116.25 167.5 L 122.5 181.25 L 122.5 178.75 " stroke="black" fill="none" stroke-width="6.0" stroke-linecap="round" stroke-linejoin="round" />
<path d="M 108.75 98.75 L 108.75 98.75 L 105.0 98.75 L 105.0 97.5 L 116.25 92.5 L 136.25 83.75 L 155.0 75.0 L 165.0 68.75 L 160.0 71.25 " stroke="black" fill="none" stroke-width="6.0" stroke-linecap="round" stroke-linejoin="round" />
<path d="M 121.25 125.0 L 118.75 128.75 L 121.25 130.0 L 128.75 127.5 L 147.5 115.0 L 158.75 105.0 L 161.25 101.25 L 157.5 103.75 " stroke="black" fill="none" stroke-width="6.0" stroke-linecap="round" stroke-linejoin="round" />
<path d="M 125.0 151.25 L 123.75 152.5 L 126.25 152.5 L 136.25 147.5 L 153.75 133.75 L 160.0 125.0 L 156.25 125.0 " stroke="black" fill="none" stroke-width="6.0" stroke-linecap="round" stroke-linejoin="round" />
<path d="M 72.5 198.75 L 72.5 200.0 L 71.25 203.75 L 85.0 197.5 L 116.25 177.5 L 156.25 151.25 L 177.5 136.25 L 182.5 132.5 L 170.0 136.25 L 157.5 142.5 " stroke="black" fill="none" stroke-width="6.0" stroke-linecap="round" stroke-linejoin="round" />
<path d="M 115.0 182.5 L 115.0 192.5 L 116.25 215.0 L 123.75 243.75 L 131.25 260.0 L 138.75 262.5 L 148.75 256.25 L 163.75 237.5 L 183.75 210.0 L 201.25 187.5 L 211.25 168.75 L 212.5 160.0 L 205.0 161.25 L 187.5 171.25 L 165.0 185.0 L 145.0 198.75 L 131.25 208.75 L 131.25 208.75 L 135.0 207.5 L 138.75 203.75 L 142.5 202.5 L 145.0 201.25 L 145.0 200.0 L 145.0 200.0 L 146.25 200.0 L 146.25 200.0 L 146.25 200.0 L 145.0 200.0 L 145.0 201.25 L 150.0 203.75 L 165.0 212.5 L 193.75 225.0 L 216.25 235.0 L 232.5 238.75 L 235.0 238.75 " stroke="black" fill="none" stroke-width="6.0" stroke-linecap="round" stroke-linejoin="round" />
</svg>