<svg xmlns="http://www.w3.org/2000/svg" width="300" height="300" viewBox="0 0 300 300">
<path d="M 88.75 91.25 L 85.0 88.75 L 82.5 87.5 L 83.75 88.75 L 91.25 103.75 L 103.75 127.5 L 116.25 146.25 L 121.25 150.0 L 118.75 148.75 " stroke="black" fill="none" stroke-width="6.0" stroke-linecap="round" stroke-linejoin="round" />
<path d="M 91.25 107.5 L 88.75 103.75 L 86.25 97.5 L 88.75 92.5 L 103.75 86.25 L 133.75 78.75 L 167.5 70.0 L 193.75 65.0 L 200.0 67.5 L 197.5 76.25 L 185.0 92.5 L 167.5 108.75 L 150.0 125.0 L 132.5 137.5 L 117.5 147.5 L 111.25 150.0 L 115.0 150.0 L 128.75 143.75 L 147.5 133.75 L 166.25 120.0 L 178.75 110.0 L 178.75 105.0 L 168.75 103.75 L 157.5 102.5 L 148.75 98.75 L 142.5 92.5 L 140.0 87.5 L 140.0 85.0 L 143.75 98.75 L 146.25 131.25 L 146.25 166.25 L 146.25 186.25 L 143.75 191.25 L 138.75 181.25 " stroke="black" fill="none" stroke-width="6.0" stroke-linecap="round" stroke-linejoin="round" />
<path d="M 126.25 93.75 L 126.25 90.0 L 126.25 87.5 L 127.5 91.25 L 128.75 113.75 L 128.75 140.0 L 128.75 153.75 L 130.0 151.25 L 137.5 137.5 L 147.5 116.25 L 157.5 98.75 L 165.0 91.25 L 166.25 98.75 L 157.5 125.0 L 147.5 152.5 L 135.0 178.75 L 127.5 192.5 L 127.5 192.5 L 138.75 186.25 L 156.25 175.0 L 176.25 163.75 L 190.0 156.25 L 192.5 156.25 L 185.0 168.75 L 170.0 188.75 L 156.25 206.25 L 145.0 218.75 L 136.25 222.5 " stroke="black" fill="none" stroke-width="6.0" stroke-linecap="round" stroke-linejoin="round" />
<path d="M 77.5 207.5 L 73.75 208.75 L 72.5 211.25 L 81.25 223.75 L 95.0 243.75 L 111.25 260.0 L 126.25 265.0 L 128.75 265.0 L 127.5 265.0 " stroke="black" fill="none" stroke-width="6.0" stroke-linecap="round" stroke-linejoin="round" />
<path d="M 123.75 216.25 L 122.5 215.0 L 121.25 215.0 L 122.5 215.0 L 132.5 225.0 L 143.75 238.75 L 153.75 246.25 L 157.5 246.25 L 157.5 237.5 L 157.5 226.25 L 158.75 217.5 L 158.75 215.0 L 158.75 216.25 L 163.75 223.75 L 171.25 235.0 L 180.0 242.5 L 185.0 243.75 " stroke="black" fill="none" stroke-width="6.0" stroke-linecap="round" stroke-linejoin="round" />
<path d="M 205.0 211.25 L 205.0 211.25 L 205.0 211.25 L 205.0 211.25 L 210.0 216.25 L 220.0 226.25 L 231.25 240.0 L 236.25 250.0 " stroke="black" fill="none" stroke-width="6.0" stroke-linecap="round" stroke-linejoin="round" />
</svg>