<svg xmlns="http://www.w3.org/2000/svg" width="300" height="300" viewBox="0 0 300 300">
<path d="M 83.75 98.75 L 82.5 98.75 L 80.0 96.25 L 80.0 95.0 L 81.25 108.75 L 83.75 150.0 L 83.75 196.25 L 80.0 221.25 L 76.25 226.25 L 71.25 218.75 " stroke="black" fill="none" stroke-width="6.0" stroke-linecap="round" stroke-linejoin="round" />
<path d="M 88.75 108.75 L 88.75 108.75 L 88.75 108.75 L 91.25 108.75 L 102.5 106.25 L 120.0 100.0 L 131.25 95.0 L 131.25 93.75 " stroke="black" fill="none" stroke-width="6.0" stroke-linecap="round" stroke-linejoin="round" />
<path d="M 96.25 140.0 L 96.25 142.5 L 93.75 145.0 L 95.0 145.0 L 103.75 138.75 L 117.5 128.75 L 126.25 120.0 L 126.25 120.0 " stroke="black" fill="none" stroke-width="6.0" stroke-linecap="round" stroke-linejoin="round" />
<path d="M 105.0 102.5 L 105.0 102.5 L 105.0 102.5 L 105.0 102.5 L 105.0 110.0 L 106.25 127.5 L 106.25 145.0 L 102.5 153.75 L 96.25 157.5 L 91.25 161.25 L 88.75 166.25 L 87.5 168.75 L 87.5 170.0 L 91.25 171.25 L 100.0 171.25 L 113.75 168.75 L 128.75 161.25 L 142.5 150.0 L 145.0 147.5 " stroke="black" fill="none" stroke-width="6.0" stroke-linecap="round" stroke-linejoin="round" />
<path d="M 162.5 86.25 L 158.75 87.5 L 156.25 90.0 L 158.75 91.25 L 171.25 91.25 L 187.5 86.25 L 201.25 80.0 L 206.25 77.5 L 205.0 78.75 " stroke="black" fill="none" stroke-width="6.0" stroke-linecap="round" stroke-linejoin="round" />
<path d="M 161.25 138.75 L 158.75 142.5 L 158.75 145.0 L 167.5 141.25 L 183.75 127.5 L 197.5 111.25 L 202.5 98.75 L 198.75 97.5 L 190.0 100.0 L 181.25 101.25 L 176.25 101.25 L 175.0 100.0 L 175.0 98.75 L 180.0 103.75 L 182.5 122.5 L 182.5 146.25 L 178.75 161.25 L 178.75 163.75 L 186.25 157.5 L 200.0 145.0 L 215.0 128.75 L 226.25 111.25 L 228.75 98.75 L 226.25 92.5 L 222.5 88.75 L 221.25 83.75 L 220.0 80.0 L 220.0 78.75 L 220.0 78.75 L 220.0 78.75 L 220.0 81.25 L 220.0 87.5 L 220.0 98.75 L 221.25 115.0 L 222.5 146.25 L 223.75 190.0 L 226.25 228.75 L 227.5 243.75 L 227.5 251.25 L 227.5 251.25 L 227.5 251.25 L 225.0 251.25 L 221.25 252.5 L 217.5 253.75 L 215.0 256.25 L 212.5 257.5 L 210.0 258.75 L 206.25 260.0 L 197.5 260.0 L 177.5 257.5 L 145.0 246.25 " stroke="black" fill="none" stroke-width="6.0" stroke-linecap="round" stroke-linejoin="round" />
</svg>