<svg xmlns="http://www.w3.org/2000/svg" width="300" height="300" viewBox="0 0 300 300">
<path d="M 121.25 85.0 L 120.0 85.0 L 116.25 87.5 L 117.5 91.25 L 132.5 100.0 L 155.0 111.25 L 182.5 122.5 L 201.25 128.75 L 198.75 130.0 " stroke="black" fill="none" stroke-width="6.0" stroke-linecap="round" stroke-linejoin="round" />
<path d="M 181.25 75.0 L 181.25 73.75 L 175.0 72.5 L 162.5 83.75 L 142.5 117.5 L 115.0 153.75 L 91.25 177.5 L 85.0 182.5 " stroke="black" fill="none" stroke-width="6.0" stroke-linecap="round" stroke-linejoin="round" />
<path d="M 101.25 171.25 L 102.5 182.5 L 112.5 197.5 L 132.5 215.0 L 157.5 232.5 L 187.5 241.25 L 212.5 242.5 L 230.0 242.5 L 235.0 240.0 L 228.75 236.25 L 226.25 235.0 " stroke="black" fill="none" stroke-width="6.0" stroke-linecap="round" stroke-linejoin="round" />
<path d="M 210.0 148.75 L 208.75 148.75 L 205.0 148.75 L 198.75 163.75 L 177.5 207.5 L 151.25 243.75 L 120.0 267.5 L 92.5 280.0 L 77.5 275.0 L 70.0 266.25 " stroke="black" fill="none" stroke-width="6.0" stroke-linecap="round" stroke-linejoin="round" />
</svg>