<svg xmlns="http://www.w3.org/2000/svg" width="300" height="300" viewBox="0 0 300 300">
<path d="M 102.5 88.75 L 106.25 85.0 L 113.75 77.5 L 121.25 75.0 L 122.5 78.75 L 111.25 98.75 L 98.75 121.25 L 88.75 138.75 L 83.75 142.5 " stroke="black" fill="none" stroke-width="6.0" stroke-linecap="round" stroke-linejoin="round" />
<path d="M 147.5 85.0 L 157.5 81.25 L 175.0 80.0 L 192.5 80.0 L 205.0 83.75 L 208.75 91.25 L 202.5 96.25 " stroke="black" fill="none" stroke-width="6.0" stroke-linecap="round" stroke-linejoin="round" />
<path d="M 152.5 118.75 L 142.5 127.5 L 128.75 143.75 L 107.5 168.75 L 90.0 192.5 L 78.75 202.5 L 72.5 202.5 L 71.25 196.25 " stroke="black" fill="none" stroke-width="6.0" stroke-linecap="round" stroke-linejoin="round" />
<path d="M 143.75 130.0 L 146.25 128.75 L 157.5 128.75 L 180.0 135.0 L 201.25 146.25 L 218.75 158.75 L 237.5 165.0 L 248.75 168.75 L 251.25 170.0 L 242.5 173.75 L 215.0 180.0 " stroke="black" fill="none" stroke-width="6.0" stroke-linecap="round" stroke-linejoin="round" />
<path d="M 122.5 200.0 L 121.25 200.0 L 117.5 200.0 L 118.75 206.25 L 131.25 226.25 L 147.5 251.25 L 156.25 260.0 L 165.0 262.5 L 165.0 261.25 L 158.75 256.25 L 148.75 247.5 L 137.5 237.5 L 130.0 226.25 L 128.75 215.0 L 141.25 206.25 L 163.75 197.5 L 192.5 192.5 L 208.75 193.75 L 210.0 205.0 L 197.5 227.5 L 175.0 253.75 L 155.0 271.25 L 152.5 275.0 L 171.25 265.0 L 200.0 243.75 L 226.25 218.75 L 235.0 205.0 " stroke="black" fill="none" stroke-width="6.0" stroke-linecap="round" stroke-linejoin="round" />
</svg>