<svg xmlns="http://www.w3.org/2000/svg" width="300" height="300" viewBox="0 0 300 300">
<path d="M 128.75 95.0 L 121.25 95.0 L 117.5 95.0 L 118.75 95.0 L 136.25 95.0 L 162.5 95.0 L 190.0 95.0 L 201.25 102.5 L 197.5 117.5 L 177.5 136.25 L 157.5 148.75 L 141.25 153.75 L 136.25 153.75 " stroke="black" fill="none" stroke-width="6.0" stroke-linecap="round" stroke-linejoin="round" />
<path d="M 112.5 147.5 L 112.5 147.5 L 112.5 146.25 L 116.25 145.0 L 133.75 137.5 L 158.75 125.0 L 175.0 115.0 L 170.0 115.0 " stroke="black" fill="none" stroke-width="6.0" stroke-linecap="round" stroke-linejoin="round" />
<path d="M 116.25 168.75 L 113.75 173.75 L 115.0 173.75 L 127.5 167.5 L 147.5 152.5 L 160.0 138.75 L 158.75 132.5 " stroke="black" fill="none" stroke-width="6.0" stroke-linecap="round" stroke-linejoin="round" />
<path d="M 102.5 105.0 L 101.25 103.75 L 100.0 102.5 L 101.25 116.25 L 106.25 160.0 L 106.25 213.75 L 105.0 242.5 L 106.25 250.0 L 112.5 250.0 L 128.75 243.75 L 151.25 230.0 L 170.0 213.75 L 183.75 202.5 L 187.5 192.5 " stroke="black" fill="none" stroke-width="6.0" stroke-linecap="round" stroke-linejoin="round" />
<path d="M 193.75 146.25 L 193.75 147.5 L 193.75 148.75 L 191.25 156.25 L 163.75 202.5 L 147.5 213.75 L 135.0 216.25 L 128.75 213.75 " stroke="black" fill="none" stroke-width="6.0" stroke-linecap="round" stroke-linejoin="round" />
<path d="M 142.5 172.5 L 142.5 171.25 L 142.5 171.25 L 142.5 171.25 L 145.0 171.25 L 153.75 173.75 L 167.5 182.5 L 182.5 193.75 L 195.0 206.25 L 206.25 217.5 L 218.75 231.25 L 236.25 243.75 L 252.5 255.0 L 255.0 257.5 " stroke="black" fill="none" stroke-width="6.0" stroke-linecap="round" stroke-linejoin="round" />
</svg>