<svg xmlns="http://www.w3.org/2000/svg" width="300" height="300" viewBox="0 0 300 300">
<path d="M 100.0 117.5 L 92.5 126.25 L 88.75 130.0 L 90.0 130.0 L 101.25 127.5 L 118.75 121.25 L 137.5 115.0 L 147.5 111.25 L 148.75 117.5 L 133.75 140.0 L 111.25 170.0 L 91.25 196.25 L 77.5 207.5 L 65.0 208.75 L 62.5 208.75 " stroke="black" fill="none" stroke-width="6.0" stroke-linecap="round" stroke-linejoin="round" />
<path d="M 76.25 157.5 L 76.25 157.5 L 76.25 157.5 L 76.25 157.5 L 85.0 161.25 L 103.75 168.75 L 115.0 168.75 " stroke="black" fill="none" stroke-width="6.0" stroke-linecap="round" stroke-linejoin="round" />
<path d="M 153.75 97.5 L 153.75 98.75 L 153.75 102.5 L 166.25 118.75 L 196.25 152.5 L 227.5 191.25 L 258.75 215.0 L 285.0 231.25 L 307.5 238.75 L 312.5 238.75 L 308.75 233.75 L 297.5 226.25 " stroke="black" fill="none" stroke-width="6.0" stroke-linecap="round" stroke-linejoin="round" />
<path d="M 233.75 110.0 L 233.75 110.0 L 231.25 110.0 L 227.5 110.0 L 217.5 122.5 L 206.25 145.0 L 205.0 151.25 " stroke="black" fill="none" stroke-width="6.0" stroke-linecap="round" stroke-linejoin="round" />
<path d="M 256.25 130.0 L 256.25 130.0 L 251.25 132.5 L 238.75 152.5 L 231.25 167.5 " stroke="black" fill="none" stroke-width="6.0" stroke-linecap="round" stroke-linejoin="round" />
</svg>