<svg xmlns="http://www.w3.org/2000/svg" width="300" height="300" viewBox="0 0 300 300">
<path d="M 130.0 60.0 L 130.0 60.0 L 130.0 60.0 L 133.75 71.25 L 138.75 90.0 L 145.0 101.25 L 146.25 102.5 " stroke="black" fill="none" stroke-width="6.0" stroke-linecap="round" stroke-linejoin="round" />
<path d="M 140.0 75.0 L 137.5 75.0 L 135.0 75.0 L 136.25 75.0 L 147.5 75.0 L 166.25 71.25 L 185.0 67.5 L 192.5 65.0 L 186.25 67.5 " stroke="black" fill="none" stroke-width="6.0" stroke-linecap="round" stroke-linejoin="round" />
<path d="M 112.5 115.0 L 108.75 117.5 L 106.25 118.75 L 112.5 118.75 L 133.75 113.75 L 158.75 106.25 L 185.0 101.25 L 197.5 100.0 L 197.5 105.0 L 182.5 117.5 L 161.25 130.0 L 141.25 140.0 L 121.25 143.75 L 108.75 142.5 L 106.25 136.25 L 110.0 127.5 L 111.25 123.75 L 111.25 126.25 L 111.25 152.5 L 106.25 205.0 L 100.0 257.5 L 98.75 277.5 L 98.75 281.25 L 97.5 273.75 L 96.25 261.25 " stroke="black" fill="none" stroke-width="6.0" stroke-linecap="round" stroke-linejoin="round" />
<path d="M 112.5 170.0 L 112.5 170.0 L 113.75 170.0 L 118.75 170.0 L 137.5 167.5 L 163.75 160.0 L 185.0 151.25 L 193.75 143.75 L 188.75 141.25 L 176.25 142.5 L 162.5 145.0 L 151.25 147.5 L 145.0 151.25 L 143.75 162.5 L 151.25 185.0 L 166.25 198.75 L 186.25 200.0 L 208.75 186.25 L 226.25 171.25 L 230.0 165.0 " stroke="black" fill="none" stroke-width="6.0" stroke-linecap="round" stroke-linejoin="round" />
</svg>