<svg xmlns="http://www.w3.org/2000/svg" width="300" height="300" viewBox="0 0 300 300">
<path d="M 135.0 75.0 L 133.75 75.0 L 132.5 75.0 L 132.5 75.0 L 138.75 77.5 L 148.75 82.5 L 157.5 88.75 " stroke="black" fill="none" stroke-width="6.0" stroke-linecap="round" stroke-linejoin="round" />
<path d="M 78.75 111.25 L 77.5 110.0 L 76.25 108.75 L 76.25 113.75 L 76.25 131.25 L 77.5 148.75 L 80.0 157.5 " stroke="black" fill="none" stroke-width="6.0" stroke-linecap="round" stroke-linejoin="round" />
<path d="M 83.75 112.5 L 81.25 112.5 L 80.0 112.5 L 83.75 112.5 L 97.5 111.25 L 138.75 106.25 L 175.0 101.25 L 202.5 98.75 L 216.25 98.75 L 221.25 98.75 L 222.5 98.75 L 221.25 100.0 L 218.75 105.0 L 215.0 122.5 L 210.0 133.75 L 202.5 143.75 L 192.5 152.5 " stroke="black" fill="none" stroke-width="6.0" stroke-linecap="round" stroke-linejoin="round" />
</svg>