<svg xmlns="http://www.w3.org/2000/svg" width="300" height="300" viewBox="0 0 300 300">
<path d="M 90.0 96.25 L 85.0 97.5 L 82.5 97.5 L 87.5 98.75 L 110.0 98.75 L 147.5 98.75 L 192.5 95.0 L 217.5 92.5 L 228.75 92.5 L 232.5 91.25 L 227.5 91.25 L 215.0 90.0 L 211.25 90.0 " stroke="black" fill="none" stroke-width="6.0" stroke-linecap="round" stroke-linejoin="round" />
<path d="M 88.75 153.75 L 85.0 155.0 L 80.0 157.5 L 78.75 157.5 L 87.5 160.0 L 113.75 160.0 L 153.75 155.0 L 197.5 152.5 L 226.25 151.25 L 242.5 151.25 L 247.5 151.25 L 246.25 150.0 L 237.5 146.25 L 223.75 143.75 " stroke="black" fill="none" stroke-width="6.0" stroke-linecap="round" stroke-linejoin="round" />
<path d="M 165.0 93.75 L 162.5 95.0 L 160.0 97.5 L 160.0 122.5 L 165.0 170.0 L 168.75 213.75 L 170.0 241.25 L 170.0 255.0 L 167.5 261.25 L 161.25 262.5 L 158.75 261.25 " stroke="black" fill="none" stroke-width="6.0" stroke-linecap="round" stroke-linejoin="round" />
</svg>