<svg xmlns="http://www.w3.org/2000/svg" width="300" height="300" viewBox="0 0 300 300">
<path d="M 122.5 73.75 L 120.0 72.5 L 117.5 71.25 L 116.25 71.25 L 117.5 83.75 L 121.25 103.75 L 126.25 120.0 L 128.75 123.75 L 128.75 122.5 " stroke="black" fill="none" stroke-width="6.0" stroke-linecap="round" stroke-linejoin="round" />
<path d="M 120.0 80.0 L 120.0 78.75 L 118.75 77.5 L 121.25 75.0 L 133.75 72.5 L 153.75 70.0 L 175.0 68.75 L 187.5 71.25 L 188.75 80.0 L 178.75 90.0 L 167.5 96.25 L 157.5 97.5 L 152.5 97.5 " stroke="black" fill="none" stroke-width="6.0" stroke-linecap="round" stroke-linejoin="round" />
<path d="M 146.25 87.5 L 143.75 90.0 L 141.25 91.25 L 141.25 91.25 L 146.25 90.0 L 155.0 83.75 L 163.75 78.75 L 167.5 76.25 L 165.0 77.5 L 158.75 82.5 L 152.5 88.75 L 147.5 93.75 L 145.0 102.5 L 143.75 110.0 L 143.75 112.5 " stroke="black" fill="none" stroke-width="6.0" stroke-linecap="round" stroke-linejoin="round" />
<path d="M 98.75 113.75 L 96.25 118.75 L 95.0 131.25 L 91.25 157.5 L 88.75 183.75 L 87.5 196.25 L 86.25 196.25 " stroke="black" fill="none" stroke-width="6.0" stroke-linecap="round" stroke-linejoin="round" />
<path d="M 92.5 142.5 L 92.5 141.25 L 93.75 140.0 L 110.0 136.25 L 147.5 125.0 L 186.25 113.75 L 202.5 110.0 L 202.5 110.0 L 190.0 122.5 L 172.5 136.25 L 155.0 148.75 L 140.0 156.25 L 135.0 157.5 L 135.0 152.5 L 137.5 146.25 L 137.5 143.75 L 137.5 143.75 L 137.5 161.25 L 138.75 198.75 L 141.25 238.75 L 143.75 258.75 L 145.0 260.0 L 145.0 257.5 L 145.0 246.25 " stroke="black" fill="none" stroke-width="6.0" stroke-linecap="round" stroke-linejoin="round" />
<path d="M 138.75 177.5 L 137.5 173.75 L 137.5 165.0 L 140.0 157.5 L 150.0 153.75 L 162.5 153.75 L 175.0 168.75 L 182.5 198.75 L 183.75 231.25 L 176.25 253.75 L 171.25 261.25 L 166.25 261.25 L 160.0 252.5 L 155.0 241.25 " stroke="black" fill="none" stroke-width="6.0" stroke-linecap="round" stroke-linejoin="round" />
<path d="M 145.0 196.25 L 142.5 196.25 L 140.0 196.25 L 140.0 193.75 L 150.0 187.5 L 167.5 176.25 L 182.5 166.25 L 185.0 163.75 L 178.75 170.0 " stroke="black" fill="none" stroke-width="6.0" stroke-linecap="round" stroke-linejoin="round" />
<path d="M 147.5 213.75 L 141.25 222.5 L 142.5 222.5 L 158.75 211.25 L 180.0 195.0 L 185.0 190.0 " stroke="black" fill="none" stroke-width="6.0" stroke-linecap="round" stroke-linejoin="round" />
</svg>