<svg xmlns="http://www.w3.org/2000/svg" width="300" height="300" viewBox="0 0 300 300">
<path d="M 88.75 110.0 L 86.25 105.0 L 83.75 102.5 L 83.75 110.0 L 85.0 145.0 L 87.5 192.5 L 88.75 218.75 L 92.5 223.75 L 92.5 215.0 " stroke="black" fill="none" stroke-width="6.0" stroke-linecap="round" stroke-linejoin="round" />
<path d="M 96.25 107.5 L 95.0 107.5 L 95.0 106.25 L 106.25 103.75 L 135.0 101.25 L 168.75 96.25 L 195.0 95.0 L 207.5 100.0 L 211.25 112.5 L 212.5 140.0 L 211.25 175.0 L 211.25 207.5 L 212.5 222.5 L 212.5 227.5 L 212.5 227.5 L 212.5 226.25 L 211.25 218.75 L 203.75 208.75 L 201.25 207.5 " stroke="black" fill="none" stroke-width="6.0" stroke-linecap="round" stroke-linejoin="round" />
<path d="M 110.0 167.5 L 105.0 167.5 L 98.75 167.5 L 102.5 167.5 L 120.0 165.0 L 145.0 160.0 L 170.0 153.75 L 187.5 151.25 L 183.75 153.75 " stroke="black" fill="none" stroke-width="6.0" stroke-linecap="round" stroke-linejoin="round" />
<path d="M 110.0 217.5 L 103.75 223.75 L 102.5 228.75 L 112.5 230.0 L 136.25 227.5 L 167.5 216.25 L 195.0 207.5 L 210.0 203.75 L 212.5 203.75 L 208.75 205.0 " stroke="black" fill="none" stroke-width="6.0" stroke-linecap="round" stroke-linejoin="round" />
</svg>