<svg xmlns="http://www.w3.org/2000/svg" width="300" height="300" viewBox="0 0 300 300">
<path d="M 108.75 95.0 L 106.25 95.0 L 100.0 95.0 L 98.75 95.0 L 112.5 95.0 L 138.75 91.25 L 163.75 86.25 L 182.5 82.5 L 185.0 82.5 L 177.5 87.5 L 156.25 107.5 L 127.5 140.0 L 92.5 181.25 L 71.25 206.25 L 61.25 211.25 L 60.0 211.25 " stroke="black" fill="none" stroke-width="6.0" stroke-linecap="round" stroke-linejoin="round" />
<path d="M 142.5 128.75 L 142.5 128.75 L 146.25 131.25 L 156.25 150.0 L 168.75 185.0 L 172.5 213.75 L 161.25 235.0 L 146.25 251.25 L 127.5 258.75 L 112.5 258.75 L 107.5 247.5 L 110.0 223.75 " stroke="black" fill="none" stroke-width="6.0" stroke-linecap="round" stroke-linejoin="round" />
<path d="M 147.5 162.5 L 145.0 162.5 L 136.25 165.0 L 122.5 178.75 L 105.0 205.0 L 95.0 222.5 L 96.25 223.75 L 102.5 213.75 " stroke="black" fill="none" stroke-width="6.0" stroke-linecap="round" stroke-linejoin="round" />
<path d="M 153.75 175.0 L 153.75 175.0 L 152.5 177.5 L 141.25 193.75 L 123.75 220.0 L 113.75 231.25 L 112.5 231.25 " stroke="black" fill="none" stroke-width="6.0" stroke-linecap="round" stroke-linejoin="round" />
<path d="M 210.0 131.25 L 210.0 130.0 L 210.0 130.0 L 207.5 133.75 L 195.0 151.25 L 178.75 170.0 L 171.25 176.25 L 170.0 175.0 L 172.5 171.25 L 176.25 168.75 L 178.75 167.5 L 182.5 168.75 L 187.5 175.0 L 195.0 186.25 L 205.0 201.25 L 220.0 216.25 L 238.75 227.5 L 250.0 232.5 L 251.25 233.75 " stroke="black" fill="none" stroke-width="6.0" stroke-linecap="round" stroke-linejoin="round" />
</svg>