<svg xmlns="http://www.w3.org/2000/svg" width="300" height="300" viewBox="0 0 300 300">
<path d="M 111.25 83.75 L 108.75 85.0 L 98.75 87.5 L 96.25 90.0 L 100.0 91.25 L 118.75 92.5 L 146.25 90.0 L 176.25 83.75 L 190.0 80.0 L 188.75 77.5 " stroke="black" fill="none" stroke-width="6.0" stroke-linecap="round" stroke-linejoin="round" />
<path d="M 102.5 137.5 L 101.25 138.75 L 101.25 141.25 L 113.75 141.25 L 142.5 132.5 L 172.5 120.0 L 191.25 111.25 L 191.25 108.75 L 175.0 115.0 " stroke="black" fill="none" stroke-width="6.0" stroke-linecap="round" stroke-linejoin="round" />
<path d="M 96.25 185.0 L 91.25 190.0 L 93.75 192.5 L 112.5 191.25 L 147.5 178.75 L 182.5 160.0 L 202.5 147.5 L 203.75 143.75 L 200.0 143.75 " stroke="black" fill="none" stroke-width="6.0" stroke-linecap="round" stroke-linejoin="round" />
<path d="M 148.75 105.0 L 148.75 102.5 L 147.5 101.25 L 150.0 102.5 L 156.25 127.5 L 161.25 172.5 L 161.25 213.75 L 155.0 233.75 L 147.5 245.0 L 136.25 250.0 L 122.5 250.0 L 103.75 250.0 L 87.5 246.25 L 76.25 238.75 L 61.25 220.0 " stroke="black" fill="none" stroke-width="6.0" stroke-linecap="round" stroke-linejoin="round" />
</svg>