<svg xmlns="http://www.w3.org/2000/svg" width="300" height="300" viewBox="0 0 300 300">
<path d="M 85.0 95.0 L 82.5 93.75 L 80.0 95.0 L 78.75 118.75 L 78.75 167.5 L 78.75 213.75 L 82.5 232.5 L 83.75 237.5 L 83.75 237.5 " stroke="black" fill="none" stroke-width="6.0" stroke-linecap="round" stroke-linejoin="round" />
<path d="M 82.5 107.5 L 80.0 102.5 L 80.0 100.0 L 85.0 96.25 L 95.0 93.75 L 108.75 95.0 L 121.25 103.75 L 125.0 121.25 L 118.75 141.25 L 106.25 157.5 L 95.0 165.0 L 86.25 165.0 " stroke="black" fill="none" stroke-width="6.0" stroke-linecap="round" stroke-linejoin="round" />
<path d="M 81.25 140.0 L 81.25 140.0 L 80.0 140.0 L 80.0 140.0 L 85.0 137.5 L 100.0 128.75 L 111.25 122.5 L 111.25 123.75 " stroke="black" fill="none" stroke-width="6.0" stroke-linecap="round" stroke-linejoin="round" />
<path d="M 90.0 163.75 L 85.0 168.75 L 86.25 168.75 L 98.75 162.5 L 121.25 146.25 L 146.25 125.0 L 160.0 105.0 L 161.25 95.0 L 161.25 91.25 L 156.25 91.25 L 152.5 96.25 L 151.25 113.75 L 153.75 138.75 L 166.25 155.0 L 185.0 155.0 L 198.75 143.75 L 205.0 132.5 L 205.0 123.75 L 197.5 118.75 L 182.5 120.0 L 163.75 127.5 L 150.0 135.0 L 147.5 140.0 L 150.0 140.0 L 162.5 132.5 L 178.75 121.25 L 195.0 108.75 L 202.5 98.75 L 200.0 97.5 " stroke="black" fill="none" stroke-width="6.0" stroke-linecap="round" stroke-linejoin="round" />
<path d="M 156.25 105.0 L 156.25 105.0 L 156.25 105.0 L 167.5 98.75 L 188.75 87.5 L 206.25 77.5 L 212.5 72.5 L 212.5 72.5 L 212.5 81.25 L 215.0 108.75 L 217.5 162.5 L 218.75 217.5 L 222.5 243.75 L 225.0 255.0 L 225.0 257.5 L 225.0 257.5 L 223.75 257.5 L 218.75 256.25 L 212.5 252.5 L 206.25 248.75 L 198.75 245.0 L 185.0 240.0 L 175.0 238.75 " stroke="black" fill="none" stroke-width="6.0" stroke-linecap="round" stroke-linejoin="round" />
</svg>