<svg xmlns="http://www.w3.org/2000/svg" width="300" height="300" viewBox="0 0 300 300">
<path d="M 102.5 118.75 L 93.75 121.25 L 83.75 125.0 L 80.0 127.5 L 82.5 128.75 L 101.25 126.25 L 133.75 113.75 L 167.5 100.0 L 191.25 90.0 L 200.0 83.75 L 193.75 82.5 L 177.5 83.75 L 161.25 83.75 L 147.5 81.25 L 137.5 78.75 L 133.75 73.75 L 133.75 68.75 L 135.0 63.75 L 137.5 61.25 L 140.0 63.75 L 143.75 80.0 L 146.25 117.5 L 146.25 175.0 L 143.75 220.0 L 141.25 238.75 L 137.5 248.75 L 132.5 251.25 L 127.5 247.5 L 123.75 235.0 L 121.25 218.75 " stroke="black" fill="none" stroke-width="6.0" stroke-linecap="round" stroke-linejoin="round" />
<path d="M 143.75 137.5 L 143.75 136.25 L 143.75 133.75 L 142.5 133.75 L 133.75 150.0 L 115.0 181.25 L 92.5 208.75 L 78.75 216.25 L 73.75 211.25 L 76.25 197.5 " stroke="black" fill="none" stroke-width="6.0" stroke-linecap="round" stroke-linejoin="round" />
<path d="M 140.0 142.5 L 141.25 142.5 L 145.0 143.75 L 155.0 153.75 L 177.5 171.25 L 227.5 195.0 L 246.25 205.0 L 256.25 215.0 L 257.5 222.5 L 255.0 227.5 " stroke="black" fill="none" stroke-width="6.0" stroke-linecap="round" stroke-linejoin="round" />
</svg>