<svg xmlns="http://www.w3.org/2000/svg" width="300" height="300" viewBox="0 0 300 300">
<path d="M 98.75 80.0 L 96.25 80.0 L 95.0 80.0 L 95.0 88.75 L 98.75 115.0 L 101.25 137.5 L 105.0 141.25 L 117.5 133.75 L 136.25 116.25 L 155.0 102.5 L 170.0 93.75 L 178.75 88.75 L 180.0 88.75 L 170.0 93.75 L 167.5 95.0 " stroke="black" fill="none" stroke-width="6.0" stroke-linecap="round" stroke-linejoin="round" />
<path d="M 90.0 193.75 L 88.75 197.5 L 88.75 200.0 L 105.0 196.25 L 142.5 177.5 L 182.5 151.25 L 203.75 137.5 L 207.5 132.5 L 200.0 131.25 L 187.5 132.5 " stroke="black" fill="none" stroke-width="6.0" stroke-linecap="round" stroke-linejoin="round" />
<path d="M 145.0 73.75 L 142.5 70.0 L 140.0 65.0 L 140.0 62.5 L 143.75 65.0 L 152.5 87.5 L 157.5 135.0 L 157.5 201.25 L 153.75 247.5 L 152.5 261.25 L 147.5 267.5 L 141.25 267.5 L 135.0 261.25 " stroke="black" fill="none" stroke-width="6.0" stroke-linecap="round" stroke-linejoin="round" />
</svg>