<svg xmlns="http://www.w3.org/2000/svg" width="300" height="300" viewBox="0 0 300 300">
<path d="M 85.0 90.0 L 82.5 91.25 L 83.75 92.5 L 100.0 92.5 L 132.5 85.0 L 162.5 73.75 L 177.5 65.0 L 178.75 62.5 L 165.0 70.0 L 152.5 76.25 " stroke="black" fill="none" stroke-width="6.0" stroke-linecap="round" stroke-linejoin="round" />
<path d="M 110.0 102.5 L 106.25 110.0 L 102.5 126.25 L 97.5 146.25 L 92.5 157.5 L 90.0 157.5 L 90.0 156.25 " stroke="black" fill="none" stroke-width="6.0" stroke-linecap="round" stroke-linejoin="round" />
<path d="M 107.5 128.75 L 108.75 127.5 L 113.75 127.5 L 122.5 128.75 L 133.75 137.5 L 145.0 145.0 L 148.75 145.0 " stroke="black" fill="none" stroke-width="6.0" stroke-linecap="round" stroke-linejoin="round" />
<path d="M 196.25 86.25 L 186.25 93.75 L 176.25 110.0 L 162.5 135.0 L 153.75 146.25 L 151.25 147.5 " stroke="black" fill="none" stroke-width="6.0" stroke-linecap="round" stroke-linejoin="round" />
<path d="M 180.0 118.75 L 180.0 118.75 L 183.75 120.0 L 188.75 122.5 L 197.5 127.5 L 205.0 131.25 L 205.0 131.25 " stroke="black" fill="none" stroke-width="6.0" stroke-linecap="round" stroke-linejoin="round" />
<path d="M 142.5 56.25 L 143.75 53.75 L 145.0 53.75 L 147.5 76.25 L 148.75 113.75 L 148.75 146.25 L 150.0 156.25 L 150.0 157.5 L 150.0 155.0 L 150.0 151.25 L 150.0 148.75 L 150.0 148.75 L 150.0 148.75 L 147.5 160.0 L 133.75 185.0 L 106.25 212.5 L 80.0 235.0 L 61.25 242.5 L 55.0 238.75 L 53.75 228.75 " stroke="black" fill="none" stroke-width="6.0" stroke-linecap="round" stroke-linejoin="round" />
<path d="M 152.5 150.0 L 153.75 151.25 L 160.0 155.0 L 178.75 166.25 L 200.0 181.25 L 216.25 191.25 L 225.0 196.25 L 226.25 197.5 L 216.25 200.0 L 202.5 201.25 " stroke="black" fill="none" stroke-width="6.0" stroke-linecap="round" stroke-linejoin="round" />
<path d="M 163.75 181.25 L 161.25 181.25 L 157.5 180.0 L 150.0 190.0 L 141.25 208.75 L 132.5 223.75 L 131.25 226.25 L 138.75 221.25 L 155.0 210.0 L 173.75 202.5 L 185.0 201.25 L 188.75 211.25 L 176.25 233.75 L 158.75 255.0 L 141.25 271.25 L 125.0 278.75 L 115.0 277.5 " stroke="black" fill="none" stroke-width="6.0" stroke-linecap="round" stroke-linejoin="round" />
<path d="M 121.25 220.0 L 121.25 220.0 L 121.25 220.0 L 121.25 220.0 L 130.0 222.5 L 146.25 232.5 L 163.75 243.75 " stroke="black" fill="none" stroke-width="6.0" stroke-linecap="round" stroke-linejoin="round" />
</svg>