<svg xmlns="http://www.w3.org/2000/svg" width="300" height="300" viewBox="0 0 300 300">
<path d="M 85.0 123.75 L 81.25 125.0 L 76.25 127.5 L 82.5 128.75 L 110.0 125.0 L 152.5 112.5 L 193.75 100.0 L 208.75 92.5 L 207.5 92.5 L 201.25 92.5 " stroke="black" fill="none" stroke-width="6.0" stroke-linecap="round" stroke-linejoin="round" />
<path d="M 102.5 87.5 L 102.5 87.5 L 102.5 87.5 L 105.0 90.0 L 111.25 126.25 L 116.25 185.0 L 117.5 221.25 L 118.75 236.25 L 125.0 240.0 L 138.75 241.25 L 158.75 237.5 L 185.0 228.75 L 205.0 221.25 L 211.25 215.0 L 211.25 212.5 L 205.0 206.25 L 196.25 200.0 " stroke="black" fill="none" stroke-width="6.0" stroke-linecap="round" stroke-linejoin="round" />
<path d="M 192.5 76.25 L 192.5 73.75 L 191.25 66.25 L 192.5 65.0 L 196.25 72.5 L 201.25 108.75 L 202.5 157.5 L 202.5 192.5 L 202.5 203.75 L 197.5 206.25 L 196.25 206.25 " stroke="black" fill="none" stroke-width="6.0" stroke-linecap="round" stroke-linejoin="round" />
<path d="M 117.5 185.0 L 113.75 185.0 L 107.5 186.25 L 110.0 186.25 L 130.0 180.0 L 155.0 168.75 L 178.75 157.5 L 182.5 155.0 " stroke="black" fill="none" stroke-width="6.0" stroke-linecap="round" stroke-linejoin="round" />
</svg>