<svg xmlns="http://www.w3.org/2000/svg" width="300" height="300" viewBox="0 0 300 300">
<path d="M 77.5 136.25 L 76.25 136.25 L 75.0 135.0 L 75.0 151.25 L 76.25 201.25 L 80.0 238.75 L 83.75 248.75 L 85.0 247.5 " stroke="black" fill="none" stroke-width="6.0" stroke-linecap="round" stroke-linejoin="round" />
<path d="M 93.75 142.5 L 93.75 142.5 L 95.0 141.25 L 110.0 136.25 L 148.75 122.5 L 188.75 111.25 L 212.5 112.5 L 223.75 135.0 L 227.5 175.0 L 223.75 223.75 L 222.5 255.0 L 221.25 261.25 L 221.25 260.0 L 217.5 253.75 L 211.25 241.25 L 200.0 225.0 L 183.75 202.5 L 177.5 196.25 " stroke="black" fill="none" stroke-width="6.0" stroke-linecap="round" stroke-linejoin="round" />
<path d="M 142.5 88.75 L 142.5 88.75 L 142.5 88.75 L 140.0 100.0 L 132.5 146.25 L 123.75 187.5 L 117.5 205.0 L 117.5 205.0 L 126.25 203.75 L 143.75 197.5 L 165.0 187.5 L 185.0 175.0 L 195.0 166.25 L 196.25 162.5 L 191.25 161.25 L 185.0 160.0 L 181.25 157.5 L 178.75 156.25 L 178.75 156.25 L 178.75 156.25 L 178.75 156.25 L 181.25 157.5 L 191.25 168.75 L 202.5 190.0 " stroke="black" fill="none" stroke-width="6.0" stroke-linecap="round" stroke-linejoin="round" />
</svg>