<svg xmlns="http://www.w3.org/2000/svg" width="300" height="300" viewBox="0 0 300 300">
<path d="M 111.25 100.0 L 111.25 100.0 L 111.25 100.0 L 111.25 100.0 L 118.75 100.0 L 131.25 103.75 L 142.5 106.25 L 143.75 107.5 " stroke="black" fill="none" stroke-width="6.0" stroke-linecap="round" stroke-linejoin="round" />
<path d="M 98.75 130.0 L 96.25 131.25 L 95.0 131.25 L 97.5 133.75 L 111.25 135.0 L 131.25 136.25 L 140.0 136.25 " stroke="black" fill="none" stroke-width="6.0" stroke-linecap="round" stroke-linejoin="round" />
<path d="M 67.5 212.5 L 65.0 215.0 L 61.25 217.5 L 66.25 218.75 L 90.0 213.75 L 131.25 200.0 L 178.75 186.25 L 215.0 176.25 L 233.75 171.25 L 237.5 168.75 L 233.75 166.25 L 221.25 161.25 L 207.5 156.25 L 203.75 153.75 " stroke="black" fill="none" stroke-width="6.0" stroke-linecap="round" stroke-linejoin="round" />
<path d="M 172.5 82.5 L 172.5 78.75 L 172.5 75.0 L 173.75 71.25 L 175.0 71.25 L 180.0 81.25 L 183.75 120.0 L 183.75 190.0 L 181.25 248.75 L 180.0 273.75 L 180.0 285.0 L 177.5 287.5 L 171.25 286.25 L 162.5 276.25 L 158.75 273.75 " stroke="black" fill="none" stroke-width="6.0" stroke-linecap="round" stroke-linejoin="round" />
</svg>