<svg xmlns="http://www.w3.org/2000/svg" width="300" height="300" viewBox="0 0 300 300">
<path d="M 117.5 85.0 L 116.25 85.0 L 115.0 83.75 L 115.0 90.0 L 117.5 128.75 L 121.25 173.75 L 125.0 193.75 L 126.25 196.25 L 125.0 193.75 " stroke="black" fill="none" stroke-width="6.0" stroke-linecap="round" stroke-linejoin="round" />
<path d="M 128.75 87.5 L 128.75 87.5 L 128.75 86.25 L 133.75 81.25 L 151.25 73.75 L 175.0 71.25 L 192.5 81.25 L 197.5 112.5 L 195.0 152.5 L 190.0 182.5 L 187.5 196.25 L 187.5 197.5 L 185.0 193.75 L 181.25 183.75 L 175.0 173.75 " stroke="black" fill="none" stroke-width="6.0" stroke-linecap="round" stroke-linejoin="round" />
<path d="M 136.25 136.25 L 133.75 136.25 L 131.25 136.25 L 130.0 136.25 L 137.5 131.25 L 152.5 122.5 L 166.25 112.5 L 172.5 107.5 L 168.75 108.75 " stroke="black" fill="none" stroke-width="6.0" stroke-linecap="round" stroke-linejoin="round" />
<path d="M 128.75 173.75 L 126.25 175.0 L 130.0 172.5 L 143.75 161.25 L 163.75 146.25 L 175.0 137.5 L 171.25 140.0 " stroke="black" fill="none" stroke-width="6.0" stroke-linecap="round" stroke-linejoin="round" />
<path d="M 130.0 212.5 L 127.5 215.0 L 130.0 213.75 L 143.75 201.25 L 165.0 183.75 L 178.75 171.25 L 178.75 172.5 L 166.25 195.0 L 150.0 226.25 L 133.75 262.5 L 122.5 283.75 L 121.25 282.5 L 130.0 263.75 " stroke="black" fill="none" stroke-width="6.0" stroke-linecap="round" stroke-linejoin="round" />
<path d="M 171.25 203.75 L 173.75 200.0 L 177.5 200.0 L 186.25 215.0 L 200.0 237.5 L 223.75 252.5 L 250.0 253.75 L 263.75 250.0 L 268.75 246.25 L 268.75 245.0 L 267.5 242.5 L 265.0 233.75 L 261.25 213.75 L 252.5 176.25 L 248.75 161.25 " stroke="black" fill="none" stroke-width="6.0" stroke-linecap="round" stroke-linejoin="round" />
</svg>