<svg xmlns="http://www.w3.org/2000/svg" width="300" height="300" viewBox="0 0 300 300">
<path d="M 103.75 96.25 L 96.25 96.25 L 91.25 97.5 L 91.25 97.5 L 97.5 97.5 L 118.75 93.75 L 150.0 87.5 L 183.75 80.0 L 205.0 76.25 L 210.0 73.75 L 208.75 73.75 L 200.0 75.0 L 185.0 78.75 L 176.25 80.0 " stroke="black" fill="none" stroke-width="6.0" stroke-linecap="round" stroke-linejoin="round" />
<path d="M 101.25 97.5 L 100.0 97.5 L 97.5 97.5 L 95.0 97.5 L 93.75 98.75 L 93.75 107.5 L 95.0 136.25 L 95.0 183.75 L 95.0 211.25 L 95.0 220.0 L 96.25 222.5 L 98.75 225.0 L 106.25 226.25 L 116.25 227.5 L 133.75 230.0 L 156.25 231.25 L 182.5 228.75 L 201.25 226.25 L 212.5 223.75 L 216.25 223.75 L 217.5 222.5 L 220.0 221.25 L 223.75 216.25 L 225.0 213.75 " stroke="black" fill="none" stroke-width="6.0" stroke-linecap="round" stroke-linejoin="round" />
</svg>