<svg xmlns="http://www.w3.org/2000/svg" width="300" height="300" viewBox="0 0 300 300">
<path d="M 105.0 85.0 L 102.5 86.25 L 98.75 88.75 L 98.75 90.0 L 105.0 90.0 L 121.25 88.75 L 145.0 82.5 L 167.5 73.75 L 183.75 65.0 L 183.75 61.25 L 177.5 61.25 " stroke="black" fill="none" stroke-width="6.0" stroke-linecap="round" stroke-linejoin="round" />
<path d="M 112.5 118.75 L 111.25 120.0 L 106.25 123.75 L 107.5 125.0 L 117.5 123.75 L 137.5 117.5 L 160.0 105.0 L 177.5 96.25 L 183.75 92.5 L 176.25 92.5 " stroke="black" fill="none" stroke-width="6.0" stroke-linecap="round" stroke-linejoin="round" />
<path d="M 98.75 161.25 L 97.5 161.25 L 96.25 163.75 L 101.25 165.0 L 121.25 161.25 L 151.25 148.75 L 181.25 133.75 L 198.75 122.5 L 197.5 118.75 L 185.0 121.25 L 172.5 130.0 L 160.0 137.5 L 152.5 143.75 L 151.25 148.75 L 152.5 156.25 L 155.0 177.5 L 155.0 203.75 L 153.75 227.5 L 153.75 226.25 L 155.0 218.75 L 155.0 211.25 L 155.0 203.75 L 155.0 198.75 L 155.0 195.0 L 155.0 192.5 L 163.75 187.5 L 182.5 176.25 L 197.5 166.25 L 201.25 161.25 L 195.0 160.0 L 181.25 165.0 " stroke="black" fill="none" stroke-width="6.0" stroke-linecap="round" stroke-linejoin="round" />
<path d="M 116.25 180.0 L 115.0 180.0 L 110.0 182.5 L 106.25 188.75 L 102.5 207.5 L 100.0 235.0 L 96.25 253.75 L 95.0 258.75 L 92.5 260.0 L 90.0 253.75 L 90.0 245.0 L 92.5 235.0 L 95.0 225.0 L 98.75 217.5 L 101.25 215.0 L 103.75 213.75 L 107.5 216.25 L 112.5 218.75 L 118.75 221.25 L 125.0 223.75 L 130.0 225.0 L 135.0 225.0 L 140.0 226.25 L 146.25 226.25 L 155.0 226.25 L 171.25 228.75 L 191.25 237.5 L 212.5 246.25 L 235.0 255.0 L 253.75 261.25 L 267.5 265.0 L 278.75 265.0 L 278.75 265.0 " stroke="black" fill="none" stroke-width="6.0" stroke-linecap="round" stroke-linejoin="round" />
</svg>