<svg xmlns="http://www.w3.org/2000/svg" width="300" height="300" viewBox="0 0 300 300">
<path d="M 145.0 85.0 L 145.0 83.75 L 143.75 81.25 L 141.25 81.25 L 132.5 93.75 L 116.25 115.0 L 100.0 133.75 L 92.5 142.5 L 91.25 145.0 L 93.75 147.5 L 101.25 152.5 L 118.75 157.5 L 137.5 160.0 L 155.0 160.0 L 165.0 160.0 L 166.25 158.75 L 158.75 158.75 " stroke="black" fill="none" stroke-width="6.0" stroke-linecap="round" stroke-linejoin="round" />
<path d="M 188.75 111.25 L 190.0 108.75 L 190.0 107.5 L 188.75 107.5 L 180.0 122.5 L 162.5 150.0 L 138.75 182.5 L 115.0 205.0 L 100.0 213.75 L 93.75 220.0 L 92.5 222.5 L 95.0 223.75 L 103.75 225.0 L 120.0 223.75 L 138.75 221.25 L 158.75 217.5 L 178.75 216.25 L 192.5 216.25 L 197.5 217.5 L 197.5 217.5 L 197.5 217.5 L 197.5 217.5 L 197.5 212.5 " stroke="black" fill="none" stroke-width="6.0" stroke-linecap="round" stroke-linejoin="round" />
<path d="M 195.0 170.0 L 190.0 168.75 L 187.5 167.5 L 187.5 168.75 L 196.25 183.75 L 208.75 207.5 L 220.0 228.75 L 226.25 241.25 " stroke="black" fill="none" stroke-width="6.0" stroke-linecap="round" stroke-linejoin="round" />
</svg>