<svg xmlns="http://www.w3.org/2000/svg" width="300" height="300" viewBox="0 0 300 300">
<path d="M 138.75 80.0 L 132.5 81.25 L 125.0 83.75 L 125.0 85.0 L 136.25 86.25 L 156.25 87.5 L 176.25 87.5 L 188.75 90.0 L 187.5 95.0 L 171.25 106.25 L 153.75 117.5 L 138.75 123.75 L 127.5 126.25 L 123.75 127.5 L 125.0 127.5 L 130.0 128.75 L 138.75 132.5 L 150.0 135.0 L 161.25 137.5 L 170.0 138.75 L 168.75 142.5 " stroke="black" fill="none" stroke-width="6.0" stroke-linecap="round" stroke-linejoin="round" />
<path d="M 96.25 166.25 L 92.5 168.75 L 87.5 171.25 L 88.75 172.5 L 105.0 170.0 L 133.75 162.5 L 170.0 153.75 L 198.75 150.0 L 208.75 150.0 L 205.0 156.25 L 190.0 170.0 L 170.0 182.5 L 155.0 188.75 " stroke="black" fill="none" stroke-width="6.0" stroke-linecap="round" stroke-linejoin="round" />
<path d="M 156.25 168.75 L 156.25 166.25 L 157.5 165.0 L 161.25 166.25 L 170.0 186.25 L 177.5 227.5 L 178.75 261.25 L 177.5 275.0 L 171.25 281.25 L 162.5 281.25 L 152.5 275.0 L 146.25 260.0 L 142.5 242.5 L 140.0 231.25 " stroke="black" fill="none" stroke-width="6.0" stroke-linecap="round" stroke-linejoin="round" />
<path d="M 156.25 171.25 L 156.25 171.25 L 156.25 170.0 L 153.75 173.75 L 141.25 195.0 L 116.25 233.75 L 90.0 265.0 L 71.25 278.75 L 67.5 278.75 " stroke="black" fill="none" stroke-width="6.0" stroke-linecap="round" stroke-linejoin="round" />
</svg>