<svg xmlns="http://www.w3.org/2000/svg" width="300" height="300" viewBox="0 0 300 300">
<path d="M 87.5 113.75 L 87.5 106.25 L 87.5 102.5 L 86.25 100.0 L 86.25 100.0 L 86.25 115.0 L 87.5 146.25 L 87.5 183.75 L 88.75 205.0 L 90.0 210.0 L 90.0 206.25 L 90.0 197.5 L 90.0 190.0 " stroke="black" fill="none" stroke-width="6.0" stroke-linecap="round" stroke-linejoin="round" />
<path d="M 87.5 112.5 L 85.0 110.0 L 83.75 107.5 L 88.75 105.0 L 106.25 102.5 L 136.25 100.0 L 162.5 98.75 L 185.0 97.5 L 200.0 97.5 L 205.0 101.25 L 206.25 111.25 L 207.5 132.5 L 207.5 160.0 L 207.5 191.25 L 208.75 207.5 L 208.75 213.75 L 208.75 216.25 L 208.75 216.25 L 208.75 216.25 L 208.75 216.25 L 205.0 216.25 L 197.5 216.25 " stroke="black" fill="none" stroke-width="6.0" stroke-linecap="round" stroke-linejoin="round" />
<path d="M 108.75 218.75 L 103.75 218.75 L 100.0 218.75 L 98.75 218.75 L 110.0 217.5 L 132.5 215.0 L 157.5 212.5 L 185.0 212.5 L 202.5 215.0 L 208.75 215.0 L 208.75 215.0 L 208.75 215.0 " stroke="black" fill="none" stroke-width="6.0" stroke-linecap="round" stroke-linejoin="round" />
</svg>