<svg xmlns="http://www.w3.org/2000/svg" width="300" height="300" viewBox="0 0 300 300">
<path d="M 85.0 103.75 L 82.5 100.0 L 81.25 98.75 L 81.25 101.25 L 86.25 128.75 L 87.5 176.25 L 83.75 220.0 L 77.5 240.0 L 70.0 242.5 " stroke="black" fill="none" stroke-width="6.0" stroke-linecap="round" stroke-linejoin="round" />
<path d="M 95.0 105.0 L 97.5 103.75 L 107.5 101.25 L 133.75 95.0 L 162.5 88.75 L 187.5 86.25 L 201.25 87.5 L 206.25 95.0 L 206.25 112.5 L 206.25 146.25 L 207.5 186.25 L 220.0 220.0 L 236.25 238.75 L 250.0 247.5 L 255.0 248.75 L 255.0 248.75 L 255.0 248.75 L 252.5 241.25 L 243.75 223.75 L 228.75 202.5 L 220.0 192.5 " stroke="black" fill="none" stroke-width="6.0" stroke-linecap="round" stroke-linejoin="round" />
<path d="M 116.25 141.25 L 113.75 141.25 L 106.25 141.25 L 105.0 141.25 L 115.0 140.0 L 137.5 132.5 L 156.25 125.0 L 167.5 121.25 L 162.5 123.75 " stroke="black" fill="none" stroke-width="6.0" stroke-linecap="round" stroke-linejoin="round" />
<path d="M 112.5 161.25 L 112.5 172.5 L 122.5 191.25 L 135.0 203.75 L 142.5 207.5 L 143.75 207.5 L 140.0 206.25 L 130.0 201.25 L 118.75 197.5 L 110.0 193.75 L 106.25 190.0 L 111.25 185.0 L 132.5 173.75 L 160.0 160.0 L 182.5 152.5 L 187.5 153.75 L 177.5 168.75 L 160.0 190.0 L 143.75 205.0 L 133.75 212.5 L 132.5 207.5 " stroke="black" fill="none" stroke-width="6.0" stroke-linecap="round" stroke-linejoin="round" />
<path d="M 143.75 142.5 L 142.5 141.25 L 142.5 141.25 L 141.25 148.75 L 146.25 182.5 L 147.5 218.75 L 146.25 235.0 L 142.5 240.0 L 140.0 240.0 L 140.0 238.75 L 146.25 235.0 L 158.75 225.0 L 173.75 213.75 L 186.25 203.75 L 191.25 198.75 L 190.0 197.5 L 185.0 197.5 L 178.75 195.0 L 175.0 193.75 L 173.75 192.5 L 173.75 192.5 L 172.5 192.5 L 175.0 201.25 L 181.25 220.0 L 190.0 242.5 L 193.75 252.5 " stroke="black" fill="none" stroke-width="6.0" stroke-linecap="round" stroke-linejoin="round" />
</svg>