<svg xmlns="http://www.w3.org/2000/svg" width="300" height="300" viewBox="0 0 300 300">
<path d="M 88.75 95.0 L 86.25 95.0 L 78.75 95.0 L 77.5 95.0 L 86.25 95.0 L 112.5 92.5 L 147.5 88.75 L 181.25 86.25 L 202.5 86.25 L 210.0 88.75 L 210.0 93.75 L 210.0 103.75 L 207.5 117.5 L 206.25 130.0 L 206.25 136.25 L 206.25 136.25 L 206.25 136.25 L 202.5 138.75 L 197.5 138.75 " stroke="black" fill="none" stroke-width="6.0" stroke-linecap="round" stroke-linejoin="round" />
<path d="M 105.0 151.25 L 101.25 153.75 L 95.0 155.0 L 93.75 156.25 L 101.25 156.25 L 125.0 153.75 L 153.75 147.5 L 183.75 140.0 L 200.0 137.5 L 201.25 136.25 L 192.5 138.75 L 175.0 143.75 L 165.0 146.25 " stroke="black" fill="none" stroke-width="6.0" stroke-linecap="round" stroke-linejoin="round" />
<path d="M 105.0 157.5 L 105.0 157.5 L 101.25 157.5 L 98.75 157.5 L 97.5 165.0 L 98.75 187.5 L 103.75 218.75 L 115.0 241.25 L 133.75 251.25 L 155.0 251.25 L 177.5 248.75 L 196.25 247.5 L 208.75 247.5 L 216.25 247.5 L 221.25 246.25 L 223.75 246.25 L 223.75 246.25 L 223.75 245.0 L 223.75 245.0 L 225.0 243.75 L 227.5 240.0 L 228.75 233.75 L 228.75 211.25 L 225.0 176.25 " stroke="black" fill="none" stroke-width="6.0" stroke-linecap="round" stroke-linejoin="round" />
</svg>