<svg xmlns="http://www.w3.org/2000/svg" width="300" height="300" viewBox="0 0 300 300">
<path d="M 132.5 87.5 L 128.75 86.25 L 126.25 86.25 L 126.25 86.25 L 136.25 87.5 L 150.0 87.5 L 162.5 86.25 L 163.75 86.25 " stroke="black" fill="none" stroke-width="6.0" stroke-linecap="round" stroke-linejoin="round" />
<path d="M 93.75 135.0 L 91.25 137.5 L 90.0 143.75 L 91.25 161.25 L 98.75 197.5 L 106.25 221.25 L 110.0 230.0 L 106.25 230.0 " stroke="black" fill="none" stroke-width="6.0" stroke-linecap="round" stroke-linejoin="round" />
<path d="M 97.5 163.75 L 96.25 163.75 L 93.75 162.5 L 96.25 161.25 L 116.25 156.25 L 152.5 146.25 L 191.25 140.0 L 212.5 142.5 L 215.0 157.5 L 202.5 183.75 L 182.5 205.0 L 162.5 217.5 L 145.0 222.5 L 142.5 222.5 " stroke="black" fill="none" stroke-width="6.0" stroke-linecap="round" stroke-linejoin="round" />
<path d="M 130.0 171.25 L 130.0 170.0 L 128.75 170.0 L 128.75 180.0 L 130.0 201.25 L 133.75 220.0 L 135.0 225.0 " stroke="black" fill="none" stroke-width="6.0" stroke-linecap="round" stroke-linejoin="round" />
<path d="M 163.75 152.5 L 163.75 152.5 L 162.5 157.5 L 155.0 181.25 L 145.0 208.75 L 132.5 227.5 L 118.75 236.25 L 106.25 236.25 L 98.75 236.25 L 97.5 236.25 L 97.5 235.0 L 103.75 233.75 L 118.75 230.0 L 136.25 226.25 L 156.25 222.5 L 181.25 220.0 L 205.0 220.0 L 225.0 221.25 L 243.75 223.75 L 256.25 225.0 L 261.25 225.0 L 262.5 225.0 L 261.25 227.5 " stroke="black" fill="none" stroke-width="6.0" stroke-linecap="round" stroke-linejoin="round" />
</svg>