<svg xmlns="http://www.w3.org/2000/svg" width="300" height="300" viewBox="0 0 300 300">
<path d="M 130.0 78.75 L 130.0 78.75 L 128.75 77.5 L 128.75 76.25 L 136.25 80.0 L 146.25 86.25 L 157.5 96.25 L 168.75 105.0 L 171.25 111.25 L 168.75 112.5 " stroke="black" fill="none" stroke-width="6.0" stroke-linecap="round" stroke-linejoin="round" />
<path d="M 80.0 131.25 L 78.75 128.75 L 78.75 127.5 L 78.75 127.5 L 82.5 127.5 L 90.0 126.25 L 102.5 126.25 L 121.25 125.0 L 142.5 123.75 L 165.0 122.5 L 193.75 121.25 L 216.25 120.0 L 236.25 120.0 L 250.0 123.75 L 256.25 127.5 L 257.5 128.75 L 258.75 128.75 L 258.75 128.75 L 258.75 127.5 L 257.5 126.25 " stroke="black" fill="none" stroke-width="6.0" stroke-linecap="round" stroke-linejoin="round" />
</svg>