<svg xmlns="http://www.w3.org/2000/svg" width="300" height="300" viewBox="0 0 300 300">
<path d="M 131.25 101.25 L 127.5 101.25 L 122.5 102.5 L 121.25 102.5 L 133.75 102.5 L 155.0 96.25 L 177.5 87.5 L 188.75 81.25 L 185.0 80.0 L 176.25 85.0 " stroke="black" fill="none" stroke-width="6.0" stroke-linecap="round" stroke-linejoin="round" />
<path d="M 120.0 147.5 L 117.5 152.5 L 117.5 153.75 L 128.75 151.25 L 147.5 140.0 L 170.0 123.75 L 185.0 111.25 L 182.5 110.0 L 175.0 115.0 " stroke="black" fill="none" stroke-width="6.0" stroke-linecap="round" stroke-linejoin="round" />
<path d="M 98.75 211.25 L 95.0 220.0 L 98.75 220.0 L 123.75 207.5 L 161.25 181.25 L 201.25 151.25 L 218.75 133.75 L 221.25 125.0 L 211.25 120.0 L 195.0 120.0 L 175.0 120.0 L 155.0 115.0 L 146.25 103.75 L 145.0 91.25 L 146.25 82.5 L 148.75 77.5 L 150.0 77.5 L 155.0 87.5 L 162.5 123.75 L 168.75 180.0 L 170.0 236.25 L 170.0 263.75 L 170.0 275.0 L 167.5 278.75 L 162.5 278.75 L 156.25 271.25 L 151.25 257.5 L 150.0 253.75 " stroke="black" fill="none" stroke-width="6.0" stroke-linecap="round" stroke-linejoin="round" />
<path d="M 162.5 193.75 L 162.5 192.5 L 160.0 191.25 L 151.25 201.25 L 142.5 217.5 L 121.25 248.75 L 106.25 261.25 L 101.25 258.75 L 103.75 247.5 L 105.0 242.5 " stroke="black" fill="none" stroke-width="6.0" stroke-linecap="round" stroke-linejoin="round" />
<path d="M 157.5 186.25 L 158.75 185.0 L 163.75 182.5 L 167.5 182.5 L 171.25 182.5 L 173.75 183.75 L 176.25 185.0 L 177.5 185.0 L 177.5 186.25 L 178.75 186.25 L 178.75 186.25 L 178.75 186.25 L 178.75 186.25 L 183.75 190.0 L 196.25 198.75 L 220.0 221.25 L 247.5 247.5 L 266.25 267.5 L 275.0 278.75 L 273.75 280.0 " stroke="black" fill="none" stroke-width="6.0" stroke-linecap="round" stroke-linejoin="round" />
</svg>