<svg xmlns="http://www.w3.org/2000/svg" width="300" height="300" viewBox="0 0 300 300">
<path d="M 146.25 70.0 L 145.0 68.75 L 142.5 67.5 L 142.5 67.5 L 146.25 73.75 L 156.25 85.0 L 168.75 95.0 L 177.5 101.25 L 177.5 102.5 " stroke="black" fill="none" stroke-width="6.0" stroke-linecap="round" stroke-linejoin="round" />
<path d="M 95.0 110.0 L 93.75 111.25 L 93.75 112.5 L 105.0 112.5 L 133.75 111.25 L 172.5 105.0 L 205.0 100.0 L 218.75 96.25 L 220.0 96.25 L 212.5 97.5 L 196.25 102.5 L 178.75 105.0 " stroke="black" fill="none" stroke-width="6.0" stroke-linecap="round" stroke-linejoin="round" />
<path d="M 100.0 111.25 L 100.0 111.25 L 97.5 111.25 L 96.25 111.25 L 96.25 111.25 L 97.5 122.5 L 100.0 155.0 L 97.5 200.0 L 88.75 232.5 L 78.75 247.5 L 67.5 252.5 L 61.25 252.5 " stroke="black" fill="none" stroke-width="6.0" stroke-linecap="round" stroke-linejoin="round" />
</svg>