<svg xmlns="http://www.w3.org/2000/svg" width="300" height="300" viewBox="0 0 300 300">
<path d="M 123.75 73.75 L 122.5 71.25 L 121.25 70.0 L 125.0 70.0 L 140.0 70.0 L 156.25 70.0 L 171.25 68.75 L 175.0 71.25 L 173.75 72.5 " stroke="black" fill="none" stroke-width="6.0" stroke-linecap="round" stroke-linejoin="round" />
<path d="M 92.5 135.0 L 87.5 138.75 L 87.5 140.0 L 103.75 137.5 L 133.75 125.0 L 167.5 105.0 L 188.75 90.0 L 191.25 85.0 L 181.25 83.75 L 165.0 87.5 L 151.25 88.75 L 142.5 90.0 L 138.75 90.0 L 138.75 90.0 L 142.5 95.0 L 147.5 111.25 L 150.0 141.25 L 148.75 173.75 L 145.0 190.0 L 145.0 190.0 " stroke="black" fill="none" stroke-width="6.0" stroke-linecap="round" stroke-linejoin="round" />
<path d="M 145.0 122.5 L 143.75 122.5 L 136.25 130.0 L 122.5 155.0 L 97.5 197.5 L 77.5 227.5 L 58.75 242.5 L 47.5 241.25 L 46.25 237.5 " stroke="black" fill="none" stroke-width="6.0" stroke-linecap="round" stroke-linejoin="round" />
<path d="M 158.75 122.5 L 171.25 123.75 L 195.0 131.25 L 213.75 136.25 L 225.0 140.0 L 237.5 145.0 L 236.25 151.25 L 221.25 155.0 " stroke="black" fill="none" stroke-width="6.0" stroke-linecap="round" stroke-linejoin="round" />
<path d="M 133.75 181.25 L 132.5 180.0 L 131.25 180.0 L 131.25 188.75 L 137.5 216.25 L 145.0 242.5 L 150.0 252.5 L 152.5 250.0 L 151.25 240.0 L 150.0 228.75 L 147.5 216.25 L 145.0 203.75 L 142.5 196.25 L 138.75 192.5 L 140.0 190.0 L 151.25 186.25 L 170.0 180.0 L 191.25 178.75 L 201.25 190.0 L 201.25 207.5 L 192.5 227.5 L 182.5 242.5 L 172.5 247.5 L 165.0 247.5 " stroke="black" fill="none" stroke-width="6.0" stroke-linecap="round" stroke-linejoin="round" />
<path d="M 150.0 213.75 L 145.0 216.25 L 145.0 216.25 L 156.25 212.5 L 175.0 203.75 L 192.5 196.25 L 197.5 192.5 L 193.75 195.0 " stroke="black" fill="none" stroke-width="6.0" stroke-linecap="round" stroke-linejoin="round" />
<path d="M 156.25 245.0 L 156.25 246.25 L 153.75 250.0 L 158.75 251.25 L 173.75 245.0 L 195.0 230.0 L 203.75 220.0 " stroke="black" fill="none" stroke-width="6.0" stroke-linecap="round" stroke-linejoin="round" />
</svg>