<svg xmlns="http://www.w3.org/2000/svg" width="300" height="300" viewBox="0 0 300 300">
<path d="M 136.25 53.75 L 135.0 55.0 L 131.25 60.0 L 117.5 78.75 L 93.75 106.25 L 72.5 128.75 L 53.75 138.75 L 43.75 138.75 L 42.5 127.5 L 45.0 110.0 " stroke="black" fill="none" stroke-width="6.0" stroke-linecap="round" stroke-linejoin="round" />
<path d="M 115.0 62.5 L 120.0 61.25 L 135.0 62.5 L 157.5 73.75 L 182.5 87.5 L 201.25 97.5 L 211.25 103.75 L 238.75 111.25 L 241.25 112.5 L 238.75 113.75 " stroke="black" fill="none" stroke-width="6.0" stroke-linecap="round" stroke-linejoin="round" />
<path d="M 110.0 106.25 L 107.5 106.25 L 105.0 107.5 L 115.0 106.25 L 135.0 102.5 L 157.5 98.75 L 172.5 96.25 " stroke="black" fill="none" stroke-width="6.0" stroke-linecap="round" stroke-linejoin="round" />
<path d="M 90.0 140.0 L 88.75 140.0 L 87.5 140.0 L 86.25 141.25 L 88.75 148.75 L 93.75 160.0 L 97.5 165.0 L 98.75 165.0 L 98.75 160.0 L 95.0 153.75 L 90.0 148.75 L 88.75 145.0 L 87.5 142.5 L 96.25 141.25 L 107.5 140.0 L 117.5 140.0 L 121.25 145.0 L 112.5 153.75 L 102.5 162.5 L 96.25 167.5 L 95.0 167.5 L 106.25 158.75 L 118.75 147.5 " stroke="black" fill="none" stroke-width="6.0" stroke-linecap="round" stroke-linejoin="round" />
<path d="M 133.75 132.5 L 132.5 132.5 L 128.75 132.5 L 126.25 136.25 L 128.75 147.5 L 136.25 161.25 L 143.75 168.75 L 146.25 168.75 " stroke="black" fill="none" stroke-width="6.0" stroke-linecap="round" stroke-linejoin="round" />
<path d="M 136.25 135.0 L 136.25 133.75 L 131.25 131.25 L 131.25 131.25 L 137.5 131.25 L 148.75 131.25 L 158.75 131.25 L 163.75 135.0 L 161.25 142.5 L 152.5 152.5 L 143.75 160.0 L 141.25 162.5 L 146.25 160.0 L 158.75 150.0 L 172.5 138.75 L 180.0 128.75 L 181.25 123.75 L 177.5 123.75 L 176.25 123.75 L 176.25 131.25 L 178.75 146.25 L 183.75 158.75 L 187.5 166.25 L 190.0 162.5 L 190.0 151.25 L 186.25 141.25 L 182.5 133.75 L 180.0 127.5 L 180.0 122.5 L 185.0 120.0 L 193.75 120.0 L 200.0 123.75 L 202.5 131.25 L 197.5 141.25 L 192.5 148.75 L 190.0 150.0 L 193.75 143.75 L 206.25 123.75 L 208.75 118.75 " stroke="black" fill="none" stroke-width="6.0" stroke-linecap="round" stroke-linejoin="round" />
<path d="M 83.75 193.75 L 82.5 193.75 L 80.0 193.75 L 80.0 202.5 L 82.5 231.25 L 87.5 255.0 L 90.0 261.25 L 91.25 260.0 " stroke="black" fill="none" stroke-width="6.0" stroke-linecap="round" stroke-linejoin="round" />
<path d="M 96.25 192.5 L 96.25 192.5 L 100.0 191.25 L 125.0 187.5 L 163.75 177.5 L 196.25 170.0 L 206.25 171.25 L 207.5 183.75 L 207.5 208.75 L 207.5 238.75 L 208.75 262.5 L 211.25 273.75 L 211.25 278.75 L 211.25 280.0 L 211.25 278.75 L 210.0 277.5 L 206.25 271.25 L 198.75 262.5 L 187.5 255.0 L 183.75 253.75 " stroke="black" fill="none" stroke-width="6.0" stroke-linecap="round" stroke-linejoin="round" />
<path d="M 110.0 228.75 L 103.75 230.0 L 96.25 232.5 L 96.25 232.5 L 110.0 231.25 L 137.5 223.75 L 163.75 212.5 L 182.5 203.75 L 182.5 200.0 L 163.75 202.5 L 147.5 207.5 L 131.25 211.25 L 117.5 211.25 L 112.5 208.75 L 112.5 207.5 L 117.5 211.25 L 126.25 227.5 L 131.25 250.0 L 133.75 265.0 L 133.75 266.25 " stroke="black" fill="none" stroke-width="6.0" stroke-linecap="round" stroke-linejoin="round" />
<path d="M 151.25 197.5 L 152.5 191.25 L 152.5 188.75 L 156.25 196.25 L 157.5 233.75 L 155.0 278.75 L 153.75 290.0 " stroke="black" fill="none" stroke-width="6.0" stroke-linecap="round" stroke-linejoin="round" />
</svg>