<svg xmlns="http://www.w3.org/2000/svg" width="300" height="300" viewBox="0 0 300 300">
<path d="M 117.5 93.75 L 115.0 95.0 L 112.5 95.0 L 121.25 95.0 L 140.0 90.0 L 157.5 85.0 L 168.75 81.25 L 168.75 80.0 L 158.75 85.0 L 146.25 95.0 L 135.0 106.25 L 123.75 118.75 L 116.25 127.5 L 116.25 128.75 L 116.25 128.75 L 117.5 128.75 L 120.0 130.0 L 122.5 141.25 L 126.25 165.0 L 131.25 196.25 L 136.25 213.75 L 140.0 218.75 L 141.25 217.5 L 141.25 211.25 L 140.0 201.25 L 138.75 197.5 " stroke="black" fill="none" stroke-width="6.0" stroke-linecap="round" stroke-linejoin="round" />
<path d="M 120.0 145.0 L 115.0 145.0 L 112.5 143.75 L 118.75 141.25 L 141.25 132.5 L 170.0 122.5 L 195.0 118.75 L 202.5 133.75 L 197.5 162.5 L 183.75 192.5 L 171.25 208.75 L 165.0 213.75 L 161.25 207.5 " stroke="black" fill="none" stroke-width="6.0" stroke-linecap="round" stroke-linejoin="round" />
<path d="M 150.0 137.5 L 150.0 136.25 L 148.75 135.0 L 148.75 135.0 L 151.25 146.25 L 155.0 171.25 L 155.0 196.25 L 151.25 208.75 L 145.0 208.75 L 141.25 208.75 L 140.0 207.5 L 143.75 205.0 L 155.0 197.5 L 171.25 190.0 L 186.25 182.5 L 193.75 178.75 L 192.5 180.0 L 181.25 191.25 L 166.25 210.0 L 150.0 233.75 L 136.25 253.75 L 127.5 260.0 L 126.25 260.0 " stroke="black" fill="none" stroke-width="6.0" stroke-linecap="round" stroke-linejoin="round" />
<path d="M 166.25 207.5 L 166.25 207.5 L 166.25 207.5 L 165.0 207.5 L 165.0 207.5 L 168.75 210.0 L 176.25 213.75 L 185.0 218.75 L 192.5 223.75 L 201.25 235.0 L 211.25 251.25 L 220.0 270.0 " stroke="black" fill="none" stroke-width="6.0" stroke-linecap="round" stroke-linejoin="round" />
</svg>