<svg xmlns="http://www.w3.org/2000/svg" width="300" height="300" viewBox="0 0 300 300">
<path d="M 128.75 60.0 L 128.75 60.0 L 127.5 60.0 L 127.5 60.0 L 135.0 65.0 L 146.25 72.5 L 156.25 77.5 L 157.5 80.0 L 153.75 81.25 " stroke="black" fill="none" stroke-width="6.0" stroke-linecap="round" stroke-linejoin="round" />
<path d="M 88.75 102.5 L 85.0 103.75 L 81.25 106.25 L 88.75 106.25 L 111.25 101.25 L 143.75 88.75 L 175.0 72.5 L 190.0 63.75 L 187.5 61.25 L 173.75 66.25 L 161.25 72.5 L 148.75 80.0 L 140.0 87.5 L 137.5 100.0 L 137.5 120.0 L 140.0 133.75 L 140.0 133.75 " stroke="black" fill="none" stroke-width="6.0" stroke-linecap="round" stroke-linejoin="round" />
<path d="M 158.75 78.75 L 160.0 75.0 L 162.5 75.0 L 162.5 83.75 L 158.75 101.25 L 148.75 122.5 L 132.5 140.0 L 107.5 152.5 L 87.5 160.0 L 80.0 165.0 L 82.5 165.0 L 102.5 160.0 L 136.25 146.25 L 172.5 128.75 L 201.25 111.25 L 208.75 102.5 L 201.25 103.75 L 186.25 112.5 L 168.75 123.75 L 152.5 137.5 L 145.0 160.0 L 145.0 197.5 L 150.0 230.0 L 153.75 243.75 L 155.0 246.25 L 153.75 243.75 L 150.0 237.5 L 146.25 230.0 " stroke="black" fill="none" stroke-width="6.0" stroke-linecap="round" stroke-linejoin="round" />
<path d="M 138.75 168.75 L 138.75 167.5 L 141.25 163.75 L 147.5 158.75 L 162.5 156.25 L 182.5 160.0 L 197.5 176.25 L 202.5 200.0 L 195.0 220.0 L 185.0 235.0 L 171.25 241.25 L 158.75 241.25 " stroke="black" fill="none" stroke-width="6.0" stroke-linecap="round" stroke-linejoin="round" />
<path d="M 152.5 195.0 L 152.5 193.75 L 152.5 192.5 L 153.75 192.5 L 166.25 188.75 L 186.25 182.5 L 200.0 176.25 L 200.0 176.25 " stroke="black" fill="none" stroke-width="6.0" stroke-linecap="round" stroke-linejoin="round" />
<path d="M 156.25 230.0 L 153.75 238.75 L 155.0 241.25 L 168.75 238.75 L 188.75 222.5 L 203.75 203.75 " stroke="black" fill="none" stroke-width="6.0" stroke-linecap="round" stroke-linejoin="round" />
</svg>