<svg xmlns="http://www.w3.org/2000/svg" width="300" height="300" viewBox="0 0 300 300">
<path d="M 121.25 113.75 L 110.0 115.0 L 106.25 116.25 L 111.25 116.25 L 131.25 108.75 L 153.75 100.0 L 175.0 90.0 L 183.75 83.75 L 183.75 83.75 " stroke="black" fill="none" stroke-width="6.0" stroke-linecap="round" stroke-linejoin="round" />
<path d="M 107.5 173.75 L 107.5 175.0 L 107.5 177.5 L 116.25 175.0 L 136.25 162.5 L 156.25 147.5 L 168.75 137.5 L 167.5 135.0 L 161.25 137.5 " stroke="black" fill="none" stroke-width="6.0" stroke-linecap="round" stroke-linejoin="round" />
<path d="M 105.0 211.25 L 101.25 217.5 L 105.0 220.0 L 125.0 213.75 L 153.75 195.0 L 185.0 170.0 L 200.0 152.5 L 196.25 145.0 " stroke="black" fill="none" stroke-width="6.0" stroke-linecap="round" stroke-linejoin="round" />
<path d="M 137.5 116.25 L 137.5 116.25 L 137.5 116.25 L 138.75 128.75 L 143.75 167.5 L 151.25 212.5 L 162.5 233.75 L 182.5 243.75 L 203.75 246.25 L 228.75 245.0 L 260.0 232.5 L 260.0 230.0 L 260.0 225.0 L 256.25 216.25 L 253.75 203.75 L 251.25 185.0 L 246.25 151.25 L 243.75 142.5 " stroke="black" fill="none" stroke-width="6.0" stroke-linecap="round" stroke-linejoin="round" />
</svg>