<svg xmlns="http://www.w3.org/2000/svg" width="300" height="300" viewBox="0 0 300 300">
<path d="M 125.0 103.75 L 120.0 105.0 L 112.5 106.25 L 112.5 106.25 L 127.5 105.0 L 152.5 101.25 L 180.0 97.5 L 198.75 97.5 L 202.5 101.25 L 188.75 113.75 L 168.75 126.25 L 150.0 133.75 L 132.5 136.25 L 117.5 132.5 " stroke="black" fill="none" stroke-width="6.0" stroke-linecap="round" stroke-linejoin="round" />
<path d="M 106.25 108.75 L 106.25 108.75 L 106.25 106.25 L 106.25 111.25 L 106.25 145.0 L 106.25 196.25 L 103.75 231.25 L 101.25 242.5 " stroke="black" fill="none" stroke-width="6.0" stroke-linecap="round" stroke-linejoin="round" />
<path d="M 141.25 55.0 L 142.5 48.75 L 145.0 50.0 L 146.25 81.25 L 143.75 127.5 L 138.75 168.75 L 136.25 190.0 L 135.0 192.5 L 135.0 190.0 L 135.0 190.0 L 136.25 188.75 L 142.5 186.25 L 153.75 178.75 L 171.25 165.0 L 186.25 153.75 L 191.25 151.25 L 190.0 156.25 L 178.75 178.75 L 162.5 203.75 L 146.25 230.0 L 133.75 248.75 L 126.25 251.25 L 122.5 250.0 L 121.25 248.75 " stroke="black" fill="none" stroke-width="6.0" stroke-linecap="round" stroke-linejoin="round" />
<path d="M 133.75 201.25 L 131.25 200.0 L 128.75 200.0 L 128.75 200.0 L 127.5 200.0 L 127.5 200.0 L 128.75 200.0 L 128.75 200.0 L 128.75 200.0 L 130.0 200.0 L 130.0 201.25 L 130.0 201.25 L 130.0 201.25 L 130.0 201.25 L 130.0 201.25 L 131.25 201.25 L 136.25 205.0 L 152.5 221.25 L 185.0 248.75 L 218.75 267.5 L 252.5 277.5 L 268.75 278.75 L 270.0 278.75 " stroke="black" fill="none" stroke-width="6.0" stroke-linecap="round" stroke-linejoin="round" />
</svg>