<svg xmlns="http://www.w3.org/2000/svg" width="300" height="300" viewBox="0 0 300 300">
<path d="M 113.75 90.0 L 113.75 88.75 L 112.5 85.0 L 112.5 82.5 L 116.25 82.5 L 123.75 98.75 L 128.75 143.75 L 123.75 201.25 L 115.0 235.0 L 103.75 250.0 L 101.25 250.0 " stroke="black" fill="none" stroke-width="6.0" stroke-linecap="round" stroke-linejoin="round" />
<path d="M 80.0 152.5 L 80.0 152.5 L 80.0 152.5 L 81.25 152.5 L 92.5 150.0 L 112.5 141.25 L 126.25 136.25 L 126.25 135.0 " stroke="black" fill="none" stroke-width="6.0" stroke-linecap="round" stroke-linejoin="round" />
<path d="M 85.0 185.0 L 85.0 185.0 L 82.5 187.5 L 82.5 186.25 L 93.75 177.5 L 110.0 165.0 L 120.0 158.75 L 120.0 158.75 " stroke="black" fill="none" stroke-width="6.0" stroke-linecap="round" stroke-linejoin="round" />
<path d="M 88.75 220.0 L 87.5 222.5 L 83.75 227.5 L 93.75 217.5 L 117.5 193.75 L 151.25 150.0 L 181.25 107.5 L 196.25 82.5 L 198.75 71.25 L 198.75 66.25 L 196.25 68.75 L 192.5 81.25 L 191.25 115.0 L 193.75 168.75 L 198.75 228.75 L 203.75 257.5 L 206.25 262.5 L 206.25 262.5 L 205.0 256.25 L 198.75 243.75 L 190.0 226.25 " stroke="black" fill="none" stroke-width="6.0" stroke-linecap="round" stroke-linejoin="round" />
<path d="M 185.0 131.25 L 183.75 131.25 L 180.0 131.25 L 180.0 131.25 L 191.25 127.5 L 208.75 120.0 L 223.75 111.25 L 230.0 106.25 L 226.25 106.25 " stroke="black" fill="none" stroke-width="6.0" stroke-linecap="round" stroke-linejoin="round" />
<path d="M 196.25 160.0 L 195.0 162.5 L 195.0 163.75 L 202.5 162.5 L 216.25 155.0 L 228.75 145.0 L 233.75 140.0 L 232.5 140.0 " stroke="black" fill="none" stroke-width="6.0" stroke-linecap="round" stroke-linejoin="round" />
<path d="M 205.0 190.0 L 205.0 192.5 L 205.0 196.25 L 210.0 196.25 L 227.5 187.5 L 247.5 170.0 L 251.25 166.25 " stroke="black" fill="none" stroke-width="6.0" stroke-linecap="round" stroke-linejoin="round" />
</svg>