<svg xmlns="http://www.w3.org/2000/svg" width="300" height="300" viewBox="0 0 300 300">
<path d="M 133.75 61.25 L 133.75 61.25 L 133.75 60.0 L 133.75 62.5 L 127.5 77.5 L 120.0 96.25 L 117.5 106.25 L 122.5 106.25 L 136.25 100.0 L 152.5 92.5 L 166.25 90.0 L 173.75 90.0 L 173.75 95.0 L 163.75 107.5 L 150.0 122.5 L 136.25 135.0 L 121.25 145.0 L 110.0 152.5 L 108.75 153.75 L 117.5 152.5 L 137.5 147.5 L 158.75 141.25 L 180.0 136.25 L 195.0 135.0 L 196.25 141.25 L 182.5 155.0 L 166.25 168.75 L 151.25 180.0 L 142.5 183.75 " stroke="black" fill="none" stroke-width="6.0" stroke-linecap="round" stroke-linejoin="round" />
<path d="M 147.5 143.75 L 147.5 143.75 L 146.25 143.75 L 145.0 146.25 L 142.5 157.5 L 140.0 176.25 L 133.75 191.25 L 131.25 192.5 " stroke="black" fill="none" stroke-width="6.0" stroke-linecap="round" stroke-linejoin="round" />
<path d="M 131.25 185.0 L 131.25 185.0 L 130.0 183.75 L 128.75 182.5 L 135.0 182.5 L 145.0 178.75 L 157.5 171.25 L 161.25 165.0 " stroke="black" fill="none" stroke-width="6.0" stroke-linecap="round" stroke-linejoin="round" />
<path d="M 115.0 145.0 L 113.75 146.25 L 108.75 155.0 L 106.25 178.75 L 106.25 208.75 L 110.0 235.0 L 122.5 248.75 L 140.0 251.25 L 161.25 251.25 L 187.5 251.25 L 206.25 248.75 L 216.25 247.5 L 220.0 247.5 L 220.0 246.25 L 218.75 246.25 L 218.75 245.0 L 220.0 241.25 L 221.25 238.75 L 221.25 236.25 L 221.25 232.5 L 222.5 220.0 L 223.75 185.0 L 223.75 171.25 " stroke="black" fill="none" stroke-width="6.0" stroke-linecap="round" stroke-linejoin="round" />
</svg>