<svg xmlns="http://www.w3.org/2000/svg" width="300" height="300" viewBox="0 0 300 300">
<path d="M 92.5 108.75 L 91.25 108.75 L 91.25 108.75 L 96.25 116.25 L 107.5 132.5 L 120.0 145.0 " stroke="black" fill="none" stroke-width="6.0" stroke-linecap="round" stroke-linejoin="round" />
<path d="M 197.5 71.25 L 198.75 71.25 L 198.75 71.25 L 197.5 81.25 L 182.5 105.0 L 160.0 135.0 L 137.5 156.25 L 110.0 176.25 L 90.0 195.0 L 86.25 201.25 L 98.75 200.0 L 130.0 185.0 L 170.0 161.25 L 210.0 136.25 L 226.25 125.0 L 226.25 122.5 L 208.75 122.5 L 205.0 122.5 " stroke="black" fill="none" stroke-width="6.0" stroke-linecap="round" stroke-linejoin="round" />
<path d="M 151.25 85.0 L 151.25 80.0 L 150.0 75.0 L 151.25 73.75 L 155.0 85.0 L 160.0 128.75 L 161.25 193.75 L 161.25 242.5 L 161.25 260.0 L 158.75 265.0 L 155.0 265.0 L 148.75 263.75 L 142.5 255.0 L 140.0 242.5 " stroke="black" fill="none" stroke-width="6.0" stroke-linecap="round" stroke-linejoin="round" />
<path d="M 168.75 166.25 L 168.75 166.25 L 166.25 168.75 L 153.75 190.0 L 132.5 221.25 L 108.75 246.25 L 93.75 255.0 L 88.75 251.25 L 91.25 238.75 L 93.75 235.0 " stroke="black" fill="none" stroke-width="6.0" stroke-linecap="round" stroke-linejoin="round" />
<path d="M 151.25 183.75 L 160.0 181.25 L 177.5 187.5 L 201.25 202.5 L 222.5 218.75 L 246.25 235.0 L 261.25 246.25 L 270.0 253.75 L 270.0 256.25 L 267.5 256.25 " stroke="black" fill="none" stroke-width="6.0" stroke-linecap="round" stroke-linejoin="round" />
</svg>