<svg xmlns="http://www.w3.org/2000/svg" width="300" height="300" viewBox="0 0 300 300">
<path d="M 133.75 68.75 L 132.5 68.75 L 127.5 67.5 L 127.5 67.5 L 132.5 67.5 L 145.0 71.25 L 157.5 75.0 L 166.25 78.75 L 166.25 78.75 " stroke="black" fill="none" stroke-width="6.0" stroke-linecap="round" stroke-linejoin="round" />
<path d="M 86.25 93.75 L 82.5 93.75 L 77.5 95.0 L 82.5 97.5 L 102.5 98.75 L 137.5 96.25 L 178.75 83.75 L 207.5 71.25 L 212.5 65.0 L 206.25 65.0 L 190.0 73.75 L 180.0 78.75 " stroke="black" fill="none" stroke-width="6.0" stroke-linecap="round" stroke-linejoin="round" />
<path d="M 83.75 123.75 L 81.25 125.0 L 76.25 128.75 L 75.0 128.75 L 77.5 130.0 L 88.75 128.75 L 102.5 125.0 L 115.0 122.5 L 123.75 126.25 L 120.0 140.0 L 105.0 160.0 L 90.0 176.25 L 80.0 180.0 L 77.5 177.5 " stroke="black" fill="none" stroke-width="6.0" stroke-linecap="round" stroke-linejoin="round" />
<path d="M 88.75 132.5 L 88.75 132.5 L 87.5 132.5 L 85.0 137.5 L 81.25 152.5 L 77.5 183.75 L 77.5 190.0 " stroke="black" fill="none" stroke-width="6.0" stroke-linecap="round" stroke-linejoin="round" />
<path d="M 128.75 107.5 L 128.75 107.5 L 128.75 107.5 L 132.5 117.5 L 141.25 132.5 L 151.25 138.75 L 152.5 138.75 " stroke="black" fill="none" stroke-width="6.0" stroke-linecap="round" stroke-linejoin="round" />
<path d="M 173.75 98.75 L 171.25 97.5 L 167.5 97.5 L 160.0 105.0 L 152.5 118.75 L 147.5 128.75 L 146.25 128.75 L 146.25 127.5 L 147.5 126.25 L 148.75 128.75 L 148.75 141.25 L 148.75 158.75 L 148.75 173.75 L 150.0 178.75 " stroke="black" fill="none" stroke-width="6.0" stroke-linecap="round" stroke-linejoin="round" />
<path d="M 201.25 93.75 L 200.0 93.75 L 196.25 95.0 L 191.25 101.25 L 185.0 111.25 L 182.5 117.5 L 181.25 118.75 L 181.25 118.75 L 182.5 120.0 L 183.75 128.75 L 183.75 140.0 L 185.0 152.5 L 186.25 158.75 L 188.75 160.0 L 192.5 158.75 L 195.0 155.0 L 198.75 148.75 L 201.25 143.75 L 202.5 137.5 L 202.5 132.5 L 200.0 127.5 L 196.25 123.75 L 191.25 120.0 L 188.75 118.75 L 187.5 118.75 L 192.5 118.75 L 205.0 117.5 L 223.75 112.5 L 241.25 107.5 L 252.5 105.0 L 251.25 105.0 " stroke="black" fill="none" stroke-width="6.0" stroke-linecap="round" stroke-linejoin="round" />
<path d="M 133.75 190.0 L 130.0 188.75 L 127.5 188.75 L 127.5 192.5 L 126.25 212.5 L 122.5 241.25 L 117.5 257.5 L 112.5 260.0 L 108.75 252.5 L 108.75 248.75 " stroke="black" fill="none" stroke-width="6.0" stroke-linecap="round" stroke-linejoin="round" />
<path d="M 173.75 175.0 L 177.5 175.0 L 182.5 173.75 L 190.0 175.0 L 196.25 182.5 L 200.0 203.75 L 202.5 236.25 L 202.5 262.5 L 202.5 271.25 L 202.5 273.75 L 198.75 273.75 L 191.25 267.5 " stroke="black" fill="none" stroke-width="6.0" stroke-linecap="round" stroke-linejoin="round" />
<path d="M 147.5 213.75 L 146.25 215.0 L 141.25 216.25 L 140.0 216.25 L 143.75 216.25 L 160.0 212.5 L 178.75 205.0 L 192.5 197.5 L 193.75 197.5 " stroke="black" fill="none" stroke-width="6.0" stroke-linecap="round" stroke-linejoin="round" />
<path d="M 148.75 242.5 L 147.5 243.75 L 146.25 245.0 L 153.75 243.75 L 178.75 235.0 L 198.75 222.5 " stroke="black" fill="none" stroke-width="6.0" stroke-linecap="round" stroke-linejoin="round" />
</svg>