<svg xmlns="http://www.w3.org/2000/svg" width="300" height="300" viewBox="0 0 300 300">
<path d="M 157.5 82.5 L 157.5 82.5 L 157.5 81.25 L 157.5 80.0 L 157.5 80.0 L 157.5 80.0 L 157.5 85.0 L 157.5 92.5 L 158.75 106.25 L 161.25 127.5 L 165.0 150.0 L 165.0 168.75 L 165.0 187.5 L 165.0 200.0 L 165.0 211.25 L 163.75 221.25 L 162.5 227.5 L 160.0 235.0 L 157.5 241.25 L 155.0 248.75 L 151.25 253.75 L 148.75 257.5 L 146.25 258.75 L 142.5 260.0 L 137.5 260.0 L 131.25 258.75 L 125.0 256.25 L 117.5 253.75 L 111.25 252.5 L 107.5 250.0 L 105.0 248.75 L 105.0 247.5 " stroke="black" fill="none" stroke-width="6.0" stroke-linecap="round" stroke-linejoin="round" />
</svg>