<svg xmlns="http://www.w3.org/2000/svg" width="300" height="300" viewBox="0 0 300 300">
<path d="M 157.5 80.0 L 152.5 82.5 L 140.0 98.75 L 118.75 131.25 L 95.0 162.5 L 78.75 182.5 L 70.0 185.0 L 68.75 177.5 " stroke="black" fill="none" stroke-width="6.0" stroke-linecap="round" stroke-linejoin="round" />
<path d="M 136.25 97.5 L 143.75 97.5 L 163.75 108.75 L 190.0 131.25 L 206.25 146.25 L 218.75 155.0 L 225.0 160.0 L 221.25 162.5 L 207.5 163.75 " stroke="black" fill="none" stroke-width="6.0" stroke-linecap="round" stroke-linejoin="round" />
<path d="M 128.75 162.5 L 125.0 162.5 L 122.5 162.5 L 128.75 161.25 L 138.75 158.75 L 156.25 152.5 L 165.0 150.0 L 165.0 150.0 " stroke="black" fill="none" stroke-width="6.0" stroke-linecap="round" stroke-linejoin="round" />
<path d="M 116.25 203.75 L 113.75 206.25 L 112.5 208.75 L 126.25 207.5 L 151.25 193.75 L 176.25 176.25 L 185.0 167.5 L 175.0 168.75 " stroke="black" fill="none" stroke-width="6.0" stroke-linecap="round" stroke-linejoin="round" />
<path d="M 148.75 175.0 L 147.5 172.5 L 146.25 173.75 L 148.75 191.25 L 151.25 226.25 L 152.5 255.0 L 147.5 266.25 L 138.75 262.5 L 136.25 260.0 " stroke="black" fill="none" stroke-width="6.0" stroke-linecap="round" stroke-linejoin="round" />
<path d="M 120.0 217.5 L 116.25 211.25 L 116.25 210.0 L 120.0 216.25 L 130.0 235.0 L 140.0 253.75 L 150.0 260.0 L 158.75 247.5 L 171.25 222.5 L 186.25 202.5 L 192.5 195.0 L 190.0 197.5 L 178.75 216.25 L 162.5 241.25 L 145.0 266.25 L 133.75 278.75 L 135.0 280.0 L 150.0 276.25 L 172.5 268.75 L 198.75 261.25 L 217.5 255.0 L 223.75 251.25 L 223.75 251.25 L 221.25 251.25 L 220.0 252.5 L 218.75 252.5 L 217.5 252.5 " stroke="black" fill="none" stroke-width="6.0" stroke-linecap="round" stroke-linejoin="round" />
</svg>