<svg xmlns="http://www.w3.org/2000/svg" width="300" height="300" viewBox="0 0 300 300">
<path d="M 103.75 98.75 L 103.75 97.5 L 103.75 97.5 L 103.75 105.0 L 103.75 150.0 L 106.25 198.75 L 110.0 220.0 L 110.0 226.25 L 108.75 226.25 " stroke="black" fill="none" stroke-width="6.0" stroke-linecap="round" stroke-linejoin="round" />
<path d="M 105.0 96.25 L 106.25 90.0 L 111.25 85.0 L 127.5 78.75 L 150.0 75.0 L 176.25 75.0 L 200.0 81.25 L 210.0 97.5 L 212.5 136.25 L 211.25 177.5 L 210.0 215.0 L 210.0 237.5 L 211.25 243.75 L 211.25 243.75 L 210.0 240.0 L 203.75 230.0 L 193.75 215.0 L 178.75 197.5 L 158.75 182.5 L 153.75 178.75 " stroke="black" fill="none" stroke-width="6.0" stroke-linecap="round" stroke-linejoin="round" />
<path d="M 118.75 156.25 L 115.0 157.5 L 110.0 158.75 L 108.75 158.75 L 122.5 155.0 L 142.5 147.5 L 165.0 136.25 L 183.75 126.25 L 183.75 125.0 " stroke="black" fill="none" stroke-width="6.0" stroke-linecap="round" stroke-linejoin="round" />
<path d="M 130.0 186.25 L 130.0 186.25 L 127.5 188.75 L 128.75 190.0 L 142.5 181.25 L 163.75 166.25 L 181.25 153.75 L 181.25 153.75 " stroke="black" fill="none" stroke-width="6.0" stroke-linecap="round" stroke-linejoin="round" />
<path d="M 131.25 232.5 L 131.25 235.0 L 131.25 237.5 L 142.5 236.25 L 165.0 222.5 L 192.5 206.25 L 197.5 203.75 " stroke="black" fill="none" stroke-width="6.0" stroke-linecap="round" stroke-linejoin="round" />
</svg>