<svg xmlns="http://www.w3.org/2000/svg" width="300" height="300" viewBox="0 0 300 300">
<path d="M 96.25 103.75 L 92.5 97.5 L 90.0 93.75 L 90.0 92.5 L 90.0 92.5 L 90.0 108.75 L 90.0 142.5 L 90.0 187.5 L 90.0 218.75 L 91.25 226.25 L 91.25 226.25 L 91.25 222.5 L 91.25 210.0 L 90.0 196.25 L 90.0 186.25 " stroke="black" fill="none" stroke-width="6.0" stroke-linecap="round" stroke-linejoin="round" />
<path d="M 90.0 102.5 L 88.75 102.5 L 88.75 101.25 L 97.5 98.75 L 126.25 93.75 L 162.5 90.0 L 192.5 90.0 L 211.25 91.25 L 222.5 95.0 L 230.0 101.25 L 233.75 110.0 L 236.25 128.75 L 237.5 151.25 L 237.5 178.75 L 237.5 200.0 L 237.5 208.75 L 237.5 215.0 L 237.5 221.25 L 237.5 226.25 L 237.5 230.0 L 237.5 230.0 L 237.5 230.0 L 236.25 230.0 L 235.0 226.25 L 228.75 220.0 " stroke="black" fill="none" stroke-width="6.0" stroke-linecap="round" stroke-linejoin="round" />
<path d="M 111.25 216.25 L 103.75 218.75 L 98.75 221.25 L 97.5 221.25 L 106.25 222.5 L 127.5 222.5 L 153.75 221.25 L 182.5 221.25 L 210.0 221.25 L 228.75 222.5 L 237.5 223.75 L 240.0 225.0 L 240.0 225.0 L 238.75 225.0 L 236.25 223.75 " stroke="black" fill="none" stroke-width="6.0" stroke-linecap="round" stroke-linejoin="round" />
</svg>