<svg xmlns="http://www.w3.org/2000/svg" width="300" height="300" viewBox="0 0 300 300">
<path d="M 120.0 100.0 L 120.0 101.25 L 118.75 101.25 L 117.5 102.5 L 127.5 102.5 L 145.0 98.75 L 160.0 91.25 L 166.25 86.25 L 166.25 86.25 " stroke="black" fill="none" stroke-width="6.0" stroke-linecap="round" stroke-linejoin="round" />
<path d="M 87.5 181.25 L 85.0 185.0 L 85.0 186.25 L 103.75 180.0 L 143.75 157.5 L 188.75 135.0 L 212.5 118.75 L 217.5 108.75 L 211.25 106.25 L 197.5 106.25 L 178.75 108.75 L 160.0 108.75 L 147.5 110.0 L 145.0 112.5 L 146.25 112.5 L 150.0 112.5 L 153.75 116.25 L 160.0 132.5 L 163.75 175.0 L 163.75 223.75 L 161.25 250.0 L 160.0 255.0 L 156.25 256.25 L 150.0 255.0 L 145.0 246.25 L 143.75 243.75 " stroke="black" fill="none" stroke-width="6.0" stroke-linecap="round" stroke-linejoin="round" />
<path d="M 162.5 157.5 L 162.5 157.5 L 162.5 156.25 L 157.5 167.5 L 141.25 197.5 L 117.5 230.0 L 97.5 246.25 L 87.5 248.75 L 85.0 237.5 " stroke="black" fill="none" stroke-width="6.0" stroke-linecap="round" stroke-linejoin="round" />
<path d="M 150.0 171.25 L 151.25 171.25 L 158.75 171.25 L 172.5 177.5 L 193.75 190.0 L 216.25 203.75 L 237.5 212.5 L 253.75 220.0 L 258.75 226.25 L 260.0 233.75 L 260.0 235.0 " stroke="black" fill="none" stroke-width="6.0" stroke-linecap="round" stroke-linejoin="round" />
</svg>