<svg xmlns="http://www.w3.org/2000/svg" width="300" height="300" viewBox="0 0 300 300">
<path d="M 66.25 138.75 L 58.75 138.75 L 55.0 138.75 L 57.5 138.75 L 77.5 141.25 L 111.25 142.5 L 158.75 136.25 L 196.25 126.25 L 206.25 120.0 L 206.25 118.75 L 197.5 116.25 L 191.25 115.0 " stroke="black" fill="none" stroke-width="6.0" stroke-linecap="round" stroke-linejoin="round" />
<path d="M 140.0 85.0 L 137.5 83.75 L 136.25 83.75 L 140.0 91.25 L 155.0 131.25 L 185.0 191.25 L 208.75 220.0 L 227.5 238.75 L 242.5 247.5 L 250.0 248.75 L 251.25 248.75 L 251.25 248.75 L 248.75 240.0 L 243.75 222.5 L 238.75 197.5 L 228.75 166.25 L 220.0 151.25 " stroke="black" fill="none" stroke-width="6.0" stroke-linecap="round" stroke-linejoin="round" />
<path d="M 185.0 83.75 L 181.25 82.5 L 180.0 81.25 L 183.75 82.5 L 196.25 90.0 L 208.75 102.5 " stroke="black" fill="none" stroke-width="6.0" stroke-linecap="round" stroke-linejoin="round" />
</svg>