<svg xmlns="http://www.w3.org/2000/svg" width="300" height="300" viewBox="0 0 300 300">
<path d="M 126.25 62.5 L 126.25 58.75 L 126.25 52.5 L 128.75 50.0 L 132.5 51.25 L 135.0 65.0 L 135.0 82.5 L 133.75 92.5 L 135.0 95.0 L 146.25 87.5 L 161.25 77.5 L 172.5 72.5 L 173.75 75.0 L 161.25 90.0 L 145.0 110.0 L 127.5 130.0 L 111.25 138.75 L 107.5 140.0 " stroke="black" fill="none" stroke-width="6.0" stroke-linecap="round" stroke-linejoin="round" />
<path d="M 103.75 123.75 L 105.0 123.75 L 105.0 122.5 L 103.75 125.0 L 103.75 150.0 L 101.25 191.25 L 101.25 215.0 L 101.25 221.25 L 98.75 217.5 " stroke="black" fill="none" stroke-width="6.0" stroke-linecap="round" stroke-linejoin="round" />
<path d="M 103.75 145.0 L 103.75 142.5 L 103.75 140.0 L 110.0 137.5 L 128.75 133.75 L 156.25 123.75 L 180.0 112.5 L 193.75 108.75 L 197.5 116.25 L 198.75 140.0 L 198.75 177.5 L 200.0 225.0 L 202.5 253.75 L 203.75 263.75 L 203.75 265.0 L 203.75 265.0 L 198.75 261.25 L 190.0 253.75 L 177.5 240.0 L 160.0 221.25 L 150.0 208.75 " stroke="black" fill="none" stroke-width="6.0" stroke-linecap="round" stroke-linejoin="round" />
<path d="M 120.0 183.75 L 111.25 183.75 L 108.75 183.75 L 111.25 183.75 L 126.25 177.5 L 145.0 167.5 L 156.25 158.75 L 157.5 153.75 " stroke="black" fill="none" stroke-width="6.0" stroke-linecap="round" stroke-linejoin="round" />
<path d="M 132.5 152.5 L 131.25 152.5 L 130.0 151.25 L 132.5 155.0 L 140.0 175.0 L 142.5 198.75 L 138.75 212.5 L 130.0 215.0 L 121.25 215.0 L 120.0 213.75 L 123.75 212.5 L 138.75 210.0 L 158.75 205.0 L 182.5 196.25 L 191.25 191.25 " stroke="black" fill="none" stroke-width="6.0" stroke-linecap="round" stroke-linejoin="round" />
</svg>