<svg xmlns="http://www.w3.org/2000/svg" width="300" height="300" viewBox="0 0 300 300">
<path d="M 93.75 92.5 L 90.0 93.75 L 87.5 93.75 L 85.0 95.0 L 86.25 96.25 L 97.5 98.75 L 117.5 102.5 L 140.0 102.5 L 161.25 102.5 L 181.25 98.75 L 195.0 97.5 L 201.25 97.5 L 202.5 97.5 L 202.5 97.5 L 201.25 97.5 L 196.25 101.25 L 187.5 107.5 L 176.25 117.5 L 160.0 132.5 L 141.25 151.25 L 122.5 170.0 L 105.0 190.0 L 95.0 203.75 L 91.25 211.25 L 91.25 217.5 L 92.5 222.5 L 96.25 227.5 L 98.75 231.25 L 103.75 236.25 L 112.5 238.75 L 125.0 238.75 L 142.5 236.25 L 158.75 235.0 L 181.25 235.0 L 203.75 233.75 L 216.25 233.75 L 225.0 235.0 L 236.25 235.0 L 238.75 235.0 L 240.0 232.5 L 241.25 228.75 L 241.25 222.5 L 241.25 211.25 L 236.25 195.0 L 230.0 173.75 L 225.0 163.75 " stroke="black" fill="none" stroke-width="6.0" stroke-linecap="round" stroke-linejoin="round" />
</svg>