<svg xmlns="http://www.w3.org/2000/svg" width="300" height="300" viewBox="0 0 300 300">
<path d="M 96.25 110.0 L 95.0 108.75 L 95.0 107.5 L 93.75 107.5 L 96.25 120.0 L 100.0 156.25 L 100.0 207.5 L 96.25 236.25 L 92.5 242.5 L 88.75 238.75 L 87.5 231.25 " stroke="black" fill="none" stroke-width="6.0" stroke-linecap="round" stroke-linejoin="round" />
<path d="M 98.75 106.25 L 98.75 106.25 L 98.75 106.25 L 100.0 106.25 L 107.5 106.25 L 136.25 103.75 L 170.0 98.75 L 198.75 96.25 L 212.5 96.25 L 218.75 97.5 L 223.75 102.5 L 227.5 115.0 L 228.75 132.5 L 230.0 156.25 L 230.0 185.0 L 230.0 205.0 L 230.0 225.0 L 231.25 240.0 L 231.25 250.0 L 231.25 256.25 L 230.0 261.25 L 228.75 261.25 L 225.0 261.25 L 220.0 258.75 L 213.75 253.75 L 206.25 247.5 L 196.25 238.75 " stroke="black" fill="none" stroke-width="6.0" stroke-linecap="round" stroke-linejoin="round" />
</svg>