<svg xmlns="http://www.w3.org/2000/svg" width="300" height="300" viewBox="0 0 300 300">
<path d="M 70.0 96.25 L 67.5 97.5 L 61.25 98.75 L 66.25 97.5 L 82.5 91.25 L 102.5 82.5 L 122.5 70.0 L 127.5 65.0 L 122.5 63.75 L 108.75 63.75 L 96.25 66.25 L 86.25 67.5 L 82.5 70.0 L 85.0 73.75 L 92.5 81.25 L 101.25 90.0 L 107.5 97.5 L 107.5 106.25 L 97.5 115.0 L 83.75 123.75 L 66.25 132.5 L 56.25 138.75 L 58.75 140.0 L 76.25 136.25 L 87.5 131.25 L 123.75 106.25 L 142.5 93.75 L 142.5 92.5 " stroke="black" fill="none" stroke-width="6.0" stroke-linecap="round" stroke-linejoin="round" />
<path d="M 83.75 145.0 L 81.25 150.0 L 80.0 163.75 L 83.75 185.0 L 87.5 197.5 L 91.25 201.25 L 91.25 196.25 " stroke="black" fill="none" stroke-width="6.0" stroke-linecap="round" stroke-linejoin="round" />
<path d="M 85.0 163.75 L 83.75 162.5 L 82.5 156.25 L 85.0 151.25 L 93.75 146.25 L 106.25 145.0 L 116.25 145.0 L 118.75 150.0 L 111.25 162.5 L 97.5 177.5 L 85.0 190.0 L 80.0 195.0 L 83.75 191.25 L 98.75 178.75 L 115.0 165.0 L 126.25 155.0 L 126.25 153.75 " stroke="black" fill="none" stroke-width="6.0" stroke-linecap="round" stroke-linejoin="round" />
<path d="M 91.25 193.75 L 88.75 200.0 L 87.5 212.5 L 90.0 225.0 L 93.75 233.75 L 93.75 233.75 " stroke="black" fill="none" stroke-width="6.0" stroke-linecap="round" stroke-linejoin="round" />
<path d="M 123.75 176.25 L 122.5 176.25 L 118.75 185.0 L 113.75 198.75 L 102.5 223.75 L 90.0 238.75 L 77.5 246.25 L 73.75 247.5 L 76.25 247.5 L 86.25 247.5 L 101.25 246.25 L 117.5 243.75 L 137.5 238.75 L 151.25 232.5 " stroke="black" fill="none" stroke-width="6.0" stroke-linecap="round" stroke-linejoin="round" />
<path d="M 165.0 105.0 L 160.0 107.5 L 156.25 108.75 L 156.25 108.75 L 168.75 108.75 L 188.75 102.5 L 207.5 93.75 L 220.0 86.25 L 217.5 83.75 L 207.5 83.75 L 198.75 82.5 L 191.25 81.25 L 186.25 78.75 L 185.0 77.5 L 186.25 90.0 L 188.75 122.5 L 187.5 157.5 L 181.25 172.5 L 173.75 176.25 L 172.5 176.25 L 173.75 176.25 L 187.5 170.0 L 205.0 157.5 L 222.5 146.25 L 235.0 138.75 L 237.5 142.5 L 227.5 163.75 L 211.25 193.75 L 195.0 222.5 L 177.5 245.0 L 167.5 252.5 L 161.25 248.75 L 161.25 241.25 " stroke="black" fill="none" stroke-width="6.0" stroke-linecap="round" stroke-linejoin="round" />
<path d="M 162.5 186.25 L 161.25 183.75 L 158.75 181.25 L 158.75 181.25 L 163.75 183.75 L 178.75 197.5 L 196.25 216.25 L 220.0 236.25 L 245.0 248.75 L 263.75 251.25 L 271.25 250.0 " stroke="black" fill="none" stroke-width="6.0" stroke-linecap="round" stroke-linejoin="round" />
</svg>