<svg xmlns="http://www.w3.org/2000/svg" width="300" height="300" viewBox="0 0 300 300">
<path d="M 122.5 88.75 L 121.25 88.75 L 117.5 88.75 L 117.5 88.75 L 133.75 86.25 L 156.25 83.75 L 183.75 82.5 L 196.25 83.75 L 195.0 88.75 L 177.5 98.75 L 153.75 111.25 L 130.0 122.5 L 102.5 135.0 L 82.5 145.0 L 80.0 147.5 L 90.0 147.5 L 117.5 140.0 L 153.75 125.0 L 192.5 106.25 L 211.25 93.75 L 208.75 91.25 L 196.25 91.25 L 181.25 90.0 L 163.75 86.25 L 148.75 77.5 L 143.75 65.0 L 143.75 56.25 L 143.75 55.0 L 145.0 61.25 L 145.0 86.25 L 145.0 118.75 L 142.5 146.25 L 140.0 151.25 " stroke="black" fill="none" stroke-width="6.0" stroke-linecap="round" stroke-linejoin="round" />
<path d="M 132.5 142.5 L 132.5 143.75 L 131.25 146.25 L 131.25 155.0 L 133.75 171.25 L 136.25 185.0 L 137.5 188.75 L 137.5 182.5 L 135.0 173.75 L 133.75 163.75 L 133.75 156.25 L 133.75 150.0 L 138.75 145.0 L 151.25 142.5 L 167.5 141.25 L 180.0 141.25 L 182.5 146.25 L 170.0 157.5 L 152.5 171.25 L 136.25 183.75 L 125.0 188.75 L 123.75 190.0 L 132.5 185.0 L 148.75 177.5 L 168.75 166.25 L 185.0 158.75 L 190.0 157.5 L 181.25 165.0 L 165.0 181.25 L 147.5 196.25 L 127.5 212.5 L 111.25 223.75 L 105.0 231.25 L 107.5 233.75 L 122.5 235.0 L 143.75 232.5 L 165.0 226.25 L 188.75 217.5 L 206.25 211.25 L 211.25 208.75 L 207.5 206.25 L 200.0 202.5 L 191.25 196.25 L 182.5 188.75 L 175.0 178.75 L 171.25 170.0 L 171.25 167.5 L 172.5 167.5 L 175.0 181.25 L 177.5 211.25 L 178.75 251.25 L 177.5 288.75 L 175.0 302.5 L 171.25 307.5 L 165.0 307.5 " stroke="black" fill="none" stroke-width="6.0" stroke-linecap="round" stroke-linejoin="round" />
</svg>