<svg xmlns="http://www.w3.org/2000/svg" width="300" height="300" viewBox="0 0 300 300">
<path d="M 117.5 75.0 L 116.25 77.5 L 117.5 82.5 L 125.0 90.0 L 135.0 97.5 L 138.75 103.75 " stroke="black" fill="none" stroke-width="6.0" stroke-linecap="round" stroke-linejoin="round" />
<path d="M 158.75 57.5 L 158.75 57.5 L 158.75 57.5 L 161.25 61.25 L 165.0 75.0 L 163.75 92.5 L 156.25 105.0 L 150.0 108.75 " stroke="black" fill="none" stroke-width="6.0" stroke-linecap="round" stroke-linejoin="round" />
<path d="M 102.5 136.25 L 102.5 138.75 L 98.75 142.5 L 102.5 143.75 L 123.75 136.25 L 155.0 120.0 L 188.75 102.5 L 205.0 93.75 L 205.0 93.75 " stroke="black" fill="none" stroke-width="6.0" stroke-linecap="round" stroke-linejoin="round" />
<path d="M 121.25 175.0 L 120.0 177.5 L 118.75 180.0 L 132.5 177.5 L 153.75 165.0 L 176.25 151.25 L 187.5 142.5 L 180.0 143.75 L 166.25 151.25 " stroke="black" fill="none" stroke-width="6.0" stroke-linecap="round" stroke-linejoin="round" />
<path d="M 112.5 213.75 L 107.5 225.0 L 106.25 232.5 L 123.75 228.75 L 150.0 212.5 L 187.5 186.25 L 218.75 160.0 L 233.75 147.5 L 228.75 143.75 L 211.25 143.75 L 191.25 148.75 L 170.0 151.25 L 156.25 151.25 L 153.75 143.75 L 158.75 135.0 L 162.5 128.75 L 166.25 125.0 L 167.5 125.0 L 170.0 130.0 L 172.5 147.5 L 175.0 183.75 L 178.75 231.25 L 180.0 270.0 L 181.25 286.25 L 180.0 291.25 L 175.0 292.5 L 166.25 291.25 L 153.75 285.0 " stroke="black" fill="none" stroke-width="6.0" stroke-linecap="round" stroke-linejoin="round" />
</svg>