<svg xmlns="http://www.w3.org/2000/svg" width="300" height="300" viewBox="0 0 300 300">
<path d="M 112.5 95.0 L 112.5 91.25 L 111.25 90.0 L 110.0 90.0 L 111.25 103.75 L 113.75 142.5 L 113.75 195.0 L 113.75 227.5 L 115.0 240.0 L 116.25 243.75 L 117.5 243.75 L 117.5 235.0 L 117.5 228.75 " stroke="black" fill="none" stroke-width="6.0" stroke-linecap="round" stroke-linejoin="round" />
<path d="M 117.5 98.75 L 116.25 97.5 L 113.75 96.25 L 113.75 95.0 L 120.0 92.5 L 137.5 91.25 L 160.0 90.0 L 181.25 95.0 L 191.25 110.0 L 192.5 140.0 L 188.75 172.5 L 187.5 197.5 L 187.5 208.75 L 187.5 212.5 L 187.5 212.5 L 186.25 212.5 L 182.5 211.25 L 176.25 207.5 L 170.0 201.25 L 161.25 196.25 L 155.0 195.0 " stroke="black" fill="none" stroke-width="6.0" stroke-linecap="round" stroke-linejoin="round" />
</svg>