<svg xmlns="http://www.w3.org/2000/svg" width="300" height="300" viewBox="0 0 300 300">
<path d="M 150.0 47.5 L 145.0 48.75 L 138.75 52.5 L 125.0 68.75 L 110.0 85.0 L 103.75 90.0 L 103.75 83.75 L 106.25 77.5 " stroke="black" fill="none" stroke-width="6.0" stroke-linecap="round" stroke-linejoin="round" />
<path d="M 130.0 60.0 L 130.0 60.0 L 131.25 60.0 L 137.5 61.25 L 151.25 63.75 L 167.5 66.25 L 176.25 71.25 L 171.25 78.75 L 157.5 90.0 L 143.75 98.75 L 132.5 102.5 L 123.75 102.5 " stroke="black" fill="none" stroke-width="6.0" stroke-linecap="round" stroke-linejoin="round" />
<path d="M 103.75 106.25 L 103.75 106.25 L 98.75 108.75 L 98.75 108.75 L 105.0 108.75 L 125.0 103.75 L 153.75 96.25 L 185.0 88.75 L 207.5 85.0 L 212.5 83.75 L 211.25 83.75 L 207.5 87.5 L 201.25 95.0 L 195.0 101.25 L 191.25 107.5 L 188.75 110.0 " stroke="black" fill="none" stroke-width="6.0" stroke-linecap="round" stroke-linejoin="round" />
<path d="M 165.0 122.5 L 163.75 123.75 L 161.25 125.0 L 162.5 125.0 L 171.25 121.25 L 182.5 117.5 L 191.25 113.75 L 192.5 112.5 " stroke="black" fill="none" stroke-width="6.0" stroke-linecap="round" stroke-linejoin="round" />
<path d="M 158.75 102.5 L 160.0 102.5 L 160.0 102.5 L 160.0 102.5 L 160.0 113.75 L 160.0 145.0 L 161.25 176.25 L 162.5 196.25 L 163.75 200.0 L 163.75 200.0 " stroke="black" fill="none" stroke-width="6.0" stroke-linecap="round" stroke-linejoin="round" />
<path d="M 166.25 147.5 L 162.5 148.75 L 160.0 148.75 L 161.25 148.75 L 173.75 146.25 L 191.25 141.25 L 208.75 137.5 L 218.75 136.25 L 222.5 137.5 L 220.0 147.5 L 213.75 161.25 L 210.0 176.25 L 208.75 183.75 L 208.75 185.0 L 207.5 185.0 L 206.25 182.5 " stroke="black" fill="none" stroke-width="6.0" stroke-linecap="round" stroke-linejoin="round" />
<path d="M 172.5 153.75 L 170.0 155.0 L 166.25 155.0 L 166.25 156.25 L 172.5 161.25 L 185.0 168.75 L 198.75 175.0 L 205.0 178.75 " stroke="black" fill="none" stroke-width="6.0" stroke-linecap="round" stroke-linejoin="round" />
<path d="M 201.25 148.75 L 200.0 148.75 L 198.75 147.5 L 197.5 147.5 L 193.75 156.25 L 186.25 172.5 L 175.0 188.75 L 162.5 197.5 L 157.5 200.0 L 158.75 200.0 L 167.5 198.75 L 183.75 196.25 L 200.0 190.0 L 212.5 183.75 L 216.25 181.25 " stroke="black" fill="none" stroke-width="6.0" stroke-linecap="round" stroke-linejoin="round" />
<path d="M 96.25 118.75 L 96.25 118.75 L 95.0 117.5 L 93.75 117.5 L 93.75 116.25 L 93.75 117.5 L 93.75 122.5 L 93.75 127.5 L 93.75 130.0 L 95.0 132.5 L 101.25 132.5 L 110.0 131.25 L 121.25 128.75 L 131.25 126.25 L 137.5 123.75 L 142.5 122.5 L 142.5 121.25 L 142.5 120.0 L 142.5 120.0 L 141.25 120.0 L 141.25 120.0 L 140.0 120.0 L 140.0 120.0 L 140.0 120.0 L 140.0 120.0 L 140.0 121.25 L 140.0 121.25 L 140.0 121.25 L 140.0 121.25 L 140.0 122.5 L 140.0 122.5 L 140.0 123.75 L 140.0 126.25 L 140.0 131.25 L 138.75 140.0 L 138.75 151.25 L 138.75 163.75 L 138.75 178.75 L 138.75 191.25 L 140.0 200.0 L 142.5 207.5 L 145.0 213.75 L 148.75 220.0 L 151.25 225.0 L 155.0 230.0 L 160.0 232.5 L 167.5 235.0 L 177.5 236.25 L 188.75 238.75 L 202.5 241.25 L 216.25 242.5 L 228.75 243.75 L 240.0 243.75 L 247.5 243.75 L 253.75 241.25 L 260.0 238.75 L 262.5 236.25 L 265.0 235.0 L 266.25 233.75 L 266.25 232.5 L 267.5 230.0 L 267.5 223.75 L 268.75 211.25 L 267.5 188.75 L 262.5 161.25 " stroke="black" fill="none" stroke-width="6.0" stroke-linecap="round" stroke-linejoin="round" />
<path d="M 73.75 155.0 L 70.0 155.0 L 66.25 155.0 L 65.0 155.0 L 67.5 155.0 L 78.75 152.5 L 91.25 151.25 L 101.25 150.0 L 108.75 150.0 L 111.25 153.75 L 111.25 160.0 L 107.5 167.5 L 103.75 176.25 L 100.0 182.5 L 97.5 185.0 L 96.25 185.0 " stroke="black" fill="none" stroke-width="6.0" stroke-linecap="round" stroke-linejoin="round" />
<path d="M 62.5 175.0 L 62.5 175.0 L 62.5 175.0 L 68.75 176.25 L 88.75 171.25 L 117.5 160.0 L 140.0 152.5 L 147.5 151.25 L 143.75 152.5 " stroke="black" fill="none" stroke-width="6.0" stroke-linecap="round" stroke-linejoin="round" />
<path d="M 70.0 192.5 L 67.5 192.5 L 66.25 192.5 L 68.75 192.5 L 80.0 187.5 L 93.75 180.0 L 102.5 173.75 " stroke="black" fill="none" stroke-width="6.0" stroke-linecap="round" stroke-linejoin="round" />
<path d="M 83.75 203.75 L 82.5 205.0 L 77.5 207.5 L 76.25 207.5 L 78.75 207.5 L 88.75 206.25 L 100.0 206.25 L 108.75 206.25 L 115.0 213.75 L 115.0 228.75 L 106.25 245.0 L 97.5 255.0 L 91.25 257.5 L 90.0 257.5 " stroke="black" fill="none" stroke-width="6.0" stroke-linecap="round" stroke-linejoin="round" />
<path d="M 60.0 235.0 L 60.0 235.0 L 56.25 236.25 L 56.25 237.5 L 67.5 236.25 L 90.0 227.5 L 117.5 216.25 L 140.0 207.5 L 146.25 205.0 L 142.5 206.25 " stroke="black" fill="none" stroke-width="6.0" stroke-linecap="round" stroke-linejoin="round" />
<path d="M 85.0 250.0 L 83.75 251.25 L 83.75 252.5 L 93.75 248.75 L 115.0 237.5 L 132.5 226.25 " stroke="black" fill="none" stroke-width="6.0" stroke-linecap="round" stroke-linejoin="round" />
</svg>