<svg xmlns="http://www.w3.org/2000/svg" width="300" height="300" viewBox="0 0 300 300">
<path d="M 82.5 107.5 L 81.25 107.5 L 78.75 107.5 L 77.5 110.0 L 82.5 133.75 L 85.0 160.0 L 86.25 178.75 L 86.25 185.0 L 86.25 186.25 L 86.25 186.25 L 86.25 185.0 L 86.25 185.0 L 90.0 183.75 L 101.25 181.25 L 123.75 177.5 L 151.25 175.0 L 180.0 173.75 L 198.75 170.0 L 207.5 166.25 L 210.0 163.75 L 211.25 161.25 L 212.5 160.0 L 212.5 160.0 L 212.5 160.0 " stroke="black" fill="none" stroke-width="6.0" stroke-linecap="round" stroke-linejoin="round" />
<path d="M 210.0 106.25 L 210.0 106.25 L 207.5 105.0 L 206.25 103.75 L 206.25 110.0 L 208.75 135.0 L 211.25 163.75 L 212.5 183.75 L 211.25 185.0 " stroke="black" fill="none" stroke-width="6.0" stroke-linecap="round" stroke-linejoin="round" />
<path d="M 147.5 85.0 L 146.25 81.25 L 143.75 78.75 L 143.75 78.75 L 143.75 78.75 L 147.5 81.25 L 151.25 103.75 L 152.5 156.25 L 152.5 211.25 L 151.25 237.5 L 151.25 247.5 L 150.0 250.0 L 150.0 250.0 L 148.75 243.75 L 146.25 237.5 " stroke="black" fill="none" stroke-width="6.0" stroke-linecap="round" stroke-linejoin="round" />
</svg>