<svg xmlns="http://www.w3.org/2000/svg" width="300" height="300" viewBox="0 0 300 300">
<path d="M 128.75 86.25 L 123.75 87.5 L 118.75 88.75 L 118.75 88.75 L 131.25 91.25 L 152.5 91.25 L 176.25 90.0 L 192.5 86.25 L 192.5 86.25 L 185.0 88.75 " stroke="black" fill="none" stroke-width="6.0" stroke-linecap="round" stroke-linejoin="round" />
<path d="M 92.5 157.5 L 91.25 160.0 L 88.75 163.75 L 93.75 165.0 L 120.0 158.75 L 148.75 145.0 L 195.0 117.5 L 210.0 103.75 L 207.5 100.0 L 193.75 101.25 L 175.0 103.75 L 156.25 103.75 L 142.5 103.75 L 138.75 103.75 L 141.25 103.75 L 146.25 112.5 L 151.25 133.75 L 152.5 160.0 L 146.25 183.75 L 133.75 197.5 " stroke="black" fill="none" stroke-width="6.0" stroke-linecap="round" stroke-linejoin="round" />
<path d="M 101.25 197.5 L 101.25 197.5 L 101.25 197.5 L 101.25 197.5 L 110.0 207.5 L 128.75 232.5 L 145.0 251.25 L 153.75 256.25 L 156.25 256.25 L 156.25 255.0 L 151.25 248.75 L 143.75 241.25 L 135.0 231.25 L 127.5 221.25 L 123.75 213.75 L 131.25 207.5 L 153.75 196.25 L 187.5 182.5 L 215.0 172.5 L 227.5 172.5 L 223.75 185.0 L 206.25 206.25 L 186.25 228.75 L 160.0 252.5 L 150.0 262.5 L 153.75 263.75 L 172.5 258.75 L 196.25 246.25 L 215.0 231.25 L 225.0 216.25 " stroke="black" fill="none" stroke-width="6.0" stroke-linecap="round" stroke-linejoin="round" />
</svg>