<svg xmlns="http://www.w3.org/2000/svg" width="300" height="300" viewBox="0 0 300 300">
<path d="M 126.25 127.5 L 120.0 130.0 L 116.25 132.5 L 117.5 140.0 L 131.25 155.0 L 151.25 173.75 L 171.25 187.5 L 186.25 196.25 L 188.75 200.0 L 181.25 208.75 L 165.0 217.5 L 147.5 226.25 L 132.5 230.0 L 120.0 232.5 L 116.25 233.75 L 118.75 232.5 L 121.25 226.25 " stroke="black" fill="none" stroke-width="6.0" stroke-linecap="round" stroke-linejoin="round" />
<path d="M 160.0 105.0 L 160.0 103.75 L 158.75 102.5 L 158.75 102.5 L 162.5 108.75 L 170.0 118.75 L 176.25 128.75 " stroke="black" fill="none" stroke-width="6.0" stroke-linecap="round" stroke-linejoin="round" />
<path d="M 193.75 95.0 L 192.5 93.75 L 190.0 93.75 L 188.75 93.75 L 195.0 105.0 L 206.25 131.25 " stroke="black" fill="none" stroke-width="6.0" stroke-linecap="round" stroke-linejoin="round" />
</svg>