<svg xmlns="http://www.w3.org/2000/svg" width="300" height="300" viewBox="0 0 300 300">
<path d="M 101.25 98.75 L 98.75 98.75 L 92.5 98.75 L 90.0 98.75 L 93.75 98.75 L 110.0 96.25 L 136.25 93.75 L 158.75 92.5 L 172.5 91.25 L 175.0 92.5 L 168.75 102.5 L 156.25 125.0 L 143.75 157.5 L 132.5 193.75 L 123.75 216.25 L 115.0 225.0 L 108.75 227.5 L 101.25 226.25 L 95.0 218.75 L 90.0 208.75 L 86.25 198.75 L 85.0 186.25 L 86.25 176.25 L 97.5 167.5 L 120.0 158.75 L 148.75 157.5 L 176.25 165.0 L 197.5 181.25 L 208.75 200.0 L 211.25 216.25 L 210.0 230.0 L 206.25 240.0 L 202.5 246.25 L 200.0 250.0 L 198.75 251.25 L 197.5 251.25 " stroke="black" fill="none" stroke-width="6.0" stroke-linecap="round" stroke-linejoin="round" />
<path d="M 216.25 151.25 L 217.5 151.25 L 217.5 151.25 L 217.5 150.0 L 217.5 150.0 L 217.5 148.75 L 217.5 148.75 L 217.5 147.5 L 217.5 147.5 L 217.5 147.5 L 216.25 152.5 L 207.5 171.25 L 190.0 202.5 L 170.0 228.75 L 155.0 245.0 L 151.25 248.75 " stroke="black" fill="none" stroke-width="6.0" stroke-linecap="round" stroke-linejoin="round" />
</svg>