<svg xmlns="http://www.w3.org/2000/svg" width="300" height="300" viewBox="0 0 300 300">
<path d="M 106.25 93.75 L 106.25 93.75 L 106.25 93.75 L 107.5 95.0 L 118.75 102.5 L 136.25 113.75 L 146.25 125.0 L 146.25 128.75 " stroke="black" fill="none" stroke-width="6.0" stroke-linecap="round" stroke-linejoin="round" />
<path d="M 77.5 138.75 L 72.5 138.75 L 71.25 140.0 L 80.0 146.25 L 96.25 155.0 L 121.25 167.5 L 126.25 171.25 " stroke="black" fill="none" stroke-width="6.0" stroke-linecap="round" stroke-linejoin="round" />
<path d="M 101.25 228.75 L 100.0 230.0 L 97.5 231.25 L 100.0 232.5 L 121.25 226.25 L 153.75 212.5 L 192.5 190.0 L 221.25 168.75 L 233.75 152.5 L 233.75 146.25 " stroke="black" fill="none" stroke-width="6.0" stroke-linecap="round" stroke-linejoin="round" />
<path d="M 186.25 85.0 L 185.0 85.0 L 185.0 85.0 L 186.25 86.25 L 192.5 97.5 L 201.25 111.25 L 205.0 118.75 " stroke="black" fill="none" stroke-width="6.0" stroke-linecap="round" stroke-linejoin="round" />
<path d="M 221.25 80.0 L 221.25 75.0 L 221.25 73.75 L 222.5 82.5 L 227.5 107.5 L 227.5 115.0 " stroke="black" fill="none" stroke-width="6.0" stroke-linecap="round" stroke-linejoin="round" />
</svg>