<svg xmlns="http://www.w3.org/2000/svg" width="300" height="300" viewBox="0 0 300 300">
<path d="M 83.75 106.25 L 82.5 105.0 L 80.0 110.0 L 78.75 145.0 L 81.25 193.75 L 88.75 220.0 L 98.75 228.75 L 108.75 225.0 L 116.25 216.25 L 120.0 201.25 L 115.0 192.5 " stroke="black" fill="none" stroke-width="6.0" stroke-linecap="round" stroke-linejoin="round" />
<path d="M 141.25 101.25 L 141.25 101.25 L 141.25 102.5 L 147.5 102.5 L 168.75 102.5 L 200.0 101.25 L 220.0 101.25 L 226.25 105.0 L 216.25 110.0 " stroke="black" fill="none" stroke-width="6.0" stroke-linecap="round" stroke-linejoin="round" />
<path d="M 132.5 160.0 L 128.75 163.75 L 128.75 165.0 L 143.75 165.0 L 171.25 160.0 L 206.25 150.0 L 225.0 143.75 L 226.25 140.0 L 218.75 140.0 " stroke="black" fill="none" stroke-width="6.0" stroke-linecap="round" stroke-linejoin="round" />
<path d="M 175.0 120.0 L 175.0 120.0 L 175.0 120.0 L 180.0 128.75 L 192.5 163.75 L 197.5 201.25 L 192.5 223.75 L 182.5 235.0 L 165.0 238.75 L 152.5 236.25 L 148.75 227.5 L 152.5 216.25 L 170.0 203.75 L 192.5 196.25 L 213.75 197.5 L 230.0 215.0 L 233.75 240.0 L 231.25 246.25 " stroke="black" fill="none" stroke-width="6.0" stroke-linecap="round" stroke-linejoin="round" />
</svg>