<svg xmlns="http://www.w3.org/2000/svg" width="300" height="300" viewBox="0 0 300 300">
<path d="M 156.25 86.25 L 155.0 86.25 L 153.75 86.25 L 152.5 86.25 L 152.5 86.25 L 152.5 85.0 L 152.5 82.5 L 152.5 80.0 L 152.5 77.5 L 152.5 73.75 L 152.5 72.5 L 152.5 72.5 L 152.5 76.25 L 153.75 86.25 L 155.0 98.75 L 155.0 108.75 L 155.0 116.25 L 152.5 121.25 L 151.25 121.25 " stroke="black" fill="none" stroke-width="6.0" stroke-linecap="round" stroke-linejoin="round" />
<path d="M 102.5 102.5 L 100.0 103.75 L 96.25 106.25 L 95.0 108.75 L 96.25 111.25 L 103.75 113.75 L 121.25 116.25 L 145.0 116.25 L 167.5 115.0 L 185.0 111.25 L 198.75 108.75 L 207.5 106.25 L 210.0 105.0 L 211.25 103.75 L 211.25 103.75 L 210.0 106.25 L 206.25 115.0 L 200.0 128.75 L 191.25 145.0 L 178.75 163.75 L 161.25 185.0 L 146.25 200.0 L 135.0 208.75 L 123.75 216.25 L 115.0 221.25 L 108.75 226.25 L 105.0 228.75 L 102.5 230.0 L 100.0 230.0 L 96.25 231.25 L 93.75 230.0 L 92.5 227.5 " stroke="black" fill="none" stroke-width="6.0" stroke-linecap="round" stroke-linejoin="round" />
<path d="M 105.0 147.5 L 103.75 147.5 L 102.5 147.5 L 100.0 147.5 L 100.0 147.5 L 100.0 147.5 L 103.75 150.0 L 108.75 155.0 L 116.25 162.5 L 125.0 171.25 L 135.0 180.0 L 143.75 187.5 L 152.5 192.5 L 161.25 196.25 L 171.25 200.0 L 181.25 202.5 L 190.0 203.75 L 197.5 206.25 L 203.75 206.25 L 211.25 207.5 L 220.0 210.0 L 227.5 211.25 L 235.0 212.5 L 241.25 212.5 L 245.0 212.5 L 246.25 212.5 L 247.5 211.25 L 247.5 208.75 " stroke="black" fill="none" stroke-width="6.0" stroke-linecap="round" stroke-linejoin="round" />
</svg>