<svg xmlns="http://www.w3.org/2000/svg" width="300" height="300" viewBox="0 0 300 300">
<path d="M 150.0 160.0 L 148.75 158.75 L 145.0 157.5 L 145.0 155.0 L 147.5 152.5 L 153.75 151.25 L 161.25 152.5 L 166.25 157.5 L 166.25 163.75 L 162.5 168.75 L 155.0 172.5 L 147.5 172.5 L 142.5 167.5 L 141.25 161.25 L 143.75 155.0 L 150.0 151.25 L 156.25 150.0 L 162.5 152.5 L 165.0 158.75 L 163.75 165.0 L 157.5 170.0 L 151.25 171.25 L 146.25 170.0 L 143.75 165.0 L 145.0 156.25 L 150.0 151.25 L 156.25 148.75 L 162.5 150.0 L 165.0 156.25 L 163.75 162.5 L 160.0 167.5 L 155.0 168.75 L 150.0 166.25 L 147.5 162.5 L 147.5 157.5 L 148.75 155.0 L 152.5 155.0 L 156.25 156.25 L 158.75 158.75 L 158.75 161.25 L 157.5 163.75 L 155.0 165.0 L 151.25 165.0 L 150.0 162.5 L 150.0 158.75 L 151.25 156.25 L 155.0 156.25 L 156.25 156.25 L 157.5 158.75 L 157.5 161.25 L 157.5 161.25 L 156.25 161.25 L 156.25 158.75 L 156.25 156.25 L 157.5 153.75 L 157.5 153.75 L 161.25 155.0 L 161.25 158.75 L 161.25 161.25 L 161.25 163.75 L 158.75 163.75 L 156.25 163.75 L 155.0 162.5 L 153.75 160.0 L 153.75 158.75 L 155.0 158.75 L 156.25 158.75 L 156.25 160.0 " stroke="black" fill="none" stroke-width="6.0" stroke-linecap="round" stroke-linejoin="round" />
</svg>