<svg xmlns="http://www.w3.org/2000/svg" width="300" height="300" viewBox="0 0 300 300">
<path d="M 121.25 116.25 L 118.75 113.75 L 117.5 113.75 L 118.75 122.5 L 118.75 150.0 L 110.0 193.75 L 92.5 231.25 L 80.0 246.25 L 67.5 248.75 L 65.0 247.5 " stroke="black" fill="none" stroke-width="6.0" stroke-linecap="round" stroke-linejoin="round" />
<path d="M 160.0 141.25 L 161.25 141.25 L 161.25 141.25 L 166.25 146.25 L 180.0 173.75 L 200.0 208.75 L 217.5 228.75 L 231.25 237.5 L 237.5 238.75 L 236.25 238.75 " stroke="black" fill="none" stroke-width="6.0" stroke-linecap="round" stroke-linejoin="round" />
<path d="M 206.25 101.25 L 205.0 102.5 L 205.0 103.75 L 205.0 110.0 L 212.5 117.5 L 228.75 120.0 L 242.5 111.25 L 250.0 98.75 L 248.75 87.5 L 233.75 81.25 L 213.75 81.25 L 200.0 91.25 L 198.75 108.75 L 200.0 113.75 " stroke="black" fill="none" stroke-width="6.0" stroke-linecap="round" stroke-linejoin="round" />
</svg>