<svg xmlns="http://www.w3.org/2000/svg" width="300" height="300" viewBox="0 0 300 300">
<path d="M 177.5 71.25 L 176.25 71.25 L 175.0 70.0 L 173.75 70.0 L 173.75 68.75 L 173.75 68.75 L 173.75 68.75 L 173.75 71.25 L 173.75 81.25 L 173.75 101.25 L 173.75 130.0 L 173.75 153.75 L 173.75 170.0 L 173.75 181.25 L 173.75 187.5 L 173.75 190.0 L 173.75 191.25 L 173.75 191.25 L 173.75 191.25 L 173.75 191.25 L 173.75 191.25 L 173.75 191.25 L 173.75 191.25 L 173.75 191.25 L 173.75 191.25 L 173.75 191.25 L 173.75 191.25 L 173.75 191.25 L 173.75 191.25 L 173.75 191.25 L 173.75 191.25 L 173.75 191.25 L 173.75 191.25 L 173.75 191.25 L 173.75 191.25 L 173.75 191.25 L 173.75 191.25 L 175.0 191.25 L 178.75 191.25 L 183.75 191.25 L 191.25 192.5 L 197.5 192.5 L 202.5 193.75 L 205.0 193.75 L 206.25 193.75 L 206.25 193.75 L 206.25 193.75 L 206.25 193.75 L 206.25 193.75 L 205.0 193.75 L 205.0 192.5 L 205.0 191.25 L 203.75 188.75 L 203.75 182.5 L 202.5 173.75 L 202.5 162.5 L 202.5 151.25 L 202.5 142.5 L 202.5 132.5 L 202.5 123.75 L 202.5 118.75 L 202.5 111.25 L 202.5 106.25 L 202.5 103.75 L 202.5 102.5 L 202.5 101.25 L 201.25 101.25 L 201.25 100.0 L 201.25 100.0 L 201.25 100.0 L 201.25 100.0 L 201.25 100.0 L 201.25 100.0 L 201.25 100.0 L 201.25 100.0 L 201.25 100.0 L 201.25 100.0 L 201.25 100.0 L 202.5 100.0 L 205.0 100.0 L 210.0 100.0 L 216.25 100.0 L 222.5 100.0 L 227.5 98.75 L 231.25 98.75 L 233.75 98.75 L 235.0 97.5 L 236.25 97.5 L 236.25 97.5 L 236.25 97.5 L 236.25 97.5 L 236.25 97.5 L 235.0 97.5 L 235.0 97.5 L 235.0 97.5 L 235.0 97.5 L 235.0 97.5 L 235.0 96.25 L 236.25 95.0 L 236.25 92.5 L 236.25 88.75 L 236.25 83.75 L 237.5 77.5 L 237.5 72.5 L 237.5 68.75 L 237.5 66.25 L 237.5 65.0 L 237.5 63.75 L 237.5 63.75 L 237.5 63.75 L 237.5 63.75 L 237.5 63.75 L 236.25 63.75 L 235.0 63.75 L 233.75 63.75 L 230.0 63.75 L 225.0 62.5 L 218.75 62.5 L 211.25 62.5 L 203.75 63.75 L 198.75 65.0 L 193.75 66.25 L 188.75 67.5 L 185.0 68.75 L 182.5 70.0 L 180.0 70.0 L 178.75 71.25 L 177.5 71.25 L 175.0 71.25 L 172.5 71.25 L 170.0 71.25 L 167.5 72.5 L 166.25 72.5 L 165.0 72.5 L 165.0 72.5 L 170.0 68.75 " stroke="black" fill="none" stroke-width="6.0" stroke-linecap="round" stroke-linejoin="round" />
</svg>