<svg xmlns="http://www.w3.org/2000/svg" width="300" height="300" viewBox="0 0 300 300">
<path d="M 98.75 131.25 L 98.75 127.5 L 97.5 118.75 L 96.25 118.75 L 95.0 138.75 L 93.75 178.75 L 96.25 218.75 L 105.0 241.25 L 118.75 245.0 L 133.75 237.5 L 145.0 223.75 L 146.25 210.0 " stroke="black" fill="none" stroke-width="6.0" stroke-linecap="round" stroke-linejoin="round" />
<path d="M 151.25 125.0 L 151.25 125.0 L 151.25 125.0 L 157.5 125.0 L 180.0 125.0 L 210.0 126.25 L 233.75 126.25 L 243.75 123.75 L 235.0 120.0 L 218.75 115.0 L 203.75 108.75 L 192.5 102.5 L 185.0 98.75 L 185.0 101.25 L 191.25 126.25 L 197.5 168.75 L 198.75 210.0 L 192.5 235.0 L 181.25 243.75 L 170.0 243.75 L 163.75 240.0 L 165.0 227.5 L 180.0 213.75 L 197.5 208.75 L 213.75 213.75 L 222.5 233.75 L 221.25 252.5 L 212.5 261.25 L 206.25 257.5 L 202.5 242.5 " stroke="black" fill="none" stroke-width="6.0" stroke-linecap="round" stroke-linejoin="round" />
<path d="M 223.75 86.25 L 223.75 86.25 L 222.5 85.0 L 221.25 85.0 L 221.25 85.0 L 226.25 91.25 L 233.75 98.75 L 240.0 107.5 L 241.25 108.75 " stroke="black" fill="none" stroke-width="6.0" stroke-linecap="round" stroke-linejoin="round" />
<path d="M 251.25 83.75 L 251.25 81.25 L 250.0 78.75 L 250.0 77.5 L 250.0 82.5 L 251.25 102.5 " stroke="black" fill="none" stroke-width="6.0" stroke-linecap="round" stroke-linejoin="round" />
</svg>