<svg xmlns="http://www.w3.org/2000/svg" width="300" height="300" viewBox="0 0 300 300">
<path d="M 145.0 91.25 L 138.75 91.25 L 136.25 91.25 L 137.5 91.25 L 148.75 96.25 L 165.0 103.75 L 177.5 110.0 L 183.75 113.75 L 183.75 117.5 L 177.5 122.5 L 160.0 132.5 L 156.25 135.0 " stroke="black" fill="none" stroke-width="6.0" stroke-linecap="round" stroke-linejoin="round" />
<path d="M 145.0 146.25 L 145.0 147.5 L 145.0 150.0 L 148.75 155.0 L 160.0 165.0 L 173.75 182.5 L 182.5 197.5 L 182.5 207.5 L 176.25 215.0 L 167.5 223.75 L 158.75 230.0 L 151.25 232.5 L 142.5 228.75 L 140.0 227.5 " stroke="black" fill="none" stroke-width="6.0" stroke-linecap="round" stroke-linejoin="round" />
<path d="M 101.25 190.0 L 97.5 190.0 L 93.75 190.0 L 92.5 197.5 L 91.25 213.75 L 93.75 230.0 L 101.25 235.0 " stroke="black" fill="none" stroke-width="6.0" stroke-linecap="round" stroke-linejoin="round" />
<path d="M 212.5 166.25 L 213.75 166.25 L 215.0 168.75 L 220.0 173.75 L 230.0 187.5 L 240.0 197.5 L 243.75 201.25 " stroke="black" fill="none" stroke-width="6.0" stroke-linecap="round" stroke-linejoin="round" />
</svg>