<svg xmlns="http://www.w3.org/2000/svg" width="300" height="300" viewBox="0 0 300 300">
<path d="M 91.25 186.25 L 85.0 186.25 L 81.25 180.0 L 82.5 165.0 L 91.25 143.75 L 103.75 127.5 L 115.0 118.75 L 122.5 118.75 L 131.25 128.75 L 145.0 148.75 L 166.25 178.75 L 192.5 208.75 L 215.0 227.5 L 235.0 237.5 L 248.75 241.25 L 253.75 241.25 L 253.75 240.0 L 246.25 232.5 L 240.0 226.25 " stroke="black" fill="none" stroke-width="6.0" stroke-linecap="round" stroke-linejoin="round" />
<path d="M 168.75 117.5 L 168.75 115.0 L 170.0 115.0 L 173.75 116.25 L 182.5 126.25 L 192.5 136.25 L 197.5 141.25 " stroke="black" fill="none" stroke-width="6.0" stroke-linecap="round" stroke-linejoin="round" />
<path d="M 206.25 97.5 L 206.25 97.5 L 206.25 97.5 L 210.0 103.75 L 221.25 126.25 L 223.75 133.75 " stroke="black" fill="none" stroke-width="6.0" stroke-linecap="round" stroke-linejoin="round" />
</svg>