<svg xmlns="http://www.w3.org/2000/svg" width="300" height="300" viewBox="0 0 300 300">
<path d="M 82.5 112.5 L 76.25 115.0 L 75.0 116.25 L 87.5 116.25 L 113.75 110.0 L 150.0 101.25 L 178.75 92.5 L 192.5 91.25 L 192.5 91.25 L 178.75 91.25 L 170.0 92.5 " stroke="black" fill="none" stroke-width="6.0" stroke-linecap="round" stroke-linejoin="round" />
<path d="M 116.25 81.25 L 116.25 78.75 L 116.25 76.25 L 121.25 82.5 L 125.0 102.5 L 130.0 168.75 L 137.5 210.0 L 150.0 223.75 L 163.75 232.5 L 178.75 233.75 L 188.75 232.5 L 191.25 228.75 L 190.0 227.5 " stroke="black" fill="none" stroke-width="6.0" stroke-linecap="round" stroke-linejoin="round" />
<path d="M 165.0 132.5 L 165.0 131.25 L 165.0 131.25 L 166.25 136.25 L 166.25 165.0 L 155.0 198.75 L 140.0 216.25 L 117.5 227.5 L 91.25 232.5 L 72.5 231.25 L 60.0 218.75 L 60.0 205.0 L 76.25 190.0 L 105.0 172.5 L 142.5 156.25 L 177.5 150.0 L 203.75 153.75 L 220.0 181.25 L 221.25 192.5 L 220.0 200.0 L 215.0 202.5 " stroke="black" fill="none" stroke-width="6.0" stroke-linecap="round" stroke-linejoin="round" />
</svg>