<svg xmlns="http://www.w3.org/2000/svg" width="300" height="300" viewBox="0 0 300 300">
<path d="M 116.25 91.25 L 115.0 91.25 L 113.75 91.25 L 116.25 95.0 L 131.25 111.25 L 156.25 141.25 L 181.25 173.75 L 197.5 196.25 L 207.5 208.75 L 213.75 213.75 L 215.0 215.0 L 215.0 215.0 L 212.5 211.25 L 207.5 203.75 L 203.75 198.75 " stroke="black" fill="none" stroke-width="6.0" stroke-linecap="round" stroke-linejoin="round" />
<path d="M 206.25 90.0 L 205.0 88.75 L 203.75 88.75 L 202.5 88.75 L 201.25 96.25 L 198.75 120.0 L 190.0 148.75 L 176.25 170.0 L 156.25 187.5 L 136.25 201.25 L 116.25 217.5 L 97.5 232.5 L 88.75 236.25 L 82.5 233.75 L 78.75 225.0 L 76.25 215.0 " stroke="black" fill="none" stroke-width="6.0" stroke-linecap="round" stroke-linejoin="round" />
</svg>