<svg xmlns="http://www.w3.org/2000/svg" width="300" height="300" viewBox="0 0 300 300">
<path d="M 113.75 151.25 L 108.75 152.5 L 106.25 152.5 L 112.5 153.75 L 133.75 148.75 L 160.0 141.25 L 182.5 131.25 L 188.75 127.5 L 181.25 127.5 " stroke="black" fill="none" stroke-width="6.0" stroke-linecap="round" stroke-linejoin="round" />
<path d="M 96.25 112.5 L 95.0 112.5 L 95.0 112.5 L 95.0 120.0 L 101.25 155.0 L 106.25 203.75 L 112.5 226.25 L 125.0 235.0 L 145.0 240.0 L 166.25 242.5 L 188.75 242.5 L 206.25 237.5 L 212.5 230.0 L 210.0 225.0 " stroke="black" fill="none" stroke-width="6.0" stroke-linecap="round" stroke-linejoin="round" />
<path d="M 203.75 88.75 L 202.5 88.75 L 201.25 91.25 L 200.0 96.25 L 201.25 108.75 L 206.25 118.75 L 218.75 122.5 L 230.0 111.25 L 235.0 96.25 L 235.0 85.0 L 225.0 80.0 L 208.75 83.75 L 193.75 96.25 L 187.5 102.5 " stroke="black" fill="none" stroke-width="6.0" stroke-linecap="round" stroke-linejoin="round" />
</svg>