<svg xmlns="http://www.w3.org/2000/svg" width="300" height="300" viewBox="0 0 300 300">
<path d="M 95.0 143.75 L 93.75 143.75 L 88.75 146.25 L 92.5 147.5 L 115.0 148.75 L 151.25 148.75 L 193.75 143.75 L 217.5 138.75 L 225.0 137.5 L 223.75 136.25 L 212.5 136.25 L 200.0 136.25 L 197.5 136.25 " stroke="black" fill="none" stroke-width="6.0" stroke-linecap="round" stroke-linejoin="round" />
<path d="M 175.0 107.5 L 173.75 107.5 L 173.75 112.5 L 177.5 146.25 L 181.25 201.25 L 180.0 240.0 L 180.0 251.25 L 177.5 253.75 L 176.25 253.75 L 171.25 251.25 L 163.75 245.0 L 156.25 233.75 L 151.25 225.0 " stroke="black" fill="none" stroke-width="6.0" stroke-linecap="round" stroke-linejoin="round" />
<path d="M 182.5 161.25 L 181.25 161.25 L 176.25 160.0 L 165.0 167.5 L 145.0 192.5 L 117.5 220.0 L 91.25 241.25 L 78.75 243.75 L 75.0 238.75 " stroke="black" fill="none" stroke-width="6.0" stroke-linecap="round" stroke-linejoin="round" />
</svg>