<svg xmlns="http://www.w3.org/2000/svg" width="300" height="300" viewBox="0 0 300 300">
<path d="M 68.75 62.5 L 68.75 62.5 L 65.0 63.75 L 62.5 63.75 L 62.5 63.75 L 62.5 63.75 L 63.75 65.0 L 66.25 65.0 L 68.75 66.25 L 72.5 67.5 L 77.5 67.5 L 82.5 67.5 L 87.5 67.5 L 92.5 67.5 L 97.5 67.5 L 101.25 67.5 L 103.75 67.5 L 106.25 67.5 L 107.5 67.5 L 107.5 67.5 L 107.5 67.5 L 107.5 67.5 L 108.75 67.5 L 108.75 67.5 L 108.75 67.5 L 110.0 67.5 L 110.0 67.5 L 110.0 67.5 L 110.0 67.5 L 110.0 68.75 L 111.25 70.0 L 111.25 72.5 L 111.25 76.25 L 111.25 83.75 L 111.25 91.25 L 110.0 100.0 L 110.0 108.75 L 110.0 118.75 L 111.25 128.75 L 111.25 137.5 L 112.5 145.0 L 113.75 151.25 L 113.75 156.25 L 113.75 162.5 L 113.75 167.5 L 113.75 173.75 L 115.0 181.25 L 115.0 187.5 L 115.0 192.5 L 115.0 196.25 L 115.0 200.0 L 116.25 203.75 L 116.25 208.75 L 117.5 212.5 L 117.5 217.5 L 117.5 220.0 L 117.5 223.75 L 117.5 228.75 L 117.5 235.0 L 117.5 240.0 L 117.5 245.0 L 117.5 247.5 L 117.5 248.75 L 117.5 248.75 L 117.5 248.75 L 117.5 248.75 L 117.5 248.75 L 117.5 248.75 L 117.5 248.75 L 117.5 248.75 L 117.5 248.75 L 117.5 248.75 L 117.5 248.75 L 117.5 248.75 L 117.5 248.75 L 117.5 250.0 L 117.5 250.0 L 117.5 250.0 L 117.5 250.0 L 116.25 250.0 L 113.75 250.0 L 111.25 250.0 L 107.5 250.0 L 103.75 248.75 L 100.0 248.75 L 95.0 248.75 L 91.25 248.75 L 87.5 248.75 L 83.75 248.75 L 80.0 248.75 L 76.25 248.75 L 73.75 247.5 L 70.0 247.5 L 67.5 246.25 L 65.0 246.25 L 62.5 246.25 L 61.25 246.25 L 60.0 246.25 L 58.75 246.25 L 58.75 246.25 L 58.75 246.25 L 58.75 246.25 L 58.75 246.25 L 58.75 246.25 L 58.75 246.25 L 60.0 246.25 L 62.5 245.0 L 65.0 242.5 L 68.75 240.0 L 71.25 237.5 L 73.75 235.0 L 75.0 232.5 L 76.25 230.0 L 77.5 226.25 L 77.5 223.75 L 78.75 221.25 L 80.0 218.75 L 80.0 217.5 L 81.25 216.25 L 81.25 213.75 L 82.5 212.5 L 82.5 211.25 L 83.75 210.0 L 83.75 207.5 L 83.75 206.25 L 85.0 205.0 L 85.0 203.75 L 85.0 201.25 L 86.25 198.75 L 86.25 196.25 L 87.5 195.0 L 87.5 192.5 L 87.5 190.0 L 87.5 187.5 L 88.75 186.25 L 88.75 183.75 L 88.75 181.25 L 88.75 178.75 L 88.75 176.25 L 90.0 173.75 L 90.0 171.25 L 90.0 168.75 L 90.0 167.5 L 90.0 165.0 L 90.0 162.5 L 90.0 161.25 L 90.0 160.0 L 90.0 157.5 L 90.0 156.25 L 90.0 155.0 L 90.0 153.75 L 90.0 152.5 L 90.0 150.0 L 90.0 148.75 L 90.0 146.25 L 88.75 145.0 L 88.75 141.25 L 87.5 138.75 L 86.25 136.25 L 86.25 133.75 L 85.0 130.0 L 85.0 127.5 L 83.75 123.75 L 83.75 120.0 L 82.5 116.25 L 82.5 112.5 L 81.25 108.75 L 80.0 105.0 L 80.0 102.5 L 78.75 98.75 L 77.5 96.25 L 76.25 92.5 L 75.0 91.25 L 73.75 88.75 L 71.25 86.25 L 70.0 83.75 L 68.75 82.5 L 67.5 80.0 L 67.5 78.75 L 66.25 77.5 L 66.25 76.25 L 65.0 75.0 L 63.75 73.75 L 63.75 72.5 L 63.75 71.25 L 62.5 70.0 L 62.5 70.0 L 62.5 68.75 L 62.5 68.75 L 62.5 68.75 L 62.5 67.5 L 62.5 67.5 L 62.5 67.5 L 62.5 67.5 L 62.5 67.5 L 62.5 67.5 L 62.5 67.5 L 62.5 67.5 L 62.5 67.5 L 62.5 67.5 L 62.5 67.5 L 62.5 67.5 L 62.5 67.5 L 62.5 67.5 L 62.5 66.25 L 62.5 66.25 L 62.5 66.25 L 62.5 65.0 L 62.5 65.0 L 62.5 63.75 L 62.5 63.75 L 62.5 63.75 L 61.25 63.75 L 61.25 62.5 L 61.25 62.5 L 61.25 62.5 L 61.25 62.5 L 61.25 62.5 " stroke="black" fill="none" stroke-width="6.0" stroke-linecap="round" stroke-linejoin="round" />
<path d="M 95.0 73.75 L 95.0 72.5 L 93.75 72.5 L 93.75 71.25 L 93.75 70.0 L 93.75 70.0 L 93.75 70.0 L 93.75 71.25 L 93.75 80.0 L 96.25 98.75 L 98.75 121.25 L 100.0 135.0 L 101.25 138.75 L 101.25 137.5 L 101.25 135.0 L 101.25 128.75 L 101.25 121.25 L 101.25 113.75 L 101.25 103.75 L 101.25 93.75 L 101.25 83.75 L 101.25 75.0 L 101.25 71.25 L 101.25 71.25 L 100.0 77.5 L 100.0 95.0 L 100.0 116.25 L 100.0 138.75 L 100.0 148.75 L 100.0 148.75 L 100.0 147.5 L 101.25 142.5 L 101.25 135.0 L 102.5 125.0 L 102.5 112.5 L 102.5 98.75 L 102.5 85.0 L 102.5 75.0 L 102.5 70.0 L 102.5 68.75 L 102.5 70.0 L 103.75 78.75 L 103.75 97.5 L 103.75 121.25 L 105.0 140.0 L 106.25 150.0 L 107.5 150.0 L 107.5 147.5 L 107.5 143.75 L 107.5 136.25 L 108.75 125.0 L 108.75 111.25 L 108.75 96.25 L 108.75 83.75 L 107.5 75.0 L 106.25 71.25 L 106.25 71.25 L 106.25 73.75 L 106.25 81.25 L 106.25 97.5 L 106.25 118.75 L 107.5 141.25 L 108.75 152.5 L 110.0 155.0 L 110.0 153.75 L 110.0 151.25 L 110.0 143.75 L 110.0 135.0 L 110.0 122.5 L 110.0 107.5 L 108.75 92.5 L 108.75 82.5 L 107.5 76.25 L 107.5 75.0 L 107.5 75.0 L 107.5 76.25 L 107.5 76.25 L 107.5 77.5 L 106.25 77.5 L 106.25 78.75 L 106.25 78.75 L 105.0 78.75 L 105.0 78.75 L 103.75 78.75 L 103.75 78.75 L 102.5 78.75 L 101.25 78.75 L 100.0 78.75 L 98.75 77.5 L 97.5 77.5 L 96.25 76.25 L 95.0 76.25 L 93.75 75.0 L 92.5 73.75 L 91.25 72.5 L 90.0 72.5 L 88.75 71.25 L 87.5 70.0 L 86.25 70.0 L 85.0 70.0 L 82.5 70.0 L 81.25 70.0 L 80.0 70.0 L 78.75 70.0 L 77.5 70.0 L 76.25 70.0 L 75.0 70.0 L 72.5 70.0 L 71.25 70.0 L 70.0 70.0 L 68.75 70.0 L 67.5 70.0 L 67.5 70.0 L 66.25 70.0 L 66.25 70.0 L 65.0 70.0 L 65.0 70.0 L 65.0 70.0 L 65.0 70.0 L 66.25 70.0 L 67.5 71.25 L 71.25 75.0 L 77.5 83.75 L 83.75 98.75 L 88.75 116.25 L 92.5 131.25 L 95.0 140.0 L 96.25 142.5 L 96.25 142.5 L 96.25 142.5 L 96.25 141.25 L 93.75 137.5 L 92.5 131.25 L 90.0 122.5 L 88.75 112.5 L 87.5 100.0 L 85.0 90.0 L 83.75 82.5 L 81.25 78.75 L 80.0 76.25 L 80.0 76.25 L 80.0 76.25 L 80.0 77.5 L 82.5 82.5 L 85.0 92.5 L 88.75 107.5 L 92.5 122.5 L 95.0 131.25 L 95.0 133.75 L 95.0 132.5 L 95.0 130.0 L 92.5 122.5 L 91.25 113.75 L 88.75 101.25 L 86.25 88.75 L 85.0 78.75 L 83.75 71.25 L 82.5 70.0 L 82.5 70.0 L 83.75 73.75 L 85.0 82.5 L 88.75 96.25 L 92.5 108.75 L 96.25 121.25 L 97.5 126.25 L 97.5 126.25 L 97.5 125.0 L 97.5 121.25 L 96.25 113.75 L 93.75 106.25 L 92.5 96.25 L 91.25 87.5 L 91.25 81.25 L 90.0 76.25 L 90.0 75.0 L 90.0 75.0 L 90.0 78.75 L 91.25 90.0 L 93.75 107.5 L 95.0 127.5 L 96.25 140.0 L 96.25 141.25 L 96.25 141.25 L 96.25 137.5 L 96.25 130.0 L 96.25 116.25 L 96.25 102.5 L 95.0 87.5 L 93.75 75.0 L 93.75 71.25 L 93.75 72.5 L 93.75 81.25 L 95.0 93.75 L 95.0 102.5 L 96.25 107.5 L 96.25 107.5 L 96.25 107.5 L 96.25 103.75 L 95.0 98.75 L 92.5 92.5 L 91.25 87.5 L 88.75 81.25 L 87.5 76.25 L 86.25 73.75 L 83.75 71.25 L 82.5 70.0 L 82.5 70.0 L 81.25 70.0 L 81.25 70.0 L 80.0 70.0 L 80.0 70.0 L 78.75 70.0 L 77.5 70.0 L 77.5 70.0 L 76.25 70.0 L 76.25 70.0 L 76.25 70.0 L 75.0 70.0 L 75.0 70.0 L 75.0 70.0 L 75.0 70.0 L 75.0 70.0 L 75.0 71.25 L 75.0 71.25 L 76.25 72.5 L 80.0 75.0 L 83.75 77.5 " stroke="black" fill="none" stroke-width="6.0" stroke-linecap="round" stroke-linejoin="round" />
<path d="M 92.5 115.0 L 92.5 113.75 L 91.25 112.5 L 91.25 112.5 L 91.25 112.5 L 91.25 121.25 L 95.0 143.75 L 97.5 173.75 L 97.5 196.25 L 97.5 203.75 L 97.5 203.75 L 97.5 202.5 L 98.75 197.5 L 98.75 190.0 L 98.75 178.75 L 98.75 163.75 L 98.75 146.25 L 97.5 131.25 L 96.25 121.25 L 96.25 117.5 L 96.25 120.0 L 96.25 133.75 L 96.25 157.5 L 97.5 183.75 L 98.75 206.25 L 98.75 216.25 L 100.0 216.25 L 100.0 213.75 L 101.25 206.25 L 101.25 196.25 L 102.5 182.5 L 103.75 163.75 L 103.75 146.25 L 103.75 133.75 L 103.75 132.5 L 103.75 143.75 L 103.75 168.75 L 103.75 192.5 L 103.75 208.75 L 103.75 213.75 L 103.75 212.5 L 103.75 206.25 L 105.0 196.25 L 106.25 185.0 L 106.25 168.75 L 107.5 151.25 L 107.5 141.25 L 107.5 141.25 L 107.5 156.25 L 107.5 185.0 L 107.5 208.75 L 108.75 225.0 L 110.0 228.75 L 110.0 227.5 L 110.0 222.5 L 110.0 213.75 L 111.25 201.25 L 111.25 186.25 L 111.25 168.75 L 110.0 153.75 L 110.0 148.75 L 108.75 152.5 L 108.75 173.75 L 110.0 198.75 L 111.25 220.0 L 112.5 232.5 L 112.5 235.0 L 112.5 232.5 L 112.5 227.5 L 112.5 217.5 L 113.75 203.75 L 113.75 188.75 L 112.5 173.75 L 111.25 161.25 L 110.0 160.0 L 110.0 166.25 L 110.0 187.5 L 110.0 206.25 L 110.0 220.0 L 110.0 222.5 L 110.0 221.25 L 108.75 216.25 L 107.5 207.5 L 106.25 197.5 L 105.0 185.0 L 105.0 166.25 L 103.75 150.0 L 103.75 140.0 L 102.5 140.0 L 101.25 146.25 L 101.25 166.25 L 100.0 192.5 L 100.0 211.25 L 100.0 220.0 L 100.0 220.0 L 100.0 217.5 L 100.0 210.0 L 100.0 198.75 L 101.25 185.0 L 101.25 167.5 L 101.25 152.5 L 101.25 147.5 L 100.0 152.5 L 98.75 171.25 L 97.5 192.5 L 96.25 208.75 L 96.25 218.75 L 96.25 218.75 L 96.25 216.25 L 96.25 207.5 L 97.5 196.25 L 100.0 183.75 L 100.0 167.5 L 100.0 158.75 L 100.0 157.5 L 98.75 170.0 L 96.25 190.0 L 95.0 207.5 L 93.75 218.75 L 93.75 221.25 L 93.75 220.0 L 93.75 215.0 L 95.0 205.0 L 96.25 193.75 L 97.5 181.25 L 98.75 170.0 L 98.75 166.25 L 97.5 172.5 L 95.0 190.0 L 92.5 208.75 L 91.25 223.75 L 91.25 231.25 L 91.25 231.25 L 91.25 226.25 L 93.75 215.0 L 96.25 202.5 L 97.5 190.0 L 98.75 176.25 L 98.75 168.75 L 98.75 167.5 L 96.25 177.5 L 93.75 193.75 L 91.25 208.75 L 88.75 220.0 L 87.5 225.0 L 87.5 225.0 L 87.5 218.75 L 90.0 210.0 L 92.5 198.75 L 93.75 187.5 L 96.25 175.0 L 96.25 167.5 L 96.25 167.5 L 96.25 176.25 L 95.0 193.75 L 92.5 208.75 L 90.0 222.5 L 90.0 227.5 L 90.0 227.5 L 90.0 222.5 L 91.25 213.75 L 92.5 205.0 L 95.0 193.75 L 96.25 180.0 L 98.75 166.25 L 98.75 157.5 L 98.75 153.75 L 98.75 152.5 L 98.75 153.75 L 98.75 155.0 L 98.75 155.0 L 98.75 155.0 L 98.75 156.25 L 98.75 157.5 L 98.75 157.5 L 98.75 158.75 L 98.75 158.75 L 98.75 157.5 L 98.75 155.0 L 98.75 152.5 L 98.75 148.75 L 98.75 143.75 L 98.75 137.5 L 98.75 133.75 L 98.75 128.75 L 98.75 125.0 L 98.75 122.5 L 97.5 120.0 L 97.5 118.75 L 96.25 118.75 L 96.25 117.5 L 96.25 117.5 " stroke="black" fill="none" stroke-width="6.0" stroke-linecap="round" stroke-linejoin="round" />
<path d="M 95.0 132.5 L 95.0 132.5 L 93.75 136.25 L 92.5 142.5 L 92.5 156.25 L 92.5 172.5 L 93.75 182.5 L 93.75 185.0 L 93.75 185.0 L 93.75 181.25 L 95.0 176.25 L 95.0 170.0 L 96.25 163.75 L 96.25 157.5 L 97.5 151.25 " stroke="black" fill="none" stroke-width="6.0" stroke-linecap="round" stroke-linejoin="round" />
<path d="M 87.5 206.25 L 86.25 206.25 L 85.0 206.25 L 85.0 206.25 L 83.75 206.25 L 83.75 207.5 L 83.75 207.5 L 83.75 207.5 L 83.75 208.75 L 83.75 210.0 L 83.75 210.0 L 83.75 211.25 L 83.75 211.25 L 83.75 211.25 L 83.75 211.25 L 85.0 211.25 L 86.25 211.25 L 87.5 210.0 L 88.75 208.75 L 88.75 208.75 L 90.0 208.75 L 90.0 208.75 L 90.0 207.5 L 90.0 207.5 L 90.0 207.5 L 90.0 207.5 L 90.0 207.5 L 90.0 207.5 L 90.0 208.75 L 90.0 210.0 L 88.75 212.5 L 86.25 216.25 L 85.0 220.0 L 82.5 223.75 L 81.25 226.25 L 80.0 230.0 L 78.75 232.5 L 77.5 233.75 L 76.25 235.0 L 76.25 236.25 L 76.25 236.25 L 75.0 236.25 L 75.0 236.25 L 75.0 236.25 L 75.0 236.25 L 73.75 236.25 L 73.75 236.25 L 73.75 236.25 L 73.75 236.25 L 72.5 237.5 L 72.5 237.5 L 72.5 237.5 L 72.5 238.75 L 71.25 238.75 L 71.25 238.75 L 71.25 238.75 L 71.25 238.75 L 71.25 238.75 L 71.25 240.0 L 71.25 240.0 L 71.25 240.0 L 71.25 240.0 L 71.25 240.0 L 71.25 241.25 L 71.25 241.25 L 71.25 241.25 L 73.75 241.25 L 77.5 241.25 L 82.5 240.0 L 86.25 240.0 L 91.25 240.0 L 95.0 240.0 L 98.75 240.0 L 101.25 238.75 L 103.75 238.75 L 106.25 238.75 L 107.5 238.75 L 107.5 238.75 L 107.5 238.75 L 107.5 238.75 L 107.5 238.75 L 106.25 237.5 L 105.0 235.0 L 103.75 231.25 L 102.5 225.0 L 101.25 217.5 L 101.25 211.25 L 101.25 207.5 L 101.25 205.0 L 101.25 203.75 L 101.25 203.75 L 102.5 208.75 L 102.5 220.0 L 102.5 232.5 L 102.5 241.25 L 102.5 245.0 L 102.5 246.25 L 102.5 245.0 L 103.75 240.0 L 103.75 233.75 L 103.75 226.25 L 103.75 220.0 L 103.75 216.25 L 102.5 215.0 L 97.5 218.75 L 91.25 228.75 L 83.75 238.75 L 80.0 245.0 L 78.75 246.25 L 82.5 245.0 L 88.75 237.5 L 95.0 231.25 L 100.0 225.0 L 102.5 221.25 L 102.5 220.0 L 101.25 222.5 L 96.25 228.75 L 91.25 235.0 L 88.75 240.0 L 86.25 242.5 L 86.25 242.5 L 88.75 237.5 L 92.5 231.25 L 96.25 225.0 L 97.5 221.25 L 98.75 220.0 L 96.25 222.5 L 91.25 228.75 L 87.5 236.25 L 83.75 240.0 L 83.75 241.25 L 85.0 240.0 L 90.0 233.75 L 93.75 227.5 L 95.0 223.75 L 96.25 222.5 L 95.0 222.5 L 91.25 227.5 L 87.5 233.75 L 85.0 238.75 L 82.5 241.25 L 82.5 241.25 L 85.0 238.75 L 90.0 231.25 L 92.5 225.0 L 93.75 221.25 L 93.75 220.0 L 91.25 222.5 L 85.0 231.25 L 78.75 240.0 L 76.25 246.25 L 75.0 248.75 L 78.75 246.25 L 83.75 240.0 L 87.5 233.75 L 90.0 227.5 L 91.25 223.75 L 91.25 222.5 L 91.25 222.5 L 87.5 227.5 L 82.5 235.0 L 80.0 240.0 L 77.5 243.75 L 77.5 243.75 L 78.75 241.25 L 83.75 235.0 L 87.5 227.5 L 92.5 221.25 L 95.0 216.25 L 97.5 213.75 " stroke="black" fill="none" stroke-width="6.0" stroke-linecap="round" stroke-linejoin="round" />
<path d="M 85.0 243.75 L 85.0 243.75 L 83.75 243.75 L 82.5 243.75 L 82.5 243.75 L 82.5 245.0 L 82.5 245.0 L 82.5 245.0 L 85.0 245.0 L 87.5 245.0 L 90.0 245.0 L 92.5 245.0 L 96.25 246.25 L 98.75 246.25 L 101.25 246.25 L 105.0 246.25 L 107.5 246.25 L 108.75 246.25 L 111.25 246.25 L 111.25 246.25 L 112.5 246.25 L 112.5 246.25 L 112.5 246.25 L 112.5 246.25 L 112.5 246.25 L 112.5 245.0 L 112.5 243.75 L 113.75 242.5 L 113.75 241.25 L 113.75 238.75 L 112.5 235.0 L 111.25 230.0 L 108.75 222.5 L 107.5 217.5 L 106.25 213.75 L 105.0 211.25 L 103.75 210.0 L 103.75 210.0 L 103.75 210.0 L 103.75 212.5 L 103.75 218.75 L 105.0 226.25 L 106.25 233.75 L 106.25 240.0 L 107.5 243.75 L 107.5 245.0 L 107.5 246.25 L 107.5 246.25 L 107.5 245.0 L 107.5 243.75 L 107.5 242.5 L 106.25 240.0 L 105.0 236.25 L 102.5 232.5 L 100.0 230.0 L 97.5 230.0 L 92.5 230.0 L 88.75 233.75 L 86.25 236.25 L 86.25 237.5 L 86.25 238.75 L 91.25 240.0 L 96.25 240.0 L 101.25 240.0 L 105.0 240.0 L 107.5 240.0 L 107.5 238.75 L 107.5 238.75 L 103.75 238.75 L 98.75 238.75 L 95.0 238.75 L 91.25 238.75 L 90.0 240.0 L 90.0 240.0 L 90.0 235.0 L 92.5 230.0 " stroke="black" fill="none" stroke-width="6.0" stroke-linecap="round" stroke-linejoin="round" />
<path d="M 98.75 228.75 L 96.25 228.75 L 92.5 230.0 L 91.25 230.0 L 91.25 231.25 L 91.25 231.25 L 93.75 230.0 L 96.25 228.75 L 98.75 227.5 L 101.25 226.25 L 101.25 226.25 L 101.25 228.75 L 100.0 233.75 L 96.25 238.75 L 93.75 242.5 L 92.5 243.75 L 92.5 245.0 L 92.5 243.75 L 95.0 242.5 L 96.25 241.25 L 96.25 240.0 L 97.5 240.0 L 97.5 238.75 L 97.5 238.75 L 97.5 238.75 L 98.75 238.75 L 98.75 236.25 L 100.0 233.75 " stroke="black" fill="none" stroke-width="6.0" stroke-linecap="round" stroke-linejoin="round" />
</svg>