<svg xmlns="http://www.w3.org/2000/svg" width="300" height="300" viewBox="0 0 300 300">
<path d="M 101.25 88.75 L 97.5 90.0 L 91.25 91.25 L 91.25 92.5 L 102.5 96.25 L 125.0 97.5 L 150.0 97.5 L 168.75 93.75 L 180.0 91.25 L 180.0 91.25 L 176.25 92.5 L 166.25 101.25 L 152.5 111.25 L 140.0 123.75 L 123.75 136.25 L 106.25 147.5 L 93.75 153.75 L 88.75 157.5 L 87.5 157.5 L 91.25 155.0 L 100.0 148.75 L 111.25 140.0 L 123.75 133.75 L 140.0 126.25 L 156.25 121.25 L 173.75 120.0 L 188.75 120.0 L 197.5 123.75 L 201.25 130.0 L 203.75 136.25 L 203.75 143.75 L 205.0 150.0 L 203.75 156.25 L 201.25 161.25 L 197.5 166.25 L 191.25 170.0 L 183.75 175.0 L 173.75 178.75 L 163.75 181.25 L 153.75 182.5 L 148.75 183.75 L 145.0 183.75 L 143.75 182.5 L 142.5 178.75 L 140.0 175.0 L 138.75 171.25 L 137.5 168.75 L 136.25 166.25 L 136.25 163.75 L 136.25 162.5 L 137.5 160.0 L 140.0 157.5 L 142.5 155.0 L 146.25 152.5 L 151.25 151.25 L 155.0 151.25 L 158.75 151.25 L 161.25 151.25 L 162.5 153.75 L 165.0 158.75 L 165.0 163.75 L 165.0 170.0 L 162.5 176.25 L 157.5 181.25 L 152.5 186.25 L 147.5 190.0 L 140.0 195.0 L 131.25 198.75 L 122.5 203.75 L 113.75 208.75 L 106.25 213.75 L 101.25 217.5 L 96.25 222.5 L 93.75 226.25 L 92.5 230.0 L 91.25 232.5 L 91.25 235.0 L 91.25 235.0 L 91.25 235.0 L 91.25 235.0 L 91.25 235.0 L 92.5 232.5 L 97.5 228.75 L 103.75 223.75 L 113.75 218.75 L 125.0 213.75 L 135.0 211.25 L 142.5 211.25 L 146.25 215.0 L 148.75 221.25 L 150.0 226.25 L 151.25 231.25 L 151.25 233.75 L 151.25 235.0 L 151.25 235.0 L 151.25 235.0 L 153.75 232.5 L 160.0 225.0 L 170.0 216.25 L 182.5 207.5 L 193.75 203.75 L 205.0 205.0 L 213.75 211.25 L 225.0 220.0 L 236.25 228.75 L 245.0 231.25 L 247.5 231.25 " stroke="black" fill="none" stroke-width="6.0" stroke-linecap="round" stroke-linejoin="round" />
</svg>