<svg xmlns="http://www.w3.org/2000/svg" width="300" height="300" viewBox="0 0 300 300">
<path d="M 106.25 110.0 L 105.0 110.0 L 105.0 110.0 L 113.75 110.0 L 136.25 110.0 L 165.0 106.25 L 185.0 102.5 L 191.25 98.75 L 187.5 98.75 " stroke="black" fill="none" stroke-width="6.0" stroke-linecap="round" stroke-linejoin="round" />
<path d="M 78.75 168.75 L 78.75 168.75 L 76.25 171.25 L 81.25 172.5 L 101.25 172.5 L 136.25 166.25 L 173.75 156.25 L 202.5 150.0 L 210.0 148.75 L 206.25 147.5 L 203.75 147.5 " stroke="black" fill="none" stroke-width="6.0" stroke-linecap="round" stroke-linejoin="round" />
<path d="M 147.5 127.5 L 147.5 126.25 L 147.5 126.25 L 151.25 136.25 L 157.5 176.25 L 153.75 220.0 L 141.25 248.75 L 123.75 260.0 L 110.0 260.0 L 105.0 251.25 " stroke="black" fill="none" stroke-width="6.0" stroke-linecap="round" stroke-linejoin="round" />
<path d="M 222.5 113.75 L 222.5 113.75 L 220.0 112.5 L 218.75 111.25 L 218.75 111.25 L 218.75 112.5 L 220.0 122.5 L 223.75 135.0 L 227.5 143.75 L 228.75 145.0 " stroke="black" fill="none" stroke-width="6.0" stroke-linecap="round" stroke-linejoin="round" />
<path d="M 242.5 107.5 L 242.5 107.5 L 241.25 106.25 L 241.25 105.0 L 243.75 110.0 L 250.0 127.5 L 252.5 143.75 " stroke="black" fill="none" stroke-width="6.0" stroke-linecap="round" stroke-linejoin="round" />
</svg>