<svg xmlns="http://www.w3.org/2000/svg" width="300" height="300" viewBox="0 0 300 300">
<path d="M 75.0 130.0 L 71.25 131.25 L 73.75 131.25 L 96.25 131.25 L 140.0 125.0 L 191.25 116.25 L 216.25 108.75 L 225.0 106.25 L 222.5 106.25 L 210.0 106.25 " stroke="black" fill="none" stroke-width="6.0" stroke-linecap="round" stroke-linejoin="round" />
<path d="M 117.5 88.75 L 117.5 88.75 L 113.75 90.0 L 113.75 103.75 L 113.75 138.75 L 115.0 170.0 L 117.5 186.25 L 117.5 187.5 " stroke="black" fill="none" stroke-width="6.0" stroke-linecap="round" stroke-linejoin="round" />
<path d="M 182.5 66.25 L 182.5 66.25 L 181.25 66.25 L 182.5 72.5 L 186.25 101.25 L 187.5 146.25 L 181.25 173.75 L 165.0 202.5 L 148.75 216.25 L 126.25 230.0 L 120.0 232.5 " stroke="black" fill="none" stroke-width="6.0" stroke-linecap="round" stroke-linejoin="round" />
</svg>