<svg xmlns="http://www.w3.org/2000/svg" width="300" height="300" viewBox="0 0 300 300">
<path d="M 151.25 87.5 L 150.0 87.5 L 146.25 87.5 L 143.75 88.75 L 145.0 93.75 L 156.25 102.5 L 170.0 111.25 L 180.0 118.75 L 181.25 122.5 L 168.75 132.5 L 153.75 140.0 " stroke="black" fill="none" stroke-width="6.0" stroke-linecap="round" stroke-linejoin="round" />
<path d="M 135.0 146.25 L 135.0 147.5 L 136.25 148.75 L 143.75 152.5 L 158.75 162.5 L 177.5 182.5 L 186.25 197.5 L 186.25 207.5 L 181.25 213.75 L 176.25 220.0 L 170.0 225.0 L 158.75 228.75 " stroke="black" fill="none" stroke-width="6.0" stroke-linecap="round" stroke-linejoin="round" />
<path d="M 86.25 190.0 L 85.0 190.0 L 80.0 191.25 L 77.5 195.0 L 80.0 203.75 L 91.25 217.5 L 106.25 227.5 L 118.75 230.0 " stroke="black" fill="none" stroke-width="6.0" stroke-linecap="round" stroke-linejoin="round" />
<path d="M 217.5 161.25 L 217.5 161.25 L 217.5 165.0 L 218.75 171.25 L 226.25 183.75 L 238.75 197.5 L 247.5 203.75 " stroke="black" fill="none" stroke-width="6.0" stroke-linecap="round" stroke-linejoin="round" />
<path d="M 210.0 88.75 L 210.0 90.0 L 208.75 95.0 L 210.0 106.25 L 216.25 117.5 L 225.0 123.75 " stroke="black" fill="none" stroke-width="6.0" stroke-linecap="round" stroke-linejoin="round" />
<path d="M 237.5 93.75 L 237.5 93.75 L 235.0 92.5 L 235.0 93.75 L 236.25 102.5 L 240.0 118.75 " stroke="black" fill="none" stroke-width="6.0" stroke-linecap="round" stroke-linejoin="round" />
</svg>