<svg xmlns="http://www.w3.org/2000/svg" width="300" height="300" viewBox="0 0 300 300">
<path d="M 136.25 87.5 L 133.75 87.5 L 133.75 87.5 L 143.75 90.0 L 156.25 92.5 L 170.0 95.0 L 181.25 97.5 L 178.75 100.0 " stroke="black" fill="none" stroke-width="6.0" stroke-linecap="round" stroke-linejoin="round" />
<path d="M 102.5 125.0 L 101.25 126.25 L 96.25 128.75 L 95.0 131.25 L 107.5 132.5 L 132.5 132.5 L 158.75 130.0 L 180.0 128.75 L 185.0 132.5 L 181.25 142.5 L 161.25 168.75 L 138.75 201.25 L 112.5 232.5 L 93.75 251.25 L 87.5 256.25 L 87.5 252.5 " stroke="black" fill="none" stroke-width="6.0" stroke-linecap="round" stroke-linejoin="round" />
<path d="M 147.5 182.5 L 146.25 183.75 L 145.0 188.75 L 148.75 206.25 L 162.5 228.75 L 185.0 242.5 L 210.0 241.25 L 227.5 228.75 L 237.5 215.0 " stroke="black" fill="none" stroke-width="6.0" stroke-linecap="round" stroke-linejoin="round" />
</svg>