<svg xmlns="http://www.w3.org/2000/svg" width="300" height="300" viewBox="0 0 300 300">
<path d="M 87.5 115.0 L 85.0 116.25 L 77.5 121.25 L 78.75 122.5 L 95.0 122.5 L 122.5 118.75 L 153.75 108.75 L 171.25 101.25 L 176.25 101.25 L 163.75 103.75 " stroke="black" fill="none" stroke-width="6.0" stroke-linecap="round" stroke-linejoin="round" />
<path d="M 121.25 85.0 L 121.25 82.5 L 121.25 81.25 L 123.75 86.25 L 128.75 115.0 L 135.0 162.5 L 138.75 202.5 L 138.75 217.5 L 136.25 226.25 L 132.5 230.0 L 123.75 230.0 L 111.25 227.5 L 96.25 218.75 L 87.5 208.75 L 83.75 198.75 L 87.5 191.25 L 103.75 178.75 L 132.5 165.0 L 166.25 157.5 L 193.75 162.5 L 206.25 182.5 L 207.5 202.5 L 201.25 222.5 L 191.25 241.25 L 181.25 252.5 L 171.25 258.75 L 160.0 261.25 L 157.5 261.25 " stroke="black" fill="none" stroke-width="6.0" stroke-linecap="round" stroke-linejoin="round" />
<path d="M 205.0 95.0 L 205.0 95.0 L 202.5 96.25 L 202.5 98.75 L 210.0 103.75 L 220.0 111.25 L 231.25 118.75 L 232.5 121.25 " stroke="black" fill="none" stroke-width="6.0" stroke-linecap="round" stroke-linejoin="round" />
</svg>