<svg xmlns="http://www.w3.org/2000/svg" width="300" height="300" viewBox="0 0 300 300">
<path d="M 105.0 100.0 L 105.0 100.0 L 106.25 100.0 L 121.25 101.25 L 155.0 97.5 L 188.75 88.75 L 203.75 81.25 L 207.5 77.5 L 200.0 82.5 L 197.5 83.75 " stroke="black" fill="none" stroke-width="6.0" stroke-linecap="round" stroke-linejoin="round" />
<path d="M 95.0 156.25 L 93.75 157.5 L 91.25 160.0 L 96.25 160.0 L 120.0 157.5 L 160.0 148.75 L 201.25 141.25 L 227.5 136.25 L 242.5 135.0 L 238.75 135.0 L 231.25 135.0 " stroke="black" fill="none" stroke-width="6.0" stroke-linecap="round" stroke-linejoin="round" />
<path d="M 163.75 101.25 L 163.75 101.25 L 163.75 101.25 L 167.5 110.0 L 176.25 142.5 L 175.0 186.25 L 160.0 220.0 L 143.75 241.25 L 122.5 252.5 L 102.5 255.0 L 98.75 253.75 " stroke="black" fill="none" stroke-width="6.0" stroke-linecap="round" stroke-linejoin="round" />
</svg>