<svg xmlns="http://www.w3.org/2000/svg" width="300" height="300" viewBox="0 0 300 300">
<path d="M 130.0 85.0 L 130.0 82.5 L 130.0 81.25 L 130.0 81.25 L 130.0 81.25 L 128.75 82.5 L 126.25 88.75 L 121.25 100.0 L 116.25 112.5 L 111.25 126.25 L 107.5 136.25 L 106.25 140.0 L 106.25 141.25 L 107.5 141.25 L 111.25 141.25 L 113.75 141.25 L 117.5 142.5 L 120.0 143.75 L 123.75 145.0 L 127.5 146.25 L 131.25 147.5 L 136.25 148.75 L 141.25 151.25 L 146.25 151.25 L 150.0 152.5 L 153.75 153.75 L 157.5 153.75 L 158.75 155.0 L 161.25 156.25 L 163.75 158.75 L 167.5 162.5 L 170.0 166.25 L 171.25 171.25 L 173.75 175.0 L 175.0 181.25 L 176.25 187.5 L 177.5 192.5 L 177.5 197.5 L 178.75 201.25 L 178.75 203.75 L 178.75 206.25 L 178.75 208.75 L 178.75 211.25 L 178.75 212.5 L 178.75 215.0 L 177.5 217.5 L 176.25 220.0 L 175.0 222.5 L 173.75 225.0 L 172.5 226.25 L 170.0 228.75 L 166.25 231.25 L 161.25 235.0 L 157.5 237.5 L 153.75 238.75 L 151.25 240.0 L 147.5 240.0 L 142.5 240.0 L 137.5 238.75 L 133.75 236.25 L 128.75 232.5 L 125.0 228.75 L 120.0 223.75 L 117.5 217.5 L 113.75 211.25 L 112.5 205.0 L 111.25 200.0 L 111.25 195.0 L 111.25 191.25 L 113.75 186.25 L 115.0 180.0 L 117.5 175.0 L 120.0 170.0 L 123.75 165.0 L 128.75 161.25 L 136.25 157.5 L 145.0 153.75 L 152.5 152.5 L 161.25 151.25 L 168.75 148.75 L 175.0 146.25 L 180.0 142.5 L 183.75 138.75 L 186.25 135.0 L 187.5 128.75 L 188.75 121.25 L 190.0 112.5 L 190.0 102.5 L 190.0 95.0 L 190.0 91.25 L 190.0 88.75 L 188.75 88.75 L 186.25 88.75 L 182.5 88.75 L 178.75 88.75 " stroke="black" fill="none" stroke-width="6.0" stroke-linecap="round" stroke-linejoin="round" />
</svg>