<svg xmlns="http://www.w3.org/2000/svg" width="300" height="300" viewBox="0 0 300 300">
<path d="M 92.5 118.75 L 85.0 121.25 L 80.0 122.5 L 80.0 122.5 L 91.25 120.0 L 115.0 110.0 L 140.0 100.0 L 155.0 93.75 L 156.25 93.75 L 150.0 100.0 L 138.75 117.5 L 126.25 141.25 L 115.0 176.25 L 111.25 211.25 L 121.25 232.5 L 141.25 242.5 L 165.0 242.5 L 191.25 232.5 L 210.0 215.0 L 220.0 200.0 L 221.25 186.25 L 216.25 172.5 L 207.5 157.5 L 201.25 146.25 L 198.75 142.5 L 198.75 142.5 L 198.75 142.5 L 200.0 145.0 L 206.25 155.0 L 218.75 175.0 L 235.0 193.75 L 251.25 203.75 L 261.25 207.5 L 263.75 208.75 " stroke="black" fill="none" stroke-width="6.0" stroke-linecap="round" stroke-linejoin="round" />
<path d="M 220.0 91.25 L 217.5 92.5 L 215.0 93.75 L 213.75 101.25 L 220.0 112.5 L 232.5 120.0 L 247.5 118.75 L 257.5 105.0 L 261.25 90.0 L 258.75 81.25 L 250.0 77.5 L 237.5 80.0 L 223.75 87.5 L 216.25 95.0 " stroke="black" fill="none" stroke-width="6.0" stroke-linecap="round" stroke-linejoin="round" />
</svg>