<svg xmlns="http://www.w3.org/2000/svg" width="300" height="300" viewBox="0 0 300 300">
<path d="M 77.5 66.25 L 77.5 67.5 L 73.75 67.5 L 72.5 67.5 L 71.25 68.75 L 71.25 68.75 L 71.25 68.75 L 75.0 68.75 L 82.5 68.75 L 90.0 70.0 L 98.75 70.0 L 110.0 70.0 L 117.5 70.0 L 123.75 70.0 L 125.0 70.0 L 126.25 71.25 L 126.25 71.25 L 126.25 71.25 L 126.25 71.25 L 126.25 72.5 L 126.25 72.5 L 126.25 73.75 L 126.25 73.75 L 126.25 75.0 L 126.25 76.25 L 126.25 76.25 L 126.25 77.5 L 127.5 78.75 L 127.5 81.25 L 127.5 83.75 L 127.5 87.5 L 127.5 92.5 L 126.25 100.0 L 126.25 110.0 L 126.25 120.0 L 126.25 132.5 L 125.0 143.75 L 125.0 153.75 L 125.0 163.75 L 125.0 173.75 L 125.0 182.5 L 125.0 191.25 L 125.0 197.5 L 125.0 202.5 L 126.25 208.75 L 126.25 212.5 L 126.25 218.75 L 126.25 223.75 L 126.25 227.5 L 126.25 231.25 L 126.25 236.25 L 127.5 238.75 L 127.5 240.0 L 127.5 242.5 L 127.5 243.75 L 127.5 246.25 L 127.5 247.5 L 127.5 247.5 L 127.5 247.5 L 127.5 247.5 L 127.5 248.75 L 127.5 250.0 L 127.5 251.25 L 126.25 252.5 L 126.25 253.75 L 126.25 255.0 L 126.25 255.0 L 126.25 256.25 L 126.25 256.25 L 126.25 256.25 L 126.25 256.25 L 126.25 256.25 L 126.25 256.25 L 126.25 256.25 L 126.25 256.25 L 126.25 256.25 L 125.0 256.25 L 125.0 255.0 L 123.75 253.75 L 121.25 253.75 L 118.75 252.5 L 115.0 252.5 L 110.0 252.5 L 105.0 252.5 L 100.0 252.5 L 95.0 252.5 L 90.0 252.5 L 86.25 252.5 L 82.5 252.5 L 80.0 252.5 L 76.25 252.5 L 75.0 252.5 L 72.5 251.25 L 70.0 251.25 L 67.5 250.0 L 65.0 248.75 L 63.75 248.75 L 61.25 247.5 L 61.25 246.25 L 60.0 246.25 L 60.0 246.25 L 60.0 246.25 L 60.0 246.25 L 61.25 246.25 L 62.5 246.25 L 65.0 245.0 L 68.75 243.75 L 72.5 241.25 L 76.25 238.75 L 81.25 235.0 L 85.0 231.25 L 87.5 227.5 L 88.75 222.5 L 90.0 220.0 L 91.25 217.5 L 91.25 215.0 L 92.5 213.75 L 93.75 211.25 L 95.0 210.0 L 95.0 207.5 L 96.25 205.0 L 96.25 203.75 L 97.5 201.25 L 97.5 200.0 L 97.5 198.75 L 98.75 196.25 L 98.75 195.0 L 100.0 192.5 L 100.0 191.25 L 101.25 190.0 L 101.25 187.5 L 102.5 185.0 L 102.5 182.5 L 102.5 181.25 L 103.75 178.75 L 103.75 176.25 L 103.75 172.5 L 103.75 170.0 L 105.0 167.5 L 105.0 163.75 L 105.0 161.25 L 105.0 158.75 L 105.0 156.25 L 105.0 153.75 L 105.0 150.0 L 105.0 146.25 L 105.0 142.5 L 105.0 140.0 L 105.0 136.25 L 105.0 132.5 L 103.75 128.75 L 103.75 125.0 L 102.5 121.25 L 101.25 118.75 L 100.0 116.25 L 98.75 113.75 L 97.5 111.25 L 96.25 108.75 L 96.25 106.25 L 95.0 103.75 L 93.75 101.25 L 92.5 100.0 L 92.5 97.5 L 91.25 96.25 L 90.0 95.0 L 88.75 92.5 L 87.5 91.25 L 86.25 88.75 L 85.0 87.5 L 83.75 85.0 L 82.5 82.5 L 81.25 80.0 L 78.75 77.5 L 77.5 76.25 L 76.25 73.75 L 75.0 72.5 L 73.75 71.25 L 72.5 71.25 L 71.25 70.0 L 71.25 70.0 L 71.25 70.0 L 71.25 70.0 L 71.25 70.0 L 71.25 71.25 " stroke="black" fill="none" stroke-width="6.0" stroke-linecap="round" stroke-linejoin="round" />
</svg>