<svg xmlns="http://www.w3.org/2000/svg" width="300" height="300" viewBox="0 0 300 300">
<path d="M 83.75 120.0 L 80.0 121.25 L 75.0 121.25 L 78.75 122.5 L 96.25 123.75 L 131.25 121.25 L 170.0 115.0 L 200.0 112.5 L 210.0 120.0 L 211.25 138.75 L 207.5 167.5 L 198.75 201.25 L 192.5 220.0 L 186.25 231.25 L 181.25 235.0 L 178.75 235.0 L 173.75 232.5 L 167.5 227.5 L 161.25 218.75 L 151.25 210.0 L 147.5 208.75 " stroke="black" fill="none" stroke-width="6.0" stroke-linecap="round" stroke-linejoin="round" />
<path d="M 138.75 80.0 L 137.5 80.0 L 136.25 80.0 L 133.75 80.0 L 127.5 103.75 L 110.0 156.25 L 88.75 210.0 L 67.5 241.25 L 61.25 246.25 " stroke="black" fill="none" stroke-width="6.0" stroke-linecap="round" stroke-linejoin="round" />
</svg>