<svg xmlns="http://www.w3.org/2000/svg" width="300" height="300" viewBox="0 0 300 300">
<path d="M 93.75 130.0 L 91.25 128.75 L 87.5 132.5 L 85.0 161.25 L 85.0 205.0 L 87.5 231.25 L 90.0 237.5 L 90.0 237.5 " stroke="black" fill="none" stroke-width="6.0" stroke-linecap="round" stroke-linejoin="round" />
<path d="M 92.5 122.5 L 92.5 122.5 L 91.25 122.5 L 100.0 121.25 L 130.0 117.5 L 168.75 111.25 L 196.25 110.0 L 210.0 115.0 L 215.0 137.5 L 215.0 173.75 L 213.75 213.75 L 213.75 241.25 L 213.75 250.0 L 213.75 250.0 L 212.5 247.5 L 205.0 241.25 L 198.75 237.5 " stroke="black" fill="none" stroke-width="6.0" stroke-linecap="round" stroke-linejoin="round" />
<path d="M 96.25 238.75 L 93.75 238.75 L 87.5 241.25 L 85.0 242.5 L 95.0 242.5 L 123.75 238.75 L 160.0 235.0 L 193.75 231.25 L 212.5 231.25 L 212.5 231.25 " stroke="black" fill="none" stroke-width="6.0" stroke-linecap="round" stroke-linejoin="round" />
</svg>