<svg xmlns="http://www.w3.org/2000/svg" width="300" height="300" viewBox="0 0 300 300">
<path d="M 60.0 108.75 L 57.5 111.25 L 55.0 112.5 L 62.5 115.0 L 87.5 112.5 L 120.0 101.25 L 146.25 90.0 L 155.0 83.75 L 153.75 80.0 L 146.25 76.25 L 135.0 75.0 L 125.0 75.0 L 116.25 81.25 L 110.0 103.75 L 107.5 155.0 L 101.25 210.0 L 97.5 237.5 L 97.5 242.5 L 96.25 241.25 " stroke="black" fill="none" stroke-width="6.0" stroke-linecap="round" stroke-linejoin="round" />
<path d="M 153.75 143.75 L 153.75 142.5 L 153.75 141.25 L 157.5 140.0 L 167.5 141.25 L 181.25 145.0 L 190.0 148.75 L 191.25 152.5 " stroke="black" fill="none" stroke-width="6.0" stroke-linecap="round" stroke-linejoin="round" />
<path d="M 153.75 207.5 L 151.25 217.5 L 152.5 225.0 L 162.5 227.5 L 183.75 226.25 L 203.75 220.0 L 216.25 217.5 L 217.5 217.5 L 216.25 217.5 " stroke="black" fill="none" stroke-width="6.0" stroke-linecap="round" stroke-linejoin="round" />
</svg>