<svg xmlns="http://www.w3.org/2000/svg" width="300" height="300" viewBox="0 0 300 300">
<path d="M 87.5 123.75 L 87.5 125.0 L 87.5 126.25 L 103.75 126.25 L 142.5 120.0 L 178.75 111.25 L 198.75 106.25 L 201.25 105.0 L 192.5 106.25 L 188.75 107.5 " stroke="black" fill="none" stroke-width="6.0" stroke-linecap="round" stroke-linejoin="round" />
<path d="M 121.25 131.25 L 120.0 131.25 L 118.75 132.5 L 118.75 138.75 L 120.0 161.25 L 120.0 190.0 L 115.0 203.75 L 105.0 206.25 L 98.75 206.25 " stroke="black" fill="none" stroke-width="6.0" stroke-linecap="round" stroke-linejoin="round" />
<path d="M 85.0 198.75 L 83.75 198.75 L 83.75 200.0 L 87.5 200.0 L 110.0 200.0 L 150.0 198.75 L 190.0 200.0 L 218.75 203.75 L 231.25 203.75 L 233.75 201.25 L 223.75 197.5 L 221.25 196.25 " stroke="black" fill="none" stroke-width="6.0" stroke-linecap="round" stroke-linejoin="round" />
<path d="M 177.5 75.0 L 177.5 75.0 L 177.5 73.75 L 177.5 73.75 L 180.0 87.5 L 182.5 137.5 L 178.75 202.5 L 173.75 240.0 L 170.0 257.5 L 160.0 267.5 " stroke="black" fill="none" stroke-width="6.0" stroke-linecap="round" stroke-linejoin="round" />
</svg>