<svg xmlns="http://www.w3.org/2000/svg" width="300" height="300" viewBox="0 0 300 300">
<path d="M 90.0 118.75 L 90.0 118.75 L 93.75 118.75 L 122.5 115.0 L 160.0 107.5 L 187.5 101.25 L 201.25 97.5 L 203.75 96.25 L 203.75 96.25 L 203.75 102.5 L 203.75 128.75 L 203.75 167.5 L 207.5 202.5 L 210.0 213.75 L 211.25 217.5 L 211.25 217.5 L 210.0 217.5 L 205.0 216.25 L 202.5 216.25 " stroke="black" fill="none" stroke-width="6.0" stroke-linecap="round" stroke-linejoin="round" />
<path d="M 98.75 216.25 L 98.75 216.25 L 93.75 217.5 L 92.5 217.5 L 92.5 217.5 L 101.25 216.25 L 123.75 212.5 L 150.0 208.75 L 178.75 206.25 L 198.75 205.0 L 206.25 205.0 L 207.5 203.75 L 207.5 203.75 L 206.25 201.25 " stroke="black" fill="none" stroke-width="6.0" stroke-linecap="round" stroke-linejoin="round" />
</svg>