<svg xmlns="http://www.w3.org/2000/svg" width="300" height="300" viewBox="0 0 300 300">
<path d="M 101.25 116.25 L 97.5 115.0 L 96.25 115.0 L 101.25 122.5 L 118.75 148.75 L 142.5 187.5 L 162.5 211.25 L 177.5 220.0 L 183.75 222.5 L 176.25 217.5 L 173.75 215.0 " stroke="black" fill="none" stroke-width="6.0" stroke-linecap="round" stroke-linejoin="round" />
<path d="M 166.25 116.25 L 167.5 113.75 L 170.0 111.25 L 177.5 115.0 L 182.5 140.0 L 180.0 175.0 L 165.0 207.5 L 148.75 226.25 L 131.25 235.0 L 108.75 237.5 L 92.5 228.75 L 86.25 210.0 L 86.25 185.0 L 103.75 153.75 L 133.75 132.5 L 167.5 125.0 L 200.0 140.0 L 217.5 170.0 L 226.25 203.75 L 226.25 227.5 L 220.0 241.25 L 213.75 245.0 L 207.5 245.0 " stroke="black" fill="none" stroke-width="6.0" stroke-linecap="round" stroke-linejoin="round" />
</svg>