<svg xmlns="http://www.w3.org/2000/svg" width="300" height="300" viewBox="0 0 300 300">
<path d="M 158.75 77.5 L 156.25 77.5 L 153.75 78.75 L 148.75 96.25 L 131.25 130.0 L 105.0 157.5 L 87.5 168.75 L 76.25 168.75 L 73.75 158.75 " stroke="black" fill="none" stroke-width="6.0" stroke-linecap="round" stroke-linejoin="round" />
<path d="M 136.25 111.25 L 140.0 111.25 L 147.5 111.25 L 161.25 113.75 L 180.0 116.25 L 200.0 116.25 L 213.75 116.25 L 217.5 115.0 L 217.5 115.0 L 212.5 122.5 L 202.5 142.5 L 187.5 180.0 L 165.0 217.5 L 141.25 250.0 L 120.0 266.25 L 107.5 270.0 L 101.25 261.25 L 100.0 257.5 " stroke="black" fill="none" stroke-width="6.0" stroke-linecap="round" stroke-linejoin="round" />
<path d="M 200.0 68.75 L 198.75 68.75 L 197.5 68.75 L 198.75 73.75 L 203.75 90.0 L 210.0 101.25 L 218.75 113.75 L 218.75 113.75 " stroke="black" fill="none" stroke-width="6.0" stroke-linecap="round" stroke-linejoin="round" />
<path d="M 223.75 67.5 L 222.5 63.75 L 222.5 62.5 L 225.0 67.5 L 233.75 86.25 L 237.5 106.25 " stroke="black" fill="none" stroke-width="6.0" stroke-linecap="round" stroke-linejoin="round" />
</svg>