<svg xmlns="http://www.w3.org/2000/svg" width="300" height="300" viewBox="0 0 300 300">
<path d="M 146.25 77.5 L 142.5 78.75 L 138.75 80.0 L 138.75 80.0 L 142.5 82.5 L 155.0 88.75 L 168.75 96.25 L 176.25 102.5 L 176.25 107.5 L 162.5 115.0 L 146.25 122.5 L 131.25 130.0 L 123.75 132.5 " stroke="black" fill="none" stroke-width="6.0" stroke-linecap="round" stroke-linejoin="round" />
<path d="M 135.0 140.0 L 133.75 140.0 L 132.5 142.5 L 133.75 146.25 L 142.5 155.0 L 152.5 170.0 L 166.25 202.5 L 168.75 220.0 L 162.5 230.0 L 151.25 235.0 L 137.5 235.0 L 130.0 231.25 " stroke="black" fill="none" stroke-width="6.0" stroke-linecap="round" stroke-linejoin="round" />
<path d="M 73.75 190.0 L 63.75 192.5 L 60.0 195.0 L 58.75 208.75 L 66.25 228.75 L 82.5 238.75 L 91.25 238.75 " stroke="black" fill="none" stroke-width="6.0" stroke-linecap="round" stroke-linejoin="round" />
<path d="M 190.0 161.25 L 190.0 165.0 L 192.5 173.75 L 202.5 188.75 L 213.75 202.5 L 222.5 208.75 L 223.75 208.75 " stroke="black" fill="none" stroke-width="6.0" stroke-linecap="round" stroke-linejoin="round" />
<path d="M 206.25 101.25 L 205.0 102.5 L 202.5 103.75 L 201.25 107.5 L 202.5 116.25 L 210.0 125.0 L 222.5 130.0 L 235.0 125.0 L 241.25 113.75 L 242.5 103.75 L 235.0 95.0 L 223.75 91.25 L 212.5 92.5 L 205.0 101.25 L 203.75 110.0 " stroke="black" fill="none" stroke-width="6.0" stroke-linecap="round" stroke-linejoin="round" />
</svg>