<svg xmlns="http://www.w3.org/2000/svg" width="300" height="300" viewBox="0 0 300 300">
<path d="M 125.0 87.5 L 125.0 86.25 L 122.5 83.75 L 122.5 83.75 L 122.5 101.25 L 125.0 155.0 L 126.25 221.25 L 126.25 258.75 L 128.75 265.0 L 130.0 263.75 L 126.25 251.25 L 117.5 235.0 " stroke="black" fill="none" stroke-width="6.0" stroke-linecap="round" stroke-linejoin="round" />
<path d="M 73.75 133.75 L 71.25 133.75 L 61.25 133.75 L 61.25 133.75 L 68.75 133.75 L 87.5 133.75 L 106.25 133.75 L 122.5 138.75 L 126.25 157.5 L 110.0 188.75 L 91.25 213.75 L 76.25 227.5 L 72.5 228.75 L 76.25 220.0 L 90.0 198.75 L 107.5 175.0 L 135.0 150.0 L 158.75 133.75 L 175.0 130.0 L 185.0 133.75 L 192.5 143.75 L 193.75 161.25 L 191.25 187.5 L 186.25 213.75 L 186.25 233.75 L 193.75 246.25 L 205.0 251.25 L 217.5 252.5 L 238.75 245.0 L 256.25 231.25 L 260.0 223.75 " stroke="black" fill="none" stroke-width="6.0" stroke-linecap="round" stroke-linejoin="round" />
</svg>