<svg xmlns="http://www.w3.org/2000/svg" width="300" height="300" viewBox="0 0 300 300">
<path d="M 91.25 128.75 L 87.5 132.5 L 87.5 133.75 L 101.25 136.25 L 127.5 136.25 L 156.25 137.5 L 175.0 146.25 L 180.0 166.25 L 171.25 195.0 L 156.25 221.25 L 141.25 238.75 L 126.25 248.75 L 116.25 247.5 L 110.0 236.25 L 107.5 231.25 " stroke="black" fill="none" stroke-width="6.0" stroke-linecap="round" stroke-linejoin="round" />
<path d="M 136.25 85.0 L 136.25 83.75 L 132.5 86.25 L 122.5 112.5 L 101.25 166.25 L 81.25 215.0 L 63.75 245.0 L 57.5 250.0 " stroke="black" fill="none" stroke-width="6.0" stroke-linecap="round" stroke-linejoin="round" />
<path d="M 205.0 111.25 L 205.0 111.25 L 202.5 112.5 L 202.5 113.75 L 205.0 117.5 L 215.0 130.0 L 226.25 146.25 L 233.75 158.75 L 236.25 167.5 " stroke="black" fill="none" stroke-width="6.0" stroke-linecap="round" stroke-linejoin="round" />
</svg>