<svg xmlns="http://www.w3.org/2000/svg" width="300" height="300" viewBox="0 0 300 300">
<path d="M 98.75 110.0 L 92.5 111.25 L 91.25 112.5 L 97.5 116.25 L 118.75 118.75 L 147.5 118.75 L 176.25 111.25 L 196.25 106.25 L 202.5 105.0 L 202.5 105.0 L 201.25 105.0 L 198.75 107.5 L 196.25 118.75 L 190.0 143.75 L 178.75 173.75 L 162.5 201.25 L 142.5 218.75 L 123.75 228.75 L 107.5 232.5 L 98.75 222.5 L 98.75 218.75 " stroke="black" fill="none" stroke-width="6.0" stroke-linecap="round" stroke-linejoin="round" />
<path d="M 192.5 72.5 L 192.5 72.5 L 192.5 72.5 L 192.5 73.75 L 196.25 80.0 L 202.5 91.25 L 207.5 101.25 L 208.75 102.5 " stroke="black" fill="none" stroke-width="6.0" stroke-linecap="round" stroke-linejoin="round" />
<path d="M 228.75 67.5 L 228.75 67.5 L 226.25 67.5 L 226.25 72.5 L 226.25 91.25 L 227.5 111.25 " stroke="black" fill="none" stroke-width="6.0" stroke-linecap="round" stroke-linejoin="round" />
</svg>