<svg xmlns="http://www.w3.org/2000/svg" width="300" height="300" viewBox="0 0 300 300">
<path d="M 98.75 122.5 L 98.75 121.25 L 97.5 120.0 L 97.5 118.75 L 97.5 118.75 L 97.5 118.75 L 97.5 120.0 L 97.5 128.75 L 97.5 143.75 L 97.5 161.25 L 96.25 181.25 L 95.0 200.0 L 93.75 208.75 L 93.75 213.75 L 93.75 215.0 L 93.75 215.0 L 93.75 213.75 L 93.75 213.75 L 93.75 213.75 L 93.75 213.75 L 93.75 212.5 L 92.5 212.5 L 92.5 212.5 L 91.25 211.25 L 90.0 211.25 L 88.75 211.25 L 86.25 211.25 L 82.5 211.25 L 78.75 211.25 L 73.75 212.5 L 68.75 213.75 L 65.0 213.75 L 62.5 215.0 L 60.0 215.0 L 60.0 215.0 L 60.0 215.0 L 60.0 215.0 L 60.0 215.0 L 61.25 215.0 L 61.25 215.0 L 61.25 215.0 L 61.25 216.25 L 61.25 218.75 L 61.25 222.5 L 61.25 228.75 L 61.25 236.25 L 61.25 245.0 L 61.25 251.25 L 61.25 255.0 L 61.25 255.0 L 62.5 255.0 L 62.5 255.0 L 62.5 255.0 L 62.5 253.75 L 63.75 253.75 L 65.0 252.5 L 66.25 252.5 L 68.75 252.5 L 71.25 252.5 L 75.0 251.25 L 78.75 251.25 L 85.0 251.25 L 90.0 250.0 L 95.0 250.0 L 98.75 248.75 L 102.5 248.75 L 106.25 248.75 L 110.0 248.75 L 113.75 248.75 L 117.5 248.75 L 118.75 248.75 L 120.0 247.5 L 121.25 247.5 L 121.25 247.5 L 121.25 247.5 L 121.25 247.5 L 121.25 246.25 L 121.25 246.25 L 121.25 245.0 L 121.25 242.5 L 122.5 238.75 L 122.5 233.75 L 122.5 225.0 L 122.5 213.75 L 122.5 202.5 L 122.5 191.25 L 122.5 181.25 L 122.5 173.75 L 122.5 165.0 L 122.5 156.25 L 122.5 148.75 L 123.75 140.0 L 125.0 135.0 L 126.25 132.5 L 126.25 131.25 L 126.25 130.0 L 126.25 128.75 L 125.0 128.75 L 125.0 127.5 L 123.75 127.5 L 122.5 125.0 L 121.25 123.75 L 120.0 122.5 L 117.5 121.25 L 116.25 120.0 L 113.75 118.75 L 111.25 117.5 L 108.75 117.5 L 105.0 117.5 L 102.5 117.5 L 100.0 117.5 L 98.75 117.5 L 97.5 117.5 L 96.25 117.5 L 95.0 117.5 L 95.0 117.5 L 93.75 117.5 L 95.0 117.5 L 95.0 116.25 " stroke="black" fill="none" stroke-width="6.0" stroke-linecap="round" stroke-linejoin="round" />
</svg>