<svg xmlns="http://www.w3.org/2000/svg" width="300" height="300" viewBox="0 0 300 300">
<path d="M 140.0 70.0 L 138.75 68.75 L 135.0 68.75 L 131.25 73.75 L 121.25 98.75 L 106.25 137.5 L 95.0 157.5 L 90.0 160.0 " stroke="black" fill="none" stroke-width="6.0" stroke-linecap="round" stroke-linejoin="round" />
<path d="M 118.75 101.25 L 118.75 101.25 L 123.75 101.25 L 141.25 102.5 L 163.75 102.5 L 188.75 105.0 L 202.5 108.75 L 206.25 113.75 L 205.0 123.75 L 196.25 145.0 L 180.0 175.0 L 156.25 208.75 L 136.25 235.0 L 118.75 248.75 L 105.0 252.5 L 101.25 250.0 " stroke="black" fill="none" stroke-width="6.0" stroke-linecap="round" stroke-linejoin="round" />
<path d="M 123.75 167.5 L 122.5 167.5 L 122.5 168.75 L 128.75 173.75 L 146.25 187.5 L 172.5 208.75 L 197.5 227.5 L 206.25 235.0 " stroke="black" fill="none" stroke-width="6.0" stroke-linecap="round" stroke-linejoin="round" />
<path d="M 205.0 67.5 L 205.0 67.5 L 202.5 66.25 L 201.25 66.25 L 201.25 66.25 L 203.75 76.25 L 207.5 87.5 L 212.5 96.25 L 212.5 96.25 " stroke="black" fill="none" stroke-width="6.0" stroke-linecap="round" stroke-linejoin="round" />
<path d="M 231.25 62.5 L 231.25 61.25 L 230.0 61.25 L 230.0 66.25 L 232.5 80.0 L 237.5 100.0 " stroke="black" fill="none" stroke-width="6.0" stroke-linecap="round" stroke-linejoin="round" />
</svg>