<svg xmlns="http://www.w3.org/2000/svg" width="300" height="300" viewBox="0 0 300 300">
<path d="M 93.75 125.0 L 90.0 127.5 L 87.5 130.0 L 93.75 130.0 L 117.5 127.5 L 146.25 120.0 L 170.0 112.5 L 175.0 111.25 L 171.25 111.25 " stroke="black" fill="none" stroke-width="6.0" stroke-linecap="round" stroke-linejoin="round" />
<path d="M 125.0 98.75 L 120.0 98.75 L 118.75 97.5 L 127.5 107.5 L 145.0 130.0 L 162.5 157.5 L 168.75 170.0 L 166.25 172.5 L 155.0 173.75 L 140.0 175.0 L 122.5 178.75 L 107.5 186.25 L 103.75 196.25 L 108.75 211.25 L 126.25 232.5 L 147.5 252.5 L 168.75 260.0 L 190.0 261.25 L 200.0 255.0 L 200.0 245.0 " stroke="black" fill="none" stroke-width="6.0" stroke-linecap="round" stroke-linejoin="round" />
<path d="M 205.0 78.75 L 205.0 77.5 L 203.75 76.25 L 202.5 77.5 L 206.25 86.25 L 213.75 98.75 L 218.75 105.0 " stroke="black" fill="none" stroke-width="6.0" stroke-linecap="round" stroke-linejoin="round" />
<path d="M 230.0 72.5 L 228.75 71.25 L 227.5 70.0 L 228.75 73.75 L 235.0 88.75 L 236.25 93.75 " stroke="black" fill="none" stroke-width="6.0" stroke-linecap="round" stroke-linejoin="round" />
</svg>