<svg xmlns="http://www.w3.org/2000/svg" width="300" height="300" viewBox="0 0 300 300">
<path d="M 147.5 111.25 L 147.5 107.5 L 147.5 102.5 L 148.75 101.25 L 148.75 107.5 L 143.75 133.75 L 133.75 167.5 L 117.5 201.25 L 102.5 223.75 L 98.75 232.5 L 98.75 233.75 L 107.5 233.75 L 127.5 233.75 L 151.25 233.75 L 178.75 230.0 L 205.0 227.5 L 213.75 225.0 L 215.0 223.75 L 213.75 223.75 L 211.25 216.25 L 208.75 211.25 " stroke="black" fill="none" stroke-width="6.0" stroke-linecap="round" stroke-linejoin="round" />
<path d="M 200.0 163.75 L 198.75 163.75 L 196.25 163.75 L 197.5 167.5 L 210.0 185.0 L 227.5 211.25 L 240.0 233.75 L 241.25 241.25 " stroke="black" fill="none" stroke-width="6.0" stroke-linecap="round" stroke-linejoin="round" />
</svg>