<svg xmlns="http://www.w3.org/2000/svg" width="300" height="300" viewBox="0 0 300 300">
<path d="M 100.0 123.75 L 92.5 123.75 L 88.75 125.0 L 92.5 125.0 L 111.25 125.0 L 138.75 120.0 L 161.25 111.25 L 170.0 107.5 L 168.75 107.5 L 156.25 120.0 L 142.5 140.0 L 125.0 171.25 L 111.25 211.25 L 115.0 242.5 L 133.75 255.0 L 156.25 257.5 L 185.0 250.0 L 207.5 235.0 L 217.5 217.5 L 220.0 203.75 L 216.25 191.25 L 208.75 175.0 L 202.5 156.25 L 196.25 142.5 L 193.75 138.75 L 193.75 140.0 L 193.75 141.25 L 196.25 143.75 L 202.5 153.75 L 213.75 170.0 L 226.25 187.5 L 241.25 198.75 L 251.25 201.25 L 255.0 201.25 L 252.5 198.75 L 251.25 197.5 " stroke="black" fill="none" stroke-width="6.0" stroke-linecap="round" stroke-linejoin="round" />
<path d="M 207.5 82.5 L 205.0 82.5 L 201.25 83.75 L 200.0 85.0 L 201.25 92.5 L 207.5 102.5 L 215.0 108.75 L 217.5 108.75 " stroke="black" fill="none" stroke-width="6.0" stroke-linecap="round" stroke-linejoin="round" />
<path d="M 232.5 76.25 L 232.5 73.75 L 232.5 72.5 L 235.0 77.5 L 240.0 97.5 L 240.0 103.75 " stroke="black" fill="none" stroke-width="6.0" stroke-linecap="round" stroke-linejoin="round" />
</svg>