<svg xmlns="http://www.w3.org/2000/svg" width="300" height="300" viewBox="0 0 300 300">
<path d="M 90.0 108.75 L 87.5 108.75 L 85.0 108.75 L 87.5 110.0 L 105.0 111.25 L 136.25 112.5 L 171.25 107.5 L 195.0 102.5 L 203.75 101.25 L 207.5 101.25 L 207.5 101.25 L 205.0 101.25 L 201.25 107.5 L 196.25 123.75 L 190.0 148.75 L 178.75 178.75 L 161.25 202.5 L 142.5 218.75 L 121.25 230.0 L 106.25 232.5 L 100.0 223.75 L 98.75 215.0 " stroke="black" fill="none" stroke-width="6.0" stroke-linecap="round" stroke-linejoin="round" />
<path d="M 213.75 80.0 L 212.5 80.0 L 208.75 80.0 L 207.5 83.75 L 210.0 95.0 L 220.0 106.25 L 231.25 108.75 L 242.5 103.75 L 246.25 92.5 L 246.25 82.5 L 238.75 75.0 L 226.25 75.0 L 215.0 82.5 L 210.0 88.75 " stroke="black" fill="none" stroke-width="6.0" stroke-linecap="round" stroke-linejoin="round" />
</svg>