<svg xmlns="http://www.w3.org/2000/svg" width="300" height="300" viewBox="0 0 300 300">
<path d="M 102.5 98.75 L 101.25 97.5 L 98.75 97.5 L 105.0 96.25 L 125.0 97.5 L 152.5 101.25 L 176.25 102.5 L 188.75 101.25 L 190.0 101.25 L 185.0 101.25 " stroke="black" fill="none" stroke-width="6.0" stroke-linecap="round" stroke-linejoin="round" />
<path d="M 77.5 146.25 L 76.25 146.25 L 76.25 147.5 L 88.75 148.75 L 120.0 148.75 L 162.5 145.0 L 191.25 140.0 L 215.0 132.5 L 220.0 130.0 L 215.0 130.0 " stroke="black" fill="none" stroke-width="6.0" stroke-linecap="round" stroke-linejoin="round" />
<path d="M 156.25 143.75 L 156.25 145.0 L 156.25 148.75 L 156.25 167.5 L 155.0 200.0 L 145.0 227.5 L 126.25 246.25 L 105.0 250.0 L 96.25 248.75 " stroke="black" fill="none" stroke-width="6.0" stroke-linecap="round" stroke-linejoin="round" />
<path d="M 202.5 65.0 L 200.0 66.25 L 196.25 67.5 L 196.25 71.25 L 200.0 82.5 L 206.25 93.75 L 212.5 100.0 L 212.5 100.0 " stroke="black" fill="none" stroke-width="6.0" stroke-linecap="round" stroke-linejoin="round" />
<path d="M 233.75 65.0 L 233.75 63.75 L 232.5 62.5 L 232.5 65.0 L 236.25 78.75 L 238.75 106.25 " stroke="black" fill="none" stroke-width="6.0" stroke-linecap="round" stroke-linejoin="round" />
</svg>