<svg xmlns="http://www.w3.org/2000/svg" width="300" height="300" viewBox="0 0 300 300">
<path d="M 93.75 130.0 L 91.25 131.25 L 88.75 133.75 L 92.5 136.25 L 113.75 137.5 L 148.75 133.75 L 181.25 123.75 L 200.0 116.25 L 203.75 115.0 L 200.0 115.0 L 193.75 116.25 " stroke="black" fill="none" stroke-width="6.0" stroke-linecap="round" stroke-linejoin="round" />
<path d="M 136.25 113.75 L 136.25 112.5 L 136.25 112.5 L 136.25 128.75 L 140.0 183.75 L 148.75 231.25 L 156.25 247.5 L 163.75 255.0 L 170.0 255.0 L 171.25 251.25 L 171.25 250.0 " stroke="black" fill="none" stroke-width="6.0" stroke-linecap="round" stroke-linejoin="round" />
<path d="M 161.25 171.25 L 161.25 170.0 L 161.25 168.75 L 162.5 172.5 L 162.5 192.5 L 155.0 221.25 L 142.5 238.75 L 122.5 243.75 L 100.0 243.75 L 88.75 237.5 L 86.25 225.0 L 93.75 208.75 L 120.0 195.0 L 155.0 182.5 L 188.75 180.0 L 207.5 192.5 L 211.25 208.75 L 208.75 227.5 L 202.5 242.5 L 197.5 246.25 " stroke="black" fill="none" stroke-width="6.0" stroke-linecap="round" stroke-linejoin="round" />
</svg>