<svg xmlns="http://www.w3.org/2000/svg" width="300" height="300" viewBox="0 0 300 300">
<path d="M 102.5 86.25 L 101.25 85.0 L 100.0 83.75 L 98.75 83.75 L 98.75 83.75 L 98.75 87.5 L 100.0 100.0 L 101.25 125.0 L 101.25 158.75 L 100.0 193.75 L 98.75 217.5 L 97.5 232.5 L 97.5 241.25 L 97.5 242.5 L 97.5 242.5 L 97.5 242.5 L 97.5 240.0 L 98.75 231.25 L 98.75 218.75 " stroke="black" fill="none" stroke-width="6.0" stroke-linecap="round" stroke-linejoin="round" />
<path d="M 153.75 110.0 L 153.75 110.0 L 152.5 110.0 L 150.0 108.75 L 150.0 108.75 L 150.0 111.25 L 151.25 127.5 L 153.75 157.5 L 155.0 187.5 L 155.0 197.5 L 155.0 201.25 L 155.0 200.0 L 153.75 197.5 L 153.75 196.25 " stroke="black" fill="none" stroke-width="6.0" stroke-linecap="round" stroke-linejoin="round" />
<path d="M 210.0 78.75 L 210.0 76.25 L 210.0 73.75 L 210.0 72.5 L 210.0 71.25 L 210.0 70.0 L 210.0 70.0 L 210.0 70.0 L 210.0 76.25 L 210.0 95.0 L 210.0 127.5 L 210.0 163.75 L 211.25 195.0 L 212.5 217.5 L 213.75 232.5 L 213.75 246.25 L 213.75 252.5 L 213.75 255.0 L 213.75 255.0 L 213.75 255.0 L 213.75 255.0 L 211.25 250.0 L 208.75 242.5 L 206.25 238.75 " stroke="black" fill="none" stroke-width="6.0" stroke-linecap="round" stroke-linejoin="round" />
</svg>