<svg xmlns="http://www.w3.org/2000/svg" width="300" height="300" viewBox="0 0 300 300">
<path d="M 95.0 133.75 L 92.5 133.75 L 90.0 140.0 L 87.5 172.5 L 87.5 216.25 L 91.25 245.0 L 97.5 250.0 L 103.75 243.75 L 110.0 228.75 L 116.25 210.0 L 120.0 195.0 L 121.25 181.25 " stroke="black" fill="none" stroke-width="6.0" stroke-linecap="round" stroke-linejoin="round" />
<path d="M 141.25 157.5 L 141.25 158.75 L 140.0 158.75 L 146.25 160.0 L 168.75 157.5 L 201.25 152.5 L 217.5 148.75 L 221.25 147.5 L 213.75 150.0 L 202.5 151.25 L 200.0 151.25 " stroke="black" fill="none" stroke-width="6.0" stroke-linecap="round" stroke-linejoin="round" />
<path d="M 171.25 131.25 L 171.25 131.25 L 171.25 130.0 L 173.75 131.25 L 182.5 148.75 L 187.5 192.5 L 178.75 232.5 L 162.5 255.0 L 147.5 261.25 L 140.0 258.75 " stroke="black" fill="none" stroke-width="6.0" stroke-linecap="round" stroke-linejoin="round" />
<path d="M 203.75 85.0 L 202.5 85.0 L 201.25 85.0 L 198.75 85.0 L 198.75 92.5 L 201.25 102.5 L 208.75 107.5 L 220.0 106.25 L 230.0 96.25 L 231.25 86.25 L 221.25 77.5 L 206.25 76.25 L 195.0 83.75 L 191.25 93.75 " stroke="black" fill="none" stroke-width="6.0" stroke-linecap="round" stroke-linejoin="round" />
</svg>