<svg xmlns="http://www.w3.org/2000/svg" width="300" height="300" viewBox="0 0 300 300">
<path d="M 110.0 83.75 L 107.5 82.5 L 102.5 82.5 L 101.25 82.5 L 103.75 88.75 L 116.25 107.5 L 131.25 127.5 L 147.5 140.0 L 150.0 141.25 " stroke="black" fill="none" stroke-width="6.0" stroke-linecap="round" stroke-linejoin="round" />
<path d="M 182.5 108.75 L 182.5 108.75 L 181.25 106.25 L 178.75 103.75 L 175.0 103.75 L 162.5 111.25 L 145.0 131.25 L 125.0 156.25 L 108.75 182.5 L 106.25 202.5 L 115.0 218.75 L 136.25 230.0 L 156.25 233.75 L 176.25 233.75 L 192.5 231.25 L 197.5 230.0 L 197.5 225.0 L 196.25 218.75 " stroke="black" fill="none" stroke-width="6.0" stroke-linecap="round" stroke-linejoin="round" />
<path d="M 201.25 83.75 L 201.25 82.5 L 200.0 81.25 L 200.0 83.75 L 202.5 96.25 L 207.5 106.25 L 213.75 113.75 " stroke="black" fill="none" stroke-width="6.0" stroke-linecap="round" stroke-linejoin="round" />
<path d="M 235.0 78.75 L 235.0 78.75 L 231.25 77.5 L 230.0 77.5 L 232.5 90.0 L 236.25 108.75 " stroke="black" fill="none" stroke-width="6.0" stroke-linecap="round" stroke-linejoin="round" />
</svg>