<svg xmlns="http://www.w3.org/2000/svg" width="300" height="300" viewBox="0 0 300 300">
<path d="M 83.75 133.75 L 78.75 133.75 L 73.75 135.0 L 71.25 136.25 L 71.25 136.25 L 73.75 137.5 L 85.0 138.75 L 103.75 138.75 L 131.25 137.5 L 163.75 136.25 L 193.75 136.25 L 212.5 136.25 L 227.5 135.0 L 233.75 133.75 L 235.0 132.5 L 233.75 132.5 L 231.25 132.5 L 223.75 131.25 L 221.25 130.0 " stroke="black" fill="none" stroke-width="6.0" stroke-linecap="round" stroke-linejoin="round" />
<path d="M 126.25 82.5 L 125.0 80.0 L 122.5 78.75 L 122.5 77.5 L 122.5 81.25 L 126.25 105.0 L 130.0 148.75 L 132.5 196.25 L 132.5 223.75 L 132.5 241.25 L 132.5 246.25 L 132.5 246.25 L 132.5 245.0 L 131.25 237.5 L 131.25 228.75 " stroke="black" fill="none" stroke-width="6.0" stroke-linecap="round" stroke-linejoin="round" />
<path d="M 185.0 71.25 L 183.75 70.0 L 182.5 70.0 L 182.5 70.0 L 182.5 76.25 L 182.5 107.5 L 182.5 156.25 L 180.0 197.5 L 178.75 216.25 L 177.5 230.0 L 177.5 241.25 L 177.5 246.25 L 178.75 247.5 L 178.75 248.75 L 175.0 248.75 " stroke="black" fill="none" stroke-width="6.0" stroke-linecap="round" stroke-linejoin="round" />
</svg>