<svg xmlns="http://www.w3.org/2000/svg" width="300" height="300" viewBox="0 0 300 300">
<path d="M 98.75 95.0 L 98.75 95.0 L 100.0 95.0 L 117.5 95.0 L 152.5 95.0 L 188.75 95.0 L 208.75 91.25 L 211.25 91.25 L 207.5 95.0 L 202.5 98.75 " stroke="black" fill="none" stroke-width="6.0" stroke-linecap="round" stroke-linejoin="round" />
<path d="M 88.75 153.75 L 87.5 155.0 L 87.5 156.25 L 96.25 158.75 L 128.75 157.5 L 172.5 151.25 L 207.5 145.0 L 223.75 140.0 L 228.75 138.75 L 223.75 138.75 L 218.75 138.75 " stroke="black" fill="none" stroke-width="6.0" stroke-linecap="round" stroke-linejoin="round" />
<path d="M 163.75 150.0 L 163.75 151.25 L 162.5 153.75 L 163.75 170.0 L 160.0 202.5 L 146.25 236.25 L 125.0 257.5 L 102.5 267.5 L 93.75 268.75 " stroke="black" fill="none" stroke-width="6.0" stroke-linecap="round" stroke-linejoin="round" />
</svg>