<svg xmlns="http://www.w3.org/2000/svg" width="300" height="300" viewBox="0 0 300 300">
<path d="M 71.25 125.0 L 70.0 126.25 L 65.0 128.75 L 67.5 130.0 L 85.0 128.75 L 108.75 122.5 L 132.5 115.0 L 143.75 110.0 L 141.25 108.75 L 138.75 107.5 " stroke="black" fill="none" stroke-width="6.0" stroke-linecap="round" stroke-linejoin="round" />
<path d="M 96.25 93.75 L 96.25 95.0 L 93.75 97.5 L 92.5 111.25 L 92.5 156.25 L 91.25 212.5 L 83.75 242.5 L 75.0 251.25 L 71.25 245.0 " stroke="black" fill="none" stroke-width="6.0" stroke-linecap="round" stroke-linejoin="round" />
<path d="M 153.75 142.5 L 153.75 142.5 L 153.75 141.25 L 157.5 141.25 L 170.0 143.75 L 191.25 147.5 L 206.25 148.75 L 207.5 151.25 L 202.5 155.0 " stroke="black" fill="none" stroke-width="6.0" stroke-linecap="round" stroke-linejoin="round" />
<path d="M 160.0 201.25 L 158.75 206.25 L 157.5 217.5 L 168.75 225.0 L 186.25 227.5 L 205.0 226.25 L 215.0 221.25 L 217.5 213.75 " stroke="black" fill="none" stroke-width="6.0" stroke-linecap="round" stroke-linejoin="round" />
<path d="M 202.5 86.25 L 201.25 85.0 L 200.0 85.0 L 201.25 87.5 L 206.25 97.5 L 212.5 108.75 L 216.25 112.5 " stroke="black" fill="none" stroke-width="6.0" stroke-linecap="round" stroke-linejoin="round" />
<path d="M 235.0 87.5 L 235.0 86.25 L 233.75 86.25 L 233.75 92.5 L 233.75 110.0 " stroke="black" fill="none" stroke-width="6.0" stroke-linecap="round" stroke-linejoin="round" />
</svg>