<svg xmlns="http://www.w3.org/2000/svg" width="300" height="300" viewBox="0 0 300 300">
<path d="M 81.25 113.75 L 75.0 118.75 L 73.75 121.25 L 88.75 118.75 L 120.0 108.75 L 160.0 96.25 L 193.75 86.25 L 202.5 83.75 L 196.25 86.25 L 182.5 88.75 " stroke="black" fill="none" stroke-width="6.0" stroke-linecap="round" stroke-linejoin="round" />
<path d="M 135.0 88.75 L 135.0 88.75 L 131.25 88.75 L 132.5 90.0 L 143.75 107.5 L 158.75 143.75 L 162.5 178.75 L 158.75 198.75 L 147.5 207.5 L 132.5 208.75 L 118.75 206.25 L 113.75 195.0 L 120.0 183.75 L 135.0 173.75 L 152.5 172.5 L 168.75 192.5 L 172.5 233.75 L 160.0 268.75 L 148.75 285.0 L 141.25 288.75 L 140.0 268.75 L 140.0 261.25 " stroke="black" fill="none" stroke-width="6.0" stroke-linecap="round" stroke-linejoin="round" />
<path d="M 212.5 51.25 L 211.25 52.5 L 211.25 55.0 L 216.25 66.25 L 225.0 78.75 L 231.25 87.5 L 231.25 88.75 " stroke="black" fill="none" stroke-width="6.0" stroke-linecap="round" stroke-linejoin="round" />
<path d="M 242.5 61.25 L 241.25 58.75 L 240.0 57.5 L 240.0 65.0 L 241.25 86.25 L 241.25 92.5 " stroke="black" fill="none" stroke-width="6.0" stroke-linecap="round" stroke-linejoin="round" />
</svg>