<svg xmlns="http://www.w3.org/2000/svg" width="300" height="300" viewBox="0 0 300 300">
<path d="M 91.25 147.5 L 85.0 147.5 L 77.5 148.75 L 78.75 148.75 L 97.5 148.75 L 132.5 142.5 L 175.0 130.0 L 206.25 118.75 L 215.0 112.5 L 215.0 111.25 L 210.0 112.5 L 197.5 118.75 L 186.25 123.75 " stroke="black" fill="none" stroke-width="6.0" stroke-linecap="round" stroke-linejoin="round" />
<path d="M 190.0 100.0 L 188.75 100.0 L 187.5 100.0 L 186.25 102.5 L 188.75 115.0 L 192.5 135.0 L 192.5 151.25 L 188.75 162.5 L 183.75 165.0 " stroke="black" fill="none" stroke-width="6.0" stroke-linecap="round" stroke-linejoin="round" />
<path d="M 106.25 98.75 L 102.5 102.5 L 101.25 120.0 L 107.5 157.5 L 117.5 196.25 L 133.75 212.5 L 150.0 220.0 L 167.5 223.75 L 183.75 223.75 L 193.75 223.75 L 200.0 225.0 L 202.5 225.0 L 205.0 225.0 L 206.25 222.5 L 206.25 216.25 " stroke="black" fill="none" stroke-width="6.0" stroke-linecap="round" stroke-linejoin="round" />
</svg>