<svg xmlns="http://www.w3.org/2000/svg" width="300" height="300" viewBox="0 0 300 300">
<path d="M 95.0 133.75 L 86.25 133.75 L 81.25 133.75 L 81.25 133.75 L 93.75 133.75 L 121.25 132.5 L 155.0 127.5 L 186.25 121.25 L 200.0 120.0 L 198.75 121.25 L 183.75 127.5 " stroke="black" fill="none" stroke-width="6.0" stroke-linecap="round" stroke-linejoin="round" />
<path d="M 85.0 192.5 L 83.75 192.5 L 81.25 195.0 L 85.0 197.5 L 107.5 196.25 L 148.75 187.5 L 196.25 177.5 L 226.25 171.25 L 241.25 167.5 L 232.5 165.0 " stroke="black" fill="none" stroke-width="6.0" stroke-linecap="round" stroke-linejoin="round" />
<path d="M 140.0 93.75 L 135.0 93.75 L 133.75 93.75 L 140.0 117.5 L 158.75 172.5 L 183.75 220.0 L 200.0 247.5 L 210.0 260.0 L 216.25 265.0 L 213.75 265.0 L 205.0 256.25 L 203.75 252.5 " stroke="black" fill="none" stroke-width="6.0" stroke-linecap="round" stroke-linejoin="round" />
<path d="M 200.0 93.75 L 198.75 93.75 L 197.5 93.75 L 197.5 93.75 L 197.5 97.5 L 202.5 105.0 L 208.75 113.75 L 212.5 117.5 " stroke="black" fill="none" stroke-width="6.0" stroke-linecap="round" stroke-linejoin="round" />
<path d="M 228.75 80.0 L 228.75 80.0 L 226.25 77.5 L 226.25 76.25 L 231.25 85.0 L 237.5 103.75 L 245.0 127.5 " stroke="black" fill="none" stroke-width="6.0" stroke-linecap="round" stroke-linejoin="round" />
</svg>