<svg xmlns="http://www.w3.org/2000/svg" width="300" height="300" viewBox="0 0 300 300">
<path d="M 80.0 128.75 L 78.75 128.75 L 75.0 131.25 L 76.25 131.25 L 91.25 131.25 L 120.0 126.25 L 152.5 120.0 L 177.5 118.75 L 191.25 121.25 L 193.75 131.25 L 195.0 150.0 L 192.5 182.5 L 188.75 208.75 L 183.75 228.75 L 178.75 241.25 L 173.75 246.25 L 168.75 247.5 L 162.5 247.5 L 153.75 241.25 L 142.5 227.5 L 130.0 205.0 " stroke="black" fill="none" stroke-width="6.0" stroke-linecap="round" stroke-linejoin="round" />
<path d="M 136.25 78.75 L 136.25 78.75 L 136.25 78.75 L 133.75 101.25 L 121.25 157.5 L 102.5 203.75 L 91.25 226.25 L 71.25 246.25 L 60.0 243.75 " stroke="black" fill="none" stroke-width="6.0" stroke-linecap="round" stroke-linejoin="round" />
<path d="M 203.75 86.25 L 202.5 86.25 L 200.0 86.25 L 198.75 86.25 L 201.25 91.25 L 207.5 100.0 L 213.75 110.0 L 216.25 118.75 L 216.25 120.0 " stroke="black" fill="none" stroke-width="6.0" stroke-linecap="round" stroke-linejoin="round" />
<path d="M 226.25 82.5 L 226.25 81.25 L 226.25 81.25 L 228.75 83.75 L 235.0 97.5 L 237.5 110.0 " stroke="black" fill="none" stroke-width="6.0" stroke-linecap="round" stroke-linejoin="round" />
</svg>