<svg xmlns="http://www.w3.org/2000/svg" width="300" height="300" viewBox="0 0 300 300">
<path d="M 116.25 80.0 L 115.0 76.25 L 115.0 75.0 L 115.0 95.0 L 105.0 136.25 L 92.5 173.75 L 85.0 187.5 L 80.0 186.25 L 76.25 176.25 " stroke="black" fill="none" stroke-width="6.0" stroke-linecap="round" stroke-linejoin="round" />
<path d="M 108.75 121.25 L 112.5 121.25 L 123.75 122.5 L 148.75 127.5 L 182.5 130.0 L 212.5 128.75 L 232.5 126.25 L 242.5 125.0 L 236.25 126.25 L 216.25 131.25 " stroke="black" fill="none" stroke-width="6.0" stroke-linecap="round" stroke-linejoin="round" />
<path d="M 165.0 138.75 L 163.75 138.75 L 162.5 138.75 L 166.25 150.0 L 168.75 178.75 L 156.25 215.0 L 138.75 242.5 L 118.75 256.25 L 101.25 258.75 L 97.5 243.75 " stroke="black" fill="none" stroke-width="6.0" stroke-linecap="round" stroke-linejoin="round" />
<path d="M 203.75 80.0 L 200.0 77.5 L 198.75 76.25 L 197.5 76.25 L 198.75 78.75 L 205.0 90.0 L 212.5 100.0 L 218.75 108.75 " stroke="black" fill="none" stroke-width="6.0" stroke-linecap="round" stroke-linejoin="round" />
<path d="M 218.75 80.0 L 216.25 77.5 L 215.0 76.25 L 220.0 78.75 L 227.5 88.75 L 231.25 101.25 " stroke="black" fill="none" stroke-width="6.0" stroke-linecap="round" stroke-linejoin="round" />
</svg>