<svg xmlns="http://www.w3.org/2000/svg" width="300" height="300" viewBox="0 0 300 300">
<path d="M 98.75 117.5 L 91.25 121.25 L 87.5 125.0 L 97.5 125.0 L 128.75 120.0 L 172.5 103.75 L 207.5 88.75 L 217.5 83.75 L 213.75 83.75 L 201.25 86.25 L 186.25 86.25 L 168.75 86.25 L 156.25 85.0 L 152.5 85.0 L 158.75 93.75 L 167.5 118.75 L 172.5 151.25 L 168.75 173.75 L 156.25 183.75 L 142.5 187.5 L 128.75 185.0 L 123.75 178.75 L 126.25 167.5 L 141.25 156.25 L 158.75 155.0 L 177.5 172.5 L 185.0 210.0 L 172.5 245.0 L 157.5 262.5 L 146.25 265.0 L 142.5 256.25 " stroke="black" fill="none" stroke-width="6.0" stroke-linecap="round" stroke-linejoin="round" />
</svg>