<svg xmlns="http://www.w3.org/2000/svg" width="300" height="300" viewBox="0 0 300 300">
<path d="M 92.5 131.25 L 92.5 130.0 L 92.5 128.75 L 101.25 128.75 L 128.75 127.5 L 158.75 125.0 L 177.5 122.5 L 185.0 121.25 L 187.5 123.75 L 188.75 138.75 L 188.75 167.5 L 187.5 200.0 L 187.5 220.0 L 188.75 227.5 L 188.75 228.75 L 186.25 226.25 L 183.75 222.5 " stroke="black" fill="none" stroke-width="6.0" stroke-linecap="round" stroke-linejoin="round" />
<path d="M 80.0 220.0 L 76.25 220.0 L 73.75 221.25 L 76.25 221.25 L 95.0 220.0 L 128.75 218.75 L 171.25 215.0 L 207.5 211.25 L 228.75 211.25 L 245.0 211.25 L 250.0 212.5 L 251.25 213.75 L 251.25 216.25 L 251.25 216.25 " stroke="black" fill="none" stroke-width="6.0" stroke-linecap="round" stroke-linejoin="round" />
</svg>