<svg xmlns="http://www.w3.org/2000/svg" width="300" height="300" viewBox="0 0 300 300">
<path d="M 100.0 130.0 L 98.75 130.0 L 95.0 130.0 L 93.75 131.25 L 105.0 131.25 L 133.75 130.0 L 171.25 126.25 L 203.75 125.0 L 215.0 125.0 L 213.75 125.0 L 202.5 126.25 L 191.25 127.5 " stroke="black" fill="none" stroke-width="6.0" stroke-linecap="round" stroke-linejoin="round" />
<path d="M 136.25 137.5 L 133.75 137.5 L 132.5 137.5 L 131.25 141.25 L 132.5 157.5 L 133.75 182.5 L 132.5 197.5 L 127.5 201.25 L 122.5 201.25 " stroke="black" fill="none" stroke-width="6.0" stroke-linecap="round" stroke-linejoin="round" />
<path d="M 91.25 197.5 L 90.0 198.75 L 86.25 200.0 L 85.0 201.25 L 88.75 201.25 L 106.25 201.25 L 137.5 198.75 L 177.5 195.0 L 208.75 192.5 L 230.0 192.5 L 243.75 192.5 L 246.25 192.5 L 246.25 191.25 L 238.75 187.5 L 233.75 185.0 " stroke="black" fill="none" stroke-width="6.0" stroke-linecap="round" stroke-linejoin="round" />
<path d="M 192.5 83.75 L 188.75 82.5 L 186.25 81.25 L 186.25 81.25 L 188.75 102.5 L 193.75 153.75 L 193.75 211.25 L 191.25 245.0 L 187.5 260.0 L 176.25 268.75 L 163.75 267.5 " stroke="black" fill="none" stroke-width="6.0" stroke-linecap="round" stroke-linejoin="round" />
<path d="M 222.5 75.0 L 222.5 75.0 L 222.5 73.75 L 221.25 73.75 L 221.25 73.75 L 226.25 83.75 L 232.5 96.25 L 240.0 106.25 L 240.0 107.5 " stroke="black" fill="none" stroke-width="6.0" stroke-linecap="round" stroke-linejoin="round" />
<path d="M 247.5 86.25 L 246.25 86.25 L 243.75 85.0 L 243.75 83.75 L 245.0 93.75 L 246.25 105.0 " stroke="black" fill="none" stroke-width="6.0" stroke-linecap="round" stroke-linejoin="round" />
</svg>