<svg xmlns="http://www.w3.org/2000/svg" width="300" height="300" viewBox="0 0 300 300">
<path d="M 93.75 128.75 L 88.75 126.25 L 87.5 126.25 L 90.0 147.5 L 96.25 191.25 L 102.5 220.0 L 105.0 226.25 L 105.0 225.0 L 105.0 221.25 L 103.75 208.75 L 105.0 190.0 L 112.5 171.25 L 128.75 151.25 L 152.5 141.25 L 178.75 143.75 L 201.25 155.0 L 215.0 172.5 L 218.75 188.75 L 215.0 201.25 L 205.0 211.25 L 196.25 216.25 L 183.75 220.0 L 167.5 220.0 L 162.5 220.0 " stroke="black" fill="none" stroke-width="6.0" stroke-linecap="round" stroke-linejoin="round" />
<path d="M 155.0 100.0 L 153.75 100.0 L 152.5 101.25 L 152.5 107.5 L 161.25 138.75 L 167.5 171.25 L 163.75 221.25 L 152.5 251.25 L 142.5 265.0 " stroke="black" fill="none" stroke-width="6.0" stroke-linecap="round" stroke-linejoin="round" />
</svg>