<svg xmlns="http://www.w3.org/2000/svg" width="300" height="300" viewBox="0 0 300 300">
<path d="M 95.0 113.75 L 93.75 106.25 L 91.25 105.0 L 91.25 112.5 L 91.25 150.0 L 93.75 201.25 L 98.75 240.0 L 106.25 250.0 L 112.5 248.75 L 118.75 240.0 L 123.75 227.5 L 125.0 213.75 L 125.0 196.25 L 125.0 191.25 " stroke="black" fill="none" stroke-width="6.0" stroke-linecap="round" stroke-linejoin="round" />
<path d="M 140.0 131.25 L 140.0 131.25 L 140.0 131.25 L 146.25 130.0 L 172.5 125.0 L 206.25 118.75 L 227.5 113.75 L 232.5 113.75 L 226.25 113.75 L 212.5 112.5 L 197.5 107.5 L 185.0 100.0 L 178.75 92.5 L 178.75 91.25 L 185.0 100.0 L 192.5 136.25 L 195.0 187.5 L 190.0 220.0 L 180.0 235.0 L 167.5 238.75 L 157.5 236.25 L 152.5 223.75 L 152.5 203.75 L 165.0 186.25 L 185.0 175.0 L 205.0 178.75 L 217.5 198.75 L 221.25 222.5 L 217.5 243.75 L 212.5 250.0 L 210.0 251.25 " stroke="black" fill="none" stroke-width="6.0" stroke-linecap="round" stroke-linejoin="round" />
</svg>