<svg xmlns="http://www.w3.org/2000/svg" width="300" height="300" viewBox="0 0 300 300">
<path d="M 96.25 96.25 L 93.75 98.75 L 85.0 105.0 L 86.25 107.5 L 100.0 108.75 L 131.25 102.5 L 163.75 91.25 L 188.75 83.75 L 196.25 83.75 L 185.0 87.5 L 181.25 87.5 " stroke="black" fill="none" stroke-width="6.0" stroke-linecap="round" stroke-linejoin="round" />
<path d="M 132.5 76.25 L 131.25 76.25 L 128.75 76.25 L 128.75 90.0 L 128.75 117.5 L 122.5 158.75 L 118.75 168.75 L 118.75 168.75 L 127.5 166.25 L 146.25 161.25 L 170.0 156.25 L 192.5 155.0 L 205.0 167.5 L 205.0 188.75 L 192.5 208.75 L 173.75 227.5 L 150.0 243.75 L 135.0 251.25 L 128.75 252.5 " stroke="black" fill="none" stroke-width="6.0" stroke-linecap="round" stroke-linejoin="round" />
</svg>