<svg xmlns="http://www.w3.org/2000/svg" width="300" height="300" viewBox="0 0 300 300">
<path d="M 155.0 77.5 L 155.0 76.25 L 155.0 75.0 L 153.75 75.0 L 148.75 87.5 L 135.0 117.5 L 116.25 153.75 L 101.25 177.5 L 96.25 190.0 L 96.25 191.25 L 96.25 188.75 L 98.75 182.5 " stroke="black" fill="none" stroke-width="6.0" stroke-linecap="round" stroke-linejoin="round" />
<path d="M 138.75 122.5 L 136.25 122.5 L 136.25 122.5 L 141.25 123.75 L 152.5 127.5 L 168.75 131.25 L 185.0 135.0 L 193.75 138.75 L 196.25 141.25 L 193.75 145.0 L 187.5 151.25 L 178.75 160.0 L 168.75 170.0 L 157.5 181.25 L 148.75 191.25 L 143.75 197.5 L 141.25 201.25 L 141.25 201.25 L 141.25 201.25 L 141.25 201.25 L 141.25 201.25 L 141.25 201.25 L 142.5 200.0 L 142.5 200.0 " stroke="black" fill="none" stroke-width="6.0" stroke-linecap="round" stroke-linejoin="round" />
<path d="M 131.25 190.0 L 127.5 191.25 L 123.75 191.25 L 122.5 191.25 L 122.5 191.25 L 127.5 192.5 L 133.75 196.25 L 143.75 200.0 L 155.0 206.25 L 168.75 212.5 L 182.5 218.75 L 190.0 223.75 L 193.75 226.25 L 193.75 226.25 L 193.75 226.25 L 191.25 225.0 " stroke="black" fill="none" stroke-width="6.0" stroke-linecap="round" stroke-linejoin="round" />
</svg>