<svg xmlns="http://www.w3.org/2000/svg" width="300" height="300" viewBox="0 0 300 300">
<path d="M 100.0 97.5 L 100.0 97.5 L 100.0 98.75 L 105.0 102.5 L 127.5 108.75 L 158.75 110.0 L 182.5 105.0 L 195.0 98.75 L 196.25 96.25 L 191.25 96.25 " stroke="black" fill="none" stroke-width="6.0" stroke-linecap="round" stroke-linejoin="round" />
<path d="M 102.5 192.5 L 102.5 193.75 L 101.25 202.5 L 110.0 218.75 L 136.25 235.0 L 168.75 238.75 L 193.75 233.75 L 205.0 230.0 L 205.0 228.75 " stroke="black" fill="none" stroke-width="6.0" stroke-linecap="round" stroke-linejoin="round" />
<path d="M 201.25 75.0 L 201.25 75.0 L 201.25 75.0 L 201.25 76.25 L 203.75 81.25 L 207.5 91.25 L 211.25 101.25 L 211.25 102.5 " stroke="black" fill="none" stroke-width="6.0" stroke-linecap="round" stroke-linejoin="round" />
<path d="M 225.0 72.5 L 225.0 71.25 L 225.0 71.25 L 226.25 71.25 L 232.5 85.0 L 235.0 97.5 " stroke="black" fill="none" stroke-width="6.0" stroke-linecap="round" stroke-linejoin="round" />
</svg>