<svg xmlns="http://www.w3.org/2000/svg" width="300" height="300" viewBox="0 0 300 300">
<path d="M 120.0 80.0 L 120.0 80.0 L 118.75 80.0 L 120.0 100.0 L 125.0 157.5 L 128.75 205.0 L 131.25 220.0 L 133.75 223.75 L 133.75 223.75 L 128.75 221.25 L 120.0 210.0 L 113.75 203.75 " stroke="black" fill="none" stroke-width="6.0" stroke-linecap="round" stroke-linejoin="round" />
<path d="M 63.75 127.5 L 57.5 128.75 L 53.75 130.0 L 57.5 130.0 L 76.25 131.25 L 96.25 130.0 L 115.0 127.5 L 126.25 127.5 L 126.25 137.5 L 113.75 157.5 L 96.25 182.5 L 80.0 206.25 L 68.75 220.0 L 65.0 225.0 L 67.5 221.25 L 78.75 208.75 L 95.0 191.25 L 115.0 168.75 L 140.0 145.0 L 161.25 130.0 L 181.25 122.5 L 197.5 121.25 L 208.75 126.25 L 217.5 143.75 L 221.25 165.0 L 220.0 188.75 L 215.0 203.75 L 208.75 210.0 L 200.0 215.0 L 187.5 220.0 L 175.0 222.5 L 166.25 221.25 L 163.75 216.25 L 167.5 207.5 L 177.5 200.0 L 190.0 196.25 L 202.5 197.5 L 215.0 208.75 L 222.5 225.0 L 225.0 240.0 L 222.5 247.5 L 217.5 248.75 " stroke="black" fill="none" stroke-width="6.0" stroke-linecap="round" stroke-linejoin="round" />
</svg>