<svg xmlns="http://www.w3.org/2000/svg" width="300" height="300" viewBox="0 0 300 300">
<path d="M 107.5 113.75 L 102.5 116.25 L 96.25 118.75 L 97.5 120.0 L 115.0 121.25 L 145.0 120.0 L 177.5 115.0 L 198.75 110.0 L 210.0 107.5 L 210.0 107.5 L 210.0 111.25 L 210.0 130.0 L 210.0 165.0 L 212.5 201.25 L 215.0 216.25 L 216.25 220.0 L 216.25 221.25 L 215.0 220.0 L 208.75 217.5 L 207.5 216.25 " stroke="black" fill="none" stroke-width="6.0" stroke-linecap="round" stroke-linejoin="round" />
<path d="M 107.5 172.5 L 103.75 172.5 L 100.0 173.75 L 102.5 173.75 L 122.5 173.75 L 153.75 170.0 L 187.5 168.75 L 207.5 168.75 L 212.5 168.75 L 211.25 168.75 " stroke="black" fill="none" stroke-width="6.0" stroke-linecap="round" stroke-linejoin="round" />
<path d="M 108.75 221.25 L 106.25 222.5 L 103.75 223.75 L 106.25 225.0 L 121.25 223.75 L 145.0 222.5 L 172.5 221.25 L 195.0 220.0 L 208.75 218.75 L 215.0 217.5 L 213.75 217.5 " stroke="black" fill="none" stroke-width="6.0" stroke-linecap="round" stroke-linejoin="round" />
</svg>