<svg xmlns="http://www.w3.org/2000/svg" width="300" height="300" viewBox="0 0 300 300">
<path d="M 238.75 63.75 L 237.5 63.75 L 236.25 63.75 L 235.0 63.75 L 233.75 63.75 L 232.5 63.75 L 230.0 62.5 L 226.25 62.5 L 220.0 62.5 L 212.5 62.5 L 203.75 63.75 L 197.5 63.75 L 191.25 65.0 L 187.5 66.25 L 186.25 67.5 L 185.0 67.5 L 185.0 67.5 L 185.0 67.5 L 183.75 68.75 L 182.5 70.0 L 182.5 70.0 L 182.5 71.25 L 181.25 72.5 L 181.25 73.75 L 181.25 76.25 L 181.25 80.0 L 181.25 86.25 L 180.0 95.0 L 180.0 106.25 L 180.0 120.0 L 180.0 135.0 L 178.75 148.75 L 177.5 161.25 L 176.25 176.25 L 176.25 186.25 L 176.25 196.25 L 175.0 205.0 L 175.0 212.5 L 175.0 218.75 L 173.75 226.25 L 172.5 232.5 L 172.5 238.75 L 172.5 242.5 L 172.5 243.75 L 172.5 245.0 L 172.5 246.25 L 172.5 247.5 L 172.5 250.0 L 172.5 251.25 L 172.5 253.75 L 172.5 255.0 L 172.5 256.25 L 172.5 257.5 L 173.75 258.75 L 173.75 258.75 L 173.75 258.75 L 175.0 258.75 L 175.0 258.75 L 176.25 257.5 L 177.5 256.25 L 178.75 256.25 L 180.0 255.0 L 181.25 255.0 L 182.5 255.0 L 186.25 255.0 L 188.75 255.0 L 193.75 255.0 L 198.75 255.0 L 203.75 256.25 L 207.5 256.25 L 210.0 256.25 L 212.5 256.25 L 215.0 256.25 L 216.25 256.25 L 218.75 255.0 L 220.0 255.0 L 221.25 255.0 L 221.25 255.0 L 222.5 253.75 L 222.5 253.75 L 222.5 253.75 L 222.5 252.5 L 222.5 252.5 L 222.5 252.5 L 222.5 252.5 L 222.5 252.5 L 222.5 252.5 L 222.5 252.5 L 222.5 252.5 L 222.5 252.5 L 222.5 251.25 L 221.25 250.0 L 220.0 247.5 L 218.75 243.75 L 216.25 238.75 L 213.75 233.75 L 211.25 227.5 L 208.75 222.5 L 207.5 216.25 L 206.25 212.5 L 206.25 208.75 L 205.0 206.25 L 205.0 203.75 L 203.75 201.25 L 203.75 200.0 L 202.5 197.5 L 202.5 195.0 L 201.25 192.5 L 200.0 190.0 L 200.0 188.75 L 198.75 186.25 L 198.75 185.0 L 197.5 183.75 L 197.5 181.25 L 196.25 178.75 L 196.25 176.25 L 195.0 173.75 L 195.0 171.25 L 195.0 168.75 L 193.75 165.0 L 193.75 161.25 L 193.75 157.5 L 193.75 153.75 L 193.75 150.0 L 193.75 146.25 L 193.75 142.5 L 195.0 138.75 L 195.0 135.0 L 196.25 130.0 L 196.25 125.0 L 197.5 120.0 L 198.75 113.75 L 200.0 110.0 L 201.25 105.0 L 203.75 101.25 L 205.0 96.25 L 206.25 92.5 L 207.5 88.75 L 210.0 86.25 L 211.25 82.5 L 213.75 78.75 L 216.25 76.25 L 218.75 72.5 L 223.75 70.0 L 227.5 66.25 L 230.0 63.75 L 232.5 62.5 L 233.75 62.5 L 233.75 62.5 L 233.75 62.5 L 233.75 62.5 L 233.75 62.5 L 233.75 62.5 L 232.5 63.75 L 231.25 65.0 " stroke="black" fill="none" stroke-width="6.0" stroke-linecap="round" stroke-linejoin="round" />
</svg>