<svg xmlns="http://www.w3.org/2000/svg" width="300" height="300" viewBox="0 0 300 300">
<path d="M 85.0 111.25 L 81.25 111.25 L 77.5 112.5 L 76.25 136.25 L 76.25 187.5 L 83.75 228.75 L 95.0 246.25 L 107.5 242.5 L 118.75 230.0 L 121.25 211.25 L 121.25 207.5 " stroke="black" fill="none" stroke-width="6.0" stroke-linecap="round" stroke-linejoin="round" />
<path d="M 137.5 110.0 L 136.25 110.0 L 135.0 110.0 L 137.5 110.0 L 153.75 111.25 L 182.5 113.75 L 207.5 115.0 L 220.0 117.5 L 213.75 122.5 L 210.0 123.75 " stroke="black" fill="none" stroke-width="6.0" stroke-linecap="round" stroke-linejoin="round" />
<path d="M 137.5 162.5 L 135.0 163.75 L 132.5 167.5 L 140.0 167.5 L 161.25 165.0 L 191.25 156.25 L 213.75 147.5 L 218.75 142.5 L 213.75 142.5 " stroke="black" fill="none" stroke-width="6.0" stroke-linecap="round" stroke-linejoin="round" />
<path d="M 175.0 121.25 L 173.75 121.25 L 173.75 121.25 L 182.5 143.75 L 192.5 188.75 L 195.0 223.75 L 188.75 240.0 L 176.25 245.0 L 156.25 243.75 L 143.75 237.5 L 141.25 230.0 L 148.75 221.25 L 170.0 217.5 L 197.5 215.0 L 222.5 215.0 L 237.5 218.75 L 236.25 218.75 L 233.75 218.75 " stroke="black" fill="none" stroke-width="6.0" stroke-linecap="round" stroke-linejoin="round" />
<path d="M 208.75 66.25 L 208.75 65.0 L 208.75 63.75 L 208.75 63.75 L 210.0 70.0 L 216.25 85.0 L 222.5 98.75 L 228.75 103.75 " stroke="black" fill="none" stroke-width="6.0" stroke-linecap="round" stroke-linejoin="round" />
<path d="M 241.25 78.75 L 240.0 77.5 L 237.5 76.25 L 237.5 81.25 L 237.5 90.0 " stroke="black" fill="none" stroke-width="6.0" stroke-linecap="round" stroke-linejoin="round" />
</svg>