<svg xmlns="http://www.w3.org/2000/svg" width="300" height="300" viewBox="0 0 300 300">
<path d="M 133.75 81.25 L 132.5 80.0 L 131.25 78.75 L 135.0 78.75 L 143.75 83.75 L 156.25 91.25 L 167.5 97.5 L 170.0 103.75 L 168.75 105.0 " stroke="black" fill="none" stroke-width="6.0" stroke-linecap="round" stroke-linejoin="round" />
<path d="M 92.5 116.25 L 91.25 116.25 L 90.0 117.5 L 98.75 118.75 L 128.75 118.75 L 166.25 118.75 L 195.0 120.0 L 202.5 123.75 L 200.0 130.0 L 181.25 143.75 L 150.0 165.0 L 112.5 193.75 L 82.5 216.25 L 68.75 226.25 L 67.5 227.5 L 68.75 226.25 " stroke="black" fill="none" stroke-width="6.0" stroke-linecap="round" stroke-linejoin="round" />
<path d="M 133.75 177.5 L 132.5 177.5 L 130.0 177.5 L 128.75 177.5 L 130.0 186.25 L 137.5 216.25 L 143.75 255.0 L 146.25 271.25 L 146.25 272.5 L 146.25 271.25 " stroke="black" fill="none" stroke-width="6.0" stroke-linecap="round" stroke-linejoin="round" />
<path d="M 173.75 173.75 L 173.75 173.75 L 173.75 173.75 L 173.75 173.75 L 182.5 178.75 L 198.75 193.75 L 212.5 210.0 L 217.5 218.75 " stroke="black" fill="none" stroke-width="6.0" stroke-linecap="round" stroke-linejoin="round" />
</svg>