<svg xmlns="http://www.w3.org/2000/svg" width="300" height="300" viewBox="0 0 300 300">
<path d="M 91.25 156.25 L 90.0 156.25 L 81.25 160.0 L 81.25 160.0 L 96.25 155.0 L 123.75 150.0 L 152.5 150.0 L 171.25 161.25 L 175.0 186.25 L 166.25 208.75 L 151.25 228.75 L 138.75 240.0 L 126.25 242.5 L 115.0 236.25 L 110.0 222.5 " stroke="black" fill="none" stroke-width="6.0" stroke-linecap="round" stroke-linejoin="round" />
<path d="M 133.75 113.75 L 132.5 112.5 L 130.0 125.0 L 116.25 173.75 L 100.0 223.75 L 88.75 251.25 L 82.5 256.25 " stroke="black" fill="none" stroke-width="6.0" stroke-linecap="round" stroke-linejoin="round" />
<path d="M 191.25 132.5 L 190.0 133.75 L 187.5 136.25 L 188.75 141.25 L 196.25 152.5 L 203.75 167.5 L 211.25 181.25 L 215.0 193.75 " stroke="black" fill="none" stroke-width="6.0" stroke-linecap="round" stroke-linejoin="round" />
</svg>