<svg xmlns="http://www.w3.org/2000/svg" width="300" height="300" viewBox="0 0 300 300">
<path d="M 138.75 116.25 L 136.25 115.0 L 133.75 115.0 L 133.75 113.75 L 136.25 118.75 L 142.5 126.25 L 148.75 135.0 L 150.0 137.5 " stroke="black" fill="none" stroke-width="6.0" stroke-linecap="round" stroke-linejoin="round" />
<path d="M 91.25 141.25 L 87.5 141.25 L 87.5 145.0 L 91.25 161.25 L 98.75 186.25 L 107.5 202.5 L 111.25 206.25 L 110.0 203.75 " stroke="black" fill="none" stroke-width="6.0" stroke-linecap="round" stroke-linejoin="round" />
<path d="M 97.5 148.75 L 95.0 147.5 L 92.5 145.0 L 93.75 145.0 L 106.25 145.0 L 131.25 143.75 L 165.0 141.25 L 195.0 140.0 L 211.25 141.25 L 213.75 145.0 L 213.75 148.75 L 208.75 156.25 L 200.0 173.75 L 185.0 200.0 L 161.25 230.0 L 140.0 255.0 L 130.0 262.5 " stroke="black" fill="none" stroke-width="6.0" stroke-linecap="round" stroke-linejoin="round" />
</svg>