<svg xmlns="http://www.w3.org/2000/svg" width="300" height="300" viewBox="0 0 300 300">
<path d="M 131.25 121.25 L 131.25 121.25 L 131.25 122.5 L 131.25 133.75 L 131.25 163.75 L 121.25 201.25 L 103.75 225.0 L 88.75 240.0 L 72.5 242.5 " stroke="black" fill="none" stroke-width="6.0" stroke-linecap="round" stroke-linejoin="round" />
<path d="M 175.0 137.5 L 175.0 137.5 L 175.0 137.5 L 178.75 145.0 L 190.0 176.25 L 202.5 218.75 L 212.5 243.75 L 223.75 257.5 L 226.25 260.0 L 221.25 258.75 " stroke="black" fill="none" stroke-width="6.0" stroke-linecap="round" stroke-linejoin="round" />
<path d="M 201.25 87.5 L 201.25 87.5 L 200.0 86.25 L 198.75 86.25 L 200.0 90.0 L 205.0 101.25 L 211.25 113.75 L 215.0 117.5 " stroke="black" fill="none" stroke-width="6.0" stroke-linecap="round" stroke-linejoin="round" />
<path d="M 241.25 81.25 L 241.25 81.25 L 241.25 81.25 L 241.25 80.0 L 242.5 93.75 L 243.75 118.75 " stroke="black" fill="none" stroke-width="6.0" stroke-linecap="round" stroke-linejoin="round" />
</svg>