<svg xmlns="http://www.w3.org/2000/svg" width="300" height="300" viewBox="0 0 300 300">
<path d="M 86.25 120.0 L 82.5 120.0 L 80.0 120.0 L 80.0 120.0 L 93.75 120.0 L 123.75 120.0 L 163.75 118.75 L 202.5 116.25 L 223.75 113.75 L 236.25 112.5 L 237.5 112.5 L 236.25 112.5 L 228.75 112.5 L 215.0 111.25 " stroke="black" fill="none" stroke-width="6.0" stroke-linecap="round" stroke-linejoin="round" />
<path d="M 190.0 78.75 L 187.5 76.25 L 185.0 73.75 L 185.0 72.5 L 186.25 80.0 L 190.0 111.25 L 193.75 160.0 L 195.0 201.25 L 195.0 221.25 L 195.0 230.0 L 193.75 232.5 L 191.25 233.75 L 186.25 233.75 L 178.75 233.75 L 170.0 233.75 L 158.75 233.75 L 146.25 233.75 L 133.75 233.75 L 126.25 227.5 " stroke="black" fill="none" stroke-width="6.0" stroke-linecap="round" stroke-linejoin="round" />
<path d="M 175.0 131.25 L 176.25 126.25 L 177.5 123.75 L 176.25 126.25 L 162.5 143.75 L 140.0 176.25 L 106.25 211.25 L 82.5 230.0 L 67.5 231.25 L 63.75 227.5 " stroke="black" fill="none" stroke-width="6.0" stroke-linecap="round" stroke-linejoin="round" />
</svg>