<svg xmlns="http://www.w3.org/2000/svg" width="300" height="300" viewBox="0 0 300 300">
<path d="M 116.25 107.5 L 112.5 108.75 L 103.75 112.5 L 103.75 112.5 L 116.25 112.5 L 138.75 111.25 L 162.5 107.5 L 177.5 105.0 L 181.25 105.0 L 166.25 113.75 L 145.0 128.75 L 120.0 142.5 L 92.5 156.25 L 71.25 167.5 L 55.0 177.5 L 52.5 180.0 L 60.0 180.0 L 82.5 177.5 L 113.75 170.0 L 150.0 161.25 L 185.0 155.0 L 202.5 152.5 L 201.25 152.5 L 198.75 152.5 L 190.0 153.75 L 177.5 156.25 L 162.5 163.75 L 147.5 177.5 L 136.25 195.0 L 132.5 216.25 L 136.25 237.5 L 150.0 250.0 L 170.0 253.75 L 193.75 252.5 L 206.25 246.25 L 208.75 241.25 L 207.5 240.0 " stroke="black" fill="none" stroke-width="6.0" stroke-linecap="round" stroke-linejoin="round" />
<path d="M 208.75 98.75 L 208.75 95.0 L 207.5 95.0 L 207.5 96.25 L 211.25 105.0 L 213.75 116.25 L 218.75 125.0 L 220.0 126.25 " stroke="black" fill="none" stroke-width="6.0" stroke-linecap="round" stroke-linejoin="round" />
<path d="M 240.0 96.25 L 240.0 96.25 L 240.0 95.0 L 238.75 95.0 L 238.75 97.5 L 241.25 117.5 L 242.5 123.75 " stroke="black" fill="none" stroke-width="6.0" stroke-linecap="round" stroke-linejoin="round" />
</svg>