<svg xmlns="http://www.w3.org/2000/svg" width="300" height="300" viewBox="0 0 300 300">
<path d="M 68.75 115.0 L 62.5 116.25 L 58.75 117.5 L 67.5 117.5 L 92.5 116.25 L 131.25 108.75 L 171.25 98.75 L 192.5 92.5 L 196.25 91.25 L 188.75 91.25 L 171.25 96.25 L 152.5 97.5 " stroke="black" fill="none" stroke-width="6.0" stroke-linecap="round" stroke-linejoin="round" />
<path d="M 120.0 77.5 L 120.0 77.5 L 120.0 77.5 L 120.0 81.25 L 115.0 110.0 L 103.75 151.25 L 93.75 178.75 L 86.25 187.5 L 83.75 187.5 L 85.0 185.0 L 93.75 175.0 L 108.75 160.0 L 127.5 147.5 L 143.75 141.25 L 153.75 142.5 L 160.0 157.5 L 165.0 183.75 L 167.5 207.5 L 167.5 220.0 L 167.5 223.75 L 166.25 223.75 L 163.75 213.75 L 162.5 211.25 " stroke="black" fill="none" stroke-width="6.0" stroke-linecap="round" stroke-linejoin="round" />
<path d="M 221.25 130.0 L 220.0 127.5 L 216.25 125.0 L 211.25 125.0 L 198.75 127.5 L 183.75 137.5 L 148.75 163.75 L 126.25 192.5 L 118.75 212.5 L 121.25 230.0 L 136.25 241.25 L 156.25 245.0 L 180.0 241.25 L 198.75 236.25 L 205.0 235.0 L 205.0 235.0 " stroke="black" fill="none" stroke-width="6.0" stroke-linecap="round" stroke-linejoin="round" />
</svg>