<svg xmlns="http://www.w3.org/2000/svg" width="300" height="300" viewBox="0 0 300 300">
<path d="M 62.5 71.25 L 58.75 70.0 L 56.25 68.75 L 55.0 68.75 L 56.25 68.75 L 62.5 70.0 L 71.25 72.5 L 80.0 76.25 L 88.75 80.0 L 95.0 83.75 L 100.0 86.25 L 102.5 87.5 L 102.5 87.5 L 102.5 87.5 L 101.25 87.5 L 101.25 87.5 L 100.0 87.5 L 100.0 87.5 L 100.0 90.0 L 98.75 96.25 L 98.75 108.75 L 97.5 130.0 L 97.5 152.5 L 97.5 176.25 L 97.5 195.0 L 98.75 207.5 L 98.75 216.25 L 100.0 221.25 L 100.0 225.0 L 100.0 225.0 L 100.0 225.0 L 100.0 225.0 L 100.0 225.0 L 98.75 225.0 L 96.25 225.0 L 93.75 225.0 L 90.0 227.5 L 85.0 232.5 L 78.75 238.75 L 71.25 245.0 L 63.75 252.5 L 57.5 257.5 L 55.0 260.0 L 53.75 260.0 L 53.75 260.0 L 53.75 260.0 L 56.25 256.25 L 57.5 252.5 " stroke="black" fill="none" stroke-width="6.0" stroke-linecap="round" stroke-linejoin="round" />
</svg>