<svg xmlns="http://www.w3.org/2000/svg" width="300" height="300" viewBox="0 0 300 300">
<path d="M 75.0 82.5 L 72.5 81.25 L 67.5 80.0 L 67.5 80.0 L 68.75 80.0 L 75.0 86.25 L 83.75 96.25 L 96.25 110.0 L 111.25 126.25 L 126.25 140.0 L 135.0 147.5 L 137.5 148.75 L 137.5 150.0 L 137.5 150.0 L 137.5 150.0 L 137.5 150.0 L 136.25 150.0 L 132.5 152.5 L 125.0 162.5 L 113.75 180.0 L 98.75 203.75 L 88.75 226.25 L 85.0 237.5 L 85.0 238.75 L 85.0 238.75 L 85.0 237.5 L 83.75 236.25 L 81.25 232.5 L 78.75 230.0 " stroke="black" fill="none" stroke-width="6.0" stroke-linecap="round" stroke-linejoin="round" />
</svg>