<svg xmlns="http://www.w3.org/2000/svg" width="300" height="300" viewBox="0 0 300 300">
<path d="M 75.0 118.75 L 66.25 122.5 L 68.75 125.0 L 88.75 125.0 L 122.5 122.5 L 161.25 117.5 L 187.5 113.75 L 195.0 113.75 L 191.25 123.75 L 175.0 148.75 L 151.25 183.75 L 125.0 215.0 L 96.25 240.0 L 77.5 252.5 L 63.75 252.5 L 60.0 247.5 " stroke="black" fill="none" stroke-width="6.0" stroke-linecap="round" stroke-linejoin="round" />
<path d="M 148.75 178.75 L 150.0 178.75 L 150.0 178.75 L 153.75 188.75 L 170.0 215.0 L 193.75 241.25 L 216.25 252.5 L 237.5 253.75 L 246.25 248.75 " stroke="black" fill="none" stroke-width="6.0" stroke-linecap="round" stroke-linejoin="round" />
<path d="M 203.75 75.0 L 203.75 73.75 L 201.25 72.5 L 201.25 72.5 L 201.25 81.25 L 206.25 93.75 L 211.25 101.25 " stroke="black" fill="none" stroke-width="6.0" stroke-linecap="round" stroke-linejoin="round" />
<path d="M 236.25 80.0 L 236.25 78.75 L 235.0 78.75 L 235.0 83.75 L 240.0 105.0 " stroke="black" fill="none" stroke-width="6.0" stroke-linecap="round" stroke-linejoin="round" />
</svg>