<svg xmlns="http://www.w3.org/2000/svg" width="300" height="300" viewBox="0 0 300 300">
<path d="M 88.75 118.75 L 82.5 121.25 L 81.25 123.75 L 93.75 125.0 L 118.75 121.25 L 148.75 111.25 L 168.75 103.75 L 177.5 101.25 L 167.5 105.0 " stroke="black" fill="none" stroke-width="6.0" stroke-linecap="round" stroke-linejoin="round" />
<path d="M 101.25 152.5 L 101.25 152.5 L 101.25 153.75 L 111.25 153.75 L 137.5 147.5 L 166.25 136.25 L 176.25 128.75 L 175.0 126.25 " stroke="black" fill="none" stroke-width="6.0" stroke-linecap="round" stroke-linejoin="round" />
<path d="M 136.25 100.0 L 135.0 100.0 L 132.5 100.0 L 136.25 107.5 L 151.25 137.5 L 166.25 170.0 L 172.5 186.25 L 172.5 187.5 L 166.25 187.5 L 156.25 187.5 L 142.5 185.0 L 128.75 185.0 L 115.0 187.5 L 103.75 191.25 L 97.5 197.5 L 96.25 207.5 L 101.25 222.5 L 116.25 238.75 L 136.25 250.0 L 155.0 253.75 L 167.5 253.75 L 176.25 252.5 L 180.0 250.0 L 182.5 250.0 L 183.75 250.0 L 185.0 248.75 " stroke="black" fill="none" stroke-width="6.0" stroke-linecap="round" stroke-linejoin="round" />
<path d="M 201.25 87.5 L 200.0 87.5 L 197.5 87.5 L 196.25 87.5 L 198.75 88.75 L 207.5 95.0 L 216.25 101.25 L 217.5 102.5 " stroke="black" fill="none" stroke-width="6.0" stroke-linecap="round" stroke-linejoin="round" />
<path d="M 232.5 73.75 L 232.5 71.25 L 231.25 71.25 L 232.5 75.0 L 242.5 93.75 " stroke="black" fill="none" stroke-width="6.0" stroke-linecap="round" stroke-linejoin="round" />
</svg>