<svg xmlns="http://www.w3.org/2000/svg" width="300" height="300" viewBox="0 0 300 300">
<path d="M 156.25 140.0 L 156.25 140.0 L 155.0 138.75 L 153.75 138.75 L 153.75 138.75 L 153.75 137.5 L 152.5 137.5 L 152.5 136.25 L 151.25 136.25 L 150.0 136.25 L 147.5 136.25 L 143.75 136.25 L 140.0 138.75 L 135.0 142.5 L 131.25 146.25 L 127.5 151.25 L 126.25 156.25 L 125.0 162.5 L 125.0 168.75 L 125.0 173.75 L 126.25 181.25 L 130.0 187.5 L 132.5 192.5 L 136.25 196.25 L 141.25 197.5 L 146.25 198.75 L 152.5 197.5 L 157.5 196.25 L 161.25 192.5 L 165.0 190.0 L 168.75 186.25 L 170.0 183.75 L 171.25 180.0 L 172.5 175.0 L 172.5 168.75 L 172.5 162.5 L 172.5 157.5 L 170.0 152.5 L 167.5 150.0 L 165.0 146.25 L 162.5 143.75 L 158.75 140.0 L 155.0 137.5 L 151.25 136.25 L 146.25 136.25 L 143.75 136.25 L 141.25 136.25 L 140.0 136.25 L 137.5 140.0 L 137.5 141.25 " stroke="black" fill="none" stroke-width="6.0" stroke-linecap="round" stroke-linejoin="round" />
</svg>