<svg xmlns="http://www.w3.org/2000/svg" width="300" height="300" viewBox="0 0 300 300">
<path d="M 97.5 105.0 L 96.25 106.25 L 92.5 108.75 L 96.25 110.0 L 120.0 108.75 L 156.25 102.5 L 192.5 97.5 L 205.0 96.25 L 205.0 103.75 L 195.0 128.75 L 178.75 155.0 L 163.75 175.0 L 155.0 183.75 L 147.5 183.75 " stroke="black" fill="none" stroke-width="6.0" stroke-linecap="round" stroke-linejoin="round" />
<path d="M 120.0 131.25 L 120.0 131.25 L 117.5 131.25 L 116.25 133.75 L 111.25 151.25 L 106.25 175.0 L 98.75 202.5 L 98.75 205.0 L 106.25 205.0 L 126.25 205.0 L 150.0 201.25 L 173.75 201.25 L 193.75 201.25 L 200.0 205.0 L 201.25 211.25 L 193.75 225.0 L 180.0 242.5 L 163.75 257.5 L 150.0 267.5 L 143.75 270.0 " stroke="black" fill="none" stroke-width="6.0" stroke-linecap="round" stroke-linejoin="round" />
</svg>