<svg xmlns="http://www.w3.org/2000/svg" width="300" height="300" viewBox="0 0 300 300">
<path d="M 88.75 150.0 L 86.25 152.5 L 85.0 153.75 L 100.0 152.5 L 133.75 146.25 L 173.75 135.0 L 196.25 125.0 L 200.0 118.75 L 198.75 117.5 L 186.25 116.25 L 168.75 117.5 L 150.0 117.5 L 137.5 117.5 L 130.0 116.25 L 130.0 113.75 L 137.5 113.75 L 147.5 127.5 L 157.5 156.25 L 162.5 202.5 L 156.25 237.5 L 148.75 251.25 L 138.75 253.75 L 125.0 252.5 L 117.5 247.5 " stroke="black" fill="none" stroke-width="6.0" stroke-linecap="round" stroke-linejoin="round" />
<path d="M 91.25 190.0 L 90.0 188.75 L 87.5 188.75 L 85.0 195.0 L 85.0 213.75 L 86.25 235.0 L 92.5 243.75 " stroke="black" fill="none" stroke-width="6.0" stroke-linecap="round" stroke-linejoin="round" />
<path d="M 191.25 182.5 L 193.75 182.5 L 198.75 182.5 L 203.75 191.25 L 206.25 207.5 L 208.75 225.0 L 212.5 241.25 " stroke="black" fill="none" stroke-width="6.0" stroke-linecap="round" stroke-linejoin="round" />
</svg>