<svg xmlns="http://www.w3.org/2000/svg" width="300" height="300" viewBox="0 0 300 300">
<path d="M 73.75 121.25 L 71.25 121.25 L 68.75 127.5 L 68.75 152.5 L 71.25 192.5 L 73.75 213.75 L 76.25 215.0 L 76.25 211.25 " stroke="black" fill="none" stroke-width="6.0" stroke-linecap="round" stroke-linejoin="round" />
<path d="M 73.75 128.75 L 73.75 128.75 L 72.5 128.75 L 71.25 128.75 L 82.5 126.25 L 110.0 121.25 L 148.75 113.75 L 177.5 108.75 L 195.0 107.5 L 202.5 106.25 L 203.75 107.5 L 203.75 107.5 L 203.75 110.0 L 202.5 117.5 L 202.5 136.25 L 202.5 171.25 L 203.75 210.0 L 203.75 232.5 L 203.75 242.5 L 203.75 243.75 L 203.75 243.75 L 205.0 241.25 L 205.0 240.0 " stroke="black" fill="none" stroke-width="6.0" stroke-linecap="round" stroke-linejoin="round" />
</svg>