<svg xmlns="http://www.w3.org/2000/svg" width="300" height="300" viewBox="0 0 300 300">
<path d="M 68.75 150.0 L 57.5 150.0 L 53.75 150.0 L 61.25 151.25 L 87.5 155.0 L 127.5 153.75 L 176.25 143.75 L 212.5 136.25 L 223.75 135.0 L 222.5 135.0 L 207.5 136.25 " stroke="black" fill="none" stroke-width="6.0" stroke-linecap="round" stroke-linejoin="round" />
<path d="M 110.0 97.5 L 108.75 96.25 L 108.75 96.25 L 110.0 118.75 L 113.75 166.25 L 117.5 206.25 L 122.5 223.75 L 135.0 231.25 L 156.25 235.0 L 183.75 235.0 L 207.5 233.75 L 221.25 231.25 L 226.25 228.75 L 221.25 223.75 L 210.0 216.25 L 207.5 213.75 " stroke="black" fill="none" stroke-width="6.0" stroke-linecap="round" stroke-linejoin="round" />
<path d="M 188.75 100.0 L 187.5 97.5 L 187.5 96.25 L 187.5 111.25 L 187.5 152.5 L 181.25 196.25 L 171.25 218.75 L 166.25 220.0 " stroke="black" fill="none" stroke-width="6.0" stroke-linecap="round" stroke-linejoin="round" />
</svg>