<svg xmlns="http://www.w3.org/2000/svg" width="300" height="300" viewBox="0 0 300 300">
<path d="M 90.0 116.25 L 86.25 120.0 L 86.25 121.25 L 98.75 121.25 L 132.5 118.75 L 175.0 111.25 L 206.25 106.25 L 215.0 105.0 L 213.75 105.0 L 208.75 106.25 " stroke="black" fill="none" stroke-width="6.0" stroke-linecap="round" stroke-linejoin="round" />
<path d="M 145.0 73.75 L 145.0 73.75 L 145.0 75.0 L 142.5 91.25 L 132.5 127.5 L 122.5 155.0 L 116.25 162.5 L 116.25 163.75 L 122.5 165.0 L 138.75 166.25 L 158.75 165.0 L 185.0 162.5 L 205.0 161.25 L 212.5 165.0 L 213.75 182.5 L 205.0 207.5 L 191.25 235.0 L 175.0 252.5 L 160.0 261.25 L 153.75 262.5 " stroke="black" fill="none" stroke-width="6.0" stroke-linecap="round" stroke-linejoin="round" />
</svg>