<svg xmlns="http://www.w3.org/2000/svg" width="300" height="300" viewBox="0 0 300 300">
<path d="M 90.0 133.75 L 83.75 135.0 L 81.25 136.25 L 91.25 137.5 L 120.0 137.5 L 163.75 133.75 L 205.0 127.5 L 226.25 126.25 L 232.5 125.0 L 225.0 125.0 L 216.25 125.0 " stroke="black" fill="none" stroke-width="6.0" stroke-linecap="round" stroke-linejoin="round" />
<path d="M 157.5 95.0 L 157.5 95.0 L 156.25 95.0 L 156.25 101.25 L 147.5 136.25 L 131.25 181.25 L 115.0 206.25 L 110.0 218.75 L 117.5 226.25 L 141.25 230.0 L 168.75 227.5 L 198.75 221.25 L 215.0 216.25 L 222.5 213.75 L 222.5 213.75 L 218.75 213.75 L 213.75 213.75 L 207.5 211.25 " stroke="black" fill="none" stroke-width="6.0" stroke-linecap="round" stroke-linejoin="round" />
<path d="M 208.75 177.5 L 207.5 177.5 L 202.5 176.25 L 202.5 176.25 L 205.0 185.0 L 217.5 208.75 L 231.25 238.75 L 243.75 265.0 L 243.75 267.5 " stroke="black" fill="none" stroke-width="6.0" stroke-linecap="round" stroke-linejoin="round" />
</svg>