<svg xmlns="http://www.w3.org/2000/svg" width="300" height="300" viewBox="0 0 300 300">
<path d="M 107.5 96.25 L 105.0 97.5 L 103.75 97.5 L 116.25 98.75 L 146.25 98.75 L 183.75 93.75 L 213.75 90.0 L 225.0 88.75 L 220.0 90.0 L 213.75 92.5 " stroke="black" fill="none" stroke-width="6.0" stroke-linecap="round" stroke-linejoin="round" />
<path d="M 152.5 105.0 L 152.5 105.0 L 152.5 103.75 L 152.5 103.75 L 148.75 116.25 L 141.25 140.0 L 131.25 156.25 L 127.5 161.25 L 127.5 160.0 L 132.5 158.75 L 147.5 155.0 L 170.0 152.5 L 196.25 148.75 L 215.0 147.5 L 222.5 148.75 L 225.0 158.75 L 222.5 180.0 L 215.0 202.5 L 206.25 218.75 L 198.75 231.25 L 190.0 240.0 L 182.5 242.5 L 176.25 242.5 L 168.75 238.75 L 160.0 228.75 L 152.5 215.0 " stroke="black" fill="none" stroke-width="6.0" stroke-linecap="round" stroke-linejoin="round" />
</svg>