<svg xmlns="http://www.w3.org/2000/svg" width="300" height="300" viewBox="0 0 300 300">
<path d="M 97.5 146.25 L 96.25 146.25 L 93.75 146.25 L 92.5 157.5 L 92.5 201.25 L 95.0 233.75 L 98.75 243.75 L 98.75 237.5 " stroke="black" fill="none" stroke-width="6.0" stroke-linecap="round" stroke-linejoin="round" />
<path d="M 93.75 155.0 L 91.25 152.5 L 91.25 150.0 L 102.5 147.5 L 130.0 143.75 L 166.25 140.0 L 193.75 137.5 L 205.0 137.5 L 208.75 143.75 L 210.0 160.0 L 211.25 186.25 L 212.5 206.25 L 212.5 216.25 L 212.5 218.75 L 211.25 220.0 L 207.5 222.5 L 205.0 223.75 " stroke="black" fill="none" stroke-width="6.0" stroke-linecap="round" stroke-linejoin="round" />
<path d="M 111.25 236.25 L 105.0 237.5 L 101.25 237.5 L 106.25 237.5 L 131.25 237.5 L 168.75 236.25 L 207.5 235.0 L 217.5 235.0 " stroke="black" fill="none" stroke-width="6.0" stroke-linecap="round" stroke-linejoin="round" />
</svg>