<svg xmlns="http://www.w3.org/2000/svg" width="300" height="300" viewBox="0 0 300 300">
<path d="M 150.0 98.75 L 150.0 98.75 L 147.5 98.75 L 142.5 102.5 L 126.25 121.25 L 108.75 142.5 L 100.0 152.5 L 100.0 153.75 L 107.5 155.0 L 125.0 160.0 L 147.5 163.75 L 161.25 166.25 L 170.0 168.75 L 170.0 168.75 " stroke="black" fill="none" stroke-width="6.0" stroke-linecap="round" stroke-linejoin="round" />
<path d="M 198.75 118.75 L 198.75 118.75 L 198.75 117.5 L 195.0 120.0 L 180.0 140.0 L 157.5 171.25 L 136.25 197.5 L 117.5 215.0 L 108.75 223.75 L 110.0 226.25 L 118.75 230.0 L 135.0 231.25 L 153.75 232.5 L 177.5 231.25 L 197.5 228.75 L 207.5 228.75 L 210.0 228.75 L 208.75 228.75 L 206.25 223.75 L 203.75 222.5 " stroke="black" fill="none" stroke-width="6.0" stroke-linecap="round" stroke-linejoin="round" />
<path d="M 196.25 193.75 L 195.0 192.5 L 192.5 191.25 L 192.5 191.25 L 198.75 198.75 L 211.25 217.5 L 227.5 241.25 L 230.0 247.5 " stroke="black" fill="none" stroke-width="6.0" stroke-linecap="round" stroke-linejoin="round" />
</svg>