<svg xmlns="http://www.w3.org/2000/svg" width="300" height="300" viewBox="0 0 300 300">
<path d="M 108.75 87.5 L 106.25 87.5 L 100.0 87.5 L 100.0 88.75 L 107.5 97.5 L 126.25 118.75 L 146.25 140.0 L 160.0 151.25 L 167.5 153.75 L 167.5 153.75 " stroke="black" fill="none" stroke-width="6.0" stroke-linecap="round" stroke-linejoin="round" />
<path d="M 210.0 87.5 L 210.0 87.5 L 211.25 86.25 L 211.25 86.25 L 207.5 90.0 L 193.75 106.25 L 172.5 128.75 L 157.5 143.75 L 153.75 146.25 L 155.0 146.25 L 157.5 147.5 L 160.0 150.0 L 162.5 153.75 L 165.0 158.75 L 165.0 171.25 L 165.0 195.0 L 165.0 223.75 L 165.0 242.5 L 166.25 252.5 L 165.0 253.75 " stroke="black" fill="none" stroke-width="6.0" stroke-linecap="round" stroke-linejoin="round" />
</svg>