<svg xmlns="http://www.w3.org/2000/svg" width="300" height="300" viewBox="0 0 300 300">
<path d="M 138.75 78.75 L 138.75 77.5 L 137.5 77.5 L 130.0 88.75 L 113.75 116.25 L 97.5 142.5 L 88.75 153.75 L 85.0 156.25 L 85.0 156.25 L 87.5 156.25 L 93.75 167.5 L 106.25 190.0 L 126.25 213.75 L 143.75 233.75 L 158.75 243.75 L 170.0 245.0 L 172.5 238.75 L 168.75 233.75 " stroke="black" fill="none" stroke-width="6.0" stroke-linecap="round" stroke-linejoin="round" />
<path d="M 205.0 88.75 L 205.0 87.5 L 203.75 87.5 L 202.5 86.25 L 195.0 96.25 L 177.5 122.5 L 157.5 147.5 L 148.75 157.5 L 148.75 157.5 L 155.0 161.25 L 168.75 170.0 L 187.5 182.5 L 205.0 193.75 L 216.25 201.25 L 225.0 206.25 L 230.0 211.25 L 230.0 212.5 L 228.75 213.75 " stroke="black" fill="none" stroke-width="6.0" stroke-linecap="round" stroke-linejoin="round" />
</svg>