<svg xmlns="http://www.w3.org/2000/svg" width="300" height="300" viewBox="0 0 300 300">
<path d="M 108.75 145.0 L 108.75 143.75 L 107.5 142.5 L 106.25 141.25 L 105.0 138.75 L 102.5 137.5 L 98.75 136.25 L 95.0 135.0 L 90.0 135.0 L 82.5 138.75 L 73.75 148.75 L 65.0 166.25 L 58.75 192.5 L 57.5 215.0 L 62.5 228.75 L 70.0 233.75 L 77.5 235.0 L 85.0 232.5 L 91.25 222.5 L 97.5 208.75 L 101.25 193.75 L 103.75 180.0 L 103.75 165.0 L 102.5 152.5 L 102.5 146.25 L 101.25 146.25 L 101.25 146.25 L 101.25 148.75 L 101.25 155.0 L 102.5 168.75 L 105.0 185.0 L 108.75 203.75 L 117.5 221.25 L 127.5 235.0 L 135.0 240.0 L 138.75 241.25 L 140.0 241.25 L 140.0 240.0 L 137.5 236.25 L 136.25 235.0 " stroke="black" fill="none" stroke-width="6.0" stroke-linecap="round" stroke-linejoin="round" />
<path d="M 137.5 213.75 L 135.0 215.0 L 132.5 215.0 L 132.5 216.25 L 135.0 217.5 L 140.0 220.0 L 143.75 221.25 " stroke="black" fill="none" stroke-width="6.0" stroke-linecap="round" stroke-linejoin="round" />
<path d="M 151.25 143.75 L 151.25 142.5 L 150.0 140.0 L 150.0 137.5 L 150.0 137.5 L 153.75 143.75 L 158.75 165.0 L 161.25 191.25 L 161.25 211.25 L 161.25 217.5 L 161.25 216.25 L 161.25 215.0 L 161.25 211.25 L 162.5 203.75 L 165.0 193.75 L 170.0 180.0 L 175.0 163.75 L 182.5 150.0 L 187.5 145.0 L 190.0 147.5 L 192.5 162.5 L 192.5 188.75 L 191.25 210.0 L 190.0 223.75 L 188.75 226.25 L 188.75 225.0 L 188.75 217.5 L 192.5 203.75 L 196.25 187.5 L 202.5 165.0 L 208.75 141.25 L 213.75 130.0 L 217.5 128.75 L 220.0 138.75 L 221.25 161.25 L 221.25 192.5 L 221.25 221.25 L 222.5 236.25 L 226.25 242.5 L 227.5 242.5 L 228.75 240.0 L 228.75 236.25 L 227.5 227.5 " stroke="black" fill="none" stroke-width="6.0" stroke-linecap="round" stroke-linejoin="round" />
<path d="M 251.25 215.0 L 247.5 216.25 L 245.0 216.25 L 245.0 216.25 L 247.5 218.75 L 253.75 221.25 L 256.25 222.5 " stroke="black" fill="none" stroke-width="6.0" stroke-linecap="round" stroke-linejoin="round" />
</svg>