<svg xmlns="http://www.w3.org/2000/svg" width="300" height="300" viewBox="0 0 300 300">
<path d="M 100.0 85.0 L 98.75 83.75 L 95.0 81.25 L 93.75 81.25 L 93.75 85.0 L 93.75 101.25 L 91.25 132.5 L 90.0 167.5 L 88.75 196.25 L 90.0 208.75 L 91.25 215.0 L 93.75 223.75 L 96.25 228.75 L 98.75 231.25 L 103.75 233.75 L 108.75 235.0 L 115.0 236.25 L 120.0 237.5 L 125.0 240.0 L 130.0 241.25 L 133.75 242.5 L 136.25 242.5 L 136.25 242.5 " stroke="black" fill="none" stroke-width="6.0" stroke-linecap="round" stroke-linejoin="round" />
<path d="M 158.75 146.25 L 157.5 143.75 L 156.25 142.5 L 157.5 141.25 L 160.0 142.5 L 165.0 157.5 L 168.75 183.75 L 170.0 211.25 L 170.0 226.25 L 168.75 230.0 L 167.5 231.25 L 167.5 228.75 L 170.0 221.25 L 173.75 206.25 L 180.0 187.5 L 188.75 162.5 L 198.75 138.75 L 206.25 126.25 L 212.5 121.25 L 217.5 120.0 L 222.5 123.75 L 226.25 135.0 L 228.75 151.25 L 228.75 171.25 L 228.75 191.25 L 227.5 207.5 L 226.25 217.5 L 226.25 223.75 L 227.5 225.0 L 227.5 225.0 L 228.75 225.0 L 230.0 225.0 L 231.25 223.75 " stroke="black" fill="none" stroke-width="6.0" stroke-linecap="round" stroke-linejoin="round" />
</svg>