<svg xmlns="http://www.w3.org/2000/svg" width="300" height="300" viewBox="0 0 300 300">
<path d="M 86.25 85.0 L 83.75 85.0 L 81.25 83.75 L 81.25 86.25 L 81.25 106.25 L 80.0 142.5 L 77.5 178.75 L 73.75 203.75 L 73.75 218.75 L 73.75 231.25 L 76.25 238.75 L 77.5 241.25 L 78.75 242.5 L 80.0 242.5 L 80.0 242.5 L 81.25 241.25 L 83.75 236.25 L 83.75 233.75 " stroke="black" fill="none" stroke-width="6.0" stroke-linecap="round" stroke-linejoin="round" />
<path d="M 137.5 155.0 L 133.75 153.75 L 131.25 153.75 L 127.5 155.0 L 125.0 165.0 L 123.75 186.25 L 123.75 211.25 L 128.75 228.75 L 136.25 232.5 L 146.25 231.25 L 155.0 220.0 L 162.5 206.25 L 168.75 192.5 L 171.25 176.25 L 168.75 161.25 L 160.0 148.75 L 150.0 146.25 L 140.0 148.75 L 133.75 156.25 L 132.5 165.0 L 137.5 171.25 " stroke="black" fill="none" stroke-width="6.0" stroke-linecap="round" stroke-linejoin="round" />
<path d="M 230.0 142.5 L 228.75 140.0 L 226.25 136.25 L 225.0 132.5 L 222.5 131.25 L 216.25 131.25 L 207.5 138.75 L 198.75 153.75 L 193.75 172.5 L 192.5 188.75 L 198.75 195.0 L 207.5 193.75 L 220.0 185.0 L 232.5 172.5 L 238.75 158.75 L 241.25 147.5 L 240.0 142.5 L 236.25 142.5 L 233.75 148.75 L 230.0 170.0 L 227.5 200.0 L 226.25 238.75 L 225.0 265.0 L 223.75 272.5 L 218.75 276.25 L 210.0 276.25 L 201.25 276.25 L 190.0 275.0 L 182.5 270.0 L 182.5 262.5 L 191.25 250.0 L 207.5 233.75 L 231.25 212.5 L 251.25 197.5 " stroke="black" fill="none" stroke-width="6.0" stroke-linecap="round" stroke-linejoin="round" />
</svg>