<svg xmlns="http://www.w3.org/2000/svg" width="300" height="300" viewBox="0 0 300 300">
<path d="M 125.0 97.5 L 122.5 95.0 L 118.75 93.75 L 113.75 92.5 L 108.75 92.5 L 102.5 95.0 L 96.25 101.25 L 88.75 110.0 L 81.25 123.75 L 72.5 140.0 L 67.5 153.75 L 67.5 167.5 L 71.25 185.0 L 77.5 202.5 L 85.0 218.75 L 92.5 233.75 L 100.0 243.75 L 108.75 246.25 L 121.25 246.25 L 131.25 241.25 L 137.5 235.0 L 141.25 230.0 L 142.5 226.25 L 142.5 222.5 L 142.5 220.0 " stroke="black" fill="none" stroke-width="6.0" stroke-linecap="round" stroke-linejoin="round" />
<path d="M 166.25 151.25 L 160.0 150.0 L 155.0 150.0 L 152.5 152.5 L 152.5 162.5 L 152.5 185.0 L 156.25 211.25 L 161.25 228.75 L 170.0 236.25 L 181.25 236.25 L 193.75 226.25 L 202.5 211.25 L 207.5 197.5 L 210.0 183.75 L 208.75 168.75 L 201.25 155.0 L 190.0 147.5 L 173.75 146.25 L 158.75 152.5 L 153.75 160.0 L 155.0 168.75 L 163.75 178.75 " stroke="black" fill="none" stroke-width="6.0" stroke-linecap="round" stroke-linejoin="round" />
<path d="M 228.75 216.25 L 226.25 218.75 L 226.25 218.75 L 227.5 220.0 L 233.75 221.25 L 238.75 222.5 L 242.5 223.75 L 245.0 225.0 L 245.0 225.0 L 245.0 226.25 L 241.25 227.5 L 237.5 227.5 L 235.0 227.5 L 232.5 226.25 L 232.5 223.75 L 232.5 221.25 L 233.75 220.0 L 235.0 218.75 L 236.25 218.75 L 237.5 221.25 L 237.5 225.0 L 236.25 227.5 L 235.0 227.5 L 235.0 227.5 " stroke="black" fill="none" stroke-width="6.0" stroke-linecap="round" stroke-linejoin="round" />
</svg>