<svg xmlns="http://www.w3.org/2000/svg" width="300" height="300" viewBox="0 0 300 300">
<path d="M 138.75 85.0 L 137.5 85.0 L 136.25 85.0 L 137.5 87.5 L 147.5 91.25 L 163.75 97.5 L 177.5 101.25 L 177.5 103.75 " stroke="black" fill="none" stroke-width="6.0" stroke-linecap="round" stroke-linejoin="round" />
<path d="M 92.5 121.25 L 87.5 123.75 L 87.5 125.0 L 102.5 126.25 L 131.25 123.75 L 166.25 116.25 L 195.0 110.0 L 205.0 106.25 L 198.75 107.5 L 187.5 111.25 " stroke="black" fill="none" stroke-width="6.0" stroke-linecap="round" stroke-linejoin="round" />
<path d="M 120.0 177.5 L 116.25 183.75 L 116.25 186.25 L 128.75 186.25 L 150.0 180.0 L 173.75 166.25 L 193.75 153.75 L 197.5 148.75 L 185.0 148.75 L 168.75 148.75 L 152.5 148.75 L 143.75 148.75 L 141.25 143.75 L 142.5 142.5 L 147.5 145.0 L 153.75 158.75 L 157.5 185.0 L 156.25 211.25 L 150.0 231.25 L 141.25 237.5 L 130.0 238.75 L 120.0 238.75 L 113.75 237.5 L 112.5 236.25 L 112.5 236.25 L 113.75 235.0 L 113.75 235.0 L 115.0 235.0 L 115.0 235.0 L 115.0 235.0 L 115.0 235.0 L 115.0 235.0 L 115.0 235.0 L 115.0 235.0 L 115.0 235.0 L 116.25 235.0 L 117.5 235.0 L 126.25 235.0 L 143.75 232.5 L 173.75 226.25 L 202.5 220.0 L 220.0 218.75 L 230.0 220.0 L 233.75 221.25 L 232.5 222.5 " stroke="black" fill="none" stroke-width="6.0" stroke-linecap="round" stroke-linejoin="round" />
</svg>