<svg xmlns="http://www.w3.org/2000/svg" width="300" height="300" viewBox="0 0 300 300">
<path d="M 95.0 98.75 L 95.0 98.75 L 93.75 98.75 L 93.75 101.25 L 96.25 118.75 L 97.5 136.25 L 98.75 143.75 L 101.25 143.75 L 113.75 137.5 L 136.25 125.0 L 160.0 108.75 L 178.75 96.25 L 188.75 90.0 L 190.0 87.5 L 182.5 90.0 L 177.5 91.25 " stroke="black" fill="none" stroke-width="6.0" stroke-linecap="round" stroke-linejoin="round" />
<path d="M 147.5 121.25 L 146.25 122.5 L 145.0 130.0 L 146.25 151.25 L 150.0 196.25 L 151.25 223.75 L 152.5 232.5 L 152.5 237.5 L 148.75 237.5 L 145.0 232.5 L 142.5 225.0 " stroke="black" fill="none" stroke-width="6.0" stroke-linecap="round" stroke-linejoin="round" />
<path d="M 146.25 168.75 L 143.75 166.25 L 151.25 161.25 L 168.75 152.5 L 191.25 142.5 L 203.75 136.25 L 202.5 135.0 L 200.0 136.25 " stroke="black" fill="none" stroke-width="6.0" stroke-linecap="round" stroke-linejoin="round" />
<path d="M 153.75 197.5 L 152.5 198.75 L 148.75 206.25 L 152.5 206.25 L 166.25 201.25 L 186.25 192.5 L 202.5 181.25 L 206.25 176.25 " stroke="black" fill="none" stroke-width="6.0" stroke-linecap="round" stroke-linejoin="round" />
</svg>