<svg xmlns="http://www.w3.org/2000/svg" width="300" height="300" viewBox="0 0 300 300">
<path d="M 141.25 92.5 L 140.0 91.25 L 140.0 90.0 L 143.75 102.5 L 148.75 147.5 L 150.0 192.5 L 148.75 213.75 L 147.5 217.5 L 145.0 212.5 L 143.75 208.75 " stroke="black" fill="none" stroke-width="6.0" stroke-linecap="round" stroke-linejoin="round" />
<path d="M 143.75 151.25 L 141.25 151.25 L 142.5 151.25 L 153.75 150.0 L 180.0 145.0 L 210.0 137.5 L 226.25 133.75 L 226.25 133.75 " stroke="black" fill="none" stroke-width="6.0" stroke-linecap="round" stroke-linejoin="round" />
<path d="M 93.75 241.25 L 93.75 241.25 L 91.25 241.25 L 91.25 241.25 L 101.25 238.75 L 132.5 233.75 L 178.75 226.25 L 220.0 222.5 L 250.0 222.5 L 258.75 226.25 L 260.0 227.5 L 257.5 227.5 L 252.5 228.75 " stroke="black" fill="none" stroke-width="6.0" stroke-linecap="round" stroke-linejoin="round" />
</svg>