<svg xmlns="http://www.w3.org/2000/svg" width="300" height="300" viewBox="0 0 300 300">
<path d="M 72.5 151.25 L 71.25 151.25 L 67.5 152.5 L 63.75 152.5 L 61.25 152.5 L 60.0 153.75 L 61.25 155.0 L 73.75 155.0 L 96.25 152.5 L 135.0 143.75 L 173.75 135.0 L 208.75 128.75 L 236.25 123.75 L 256.25 120.0 L 265.0 116.25 L 266.25 115.0 L 262.5 115.0 L 250.0 117.5 L 245.0 117.5 " stroke="black" fill="none" stroke-width="6.0" stroke-linecap="round" stroke-linejoin="round" />
<path d="M 125.0 92.5 L 125.0 91.25 L 122.5 90.0 L 121.25 88.75 L 121.25 88.75 L 123.75 98.75 L 125.0 127.5 L 126.25 168.75 L 126.25 197.5 L 132.5 225.0 L 138.75 236.25 L 146.25 243.75 L 157.5 245.0 L 176.25 243.75 L 197.5 236.25 L 213.75 226.25 L 223.75 217.5 L 227.5 213.75 L 227.5 213.75 L 223.75 213.75 L 218.75 213.75 " stroke="black" fill="none" stroke-width="6.0" stroke-linecap="round" stroke-linejoin="round" />
</svg>