<svg xmlns="http://www.w3.org/2000/svg" width="300" height="300" viewBox="0 0 300 300">
<path d="M 122.5 78.75 L 122.5 78.75 L 122.5 77.5 L 128.75 77.5 L 145.0 80.0 L 163.75 82.5 L 175.0 83.75 L 173.75 87.5 L 170.0 88.75 " stroke="black" fill="none" stroke-width="6.0" stroke-linecap="round" stroke-linejoin="round" />
<path d="M 88.75 135.0 L 86.25 136.25 L 90.0 137.5 L 113.75 127.5 L 152.5 110.0 L 190.0 93.75 L 206.25 86.25 L 207.5 83.75 L 202.5 85.0 " stroke="black" fill="none" stroke-width="6.0" stroke-linecap="round" stroke-linejoin="round" />
<path d="M 141.25 138.75 L 138.75 151.25 L 138.75 176.25 L 135.0 213.75 L 126.25 240.0 L 117.5 246.25 L 110.0 246.25 " stroke="black" fill="none" stroke-width="6.0" stroke-linecap="round" stroke-linejoin="round" />
<path d="M 161.25 128.75 L 162.5 128.75 L 163.75 131.25 L 170.0 155.0 L 176.25 205.0 L 178.75 242.5 L 181.25 260.0 L 181.25 262.5 L 181.25 262.5 L 176.25 260.0 L 167.5 251.25 L 153.75 240.0 L 145.0 231.25 " stroke="black" fill="none" stroke-width="6.0" stroke-linecap="round" stroke-linejoin="round" />
<path d="M 96.25 175.0 L 96.25 176.25 L 95.0 181.25 L 92.5 190.0 L 86.25 207.5 L 80.0 223.75 L 77.5 228.75 " stroke="black" fill="none" stroke-width="6.0" stroke-linecap="round" stroke-linejoin="round" />
<path d="M 228.75 175.0 L 230.0 185.0 L 238.75 190.0 L 247.5 196.25 L 253.75 201.25 L 257.5 205.0 L 260.0 207.5 " stroke="black" fill="none" stroke-width="6.0" stroke-linecap="round" stroke-linejoin="round" />
</svg>