<svg xmlns="http://www.w3.org/2000/svg" width="300" height="300" viewBox="0 0 300 300">
<path d="M 107.5 85.0 L 106.25 85.0 L 107.5 85.0 L 126.25 85.0 L 150.0 83.75 L 165.0 85.0 L 168.75 88.75 L 161.25 98.75 L 148.75 111.25 L 138.75 123.75 L 136.25 130.0 L 140.0 130.0 L 150.0 130.0 L 160.0 136.25 L 163.75 157.5 L 162.5 193.75 L 158.75 222.5 L 155.0 237.5 L 155.0 240.0 L 152.5 236.25 L 148.75 223.75 L 143.75 213.75 " stroke="black" fill="none" stroke-width="6.0" stroke-linecap="round" stroke-linejoin="round" />
<path d="M 88.75 167.5 L 86.25 168.75 L 81.25 170.0 L 82.5 170.0 L 93.75 167.5 L 108.75 163.75 L 118.75 163.75 L 117.5 177.5 L 98.75 200.0 L 82.5 216.25 L 75.0 220.0 L 76.25 213.75 " stroke="black" fill="none" stroke-width="6.0" stroke-linecap="round" stroke-linejoin="round" />
<path d="M 200.0 126.25 L 198.75 127.5 L 196.25 131.25 L 191.25 138.75 L 186.25 148.75 L 183.75 155.0 L 183.75 157.5 L 187.5 160.0 L 196.25 166.25 L 208.75 175.0 L 226.25 183.75 L 242.5 191.25 L 246.25 193.75 L 243.75 195.0 " stroke="black" fill="none" stroke-width="6.0" stroke-linecap="round" stroke-linejoin="round" />
<path d="M 70.0 242.5 L 67.5 242.5 L 63.75 245.0 L 66.25 246.25 L 113.75 242.5 L 152.5 236.25 L 191.25 230.0 L 216.25 227.5 L 235.0 227.5 L 243.75 227.5 L 246.25 226.25 L 246.25 225.0 " stroke="black" fill="none" stroke-width="6.0" stroke-linecap="round" stroke-linejoin="round" />
</svg>