<svg xmlns="http://www.w3.org/2000/svg" width="300" height="300" viewBox="0 0 300 300">
<path d="M 145.0 91.25 L 145.0 91.25 L 142.5 91.25 L 142.5 91.25 L 148.75 92.5 L 160.0 95.0 L 170.0 100.0 L 171.25 102.5 " stroke="black" fill="none" stroke-width="6.0" stroke-linecap="round" stroke-linejoin="round" />
<path d="M 110.0 133.75 L 105.0 136.25 L 102.5 137.5 L 107.5 138.75 L 127.5 138.75 L 152.5 138.75 L 173.75 135.0 L 182.5 132.5 L 181.25 132.5 L 175.0 133.75 L 163.75 140.0 L 153.75 151.25 L 142.5 167.5 L 130.0 190.0 L 116.25 206.25 L 106.25 215.0 L 103.75 216.25 L 103.75 216.25 L 103.75 216.25 L 103.75 215.0 L 103.75 215.0 L 103.75 215.0 L 103.75 213.75 L 103.75 213.75 L 103.75 213.75 L 105.0 212.5 L 107.5 212.5 L 115.0 211.25 L 133.75 212.5 L 168.75 218.75 L 206.25 225.0 L 230.0 230.0 L 250.0 235.0 L 258.75 235.0 " stroke="black" fill="none" stroke-width="6.0" stroke-linecap="round" stroke-linejoin="round" />
</svg>