<svg xmlns="http://www.w3.org/2000/svg" width="300" height="300" viewBox="0 0 300 300">
<path d="M 88.75 98.75 L 87.5 102.5 L 86.25 105.0 L 93.75 105.0 L 116.25 100.0 L 150.0 88.75 L 180.0 77.5 L 195.0 70.0 L 193.75 68.75 L 181.25 73.75 L 167.5 80.0 L 163.75 81.25 " stroke="black" fill="none" stroke-width="6.0" stroke-linecap="round" stroke-linejoin="round" />
<path d="M 151.25 90.0 L 152.5 91.25 L 152.5 93.75 L 152.5 107.5 L 152.5 148.75 L 151.25 195.0 L 151.25 217.5 L 151.25 226.25 L 146.25 230.0 L 140.0 228.75 L 133.75 220.0 " stroke="black" fill="none" stroke-width="6.0" stroke-linecap="round" stroke-linejoin="round" />
<path d="M 151.25 137.5 L 152.5 135.0 L 153.75 132.5 L 161.25 133.75 L 178.75 143.75 L 196.25 155.0 L 212.5 166.25 L 223.75 177.5 L 225.0 178.75 " stroke="black" fill="none" stroke-width="6.0" stroke-linecap="round" stroke-linejoin="round" />
</svg>