<svg xmlns="http://www.w3.org/2000/svg" width="300" height="300" viewBox="0 0 300 300">
<path d="M 96.25 98.75 L 92.5 98.75 L 90.0 98.75 L 90.0 98.75 L 96.25 101.25 L 115.0 106.25 L 145.0 107.5 L 182.5 106.25 L 213.75 101.25 L 228.75 98.75 L 241.25 97.5 L 242.5 97.5 L 242.5 97.5 L 235.0 100.0 L 222.5 102.5 " stroke="black" fill="none" stroke-width="6.0" stroke-linecap="round" stroke-linejoin="round" />
<path d="M 95.0 165.0 L 91.25 165.0 L 88.75 166.25 L 90.0 167.5 L 100.0 171.25 L 123.75 173.75 L 152.5 172.5 L 177.5 168.75 L 193.75 165.0 L 200.0 163.75 L 200.0 163.75 L 200.0 163.75 L 196.25 163.75 " stroke="black" fill="none" stroke-width="6.0" stroke-linecap="round" stroke-linejoin="round" />
<path d="M 80.0 235.0 L 78.75 236.25 L 73.75 236.25 L 72.5 236.25 L 76.25 236.25 L 88.75 236.25 L 108.75 236.25 L 138.75 233.75 L 170.0 230.0 L 200.0 226.25 L 218.75 225.0 L 231.25 225.0 L 236.25 225.0 L 237.5 226.25 L 237.5 226.25 L 237.5 226.25 " stroke="black" fill="none" stroke-width="6.0" stroke-linecap="round" stroke-linejoin="round" />
</svg>