<svg xmlns="http://www.w3.org/2000/svg" width="300" height="300" viewBox="0 0 300 300">
<path d="M 98.75 107.5 L 101.25 105.0 L 102.5 103.75 L 103.75 105.0 L 101.25 122.5 L 88.75 152.5 L 71.25 181.25 L 55.0 195.0 L 47.5 193.75 L 46.25 191.25 " stroke="black" fill="none" stroke-width="6.0" stroke-linecap="round" stroke-linejoin="round" />
<path d="M 98.75 140.0 L 98.75 141.25 L 98.75 147.5 L 101.25 170.0 L 102.5 202.5 L 101.25 223.75 L 97.5 233.75 L 96.25 233.75 " stroke="black" fill="none" stroke-width="6.0" stroke-linecap="round" stroke-linejoin="round" />
<path d="M 122.5 150.0 L 118.75 151.25 L 113.75 152.5 L 117.5 153.75 L 137.5 152.5 L 166.25 143.75 L 202.5 132.5 L 226.25 122.5 L 231.25 120.0 L 227.5 118.75 L 215.0 118.75 L 212.5 118.75 " stroke="black" fill="none" stroke-width="6.0" stroke-linecap="round" stroke-linejoin="round" />
<path d="M 172.5 87.5 L 172.5 86.25 L 172.5 86.25 L 175.0 95.0 L 180.0 131.25 L 180.0 170.0 L 177.5 190.0 L 172.5 197.5 L 165.0 200.0 L 157.5 202.5 L 153.75 205.0 L 152.5 206.25 L 152.5 206.25 L 152.5 206.25 L 152.5 206.25 L 152.5 206.25 L 152.5 206.25 L 152.5 206.25 L 152.5 206.25 L 152.5 206.25 L 152.5 206.25 L 151.25 205.0 L 151.25 205.0 L 151.25 205.0 L 150.0 205.0 L 150.0 203.75 L 150.0 203.75 L 150.0 203.75 L 150.0 203.75 L 153.75 203.75 L 172.5 201.25 L 198.75 197.5 L 216.25 195.0 L 226.25 195.0 L 228.75 195.0 L 230.0 195.0 L 230.0 195.0 L 227.5 195.0 L 226.25 195.0 " stroke="black" fill="none" stroke-width="6.0" stroke-linecap="round" stroke-linejoin="round" />
</svg>