<svg xmlns="http://www.w3.org/2000/svg" width="300" height="300" viewBox="0 0 300 300">
<path d="M 135.0 88.75 L 132.5 88.75 L 127.5 88.75 L 130.0 88.75 L 142.5 90.0 L 156.25 91.25 L 168.75 92.5 L 173.75 93.75 L 170.0 98.75 L 156.25 110.0 L 143.75 121.25 L 132.5 130.0 L 128.75 135.0 L 131.25 136.25 L 141.25 136.25 L 155.0 133.75 L 168.75 130.0 L 177.5 126.25 L 180.0 125.0 L 172.5 131.25 L 162.5 137.5 " stroke="black" fill="none" stroke-width="6.0" stroke-linecap="round" stroke-linejoin="round" />
<path d="M 95.0 190.0 L 93.75 190.0 L 92.5 191.25 L 95.0 191.25 L 115.0 183.75 L 150.0 167.5 L 186.25 152.5 L 206.25 147.5 L 212.5 147.5 L 212.5 148.75 L 203.75 156.25 L 190.0 165.0 " stroke="black" fill="none" stroke-width="6.0" stroke-linecap="round" stroke-linejoin="round" />
<path d="M 158.75 176.25 L 158.75 180.0 L 162.5 188.75 L 168.75 212.5 L 171.25 238.75 L 172.5 250.0 L 171.25 253.75 L 170.0 253.75 L 170.0 253.75 L 170.0 252.5 L 170.0 252.5 L 167.5 252.5 L 163.75 251.25 L 155.0 251.25 L 142.5 248.75 L 128.75 245.0 " stroke="black" fill="none" stroke-width="6.0" stroke-linecap="round" stroke-linejoin="round" />
</svg>