<svg xmlns="http://www.w3.org/2000/svg" width="300" height="300" viewBox="0 0 300 300">
<path d="M 126.25 106.25 L 125.0 106.25 L 122.5 107.5 L 125.0 107.5 L 137.5 105.0 L 160.0 95.0 L 182.5 83.75 L 190.0 80.0 L 182.5 83.75 " stroke="black" fill="none" stroke-width="6.0" stroke-linecap="round" stroke-linejoin="round" />
<path d="M 107.5 180.0 L 103.75 187.5 L 107.5 187.5 L 125.0 182.5 L 151.25 165.0 L 178.75 145.0 L 196.25 132.5 L 201.25 125.0 L 196.25 123.75 L 186.25 123.75 L 181.25 125.0 " stroke="black" fill="none" stroke-width="6.0" stroke-linecap="round" stroke-linejoin="round" />
<path d="M 157.5 118.75 L 157.5 118.75 L 156.25 116.25 L 156.25 115.0 L 156.25 116.25 L 160.0 131.25 L 165.0 167.5 L 170.0 218.75 L 172.5 248.75 L 172.5 258.75 L 171.25 262.5 L 168.75 263.75 L 163.75 263.75 L 156.25 263.75 L 147.5 261.25 L 137.5 257.5 L 125.0 253.75 L 113.75 251.25 " stroke="black" fill="none" stroke-width="6.0" stroke-linecap="round" stroke-linejoin="round" />
</svg>