<svg xmlns="http://www.w3.org/2000/svg" width="300" height="300" viewBox="0 0 300 300">
<path d="M 107.5 82.5 L 103.75 83.75 L 101.25 83.75 L 105.0 85.0 L 123.75 86.25 L 148.75 87.5 L 173.75 88.75 L 187.5 92.5 L 188.75 100.0 L 181.25 112.5 L 170.0 130.0 L 157.5 143.75 L 148.75 155.0 L 147.5 157.5 L 156.25 156.25 L 173.75 148.75 L 195.0 140.0 L 208.75 136.25 L 213.75 138.75 L 212.5 157.5 L 203.75 187.5 L 193.75 211.25 L 183.75 223.75 L 175.0 228.75 L 170.0 227.5 L 162.5 217.5 L 155.0 201.25 L 152.5 197.5 " stroke="black" fill="none" stroke-width="6.0" stroke-linecap="round" stroke-linejoin="round" />
<path d="M 121.25 101.25 L 121.25 101.25 L 121.25 101.25 L 120.0 112.5 L 112.5 157.5 L 100.0 207.5 L 93.75 222.5 " stroke="black" fill="none" stroke-width="6.0" stroke-linecap="round" stroke-linejoin="round" />
</svg>