<svg xmlns="http://www.w3.org/2000/svg" width="300" height="300" viewBox="0 0 300 300">
<path d="M 116.25 108.75 L 116.25 108.75 L 112.5 111.25 L 103.75 127.5 L 91.25 160.0 L 78.75 188.75 L 72.5 201.25 L 71.25 198.75 L 73.75 188.75 L 75.0 185.0 " stroke="black" fill="none" stroke-width="6.0" stroke-linecap="round" stroke-linejoin="round" />
<path d="M 100.0 156.25 L 106.25 157.5 L 107.5 172.5 L 105.0 201.25 L 100.0 233.75 L 97.5 253.75 L 96.25 256.25 " stroke="black" fill="none" stroke-width="6.0" stroke-linecap="round" stroke-linejoin="round" />
<path d="M 136.25 156.25 L 136.25 160.0 L 136.25 171.25 L 136.25 192.5 L 137.5 210.0 L 142.5 217.5 L 151.25 220.0 L 170.0 220.0 L 196.25 215.0 L 223.75 208.75 L 246.25 200.0 L 256.25 195.0 L 256.25 193.75 L 252.5 192.5 L 246.25 190.0 L 242.5 188.75 L 240.0 186.25 L 238.75 182.5 L 238.75 178.75 L 238.75 175.0 L 238.75 171.25 L 238.75 168.75 L 237.5 167.5 L 237.5 167.5 L 236.25 166.25 L 236.25 166.25 L 235.0 165.0 L 233.75 165.0 L 233.75 165.0 L 233.75 166.25 L 240.0 176.25 L 250.0 191.25 L 260.0 206.25 L 263.75 218.75 L 262.5 228.75 " stroke="black" fill="none" stroke-width="6.0" stroke-linecap="round" stroke-linejoin="round" />
<path d="M 187.5 101.25 L 185.0 100.0 L 183.75 100.0 L 185.0 102.5 L 190.0 132.5 L 195.0 177.5 L 196.25 213.75 L 196.25 222.5 " stroke="black" fill="none" stroke-width="6.0" stroke-linecap="round" stroke-linejoin="round" />
</svg>