<svg xmlns="http://www.w3.org/2000/svg" width="300" height="300" viewBox="0 0 300 300">
<path d="M 96.25 101.25 L 93.75 101.25 L 90.0 101.25 L 90.0 103.75 L 95.0 107.5 L 111.25 112.5 L 136.25 113.75 L 166.25 112.5 L 196.25 108.75 L 208.75 105.0 L 215.0 102.5 L 215.0 102.5 L 213.75 102.5 L 207.5 102.5 L 200.0 103.75 " stroke="black" fill="none" stroke-width="6.0" stroke-linecap="round" stroke-linejoin="round" />
<path d="M 90.0 218.75 L 88.75 218.75 L 83.75 218.75 L 81.25 218.75 L 78.75 218.75 L 78.75 218.75 L 85.0 218.75 L 96.25 220.0 L 113.75 221.25 L 137.5 218.75 L 166.25 213.75 L 193.75 211.25 L 212.5 211.25 L 227.5 211.25 L 236.25 211.25 L 237.5 211.25 L 236.25 211.25 L 232.5 212.5 L 230.0 212.5 " stroke="black" fill="none" stroke-width="6.0" stroke-linecap="round" stroke-linejoin="round" />
</svg>