<svg xmlns="http://www.w3.org/2000/svg" width="300" height="300" viewBox="0 0 300 300">
<path d="M 111.25 103.75 L 111.25 103.75 L 110.0 106.25 L 110.0 137.5 L 110.0 185.0 L 113.75 212.5 L 115.0 220.0 L 116.25 216.25 " stroke="black" fill="none" stroke-width="6.0" stroke-linecap="round" stroke-linejoin="round" />
<path d="M 115.0 102.5 L 115.0 102.5 L 115.0 101.25 L 117.5 98.75 L 131.25 93.75 L 153.75 90.0 L 175.0 92.5 L 188.75 108.75 L 190.0 145.0 L 186.25 181.25 L 185.0 202.5 L 185.0 210.0 L 186.25 211.25 L 187.5 212.5 L 187.5 206.25 L 181.25 196.25 L 180.0 193.75 " stroke="black" fill="none" stroke-width="6.0" stroke-linecap="round" stroke-linejoin="round" />
<path d="M 125.0 147.5 L 121.25 147.5 L 115.0 147.5 L 115.0 147.5 L 125.0 147.5 L 142.5 145.0 L 158.75 141.25 L 170.0 137.5 L 170.0 137.5 " stroke="black" fill="none" stroke-width="6.0" stroke-linecap="round" stroke-linejoin="round" />
<path d="M 126.25 178.75 L 122.5 181.25 L 123.75 183.75 L 137.5 182.5 L 157.5 176.25 L 177.5 168.75 L 180.0 167.5 " stroke="black" fill="none" stroke-width="6.0" stroke-linecap="round" stroke-linejoin="round" />
<path d="M 75.0 241.25 L 70.0 242.5 L 66.25 243.75 L 70.0 242.5 L 88.75 237.5 L 108.75 233.75 L 158.75 227.5 L 193.75 227.5 L 210.0 227.5 L 230.0 226.25 L 237.5 226.25 L 238.75 226.25 L 238.75 226.25 L 237.5 226.25 " stroke="black" fill="none" stroke-width="6.0" stroke-linecap="round" stroke-linejoin="round" />
</svg>