<svg xmlns="http://www.w3.org/2000/svg" width="300" height="300" viewBox="0 0 300 300">
<path d="M 120.0 106.25 L 120.0 106.25 L 120.0 106.25 L 126.25 106.25 L 142.5 106.25 L 165.0 105.0 L 186.25 101.25 L 193.75 96.25 L 188.75 95.0 L 185.0 95.0 " stroke="black" fill="none" stroke-width="6.0" stroke-linecap="round" stroke-linejoin="round" />
<path d="M 96.25 148.75 L 92.5 152.5 L 91.25 156.25 L 98.75 158.75 L 118.75 158.75 L 146.25 153.75 L 171.25 146.25 L 190.0 141.25 L 195.0 138.75 L 193.75 138.75 L 186.25 143.75 L 172.5 153.75 L 156.25 168.75 L 137.5 193.75 L 115.0 220.0 L 102.5 238.75 L 102.5 241.25 L 113.75 241.25 L 130.0 237.5 L 148.75 231.25 L 166.25 222.5 L 182.5 216.25 L 193.75 211.25 L 195.0 210.0 L 193.75 210.0 L 191.25 210.0 L 188.75 210.0 L 186.25 207.5 L 185.0 203.75 L 183.75 200.0 L 181.25 197.5 L 178.75 195.0 L 177.5 192.5 L 177.5 192.5 L 176.25 192.5 L 176.25 192.5 L 177.5 193.75 L 182.5 201.25 L 190.0 213.75 L 201.25 233.75 L 213.75 251.25 L 220.0 257.5 L 221.25 258.75 L 221.25 258.75 " stroke="black" fill="none" stroke-width="6.0" stroke-linecap="round" stroke-linejoin="round" />
</svg>