<svg xmlns="http://www.w3.org/2000/svg" width="300" height="300" viewBox="0 0 300 300">
<path d="M 97.5 152.5 L 91.25 158.75 L 87.5 161.25 L 92.5 161.25 L 112.5 153.75 L 143.75 142.5 L 182.5 127.5 L 210.0 115.0 L 215.0 113.75 L 212.5 117.5 L 203.75 130.0 L 191.25 143.75 L 172.5 160.0 L 167.5 163.75 " stroke="black" fill="none" stroke-width="6.0" stroke-linecap="round" stroke-linejoin="round" />
<path d="M 156.25 101.25 L 153.75 101.25 L 152.5 106.25 L 153.75 127.5 L 155.0 160.0 L 152.5 190.0 " stroke="black" fill="none" stroke-width="6.0" stroke-linecap="round" stroke-linejoin="round" />
<path d="M 103.75 128.75 L 100.0 126.25 L 97.5 127.5 L 97.5 142.5 L 102.5 177.5 L 112.5 212.5 L 128.75 232.5 L 151.25 242.5 L 175.0 243.75 L 201.25 238.75 L 220.0 231.25 L 230.0 225.0 L 232.5 220.0 L 232.5 216.25 L 228.75 210.0 L 221.25 198.75 L 215.0 185.0 " stroke="black" fill="none" stroke-width="6.0" stroke-linecap="round" stroke-linejoin="round" />
</svg>