<svg xmlns="http://www.w3.org/2000/svg" width="300" height="300" viewBox="0 0 300 300">
<path d="M 106.25 85.0 L 106.25 85.0 L 105.0 86.25 L 101.25 93.75 L 92.5 116.25 L 80.0 142.5 L 67.5 157.5 L 57.5 162.5 L 51.25 163.75 L 47.5 163.75 " stroke="black" fill="none" stroke-width="6.0" stroke-linecap="round" stroke-linejoin="round" />
<path d="M 90.0 132.5 L 90.0 131.25 L 90.0 130.0 L 90.0 130.0 L 90.0 132.5 L 90.0 150.0 L 91.25 186.25 L 91.25 226.25 L 87.5 255.0 L 85.0 262.5 L 83.75 260.0 " stroke="black" fill="none" stroke-width="6.0" stroke-linecap="round" stroke-linejoin="round" />
<path d="M 147.5 103.75 L 143.75 103.75 L 141.25 103.75 L 148.75 105.0 L 165.0 103.75 L 187.5 96.25 L 207.5 86.25 L 216.25 78.75 L 217.5 76.25 L 212.5 76.25 L 203.75 83.75 L 198.75 87.5 " stroke="black" fill="none" stroke-width="6.0" stroke-linecap="round" stroke-linejoin="round" />
<path d="M 130.0 167.5 L 128.75 167.5 L 123.75 170.0 L 122.5 171.25 L 130.0 171.25 L 150.0 168.75 L 180.0 160.0 L 211.25 151.25 L 237.5 145.0 L 250.0 141.25 L 250.0 141.25 L 243.75 141.25 L 231.25 142.5 L 227.5 142.5 " stroke="black" fill="none" stroke-width="6.0" stroke-linecap="round" stroke-linejoin="round" />
<path d="M 192.5 105.0 L 191.25 103.75 L 190.0 102.5 L 188.75 102.5 L 190.0 105.0 L 193.75 130.0 L 195.0 183.75 L 190.0 241.25 L 186.25 267.5 L 183.75 278.75 L 182.5 280.0 L 182.5 278.75 L 177.5 266.25 L 176.25 263.75 " stroke="black" fill="none" stroke-width="6.0" stroke-linecap="round" stroke-linejoin="round" />
</svg>