<svg xmlns="http://www.w3.org/2000/svg" width="300" height="300" viewBox="0 0 300 300">
<path d="M 115.0 90.0 L 108.75 91.25 L 106.25 92.5 L 112.5 93.75 L 133.75 95.0 L 158.75 92.5 L 186.25 87.5 L 201.25 83.75 L 195.0 85.0 L 190.0 87.5 " stroke="black" fill="none" stroke-width="6.0" stroke-linecap="round" stroke-linejoin="round" />
<path d="M 80.0 141.25 L 76.25 146.25 L 76.25 158.75 L 82.5 190.0 L 88.75 223.75 L 91.25 238.75 L 91.25 240.0 " stroke="black" fill="none" stroke-width="6.0" stroke-linecap="round" stroke-linejoin="round" />
<path d="M 91.25 161.25 L 90.0 160.0 L 91.25 158.75 L 111.25 153.75 L 151.25 143.75 L 190.0 135.0 L 212.5 132.5 L 222.5 145.0 L 223.75 176.25 L 215.0 213.75 L 207.5 241.25 L 202.5 250.0 L 201.25 250.0 L 200.0 245.0 L 196.25 233.75 L 187.5 216.25 " stroke="black" fill="none" stroke-width="6.0" stroke-linecap="round" stroke-linejoin="round" />
<path d="M 151.25 92.5 L 150.0 95.0 L 145.0 107.5 L 137.5 138.75 L 123.75 178.75 L 112.5 200.0 L 103.75 205.0 L 100.0 202.5 " stroke="black" fill="none" stroke-width="6.0" stroke-linecap="round" stroke-linejoin="round" />
<path d="M 142.5 146.25 L 142.5 147.5 L 145.0 155.0 L 156.25 171.25 L 172.5 193.75 L 190.0 206.25 L 198.75 210.0 " stroke="black" fill="none" stroke-width="6.0" stroke-linecap="round" stroke-linejoin="round" />
</svg>