<svg xmlns="http://www.w3.org/2000/svg" width="300" height="300" viewBox="0 0 300 300">
<path d="M 95.0 115.0 L 93.75 115.0 L 92.5 120.0 L 96.25 153.75 L 105.0 190.0 L 113.75 201.25 L 116.25 200.0 L 113.75 196.25 " stroke="black" fill="none" stroke-width="6.0" stroke-linecap="round" stroke-linejoin="round" />
<path d="M 92.5 152.5 L 86.25 143.75 L 85.0 140.0 L 92.5 136.25 L 116.25 128.75 L 155.0 120.0 L 191.25 117.5 L 207.5 121.25 L 208.75 130.0 L 197.5 143.75 L 175.0 160.0 L 147.5 178.75 L 123.75 195.0 L 112.5 203.75 L 117.5 202.5 L 140.0 195.0 L 166.25 178.75 L 193.75 160.0 L 203.75 150.0 L 201.25 146.25 L 188.75 145.0 " stroke="black" fill="none" stroke-width="6.0" stroke-linecap="round" stroke-linejoin="round" />
<path d="M 148.75 75.0 L 148.75 72.5 L 147.5 68.75 L 147.5 67.5 L 147.5 70.0 L 148.75 91.25 L 150.0 143.75 L 150.0 207.5 L 150.0 248.75 L 150.0 267.5 L 148.75 273.75 L 145.0 276.25 L 136.25 272.5 " stroke="black" fill="none" stroke-width="6.0" stroke-linecap="round" stroke-linejoin="round" />
</svg>