<svg xmlns="http://www.w3.org/2000/svg" width="300" height="300" viewBox="0 0 300 300">
<path d="M 91.25 92.5 L 91.25 92.5 L 91.25 92.5 L 91.25 95.0 L 88.75 115.0 L 76.25 146.25 L 53.75 173.75 L 38.75 187.5 L 32.5 188.75 " stroke="black" fill="none" stroke-width="6.0" stroke-linecap="round" stroke-linejoin="round" />
<path d="M 88.75 131.25 L 86.25 131.25 L 83.75 132.5 L 82.5 135.0 L 82.5 137.5 L 85.0 146.25 L 88.75 168.75 L 91.25 201.25 L 86.25 231.25 L 80.0 246.25 " stroke="black" fill="none" stroke-width="6.0" stroke-linecap="round" stroke-linejoin="round" />
<path d="M 148.75 125.0 L 146.25 126.25 L 142.5 128.75 L 148.75 128.75 L 171.25 122.5 L 203.75 110.0 L 228.75 98.75 L 236.25 95.0 L 225.0 95.0 " stroke="black" fill="none" stroke-width="6.0" stroke-linecap="round" stroke-linejoin="round" />
<path d="M 166.25 80.0 L 166.25 78.75 L 166.25 78.75 L 168.75 82.5 L 177.5 112.5 L 180.0 157.5 L 171.25 193.75 L 157.5 211.25 L 142.5 221.25 L 121.25 228.75 L 113.75 228.75 " stroke="black" fill="none" stroke-width="6.0" stroke-linecap="round" stroke-linejoin="round" />
<path d="M 135.0 165.0 L 135.0 165.0 L 135.0 165.0 L 142.5 175.0 L 162.5 193.75 L 192.5 211.25 L 216.25 226.25 L 242.5 236.25 L 257.5 243.75 " stroke="black" fill="none" stroke-width="6.0" stroke-linecap="round" stroke-linejoin="round" />
</svg>