<svg xmlns="http://www.w3.org/2000/svg" width="300" height="300" viewBox="0 0 300 300">
<path d="M 106.25 93.75 L 107.5 88.75 L 107.5 87.5 L 107.5 92.5 L 101.25 115.0 L 90.0 145.0 L 75.0 168.75 L 63.75 177.5 L 62.5 170.0 L 63.75 158.75 " stroke="black" fill="none" stroke-width="6.0" stroke-linecap="round" stroke-linejoin="round" />
<path d="M 100.0 132.5 L 101.25 136.25 L 103.75 153.75 L 106.25 185.0 L 103.75 215.0 L 100.0 233.75 L 96.25 240.0 L 95.0 237.5 " stroke="black" fill="none" stroke-width="6.0" stroke-linecap="round" stroke-linejoin="round" />
<path d="M 140.0 102.5 L 138.75 102.5 L 136.25 102.5 L 141.25 102.5 L 157.5 98.75 L 182.5 91.25 L 198.75 83.75 L 202.5 81.25 L 197.5 81.25 " stroke="black" fill="none" stroke-width="6.0" stroke-linecap="round" stroke-linejoin="round" />
<path d="M 160.0 82.5 L 160.0 82.5 L 161.25 86.25 L 165.0 100.0 L 166.25 121.25 L 163.75 136.25 L 157.5 141.25 L 151.25 142.5 L 146.25 142.5 L 146.25 142.5 L 148.75 142.5 L 160.0 140.0 L 176.25 135.0 L 191.25 127.5 L 198.75 123.75 L 196.25 125.0 L 190.0 127.5 " stroke="black" fill="none" stroke-width="6.0" stroke-linecap="round" stroke-linejoin="round" />
<path d="M 122.5 195.0 L 121.25 196.25 L 120.0 198.75 L 133.75 195.0 L 152.5 185.0 L 198.75 158.75 L 223.75 143.75 L 233.75 137.5 L 231.25 136.25 L 218.75 137.5 L 213.75 138.75 " stroke="black" fill="none" stroke-width="6.0" stroke-linecap="round" stroke-linejoin="round" />
<path d="M 205.0 136.25 L 205.0 136.25 L 205.0 138.75 L 206.25 166.25 L 208.75 206.25 L 208.75 243.75 L 208.75 255.0 L 208.75 255.0 L 206.25 252.5 L 198.75 246.25 L 186.25 237.5 L 170.0 222.5 L 156.25 206.25 L 151.25 197.5 " stroke="black" fill="none" stroke-width="6.0" stroke-linecap="round" stroke-linejoin="round" />
<path d="M 152.5 175.0 L 152.5 175.0 L 152.5 175.0 L 152.5 176.25 L 158.75 188.75 L 167.5 207.5 L 168.75 212.5 " stroke="black" fill="none" stroke-width="6.0" stroke-linecap="round" stroke-linejoin="round" />
</svg>