<svg xmlns="http://www.w3.org/2000/svg" width="300" height="300" viewBox="0 0 300 300">
<path d="M 103.75 86.25 L 103.75 85.0 L 103.75 82.5 L 103.75 82.5 L 101.25 90.0 L 93.75 112.5 L 77.5 143.75 L 58.75 167.5 L 46.25 173.75 L 42.5 171.25 " stroke="black" fill="none" stroke-width="6.0" stroke-linecap="round" stroke-linejoin="round" />
<path d="M 92.5 122.5 L 92.5 121.25 L 92.5 118.75 L 95.0 123.75 L 98.75 146.25 L 101.25 185.0 L 98.75 215.0 L 93.75 233.75 L 88.75 236.25 " stroke="black" fill="none" stroke-width="6.0" stroke-linecap="round" stroke-linejoin="round" />
<path d="M 131.25 113.75 L 127.5 116.25 L 123.75 118.75 L 128.75 118.75 L 145.0 113.75 L 167.5 103.75 L 186.25 96.25 L 205.0 86.25 L 205.0 85.0 L 193.75 87.5 L 182.5 91.25 L 170.0 92.5 L 160.0 92.5 L 155.0 92.5 L 155.0 92.5 L 155.0 106.25 L 148.75 141.25 L 132.5 182.5 L 113.75 211.25 L 100.0 226.25 L 97.5 228.75 L 97.5 227.5 " stroke="black" fill="none" stroke-width="6.0" stroke-linecap="round" stroke-linejoin="round" />
<path d="M 142.5 157.5 L 142.5 157.5 L 141.25 157.5 L 141.25 161.25 L 148.75 183.75 L 160.0 211.25 L 171.25 227.5 L 177.5 233.75 L 177.5 233.75 L 175.0 232.5 L 170.0 227.5 L 162.5 218.75 L 156.25 210.0 L 151.25 201.25 L 151.25 195.0 L 155.0 191.25 L 167.5 185.0 L 183.75 178.75 L 200.0 172.5 L 207.5 171.25 L 205.0 182.5 L 195.0 201.25 L 181.25 221.25 L 170.0 238.75 L 170.0 243.75 L 183.75 237.5 L 202.5 220.0 L 217.5 202.5 L 227.5 190.0 L 227.5 183.75 " stroke="black" fill="none" stroke-width="6.0" stroke-linecap="round" stroke-linejoin="round" />
</svg>