<svg xmlns="http://www.w3.org/2000/svg" width="300" height="300" viewBox="0 0 300 300">
<path d="M 93.75 100.0 L 93.75 98.75 L 93.75 96.25 L 93.75 95.0 L 92.5 100.0 L 86.25 122.5 L 76.25 152.5 L 63.75 178.75 L 55.0 187.5 L 52.5 181.25 L 55.0 170.0 " stroke="black" fill="none" stroke-width="6.0" stroke-linecap="round" stroke-linejoin="round" />
<path d="M 81.25 143.75 L 81.25 143.75 L 85.0 143.75 L 88.75 155.0 L 92.5 187.5 L 92.5 225.0 L 88.75 248.75 L 85.0 255.0 L 85.0 255.0 " stroke="black" fill="none" stroke-width="6.0" stroke-linecap="round" stroke-linejoin="round" />
<path d="M 127.5 87.5 L 127.5 87.5 L 127.5 86.25 L 128.75 87.5 L 130.0 100.0 L 132.5 112.5 L 145.0 122.5 L 166.25 113.75 L 190.0 97.5 L 202.5 87.5 L 205.0 83.75 L 197.5 86.25 L 192.5 88.75 " stroke="black" fill="none" stroke-width="6.0" stroke-linecap="round" stroke-linejoin="round" />
<path d="M 167.5 116.25 L 167.5 118.75 L 166.25 132.5 L 166.25 162.5 L 165.0 202.5 L 165.0 226.25 L 165.0 238.75 L 165.0 241.25 L 160.0 236.25 L 158.75 233.75 " stroke="black" fill="none" stroke-width="6.0" stroke-linecap="round" stroke-linejoin="round" />
<path d="M 157.5 167.5 L 158.75 167.5 L 158.75 166.25 L 162.5 163.75 L 178.75 156.25 L 200.0 147.5 L 212.5 140.0 L 212.5 138.75 L 210.0 138.75 " stroke="black" fill="none" stroke-width="6.0" stroke-linecap="round" stroke-linejoin="round" />
<path d="M 181.25 182.5 L 180.0 183.75 L 180.0 185.0 L 191.25 178.75 L 211.25 163.75 L 221.25 155.0 " stroke="black" fill="none" stroke-width="6.0" stroke-linecap="round" stroke-linejoin="round" />
</svg>