<svg xmlns="http://www.w3.org/2000/svg" width="300" height="300" viewBox="0 0 300 300">
<path d="M 87.5 83.75 L 87.5 83.75 L 87.5 83.75 L 87.5 85.0 L 82.5 102.5 L 68.75 131.25 L 53.75 152.5 L 43.75 158.75 L 42.5 153.75 L 46.25 145.0 " stroke="black" fill="none" stroke-width="6.0" stroke-linecap="round" stroke-linejoin="round" />
<path d="M 80.0 127.5 L 82.5 127.5 L 86.25 130.0 L 91.25 146.25 L 92.5 187.5 L 87.5 222.5 L 82.5 246.25 L 73.75 252.5 " stroke="black" fill="none" stroke-width="6.0" stroke-linecap="round" stroke-linejoin="round" />
<path d="M 132.5 83.75 L 131.25 83.75 L 131.25 83.75 L 138.75 83.75 L 158.75 83.75 L 188.75 83.75 L 210.0 88.75 L 218.75 102.5 L 220.0 137.5 L 220.0 178.75 L 221.25 222.5 L 225.0 246.25 L 225.0 255.0 L 225.0 258.75 L 225.0 258.75 L 223.75 257.5 L 220.0 255.0 L 215.0 248.75 L 206.25 238.75 L 195.0 222.5 L 177.5 203.75 L 172.5 198.75 " stroke="black" fill="none" stroke-width="6.0" stroke-linecap="round" stroke-linejoin="round" />
<path d="M 121.25 133.75 L 117.5 133.75 L 106.25 132.5 L 106.25 131.25 L 117.5 125.0 L 138.75 113.75 L 153.75 107.5 L 171.25 102.5 L 170.0 105.0 " stroke="black" fill="none" stroke-width="6.0" stroke-linecap="round" stroke-linejoin="round" />
<path d="M 113.75 158.75 L 113.75 160.0 L 116.25 167.5 L 128.75 185.0 L 142.5 197.5 L 151.25 202.5 L 152.5 202.5 L 150.0 201.25 L 143.75 198.75 L 135.0 195.0 L 126.25 190.0 L 122.5 185.0 L 126.25 178.75 L 142.5 166.25 L 163.75 155.0 L 182.5 152.5 L 186.25 157.5 L 175.0 176.25 L 160.0 195.0 L 151.25 205.0 L 150.0 205.0 L 163.75 192.5 L 185.0 165.0 " stroke="black" fill="none" stroke-width="6.0" stroke-linecap="round" stroke-linejoin="round" />
</svg>