<svg xmlns="http://www.w3.org/2000/svg" width="300" height="300" viewBox="0 0 300 300">
<path d="M 100.0 88.75 L 100.0 88.75 L 97.5 91.25 L 90.0 110.0 L 76.25 141.25 L 62.5 162.5 L 52.5 170.0 L 47.5 166.25 L 47.5 163.75 " stroke="black" fill="none" stroke-width="6.0" stroke-linecap="round" stroke-linejoin="round" />
<path d="M 90.0 135.0 L 91.25 133.75 L 95.0 133.75 L 98.75 142.5 L 101.25 167.5 L 97.5 200.0 L 91.25 223.75 L 85.0 231.25 " stroke="black" fill="none" stroke-width="6.0" stroke-linecap="round" stroke-linejoin="round" />
<path d="M 132.5 90.0 L 127.5 92.5 L 127.5 95.0 L 142.5 96.25 L 168.75 88.75 L 201.25 77.5 L 216.25 71.25 L 211.25 73.75 L 201.25 81.25 " stroke="black" fill="none" stroke-width="6.0" stroke-linecap="round" stroke-linejoin="round" />
<path d="M 136.25 130.0 L 135.0 140.0 L 137.5 155.0 L 143.75 172.5 L 148.75 183.75 L 151.25 185.0 L 151.25 183.75 L 147.5 178.75 L 142.5 171.25 L 140.0 163.75 L 138.75 155.0 L 147.5 146.25 L 163.75 137.5 L 181.25 135.0 L 186.25 142.5 L 175.0 157.5 L 157.5 176.25 L 146.25 187.5 L 145.0 187.5 L 156.25 171.25 L 171.25 151.25 L 176.25 146.25 " stroke="black" fill="none" stroke-width="6.0" stroke-linecap="round" stroke-linejoin="round" />
<path d="M 213.75 92.5 L 215.0 86.25 L 215.0 83.75 L 215.0 82.5 L 215.0 86.25 L 216.25 106.25 L 216.25 141.25 L 213.75 188.75 L 212.5 222.5 L 212.5 236.25 L 212.5 240.0 L 211.25 240.0 L 206.25 237.5 L 197.5 235.0 L 182.5 232.5 L 160.0 232.5 L 137.5 237.5 L 113.75 240.0 L 108.75 240.0 " stroke="black" fill="none" stroke-width="6.0" stroke-linecap="round" stroke-linejoin="round" />
</svg>