<svg xmlns="http://www.w3.org/2000/svg" width="300" height="300" viewBox="0 0 300 300">
<path d="M 97.5 112.5 L 92.5 118.75 L 83.75 136.25 L 68.75 155.0 L 52.5 177.5 L 45.0 187.5 L 43.75 187.5 " stroke="black" fill="none" stroke-width="6.0" stroke-linecap="round" stroke-linejoin="round" />
<path d="M 93.75 142.5 L 96.25 148.75 L 97.5 170.0 L 97.5 201.25 L 95.0 222.5 L 93.75 235.0 L 92.5 235.0 " stroke="black" fill="none" stroke-width="6.0" stroke-linecap="round" stroke-linejoin="round" />
<path d="M 127.5 111.25 L 128.75 111.25 L 133.75 111.25 L 147.5 108.75 L 172.5 102.5 L 193.75 95.0 L 198.75 91.25 L 186.25 95.0 " stroke="black" fill="none" stroke-width="6.0" stroke-linecap="round" stroke-linejoin="round" />
<path d="M 130.0 142.5 L 130.0 147.5 L 132.5 157.5 L 138.75 171.25 L 143.75 180.0 L 146.25 181.25 L 145.0 177.5 L 140.0 172.5 L 131.25 167.5 L 126.25 162.5 L 125.0 157.5 L 133.75 150.0 L 157.5 138.75 L 188.75 127.5 L 206.25 123.75 L 207.5 125.0 L 196.25 135.0 L 180.0 148.75 L 158.75 162.5 L 143.75 175.0 L 140.0 178.75 L 150.0 173.75 L 166.25 160.0 L 186.25 146.25 L 198.75 133.75 L 200.0 130.0 " stroke="black" fill="none" stroke-width="6.0" stroke-linecap="round" stroke-linejoin="round" />
<path d="M 157.5 81.25 L 157.5 81.25 L 158.75 83.75 L 163.75 100.0 L 168.75 147.5 L 166.25 192.5 L 158.75 216.25 L 146.25 235.0 L 130.0 246.25 L 113.75 247.5 L 103.75 243.75 " stroke="black" fill="none" stroke-width="6.0" stroke-linecap="round" stroke-linejoin="round" />
<path d="M 117.5 187.5 L 117.5 187.5 L 117.5 187.5 L 121.25 190.0 L 136.25 201.25 L 162.5 220.0 L 191.25 237.5 L 211.25 245.0 L 228.75 247.5 L 247.5 251.25 " stroke="black" fill="none" stroke-width="6.0" stroke-linecap="round" stroke-linejoin="round" />
</svg>