<svg xmlns="http://www.w3.org/2000/svg" width="300" height="300" viewBox="0 0 300 300">
<path d="M 100.0 85.0 L 102.5 82.5 L 103.75 81.25 L 105.0 82.5 L 103.75 96.25 L 93.75 123.75 L 78.75 155.0 L 62.5 175.0 L 50.0 178.75 L 46.25 173.75 " stroke="black" fill="none" stroke-width="6.0" stroke-linecap="round" stroke-linejoin="round" />
<path d="M 95.0 131.25 L 95.0 133.75 L 96.25 146.25 L 100.0 171.25 L 100.0 208.75 L 96.25 242.5 L 88.75 258.75 L 86.25 260.0 " stroke="black" fill="none" stroke-width="6.0" stroke-linecap="round" stroke-linejoin="round" />
<path d="M 165.0 75.0 L 161.25 78.75 L 155.0 87.5 L 153.75 103.75 L 156.25 115.0 L 163.75 118.75 L 175.0 115.0 L 185.0 106.25 L 192.5 96.25 L 196.25 87.5 L 196.25 83.75 L 196.25 82.5 L 193.75 82.5 L 193.75 85.0 L 197.5 88.75 L 203.75 92.5 L 210.0 96.25 L 216.25 100.0 L 216.25 102.5 " stroke="black" fill="none" stroke-width="6.0" stroke-linecap="round" stroke-linejoin="round" />
<path d="M 160.0 138.75 L 160.0 138.75 L 160.0 140.0 L 156.25 143.75 L 150.0 156.25 L 142.5 175.0 L 138.75 185.0 L 137.5 185.0 " stroke="black" fill="none" stroke-width="6.0" stroke-linecap="round" stroke-linejoin="round" />
<path d="M 173.75 141.25 L 176.25 140.0 L 185.0 137.5 L 196.25 136.25 L 206.25 135.0 L 215.0 135.0 L 217.5 136.25 L 216.25 136.25 " stroke="black" fill="none" stroke-width="6.0" stroke-linecap="round" stroke-linejoin="round" />
<path d="M 185.0 151.25 L 181.25 155.0 L 171.25 170.0 L 162.5 190.0 L 152.5 210.0 L 147.5 220.0 L 145.0 222.5 L 145.0 221.25 L 150.0 215.0 L 162.5 203.75 L 178.75 191.25 L 196.25 180.0 L 208.75 173.75 L 212.5 173.75 L 207.5 185.0 L 197.5 200.0 L 183.75 216.25 L 166.25 233.75 L 152.5 245.0 L 146.25 247.5 L 146.25 246.25 " stroke="black" fill="none" stroke-width="6.0" stroke-linecap="round" stroke-linejoin="round" />
<path d="M 161.25 202.5 L 161.25 202.5 L 161.25 201.25 L 161.25 201.25 L 162.5 201.25 L 166.25 203.75 L 173.75 210.0 L 182.5 218.75 L 196.25 231.25 L 213.75 242.5 L 236.25 252.5 L 256.25 256.25 L 265.0 256.25 L 267.5 255.0 " stroke="black" fill="none" stroke-width="6.0" stroke-linecap="round" stroke-linejoin="round" />
</svg>