<svg xmlns="http://www.w3.org/2000/svg" width="300" height="300" viewBox="0 0 300 300">
<path d="M 98.75 96.25 L 98.75 96.25 L 98.75 96.25 L 97.5 98.75 L 90.0 118.75 L 77.5 151.25 L 63.75 177.5 L 56.25 187.5 L 55.0 183.75 L 55.0 177.5 " stroke="black" fill="none" stroke-width="6.0" stroke-linecap="round" stroke-linejoin="round" />
<path d="M 86.25 138.75 L 86.25 138.75 L 87.5 141.25 L 91.25 163.75 L 92.5 203.75 L 91.25 233.75 L 87.5 247.5 L 81.25 248.75 L 81.25 246.25 " stroke="black" fill="none" stroke-width="6.0" stroke-linecap="round" stroke-linejoin="round" />
<path d="M 116.25 120.0 L 117.5 118.75 L 118.75 117.5 L 128.75 116.25 L 150.0 112.5 L 177.5 106.25 L 195.0 98.75 L 200.0 96.25 L 195.0 97.5 L 188.75 98.75 " stroke="black" fill="none" stroke-width="6.0" stroke-linecap="round" stroke-linejoin="round" />
<path d="M 148.75 123.75 L 147.5 125.0 L 142.5 132.5 L 138.75 146.25 L 135.0 163.75 L 127.5 187.5 L 121.25 190.0 " stroke="black" fill="none" stroke-width="6.0" stroke-linecap="round" stroke-linejoin="round" />
<path d="M 133.75 155.0 L 133.75 155.0 L 135.0 157.5 L 141.25 165.0 L 151.25 175.0 L 161.25 178.75 L 163.75 175.0 " stroke="black" fill="none" stroke-width="6.0" stroke-linecap="round" stroke-linejoin="round" />
<path d="M 205.0 115.0 L 201.25 120.0 L 195.0 131.25 L 183.75 147.5 L 173.75 161.25 L 167.5 166.25 L 167.5 166.25 L 175.0 163.75 L 188.75 161.25 L 203.75 157.5 L 216.25 153.75 L 223.75 150.0 L 223.75 147.5 L 215.0 146.25 " stroke="black" fill="none" stroke-width="6.0" stroke-linecap="round" stroke-linejoin="round" />
<path d="M 157.5 86.25 L 157.5 86.25 L 157.5 86.25 L 157.5 106.25 L 158.75 150.0 L 155.0 193.75 L 145.0 216.25 L 130.0 231.25 L 115.0 240.0 L 107.5 238.75 " stroke="black" fill="none" stroke-width="6.0" stroke-linecap="round" stroke-linejoin="round" />
<path d="M 161.25 181.25 L 162.5 183.75 L 172.5 191.25 L 190.0 202.5 L 206.25 216.25 L 221.25 228.75 L 233.75 235.0 L 240.0 236.25 L 245.0 237.5 L 245.0 238.75 " stroke="black" fill="none" stroke-width="6.0" stroke-linecap="round" stroke-linejoin="round" />
</svg>