<svg xmlns="http://www.w3.org/2000/svg" width="300" height="300" viewBox="0 0 300 300">
<path d="M 101.25 97.5 L 103.75 92.5 L 103.75 90.0 L 103.75 90.0 L 103.75 95.0 L 100.0 111.25 L 90.0 136.25 L 71.25 167.5 L 51.25 188.75 L 42.5 193.75 L 42.5 188.75 L 47.5 177.5 L 50.0 175.0 " stroke="black" fill="none" stroke-width="6.0" stroke-linecap="round" stroke-linejoin="round" />
<path d="M 87.5 142.5 L 87.5 141.25 L 86.25 141.25 L 86.25 141.25 L 86.25 147.5 L 91.25 170.0 L 95.0 207.5 L 93.75 243.75 L 90.0 258.75 L 87.5 257.5 L 86.25 255.0 " stroke="black" fill="none" stroke-width="6.0" stroke-linecap="round" stroke-linejoin="round" />
<path d="M 145.0 106.25 L 145.0 106.25 L 143.75 106.25 L 143.75 106.25 L 152.5 106.25 L 173.75 103.75 L 200.0 96.25 L 212.5 90.0 L 213.75 87.5 L 210.0 87.5 L 203.75 88.75 L 197.5 93.75 L 190.0 98.75 L 182.5 102.5 L 180.0 105.0 " stroke="black" fill="none" stroke-width="6.0" stroke-linecap="round" stroke-linejoin="round" />
<path d="M 177.5 107.5 L 177.5 107.5 L 178.75 106.25 L 178.75 105.0 L 180.0 105.0 L 180.0 105.0 L 180.0 111.25 L 180.0 136.25 L 176.25 183.75 L 172.5 220.0 L 170.0 238.75 L 168.75 243.75 L 167.5 243.75 L 165.0 237.5 L 161.25 228.75 " stroke="black" fill="none" stroke-width="6.0" stroke-linecap="round" stroke-linejoin="round" />
<path d="M 150.0 163.75 L 150.0 163.75 L 151.25 162.5 L 162.5 162.5 L 188.75 162.5 L 213.75 168.75 L 228.75 180.0 L 231.25 192.5 L 223.75 207.5 L 210.0 222.5 L 200.0 235.0 L 191.25 241.25 L 182.5 242.5 " stroke="black" fill="none" stroke-width="6.0" stroke-linecap="round" stroke-linejoin="round" />
<path d="M 148.75 247.5 L 147.5 247.5 L 145.0 247.5 L 142.5 247.5 L 141.25 247.5 L 141.25 247.5 L 145.0 247.5 L 155.0 247.5 L 171.25 243.75 L 195.0 238.75 L 218.75 235.0 L 240.0 232.5 L 253.75 231.25 L 262.5 228.75 L 268.75 228.75 L 272.5 228.75 L 272.5 228.75 L 272.5 228.75 L 271.25 230.0 " stroke="black" fill="none" stroke-width="6.0" stroke-linecap="round" stroke-linejoin="round" />
</svg>