<svg xmlns="http://www.w3.org/2000/svg" width="300" height="300" viewBox="0 0 300 300">
<path d="M 105.0 98.75 L 103.75 101.25 L 97.5 113.75 L 91.25 138.75 L 78.75 166.25 L 68.75 185.0 L 63.75 187.5 L 62.5 180.0 L 65.0 167.5 " stroke="black" fill="none" stroke-width="6.0" stroke-linecap="round" stroke-linejoin="round" />
<path d="M 93.75 133.75 L 96.25 133.75 L 101.25 138.75 L 106.25 165.0 L 106.25 203.75 L 103.75 230.0 L 101.25 238.75 L 98.75 238.75 " stroke="black" fill="none" stroke-width="6.0" stroke-linecap="round" stroke-linejoin="round" />
<path d="M 116.25 152.5 L 116.25 152.5 L 117.5 155.0 L 133.75 153.75 L 167.5 140.0 L 202.5 121.25 L 213.75 107.5 L 211.25 102.5 " stroke="black" fill="none" stroke-width="6.0" stroke-linecap="round" stroke-linejoin="round" />
<path d="M 153.75 105.0 L 155.0 116.25 L 165.0 152.5 L 182.5 206.25 L 201.25 242.5 L 213.75 256.25 L 223.75 261.25 L 227.5 260.0 L 228.75 255.0 L 228.75 243.75 L 222.5 225.0 L 212.5 201.25 L 208.75 195.0 " stroke="black" fill="none" stroke-width="6.0" stroke-linecap="round" stroke-linejoin="round" />
<path d="M 210.0 153.75 L 208.75 157.5 L 201.25 167.5 L 183.75 188.75 L 161.25 210.0 L 145.0 218.75 L 136.25 218.75 " stroke="black" fill="none" stroke-width="6.0" stroke-linecap="round" stroke-linejoin="round" />
<path d="M 180.0 73.75 L 180.0 72.5 L 185.0 70.0 L 200.0 77.5 L 216.25 103.75 L 230.0 131.25 " stroke="black" fill="none" stroke-width="6.0" stroke-linecap="round" stroke-linejoin="round" />
</svg>