<svg xmlns="http://www.w3.org/2000/svg" width="300" height="300" viewBox="0 0 300 300">
<path d="M 91.25 118.75 L 91.25 120.0 L 88.75 127.5 L 81.25 147.5 L 63.75 175.0 L 45.0 198.75 L 31.25 210.0 L 25.0 210.0 " stroke="black" fill="none" stroke-width="6.0" stroke-linecap="round" stroke-linejoin="round" />
<path d="M 78.75 156.25 L 77.5 157.5 L 76.25 157.5 L 76.25 160.0 L 76.25 175.0 L 78.75 205.0 L 78.75 236.25 L 77.5 248.75 " stroke="black" fill="none" stroke-width="6.0" stroke-linecap="round" stroke-linejoin="round" />
<path d="M 153.75 73.75 L 153.75 73.75 L 153.75 73.75 L 156.25 75.0 L 166.25 80.0 L 180.0 85.0 L 187.5 88.75 L 185.0 92.5 L 182.5 92.5 " stroke="black" fill="none" stroke-width="6.0" stroke-linecap="round" stroke-linejoin="round" />
<path d="M 113.75 123.75 L 110.0 126.25 L 107.5 127.5 L 120.0 127.5 L 141.25 120.0 L 170.0 111.25 L 193.75 103.75 L 197.5 102.5 L 190.0 103.75 " stroke="black" fill="none" stroke-width="6.0" stroke-linecap="round" stroke-linejoin="round" />
<path d="M 127.5 131.25 L 126.25 132.5 L 123.75 143.75 L 125.0 177.5 L 123.75 216.25 L 118.75 243.75 L 115.0 253.75 L 107.5 252.5 " stroke="black" fill="none" stroke-width="6.0" stroke-linecap="round" stroke-linejoin="round" />
<path d="M 156.25 147.5 L 155.0 147.5 L 153.75 147.5 L 150.0 153.75 L 143.75 176.25 L 136.25 196.25 L 131.25 202.5 L 132.5 195.0 L 140.0 185.0 L 148.75 177.5 L 153.75 173.75 L 157.5 177.5 L 157.5 192.5 L 152.5 211.25 L 148.75 225.0 L 145.0 227.5 L 145.0 226.25 " stroke="black" fill="none" stroke-width="6.0" stroke-linecap="round" stroke-linejoin="round" />
<path d="M 170.0 158.75 L 170.0 160.0 L 167.5 162.5 L 172.5 162.5 L 193.75 157.5 L 222.5 143.75 L 243.75 130.0 L 248.75 122.5 L 240.0 122.5 " stroke="black" fill="none" stroke-width="6.0" stroke-linecap="round" stroke-linejoin="round" />
<path d="M 213.75 133.75 L 211.25 136.25 L 211.25 146.25 L 211.25 167.5 L 215.0 195.0 L 218.75 223.75 L 220.0 241.25 L 220.0 247.5 L 217.5 248.75 L 212.5 248.75 L 206.25 246.25 L 197.5 238.75 L 191.25 233.75 " stroke="black" fill="none" stroke-width="6.0" stroke-linecap="round" stroke-linejoin="round" />
<path d="M 177.5 190.0 L 177.5 190.0 L 177.5 190.0 L 182.5 195.0 L 195.0 207.5 L 205.0 217.5 " stroke="black" fill="none" stroke-width="6.0" stroke-linecap="round" stroke-linejoin="round" />
</svg>