<svg xmlns="http://www.w3.org/2000/svg" width="300" height="300" viewBox="0 0 300 300">
<path d="M 155.0 66.25 L 156.25 65.0 L 157.5 63.75 L 157.5 63.75 L 153.75 71.25 L 142.5 93.75 L 116.25 130.0 L 90.0 160.0 L 71.25 173.75 L 57.5 180.0 L 52.5 177.5 L 52.5 172.5 " stroke="black" fill="none" stroke-width="6.0" stroke-linecap="round" stroke-linejoin="round" />
<path d="M 133.75 86.25 L 137.5 86.25 L 145.0 88.75 L 163.75 103.75 L 193.75 126.25 L 216.25 143.75 L 230.0 153.75 L 232.5 162.5 L 230.0 163.75 " stroke="black" fill="none" stroke-width="6.0" stroke-linecap="round" stroke-linejoin="round" />
<path d="M 128.75 162.5 L 127.5 162.5 L 121.25 166.25 L 123.75 166.25 L 141.25 165.0 L 163.75 160.0 L 186.25 152.5 L 197.5 147.5 L 191.25 148.75 L 187.5 150.0 " stroke="black" fill="none" stroke-width="6.0" stroke-linecap="round" stroke-linejoin="round" />
<path d="M 108.75 213.75 L 101.25 222.5 L 100.0 223.75 L 115.0 220.0 L 140.0 208.75 L 166.25 195.0 L 188.75 182.5 L 196.25 173.75 L 193.75 170.0 L 183.75 168.75 L 171.25 170.0 L 161.25 170.0 L 153.75 170.0 L 151.25 170.0 L 151.25 171.25 L 152.5 176.25 L 153.75 192.5 L 153.75 222.5 L 153.75 251.25 L 153.75 265.0 L 151.25 271.25 L 148.75 273.75 L 146.25 273.75 " stroke="black" fill="none" stroke-width="6.0" stroke-linecap="round" stroke-linejoin="round" />
<path d="M 151.25 211.25 L 150.0 211.25 L 145.0 215.0 L 128.75 233.75 L 106.25 257.5 L 92.5 270.0 L 85.0 273.75 L 83.75 271.25 " stroke="black" fill="none" stroke-width="6.0" stroke-linecap="round" stroke-linejoin="round" />
<path d="M 152.5 213.75 L 156.25 213.75 L 163.75 218.75 L 180.0 232.5 L 197.5 247.5 L 211.25 256.25 L 221.25 262.5 L 226.25 267.5 L 226.25 271.25 L 225.0 275.0 " stroke="black" fill="none" stroke-width="6.0" stroke-linecap="round" stroke-linejoin="round" />
</svg>