<svg xmlns="http://www.w3.org/2000/svg" width="300" height="300" viewBox="0 0 300 300">
<path d="M 103.75 111.25 L 103.75 106.25 L 103.75 105.0 L 103.75 106.25 L 98.75 122.5 L 91.25 148.75 L 80.0 176.25 L 71.25 190.0 L 68.75 187.5 L 70.0 182.5 " stroke="black" fill="none" stroke-width="6.0" stroke-linecap="round" stroke-linejoin="round" />
<path d="M 97.5 140.0 L 97.5 140.0 L 96.25 140.0 L 96.25 143.75 L 98.75 166.25 L 100.0 202.5 L 93.75 227.5 L 87.5 238.75 " stroke="black" fill="none" stroke-width="6.0" stroke-linecap="round" stroke-linejoin="round" />
<path d="M 153.75 78.75 L 153.75 78.75 L 152.5 77.5 L 156.25 76.25 L 168.75 76.25 L 185.0 78.75 L 195.0 82.5 L 193.75 85.0 " stroke="black" fill="none" stroke-width="6.0" stroke-linecap="round" stroke-linejoin="round" />
<path d="M 141.25 112.5 L 137.5 115.0 L 138.75 120.0 L 143.75 131.25 L 150.0 142.5 L 152.5 147.5 L 152.5 148.75 L 150.0 147.5 L 146.25 142.5 L 143.75 137.5 L 142.5 132.5 L 141.25 130.0 L 142.5 126.25 L 153.75 120.0 L 175.0 112.5 L 200.0 105.0 L 216.25 102.5 L 220.0 103.75 L 215.0 113.75 L 203.75 126.25 L 196.25 135.0 " stroke="black" fill="none" stroke-width="6.0" stroke-linecap="round" stroke-linejoin="round" />
<path d="M 150.0 168.75 L 147.5 170.0 L 143.75 172.5 L 143.75 172.5 L 152.5 168.75 L 170.0 160.0 L 191.25 148.75 L 206.25 138.75 L 210.0 135.0 L 207.5 135.0 L 201.25 140.0 L 196.25 143.75 L 191.25 148.75 L 187.5 152.5 L 186.25 158.75 L 186.25 173.75 L 188.75 197.5 L 191.25 215.0 L 191.25 225.0 L 191.25 227.5 L 191.25 227.5 L 188.75 226.25 L 185.0 226.25 L 181.25 226.25 L 176.25 227.5 L 171.25 230.0 L 165.0 233.75 L 158.75 236.25 L 150.0 238.75 L 141.25 236.25 L 130.0 222.5 " stroke="black" fill="none" stroke-width="6.0" stroke-linecap="round" stroke-linejoin="round" />
</svg>