<svg xmlns="http://www.w3.org/2000/svg" width="300" height="300" viewBox="0 0 300 300">
<path d="M 101.25 100.0 L 101.25 95.0 L 101.25 90.0 L 103.75 88.75 L 105.0 90.0 L 103.75 103.75 L 95.0 127.5 L 80.0 153.75 L 63.75 168.75 L 48.75 173.75 L 46.25 162.5 " stroke="black" fill="none" stroke-width="6.0" stroke-linecap="round" stroke-linejoin="round" />
<path d="M 103.75 141.25 L 102.5 166.25 L 101.25 192.5 L 98.75 216.25 L 95.0 235.0 L 91.25 241.25 " stroke="black" fill="none" stroke-width="6.0" stroke-linecap="round" stroke-linejoin="round" />
<path d="M 153.75 65.0 L 153.75 65.0 L 152.5 65.0 L 152.5 70.0 L 156.25 83.75 L 161.25 100.0 L 162.5 113.75 L 162.5 116.25 " stroke="black" fill="none" stroke-width="6.0" stroke-linecap="round" stroke-linejoin="round" />
<path d="M 202.5 58.75 L 202.5 58.75 L 203.75 63.75 L 206.25 71.25 L 207.5 81.25 L 206.25 91.25 L 198.75 101.25 L 185.0 107.5 L 177.5 108.75 " stroke="black" fill="none" stroke-width="6.0" stroke-linecap="round" stroke-linejoin="round" />
<path d="M 138.75 130.0 L 137.5 132.5 L 137.5 133.75 L 147.5 133.75 L 170.0 128.75 L 200.0 116.25 L 220.0 105.0 L 228.75 97.5 L 225.0 97.5 L 218.75 98.75 " stroke="black" fill="none" stroke-width="6.0" stroke-linecap="round" stroke-linejoin="round" />
<path d="M 132.5 187.5 L 131.25 191.25 L 131.25 196.25 L 147.5 192.5 L 177.5 180.0 L 210.0 163.75 L 233.75 150.0 L 243.75 143.75 L 241.25 141.25 L 235.0 141.25 " stroke="black" fill="none" stroke-width="6.0" stroke-linecap="round" stroke-linejoin="round" />
<path d="M 166.25 133.75 L 165.0 132.5 L 163.75 132.5 L 165.0 138.75 L 171.25 163.75 L 173.75 201.25 L 168.75 227.5 L 160.0 237.5 " stroke="black" fill="none" stroke-width="6.0" stroke-linecap="round" stroke-linejoin="round" />
<path d="M 208.75 112.5 L 211.25 112.5 L 216.25 118.75 L 221.25 147.5 L 222.5 192.5 L 216.25 227.5 L 210.0 247.5 L 206.25 253.75 " stroke="black" fill="none" stroke-width="6.0" stroke-linecap="round" stroke-linejoin="round" />
</svg>