<svg xmlns="http://www.w3.org/2000/svg" width="300" height="300" viewBox="0 0 300 300">
<path d="M 95.0 90.0 L 95.0 87.5 L 93.75 87.5 L 90.0 98.75 L 76.25 132.5 L 60.0 163.75 L 51.25 177.5 L 50.0 175.0 L 51.25 162.5 L 60.0 148.75 L 71.25 137.5 L 82.5 130.0 L 88.75 135.0 L 93.75 163.75 L 96.25 203.75 L 93.75 236.25 L 90.0 251.25 L 87.5 251.25 L 86.25 248.75 " stroke="black" fill="none" stroke-width="6.0" stroke-linecap="round" stroke-linejoin="round" />
<path d="M 142.5 73.75 L 142.5 73.75 L 141.25 73.75 L 147.5 75.0 L 165.0 77.5 L 190.0 81.25 L 205.0 86.25 L 207.5 92.5 L 196.25 103.75 L 181.25 113.75 L 163.75 121.25 L 148.75 126.25 L 143.75 128.75 L 145.0 128.75 L 153.75 126.25 L 172.5 117.5 L 191.25 107.5 L 206.25 100.0 L 208.75 97.5 L 205.0 98.75 " stroke="black" fill="none" stroke-width="6.0" stroke-linecap="round" stroke-linejoin="round" />
<path d="M 128.75 153.75 L 128.75 153.75 L 128.75 153.75 L 133.75 156.25 L 141.25 162.5 L 147.5 171.25 L 151.25 177.5 L 151.25 180.0 L 155.0 177.5 L 168.75 167.5 L 186.25 155.0 L 201.25 145.0 L 206.25 141.25 L 198.75 145.0 " stroke="black" fill="none" stroke-width="6.0" stroke-linecap="round" stroke-linejoin="round" />
<path d="M 115.0 230.0 L 115.0 230.0 L 118.75 228.75 L 142.5 213.75 L 178.75 191.25 L 206.25 175.0 L 217.5 161.25 L 218.75 156.25 L 208.75 157.5 " stroke="black" fill="none" stroke-width="6.0" stroke-linecap="round" stroke-linejoin="round" />
<path d="M 172.5 173.75 L 172.5 175.0 L 172.5 177.5 L 175.0 190.0 L 175.0 213.75 L 167.5 238.75 L 155.0 253.75 L 142.5 260.0 L 135.0 256.25 " stroke="black" fill="none" stroke-width="6.0" stroke-linecap="round" stroke-linejoin="round" />
<path d="M 183.75 192.5 L 186.25 192.5 L 192.5 196.25 L 205.0 208.75 L 217.5 228.75 L 237.5 257.5 L 248.75 270.0 L 251.25 276.25 L 251.25 277.5 " stroke="black" fill="none" stroke-width="6.0" stroke-linecap="round" stroke-linejoin="round" />
</svg>