<svg xmlns="http://www.w3.org/2000/svg" width="300" height="300" viewBox="0 0 300 300">
<path d="M 101.25 105.0 L 100.0 105.0 L 98.75 103.75 L 96.25 106.25 L 91.25 127.5 L 81.25 160.0 L 70.0 186.25 L 65.0 191.25 L 66.25 183.75 L 73.75 171.25 L 80.0 155.0 L 87.5 141.25 L 93.75 132.5 L 97.5 128.75 L 98.75 136.25 L 102.5 157.5 L 105.0 191.25 L 103.75 222.5 L 98.75 246.25 L 93.75 251.25 " stroke="black" fill="none" stroke-width="6.0" stroke-linecap="round" stroke-linejoin="round" />
<path d="M 138.75 96.25 L 137.5 96.25 L 136.25 96.25 L 136.25 101.25 L 143.75 120.0 L 151.25 138.75 L 152.5 148.75 L 151.25 150.0 L 148.75 142.5 " stroke="black" fill="none" stroke-width="6.0" stroke-linecap="round" stroke-linejoin="round" />
<path d="M 140.0 117.5 L 137.5 113.75 L 137.5 110.0 L 143.75 105.0 L 156.25 101.25 L 172.5 97.5 L 185.0 97.5 L 187.5 102.5 L 181.25 113.75 L 168.75 128.75 L 156.25 141.25 L 147.5 150.0 L 146.25 152.5 L 150.0 152.5 L 161.25 148.75 L 176.25 141.25 L 187.5 136.25 L 192.5 135.0 L 190.0 142.5 L 176.25 163.75 L 161.25 186.25 L 147.5 203.75 L 137.5 213.75 L 133.75 216.25 L 133.75 215.0 L 133.75 212.5 L 133.75 210.0 L 136.25 210.0 L 138.75 208.75 L 145.0 213.75 L 152.5 227.5 L 161.25 242.5 L 168.75 252.5 L 171.25 253.75 L 172.5 253.75 L 172.5 251.25 L 168.75 247.5 L 163.75 242.5 L 157.5 236.25 L 152.5 231.25 L 148.75 226.25 L 150.0 221.25 L 160.0 213.75 L 180.0 203.75 L 202.5 192.5 L 216.25 188.75 L 220.0 192.5 L 215.0 205.0 L 203.75 223.75 L 191.25 241.25 L 180.0 253.75 L 177.5 255.0 L 185.0 251.25 L 200.0 241.25 L 217.5 226.25 L 236.25 212.5 L 240.0 208.75 " stroke="black" fill="none" stroke-width="6.0" stroke-linecap="round" stroke-linejoin="round" />
</svg>