<svg xmlns="http://www.w3.org/2000/svg" width="300" height="300" viewBox="0 0 300 300">
<path d="M 121.25 96.25 L 118.75 96.25 L 111.25 106.25 L 98.75 135.0 L 87.5 166.25 L 77.5 186.25 L 72.5 191.25 L 72.5 182.5 " stroke="black" fill="none" stroke-width="6.0" stroke-linecap="round" stroke-linejoin="round" />
<path d="M 108.75 137.5 L 108.75 138.75 L 110.0 153.75 L 111.25 185.0 L 111.25 218.75 L 110.0 240.0 L 108.75 243.75 " stroke="black" fill="none" stroke-width="6.0" stroke-linecap="round" stroke-linejoin="round" />
<path d="M 121.25 150.0 L 121.25 151.25 L 126.25 151.25 L 148.75 148.75 L 176.25 141.25 L 218.75 128.75 L 232.5 121.25 L 227.5 118.75 L 218.75 118.75 " stroke="black" fill="none" stroke-width="6.0" stroke-linecap="round" stroke-linejoin="round" />
<path d="M 167.5 97.5 L 167.5 103.75 L 167.5 127.5 L 163.75 166.25 L 155.0 202.5 L 146.25 220.0 L 137.5 227.5 L 127.5 225.0 L 125.0 217.5 " stroke="black" fill="none" stroke-width="6.0" stroke-linecap="round" stroke-linejoin="round" />
<path d="M 158.75 161.25 L 163.75 163.75 L 176.25 178.75 L 197.5 201.25 L 212.5 217.5 L 240.0 240.0 L 257.5 246.25 L 261.25 241.25 L 260.0 236.25 " stroke="black" fill="none" stroke-width="6.0" stroke-linecap="round" stroke-linejoin="round" />
<path d="M 213.75 86.25 L 213.75 86.25 L 215.0 85.0 L 221.25 86.25 L 237.5 101.25 L 250.0 127.5 " stroke="black" fill="none" stroke-width="6.0" stroke-linecap="round" stroke-linejoin="round" />
</svg>