<svg xmlns="http://www.w3.org/2000/svg" width="300" height="300" viewBox="0 0 300 300">
<path d="M 100.0 88.75 L 98.75 87.5 L 96.25 90.0 L 91.25 105.0 L 80.0 133.75 L 65.0 157.5 L 55.0 165.0 L 51.25 165.0 L 50.0 160.0 " stroke="black" fill="none" stroke-width="6.0" stroke-linecap="round" stroke-linejoin="round" />
<path d="M 80.0 131.25 L 80.0 130.0 L 81.25 128.75 L 83.75 135.0 L 86.25 161.25 L 86.25 205.0 L 82.5 241.25 L 81.25 253.75 L 77.5 255.0 " stroke="black" fill="none" stroke-width="6.0" stroke-linecap="round" stroke-linejoin="round" />
<path d="M 137.5 95.0 L 136.25 95.0 L 133.75 92.5 L 135.0 92.5 L 145.0 92.5 L 168.75 97.5 L 201.25 103.75 L 222.5 110.0 L 231.25 118.75 L 226.25 132.5 L 212.5 143.75 L 200.0 152.5 L 187.5 156.25 " stroke="black" fill="none" stroke-width="6.0" stroke-linecap="round" stroke-linejoin="round" />
<path d="M 97.5 147.5 L 96.25 147.5 L 93.75 147.5 L 98.75 147.5 L 122.5 145.0 L 158.75 138.75 L 196.25 131.25 L 216.25 126.25 L 222.5 125.0 L 217.5 127.5 L 203.75 133.75 L 197.5 136.25 " stroke="black" fill="none" stroke-width="6.0" stroke-linecap="round" stroke-linejoin="round" />
<path d="M 116.25 182.5 L 115.0 183.75 L 120.0 183.75 L 141.25 181.25 L 173.75 170.0 L 202.5 156.25 L 211.25 148.75 L 207.5 146.25 L 205.0 146.25 " stroke="black" fill="none" stroke-width="6.0" stroke-linecap="round" stroke-linejoin="round" />
<path d="M 150.0 111.25 L 150.0 110.0 L 150.0 110.0 L 153.75 122.5 L 156.25 156.25 L 153.75 201.25 L 145.0 230.0 L 131.25 245.0 L 115.0 252.5 L 100.0 252.5 " stroke="black" fill="none" stroke-width="6.0" stroke-linecap="round" stroke-linejoin="round" />
</svg>