<svg xmlns="http://www.w3.org/2000/svg" width="300" height="300" viewBox="0 0 300 300">
<path d="M 106.25 102.5 L 103.75 103.75 L 95.0 120.0 L 81.25 147.5 L 63.75 173.75 L 52.5 186.25 L 50.0 182.5 L 50.0 176.25 " stroke="black" fill="none" stroke-width="6.0" stroke-linecap="round" stroke-linejoin="round" />
<path d="M 91.25 148.75 L 93.75 150.0 L 98.75 157.5 L 103.75 186.25 L 105.0 222.5 L 102.5 248.75 L 100.0 257.5 L 96.25 255.0 " stroke="black" fill="none" stroke-width="6.0" stroke-linecap="round" stroke-linejoin="round" />
<path d="M 137.5 95.0 L 137.5 95.0 L 136.25 95.0 L 136.25 95.0 L 141.25 102.5 L 150.0 120.0 L 155.0 132.5 " stroke="black" fill="none" stroke-width="6.0" stroke-linecap="round" stroke-linejoin="round" />
<path d="M 197.5 87.5 L 197.5 87.5 L 197.5 87.5 L 198.75 90.0 L 201.25 97.5 L 201.25 111.25 L 195.0 126.25 L 178.75 138.75 L 155.0 150.0 L 133.75 165.0 L 123.75 176.25 L 127.5 177.5 L 145.0 173.75 L 167.5 161.25 L 192.5 148.75 L 213.75 137.5 L 218.75 135.0 L 212.5 142.5 L 202.5 151.25 " stroke="black" fill="none" stroke-width="6.0" stroke-linecap="round" stroke-linejoin="round" />
<path d="M 146.25 225.0 L 146.25 225.0 L 147.5 225.0 L 166.25 213.75 L 201.25 192.5 L 226.25 173.75 L 236.25 160.0 L 233.75 155.0 " stroke="black" fill="none" stroke-width="6.0" stroke-linecap="round" stroke-linejoin="round" />
<path d="M 175.0 70.0 L 173.75 67.5 L 173.75 65.0 L 175.0 68.75 L 181.25 98.75 L 186.25 162.5 L 186.25 223.75 L 185.0 256.25 L 182.5 273.75 L 177.5 278.75 L 171.25 278.75 L 160.0 268.75 L 153.75 262.5 " stroke="black" fill="none" stroke-width="6.0" stroke-linecap="round" stroke-linejoin="round" />
</svg>