<svg xmlns="http://www.w3.org/2000/svg" width="300" height="300" viewBox="0 0 300 300">
<path d="M 93.75 93.75 L 93.75 93.75 L 92.5 93.75 L 86.25 105.0 L 72.5 137.5 L 55.0 165.0 L 45.0 178.75 L 43.75 177.5 L 43.75 167.5 " stroke="black" fill="none" stroke-width="6.0" stroke-linecap="round" stroke-linejoin="round" />
<path d="M 78.75 132.5 L 78.75 132.5 L 80.0 133.75 L 82.5 147.5 L 85.0 186.25 L 83.75 228.75 L 80.0 257.5 L 76.25 263.75 L 71.25 263.75 " stroke="black" fill="none" stroke-width="6.0" stroke-linecap="round" stroke-linejoin="round" />
<path d="M 142.5 80.0 L 142.5 80.0 L 146.25 80.0 L 158.75 81.25 L 176.25 85.0 L 191.25 87.5 L 193.75 92.5 L 187.5 96.25 " stroke="black" fill="none" stroke-width="6.0" stroke-linecap="round" stroke-linejoin="round" />
<path d="M 128.75 123.75 L 125.0 126.25 L 125.0 127.5 L 137.5 127.5 L 157.5 118.75 L 186.25 103.75 L 210.0 90.0 L 215.0 86.25 L 210.0 90.0 L 203.75 92.5 " stroke="black" fill="none" stroke-width="6.0" stroke-linecap="round" stroke-linejoin="round" />
<path d="M 150.0 148.75 L 148.75 150.0 L 146.25 153.75 L 147.5 155.0 L 161.25 151.25 L 181.25 141.25 L 200.0 128.75 L 206.25 122.5 L 200.0 126.25 " stroke="black" fill="none" stroke-width="6.0" stroke-linecap="round" stroke-linejoin="round" />
<path d="M 148.75 178.75 L 147.5 181.25 L 147.5 181.25 L 163.75 173.75 L 188.75 157.5 L 207.5 142.5 L 210.0 138.75 L 205.0 142.5 " stroke="black" fill="none" stroke-width="6.0" stroke-linecap="round" stroke-linejoin="round" />
<path d="M 141.25 198.75 L 138.75 201.25 L 140.0 207.5 L 148.75 223.75 L 163.75 241.25 L 178.75 253.75 L 186.25 255.0 L 185.0 253.75 L 176.25 250.0 L 165.0 246.25 L 155.0 242.5 L 146.25 236.25 L 145.0 230.0 L 155.0 220.0 L 178.75 208.75 L 205.0 197.5 L 223.75 193.75 L 230.0 196.25 L 222.5 210.0 L 207.5 228.75 L 190.0 248.75 L 176.25 261.25 L 177.5 262.5 L 193.75 252.5 L 213.75 235.0 L 233.75 213.75 L 242.5 202.5 " stroke="black" fill="none" stroke-width="6.0" stroke-linecap="round" stroke-linejoin="round" />
</svg>