<svg xmlns="http://www.w3.org/2000/svg" width="300" height="300" viewBox="0 0 300 300">
<path d="M 107.5 101.25 L 107.5 101.25 L 103.75 106.25 L 93.75 132.5 L 80.0 166.25 L 70.0 186.25 L 65.0 188.75 L 65.0 180.0 L 72.5 162.5 L 82.5 148.75 L 93.75 140.0 L 101.25 140.0 L 106.25 157.5 L 107.5 192.5 L 105.0 230.0 L 100.0 251.25 L 96.25 257.5 L 95.0 256.25 " stroke="black" fill="none" stroke-width="6.0" stroke-linecap="round" stroke-linejoin="round" />
<path d="M 151.25 81.25 L 152.5 81.25 L 155.0 82.5 L 166.25 85.0 L 187.5 88.75 L 205.0 91.25 L 207.5 95.0 L 206.25 95.0 " stroke="black" fill="none" stroke-width="6.0" stroke-linecap="round" stroke-linejoin="round" />
<path d="M 130.0 133.75 L 127.5 135.0 L 127.5 135.0 L 140.0 131.25 L 158.75 122.5 L 182.5 112.5 L 192.5 108.75 L 186.25 113.75 L 173.75 127.5 L 157.5 143.75 L 140.0 167.5 L 120.0 197.5 L 108.75 213.75 L 108.75 211.25 " stroke="black" fill="none" stroke-width="6.0" stroke-linecap="round" stroke-linejoin="round" />
<path d="M 158.75 143.75 L 156.25 147.5 L 156.25 167.5 L 157.5 207.5 L 163.75 242.5 L 167.5 253.75 L 177.5 257.5 L 186.25 246.25 L 197.5 225.0 L 208.75 200.0 L 222.5 173.75 L 235.0 148.75 L 237.5 140.0 L 227.5 140.0 L 210.0 148.75 L 191.25 162.5 L 175.0 177.5 L 165.0 185.0 L 165.0 186.25 L 167.5 185.0 L 170.0 183.75 L 172.5 183.75 L 175.0 183.75 L 178.75 185.0 L 187.5 191.25 L 202.5 203.75 L 232.5 223.75 L 267.5 240.0 L 282.5 242.5 " stroke="black" fill="none" stroke-width="6.0" stroke-linecap="round" stroke-linejoin="round" />
</svg>