<svg xmlns="http://www.w3.org/2000/svg" width="300" height="300" viewBox="0 0 300 300">
<path d="M 106.25 90.0 L 101.25 95.0 L 92.5 110.0 L 80.0 137.5 L 63.75 168.75 L 50.0 188.75 L 46.25 190.0 L 47.5 181.25 L 56.25 163.75 L 58.75 158.75 " stroke="black" fill="none" stroke-width="6.0" stroke-linecap="round" stroke-linejoin="round" />
<path d="M 92.5 135.0 L 93.75 140.0 L 96.25 160.0 L 96.25 197.5 L 96.25 230.0 L 96.25 243.75 L 95.0 242.5 " stroke="black" fill="none" stroke-width="6.0" stroke-linecap="round" stroke-linejoin="round" />
<path d="M 133.75 97.5 L 133.75 98.75 L 135.0 100.0 L 138.75 101.25 L 152.5 102.5 L 170.0 101.25 L 185.0 98.75 L 190.0 97.5 L 188.75 97.5 L 181.25 98.75 L 171.25 103.75 L 161.25 108.75 " stroke="black" fill="none" stroke-width="6.0" stroke-linecap="round" stroke-linejoin="round" />
<path d="M 145.0 133.75 L 143.75 135.0 L 141.25 141.25 L 141.25 160.0 L 142.5 200.0 L 145.0 228.75 L 147.5 237.5 L 148.75 238.75 L 148.75 232.5 " stroke="black" fill="none" stroke-width="6.0" stroke-linecap="round" stroke-linejoin="round" />
<path d="M 142.5 153.75 L 141.25 153.75 L 140.0 153.75 L 147.5 150.0 L 165.0 142.5 L 190.0 136.25 L 205.0 142.5 L 207.5 170.0 L 206.25 205.0 L 201.25 228.75 L 198.75 238.75 L 195.0 240.0 L 191.25 237.5 " stroke="black" fill="none" stroke-width="6.0" stroke-linecap="round" stroke-linejoin="round" />
<path d="M 147.5 195.0 L 143.75 197.5 L 141.25 200.0 L 150.0 197.5 L 168.75 190.0 L 190.0 177.5 L 202.5 165.0 L 200.0 163.75 " stroke="black" fill="none" stroke-width="6.0" stroke-linecap="round" stroke-linejoin="round" />
<path d="M 153.75 235.0 L 151.25 240.0 L 151.25 245.0 L 161.25 245.0 L 177.5 238.75 L 202.5 217.5 " stroke="black" fill="none" stroke-width="6.0" stroke-linecap="round" stroke-linejoin="round" />
</svg>