<svg xmlns="http://www.w3.org/2000/svg" width="300" height="300" viewBox="0 0 300 300">
<path d="M 101.25 107.5 L 101.25 107.5 L 101.25 106.25 L 101.25 113.75 L 93.75 135.0 L 80.0 162.5 L 60.0 182.5 L 46.25 187.5 L 45.0 183.75 " stroke="black" fill="none" stroke-width="6.0" stroke-linecap="round" stroke-linejoin="round" />
<path d="M 88.75 152.5 L 87.5 152.5 L 86.25 153.75 L 85.0 156.25 L 87.5 163.75 L 92.5 190.0 L 92.5 217.5 L 85.0 257.5 L 75.0 265.0 " stroke="black" fill="none" stroke-width="6.0" stroke-linecap="round" stroke-linejoin="round" />
<path d="M 141.25 95.0 L 140.0 95.0 L 137.5 95.0 L 137.5 102.5 L 146.25 128.75 L 155.0 152.5 L 161.25 160.0 L 163.75 157.5 L 160.0 148.75 L 153.75 140.0 L 148.75 132.5 L 142.5 125.0 L 136.25 117.5 L 136.25 113.75 L 142.5 110.0 L 160.0 105.0 L 183.75 102.5 L 203.75 102.5 L 208.75 113.75 L 202.5 132.5 L 187.5 150.0 L 170.0 161.25 L 152.5 165.0 L 145.0 163.75 " stroke="black" fill="none" stroke-width="6.0" stroke-linecap="round" stroke-linejoin="round" />
<path d="M 153.75 135.0 L 153.75 133.75 L 153.75 133.75 L 155.0 132.5 L 165.0 130.0 L 183.75 123.75 L 196.25 120.0 L 193.75 122.5 " stroke="black" fill="none" stroke-width="6.0" stroke-linecap="round" stroke-linejoin="round" />
<path d="M 157.5 160.0 L 153.75 163.75 L 152.5 165.0 L 161.25 160.0 L 180.0 148.75 L 196.25 138.75 L 198.75 136.25 " stroke="black" fill="none" stroke-width="6.0" stroke-linecap="round" stroke-linejoin="round" />
<path d="M 140.0 192.5 L 136.25 192.5 L 136.25 195.0 L 142.5 210.0 L 155.0 236.25 L 165.0 253.75 L 171.25 258.75 L 172.5 257.5 L 170.0 255.0 L 165.0 250.0 L 157.5 241.25 L 151.25 231.25 L 143.75 220.0 L 140.0 212.5 L 140.0 208.75 L 148.75 202.5 L 170.0 192.5 L 198.75 182.5 L 226.25 178.75 L 243.75 183.75 L 245.0 196.25 L 235.0 212.5 L 216.25 231.25 L 200.0 245.0 L 181.25 253.75 L 166.25 255.0 L 163.75 255.0 " stroke="black" fill="none" stroke-width="6.0" stroke-linecap="round" stroke-linejoin="round" />
<path d="M 158.75 241.25 L 157.5 241.25 L 153.75 241.25 L 152.5 241.25 L 158.75 238.75 L 172.5 232.5 L 202.5 217.5 L 216.25 208.75 L 216.25 208.75 L 213.75 211.25 " stroke="black" fill="none" stroke-width="6.0" stroke-linecap="round" stroke-linejoin="round" />
<path d="M 171.25 257.5 L 168.75 260.0 L 167.5 262.5 L 180.0 256.25 L 200.0 242.5 L 221.25 225.0 " stroke="black" fill="none" stroke-width="6.0" stroke-linecap="round" stroke-linejoin="round" />
</svg>