<svg xmlns="http://www.w3.org/2000/svg" width="300" height="300" viewBox="0 0 300 300">
<path d="M 92.5 98.75 L 92.5 98.75 L 91.25 98.75 L 91.25 101.25 L 88.75 120.0 L 81.25 150.0 L 70.0 171.25 L 63.75 177.5 L 63.75 177.5 L 66.25 170.0 " stroke="black" fill="none" stroke-width="6.0" stroke-linecap="round" stroke-linejoin="round" />
<path d="M 88.75 142.5 L 86.25 142.5 L 82.5 142.5 L 82.5 143.75 L 87.5 152.5 L 93.75 170.0 L 96.25 210.0 L 88.75 240.0 L 80.0 252.5 L 76.25 253.75 " stroke="black" fill="none" stroke-width="6.0" stroke-linecap="round" stroke-linejoin="round" />
<path d="M 140.0 68.75 L 140.0 66.25 L 138.75 63.75 L 141.25 65.0 L 143.75 82.5 L 145.0 87.5 L 146.25 90.0 L 151.25 88.75 L 158.75 83.75 L 163.75 81.25 L 166.25 81.25 L 162.5 87.5 L 152.5 103.75 L 138.75 118.75 L 126.25 128.75 L 123.75 130.0 " stroke="black" fill="none" stroke-width="6.0" stroke-linecap="round" stroke-linejoin="round" />
<path d="M 121.25 116.25 L 120.0 116.25 L 116.25 115.0 L 116.25 115.0 L 120.0 120.0 L 125.0 133.75 L 130.0 147.5 L 132.5 155.0 L 133.75 157.5 L 132.5 153.75 L 131.25 147.5 " stroke="black" fill="none" stroke-width="6.0" stroke-linecap="round" stroke-linejoin="round" />
<path d="M 123.75 122.5 L 122.5 122.5 L 120.0 122.5 L 120.0 122.5 L 130.0 121.25 L 146.25 118.75 L 166.25 115.0 L 186.25 111.25 L 193.75 111.25 L 193.75 113.75 L 186.25 123.75 L 177.5 132.5 L 168.75 140.0 L 160.0 143.75 L 157.5 143.75 " stroke="black" fill="none" stroke-width="6.0" stroke-linecap="round" stroke-linejoin="round" />
<path d="M 155.0 116.25 L 152.5 116.25 L 151.25 117.5 L 151.25 120.0 L 151.25 127.5 L 151.25 136.25 L 151.25 143.75 L 150.0 146.25 L 147.5 147.5 L 143.75 146.25 L 141.25 143.75 L 140.0 142.5 L 140.0 141.25 L 143.75 141.25 L 153.75 138.75 L 166.25 136.25 L 180.0 131.25 L 188.75 128.75 L 190.0 128.75 L 185.0 131.25 L 173.75 140.0 L 158.75 152.5 L 143.75 170.0 L 130.0 191.25 L 118.75 203.75 L 113.75 208.75 L 113.75 208.75 L 113.75 206.25 L 113.75 203.75 " stroke="black" fill="none" stroke-width="6.0" stroke-linecap="round" stroke-linejoin="round" />
<path d="M 150.0 161.25 L 150.0 162.5 L 150.0 162.5 L 153.75 165.0 L 165.0 173.75 L 178.75 188.75 L 183.75 203.75 L 177.5 220.0 L 165.0 236.25 L 155.0 245.0 L 147.5 246.25 L 146.25 241.25 L 147.5 228.75 L 148.75 223.75 " stroke="black" fill="none" stroke-width="6.0" stroke-linecap="round" stroke-linejoin="round" />
<path d="M 160.0 177.5 L 155.0 180.0 L 147.5 188.75 L 141.25 203.75 L 133.75 218.75 L 128.75 225.0 L 127.5 223.75 " stroke="black" fill="none" stroke-width="6.0" stroke-linecap="round" stroke-linejoin="round" />
<path d="M 171.25 188.75 L 170.0 190.0 L 165.0 195.0 L 158.75 207.5 L 150.0 222.5 L 141.25 235.0 L 140.0 236.25 " stroke="black" fill="none" stroke-width="6.0" stroke-linecap="round" stroke-linejoin="round" />
<path d="M 216.25 150.0 L 212.5 153.75 L 206.25 162.5 L 198.75 177.5 L 190.0 188.75 L 185.0 192.5 L 182.5 192.5 L 182.5 192.5 L 182.5 191.25 L 182.5 190.0 L 183.75 188.75 L 185.0 188.75 L 187.5 187.5 L 190.0 187.5 L 195.0 187.5 L 200.0 188.75 L 211.25 193.75 L 228.75 200.0 L 250.0 206.25 L 260.0 208.75 " stroke="black" fill="none" stroke-width="6.0" stroke-linecap="round" stroke-linejoin="round" />
</svg>