<svg xmlns="http://www.w3.org/2000/svg" width="300" height="300" viewBox="0 0 300 300">
<path d="M 100.0 93.75 L 98.75 96.25 L 93.75 106.25 L 81.25 133.75 L 67.5 157.5 L 56.25 171.25 L 55.0 171.25 L 57.5 157.5 L 60.0 153.75 " stroke="black" fill="none" stroke-width="6.0" stroke-linecap="round" stroke-linejoin="round" />
<path d="M 90.0 137.5 L 91.25 141.25 L 92.5 158.75 L 92.5 195.0 L 90.0 233.75 L 90.0 252.5 L 90.0 251.25 " stroke="black" fill="none" stroke-width="6.0" stroke-linecap="round" stroke-linejoin="round" />
<path d="M 123.75 92.5 L 123.75 92.5 L 125.0 91.25 L 136.25 88.75 L 155.0 83.75 L 172.5 77.5 L 182.5 72.5 L 175.0 72.5 L 168.75 75.0 " stroke="black" fill="none" stroke-width="6.0" stroke-linecap="round" stroke-linejoin="round" />
<path d="M 132.5 105.0 L 131.25 110.0 L 130.0 125.0 L 135.0 143.75 L 141.25 155.0 L 143.75 157.5 L 143.75 153.75 " stroke="black" fill="none" stroke-width="6.0" stroke-linecap="round" stroke-linejoin="round" />
<path d="M 127.5 120.0 L 127.5 120.0 L 126.25 118.75 L 133.75 113.75 L 152.5 103.75 L 175.0 96.25 L 187.5 93.75 L 185.0 98.75 L 172.5 110.0 L 156.25 125.0 L 142.5 136.25 L 132.5 143.75 L 131.25 143.75 L 141.25 137.5 L 160.0 123.75 L 185.0 108.75 L 200.0 98.75 L 202.5 100.0 L 191.25 116.25 L 171.25 137.5 L 150.0 157.5 L 135.0 168.75 L 132.5 163.75 L 138.75 147.5 L 145.0 132.5 " stroke="black" fill="none" stroke-width="6.0" stroke-linecap="round" stroke-linejoin="round" />
<path d="M 158.75 75.0 L 157.5 77.5 L 155.0 86.25 L 153.75 111.25 L 153.75 143.75 L 155.0 161.25 L 156.25 162.5 L 158.75 161.25 L 167.5 153.75 L 178.75 145.0 L 188.75 138.75 L 196.25 133.75 L 197.5 132.5 L 195.0 140.0 L 190.0 152.5 L 186.25 166.25 L 182.5 177.5 L 180.0 180.0 " stroke="black" fill="none" stroke-width="6.0" stroke-linecap="round" stroke-linejoin="round" />
<path d="M 111.25 208.75 L 107.5 212.5 L 107.5 213.75 L 123.75 210.0 L 153.75 196.25 L 192.5 177.5 L 217.5 160.0 L 226.25 153.75 L 226.25 152.5 L 217.5 152.5 L 208.75 153.75 L 205.0 155.0 L 202.5 156.25 L 202.5 158.75 L 202.5 165.0 L 202.5 181.25 L 205.0 210.0 L 205.0 241.25 L 203.75 256.25 L 200.0 257.5 L 195.0 256.25 L 186.25 252.5 L 172.5 251.25 L 165.0 248.75 " stroke="black" fill="none" stroke-width="6.0" stroke-linecap="round" stroke-linejoin="round" />
<path d="M 140.0 206.25 L 140.0 206.25 L 140.0 206.25 L 140.0 206.25 L 146.25 211.25 L 157.5 226.25 L 162.5 237.5 " stroke="black" fill="none" stroke-width="6.0" stroke-linecap="round" stroke-linejoin="round" />
</svg>