<svg xmlns="http://www.w3.org/2000/svg" width="300" height="300" viewBox="0 0 300 300">
<path d="M 83.75 92.5 L 83.75 95.0 L 83.75 97.5 L 81.25 111.25 L 72.5 140.0 L 56.25 170.0 L 40.0 188.75 L 32.5 190.0 " stroke="black" fill="none" stroke-width="6.0" stroke-linecap="round" stroke-linejoin="round" />
<path d="M 71.25 132.5 L 68.75 132.5 L 68.75 133.75 L 70.0 136.25 L 75.0 143.75 L 81.25 163.75 L 83.75 197.5 L 80.0 227.5 L 73.75 243.75 " stroke="black" fill="none" stroke-width="6.0" stroke-linecap="round" stroke-linejoin="round" />
<path d="M 132.5 83.75 L 131.25 83.75 L 127.5 90.0 L 126.25 96.25 L 126.25 106.25 L 131.25 113.75 L 140.0 113.75 L 153.75 107.5 L 170.0 96.25 L 182.5 87.5 L 188.75 81.25 L 188.75 78.75 L 183.75 77.5 L 178.75 76.25 L 175.0 75.0 L 175.0 73.75 L 173.75 73.75 L 176.25 73.75 L 182.5 75.0 L 190.0 80.0 L 198.75 87.5 L 203.75 93.75 L 205.0 97.5 L 205.0 97.5 " stroke="black" fill="none" stroke-width="6.0" stroke-linecap="round" stroke-linejoin="round" />
<path d="M 152.5 65.0 L 151.25 65.0 L 150.0 66.25 L 150.0 70.0 L 156.25 82.5 L 161.25 96.25 " stroke="black" fill="none" stroke-width="6.0" stroke-linecap="round" stroke-linejoin="round" />
<path d="M 146.25 151.25 L 146.25 151.25 L 143.75 151.25 L 140.0 156.25 L 133.75 173.75 L 125.0 200.0 L 116.25 215.0 L 111.25 217.5 L 112.5 207.5 " stroke="black" fill="none" stroke-width="6.0" stroke-linecap="round" stroke-linejoin="round" />
<path d="M 141.25 166.25 L 143.75 166.25 L 147.5 170.0 L 151.25 193.75 L 151.25 226.25 L 150.0 250.0 L 147.5 257.5 L 145.0 255.0 " stroke="black" fill="none" stroke-width="6.0" stroke-linecap="round" stroke-linejoin="round" />
<path d="M 161.25 138.75 L 161.25 138.75 L 162.5 140.0 L 168.75 140.0 L 181.25 141.25 L 193.75 141.25 L 201.25 141.25 L 202.5 140.0 " stroke="black" fill="none" stroke-width="6.0" stroke-linecap="round" stroke-linejoin="round" />
<path d="M 160.0 183.75 L 160.0 183.75 L 160.0 183.75 L 165.0 182.5 L 181.25 176.25 L 200.0 168.75 L 210.0 161.25 L 211.25 157.5 L 206.25 157.5 " stroke="black" fill="none" stroke-width="6.0" stroke-linecap="round" stroke-linejoin="round" />
<path d="M 166.25 208.75 L 166.25 210.0 L 166.25 212.5 L 170.0 212.5 L 182.5 207.5 L 196.25 198.75 L 207.5 187.5 L 212.5 178.75 L 211.25 176.25 " stroke="black" fill="none" stroke-width="6.0" stroke-linecap="round" stroke-linejoin="round" />
<path d="M 186.25 178.75 L 186.25 178.75 L 186.25 178.75 L 186.25 178.75 L 186.25 178.75 L 186.25 178.75 L 186.25 178.75 L 186.25 178.75 L 186.25 178.75 L 186.25 178.75 L 186.25 178.75 L 187.5 178.75 L 187.5 181.25 L 190.0 188.75 L 191.25 203.75 L 190.0 221.25 L 186.25 236.25 L 181.25 245.0 " stroke="black" fill="none" stroke-width="6.0" stroke-linecap="round" stroke-linejoin="round" />
<path d="M 161.25 238.75 L 162.5 237.5 L 170.0 235.0 L 183.75 230.0 L 200.0 223.75 L 210.0 217.5 L 211.25 215.0 " stroke="black" fill="none" stroke-width="6.0" stroke-linecap="round" stroke-linejoin="round" />
<path d="M 162.5 253.75 L 161.25 256.25 L 160.0 258.75 L 165.0 258.75 L 177.5 257.5 L 193.75 252.5 L 210.0 246.25 L 221.25 241.25 L 231.25 237.5 L 236.25 235.0 L 237.5 235.0 L 237.5 235.0 L 236.25 233.75 " stroke="black" fill="none" stroke-width="6.0" stroke-linecap="round" stroke-linejoin="round" />
</svg>