<svg xmlns="http://www.w3.org/2000/svg" width="300" height="300" viewBox="0 0 300 300">
<path d="M 92.5 102.5 L 87.5 110.0 L 78.75 127.5 L 66.25 152.5 L 51.25 173.75 L 41.25 185.0 L 38.75 185.0 " stroke="black" fill="none" stroke-width="6.0" stroke-linecap="round" stroke-linejoin="round" />
<path d="M 77.5 140.0 L 80.0 140.0 L 85.0 148.75 L 90.0 182.5 L 88.75 216.25 L 85.0 241.25 L 82.5 252.5 L 77.5 252.5 " stroke="black" fill="none" stroke-width="6.0" stroke-linecap="round" stroke-linejoin="round" />
<path d="M 116.25 108.75 L 116.25 108.75 L 116.25 108.75 L 116.25 115.0 L 118.75 147.5 L 121.25 178.75 L 122.5 192.5 L 121.25 193.75 " stroke="black" fill="none" stroke-width="6.0" stroke-linecap="round" stroke-linejoin="round" />
<path d="M 116.25 120.0 L 116.25 120.0 L 115.0 118.75 L 120.0 116.25 L 132.5 115.0 L 146.25 120.0 L 153.75 136.25 L 153.75 157.5 L 146.25 176.25 L 138.75 186.25 L 133.75 187.5 L 132.5 187.5 " stroke="black" fill="none" stroke-width="6.0" stroke-linecap="round" stroke-linejoin="round" />
<path d="M 116.25 143.75 L 111.25 142.5 L 110.0 142.5 L 117.5 140.0 L 132.5 133.75 L 146.25 127.5 L 151.25 123.75 L 151.25 123.75 " stroke="black" fill="none" stroke-width="6.0" stroke-linecap="round" stroke-linejoin="round" />
<path d="M 112.5 167.5 L 111.25 168.75 L 112.5 168.75 L 125.0 162.5 L 140.0 152.5 L 152.5 143.75 L 153.75 142.5 " stroke="black" fill="none" stroke-width="6.0" stroke-linecap="round" stroke-linejoin="round" />
<path d="M 111.25 206.25 L 111.25 206.25 L 110.0 207.5 L 113.75 206.25 L 127.5 197.5 L 143.75 186.25 L 152.5 181.25 L 151.25 186.25 L 141.25 202.5 L 128.75 220.0 L 115.0 236.25 L 106.25 243.75 L 105.0 238.75 " stroke="black" fill="none" stroke-width="6.0" stroke-linecap="round" stroke-linejoin="round" />
<path d="M 142.5 203.75 L 142.5 203.75 L 145.0 203.75 L 150.0 207.5 L 161.25 220.0 L 175.0 232.5 L 182.5 236.25 L 186.25 235.0 L 185.0 227.5 " stroke="black" fill="none" stroke-width="6.0" stroke-linecap="round" stroke-linejoin="round" />
<path d="M 198.75 125.0 L 197.5 125.0 L 196.25 125.0 L 193.75 131.25 L 193.75 151.25 L 197.5 170.0 L 198.75 181.25 L 200.0 182.5 " stroke="black" fill="none" stroke-width="6.0" stroke-linecap="round" stroke-linejoin="round" />
<path d="M 221.25 97.5 L 221.25 97.5 L 221.25 96.25 L 221.25 100.0 L 221.25 131.25 L 222.5 180.0 L 222.5 213.75 L 222.5 237.5 L 222.5 248.75 L 222.5 250.0 L 222.5 250.0 L 221.25 250.0 L 215.0 246.25 L 206.25 240.0 L 190.0 230.0 L 185.0 228.75 " stroke="black" fill="none" stroke-width="6.0" stroke-linecap="round" stroke-linejoin="round" />
</svg>