<svg xmlns="http://www.w3.org/2000/svg" width="300" height="300" viewBox="0 0 300 300">
<path d="M 87.5 105.0 L 81.25 108.75 L 75.0 122.5 L 63.75 145.0 L 51.25 163.75 L 45.0 173.75 L 43.75 171.25 L 45.0 161.25 L 52.5 150.0 L 62.5 141.25 L 71.25 135.0 L 78.75 131.25 L 82.5 138.75 L 85.0 170.0 L 85.0 208.75 L 80.0 240.0 L 76.25 255.0 L 71.25 255.0 L 68.75 251.25 " stroke="black" fill="none" stroke-width="6.0" stroke-linecap="round" stroke-linejoin="round" />
<path d="M 100.0 155.0 L 100.0 155.0 L 101.25 155.0 L 112.5 150.0 L 131.25 138.75 L 143.75 125.0 L 141.25 122.5 " stroke="black" fill="none" stroke-width="6.0" stroke-linecap="round" stroke-linejoin="round" />
<path d="M 97.5 136.25 L 97.5 136.25 L 95.0 136.25 L 95.0 137.5 L 95.0 152.5 L 97.5 185.0 L 102.5 203.75 L 108.75 207.5 L 118.75 202.5 L 131.25 190.0 L 141.25 176.25 L 146.25 166.25 " stroke="black" fill="none" stroke-width="6.0" stroke-linecap="round" stroke-linejoin="round" />
<path d="M 156.25 97.5 L 153.75 98.75 L 155.0 98.75 L 165.0 98.75 L 181.25 97.5 L 196.25 95.0 L 201.25 95.0 L 198.75 97.5 L 187.5 106.25 L 173.75 116.25 L 161.25 123.75 L 155.0 127.5 L 155.0 128.75 L 156.25 131.25 L 158.75 140.0 L 160.0 162.5 L 161.25 196.25 L 161.25 220.0 L 162.5 227.5 L 162.5 228.75 L 163.75 223.75 L 163.75 212.5 L 161.25 200.0 L 158.75 187.5 " stroke="black" fill="none" stroke-width="6.0" stroke-linecap="round" stroke-linejoin="round" />
<path d="M 156.25 152.5 L 153.75 151.25 L 153.75 151.25 L 153.75 148.75 L 161.25 146.25 L 177.5 141.25 L 197.5 140.0 L 211.25 146.25 L 216.25 166.25 L 216.25 192.5 L 211.25 210.0 L 207.5 216.25 L 203.75 217.5 L 201.25 212.5 L 200.0 210.0 " stroke="black" fill="none" stroke-width="6.0" stroke-linecap="round" stroke-linejoin="round" />
<path d="M 170.0 176.25 L 168.75 176.25 L 167.5 176.25 L 176.25 171.25 L 191.25 162.5 L 203.75 153.75 L 207.5 151.25 L 205.0 151.25 " stroke="black" fill="none" stroke-width="6.0" stroke-linecap="round" stroke-linejoin="round" />
<path d="M 163.75 201.25 L 163.75 202.5 L 163.75 202.5 L 173.75 198.75 L 191.25 188.75 L 207.5 176.25 L 211.25 171.25 L 210.0 171.25 " stroke="black" fill="none" stroke-width="6.0" stroke-linecap="round" stroke-linejoin="round" />
<path d="M 167.5 230.0 L 167.5 230.0 L 172.5 227.5 L 188.75 215.0 L 206.25 203.75 L 213.75 198.75 L 211.25 200.0 L 202.5 212.5 L 191.25 227.5 L 180.0 245.0 L 170.0 256.25 L 165.0 258.75 L 165.0 257.5 " stroke="black" fill="none" stroke-width="6.0" stroke-linecap="round" stroke-linejoin="round" />
<path d="M 203.75 211.25 L 203.75 211.25 L 203.75 211.25 L 203.75 212.5 L 211.25 218.75 L 225.0 232.5 L 240.0 243.75 L 251.25 252.5 L 255.0 255.0 L 256.25 257.5 L 256.25 261.25 L 253.75 263.75 " stroke="black" fill="none" stroke-width="6.0" stroke-linecap="round" stroke-linejoin="round" />
</svg>