<svg xmlns="http://www.w3.org/2000/svg" width="300" height="300" viewBox="0 0 300 300">
<path d="M 87.5 100.0 L 87.5 98.75 L 87.5 97.5 L 86.25 100.0 L 80.0 116.25 L 66.25 147.5 L 52.5 175.0 L 46.25 181.25 L 45.0 178.75 " stroke="black" fill="none" stroke-width="6.0" stroke-linecap="round" stroke-linejoin="round" />
<path d="M 81.25 127.5 L 81.25 127.5 L 81.25 132.5 L 86.25 146.25 L 90.0 183.75 L 90.0 225.0 L 85.0 252.5 L 78.75 260.0 " stroke="black" fill="none" stroke-width="6.0" stroke-linecap="round" stroke-linejoin="round" />
<path d="M 135.0 93.75 L 132.5 96.25 L 132.5 96.25 L 143.75 92.5 L 161.25 83.75 L 181.25 73.75 L 195.0 62.5 L 196.25 56.25 L 186.25 57.5 L 175.0 60.0 L 162.5 63.75 L 153.75 66.25 L 150.0 68.75 L 150.0 72.5 L 150.0 83.75 L 151.25 110.0 L 142.5 145.0 L 128.75 165.0 L 108.75 176.25 L 93.75 180.0 " stroke="black" fill="none" stroke-width="6.0" stroke-linecap="round" stroke-linejoin="round" />
<path d="M 127.5 113.75 L 127.5 112.5 L 127.5 112.5 L 127.5 115.0 L 133.75 122.5 L 141.25 133.75 L 142.5 135.0 " stroke="black" fill="none" stroke-width="6.0" stroke-linecap="round" stroke-linejoin="round" />
<path d="M 175.0 93.75 L 175.0 93.75 L 176.25 93.75 L 190.0 101.25 L 213.75 120.0 L 236.25 140.0 L 265.0 162.5 L 276.25 170.0 L 282.5 171.25 L 281.25 168.75 " stroke="black" fill="none" stroke-width="6.0" stroke-linecap="round" stroke-linejoin="round" />
<path d="M 218.75 83.75 L 216.25 83.75 L 212.5 87.5 L 208.75 97.5 L 200.0 115.0 " stroke="black" fill="none" stroke-width="6.0" stroke-linecap="round" stroke-linejoin="round" />
<path d="M 152.5 125.0 L 152.5 125.0 L 152.5 126.25 L 153.75 136.25 L 158.75 157.5 L 162.5 172.5 L 163.75 178.75 L 161.25 176.25 " stroke="black" fill="none" stroke-width="6.0" stroke-linecap="round" stroke-linejoin="round" />
<path d="M 153.75 138.75 L 152.5 138.75 L 150.0 137.5 L 151.25 135.0 L 162.5 132.5 L 181.25 128.75 L 198.75 128.75 L 205.0 132.5 L 201.25 140.0 L 190.0 150.0 L 175.0 160.0 L 161.25 166.25 L 153.75 168.75 L 151.25 168.75 L 157.5 162.5 L 168.75 156.25 L 181.25 148.75 L 193.75 143.75 L 200.0 141.25 L 201.25 141.25 L 191.25 151.25 L 180.0 161.25 L 167.5 173.75 L 158.75 186.25 L 156.25 188.75 L 163.75 185.0 L 177.5 175.0 L 190.0 165.0 L 200.0 156.25 L 201.25 153.75 L 196.25 157.5 L 190.0 167.5 L 188.75 186.25 L 190.0 215.0 L 193.75 241.25 L 195.0 251.25 L 195.0 251.25 L 191.25 248.75 L 183.75 243.75 L 172.5 237.5 L 165.0 233.75 " stroke="black" fill="none" stroke-width="6.0" stroke-linecap="round" stroke-linejoin="round" />
<path d="M 118.75 198.75 L 118.75 198.75 L 120.0 200.0 L 128.75 207.5 L 145.0 223.75 L 157.5 241.25 L 161.25 246.25 L 161.25 247.5 " stroke="black" fill="none" stroke-width="6.0" stroke-linecap="round" stroke-linejoin="round" />
<path d="M 211.25 192.5 L 211.25 195.0 L 213.75 202.5 L 222.5 211.25 L 232.5 222.5 L 238.75 230.0 L 241.25 232.5 L 241.25 233.75 " stroke="black" fill="none" stroke-width="6.0" stroke-linecap="round" stroke-linejoin="round" />
</svg>