<svg xmlns="http://www.w3.org/2000/svg" width="300" height="300" viewBox="0 0 300 300">
<path d="M 83.75 100.0 L 83.75 100.0 L 80.0 103.75 L 73.75 116.25 L 62.5 140.0 L 48.75 163.75 L 41.25 177.5 L 37.5 180.0 " stroke="black" fill="none" stroke-width="6.0" stroke-linecap="round" stroke-linejoin="round" />
<path d="M 73.75 133.75 L 77.5 132.5 L 78.75 140.0 L 80.0 166.25 L 77.5 205.0 L 72.5 236.25 L 66.25 247.5 L 61.25 247.5 " stroke="black" fill="none" stroke-width="6.0" stroke-linecap="round" stroke-linejoin="round" />
<path d="M 112.5 88.75 L 111.25 90.0 L 110.0 90.0 L 112.5 91.25 L 126.25 91.25 L 145.0 91.25 L 157.5 92.5 L 160.0 97.5 L 151.25 106.25 L 136.25 117.5 L 121.25 126.25 L 107.5 132.5 L 105.0 133.75 L 110.0 132.5 L 121.25 126.25 L 136.25 117.5 L 147.5 108.75 L 150.0 103.75 L 145.0 103.75 L 142.5 103.75 " stroke="black" fill="none" stroke-width="6.0" stroke-linecap="round" stroke-linejoin="round" />
<path d="M 110.0 92.5 L 110.0 92.5 L 110.0 97.5 L 110.0 113.75 L 110.0 160.0 L 111.25 207.5 L 111.25 233.75 L 108.75 246.25 L 105.0 246.25 " stroke="black" fill="none" stroke-width="6.0" stroke-linecap="round" stroke-linejoin="round" />
<path d="M 110.0 172.5 L 110.0 172.5 L 110.0 171.25 L 112.5 168.75 L 122.5 163.75 L 140.0 155.0 L 151.25 147.5 L 152.5 145.0 " stroke="black" fill="none" stroke-width="6.0" stroke-linecap="round" stroke-linejoin="round" />
<path d="M 117.5 187.5 L 117.5 188.75 L 116.25 191.25 L 121.25 190.0 L 133.75 182.5 L 157.5 161.25 L 163.75 152.5 " stroke="black" fill="none" stroke-width="6.0" stroke-linecap="round" stroke-linejoin="round" />
<path d="M 181.25 95.0 L 178.75 95.0 L 177.5 95.0 L 178.75 95.0 L 188.75 95.0 L 198.75 95.0 L 205.0 97.5 L 206.25 103.75 L 200.0 113.75 L 188.75 125.0 L 177.5 136.25 L 172.5 140.0 L 173.75 141.25 L 182.5 141.25 L 193.75 136.25 L 203.75 132.5 L 208.75 128.75 L 210.0 128.75 L 205.0 135.0 L 195.0 148.75 L 178.75 166.25 L 160.0 187.5 L 150.0 197.5 L 151.25 198.75 L 161.25 193.75 L 178.75 183.75 L 197.5 171.25 L 212.5 161.25 L 220.0 157.5 L 218.75 165.0 L 208.75 186.25 L 195.0 208.75 L 180.0 227.5 L 165.0 240.0 L 156.25 241.25 " stroke="black" fill="none" stroke-width="6.0" stroke-linecap="round" stroke-linejoin="round" />
<path d="M 163.75 197.5 L 163.75 197.5 L 162.5 197.5 L 162.5 198.75 L 170.0 205.0 L 190.0 220.0 L 213.75 238.75 L 233.75 252.5 L 250.0 261.25 L 257.5 266.25 L 258.75 267.5 " stroke="black" fill="none" stroke-width="6.0" stroke-linecap="round" stroke-linejoin="round" />
</svg>