<svg xmlns="http://www.w3.org/2000/svg" width="300" height="300" viewBox="0 0 300 300">
<path d="M 97.5 128.75 L 95.0 122.5 L 95.0 121.25 L 95.0 122.5 L 95.0 132.5 L 93.75 151.25 L 87.5 175.0 L 80.0 192.5 L 76.25 192.5 L 78.75 182.5 L 85.0 170.0 L 90.0 161.25 L 95.0 157.5 L 100.0 160.0 L 103.75 180.0 L 103.75 206.25 L 97.5 232.5 L 91.25 248.75 L 88.75 248.75 " stroke="black" fill="none" stroke-width="6.0" stroke-linecap="round" stroke-linejoin="round" />
<path d="M 133.75 107.5 L 130.0 107.5 L 126.25 108.75 L 136.25 102.5 L 156.25 93.75 L 180.0 82.5 L 195.0 73.75 L 193.75 72.5 L 182.5 76.25 L 171.25 80.0 L 161.25 81.25 L 153.75 81.25 L 148.75 82.5 L 147.5 87.5 L 147.5 110.0 L 143.75 147.5 L 138.75 166.25 L 135.0 167.5 " stroke="black" fill="none" stroke-width="6.0" stroke-linecap="round" stroke-linejoin="round" />
<path d="M 152.5 108.75 L 152.5 108.75 L 155.0 108.75 L 162.5 110.0 L 182.5 117.5 L 205.0 125.0 L 211.25 130.0 L 206.25 133.75 L 203.75 133.75 " stroke="black" fill="none" stroke-width="6.0" stroke-linecap="round" stroke-linejoin="round" />
<path d="M 123.75 168.75 L 121.25 171.25 L 122.5 172.5 L 137.5 166.25 L 166.25 151.25 L 200.0 132.5 L 216.25 118.75 L 216.25 115.0 L 207.5 118.75 L 200.0 123.75 " stroke="black" fill="none" stroke-width="6.0" stroke-linecap="round" stroke-linejoin="round" />
<path d="M 148.75 181.25 L 146.25 193.75 L 146.25 211.25 L 148.75 228.75 L 150.0 236.25 L 150.0 238.75 L 148.75 237.5 L 146.25 231.25 L 145.0 222.5 L 148.75 211.25 L 156.25 201.25 L 166.25 193.75 L 176.25 191.25 L 178.75 196.25 L 170.0 208.75 L 158.75 222.5 L 148.75 232.5 L 146.25 235.0 L 148.75 223.75 L 151.25 220.0 " stroke="black" fill="none" stroke-width="6.0" stroke-linecap="round" stroke-linejoin="round" />
<path d="M 203.75 142.5 L 205.0 140.0 L 205.0 137.5 L 205.0 138.75 L 206.25 148.75 L 208.75 172.5 L 211.25 203.75 L 212.5 231.25 L 213.75 248.75 L 213.75 255.0 L 213.75 257.5 L 213.75 258.75 L 211.25 260.0 L 207.5 261.25 L 201.25 262.5 L 188.75 263.75 L 171.25 265.0 L 166.25 265.0 " stroke="black" fill="none" stroke-width="6.0" stroke-linecap="round" stroke-linejoin="round" />
</svg>