<svg xmlns="http://www.w3.org/2000/svg" width="300" height="300" viewBox="0 0 300 300">
<path d="M 93.75 95.0 L 93.75 95.0 L 93.75 95.0 L 93.75 107.5 L 97.5 158.75 L 98.75 205.0 L 98.75 221.25 L 98.75 225.0 L 97.5 218.75 L 97.5 211.25 " stroke="black" fill="none" stroke-width="6.0" stroke-linecap="round" stroke-linejoin="round" />
<path d="M 96.25 108.75 L 96.25 107.5 L 93.75 103.75 L 93.75 100.0 L 97.5 97.5 L 107.5 96.25 L 123.75 108.75 L 136.25 145.0 L 137.5 188.75 L 132.5 220.0 L 128.75 235.0 L 126.25 237.5 L 126.25 237.5 L 127.5 213.75 L 128.75 192.5 " stroke="black" fill="none" stroke-width="6.0" stroke-linecap="round" stroke-linejoin="round" />
<path d="M 151.25 98.75 L 150.0 110.0 L 151.25 142.5 L 152.5 182.5 L 152.5 205.0 L 155.0 212.5 L 156.25 211.25 L 156.25 202.5 L 156.25 187.5 L 155.0 166.25 L 155.0 143.75 L 155.0 118.75 L 160.0 96.25 L 167.5 88.75 L 176.25 93.75 L 187.5 120.0 L 196.25 160.0 L 198.75 201.25 L 197.5 227.5 L 197.5 242.5 L 196.25 243.75 L 195.0 238.75 L 190.0 227.5 L 180.0 210.0 L 167.5 198.75 " stroke="black" fill="none" stroke-width="6.0" stroke-linecap="round" stroke-linejoin="round" />
<path d="M 66.25 173.75 L 53.75 178.75 L 51.25 181.25 L 62.5 182.5 L 93.75 183.75 L 142.5 180.0 L 198.75 173.75 L 236.25 171.25 L 251.25 172.5 L 255.0 172.5 L 255.0 172.5 L 253.75 172.5 L 248.75 172.5 " stroke="black" fill="none" stroke-width="6.0" stroke-linecap="round" stroke-linejoin="round" />
</svg>