<svg xmlns="http://www.w3.org/2000/svg" width="300" height="300" viewBox="0 0 300 300">
<path d="M 72.5 102.5 L 68.75 98.75 L 65.0 97.5 L 65.0 96.25 L 66.25 97.5 L 71.25 106.25 L 76.25 116.25 L 80.0 123.75 L 85.0 126.25 L 91.25 121.25 L 98.75 110.0 L 107.5 100.0 L 112.5 91.25 L 115.0 86.25 L 115.0 82.5 L 113.75 82.5 L 112.5 82.5 L 111.25 82.5 L 111.25 82.5 L 111.25 82.5 L 111.25 82.5 L 112.5 83.75 L 117.5 87.5 L 126.25 92.5 L 135.0 98.75 L 137.5 106.25 L 137.5 107.5 " stroke="black" fill="none" stroke-width="6.0" stroke-linecap="round" stroke-linejoin="round" />
<path d="M 87.5 78.75 L 83.75 76.25 L 83.75 76.25 L 86.25 81.25 L 93.75 93.75 L 98.75 108.75 L 100.0 112.5 " stroke="black" fill="none" stroke-width="6.0" stroke-linecap="round" stroke-linejoin="round" />
<path d="M 66.25 165.0 L 61.25 171.25 L 60.0 173.75 L 65.0 173.75 L 80.0 165.0 L 98.75 148.75 L 112.5 135.0 L 116.25 126.25 L 113.75 126.25 " stroke="black" fill="none" stroke-width="6.0" stroke-linecap="round" stroke-linejoin="round" />
<path d="M 78.75 178.75 L 77.5 190.0 L 78.75 197.5 L 83.75 202.5 L 90.0 203.75 L 92.5 203.75 L 91.25 203.75 L 87.5 202.5 L 81.25 201.25 L 75.0 198.75 L 73.75 195.0 L 77.5 188.75 L 88.75 180.0 L 102.5 171.25 L 113.75 166.25 L 116.25 167.5 L 108.75 182.5 L 98.75 196.25 L 88.75 207.5 L 82.5 213.75 L 82.5 213.75 L 88.75 208.75 L 97.5 200.0 L 105.0 192.5 L 112.5 185.0 L 112.5 183.75 L 106.25 187.5 L 101.25 193.75 L 97.5 200.0 L 93.75 210.0 L 92.5 226.25 L 92.5 250.0 L 95.0 263.75 L 96.25 261.25 " stroke="black" fill="none" stroke-width="6.0" stroke-linecap="round" stroke-linejoin="round" />
<path d="M 123.75 197.5 L 123.75 197.5 L 123.75 197.5 L 120.0 206.25 L 112.5 225.0 L 103.75 246.25 L 98.75 257.5 L 98.75 257.5 L 110.0 251.25 L 126.25 235.0 L 143.75 213.75 L 156.25 195.0 L 156.25 186.25 " stroke="black" fill="none" stroke-width="6.0" stroke-linecap="round" stroke-linejoin="round" />
<path d="M 147.5 127.5 L 146.25 127.5 L 145.0 132.5 L 145.0 151.25 L 146.25 186.25 L 147.5 213.75 L 147.5 227.5 L 142.5 230.0 " stroke="black" fill="none" stroke-width="6.0" stroke-linecap="round" stroke-linejoin="round" />
<path d="M 145.0 138.75 L 145.0 136.25 L 146.25 132.5 L 152.5 125.0 L 162.5 118.75 L 181.25 107.5 L 187.5 106.25 L 188.75 113.75 L 187.5 136.25 L 186.25 161.25 L 186.25 195.0 L 191.25 218.75 L 198.75 236.25 L 207.5 248.75 L 217.5 253.75 L 228.75 256.25 L 236.25 257.5 L 238.75 257.5 L 238.75 257.5 L 238.75 257.5 L 238.75 255.0 L 240.0 253.75 L 241.25 252.5 L 241.25 251.25 L 241.25 251.25 L 241.25 251.25 L 241.25 250.0 L 242.5 246.25 L 242.5 235.0 L 243.75 203.75 L 243.75 152.5 L 242.5 137.5 " stroke="black" fill="none" stroke-width="6.0" stroke-linecap="round" stroke-linejoin="round" />
</svg>