<svg xmlns="http://www.w3.org/2000/svg" width="300" height="300" viewBox="0 0 300 300">
<path d="M 81.25 131.25 L 77.5 131.25 L 76.25 131.25 L 75.0 131.25 L 83.75 131.25 L 97.5 132.5 L 112.5 135.0 L 116.25 136.25 " stroke="black" fill="none" stroke-width="6.0" stroke-linecap="round" stroke-linejoin="round" />
<path d="M 73.75 205.0 L 70.0 207.5 L 71.25 207.5 L 83.75 195.0 L 106.25 172.5 L 130.0 147.5 L 133.75 142.5 " stroke="black" fill="none" stroke-width="6.0" stroke-linecap="round" stroke-linejoin="round" />
<path d="M 183.75 62.5 L 183.75 62.5 L 178.75 62.5 L 165.0 86.25 L 142.5 146.25 L 121.25 197.5 L 102.5 228.75 L 98.75 235.0 " stroke="black" fill="none" stroke-width="6.0" stroke-linecap="round" stroke-linejoin="round" />
<path d="M 162.5 88.75 L 163.75 86.25 L 165.0 86.25 L 176.25 91.25 L 195.0 106.25 L 212.5 125.0 L 231.25 143.75 L 236.25 157.5 " stroke="black" fill="none" stroke-width="6.0" stroke-linecap="round" stroke-linejoin="round" />
<path d="M 158.75 146.25 L 160.0 146.25 L 161.25 146.25 L 166.25 146.25 L 180.0 150.0 L 192.5 153.75 L 198.75 157.5 L 193.75 162.5 L 178.75 170.0 L 160.0 177.5 L 148.75 181.25 L 147.5 181.25 L 156.25 181.25 L 176.25 177.5 L 196.25 171.25 L 207.5 170.0 L 208.75 171.25 L 197.5 182.5 L 181.25 195.0 L 163.75 203.75 L 155.0 208.75 L 155.0 208.75 L 163.75 212.5 L 180.0 218.75 L 198.75 223.75 L 215.0 228.75 " stroke="black" fill="none" stroke-width="6.0" stroke-linecap="round" stroke-linejoin="round" />
</svg>