<svg xmlns="http://www.w3.org/2000/svg" width="300" height="300" viewBox="0 0 300 300">
<path d="M 107.5 98.75 L 106.25 97.5 L 103.75 97.5 L 102.5 103.75 L 101.25 125.0 L 100.0 146.25 L 103.75 156.25 L 121.25 155.0 L 147.5 142.5 L 170.0 128.75 L 188.75 120.0 L 195.0 112.5 L 196.25 107.5 L 193.75 103.75 L 190.0 101.25 L 187.5 100.0 L 186.25 98.75 L 186.25 98.75 L 186.25 98.75 L 188.75 102.5 L 195.0 111.25 L 201.25 122.5 L 206.25 135.0 L 207.5 140.0 " stroke="black" fill="none" stroke-width="6.0" stroke-linecap="round" stroke-linejoin="round" />
<path d="M 133.75 183.75 L 123.75 192.5 L 113.75 205.0 L 103.75 222.5 L 97.5 236.25 L 95.0 240.0 L 95.0 240.0 L 101.25 236.25 L 116.25 230.0 L 136.25 222.5 L 157.5 216.25 L 180.0 211.25 L 198.75 210.0 L 210.0 207.5 L 213.75 203.75 L 213.75 198.75 L 212.5 193.75 L 210.0 188.75 L 206.25 186.25 L 205.0 186.25 L 205.0 186.25 L 203.75 186.25 L 203.75 186.25 L 203.75 186.25 L 203.75 186.25 L 205.0 191.25 L 215.0 205.0 L 231.25 227.5 L 245.0 245.0 L 246.25 248.75 L 243.75 248.75 " stroke="black" fill="none" stroke-width="6.0" stroke-linecap="round" stroke-linejoin="round" />
<path d="M 143.75 73.75 L 143.75 72.5 L 143.75 72.5 L 145.0 77.5 L 152.5 112.5 L 156.25 163.75 L 153.75 203.75 " stroke="black" fill="none" stroke-width="6.0" stroke-linecap="round" stroke-linejoin="round" />
</svg>