<svg xmlns="http://www.w3.org/2000/svg" width="300" height="300" viewBox="0 0 300 300">
<path d="M 66.25 135.0 L 66.25 135.0 L 66.25 135.0 L 67.5 135.0 L 77.5 133.75 L 91.25 130.0 L 105.0 123.75 L 111.25 121.25 " stroke="black" fill="none" stroke-width="6.0" stroke-linecap="round" stroke-linejoin="round" />
<path d="M 63.75 228.75 L 61.25 232.5 L 61.25 233.75 L 72.5 226.25 L 90.0 208.75 L 107.5 181.25 L 120.0 157.5 " stroke="black" fill="none" stroke-width="6.0" stroke-linecap="round" stroke-linejoin="round" />
<path d="M 148.75 86.25 L 148.75 86.25 L 147.5 86.25 L 146.25 85.0 L 152.5 82.5 L 167.5 77.5 L 186.25 68.75 L 195.0 62.5 L 195.0 61.25 L 186.25 63.75 L 177.5 67.5 L 167.5 67.5 L 162.5 67.5 L 160.0 68.75 L 160.0 77.5 L 162.5 97.5 L 163.75 120.0 L 162.5 135.0 L 157.5 137.5 " stroke="black" fill="none" stroke-width="6.0" stroke-linecap="round" stroke-linejoin="round" />
<path d="M 138.75 122.5 L 138.75 122.5 L 138.75 122.5 L 138.75 122.5 L 152.5 117.5 L 173.75 107.5 L 188.75 100.0 L 192.5 97.5 L 183.75 100.0 L 175.0 105.0 " stroke="black" fill="none" stroke-width="6.0" stroke-linecap="round" stroke-linejoin="round" />
<path d="M 123.75 158.75 L 123.75 158.75 L 123.75 161.25 L 132.5 160.0 L 157.5 148.75 L 191.25 131.25 L 213.75 113.75 L 221.25 106.25 L 220.0 105.0 L 210.0 108.75 L 201.25 116.25 L 190.0 125.0 L 180.0 133.75 L 170.0 143.75 L 162.5 161.25 L 160.0 193.75 L 160.0 227.5 L 161.25 246.25 L 162.5 251.25 L 163.75 250.0 L 162.5 245.0 L 160.0 237.5 " stroke="black" fill="none" stroke-width="6.0" stroke-linecap="round" stroke-linejoin="round" />
<path d="M 161.25 168.75 L 162.5 167.5 L 166.25 162.5 L 177.5 156.25 L 193.75 152.5 L 207.5 155.0 L 215.0 170.0 L 216.25 196.25 L 216.25 222.5 L 215.0 243.75 L 215.0 256.25 L 215.0 258.75 L 212.5 257.5 L 207.5 252.5 L 202.5 243.75 L 197.5 233.75 " stroke="black" fill="none" stroke-width="6.0" stroke-linecap="round" stroke-linejoin="round" />
<path d="M 166.25 201.25 L 166.25 201.25 L 166.25 201.25 L 166.25 201.25 L 176.25 196.25 L 196.25 187.5 L 211.25 178.75 L 213.75 176.25 L 207.5 181.25 " stroke="black" fill="none" stroke-width="6.0" stroke-linecap="round" stroke-linejoin="round" />
<path d="M 175.0 218.75 L 172.5 221.25 L 173.75 221.25 L 187.5 216.25 L 205.0 205.0 L 218.75 193.75 " stroke="black" fill="none" stroke-width="6.0" stroke-linecap="round" stroke-linejoin="round" />
</svg>