<svg xmlns="http://www.w3.org/2000/svg" width="300" height="300" viewBox="0 0 300 300">
<path d="M 87.5 102.5 L 83.75 102.5 L 82.5 102.5 L 88.75 102.5 L 106.25 97.5 L 128.75 87.5 L 142.5 78.75 L 145.0 75.0 L 138.75 75.0 L 126.25 75.0 L 123.75 75.0 " stroke="black" fill="none" stroke-width="6.0" stroke-linecap="round" stroke-linejoin="round" />
<path d="M 102.5 70.0 L 102.5 70.0 L 102.5 68.75 L 102.5 73.75 L 105.0 92.5 L 107.5 122.5 L 107.5 145.0 L 101.25 155.0 L 98.75 155.0 " stroke="black" fill="none" stroke-width="6.0" stroke-linecap="round" stroke-linejoin="round" />
<path d="M 73.75 146.25 L 73.75 146.25 L 72.5 145.0 L 72.5 146.25 L 78.75 155.0 L 93.75 175.0 L 106.25 186.25 L 111.25 187.5 L 111.25 187.5 L 106.25 183.75 L 100.0 180.0 L 92.5 173.75 L 87.5 166.25 L 86.25 157.5 L 92.5 146.25 L 110.0 135.0 L 128.75 127.5 L 141.25 125.0 L 142.5 130.0 L 133.75 146.25 L 120.0 163.75 L 105.0 180.0 L 92.5 191.25 L 90.0 193.75 L 95.0 190.0 L 108.75 178.75 L 123.75 165.0 L 135.0 156.25 L 137.5 155.0 L 130.0 171.25 L 115.0 196.25 L 100.0 218.75 L 87.5 238.75 L 82.5 243.75 L 82.5 241.25 " stroke="black" fill="none" stroke-width="6.0" stroke-linecap="round" stroke-linejoin="round" />
<path d="M 125.0 175.0 L 126.25 172.5 L 127.5 171.25 L 130.0 176.25 L 135.0 192.5 L 142.5 217.5 L 153.75 238.75 L 172.5 247.5 L 200.0 247.5 L 227.5 242.5 L 250.0 236.25 L 257.5 232.5 L 256.25 227.5 L 247.5 217.5 L 242.5 213.75 " stroke="black" fill="none" stroke-width="6.0" stroke-linecap="round" stroke-linejoin="round" />
<path d="M 177.5 151.25 L 171.25 153.75 L 166.25 156.25 L 168.75 156.25 L 187.5 151.25 L 213.75 140.0 L 241.25 130.0 L 260.0 122.5 L 261.25 121.25 L 253.75 122.5 L 243.75 125.0 " stroke="black" fill="none" stroke-width="6.0" stroke-linecap="round" stroke-linejoin="round" />
<path d="M 201.25 95.0 L 201.25 93.75 L 200.0 90.0 L 200.0 86.25 L 200.0 85.0 L 202.5 86.25 L 207.5 103.75 L 210.0 143.75 L 211.25 187.5 L 208.75 213.75 L 205.0 222.5 L 200.0 225.0 L 198.75 225.0 " stroke="black" fill="none" stroke-width="6.0" stroke-linecap="round" stroke-linejoin="round" />
</svg>