<svg xmlns="http://www.w3.org/2000/svg" width="300" height="300" viewBox="0 0 300 300">
<path d="M 108.75 95.0 L 108.75 92.5 L 108.75 91.25 L 108.75 95.0 L 112.5 120.0 L 117.5 162.5 L 120.0 196.25 L 121.25 201.25 L 121.25 197.5 L 121.25 196.25 " stroke="black" fill="none" stroke-width="6.0" stroke-linecap="round" stroke-linejoin="round" />
<path d="M 113.75 106.25 L 112.5 106.25 L 113.75 102.5 L 126.25 97.5 L 143.75 93.75 L 163.75 91.25 L 177.5 95.0 L 183.75 113.75 L 182.5 142.5 L 180.0 167.5 L 178.75 182.5 L 178.75 188.75 L 180.0 190.0 L 180.0 187.5 L 178.75 185.0 " stroke="black" fill="none" stroke-width="6.0" stroke-linecap="round" stroke-linejoin="round" />
<path d="M 118.75 145.0 L 112.5 146.25 L 115.0 143.75 L 130.0 135.0 L 147.5 125.0 L 162.5 115.0 L 170.0 107.5 L 166.25 106.25 L 163.75 107.5 " stroke="black" fill="none" stroke-width="6.0" stroke-linecap="round" stroke-linejoin="round" />
<path d="M 133.75 153.75 L 131.25 156.25 L 131.25 157.5 L 140.0 153.75 L 150.0 147.5 L 161.25 138.75 L 167.5 131.25 L 166.25 130.0 " stroke="black" fill="none" stroke-width="6.0" stroke-linecap="round" stroke-linejoin="round" />
<path d="M 135.0 177.5 L 132.5 180.0 L 132.5 180.0 L 142.5 175.0 L 156.25 163.75 L 172.5 151.25 L 181.25 145.0 " stroke="black" fill="none" stroke-width="6.0" stroke-linecap="round" stroke-linejoin="round" />
<path d="M 76.25 236.25 L 75.0 237.5 L 73.75 238.75 L 86.25 236.25 L 120.0 221.25 L 151.25 210.0 L 192.5 196.25 L 207.5 190.0 L 208.75 186.25 L 202.5 186.25 L 191.25 190.0 L 177.5 195.0 L 163.75 198.75 L 151.25 205.0 L 143.75 218.75 L 131.25 241.25 L 113.75 265.0 L 102.5 273.75 L 100.0 273.75 L 100.0 270.0 " stroke="black" fill="none" stroke-width="6.0" stroke-linecap="round" stroke-linejoin="round" />
<path d="M 168.75 212.5 L 170.0 213.75 L 182.5 226.25 L 196.25 240.0 L 207.5 251.25 L 213.75 257.5 L 216.25 258.75 L 216.25 258.75 L 213.75 258.75 L 211.25 258.75 " stroke="black" fill="none" stroke-width="6.0" stroke-linecap="round" stroke-linejoin="round" />
</svg>