<svg xmlns="http://www.w3.org/2000/svg" width="300" height="300" viewBox="0 0 300 300">
<path d="M 122.5 91.25 L 122.5 91.25 L 122.5 92.5 L 128.75 92.5 L 143.75 91.25 L 165.0 87.5 L 182.5 82.5 L 183.75 80.0 L 181.25 80.0 " stroke="black" fill="none" stroke-width="6.0" stroke-linecap="round" stroke-linejoin="round" />
<path d="M 136.25 111.25 L 135.0 113.75 L 131.25 135.0 L 133.75 167.5 L 136.25 191.25 L 138.75 196.25 L 138.75 192.5 " stroke="black" fill="none" stroke-width="6.0" stroke-linecap="round" stroke-linejoin="round" />
<path d="M 130.0 141.25 L 130.0 141.25 L 127.5 140.0 L 133.75 136.25 L 150.0 131.25 L 172.5 126.25 L 188.75 126.25 L 193.75 131.25 L 186.25 142.5 L 171.25 156.25 L 155.0 170.0 L 138.75 182.5 L 121.25 192.5 L 100.0 202.5 L 87.5 207.5 L 85.0 208.75 L 87.5 208.75 L 101.25 206.25 L 126.25 200.0 L 156.25 192.5 L 188.75 181.25 L 210.0 171.25 L 213.75 167.5 L 210.0 166.25 L 200.0 172.5 L 190.0 177.5 " stroke="black" fill="none" stroke-width="6.0" stroke-linecap="round" stroke-linejoin="round" />
<path d="M 152.5 200.0 L 150.0 205.0 L 142.5 216.25 L 133.75 237.5 L 120.0 256.25 L 106.25 263.75 L 98.75 263.75 L 98.75 258.75 " stroke="black" fill="none" stroke-width="6.0" stroke-linecap="round" stroke-linejoin="round" />
<path d="M 173.75 208.75 L 176.25 211.25 L 183.75 226.25 L 197.5 246.25 L 206.25 261.25 L 211.25 266.25 L 213.75 267.5 L 215.0 267.5 L 213.75 267.5 " stroke="black" fill="none" stroke-width="6.0" stroke-linecap="round" stroke-linejoin="round" />
</svg>