<svg xmlns="http://www.w3.org/2000/svg" width="300" height="300" viewBox="0 0 300 300">
<path d="M 90.0 95.0 L 90.0 93.75 L 88.75 95.0 L 85.0 108.75 L 75.0 142.5 L 60.0 171.25 L 51.25 183.75 L 48.75 183.75 " stroke="black" fill="none" stroke-width="6.0" stroke-linecap="round" stroke-linejoin="round" />
<path d="M 83.75 142.5 L 85.0 147.5 L 87.5 166.25 L 91.25 202.5 L 91.25 237.5 L 86.25 258.75 L 83.75 263.75 " stroke="black" fill="none" stroke-width="6.0" stroke-linecap="round" stroke-linejoin="round" />
<path d="M 118.75 91.25 L 117.5 91.25 L 116.25 92.5 L 118.75 100.0 L 123.75 112.5 L 127.5 122.5 L 127.5 127.5 L 125.0 126.25 L 122.5 118.75 L 120.0 110.0 L 118.75 102.5 L 117.5 98.75 L 116.25 97.5 L 116.25 96.25 L 123.75 96.25 L 135.0 93.75 L 145.0 92.5 L 150.0 91.25 L 150.0 97.5 L 141.25 107.5 L 132.5 118.75 L 123.75 126.25 L 121.25 128.75 L 126.25 126.25 L 137.5 117.5 L 150.0 106.25 L 156.25 96.25 " stroke="black" fill="none" stroke-width="6.0" stroke-linecap="round" stroke-linejoin="round" />
<path d="M 170.0 83.75 L 170.0 82.5 L 170.0 82.5 L 170.0 80.0 L 170.0 80.0 L 175.0 85.0 L 180.0 92.5 L 185.0 100.0 L 187.5 103.75 L 188.75 103.75 L 188.75 101.25 L 186.25 95.0 L 183.75 90.0 L 180.0 86.25 L 177.5 83.75 L 176.25 82.5 L 176.25 81.25 L 183.75 78.75 L 195.0 75.0 L 205.0 72.5 L 208.75 72.5 L 207.5 77.5 L 200.0 87.5 L 191.25 97.5 L 182.5 103.75 L 180.0 106.25 L 182.5 106.25 L 193.75 98.75 L 203.75 91.25 L 210.0 83.75 " stroke="black" fill="none" stroke-width="6.0" stroke-linecap="round" stroke-linejoin="round" />
<path d="M 116.25 141.25 L 113.75 141.25 L 107.5 142.5 L 107.5 142.5 L 118.75 142.5 L 141.25 138.75 L 168.75 128.75 L 197.5 113.75 L 207.5 105.0 L 208.75 103.75 L 198.75 107.5 L 196.25 108.75 " stroke="black" fill="none" stroke-width="6.0" stroke-linecap="round" stroke-linejoin="round" />
<path d="M 128.75 147.5 L 126.25 148.75 L 123.75 151.25 L 125.0 163.75 L 125.0 200.0 L 120.0 236.25 L 112.5 250.0 L 106.25 252.5 L 103.75 251.25 " stroke="black" fill="none" stroke-width="6.0" stroke-linecap="round" stroke-linejoin="round" />
<path d="M 138.75 160.0 L 138.75 161.25 L 140.0 161.25 L 148.75 160.0 L 162.5 153.75 L 173.75 146.25 L 178.75 141.25 L 177.5 140.0 L 171.25 141.25 L 166.25 145.0 L 162.5 151.25 L 157.5 162.5 L 152.5 178.75 L 147.5 192.5 L 140.0 198.75 L 133.75 200.0 L 131.25 200.0 L 131.25 198.75 L 136.25 196.25 L 146.25 191.25 L 158.75 185.0 L 172.5 176.25 L 185.0 167.5 L 191.25 162.5 L 190.0 161.25 L 185.0 161.25 L 180.0 163.75 L 175.0 166.25 L 172.5 168.75 L 171.25 175.0 L 171.25 191.25 L 172.5 220.0 L 173.75 243.75 L 173.75 255.0 L 171.25 255.0 L 168.75 255.0 " stroke="black" fill="none" stroke-width="6.0" stroke-linecap="round" stroke-linejoin="round" />
<path d="M 142.5 192.5 L 141.25 193.75 L 138.75 198.75 L 137.5 208.75 L 138.75 222.5 L 140.0 232.5 L 141.25 233.75 L 141.25 232.5 " stroke="black" fill="none" stroke-width="6.0" stroke-linecap="round" stroke-linejoin="round" />
<path d="M 151.25 196.25 L 152.5 195.0 L 153.75 193.75 L 156.25 193.75 L 158.75 202.5 L 157.5 215.0 L 152.5 228.75 L 145.0 237.5 L 140.0 242.5 L 138.75 242.5 L 142.5 240.0 L 153.75 230.0 L 168.75 216.25 L 185.0 200.0 L 193.75 190.0 " stroke="black" fill="none" stroke-width="6.0" stroke-linecap="round" stroke-linejoin="round" />
<path d="M 206.25 137.5 L 205.0 137.5 L 203.75 137.5 L 203.75 145.0 L 203.75 157.5 L 205.0 165.0 L 206.25 166.25 L 211.25 162.5 L 220.0 152.5 L 230.0 142.5 L 238.75 135.0 L 240.0 132.5 " stroke="black" fill="none" stroke-width="6.0" stroke-linecap="round" stroke-linejoin="round" />
<path d="M 216.25 166.25 L 215.0 175.0 L 215.0 186.25 L 217.5 200.0 L 218.75 213.75 L 213.75 227.5 L 206.25 238.75 L 196.25 245.0 L 187.5 245.0 " stroke="black" fill="none" stroke-width="6.0" stroke-linecap="round" stroke-linejoin="round" />
<path d="M 196.25 201.25 L 196.25 201.25 L 196.25 201.25 L 197.5 201.25 L 207.5 211.25 L 223.75 231.25 L 240.0 251.25 L 251.25 262.5 L 257.5 270.0 L 261.25 276.25 L 262.5 277.5 L 262.5 277.5 " stroke="black" fill="none" stroke-width="6.0" stroke-linecap="round" stroke-linejoin="round" />
</svg>