<svg xmlns="http://www.w3.org/2000/svg" width="300" height="300" viewBox="0 0 300 300">
<path d="M 96.25 83.75 L 96.25 82.5 L 96.25 78.75 L 96.25 78.75 L 97.5 82.5 L 96.25 97.5 L 90.0 122.5 L 73.75 150.0 L 55.0 167.5 L 41.25 175.0 L 40.0 173.75 " stroke="black" fill="none" stroke-width="6.0" stroke-linecap="round" stroke-linejoin="round" />
<path d="M 80.0 138.75 L 78.75 137.5 L 78.75 137.5 L 81.25 143.75 L 87.5 170.0 L 90.0 203.75 L 86.25 255.0 L 81.25 271.25 L 77.5 273.75 L 75.0 268.75 " stroke="black" fill="none" stroke-width="6.0" stroke-linecap="round" stroke-linejoin="round" />
<path d="M 155.0 72.5 L 156.25 71.25 L 157.5 70.0 L 163.75 71.25 L 172.5 75.0 L 182.5 78.75 L 190.0 80.0 L 188.75 82.5 L 183.75 85.0 " stroke="black" fill="none" stroke-width="6.0" stroke-linecap="round" stroke-linejoin="round" />
<path d="M 123.75 102.5 L 122.5 105.0 L 126.25 106.25 L 143.75 101.25 L 171.25 90.0 L 200.0 77.5 L 216.25 66.25 L 217.5 62.5 L 208.75 62.5 L 197.5 71.25 L 183.75 77.5 L 170.0 85.0 L 161.25 91.25 L 157.5 98.75 L 157.5 113.75 L 158.75 132.5 L 161.25 143.75 L 161.25 146.25 L 161.25 136.25 L 161.25 130.0 " stroke="black" fill="none" stroke-width="6.0" stroke-linecap="round" stroke-linejoin="round" />
<path d="M 183.75 90.0 L 187.5 85.0 L 190.0 83.75 L 193.75 86.25 L 193.75 95.0 L 191.25 106.25 L 181.25 122.5 L 165.0 136.25 L 145.0 147.5 L 122.5 156.25 L 113.75 162.5 L 115.0 162.5 L 133.75 156.25 L 158.75 143.75 L 187.5 126.25 L 212.5 107.5 L 218.75 100.0 L 216.25 100.0 L 205.0 105.0 L 193.75 112.5 L 181.25 122.5 L 168.75 136.25 L 161.25 156.25 L 161.25 185.0 L 170.0 206.25 L 177.5 211.25 L 181.25 212.5 L 182.5 212.5 L 178.75 206.25 L 172.5 200.0 L 171.25 198.75 " stroke="black" fill="none" stroke-width="6.0" stroke-linecap="round" stroke-linejoin="round" />
<path d="M 166.25 151.25 L 170.0 150.0 L 175.0 147.5 L 188.75 142.5 L 205.0 138.75 L 215.0 137.5 L 216.25 141.25 L 206.25 151.25 L 193.75 162.5 L 180.0 173.75 L 166.25 182.5 L 162.5 183.75 L 166.25 181.25 L 177.5 172.5 L 191.25 162.5 L 203.75 155.0 L 212.5 151.25 L 213.75 156.25 L 206.25 171.25 L 195.0 187.5 L 180.0 203.75 L 170.0 211.25 L 168.75 212.5 L 178.75 207.5 L 195.0 195.0 L 210.0 180.0 L 218.75 166.25 L 220.0 162.5 L 210.0 166.25 L 205.0 170.0 " stroke="black" fill="none" stroke-width="6.0" stroke-linecap="round" stroke-linejoin="round" />
<path d="M 131.25 210.0 L 130.0 211.25 L 128.75 213.75 L 128.75 217.5 L 132.5 232.5 L 142.5 252.5 L 152.5 266.25 L 161.25 268.75 L 163.75 262.5 L 163.75 257.5 " stroke="black" fill="none" stroke-width="6.0" stroke-linecap="round" stroke-linejoin="round" />
<path d="M 182.5 227.5 L 182.5 231.25 L 187.5 242.5 L 200.0 252.5 L 220.0 256.25 L 242.5 253.75 L 255.0 243.75 L 256.25 235.0 L 248.75 231.25 L 233.75 227.5 L 215.0 225.0 L 197.5 222.5 L 183.75 222.5 L 180.0 222.5 L 187.5 223.75 L 210.0 218.75 L 242.5 203.75 L 266.25 190.0 " stroke="black" fill="none" stroke-width="6.0" stroke-linecap="round" stroke-linejoin="round" />
</svg>