<svg xmlns="http://www.w3.org/2000/svg" width="300" height="300" viewBox="0 0 300 300">
<path d="M 87.5 122.5 L 82.5 121.25 L 81.25 120.0 L 81.25 118.75 L 88.75 117.5 L 98.75 117.5 L 110.0 117.5 L 113.75 117.5 " stroke="black" fill="none" stroke-width="6.0" stroke-linecap="round" stroke-linejoin="round" />
<path d="M 85.0 206.25 L 80.0 210.0 L 80.0 211.25 L 85.0 203.75 L 96.25 188.75 L 103.75 172.5 " stroke="black" fill="none" stroke-width="6.0" stroke-linecap="round" stroke-linejoin="round" />
<path d="M 151.25 90.0 L 147.5 92.5 L 147.5 92.5 L 153.75 91.25 L 167.5 86.25 L 182.5 78.75 L 193.75 70.0 L 195.0 63.75 " stroke="black" fill="none" stroke-width="6.0" stroke-linecap="round" stroke-linejoin="round" />
<path d="M 168.75 66.25 L 163.75 70.0 L 161.25 73.75 L 161.25 80.0 L 161.25 92.5 L 160.0 106.25 L 155.0 118.75 L 147.5 126.25 L 138.75 130.0 L 133.75 132.5 L 133.75 132.5 L 142.5 128.75 L 158.75 121.25 L 178.75 111.25 L 196.25 102.5 L 202.5 96.25 L 202.5 95.0 L 193.75 97.5 L 181.25 105.0 L 166.25 122.5 L 147.5 157.5 L 126.25 206.25 L 115.0 226.25 L 111.25 230.0 L 111.25 226.25 " stroke="black" fill="none" stroke-width="6.0" stroke-linecap="round" stroke-linejoin="round" />
<path d="M 178.75 116.25 L 180.0 116.25 L 186.25 118.75 L 200.0 126.25 L 213.75 135.0 L 223.75 140.0 L 226.25 143.75 L 217.5 147.5 " stroke="black" fill="none" stroke-width="6.0" stroke-linecap="round" stroke-linejoin="round" />
<path d="M 180.0 142.5 L 177.5 147.5 L 175.0 160.0 L 168.75 181.25 L 160.0 198.75 L 155.0 205.0 L 153.75 205.0 L 156.25 202.5 L 167.5 193.75 L 183.75 183.75 L 200.0 171.25 L 211.25 163.75 L 212.5 165.0 L 208.75 178.75 L 197.5 197.5 L 185.0 212.5 L 170.0 223.75 L 158.75 228.75 L 156.25 227.5 " stroke="black" fill="none" stroke-width="6.0" stroke-linecap="round" stroke-linejoin="round" />
<path d="M 176.25 205.0 L 183.75 208.75 L 195.0 220.0 L 205.0 233.75 L 215.0 242.5 L 228.75 247.5 L 238.75 248.75 L 245.0 251.25 L 246.25 252.5 " stroke="black" fill="none" stroke-width="6.0" stroke-linecap="round" stroke-linejoin="round" />
</svg>