<svg xmlns="http://www.w3.org/2000/svg" width="300" height="300" viewBox="0 0 300 300">
<path d="M 88.75 100.0 L 81.25 102.5 L 77.5 103.75 L 82.5 102.5 L 97.5 97.5 L 118.75 87.5 L 140.0 77.5 L 151.25 71.25 L 151.25 70.0 L 141.25 73.75 L 130.0 76.25 L 118.75 77.5 L 107.5 77.5 L 98.75 77.5 L 96.25 76.25 L 96.25 76.25 L 98.75 85.0 L 103.75 105.0 L 106.25 132.5 L 106.25 148.75 L 101.25 156.25 L 95.0 155.0 " stroke="black" fill="none" stroke-width="6.0" stroke-linecap="round" stroke-linejoin="round" />
<path d="M 72.5 147.5 L 70.0 146.25 L 68.75 146.25 L 72.5 152.5 L 83.75 167.5 L 97.5 185.0 L 107.5 192.5 L 111.25 193.75 L 111.25 192.5 L 106.25 188.75 L 98.75 183.75 L 92.5 178.75 L 87.5 171.25 L 85.0 161.25 L 92.5 148.75 L 110.0 136.25 L 132.5 127.5 L 148.75 122.5 L 152.5 125.0 L 150.0 135.0 L 138.75 151.25 L 123.75 167.5 L 105.0 183.75 L 90.0 197.5 L 95.0 193.75 L 112.5 178.75 L 131.25 161.25 L 146.25 147.5 L 150.0 143.75 L 143.75 151.25 L 130.0 176.25 L 112.5 203.75 L 96.25 231.25 L 86.25 248.75 L 85.0 253.75 L 85.0 248.75 " stroke="black" fill="none" stroke-width="6.0" stroke-linecap="round" stroke-linejoin="round" />
<path d="M 118.75 185.0 L 118.75 183.75 L 120.0 185.0 L 121.25 197.5 L 126.25 218.75 L 137.5 236.25 L 157.5 242.5 L 190.0 238.75 L 218.75 233.75 L 237.5 227.5 L 242.5 221.25 L 232.5 213.75 " stroke="black" fill="none" stroke-width="6.0" stroke-linecap="round" stroke-linejoin="round" />
<path d="M 186.25 100.0 L 182.5 101.25 L 176.25 102.5 L 175.0 102.5 L 185.0 102.5 L 201.25 97.5 L 217.5 88.75 L 232.5 80.0 L 238.75 75.0 L 231.25 77.5 L 216.25 87.5 " stroke="black" fill="none" stroke-width="6.0" stroke-linecap="round" stroke-linejoin="round" />
<path d="M 160.0 162.5 L 157.5 167.5 L 157.5 170.0 L 163.75 168.75 L 181.25 162.5 L 205.0 148.75 L 226.25 136.25 L 240.0 125.0 L 242.5 121.25 L 237.5 120.0 L 226.25 121.25 L 217.5 122.5 " stroke="black" fill="none" stroke-width="6.0" stroke-linecap="round" stroke-linejoin="round" />
<path d="M 202.5 106.25 L 198.75 105.0 L 197.5 103.75 L 197.5 108.75 L 201.25 136.25 L 205.0 185.0 L 206.25 221.25 L 201.25 247.5 L 197.5 253.75 " stroke="black" fill="none" stroke-width="6.0" stroke-linecap="round" stroke-linejoin="round" />
</svg>