<svg xmlns="http://www.w3.org/2000/svg" width="300" height="300" viewBox="0 0 300 300">
<path d="M 81.25 132.5 L 81.25 132.5 L 81.25 132.5 L 83.75 142.5 L 92.5 181.25 L 97.5 207.5 L 100.0 216.25 L 100.0 216.25 " stroke="black" fill="none" stroke-width="6.0" stroke-linecap="round" stroke-linejoin="round" />
<path d="M 87.5 153.75 L 87.5 153.75 L 88.75 153.75 L 108.75 143.75 L 150.0 130.0 L 190.0 118.75 L 212.5 120.0 L 221.25 135.0 L 223.75 157.5 L 218.75 190.0 L 212.5 212.5 L 208.75 225.0 L 205.0 228.75 L 201.25 227.5 L 195.0 216.25 L 187.5 207.5 " stroke="black" fill="none" stroke-width="6.0" stroke-linecap="round" stroke-linejoin="round" />
<path d="M 141.25 77.5 L 135.0 83.75 L 132.5 111.25 L 125.0 152.5 L 116.25 182.5 L 108.75 195.0 L 102.5 193.75 " stroke="black" fill="none" stroke-width="6.0" stroke-linecap="round" stroke-linejoin="round" />
<path d="M 137.5 138.75 L 138.75 140.0 L 142.5 145.0 L 156.25 157.5 L 180.0 172.5 L 205.0 185.0 L 215.0 192.5 L 215.0 195.0 " stroke="black" fill="none" stroke-width="6.0" stroke-linecap="round" stroke-linejoin="round" />
</svg>