<svg xmlns="http://www.w3.org/2000/svg" width="300" height="300" viewBox="0 0 300 300">
<path d="M 98.75 95.0 L 98.75 95.0 L 95.0 95.0 L 93.75 95.0 L 97.5 103.75 L 108.75 130.0 L 121.25 151.25 L 127.5 158.75 L 125.0 156.25 " stroke="black" fill="none" stroke-width="6.0" stroke-linecap="round" stroke-linejoin="round" />
<path d="M 100.0 100.0 L 100.0 100.0 L 98.75 100.0 L 102.5 98.75 L 125.0 92.5 L 160.0 83.75 L 186.25 81.25 L 192.5 85.0 L 186.25 97.5 L 170.0 116.25 L 152.5 135.0 L 136.25 151.25 L 125.0 160.0 L 123.75 162.5 L 131.25 158.75 L 143.75 150.0 L 156.25 138.75 L 167.5 130.0 L 171.25 125.0 L 170.0 126.25 L 161.25 135.0 L 153.75 148.75 L 146.25 171.25 L 141.25 203.75 L 140.0 231.25 L 140.0 241.25 L 141.25 232.5 L 142.5 226.25 " stroke="black" fill="none" stroke-width="6.0" stroke-linecap="round" stroke-linejoin="round" />
<path d="M 168.75 131.25 L 170.0 130.0 L 168.75 131.25 L 167.5 147.5 L 167.5 180.0 L 171.25 206.25 L 181.25 217.5 L 196.25 223.75 L 210.0 228.75 L 225.0 231.25 L 235.0 231.25 L 237.5 231.25 L 238.75 230.0 L 237.5 222.5 L 233.75 212.5 L 230.0 197.5 L 221.25 172.5 L 218.75 163.75 " stroke="black" fill="none" stroke-width="6.0" stroke-linecap="round" stroke-linejoin="round" />
</svg>