<svg xmlns="http://www.w3.org/2000/svg" width="300" height="300" viewBox="0 0 300 300">
<path d="M 138.75 78.75 L 138.75 76.25 L 138.75 72.5 L 138.75 71.25 L 136.25 81.25 L 128.75 95.0 L 121.25 107.5 L 118.75 111.25 L 126.25 111.25 L 145.0 105.0 L 163.75 100.0 L 181.25 95.0 L 190.0 93.75 L 188.75 96.25 L 175.0 110.0 L 153.75 138.75 L 128.75 170.0 L 98.75 200.0 L 75.0 215.0 L 55.0 220.0 L 43.75 216.25 " stroke="black" fill="none" stroke-width="6.0" stroke-linecap="round" stroke-linejoin="round" />
<path d="M 96.25 136.25 L 96.25 136.25 L 100.0 137.5 L 115.0 145.0 L 145.0 160.0 L 176.25 173.75 L 207.5 185.0 L 227.5 190.0 L 235.0 193.75 L 231.25 196.25 L 220.0 196.25 " stroke="black" fill="none" stroke-width="6.0" stroke-linecap="round" stroke-linejoin="round" />
<path d="M 147.5 195.0 L 147.5 195.0 L 147.5 196.25 L 151.25 197.5 L 161.25 201.25 L 175.0 203.75 L 177.5 205.0 " stroke="black" fill="none" stroke-width="6.0" stroke-linecap="round" stroke-linejoin="round" />
<path d="M 148.75 216.25 L 148.75 216.25 L 147.5 216.25 L 147.5 216.25 L 158.75 217.5 L 176.25 220.0 L 186.25 222.5 " stroke="black" fill="none" stroke-width="6.0" stroke-linecap="round" stroke-linejoin="round" />
</svg>