<svg xmlns="http://www.w3.org/2000/svg" width="300" height="300" viewBox="0 0 300 300">
<path d="M 98.75 106.25 L 98.75 106.25 L 97.5 106.25 L 97.5 106.25 L 105.0 102.5 L 122.5 95.0 L 137.5 86.25 L 140.0 83.75 " stroke="black" fill="none" stroke-width="6.0" stroke-linecap="round" stroke-linejoin="round" />
<path d="M 96.25 132.5 L 96.25 138.75 L 96.25 152.5 L 100.0 170.0 L 103.75 178.75 L 106.25 180.0 L 106.25 176.25 " stroke="black" fill="none" stroke-width="6.0" stroke-linecap="round" stroke-linejoin="round" />
<path d="M 96.25 146.25 L 95.0 146.25 L 92.5 146.25 L 92.5 146.25 L 98.75 146.25 L 115.0 142.5 L 135.0 136.25 L 147.5 132.5 L 150.0 130.0 " stroke="black" fill="none" stroke-width="6.0" stroke-linecap="round" stroke-linejoin="round" />
<path d="M 173.75 91.25 L 173.75 92.5 L 173.75 92.5 L 178.75 96.25 L 192.5 100.0 L 205.0 106.25 L 211.25 115.0 L 208.75 128.75 L 196.25 143.75 L 181.25 155.0 L 163.75 160.0 L 160.0 160.0 " stroke="black" fill="none" stroke-width="6.0" stroke-linecap="round" stroke-linejoin="round" />
<path d="M 161.25 136.25 L 161.25 136.25 L 158.75 136.25 L 157.5 135.0 L 165.0 135.0 L 183.75 132.5 L 202.5 127.5 L 211.25 122.5 L 208.75 125.0 " stroke="black" fill="none" stroke-width="6.0" stroke-linecap="round" stroke-linejoin="round" />
<path d="M 107.5 197.5 L 102.5 200.0 L 102.5 200.0 L 137.5 185.0 L 161.25 172.5 L 177.5 161.25 L 175.0 157.5 L 172.5 157.5 " stroke="black" fill="none" stroke-width="6.0" stroke-linecap="round" stroke-linejoin="round" />
<path d="M 137.5 190.0 L 133.75 196.25 L 126.25 213.75 L 122.5 236.25 L 121.25 248.75 L 123.75 251.25 L 128.75 245.0 " stroke="black" fill="none" stroke-width="6.0" stroke-linecap="round" stroke-linejoin="round" />
<path d="M 165.0 173.75 L 165.0 178.75 L 163.75 193.75 L 167.5 217.5 L 177.5 238.75 L 193.75 248.75 L 212.5 250.0 L 228.75 247.5 L 240.0 246.25 L 243.75 246.25 L 245.0 246.25 L 243.75 246.25 L 243.75 243.75 L 243.75 236.25 L 243.75 225.0 L 242.5 205.0 L 241.25 167.5 L 240.0 155.0 " stroke="black" fill="none" stroke-width="6.0" stroke-linecap="round" stroke-linejoin="round" />
</svg>