<svg xmlns="http://www.w3.org/2000/svg" width="300" height="300" viewBox="0 0 300 300">
<path d="M 70.0 95.0 L 62.5 98.75 L 61.25 100.0 L 71.25 97.5 L 91.25 90.0 L 113.75 78.75 L 133.75 67.5 L 141.25 61.25 L 138.75 60.0 L 128.75 63.75 L 116.25 67.5 L 108.75 68.75 " stroke="black" fill="none" stroke-width="6.0" stroke-linecap="round" stroke-linejoin="round" />
<path d="M 98.75 63.75 L 100.0 63.75 L 101.25 63.75 L 102.5 65.0 L 105.0 76.25 L 105.0 96.25 L 102.5 118.75 L 97.5 136.25 L 90.0 143.75 L 87.5 143.75 " stroke="black" fill="none" stroke-width="6.0" stroke-linecap="round" stroke-linejoin="round" />
<path d="M 66.25 145.0 L 66.25 142.5 L 66.25 141.25 L 71.25 143.75 L 81.25 157.5 L 92.5 175.0 L 101.25 188.75 L 105.0 192.5 L 105.0 192.5 L 102.5 188.75 L 98.75 183.75 L 95.0 176.25 L 90.0 166.25 L 87.5 155.0 L 88.75 143.75 L 97.5 132.5 L 113.75 122.5 L 131.25 116.25 L 141.25 115.0 L 142.5 126.25 L 133.75 142.5 L 122.5 158.75 L 96.25 187.5 L 92.5 192.5 L 96.25 188.75 L 106.25 177.5 L 120.0 162.5 L 131.25 150.0 L 137.5 146.25 L 135.0 153.75 L 122.5 183.75 L 110.0 216.25 L 95.0 252.5 L 83.75 278.75 L 81.25 280.0 L 81.25 275.0 " stroke="black" fill="none" stroke-width="6.0" stroke-linecap="round" stroke-linejoin="round" />
<path d="M 128.75 177.5 L 130.0 176.25 L 131.25 175.0 L 132.5 181.25 L 135.0 200.0 L 137.5 225.0 L 145.0 245.0 L 162.5 252.5 L 192.5 251.25 L 221.25 241.25 L 251.25 232.5 L 266.25 226.25 L 272.5 222.5 L 272.5 221.25 L 267.5 215.0 L 260.0 203.75 L 252.5 187.5 " stroke="black" fill="none" stroke-width="6.0" stroke-linecap="round" stroke-linejoin="round" />
<path d="M 208.75 95.0 L 208.75 95.0 L 208.75 95.0 L 203.75 95.0 L 195.0 105.0 L 180.0 131.25 L 163.75 155.0 L 157.5 161.25 " stroke="black" fill="none" stroke-width="6.0" stroke-linecap="round" stroke-linejoin="round" />
<path d="M 207.5 92.5 L 210.0 91.25 L 217.5 91.25 L 231.25 91.25 L 247.5 95.0 L 260.0 98.75 L 266.25 101.25 L 267.5 103.75 L 260.0 108.75 L 258.75 110.0 " stroke="black" fill="none" stroke-width="6.0" stroke-linecap="round" stroke-linejoin="round" />
<path d="M 185.0 160.0 L 183.75 161.25 L 180.0 162.5 L 178.75 163.75 L 180.0 163.75 L 190.0 161.25 L 203.75 156.25 L 218.75 150.0 L 236.25 146.25 L 248.75 145.0 L 251.25 151.25 L 247.5 166.25 L 236.25 187.5 L 225.0 202.5 L 215.0 212.5 L 207.5 213.75 " stroke="black" fill="none" stroke-width="6.0" stroke-linecap="round" stroke-linejoin="round" />
<path d="M 211.25 161.25 L 210.0 161.25 L 208.75 161.25 L 207.5 166.25 L 203.75 185.0 L 198.75 208.75 L 192.5 226.25 " stroke="black" fill="none" stroke-width="6.0" stroke-linecap="round" stroke-linejoin="round" />
</svg>