<svg xmlns="http://www.w3.org/2000/svg" width="300" height="300" viewBox="0 0 300 300">
<path d="M 93.75 117.5 L 91.25 118.75 L 91.25 118.75 L 108.75 116.25 L 142.5 107.5 L 181.25 97.5 L 203.75 90.0 L 207.5 88.75 L 197.5 91.25 L 182.5 93.75 " stroke="black" fill="none" stroke-width="6.0" stroke-linecap="round" stroke-linejoin="round" />
<path d="M 132.5 91.25 L 131.25 92.5 L 127.5 93.75 L 126.25 103.75 L 130.0 127.5 L 133.75 146.25 L 135.0 152.5 " stroke="black" fill="none" stroke-width="6.0" stroke-linecap="round" stroke-linejoin="round" />
<path d="M 155.0 88.75 L 157.5 87.5 L 160.0 90.0 L 162.5 105.0 L 161.25 132.5 L 152.5 155.0 L 142.5 167.5 L 125.0 175.0 L 103.75 181.25 L 88.75 186.25 L 81.25 190.0 L 82.5 190.0 L 93.75 191.25 L 117.5 187.5 L 148.75 177.5 L 180.0 163.75 L 200.0 153.75 L 205.0 151.25 L 200.0 151.25 L 188.75 153.75 L 172.5 160.0 L 157.5 167.5 L 146.25 182.5 L 138.75 205.0 L 126.25 230.0 L 111.25 251.25 L 98.75 265.0 L 93.75 266.25 L 93.75 262.5 " stroke="black" fill="none" stroke-width="6.0" stroke-linecap="round" stroke-linejoin="round" />
<path d="M 181.25 183.75 L 183.75 183.75 L 191.25 190.0 L 205.0 203.75 L 222.5 225.0 L 237.5 243.75 L 243.75 250.0 L 246.25 253.75 L 245.0 257.5 L 242.5 257.5 " stroke="black" fill="none" stroke-width="6.0" stroke-linecap="round" stroke-linejoin="round" />
</svg>