<svg xmlns="http://www.w3.org/2000/svg" width="300" height="300" viewBox="0 0 300 300">
<path d="M 133.75 105.0 L 113.75 130.0 L 96.25 156.25 L 81.25 178.75 L 71.25 183.75 L 70.0 180.0 " stroke="black" fill="none" stroke-width="6.0" stroke-linecap="round" stroke-linejoin="round" />
<path d="M 180.0 85.0 L 181.25 87.5 L 193.75 97.5 L 213.75 111.25 L 228.75 125.0 L 238.75 133.75 L 242.5 136.25 L 241.25 138.75 " stroke="black" fill="none" stroke-width="6.0" stroke-linecap="round" stroke-linejoin="round" />
<path d="M 180.0 145.0 L 176.25 148.75 L 166.25 157.5 L 156.25 175.0 L 142.5 202.5 L 128.75 222.5 L 115.0 236.25 L 111.25 241.25 L 113.75 241.25 L 126.25 241.25 L 146.25 236.25 L 166.25 230.0 L 187.5 223.75 L 203.75 220.0 L 210.0 217.5 L 211.25 217.5 L 208.75 217.5 L 205.0 215.0 L 200.0 211.25 L 198.75 205.0 L 197.5 198.75 L 196.25 195.0 L 196.25 193.75 L 198.75 195.0 L 205.0 206.25 L 217.5 223.75 L 232.5 241.25 L 243.75 252.5 L 247.5 255.0 " stroke="black" fill="none" stroke-width="6.0" stroke-linecap="round" stroke-linejoin="round" />
</svg>