<svg xmlns="http://www.w3.org/2000/svg" width="300" height="300" viewBox="0 0 300 300">
<path d="M 103.75 93.75 L 102.5 95.0 L 97.5 97.5 L 95.0 100.0 L 101.25 100.0 L 123.75 93.75 L 152.5 85.0 L 180.0 76.25 L 190.0 71.25 L 191.25 70.0 L 182.5 70.0 L 168.75 73.75 L 155.0 75.0 L 145.0 75.0 L 140.0 72.5 L 137.5 67.5 L 137.5 62.5 L 140.0 61.25 L 143.75 65.0 L 148.75 82.5 L 150.0 107.5 L 147.5 132.5 L 142.5 146.25 L 135.0 147.5 " stroke="black" fill="none" stroke-width="6.0" stroke-linecap="round" stroke-linejoin="round" />
<path d="M 101.25 145.0 L 101.25 146.25 L 98.75 148.75 L 100.0 156.25 L 111.25 176.25 L 131.25 197.5 L 146.25 205.0 L 151.25 205.0 L 151.25 202.5 L 146.25 201.25 L 140.0 197.5 L 132.5 192.5 L 123.75 185.0 L 117.5 177.5 L 115.0 170.0 L 118.75 162.5 L 132.5 153.75 L 150.0 143.75 L 171.25 135.0 L 187.5 132.5 L 190.0 135.0 L 180.0 147.5 L 163.75 166.25 L 148.75 185.0 L 133.75 202.5 L 128.75 207.5 L 136.25 205.0 L 150.0 192.5 L 168.75 176.25 L 185.0 158.75 L 193.75 148.75 L 192.5 148.75 L 183.75 155.0 L 173.75 163.75 L 163.75 171.25 L 156.25 178.75 L 152.5 186.25 L 151.25 192.5 L 150.0 198.75 L 148.75 208.75 L 145.0 227.5 L 138.75 246.25 L 130.0 257.5 L 123.75 260.0 L 122.5 251.25 L 123.75 238.75 " stroke="black" fill="none" stroke-width="6.0" stroke-linecap="round" stroke-linejoin="round" />
<path d="M 165.0 176.25 L 166.25 173.75 L 166.25 172.5 L 168.75 171.25 L 171.25 175.0 L 173.75 188.75 L 175.0 207.5 L 177.5 226.25 L 186.25 237.5 L 203.75 243.75 L 228.75 245.0 L 251.25 242.5 L 261.25 236.25 L 262.5 227.5 L 260.0 216.25 L 253.75 201.25 L 250.0 193.75 " stroke="black" fill="none" stroke-width="6.0" stroke-linecap="round" stroke-linejoin="round" />
</svg>