<svg xmlns="http://www.w3.org/2000/svg" width="300" height="300" viewBox="0 0 300 300">
<path d="M 135.0 81.25 L 133.75 82.5 L 130.0 91.25 L 117.5 123.75 L 97.5 157.5 L 81.25 181.25 L 65.0 190.0 L 52.5 188.75 L 52.5 185.0 " stroke="black" fill="none" stroke-width="6.0" stroke-linecap="round" stroke-linejoin="round" />
<path d="M 122.5 93.75 L 126.25 95.0 L 135.0 100.0 L 148.75 112.5 L 165.0 128.75 L 181.25 142.5 L 192.5 155.0 L 193.75 167.5 L 188.75 177.5 L 182.5 180.0 L 180.0 180.0 " stroke="black" fill="none" stroke-width="6.0" stroke-linecap="round" stroke-linejoin="round" />
<path d="M 112.5 171.25 L 107.5 177.5 L 103.75 182.5 L 106.25 182.5 L 120.0 178.75 L 137.5 167.5 L 153.75 155.0 L 162.5 146.25 L 158.75 146.25 " stroke="black" fill="none" stroke-width="6.0" stroke-linecap="round" stroke-linejoin="round" />
<path d="M 113.75 215.0 L 112.5 218.75 L 121.25 212.5 L 137.5 200.0 L 152.5 183.75 L 158.75 173.75 L 156.25 171.25 L 150.0 175.0 L 143.75 180.0 L 138.75 183.75 L 136.25 186.25 L 135.0 191.25 L 136.25 201.25 L 137.5 220.0 L 137.5 238.75 L 133.75 250.0 L 130.0 252.5 L 123.75 253.75 L 118.75 253.75 L 117.5 255.0 L 117.5 255.0 L 120.0 255.0 L 128.75 255.0 L 141.25 253.75 L 156.25 250.0 L 171.25 247.5 L 186.25 246.25 L 197.5 245.0 L 202.5 242.5 L 203.75 240.0 " stroke="black" fill="none" stroke-width="6.0" stroke-linecap="round" stroke-linejoin="round" />
</svg>