<svg xmlns="http://www.w3.org/2000/svg" width="300" height="300" viewBox="0 0 300 300">
<path d="M 93.75 67.5 L 91.25 67.5 L 88.75 66.25 L 87.5 67.5 L 90.0 77.5 L 96.25 92.5 L 101.25 102.5 L 103.75 103.75 " stroke="black" fill="none" stroke-width="6.0" stroke-linecap="round" stroke-linejoin="round" />
<path d="M 91.25 73.75 L 90.0 72.5 L 88.75 72.5 L 98.75 72.5 L 128.75 70.0 L 171.25 65.0 L 203.75 63.75 L 210.0 67.5 L 207.5 75.0 L 193.75 86.25 L 176.25 96.25 L 155.0 103.75 L 141.25 108.75 " stroke="black" fill="none" stroke-width="6.0" stroke-linecap="round" stroke-linejoin="round" />
<path d="M 92.5 135.0 L 92.5 135.0 L 92.5 135.0 L 92.5 135.0 L 102.5 131.25 L 123.75 123.75 L 142.5 116.25 L 148.75 112.5 L 143.75 116.25 " stroke="black" fill="none" stroke-width="6.0" stroke-linecap="round" stroke-linejoin="round" />
<path d="M 92.5 163.75 L 91.25 163.75 L 91.25 165.0 L 101.25 160.0 L 121.25 147.5 L 141.25 133.75 L 147.5 127.5 L 141.25 130.0 L 132.5 135.0 L 122.5 143.75 L 113.75 155.0 L 107.5 173.75 L 106.25 198.75 L 107.5 215.0 L 110.0 218.75 L 111.25 213.75 " stroke="black" fill="none" stroke-width="6.0" stroke-linecap="round" stroke-linejoin="round" />
<path d="M 131.25 155.0 L 131.25 157.5 L 131.25 168.75 L 138.75 192.5 L 152.5 211.25 L 173.75 218.75 L 196.25 217.5 L 210.0 215.0 L 218.75 213.75 L 222.5 213.75 L 222.5 215.0 L 222.5 215.0 L 221.25 215.0 L 218.75 210.0 L 216.25 200.0 L 211.25 186.25 " stroke="black" fill="none" stroke-width="6.0" stroke-linecap="round" stroke-linejoin="round" />
<path d="M 167.5 132.5 L 167.5 132.5 L 166.25 133.75 L 168.75 133.75 L 186.25 130.0 L 207.5 123.75 L 225.0 115.0 L 231.25 110.0 L 228.75 108.75 " stroke="black" fill="none" stroke-width="6.0" stroke-linecap="round" stroke-linejoin="round" />
<path d="M 205.0 106.25 L 205.0 107.5 L 205.0 116.25 L 206.25 147.5 L 207.5 180.0 L 207.5 195.0 L 206.25 196.25 L 203.75 195.0 L 197.5 190.0 L 190.0 185.0 L 180.0 178.75 " stroke="black" fill="none" stroke-width="6.0" stroke-linecap="round" stroke-linejoin="round" />
<path d="M 167.5 157.5 L 167.5 157.5 L 167.5 157.5 L 167.5 158.75 L 175.0 168.75 L 186.25 182.5 " stroke="black" fill="none" stroke-width="6.0" stroke-linecap="round" stroke-linejoin="round" />
</svg>