<svg xmlns="http://www.w3.org/2000/svg" width="300" height="300" viewBox="0 0 300 300">
<path d="M 57.5 136.25 L 53.75 137.5 L 52.5 138.75 L 60.0 138.75 L 73.75 138.75 L 87.5 136.25 L 98.75 132.5 L 100.0 132.5 " stroke="black" fill="none" stroke-width="6.0" stroke-linecap="round" stroke-linejoin="round" />
<path d="M 67.5 211.25 L 67.5 213.75 L 63.75 218.75 L 68.75 216.25 L 82.5 205.0 L 100.0 185.0 L 107.5 172.5 " stroke="black" fill="none" stroke-width="6.0" stroke-linecap="round" stroke-linejoin="round" />
<path d="M 123.75 103.75 L 122.5 103.75 L 120.0 106.25 L 118.75 127.5 L 118.75 168.75 L 118.75 208.75 L 117.5 227.5 L 113.75 235.0 L 111.25 232.5 " stroke="black" fill="none" stroke-width="6.0" stroke-linecap="round" stroke-linejoin="round" />
<path d="M 135.0 101.25 L 135.0 100.0 L 136.25 97.5 L 142.5 92.5 L 157.5 90.0 L 180.0 87.5 L 200.0 86.25 L 208.75 87.5 L 212.5 92.5 L 212.5 106.25 L 212.5 128.75 L 216.25 157.5 L 220.0 192.5 L 222.5 220.0 L 223.75 240.0 L 223.75 250.0 L 222.5 253.75 L 222.5 255.0 L 221.25 255.0 L 217.5 251.25 L 210.0 246.25 L 202.5 235.0 L 192.5 221.25 L 190.0 217.5 " stroke="black" fill="none" stroke-width="6.0" stroke-linecap="round" stroke-linejoin="round" />
<path d="M 130.0 147.5 L 128.75 147.5 L 126.25 146.25 L 126.25 143.75 L 135.0 138.75 L 151.25 131.25 L 168.75 122.5 L 180.0 117.5 L 181.25 117.5 L 176.25 120.0 " stroke="black" fill="none" stroke-width="6.0" stroke-linecap="round" stroke-linejoin="round" />
<path d="M 133.75 168.75 L 128.75 171.25 L 131.25 170.0 L 145.0 162.5 L 163.75 150.0 L 183.75 135.0 L 192.5 125.0 L 185.0 121.25 " stroke="black" fill="none" stroke-width="6.0" stroke-linecap="round" stroke-linejoin="round" />
<path d="M 157.5 111.25 L 157.5 111.25 L 157.5 111.25 L 157.5 112.5 L 161.25 136.25 L 162.5 163.75 L 162.5 185.0 L 156.25 190.0 " stroke="black" fill="none" stroke-width="6.0" stroke-linecap="round" stroke-linejoin="round" />
<path d="M 141.25 182.5 L 141.25 182.5 L 138.75 182.5 L 138.75 185.0 L 143.75 192.5 L 151.25 203.75 L 157.5 213.75 L 161.25 217.5 L 161.25 217.5 L 157.5 213.75 L 153.75 208.75 L 151.25 205.0 L 150.0 201.25 L 150.0 197.5 L 160.0 190.0 L 176.25 180.0 L 193.75 171.25 L 200.0 170.0 L 198.75 176.25 L 187.5 192.5 L 176.25 205.0 L 163.75 217.5 L 158.75 221.25 L 162.5 220.0 L 175.0 212.5 L 191.25 201.25 L 203.75 190.0 " stroke="black" fill="none" stroke-width="6.0" stroke-linecap="round" stroke-linejoin="round" />
</svg>