<svg xmlns="http://www.w3.org/2000/svg" width="300" height="300" viewBox="0 0 300 300">
<path d="M 87.5 98.75 L 86.25 98.75 L 85.0 98.75 L 86.25 97.5 L 97.5 91.25 L 115.0 81.25 L 131.25 70.0 L 133.75 65.0 L 123.75 65.0 L 111.25 67.5 L 102.5 70.0 L 97.5 73.75 L 95.0 77.5 L 95.0 81.25 L 97.5 88.75 L 97.5 97.5 L 96.25 102.5 L 90.0 108.75 L 78.75 116.25 L 68.75 122.5 L 66.25 123.75 L 76.25 121.25 L 96.25 110.0 L 118.75 95.0 L 142.5 80.0 L 151.25 71.25 L 146.25 71.25 L 142.5 73.75 " stroke="black" fill="none" stroke-width="6.0" stroke-linecap="round" stroke-linejoin="round" />
<path d="M 95.0 128.75 L 80.0 160.0 L 63.75 192.5 L 55.0 205.0 L 52.5 201.25 L 52.5 198.75 " stroke="black" fill="none" stroke-width="6.0" stroke-linecap="round" stroke-linejoin="round" />
<path d="M 101.25 98.75 L 103.75 97.5 L 116.25 98.75 L 138.75 113.75 L 157.5 131.25 L 170.0 140.0 L 172.5 140.0 L 163.75 140.0 " stroke="black" fill="none" stroke-width="6.0" stroke-linecap="round" stroke-linejoin="round" />
<path d="M 97.5 141.25 L 96.25 141.25 L 93.75 142.5 L 93.75 142.5 L 101.25 140.0 L 113.75 135.0 L 123.75 128.75 L 127.5 125.0 L 125.0 125.0 L 117.5 125.0 L 112.5 131.25 L 108.75 141.25 L 108.75 157.5 L 111.25 171.25 L 117.5 175.0 L 125.0 167.5 L 136.25 152.5 L 146.25 136.25 L 150.0 125.0 " stroke="black" fill="none" stroke-width="6.0" stroke-linecap="round" stroke-linejoin="round" />
<path d="M 163.75 91.25 L 153.75 91.25 L 152.5 91.25 L 153.75 92.5 L 167.5 96.25 L 185.0 100.0 L 198.75 106.25 L 203.75 121.25 L 202.5 140.0 L 201.25 150.0 L 207.5 150.0 L 218.75 140.0 L 230.0 126.25 L 233.75 115.0 L 225.0 103.75 " stroke="black" fill="none" stroke-width="6.0" stroke-linecap="round" stroke-linejoin="round" />
<path d="M 182.5 77.5 L 182.5 76.25 L 182.5 76.25 L 181.25 96.25 L 175.0 136.25 L 166.25 165.0 L 158.75 178.75 L 152.5 181.25 " stroke="black" fill="none" stroke-width="6.0" stroke-linecap="round" stroke-linejoin="round" />
<path d="M 96.25 207.5 L 92.5 208.75 L 90.0 210.0 L 98.75 208.75 L 127.5 202.5 L 166.25 195.0 L 201.25 191.25 L 215.0 195.0 L 216.25 203.75 L 210.0 215.0 L 196.25 228.75 L 180.0 241.25 L 160.0 251.25 L 147.5 252.5 L 143.75 246.25 " stroke="black" fill="none" stroke-width="6.0" stroke-linecap="round" stroke-linejoin="round" />
<path d="M 152.5 183.75 L 152.5 183.75 L 151.25 183.75 L 150.0 183.75 L 150.0 186.25 L 147.5 207.5 L 140.0 240.0 L 126.25 263.75 L 111.25 270.0 L 107.5 270.0 " stroke="black" fill="none" stroke-width="6.0" stroke-linecap="round" stroke-linejoin="round" />
<path d="M 160.0 120.0 L 160.0 120.0 L 160.0 121.25 L 163.75 123.75 L 180.0 132.5 L 190.0 138.75 " stroke="black" fill="none" stroke-width="6.0" stroke-linecap="round" stroke-linejoin="round" />
</svg>