<svg xmlns="http://www.w3.org/2000/svg" width="300" height="300" viewBox="0 0 300 300">
<path d="M 87.5 112.5 L 87.5 112.5 L 86.25 113.75 L 86.25 120.0 L 90.0 142.5 L 95.0 161.25 L 98.75 165.0 L 98.75 163.75 " stroke="black" fill="none" stroke-width="6.0" stroke-linecap="round" stroke-linejoin="round" />
<path d="M 88.75 120.0 L 87.5 117.5 L 85.0 115.0 L 86.25 113.75 L 97.5 111.25 L 116.25 110.0 L 135.0 110.0 L 140.0 116.25 L 132.5 128.75 L 115.0 145.0 L 97.5 158.75 L 87.5 168.75 L 85.0 171.25 L 92.5 170.0 L 105.0 162.5 L 121.25 153.75 L 130.0 151.25 L 127.5 158.75 L 108.75 185.0 L 91.25 212.5 L 77.5 235.0 L 72.5 243.75 L 75.0 238.75 L 82.5 223.75 L 91.25 208.75 L 98.75 195.0 L 107.5 185.0 L 112.5 181.25 L 120.0 181.25 L 128.75 187.5 L 135.0 201.25 L 136.25 216.25 L 130.0 232.5 L 117.5 241.25 L 112.5 241.25 " stroke="black" fill="none" stroke-width="6.0" stroke-linecap="round" stroke-linejoin="round" />
<path d="M 173.75 137.5 L 173.75 137.5 L 173.75 137.5 L 173.75 137.5 L 173.75 145.0 L 173.75 168.75 L 175.0 190.0 L 175.0 195.0 " stroke="black" fill="none" stroke-width="6.0" stroke-linecap="round" stroke-linejoin="round" />
<path d="M 210.0 98.75 L 211.25 93.75 L 211.25 90.0 L 213.75 96.25 L 216.25 126.25 L 220.0 173.75 L 223.75 218.75 L 226.25 238.75 L 227.5 241.25 L 227.5 241.25 L 222.5 240.0 L 210.0 237.5 L 191.25 231.25 L 161.25 222.5 " stroke="black" fill="none" stroke-width="6.0" stroke-linecap="round" stroke-linejoin="round" />
</svg>