<svg xmlns="http://www.w3.org/2000/svg" width="300" height="300" viewBox="0 0 300 300">
<path d="M 57.5 163.75 L 56.25 165.0 L 50.0 168.75 L 52.5 170.0 L 68.75 165.0 L 90.0 155.0 L 112.5 143.75 L 127.5 133.75 L 126.25 131.25 " stroke="black" fill="none" stroke-width="6.0" stroke-linecap="round" stroke-linejoin="round" />
<path d="M 86.25 122.5 L 86.25 126.25 L 85.0 140.0 L 85.0 168.75 L 87.5 206.25 L 92.5 220.0 L 101.25 217.5 L 115.0 205.0 L 132.5 186.25 L 147.5 165.0 L 155.0 148.75 " stroke="black" fill="none" stroke-width="6.0" stroke-linecap="round" stroke-linejoin="round" />
<path d="M 165.0 107.5 L 158.75 112.5 L 155.0 116.25 L 163.75 117.5 L 182.5 117.5 L 206.25 112.5 L 228.75 105.0 L 241.25 105.0 L 243.75 123.75 L 230.0 165.0 L 216.25 203.75 L 207.5 222.5 L 203.75 223.75 L 200.0 216.25 L 200.0 210.0 " stroke="black" fill="none" stroke-width="6.0" stroke-linecap="round" stroke-linejoin="round" />
<path d="M 198.75 117.5 L 198.75 117.5 L 195.0 123.75 L 185.0 151.25 L 168.75 196.25 L 152.5 230.0 L 147.5 240.0 " stroke="black" fill="none" stroke-width="6.0" stroke-linecap="round" stroke-linejoin="round" />
</svg>