<svg xmlns="http://www.w3.org/2000/svg" width="300" height="300" viewBox="0 0 300 300">
<path d="M 105.0 65.0 L 105.0 65.0 L 105.0 65.0 L 106.25 68.75 L 108.75 83.75 L 108.75 103.75 L 103.75 118.75 L 101.25 121.25 " stroke="black" fill="none" stroke-width="6.0" stroke-linecap="round" stroke-linejoin="round" />
<path d="M 72.5 100.0 L 70.0 97.5 L 70.0 96.25 L 75.0 101.25 L 85.0 111.25 L 93.75 122.5 L 101.25 127.5 L 106.25 123.75 " stroke="black" fill="none" stroke-width="6.0" stroke-linecap="round" stroke-linejoin="round" />
<path d="M 141.25 83.75 L 141.25 82.5 L 141.25 82.5 L 135.0 88.75 L 121.25 107.5 L 103.75 132.5 L 92.5 147.5 L 87.5 150.0 " stroke="black" fill="none" stroke-width="6.0" stroke-linecap="round" stroke-linejoin="round" />
<path d="M 91.25 142.5 L 91.25 142.5 L 90.0 142.5 L 88.75 142.5 L 88.75 152.5 L 90.0 191.25 L 91.25 230.0 L 92.5 246.25 L 93.75 247.5 L 93.75 241.25 L 95.0 230.0 L 95.0 217.5 " stroke="black" fill="none" stroke-width="6.0" stroke-linecap="round" stroke-linejoin="round" />
<path d="M 91.25 151.25 L 90.0 151.25 L 90.0 150.0 L 91.25 147.5 L 98.75 142.5 L 111.25 138.75 L 125.0 143.75 L 135.0 168.75 L 137.5 202.5 L 136.25 226.25 L 135.0 237.5 L 135.0 240.0 L 133.75 237.5 L 131.25 232.5 L 125.0 223.75 L 118.75 213.75 " stroke="black" fill="none" stroke-width="6.0" stroke-linecap="round" stroke-linejoin="round" />
<path d="M 90.0 183.75 L 87.5 183.75 L 83.75 183.75 L 80.0 183.75 L 87.5 177.5 L 100.0 167.5 L 110.0 158.75 L 125.0 148.75 L 126.25 148.75 " stroke="black" fill="none" stroke-width="6.0" stroke-linecap="round" stroke-linejoin="round" />
<path d="M 100.0 197.5 L 97.5 201.25 L 97.5 202.5 L 110.0 192.5 L 131.25 172.5 L 153.75 147.5 L 163.75 137.5 " stroke="black" fill="none" stroke-width="6.0" stroke-linecap="round" stroke-linejoin="round" />
<path d="M 176.25 136.25 L 172.5 140.0 L 168.75 148.75 L 168.75 165.0 L 171.25 181.25 L 175.0 191.25 L 176.25 193.75 L 176.25 193.75 " stroke="black" fill="none" stroke-width="6.0" stroke-linecap="round" stroke-linejoin="round" />
<path d="M 202.5 93.75 L 202.5 91.25 L 203.75 88.75 L 205.0 87.5 L 206.25 87.5 L 207.5 92.5 L 208.75 105.0 L 210.0 127.5 L 210.0 157.5 L 212.5 192.5 L 213.75 215.0 L 216.25 228.75 L 216.25 236.25 L 216.25 240.0 L 216.25 240.0 L 216.25 241.25 L 216.25 241.25 L 216.25 241.25 L 215.0 242.5 L 212.5 243.75 L 207.5 243.75 L 200.0 242.5 L 187.5 236.25 L 167.5 222.5 L 157.5 216.25 " stroke="black" fill="none" stroke-width="6.0" stroke-linecap="round" stroke-linejoin="round" />
</svg>