<svg xmlns="http://www.w3.org/2000/svg" width="300" height="300" viewBox="0 0 300 300">
<path d="M 87.5 81.25 L 85.0 81.25 L 82.5 81.25 L 82.5 85.0 L 88.75 90.0 L 97.5 96.25 L 101.25 98.75 " stroke="black" fill="none" stroke-width="6.0" stroke-linecap="round" stroke-linejoin="round" />
<path d="M 136.25 62.5 L 133.75 65.0 L 128.75 71.25 L 121.25 81.25 L 110.0 96.25 L 100.0 105.0 L 96.25 105.0 " stroke="black" fill="none" stroke-width="6.0" stroke-linecap="round" stroke-linejoin="round" />
<path d="M 105.0 73.75 L 105.0 73.75 L 105.0 78.75 L 103.75 92.5 L 100.0 117.5 L 93.75 138.75 L 87.5 146.25 L 83.75 145.0 " stroke="black" fill="none" stroke-width="6.0" stroke-linecap="round" stroke-linejoin="round" />
<path d="M 103.75 102.5 L 105.0 105.0 L 111.25 112.5 L 125.0 126.25 L 140.0 138.75 L 150.0 146.25 " stroke="black" fill="none" stroke-width="6.0" stroke-linecap="round" stroke-linejoin="round" />
<path d="M 163.75 72.5 L 158.75 72.5 L 157.5 72.5 L 157.5 77.5 L 161.25 86.25 L 166.25 93.75 L 167.5 98.75 " stroke="black" fill="none" stroke-width="6.0" stroke-linecap="round" stroke-linejoin="round" />
<path d="M 201.25 65.0 L 202.5 65.0 L 202.5 65.0 L 201.25 68.75 L 195.0 80.0 L 181.25 96.25 L 168.75 103.75 L 166.25 103.75 " stroke="black" fill="none" stroke-width="6.0" stroke-linecap="round" stroke-linejoin="round" />
<path d="M 180.0 57.5 L 180.0 57.5 L 180.0 58.75 L 178.75 73.75 L 173.75 102.5 L 165.0 132.5 L 156.25 142.5 L 153.75 142.5 " stroke="black" fill="none" stroke-width="6.0" stroke-linecap="round" stroke-linejoin="round" />
<path d="M 176.25 100.0 L 180.0 101.25 L 187.5 106.25 L 198.75 115.0 L 211.25 125.0 L 221.25 130.0 " stroke="black" fill="none" stroke-width="6.0" stroke-linecap="round" stroke-linejoin="round" />
<path d="M 90.0 151.25 L 90.0 151.25 L 86.25 152.5 L 85.0 153.75 L 87.5 166.25 L 93.75 187.5 L 97.5 201.25 L 98.75 203.75 L 98.75 201.25 L 98.75 196.25 " stroke="black" fill="none" stroke-width="6.0" stroke-linecap="round" stroke-linejoin="round" />
<path d="M 92.5 163.75 L 90.0 165.0 L 87.5 166.25 L 88.75 166.25 L 103.75 162.5 L 128.75 156.25 L 163.75 150.0 L 197.5 147.5 L 215.0 147.5 L 220.0 152.5 L 215.0 160.0 L 202.5 171.25 L 190.0 181.25 L 186.25 183.75 " stroke="black" fill="none" stroke-width="6.0" stroke-linecap="round" stroke-linejoin="round" />
<path d="M 122.5 208.75 L 113.75 213.75 L 112.5 213.75 L 120.0 213.75 L 138.75 210.0 L 158.75 203.75 L 182.5 198.75 L 196.25 196.25 L 198.75 202.5 L 187.5 218.75 L 170.0 241.25 L 155.0 256.25 L 146.25 261.25 L 141.25 257.5 L 141.25 256.25 " stroke="black" fill="none" stroke-width="6.0" stroke-linecap="round" stroke-linejoin="round" />
<path d="M 148.75 172.5 L 146.25 171.25 L 145.0 170.0 L 143.75 177.5 L 140.0 200.0 L 127.5 235.0 L 112.5 256.25 L 100.0 262.5 L 95.0 262.5 " stroke="black" fill="none" stroke-width="6.0" stroke-linecap="round" stroke-linejoin="round" />
</svg>