<svg xmlns="http://www.w3.org/2000/svg" width="300" height="300" viewBox="0 0 300 300">
<path d="M 86.25 98.75 L 85.0 93.75 L 85.0 92.5 L 86.25 106.25 L 88.75 141.25 L 88.75 180.0 L 91.25 195.0 L 92.5 192.5 L 92.5 190.0 " stroke="black" fill="none" stroke-width="6.0" stroke-linecap="round" stroke-linejoin="round" />
<path d="M 93.75 92.5 L 93.75 92.5 L 93.75 91.25 L 95.0 88.75 L 102.5 85.0 L 117.5 85.0 L 131.25 96.25 L 138.75 123.75 L 138.75 153.75 L 135.0 173.75 L 133.75 181.25 L 130.0 181.25 L 128.75 176.25 " stroke="black" fill="none" stroke-width="6.0" stroke-linecap="round" stroke-linejoin="round" />
<path d="M 98.75 131.25 L 98.75 131.25 L 95.0 131.25 L 95.0 131.25 L 98.75 128.75 L 111.25 121.25 L 126.25 113.75 L 132.5 108.75 " stroke="black" fill="none" stroke-width="6.0" stroke-linecap="round" stroke-linejoin="round" />
<path d="M 100.0 146.25 L 98.75 147.5 L 97.5 148.75 L 97.5 148.75 L 107.5 145.0 L 121.25 137.5 L 131.25 132.5 L 131.25 132.5 " stroke="black" fill="none" stroke-width="6.0" stroke-linecap="round" stroke-linejoin="round" />
<path d="M 95.0 188.75 L 93.75 190.0 L 91.25 193.75 L 93.75 193.75 L 106.25 183.75 L 123.75 170.0 L 135.0 161.25 L 133.75 165.0 L 118.75 188.75 L 101.25 210.0 L 87.5 231.25 L 81.25 238.75 L 81.25 237.5 " stroke="black" fill="none" stroke-width="6.0" stroke-linecap="round" stroke-linejoin="round" />
<path d="M 120.0 191.25 L 123.75 190.0 L 132.5 192.5 L 143.75 202.5 L 155.0 217.5 L 163.75 226.25 L 168.75 223.75 L 167.5 211.25 " stroke="black" fill="none" stroke-width="6.0" stroke-linecap="round" stroke-linejoin="round" />
<path d="M 171.25 120.0 L 171.25 120.0 L 170.0 120.0 L 170.0 125.0 L 171.25 145.0 L 176.25 168.75 L 182.5 176.25 L 182.5 176.25 " stroke="black" fill="none" stroke-width="6.0" stroke-linecap="round" stroke-linejoin="round" />
<path d="M 218.75 72.5 L 218.75 70.0 L 217.5 66.25 L 218.75 75.0 L 222.5 108.75 L 223.75 161.25 L 227.5 202.5 L 232.5 222.5 L 235.0 238.75 L 235.0 240.0 L 235.0 238.75 L 228.75 237.5 L 216.25 232.5 L 198.75 228.75 L 170.0 223.75 " stroke="black" fill="none" stroke-width="6.0" stroke-linecap="round" stroke-linejoin="round" />
</svg>