<svg xmlns="http://www.w3.org/2000/svg" width="300" height="300" viewBox="0 0 300 300">
<path d="M 95.0 87.5 L 95.0 87.5 L 92.5 86.25 L 91.25 86.25 L 92.5 85.0 L 102.5 81.25 L 120.0 73.75 L 133.75 65.0 L 137.5 62.5 L 126.25 67.5 L 122.5 70.0 " stroke="black" fill="none" stroke-width="6.0" stroke-linecap="round" stroke-linejoin="round" />
<path d="M 63.75 133.75 L 61.25 138.75 L 57.5 142.5 L 65.0 141.25 L 82.5 131.25 L 102.5 112.5 L 122.5 95.0 L 132.5 85.0 L 132.5 85.0 L 122.5 88.75 L 107.5 97.5 L 93.75 106.25 L 83.75 117.5 L 78.75 132.5 L 78.75 147.5 L 81.25 165.0 L 87.5 186.25 L 92.5 196.25 L 96.25 197.5 L 96.25 197.5 L 96.25 196.25 L 95.0 190.0 L 91.25 183.75 L 87.5 176.25 L 85.0 168.75 L 82.5 161.25 L 83.75 153.75 L 93.75 146.25 L 110.0 137.5 L 132.5 130.0 L 146.25 128.75 L 148.75 137.5 L 142.5 151.25 L 131.25 165.0 L 118.75 177.5 L 107.5 183.75 L 102.5 183.75 " stroke="black" fill="none" stroke-width="6.0" stroke-linecap="round" stroke-linejoin="round" />
<path d="M 103.75 148.75 L 103.75 148.75 L 102.5 152.5 L 102.5 161.25 L 105.0 173.75 L 110.0 181.25 L 112.5 180.0 " stroke="black" fill="none" stroke-width="6.0" stroke-linecap="round" stroke-linejoin="round" />
<path d="M 137.5 130.0 L 137.5 127.5 L 136.25 126.25 L 128.75 136.25 L 117.5 155.0 L 103.75 178.75 L 93.75 196.25 L 93.75 197.5 L 101.25 190.0 L 118.75 172.5 L 136.25 153.75 L 147.5 138.75 L 150.0 130.0 L 145.0 128.75 L 136.25 128.75 L 128.75 128.75 L 122.5 122.5 L 120.0 111.25 L 117.5 98.75 L 116.25 93.75 L 116.25 98.75 L 117.5 127.5 L 120.0 166.25 L 123.75 200.0 L 126.25 215.0 L 126.25 218.75 L 125.0 218.75 L 122.5 217.5 L 116.25 213.75 L 110.0 211.25 L 105.0 208.75 L 102.5 208.75 L 102.5 207.5 L 110.0 205.0 L 122.5 197.5 L 133.75 191.25 L 140.0 187.5 L 141.25 190.0 L 133.75 203.75 L 123.75 218.75 L 118.75 230.0 L 120.0 231.25 L 131.25 223.75 L 142.5 211.25 L 148.75 202.5 L 148.75 200.0 L 142.5 200.0 " stroke="black" fill="none" stroke-width="6.0" stroke-linecap="round" stroke-linejoin="round" />
<path d="M 70.0 226.25 L 66.25 227.5 L 63.75 227.5 L 66.25 232.5 L 76.25 245.0 L 87.5 257.5 L 93.75 263.75 L 95.0 265.0 L 95.0 262.5 " stroke="black" fill="none" stroke-width="6.0" stroke-linecap="round" stroke-linejoin="round" />
<path d="M 98.75 228.75 L 98.75 228.75 L 98.75 228.75 L 98.75 232.5 L 101.25 243.75 L 107.5 252.5 L 112.5 257.5 L 113.75 256.25 L 113.75 250.0 L 115.0 241.25 L 118.75 233.75 L 120.0 230.0 L 120.0 230.0 L 122.5 237.5 L 126.25 245.0 L 127.5 248.75 L 130.0 248.75 L 135.0 242.5 L 141.25 236.25 L 143.75 233.75 L 145.0 233.75 L 147.5 236.25 L 147.5 237.5 " stroke="black" fill="none" stroke-width="6.0" stroke-linecap="round" stroke-linejoin="round" />
<path d="M 192.5 143.75 L 190.0 146.25 L 182.5 151.25 L 178.75 152.5 L 182.5 152.5 L 195.0 151.25 L 211.25 142.5 L 225.0 137.5 L 243.75 132.5 L 247.5 142.5 L 238.75 175.0 L 225.0 205.0 L 215.0 225.0 L 208.75 232.5 L 206.25 233.75 L 203.75 228.75 L 202.5 216.25 L 200.0 206.25 " stroke="black" fill="none" stroke-width="6.0" stroke-linecap="round" stroke-linejoin="round" />
<path d="M 198.75 103.75 L 198.75 102.5 L 198.75 97.5 L 197.5 95.0 L 197.5 95.0 L 197.5 110.0 L 195.0 155.0 L 182.5 211.25 L 171.25 241.25 L 161.25 252.5 " stroke="black" fill="none" stroke-width="6.0" stroke-linecap="round" stroke-linejoin="round" />
</svg>