<svg xmlns="http://www.w3.org/2000/svg" width="300" height="300" viewBox="0 0 300 300">
<path d="M 88.75 112.5 L 88.75 113.75 L 88.75 113.75 L 92.5 111.25 L 108.75 102.5 L 130.0 90.0 L 142.5 83.75 L 143.75 82.5 " stroke="black" fill="none" stroke-width="6.0" stroke-linecap="round" stroke-linejoin="round" />
<path d="M 101.25 110.0 L 100.0 111.25 L 97.5 120.0 L 97.5 137.5 L 98.75 158.75 L 101.25 166.25 L 107.5 163.75 L 118.75 151.25 L 128.75 138.75 L 137.5 128.75 L 141.25 123.75 L 141.25 122.5 L 140.0 123.75 L 138.75 125.0 L 138.75 128.75 L 140.0 133.75 L 143.75 140.0 L 145.0 147.5 " stroke="black" fill="none" stroke-width="6.0" stroke-linecap="round" stroke-linejoin="round" />
<path d="M 92.5 200.0 L 92.5 200.0 L 92.5 200.0 L 96.25 198.75 L 112.5 190.0 L 135.0 176.25 L 143.75 166.25 L 138.75 166.25 L 136.25 167.5 " stroke="black" fill="none" stroke-width="6.0" stroke-linecap="round" stroke-linejoin="round" />
<path d="M 113.75 171.25 L 113.75 171.25 L 112.5 171.25 L 113.75 172.5 L 121.25 180.0 L 127.5 193.75 L 127.5 208.75 L 120.0 218.75 L 112.5 223.75 L 110.0 225.0 L 120.0 218.75 L 140.0 203.75 L 162.5 182.5 L 185.0 158.75 L 192.5 146.25 L 191.25 140.0 L 187.5 135.0 L 183.75 131.25 L 182.5 130.0 L 182.5 130.0 L 182.5 135.0 L 185.0 152.5 L 187.5 172.5 L 188.75 190.0 L 191.25 196.25 L 191.25 195.0 " stroke="black" fill="none" stroke-width="6.0" stroke-linecap="round" stroke-linejoin="round" />
<path d="M 218.75 76.25 L 220.0 73.75 L 220.0 72.5 L 221.25 82.5 L 221.25 120.0 L 221.25 177.5 L 225.0 222.5 L 230.0 242.5 L 231.25 248.75 L 231.25 250.0 L 226.25 248.75 L 211.25 246.25 L 190.0 242.5 L 160.0 233.75 L 151.25 230.0 " stroke="black" fill="none" stroke-width="6.0" stroke-linecap="round" stroke-linejoin="round" />
</svg>