<svg xmlns="http://www.w3.org/2000/svg" width="300" height="300" viewBox="0 0 300 300">
<path d="M 75.0 83.75 L 72.5 82.5 L 70.0 82.5 L 68.75 81.25 L 72.5 81.25 L 86.25 80.0 L 105.0 76.25 L 123.75 70.0 L 131.25 67.5 L 121.25 72.5 L 116.25 75.0 " stroke="black" fill="none" stroke-width="6.0" stroke-linecap="round" stroke-linejoin="round" />
<path d="M 61.25 127.5 L 58.75 130.0 L 58.75 132.5 L 68.75 130.0 L 87.5 118.75 L 107.5 103.75 L 122.5 93.75 L 125.0 92.5 L 112.5 97.5 L 106.25 100.0 " stroke="black" fill="none" stroke-width="6.0" stroke-linecap="round" stroke-linejoin="round" />
<path d="M 66.25 137.5 L 65.0 141.25 L 61.25 151.25 L 62.5 170.0 L 66.25 192.5 L 72.5 205.0 L 76.25 206.25 L 76.25 201.25 " stroke="black" fill="none" stroke-width="6.0" stroke-linecap="round" stroke-linejoin="round" />
<path d="M 67.5 158.75 L 65.0 158.75 L 62.5 158.75 L 66.25 157.5 L 85.0 150.0 L 110.0 140.0 L 133.75 135.0 L 142.5 137.5 L 137.5 150.0 L 122.5 168.75 L 106.25 185.0 L 93.75 195.0 L 85.0 196.25 " stroke="black" fill="none" stroke-width="6.0" stroke-linecap="round" stroke-linejoin="round" />
<path d="M 71.25 188.75 L 67.5 187.5 L 67.5 186.25 L 73.75 182.5 L 92.5 171.25 L 115.0 157.5 L 130.0 150.0 L 125.0 151.25 L 115.0 157.5 " stroke="black" fill="none" stroke-width="6.0" stroke-linecap="round" stroke-linejoin="round" />
<path d="M 78.75 201.25 L 77.5 203.75 L 73.75 207.5 L 78.75 203.75 L 93.75 191.25 L 112.5 171.25 L 131.25 150.0 L 132.5 143.75 L 126.25 142.5 " stroke="black" fill="none" stroke-width="6.0" stroke-linecap="round" stroke-linejoin="round" />
<path d="M 100.0 101.25 L 98.75 98.75 L 98.75 97.5 L 97.5 96.25 L 97.5 102.5 L 98.75 128.75 L 102.5 171.25 L 102.5 212.5 L 102.5 231.25 L 102.5 241.25 L 98.75 245.0 L 96.25 245.0 L 95.0 243.75 " stroke="black" fill="none" stroke-width="6.0" stroke-linecap="round" stroke-linejoin="round" />
<path d="M 78.75 230.0 L 75.0 231.25 L 71.25 232.5 L 71.25 232.5 L 82.5 226.25 L 98.75 215.0 L 117.5 203.75 L 128.75 196.25 L 128.75 195.0 " stroke="black" fill="none" stroke-width="6.0" stroke-linecap="round" stroke-linejoin="round" />
<path d="M 93.75 245.0 L 91.25 248.75 L 90.0 252.5 L 95.0 251.25 L 112.5 240.0 L 136.25 218.75 L 150.0 203.75 " stroke="black" fill="none" stroke-width="6.0" stroke-linecap="round" stroke-linejoin="round" />
<path d="M 157.5 130.0 L 152.5 132.5 L 148.75 133.75 L 150.0 133.75 L 163.75 133.75 L 187.5 128.75 L 211.25 122.5 L 227.5 122.5 L 232.5 141.25 L 223.75 175.0 L 213.75 205.0 L 207.5 225.0 L 205.0 233.75 L 205.0 232.5 L 205.0 228.75 L 202.5 220.0 L 198.75 206.25 L 195.0 200.0 " stroke="black" fill="none" stroke-width="6.0" stroke-linecap="round" stroke-linejoin="round" />
<path d="M 187.5 72.5 L 185.0 72.5 L 182.5 73.75 L 182.5 97.5 L 177.5 153.75 L 167.5 203.75 L 151.25 236.25 " stroke="black" fill="none" stroke-width="6.0" stroke-linecap="round" stroke-linejoin="round" />
</svg>