<svg xmlns="http://www.w3.org/2000/svg" width="300" height="300" viewBox="0 0 300 300">
<path d="M 82.5 100.0 L 81.25 101.25 L 80.0 110.0 L 80.0 143.75 L 76.25 183.75 L 70.0 206.25 L 60.0 211.25 " stroke="black" fill="none" stroke-width="6.0" stroke-linecap="round" stroke-linejoin="round" />
<path d="M 75.0 103.75 L 75.0 102.5 L 75.0 101.25 L 80.0 101.25 L 90.0 100.0 L 103.75 106.25 L 116.25 130.0 L 121.25 168.75 L 120.0 203.75 L 115.0 223.75 L 113.75 231.25 L 112.5 231.25 L 110.0 221.25 L 105.0 208.75 L 102.5 202.5 " stroke="black" fill="none" stroke-width="6.0" stroke-linecap="round" stroke-linejoin="round" />
<path d="M 86.25 147.5 L 85.0 147.5 L 82.5 146.25 L 82.5 143.75 L 91.25 138.75 L 107.5 130.0 L 121.25 121.25 L 121.25 120.0 " stroke="black" fill="none" stroke-width="6.0" stroke-linecap="round" stroke-linejoin="round" />
<path d="M 92.5 158.75 L 90.0 162.5 L 90.0 162.5 L 102.5 155.0 L 125.0 136.25 L 131.25 130.0 " stroke="black" fill="none" stroke-width="6.0" stroke-linecap="round" stroke-linejoin="round" />
<path d="M 163.75 77.5 L 163.75 77.5 L 163.75 77.5 L 163.75 80.0 L 165.0 93.75 L 168.75 108.75 L 168.75 112.5 " stroke="black" fill="none" stroke-width="6.0" stroke-linecap="round" stroke-linejoin="round" />
<path d="M 183.75 77.5 L 185.0 76.25 L 186.25 73.75 L 190.0 75.0 L 191.25 85.0 L 188.75 98.75 L 180.0 110.0 L 166.25 116.25 L 151.25 118.75 L 142.5 122.5 L 141.25 123.75 L 146.25 121.25 L 161.25 113.75 L 181.25 105.0 L 198.75 96.25 L 205.0 92.5 L 198.75 96.25 L 190.0 101.25 " stroke="black" fill="none" stroke-width="6.0" stroke-linecap="round" stroke-linejoin="round" />
<path d="M 131.25 157.5 L 131.25 158.75 L 130.0 160.0 L 141.25 155.0 L 168.75 135.0 L 202.5 108.75 L 218.75 88.75 L 221.25 83.75 L 215.0 83.75 " stroke="black" fill="none" stroke-width="6.0" stroke-linecap="round" stroke-linejoin="round" />
<path d="M 173.75 87.5 L 173.75 87.5 L 173.75 95.0 L 170.0 122.5 L 158.75 160.0 L 146.25 187.5 L 133.75 201.25 L 120.0 203.75 L 115.0 196.25 " stroke="black" fill="none" stroke-width="6.0" stroke-linecap="round" stroke-linejoin="round" />
<path d="M 183.75 122.5 L 188.75 122.5 L 200.0 128.75 L 218.75 141.25 L 240.0 155.0 L 258.75 163.75 L 268.75 171.25 L 271.25 172.5 L 267.5 172.5 L 253.75 171.25 L 248.75 170.0 " stroke="black" fill="none" stroke-width="6.0" stroke-linecap="round" stroke-linejoin="round" />
<path d="M 158.75 191.25 L 153.75 193.75 L 152.5 195.0 L 167.5 195.0 L 191.25 191.25 L 215.0 186.25 L 230.0 187.5 L 231.25 197.5 L 218.75 212.5 L 202.5 228.75 L 186.25 238.75 L 171.25 241.25 L 167.5 226.25 L 167.5 221.25 " stroke="black" fill="none" stroke-width="6.0" stroke-linecap="round" stroke-linejoin="round" />
<path d="M 193.75 143.75 L 193.75 141.25 L 193.75 141.25 L 191.25 156.25 L 178.75 211.25 L 161.25 246.25 L 156.25 250.0 " stroke="black" fill="none" stroke-width="6.0" stroke-linecap="round" stroke-linejoin="round" />
</svg>