<svg xmlns="http://www.w3.org/2000/svg" width="300" height="300" viewBox="0 0 300 300">
<path d="M 76.25 91.25 L 72.5 93.75 L 67.5 96.25 L 70.0 96.25 L 80.0 95.0 L 83.75 95.0 L 103.75 88.75 L 115.0 85.0 L 127.5 81.25 L 136.25 76.25 L 143.75 72.5 L 146.25 70.0 L 146.25 68.75 L 146.25 68.75 L 143.75 68.75 " stroke="black" fill="none" stroke-width="6.0" stroke-linecap="round" stroke-linejoin="round" />
<path d="M 101.25 81.25 L 98.75 82.5 L 96.25 83.75 L 95.0 86.25 L 93.75 87.5 L 93.75 91.25 L 93.75 96.25 L 93.75 102.5 L 93.75 105.0 L 93.75 111.25 L 93.75 112.5 " stroke="black" fill="none" stroke-width="6.0" stroke-linecap="round" stroke-linejoin="round" />
<path d="M 122.5 68.75 L 122.5 70.0 L 122.5 70.0 L 121.25 71.25 L 121.25 72.5 L 120.0 76.25 L 118.75 78.75 L 116.25 87.5 L 108.75 101.25 " stroke="black" fill="none" stroke-width="6.0" stroke-linecap="round" stroke-linejoin="round" />
<path d="M 80.0 118.75 L 80.0 118.75 L 80.0 120.0 L 80.0 122.5 L 81.25 127.5 L 82.5 130.0 L 85.0 140.0 L 86.25 143.75 L 87.5 146.25 L 87.5 148.75 L 87.5 148.75 L 87.5 148.75 L 87.5 147.5 L 86.25 147.5 L 85.0 143.75 L 83.75 137.5 L 82.5 132.5 L 82.5 128.75 L 82.5 126.25 L 83.75 125.0 L 87.5 122.5 L 91.25 122.5 L 95.0 122.5 L 98.75 122.5 L 102.5 122.5 L 105.0 122.5 L 106.25 125.0 L 107.5 126.25 L 106.25 131.25 L 98.75 138.75 L 92.5 145.0 L 88.75 147.5 L 88.75 147.5 L 90.0 146.25 L 96.25 137.5 L 101.25 132.5 L 103.75 128.75 L 106.25 126.25 " stroke="black" fill="none" stroke-width="6.0" stroke-linecap="round" stroke-linejoin="round" />
<path d="M 113.75 107.5 L 112.5 110.0 L 111.25 115.0 L 111.25 116.25 L 112.5 126.25 L 115.0 131.25 L 117.5 135.0 L 120.0 137.5 L 121.25 140.0 L 121.25 140.0 L 121.25 140.0 " stroke="black" fill="none" stroke-width="6.0" stroke-linecap="round" stroke-linejoin="round" />
<path d="M 117.5 120.0 L 116.25 118.75 L 115.0 116.25 L 115.0 115.0 L 115.0 112.5 L 117.5 111.25 L 121.25 108.75 L 127.5 107.5 L 135.0 106.25 L 140.0 103.75 L 145.0 103.75 L 147.5 103.75 L 150.0 103.75 L 145.0 111.25 L 133.75 121.25 L 123.75 131.25 L 118.75 136.25 L 118.75 136.25 L 126.25 132.5 L 128.75 130.0 L 135.0 125.0 L 140.0 120.0 L 143.75 115.0 " stroke="black" fill="none" stroke-width="6.0" stroke-linecap="round" stroke-linejoin="round" />
<path d="M 96.25 155.0 L 93.75 158.75 L 88.75 163.75 L 82.5 176.25 L 76.25 191.25 L 71.25 200.0 L 71.25 198.75 L 76.25 190.0 L 82.5 180.0 L 90.0 168.75 L 93.75 160.0 L 96.25 157.5 L 97.5 170.0 L 97.5 196.25 L 96.25 225.0 L 95.0 245.0 L 93.75 248.75 L 93.75 243.75 " stroke="black" fill="none" stroke-width="6.0" stroke-linecap="round" stroke-linejoin="round" />
<path d="M 106.25 158.75 L 107.5 158.75 L 107.5 158.75 L 116.25 157.5 L 131.25 157.5 L 142.5 155.0 L 146.25 153.75 L 142.5 155.0 L 136.25 157.5 " stroke="black" fill="none" stroke-width="6.0" stroke-linecap="round" stroke-linejoin="round" />
<path d="M 107.5 178.75 L 107.5 178.75 L 107.5 181.25 L 108.75 181.25 L 116.25 178.75 L 130.0 168.75 L 141.25 158.75 L 145.0 152.5 L 143.75 151.25 " stroke="black" fill="none" stroke-width="6.0" stroke-linecap="round" stroke-linejoin="round" />
<path d="M 108.75 198.75 L 108.75 201.25 L 110.0 201.25 L 121.25 196.25 L 137.5 185.0 L 150.0 171.25 L 152.5 162.5 L 147.5 162.5 L 140.0 163.75 L 135.0 165.0 L 133.75 166.25 L 132.5 168.75 L 133.75 176.25 L 133.75 193.75 L 133.75 216.25 L 133.75 231.25 L 133.75 233.75 L 132.5 230.0 L 128.75 223.75 L 122.5 220.0 L 116.25 218.75 L 110.0 218.75 L 108.75 218.75 L 111.25 218.75 L 122.5 216.25 L 137.5 207.5 L 151.25 198.75 L 161.25 190.0 L 163.75 186.25 L 160.0 188.75 L 157.5 190.0 " stroke="black" fill="none" stroke-width="6.0" stroke-linecap="round" stroke-linejoin="round" />
<path d="M 128.75 233.75 L 128.75 235.0 L 127.5 238.75 L 131.25 238.75 L 142.5 231.25 L 155.0 218.75 L 165.0 205.0 " stroke="black" fill="none" stroke-width="6.0" stroke-linecap="round" stroke-linejoin="round" />
<path d="M 178.75 143.75 L 172.5 147.5 L 166.25 151.25 L 172.5 150.0 L 191.25 143.75 L 212.5 136.25 L 230.0 130.0 L 242.5 125.0 L 245.0 128.75 L 238.75 151.25 L 227.5 192.5 L 221.25 225.0 L 217.5 238.75 L 215.0 240.0 L 215.0 236.25 L 212.5 226.25 L 210.0 212.5 L 206.25 201.25 " stroke="black" fill="none" stroke-width="6.0" stroke-linecap="round" stroke-linejoin="round" />
<path d="M 195.0 87.5 L 193.75 87.5 L 191.25 87.5 L 191.25 91.25 L 193.75 106.25 L 193.75 168.75 L 180.0 213.75 L 161.25 243.75 L 150.0 255.0 " stroke="black" fill="none" stroke-width="6.0" stroke-linecap="round" stroke-linejoin="round" />
</svg>