<svg xmlns="http://www.w3.org/2000/svg" width="300" height="300" viewBox="0 0 300 300">
<path d="M 72.5 108.75 L 70.0 111.25 L 65.0 113.75 L 63.75 113.75 L 67.5 110.0 L 78.75 101.25 L 90.0 91.25 L 98.75 81.25 L 101.25 77.5 L 101.25 76.25 L 96.25 80.0 L 90.0 87.5 L 86.25 98.75 L 83.75 116.25 L 85.0 135.0 L 88.75 143.75 L 92.5 142.5 L 97.5 133.75 L 100.0 123.75 L 102.5 113.75 L 102.5 106.25 L 102.5 102.5 L 102.5 102.5 L 102.5 105.0 L 103.75 115.0 L 106.25 126.25 L 108.75 132.5 L 111.25 135.0 L 112.5 132.5 L 112.5 125.0 " stroke="black" fill="none" stroke-width="6.0" stroke-linecap="round" stroke-linejoin="round" />
<path d="M 115.0 83.75 L 116.25 83.75 L 116.25 85.0 L 122.5 85.0 L 137.5 82.5 L 151.25 81.25 L 156.25 83.75 L 152.5 91.25 L 140.0 102.5 L 126.25 112.5 L 118.75 113.75 L 116.25 108.75 L 122.5 97.5 L 130.0 90.0 L 136.25 86.25 L 135.0 88.75 L 127.5 103.75 L 118.75 125.0 L 111.25 145.0 L 106.25 153.75 L 105.0 153.75 " stroke="black" fill="none" stroke-width="6.0" stroke-linecap="round" stroke-linejoin="round" />
<path d="M 117.5 127.5 L 117.5 128.75 L 111.25 137.5 L 98.75 153.75 L 82.5 183.75 L 61.25 218.75 L 38.75 251.25 L 28.75 265.0 L 21.25 268.75 L 21.25 266.25 " stroke="black" fill="none" stroke-width="6.0" stroke-linecap="round" stroke-linejoin="round" />
<path d="M 106.25 142.5 L 113.75 140.0 L 121.25 138.75 L 133.75 143.75 L 148.75 153.75 L 162.5 165.0 L 175.0 175.0 L 180.0 178.75 L 180.0 180.0 L 175.0 181.25 L 167.5 182.5 L 157.5 182.5 L 153.75 182.5 " stroke="black" fill="none" stroke-width="6.0" stroke-linecap="round" stroke-linejoin="round" />
<path d="M 98.75 186.25 L 98.75 187.5 L 96.25 188.75 L 93.75 191.25 L 92.5 192.5 L 93.75 192.5 L 106.25 186.25 L 123.75 173.75 L 137.5 161.25 L 141.25 155.0 L 133.75 157.5 L 131.25 160.0 " stroke="black" fill="none" stroke-width="6.0" stroke-linecap="round" stroke-linejoin="round" />
<path d="M 98.75 210.0 L 98.75 213.75 L 101.25 215.0 L 111.25 208.75 L 127.5 196.25 L 140.0 183.75 L 143.75 175.0 L 141.25 173.75 L 133.75 177.5 L 127.5 180.0 L 125.0 183.75 L 123.75 188.75 L 123.75 198.75 L 126.25 217.5 L 128.75 235.0 L 128.75 243.75 L 121.25 245.0 L 117.5 242.5 " stroke="black" fill="none" stroke-width="6.0" stroke-linecap="round" stroke-linejoin="round" />
<path d="M 103.75 212.5 L 103.75 213.75 L 103.75 218.75 L 105.0 231.25 L 108.75 243.75 L 116.25 247.5 L 122.5 243.75 L 125.0 240.0 " stroke="black" fill="none" stroke-width="6.0" stroke-linecap="round" stroke-linejoin="round" />
<path d="M 152.5 193.75 L 153.75 191.25 L 153.75 191.25 L 146.25 201.25 L 136.25 220.0 L 122.5 241.25 L 116.25 253.75 L 118.75 253.75 L 133.75 246.25 L 151.25 236.25 L 167.5 225.0 L 178.75 216.25 L 182.5 211.25 L 178.75 208.75 L 176.25 207.5 " stroke="black" fill="none" stroke-width="6.0" stroke-linecap="round" stroke-linejoin="round" />
<path d="M 191.25 127.5 L 191.25 127.5 L 191.25 125.0 L 191.25 123.75 L 191.25 125.0 L 192.5 140.0 L 193.75 165.0 L 193.75 186.25 L 195.0 192.5 L 196.25 190.0 " stroke="black" fill="none" stroke-width="6.0" stroke-linecap="round" stroke-linejoin="round" />
<path d="M 230.0 90.0 L 232.5 87.5 L 232.5 85.0 L 232.5 85.0 L 232.5 85.0 L 232.5 90.0 L 232.5 102.5 L 233.75 127.5 L 236.25 165.0 L 240.0 198.75 L 243.75 216.25 L 245.0 228.75 L 245.0 241.25 L 245.0 250.0 L 245.0 255.0 L 245.0 256.25 L 243.75 256.25 L 241.25 256.25 L 236.25 256.25 L 231.25 256.25 L 223.75 255.0 L 215.0 251.25 L 201.25 242.5 L 183.75 233.75 " stroke="black" fill="none" stroke-width="6.0" stroke-linecap="round" stroke-linejoin="round" />
</svg>