<svg xmlns="http://www.w3.org/2000/svg" width="300" height="300" viewBox="0 0 300 300">
<path d="M 85.0 152.5 L 83.75 152.5 L 80.0 156.25 L 85.0 156.25 L 97.5 153.75 L 113.75 147.5 L 132.5 137.5 L 142.5 130.0 L 141.25 128.75 " stroke="black" fill="none" stroke-width="6.0" stroke-linecap="round" stroke-linejoin="round" />
<path d="M 110.0 146.25 L 110.0 150.0 L 110.0 160.0 L 110.0 181.25 L 110.0 206.25 L 106.25 218.75 L 100.0 222.5 L 96.25 222.5 L 95.0 222.5 L 97.5 221.25 L 108.75 216.25 L 125.0 206.25 L 143.75 190.0 L 157.5 170.0 L 158.75 166.25 " stroke="black" fill="none" stroke-width="6.0" stroke-linecap="round" stroke-linejoin="round" />
<path d="M 155.0 146.25 L 152.5 150.0 L 152.5 151.25 L 162.5 151.25 L 183.75 145.0 L 206.25 135.0 L 221.25 128.75 L 226.25 131.25 L 223.75 148.75 L 212.5 177.5 L 202.5 206.25 L 195.0 220.0 L 185.0 222.5 L 182.5 222.5 " stroke="black" fill="none" stroke-width="6.0" stroke-linecap="round" stroke-linejoin="round" />
<path d="M 187.5 87.5 L 187.5 87.5 L 185.0 91.25 L 180.0 117.5 L 167.5 175.0 L 156.25 212.5 L 142.5 245.0 L 135.0 248.75 " stroke="black" fill="none" stroke-width="6.0" stroke-linecap="round" stroke-linejoin="round" />
</svg>