<svg xmlns="http://www.w3.org/2000/svg" width="300" height="300" viewBox="0 0 300 300">
<path d="M 125.0 82.5 L 125.0 83.75 L 120.0 91.25 L 115.0 111.25 L 100.0 141.25 L 86.25 165.0 L 76.25 176.25 L 71.25 172.5 L 71.25 168.75 " stroke="black" fill="none" stroke-width="6.0" stroke-linecap="round" stroke-linejoin="round" />
<path d="M 155.0 81.25 L 156.25 81.25 L 161.25 85.0 L 175.0 93.75 L 196.25 108.75 L 215.0 127.5 L 236.25 137.5 L 248.75 142.5 L 248.75 146.25 L 240.0 147.5 L 236.25 147.5 " stroke="black" fill="none" stroke-width="6.0" stroke-linecap="round" stroke-linejoin="round" />
<path d="M 132.5 163.75 L 128.75 165.0 L 123.75 165.0 L 122.5 165.0 L 127.5 165.0 L 145.0 162.5 L 166.25 160.0 L 192.5 160.0 L 211.25 168.75 L 215.0 183.75 L 208.75 200.0 L 196.25 216.25 L 183.75 230.0 L 168.75 240.0 L 157.5 242.5 L 153.75 237.5 " stroke="black" fill="none" stroke-width="6.0" stroke-linecap="round" stroke-linejoin="round" />
<path d="M 168.75 175.0 L 167.5 172.5 L 166.25 172.5 L 163.75 175.0 L 158.75 192.5 L 148.75 218.75 L 136.25 243.75 L 126.25 252.5 L 123.75 252.5 " stroke="black" fill="none" stroke-width="6.0" stroke-linecap="round" stroke-linejoin="round" />
</svg>