<svg xmlns="http://www.w3.org/2000/svg" width="300" height="300" viewBox="0 0 300 300">
<path d="M 66.25 93.75 L 65.0 95.0 L 61.25 96.25 L 65.0 97.5 L 81.25 97.5 L 103.75 92.5 L 128.75 82.5 L 145.0 73.75 L 143.75 71.25 L 141.25 71.25 " stroke="black" fill="none" stroke-width="6.0" stroke-linecap="round" stroke-linejoin="round" />
<path d="M 88.75 80.0 L 87.5 80.0 L 85.0 82.5 L 85.0 88.75 L 86.25 101.25 L 90.0 118.75 L 93.75 128.75 L 95.0 128.75 L 96.25 120.0 L 96.25 116.25 " stroke="black" fill="none" stroke-width="6.0" stroke-linecap="round" stroke-linejoin="round" />
<path d="M 118.75 71.25 L 118.75 71.25 L 118.75 72.5 L 116.25 81.25 L 106.25 107.5 L 96.25 126.25 L 92.5 131.25 " stroke="black" fill="none" stroke-width="6.0" stroke-linecap="round" stroke-linejoin="round" />
<path d="M 71.25 150.0 L 68.75 150.0 L 66.25 151.25 L 67.5 155.0 L 73.75 163.75 L 81.25 172.5 L 86.25 178.75 L 87.5 178.75 L 87.5 178.75 " stroke="black" fill="none" stroke-width="6.0" stroke-linecap="round" stroke-linejoin="round" />
<path d="M 75.0 160.0 L 73.75 160.0 L 73.75 157.5 L 86.25 151.25 L 105.0 145.0 L 123.75 141.25 L 135.0 140.0 L 133.75 145.0 L 121.25 155.0 L 107.5 165.0 L 93.75 175.0 L 82.5 182.5 L 80.0 185.0 L 85.0 182.5 L 96.25 175.0 L 108.75 165.0 L 122.5 155.0 L 131.25 148.75 L 131.25 147.5 " stroke="black" fill="none" stroke-width="6.0" stroke-linecap="round" stroke-linejoin="round" />
<path d="M 73.75 211.25 L 72.5 213.75 L 73.75 215.0 L 86.25 212.5 L 108.75 201.25 L 131.25 186.25 L 140.0 175.0 L 137.5 168.75 " stroke="black" fill="none" stroke-width="6.0" stroke-linecap="round" stroke-linejoin="round" />
<path d="M 98.75 137.5 L 97.5 137.5 L 96.25 137.5 L 97.5 140.0 L 103.75 162.5 L 106.25 206.25 L 105.0 242.5 L 101.25 251.25 L 93.75 252.5 L 90.0 251.25 " stroke="black" fill="none" stroke-width="6.0" stroke-linecap="round" stroke-linejoin="round" />
<path d="M 163.75 127.5 L 158.75 132.5 L 162.5 133.75 L 178.75 132.5 L 198.75 126.25 L 216.25 117.5 L 227.5 113.75 L 230.0 122.5 L 223.75 153.75 L 211.25 197.5 L 203.75 222.5 L 200.0 232.5 L 198.75 232.5 L 196.25 230.0 L 191.25 220.0 L 187.5 213.75 " stroke="black" fill="none" stroke-width="6.0" stroke-linecap="round" stroke-linejoin="round" />
<path d="M 188.75 85.0 L 187.5 87.5 L 183.75 100.0 L 180.0 133.75 L 168.75 176.25 L 155.0 206.25 L 141.25 221.25 " stroke="black" fill="none" stroke-width="6.0" stroke-linecap="round" stroke-linejoin="round" />
</svg>