<svg xmlns="http://www.w3.org/2000/svg" width="300" height="300" viewBox="0 0 300 300">
<path d="M 101.25 71.25 L 101.25 70.0 L 101.25 68.75 L 101.25 75.0 L 98.75 87.5 L 95.0 101.25 L 92.5 108.75 L 92.5 111.25 L 100.0 108.75 L 112.5 102.5 L 127.5 97.5 L 136.25 96.25 L 137.5 97.5 L 127.5 106.25 L 112.5 122.5 L 96.25 137.5 L 83.75 147.5 L 73.75 151.25 L 68.75 152.5 L 68.75 151.25 L 70.0 151.25 L 72.5 150.0 L 77.5 155.0 L 85.0 167.5 L 91.25 185.0 L 95.0 195.0 L 95.0 196.25 L 93.75 193.75 " stroke="black" fill="none" stroke-width="6.0" stroke-linecap="round" stroke-linejoin="round" />
<path d="M 81.25 168.75 L 75.0 167.5 L 72.5 167.5 L 81.25 163.75 L 98.75 158.75 L 123.75 152.5 L 145.0 148.75 L 152.5 148.75 L 148.75 157.5 L 133.75 171.25 L 116.25 185.0 L 100.0 196.25 L 92.5 202.5 L 95.0 202.5 L 107.5 195.0 L 122.5 182.5 L 135.0 170.0 L 140.0 160.0 L 137.5 157.5 L 133.75 157.5 " stroke="black" fill="none" stroke-width="6.0" stroke-linecap="round" stroke-linejoin="round" />
<path d="M 111.25 152.5 L 110.0 152.5 L 106.25 155.0 L 103.75 168.75 L 101.25 197.5 L 97.5 231.25 L 90.0 256.25 L 82.5 260.0 L 78.75 255.0 " stroke="black" fill="none" stroke-width="6.0" stroke-linecap="round" stroke-linejoin="round" />
<path d="M 125.0 181.25 L 125.0 192.5 L 128.75 207.5 L 136.25 227.5 L 150.0 243.75 L 172.5 247.5 L 200.0 247.5 L 220.0 247.5 L 233.75 247.5 L 241.25 247.5 L 242.5 247.5 L 236.25 240.0 L 227.5 223.75 L 216.25 201.25 " stroke="black" fill="none" stroke-width="6.0" stroke-linecap="round" stroke-linejoin="round" />
<path d="M 167.5 155.0 L 166.25 156.25 L 162.5 160.0 L 163.75 160.0 L 177.5 158.75 L 196.25 156.25 L 212.5 152.5 L 225.0 151.25 L 228.75 155.0 L 220.0 177.5 L 205.0 203.75 L 191.25 222.5 L 180.0 228.75 " stroke="black" fill="none" stroke-width="6.0" stroke-linecap="round" stroke-linejoin="round" />
<path d="M 197.5 111.25 L 197.5 110.0 L 197.5 106.25 L 197.5 106.25 L 193.75 125.0 L 183.75 167.5 L 168.75 213.75 L 157.5 236.25 " stroke="black" fill="none" stroke-width="6.0" stroke-linecap="round" stroke-linejoin="round" />
</svg>