<svg xmlns="http://www.w3.org/2000/svg" width="300" height="300" viewBox="0 0 300 300">
<path d="M 101.25 66.25 L 101.25 66.25 L 100.0 65.0 L 98.75 67.5 L 93.75 85.0 L 78.75 116.25 L 60.0 145.0 L 45.0 152.5 L 38.75 152.5 " stroke="black" fill="none" stroke-width="6.0" stroke-linecap="round" stroke-linejoin="round" />
<path d="M 93.75 78.75 L 96.25 78.75 L 103.75 80.0 L 118.75 90.0 L 140.0 102.5 L 156.25 113.75 L 165.0 122.5 L 161.25 127.5 " stroke="black" fill="none" stroke-width="6.0" stroke-linecap="round" stroke-linejoin="round" />
<path d="M 85.0 130.0 L 82.5 130.0 L 80.0 130.0 L 82.5 130.0 L 96.25 126.25 L 115.0 118.75 L 132.5 113.75 L 133.75 112.5 " stroke="black" fill="none" stroke-width="6.0" stroke-linecap="round" stroke-linejoin="round" />
<path d="M 68.75 161.25 L 66.25 163.75 L 66.25 167.5 L 72.5 178.75 L 81.25 191.25 L 87.5 197.5 L 88.75 196.25 L 86.25 188.75 L 83.75 180.0 L 78.75 173.75 L 76.25 167.5 L 75.0 162.5 L 80.0 157.5 L 91.25 155.0 L 101.25 155.0 L 105.0 158.75 L 103.75 168.75 L 96.25 182.5 L 90.0 191.25 L 86.25 193.75 L 88.75 188.75 L 93.75 178.75 " stroke="black" fill="none" stroke-width="6.0" stroke-linecap="round" stroke-linejoin="round" />
<path d="M 116.25 141.25 L 116.25 141.25 L 115.0 141.25 L 115.0 146.25 L 117.5 158.75 L 121.25 173.75 L 125.0 180.0 L 125.0 178.75 L 121.25 170.0 L 120.0 161.25 L 117.5 155.0 L 117.5 148.75 L 118.75 142.5 L 126.25 138.75 L 135.0 137.5 L 140.0 138.75 L 140.0 148.75 L 131.25 163.75 L 122.5 176.25 L 117.5 181.25 L 117.5 180.0 L 123.75 171.25 L 130.0 162.5 L 132.5 157.5 " stroke="black" fill="none" stroke-width="6.0" stroke-linecap="round" stroke-linejoin="round" />
<path d="M 97.5 188.75 L 93.75 195.0 L 90.0 208.75 L 85.0 230.0 L 82.5 247.5 L 81.25 251.25 L 80.0 247.5 L 81.25 238.75 L 85.0 225.0 L 88.75 213.75 L 91.25 205.0 L 93.75 202.5 L 97.5 208.75 L 105.0 221.25 L 116.25 233.75 L 127.5 238.75 L 131.25 237.5 L 132.5 235.0 " stroke="black" fill="none" stroke-width="6.0" stroke-linecap="round" stroke-linejoin="round" />
<path d="M 151.25 175.0 L 151.25 175.0 L 148.75 176.25 L 142.5 187.5 L 132.5 206.25 L 125.0 222.5 L 120.0 227.5 L 120.0 221.25 " stroke="black" fill="none" stroke-width="6.0" stroke-linecap="round" stroke-linejoin="round" />
<path d="M 132.5 205.0 L 132.5 205.0 L 133.75 205.0 L 135.0 205.0 L 141.25 210.0 L 152.5 218.75 L 168.75 223.75 L 182.5 223.75 " stroke="black" fill="none" stroke-width="6.0" stroke-linecap="round" stroke-linejoin="round" />
<path d="M 190.0 130.0 L 188.75 130.0 L 187.5 130.0 L 186.25 132.5 L 186.25 155.0 L 190.0 183.75 L 193.75 200.0 L 193.75 200.0 " stroke="black" fill="none" stroke-width="6.0" stroke-linecap="round" stroke-linejoin="round" />
<path d="M 231.25 88.75 L 231.25 87.5 L 231.25 86.25 L 231.25 86.25 L 231.25 87.5 L 230.0 111.25 L 230.0 156.25 L 230.0 201.25 L 232.5 221.25 L 233.75 235.0 L 233.75 242.5 L 233.75 243.75 L 233.75 243.75 L 231.25 242.5 L 226.25 238.75 L 212.5 230.0 L 195.0 218.75 L 177.5 208.75 " stroke="black" fill="none" stroke-width="6.0" stroke-linecap="round" stroke-linejoin="round" />
</svg>