<svg xmlns="http://www.w3.org/2000/svg" width="300" height="300" viewBox="0 0 300 300">
<path d="M 86.25 106.25 L 81.25 111.25 L 80.0 113.75 L 90.0 112.5 L 110.0 110.0 L 136.25 107.5 L 152.5 106.25 L 156.25 112.5 L 147.5 130.0 L 132.5 147.5 L 118.75 158.75 L 107.5 162.5 L 101.25 160.0 " stroke="black" fill="none" stroke-width="6.0" stroke-linecap="round" stroke-linejoin="round" />
<path d="M 111.25 118.75 L 110.0 118.75 L 107.5 120.0 L 103.75 132.5 L 97.5 158.75 L 93.75 182.5 " stroke="black" fill="none" stroke-width="6.0" stroke-linecap="round" stroke-linejoin="round" />
<path d="M 87.5 183.75 L 86.25 186.25 L 85.0 192.5 L 90.0 202.5 L 98.75 218.75 L 107.5 232.5 L 111.25 237.5 L 111.25 237.5 L 107.5 230.0 L 103.75 221.25 L 101.25 212.5 L 97.5 206.25 L 93.75 201.25 L 93.75 197.5 L 102.5 195.0 L 120.0 191.25 L 143.75 188.75 L 156.25 188.75 L 157.5 192.5 L 147.5 203.75 L 135.0 215.0 L 122.5 225.0 L 117.5 227.5 L 120.0 225.0 L 133.75 212.5 L 148.75 197.5 L 151.25 193.75 " stroke="black" fill="none" stroke-width="6.0" stroke-linecap="round" stroke-linejoin="round" />
<path d="M 166.25 142.5 L 166.25 143.75 L 163.75 147.5 L 171.25 147.5 L 180.0 147.5 L 210.0 142.5 L 227.5 141.25 L 236.25 146.25 L 236.25 170.0 L 226.25 203.75 L 217.5 227.5 L 211.25 238.75 L 206.25 240.0 L 200.0 235.0 L 196.25 222.5 L 191.25 206.25 " stroke="black" fill="none" stroke-width="6.0" stroke-linecap="round" stroke-linejoin="round" />
<path d="M 197.5 88.75 L 196.25 90.0 L 193.75 98.75 L 192.5 128.75 L 185.0 176.25 L 175.0 213.75 L 162.5 238.75 L 158.75 243.75 " stroke="black" fill="none" stroke-width="6.0" stroke-linecap="round" stroke-linejoin="round" />
</svg>