<svg xmlns="http://www.w3.org/2000/svg" width="300" height="300" viewBox="0 0 300 300">
<path d="M 93.75 101.25 L 85.0 103.75 L 82.5 105.0 L 83.75 106.25 L 96.25 107.5 L 116.25 106.25 L 136.25 102.5 L 147.5 101.25 L 148.75 102.5 L 132.5 128.75 L 110.0 157.5 L 91.25 182.5 L 81.25 195.0 L 80.0 195.0 L 83.75 190.0 L 93.75 177.5 L 106.25 165.0 L 120.0 156.25 L 133.75 153.75 L 140.0 162.5 L 138.75 182.5 L 126.25 203.75 L 111.25 217.5 L 98.75 222.5 L 92.5 222.5 " stroke="black" fill="none" stroke-width="6.0" stroke-linecap="round" stroke-linejoin="round" />
<path d="M 100.0 172.5 L 100.0 172.5 L 100.0 172.5 L 105.0 180.0 L 121.25 192.5 L 132.5 197.5 " stroke="black" fill="none" stroke-width="6.0" stroke-linecap="round" stroke-linejoin="round" />
<path d="M 185.0 112.5 L 181.25 115.0 L 180.0 125.0 L 181.25 143.75 L 185.0 163.75 L 188.75 172.5 L 188.75 172.5 " stroke="black" fill="none" stroke-width="6.0" stroke-linecap="round" stroke-linejoin="round" />
<path d="M 216.25 75.0 L 216.25 73.75 L 216.25 73.75 L 220.0 95.0 L 223.75 148.75 L 226.25 202.5 L 230.0 230.0 L 232.5 240.0 L 232.5 240.0 L 232.5 240.0 L 230.0 240.0 L 220.0 240.0 L 203.75 238.75 L 183.75 238.75 L 157.5 236.25 L 151.25 235.0 " stroke="black" fill="none" stroke-width="6.0" stroke-linecap="round" stroke-linejoin="round" />
</svg>