<svg xmlns="http://www.w3.org/2000/svg" width="300" height="300" viewBox="0 0 300 300">
<path d="M 88.75 137.5 L 88.75 137.5 L 87.5 137.5 L 92.5 136.25 L 123.75 127.5 L 165.0 112.5 L 195.0 102.5 L 206.25 96.25 L 206.25 95.0 L 198.75 95.0 " stroke="black" fill="none" stroke-width="6.0" stroke-linecap="round" stroke-linejoin="round" />
<path d="M 153.75 82.5 L 152.5 82.5 L 151.25 88.75 L 145.0 122.5 L 130.0 175.0 L 107.5 217.5 L 87.5 245.0 L 77.5 250.0 L 72.5 248.75 " stroke="black" fill="none" stroke-width="6.0" stroke-linecap="round" stroke-linejoin="round" />
<path d="M 126.25 180.0 L 131.25 186.25 L 138.75 205.0 L 147.5 232.5 L 152.5 251.25 L 155.0 256.25 L 155.0 256.25 L 153.75 252.5 " stroke="black" fill="none" stroke-width="6.0" stroke-linecap="round" stroke-linejoin="round" />
<path d="M 140.0 196.25 L 137.5 196.25 L 137.5 195.0 L 148.75 193.75 L 177.5 190.0 L 210.0 186.25 L 228.75 186.25 L 231.25 191.25 L 222.5 202.5 L 206.25 218.75 L 190.0 232.5 L 171.25 243.75 L 163.75 246.25 L 165.0 246.25 L 178.75 243.75 L 200.0 240.0 L 221.25 233.75 L 240.0 230.0 L 248.75 228.75 " stroke="black" fill="none" stroke-width="6.0" stroke-linecap="round" stroke-linejoin="round" />
</svg>