<svg xmlns="http://www.w3.org/2000/svg" width="300" height="300" viewBox="0 0 300 300">
<path d="M 97.5 95.0 L 93.75 96.25 L 92.5 96.25 L 98.75 96.25 L 117.5 95.0 L 138.75 95.0 L 151.25 97.5 L 152.5 102.5 L 143.75 111.25 L 121.25 127.5 L 101.25 138.75 L 85.0 147.5 L 78.75 151.25 L 82.5 150.0 L 96.25 143.75 L 113.75 136.25 L 133.75 128.75 L 150.0 122.5 L 153.75 122.5 L 146.25 133.75 L 131.25 150.0 L 113.75 166.25 L 98.75 176.25 L 90.0 178.75 L 85.0 172.5 L 83.75 167.5 " stroke="black" fill="none" stroke-width="6.0" stroke-linecap="round" stroke-linejoin="round" />
<path d="M 81.25 130.0 L 78.75 125.0 L 78.75 125.0 L 80.0 140.0 L 85.0 173.75 L 87.5 218.75 L 90.0 241.25 L 93.75 243.75 L 100.0 236.25 L 112.5 220.0 L 125.0 201.25 L 135.0 186.25 L 138.75 175.0 L 137.5 171.25 L 135.0 172.5 L 132.5 178.75 L 132.5 190.0 L 136.25 201.25 L 143.75 206.25 L 147.5 207.5 " stroke="black" fill="none" stroke-width="6.0" stroke-linecap="round" stroke-linejoin="round" />
<path d="M 167.5 100.0 L 165.0 100.0 L 166.25 100.0 L 181.25 96.25 L 203.75 95.0 L 228.75 97.5 L 243.75 107.5 L 242.5 122.5 L 226.25 140.0 L 210.0 150.0 L 198.75 155.0 L 191.25 155.0 L 188.75 148.75 L 188.75 138.75 L 188.75 127.5 L 190.0 116.25 L 190.0 107.5 L 190.0 105.0 L 191.25 117.5 L 191.25 155.0 L 191.25 208.75 L 191.25 253.75 L 191.25 271.25 L 191.25 278.75 L 187.5 281.25 L 183.75 280.0 " stroke="black" fill="none" stroke-width="6.0" stroke-linecap="round" stroke-linejoin="round" />
</svg>