<svg xmlns="http://www.w3.org/2000/svg" width="300" height="300" viewBox="0 0 300 300">
<path d="M 81.25 131.25 L 80.0 131.25 L 77.5 131.25 L 78.75 133.75 L 87.5 148.75 L 98.75 168.75 L 105.0 177.5 L 106.25 177.5 " stroke="black" fill="none" stroke-width="6.0" stroke-linecap="round" stroke-linejoin="round" />
<path d="M 88.75 138.75 L 87.5 137.5 L 83.75 133.75 L 86.25 130.0 L 105.0 122.5 L 140.0 115.0 L 180.0 110.0 L 203.75 108.75 L 203.75 115.0 L 191.25 130.0 L 170.0 143.75 L 148.75 155.0 L 126.25 165.0 L 112.5 171.25 L 115.0 171.25 L 131.25 163.75 L 152.5 151.25 L 172.5 137.5 L 186.25 125.0 L 186.25 118.75 L 172.5 115.0 L 160.0 106.25 L 147.5 95.0 L 137.5 83.75 L 131.25 72.5 L 132.5 72.5 L 146.25 130.0 L 148.75 182.5 L 141.25 223.75 L 123.75 250.0 L 102.5 261.25 L 87.5 262.5 L 75.0 253.75 L 67.5 237.5 L 65.0 227.5 " stroke="black" fill="none" stroke-width="6.0" stroke-linecap="round" stroke-linejoin="round" />
<path d="M 83.75 192.5 L 85.0 192.5 L 86.25 192.5 L 97.5 197.5 L 125.0 213.75 L 160.0 233.75 L 193.75 246.25 L 215.0 252.5 L 236.25 257.5 L 247.5 261.25 " stroke="black" fill="none" stroke-width="6.0" stroke-linecap="round" stroke-linejoin="round" />
</svg>