<svg xmlns="http://www.w3.org/2000/svg" width="300" height="300" viewBox="0 0 300 300">
<path d="M 58.75 136.25 L 58.75 136.25 L 61.25 136.25 L 73.75 130.0 L 96.25 115.0 L 120.0 98.75 L 132.5 90.0 L 132.5 87.5 L 120.0 91.25 L 106.25 97.5 L 95.0 106.25 L 86.25 122.5 L 80.0 147.5 L 83.75 178.75 L 93.75 206.25 L 105.0 210.0 L 118.75 205.0 L 128.75 195.0 L 130.0 186.25 L 125.0 181.25 L 112.5 180.0 L 95.0 182.5 L 78.75 187.5 L 67.5 192.5 L 66.25 192.5 L 83.75 182.5 L 111.25 160.0 L 143.75 136.25 L 165.0 120.0 L 177.5 110.0 L 181.25 106.25 L 185.0 103.75 L 193.75 97.5 L 205.0 95.0 L 215.0 95.0 L 223.75 106.25 L 223.75 127.5 L 215.0 148.75 L 201.25 165.0 L 188.75 175.0 L 178.75 177.5 L 176.25 172.5 L 177.5 158.75 L 178.75 145.0 L 180.0 132.5 L 180.0 122.5 L 177.5 121.25 L 176.25 128.75 L 176.25 160.0 L 180.0 208.75 L 181.25 258.75 L 181.25 281.25 L 178.75 290.0 L 175.0 292.5 L 168.75 290.0 L 160.0 280.0 " stroke="black" fill="none" stroke-width="6.0" stroke-linecap="round" stroke-linejoin="round" />
</svg>