<svg xmlns="http://www.w3.org/2000/svg" width="300" height="300" viewBox="0 0 300 300">
<path d="M 85.0 80.0 L 85.0 78.75 L 81.25 71.25 L 80.0 65.0 L 80.0 60.0 L 80.0 58.75 L 81.25 65.0 L 82.5 85.0 L 82.5 110.0 L 82.5 133.75 L 82.5 150.0 L 82.5 156.25 L 82.5 157.5 L 85.0 157.5 L 87.5 158.75 L 91.25 158.75 L 100.0 158.75 L 115.0 156.25 L 133.75 153.75 L 152.5 151.25 L 171.25 148.75 L 188.75 143.75 L 202.5 140.0 L 208.75 137.5 L 212.5 136.25 L 215.0 136.25 L 216.25 136.25 L 216.25 136.25 L 216.25 136.25 L 216.25 136.25 L 216.25 136.25 L 218.75 142.5 L 221.25 158.75 L 223.75 187.5 L 226.25 207.5 L 227.5 217.5 L 227.5 217.5 L 227.5 216.25 L 227.5 215.0 L 227.5 215.0 L 227.5 212.5 L 228.75 208.75 L 228.75 202.5 L 228.75 200.0 " stroke="black" fill="none" stroke-width="6.0" stroke-linecap="round" stroke-linejoin="round" />
<path d="M 227.5 63.75 L 222.5 62.5 L 215.0 61.25 L 198.75 58.75 L 187.5 57.5 L 175.0 58.75 L 161.25 61.25 L 150.0 63.75 L 143.75 66.25 L 141.25 67.5 L 141.25 67.5 L 142.5 67.5 L 143.75 71.25 L 145.0 78.75 L 147.5 92.5 L 148.75 116.25 L 151.25 147.5 L 152.5 175.0 L 153.75 197.5 L 153.75 210.0 L 153.75 216.25 L 153.75 221.25 L 155.0 222.5 L 155.0 222.5 L 155.0 222.5 L 155.0 222.5 L 155.0 221.25 L 152.5 220.0 L 148.75 218.75 L 143.75 216.25 L 133.75 213.75 L 118.75 212.5 L 102.5 213.75 L 87.5 216.25 L 76.25 220.0 L 71.25 221.25 L 70.0 222.5 L 70.0 222.5 L 71.25 222.5 L 75.0 220.0 L 78.75 213.75 " stroke="black" fill="none" stroke-width="6.0" stroke-linecap="round" stroke-linejoin="round" />
</svg>