<svg xmlns="http://www.w3.org/2000/svg" width="300" height="300" viewBox="0 0 300 300">
<path d="M 91.25 125.0 L 85.0 126.25 L 82.5 126.25 L 87.5 125.0 L 105.0 120.0 L 135.0 111.25 L 168.75 100.0 L 191.25 90.0 L 195.0 87.5 L 191.25 87.5 L 180.0 90.0 L 163.75 93.75 L 160.0 95.0 " stroke="black" fill="none" stroke-width="6.0" stroke-linecap="round" stroke-linejoin="round" />
<path d="M 98.75 125.0 L 96.25 127.5 L 96.25 128.75 L 96.25 137.5 L 97.5 161.25 L 98.75 195.0 L 98.75 213.75 L 102.5 220.0 L 107.5 223.75 L 112.5 226.25 L 118.75 227.5 L 128.75 227.5 L 146.25 226.25 L 166.25 221.25 L 188.75 216.25 L 207.5 215.0 L 215.0 213.75 L 216.25 212.5 L 213.75 211.25 L 208.75 208.75 " stroke="black" fill="none" stroke-width="6.0" stroke-linecap="round" stroke-linejoin="round" />
<path d="M 146.25 117.5 L 146.25 117.5 L 143.75 120.0 L 142.5 126.25 L 140.0 145.0 L 133.75 167.5 L 122.5 185.0 L 111.25 190.0 L 106.25 188.75 " stroke="black" fill="none" stroke-width="6.0" stroke-linecap="round" stroke-linejoin="round" />
<path d="M 161.25 113.75 L 162.5 108.75 L 163.75 107.5 L 163.75 107.5 L 163.75 118.75 L 161.25 141.25 L 160.0 163.75 L 165.0 180.0 L 181.25 187.5 L 201.25 188.75 L 215.0 187.5 L 223.75 186.25 L 227.5 183.75 L 227.5 183.75 L 222.5 182.5 L 216.25 182.5 " stroke="black" fill="none" stroke-width="6.0" stroke-linecap="round" stroke-linejoin="round" />
</svg>