<svg xmlns="http://www.w3.org/2000/svg" width="300" height="300" viewBox="0 0 300 300">
<path d="M 113.75 100.0 L 111.25 101.25 L 112.5 103.75 L 123.75 103.75 L 143.75 100.0 L 168.75 88.75 L 190.0 75.0 L 197.5 67.5 L 196.25 66.25 L 188.75 68.75 L 177.5 76.25 " stroke="black" fill="none" stroke-width="6.0" stroke-linecap="round" stroke-linejoin="round" />
<path d="M 82.5 177.5 L 80.0 177.5 L 77.5 178.75 L 77.5 180.0 L 86.25 180.0 L 106.25 177.5 L 137.5 170.0 L 177.5 160.0 L 212.5 153.75 L 231.25 150.0 L 237.5 148.75 L 237.5 148.75 L 230.0 147.5 L 216.25 146.25 L 213.75 145.0 " stroke="black" fill="none" stroke-width="6.0" stroke-linecap="round" stroke-linejoin="round" />
<path d="M 166.25 101.25 L 166.25 100.0 L 166.25 100.0 L 166.25 98.75 L 166.25 100.0 L 168.75 111.25 L 172.5 145.0 L 173.75 200.0 L 170.0 247.5 L 167.5 268.75 L 167.5 273.75 L 166.25 277.5 L 165.0 275.0 L 161.25 265.0 L 157.5 258.75 " stroke="black" fill="none" stroke-width="6.0" stroke-linecap="round" stroke-linejoin="round" />
</svg>