<svg xmlns="http://www.w3.org/2000/svg" width="300" height="300" viewBox="0 0 300 300">
<path d="M 66.25 142.5 L 61.25 142.5 L 57.5 142.5 L 57.5 143.75 L 65.0 145.0 L 83.75 146.25 L 112.5 146.25 L 152.5 143.75 L 192.5 140.0 L 223.75 137.5 L 242.5 133.75 L 248.75 133.75 L 248.75 132.5 L 240.0 132.5 L 232.5 132.5 " stroke="black" fill="none" stroke-width="6.0" stroke-linecap="round" stroke-linejoin="round" />
<path d="M 106.25 95.0 L 106.25 95.0 L 106.25 95.0 L 106.25 95.0 L 106.25 96.25 L 111.25 112.5 L 116.25 146.25 L 113.75 186.25 L 102.5 211.25 L 93.75 222.5 L 87.5 226.25 L 86.25 223.75 " stroke="black" fill="none" stroke-width="6.0" stroke-linecap="round" stroke-linejoin="round" />
<path d="M 165.0 97.5 L 165.0 97.5 L 163.75 96.25 L 163.75 97.5 L 163.75 118.75 L 165.0 161.25 L 165.0 202.5 L 165.0 220.0 L 165.0 230.0 L 163.75 225.0 L 163.75 222.5 " stroke="black" fill="none" stroke-width="6.0" stroke-linecap="round" stroke-linejoin="round" />
<path d="M 213.75 77.5 L 213.75 76.25 L 213.75 72.5 L 213.75 72.5 L 215.0 83.75 L 215.0 122.5 L 215.0 178.75 L 217.5 226.25 L 218.75 248.75 L 220.0 260.0 L 220.0 265.0 L 213.75 265.0 L 208.75 263.75 " stroke="black" fill="none" stroke-width="6.0" stroke-linecap="round" stroke-linejoin="round" />
</svg>