<svg xmlns="http://www.w3.org/2000/svg" width="300" height="300" viewBox="0 0 300 300">
<path d="M 100.0 125.0 L 96.25 122.5 L 96.25 122.5 L 96.25 136.25 L 102.5 173.75 L 110.0 208.75 L 115.0 216.25 L 118.75 213.75 L 117.5 201.25 " stroke="black" fill="none" stroke-width="6.0" stroke-linecap="round" stroke-linejoin="round" />
<path d="M 101.25 131.25 L 100.0 130.0 L 100.0 126.25 L 113.75 118.75 L 145.0 108.75 L 177.5 102.5 L 202.5 103.75 L 212.5 120.0 L 213.75 148.75 L 211.25 181.25 L 208.75 212.5 L 208.75 235.0 L 210.0 241.25 L 211.25 241.25 L 211.25 238.75 L 207.5 230.0 L 200.0 217.5 L 186.25 206.25 L 178.75 201.25 " stroke="black" fill="none" stroke-width="6.0" stroke-linecap="round" stroke-linejoin="round" />
<path d="M 121.25 226.25 L 117.5 227.5 L 117.5 228.75 L 130.0 227.5 L 153.75 221.25 L 182.5 215.0 L 203.75 210.0 " stroke="black" fill="none" stroke-width="6.0" stroke-linecap="round" stroke-linejoin="round" />
</svg>