<svg xmlns="http://www.w3.org/2000/svg" width="300" height="300" viewBox="0 0 300 300">
<path d="M 102.5 115.0 L 101.25 116.25 L 93.75 120.0 L 91.25 121.25 L 96.25 121.25 L 112.5 117.5 L 138.75 108.75 L 166.25 96.25 L 187.5 83.75 L 191.25 80.0 L 185.0 78.75 L 173.75 77.5 L 161.25 78.75 L 151.25 80.0 L 142.5 81.25 L 137.5 82.5 L 137.5 83.75 L 140.0 83.75 L 145.0 90.0 L 150.0 101.25 L 152.5 122.5 L 151.25 143.75 L 146.25 157.5 L 136.25 162.5 " stroke="black" fill="none" stroke-width="6.0" stroke-linecap="round" stroke-linejoin="round" />
<path d="M 96.25 188.75 L 93.75 187.5 L 91.25 186.25 L 90.0 185.0 L 93.75 187.5 L 105.0 201.25 L 116.25 221.25 L 125.0 237.5 L 126.25 242.5 L 121.25 238.75 L 118.75 231.25 " stroke="black" fill="none" stroke-width="6.0" stroke-linecap="round" stroke-linejoin="round" />
<path d="M 106.25 197.5 L 101.25 193.75 L 96.25 192.5 L 96.25 191.25 L 107.5 188.75 L 131.25 182.5 L 160.0 173.75 L 187.5 170.0 L 202.5 171.25 L 203.75 180.0 L 197.5 191.25 L 178.75 210.0 L 158.75 223.75 L 140.0 237.5 L 128.75 246.25 L 128.75 247.5 L 138.75 245.0 L 153.75 240.0 L 171.25 233.75 L 190.0 226.25 L 201.25 220.0 L 202.5 216.25 " stroke="black" fill="none" stroke-width="6.0" stroke-linecap="round" stroke-linejoin="round" />
</svg>