<svg xmlns="http://www.w3.org/2000/svg" width="300" height="300" viewBox="0 0 300 300">
<path d="M 102.5 93.75 L 102.5 95.0 L 103.75 95.0 L 115.0 95.0 L 141.25 92.5 L 162.5 86.25 L 172.5 81.25 L 168.75 81.25 " stroke="black" fill="none" stroke-width="6.0" stroke-linecap="round" stroke-linejoin="round" />
<path d="M 77.5 157.5 L 76.25 158.75 L 75.0 160.0 L 107.5 158.75 L 151.25 152.5 L 190.0 146.25 L 210.0 140.0 L 211.25 136.25 L 208.75 136.25 " stroke="black" fill="none" stroke-width="6.0" stroke-linecap="round" stroke-linejoin="round" />
<path d="M 118.75 118.75 L 118.75 118.75 L 118.75 120.0 L 122.5 135.0 L 125.0 171.25 L 116.25 207.5 L 105.0 220.0 L 97.5 220.0 L 96.25 213.75 " stroke="black" fill="none" stroke-width="6.0" stroke-linecap="round" stroke-linejoin="round" />
<path d="M 171.25 107.5 L 172.5 110.0 L 177.5 131.25 L 180.0 181.25 L 183.75 221.25 L 185.0 250.0 L 182.5 267.5 " stroke="black" fill="none" stroke-width="6.0" stroke-linecap="round" stroke-linejoin="round" />
</svg>