<svg xmlns="http://www.w3.org/2000/svg" width="300" height="300" viewBox="0 0 300 300">
<path d="M 107.5 83.75 L 107.5 86.25 L 110.0 88.75 L 130.0 92.5 L 162.5 91.25 L 200.0 83.75 L 220.0 76.25 L 221.25 76.25 L 208.75 83.75 L 205.0 85.0 " stroke="black" fill="none" stroke-width="6.0" stroke-linecap="round" stroke-linejoin="round" />
<path d="M 92.5 148.75 L 92.5 148.75 L 90.0 151.25 L 91.25 162.5 L 98.75 190.0 L 107.5 212.5 L 112.5 221.25 L 112.5 218.75 L 105.0 208.75 L 98.75 200.0 L 92.5 193.75 L 87.5 185.0 L 87.5 176.25 L 100.0 167.5 L 127.5 160.0 L 151.25 160.0 L 158.75 166.25 L 152.5 180.0 L 138.75 195.0 L 122.5 207.5 L 113.75 211.25 L 120.0 203.75 L 140.0 185.0 L 158.75 160.0 L 162.5 152.5 " stroke="black" fill="none" stroke-width="6.0" stroke-linecap="round" stroke-linejoin="round" />
<path d="M 193.75 105.0 L 193.75 105.0 L 190.0 103.75 L 188.75 103.75 L 190.0 118.75 L 191.25 166.25 L 193.75 221.25 L 192.5 253.75 L 190.0 265.0 L 187.5 267.5 L 182.5 266.25 L 170.0 261.25 L 152.5 255.0 L 131.25 247.5 L 101.25 243.75 " stroke="black" fill="none" stroke-width="6.0" stroke-linecap="round" stroke-linejoin="round" />
</svg>