<svg xmlns="http://www.w3.org/2000/svg" width="300" height="300" viewBox="0 0 300 300">
<path d="M 118.75 117.5 L 111.25 132.5 L 101.25 155.0 L 88.75 188.75 L 76.25 210.0 L 70.0 211.25 L 71.25 201.25 L 72.5 197.5 " stroke="black" fill="none" stroke-width="6.0" stroke-linecap="round" stroke-linejoin="round" />
<path d="M 111.25 147.5 L 111.25 151.25 L 111.25 167.5 L 111.25 201.25 L 110.0 236.25 L 108.75 252.5 L 106.25 250.0 " stroke="black" fill="none" stroke-width="6.0" stroke-linecap="round" stroke-linejoin="round" />
<path d="M 191.25 105.0 L 191.25 106.25 L 191.25 115.0 L 186.25 133.75 L 167.5 162.5 L 148.75 187.5 L 136.25 195.0 L 126.25 195.0 " stroke="black" fill="none" stroke-width="6.0" stroke-linecap="round" stroke-linejoin="round" />
<path d="M 146.25 126.25 L 146.25 131.25 L 146.25 148.75 L 151.25 185.0 L 161.25 212.5 L 177.5 223.75 L 197.5 228.75 L 215.0 228.75 L 230.0 230.0 L 240.0 231.25 L 240.0 232.5 L 240.0 232.5 L 240.0 228.75 L 240.0 215.0 L 242.5 188.75 L 242.5 151.25 " stroke="black" fill="none" stroke-width="6.0" stroke-linecap="round" stroke-linejoin="round" />
</svg>