<svg xmlns="http://www.w3.org/2000/svg" width="300" height="300" viewBox="0 0 300 300">
<path d="M 80.0 145.0 L 78.75 146.25 L 70.0 147.5 L 65.0 150.0 L 63.75 150.0 L 75.0 151.25 L 96.25 151.25 L 130.0 148.75 L 175.0 142.5 L 217.5 136.25 L 248.75 132.5 L 261.25 130.0 L 262.5 130.0 L 256.25 130.0 L 241.25 130.0 L 237.5 130.0 " stroke="black" fill="none" stroke-width="6.0" stroke-linecap="round" stroke-linejoin="round" />
<path d="M 127.5 85.0 L 125.0 85.0 L 123.75 85.0 L 123.75 90.0 L 132.5 118.75 L 138.75 165.0 L 136.25 208.75 L 127.5 236.25 L 117.5 252.5 L 107.5 255.0 L 106.25 252.5 " stroke="black" fill="none" stroke-width="6.0" stroke-linecap="round" stroke-linejoin="round" />
<path d="M 196.25 83.75 L 193.75 82.5 L 191.25 81.25 L 191.25 85.0 L 191.25 103.75 L 195.0 148.75 L 196.25 200.0 L 196.25 233.75 L 193.75 256.25 L 190.0 262.5 " stroke="black" fill="none" stroke-width="6.0" stroke-linecap="round" stroke-linejoin="round" />
</svg>