<svg xmlns="http://www.w3.org/2000/svg" width="300" height="300" viewBox="0 0 300 300">
<path d="M 108.75 90.0 L 106.25 91.25 L 98.75 92.5 L 98.75 93.75 L 106.25 95.0 L 121.25 95.0 L 137.5 95.0 L 150.0 92.5 L 155.0 90.0 L 153.75 88.75 L 147.5 90.0 L 138.75 100.0 L 127.5 121.25 L 116.25 161.25 L 106.25 210.0 L 101.25 236.25 L 101.25 242.5 L 103.75 242.5 L 106.25 236.25 L 107.5 233.75 " stroke="black" fill="none" stroke-width="6.0" stroke-linecap="round" stroke-linejoin="round" />
<path d="M 125.0 170.0 L 122.5 168.75 L 123.75 163.75 L 137.5 156.25 L 155.0 147.5 L 171.25 141.25 L 177.5 141.25 L 176.25 151.25 L 166.25 177.5 L 152.5 208.75 L 141.25 232.5 L 132.5 242.5 L 127.5 243.75 L 126.25 241.25 " stroke="black" fill="none" stroke-width="6.0" stroke-linecap="round" stroke-linejoin="round" />
<path d="M 132.5 180.0 L 131.25 178.75 L 128.75 178.75 L 127.5 177.5 L 127.5 177.5 L 131.25 181.25 L 138.75 188.75 L 146.25 200.0 L 156.25 213.75 L 170.0 230.0 L 187.5 243.75 L 202.5 248.75 L 213.75 251.25 L 217.5 253.75 " stroke="black" fill="none" stroke-width="6.0" stroke-linecap="round" stroke-linejoin="round" />
</svg>