<svg xmlns="http://www.w3.org/2000/svg" width="300" height="300" viewBox="0 0 300 300">
<path d="M 93.75 83.75 L 92.5 85.0 L 91.25 86.25 L 102.5 85.0 L 128.75 78.75 L 158.75 71.25 L 178.75 65.0 L 183.75 61.25 L 173.75 61.25 L 161.25 66.25 " stroke="black" fill="none" stroke-width="6.0" stroke-linecap="round" stroke-linejoin="round" />
<path d="M 80.0 95.0 L 78.75 95.0 L 76.25 97.5 L 75.0 100.0 L 80.0 113.75 L 85.0 152.5 L 81.25 203.75 L 66.25 238.75 L 51.25 252.5 L 38.75 256.25 L 36.25 255.0 " stroke="black" fill="none" stroke-width="6.0" stroke-linecap="round" stroke-linejoin="round" />
<path d="M 111.25 111.25 L 111.25 112.5 L 110.0 115.0 L 112.5 122.5 L 117.5 133.75 L 120.0 143.75 L 120.0 146.25 " stroke="black" fill="none" stroke-width="6.0" stroke-linecap="round" stroke-linejoin="round" />
<path d="M 145.0 102.5 L 145.0 105.0 L 145.0 108.75 L 145.0 118.75 L 137.5 133.75 L 126.25 147.5 L 112.5 157.5 L 98.75 163.75 L 95.0 166.25 L 96.25 167.5 L 106.25 167.5 L 122.5 161.25 L 137.5 155.0 L 148.75 148.75 L 151.25 146.25 L 146.25 148.75 L 133.75 160.0 L 118.75 177.5 L 102.5 198.75 L 95.0 213.75 L 95.0 217.5 L 107.5 217.5 L 125.0 211.25 L 142.5 202.5 L 157.5 193.75 L 166.25 187.5 L 167.5 183.75 L 162.5 183.75 L 157.5 183.75 L 153.75 181.25 L 152.5 180.0 L 152.5 178.75 L 152.5 178.75 L 157.5 180.0 L 162.5 185.0 L 167.5 191.25 L 168.75 197.5 L 166.25 200.0 " stroke="black" fill="none" stroke-width="6.0" stroke-linecap="round" stroke-linejoin="round" />
<path d="M 140.0 160.0 L 140.0 160.0 L 140.0 165.0 L 143.75 183.75 L 143.75 212.5 L 131.25 238.75 " stroke="black" fill="none" stroke-width="6.0" stroke-linecap="round" stroke-linejoin="round" />
<path d="M 193.75 111.25 L 192.5 111.25 L 191.25 111.25 L 190.0 111.25 L 188.75 121.25 L 183.75 140.0 L 181.25 153.75 L 181.25 157.5 L 185.0 156.25 L 195.0 151.25 L 207.5 145.0 L 220.0 140.0 L 231.25 136.25 L 236.25 136.25 L 236.25 138.75 L 226.25 148.75 L 213.75 162.5 L 202.5 172.5 " stroke="black" fill="none" stroke-width="6.0" stroke-linecap="round" stroke-linejoin="round" />
<path d="M 198.75 150.0 L 197.5 151.25 L 193.75 161.25 L 191.25 181.25 L 185.0 208.75 L 176.25 235.0 L 165.0 248.75 L 153.75 252.5 L 151.25 251.25 " stroke="black" fill="none" stroke-width="6.0" stroke-linecap="round" stroke-linejoin="round" />
<path d="M 191.25 190.0 L 193.75 193.75 L 200.0 202.5 L 215.0 217.5 L 233.75 233.75 L 255.0 243.75 L 267.5 247.5 L 271.25 252.5 " stroke="black" fill="none" stroke-width="6.0" stroke-linecap="round" stroke-linejoin="round" />
</svg>