<svg xmlns="http://www.w3.org/2000/svg" width="300" height="300" viewBox="0 0 300 300">
<path d="M 125.0 75.0 L 123.75 75.0 L 122.5 75.0 L 122.5 75.0 L 130.0 75.0 L 145.0 73.75 L 160.0 72.5 L 166.25 71.25 L 165.0 72.5 " stroke="black" fill="none" stroke-width="6.0" stroke-linecap="round" stroke-linejoin="round" />
<path d="M 108.75 102.5 L 106.25 107.5 L 103.75 122.5 L 106.25 145.0 L 110.0 162.5 L 113.75 168.75 L 115.0 171.25 L 113.75 168.75 " stroke="black" fill="none" stroke-width="6.0" stroke-linecap="round" stroke-linejoin="round" />
<path d="M 103.75 120.0 L 103.75 120.0 L 105.0 117.5 L 113.75 113.75 L 140.0 106.25 L 167.5 101.25 L 187.5 102.5 L 193.75 110.0 L 190.0 122.5 L 178.75 136.25 L 165.0 146.25 L 152.5 150.0 L 150.0 150.0 " stroke="black" fill="none" stroke-width="6.0" stroke-linecap="round" stroke-linejoin="round" />
<path d="M 115.0 142.5 L 115.0 142.5 L 113.75 142.5 L 120.0 142.5 L 141.25 135.0 L 165.0 125.0 L 180.0 117.5 L 176.25 118.75 L 172.5 120.0 " stroke="black" fill="none" stroke-width="6.0" stroke-linecap="round" stroke-linejoin="round" />
<path d="M 120.0 161.25 L 117.5 163.75 L 111.25 171.25 L 116.25 170.0 L 135.0 163.75 L 155.0 150.0 L 172.5 136.25 L 177.5 128.75 L 172.5 127.5 " stroke="black" fill="none" stroke-width="6.0" stroke-linecap="round" stroke-linejoin="round" />
<path d="M 150.0 110.0 L 150.0 110.0 L 150.0 110.0 L 148.75 117.5 L 147.5 145.0 L 141.25 176.25 L 133.75 197.5 L 120.0 203.75 L 112.5 205.0 " stroke="black" fill="none" stroke-width="6.0" stroke-linecap="round" stroke-linejoin="round" />
<path d="M 86.25 215.0 L 85.0 216.25 L 82.5 222.5 L 87.5 225.0 L 100.0 225.0 L 137.5 217.5 L 171.25 206.25 L 198.75 197.5 L 208.75 193.75 L 208.75 192.5 L 201.25 193.75 L 197.5 193.75 " stroke="black" fill="none" stroke-width="6.0" stroke-linecap="round" stroke-linejoin="round" />
<path d="M 172.5 162.5 L 172.5 162.5 L 172.5 162.5 L 172.5 167.5 L 175.0 196.25 L 177.5 235.0 L 176.25 261.25 L 170.0 273.75 L 156.25 282.5 " stroke="black" fill="none" stroke-width="6.0" stroke-linecap="round" stroke-linejoin="round" />
</svg>