<svg xmlns="http://www.w3.org/2000/svg" width="300" height="300" viewBox="0 0 300 300">
<path d="M 117.5 83.75 L 108.75 86.25 L 106.25 87.5 L 115.0 87.5 L 136.25 82.5 L 165.0 72.5 L 196.25 57.5 L 207.5 48.75 L 205.0 47.5 L 198.75 48.75 " stroke="black" fill="none" stroke-width="6.0" stroke-linecap="round" stroke-linejoin="round" />
<path d="M 143.75 75.0 L 140.0 80.0 L 136.25 86.25 L 136.25 100.0 L 137.5 117.5 L 141.25 130.0 L 143.75 128.75 " stroke="black" fill="none" stroke-width="6.0" stroke-linecap="round" stroke-linejoin="round" />
<path d="M 163.75 75.0 L 163.75 76.25 L 163.75 83.75 L 161.25 98.75 L 158.75 115.0 L 157.5 117.5 " stroke="black" fill="none" stroke-width="6.0" stroke-linecap="round" stroke-linejoin="round" />
<path d="M 187.5 81.25 L 187.5 80.0 L 186.25 83.75 L 177.5 100.0 L 157.5 132.5 L 146.25 148.75 " stroke="black" fill="none" stroke-width="6.0" stroke-linecap="round" stroke-linejoin="round" />
<path d="M 96.25 132.5 L 96.25 131.25 L 92.5 131.25 L 92.5 130.0 L 96.25 142.5 L 100.0 170.0 L 102.5 198.75 L 103.75 206.25 L 102.5 206.25 " stroke="black" fill="none" stroke-width="6.0" stroke-linecap="round" stroke-linejoin="round" />
<path d="M 106.25 160.0 L 106.25 160.0 L 106.25 160.0 L 111.25 160.0 L 136.25 158.75 L 175.0 150.0 L 205.0 141.25 L 213.75 137.5 L 211.25 138.75 L 198.75 150.0 L 186.25 160.0 " stroke="black" fill="none" stroke-width="6.0" stroke-linecap="round" stroke-linejoin="round" />
<path d="M 145.0 193.75 L 136.25 201.25 L 133.75 202.5 L 142.5 201.25 L 158.75 197.5 L 178.75 191.25 L 191.25 188.75 L 193.75 192.5 L 177.5 211.25 L 156.25 231.25 L 137.5 245.0 L 120.0 250.0 L 112.5 247.5 L 112.5 245.0 " stroke="black" fill="none" stroke-width="6.0" stroke-linecap="round" stroke-linejoin="round" />
<path d="M 125.0 206.25 L 125.0 206.25 L 125.0 206.25 L 126.25 206.25 L 136.25 218.75 L 155.0 243.75 L 175.0 258.75 L 197.5 262.5 L 213.75 261.25 L 227.5 257.5 L 232.5 256.25 " stroke="black" fill="none" stroke-width="6.0" stroke-linecap="round" stroke-linejoin="round" />
</svg>