<svg xmlns="http://www.w3.org/2000/svg" width="300" height="300" viewBox="0 0 300 300">
<path d="M 88.75 88.75 L 88.75 90.0 L 88.75 91.25 L 98.75 90.0 L 127.5 85.0 L 161.25 78.75 L 188.75 72.5 L 197.5 67.5 L 197.5 66.25 L 187.5 65.0 " stroke="black" fill="none" stroke-width="6.0" stroke-linecap="round" stroke-linejoin="round" />
<path d="M 87.5 96.25 L 87.5 96.25 L 86.25 96.25 L 86.25 101.25 L 88.75 133.75 L 87.5 192.5 L 77.5 238.75 L 63.75 257.5 L 48.75 262.5 " stroke="black" fill="none" stroke-width="6.0" stroke-linecap="round" stroke-linejoin="round" />
<path d="M 116.25 113.75 L 115.0 117.5 L 113.75 126.25 L 113.75 140.0 L 116.25 152.5 L 117.5 157.5 L 117.5 157.5 " stroke="black" fill="none" stroke-width="6.0" stroke-linecap="round" stroke-linejoin="round" />
<path d="M 115.0 120.0 L 115.0 118.75 L 115.0 116.25 L 122.5 113.75 L 137.5 113.75 L 152.5 116.25 L 161.25 122.5 L 160.0 132.5 L 148.75 146.25 L 136.25 155.0 L 122.5 160.0 L 111.25 161.25 L 108.75 160.0 " stroke="black" fill="none" stroke-width="6.0" stroke-linecap="round" stroke-linejoin="round" />
<path d="M 113.75 143.75 L 113.75 143.75 L 113.75 142.5 L 115.0 141.25 L 123.75 138.75 L 138.75 133.75 L 152.5 128.75 L 155.0 127.5 L 155.0 127.5 " stroke="black" fill="none" stroke-width="6.0" stroke-linecap="round" stroke-linejoin="round" />
<path d="M 113.75 157.5 L 113.75 158.75 L 116.25 158.75 L 128.75 155.0 L 143.75 148.75 L 151.25 145.0 " stroke="black" fill="none" stroke-width="6.0" stroke-linecap="round" stroke-linejoin="round" />
<path d="M 120.0 173.75 L 120.0 173.75 L 118.75 173.75 L 117.5 177.5 L 116.25 190.0 L 116.25 213.75 L 118.75 235.0 L 121.25 242.5 L 121.25 242.5 " stroke="black" fill="none" stroke-width="6.0" stroke-linecap="round" stroke-linejoin="round" />
<path d="M 130.0 173.75 L 135.0 170.0 L 146.25 165.0 L 153.75 163.75 L 156.25 176.25 L 157.5 198.75 L 156.25 218.75 L 156.25 235.0 L 155.0 241.25 L 155.0 241.25 L 152.5 238.75 L 152.5 236.25 " stroke="black" fill="none" stroke-width="6.0" stroke-linecap="round" stroke-linejoin="round" />
<path d="M 116.25 205.0 L 121.25 203.75 L 131.25 200.0 L 142.5 193.75 L 148.75 188.75 " stroke="black" fill="none" stroke-width="6.0" stroke-linecap="round" stroke-linejoin="round" />
<path d="M 116.25 218.75 L 115.0 221.25 L 118.75 218.75 L 135.0 207.5 L 150.0 195.0 " stroke="black" fill="none" stroke-width="6.0" stroke-linecap="round" stroke-linejoin="round" />
<path d="M 173.75 147.5 L 173.75 148.75 L 172.5 151.25 L 182.5 150.0 L 200.0 143.75 L 218.75 133.75 L 231.25 120.0 L 231.25 112.5 " stroke="black" fill="none" stroke-width="6.0" stroke-linecap="round" stroke-linejoin="round" />
<path d="M 193.75 110.0 L 192.5 115.0 L 192.5 128.75 L 193.75 155.0 L 193.75 192.5 L 186.25 218.75 L 178.75 228.75 L 168.75 230.0 L 165.0 227.5 " stroke="black" fill="none" stroke-width="6.0" stroke-linecap="round" stroke-linejoin="round" />
<path d="M 198.75 162.5 L 200.0 167.5 L 207.5 181.25 L 223.75 201.25 L 242.5 220.0 L 256.25 235.0 L 261.25 241.25 L 263.75 243.75 L 263.75 243.75 L 263.75 242.5 " stroke="black" fill="none" stroke-width="6.0" stroke-linecap="round" stroke-linejoin="round" />
<path d="M 232.5 90.0 L 232.5 90.0 L 232.5 91.25 L 232.5 92.5 L 238.75 96.25 L 247.5 100.0 L 250.0 102.5 " stroke="black" fill="none" stroke-width="6.0" stroke-linecap="round" stroke-linejoin="round" />
</svg>