<svg xmlns="http://www.w3.org/2000/svg" width="300" height="300" viewBox="0 0 300 300">
<path d="M 125.0 61.25 L 126.25 56.25 L 126.25 55.0 L 127.5 55.0 L 127.5 66.25 L 126.25 82.5 L 125.0 93.75 L 125.0 98.75 L 130.0 96.25 L 141.25 87.5 L 152.5 77.5 L 158.75 68.75 L 161.25 62.5 L 161.25 57.5 L 160.0 55.0 L 158.75 53.75 L 158.75 52.5 L 161.25 53.75 L 168.75 58.75 L 177.5 65.0 L 185.0 72.5 L 185.0 82.5 " stroke="black" fill="none" stroke-width="6.0" stroke-linecap="round" stroke-linejoin="round" />
<path d="M 106.25 111.25 L 106.25 111.25 L 106.25 110.0 L 106.25 113.75 L 106.25 130.0 L 108.75 147.5 L 112.5 155.0 L 118.75 153.75 L 125.0 143.75 L 130.0 132.5 L 133.75 121.25 L 136.25 112.5 L 136.25 108.75 L 136.25 110.0 L 136.25 121.25 L 136.25 132.5 L 136.25 141.25 L 140.0 146.25 L 142.5 147.5 " stroke="black" fill="none" stroke-width="6.0" stroke-linecap="round" stroke-linejoin="round" />
<path d="M 160.0 92.5 L 160.0 92.5 L 160.0 91.25 L 158.75 95.0 L 158.75 111.25 L 160.0 126.25 L 162.5 132.5 L 167.5 131.25 L 175.0 118.75 L 182.5 105.0 L 190.0 95.0 L 193.75 90.0 L 195.0 90.0 L 195.0 92.5 L 197.5 96.25 L 198.75 98.75 L 200.0 101.25 L 201.25 102.5 L 200.0 103.75 " stroke="black" fill="none" stroke-width="6.0" stroke-linecap="round" stroke-linejoin="round" />
<path d="M 160.0 123.75 L 160.0 125.0 L 153.75 132.5 L 145.0 147.5 L 127.5 171.25 L 105.0 197.5 L 85.0 215.0 L 68.75 225.0 L 62.5 223.75 L 63.75 212.5 L 65.0 208.75 " stroke="black" fill="none" stroke-width="6.0" stroke-linecap="round" stroke-linejoin="round" />
<path d="M 161.25 132.5 L 166.25 132.5 L 176.25 133.75 L 195.0 141.25 L 215.0 152.5 L 235.0 162.5 L 250.0 170.0 L 253.75 173.75 L 250.0 175.0 L 245.0 175.0 " stroke="black" fill="none" stroke-width="6.0" stroke-linecap="round" stroke-linejoin="round" />
<path d="M 166.25 157.5 L 166.25 157.5 L 165.0 160.0 L 160.0 171.25 L 151.25 192.5 L 142.5 208.75 L 137.5 216.25 L 135.0 217.5 L 133.75 213.75 " stroke="black" fill="none" stroke-width="6.0" stroke-linecap="round" stroke-linejoin="round" />
<path d="M 182.5 166.25 L 181.25 171.25 L 178.75 181.25 L 172.5 197.5 L 165.0 211.25 L 158.75 220.0 L 155.0 221.25 L 155.0 215.0 " stroke="black" fill="none" stroke-width="6.0" stroke-linecap="round" stroke-linejoin="round" />
<path d="M 197.5 186.25 L 197.5 188.75 L 196.25 197.5 L 188.75 220.0 L 177.5 246.25 L 168.75 260.0 L 157.5 262.5 L 146.25 258.75 " stroke="black" fill="none" stroke-width="6.0" stroke-linecap="round" stroke-linejoin="round" />
</svg>