<svg xmlns="http://www.w3.org/2000/svg" width="300" height="300" viewBox="0 0 300 300">
<path d="M 87.5 122.5 L 85.0 120.0 L 77.5 117.5 L 75.0 116.25 L 76.25 118.75 L 82.5 135.0 L 90.0 157.5 L 95.0 172.5 L 97.5 177.5 L 96.25 177.5 " stroke="black" fill="none" stroke-width="6.0" stroke-linecap="round" stroke-linejoin="round" />
<path d="M 77.5 133.75 L 76.25 133.75 L 71.25 133.75 L 73.75 133.75 L 87.5 128.75 L 102.5 125.0 L 131.25 118.75 L 140.0 121.25 L 133.75 135.0 L 116.25 152.5 L 98.75 167.5 L 90.0 175.0 L 90.0 175.0 L 100.0 168.75 L 118.75 155.0 L 140.0 138.75 L 153.75 123.75 " stroke="black" fill="none" stroke-width="6.0" stroke-linecap="round" stroke-linejoin="round" />
<path d="M 158.75 91.25 L 155.0 92.5 L 153.75 93.75 L 163.75 93.75 L 180.0 92.5 L 211.25 91.25 L 228.75 97.5 L 233.75 118.75 L 226.25 151.25 L 215.0 171.25 L 206.25 181.25 L 200.0 182.5 L 193.75 181.25 L 186.25 175.0 L 180.0 162.5 L 173.75 147.5 L 168.75 131.25 L 168.75 113.75 L 170.0 98.75 L 171.25 92.5 L 171.25 92.5 L 171.25 95.0 L 171.25 112.5 L 172.5 157.5 L 171.25 225.0 L 167.5 270.0 L 163.75 277.5 " stroke="black" fill="none" stroke-width="6.0" stroke-linecap="round" stroke-linejoin="round" />
</svg>