<svg xmlns="http://www.w3.org/2000/svg" width="300" height="300" viewBox="0 0 300 300">
<path d="M 90.0 92.5 L 91.25 92.5 L 91.25 92.5 L 93.75 95.0 L 97.5 111.25 L 100.0 132.5 L 101.25 142.5 L 101.25 142.5 L 101.25 137.5 " stroke="black" fill="none" stroke-width="6.0" stroke-linecap="round" stroke-linejoin="round" />
<path d="M 100.0 117.5 L 100.0 117.5 L 97.5 117.5 L 97.5 117.5 L 102.5 115.0 L 117.5 110.0 L 136.25 102.5 L 146.25 97.5 L 145.0 97.5 " stroke="black" fill="none" stroke-width="6.0" stroke-linecap="round" stroke-linejoin="round" />
<path d="M 77.5 161.25 L 75.0 165.0 L 75.0 165.0 L 87.5 161.25 L 100.0 156.25 L 123.75 143.75 L 135.0 137.5 L 135.0 136.25 L 127.5 138.75 L 120.0 147.5 L 116.25 167.5 L 118.75 203.75 L 122.5 236.25 L 123.75 246.25 L 122.5 246.25 L 117.5 243.75 L 110.0 241.25 L 98.75 237.5 L 87.5 235.0 L 78.75 230.0 L 77.5 223.75 L 87.5 212.5 L 113.75 195.0 L 146.25 170.0 L 175.0 142.5 L 193.75 123.75 L 198.75 116.25 L 198.75 115.0 L 198.75 113.75 L 201.25 112.5 L 208.75 112.5 L 218.75 113.75 L 226.25 123.75 L 228.75 142.5 L 218.75 168.75 L 202.5 193.75 L 185.0 210.0 L 161.25 216.25 " stroke="black" fill="none" stroke-width="6.0" stroke-linecap="round" stroke-linejoin="round" />
<path d="M 183.75 136.25 L 183.75 137.5 L 182.5 143.75 L 188.75 161.25 L 200.0 192.5 L 212.5 218.75 L 230.0 237.5 L 246.25 245.0 L 258.75 248.75 L 267.5 248.75 L 268.75 247.5 " stroke="black" fill="none" stroke-width="6.0" stroke-linecap="round" stroke-linejoin="round" />
</svg>