<svg xmlns="http://www.w3.org/2000/svg" width="300" height="300" viewBox="0 0 300 300">
<path d="M 90.0 128.75 L 90.0 130.0 L 91.25 130.0 L 111.25 126.25 L 148.75 115.0 L 181.25 102.5 L 195.0 93.75 L 196.25 91.25 " stroke="black" fill="none" stroke-width="6.0" stroke-linecap="round" stroke-linejoin="round" />
<path d="M 136.25 85.0 L 133.75 85.0 L 131.25 90.0 L 127.5 130.0 L 116.25 198.75 L 103.75 245.0 L 96.25 260.0 L 91.25 262.5 L 91.25 253.75 " stroke="black" fill="none" stroke-width="6.0" stroke-linecap="round" stroke-linejoin="round" />
<path d="M 125.0 160.0 L 126.25 158.75 L 126.25 157.5 L 133.75 155.0 L 152.5 148.75 L 180.0 142.5 L 195.0 141.25 L 196.25 148.75 L 182.5 175.0 L 167.5 197.5 L 143.75 226.25 L 130.0 233.75 L 121.25 232.5 L 117.5 223.75 " stroke="black" fill="none" stroke-width="6.0" stroke-linecap="round" stroke-linejoin="round" />
<path d="M 127.5 178.75 L 127.5 178.75 L 127.5 178.75 L 135.0 186.25 L 157.5 210.0 L 185.0 237.5 L 205.0 251.25 L 220.0 255.0 L 236.25 257.5 L 240.0 260.0 " stroke="black" fill="none" stroke-width="6.0" stroke-linecap="round" stroke-linejoin="round" />
</svg>