<svg xmlns="http://www.w3.org/2000/svg" width="300" height="300" viewBox="0 0 300 300">
<path d="M 87.5 91.25 L 85.0 91.25 L 82.5 92.5 L 83.75 92.5 L 92.5 93.75 L 111.25 92.5 L 131.25 88.75 L 143.75 85.0 L 146.25 85.0 L 135.0 90.0 " stroke="black" fill="none" stroke-width="6.0" stroke-linecap="round" stroke-linejoin="round" />
<path d="M 66.25 146.25 L 67.5 150.0 L 72.5 150.0 L 85.0 147.5 L 106.25 140.0 L 127.5 128.75 L 141.25 120.0 L 142.5 116.25 L 133.75 116.25 L 122.5 117.5 L 120.0 118.75 " stroke="black" fill="none" stroke-width="6.0" stroke-linecap="round" stroke-linejoin="round" />
<path d="M 102.5 103.75 L 102.5 102.5 L 103.75 100.0 L 103.75 100.0 L 103.75 105.0 L 105.0 128.75 L 106.25 171.25 L 110.0 211.25 L 113.75 233.75 L 112.5 242.5 L 106.25 243.75 L 100.0 237.5 L 98.75 235.0 " stroke="black" fill="none" stroke-width="6.0" stroke-linecap="round" stroke-linejoin="round" />
<path d="M 107.5 148.75 L 108.75 152.5 L 101.25 166.25 L 87.5 191.25 L 72.5 211.25 L 60.0 220.0 L 52.5 221.25 L 51.25 211.25 L 51.25 203.75 " stroke="black" fill="none" stroke-width="6.0" stroke-linecap="round" stroke-linejoin="round" />
<path d="M 95.0 157.5 L 98.75 158.75 L 106.25 163.75 L 121.25 178.75 L 138.75 193.75 L 150.0 200.0 L 155.0 205.0 L 155.0 205.0 " stroke="black" fill="none" stroke-width="6.0" stroke-linecap="round" stroke-linejoin="round" />
<path d="M 181.25 120.0 L 178.75 116.25 L 176.25 116.25 L 176.25 132.5 L 182.5 162.5 L 188.75 192.5 L 192.5 201.25 L 192.5 201.25 " stroke="black" fill="none" stroke-width="6.0" stroke-linecap="round" stroke-linejoin="round" />
<path d="M 176.25 121.25 L 176.25 121.25 L 176.25 121.25 L 182.5 121.25 L 201.25 121.25 L 221.25 123.75 L 231.25 130.0 L 228.75 142.5 L 215.0 157.5 L 202.5 177.5 L 195.0 191.25 L 195.0 195.0 L 202.5 195.0 L 213.75 191.25 L 227.5 183.75 L 237.5 176.25 L 243.75 168.75 L 243.75 166.25 " stroke="black" fill="none" stroke-width="6.0" stroke-linecap="round" stroke-linejoin="round" />
</svg>