<svg xmlns="http://www.w3.org/2000/svg" width="300" height="300" viewBox="0 0 300 300">
<path d="M 108.75 90.0 L 108.75 90.0 L 107.5 91.25 L 107.5 105.0 L 115.0 137.5 L 121.25 160.0 L 123.75 165.0 L 123.75 165.0 " stroke="black" fill="none" stroke-width="6.0" stroke-linecap="round" stroke-linejoin="round" />
<path d="M 106.25 100.0 L 106.25 100.0 L 106.25 98.75 L 115.0 96.25 L 140.0 91.25 L 163.75 88.75 L 177.5 91.25 L 176.25 102.5 L 161.25 120.0 L 143.75 140.0 L 125.0 155.0 L 110.0 165.0 L 107.5 168.75 L 120.0 167.5 L 140.0 160.0 L 160.0 150.0 L 173.75 145.0 L 175.0 148.75 L 158.75 166.25 L 141.25 186.25 L 121.25 203.75 L 100.0 216.25 L 88.75 221.25 L 87.5 220.0 L 90.0 213.75 L 93.75 208.75 L 95.0 207.5 L 98.75 207.5 L 105.0 211.25 L 117.5 225.0 L 133.75 246.25 L 147.5 258.75 L 152.5 261.25 L 152.5 258.75 L 148.75 255.0 L 142.5 248.75 L 133.75 242.5 L 123.75 236.25 L 112.5 230.0 L 107.5 226.25 L 107.5 226.25 L 120.0 221.25 L 145.0 208.75 L 176.25 195.0 L 205.0 185.0 L 215.0 185.0 L 215.0 193.75 L 205.0 210.0 L 191.25 228.75 L 172.5 246.25 L 156.25 260.0 L 153.75 261.25 L 165.0 256.25 L 186.25 246.25 L 208.75 235.0 L 222.5 225.0 L 236.25 218.75 " stroke="black" fill="none" stroke-width="6.0" stroke-linecap="round" stroke-linejoin="round" />
</svg>