<svg xmlns="http://www.w3.org/2000/svg" width="300" height="300" viewBox="0 0 300 300">
<path d="M 96.25 91.25 L 96.25 91.25 L 95.0 87.5 L 95.0 86.25 L 95.0 91.25 L 96.25 120.0 L 95.0 162.5 L 90.0 198.75 L 83.75 218.75 L 81.25 221.25 L 76.25 216.25 " stroke="black" fill="none" stroke-width="6.0" stroke-linecap="round" stroke-linejoin="round" />
<path d="M 100.0 90.0 L 101.25 88.75 L 102.5 86.25 L 111.25 83.75 L 135.0 77.5 L 163.75 70.0 L 192.5 63.75 L 208.75 61.25 L 216.25 63.75 L 220.0 72.5 L 220.0 91.25 L 217.5 122.5 L 216.25 162.5 L 217.5 206.25 L 223.75 232.5 L 228.75 248.75 L 231.25 252.5 L 231.25 252.5 L 226.25 252.5 L 216.25 246.25 L 206.25 235.0 L 195.0 213.75 " stroke="black" fill="none" stroke-width="6.0" stroke-linecap="round" stroke-linejoin="round" />
<path d="M 130.0 137.5 L 123.75 137.5 L 120.0 137.5 L 122.5 137.5 L 138.75 131.25 L 157.5 120.0 L 177.5 108.75 L 187.5 102.5 L 185.0 101.25 L 177.5 103.75 " stroke="black" fill="none" stroke-width="6.0" stroke-linecap="round" stroke-linejoin="round" />
<path d="M 121.25 168.75 L 121.25 168.75 L 120.0 170.0 L 132.5 165.0 L 153.75 150.0 L 177.5 131.25 L 188.75 118.75 L 187.5 112.5 L 172.5 112.5 L 158.75 112.5 L 148.75 108.75 L 143.75 102.5 L 145.0 95.0 L 145.0 92.5 L 146.25 95.0 L 146.25 113.75 L 147.5 142.5 L 147.5 171.25 L 146.25 190.0 L 140.0 198.75 L 133.75 198.75 " stroke="black" fill="none" stroke-width="6.0" stroke-linecap="round" stroke-linejoin="round" />
<path d="M 118.75 193.75 L 118.75 193.75 L 120.0 193.75 L 125.0 200.0 L 136.25 210.0 L 147.5 217.5 L 156.25 218.75 L 158.75 218.75 L 160.0 216.25 L 156.25 212.5 L 151.25 208.75 L 145.0 205.0 L 140.0 201.25 L 137.5 198.75 L 138.75 193.75 L 150.0 185.0 L 166.25 177.5 L 182.5 171.25 L 191.25 170.0 L 188.75 176.25 L 180.0 190.0 L 167.5 202.5 L 157.5 212.5 L 153.75 215.0 L 158.75 212.5 L 172.5 201.25 L 183.75 190.0 " stroke="black" fill="none" stroke-width="6.0" stroke-linecap="round" stroke-linejoin="round" />
</svg>