<svg xmlns="http://www.w3.org/2000/svg" width="300" height="300" viewBox="0 0 300 300">
<path d="M 140.0 92.5 L 141.25 92.5 L 143.75 91.25 L 155.0 90.0 L 176.25 91.25 L 195.0 98.75 L 201.25 110.0 L 190.0 127.5 L 171.25 140.0 L 155.0 146.25 L 146.25 148.75 " stroke="black" fill="none" stroke-width="6.0" stroke-linecap="round" stroke-linejoin="round" />
<path d="M 76.25 130.0 L 76.25 130.0 L 78.75 127.5 L 101.25 122.5 L 146.25 112.5 L 193.75 102.5 L 228.75 96.25 L 245.0 92.5 L 242.5 92.5 " stroke="black" fill="none" stroke-width="6.0" stroke-linecap="round" stroke-linejoin="round" />
<path d="M 102.5 165.0 L 101.25 165.0 L 101.25 166.25 L 117.5 165.0 L 152.5 152.5 L 190.0 137.5 L 202.5 127.5 L 202.5 126.25 " stroke="black" fill="none" stroke-width="6.0" stroke-linecap="round" stroke-linejoin="round" />
<path d="M 143.75 108.75 L 143.75 115.0 L 140.0 140.0 L 126.25 181.25 L 102.5 217.5 L 87.5 238.75 L 62.5 255.0 L 48.75 252.5 L 47.5 246.25 " stroke="black" fill="none" stroke-width="6.0" stroke-linecap="round" stroke-linejoin="round" />
<path d="M 128.75 173.75 L 132.5 177.5 L 142.5 192.5 L 152.5 216.25 L 160.0 242.5 L 166.25 252.5 L 170.0 255.0 L 171.25 255.0 L 168.75 247.5 L 158.75 237.5 L 150.0 226.25 L 142.5 216.25 L 138.75 207.5 L 137.5 203.75 L 145.0 201.25 L 160.0 197.5 L 180.0 195.0 L 201.25 193.75 L 211.25 196.25 L 210.0 205.0 L 198.75 218.75 L 182.5 236.25 L 166.25 250.0 L 163.75 253.75 L 178.75 247.5 L 203.75 230.0 L 225.0 212.5 L 237.5 201.25 " stroke="black" fill="none" stroke-width="6.0" stroke-linecap="round" stroke-linejoin="round" />
</svg>