<svg xmlns="http://www.w3.org/2000/svg" width="300" height="300" viewBox="0 0 300 300">
<path d="M 66.25 140.0 L 66.25 138.75 L 66.25 138.75 L 72.5 141.25 L 85.0 158.75 L 96.25 182.5 L 100.0 191.25 L 98.75 191.25 L 96.25 187.5 " stroke="black" fill="none" stroke-width="6.0" stroke-linecap="round" stroke-linejoin="round" />
<path d="M 80.0 157.5 L 78.75 156.25 L 76.25 152.5 L 75.0 148.75 L 82.5 146.25 L 97.5 145.0 L 115.0 143.75 L 128.75 143.75 L 131.25 148.75 L 121.25 162.5 L 107.5 180.0 L 98.75 191.25 L 96.25 192.5 L 106.25 178.75 L 123.75 155.0 L 138.75 130.0 L 142.5 122.5 " stroke="black" fill="none" stroke-width="6.0" stroke-linecap="round" stroke-linejoin="round" />
<path d="M 151.25 72.5 L 151.25 72.5 L 151.25 72.5 L 150.0 75.0 L 148.75 92.5 L 148.75 116.25 L 150.0 127.5 L 156.25 127.5 L 168.75 116.25 L 183.75 103.75 L 200.0 95.0 L 211.25 91.25 L 215.0 91.25 L 215.0 93.75 L 208.75 102.5 L 198.75 116.25 L 193.75 122.5 " stroke="black" fill="none" stroke-width="6.0" stroke-linecap="round" stroke-linejoin="round" />
<path d="M 173.75 113.75 L 173.75 113.75 L 173.75 115.0 L 173.75 123.75 L 172.5 146.25 L 161.25 195.0 L 150.0 218.75 L 133.75 231.25 L 117.5 232.5 L 111.25 226.25 " stroke="black" fill="none" stroke-width="6.0" stroke-linecap="round" stroke-linejoin="round" />
<path d="M 168.75 160.0 L 170.0 160.0 L 173.75 165.0 L 185.0 177.5 L 201.25 198.75 L 218.75 221.25 L 236.25 238.75 L 250.0 250.0 L 255.0 257.5 " stroke="black" fill="none" stroke-width="6.0" stroke-linecap="round" stroke-linejoin="round" />
</svg>