<svg xmlns="http://www.w3.org/2000/svg" width="300" height="300" viewBox="0 0 300 300">
<path d="M 62.5 147.5 L 61.25 147.5 L 60.0 147.5 L 63.75 155.0 L 75.0 178.75 L 85.0 200.0 L 87.5 208.75 L 87.5 207.5 L 85.0 201.25 L 82.5 195.0 L 80.0 187.5 L 76.25 181.25 L 70.0 175.0 L 66.25 172.5 L 67.5 170.0 L 78.75 163.75 L 95.0 157.5 L 113.75 151.25 L 123.75 151.25 L 122.5 158.75 L 112.5 175.0 L 102.5 191.25 L 93.75 202.5 L 91.25 205.0 L 92.5 203.75 L 102.5 192.5 L 116.25 177.5 L 122.5 168.75 " stroke="black" fill="none" stroke-width="6.0" stroke-linecap="round" stroke-linejoin="round" />
<path d="M 186.25 82.5 L 185.0 81.25 L 183.75 80.0 L 181.25 81.25 L 171.25 105.0 L 153.75 160.0 L 138.75 212.5 L 126.25 237.5 L 120.0 243.75 " stroke="black" fill="none" stroke-width="6.0" stroke-linecap="round" stroke-linejoin="round" />
<path d="M 170.0 102.5 L 172.5 101.25 L 181.25 102.5 L 201.25 112.5 L 221.25 130.0 L 235.0 141.25 L 251.25 152.5 L 253.75 158.75 L 252.5 160.0 " stroke="black" fill="none" stroke-width="6.0" stroke-linecap="round" stroke-linejoin="round" />
<path d="M 167.5 158.75 L 166.25 160.0 L 166.25 160.0 L 176.25 158.75 L 192.5 156.25 L 206.25 153.75 L 210.0 153.75 L 203.75 157.5 L 202.5 158.75 " stroke="black" fill="none" stroke-width="6.0" stroke-linecap="round" stroke-linejoin="round" />
<path d="M 163.75 188.75 L 162.5 191.25 L 161.25 192.5 L 168.75 193.75 L 183.75 192.5 L 201.25 187.5 L 212.5 185.0 L 213.75 186.25 L 205.0 198.75 L 191.25 215.0 L 173.75 230.0 L 170.0 232.5 " stroke="black" fill="none" stroke-width="6.0" stroke-linecap="round" stroke-linejoin="round" />
</svg>