<svg xmlns="http://www.w3.org/2000/svg" width="300" height="300" viewBox="0 0 300 300">
<path d="M 130.0 77.5 L 128.75 77.5 L 126.25 76.25 L 128.75 76.25 L 140.0 78.75 L 153.75 82.5 L 166.25 85.0 L 172.5 87.5 L 170.0 88.75 " stroke="black" fill="none" stroke-width="6.0" stroke-linecap="round" stroke-linejoin="round" />
<path d="M 88.75 127.5 L 87.5 128.75 L 82.5 131.25 L 86.25 131.25 L 102.5 127.5 L 130.0 116.25 L 156.25 100.0 L 171.25 88.75 L 173.75 86.25 L 166.25 87.5 " stroke="black" fill="none" stroke-width="6.0" stroke-linecap="round" stroke-linejoin="round" />
<path d="M 126.25 133.75 L 122.5 137.5 L 120.0 148.75 L 122.5 162.5 L 128.75 177.5 L 131.25 185.0 L 131.25 186.25 L 130.0 182.5 L 128.75 176.25 L 126.25 168.75 L 126.25 161.25 L 125.0 156.25 L 127.5 150.0 L 137.5 145.0 L 153.75 138.75 L 170.0 136.25 L 173.75 137.5 L 166.25 147.5 L 155.0 158.75 L 143.75 170.0 L 130.0 183.75 L 120.0 192.5 L 120.0 193.75 L 127.5 190.0 L 137.5 182.5 L 145.0 176.25 L 148.75 173.75 L 147.5 177.5 L 137.5 197.5 L 125.0 223.75 L 113.75 246.25 L 108.75 251.25 L 110.0 247.5 L 111.25 245.0 " stroke="black" fill="none" stroke-width="6.0" stroke-linecap="round" stroke-linejoin="round" />
<path d="M 145.0 187.5 L 143.75 191.25 L 142.5 201.25 L 145.0 220.0 L 148.75 240.0 L 152.5 252.5 L 158.75 253.75 L 168.75 248.75 L 183.75 236.25 L 196.25 221.25 L 205.0 205.0 L 210.0 192.5 L 208.75 186.25 L 203.75 185.0 L 193.75 187.5 L 183.75 191.25 L 171.25 197.5 L 161.25 203.75 L 156.25 210.0 L 153.75 211.25 L 155.0 212.5 L 156.25 212.5 L 157.5 211.25 L 157.5 211.25 L 158.75 211.25 L 158.75 211.25 L 158.75 211.25 L 158.75 211.25 L 158.75 210.0 L 160.0 210.0 L 165.0 211.25 L 178.75 216.25 L 201.25 223.75 L 222.5 230.0 L 237.5 232.5 " stroke="black" fill="none" stroke-width="6.0" stroke-linecap="round" stroke-linejoin="round" />
</svg>