<svg xmlns="http://www.w3.org/2000/svg" width="300" height="300" viewBox="0 0 300 300">
<path d="M 131.25 75.0 L 130.0 75.0 L 126.25 77.5 L 121.25 88.75 L 113.75 105.0 L 112.5 111.25 L 123.75 110.0 L 141.25 101.25 L 156.25 97.5 L 162.5 97.5 L 158.75 113.75 L 140.0 146.25 L 115.0 182.5 L 90.0 211.25 L 73.75 223.75 L 63.75 221.25 L 62.5 217.5 " stroke="black" fill="none" stroke-width="6.0" stroke-linecap="round" stroke-linejoin="round" />
<path d="M 87.5 143.75 L 87.5 143.75 L 87.5 143.75 L 93.75 147.5 L 112.5 160.0 L 131.25 171.25 " stroke="black" fill="none" stroke-width="6.0" stroke-linecap="round" stroke-linejoin="round" />
<path d="M 128.75 185.0 L 128.75 185.0 L 128.75 185.0 L 130.0 190.0 L 138.75 212.5 L 147.5 237.5 L 152.5 245.0 L 152.5 242.5 " stroke="black" fill="none" stroke-width="6.0" stroke-linecap="round" stroke-linejoin="round" />
<path d="M 128.75 193.75 L 127.5 192.5 L 123.75 190.0 L 126.25 187.5 L 143.75 183.75 L 166.25 178.75 L 191.25 173.75 L 200.0 175.0 L 196.25 187.5 L 178.75 206.25 L 158.75 226.25 L 146.25 241.25 L 145.0 243.75 L 156.25 240.0 L 176.25 227.5 L 198.75 210.0 L 212.5 196.25 L 215.0 193.75 " stroke="black" fill="none" stroke-width="6.0" stroke-linecap="round" stroke-linejoin="round" />
</svg>