<svg xmlns="http://www.w3.org/2000/svg" width="300" height="300" viewBox="0 0 300 300">
<path d="M 95.0 96.25 L 93.75 97.5 L 92.5 106.25 L 93.75 148.75 L 96.25 210.0 L 96.25 238.75 L 95.0 242.5 " stroke="black" fill="none" stroke-width="6.0" stroke-linecap="round" stroke-linejoin="round" />
<path d="M 115.0 87.5 L 117.5 87.5 L 125.0 87.5 L 147.5 83.75 L 186.25 80.0 L 215.0 78.75 L 232.5 83.75 L 237.5 97.5 L 237.5 130.0 L 237.5 173.75 L 237.5 213.75 L 237.5 238.75 L 238.75 250.0 L 240.0 252.5 L 240.0 252.5 L 237.5 250.0 L 230.0 242.5 L 218.75 228.75 L 203.75 207.5 L 192.5 192.5 " stroke="black" fill="none" stroke-width="6.0" stroke-linecap="round" stroke-linejoin="round" />
<path d="M 136.25 135.0 L 131.25 137.5 L 128.75 140.0 L 136.25 140.0 L 151.25 137.5 L 170.0 132.5 L 187.5 126.25 L 188.75 123.75 " stroke="black" fill="none" stroke-width="6.0" stroke-linecap="round" stroke-linejoin="round" />
<path d="M 133.75 166.25 L 132.5 178.75 L 137.5 197.5 L 146.25 211.25 L 153.75 216.25 L 155.0 215.0 L 151.25 213.75 L 143.75 211.25 L 135.0 207.5 L 127.5 203.75 L 123.75 198.75 L 127.5 191.25 L 140.0 183.75 L 157.5 176.25 L 176.25 173.75 L 185.0 176.25 L 181.25 187.5 L 167.5 202.5 L 152.5 216.25 L 145.0 222.5 L 147.5 221.25 L 161.25 207.5 L 183.75 185.0 L 187.5 178.75 " stroke="black" fill="none" stroke-width="6.0" stroke-linecap="round" stroke-linejoin="round" />
</svg>