<svg xmlns="http://www.w3.org/2000/svg" width="300" height="300" viewBox="0 0 300 300">
<path d="M 151.25 73.75 L 147.5 77.5 L 136.25 91.25 L 118.75 118.75 L 97.5 151.25 L 80.0 172.5 L 68.75 180.0 L 62.5 172.5 L 62.5 167.5 " stroke="black" fill="none" stroke-width="6.0" stroke-linecap="round" stroke-linejoin="round" />
<path d="M 135.0 82.5 L 137.5 82.5 L 153.75 91.25 L 181.25 108.75 L 205.0 127.5 L 221.25 138.75 L 233.75 146.25 L 233.75 147.5 L 221.25 148.75 " stroke="black" fill="none" stroke-width="6.0" stroke-linecap="round" stroke-linejoin="round" />
<path d="M 100.0 155.0 L 98.75 156.25 L 97.5 156.25 L 102.5 157.5 L 125.0 152.5 L 151.25 145.0 L 167.5 138.75 L 163.75 137.5 " stroke="black" fill="none" stroke-width="6.0" stroke-linecap="round" stroke-linejoin="round" />
<path d="M 97.5 187.5 L 97.5 198.75 L 102.5 213.75 L 110.0 228.75 L 115.0 233.75 L 116.25 233.75 L 113.75 228.75 L 107.5 222.5 L 102.5 217.5 L 98.75 212.5 L 98.75 207.5 L 110.0 200.0 L 128.75 192.5 L 142.5 190.0 L 146.25 195.0 L 137.5 208.75 L 126.25 221.25 L 118.75 227.5 L 117.5 225.0 L 125.0 212.5 L 133.75 200.0 L 143.75 191.25 L 148.75 187.5 L 152.5 186.25 L 162.5 183.75 L 185.0 176.25 L 207.5 165.0 L 220.0 158.75 L 221.25 161.25 L 215.0 177.5 L 205.0 197.5 L 196.25 212.5 L 187.5 222.5 L 183.75 223.75 L 182.5 216.25 L 182.5 205.0 L 182.5 192.5 L 182.5 182.5 L 181.25 175.0 L 181.25 175.0 L 181.25 192.5 L 181.25 221.25 L 178.75 253.75 L 176.25 272.5 L 175.0 273.75 L 168.75 267.5 L 166.25 266.25 " stroke="black" fill="none" stroke-width="6.0" stroke-linecap="round" stroke-linejoin="round" />
</svg>