<svg xmlns="http://www.w3.org/2000/svg" width="300" height="300" viewBox="0 0 300 300">
<path d="M 117.5 85.0 L 116.25 85.0 L 112.5 85.0 L 113.75 83.75 L 128.75 78.75 L 151.25 71.25 L 171.25 62.5 L 178.75 57.5 L 171.25 58.75 L 167.5 60.0 " stroke="black" fill="none" stroke-width="6.0" stroke-linecap="round" stroke-linejoin="round" />
<path d="M 113.75 87.5 L 110.0 90.0 L 106.25 96.25 L 106.25 118.75 L 107.5 161.25 L 102.5 192.5 L 96.25 202.5 L 91.25 203.75 L 88.75 197.5 L 87.5 187.5 " stroke="black" fill="none" stroke-width="6.0" stroke-linecap="round" stroke-linejoin="round" />
<path d="M 138.75 98.75 L 140.0 98.75 L 146.25 98.75 L 157.5 97.5 L 175.0 92.5 L 186.25 86.25 L 191.25 81.25 L 190.0 81.25 " stroke="black" fill="none" stroke-width="6.0" stroke-linecap="round" stroke-linejoin="round" />
<path d="M 143.75 127.5 L 141.25 130.0 L 142.5 130.0 L 150.0 125.0 L 161.25 116.25 L 170.0 107.5 L 173.75 102.5 L 170.0 102.5 L 162.5 111.25 L 155.0 125.0 L 150.0 147.5 L 150.0 171.25 L 153.75 185.0 L 161.25 185.0 L 175.0 176.25 L 190.0 160.0 L 205.0 143.75 L 213.75 132.5 L 216.25 125.0 L 208.75 123.75 L 196.25 126.25 L 181.25 132.5 L 165.0 138.75 L 156.25 143.75 L 150.0 146.25 L 151.25 146.25 L 153.75 146.25 L 157.5 145.0 L 162.5 145.0 L 166.25 143.75 L 168.75 143.75 L 172.5 143.75 L 176.25 143.75 L 181.25 143.75 L 191.25 146.25 L 205.0 151.25 L 220.0 155.0 L 225.0 155.0 " stroke="black" fill="none" stroke-width="6.0" stroke-linecap="round" stroke-linejoin="round" />
<path d="M 135.0 201.25 L 132.5 201.25 L 131.25 203.75 L 133.75 213.75 L 141.25 230.0 L 146.25 241.25 L 148.75 243.75 L 148.75 242.5 L 147.5 236.25 L 146.25 228.75 L 143.75 220.0 L 140.0 215.0 L 137.5 211.25 L 136.25 211.25 L 140.0 211.25 L 152.5 208.75 L 176.25 203.75 L 202.5 200.0 L 216.25 198.75 L 217.5 201.25 L 211.25 208.75 L 200.0 220.0 L 185.0 230.0 L 166.25 240.0 L 151.25 248.75 L 147.5 250.0 L 148.75 250.0 L 157.5 248.75 L 172.5 246.25 L 188.75 241.25 L 203.75 237.5 L 211.25 235.0 L 211.25 232.5 L 210.0 232.5 " stroke="black" fill="none" stroke-width="6.0" stroke-linecap="round" stroke-linejoin="round" />
</svg>