<svg xmlns="http://www.w3.org/2000/svg" width="300" height="300" viewBox="0 0 300 300">
<path d="M 96.25 83.75 L 91.25 85.0 L 85.0 86.25 L 85.0 86.25 L 90.0 86.25 L 102.5 82.5 L 121.25 78.75 L 137.5 78.75 L 148.75 81.25 L 150.0 91.25 L 140.0 106.25 L 126.25 123.75 L 112.5 135.0 L 100.0 137.5 L 93.75 136.25 " stroke="black" fill="none" stroke-width="6.0" stroke-linecap="round" stroke-linejoin="round" />
<path d="M 115.0 55.0 L 115.0 53.75 L 113.75 52.5 L 111.25 66.25 L 105.0 92.5 L 90.0 142.5 L 78.75 155.0 " stroke="black" fill="none" stroke-width="6.0" stroke-linecap="round" stroke-linejoin="round" />
<path d="M 185.0 66.25 L 182.5 63.75 L 182.5 62.5 L 182.5 70.0 L 182.5 83.75 L 185.0 96.25 L 187.5 103.75 L 188.75 106.25 L 188.75 103.75 L 186.25 100.0 L 185.0 93.75 L 183.75 87.5 L 183.75 80.0 L 185.0 72.5 L 190.0 66.25 L 198.75 62.5 L 207.5 63.75 L 211.25 70.0 L 210.0 80.0 L 200.0 91.25 L 187.5 102.5 L 177.5 111.25 L 176.25 112.5 L 188.75 111.25 L 205.0 101.25 L 220.0 90.0 L 221.25 87.5 " stroke="black" fill="none" stroke-width="6.0" stroke-linecap="round" stroke-linejoin="round" />
<path d="M 150.0 118.75 L 150.0 120.0 L 145.0 126.25 L 128.75 151.25 L 105.0 190.0 L 82.5 216.25 L 60.0 233.75 L 46.25 236.25 L 42.5 228.75 L 45.0 212.5 " stroke="black" fill="none" stroke-width="6.0" stroke-linecap="round" stroke-linejoin="round" />
<path d="M 153.75 131.25 L 161.25 132.5 L 177.5 140.0 L 198.75 150.0 L 218.75 158.75 L 240.0 165.0 L 250.0 168.75 L 245.0 172.5 " stroke="black" fill="none" stroke-width="6.0" stroke-linecap="round" stroke-linejoin="round" />
<path d="M 148.75 157.5 L 146.25 160.0 L 143.75 162.5 L 142.5 163.75 L 145.0 163.75 L 157.5 162.5 L 173.75 156.25 L 187.5 150.0 L 191.25 146.25 L 191.25 146.25 " stroke="black" fill="none" stroke-width="6.0" stroke-linecap="round" stroke-linejoin="round" />
<path d="M 120.0 187.5 L 118.75 190.0 L 117.5 193.75 L 120.0 203.75 L 128.75 221.25 L 138.75 238.75 L 145.0 246.25 L 147.5 246.25 L 146.25 245.0 L 143.75 242.5 L 142.5 238.75 " stroke="black" fill="none" stroke-width="6.0" stroke-linecap="round" stroke-linejoin="round" />
<path d="M 132.5 202.5 L 128.75 201.25 L 126.25 201.25 L 130.0 200.0 L 146.25 195.0 L 170.0 188.75 L 200.0 182.5 L 221.25 182.5 L 228.75 188.75 L 227.5 201.25 L 217.5 216.25 L 207.5 228.75 L 200.0 238.75 L 191.25 242.5 L 188.75 243.75 " stroke="black" fill="none" stroke-width="6.0" stroke-linecap="round" stroke-linejoin="round" />
<path d="M 147.5 216.25 L 145.0 217.5 L 143.75 220.0 L 146.25 220.0 L 158.75 218.75 L 180.0 210.0 L 198.75 201.25 L 207.5 193.75 L 205.0 192.5 L 200.0 192.5 " stroke="black" fill="none" stroke-width="6.0" stroke-linecap="round" stroke-linejoin="round" />
<path d="M 162.5 198.75 L 162.5 198.75 L 158.75 202.5 L 157.5 211.25 L 158.75 228.75 L 163.75 245.0 L 166.25 252.5 L 167.5 253.75 L 167.5 251.25 " stroke="black" fill="none" stroke-width="6.0" stroke-linecap="round" stroke-linejoin="round" />
<path d="M 190.0 191.25 L 190.0 190.0 L 187.5 190.0 L 187.5 201.25 L 186.25 228.75 L 182.5 260.0 L 181.25 267.5 " stroke="black" fill="none" stroke-width="6.0" stroke-linecap="round" stroke-linejoin="round" />
</svg>