<svg xmlns="http://www.w3.org/2000/svg" width="300" height="300" viewBox="0 0 300 300">
<path d="M 58.75 125.0 L 58.75 122.5 L 58.75 122.5 L 61.25 131.25 L 66.25 156.25 L 70.0 182.5 L 72.5 192.5 L 73.75 190.0 L 73.75 187.5 " stroke="black" fill="none" stroke-width="6.0" stroke-linecap="round" stroke-linejoin="round" />
<path d="M 58.75 137.5 L 53.75 137.5 L 52.5 137.5 L 56.25 137.5 L 71.25 138.75 L 87.5 138.75 L 100.0 140.0 L 102.5 145.0 L 95.0 155.0 L 80.0 168.75 L 63.75 183.75 L 57.5 188.75 L 62.5 188.75 L 80.0 178.75 L 98.75 162.5 L 116.25 147.5 L 122.5 142.5 " stroke="black" fill="none" stroke-width="6.0" stroke-linecap="round" stroke-linejoin="round" />
<path d="M 137.5 80.0 L 136.25 80.0 L 132.5 80.0 L 131.25 88.75 L 132.5 118.75 L 136.25 143.75 L 140.0 151.25 L 142.5 147.5 L 143.75 138.75 L 143.75 136.25 " stroke="black" fill="none" stroke-width="6.0" stroke-linecap="round" stroke-linejoin="round" />
<path d="M 133.75 102.5 L 130.0 97.5 L 130.0 95.0 L 135.0 92.5 L 148.75 90.0 L 166.25 88.75 L 185.0 88.75 L 196.25 93.75 L 197.5 102.5 L 188.75 116.25 L 173.75 128.75 L 158.75 135.0 L 143.75 136.25 L 135.0 132.5 L 131.25 127.5 L 131.25 123.75 L 132.5 121.25 L 140.0 117.5 L 153.75 111.25 L 171.25 103.75 L 186.25 97.5 L 191.25 95.0 L 187.5 96.25 " stroke="black" fill="none" stroke-width="6.0" stroke-linecap="round" stroke-linejoin="round" />
<path d="M 141.25 138.75 L 138.75 140.0 L 136.25 143.75 L 140.0 143.75 L 155.0 138.75 L 172.5 128.75 L 188.75 116.25 L 192.5 112.5 " stroke="black" fill="none" stroke-width="6.0" stroke-linecap="round" stroke-linejoin="round" />
<path d="M 136.25 157.5 L 133.75 160.0 L 128.75 181.25 L 128.75 205.0 L 136.25 225.0 L 143.75 236.25 L 147.5 237.5 L 148.75 235.0 L 147.5 225.0 L 145.0 216.25 L 140.0 206.25 L 132.5 196.25 L 127.5 187.5 L 122.5 182.5 L 123.75 180.0 L 135.0 177.5 L 153.75 173.75 L 181.25 167.5 L 205.0 163.75 L 218.75 167.5 L 222.5 181.25 L 217.5 197.5 L 205.0 213.75 L 192.5 226.25 L 185.0 230.0 " stroke="black" fill="none" stroke-width="6.0" stroke-linecap="round" stroke-linejoin="round" />
<path d="M 143.75 202.5 L 142.5 202.5 L 137.5 203.75 L 137.5 203.75 L 150.0 203.75 L 172.5 197.5 L 196.25 188.75 L 207.5 181.25 L 207.5 181.25 " stroke="black" fill="none" stroke-width="6.0" stroke-linecap="round" stroke-linejoin="round" />
<path d="M 147.5 230.0 L 146.25 232.5 L 146.25 235.0 L 160.0 232.5 L 185.0 221.25 L 207.5 207.5 L 215.0 202.5 " stroke="black" fill="none" stroke-width="6.0" stroke-linecap="round" stroke-linejoin="round" />
</svg>