<svg xmlns="http://www.w3.org/2000/svg" width="300" height="300" viewBox="0 0 300 300">
<path d="M 93.75 73.75 L 93.75 73.75 L 93.75 75.0 L 98.75 76.25 L 111.25 78.75 L 126.25 80.0 L 132.5 81.25 " stroke="black" fill="none" stroke-width="6.0" stroke-linecap="round" stroke-linejoin="round" />
<path d="M 75.0 120.0 L 73.75 121.25 L 73.75 122.5 L 83.75 122.5 L 100.0 118.75 L 118.75 112.5 L 130.0 110.0 L 130.0 111.25 L 117.5 121.25 L 102.5 133.75 L 90.0 143.75 L 82.5 151.25 L 81.25 152.5 L 82.5 151.25 L 87.5 148.75 L 88.75 146.25 " stroke="black" fill="none" stroke-width="6.0" stroke-linecap="round" stroke-linejoin="round" />
<path d="M 68.75 123.75 L 65.0 127.5 L 62.5 138.75 L 62.5 172.5 L 58.75 222.5 L 52.5 255.0 L 47.5 260.0 L 45.0 260.0 " stroke="black" fill="none" stroke-width="6.0" stroke-linecap="round" stroke-linejoin="round" />
<path d="M 73.75 163.75 L 73.75 163.75 L 75.0 171.25 L 80.0 190.0 L 87.5 212.5 L 91.25 221.25 L 91.25 220.0 L 90.0 213.75 L 87.5 206.25 L 82.5 200.0 L 77.5 195.0 L 72.5 191.25 L 80.0 186.25 L 97.5 181.25 L 120.0 173.75 L 133.75 171.25 L 132.5 180.0 L 118.75 195.0 L 103.75 210.0 L 95.0 217.5 L 93.75 218.75 L 105.0 206.25 L 122.5 185.0 L 140.0 158.75 L 153.75 135.0 L 163.75 116.25 L 172.5 100.0 L 175.0 93.75 L 176.25 93.75 L 175.0 97.5 L 170.0 116.25 L 166.25 135.0 L 167.5 143.75 L 177.5 140.0 L 195.0 123.75 L 210.0 103.75 L 220.0 91.25 L 221.25 88.75 " stroke="black" fill="none" stroke-width="6.0" stroke-linecap="round" stroke-linejoin="round" />
<path d="M 193.75 132.5 L 191.25 137.5 L 188.75 152.5 L 185.0 176.25 L 176.25 201.25 L 166.25 218.75 L 155.0 227.5 L 145.0 227.5 L 138.75 221.25 " stroke="black" fill="none" stroke-width="6.0" stroke-linecap="round" stroke-linejoin="round" />
<path d="M 153.75 163.75 L 153.75 167.5 L 156.25 176.25 L 166.25 193.75 L 182.5 208.75 L 198.75 216.25 L 211.25 218.75 L 220.0 221.25 L 228.75 222.5 L 233.75 222.5 " stroke="black" fill="none" stroke-width="6.0" stroke-linecap="round" stroke-linejoin="round" />
</svg>