<svg xmlns="http://www.w3.org/2000/svg" width="300" height="300" viewBox="0 0 300 300">
<path d="M 48.75 165.0 L 48.75 163.75 L 46.25 156.25 L 46.25 150.0 L 50.0 146.25 L 58.75 151.25 L 70.0 171.25 L 78.75 192.5 L 82.5 200.0 L 83.75 197.5 L 80.0 185.0 L 78.75 181.25 " stroke="black" fill="none" stroke-width="6.0" stroke-linecap="round" stroke-linejoin="round" />
<path d="M 58.75 156.25 L 57.5 156.25 L 51.25 155.0 L 50.0 155.0 L 53.75 155.0 L 67.5 155.0 L 85.0 153.75 L 98.75 150.0 L 105.0 150.0 L 98.75 157.5 L 83.75 173.75 L 67.5 188.75 L 65.0 190.0 L 75.0 182.5 L 97.5 160.0 L 113.75 145.0 " stroke="black" fill="none" stroke-width="6.0" stroke-linecap="round" stroke-linejoin="round" />
<path d="M 137.5 85.0 L 136.25 86.25 L 127.5 93.75 L 120.0 118.75 L 111.25 148.75 L 107.5 162.5 L 107.5 162.5 L 111.25 152.5 L 112.5 148.75 " stroke="black" fill="none" stroke-width="6.0" stroke-linecap="round" stroke-linejoin="round" />
<path d="M 137.5 103.75 L 137.5 101.25 L 137.5 102.5 L 137.5 133.75 L 136.25 188.75 L 133.75 228.75 L 133.75 248.75 L 131.25 250.0 " stroke="black" fill="none" stroke-width="6.0" stroke-linecap="round" stroke-linejoin="round" />
<path d="M 148.75 100.0 L 148.75 100.0 L 150.0 100.0 L 156.25 100.0 L 170.0 103.75 L 185.0 106.25 L 188.75 108.75 L 177.5 115.0 " stroke="black" fill="none" stroke-width="6.0" stroke-linecap="round" stroke-linejoin="round" />
<path d="M 142.5 135.0 L 141.25 136.25 L 138.75 137.5 L 140.0 137.5 L 153.75 132.5 L 173.75 121.25 L 192.5 108.75 L 198.75 103.75 L 187.5 112.5 L 185.0 115.0 " stroke="black" fill="none" stroke-width="6.0" stroke-linecap="round" stroke-linejoin="round" />
<path d="M 145.0 173.75 L 142.5 181.25 L 147.5 182.5 L 162.5 172.5 L 185.0 153.75 L 203.75 135.0 L 208.75 125.0 L 203.75 125.0 L 192.5 131.25 L 181.25 136.25 L 173.75 137.5 L 171.25 137.5 L 171.25 136.25 L 175.0 141.25 L 178.75 158.75 L 178.75 187.5 L 177.5 208.75 L 177.5 217.5 L 176.25 218.75 L 173.75 216.25 L 171.25 213.75 " stroke="black" fill="none" stroke-width="6.0" stroke-linecap="round" stroke-linejoin="round" />
<path d="M 151.25 205.0 L 150.0 206.25 L 147.5 207.5 L 146.25 207.5 L 158.75 201.25 L 180.0 190.0 L 201.25 178.75 L 210.0 172.5 L 206.25 175.0 " stroke="black" fill="none" stroke-width="6.0" stroke-linecap="round" stroke-linejoin="round" />
<path d="M 156.25 232.5 L 156.25 235.0 L 153.75 238.75 L 157.5 241.25 L 176.25 236.25 L 198.75 222.5 L 213.75 208.75 L 218.75 202.5 L 212.5 201.25 " stroke="black" fill="none" stroke-width="6.0" stroke-linecap="round" stroke-linejoin="round" />
</svg>