<svg xmlns="http://www.w3.org/2000/svg" width="300" height="300" viewBox="0 0 300 300">
<path d="M 62.5 143.75 L 62.5 143.75 L 61.25 143.75 L 61.25 146.25 L 72.5 162.5 L 87.5 186.25 L 92.5 198.75 L 92.5 201.25 L 90.0 200.0 " stroke="black" fill="none" stroke-width="6.0" stroke-linecap="round" stroke-linejoin="round" />
<path d="M 70.0 163.75 L 67.5 163.75 L 61.25 162.5 L 61.25 161.25 L 68.75 157.5 L 78.75 153.75 L 96.25 147.5 L 106.25 145.0 L 106.25 148.75 L 101.25 161.25 L 93.75 175.0 L 86.25 186.25 L 85.0 190.0 L 86.25 190.0 L 95.0 182.5 L 106.25 170.0 L 108.75 166.25 " stroke="black" fill="none" stroke-width="6.0" stroke-linecap="round" stroke-linejoin="round" />
<path d="M 138.75 71.25 L 137.5 71.25 L 136.25 71.25 L 136.25 72.5 L 143.75 85.0 L 150.0 101.25 L 151.25 112.5 L 151.25 113.75 " stroke="black" fill="none" stroke-width="6.0" stroke-linecap="round" stroke-linejoin="round" />
<path d="M 156.25 75.0 L 156.25 75.0 L 157.5 73.75 L 161.25 72.5 L 167.5 73.75 L 170.0 77.5 L 168.75 86.25 L 157.5 98.75 L 143.75 108.75 L 130.0 118.75 L 125.0 121.25 L 128.75 120.0 L 142.5 115.0 L 160.0 103.75 L 178.75 91.25 L 191.25 82.5 L 191.25 80.0 L 186.25 81.25 " stroke="black" fill="none" stroke-width="6.0" stroke-linecap="round" stroke-linejoin="round" />
<path d="M 153.75 110.0 L 152.5 116.25 L 151.25 128.75 L 151.25 146.25 L 152.5 162.5 L 152.5 171.25 L 151.25 172.5 " stroke="black" fill="none" stroke-width="6.0" stroke-linecap="round" stroke-linejoin="round" />
<path d="M 136.25 151.25 L 135.0 151.25 L 132.5 151.25 L 136.25 150.0 L 150.0 141.25 L 171.25 128.75 L 190.0 116.25 L 195.0 111.25 L 186.25 115.0 " stroke="black" fill="none" stroke-width="6.0" stroke-linecap="round" stroke-linejoin="round" />
<path d="M 118.75 187.5 L 117.5 190.0 L 122.5 190.0 L 141.25 181.25 L 170.0 161.25 L 195.0 141.25 L 203.75 131.25 L 201.25 130.0 L 193.75 133.75 " stroke="black" fill="none" stroke-width="6.0" stroke-linecap="round" stroke-linejoin="round" />
<path d="M 151.25 173.75 L 141.25 196.25 L 131.25 223.75 L 125.0 246.25 L 122.5 253.75 L 120.0 253.75 L 120.0 251.25 " stroke="black" fill="none" stroke-width="6.0" stroke-linecap="round" stroke-linejoin="round" />
<path d="M 146.25 196.25 L 146.25 196.25 L 147.5 196.25 L 161.25 191.25 L 188.75 180.0 L 210.0 166.25 L 216.25 158.75 L 216.25 157.5 L 212.5 157.5 L 206.25 162.5 L 200.0 167.5 L 195.0 175.0 L 191.25 181.25 L 188.75 188.75 L 188.75 197.5 L 188.75 208.75 L 187.5 218.75 L 185.0 226.25 L 178.75 232.5 L 172.5 235.0 L 167.5 235.0 L 163.75 235.0 L 163.75 235.0 L 163.75 235.0 L 163.75 235.0 L 163.75 235.0 L 163.75 235.0 L 162.5 235.0 L 161.25 235.0 L 158.75 235.0 L 157.5 236.25 L 156.25 236.25 L 155.0 237.5 L 155.0 237.5 L 155.0 237.5 L 161.25 237.5 L 173.75 235.0 L 191.25 232.5 L 210.0 230.0 L 227.5 227.5 L 237.5 225.0 L 241.25 225.0 L 241.25 225.0 L 237.5 225.0 " stroke="black" fill="none" stroke-width="6.0" stroke-linecap="round" stroke-linejoin="round" />
</svg>