<svg xmlns="http://www.w3.org/2000/svg" width="300" height="300" viewBox="0 0 300 300">
<path d="M 90.0 107.5 L 85.0 105.0 L 83.75 103.75 L 83.75 106.25 L 85.0 128.75 L 90.0 165.0 L 93.75 198.75 L 97.5 210.0 L 98.75 210.0 L 98.75 205.0 L 97.5 195.0 " stroke="black" fill="none" stroke-width="6.0" stroke-linecap="round" stroke-linejoin="round" />
<path d="M 88.75 115.0 L 86.25 115.0 L 85.0 115.0 L 87.5 115.0 L 103.75 113.75 L 137.5 108.75 L 173.75 101.25 L 201.25 98.75 L 217.5 102.5 L 226.25 116.25 L 226.25 138.75 L 217.5 165.0 L 207.5 187.5 L 200.0 197.5 L 192.5 200.0 L 183.75 200.0 L 178.75 197.5 " stroke="black" fill="none" stroke-width="6.0" stroke-linecap="round" stroke-linejoin="round" />
<path d="M 141.25 115.0 L 138.75 117.5 L 135.0 125.0 L 131.25 141.25 L 126.25 161.25 L 123.75 177.5 L 121.25 181.25 L 120.0 180.0 " stroke="black" fill="none" stroke-width="6.0" stroke-linecap="round" stroke-linejoin="round" />
<path d="M 152.5 112.5 L 153.75 112.5 L 153.75 111.25 L 156.25 115.0 L 157.5 131.25 L 160.0 150.0 L 167.5 160.0 L 178.75 160.0 L 188.75 152.5 L 195.0 145.0 L 196.25 141.25 L 191.25 141.25 L 186.25 143.75 " stroke="black" fill="none" stroke-width="6.0" stroke-linecap="round" stroke-linejoin="round" />
<path d="M 113.75 207.5 L 113.75 208.75 L 110.0 211.25 L 108.75 211.25 L 112.5 211.25 L 127.5 211.25 L 146.25 208.75 L 167.5 202.5 L 186.25 196.25 L 195.0 192.5 L 197.5 192.5 L 197.5 193.75 L 195.0 195.0 " stroke="black" fill="none" stroke-width="6.0" stroke-linecap="round" stroke-linejoin="round" />
</svg>