<svg xmlns="http://www.w3.org/2000/svg" width="300" height="300" viewBox="0 0 300 300">
<path d="M 95.0 90.0 L 93.75 91.25 L 91.25 95.0 L 93.75 95.0 L 111.25 92.5 L 142.5 85.0 L 173.75 73.75 L 192.5 63.75 L 196.25 60.0 L 192.5 58.75 " stroke="black" fill="none" stroke-width="6.0" stroke-linecap="round" stroke-linejoin="round" />
<path d="M 145.0 62.5 L 145.0 63.75 L 145.0 68.75 L 146.25 77.5 L 147.5 91.25 L 147.5 103.75 L 142.5 111.25 L 135.0 113.75 L 126.25 113.75 L 116.25 116.25 L 115.0 120.0 L 130.0 121.25 L 148.75 117.5 L 166.25 107.5 L 178.75 97.5 " stroke="black" fill="none" stroke-width="6.0" stroke-linecap="round" stroke-linejoin="round" />
<path d="M 126.25 131.25 L 122.5 131.25 L 121.25 131.25 L 120.0 136.25 L 123.75 146.25 L 130.0 155.0 L 135.0 158.75 L 135.0 158.75 " stroke="black" fill="none" stroke-width="6.0" stroke-linecap="round" stroke-linejoin="round" />
<path d="M 131.25 143.75 L 130.0 142.5 L 127.5 140.0 L 130.0 137.5 L 141.25 135.0 L 156.25 133.75 L 171.25 132.5 L 175.0 132.5 L 170.0 136.25 L 156.25 145.0 L 143.75 152.5 L 131.25 160.0 L 125.0 162.5 L 128.75 162.5 L 141.25 156.25 L 156.25 147.5 L 168.75 140.0 L 173.75 135.0 " stroke="black" fill="none" stroke-width="6.0" stroke-linecap="round" stroke-linejoin="round" />
<path d="M 83.75 187.5 L 82.5 191.25 L 86.25 192.5 L 108.75 188.75 L 146.25 175.0 L 182.5 161.25 L 205.0 152.5 L 208.75 148.75 L 206.25 148.75 " stroke="black" fill="none" stroke-width="6.0" stroke-linecap="round" stroke-linejoin="round" />
<path d="M 110.0 175.0 L 108.75 177.5 L 107.5 185.0 L 110.0 195.0 L 115.0 206.25 L 121.25 212.5 " stroke="black" fill="none" stroke-width="6.0" stroke-linecap="round" stroke-linejoin="round" />
<path d="M 168.75 161.25 L 171.25 161.25 L 171.25 163.75 L 165.0 175.0 L 152.5 192.5 L 146.25 201.25 " stroke="black" fill="none" stroke-width="6.0" stroke-linecap="round" stroke-linejoin="round" />
<path d="M 95.0 232.5 L 95.0 233.75 L 93.75 235.0 L 98.75 235.0 L 115.0 230.0 L 140.0 221.25 L 158.75 215.0 L 167.5 216.25 L 163.75 227.5 L 153.75 243.75 L 141.25 256.25 L 128.75 261.25 L 122.5 262.5 " stroke="black" fill="none" stroke-width="6.0" stroke-linecap="round" stroke-linejoin="round" />
<path d="M 126.25 211.25 L 126.25 211.25 L 126.25 213.75 L 120.0 230.0 L 110.0 253.75 L 102.5 271.25 L 100.0 275.0 " stroke="black" fill="none" stroke-width="6.0" stroke-linecap="round" stroke-linejoin="round" />
<path d="M 178.75 202.5 L 178.75 200.0 L 178.75 200.0 L 178.75 202.5 L 180.0 217.5 L 182.5 237.5 L 186.25 250.0 L 188.75 252.5 L 188.75 248.75 L 188.75 241.25 L 187.5 233.75 L 185.0 227.5 L 181.25 220.0 L 180.0 215.0 L 182.5 211.25 L 193.75 207.5 L 207.5 206.25 L 218.75 206.25 L 223.75 212.5 L 220.0 225.0 L 210.0 240.0 L 198.75 252.5 L 192.5 258.75 L 192.5 260.0 L 203.75 255.0 L 221.25 246.25 L 238.75 237.5 L 248.75 228.75 L 250.0 227.5 " stroke="black" fill="none" stroke-width="6.0" stroke-linecap="round" stroke-linejoin="round" />
</svg>