<svg xmlns="http://www.w3.org/2000/svg" width="300" height="300" viewBox="0 0 300 300">
<path d="M 98.75 77.5 L 98.75 77.5 L 97.5 77.5 L 101.25 77.5 L 117.5 77.5 L 147.5 76.25 L 178.75 72.5 L 196.25 67.5 L 201.25 62.5 L 202.5 61.25 L 196.25 61.25 L 186.25 65.0 " stroke="black" fill="none" stroke-width="6.0" stroke-linecap="round" stroke-linejoin="round" />
<path d="M 107.5 96.25 L 106.25 97.5 L 105.0 97.5 L 105.0 100.0 L 105.0 103.75 L 107.5 110.0 L 108.75 115.0 L 110.0 117.5 L 108.75 116.25 " stroke="black" fill="none" stroke-width="6.0" stroke-linecap="round" stroke-linejoin="round" />
<path d="M 106.25 101.25 L 106.25 101.25 L 108.75 100.0 L 123.75 98.75 L 148.75 96.25 L 175.0 95.0 L 190.0 95.0 L 191.25 95.0 L 183.75 97.5 L 170.0 102.5 L 156.25 106.25 L 142.5 111.25 L 128.75 117.5 L 118.75 121.25 L 118.75 121.25 L 126.25 120.0 L 141.25 116.25 L 156.25 111.25 L 172.5 105.0 L 183.75 100.0 " stroke="black" fill="none" stroke-width="6.0" stroke-linecap="round" stroke-linejoin="round" />
<path d="M 147.5 56.25 L 147.5 55.0 L 146.25 53.75 L 146.25 53.75 L 146.25 66.25 L 147.5 91.25 L 147.5 120.0 L 146.25 125.0 " stroke="black" fill="none" stroke-width="6.0" stroke-linecap="round" stroke-linejoin="round" />
<path d="M 81.25 131.25 L 80.0 130.0 L 78.75 130.0 L 76.25 131.25 L 73.75 140.0 L 70.0 153.75 L 66.25 162.5 L 63.75 163.75 L 63.75 162.5 " stroke="black" fill="none" stroke-width="6.0" stroke-linecap="round" stroke-linejoin="round" />
<path d="M 83.75 140.0 L 87.5 140.0 L 101.25 138.75 L 122.5 136.25 L 167.5 131.25 L 196.25 127.5 L 211.25 126.25 L 216.25 125.0 L 216.25 126.25 L 211.25 131.25 L 203.75 138.75 L 196.25 146.25 L 191.25 148.75 " stroke="black" fill="none" stroke-width="6.0" stroke-linecap="round" stroke-linejoin="round" />
<path d="M 105.0 150.0 L 105.0 150.0 L 103.75 148.75 L 102.5 150.0 L 103.75 156.25 L 106.25 165.0 L 107.5 171.25 L 107.5 173.75 L 106.25 172.5 L 105.0 167.5 L 105.0 162.5 L 105.0 158.75 L 106.25 156.25 L 113.75 152.5 L 125.0 152.5 L 136.25 152.5 L 141.25 156.25 L 137.5 161.25 L 126.25 168.75 L 115.0 173.75 L 110.0 175.0 L 111.25 173.75 L 123.75 167.5 L 131.25 162.5 " stroke="black" fill="none" stroke-width="6.0" stroke-linecap="round" stroke-linejoin="round" />
<path d="M 161.25 142.5 L 161.25 142.5 L 157.5 145.0 L 157.5 148.75 L 157.5 155.0 L 158.75 160.0 L 158.75 163.75 " stroke="black" fill="none" stroke-width="6.0" stroke-linecap="round" stroke-linejoin="round" />
<path d="M 160.0 150.0 L 162.5 150.0 L 165.0 148.75 L 170.0 147.5 L 177.5 147.5 L 185.0 148.75 L 187.5 150.0 L 183.75 153.75 L 172.5 158.75 L 160.0 163.75 L 151.25 167.5 L 150.0 167.5 L 158.75 166.25 L 173.75 160.0 L 187.5 155.0 " stroke="black" fill="none" stroke-width="6.0" stroke-linecap="round" stroke-linejoin="round" />
<path d="M 102.5 186.25 L 102.5 186.25 L 111.25 185.0 L 135.0 180.0 L 160.0 172.5 L 180.0 167.5 L 187.5 165.0 L 185.0 165.0 L 177.5 167.5 " stroke="black" fill="none" stroke-width="6.0" stroke-linecap="round" stroke-linejoin="round" />
<path d="M 112.5 201.25 L 112.5 201.25 L 123.75 201.25 L 147.5 193.75 L 167.5 188.75 L 181.25 185.0 L 182.5 183.75 L 180.0 185.0 " stroke="black" fill="none" stroke-width="6.0" stroke-linecap="round" stroke-linejoin="round" />
<path d="M 105.0 225.0 L 105.0 225.0 L 107.5 225.0 L 126.25 218.75 L 158.75 207.5 L 182.5 197.5 L 191.25 191.25 L 188.75 187.5 L 186.25 187.5 " stroke="black" fill="none" stroke-width="6.0" stroke-linecap="round" stroke-linejoin="round" />
<path d="M 146.25 166.25 L 145.0 166.25 L 142.5 168.75 L 142.5 177.5 L 142.5 193.75 L 143.75 207.5 L 143.75 213.75 " stroke="black" fill="none" stroke-width="6.0" stroke-linecap="round" stroke-linejoin="round" />
<path d="M 158.75 181.25 L 161.25 180.0 L 162.5 180.0 L 162.5 187.5 L 157.5 197.5 L 151.25 211.25 L 147.5 217.5 " stroke="black" fill="none" stroke-width="6.0" stroke-linecap="round" stroke-linejoin="round" />
<path d="M 147.5 211.25 L 146.25 212.5 L 137.5 222.5 L 126.25 236.25 L 113.75 253.75 L 106.25 265.0 L 106.25 266.25 L 110.0 260.0 L 113.75 255.0 " stroke="black" fill="none" stroke-width="6.0" stroke-linecap="round" stroke-linejoin="round" />
<path d="M 148.75 210.0 L 148.75 210.0 L 148.75 213.75 L 147.5 227.5 L 145.0 251.25 L 146.25 267.5 L 152.5 270.0 L 163.75 265.0 L 178.75 252.5 L 193.75 237.5 L 202.5 225.0 L 205.0 216.25 L 198.75 215.0 L 185.0 218.75 L 168.75 226.25 L 153.75 235.0 L 147.5 241.25 L 147.5 242.5 L 152.5 243.75 L 157.5 243.75 L 163.75 243.75 L 168.75 243.75 L 173.75 245.0 L 178.75 246.25 L 186.25 247.5 L 197.5 251.25 L 215.0 252.5 L 237.5 255.0 L 243.75 255.0 " stroke="black" fill="none" stroke-width="6.0" stroke-linecap="round" stroke-linejoin="round" />
</svg>