<svg xmlns="http://www.w3.org/2000/svg" width="300" height="300" viewBox="0 0 300 300">
<path d="M 70.0 145.0 L 66.25 143.75 L 62.5 143.75 L 62.5 146.25 L 71.25 158.75 L 82.5 177.5 L 90.0 188.75 L 91.25 191.25 L 90.0 183.75 L 88.75 176.25 " stroke="black" fill="none" stroke-width="6.0" stroke-linecap="round" stroke-linejoin="round" />
<path d="M 77.5 152.5 L 73.75 152.5 L 71.25 152.5 L 71.25 152.5 L 76.25 151.25 L 90.0 146.25 L 103.75 142.5 L 116.25 140.0 L 121.25 142.5 L 117.5 153.75 L 106.25 167.5 L 93.75 181.25 L 87.5 186.25 L 87.5 187.5 L 96.25 181.25 L 111.25 168.75 L 123.75 157.5 " stroke="black" fill="none" stroke-width="6.0" stroke-linecap="round" stroke-linejoin="round" />
<path d="M 142.5 95.0 L 138.75 96.25 L 132.5 97.5 L 133.75 97.5 L 147.5 93.75 L 167.5 87.5 L 192.5 76.25 L 207.5 66.25 L 210.0 63.75 L 203.75 65.0 L 195.0 70.0 L 183.75 73.75 L 170.0 77.5 L 157.5 80.0 L 150.0 81.25 L 148.75 83.75 L 150.0 88.75 L 155.0 100.0 L 158.75 112.5 L 161.25 121.25 L 161.25 121.25 " stroke="black" fill="none" stroke-width="6.0" stroke-linecap="round" stroke-linejoin="round" />
<path d="M 182.5 75.0 L 182.5 73.75 L 183.75 73.75 L 183.75 81.25 L 178.75 98.75 L 167.5 117.5 L 165.0 122.5 " stroke="black" fill="none" stroke-width="6.0" stroke-linecap="round" stroke-linejoin="round" />
<path d="M 147.5 130.0 L 146.25 130.0 L 143.75 128.75 L 142.5 128.75 L 143.75 132.5 L 148.75 142.5 L 155.0 156.25 L 158.75 166.25 L 160.0 168.75 L 160.0 165.0 L 157.5 157.5 L 156.25 150.0 L 153.75 143.75 L 151.25 141.25 L 150.0 140.0 L 150.0 138.75 L 158.75 136.25 L 175.0 131.25 L 193.75 123.75 L 205.0 120.0 L 206.25 120.0 L 201.25 126.25 L 191.25 137.5 L 178.75 147.5 L 162.5 158.75 L 152.5 165.0 L 150.0 167.5 L 155.0 166.25 L 167.5 158.75 L 185.0 147.5 L 202.5 135.0 L 211.25 126.25 L 211.25 123.75 L 207.5 126.25 " stroke="black" fill="none" stroke-width="6.0" stroke-linecap="round" stroke-linejoin="round" />
<path d="M 156.25 181.25 L 155.0 181.25 L 155.0 181.25 L 165.0 177.5 L 182.5 166.25 L 198.75 155.0 L 205.0 148.75 L 202.5 148.75 L 193.75 155.0 L 188.75 158.75 " stroke="black" fill="none" stroke-width="6.0" stroke-linecap="round" stroke-linejoin="round" />
<path d="M 152.5 198.75 L 151.25 200.0 L 150.0 203.75 L 153.75 203.75 L 168.75 197.5 L 191.25 183.75 L 210.0 166.25 L 218.75 153.75 L 216.25 151.25 L 210.0 152.5 " stroke="black" fill="none" stroke-width="6.0" stroke-linecap="round" stroke-linejoin="round" />
<path d="M 143.75 227.5 L 142.5 228.75 L 140.0 232.5 L 140.0 232.5 L 141.25 232.5 L 142.5 232.5 L 143.75 232.5 L 145.0 232.5 L 147.5 231.25 L 150.0 228.75 L 153.75 225.0 L 157.5 220.0 L 161.25 216.25 L 165.0 212.5 L 172.5 207.5 L 182.5 202.5 L 192.5 196.25 L 201.25 191.25 L 211.25 183.75 L 220.0 177.5 L 228.75 172.5 L 232.5 168.75 L 230.0 167.5 L 226.25 166.25 " stroke="black" fill="none" stroke-width="6.0" stroke-linecap="round" stroke-linejoin="round" />
<path d="M 173.75 122.5 L 173.75 122.5 L 173.75 122.5 L 180.0 136.25 L 188.75 168.75 L 191.25 206.25 L 183.75 232.5 L 172.5 248.75 L 158.75 257.5 L 148.75 260.0 L 146.25 257.5 " stroke="black" fill="none" stroke-width="6.0" stroke-linecap="round" stroke-linejoin="round" />
<path d="M 197.5 195.0 L 197.5 195.0 L 200.0 197.5 L 205.0 203.75 L 213.75 216.25 L 223.75 230.0 L 233.75 241.25 L 242.5 248.75 L 250.0 252.5 L 255.0 253.75 L 256.25 255.0 " stroke="black" fill="none" stroke-width="6.0" stroke-linecap="round" stroke-linejoin="round" />
</svg>