<svg xmlns="http://www.w3.org/2000/svg" width="300" height="300" viewBox="0 0 300 300">
<path d="M 65.0 151.25 L 63.75 152.5 L 60.0 156.25 L 66.25 155.0 L 82.5 148.75 L 101.25 140.0 L 117.5 130.0 L 123.75 122.5 L 121.25 121.25 " stroke="black" fill="none" stroke-width="6.0" stroke-linecap="round" stroke-linejoin="round" />
<path d="M 85.0 108.75 L 85.0 110.0 L 85.0 112.5 L 86.25 121.25 L 90.0 143.75 L 91.25 172.5 L 87.5 192.5 L 81.25 201.25 L 73.75 205.0 L 66.25 208.75 L 62.5 211.25 L 62.5 211.25 L 66.25 211.25 L 76.25 207.5 L 88.75 202.5 L 103.75 195.0 L 121.25 186.25 L 135.0 176.25 " stroke="black" fill="none" stroke-width="6.0" stroke-linecap="round" stroke-linejoin="round" />
<path d="M 143.75 90.0 L 138.75 92.5 L 133.75 93.75 L 135.0 93.75 L 147.5 91.25 L 166.25 87.5 L 187.5 82.5 L 200.0 78.75 L 202.5 77.5 L 191.25 80.0 L 177.5 85.0 L 163.75 87.5 " stroke="black" fill="none" stroke-width="6.0" stroke-linecap="round" stroke-linejoin="round" />
<path d="M 148.75 92.5 L 146.25 101.25 L 145.0 121.25 L 145.0 158.75 L 141.25 198.75 L 136.25 217.5 L 130.0 226.25 L 123.75 226.25 L 122.5 218.75 " stroke="black" fill="none" stroke-width="6.0" stroke-linecap="round" stroke-linejoin="round" />
<path d="M 161.25 136.25 L 157.5 138.75 L 155.0 140.0 L 161.25 140.0 L 175.0 140.0 L 195.0 136.25 L 212.5 127.5 L 222.5 118.75 L 220.0 115.0 L 215.0 116.25 " stroke="black" fill="none" stroke-width="6.0" stroke-linecap="round" stroke-linejoin="round" />
<path d="M 150.0 185.0 L 150.0 181.25 L 150.0 180.0 L 151.25 180.0 L 157.5 188.75 L 167.5 205.0 L 176.25 221.25 L 183.75 228.75 L 185.0 230.0 L 185.0 226.25 L 181.25 220.0 L 177.5 213.75 L 171.25 208.75 L 166.25 202.5 L 162.5 197.5 L 163.75 191.25 L 175.0 185.0 L 193.75 178.75 L 215.0 171.25 L 231.25 168.75 L 236.25 173.75 L 231.25 185.0 L 220.0 201.25 L 207.5 213.75 L 196.25 225.0 L 191.25 231.25 L 196.25 230.0 L 207.5 223.75 L 222.5 212.5 L 237.5 202.5 L 247.5 195.0 " stroke="black" fill="none" stroke-width="6.0" stroke-linecap="round" stroke-linejoin="round" />
</svg>