<svg xmlns="http://www.w3.org/2000/svg" width="300" height="300" viewBox="0 0 300 300">
<path d="M 90.0 107.5 L 88.75 107.5 L 87.5 106.25 L 86.25 106.25 L 86.25 127.5 L 88.75 172.5 L 90.0 218.75 L 91.25 237.5 L 91.25 237.5 L 91.25 235.0 " stroke="black" fill="none" stroke-width="6.0" stroke-linecap="round" stroke-linejoin="round" />
<path d="M 97.5 98.75 L 97.5 98.75 L 97.5 98.75 L 107.5 98.75 L 141.25 92.5 L 176.25 87.5 L 198.75 86.25 L 205.0 91.25 L 206.25 115.0 L 206.25 155.0 L 207.5 196.25 L 210.0 221.25 L 212.5 232.5 L 212.5 233.75 L 212.5 232.5 L 210.0 220.0 L 202.5 205.0 L 190.0 188.75 L 172.5 173.75 L 167.5 170.0 " stroke="black" fill="none" stroke-width="6.0" stroke-linecap="round" stroke-linejoin="round" />
<path d="M 105.0 153.75 L 105.0 155.0 L 105.0 155.0 L 107.5 153.75 L 143.75 140.0 L 156.25 132.5 L 158.75 130.0 L 155.0 133.75 " stroke="black" fill="none" stroke-width="6.0" stroke-linecap="round" stroke-linejoin="round" />
<path d="M 107.5 192.5 L 107.5 193.75 L 107.5 193.75 L 117.5 190.0 L 133.75 176.25 L 155.0 152.5 L 156.25 146.25 L 148.75 148.75 L 140.0 152.5 L 131.25 157.5 L 127.5 160.0 L 126.25 162.5 L 132.5 166.25 L 141.25 176.25 L 146.25 190.0 L 143.75 203.75 L 132.5 212.5 L 121.25 216.25 L 116.25 217.5 L 118.75 216.25 L 131.25 210.0 L 147.5 202.5 L 162.5 195.0 L 173.75 188.75 L 177.5 186.25 L 175.0 186.25 L 172.5 187.5 L 170.0 187.5 L 168.75 188.75 L 168.75 196.25 L 170.0 206.25 L 172.5 217.5 L 172.5 222.5 " stroke="black" fill="none" stroke-width="6.0" stroke-linecap="round" stroke-linejoin="round" />
</svg>