<svg xmlns="http://www.w3.org/2000/svg" width="300" height="300" viewBox="0 0 300 300">
<path d="M 92.5 90.0 L 92.5 90.0 L 92.5 91.25 L 91.25 111.25 L 91.25 167.5 L 90.0 215.0 L 90.0 230.0 L 91.25 228.75 L 91.25 226.25 " stroke="black" fill="none" stroke-width="6.0" stroke-linecap="round" stroke-linejoin="round" />
<path d="M 107.5 90.0 L 108.75 90.0 L 120.0 86.25 L 148.75 77.5 L 180.0 71.25 L 203.75 71.25 L 212.5 81.25 L 213.75 107.5 L 215.0 155.0 L 216.25 203.75 L 218.75 230.0 L 220.0 243.75 L 220.0 246.25 L 220.0 246.25 L 216.25 242.5 L 210.0 232.5 L 201.25 216.25 L 187.5 196.25 L 183.75 191.25 " stroke="black" fill="none" stroke-width="6.0" stroke-linecap="round" stroke-linejoin="round" />
<path d="M 146.25 105.0 L 145.0 105.0 L 142.5 102.5 L 141.25 102.5 L 141.25 103.75 L 140.0 115.0 L 138.75 125.0 L 138.75 130.0 L 141.25 130.0 L 150.0 127.5 L 162.5 121.25 L 172.5 117.5 L 175.0 120.0 L 166.25 135.0 L 147.5 156.25 L 130.0 173.75 L 113.75 181.25 L 106.25 176.25 " stroke="black" fill="none" stroke-width="6.0" stroke-linecap="round" stroke-linejoin="round" />
<path d="M 123.75 140.0 L 123.75 140.0 L 128.75 141.25 L 148.75 151.25 L 181.25 168.75 L 205.0 181.25 L 212.5 183.75 L 208.75 186.25 " stroke="black" fill="none" stroke-width="6.0" stroke-linecap="round" stroke-linejoin="round" />
<path d="M 137.5 182.5 L 136.25 182.5 L 136.25 183.75 L 140.0 183.75 L 152.5 183.75 L 167.5 183.75 L 171.25 183.75 " stroke="black" fill="none" stroke-width="6.0" stroke-linecap="round" stroke-linejoin="round" />
<path d="M 136.25 196.25 L 136.25 196.25 L 135.0 198.75 L 142.5 200.0 L 156.25 200.0 L 167.5 201.25 L 168.75 201.25 " stroke="black" fill="none" stroke-width="6.0" stroke-linecap="round" stroke-linejoin="round" />
<path d="M 116.25 223.75 L 116.25 227.5 L 125.0 228.75 L 151.25 227.5 L 186.25 223.75 L 211.25 221.25 L 213.75 220.0 " stroke="black" fill="none" stroke-width="6.0" stroke-linecap="round" stroke-linejoin="round" />
</svg>