<svg xmlns="http://www.w3.org/2000/svg" width="300" height="300" viewBox="0 0 300 300">
<path d="M 66.25 147.5 L 66.25 147.5 L 66.25 148.75 L 72.5 146.25 L 91.25 133.75 L 113.75 117.5 L 121.25 107.5 L 116.25 105.0 L 103.75 107.5 L 93.75 108.75 L 83.75 111.25 L 77.5 112.5 L 77.5 113.75 L 83.75 118.75 L 92.5 131.25 L 100.0 148.75 L 102.5 168.75 L 95.0 186.25 L 86.25 195.0 L 73.75 200.0 L 61.25 206.25 L 56.25 210.0 L 60.0 210.0 L 73.75 208.75 L 91.25 201.25 L 111.25 190.0 L 133.75 178.75 L 145.0 170.0 L 146.25 165.0 " stroke="black" fill="none" stroke-width="6.0" stroke-linecap="round" stroke-linejoin="round" />
<path d="M 152.5 83.75 L 152.5 83.75 L 152.5 85.0 L 153.75 87.5 L 166.25 90.0 L 186.25 91.25 L 202.5 85.0 L 210.0 76.25 L 208.75 71.25 L 203.75 72.5 " stroke="black" fill="none" stroke-width="6.0" stroke-linecap="round" stroke-linejoin="round" />
<path d="M 148.75 130.0 L 147.5 140.0 L 148.75 158.75 L 153.75 183.75 L 157.5 197.5 L 160.0 200.0 L 158.75 197.5 L 157.5 195.0 " stroke="black" fill="none" stroke-width="6.0" stroke-linecap="round" stroke-linejoin="round" />
<path d="M 152.5 146.25 L 152.5 146.25 L 150.0 145.0 L 152.5 141.25 L 166.25 135.0 L 190.0 130.0 L 208.75 130.0 L 215.0 138.75 L 211.25 155.0 L 201.25 173.75 L 190.0 187.5 L 177.5 192.5 L 173.75 192.5 " stroke="black" fill="none" stroke-width="6.0" stroke-linecap="round" stroke-linejoin="round" />
<path d="M 156.25 166.25 L 152.5 167.5 L 150.0 168.75 L 156.25 167.5 L 176.25 160.0 L 197.5 151.25 L 211.25 145.0 L 210.0 143.75 " stroke="black" fill="none" stroke-width="6.0" stroke-linecap="round" stroke-linejoin="round" />
<path d="M 160.0 198.75 L 160.0 198.75 L 160.0 201.25 L 162.5 201.25 L 177.5 198.75 L 197.5 190.0 L 205.0 185.0 " stroke="black" fill="none" stroke-width="6.0" stroke-linecap="round" stroke-linejoin="round" />
<path d="M 152.5 233.75 L 145.0 238.75 L 143.75 238.75 L 152.5 237.5 L 175.0 233.75 L 202.5 230.0 L 228.75 225.0 L 247.5 223.75 L 252.5 222.5 L 250.0 222.5 L 248.75 222.5 " stroke="black" fill="none" stroke-width="6.0" stroke-linecap="round" stroke-linejoin="round" />
</svg>