<svg xmlns="http://www.w3.org/2000/svg" width="300" height="300" viewBox="0 0 300 300">
<path d="M 88.75 101.25 L 86.25 101.25 L 85.0 118.75 L 85.0 166.25 L 85.0 211.25 L 87.5 236.25 L 90.0 238.75 L 90.0 235.0 " stroke="black" fill="none" stroke-width="6.0" stroke-linecap="round" stroke-linejoin="round" />
<path d="M 101.25 92.5 L 103.75 90.0 L 121.25 83.75 L 152.5 78.75 L 181.25 78.75 L 203.75 87.5 L 213.75 105.0 L 217.5 135.0 L 220.0 172.5 L 221.25 211.25 L 225.0 236.25 L 227.5 246.25 L 228.75 248.75 L 228.75 248.75 L 228.75 248.75 L 227.5 245.0 L 222.5 237.5 L 215.0 225.0 L 205.0 208.75 L 188.75 192.5 " stroke="black" fill="none" stroke-width="6.0" stroke-linecap="round" stroke-linejoin="round" />
<path d="M 113.75 113.75 L 107.5 113.75 L 103.75 113.75 L 107.5 113.75 L 121.25 108.75 L 140.0 101.25 L 155.0 93.75 L 161.25 90.0 L 156.25 90.0 L 145.0 92.5 L 135.0 93.75 L 126.25 97.5 L 122.5 100.0 L 122.5 103.75 L 126.25 117.5 L 128.75 132.5 L 130.0 141.25 L 123.75 143.75 L 112.5 143.75 L 102.5 143.75 L 100.0 143.75 L 101.25 142.5 L 115.0 140.0 L 136.25 133.75 L 156.25 125.0 L 171.25 116.25 L 172.5 112.5 L 170.0 112.5 " stroke="black" fill="none" stroke-width="6.0" stroke-linecap="round" stroke-linejoin="round" />
<path d="M 110.0 157.5 L 110.0 157.5 L 106.25 163.75 L 107.5 173.75 L 113.75 183.75 L 121.25 187.5 L 127.5 187.5 L 127.5 182.5 L 122.5 176.25 L 116.25 170.0 L 110.0 167.5 L 106.25 165.0 L 107.5 162.5 L 123.75 156.25 L 145.0 148.75 L 162.5 142.5 L 166.25 141.25 L 162.5 147.5 L 150.0 160.0 L 138.75 171.25 L 123.75 183.75 L 112.5 190.0 L 112.5 190.0 L 118.75 185.0 L 130.0 176.25 L 138.75 170.0 L 143.75 165.0 L 145.0 165.0 L 140.0 170.0 L 136.25 175.0 L 133.75 177.5 L 132.5 178.75 L 132.5 180.0 L 132.5 180.0 L 132.5 180.0 L 132.5 180.0 L 132.5 180.0 L 132.5 180.0 L 132.5 180.0 L 132.5 180.0 L 132.5 180.0 L 132.5 178.75 L 132.5 178.75 L 132.5 178.75 L 132.5 178.75 L 132.5 178.75 L 132.5 178.75 " stroke="black" fill="none" stroke-width="6.0" stroke-linecap="round" stroke-linejoin="round" />
<path d="M 128.75 186.25 L 125.0 186.25 L 121.25 190.0 L 116.25 200.0 L 108.75 216.25 L 102.5 231.25 L 98.75 233.75 L 98.75 227.5 " stroke="black" fill="none" stroke-width="6.0" stroke-linecap="round" stroke-linejoin="round" />
<path d="M 127.5 185.0 L 127.5 185.0 L 127.5 185.0 L 131.25 198.75 L 136.25 223.75 L 140.0 238.75 L 141.25 240.0 L 146.25 233.75 L 153.75 220.0 L 165.0 203.75 L 175.0 191.25 L 180.0 183.75 L 180.0 181.25 L 175.0 181.25 L 168.75 182.5 L 161.25 185.0 L 156.25 187.5 L 150.0 191.25 L 146.25 193.75 L 143.75 196.25 L 143.75 196.25 L 143.75 196.25 L 145.0 196.25 L 146.25 196.25 L 147.5 196.25 L 152.5 197.5 L 163.75 202.5 L 185.0 211.25 L 188.75 212.5 " stroke="black" fill="none" stroke-width="6.0" stroke-linecap="round" stroke-linejoin="round" />
<path d="M 103.75 246.25 L 100.0 247.5 L 97.5 248.75 L 97.5 248.75 L 112.5 250.0 L 142.5 248.75 L 178.75 245.0 L 208.75 241.25 L 211.25 240.0 " stroke="black" fill="none" stroke-width="6.0" stroke-linecap="round" stroke-linejoin="round" />
</svg>