<svg xmlns="http://www.w3.org/2000/svg" width="300" height="300" viewBox="0 0 300 300">
<path d="M 58.75 161.25 L 56.25 161.25 L 56.25 161.25 L 70.0 150.0 L 88.75 137.5 L 103.75 128.75 L 110.0 123.75 L 108.75 121.25 " stroke="black" fill="none" stroke-width="6.0" stroke-linecap="round" stroke-linejoin="round" />
<path d="M 75.0 122.5 L 72.5 123.75 L 71.25 127.5 L 73.75 141.25 L 78.75 167.5 L 80.0 192.5 L 78.75 203.75 L 71.25 207.5 L 65.0 208.75 L 63.75 208.75 L 66.25 207.5 L 76.25 202.5 L 88.75 193.75 L 101.25 180.0 L 112.5 161.25 " stroke="black" fill="none" stroke-width="6.0" stroke-linecap="round" stroke-linejoin="round" />
<path d="M 131.25 86.25 L 127.5 85.0 L 126.25 83.75 L 126.25 85.0 L 131.25 93.75 L 136.25 105.0 L 138.75 113.75 L 141.25 117.5 L 145.0 115.0 L 151.25 103.75 L 157.5 91.25 L 162.5 81.25 L 163.75 75.0 L 162.5 72.5 L 161.25 72.5 L 161.25 73.75 L 161.25 77.5 L 166.25 82.5 L 172.5 87.5 L 175.0 96.25 L 175.0 98.75 " stroke="black" fill="none" stroke-width="6.0" stroke-linecap="round" stroke-linejoin="round" />
<path d="M 123.75 138.75 L 122.5 138.75 L 122.5 140.0 L 123.75 142.5 L 131.25 151.25 L 138.75 160.0 L 143.75 163.75 L 150.0 160.0 L 162.5 148.75 L 176.25 135.0 L 190.0 122.5 L 195.0 117.5 L 191.25 120.0 L 178.75 128.75 " stroke="black" fill="none" stroke-width="6.0" stroke-linecap="round" stroke-linejoin="round" />
<path d="M 111.25 216.25 L 111.25 218.75 L 117.5 217.5 L 140.0 206.25 L 171.25 185.0 L 195.0 165.0 L 202.5 152.5 L 200.0 150.0 L 193.75 150.0 " stroke="black" fill="none" stroke-width="6.0" stroke-linecap="round" stroke-linejoin="round" />
<path d="M 153.75 161.25 L 153.75 162.5 L 153.75 168.75 L 153.75 188.75 L 151.25 221.25 L 145.0 247.5 L 135.0 260.0 L 120.0 265.0 L 113.75 262.5 " stroke="black" fill="none" stroke-width="6.0" stroke-linecap="round" stroke-linejoin="round" />
<path d="M 171.25 175.0 L 171.25 175.0 L 176.25 176.25 L 190.0 187.5 L 207.5 212.5 L 225.0 237.5 L 240.0 251.25 L 248.75 255.0 L 250.0 260.0 L 250.0 260.0 " stroke="black" fill="none" stroke-width="6.0" stroke-linecap="round" stroke-linejoin="round" />
</svg>