<svg xmlns="http://www.w3.org/2000/svg" width="300" height="300" viewBox="0 0 300 300">
<path d="M 62.5 147.5 L 62.5 148.75 L 57.5 152.5 L 58.75 152.5 L 70.0 148.75 L 86.25 141.25 L 101.25 133.75 L 107.5 126.25 " stroke="black" fill="none" stroke-width="6.0" stroke-linecap="round" stroke-linejoin="round" />
<path d="M 77.5 118.75 L 76.25 121.25 L 76.25 131.25 L 78.75 155.0 L 81.25 186.25 L 81.25 202.5 L 81.25 205.0 L 81.25 202.5 L 88.75 197.5 L 100.0 186.25 L 115.0 171.25 L 131.25 155.0 L 143.75 138.75 L 147.5 131.25 " stroke="black" fill="none" stroke-width="6.0" stroke-linecap="round" stroke-linejoin="round" />
<path d="M 142.5 96.25 L 140.0 96.25 L 131.25 96.25 L 125.0 97.5 L 123.75 98.75 L 127.5 98.75 L 142.5 97.5 L 165.0 88.75 L 187.5 81.25 L 202.5 75.0 L 202.5 76.25 L 191.25 81.25 L 181.25 85.0 " stroke="black" fill="none" stroke-width="6.0" stroke-linecap="round" stroke-linejoin="round" />
<path d="M 147.5 90.0 L 146.25 91.25 L 142.5 96.25 L 140.0 113.75 L 138.75 151.25 L 137.5 187.5 L 137.5 201.25 L 137.5 202.5 L 137.5 201.25 L 137.5 195.0 L 143.75 182.5 L 151.25 167.5 L 158.75 156.25 L 167.5 150.0 L 171.25 158.75 L 167.5 178.75 L 158.75 197.5 L 151.25 206.25 L 148.75 203.75 L 148.75 200.0 " stroke="black" fill="none" stroke-width="6.0" stroke-linecap="round" stroke-linejoin="round" />
<path d="M 170.0 90.0 L 171.25 87.5 L 171.25 86.25 L 172.5 86.25 L 178.75 98.75 L 190.0 133.75 L 198.75 163.75 L 210.0 206.25 L 221.25 225.0 L 230.0 237.5 L 237.5 245.0 L 242.5 250.0 L 243.75 250.0 L 243.75 250.0 L 243.75 248.75 L 243.75 241.25 L 245.0 225.0 L 246.25 202.5 L 248.75 173.75 L 248.75 147.5 " stroke="black" fill="none" stroke-width="6.0" stroke-linecap="round" stroke-linejoin="round" />
<path d="M 230.0 130.0 L 227.5 133.75 L 217.5 145.0 L 205.0 168.75 L 191.25 200.0 L 175.0 222.5 L 156.25 237.5 " stroke="black" fill="none" stroke-width="6.0" stroke-linecap="round" stroke-linejoin="round" />
<path d="M 202.5 60.0 L 202.5 60.0 L 202.5 58.75 L 203.75 58.75 L 212.5 60.0 L 230.0 68.75 L 238.75 77.5 " stroke="black" fill="none" stroke-width="6.0" stroke-linecap="round" stroke-linejoin="round" />
</svg>