<svg xmlns="http://www.w3.org/2000/svg" width="300" height="300" viewBox="0 0 300 300">
<path d="M 77.5 96.25 L 77.5 96.25 L 77.5 96.25 L 88.75 95.0 L 108.75 91.25 L 123.75 88.75 L 127.5 88.75 L 118.75 96.25 L 103.75 105.0 L 91.25 115.0 L 82.5 123.75 L 81.25 125.0 L 90.0 122.5 L 102.5 112.5 L 115.0 102.5 L 123.75 95.0 L 121.25 91.25 " stroke="black" fill="none" stroke-width="6.0" stroke-linecap="round" stroke-linejoin="round" />
<path d="M 77.5 101.25 L 77.5 105.0 L 71.25 125.0 L 66.25 156.25 L 58.75 188.75 L 55.0 200.0 L 50.0 205.0 L 50.0 202.5 " stroke="black" fill="none" stroke-width="6.0" stroke-linecap="round" stroke-linejoin="round" />
<path d="M 83.75 136.25 L 85.0 136.25 L 88.75 140.0 L 97.5 151.25 L 103.75 165.0 L 107.5 175.0 L 107.5 176.25 L 102.5 170.0 L 98.75 161.25 L 92.5 153.75 L 87.5 148.75 L 85.0 146.25 L 83.75 146.25 L 92.5 145.0 L 111.25 141.25 L 128.75 137.5 L 137.5 136.25 L 135.0 143.75 L 123.75 155.0 L 112.5 163.75 L 107.5 167.5 L 110.0 163.75 L 122.5 148.75 L 135.0 131.25 " stroke="black" fill="none" stroke-width="6.0" stroke-linecap="round" stroke-linejoin="round" />
<path d="M 162.5 72.5 L 162.5 72.5 L 162.5 72.5 L 163.75 72.5 L 171.25 72.5 L 182.5 72.5 L 191.25 71.25 L 190.0 73.75 L 188.75 75.0 " stroke="black" fill="none" stroke-width="6.0" stroke-linecap="round" stroke-linejoin="round" />
<path d="M 142.5 93.75 L 142.5 93.75 L 142.5 93.75 L 150.0 91.25 L 170.0 82.5 L 188.75 73.75 L 195.0 70.0 L 192.5 72.5 L 185.0 77.5 L 175.0 82.5 L 168.75 87.5 L 163.75 92.5 L 161.25 98.75 L 160.0 110.0 L 160.0 118.75 L 158.75 120.0 " stroke="black" fill="none" stroke-width="6.0" stroke-linecap="round" stroke-linejoin="round" />
<path d="M 183.75 78.75 L 183.75 78.75 L 185.0 77.5 L 186.25 81.25 L 187.5 91.25 L 182.5 105.0 L 170.0 120.0 L 156.25 128.75 L 151.25 130.0 L 152.5 130.0 L 163.75 125.0 L 180.0 116.25 L 197.5 105.0 L 206.25 97.5 L 207.5 96.25 L 200.0 100.0 L 188.75 110.0 " stroke="black" fill="none" stroke-width="6.0" stroke-linecap="round" stroke-linejoin="round" />
<path d="M 150.0 157.5 L 150.0 158.75 L 151.25 158.75 L 165.0 151.25 L 192.5 136.25 L 208.75 123.75 L 210.0 118.75 L 206.25 117.5 L 198.75 121.25 L 190.0 122.5 L 182.5 122.5 L 178.75 122.5 L 178.75 122.5 L 178.75 128.75 L 180.0 146.25 L 180.0 170.0 L 176.25 193.75 L 171.25 200.0 " stroke="black" fill="none" stroke-width="6.0" stroke-linecap="round" stroke-linejoin="round" />
<path d="M 115.0 210.0 L 115.0 211.25 L 125.0 207.5 L 147.5 197.5 L 166.25 186.25 L 171.25 180.0 L 166.25 177.5 " stroke="black" fill="none" stroke-width="6.0" stroke-linecap="round" stroke-linejoin="round" />
<path d="M 137.5 178.75 L 137.5 180.0 L 137.5 187.5 L 140.0 206.25 L 140.0 225.0 L 136.25 237.5 L 126.25 241.25 L 112.5 241.25 L 100.0 242.5 L 93.75 242.5 L 92.5 242.5 L 92.5 241.25 L 97.5 241.25 L 108.75 240.0 L 127.5 237.5 L 150.0 235.0 L 176.25 233.75 L 200.0 232.5 L 215.0 232.5 L 225.0 233.75 L 230.0 235.0 L 231.25 235.0 L 231.25 232.5 " stroke="black" fill="none" stroke-width="6.0" stroke-linecap="round" stroke-linejoin="round" />
</svg>