<svg xmlns="http://www.w3.org/2000/svg" width="300" height="300" viewBox="0 0 300 300">
<path d="M 156.25 57.5 L 156.25 58.75 L 155.0 58.75 L 155.0 63.75 L 155.0 76.25 L 156.25 90.0 L 157.5 97.5 " stroke="black" fill="none" stroke-width="6.0" stroke-linecap="round" stroke-linejoin="round" />
<path d="M 123.75 76.25 L 122.5 76.25 L 121.25 80.0 L 125.0 87.5 L 132.5 96.25 L 141.25 101.25 " stroke="black" fill="none" stroke-width="6.0" stroke-linecap="round" stroke-linejoin="round" />
<path d="M 203.75 58.75 L 203.75 60.0 L 202.5 65.0 L 197.5 73.75 L 183.75 90.0 L 166.25 106.25 L 157.5 110.0 " stroke="black" fill="none" stroke-width="6.0" stroke-linecap="round" stroke-linejoin="round" />
<path d="M 118.75 106.25 L 113.75 107.5 L 111.25 110.0 L 107.5 125.0 L 103.75 146.25 L 95.0 188.75 L 91.25 198.75 L 91.25 195.0 L 91.25 193.75 " stroke="black" fill="none" stroke-width="6.0" stroke-linecap="round" stroke-linejoin="round" />
<path d="M 106.25 121.25 L 107.5 120.0 L 116.25 118.75 L 145.0 117.5 L 181.25 117.5 L 208.75 116.25 L 220.0 115.0 L 218.75 117.5 L 207.5 127.5 L 191.25 137.5 L 182.5 141.25 " stroke="black" fill="none" stroke-width="6.0" stroke-linecap="round" stroke-linejoin="round" />
<path d="M 145.0 142.5 L 145.0 142.5 L 142.5 143.75 L 142.5 148.75 L 143.75 163.75 L 145.0 182.5 L 145.0 192.5 L 143.75 193.75 L 143.75 192.5 " stroke="black" fill="none" stroke-width="6.0" stroke-linecap="round" stroke-linejoin="round" />
<path d="M 138.75 161.25 L 137.5 156.25 L 140.0 151.25 L 151.25 147.5 L 171.25 146.25 L 188.75 146.25 L 193.75 150.0 L 186.25 157.5 L 171.25 167.5 L 156.25 178.75 L 143.75 186.25 L 140.0 188.75 L 145.0 186.25 L 160.0 180.0 L 177.5 170.0 L 191.25 161.25 L 195.0 158.75 " stroke="black" fill="none" stroke-width="6.0" stroke-linecap="round" stroke-linejoin="round" />
<path d="M 133.75 228.75 L 132.5 231.25 L 132.5 232.5 L 142.5 228.75 L 160.0 218.75 L 180.0 207.5 L 186.25 200.0 L 178.75 198.75 L 167.5 198.75 L 156.25 198.75 L 150.0 195.0 L 148.75 190.0 L 150.0 190.0 L 156.25 193.75 L 160.0 208.75 L 160.0 230.0 L 153.75 250.0 L 146.25 257.5 L 135.0 258.75 L 123.75 258.75 L 116.25 258.75 L 116.25 257.5 L 120.0 256.25 L 131.25 255.0 L 145.0 253.75 L 161.25 252.5 L 185.0 250.0 L 206.25 246.25 L 220.0 242.5 L 228.75 238.75 L 230.0 236.25 " stroke="black" fill="none" stroke-width="6.0" stroke-linecap="round" stroke-linejoin="round" />
</svg>