<svg xmlns="http://www.w3.org/2000/svg" width="300" height="300" viewBox="0 0 300 300">
<path d="M 62.5 136.25 L 62.5 136.25 L 61.25 138.75 L 62.5 140.0 L 76.25 138.75 L 91.25 132.5 L 107.5 123.75 L 118.75 113.75 L 117.5 107.5 L 112.5 107.5 " stroke="black" fill="none" stroke-width="6.0" stroke-linecap="round" stroke-linejoin="round" />
<path d="M 87.5 106.25 L 86.25 108.75 L 86.25 113.75 L 88.75 128.75 L 92.5 157.5 L 92.5 185.0 L 88.75 198.75 L 81.25 202.5 L 73.75 206.25 L 67.5 208.75 L 66.25 208.75 L 67.5 208.75 L 75.0 207.5 L 85.0 203.75 L 97.5 200.0 L 111.25 193.75 L 125.0 187.5 L 131.25 182.5 " stroke="black" fill="none" stroke-width="6.0" stroke-linecap="round" stroke-linejoin="round" />
<path d="M 145.0 90.0 L 141.25 90.0 L 140.0 90.0 L 143.75 88.75 L 162.5 83.75 L 187.5 76.25 L 207.5 68.75 L 213.75 63.75 L 210.0 62.5 L 200.0 70.0 L 197.5 71.25 " stroke="black" fill="none" stroke-width="6.0" stroke-linecap="round" stroke-linejoin="round" />
<path d="M 158.75 95.0 L 155.0 103.75 L 152.5 118.75 L 150.0 140.0 L 146.25 152.5 L 143.75 153.75 L 142.5 150.0 L 142.5 146.25 " stroke="black" fill="none" stroke-width="6.0" stroke-linecap="round" stroke-linejoin="round" />
<path d="M 151.25 123.75 L 151.25 121.25 L 153.75 121.25 L 158.75 121.25 L 167.5 126.25 L 176.25 130.0 L 182.5 132.5 " stroke="black" fill="none" stroke-width="6.0" stroke-linecap="round" stroke-linejoin="round" />
<path d="M 211.25 93.75 L 210.0 95.0 L 205.0 100.0 L 200.0 107.5 L 193.75 120.0 L 187.5 130.0 L 183.75 131.25 L 186.25 126.25 L 191.25 118.75 L 196.25 116.25 L 202.5 115.0 L 210.0 115.0 L 217.5 117.5 L 227.5 121.25 L 231.25 125.0 L 231.25 126.25 " stroke="black" fill="none" stroke-width="6.0" stroke-linecap="round" stroke-linejoin="round" />
<path d="M 172.5 71.25 L 172.5 71.25 L 173.75 70.0 L 178.75 75.0 L 185.0 95.0 L 186.25 118.75 L 181.25 137.5 L 170.0 146.25 L 157.5 148.75 " stroke="black" fill="none" stroke-width="6.0" stroke-linecap="round" stroke-linejoin="round" />
<path d="M 133.75 161.25 L 131.25 162.5 L 128.75 165.0 L 135.0 165.0 L 151.25 161.25 L 177.5 155.0 L 207.5 145.0 L 236.25 133.75 L 248.75 127.5 L 250.0 126.25 L 248.75 126.25 " stroke="black" fill="none" stroke-width="6.0" stroke-linecap="round" stroke-linejoin="round" />
<path d="M 150.0 180.0 L 148.75 180.0 L 147.5 178.75 L 145.0 178.75 L 145.0 190.0 L 145.0 212.5 L 148.75 235.0 L 152.5 246.25 L 152.5 247.5 L 152.5 246.25 " stroke="black" fill="none" stroke-width="6.0" stroke-linecap="round" stroke-linejoin="round" />
<path d="M 152.5 190.0 L 152.5 188.75 L 157.5 186.25 L 178.75 178.75 L 203.75 171.25 L 221.25 167.5 L 231.25 171.25 L 233.75 186.25 L 235.0 206.25 L 235.0 226.25 L 233.75 238.75 L 232.5 246.25 L 230.0 248.75 L 227.5 250.0 L 225.0 250.0 L 220.0 246.25 L 212.5 240.0 " stroke="black" fill="none" stroke-width="6.0" stroke-linecap="round" stroke-linejoin="round" />
<path d="M 171.25 197.5 L 168.75 198.75 L 166.25 202.5 L 166.25 210.0 L 170.0 222.5 L 175.0 232.5 L 176.25 236.25 L 173.75 235.0 L 172.5 233.75 " stroke="black" fill="none" stroke-width="6.0" stroke-linecap="round" stroke-linejoin="round" />
<path d="M 168.75 206.25 L 168.75 203.75 L 168.75 201.25 L 175.0 200.0 L 187.5 198.75 L 198.75 198.75 L 205.0 201.25 L 205.0 205.0 L 197.5 212.5 L 186.25 218.75 L 176.25 225.0 L 171.25 228.75 L 171.25 228.75 L 181.25 227.5 L 193.75 221.25 L 203.75 213.75 L 210.0 207.5 L 210.0 206.25 " stroke="black" fill="none" stroke-width="6.0" stroke-linecap="round" stroke-linejoin="round" />
<path d="M 170.0 248.75 L 170.0 251.25 L 178.75 251.25 L 195.0 245.0 L 211.25 236.25 L 222.5 226.25 " stroke="black" fill="none" stroke-width="6.0" stroke-linecap="round" stroke-linejoin="round" />
</svg>