<svg xmlns="http://www.w3.org/2000/svg" width="300" height="300" viewBox="0 0 300 300">
<path d="M 75.0 143.75 L 72.5 143.75 L 68.75 145.0 L 73.75 145.0 L 95.0 145.0 L 130.0 141.25 L 170.0 135.0 L 198.75 130.0 L 206.25 128.75 L 202.5 127.5 L 197.5 127.5 " stroke="black" fill="none" stroke-width="6.0" stroke-linecap="round" stroke-linejoin="round" />
<path d="M 140.0 82.5 L 138.75 82.5 L 138.75 82.5 L 145.0 95.0 L 156.25 130.0 L 158.75 165.0 L 155.0 186.25 L 148.75 197.5 L 138.75 202.5 L 128.75 206.25 L 121.25 206.25 L 118.75 206.25 L 118.75 206.25 L 118.75 206.25 L 118.75 206.25 L 118.75 205.0 L 118.75 205.0 L 118.75 205.0 L 118.75 205.0 L 118.75 205.0 L 118.75 205.0 L 118.75 205.0 L 118.75 205.0 L 118.75 205.0 L 120.0 205.0 L 128.75 205.0 L 147.5 203.75 L 173.75 198.75 L 195.0 193.75 L 201.25 191.25 L 202.5 191.25 L 200.0 191.25 L 200.0 191.25 " stroke="black" fill="none" stroke-width="6.0" stroke-linecap="round" stroke-linejoin="round" />
</svg>