<svg xmlns="http://www.w3.org/2000/svg" width="300" height="300" viewBox="0 0 300 300">
<path d="M 77.5 102.5 L 76.25 102.5 L 75.0 102.5 L 73.75 102.5 L 75.0 102.5 L 82.5 97.5 L 86.25 96.25 L 98.75 90.0 L 103.75 87.5 L 112.5 83.75 L 120.0 80.0 L 123.75 76.25 L 123.75 75.0 L 121.25 75.0 " stroke="black" fill="none" stroke-width="6.0" stroke-linecap="round" stroke-linejoin="round" />
<path d="M 91.25 72.5 L 91.25 72.5 L 90.0 73.75 L 90.0 73.75 L 90.0 76.25 L 90.0 78.75 L 91.25 82.5 L 93.75 88.75 L 95.0 95.0 L 95.0 101.25 L 95.0 106.25 L 93.75 111.25 L 87.5 117.5 L 77.5 122.5 L 62.5 130.0 L 52.5 135.0 L 50.0 135.0 L 57.5 135.0 L 61.25 135.0 L 75.0 131.25 L 80.0 130.0 L 103.75 117.5 L 115.0 110.0 L 127.5 102.5 L 135.0 97.5 L 140.0 92.5 L 141.25 91.25 L 140.0 90.0 L 135.0 91.25 " stroke="black" fill="none" stroke-width="6.0" stroke-linecap="round" stroke-linejoin="round" />
<path d="M 88.75 132.5 L 86.25 138.75 L 85.0 145.0 L 82.5 156.25 L 82.5 160.0 L 81.25 167.5 L 80.0 171.25 L 80.0 168.75 " stroke="black" fill="none" stroke-width="6.0" stroke-linecap="round" stroke-linejoin="round" />
<path d="M 103.75 122.5 L 103.75 122.5 L 103.75 122.5 L 106.25 125.0 L 110.0 130.0 L 112.5 138.75 L 111.25 148.75 L 105.0 156.25 L 102.5 157.5 L 93.75 162.5 L 90.0 163.75 L 82.5 167.5 L 75.0 171.25 L 67.5 173.75 L 63.75 176.25 L 62.5 176.25 L 62.5 176.25 L 65.0 176.25 L 76.25 173.75 L 95.0 166.25 L 117.5 155.0 L 133.75 146.25 L 140.0 142.5 L 140.0 142.5 L 132.5 143.75 " stroke="black" fill="none" stroke-width="6.0" stroke-linecap="round" stroke-linejoin="round" />
<path d="M 66.25 208.75 L 66.25 210.0 L 72.5 210.0 L 75.0 210.0 L 91.25 202.5 L 98.75 198.75 L 121.25 186.25 L 127.5 182.5 L 137.5 176.25 L 142.5 170.0 L 143.75 166.25 L 140.0 165.0 L 135.0 165.0 " stroke="black" fill="none" stroke-width="6.0" stroke-linecap="round" stroke-linejoin="round" />
<path d="M 100.0 170.0 L 100.0 173.75 L 98.75 181.25 L 98.75 185.0 L 100.0 200.0 L 100.0 206.25 L 98.75 233.75 L 97.5 243.75 L 96.25 246.25 L 96.25 246.25 " stroke="black" fill="none" stroke-width="6.0" stroke-linecap="round" stroke-linejoin="round" />
<path d="M 165.0 88.75 L 165.0 90.0 L 162.5 92.5 L 166.25 93.75 L 182.5 95.0 L 203.75 95.0 L 220.0 95.0 L 223.75 96.25 L 217.5 103.75 L 202.5 117.5 L 183.75 128.75 L 165.0 133.75 L 155.0 130.0 L 155.0 117.5 L 160.0 103.75 L 165.0 93.75 L 166.25 91.25 L 166.25 95.0 L 163.75 121.25 L 155.0 172.5 L 147.5 217.5 L 143.75 237.5 L 142.5 238.75 L 142.5 231.25 " stroke="black" fill="none" stroke-width="6.0" stroke-linecap="round" stroke-linejoin="round" />
<path d="M 157.5 170.0 L 158.75 170.0 L 163.75 167.5 L 178.75 163.75 L 198.75 160.0 L 215.0 160.0 L 218.75 163.75 L 213.75 176.25 L 198.75 193.75 L 178.75 211.25 L 156.25 222.5 L 151.25 225.0 " stroke="black" fill="none" stroke-width="6.0" stroke-linecap="round" stroke-linejoin="round" />
<path d="M 155.0 177.5 L 155.0 177.5 L 153.75 177.5 L 153.75 178.75 L 157.5 181.25 L 165.0 186.25 L 170.0 188.75 L 173.75 191.25 L 175.0 191.25 L 175.0 191.25 L 175.0 191.25 L 175.0 191.25 L 178.75 193.75 L 186.25 198.75 L 197.5 210.0 L 212.5 225.0 L 232.5 238.75 L 256.25 248.75 L 276.25 252.5 " stroke="black" fill="none" stroke-width="6.0" stroke-linecap="round" stroke-linejoin="round" />
</svg>