<svg xmlns="http://www.w3.org/2000/svg" width="300" height="300" viewBox="0 0 300 300">
<path d="M 85.0 108.75 L 83.75 108.75 L 80.0 108.75 L 82.5 106.25 L 93.75 102.5 L 107.5 98.75 L 118.75 95.0 L 120.0 95.0 " stroke="black" fill="none" stroke-width="6.0" stroke-linecap="round" stroke-linejoin="round" />
<path d="M 86.25 147.5 L 85.0 150.0 L 82.5 152.5 L 87.5 150.0 L 98.75 140.0 L 111.25 128.75 L 118.75 118.75 L 120.0 117.5 " stroke="black" fill="none" stroke-width="6.0" stroke-linecap="round" stroke-linejoin="round" />
<path d="M 90.0 182.5 L 87.5 186.25 L 87.5 185.0 L 98.75 172.5 L 116.25 153.75 L 128.75 138.75 " stroke="black" fill="none" stroke-width="6.0" stroke-linecap="round" stroke-linejoin="round" />
<path d="M 163.75 56.25 L 163.75 53.75 L 162.5 51.25 L 160.0 50.0 L 155.0 65.0 L 143.75 92.5 L 131.25 125.0 L 120.0 137.5 " stroke="black" fill="none" stroke-width="6.0" stroke-linecap="round" stroke-linejoin="round" />
<path d="M 153.75 57.5 L 156.25 56.25 L 161.25 55.0 L 178.75 55.0 L 201.25 61.25 L 217.5 68.75 L 230.0 76.25 L 230.0 86.25 L 220.0 93.75 " stroke="black" fill="none" stroke-width="6.0" stroke-linecap="round" stroke-linejoin="round" />
<path d="M 148.75 107.5 L 146.25 107.5 L 143.75 108.75 L 146.25 107.5 L 158.75 102.5 L 175.0 92.5 L 187.5 85.0 L 190.0 82.5 L 181.25 86.25 L 177.5 88.75 " stroke="black" fill="none" stroke-width="6.0" stroke-linecap="round" stroke-linejoin="round" />
<path d="M 143.75 142.5 L 143.75 142.5 L 143.75 142.5 L 153.75 136.25 L 177.5 117.5 L 196.25 100.0 L 200.0 92.5 L 195.0 91.25 L 193.75 91.25 " stroke="black" fill="none" stroke-width="6.0" stroke-linecap="round" stroke-linejoin="round" />
<path d="M 177.5 98.75 L 176.25 101.25 L 175.0 106.25 L 177.5 122.5 L 182.5 148.75 L 185.0 168.75 L 183.75 178.75 L 178.75 178.75 L 175.0 173.75 " stroke="black" fill="none" stroke-width="6.0" stroke-linecap="round" stroke-linejoin="round" />
<path d="M 175.0 132.5 L 173.75 133.75 L 165.0 141.25 L 157.5 156.25 L 148.75 176.25 L 143.75 183.75 L 142.5 183.75 " stroke="black" fill="none" stroke-width="6.0" stroke-linecap="round" stroke-linejoin="round" />
<path d="M 175.0 123.75 L 176.25 123.75 L 182.5 125.0 L 198.75 135.0 L 216.25 147.5 L 230.0 156.25 L 236.25 165.0 L 232.5 168.75 " stroke="black" fill="none" stroke-width="6.0" stroke-linecap="round" stroke-linejoin="round" />
<path d="M 127.5 230.0 L 125.0 231.25 L 123.75 231.25 L 135.0 225.0 L 151.25 213.75 L 168.75 201.25 L 177.5 193.75 L 175.0 192.5 L 165.0 193.75 " stroke="black" fill="none" stroke-width="6.0" stroke-linecap="round" stroke-linejoin="round" />
<path d="M 147.5 196.25 L 147.5 196.25 L 147.5 196.25 L 147.5 200.0 L 155.0 212.5 L 165.0 235.0 L 167.5 250.0 L 162.5 257.5 L 153.75 260.0 L 145.0 262.5 L 135.0 265.0 L 127.5 265.0 L 125.0 265.0 L 125.0 265.0 L 126.25 265.0 L 131.25 265.0 L 140.0 262.5 L 150.0 258.75 L 165.0 253.75 L 187.5 248.75 L 210.0 243.75 L 231.25 238.75 L 248.75 236.25 L 258.75 233.75 L 260.0 233.75 " stroke="black" fill="none" stroke-width="6.0" stroke-linecap="round" stroke-linejoin="round" />
</svg>