<svg xmlns="http://www.w3.org/2000/svg" width="300" height="300" viewBox="0 0 300 300">
<path d="M 87.5 71.25 L 87.5 70.0 L 87.5 70.0 L 87.5 70.0 L 90.0 77.5 L 95.0 98.75 L 98.75 121.25 L 106.25 127.5 L 125.0 116.25 L 148.75 97.5 L 167.5 85.0 L 175.0 81.25 L 176.25 81.25 L 166.25 86.25 L 160.0 90.0 " stroke="black" fill="none" stroke-width="6.0" stroke-linecap="round" stroke-linejoin="round" />
<path d="M 81.25 185.0 L 81.25 185.0 L 82.5 186.25 L 101.25 178.75 L 143.75 155.0 L 180.0 131.25 L 195.0 113.75 L 192.5 102.5 " stroke="black" fill="none" stroke-width="6.0" stroke-linecap="round" stroke-linejoin="round" />
<path d="M 132.5 65.0 L 132.5 66.25 L 135.0 72.5 L 142.5 103.75 L 141.25 155.0 L 132.5 188.75 L 110.0 218.75 L 91.25 238.75 L 78.75 242.5 L 71.25 235.0 L 71.25 231.25 " stroke="black" fill="none" stroke-width="6.0" stroke-linecap="round" stroke-linejoin="round" />
<path d="M 137.5 172.5 L 140.0 175.0 L 150.0 186.25 L 168.75 201.25 L 190.0 220.0 L 205.0 232.5 L 217.5 240.0 L 227.5 242.5 L 232.5 243.75 L 232.5 243.75 " stroke="black" fill="none" stroke-width="6.0" stroke-linecap="round" stroke-linejoin="round" />
</svg>