<svg xmlns="http://www.w3.org/2000/svg" width="300" height="300" viewBox="0 0 300 300">
<path d="M 140.0 57.5 L 136.25 58.75 L 136.25 60.0 L 140.0 60.0 L 148.75 63.75 L 160.0 66.25 L 166.25 70.0 L 165.0 72.5 " stroke="black" fill="none" stroke-width="6.0" stroke-linecap="round" stroke-linejoin="round" />
<path d="M 111.25 95.0 L 111.25 95.0 L 117.5 93.75 L 137.5 85.0 L 158.75 76.25 L 175.0 68.75 L 177.5 65.0 L 170.0 67.5 L 158.75 71.25 L 150.0 76.25 L 143.75 80.0 L 138.75 86.25 L 136.25 92.5 L 136.25 106.25 L 137.5 122.5 L 137.5 132.5 L 137.5 132.5 " stroke="black" fill="none" stroke-width="6.0" stroke-linecap="round" stroke-linejoin="round" />
<path d="M 165.0 85.0 L 166.25 83.75 L 167.5 83.75 L 168.75 87.5 L 168.75 93.75 L 160.0 111.25 L 148.75 125.0 L 135.0 133.75 L 115.0 140.0 L 95.0 146.25 L 83.75 152.5 L 82.5 153.75 L 92.5 151.25 L 115.0 145.0 L 143.75 136.25 L 173.75 125.0 L 198.75 115.0 L 205.0 110.0 L 200.0 108.75 " stroke="black" fill="none" stroke-width="6.0" stroke-linecap="round" stroke-linejoin="round" />
<path d="M 157.5 137.5 L 156.25 143.75 L 155.0 156.25 L 155.0 177.5 L 155.0 193.75 L 155.0 207.5 L 157.5 210.0 L 165.0 211.25 L 177.5 212.5 L 192.5 215.0 L 203.75 217.5 L 208.75 218.75 L 210.0 218.75 L 207.5 217.5 " stroke="black" fill="none" stroke-width="6.0" stroke-linecap="round" stroke-linejoin="round" />
<path d="M 185.0 145.0 L 185.0 145.0 L 185.0 145.0 L 185.0 148.75 L 186.25 173.75 L 177.5 207.5 L 163.75 232.5 L 147.5 243.75 L 132.5 247.5 L 118.75 247.5 " stroke="black" fill="none" stroke-width="6.0" stroke-linecap="round" stroke-linejoin="round" />
<path d="M 77.5 188.75 L 77.5 188.75 L 76.25 188.75 L 85.0 186.25 L 103.75 182.5 L 157.5 168.75 L 191.25 158.75 L 211.25 151.25 L 218.75 147.5 L 218.75 146.25 " stroke="black" fill="none" stroke-width="6.0" stroke-linecap="round" stroke-linejoin="round" />
</svg>