<svg xmlns="http://www.w3.org/2000/svg" width="300" height="300" viewBox="0 0 300 300">
<path d="M 91.25 108.75 L 91.25 108.75 L 92.5 107.5 L 92.5 108.75 L 92.5 132.5 L 90.0 178.75 L 82.5 221.25 L 76.25 243.75 L 71.25 248.75 L 65.0 246.25 L 63.75 243.75 " stroke="black" fill="none" stroke-width="6.0" stroke-linecap="round" stroke-linejoin="round" />
<path d="M 96.25 90.0 L 101.25 87.5 L 120.0 82.5 L 152.5 78.75 L 180.0 77.5 L 198.75 77.5 L 203.75 81.25 L 205.0 88.75 L 205.0 102.5 L 205.0 125.0 L 207.5 157.5 L 215.0 195.0 L 226.25 218.75 L 240.0 236.25 L 248.75 242.5 L 252.5 245.0 L 252.5 245.0 L 252.5 245.0 L 251.25 241.25 L 247.5 230.0 L 241.25 213.75 L 232.5 197.5 L 217.5 177.5 L 212.5 172.5 " stroke="black" fill="none" stroke-width="6.0" stroke-linecap="round" stroke-linejoin="round" />
<path d="M 116.25 130.0 L 113.75 130.0 L 111.25 130.0 L 112.5 130.0 L 126.25 128.75 L 146.25 126.25 L 161.25 125.0 L 170.0 125.0 L 170.0 130.0 L 158.75 141.25 L 145.0 152.5 L 131.25 165.0 L 118.75 173.75 L 112.5 177.5 L 113.75 177.5 L 125.0 176.25 L 140.0 171.25 L 156.25 166.25 L 170.0 163.75 L 177.5 166.25 L 176.25 178.75 L 165.0 198.75 L 150.0 216.25 L 137.5 228.75 L 126.25 236.25 L 117.5 236.25 " stroke="black" fill="none" stroke-width="6.0" stroke-linecap="round" stroke-linejoin="round" />
<path d="M 120.0 187.5 L 121.25 187.5 L 121.25 186.25 L 121.25 185.0 L 126.25 186.25 L 136.25 195.0 L 145.0 203.75 " stroke="black" fill="none" stroke-width="6.0" stroke-linecap="round" stroke-linejoin="round" />
</svg>