<svg xmlns="http://www.w3.org/2000/svg" width="300" height="300" viewBox="0 0 300 300">
<path d="M 147.5 80.0 L 146.25 76.25 L 145.0 75.0 L 143.75 75.0 L 143.75 77.5 L 141.25 86.25 L 136.25 97.5 L 132.5 105.0 L 131.25 107.5 L 133.75 108.75 L 145.0 107.5 L 157.5 105.0 L 172.5 102.5 L 181.25 102.5 L 180.0 112.5 L 166.25 131.25 L 146.25 152.5 L 125.0 173.75 L 102.5 190.0 L 90.0 195.0 L 86.25 193.75 L 86.25 192.5 " stroke="black" fill="none" stroke-width="6.0" stroke-linecap="round" stroke-linejoin="round" />
<path d="M 112.5 135.0 L 113.75 135.0 L 113.75 133.75 L 117.5 133.75 L 126.25 137.5 L 140.0 146.25 L 142.5 147.5 " stroke="black" fill="none" stroke-width="6.0" stroke-linecap="round" stroke-linejoin="round" />
<path d="M 182.5 151.25 L 182.5 151.25 L 182.5 151.25 L 180.0 151.25 L 172.5 160.0 L 163.75 172.5 L 157.5 180.0 L 156.25 181.25 L 163.75 181.25 L 178.75 176.25 L 193.75 171.25 L 207.5 170.0 L 212.5 175.0 L 201.25 206.25 L 186.25 228.75 L 167.5 247.5 L 147.5 258.75 L 133.75 261.25 L 125.0 256.25 L 123.75 255.0 " stroke="black" fill="none" stroke-width="6.0" stroke-linecap="round" stroke-linejoin="round" />
<path d="M 142.5 200.0 L 142.5 200.0 L 142.5 200.0 L 145.0 200.0 L 153.75 206.25 L 168.75 218.75 L 178.75 231.25 " stroke="black" fill="none" stroke-width="6.0" stroke-linecap="round" stroke-linejoin="round" />
</svg>