<svg xmlns="http://www.w3.org/2000/svg" width="300" height="300" viewBox="0 0 300 300">
<path d="M 73.75 93.75 L 73.75 93.75 L 73.75 91.25 L 73.75 91.25 L 73.75 103.75 L 73.75 120.0 L 76.25 132.5 L 78.75 136.25 L 86.25 135.0 L 96.25 126.25 L 103.75 116.25 L 111.25 107.5 L 115.0 101.25 L 116.25 96.25 L 113.75 95.0 L 111.25 95.0 L 110.0 95.0 L 110.0 95.0 L 110.0 95.0 L 110.0 95.0 L 110.0 96.25 L 110.0 102.5 L 111.25 126.25 L 112.5 170.0 L 113.75 207.5 L 115.0 226.25 L 112.5 236.25 L 108.75 237.5 L 102.5 236.25 L 101.25 233.75 " stroke="black" fill="none" stroke-width="6.0" stroke-linecap="round" stroke-linejoin="round" />
<path d="M 67.5 190.0 L 63.75 191.25 L 60.0 193.75 L 58.75 193.75 L 68.75 191.25 L 86.25 181.25 L 101.25 168.75 L 111.25 161.25 L 110.0 160.0 L 105.0 162.5 " stroke="black" fill="none" stroke-width="6.0" stroke-linecap="round" stroke-linejoin="round" />
<path d="M 91.25 178.75 L 91.25 178.75 L 90.0 181.25 L 87.5 186.25 L 86.25 201.25 L 81.25 222.5 L 76.25 240.0 L 71.25 243.75 L 70.0 235.0 " stroke="black" fill="none" stroke-width="6.0" stroke-linecap="round" stroke-linejoin="round" />
<path d="M 167.5 106.25 L 167.5 105.0 L 167.5 98.75 L 167.5 96.25 L 167.5 96.25 L 168.75 115.0 L 166.25 145.0 L 165.0 176.25 L 168.75 198.75 L 182.5 207.5 L 201.25 213.75 L 216.25 218.75 L 223.75 220.0 L 225.0 220.0 L 222.5 217.5 L 213.75 211.25 L 207.5 205.0 " stroke="black" fill="none" stroke-width="6.0" stroke-linecap="round" stroke-linejoin="round" />
<path d="M 206.25 101.25 L 206.25 101.25 L 207.5 105.0 L 208.75 133.75 L 203.75 180.0 L 193.75 211.25 L 178.75 230.0 L 161.25 241.25 L 148.75 241.25 " stroke="black" fill="none" stroke-width="6.0" stroke-linecap="round" stroke-linejoin="round" />
<path d="M 143.75 152.5 L 143.75 152.5 L 143.75 153.75 L 146.25 153.75 L 163.75 151.25 L 197.5 146.25 L 226.25 142.5 L 237.5 141.25 " stroke="black" fill="none" stroke-width="6.0" stroke-linecap="round" stroke-linejoin="round" />
</svg>