<svg xmlns="http://www.w3.org/2000/svg" width="300" height="300" viewBox="0 0 300 300">
<path d="M 78.75 126.25 L 78.75 126.25 L 77.5 126.25 L 77.5 130.0 L 81.25 145.0 L 90.0 180.0 L 101.25 205.0 L 118.75 208.75 L 136.25 206.25 L 143.75 201.25 L 147.5 197.5 L 147.5 197.5 " stroke="black" fill="none" stroke-width="6.0" stroke-linecap="round" stroke-linejoin="round" />
<path d="M 117.5 125.0 L 117.5 130.0 L 120.0 146.25 L 121.25 178.75 L 115.0 207.5 L 105.0 222.5 L 95.0 225.0 L 85.0 222.5 L 73.75 213.75 L 63.75 201.25 L 60.0 191.25 L 60.0 185.0 L 65.0 183.75 L 78.75 180.0 L 100.0 171.25 L 127.5 153.75 L 150.0 132.5 " stroke="black" fill="none" stroke-width="6.0" stroke-linecap="round" stroke-linejoin="round" />
<path d="M 170.0 88.75 L 170.0 88.75 L 167.5 88.75 L 171.25 88.75 L 186.25 87.5 L 201.25 86.25 L 212.5 86.25 L 213.75 91.25 L 205.0 107.5 L 192.5 127.5 L 186.25 143.75 L 188.75 148.75 L 198.75 152.5 L 210.0 162.5 L 215.0 181.25 L 216.25 206.25 L 210.0 230.0 L 202.5 246.25 L 197.5 253.75 L 192.5 253.75 L 187.5 250.0 L 180.0 241.25 L 177.5 237.5 " stroke="black" fill="none" stroke-width="6.0" stroke-linecap="round" stroke-linejoin="round" />
<path d="M 150.0 182.5 L 148.75 182.5 L 146.25 183.75 L 147.5 185.0 L 165.0 186.25 L 195.0 180.0 L 222.5 168.75 L 238.75 161.25 " stroke="black" fill="none" stroke-width="6.0" stroke-linecap="round" stroke-linejoin="round" />
</svg>