<svg xmlns="http://www.w3.org/2000/svg" width="300" height="300" viewBox="0 0 300 300">
<path d="M 106.25 97.5 L 105.0 98.75 L 101.25 100.0 L 108.75 100.0 L 131.25 95.0 L 156.25 85.0 L 171.25 76.25 L 175.0 71.25 L 171.25 68.75 L 165.0 66.25 L 155.0 65.0 L 148.75 65.0 L 145.0 71.25 L 140.0 88.75 L 131.25 125.0 L 122.5 151.25 L 118.75 156.25 L 116.25 151.25 L 116.25 150.0 " stroke="black" fill="none" stroke-width="6.0" stroke-linecap="round" stroke-linejoin="round" />
<path d="M 138.75 103.75 L 140.0 103.75 L 140.0 103.75 L 150.0 103.75 L 167.5 108.75 L 188.75 116.25 L 198.75 122.5 L 193.75 131.25 L 190.0 132.5 " stroke="black" fill="none" stroke-width="6.0" stroke-linecap="round" stroke-linejoin="round" />
<path d="M 71.25 177.5 L 65.0 178.75 L 63.75 181.25 L 80.0 181.25 L 108.75 172.5 L 152.5 152.5 L 193.75 133.75 L 208.75 123.75 L 210.0 121.25 L 200.0 126.25 L 185.0 135.0 " stroke="black" fill="none" stroke-width="6.0" stroke-linecap="round" stroke-linejoin="round" />
<path d="M 120.0 190.0 L 118.75 192.5 L 117.5 203.75 L 120.0 220.0 L 123.75 236.25 L 125.0 242.5 L 123.75 242.5 L 121.25 237.5 L 120.0 230.0 L 120.0 218.75 L 125.0 208.75 L 133.75 200.0 L 146.25 193.75 L 156.25 192.5 L 158.75 198.75 L 152.5 212.5 L 140.0 226.25 L 128.75 237.5 L 125.0 238.75 L 126.25 230.0 " stroke="black" fill="none" stroke-width="6.0" stroke-linecap="round" stroke-linejoin="round" />
<path d="M 188.75 143.75 L 187.5 143.75 L 185.0 143.75 L 185.0 150.0 L 188.75 173.75 L 193.75 210.0 L 196.25 241.25 L 196.25 257.5 L 193.75 263.75 L 191.25 268.75 L 187.5 271.25 L 183.75 273.75 L 178.75 275.0 L 172.5 276.25 L 163.75 275.0 L 150.0 271.25 L 138.75 265.0 " stroke="black" fill="none" stroke-width="6.0" stroke-linecap="round" stroke-linejoin="round" />
</svg>