<svg xmlns="http://www.w3.org/2000/svg" width="300" height="300" viewBox="0 0 300 300">
<path d="M 113.75 105.0 L 113.75 105.0 L 108.75 107.5 L 110.0 108.75 L 125.0 107.5 L 151.25 101.25 L 183.75 92.5 L 203.75 83.75 L 208.75 81.25 L 203.75 81.25 L 193.75 83.75 " stroke="black" fill="none" stroke-width="6.0" stroke-linecap="round" stroke-linejoin="round" />
<path d="M 76.25 173.75 L 72.5 176.25 L 73.75 178.75 L 88.75 178.75 L 117.5 168.75 L 147.5 157.5 L 197.5 141.25 L 217.5 132.5 L 222.5 130.0 L 212.5 130.0 L 206.25 130.0 " stroke="black" fill="none" stroke-width="6.0" stroke-linecap="round" stroke-linejoin="round" />
<path d="M 150.0 122.5 L 150.0 122.5 L 150.0 122.5 L 152.5 135.0 L 152.5 170.0 L 143.75 208.75 L 128.75 232.5 L 108.75 248.75 L 92.5 253.75 L 85.0 251.25 L 83.75 248.75 " stroke="black" fill="none" stroke-width="6.0" stroke-linecap="round" stroke-linejoin="round" />
<path d="M 150.0 167.5 L 152.5 167.5 L 157.5 166.25 L 168.75 175.0 L 186.25 193.75 L 203.75 216.25 L 217.5 231.25 L 233.75 240.0 L 247.5 242.5 L 253.75 243.75 L 255.0 245.0 L 252.5 248.75 L 248.75 251.25 " stroke="black" fill="none" stroke-width="6.0" stroke-linecap="round" stroke-linejoin="round" />
</svg>