<svg xmlns="http://www.w3.org/2000/svg" width="300" height="300" viewBox="0 0 300 300">
<path d="M 91.25 118.75 L 90.0 117.5 L 88.75 116.25 L 87.5 116.25 L 88.75 122.5 L 92.5 140.0 L 95.0 166.25 L 97.5 190.0 L 101.25 202.5 L 110.0 203.75 L 120.0 203.75 L 126.25 202.5 L 128.75 200.0 L 127.5 200.0 " stroke="black" fill="none" stroke-width="6.0" stroke-linecap="round" stroke-linejoin="round" />
<path d="M 110.0 127.5 L 110.0 127.5 L 110.0 128.75 L 113.75 136.25 L 116.25 156.25 L 115.0 187.5 L 103.75 211.25 L 90.0 218.75 L 73.75 221.25 " stroke="black" fill="none" stroke-width="6.0" stroke-linecap="round" stroke-linejoin="round" />
<path d="M 43.75 173.75 L 43.75 171.25 L 43.75 168.75 L 51.25 165.0 L 73.75 158.75 L 103.75 148.75 L 138.75 135.0 L 156.25 125.0 " stroke="black" fill="none" stroke-width="6.0" stroke-linecap="round" stroke-linejoin="round" />
<path d="M 157.5 97.5 L 157.5 97.5 L 153.75 101.25 L 157.5 101.25 L 171.25 97.5 L 188.75 92.5 L 206.25 86.25 L 212.5 83.75 L 211.25 83.75 " stroke="black" fill="none" stroke-width="6.0" stroke-linecap="round" stroke-linejoin="round" />
<path d="M 143.75 188.75 L 142.5 190.0 L 142.5 193.75 L 156.25 188.75 L 186.25 173.75 L 216.25 156.25 L 228.75 147.5 L 232.5 140.0 L 217.5 140.0 L 206.25 141.25 " stroke="black" fill="none" stroke-width="6.0" stroke-linecap="round" stroke-linejoin="round" />
<path d="M 156.25 135.0 L 156.25 135.0 L 155.0 135.0 L 155.0 138.75 L 158.75 150.0 L 162.5 178.75 L 161.25 206.25 L 155.0 221.25 L 151.25 221.25 " stroke="black" fill="none" stroke-width="6.0" stroke-linecap="round" stroke-linejoin="round" />
<path d="M 185.0 112.5 L 185.0 111.25 L 186.25 110.0 L 191.25 111.25 L 198.75 133.75 L 203.75 181.25 L 202.5 230.0 L 197.5 260.0 L 193.75 271.25 L 187.5 276.25 " stroke="black" fill="none" stroke-width="6.0" stroke-linecap="round" stroke-linejoin="round" />
</svg>