<svg xmlns="http://www.w3.org/2000/svg" width="300" height="300" viewBox="0 0 300 300">
<path d="M 78.75 111.25 L 77.5 112.5 L 73.75 116.25 L 72.5 130.0 L 75.0 155.0 L 86.25 183.75 L 102.5 198.75 L 121.25 203.75 L 132.5 203.75 L 133.75 203.75 L 127.5 203.75 L 125.0 202.5 " stroke="black" fill="none" stroke-width="6.0" stroke-linecap="round" stroke-linejoin="round" />
<path d="M 102.5 105.0 L 103.75 106.25 L 105.0 110.0 L 106.25 126.25 L 105.0 157.5 L 98.75 191.25 L 92.5 210.0 L 83.75 215.0 L 73.75 216.25 " stroke="black" fill="none" stroke-width="6.0" stroke-linecap="round" stroke-linejoin="round" />
<path d="M 47.5 167.5 L 47.5 167.5 L 47.5 167.5 L 51.25 166.25 L 67.5 162.5 L 97.5 151.25 L 125.0 136.25 L 131.25 130.0 " stroke="black" fill="none" stroke-width="6.0" stroke-linecap="round" stroke-linejoin="round" />
<path d="M 157.5 105.0 L 157.5 105.0 L 156.25 106.25 L 158.75 106.25 L 175.0 102.5 L 195.0 96.25 L 210.0 88.75 L 215.0 86.25 L 208.75 88.75 " stroke="black" fill="none" stroke-width="6.0" stroke-linecap="round" stroke-linejoin="round" />
<path d="M 138.75 178.75 L 135.0 186.25 L 140.0 187.5 L 158.75 178.75 L 193.75 158.75 L 222.5 140.0 L 238.75 127.5 L 240.0 122.5 L 230.0 121.25 L 215.0 122.5 L 203.75 122.5 " stroke="black" fill="none" stroke-width="6.0" stroke-linecap="round" stroke-linejoin="round" />
<path d="M 193.75 80.0 L 192.5 76.25 L 190.0 72.5 L 190.0 71.25 L 190.0 71.25 L 193.75 83.75 L 198.75 116.25 L 203.75 171.25 L 206.25 222.5 L 206.25 250.0 L 206.25 257.5 L 205.0 258.75 L 201.25 256.25 L 196.25 243.75 L 190.0 227.5 L 188.75 221.25 " stroke="black" fill="none" stroke-width="6.0" stroke-linecap="round" stroke-linejoin="round" />
<path d="M 197.5 160.0 L 197.5 163.75 L 192.5 172.5 L 182.5 188.75 L 170.0 211.25 L 157.5 230.0 L 148.75 238.75 L 143.75 240.0 L 142.5 232.5 L 142.5 225.0 " stroke="black" fill="none" stroke-width="6.0" stroke-linecap="round" stroke-linejoin="round" />
<path d="M 190.0 166.25 L 193.75 163.75 L 201.25 162.5 L 210.0 166.25 L 221.25 177.5 L 236.25 191.25 L 248.75 201.25 L 260.0 210.0 L 266.25 217.5 L 268.75 221.25 L 268.75 222.5 " stroke="black" fill="none" stroke-width="6.0" stroke-linecap="round" stroke-linejoin="round" />
</svg>