<svg xmlns="http://www.w3.org/2000/svg" width="300" height="300" viewBox="0 0 300 300">
<path d="M 93.75 141.25 L 92.5 142.5 L 91.25 143.75 L 106.25 143.75 L 138.75 133.75 L 176.25 117.5 L 198.75 103.75 L 203.75 96.25 L 195.0 95.0 " stroke="black" fill="none" stroke-width="6.0" stroke-linecap="round" stroke-linejoin="round" />
<path d="M 142.5 88.75 L 142.5 88.75 L 143.75 95.0 L 146.25 125.0 L 142.5 172.5 L 128.75 208.75 L 110.0 230.0 L 92.5 241.25 L 81.25 242.5 L 76.25 237.5 " stroke="black" fill="none" stroke-width="6.0" stroke-linecap="round" stroke-linejoin="round" />
<path d="M 151.25 153.75 L 152.5 156.25 L 165.0 177.5 L 188.75 206.25 L 210.0 233.75 L 230.0 250.0 L 247.5 262.5 L 252.5 265.0 L 245.0 265.0 " stroke="black" fill="none" stroke-width="6.0" stroke-linecap="round" stroke-linejoin="round" />
<path d="M 128.75 212.5 L 128.75 212.5 L 127.5 213.75 L 132.5 217.5 L 153.75 231.25 L 178.75 243.75 " stroke="black" fill="none" stroke-width="6.0" stroke-linecap="round" stroke-linejoin="round" />
</svg>