<svg xmlns="http://www.w3.org/2000/svg" width="300" height="300" viewBox="0 0 300 300">
<path d="M 76.25 100.0 L 76.25 100.0 L 73.75 101.25 L 73.75 102.5 L 80.0 102.5 L 90.0 102.5 L 101.25 98.75 L 105.0 97.5 " stroke="black" fill="none" stroke-width="6.0" stroke-linecap="round" stroke-linejoin="round" />
<path d="M 72.5 143.75 L 71.25 145.0 L 68.75 148.75 L 73.75 148.75 L 88.75 140.0 L 111.25 125.0 L 116.25 120.0 " stroke="black" fill="none" stroke-width="6.0" stroke-linecap="round" stroke-linejoin="round" />
<path d="M 145.0 55.0 L 145.0 53.75 L 145.0 52.5 L 145.0 55.0 L 143.75 67.5 L 142.5 82.5 L 141.25 91.25 L 143.75 92.5 L 153.75 87.5 L 170.0 78.75 L 188.75 72.5 L 198.75 71.25 L 200.0 72.5 L 192.5 78.75 L 181.25 87.5 L 168.75 96.25 L 157.5 100.0 L 156.25 101.25 " stroke="black" fill="none" stroke-width="6.0" stroke-linecap="round" stroke-linejoin="round" />
<path d="M 157.5 86.25 L 156.25 87.5 L 153.75 93.75 L 151.25 113.75 L 148.75 140.0 L 146.25 155.0 L 141.25 157.5 L 140.0 156.25 " stroke="black" fill="none" stroke-width="6.0" stroke-linecap="round" stroke-linejoin="round" />
<path d="M 158.75 107.5 L 161.25 107.5 L 171.25 115.0 L 187.5 130.0 L 202.5 143.75 L 211.25 153.75 L 211.25 155.0 " stroke="black" fill="none" stroke-width="6.0" stroke-linecap="round" stroke-linejoin="round" />
<path d="M 140.0 172.5 L 138.75 171.25 L 136.25 171.25 L 132.5 175.0 L 128.75 196.25 L 130.0 230.0 L 141.25 250.0 L 157.5 255.0 L 175.0 251.25 L 186.25 246.25 L 188.75 240.0 " stroke="black" fill="none" stroke-width="6.0" stroke-linecap="round" stroke-linejoin="round" />
<path d="M 161.25 158.75 L 162.5 161.25 L 166.25 177.5 L 166.25 211.25 L 156.25 243.75 L 145.0 262.5 L 131.25 270.0 L 112.5 270.0 L 103.75 266.25 " stroke="black" fill="none" stroke-width="6.0" stroke-linecap="round" stroke-linejoin="round" />
<path d="M 71.25 225.0 L 68.75 221.25 L 73.75 216.25 L 96.25 210.0 L 133.75 205.0 L 173.75 201.25 L 208.75 196.25 L 223.75 195.0 L 225.0 195.0 " stroke="black" fill="none" stroke-width="6.0" stroke-linecap="round" stroke-linejoin="round" />
</svg>