<svg xmlns="http://www.w3.org/2000/svg" width="300" height="300" viewBox="0 0 300 300">
<path d="M 86.25 101.25 L 82.5 102.5 L 81.25 102.5 L 91.25 103.75 L 115.0 98.75 L 151.25 86.25 L 187.5 73.75 L 203.75 63.75 L 205.0 60.0 L 198.75 56.25 L 196.25 55.0 " stroke="black" fill="none" stroke-width="6.0" stroke-linecap="round" stroke-linejoin="round" />
<path d="M 132.5 55.0 L 130.0 58.75 L 126.25 73.75 L 117.5 106.25 L 102.5 146.25 L 87.5 176.25 L 71.25 193.75 L 56.25 198.75 L 48.75 197.5 L 45.0 190.0 " stroke="black" fill="none" stroke-width="6.0" stroke-linecap="round" stroke-linejoin="round" />
<path d="M 153.75 85.0 L 162.5 86.25 L 180.0 95.0 L 201.25 108.75 L 216.25 123.75 L 233.75 136.25 L 243.75 145.0 L 245.0 147.5 L 235.0 148.75 " stroke="black" fill="none" stroke-width="6.0" stroke-linecap="round" stroke-linejoin="round" />
<path d="M 98.75 145.0 L 96.25 145.0 L 95.0 145.0 L 93.75 153.75 L 97.5 181.25 L 102.5 201.25 L 106.25 207.5 L 106.25 206.25 " stroke="black" fill="none" stroke-width="6.0" stroke-linecap="round" stroke-linejoin="round" />
<path d="M 101.25 153.75 L 101.25 153.75 L 103.75 152.5 L 123.75 148.75 L 156.25 142.5 L 186.25 138.75 L 202.5 138.75 L 205.0 146.25 L 200.0 157.5 L 187.5 171.25 L 173.75 182.5 L 158.75 187.5 L 155.0 187.5 " stroke="black" fill="none" stroke-width="6.0" stroke-linecap="round" stroke-linejoin="round" />
<path d="M 108.75 182.5 L 108.75 182.5 L 105.0 182.5 L 106.25 182.5 L 123.75 177.5 L 150.0 167.5 L 175.0 157.5 L 187.5 152.5 L 183.75 153.75 L 170.0 160.0 " stroke="black" fill="none" stroke-width="6.0" stroke-linecap="round" stroke-linejoin="round" />
<path d="M 126.25 203.75 L 122.5 206.25 L 120.0 210.0 L 131.25 208.75 L 147.5 198.75 L 168.75 183.75 L 186.25 167.5 L 188.75 157.5 L 187.5 156.25 " stroke="black" fill="none" stroke-width="6.0" stroke-linecap="round" stroke-linejoin="round" />
<path d="M 145.0 120.0 L 142.5 120.0 L 141.25 120.0 L 141.25 133.75 L 141.25 168.75 L 145.0 207.5 L 151.25 232.5 L 162.5 242.5 L 180.0 247.5 L 200.0 247.5 L 216.25 245.0 L 232.5 242.5 L 240.0 241.25 L 241.25 241.25 L 240.0 241.25 L 240.0 241.25 L 240.0 240.0 L 240.0 235.0 L 238.75 223.75 L 237.5 207.5 L 231.25 190.0 " stroke="black" fill="none" stroke-width="6.0" stroke-linecap="round" stroke-linejoin="round" />
</svg>