<svg xmlns="http://www.w3.org/2000/svg" width="300" height="300" viewBox="0 0 300 300">
<path d="M 102.5 78.75 L 98.75 78.75 L 101.25 78.75 L 120.0 78.75 L 151.25 70.0 L 182.5 56.25 L 195.0 48.75 L 193.75 47.5 L 183.75 47.5 L 170.0 50.0 L 155.0 51.25 L 143.75 52.5 L 135.0 55.0 L 131.25 62.5 L 130.0 80.0 L 123.75 111.25 L 106.25 147.5 L 87.5 166.25 L 72.5 172.5 L 65.0 171.25 " stroke="black" fill="none" stroke-width="6.0" stroke-linecap="round" stroke-linejoin="round" />
<path d="M 157.5 78.75 L 165.0 78.75 L 185.0 86.25 L 205.0 100.0 L 215.0 110.0 L 221.25 118.75 L 215.0 126.25 L 210.0 128.75 " stroke="black" fill="none" stroke-width="6.0" stroke-linecap="round" stroke-linejoin="round" />
<path d="M 150.0 102.5 L 146.25 103.75 L 137.5 113.75 L 125.0 135.0 L 112.5 155.0 L 106.25 161.25 L 106.25 156.25 " stroke="black" fill="none" stroke-width="6.0" stroke-linecap="round" stroke-linejoin="round" />
<path d="M 141.25 120.0 L 141.25 120.0 L 141.25 120.0 L 141.25 132.5 L 140.0 161.25 L 138.75 186.25 L 138.75 191.25 L 138.75 188.75 " stroke="black" fill="none" stroke-width="6.0" stroke-linecap="round" stroke-linejoin="round" />
<path d="M 152.5 102.5 L 152.5 102.5 L 152.5 102.5 L 153.75 102.5 L 161.25 102.5 L 175.0 102.5 L 183.75 102.5 L 183.75 102.5 " stroke="black" fill="none" stroke-width="6.0" stroke-linecap="round" stroke-linejoin="round" />
<path d="M 152.5 123.75 L 150.0 125.0 L 148.75 126.25 L 151.25 126.25 L 162.5 121.25 L 176.25 113.75 L 185.0 107.5 L 183.75 106.25 " stroke="black" fill="none" stroke-width="6.0" stroke-linecap="round" stroke-linejoin="round" />
<path d="M 148.75 146.25 L 146.25 147.5 L 145.0 148.75 L 153.75 145.0 L 168.75 136.25 L 183.75 125.0 L 190.0 118.75 L 185.0 118.75 L 177.5 118.75 L 172.5 120.0 L 170.0 120.0 L 168.75 121.25 L 168.75 127.5 L 168.75 141.25 L 168.75 155.0 L 168.75 163.75 L 167.5 165.0 L 163.75 162.5 L 161.25 160.0 L 161.25 158.75 L 161.25 157.5 L 166.25 153.75 L 176.25 148.75 L 185.0 142.5 L 191.25 138.75 L 190.0 140.0 L 181.25 148.75 L 170.0 160.0 L 157.5 175.0 L 152.5 185.0 L 152.5 185.0 L 162.5 180.0 L 176.25 168.75 L 190.0 156.25 L 197.5 147.5 L 196.25 147.5 L 183.75 155.0 L 180.0 157.5 " stroke="black" fill="none" stroke-width="6.0" stroke-linecap="round" stroke-linejoin="round" />
<path d="M 100.0 232.5 L 92.5 241.25 L 92.5 241.25 L 106.25 236.25 L 136.25 218.75 L 173.75 196.25 L 207.5 173.75 L 223.75 160.0 L 226.25 157.5 L 220.0 156.25 L 210.0 157.5 L 202.5 160.0 L 198.75 162.5 L 197.5 163.75 L 197.5 167.5 L 198.75 176.25 L 201.25 192.5 L 205.0 218.75 L 208.75 250.0 L 210.0 261.25 L 210.0 262.5 L 207.5 261.25 L 202.5 258.75 L 193.75 253.75 L 180.0 246.25 L 176.25 243.75 " stroke="black" fill="none" stroke-width="6.0" stroke-linecap="round" stroke-linejoin="round" />
<path d="M 146.25 200.0 L 145.0 200.0 L 142.5 201.25 L 143.75 203.75 L 155.0 215.0 L 170.0 228.75 L 173.75 232.5 " stroke="black" fill="none" stroke-width="6.0" stroke-linecap="round" stroke-linejoin="round" />
</svg>