<svg xmlns="http://www.w3.org/2000/svg" width="300" height="300" viewBox="0 0 300 300">
<path d="M 87.5 92.5 L 87.5 92.5 L 87.5 92.5 L 87.5 102.5 L 86.25 138.75 L 85.0 172.5 L 85.0 191.25 L 90.0 198.75 L 97.5 201.25 L 107.5 206.25 L 120.0 212.5 L 130.0 218.75 L 135.0 222.5 L 133.75 223.75 L 128.75 220.0 " stroke="black" fill="none" stroke-width="6.0" stroke-linecap="round" stroke-linejoin="round" />
<path d="M 120.0 105.0 L 120.0 105.0 L 120.0 113.75 L 121.25 143.75 L 112.5 185.0 L 101.25 208.75 L 91.25 218.75 L 76.25 223.75 L 62.5 223.75 " stroke="black" fill="none" stroke-width="6.0" stroke-linecap="round" stroke-linejoin="round" />
<path d="M 45.0 143.75 L 45.0 143.75 L 46.25 143.75 L 57.5 143.75 L 86.25 146.25 L 111.25 143.75 L 138.75 136.25 " stroke="black" fill="none" stroke-width="6.0" stroke-linecap="round" stroke-linejoin="round" />
<path d="M 178.75 81.25 L 178.75 81.25 L 175.0 87.5 L 166.25 111.25 L 155.0 136.25 L 147.5 148.75 L 146.25 150.0 L 152.5 148.75 L 168.75 141.25 L 188.75 131.25 L 205.0 121.25 L 213.75 110.0 L 215.0 102.5 L 210.0 100.0 L 205.0 98.75 L 202.5 98.75 L 201.25 98.75 L 201.25 98.75 L 201.25 98.75 L 202.5 98.75 L 205.0 101.25 L 211.25 107.5 L 221.25 118.75 L 233.75 135.0 L 238.75 142.5 " stroke="black" fill="none" stroke-width="6.0" stroke-linecap="round" stroke-linejoin="round" />
<path d="M 146.25 195.0 L 146.25 195.0 L 143.75 195.0 L 143.75 197.5 L 151.25 211.25 L 163.75 227.5 L 175.0 236.25 L 178.75 236.25 L 177.5 230.0 " stroke="black" fill="none" stroke-width="6.0" stroke-linecap="round" stroke-linejoin="round" />
<path d="M 161.25 203.75 L 160.0 201.25 L 153.75 196.25 L 153.75 192.5 L 166.25 188.75 L 188.75 183.75 L 213.75 177.5 L 232.5 176.25 L 237.5 182.5 L 226.25 197.5 L 208.75 213.75 L 191.25 230.0 L 182.5 240.0 L 185.0 240.0 L 200.0 231.25 L 221.25 216.25 L 245.0 201.25 L 250.0 198.75 " stroke="black" fill="none" stroke-width="6.0" stroke-linecap="round" stroke-linejoin="round" />
</svg>