<svg xmlns="http://www.w3.org/2000/svg" width="300" height="300" viewBox="0 0 300 300">
<path d="M 96.25 113.75 L 96.25 113.75 L 96.25 113.75 L 96.25 122.5 L 96.25 152.5 L 95.0 192.5 L 98.75 215.0 L 110.0 221.25 L 127.5 225.0 L 141.25 226.25 L 145.0 226.25 L 143.75 226.25 L 142.5 226.25 " stroke="black" fill="none" stroke-width="6.0" stroke-linecap="round" stroke-linejoin="round" />
<path d="M 128.75 135.0 L 128.75 135.0 L 128.75 140.0 L 130.0 160.0 L 127.5 193.75 L 120.0 215.0 L 106.25 228.75 L 93.75 230.0 L 82.5 226.25 L 70.0 215.0 " stroke="black" fill="none" stroke-width="6.0" stroke-linecap="round" stroke-linejoin="round" />
<path d="M 51.25 192.5 L 50.0 188.75 L 48.75 187.5 L 61.25 185.0 L 88.75 181.25 L 123.75 172.5 L 160.0 156.25 L 186.25 140.0 L 191.25 135.0 " stroke="black" fill="none" stroke-width="6.0" stroke-linecap="round" stroke-linejoin="round" />
<path d="M 172.5 127.5 L 172.5 127.5 L 172.5 128.75 L 178.75 128.75 L 197.5 122.5 L 217.5 111.25 L 230.0 101.25 L 230.0 97.5 L 226.25 97.5 " stroke="black" fill="none" stroke-width="6.0" stroke-linecap="round" stroke-linejoin="round" />
<path d="M 202.5 91.25 L 201.25 90.0 L 201.25 92.5 L 201.25 115.0 L 200.0 160.0 L 195.0 197.5 L 188.75 205.0 " stroke="black" fill="none" stroke-width="6.0" stroke-linecap="round" stroke-linejoin="round" />
<path d="M 162.5 183.75 L 162.5 186.25 L 163.75 192.5 L 172.5 208.75 L 181.25 227.5 L 188.75 237.5 L 190.0 238.75 L 190.0 236.25 L 188.75 230.0 L 185.0 222.5 L 182.5 215.0 L 178.75 207.5 L 176.25 203.75 L 173.75 202.5 L 178.75 201.25 L 195.0 200.0 L 216.25 193.75 L 240.0 185.0 L 251.25 183.75 L 253.75 186.25 L 245.0 198.75 L 231.25 212.5 L 215.0 226.25 L 203.75 236.25 L 202.5 237.5 L 208.75 237.5 L 223.75 235.0 L 243.75 228.75 L 261.25 220.0 L 265.0 218.75 " stroke="black" fill="none" stroke-width="6.0" stroke-linecap="round" stroke-linejoin="round" />
</svg>