<svg xmlns="http://www.w3.org/2000/svg" width="300" height="300" viewBox="0 0 300 300">
<path d="M 70.0 133.75 L 70.0 127.5 L 70.0 126.25 L 71.25 130.0 L 73.75 146.25 L 76.25 171.25 L 80.0 197.5 L 87.5 212.5 L 96.25 216.25 L 110.0 217.5 L 121.25 217.5 L 126.25 216.25 L 125.0 215.0 " stroke="black" fill="none" stroke-width="6.0" stroke-linecap="round" stroke-linejoin="round" />
<path d="M 97.5 135.0 L 98.75 135.0 L 98.75 136.25 L 100.0 156.25 L 97.5 191.25 L 91.25 215.0 L 81.25 223.75 L 68.75 227.5 L 63.75 227.5 " stroke="black" fill="none" stroke-width="6.0" stroke-linecap="round" stroke-linejoin="round" />
<path d="M 45.0 193.75 L 43.75 188.75 L 47.5 186.25 L 62.5 182.5 L 88.75 173.75 L 116.25 160.0 L 122.5 156.25 " stroke="black" fill="none" stroke-width="6.0" stroke-linecap="round" stroke-linejoin="round" />
<path d="M 151.25 92.5 L 148.75 90.0 L 147.5 90.0 L 147.5 92.5 L 151.25 111.25 L 156.25 137.5 L 158.75 153.75 L 161.25 156.25 L 161.25 150.0 L 160.0 148.75 " stroke="black" fill="none" stroke-width="6.0" stroke-linecap="round" stroke-linejoin="round" />
<path d="M 153.75 106.25 L 150.0 106.25 L 148.75 106.25 L 148.75 106.25 L 160.0 101.25 L 178.75 95.0 L 198.75 90.0 L 212.5 87.5 L 216.25 88.75 L 213.75 97.5 L 206.25 110.0 L 198.75 122.5 L 192.5 128.75 L 191.25 130.0 " stroke="black" fill="none" stroke-width="6.0" stroke-linecap="round" stroke-linejoin="round" />
<path d="M 181.25 120.0 L 178.75 120.0 L 175.0 120.0 L 172.5 120.0 L 175.0 120.0 L 183.75 115.0 L 193.75 107.5 L 201.25 102.5 L 201.25 101.25 L 197.5 102.5 L 190.0 106.25 L 183.75 110.0 L 178.75 115.0 L 175.0 118.75 L 173.75 123.75 L 173.75 132.5 L 173.75 145.0 L 173.75 150.0 " stroke="black" fill="none" stroke-width="6.0" stroke-linecap="round" stroke-linejoin="round" />
<path d="M 143.75 161.25 L 142.5 160.0 L 141.25 158.75 L 140.0 158.75 L 140.0 176.25 L 141.25 201.25 L 142.5 223.75 L 145.0 233.75 L 146.25 233.75 L 147.5 223.75 L 150.0 212.5 L 150.0 208.75 " stroke="black" fill="none" stroke-width="6.0" stroke-linecap="round" stroke-linejoin="round" />
<path d="M 146.25 181.25 L 145.0 178.75 L 143.75 177.5 L 143.75 175.0 L 153.75 167.5 L 172.5 156.25 L 196.25 143.75 L 213.75 136.25 L 225.0 135.0 L 232.5 142.5 L 237.5 160.0 L 240.0 185.0 L 242.5 211.25 L 243.75 238.75 L 245.0 257.5 L 245.0 263.75 L 245.0 265.0 L 245.0 263.75 L 243.75 260.0 L 238.75 251.25 L 230.0 238.75 L 217.5 225.0 L 215.0 221.25 " stroke="black" fill="none" stroke-width="6.0" stroke-linecap="round" stroke-linejoin="round" />
<path d="M 165.0 192.5 L 165.0 192.5 L 165.0 192.5 L 165.0 195.0 L 172.5 203.75 L 180.0 213.75 L 182.5 221.25 L 182.5 222.5 L 178.75 218.75 L 175.0 211.25 L 171.25 203.75 L 168.75 197.5 L 167.5 193.75 L 170.0 190.0 L 182.5 187.5 L 197.5 185.0 L 210.0 183.75 L 212.5 186.25 L 210.0 195.0 L 201.25 207.5 L 192.5 218.75 L 186.25 227.5 L 185.0 228.75 L 191.25 226.25 L 203.75 216.25 L 217.5 202.5 L 223.75 193.75 " stroke="black" fill="none" stroke-width="6.0" stroke-linecap="round" stroke-linejoin="round" />
</svg>