<svg xmlns="http://www.w3.org/2000/svg" width="300" height="300" viewBox="0 0 300 300">
<path d="M 81.25 126.25 L 80.0 125.0 L 80.0 125.0 L 81.25 128.75 L 92.5 148.75 L 111.25 182.5 L 131.25 206.25 L 145.0 212.5 L 147.5 213.75 " stroke="black" fill="none" stroke-width="6.0" stroke-linecap="round" stroke-linejoin="round" />
<path d="M 122.5 110.0 L 122.5 107.5 L 125.0 108.75 L 130.0 131.25 L 128.75 168.75 L 118.75 200.0 L 105.0 213.75 L 91.25 218.75 L 75.0 218.75 L 58.75 215.0 L 53.75 210.0 L 57.5 202.5 L 76.25 188.75 L 100.0 170.0 L 131.25 143.75 L 156.25 117.5 " stroke="black" fill="none" stroke-width="6.0" stroke-linecap="round" stroke-linejoin="round" />
<path d="M 161.25 63.75 L 162.5 62.5 L 163.75 60.0 L 167.5 60.0 L 175.0 71.25 L 180.0 86.25 L 183.75 97.5 L 183.75 100.0 L 182.5 96.25 L 177.5 90.0 L 172.5 85.0 L 170.0 81.25 L 168.75 77.5 L 178.75 70.0 L 192.5 63.75 L 205.0 57.5 L 208.75 56.25 L 205.0 61.25 " stroke="black" fill="none" stroke-width="6.0" stroke-linecap="round" stroke-linejoin="round" />
<path d="M 166.25 111.25 L 161.25 130.0 L 160.0 155.0 L 161.25 186.25 L 166.25 202.5 L 171.25 205.0 L 173.75 202.5 L 172.5 195.0 L 171.25 186.25 L 170.0 173.75 L 168.75 160.0 L 166.25 147.5 L 165.0 136.25 L 163.75 130.0 L 171.25 125.0 L 185.0 118.75 L 201.25 112.5 L 212.5 113.75 L 218.75 133.75 L 218.75 161.25 L 213.75 186.25 L 211.25 201.25 L 207.5 202.5 L 206.25 201.25 " stroke="black" fill="none" stroke-width="6.0" stroke-linecap="round" stroke-linejoin="round" />
<path d="M 173.75 157.5 L 172.5 157.5 L 165.0 158.75 L 162.5 158.75 L 166.25 156.25 L 181.25 146.25 L 196.25 133.75 L 207.5 125.0 L 208.75 122.5 " stroke="black" fill="none" stroke-width="6.0" stroke-linecap="round" stroke-linejoin="round" />
<path d="M 170.0 173.75 L 170.0 175.0 L 167.5 177.5 L 168.75 176.25 L 182.5 166.25 L 198.75 151.25 L 211.25 138.75 L 212.5 137.5 " stroke="black" fill="none" stroke-width="6.0" stroke-linecap="round" stroke-linejoin="round" />
<path d="M 170.0 210.0 L 170.0 210.0 L 167.5 212.5 L 171.25 212.5 L 185.0 201.25 L 202.5 187.5 L 215.0 177.5 L 217.5 180.0 L 206.25 197.5 L 191.25 218.75 L 171.25 243.75 L 152.5 262.5 L 146.25 266.25 L 146.25 263.75 " stroke="black" fill="none" stroke-width="6.0" stroke-linecap="round" stroke-linejoin="round" />
<path d="M 195.0 212.5 L 196.25 212.5 L 198.75 212.5 L 205.0 215.0 L 216.25 222.5 L 231.25 232.5 L 242.5 240.0 L 247.5 243.75 L 248.75 247.5 L 248.75 251.25 L 246.25 253.75 " stroke="black" fill="none" stroke-width="6.0" stroke-linecap="round" stroke-linejoin="round" />
</svg>