<svg xmlns="http://www.w3.org/2000/svg" width="300" height="300" viewBox="0 0 300 300">
<path d="M 93.75 96.25 L 90.0 97.5 L 87.5 98.75 L 86.25 98.75 L 92.5 98.75 L 112.5 95.0 L 140.0 91.25 L 167.5 86.25 L 183.75 81.25 L 183.75 80.0 L 173.75 78.75 L 160.0 82.5 L 147.5 85.0 L 137.5 87.5 L 125.0 90.0 L 120.0 91.25 " stroke="black" fill="none" stroke-width="6.0" stroke-linecap="round" stroke-linejoin="round" />
<path d="M 98.75 93.75 L 96.25 96.25 L 95.0 100.0 L 93.75 103.75 L 96.25 120.0 L 97.5 160.0 L 93.75 208.75 L 85.0 235.0 L 75.0 242.5 L 67.5 241.25 L 66.25 228.75 L 67.5 217.5 " stroke="black" fill="none" stroke-width="6.0" stroke-linecap="round" stroke-linejoin="round" />
<path d="M 102.5 141.25 L 102.5 142.5 L 101.25 145.0 L 103.75 147.5 L 116.25 147.5 L 132.5 142.5 L 147.5 136.25 L 152.5 132.5 L 152.5 132.5 L 143.75 141.25 L 132.5 157.5 L 126.25 180.0 L 126.25 203.75 L 137.5 216.25 L 152.5 218.75 L 165.0 217.5 L 171.25 213.75 L 172.5 211.25 L 167.5 208.75 L 160.0 208.75 " stroke="black" fill="none" stroke-width="6.0" stroke-linecap="round" stroke-linejoin="round" />
<path d="M 152.5 160.0 L 153.75 163.75 L 153.75 172.5 L 153.75 187.5 L 147.5 205.0 L 138.75 217.5 L 127.5 220.0 L 117.5 218.75 " stroke="black" fill="none" stroke-width="6.0" stroke-linecap="round" stroke-linejoin="round" />
<path d="M 107.5 201.25 L 107.5 200.0 L 107.5 197.5 L 115.0 196.25 L 132.5 192.5 L 152.5 182.5 L 168.75 168.75 L 172.5 162.5 " stroke="black" fill="none" stroke-width="6.0" stroke-linecap="round" stroke-linejoin="round" />
<path d="M 166.25 78.75 L 165.0 76.25 L 163.75 76.25 L 166.25 91.25 L 177.5 135.0 L 191.25 183.75 L 202.5 211.25 L 210.0 226.25 L 216.25 238.75 L 221.25 243.75 L 223.75 245.0 L 225.0 243.75 L 226.25 242.5 L 227.5 238.75 L 227.5 233.75 L 226.25 227.5 L 226.25 217.5 L 225.0 206.25 L 225.0 186.25 L 223.75 173.75 " stroke="black" fill="none" stroke-width="6.0" stroke-linecap="round" stroke-linejoin="round" />
<path d="M 226.25 118.75 L 216.25 132.5 L 206.25 152.5 L 193.75 185.0 L 178.75 212.5 L 162.5 230.0 " stroke="black" fill="none" stroke-width="6.0" stroke-linecap="round" stroke-linejoin="round" />
<path d="M 215.0 60.0 L 215.0 58.75 L 215.0 57.5 L 217.5 57.5 L 225.0 62.5 L 231.25 70.0 " stroke="black" fill="none" stroke-width="6.0" stroke-linecap="round" stroke-linejoin="round" />
</svg>