<svg xmlns="http://www.w3.org/2000/svg" width="300" height="300" viewBox="0 0 300 300">
<path d="M 72.5 122.5 L 71.25 116.25 L 71.25 115.0 L 72.5 118.75 L 76.25 135.0 L 78.75 161.25 L 80.0 187.5 L 82.5 202.5 L 88.75 206.25 L 100.0 206.25 L 112.5 206.25 L 120.0 206.25 L 122.5 208.75 L 122.5 211.25 L 117.5 212.5 " stroke="black" fill="none" stroke-width="6.0" stroke-linecap="round" stroke-linejoin="round" />
<path d="M 95.0 122.5 L 96.25 120.0 L 96.25 116.25 L 98.75 123.75 L 101.25 151.25 L 101.25 192.5 L 93.75 222.5 L 86.25 235.0 L 75.0 237.5 L 62.5 233.75 " stroke="black" fill="none" stroke-width="6.0" stroke-linecap="round" stroke-linejoin="round" />
<path d="M 43.75 178.75 L 43.75 177.5 L 43.75 175.0 L 46.25 173.75 L 58.75 171.25 L 83.75 162.5 L 111.25 143.75 L 121.25 135.0 " stroke="black" fill="none" stroke-width="6.0" stroke-linecap="round" stroke-linejoin="round" />
<path d="M 146.25 75.0 L 145.0 75.0 L 145.0 75.0 L 150.0 75.0 L 163.75 73.75 L 181.25 71.25 L 188.75 70.0 L 188.75 70.0 " stroke="black" fill="none" stroke-width="6.0" stroke-linecap="round" stroke-linejoin="round" />
<path d="M 145.0 102.5 L 142.5 103.75 L 141.25 106.25 L 142.5 116.25 L 148.75 135.0 L 153.75 150.0 L 155.0 152.5 L 153.75 151.25 " stroke="black" fill="none" stroke-width="6.0" stroke-linecap="round" stroke-linejoin="round" />
<path d="M 148.75 125.0 L 147.5 122.5 L 143.75 116.25 L 143.75 116.25 L 143.75 116.25 L 150.0 116.25 L 160.0 112.5 L 175.0 107.5 L 185.0 106.25 L 185.0 111.25 L 175.0 126.25 L 162.5 142.5 L 150.0 157.5 L 138.75 175.0 L 135.0 183.75 L 137.5 183.75 L 147.5 177.5 L 160.0 165.0 L 171.25 157.5 L 177.5 153.75 L 176.25 162.5 L 167.5 187.5 L 155.0 212.5 L 143.75 235.0 L 136.25 243.75 L 131.25 242.5 L 131.25 236.25 " stroke="black" fill="none" stroke-width="6.0" stroke-linecap="round" stroke-linejoin="round" />
<path d="M 138.75 191.25 L 137.5 188.75 L 136.25 185.0 L 136.25 185.0 L 136.25 190.0 L 141.25 198.75 L 147.5 207.5 L 153.75 211.25 L 158.75 208.75 " stroke="black" fill="none" stroke-width="6.0" stroke-linecap="round" stroke-linejoin="round" />
<path d="M 187.5 151.25 L 187.5 151.25 L 186.25 151.25 L 188.75 151.25 L 195.0 151.25 L 202.5 151.25 L 207.5 151.25 L 208.75 158.75 L 203.75 173.75 L 196.25 191.25 L 188.75 200.0 L 183.75 200.0 L 182.5 197.5 " stroke="black" fill="none" stroke-width="6.0" stroke-linecap="round" stroke-linejoin="round" />
<path d="M 185.0 157.5 L 185.0 157.5 L 182.5 156.25 L 181.25 162.5 L 181.25 185.0 L 183.75 207.5 L 188.75 221.25 L 196.25 227.5 L 206.25 228.75 L 216.25 230.0 L 227.5 230.0 L 235.0 231.25 L 240.0 232.5 L 240.0 232.5 L 240.0 232.5 L 240.0 232.5 L 240.0 232.5 L 238.75 232.5 L 238.75 232.5 L 238.75 232.5 L 238.75 232.5 L 238.75 232.5 L 238.75 228.75 L 241.25 215.0 L 242.5 177.5 L 242.5 165.0 " stroke="black" fill="none" stroke-width="6.0" stroke-linecap="round" stroke-linejoin="round" />
</svg>