<svg xmlns="http://www.w3.org/2000/svg" width="300" height="300" viewBox="0 0 300 300">
<path d="M 91.25 118.75 L 92.5 117.5 L 92.5 117.5 L 93.75 120.0 L 95.0 136.25 L 93.75 161.25 L 92.5 182.5 L 93.75 195.0 L 103.75 202.5 L 118.75 207.5 L 133.75 211.25 L 137.5 213.75 L 138.75 213.75 L 133.75 213.75 " stroke="black" fill="none" stroke-width="6.0" stroke-linecap="round" stroke-linejoin="round" />
<path d="M 107.5 113.75 L 108.75 111.25 L 112.5 112.5 L 120.0 131.25 L 121.25 170.0 L 115.0 200.0 L 101.25 225.0 L 88.75 235.0 L 76.25 236.25 L 73.75 235.0 " stroke="black" fill="none" stroke-width="6.0" stroke-linecap="round" stroke-linejoin="round" />
<path d="M 58.75 166.25 L 58.75 166.25 L 58.75 166.25 L 61.25 166.25 L 75.0 165.0 L 98.75 157.5 L 132.5 140.0 L 151.25 125.0 " stroke="black" fill="none" stroke-width="6.0" stroke-linecap="round" stroke-linejoin="round" />
<path d="M 153.75 88.75 L 153.75 91.25 L 153.75 100.0 L 160.0 120.0 L 163.75 135.0 L 163.75 138.75 L 161.25 138.75 " stroke="black" fill="none" stroke-width="6.0" stroke-linecap="round" stroke-linejoin="round" />
<path d="M 153.75 105.0 L 152.5 102.5 L 152.5 98.75 L 157.5 93.75 L 171.25 90.0 L 190.0 88.75 L 201.25 88.75 L 202.5 93.75 L 192.5 102.5 L 181.25 112.5 L 168.75 122.5 L 158.75 130.0 L 158.75 131.25 L 166.25 127.5 L 177.5 118.75 L 186.25 111.25 L 191.25 106.25 L 188.75 106.25 L 182.5 112.5 L 173.75 122.5 L 167.5 133.75 L 163.75 153.75 L 163.75 187.5 L 167.5 221.25 L 172.5 235.0 L 175.0 237.5 L 175.0 235.0 L 175.0 227.5 L 171.25 217.5 L 167.5 205.0 L 163.75 191.25 L 160.0 173.75 L 158.75 156.25 L 158.75 148.75 L 163.75 145.0 L 172.5 140.0 L 185.0 135.0 L 197.5 132.5 L 210.0 138.75 L 218.75 161.25 L 225.0 193.75 L 228.75 220.0 L 228.75 235.0 L 228.75 241.25 L 227.5 241.25 L 225.0 238.75 L 221.25 232.5 L 215.0 222.5 L 208.75 213.75 " stroke="black" fill="none" stroke-width="6.0" stroke-linecap="round" stroke-linejoin="round" />
<path d="M 175.0 190.0 L 173.75 190.0 L 172.5 188.75 L 173.75 185.0 L 185.0 176.25 L 200.0 163.75 L 212.5 152.5 L 213.75 148.75 L 212.5 148.75 " stroke="black" fill="none" stroke-width="6.0" stroke-linecap="round" stroke-linejoin="round" />
<path d="M 177.5 208.75 L 176.25 212.5 L 176.25 215.0 L 188.75 208.75 L 207.5 192.5 L 222.5 173.75 " stroke="black" fill="none" stroke-width="6.0" stroke-linecap="round" stroke-linejoin="round" />
</svg>