<svg xmlns="http://www.w3.org/2000/svg" width="300" height="300" viewBox="0 0 300 300">
<path d="M 81.25 117.5 L 81.25 117.5 L 80.0 117.5 L 80.0 117.5 L 80.0 127.5 L 81.25 150.0 L 83.75 176.25 L 88.75 197.5 L 100.0 207.5 L 113.75 211.25 L 126.25 213.75 L 135.0 213.75 L 137.5 210.0 L 137.5 208.75 " stroke="black" fill="none" stroke-width="6.0" stroke-linecap="round" stroke-linejoin="round" />
<path d="M 107.5 115.0 L 107.5 116.25 L 107.5 125.0 L 107.5 143.75 L 107.5 182.5 L 98.75 217.5 L 88.75 236.25 L 76.25 242.5 L 63.75 241.25 " stroke="black" fill="none" stroke-width="6.0" stroke-linecap="round" stroke-linejoin="round" />
<path d="M 47.5 166.25 L 47.5 167.5 L 47.5 168.75 L 60.0 167.5 L 87.5 157.5 L 117.5 142.5 L 125.0 138.75 " stroke="black" fill="none" stroke-width="6.0" stroke-linecap="round" stroke-linejoin="round" />
<path d="M 170.0 81.25 L 170.0 81.25 L 171.25 81.25 L 178.75 81.25 L 192.5 78.75 L 206.25 76.25 L 211.25 76.25 L 207.5 77.5 " stroke="black" fill="none" stroke-width="6.0" stroke-linecap="round" stroke-linejoin="round" />
<path d="M 147.5 111.25 L 147.5 111.25 L 147.5 112.5 L 153.75 111.25 L 172.5 103.75 L 196.25 93.75 L 207.5 85.0 L 206.25 82.5 " stroke="black" fill="none" stroke-width="6.0" stroke-linecap="round" stroke-linejoin="round" />
<path d="M 175.0 102.5 L 175.0 106.25 L 173.75 115.0 L 173.75 127.5 L 175.0 136.25 L 176.25 137.5 L 177.5 137.5 " stroke="black" fill="none" stroke-width="6.0" stroke-linecap="round" stroke-linejoin="round" />
<path d="M 195.0 100.0 L 193.75 101.25 L 188.75 106.25 L 183.75 116.25 L 176.25 130.0 L 166.25 142.5 " stroke="black" fill="none" stroke-width="6.0" stroke-linecap="round" stroke-linejoin="round" />
<path d="M 150.0 140.0 L 147.5 140.0 L 145.0 138.75 L 145.0 141.25 L 147.5 160.0 L 151.25 195.0 L 151.25 227.5 L 150.0 241.25 L 148.75 241.25 L 147.5 231.25 L 147.5 223.75 " stroke="black" fill="none" stroke-width="6.0" stroke-linecap="round" stroke-linejoin="round" />
<path d="M 150.0 155.0 L 150.0 152.5 L 152.5 148.75 L 167.5 141.25 L 195.0 133.75 L 217.5 127.5 L 232.5 127.5 L 242.5 136.25 L 247.5 158.75 L 250.0 193.75 L 253.75 221.25 L 256.25 242.5 L 257.5 251.25 L 257.5 252.5 L 256.25 252.5 L 253.75 251.25 L 247.5 246.25 L 238.75 235.0 L 225.0 220.0 L 220.0 215.0 " stroke="black" fill="none" stroke-width="6.0" stroke-linecap="round" stroke-linejoin="round" />
<path d="M 175.0 170.0 L 171.25 171.25 L 171.25 171.25 L 181.25 166.25 L 196.25 157.5 L 211.25 148.75 L 218.75 138.75 L 215.0 137.5 " stroke="black" fill="none" stroke-width="6.0" stroke-linecap="round" stroke-linejoin="round" />
<path d="M 191.25 138.75 L 191.25 138.75 L 190.0 138.75 L 190.0 141.25 L 190.0 157.5 L 188.75 185.0 L 182.5 201.25 L 180.0 202.5 " stroke="black" fill="none" stroke-width="6.0" stroke-linecap="round" stroke-linejoin="round" />
<path d="M 166.25 186.25 L 166.25 187.5 L 165.0 191.25 L 171.25 198.75 L 181.25 208.75 L 192.5 218.75 L 196.25 222.5 L 196.25 222.5 L 191.25 218.75 L 187.5 215.0 L 182.5 211.25 L 181.25 207.5 L 181.25 202.5 L 188.75 196.25 L 202.5 188.75 L 216.25 182.5 L 221.25 181.25 L 218.75 188.75 L 210.0 202.5 L 202.5 215.0 L 197.5 222.5 L 198.75 221.25 L 210.0 208.75 L 225.0 192.5 L 228.75 187.5 " stroke="black" fill="none" stroke-width="6.0" stroke-linecap="round" stroke-linejoin="round" />
</svg>