<svg xmlns="http://www.w3.org/2000/svg" width="300" height="300" viewBox="0 0 300 300">
<path d="M 61.25 123.75 L 61.25 118.75 L 60.0 117.5 L 60.0 118.75 L 62.5 136.25 L 66.25 163.75 L 70.0 192.5 L 80.0 208.75 L 96.25 212.5 L 111.25 213.75 L 122.5 216.25 L 126.25 216.25 L 122.5 216.25 L 113.75 211.25 L 106.25 206.25 " stroke="black" fill="none" stroke-width="6.0" stroke-linecap="round" stroke-linejoin="round" />
<path d="M 96.25 128.75 L 96.25 128.75 L 97.5 131.25 L 98.75 153.75 L 95.0 191.25 L 90.0 211.25 L 81.25 217.5 L 67.5 216.25 " stroke="black" fill="none" stroke-width="6.0" stroke-linecap="round" stroke-linejoin="round" />
<path d="M 37.5 180.0 L 36.25 178.75 L 36.25 178.75 L 42.5 180.0 L 65.0 177.5 L 101.25 165.0 L 125.0 151.25 " stroke="black" fill="none" stroke-width="6.0" stroke-linecap="round" stroke-linejoin="round" />
<path d="M 146.25 98.75 L 145.0 98.75 L 145.0 98.75 L 150.0 100.0 L 162.5 100.0 L 178.75 98.75 L 188.75 97.5 L 188.75 97.5 " stroke="black" fill="none" stroke-width="6.0" stroke-linecap="round" stroke-linejoin="round" />
<path d="M 138.75 145.0 L 138.75 145.0 L 138.75 145.0 L 147.5 143.75 L 170.0 133.75 L 190.0 122.5 L 197.5 117.5 L 190.0 118.75 L 178.75 123.75 L 166.25 127.5 L 156.25 130.0 L 151.25 130.0 L 151.25 131.25 L 156.25 141.25 L 161.25 165.0 L 163.75 188.75 L 163.75 201.25 L 160.0 202.5 L 153.75 202.5 L 145.0 202.5 L 136.25 202.5 L 131.25 202.5 L 131.25 201.25 L 141.25 193.75 L 157.5 175.0 L 177.5 151.25 L 196.25 123.75 L 201.25 101.25 L 201.25 88.75 L 198.75 81.25 L 197.5 78.75 L 197.5 78.75 L 198.75 90.0 L 205.0 120.0 L 215.0 165.0 L 232.5 210.0 L 247.5 240.0 L 255.0 250.0 L 255.0 251.25 L 255.0 251.25 L 255.0 247.5 L 252.5 236.25 L 247.5 216.25 L 238.75 196.25 L 235.0 188.75 " stroke="black" fill="none" stroke-width="6.0" stroke-linecap="round" stroke-linejoin="round" />
<path d="M 241.25 153.75 L 241.25 153.75 L 237.5 155.0 L 225.0 175.0 L 206.25 203.75 L 188.75 225.0 L 168.75 237.5 L 157.5 237.5 " stroke="black" fill="none" stroke-width="6.0" stroke-linecap="round" stroke-linejoin="round" />
<path d="M 232.5 81.25 L 233.75 80.0 L 238.75 80.0 L 248.75 86.25 L 260.0 98.75 L 265.0 113.75 " stroke="black" fill="none" stroke-width="6.0" stroke-linecap="round" stroke-linejoin="round" />
</svg>