<svg xmlns="http://www.w3.org/2000/svg" width="300" height="300" viewBox="0 0 300 300">
<path d="M 71.25 131.25 L 70.0 130.0 L 68.75 127.5 L 70.0 126.25 L 75.0 130.0 L 81.25 147.5 L 85.0 176.25 L 86.25 202.5 L 90.0 213.75 L 97.5 215.0 L 108.75 216.25 L 121.25 216.25 L 125.0 217.5 L 121.25 218.75 L 120.0 218.75 " stroke="black" fill="none" stroke-width="6.0" stroke-linecap="round" stroke-linejoin="round" />
<path d="M 96.25 120.0 L 96.25 120.0 L 97.5 123.75 L 101.25 146.25 L 101.25 186.25 L 95.0 215.0 L 87.5 223.75 L 76.25 226.25 L 65.0 223.75 L 60.0 220.0 " stroke="black" fill="none" stroke-width="6.0" stroke-linecap="round" stroke-linejoin="round" />
<path d="M 48.75 191.25 L 48.75 187.5 L 48.75 183.75 L 60.0 178.75 L 82.5 170.0 L 108.75 157.5 L 125.0 148.75 " stroke="black" fill="none" stroke-width="6.0" stroke-linecap="round" stroke-linejoin="round" />
<path d="M 138.75 136.25 L 137.5 136.25 L 135.0 136.25 L 133.75 136.25 L 136.25 135.0 L 145.0 131.25 L 156.25 126.25 L 166.25 120.0 L 173.75 117.5 L 177.5 121.25 L 180.0 140.0 L 180.0 175.0 L 180.0 210.0 L 180.0 228.75 L 178.75 236.25 L 176.25 237.5 L 172.5 235.0 L 167.5 226.25 L 162.5 213.75 L 158.75 207.5 " stroke="black" fill="none" stroke-width="6.0" stroke-linecap="round" stroke-linejoin="round" />
<path d="M 148.75 140.0 L 147.5 140.0 L 145.0 147.5 L 145.0 165.0 L 146.25 187.5 L 147.5 212.5 L 146.25 217.5 L 145.0 215.0 L 143.75 212.5 " stroke="black" fill="none" stroke-width="6.0" stroke-linecap="round" stroke-linejoin="round" />
<path d="M 133.75 178.75 L 130.0 178.75 L 128.75 178.75 L 135.0 176.25 L 152.5 166.25 L 172.5 155.0 L 183.75 146.25 L 183.75 146.25 " stroke="black" fill="none" stroke-width="6.0" stroke-linecap="round" stroke-linejoin="round" />
<path d="M 146.25 202.5 L 141.25 207.5 L 140.0 210.0 L 146.25 206.25 L 160.0 192.5 L 177.5 173.75 L 195.0 148.75 L 201.25 136.25 " stroke="black" fill="none" stroke-width="6.0" stroke-linecap="round" stroke-linejoin="round" />
<path d="M 205.0 103.75 L 205.0 103.75 L 202.5 103.75 L 201.25 105.0 L 202.5 105.0 L 210.0 105.0 L 217.5 105.0 L 222.5 106.25 L 226.25 111.25 L 226.25 120.0 L 222.5 133.75 L 220.0 145.0 L 221.25 151.25 L 227.5 155.0 L 236.25 156.25 L 242.5 158.75 L 246.25 165.0 L 243.75 176.25 L 237.5 190.0 L 230.0 202.5 L 223.75 210.0 L 220.0 211.25 L 216.25 211.25 L 215.0 205.0 L 213.75 197.5 L 212.5 187.5 L 210.0 175.0 L 208.75 163.75 L 207.5 155.0 L 206.25 151.25 L 205.0 151.25 L 206.25 153.75 L 210.0 167.5 L 213.75 195.0 L 216.25 231.25 L 216.25 260.0 L 216.25 275.0 L 213.75 281.25 " stroke="black" fill="none" stroke-width="6.0" stroke-linecap="round" stroke-linejoin="round" />
</svg>