<svg xmlns="http://www.w3.org/2000/svg" width="300" height="300" viewBox="0 0 300 300">
<path d="M 83.75 132.5 L 82.5 132.5 L 81.25 135.0 L 86.25 151.25 L 101.25 182.5 L 118.75 206.25 L 132.5 213.75 L 132.5 215.0 " stroke="black" fill="none" stroke-width="6.0" stroke-linecap="round" stroke-linejoin="round" />
<path d="M 115.0 117.5 L 116.25 116.25 L 120.0 117.5 L 127.5 133.75 L 127.5 162.5 L 117.5 190.0 L 105.0 200.0 L 91.25 201.25 L 75.0 200.0 L 57.5 197.5 L 50.0 193.75 L 52.5 190.0 L 70.0 183.75 L 96.25 168.75 L 131.25 150.0 L 147.5 138.75 " stroke="black" fill="none" stroke-width="6.0" stroke-linecap="round" stroke-linejoin="round" />
<path d="M 175.0 78.75 L 171.25 80.0 L 172.5 80.0 L 190.0 80.0 L 210.0 78.75 L 227.5 78.75 L 233.75 82.5 L 227.5 90.0 L 211.25 102.5 L 195.0 112.5 L 178.75 116.25 L 175.0 116.25 " stroke="black" fill="none" stroke-width="6.0" stroke-linecap="round" stroke-linejoin="round" />
<path d="M 191.25 83.75 L 191.25 83.75 L 191.25 83.75 L 191.25 91.25 L 186.25 108.75 L 180.0 126.25 L 175.0 132.5 L 175.0 132.5 L 177.5 128.75 L 187.5 120.0 L 198.75 111.25 L 208.75 101.25 L 213.75 95.0 L 211.25 93.75 " stroke="black" fill="none" stroke-width="6.0" stroke-linecap="round" stroke-linejoin="round" />
<path d="M 157.5 82.5 L 157.5 82.5 L 157.5 85.0 L 158.75 120.0 L 153.75 170.0 L 141.25 203.75 L 125.0 223.75 L 108.75 233.75 L 102.5 227.5 L 102.5 218.75 " stroke="black" fill="none" stroke-width="6.0" stroke-linecap="round" stroke-linejoin="round" />
<path d="M 173.75 143.75 L 173.75 143.75 L 172.5 145.0 L 171.25 153.75 L 171.25 183.75 L 171.25 215.0 L 173.75 230.0 L 175.0 232.5 L 173.75 230.0 " stroke="black" fill="none" stroke-width="6.0" stroke-linecap="round" stroke-linejoin="round" />
<path d="M 172.5 148.75 L 172.5 148.75 L 172.5 147.5 L 177.5 146.25 L 191.25 145.0 L 208.75 146.25 L 221.25 161.25 L 223.75 188.75 L 220.0 211.25 L 216.25 227.5 L 213.75 233.75 L 211.25 232.5 L 207.5 222.5 L 206.25 216.25 " stroke="black" fill="none" stroke-width="6.0" stroke-linecap="round" stroke-linejoin="round" />
<path d="M 175.0 178.75 L 170.0 177.5 L 167.5 177.5 L 170.0 176.25 L 186.25 168.75 L 205.0 158.75 L 217.5 151.25 L 220.0 148.75 " stroke="black" fill="none" stroke-width="6.0" stroke-linecap="round" stroke-linejoin="round" />
<path d="M 180.0 202.5 L 178.75 203.75 L 177.5 205.0 L 182.5 203.75 L 197.5 196.25 L 215.0 185.0 L 218.75 181.25 " stroke="black" fill="none" stroke-width="6.0" stroke-linecap="round" stroke-linejoin="round" />
<path d="M 190.0 221.25 L 188.75 223.75 L 186.25 226.25 L 190.0 225.0 L 206.25 215.0 L 217.5 205.0 " stroke="black" fill="none" stroke-width="6.0" stroke-linecap="round" stroke-linejoin="round" />
</svg>