<svg xmlns="http://www.w3.org/2000/svg" width="300" height="300" viewBox="0 0 300 300">
<path d="M 126.25 75.0 L 126.25 73.75 L 126.25 72.5 L 131.25 72.5 L 142.5 77.5 L 152.5 82.5 L 160.0 87.5 L 161.25 90.0 " stroke="black" fill="none" stroke-width="6.0" stroke-linecap="round" stroke-linejoin="round" />
<path d="M 82.5 106.25 L 82.5 107.5 L 80.0 110.0 L 78.75 117.5 L 77.5 133.75 L 77.5 150.0 L 77.5 158.75 L 77.5 160.0 L 76.25 156.25 " stroke="black" fill="none" stroke-width="6.0" stroke-linecap="round" stroke-linejoin="round" />
<path d="M 80.0 128.75 L 82.5 127.5 L 92.5 125.0 L 122.5 118.75 L 165.0 110.0 L 201.25 107.5 L 220.0 108.75 L 226.25 115.0 L 222.5 122.5 L 208.75 131.25 L 193.75 138.75 L 175.0 143.75 " stroke="black" fill="none" stroke-width="6.0" stroke-linecap="round" stroke-linejoin="round" />
<path d="M 95.0 187.5 L 93.75 187.5 L 91.25 187.5 L 90.0 188.75 L 90.0 200.0 L 95.0 217.5 L 100.0 233.75 L 103.75 241.25 L 103.75 238.75 L 103.75 237.5 " stroke="black" fill="none" stroke-width="6.0" stroke-linecap="round" stroke-linejoin="round" />
<path d="M 96.25 192.5 L 95.0 191.25 L 95.0 190.0 L 106.25 187.5 L 136.25 182.5 L 170.0 177.5 L 196.25 178.75 L 205.0 186.25 L 206.25 196.25 L 201.25 206.25 L 190.0 216.25 L 177.5 223.75 L 163.75 230.0 L 153.75 232.5 " stroke="black" fill="none" stroke-width="6.0" stroke-linecap="round" stroke-linejoin="round" />
<path d="M 93.75 218.75 L 92.5 218.75 L 92.5 218.75 L 90.0 218.75 L 100.0 217.5 L 125.0 212.5 L 157.5 205.0 L 177.5 200.0 L 183.75 198.75 L 181.25 198.75 " stroke="black" fill="none" stroke-width="6.0" stroke-linecap="round" stroke-linejoin="round" />
<path d="M 112.5 238.75 L 112.5 240.0 L 111.25 241.25 L 121.25 242.5 L 142.5 235.0 L 163.75 221.25 L 177.5 210.0 " stroke="black" fill="none" stroke-width="6.0" stroke-linecap="round" stroke-linejoin="round" />
<path d="M 136.25 148.75 L 136.25 146.25 L 133.75 143.75 L 133.75 141.25 L 133.75 141.25 L 133.75 141.25 L 136.25 146.25 L 138.75 163.75 L 140.0 190.0 L 141.25 213.75 L 142.5 228.75 L 142.5 233.75 L 142.5 233.75 " stroke="black" fill="none" stroke-width="6.0" stroke-linecap="round" stroke-linejoin="round" />
</svg>