<svg xmlns="http://www.w3.org/2000/svg" width="300" height="300" viewBox="0 0 300 300">
<path d="M 143.75 83.75 L 141.25 81.25 L 141.25 81.25 L 146.25 81.25 L 155.0 85.0 L 163.75 88.75 L 166.25 95.0 " stroke="black" fill="none" stroke-width="6.0" stroke-linecap="round" stroke-linejoin="round" />
<path d="M 98.75 115.0 L 98.75 117.5 L 98.75 123.75 L 103.75 133.75 L 112.5 147.5 L 117.5 156.25 L 117.5 157.5 " stroke="black" fill="none" stroke-width="6.0" stroke-linecap="round" stroke-linejoin="round" />
<path d="M 111.25 132.5 L 111.25 131.25 L 112.5 130.0 L 121.25 126.25 L 143.75 123.75 L 171.25 122.5 L 191.25 123.75 L 191.25 130.0 L 176.25 141.25 L 155.0 152.5 L 135.0 162.5 L 110.0 176.25 L 86.25 191.25 L 76.25 198.75 L 77.5 200.0 L 93.75 196.25 L 125.0 187.5 L 163.75 173.75 L 202.5 158.75 L 215.0 153.75 L 208.75 153.75 L 192.5 161.25 L 171.25 168.75 L 163.75 171.25 " stroke="black" fill="none" stroke-width="6.0" stroke-linecap="round" stroke-linejoin="round" />
<path d="M 117.5 178.75 L 115.0 180.0 L 113.75 182.5 L 116.25 191.25 L 123.75 210.0 L 128.75 228.75 L 130.0 233.75 L 130.0 232.5 " stroke="black" fill="none" stroke-width="6.0" stroke-linecap="round" stroke-linejoin="round" />
<path d="M 146.25 173.75 L 146.25 175.0 L 145.0 183.75 L 145.0 200.0 L 145.0 213.75 L 145.0 216.25 " stroke="black" fill="none" stroke-width="6.0" stroke-linecap="round" stroke-linejoin="round" />
<path d="M 177.5 156.25 L 177.5 156.25 L 177.5 156.25 L 177.5 163.75 L 176.25 180.0 L 178.75 195.0 L 192.5 200.0 L 208.75 200.0 L 218.75 198.75 L 220.0 207.5 L 207.5 230.0 L 190.0 255.0 L 172.5 271.25 L 163.75 273.75 L 160.0 265.0 L 160.0 261.25 " stroke="black" fill="none" stroke-width="6.0" stroke-linecap="round" stroke-linejoin="round" />
</svg>