<svg xmlns="http://www.w3.org/2000/svg" width="300" height="300" viewBox="0 0 300 300">
<path d="M 128.75 62.5 L 128.75 62.5 L 127.5 62.5 L 126.25 62.5 L 128.75 62.5 L 137.5 66.25 L 146.25 71.25 L 147.5 72.5 " stroke="black" fill="none" stroke-width="6.0" stroke-linecap="round" stroke-linejoin="round" />
<path d="M 95.0 87.5 L 93.75 87.5 L 91.25 87.5 L 91.25 91.25 L 97.5 105.0 L 105.0 118.75 L 112.5 127.5 L 113.75 127.5 L 112.5 123.75 " stroke="black" fill="none" stroke-width="6.0" stroke-linecap="round" stroke-linejoin="round" />
<path d="M 100.0 100.0 L 100.0 100.0 L 98.75 100.0 L 97.5 98.75 L 97.5 98.75 L 116.25 95.0 L 146.25 88.75 L 178.75 82.5 L 198.75 83.75 L 197.5 92.5 L 182.5 107.5 L 160.0 123.75 L 141.25 135.0 L 137.5 136.25 " stroke="black" fill="none" stroke-width="6.0" stroke-linecap="round" stroke-linejoin="round" />
<path d="M 77.5 183.75 L 75.0 183.75 L 73.75 183.75 L 80.0 181.25 L 107.5 167.5 L 151.25 145.0 L 183.75 130.0 L 197.5 122.5 L 195.0 122.5 L 180.0 126.25 L 175.0 127.5 " stroke="black" fill="none" stroke-width="6.0" stroke-linecap="round" stroke-linejoin="round" />
<path d="M 138.75 128.75 L 138.75 128.75 L 136.25 128.75 L 133.75 135.0 L 126.25 166.25 L 115.0 211.25 L 105.0 246.25 L 103.75 257.5 L 103.75 255.0 " stroke="black" fill="none" stroke-width="6.0" stroke-linecap="round" stroke-linejoin="round" />
<path d="M 132.5 186.25 L 133.75 180.0 L 133.75 176.25 L 133.75 182.5 L 133.75 206.25 L 133.75 233.75 L 137.5 255.0 L 142.5 258.75 L 142.5 256.25 " stroke="black" fill="none" stroke-width="6.0" stroke-linecap="round" stroke-linejoin="round" />
<path d="M 142.5 178.75 L 142.5 176.25 L 140.0 173.75 L 140.0 171.25 L 147.5 168.75 L 160.0 166.25 L 176.25 165.0 L 188.75 178.75 L 193.75 202.5 L 191.25 231.25 L 188.75 255.0 L 188.75 263.75 L 190.0 265.0 L 190.0 263.75 L 190.0 260.0 L 185.0 251.25 L 177.5 241.25 L 170.0 232.5 " stroke="black" fill="none" stroke-width="6.0" stroke-linecap="round" stroke-linejoin="round" />
<path d="M 147.5 207.5 L 146.25 207.5 L 140.0 208.75 L 137.5 208.75 L 140.0 208.75 L 151.25 202.5 L 167.5 193.75 L 178.75 187.5 L 178.75 187.5 " stroke="black" fill="none" stroke-width="6.0" stroke-linecap="round" stroke-linejoin="round" />
<path d="M 142.5 236.25 L 136.25 245.0 L 137.5 245.0 L 152.5 236.25 L 176.25 216.25 L 195.0 200.0 " stroke="black" fill="none" stroke-width="6.0" stroke-linecap="round" stroke-linejoin="round" />
</svg>