<svg xmlns="http://www.w3.org/2000/svg" width="300" height="300" viewBox="0 0 300 300">
<path d="M 130.0 68.75 L 130.0 66.25 L 131.25 63.75 L 135.0 63.75 L 143.75 65.0 L 152.5 68.75 L 158.75 73.75 L 158.75 76.25 " stroke="black" fill="none" stroke-width="6.0" stroke-linecap="round" stroke-linejoin="round" />
<path d="M 82.5 93.75 L 80.0 97.5 L 80.0 101.25 L 86.25 108.75 L 93.75 118.75 L 100.0 123.75 L 101.25 125.0 " stroke="black" fill="none" stroke-width="6.0" stroke-linecap="round" stroke-linejoin="round" />
<path d="M 92.5 111.25 L 91.25 108.75 L 90.0 106.25 L 91.25 103.75 L 108.75 100.0 L 145.0 95.0 L 183.75 90.0 L 206.25 87.5 L 207.5 91.25 L 196.25 101.25 L 176.25 113.75 L 155.0 126.25 " stroke="black" fill="none" stroke-width="6.0" stroke-linecap="round" stroke-linejoin="round" />
<path d="M 113.75 130.0 L 112.5 135.0 L 107.5 145.0 L 102.5 165.0 L 98.75 185.0 L 98.75 191.25 L 100.0 187.5 " stroke="black" fill="none" stroke-width="6.0" stroke-linecap="round" stroke-linejoin="round" />
<path d="M 140.0 135.0 L 141.25 135.0 L 143.75 141.25 L 148.75 158.75 L 156.25 176.25 L 170.0 181.25 L 186.25 173.75 L 196.25 162.5 L 198.75 156.25 L 192.5 153.75 L 180.0 155.0 L 162.5 158.75 L 146.25 161.25 L 131.25 165.0 L 127.5 165.0 L 135.0 161.25 L 152.5 151.25 L 175.0 138.75 L 196.25 126.25 L 203.75 118.75 L 200.0 118.75 L 188.75 126.25 L 170.0 137.5 L 147.5 157.5 L 115.0 192.5 L 83.75 227.5 L 67.5 238.75 L 60.0 237.5 L 60.0 235.0 " stroke="black" fill="none" stroke-width="6.0" stroke-linecap="round" stroke-linejoin="round" />
<path d="M 210.0 117.5 L 212.5 120.0 L 216.25 126.25 L 225.0 133.75 L 235.0 141.25 L 242.5 147.5 L 242.5 150.0 " stroke="black" fill="none" stroke-width="6.0" stroke-linecap="round" stroke-linejoin="round" />
<path d="M 118.75 211.25 L 118.75 211.25 L 118.75 212.5 L 116.25 216.25 L 116.25 228.75 L 116.25 250.0 L 117.5 262.5 L 126.25 266.25 L 145.0 260.0 L 165.0 246.25 L 183.75 236.25 L 196.25 227.5 L 198.75 225.0 L 198.75 222.5 L 196.25 222.5 L 195.0 222.5 L 193.75 222.5 L 192.5 222.5 L 192.5 222.5 L 191.25 222.5 L 191.25 222.5 L 191.25 222.5 L 191.25 222.5 L 191.25 222.5 L 191.25 222.5 L 191.25 222.5 L 191.25 222.5 L 190.0 222.5 L 190.0 222.5 L 190.0 222.5 L 190.0 223.75 L 195.0 231.25 L 205.0 246.25 L 215.0 258.75 L 218.75 265.0 L 216.25 268.75 " stroke="black" fill="none" stroke-width="6.0" stroke-linecap="round" stroke-linejoin="round" />
<path d="M 150.0 193.75 L 147.5 187.5 L 145.0 186.25 L 145.0 186.25 L 146.25 196.25 L 148.75 215.0 L 150.0 238.75 L 150.0 245.0 " stroke="black" fill="none" stroke-width="6.0" stroke-linecap="round" stroke-linejoin="round" />
</svg>