<svg xmlns="http://www.w3.org/2000/svg" width="300" height="300" viewBox="0 0 300 300">
<path d="M 116.25 80.0 L 116.25 80.0 L 115.0 81.25 L 121.25 81.25 L 135.0 83.75 L 148.75 85.0 L 151.25 86.25 " stroke="black" fill="none" stroke-width="6.0" stroke-linecap="round" stroke-linejoin="round" />
<path d="M 81.25 115.0 L 78.75 122.5 L 76.25 132.5 L 82.5 146.25 L 92.5 161.25 L 101.25 172.5 L 103.75 173.75 L 103.75 173.75 " stroke="black" fill="none" stroke-width="6.0" stroke-linecap="round" stroke-linejoin="round" />
<path d="M 95.0 143.75 L 92.5 137.5 L 93.75 132.5 L 103.75 127.5 L 142.5 116.25 L 172.5 112.5 L 193.75 113.75 L 196.25 121.25 L 180.0 136.25 L 158.75 152.5 L 136.25 167.5 " stroke="black" fill="none" stroke-width="6.0" stroke-linecap="round" stroke-linejoin="round" />
<path d="M 101.25 185.0 L 103.75 187.5 L 102.5 197.5 L 100.0 217.5 L 97.5 243.75 L 96.25 256.25 L 97.5 257.5 L 98.75 253.75 " stroke="black" fill="none" stroke-width="6.0" stroke-linecap="round" stroke-linejoin="round" />
<path d="M 131.25 202.5 L 136.25 205.0 L 148.75 213.75 L 167.5 223.75 L 186.25 228.75 L 205.0 221.25 L 207.5 212.5 L 202.5 206.25 L 190.0 203.75 L 171.25 203.75 L 150.0 203.75 L 135.0 203.75 L 133.75 203.75 L 146.25 192.5 L 168.75 172.5 L 190.0 153.75 L 202.5 140.0 L 202.5 138.75 L 186.25 153.75 L 161.25 190.0 L 130.0 242.5 L 96.25 296.25 L 82.5 322.5 L 81.25 323.75 L 86.25 316.25 " stroke="black" fill="none" stroke-width="6.0" stroke-linecap="round" stroke-linejoin="round" />
<path d="M 231.25 158.75 L 232.5 160.0 L 236.25 163.75 L 243.75 173.75 L 255.0 188.75 L 265.0 198.75 L 271.25 202.5 L 271.25 203.75 " stroke="black" fill="none" stroke-width="6.0" stroke-linecap="round" stroke-linejoin="round" />
</svg>