<svg xmlns="http://www.w3.org/2000/svg" width="300" height="300" viewBox="0 0 300 300">
<path d="M 128.75 65.0 L 128.75 65.0 L 127.5 65.0 L 131.25 65.0 L 138.75 66.25 L 145.0 70.0 L 146.25 71.25 " stroke="black" fill="none" stroke-width="6.0" stroke-linecap="round" stroke-linejoin="round" />
<path d="M 70.0 91.25 L 70.0 91.25 L 70.0 91.25 L 71.25 97.5 L 73.75 116.25 L 76.25 133.75 L 77.5 138.75 " stroke="black" fill="none" stroke-width="6.0" stroke-linecap="round" stroke-linejoin="round" />
<path d="M 76.25 98.75 L 76.25 98.75 L 80.0 98.75 L 106.25 97.5 L 150.0 93.75 L 183.75 91.25 L 200.0 91.25 L 198.75 97.5 L 186.25 107.5 L 168.75 117.5 L 163.75 118.75 " stroke="black" fill="none" stroke-width="6.0" stroke-linecap="round" stroke-linejoin="round" />
<path d="M 83.75 131.25 L 83.75 131.25 L 83.75 131.25 L 87.5 131.25 L 107.5 131.25 L 136.25 126.25 L 152.5 120.0 L 153.75 116.25 L 145.0 116.25 L 132.5 120.0 " stroke="black" fill="none" stroke-width="6.0" stroke-linecap="round" stroke-linejoin="round" />
<path d="M 101.25 123.75 L 98.75 125.0 L 98.75 127.5 L 98.75 136.25 L 105.0 146.25 L 110.0 151.25 L 110.0 151.25 " stroke="black" fill="none" stroke-width="6.0" stroke-linecap="round" stroke-linejoin="round" />
<path d="M 137.5 103.75 L 137.5 102.5 L 136.25 105.0 L 131.25 122.5 L 123.75 145.0 L 116.25 153.75 " stroke="black" fill="none" stroke-width="6.0" stroke-linecap="round" stroke-linejoin="round" />
<path d="M 95.0 151.25 L 93.75 151.25 L 92.5 151.25 L 92.5 161.25 L 97.5 183.75 L 103.75 201.25 L 106.25 208.75 L 105.0 205.0 " stroke="black" fill="none" stroke-width="6.0" stroke-linecap="round" stroke-linejoin="round" />
<path d="M 96.25 166.25 L 95.0 165.0 L 95.0 163.75 L 98.75 162.5 L 115.0 158.75 L 140.0 152.5 L 161.25 150.0 L 166.25 152.5 L 162.5 162.5 L 151.25 177.5 L 138.75 187.5 L 126.25 192.5 L 118.75 192.5 " stroke="black" fill="none" stroke-width="6.0" stroke-linecap="round" stroke-linejoin="round" />
<path d="M 100.0 185.0 L 100.0 185.0 L 97.5 185.0 L 98.75 185.0 L 113.75 180.0 L 138.75 168.75 L 155.0 158.75 L 156.25 157.5 L 152.5 160.0 " stroke="black" fill="none" stroke-width="6.0" stroke-linecap="round" stroke-linejoin="round" />
<path d="M 102.5 207.5 L 102.5 207.5 L 101.25 208.75 L 103.75 208.75 L 121.25 200.0 L 142.5 186.25 L 156.25 173.75 L 152.5 173.75 L 150.0 175.0 " stroke="black" fill="none" stroke-width="6.0" stroke-linecap="round" stroke-linejoin="round" />
<path d="M 77.5 245.0 L 77.5 245.0 L 76.25 247.5 L 80.0 248.75 L 93.75 245.0 L 132.5 226.25 L 158.75 206.25 L 168.75 193.75 L 163.75 190.0 L 152.5 190.0 " stroke="black" fill="none" stroke-width="6.0" stroke-linecap="round" stroke-linejoin="round" />
<path d="M 130.0 197.5 L 130.0 200.0 L 130.0 206.25 L 128.75 228.75 L 120.0 258.75 L 110.0 278.75 L 97.5 290.0 L 91.25 288.75 L 88.75 280.0 " stroke="black" fill="none" stroke-width="6.0" stroke-linecap="round" stroke-linejoin="round" />
<path d="M 128.75 225.0 L 130.0 225.0 L 132.5 228.75 L 141.25 236.25 L 157.5 252.5 L 177.5 270.0 L 195.0 283.75 L 205.0 290.0 L 208.75 293.75 L 210.0 295.0 L 210.0 296.25 " stroke="black" fill="none" stroke-width="6.0" stroke-linecap="round" stroke-linejoin="round" />
</svg>