<svg xmlns="http://www.w3.org/2000/svg" width="300" height="300" viewBox="0 0 300 300">
<path d="M 131.25 61.25 L 127.5 62.5 L 127.5 63.75 L 135.0 68.75 L 148.75 76.25 L 161.25 83.75 L 165.0 88.75 L 163.75 90.0 " stroke="black" fill="none" stroke-width="6.0" stroke-linecap="round" stroke-linejoin="round" />
<path d="M 71.25 100.0 L 71.25 100.0 L 71.25 100.0 L 73.75 102.5 L 78.75 116.25 L 82.5 133.75 L 82.5 143.75 L 82.5 145.0 " stroke="black" fill="none" stroke-width="6.0" stroke-linecap="round" stroke-linejoin="round" />
<path d="M 80.0 112.5 L 80.0 112.5 L 82.5 112.5 L 101.25 107.5 L 140.0 101.25 L 176.25 97.5 L 196.25 97.5 L 197.5 101.25 L 187.5 111.25 L 182.5 115.0 L 152.5 130.0 " stroke="black" fill="none" stroke-width="6.0" stroke-linecap="round" stroke-linejoin="round" />
<path d="M 102.5 165.0 L 101.25 166.25 L 98.75 167.5 L 106.25 165.0 L 126.25 157.5 L 150.0 146.25 L 165.0 137.5 L 167.5 136.25 L 165.0 136.25 " stroke="black" fill="none" stroke-width="6.0" stroke-linecap="round" stroke-linejoin="round" />
<path d="M 83.75 215.0 L 82.5 215.0 L 82.5 215.0 L 93.75 212.5 L 130.0 198.75 L 165.0 182.5 L 181.25 168.75 L 180.0 162.5 " stroke="black" fill="none" stroke-width="6.0" stroke-linecap="round" stroke-linejoin="round" />
<path d="M 123.75 157.5 L 121.25 162.5 L 120.0 180.0 L 122.5 213.75 L 127.5 248.75 L 140.0 265.0 L 152.5 267.5 L 172.5 266.25 L 193.75 260.0 L 211.25 252.5 L 223.75 247.5 L 230.0 245.0 L 230.0 245.0 L 230.0 245.0 L 230.0 242.5 L 230.0 233.75 L 230.0 216.25 L 227.5 183.75 L 223.75 160.0 " stroke="black" fill="none" stroke-width="6.0" stroke-linecap="round" stroke-linejoin="round" />
</svg>