<svg xmlns="http://www.w3.org/2000/svg" width="300" height="300" viewBox="0 0 300 300">
<path d="M 90.0 116.25 L 81.25 118.75 L 77.5 120.0 L 80.0 120.0 L 92.5 117.5 L 108.75 111.25 L 121.25 108.75 L 126.25 108.75 L 118.75 122.5 L 105.0 138.75 L 96.25 152.5 L 93.75 156.25 L 100.0 157.5 L 108.75 160.0 L 117.5 171.25 L 122.5 196.25 L 122.5 220.0 L 118.75 240.0 L 116.25 250.0 L 115.0 251.25 L 115.0 247.5 L 111.25 242.5 L 106.25 235.0 L 105.0 232.5 " stroke="black" fill="none" stroke-width="6.0" stroke-linecap="round" stroke-linejoin="round" />
<path d="M 81.25 202.5 L 80.0 202.5 L 76.25 205.0 L 78.75 205.0 L 96.25 195.0 L 128.75 173.75 L 136.25 166.25 " stroke="black" fill="none" stroke-width="6.0" stroke-linecap="round" stroke-linejoin="round" />
<path d="M 167.5 82.5 L 167.5 83.75 L 162.5 86.25 L 156.25 98.75 L 152.5 117.5 L 151.25 132.5 L 151.25 131.25 " stroke="black" fill="none" stroke-width="6.0" stroke-linecap="round" stroke-linejoin="round" />
<path d="M 196.25 83.75 L 196.25 83.75 L 192.5 83.75 L 187.5 92.5 L 180.0 110.0 L 172.5 135.0 L 171.25 138.75 L 177.5 133.75 L 190.0 121.25 L 202.5 108.75 L 211.25 98.75 L 212.5 97.5 L 207.5 108.75 L 182.5 153.75 L 165.0 175.0 L 158.75 185.0 L 163.75 183.75 L 178.75 172.5 L 197.5 157.5 L 213.75 145.0 L 230.0 136.25 L 241.25 133.75 L 245.0 136.25 L 242.5 143.75 L 231.25 156.25 L 218.75 168.75 L 208.75 177.5 " stroke="black" fill="none" stroke-width="6.0" stroke-linecap="round" stroke-linejoin="round" />
<path d="M 202.5 163.75 L 202.5 163.75 L 202.5 162.5 L 202.5 162.5 L 202.5 172.5 L 205.0 200.0 L 206.25 238.75 L 206.25 256.25 L 206.25 258.75 L 205.0 256.25 L 202.5 252.5 L 196.25 247.5 L 183.75 238.75 " stroke="black" fill="none" stroke-width="6.0" stroke-linecap="round" stroke-linejoin="round" />
<path d="M 152.5 210.0 L 152.5 210.0 L 150.0 211.25 L 148.75 212.5 L 153.75 220.0 L 162.5 235.0 L 172.5 247.5 L 177.5 251.25 " stroke="black" fill="none" stroke-width="6.0" stroke-linecap="round" stroke-linejoin="round" />
<path d="M 237.5 187.5 L 237.5 187.5 L 237.5 187.5 L 240.0 196.25 L 246.25 210.0 L 252.5 228.75 L 253.75 232.5 " stroke="black" fill="none" stroke-width="6.0" stroke-linecap="round" stroke-linejoin="round" />
</svg>