<svg xmlns="http://www.w3.org/2000/svg" width="300" height="300" viewBox="0 0 300 300">
<path d="M 133.75 66.25 L 132.5 65.0 L 130.0 62.5 L 130.0 62.5 L 133.75 62.5 L 142.5 67.5 L 151.25 73.75 L 153.75 77.5 " stroke="black" fill="none" stroke-width="6.0" stroke-linecap="round" stroke-linejoin="round" />
<path d="M 81.25 87.5 L 80.0 87.5 L 77.5 87.5 L 76.25 91.25 L 77.5 107.5 L 81.25 130.0 L 85.0 142.5 L 85.0 142.5 " stroke="black" fill="none" stroke-width="6.0" stroke-linecap="round" stroke-linejoin="round" />
<path d="M 86.25 107.5 L 86.25 107.5 L 85.0 106.25 L 90.0 103.75 L 115.0 100.0 L 158.75 95.0 L 193.75 92.5 L 205.0 92.5 L 201.25 98.75 L 183.75 111.25 L 161.25 127.5 L 140.0 138.75 L 121.25 145.0 " stroke="black" fill="none" stroke-width="6.0" stroke-linecap="round" stroke-linejoin="round" />
<path d="M 108.75 133.75 L 107.5 133.75 L 103.75 140.0 L 96.25 158.75 L 91.25 177.5 L 90.0 185.0 L 91.25 183.75 L 101.25 176.25 L 116.25 167.5 L 131.25 162.5 L 138.75 163.75 L 136.25 180.0 L 120.0 203.75 L 102.5 225.0 L 87.5 242.5 L 76.25 246.25 L 73.75 243.75 " stroke="black" fill="none" stroke-width="6.0" stroke-linecap="round" stroke-linejoin="round" />
<path d="M 82.5 182.5 L 82.5 180.0 L 82.5 178.75 L 83.75 180.0 L 91.25 192.5 L 101.25 207.5 L 116.25 216.25 L 121.25 216.25 " stroke="black" fill="none" stroke-width="6.0" stroke-linecap="round" stroke-linejoin="round" />
<path d="M 153.75 140.0 L 153.75 140.0 L 153.75 140.0 L 162.5 141.25 L 181.25 142.5 L 196.25 145.0 L 198.75 155.0 L 183.75 172.5 L 165.0 188.75 L 150.0 196.25 L 143.75 192.5 L 143.75 183.75 " stroke="black" fill="none" stroke-width="6.0" stroke-linecap="round" stroke-linejoin="round" />
<path d="M 155.0 147.5 L 152.5 147.5 L 148.75 151.25 L 145.0 173.75 L 145.0 202.5 L 152.5 223.75 L 166.25 233.75 L 186.25 238.75 L 206.25 241.25 L 220.0 240.0 L 231.25 235.0 L 235.0 228.75 L 235.0 223.75 L 232.5 217.5 L 230.0 210.0 L 228.75 202.5 L 228.75 190.0 L 227.5 162.5 " stroke="black" fill="none" stroke-width="6.0" stroke-linecap="round" stroke-linejoin="round" />
</svg>