<svg xmlns="http://www.w3.org/2000/svg" width="300" height="300" viewBox="0 0 300 300">
<path d="M 132.5 52.5 L 130.0 55.0 L 128.75 56.25 L 133.75 58.75 L 142.5 62.5 L 150.0 67.5 L 152.5 71.25 " stroke="black" fill="none" stroke-width="6.0" stroke-linecap="round" stroke-linejoin="round" />
<path d="M 78.75 93.75 L 77.5 93.75 L 75.0 93.75 L 73.75 95.0 L 77.5 101.25 L 83.75 118.75 L 87.5 136.25 L 87.5 143.75 L 86.25 143.75 L 85.0 141.25 " stroke="black" fill="none" stroke-width="6.0" stroke-linecap="round" stroke-linejoin="round" />
<path d="M 88.75 102.5 L 88.75 100.0 L 91.25 96.25 L 111.25 90.0 L 151.25 82.5 L 191.25 76.25 L 213.75 76.25 L 216.25 85.0 L 203.75 98.75 L 186.25 113.75 L 177.5 118.75 " stroke="black" fill="none" stroke-width="6.0" stroke-linecap="round" stroke-linejoin="round" />
<path d="M 118.75 122.5 L 120.0 121.25 L 120.0 120.0 L 120.0 123.75 L 120.0 141.25 L 121.25 165.0 L 123.75 181.25 L 125.0 182.5 L 125.0 177.5 " stroke="black" fill="none" stroke-width="6.0" stroke-linecap="round" stroke-linejoin="round" />
<path d="M 126.25 132.5 L 123.75 126.25 L 123.75 123.75 L 135.0 121.25 L 151.25 120.0 L 167.5 120.0 L 175.0 127.5 L 170.0 138.75 L 157.5 152.5 L 146.25 161.25 L 137.5 165.0 L 132.5 165.0 " stroke="black" fill="none" stroke-width="6.0" stroke-linecap="round" stroke-linejoin="round" />
<path d="M 122.5 151.25 L 122.5 151.25 L 121.25 151.25 L 122.5 150.0 L 133.75 145.0 L 151.25 137.5 L 166.25 130.0 L 168.75 128.75 L 166.25 130.0 " stroke="black" fill="none" stroke-width="6.0" stroke-linecap="round" stroke-linejoin="round" />
<path d="M 127.5 173.75 L 125.0 176.25 L 121.25 178.75 L 130.0 176.25 L 145.0 167.5 L 158.75 156.25 L 167.5 148.75 L 163.75 147.5 L 152.5 153.75 " stroke="black" fill="none" stroke-width="6.0" stroke-linecap="round" stroke-linejoin="round" />
<path d="M 93.75 207.5 L 87.5 216.25 L 88.75 217.5 L 106.25 208.75 L 135.0 193.75 L 167.5 172.5 L 188.75 157.5 L 195.0 151.25 L 185.0 153.75 " stroke="black" fill="none" stroke-width="6.0" stroke-linecap="round" stroke-linejoin="round" />
<path d="M 157.5 178.75 L 156.25 186.25 L 153.75 198.75 L 151.25 217.5 L 150.0 235.0 L 150.0 240.0 L 151.25 240.0 L 153.75 231.25 L 161.25 218.75 L 171.25 205.0 L 183.75 191.25 L 195.0 180.0 L 198.75 173.75 L 191.25 176.25 L 178.75 182.5 " stroke="black" fill="none" stroke-width="6.0" stroke-linecap="round" stroke-linejoin="round" />
<path d="M 116.25 200.0 L 116.25 203.75 L 108.75 213.75 L 106.25 230.0 L 105.0 251.25 L 103.75 267.5 L 102.5 270.0 L 100.0 266.25 L 100.0 263.75 " stroke="black" fill="none" stroke-width="6.0" stroke-linecap="round" stroke-linejoin="round" />
<path d="M 115.0 232.5 L 115.0 232.5 L 117.5 231.25 L 120.0 233.75 L 126.25 238.75 L 142.5 247.5 L 162.5 253.75 L 186.25 258.75 L 205.0 262.5 L 218.75 266.25 L 230.0 267.5 L 235.0 267.5 " stroke="black" fill="none" stroke-width="6.0" stroke-linecap="round" stroke-linejoin="round" />
</svg>