<svg xmlns="http://www.w3.org/2000/svg" width="300" height="300" viewBox="0 0 300 300">
<path d="M 97.5 95.0 L 93.75 96.25 L 91.25 103.75 L 90.0 125.0 L 90.0 140.0 L 90.0 145.0 L 91.25 145.0 " stroke="black" fill="none" stroke-width="6.0" stroke-linecap="round" stroke-linejoin="round" />
<path d="M 87.5 113.75 L 87.5 113.75 L 87.5 112.5 L 95.0 111.25 L 127.5 107.5 L 165.0 102.5 L 188.75 101.25 L 196.25 102.5 L 193.75 106.25 L 185.0 113.75 L 171.25 123.75 L 157.5 131.25 L 146.25 136.25 L 142.5 137.5 " stroke="black" fill="none" stroke-width="6.0" stroke-linecap="round" stroke-linejoin="round" />
<path d="M 128.75 70.0 L 128.75 70.0 L 128.75 70.0 L 128.75 71.25 L 130.0 96.25 L 130.0 141.25 L 130.0 173.75 L 127.5 195.0 L 128.75 203.75 L 138.75 210.0 L 152.5 215.0 L 166.25 216.25 L 181.25 216.25 L 190.0 216.25 L 191.25 216.25 L 186.25 216.25 L 183.75 216.25 " stroke="black" fill="none" stroke-width="6.0" stroke-linecap="round" stroke-linejoin="round" />
<path d="M 173.75 145.0 L 175.0 146.25 L 175.0 155.0 L 166.25 182.5 L 153.75 210.0 L 140.0 228.75 L 120.0 238.75 L 101.25 241.25 L 97.5 240.0 " stroke="black" fill="none" stroke-width="6.0" stroke-linecap="round" stroke-linejoin="round" />
<path d="M 78.75 186.25 L 78.75 186.25 L 80.0 185.0 L 91.25 183.75 L 126.25 181.25 L 168.75 176.25 L 202.5 172.5 L 218.75 172.5 L 222.5 173.75 " stroke="black" fill="none" stroke-width="6.0" stroke-linecap="round" stroke-linejoin="round" />
</svg>