<svg xmlns="http://www.w3.org/2000/svg" width="300" height="300" viewBox="0 0 300 300">
<path d="M 127.5 77.5 L 125.0 77.5 L 123.75 77.5 L 132.5 77.5 L 143.75 77.5 L 153.75 80.0 L 156.25 82.5 " stroke="black" fill="none" stroke-width="6.0" stroke-linecap="round" stroke-linejoin="round" />
<path d="M 72.5 91.25 L 72.5 92.5 L 72.5 93.75 L 72.5 96.25 L 77.5 103.75 L 82.5 116.25 L 85.0 125.0 L 85.0 127.5 " stroke="black" fill="none" stroke-width="6.0" stroke-linecap="round" stroke-linejoin="round" />
<path d="M 81.25 106.25 L 81.25 108.75 L 86.25 108.75 L 112.5 102.5 L 156.25 93.75 L 196.25 87.5 L 216.25 86.25 L 218.75 91.25 L 210.0 100.0 L 193.75 111.25 L 190.0 113.75 " stroke="black" fill="none" stroke-width="6.0" stroke-linecap="round" stroke-linejoin="round" />
<path d="M 93.75 146.25 L 92.5 146.25 L 91.25 146.25 L 91.25 148.75 L 91.25 156.25 L 91.25 167.5 L 91.25 176.25 L 91.25 177.5 L 100.0 171.25 L 112.5 158.75 L 125.0 147.5 L 133.75 138.75 L 135.0 132.5 L 130.0 132.5 L 122.5 132.5 L 117.5 132.5 L 115.0 132.5 L 113.75 131.25 L 113.75 130.0 L 113.75 128.75 L 115.0 131.25 L 117.5 146.25 L 120.0 178.75 L 122.5 212.5 L 123.75 230.0 L 120.0 233.75 L 118.75 233.75 " stroke="black" fill="none" stroke-width="6.0" stroke-linecap="round" stroke-linejoin="round" />
<path d="M 81.25 203.75 L 78.75 207.5 L 77.5 208.75 L 82.5 207.5 L 93.75 201.25 L 106.25 193.75 L 113.75 190.0 L 116.25 188.75 L 106.25 198.75 L 95.0 215.0 L 82.5 235.0 L 73.75 246.25 " stroke="black" fill="none" stroke-width="6.0" stroke-linecap="round" stroke-linejoin="round" />
<path d="M 145.0 142.5 L 143.75 143.75 L 137.5 146.25 L 135.0 147.5 L 142.5 148.75 L 157.5 147.5 L 176.25 143.75 L 195.0 140.0 L 203.75 135.0 L 205.0 133.75 L 198.75 135.0 L 195.0 136.25 " stroke="black" fill="none" stroke-width="6.0" stroke-linecap="round" stroke-linejoin="round" />
<path d="M 142.5 182.5 L 141.25 183.75 L 138.75 186.25 L 142.5 186.25 L 160.0 180.0 L 187.5 166.25 L 211.25 150.0 L 218.75 140.0 L 218.75 137.5 " stroke="black" fill="none" stroke-width="6.0" stroke-linecap="round" stroke-linejoin="round" />
<path d="M 176.25 118.75 L 176.25 117.5 L 176.25 117.5 L 175.0 116.25 L 175.0 123.75 L 178.75 150.0 L 183.75 195.0 L 185.0 226.25 L 183.75 238.75 L 181.25 243.75 L 177.5 245.0 L 172.5 241.25 L 168.75 235.0 " stroke="black" fill="none" stroke-width="6.0" stroke-linecap="round" stroke-linejoin="round" />
<path d="M 180.0 178.75 L 177.5 181.25 L 166.25 193.75 L 156.25 207.5 L 145.0 225.0 L 135.0 237.5 L 128.75 240.0 " stroke="black" fill="none" stroke-width="6.0" stroke-linecap="round" stroke-linejoin="round" />
<path d="M 173.75 180.0 L 175.0 180.0 L 182.5 183.75 L 197.5 195.0 L 210.0 206.25 L 227.5 220.0 L 240.0 228.75 L 246.25 233.75 L 246.25 237.5 L 246.25 238.75 " stroke="black" fill="none" stroke-width="6.0" stroke-linecap="round" stroke-linejoin="round" />
</svg>