<svg xmlns="http://www.w3.org/2000/svg" width="300" height="300" viewBox="0 0 300 300">
<path d="M 150.0 81.25 L 148.75 81.25 L 147.5 81.25 L 147.5 82.5 L 151.25 83.75 L 160.0 85.0 L 167.5 87.5 L 167.5 90.0 " stroke="black" fill="none" stroke-width="6.0" stroke-linecap="round" stroke-linejoin="round" />
<path d="M 96.25 108.75 L 95.0 110.0 L 95.0 113.75 L 97.5 123.75 L 101.25 141.25 L 102.5 155.0 L 103.75 160.0 L 102.5 160.0 " stroke="black" fill="none" stroke-width="6.0" stroke-linecap="round" stroke-linejoin="round" />
<path d="M 96.25 130.0 L 96.25 130.0 L 96.25 130.0 L 100.0 130.0 L 128.75 128.75 L 171.25 120.0 L 210.0 112.5 L 222.5 111.25 L 221.25 116.25 L 207.5 128.75 L 190.0 141.25 L 168.75 148.75 L 163.75 150.0 " stroke="black" fill="none" stroke-width="6.0" stroke-linecap="round" stroke-linejoin="round" />
<path d="M 136.25 147.5 L 135.0 147.5 L 135.0 155.0 L 135.0 187.5 L 136.25 223.75 L 138.75 243.75 L 141.25 246.25 L 142.5 241.25 " stroke="black" fill="none" stroke-width="6.0" stroke-linecap="round" stroke-linejoin="round" />
<path d="M 133.75 185.0 L 132.5 183.75 L 131.25 181.25 L 133.75 177.5 L 147.5 172.5 L 167.5 170.0 L 190.0 173.75 L 200.0 191.25 L 198.75 213.75 L 188.75 233.75 L 177.5 245.0 L 166.25 247.5 L 163.75 247.5 " stroke="black" fill="none" stroke-width="6.0" stroke-linecap="round" stroke-linejoin="round" />
<path d="M 137.5 198.75 L 136.25 198.75 L 136.25 198.75 L 141.25 198.75 L 157.5 195.0 L 176.25 190.0 L 187.5 187.5 L 187.5 186.25 " stroke="black" fill="none" stroke-width="6.0" stroke-linecap="round" stroke-linejoin="round" />
<path d="M 141.25 215.0 L 141.25 215.0 L 138.75 217.5 L 142.5 217.5 L 157.5 215.0 L 175.0 208.75 L 188.75 205.0 L 187.5 205.0 " stroke="black" fill="none" stroke-width="6.0" stroke-linecap="round" stroke-linejoin="round" />
<path d="M 108.75 251.25 L 107.5 251.25 L 107.5 252.5 L 122.5 251.25 L 152.5 246.25 L 191.25 241.25 L 218.75 238.75 L 235.0 237.5 L 241.25 236.25 L 241.25 236.25 L 241.25 236.25 L 232.5 240.0 " stroke="black" fill="none" stroke-width="6.0" stroke-linecap="round" stroke-linejoin="round" />
</svg>