<svg xmlns="http://www.w3.org/2000/svg" width="300" height="300" viewBox="0 0 300 300">
<path d="M 138.75 57.5 L 138.75 57.5 L 137.5 58.75 L 138.75 61.25 L 147.5 63.75 L 160.0 65.0 L 170.0 66.25 " stroke="black" fill="none" stroke-width="6.0" stroke-linecap="round" stroke-linejoin="round" />
<path d="M 76.25 90.0 L 76.25 90.0 L 75.0 90.0 L 73.75 90.0 L 73.75 90.0 L 75.0 95.0 L 77.5 102.5 L 78.75 108.75 L 78.75 111.25 L 78.75 111.25 " stroke="black" fill="none" stroke-width="6.0" stroke-linecap="round" stroke-linejoin="round" />
<path d="M 82.5 97.5 L 82.5 97.5 L 82.5 97.5 L 83.75 96.25 L 96.25 93.75 L 127.5 90.0 L 163.75 86.25 L 191.25 85.0 L 200.0 86.25 L 196.25 91.25 L 182.5 97.5 L 178.75 98.75 " stroke="black" fill="none" stroke-width="6.0" stroke-linecap="round" stroke-linejoin="round" />
<path d="M 125.0 113.75 L 121.25 115.0 L 115.0 117.5 L 115.0 118.75 L 125.0 117.5 L 141.25 115.0 L 153.75 112.5 L 161.25 111.25 L 161.25 110.0 L 152.5 117.5 L 138.75 125.0 L 127.5 131.25 L 120.0 135.0 L 117.5 136.25 L 120.0 135.0 L 123.75 133.75 L 125.0 133.75 L 126.25 133.75 L 126.25 135.0 L 126.25 143.75 L 128.75 163.75 L 131.25 183.75 L 133.75 195.0 L 133.75 195.0 L 133.75 195.0 " stroke="black" fill="none" stroke-width="6.0" stroke-linecap="round" stroke-linejoin="round" />
<path d="M 126.25 142.5 L 126.25 142.5 L 123.75 141.25 L 125.0 138.75 L 132.5 135.0 L 143.75 132.5 L 156.25 131.25 L 165.0 135.0 L 168.75 145.0 L 168.75 157.5 L 163.75 167.5 L 157.5 172.5 " stroke="black" fill="none" stroke-width="6.0" stroke-linecap="round" stroke-linejoin="round" />
<path d="M 135.0 150.0 L 128.75 152.5 L 127.5 152.5 L 132.5 152.5 L 143.75 150.0 L 155.0 146.25 L 163.75 141.25 L 163.75 140.0 " stroke="black" fill="none" stroke-width="6.0" stroke-linecap="round" stroke-linejoin="round" />
<path d="M 137.5 161.25 L 136.25 163.75 L 135.0 166.25 L 138.75 166.25 L 147.5 162.5 L 158.75 156.25 L 163.75 153.75 " stroke="black" fill="none" stroke-width="6.0" stroke-linecap="round" stroke-linejoin="round" />
<path d="M 81.25 202.5 L 78.75 205.0 L 80.0 206.25 L 93.75 201.25 L 123.75 191.25 L 156.25 177.5 L 180.0 166.25 L 187.5 161.25 L 183.75 162.5 L 171.25 167.5 L 157.5 176.25 L 143.75 187.5 L 128.75 205.0 L 111.25 232.5 L 103.75 250.0 L 101.25 252.5 L 103.75 247.5 " stroke="black" fill="none" stroke-width="6.0" stroke-linecap="round" stroke-linejoin="round" />
<path d="M 152.5 183.75 L 153.75 183.75 L 158.75 183.75 L 172.5 185.0 L 192.5 192.5 L 208.75 200.0 L 217.5 205.0 L 220.0 207.5 L 213.75 208.75 L 208.75 210.0 " stroke="black" fill="none" stroke-width="6.0" stroke-linecap="round" stroke-linejoin="round" />
<path d="M 137.5 221.25 L 133.75 225.0 L 132.5 226.25 L 138.75 226.25 L 155.0 220.0 L 177.5 213.75 L 196.25 211.25 L 203.75 212.5 L 201.25 222.5 L 188.75 237.5 L 173.75 248.75 L 160.0 253.75 " stroke="black" fill="none" stroke-width="6.0" stroke-linecap="round" stroke-linejoin="round" />
<path d="M 156.25 220.0 L 156.25 220.0 L 152.5 227.5 L 148.75 238.75 L 143.75 256.25 L 140.0 268.75 " stroke="black" fill="none" stroke-width="6.0" stroke-linecap="round" stroke-linejoin="round" />
</svg>