<svg xmlns="http://www.w3.org/2000/svg" width="300" height="300" viewBox="0 0 300 300">
<path d="M 135.0 90.0 L 131.25 90.0 L 128.75 90.0 L 130.0 90.0 L 143.75 90.0 L 161.25 88.75 L 175.0 88.75 L 180.0 92.5 L 173.75 102.5 L 160.0 117.5 L 151.25 128.75 L 150.0 133.75 L 158.75 133.75 L 171.25 136.25 L 182.5 150.0 L 186.25 181.25 L 183.75 218.75 L 177.5 247.5 L 172.5 258.75 L 167.5 262.5 L 161.25 261.25 L 152.5 255.0 L 143.75 241.25 L 130.0 223.75 L 126.25 218.75 " stroke="black" fill="none" stroke-width="6.0" stroke-linecap="round" stroke-linejoin="round" />
<path d="M 93.75 177.5 L 93.75 177.5 L 93.75 178.75 L 108.75 178.75 L 151.25 175.0 L 200.0 165.0 L 232.5 157.5 L 252.5 158.75 L 255.0 158.75 " stroke="black" fill="none" stroke-width="6.0" stroke-linecap="round" stroke-linejoin="round" />
</svg>