<svg xmlns="http://www.w3.org/2000/svg" width="300" height="300" viewBox="0 0 300 300">
<path d="M 140.0 71.25 L 138.75 71.25 L 136.25 71.25 L 135.0 71.25 L 138.75 71.25 L 146.25 76.25 L 153.75 82.5 L 156.25 88.75 " stroke="black" fill="none" stroke-width="6.0" stroke-linecap="round" stroke-linejoin="round" />
<path d="M 100.0 107.5 L 100.0 107.5 L 100.0 110.0 L 101.25 127.5 L 101.25 152.5 L 100.0 165.0 " stroke="black" fill="none" stroke-width="6.0" stroke-linecap="round" stroke-linejoin="round" />
<path d="M 108.75 126.25 L 110.0 125.0 L 117.5 122.5 L 141.25 117.5 L 171.25 113.75 L 198.75 112.5 L 208.75 112.5 L 207.5 116.25 L 196.25 125.0 L 181.25 132.5 " stroke="black" fill="none" stroke-width="6.0" stroke-linecap="round" stroke-linejoin="round" />
<path d="M 147.5 143.75 L 147.5 143.75 L 147.5 143.75 L 150.0 143.75 L 156.25 146.25 L 163.75 148.75 L 166.25 155.0 L 162.5 163.75 L 157.5 171.25 L 155.0 176.25 L 156.25 178.75 L 163.75 183.75 L 173.75 196.25 L 177.5 218.75 L 175.0 242.5 L 168.75 256.25 L 163.75 261.25 L 156.25 261.25 L 148.75 258.75 L 140.0 253.75 L 126.25 245.0 L 110.0 235.0 L 102.5 227.5 " stroke="black" fill="none" stroke-width="6.0" stroke-linecap="round" stroke-linejoin="round" />
<path d="M 87.5 212.5 L 83.75 212.5 L 82.5 212.5 L 88.75 212.5 L 115.0 210.0 L 156.25 207.5 L 197.5 205.0 L 220.0 205.0 L 232.5 203.75 " stroke="black" fill="none" stroke-width="6.0" stroke-linecap="round" stroke-linejoin="round" />
</svg>