<svg xmlns="http://www.w3.org/2000/svg" width="300" height="300" viewBox="0 0 300 300">
<path d="M 133.75 76.25 L 133.75 76.25 L 133.75 76.25 L 138.75 76.25 L 150.0 78.75 L 165.0 80.0 L 171.25 83.75 " stroke="black" fill="none" stroke-width="6.0" stroke-linecap="round" stroke-linejoin="round" />
<path d="M 88.75 108.75 L 85.0 115.0 L 85.0 121.25 L 91.25 131.25 L 98.75 142.5 L 105.0 150.0 L 106.25 151.25 L 106.25 150.0 " stroke="black" fill="none" stroke-width="6.0" stroke-linecap="round" stroke-linejoin="round" />
<path d="M 101.25 127.5 L 101.25 127.5 L 100.0 126.25 L 103.75 122.5 L 121.25 117.5 L 167.5 103.75 L 202.5 97.5 L 215.0 97.5 L 213.75 102.5 L 201.25 115.0 L 186.25 128.75 L 182.5 132.5 " stroke="black" fill="none" stroke-width="6.0" stroke-linecap="round" stroke-linejoin="round" />
<path d="M 136.25 152.5 L 133.75 155.0 L 131.25 157.5 L 133.75 157.5 L 146.25 152.5 L 161.25 145.0 L 173.75 137.5 L 177.5 135.0 L 176.25 135.0 " stroke="black" fill="none" stroke-width="6.0" stroke-linecap="round" stroke-linejoin="round" />
<path d="M 113.75 197.5 L 113.75 198.75 L 113.75 201.25 L 121.25 198.75 L 143.75 185.0 L 173.75 163.75 L 196.25 146.25 L 201.25 140.0 L 198.75 138.75 L 188.75 143.75 L 180.0 150.0 L 173.75 155.0 L 170.0 162.5 L 170.0 176.25 L 173.75 205.0 L 176.25 237.5 L 177.5 255.0 L 177.5 258.75 L 176.25 258.75 L 175.0 256.25 L 170.0 252.5 L 161.25 247.5 L 151.25 243.75 " stroke="black" fill="none" stroke-width="6.0" stroke-linecap="round" stroke-linejoin="round" />
<path d="M 98.75 216.25 L 97.5 218.75 L 96.25 225.0 L 98.75 235.0 L 105.0 248.75 L 111.25 260.0 L 113.75 262.5 " stroke="black" fill="none" stroke-width="6.0" stroke-linecap="round" stroke-linejoin="round" />
<path d="M 220.0 196.25 L 221.25 201.25 L 227.5 208.75 L 240.0 222.5 L 248.75 235.0 L 253.75 242.5 L 253.75 243.75 " stroke="black" fill="none" stroke-width="6.0" stroke-linecap="round" stroke-linejoin="round" />
</svg>