<svg xmlns="http://www.w3.org/2000/svg" width="300" height="300" viewBox="0 0 300 300">
<path d="M 135.0 76.25 L 133.75 76.25 L 131.25 76.25 L 131.25 76.25 L 137.5 77.5 L 147.5 81.25 L 155.0 83.75 L 155.0 86.25 " stroke="black" fill="none" stroke-width="6.0" stroke-linecap="round" stroke-linejoin="round" />
<path d="M 80.0 102.5 L 77.5 102.5 L 76.25 103.75 L 81.25 107.5 L 93.75 121.25 L 106.25 141.25 L 113.75 153.75 L 112.5 153.75 L 111.25 151.25 " stroke="black" fill="none" stroke-width="6.0" stroke-linecap="round" stroke-linejoin="round" />
<path d="M 102.5 131.25 L 101.25 130.0 L 96.25 126.25 L 96.25 123.75 L 110.0 118.75 L 137.5 110.0 L 167.5 103.75 L 191.25 102.5 L 196.25 103.75 L 190.0 108.75 L 173.75 121.25 L 155.0 132.5 L 136.25 143.75 L 113.75 155.0 L 96.25 167.5 L 93.75 171.25 L 98.75 171.25 L 118.75 165.0 L 145.0 151.25 L 168.75 138.75 L 185.0 128.75 L 186.25 127.5 L 175.0 131.25 L 161.25 137.5 L 151.25 145.0 L 145.0 156.25 L 145.0 180.0 L 150.0 205.0 L 152.5 220.0 L 153.75 222.5 L 153.75 220.0 L 153.75 213.75 L 157.5 202.5 L 166.25 190.0 L 177.5 176.25 L 186.25 163.75 L 185.0 157.5 L 182.5 157.5 " stroke="black" fill="none" stroke-width="6.0" stroke-linecap="round" stroke-linejoin="round" />
<path d="M 113.75 173.75 L 108.75 182.5 L 107.5 201.25 L 105.0 227.5 L 101.25 248.75 L 96.25 258.75 L 90.0 260.0 " stroke="black" fill="none" stroke-width="6.0" stroke-linecap="round" stroke-linejoin="round" />
<path d="M 110.0 200.0 L 110.0 200.0 L 111.25 200.0 L 120.0 205.0 L 141.25 220.0 L 165.0 236.25 L 190.0 245.0 L 211.25 247.5 L 231.25 247.5 L 250.0 246.25 L 256.25 246.25 " stroke="black" fill="none" stroke-width="6.0" stroke-linecap="round" stroke-linejoin="round" />
</svg>