<svg xmlns="http://www.w3.org/2000/svg" width="300" height="300" viewBox="0 0 300 300">
<path d="M 145.0 61.25 L 145.0 61.25 L 145.0 60.0 L 150.0 60.0 L 161.25 63.75 L 170.0 70.0 L 167.5 80.0 " stroke="black" fill="none" stroke-width="6.0" stroke-linecap="round" stroke-linejoin="round" />
<path d="M 88.75 92.5 L 88.75 92.5 L 87.5 92.5 L 90.0 96.25 L 102.5 113.75 L 120.0 140.0 L 126.25 152.5 L 123.75 152.5 " stroke="black" fill="none" stroke-width="6.0" stroke-linecap="round" stroke-linejoin="round" />
<path d="M 97.5 112.5 L 96.25 111.25 L 100.0 110.0 L 126.25 105.0 L 166.25 98.75 L 200.0 95.0 L 212.5 98.75 L 210.0 107.5 L 193.75 125.0 L 168.75 141.25 L 142.5 152.5 L 132.5 155.0 " stroke="black" fill="none" stroke-width="6.0" stroke-linecap="round" stroke-linejoin="round" />
<path d="M 131.25 136.25 L 131.25 136.25 L 130.0 136.25 L 130.0 140.0 L 133.75 156.25 L 140.0 175.0 L 143.75 183.75 L 143.75 182.5 L 142.5 172.5 L 141.25 160.0 L 141.25 150.0 L 141.25 136.25 L 150.0 133.75 L 162.5 133.75 L 173.75 137.5 L 176.25 145.0 L 165.0 155.0 L 148.75 168.75 L 128.75 183.75 L 116.25 191.25 L 118.75 191.25 L 137.5 185.0 L 160.0 173.75 L 181.25 163.75 L 192.5 161.25 L 187.5 168.75 L 170.0 186.25 L 150.0 202.5 L 128.75 215.0 L 107.5 223.75 L 98.75 226.25 L 98.75 226.25 L 102.5 226.25 L 113.75 230.0 L 128.75 240.0 L 143.75 251.25 L 155.0 261.25 L 162.5 270.0 L 163.75 271.25 L 162.5 270.0 L 156.25 265.0 L 148.75 258.75 L 136.25 250.0 L 123.75 243.75 L 115.0 240.0 L 112.5 238.75 L 122.5 235.0 L 147.5 225.0 L 176.25 215.0 L 202.5 210.0 L 212.5 212.5 L 211.25 221.25 L 201.25 236.25 L 186.25 248.75 L 170.0 257.5 L 167.5 260.0 L 173.75 258.75 L 191.25 251.25 L 212.5 238.75 L 232.5 226.25 " stroke="black" fill="none" stroke-width="6.0" stroke-linecap="round" stroke-linejoin="round" />
</svg>