<svg xmlns="http://www.w3.org/2000/svg" width="300" height="300" viewBox="0 0 300 300">
<path d="M 130.0 72.5 L 128.75 72.5 L 128.75 72.5 L 132.5 72.5 L 143.75 73.75 L 157.5 76.25 L 168.75 81.25 L 168.75 82.5 " stroke="black" fill="none" stroke-width="6.0" stroke-linecap="round" stroke-linejoin="round" />
<path d="M 97.5 118.75 L 97.5 118.75 L 96.25 121.25 L 100.0 132.5 L 108.75 152.5 L 115.0 170.0 L 115.0 176.25 L 113.75 176.25 " stroke="black" fill="none" stroke-width="6.0" stroke-linecap="round" stroke-linejoin="round" />
<path d="M 96.25 146.25 L 96.25 146.25 L 95.0 146.25 L 95.0 145.0 L 116.25 138.75 L 155.0 126.25 L 191.25 116.25 L 202.5 115.0 L 200.0 123.75 L 187.5 138.75 L 168.75 152.5 L 150.0 162.5 " stroke="black" fill="none" stroke-width="6.0" stroke-linecap="round" stroke-linejoin="round" />
<path d="M 140.0 157.5 L 141.25 157.5 L 146.25 157.5 L 160.0 161.25 L 172.5 167.5 L 175.0 178.75 L 162.5 193.75 L 145.0 205.0 L 125.0 212.5 L 111.25 216.25 L 110.0 213.75 L 123.75 205.0 L 143.75 192.5 L 165.0 180.0 L 181.25 172.5 L 186.25 176.25 L 180.0 188.75 L 161.25 213.75 L 147.5 232.5 L 143.75 242.5 L 148.75 241.25 L 166.25 233.75 L 190.0 218.75 L 207.5 205.0 L 215.0 198.75 L 215.0 197.5 L 212.5 198.75 L 207.5 198.75 L 205.0 197.5 L 202.5 195.0 L 202.5 192.5 L 201.25 191.25 L 201.25 190.0 L 201.25 190.0 L 202.5 190.0 L 207.5 195.0 L 217.5 210.0 L 231.25 231.25 L 242.5 248.75 " stroke="black" fill="none" stroke-width="6.0" stroke-linecap="round" stroke-linejoin="round" />
</svg>