<svg xmlns="http://www.w3.org/2000/svg" width="300" height="300" viewBox="0 0 300 300">
<path d="M 90.0 102.5 L 88.75 102.5 L 87.5 102.5 L 87.5 102.5 L 96.25 102.5 L 107.5 102.5 L 118.75 103.75 L 121.25 107.5 L 118.75 116.25 L 103.75 135.0 L 96.25 145.0 L 95.0 148.75 L 102.5 148.75 L 115.0 148.75 L 128.75 153.75 L 135.0 173.75 L 132.5 205.0 L 125.0 230.0 L 117.5 243.75 L 115.0 245.0 L 113.75 245.0 L 111.25 240.0 L 107.5 231.25 L 100.0 220.0 L 98.75 216.25 " stroke="black" fill="none" stroke-width="6.0" stroke-linecap="round" stroke-linejoin="round" />
<path d="M 71.25 191.25 L 67.5 193.75 L 66.25 193.75 L 78.75 193.75 L 100.0 187.5 L 133.75 170.0 L 162.5 148.75 " stroke="black" fill="none" stroke-width="6.0" stroke-linecap="round" stroke-linejoin="round" />
<path d="M 171.25 98.75 L 171.25 98.75 L 170.0 98.75 L 170.0 112.5 L 171.25 155.0 L 171.25 195.0 L 172.5 213.75 L 181.25 220.0 L 196.25 222.5 L 211.25 222.5 L 228.75 221.25 L 240.0 218.75 L 245.0 213.75 L 246.25 211.25 L 245.0 205.0 L 245.0 202.5 " stroke="black" fill="none" stroke-width="6.0" stroke-linecap="round" stroke-linejoin="round" />
</svg>