<svg xmlns="http://www.w3.org/2000/svg" width="300" height="300" viewBox="0 0 300 300">
<path d="M 91.25 78.75 L 90.0 78.75 L 87.5 78.75 L 87.5 78.75 L 96.25 82.5 L 112.5 86.25 L 125.0 90.0 L 128.75 91.25 " stroke="black" fill="none" stroke-width="6.0" stroke-linecap="round" stroke-linejoin="round" />
<path d="M 52.5 110.0 L 52.5 111.25 L 50.0 116.25 L 57.5 117.5 L 80.0 111.25 L 105.0 100.0 L 126.25 88.75 L 137.5 82.5 L 135.0 81.25 L 128.75 83.75 " stroke="black" fill="none" stroke-width="6.0" stroke-linecap="round" stroke-linejoin="round" />
<path d="M 88.75 121.25 L 88.75 126.25 L 86.25 136.25 L 86.25 148.75 L 88.75 161.25 L 91.25 168.75 L 92.5 170.0 L 92.5 165.0 " stroke="black" fill="none" stroke-width="6.0" stroke-linecap="round" stroke-linejoin="round" />
<path d="M 91.25 147.5 L 91.25 143.75 L 90.0 140.0 L 91.25 136.25 L 98.75 133.75 L 110.0 130.0 L 121.25 130.0 L 122.5 132.5 L 113.75 141.25 L 103.75 148.75 L 91.25 160.0 L 86.25 165.0 L 87.5 166.25 L 97.5 162.5 L 113.75 153.75 L 128.75 143.75 L 136.25 137.5 L 135.0 137.5 L 123.75 143.75 L 121.25 146.25 " stroke="black" fill="none" stroke-width="6.0" stroke-linecap="round" stroke-linejoin="round" />
<path d="M 80.0 196.25 L 77.5 197.5 L 76.25 200.0 L 80.0 198.75 L 95.0 190.0 L 112.5 182.5 L 122.5 176.25 L 122.5 177.5 L 111.25 188.75 L 100.0 200.0 L 93.75 207.5 L 93.75 210.0 L 101.25 210.0 L 110.0 210.0 L 118.75 211.25 L 123.75 221.25 L 125.0 237.5 L 121.25 251.25 L 116.25 258.75 L 110.0 261.25 L 106.25 260.0 L 100.0 253.75 L 92.5 247.5 L 85.0 245.0 L 75.0 245.0 L 67.5 248.75 L 66.25 251.25 L 68.75 252.5 L 82.5 243.75 L 100.0 225.0 L 126.25 201.25 L 147.5 180.0 L 151.25 171.25 " stroke="black" fill="none" stroke-width="6.0" stroke-linecap="round" stroke-linejoin="round" />
<path d="M 158.75 135.0 L 157.5 135.0 L 155.0 135.0 L 153.75 136.25 L 165.0 132.5 L 185.0 126.25 L 208.75 118.75 L 225.0 116.25 L 230.0 122.5 L 223.75 146.25 L 212.5 185.0 L 210.0 215.0 L 218.75 230.0 L 238.75 231.25 L 256.25 222.5 L 266.25 211.25 L 267.5 202.5 L 265.0 198.75 L 257.5 196.25 L 246.25 193.75 L 237.5 191.25 " stroke="black" fill="none" stroke-width="6.0" stroke-linecap="round" stroke-linejoin="round" />
<path d="M 188.75 85.0 L 190.0 78.75 L 190.0 75.0 L 190.0 76.25 L 188.75 97.5 L 183.75 143.75 L 173.75 200.0 L 163.75 233.75 L 155.0 246.25 L 148.75 247.5 L 145.0 238.75 L 145.0 235.0 " stroke="black" fill="none" stroke-width="6.0" stroke-linecap="round" stroke-linejoin="round" />
<path d="M 160.0 160.0 L 162.5 165.0 L 162.5 170.0 L 171.25 183.75 L 192.5 205.0 L 212.5 221.25 L 223.75 231.25 L 227.5 236.25 " stroke="black" fill="none" stroke-width="6.0" stroke-linecap="round" stroke-linejoin="round" />
</svg>