<svg xmlns="http://www.w3.org/2000/svg" width="300" height="300" viewBox="0 0 300 300">
<path d="M 68.75 126.25 L 66.25 125.0 L 65.0 122.5 L 63.75 122.5 L 71.25 130.0 L 86.25 152.5 L 101.25 187.5 L 115.0 210.0 L 121.25 215.0 L 121.25 213.75 L 118.75 211.25 " stroke="black" fill="none" stroke-width="6.0" stroke-linecap="round" stroke-linejoin="round" />
<path d="M 100.0 126.25 L 100.0 126.25 L 102.5 128.75 L 107.5 146.25 L 110.0 180.0 L 103.75 202.5 L 92.5 211.25 L 78.75 211.25 L 62.5 207.5 L 47.5 201.25 L 40.0 192.5 L 40.0 186.25 L 45.0 182.5 L 61.25 177.5 L 85.0 171.25 L 113.75 160.0 L 136.25 148.75 " stroke="black" fill="none" stroke-width="6.0" stroke-linecap="round" stroke-linejoin="round" />
<path d="M 152.5 65.0 L 152.5 65.0 L 150.0 66.25 L 152.5 67.5 L 166.25 67.5 L 186.25 65.0 L 202.5 58.75 L 206.25 53.75 L 200.0 52.5 L 188.75 52.5 L 176.25 51.25 L 165.0 48.75 L 167.5 57.5 L 172.5 73.75 L 173.75 90.0 L 172.5 100.0 L 163.75 102.5 L 155.0 102.5 L 151.25 100.0 L 151.25 100.0 L 160.0 96.25 L 176.25 91.25 L 192.5 83.75 L 205.0 78.75 L 205.0 76.25 L 201.25 78.75 " stroke="black" fill="none" stroke-width="6.0" stroke-linecap="round" stroke-linejoin="round" />
<path d="M 157.5 107.5 L 157.5 108.75 L 157.5 116.25 L 158.75 127.5 L 162.5 137.5 L 165.0 141.25 L 165.0 141.25 L 163.75 140.0 L 160.0 136.25 L 156.25 131.25 L 155.0 127.5 L 157.5 121.25 L 168.75 115.0 L 183.75 108.75 L 197.5 106.25 L 202.5 106.25 L 200.0 113.75 L 188.75 125.0 L 175.0 136.25 L 161.25 145.0 L 157.5 147.5 L 163.75 145.0 L 180.0 136.25 L 193.75 127.5 L 203.75 120.0 L 202.5 118.75 L 190.0 130.0 L 172.5 142.5 L 152.5 155.0 L 135.0 173.75 L 128.75 183.75 L 137.5 181.25 L 157.5 170.0 L 186.25 153.75 L 213.75 137.5 L 228.75 126.25 L 231.25 123.75 L 217.5 125.0 L 202.5 131.25 L 185.0 136.25 L 167.5 142.5 L 160.0 148.75 L 158.75 157.5 L 162.5 172.5 L 165.0 191.25 L 168.75 202.5 L 170.0 203.75 L 171.25 197.5 " stroke="black" fill="none" stroke-width="6.0" stroke-linecap="round" stroke-linejoin="round" />
<path d="M 211.25 130.0 L 211.25 128.75 L 213.75 126.25 L 215.0 130.0 L 210.0 147.5 L 200.0 171.25 L 185.0 192.5 L 175.0 198.75 " stroke="black" fill="none" stroke-width="6.0" stroke-linecap="round" stroke-linejoin="round" />
<path d="M 155.0 200.0 L 155.0 200.0 L 153.75 202.5 L 155.0 208.75 L 162.5 218.75 L 173.75 230.0 L 183.75 238.75 L 187.5 241.25 L 187.5 241.25 L 186.25 240.0 L 181.25 236.25 L 175.0 230.0 L 168.75 223.75 L 165.0 218.75 L 166.25 213.75 L 182.5 205.0 L 206.25 193.75 L 228.75 186.25 L 236.25 186.25 L 233.75 196.25 L 220.0 211.25 L 206.25 228.75 L 195.0 241.25 L 192.5 245.0 L 200.0 241.25 L 215.0 231.25 L 231.25 217.5 L 241.25 207.5 " stroke="black" fill="none" stroke-width="6.0" stroke-linecap="round" stroke-linejoin="round" />
</svg>