<svg xmlns="http://www.w3.org/2000/svg" width="300" height="300" viewBox="0 0 300 300">
<path d="M 105.0 91.25 L 100.0 91.25 L 96.25 91.25 L 96.25 91.25 L 102.5 91.25 L 115.0 91.25 L 126.25 92.5 L 132.5 95.0 L 130.0 103.75 L 116.25 118.75 L 101.25 133.75 L 93.75 141.25 L 95.0 141.25 L 103.75 142.5 L 115.0 146.25 L 125.0 157.5 L 127.5 182.5 L 125.0 207.5 L 120.0 222.5 L 115.0 231.25 L 112.5 233.75 L 111.25 232.5 L 108.75 228.75 L 103.75 221.25 L 97.5 211.25 " stroke="black" fill="none" stroke-width="6.0" stroke-linecap="round" stroke-linejoin="round" />
<path d="M 68.75 193.75 L 65.0 193.75 L 61.25 195.0 L 65.0 195.0 L 85.0 188.75 L 111.25 172.5 L 136.25 153.75 " stroke="black" fill="none" stroke-width="6.0" stroke-linecap="round" stroke-linejoin="round" />
<path d="M 161.25 82.5 L 160.0 83.75 L 157.5 85.0 L 163.75 85.0 L 182.5 83.75 L 202.5 77.5 L 216.25 72.5 L 216.25 72.5 L 206.25 78.75 L 192.5 85.0 L 177.5 90.0 L 165.0 96.25 L 158.75 102.5 L 156.25 123.75 L 156.25 165.0 L 155.0 201.25 L 153.75 221.25 L 155.0 225.0 L 155.0 225.0 " stroke="black" fill="none" stroke-width="6.0" stroke-linecap="round" stroke-linejoin="round" />
<path d="M 186.25 136.25 L 186.25 133.75 L 187.5 132.5 L 187.5 142.5 L 185.0 167.5 L 182.5 193.75 L 182.5 202.5 L 185.0 200.0 L 193.75 187.5 L 202.5 171.25 L 207.5 156.25 L 207.5 146.25 L 207.5 143.75 L 207.5 146.25 L 207.5 160.0 L 207.5 177.5 L 210.0 191.25 L 213.75 195.0 L 215.0 193.75 " stroke="black" fill="none" stroke-width="6.0" stroke-linecap="round" stroke-linejoin="round" />
<path d="M 221.25 116.25 L 220.0 116.25 L 217.5 115.0 L 217.5 117.5 L 225.0 133.75 L 238.75 165.0 L 255.0 198.75 L 270.0 223.75 L 283.75 240.0 L 292.5 248.75 " stroke="black" fill="none" stroke-width="6.0" stroke-linecap="round" stroke-linejoin="round" />
</svg>