<svg xmlns="http://www.w3.org/2000/svg" width="300" height="300" viewBox="0 0 300 300">
<path d="M 126.25 62.5 L 125.0 62.5 L 123.75 63.75 L 125.0 63.75 L 135.0 65.0 L 145.0 67.5 L 153.75 71.25 " stroke="black" fill="none" stroke-width="6.0" stroke-linecap="round" stroke-linejoin="round" />
<path d="M 93.75 87.5 L 92.5 88.75 L 90.0 92.5 L 90.0 103.75 L 96.25 121.25 L 102.5 132.5 L 107.5 136.25 L 107.5 132.5 L 103.75 126.25 L 97.5 122.5 L 93.75 117.5 L 91.25 111.25 L 93.75 105.0 L 110.0 96.25 L 137.5 88.75 L 166.25 83.75 L 182.5 82.5 L 185.0 87.5 L 173.75 97.5 L 156.25 111.25 L 142.5 126.25 L 127.5 137.5 " stroke="black" fill="none" stroke-width="6.0" stroke-linecap="round" stroke-linejoin="round" />
<path d="M 68.75 191.25 L 63.75 196.25 L 65.0 197.5 L 83.75 195.0 L 116.25 177.5 L 158.75 152.5 L 193.75 131.25 L 206.25 121.25 L 205.0 117.5 L 195.0 120.0 L 180.0 125.0 L 172.5 127.5 " stroke="black" fill="none" stroke-width="6.0" stroke-linecap="round" stroke-linejoin="round" />
<path d="M 152.5 122.5 L 152.5 120.0 L 153.75 118.75 L 153.75 117.5 L 153.75 121.25 L 153.75 142.5 L 155.0 181.25 L 157.5 216.25 L 157.5 233.75 L 156.25 240.0 L 152.5 241.25 L 148.75 241.25 L 145.0 237.5 L 141.25 228.75 " stroke="black" fill="none" stroke-width="6.0" stroke-linecap="round" stroke-linejoin="round" />
<path d="M 152.5 163.75 L 145.0 177.5 L 132.5 191.25 L 117.5 205.0 L 103.75 217.5 L 97.5 221.25 L 96.25 218.75 L 98.75 210.0 L 101.25 205.0 " stroke="black" fill="none" stroke-width="6.0" stroke-linecap="round" stroke-linejoin="round" />
<path d="M 135.0 168.75 L 141.25 165.0 L 147.5 163.75 L 157.5 170.0 L 170.0 183.75 L 183.75 198.75 L 196.25 208.75 L 205.0 216.25 L 208.75 221.25 L 212.5 227.5 L 213.75 232.5 L 213.75 235.0 " stroke="black" fill="none" stroke-width="6.0" stroke-linecap="round" stroke-linejoin="round" />
</svg>