<svg xmlns="http://www.w3.org/2000/svg" width="300" height="300" viewBox="0 0 300 300">
<path d="M 57.5 153.75 L 57.5 153.75 L 57.5 153.75 L 57.5 155.0 L 57.5 158.75 L 58.75 173.75 L 62.5 188.75 L 70.0 195.0 L 80.0 192.5 L 91.25 181.25 L 98.75 168.75 L 102.5 160.0 L 103.75 153.75 L 105.0 150.0 L 105.0 147.5 L 105.0 147.5 L 105.0 147.5 L 105.0 147.5 L 105.0 147.5 L 105.0 147.5 L 105.0 147.5 L 105.0 147.5 L 105.0 147.5 L 105.0 147.5 L 105.0 147.5 L 110.0 152.5 L 120.0 162.5 L 131.25 176.25 L 136.25 186.25 L 137.5 186.25 " stroke="black" fill="none" stroke-width="6.0" stroke-linecap="round" stroke-linejoin="round" />
<path d="M 75.0 137.5 L 73.75 136.25 L 72.5 132.5 L 72.5 131.25 L 71.25 130.0 L 76.25 147.5 L 85.0 165.0 L 88.75 173.75 " stroke="black" fill="none" stroke-width="6.0" stroke-linecap="round" stroke-linejoin="round" />
<path d="M 153.75 81.25 L 155.0 78.75 L 156.25 76.25 L 155.0 75.0 L 152.5 78.75 L 150.0 88.75 L 150.0 96.25 L 151.25 100.0 L 160.0 98.75 L 171.25 91.25 L 177.5 85.0 L 180.0 83.75 L 176.25 95.0 L 173.75 100.0 L 161.25 125.0 L 143.75 170.0 L 123.75 207.5 L 107.5 228.75 L 97.5 236.25 " stroke="black" fill="none" stroke-width="6.0" stroke-linecap="round" stroke-linejoin="round" />
<path d="M 130.0 123.75 L 131.25 122.5 L 133.75 118.75 L 136.25 117.5 L 145.0 122.5 L 162.5 132.5 L 182.5 138.75 L 190.0 141.25 L 212.5 145.0 L 218.75 146.25 L 242.5 152.5 L 253.75 158.75 L 255.0 160.0 L 248.75 161.25 L 238.75 158.75 L 235.0 157.5 " stroke="black" fill="none" stroke-width="6.0" stroke-linecap="round" stroke-linejoin="round" />
<path d="M 158.75 166.25 L 158.75 167.5 L 157.5 173.75 L 153.75 177.5 L 152.5 178.75 L 155.0 178.75 L 167.5 171.25 L 181.25 163.75 L 185.0 161.25 L 200.0 151.25 L 203.75 145.0 L 201.25 145.0 " stroke="black" fill="none" stroke-width="6.0" stroke-linecap="round" stroke-linejoin="round" />
<path d="M 151.25 195.0 L 150.0 197.5 L 148.75 203.75 L 150.0 205.0 L 160.0 201.25 L 180.0 190.0 L 198.75 176.25 L 208.75 165.0 L 210.0 161.25 L 202.5 165.0 L 192.5 175.0 L 155.0 213.75 L 155.0 227.5 L 157.5 230.0 L 171.25 227.5 L 186.25 217.5 L 212.5 196.25 L 226.25 181.25 L 230.0 170.0 L 221.25 166.25 L 210.0 166.25 L 198.75 168.75 L 190.0 168.75 L 183.75 166.25 L 181.25 161.25 L 181.25 156.25 L 182.5 153.75 L 185.0 153.75 L 186.25 155.0 L 187.5 170.0 L 188.75 197.5 L 191.25 237.5 L 192.5 266.25 L 191.25 281.25 L 188.75 288.75 L 182.5 292.5 L 175.0 293.75 L 161.25 292.5 L 157.5 290.0 " stroke="black" fill="none" stroke-width="6.0" stroke-linecap="round" stroke-linejoin="round" />
</svg>