<svg xmlns="http://www.w3.org/2000/svg" width="300" height="300" viewBox="0 0 300 300">
<path d="M 90.0 111.25 L 88.75 111.25 L 86.25 111.25 L 85.0 111.25 L 96.25 110.0 L 130.0 103.75 L 167.5 95.0 L 196.25 88.75 L 202.5 87.5 L 196.25 88.75 L 192.5 90.0 " stroke="black" fill="none" stroke-width="6.0" stroke-linecap="round" stroke-linejoin="round" />
<path d="M 100.0 153.75 L 100.0 153.75 L 97.5 158.75 L 97.5 167.5 L 98.75 183.75 L 97.5 200.0 L 97.5 205.0 L 105.0 203.75 L 130.0 192.5 L 157.5 177.5 L 186.25 163.75 L 206.25 153.75 L 211.25 148.75 L 212.5 145.0 L 210.0 143.75 L 207.5 141.25 L 203.75 140.0 L 202.5 140.0 L 202.5 140.0 L 202.5 140.0 L 202.5 140.0 L 202.5 140.0 L 202.5 140.0 L 202.5 140.0 L 205.0 146.25 L 211.25 156.25 L 218.75 170.0 L 220.0 177.5 " stroke="black" fill="none" stroke-width="6.0" stroke-linecap="round" stroke-linejoin="round" />
<path d="M 147.5 82.5 L 146.25 80.0 L 145.0 78.75 L 145.0 77.5 L 146.25 90.0 L 147.5 127.5 L 146.25 175.0 L 145.0 206.25 L 150.0 216.25 L 163.75 220.0 L 183.75 221.25 L 206.25 221.25 L 223.75 220.0 L 238.75 218.75 L 247.5 217.5 L 250.0 213.75 L 250.0 212.5 " stroke="black" fill="none" stroke-width="6.0" stroke-linecap="round" stroke-linejoin="round" />
</svg>