<svg xmlns="http://www.w3.org/2000/svg" width="300" height="300" viewBox="0 0 300 300">
<path d="M 93.75 141.25 L 93.75 138.75 L 92.5 137.5 L 92.5 138.75 L 93.75 158.75 L 92.5 192.5 L 87.5 220.0 L 86.25 228.75 L 86.25 228.75 L 90.0 227.5 L 96.25 227.5 L 102.5 227.5 L 112.5 227.5 L 127.5 230.0 L 148.75 230.0 L 173.75 227.5 L 202.5 222.5 L 220.0 218.75 L 231.25 215.0 L 235.0 212.5 L 235.0 211.25 L 233.75 206.25 L 232.5 205.0 " stroke="black" fill="none" stroke-width="6.0" stroke-linecap="round" stroke-linejoin="round" />
<path d="M 220.0 137.5 L 220.0 137.5 L 220.0 136.25 L 220.0 136.25 L 221.25 148.75 L 225.0 186.25 L 226.25 217.5 L 225.0 230.0 " stroke="black" fill="none" stroke-width="6.0" stroke-linecap="round" stroke-linejoin="round" />
<path d="M 157.5 68.75 L 157.5 67.5 L 155.0 67.5 L 153.75 67.5 L 156.25 82.5 L 165.0 133.75 L 168.75 182.5 L 168.75 205.0 L 167.5 211.25 L 167.5 211.25 L 165.0 211.25 L 160.0 211.25 " stroke="black" fill="none" stroke-width="6.0" stroke-linecap="round" stroke-linejoin="round" />
</svg>