<svg xmlns="http://www.w3.org/2000/svg" width="300" height="300" viewBox="0 0 300 300">
<path d="M 125.0 83.75 L 125.0 83.75 L 128.75 83.75 L 145.0 83.75 L 168.75 88.75 L 185.0 95.0 L 186.25 102.5 L 173.75 113.75 L 161.25 122.5 L 140.0 132.5 L 120.0 135.0 L 115.0 135.0 " stroke="black" fill="none" stroke-width="6.0" stroke-linecap="round" stroke-linejoin="round" />
<path d="M 101.25 121.25 L 101.25 121.25 L 106.25 118.75 L 123.75 112.5 L 148.75 106.25 L 170.0 101.25 L 178.75 100.0 L 172.5 100.0 " stroke="black" fill="none" stroke-width="6.0" stroke-linecap="round" stroke-linejoin="round" />
<path d="M 113.75 140.0 L 112.5 140.0 L 112.5 140.0 L 125.0 137.5 L 150.0 126.25 L 177.5 115.0 L 186.25 108.75 " stroke="black" fill="none" stroke-width="6.0" stroke-linecap="round" stroke-linejoin="round" />
<path d="M 82.5 170.0 L 80.0 171.25 L 77.5 173.75 L 81.25 173.75 L 93.75 170.0 L 111.25 162.5 L 126.25 155.0 L 131.25 151.25 L 127.5 152.5 L 116.25 165.0 L 105.0 181.25 L 98.75 196.25 L 98.75 202.5 L 105.0 200.0 L 118.75 187.5 L 133.75 170.0 L 147.5 152.5 L 155.0 143.75 L 155.0 143.75 L 153.75 152.5 L 152.5 168.75 L 151.25 181.25 L 151.25 187.5 L 152.5 186.25 L 155.0 178.75 L 155.0 167.5 L 155.0 160.0 L 155.0 153.75 L 155.0 151.25 L 157.5 148.75 L 166.25 148.75 L 176.25 148.75 L 182.5 148.75 L 181.25 152.5 L 170.0 162.5 L 156.25 175.0 L 147.5 182.5 L 147.5 183.75 L 161.25 171.25 L 175.0 157.5 L 180.0 151.25 " stroke="black" fill="none" stroke-width="6.0" stroke-linecap="round" stroke-linejoin="round" />
<path d="M 66.25 246.25 L 61.25 250.0 L 66.25 248.75 L 95.0 233.75 L 145.0 206.25 L 188.75 183.75 L 211.25 168.75 L 215.0 162.5 L 207.5 162.5 L 195.0 168.75 " stroke="black" fill="none" stroke-width="6.0" stroke-linecap="round" stroke-linejoin="round" />
<path d="M 182.5 171.25 L 182.5 173.75 L 182.5 178.75 L 182.5 197.5 L 183.75 236.25 L 186.25 270.0 L 187.5 281.25 L 187.5 283.75 L 183.75 281.25 L 172.5 273.75 L 156.25 261.25 L 138.75 248.75 " stroke="black" fill="none" stroke-width="6.0" stroke-linecap="round" stroke-linejoin="round" />
<path d="M 116.25 213.75 L 116.25 213.75 L 115.0 216.25 L 125.0 226.25 L 140.0 246.25 L 146.25 255.0 " stroke="black" fill="none" stroke-width="6.0" stroke-linecap="round" stroke-linejoin="round" />
</svg>