<svg xmlns="http://www.w3.org/2000/svg" width="300" height="300" viewBox="0 0 300 300">
<path d="M 65.0 151.25 L 65.0 151.25 L 65.0 152.5 L 65.0 163.75 L 66.25 183.75 L 66.25 197.5 L 66.25 203.75 L 63.75 205.0 L 62.5 205.0 L 62.5 205.0 L 66.25 205.0 L 75.0 202.5 L 87.5 197.5 L 100.0 192.5 L 111.25 187.5 L 120.0 185.0 L 123.75 185.0 L 123.75 185.0 L 122.5 185.0 L 121.25 185.0 L 120.0 181.25 L 118.75 177.5 L 117.5 173.75 " stroke="black" fill="none" stroke-width="6.0" stroke-linecap="round" stroke-linejoin="round" />
<path d="M 115.0 140.0 L 115.0 138.75 L 113.75 137.5 L 112.5 137.5 L 116.25 142.5 L 121.25 158.75 L 123.75 182.5 L 122.5 202.5 " stroke="black" fill="none" stroke-width="6.0" stroke-linecap="round" stroke-linejoin="round" />
<path d="M 92.5 111.25 L 91.25 108.75 L 91.25 108.75 L 92.5 118.75 L 95.0 146.25 L 95.0 175.0 L 95.0 193.75 L 93.75 195.0 " stroke="black" fill="none" stroke-width="6.0" stroke-linecap="round" stroke-linejoin="round" />
<path d="M 157.5 130.0 L 156.25 130.0 L 152.5 130.0 L 150.0 142.5 L 150.0 180.0 L 151.25 213.75 L 155.0 226.25 L 156.25 230.0 L 156.25 227.5 " stroke="black" fill="none" stroke-width="6.0" stroke-linecap="round" stroke-linejoin="round" />
<path d="M 158.75 137.5 L 158.75 135.0 L 161.25 131.25 L 172.5 126.25 L 191.25 123.75 L 210.0 122.5 L 225.0 127.5 L 233.75 142.5 L 236.25 166.25 L 235.0 193.75 L 232.5 210.0 L 230.0 222.5 L 228.75 230.0 L 227.5 230.0 L 227.5 226.25 L 225.0 221.25 L 220.0 215.0 L 218.75 213.75 " stroke="black" fill="none" stroke-width="6.0" stroke-linecap="round" stroke-linejoin="round" />
<path d="M 162.5 185.0 L 161.25 185.0 L 157.5 185.0 L 160.0 183.75 L 176.25 178.75 L 198.75 172.5 L 218.75 167.5 L 231.25 163.75 L 230.0 162.5 " stroke="black" fill="none" stroke-width="6.0" stroke-linecap="round" stroke-linejoin="round" />
<path d="M 157.5 220.0 L 156.25 222.5 L 156.25 226.25 L 168.75 226.25 L 193.75 218.75 L 220.0 206.25 L 237.5 197.5 L 240.0 196.25 " stroke="black" fill="none" stroke-width="6.0" stroke-linecap="round" stroke-linejoin="round" />
<path d="M 186.25 87.5 L 186.25 83.75 L 186.25 81.25 L 187.5 82.5 L 190.0 106.25 L 191.25 153.75 L 191.25 196.25 L 191.25 220.0 L 190.0 222.5 " stroke="black" fill="none" stroke-width="6.0" stroke-linecap="round" stroke-linejoin="round" />
</svg>