<svg xmlns="http://www.w3.org/2000/svg" width="300" height="300" viewBox="0 0 300 300">
<path d="M 86.25 85.0 L 85.0 85.0 L 83.75 85.0 L 90.0 86.25 L 105.0 90.0 L 121.25 92.5 L 123.75 95.0 " stroke="black" fill="none" stroke-width="6.0" stroke-linecap="round" stroke-linejoin="round" />
<path d="M 67.5 132.5 L 65.0 133.75 L 62.5 135.0 L 75.0 132.5 L 93.75 122.5 L 118.75 108.75 L 136.25 96.25 L 137.5 93.75 " stroke="black" fill="none" stroke-width="6.0" stroke-linecap="round" stroke-linejoin="round" />
<path d="M 88.75 146.25 L 85.0 162.5 L 88.75 178.75 L 93.75 190.0 L 97.5 193.75 L 97.5 192.5 L 97.5 188.75 L 95.0 182.5 L 91.25 177.5 L 87.5 172.5 L 86.25 168.75 L 86.25 163.75 L 93.75 157.5 L 108.75 150.0 L 125.0 145.0 L 131.25 145.0 L 128.75 153.75 L 117.5 166.25 L 106.25 178.75 L 96.25 187.5 L 93.75 190.0 L 95.0 188.75 L 103.75 182.5 L 113.75 173.75 L 122.5 163.75 L 127.5 158.75 L 126.25 157.5 L 121.25 161.25 L 117.5 167.5 L 115.0 178.75 L 115.0 198.75 L 117.5 221.25 L 122.5 237.5 L 123.75 245.0 L 123.75 245.0 L 121.25 243.75 L 113.75 241.25 L 111.25 240.0 " stroke="black" fill="none" stroke-width="6.0" stroke-linecap="round" stroke-linejoin="round" />
<path d="M 73.75 203.75 L 71.25 202.5 L 71.25 201.25 L 76.25 203.75 L 86.25 215.0 L 96.25 227.5 L 102.5 236.25 L 103.75 237.5 " stroke="black" fill="none" stroke-width="6.0" stroke-linecap="round" stroke-linejoin="round" />
<path d="M 136.25 185.0 L 136.25 186.25 L 136.25 188.75 L 142.5 192.5 L 150.0 197.5 L 153.75 198.75 " stroke="black" fill="none" stroke-width="6.0" stroke-linecap="round" stroke-linejoin="round" />
<path d="M 150.0 157.5 L 148.75 158.75 L 146.25 160.0 L 146.25 160.0 L 155.0 157.5 L 173.75 147.5 L 195.0 133.75 L 206.25 122.5 L 206.25 117.5 L 197.5 118.75 L 192.5 120.0 " stroke="black" fill="none" stroke-width="6.0" stroke-linecap="round" stroke-linejoin="round" />
<path d="M 156.25 117.5 L 156.25 117.5 L 156.25 120.0 L 160.0 138.75 L 167.5 181.25 L 167.5 212.5 L 162.5 230.0 L 156.25 236.25 L 151.25 235.0 " stroke="black" fill="none" stroke-width="6.0" stroke-linecap="round" stroke-linejoin="round" />
<path d="M 185.0 166.25 L 186.25 173.75 L 192.5 190.0 L 201.25 208.75 L 208.75 226.25 L 216.25 237.5 L 225.0 241.25 L 235.0 245.0 L 243.75 247.5 L 251.25 248.75 L 253.75 248.75 L 255.0 248.75 L 255.0 248.75 L 255.0 248.75 L 255.0 248.75 L 255.0 248.75 L 255.0 248.75 L 253.75 243.75 L 251.25 231.25 L 246.25 207.5 " stroke="black" fill="none" stroke-width="6.0" stroke-linecap="round" stroke-linejoin="round" />
<path d="M 230.0 83.75 L 230.0 81.25 L 230.0 80.0 L 235.0 83.75 L 245.0 95.0 L 252.5 107.5 " stroke="black" fill="none" stroke-width="6.0" stroke-linecap="round" stroke-linejoin="round" />
</svg>