<svg xmlns="http://www.w3.org/2000/svg" width="300" height="300" viewBox="0 0 300 300">
<path d="M 117.5 81.25 L 117.5 81.25 L 117.5 83.75 L 111.25 95.0 L 98.75 121.25 L 87.5 145.0 L 80.0 151.25 L 76.25 148.75 L 76.25 146.25 " stroke="black" fill="none" stroke-width="6.0" stroke-linecap="round" stroke-linejoin="round" />
<path d="M 106.25 102.5 L 108.75 103.75 L 111.25 111.25 L 113.75 132.5 L 112.5 158.75 L 108.75 178.75 L 105.0 185.0 " stroke="black" fill="none" stroke-width="6.0" stroke-linecap="round" stroke-linejoin="round" />
<path d="M 137.5 106.25 L 135.0 108.75 L 133.75 110.0 L 145.0 107.5 L 165.0 100.0 L 193.75 88.75 L 210.0 78.75 L 212.5 75.0 L 211.25 75.0 " stroke="black" fill="none" stroke-width="6.0" stroke-linecap="round" stroke-linejoin="round" />
<path d="M 178.75 81.25 L 178.75 81.25 L 178.75 82.5 L 180.0 93.75 L 190.0 127.5 L 202.5 158.75 L 212.5 171.25 L 221.25 178.75 L 226.25 180.0 L 227.5 180.0 L 227.5 178.75 L 227.5 175.0 L 226.25 166.25 L 222.5 155.0 L 216.25 140.0 L 213.75 135.0 " stroke="black" fill="none" stroke-width="6.0" stroke-linecap="round" stroke-linejoin="round" />
<path d="M 205.0 68.75 L 205.0 67.5 L 205.0 65.0 L 206.25 63.75 L 208.75 63.75 L 216.25 70.0 L 221.25 76.25 " stroke="black" fill="none" stroke-width="6.0" stroke-linecap="round" stroke-linejoin="round" />
<path d="M 140.0 196.25 L 138.75 196.25 L 135.0 196.25 L 130.0 197.5 L 122.5 208.75 L 111.25 232.5 L 103.75 248.75 L 103.75 252.5 L 112.5 251.25 L 130.0 248.75 L 148.75 243.75 L 170.0 237.5 L 191.25 230.0 L 203.75 225.0 L 206.25 222.5 L 205.0 222.5 L 203.75 221.25 L 202.5 220.0 L 202.5 216.25 L 201.25 213.75 L 201.25 211.25 L 201.25 210.0 L 201.25 208.75 L 201.25 208.75 L 201.25 208.75 L 201.25 208.75 L 201.25 208.75 L 201.25 208.75 L 201.25 213.75 L 205.0 226.25 L 215.0 243.75 L 225.0 257.5 L 228.75 265.0 L 228.75 265.0 " stroke="black" fill="none" stroke-width="6.0" stroke-linecap="round" stroke-linejoin="round" />
<path d="M 153.75 173.75 L 152.5 170.0 L 152.5 170.0 L 152.5 175.0 L 155.0 195.0 L 157.5 225.0 L 156.25 247.5 " stroke="black" fill="none" stroke-width="6.0" stroke-linecap="round" stroke-linejoin="round" />
</svg>