<svg xmlns="http://www.w3.org/2000/svg" width="300" height="300" viewBox="0 0 300 300">
<path d="M 117.5 73.75 L 115.0 73.75 L 107.5 76.25 L 108.75 77.5 L 125.0 80.0 L 147.5 82.5 L 172.5 83.75 L 185.0 85.0 L 186.25 86.25 L 173.75 91.25 L 155.0 98.75 L 136.25 105.0 L 113.75 112.5 L 97.5 118.75 L 92.5 120.0 L 96.25 120.0 L 111.25 117.5 L 137.5 110.0 L 165.0 101.25 L 185.0 95.0 L 191.25 92.5 L 182.5 91.25 L 167.5 92.5 L 156.25 92.5 " stroke="black" fill="none" stroke-width="6.0" stroke-linecap="round" stroke-linejoin="round" />
<path d="M 101.25 78.75 L 98.75 78.75 L 95.0 78.75 L 93.75 85.0 L 93.75 121.25 L 90.0 187.5 L 78.75 236.25 L 68.75 253.75 L 62.5 256.25 L 57.5 250.0 L 56.25 237.5 " stroke="black" fill="none" stroke-width="6.0" stroke-linecap="round" stroke-linejoin="round" />
<path d="M 107.5 136.25 L 107.5 136.25 L 107.5 136.25 L 110.0 138.75 L 120.0 148.75 L 133.75 162.5 L 140.0 170.0 L 142.5 172.5 L 140.0 170.0 " stroke="black" fill="none" stroke-width="6.0" stroke-linecap="round" stroke-linejoin="round" />
<path d="M 122.5 138.75 L 122.5 138.75 L 120.0 138.75 L 122.5 138.75 L 138.75 135.0 L 156.25 132.5 L 182.5 130.0 L 187.5 133.75 L 182.5 142.5 L 166.25 155.0 L 152.5 162.5 L 141.25 165.0 " stroke="black" fill="none" stroke-width="6.0" stroke-linecap="round" stroke-linejoin="round" />
<path d="M 131.25 152.5 L 131.25 152.5 L 131.25 152.5 L 131.25 152.5 L 140.0 148.75 L 156.25 141.25 L 173.75 135.0 L 178.75 132.5 L 170.0 137.5 L 158.75 145.0 L 148.75 153.75 L 140.0 163.75 L 136.25 171.25 L 138.75 172.5 L 151.25 166.25 L 165.0 156.25 L 175.0 147.5 L 175.0 143.75 L 167.5 145.0 " stroke="black" fill="none" stroke-width="6.0" stroke-linecap="round" stroke-linejoin="round" />
<path d="M 100.0 181.25 L 98.75 186.25 L 101.25 195.0 L 113.75 203.75 L 127.5 212.5 L 136.25 215.0 L 137.5 215.0 L 132.5 212.5 L 123.75 210.0 L 113.75 207.5 L 106.25 205.0 L 105.0 202.5 L 113.75 197.5 L 137.5 187.5 L 171.25 175.0 L 196.25 167.5 L 202.5 167.5 L 196.25 176.25 L 180.0 190.0 L 160.0 203.75 L 140.0 213.75 L 131.25 216.25 L 131.25 205.0 L 132.5 201.25 " stroke="black" fill="none" stroke-width="6.0" stroke-linecap="round" stroke-linejoin="round" />
<path d="M 147.5 123.75 L 147.5 123.75 L 147.5 123.75 L 147.5 123.75 L 150.0 138.75 L 152.5 181.25 L 150.0 217.5 L 147.5 236.25 L 145.0 245.0 L 145.0 247.5 L 145.0 247.5 L 146.25 248.75 L 146.25 248.75 L 147.5 248.75 L 147.5 248.75 L 147.5 250.0 L 148.75 250.0 L 150.0 250.0 L 153.75 251.25 L 158.75 252.5 L 167.5 255.0 L 182.5 255.0 L 196.25 253.75 L 206.25 251.25 L 208.75 247.5 " stroke="black" fill="none" stroke-width="6.0" stroke-linecap="round" stroke-linejoin="round" />
<path d="M 185.0 195.0 L 185.0 195.0 L 185.0 202.5 L 185.0 223.75 L 177.5 252.5 L 163.75 275.0 L 150.0 283.75 L 136.25 288.75 L 121.25 285.0 " stroke="black" fill="none" stroke-width="6.0" stroke-linecap="round" stroke-linejoin="round" />
<path d="M 100.0 236.25 L 100.0 236.25 L 97.5 237.5 L 98.75 237.5 L 116.25 237.5 L 150.0 232.5 L 186.25 222.5 L 211.25 211.25 L 218.75 203.75 " stroke="black" fill="none" stroke-width="6.0" stroke-linecap="round" stroke-linejoin="round" />
</svg>