<svg xmlns="http://www.w3.org/2000/svg" width="300" height="300" viewBox="0 0 300 300">
<path d="M 122.5 81.25 L 120.0 81.25 L 118.75 80.0 L 127.5 78.75 L 147.5 78.75 L 172.5 76.25 L 191.25 75.0 L 196.25 75.0 L 192.5 77.5 L 181.25 85.0 L 166.25 92.5 L 151.25 98.75 L 135.0 106.25 L 122.5 111.25 L 120.0 112.5 L 125.0 112.5 L 140.0 107.5 L 156.25 100.0 L 170.0 93.75 L 178.75 88.75 L 175.0 88.75 L 162.5 88.75 L 150.0 88.75 L 147.5 88.75 " stroke="black" fill="none" stroke-width="6.0" stroke-linecap="round" stroke-linejoin="round" />
<path d="M 123.75 78.75 L 122.5 78.75 L 120.0 80.0 L 118.75 92.5 L 115.0 132.5 L 106.25 181.25 L 98.75 212.5 L 93.75 227.5 L 86.25 233.75 L 80.0 228.75 L 78.75 217.5 " stroke="black" fill="none" stroke-width="6.0" stroke-linecap="round" stroke-linejoin="round" />
<path d="M 128.75 140.0 L 130.0 138.75 L 133.75 137.5 L 137.5 136.25 L 146.25 135.0 L 158.75 131.25 L 175.0 125.0 L 188.75 118.75 L 192.5 115.0 L 188.75 115.0 L 175.0 123.75 L 160.0 136.25 L 145.0 152.5 L 135.0 172.5 L 132.5 186.25 L 138.75 188.75 L 151.25 185.0 L 166.25 173.75 L 180.0 162.5 L 187.5 155.0 L 188.75 152.5 L 185.0 152.5 L 180.0 152.5 L 177.5 152.5 L 176.25 152.5 L 175.0 152.5 L 175.0 152.5 L 175.0 152.5 L 175.0 152.5 L 177.5 152.5 L 180.0 153.75 L 186.25 156.25 L 192.5 160.0 L 200.0 168.75 L 202.5 172.5 " stroke="black" fill="none" stroke-width="6.0" stroke-linecap="round" stroke-linejoin="round" />
<path d="M 135.0 218.75 L 133.75 220.0 L 126.25 222.5 L 125.0 223.75 L 130.0 222.5 L 145.0 216.25 L 163.75 207.5 L 182.5 197.5 L 190.0 192.5 L 186.25 191.25 " stroke="black" fill="none" stroke-width="6.0" stroke-linecap="round" stroke-linejoin="round" />
<path d="M 160.0 193.75 L 160.0 195.0 L 160.0 196.25 L 161.25 200.0 L 162.5 208.75 L 163.75 222.5 L 162.5 236.25 L 156.25 243.75 L 148.75 246.25 L 141.25 247.5 L 136.25 246.25 L 136.25 246.25 L 136.25 245.0 L 140.0 243.75 L 146.25 241.25 L 152.5 237.5 L 157.5 236.25 L 162.5 235.0 L 166.25 233.75 L 170.0 233.75 L 177.5 235.0 L 190.0 235.0 L 207.5 233.75 L 227.5 227.5 L 231.25 225.0 " stroke="black" fill="none" stroke-width="6.0" stroke-linecap="round" stroke-linejoin="round" />
</svg>