<svg xmlns="http://www.w3.org/2000/svg" width="300" height="300" viewBox="0 0 300 300">
<path d="M 103.75 82.5 L 103.75 82.5 L 103.75 83.75 L 112.5 83.75 L 137.5 82.5 L 166.25 80.0 L 187.5 80.0 L 193.75 82.5 L 191.25 86.25 L 181.25 92.5 L 165.0 100.0 L 148.75 106.25 L 132.5 113.75 L 116.25 120.0 L 108.75 123.75 L 108.75 123.75 L 120.0 120.0 L 140.0 113.75 L 158.75 106.25 L 172.5 100.0 L 177.5 97.5 L 171.25 98.75 L 157.5 101.25 L 143.75 101.25 L 140.0 101.25 " stroke="black" fill="none" stroke-width="6.0" stroke-linecap="round" stroke-linejoin="round" />
<path d="M 106.25 87.5 L 107.5 87.5 L 107.5 87.5 L 107.5 93.75 L 101.25 136.25 L 91.25 188.75 L 80.0 218.75 L 68.75 233.75 L 60.0 236.25 " stroke="black" fill="none" stroke-width="6.0" stroke-linecap="round" stroke-linejoin="round" />
<path d="M 127.5 142.5 L 125.0 143.75 L 117.5 152.5 L 107.5 168.75 L 97.5 187.5 L 92.5 195.0 L 91.25 195.0 L 92.5 190.0 " stroke="black" fill="none" stroke-width="6.0" stroke-linecap="round" stroke-linejoin="round" />
<path d="M 132.5 153.75 L 131.25 155.0 L 126.25 165.0 L 113.75 185.0 L 101.25 202.5 L 95.0 208.75 L 93.75 207.5 L 96.25 201.25 L 102.5 193.75 L 110.0 190.0 L 116.25 188.75 L 118.75 198.75 L 113.75 222.5 L 106.25 248.75 L 100.0 260.0 L 98.75 260.0 " stroke="black" fill="none" stroke-width="6.0" stroke-linecap="round" stroke-linejoin="round" />
<path d="M 153.75 126.25 L 153.75 126.25 L 153.75 126.25 L 153.75 128.75 L 155.0 135.0 L 165.0 138.75 L 182.5 136.25 L 200.0 126.25 L 206.25 118.75 L 205.0 118.75 L 193.75 127.5 " stroke="black" fill="none" stroke-width="6.0" stroke-linecap="round" stroke-linejoin="round" />
<path d="M 161.25 153.75 L 161.25 158.75 L 160.0 172.5 L 160.0 191.25 L 160.0 201.25 L 162.5 203.75 L 162.5 197.5 " stroke="black" fill="none" stroke-width="6.0" stroke-linecap="round" stroke-linejoin="round" />
<path d="M 156.25 163.75 L 156.25 163.75 L 157.5 163.75 L 163.75 163.75 L 181.25 161.25 L 198.75 160.0 L 205.0 161.25 L 205.0 168.75 L 197.5 180.0 L 187.5 188.75 L 176.25 193.75 L 170.0 193.75 " stroke="black" fill="none" stroke-width="6.0" stroke-linecap="round" stroke-linejoin="round" />
<path d="M 158.75 186.25 L 158.75 186.25 L 158.75 186.25 L 160.0 186.25 L 170.0 183.75 L 186.25 176.25 L 200.0 168.75 L 205.0 165.0 L 200.0 165.0 L 192.5 168.75 " stroke="black" fill="none" stroke-width="6.0" stroke-linecap="round" stroke-linejoin="round" />
<path d="M 157.5 200.0 L 157.5 201.25 L 156.25 202.5 L 157.5 203.75 L 168.75 201.25 L 183.75 195.0 L 195.0 190.0 L 200.0 187.5 L 193.75 192.5 L 180.0 207.5 L 160.0 226.25 L 143.75 245.0 L 136.25 251.25 L 135.0 252.5 L 137.5 250.0 L 145.0 243.75 L 155.0 237.5 L 167.5 230.0 L 182.5 221.25 L 197.5 215.0 L 205.0 212.5 L 206.25 215.0 L 201.25 223.75 L 192.5 237.5 L 180.0 248.75 L 165.0 258.75 L 152.5 263.75 L 148.75 262.5 L 148.75 262.5 " stroke="black" fill="none" stroke-width="6.0" stroke-linecap="round" stroke-linejoin="round" />
<path d="M 161.25 231.25 L 161.25 231.25 L 160.0 231.25 L 158.75 231.25 L 158.75 231.25 L 158.75 231.25 L 160.0 232.5 L 162.5 235.0 L 167.5 237.5 L 173.75 240.0 L 183.75 243.75 L 197.5 250.0 L 215.0 258.75 L 233.75 267.5 L 250.0 272.5 L 252.5 272.5 " stroke="black" fill="none" stroke-width="6.0" stroke-linecap="round" stroke-linejoin="round" />
</svg>