<svg xmlns="http://www.w3.org/2000/svg" width="300" height="300" viewBox="0 0 300 300">
<path d="M 117.5 72.5 L 116.25 73.75 L 115.0 73.75 L 122.5 73.75 L 138.75 71.25 L 160.0 71.25 L 180.0 71.25 L 187.5 73.75 L 186.25 76.25 L 175.0 81.25 L 161.25 88.75 L 146.25 96.25 L 132.5 101.25 L 120.0 105.0 L 115.0 106.25 L 118.75 106.25 L 131.25 103.75 L 146.25 98.75 L 158.75 92.5 L 168.75 87.5 L 168.75 86.25 L 157.5 86.25 L 152.5 87.5 " stroke="black" fill="none" stroke-width="6.0" stroke-linecap="round" stroke-linejoin="round" />
<path d="M 111.25 82.5 L 108.75 82.5 L 106.25 86.25 L 106.25 101.25 L 103.75 140.0 L 98.75 187.5 L 91.25 212.5 L 83.75 220.0 L 75.0 221.25 L 68.75 211.25 L 68.75 207.5 " stroke="black" fill="none" stroke-width="6.0" stroke-linecap="round" stroke-linejoin="round" />
<path d="M 122.5 150.0 L 120.0 150.0 L 117.5 151.25 L 117.5 153.75 L 123.75 162.5 L 133.75 175.0 L 140.0 182.5 L 142.5 185.0 L 140.0 183.75 " stroke="black" fill="none" stroke-width="6.0" stroke-linecap="round" stroke-linejoin="round" />
<path d="M 125.0 167.5 L 120.0 165.0 L 118.75 161.25 L 126.25 156.25 L 143.75 148.75 L 166.25 141.25 L 188.75 136.25 L 197.5 136.25 L 196.25 141.25 L 185.0 150.0 L 170.0 160.0 L 156.25 171.25 L 142.5 182.5 L 137.5 187.5 L 141.25 186.25 L 155.0 177.5 L 170.0 163.75 L 183.75 152.5 L 188.75 143.75 L 183.75 142.5 L 172.5 142.5 L 163.75 141.25 L 156.25 136.25 L 152.5 131.25 L 151.25 127.5 L 151.25 127.5 L 153.75 136.25 L 155.0 155.0 L 156.25 183.75 L 152.5 207.5 L 148.75 218.75 L 145.0 220.0 L 145.0 220.0 L 150.0 215.0 L 161.25 207.5 L 176.25 198.75 L 190.0 190.0 L 200.0 182.5 L 202.5 177.5 L 201.25 175.0 L 198.75 175.0 L 196.25 173.75 L 193.75 172.5 L 193.75 171.25 L 193.75 171.25 L 193.75 171.25 L 193.75 171.25 L 193.75 171.25 L 193.75 172.5 L 198.75 178.75 L 205.0 190.0 L 215.0 206.25 L 220.0 221.25 L 220.0 230.0 " stroke="black" fill="none" stroke-width="6.0" stroke-linecap="round" stroke-linejoin="round" />
</svg>