<svg xmlns="http://www.w3.org/2000/svg" width="300" height="300" viewBox="0 0 300 300">
<path d="M 127.5 86.25 L 125.0 86.25 L 121.25 86.25 L 121.25 86.25 L 133.75 86.25 L 152.5 83.75 L 172.5 77.5 L 186.25 71.25 L 187.5 70.0 L 180.0 71.25 " stroke="black" fill="none" stroke-width="6.0" stroke-linecap="round" stroke-linejoin="round" />
<path d="M 128.75 106.25 L 127.5 108.75 L 126.25 120.0 L 130.0 137.5 L 135.0 153.75 L 141.25 162.5 L 142.5 163.75 L 142.5 161.25 " stroke="black" fill="none" stroke-width="6.0" stroke-linecap="round" stroke-linejoin="round" />
<path d="M 130.0 128.75 L 128.75 128.75 L 126.25 127.5 L 128.75 125.0 L 145.0 118.75 L 168.75 112.5 L 192.5 110.0 L 200.0 115.0 L 193.75 127.5 L 177.5 145.0 L 160.0 157.5 L 147.5 166.25 L 138.75 170.0 L 137.5 171.25 L 140.0 168.75 L 147.5 162.5 L 152.5 156.25 L 153.75 153.75 " stroke="black" fill="none" stroke-width="6.0" stroke-linecap="round" stroke-linejoin="round" />
<path d="M 76.25 177.5 L 67.5 180.0 L 63.75 180.0 L 70.0 180.0 L 91.25 175.0 L 125.0 167.5 L 171.25 157.5 L 210.0 155.0 L 237.5 153.75 L 253.75 155.0 L 257.5 155.0 L 257.5 155.0 L 255.0 155.0 L 252.5 155.0 " stroke="black" fill="none" stroke-width="6.0" stroke-linecap="round" stroke-linejoin="round" />
<path d="M 137.5 215.0 L 136.25 215.0 L 132.5 215.0 L 128.75 216.25 L 125.0 226.25 L 121.25 246.25 L 117.5 261.25 L 117.5 265.0 L 120.0 265.0 L 137.5 260.0 L 158.75 251.25 L 185.0 242.5 L 207.5 233.75 L 218.75 227.5 L 220.0 223.75 L 217.5 223.75 L 212.5 221.25 L 208.75 220.0 L 205.0 217.5 L 203.75 215.0 L 203.75 212.5 L 203.75 212.5 L 203.75 212.5 L 205.0 212.5 L 211.25 220.0 L 222.5 233.75 L 236.25 250.0 L 246.25 260.0 L 248.75 262.5 L 242.5 265.0 L 240.0 265.0 " stroke="black" fill="none" stroke-width="6.0" stroke-linecap="round" stroke-linejoin="round" />
<path d="M 165.0 182.5 L 160.0 180.0 L 156.25 177.5 L 156.25 176.25 L 158.75 180.0 L 165.0 198.75 L 166.25 225.0 L 166.25 242.5 " stroke="black" fill="none" stroke-width="6.0" stroke-linecap="round" stroke-linejoin="round" />
</svg>