<svg xmlns="http://www.w3.org/2000/svg" width="300" height="300" viewBox="0 0 300 300">
<path d="M 108.75 53.75 L 107.5 53.75 L 105.0 53.75 L 105.0 56.25 L 108.75 65.0 L 116.25 77.5 L 122.5 86.25 " stroke="black" fill="none" stroke-width="6.0" stroke-linecap="round" stroke-linejoin="round" />
<path d="M 151.25 53.75 L 152.5 53.75 L 152.5 55.0 L 153.75 57.5 L 153.75 67.5 L 147.5 78.75 L 133.75 88.75 L 113.75 95.0 L 93.75 100.0 L 78.75 107.5 L 71.25 111.25 L 72.5 111.25 L 85.0 107.5 L 106.25 100.0 L 133.75 90.0 L 162.5 78.75 L 180.0 72.5 L 185.0 70.0 L 175.0 72.5 L 158.75 78.75 L 151.25 82.5 " stroke="black" fill="none" stroke-width="6.0" stroke-linecap="round" stroke-linejoin="round" />
<path d="M 101.25 120.0 L 96.25 132.5 L 97.5 151.25 L 101.25 172.5 L 107.5 185.0 L 111.25 188.75 L 112.5 187.5 L 108.75 183.75 " stroke="black" fill="none" stroke-width="6.0" stroke-linecap="round" stroke-linejoin="round" />
<path d="M 102.5 140.0 L 102.5 138.75 L 103.75 137.5 L 120.0 132.5 L 150.0 125.0 L 180.0 120.0 L 198.75 121.25 L 201.25 130.0 L 193.75 143.75 L 177.5 158.75 L 161.25 170.0 L 146.25 176.25 L 143.75 176.25 " stroke="black" fill="none" stroke-width="6.0" stroke-linecap="round" stroke-linejoin="round" />
<path d="M 135.0 98.75 L 132.5 97.5 L 130.0 98.75 L 128.75 116.25 L 127.5 143.75 L 126.25 161.25 L 125.0 162.5 L 125.0 157.5 " stroke="black" fill="none" stroke-width="6.0" stroke-linecap="round" stroke-linejoin="round" />
<path d="M 148.75 96.25 L 148.75 96.25 L 148.75 102.5 L 147.5 126.25 L 148.75 141.25 L 157.5 143.75 L 170.0 133.75 L 180.0 122.5 L 182.5 115.0 L 176.25 113.75 " stroke="black" fill="none" stroke-width="6.0" stroke-linecap="round" stroke-linejoin="round" />
<path d="M 130.0 160.0 L 127.5 161.25 L 126.25 162.5 L 131.25 161.25 L 143.75 155.0 L 156.25 147.5 L 163.75 141.25 L 160.0 141.25 L 157.5 142.5 " stroke="black" fill="none" stroke-width="6.0" stroke-linecap="round" stroke-linejoin="round" />
<path d="M 123.75 175.0 L 125.0 175.0 L 128.75 173.75 L 140.0 167.5 L 153.75 160.0 L 160.0 156.25 L 155.0 158.75 " stroke="black" fill="none" stroke-width="6.0" stroke-linecap="round" stroke-linejoin="round" />
<path d="M 88.75 222.5 L 83.75 230.0 L 85.0 230.0 L 102.5 221.25 L 135.0 205.0 L 172.5 185.0 L 202.5 167.5 L 212.5 158.75 L 212.5 157.5 L 207.5 157.5 L 198.75 160.0 L 190.0 162.5 L 182.5 165.0 L 178.75 166.25 L 177.5 166.25 L 177.5 166.25 L 178.75 166.25 L 182.5 175.0 L 186.25 200.0 L 187.5 238.75 L 188.75 265.0 L 190.0 272.5 L 190.0 272.5 L 187.5 271.25 L 180.0 270.0 L 168.75 265.0 L 155.0 256.25 L 141.25 248.75 " stroke="black" fill="none" stroke-width="6.0" stroke-linecap="round" stroke-linejoin="round" />
<path d="M 130.0 211.25 L 130.0 211.25 L 130.0 211.25 L 130.0 212.5 L 137.5 218.75 L 147.5 228.75 " stroke="black" fill="none" stroke-width="6.0" stroke-linecap="round" stroke-linejoin="round" />
</svg>