<svg xmlns="http://www.w3.org/2000/svg" width="300" height="300" viewBox="0 0 300 300">
<path d="M 75.0 110.0 L 76.25 107.5 L 77.5 103.75 L 80.0 108.75 L 82.5 138.75 L 82.5 188.75 L 81.25 221.25 L 82.5 235.0 L 82.5 232.5 " stroke="black" fill="none" stroke-width="6.0" stroke-linecap="round" stroke-linejoin="round" />
<path d="M 90.0 105.0 L 91.25 105.0 L 98.75 101.25 L 120.0 95.0 L 148.75 90.0 L 177.5 87.5 L 198.75 88.75 L 207.5 102.5 L 210.0 136.25 L 210.0 181.25 L 210.0 221.25 L 210.0 248.75 L 211.25 256.25 L 211.25 256.25 L 210.0 253.75 L 205.0 243.75 L 197.5 230.0 L 182.5 210.0 " stroke="black" fill="none" stroke-width="6.0" stroke-linecap="round" stroke-linejoin="round" />
<path d="M 112.5 115.0 L 112.5 116.25 L 112.5 116.25 L 112.5 122.5 L 118.75 136.25 L 126.25 148.75 L 128.75 152.5 " stroke="black" fill="none" stroke-width="6.0" stroke-linecap="round" stroke-linejoin="round" />
<path d="M 150.0 112.5 L 150.0 112.5 L 150.0 112.5 L 150.0 118.75 L 143.75 133.75 L 127.5 151.25 L 106.25 162.5 L 90.0 170.0 L 88.75 171.25 L 97.5 168.75 L 120.0 158.75 L 145.0 146.25 L 163.75 135.0 L 171.25 131.25 L 163.75 135.0 L 153.75 141.25 L 146.25 146.25 L 141.25 152.5 L 138.75 158.75 L 137.5 170.0 L 140.0 190.0 L 141.25 207.5 L 141.25 217.5 L 137.5 218.75 " stroke="black" fill="none" stroke-width="6.0" stroke-linecap="round" stroke-linejoin="round" />
<path d="M 107.5 185.0 L 106.25 185.0 L 102.5 185.0 L 101.25 191.25 L 103.75 206.25 L 110.0 218.75 L 123.75 221.25 L 143.75 213.75 L 163.75 197.5 L 177.5 185.0 L 185.0 177.5 L 183.75 175.0 L 178.75 175.0 L 175.0 173.75 L 173.75 172.5 L 173.75 171.25 L 173.75 171.25 L 173.75 170.0 L 173.75 170.0 L 173.75 170.0 L 173.75 170.0 L 173.75 170.0 L 173.75 170.0 L 175.0 170.0 L 181.25 177.5 L 191.25 191.25 L 198.75 205.0 " stroke="black" fill="none" stroke-width="6.0" stroke-linecap="round" stroke-linejoin="round" />
</svg>