<svg xmlns="http://www.w3.org/2000/svg" width="300" height="300" viewBox="0 0 300 300">
<path d="M 91.25 107.5 L 91.25 107.5 L 92.5 108.75 L 101.25 108.75 L 113.75 108.75 L 122.5 108.75 " stroke="black" fill="none" stroke-width="6.0" stroke-linecap="round" stroke-linejoin="round" />
<path d="M 88.75 166.25 L 83.75 172.5 L 82.5 173.75 L 93.75 166.25 L 113.75 153.75 L 131.25 142.5 L 140.0 140.0 L 136.25 153.75 L 122.5 181.25 L 107.5 205.0 L 96.25 217.5 L 93.75 215.0 L 93.75 210.0 " stroke="black" fill="none" stroke-width="6.0" stroke-linecap="round" stroke-linejoin="round" />
<path d="M 97.5 177.5 L 97.5 177.5 L 96.25 176.25 L 97.5 178.75 L 106.25 186.25 L 123.75 195.0 L 136.25 196.25 " stroke="black" fill="none" stroke-width="6.0" stroke-linecap="round" stroke-linejoin="round" />
<path d="M 150.0 112.5 L 148.75 112.5 L 146.25 113.75 L 148.75 113.75 L 168.75 110.0 L 197.5 101.25 L 222.5 91.25 L 231.25 86.25 L 227.5 83.75 L 216.25 83.75 L 206.25 83.75 L 200.0 91.25 L 197.5 113.75 L 203.75 165.0 L 211.25 223.75 L 215.0 251.25 L 216.25 253.75 L 210.0 253.75 L 197.5 247.5 L 178.75 237.5 L 161.25 227.5 L 156.25 215.0 L 171.25 200.0 L 201.25 181.25 L 232.5 160.0 " stroke="black" fill="none" stroke-width="6.0" stroke-linecap="round" stroke-linejoin="round" />
</svg>