<svg xmlns="http://www.w3.org/2000/svg" width="300" height="300" viewBox="0 0 300 300">
<path d="M 45.0 148.75 L 45.0 147.5 L 45.0 146.25 L 45.0 148.75 L 46.25 162.5 L 47.5 181.25 L 47.5 192.5 L 50.0 193.75 L 58.75 190.0 L 70.0 183.75 L 82.5 177.5 L 92.5 173.75 L 98.75 167.5 L 100.0 162.5 L 100.0 158.75 L 97.5 156.25 L 95.0 153.75 L 93.75 152.5 L 93.75 150.0 L 93.75 148.75 L 93.75 148.75 L 93.75 148.75 L 93.75 152.5 L 97.5 160.0 L 103.75 171.25 L 111.25 183.75 L 112.5 191.25 " stroke="black" fill="none" stroke-width="6.0" stroke-linecap="round" stroke-linejoin="round" />
<path d="M 68.75 121.25 L 67.5 120.0 L 65.0 118.75 L 65.0 121.25 L 68.75 138.75 L 71.25 163.75 " stroke="black" fill="none" stroke-width="6.0" stroke-linecap="round" stroke-linejoin="round" />
<path d="M 125.0 100.0 L 125.0 98.75 L 125.0 98.75 L 128.75 97.5 L 140.0 97.5 L 152.5 96.25 L 161.25 96.25 L 161.25 98.75 " stroke="black" fill="none" stroke-width="6.0" stroke-linecap="round" stroke-linejoin="round" />
<path d="M 120.0 142.5 L 115.0 147.5 L 118.75 147.5 L 135.0 143.75 L 155.0 133.75 L 173.75 121.25 L 181.25 113.75 L 173.75 115.0 L 160.0 121.25 L 150.0 125.0 L 141.25 128.75 L 136.25 128.75 L 136.25 130.0 L 143.75 138.75 L 150.0 157.5 L 152.5 183.75 L 151.25 200.0 L 147.5 203.75 L 142.5 202.5 L 138.75 197.5 L 136.25 191.25 L 136.25 181.25 L 143.75 167.5 L 156.25 150.0 L 172.5 128.75 L 186.25 103.75 L 190.0 86.25 L 187.5 77.5 L 183.75 73.75 L 182.5 72.5 L 182.5 76.25 L 188.75 100.0 L 198.75 140.0 L 212.5 185.0 L 227.5 212.5 L 238.75 223.75 L 242.5 225.0 L 242.5 225.0 L 240.0 221.25 L 235.0 208.75 L 228.75 192.5 L 221.25 171.25 L 221.25 148.75 L 228.75 135.0 L 233.75 131.25 L 232.5 136.25 L 222.5 152.5 L 208.75 178.75 L 193.75 206.25 L 178.75 222.5 L 165.0 225.0 L 162.5 222.5 " stroke="black" fill="none" stroke-width="6.0" stroke-linecap="round" stroke-linejoin="round" />
<path d="M 215.0 77.5 L 215.0 76.25 L 215.0 73.75 L 218.75 72.5 L 227.5 76.25 L 245.0 92.5 L 250.0 101.25 " stroke="black" fill="none" stroke-width="6.0" stroke-linecap="round" stroke-linejoin="round" />
</svg>