<svg xmlns="http://www.w3.org/2000/svg" width="300" height="300" viewBox="0 0 300 300">
<path d="M 110.0 88.75 L 110.0 88.75 L 110.0 90.0 L 116.25 90.0 L 137.5 90.0 L 168.75 91.25 L 190.0 93.75 L 195.0 97.5 L 185.0 106.25 L 166.25 121.25 L 146.25 135.0 L 126.25 146.25 L 116.25 150.0 L 116.25 150.0 L 130.0 146.25 L 148.75 138.75 L 168.75 130.0 L 181.25 123.75 L 178.75 122.5 L 163.75 125.0 " stroke="black" fill="none" stroke-width="6.0" stroke-linecap="round" stroke-linejoin="round" />
<path d="M 116.25 102.5 L 116.25 102.5 L 116.25 102.5 L 116.25 116.25 L 113.75 157.5 L 106.25 201.25 L 96.25 223.75 L 87.5 235.0 L 80.0 235.0 L 78.75 228.75 " stroke="black" fill="none" stroke-width="6.0" stroke-linecap="round" stroke-linejoin="round" />
<path d="M 112.5 142.5 L 112.5 142.5 L 116.25 143.75 L 131.25 157.5 L 153.75 185.0 L 178.75 207.5 L 202.5 220.0 L 223.75 231.25 L 238.75 237.5 L 242.5 240.0 " stroke="black" fill="none" stroke-width="6.0" stroke-linecap="round" stroke-linejoin="round" />
</svg>