<svg xmlns="http://www.w3.org/2000/svg" width="300" height="300" viewBox="0 0 300 300">
<path d="M 75.0 78.75 L 73.75 80.0 L 71.25 86.25 L 71.25 100.0 L 68.75 117.5 L 70.0 125.0 L 77.5 122.5 L 87.5 115.0 L 103.75 100.0 L 115.0 91.25 L 120.0 85.0 L 120.0 82.5 L 116.25 81.25 L 110.0 80.0 L 106.25 80.0 L 103.75 78.75 L 103.75 80.0 L 103.75 87.5 L 107.5 125.0 L 110.0 173.75 L 110.0 213.75 L 110.0 225.0 L 107.5 233.75 L 100.0 236.25 L 93.75 236.25 " stroke="black" fill="none" stroke-width="6.0" stroke-linecap="round" stroke-linejoin="round" />
<path d="M 51.25 182.5 L 45.0 186.25 L 43.75 187.5 L 50.0 187.5 L 65.0 182.5 L 81.25 173.75 L 93.75 167.5 L 96.25 167.5 L 90.0 181.25 L 77.5 200.0 L 62.5 217.5 L 47.5 232.5 " stroke="black" fill="none" stroke-width="6.0" stroke-linecap="round" stroke-linejoin="round" />
<path d="M 183.75 78.75 L 181.25 78.75 L 177.5 78.75 L 177.5 78.75 L 186.25 78.75 L 198.75 78.75 L 208.75 81.25 L 212.5 91.25 L 201.25 111.25 L 180.0 135.0 L 158.75 150.0 L 150.0 151.25 L 147.5 151.25 " stroke="black" fill="none" stroke-width="6.0" stroke-linecap="round" stroke-linejoin="round" />
<path d="M 175.0 86.25 L 171.25 86.25 L 163.75 91.25 L 151.25 105.0 L 141.25 126.25 L 138.75 130.0 " stroke="black" fill="none" stroke-width="6.0" stroke-linecap="round" stroke-linejoin="round" />
<path d="M 180.0 93.75 L 178.75 93.75 L 176.25 95.0 L 175.0 96.25 L 178.75 98.75 L 185.0 102.5 L 187.5 103.75 " stroke="black" fill="none" stroke-width="6.0" stroke-linecap="round" stroke-linejoin="round" />
<path d="M 163.75 113.75 L 163.75 113.75 L 161.25 115.0 L 162.5 115.0 L 175.0 115.0 L 191.25 115.0 " stroke="black" fill="none" stroke-width="6.0" stroke-linecap="round" stroke-linejoin="round" />
<path d="M 142.5 192.5 L 141.25 193.75 L 137.5 196.25 L 143.75 197.5 L 165.0 190.0 L 198.75 172.5 L 226.25 151.25 L 238.75 141.25 L 238.75 140.0 L 230.0 140.0 L 217.5 143.75 L 207.5 146.25 L 201.25 148.75 L 198.75 148.75 L 200.0 150.0 L 205.0 153.75 L 210.0 172.5 L 213.75 208.75 L 213.75 243.75 L 213.75 262.5 L 211.25 266.25 L 208.75 267.5 L 203.75 266.25 L 195.0 260.0 L 183.75 250.0 L 172.5 240.0 " stroke="black" fill="none" stroke-width="6.0" stroke-linecap="round" stroke-linejoin="round" />
<path d="M 165.0 193.75 L 165.0 195.0 L 165.0 197.5 L 175.0 203.75 L 190.0 213.75 L 193.75 216.25 " stroke="black" fill="none" stroke-width="6.0" stroke-linecap="round" stroke-linejoin="round" />
</svg>