<svg xmlns="http://www.w3.org/2000/svg" width="300" height="300" viewBox="0 0 300 300">
<path d="M 88.75 133.75 L 86.25 133.75 L 83.75 133.75 L 83.75 133.75 L 86.25 138.75 L 92.5 146.25 L 98.75 153.75 L 100.0 156.25 " stroke="black" fill="none" stroke-width="6.0" stroke-linecap="round" stroke-linejoin="round" />
<path d="M 102.5 98.75 L 102.5 98.75 L 102.5 100.0 L 108.75 108.75 L 117.5 130.0 L 117.5 158.75 L 103.75 186.25 L 91.25 201.25 L 81.25 205.0 L 76.25 203.75 " stroke="black" fill="none" stroke-width="6.0" stroke-linecap="round" stroke-linejoin="round" />
<path d="M 138.75 147.5 L 138.75 148.75 L 140.0 151.25 L 143.75 155.0 L 150.0 157.5 L 158.75 160.0 L 167.5 161.25 L 168.75 161.25 " stroke="black" fill="none" stroke-width="6.0" stroke-linecap="round" stroke-linejoin="round" />
<path d="M 171.25 91.25 L 170.0 90.0 L 168.75 92.5 L 168.75 118.75 L 167.5 166.25 L 161.25 206.25 L 153.75 228.75 " stroke="black" fill="none" stroke-width="6.0" stroke-linecap="round" stroke-linejoin="round" />
<path d="M 196.25 151.25 L 195.0 151.25 L 192.5 153.75 L 193.75 156.25 L 200.0 160.0 L 208.75 163.75 L 215.0 166.25 " stroke="black" fill="none" stroke-width="6.0" stroke-linecap="round" stroke-linejoin="round" />
<path d="M 223.75 91.25 L 223.75 91.25 L 223.75 93.75 L 226.25 120.0 L 228.75 171.25 L 228.75 210.0 L 223.75 232.5 L 216.25 246.25 L 213.75 248.75 " stroke="black" fill="none" stroke-width="6.0" stroke-linecap="round" stroke-linejoin="round" />
</svg>