<svg xmlns="http://www.w3.org/2000/svg" width="300" height="300" viewBox="0 0 300 300">
<path d="M 66.25 142.5 L 65.0 143.75 L 62.5 143.75 L 65.0 142.5 L 80.0 135.0 L 96.25 125.0 L 106.25 116.25 L 106.25 115.0 " stroke="black" fill="none" stroke-width="6.0" stroke-linecap="round" stroke-linejoin="round" />
<path d="M 88.75 142.5 L 86.25 151.25 L 87.5 163.75 L 88.75 181.25 L 88.75 196.25 L 83.75 203.75 L 71.25 212.5 L 60.0 218.75 L 57.5 221.25 L 61.25 220.0 L 77.5 213.75 L 96.25 203.75 L 117.5 191.25 L 136.25 177.5 L 141.25 170.0 " stroke="black" fill="none" stroke-width="6.0" stroke-linecap="round" stroke-linejoin="round" />
<path d="M 132.5 96.25 L 130.0 97.5 L 127.5 97.5 L 128.75 100.0 L 140.0 100.0 L 158.75 98.75 L 180.0 91.25 L 193.75 83.75 L 196.25 81.25 L 190.0 81.25 L 177.5 90.0 L 165.0 102.5 L 155.0 126.25 L 151.25 148.75 L 152.5 155.0 L 158.75 155.0 L 167.5 148.75 L 181.25 141.25 L 211.25 126.25 L 218.75 123.75 L 221.25 125.0 L 221.25 130.0 L 218.75 140.0 L 216.25 157.5 L 212.5 185.0 L 211.25 212.5 L 210.0 228.75 L 207.5 236.25 L 206.25 237.5 L 202.5 238.75 L 197.5 240.0 L 187.5 241.25 L 176.25 241.25 L 161.25 237.5 L 142.5 226.25 " stroke="black" fill="none" stroke-width="6.0" stroke-linecap="round" stroke-linejoin="round" />
</svg>