<svg xmlns="http://www.w3.org/2000/svg" width="300" height="300" viewBox="0 0 300 300">
<path d="M 102.5 65.0 L 103.75 63.75 L 103.75 61.25 L 103.75 60.0 L 103.75 60.0 L 102.5 68.75 L 100.0 78.75 L 97.5 87.5 L 96.25 91.25 L 95.0 93.75 L 96.25 95.0 L 103.75 95.0 L 117.5 92.5 L 137.5 90.0 L 155.0 87.5 L 172.5 86.25 L 186.25 83.75 L 195.0 82.5 L 197.5 81.25 L 197.5 81.25 L 196.25 81.25 L 196.25 81.25 L 195.0 80.0 L 195.0 78.75 L 195.0 77.5 L 195.0 76.25 L 196.25 76.25 L 196.25 76.25 L 196.25 76.25 L 196.25 76.25 L 196.25 76.25 L 196.25 75.0 L 196.25 75.0 L 195.0 75.0 L 195.0 75.0 L 193.75 73.75 L 193.75 73.75 L 193.75 73.75 L 193.75 73.75 L 192.5 72.5 L 192.5 72.5 L 192.5 72.5 L 191.25 71.25 L 191.25 71.25 L 191.25 71.25 L 193.75 72.5 L 201.25 77.5 L 211.25 86.25 L 218.75 95.0 L 220.0 98.75 " stroke="black" fill="none" stroke-width="6.0" stroke-linecap="round" stroke-linejoin="round" />
<path d="M 153.75 38.75 L 152.5 38.75 L 151.25 38.75 L 148.75 38.75 L 147.5 46.25 L 147.5 67.5 L 147.5 92.5 " stroke="black" fill="none" stroke-width="6.0" stroke-linecap="round" stroke-linejoin="round" />
<path d="M 98.75 112.5 L 97.5 112.5 L 96.25 112.5 L 95.0 112.5 L 95.0 118.75 L 100.0 128.75 L 105.0 136.25 L 107.5 140.0 L 106.25 140.0 L 103.75 136.25 L 101.25 131.25 L 100.0 127.5 L 98.75 123.75 L 98.75 120.0 L 102.5 117.5 L 112.5 116.25 L 125.0 116.25 L 133.75 117.5 L 133.75 122.5 L 125.0 128.75 L 112.5 135.0 L 103.75 138.75 L 101.25 140.0 L 103.75 140.0 L 115.0 135.0 L 131.25 127.5 L 145.0 120.0 " stroke="black" fill="none" stroke-width="6.0" stroke-linecap="round" stroke-linejoin="round" />
<path d="M 155.0 101.25 L 155.0 102.5 L 152.5 103.75 L 152.5 107.5 L 152.5 116.25 L 156.25 126.25 L 158.75 132.5 L 158.75 133.75 L 158.75 131.25 L 158.75 125.0 L 158.75 118.75 L 158.75 113.75 L 158.75 108.75 L 160.0 106.25 L 162.5 103.75 L 171.25 102.5 L 181.25 102.5 L 188.75 105.0 L 190.0 108.75 L 181.25 116.25 L 168.75 125.0 L 160.0 131.25 L 156.25 133.75 L 158.75 133.75 L 170.0 131.25 L 183.75 125.0 L 195.0 118.75 L 196.25 117.5 " stroke="black" fill="none" stroke-width="6.0" stroke-linecap="round" stroke-linejoin="round" />
<path d="M 73.75 156.25 L 72.5 157.5 L 67.5 158.75 L 66.25 160.0 L 75.0 161.25 L 97.5 158.75 L 132.5 152.5 L 168.75 146.25 L 196.25 141.25 L 203.75 140.0 L 198.75 140.0 L 185.0 142.5 L 176.25 143.75 " stroke="black" fill="none" stroke-width="6.0" stroke-linecap="round" stroke-linejoin="round" />
<path d="M 95.0 158.75 L 92.5 161.25 L 91.25 162.5 L 90.0 170.0 L 90.0 191.25 L 87.5 218.75 L 82.5 241.25 L 76.25 248.75 L 71.25 248.75 L 68.75 241.25 " stroke="black" fill="none" stroke-width="6.0" stroke-linecap="round" stroke-linejoin="round" />
<path d="M 107.5 177.5 L 107.5 177.5 L 107.5 177.5 L 108.75 177.5 L 117.5 177.5 L 136.25 173.75 L 151.25 168.75 L 157.5 162.5 L 156.25 161.25 L 147.5 163.75 L 140.0 167.5 L 135.0 171.25 L 131.25 176.25 L 131.25 181.25 L 131.25 187.5 L 128.75 193.75 L 122.5 200.0 L 111.25 203.75 L 101.25 206.25 L 95.0 206.25 L 93.75 206.25 L 97.5 206.25 L 111.25 202.5 L 130.0 197.5 L 146.25 191.25 L 158.75 186.25 L 165.0 182.5 L 165.0 181.25 L 160.0 182.5 L 153.75 183.75 L 150.0 185.0 L 147.5 187.5 L 145.0 192.5 L 145.0 205.0 L 145.0 231.25 L 146.25 256.25 L 145.0 268.75 L 142.5 270.0 " stroke="black" fill="none" stroke-width="6.0" stroke-linecap="round" stroke-linejoin="round" />
<path d="M 113.75 202.5 L 113.75 202.5 L 113.75 201.25 L 112.5 202.5 L 112.5 216.25 L 112.5 240.0 L 112.5 255.0 L 111.25 258.75 " stroke="black" fill="none" stroke-width="6.0" stroke-linecap="round" stroke-linejoin="round" />
<path d="M 111.25 221.25 L 110.0 221.25 L 107.5 222.5 L 108.75 222.5 L 121.25 221.25 L 137.5 217.5 L 147.5 213.75 L 151.25 211.25 L 148.75 211.25 " stroke="black" fill="none" stroke-width="6.0" stroke-linecap="round" stroke-linejoin="round" />
<path d="M 106.25 251.25 L 106.25 252.5 L 102.5 255.0 L 102.5 256.25 L 106.25 255.0 L 117.5 247.5 L 133.75 237.5 L 146.25 225.0 L 152.5 216.25 L 152.5 215.0 " stroke="black" fill="none" stroke-width="6.0" stroke-linecap="round" stroke-linejoin="round" />
<path d="M 108.75 261.25 L 106.25 265.0 L 103.75 267.5 L 103.75 267.5 L 116.25 263.75 L 136.25 252.5 L 156.25 237.5 L 172.5 218.75 L 173.75 215.0 " stroke="black" fill="none" stroke-width="6.0" stroke-linecap="round" stroke-linejoin="round" />
<path d="M 172.5 178.75 L 172.5 177.5 L 173.75 173.75 L 175.0 171.25 L 177.5 170.0 L 180.0 171.25 L 181.25 182.5 L 180.0 196.25 L 177.5 206.25 L 176.25 208.75 L 185.0 206.25 L 201.25 193.75 L 217.5 180.0 L 231.25 168.75 L 236.25 165.0 L 231.25 165.0 " stroke="black" fill="none" stroke-width="6.0" stroke-linecap="round" stroke-linejoin="round" />
<path d="M 205.0 202.5 L 203.75 203.75 L 201.25 213.75 L 200.0 223.75 L 196.25 236.25 L 187.5 250.0 L 173.75 258.75 L 156.25 262.5 L 145.0 263.75 L 145.0 256.25 " stroke="black" fill="none" stroke-width="6.0" stroke-linecap="round" stroke-linejoin="round" />
<path d="M 161.25 228.75 L 163.75 226.25 L 165.0 225.0 L 167.5 226.25 L 172.5 233.75 L 182.5 246.25 L 196.25 261.25 L 211.25 272.5 L 227.5 281.25 L 241.25 286.25 L 246.25 288.75 L 248.75 292.5 L 248.75 293.75 " stroke="black" fill="none" stroke-width="6.0" stroke-linecap="round" stroke-linejoin="round" />
</svg>