<svg xmlns="http://www.w3.org/2000/svg" width="300" height="300" viewBox="0 0 300 300">
<path d="M 111.25 67.5 L 111.25 68.75 L 106.25 73.75 L 100.0 86.25 L 95.0 100.0 L 92.5 105.0 L 95.0 105.0 L 105.0 101.25 L 122.5 95.0 L 143.75 90.0 L 165.0 87.5 L 178.75 85.0 L 185.0 82.5 L 185.0 80.0 L 181.25 77.5 L 176.25 73.75 L 172.5 71.25 L 171.25 68.75 L 170.0 67.5 L 170.0 67.5 L 170.0 67.5 L 170.0 67.5 L 172.5 72.5 L 178.75 80.0 L 186.25 88.75 L 190.0 93.75 L 191.25 96.25 " stroke="black" fill="none" stroke-width="6.0" stroke-linecap="round" stroke-linejoin="round" />
<path d="M 143.75 42.5 L 141.25 41.25 L 140.0 40.0 L 138.75 46.25 L 138.75 66.25 L 138.75 78.75 " stroke="black" fill="none" stroke-width="6.0" stroke-linecap="round" stroke-linejoin="round" />
<path d="M 112.5 122.5 L 110.0 122.5 L 106.25 122.5 L 107.5 123.75 L 121.25 123.75 L 140.0 118.75 L 155.0 112.5 L 162.5 107.5 L 157.5 108.75 L 151.25 112.5 " stroke="black" fill="none" stroke-width="6.0" stroke-linecap="round" stroke-linejoin="round" />
<path d="M 105.0 141.25 L 103.75 145.0 L 102.5 157.5 L 106.25 175.0 L 111.25 188.75 L 117.5 193.75 L 117.5 190.0 " stroke="black" fill="none" stroke-width="6.0" stroke-linecap="round" stroke-linejoin="round" />
<path d="M 108.75 146.25 L 108.75 145.0 L 110.0 143.75 L 122.5 141.25 L 147.5 137.5 L 172.5 135.0 L 187.5 135.0 L 187.5 140.0 L 175.0 151.25 L 156.25 162.5 L 141.25 171.25 L 126.25 175.0 L 117.5 175.0 " stroke="black" fill="none" stroke-width="6.0" stroke-linecap="round" stroke-linejoin="round" />
<path d="M 105.0 168.75 L 103.75 168.75 L 103.75 168.75 L 108.75 165.0 L 127.5 158.75 L 151.25 151.25 L 166.25 146.25 L 166.25 145.0 L 161.25 148.75 " stroke="black" fill="none" stroke-width="6.0" stroke-linecap="round" stroke-linejoin="round" />
<path d="M 112.5 193.75 L 110.0 195.0 L 110.0 196.25 L 123.75 190.0 L 142.5 178.75 L 160.0 162.5 L 165.0 152.5 L 162.5 152.5 " stroke="black" fill="none" stroke-width="6.0" stroke-linecap="round" stroke-linejoin="round" />
<path d="M 130.0 145.0 L 130.0 146.25 L 127.5 148.75 L 125.0 166.25 L 118.75 201.25 L 110.0 230.0 L 100.0 248.75 L 95.0 251.25 L 93.75 241.25 " stroke="black" fill="none" stroke-width="6.0" stroke-linecap="round" stroke-linejoin="round" />
<path d="M 142.5 160.0 L 143.75 160.0 L 146.25 161.25 L 148.75 182.5 L 152.5 212.5 L 163.75 237.5 L 185.0 247.5 L 206.25 250.0 L 226.25 248.75 L 238.75 246.25 L 241.25 245.0 L 238.75 243.75 L 230.0 238.75 L 220.0 228.75 L 210.0 216.25 L 205.0 210.0 " stroke="black" fill="none" stroke-width="6.0" stroke-linecap="round" stroke-linejoin="round" />
<path d="M 182.5 167.5 L 182.5 167.5 L 180.0 168.75 L 177.5 172.5 L 175.0 183.75 L 172.5 203.75 L 175.0 211.25 L 183.75 211.25 L 196.25 205.0 L 205.0 198.75 L 208.75 192.5 L 210.0 188.75 L 207.5 186.25 L 205.0 185.0 L 202.5 183.75 L 202.5 182.5 L 201.25 182.5 L 201.25 182.5 L 201.25 182.5 L 201.25 182.5 L 202.5 183.75 L 207.5 187.5 L 215.0 196.25 L 220.0 206.25 " stroke="black" fill="none" stroke-width="6.0" stroke-linecap="round" stroke-linejoin="round" />
</svg>