<svg xmlns="http://www.w3.org/2000/svg" width="300" height="300" viewBox="0 0 300 300">
<path d="M 112.5 83.75 L 110.0 87.5 L 105.0 90.0 L 103.75 92.5 L 108.75 92.5 L 128.75 90.0 L 161.25 76.25 L 193.75 60.0 L 207.5 48.75 L 207.5 46.25 L 200.0 46.25 L 191.25 48.75 " stroke="black" fill="none" stroke-width="6.0" stroke-linecap="round" stroke-linejoin="round" />
<path d="M 128.75 106.25 L 128.75 110.0 L 126.25 116.25 L 122.5 131.25 L 115.0 153.75 L 105.0 172.5 L 100.0 181.25 L 97.5 177.5 " stroke="black" fill="none" stroke-width="6.0" stroke-linecap="round" stroke-linejoin="round" />
<path d="M 122.5 141.25 L 125.0 141.25 L 128.75 142.5 L 135.0 147.5 L 148.75 161.25 L 158.75 168.75 L 160.0 170.0 " stroke="black" fill="none" stroke-width="6.0" stroke-linecap="round" stroke-linejoin="round" />
<path d="M 213.75 103.75 L 208.75 106.25 L 203.75 113.75 L 193.75 132.5 L 182.5 151.25 L 175.0 157.5 " stroke="black" fill="none" stroke-width="6.0" stroke-linecap="round" stroke-linejoin="round" />
<path d="M 195.0 140.0 L 195.0 140.0 L 195.0 140.0 L 198.75 140.0 L 207.5 141.25 L 223.75 142.5 L 238.75 142.5 L 243.75 140.0 L 240.0 138.75 " stroke="black" fill="none" stroke-width="6.0" stroke-linecap="round" stroke-linejoin="round" />
<path d="M 163.75 88.75 L 163.75 88.75 L 165.0 87.5 L 165.0 87.5 L 167.5 95.0 L 170.0 126.25 L 171.25 166.25 L 166.25 193.75 L 158.75 207.5 L 150.0 213.75 L 147.5 215.0 " stroke="black" fill="none" stroke-width="6.0" stroke-linecap="round" stroke-linejoin="round" />
<path d="M 123.75 217.5 L 122.5 217.5 L 117.5 221.25 L 115.0 222.5 L 113.75 222.5 L 120.0 222.5 L 133.75 222.5 L 151.25 221.25 L 177.5 217.5 L 207.5 212.5 L 233.75 207.5 L 252.5 206.25 L 261.25 206.25 L 262.5 208.75 L 263.75 210.0 L 263.75 210.0 L 263.75 208.75 " stroke="black" fill="none" stroke-width="6.0" stroke-linecap="round" stroke-linejoin="round" />
</svg>