<svg xmlns="http://www.w3.org/2000/svg" width="300" height="300" viewBox="0 0 300 300">
<path d="M 108.75 81.25 L 108.75 80.0 L 106.25 80.0 L 105.0 83.75 L 101.25 97.5 L 97.5 115.0 L 98.75 120.0 L 110.0 118.75 L 131.25 108.75 L 153.75 100.0 L 172.5 93.75 L 186.25 88.75 L 193.75 85.0 L 196.25 81.25 L 196.25 80.0 L 196.25 78.75 L 193.75 76.25 L 191.25 76.25 L 188.75 75.0 L 187.5 75.0 L 186.25 75.0 L 186.25 75.0 L 186.25 75.0 L 186.25 75.0 L 188.75 81.25 L 196.25 90.0 L 206.25 100.0 L 210.0 106.25 " stroke="black" fill="none" stroke-width="6.0" stroke-linecap="round" stroke-linejoin="round" />
<path d="M 143.75 67.5 L 142.5 66.25 L 141.25 65.0 L 141.25 63.75 L 141.25 71.25 L 143.75 91.25 L 145.0 102.5 " stroke="black" fill="none" stroke-width="6.0" stroke-linecap="round" stroke-linejoin="round" />
<path d="M 141.25 118.75 L 140.0 117.5 L 140.0 117.5 L 140.0 117.5 L 147.5 117.5 L 155.0 120.0 L 157.5 127.5 " stroke="black" fill="none" stroke-width="6.0" stroke-linecap="round" stroke-linejoin="round" />
<path d="M 91.25 152.5 L 90.0 152.5 L 88.75 152.5 L 90.0 153.75 L 96.25 158.75 L 112.5 172.5 L 121.25 185.0 L 122.5 192.5 L 122.5 192.5 " stroke="black" fill="none" stroke-width="6.0" stroke-linecap="round" stroke-linejoin="round" />
<path d="M 108.75 171.25 L 107.5 171.25 L 111.25 167.5 L 130.0 161.25 L 152.5 155.0 L 188.75 150.0 L 198.75 148.75 L 198.75 152.5 L 187.5 161.25 L 173.75 171.25 L 155.0 182.5 L 147.5 186.25 " stroke="black" fill="none" stroke-width="6.0" stroke-linecap="round" stroke-linejoin="round" />
<path d="M 123.75 202.5 L 118.75 203.75 L 116.25 206.25 L 117.5 206.25 L 132.5 203.75 L 151.25 193.75 L 170.0 182.5 L 180.0 172.5 L 176.25 172.5 L 167.5 177.5 " stroke="black" fill="none" stroke-width="6.0" stroke-linecap="round" stroke-linejoin="round" />
<path d="M 115.0 235.0 L 115.0 236.25 L 115.0 237.5 L 123.75 235.0 L 148.75 217.5 L 181.25 193.75 L 200.0 176.25 L 203.75 170.0 L 196.25 171.25 L 185.0 181.25 L 175.0 190.0 L 167.5 197.5 L 165.0 205.0 L 168.75 220.0 L 176.25 243.75 L 180.0 262.5 L 181.25 272.5 L 180.0 273.75 L 173.75 271.25 L 162.5 266.25 L 147.5 260.0 L 140.0 256.25 " stroke="black" fill="none" stroke-width="6.0" stroke-linecap="round" stroke-linejoin="round" />
<path d="M 105.0 242.5 L 105.0 241.25 L 103.75 241.25 L 103.75 241.25 L 107.5 245.0 L 118.75 255.0 L 137.5 266.25 L 141.25 267.5 " stroke="black" fill="none" stroke-width="6.0" stroke-linecap="round" stroke-linejoin="round" />
<path d="M 220.0 207.5 L 220.0 207.5 L 220.0 208.75 L 225.0 215.0 L 236.25 235.0 L 246.25 255.0 L 251.25 265.0 L 251.25 267.5 " stroke="black" fill="none" stroke-width="6.0" stroke-linecap="round" stroke-linejoin="round" />
</svg>