<svg xmlns="http://www.w3.org/2000/svg" width="300" height="300" viewBox="0 0 300 300">
<path d="M 136.25 76.25 L 136.25 76.25 L 135.0 76.25 L 136.25 76.25 L 143.75 77.5 L 153.75 78.75 L 161.25 78.75 L 162.5 80.0 " stroke="black" fill="none" stroke-width="6.0" stroke-linecap="round" stroke-linejoin="round" />
<path d="M 130.0 97.5 L 128.75 97.5 L 128.75 97.5 L 133.75 97.5 L 145.0 93.75 L 157.5 91.25 L 163.75 90.0 L 163.75 90.0 " stroke="black" fill="none" stroke-width="6.0" stroke-linecap="round" stroke-linejoin="round" />
<path d="M 135.0 116.25 L 133.75 116.25 L 130.0 118.75 L 130.0 118.75 L 138.75 117.5 L 151.25 111.25 L 161.25 105.0 L 168.75 100.0 L 167.5 98.75 " stroke="black" fill="none" stroke-width="6.0" stroke-linecap="round" stroke-linejoin="round" />
<path d="M 136.25 136.25 L 136.25 136.25 L 135.0 136.25 L 137.5 136.25 L 148.75 130.0 L 162.5 120.0 L 167.5 113.75 L 166.25 113.75 " stroke="black" fill="none" stroke-width="6.0" stroke-linecap="round" stroke-linejoin="round" />
<path d="M 135.0 147.5 L 133.75 148.75 L 133.75 152.5 L 138.75 160.0 L 147.5 167.5 L 155.0 171.25 L 156.25 171.25 L 150.0 170.0 L 142.5 167.5 L 136.25 165.0 L 135.0 161.25 L 142.5 153.75 L 158.75 145.0 L 173.75 141.25 L 180.0 142.5 L 172.5 155.0 L 161.25 165.0 L 153.75 167.5 L 153.75 166.25 " stroke="black" fill="none" stroke-width="6.0" stroke-linecap="round" stroke-linejoin="round" />
<path d="M 203.75 76.25 L 203.75 76.25 L 203.75 75.0 L 203.75 75.0 L 201.25 82.5 L 197.5 102.5 L 196.25 116.25 L 195.0 121.25 L 201.25 115.0 L 210.0 103.75 L 216.25 95.0 L 218.75 92.5 L 216.25 98.75 L 208.75 116.25 L 202.5 132.5 L 198.75 142.5 L 198.75 143.75 L 205.0 137.5 L 216.25 128.75 L 227.5 120.0 L 235.0 116.25 L 236.25 118.75 L 230.0 131.25 L 218.75 146.25 L 207.5 158.75 L 196.25 166.25 " stroke="black" fill="none" stroke-width="6.0" stroke-linecap="round" stroke-linejoin="round" />
<path d="M 183.75 147.5 L 182.5 147.5 L 178.75 148.75 L 178.75 150.0 L 185.0 155.0 L 192.5 163.75 L 198.75 171.25 L 203.75 173.75 L 203.75 173.75 " stroke="black" fill="none" stroke-width="6.0" stroke-linecap="round" stroke-linejoin="round" />
<path d="M 206.25 143.75 L 206.25 143.75 L 205.0 143.75 L 205.0 143.75 L 206.25 150.0 L 211.25 157.5 L 215.0 163.75 L 215.0 165.0 " stroke="black" fill="none" stroke-width="6.0" stroke-linecap="round" stroke-linejoin="round" />
<path d="M 226.25 142.5 L 226.25 141.25 L 226.25 141.25 L 230.0 143.75 L 237.5 155.0 L 245.0 173.75 L 247.5 183.75 " stroke="black" fill="none" stroke-width="6.0" stroke-linecap="round" stroke-linejoin="round" />
<path d="M 90.0 81.25 L 88.75 81.25 L 86.25 81.25 L 82.5 85.0 L 77.5 97.5 L 75.0 110.0 L 75.0 115.0 L 83.75 111.25 L 93.75 101.25 L 101.25 92.5 L 103.75 90.0 L 103.75 92.5 L 95.0 106.25 L 87.5 122.5 L 82.5 135.0 L 81.25 137.5 L 87.5 135.0 L 97.5 126.25 L 108.75 116.25 L 116.25 111.25 L 118.75 113.75 L 112.5 127.5 L 100.0 146.25 L 86.25 160.0 L 82.5 162.5 " stroke="black" fill="none" stroke-width="6.0" stroke-linecap="round" stroke-linejoin="round" />
<path d="M 57.5 141.25 L 57.5 141.25 L 56.25 142.5 L 60.0 147.5 L 71.25 160.0 L 83.75 173.75 L 91.25 180.0 L 92.5 180.0 " stroke="black" fill="none" stroke-width="6.0" stroke-linecap="round" stroke-linejoin="round" />
<path d="M 86.25 147.5 L 86.25 147.5 L 86.25 147.5 L 86.25 147.5 L 88.75 152.5 L 93.75 161.25 L 96.25 167.5 L 96.25 167.5 " stroke="black" fill="none" stroke-width="6.0" stroke-linecap="round" stroke-linejoin="round" />
<path d="M 101.25 146.25 L 101.25 146.25 L 101.25 146.25 L 101.25 147.5 L 106.25 155.0 L 112.5 162.5 " stroke="black" fill="none" stroke-width="6.0" stroke-linecap="round" stroke-linejoin="round" />
<path d="M 135.0 197.5 L 128.75 197.5 L 123.75 201.25 L 115.0 211.25 L 106.25 230.0 L 101.25 242.5 L 100.0 245.0 L 100.0 245.0 L 101.25 243.75 L 101.25 243.75 L 102.5 243.75 L 102.5 243.75 L 102.5 243.75 L 102.5 245.0 L 101.25 246.25 L 101.25 246.25 L 101.25 247.5 L 101.25 247.5 L 101.25 247.5 L 101.25 247.5 L 101.25 247.5 L 101.25 247.5 L 107.5 248.75 L 125.0 250.0 L 155.0 250.0 L 190.0 247.5 L 212.5 247.5 L 226.25 248.75 L 232.5 251.25 L 235.0 251.25 L 236.25 251.25 L 236.25 251.25 L 237.5 247.5 L 236.25 245.0 " stroke="black" fill="none" stroke-width="6.0" stroke-linecap="round" stroke-linejoin="round" />
<path d="M 223.75 202.5 L 220.0 201.25 L 218.75 201.25 L 221.25 202.5 L 231.25 217.5 L 240.0 237.5 L 246.25 253.75 L 246.25 256.25 " stroke="black" fill="none" stroke-width="6.0" stroke-linecap="round" stroke-linejoin="round" />
<path d="M 165.0 192.5 L 165.0 192.5 L 163.75 192.5 L 163.75 198.75 L 166.25 225.0 L 167.5 242.5 " stroke="black" fill="none" stroke-width="6.0" stroke-linecap="round" stroke-linejoin="round" />
</svg>