<svg xmlns="http://www.w3.org/2000/svg" width="300" height="300" viewBox="0 0 300 300">
<path d="M 88.75 87.5 L 88.75 85.0 L 88.75 85.0 L 88.75 86.25 L 88.75 95.0 L 86.25 108.75 L 83.75 118.75 L 83.75 122.5 L 88.75 118.75 L 97.5 110.0 L 108.75 101.25 L 116.25 96.25 L 120.0 93.75 L 118.75 95.0 L 111.25 106.25 L 101.25 122.5 L 92.5 141.25 L 87.5 153.75 L 87.5 157.5 L 93.75 155.0 L 102.5 148.75 L 112.5 142.5 L 122.5 136.25 L 127.5 132.5 L 128.75 130.0 L 127.5 128.75 L 125.0 126.25 L 122.5 125.0 L 121.25 123.75 L 121.25 123.75 L 121.25 123.75 L 121.25 123.75 L 121.25 123.75 L 121.25 123.75 L 122.5 125.0 L 126.25 128.75 L 131.25 136.25 L 136.25 145.0 L 136.25 148.75 " stroke="black" fill="none" stroke-width="6.0" stroke-linecap="round" stroke-linejoin="round" />
<path d="M 192.5 72.5 L 190.0 72.5 L 186.25 77.5 L 180.0 88.75 L 175.0 102.5 L 173.75 110.0 L 178.75 111.25 L 188.75 106.25 L 198.75 98.75 L 205.0 92.5 L 207.5 88.75 L 208.75 88.75 L 202.5 97.5 L 193.75 111.25 L 186.25 126.25 L 182.5 135.0 L 185.0 135.0 L 195.0 128.75 L 206.25 121.25 L 216.25 113.75 L 222.5 110.0 L 223.75 108.75 L 223.75 108.75 L 222.5 116.25 L 220.0 125.0 L 217.5 135.0 " stroke="black" fill="none" stroke-width="6.0" stroke-linecap="round" stroke-linejoin="round" />
<path d="M 82.5 168.75 L 78.75 170.0 L 73.75 171.25 L 72.5 173.75 L 83.75 177.5 L 107.5 180.0 L 141.25 178.75 L 175.0 170.0 L 195.0 162.5 L 197.5 158.75 L 192.5 158.75 L 178.75 161.25 L 171.25 163.75 " stroke="black" fill="none" stroke-width="6.0" stroke-linecap="round" stroke-linejoin="round" />
<path d="M 117.5 188.75 L 117.5 188.75 L 115.0 190.0 L 113.75 193.75 L 112.5 206.25 L 107.5 227.5 L 100.0 245.0 L 93.75 250.0 L 91.25 250.0 " stroke="black" fill="none" stroke-width="6.0" stroke-linecap="round" stroke-linejoin="round" />
<path d="M 113.75 208.75 L 117.5 208.75 L 123.75 210.0 L 131.25 216.25 L 146.25 231.25 L 155.0 238.75 L 157.5 238.75 " stroke="black" fill="none" stroke-width="6.0" stroke-linecap="round" stroke-linejoin="round" />
<path d="M 151.25 98.75 L 150.0 97.5 L 147.5 97.5 L 147.5 100.0 L 152.5 127.5 L 167.5 178.75 L 186.25 220.0 L 198.75 248.75 L 206.25 267.5 L 211.25 278.75 L 213.75 281.25 L 213.75 281.25 L 216.25 275.0 L 217.5 266.25 L 217.5 255.0 L 216.25 238.75 L 213.75 221.25 L 208.75 205.0 " stroke="black" fill="none" stroke-width="6.0" stroke-linecap="round" stroke-linejoin="round" />
<path d="M 211.25 185.0 L 212.5 183.75 L 212.5 183.75 L 210.0 187.5 L 198.75 198.75 L 177.5 218.75 L 157.5 236.25 L 151.25 240.0 " stroke="black" fill="none" stroke-width="6.0" stroke-linecap="round" stroke-linejoin="round" />
<path d="M 233.75 155.0 L 236.25 155.0 L 240.0 157.5 L 245.0 162.5 L 250.0 168.75 L 251.25 172.5 " stroke="black" fill="none" stroke-width="6.0" stroke-linecap="round" stroke-linejoin="round" />
</svg>