<svg xmlns="http://www.w3.org/2000/svg" width="300" height="300" viewBox="0 0 300 300">
<path d="M 131.25 67.5 L 131.25 67.5 L 133.75 67.5 L 142.5 67.5 L 153.75 70.0 L 165.0 72.5 L 168.75 73.75 L 168.75 75.0 " stroke="black" fill="none" stroke-width="6.0" stroke-linecap="round" stroke-linejoin="round" />
<path d="M 105.0 100.0 L 103.75 101.25 L 101.25 102.5 L 108.75 102.5 L 130.0 96.25 L 158.75 82.5 L 183.75 71.25 L 195.0 63.75 L 190.0 62.5 L 176.25 66.25 L 162.5 71.25 L 150.0 76.25 L 142.5 82.5 L 141.25 91.25 L 143.75 105.0 L 146.25 117.5 L 147.5 121.25 L 147.5 117.5 " stroke="black" fill="none" stroke-width="6.0" stroke-linecap="round" stroke-linejoin="round" />
<path d="M 166.25 83.75 L 168.75 82.5 L 168.75 83.75 L 163.75 96.25 L 153.75 116.25 L 145.0 131.25 " stroke="black" fill="none" stroke-width="6.0" stroke-linecap="round" stroke-linejoin="round" />
<path d="M 105.0 127.5 L 103.75 127.5 L 102.5 128.75 L 102.5 141.25 L 102.5 165.0 L 101.25 185.0 L 100.0 188.75 L 100.0 188.75 " stroke="black" fill="none" stroke-width="6.0" stroke-linecap="round" stroke-linejoin="round" />
<path d="M 102.5 155.0 L 102.5 152.5 L 105.0 148.75 L 121.25 142.5 L 152.5 136.25 L 187.5 128.75 L 206.25 126.25 L 208.75 127.5 L 201.25 135.0 L 186.25 147.5 L 166.25 160.0 L 145.0 171.25 L 125.0 181.25 L 108.75 190.0 L 103.75 192.5 L 103.75 193.75 L 107.5 200.0 L 115.0 215.0 L 122.5 233.75 L 127.5 248.75 L 128.75 253.75 L 128.75 252.5 L 128.75 247.5 L 125.0 238.75 L 120.0 230.0 L 115.0 221.25 L 111.25 216.25 L 112.5 212.5 L 128.75 205.0 L 158.75 193.75 L 193.75 180.0 L 217.5 172.5 L 223.75 175.0 L 222.5 185.0 L 208.75 200.0 L 195.0 213.75 L 177.5 225.0 L 162.5 231.25 L 156.25 225.0 " stroke="black" fill="none" stroke-width="6.0" stroke-linecap="round" stroke-linejoin="round" />
<path d="M 163.75 165.0 L 163.75 162.5 L 163.75 156.25 L 163.75 156.25 L 166.25 175.0 L 166.25 213.75 L 163.75 261.25 L 157.5 297.5 L 153.75 313.75 L 148.75 317.5 " stroke="black" fill="none" stroke-width="6.0" stroke-linecap="round" stroke-linejoin="round" />
</svg>