<svg xmlns="http://www.w3.org/2000/svg" width="300" height="300" viewBox="0 0 300 300">
<path d="M 113.75 63.75 L 112.5 62.5 L 111.25 62.5 L 111.25 72.5 L 116.25 90.0 L 126.25 103.75 L 145.0 105.0 L 165.0 91.25 L 181.25 77.5 L 188.75 68.75 L 188.75 65.0 L 180.0 66.25 L 173.75 70.0 " stroke="black" fill="none" stroke-width="6.0" stroke-linecap="round" stroke-linejoin="round" />
<path d="M 100.0 148.75 L 98.75 148.75 L 97.5 148.75 L 97.5 148.75 L 102.5 148.75 L 115.0 147.5 L 126.25 147.5 L 132.5 147.5 L 133.75 150.0 L 126.25 156.25 L 115.0 166.25 L 103.75 175.0 L 98.75 181.25 L 100.0 181.25 L 111.25 176.25 L 125.0 171.25 L 136.25 167.5 L 142.5 166.25 L 142.5 170.0 L 133.75 182.5 L 121.25 195.0 L 107.5 205.0 L 96.25 212.5 L 90.0 217.5 L 92.5 217.5 L 107.5 216.25 L 132.5 208.75 L 163.75 197.5 L 196.25 188.75 L 217.5 181.25 L 227.5 173.75 L 227.5 168.75 L 220.0 166.25 L 207.5 163.75 L 197.5 161.25 L 193.75 161.25 " stroke="black" fill="none" stroke-width="6.0" stroke-linecap="round" stroke-linejoin="round" />
<path d="M 168.75 102.5 L 168.75 101.25 L 168.75 100.0 L 168.75 98.75 L 168.75 98.75 L 168.75 97.5 L 171.25 100.0 L 176.25 113.75 L 180.0 143.75 L 181.25 187.5 L 181.25 220.0 L 180.0 247.5 L 178.75 263.75 L 178.75 276.25 L 177.5 285.0 L 171.25 290.0 L 163.75 290.0 " stroke="black" fill="none" stroke-width="6.0" stroke-linecap="round" stroke-linejoin="round" />
</svg>