<svg xmlns="http://www.w3.org/2000/svg" width="300" height="300" viewBox="0 0 300 300">
<path d="M 58.75 102.5 L 57.5 102.5 L 55.0 103.75 L 57.5 103.75 L 73.75 97.5 L 93.75 86.25 L 110.0 76.25 L 113.75 72.5 L 107.5 71.25 L 96.25 75.0 L 88.75 76.25 L 80.0 76.25 L 75.0 76.25 L 75.0 75.0 L 76.25 73.75 L 81.25 78.75 L 85.0 91.25 L 85.0 110.0 L 83.75 127.5 L 81.25 132.5 " stroke="black" fill="none" stroke-width="6.0" stroke-linecap="round" stroke-linejoin="round" />
<path d="M 56.25 137.5 L 56.25 138.75 L 55.0 138.75 L 53.75 141.25 L 53.75 150.0 L 57.5 168.75 L 60.0 185.0 L 62.5 191.25 L 63.75 187.5 " stroke="black" fill="none" stroke-width="6.0" stroke-linecap="round" stroke-linejoin="round" />
<path d="M 60.0 148.75 L 60.0 148.75 L 58.75 147.5 L 58.75 146.25 L 71.25 142.5 L 91.25 135.0 L 110.0 130.0 L 117.5 132.5 L 112.5 145.0 L 102.5 158.75 L 93.75 171.25 L 86.25 176.25 L 82.5 177.5 " stroke="black" fill="none" stroke-width="6.0" stroke-linecap="round" stroke-linejoin="round" />
<path d="M 66.25 162.5 L 62.5 163.75 L 60.0 165.0 L 67.5 161.25 L 83.75 152.5 L 98.75 143.75 L 108.75 135.0 L 106.25 136.25 " stroke="black" fill="none" stroke-width="6.0" stroke-linecap="round" stroke-linejoin="round" />
<path d="M 63.75 182.5 L 63.75 182.5 L 62.5 183.75 L 71.25 178.75 L 87.5 166.25 L 102.5 153.75 L 105.0 148.75 " stroke="black" fill="none" stroke-width="6.0" stroke-linecap="round" stroke-linejoin="round" />
<path d="M 53.75 215.0 L 53.75 216.25 L 53.75 217.5 L 60.0 216.25 L 80.0 205.0 L 103.75 188.75 L 117.5 175.0 L 121.25 168.75 L 110.0 171.25 L 100.0 176.25 L 92.5 180.0 L 87.5 180.0 L 86.25 178.75 L 87.5 176.25 L 88.75 176.25 L 90.0 185.0 L 90.0 202.5 L 90.0 230.0 L 86.25 248.75 L 81.25 252.5 " stroke="black" fill="none" stroke-width="6.0" stroke-linecap="round" stroke-linejoin="round" />
<path d="M 168.75 71.25 L 168.75 71.25 L 167.5 72.5 L 158.75 91.25 L 141.25 126.25 L 122.5 150.0 L 108.75 155.0 L 106.25 153.75 " stroke="black" fill="none" stroke-width="6.0" stroke-linecap="round" stroke-linejoin="round" />
<path d="M 152.5 78.75 L 157.5 78.75 L 173.75 87.5 L 197.5 102.5 L 215.0 120.0 L 230.0 131.25 L 237.5 138.75 L 232.5 143.75 " stroke="black" fill="none" stroke-width="6.0" stroke-linecap="round" stroke-linejoin="round" />
<path d="M 142.5 163.75 L 140.0 165.0 L 138.75 165.0 L 147.5 162.5 L 167.5 153.75 L 192.5 142.5 L 205.0 135.0 L 203.75 135.0 L 197.5 137.5 " stroke="black" fill="none" stroke-width="6.0" stroke-linecap="round" stroke-linejoin="round" />
<path d="M 146.25 198.75 L 146.25 200.0 L 146.25 201.25 L 155.0 197.5 L 172.5 187.5 L 202.5 165.0 L 207.5 156.25 L 202.5 155.0 L 200.0 155.0 " stroke="black" fill="none" stroke-width="6.0" stroke-linecap="round" stroke-linejoin="round" />
<path d="M 175.0 155.0 L 175.0 155.0 L 175.0 155.0 L 175.0 160.0 L 180.0 186.25 L 182.5 223.75 L 182.5 248.75 L 175.0 261.25 " stroke="black" fill="none" stroke-width="6.0" stroke-linecap="round" stroke-linejoin="round" />
</svg>