<svg xmlns="http://www.w3.org/2000/svg" width="300" height="300" viewBox="0 0 300 300">
<path d="M 125.0 76.25 L 123.75 76.25 L 121.25 76.25 L 125.0 76.25 L 138.75 76.25 L 156.25 75.0 L 173.75 75.0 L 182.5 75.0 L 182.5 76.25 " stroke="black" fill="none" stroke-width="6.0" stroke-linecap="round" stroke-linejoin="round" />
<path d="M 82.5 116.25 L 80.0 120.0 L 86.25 120.0 L 107.5 112.5 L 145.0 98.75 L 168.75 90.0 L 191.25 78.75 L 191.25 77.5 " stroke="black" fill="none" stroke-width="6.0" stroke-linecap="round" stroke-linejoin="round" />
<path d="M 111.25 113.75 L 110.0 117.5 L 101.25 138.75 L 97.5 182.5 L 90.0 235.0 L 82.5 261.25 L 78.75 263.75 L 75.0 257.5 " stroke="black" fill="none" stroke-width="6.0" stroke-linecap="round" stroke-linejoin="round" />
<path d="M 108.75 141.25 L 111.25 141.25 L 122.5 140.0 L 146.25 131.25 L 172.5 117.5 L 196.25 102.5 L 202.5 95.0 L 201.25 95.0 " stroke="black" fill="none" stroke-width="6.0" stroke-linecap="round" stroke-linejoin="round" />
<path d="M 146.25 115.0 L 145.0 116.25 L 141.25 122.5 L 141.25 133.75 L 143.75 152.5 L 147.5 163.75 L 151.25 166.25 L 153.75 158.75 L 156.25 147.5 L 157.5 133.75 L 161.25 121.25 L 165.0 111.25 L 168.75 108.75 L 170.0 122.5 L 165.0 142.5 L 156.25 165.0 L 150.0 175.0 " stroke="black" fill="none" stroke-width="6.0" stroke-linecap="round" stroke-linejoin="round" />
<path d="M 120.0 185.0 L 118.75 186.25 L 120.0 190.0 L 128.75 201.25 L 138.75 215.0 L 146.25 223.75 L 147.5 226.25 L 145.0 223.75 L 140.0 218.75 L 132.5 215.0 L 125.0 211.25 L 121.25 208.75 L 125.0 203.75 L 145.0 195.0 L 175.0 181.25 L 206.25 166.25 L 216.25 162.5 L 215.0 170.0 L 205.0 188.75 L 191.25 205.0 L 176.25 216.25 L 162.5 218.75 " stroke="black" fill="none" stroke-width="6.0" stroke-linecap="round" stroke-linejoin="round" />
<path d="M 168.75 160.0 L 167.5 160.0 L 166.25 160.0 L 167.5 176.25 L 170.0 220.0 L 166.25 260.0 L 158.75 278.75 L 152.5 286.25 L 151.25 286.25 " stroke="black" fill="none" stroke-width="6.0" stroke-linecap="round" stroke-linejoin="round" />
</svg>