<svg xmlns="http://www.w3.org/2000/svg" width="300" height="300" viewBox="0 0 300 300">
<path d="M 137.5 60.0 L 140.0 62.5 L 146.25 67.5 L 157.5 71.25 L 172.5 72.5 L 181.25 72.5 L 177.5 72.5 " stroke="black" fill="none" stroke-width="6.0" stroke-linecap="round" stroke-linejoin="round" />
<path d="M 101.25 102.5 L 101.25 102.5 L 101.25 103.75 L 110.0 102.5 L 140.0 95.0 L 175.0 83.75 L 197.5 76.25 L 201.25 71.25 L 195.0 72.5 L 192.5 73.75 " stroke="black" fill="none" stroke-width="6.0" stroke-linecap="round" stroke-linejoin="round" />
<path d="M 118.75 118.75 L 115.0 135.0 L 112.5 171.25 L 108.75 216.25 L 98.75 250.0 L 92.5 262.5 L 85.0 263.75 L 81.25 256.25 L 80.0 253.75 " stroke="black" fill="none" stroke-width="6.0" stroke-linecap="round" stroke-linejoin="round" />
<path d="M 148.75 105.0 L 148.75 105.0 L 148.75 105.0 L 152.5 110.0 L 162.5 121.25 L 171.25 135.0 L 173.75 141.25 " stroke="black" fill="none" stroke-width="6.0" stroke-linecap="round" stroke-linejoin="round" />
<path d="M 176.25 102.5 L 176.25 102.5 L 178.75 105.0 L 183.75 108.75 L 187.5 115.0 L 187.5 125.0 L 180.0 133.75 L 173.75 135.0 " stroke="black" fill="none" stroke-width="6.0" stroke-linecap="round" stroke-linejoin="round" />
<path d="M 145.0 147.5 L 142.5 148.75 L 141.25 151.25 L 146.25 150.0 L 163.75 146.25 L 187.5 138.75 L 207.5 130.0 L 213.75 126.25 L 211.25 126.25 L 206.25 128.75 " stroke="black" fill="none" stroke-width="6.0" stroke-linecap="round" stroke-linejoin="round" />
<path d="M 140.0 176.25 L 138.75 178.75 L 141.25 180.0 L 155.0 175.0 L 180.0 166.25 L 203.75 158.75 L 211.25 156.25 L 211.25 157.5 L 202.5 167.5 L 186.25 181.25 L 163.75 195.0 L 140.0 207.5 L 127.5 213.75 L 126.25 213.75 L 138.75 208.75 L 157.5 200.0 L 182.5 188.75 L 208.75 178.75 L 220.0 173.75 L 220.0 176.25 L 205.0 190.0 L 186.25 206.25 L 165.0 220.0 L 148.75 225.0 L 146.25 223.75 " stroke="black" fill="none" stroke-width="6.0" stroke-linecap="round" stroke-linejoin="round" />
<path d="M 168.75 146.25 L 168.75 145.0 L 168.75 145.0 L 171.25 157.5 L 176.25 202.5 L 177.5 245.0 L 177.5 253.75 L 177.5 253.75 L 176.25 252.5 " stroke="black" fill="none" stroke-width="6.0" stroke-linecap="round" stroke-linejoin="round" />
<path d="M 186.25 155.0 L 186.25 153.75 L 188.75 152.5 L 192.5 161.25 L 197.5 186.25 L 200.0 221.25 L 198.75 246.25 L 193.75 256.25 " stroke="black" fill="none" stroke-width="6.0" stroke-linecap="round" stroke-linejoin="round" />
<path d="M 165.0 217.5 L 157.5 222.5 L 147.5 233.75 L 136.25 247.5 L 127.5 257.5 L 127.5 258.75 " stroke="black" fill="none" stroke-width="6.0" stroke-linecap="round" stroke-linejoin="round" />
<path d="M 203.75 203.75 L 203.75 205.0 L 210.0 210.0 L 221.25 220.0 L 236.25 235.0 L 243.75 245.0 L 246.25 247.5 L 247.5 248.75 " stroke="black" fill="none" stroke-width="6.0" stroke-linecap="round" stroke-linejoin="round" />
</svg>