<svg xmlns="http://www.w3.org/2000/svg" width="300" height="300" viewBox="0 0 300 300">
<path d="M 130.0 71.25 L 130.0 72.5 L 128.75 73.75 L 136.25 73.75 L 148.75 75.0 L 163.75 75.0 L 172.5 73.75 L 170.0 73.75 " stroke="black" fill="none" stroke-width="6.0" stroke-linecap="round" stroke-linejoin="round" />
<path d="M 98.75 108.75 L 98.75 108.75 L 98.75 110.0 L 106.25 108.75 L 130.0 100.0 L 160.0 90.0 L 181.25 81.25 L 186.25 77.5 L 185.0 77.5 " stroke="black" fill="none" stroke-width="6.0" stroke-linecap="round" stroke-linejoin="round" />
<path d="M 121.25 113.75 L 116.25 131.25 L 111.25 168.75 L 105.0 213.75 L 101.25 238.75 L 98.75 245.0 L 97.5 243.75 L 96.25 236.25 " stroke="black" fill="none" stroke-width="6.0" stroke-linecap="round" stroke-linejoin="round" />
<path d="M 131.25 128.75 L 131.25 127.5 L 132.5 126.25 L 145.0 122.5 L 167.5 120.0 L 188.75 118.75 L 198.75 120.0 L 198.75 125.0 L 186.25 135.0 L 168.75 145.0 L 152.5 152.5 L 137.5 158.75 L 125.0 163.75 L 122.5 163.75 L 126.25 163.75 L 145.0 155.0 L 165.0 147.5 L 186.25 138.75 L 202.5 133.75 L 205.0 132.5 L 195.0 140.0 L 180.0 150.0 L 161.25 161.25 L 143.75 178.75 L 133.75 190.0 L 135.0 191.25 L 147.5 181.25 L 165.0 166.25 L 183.75 150.0 L 196.25 136.25 L 196.25 130.0 L 187.5 127.5 L 178.75 125.0 L 172.5 120.0 L 167.5 112.5 L 166.25 107.5 L 166.25 106.25 L 166.25 115.0 L 168.75 141.25 L 170.0 187.5 L 171.25 228.75 L 172.5 245.0 L 172.5 246.25 L 172.5 246.25 L 168.75 242.5 L 160.0 237.5 L 152.5 232.5 " stroke="black" fill="none" stroke-width="6.0" stroke-linecap="round" stroke-linejoin="round" />
<path d="M 130.0 203.75 L 130.0 203.75 L 130.0 203.75 L 130.0 205.0 L 131.25 211.25 L 131.25 223.75 L 128.75 235.0 L 130.0 237.5 L 142.5 228.75 L 163.75 210.0 L 188.75 190.0 L 205.0 177.5 L 207.5 175.0 L 207.5 176.25 L 207.5 185.0 L 210.0 195.0 L 220.0 201.25 L 235.0 201.25 L 247.5 203.75 L 251.25 215.0 L 242.5 236.25 L 228.75 252.5 L 218.75 262.5 " stroke="black" fill="none" stroke-width="6.0" stroke-linecap="round" stroke-linejoin="round" />
</svg>