<svg xmlns="http://www.w3.org/2000/svg" width="300" height="300" viewBox="0 0 300 300">
<path d="M 78.75 98.75 L 77.5 100.0 L 77.5 102.5 L 83.75 103.75 L 106.25 101.25 L 146.25 91.25 L 185.0 80.0 L 203.75 73.75 L 206.25 72.5 L 200.0 73.75 L 186.25 77.5 L 168.75 80.0 L 150.0 81.25 L 136.25 81.25 L 127.5 80.0 L 126.25 78.75 L 127.5 78.75 L 131.25 87.5 L 135.0 107.5 L 138.75 123.75 L 142.5 130.0 L 145.0 126.25 L 150.0 113.75 L 153.75 98.75 L 157.5 86.25 L 158.75 76.25 L 160.0 73.75 L 160.0 80.0 L 157.5 96.25 L 153.75 113.75 L 153.75 126.25 L 153.75 130.0 " stroke="black" fill="none" stroke-width="6.0" stroke-linecap="round" stroke-linejoin="round" />
<path d="M 186.25 60.0 L 186.25 62.5 L 185.0 70.0 L 182.5 90.0 L 183.75 110.0 L 191.25 117.5 L 203.75 116.25 L 216.25 105.0 L 222.5 96.25 L 217.5 91.25 " stroke="black" fill="none" stroke-width="6.0" stroke-linecap="round" stroke-linejoin="round" />
<path d="M 97.5 87.5 L 97.5 86.25 L 97.5 81.25 L 97.5 80.0 L 97.5 85.0 L 98.75 106.25 L 98.75 132.5 L 100.0 153.75 L 100.0 156.25 " stroke="black" fill="none" stroke-width="6.0" stroke-linecap="round" stroke-linejoin="round" />
<path d="M 112.5 151.25 L 110.0 152.5 L 108.75 153.75 L 108.75 161.25 L 112.5 175.0 L 116.25 185.0 L 118.75 187.5 L 118.75 187.5 " stroke="black" fill="none" stroke-width="6.0" stroke-linecap="round" stroke-linejoin="round" />
<path d="M 115.0 160.0 L 112.5 158.75 L 112.5 156.25 L 120.0 153.75 L 143.75 151.25 L 177.5 147.5 L 205.0 146.25 L 211.25 146.25 L 206.25 148.75 L 192.5 157.5 L 173.75 167.5 L 152.5 177.5 L 131.25 186.25 L 115.0 192.5 L 107.5 193.75 L 106.25 195.0 L 107.5 195.0 L 113.75 200.0 L 122.5 215.0 L 131.25 236.25 L 136.25 248.75 L 137.5 252.5 L 137.5 251.25 L 133.75 247.5 L 128.75 241.25 L 118.75 235.0 L 110.0 228.75 L 103.75 223.75 L 103.75 220.0 L 120.0 212.5 L 147.5 201.25 L 181.25 190.0 L 205.0 185.0 L 211.25 186.25 L 208.75 192.5 L 198.75 203.75 L 186.25 216.25 L 171.25 226.25 L 157.5 231.25 L 152.5 231.25 " stroke="black" fill="none" stroke-width="6.0" stroke-linecap="round" stroke-linejoin="round" />
<path d="M 156.25 160.0 L 155.0 160.0 L 155.0 158.75 L 155.0 161.25 L 158.75 187.5 L 160.0 232.5 L 157.5 270.0 L 151.25 295.0 L 146.25 302.5 " stroke="black" fill="none" stroke-width="6.0" stroke-linecap="round" stroke-linejoin="round" />
</svg>