<svg xmlns="http://www.w3.org/2000/svg" width="300" height="300" viewBox="0 0 300 300">
<path d="M 78.75 133.75 L 77.5 133.75 L 70.0 135.0 L 67.5 135.0 L 76.25 137.5 L 101.25 137.5 L 142.5 130.0 L 187.5 116.25 L 218.75 102.5 L 231.25 97.5 L 230.0 97.5 L 216.25 98.75 L 203.75 100.0 " stroke="black" fill="none" stroke-width="6.0" stroke-linecap="round" stroke-linejoin="round" />
<path d="M 106.25 95.0 L 106.25 92.5 L 103.75 90.0 L 103.75 88.75 L 107.5 93.75 L 116.25 118.75 L 120.0 162.5 L 118.75 207.5 L 115.0 227.5 L 117.5 235.0 L 130.0 236.25 L 150.0 233.75 L 175.0 226.25 L 200.0 216.25 L 215.0 207.5 L 221.25 201.25 L 220.0 196.25 L 212.5 193.75 L 205.0 191.25 " stroke="black" fill="none" stroke-width="6.0" stroke-linecap="round" stroke-linejoin="round" />
<path d="M 198.75 82.5 L 198.75 81.25 L 197.5 78.75 L 197.5 77.5 L 200.0 82.5 L 203.75 107.5 L 206.25 151.25 L 206.25 190.0 L 205.0 205.0 L 201.25 213.75 " stroke="black" fill="none" stroke-width="6.0" stroke-linecap="round" stroke-linejoin="round" />
</svg>