<svg xmlns="http://www.w3.org/2000/svg" width="300" height="300" viewBox="0 0 300 300">
<path d="M 141.25 68.75 L 141.25 68.75 L 143.75 68.75 L 157.5 68.75 L 177.5 68.75 L 191.25 68.75 L 185.0 72.5 " stroke="black" fill="none" stroke-width="6.0" stroke-linecap="round" stroke-linejoin="round" />
<path d="M 98.75 108.75 L 98.75 108.75 L 100.0 108.75 L 118.75 103.75 L 152.5 92.5 L 181.25 82.5 L 191.25 77.5 L 187.5 78.75 L 171.25 83.75 " stroke="black" fill="none" stroke-width="6.0" stroke-linecap="round" stroke-linejoin="round" />
<path d="M 117.5 118.75 L 110.0 143.75 L 106.25 180.0 L 96.25 217.5 L 85.0 241.25 L 76.25 247.5 L 71.25 243.75 L 70.0 232.5 " stroke="black" fill="none" stroke-width="6.0" stroke-linecap="round" stroke-linejoin="round" />
<path d="M 133.75 125.0 L 132.5 126.25 L 131.25 127.5 L 136.25 127.5 L 155.0 125.0 L 187.5 112.5 L 212.5 101.25 L 218.75 98.75 L 211.25 100.0 L 202.5 103.75 " stroke="black" fill="none" stroke-width="6.0" stroke-linecap="round" stroke-linejoin="round" />
<path d="M 155.0 112.5 L 155.0 117.5 L 155.0 127.5 L 156.25 141.25 L 157.5 151.25 L 158.75 152.5 L 158.75 150.0 " stroke="black" fill="none" stroke-width="6.0" stroke-linecap="round" stroke-linejoin="round" />
<path d="M 188.75 96.25 L 190.0 96.25 L 191.25 96.25 L 192.5 103.75 L 185.0 125.0 L 172.5 146.25 L 158.75 156.25 L 147.5 158.75 L 145.0 158.75 L 145.0 158.75 L 152.5 156.25 L 166.25 151.25 L 182.5 146.25 L 196.25 142.5 L 203.75 140.0 L 205.0 138.75 L 202.5 140.0 " stroke="black" fill="none" stroke-width="6.0" stroke-linecap="round" stroke-linejoin="round" />
<path d="M 131.25 171.25 L 131.25 172.5 L 130.0 175.0 L 131.25 186.25 L 138.75 207.5 L 148.75 225.0 L 153.75 231.25 L 155.0 228.75 L 152.5 222.5 " stroke="black" fill="none" stroke-width="6.0" stroke-linecap="round" stroke-linejoin="round" />
<path d="M 135.0 188.75 L 133.75 188.75 L 133.75 187.5 L 138.75 183.75 L 157.5 176.25 L 188.75 167.5 L 212.5 163.75 L 221.25 167.5 L 218.75 178.75 L 208.75 191.25 L 196.25 203.75 L 182.5 210.0 L 170.0 212.5 " stroke="black" fill="none" stroke-width="6.0" stroke-linecap="round" stroke-linejoin="round" />
<path d="M 147.5 205.0 L 145.0 205.0 L 145.0 205.0 L 155.0 200.0 L 178.75 190.0 L 200.0 180.0 L 207.5 173.75 L 202.5 173.75 L 200.0 173.75 " stroke="black" fill="none" stroke-width="6.0" stroke-linecap="round" stroke-linejoin="round" />
<path d="M 180.0 175.0 L 177.5 177.5 L 176.25 183.75 L 173.75 198.75 L 167.5 216.25 L 158.75 228.75 L 152.5 233.75 L 151.25 233.75 L 152.5 230.0 L 165.0 223.75 L 182.5 215.0 L 197.5 206.25 L 208.75 200.0 L 211.25 197.5 L 206.25 198.75 L 200.0 201.25 L 192.5 205.0 L 185.0 212.5 L 175.0 226.25 L 161.25 245.0 L 148.75 260.0 L 141.25 268.75 L 138.75 270.0 L 140.0 265.0 " stroke="black" fill="none" stroke-width="6.0" stroke-linecap="round" stroke-linejoin="round" />
<path d="M 198.75 221.25 L 198.75 221.25 L 201.25 225.0 L 207.5 232.5 L 220.0 243.75 L 232.5 255.0 L 242.5 262.5 L 246.25 265.0 L 246.25 265.0 L 245.0 265.0 L 241.25 265.0 " stroke="black" fill="none" stroke-width="6.0" stroke-linecap="round" stroke-linejoin="round" />
</svg>