<svg xmlns="http://www.w3.org/2000/svg" width="300" height="300" viewBox="0 0 300 300">
<path d="M 98.75 86.25 L 97.5 88.75 L 97.5 90.0 L 113.75 90.0 L 142.5 87.5 L 170.0 81.25 L 188.75 76.25 L 187.5 76.25 " stroke="black" fill="none" stroke-width="6.0" stroke-linecap="round" stroke-linejoin="round" />
<path d="M 118.75 126.25 L 115.0 136.25 L 115.0 151.25 L 122.5 165.0 L 132.5 171.25 L 135.0 168.75 " stroke="black" fill="none" stroke-width="6.0" stroke-linecap="round" stroke-linejoin="round" />
<path d="M 198.75 92.5 L 195.0 97.5 L 186.25 111.25 L 170.0 136.25 L 151.25 158.75 L 133.75 177.5 L 110.0 190.0 L 92.5 197.5 L 83.75 202.5 L 83.75 203.75 L 98.75 203.75 L 131.25 197.5 L 168.75 186.25 L 206.25 173.75 L 228.75 165.0 L 233.75 162.5 L 222.5 162.5 L 205.0 161.25 L 200.0 160.0 " stroke="black" fill="none" stroke-width="6.0" stroke-linecap="round" stroke-linejoin="round" />
<path d="M 152.5 103.75 L 152.5 102.5 L 151.25 97.5 L 151.25 95.0 L 153.75 100.0 L 160.0 132.5 L 163.75 190.0 L 163.75 240.0 L 160.0 265.0 L 156.25 273.75 L 152.5 275.0 " stroke="black" fill="none" stroke-width="6.0" stroke-linecap="round" stroke-linejoin="round" />
</svg>