<svg xmlns="http://www.w3.org/2000/svg" width="300" height="300" viewBox="0 0 300 300">
<path d="M 121.25 70.0 L 122.5 70.0 L 128.75 70.0 L 142.5 70.0 L 160.0 67.5 L 175.0 66.25 L 182.5 66.25 L 178.75 68.75 " stroke="black" fill="none" stroke-width="6.0" stroke-linecap="round" stroke-linejoin="round" />
<path d="M 93.75 103.75 L 93.75 105.0 L 93.75 105.0 L 112.5 98.75 L 147.5 86.25 L 175.0 75.0 L 182.5 71.25 L 180.0 71.25 L 165.0 75.0 L 156.25 77.5 " stroke="black" fill="none" stroke-width="6.0" stroke-linecap="round" stroke-linejoin="round" />
<path d="M 102.5 101.25 L 101.25 102.5 L 100.0 113.75 L 100.0 137.5 L 98.75 173.75 L 92.5 206.25 L 86.25 220.0 L 78.75 223.75 L 77.5 221.25 " stroke="black" fill="none" stroke-width="6.0" stroke-linecap="round" stroke-linejoin="round" />
<path d="M 137.5 133.75 L 137.5 133.75 L 138.75 132.5 L 140.0 133.75 L 137.5 146.25 L 128.75 172.5 L 118.75 193.75 L 115.0 196.25 L 115.0 187.5 L 121.25 173.75 L 125.0 167.5 L 135.0 157.5 L 138.75 165.0 L 137.5 187.5 L 132.5 208.75 L 127.5 221.25 L 125.0 221.25 " stroke="black" fill="none" stroke-width="6.0" stroke-linecap="round" stroke-linejoin="round" />
<path d="M 152.5 155.0 L 153.75 155.0 L 161.25 155.0 L 188.75 148.75 L 216.25 136.25 L 235.0 123.75 L 241.25 116.25 L 237.5 113.75 L 227.5 113.75 L 218.75 116.25 L 210.0 117.5 L 205.0 117.5 L 202.5 113.75 L 202.5 111.25 L 203.75 111.25 L 206.25 121.25 L 207.5 148.75 L 210.0 192.5 L 211.25 226.25 L 211.25 241.25 L 210.0 245.0 L 206.25 245.0 L 200.0 243.75 L 191.25 240.0 L 177.5 233.75 L 170.0 228.75 " stroke="black" fill="none" stroke-width="6.0" stroke-linecap="round" stroke-linejoin="round" />
<path d="M 156.25 185.0 L 156.25 185.0 L 160.0 186.25 L 172.5 195.0 L 185.0 205.0 " stroke="black" fill="none" stroke-width="6.0" stroke-linecap="round" stroke-linejoin="round" />
</svg>