<svg xmlns="http://www.w3.org/2000/svg" width="300" height="300" viewBox="0 0 300 300">
<path d="M 142.5 78.75 L 142.5 78.75 L 142.5 78.75 L 145.0 78.75 L 156.25 80.0 L 171.25 81.25 L 180.0 81.25 " stroke="black" fill="none" stroke-width="6.0" stroke-linecap="round" stroke-linejoin="round" />
<path d="M 93.75 111.25 L 92.5 115.0 L 95.0 116.25 L 113.75 111.25 L 145.0 101.25 L 175.0 90.0 L 193.75 82.5 L 193.75 81.25 " stroke="black" fill="none" stroke-width="6.0" stroke-linecap="round" stroke-linejoin="round" />
<path d="M 116.25 118.75 L 113.75 125.0 L 110.0 147.5 L 106.25 187.5 L 98.75 225.0 L 93.75 241.25 L 87.5 243.75 L 82.5 240.0 L 80.0 233.75 " stroke="black" fill="none" stroke-width="6.0" stroke-linecap="round" stroke-linejoin="round" />
<path d="M 110.0 148.75 L 112.5 151.25 L 122.5 152.5 L 146.25 148.75 L 171.25 142.5 L 196.25 133.75 L 208.75 126.25 L 208.75 122.5 L 203.75 122.5 " stroke="black" fill="none" stroke-width="6.0" stroke-linecap="round" stroke-linejoin="round" />
<path d="M 147.5 125.0 L 146.25 126.25 L 145.0 135.0 L 147.5 156.25 L 150.0 181.25 L 153.75 191.25 L 160.0 188.75 L 170.0 178.75 L 180.0 165.0 L 188.75 151.25 L 193.75 137.5 L 195.0 127.5 L 193.75 121.25 L 192.5 121.25 L 192.5 122.5 L 192.5 133.75 L 191.25 150.0 L 190.0 167.5 L 187.5 180.0 " stroke="black" fill="none" stroke-width="6.0" stroke-linecap="round" stroke-linejoin="round" />
<path d="M 128.75 208.75 L 127.5 208.75 L 126.25 208.75 L 123.75 208.75 L 123.75 213.75 L 125.0 223.75 L 126.25 236.25 L 126.25 241.25 " stroke="black" fill="none" stroke-width="6.0" stroke-linecap="round" stroke-linejoin="round" />
<path d="M 156.25 206.25 L 157.5 208.75 L 160.0 213.75 L 163.75 223.75 L 168.75 236.25 L 171.25 243.75 L 171.25 246.25 " stroke="black" fill="none" stroke-width="6.0" stroke-linecap="round" stroke-linejoin="round" />
<path d="M 192.5 205.0 L 192.5 205.0 L 192.5 205.0 L 192.5 206.25 L 195.0 211.25 L 198.75 218.75 L 201.25 222.5 " stroke="black" fill="none" stroke-width="6.0" stroke-linecap="round" stroke-linejoin="round" />
<path d="M 233.75 198.75 L 235.0 198.75 L 238.75 198.75 L 243.75 206.25 L 248.75 222.5 L 251.25 243.75 " stroke="black" fill="none" stroke-width="6.0" stroke-linecap="round" stroke-linejoin="round" />
</svg>