<svg xmlns="http://www.w3.org/2000/svg" width="300" height="300" viewBox="0 0 300 300">
<path d="M 96.25 103.75 L 95.0 105.0 L 90.0 107.5 L 87.5 107.5 L 90.0 107.5 L 98.75 103.75 L 111.25 98.75 L 121.25 95.0 L 125.0 95.0 L 120.0 105.0 L 108.75 122.5 L 100.0 135.0 L 97.5 141.25 L 101.25 141.25 L 111.25 137.5 L 122.5 133.75 L 128.75 132.5 L 130.0 138.75 L 125.0 160.0 L 116.25 190.0 L 110.0 212.5 L 105.0 225.0 L 102.5 226.25 L 100.0 223.75 L 97.5 218.75 " stroke="black" fill="none" stroke-width="6.0" stroke-linecap="round" stroke-linejoin="round" />
<path d="M 78.75 181.25 L 78.75 178.75 L 77.5 173.75 L 77.5 173.75 L 82.5 176.25 L 93.75 183.75 L 115.0 195.0 L 146.25 206.25 L 186.25 212.5 L 218.75 218.75 L 245.0 223.75 L 260.0 228.75 L 263.75 228.75 L 261.25 225.0 L 260.0 223.75 " stroke="black" fill="none" stroke-width="6.0" stroke-linecap="round" stroke-linejoin="round" />
<path d="M 176.25 81.25 L 176.25 81.25 L 172.5 82.5 L 173.75 82.5 L 183.75 83.75 L 200.0 83.75 L 217.5 81.25 L 231.25 80.0 L 232.5 81.25 L 226.25 83.75 " stroke="black" fill="none" stroke-width="6.0" stroke-linecap="round" stroke-linejoin="round" />
<path d="M 157.5 158.75 L 156.25 161.25 L 156.25 162.5 L 171.25 160.0 L 198.75 145.0 L 225.0 126.25 L 237.5 116.25 L 235.0 111.25 " stroke="black" fill="none" stroke-width="6.0" stroke-linecap="round" stroke-linejoin="round" />
<path d="M 195.0 108.75 L 196.25 112.5 L 198.75 118.75 L 203.75 140.0 L 206.25 170.0 L 205.0 191.25 L 200.0 195.0 L 195.0 196.25 L 191.25 195.0 L 190.0 193.75 L 192.5 193.75 L 201.25 193.75 L 213.75 191.25 L 231.25 185.0 L 245.0 177.5 L 248.75 172.5 " stroke="black" fill="none" stroke-width="6.0" stroke-linecap="round" stroke-linejoin="round" />
</svg>