<svg xmlns="http://www.w3.org/2000/svg" width="300" height="300" viewBox="0 0 300 300">
<path d="M 145.0 72.5 L 145.0 72.5 L 145.0 73.75 L 150.0 73.75 L 165.0 73.75 L 181.25 73.75 L 190.0 72.5 L 190.0 72.5 " stroke="black" fill="none" stroke-width="6.0" stroke-linecap="round" stroke-linejoin="round" />
<path d="M 102.5 106.25 L 100.0 110.0 L 103.75 110.0 L 121.25 106.25 L 152.5 98.75 L 182.5 88.75 L 200.0 82.5 L 200.0 80.0 L 195.0 81.25 " stroke="black" fill="none" stroke-width="6.0" stroke-linecap="round" stroke-linejoin="round" />
<path d="M 103.75 122.5 L 97.5 138.75 L 95.0 175.0 L 91.25 226.25 L 87.5 252.5 L 82.5 271.25 L 78.75 272.5 L 76.25 266.25 " stroke="black" fill="none" stroke-width="6.0" stroke-linecap="round" stroke-linejoin="round" />
<path d="M 131.25 143.75 L 130.0 145.0 L 125.0 148.75 L 125.0 148.75 L 131.25 148.75 L 147.5 146.25 L 156.25 143.75 L 161.25 142.5 L 158.75 146.25 L 146.25 162.5 L 136.25 176.25 L 130.0 183.75 L 131.25 183.75 L 138.75 181.25 L 147.5 176.25 L 155.0 172.5 L 160.0 171.25 L 160.0 182.5 L 152.5 203.75 L 143.75 225.0 L 133.75 241.25 L 125.0 245.0 L 122.5 245.0 " stroke="black" fill="none" stroke-width="6.0" stroke-linecap="round" stroke-linejoin="round" />
<path d="M 111.25 198.75 L 111.25 198.75 L 110.0 198.75 L 111.25 198.75 L 126.25 206.25 L 153.75 221.25 L 187.5 238.75 L 215.0 252.5 L 237.5 260.0 L 255.0 265.0 L 260.0 265.0 " stroke="black" fill="none" stroke-width="6.0" stroke-linecap="round" stroke-linejoin="round" />
<path d="M 187.5 142.5 L 185.0 142.5 L 181.25 145.0 L 181.25 146.25 L 191.25 146.25 L 205.0 146.25 L 221.25 143.75 L 232.5 137.5 L 235.0 136.25 " stroke="black" fill="none" stroke-width="6.0" stroke-linecap="round" stroke-linejoin="round" />
<path d="M 182.5 196.25 L 181.25 202.5 L 187.5 202.5 L 205.0 195.0 L 226.25 180.0 L 242.5 163.75 L 247.5 153.75 L 245.0 153.75 " stroke="black" fill="none" stroke-width="6.0" stroke-linecap="round" stroke-linejoin="round" />
<path d="M 208.75 156.25 L 208.75 155.0 L 208.75 153.75 L 210.0 152.5 L 212.5 158.75 L 216.25 176.25 L 217.5 200.0 L 216.25 213.75 L 211.25 220.0 L 207.5 220.0 L 206.25 220.0 L 205.0 218.75 L 210.0 218.75 L 221.25 216.25 L 235.0 213.75 L 250.0 208.75 L 260.0 203.75 L 262.5 200.0 " stroke="black" fill="none" stroke-width="6.0" stroke-linecap="round" stroke-linejoin="round" />
</svg>