<svg xmlns="http://www.w3.org/2000/svg" width="300" height="300" viewBox="0 0 300 300">
<path d="M 138.75 68.75 L 138.75 68.75 L 138.75 68.75 L 141.25 68.75 L 147.5 68.75 L 158.75 70.0 L 167.5 71.25 L 168.75 72.5 " stroke="black" fill="none" stroke-width="6.0" stroke-linecap="round" stroke-linejoin="round" />
<path d="M 86.25 106.25 L 83.75 106.25 L 82.5 106.25 L 95.0 103.75 L 122.5 96.25 L 161.25 86.25 L 190.0 77.5 L 198.75 75.0 L 193.75 76.25 " stroke="black" fill="none" stroke-width="6.0" stroke-linecap="round" stroke-linejoin="round" />
<path d="M 112.5 103.75 L 112.5 107.5 L 110.0 123.75 L 108.75 158.75 L 102.5 200.0 L 95.0 223.75 L 88.75 236.25 L 81.25 235.0 L 77.5 226.25 " stroke="black" fill="none" stroke-width="6.0" stroke-linecap="round" stroke-linejoin="round" />
<path d="M 125.0 131.25 L 125.0 131.25 L 125.0 131.25 L 136.25 130.0 L 165.0 122.5 L 195.0 110.0 L 206.25 103.75 L 203.75 101.25 L 193.75 101.25 " stroke="black" fill="none" stroke-width="6.0" stroke-linecap="round" stroke-linejoin="round" />
<path d="M 143.75 95.0 L 143.75 96.25 L 142.5 101.25 L 143.75 123.75 L 145.0 152.5 L 147.5 165.0 L 150.0 165.0 L 155.0 156.25 L 162.5 141.25 L 171.25 126.25 L 178.75 112.5 L 183.75 106.25 L 183.75 112.5 L 178.75 135.0 L 170.0 156.25 L 162.5 173.75 L 156.25 181.25 L 150.0 182.5 L 143.75 183.75 L 137.5 186.25 L 137.5 187.5 L 137.5 187.5 L 142.5 187.5 L 153.75 185.0 L 170.0 176.25 L 191.25 165.0 L 205.0 157.5 L 208.75 156.25 L 206.25 163.75 L 195.0 181.25 L 178.75 201.25 L 155.0 223.75 L 132.5 243.75 L 113.75 255.0 L 103.75 253.75 " stroke="black" fill="none" stroke-width="6.0" stroke-linecap="round" stroke-linejoin="round" />
<path d="M 131.25 195.0 L 130.0 193.75 L 127.5 192.5 L 126.25 192.5 L 127.5 192.5 L 131.25 195.0 L 137.5 198.75 L 143.75 203.75 L 151.25 207.5 L 161.25 215.0 L 176.25 226.25 L 197.5 237.5 L 223.75 246.25 L 247.5 252.5 L 251.25 252.5 " stroke="black" fill="none" stroke-width="6.0" stroke-linecap="round" stroke-linejoin="round" />
</svg>