<svg xmlns="http://www.w3.org/2000/svg" width="300" height="300" viewBox="0 0 300 300">
<path d="M 111.25 97.5 L 108.75 97.5 L 102.5 100.0 L 102.5 100.0 L 116.25 98.75 L 138.75 95.0 L 158.75 88.75 L 172.5 82.5 L 173.75 80.0 " stroke="black" fill="none" stroke-width="6.0" stroke-linecap="round" stroke-linejoin="round" />
<path d="M 136.25 77.5 L 133.75 75.0 L 132.5 73.75 L 132.5 73.75 L 137.5 81.25 L 141.25 92.5 L 142.5 107.5 L 138.75 123.75 L 133.75 130.0 " stroke="black" fill="none" stroke-width="6.0" stroke-linecap="round" stroke-linejoin="round" />
<path d="M 88.75 145.0 L 85.0 146.25 L 75.0 150.0 L 70.0 151.25 L 75.0 150.0 L 95.0 143.75 L 126.25 135.0 L 165.0 121.25 L 198.75 108.75 L 207.5 102.5 L 202.5 101.25 L 197.5 101.25 " stroke="black" fill="none" stroke-width="6.0" stroke-linecap="round" stroke-linejoin="round" />
<path d="M 140.0 135.0 L 137.5 140.0 L 135.0 148.75 L 135.0 158.75 L 135.0 170.0 L 133.75 177.5 L 133.75 178.75 " stroke="black" fill="none" stroke-width="6.0" stroke-linecap="round" stroke-linejoin="round" />
<path d="M 158.75 136.25 L 161.25 135.0 L 165.0 133.75 L 168.75 138.75 L 168.75 148.75 L 162.5 162.5 L 152.5 176.25 L 138.75 186.25 L 118.75 195.0 L 105.0 198.75 L 101.25 200.0 L 107.5 198.75 L 127.5 195.0 L 151.25 186.25 L 177.5 176.25 L 197.5 167.5 L 205.0 163.75 L 198.75 165.0 L 188.75 170.0 " stroke="black" fill="none" stroke-width="6.0" stroke-linecap="round" stroke-linejoin="round" />
<path d="M 100.0 243.75 L 100.0 246.25 L 107.5 246.25 L 136.25 236.25 L 171.25 220.0 L 202.5 206.25 L 216.25 197.5 L 220.0 191.25 L 211.25 190.0 L 198.75 190.0 " stroke="black" fill="none" stroke-width="6.0" stroke-linecap="round" stroke-linejoin="round" />
<path d="M 166.25 182.5 L 166.25 181.25 L 166.25 181.25 L 166.25 181.25 L 166.25 197.5 L 167.5 242.5 L 163.75 290.0 L 158.75 311.25 L 153.75 318.75 " stroke="black" fill="none" stroke-width="6.0" stroke-linecap="round" stroke-linejoin="round" />
</svg>