<svg xmlns="http://www.w3.org/2000/svg" width="300" height="300" viewBox="0 0 300 300">
<path d="M 91.25 97.5 L 91.25 97.5 L 91.25 96.25 L 91.25 96.25 L 91.25 101.25 L 87.5 118.75 L 78.75 145.0 L 65.0 161.25 L 57.5 163.75 " stroke="black" fill="none" stroke-width="6.0" stroke-linecap="round" stroke-linejoin="round" />
<path d="M 106.25 132.5 L 105.0 136.25 L 102.5 142.5 L 97.5 155.0 L 90.0 173.75 L 80.0 190.0 L 68.75 195.0 L 67.5 195.0 " stroke="black" fill="none" stroke-width="6.0" stroke-linecap="round" stroke-linejoin="round" />
<path d="M 100.0 163.75 L 101.25 168.75 L 105.0 183.75 L 105.0 207.5 L 98.75 232.5 L 92.5 245.0 " stroke="black" fill="none" stroke-width="6.0" stroke-linecap="round" stroke-linejoin="round" />
<path d="M 152.5 61.25 L 152.5 61.25 L 153.75 61.25 L 162.5 62.5 L 178.75 63.75 L 191.25 63.75 L 193.75 65.0 L 186.25 67.5 L 180.0 70.0 " stroke="black" fill="none" stroke-width="6.0" stroke-linecap="round" stroke-linejoin="round" />
<path d="M 140.0 91.25 L 138.75 92.5 L 137.5 93.75 L 146.25 92.5 L 163.75 85.0 L 186.25 73.75 L 201.25 63.75 L 202.5 60.0 L 192.5 63.75 L 190.0 65.0 " stroke="black" fill="none" stroke-width="6.0" stroke-linecap="round" stroke-linejoin="round" />
<path d="M 158.75 88.75 L 155.0 93.75 L 153.75 101.25 L 156.25 111.25 L 158.75 118.75 L 160.0 121.25 L 160.0 117.5 " stroke="black" fill="none" stroke-width="6.0" stroke-linecap="round" stroke-linejoin="round" />
<path d="M 182.5 82.5 L 182.5 81.25 L 182.5 83.75 L 177.5 96.25 L 170.0 110.0 " stroke="black" fill="none" stroke-width="6.0" stroke-linecap="round" stroke-linejoin="round" />
<path d="M 143.75 132.5 L 142.5 131.25 L 140.0 130.0 L 140.0 130.0 L 138.75 132.5 L 138.75 146.25 L 137.5 165.0 L 135.0 178.75 L 133.75 181.25 L 133.75 173.75 L 135.0 161.25 L 137.5 148.75 L 138.75 141.25 L 140.0 137.5 L 140.0 136.25 L 143.75 136.25 L 156.25 136.25 L 182.5 130.0 L 205.0 123.75 L 215.0 120.0 L 215.0 120.0 L 207.5 126.25 L 196.25 136.25 L 183.75 146.25 L 172.5 153.75 " stroke="black" fill="none" stroke-width="6.0" stroke-linecap="round" stroke-linejoin="round" />
<path d="M 157.5 163.75 L 157.5 163.75 L 157.5 163.75 L 158.75 163.75 L 170.0 163.75 L 185.0 163.75 L 195.0 162.5 L 197.5 162.5 L 187.5 167.5 L 180.0 171.25 " stroke="black" fill="none" stroke-width="6.0" stroke-linecap="round" stroke-linejoin="round" />
<path d="M 128.75 203.75 L 125.0 206.25 L 123.75 207.5 L 132.5 206.25 L 151.25 197.5 L 178.75 182.5 L 203.75 167.5 L 211.25 160.0 L 210.0 160.0 L 202.5 163.75 L 190.0 176.25 L 175.0 193.75 L 157.5 216.25 L 145.0 237.5 L 142.5 242.5 L 143.75 237.5 " stroke="black" fill="none" stroke-width="6.0" stroke-linecap="round" stroke-linejoin="round" />
<path d="M 177.5 193.75 L 177.5 192.5 L 178.75 190.0 L 182.5 190.0 L 188.75 190.0 L 196.25 192.5 L 205.0 197.5 L 208.75 202.5 L 210.0 210.0 L 207.5 222.5 L 200.0 235.0 L 193.75 245.0 L 187.5 251.25 L 185.0 252.5 L 183.75 252.5 L 181.25 252.5 L 178.75 251.25 L 173.75 251.25 L 166.25 250.0 L 161.25 248.75 " stroke="black" fill="none" stroke-width="6.0" stroke-linecap="round" stroke-linejoin="round" />
</svg>