<svg xmlns="http://www.w3.org/2000/svg" width="300" height="300" viewBox="0 0 300 300">
<path d="M 76.25 96.25 L 76.25 97.5 L 75.0 98.75 L 75.0 100.0 L 82.5 101.25 L 93.75 102.5 L 102.5 105.0 L 105.0 108.75 L 98.75 116.25 L 87.5 125.0 L 75.0 133.75 L 68.75 137.5 L 70.0 137.5 L 82.5 137.5 L 95.0 133.75 L 105.0 132.5 L 110.0 135.0 L 106.25 146.25 L 95.0 162.5 L 82.5 177.5 L 71.25 186.25 L 68.75 187.5 L 73.75 183.75 L 87.5 176.25 L 101.25 168.75 L 115.0 166.25 L 123.75 180.0 L 120.0 208.75 L 107.5 241.25 L 95.0 257.5 L 85.0 260.0 L 76.25 253.75 L 72.5 230.0 L 71.25 215.0 " stroke="black" fill="none" stroke-width="6.0" stroke-linecap="round" stroke-linejoin="round" />
<path d="M 151.25 80.0 L 150.0 80.0 L 147.5 82.5 L 148.75 106.25 L 151.25 147.5 L 155.0 170.0 L 158.75 172.5 L 157.5 163.75 " stroke="black" fill="none" stroke-width="6.0" stroke-linecap="round" stroke-linejoin="round" />
<path d="M 155.0 103.75 L 152.5 97.5 L 152.5 93.75 L 168.75 86.25 L 182.5 82.5 L 193.75 80.0 L 196.25 78.75 L 187.5 83.75 L 185.0 85.0 " stroke="black" fill="none" stroke-width="6.0" stroke-linecap="round" stroke-linejoin="round" />
<path d="M 158.75 110.0 L 153.75 115.0 L 152.5 117.5 L 156.25 118.75 L 167.5 115.0 L 181.25 107.5 L 192.5 98.75 L 196.25 95.0 L 188.75 98.75 L 175.0 112.5 L 161.25 131.25 L 152.5 145.0 L 153.75 147.5 L 163.75 146.25 L 180.0 136.25 L 193.75 125.0 L 200.0 116.25 L 193.75 115.0 L 182.5 122.5 " stroke="black" fill="none" stroke-width="6.0" stroke-linecap="round" stroke-linejoin="round" />
<path d="M 120.0 186.25 L 118.75 188.75 L 118.75 190.0 L 128.75 187.5 L 153.75 171.25 L 188.75 147.5 L 210.0 132.5 L 211.25 128.75 L 201.25 132.5 L 186.25 141.25 L 167.5 150.0 L 152.5 166.25 L 147.5 195.0 L 150.0 226.25 L 157.5 247.5 L 167.5 252.5 L 181.25 247.5 L 197.5 231.25 L 212.5 208.75 L 222.5 190.0 L 227.5 176.25 L 223.75 168.75 L 211.25 168.75 L 193.75 175.0 L 170.0 188.75 L 153.75 201.25 L 150.0 205.0 L 152.5 205.0 L 157.5 202.5 L 161.25 200.0 L 163.75 197.5 L 166.25 196.25 L 167.5 195.0 L 168.75 195.0 L 168.75 195.0 L 168.75 195.0 L 167.5 195.0 L 167.5 196.25 L 176.25 200.0 L 196.25 210.0 L 225.0 225.0 L 253.75 238.75 L 268.75 242.5 L 270.0 242.5 " stroke="black" fill="none" stroke-width="6.0" stroke-linecap="round" stroke-linejoin="round" />
</svg>