<svg xmlns="http://www.w3.org/2000/svg" width="300" height="300" viewBox="0 0 300 300">
<path d="M 91.25 82.5 L 91.25 80.0 L 91.25 77.5 L 91.25 76.25 L 91.25 76.25 L 91.25 80.0 L 87.5 93.75 L 78.75 116.25 L 68.75 135.0 L 60.0 143.75 L 57.5 143.75 " stroke="black" fill="none" stroke-width="6.0" stroke-linecap="round" stroke-linejoin="round" />
<path d="M 98.75 112.5 L 100.0 115.0 L 100.0 121.25 L 92.5 133.75 L 82.5 152.5 L 67.5 173.75 L 52.5 188.75 L 48.75 191.25 " stroke="black" fill="none" stroke-width="6.0" stroke-linecap="round" stroke-linejoin="round" />
<path d="M 91.25 150.0 L 92.5 150.0 L 93.75 152.5 L 93.75 160.0 L 90.0 186.25 L 82.5 223.75 L 76.25 252.5 L 73.75 257.5 " stroke="black" fill="none" stroke-width="6.0" stroke-linecap="round" stroke-linejoin="round" />
<path d="M 157.5 85.0 L 160.0 82.5 L 157.5 81.25 L 152.5 85.0 L 147.5 97.5 L 142.5 113.75 L 141.25 126.25 L 147.5 130.0 L 162.5 125.0 L 182.5 111.25 L 195.0 101.25 L 198.75 97.5 L 196.25 100.0 L 183.75 113.75 L 167.5 133.75 L 152.5 151.25 L 143.75 161.25 L 143.75 162.5 L 152.5 158.75 L 166.25 150.0 L 180.0 141.25 L 190.0 135.0 L 192.5 135.0 L 185.0 145.0 L 171.25 160.0 L 158.75 175.0 L 147.5 187.5 L 141.25 196.25 L 140.0 197.5 L 145.0 196.25 L 157.5 192.5 L 176.25 186.25 L 196.25 181.25 L 210.0 181.25 L 212.5 188.75 L 205.0 202.5 L 191.25 218.75 L 172.5 231.25 L 152.5 238.75 L 137.5 240.0 L 128.75 236.25 L 123.75 227.5 L 123.75 216.25 L 126.25 207.5 L 131.25 202.5 L 138.75 201.25 L 148.75 201.25 L 162.5 208.75 L 185.0 223.75 L 206.25 237.5 L 222.5 245.0 L 230.0 245.0 L 227.5 238.75 " stroke="black" fill="none" stroke-width="6.0" stroke-linecap="round" stroke-linejoin="round" />
<path d="M 218.75 137.5 L 220.0 137.5 L 221.25 138.75 L 223.75 141.25 L 228.75 148.75 L 236.25 160.0 L 237.5 162.5 " stroke="black" fill="none" stroke-width="6.0" stroke-linecap="round" stroke-linejoin="round" />
</svg>