<svg xmlns="http://www.w3.org/2000/svg" width="300" height="300" viewBox="0 0 300 300">
<path d="M 91.25 102.5 L 88.75 103.75 L 85.0 106.25 L 77.5 118.75 L 63.75 143.75 L 48.75 163.75 L 43.75 165.0 L 43.75 162.5 " stroke="black" fill="none" stroke-width="6.0" stroke-linecap="round" stroke-linejoin="round" />
<path d="M 96.25 131.25 L 96.25 135.0 L 92.5 146.25 L 82.5 163.75 L 67.5 185.0 L 56.25 193.75 L 52.5 191.25 L 57.5 180.0 L 68.75 165.0 L 80.0 157.5 L 87.5 157.5 L 90.0 178.75 L 85.0 208.75 L 75.0 235.0 L 68.75 243.75 L 67.5 238.75 " stroke="black" fill="none" stroke-width="6.0" stroke-linecap="round" stroke-linejoin="round" />
<path d="M 126.25 82.5 L 125.0 82.5 L 123.75 81.25 L 122.5 81.25 L 121.25 86.25 L 121.25 97.5 L 127.5 108.75 L 138.75 115.0 L 152.5 112.5 L 165.0 103.75 L 173.75 93.75 L 176.25 87.5 L 176.25 82.5 L 173.75 80.0 L 171.25 78.75 L 170.0 78.75 L 170.0 78.75 L 170.0 78.75 L 170.0 78.75 L 170.0 78.75 L 172.5 78.75 L 175.0 81.25 L 178.75 85.0 L 181.25 92.5 L 183.75 101.25 L 183.75 105.0 " stroke="black" fill="none" stroke-width="6.0" stroke-linecap="round" stroke-linejoin="round" />
<path d="M 151.25 68.75 L 151.25 68.75 L 151.25 67.5 L 151.25 67.5 L 151.25 75.0 L 152.5 98.75 L 151.25 125.0 L 150.0 132.5 " stroke="black" fill="none" stroke-width="6.0" stroke-linecap="round" stroke-linejoin="round" />
<path d="M 116.25 146.25 L 110.0 150.0 L 108.75 150.0 L 121.25 150.0 L 138.75 146.25 L 156.25 140.0 L 168.75 132.5 L 171.25 128.75 " stroke="black" fill="none" stroke-width="6.0" stroke-linecap="round" stroke-linejoin="round" />
<path d="M 140.0 162.5 L 138.75 162.5 L 137.5 163.75 L 135.0 165.0 L 131.25 171.25 L 125.0 183.75 L 120.0 192.5 L 118.75 195.0 L 122.5 195.0 L 133.75 188.75 L 143.75 181.25 L 151.25 176.25 L 153.75 173.75 L 152.5 177.5 L 143.75 188.75 L 132.5 201.25 L 123.75 211.25 L 120.0 216.25 L 123.75 215.0 L 137.5 210.0 L 152.5 202.5 L 165.0 196.25 L 172.5 193.75 L 173.75 192.5 L 170.0 196.25 L 160.0 205.0 L 150.0 213.75 L 141.25 220.0 L 136.25 222.5 L 133.75 221.25 L 135.0 216.25 L 137.5 212.5 L 138.75 210.0 L 138.75 208.75 L 141.25 211.25 L 143.75 227.5 L 146.25 250.0 L 146.25 263.75 L 146.25 267.5 L 142.5 265.0 L 136.25 258.75 L 125.0 253.75 L 122.5 251.25 " stroke="black" fill="none" stroke-width="6.0" stroke-linecap="round" stroke-linejoin="round" />
<path d="M 100.0 225.0 L 98.75 225.0 L 97.5 225.0 L 96.25 226.25 L 101.25 233.75 L 113.75 243.75 L 127.5 251.25 L 137.5 252.5 " stroke="black" fill="none" stroke-width="6.0" stroke-linecap="round" stroke-linejoin="round" />
<path d="M 162.5 222.5 L 163.75 222.5 L 165.0 222.5 L 167.5 223.75 L 172.5 228.75 L 180.0 233.75 L 183.75 236.25 " stroke="black" fill="none" stroke-width="6.0" stroke-linecap="round" stroke-linejoin="round" />
<path d="M 211.25 96.25 L 211.25 96.25 L 211.25 96.25 L 210.0 96.25 L 206.25 111.25 L 198.75 135.0 L 196.25 143.75 L 201.25 145.0 L 216.25 135.0 L 231.25 122.5 L 242.5 108.75 L 248.75 98.75 L 248.75 96.25 " stroke="black" fill="none" stroke-width="6.0" stroke-linecap="round" stroke-linejoin="round" />
<path d="M 213.75 143.75 L 213.75 145.0 L 212.5 155.0 L 213.75 170.0 L 213.75 191.25 L 205.0 215.0 L 193.75 230.0 L 177.5 238.75 L 158.75 242.5 L 155.0 242.5 " stroke="black" fill="none" stroke-width="6.0" stroke-linecap="round" stroke-linejoin="round" />
<path d="M 181.25 181.25 L 181.25 180.0 L 182.5 180.0 L 187.5 182.5 L 202.5 197.5 L 223.75 222.5 L 247.5 246.25 L 262.5 257.5 L 272.5 262.5 L 277.5 262.5 " stroke="black" fill="none" stroke-width="6.0" stroke-linecap="round" stroke-linejoin="round" />
</svg>