<svg xmlns="http://www.w3.org/2000/svg" width="300" height="300" viewBox="0 0 300 300">
<path d="M 62.5 135.0 L 62.5 133.75 L 61.25 133.75 L 61.25 133.75 L 61.25 143.75 L 62.5 158.75 L 63.75 171.25 L 62.5 172.5 " stroke="black" fill="none" stroke-width="6.0" stroke-linecap="round" stroke-linejoin="round" />
<path d="M 88.75 105.0 L 88.75 106.25 L 88.75 112.5 L 93.75 142.5 L 96.25 191.25 L 97.5 218.75 L 91.25 246.25 L 81.25 253.75 L 71.25 251.25 " stroke="black" fill="none" stroke-width="6.0" stroke-linecap="round" stroke-linejoin="round" />
<path d="M 95.0 165.0 L 93.75 165.0 L 93.75 167.5 L 96.25 168.75 L 108.75 168.75 L 122.5 162.5 L 126.25 158.75 " stroke="black" fill="none" stroke-width="6.0" stroke-linecap="round" stroke-linejoin="round" />
<path d="M 157.5 103.75 L 155.0 103.75 L 152.5 105.0 L 156.25 105.0 L 171.25 107.5 L 193.75 112.5 L 208.75 120.0 L 213.75 127.5 L 205.0 140.0 L 187.5 153.75 L 166.25 166.25 L 146.25 178.75 L 137.5 185.0 L 140.0 185.0 L 153.75 177.5 L 180.0 165.0 L 205.0 152.5 L 225.0 141.25 L 228.75 135.0 " stroke="black" fill="none" stroke-width="6.0" stroke-linecap="round" stroke-linejoin="round" />
<path d="M 171.25 86.25 L 171.25 86.25 L 172.5 88.75 L 176.25 116.25 L 177.5 168.75 L 172.5 213.75 L 163.75 236.25 L 145.0 258.75 L 128.75 263.75 L 116.25 257.5 L 113.75 253.75 " stroke="black" fill="none" stroke-width="6.0" stroke-linecap="round" stroke-linejoin="round" />
<path d="M 183.75 180.0 L 190.0 183.75 L 201.25 193.75 L 216.25 208.75 L 236.25 230.0 L 255.0 246.25 L 265.0 252.5 L 271.25 256.25 L 271.25 256.25 L 270.0 256.25 " stroke="black" fill="none" stroke-width="6.0" stroke-linecap="round" stroke-linejoin="round" />
</svg>