<svg xmlns="http://www.w3.org/2000/svg" width="300" height="300" viewBox="0 0 300 300">
<path d="M 86.25 157.5 L 85.0 157.5 L 83.75 157.5 L 83.75 161.25 L 86.25 177.5 L 90.0 197.5 L 93.75 207.5 " stroke="black" fill="none" stroke-width="6.0" stroke-linecap="round" stroke-linejoin="round" />
<path d="M 115.0 151.25 L 116.25 152.5 L 126.25 163.75 L 150.0 191.25 L 176.25 205.0 L 201.25 206.25 L 210.0 198.75 L 213.75 190.0 L 210.0 181.25 L 200.0 173.75 L 183.75 165.0 L 161.25 155.0 L 145.0 150.0 L 140.0 147.5 L 147.5 143.75 L 173.75 136.25 L 208.75 131.25 L 242.5 133.75 L 263.75 145.0 L 270.0 153.75 L 266.25 163.75 L 262.5 166.25 " stroke="black" fill="none" stroke-width="6.0" stroke-linecap="round" stroke-linejoin="round" />
</svg>