<svg xmlns="http://www.w3.org/2000/svg" width="300" height="300" viewBox="0 0 300 300">
<path d="M 90.0 93.75 L 90.0 93.75 L 90.0 93.75 L 90.0 93.75 L 90.0 93.75 L 87.5 103.75 L 81.25 126.25 L 70.0 146.25 L 58.75 152.5 L 56.25 152.5 " stroke="black" fill="none" stroke-width="6.0" stroke-linecap="round" stroke-linejoin="round" />
<path d="M 107.5 122.5 L 103.75 127.5 L 98.75 138.75 L 92.5 150.0 L 82.5 165.0 L 71.25 180.0 L 61.25 187.5 L 60.0 186.25 " stroke="black" fill="none" stroke-width="6.0" stroke-linecap="round" stroke-linejoin="round" />
<path d="M 97.5 157.5 L 96.25 166.25 L 93.75 181.25 L 88.75 198.75 L 81.25 217.5 L 78.75 220.0 " stroke="black" fill="none" stroke-width="6.0" stroke-linecap="round" stroke-linejoin="round" />
<path d="M 132.5 113.75 L 130.0 116.25 L 128.75 127.5 L 131.25 158.75 L 135.0 197.5 L 137.5 217.5 L 138.75 221.25 L 138.75 220.0 " stroke="black" fill="none" stroke-width="6.0" stroke-linecap="round" stroke-linejoin="round" />
<path d="M 148.75 108.75 L 147.5 105.0 L 148.75 100.0 L 161.25 93.75 L 186.25 88.75 L 210.0 87.5 L 225.0 92.5 L 232.5 107.5 L 235.0 136.25 L 235.0 167.5 L 235.0 196.25 L 235.0 215.0 L 235.0 225.0 L 235.0 225.0 L 235.0 225.0 L 233.75 222.5 L 227.5 215.0 L 216.25 202.5 L 203.75 186.25 L 201.25 183.75 " stroke="black" fill="none" stroke-width="6.0" stroke-linecap="round" stroke-linejoin="round" />
<path d="M 158.75 141.25 L 157.5 142.5 L 153.75 145.0 L 153.75 151.25 L 160.0 165.0 L 168.75 178.75 L 172.5 185.0 L 172.5 183.75 L 171.25 182.5 " stroke="black" fill="none" stroke-width="6.0" stroke-linecap="round" stroke-linejoin="round" />
<path d="M 165.0 152.5 L 161.25 147.5 L 161.25 143.75 L 163.75 141.25 L 173.75 138.75 L 187.5 138.75 L 197.5 140.0 L 200.0 146.25 L 193.75 157.5 L 181.25 170.0 L 167.5 182.5 L 161.25 188.75 L 163.75 187.5 L 177.5 178.75 L 193.75 166.25 L 205.0 155.0 L 210.0 147.5 L 208.75 147.5 " stroke="black" fill="none" stroke-width="6.0" stroke-linecap="round" stroke-linejoin="round" />
<path d="M 155.0 217.5 L 152.5 222.5 L 152.5 225.0 L 166.25 221.25 L 186.25 213.75 L 207.5 206.25 L 217.5 200.0 " stroke="black" fill="none" stroke-width="6.0" stroke-linecap="round" stroke-linejoin="round" />
</svg>