<svg xmlns="http://www.w3.org/2000/svg" width="300" height="300" viewBox="0 0 300 300">
<path d="M 71.25 87.5 L 71.25 87.5 L 71.25 87.5 L 71.25 91.25 L 68.75 108.75 L 61.25 131.25 L 53.75 143.75 " stroke="black" fill="none" stroke-width="6.0" stroke-linecap="round" stroke-linejoin="round" />
<path d="M 106.25 97.5 L 106.25 101.25 L 101.25 120.0 L 86.25 148.75 L 68.75 175.0 L 56.25 186.25 L 47.5 187.5 " stroke="black" fill="none" stroke-width="6.0" stroke-linecap="round" stroke-linejoin="round" />
<path d="M 86.25 147.5 L 88.75 148.75 L 92.5 157.5 L 96.25 187.5 L 93.75 220.0 L 88.75 241.25 L 83.75 247.5 " stroke="black" fill="none" stroke-width="6.0" stroke-linecap="round" stroke-linejoin="round" />
<path d="M 156.25 90.0 L 155.0 91.25 L 156.25 93.75 L 167.5 95.0 L 182.5 95.0 L 198.75 92.5 L 203.75 91.25 " stroke="black" fill="none" stroke-width="6.0" stroke-linecap="round" stroke-linejoin="round" />
<path d="M 133.75 162.5 L 131.25 162.5 L 130.0 166.25 L 140.0 163.75 L 161.25 153.75 L 191.25 138.75 L 208.75 127.5 L 207.5 127.5 " stroke="black" fill="none" stroke-width="6.0" stroke-linecap="round" stroke-linejoin="round" />
<path d="M 143.75 208.75 L 143.75 210.0 L 146.25 211.25 L 163.75 201.25 L 193.75 178.75 L 210.0 157.5 L 215.0 146.25 L 207.5 146.25 " stroke="black" fill="none" stroke-width="6.0" stroke-linecap="round" stroke-linejoin="round" />
<path d="M 175.0 162.5 L 175.0 162.5 L 176.25 165.0 L 182.5 173.75 L 191.25 192.5 L 193.75 216.25 L 182.5 236.25 L 167.5 246.25 L 151.25 250.0 L 143.75 250.0 L 143.75 250.0 L 151.25 246.25 L 170.0 241.25 L 191.25 237.5 L 213.75 236.25 L 232.5 236.25 L 246.25 236.25 L 251.25 235.0 L 251.25 233.75 " stroke="black" fill="none" stroke-width="6.0" stroke-linecap="round" stroke-linejoin="round" />
</svg>