<svg xmlns="http://www.w3.org/2000/svg" width="300" height="300" viewBox="0 0 300 300">
<path d="M 81.25 105.0 L 80.0 106.25 L 78.75 108.75 L 83.75 107.5 L 101.25 102.5 L 126.25 95.0 L 146.25 90.0 L 150.0 90.0 L 148.75 90.0 " stroke="black" fill="none" stroke-width="6.0" stroke-linecap="round" stroke-linejoin="round" />
<path d="M 102.5 106.25 L 101.25 112.5 L 100.0 123.75 L 101.25 142.5 L 105.0 156.25 L 106.25 158.75 " stroke="black" fill="none" stroke-width="6.0" stroke-linecap="round" stroke-linejoin="round" />
<path d="M 126.25 108.75 L 126.25 111.25 L 125.0 121.25 L 123.75 136.25 L 122.5 151.25 L 122.5 153.75 " stroke="black" fill="none" stroke-width="6.0" stroke-linecap="round" stroke-linejoin="round" />
<path d="M 148.75 103.75 L 150.0 105.0 L 148.75 108.75 L 143.75 120.0 L 133.75 138.75 L 117.5 157.5 L 101.25 172.5 L 86.25 185.0 L 76.25 191.25 L 75.0 192.5 L 82.5 191.25 L 101.25 182.5 L 125.0 168.75 L 151.25 156.25 L 166.25 147.5 L 168.75 146.25 L 162.5 146.25 L 152.5 148.75 L 145.0 150.0 L 138.75 151.25 L 133.75 152.5 L 132.5 160.0 L 136.25 185.0 L 140.0 216.25 L 141.25 237.5 L 137.5 243.75 L 130.0 242.5 L 120.0 240.0 L 111.25 236.25 L 107.5 231.25 L 110.0 225.0 L 125.0 213.75 L 146.25 197.5 L 173.75 172.5 L 200.0 143.75 L 206.25 131.25 " stroke="black" fill="none" stroke-width="6.0" stroke-linecap="round" stroke-linejoin="round" />
<path d="M 213.75 88.75 L 212.5 90.0 L 207.5 96.25 L 200.0 117.5 L 188.75 152.5 L 173.75 183.75 L 163.75 195.0 " stroke="black" fill="none" stroke-width="6.0" stroke-linecap="round" stroke-linejoin="round" />
<path d="M 216.25 142.5 L 221.25 140.0 L 221.25 141.25 L 215.0 153.75 L 207.5 172.5 L 197.5 192.5 L 187.5 206.25 L 186.25 206.25 " stroke="black" fill="none" stroke-width="6.0" stroke-linecap="round" stroke-linejoin="round" />
<path d="M 223.75 178.75 L 228.75 177.5 L 228.75 182.5 L 218.75 198.75 L 205.0 222.5 L 191.25 246.25 L 172.5 257.5 L 168.75 258.75 " stroke="black" fill="none" stroke-width="6.0" stroke-linecap="round" stroke-linejoin="round" />
</svg>