<svg xmlns="http://www.w3.org/2000/svg" width="300" height="300" viewBox="0 0 300 300">
<path d="M 88.75 120.0 L 87.5 120.0 L 85.0 118.75 L 83.75 118.75 L 80.0 127.5 L 72.5 148.75 L 61.25 172.5 L 53.75 182.5 L 53.75 180.0 " stroke="black" fill="none" stroke-width="6.0" stroke-linecap="round" stroke-linejoin="round" />
<path d="M 100.0 137.5 L 98.75 140.0 L 93.75 148.75 L 87.5 165.0 L 78.75 187.5 L 70.0 202.5 L 65.0 203.75 L 66.25 197.5 L 73.75 188.75 L 82.5 178.75 L 88.75 170.0 L 93.75 166.25 L 95.0 175.0 L 95.0 202.5 L 90.0 236.25 L 85.0 260.0 L 78.75 265.0 L 78.75 263.75 " stroke="black" fill="none" stroke-width="6.0" stroke-linecap="round" stroke-linejoin="round" />
<path d="M 146.25 77.5 L 145.0 77.5 L 140.0 81.25 L 133.75 93.75 L 121.25 120.0 L 107.5 141.25 L 100.0 143.75 " stroke="black" fill="none" stroke-width="6.0" stroke-linecap="round" stroke-linejoin="round" />
<path d="M 133.75 85.0 L 135.0 85.0 L 138.75 83.75 L 152.5 87.5 L 176.25 95.0 L 202.5 101.25 L 220.0 103.75 L 223.75 107.5 L 215.0 115.0 L 208.75 117.5 " stroke="black" fill="none" stroke-width="6.0" stroke-linecap="round" stroke-linejoin="round" />
<path d="M 132.5 150.0 L 127.5 151.25 L 125.0 151.25 L 126.25 151.25 L 138.75 145.0 L 150.0 137.5 L 166.25 127.5 L 172.5 122.5 L 166.25 126.25 L 163.75 127.5 " stroke="black" fill="none" stroke-width="6.0" stroke-linecap="round" stroke-linejoin="round" />
<path d="M 117.5 190.0 L 113.75 196.25 L 115.0 197.5 L 128.75 192.5 L 150.0 177.5 L 176.25 155.0 L 192.5 140.0 L 196.25 132.5 L 191.25 132.5 L 182.5 135.0 L 173.75 137.5 L 165.0 140.0 L 160.0 141.25 L 157.5 141.25 L 156.25 141.25 L 157.5 141.25 L 160.0 143.75 L 163.75 158.75 L 167.5 192.5 L 170.0 226.25 L 170.0 243.75 L 168.75 248.75 L 163.75 248.75 L 157.5 248.75 L 153.75 245.0 L 152.5 241.25 " stroke="black" fill="none" stroke-width="6.0" stroke-linecap="round" stroke-linejoin="round" />
<path d="M 166.25 178.75 L 163.75 178.75 L 158.75 185.0 L 150.0 198.75 L 138.75 217.5 L 127.5 232.5 L 121.25 236.25 L 120.0 236.25 " stroke="black" fill="none" stroke-width="6.0" stroke-linecap="round" stroke-linejoin="round" />
<path d="M 157.5 178.75 L 158.75 178.75 L 163.75 178.75 L 175.0 188.75 L 192.5 205.0 L 205.0 222.5 L 213.75 235.0 L 220.0 242.5 L 225.0 246.25 L 226.25 247.5 L 226.25 248.75 L 226.25 248.75 " stroke="black" fill="none" stroke-width="6.0" stroke-linecap="round" stroke-linejoin="round" />
</svg>