<svg xmlns="http://www.w3.org/2000/svg" width="300" height="300" viewBox="0 0 300 300">
<path d="M 87.5 108.75 L 83.75 110.0 L 83.75 111.25 L 93.75 111.25 L 120.0 108.75 L 157.5 101.25 L 188.75 92.5 L 198.75 87.5 L 196.25 86.25 L 193.75 86.25 " stroke="black" fill="none" stroke-width="6.0" stroke-linecap="round" stroke-linejoin="round" />
<path d="M 142.5 76.25 L 141.25 76.25 L 141.25 82.5 L 146.25 100.0 L 147.5 126.25 L 143.75 143.75 L 133.75 150.0 L 121.25 151.25 L 113.75 153.75 L 113.75 153.75 L 123.75 155.0 L 141.25 153.75 L 162.5 147.5 L 178.75 140.0 L 185.0 136.25 L 181.25 136.25 L 175.0 138.75 " stroke="black" fill="none" stroke-width="6.0" stroke-linecap="round" stroke-linejoin="round" />
<path d="M 68.75 180.0 L 63.75 185.0 L 63.75 193.75 L 70.0 215.0 L 76.25 241.25 L 82.5 252.5 L 83.75 253.75 " stroke="black" fill="none" stroke-width="6.0" stroke-linecap="round" stroke-linejoin="round" />
<path d="M 123.75 185.0 L 125.0 187.5 L 132.5 205.0 L 148.75 231.25 L 166.25 250.0 L 186.25 255.0 L 201.25 253.75 L 207.5 246.25 L 208.75 241.25 L 207.5 236.25 L 202.5 232.5 L 191.25 227.5 L 175.0 221.25 L 157.5 213.75 L 146.25 207.5 L 147.5 203.75 L 166.25 201.25 L 196.25 197.5 L 223.75 195.0 L 245.0 192.5 L 253.75 190.0 L 250.0 188.75 L 246.25 188.75 " stroke="black" fill="none" stroke-width="6.0" stroke-linecap="round" stroke-linejoin="round" />
</svg>