<svg xmlns="http://www.w3.org/2000/svg" width="300" height="300" viewBox="0 0 300 300">
<path d="M 92.5 103.75 L 92.5 103.75 L 90.0 105.0 L 88.75 106.25 L 86.25 116.25 L 81.25 133.75 L 72.5 152.5 L 63.75 161.25 L 62.5 161.25 " stroke="black" fill="none" stroke-width="6.0" stroke-linecap="round" stroke-linejoin="round" />
<path d="M 113.75 123.75 L 112.5 126.25 L 107.5 136.25 L 101.25 153.75 L 91.25 180.0 L 80.0 201.25 L 68.75 208.75 L 65.0 207.5 L 68.75 198.75 " stroke="black" fill="none" stroke-width="6.0" stroke-linecap="round" stroke-linejoin="round" />
<path d="M 97.5 171.25 L 98.75 173.75 L 100.0 185.0 L 101.25 207.5 L 98.75 232.5 L 92.5 248.75 " stroke="black" fill="none" stroke-width="6.0" stroke-linecap="round" stroke-linejoin="round" />
<path d="M 147.5 90.0 L 146.25 90.0 L 141.25 92.5 L 141.25 92.5 L 148.75 92.5 L 165.0 87.5 L 181.25 81.25 L 191.25 75.0 L 190.0 73.75 L 176.25 78.75 L 163.75 85.0 L 153.75 90.0 L 147.5 96.25 L 147.5 103.75 L 147.5 117.5 L 147.5 137.5 L 150.0 155.0 L 152.5 165.0 L 153.75 167.5 L 153.75 165.0 L 153.75 158.75 " stroke="black" fill="none" stroke-width="6.0" stroke-linecap="round" stroke-linejoin="round" />
<path d="M 147.5 130.0 L 147.5 130.0 L 145.0 127.5 L 147.5 123.75 L 158.75 115.0 L 177.5 107.5 L 196.25 103.75 L 206.25 108.75 L 207.5 120.0 L 201.25 137.5 L 190.0 150.0 L 177.5 157.5 L 168.75 158.75 " stroke="black" fill="none" stroke-width="6.0" stroke-linecap="round" stroke-linejoin="round" />
<path d="M 153.75 141.25 L 150.0 143.75 L 148.75 145.0 L 150.0 145.0 L 158.75 141.25 L 175.0 133.75 L 188.75 125.0 L 197.5 118.75 L 196.25 117.5 L 190.0 122.5 " stroke="black" fill="none" stroke-width="6.0" stroke-linecap="round" stroke-linejoin="round" />
<path d="M 151.25 166.25 L 148.75 170.0 L 150.0 171.25 L 160.0 166.25 L 177.5 156.25 L 193.75 145.0 L 196.25 141.25 " stroke="black" fill="none" stroke-width="6.0" stroke-linecap="round" stroke-linejoin="round" />
<path d="M 150.0 198.75 L 147.5 200.0 L 146.25 200.0 L 152.5 198.75 L 170.0 192.5 L 191.25 181.25 L 205.0 170.0 L 207.5 167.5 L 198.75 172.5 L 193.75 176.25 " stroke="black" fill="none" stroke-width="6.0" stroke-linecap="round" stroke-linejoin="round" />
<path d="M 148.75 230.0 L 148.75 231.25 L 146.25 233.75 L 151.25 232.5 L 167.5 222.5 L 191.25 206.25 L 203.75 195.0 L 206.25 190.0 L 200.0 190.0 L 198.75 190.0 " stroke="black" fill="none" stroke-width="6.0" stroke-linecap="round" stroke-linejoin="round" />
<path d="M 176.25 195.0 L 176.25 195.0 L 176.25 197.5 L 177.5 201.25 L 182.5 211.25 L 185.0 228.75 L 183.75 243.75 L 175.0 251.25 L 163.75 253.75 L 152.5 255.0 L 146.25 256.25 L 145.0 256.25 L 145.0 256.25 L 145.0 256.25 L 147.5 256.25 L 151.25 255.0 L 155.0 253.75 L 158.75 252.5 L 161.25 251.25 L 163.75 251.25 L 167.5 250.0 L 171.25 250.0 L 177.5 248.75 L 190.0 247.5 L 208.75 243.75 L 230.0 238.75 L 245.0 235.0 L 248.75 233.75 L 246.25 235.0 " stroke="black" fill="none" stroke-width="6.0" stroke-linecap="round" stroke-linejoin="round" />
</svg>