<svg xmlns="http://www.w3.org/2000/svg" width="300" height="300" viewBox="0 0 300 300">
<path d="M 117.5 72.5 L 117.5 71.25 L 117.5 71.25 L 117.5 70.0 L 126.25 73.75 L 145.0 80.0 L 163.75 83.75 L 176.25 86.25 L 175.0 87.5 " stroke="black" fill="none" stroke-width="6.0" stroke-linecap="round" stroke-linejoin="round" />
<path d="M 105.0 131.25 L 103.75 132.5 L 101.25 133.75 L 105.0 133.75 L 123.75 126.25 L 147.5 115.0 L 165.0 103.75 L 170.0 100.0 L 162.5 101.25 L 151.25 111.25 L 140.0 125.0 L 132.5 143.75 L 132.5 160.0 L 143.75 163.75 L 161.25 158.75 L 182.5 142.5 L 197.5 128.75 L 201.25 122.5 L 191.25 127.5 L 186.25 130.0 " stroke="black" fill="none" stroke-width="6.0" stroke-linecap="round" stroke-linejoin="round" />
<path d="M 87.5 187.5 L 86.25 186.25 L 85.0 185.0 L 85.0 186.25 L 93.75 200.0 L 103.75 216.25 L 117.5 242.5 L 121.25 247.5 L 121.25 246.25 " stroke="black" fill="none" stroke-width="6.0" stroke-linecap="round" stroke-linejoin="round" />
<path d="M 142.5 192.5 L 143.75 195.0 L 147.5 205.0 L 161.25 220.0 L 185.0 235.0 L 210.0 236.25 L 230.0 222.5 L 235.0 208.75 L 230.0 200.0 L 212.5 196.25 L 191.25 195.0 L 166.25 197.5 L 155.0 202.5 L 158.75 205.0 L 183.75 200.0 L 220.0 182.5 L 251.25 167.5 L 262.5 160.0 " stroke="black" fill="none" stroke-width="6.0" stroke-linecap="round" stroke-linejoin="round" />
</svg>