<svg xmlns="http://www.w3.org/2000/svg" width="300" height="300" viewBox="0 0 300 300">
<path d="M 76.25 101.25 L 75.0 101.25 L 73.75 100.0 L 72.5 100.0 L 70.0 111.25 L 62.5 132.5 L 52.5 152.5 L 45.0 156.25 L 43.75 152.5 " stroke="black" fill="none" stroke-width="6.0" stroke-linecap="round" stroke-linejoin="round" />
<path d="M 87.5 121.25 L 87.5 121.25 L 86.25 128.75 L 77.5 146.25 L 63.75 166.25 L 53.75 176.25 L 50.0 175.0 L 52.5 163.75 L 61.25 156.25 L 68.75 155.0 L 73.75 157.5 L 76.25 176.25 L 73.75 205.0 L 66.25 227.5 L 61.25 235.0 L 60.0 235.0 " stroke="black" fill="none" stroke-width="6.0" stroke-linecap="round" stroke-linejoin="round" />
<path d="M 113.75 87.5 L 110.0 87.5 L 107.5 88.75 L 105.0 98.75 L 105.0 115.0 L 111.25 127.5 L 125.0 130.0 L 138.75 125.0 L 156.25 110.0 L 165.0 100.0 L 168.75 93.75 L 168.75 91.25 L 165.0 90.0 L 163.75 87.5 L 162.5 86.25 L 161.25 86.25 L 161.25 86.25 L 161.25 86.25 L 161.25 86.25 L 167.5 87.5 L 175.0 92.5 L 181.25 97.5 L 182.5 103.75 " stroke="black" fill="none" stroke-width="6.0" stroke-linecap="round" stroke-linejoin="round" />
<path d="M 137.5 78.75 L 137.5 78.75 L 135.0 78.75 L 135.0 80.0 L 140.0 97.5 L 145.0 126.25 L 145.0 132.5 " stroke="black" fill="none" stroke-width="6.0" stroke-linecap="round" stroke-linejoin="round" />
<path d="M 117.5 180.0 L 115.0 181.25 L 113.75 183.75 L 117.5 183.75 L 132.5 177.5 L 150.0 167.5 L 163.75 156.25 L 166.25 152.5 L 156.25 156.25 " stroke="black" fill="none" stroke-width="6.0" stroke-linecap="round" stroke-linejoin="round" />
<path d="M 126.25 193.75 L 123.75 196.25 L 121.25 207.5 L 121.25 223.75 L 123.75 238.75 L 126.25 243.75 L 126.25 240.0 " stroke="black" fill="none" stroke-width="6.0" stroke-linecap="round" stroke-linejoin="round" />
<path d="M 150.0 186.25 L 150.0 187.5 L 151.25 196.25 L 153.75 212.5 L 158.75 226.25 L 163.75 230.0 L 170.0 218.75 L 178.75 200.0 L 187.5 177.5 L 193.75 151.25 L 197.5 128.75 L 201.25 108.75 L 203.75 100.0 L 203.75 101.25 L 203.75 107.5 L 201.25 126.25 L 201.25 141.25 L 201.25 150.0 L 208.75 148.75 L 225.0 133.75 L 241.25 113.75 L 251.25 98.75 L 253.75 95.0 L 248.75 97.5 L 246.25 98.75 " stroke="black" fill="none" stroke-width="6.0" stroke-linecap="round" stroke-linejoin="round" />
<path d="M 225.0 146.25 L 223.75 151.25 L 223.75 161.25 L 222.5 177.5 L 215.0 200.0 L 206.25 216.25 L 196.25 226.25 L 183.75 230.0 L 175.0 221.25 L 173.75 217.5 " stroke="black" fill="none" stroke-width="6.0" stroke-linecap="round" stroke-linejoin="round" />
<path d="M 196.25 171.25 L 196.25 170.0 L 196.25 170.0 L 198.75 170.0 L 205.0 177.5 L 217.5 193.75 L 240.0 215.0 L 262.5 236.25 L 280.0 248.75 L 292.5 255.0 L 300.0 260.0 L 302.5 260.0 " stroke="black" fill="none" stroke-width="6.0" stroke-linecap="round" stroke-linejoin="round" />
</svg>