<svg xmlns="http://www.w3.org/2000/svg" width="300" height="300" viewBox="0 0 300 300">
<path d="M 130.0 65.0 L 130.0 67.5 L 128.75 68.75 L 130.0 71.25 L 136.25 75.0 L 145.0 77.5 L 153.75 80.0 L 155.0 80.0 L 155.0 78.75 " stroke="black" fill="none" stroke-width="6.0" stroke-linecap="round" stroke-linejoin="round" />
<path d="M 98.75 86.25 L 95.0 88.75 L 90.0 91.25 L 88.75 93.75 L 96.25 93.75 L 117.5 91.25 L 146.25 82.5 L 172.5 71.25 L 186.25 61.25 L 190.0 57.5 L 181.25 58.75 L 171.25 62.5 L 161.25 66.25 L 152.5 72.5 L 148.75 76.25 L 147.5 81.25 L 147.5 88.75 L 145.0 103.75 L 132.5 127.5 L 115.0 146.25 L 98.75 151.25 L 87.5 151.25 L 81.25 147.5 L 80.0 138.75 " stroke="black" fill="none" stroke-width="6.0" stroke-linecap="round" stroke-linejoin="round" />
<path d="M 103.75 98.75 L 108.75 98.75 L 113.75 100.0 L 127.5 103.75 L 148.75 113.75 L 175.0 120.0 L 203.75 126.25 L 225.0 130.0 L 235.0 132.5 L 236.25 132.5 L 230.0 133.75 L 218.75 135.0 " stroke="black" fill="none" stroke-width="6.0" stroke-linecap="round" stroke-linejoin="round" />
<path d="M 92.5 150.0 L 88.75 151.25 L 82.5 153.75 L 80.0 153.75 L 85.0 153.75 L 105.0 153.75 L 137.5 148.75 L 175.0 142.5 L 198.75 135.0 L 203.75 132.5 L 200.0 131.25 L 187.5 131.25 L 167.5 135.0 L 146.25 140.0 L 126.25 146.25 L 110.0 152.5 L 102.5 157.5 L 102.5 165.0 L 106.25 182.5 L 108.75 212.5 L 106.25 246.25 L 97.5 266.25 L 86.25 275.0 L 75.0 276.25 L 68.75 270.0 L 70.0 255.0 " stroke="black" fill="none" stroke-width="6.0" stroke-linecap="round" stroke-linejoin="round" />
<path d="M 153.75 162.5 L 153.75 162.5 L 153.75 165.0 L 152.5 168.75 L 147.5 185.0 L 138.75 206.25 L 131.25 221.25 L 127.5 223.75 L 127.5 222.5 " stroke="black" fill="none" stroke-width="6.0" stroke-linecap="round" stroke-linejoin="round" />
<path d="M 180.0 177.5 L 183.75 176.25 L 183.75 182.5 L 175.0 197.5 L 162.5 220.0 L 152.5 236.25 L 150.0 241.25 L 150.0 241.25 " stroke="black" fill="none" stroke-width="6.0" stroke-linecap="round" stroke-linejoin="round" />
<path d="M 202.5 196.25 L 206.25 196.25 L 207.5 200.0 L 198.75 218.75 L 183.75 246.25 L 170.0 267.5 L 156.25 277.5 " stroke="black" fill="none" stroke-width="6.0" stroke-linecap="round" stroke-linejoin="round" />
</svg>