<svg xmlns="http://www.w3.org/2000/svg" width="300" height="300" viewBox="0 0 300 300">
<path d="M 107.5 70.0 L 106.25 70.0 L 105.0 70.0 L 105.0 73.75 L 108.75 91.25 L 115.0 132.5 L 117.5 162.5 L 116.25 171.25 L 108.75 171.25 " stroke="black" fill="none" stroke-width="6.0" stroke-linecap="round" stroke-linejoin="round" />
<path d="M 81.25 92.5 L 80.0 91.25 L 75.0 88.75 L 73.75 88.75 L 75.0 90.0 L 80.0 98.75 L 87.5 106.25 L 93.75 110.0 L 95.0 110.0 " stroke="black" fill="none" stroke-width="6.0" stroke-linecap="round" stroke-linejoin="round" />
<path d="M 136.25 71.25 L 136.25 71.25 L 131.25 77.5 L 120.0 91.25 L 106.25 108.75 L 96.25 118.75 L 90.0 122.5 L 82.5 123.75 L 76.25 123.75 L 73.75 122.5 L 72.5 121.25 L 71.25 121.25 L 71.25 126.25 L 76.25 140.0 L 80.0 158.75 L 85.0 172.5 L 86.25 178.75 L 86.25 177.5 L 85.0 175.0 " stroke="black" fill="none" stroke-width="6.0" stroke-linecap="round" stroke-linejoin="round" />
<path d="M 80.0 136.25 L 78.75 136.25 L 76.25 135.0 L 77.5 133.75 L 88.75 131.25 L 107.5 126.25 L 130.0 121.25 L 146.25 118.75 L 148.75 122.5 L 142.5 135.0 L 132.5 148.75 L 120.0 160.0 L 107.5 165.0 L 105.0 165.0 " stroke="black" fill="none" stroke-width="6.0" stroke-linecap="round" stroke-linejoin="round" />
<path d="M 96.25 136.25 L 96.25 135.0 L 93.75 135.0 L 91.25 138.75 L 90.0 148.75 L 90.0 157.5 L 91.25 160.0 L 92.5 160.0 " stroke="black" fill="none" stroke-width="6.0" stroke-linecap="round" stroke-linejoin="round" />
<path d="M 112.5 133.75 L 117.5 128.75 L 122.5 127.5 L 128.75 130.0 L 135.0 138.75 L 138.75 147.5 " stroke="black" fill="none" stroke-width="6.0" stroke-linecap="round" stroke-linejoin="round" />
<path d="M 187.5 81.25 L 186.25 80.0 L 185.0 80.0 L 182.5 82.5 L 180.0 92.5 L 180.0 101.25 L 181.25 105.0 L 191.25 105.0 L 202.5 96.25 L 215.0 85.0 L 223.75 76.25 L 223.75 73.75 " stroke="black" fill="none" stroke-width="6.0" stroke-linecap="round" stroke-linejoin="round" />
<path d="M 205.0 101.25 L 203.75 106.25 L 200.0 117.5 L 196.25 131.25 L 188.75 148.75 L 178.75 160.0 L 168.75 162.5 L 157.5 161.25 L 156.25 158.75 " stroke="black" fill="none" stroke-width="6.0" stroke-linecap="round" stroke-linejoin="round" />
<path d="M 171.25 122.5 L 172.5 122.5 L 177.5 122.5 L 187.5 130.0 L 202.5 140.0 L 218.75 146.25 L 233.75 146.25 L 237.5 146.25 " stroke="black" fill="none" stroke-width="6.0" stroke-linecap="round" stroke-linejoin="round" />
<path d="M 81.25 212.5 L 80.0 212.5 L 77.5 213.75 L 81.25 213.75 L 101.25 210.0 L 136.25 203.75 L 176.25 195.0 L 206.25 187.5 L 216.25 185.0 L 216.25 185.0 " stroke="black" fill="none" stroke-width="6.0" stroke-linecap="round" stroke-linejoin="round" />
<path d="M 122.5 188.75 L 122.5 192.5 L 123.75 200.0 L 126.25 216.25 L 125.0 242.5 L 117.5 260.0 L 108.75 265.0 L 101.25 265.0 " stroke="black" fill="none" stroke-width="6.0" stroke-linecap="round" stroke-linejoin="round" />
<path d="M 165.0 171.25 L 166.25 170.0 L 170.0 170.0 L 173.75 176.25 L 177.5 193.75 L 182.5 225.0 L 183.75 255.0 L 183.75 270.0 L 181.25 278.75 " stroke="black" fill="none" stroke-width="6.0" stroke-linecap="round" stroke-linejoin="round" />
</svg>