<svg xmlns="http://www.w3.org/2000/svg" width="300" height="300" viewBox="0 0 300 300">
<path d="M 91.25 91.25 L 90.0 90.0 L 87.5 88.75 L 87.5 90.0 L 87.5 113.75 L 90.0 160.0 L 87.5 200.0 L 82.5 216.25 L 76.25 220.0 L 71.25 220.0 " stroke="black" fill="none" stroke-width="6.0" stroke-linecap="round" stroke-linejoin="round" />
<path d="M 88.75 101.25 L 87.5 101.25 L 86.25 100.0 L 87.5 97.5 L 96.25 92.5 L 112.5 87.5 L 132.5 86.25 L 145.0 88.75 L 148.75 103.75 L 150.0 136.25 L 150.0 178.75 L 152.5 217.5 L 157.5 245.0 L 158.75 256.25 L 160.0 258.75 L 157.5 258.75 L 152.5 255.0 L 145.0 246.25 L 133.75 231.25 L 123.75 216.25 " stroke="black" fill="none" stroke-width="6.0" stroke-linecap="round" stroke-linejoin="round" />
<path d="M 55.0 168.75 L 55.0 171.25 L 52.5 175.0 L 53.75 175.0 L 68.75 172.5 L 96.25 162.5 L 132.5 147.5 L 157.5 135.0 L 166.25 128.75 L 163.75 128.75 L 156.25 130.0 " stroke="black" fill="none" stroke-width="6.0" stroke-linecap="round" stroke-linejoin="round" />
<path d="M 112.5 126.25 L 112.5 126.25 L 112.5 125.0 L 112.5 125.0 L 117.5 128.75 L 128.75 137.5 L 133.75 143.75 " stroke="black" fill="none" stroke-width="6.0" stroke-linecap="round" stroke-linejoin="round" />
<path d="M 208.75 88.75 L 208.75 88.75 L 211.25 88.75 L 211.25 90.0 L 203.75 103.75 L 191.25 127.5 L 178.75 148.75 L 168.75 155.0 L 167.5 155.0 " stroke="black" fill="none" stroke-width="6.0" stroke-linecap="round" stroke-linejoin="round" />
<path d="M 213.75 133.75 L 213.75 138.75 L 208.75 148.75 L 200.0 167.5 L 191.25 185.0 L 183.75 196.25 L 182.5 196.25 " stroke="black" fill="none" stroke-width="6.0" stroke-linecap="round" stroke-linejoin="round" />
<path d="M 225.0 175.0 L 226.25 177.5 L 226.25 183.75 L 220.0 195.0 L 208.75 210.0 L 196.25 228.75 L 180.0 246.25 " stroke="black" fill="none" stroke-width="6.0" stroke-linecap="round" stroke-linejoin="round" />
</svg>