<svg xmlns="http://www.w3.org/2000/svg" width="300" height="300" viewBox="0 0 300 300">
<path d="M 91.25 112.5 L 91.25 112.5 L 91.25 112.5 L 95.0 112.5 L 116.25 112.5 L 143.75 112.5 L 163.75 111.25 L 171.25 112.5 L 168.75 117.5 L 155.0 128.75 L 137.5 142.5 L 117.5 152.5 L 96.25 162.5 L 87.5 167.5 L 91.25 167.5 L 106.25 162.5 L 127.5 156.25 L 146.25 152.5 L 157.5 151.25 L 158.75 155.0 L 147.5 167.5 L 130.0 183.75 L 108.75 196.25 L 90.0 206.25 L 75.0 213.75 L 72.5 213.75 L 81.25 211.25 L 101.25 202.5 L 133.75 191.25 L 173.75 177.5 L 211.25 171.25 L 226.25 175.0 L 226.25 185.0 L 211.25 202.5 L 188.75 222.5 L 162.5 238.75 L 140.0 245.0 L 125.0 238.75 " stroke="black" fill="none" stroke-width="6.0" stroke-linecap="round" stroke-linejoin="round" />
<path d="M 102.5 93.75 L 101.25 93.75 L 100.0 95.0 L 103.75 118.75 L 112.5 180.0 L 115.0 233.75 L 116.25 251.25 L 115.0 251.25 L 113.75 247.5 " stroke="black" fill="none" stroke-width="6.0" stroke-linecap="round" stroke-linejoin="round" />
<path d="M 143.75 105.0 L 143.75 103.75 L 143.75 102.5 L 148.75 130.0 L 151.25 186.25 L 150.0 238.75 L 147.5 260.0 L 145.0 267.5 " stroke="black" fill="none" stroke-width="6.0" stroke-linecap="round" stroke-linejoin="round" />
</svg>