<svg xmlns="http://www.w3.org/2000/svg" width="300" height="300" viewBox="0 0 300 300">
<path d="M 115.0 92.5 L 113.75 92.5 L 112.5 93.75 L 116.25 93.75 L 126.25 96.25 L 137.5 100.0 L 145.0 105.0 L 146.25 112.5 L 137.5 125.0 L 122.5 138.75 L 106.25 151.25 L 98.75 157.5 L 98.75 158.75 L 111.25 155.0 L 127.5 148.75 L 143.75 145.0 L 152.5 143.75 L 152.5 150.0 L 143.75 166.25 L 128.75 185.0 L 116.25 197.5 L 107.5 203.75 L 106.25 203.75 L 116.25 197.5 L 131.25 190.0 L 146.25 183.75 L 157.5 182.5 L 165.0 192.5 L 163.75 212.5 L 152.5 233.75 L 141.25 247.5 L 128.75 252.5 L 120.0 248.75 L 120.0 232.5 L 123.75 215.0 " stroke="black" fill="none" stroke-width="6.0" stroke-linecap="round" stroke-linejoin="round" />
<path d="M 202.5 87.5 L 202.5 86.25 L 201.25 86.25 L 201.25 92.5 L 203.75 125.0 L 206.25 177.5 L 206.25 216.25 L 203.75 238.75 " stroke="black" fill="none" stroke-width="6.0" stroke-linecap="round" stroke-linejoin="round" />
</svg>