<svg xmlns="http://www.w3.org/2000/svg" width="300" height="300" viewBox="0 0 300 300">
<path d="M 138.75 68.75 L 135.0 72.5 L 121.25 88.75 L 105.0 118.75 L 87.5 151.25 L 72.5 171.25 L 63.75 175.0 L 62.5 158.75 " stroke="black" fill="none" stroke-width="6.0" stroke-linecap="round" stroke-linejoin="round" />
<path d="M 128.75 68.75 L 131.25 68.75 L 142.5 71.25 L 165.0 83.75 L 193.75 101.25 L 211.25 113.75 L 222.5 121.25 L 216.25 127.5 " stroke="black" fill="none" stroke-width="6.0" stroke-linecap="round" stroke-linejoin="round" />
<path d="M 130.0 123.75 L 130.0 123.75 L 130.0 123.75 L 131.25 123.75 L 140.0 122.5 L 150.0 122.5 L 157.5 123.75 L 158.75 126.25 L 151.25 132.5 L 138.75 138.75 L 128.75 146.25 L 122.5 148.75 L 125.0 148.75 L 140.0 146.25 L 157.5 141.25 L 172.5 136.25 L 177.5 135.0 L 171.25 140.0 L 157.5 152.5 L 146.25 166.25 L 137.5 178.75 L 136.25 183.75 L 135.0 183.75 " stroke="black" fill="none" stroke-width="6.0" stroke-linecap="round" stroke-linejoin="round" />
<path d="M 86.25 191.25 L 86.25 191.25 L 85.0 191.25 L 85.0 196.25 L 93.75 217.5 L 107.5 240.0 L 118.75 248.75 L 120.0 248.75 " stroke="black" fill="none" stroke-width="6.0" stroke-linecap="round" stroke-linejoin="round" />
<path d="M 137.5 192.5 L 137.5 197.5 L 143.75 206.25 L 158.75 215.0 L 180.0 218.75 L 196.25 211.25 L 200.0 201.25 L 195.0 197.5 L 182.5 196.25 L 166.25 195.0 L 151.25 196.25 L 143.75 198.75 L 145.0 198.75 L 168.75 187.5 L 202.5 165.0 L 228.75 147.5 L 236.25 143.75 " stroke="black" fill="none" stroke-width="6.0" stroke-linecap="round" stroke-linejoin="round" />
</svg>