<svg xmlns="http://www.w3.org/2000/svg" width="300" height="300" viewBox="0 0 300 300">
<path d="M 91.25 98.75 L 91.25 97.5 L 91.25 96.25 L 92.5 95.0 L 92.5 95.0 L 90.0 108.75 L 78.75 131.25 L 63.75 152.5 L 55.0 157.5 L 52.5 155.0 " stroke="black" fill="none" stroke-width="6.0" stroke-linecap="round" stroke-linejoin="round" />
<path d="M 113.75 116.25 L 108.75 123.75 L 98.75 142.5 L 87.5 162.5 L 76.25 181.25 L 67.5 188.75 L 65.0 182.5 L 66.25 178.75 " stroke="black" fill="none" stroke-width="6.0" stroke-linecap="round" stroke-linejoin="round" />
<path d="M 97.5 150.0 L 98.75 156.25 L 98.75 176.25 L 96.25 203.75 L 93.75 223.75 L 91.25 230.0 L 90.0 221.25 " stroke="black" fill="none" stroke-width="6.0" stroke-linecap="round" stroke-linejoin="round" />
<path d="M 133.75 75.0 L 133.75 73.75 L 133.75 73.75 L 137.5 73.75 L 148.75 80.0 L 170.0 82.5 L 193.75 77.5 L 202.5 70.0 L 196.25 71.25 L 192.5 72.5 " stroke="black" fill="none" stroke-width="6.0" stroke-linecap="round" stroke-linejoin="round" />
<path d="M 143.75 111.25 L 143.75 112.5 L 143.75 120.0 L 146.25 132.5 L 150.0 148.75 L 153.75 157.5 L 155.0 160.0 L 155.0 156.25 " stroke="black" fill="none" stroke-width="6.0" stroke-linecap="round" stroke-linejoin="round" />
<path d="M 147.5 112.5 L 147.5 110.0 L 150.0 106.25 L 165.0 103.75 L 185.0 102.5 L 197.5 103.75 L 198.75 112.5 L 188.75 127.5 L 175.0 141.25 L 158.75 150.0 L 148.75 151.25 " stroke="black" fill="none" stroke-width="6.0" stroke-linecap="round" stroke-linejoin="round" />
<path d="M 147.5 137.5 L 147.5 137.5 L 147.5 136.25 L 153.75 131.25 L 171.25 120.0 L 191.25 106.25 L 196.25 101.25 L 190.0 105.0 " stroke="black" fill="none" stroke-width="6.0" stroke-linecap="round" stroke-linejoin="round" />
<path d="M 150.0 157.5 L 148.75 157.5 L 148.75 158.75 L 156.25 155.0 L 173.75 143.75 L 192.5 130.0 L 200.0 121.25 L 197.5 122.5 L 186.25 135.0 L 172.5 153.75 L 156.25 180.0 L 143.75 207.5 L 140.0 217.5 L 140.0 218.75 L 145.0 213.75 L 155.0 202.5 L 170.0 190.0 L 188.75 175.0 L 202.5 165.0 L 208.75 162.5 L 206.25 173.75 L 196.25 192.5 L 182.5 211.25 L 163.75 231.25 L 148.75 245.0 L 142.5 247.5 " stroke="black" fill="none" stroke-width="6.0" stroke-linecap="round" stroke-linejoin="round" />
<path d="M 152.5 202.5 L 152.5 202.5 L 150.0 202.5 L 150.0 202.5 L 155.0 202.5 L 167.5 208.75 L 185.0 221.25 L 202.5 236.25 L 216.25 246.25 L 227.5 250.0 L 237.5 251.25 L 237.5 251.25 " stroke="black" fill="none" stroke-width="6.0" stroke-linecap="round" stroke-linejoin="round" />
</svg>