<svg xmlns="http://www.w3.org/2000/svg" width="300" height="300" viewBox="0 0 300 300">
<path d="M 122.5 93.75 L 118.75 93.75 L 112.5 95.0 L 113.75 95.0 L 130.0 97.5 L 153.75 100.0 L 183.75 100.0 L 205.0 98.75 L 208.75 98.75 L 202.5 103.75 L 185.0 113.75 L 162.5 126.25 L 141.25 137.5 L 122.5 145.0 L 112.5 148.75 L 111.25 148.75 L 117.5 148.75 L 128.75 145.0 L 140.0 140.0 L 147.5 136.25 L 148.75 135.0 L 143.75 140.0 L 131.25 151.25 L 117.5 168.75 L 105.0 187.5 L 97.5 198.75 L 95.0 201.25 L 95.0 201.25 L 96.25 200.0 L 101.25 196.25 L 111.25 190.0 L 126.25 182.5 L 147.5 172.5 L 175.0 161.25 L 201.25 155.0 L 221.25 153.75 L 235.0 156.25 L 241.25 158.75 L 243.75 161.25 L 243.75 163.75 L 246.25 166.25 L 247.5 168.75 L 247.5 171.25 L 248.75 171.25 L 248.75 172.5 L 247.5 175.0 L 246.25 178.75 L 242.5 185.0 L 236.25 192.5 L 228.75 201.25 L 220.0 210.0 L 211.25 216.25 L 202.5 218.75 L 195.0 218.75 L 185.0 212.5 L 172.5 198.75 " stroke="black" fill="none" stroke-width="6.0" stroke-linecap="round" stroke-linejoin="round" />
<path d="M 161.25 101.25 L 161.25 100.0 L 161.25 100.0 L 161.25 103.75 L 161.25 140.0 L 161.25 203.75 L 157.5 251.25 L 155.0 271.25 L 151.25 277.5 " stroke="black" fill="none" stroke-width="6.0" stroke-linecap="round" stroke-linejoin="round" />
</svg>