<svg xmlns="http://www.w3.org/2000/svg" width="300" height="300" viewBox="0 0 300 300">
<path d="M 126.25 72.5 L 125.0 72.5 L 122.5 72.5 L 123.75 71.25 L 135.0 70.0 L 150.0 66.25 L 163.75 63.75 L 168.75 62.5 L 166.25 62.5 L 156.25 68.75 L 146.25 73.75 L 140.0 82.5 L 135.0 100.0 L 132.5 135.0 L 132.5 162.5 L 132.5 172.5 L 133.75 172.5 L 133.75 167.5 L 132.5 161.25 " stroke="black" fill="none" stroke-width="6.0" stroke-linecap="round" stroke-linejoin="round" />
<path d="M 132.5 102.5 L 132.5 102.5 L 132.5 101.25 L 137.5 100.0 L 150.0 97.5 L 166.25 97.5 L 177.5 106.25 L 180.0 127.5 L 175.0 147.5 L 168.75 157.5 L 162.5 160.0 L 160.0 160.0 " stroke="black" fill="none" stroke-width="6.0" stroke-linecap="round" stroke-linejoin="round" />
<path d="M 137.5 130.0 L 136.25 130.0 L 135.0 130.0 L 137.5 130.0 L 146.25 126.25 L 162.5 117.5 L 171.25 111.25 L 171.25 110.0 " stroke="black" fill="none" stroke-width="6.0" stroke-linecap="round" stroke-linejoin="round" />
<path d="M 137.5 147.5 L 137.5 147.5 L 137.5 147.5 L 140.0 146.25 L 153.75 140.0 L 170.0 132.5 L 175.0 131.25 L 173.75 132.5 " stroke="black" fill="none" stroke-width="6.0" stroke-linecap="round" stroke-linejoin="round" />
<path d="M 141.25 176.25 L 140.0 176.25 L 140.0 177.5 L 145.0 173.75 L 158.75 162.5 L 171.25 152.5 L 172.5 150.0 " stroke="black" fill="none" stroke-width="6.0" stroke-linecap="round" stroke-linejoin="round" />
<path d="M 97.5 182.5 L 96.25 183.75 L 95.0 185.0 L 98.75 201.25 L 107.5 216.25 L 117.5 227.5 L 121.25 228.75 " stroke="black" fill="none" stroke-width="6.0" stroke-linecap="round" stroke-linejoin="round" />
<path d="M 147.5 193.75 L 152.5 201.25 L 166.25 212.5 L 186.25 223.75 L 202.5 228.75 L 210.0 225.0 L 211.25 218.75 L 207.5 212.5 L 200.0 207.5 L 187.5 203.75 L 172.5 198.75 L 161.25 196.25 L 157.5 195.0 L 165.0 192.5 L 190.0 185.0 L 216.25 176.25 L 240.0 171.25 L 250.0 171.25 L 251.25 178.75 " stroke="black" fill="none" stroke-width="6.0" stroke-linecap="round" stroke-linejoin="round" />
</svg>