<svg xmlns="http://www.w3.org/2000/svg" width="300" height="300" viewBox="0 0 300 300">
<path d="M 66.25 141.25 L 66.25 141.25 L 66.25 141.25 L 66.25 142.5 L 71.25 150.0 L 75.0 160.0 L 78.75 166.25 L 82.5 168.75 L 91.25 162.5 L 101.25 151.25 L 111.25 141.25 L 117.5 135.0 L 118.75 131.25 L 111.25 131.25 L 105.0 131.25 L 100.0 131.25 L 96.25 128.75 L 93.75 123.75 L 91.25 116.25 L 88.75 111.25 L 88.75 111.25 L 91.25 128.75 L 97.5 167.5 L 101.25 212.5 L 98.75 243.75 L 92.5 250.0 " stroke="black" fill="none" stroke-width="6.0" stroke-linecap="round" stroke-linejoin="round" />
<path d="M 148.75 86.25 L 148.75 86.25 L 148.75 85.0 L 150.0 86.25 L 156.25 95.0 L 161.25 110.0 L 162.5 123.75 L 162.5 125.0 " stroke="black" fill="none" stroke-width="6.0" stroke-linecap="round" stroke-linejoin="round" />
<path d="M 183.75 70.0 L 186.25 67.5 L 187.5 67.5 L 190.0 75.0 L 187.5 91.25 L 178.75 112.5 L 163.75 130.0 L 160.0 132.5 " stroke="black" fill="none" stroke-width="6.0" stroke-linecap="round" stroke-linejoin="round" />
<path d="M 136.25 128.75 L 135.0 128.75 L 133.75 128.75 L 135.0 132.5 L 142.5 145.0 L 150.0 165.0 L 153.75 181.25 L 153.75 185.0 L 151.25 182.5 L 148.75 172.5 L 147.5 162.5 L 146.25 155.0 L 146.25 146.25 L 153.75 137.5 L 168.75 131.25 L 186.25 126.25 L 197.5 125.0 L 198.75 128.75 L 191.25 141.25 L 178.75 156.25 L 163.75 171.25 L 152.5 183.75 L 150.0 186.25 L 156.25 181.25 L 170.0 170.0 L 185.0 158.75 L 195.0 150.0 L 198.75 147.5 L 192.5 155.0 L 181.25 178.75 L 168.75 206.25 L 156.25 230.0 L 151.25 238.75 L 151.25 235.0 L 152.5 228.75 " stroke="black" fill="none" stroke-width="6.0" stroke-linecap="round" stroke-linejoin="round" />
<path d="M 186.25 173.75 L 186.25 176.25 L 188.75 186.25 L 196.25 205.0 L 205.0 226.25 L 216.25 238.75 L 228.75 241.25 L 241.25 237.5 L 248.75 231.25 L 252.5 227.5 L 252.5 223.75 L 251.25 218.75 L 247.5 210.0 L 242.5 191.25 L 237.5 156.25 " stroke="black" fill="none" stroke-width="6.0" stroke-linecap="round" stroke-linejoin="round" />
</svg>