<svg xmlns="http://www.w3.org/2000/svg" width="300" height="300" viewBox="0 0 300 300">
<path d="M 62.5 152.5 L 58.75 148.75 L 57.5 147.5 L 60.0 146.25 L 65.0 151.25 L 70.0 160.0 L 72.5 170.0 L 73.75 176.25 L 77.5 177.5 L 88.75 170.0 L 103.75 158.75 L 116.25 148.75 L 123.75 142.5 L 125.0 138.75 L 120.0 137.5 L 112.5 136.25 L 105.0 135.0 L 98.75 132.5 L 93.75 130.0 L 90.0 125.0 L 90.0 121.25 L 90.0 118.75 L 90.0 120.0 L 93.75 136.25 L 97.5 173.75 L 98.75 216.25 L 97.5 241.25 L 93.75 247.5 L 91.25 246.25 " stroke="black" fill="none" stroke-width="6.0" stroke-linecap="round" stroke-linejoin="round" />
<path d="M 152.5 101.25 L 152.5 101.25 L 150.0 101.25 L 148.75 102.5 L 150.0 112.5 L 152.5 133.75 L 153.75 146.25 L 156.25 148.75 L 161.25 147.5 L 172.5 140.0 L 186.25 131.25 L 197.5 122.5 L 205.0 113.75 L 207.5 105.0 L 207.5 101.25 L 205.0 100.0 L 202.5 98.75 L 201.25 98.75 L 200.0 97.5 L 200.0 97.5 L 198.75 97.5 L 198.75 97.5 L 198.75 97.5 L 198.75 97.5 L 198.75 97.5 L 198.75 97.5 L 200.0 98.75 L 203.75 106.25 L 211.25 120.0 L 213.75 140.0 L 210.0 157.5 L 208.75 161.25 " stroke="black" fill="none" stroke-width="6.0" stroke-linecap="round" stroke-linejoin="round" />
<path d="M 147.5 201.25 L 145.0 201.25 L 142.5 201.25 L 143.75 201.25 L 153.75 207.5 L 166.25 222.5 L 175.0 236.25 L 176.25 242.5 L 172.5 240.0 L 168.75 231.25 L 165.0 221.25 L 161.25 211.25 L 156.25 202.5 L 151.25 198.75 L 150.0 197.5 L 152.5 197.5 L 167.5 195.0 L 188.75 190.0 L 210.0 185.0 L 221.25 183.75 L 222.5 187.5 L 215.0 197.5 L 205.0 210.0 L 193.75 223.75 L 182.5 236.25 L 178.75 241.25 L 180.0 241.25 L 187.5 240.0 L 200.0 236.25 L 212.5 231.25 L 223.75 226.25 L 230.0 221.25 " stroke="black" fill="none" stroke-width="6.0" stroke-linecap="round" stroke-linejoin="round" />
</svg>