<svg xmlns="http://www.w3.org/2000/svg" width="300" height="300" viewBox="0 0 300 300">
<path d="M 73.75 137.5 L 73.75 137.5 L 73.75 137.5 L 73.75 138.75 L 76.25 147.5 L 78.75 158.75 L 82.5 166.25 L 92.5 165.0 L 106.25 155.0 L 120.0 143.75 L 126.25 137.5 L 127.5 132.5 L 122.5 131.25 L 113.75 131.25 L 107.5 131.25 L 101.25 130.0 L 97.5 127.5 L 95.0 121.25 L 93.75 113.75 L 92.5 108.75 L 92.5 106.25 L 92.5 105.0 L 96.25 118.75 L 102.5 150.0 L 106.25 205.0 L 103.75 246.25 L 97.5 261.25 L 90.0 262.5 L 85.0 260.0 " stroke="black" fill="none" stroke-width="6.0" stroke-linecap="round" stroke-linejoin="round" />
<path d="M 152.5 100.0 L 152.5 101.25 L 152.5 105.0 L 156.25 106.25 L 171.25 103.75 L 191.25 98.75 L 205.0 91.25 L 207.5 87.5 L 206.25 87.5 " stroke="black" fill="none" stroke-width="6.0" stroke-linecap="round" stroke-linejoin="round" />
<path d="M 145.0 136.25 L 145.0 140.0 L 145.0 151.25 L 150.0 166.25 L 157.5 181.25 L 162.5 186.25 L 162.5 186.25 L 160.0 181.25 L 156.25 175.0 L 151.25 168.75 L 146.25 162.5 L 143.75 156.25 L 145.0 150.0 L 160.0 143.75 L 186.25 136.25 L 208.75 131.25 L 217.5 130.0 L 213.75 133.75 L 201.25 145.0 L 187.5 157.5 L 168.75 171.25 L 156.25 183.75 L 158.75 183.75 L 173.75 173.75 L 192.5 158.75 L 206.25 143.75 L 211.25 131.25 L 210.0 123.75 L 202.5 120.0 L 195.0 116.25 L 188.75 108.75 L 182.5 98.75 L 178.75 88.75 L 176.25 82.5 L 176.25 81.25 L 176.25 87.5 L 180.0 113.75 L 186.25 161.25 L 190.0 216.25 L 191.25 247.5 L 191.25 256.25 L 188.75 257.5 L 183.75 255.0 L 178.75 247.5 " stroke="black" fill="none" stroke-width="6.0" stroke-linecap="round" stroke-linejoin="round" />
<path d="M 183.75 178.75 L 180.0 186.25 L 167.5 201.25 L 155.0 217.5 L 143.75 233.75 L 135.0 237.5 L 132.5 237.5 " stroke="black" fill="none" stroke-width="6.0" stroke-linecap="round" stroke-linejoin="round" />
<path d="M 183.75 168.75 L 186.25 170.0 L 197.5 181.25 L 213.75 197.5 L 231.25 211.25 L 247.5 220.0 L 260.0 228.75 L 266.25 235.0 L 267.5 236.25 " stroke="black" fill="none" stroke-width="6.0" stroke-linecap="round" stroke-linejoin="round" />
</svg>