<svg xmlns="http://www.w3.org/2000/svg" width="300" height="300" viewBox="0 0 300 300">
<path d="M 53.75 140.0 L 55.0 137.5 L 55.0 136.25 L 55.0 138.75 L 57.5 150.0 L 58.75 165.0 L 60.0 175.0 L 65.0 177.5 L 77.5 167.5 L 93.75 151.25 L 106.25 140.0 L 115.0 132.5 L 117.5 127.5 L 113.75 126.25 L 106.25 126.25 L 101.25 127.5 L 96.25 127.5 L 91.25 126.25 L 88.75 123.75 L 87.5 120.0 L 87.5 116.25 L 87.5 113.75 L 87.5 116.25 L 91.25 136.25 L 96.25 175.0 L 98.75 215.0 L 98.75 241.25 L 96.25 250.0 L 92.5 251.25 L 90.0 248.75 L 88.75 246.25 " stroke="black" fill="none" stroke-width="6.0" stroke-linecap="round" stroke-linejoin="round" />
<path d="M 145.0 71.25 L 145.0 70.0 L 146.25 71.25 L 152.5 86.25 L 157.5 107.5 L 160.0 123.75 L 156.25 128.75 L 155.0 128.75 " stroke="black" fill="none" stroke-width="6.0" stroke-linecap="round" stroke-linejoin="round" />
<path d="M 151.25 97.5 L 150.0 95.0 L 150.0 92.5 L 156.25 88.75 L 168.75 82.5 L 182.5 73.75 L 190.0 70.0 L 188.75 70.0 " stroke="black" fill="none" stroke-width="6.0" stroke-linecap="round" stroke-linejoin="round" />
<path d="M 126.25 141.25 L 126.25 141.25 L 126.25 141.25 L 126.25 141.25 L 126.25 141.25 L 127.5 145.0 L 133.75 157.5 L 143.75 190.0 L 147.5 201.25 L 148.75 203.75 L 148.75 201.25 L 147.5 195.0 L 146.25 188.75 L 145.0 181.25 L 143.75 173.75 L 141.25 167.5 L 136.25 162.5 L 132.5 161.25 L 131.25 160.0 L 137.5 155.0 L 151.25 147.5 L 172.5 137.5 L 192.5 133.75 L 200.0 136.25 L 198.75 146.25 L 188.75 160.0 L 177.5 171.25 L 163.75 181.25 L 158.75 183.75 " stroke="black" fill="none" stroke-width="6.0" stroke-linecap="round" stroke-linejoin="round" />
<path d="M 145.0 177.5 L 145.0 177.5 L 142.5 177.5 L 141.25 177.5 L 141.25 176.25 L 151.25 168.75 L 167.5 156.25 L 185.0 145.0 L 190.0 141.25 L 187.5 142.5 " stroke="black" fill="none" stroke-width="6.0" stroke-linecap="round" stroke-linejoin="round" />
<path d="M 150.0 191.25 L 146.25 195.0 L 146.25 195.0 L 155.0 187.5 L 170.0 175.0 L 182.5 162.5 L 185.0 156.25 L 185.0 156.25 " stroke="black" fill="none" stroke-width="6.0" stroke-linecap="round" stroke-linejoin="round" />
<path d="M 123.75 240.0 L 120.0 245.0 L 120.0 246.25 L 132.5 241.25 L 152.5 225.0 L 181.25 205.0 L 207.5 187.5 L 217.5 178.75 L 220.0 175.0 L 215.0 173.75 L 206.25 175.0 L 198.75 177.5 " stroke="black" fill="none" stroke-width="6.0" stroke-linecap="round" stroke-linejoin="round" />
<path d="M 185.0 171.25 L 183.75 171.25 L 183.75 171.25 L 183.75 173.75 L 185.0 193.75 L 188.75 227.5 L 192.5 253.75 L 192.5 267.5 L 191.25 273.75 L 186.25 275.0 L 180.0 273.75 L 175.0 270.0 " stroke="black" fill="none" stroke-width="6.0" stroke-linecap="round" stroke-linejoin="round" />
</svg>