<svg xmlns="http://www.w3.org/2000/svg" width="300" height="300" viewBox="0 0 300 300">
<path d="M 101.25 76.25 L 100.0 75.0 L 97.5 76.25 L 90.0 91.25 L 73.75 118.75 L 62.5 137.5 L 57.5 140.0 L 57.5 132.5 L 65.0 122.5 L 75.0 111.25 L 85.0 103.75 L 91.25 102.5 L 96.25 110.0 L 100.0 133.75 L 100.0 156.25 L 97.5 172.5 L 92.5 180.0 L 88.75 178.75 " stroke="black" fill="none" stroke-width="6.0" stroke-linecap="round" stroke-linejoin="round" />
<path d="M 110.0 108.75 L 111.25 108.75 L 111.25 107.5 L 111.25 107.5 L 115.0 117.5 L 118.75 128.75 L 121.25 148.75 L 120.0 151.25 " stroke="black" fill="none" stroke-width="6.0" stroke-linecap="round" stroke-linejoin="round" />
<path d="M 152.5 66.25 L 152.5 65.0 L 152.5 65.0 L 152.5 65.0 L 152.5 73.75 L 157.5 86.25 L 166.25 92.5 L 182.5 90.0 L 200.0 77.5 L 210.0 65.0 L 213.75 58.75 L 208.75 61.25 L 200.0 70.0 " stroke="black" fill="none" stroke-width="6.0" stroke-linecap="round" stroke-linejoin="round" />
<path d="M 187.5 100.0 L 185.0 103.75 L 177.5 130.0 L 165.0 152.5 L 152.5 170.0 L 145.0 177.5 L 136.25 176.25 L 131.25 162.5 " stroke="black" fill="none" stroke-width="6.0" stroke-linecap="round" stroke-linejoin="round" />
<path d="M 148.75 120.0 L 150.0 117.5 L 156.25 117.5 L 168.75 128.75 L 188.75 145.0 L 210.0 161.25 L 227.5 173.75 L 231.25 183.75 L 222.5 188.75 " stroke="black" fill="none" stroke-width="6.0" stroke-linecap="round" stroke-linejoin="round" />
<path d="M 73.75 230.0 L 71.25 227.5 L 71.25 227.5 L 81.25 236.25 L 96.25 253.75 L 113.75 268.75 L 121.25 268.75 " stroke="black" fill="none" stroke-width="6.0" stroke-linecap="round" stroke-linejoin="round" />
<path d="M 150.0 200.0 L 150.0 200.0 L 151.25 202.5 L 161.25 217.5 L 182.5 242.5 L 205.0 251.25 L 223.75 250.0 L 232.5 241.25 L 230.0 232.5 L 217.5 223.75 L 200.0 216.25 L 180.0 210.0 L 163.75 207.5 L 161.25 207.5 L 175.0 208.75 L 205.0 205.0 L 236.25 200.0 L 260.0 197.5 L 265.0 197.5 " stroke="black" fill="none" stroke-width="6.0" stroke-linecap="round" stroke-linejoin="round" />
</svg>