<svg xmlns="http://www.w3.org/2000/svg" width="300" height="300" viewBox="0 0 300 300">
<path d="M 65.0 138.75 L 65.0 136.25 L 63.75 135.0 L 63.75 135.0 L 65.0 142.5 L 68.75 155.0 L 71.25 166.25 L 77.5 171.25 L 90.0 167.5 L 105.0 152.5 L 116.25 138.75 L 120.0 130.0 L 117.5 127.5 L 108.75 126.25 L 101.25 127.5 L 100.0 127.5 " stroke="black" fill="none" stroke-width="6.0" stroke-linecap="round" stroke-linejoin="round" />
<path d="M 90.0 105.0 L 88.75 105.0 L 86.25 101.25 L 85.0 100.0 L 85.0 100.0 L 88.75 111.25 L 92.5 142.5 L 95.0 196.25 L 91.25 238.75 L 85.0 251.25 L 77.5 253.75 L 75.0 253.75 " stroke="black" fill="none" stroke-width="6.0" stroke-linecap="round" stroke-linejoin="round" />
<path d="M 141.25 93.75 L 141.25 93.75 L 141.25 92.5 L 152.5 92.5 L 172.5 95.0 L 195.0 97.5 L 205.0 97.5 L 202.5 100.0 L 200.0 102.5 " stroke="black" fill="none" stroke-width="6.0" stroke-linecap="round" stroke-linejoin="round" />
<path d="M 141.25 160.0 L 140.0 165.0 L 143.75 165.0 L 158.75 155.0 L 182.5 138.75 L 198.75 123.75 L 200.0 115.0 " stroke="black" fill="none" stroke-width="6.0" stroke-linecap="round" stroke-linejoin="round" />
<path d="M 162.5 112.5 L 162.5 112.5 L 163.75 113.75 L 165.0 118.75 L 168.75 138.75 L 168.75 168.75 L 161.25 193.75 L 157.5 198.75 " stroke="black" fill="none" stroke-width="6.0" stroke-linecap="round" stroke-linejoin="round" />
<path d="M 135.0 195.0 L 135.0 196.25 L 135.0 200.0 L 145.0 210.0 L 161.25 226.25 L 177.5 240.0 L 185.0 243.75 L 185.0 243.75 L 180.0 241.25 L 172.5 237.5 L 162.5 232.5 L 152.5 223.75 L 146.25 215.0 L 146.25 206.25 L 158.75 197.5 L 181.25 190.0 L 203.75 183.75 L 218.75 180.0 L 223.75 183.75 L 218.75 196.25 L 206.25 212.5 L 192.5 228.75 L 182.5 241.25 L 181.25 242.5 L 193.75 236.25 L 211.25 222.5 L 230.0 206.25 L 241.25 197.5 " stroke="black" fill="none" stroke-width="6.0" stroke-linecap="round" stroke-linejoin="round" />
</svg>