<svg xmlns="http://www.w3.org/2000/svg" width="300" height="300" viewBox="0 0 300 300">
<path d="M 67.5 118.75 L 67.5 118.75 L 67.5 118.75 L 66.25 120.0 L 66.25 132.5 L 65.0 148.75 L 63.75 161.25 L 61.25 165.0 L 60.0 163.75 " stroke="black" fill="none" stroke-width="6.0" stroke-linecap="round" stroke-linejoin="round" />
<path d="M 82.5 96.25 L 82.5 93.75 L 82.5 92.5 L 83.75 98.75 L 85.0 130.0 L 87.5 178.75 L 87.5 215.0 L 85.0 233.75 L 83.75 241.25 L 82.5 243.75 L 80.0 238.75 L 78.75 222.5 " stroke="black" fill="none" stroke-width="6.0" stroke-linecap="round" stroke-linejoin="round" />
<path d="M 88.75 153.75 L 88.75 153.75 L 87.5 152.5 L 87.5 152.5 L 87.5 151.25 L 97.5 151.25 L 115.0 150.0 L 133.75 143.75 " stroke="black" fill="none" stroke-width="6.0" stroke-linecap="round" stroke-linejoin="round" />
<path d="M 155.0 88.75 L 155.0 88.75 L 155.0 88.75 L 156.25 88.75 L 167.5 88.75 L 188.75 91.25 L 206.25 98.75 L 212.5 108.75 L 211.25 122.5 L 202.5 133.75 L 190.0 142.5 L 176.25 147.5 L 165.0 148.75 " stroke="black" fill="none" stroke-width="6.0" stroke-linecap="round" stroke-linejoin="round" />
<path d="M 148.75 140.0 L 147.5 140.0 L 146.25 138.75 L 151.25 136.25 L 167.5 130.0 L 187.5 121.25 L 200.0 116.25 L 197.5 118.75 L 191.25 122.5 " stroke="black" fill="none" stroke-width="6.0" stroke-linecap="round" stroke-linejoin="round" />
<path d="M 150.0 175.0 L 148.75 175.0 L 148.75 176.25 L 157.5 170.0 L 178.75 152.5 L 200.0 132.5 L 206.25 120.0 L 201.25 117.5 L 198.75 117.5 " stroke="black" fill="none" stroke-width="6.0" stroke-linecap="round" stroke-linejoin="round" />
<path d="M 147.5 107.5 L 146.25 110.0 L 146.25 130.0 L 147.5 176.25 L 147.5 223.75 L 147.5 248.75 L 151.25 256.25 L 161.25 257.5 L 180.0 251.25 L 203.75 233.75 L 223.75 212.5 L 238.75 197.5 L 242.5 187.5 L 240.0 181.25 L 232.5 178.75 L 223.75 176.25 L 215.0 176.25 L 207.5 176.25 L 202.5 178.75 L 198.75 182.5 L 195.0 186.25 L 191.25 188.75 L 186.25 190.0 L 182.5 191.25 L 181.25 191.25 L 180.0 191.25 L 180.0 191.25 L 180.0 190.0 L 181.25 190.0 L 181.25 190.0 L 181.25 190.0 L 183.75 190.0 L 192.5 192.5 L 208.75 203.75 L 235.0 222.5 L 260.0 240.0 L 275.0 250.0 L 276.25 251.25 " stroke="black" fill="none" stroke-width="6.0" stroke-linecap="round" stroke-linejoin="round" />
</svg>