<svg xmlns="http://www.w3.org/2000/svg" width="300" height="300" viewBox="0 0 300 300">
<path d="M 53.75 141.25 L 53.75 138.75 L 53.75 136.25 L 55.0 136.25 L 58.75 141.25 L 61.25 150.0 L 66.25 157.5 L 80.0 160.0 L 97.5 152.5 L 111.25 142.5 L 118.75 135.0 L 118.75 131.25 L 112.5 130.0 L 107.5 128.75 " stroke="black" fill="none" stroke-width="6.0" stroke-linecap="round" stroke-linejoin="round" />
<path d="M 95.0 101.25 L 93.75 101.25 L 92.5 102.5 L 91.25 126.25 L 91.25 172.5 L 92.5 211.25 L 91.25 226.25 L 88.75 230.0 " stroke="black" fill="none" stroke-width="6.0" stroke-linecap="round" stroke-linejoin="round" />
<path d="M 145.0 81.25 L 145.0 78.75 L 142.5 77.5 L 135.0 86.25 L 120.0 115.0 L 107.5 145.0 L 105.0 150.0 L 107.5 140.0 " stroke="black" fill="none" stroke-width="6.0" stroke-linecap="round" stroke-linejoin="round" />
<path d="M 137.5 101.25 L 138.75 98.75 L 140.0 106.25 L 141.25 141.25 L 138.75 190.0 L 137.5 215.0 L 136.25 222.5 L 133.75 218.75 " stroke="black" fill="none" stroke-width="6.0" stroke-linecap="round" stroke-linejoin="round" />
<path d="M 161.25 83.75 L 161.25 82.5 L 162.5 80.0 L 167.5 80.0 L 180.0 81.25 L 193.75 85.0 L 202.5 88.75 L 202.5 92.5 L 201.25 93.75 " stroke="black" fill="none" stroke-width="6.0" stroke-linecap="round" stroke-linejoin="round" />
<path d="M 158.75 120.0 L 155.0 121.25 L 153.75 122.5 L 158.75 122.5 L 175.0 115.0 L 191.25 106.25 L 203.75 98.75 L 203.75 97.5 " stroke="black" fill="none" stroke-width="6.0" stroke-linecap="round" stroke-linejoin="round" />
<path d="M 152.5 171.25 L 151.25 176.25 L 153.75 176.25 L 168.75 168.75 L 192.5 151.25 L 208.75 136.25 L 212.5 130.0 L 211.25 128.75 " stroke="black" fill="none" stroke-width="6.0" stroke-linecap="round" stroke-linejoin="round" />
<path d="M 178.75 121.25 L 180.0 121.25 L 180.0 126.25 L 182.5 151.25 L 182.5 190.0 L 180.0 211.25 L 180.0 215.0 L 176.25 213.75 L 176.25 212.5 " stroke="black" fill="none" stroke-width="6.0" stroke-linecap="round" stroke-linejoin="round" />
<path d="M 157.5 197.5 L 155.0 200.0 L 153.75 200.0 L 151.25 201.25 L 165.0 197.5 L 186.25 187.5 L 205.0 175.0 L 216.25 165.0 L 216.25 162.5 " stroke="black" fill="none" stroke-width="6.0" stroke-linecap="round" stroke-linejoin="round" />
<path d="M 162.5 223.75 L 162.5 225.0 L 165.0 225.0 L 182.5 218.75 L 206.25 210.0 L 227.5 202.5 L 237.5 200.0 L 237.5 200.0 L 231.25 201.25 " stroke="black" fill="none" stroke-width="6.0" stroke-linecap="round" stroke-linejoin="round" />
</svg>