<svg xmlns="http://www.w3.org/2000/svg" width="300" height="300" viewBox="0 0 300 300">
<path d="M 61.25 145.0 L 61.25 145.0 L 60.0 145.0 L 60.0 147.5 L 65.0 156.25 L 70.0 166.25 L 73.75 171.25 L 81.25 171.25 L 91.25 162.5 L 102.5 151.25 L 112.5 141.25 L 117.5 135.0 L 117.5 133.75 L 113.75 132.5 L 106.25 135.0 L 101.25 137.5 L 98.75 137.5 " stroke="black" fill="none" stroke-width="6.0" stroke-linecap="round" stroke-linejoin="round" />
<path d="M 86.25 106.25 L 85.0 105.0 L 83.75 103.75 L 83.75 103.75 L 87.5 122.5 L 92.5 161.25 L 93.75 201.25 L 93.75 223.75 L 91.25 235.0 L 87.5 237.5 " stroke="black" fill="none" stroke-width="6.0" stroke-linecap="round" stroke-linejoin="round" />
<path d="M 143.75 92.5 L 143.75 86.25 L 143.75 82.5 L 143.75 83.75 L 148.75 103.75 L 152.5 132.5 L 153.75 157.5 L 155.0 166.25 L 155.0 165.0 L 153.75 153.75 " stroke="black" fill="none" stroke-width="6.0" stroke-linecap="round" stroke-linejoin="round" />
<path d="M 145.0 98.75 L 145.0 100.0 L 142.5 100.0 L 141.25 100.0 L 151.25 97.5 L 167.5 90.0 L 183.75 82.5 L 191.25 77.5 L 187.5 78.75 L 177.5 83.75 L 167.5 90.0 L 157.5 97.5 L 151.25 107.5 L 150.0 116.25 L 148.75 120.0 L 153.75 121.25 L 165.0 116.25 L 178.75 108.75 L 190.0 101.25 L 193.75 98.75 L 187.5 100.0 L 178.75 105.0 " stroke="black" fill="none" stroke-width="6.0" stroke-linecap="round" stroke-linejoin="round" />
<path d="M 152.5 137.5 L 152.5 138.75 L 151.25 140.0 L 155.0 140.0 L 171.25 133.75 L 190.0 122.5 L 200.0 115.0 L 197.5 115.0 L 192.5 117.5 " stroke="black" fill="none" stroke-width="6.0" stroke-linecap="round" stroke-linejoin="round" />
<path d="M 117.5 191.25 L 115.0 195.0 L 116.25 196.25 L 132.5 190.0 L 157.5 176.25 L 185.0 160.0 L 202.5 151.25 L 203.75 148.75 L 196.25 148.75 L 185.0 151.25 L 170.0 155.0 L 156.25 160.0 L 148.75 167.5 L 146.25 181.25 L 146.25 202.5 L 150.0 230.0 L 156.25 247.5 L 162.5 253.75 L 171.25 252.5 L 183.75 243.75 L 197.5 228.75 L 211.25 210.0 L 221.25 193.75 L 228.75 181.25 L 228.75 176.25 L 220.0 175.0 L 208.75 176.25 L 198.75 182.5 L 188.75 187.5 L 182.5 192.5 L 180.0 195.0 L 180.0 195.0 L 181.25 195.0 L 182.5 195.0 L 182.5 195.0 L 183.75 195.0 L 183.75 195.0 L 183.75 195.0 L 183.75 195.0 L 183.75 195.0 L 183.75 195.0 L 183.75 193.75 L 183.75 193.75 L 183.75 193.75 L 187.5 193.75 L 198.75 200.0 L 220.0 211.25 L 245.0 225.0 L 257.5 232.5 L 257.5 232.5 " stroke="black" fill="none" stroke-width="6.0" stroke-linecap="round" stroke-linejoin="round" />
</svg>