<svg xmlns="http://www.w3.org/2000/svg" width="300" height="300" viewBox="0 0 300 300">
<path d="M 51.25 128.75 L 51.25 128.75 L 51.25 131.25 L 51.25 132.5 L 51.25 133.75 L 51.25 138.75 L 51.25 150.0 L 51.25 161.25 L 51.25 166.25 L 52.5 167.5 L 57.5 167.5 L 60.0 166.25 L 77.5 156.25 L 87.5 150.0 L 95.0 143.75 L 101.25 138.75 L 105.0 133.75 L 107.5 128.75 L 108.75 125.0 L 108.75 123.75 L 105.0 122.5 L 98.75 122.5 L 92.5 123.75 L 88.75 125.0 L 83.75 125.0 L 81.25 123.75 L 80.0 122.5 L 78.75 120.0 L 77.5 117.5 L 76.25 115.0 L 76.25 113.75 L 76.25 113.75 L 76.25 113.75 L 76.25 115.0 L 76.25 127.5 L 78.75 162.5 L 78.75 210.0 L 77.5 235.0 L 76.25 236.25 " stroke="black" fill="none" stroke-width="6.0" stroke-linecap="round" stroke-linejoin="round" />
<path d="M 125.0 101.25 L 125.0 100.0 L 125.0 96.25 L 125.0 92.5 L 125.0 91.25 L 125.0 92.5 L 125.0 115.0 L 125.0 155.0 L 125.0 188.75 L 127.5 196.25 L 128.75 191.25 L 128.75 186.25 " stroke="black" fill="none" stroke-width="6.0" stroke-linecap="round" stroke-linejoin="round" />
<path d="M 123.75 103.75 L 123.75 102.5 L 123.75 100.0 L 127.5 95.0 L 136.25 91.25 L 146.25 91.25 L 153.75 105.0 L 158.75 136.25 L 160.0 166.25 L 160.0 182.5 L 157.5 187.5 L 155.0 187.5 L 153.75 183.75 " stroke="black" fill="none" stroke-width="6.0" stroke-linecap="round" stroke-linejoin="round" />
<path d="M 120.0 142.5 L 118.75 142.5 L 116.25 143.75 L 120.0 143.75 L 133.75 137.5 L 146.25 130.0 L 155.0 121.25 L 156.25 120.0 " stroke="black" fill="none" stroke-width="6.0" stroke-linecap="round" stroke-linejoin="round" />
<path d="M 123.75 162.5 L 122.5 163.75 L 122.5 165.0 L 127.5 162.5 L 140.0 155.0 L 152.5 145.0 L 156.25 141.25 L 156.25 141.25 " stroke="black" fill="none" stroke-width="6.0" stroke-linecap="round" stroke-linejoin="round" />
<path d="M 125.0 198.75 L 122.5 201.25 L 122.5 202.5 L 133.75 197.5 L 148.75 185.0 L 162.5 172.5 L 166.25 170.0 L 156.25 185.0 L 142.5 206.25 L 126.25 227.5 L 113.75 241.25 L 111.25 242.5 " stroke="black" fill="none" stroke-width="6.0" stroke-linecap="round" stroke-linejoin="round" />
<path d="M 146.25 196.25 L 147.5 196.25 L 150.0 196.25 L 157.5 202.5 L 167.5 217.5 L 177.5 230.0 L 183.75 232.5 " stroke="black" fill="none" stroke-width="6.0" stroke-linecap="round" stroke-linejoin="round" />
<path d="M 192.5 140.0 L 192.5 140.0 L 191.25 140.0 L 191.25 146.25 L 192.5 166.25 L 195.0 183.75 L 198.75 188.75 " stroke="black" fill="none" stroke-width="6.0" stroke-linecap="round" stroke-linejoin="round" />
<path d="M 221.25 90.0 L 222.5 86.25 L 223.75 81.25 L 223.75 85.0 L 227.5 111.25 L 230.0 156.25 L 231.25 201.25 L 233.75 225.0 L 235.0 236.25 L 235.0 237.5 L 235.0 237.5 L 235.0 235.0 L 228.75 226.25 L 216.25 216.25 " stroke="black" fill="none" stroke-width="6.0" stroke-linecap="round" stroke-linejoin="round" />
</svg>