<svg xmlns="http://www.w3.org/2000/svg" width="300" height="300" viewBox="0 0 300 300">
<path d="M 71.25 103.75 L 68.75 106.25 L 66.25 107.5 L 68.75 108.75 L 81.25 106.25 L 97.5 101.25 L 116.25 93.75 L 130.0 86.25 L 133.75 82.5 L 128.75 82.5 L 120.0 85.0 L 113.75 88.75 L 108.75 92.5 L 106.25 95.0 L 105.0 100.0 L 106.25 111.25 L 110.0 137.5 L 112.5 178.75 L 111.25 211.25 L 108.75 225.0 L 105.0 228.75 L 103.75 226.25 " stroke="black" fill="none" stroke-width="6.0" stroke-linecap="round" stroke-linejoin="round" />
<path d="M 65.0 128.75 L 65.0 127.5 L 65.0 128.75 L 66.25 142.5 L 68.75 177.5 L 70.0 201.25 L 70.0 207.5 L 66.25 206.25 " stroke="black" fill="none" stroke-width="6.0" stroke-linecap="round" stroke-linejoin="round" />
<path d="M 72.5 152.5 L 72.5 152.5 L 72.5 152.5 L 72.5 151.25 L 81.25 147.5 L 95.0 141.25 L 105.0 136.25 L 107.5 135.0 L 105.0 135.0 " stroke="black" fill="none" stroke-width="6.0" stroke-linecap="round" stroke-linejoin="round" />
<path d="M 77.5 166.25 L 76.25 168.75 L 72.5 173.75 L 73.75 173.75 L 81.25 168.75 L 92.5 161.25 L 101.25 153.75 L 105.0 150.0 L 105.0 150.0 " stroke="black" fill="none" stroke-width="6.0" stroke-linecap="round" stroke-linejoin="round" />
<path d="M 65.0 213.75 L 62.5 217.5 L 63.75 218.75 L 76.25 211.25 L 96.25 195.0 L 120.0 173.75 L 130.0 160.0 " stroke="black" fill="none" stroke-width="6.0" stroke-linecap="round" stroke-linejoin="round" />
<path d="M 135.0 140.0 L 135.0 141.25 L 132.5 147.5 L 133.75 160.0 L 138.75 183.75 L 142.5 202.5 L 143.75 207.5 L 143.75 207.5 " stroke="black" fill="none" stroke-width="6.0" stroke-linecap="round" stroke-linejoin="round" />
<path d="M 162.5 151.25 L 162.5 152.5 L 162.5 161.25 L 165.0 175.0 L 175.0 190.0 L 192.5 197.5 L 208.75 197.5 L 220.0 191.25 L 223.75 187.5 L 220.0 186.25 L 210.0 183.75 L 196.25 178.75 L 180.0 173.75 L 168.75 167.5 L 167.5 160.0 L 182.5 153.75 L 201.25 146.25 L 216.25 141.25 L 227.5 138.75 L 232.5 138.75 " stroke="black" fill="none" stroke-width="6.0" stroke-linecap="round" stroke-linejoin="round" />
</svg>