<svg xmlns="http://www.w3.org/2000/svg" width="300" height="300" viewBox="0 0 300 300">
<path d="M 61.25 127.5 L 60.0 130.0 L 60.0 137.5 L 61.25 151.25 L 63.75 165.0 L 68.75 171.25 L 80.0 170.0 L 95.0 157.5 L 112.5 142.5 L 125.0 132.5 L 131.25 127.5 L 130.0 126.25 L 122.5 126.25 L 112.5 127.5 L 105.0 127.5 L 98.75 125.0 L 95.0 120.0 L 93.75 112.5 L 92.5 108.75 L 92.5 107.5 L 93.75 128.75 L 96.25 170.0 L 97.5 213.75 L 97.5 241.25 L 96.25 248.75 L 92.5 247.5 " stroke="black" fill="none" stroke-width="6.0" stroke-linecap="round" stroke-linejoin="round" />
<path d="M 168.75 80.0 L 168.75 78.75 L 168.75 76.25 L 172.5 76.25 L 178.75 82.5 L 185.0 93.75 L 186.25 103.75 L 182.5 107.5 " stroke="black" fill="none" stroke-width="6.0" stroke-linecap="round" stroke-linejoin="round" />
<path d="M 145.0 100.0 L 143.75 100.0 L 143.75 100.0 L 142.5 100.0 L 148.75 103.75 L 161.25 111.25 L 178.75 112.5 L 187.5 110.0 " stroke="black" fill="none" stroke-width="6.0" stroke-linecap="round" stroke-linejoin="round" />
<path d="M 210.0 83.75 L 210.0 82.5 L 210.0 81.25 L 203.75 86.25 L 192.5 102.5 L 180.0 123.75 L 168.75 137.5 L 165.0 140.0 L 163.75 136.25 L 163.75 135.0 L 163.75 133.75 L 162.5 142.5 L 160.0 173.75 L 158.75 211.25 L 158.75 240.0 L 161.25 251.25 L 161.25 251.25 L 161.25 246.25 " stroke="black" fill="none" stroke-width="6.0" stroke-linecap="round" stroke-linejoin="round" />
<path d="M 161.25 148.75 L 161.25 146.25 L 165.0 142.5 L 177.5 138.75 L 196.25 136.25 L 212.5 142.5 L 220.0 163.75 L 220.0 195.0 L 217.5 221.25 L 216.25 241.25 L 215.0 255.0 L 215.0 256.25 L 213.75 252.5 L 210.0 246.25 L 203.75 236.25 L 200.0 230.0 " stroke="black" fill="none" stroke-width="6.0" stroke-linecap="round" stroke-linejoin="round" />
<path d="M 156.25 187.5 L 153.75 187.5 L 152.5 187.5 L 156.25 187.5 L 173.75 181.25 L 196.25 168.75 L 212.5 156.25 L 216.25 151.25 L 213.75 151.25 " stroke="black" fill="none" stroke-width="6.0" stroke-linecap="round" stroke-linejoin="round" />
<path d="M 170.0 202.5 L 168.75 205.0 L 168.75 206.25 L 182.5 198.75 L 203.75 182.5 L 218.75 168.75 " stroke="black" fill="none" stroke-width="6.0" stroke-linecap="round" stroke-linejoin="round" />
</svg>