<svg xmlns="http://www.w3.org/2000/svg" width="300" height="300" viewBox="0 0 300 300">
<path d="M 58.75 136.25 L 58.75 135.0 L 57.5 133.75 L 57.5 136.25 L 60.0 145.0 L 65.0 153.75 L 72.5 158.75 L 85.0 155.0 L 100.0 143.75 L 111.25 132.5 L 117.5 125.0 L 117.5 122.5 L 111.25 121.25 L 103.75 120.0 L 97.5 116.25 L 93.75 111.25 L 92.5 106.25 L 91.25 98.75 L 91.25 93.75 L 90.0 92.5 L 90.0 92.5 L 90.0 101.25 L 91.25 132.5 L 92.5 180.0 L 93.75 227.5 L 91.25 246.25 L 87.5 248.75 L 82.5 246.25 " stroke="black" fill="none" stroke-width="6.0" stroke-linecap="round" stroke-linejoin="round" />
<path d="M 138.75 90.0 L 137.5 91.25 L 135.0 91.25 L 136.25 91.25 L 146.25 87.5 L 163.75 80.0 L 181.25 70.0 L 186.25 65.0 L 180.0 63.75 L 168.75 66.25 L 161.25 67.5 L 155.0 67.5 L 152.5 67.5 L 152.5 76.25 L 155.0 97.5 L 157.5 122.5 L 157.5 136.25 L 153.75 137.5 L 148.75 132.5 " stroke="black" fill="none" stroke-width="6.0" stroke-linecap="round" stroke-linejoin="round" />
<path d="M 137.5 120.0 L 136.25 117.5 L 136.25 115.0 L 140.0 111.25 L 151.25 106.25 L 167.5 100.0 L 181.25 95.0 L 182.5 95.0 L 168.75 101.25 " stroke="black" fill="none" stroke-width="6.0" stroke-linecap="round" stroke-linejoin="round" />
<path d="M 112.5 153.75 L 108.75 157.5 L 106.25 161.25 L 116.25 158.75 L 141.25 146.25 L 171.25 125.0 L 200.0 102.5 L 210.0 91.25 L 207.5 91.25 L 196.25 97.5 L 180.0 106.25 L 163.75 118.75 L 151.25 133.75 L 147.5 156.25 L 148.75 192.5 L 153.75 222.5 L 157.5 241.25 L 158.75 245.0 L 158.75 245.0 L 157.5 240.0 L 152.5 231.25 L 148.75 218.75 " stroke="black" fill="none" stroke-width="6.0" stroke-linecap="round" stroke-linejoin="round" />
<path d="M 153.75 155.0 L 153.75 153.75 L 155.0 151.25 L 158.75 146.25 L 172.5 140.0 L 188.75 138.75 L 201.25 151.25 L 207.5 182.5 L 207.5 213.75 L 206.25 238.75 L 206.25 246.25 L 206.25 247.5 L 205.0 245.0 L 202.5 238.75 L 196.25 228.75 L 190.0 218.75 " stroke="black" fill="none" stroke-width="6.0" stroke-linecap="round" stroke-linejoin="round" />
<path d="M 155.0 191.25 L 151.25 190.0 L 148.75 190.0 L 148.75 187.5 L 162.5 180.0 L 182.5 167.5 L 202.5 156.25 L 208.75 151.25 L 207.5 151.25 " stroke="black" fill="none" stroke-width="6.0" stroke-linecap="round" stroke-linejoin="round" />
<path d="M 162.5 203.75 L 158.75 210.0 L 157.5 211.25 L 170.0 205.0 L 191.25 190.0 L 201.25 182.5 " stroke="black" fill="none" stroke-width="6.0" stroke-linecap="round" stroke-linejoin="round" />
</svg>