<svg xmlns="http://www.w3.org/2000/svg" width="300" height="300" viewBox="0 0 300 300">
<path d="M 81.25 111.25 L 81.25 112.5 L 77.5 117.5 L 81.25 117.5 L 93.75 111.25 L 111.25 102.5 L 127.5 93.75 L 137.5 86.25 L 136.25 82.5 L 127.5 82.5 L 117.5 83.75 L 110.0 83.75 L 105.0 82.5 L 102.5 81.25 L 102.5 80.0 L 105.0 87.5 L 108.75 110.0 L 112.5 143.75 L 113.75 163.75 L 112.5 172.5 L 107.5 172.5 L 105.0 171.25 " stroke="black" fill="none" stroke-width="6.0" stroke-linecap="round" stroke-linejoin="round" />
<path d="M 103.75 131.25 L 96.25 145.0 L 88.75 158.75 L 78.75 176.25 L 71.25 185.0 L 63.75 182.5 L 63.75 180.0 " stroke="black" fill="none" stroke-width="6.0" stroke-linecap="round" stroke-linejoin="round" />
<path d="M 102.5 117.5 L 112.5 120.0 L 127.5 126.25 L 143.75 137.5 L 157.5 148.75 L 162.5 151.25 " stroke="black" fill="none" stroke-width="6.0" stroke-linecap="round" stroke-linejoin="round" />
<path d="M 166.25 88.75 L 165.0 87.5 L 163.75 88.75 L 162.5 97.5 L 165.0 125.0 L 170.0 155.0 L 173.75 168.75 L 175.0 168.75 L 175.0 165.0 " stroke="black" fill="none" stroke-width="6.0" stroke-linecap="round" stroke-linejoin="round" />
<path d="M 166.25 95.0 L 165.0 95.0 L 165.0 93.75 L 172.5 88.75 L 188.75 85.0 L 203.75 85.0 L 215.0 91.25 L 220.0 110.0 L 217.5 136.25 L 212.5 155.0 L 207.5 163.75 L 205.0 163.75 L 202.5 161.25 " stroke="black" fill="none" stroke-width="6.0" stroke-linecap="round" stroke-linejoin="round" />
<path d="M 186.25 92.5 L 185.0 92.5 L 185.0 93.75 L 188.75 111.25 L 191.25 142.5 L 188.75 162.5 L 180.0 172.5 L 173.75 173.75 L 172.5 173.75 L 177.5 170.0 L 190.0 163.75 L 202.5 157.5 L 213.75 151.25 L 220.0 145.0 L 220.0 143.75 " stroke="black" fill="none" stroke-width="6.0" stroke-linecap="round" stroke-linejoin="round" />
<path d="M 93.75 206.25 L 91.25 210.0 L 91.25 213.75 L 102.5 225.0 L 117.5 238.75 L 132.5 246.25 L 136.25 245.0 " stroke="black" fill="none" stroke-width="6.0" stroke-linecap="round" stroke-linejoin="round" />
<path d="M 152.5 202.5 L 153.75 210.0 L 160.0 225.0 L 173.75 238.75 L 192.5 243.75 L 208.75 241.25 L 216.25 233.75 L 217.5 226.25 L 211.25 220.0 L 201.25 215.0 L 187.5 210.0 L 171.25 206.25 L 161.25 205.0 L 160.0 206.25 L 176.25 207.5 L 200.0 205.0 L 225.0 196.25 L 247.5 188.75 L 251.25 186.25 " stroke="black" fill="none" stroke-width="6.0" stroke-linecap="round" stroke-linejoin="round" />
</svg>