<svg xmlns="http://www.w3.org/2000/svg" width="300" height="300" viewBox="0 0 300 300">
<path d="M 103.75 75.0 L 103.75 75.0 L 100.0 75.0 L 97.5 80.0 L 95.0 90.0 L 91.25 102.5 L 91.25 108.75 L 93.75 108.75 L 101.25 105.0 L 110.0 100.0 L 122.5 95.0 L 128.75 92.5 L 128.75 97.5 L 118.75 117.5 L 103.75 146.25 L 87.5 172.5 L 75.0 190.0 L 65.0 193.75 L 62.5 193.75 " stroke="black" fill="none" stroke-width="6.0" stroke-linecap="round" stroke-linejoin="round" />
<path d="M 77.5 133.75 L 77.5 131.25 L 78.75 130.0 L 86.25 131.25 L 98.75 142.5 L 105.0 148.75 " stroke="black" fill="none" stroke-width="6.0" stroke-linecap="round" stroke-linejoin="round" />
<path d="M 153.75 87.5 L 148.75 90.0 L 148.75 90.0 L 156.25 90.0 L 171.25 90.0 L 186.25 88.75 L 197.5 87.5 L 200.0 88.75 L 195.0 96.25 L 182.5 111.25 L 168.75 125.0 L 157.5 135.0 L 150.0 136.25 " stroke="black" fill="none" stroke-width="6.0" stroke-linecap="round" stroke-linejoin="round" />
<path d="M 152.5 97.5 L 151.25 97.5 L 148.75 97.5 L 146.25 103.75 L 146.25 125.0 L 147.5 148.75 L 155.0 161.25 L 170.0 163.75 L 191.25 161.25 L 210.0 155.0 L 223.75 147.5 L 228.75 143.75 L 225.0 141.25 L 221.25 141.25 " stroke="black" fill="none" stroke-width="6.0" stroke-linecap="round" stroke-linejoin="round" />
<path d="M 95.0 216.25 L 92.5 217.5 L 90.0 220.0 L 91.25 230.0 L 98.75 246.25 L 106.25 258.75 L 107.5 261.25 L 108.75 261.25 " stroke="black" fill="none" stroke-width="6.0" stroke-linecap="round" stroke-linejoin="round" />
<path d="M 128.75 208.75 L 128.75 215.0 L 133.75 230.0 L 146.25 248.75 L 163.75 257.5 L 186.25 256.25 L 202.5 247.5 L 210.0 237.5 L 211.25 228.75 L 205.0 221.25 L 191.25 217.5 L 170.0 216.25 L 151.25 216.25 L 140.0 220.0 L 138.75 222.5 L 146.25 222.5 L 163.75 217.5 L 188.75 210.0 L 210.0 205.0 L 218.75 203.75 L 218.75 203.75 " stroke="black" fill="none" stroke-width="6.0" stroke-linecap="round" stroke-linejoin="round" />
</svg>