<svg xmlns="http://www.w3.org/2000/svg" width="300" height="300" viewBox="0 0 300 300">
<path d="M 88.75 75.0 L 86.25 73.75 L 82.5 71.25 L 82.5 71.25 L 85.0 75.0 L 90.0 85.0 L 92.5 93.75 L 96.25 97.5 L 100.0 97.5 L 107.5 87.5 L 115.0 76.25 L 118.75 68.75 L 120.0 63.75 L 118.75 62.5 L 117.5 62.5 L 117.5 62.5 L 117.5 62.5 L 121.25 66.25 L 131.25 71.25 L 140.0 76.25 L 146.25 82.5 L 146.25 91.25 " stroke="black" fill="none" stroke-width="6.0" stroke-linecap="round" stroke-linejoin="round" />
<path d="M 96.25 126.25 L 93.75 126.25 L 91.25 125.0 L 91.25 125.0 L 92.5 130.0 L 96.25 147.5 L 101.25 170.0 L 102.5 185.0 L 102.5 186.25 L 102.5 182.5 " stroke="black" fill="none" stroke-width="6.0" stroke-linecap="round" stroke-linejoin="round" />
<path d="M 98.75 135.0 L 95.0 131.25 L 93.75 127.5 L 98.75 121.25 L 108.75 113.75 L 121.25 108.75 L 132.5 110.0 L 140.0 131.25 L 143.75 155.0 L 143.75 175.0 L 142.5 183.75 L 141.25 185.0 L 138.75 180.0 L 136.25 171.25 " stroke="black" fill="none" stroke-width="6.0" stroke-linecap="round" stroke-linejoin="round" />
<path d="M 105.0 141.25 L 101.25 142.5 L 98.75 143.75 L 101.25 143.75 L 110.0 140.0 L 122.5 132.5 L 132.5 126.25 L 135.0 125.0 " stroke="black" fill="none" stroke-width="6.0" stroke-linecap="round" stroke-linejoin="round" />
<path d="M 110.0 162.5 L 106.25 166.25 L 105.0 167.5 L 111.25 163.75 L 126.25 151.25 L 142.5 136.25 L 146.25 132.5 " stroke="black" fill="none" stroke-width="6.0" stroke-linecap="round" stroke-linejoin="round" />
<path d="M 162.5 96.25 L 161.25 97.5 L 158.75 97.5 L 160.0 97.5 L 170.0 95.0 L 183.75 90.0 L 196.25 83.75 L 201.25 78.75 L 201.25 78.75 " stroke="black" fill="none" stroke-width="6.0" stroke-linecap="round" stroke-linejoin="round" />
<path d="M 158.75 137.5 L 155.0 141.25 L 157.5 141.25 L 168.75 135.0 L 183.75 121.25 L 197.5 103.75 L 205.0 90.0 L 206.25 81.25 L 203.75 76.25 L 198.75 73.75 L 193.75 72.5 L 190.0 73.75 L 187.5 81.25 L 187.5 97.5 L 190.0 121.25 L 196.25 137.5 L 205.0 142.5 L 216.25 138.75 L 225.0 136.25 L 230.0 138.75 L 231.25 150.0 L 225.0 165.0 L 216.25 178.75 L 208.75 186.25 L 203.75 186.25 L 202.5 185.0 " stroke="black" fill="none" stroke-width="6.0" stroke-linecap="round" stroke-linejoin="round" />
<path d="M 97.5 208.75 L 96.25 208.75 L 95.0 210.0 L 96.25 213.75 L 106.25 223.75 L 118.75 236.25 L 131.25 243.75 L 135.0 243.75 " stroke="black" fill="none" stroke-width="6.0" stroke-linecap="round" stroke-linejoin="round" />
<path d="M 147.5 207.5 L 147.5 208.75 L 150.0 213.75 L 163.75 227.5 L 190.0 236.25 L 211.25 235.0 L 225.0 227.5 L 232.5 220.0 L 228.75 213.75 L 216.25 211.25 L 198.75 207.5 L 180.0 205.0 L 165.0 202.5 L 161.25 201.25 L 170.0 200.0 L 190.0 197.5 L 213.75 195.0 L 238.75 195.0 L 250.0 195.0 " stroke="black" fill="none" stroke-width="6.0" stroke-linecap="round" stroke-linejoin="round" />
</svg>