<svg xmlns="http://www.w3.org/2000/svg" width="300" height="300" viewBox="0 0 300 300">
<path d="M 90.0 78.75 L 83.75 81.25 L 85.0 82.5 L 101.25 82.5 L 136.25 72.5 L 172.5 57.5 L 196.25 46.25 L 200.0 42.5 L 195.0 42.5 L 178.75 48.75 L 158.75 52.5 " stroke="black" fill="none" stroke-width="6.0" stroke-linecap="round" stroke-linejoin="round" />
<path d="M 118.75 60.0 L 115.0 62.5 L 112.5 65.0 L 112.5 75.0 L 113.75 86.25 L 117.5 91.25 L 118.75 91.25 " stroke="black" fill="none" stroke-width="6.0" stroke-linecap="round" stroke-linejoin="round" />
<path d="M 150.0 46.25 L 150.0 46.25 L 150.0 46.25 L 148.75 50.0 L 142.5 72.5 L 131.25 95.0 L 127.5 101.25 " stroke="black" fill="none" stroke-width="6.0" stroke-linecap="round" stroke-linejoin="round" />
<path d="M 115.0 96.25 L 115.0 96.25 L 113.75 97.5 L 113.75 102.5 L 116.25 122.5 L 118.75 142.5 L 122.5 151.25 L 122.5 147.5 L 122.5 146.25 " stroke="black" fill="none" stroke-width="6.0" stroke-linecap="round" stroke-linejoin="round" />
<path d="M 121.25 105.0 L 121.25 101.25 L 121.25 96.25 L 126.25 93.75 L 138.75 92.5 L 156.25 91.25 L 172.5 91.25 L 178.75 95.0 L 175.0 103.75 L 163.75 113.75 L 151.25 125.0 L 140.0 130.0 L 127.5 131.25 L 120.0 128.75 L 118.75 125.0 L 120.0 121.25 L 126.25 117.5 L 136.25 111.25 L 148.75 105.0 L 161.25 100.0 L 167.5 98.75 L 163.75 101.25 " stroke="black" fill="none" stroke-width="6.0" stroke-linecap="round" stroke-linejoin="round" />
<path d="M 127.5 135.0 L 123.75 136.25 L 123.75 136.25 L 135.0 133.75 L 152.5 122.5 L 171.25 110.0 L 177.5 102.5 L 170.0 103.75 " stroke="black" fill="none" stroke-width="6.0" stroke-linecap="round" stroke-linejoin="round" />
<path d="M 82.5 180.0 L 80.0 181.25 L 80.0 181.25 L 97.5 175.0 L 135.0 156.25 L 172.5 135.0 L 193.75 120.0 L 197.5 112.5 L 196.25 111.25 " stroke="black" fill="none" stroke-width="6.0" stroke-linecap="round" stroke-linejoin="round" />
<path d="M 142.5 141.25 L 137.5 147.5 L 126.25 171.25 L 111.25 201.25 L 98.75 221.25 L 88.75 231.25 L 82.5 228.75 L 82.5 225.0 " stroke="black" fill="none" stroke-width="6.0" stroke-linecap="round" stroke-linejoin="round" />
<path d="M 148.75 135.0 L 158.75 131.25 L 178.75 137.5 L 201.25 152.5 L 218.75 170.0 L 231.25 183.75 L 237.5 191.25 L 235.0 192.5 L 226.25 193.75 " stroke="black" fill="none" stroke-width="6.0" stroke-linecap="round" stroke-linejoin="round" />
<path d="M 151.25 177.5 L 151.25 176.25 L 155.0 181.25 L 158.75 201.25 L 160.0 227.5 L 158.75 241.25 L 157.5 242.5 L 155.0 240.0 L 150.0 233.75 L 141.25 225.0 " stroke="black" fill="none" stroke-width="6.0" stroke-linecap="round" stroke-linejoin="round" />
<path d="M 123.75 202.5 L 123.75 203.75 L 120.0 211.25 L 120.0 223.75 L 120.0 237.5 L 125.0 245.0 L 126.25 245.0 " stroke="black" fill="none" stroke-width="6.0" stroke-linecap="round" stroke-linejoin="round" />
<path d="M 187.5 195.0 L 188.75 195.0 L 191.25 195.0 L 198.75 197.5 L 206.25 202.5 L 212.5 206.25 L 213.75 207.5 " stroke="black" fill="none" stroke-width="6.0" stroke-linecap="round" stroke-linejoin="round" />
<path d="M 190.0 215.0 L 187.5 216.25 L 187.5 217.5 L 190.0 218.75 L 201.25 220.0 L 213.75 220.0 " stroke="black" fill="none" stroke-width="6.0" stroke-linecap="round" stroke-linejoin="round" />
</svg>