<svg xmlns="http://www.w3.org/2000/svg" width="300" height="300" viewBox="0 0 300 300">
<path d="M 68.75 113.75 L 68.75 113.75 L 68.75 112.5 L 68.75 115.0 L 70.0 127.5 L 71.25 143.75 L 71.25 153.75 L 71.25 156.25 L 78.75 152.5 L 88.75 145.0 L 100.0 135.0 L 107.5 127.5 L 111.25 120.0 L 110.0 116.25 L 105.0 115.0 L 101.25 113.75 L 97.5 110.0 L 96.25 107.5 L 95.0 105.0 L 93.75 102.5 L 93.75 102.5 L 93.75 103.75 L 95.0 117.5 L 96.25 147.5 L 98.75 192.5 L 100.0 223.75 L 97.5 235.0 L 92.5 236.25 L 86.25 231.25 L 85.0 227.5 " stroke="black" fill="none" stroke-width="6.0" stroke-linecap="round" stroke-linejoin="round" />
<path d="M 153.75 82.5 L 153.75 78.75 L 153.75 77.5 L 156.25 81.25 L 161.25 90.0 L 165.0 101.25 L 165.0 103.75 " stroke="black" fill="none" stroke-width="6.0" stroke-linecap="round" stroke-linejoin="round" />
<path d="M 196.25 62.5 L 196.25 62.5 L 196.25 62.5 L 192.5 67.5 L 182.5 81.25 L 166.25 100.0 L 151.25 113.75 L 140.0 123.75 L 137.5 126.25 L 142.5 125.0 L 158.75 115.0 L 182.5 100.0 L 203.75 86.25 L 213.75 78.75 L 213.75 76.25 L 206.25 78.75 L 198.75 80.0 L 191.25 80.0 L 185.0 77.5 L 180.0 70.0 L 177.5 66.25 L 177.5 72.5 L 178.75 95.0 L 181.25 128.75 L 182.5 156.25 L 180.0 165.0 L 177.5 165.0 " stroke="black" fill="none" stroke-width="6.0" stroke-linecap="round" stroke-linejoin="round" />
<path d="M 181.25 97.5 L 177.5 100.0 L 170.0 110.0 L 161.25 127.5 L 152.5 146.25 L 147.5 156.25 L 148.75 157.5 L 153.75 156.25 L 166.25 150.0 L 180.0 143.75 L 193.75 137.5 L 198.75 136.25 L 198.75 138.75 L 187.5 153.75 L 172.5 172.5 L 155.0 192.5 L 141.25 208.75 L 135.0 216.25 L 133.75 216.25 L 142.5 212.5 L 153.75 205.0 L 166.25 197.5 L 176.25 193.75 L 178.75 196.25 L 173.75 210.0 L 160.0 230.0 L 148.75 245.0 L 141.25 251.25 L 136.25 250.0 " stroke="black" fill="none" stroke-width="6.0" stroke-linecap="round" stroke-linejoin="round" />
<path d="M 140.0 203.75 L 140.0 203.75 L 140.0 203.75 L 141.25 206.25 L 150.0 216.25 L 162.5 226.25 L 166.25 227.5 " stroke="black" fill="none" stroke-width="6.0" stroke-linecap="round" stroke-linejoin="round" />
<path d="M 192.5 163.75 L 192.5 163.75 L 192.5 165.0 L 195.0 165.0 L 208.75 163.75 L 223.75 161.25 L 231.25 161.25 L 228.75 168.75 L 215.0 183.75 L 201.25 198.75 L 191.25 211.25 L 191.25 215.0 L 198.75 215.0 L 213.75 207.5 L 232.5 196.25 L 251.25 185.0 L 260.0 178.75 L 260.0 176.25 L 256.25 175.0 L 251.25 173.75 L 246.25 170.0 L 242.5 165.0 L 238.75 160.0 L 237.5 155.0 L 236.25 152.5 L 236.25 151.25 L 236.25 151.25 L 236.25 156.25 L 236.25 170.0 L 237.5 195.0 L 237.5 227.5 L 238.75 255.0 L 237.5 268.75 L 235.0 277.5 L 231.25 282.5 L 223.75 287.5 L 211.25 291.25 " stroke="black" fill="none" stroke-width="6.0" stroke-linecap="round" stroke-linejoin="round" />
</svg>