<svg xmlns="http://www.w3.org/2000/svg" width="300" height="300" viewBox="0 0 300 300">
<path d="M 51.25 132.5 L 50.0 132.5 L 48.75 132.5 L 48.75 136.25 L 51.25 147.5 L 55.0 158.75 L 60.0 165.0 L 68.75 163.75 L 80.0 156.25 L 98.75 141.25 L 108.75 131.25 L 113.75 126.25 L 110.0 125.0 L 102.5 125.0 L 96.25 125.0 L 91.25 123.75 L 87.5 120.0 L 85.0 112.5 L 81.25 103.75 L 78.75 96.25 L 77.5 93.75 L 77.5 96.25 L 81.25 120.0 L 85.0 173.75 L 85.0 236.25 L 82.5 260.0 L 77.5 262.5 L 75.0 261.25 " stroke="black" fill="none" stroke-width="6.0" stroke-linecap="round" stroke-linejoin="round" />
<path d="M 146.25 56.25 L 146.25 56.25 L 146.25 57.5 L 150.0 57.5 L 163.75 60.0 L 177.5 62.5 L 185.0 65.0 L 183.75 70.0 " stroke="black" fill="none" stroke-width="6.0" stroke-linecap="round" stroke-linejoin="round" />
<path d="M 127.5 91.25 L 127.5 91.25 L 126.25 92.5 L 131.25 92.5 L 148.75 88.75 L 172.5 81.25 L 188.75 75.0 L 190.0 73.75 L 173.75 80.0 L 170.0 81.25 " stroke="black" fill="none" stroke-width="6.0" stroke-linecap="round" stroke-linejoin="round" />
<path d="M 133.75 101.25 L 132.5 103.75 L 131.25 111.25 L 135.0 126.25 L 143.75 143.75 L 150.0 151.25 L 151.25 152.5 L 148.75 148.75 L 145.0 143.75 L 141.25 136.25 L 136.25 130.0 L 131.25 123.75 L 127.5 118.75 L 130.0 113.75 L 145.0 107.5 L 168.75 101.25 L 195.0 96.25 L 207.5 95.0 L 210.0 97.5 L 201.25 106.25 L 190.0 116.25 L 176.25 125.0 L 161.25 127.5 L 152.5 122.5 L 150.0 121.25 " stroke="black" fill="none" stroke-width="6.0" stroke-linecap="round" stroke-linejoin="round" />
<path d="M 155.0 103.75 L 156.25 103.75 L 156.25 105.0 L 157.5 108.75 L 160.0 122.5 L 160.0 136.25 L 160.0 141.25 L 160.0 140.0 " stroke="black" fill="none" stroke-width="6.0" stroke-linecap="round" stroke-linejoin="round" />
<path d="M 191.25 97.5 L 191.25 98.75 L 185.0 107.5 L 177.5 121.25 L 166.25 136.25 L 157.5 145.0 L 155.0 146.25 L 156.25 145.0 L 165.0 140.0 L 178.75 132.5 L 190.0 123.75 L 197.5 116.25 L 197.5 115.0 " stroke="black" fill="none" stroke-width="6.0" stroke-linecap="round" stroke-linejoin="round" />
<path d="M 128.75 167.5 L 126.25 170.0 L 125.0 171.25 L 131.25 171.25 L 145.0 162.5 L 158.75 153.75 L 165.0 146.25 L 165.0 146.25 " stroke="black" fill="none" stroke-width="6.0" stroke-linecap="round" stroke-linejoin="round" />
<path d="M 123.75 187.5 L 123.75 188.75 L 121.25 191.25 L 126.25 191.25 L 142.5 182.5 L 162.5 165.0 L 173.75 151.25 " stroke="black" fill="none" stroke-width="6.0" stroke-linecap="round" stroke-linejoin="round" />
<path d="M 190.0 137.5 L 188.75 137.5 L 188.75 137.5 L 192.5 137.5 L 201.25 136.25 L 207.5 135.0 L 208.75 135.0 " stroke="black" fill="none" stroke-width="6.0" stroke-linecap="round" stroke-linejoin="round" />
<path d="M 176.25 165.0 L 176.25 165.0 L 173.75 168.75 L 175.0 168.75 L 190.0 160.0 L 202.5 151.25 L 208.75 141.25 L 206.25 138.75 L 202.5 138.75 " stroke="black" fill="none" stroke-width="6.0" stroke-linecap="round" stroke-linejoin="round" />
<path d="M 176.25 123.75 L 173.75 125.0 L 172.5 130.0 L 172.5 145.0 L 172.5 166.25 L 170.0 186.25 L 168.75 188.75 " stroke="black" fill="none" stroke-width="6.0" stroke-linecap="round" stroke-linejoin="round" />
<path d="M 170.0 168.75 L 163.75 180.0 L 153.75 197.5 L 147.5 213.75 L 142.5 228.75 L 140.0 233.75 L 142.5 223.75 " stroke="black" fill="none" stroke-width="6.0" stroke-linecap="round" stroke-linejoin="round" />
<path d="M 166.25 176.25 L 165.0 185.0 L 163.75 201.25 L 163.75 225.0 L 167.5 243.75 L 176.25 248.75 L 191.25 245.0 L 205.0 230.0 L 217.5 212.5 L 228.75 196.25 L 235.0 185.0 L 230.0 182.5 L 216.25 183.75 L 202.5 191.25 L 190.0 198.75 L 182.5 205.0 L 181.25 207.5 L 186.25 207.5 L 195.0 208.75 L 203.75 210.0 L 211.25 211.25 L 221.25 213.75 L 232.5 217.5 L 245.0 221.25 L 257.5 221.25 L 258.75 221.25 " stroke="black" fill="none" stroke-width="6.0" stroke-linecap="round" stroke-linejoin="round" />
</svg>