<svg xmlns="http://www.w3.org/2000/svg" width="300" height="300" viewBox="0 0 300 300">
<path d="M 126.25 52.5 L 126.25 52.5 L 125.0 52.5 L 125.0 53.75 L 127.5 58.75 L 133.75 72.5 L 138.75 86.25 L 140.0 93.75 " stroke="black" fill="none" stroke-width="6.0" stroke-linecap="round" stroke-linejoin="round" />
<path d="M 166.25 57.5 L 167.5 62.5 L 167.5 70.0 L 166.25 81.25 L 156.25 91.25 L 146.25 96.25 " stroke="black" fill="none" stroke-width="6.0" stroke-linecap="round" stroke-linejoin="round" />
<path d="M 87.5 106.25 L 85.0 108.75 L 83.75 111.25 L 91.25 112.5 L 110.0 108.75 L 160.0 93.75 L 200.0 82.5 L 216.25 76.25 L 217.5 76.25 L 212.5 77.5 " stroke="black" fill="none" stroke-width="6.0" stroke-linecap="round" stroke-linejoin="round" />
<path d="M 107.5 115.0 L 108.75 116.25 L 108.75 116.25 L 108.75 118.75 L 107.5 131.25 L 101.25 152.5 L 97.5 165.0 L 98.75 166.25 L 110.0 156.25 L 126.25 142.5 L 138.75 131.25 L 146.25 125.0 L 145.0 126.25 L 137.5 140.0 L 126.25 158.75 L 116.25 176.25 L 115.0 183.75 L 123.75 181.25 L 137.5 167.5 L 156.25 145.0 L 156.25 142.5 L 153.75 143.75 L 148.75 148.75 L 145.0 156.25 L 145.0 161.25 L 145.0 166.25 L 150.0 168.75 L 157.5 170.0 L 165.0 170.0 L 166.25 170.0 " stroke="black" fill="none" stroke-width="6.0" stroke-linecap="round" stroke-linejoin="round" />
<path d="M 193.75 112.5 L 192.5 111.25 L 190.0 111.25 L 188.75 111.25 L 185.0 118.75 L 177.5 137.5 L 173.75 152.5 L 175.0 155.0 L 186.25 148.75 L 198.75 136.25 L 207.5 122.5 L 212.5 115.0 L 211.25 115.0 L 202.5 131.25 L 195.0 147.5 L 190.0 160.0 L 191.25 163.75 L 198.75 160.0 L 208.75 148.75 L 218.75 140.0 L 225.0 136.25 L 227.5 138.75 L 223.75 150.0 L 215.0 166.25 L 212.5 171.25 " stroke="black" fill="none" stroke-width="6.0" stroke-linecap="round" stroke-linejoin="round" />
<path d="M 103.75 195.0 L 101.25 200.0 L 102.5 205.0 L 112.5 217.5 L 126.25 232.5 L 138.75 236.25 L 142.5 236.25 " stroke="black" fill="none" stroke-width="6.0" stroke-linecap="round" stroke-linejoin="round" />
<path d="M 167.5 195.0 L 170.0 200.0 L 178.75 213.75 L 196.25 232.5 L 212.5 245.0 L 225.0 245.0 L 232.5 237.5 L 233.75 227.5 L 227.5 220.0 L 213.75 211.25 L 196.25 206.25 L 183.75 203.75 L 181.25 203.75 L 193.75 203.75 L 220.0 196.25 L 247.5 186.25 L 261.25 178.75 " stroke="black" fill="none" stroke-width="6.0" stroke-linecap="round" stroke-linejoin="round" />
</svg>