<svg xmlns="http://www.w3.org/2000/svg" width="300" height="300" viewBox="0 0 300 300">
<path d="M 81.25 87.5 L 80.0 87.5 L 76.25 87.5 L 75.0 86.25 L 82.5 86.25 L 95.0 86.25 L 108.75 86.25 L 118.75 86.25 L 122.5 88.75 L 116.25 93.75 L 103.75 101.25 L 92.5 108.75 L 82.5 117.5 L 75.0 123.75 L 73.75 126.25 L 81.25 125.0 L 95.0 117.5 L 108.75 107.5 L 120.0 100.0 L 125.0 95.0 L 120.0 93.75 L 117.5 93.75 " stroke="black" fill="none" stroke-width="6.0" stroke-linecap="round" stroke-linejoin="round" />
<path d="M 82.5 97.5 L 82.5 97.5 L 82.5 97.5 L 82.5 101.25 L 82.5 120.0 L 81.25 155.0 L 80.0 176.25 L 82.5 178.75 L 88.75 172.5 L 97.5 160.0 L 107.5 151.25 L 116.25 142.5 L 117.5 140.0 " stroke="black" fill="none" stroke-width="6.0" stroke-linecap="round" stroke-linejoin="round" />
<path d="M 90.0 137.5 L 86.25 141.25 L 85.0 142.5 L 91.25 140.0 L 106.25 130.0 L 125.0 116.25 L 141.25 103.75 L 146.25 97.5 L 142.5 97.5 L 140.0 98.75 " stroke="black" fill="none" stroke-width="6.0" stroke-linecap="round" stroke-linejoin="round" />
<path d="M 122.5 105.0 L 121.25 105.0 L 121.25 105.0 L 120.0 107.5 L 122.5 117.5 L 130.0 142.5 L 140.0 167.5 L 148.75 181.25 L 152.5 183.75 L 153.75 183.75 L 153.75 182.5 L 153.75 181.25 L 153.75 176.25 L 153.75 170.0 L 155.0 161.25 L 155.0 150.0 L 156.25 132.5 L 160.0 106.25 " stroke="black" fill="none" stroke-width="6.0" stroke-linecap="round" stroke-linejoin="round" />
<path d="M 171.25 73.75 L 172.5 71.25 L 172.5 66.25 L 172.5 63.75 L 172.5 63.75 L 172.5 73.75 L 172.5 86.25 L 172.5 95.0 L 176.25 97.5 L 187.5 92.5 L 201.25 80.0 L 210.0 68.75 L 215.0 62.5 L 212.5 61.25 L 208.75 62.5 " stroke="black" fill="none" stroke-width="6.0" stroke-linecap="round" stroke-linejoin="round" />
<path d="M 200.0 83.75 L 200.0 88.75 L 200.0 95.0 L 198.75 108.75 L 195.0 135.0 L 187.5 158.75 L 177.5 172.5 L 165.0 181.25 L 153.75 185.0 L 147.5 181.25 L 146.25 170.0 " stroke="black" fill="none" stroke-width="6.0" stroke-linecap="round" stroke-linejoin="round" />
<path d="M 165.0 122.5 L 166.25 121.25 L 166.25 120.0 L 168.75 120.0 L 175.0 126.25 L 186.25 138.75 L 200.0 151.25 L 216.25 160.0 L 232.5 167.5 L 245.0 172.5 L 251.25 177.5 L 252.5 178.75 L 252.5 180.0 " stroke="black" fill="none" stroke-width="6.0" stroke-linecap="round" stroke-linejoin="round" />
<path d="M 82.5 216.25 L 80.0 215.0 L 77.5 215.0 L 75.0 215.0 L 76.25 217.5 L 83.75 230.0 L 93.75 243.75 L 101.25 251.25 L 102.5 251.25 " stroke="black" fill="none" stroke-width="6.0" stroke-linecap="round" stroke-linejoin="round" />
<path d="M 126.25 207.5 L 127.5 215.0 L 133.75 225.0 L 146.25 243.75 L 166.25 255.0 L 188.75 256.25 L 203.75 252.5 L 207.5 247.5 L 207.5 243.75 L 202.5 237.5 L 192.5 231.25 L 181.25 222.5 L 163.75 215.0 L 150.0 210.0 L 145.0 208.75 L 147.5 210.0 L 167.5 210.0 L 195.0 207.5 L 221.25 202.5 L 238.75 198.75 L 242.5 197.5 L 240.0 197.5 L 237.5 197.5 " stroke="black" fill="none" stroke-width="6.0" stroke-linecap="round" stroke-linejoin="round" />
</svg>