<svg xmlns="http://www.w3.org/2000/svg" width="300" height="300" viewBox="0 0 300 300">
<path d="M 136.25 62.5 L 136.25 62.5 L 136.25 61.25 L 140.0 60.0 L 148.75 60.0 L 161.25 62.5 L 165.0 65.0 L 165.0 65.0 " stroke="black" fill="none" stroke-width="6.0" stroke-linecap="round" stroke-linejoin="round" />
<path d="M 91.25 92.5 L 91.25 92.5 L 90.0 93.75 L 91.25 93.75 L 106.25 92.5 L 137.5 83.75 L 165.0 72.5 L 181.25 65.0 L 182.5 63.75 L 172.5 66.25 L 161.25 70.0 " stroke="black" fill="none" stroke-width="6.0" stroke-linecap="round" stroke-linejoin="round" />
<path d="M 105.0 103.75 L 103.75 107.5 L 100.0 132.5 L 98.75 167.5 L 93.75 206.25 L 88.75 227.5 L 83.75 238.75 L 80.0 237.5 L 77.5 222.5 " stroke="black" fill="none" stroke-width="6.0" stroke-linecap="round" stroke-linejoin="round" />
<path d="M 107.5 120.0 L 107.5 120.0 L 105.0 121.25 L 106.25 121.25 L 121.25 120.0 L 147.5 111.25 L 178.75 102.5 L 196.25 98.75 L 197.5 100.0 L 191.25 106.25 L 177.5 117.5 L 163.75 126.25 L 150.0 131.25 " stroke="black" fill="none" stroke-width="6.0" stroke-linecap="round" stroke-linejoin="round" />
<path d="M 136.25 102.5 L 135.0 102.5 L 135.0 103.75 L 135.0 115.0 L 135.0 135.0 L 137.5 146.25 L 137.5 146.25 " stroke="black" fill="none" stroke-width="6.0" stroke-linecap="round" stroke-linejoin="round" />
<path d="M 157.5 91.25 L 157.5 91.25 L 157.5 92.5 L 155.0 101.25 L 150.0 120.0 L 142.5 136.25 L 135.0 142.5 L 130.0 143.75 L 130.0 142.5 L 136.25 140.0 L 147.5 135.0 L 161.25 127.5 L 173.75 121.25 L 178.75 118.75 L 178.75 118.75 " stroke="black" fill="none" stroke-width="6.0" stroke-linecap="round" stroke-linejoin="round" />
<path d="M 107.5 165.0 L 106.25 166.25 L 105.0 167.5 L 116.25 165.0 L 142.5 153.75 L 178.75 140.0 L 203.75 131.25 L 210.0 130.0 L 208.75 130.0 L 200.0 138.75 L 187.5 150.0 L 170.0 161.25 L 155.0 168.75 " stroke="black" fill="none" stroke-width="6.0" stroke-linecap="round" stroke-linejoin="round" />
<path d="M 117.5 171.25 L 117.5 171.25 L 116.25 171.25 L 116.25 172.5 L 118.75 182.5 L 123.75 195.0 L 128.75 203.75 L 131.25 203.75 " stroke="black" fill="none" stroke-width="6.0" stroke-linecap="round" stroke-linejoin="round" />
<path d="M 146.25 163.75 L 146.25 165.0 L 148.75 168.75 L 156.25 177.5 L 172.5 185.0 L 192.5 186.25 L 201.25 180.0 L 202.5 176.25 L 193.75 175.0 L 180.0 177.5 L 167.5 181.25 L 158.75 183.75 L 156.25 185.0 L 167.5 182.5 L 186.25 171.25 L 203.75 158.75 L 213.75 148.75 L 213.75 147.5 L 205.0 151.25 L 196.25 156.25 L 186.25 163.75 L 171.25 178.75 L 151.25 202.5 L 133.75 230.0 L 121.25 247.5 L 117.5 251.25 L 117.5 250.0 L 123.75 243.75 L 132.5 236.25 L 143.75 227.5 L 155.0 217.5 L 171.25 207.5 L 188.75 201.25 L 198.75 201.25 L 200.0 206.25 L 193.75 217.5 L 183.75 230.0 L 168.75 242.5 L 152.5 252.5 L 142.5 255.0 L 138.75 252.5 " stroke="black" fill="none" stroke-width="6.0" stroke-linecap="round" stroke-linejoin="round" />
<path d="M 145.0 222.5 L 145.0 222.5 L 145.0 222.5 L 145.0 222.5 L 147.5 222.5 L 155.0 222.5 L 166.25 225.0 L 177.5 230.0 L 190.0 236.25 L 203.75 243.75 L 217.5 251.25 L 235.0 258.75 L 253.75 262.5 L 257.5 263.75 " stroke="black" fill="none" stroke-width="6.0" stroke-linecap="round" stroke-linejoin="round" />
</svg>