<svg xmlns="http://www.w3.org/2000/svg" width="300" height="300" viewBox="0 0 300 300">
<path d="M 142.5 56.25 L 138.75 57.5 L 137.5 57.5 L 137.5 61.25 L 142.5 73.75 L 147.5 88.75 L 150.0 98.75 L 151.25 101.25 L 148.75 101.25 " stroke="black" fill="none" stroke-width="6.0" stroke-linecap="round" stroke-linejoin="round" />
<path d="M 143.75 71.25 L 142.5 71.25 L 141.25 71.25 L 140.0 71.25 L 146.25 67.5 L 161.25 63.75 L 181.25 58.75 L 193.75 55.0 L 196.25 55.0 L 186.25 60.0 " stroke="black" fill="none" stroke-width="6.0" stroke-linecap="round" stroke-linejoin="round" />
<path d="M 111.25 105.0 L 107.5 106.25 L 107.5 107.5 L 120.0 105.0 L 145.0 100.0 L 177.5 93.75 L 206.25 90.0 L 216.25 90.0 L 213.75 91.25 L 202.5 100.0 L 183.75 110.0 L 163.75 118.75 L 145.0 125.0 " stroke="black" fill="none" stroke-width="6.0" stroke-linecap="round" stroke-linejoin="round" />
<path d="M 117.5 107.5 L 117.5 107.5 L 113.75 106.25 L 112.5 108.75 L 112.5 132.5 L 112.5 186.25 L 108.75 238.75 L 107.5 257.5 L 103.75 260.0 L 100.0 256.25 " stroke="black" fill="none" stroke-width="6.0" stroke-linecap="round" stroke-linejoin="round" />
<path d="M 122.5 136.25 L 121.25 137.5 L 125.0 138.75 L 140.0 136.25 L 162.5 127.5 L 183.75 116.25 L 191.25 108.75 L 191.25 107.5 " stroke="black" fill="none" stroke-width="6.0" stroke-linecap="round" stroke-linejoin="round" />
<path d="M 145.0 127.5 L 142.5 131.25 L 140.0 136.25 L 143.75 142.5 L 155.0 143.75 L 172.5 141.25 L 187.5 132.5 L 193.75 125.0 L 193.75 123.75 " stroke="black" fill="none" stroke-width="6.0" stroke-linecap="round" stroke-linejoin="round" />
<path d="M 135.0 158.75 L 130.0 167.5 L 133.75 180.0 L 141.25 196.25 L 148.75 203.75 L 153.75 205.0 L 153.75 202.5 L 150.0 198.75 L 145.0 193.75 L 140.0 187.5 L 135.0 181.25 L 130.0 173.75 L 127.5 168.75 L 131.25 165.0 L 145.0 161.25 L 165.0 155.0 L 188.75 150.0 L 202.5 147.5 L 205.0 148.75 L 196.25 155.0 L 183.75 165.0 L 167.5 176.25 L 151.25 185.0 L 142.5 190.0 L 142.5 190.0 L 152.5 186.25 L 170.0 177.5 L 187.5 168.75 L 201.25 165.0 L 205.0 163.75 L 197.5 175.0 L 181.25 187.5 L 163.75 198.75 L 148.75 203.75 L 146.25 200.0 " stroke="black" fill="none" stroke-width="6.0" stroke-linecap="round" stroke-linejoin="round" />
<path d="M 171.25 158.75 L 171.25 158.75 L 171.25 158.75 L 171.25 161.25 L 168.75 173.75 L 163.75 195.0 L 156.25 206.25 " stroke="black" fill="none" stroke-width="6.0" stroke-linecap="round" stroke-linejoin="round" />
<path d="M 117.5 208.75 L 117.5 208.75 L 116.25 211.25 L 118.75 217.5 L 128.75 231.25 L 140.0 245.0 L 150.0 252.5 L 152.5 252.5 L 152.5 247.5 L 152.5 245.0 " stroke="black" fill="none" stroke-width="6.0" stroke-linecap="round" stroke-linejoin="round" />
<path d="M 163.75 225.0 L 166.25 230.0 L 172.5 236.25 L 185.0 243.75 L 202.5 247.5 L 215.0 247.5 L 222.5 246.25 L 222.5 242.5 L 215.0 240.0 L 201.25 237.5 L 185.0 233.75 L 171.25 231.25 L 165.0 227.5 L 176.25 220.0 L 201.25 208.75 L 222.5 200.0 L 237.5 195.0 L 240.0 195.0 " stroke="black" fill="none" stroke-width="6.0" stroke-linecap="round" stroke-linejoin="round" />
</svg>