<svg xmlns="http://www.w3.org/2000/svg" width="300" height="300" viewBox="0 0 300 300">
<path d="M 82.5 95.0 L 81.25 96.25 L 80.0 97.5 L 90.0 97.5 L 113.75 93.75 L 147.5 87.5 L 172.5 81.25 L 180.0 76.25 L 177.5 76.25 L 162.5 81.25 L 148.75 86.25 L 145.0 87.5 " stroke="black" fill="none" stroke-width="6.0" stroke-linecap="round" stroke-linejoin="round" />
<path d="M 87.5 101.25 L 86.25 102.5 L 85.0 107.5 L 85.0 127.5 L 87.5 171.25 L 81.25 213.75 L 66.25 238.75 L 51.25 247.5 L 40.0 248.75 L 38.75 242.5 " stroke="black" fill="none" stroke-width="6.0" stroke-linecap="round" stroke-linejoin="round" />
<path d="M 115.0 115.0 L 115.0 115.0 L 115.0 116.25 L 117.5 120.0 L 118.75 122.5 L 128.75 140.0 L 130.0 148.75 L 128.75 150.0 " stroke="black" fill="none" stroke-width="6.0" stroke-linecap="round" stroke-linejoin="round" />
<path d="M 127.5 130.0 L 127.5 130.0 L 127.5 127.5 L 127.5 126.25 L 130.0 123.75 L 136.25 121.25 L 141.25 120.0 L 142.5 121.25 L 137.5 127.5 " stroke="black" fill="none" stroke-width="6.0" stroke-linecap="round" stroke-linejoin="round" />
<path d="M 95.0 163.75 L 90.0 171.25 L 91.25 172.5 L 105.0 168.75 L 125.0 157.5 L 147.5 143.75 L 160.0 132.5 L 160.0 128.75 L 151.25 131.25 L 143.75 136.25 L 136.25 141.25 L 131.25 146.25 L 130.0 152.5 L 132.5 165.0 L 136.25 182.5 L 137.5 195.0 L 136.25 200.0 L 131.25 201.25 L 123.75 198.75 " stroke="black" fill="none" stroke-width="6.0" stroke-linecap="round" stroke-linejoin="round" />
<path d="M 110.0 170.0 L 110.0 170.0 L 108.75 171.25 L 108.75 176.25 L 110.0 187.5 L 112.5 197.5 L 112.5 200.0 " stroke="black" fill="none" stroke-width="6.0" stroke-linecap="round" stroke-linejoin="round" />
<path d="M 146.25 166.25 L 148.75 165.0 L 155.0 163.75 L 162.5 168.75 L 171.25 178.75 L 173.75 191.25 L 171.25 196.25 " stroke="black" fill="none" stroke-width="6.0" stroke-linecap="round" stroke-linejoin="round" />
<path d="M 95.0 211.25 L 92.5 213.75 L 92.5 218.75 L 100.0 231.25 L 111.25 247.5 L 123.75 255.0 L 130.0 256.25 L 130.0 250.0 " stroke="black" fill="none" stroke-width="6.0" stroke-linecap="round" stroke-linejoin="round" />
<path d="M 136.25 220.0 L 136.25 220.0 L 137.5 223.75 L 143.75 233.75 L 153.75 242.5 L 167.5 245.0 L 175.0 241.25 L 175.0 237.5 L 166.25 235.0 L 153.75 235.0 L 143.75 233.75 L 137.5 233.75 L 137.5 233.75 L 151.25 225.0 L 172.5 208.75 L 185.0 200.0 " stroke="black" fill="none" stroke-width="6.0" stroke-linecap="round" stroke-linejoin="round" />
<path d="M 162.5 82.5 L 162.5 82.5 L 162.5 83.75 L 170.0 95.0 L 195.0 145.0 L 218.75 202.5 L 233.75 233.75 L 246.25 257.5 L 257.5 268.75 L 260.0 271.25 L 261.25 271.25 L 261.25 271.25 L 256.25 262.5 L 250.0 247.5 L 240.0 223.75 L 233.75 212.5 " stroke="black" fill="none" stroke-width="6.0" stroke-linecap="round" stroke-linejoin="round" />
<path d="M 228.75 150.0 L 222.5 158.75 L 213.75 172.5 L 202.5 190.0 L 193.75 202.5 L 191.25 203.75 " stroke="black" fill="none" stroke-width="6.0" stroke-linecap="round" stroke-linejoin="round" />
<path d="M 225.0 66.25 L 225.0 66.25 L 225.0 66.25 L 230.0 68.75 L 242.5 76.25 L 257.5 92.5 " stroke="black" fill="none" stroke-width="6.0" stroke-linecap="round" stroke-linejoin="round" />
</svg>