<svg xmlns="http://www.w3.org/2000/svg" width="300" height="300" viewBox="0 0 300 300">
<path d="M 86.25 120.0 L 85.0 118.75 L 82.5 117.5 L 81.25 116.25 L 81.25 116.25 L 81.25 127.5 L 80.0 143.75 L 78.75 158.75 L 77.5 165.0 L 80.0 165.0 L 91.25 157.5 L 105.0 147.5 L 118.75 137.5 L 127.5 132.5 L 128.75 130.0 L 121.25 130.0 " stroke="black" fill="none" stroke-width="6.0" stroke-linecap="round" stroke-linejoin="round" />
<path d="M 101.25 97.5 L 101.25 97.5 L 98.75 96.25 L 98.75 103.75 L 101.25 141.25 L 102.5 196.25 L 98.75 231.25 L 93.75 251.25 L 90.0 253.75 " stroke="black" fill="none" stroke-width="6.0" stroke-linecap="round" stroke-linejoin="round" />
<path d="M 141.25 92.5 L 140.0 92.5 L 137.5 92.5 L 138.75 92.5 L 150.0 92.5 L 167.5 86.25 L 187.5 78.75 L 197.5 71.25 L 193.75 70.0 L 185.0 72.5 L 175.0 75.0 L 167.5 76.25 L 163.75 78.75 L 163.75 83.75 L 163.75 100.0 L 163.75 123.75 L 160.0 137.5 " stroke="black" fill="none" stroke-width="6.0" stroke-linecap="round" stroke-linejoin="round" />
<path d="M 141.25 131.25 L 140.0 132.5 L 138.75 138.75 L 137.5 157.5 L 137.5 193.75 L 140.0 217.5 L 143.75 225.0 L 143.75 222.5 " stroke="black" fill="none" stroke-width="6.0" stroke-linecap="round" stroke-linejoin="round" />
<path d="M 145.0 140.0 L 145.0 138.75 L 145.0 138.75 L 155.0 135.0 L 175.0 128.75 L 193.75 128.75 L 201.25 145.0 L 201.25 172.5 L 197.5 197.5 L 195.0 208.75 L 192.5 211.25 L 188.75 206.25 L 187.5 203.75 " stroke="black" fill="none" stroke-width="6.0" stroke-linecap="round" stroke-linejoin="round" />
<path d="M 143.75 165.0 L 141.25 165.0 L 137.5 165.0 L 137.5 166.25 L 145.0 163.75 L 162.5 156.25 L 180.0 148.75 L 191.25 142.5 L 188.75 142.5 " stroke="black" fill="none" stroke-width="6.0" stroke-linecap="round" stroke-linejoin="round" />
<path d="M 147.5 181.25 L 146.25 182.5 L 143.75 185.0 L 145.0 185.0 L 158.75 180.0 L 177.5 168.75 L 191.25 158.75 L 193.75 155.0 L 183.75 160.0 L 180.0 162.5 " stroke="black" fill="none" stroke-width="6.0" stroke-linecap="round" stroke-linejoin="round" />
<path d="M 153.75 192.5 L 152.5 195.0 L 152.5 195.0 L 158.75 193.75 L 175.0 187.5 L 192.5 177.5 L 198.75 172.5 L 197.5 173.75 " stroke="black" fill="none" stroke-width="6.0" stroke-linecap="round" stroke-linejoin="round" />
<path d="M 120.0 237.5 L 120.0 237.5 L 118.75 238.75 L 126.25 237.5 L 150.0 226.25 L 185.0 207.5 L 208.75 195.0 L 217.5 188.75 L 215.0 188.75 L 212.5 188.75 " stroke="black" fill="none" stroke-width="6.0" stroke-linecap="round" stroke-linejoin="round" />
<path d="M 166.25 227.5 L 162.5 232.5 L 150.0 250.0 L 141.25 262.5 L 136.25 268.75 L 135.0 268.75 " stroke="black" fill="none" stroke-width="6.0" stroke-linecap="round" stroke-linejoin="round" />
<path d="M 182.5 211.25 L 185.0 212.5 L 188.75 216.25 L 198.75 226.25 L 211.25 245.0 L 223.75 260.0 L 232.5 267.5 L 237.5 270.0 L 238.75 271.25 L 238.75 271.25 L 233.75 273.75 L 228.75 276.25 " stroke="black" fill="none" stroke-width="6.0" stroke-linecap="round" stroke-linejoin="round" />
</svg>