<svg xmlns="http://www.w3.org/2000/svg" width="300" height="300" viewBox="0 0 300 300">
<path d="M 116.25 86.25 L 113.75 86.25 L 110.0 86.25 L 110.0 87.5 L 113.75 92.5 L 121.25 101.25 L 128.75 108.75 L 132.5 113.75 L 133.75 115.0 " stroke="black" fill="none" stroke-width="6.0" stroke-linecap="round" stroke-linejoin="round" />
<path d="M 117.5 92.5 L 117.5 90.0 L 115.0 88.75 L 115.0 86.25 L 126.25 82.5 L 143.75 78.75 L 166.25 75.0 L 187.5 73.75 L 196.25 76.25 L 196.25 82.5 L 188.75 91.25 L 176.25 100.0 L 165.0 105.0 L 152.5 107.5 L 150.0 107.5 " stroke="black" fill="none" stroke-width="6.0" stroke-linecap="round" stroke-linejoin="round" />
<path d="M 136.25 101.25 L 132.5 102.5 L 130.0 103.75 L 131.25 103.75 L 140.0 101.25 L 152.5 97.5 L 163.75 92.5 L 172.5 88.75 L 171.25 88.75 L 168.75 88.75 " stroke="black" fill="none" stroke-width="6.0" stroke-linecap="round" stroke-linejoin="round" />
<path d="M 133.75 117.5 L 132.5 118.75 L 133.75 118.75 L 143.75 115.0 L 157.5 107.5 L 173.75 98.75 L 182.5 92.5 L 176.25 92.5 " stroke="black" fill="none" stroke-width="6.0" stroke-linecap="round" stroke-linejoin="round" />
<path d="M 106.25 120.0 L 105.0 120.0 L 101.25 120.0 L 101.25 123.75 L 103.75 136.25 L 107.5 155.0 L 111.25 168.75 L 112.5 173.75 L 112.5 173.75 L 112.5 168.75 L 111.25 162.5 L 111.25 156.25 L 111.25 152.5 L 110.0 148.75 L 108.75 147.5 L 107.5 147.5 L 110.0 147.5 L 122.5 146.25 L 145.0 141.25 L 171.25 133.75 L 196.25 126.25 L 207.5 125.0 L 210.0 126.25 L 210.0 135.0 L 207.5 145.0 L 202.5 155.0 L 197.5 162.5 L 192.5 165.0 L 187.5 165.0 " stroke="black" fill="none" stroke-width="6.0" stroke-linecap="round" stroke-linejoin="round" />
<path d="M 151.25 90.0 L 151.25 90.0 L 150.0 90.0 L 148.75 88.75 L 148.75 98.75 L 151.25 113.75 L 153.75 146.25 L 153.75 160.0 L 153.75 163.75 L 153.75 163.75 L 155.0 162.5 L 161.25 160.0 L 168.75 153.75 L 175.0 147.5 L 178.75 142.5 L 180.0 140.0 L 178.75 138.75 L 176.25 138.75 L 173.75 138.75 L 173.75 138.75 L 172.5 138.75 L 172.5 140.0 L 175.0 142.5 L 178.75 146.25 L 181.25 152.5 L 181.25 153.75 " stroke="black" fill="none" stroke-width="6.0" stroke-linecap="round" stroke-linejoin="round" />
<path d="M 91.25 190.0 L 87.5 192.5 L 86.25 196.25 L 90.0 205.0 L 98.75 220.0 L 112.5 228.75 L 123.75 231.25 L 123.75 231.25 " stroke="black" fill="none" stroke-width="6.0" stroke-linecap="round" stroke-linejoin="round" />
<path d="M 146.25 190.0 L 146.25 191.25 L 147.5 198.75 L 156.25 211.25 L 170.0 223.75 L 187.5 230.0 L 202.5 226.25 L 208.75 217.5 L 210.0 210.0 L 203.75 205.0 L 192.5 201.25 L 173.75 197.5 L 158.75 195.0 L 152.5 195.0 L 156.25 195.0 L 175.0 191.25 L 200.0 183.75 L 223.75 177.5 L 240.0 173.75 " stroke="black" fill="none" stroke-width="6.0" stroke-linecap="round" stroke-linejoin="round" />
</svg>