<svg xmlns="http://www.w3.org/2000/svg" width="300" height="300" viewBox="0 0 300 300">
<path d="M 96.25 115.0 L 93.75 116.25 L 87.5 118.75 L 87.5 120.0 L 101.25 122.5 L 132.5 118.75 L 171.25 107.5 L 203.75 97.5 L 213.75 92.5 L 212.5 91.25 L 207.5 90.0 L 197.5 86.25 L 186.25 85.0 L 173.75 82.5 L 163.75 80.0 L 161.25 78.75 L 161.25 78.75 L 163.75 80.0 L 170.0 97.5 L 172.5 140.0 L 171.25 197.5 L 168.75 232.5 L 167.5 248.75 L 165.0 252.5 L 161.25 253.75 L 153.75 251.25 L 145.0 240.0 L 140.0 228.75 " stroke="black" fill="none" stroke-width="6.0" stroke-linecap="round" stroke-linejoin="round" />
<path d="M 168.75 136.25 L 168.75 135.0 L 167.5 133.75 L 158.75 143.75 L 137.5 170.0 L 103.75 198.75 L 82.5 210.0 L 67.5 207.5 L 63.75 201.25 " stroke="black" fill="none" stroke-width="6.0" stroke-linecap="round" stroke-linejoin="round" />
</svg>