<svg xmlns="http://www.w3.org/2000/svg" width="300" height="300" viewBox="0 0 300 300">
<path d="M 128.75 73.75 L 128.75 72.5 L 128.75 72.5 L 135.0 72.5 L 147.5 73.75 L 161.25 76.25 L 170.0 76.25 L 168.75 76.25 " stroke="black" fill="none" stroke-width="6.0" stroke-linecap="round" stroke-linejoin="round" />
<path d="M 103.75 97.5 L 103.75 97.5 L 102.5 98.75 L 103.75 98.75 L 122.5 96.25 L 151.25 90.0 L 177.5 83.75 L 188.75 82.5 L 187.5 85.0 L 172.5 93.75 L 155.0 105.0 L 140.0 115.0 L 125.0 123.75 L 121.25 125.0 L 127.5 122.5 L 142.5 115.0 L 157.5 106.25 L 171.25 98.75 L 176.25 96.25 L 168.75 97.5 L 165.0 98.75 " stroke="black" fill="none" stroke-width="6.0" stroke-linecap="round" stroke-linejoin="round" />
<path d="M 121.25 93.75 L 120.0 93.75 L 116.25 98.75 L 113.75 130.0 L 107.5 178.75 L 98.75 215.0 L 92.5 233.75 L 88.75 241.25 L 86.25 235.0 L 86.25 231.25 " stroke="black" fill="none" stroke-width="6.0" stroke-linecap="round" stroke-linejoin="round" />
<path d="M 140.0 130.0 L 142.5 130.0 L 147.5 130.0 L 158.75 133.75 L 173.75 138.75 L 186.25 141.25 L 188.75 142.5 L 182.5 145.0 L 167.5 147.5 L 151.25 150.0 L 137.5 155.0 L 123.75 162.5 L 120.0 166.25 L 125.0 166.25 L 141.25 158.75 L 160.0 148.75 L 180.0 137.5 L 197.5 127.5 L 202.5 123.75 L 198.75 125.0 L 188.75 132.5 L 175.0 145.0 L 158.75 165.0 L 140.0 197.5 L 126.25 221.25 L 121.25 228.75 L 120.0 225.0 " stroke="black" fill="none" stroke-width="6.0" stroke-linecap="round" stroke-linejoin="round" />
<path d="M 165.0 160.0 L 166.25 160.0 L 168.75 158.75 L 178.75 165.0 L 193.75 177.5 L 203.75 191.25 L 202.5 202.5 L 191.25 216.25 L 175.0 228.75 L 161.25 236.25 L 155.0 237.5 L 155.0 233.75 L 155.0 220.0 " stroke="black" fill="none" stroke-width="6.0" stroke-linecap="round" stroke-linejoin="round" />
</svg>