<svg xmlns="http://www.w3.org/2000/svg" width="300" height="300" viewBox="0 0 300 300">
<path d="M 73.75 133.75 L 72.5 133.75 L 71.25 135.0 L 78.75 132.5 L 95.0 122.5 L 113.75 111.25 L 122.5 105.0 L 122.5 103.75 " stroke="black" fill="none" stroke-width="6.0" stroke-linecap="round" stroke-linejoin="round" />
<path d="M 92.5 102.5 L 92.5 106.25 L 91.25 123.75 L 98.75 165.0 L 103.75 206.25 L 103.75 221.25 L 103.75 223.75 L 103.75 223.75 L 100.0 221.25 L 95.0 216.25 L 86.25 210.0 L 73.75 202.5 L 61.25 197.5 L 55.0 195.0 L 55.0 195.0 L 65.0 195.0 L 82.5 187.5 L 105.0 175.0 L 126.25 155.0 " stroke="black" fill="none" stroke-width="6.0" stroke-linecap="round" stroke-linejoin="round" />
<path d="M 143.75 95.0 L 140.0 97.5 L 138.75 98.75 L 148.75 96.25 L 163.75 92.5 L 180.0 87.5 L 188.75 85.0 L 188.75 85.0 " stroke="black" fill="none" stroke-width="6.0" stroke-linecap="round" stroke-linejoin="round" />
<path d="M 137.5 181.25 L 133.75 183.75 L 135.0 182.5 L 150.0 172.5 L 173.75 156.25 L 196.25 141.25 L 201.25 135.0 L 200.0 135.0 " stroke="black" fill="none" stroke-width="6.0" stroke-linecap="round" stroke-linejoin="round" />
<path d="M 153.75 118.75 L 148.75 120.0 L 147.5 128.75 L 150.0 156.25 L 158.75 197.5 L 167.5 218.75 L 181.25 228.75 L 196.25 232.5 L 208.75 232.5 L 221.25 228.75 L 233.75 225.0 L 243.75 220.0 L 247.5 217.5 L 247.5 216.25 L 247.5 216.25 L 247.5 216.25 L 246.25 216.25 L 246.25 213.75 L 245.0 203.75 L 245.0 182.5 L 238.75 146.25 " stroke="black" fill="none" stroke-width="6.0" stroke-linecap="round" stroke-linejoin="round" />
</svg>