<svg xmlns="http://www.w3.org/2000/svg" width="300" height="300" viewBox="0 0 300 300">
<path d="M 78.75 113.75 L 78.75 113.75 L 76.25 115.0 L 81.25 116.25 L 97.5 116.25 L 123.75 111.25 L 145.0 102.5 L 148.75 100.0 " stroke="black" fill="none" stroke-width="6.0" stroke-linecap="round" stroke-linejoin="round" />
<path d="M 92.5 151.25 L 88.75 168.75 L 87.5 202.5 L 90.0 231.25 L 93.75 242.5 L 95.0 243.75 " stroke="black" fill="none" stroke-width="6.0" stroke-linecap="round" stroke-linejoin="round" />
<path d="M 82.5 176.25 L 77.5 171.25 L 77.5 170.0 L 87.5 166.25 L 103.75 162.5 L 122.5 160.0 L 133.75 160.0 L 131.25 167.5 L 116.25 182.5 L 102.5 195.0 L 93.75 201.25 L 93.75 201.25 L 111.25 188.75 L 136.25 166.25 L 157.5 142.5 L 163.75 131.25 " stroke="black" fill="none" stroke-width="6.0" stroke-linecap="round" stroke-linejoin="round" />
<path d="M 176.25 95.0 L 176.25 92.5 L 175.0 90.0 L 175.0 88.75 L 180.0 96.25 L 188.75 108.75 L 196.25 123.75 L 200.0 135.0 L 200.0 141.25 " stroke="black" fill="none" stroke-width="6.0" stroke-linecap="round" stroke-linejoin="round" />
<path d="M 150.0 146.25 L 150.0 147.5 L 150.0 152.5 L 150.0 167.5 L 153.75 192.5 L 156.25 207.5 L 160.0 211.25 L 161.25 207.5 L 161.25 198.75 L 161.25 190.0 L 161.25 181.25 L 161.25 172.5 L 160.0 167.5 L 162.5 165.0 L 178.75 161.25 L 202.5 151.25 L 226.25 138.75 L 240.0 132.5 L 241.25 131.25 L 233.75 135.0 L 222.5 141.25 L 212.5 146.25 L 205.0 153.75 L 200.0 166.25 L 200.0 192.5 L 202.5 231.25 L 205.0 275.0 L 205.0 283.75 L 200.0 285.0 L 188.75 283.75 " stroke="black" fill="none" stroke-width="6.0" stroke-linecap="round" stroke-linejoin="round" />
</svg>