<svg xmlns="http://www.w3.org/2000/svg" width="300" height="300" viewBox="0 0 300 300">
<path d="M 102.5 75.0 L 102.5 75.0 L 101.25 75.0 L 100.0 75.0 L 101.25 78.75 L 106.25 87.5 L 112.5 96.25 L 116.25 100.0 L 116.25 98.75 " stroke="black" fill="none" stroke-width="6.0" stroke-linecap="round" stroke-linejoin="round" />
<path d="M 108.75 85.0 L 107.5 85.0 L 105.0 85.0 L 103.75 85.0 L 103.75 85.0 L 112.5 85.0 L 123.75 82.5 L 133.75 80.0 L 138.75 78.75 L 138.75 78.75 " stroke="black" fill="none" stroke-width="6.0" stroke-linecap="round" stroke-linejoin="round" />
<path d="M 87.5 108.75 L 87.5 108.75 L 86.25 110.0 L 87.5 110.0 L 101.25 108.75 L 126.25 103.75 L 146.25 100.0 L 151.25 100.0 L 145.0 101.25 L 132.5 108.75 L 117.5 115.0 L 103.75 118.75 L 93.75 120.0 L 88.75 116.25 L 88.75 111.25 L 91.25 108.75 L 91.25 115.0 L 92.5 137.5 L 92.5 177.5 L 92.5 215.0 L 88.75 240.0 L 83.75 247.5 L 77.5 246.25 L 76.25 243.75 " stroke="black" fill="none" stroke-width="6.0" stroke-linecap="round" stroke-linejoin="round" />
<path d="M 88.75 150.0 L 88.75 150.0 L 88.75 150.0 L 91.25 150.0 L 105.0 145.0 L 126.25 135.0 L 141.25 126.25 L 143.75 118.75 L 135.0 118.75 L 126.25 121.25 L 117.5 126.25 L 111.25 130.0 L 107.5 136.25 L 110.0 146.25 L 118.75 152.5 L 131.25 152.5 L 143.75 142.5 L 150.0 130.0 L 150.0 123.75 " stroke="black" fill="none" stroke-width="6.0" stroke-linecap="round" stroke-linejoin="round" />
<path d="M 101.25 167.5 L 100.0 168.75 L 98.75 171.25 L 97.5 172.5 L 97.5 175.0 L 98.75 175.0 L 103.75 175.0 L 107.5 175.0 L 113.75 172.5 L 122.5 167.5 L 132.5 162.5 L 140.0 157.5 L 143.75 153.75 L 143.75 153.75 " stroke="black" fill="none" stroke-width="6.0" stroke-linecap="round" stroke-linejoin="round" />
<path d="M 110.0 180.0 L 108.75 183.75 L 108.75 188.75 L 112.5 196.25 L 120.0 202.5 L 126.25 205.0 L 127.5 206.25 L 123.75 206.25 L 118.75 203.75 L 112.5 201.25 L 110.0 198.75 L 110.0 195.0 L 115.0 188.75 L 126.25 182.5 L 137.5 176.25 L 145.0 172.5 L 145.0 176.25 L 137.5 186.25 L 128.75 196.25 L 121.25 205.0 L 116.25 208.75 L 116.25 208.75 L 123.75 203.75 L 131.25 196.25 L 137.5 190.0 L 137.5 188.75 L 132.5 195.0 L 126.25 206.25 L 121.25 222.5 L 120.0 236.25 L 121.25 243.75 L 121.25 245.0 L 122.5 243.75 " stroke="black" fill="none" stroke-width="6.0" stroke-linecap="round" stroke-linejoin="round" />
<path d="M 147.5 196.25 L 147.5 198.75 L 145.0 203.75 L 140.0 216.25 L 133.75 230.0 L 126.25 238.75 L 122.5 240.0 L 122.5 240.0 L 126.25 237.5 L 136.25 232.5 L 150.0 222.5 L 160.0 213.75 " stroke="black" fill="none" stroke-width="6.0" stroke-linecap="round" stroke-linejoin="round" />
<path d="M 158.75 127.5 L 151.25 131.25 L 151.25 132.5 L 162.5 132.5 L 185.0 126.25 L 207.5 115.0 L 225.0 106.25 L 228.75 101.25 L 221.25 102.5 L 213.75 103.75 " stroke="black" fill="none" stroke-width="6.0" stroke-linecap="round" stroke-linejoin="round" />
<path d="M 185.0 93.75 L 185.0 93.75 L 185.0 92.5 L 185.0 91.25 L 185.0 92.5 L 186.25 113.75 L 195.0 160.0 L 206.25 208.75 L 217.5 232.5 L 228.75 246.25 L 236.25 251.25 L 237.5 251.25 L 237.5 248.75 L 237.5 243.75 L 237.5 232.5 L 235.0 217.5 L 233.75 201.25 L 231.25 182.5 L 226.25 163.75 L 226.25 158.75 " stroke="black" fill="none" stroke-width="6.0" stroke-linecap="round" stroke-linejoin="round" />
<path d="M 232.5 140.0 L 232.5 140.0 L 232.5 140.0 L 230.0 141.25 L 218.75 157.5 L 198.75 190.0 L 178.75 210.0 L 162.5 213.75 L 160.0 212.5 " stroke="black" fill="none" stroke-width="6.0" stroke-linecap="round" stroke-linejoin="round" />
<path d="M 216.25 76.25 L 216.25 73.75 L 216.25 72.5 L 221.25 72.5 L 231.25 80.0 L 242.5 93.75 L 243.75 97.5 " stroke="black" fill="none" stroke-width="6.0" stroke-linecap="round" stroke-linejoin="round" />
</svg>