<svg xmlns="http://www.w3.org/2000/svg" width="300" height="300" viewBox="0 0 300 300">
<path d="M 73.75 127.5 L 71.25 128.75 L 67.5 130.0 L 68.75 130.0 L 85.0 126.25 L 105.0 118.75 L 125.0 110.0 L 135.0 103.75 L 133.75 103.75 " stroke="black" fill="none" stroke-width="6.0" stroke-linecap="round" stroke-linejoin="round" />
<path d="M 96.25 101.25 L 95.0 101.25 L 92.5 100.0 L 92.5 103.75 L 95.0 136.25 L 98.75 198.75 L 100.0 233.75 L 98.75 245.0 L 98.75 246.25 L 97.5 245.0 L 95.0 238.75 L 92.5 230.0 L 86.25 221.25 L 76.25 212.5 L 65.0 205.0 L 57.5 201.25 L 56.25 200.0 L 66.25 200.0 L 85.0 197.5 L 107.5 186.25 L 132.5 166.25 L 137.5 160.0 " stroke="black" fill="none" stroke-width="6.0" stroke-linecap="round" stroke-linejoin="round" />
<path d="M 161.25 87.5 L 161.25 87.5 L 161.25 87.5 L 165.0 88.75 L 177.5 92.5 L 191.25 95.0 L 200.0 96.25 L 200.0 96.25 " stroke="black" fill="none" stroke-width="6.0" stroke-linecap="round" stroke-linejoin="round" />
<path d="M 141.25 132.5 L 138.75 135.0 L 136.25 136.25 L 142.5 137.5 L 160.0 133.75 L 186.25 123.75 L 207.5 112.5 L 215.0 106.25 L 211.25 106.25 " stroke="black" fill="none" stroke-width="6.0" stroke-linecap="round" stroke-linejoin="round" />
<path d="M 161.25 141.25 L 157.5 148.75 L 153.75 167.5 L 152.5 197.5 L 150.0 218.75 L 148.75 226.25 L 146.25 227.5 L 146.25 223.75 " stroke="black" fill="none" stroke-width="6.0" stroke-linecap="round" stroke-linejoin="round" />
<path d="M 152.5 167.5 L 151.25 166.25 L 150.0 163.75 L 153.75 160.0 L 165.0 156.25 L 181.25 151.25 L 191.25 150.0 L 195.0 155.0 L 193.75 176.25 L 191.25 202.5 L 191.25 227.5 L 198.75 245.0 L 208.75 252.5 L 218.75 256.25 L 227.5 257.5 L 231.25 257.5 L 231.25 257.5 L 231.25 257.5 L 231.25 257.5 L 231.25 256.25 L 231.25 253.75 L 231.25 250.0 L 231.25 243.75 L 233.75 228.75 L 237.5 200.0 L 237.5 190.0 " stroke="black" fill="none" stroke-width="6.0" stroke-linecap="round" stroke-linejoin="round" />
</svg>