<svg xmlns="http://www.w3.org/2000/svg" width="300" height="300" viewBox="0 0 300 300">
<path d="M 68.75 138.75 L 67.5 138.75 L 65.0 138.75 L 63.75 138.75 L 75.0 137.5 L 96.25 130.0 L 118.75 120.0 L 131.25 112.5 L 131.25 108.75 L 121.25 107.5 L 110.0 107.5 L 101.25 108.75 L 96.25 108.75 L 93.75 113.75 L 93.75 127.5 L 100.0 160.0 L 103.75 208.75 L 102.5 246.25 L 101.25 253.75 L 101.25 253.75 L 98.75 250.0 L 95.0 243.75 L 90.0 233.75 L 82.5 220.0 L 75.0 210.0 L 63.75 203.75 L 55.0 205.0 L 50.0 208.75 L 51.25 211.25 L 63.75 208.75 L 87.5 195.0 L 116.25 176.25 L 122.5 170.0 " stroke="black" fill="none" stroke-width="6.0" stroke-linecap="round" stroke-linejoin="round" />
<path d="M 150.0 128.75 L 150.0 128.75 L 150.0 128.75 L 150.0 128.75 L 162.5 126.25 L 185.0 117.5 L 203.75 107.5 L 208.75 102.5 L 205.0 103.75 " stroke="black" fill="none" stroke-width="6.0" stroke-linecap="round" stroke-linejoin="round" />
<path d="M 146.25 185.0 L 146.25 186.25 L 146.25 187.5 L 152.5 185.0 L 177.5 167.5 L 206.25 145.0 L 216.25 131.25 L 210.0 126.25 " stroke="black" fill="none" stroke-width="6.0" stroke-linecap="round" stroke-linejoin="round" />
<path d="M 168.75 92.5 L 170.0 95.0 L 172.5 106.25 L 175.0 141.25 L 172.5 183.75 L 163.75 208.75 L 155.0 222.5 L 143.75 231.25 L 132.5 233.75 L 123.75 226.25 " stroke="black" fill="none" stroke-width="6.0" stroke-linecap="round" stroke-linejoin="round" />
<path d="M 165.0 175.0 L 167.5 175.0 L 176.25 182.5 L 193.75 200.0 L 210.0 220.0 L 225.0 238.75 L 242.5 251.25 L 256.25 260.0 L 265.0 266.25 L 271.25 270.0 L 273.75 272.5 " stroke="black" fill="none" stroke-width="6.0" stroke-linecap="round" stroke-linejoin="round" />
</svg>