<svg xmlns="http://www.w3.org/2000/svg" width="300" height="300" viewBox="0 0 300 300">
<path d="M 130.0 85.0 L 122.5 83.75 L 120.0 83.75 L 122.5 83.75 L 135.0 83.75 L 150.0 87.5 L 161.25 91.25 L 168.75 96.25 L 170.0 105.0 L 160.0 116.25 L 150.0 127.5 L 143.75 133.75 L 142.5 137.5 L 146.25 143.75 L 152.5 158.75 L 157.5 188.75 L 157.5 218.75 L 153.75 240.0 L 147.5 252.5 L 141.25 257.5 L 135.0 257.5 L 127.5 256.25 L 121.25 250.0 " stroke="black" fill="none" stroke-width="6.0" stroke-linecap="round" stroke-linejoin="round" />
<path d="M 121.25 167.5 L 118.75 167.5 L 118.75 167.5 L 130.0 167.5 L 146.25 165.0 L 163.75 161.25 L 173.75 157.5 L 175.0 156.25 " stroke="black" fill="none" stroke-width="6.0" stroke-linecap="round" stroke-linejoin="round" />
<path d="M 128.75 193.75 L 125.0 195.0 L 125.0 196.25 L 136.25 195.0 L 148.75 190.0 L 162.5 185.0 L 163.75 183.75 " stroke="black" fill="none" stroke-width="6.0" stroke-linecap="round" stroke-linejoin="round" />
<path d="M 128.75 212.5 L 126.25 216.25 L 126.25 217.5 L 138.75 216.25 L 153.75 208.75 L 170.0 197.5 L 171.25 195.0 " stroke="black" fill="none" stroke-width="6.0" stroke-linecap="round" stroke-linejoin="round" />
<path d="M 72.5 145.0 L 71.25 145.0 L 63.75 145.0 L 63.75 145.0 L 68.75 148.75 L 82.5 152.5 L 96.25 156.25 L 107.5 162.5 L 108.75 177.5 L 92.5 203.75 L 66.25 232.5 L 43.75 246.25 L 38.75 242.5 L 38.75 233.75 " stroke="black" fill="none" stroke-width="6.0" stroke-linecap="round" stroke-linejoin="round" />
<path d="M 228.75 126.25 L 226.25 127.5 L 222.5 128.75 L 218.75 131.25 L 212.5 137.5 L 205.0 145.0 L 198.75 151.25 L 195.0 156.25 L 193.75 156.25 L 193.75 156.25 L 193.75 156.25 L 193.75 156.25 L 195.0 156.25 L 196.25 160.0 L 201.25 168.75 L 208.75 185.0 L 222.5 207.5 L 240.0 227.5 L 261.25 243.75 L 272.5 247.5 " stroke="black" fill="none" stroke-width="6.0" stroke-linecap="round" stroke-linejoin="round" />
</svg>