<svg xmlns="http://www.w3.org/2000/svg" width="300" height="300" viewBox="0 0 300 300">
<path d="M 112.5 80.0 L 112.5 78.75 L 113.75 77.5 L 126.25 76.25 L 148.75 75.0 L 170.0 75.0 L 180.0 75.0 L 177.5 76.25 " stroke="black" fill="none" stroke-width="6.0" stroke-linecap="round" stroke-linejoin="round" />
<path d="M 105.0 118.75 L 105.0 121.25 L 103.75 125.0 L 110.0 125.0 L 130.0 120.0 L 156.25 111.25 L 181.25 103.75 L 192.5 102.5 L 190.0 105.0 L 180.0 116.25 L 163.75 130.0 L 148.75 141.25 L 133.75 152.5 L 121.25 161.25 L 118.75 162.5 L 121.25 161.25 L 132.5 153.75 L 147.5 145.0 L 161.25 135.0 L 170.0 127.5 L 171.25 125.0 " stroke="black" fill="none" stroke-width="6.0" stroke-linecap="round" stroke-linejoin="round" />
<path d="M 113.75 118.75 L 113.75 121.25 L 111.25 123.75 L 110.0 127.5 L 110.0 132.5 L 111.25 148.75 L 113.75 177.5 L 115.0 206.25 L 112.5 227.5 L 103.75 240.0 L 92.5 246.25 L 82.5 248.75 L 75.0 243.75 " stroke="black" fill="none" stroke-width="6.0" stroke-linecap="round" stroke-linejoin="round" />
</svg>