<svg xmlns="http://www.w3.org/2000/svg" width="300" height="300" viewBox="0 0 300 300">
<path d="M 65.0 123.75 L 60.0 128.75 L 60.0 130.0 L 77.5 127.5 L 97.5 118.75 L 118.75 108.75 L 131.25 98.75 L 131.25 95.0 L 121.25 95.0 L 111.25 96.25 L 102.5 97.5 L 96.25 97.5 L 93.75 98.75 L 93.75 105.0 L 97.5 131.25 L 105.0 183.75 L 107.5 217.5 L 107.5 227.5 L 107.5 227.5 L 106.25 225.0 L 103.75 216.25 L 98.75 207.5 L 91.25 201.25 L 78.75 196.25 L 63.75 195.0 L 57.5 195.0 L 58.75 196.25 L 77.5 191.25 L 100.0 176.25 L 128.75 153.75 " stroke="black" fill="none" stroke-width="6.0" stroke-linecap="round" stroke-linejoin="round" />
<path d="M 148.75 103.75 L 146.25 107.5 L 147.5 108.75 L 160.0 103.75 L 178.75 95.0 L 193.75 86.25 L 196.25 82.5 L 195.0 80.0 " stroke="black" fill="none" stroke-width="6.0" stroke-linecap="round" stroke-linejoin="round" />
<path d="M 151.25 83.75 L 150.0 83.75 L 147.5 88.75 L 146.25 102.5 L 150.0 128.75 L 161.25 143.75 L 178.75 146.25 L 200.0 135.0 L 211.25 120.0 L 217.5 105.0 " stroke="black" fill="none" stroke-width="6.0" stroke-linecap="round" stroke-linejoin="round" />
<path d="M 147.5 172.5 L 147.5 171.25 L 145.0 171.25 L 145.0 177.5 L 146.25 200.0 L 148.75 228.75 L 151.25 243.75 L 152.5 242.5 L 153.75 235.0 L 153.75 222.5 L 153.75 210.0 L 153.75 198.75 L 152.5 188.75 L 151.25 182.5 L 150.0 176.25 L 157.5 171.25 L 173.75 165.0 L 193.75 160.0 L 207.5 161.25 L 213.75 175.0 L 216.25 197.5 L 215.0 223.75 L 212.5 241.25 L 212.5 246.25 L 212.5 246.25 L 210.0 243.75 L 205.0 238.75 L 203.75 237.5 " stroke="black" fill="none" stroke-width="6.0" stroke-linecap="round" stroke-linejoin="round" />
<path d="M 155.0 217.5 L 153.75 218.75 L 148.75 221.25 L 147.5 221.25 L 155.0 218.75 L 171.25 211.25 L 188.75 203.75 L 205.0 193.75 L 208.75 190.0 " stroke="black" fill="none" stroke-width="6.0" stroke-linecap="round" stroke-linejoin="round" />
<path d="M 161.25 248.75 L 160.0 252.5 L 165.0 252.5 L 181.25 247.5 L 203.75 235.0 L 212.5 228.75 " stroke="black" fill="none" stroke-width="6.0" stroke-linecap="round" stroke-linejoin="round" />
</svg>