<svg xmlns="http://www.w3.org/2000/svg" width="300" height="300" viewBox="0 0 300 300">
<path d="M 67.5 126.25 L 63.75 127.5 L 61.25 127.5 L 65.0 126.25 L 77.5 122.5 L 90.0 115.0 L 101.25 107.5 L 107.5 102.5 L 107.5 100.0 L 103.75 100.0 L 96.25 100.0 L 90.0 101.25 L 86.25 101.25 L 83.75 103.75 L 82.5 113.75 L 85.0 143.75 L 91.25 197.5 L 95.0 232.5 L 96.25 245.0 L 96.25 247.5 L 96.25 247.5 L 95.0 245.0 L 91.25 240.0 L 86.25 231.25 L 78.75 221.25 L 71.25 211.25 L 63.75 205.0 L 58.75 202.5 L 58.75 202.5 L 61.25 202.5 L 71.25 198.75 L 85.0 191.25 L 101.25 177.5 L 113.75 158.75 L 115.0 155.0 " stroke="black" fill="none" stroke-width="6.0" stroke-linecap="round" stroke-linejoin="round" />
<path d="M 153.75 78.75 L 150.0 78.75 L 147.5 78.75 L 147.5 88.75 L 151.25 111.25 L 156.25 128.75 L 158.75 133.75 L 158.75 130.0 " stroke="black" fill="none" stroke-width="6.0" stroke-linecap="round" stroke-linejoin="round" />
<path d="M 151.25 87.5 L 151.25 87.5 L 147.5 86.25 L 146.25 85.0 L 148.75 83.75 L 158.75 81.25 L 176.25 78.75 L 192.5 78.75 L 201.25 81.25 L 201.25 87.5 L 191.25 98.75 L 180.0 111.25 L 167.5 120.0 L 160.0 123.75 " stroke="black" fill="none" stroke-width="6.0" stroke-linecap="round" stroke-linejoin="round" />
<path d="M 147.5 110.0 L 146.25 110.0 L 145.0 110.0 L 145.0 110.0 L 153.75 105.0 L 168.75 98.75 L 181.25 93.75 L 186.25 91.25 L 181.25 92.5 " stroke="black" fill="none" stroke-width="6.0" stroke-linecap="round" stroke-linejoin="round" />
<path d="M 155.0 126.25 L 152.5 127.5 L 153.75 127.5 L 162.5 126.25 L 177.5 118.75 L 190.0 108.75 L 192.5 106.25 " stroke="black" fill="none" stroke-width="6.0" stroke-linecap="round" stroke-linejoin="round" />
<path d="M 125.0 160.0 L 122.5 160.0 L 120.0 161.25 L 130.0 158.75 L 148.75 151.25 L 173.75 141.25 L 196.25 131.25 L 203.75 126.25 L 202.5 125.0 L 195.0 128.75 L 181.25 138.75 L 166.25 153.75 L 148.75 176.25 L 135.0 200.0 L 130.0 207.5 L 128.75 207.5 L 130.0 206.25 L 131.25 205.0 L 132.5 202.5 L 132.5 200.0 L 132.5 198.75 L 132.5 198.75 L 132.5 198.75 L 132.5 198.75 L 132.5 197.5 L 133.75 197.5 L 137.5 197.5 L 147.5 195.0 L 167.5 187.5 L 193.75 180.0 L 211.25 173.75 L 218.75 173.75 L 221.25 173.75 L 223.75 176.25 L 223.75 181.25 L 223.75 190.0 L 217.5 203.75 L 211.25 221.25 L 203.75 237.5 L 197.5 247.5 L 191.25 250.0 " stroke="black" fill="none" stroke-width="6.0" stroke-linecap="round" stroke-linejoin="round" />
<path d="M 168.75 195.0 L 167.5 196.25 L 162.5 201.25 L 158.75 211.25 L 158.75 225.0 L 158.75 231.25 L 160.0 232.5 " stroke="black" fill="none" stroke-width="6.0" stroke-linecap="round" stroke-linejoin="round" />
<path d="M 192.5 190.0 L 192.5 190.0 L 192.5 190.0 L 192.5 202.5 L 187.5 227.5 L 178.75 248.75 " stroke="black" fill="none" stroke-width="6.0" stroke-linecap="round" stroke-linejoin="round" />
</svg>