<svg xmlns="http://www.w3.org/2000/svg" width="300" height="300" viewBox="0 0 300 300">
<path d="M 148.75 55.0 L 148.75 55.0 L 148.75 56.25 L 148.75 61.25 L 150.0 70.0 L 151.25 78.75 L 151.25 83.75 " stroke="black" fill="none" stroke-width="6.0" stroke-linecap="round" stroke-linejoin="round" />
<path d="M 118.75 68.75 L 118.75 67.5 L 118.75 66.25 L 120.0 65.0 L 128.75 70.0 L 137.5 82.5 L 145.0 93.75 L 146.25 95.0 " stroke="black" fill="none" stroke-width="6.0" stroke-linecap="round" stroke-linejoin="round" />
<path d="M 198.75 52.5 L 198.75 52.5 L 197.5 52.5 L 190.0 60.0 L 171.25 81.25 L 152.5 98.75 " stroke="black" fill="none" stroke-width="6.0" stroke-linecap="round" stroke-linejoin="round" />
<path d="M 105.0 96.25 L 102.5 98.75 L 98.75 106.25 L 95.0 130.0 L 90.0 158.75 L 88.75 175.0 L 88.75 176.25 L 88.75 172.5 " stroke="black" fill="none" stroke-width="6.0" stroke-linecap="round" stroke-linejoin="round" />
<path d="M 106.25 108.75 L 106.25 107.5 L 112.5 106.25 L 136.25 102.5 L 170.0 96.25 L 203.75 91.25 L 217.5 90.0 L 220.0 92.5 L 210.0 100.0 L 196.25 108.75 L 178.75 116.25 L 173.75 118.75 " stroke="black" fill="none" stroke-width="6.0" stroke-linecap="round" stroke-linejoin="round" />
<path d="M 147.5 111.25 L 147.5 111.25 L 147.5 113.75 L 147.5 123.75 L 151.25 140.0 L 155.0 151.25 L 156.25 152.5 L 153.75 148.75 L 151.25 142.5 L 150.0 136.25 L 148.75 128.75 L 150.0 122.5 L 156.25 117.5 L 166.25 115.0 L 175.0 117.5 L 176.25 127.5 L 168.75 138.75 L 158.75 148.75 L 152.5 151.25 L 151.25 151.25 L 156.25 147.5 L 168.75 138.75 L 180.0 131.25 L 186.25 127.5 L 180.0 133.75 L 177.5 135.0 " stroke="black" fill="none" stroke-width="6.0" stroke-linecap="round" stroke-linejoin="round" />
<path d="M 141.25 173.75 L 140.0 173.75 L 140.0 173.75 L 147.5 170.0 L 166.25 158.75 L 185.0 150.0 L 191.25 146.25 L 182.5 152.5 L 167.5 161.25 L 151.25 175.0 L 136.25 192.5 L 127.5 205.0 L 128.75 206.25 L 142.5 200.0 L 157.5 188.75 L 176.25 176.25 L 190.0 166.25 L 192.5 163.75 L 180.0 175.0 L 161.25 191.25 L 156.25 195.0 " stroke="black" fill="none" stroke-width="6.0" stroke-linecap="round" stroke-linejoin="round" />
<path d="M 112.5 243.75 L 110.0 250.0 L 108.75 252.5 L 123.75 248.75 L 150.0 232.5 L 181.25 208.75 L 206.25 190.0 L 212.5 177.5 L 206.25 173.75 L 201.25 173.75 " stroke="black" fill="none" stroke-width="6.0" stroke-linecap="round" stroke-linejoin="round" />
<path d="M 173.75 162.5 L 173.75 162.5 L 173.75 165.0 L 175.0 187.5 L 177.5 222.5 L 180.0 253.75 L 180.0 272.5 L 180.0 275.0 L 177.5 275.0 L 168.75 275.0 L 155.0 272.5 L 137.5 267.5 L 112.5 258.75 L 106.25 255.0 " stroke="black" fill="none" stroke-width="6.0" stroke-linecap="round" stroke-linejoin="round" />
</svg>