<svg xmlns="http://www.w3.org/2000/svg" width="300" height="300" viewBox="0 0 300 300">
<path d="M 75.0 136.25 L 65.0 140.0 L 61.25 141.25 L 70.0 138.75 L 88.75 131.25 L 110.0 120.0 L 127.5 107.5 L 135.0 101.25 L 131.25 100.0 L 121.25 101.25 L 111.25 102.5 L 103.75 102.5 L 97.5 102.5 L 93.75 102.5 L 93.75 103.75 L 96.25 122.5 L 102.5 171.25 L 107.5 217.5 L 110.0 228.75 L 110.0 230.0 L 110.0 230.0 L 106.25 226.25 L 98.75 220.0 L 88.75 212.5 L 77.5 206.25 L 66.25 200.0 L 63.75 200.0 L 68.75 200.0 L 83.75 193.75 L 103.75 178.75 L 125.0 157.5 L 133.75 146.25 " stroke="black" fill="none" stroke-width="6.0" stroke-linecap="round" stroke-linejoin="round" />
<path d="M 152.5 61.25 L 152.5 61.25 L 151.25 61.25 L 160.0 58.75 L 178.75 56.25 L 195.0 55.0 L 197.5 55.0 " stroke="black" fill="none" stroke-width="6.0" stroke-linecap="round" stroke-linejoin="round" />
<path d="M 155.0 85.0 L 153.75 88.75 L 150.0 101.25 L 152.5 122.5 L 156.25 138.75 L 158.75 142.5 " stroke="black" fill="none" stroke-width="6.0" stroke-linecap="round" stroke-linejoin="round" />
<path d="M 206.25 86.25 L 206.25 86.25 L 206.25 87.5 L 200.0 97.5 L 182.5 126.25 L 157.5 152.5 L 140.0 171.25 L 130.0 180.0 L 131.25 180.0 L 146.25 172.5 L 170.0 156.25 L 200.0 138.75 L 226.25 122.5 L 238.75 110.0 L 238.75 103.75 L 226.25 103.75 L 211.25 102.5 L 197.5 100.0 L 185.0 93.75 L 177.5 86.25 L 176.25 77.5 L 177.5 73.75 L 181.25 76.25 L 183.75 93.75 L 187.5 137.5 L 191.25 188.75 L 193.75 217.5 L 195.0 227.5 L 195.0 232.5 L 193.75 232.5 L 188.75 227.5 L 187.5 225.0 " stroke="black" fill="none" stroke-width="6.0" stroke-linecap="round" stroke-linejoin="round" />
<path d="M 188.75 173.75 L 176.25 185.0 L 165.0 196.25 L 153.75 211.25 L 145.0 220.0 L 140.0 221.25 L 140.0 220.0 " stroke="black" fill="none" stroke-width="6.0" stroke-linecap="round" stroke-linejoin="round" />
<path d="M 192.5 155.0 L 193.75 155.0 L 195.0 155.0 L 197.5 155.0 L 203.75 157.5 L 210.0 162.5 L 213.75 165.0 L 216.25 167.5 L 216.25 167.5 L 216.25 167.5 L 216.25 167.5 L 216.25 167.5 L 216.25 167.5 L 215.0 167.5 L 215.0 167.5 L 215.0 167.5 L 215.0 167.5 L 221.25 173.75 L 238.75 190.0 L 261.25 210.0 L 268.75 217.5 " stroke="black" fill="none" stroke-width="6.0" stroke-linecap="round" stroke-linejoin="round" />
</svg>