<svg xmlns="http://www.w3.org/2000/svg" width="300" height="300" viewBox="0 0 300 300">
<path d="M 65.0 133.75 L 65.0 133.75 L 61.25 133.75 L 58.75 133.75 L 65.0 131.25 L 82.5 122.5 L 100.0 112.5 L 111.25 105.0 L 112.5 102.5 L 107.5 102.5 L 97.5 103.75 L 91.25 103.75 L 86.25 105.0 L 86.25 107.5 L 87.5 122.5 L 92.5 153.75 L 96.25 197.5 L 96.25 221.25 L 95.0 230.0 L 93.75 231.25 L 91.25 230.0 L 87.5 225.0 L 80.0 217.5 L 70.0 213.75 L 60.0 211.25 L 52.5 210.0 L 52.5 210.0 L 57.5 207.5 L 72.5 196.25 L 91.25 177.5 L 110.0 151.25 " stroke="black" fill="none" stroke-width="6.0" stroke-linecap="round" stroke-linejoin="round" />
<path d="M 140.0 80.0 L 138.75 77.5 L 136.25 75.0 L 135.0 75.0 L 137.5 83.75 L 143.75 102.5 L 151.25 125.0 L 157.5 137.5 L 158.75 138.75 L 158.75 133.75 L 155.0 126.25 L 151.25 118.75 L 147.5 110.0 L 143.75 102.5 L 140.0 96.25 L 137.5 92.5 L 137.5 90.0 L 142.5 86.25 L 155.0 80.0 L 172.5 73.75 L 187.5 72.5 L 193.75 82.5 L 190.0 98.75 L 177.5 115.0 L 166.25 127.5 L 156.25 131.25 L 150.0 127.5 " stroke="black" fill="none" stroke-width="6.0" stroke-linecap="round" stroke-linejoin="round" />
<path d="M 143.75 106.25 L 143.75 106.25 L 142.5 107.5 L 142.5 107.5 L 147.5 103.75 L 161.25 95.0 L 178.75 85.0 L 188.75 80.0 L 185.0 82.5 " stroke="black" fill="none" stroke-width="6.0" stroke-linecap="round" stroke-linejoin="round" />
<path d="M 155.0 120.0 L 152.5 127.5 L 150.0 128.75 L 153.75 126.25 L 162.5 117.5 L 173.75 108.75 L 180.0 100.0 L 178.75 100.0 " stroke="black" fill="none" stroke-width="6.0" stroke-linecap="round" stroke-linejoin="round" />
<path d="M 116.25 177.5 L 116.25 182.5 L 121.25 181.25 L 140.0 165.0 L 167.5 142.5 L 200.0 120.0 L 215.0 106.25 L 217.5 102.5 L 210.0 103.75 L 200.0 111.25 L 190.0 118.75 L 181.25 126.25 L 176.25 131.25 L 175.0 136.25 L 176.25 147.5 L 178.75 167.5 L 180.0 190.0 L 180.0 200.0 L 180.0 200.0 L 180.0 196.25 L 182.5 188.75 L 186.25 181.25 L 192.5 171.25 L 198.75 161.25 L 206.25 150.0 L 211.25 142.5 L 211.25 138.75 L 202.5 141.25 L 200.0 142.5 " stroke="black" fill="none" stroke-width="6.0" stroke-linecap="round" stroke-linejoin="round" />
<path d="M 150.0 156.25 L 147.5 162.5 L 145.0 175.0 L 142.5 198.75 L 141.25 218.75 L 141.25 228.75 L 138.75 231.25 L 136.25 230.0 " stroke="black" fill="none" stroke-width="6.0" stroke-linecap="round" stroke-linejoin="round" />
<path d="M 145.0 191.25 L 145.0 190.0 L 143.75 188.75 L 143.75 188.75 L 145.0 190.0 L 148.75 192.5 L 153.75 193.75 L 158.75 196.25 L 162.5 197.5 L 166.25 197.5 L 171.25 200.0 L 176.25 202.5 L 186.25 210.0 L 203.75 222.5 L 226.25 235.0 L 250.0 245.0 L 265.0 250.0 L 273.75 251.25 L 273.75 251.25 " stroke="black" fill="none" stroke-width="6.0" stroke-linecap="round" stroke-linejoin="round" />
</svg>