<svg xmlns="http://www.w3.org/2000/svg" width="300" height="300" viewBox="0 0 300 300">
<path d="M 65.0 131.25 L 57.5 135.0 L 56.25 135.0 L 66.25 135.0 L 83.75 130.0 L 103.75 121.25 L 120.0 110.0 L 123.75 105.0 L 116.25 103.75 L 102.5 107.5 L 92.5 110.0 L 85.0 111.25 L 82.5 116.25 L 85.0 136.25 L 91.25 187.5 L 93.75 231.25 L 93.75 242.5 L 92.5 243.75 L 91.25 241.25 L 88.75 236.25 L 85.0 227.5 L 77.5 217.5 L 68.75 210.0 L 61.25 206.25 L 57.5 205.0 L 58.75 206.25 L 70.0 206.25 L 88.75 196.25 L 110.0 176.25 L 132.5 150.0 " stroke="black" fill="none" stroke-width="6.0" stroke-linecap="round" stroke-linejoin="round" />
<path d="M 172.5 61.25 L 171.25 61.25 L 170.0 65.0 L 171.25 73.75 L 175.0 86.25 L 180.0 96.25 L 180.0 98.75 L 180.0 98.75 " stroke="black" fill="none" stroke-width="6.0" stroke-linecap="round" stroke-linejoin="round" />
<path d="M 161.25 83.75 L 161.25 82.5 L 162.5 80.0 L 182.5 75.0 L 192.5 75.0 L 195.0 80.0 L 190.0 87.5 L 181.25 96.25 L 175.0 100.0 L 173.75 101.25 L 176.25 100.0 L 186.25 92.5 L 193.75 86.25 L 195.0 83.75 " stroke="black" fill="none" stroke-width="6.0" stroke-linecap="round" stroke-linejoin="round" />
<path d="M 135.0 130.0 L 131.25 135.0 L 132.5 140.0 L 140.0 150.0 L 147.5 160.0 L 153.75 163.75 L 153.75 163.75 L 151.25 160.0 L 147.5 155.0 L 142.5 151.25 L 140.0 146.25 L 140.0 142.5 L 143.75 138.75 L 153.75 135.0 L 162.5 135.0 L 167.5 138.75 L 166.25 148.75 L 158.75 157.5 L 152.5 163.75 L 150.0 165.0 L 152.5 156.25 L 160.0 145.0 L 172.5 131.25 L 183.75 118.75 L 188.75 115.0 L 190.0 120.0 L 191.25 133.75 L 192.5 146.25 L 195.0 155.0 L 196.25 156.25 L 196.25 153.75 L 195.0 146.25 L 192.5 138.75 L 191.25 133.75 L 191.25 126.25 L 193.75 120.0 L 200.0 116.25 L 208.75 113.75 L 212.5 116.25 L 212.5 127.5 L 203.75 142.5 L 193.75 155.0 L 187.5 161.25 L 187.5 160.0 L 197.5 151.25 L 210.0 138.75 L 220.0 126.25 L 221.25 122.5 L 220.0 122.5 " stroke="black" fill="none" stroke-width="6.0" stroke-linecap="round" stroke-linejoin="round" />
<path d="M 122.5 208.75 L 120.0 211.25 L 123.75 211.25 L 146.25 201.25 L 186.25 181.25 L 218.75 160.0 L 232.5 148.75 L 233.75 146.25 L 222.5 147.5 L 211.25 151.25 L 201.25 153.75 L 193.75 156.25 L 190.0 158.75 L 190.0 161.25 L 190.0 166.25 L 193.75 185.0 L 196.25 217.5 L 197.5 245.0 L 197.5 255.0 L 197.5 257.5 L 197.5 257.5 L 196.25 255.0 L 191.25 252.5 L 180.0 248.75 L 176.25 247.5 " stroke="black" fill="none" stroke-width="6.0" stroke-linecap="round" stroke-linejoin="round" />
<path d="M 147.5 206.25 L 147.5 206.25 L 147.5 206.25 L 147.5 213.75 L 151.25 231.25 L 156.25 248.75 L 158.75 255.0 L 160.0 255.0 " stroke="black" fill="none" stroke-width="6.0" stroke-linecap="round" stroke-linejoin="round" />
<path d="M 220.0 193.75 L 221.25 195.0 L 223.75 200.0 L 231.25 208.75 L 241.25 221.25 L 246.25 230.0 L 250.0 233.75 " stroke="black" fill="none" stroke-width="6.0" stroke-linecap="round" stroke-linejoin="round" />
</svg>