<svg xmlns="http://www.w3.org/2000/svg" width="300" height="300" viewBox="0 0 300 300">
<path d="M 138.75 66.25 L 137.5 66.25 L 137.5 66.25 L 141.25 66.25 L 150.0 67.5 L 156.25 67.5 L 161.25 70.0 L 161.25 72.5 L 158.75 73.75 " stroke="black" fill="none" stroke-width="6.0" stroke-linecap="round" stroke-linejoin="round" />
<path d="M 80.0 97.5 L 78.75 98.75 L 77.5 100.0 L 85.0 100.0 L 108.75 96.25 L 143.75 86.25 L 165.0 77.5 L 175.0 71.25 L 175.0 70.0 L 163.75 71.25 " stroke="black" fill="none" stroke-width="6.0" stroke-linecap="round" stroke-linejoin="round" />
<path d="M 105.0 100.0 L 103.75 101.25 L 101.25 106.25 L 101.25 127.5 L 98.75 173.75 L 93.75 218.75 L 86.25 238.75 L 80.0 243.75 L 73.75 241.25 L 71.25 227.5 " stroke="black" fill="none" stroke-width="6.0" stroke-linecap="round" stroke-linejoin="round" />
<path d="M 112.5 127.5 L 112.5 128.75 L 116.25 130.0 L 130.0 126.25 L 145.0 117.5 L 155.0 105.0 L 156.25 96.25 L 156.25 95.0 " stroke="black" fill="none" stroke-width="6.0" stroke-linecap="round" stroke-linejoin="round" />
<path d="M 138.75 106.25 L 138.75 107.5 L 137.5 116.25 L 140.0 132.5 L 141.25 151.25 L 140.0 162.5 L 136.25 163.75 L 133.75 161.25 " stroke="black" fill="none" stroke-width="6.0" stroke-linecap="round" stroke-linejoin="round" />
<path d="M 132.5 133.75 L 127.5 140.0 L 116.25 153.75 L 107.5 166.25 L 101.25 170.0 L 101.25 167.5 " stroke="black" fill="none" stroke-width="6.0" stroke-linecap="round" stroke-linejoin="round" />
<path d="M 141.25 127.5 L 145.0 127.5 L 153.75 131.25 L 163.75 136.25 L 170.0 141.25 L 171.25 142.5 " stroke="black" fill="none" stroke-width="6.0" stroke-linecap="round" stroke-linejoin="round" />
<path d="M 160.0 118.75 L 160.0 118.75 L 163.75 116.25 L 177.5 110.0 L 193.75 101.25 L 203.75 92.5 L 206.25 88.75 L 202.5 87.5 L 197.5 87.5 L 192.5 90.0 L 190.0 90.0 L 188.75 93.75 L 188.75 102.5 L 190.0 121.25 L 191.25 145.0 L 192.5 157.5 L 187.5 161.25 L 185.0 160.0 " stroke="black" fill="none" stroke-width="6.0" stroke-linecap="round" stroke-linejoin="round" />
<path d="M 190.0 112.5 L 188.75 112.5 L 182.5 117.5 L 175.0 128.75 L 163.75 146.25 L 156.25 155.0 L 152.5 153.75 " stroke="black" fill="none" stroke-width="6.0" stroke-linecap="round" stroke-linejoin="round" />
<path d="M 187.5 115.0 L 188.75 115.0 L 196.25 118.75 L 207.5 126.25 L 218.75 135.0 L 221.25 137.5 " stroke="black" fill="none" stroke-width="6.0" stroke-linecap="round" stroke-linejoin="round" />
<path d="M 141.25 187.5 L 140.0 187.5 L 140.0 187.5 L 142.5 187.5 L 157.5 183.75 L 180.0 175.0 L 195.0 165.0 L 198.75 160.0 L 197.5 158.75 " stroke="black" fill="none" stroke-width="6.0" stroke-linecap="round" stroke-linejoin="round" />
<path d="M 145.0 210.0 L 145.0 210.0 L 146.25 211.25 L 158.75 208.75 L 178.75 200.0 L 193.75 190.0 L 197.5 183.75 L 193.75 183.75 " stroke="black" fill="none" stroke-width="6.0" stroke-linecap="round" stroke-linejoin="round" />
<path d="M 137.5 236.25 L 137.5 236.25 L 141.25 236.25 L 162.5 226.25 L 192.5 210.0 L 207.5 197.5 L 211.25 188.75 L 211.25 187.5 " stroke="black" fill="none" stroke-width="6.0" stroke-linecap="round" stroke-linejoin="round" />
<path d="M 183.75 177.5 L 183.75 178.75 L 183.75 185.0 L 185.0 207.5 L 185.0 247.5 L 185.0 271.25 L 185.0 278.75 L 182.5 281.25 L 176.25 281.25 L 166.25 280.0 L 155.0 277.5 L 142.5 271.25 L 131.25 266.25 L 118.75 261.25 L 115.0 260.0 " stroke="black" fill="none" stroke-width="6.0" stroke-linecap="round" stroke-linejoin="round" />
</svg>