<svg xmlns="http://www.w3.org/2000/svg" width="300" height="300" viewBox="0 0 300 300">
<path d="M 68.75 120.0 L 67.5 120.0 L 62.5 122.5 L 61.25 122.5 L 68.75 121.25 L 83.75 115.0 L 97.5 106.25 L 108.75 100.0 L 110.0 96.25 L 102.5 96.25 L 95.0 96.25 L 88.75 96.25 L 83.75 97.5 L 81.25 103.75 L 82.5 126.25 L 90.0 173.75 L 95.0 216.25 L 95.0 236.25 L 95.0 238.75 L 95.0 238.75 L 92.5 237.5 L 88.75 232.5 L 82.5 227.5 L 75.0 223.75 L 67.5 222.5 L 58.75 222.5 L 51.25 225.0 L 46.25 227.5 L 45.0 230.0 L 45.0 230.0 L 45.0 230.0 L 46.25 230.0 L 47.5 227.5 L 47.5 221.25 " stroke="black" fill="none" stroke-width="6.0" stroke-linecap="round" stroke-linejoin="round" />
<path d="M 56.25 190.0 L 51.25 192.5 L 47.5 195.0 L 50.0 196.25 L 66.25 188.75 L 90.0 170.0 L 100.0 156.25 " stroke="black" fill="none" stroke-width="6.0" stroke-linecap="round" stroke-linejoin="round" />
<path d="M 155.0 73.75 L 151.25 75.0 L 146.25 76.25 L 145.0 77.5 L 150.0 77.5 L 166.25 75.0 L 185.0 71.25 L 197.5 70.0 L 201.25 73.75 L 193.75 91.25 L 173.75 116.25 L 153.75 138.75 L 137.5 152.5 L 125.0 155.0 L 120.0 152.5 " stroke="black" fill="none" stroke-width="6.0" stroke-linecap="round" stroke-linejoin="round" />
<path d="M 136.25 96.25 L 137.5 93.75 L 140.0 92.5 L 147.5 91.25 L 163.75 95.0 L 187.5 105.0 L 207.5 116.25 L 216.25 126.25 L 215.0 130.0 " stroke="black" fill="none" stroke-width="6.0" stroke-linecap="round" stroke-linejoin="round" />
<path d="M 128.75 112.5 L 126.25 113.75 L 125.0 115.0 L 130.0 118.75 L 142.5 125.0 " stroke="black" fill="none" stroke-width="6.0" stroke-linecap="round" stroke-linejoin="round" />
<path d="M 172.5 81.25 L 172.5 81.25 L 170.0 81.25 L 168.75 81.25 L 168.75 81.25 L 171.25 85.0 L 172.5 86.25 " stroke="black" fill="none" stroke-width="6.0" stroke-linecap="round" stroke-linejoin="round" />
<path d="M 138.75 170.0 L 137.5 170.0 L 135.0 170.0 L 135.0 172.5 L 140.0 180.0 L 148.75 190.0 L 158.75 197.5 L 162.5 200.0 L 162.5 200.0 " stroke="black" fill="none" stroke-width="6.0" stroke-linecap="round" stroke-linejoin="round" />
<path d="M 143.75 187.5 L 137.5 185.0 L 135.0 182.5 L 141.25 177.5 L 161.25 168.75 L 191.25 160.0 L 211.25 157.5 L 216.25 160.0 L 207.5 173.75 L 192.5 188.75 L 173.75 200.0 L 156.25 207.5 L 151.25 210.0 L 156.25 206.25 L 172.5 196.25 L 190.0 183.75 L 203.75 171.25 L 206.25 166.25 L 197.5 167.5 L 187.5 171.25 L 177.5 171.25 L 170.0 170.0 L 166.25 165.0 L 166.25 162.5 L 168.75 165.0 L 172.5 182.5 L 173.75 207.5 L 171.25 231.25 L 163.75 243.75 L 155.0 248.75 L 150.0 250.0 L 148.75 250.0 L 152.5 246.25 L 166.25 237.5 L 183.75 226.25 L 201.25 215.0 L 212.5 207.5 L 216.25 206.25 L 217.5 206.25 L 216.25 206.25 L 213.75 203.75 L 211.25 201.25 L 208.75 200.0 L 207.5 197.5 L 206.25 197.5 L 206.25 196.25 L 206.25 196.25 L 205.0 196.25 L 205.0 196.25 L 205.0 196.25 L 205.0 196.25 L 205.0 196.25 L 205.0 196.25 L 205.0 196.25 L 207.5 198.75 L 213.75 208.75 L 227.5 228.75 L 245.0 256.25 L 248.75 267.5 " stroke="black" fill="none" stroke-width="6.0" stroke-linecap="round" stroke-linejoin="round" />
<path d="M 162.5 143.75 L 162.5 143.75 L 162.5 142.5 L 162.5 142.5 L 162.5 141.25 L 162.5 142.5 L 165.0 147.5 L 166.25 157.5 " stroke="black" fill="none" stroke-width="6.0" stroke-linecap="round" stroke-linejoin="round" />
</svg>