<svg xmlns="http://www.w3.org/2000/svg" width="300" height="300" viewBox="0 0 300 300">
<path d="M 70.0 128.75 L 68.75 128.75 L 66.25 128.75 L 68.75 128.75 L 82.5 122.5 L 102.5 112.5 L 117.5 103.75 L 120.0 100.0 " stroke="black" fill="none" stroke-width="6.0" stroke-linecap="round" stroke-linejoin="round" />
<path d="M 91.25 101.25 L 90.0 103.75 L 90.0 116.25 L 93.75 156.25 L 97.5 205.0 L 98.75 236.25 L 98.75 248.75 L 97.5 252.5 L 95.0 252.5 L 92.5 250.0 L 87.5 243.75 L 82.5 233.75 L 75.0 225.0 L 67.5 220.0 L 60.0 218.75 L 55.0 218.75 L 53.75 220.0 L 55.0 221.25 L 65.0 218.75 L 85.0 206.25 L 106.25 183.75 L 120.0 165.0 " stroke="black" fill="none" stroke-width="6.0" stroke-linecap="round" stroke-linejoin="round" />
<path d="M 143.75 86.25 L 140.0 87.5 L 137.5 88.75 L 137.5 92.5 L 142.5 98.75 L 151.25 102.5 L 155.0 102.5 " stroke="black" fill="none" stroke-width="6.0" stroke-linecap="round" stroke-linejoin="round" />
<path d="M 175.0 67.5 L 171.25 77.5 L 162.5 111.25 L 150.0 167.5 L 140.0 210.0 L 131.25 237.5 L 127.5 248.75 L 126.25 248.75 " stroke="black" fill="none" stroke-width="6.0" stroke-linecap="round" stroke-linejoin="round" />
<path d="M 181.25 103.75 L 181.25 102.5 L 181.25 102.5 L 183.75 102.5 L 188.75 105.0 L 196.25 111.25 L 201.25 118.75 L 201.25 125.0 L 193.75 133.75 L 182.5 142.5 L 175.0 146.25 L 175.0 147.5 L 186.25 146.25 L 201.25 141.25 L 211.25 137.5 L 215.0 137.5 L 211.25 145.0 L 200.0 160.0 L 188.75 175.0 L 181.25 186.25 L 180.0 188.75 L 187.5 188.75 L 201.25 182.5 L 216.25 176.25 L 231.25 175.0 L 240.0 186.25 L 237.5 203.75 L 225.0 222.5 L 211.25 237.5 L 198.75 243.75 L 182.5 243.75 L 163.75 241.25 L 158.75 238.75 " stroke="black" fill="none" stroke-width="6.0" stroke-linecap="round" stroke-linejoin="round" />
<path d="M 136.25 201.25 L 133.75 200.0 L 132.5 200.0 L 135.0 202.5 L 142.5 213.75 L 152.5 232.5 L 160.0 245.0 L 162.5 247.5 " stroke="black" fill="none" stroke-width="6.0" stroke-linecap="round" stroke-linejoin="round" />
<path d="M 162.5 206.25 L 162.5 205.0 L 161.25 203.75 L 163.75 207.5 L 170.0 217.5 L 177.5 228.75 L 182.5 235.0 L 183.75 235.0 " stroke="black" fill="none" stroke-width="6.0" stroke-linecap="round" stroke-linejoin="round" />
<path d="M 188.75 210.0 L 188.75 210.0 L 188.75 210.0 L 188.75 208.75 L 191.25 215.0 L 193.75 223.75 L 196.25 231.25 " stroke="black" fill="none" stroke-width="6.0" stroke-linecap="round" stroke-linejoin="round" />
<path d="M 213.75 198.75 L 213.75 198.75 L 215.0 198.75 L 222.5 203.75 L 233.75 218.75 L 236.25 223.75 " stroke="black" fill="none" stroke-width="6.0" stroke-linecap="round" stroke-linejoin="round" />
</svg>