<svg xmlns="http://www.w3.org/2000/svg" width="300" height="300" viewBox="0 0 300 300">
<path d="M 75.0 136.25 L 75.0 136.25 L 72.5 136.25 L 77.5 133.75 L 91.25 126.25 L 112.5 116.25 L 130.0 107.5 L 135.0 105.0 L 133.75 105.0 " stroke="black" fill="none" stroke-width="6.0" stroke-linecap="round" stroke-linejoin="round" />
<path d="M 108.75 110.0 L 106.25 111.25 L 101.25 113.75 L 100.0 127.5 L 103.75 161.25 L 108.75 210.0 L 110.0 243.75 L 110.0 252.5 L 107.5 253.75 L 103.75 253.75 L 97.5 248.75 L 90.0 242.5 L 80.0 231.25 L 68.75 221.25 L 60.0 217.5 L 57.5 217.5 L 60.0 217.5 L 76.25 211.25 L 101.25 195.0 L 127.5 176.25 " stroke="black" fill="none" stroke-width="6.0" stroke-linecap="round" stroke-linejoin="round" />
<path d="M 168.75 78.75 L 168.75 78.75 L 167.5 78.75 L 161.25 87.5 L 148.75 106.25 L 141.25 118.75 L 140.0 116.25 L 142.5 105.0 " stroke="black" fill="none" stroke-width="6.0" stroke-linecap="round" stroke-linejoin="round" />
<path d="M 161.25 87.5 L 162.5 86.25 L 167.5 86.25 L 176.25 86.25 L 190.0 92.5 L 198.75 103.75 L 196.25 122.5 L 182.5 142.5 L 163.75 155.0 L 148.75 157.5 L 137.5 155.0 L 135.0 152.5 " stroke="black" fill="none" stroke-width="6.0" stroke-linecap="round" stroke-linejoin="round" />
<path d="M 151.25 105.0 L 152.5 105.0 L 153.75 105.0 L 160.0 106.25 L 170.0 111.25 L 182.5 116.25 L 185.0 120.0 " stroke="black" fill="none" stroke-width="6.0" stroke-linecap="round" stroke-linejoin="round" />
<path d="M 148.75 131.25 L 146.25 131.25 L 145.0 131.25 L 150.0 131.25 L 167.5 131.25 L 182.5 131.25 " stroke="black" fill="none" stroke-width="6.0" stroke-linecap="round" stroke-linejoin="round" />
<path d="M 147.5 171.25 L 146.25 171.25 L 146.25 171.25 L 146.25 172.5 L 146.25 177.5 L 148.75 183.75 L 156.25 187.5 L 175.0 183.75 L 197.5 171.25 L 207.5 163.75 L 208.75 161.25 L 201.25 166.25 L 196.25 170.0 " stroke="black" fill="none" stroke-width="6.0" stroke-linecap="round" stroke-linejoin="round" />
<path d="M 141.25 236.25 L 141.25 236.25 L 141.25 236.25 L 148.75 230.0 L 173.75 212.5 L 198.75 198.75 L 208.75 191.25 L 208.75 188.75 L 201.25 191.25 " stroke="black" fill="none" stroke-width="6.0" stroke-linecap="round" stroke-linejoin="round" />
<path d="M 187.5 196.25 L 185.0 198.75 L 185.0 206.25 L 182.5 221.25 L 180.0 241.25 L 175.0 251.25 L 171.25 253.75 " stroke="black" fill="none" stroke-width="6.0" stroke-linecap="round" stroke-linejoin="round" />
<path d="M 143.75 230.0 L 143.75 227.5 L 143.75 227.5 L 146.25 230.0 L 151.25 238.75 L 160.0 247.5 L 175.0 251.25 L 193.75 246.25 L 211.25 236.25 L 221.25 228.75 L 226.25 223.75 L 226.25 221.25 L 226.25 221.25 L 225.0 220.0 L 223.75 218.75 L 223.75 217.5 L 222.5 216.25 L 221.25 215.0 L 220.0 213.75 L 218.75 212.5 L 217.5 211.25 L 216.25 211.25 L 215.0 210.0 L 215.0 210.0 L 213.75 210.0 L 213.75 210.0 L 215.0 211.25 L 220.0 217.5 L 230.0 228.75 L 242.5 245.0 L 243.75 248.75 " stroke="black" fill="none" stroke-width="6.0" stroke-linecap="round" stroke-linejoin="round" />
</svg>