<svg xmlns="http://www.w3.org/2000/svg" width="300" height="300" viewBox="0 0 300 300">
<path d="M 80.0 91.25 L 80.0 91.25 L 81.25 91.25 L 90.0 95.0 L 105.0 101.25 L 118.75 105.0 L 121.25 106.25 " stroke="black" fill="none" stroke-width="6.0" stroke-linecap="round" stroke-linejoin="round" />
<path d="M 57.5 152.5 L 56.25 155.0 L 51.25 160.0 L 55.0 162.5 L 70.0 160.0 L 90.0 151.25 L 107.5 137.5 L 118.75 127.5 L 118.75 126.25 L 110.0 135.0 L 98.75 153.75 L 88.75 176.25 L 85.0 192.5 L 86.25 195.0 L 95.0 188.75 L 107.5 177.5 L 122.5 166.25 L 132.5 157.5 L 135.0 156.25 L 131.25 162.5 L 121.25 182.5 L 110.0 203.75 L 98.75 225.0 L 88.75 238.75 L 82.5 242.5 " stroke="black" fill="none" stroke-width="6.0" stroke-linecap="round" stroke-linejoin="round" />
<path d="M 76.25 198.75 L 75.0 198.75 L 73.75 198.75 L 73.75 198.75 L 85.0 205.0 L 107.5 216.25 L 137.5 226.25 L 155.0 226.25 L 156.25 221.25 " stroke="black" fill="none" stroke-width="6.0" stroke-linecap="round" stroke-linejoin="round" />
<path d="M 177.5 93.75 L 177.5 95.0 L 173.75 97.5 L 170.0 131.25 L 172.5 145.0 L 182.5 145.0 L 197.5 136.25 L 210.0 120.0 L 220.0 107.5 L 223.75 102.5 L 218.75 103.75 " stroke="black" fill="none" stroke-width="6.0" stroke-linecap="round" stroke-linejoin="round" />
<path d="M 190.0 146.25 L 190.0 150.0 L 188.75 158.75 L 191.25 172.5 L 192.5 191.25 L 186.25 211.25 L 176.25 225.0 L 162.5 232.5 L 148.75 233.75 L 143.75 227.5 " stroke="black" fill="none" stroke-width="6.0" stroke-linecap="round" stroke-linejoin="round" />
<path d="M 152.5 177.5 L 153.75 177.5 L 153.75 177.5 L 161.25 185.0 L 180.0 202.5 L 205.0 222.5 L 222.5 240.0 L 240.0 252.5 L 252.5 265.0 L 255.0 270.0 " stroke="black" fill="none" stroke-width="6.0" stroke-linecap="round" stroke-linejoin="round" />
</svg>