<svg xmlns="http://www.w3.org/2000/svg" width="300" height="300" viewBox="0 0 300 300">
<path d="M 62.5 122.5 L 60.0 127.5 L 61.25 128.75 L 73.75 127.5 L 92.5 118.75 L 111.25 107.5 L 125.0 98.75 L 126.25 97.5 L 122.5 97.5 " stroke="black" fill="none" stroke-width="6.0" stroke-linecap="round" stroke-linejoin="round" />
<path d="M 105.0 117.5 L 102.5 123.75 L 97.5 142.5 L 95.0 167.5 L 95.0 188.75 L 95.0 196.25 L 95.0 196.25 L 95.0 191.25 L 95.0 185.0 L 97.5 178.75 L 102.5 171.25 L 110.0 162.5 L 120.0 153.75 L 126.25 147.5 L 127.5 143.75 L 126.25 143.75 " stroke="black" fill="none" stroke-width="6.0" stroke-linecap="round" stroke-linejoin="round" />
<path d="M 63.75 151.25 L 62.5 152.5 L 57.5 162.5 L 60.0 182.5 L 67.5 203.75 L 76.25 213.75 L 87.5 212.5 L 102.5 202.5 L 123.75 188.75 L 142.5 176.25 L 155.0 162.5 " stroke="black" fill="none" stroke-width="6.0" stroke-linecap="round" stroke-linejoin="round" />
<path d="M 178.75 76.25 L 177.5 76.25 L 172.5 77.5 L 168.75 85.0 L 165.0 106.25 L 163.75 121.25 L 167.5 123.75 L 178.75 116.25 L 193.75 103.75 L 207.5 90.0 L 216.25 81.25 L 217.5 78.75 " stroke="black" fill="none" stroke-width="6.0" stroke-linecap="round" stroke-linejoin="round" />
<path d="M 190.0 118.75 L 190.0 121.25 L 187.5 133.75 L 188.75 148.75 L 191.25 168.75 L 188.75 191.25 L 178.75 208.75 L 162.5 218.75 L 143.75 225.0 L 132.5 225.0 " stroke="black" fill="none" stroke-width="6.0" stroke-linecap="round" stroke-linejoin="round" />
<path d="M 152.5 157.5 L 152.5 157.5 L 152.5 158.75 L 161.25 168.75 L 180.0 187.5 L 200.0 206.25 L 213.75 220.0 L 228.75 231.25 L 245.0 237.5 L 253.75 238.75 " stroke="black" fill="none" stroke-width="6.0" stroke-linecap="round" stroke-linejoin="round" />
</svg>