<svg xmlns="http://www.w3.org/2000/svg" width="300" height="300" viewBox="0 0 300 300">
<path d="M 106.25 97.5 L 100.0 98.75 L 98.75 100.0 L 110.0 96.25 L 130.0 90.0 L 153.75 80.0 L 173.75 70.0 L 180.0 66.25 L 176.25 66.25 L 161.25 73.75 L 148.75 80.0 " stroke="black" fill="none" stroke-width="6.0" stroke-linecap="round" stroke-linejoin="round" />
<path d="M 102.5 102.5 L 102.5 102.5 L 101.25 103.75 L 101.25 106.25 L 103.75 120.0 L 110.0 152.5 L 108.75 197.5 L 98.75 230.0 L 88.75 247.5 L 80.0 252.5 L 75.0 248.75 L 75.0 241.25 " stroke="black" fill="none" stroke-width="6.0" stroke-linecap="round" stroke-linejoin="round" />
<path d="M 117.5 150.0 L 115.0 152.5 L 112.5 153.75 L 115.0 155.0 L 126.25 156.25 L 147.5 153.75 L 173.75 145.0 L 197.5 135.0 L 207.5 130.0 L 207.5 130.0 L 200.0 131.25 L 190.0 136.25 L 180.0 140.0 L 163.75 145.0 L 162.5 146.25 L 162.5 148.75 L 162.5 150.0 L 163.75 157.5 L 165.0 178.75 L 165.0 217.5 L 163.75 257.5 L 161.25 287.5 L 160.0 301.25 L 158.75 306.25 L 156.25 307.5 L 151.25 306.25 " stroke="black" fill="none" stroke-width="6.0" stroke-linecap="round" stroke-linejoin="round" />
</svg>