<svg xmlns="http://www.w3.org/2000/svg" width="300" height="300" viewBox="0 0 300 300">
<path d="M 86.25 81.25 L 85.0 80.0 L 83.75 78.75 L 85.0 77.5 L 93.75 81.25 L 105.0 86.25 L 115.0 90.0 L 117.5 92.5 " stroke="black" fill="none" stroke-width="6.0" stroke-linecap="round" stroke-linejoin="round" />
<path d="M 58.75 138.75 L 56.25 141.25 L 52.5 142.5 L 55.0 142.5 L 70.0 133.75 L 88.75 122.5 L 102.5 111.25 L 107.5 108.75 L 102.5 127.5 L 90.0 162.5 L 73.75 206.25 L 60.0 238.75 L 56.25 242.5 L 57.5 235.0 " stroke="black" fill="none" stroke-width="6.0" stroke-linecap="round" stroke-linejoin="round" />
<path d="M 91.25 156.25 L 91.25 156.25 L 92.5 153.75 L 95.0 153.75 L 101.25 167.5 L 108.75 192.5 L 110.0 213.75 L 103.75 226.25 L 95.0 228.75 L 90.0 221.25 L 88.75 212.5 " stroke="black" fill="none" stroke-width="6.0" stroke-linecap="round" stroke-linejoin="round" />
<path d="M 156.25 78.75 L 156.25 73.75 L 156.25 72.5 L 158.75 73.75 L 162.5 87.5 L 165.0 100.0 L 171.25 107.5 L 182.5 105.0 L 197.5 92.5 L 208.75 80.0 L 211.25 75.0 L 206.25 81.25 L 202.5 83.75 " stroke="black" fill="none" stroke-width="6.0" stroke-linecap="round" stroke-linejoin="round" />
<path d="M 130.0 167.5 L 128.75 165.0 L 128.75 161.25 L 135.0 158.75 L 142.5 160.0 L 150.0 172.5 L 153.75 185.0 L 160.0 190.0 L 175.0 181.25 L 195.0 160.0 L 210.0 143.75 L 217.5 135.0 L 217.5 131.25 L 208.75 132.5 L 206.25 133.75 " stroke="black" fill="none" stroke-width="6.0" stroke-linecap="round" stroke-linejoin="round" />
<path d="M 183.75 132.5 L 182.5 132.5 L 181.25 132.5 L 181.25 140.0 L 186.25 171.25 L 188.75 203.75 L 190.0 221.25 L 188.75 225.0 L 185.0 225.0 " stroke="black" fill="none" stroke-width="6.0" stroke-linecap="round" stroke-linejoin="round" />
<path d="M 163.75 207.5 L 158.75 210.0 L 158.75 210.0 L 166.25 208.75 L 186.25 201.25 L 205.0 190.0 L 220.0 178.75 L 220.0 175.0 L 217.5 176.25 " stroke="black" fill="none" stroke-width="6.0" stroke-linecap="round" stroke-linejoin="round" />
<path d="M 170.0 236.25 L 170.0 237.5 L 167.5 242.5 L 172.5 241.25 L 193.75 232.5 L 218.75 218.75 L 238.75 206.25 L 243.75 202.5 " stroke="black" fill="none" stroke-width="6.0" stroke-linecap="round" stroke-linejoin="round" />
</svg>