<svg xmlns="http://www.w3.org/2000/svg" width="300" height="300" viewBox="0 0 300 300">
<path d="M 60.0 97.5 L 60.0 93.75 L 61.25 92.5 L 63.75 100.0 L 66.25 132.5 L 65.0 167.5 L 62.5 195.0 L 61.25 205.0 L 65.0 207.5 L 76.25 211.25 L 90.0 216.25 L 105.0 221.25 L 118.75 222.5 L 138.75 221.25 L 145.0 216.25 L 142.5 210.0 L 138.75 207.5 " stroke="black" fill="none" stroke-width="6.0" stroke-linecap="round" stroke-linejoin="round" />
<path d="M 87.5 103.75 L 86.25 102.5 L 85.0 98.75 L 85.0 98.75 L 90.0 106.25 L 95.0 125.0 L 98.75 140.0 " stroke="black" fill="none" stroke-width="6.0" stroke-linecap="round" stroke-linejoin="round" />
<path d="M 127.5 92.5 L 127.5 92.5 L 127.5 92.5 L 122.5 101.25 L 113.75 117.5 L 96.25 141.25 L 82.5 151.25 L 73.75 155.0 L 73.75 155.0 L 86.25 150.0 L 105.0 138.75 L 127.5 125.0 L 145.0 112.5 L 148.75 107.5 L 141.25 107.5 L 130.0 110.0 L 120.0 110.0 L 110.0 107.5 L 106.25 102.5 L 105.0 100.0 L 107.5 106.25 L 115.0 143.75 L 120.0 183.75 L 121.25 206.25 L 120.0 208.75 L 113.75 206.25 L 110.0 195.0 " stroke="black" fill="none" stroke-width="6.0" stroke-linecap="round" stroke-linejoin="round" />
<path d="M 113.75 137.5 L 107.5 146.25 L 98.75 165.0 L 92.5 190.0 L 91.25 200.0 L 101.25 197.5 L 120.0 185.0 L 142.5 163.75 L 160.0 141.25 " stroke="black" fill="none" stroke-width="6.0" stroke-linecap="round" stroke-linejoin="round" />
<path d="M 183.75 75.0 L 183.75 75.0 L 183.75 75.0 L 185.0 73.75 L 191.25 73.75 L 200.0 77.5 L 206.25 82.5 L 206.25 90.0 " stroke="black" fill="none" stroke-width="6.0" stroke-linecap="round" stroke-linejoin="round" />
<path d="M 167.5 105.0 L 165.0 106.25 L 162.5 110.0 L 161.25 133.75 L 162.5 157.5 L 165.0 167.5 L 165.0 166.25 L 165.0 153.75 L 167.5 143.75 L 170.0 135.0 L 172.5 127.5 L 181.25 120.0 L 196.25 108.75 L 217.5 95.0 L 233.75 85.0 L 238.75 81.25 L 233.75 83.75 " stroke="black" fill="none" stroke-width="6.0" stroke-linecap="round" stroke-linejoin="round" />
<path d="M 206.25 111.25 L 206.25 118.75 L 206.25 142.5 L 206.25 181.25 L 207.5 221.25 L 206.25 248.75 L 202.5 258.75 L 197.5 261.25 L 185.0 262.5 " stroke="black" fill="none" stroke-width="6.0" stroke-linecap="round" stroke-linejoin="round" />
</svg>