<svg xmlns="http://www.w3.org/2000/svg" width="300" height="300" viewBox="0 0 300 300">
<path d="M 70.0 128.75 L 63.75 133.75 L 66.25 132.5 L 82.5 125.0 L 101.25 113.75 L 121.25 101.25 L 131.25 92.5 L 131.25 91.25 " stroke="black" fill="none" stroke-width="6.0" stroke-linecap="round" stroke-linejoin="round" />
<path d="M 95.0 86.25 L 95.0 87.5 L 93.75 93.75 L 93.75 115.0 L 93.75 150.0 L 88.75 177.5 L 86.25 183.75 " stroke="black" fill="none" stroke-width="6.0" stroke-linecap="round" stroke-linejoin="round" />
<path d="M 67.5 180.0 L 67.5 180.0 L 68.75 182.5 L 76.25 190.0 L 88.75 205.0 L 96.25 217.5 L 97.5 222.5 L 96.25 221.25 L 92.5 215.0 L 90.0 206.25 L 85.0 200.0 L 81.25 195.0 L 78.75 190.0 L 80.0 186.25 L 90.0 182.5 L 107.5 175.0 L 128.75 167.5 L 136.25 166.25 L 132.5 173.75 L 120.0 190.0 L 108.75 202.5 L 98.75 212.5 L 96.25 213.75 L 102.5 208.75 L 118.75 195.0 L 130.0 182.5 " stroke="black" fill="none" stroke-width="6.0" stroke-linecap="round" stroke-linejoin="round" />
<path d="M 153.75 87.5 L 153.75 87.5 L 152.5 92.5 L 152.5 102.5 L 153.75 122.5 L 156.25 138.75 L 161.25 141.25 L 172.5 133.75 L 188.75 115.0 L 201.25 98.75 L 211.25 86.25 L 215.0 78.75 L 210.0 78.75 L 208.75 80.0 " stroke="black" fill="none" stroke-width="6.0" stroke-linecap="round" stroke-linejoin="round" />
<path d="M 193.75 130.0 L 192.5 133.75 L 191.25 148.75 L 191.25 168.75 L 183.75 196.25 L 172.5 217.5 L 162.5 226.25 L 151.25 228.75 L 143.75 223.75 L 142.5 221.25 " stroke="black" fill="none" stroke-width="6.0" stroke-linecap="round" stroke-linejoin="round" />
<path d="M 153.75 161.25 L 155.0 162.5 L 158.75 167.5 L 175.0 183.75 L 198.75 207.5 L 217.5 223.75 L 233.75 235.0 L 246.25 241.25 L 253.75 246.25 L 257.5 247.5 " stroke="black" fill="none" stroke-width="6.0" stroke-linecap="round" stroke-linejoin="round" />
</svg>