<svg xmlns="http://www.w3.org/2000/svg" width="300" height="300" viewBox="0 0 300 300">
<path d="M 88.75 106.25 L 86.25 106.25 L 82.5 106.25 L 81.25 106.25 L 85.0 105.0 L 98.75 105.0 L 117.5 106.25 L 132.5 113.75 L 136.25 128.75 L 123.75 147.5 L 105.0 162.5 L 90.0 167.5 L 87.5 167.5 " stroke="black" fill="none" stroke-width="6.0" stroke-linecap="round" stroke-linejoin="round" />
<path d="M 86.25 138.75 L 86.25 138.75 L 87.5 137.5 L 93.75 136.25 L 108.75 132.5 L 121.25 130.0 L 122.5 130.0 " stroke="black" fill="none" stroke-width="6.0" stroke-linecap="round" stroke-linejoin="round" />
<path d="M 85.0 166.25 L 82.5 167.5 L 78.75 170.0 L 82.5 168.75 L 95.0 162.5 L 108.75 152.5 L 120.0 143.75 L 121.25 138.75 L 118.75 137.5 " stroke="black" fill="none" stroke-width="6.0" stroke-linecap="round" stroke-linejoin="round" />
<path d="M 81.25 113.75 L 77.5 113.75 L 76.25 122.5 L 77.5 152.5 L 80.0 196.25 L 81.25 226.25 L 85.0 235.0 L 91.25 233.75 L 102.5 226.25 L 116.25 211.25 L 126.25 200.0 L 131.25 190.0 L 131.25 183.75 L 126.25 181.25 L 122.5 181.25 L 121.25 181.25 L 121.25 181.25 L 123.75 183.75 L 131.25 191.25 L 138.75 201.25 L 146.25 212.5 L 148.75 215.0 " stroke="black" fill="none" stroke-width="6.0" stroke-linecap="round" stroke-linejoin="round" />
<path d="M 162.5 101.25 L 162.5 101.25 L 158.75 100.0 L 156.25 100.0 L 157.5 100.0 L 167.5 100.0 L 183.75 100.0 L 198.75 98.75 L 207.5 98.75 L 206.25 101.25 L 193.75 120.0 L 175.0 147.5 L 161.25 170.0 L 161.25 182.5 L 172.5 183.75 L 188.75 178.75 L 207.5 163.75 L 221.25 150.0 L 226.25 141.25 L 223.75 138.75 L 213.75 138.75 L 211.25 138.75 " stroke="black" fill="none" stroke-width="6.0" stroke-linecap="round" stroke-linejoin="round" />
<path d="M 196.25 130.0 L 196.25 130.0 L 195.0 135.0 L 192.5 155.0 L 185.0 202.5 L 175.0 241.25 L 167.5 255.0 L 160.0 255.0 " stroke="black" fill="none" stroke-width="6.0" stroke-linecap="round" stroke-linejoin="round" />
<path d="M 201.25 170.0 L 201.25 172.5 L 200.0 183.75 L 203.75 203.75 L 212.5 227.5 L 228.75 243.75 L 247.5 246.25 L 258.75 245.0 L 263.75 241.25 L 265.0 238.75 L 265.0 238.75 L 265.0 235.0 L 266.25 225.0 L 270.0 208.75 L 276.25 175.0 " stroke="black" fill="none" stroke-width="6.0" stroke-linecap="round" stroke-linejoin="round" />
</svg>