<svg xmlns="http://www.w3.org/2000/svg" width="300" height="300" viewBox="0 0 300 300">
<path d="M 96.25 83.75 L 96.25 83.75 L 95.0 83.75 L 96.25 82.5 L 105.0 82.5 L 117.5 82.5 L 130.0 82.5 L 130.0 82.5 " stroke="black" fill="none" stroke-width="6.0" stroke-linecap="round" stroke-linejoin="round" />
<path d="M 75.0 120.0 L 73.75 121.25 L 76.25 121.25 L 90.0 120.0 L 113.75 110.0 L 133.75 101.25 L 140.0 95.0 L 132.5 93.75 L 122.5 95.0 L 111.25 98.75 L 101.25 107.5 L 95.0 120.0 L 91.25 141.25 L 91.25 158.75 L 91.25 161.25 " stroke="black" fill="none" stroke-width="6.0" stroke-linecap="round" stroke-linejoin="round" />
<path d="M 117.5 110.0 L 117.5 108.75 L 117.5 108.75 L 117.5 108.75 L 118.75 117.5 L 116.25 132.5 L 107.5 147.5 L 96.25 155.0 L 87.5 158.75 L 83.75 160.0 L 85.0 158.75 L 95.0 155.0 L 112.5 146.25 L 132.5 136.25 L 146.25 128.75 L 142.5 130.0 " stroke="black" fill="none" stroke-width="6.0" stroke-linecap="round" stroke-linejoin="round" />
<path d="M 85.0 196.25 L 85.0 197.5 L 83.75 200.0 L 91.25 197.5 L 107.5 185.0 L 130.0 167.5 L 142.5 153.75 L 140.0 151.25 L 128.75 151.25 L 116.25 155.0 L 108.75 157.5 L 107.5 162.5 L 116.25 175.0 L 127.5 193.75 L 135.0 210.0 L 133.75 222.5 L 125.0 228.75 L 111.25 232.5 L 100.0 232.5 L 95.0 231.25 L 101.25 217.5 L 122.5 195.0 L 148.75 162.5 L 177.5 125.0 L 192.5 95.0 L 195.0 81.25 L 188.75 76.25 L 185.0 76.25 L 185.0 78.75 L 188.75 83.75 L 197.5 91.25 L 208.75 95.0 L 218.75 97.5 L 221.25 100.0 L 220.0 101.25 " stroke="black" fill="none" stroke-width="6.0" stroke-linecap="round" stroke-linejoin="round" />
<path d="M 168.75 130.0 L 168.75 132.5 L 167.5 142.5 L 167.5 158.75 L 170.0 176.25 L 172.5 185.0 L 172.5 185.0 L 167.5 180.0 L 163.75 173.75 L 163.75 165.0 L 173.75 155.0 L 191.25 142.5 L 212.5 127.5 L 235.0 112.5 L 246.25 103.75 L 247.5 102.5 " stroke="black" fill="none" stroke-width="6.0" stroke-linecap="round" stroke-linejoin="round" />
<path d="M 207.5 135.0 L 207.5 140.0 L 206.25 153.75 L 206.25 175.0 L 206.25 198.75 L 207.5 216.25 L 207.5 225.0 L 203.75 232.5 L 198.75 241.25 L 190.0 251.25 L 176.25 262.5 L 166.25 267.5 " stroke="black" fill="none" stroke-width="6.0" stroke-linecap="round" stroke-linejoin="round" />
</svg>