<svg xmlns="http://www.w3.org/2000/svg" width="300" height="300" viewBox="0 0 300 300">
<path d="M 61.25 132.5 L 60.0 133.75 L 58.75 135.0 L 61.25 135.0 L 76.25 131.25 L 92.5 121.25 L 107.5 111.25 L 112.5 103.75 L 111.25 102.5 L 106.25 102.5 L 105.0 102.5 " stroke="black" fill="none" stroke-width="6.0" stroke-linecap="round" stroke-linejoin="round" />
<path d="M 90.0 100.0 L 87.5 103.75 L 86.25 116.25 L 88.75 152.5 L 91.25 200.0 L 91.25 220.0 L 92.5 226.25 L 92.5 230.0 L 92.5 230.0 L 92.5 230.0 L 91.25 228.75 L 88.75 226.25 L 85.0 222.5 L 80.0 218.75 L 75.0 215.0 L 68.75 213.75 L 63.75 212.5 L 61.25 211.25 L 61.25 211.25 L 62.5 211.25 L 71.25 207.5 L 86.25 196.25 L 105.0 175.0 L 112.5 162.5 " stroke="black" fill="none" stroke-width="6.0" stroke-linecap="round" stroke-linejoin="round" />
<path d="M 141.25 76.25 L 140.0 76.25 L 137.5 76.25 L 135.0 76.25 L 135.0 82.5 L 137.5 93.75 L 141.25 100.0 L 148.75 101.25 L 157.5 95.0 L 167.5 83.75 L 177.5 72.5 L 183.75 63.75 L 185.0 58.75 L 185.0 58.75 L 183.75 58.75 L 182.5 58.75 L 182.5 58.75 L 182.5 58.75 L 183.75 58.75 L 188.75 60.0 L 196.25 63.75 L 202.5 68.75 L 207.5 73.75 L 207.5 80.0 L 205.0 81.25 " stroke="black" fill="none" stroke-width="6.0" stroke-linecap="round" stroke-linejoin="round" />
<path d="M 162.5 55.0 L 162.5 55.0 L 160.0 53.75 L 158.75 58.75 L 160.0 75.0 L 161.25 93.75 " stroke="black" fill="none" stroke-width="6.0" stroke-linecap="round" stroke-linejoin="round" />
<path d="M 150.0 116.25 L 148.75 116.25 L 146.25 118.75 L 142.5 125.0 L 137.5 138.75 L 131.25 155.0 L 126.25 162.5 L 126.25 160.0 L 131.25 151.25 L 138.75 141.25 L 145.0 131.25 L 150.0 121.25 L 152.5 117.5 L 153.75 121.25 L 153.75 137.5 L 153.75 156.25 L 153.75 176.25 L 151.25 188.75 L 151.25 190.0 " stroke="black" fill="none" stroke-width="6.0" stroke-linecap="round" stroke-linejoin="round" />
<path d="M 165.0 103.75 L 165.0 103.75 L 162.5 103.75 L 162.5 103.75 L 167.5 103.75 L 178.75 100.0 L 190.0 97.5 L 197.5 95.0 L 197.5 93.75 L 196.25 93.75 " stroke="black" fill="none" stroke-width="6.0" stroke-linecap="round" stroke-linejoin="round" />
<path d="M 160.0 127.5 L 156.25 130.0 L 156.25 130.0 L 165.0 126.25 L 178.75 118.75 L 188.75 110.0 L 195.0 103.75 L 193.75 103.75 L 187.5 107.5 L 183.75 111.25 " stroke="black" fill="none" stroke-width="6.0" stroke-linecap="round" stroke-linejoin="round" />
<path d="M 163.75 141.25 L 163.75 141.25 L 162.5 143.75 L 166.25 143.75 L 178.75 137.5 L 193.75 127.5 L 202.5 116.25 L 203.75 110.0 L 202.5 110.0 " stroke="black" fill="none" stroke-width="6.0" stroke-linecap="round" stroke-linejoin="round" />
<path d="M 186.25 115.0 L 186.25 115.0 L 185.0 116.25 L 185.0 120.0 L 185.0 131.25 L 185.0 145.0 L 183.75 155.0 L 180.0 158.75 L 177.5 158.75 " stroke="black" fill="none" stroke-width="6.0" stroke-linecap="round" stroke-linejoin="round" />
<path d="M 167.5 156.25 L 166.25 157.5 L 163.75 157.5 L 166.25 157.5 L 176.25 151.25 L 188.75 143.75 L 200.0 136.25 L 207.5 131.25 L 207.5 132.5 L 203.75 135.0 " stroke="black" fill="none" stroke-width="6.0" stroke-linecap="round" stroke-linejoin="round" />
<path d="M 166.25 173.75 L 165.0 175.0 L 160.0 177.5 L 158.75 178.75 L 163.75 177.5 L 178.75 168.75 L 196.25 158.75 L 211.25 147.5 L 217.5 141.25 L 216.25 141.25 " stroke="black" fill="none" stroke-width="6.0" stroke-linecap="round" stroke-linejoin="round" />
<path d="M 142.5 192.5 L 142.5 192.5 L 140.0 192.5 L 137.5 192.5 L 137.5 201.25 L 141.25 222.5 L 146.25 241.25 L 148.75 247.5 L 150.0 246.25 L 150.0 242.5 " stroke="black" fill="none" stroke-width="6.0" stroke-linecap="round" stroke-linejoin="round" />
<path d="M 150.0 206.25 L 148.75 207.5 L 147.5 208.75 L 148.75 208.75 L 162.5 203.75 L 183.75 195.0 L 207.5 181.25 L 222.5 172.5 L 230.0 168.75 L 231.25 168.75 L 231.25 172.5 L 231.25 181.25 L 231.25 196.25 L 231.25 216.25 L 233.75 240.0 L 235.0 257.5 L 236.25 263.75 L 237.5 266.25 L 237.5 266.25 L 237.5 266.25 L 237.5 266.25 L 237.5 265.0 L 237.5 262.5 L 233.75 257.5 L 230.0 255.0 " stroke="black" fill="none" stroke-width="6.0" stroke-linecap="round" stroke-linejoin="round" />
<path d="M 172.5 200.0 L 172.5 200.0 L 171.25 201.25 L 168.75 207.5 L 162.5 221.25 L 156.25 237.5 L 150.0 245.0 L 148.75 242.5 L 148.75 240.0 " stroke="black" fill="none" stroke-width="6.0" stroke-linecap="round" stroke-linejoin="round" />
<path d="M 190.0 192.5 L 191.25 191.25 L 193.75 192.5 L 198.75 196.25 L 206.25 202.5 L 213.75 205.0 L 220.0 205.0 L 221.25 202.5 L 220.0 201.25 " stroke="black" fill="none" stroke-width="6.0" stroke-linecap="round" stroke-linejoin="round" />
<path d="M 173.75 230.0 L 173.75 230.0 L 173.75 228.75 L 172.5 227.5 L 172.5 227.5 L 172.5 227.5 L 172.5 233.75 L 173.75 242.5 L 176.25 250.0 L 178.75 255.0 L 180.0 256.25 L 180.0 257.5 L 180.0 256.25 L 180.0 253.75 L 177.5 251.25 L 176.25 247.5 L 175.0 242.5 L 175.0 238.75 L 180.0 232.5 L 188.75 225.0 L 200.0 220.0 L 207.5 218.75 L 208.75 221.25 L 206.25 230.0 L 200.0 238.75 L 192.5 247.5 L 187.5 251.25 L 186.25 251.25 L 191.25 248.75 L 200.0 241.25 L 212.5 232.5 L 218.75 223.75 " stroke="black" fill="none" stroke-width="6.0" stroke-linecap="round" stroke-linejoin="round" />
</svg>