<svg xmlns="http://www.w3.org/2000/svg" width="300" height="300" viewBox="0 0 300 300">
<path d="M 85.0 120.0 L 83.75 120.0 L 82.5 120.0 L 85.0 121.25 L 95.0 125.0 L 108.75 127.5 L 118.75 131.25 L 118.75 138.75 L 105.0 151.25 L 86.25 167.5 L 70.0 181.25 L 66.25 185.0 L 71.25 183.75 L 85.0 177.5 L 98.75 168.75 L 108.75 163.75 L 111.25 163.75 L 105.0 183.75 L 95.0 211.25 L 90.0 231.25 L 91.25 233.75 L 102.5 220.0 L 122.5 192.5 L 142.5 162.5 L 158.75 131.25 L 171.25 101.25 L 178.75 87.5 L 180.0 86.25 L 180.0 91.25 L 176.25 107.5 L 175.0 123.75 L 180.0 131.25 L 193.75 127.5 L 210.0 113.75 L 222.5 100.0 L 223.75 96.25 " stroke="black" fill="none" stroke-width="6.0" stroke-linecap="round" stroke-linejoin="round" />
<path d="M 185.0 145.0 L 183.75 152.5 L 182.5 167.5 L 183.75 191.25 L 177.5 215.0 L 166.25 232.5 L 153.75 240.0 L 142.5 240.0 L 137.5 236.25 " stroke="black" fill="none" stroke-width="6.0" stroke-linecap="round" stroke-linejoin="round" />
<path d="M 152.5 173.75 L 152.5 173.75 L 152.5 173.75 L 155.0 178.75 L 170.0 193.75 L 195.0 215.0 L 218.75 230.0 L 242.5 237.5 L 257.5 240.0 L 262.5 241.25 " stroke="black" fill="none" stroke-width="6.0" stroke-linecap="round" stroke-linejoin="round" />
</svg>