<svg xmlns="http://www.w3.org/2000/svg" width="300" height="300" viewBox="0 0 300 300">
<path d="M 73.75 100.0 L 72.5 101.25 L 71.25 103.75 L 73.75 103.75 L 87.5 101.25 L 106.25 95.0 L 121.25 87.5 L 127.5 81.25 L 123.75 81.25 L 117.5 82.5 " stroke="black" fill="none" stroke-width="6.0" stroke-linecap="round" stroke-linejoin="round" />
<path d="M 73.75 135.0 L 73.75 136.25 L 72.5 141.25 L 72.5 148.75 L 76.25 165.0 L 80.0 176.25 L 81.25 183.75 L 80.0 182.5 " stroke="black" fill="none" stroke-width="6.0" stroke-linecap="round" stroke-linejoin="round" />
<path d="M 73.75 148.75 L 73.75 148.75 L 71.25 145.0 L 72.5 142.5 L 83.75 137.5 L 100.0 132.5 L 121.25 128.75 L 135.0 128.75 L 137.5 135.0 L 128.75 147.5 L 116.25 161.25 L 103.75 172.5 L 93.75 180.0 L 92.5 181.25 " stroke="black" fill="none" stroke-width="6.0" stroke-linecap="round" stroke-linejoin="round" />
<path d="M 81.25 166.25 L 80.0 166.25 L 81.25 163.75 L 92.5 156.25 L 110.0 147.5 L 126.25 140.0 L 130.0 137.5 " stroke="black" fill="none" stroke-width="6.0" stroke-linecap="round" stroke-linejoin="round" />
<path d="M 80.0 180.0 L 80.0 181.25 L 78.75 182.5 L 82.5 180.0 L 95.0 171.25 L 112.5 160.0 L 122.5 152.5 L 122.5 152.5 " stroke="black" fill="none" stroke-width="6.0" stroke-linecap="round" stroke-linejoin="round" />
<path d="M 78.75 213.75 L 78.75 217.5 L 81.25 217.5 L 96.25 208.75 L 120.0 196.25 L 142.5 181.25 L 150.0 171.25 L 145.0 168.75 L 143.75 168.75 " stroke="black" fill="none" stroke-width="6.0" stroke-linecap="round" stroke-linejoin="round" />
<path d="M 95.0 87.5 L 95.0 87.5 L 95.0 87.5 L 95.0 95.0 L 101.25 136.25 L 108.75 205.0 L 107.5 246.25 L 103.75 260.0 L 98.75 265.0 L 93.75 262.5 " stroke="black" fill="none" stroke-width="6.0" stroke-linecap="round" stroke-linejoin="round" />
<path d="M 168.75 98.75 L 165.0 101.25 L 162.5 102.5 L 171.25 100.0 L 186.25 95.0 L 202.5 88.75 L 213.75 83.75 L 216.25 80.0 L 206.25 82.5 L 200.0 86.25 " stroke="black" fill="none" stroke-width="6.0" stroke-linecap="round" stroke-linejoin="round" />
<path d="M 166.25 113.75 L 166.25 118.75 L 166.25 130.0 L 170.0 150.0 L 170.0 173.75 L 168.75 188.75 L 166.25 190.0 L 161.25 186.25 L 160.0 183.75 " stroke="black" fill="none" stroke-width="6.0" stroke-linecap="round" stroke-linejoin="round" />
<path d="M 168.75 147.5 L 168.75 146.25 L 170.0 145.0 L 175.0 143.75 L 190.0 138.75 L 211.25 131.25 L 230.0 122.5 L 237.5 115.0 L 232.5 113.75 L 221.25 118.75 L 210.0 125.0 L 202.5 132.5 L 200.0 138.75 L 201.25 152.5 L 208.75 181.25 L 213.75 217.5 L 215.0 241.25 L 210.0 248.75 L 205.0 250.0 L 198.75 250.0 L 197.5 248.75 " stroke="black" fill="none" stroke-width="6.0" stroke-linecap="round" stroke-linejoin="round" />
</svg>