<svg xmlns="http://www.w3.org/2000/svg" width="300" height="300" viewBox="0 0 300 300">
<path d="M 140.0 88.75 L 138.75 88.75 L 137.5 87.5 L 140.0 87.5 L 147.5 90.0 L 156.25 95.0 L 163.75 100.0 L 168.75 103.75 L 170.0 106.25 L 163.75 107.5 L 158.75 108.75 " stroke="black" fill="none" stroke-width="6.0" stroke-linecap="round" stroke-linejoin="round" />
<path d="M 91.25 128.75 L 90.0 130.0 L 88.75 131.25 L 95.0 132.5 L 116.25 131.25 L 150.0 120.0 L 183.75 106.25 L 206.25 96.25 L 213.75 91.25 L 216.25 90.0 L 213.75 91.25 L 203.75 95.0 L 196.25 98.75 " stroke="black" fill="none" stroke-width="6.0" stroke-linecap="round" stroke-linejoin="round" />
<path d="M 166.25 121.25 L 166.25 125.0 L 165.0 133.75 L 161.25 152.5 L 152.5 178.75 L 140.0 197.5 L 126.25 208.75 L 110.0 213.75 L 96.25 215.0 L 91.25 212.5 " stroke="black" fill="none" stroke-width="6.0" stroke-linecap="round" stroke-linejoin="round" />
<path d="M 113.75 152.5 L 116.25 151.25 L 117.5 151.25 L 123.75 155.0 L 133.75 173.75 L 150.0 200.0 L 170.0 220.0 L 191.25 228.75 L 211.25 232.5 L 228.75 233.75 L 233.75 236.25 " stroke="black" fill="none" stroke-width="6.0" stroke-linecap="round" stroke-linejoin="round" />
</svg>