<svg xmlns="http://www.w3.org/2000/svg" width="300" height="300" viewBox="0 0 300 300">
<path d="M 88.75 97.5 L 86.25 97.5 L 83.75 97.5 L 82.5 98.75 L 85.0 97.5 L 95.0 92.5 L 106.25 86.25 L 117.5 80.0 L 121.25 77.5 L 120.0 76.25 L 113.75 80.0 L 107.5 87.5 L 103.75 96.25 L 102.5 108.75 L 101.25 122.5 L 100.0 131.25 L 96.25 135.0 L 90.0 137.5 L 82.5 138.75 L 72.5 141.25 L 62.5 145.0 L 53.75 148.75 L 50.0 151.25 L 50.0 151.25 L 60.0 151.25 L 80.0 148.75 L 98.75 141.25 L 123.75 130.0 L 143.75 118.75 L 150.0 111.25 L 150.0 108.75 L 142.5 108.75 L 136.25 110.0 " stroke="black" fill="none" stroke-width="6.0" stroke-linecap="round" stroke-linejoin="round" />
<path d="M 117.5 137.5 L 117.5 151.25 L 117.5 182.5 L 118.75 216.25 L 118.75 241.25 L 116.25 255.0 L 110.0 257.5 L 105.0 257.5 " stroke="black" fill="none" stroke-width="6.0" stroke-linecap="round" stroke-linejoin="round" />
<path d="M 77.5 148.75 L 77.5 148.75 L 77.5 155.0 L 78.75 187.5 L 82.5 216.25 L 83.75 230.0 L 83.75 228.75 " stroke="black" fill="none" stroke-width="6.0" stroke-linecap="round" stroke-linejoin="round" />
<path d="M 82.5 171.25 L 81.25 170.0 L 80.0 170.0 L 78.75 170.0 L 85.0 168.75 L 96.25 162.5 L 105.0 156.25 L 106.25 153.75 " stroke="black" fill="none" stroke-width="6.0" stroke-linecap="round" stroke-linejoin="round" />
<path d="M 78.75 197.5 L 77.5 198.75 L 75.0 201.25 L 81.25 200.0 L 96.25 190.0 L 112.5 175.0 L 122.5 163.75 L 122.5 162.5 " stroke="black" fill="none" stroke-width="6.0" stroke-linecap="round" stroke-linejoin="round" />
<path d="M 81.25 231.25 L 80.0 232.5 L 77.5 235.0 L 85.0 228.75 L 103.75 207.5 L 133.75 176.25 L 140.0 167.5 " stroke="black" fill="none" stroke-width="6.0" stroke-linecap="round" stroke-linejoin="round" />
<path d="M 177.5 80.0 L 177.5 78.75 L 175.0 78.75 L 168.75 95.0 L 161.25 125.0 L 158.75 140.0 L 160.0 140.0 L 170.0 132.5 L 185.0 120.0 L 198.75 105.0 L 207.5 95.0 L 211.25 90.0 L 206.25 92.5 L 205.0 93.75 " stroke="black" fill="none" stroke-width="6.0" stroke-linecap="round" stroke-linejoin="round" />
<path d="M 186.25 128.75 L 187.5 133.75 L 190.0 143.75 L 191.25 165.0 L 187.5 193.75 L 177.5 215.0 L 162.5 230.0 L 145.0 241.25 L 131.25 245.0 L 125.0 241.25 " stroke="black" fill="none" stroke-width="6.0" stroke-linecap="round" stroke-linejoin="round" />
<path d="M 152.5 172.5 L 153.75 172.5 L 156.25 173.75 L 171.25 186.25 L 197.5 206.25 L 222.5 226.25 L 242.5 240.0 L 256.25 247.5 L 262.5 252.5 L 263.75 256.25 " stroke="black" fill="none" stroke-width="6.0" stroke-linecap="round" stroke-linejoin="round" />
</svg>