<svg xmlns="http://www.w3.org/2000/svg" width="300" height="300" viewBox="0 0 300 300">
<path d="M 87.5 152.5 L 87.5 152.5 L 86.25 152.5 L 86.25 152.5 L 86.25 166.25 L 86.25 191.25 L 85.0 208.75 L 85.0 211.25 L 91.25 206.25 L 106.25 193.75 L 123.75 177.5 L 133.75 162.5 L 136.25 152.5 L 135.0 146.25 L 130.0 140.0 L 127.5 136.25 L 126.25 135.0 L 127.5 138.75 L 131.25 161.25 L 131.25 193.75 L 128.75 223.75 L 121.25 240.0 L 113.75 237.5 " stroke="black" fill="none" stroke-width="6.0" stroke-linecap="round" stroke-linejoin="round" />
<path d="M 173.75 95.0 L 173.75 95.0 L 173.75 96.25 L 175.0 117.5 L 176.25 143.75 L 182.5 152.5 L 193.75 147.5 L 208.75 132.5 L 225.0 113.75 L 237.5 100.0 L 242.5 92.5 L 241.25 92.5 " stroke="black" fill="none" stroke-width="6.0" stroke-linecap="round" stroke-linejoin="round" />
<path d="M 205.0 150.0 L 203.75 158.75 L 202.5 181.25 L 201.25 201.25 L 195.0 217.5 L 185.0 232.5 L 167.5 242.5 L 148.75 247.5 L 141.25 242.5 L 141.25 238.75 " stroke="black" fill="none" stroke-width="6.0" stroke-linecap="round" stroke-linejoin="round" />
<path d="M 166.25 178.75 L 168.75 176.25 L 172.5 175.0 L 183.75 185.0 L 201.25 206.25 L 226.25 236.25 L 275.0 275.0 L 293.75 287.5 L 297.5 290.0 " stroke="black" fill="none" stroke-width="6.0" stroke-linecap="round" stroke-linejoin="round" />
</svg>