<svg xmlns="http://www.w3.org/2000/svg" width="300" height="300" viewBox="0 0 300 300">
<path d="M 147.5 78.75 L 147.5 78.75 L 147.5 78.75 L 148.75 81.25 L 160.0 88.75 L 175.0 96.25 L 186.25 98.75 L 183.75 100.0 " stroke="black" fill="none" stroke-width="6.0" stroke-linecap="round" stroke-linejoin="round" />
<path d="M 83.75 122.5 L 76.25 125.0 L 77.5 125.0 L 93.75 122.5 L 123.75 116.25 L 165.0 110.0 L 202.5 103.75 L 216.25 100.0 L 218.75 98.75 L 212.5 98.75 L 201.25 98.75 L 186.25 105.0 L 165.0 123.75 L 142.5 166.25 L 121.25 225.0 L 107.5 253.75 L 100.0 257.5 L 98.75 256.25 " stroke="black" fill="none" stroke-width="6.0" stroke-linecap="round" stroke-linejoin="round" />
<path d="M 155.0 146.25 L 156.25 146.25 L 158.75 146.25 L 173.75 148.75 L 198.75 158.75 L 212.5 176.25 L 215.0 192.5 L 205.0 206.25 L 190.0 218.75 L 170.0 230.0 L 156.25 232.5 L 153.75 227.5 L 153.75 208.75 " stroke="black" fill="none" stroke-width="6.0" stroke-linecap="round" stroke-linejoin="round" />
</svg>