<svg xmlns="http://www.w3.org/2000/svg" width="300" height="300" viewBox="0 0 300 300">
<path d="M 62.5 131.25 L 62.5 131.25 L 62.5 131.25 L 67.5 128.75 L 87.5 117.5 L 111.25 105.0 L 126.25 96.25 L 127.5 92.5 " stroke="black" fill="none" stroke-width="6.0" stroke-linecap="round" stroke-linejoin="round" />
<path d="M 93.75 95.0 L 93.75 98.75 L 93.75 113.75 L 97.5 155.0 L 100.0 202.5 L 100.0 233.75 L 100.0 243.75 L 100.0 243.75 L 100.0 243.75 L 98.75 237.5 L 95.0 227.5 L 90.0 213.75 L 83.75 203.75 " stroke="black" fill="none" stroke-width="6.0" stroke-linecap="round" stroke-linejoin="round" />
<path d="M 53.75 185.0 L 53.75 185.0 L 51.25 187.5 L 52.5 187.5 L 65.0 185.0 L 78.75 181.25 L 87.5 181.25 L 85.0 192.5 L 71.25 211.25 L 61.25 225.0 L 60.0 226.25 " stroke="black" fill="none" stroke-width="6.0" stroke-linecap="round" stroke-linejoin="round" />
<path d="M 143.75 141.25 L 138.75 145.0 L 126.25 153.75 L 115.0 166.25 L 110.0 175.0 L 110.0 177.5 L 115.0 181.25 L 125.0 190.0 L 136.25 198.75 L 145.0 206.25 L 153.75 207.5 L 158.75 205.0 L 158.75 200.0 L 155.0 195.0 " stroke="black" fill="none" stroke-width="6.0" stroke-linecap="round" stroke-linejoin="round" />
<path d="M 128.75 80.0 L 127.5 78.75 L 125.0 77.5 L 123.75 76.25 L 126.25 80.0 L 135.0 88.75 L 136.25 90.0 " stroke="black" fill="none" stroke-width="6.0" stroke-linecap="round" stroke-linejoin="round" />
<path d="M 180.0 85.0 L 180.0 81.25 L 180.0 80.0 L 180.0 82.5 L 175.0 100.0 L 171.25 120.0 L 170.0 133.75 L 173.75 135.0 L 190.0 122.5 L 206.25 105.0 L 218.75 90.0 L 222.5 85.0 " stroke="black" fill="none" stroke-width="6.0" stroke-linecap="round" stroke-linejoin="round" />
<path d="M 193.75 135.0 L 192.5 138.75 L 192.5 152.5 L 192.5 176.25 L 188.75 202.5 L 178.75 220.0 L 165.0 232.5 L 150.0 238.75 L 141.25 235.0 L 138.75 217.5 " stroke="black" fill="none" stroke-width="6.0" stroke-linecap="round" stroke-linejoin="round" />
<path d="M 156.25 158.75 L 157.5 158.75 L 158.75 160.0 L 163.75 168.75 L 181.25 192.5 L 202.5 215.0 L 225.0 232.5 L 247.5 246.25 L 262.5 256.25 L 263.75 257.5 " stroke="black" fill="none" stroke-width="6.0" stroke-linecap="round" stroke-linejoin="round" />
</svg>