<svg xmlns="http://www.w3.org/2000/svg" width="300" height="300" viewBox="0 0 300 300">
<path d="M 90.0 91.25 L 85.0 92.5 L 82.5 92.5 L 86.25 92.5 L 98.75 92.5 L 112.5 92.5 L 123.75 91.25 L 126.25 92.5 L 122.5 95.0 " stroke="black" fill="none" stroke-width="6.0" stroke-linecap="round" stroke-linejoin="round" />
<path d="M 70.0 150.0 L 68.75 151.25 L 67.5 153.75 L 72.5 152.5 L 85.0 146.25 L 100.0 136.25 L 111.25 127.5 L 113.75 123.75 L 111.25 125.0 L 101.25 138.75 L 90.0 165.0 L 75.0 203.75 L 62.5 228.75 L 60.0 231.25 L 60.0 228.75 " stroke="black" fill="none" stroke-width="6.0" stroke-linecap="round" stroke-linejoin="round" />
<path d="M 97.5 158.75 L 97.5 157.5 L 97.5 156.25 L 101.25 155.0 L 110.0 165.0 L 118.75 187.5 L 120.0 210.0 L 113.75 225.0 L 103.75 232.5 L 97.5 232.5 L 95.0 221.25 L 95.0 217.5 " stroke="black" fill="none" stroke-width="6.0" stroke-linecap="round" stroke-linejoin="round" />
<path d="M 150.0 86.25 L 150.0 85.0 L 146.25 82.5 L 145.0 82.5 L 145.0 90.0 L 148.75 100.0 L 156.25 105.0 L 170.0 103.75 L 190.0 90.0 L 202.5 77.5 L 206.25 70.0 L 202.5 71.25 L 192.5 82.5 L 182.5 93.75 " stroke="black" fill="none" stroke-width="6.0" stroke-linecap="round" stroke-linejoin="round" />
<path d="M 150.0 151.25 L 148.75 151.25 L 146.25 151.25 L 145.0 151.25 L 148.75 151.25 L 163.75 146.25 L 183.75 140.0 L 200.0 132.5 L 202.5 130.0 L 195.0 133.75 L 183.75 140.0 " stroke="black" fill="none" stroke-width="6.0" stroke-linecap="round" stroke-linejoin="round" />
<path d="M 148.75 187.5 L 147.5 188.75 L 146.25 193.75 L 147.5 193.75 L 160.0 186.25 L 180.0 170.0 L 198.75 155.0 L 205.0 148.75 L 200.0 151.25 L 188.75 160.0 L 186.25 161.25 " stroke="black" fill="none" stroke-width="6.0" stroke-linecap="round" stroke-linejoin="round" />
<path d="M 135.0 221.25 L 132.5 225.0 L 133.75 225.0 L 146.25 222.5 L 167.5 210.0 L 191.25 193.75 L 207.5 176.25 L 210.0 166.25 L 205.0 163.75 L 200.0 162.5 L 198.75 162.5 " stroke="black" fill="none" stroke-width="6.0" stroke-linecap="round" stroke-linejoin="round" />
<path d="M 176.25 146.25 L 176.25 146.25 L 172.5 146.25 L 172.5 151.25 L 175.0 172.5 L 182.5 207.5 L 191.25 231.25 L 200.0 238.75 L 208.75 241.25 L 217.5 241.25 L 228.75 241.25 L 241.25 237.5 L 250.0 235.0 L 252.5 232.5 L 252.5 232.5 L 252.5 232.5 L 252.5 232.5 L 251.25 232.5 L 251.25 231.25 L 251.25 222.5 L 250.0 205.0 L 246.25 178.75 " stroke="black" fill="none" stroke-width="6.0" stroke-linecap="round" stroke-linejoin="round" />
</svg>