<svg xmlns="http://www.w3.org/2000/svg" width="300" height="300" viewBox="0 0 300 300">
<path d="M 61.25 91.25 L 61.25 91.25 L 57.5 92.5 L 57.5 93.75 L 72.5 95.0 L 97.5 91.25 L 128.75 82.5 L 147.5 73.75 L 150.0 70.0 L 146.25 70.0 L 130.0 76.25 L 127.5 76.25 " stroke="black" fill="none" stroke-width="6.0" stroke-linecap="round" stroke-linejoin="round" />
<path d="M 87.5 80.0 L 86.25 82.5 L 85.0 87.5 L 85.0 103.75 L 83.75 131.25 L 85.0 148.75 L 86.25 151.25 L 86.25 148.75 " stroke="black" fill="none" stroke-width="6.0" stroke-linecap="round" stroke-linejoin="round" />
<path d="M 115.0 81.25 L 116.25 80.0 L 120.0 81.25 L 122.5 97.5 L 122.5 125.0 L 118.75 148.75 L 111.25 155.0 L 107.5 155.0 " stroke="black" fill="none" stroke-width="6.0" stroke-linecap="round" stroke-linejoin="round" />
<path d="M 92.5 116.25 L 91.25 116.25 L 87.5 116.25 L 87.5 116.25 L 90.0 116.25 L 101.25 112.5 L 112.5 108.75 L 120.0 105.0 L 120.0 103.75 " stroke="black" fill="none" stroke-width="6.0" stroke-linecap="round" stroke-linejoin="round" />
<path d="M 93.75 127.5 L 91.25 130.0 L 90.0 131.25 L 92.5 131.25 L 102.5 128.75 L 113.75 125.0 L 121.25 121.25 L 121.25 121.25 " stroke="black" fill="none" stroke-width="6.0" stroke-linecap="round" stroke-linejoin="round" />
<path d="M 43.75 176.25 L 41.25 178.75 L 41.25 181.25 L 52.5 181.25 L 82.5 173.75 L 117.5 160.0 L 145.0 150.0 L 152.5 146.25 L 148.75 146.25 L 138.75 152.5 L 123.75 156.25 L 115.0 157.5 " stroke="black" fill="none" stroke-width="6.0" stroke-linecap="round" stroke-linejoin="round" />
<path d="M 85.0 167.5 L 82.5 168.75 L 78.75 176.25 L 78.75 195.0 L 81.25 217.5 L 91.25 233.75 L 105.0 237.5 L 122.5 236.25 L 137.5 231.25 L 145.0 228.75 L 147.5 227.5 L 146.25 227.5 L 141.25 228.75 L 133.75 227.5 " stroke="black" fill="none" stroke-width="6.0" stroke-linecap="round" stroke-linejoin="round" />
<path d="M 116.25 167.5 L 113.75 167.5 L 108.75 171.25 L 106.25 182.5 L 105.0 198.75 L 107.5 208.75 L 110.0 208.75 L 112.5 205.0 " stroke="black" fill="none" stroke-width="6.0" stroke-linecap="round" stroke-linejoin="round" />
<path d="M 127.5 168.75 L 127.5 168.75 L 126.25 171.25 L 126.25 185.0 L 132.5 201.25 L 143.75 208.75 L 158.75 203.75 L 173.75 190.0 " stroke="black" fill="none" stroke-width="6.0" stroke-linecap="round" stroke-linejoin="round" />
<path d="M 171.25 107.5 L 171.25 107.5 L 170.0 108.75 L 168.75 108.75 L 172.5 110.0 L 185.0 112.5 L 198.75 113.75 L 208.75 113.75 L 213.75 116.25 L 212.5 117.5 " stroke="black" fill="none" stroke-width="6.0" stroke-linecap="round" stroke-linejoin="round" />
<path d="M 176.25 146.25 L 173.75 150.0 L 172.5 151.25 L 181.25 152.5 L 195.0 150.0 L 208.75 146.25 L 215.0 143.75 L 215.0 143.75 " stroke="black" fill="none" stroke-width="6.0" stroke-linecap="round" stroke-linejoin="round" />
<path d="M 167.5 186.25 L 167.5 187.5 L 167.5 190.0 L 176.25 190.0 L 198.75 185.0 L 227.5 171.25 L 251.25 157.5 L 258.75 150.0 L 256.25 146.25 L 247.5 145.0 L 233.75 141.25 L 230.0 140.0 " stroke="black" fill="none" stroke-width="6.0" stroke-linecap="round" stroke-linejoin="round" />
<path d="M 216.25 83.75 L 212.5 78.75 L 211.25 75.0 L 211.25 75.0 L 211.25 75.0 L 213.75 82.5 L 218.75 107.5 L 222.5 155.0 L 223.75 206.25 L 223.75 238.75 L 222.5 260.0 L 220.0 270.0 L 218.75 271.25 L 213.75 270.0 L 205.0 260.0 L 198.75 253.75 " stroke="black" fill="none" stroke-width="6.0" stroke-linecap="round" stroke-linejoin="round" />
</svg>