<svg xmlns="http://www.w3.org/2000/svg" width="300" height="300" viewBox="0 0 300 300">
<path d="M 91.25 86.25 L 87.5 88.75 L 86.25 90.0 L 86.25 92.5 L 95.0 96.25 L 107.5 97.5 L 118.75 98.75 L 120.0 98.75 " stroke="black" fill="none" stroke-width="6.0" stroke-linecap="round" stroke-linejoin="round" />
<path d="M 55.0 140.0 L 51.25 142.5 L 50.0 143.75 L 61.25 142.5 L 81.25 136.25 L 98.75 127.5 L 112.5 118.75 L 115.0 116.25 L 106.25 125.0 L 92.5 147.5 L 77.5 180.0 L 63.75 211.25 L 60.0 226.25 L 61.25 223.75 L 62.5 220.0 " stroke="black" fill="none" stroke-width="6.0" stroke-linecap="round" stroke-linejoin="round" />
<path d="M 86.25 166.25 L 85.0 165.0 L 85.0 162.5 L 85.0 162.5 L 88.75 162.5 L 96.25 170.0 L 102.5 183.75 L 103.75 201.25 L 97.5 218.75 L 87.5 227.5 L 77.5 226.25 L 76.25 216.25 " stroke="black" fill="none" stroke-width="6.0" stroke-linecap="round" stroke-linejoin="round" />
<path d="M 148.75 81.25 L 148.75 81.25 L 148.75 81.25 L 147.5 82.5 L 147.5 96.25 L 148.75 111.25 L 158.75 118.75 L 177.5 111.25 L 193.75 97.5 L 200.0 88.75 L 197.5 87.5 L 183.75 96.25 L 180.0 98.75 " stroke="black" fill="none" stroke-width="6.0" stroke-linecap="round" stroke-linejoin="round" />
<path d="M 125.0 162.5 L 125.0 163.75 L 127.5 163.75 L 145.0 160.0 L 177.5 148.75 L 205.0 141.25 L 211.25 140.0 L 210.0 142.5 L 201.25 150.0 L 190.0 158.75 L 176.25 165.0 L 168.75 167.5 " stroke="black" fill="none" stroke-width="6.0" stroke-linecap="round" stroke-linejoin="round" />
<path d="M 163.75 156.25 L 163.75 156.25 L 163.75 156.25 L 163.75 157.5 L 163.75 172.5 L 165.0 192.5 L 166.25 206.25 L 166.25 207.5 L 165.0 206.25 " stroke="black" fill="none" stroke-width="6.0" stroke-linecap="round" stroke-linejoin="round" />
<path d="M 168.75 181.25 L 166.25 181.25 L 163.75 181.25 L 163.75 181.25 L 171.25 178.75 L 183.75 172.5 L 193.75 163.75 L 191.25 160.0 " stroke="black" fill="none" stroke-width="6.0" stroke-linecap="round" stroke-linejoin="round" />
<path d="M 143.75 161.25 L 140.0 170.0 L 137.5 187.5 L 135.0 213.75 L 131.25 233.75 L 130.0 243.75 L 127.5 243.75 L 127.5 240.0 " stroke="black" fill="none" stroke-width="6.0" stroke-linecap="round" stroke-linejoin="round" />
<path d="M 138.75 201.25 L 138.75 200.0 L 138.75 200.0 L 138.75 200.0 L 147.5 206.25 L 170.0 223.75 L 197.5 236.25 L 218.75 241.25 L 238.75 241.25 L 253.75 241.25 L 258.75 240.0 " stroke="black" fill="none" stroke-width="6.0" stroke-linecap="round" stroke-linejoin="round" />
</svg>