<svg xmlns="http://www.w3.org/2000/svg" width="300" height="300" viewBox="0 0 300 300">
<path d="M 81.25 136.25 L 71.25 138.75 L 62.5 140.0 L 61.25 140.0 L 62.5 140.0 L 73.75 137.5 L 91.25 130.0 L 107.5 121.25 L 123.75 111.25 L 132.5 106.25 L 133.75 105.0 L 131.25 107.5 L 127.5 117.5 L 125.0 133.75 L 125.0 158.75 L 126.25 191.25 L 133.75 218.75 L 145.0 235.0 L 160.0 243.75 L 181.25 245.0 L 205.0 243.75 L 225.0 237.5 L 243.75 230.0 L 256.25 221.25 L 258.75 215.0 L 258.75 210.0 L 256.25 202.5 L 251.25 192.5 L 245.0 178.75 L 237.5 156.25 L 233.75 150.0 " stroke="black" fill="none" stroke-width="6.0" stroke-linecap="round" stroke-linejoin="round" />
<path d="M 107.5 82.5 L 107.5 81.25 L 106.25 81.25 L 103.75 106.25 L 97.5 171.25 L 87.5 220.0 L 75.0 242.5 " stroke="black" fill="none" stroke-width="6.0" stroke-linecap="round" stroke-linejoin="round" />
<path d="M 170.0 102.5 L 167.5 98.75 L 165.0 97.5 L 163.75 111.25 L 163.75 147.5 L 163.75 181.25 L 166.25 197.5 L 167.5 200.0 L 167.5 197.5 " stroke="black" fill="none" stroke-width="6.0" stroke-linecap="round" stroke-linejoin="round" />
<path d="M 166.25 116.25 L 163.75 110.0 L 163.75 105.0 L 170.0 100.0 L 181.25 97.5 L 193.75 101.25 L 202.5 118.75 L 206.25 147.5 L 205.0 178.75 L 201.25 196.25 L 200.0 202.5 L 198.75 202.5 L 196.25 198.75 L 191.25 192.5 " stroke="black" fill="none" stroke-width="6.0" stroke-linecap="round" stroke-linejoin="round" />
<path d="M 168.75 160.0 L 168.75 160.0 L 166.25 158.75 L 165.0 157.5 L 170.0 155.0 L 182.5 148.75 L 195.0 141.25 L 200.0 138.75 " stroke="black" fill="none" stroke-width="6.0" stroke-linecap="round" stroke-linejoin="round" />
<path d="M 173.75 193.75 L 172.5 197.5 L 165.0 207.5 L 166.25 208.75 L 178.75 202.5 L 197.5 187.5 " stroke="black" fill="none" stroke-width="6.0" stroke-linecap="round" stroke-linejoin="round" />
</svg>