<svg xmlns="http://www.w3.org/2000/svg" width="300" height="300" viewBox="0 0 300 300">
<path d="M 92.5 72.5 L 92.5 72.5 L 92.5 71.25 L 92.5 71.25 L 97.5 72.5 L 106.25 75.0 L 115.0 78.75 L 116.25 82.5 " stroke="black" fill="none" stroke-width="6.0" stroke-linecap="round" stroke-linejoin="round" />
<path d="M 66.25 100.0 L 63.75 100.0 L 62.5 101.25 L 65.0 101.25 L 81.25 100.0 L 103.75 92.5 L 128.75 82.5 L 145.0 72.5 L 143.75 67.5 L 137.5 68.75 " stroke="black" fill="none" stroke-width="6.0" stroke-linecap="round" stroke-linejoin="round" />
<path d="M 83.75 116.25 L 83.75 116.25 L 83.75 116.25 L 83.75 116.25 L 83.75 120.0 L 86.25 131.25 L 90.0 142.5 L 91.25 148.75 L 92.5 148.75 " stroke="black" fill="none" stroke-width="6.0" stroke-linecap="round" stroke-linejoin="round" />
<path d="M 90.0 126.25 L 88.75 123.75 L 88.75 121.25 L 91.25 118.75 L 101.25 115.0 L 116.25 112.5 L 127.5 112.5 L 130.0 115.0 L 123.75 123.75 L 112.5 133.75 L 100.0 141.25 L 91.25 147.5 L 88.75 148.75 L 91.25 148.75 L 97.5 146.25 L 111.25 138.75 L 122.5 132.5 L 128.75 127.5 L 128.75 127.5 " stroke="black" fill="none" stroke-width="6.0" stroke-linecap="round" stroke-linejoin="round" />
<path d="M 97.5 160.0 L 96.25 162.5 L 96.25 163.75 L 97.5 163.75 L 107.5 163.75 L 118.75 160.0 L 126.25 158.75 L 127.5 160.0 L 122.5 167.5 L 115.0 178.75 L 110.0 186.25 L 110.0 191.25 L 116.25 193.75 L 123.75 196.25 L 127.5 202.5 L 127.5 213.75 L 122.5 227.5 L 116.25 240.0 L 111.25 243.75 L 107.5 242.5 L 105.0 238.75 L 101.25 231.25 L 96.25 223.75 L 90.0 217.5 L 81.25 212.5 L 71.25 212.5 L 63.75 211.25 L 62.5 211.25 L 68.75 211.25 L 83.75 208.75 L 102.5 201.25 L 121.25 191.25 L 138.75 180.0 L 141.25 177.5 " stroke="black" fill="none" stroke-width="6.0" stroke-linecap="round" stroke-linejoin="round" />
<path d="M 171.25 78.75 L 171.25 77.5 L 171.25 77.5 L 171.25 91.25 L 170.0 111.25 L 170.0 125.0 L 175.0 127.5 L 190.0 118.75 L 205.0 103.75 L 217.5 91.25 L 226.25 83.75 L 228.75 81.25 L 222.5 82.5 L 217.5 85.0 " stroke="black" fill="none" stroke-width="6.0" stroke-linecap="round" stroke-linejoin="round" />
<path d="M 198.75 121.25 L 198.75 123.75 L 198.75 136.25 L 198.75 153.75 L 197.5 178.75 L 191.25 200.0 L 181.25 213.75 L 168.75 222.5 L 156.25 226.25 L 147.5 226.25 L 143.75 218.75 " stroke="black" fill="none" stroke-width="6.0" stroke-linecap="round" stroke-linejoin="round" />
<path d="M 156.25 170.0 L 157.5 170.0 L 158.75 171.25 L 166.25 181.25 L 183.75 203.75 L 205.0 230.0 L 220.0 246.25 L 236.25 252.5 L 248.75 258.75 L 255.0 262.5 L 256.25 265.0 " stroke="black" fill="none" stroke-width="6.0" stroke-linecap="round" stroke-linejoin="round" />
</svg>