<svg xmlns="http://www.w3.org/2000/svg" width="300" height="300" viewBox="0 0 300 300">
<path d="M 53.75 141.25 L 51.25 141.25 L 48.75 142.5 L 55.0 142.5 L 68.75 138.75 L 86.25 128.75 L 98.75 115.0 L 103.75 106.25 L 102.5 103.75 L 97.5 102.5 L 92.5 102.5 L 87.5 102.5 L 82.5 102.5 L 80.0 103.75 L 77.5 107.5 L 77.5 122.5 L 81.25 160.0 L 86.25 210.0 L 87.5 243.75 L 87.5 255.0 L 88.75 260.0 L 88.75 260.0 L 88.75 260.0 L 86.25 257.5 L 82.5 252.5 L 77.5 248.75 L 72.5 243.75 L 67.5 241.25 L 63.75 240.0 " stroke="black" fill="none" stroke-width="6.0" stroke-linecap="round" stroke-linejoin="round" />
<path d="M 55.0 217.5 L 53.75 218.75 L 55.0 218.75 L 71.25 207.5 L 92.5 186.25 L 106.25 162.5 " stroke="black" fill="none" stroke-width="6.0" stroke-linecap="round" stroke-linejoin="round" />
<path d="M 142.5 83.75 L 141.25 81.25 L 138.75 78.75 L 142.5 77.5 L 151.25 77.5 L 162.5 77.5 L 173.75 77.5 L 180.0 77.5 L 177.5 77.5 L 170.0 77.5 " stroke="black" fill="none" stroke-width="6.0" stroke-linecap="round" stroke-linejoin="round" />
<path d="M 128.75 105.0 L 126.25 106.25 L 125.0 107.5 L 128.75 108.75 L 142.5 101.25 L 163.75 88.75 L 187.5 73.75 L 200.0 63.75 L 198.75 62.5 L 190.0 68.75 " stroke="black" fill="none" stroke-width="6.0" stroke-linecap="round" stroke-linejoin="round" />
<path d="M 120.0 132.5 L 118.75 132.5 L 117.5 131.25 L 116.25 131.25 L 118.75 136.25 L 126.25 148.75 L 131.25 160.0 L 135.0 167.5 L 135.0 168.75 L 132.5 163.75 L 128.75 157.5 L 125.0 152.5 L 123.75 148.75 L 122.5 146.25 L 126.25 143.75 L 136.25 140.0 L 147.5 135.0 L 156.25 131.25 L 158.75 131.25 L 156.25 137.5 L 150.0 147.5 L 145.0 155.0 L 143.75 158.75 L 145.0 157.5 L 147.5 152.5 " stroke="black" fill="none" stroke-width="6.0" stroke-linecap="round" stroke-linejoin="round" />
<path d="M 163.75 115.0 L 163.75 115.0 L 162.5 115.0 L 162.5 115.0 L 165.0 120.0 L 170.0 128.75 L 176.25 136.25 L 180.0 140.0 L 181.25 141.25 L 181.25 137.5 L 180.0 130.0 L 177.5 122.5 L 176.25 115.0 L 173.75 111.25 L 173.75 110.0 L 172.5 110.0 L 178.75 108.75 L 187.5 106.25 L 196.25 103.75 L 200.0 103.75 L 200.0 110.0 L 191.25 122.5 L 180.0 135.0 L 173.75 142.5 L 173.75 142.5 L 186.25 135.0 L 198.75 122.5 L 208.75 111.25 L 211.25 106.25 " stroke="black" fill="none" stroke-width="6.0" stroke-linecap="round" stroke-linejoin="round" />
<path d="M 150.0 178.75 L 146.25 180.0 L 145.0 180.0 L 147.5 180.0 L 160.0 175.0 L 176.25 165.0 L 191.25 155.0 L 197.5 148.75 L 196.25 148.75 L 186.25 152.5 L 175.0 158.75 L 171.25 161.25 " stroke="black" fill="none" stroke-width="6.0" stroke-linecap="round" stroke-linejoin="round" />
<path d="M 142.5 196.25 L 142.5 196.25 L 143.75 196.25 L 151.25 193.75 L 171.25 182.5 L 193.75 167.5 L 202.5 158.75 L 203.75 157.5 L 195.0 161.25 L 186.25 167.5 " stroke="black" fill="none" stroke-width="6.0" stroke-linecap="round" stroke-linejoin="round" />
<path d="M 128.75 218.75 L 128.75 218.75 L 131.25 218.75 L 146.25 213.75 L 177.5 197.5 L 206.25 180.0 L 215.0 170.0 L 216.25 163.75 L 207.5 162.5 L 205.0 162.5 " stroke="black" fill="none" stroke-width="6.0" stroke-linecap="round" stroke-linejoin="round" />
<path d="M 153.75 162.5 L 153.75 162.5 L 153.75 162.5 L 153.75 167.5 L 155.0 183.75 L 156.25 203.75 L 156.25 212.5 L 156.25 212.5 " stroke="black" fill="none" stroke-width="6.0" stroke-linecap="round" stroke-linejoin="round" />
<path d="M 186.25 148.75 L 185.0 148.75 L 185.0 155.0 L 182.5 177.5 L 178.75 201.25 L 173.75 211.25 L 171.25 212.5 " stroke="black" fill="none" stroke-width="6.0" stroke-linecap="round" stroke-linejoin="round" />
<path d="M 170.0 201.25 L 161.25 208.75 L 152.5 227.5 L 143.75 250.0 L 137.5 263.75 L 135.0 268.75 L 135.0 267.5 " stroke="black" fill="none" stroke-width="6.0" stroke-linecap="round" stroke-linejoin="round" />
<path d="M 168.75 217.5 L 167.5 221.25 L 165.0 232.5 L 165.0 252.5 L 167.5 266.25 L 175.0 270.0 L 185.0 265.0 L 197.5 252.5 L 208.75 235.0 L 218.75 216.25 L 222.5 202.5 L 221.25 198.75 L 212.5 200.0 L 202.5 206.25 L 191.25 215.0 L 182.5 221.25 L 176.25 226.25 L 173.75 227.5 L 173.75 227.5 L 175.0 227.5 L 175.0 226.25 L 176.25 226.25 L 176.25 226.25 L 176.25 226.25 L 176.25 226.25 L 176.25 226.25 L 176.25 226.25 L 177.5 226.25 L 183.75 230.0 L 198.75 240.0 L 225.0 250.0 L 251.25 255.0 L 263.75 257.5 L 266.25 257.5 " stroke="black" fill="none" stroke-width="6.0" stroke-linecap="round" stroke-linejoin="round" />
</svg>