<svg xmlns="http://www.w3.org/2000/svg" width="300" height="300" viewBox="0 0 300 300">
<path d="M 98.75 96.25 L 95.0 98.75 L 95.0 100.0 L 103.75 100.0 L 118.75 101.25 L 133.75 101.25 L 140.0 101.25 " stroke="black" fill="none" stroke-width="6.0" stroke-linecap="round" stroke-linejoin="round" />
<path d="M 72.5 157.5 L 71.25 161.25 L 73.75 162.5 L 88.75 155.0 L 108.75 143.75 L 127.5 132.5 L 136.25 126.25 L 131.25 130.0 L 116.25 150.0 L 98.75 182.5 L 85.0 218.75 L 75.0 246.25 L 72.5 248.75 L 73.75 243.75 " stroke="black" fill="none" stroke-width="6.0" stroke-linecap="round" stroke-linejoin="round" />
<path d="M 107.5 168.75 L 108.75 168.75 L 112.5 172.5 L 121.25 185.0 L 126.25 208.75 L 123.75 230.0 L 112.5 243.75 L 101.25 245.0 L 93.75 238.75 L 92.5 235.0 " stroke="black" fill="none" stroke-width="6.0" stroke-linecap="round" stroke-linejoin="round" />
<path d="M 167.5 88.75 L 167.5 87.5 L 167.5 87.5 L 167.5 90.0 L 171.25 105.0 L 180.0 125.0 L 193.75 131.25 L 206.25 123.75 L 217.5 110.0 L 223.75 97.5 L 221.25 93.75 L 210.0 98.75 L 203.75 106.25 " stroke="black" fill="none" stroke-width="6.0" stroke-linecap="round" stroke-linejoin="round" />
<path d="M 148.75 191.25 L 146.25 198.75 L 147.5 200.0 L 161.25 193.75 L 187.5 180.0 L 216.25 165.0 L 233.75 158.75 L 237.5 158.75 L 226.25 167.5 L 210.0 182.5 L 195.0 195.0 " stroke="black" fill="none" stroke-width="6.0" stroke-linecap="round" stroke-linejoin="round" />
<path d="M 190.0 153.75 L 190.0 151.25 L 190.0 150.0 L 191.25 158.75 L 192.5 180.0 L 191.25 201.25 L 185.0 213.75 L 178.75 215.0 " stroke="black" fill="none" stroke-width="6.0" stroke-linecap="round" stroke-linejoin="round" />
<path d="M 150.0 162.5 L 148.75 160.0 L 147.5 158.75 L 150.0 171.25 L 158.75 195.0 L 175.0 221.25 L 193.75 240.0 L 208.75 243.75 L 221.25 245.0 L 237.5 245.0 L 250.0 246.25 L 257.5 247.5 L 258.75 247.5 L 260.0 247.5 L 260.0 241.25 L 260.0 226.25 L 260.0 197.5 L 260.0 187.5 " stroke="black" fill="none" stroke-width="6.0" stroke-linecap="round" stroke-linejoin="round" />
</svg>