<svg xmlns="http://www.w3.org/2000/svg" width="300" height="300" viewBox="0 0 300 300">
<path d="M 92.5 96.25 L 92.5 98.75 L 91.25 105.0 L 87.5 122.5 L 77.5 150.0 L 66.25 172.5 L 58.75 180.0 L 56.25 176.25 L 56.25 168.75 " stroke="black" fill="none" stroke-width="6.0" stroke-linecap="round" stroke-linejoin="round" />
<path d="M 87.5 138.75 L 87.5 140.0 L 87.5 150.0 L 88.75 166.25 L 90.0 190.0 L 91.25 212.5 L 87.5 227.5 L 81.25 232.5 " stroke="black" fill="none" stroke-width="6.0" stroke-linecap="round" stroke-linejoin="round" />
<path d="M 115.0 128.75 L 115.0 128.75 L 115.0 130.0 L 113.75 133.75 L 115.0 148.75 L 115.0 173.75 L 115.0 190.0 L 112.5 193.75 " stroke="black" fill="none" stroke-width="6.0" stroke-linecap="round" stroke-linejoin="round" />
<path d="M 152.5 85.0 L 153.75 83.75 L 153.75 86.25 L 157.5 95.0 L 162.5 108.75 L 170.0 116.25 L 196.25 103.75 L 207.5 92.5 L 215.0 85.0 L 216.25 82.5 L 208.75 85.0 " stroke="black" fill="none" stroke-width="6.0" stroke-linecap="round" stroke-linejoin="round" />
<path d="M 196.25 117.5 L 195.0 121.25 L 193.75 136.25 L 193.75 152.5 L 190.0 172.5 L 182.5 192.5 L 172.5 202.5 L 158.75 208.75 L 146.25 210.0 L 143.75 210.0 " stroke="black" fill="none" stroke-width="6.0" stroke-linecap="round" stroke-linejoin="round" />
<path d="M 155.0 152.5 L 155.0 157.5 L 161.25 166.25 L 176.25 183.75 L 193.75 202.5 L 210.0 216.25 L 225.0 226.25 L 240.0 233.75 L 251.25 236.25 L 256.25 237.5 L 256.25 238.75 " stroke="black" fill="none" stroke-width="6.0" stroke-linecap="round" stroke-linejoin="round" />
</svg>