<svg xmlns="http://www.w3.org/2000/svg" width="300" height="300" viewBox="0 0 300 300">
<path d="M 103.75 86.25 L 102.5 86.25 L 101.25 86.25 L 106.25 86.25 L 130.0 83.75 L 165.0 72.5 L 192.5 61.25 L 198.75 55.0 L 190.0 56.25 " stroke="black" fill="none" stroke-width="6.0" stroke-linecap="round" stroke-linejoin="round" />
<path d="M 98.75 118.75 L 97.5 121.25 L 97.5 127.5 L 103.75 145.0 L 112.5 166.25 L 120.0 178.75 L 122.5 181.25 L 121.25 177.5 L 120.0 176.25 " stroke="black" fill="none" stroke-width="6.0" stroke-linecap="round" stroke-linejoin="round" />
<path d="M 105.0 132.5 L 105.0 130.0 L 108.75 127.5 L 128.75 121.25 L 162.5 113.75 L 192.5 112.5 L 206.25 120.0 L 207.5 133.75 L 197.5 148.75 L 181.25 160.0 L 163.75 167.5 L 148.75 170.0 L 145.0 170.0 " stroke="black" fill="none" stroke-width="6.0" stroke-linecap="round" stroke-linejoin="round" />
<path d="M 113.75 160.0 L 113.75 160.0 L 113.75 160.0 L 117.5 160.0 L 138.75 151.25 L 168.75 138.75 L 191.25 130.0 L 191.25 128.75 " stroke="black" fill="none" stroke-width="6.0" stroke-linecap="round" stroke-linejoin="round" />
<path d="M 131.25 186.25 L 131.25 186.25 L 131.25 186.25 L 141.25 180.0 L 163.75 160.0 L 183.75 138.75 L 185.0 133.75 " stroke="black" fill="none" stroke-width="6.0" stroke-linecap="round" stroke-linejoin="round" />
<path d="M 136.25 65.0 L 136.25 65.0 L 136.25 63.75 L 137.5 78.75 L 141.25 125.0 L 143.75 163.75 L 145.0 173.75 L 145.0 172.5 L 145.0 168.75 " stroke="black" fill="none" stroke-width="6.0" stroke-linecap="round" stroke-linejoin="round" />
<path d="M 168.75 63.75 L 168.75 63.75 L 171.25 70.0 L 172.5 97.5 L 170.0 137.5 L 163.75 165.0 L 161.25 170.0 " stroke="black" fill="none" stroke-width="6.0" stroke-linecap="round" stroke-linejoin="round" />
<path d="M 145.0 206.25 L 143.75 206.25 L 141.25 206.25 L 140.0 213.75 L 140.0 238.75 L 142.5 265.0 L 145.0 275.0 L 147.5 272.5 L 147.5 263.75 " stroke="black" fill="none" stroke-width="6.0" stroke-linecap="round" stroke-linejoin="round" />
<path d="M 145.0 216.25 L 145.0 215.0 L 142.5 211.25 L 142.5 208.75 L 147.5 206.25 L 166.25 201.25 L 186.25 198.75 L 200.0 201.25 L 203.75 218.75 L 202.5 243.75 L 196.25 263.75 L 192.5 271.25 L 191.25 272.5 L 186.25 267.5 L 182.5 262.5 " stroke="black" fill="none" stroke-width="6.0" stroke-linecap="round" stroke-linejoin="round" />
<path d="M 152.5 241.25 L 151.25 241.25 L 146.25 242.5 L 143.75 242.5 L 146.25 242.5 L 160.0 238.75 L 178.75 228.75 L 196.25 216.25 L 201.25 211.25 " stroke="black" fill="none" stroke-width="6.0" stroke-linecap="round" stroke-linejoin="round" />
<path d="M 153.75 270.0 L 152.5 275.0 L 152.5 276.25 L 163.75 272.5 L 185.0 260.0 L 195.0 253.75 " stroke="black" fill="none" stroke-width="6.0" stroke-linecap="round" stroke-linejoin="round" />
</svg>