<svg xmlns="http://www.w3.org/2000/svg" width="300" height="300" viewBox="0 0 300 300">
<path d="M 116.25 77.5 L 116.25 76.25 L 115.0 76.25 L 115.0 81.25 L 117.5 97.5 L 120.0 123.75 L 123.75 138.75 L 123.75 141.25 L 123.75 138.75 " stroke="black" fill="none" stroke-width="6.0" stroke-linecap="round" stroke-linejoin="round" />
<path d="M 121.25 90.0 L 120.0 90.0 L 120.0 90.0 L 130.0 87.5 L 147.5 83.75 L 168.75 83.75 L 183.75 87.5 L 186.25 96.25 L 177.5 108.75 L 165.0 122.5 L 153.75 131.25 L 147.5 135.0 L 146.25 135.0 " stroke="black" fill="none" stroke-width="6.0" stroke-linecap="round" stroke-linejoin="round" />
<path d="M 126.25 116.25 L 122.5 116.25 L 125.0 116.25 L 137.5 111.25 L 151.25 107.5 L 166.25 102.5 L 176.25 100.0 L 171.25 100.0 L 168.75 101.25 " stroke="black" fill="none" stroke-width="6.0" stroke-linecap="round" stroke-linejoin="round" />
<path d="M 125.0 145.0 L 123.75 145.0 L 121.25 147.5 L 126.25 147.5 L 138.75 142.5 L 152.5 135.0 L 165.0 127.5 L 170.0 122.5 L 170.0 122.5 " stroke="black" fill="none" stroke-width="6.0" stroke-linecap="round" stroke-linejoin="round" />
<path d="M 136.25 152.5 L 127.5 161.25 L 110.0 183.75 L 95.0 201.25 L 87.5 208.75 L 87.5 207.5 L 88.75 205.0 " stroke="black" fill="none" stroke-width="6.0" stroke-linecap="round" stroke-linejoin="round" />
<path d="M 128.75 168.75 L 130.0 168.75 L 137.5 167.5 L 157.5 163.75 L 181.25 160.0 L 200.0 158.75 L 207.5 162.5 L 207.5 175.0 L 203.75 192.5 L 197.5 210.0 L 191.25 225.0 L 185.0 237.5 L 176.25 243.75 L 168.75 246.25 L 161.25 246.25 L 155.0 240.0 " stroke="black" fill="none" stroke-width="6.0" stroke-linecap="round" stroke-linejoin="round" />
<path d="M 148.75 170.0 L 145.0 176.25 L 141.25 183.75 L 137.5 197.5 L 132.5 211.25 L 128.75 217.5 L 128.75 217.5 " stroke="black" fill="none" stroke-width="6.0" stroke-linecap="round" stroke-linejoin="round" />
<path d="M 173.75 162.5 L 171.25 166.25 L 166.25 178.75 L 158.75 198.75 L 151.25 220.0 L 145.0 240.0 " stroke="black" fill="none" stroke-width="6.0" stroke-linecap="round" stroke-linejoin="round" />
</svg>