<svg xmlns="http://www.w3.org/2000/svg" width="300" height="300" viewBox="0 0 300 300">
<path d="M 110.0 81.25 L 110.0 81.25 L 110.0 83.75 L 116.25 105.0 L 122.5 133.75 L 127.5 143.75 L 128.75 143.75 " stroke="black" fill="none" stroke-width="6.0" stroke-linecap="round" stroke-linejoin="round" />
<path d="M 120.0 91.25 L 120.0 90.0 L 120.0 88.75 L 131.25 83.75 L 150.0 81.25 L 167.5 81.25 L 176.25 92.5 L 172.5 112.5 L 157.5 132.5 L 145.0 145.0 L 133.75 147.5 L 126.25 146.25 " stroke="black" fill="none" stroke-width="6.0" stroke-linecap="round" stroke-linejoin="round" />
<path d="M 132.5 115.0 L 131.25 115.0 L 131.25 113.75 L 131.25 113.75 L 135.0 111.25 L 146.25 106.25 L 158.75 100.0 L 162.5 97.5 L 162.5 97.5 " stroke="black" fill="none" stroke-width="6.0" stroke-linecap="round" stroke-linejoin="round" />
<path d="M 131.25 143.75 L 127.5 147.5 L 126.25 148.75 L 132.5 145.0 L 148.75 130.0 L 165.0 113.75 L 171.25 105.0 " stroke="black" fill="none" stroke-width="6.0" stroke-linecap="round" stroke-linejoin="round" />
<path d="M 95.0 176.25 L 93.75 176.25 L 92.5 177.5 L 92.5 181.25 L 102.5 198.75 L 113.75 225.0 L 122.5 241.25 L 123.75 243.75 L 123.75 240.0 L 121.25 235.0 " stroke="black" fill="none" stroke-width="6.0" stroke-linecap="round" stroke-linejoin="round" />
<path d="M 105.0 197.5 L 101.25 195.0 L 98.75 192.5 L 102.5 188.75 L 121.25 180.0 L 150.0 170.0 L 175.0 165.0 L 193.75 168.75 L 198.75 181.25 L 195.0 198.75 L 182.5 216.25 L 166.25 231.25 L 148.75 243.75 L 136.25 247.5 L 132.5 248.75 " stroke="black" fill="none" stroke-width="6.0" stroke-linecap="round" stroke-linejoin="round" />
<path d="M 126.25 218.75 L 126.25 217.5 L 125.0 217.5 L 127.5 215.0 L 141.25 207.5 L 162.5 196.25 L 181.25 187.5 L 183.75 186.25 " stroke="black" fill="none" stroke-width="6.0" stroke-linecap="round" stroke-linejoin="round" />
<path d="M 136.25 240.0 L 132.5 241.25 L 131.25 242.5 L 142.5 236.25 L 158.75 223.75 L 180.0 207.5 L 188.75 201.25 " stroke="black" fill="none" stroke-width="6.0" stroke-linecap="round" stroke-linejoin="round" />
</svg>