<svg xmlns="http://www.w3.org/2000/svg" width="300" height="300" viewBox="0 0 300 300">
<path d="M 63.75 120.0 L 63.75 120.0 L 62.5 123.75 L 62.5 135.0 L 67.5 162.5 L 72.5 191.25 L 73.75 202.5 L 73.75 202.5 " stroke="black" fill="none" stroke-width="6.0" stroke-linecap="round" stroke-linejoin="round" />
<path d="M 70.0 132.5 L 66.25 131.25 L 66.25 128.75 L 71.25 123.75 L 80.0 117.5 L 87.5 115.0 L 95.0 121.25 L 98.75 141.25 L 98.75 168.75 L 98.75 192.5 L 97.5 202.5 L 96.25 202.5 L 96.25 200.0 L 95.0 197.5 " stroke="black" fill="none" stroke-width="6.0" stroke-linecap="round" stroke-linejoin="round" />
<path d="M 73.75 167.5 L 71.25 170.0 L 68.75 172.5 L 68.75 171.25 L 77.5 166.25 L 86.25 160.0 L 93.75 153.75 L 95.0 151.25 " stroke="black" fill="none" stroke-width="6.0" stroke-linecap="round" stroke-linejoin="round" />
<path d="M 78.75 211.25 L 78.75 212.5 L 76.25 218.75 L 82.5 215.0 L 98.75 200.0 L 116.25 181.25 " stroke="black" fill="none" stroke-width="6.0" stroke-linecap="round" stroke-linejoin="round" />
<path d="M 143.75 60.0 L 141.25 60.0 L 138.75 61.25 L 138.75 62.5 L 143.75 68.75 L 150.0 76.25 L 152.5 81.25 " stroke="black" fill="none" stroke-width="6.0" stroke-linecap="round" stroke-linejoin="round" />
<path d="M 163.75 47.5 L 163.75 47.5 L 163.75 47.5 L 167.5 48.75 L 173.75 53.75 L 178.75 58.75 L 178.75 65.0 L 168.75 71.25 L 153.75 78.75 L 140.0 85.0 L 136.25 87.5 L 141.25 87.5 L 153.75 82.5 L 170.0 73.75 L 185.0 65.0 L 193.75 55.0 L 192.5 52.5 L 186.25 52.5 " stroke="black" fill="none" stroke-width="6.0" stroke-linecap="round" stroke-linejoin="round" />
<path d="M 165.0 76.25 L 165.0 83.75 L 163.75 92.5 L 163.75 101.25 L 163.75 107.5 L 161.25 110.0 L 158.75 110.0 L 156.25 107.5 " stroke="black" fill="none" stroke-width="6.0" stroke-linecap="round" stroke-linejoin="round" />
<path d="M 152.5 102.5 L 151.25 102.5 L 151.25 102.5 L 153.75 102.5 L 165.0 98.75 L 180.0 92.5 L 190.0 86.25 L 191.25 85.0 " stroke="black" fill="none" stroke-width="6.0" stroke-linecap="round" stroke-linejoin="round" />
<path d="M 147.5 126.25 L 145.0 132.5 L 148.75 132.5 L 161.25 127.5 L 178.75 116.25 L 196.25 103.75 L 198.75 101.25 " stroke="black" fill="none" stroke-width="6.0" stroke-linecap="round" stroke-linejoin="round" />
<path d="M 142.5 143.75 L 138.75 146.25 L 138.75 146.25 L 145.0 146.25 L 156.25 145.0 L 166.25 142.5 L 171.25 141.25 L 166.25 142.5 " stroke="black" fill="none" stroke-width="6.0" stroke-linecap="round" stroke-linejoin="round" />
<path d="M 131.25 168.75 L 130.0 171.25 L 132.5 171.25 L 143.75 167.5 L 162.5 156.25 L 178.75 146.25 L 183.75 140.0 L 176.25 140.0 L 166.25 143.75 L 157.5 147.5 L 152.5 152.5 L 151.25 157.5 L 151.25 166.25 L 153.75 178.75 L 155.0 186.25 L 156.25 190.0 L 153.75 187.5 L 153.75 180.0 L 153.75 171.25 L 152.5 165.0 L 150.0 163.75 L 141.25 175.0 L 130.0 192.5 L 120.0 207.5 L 115.0 213.75 L 115.0 212.5 " stroke="black" fill="none" stroke-width="6.0" stroke-linecap="round" stroke-linejoin="round" />
<path d="M 147.5 170.0 L 148.75 170.0 L 152.5 168.75 L 161.25 167.5 L 173.75 168.75 L 183.75 173.75 L 187.5 178.75 " stroke="black" fill="none" stroke-width="6.0" stroke-linecap="round" stroke-linejoin="round" />
<path d="M 143.75 197.5 L 140.0 201.25 L 136.25 205.0 L 135.0 207.5 L 136.25 208.75 L 141.25 208.75 L 148.75 207.5 L 158.75 201.25 L 166.25 196.25 L 171.25 193.75 L 172.5 192.5 L 165.0 200.0 L 155.0 210.0 L 146.25 220.0 L 141.25 227.5 L 140.0 230.0 L 145.0 228.75 L 153.75 223.75 L 165.0 217.5 L 175.0 215.0 L 178.75 215.0 L 176.25 225.0 L 165.0 238.75 L 153.75 247.5 L 146.25 248.75 " stroke="black" fill="none" stroke-width="6.0" stroke-linecap="round" stroke-linejoin="round" />
<path d="M 187.5 135.0 L 187.5 133.75 L 186.25 131.25 L 187.5 132.5 L 196.25 147.5 L 210.0 186.25 L 225.0 227.5 L 235.0 250.0 L 242.5 261.25 L 245.0 265.0 L 245.0 266.25 L 245.0 265.0 L 243.75 261.25 L 240.0 253.75 L 233.75 241.25 L 226.25 222.5 L 222.5 197.5 L 222.5 191.25 " stroke="black" fill="none" stroke-width="6.0" stroke-linecap="round" stroke-linejoin="round" />
<path d="M 236.25 142.5 L 236.25 142.5 L 236.25 142.5 L 235.0 146.25 L 225.0 163.75 L 207.5 193.75 L 196.25 208.75 " stroke="black" fill="none" stroke-width="6.0" stroke-linecap="round" stroke-linejoin="round" />
<path d="M 218.75 110.0 L 220.0 110.0 L 228.75 113.75 L 243.75 126.25 L 257.5 143.75 L 260.0 147.5 " stroke="black" fill="none" stroke-width="6.0" stroke-linecap="round" stroke-linejoin="round" />
</svg>