<svg xmlns="http://www.w3.org/2000/svg" width="300" height="300" viewBox="0 0 300 300">
<path d="M 111.25 88.75 L 111.25 88.75 L 113.75 88.75 L 121.25 87.5 L 141.25 85.0 L 167.5 82.5 L 182.5 86.25 L 186.25 92.5 L 181.25 102.5 L 168.75 111.25 L 153.75 118.75 L 142.5 121.25 " stroke="black" fill="none" stroke-width="6.0" stroke-linecap="round" stroke-linejoin="round" />
<path d="M 88.75 118.75 L 88.75 118.75 L 88.75 118.75 L 93.75 116.25 L 122.5 107.5 L 162.5 97.5 L 192.5 90.0 L 205.0 87.5 L 205.0 87.5 L 195.0 88.75 L 191.25 90.0 " stroke="black" fill="none" stroke-width="6.0" stroke-linecap="round" stroke-linejoin="round" />
<path d="M 103.75 133.75 L 103.75 135.0 L 103.75 135.0 L 111.25 135.0 L 135.0 128.75 L 162.5 117.5 L 176.25 110.0 L 178.75 108.75 L 165.0 115.0 L 161.25 117.5 " stroke="black" fill="none" stroke-width="6.0" stroke-linecap="round" stroke-linejoin="round" />
<path d="M 97.5 170.0 L 98.75 170.0 L 100.0 170.0 L 115.0 165.0 L 147.5 150.0 L 175.0 137.5 L 188.75 130.0 L 190.0 127.5 L 185.0 127.5 " stroke="black" fill="none" stroke-width="6.0" stroke-linecap="round" stroke-linejoin="round" />
<path d="M 141.25 63.75 L 141.25 62.5 L 138.75 61.25 L 138.75 61.25 L 140.0 73.75 L 142.5 112.5 L 142.5 158.75 L 141.25 188.75 L 137.5 201.25 L 135.0 202.5 " stroke="black" fill="none" stroke-width="6.0" stroke-linecap="round" stroke-linejoin="round" />
<path d="M 93.75 190.0 L 93.75 190.0 L 101.25 188.75 L 127.5 181.25 L 158.75 168.75 L 177.5 158.75 L 188.75 152.5 L 191.25 151.25 L 185.0 152.5 L 182.5 153.75 " stroke="black" fill="none" stroke-width="6.0" stroke-linecap="round" stroke-linejoin="round" />
<path d="M 98.75 207.5 L 98.75 208.75 L 98.75 208.75 L 102.5 220.0 L 112.5 243.75 L 121.25 262.5 L 125.0 267.5 L 125.0 266.25 L 121.25 260.0 L 117.5 251.25 L 112.5 242.5 L 108.75 232.5 L 106.25 221.25 L 103.75 216.25 L 103.75 216.25 L 108.75 216.25 L 126.25 212.5 L 153.75 205.0 L 183.75 200.0 L 200.0 201.25 L 201.25 210.0 L 196.25 225.0 L 183.75 243.75 L 171.25 253.75 L 157.5 258.75 L 146.25 258.75 L 143.75 257.5 " stroke="black" fill="none" stroke-width="6.0" stroke-linecap="round" stroke-linejoin="round" />
<path d="M 105.0 245.0 L 105.0 245.0 L 103.75 245.0 L 110.0 245.0 L 133.75 237.5 L 165.0 226.25 L 187.5 218.75 L 193.75 217.5 L 188.75 221.25 " stroke="black" fill="none" stroke-width="6.0" stroke-linecap="round" stroke-linejoin="round" />
<path d="M 130.0 263.75 L 128.75 263.75 L 128.75 263.75 L 141.25 261.25 L 167.5 252.5 L 195.0 241.25 L 200.0 238.75 " stroke="black" fill="none" stroke-width="6.0" stroke-linecap="round" stroke-linejoin="round" />
</svg>