<svg xmlns="http://www.w3.org/2000/svg" width="300" height="300" viewBox="0 0 300 300">
<path d="M 81.25 101.25 L 78.75 97.5 L 77.5 96.25 L 76.25 98.75 L 78.75 122.5 L 83.75 158.75 L 87.5 191.25 L 90.0 202.5 L 90.0 200.0 L 90.0 197.5 " stroke="black" fill="none" stroke-width="6.0" stroke-linecap="round" stroke-linejoin="round" />
<path d="M 83.75 112.5 L 81.25 111.25 L 81.25 108.75 L 87.5 106.25 L 98.75 106.25 L 112.5 116.25 L 120.0 140.0 L 117.5 168.75 L 108.75 191.25 L 101.25 201.25 L 96.25 200.0 " stroke="black" fill="none" stroke-width="6.0" stroke-linecap="round" stroke-linejoin="round" />
<path d="M 91.25 153.75 L 87.5 153.75 L 82.5 153.75 L 81.25 153.75 L 86.25 152.5 L 101.25 143.75 L 115.0 135.0 L 120.0 132.5 " stroke="black" fill="none" stroke-width="6.0" stroke-linecap="round" stroke-linejoin="round" />
<path d="M 95.0 193.75 L 90.0 201.25 L 88.75 202.5 L 96.25 195.0 L 112.5 180.0 L 125.0 165.0 " stroke="black" fill="none" stroke-width="6.0" stroke-linecap="round" stroke-linejoin="round" />
<path d="M 158.75 86.25 L 150.0 90.0 L 143.75 93.75 L 145.0 93.75 L 157.5 91.25 L 176.25 82.5 L 191.25 75.0 L 201.25 66.25 L 202.5 61.25 L 193.75 60.0 L 182.5 60.0 L 175.0 61.25 L 170.0 62.5 L 168.75 65.0 L 170.0 76.25 L 172.5 93.75 L 173.75 110.0 L 170.0 122.5 L 160.0 130.0 L 151.25 133.75 L 148.75 133.75 L 155.0 132.5 L 172.5 123.75 L 192.5 111.25 L 207.5 97.5 L 212.5 91.25 L 206.25 93.75 L 193.75 103.75 " stroke="black" fill="none" stroke-width="6.0" stroke-linecap="round" stroke-linejoin="round" />
<path d="M 136.25 193.75 L 135.0 197.5 L 130.0 203.75 L 137.5 203.75 L 157.5 188.75 L 190.0 161.25 L 222.5 133.75 L 243.75 116.25 L 245.0 111.25 L 237.5 111.25 L 223.75 116.25 L 212.5 120.0 L 205.0 122.5 L 202.5 123.75 L 203.75 125.0 L 206.25 130.0 L 210.0 145.0 L 215.0 185.0 L 218.75 236.25 L 220.0 266.25 L 221.25 272.5 L 221.25 272.5 L 216.25 271.25 L 208.75 263.75 L 200.0 251.25 L 191.25 233.75 L 181.25 216.25 " stroke="black" fill="none" stroke-width="6.0" stroke-linecap="round" stroke-linejoin="round" />
<path d="M 161.25 186.25 L 160.0 186.25 L 161.25 188.75 L 170.0 196.25 L 183.75 205.0 L 196.25 212.5 " stroke="black" fill="none" stroke-width="6.0" stroke-linecap="round" stroke-linejoin="round" />
</svg>