<svg xmlns="http://www.w3.org/2000/svg" width="300" height="300" viewBox="0 0 300 300">
<path d="M 80.0 116.25 L 80.0 116.25 L 77.5 115.0 L 77.5 118.75 L 77.5 146.25 L 80.0 183.75 L 80.0 201.25 L 81.25 201.25 L 81.25 200.0 " stroke="black" fill="none" stroke-width="6.0" stroke-linecap="round" stroke-linejoin="round" />
<path d="M 85.0 113.75 L 85.0 113.75 L 85.0 113.75 L 87.5 113.75 L 100.0 113.75 L 118.75 122.5 L 131.25 142.5 L 128.75 167.5 L 118.75 188.75 L 108.75 197.5 L 101.25 197.5 L 97.5 193.75 " stroke="black" fill="none" stroke-width="6.0" stroke-linecap="round" stroke-linejoin="round" />
<path d="M 87.5 162.5 L 86.25 162.5 L 81.25 163.75 L 80.0 163.75 L 86.25 161.25 L 101.25 153.75 L 116.25 146.25 L 126.25 142.5 L 126.25 142.5 " stroke="black" fill="none" stroke-width="6.0" stroke-linecap="round" stroke-linejoin="round" />
<path d="M 91.25 198.75 L 90.0 201.25 L 86.25 206.25 L 88.75 205.0 L 103.75 192.5 L 125.0 173.75 L 146.25 150.0 L 148.75 145.0 " stroke="black" fill="none" stroke-width="6.0" stroke-linecap="round" stroke-linejoin="round" />
<path d="M 152.5 96.25 L 151.25 96.25 L 150.0 96.25 L 148.75 101.25 L 148.75 140.0 L 148.75 196.25 L 148.75 226.25 L 147.5 242.5 L 145.0 245.0 L 145.0 233.75 " stroke="black" fill="none" stroke-width="6.0" stroke-linecap="round" stroke-linejoin="round" />
<path d="M 152.5 102.5 L 152.5 95.0 L 153.75 88.75 L 158.75 85.0 L 167.5 83.75 L 185.0 83.75 L 205.0 86.25 L 218.75 97.5 L 226.25 125.0 L 227.5 163.75 L 225.0 201.25 L 223.75 222.5 L 226.25 237.5 L 227.5 238.75 L 227.5 238.75 L 227.5 235.0 L 223.75 225.0 L 215.0 211.25 L 203.75 196.25 L 191.25 182.5 L 178.75 172.5 " stroke="black" fill="none" stroke-width="6.0" stroke-linecap="round" stroke-linejoin="round" />
<path d="M 155.0 157.5 L 153.75 157.5 L 150.0 157.5 L 148.75 156.25 L 157.5 151.25 L 180.0 141.25 L 202.5 128.75 L 217.5 117.5 L 217.5 117.5 " stroke="black" fill="none" stroke-width="6.0" stroke-linecap="round" stroke-linejoin="round" />
<path d="M 163.75 192.5 L 162.5 193.75 L 163.75 196.25 L 183.75 183.75 L 207.5 162.5 L 212.5 157.5 " stroke="black" fill="none" stroke-width="6.0" stroke-linecap="round" stroke-linejoin="round" />
</svg>