<svg xmlns="http://www.w3.org/2000/svg" width="300" height="300" viewBox="0 0 300 300">
<path d="M 127.5 73.75 L 126.25 71.25 L 125.0 67.5 L 130.0 66.25 L 140.0 70.0 L 147.5 82.5 L 153.75 96.25 L 155.0 98.75 " stroke="black" fill="none" stroke-width="6.0" stroke-linecap="round" stroke-linejoin="round" />
<path d="M 188.75 62.5 L 187.5 62.5 L 178.75 68.75 L 167.5 83.75 L 155.0 103.75 L 146.25 116.25 " stroke="black" fill="none" stroke-width="6.0" stroke-linecap="round" stroke-linejoin="round" />
<path d="M 111.25 110.0 L 111.25 110.0 L 111.25 110.0 L 108.75 113.75 L 112.5 131.25 L 116.25 156.25 L 118.75 171.25 L 120.0 173.75 " stroke="black" fill="none" stroke-width="6.0" stroke-linecap="round" stroke-linejoin="round" />
<path d="M 111.25 125.0 L 110.0 125.0 L 108.75 125.0 L 120.0 123.75 L 148.75 117.5 L 193.75 110.0 L 223.75 108.75 L 236.25 111.25 L 235.0 121.25 L 218.75 136.25 L 201.25 147.5 L 183.75 155.0 L 167.5 156.25 L 163.75 156.25 " stroke="black" fill="none" stroke-width="6.0" stroke-linecap="round" stroke-linejoin="round" />
<path d="M 161.25 113.75 L 161.25 112.5 L 161.25 111.25 L 162.5 111.25 L 162.5 127.5 L 162.5 146.25 L 158.75 161.25 L 157.5 162.5 " stroke="black" fill="none" stroke-width="6.0" stroke-linecap="round" stroke-linejoin="round" />
<path d="M 145.0 125.0 L 142.5 122.5 L 141.25 122.5 L 143.75 135.0 L 147.5 151.25 L 150.0 160.0 " stroke="black" fill="none" stroke-width="6.0" stroke-linecap="round" stroke-linejoin="round" />
<path d="M 195.0 113.75 L 195.0 113.75 L 193.75 115.0 L 183.75 126.25 L 161.25 148.75 L 141.25 166.25 L 123.75 178.75 L 115.0 182.5 L 117.5 182.5 L 136.25 177.5 L 158.75 165.0 L 181.25 153.75 L 196.25 146.25 L 197.5 145.0 L 186.25 150.0 L 172.5 158.75 L 160.0 171.25 L 153.75 192.5 L 152.5 222.5 L 157.5 250.0 L 162.5 262.5 L 163.75 265.0 L 163.75 263.75 L 162.5 260.0 L 157.5 250.0 L 152.5 237.5 L 151.25 220.0 L 150.0 201.25 L 151.25 188.75 L 153.75 182.5 L 157.5 181.25 L 165.0 181.25 L 176.25 182.5 L 188.75 190.0 L 197.5 206.25 L 198.75 228.75 L 191.25 250.0 L 181.25 261.25 L 173.75 263.75 L 166.25 260.0 " stroke="black" fill="none" stroke-width="6.0" stroke-linecap="round" stroke-linejoin="round" />
<path d="M 158.75 220.0 L 158.75 218.75 L 155.0 217.5 L 153.75 216.25 L 158.75 212.5 L 172.5 206.25 L 188.75 200.0 L 197.5 197.5 L 195.0 200.0 " stroke="black" fill="none" stroke-width="6.0" stroke-linecap="round" stroke-linejoin="round" />
<path d="M 160.0 242.5 L 157.5 245.0 L 155.0 252.5 L 157.5 252.5 L 172.5 251.25 L 193.75 242.5 L 205.0 236.25 " stroke="black" fill="none" stroke-width="6.0" stroke-linecap="round" stroke-linejoin="round" />
</svg>