<svg xmlns="http://www.w3.org/2000/svg" width="300" height="300" viewBox="0 0 300 300">
<path d="M 97.5 108.75 L 97.5 108.75 L 96.25 112.5 L 96.25 137.5 L 100.0 182.5 L 102.5 211.25 L 103.75 218.75 L 106.25 216.25 L 106.25 207.5 L 106.25 203.75 " stroke="black" fill="none" stroke-width="6.0" stroke-linecap="round" stroke-linejoin="round" />
<path d="M 110.0 116.25 L 110.0 112.5 L 113.75 108.75 L 126.25 103.75 L 148.75 97.5 L 172.5 93.75 L 192.5 101.25 L 202.5 131.25 L 203.75 175.0 L 202.5 215.0 L 201.25 237.5 L 200.0 247.5 L 198.75 250.0 L 197.5 246.25 L 192.5 236.25 L 183.75 223.75 L 171.25 207.5 L 155.0 192.5 L 151.25 188.75 " stroke="black" fill="none" stroke-width="6.0" stroke-linecap="round" stroke-linejoin="round" />
<path d="M 113.75 171.25 L 113.75 173.75 L 113.75 175.0 L 116.25 175.0 L 131.25 166.25 L 151.25 153.75 L 168.75 143.75 L 175.0 138.75 L 171.25 140.0 " stroke="black" fill="none" stroke-width="6.0" stroke-linecap="round" stroke-linejoin="round" />
<path d="M 117.5 211.25 L 112.5 216.25 L 112.5 218.75 L 125.0 215.0 L 147.5 202.5 L 168.75 188.75 L 177.5 181.25 " stroke="black" fill="none" stroke-width="6.0" stroke-linecap="round" stroke-linejoin="round" />
</svg>