<svg xmlns="http://www.w3.org/2000/svg" width="300" height="300" viewBox="0 0 300 300">
<path d="M 107.5 95.0 L 103.75 96.25 L 97.5 100.0 L 98.75 100.0 L 113.75 100.0 L 140.0 95.0 L 170.0 86.25 L 190.0 80.0 L 193.75 77.5 L 185.0 78.75 L 167.5 81.25 L 155.0 81.25 " stroke="black" fill="none" stroke-width="6.0" stroke-linecap="round" stroke-linejoin="round" />
<path d="M 126.25 82.5 L 125.0 82.5 L 122.5 83.75 L 122.5 90.0 L 123.75 108.75 L 125.0 131.25 L 125.0 137.5 " stroke="black" fill="none" stroke-width="6.0" stroke-linecap="round" stroke-linejoin="round" />
<path d="M 158.75 71.25 L 160.0 71.25 L 161.25 71.25 L 163.75 78.75 L 160.0 101.25 L 150.0 127.5 L 136.25 143.75 L 115.0 151.25 L 95.0 157.5 L 80.0 162.5 L 71.25 166.25 L 73.75 166.25 L 91.25 162.5 L 122.5 151.25 L 157.5 138.75 L 195.0 125.0 L 211.25 115.0 L 210.0 113.75 L 200.0 117.5 L 183.75 125.0 L 165.0 132.5 L 147.5 143.75 L 137.5 160.0 L 135.0 191.25 L 137.5 222.5 L 143.75 242.5 L 146.25 251.25 L 146.25 255.0 L 145.0 253.75 L 141.25 248.75 L 136.25 241.25 " stroke="black" fill="none" stroke-width="6.0" stroke-linecap="round" stroke-linejoin="round" />
<path d="M 140.0 168.75 L 140.0 167.5 L 142.5 165.0 L 152.5 163.75 L 172.5 167.5 L 191.25 183.75 L 195.0 206.25 L 187.5 228.75 L 176.25 243.75 L 166.25 248.75 L 157.5 248.75 " stroke="black" fill="none" stroke-width="6.0" stroke-linecap="round" stroke-linejoin="round" />
<path d="M 143.75 208.75 L 143.75 208.75 L 142.5 208.75 L 143.75 208.75 L 155.0 206.25 L 173.75 200.0 L 186.25 197.5 L 187.5 198.75 " stroke="black" fill="none" stroke-width="6.0" stroke-linecap="round" stroke-linejoin="round" />
<path d="M 151.25 252.5 L 150.0 255.0 L 147.5 261.25 L 148.75 261.25 L 167.5 253.75 L 190.0 241.25 L 193.75 237.5 " stroke="black" fill="none" stroke-width="6.0" stroke-linecap="round" stroke-linejoin="round" />
</svg>