<svg xmlns="http://www.w3.org/2000/svg" width="300" height="300" viewBox="0 0 300 300">
<path d="M 115.0 96.25 L 115.0 96.25 L 115.0 96.25 L 115.0 96.25 L 127.5 93.75 L 150.0 88.75 L 172.5 81.25 L 185.0 76.25 L 182.5 76.25 L 175.0 77.5 " stroke="black" fill="none" stroke-width="6.0" stroke-linecap="round" stroke-linejoin="round" />
<path d="M 112.5 117.5 L 112.5 118.75 L 115.0 118.75 L 130.0 117.5 L 150.0 108.75 L 168.75 100.0 L 173.75 95.0 L 166.25 96.25 L 158.75 97.5 " stroke="black" fill="none" stroke-width="6.0" stroke-linecap="round" stroke-linejoin="round" />
<path d="M 90.0 156.25 L 87.5 158.75 L 86.25 161.25 L 96.25 160.0 L 117.5 152.5 L 152.5 138.75 L 186.25 122.5 L 205.0 108.75 L 205.0 101.25 " stroke="black" fill="none" stroke-width="6.0" stroke-linecap="round" stroke-linejoin="round" />
<path d="M 145.0 78.75 L 145.0 86.25 L 140.0 115.0 L 126.25 160.0 L 106.25 200.0 L 83.75 230.0 L 63.75 246.25 L 52.5 248.75 L 45.0 238.75 " stroke="black" fill="none" stroke-width="6.0" stroke-linecap="round" stroke-linejoin="round" />
<path d="M 172.5 143.75 L 185.0 148.75 L 207.5 157.5 L 231.25 163.75 L 247.5 172.5 L 255.0 177.5 L 253.75 181.25 L 243.75 185.0 " stroke="black" fill="none" stroke-width="6.0" stroke-linecap="round" stroke-linejoin="round" />
<path d="M 145.0 173.75 L 143.75 173.75 L 141.25 177.5 L 140.0 192.5 L 140.0 223.75 L 140.0 246.25 L 141.25 252.5 L 143.75 250.0 L 143.75 243.75 " stroke="black" fill="none" stroke-width="6.0" stroke-linecap="round" stroke-linejoin="round" />
<path d="M 138.75 186.25 L 138.75 183.75 L 140.0 181.25 L 147.5 177.5 L 161.25 176.25 L 177.5 183.75 L 187.5 201.25 L 188.75 226.25 L 182.5 246.25 L 173.75 255.0 L 166.25 256.25 L 158.75 253.75 L 155.0 251.25 " stroke="black" fill="none" stroke-width="6.0" stroke-linecap="round" stroke-linejoin="round" />
<path d="M 138.75 220.0 L 136.25 220.0 L 135.0 221.25 L 138.75 220.0 L 153.75 215.0 L 172.5 207.5 L 186.25 201.25 L 187.5 201.25 " stroke="black" fill="none" stroke-width="6.0" stroke-linecap="round" stroke-linejoin="round" />
<path d="M 142.5 252.5 L 141.25 257.5 L 145.0 258.75 L 158.75 256.25 L 181.25 247.5 L 187.5 245.0 " stroke="black" fill="none" stroke-width="6.0" stroke-linecap="round" stroke-linejoin="round" />
</svg>