<svg xmlns="http://www.w3.org/2000/svg" width="300" height="300" viewBox="0 0 300 300">
<path d="M 98.75 81.25 L 98.75 81.25 L 98.75 82.5 L 98.75 92.5 L 102.5 118.75 L 107.5 137.5 L 110.0 145.0 L 111.25 143.75 L 108.75 140.0 " stroke="black" fill="none" stroke-width="6.0" stroke-linecap="round" stroke-linejoin="round" />
<path d="M 100.0 100.0 L 100.0 98.75 L 100.0 95.0 L 101.25 91.25 L 112.5 87.5 L 135.0 82.5 L 158.75 80.0 L 175.0 82.5 L 182.5 92.5 L 181.25 106.25 L 172.5 121.25 L 162.5 131.25 L 153.75 136.25 L 145.0 136.25 L 141.25 135.0 " stroke="black" fill="none" stroke-width="6.0" stroke-linecap="round" stroke-linejoin="round" />
<path d="M 105.0 112.5 L 105.0 112.5 L 103.75 112.5 L 105.0 112.5 L 120.0 110.0 L 142.5 103.75 L 158.75 97.5 L 162.5 95.0 L 155.0 96.25 L 152.5 97.5 " stroke="black" fill="none" stroke-width="6.0" stroke-linecap="round" stroke-linejoin="round" />
<path d="M 106.25 136.25 L 106.25 137.5 L 108.75 137.5 L 117.5 137.5 L 143.75 130.0 L 161.25 122.5 L 163.75 120.0 " stroke="black" fill="none" stroke-width="6.0" stroke-linecap="round" stroke-linejoin="round" />
<path d="M 71.25 167.5 L 71.25 167.5 L 72.5 167.5 L 81.25 167.5 L 108.75 167.5 L 142.5 160.0 L 166.25 153.75 L 180.0 147.5 L 182.5 146.25 L 176.25 145.0 L 160.0 150.0 L 156.25 151.25 " stroke="black" fill="none" stroke-width="6.0" stroke-linecap="round" stroke-linejoin="round" />
<path d="M 93.75 171.25 L 92.5 171.25 L 91.25 176.25 L 91.25 190.0 L 90.0 218.75 L 83.75 247.5 L 77.5 261.25 L 70.0 266.25 L 66.25 262.5 L 66.25 257.5 " stroke="black" fill="none" stroke-width="6.0" stroke-linecap="round" stroke-linejoin="round" />
<path d="M 138.75 172.5 L 138.75 172.5 L 138.75 172.5 L 138.75 177.5 L 135.0 200.0 L 123.75 232.5 L 112.5 250.0 L 101.25 256.25 L 93.75 256.25 " stroke="black" fill="none" stroke-width="6.0" stroke-linecap="round" stroke-linejoin="round" />
<path d="M 125.0 211.25 L 125.0 212.5 L 131.25 217.5 L 146.25 230.0 L 166.25 246.25 L 185.0 258.75 L 198.75 265.0 L 205.0 266.25 L 207.5 267.5 L 207.5 267.5 " stroke="black" fill="none" stroke-width="6.0" stroke-linecap="round" stroke-linejoin="round" />
</svg>