<svg xmlns="http://www.w3.org/2000/svg" width="300" height="300" viewBox="0 0 300 300">
<path d="M 112.5 80.0 L 111.25 80.0 L 110.0 80.0 L 108.75 88.75 L 111.25 117.5 L 116.25 140.0 L 121.25 146.25 L 122.5 143.75 " stroke="black" fill="none" stroke-width="6.0" stroke-linecap="round" stroke-linejoin="round" />
<path d="M 107.5 87.5 L 106.25 86.25 L 103.75 82.5 L 108.75 80.0 L 126.25 76.25 L 148.75 73.75 L 163.75 75.0 L 167.5 86.25 L 160.0 103.75 L 147.5 120.0 L 136.25 131.25 L 126.25 132.5 L 123.75 132.5 " stroke="black" fill="none" stroke-width="6.0" stroke-linecap="round" stroke-linejoin="round" />
<path d="M 111.25 108.75 L 108.75 108.75 L 106.25 108.75 L 107.5 108.75 L 125.0 101.25 L 146.25 92.5 L 158.75 86.25 L 158.75 86.25 " stroke="black" fill="none" stroke-width="6.0" stroke-linecap="round" stroke-linejoin="round" />
<path d="M 113.75 136.25 L 112.5 137.5 L 112.5 137.5 L 120.0 135.0 L 135.0 125.0 L 148.75 115.0 L 152.5 111.25 L 152.5 111.25 " stroke="black" fill="none" stroke-width="6.0" stroke-linecap="round" stroke-linejoin="round" />
<path d="M 135.0 136.25 L 133.75 137.5 L 135.0 141.25 L 138.75 145.0 L 143.75 148.75 L 145.0 153.75 L 145.0 155.0 " stroke="black" fill="none" stroke-width="6.0" stroke-linecap="round" stroke-linejoin="round" />
<path d="M 68.75 188.75 L 66.25 190.0 L 61.25 192.5 L 68.75 191.25 L 95.0 180.0 L 133.75 157.5 L 171.25 135.0 L 190.0 122.5 L 190.0 121.25 L 182.5 125.0 " stroke="black" fill="none" stroke-width="6.0" stroke-linecap="round" stroke-linejoin="round" />
<path d="M 121.25 171.25 L 121.25 178.75 L 122.5 191.25 L 126.25 203.75 L 131.25 212.5 L 132.5 213.75 L 130.0 212.5 L 123.75 207.5 L 121.25 201.25 L 123.75 192.5 L 133.75 182.5 L 148.75 172.5 L 163.75 166.25 L 168.75 170.0 L 160.0 185.0 L 147.5 198.75 L 136.25 208.75 L 131.25 211.25 L 133.75 207.5 L 143.75 198.75 L 152.5 190.0 L 160.0 183.75 L 162.5 182.5 L 160.0 193.75 L 157.5 213.75 L 157.5 242.5 L 160.0 266.25 L 162.5 272.5 L 161.25 271.25 L 155.0 267.5 L 145.0 262.5 L 137.5 258.75 " stroke="black" fill="none" stroke-width="6.0" stroke-linecap="round" stroke-linejoin="round" />
<path d="M 80.0 226.25 L 78.75 226.25 L 78.75 226.25 L 88.75 231.25 L 107.5 243.75 L 130.0 258.75 L 140.0 261.25 " stroke="black" fill="none" stroke-width="6.0" stroke-linecap="round" stroke-linejoin="round" />
<path d="M 198.75 200.0 L 198.75 200.0 L 201.25 201.25 L 207.5 207.5 L 218.75 226.25 L 226.25 246.25 L 227.5 258.75 " stroke="black" fill="none" stroke-width="6.0" stroke-linecap="round" stroke-linejoin="round" />
</svg>