<svg xmlns="http://www.w3.org/2000/svg" width="300" height="300" viewBox="0 0 300 300">
<path d="M 96.25 83.75 L 96.25 83.75 L 98.75 83.75 L 122.5 80.0 L 156.25 70.0 L 178.75 57.5 L 186.25 51.25 L 183.75 48.75 L 171.25 48.75 L 155.0 50.0 L 141.25 52.5 L 127.5 56.25 L 117.5 62.5 L 115.0 75.0 L 118.75 92.5 L 125.0 103.75 L 131.25 103.75 L 131.25 102.5 " stroke="black" fill="none" stroke-width="6.0" stroke-linecap="round" stroke-linejoin="round" />
<path d="M 163.75 46.25 L 163.75 46.25 L 163.75 46.25 L 161.25 56.25 L 152.5 81.25 L 141.25 103.75 L 135.0 110.0 " stroke="black" fill="none" stroke-width="6.0" stroke-linecap="round" stroke-linejoin="round" />
<path d="M 122.5 105.0 L 122.5 107.5 L 122.5 115.0 L 125.0 127.5 L 130.0 150.0 L 133.75 157.5 L 133.75 156.25 L 132.5 148.75 " stroke="black" fill="none" stroke-width="6.0" stroke-linecap="round" stroke-linejoin="round" />
<path d="M 128.75 122.5 L 128.75 120.0 L 128.75 115.0 L 135.0 110.0 L 147.5 105.0 L 165.0 102.5 L 177.5 103.75 L 181.25 111.25 L 175.0 125.0 L 162.5 138.75 L 150.0 148.75 L 138.75 151.25 " stroke="black" fill="none" stroke-width="6.0" stroke-linecap="round" stroke-linejoin="round" />
<path d="M 137.5 132.5 L 137.5 132.5 L 137.5 132.5 L 137.5 131.25 L 143.75 127.5 L 155.0 121.25 L 165.0 115.0 L 163.75 116.25 " stroke="black" fill="none" stroke-width="6.0" stroke-linecap="round" stroke-linejoin="round" />
<path d="M 138.75 147.5 L 136.25 151.25 L 133.75 155.0 L 138.75 153.75 L 151.25 145.0 L 165.0 133.75 L 172.5 122.5 L 170.0 121.25 " stroke="black" fill="none" stroke-width="6.0" stroke-linecap="round" stroke-linejoin="round" />
<path d="M 73.75 197.5 L 70.0 200.0 L 68.75 201.25 L 83.75 196.25 L 111.25 182.5 L 151.25 158.75 L 178.75 141.25 L 192.5 130.0 L 188.75 128.75 " stroke="black" fill="none" stroke-width="6.0" stroke-linecap="round" stroke-linejoin="round" />
<path d="M 138.75 155.0 L 136.25 158.75 L 123.75 181.25 L 108.75 207.5 L 93.75 232.5 L 87.5 242.5 L 86.25 242.5 L 87.5 233.75 " stroke="black" fill="none" stroke-width="6.0" stroke-linecap="round" stroke-linejoin="round" />
<path d="M 148.75 157.5 L 155.0 153.75 L 173.75 152.5 L 197.5 156.25 L 215.0 167.5 L 227.5 178.75 L 235.0 187.5 L 230.0 191.25 L 227.5 191.25 " stroke="black" fill="none" stroke-width="6.0" stroke-linecap="round" stroke-linejoin="round" />
<path d="M 132.5 188.75 L 130.0 188.75 L 128.75 192.5 L 128.75 206.25 L 131.25 231.25 L 135.0 246.25 L 136.25 251.25 L 136.25 248.75 " stroke="black" fill="none" stroke-width="6.0" stroke-linecap="round" stroke-linejoin="round" />
<path d="M 133.75 196.25 L 132.5 195.0 L 135.0 192.5 L 145.0 186.25 L 161.25 182.5 L 177.5 183.75 L 186.25 202.5 L 186.25 231.25 L 181.25 258.75 L 177.5 271.25 L 177.5 271.25 L 176.25 265.0 L 171.25 256.25 L 168.75 253.75 " stroke="black" fill="none" stroke-width="6.0" stroke-linecap="round" stroke-linejoin="round" />
<path d="M 136.25 226.25 L 133.75 227.5 L 130.0 228.75 L 131.25 228.75 L 143.75 222.5 L 160.0 212.5 L 176.25 201.25 L 180.0 197.5 L 178.75 197.5 " stroke="black" fill="none" stroke-width="6.0" stroke-linecap="round" stroke-linejoin="round" />
<path d="M 136.25 266.25 L 133.75 272.5 L 138.75 273.75 L 155.0 266.25 L 176.25 252.5 L 187.5 242.5 " stroke="black" fill="none" stroke-width="6.0" stroke-linecap="round" stroke-linejoin="round" />
</svg>