<svg xmlns="http://www.w3.org/2000/svg" width="300" height="300" viewBox="0 0 300 300">
<path d="M 110.0 92.5 L 107.5 92.5 L 107.5 92.5 L 111.25 92.5 L 133.75 88.75 L 165.0 78.75 L 195.0 65.0 L 201.25 58.75 L 197.5 60.0 L 183.75 67.5 " stroke="black" fill="none" stroke-width="6.0" stroke-linecap="round" stroke-linejoin="round" />
<path d="M 102.5 123.75 L 102.5 126.25 L 102.5 132.5 L 110.0 152.5 L 120.0 182.5 L 125.0 197.5 L 126.25 198.75 L 125.0 196.25 " stroke="black" fill="none" stroke-width="6.0" stroke-linecap="round" stroke-linejoin="round" />
<path d="M 115.0 142.5 L 115.0 141.25 L 116.25 138.75 L 128.75 135.0 L 155.0 127.5 L 186.25 125.0 L 202.5 126.25 L 205.0 135.0 L 193.75 147.5 L 177.5 160.0 L 158.75 168.75 L 151.25 171.25 " stroke="black" fill="none" stroke-width="6.0" stroke-linecap="round" stroke-linejoin="round" />
<path d="M 132.5 167.5 L 131.25 167.5 L 131.25 167.5 L 135.0 163.75 L 150.0 153.75 L 171.25 143.75 L 183.75 138.75 L 182.5 138.75 " stroke="black" fill="none" stroke-width="6.0" stroke-linecap="round" stroke-linejoin="round" />
<path d="M 135.0 192.5 L 128.75 198.75 L 132.5 196.25 L 147.5 183.75 L 170.0 161.25 L 191.25 138.75 L 195.0 127.5 L 192.5 127.5 " stroke="black" fill="none" stroke-width="6.0" stroke-linecap="round" stroke-linejoin="round" />
<path d="M 151.25 105.0 L 151.25 106.25 L 152.5 113.75 L 157.5 142.5 L 158.75 183.75 L 151.25 213.75 L 140.0 233.75 L 121.25 246.25 L 101.25 252.5 L 88.75 252.5 L 85.0 252.5 " stroke="black" fill="none" stroke-width="6.0" stroke-linecap="round" stroke-linejoin="round" />
<path d="M 80.0 212.5 L 81.25 210.0 L 82.5 208.75 L 90.0 208.75 L 105.0 217.5 L 130.0 235.0 L 156.25 253.75 L 183.75 262.5 L 208.75 267.5 L 228.75 271.25 L 243.75 273.75 L 251.25 275.0 L 252.5 275.0 " stroke="black" fill="none" stroke-width="6.0" stroke-linecap="round" stroke-linejoin="round" />
</svg>