<svg xmlns="http://www.w3.org/2000/svg" width="300" height="300" viewBox="0 0 300 300">
<path d="M 102.5 81.25 L 102.5 81.25 L 101.25 83.75 L 106.25 101.25 L 113.75 126.25 L 122.5 140.0 L 126.25 141.25 L 125.0 138.75 " stroke="black" fill="none" stroke-width="6.0" stroke-linecap="round" stroke-linejoin="round" />
<path d="M 101.25 98.75 L 100.0 97.5 L 96.25 95.0 L 97.5 92.5 L 112.5 88.75 L 137.5 86.25 L 167.5 85.0 L 187.5 88.75 L 192.5 98.75 L 181.25 113.75 L 163.75 128.75 L 146.25 137.5 L 133.75 140.0 L 121.25 136.25 " stroke="black" fill="none" stroke-width="6.0" stroke-linecap="round" stroke-linejoin="round" />
<path d="M 113.75 117.5 L 113.75 117.5 L 113.75 117.5 L 117.5 115.0 L 131.25 110.0 L 152.5 102.5 L 170.0 96.25 L 176.25 93.75 L 166.25 98.75 L 152.5 107.5 L 140.0 120.0 L 126.25 137.5 L 116.25 147.5 L 121.25 148.75 L 137.5 141.25 L 155.0 130.0 L 171.25 118.75 L 177.5 112.5 L 168.75 113.75 " stroke="black" fill="none" stroke-width="6.0" stroke-linecap="round" stroke-linejoin="round" />
<path d="M 87.5 195.0 L 87.5 195.0 L 87.5 195.0 L 103.75 187.5 L 142.5 166.25 L 176.25 147.5 L 195.0 138.75 L 197.5 135.0 L 190.0 135.0 L 176.25 141.25 L 162.5 151.25 L 152.5 167.5 L 150.0 192.5 L 152.5 213.75 L 156.25 220.0 L 158.75 218.75 L 165.0 210.0 L 175.0 197.5 L 185.0 185.0 L 188.75 177.5 L 183.75 173.75 " stroke="black" fill="none" stroke-width="6.0" stroke-linecap="round" stroke-linejoin="round" />
<path d="M 111.25 188.75 L 110.0 192.5 L 108.75 206.25 L 106.25 232.5 L 102.5 252.5 L 100.0 260.0 L 97.5 258.75 L 96.25 257.5 " stroke="black" fill="none" stroke-width="6.0" stroke-linecap="round" stroke-linejoin="round" />
<path d="M 116.25 200.0 L 116.25 200.0 L 116.25 200.0 L 122.5 206.25 L 137.5 218.75 L 158.75 233.75 L 183.75 245.0 L 208.75 250.0 L 230.0 252.5 L 252.5 255.0 L 270.0 258.75 L 280.0 260.0 " stroke="black" fill="none" stroke-width="6.0" stroke-linecap="round" stroke-linejoin="round" />
</svg>