<svg xmlns="http://www.w3.org/2000/svg" width="300" height="300" viewBox="0 0 300 300">
<path d="M 73.75 128.75 L 71.25 125.0 L 71.25 123.75 L 71.25 125.0 L 71.25 142.5 L 72.5 171.25 L 73.75 197.5 L 73.75 205.0 L 73.75 202.5 L 73.75 195.0 " stroke="black" fill="none" stroke-width="6.0" stroke-linecap="round" stroke-linejoin="round" />
<path d="M 73.75 132.5 L 72.5 130.0 L 70.0 127.5 L 72.5 125.0 L 82.5 121.25 L 92.5 120.0 L 101.25 125.0 L 106.25 143.75 L 107.5 168.75 L 107.5 192.5 L 105.0 202.5 L 103.75 203.75 L 102.5 200.0 L 100.0 193.75 L 96.25 187.5 L 96.25 186.25 " stroke="black" fill="none" stroke-width="6.0" stroke-linecap="round" stroke-linejoin="round" />
<path d="M 76.25 166.25 L 72.5 170.0 L 71.25 170.0 L 80.0 165.0 L 91.25 157.5 L 102.5 148.75 L 111.25 140.0 L 111.25 138.75 " stroke="black" fill="none" stroke-width="6.0" stroke-linecap="round" stroke-linejoin="round" />
<path d="M 82.5 202.5 L 80.0 206.25 L 77.5 208.75 L 83.75 205.0 L 97.5 191.25 L 106.25 181.25 " stroke="black" fill="none" stroke-width="6.0" stroke-linecap="round" stroke-linejoin="round" />
<path d="M 151.25 68.75 L 150.0 70.0 L 150.0 71.25 L 158.75 71.25 L 175.0 70.0 L 191.25 67.5 L 200.0 63.75 L 198.75 63.75 " stroke="black" fill="none" stroke-width="6.0" stroke-linecap="round" stroke-linejoin="round" />
<path d="M 131.25 97.5 L 130.0 100.0 L 132.5 100.0 L 145.0 96.25 L 165.0 87.5 L 187.5 76.25 L 197.5 67.5 L 192.5 67.5 " stroke="black" fill="none" stroke-width="6.0" stroke-linecap="round" stroke-linejoin="round" />
<path d="M 143.75 97.5 L 140.0 103.75 L 136.25 118.75 L 133.75 153.75 L 126.25 200.0 L 118.75 225.0 L 112.5 235.0 L 107.5 236.25 L 106.25 230.0 " stroke="black" fill="none" stroke-width="6.0" stroke-linecap="round" stroke-linejoin="round" />
<path d="M 151.25 112.5 L 145.0 117.5 L 143.75 120.0 L 147.5 120.0 L 161.25 118.75 L 181.25 112.5 L 198.75 102.5 L 207.5 95.0 L 206.25 92.5 L 203.75 92.5 " stroke="black" fill="none" stroke-width="6.0" stroke-linecap="round" stroke-linejoin="round" />
<path d="M 163.75 101.25 L 163.75 101.25 L 162.5 105.0 L 161.25 112.5 L 161.25 127.5 L 162.5 143.75 L 162.5 147.5 " stroke="black" fill="none" stroke-width="6.0" stroke-linecap="round" stroke-linejoin="round" />
<path d="M 198.75 93.75 L 198.75 93.75 L 198.75 97.5 L 197.5 106.25 L 190.0 122.5 L 177.5 136.25 L 162.5 142.5 L 147.5 147.5 L 135.0 152.5 L 133.75 153.75 L 138.75 153.75 L 153.75 152.5 L 176.25 146.25 L 201.25 136.25 L 220.0 126.25 L 226.25 118.75 L 223.75 117.5 L 212.5 121.25 L 207.5 125.0 " stroke="black" fill="none" stroke-width="6.0" stroke-linecap="round" stroke-linejoin="round" />
<path d="M 181.25 146.25 L 170.0 161.25 L 163.75 182.5 L 162.5 201.25 L 162.5 211.25 L 166.25 213.75 L 167.5 213.75 " stroke="black" fill="none" stroke-width="6.0" stroke-linecap="round" stroke-linejoin="round" />
<path d="M 167.5 162.5 L 167.5 161.25 L 171.25 158.75 L 182.5 156.25 L 201.25 155.0 L 217.5 156.25 L 228.75 162.5 L 231.25 173.75 L 223.75 187.5 L 212.5 198.75 L 202.5 203.75 L 200.0 205.0 " stroke="black" fill="none" stroke-width="6.0" stroke-linecap="round" stroke-linejoin="round" />
<path d="M 166.25 188.75 L 166.25 188.75 L 166.25 188.75 L 172.5 188.75 L 188.75 185.0 L 208.75 177.5 L 220.0 168.75 L 221.25 163.75 " stroke="black" fill="none" stroke-width="6.0" stroke-linecap="round" stroke-linejoin="round" />
<path d="M 200.0 157.5 L 198.75 158.75 L 196.25 162.5 L 193.75 168.75 L 190.0 183.75 L 183.75 198.75 L 173.75 210.0 L 165.0 216.25 L 162.5 217.5 L 166.25 217.5 L 181.25 215.0 L 198.75 207.5 L 213.75 200.0 L 223.75 193.75 L 225.0 192.5 L 216.25 197.5 L 203.75 212.5 L 188.75 231.25 L 172.5 248.75 L 163.75 253.75 " stroke="black" fill="none" stroke-width="6.0" stroke-linecap="round" stroke-linejoin="round" />
<path d="M 220.0 213.75 L 221.25 215.0 L 223.75 218.75 L 233.75 223.75 L 247.5 232.5 L 256.25 240.0 L 258.75 242.5 L 258.75 243.75 " stroke="black" fill="none" stroke-width="6.0" stroke-linecap="round" stroke-linejoin="round" />
</svg>