<svg xmlns="http://www.w3.org/2000/svg" width="300" height="300" viewBox="0 0 300 300">
<path d="M 70.0 111.25 L 68.75 112.5 L 66.25 118.75 L 67.5 136.25 L 71.25 165.0 L 72.5 191.25 L 73.75 197.5 L 73.75 195.0 " stroke="black" fill="none" stroke-width="6.0" stroke-linecap="round" stroke-linejoin="round" />
<path d="M 75.0 116.25 L 75.0 116.25 L 73.75 116.25 L 77.5 113.75 L 85.0 110.0 L 96.25 108.75 L 106.25 112.5 L 112.5 131.25 L 112.5 156.25 L 112.5 181.25 L 112.5 195.0 L 112.5 197.5 L 112.5 196.25 L 108.75 191.25 L 105.0 185.0 " stroke="black" fill="none" stroke-width="6.0" stroke-linecap="round" stroke-linejoin="round" />
<path d="M 76.25 160.0 L 72.5 162.5 L 71.25 162.5 L 76.25 158.75 L 86.25 150.0 L 97.5 140.0 L 105.0 132.5 " stroke="black" fill="none" stroke-width="6.0" stroke-linecap="round" stroke-linejoin="round" />
<path d="M 77.5 198.75 L 76.25 202.5 L 78.75 201.25 L 90.0 192.5 L 102.5 178.75 L 105.0 173.75 " stroke="black" fill="none" stroke-width="6.0" stroke-linecap="round" stroke-linejoin="round" />
<path d="M 133.75 75.0 L 133.75 75.0 L 131.25 75.0 L 131.25 81.25 L 135.0 95.0 L 140.0 111.25 L 143.75 120.0 L 145.0 122.5 L 145.0 121.25 " stroke="black" fill="none" stroke-width="6.0" stroke-linecap="round" stroke-linejoin="round" />
<path d="M 138.75 72.5 L 138.75 71.25 L 138.75 71.25 L 147.5 70.0 L 170.0 65.0 L 200.0 63.75 L 217.5 63.75 L 221.25 67.5 L 218.75 73.75 L 207.5 85.0 L 193.75 95.0 L 178.75 105.0 L 160.0 112.5 L 157.5 115.0 " stroke="black" fill="none" stroke-width="6.0" stroke-linecap="round" stroke-linejoin="round" />
<path d="M 148.75 118.75 L 147.5 118.75 L 142.5 121.25 L 141.25 121.25 L 146.25 121.25 L 162.5 116.25 L 185.0 108.75 L 205.0 101.25 L 213.75 98.75 L 210.0 98.75 L 197.5 106.25 L 180.0 116.25 L 162.5 127.5 L 146.25 141.25 L 142.5 157.5 L 147.5 172.5 L 160.0 185.0 L 171.25 191.25 L 177.5 192.5 L 177.5 192.5 L 173.75 192.5 L 168.75 188.75 L 162.5 182.5 L 155.0 173.75 L 150.0 162.5 L 145.0 153.75 L 142.5 150.0 L 143.75 148.75 L 152.5 147.5 L 171.25 143.75 L 192.5 140.0 L 210.0 137.5 L 218.75 137.5 L 218.75 142.5 L 211.25 152.5 L 200.0 163.75 L 187.5 172.5 L 183.75 173.75 " stroke="black" fill="none" stroke-width="6.0" stroke-linecap="round" stroke-linejoin="round" />
<path d="M 153.75 167.5 L 153.75 167.5 L 153.75 167.5 L 161.25 163.75 L 180.0 157.5 L 202.5 148.75 L 215.0 141.25 L 216.25 138.75 L 212.5 140.0 " stroke="black" fill="none" stroke-width="6.0" stroke-linecap="round" stroke-linejoin="round" />
<path d="M 181.25 181.25 L 190.0 176.25 L 203.75 165.0 L 211.25 158.75 L 212.5 156.25 " stroke="black" fill="none" stroke-width="6.0" stroke-linecap="round" stroke-linejoin="round" />
<path d="M 160.0 221.25 L 161.25 223.75 L 170.0 222.5 L 192.5 210.0 L 216.25 195.0 L 230.0 182.5 L 231.25 172.5 L 230.0 171.25 " stroke="black" fill="none" stroke-width="6.0" stroke-linecap="round" stroke-linejoin="round" />
<path d="M 177.5 102.5 L 176.25 100.0 L 172.5 93.75 L 171.25 88.75 L 172.5 87.5 L 175.0 87.5 L 180.0 98.75 L 186.25 127.5 L 192.5 176.25 L 195.0 225.0 L 195.0 248.75 L 195.0 256.25 L 193.75 257.5 L 190.0 256.25 L 183.75 252.5 " stroke="black" fill="none" stroke-width="6.0" stroke-linecap="round" stroke-linejoin="round" />
</svg>