<svg xmlns="http://www.w3.org/2000/svg" width="300" height="300" viewBox="0 0 300 300">
<path d="M 71.25 116.25 L 71.25 116.25 L 67.5 116.25 L 66.25 125.0 L 65.0 156.25 L 65.0 188.75 L 67.5 200.0 L 71.25 200.0 L 71.25 191.25 L 71.25 186.25 " stroke="black" fill="none" stroke-width="6.0" stroke-linecap="round" stroke-linejoin="round" />
<path d="M 65.0 127.5 L 65.0 127.5 L 65.0 126.25 L 65.0 125.0 L 71.25 121.25 L 82.5 118.75 L 95.0 118.75 L 102.5 131.25 L 103.75 155.0 L 101.25 182.5 L 98.75 197.5 L 98.75 200.0 L 98.75 197.5 L 96.25 191.25 L 95.0 185.0 " stroke="black" fill="none" stroke-width="6.0" stroke-linecap="round" stroke-linejoin="round" />
<path d="M 68.75 163.75 L 65.0 165.0 L 63.75 165.0 L 67.5 165.0 L 82.5 157.5 L 93.75 151.25 L 98.75 147.5 " stroke="black" fill="none" stroke-width="6.0" stroke-linecap="round" stroke-linejoin="round" />
<path d="M 75.0 198.75 L 72.5 201.25 L 72.5 202.5 L 82.5 197.5 L 100.0 182.5 L 105.0 177.5 " stroke="black" fill="none" stroke-width="6.0" stroke-linecap="round" stroke-linejoin="round" />
<path d="M 130.0 82.5 L 130.0 82.5 L 130.0 82.5 L 136.25 82.5 L 156.25 81.25 L 182.5 77.5 L 202.5 71.25 L 208.75 68.75 L 205.0 68.75 L 193.75 73.75 L 190.0 75.0 " stroke="black" fill="none" stroke-width="6.0" stroke-linecap="round" stroke-linejoin="round" />
<path d="M 147.5 86.25 L 146.25 86.25 L 141.25 90.0 L 138.75 95.0 L 140.0 106.25 L 145.0 117.5 L 150.0 123.75 L 152.5 123.75 " stroke="black" fill="none" stroke-width="6.0" stroke-linecap="round" stroke-linejoin="round" />
<path d="M 168.75 86.25 L 168.75 86.25 L 168.75 86.25 L 168.75 92.5 L 165.0 110.0 L 162.5 126.25 L 161.25 128.75 " stroke="black" fill="none" stroke-width="6.0" stroke-linecap="round" stroke-linejoin="round" />
<path d="M 196.25 78.75 L 196.25 78.75 L 193.75 82.5 L 188.75 92.5 L 176.25 112.5 L 161.25 131.25 L 146.25 143.75 L 133.75 150.0 L 128.75 152.5 L 128.75 152.5 L 137.5 152.5 L 151.25 146.25 L 170.0 136.25 L 188.75 127.5 L 200.0 120.0 L 203.75 117.5 L 193.75 123.75 " stroke="black" fill="none" stroke-width="6.0" stroke-linecap="round" stroke-linejoin="round" />
<path d="M 136.25 185.0 L 136.25 185.0 L 145.0 178.75 L 172.5 161.25 L 200.0 145.0 L 211.25 136.25 L 208.75 132.5 " stroke="black" fill="none" stroke-width="6.0" stroke-linecap="round" stroke-linejoin="round" />
<path d="M 171.25 151.25 L 165.0 168.75 L 156.25 198.75 L 146.25 225.0 L 137.5 242.5 L 135.0 243.75 L 137.5 236.25 L 143.75 222.5 L 152.5 206.25 L 162.5 192.5 L 175.0 178.75 L 192.5 167.5 L 207.5 163.75 L 215.0 167.5 L 212.5 180.0 L 201.25 196.25 L 186.25 212.5 L 166.25 227.5 L 148.75 237.5 L 141.25 240.0 " stroke="black" fill="none" stroke-width="6.0" stroke-linecap="round" stroke-linejoin="round" />
<path d="M 160.0 193.75 L 158.75 193.75 L 157.5 193.75 L 158.75 195.0 L 163.75 198.75 L 175.0 205.0 L 188.75 212.5 L 203.75 223.75 L 222.5 238.75 L 243.75 252.5 L 260.0 262.5 L 272.5 267.5 L 275.0 267.5 " stroke="black" fill="none" stroke-width="6.0" stroke-linecap="round" stroke-linejoin="round" />
</svg>