<svg xmlns="http://www.w3.org/2000/svg" width="300" height="300" viewBox="0 0 300 300">
<path d="M 83.75 72.5 L 85.0 71.25 L 86.25 68.75 L 91.25 67.5 L 96.25 73.75 L 100.0 87.5 L 103.75 97.5 L 110.0 100.0 L 123.75 88.75 L 137.5 73.75 L 142.5 65.0 L 137.5 67.5 L 131.25 72.5 " stroke="black" fill="none" stroke-width="6.0" stroke-linecap="round" stroke-linejoin="round" />
<path d="M 70.0 151.25 L 70.0 151.25 L 70.0 151.25 L 83.75 142.5 L 112.5 123.75 L 140.0 106.25 L 150.0 97.5 L 147.5 97.5 L 142.5 97.5 " stroke="black" fill="none" stroke-width="6.0" stroke-linecap="round" stroke-linejoin="round" />
<path d="M 112.5 102.5 L 112.5 105.0 L 108.75 116.25 L 102.5 143.75 L 93.75 167.5 L 88.75 176.25 L 86.25 175.0 " stroke="black" fill="none" stroke-width="6.0" stroke-linecap="round" stroke-linejoin="round" />
<path d="M 112.5 126.25 L 116.25 125.0 L 122.5 126.25 L 135.0 135.0 L 148.75 148.75 L 160.0 155.0 L 162.5 155.0 " stroke="black" fill="none" stroke-width="6.0" stroke-linecap="round" stroke-linejoin="round" />
<path d="M 170.0 95.0 L 170.0 95.0 L 170.0 95.0 L 170.0 102.5 L 171.25 123.75 L 176.25 141.25 L 180.0 143.75 " stroke="black" fill="none" stroke-width="6.0" stroke-linecap="round" stroke-linejoin="round" />
<path d="M 172.5 110.0 L 170.0 105.0 L 171.25 95.0 L 183.75 90.0 L 200.0 87.5 L 211.25 91.25 L 212.5 102.5 L 202.5 120.0 L 190.0 135.0 L 181.25 140.0 L 180.0 138.75 L 190.0 126.25 L 203.75 111.25 L 206.25 107.5 " stroke="black" fill="none" stroke-width="6.0" stroke-linecap="round" stroke-linejoin="round" />
<path d="M 131.25 168.75 L 128.75 168.75 L 127.5 168.75 L 126.25 190.0 L 130.0 227.5 L 135.0 251.25 L 140.0 253.75 L 140.0 245.0 L 140.0 241.25 " stroke="black" fill="none" stroke-width="6.0" stroke-linecap="round" stroke-linejoin="round" />
<path d="M 136.25 187.5 L 132.5 182.5 L 133.75 178.75 L 145.0 175.0 L 161.25 171.25 L 181.25 173.75 L 196.25 191.25 L 200.0 216.25 L 195.0 240.0 L 188.75 252.5 L 183.75 257.5 L 177.5 253.75 " stroke="black" fill="none" stroke-width="6.0" stroke-linecap="round" stroke-linejoin="round" />
<path d="M 136.25 220.0 L 133.75 221.25 L 126.25 222.5 L 126.25 223.75 L 133.75 221.25 L 156.25 211.25 L 176.25 202.5 L 191.25 195.0 L 191.25 195.0 " stroke="black" fill="none" stroke-width="6.0" stroke-linecap="round" stroke-linejoin="round" />
<path d="M 143.75 261.25 L 142.5 265.0 L 141.25 267.5 L 150.0 265.0 L 162.5 256.25 L 185.0 240.0 " stroke="black" fill="none" stroke-width="6.0" stroke-linecap="round" stroke-linejoin="round" />
</svg>