<svg xmlns="http://www.w3.org/2000/svg" width="300" height="300" viewBox="0 0 300 300">
<path d="M 67.5 140.0 L 61.25 142.5 L 56.25 143.75 L 58.75 143.75 L 73.75 136.25 L 93.75 123.75 L 111.25 110.0 L 122.5 100.0 L 123.75 95.0 L 116.25 95.0 L 106.25 95.0 L 98.75 96.25 L 93.75 98.75 L 91.25 101.25 L 91.25 102.5 L 92.5 111.25 L 97.5 138.75 L 102.5 187.5 L 103.75 226.25 L 105.0 243.75 L 103.75 250.0 L 98.75 250.0 L 97.5 246.25 " stroke="black" fill="none" stroke-width="6.0" stroke-linecap="round" stroke-linejoin="round" />
<path d="M 100.0 155.0 L 91.25 165.0 L 82.5 183.75 L 71.25 203.75 L 61.25 213.75 L 57.5 212.5 L 56.25 206.25 " stroke="black" fill="none" stroke-width="6.0" stroke-linecap="round" stroke-linejoin="round" />
<path d="M 95.0 157.5 L 96.25 157.5 L 105.0 160.0 L 125.0 172.5 L 146.25 185.0 L 160.0 187.5 L 163.75 183.75 " stroke="black" fill="none" stroke-width="6.0" stroke-linecap="round" stroke-linejoin="round" />
<path d="M 163.75 93.75 L 160.0 95.0 L 157.5 97.5 L 163.75 101.25 L 181.25 103.75 L 196.25 103.75 L 215.0 102.5 L 218.75 101.25 L 212.5 108.75 L 193.75 135.0 L 168.75 162.5 L 147.5 187.5 L 140.0 193.75 " stroke="black" fill="none" stroke-width="6.0" stroke-linecap="round" stroke-linejoin="round" />
<path d="M 187.5 145.0 L 187.5 145.0 L 187.5 146.25 L 191.25 161.25 L 197.5 195.0 L 200.0 225.0 L 200.0 242.5 L 198.75 250.0 L 191.25 248.75 " stroke="black" fill="none" stroke-width="6.0" stroke-linecap="round" stroke-linejoin="round" />
<path d="M 207.5 146.25 L 207.5 146.25 L 207.5 146.25 L 211.25 151.25 L 226.25 161.25 L 243.75 173.75 L 253.75 182.5 L 255.0 186.25 " stroke="black" fill="none" stroke-width="6.0" stroke-linecap="round" stroke-linejoin="round" />
</svg>