<svg xmlns="http://www.w3.org/2000/svg" width="300" height="300" viewBox="0 0 300 300">
<path d="M 92.5 105.0 L 90.0 106.25 L 90.0 106.25 L 102.5 103.75 L 136.25 95.0 L 172.5 83.75 L 192.5 76.25 L 195.0 73.75 L 192.5 73.75 L 182.5 73.75 L 170.0 73.75 L 157.5 73.75 L 146.25 73.75 L 141.25 75.0 L 141.25 75.0 L 142.5 80.0 L 142.5 101.25 L 133.75 143.75 L 117.5 191.25 L 101.25 217.5 L 93.75 231.25 L 90.0 235.0 L 90.0 235.0 " stroke="black" fill="none" stroke-width="6.0" stroke-linecap="round" stroke-linejoin="round" />
<path d="M 136.25 147.5 L 136.25 147.5 L 135.0 146.25 L 133.75 145.0 L 133.75 145.0 L 133.75 162.5 L 133.75 200.0 L 133.75 236.25 L 131.25 250.0 L 128.75 252.5 " stroke="black" fill="none" stroke-width="6.0" stroke-linecap="round" stroke-linejoin="round" />
<path d="M 142.5 148.75 L 142.5 146.25 L 142.5 143.75 L 148.75 138.75 L 166.25 135.0 L 186.25 135.0 L 200.0 148.75 L 202.5 176.25 L 196.25 236.25 L 196.25 255.0 L 197.5 260.0 L 197.5 258.75 L 197.5 252.5 L 192.5 245.0 L 183.75 233.75 L 177.5 226.25 " stroke="black" fill="none" stroke-width="6.0" stroke-linecap="round" stroke-linejoin="round" />
<path d="M 142.5 190.0 L 141.25 190.0 L 136.25 190.0 L 133.75 190.0 L 140.0 186.25 L 158.75 176.25 L 183.75 165.0 L 198.75 157.5 L 200.0 157.5 " stroke="black" fill="none" stroke-width="6.0" stroke-linecap="round" stroke-linejoin="round" />
<path d="M 150.0 216.25 L 147.5 218.75 L 151.25 217.5 L 170.0 208.75 L 196.25 193.75 L 201.25 190.0 " stroke="black" fill="none" stroke-width="6.0" stroke-linecap="round" stroke-linejoin="round" />
</svg>