<svg xmlns="http://www.w3.org/2000/svg" width="300" height="300" viewBox="0 0 300 300">
<path d="M 113.75 82.5 L 113.75 78.75 L 113.75 77.5 L 115.0 80.0 L 120.0 95.0 L 125.0 113.75 L 130.0 128.75 L 131.25 132.5 L 131.25 128.75 " stroke="black" fill="none" stroke-width="6.0" stroke-linecap="round" stroke-linejoin="round" />
<path d="M 122.5 82.5 L 122.5 82.5 L 120.0 80.0 L 120.0 78.75 L 130.0 76.25 L 146.25 75.0 L 165.0 73.75 L 177.5 77.5 L 180.0 86.25 L 170.0 97.5 L 156.25 110.0 L 146.25 117.5 L 138.75 120.0 L 136.25 117.5 " stroke="black" fill="none" stroke-width="6.0" stroke-linecap="round" stroke-linejoin="round" />
<path d="M 135.0 100.0 L 133.75 100.0 L 133.75 100.0 L 133.75 100.0 L 138.75 97.5 L 148.75 93.75 L 158.75 88.75 L 161.25 86.25 " stroke="black" fill="none" stroke-width="6.0" stroke-linecap="round" stroke-linejoin="round" />
<path d="M 132.5 116.25 L 131.25 118.75 L 128.75 121.25 L 133.75 121.25 L 145.0 117.5 L 157.5 108.75 L 162.5 105.0 " stroke="black" fill="none" stroke-width="6.0" stroke-linecap="round" stroke-linejoin="round" />
<path d="M 66.25 155.0 L 65.0 157.5 L 62.5 158.75 L 72.5 158.75 L 95.0 153.75 L 128.75 143.75 L 161.25 131.25 L 177.5 122.5 L 180.0 120.0 L 170.0 120.0 L 157.5 125.0 L 147.5 131.25 L 138.75 136.25 L 132.5 140.0 L 131.25 143.75 L 131.25 147.5 L 131.25 148.75 L 131.25 150.0 L 131.25 151.25 L 132.5 156.25 L 133.75 175.0 L 135.0 205.0 L 133.75 233.75 L 130.0 252.5 L 123.75 260.0 L 117.5 260.0 L 116.25 258.75 " stroke="black" fill="none" stroke-width="6.0" stroke-linecap="round" stroke-linejoin="round" />
<path d="M 95.0 167.5 L 92.5 163.75 L 91.25 162.5 L 91.25 171.25 L 91.25 191.25 L 92.5 212.5 L 95.0 230.0 L 95.0 233.75 L 95.0 233.75 " stroke="black" fill="none" stroke-width="6.0" stroke-linecap="round" stroke-linejoin="round" />
<path d="M 96.25 190.0 L 96.25 190.0 L 92.5 187.5 L 91.25 187.5 L 95.0 186.25 L 105.0 182.5 L 120.0 173.75 L 131.25 165.0 L 133.75 160.0 L 127.5 160.0 " stroke="black" fill="none" stroke-width="6.0" stroke-linecap="round" stroke-linejoin="round" />
<path d="M 100.0 202.5 L 96.25 205.0 L 96.25 206.25 L 100.0 203.75 L 111.25 195.0 L 123.75 185.0 L 131.25 178.75 L 128.75 181.25 L 118.75 192.5 L 108.75 205.0 L 98.75 221.25 L 91.25 238.75 L 87.5 246.25 L 90.0 245.0 L 103.75 232.5 L 125.0 213.75 L 148.75 190.0 L 172.5 166.25 L 187.5 152.5 L 195.0 150.0 L 196.25 151.25 L 193.75 162.5 L 185.0 185.0 L 173.75 206.25 L 161.25 222.5 L 148.75 236.25 L 140.0 240.0 L 136.25 236.25 L 136.25 235.0 " stroke="black" fill="none" stroke-width="6.0" stroke-linecap="round" stroke-linejoin="round" />
<path d="M 147.5 196.25 L 147.5 196.25 L 147.5 196.25 L 150.0 200.0 L 162.5 211.25 L 185.0 226.25 L 206.25 240.0 L 221.25 248.75 L 230.0 255.0 L 236.25 258.75 L 237.5 262.5 " stroke="black" fill="none" stroke-width="6.0" stroke-linecap="round" stroke-linejoin="round" />
</svg>