<svg xmlns="http://www.w3.org/2000/svg" width="300" height="300" viewBox="0 0 300 300">
<path d="M 127.5 72.5 L 126.25 72.5 L 123.75 72.5 L 125.0 72.5 L 136.25 72.5 L 150.0 76.25 L 162.5 78.75 L 167.5 81.25 L 168.75 82.5 L 157.5 85.0 L 146.25 88.75 L 136.25 92.5 L 128.75 96.25 L 126.25 98.75 L 130.0 98.75 L 141.25 100.0 L 153.75 100.0 L 166.25 100.0 L 172.5 100.0 L 172.5 100.0 L 165.0 101.25 L 156.25 105.0 " stroke="black" fill="none" stroke-width="6.0" stroke-linecap="round" stroke-linejoin="round" />
<path d="M 91.25 133.75 L 91.25 133.75 L 90.0 133.75 L 90.0 133.75 L 106.25 131.25 L 141.25 122.5 L 178.75 113.75 L 203.75 110.0 L 208.75 110.0 L 207.5 111.25 L 200.0 117.5 L 188.75 125.0 L 173.75 131.25 L 166.25 133.75 " stroke="black" fill="none" stroke-width="6.0" stroke-linecap="round" stroke-linejoin="round" />
<path d="M 158.75 122.5 L 158.75 122.5 L 158.75 130.0 L 162.5 148.75 L 167.5 176.25 L 170.0 190.0 L 170.0 198.75 L 163.75 198.75 L 156.25 193.75 L 150.0 183.75 L 143.75 170.0 L 142.5 161.25 " stroke="black" fill="none" stroke-width="6.0" stroke-linecap="round" stroke-linejoin="round" />
<path d="M 153.75 132.5 L 150.0 137.5 L 138.75 151.25 L 120.0 175.0 L 100.0 196.25 L 87.5 205.0 " stroke="black" fill="none" stroke-width="6.0" stroke-linecap="round" stroke-linejoin="round" />
<path d="M 86.25 270.0 L 85.0 271.25 L 82.5 271.25 L 88.75 270.0 L 113.75 257.5 L 157.5 233.75 L 196.25 208.75 L 213.75 195.0 L 217.5 191.25 L 213.75 190.0 L 201.25 196.25 L 186.25 203.75 L 171.25 211.25 L 158.75 216.25 L 153.75 217.5 L 155.0 217.5 L 160.0 215.0 L 163.75 213.75 L 167.5 216.25 L 170.0 231.25 L 171.25 258.75 L 172.5 283.75 L 172.5 296.25 L 171.25 297.5 L 166.25 295.0 L 160.0 287.5 L 155.0 276.25 L 153.75 263.75 " stroke="black" fill="none" stroke-width="6.0" stroke-linecap="round" stroke-linejoin="round" />
<path d="M 163.75 233.75 L 163.75 235.0 L 156.25 242.5 L 146.25 258.75 L 132.5 278.75 L 121.25 292.5 L 117.5 288.75 L 117.5 285.0 " stroke="black" fill="none" stroke-width="6.0" stroke-linecap="round" stroke-linejoin="round" />
<path d="M 172.5 220.0 L 173.75 218.75 L 182.5 221.25 L 200.0 237.5 L 216.25 257.5 L 230.0 267.5 L 241.25 275.0 L 247.5 282.5 L 247.5 283.75 " stroke="black" fill="none" stroke-width="6.0" stroke-linecap="round" stroke-linejoin="round" />
</svg>