<svg xmlns="http://www.w3.org/2000/svg" width="300" height="300" viewBox="0 0 300 300">
<path d="M 66.25 146.25 L 63.75 147.5 L 58.75 150.0 L 60.0 150.0 L 73.75 145.0 L 92.5 135.0 L 115.0 120.0 L 131.25 106.25 L 133.75 100.0 L 127.5 98.75 L 118.75 98.75 L 110.0 98.75 L 103.75 97.5 L 101.25 97.5 L 101.25 97.5 L 101.25 106.25 L 105.0 137.5 L 106.25 190.0 L 106.25 221.25 L 106.25 225.0 L 103.75 226.25 L 101.25 217.5 " stroke="black" fill="none" stroke-width="6.0" stroke-linecap="round" stroke-linejoin="round" />
<path d="M 101.25 145.0 L 100.0 147.5 L 92.5 161.25 L 83.75 182.5 L 72.5 206.25 L 63.75 215.0 L 62.5 208.75 L 65.0 195.0 L 66.25 191.25 " stroke="black" fill="none" stroke-width="6.0" stroke-linecap="round" stroke-linejoin="round" />
<path d="M 96.25 147.5 L 101.25 147.5 L 112.5 152.5 L 127.5 168.75 L 140.0 185.0 L 145.0 190.0 " stroke="black" fill="none" stroke-width="6.0" stroke-linecap="round" stroke-linejoin="round" />
<path d="M 151.25 108.75 L 150.0 115.0 L 151.25 128.75 L 156.25 147.5 L 161.25 155.0 L 165.0 153.75 L 163.75 146.25 L 162.5 137.5 L 158.75 131.25 L 155.0 127.5 L 150.0 125.0 L 148.75 125.0 L 152.5 125.0 L 173.75 123.75 L 203.75 117.5 L 226.25 111.25 L 232.5 111.25 L 226.25 118.75 L 211.25 132.5 L 197.5 143.75 L 186.25 148.75 L 180.0 145.0 " stroke="black" fill="none" stroke-width="6.0" stroke-linecap="round" stroke-linejoin="round" />
<path d="M 190.0 88.75 L 186.25 81.25 L 186.25 80.0 L 186.25 85.0 L 185.0 116.25 L 175.0 176.25 L 161.25 235.0 L 151.25 258.75 L 146.25 261.25 L 143.75 255.0 " stroke="black" fill="none" stroke-width="6.0" stroke-linecap="round" stroke-linejoin="round" />
<path d="M 186.25 153.75 L 186.25 158.75 L 187.5 171.25 L 193.75 198.75 L 200.0 223.75 L 210.0 236.25 L 221.25 238.75 L 235.0 235.0 L 246.25 230.0 L 250.0 226.25 L 250.0 223.75 L 250.0 218.75 L 250.0 205.0 L 248.75 177.5 L 248.75 167.5 " stroke="black" fill="none" stroke-width="6.0" stroke-linecap="round" stroke-linejoin="round" />
</svg>