<svg xmlns="http://www.w3.org/2000/svg" width="300" height="300" viewBox="0 0 300 300">
<path d="M 92.5 86.25 L 92.5 86.25 L 91.25 86.25 L 92.5 86.25 L 100.0 86.25 L 110.0 86.25 L 118.75 86.25 L 118.75 86.25 " stroke="black" fill="none" stroke-width="6.0" stroke-linecap="round" stroke-linejoin="round" />
<path d="M 68.75 131.25 L 68.75 132.5 L 66.25 132.5 L 65.0 133.75 L 73.75 128.75 L 86.25 118.75 L 97.5 111.25 L 102.5 108.75 L 100.0 121.25 L 95.0 142.5 L 91.25 162.5 L 92.5 170.0 L 100.0 163.75 L 113.75 142.5 L 131.25 115.0 L 148.75 90.0 L 158.75 73.75 L 163.75 70.0 L 163.75 73.75 L 156.25 90.0 L 148.75 107.5 L 142.5 126.25 L 140.0 138.75 L 140.0 138.75 " stroke="black" fill="none" stroke-width="6.0" stroke-linecap="round" stroke-linejoin="round" />
<path d="M 152.5 81.25 L 152.5 80.0 L 152.5 78.75 L 161.25 77.5 L 181.25 77.5 L 198.75 87.5 L 203.75 107.5 L 190.0 135.0 L 172.5 152.5 L 156.25 158.75 L 148.75 157.5 " stroke="black" fill="none" stroke-width="6.0" stroke-linecap="round" stroke-linejoin="round" />
<path d="M 150.0 102.5 L 150.0 102.5 L 150.0 103.75 L 148.75 103.75 L 155.0 103.75 L 170.0 103.75 L 186.25 101.25 L 192.5 100.0 L 191.25 100.0 " stroke="black" fill="none" stroke-width="6.0" stroke-linecap="round" stroke-linejoin="round" />
<path d="M 147.5 131.25 L 146.25 132.5 L 146.25 133.75 L 155.0 132.5 L 176.25 126.25 L 181.25 125.0 " stroke="black" fill="none" stroke-width="6.0" stroke-linecap="round" stroke-linejoin="round" />
<path d="M 135.0 181.25 L 135.0 181.25 L 132.5 181.25 L 132.5 181.25 L 137.5 181.25 L 150.0 185.0 L 162.5 190.0 L 167.5 200.0 L 161.25 213.75 L 145.0 227.5 L 125.0 237.5 L 106.25 240.0 L 98.75 235.0 L 102.5 225.0 L 115.0 212.5 L 133.75 205.0 L 148.75 202.5 L 156.25 211.25 L 152.5 231.25 L 140.0 251.25 L 123.75 265.0 L 115.0 272.5 L 117.5 272.5 L 137.5 268.75 L 162.5 258.75 L 190.0 243.75 L 208.75 232.5 L 210.0 230.0 " stroke="black" fill="none" stroke-width="6.0" stroke-linecap="round" stroke-linejoin="round" />
</svg>