<svg xmlns="http://www.w3.org/2000/svg" width="300" height="300" viewBox="0 0 300 300">
<path d="M 65.0 125.0 L 62.5 126.25 L 60.0 127.5 L 71.25 126.25 L 92.5 118.75 L 117.5 106.25 L 136.25 96.25 L 141.25 90.0 L 138.75 86.25 L 130.0 86.25 L 122.5 86.25 L 110.0 86.25 L 103.75 86.25 L 101.25 87.5 L 100.0 93.75 L 100.0 123.75 L 102.5 187.5 L 105.0 241.25 L 106.25 257.5 L 105.0 262.5 L 100.0 261.25 L 98.75 260.0 " stroke="black" fill="none" stroke-width="6.0" stroke-linecap="round" stroke-linejoin="round" />
<path d="M 105.0 146.25 L 98.75 152.5 L 91.25 167.5 L 80.0 187.5 L 70.0 197.5 L 60.0 198.75 L 57.5 195.0 L 57.5 192.5 " stroke="black" fill="none" stroke-width="6.0" stroke-linecap="round" stroke-linejoin="round" />
<path d="M 97.5 152.5 L 100.0 152.5 L 113.75 157.5 L 135.0 171.25 L 147.5 188.75 L 152.5 197.5 L 152.5 200.0 " stroke="black" fill="none" stroke-width="6.0" stroke-linecap="round" stroke-linejoin="round" />
<path d="M 165.0 145.0 L 163.75 146.25 L 162.5 147.5 L 173.75 147.5 L 195.0 141.25 L 217.5 131.25 L 233.75 120.0 L 233.75 113.75 L 226.25 112.5 " stroke="black" fill="none" stroke-width="6.0" stroke-linecap="round" stroke-linejoin="round" />
<path d="M 192.5 102.5 L 192.5 103.75 L 192.5 110.0 L 197.5 135.0 L 198.75 172.5 L 196.25 196.25 L 187.5 206.25 L 175.0 211.25 L 162.5 215.0 L 155.0 215.0 L 153.75 213.75 L 153.75 213.75 L 157.5 212.5 L 166.25 210.0 L 180.0 207.5 L 195.0 206.25 L 210.0 205.0 L 228.75 205.0 L 245.0 206.25 L 256.25 206.25 L 262.5 206.25 L 263.75 205.0 " stroke="black" fill="none" stroke-width="6.0" stroke-linecap="round" stroke-linejoin="round" />
</svg>