<svg xmlns="http://www.w3.org/2000/svg" width="300" height="300" viewBox="0 0 300 300">
<path d="M 67.5 132.5 L 66.25 132.5 L 60.0 132.5 L 57.5 132.5 L 66.25 131.25 L 87.5 127.5 L 113.75 118.75 L 140.0 108.75 L 147.5 102.5 L 147.5 102.5 L 138.75 102.5 L 130.0 105.0 L 122.5 106.25 " stroke="black" fill="none" stroke-width="6.0" stroke-linecap="round" stroke-linejoin="round" />
<path d="M 98.75 120.0 L 96.25 122.5 L 93.75 130.0 L 95.0 146.25 L 98.75 175.0 L 101.25 195.0 L 102.5 198.75 L 102.5 195.0 " stroke="black" fill="none" stroke-width="6.0" stroke-linecap="round" stroke-linejoin="round" />
<path d="M 120.0 123.75 L 120.0 123.75 L 122.5 130.0 L 126.25 145.0 L 128.75 168.75 L 125.0 190.0 L 116.25 198.75 L 115.0 198.75 " stroke="black" fill="none" stroke-width="6.0" stroke-linecap="round" stroke-linejoin="round" />
<path d="M 105.0 133.75 L 105.0 136.25 L 103.75 143.75 L 107.5 157.5 L 112.5 172.5 L 116.25 183.75 L 115.0 188.75 L 108.75 193.75 L 106.25 195.0 L 93.75 201.25 L 87.5 205.0 L 83.75 207.5 L 83.75 207.5 L 86.25 207.5 L 91.25 207.5 L 101.25 205.0 L 115.0 200.0 L 131.25 192.5 L 141.25 186.25 L 146.25 181.25 L 146.25 181.25 L 141.25 181.25 L 136.25 182.5 L 127.5 188.75 L 117.5 200.0 L 105.0 218.75 L 93.75 243.75 L 90.0 253.75 L 90.0 253.75 L 91.25 251.25 " stroke="black" fill="none" stroke-width="6.0" stroke-linecap="round" stroke-linejoin="round" />
<path d="M 123.75 195.0 L 123.75 195.0 L 123.75 195.0 L 126.25 195.0 L 133.75 206.25 L 146.25 225.0 L 155.0 240.0 L 156.25 243.75 " stroke="black" fill="none" stroke-width="6.0" stroke-linecap="round" stroke-linejoin="round" />
<path d="M 165.0 111.25 L 165.0 111.25 L 163.75 112.5 L 165.0 132.5 L 170.0 180.0 L 173.75 213.75 L 175.0 227.5 L 173.75 230.0 L 172.5 221.25 " stroke="black" fill="none" stroke-width="6.0" stroke-linecap="round" stroke-linejoin="round" />
<path d="M 167.5 122.5 L 167.5 121.25 L 167.5 120.0 L 170.0 116.25 L 180.0 111.25 L 192.5 107.5 L 202.5 108.75 L 208.75 121.25 L 212.5 150.0 L 213.75 188.75 L 215.0 218.75 L 216.25 236.25 L 217.5 243.75 L 217.5 246.25 L 217.5 246.25 L 216.25 243.75 L 212.5 236.25 L 207.5 223.75 L 201.25 211.25 L 200.0 207.5 " stroke="black" fill="none" stroke-width="6.0" stroke-linecap="round" stroke-linejoin="round" />
<path d="M 167.5 167.5 L 163.75 166.25 L 161.25 165.0 L 167.5 160.0 L 181.25 151.25 L 196.25 142.5 L 206.25 133.75 L 206.25 132.5 L 202.5 136.25 " stroke="black" fill="none" stroke-width="6.0" stroke-linecap="round" stroke-linejoin="round" />
<path d="M 170.0 193.75 L 170.0 196.25 L 168.75 198.75 L 176.25 197.5 L 193.75 188.75 L 208.75 172.5 L 217.5 157.5 " stroke="black" fill="none" stroke-width="6.0" stroke-linecap="round" stroke-linejoin="round" />
</svg>