<svg xmlns="http://www.w3.org/2000/svg" width="300" height="300" viewBox="0 0 300 300">
<path d="M 63.75 128.75 L 62.5 131.25 L 55.0 136.25 L 55.0 136.25 L 68.75 135.0 L 90.0 125.0 L 110.0 111.25 L 123.75 98.75 L 123.75 95.0 L 112.5 95.0 L 101.25 98.75 L 95.0 100.0 L 90.0 101.25 L 86.25 102.5 L 86.25 102.5 L 86.25 103.75 L 90.0 120.0 L 96.25 162.5 L 98.75 218.75 L 100.0 246.25 L 97.5 250.0 L 97.5 250.0 " stroke="black" fill="none" stroke-width="6.0" stroke-linecap="round" stroke-linejoin="round" />
<path d="M 96.25 158.75 L 93.75 162.5 L 87.5 177.5 L 78.75 198.75 L 66.25 218.75 L 56.25 228.75 L 50.0 225.0 L 50.0 222.5 " stroke="black" fill="none" stroke-width="6.0" stroke-linecap="round" stroke-linejoin="round" />
<path d="M 101.25 147.5 L 105.0 151.25 L 113.75 160.0 L 126.25 175.0 L 138.75 187.5 L 146.25 190.0 L 147.5 190.0 " stroke="black" fill="none" stroke-width="6.0" stroke-linecap="round" stroke-linejoin="round" />
<path d="M 162.5 115.0 L 161.25 117.5 L 161.25 117.5 L 171.25 116.25 L 187.5 113.75 L 205.0 111.25 L 216.25 110.0 L 221.25 112.5 L 216.25 125.0 L 206.25 142.5 L 196.25 156.25 L 187.5 162.5 L 182.5 162.5 " stroke="black" fill="none" stroke-width="6.0" stroke-linecap="round" stroke-linejoin="round" />
<path d="M 186.25 122.5 L 186.25 122.5 L 186.25 125.0 L 186.25 132.5 L 185.0 151.25 L 180.0 171.25 L 172.5 183.75 L 163.75 187.5 L 160.0 187.5 L 160.0 187.5 L 167.5 182.5 L 182.5 173.75 L 196.25 163.75 L 205.0 155.0 L 205.0 151.25 " stroke="black" fill="none" stroke-width="6.0" stroke-linecap="round" stroke-linejoin="round" />
<path d="M 158.75 128.75 L 158.75 130.0 L 155.0 137.5 L 155.0 155.0 L 160.0 187.5 L 168.75 216.25 L 178.75 230.0 L 192.5 238.75 L 205.0 240.0 L 218.75 240.0 L 233.75 238.75 L 246.25 236.25 L 252.5 235.0 L 255.0 233.75 L 255.0 232.5 L 255.0 232.5 L 255.0 230.0 L 255.0 226.25 L 255.0 217.5 L 255.0 196.25 L 253.75 167.5 " stroke="black" fill="none" stroke-width="6.0" stroke-linecap="round" stroke-linejoin="round" />
</svg>