<svg xmlns="http://www.w3.org/2000/svg" width="300" height="300" viewBox="0 0 300 300">
<path d="M 88.75 130.0 L 86.25 130.0 L 81.25 131.25 L 82.5 132.5 L 100.0 132.5 L 135.0 128.75 L 175.0 117.5 L 203.75 106.25 L 207.5 100.0 L 206.25 97.5 L 196.25 96.25 L 182.5 96.25 L 167.5 96.25 L 155.0 96.25 L 147.5 95.0 L 146.25 92.5 L 147.5 92.5 L 148.75 91.25 L 151.25 95.0 L 152.5 113.75 L 152.5 162.5 L 151.25 222.5 L 150.0 253.75 L 150.0 262.5 L 147.5 266.25 L 145.0 266.25 L 141.25 262.5 " stroke="black" fill="none" stroke-width="6.0" stroke-linecap="round" stroke-linejoin="round" />
<path d="M 147.5 151.25 L 143.75 151.25 L 133.75 161.25 L 113.75 185.0 L 90.0 213.75 L 71.25 232.5 L 58.75 236.25 L 57.5 225.0 L 61.25 216.25 " stroke="black" fill="none" stroke-width="6.0" stroke-linecap="round" stroke-linejoin="round" />
<path d="M 145.0 145.0 L 157.5 147.5 L 180.0 156.25 L 207.5 168.75 L 230.0 178.75 L 252.5 185.0 L 247.5 187.5 " stroke="black" fill="none" stroke-width="6.0" stroke-linecap="round" stroke-linejoin="round" />
<path d="M 115.0 217.5 L 113.75 220.0 L 111.25 223.75 L 123.75 221.25 L 150.0 215.0 L 182.5 205.0 L 202.5 197.5 L 206.25 195.0 " stroke="black" fill="none" stroke-width="6.0" stroke-linecap="round" stroke-linejoin="round" />
</svg>