<svg xmlns="http://www.w3.org/2000/svg" width="300" height="300" viewBox="0 0 300 300">
<path d="M 82.5 82.5 L 81.25 82.5 L 77.5 82.5 L 75.0 82.5 L 75.0 82.5 L 82.5 83.75 L 92.5 83.75 L 102.5 81.25 L 107.5 80.0 L 108.75 78.75 " stroke="black" fill="none" stroke-width="6.0" stroke-linecap="round" stroke-linejoin="round" />
<path d="M 71.25 112.5 L 65.0 117.5 L 61.25 118.75 L 62.5 118.75 L 72.5 115.0 L 86.25 107.5 L 96.25 102.5 L 101.25 98.75 L 101.25 100.0 " stroke="black" fill="none" stroke-width="6.0" stroke-linecap="round" stroke-linejoin="round" />
<path d="M 68.75 155.0 L 66.25 157.5 L 65.0 158.75 L 72.5 153.75 L 88.75 140.0 L 110.0 118.75 L 128.75 97.5 " stroke="black" fill="none" stroke-width="6.0" stroke-linecap="round" stroke-linejoin="round" />
<path d="M 176.25 56.25 L 177.5 55.0 L 178.75 56.25 L 171.25 70.0 L 153.75 96.25 L 136.25 121.25 L 125.0 132.5 L 118.75 133.75 L 117.5 126.25 " stroke="black" fill="none" stroke-width="6.0" stroke-linecap="round" stroke-linejoin="round" />
<path d="M 133.75 78.75 L 133.75 75.0 L 133.75 72.5 L 133.75 80.0 L 138.75 96.25 L 146.25 112.5 L 161.25 120.0 L 181.25 115.0 L 200.0 101.25 L 210.0 91.25 L 208.75 88.75 L 205.0 88.75 " stroke="black" fill="none" stroke-width="6.0" stroke-linecap="round" stroke-linejoin="round" />
<path d="M 82.5 208.75 L 75.0 213.75 L 68.75 216.25 L 72.5 216.25 L 88.75 212.5 L 115.0 201.25 L 146.25 183.75 L 172.5 165.0 L 185.0 152.5 L 183.75 151.25 L 173.75 151.25 L 158.75 153.75 L 146.25 158.75 L 133.75 162.5 L 123.75 165.0 L 122.5 165.0 L 123.75 163.75 L 128.75 161.25 L 133.75 160.0 L 137.5 160.0 L 142.5 171.25 L 143.75 195.0 L 143.75 233.75 L 143.75 265.0 L 143.75 281.25 L 143.75 290.0 L 143.75 290.0 L 141.25 285.0 L 137.5 276.25 L 133.75 263.75 " stroke="black" fill="none" stroke-width="6.0" stroke-linecap="round" stroke-linejoin="round" />
<path d="M 143.75 192.5 L 142.5 192.5 L 138.75 195.0 L 128.75 213.75 L 113.75 242.5 L 101.25 260.0 L 90.0 267.5 L 86.25 265.0 L 86.25 256.25 " stroke="black" fill="none" stroke-width="6.0" stroke-linecap="round" stroke-linejoin="round" />
<path d="M 127.5 202.5 L 130.0 202.5 L 135.0 203.75 L 148.75 212.5 L 172.5 226.25 L 196.25 236.25 L 215.0 242.5 L 230.0 250.0 L 241.25 255.0 L 245.0 258.75 L 241.25 260.0 " stroke="black" fill="none" stroke-width="6.0" stroke-linecap="round" stroke-linejoin="round" />
</svg>