<svg xmlns="http://www.w3.org/2000/svg" width="300" height="300" viewBox="0 0 300 300">
<path d="M 97.5 91.25 L 98.75 87.5 L 100.0 85.0 L 106.25 83.75 L 116.25 90.0 L 123.75 103.75 L 128.75 113.75 L 136.25 116.25 L 150.0 103.75 L 168.75 87.5 L 185.0 75.0 L 188.75 71.25 L 178.75 77.5 " stroke="black" fill="none" stroke-width="6.0" stroke-linecap="round" stroke-linejoin="round" />
<path d="M 82.5 195.0 L 78.75 200.0 L 80.0 200.0 L 102.5 190.0 L 146.25 161.25 L 193.75 136.25 L 216.25 120.0 L 223.75 108.75 L 213.75 106.25 L 201.25 106.25 " stroke="black" fill="none" stroke-width="6.0" stroke-linecap="round" stroke-linejoin="round" />
<path d="M 151.25 68.75 L 151.25 66.25 L 151.25 60.0 L 152.5 57.5 L 156.25 70.0 L 163.75 115.0 L 167.5 182.5 L 168.75 238.75 L 170.0 262.5 L 167.5 271.25 L 162.5 273.75 L 156.25 263.75 L 152.5 252.5 L 150.0 243.75 " stroke="black" fill="none" stroke-width="6.0" stroke-linecap="round" stroke-linejoin="round" />
<path d="M 175.0 152.5 L 172.5 152.5 L 163.75 161.25 L 147.5 188.75 L 123.75 218.75 L 105.0 236.25 L 91.25 242.5 L 90.0 231.25 L 90.0 225.0 " stroke="black" fill="none" stroke-width="6.0" stroke-linecap="round" stroke-linejoin="round" />
<path d="M 160.0 158.75 L 172.5 160.0 L 192.5 178.75 L 212.5 205.0 L 233.75 222.5 L 251.25 238.75 L 263.75 250.0 L 265.0 252.5 " stroke="black" fill="none" stroke-width="6.0" stroke-linecap="round" stroke-linejoin="round" />
</svg>