<svg xmlns="http://www.w3.org/2000/svg" width="300" height="300" viewBox="0 0 300 300">
<path d="M 151.25 56.25 L 148.75 58.75 L 140.0 72.5 L 126.25 103.75 L 106.25 147.5 L 90.0 182.5 L 83.75 196.25 L 80.0 196.25 " stroke="black" fill="none" stroke-width="6.0" stroke-linecap="round" stroke-linejoin="round" />
<path d="M 133.75 87.5 L 142.5 88.75 L 157.5 98.75 L 180.0 116.25 L 198.75 133.75 L 212.5 146.25 L 221.25 156.25 L 212.5 161.25 " stroke="black" fill="none" stroke-width="6.0" stroke-linecap="round" stroke-linejoin="round" />
<path d="M 130.0 152.5 L 126.25 152.5 L 123.75 153.75 L 127.5 153.75 L 140.0 153.75 L 153.75 153.75 L 162.5 151.25 L 163.75 151.25 " stroke="black" fill="none" stroke-width="6.0" stroke-linecap="round" stroke-linejoin="round" />
<path d="M 118.75 186.25 L 116.25 187.5 L 113.75 190.0 L 117.5 190.0 L 135.0 188.75 L 153.75 182.5 L 168.75 177.5 L 171.25 176.25 L 161.25 186.25 L 145.0 203.75 L 131.25 221.25 L 126.25 233.75 L 133.75 236.25 L 151.25 231.25 L 173.75 218.75 L 191.25 205.0 L 195.0 198.75 L 190.0 197.5 L 180.0 197.5 L 173.75 197.5 L 171.25 196.25 L 171.25 196.25 L 172.5 196.25 L 181.25 198.75 L 195.0 208.75 L 207.5 221.25 L 215.0 235.0 L 215.0 237.5 " stroke="black" fill="none" stroke-width="6.0" stroke-linecap="round" stroke-linejoin="round" />
</svg>