<svg xmlns="http://www.w3.org/2000/svg" width="300" height="300" viewBox="0 0 300 300">
<path d="M 97.5 145.0 L 96.25 146.25 L 92.5 150.0 L 96.25 148.75 L 117.5 140.0 L 153.75 122.5 L 191.25 105.0 L 207.5 97.5 L 208.75 96.25 L 202.5 95.0 L 191.25 95.0 L 176.25 95.0 L 162.5 95.0 L 151.25 92.5 L 147.5 88.75 L 148.75 86.25 L 151.25 85.0 L 153.75 90.0 L 156.25 121.25 L 156.25 181.25 L 156.25 226.25 L 157.5 240.0 L 157.5 243.75 L 153.75 241.25 L 153.75 236.25 " stroke="black" fill="none" stroke-width="6.0" stroke-linecap="round" stroke-linejoin="round" />
<path d="M 157.5 155.0 L 155.0 157.5 L 146.25 170.0 L 136.25 190.0 L 120.0 212.5 L 105.0 225.0 L 96.25 226.25 L 93.75 218.75 " stroke="black" fill="none" stroke-width="6.0" stroke-linecap="round" stroke-linejoin="round" />
<path d="M 147.5 145.0 L 152.5 146.25 L 166.25 153.75 L 187.5 171.25 L 206.25 192.5 L 221.25 207.5 L 233.75 216.25 L 247.5 226.25 L 253.75 232.5 " stroke="black" fill="none" stroke-width="6.0" stroke-linecap="round" stroke-linejoin="round" />
</svg>