<svg xmlns="http://www.w3.org/2000/svg" width="300" height="300" viewBox="0 0 300 300">
<path d="M 66.25 125.0 L 63.75 127.5 L 58.75 130.0 L 60.0 130.0 L 73.75 123.75 L 91.25 111.25 L 105.0 97.5 L 111.25 91.25 L 107.5 90.0 L 98.75 92.5 L 91.25 95.0 L 86.25 97.5 L 85.0 98.75 L 83.75 100.0 L 86.25 112.5 L 92.5 152.5 L 96.25 203.75 L 96.25 235.0 L 95.0 247.5 L 92.5 247.5 L 90.0 237.5 L 88.75 233.75 " stroke="black" fill="none" stroke-width="6.0" stroke-linecap="round" stroke-linejoin="round" />
<path d="M 91.25 158.75 L 91.25 158.75 L 88.75 162.5 L 80.0 181.25 L 63.75 206.25 L 50.0 223.75 L 43.75 226.25 L 43.75 211.25 L 45.0 206.25 " stroke="black" fill="none" stroke-width="6.0" stroke-linecap="round" stroke-linejoin="round" />
<path d="M 76.25 170.0 L 78.75 168.75 L 86.25 168.75 L 98.75 177.5 L 113.75 190.0 L 132.5 197.5 L 136.25 197.5 " stroke="black" fill="none" stroke-width="6.0" stroke-linecap="round" stroke-linejoin="round" />
<path d="M 138.75 106.25 L 137.5 106.25 L 136.25 106.25 L 138.75 107.5 L 148.75 108.75 L 158.75 108.75 L 171.25 106.25 L 173.75 103.75 L 167.5 108.75 L 156.25 132.5 L 147.5 167.5 L 145.0 196.25 L 146.25 200.0 L 150.0 197.5 L 157.5 187.5 L 166.25 173.75 L 172.5 161.25 L 176.25 152.5 L 176.25 147.5 L 173.75 145.0 L 171.25 143.75 L 171.25 143.75 L 171.25 150.0 L 171.25 170.0 L 172.5 195.0 L 168.75 216.25 L 161.25 226.25 L 153.75 225.0 " stroke="black" fill="none" stroke-width="6.0" stroke-linecap="round" stroke-linejoin="round" />
<path d="M 200.0 111.25 L 200.0 111.25 L 200.0 111.25 L 201.25 110.0 L 208.75 107.5 L 226.25 105.0 L 243.75 103.75 L 253.75 105.0 L 253.75 118.75 L 242.5 141.25 L 230.0 162.5 L 218.75 176.25 L 212.5 178.75 L 211.25 171.25 L 211.25 157.5 L 212.5 147.5 L 212.5 136.25 L 211.25 126.25 L 210.0 121.25 L 208.75 121.25 L 208.75 135.0 L 210.0 162.5 L 211.25 198.75 L 212.5 232.5 L 211.25 255.0 L 211.25 265.0 L 207.5 266.25 L 201.25 263.75 " stroke="black" fill="none" stroke-width="6.0" stroke-linecap="round" stroke-linejoin="round" />
</svg>