<svg xmlns="http://www.w3.org/2000/svg" width="300" height="300" viewBox="0 0 300 300">
<path d="M 81.25 128.75 L 75.0 131.25 L 71.25 133.75 L 72.5 133.75 L 85.0 127.5 L 106.25 111.25 L 126.25 96.25 L 136.25 87.5 L 131.25 87.5 L 120.0 90.0 L 110.0 91.25 L 102.5 92.5 L 98.75 92.5 L 97.5 91.25 L 97.5 91.25 L 101.25 97.5 L 106.25 126.25 L 113.75 180.0 L 116.25 217.5 L 117.5 231.25 L 116.25 236.25 L 108.75 236.25 " stroke="black" fill="none" stroke-width="6.0" stroke-linecap="round" stroke-linejoin="round" />
<path d="M 107.5 147.5 L 100.0 157.5 L 90.0 178.75 L 77.5 202.5 L 65.0 215.0 L 58.75 213.75 L 58.75 203.75 " stroke="black" fill="none" stroke-width="6.0" stroke-linecap="round" stroke-linejoin="round" />
<path d="M 98.75 156.25 L 100.0 156.25 L 111.25 155.0 L 128.75 163.75 L 146.25 178.75 L 153.75 187.5 " stroke="black" fill="none" stroke-width="6.0" stroke-linecap="round" stroke-linejoin="round" />
<path d="M 155.0 146.25 L 151.25 147.5 L 148.75 148.75 L 148.75 148.75 L 158.75 147.5 L 172.5 143.75 L 183.75 141.25 L 185.0 143.75 L 175.0 157.5 L 161.25 181.25 L 151.25 201.25 L 148.75 205.0 L 151.25 201.25 L 161.25 186.25 L 172.5 165.0 L 183.75 143.75 L 187.5 123.75 L 186.25 108.75 L 183.75 100.0 L 182.5 100.0 L 182.5 103.75 L 187.5 127.5 L 190.0 167.5 L 188.75 210.0 L 178.75 237.5 L 167.5 246.25 L 157.5 241.25 " stroke="black" fill="none" stroke-width="6.0" stroke-linecap="round" stroke-linejoin="round" />
<path d="M 207.5 103.75 L 208.75 106.25 L 211.25 125.0 L 217.5 168.75 L 228.75 210.0 L 246.25 231.25 L 262.5 245.0 L 278.75 248.75 L 290.0 243.75 L 286.25 238.75 L 278.75 235.0 " stroke="black" fill="none" stroke-width="6.0" stroke-linecap="round" stroke-linejoin="round" />
<path d="M 261.25 116.25 L 261.25 115.0 L 258.75 115.0 L 251.25 130.0 L 238.75 148.75 L 217.5 170.0 L 210.0 172.5 L 210.0 172.5 L 213.75 171.25 L 228.75 175.0 L 248.75 182.5 L 268.75 192.5 L 288.75 197.5 L 291.25 198.75 " stroke="black" fill="none" stroke-width="6.0" stroke-linecap="round" stroke-linejoin="round" />
</svg>