<svg xmlns="http://www.w3.org/2000/svg" width="300" height="300" viewBox="0 0 300 300">
<path d="M 148.75 72.5 L 147.5 68.75 L 147.5 67.5 L 147.5 67.5 L 151.25 71.25 L 153.75 78.75 L 155.0 86.25 L 155.0 91.25 " stroke="black" fill="none" stroke-width="6.0" stroke-linecap="round" stroke-linejoin="round" />
<path d="M 111.25 72.5 L 111.25 72.5 L 111.25 72.5 L 113.75 75.0 L 121.25 86.25 L 131.25 97.5 L 133.75 100.0 " stroke="black" fill="none" stroke-width="6.0" stroke-linecap="round" stroke-linejoin="round" />
<path d="M 197.5 68.75 L 197.5 68.75 L 197.5 67.5 L 193.75 70.0 L 182.5 81.25 L 165.0 97.5 L 153.75 103.75 " stroke="black" fill="none" stroke-width="6.0" stroke-linecap="round" stroke-linejoin="round" />
<path d="M 112.5 97.5 L 111.25 97.5 L 107.5 101.25 L 103.75 115.0 L 98.75 146.25 L 93.75 172.5 L 92.5 185.0 L 91.25 185.0 L 91.25 182.5 " stroke="black" fill="none" stroke-width="6.0" stroke-linecap="round" stroke-linejoin="round" />
<path d="M 98.75 125.0 L 98.75 123.75 L 108.75 122.5 L 140.0 121.25 L 177.5 117.5 L 208.75 113.75 L 218.75 113.75 L 217.5 115.0 L 205.0 123.75 L 188.75 133.75 L 175.0 137.5 " stroke="black" fill="none" stroke-width="6.0" stroke-linecap="round" stroke-linejoin="round" />
<path d="M 132.5 140.0 L 131.25 140.0 L 130.0 141.25 L 132.5 148.75 L 136.25 160.0 L 143.75 176.25 L 146.25 181.25 L 145.0 177.5 L 142.5 167.5 L 138.75 157.5 L 136.25 150.0 L 133.75 145.0 L 135.0 142.5 L 145.0 141.25 L 160.0 141.25 L 175.0 141.25 L 181.25 143.75 L 175.0 151.25 L 162.5 158.75 L 150.0 166.25 L 142.5 168.75 L 141.25 170.0 L 147.5 167.5 L 160.0 160.0 L 175.0 151.25 L 183.75 146.25 L 178.75 148.75 " stroke="black" fill="none" stroke-width="6.0" stroke-linecap="round" stroke-linejoin="round" />
<path d="M 95.0 220.0 L 88.75 226.25 L 90.0 227.5 L 108.75 221.25 L 142.5 205.0 L 178.75 183.75 L 203.75 167.5 L 207.5 161.25 L 202.5 161.25 L 191.25 166.25 L 177.5 168.75 L 162.5 170.0 L 152.5 170.0 L 151.25 170.0 L 152.5 170.0 L 156.25 178.75 L 160.0 200.0 L 162.5 230.0 L 162.5 253.75 L 162.5 261.25 L 158.75 262.5 L 152.5 258.75 L 147.5 252.5 L 143.75 243.75 L 142.5 241.25 " stroke="black" fill="none" stroke-width="6.0" stroke-linecap="round" stroke-linejoin="round" />
<path d="M 151.25 203.75 L 148.75 206.25 L 138.75 216.25 L 125.0 233.75 L 110.0 250.0 L 100.0 255.0 L 97.5 252.5 L 97.5 248.75 " stroke="black" fill="none" stroke-width="6.0" stroke-linecap="round" stroke-linejoin="round" />
<path d="M 152.5 192.5 L 155.0 192.5 L 166.25 198.75 L 186.25 211.25 L 207.5 225.0 L 223.75 235.0 L 236.25 242.5 L 247.5 247.5 L 251.25 250.0 L 252.5 251.25 L 252.5 251.25 " stroke="black" fill="none" stroke-width="6.0" stroke-linecap="round" stroke-linejoin="round" />
</svg>