<svg xmlns="http://www.w3.org/2000/svg" width="300" height="300" viewBox="0 0 300 300">
<path d="M 83.75 122.5 L 75.0 126.25 L 70.0 127.5 L 71.25 127.5 L 82.5 126.25 L 101.25 118.75 L 121.25 107.5 L 135.0 97.5 L 138.75 92.5 L 136.25 92.5 L 131.25 91.25 L 126.25 91.25 L 122.5 90.0 L 118.75 90.0 L 116.25 90.0 L 113.75 90.0 L 112.5 100.0 L 116.25 136.25 L 122.5 193.75 L 123.75 220.0 L 123.75 228.75 L 121.25 233.75 L 116.25 235.0 L 112.5 230.0 L 107.5 220.0 L 106.25 215.0 " stroke="black" fill="none" stroke-width="6.0" stroke-linecap="round" stroke-linejoin="round" />
<path d="M 113.75 152.5 L 110.0 153.75 L 102.5 161.25 L 95.0 180.0 L 86.25 201.25 L 78.75 213.75 L 73.75 215.0 L 73.75 211.25 " stroke="black" fill="none" stroke-width="6.0" stroke-linecap="round" stroke-linejoin="round" />
<path d="M 108.75 146.25 L 108.75 146.25 L 110.0 145.0 L 121.25 148.75 L 140.0 162.5 L 156.25 186.25 " stroke="black" fill="none" stroke-width="6.0" stroke-linecap="round" stroke-linejoin="round" />
<path d="M 156.25 111.25 L 153.75 112.5 L 150.0 113.75 L 151.25 113.75 L 166.25 107.5 L 185.0 98.75 L 200.0 90.0 L 206.25 83.75 L 202.5 82.5 L 193.75 86.25 L 183.75 87.5 L 173.75 87.5 L 167.5 87.5 L 165.0 86.25 L 167.5 86.25 L 175.0 90.0 L 182.5 101.25 L 185.0 118.75 L 180.0 137.5 L 168.75 150.0 L 158.75 153.75 L 155.0 155.0 L 156.25 155.0 L 166.25 152.5 L 180.0 146.25 L 195.0 137.5 L 205.0 128.75 L 207.5 123.75 L 203.75 126.25 L 201.25 128.75 " stroke="black" fill="none" stroke-width="6.0" stroke-linecap="round" stroke-linejoin="round" />
<path d="M 160.0 202.5 L 160.0 202.5 L 163.75 201.25 L 182.5 191.25 L 205.0 172.5 L 212.5 160.0 L 208.75 157.5 L 202.5 157.5 L 195.0 157.5 L 186.25 157.5 L 180.0 157.5 L 178.75 157.5 L 182.5 162.5 L 190.0 173.75 L 196.25 190.0 L 198.75 207.5 L 192.5 223.75 L 183.75 232.5 L 172.5 237.5 L 166.25 240.0 L 165.0 241.25 L 165.0 240.0 L 166.25 240.0 L 168.75 237.5 L 171.25 236.25 L 173.75 233.75 L 175.0 232.5 L 175.0 232.5 L 176.25 231.25 L 176.25 231.25 L 176.25 231.25 L 176.25 231.25 L 176.25 231.25 L 178.75 231.25 L 188.75 230.0 L 205.0 225.0 L 221.25 218.75 L 230.0 216.25 L 228.75 216.25 " stroke="black" fill="none" stroke-width="6.0" stroke-linecap="round" stroke-linejoin="round" />
</svg>