<svg xmlns="http://www.w3.org/2000/svg" width="300" height="300" viewBox="0 0 300 300">
<path d="M 52.5 137.5 L 52.5 140.0 L 53.75 141.25 L 67.5 136.25 L 90.0 122.5 L 110.0 107.5 L 120.0 98.75 L 121.25 95.0 L 112.5 92.5 L 103.75 91.25 L 96.25 90.0 L 90.0 87.5 L 87.5 85.0 L 87.5 85.0 L 90.0 92.5 L 93.75 123.75 L 96.25 177.5 L 97.5 220.0 L 97.5 240.0 L 96.25 246.25 L 93.75 242.5 L 91.25 237.5 " stroke="black" fill="none" stroke-width="6.0" stroke-linecap="round" stroke-linejoin="round" />
<path d="M 92.5 152.5 L 81.25 171.25 L 68.75 193.75 L 55.0 210.0 L 47.5 215.0 L 43.75 212.5 L 43.75 207.5 " stroke="black" fill="none" stroke-width="6.0" stroke-linecap="round" stroke-linejoin="round" />
<path d="M 85.0 148.75 L 91.25 148.75 L 100.0 158.75 L 116.25 180.0 L 133.75 196.25 L 142.5 202.5 L 143.75 203.75 " stroke="black" fill="none" stroke-width="6.0" stroke-linecap="round" stroke-linejoin="round" />
<path d="M 153.75 96.25 L 150.0 100.0 L 147.5 100.0 L 152.5 100.0 L 171.25 93.75 L 195.0 85.0 L 215.0 73.75 L 220.0 70.0 L 213.75 73.75 L 207.5 78.75 " stroke="black" fill="none" stroke-width="6.0" stroke-linecap="round" stroke-linejoin="round" />
<path d="M 155.0 125.0 L 153.75 130.0 L 152.5 143.75 L 152.5 170.0 L 155.0 197.5 L 158.75 206.25 L 161.25 205.0 L 161.25 197.5 L 161.25 196.25 " stroke="black" fill="none" stroke-width="6.0" stroke-linecap="round" stroke-linejoin="round" />
<path d="M 156.25 145.0 L 156.25 142.5 L 155.0 140.0 L 156.25 136.25 L 167.5 130.0 L 188.75 122.5 L 207.5 117.5 L 217.5 121.25 L 221.25 138.75 L 220.0 160.0 L 213.75 182.5 L 208.75 193.75 L 203.75 195.0 L 200.0 192.5 " stroke="black" fill="none" stroke-width="6.0" stroke-linecap="round" stroke-linejoin="round" />
<path d="M 162.5 161.25 L 162.5 161.25 L 161.25 162.5 L 163.75 161.25 L 177.5 155.0 L 197.5 146.25 L 213.75 140.0 L 216.25 138.75 L 213.75 138.75 " stroke="black" fill="none" stroke-width="6.0" stroke-linecap="round" stroke-linejoin="round" />
<path d="M 165.0 192.5 L 163.75 195.0 L 160.0 200.0 L 161.25 201.25 L 176.25 200.0 L 198.75 191.25 L 217.5 183.75 L 227.5 181.25 L 227.5 181.25 " stroke="black" fill="none" stroke-width="6.0" stroke-linecap="round" stroke-linejoin="round" />
<path d="M 153.75 240.0 L 150.0 240.0 L 147.5 240.0 L 150.0 240.0 L 170.0 240.0 L 198.75 240.0 L 230.0 238.75 L 252.5 238.75 L 256.25 238.75 L 256.25 238.75 L 251.25 241.25 " stroke="black" fill="none" stroke-width="6.0" stroke-linecap="round" stroke-linejoin="round" />
</svg>