<svg xmlns="http://www.w3.org/2000/svg" width="300" height="300" viewBox="0 0 300 300">
<path d="M 53.75 152.5 L 53.75 152.5 L 55.0 152.5 L 70.0 146.25 L 95.0 131.25 L 113.75 116.25 L 122.5 106.25 L 118.75 102.5 L 107.5 103.75 L 97.5 103.75 L 91.25 105.0 L 86.25 103.75 L 86.25 102.5 L 87.5 102.5 L 92.5 118.75 L 98.75 156.25 L 102.5 206.25 L 102.5 233.75 L 100.0 246.25 L 98.75 246.25 " stroke="black" fill="none" stroke-width="6.0" stroke-linecap="round" stroke-linejoin="round" />
<path d="M 96.25 160.0 L 91.25 171.25 L 83.75 192.5 L 71.25 221.25 L 61.25 240.0 L 55.0 242.5 L 53.75 238.75 " stroke="black" fill="none" stroke-width="6.0" stroke-linecap="round" stroke-linejoin="round" />
<path d="M 100.0 156.25 L 100.0 156.25 L 105.0 166.25 L 117.5 187.5 L 133.75 200.0 L 135.0 200.0 " stroke="black" fill="none" stroke-width="6.0" stroke-linecap="round" stroke-linejoin="round" />
<path d="M 147.5 102.5 L 142.5 103.75 L 138.75 105.0 L 137.5 105.0 L 147.5 101.25 L 166.25 95.0 L 186.25 87.5 L 200.0 83.75 L 203.75 83.75 L 200.0 88.75 L 190.0 107.5 L 180.0 138.75 L 173.75 165.0 L 172.5 175.0 L 172.5 176.25 " stroke="black" fill="none" stroke-width="6.0" stroke-linecap="round" stroke-linejoin="round" />
<path d="M 148.75 140.0 L 147.5 141.25 L 147.5 142.5 L 151.25 141.25 L 171.25 136.25 L 197.5 128.75 L 216.25 127.5 L 221.25 135.0 L 213.75 150.0 L 198.75 167.5 L 181.25 180.0 L 160.0 190.0 L 145.0 192.5 L 142.5 192.5 L 142.5 192.5 L 147.5 192.5 L 160.0 191.25 L 181.25 186.25 L 208.75 177.5 L 233.75 167.5 L 247.5 160.0 L 245.0 160.0 L 241.25 161.25 " stroke="black" fill="none" stroke-width="6.0" stroke-linecap="round" stroke-linejoin="round" />
<path d="M 152.5 220.0 L 151.25 220.0 L 148.75 223.75 L 150.0 233.75 L 156.25 251.25 L 166.25 262.5 L 173.75 265.0 L 175.0 260.0 L 170.0 252.5 L 163.75 247.5 L 155.0 242.5 L 147.5 238.75 L 146.25 235.0 L 156.25 228.75 L 183.75 220.0 L 212.5 211.25 L 230.0 208.75 L 231.25 212.5 L 216.25 227.5 L 197.5 247.5 L 176.25 263.75 L 165.0 273.75 L 168.75 273.75 L 188.75 265.0 L 211.25 251.25 L 231.25 235.0 L 235.0 231.25 " stroke="black" fill="none" stroke-width="6.0" stroke-linecap="round" stroke-linejoin="round" />
</svg>