<svg xmlns="http://www.w3.org/2000/svg" width="300" height="300" viewBox="0 0 300 300">
<path d="M 97.5 87.5 L 95.0 87.5 L 92.5 87.5 L 97.5 87.5 L 120.0 83.75 L 151.25 73.75 L 176.25 63.75 L 187.5 57.5 L 185.0 57.5 L 171.25 61.25 L 161.25 63.75 " stroke="black" fill="none" stroke-width="6.0" stroke-linecap="round" stroke-linejoin="round" />
<path d="M 131.25 73.75 L 128.75 75.0 L 128.75 81.25 L 128.75 93.75 L 128.75 112.5 L 131.25 120.0 L 135.0 121.25 L 145.0 111.25 L 153.75 98.75 L 160.0 90.0 L 163.75 83.75 L 163.75 83.75 L 162.5 83.75 L 162.5 86.25 L 162.5 88.75 L 167.5 93.75 L 172.5 100.0 L 173.75 106.25 L 173.75 110.0 " stroke="black" fill="none" stroke-width="6.0" stroke-linecap="round" stroke-linejoin="round" />
<path d="M 60.0 167.5 L 57.5 168.75 L 56.25 168.75 L 70.0 167.5 L 101.25 157.5 L 136.25 145.0 L 182.5 126.25 L 200.0 116.25 L 202.5 113.75 L 201.25 113.75 " stroke="black" fill="none" stroke-width="6.0" stroke-linecap="round" stroke-linejoin="round" />
<path d="M 112.5 145.0 L 112.5 146.25 L 111.25 151.25 L 115.0 163.75 L 122.5 176.25 L 133.75 183.75 L 142.5 181.25 L 147.5 170.0 L 148.75 158.75 L 151.25 148.75 L 153.75 138.75 L 158.75 132.5 L 167.5 130.0 L 175.0 132.5 L 181.25 141.25 L 180.0 152.5 L 172.5 165.0 L 158.75 177.5 " stroke="black" fill="none" stroke-width="6.0" stroke-linecap="round" stroke-linejoin="round" />
<path d="M 75.0 218.75 L 70.0 222.5 L 68.75 222.5 L 83.75 217.5 L 113.75 203.75 L 160.0 181.25 L 195.0 162.5 L 206.25 153.75 L 206.25 150.0 " stroke="black" fill="none" stroke-width="6.0" stroke-linecap="round" stroke-linejoin="round" />
<path d="M 148.75 136.25 L 147.5 136.25 L 147.5 137.5 L 147.5 143.75 L 150.0 165.0 L 153.75 200.0 L 155.0 230.0 L 155.0 250.0 L 153.75 256.25 L 150.0 257.5 L 143.75 257.5 L 136.25 252.5 L 130.0 247.5 " stroke="black" fill="none" stroke-width="6.0" stroke-linecap="round" stroke-linejoin="round" />
<path d="M 151.25 192.5 L 145.0 201.25 L 135.0 217.5 L 120.0 237.5 L 106.25 252.5 L 96.25 257.5 L 92.5 255.0 " stroke="black" fill="none" stroke-width="6.0" stroke-linecap="round" stroke-linejoin="round" />
<path d="M 150.0 190.0 L 152.5 190.0 L 157.5 193.75 L 172.5 206.25 L 195.0 222.5 L 215.0 241.25 L 230.0 255.0 L 241.25 263.75 L 246.25 270.0 L 247.5 276.25 L 245.0 280.0 " stroke="black" fill="none" stroke-width="6.0" stroke-linecap="round" stroke-linejoin="round" />
</svg>