<svg xmlns="http://www.w3.org/2000/svg" width="300" height="300" viewBox="0 0 300 300">
<path d="M 87.5 103.75 L 87.5 105.0 L 86.25 106.25 L 85.0 112.5 L 82.5 132.5 L 72.5 161.25 L 60.0 183.75 L 50.0 188.75 L 47.5 185.0 L 48.75 175.0 L 50.0 172.5 " stroke="black" fill="none" stroke-width="6.0" stroke-linecap="round" stroke-linejoin="round" />
<path d="M 81.25 141.25 L 81.25 146.25 L 81.25 153.75 L 83.75 175.0 L 86.25 210.0 L 82.5 242.5 L 76.25 256.25 L 71.25 257.5 " stroke="black" fill="none" stroke-width="6.0" stroke-linecap="round" stroke-linejoin="round" />
<path d="M 112.5 141.25 L 112.5 141.25 L 111.25 141.25 L 111.25 143.75 L 113.75 155.0 L 116.25 175.0 L 117.5 193.75 " stroke="black" fill="none" stroke-width="6.0" stroke-linecap="round" stroke-linejoin="round" />
<path d="M 168.75 71.25 L 168.75 71.25 L 168.75 76.25 L 168.75 85.0 L 170.0 93.75 L 175.0 98.75 L 183.75 96.25 L 193.75 87.5 L 201.25 80.0 L 205.0 76.25 L 206.25 77.5 L 200.0 90.0 L 186.25 111.25 L 163.75 140.0 L 142.5 161.25 L 133.75 165.0 L 131.25 163.75 " stroke="black" fill="none" stroke-width="6.0" stroke-linecap="round" stroke-linejoin="round" />
<path d="M 151.25 120.0 L 152.5 120.0 L 155.0 122.5 L 171.25 127.5 L 197.5 133.75 L 221.25 136.25 L 235.0 135.0 L 236.25 135.0 " stroke="black" fill="none" stroke-width="6.0" stroke-linecap="round" stroke-linejoin="round" />
<path d="M 148.75 183.75 L 147.5 186.25 L 146.25 188.75 L 160.0 185.0 L 187.5 171.25 L 216.25 155.0 L 228.75 145.0 L 228.75 140.0 L 217.5 141.25 L 206.25 143.75 L 197.5 147.5 L 191.25 148.75 L 190.0 151.25 L 191.25 161.25 L 197.5 187.5 L 201.25 220.0 L 202.5 243.75 L 202.5 248.75 L 200.0 248.75 L 193.75 246.25 L 186.25 241.25 L 173.75 235.0 L 166.25 231.25 " stroke="black" fill="none" stroke-width="6.0" stroke-linecap="round" stroke-linejoin="round" />
<path d="M 152.5 198.75 L 152.5 200.0 L 151.25 206.25 L 153.75 216.25 L 158.75 228.75 L 167.5 242.5 L 172.5 246.25 " stroke="black" fill="none" stroke-width="6.0" stroke-linecap="round" stroke-linejoin="round" />
<path d="M 240.0 191.25 L 240.0 193.75 L 242.5 200.0 L 248.75 210.0 L 257.5 225.0 L 262.5 236.25 L 263.75 242.5 " stroke="black" fill="none" stroke-width="6.0" stroke-linecap="round" stroke-linejoin="round" />
</svg>