<svg xmlns="http://www.w3.org/2000/svg" width="300" height="300" viewBox="0 0 300 300">
<path d="M 101.25 90.0 L 101.25 91.25 L 100.0 91.25 L 105.0 91.25 L 127.5 90.0 L 157.5 81.25 L 177.5 71.25 L 182.5 67.5 L 177.5 67.5 L 162.5 67.5 L 151.25 67.5 L 140.0 67.5 L 130.0 68.75 L 122.5 72.5 L 120.0 80.0 L 120.0 92.5 L 123.75 108.75 L 127.5 118.75 L 128.75 118.75 " stroke="black" fill="none" stroke-width="6.0" stroke-linecap="round" stroke-linejoin="round" />
<path d="M 153.75 68.75 L 153.75 68.75 L 153.75 70.0 L 152.5 82.5 L 146.25 102.5 L 140.0 116.25 " stroke="black" fill="none" stroke-width="6.0" stroke-linecap="round" stroke-linejoin="round" />
<path d="M 95.0 132.5 L 95.0 133.75 L 95.0 140.0 L 96.25 156.25 L 96.25 171.25 L 97.5 178.75 L 96.25 176.25 " stroke="black" fill="none" stroke-width="6.0" stroke-linecap="round" stroke-linejoin="round" />
<path d="M 93.75 150.0 L 93.75 147.5 L 93.75 146.25 L 105.0 143.75 L 133.75 140.0 L 167.5 133.75 L 187.5 131.25 L 192.5 132.5 L 186.25 137.5 L 171.25 147.5 L 155.0 157.5 L 137.5 167.5 L 127.5 172.5 " stroke="black" fill="none" stroke-width="6.0" stroke-linecap="round" stroke-linejoin="round" />
<path d="M 72.5 213.75 L 71.25 215.0 L 66.25 220.0 L 72.5 220.0 L 93.75 212.5 L 126.25 200.0 L 162.5 183.75 L 186.25 171.25 L 192.5 166.25 L 186.25 165.0 L 180.0 165.0 " stroke="black" fill="none" stroke-width="6.0" stroke-linecap="round" stroke-linejoin="round" />
<path d="M 142.5 160.0 L 141.25 160.0 L 140.0 160.0 L 140.0 167.5 L 142.5 197.5 L 143.75 235.0 L 143.75 260.0 L 141.25 267.5 L 137.5 268.75 L 131.25 263.75 L 126.25 253.75 L 126.25 247.5 " stroke="black" fill="none" stroke-width="6.0" stroke-linecap="round" stroke-linejoin="round" />
<path d="M 140.0 201.25 L 137.5 203.75 L 126.25 215.0 L 112.5 232.5 L 97.5 250.0 L 86.25 258.75 L 81.25 256.25 L 81.25 253.75 " stroke="black" fill="none" stroke-width="6.0" stroke-linecap="round" stroke-linejoin="round" />
<path d="M 133.75 192.5 L 141.25 192.5 L 156.25 201.25 L 177.5 217.5 L 197.5 232.5 L 213.75 243.75 L 223.75 250.0 L 230.0 255.0 L 230.0 256.25 L 227.5 256.25 " stroke="black" fill="none" stroke-width="6.0" stroke-linecap="round" stroke-linejoin="round" />
</svg>