<svg xmlns="http://www.w3.org/2000/svg" width="300" height="300" viewBox="0 0 300 300">
<path d="M 78.75 105.0 L 77.5 105.0 L 77.5 105.0 L 86.25 102.5 L 103.75 96.25 L 122.5 90.0 L 130.0 86.25 L 128.75 85.0 " stroke="black" fill="none" stroke-width="6.0" stroke-linecap="round" stroke-linejoin="round" />
<path d="M 105.0 85.0 L 105.0 85.0 L 105.0 87.5 L 103.75 97.5 L 103.75 121.25 L 103.75 145.0 L 105.0 153.75 L 102.5 151.25 " stroke="black" fill="none" stroke-width="6.0" stroke-linecap="round" stroke-linejoin="round" />
<path d="M 106.25 106.25 L 106.25 106.25 L 105.0 107.5 L 98.75 118.75 L 88.75 142.5 L 80.0 157.5 L 75.0 158.75 L 75.0 156.25 " stroke="black" fill="none" stroke-width="6.0" stroke-linecap="round" stroke-linejoin="round" />
<path d="M 101.25 111.25 L 101.25 111.25 L 101.25 111.25 L 106.25 115.0 L 120.0 127.5 L 140.0 140.0 L 142.5 141.25 " stroke="black" fill="none" stroke-width="6.0" stroke-linecap="round" stroke-linejoin="round" />
<path d="M 143.75 92.5 L 140.0 95.0 L 140.0 96.25 L 147.5 96.25 L 163.75 92.5 L 186.25 83.75 L 201.25 75.0 L 205.0 70.0 L 200.0 70.0 L 191.25 70.0 L 183.75 70.0 L 180.0 71.25 L 177.5 72.5 L 177.5 81.25 L 178.75 100.0 L 180.0 122.5 L 180.0 138.75 L 177.5 143.75 L 173.75 141.25 L 172.5 135.0 " stroke="black" fill="none" stroke-width="6.0" stroke-linecap="round" stroke-linejoin="round" />
<path d="M 191.25 86.25 L 190.0 86.25 L 183.75 90.0 L 171.25 106.25 L 153.75 132.5 L 145.0 145.0 L 142.5 143.75 " stroke="black" fill="none" stroke-width="6.0" stroke-linecap="round" stroke-linejoin="round" />
<path d="M 181.25 95.0 L 182.5 95.0 L 186.25 95.0 L 193.75 100.0 L 206.25 111.25 L 216.25 123.75 L 216.25 125.0 " stroke="black" fill="none" stroke-width="6.0" stroke-linecap="round" stroke-linejoin="round" />
<path d="M 98.75 161.25 L 96.25 163.75 L 93.75 165.0 L 102.5 166.25 L 128.75 163.75 L 161.25 157.5 L 191.25 152.5 L 203.75 152.5 L 203.75 157.5 L 195.0 166.25 L 178.75 177.5 L 162.5 183.75 L 150.0 185.0 " stroke="black" fill="none" stroke-width="6.0" stroke-linecap="round" stroke-linejoin="round" />
<path d="M 152.5 163.75 L 152.5 163.75 L 152.5 162.5 L 151.25 162.5 L 151.25 171.25 L 151.25 193.75 L 151.25 212.5 L 151.25 221.25 L 151.25 217.5 " stroke="black" fill="none" stroke-width="6.0" stroke-linecap="round" stroke-linejoin="round" />
<path d="M 155.0 198.75 L 155.0 197.5 L 153.75 195.0 L 153.75 193.75 L 156.25 192.5 L 167.5 188.75 L 181.25 183.75 L 186.25 178.75 L 186.25 178.75 " stroke="black" fill="none" stroke-width="6.0" stroke-linecap="round" stroke-linejoin="round" />
<path d="M 117.5 176.25 L 117.5 183.75 L 115.0 200.0 L 108.75 227.5 L 101.25 248.75 L 97.5 255.0 L 93.75 255.0 L 92.5 252.5 " stroke="black" fill="none" stroke-width="6.0" stroke-linecap="round" stroke-linejoin="round" />
<path d="M 106.25 208.75 L 106.25 208.75 L 106.25 208.75 L 110.0 210.0 L 121.25 213.75 L 137.5 222.5 L 153.75 232.5 L 170.0 242.5 L 186.25 250.0 L 200.0 255.0 L 217.5 258.75 L 240.0 261.25 L 258.75 262.5 L 267.5 262.5 L 268.75 262.5 " stroke="black" fill="none" stroke-width="6.0" stroke-linecap="round" stroke-linejoin="round" />
</svg>