<svg xmlns="http://www.w3.org/2000/svg" width="300" height="300" viewBox="0 0 300 300">
<path d="M 52.5 132.5 L 45.0 137.5 L 43.75 137.5 L 55.0 136.25 L 76.25 128.75 L 98.75 115.0 L 118.75 102.5 L 126.25 96.25 L 122.5 95.0 L 111.25 96.25 L 100.0 98.75 L 92.5 100.0 L 88.75 100.0 L 87.5 100.0 L 88.75 103.75 L 91.25 125.0 L 92.5 173.75 L 92.5 217.5 L 91.25 235.0 L 91.25 240.0 L 90.0 241.25 L 86.25 236.25 " stroke="black" fill="none" stroke-width="6.0" stroke-linecap="round" stroke-linejoin="round" />
<path d="M 91.25 148.75 L 80.0 165.0 L 68.75 185.0 L 56.25 203.75 L 50.0 208.75 L 47.5 205.0 L 47.5 198.75 " stroke="black" fill="none" stroke-width="6.0" stroke-linecap="round" stroke-linejoin="round" />
<path d="M 88.75 145.0 L 93.75 143.75 L 102.5 148.75 L 113.75 162.5 L 127.5 177.5 L 138.75 186.25 L 140.0 186.25 " stroke="black" fill="none" stroke-width="6.0" stroke-linecap="round" stroke-linejoin="round" />
<path d="M 161.25 78.75 L 153.75 80.0 L 150.0 81.25 L 150.0 81.25 L 157.5 82.5 L 171.25 82.5 L 186.25 82.5 L 197.5 82.5 L 203.75 81.25 L 203.75 82.5 L 195.0 91.25 L 181.25 103.75 L 171.25 113.75 L 168.75 117.5 L 175.0 117.5 L 188.75 112.5 L 203.75 106.25 L 213.75 102.5 L 217.5 101.25 L 217.5 108.75 L 210.0 130.0 L 202.5 152.5 L 195.0 170.0 L 187.5 178.75 " stroke="black" fill="none" stroke-width="6.0" stroke-linecap="round" stroke-linejoin="round" />
<path d="M 147.5 143.75 L 145.0 145.0 L 143.75 147.5 L 147.5 147.5 L 160.0 145.0 L 173.75 141.25 L 183.75 138.75 L 186.25 137.5 L 176.25 147.5 L 160.0 161.25 L 147.5 171.25 L 138.75 176.25 L 138.75 175.0 " stroke="black" fill="none" stroke-width="6.0" stroke-linecap="round" stroke-linejoin="round" />
<path d="M 143.75 148.75 L 143.75 148.75 L 142.5 148.75 L 143.75 148.75 L 155.0 155.0 L 172.5 162.5 L 188.75 168.75 " stroke="black" fill="none" stroke-width="6.0" stroke-linecap="round" stroke-linejoin="round" />
<path d="M 152.5 87.5 L 152.5 87.5 L 151.25 87.5 L 151.25 87.5 L 150.0 88.75 L 147.5 102.5 L 135.0 138.75 L 125.0 156.25 " stroke="black" fill="none" stroke-width="6.0" stroke-linecap="round" stroke-linejoin="round" />
<path d="M 137.5 197.5 L 137.5 197.5 L 136.25 197.5 L 135.0 197.5 L 136.25 205.0 L 141.25 220.0 L 146.25 233.75 L 148.75 240.0 L 148.75 241.25 L 147.5 238.75 " stroke="black" fill="none" stroke-width="6.0" stroke-linecap="round" stroke-linejoin="round" />
<path d="M 136.25 197.5 L 135.0 197.5 L 135.0 197.5 L 142.5 196.25 L 162.5 192.5 L 193.75 188.75 L 218.75 187.5 L 228.75 190.0 L 230.0 197.5 L 221.25 211.25 L 207.5 226.25 L 195.0 240.0 L 180.0 246.25 L 172.5 247.5 " stroke="black" fill="none" stroke-width="6.0" stroke-linecap="round" stroke-linejoin="round" />
<path d="M 161.25 196.25 L 161.25 196.25 L 158.75 196.25 L 156.25 198.75 L 156.25 208.75 L 158.75 226.25 L 160.0 237.5 L 160.0 238.75 " stroke="black" fill="none" stroke-width="6.0" stroke-linecap="round" stroke-linejoin="round" />
<path d="M 186.25 192.5 L 187.5 191.25 L 187.5 192.5 L 187.5 198.75 L 182.5 217.5 L 172.5 233.75 L 160.0 241.25 L 146.25 245.0 L 133.75 247.5 L 122.5 250.0 L 117.5 252.5 L 117.5 252.5 L 122.5 252.5 L 131.25 251.25 L 143.75 250.0 L 156.25 246.25 L 175.0 242.5 L 197.5 238.75 L 217.5 236.25 L 236.25 236.25 L 248.75 237.5 L 255.0 238.75 L 257.5 240.0 L 260.0 240.0 L 262.5 237.5 L 266.25 230.0 L 267.5 227.5 " stroke="black" fill="none" stroke-width="6.0" stroke-linecap="round" stroke-linejoin="round" />
</svg>