<svg xmlns="http://www.w3.org/2000/svg" width="300" height="300" viewBox="0 0 300 300">
<path d="M 65.0 128.75 L 62.5 130.0 L 60.0 131.25 L 68.75 128.75 L 87.5 120.0 L 110.0 105.0 L 126.25 91.25 L 130.0 86.25 L 123.75 85.0 L 115.0 86.25 L 106.25 86.25 L 100.0 87.5 L 96.25 87.5 L 95.0 90.0 L 93.75 96.25 L 93.75 120.0 L 97.5 166.25 L 98.75 211.25 L 100.0 235.0 L 100.0 241.25 L 96.25 240.0 L 95.0 235.0 " stroke="black" fill="none" stroke-width="6.0" stroke-linecap="round" stroke-linejoin="round" />
<path d="M 91.25 153.75 L 83.75 168.75 L 76.25 190.0 L 67.5 207.5 L 62.5 213.75 L 60.0 208.75 L 60.0 200.0 " stroke="black" fill="none" stroke-width="6.0" stroke-linecap="round" stroke-linejoin="round" />
<path d="M 86.25 153.75 L 92.5 153.75 L 103.75 158.75 L 122.5 173.75 L 141.25 187.5 L 151.25 191.25 " stroke="black" fill="none" stroke-width="6.0" stroke-linecap="round" stroke-linejoin="round" />
<path d="M 156.25 75.0 L 151.25 76.25 L 150.0 76.25 L 157.5 77.5 L 173.75 76.25 L 191.25 71.25 L 202.5 66.25 L 202.5 63.75 L 191.25 70.0 " stroke="black" fill="none" stroke-width="6.0" stroke-linecap="round" stroke-linejoin="round" />
<path d="M 155.0 98.75 L 153.75 105.0 L 152.5 122.5 L 152.5 148.75 L 156.25 165.0 L 157.5 170.0 L 157.5 166.25 " stroke="black" fill="none" stroke-width="6.0" stroke-linecap="round" stroke-linejoin="round" />
<path d="M 150.0 112.5 L 150.0 112.5 L 150.0 112.5 L 161.25 110.0 L 183.75 106.25 L 205.0 105.0 L 216.25 111.25 L 216.25 125.0 L 207.5 142.5 L 197.5 153.75 L 186.25 156.25 " stroke="black" fill="none" stroke-width="6.0" stroke-linecap="round" stroke-linejoin="round" />
<path d="M 152.5 143.75 L 152.5 143.75 L 152.5 143.75 L 155.0 143.75 L 168.75 140.0 L 192.5 132.5 L 205.0 126.25 L 205.0 126.25 " stroke="black" fill="none" stroke-width="6.0" stroke-linecap="round" stroke-linejoin="round" />
<path d="M 161.25 168.75 L 161.25 168.75 L 161.25 168.75 L 167.5 166.25 L 185.0 156.25 L 200.0 143.75 L 203.75 136.25 L 200.0 136.25 " stroke="black" fill="none" stroke-width="6.0" stroke-linecap="round" stroke-linejoin="round" />
<path d="M 171.25 121.25 L 168.75 131.25 L 166.25 156.25 L 162.5 193.75 L 156.25 220.0 L 148.75 237.5 L 141.25 243.75 L 138.75 242.5 " stroke="black" fill="none" stroke-width="6.0" stroke-linecap="round" stroke-linejoin="round" />
<path d="M 188.75 147.5 L 188.75 148.75 L 188.75 161.25 L 190.0 190.0 L 193.75 218.75 L 202.5 236.25 L 218.75 241.25 L 238.75 240.0 L 256.25 236.25 L 266.25 235.0 L 268.75 235.0 L 268.75 235.0 L 263.75 233.75 L 257.5 230.0 L 250.0 220.0 " stroke="black" fill="none" stroke-width="6.0" stroke-linecap="round" stroke-linejoin="round" />
<path d="M 217.5 157.5 L 217.5 158.75 L 215.0 161.25 L 211.25 173.75 L 210.0 196.25 L 208.75 208.75 L 213.75 210.0 L 223.75 203.75 L 235.0 195.0 L 242.5 185.0 L 245.0 180.0 L 243.75 177.5 L 241.25 177.5 L 238.75 177.5 L 238.75 177.5 L 240.0 181.25 L 245.0 191.25 L 251.25 206.25 L 255.0 218.75 " stroke="black" fill="none" stroke-width="6.0" stroke-linecap="round" stroke-linejoin="round" />
</svg>