<svg xmlns="http://www.w3.org/2000/svg" width="300" height="300" viewBox="0 0 300 300">
<path d="M 53.75 130.0 L 53.75 130.0 L 53.75 130.0 L 57.5 128.75 L 77.5 118.75 L 103.75 103.75 L 122.5 95.0 L 126.25 91.25 L 120.0 91.25 L 110.0 91.25 L 102.5 91.25 L 96.25 90.0 L 91.25 88.75 L 90.0 86.25 L 90.0 85.0 L 90.0 83.75 L 91.25 93.75 L 93.75 125.0 L 96.25 177.5 L 96.25 213.75 L 96.25 231.25 L 95.0 237.5 L 91.25 235.0 L 88.75 225.0 L 86.25 213.75 " stroke="black" fill="none" stroke-width="6.0" stroke-linecap="round" stroke-linejoin="round" />
<path d="M 90.0 162.5 L 87.5 165.0 L 77.5 181.25 L 65.0 197.5 L 52.5 207.5 L 47.5 208.75 L 46.25 202.5 L 46.25 200.0 " stroke="black" fill="none" stroke-width="6.0" stroke-linecap="round" stroke-linejoin="round" />
<path d="M 87.5 157.5 L 91.25 157.5 L 98.75 165.0 L 111.25 180.0 L 126.25 191.25 L 135.0 196.25 L 135.0 197.5 " stroke="black" fill="none" stroke-width="6.0" stroke-linecap="round" stroke-linejoin="round" />
<path d="M 152.5 72.5 L 152.5 72.5 L 151.25 72.5 L 151.25 81.25 L 151.25 105.0 L 153.75 127.5 L 157.5 136.25 L 157.5 136.25 " stroke="black" fill="none" stroke-width="6.0" stroke-linecap="round" stroke-linejoin="round" />
<path d="M 148.75 88.75 L 146.25 86.25 L 145.0 85.0 L 148.75 82.5 L 163.75 80.0 L 185.0 78.75 L 203.75 81.25 L 208.75 87.5 L 206.25 98.75 L 193.75 112.5 L 178.75 123.75 L 161.25 128.75 L 157.5 128.75 " stroke="black" fill="none" stroke-width="6.0" stroke-linecap="round" stroke-linejoin="round" />
<path d="M 148.75 112.5 L 148.75 112.5 L 148.75 111.25 L 152.5 108.75 L 165.0 103.75 L 185.0 98.75 L 198.75 93.75 L 200.0 93.75 L 193.75 96.25 " stroke="black" fill="none" stroke-width="6.0" stroke-linecap="round" stroke-linejoin="round" />
<path d="M 156.25 131.25 L 155.0 132.5 L 153.75 135.0 L 156.25 135.0 L 167.5 130.0 L 185.0 121.25 L 198.75 111.25 L 203.75 105.0 L 201.25 105.0 " stroke="black" fill="none" stroke-width="6.0" stroke-linecap="round" stroke-linejoin="round" />
<path d="M 131.25 163.75 L 131.25 163.75 L 130.0 163.75 L 137.5 161.25 L 158.75 152.5 L 188.75 141.25 L 205.0 135.0 L 207.5 135.0 L 202.5 136.25 L 188.75 147.5 L 170.0 162.5 L 146.25 186.25 L 128.75 205.0 L 125.0 210.0 L 125.0 207.5 " stroke="black" fill="none" stroke-width="6.0" stroke-linecap="round" stroke-linejoin="round" />
<path d="M 152.5 176.25 L 152.5 176.25 L 157.5 176.25 L 176.25 171.25 L 203.75 168.75 L 227.5 167.5 L 238.75 176.25 L 238.75 188.75 L 228.75 202.5 L 213.75 215.0 L 201.25 225.0 L 191.25 232.5 L 185.0 236.25 L 183.75 236.25 " stroke="black" fill="none" stroke-width="6.0" stroke-linecap="round" stroke-linejoin="round" />
<path d="M 180.0 176.25 L 178.75 175.0 L 175.0 175.0 L 171.25 178.75 L 166.25 191.25 L 160.0 210.0 L 157.5 223.75 L 156.25 227.5 L 156.25 227.5 " stroke="black" fill="none" stroke-width="6.0" stroke-linecap="round" stroke-linejoin="round" />
<path d="M 202.5 167.5 L 202.5 168.75 L 200.0 177.5 L 193.75 198.75 L 182.5 227.5 L 173.75 248.75 L 163.75 257.5 " stroke="black" fill="none" stroke-width="6.0" stroke-linecap="round" stroke-linejoin="round" />
</svg>