<svg xmlns="http://www.w3.org/2000/svg" width="300" height="300" viewBox="0 0 300 300">
<path d="M 60.0 128.75 L 57.5 131.25 L 55.0 132.5 L 60.0 131.25 L 73.75 125.0 L 88.75 116.25 L 101.25 106.25 L 107.5 98.75 L 105.0 96.25 L 98.75 96.25 L 92.5 96.25 L 90.0 96.25 L 85.0 96.25 L 82.5 96.25 L 82.5 95.0 L 82.5 95.0 L 83.75 106.25 L 87.5 143.75 L 92.5 200.0 L 93.75 223.75 L 93.75 230.0 L 91.25 232.5 L 87.5 230.0 L 85.0 222.5 " stroke="black" fill="none" stroke-width="6.0" stroke-linecap="round" stroke-linejoin="round" />
<path d="M 82.5 163.75 L 75.0 176.25 L 63.75 191.25 L 52.5 202.5 L 47.5 205.0 L 46.25 201.25 " stroke="black" fill="none" stroke-width="6.0" stroke-linecap="round" stroke-linejoin="round" />
<path d="M 85.0 151.25 L 86.25 151.25 L 92.5 157.5 L 106.25 168.75 L 122.5 183.75 L 136.25 191.25 L 137.5 192.5 " stroke="black" fill="none" stroke-width="6.0" stroke-linecap="round" stroke-linejoin="round" />
<path d="M 141.25 90.0 L 138.75 90.0 L 137.5 90.0 L 133.75 95.0 L 130.0 108.75 L 126.25 125.0 L 126.25 132.5 L 130.0 132.5 L 137.5 123.75 L 146.25 112.5 L 152.5 102.5 L 157.5 96.25 L 157.5 95.0 L 152.5 102.5 L 145.0 120.0 L 137.5 140.0 L 132.5 155.0 L 132.5 158.75 L 137.5 157.5 L 145.0 150.0 L 152.5 143.75 L 156.25 137.5 L 157.5 133.75 L 157.5 132.5 L 156.25 131.25 L 153.75 131.25 L 153.75 131.25 L 152.5 131.25 L 152.5 131.25 L 152.5 131.25 L 152.5 131.25 L 152.5 131.25 L 153.75 131.25 L 158.75 135.0 L 163.75 141.25 L 167.5 151.25 L 167.5 156.25 " stroke="black" fill="none" stroke-width="6.0" stroke-linecap="round" stroke-linejoin="round" />
<path d="M 211.25 82.5 L 210.0 82.5 L 206.25 87.5 L 200.0 98.75 L 193.75 115.0 L 191.25 126.25 L 192.5 127.5 L 198.75 122.5 L 206.25 112.5 L 213.75 102.5 L 218.75 96.25 L 221.25 92.5 L 221.25 92.5 L 215.0 102.5 L 208.75 116.25 L 205.0 130.0 L 203.75 136.25 L 205.0 137.5 L 212.5 131.25 L 220.0 122.5 L 226.25 116.25 L 228.75 113.75 L 230.0 113.75 L 227.5 122.5 L 218.75 137.5 L 211.25 148.75 " stroke="black" fill="none" stroke-width="6.0" stroke-linecap="round" stroke-linejoin="round" />
<path d="M 142.5 178.75 L 141.25 180.0 L 136.25 185.0 L 137.5 185.0 L 150.0 182.5 L 171.25 171.25 L 197.5 157.5 L 213.75 146.25 L 215.0 143.75 " stroke="black" fill="none" stroke-width="6.0" stroke-linecap="round" stroke-linejoin="round" />
<path d="M 153.75 187.5 L 148.75 200.0 L 146.25 215.0 L 145.0 233.75 L 145.0 242.5 L 145.0 242.5 L 146.25 236.25 L 147.5 225.0 L 150.0 213.75 L 152.5 205.0 L 153.75 200.0 L 156.25 198.75 L 165.0 207.5 L 177.5 220.0 L 190.0 230.0 L 196.25 231.25 " stroke="black" fill="none" stroke-width="6.0" stroke-linecap="round" stroke-linejoin="round" />
<path d="M 180.0 121.25 L 178.75 117.5 L 175.0 113.75 L 175.0 112.5 L 176.25 113.75 L 186.25 130.0 L 198.75 161.25 L 213.75 202.5 L 231.25 237.5 L 245.0 255.0 L 255.0 262.5 L 258.75 265.0 L 258.75 265.0 L 260.0 260.0 L 260.0 252.5 L 260.0 240.0 L 257.5 222.5 L 253.75 202.5 L 250.0 188.75 " stroke="black" fill="none" stroke-width="6.0" stroke-linecap="round" stroke-linejoin="round" />
<path d="M 246.25 162.5 L 242.5 170.0 L 235.0 182.5 L 223.75 200.0 L 210.0 217.5 L 202.5 226.25 " stroke="black" fill="none" stroke-width="6.0" stroke-linecap="round" stroke-linejoin="round" />
<path d="M 253.75 106.25 L 255.0 105.0 L 257.5 103.75 L 262.5 105.0 L 270.0 116.25 L 276.25 135.0 " stroke="black" fill="none" stroke-width="6.0" stroke-linecap="round" stroke-linejoin="round" />
</svg>