<svg xmlns="http://www.w3.org/2000/svg" width="300" height="300" viewBox="0 0 300 300">
<path d="M 127.5 78.75 L 126.25 80.0 L 121.25 81.25 L 120.0 81.25 L 130.0 81.25 L 146.25 77.5 L 160.0 72.5 L 168.75 67.5 L 166.25 68.75 L 156.25 73.75 L 148.75 78.75 L 142.5 85.0 L 138.75 93.75 L 136.25 108.75 L 135.0 135.0 L 137.5 151.25 L 140.0 157.5 L 140.0 155.0 L 140.0 152.5 " stroke="black" fill="none" stroke-width="6.0" stroke-linecap="round" stroke-linejoin="round" />
<path d="M 135.0 111.25 L 133.75 110.0 L 132.5 110.0 L 136.25 108.75 L 146.25 107.5 L 157.5 108.75 L 165.0 122.5 L 165.0 140.0 L 157.5 153.75 L 150.0 160.0 L 145.0 158.75 L 142.5 155.0 " stroke="black" fill="none" stroke-width="6.0" stroke-linecap="round" stroke-linejoin="round" />
<path d="M 141.25 128.75 L 138.75 128.75 L 137.5 128.75 L 140.0 127.5 L 147.5 125.0 L 157.5 120.0 L 160.0 118.75 " stroke="black" fill="none" stroke-width="6.0" stroke-linecap="round" stroke-linejoin="round" />
<path d="M 142.5 153.75 L 138.75 158.75 L 138.75 161.25 L 148.75 157.5 L 163.75 147.5 L 170.0 141.25 " stroke="black" fill="none" stroke-width="6.0" stroke-linecap="round" stroke-linejoin="round" />
<path d="M 88.75 85.0 L 88.75 85.0 L 86.25 88.75 L 82.5 101.25 L 80.0 120.0 L 78.75 130.0 L 82.5 130.0 L 90.0 121.25 L 98.75 108.75 L 103.75 101.25 L 106.25 98.75 L 105.0 102.5 L 97.5 117.5 L 92.5 132.5 L 88.75 145.0 L 88.75 147.5 L 95.0 146.25 L 102.5 137.5 L 108.75 131.25 L 111.25 128.75 L 112.5 128.75 L 108.75 131.25 L 106.25 133.75 L 103.75 136.25 L 102.5 137.5 L 102.5 138.75 L 105.0 142.5 L 111.25 146.25 L 117.5 151.25 " stroke="black" fill="none" stroke-width="6.0" stroke-linecap="round" stroke-linejoin="round" />
<path d="M 196.25 77.5 L 192.5 78.75 L 186.25 86.25 L 180.0 100.0 L 177.5 115.0 L 180.0 121.25 L 188.75 121.25 L 198.75 112.5 L 206.25 105.0 L 212.5 95.0 L 212.5 92.5 L 208.75 96.25 L 202.5 108.75 L 197.5 125.0 L 195.0 135.0 L 197.5 137.5 L 205.0 132.5 L 215.0 123.75 L 222.5 117.5 L 223.75 115.0 L 221.25 120.0 L 210.0 136.25 L 200.0 150.0 " stroke="black" fill="none" stroke-width="6.0" stroke-linecap="round" stroke-linejoin="round" />
<path d="M 58.75 208.75 L 58.75 210.0 L 57.5 211.25 L 71.25 211.25 L 105.0 200.0 L 160.0 178.75 L 210.0 158.75 L 230.0 151.25 L 233.75 148.75 L 223.75 148.75 L 207.5 152.5 L 203.75 152.5 " stroke="black" fill="none" stroke-width="6.0" stroke-linecap="round" stroke-linejoin="round" />
<path d="M 168.75 161.25 L 168.75 161.25 L 168.75 161.25 L 168.75 167.5 L 173.75 200.0 L 178.75 240.0 L 178.75 263.75 L 178.75 271.25 L 178.75 271.25 L 173.75 267.5 L 165.0 257.5 L 152.5 246.25 L 148.75 243.75 " stroke="black" fill="none" stroke-width="6.0" stroke-linecap="round" stroke-linejoin="round" />
<path d="M 116.25 203.75 L 116.25 203.75 L 113.75 203.75 L 112.5 205.0 L 116.25 211.25 L 126.25 228.75 L 137.5 246.25 L 145.0 252.5 " stroke="black" fill="none" stroke-width="6.0" stroke-linecap="round" stroke-linejoin="round" />
<path d="M 211.25 198.75 L 211.25 198.75 L 211.25 201.25 L 215.0 205.0 L 223.75 215.0 L 232.5 230.0 L 236.25 238.75 " stroke="black" fill="none" stroke-width="6.0" stroke-linecap="round" stroke-linejoin="round" />
</svg>