<svg xmlns="http://www.w3.org/2000/svg" width="300" height="300" viewBox="0 0 300 300">
<path d="M 97.5 73.75 L 97.5 72.5 L 96.25 71.25 L 96.25 72.5 L 95.0 86.25 L 95.0 100.0 L 98.75 108.75 L 113.75 108.75 L 130.0 101.25 L 152.5 91.25 L 162.5 87.5 L 165.0 86.25 L 165.0 86.25 L 163.75 86.25 L 161.25 86.25 L 153.75 91.25 L 143.75 103.75 L 126.25 130.0 L 101.25 162.5 L 86.25 190.0 L 81.25 200.0 L 80.0 202.5 L 80.0 202.5 L 82.5 203.75 L 85.0 205.0 L 88.75 205.0 L 92.5 206.25 L 96.25 206.25 L 103.75 207.5 L 115.0 210.0 L 133.75 212.5 L 155.0 216.25 L 175.0 220.0 L 190.0 221.25 L 195.0 216.25 L 192.5 206.25 L 191.25 203.75 " stroke="black" fill="none" stroke-width="6.0" stroke-linecap="round" stroke-linejoin="round" />
<path d="M 155.0 125.0 L 155.0 125.0 L 153.75 123.75 L 158.75 123.75 L 176.25 128.75 L 193.75 141.25 L 200.0 163.75 L 191.25 187.5 L 173.75 206.25 L 155.0 220.0 L 137.5 228.75 L 121.25 232.5 L 117.5 230.0 " stroke="black" fill="none" stroke-width="6.0" stroke-linecap="round" stroke-linejoin="round" />
<path d="M 75.0 163.75 L 75.0 163.75 L 80.0 163.75 L 106.25 165.0 L 145.0 166.25 L 180.0 166.25 L 201.25 165.0 L 205.0 165.0 L 202.5 165.0 " stroke="black" fill="none" stroke-width="6.0" stroke-linecap="round" stroke-linejoin="round" />
<path d="M 157.5 142.5 L 157.5 143.75 L 156.25 152.5 L 152.5 178.75 L 142.5 210.0 L 140.0 215.0 " stroke="black" fill="none" stroke-width="6.0" stroke-linecap="round" stroke-linejoin="round" />
</svg>