<svg xmlns="http://www.w3.org/2000/svg" width="300" height="300" viewBox="0 0 300 300">
<path d="M 92.5 77.5 L 91.25 77.5 L 91.25 77.5 L 93.75 77.5 L 105.0 80.0 L 117.5 82.5 L 125.0 85.0 " stroke="black" fill="none" stroke-width="6.0" stroke-linecap="round" stroke-linejoin="round" />
<path d="M 81.25 115.0 L 81.25 115.0 L 80.0 115.0 L 80.0 116.25 L 86.25 116.25 L 98.75 115.0 L 111.25 113.75 L 117.5 112.5 L 112.5 122.5 L 98.75 136.25 L 86.25 146.25 L 78.75 150.0 L 78.75 151.25 L 87.5 147.5 L 102.5 140.0 L 120.0 131.25 L 132.5 126.25 L 133.75 128.75 L 122.5 141.25 L 103.75 156.25 L 90.0 168.75 L 78.75 176.25 L 75.0 173.75 L 76.25 160.0 L 80.0 143.75 L 85.0 128.75 L 87.5 117.5 L 86.25 118.75 L 81.25 136.25 L 78.75 170.0 L 77.5 208.75 L 77.5 238.75 L 81.25 246.25 L 82.5 245.0 L 82.5 243.75 " stroke="black" fill="none" stroke-width="6.0" stroke-linecap="round" stroke-linejoin="round" />
<path d="M 82.5 195.0 L 82.5 195.0 L 81.25 195.0 L 81.25 195.0 L 88.75 191.25 L 105.0 181.25 L 122.5 175.0 L 131.25 180.0 L 130.0 200.0 L 123.75 220.0 L 117.5 235.0 L 115.0 237.5 L 113.75 235.0 L 110.0 226.25 L 105.0 212.5 L 101.25 202.5 " stroke="black" fill="none" stroke-width="6.0" stroke-linecap="round" stroke-linejoin="round" />
<path d="M 151.25 90.0 L 151.25 91.25 L 151.25 95.0 L 151.25 113.75 L 151.25 138.75 L 150.0 151.25 L 148.75 151.25 " stroke="black" fill="none" stroke-width="6.0" stroke-linecap="round" stroke-linejoin="round" />
<path d="M 150.0 101.25 L 150.0 100.0 L 150.0 98.75 L 155.0 90.0 L 167.5 87.5 L 183.75 87.5 L 195.0 93.75 L 195.0 108.75 L 183.75 130.0 L 171.25 145.0 L 167.5 148.75 L 170.0 146.25 L 182.5 136.25 L 195.0 125.0 L 203.75 116.25 L 205.0 115.0 L 203.75 117.5 " stroke="black" fill="none" stroke-width="6.0" stroke-linecap="round" stroke-linejoin="round" />
<path d="M 157.5 188.75 L 156.25 190.0 L 157.5 190.0 L 171.25 180.0 L 193.75 163.75 L 206.25 156.25 L 205.0 161.25 L 196.25 182.5 L 182.5 203.75 L 167.5 222.5 L 153.75 235.0 L 147.5 236.25 " stroke="black" fill="none" stroke-width="6.0" stroke-linecap="round" stroke-linejoin="round" />
<path d="M 152.5 186.25 L 151.25 185.0 L 151.25 183.75 L 157.5 188.75 L 172.5 201.25 L 193.75 221.25 L 212.5 240.0 L 228.75 250.0 L 243.75 255.0 L 248.75 255.0 " stroke="black" fill="none" stroke-width="6.0" stroke-linecap="round" stroke-linejoin="round" />
</svg>