<svg xmlns="http://www.w3.org/2000/svg" width="300" height="300" viewBox="0 0 300 300">
<path d="M 80.0 121.25 L 76.25 122.5 L 75.0 123.75 L 90.0 125.0 L 123.75 122.5 L 168.75 112.5 L 201.25 102.5 L 211.25 97.5 L 208.75 96.25 " stroke="black" fill="none" stroke-width="6.0" stroke-linecap="round" stroke-linejoin="round" />
<path d="M 162.5 83.75 L 162.5 83.75 L 162.5 88.75 L 175.0 125.0 L 196.25 185.0 L 212.5 232.5 L 226.25 251.25 L 237.5 255.0 L 241.25 255.0 L 241.25 252.5 L 238.75 242.5 L 230.0 226.25 L 218.75 205.0 L 213.75 193.75 " stroke="black" fill="none" stroke-width="6.0" stroke-linecap="round" stroke-linejoin="round" />
<path d="M 215.0 73.75 L 215.0 72.5 L 217.5 71.25 L 221.25 72.5 L 223.75 77.5 L 222.5 82.5 " stroke="black" fill="none" stroke-width="6.0" stroke-linecap="round" stroke-linejoin="round" />
<path d="M 101.25 86.25 L 100.0 86.25 L 95.0 87.5 L 93.75 88.75 L 96.25 90.0 L 107.5 90.0 L 127.5 88.75 L 138.75 87.5 " stroke="black" fill="none" stroke-width="6.0" stroke-linecap="round" stroke-linejoin="round" />
<path d="M 118.75 155.0 L 120.0 155.0 L 120.0 157.5 L 120.0 172.5 L 121.25 202.5 L 122.5 222.5 L 126.25 225.0 L 128.75 215.0 L 128.75 205.0 L 127.5 201.25 L 126.25 196.25 L 126.25 192.5 L 130.0 187.5 L 141.25 180.0 L 152.5 170.0 L 156.25 162.5 L 150.0 160.0 " stroke="black" fill="none" stroke-width="6.0" stroke-linecap="round" stroke-linejoin="round" />
<path d="M 83.75 176.25 L 82.5 177.5 L 80.0 178.75 L 81.25 187.5 L 90.0 211.25 L 100.0 235.0 L 112.5 242.5 L 132.5 240.0 L 155.0 225.0 L 173.75 211.25 L 183.75 202.5 " stroke="black" fill="none" stroke-width="6.0" stroke-linecap="round" stroke-linejoin="round" />
</svg>