<svg xmlns="http://www.w3.org/2000/svg" width="300" height="300" viewBox="0 0 300 300">
<path d="M 90.0 78.75 L 90.0 78.75 L 87.5 78.75 L 87.5 80.0 L 96.25 82.5 L 113.75 85.0 L 131.25 87.5 L 136.25 90.0 L 130.0 93.75 L 107.5 106.25 L 90.0 116.25 L 75.0 126.25 L 70.0 131.25 L 73.75 130.0 L 87.5 125.0 L 105.0 113.75 L 120.0 105.0 L 126.25 100.0 L 120.0 101.25 L 116.25 101.25 " stroke="black" fill="none" stroke-width="6.0" stroke-linecap="round" stroke-linejoin="round" />
<path d="M 77.5 91.25 L 76.25 91.25 L 73.75 95.0 L 73.75 122.5 L 72.5 170.0 L 67.5 202.5 L 62.5 220.0 L 56.25 227.5 L 51.25 225.0 " stroke="black" fill="none" stroke-width="6.0" stroke-linecap="round" stroke-linejoin="round" />
<path d="M 62.5 168.75 L 62.5 168.75 L 63.75 168.75 L 70.0 166.25 L 88.75 156.25 L 116.25 142.5 L 137.5 130.0 L 143.75 122.5 L 136.25 120.0 " stroke="black" fill="none" stroke-width="6.0" stroke-linecap="round" stroke-linejoin="round" />
<path d="M 97.5 133.75 L 96.25 136.25 L 92.5 147.5 L 92.5 167.5 L 92.5 187.5 L 93.75 191.25 L 93.75 187.5 " stroke="black" fill="none" stroke-width="6.0" stroke-linecap="round" stroke-linejoin="round" />
<path d="M 122.5 116.25 L 122.5 115.0 L 123.75 116.25 L 121.25 131.25 L 115.0 150.0 L 98.75 182.5 L 85.0 198.75 L 76.25 203.75 L 75.0 205.0 L 77.5 203.75 L 90.0 197.5 L 105.0 187.5 L 120.0 177.5 L 128.75 172.5 L 127.5 176.25 L 115.0 196.25 L 101.25 218.75 L 88.75 241.25 L 81.25 252.5 L 81.25 251.25 L 81.25 248.75 " stroke="black" fill="none" stroke-width="6.0" stroke-linecap="round" stroke-linejoin="round" />
<path d="M 112.5 208.75 L 113.75 208.75 L 115.0 208.75 L 120.0 210.0 L 128.75 216.25 L 140.0 225.0 L 147.5 226.25 L 147.5 225.0 " stroke="black" fill="none" stroke-width="6.0" stroke-linecap="round" stroke-linejoin="round" />
<path d="M 168.75 81.25 L 168.75 80.0 L 168.75 80.0 L 166.25 90.0 L 162.5 116.25 L 161.25 137.5 L 160.0 142.5 L 160.0 141.25 " stroke="black" fill="none" stroke-width="6.0" stroke-linecap="round" stroke-linejoin="round" />
<path d="M 160.0 95.0 L 160.0 95.0 L 160.0 92.5 L 161.25 90.0 L 168.75 88.75 L 187.5 87.5 L 200.0 87.5 L 203.75 95.0 L 197.5 112.5 L 185.0 135.0 L 175.0 150.0 L 173.75 152.5 L 181.25 147.5 L 192.5 137.5 L 202.5 127.5 L 207.5 120.0 L 207.5 120.0 L 202.5 127.5 " stroke="black" fill="none" stroke-width="6.0" stroke-linecap="round" stroke-linejoin="round" />
<path d="M 156.25 195.0 L 156.25 196.25 L 157.5 196.25 L 170.0 187.5 L 192.5 168.75 L 207.5 157.5 L 210.0 160.0 L 202.5 176.25 L 192.5 195.0 L 178.75 212.5 L 163.75 228.75 L 151.25 236.25 L 150.0 236.25 " stroke="black" fill="none" stroke-width="6.0" stroke-linecap="round" stroke-linejoin="round" />
<path d="M 153.75 192.5 L 153.75 192.5 L 153.75 192.5 L 155.0 193.75 L 166.25 203.75 L 187.5 226.25 L 208.75 247.5 L 228.75 260.0 L 245.0 268.75 L 258.75 276.25 L 260.0 276.25 " stroke="black" fill="none" stroke-width="6.0" stroke-linecap="round" stroke-linejoin="round" />
</svg>