<svg xmlns="http://www.w3.org/2000/svg" width="300" height="300" viewBox="0 0 300 300">
<path d="M 78.75 85.0 L 75.0 85.0 L 73.75 85.0 L 78.75 83.75 L 91.25 80.0 L 105.0 73.75 L 112.5 70.0 L 112.5 70.0 " stroke="black" fill="none" stroke-width="6.0" stroke-linecap="round" stroke-linejoin="round" />
<path d="M 82.5 100.0 L 81.25 103.75 L 78.75 127.5 L 78.75 152.5 L 81.25 166.25 L 83.75 167.5 L 83.75 166.25 " stroke="black" fill="none" stroke-width="6.0" stroke-linecap="round" stroke-linejoin="round" />
<path d="M 81.25 107.5 L 81.25 107.5 L 81.25 108.75 L 83.75 108.75 L 93.75 105.0 L 105.0 102.5 L 111.25 101.25 L 110.0 105.0 L 100.0 112.5 L 90.0 120.0 L 81.25 126.25 L 77.5 127.5 L 77.5 127.5 L 86.25 123.75 L 97.5 118.75 L 108.75 113.75 L 115.0 111.25 L 117.5 112.5 L 110.0 118.75 " stroke="black" fill="none" stroke-width="6.0" stroke-linecap="round" stroke-linejoin="round" />
<path d="M 80.0 151.25 L 80.0 151.25 L 76.25 152.5 L 75.0 153.75 L 81.25 152.5 L 92.5 146.25 L 106.25 140.0 L 117.5 135.0 L 120.0 135.0 L 113.75 142.5 L 101.25 153.75 L 93.75 161.25 L 82.5 171.25 L 80.0 173.75 L 82.5 172.5 L 91.25 165.0 L 101.25 156.25 L 107.5 150.0 L 107.5 148.75 " stroke="black" fill="none" stroke-width="6.0" stroke-linecap="round" stroke-linejoin="round" />
<path d="M 100.0 158.75 L 98.75 163.75 L 96.25 173.75 L 96.25 192.5 L 96.25 205.0 L 98.75 211.25 L 100.0 210.0 L 100.0 205.0 L 100.0 200.0 L 101.25 195.0 L 102.5 191.25 L 105.0 186.25 L 110.0 181.25 L 116.25 175.0 L 121.25 168.75 L 118.75 167.5 " stroke="black" fill="none" stroke-width="6.0" stroke-linecap="round" stroke-linejoin="round" />
<path d="M 72.5 185.0 L 71.25 187.5 L 68.75 195.0 L 68.75 211.25 L 76.25 228.75 L 85.0 237.5 L 97.5 236.25 L 116.25 222.5 L 136.25 207.5 L 150.0 196.25 " stroke="black" fill="none" stroke-width="6.0" stroke-linecap="round" stroke-linejoin="round" />
<path d="M 165.0 61.25 L 165.0 61.25 L 165.0 61.25 L 170.0 60.0 L 185.0 60.0 L 202.5 62.5 L 212.5 68.75 L 215.0 76.25 L 207.5 88.75 L 195.0 97.5 L 187.5 100.0 " stroke="black" fill="none" stroke-width="6.0" stroke-linecap="round" stroke-linejoin="round" />
<path d="M 165.0 88.75 L 165.0 88.75 L 165.0 88.75 L 172.5 87.5 L 190.0 83.75 L 206.25 77.5 L 211.25 75.0 L 211.25 75.0 " stroke="black" fill="none" stroke-width="6.0" stroke-linecap="round" stroke-linejoin="round" />
<path d="M 162.5 108.75 L 162.5 108.75 L 162.5 110.0 L 168.75 108.75 L 186.25 101.25 L 202.5 92.5 L 210.0 88.75 L 203.75 92.5 " stroke="black" fill="none" stroke-width="6.0" stroke-linecap="round" stroke-linejoin="round" />
<path d="M 152.5 121.25 L 151.25 123.75 L 151.25 132.5 L 152.5 148.75 L 155.0 162.5 L 157.5 167.5 L 157.5 167.5 " stroke="black" fill="none" stroke-width="6.0" stroke-linecap="round" stroke-linejoin="round" />
<path d="M 155.0 138.75 L 153.75 136.25 L 156.25 133.75 L 172.5 127.5 L 198.75 118.75 L 220.0 115.0 L 228.75 115.0 L 225.0 122.5 L 211.25 135.0 L 197.5 146.25 L 180.0 155.0 L 158.75 165.0 L 147.5 173.75 L 147.5 180.0 L 155.0 190.0 L 165.0 201.25 L 176.25 210.0 L 185.0 215.0 L 187.5 216.25 L 187.5 216.25 L 182.5 215.0 L 172.5 211.25 L 163.75 207.5 L 156.25 203.75 L 153.75 198.75 L 165.0 190.0 L 187.5 176.25 L 213.75 162.5 L 235.0 155.0 L 245.0 155.0 L 245.0 163.75 L 233.75 178.75 L 220.0 192.5 L 205.0 201.25 L 197.5 203.75 L 195.0 201.25 " stroke="black" fill="none" stroke-width="6.0" stroke-linecap="round" stroke-linejoin="round" />
<path d="M 195.0 137.5 L 193.75 135.0 L 192.5 133.75 L 192.5 135.0 L 196.25 160.0 L 198.75 205.0 L 197.5 250.0 L 195.0 277.5 L 190.0 295.0 L 182.5 298.75 " stroke="black" fill="none" stroke-width="6.0" stroke-linecap="round" stroke-linejoin="round" />
</svg>