<svg xmlns="http://www.w3.org/2000/svg" width="300" height="300" viewBox="0 0 300 300">
<path d="M 57.5 135.0 L 53.75 135.0 L 50.0 136.25 L 52.5 135.0 L 72.5 130.0 L 98.75 118.75 L 125.0 106.25 L 135.0 100.0 L 131.25 98.75 " stroke="black" fill="none" stroke-width="6.0" stroke-linecap="round" stroke-linejoin="round" />
<path d="M 83.75 118.75 L 81.25 122.5 L 78.75 131.25 L 81.25 147.5 L 85.0 176.25 L 86.25 192.5 L 86.25 195.0 " stroke="black" fill="none" stroke-width="6.0" stroke-linecap="round" stroke-linejoin="round" />
<path d="M 107.5 112.5 L 107.5 113.75 L 110.0 118.75 L 113.75 136.25 L 113.75 162.5 L 107.5 186.25 L 101.25 195.0 " stroke="black" fill="none" stroke-width="6.0" stroke-linecap="round" stroke-linejoin="round" />
<path d="M 92.5 136.25 L 92.5 136.25 L 92.5 142.5 L 95.0 160.0 L 96.25 178.75 L 96.25 191.25 L 91.25 196.25 L 83.75 200.0 L 75.0 203.75 L 68.75 206.25 L 67.5 206.25 L 68.75 206.25 L 75.0 206.25 L 83.75 203.75 L 93.75 200.0 L 107.5 192.5 L 121.25 185.0 L 131.25 178.75 L 132.5 177.5 L 130.0 177.5 L 125.0 178.75 L 118.75 181.25 L 115.0 183.75 L 110.0 188.75 L 103.75 197.5 L 95.0 215.0 L 88.75 232.5 L 81.25 248.75 L 80.0 250.0 L 81.25 247.5 " stroke="black" fill="none" stroke-width="6.0" stroke-linecap="round" stroke-linejoin="round" />
<path d="M 103.75 203.75 L 105.0 203.75 L 105.0 201.25 L 107.5 201.25 L 113.75 205.0 L 123.75 216.25 L 132.5 228.75 L 136.25 236.25 L 136.25 236.25 " stroke="black" fill="none" stroke-width="6.0" stroke-linecap="round" stroke-linejoin="round" />
<path d="M 153.75 93.75 L 153.75 91.25 L 153.75 87.5 L 153.75 87.5 L 156.25 95.0 L 156.25 113.75 L 156.25 127.5 L 156.25 133.75 L 156.25 135.0 L 163.75 127.5 L 177.5 118.75 L 192.5 111.25 L 203.75 105.0 L 211.25 103.75 L 212.5 103.75 L 211.25 107.5 L 205.0 117.5 L 197.5 130.0 L 190.0 137.5 L 182.5 142.5 " stroke="black" fill="none" stroke-width="6.0" stroke-linecap="round" stroke-linejoin="round" />
<path d="M 176.25 133.75 L 177.5 133.75 L 177.5 132.5 L 177.5 131.25 L 177.5 141.25 L 175.0 171.25 L 170.0 210.0 L 166.25 227.5 L 158.75 232.5 L 153.75 230.0 " stroke="black" fill="none" stroke-width="6.0" stroke-linecap="round" stroke-linejoin="round" />
<path d="M 175.0 173.75 L 175.0 173.75 L 175.0 172.5 L 175.0 172.5 L 178.75 175.0 L 186.25 182.5 L 195.0 193.75 L 202.5 206.25 L 212.5 220.0 L 226.25 232.5 L 242.5 241.25 L 253.75 248.75 L 255.0 248.75 " stroke="black" fill="none" stroke-width="6.0" stroke-linecap="round" stroke-linejoin="round" />
</svg>