<svg xmlns="http://www.w3.org/2000/svg" width="300" height="300" viewBox="0 0 300 300">
<path d="M 148.75 95.0 L 150.0 91.25 L 150.0 90.0 L 152.5 100.0 L 155.0 136.25 L 155.0 182.5 L 155.0 210.0 L 156.25 215.0 L 158.75 215.0 L 158.75 211.25 " stroke="black" fill="none" stroke-width="6.0" stroke-linecap="round" stroke-linejoin="round" />
<path d="M 158.75 165.0 L 156.25 166.25 L 153.75 167.5 L 157.5 166.25 L 175.0 157.5 L 196.25 146.25 L 207.5 135.0 L 203.75 133.75 L 200.0 136.25 " stroke="black" fill="none" stroke-width="6.0" stroke-linecap="round" stroke-linejoin="round" />
<path d="M 97.5 156.25 L 97.5 156.25 L 95.0 158.75 L 95.0 165.0 L 100.0 188.75 L 107.5 216.25 L 117.5 230.0 L 135.0 232.5 L 158.75 227.5 L 186.25 218.75 L 207.5 213.75 L 221.25 210.0 L 225.0 207.5 L 226.25 207.5 L 222.5 206.25 L 216.25 205.0 " stroke="black" fill="none" stroke-width="6.0" stroke-linecap="round" stroke-linejoin="round" />
</svg>