<svg xmlns="http://www.w3.org/2000/svg" width="300" height="300" viewBox="0 0 300 300">
<path d="M 110.0 130.0 L 111.25 126.25 L 111.25 123.75 L 113.75 127.5 L 115.0 145.0 L 115.0 168.75 L 115.0 187.5 L 115.0 192.5 L 120.0 188.75 L 131.25 178.75 L 145.0 163.75 L 155.0 151.25 L 160.0 142.5 L 161.25 137.5 L 152.5 138.75 L 150.0 138.75 " stroke="black" fill="none" stroke-width="6.0" stroke-linecap="round" stroke-linejoin="round" />
<path d="M 82.5 160.0 L 80.0 162.5 L 77.5 165.0 L 77.5 173.75 L 83.75 192.5 L 88.75 206.25 L 101.25 216.25 L 121.25 210.0 L 147.5 192.5 L 168.75 171.25 L 185.0 155.0 L 192.5 143.75 L 192.5 142.5 " stroke="black" fill="none" stroke-width="6.0" stroke-linecap="round" stroke-linejoin="round" />
<path d="M 196.25 138.75 L 196.25 137.5 L 196.25 136.25 L 196.25 132.5 L 203.75 122.5 L 216.25 110.0 L 226.25 101.25 L 225.0 98.75 L 218.75 98.75 " stroke="black" fill="none" stroke-width="6.0" stroke-linecap="round" stroke-linejoin="round" />
<path d="M 177.5 95.0 L 176.25 97.5 L 175.0 105.0 L 175.0 135.0 L 182.5 178.75 L 195.0 211.25 L 210.0 222.5 L 230.0 233.75 L 250.0 238.75 L 262.5 240.0 L 268.75 241.25 L 272.5 241.25 L 272.5 241.25 L 272.5 241.25 L 272.5 241.25 L 272.5 240.0 L 272.5 232.5 L 272.5 220.0 L 272.5 198.75 L 271.25 158.75 L 267.5 105.0 L 265.0 92.5 " stroke="black" fill="none" stroke-width="6.0" stroke-linecap="round" stroke-linejoin="round" />
</svg>