<svg xmlns="http://www.w3.org/2000/svg" width="300" height="300" viewBox="0 0 300 300">
<path d="M 91.25 102.5 L 87.5 103.75 L 83.75 103.75 L 83.75 103.75 L 92.5 103.75 L 107.5 100.0 L 122.5 95.0 L 132.5 91.25 L 130.0 91.25 L 126.25 92.5 " stroke="black" fill="none" stroke-width="6.0" stroke-linecap="round" stroke-linejoin="round" />
<path d="M 83.75 118.75 L 82.5 120.0 L 80.0 126.25 L 80.0 138.75 L 82.5 160.0 L 83.75 181.25 L 83.75 190.0 L 81.25 191.25 L 81.25 190.0 " stroke="black" fill="none" stroke-width="6.0" stroke-linecap="round" stroke-linejoin="round" />
<path d="M 86.25 152.5 L 85.0 152.5 L 85.0 152.5 L 93.75 147.5 L 111.25 140.0 L 130.0 130.0 L 137.5 123.75 L 136.25 123.75 L 126.25 128.75 L 117.5 135.0 L 112.5 140.0 L 111.25 150.0 L 113.75 175.0 L 117.5 210.0 L 116.25 233.75 L 111.25 238.75 L 106.25 236.25 L 103.75 225.0 " stroke="black" fill="none" stroke-width="6.0" stroke-linecap="round" stroke-linejoin="round" />
<path d="M 161.25 78.75 L 161.25 77.5 L 161.25 73.75 L 162.5 73.75 L 165.0 78.75 L 165.0 96.25 L 165.0 115.0 L 165.0 125.0 L 168.75 127.5 L 183.75 121.25 L 201.25 110.0 L 218.75 102.5 L 230.0 98.75 L 232.5 100.0 L 227.5 106.25 L 213.75 121.25 L 202.5 136.25 L 193.75 146.25 L 190.0 148.75 " stroke="black" fill="none" stroke-width="6.0" stroke-linecap="round" stroke-linejoin="round" />
<path d="M 187.5 130.0 L 187.5 130.0 L 185.0 131.25 L 185.0 138.75 L 183.75 165.0 L 180.0 203.75 L 170.0 231.25 L 160.0 242.5 L 150.0 242.5 L 147.5 237.5 " stroke="black" fill="none" stroke-width="6.0" stroke-linecap="round" stroke-linejoin="round" />
<path d="M 183.75 172.5 L 183.75 173.75 L 185.0 178.75 L 193.75 187.5 L 208.75 203.75 L 230.0 226.25 L 251.25 245.0 L 263.75 253.75 L 270.0 260.0 L 272.5 261.25 L 273.75 262.5 " stroke="black" fill="none" stroke-width="6.0" stroke-linecap="round" stroke-linejoin="round" />
</svg>