<svg xmlns="http://www.w3.org/2000/svg" width="300" height="300" viewBox="0 0 300 300">
<path d="M 98.75 70.0 L 97.5 67.5 L 96.25 65.0 L 96.25 62.5 L 102.5 62.5 L 110.0 65.0 L 118.75 70.0 L 121.25 77.5 L 118.75 82.5 " stroke="black" fill="none" stroke-width="6.0" stroke-linecap="round" stroke-linejoin="round" />
<path d="M 62.5 110.0 L 55.0 116.25 L 42.5 125.0 L 41.25 127.5 L 48.75 127.5 L 71.25 118.75 L 97.5 102.5 L 121.25 87.5 L 133.75 78.75 L 133.75 76.25 L 122.5 78.75 L 110.0 83.75 L 100.0 91.25 L 92.5 102.5 L 90.0 126.25 L 90.0 157.5 L 90.0 172.5 L 90.0 173.75 " stroke="black" fill="none" stroke-width="6.0" stroke-linecap="round" stroke-linejoin="round" />
<path d="M 113.75 101.25 L 115.0 100.0 L 116.25 98.75 L 116.25 106.25 L 111.25 125.0 L 102.5 143.75 L 90.0 157.5 L 73.75 168.75 L 60.0 177.5 L 57.5 180.0 L 66.25 178.75 L 90.0 167.5 L 112.5 152.5 L 131.25 140.0 L 138.75 135.0 L 133.75 136.25 L 120.0 145.0 L 108.75 158.75 L 100.0 181.25 L 97.5 216.25 L 100.0 245.0 L 103.75 255.0 L 106.25 260.0 L 106.25 258.75 L 105.0 252.5 L 102.5 242.5 " stroke="black" fill="none" stroke-width="6.0" stroke-linecap="round" stroke-linejoin="round" />
<path d="M 108.75 178.75 L 108.75 177.5 L 110.0 176.25 L 116.25 175.0 L 125.0 177.5 L 137.5 197.5 L 140.0 221.25 L 135.0 241.25 L 127.5 250.0 L 121.25 250.0 L 118.75 248.75 " stroke="black" fill="none" stroke-width="6.0" stroke-linecap="round" stroke-linejoin="round" />
<path d="M 106.25 212.5 L 106.25 213.75 L 105.0 216.25 L 105.0 216.25 L 113.75 208.75 L 128.75 197.5 L 143.75 186.25 L 146.25 185.0 " stroke="black" fill="none" stroke-width="6.0" stroke-linecap="round" stroke-linejoin="round" />
<path d="M 110.0 251.25 L 110.0 252.5 L 105.0 257.5 L 106.25 257.5 L 121.25 250.0 L 140.0 232.5 L 148.75 221.25 " stroke="black" fill="none" stroke-width="6.0" stroke-linecap="round" stroke-linejoin="round" />
<path d="M 178.75 83.75 L 178.75 82.5 L 178.75 81.25 L 177.5 81.25 L 176.25 96.25 L 173.75 118.75 L 171.25 132.5 L 171.25 133.75 L 181.25 127.5 L 198.75 113.75 L 215.0 100.0 L 230.0 90.0 L 235.0 88.75 L 233.75 95.0 L 222.5 113.75 L 208.75 136.25 L 195.0 158.75 L 178.75 175.0 " stroke="black" fill="none" stroke-width="6.0" stroke-linecap="round" stroke-linejoin="round" />
<path d="M 186.25 140.0 L 186.25 138.75 L 185.0 138.75 L 185.0 146.25 L 182.5 172.5 L 175.0 205.0 L 167.5 223.75 L 156.25 235.0 L 148.75 237.5 L 147.5 235.0 " stroke="black" fill="none" stroke-width="6.0" stroke-linecap="round" stroke-linejoin="round" />
<path d="M 185.0 180.0 L 186.25 180.0 L 188.75 181.25 L 195.0 190.0 L 205.0 205.0 L 218.75 218.75 L 233.75 231.25 L 250.0 241.25 L 260.0 248.75 L 267.5 253.75 L 272.5 258.75 L 273.75 258.75 " stroke="black" fill="none" stroke-width="6.0" stroke-linecap="round" stroke-linejoin="round" />
</svg>