<svg xmlns="http://www.w3.org/2000/svg" width="300" height="300" viewBox="0 0 300 300">
<path d="M 125.0 95.0 L 121.25 98.75 L 118.75 101.25 L 125.0 105.0 L 142.5 107.5 L 165.0 105.0 L 186.25 97.5 L 195.0 91.25 L 192.5 90.0 " stroke="black" fill="none" stroke-width="6.0" stroke-linecap="round" stroke-linejoin="round" />
<path d="M 116.25 160.0 L 116.25 162.5 L 120.0 163.75 L 138.75 157.5 L 161.25 146.25 L 181.25 137.5 L 186.25 135.0 " stroke="black" fill="none" stroke-width="6.0" stroke-linecap="round" stroke-linejoin="round" />
<path d="M 102.5 213.75 L 101.25 222.5 L 108.75 223.75 L 137.5 212.5 L 170.0 197.5 L 197.5 180.0 L 206.25 166.25 " stroke="black" fill="none" stroke-width="6.0" stroke-linecap="round" stroke-linejoin="round" />
<path d="M 147.5 127.5 L 146.25 127.5 L 145.0 132.5 L 145.0 143.75 L 146.25 171.25 L 152.5 207.5 L 161.25 230.0 L 177.5 237.5 L 198.75 236.25 L 218.75 228.75 L 237.5 220.0 L 251.25 212.5 L 255.0 210.0 L 255.0 208.75 L 251.25 205.0 L 245.0 195.0 L 236.25 177.5 L 228.75 161.25 " stroke="black" fill="none" stroke-width="6.0" stroke-linecap="round" stroke-linejoin="round" />
</svg>