<svg xmlns="http://www.w3.org/2000/svg" width="300" height="300" viewBox="0 0 300 300">
<path d="M 62.5 147.5 L 62.5 148.75 L 61.25 151.25 L 68.75 151.25 L 83.75 146.25 L 98.75 135.0 L 112.5 121.25 L 120.0 111.25 L 121.25 107.5 L 116.25 107.5 L 108.75 108.75 L 103.75 111.25 L 98.75 115.0 L 96.25 118.75 L 96.25 131.25 L 98.75 162.5 L 105.0 210.0 L 106.25 243.75 L 106.25 255.0 L 105.0 255.0 L 103.75 255.0 L 100.0 246.25 L 97.5 233.75 L 96.25 217.5 L 95.0 202.5 L 95.0 191.25 L 95.0 181.25 L 97.5 175.0 L 96.25 175.0 L 92.5 185.0 L 83.75 201.25 L 72.5 216.25 L 60.0 230.0 L 53.75 231.25 " stroke="black" fill="none" stroke-width="6.0" stroke-linecap="round" stroke-linejoin="round" />
<path d="M 103.75 176.25 L 106.25 176.25 L 115.0 182.5 L 128.75 195.0 L 138.75 203.75 L 142.5 206.25 " stroke="black" fill="none" stroke-width="6.0" stroke-linecap="round" stroke-linejoin="round" />
<path d="M 141.25 162.5 L 138.75 163.75 L 137.5 165.0 L 145.0 160.0 L 158.75 148.75 L 180.0 131.25 L 198.75 117.5 L 205.0 113.75 L 203.75 126.25 L 196.25 155.0 L 186.25 192.5 L 175.0 225.0 L 167.5 241.25 L 163.75 243.75 L 158.75 241.25 L 157.5 238.75 " stroke="black" fill="none" stroke-width="6.0" stroke-linecap="round" stroke-linejoin="round" />
<path d="M 152.5 165.0 L 152.5 165.0 L 151.25 165.0 L 151.25 163.75 L 152.5 163.75 L 158.75 173.75 L 172.5 196.25 L 191.25 226.25 L 207.5 241.25 L 223.75 246.25 L 237.5 246.25 L 241.25 242.5 " stroke="black" fill="none" stroke-width="6.0" stroke-linecap="round" stroke-linejoin="round" />
<path d="M 170.0 160.0 L 170.0 160.0 L 167.5 160.0 L 167.5 160.0 L 170.0 163.75 L 180.0 175.0 L 182.5 178.75 " stroke="black" fill="none" stroke-width="6.0" stroke-linecap="round" stroke-linejoin="round" />
</svg>