<svg xmlns="http://www.w3.org/2000/svg" width="300" height="300" viewBox="0 0 300 300">
<path d="M 116.25 93.75 L 112.5 93.75 L 111.25 93.75 L 116.25 93.75 L 132.5 92.5 L 153.75 87.5 L 177.5 80.0 L 192.5 73.75 L 195.0 70.0 L 186.25 70.0 " stroke="black" fill="none" stroke-width="6.0" stroke-linecap="round" stroke-linejoin="round" />
<path d="M 116.25 115.0 L 112.5 118.75 L 111.25 120.0 L 120.0 120.0 L 136.25 115.0 L 156.25 105.0 L 171.25 96.25 L 177.5 91.25 L 168.75 92.5 L 157.5 96.25 " stroke="black" fill="none" stroke-width="6.0" stroke-linecap="round" stroke-linejoin="round" />
<path d="M 81.25 146.25 L 75.0 150.0 L 76.25 151.25 L 91.25 152.5 L 115.0 146.25 L 148.75 133.75 L 178.75 116.25 L 192.5 105.0 L 190.0 98.75 L 175.0 98.75 L 160.0 97.5 L 156.25 96.25 " stroke="black" fill="none" stroke-width="6.0" stroke-linecap="round" stroke-linejoin="round" />
<path d="M 133.75 68.75 L 133.75 68.75 L 135.0 68.75 L 136.25 76.25 L 132.5 111.25 L 117.5 156.25 L 96.25 196.25 L 75.0 220.0 L 57.5 231.25 L 46.25 228.75 L 45.0 212.5 L 46.25 207.5 " stroke="black" fill="none" stroke-width="6.0" stroke-linecap="round" stroke-linejoin="round" />
<path d="M 168.75 131.25 L 181.25 133.75 L 200.0 141.25 L 217.5 153.75 L 237.5 167.5 L 255.0 182.5 L 261.25 191.25 L 258.75 196.25 " stroke="black" fill="none" stroke-width="6.0" stroke-linecap="round" stroke-linejoin="round" />
<path d="M 148.75 173.75 L 148.75 171.25 L 147.5 165.0 L 147.5 163.75 L 148.75 170.0 L 152.5 198.75 L 153.75 235.0 L 155.0 262.5 L 153.75 270.0 L 151.25 268.75 L 147.5 260.0 L 143.75 247.5 L 136.25 236.25 L 133.75 233.75 " stroke="black" fill="none" stroke-width="6.0" stroke-linecap="round" stroke-linejoin="round" />
<path d="M 103.75 206.25 L 103.75 206.25 L 101.25 206.25 L 100.0 206.25 L 100.0 208.75 L 101.25 213.75 L 102.5 223.75 L 101.25 233.75 L 98.75 241.25 L 98.75 242.5 L 110.0 237.5 L 131.25 222.5 L 156.25 206.25 L 180.0 193.75 L 191.25 191.25 L 193.75 195.0 L 192.5 207.5 L 192.5 220.0 L 196.25 228.75 L 210.0 231.25 L 228.75 227.5 L 240.0 227.5 L 241.25 238.75 L 227.5 258.75 L 215.0 276.25 L 210.0 285.0 " stroke="black" fill="none" stroke-width="6.0" stroke-linecap="round" stroke-linejoin="round" />
</svg>