<svg xmlns="http://www.w3.org/2000/svg" width="300" height="300" viewBox="0 0 300 300">
<path d="M 85.0 120.0 L 82.5 122.5 L 80.0 125.0 L 82.5 125.0 L 92.5 125.0 L 105.0 122.5 L 117.5 118.75 L 126.25 115.0 L 127.5 115.0 " stroke="black" fill="none" stroke-width="6.0" stroke-linecap="round" stroke-linejoin="round" />
<path d="M 85.0 162.5 L 82.5 165.0 L 80.0 168.75 L 82.5 168.75 L 93.75 162.5 L 107.5 155.0 L 121.25 146.25 L 125.0 143.75 L 125.0 143.75 " stroke="black" fill="none" stroke-width="6.0" stroke-linecap="round" stroke-linejoin="round" />
<path d="M 88.75 226.25 L 87.5 228.75 L 86.25 232.5 L 90.0 227.5 L 103.75 207.5 L 121.25 178.75 " stroke="black" fill="none" stroke-width="6.0" stroke-linecap="round" stroke-linejoin="round" />
<path d="M 141.25 117.5 L 140.0 118.75 L 140.0 118.75 L 151.25 116.25 L 170.0 108.75 L 193.75 100.0 L 203.75 95.0 L 203.75 93.75 L 193.75 100.0 L 178.75 110.0 L 161.25 123.75 L 146.25 142.5 L 140.0 158.75 L 141.25 176.25 L 148.75 193.75 L 157.5 203.75 L 165.0 208.75 L 166.25 208.75 L 166.25 208.75 L 163.75 207.5 L 158.75 206.25 L 152.5 203.75 L 148.75 201.25 L 147.5 196.25 L 155.0 188.75 L 173.75 175.0 L 202.5 157.5 L 226.25 146.25 L 237.5 145.0 L 236.25 151.25 L 223.75 167.5 L 208.75 185.0 L 197.5 195.0 L 192.5 197.5 " stroke="black" fill="none" stroke-width="6.0" stroke-linecap="round" stroke-linejoin="round" />
<path d="M 193.75 95.0 L 190.0 90.0 L 188.75 87.5 L 188.75 88.75 L 191.25 107.5 L 193.75 157.5 L 193.75 220.0 L 192.5 252.5 L 192.5 261.25 L 192.5 262.5 " stroke="black" fill="none" stroke-width="6.0" stroke-linecap="round" stroke-linejoin="round" />
</svg>