<svg xmlns="http://www.w3.org/2000/svg" width="300" height="300" viewBox="0 0 300 300">
<path d="M 85.0 102.5 L 82.5 103.75 L 78.75 106.25 L 78.75 106.25 L 86.25 106.25 L 98.75 102.5 L 113.75 95.0 L 120.0 90.0 " stroke="black" fill="none" stroke-width="6.0" stroke-linecap="round" stroke-linejoin="round" />
<path d="M 76.25 151.25 L 70.0 156.25 L 71.25 157.5 L 83.75 155.0 L 98.75 145.0 L 115.0 132.5 L 125.0 123.75 L 122.5 123.75 " stroke="black" fill="none" stroke-width="6.0" stroke-linecap="round" stroke-linejoin="round" />
<path d="M 83.75 197.5 L 77.5 210.0 L 78.75 211.25 L 87.5 211.25 L 101.25 201.25 L 120.0 186.25 L 130.0 175.0 " stroke="black" fill="none" stroke-width="6.0" stroke-linecap="round" stroke-linejoin="round" />
<path d="M 166.25 105.0 L 158.75 107.5 L 157.5 107.5 L 166.25 105.0 L 183.75 97.5 L 198.75 88.75 L 208.75 82.5 L 208.75 81.25 " stroke="black" fill="none" stroke-width="6.0" stroke-linecap="round" stroke-linejoin="round" />
<path d="M 150.0 183.75 L 148.75 188.75 L 151.25 190.0 L 168.75 176.25 L 195.0 150.0 L 215.0 126.25 L 217.5 113.75 L 210.0 111.25 L 190.0 112.5 L 178.75 113.75 L 173.75 113.75 L 175.0 113.75 L 182.5 123.75 L 191.25 146.25 L 196.25 178.75 L 195.0 208.75 L 186.25 222.5 L 177.5 228.75 L 167.5 231.25 L 160.0 231.25 L 158.75 231.25 L 158.75 228.75 L 158.75 227.5 L 158.75 227.5 L 160.0 226.25 L 162.5 226.25 L 170.0 225.0 L 181.25 222.5 L 197.5 218.75 L 218.75 213.75 L 240.0 207.5 L 255.0 203.75 L 260.0 201.25 " stroke="black" fill="none" stroke-width="6.0" stroke-linecap="round" stroke-linejoin="round" />
</svg>