<svg xmlns="http://www.w3.org/2000/svg" width="300" height="300" viewBox="0 0 300 300">
<path d="M 91.25 138.75 L 87.5 138.75 L 83.75 140.0 L 82.5 140.0 L 90.0 140.0 L 100.0 138.75 L 111.25 135.0 L 121.25 131.25 L 123.75 128.75 " stroke="black" fill="none" stroke-width="6.0" stroke-linecap="round" stroke-linejoin="round" />
<path d="M 82.5 196.25 L 77.5 200.0 L 77.5 201.25 L 85.0 197.5 L 97.5 188.75 L 112.5 178.75 L 121.25 170.0 L 121.25 168.75 " stroke="black" fill="none" stroke-width="6.0" stroke-linecap="round" stroke-linejoin="round" />
<path d="M 91.25 232.5 L 86.25 238.75 L 85.0 241.25 L 92.5 237.5 L 106.25 222.5 L 123.75 203.75 L 128.75 198.75 " stroke="black" fill="none" stroke-width="6.0" stroke-linecap="round" stroke-linejoin="round" />
<path d="M 176.25 113.75 L 175.0 113.75 L 173.75 118.75 L 173.75 142.5 L 176.25 182.5 L 176.25 211.25 L 176.25 220.0 L 176.25 218.75 L 177.5 211.25 L 176.25 203.75 " stroke="black" fill="none" stroke-width="6.0" stroke-linecap="round" stroke-linejoin="round" />
<path d="M 176.25 171.25 L 176.25 171.25 L 175.0 171.25 L 177.5 170.0 L 192.5 161.25 L 210.0 150.0 L 218.75 141.25 L 216.25 140.0 L 211.25 142.5 " stroke="black" fill="none" stroke-width="6.0" stroke-linecap="round" stroke-linejoin="round" />
<path d="M 147.5 173.75 L 145.0 173.75 L 143.75 175.0 L 143.75 178.75 L 145.0 193.75 L 146.25 215.0 L 147.5 230.0 L 147.5 235.0 L 148.75 235.0 L 153.75 235.0 L 162.5 232.5 L 177.5 228.75 L 195.0 225.0 L 212.5 220.0 L 227.5 215.0 L 236.25 211.25 L 238.75 210.0 L 237.5 210.0 L 230.0 210.0 L 227.5 210.0 " stroke="black" fill="none" stroke-width="6.0" stroke-linecap="round" stroke-linejoin="round" />
</svg>