<svg xmlns="http://www.w3.org/2000/svg" width="300" height="300" viewBox="0 0 300 300">
<path d="M 90.0 122.5 L 88.75 123.75 L 85.0 126.25 L 86.25 127.5 L 93.75 128.75 L 105.0 128.75 L 116.25 127.5 L 117.5 127.5 " stroke="black" fill="none" stroke-width="6.0" stroke-linecap="round" stroke-linejoin="round" />
<path d="M 87.5 166.25 L 85.0 168.75 L 83.75 172.5 L 88.75 172.5 L 98.75 166.25 L 112.5 157.5 L 122.5 151.25 L 123.75 150.0 " stroke="black" fill="none" stroke-width="6.0" stroke-linecap="round" stroke-linejoin="round" />
<path d="M 87.5 241.25 L 87.5 243.75 L 85.0 247.5 L 88.75 242.5 L 102.5 223.75 L 121.25 197.5 L 126.25 192.5 " stroke="black" fill="none" stroke-width="6.0" stroke-linecap="round" stroke-linejoin="round" />
<path d="M 151.25 117.5 L 150.0 120.0 L 152.5 120.0 L 166.25 113.75 L 186.25 102.5 L 202.5 91.25 L 205.0 87.5 L 197.5 88.75 " stroke="black" fill="none" stroke-width="6.0" stroke-linecap="round" stroke-linejoin="round" />
<path d="M 171.25 88.75 L 172.5 86.25 L 172.5 85.0 L 172.5 86.25 L 175.0 98.75 L 176.25 123.75 L 172.5 146.25 L 165.0 157.5 L 156.25 162.5 L 148.75 166.25 L 142.5 168.75 L 142.5 168.75 L 147.5 166.25 L 162.5 158.75 L 182.5 148.75 L 200.0 141.25 L 210.0 136.25 L 211.25 136.25 L 192.5 162.5 L 176.25 187.5 L 160.0 213.75 L 151.25 233.75 L 152.5 240.0 L 161.25 238.75 L 176.25 232.5 L 193.75 221.25 L 206.25 213.75 L 212.5 208.75 L 213.75 208.75 L 212.5 208.75 L 210.0 208.75 L 208.75 206.25 L 206.25 205.0 L 203.75 201.25 L 202.5 198.75 L 202.5 196.25 L 202.5 195.0 L 202.5 195.0 L 205.0 201.25 L 212.5 216.25 L 225.0 236.25 L 236.25 250.0 L 242.5 256.25 L 248.75 261.25 L 250.0 261.25 " stroke="black" fill="none" stroke-width="6.0" stroke-linecap="round" stroke-linejoin="round" />
</svg>