<svg xmlns="http://www.w3.org/2000/svg" width="300" height="300" viewBox="0 0 300 300">
<path d="M 153.75 91.25 L 153.75 93.75 L 153.75 106.25 L 157.5 148.75 L 161.25 200.0 L 163.75 232.5 L 165.0 238.75 L 165.0 238.75 L 165.0 238.75 L 162.5 233.75 L 155.0 222.5 L 145.0 207.5 L 131.25 193.75 L 126.25 191.25 " stroke="black" fill="none" stroke-width="6.0" stroke-linecap="round" stroke-linejoin="round" />
<path d="M 76.25 158.75 L 75.0 158.75 L 73.75 157.5 L 76.25 157.5 L 85.0 161.25 L 98.75 166.25 L 108.75 175.0 L 112.5 188.75 L 103.75 206.25 L 92.5 218.75 L 87.5 223.75 L 90.0 218.75 L 108.75 201.25 L 140.0 172.5 L 176.25 141.25 L 201.25 125.0 L 206.25 121.25 L 206.25 123.75 L 202.5 138.75 L 200.0 160.0 L 201.25 182.5 L 211.25 193.75 L 223.75 198.75 L 235.0 205.0 L 237.5 217.5 L 230.0 238.75 L 215.0 262.5 L 201.25 285.0 " stroke="black" fill="none" stroke-width="6.0" stroke-linecap="round" stroke-linejoin="round" />
</svg>