<svg xmlns="http://www.w3.org/2000/svg" width="300" height="300" viewBox="0 0 300 300">
<path d="M 112.5 81.25 L 112.5 78.75 L 110.0 77.5 L 108.75 77.5 L 111.25 81.25 L 120.0 87.5 L 135.0 90.0 L 155.0 85.0 L 175.0 68.75 L 183.75 57.5 L 181.25 55.0 L 166.25 61.25 L 155.0 70.0 " stroke="black" fill="none" stroke-width="6.0" stroke-linecap="round" stroke-linejoin="round" />
<path d="M 117.5 126.25 L 117.5 126.25 L 118.75 126.25 L 125.0 123.75 L 143.75 113.75 L 161.25 102.5 L 170.0 95.0 L 165.0 95.0 " stroke="black" fill="none" stroke-width="6.0" stroke-linecap="round" stroke-linejoin="round" />
<path d="M 106.25 156.25 L 103.75 157.5 L 102.5 158.75 L 111.25 156.25 L 133.75 146.25 L 158.75 130.0 L 181.25 115.0 L 192.5 111.25 L 195.0 118.75 L 197.5 141.25 L 207.5 178.75 L 225.0 218.75 L 247.5 242.5 L 262.5 248.75 L 268.75 250.0 L 270.0 250.0 L 267.5 247.5 L 261.25 242.5 L 250.0 235.0 L 242.5 230.0 " stroke="black" fill="none" stroke-width="6.0" stroke-linecap="round" stroke-linejoin="round" />
<path d="M 128.75 165.0 L 126.25 163.75 L 125.0 163.75 L 126.25 170.0 L 131.25 185.0 L 135.0 190.0 " stroke="black" fill="none" stroke-width="6.0" stroke-linecap="round" stroke-linejoin="round" />
<path d="M 175.0 141.25 L 175.0 140.0 L 175.0 141.25 L 168.75 151.25 L 155.0 173.75 L 136.25 195.0 L 115.0 207.5 L 100.0 213.75 L 97.5 215.0 L 108.75 211.25 L 135.0 200.0 L 160.0 185.0 L 180.0 171.25 L 186.25 162.5 L 182.5 161.25 L 170.0 160.0 L 158.75 160.0 L 150.0 160.0 L 147.5 160.0 L 148.75 168.75 L 155.0 197.5 L 161.25 235.0 L 163.75 257.5 L 161.25 261.25 L 156.25 261.25 L 147.5 257.5 L 137.5 252.5 L 128.75 247.5 L 127.5 243.75 L 135.0 238.75 L 153.75 230.0 L 181.25 216.25 L 202.5 206.25 " stroke="black" fill="none" stroke-width="6.0" stroke-linecap="round" stroke-linejoin="round" />
</svg>