<svg xmlns="http://www.w3.org/2000/svg" width="300" height="300" viewBox="0 0 300 300">
<path d="M 121.25 66.25 L 117.5 66.25 L 115.0 66.25 L 121.25 65.0 L 136.25 62.5 L 152.5 57.5 L 168.75 51.25 L 175.0 48.75 L 167.5 50.0 L 163.75 51.25 " stroke="black" fill="none" stroke-width="6.0" stroke-linecap="round" stroke-linejoin="round" />
<path d="M 121.25 92.5 L 115.0 106.25 L 115.0 128.75 L 116.25 143.75 L 118.75 150.0 L 120.0 150.0 L 120.0 143.75 " stroke="black" fill="none" stroke-width="6.0" stroke-linecap="round" stroke-linejoin="round" />
<path d="M 120.0 96.25 L 120.0 96.25 L 122.5 95.0 L 137.5 92.5 L 158.75 90.0 L 181.25 91.25 L 190.0 101.25 L 186.25 116.25 L 171.25 132.5 L 158.75 140.0 L 147.5 142.5 L 137.5 141.25 L 136.25 140.0 " stroke="black" fill="none" stroke-width="6.0" stroke-linecap="round" stroke-linejoin="round" />
<path d="M 120.0 127.5 L 120.0 127.5 L 118.75 127.5 L 123.75 126.25 L 137.5 120.0 L 156.25 111.25 L 170.0 105.0 L 172.5 103.75 L 160.0 111.25 L 155.0 116.25 " stroke="black" fill="none" stroke-width="6.0" stroke-linecap="round" stroke-linejoin="round" />
<path d="M 122.5 153.75 L 118.75 156.25 L 118.75 156.25 L 132.5 152.5 L 148.75 142.5 L 166.25 131.25 L 177.5 123.75 L 177.5 121.25 L 170.0 125.0 L 162.5 130.0 L 157.5 136.25 L 155.0 147.5 L 157.5 175.0 L 161.25 211.25 L 163.75 233.75 L 165.0 240.0 L 163.75 240.0 L 161.25 237.5 L 157.5 235.0 L 150.0 230.0 L 140.0 222.5 L 126.25 215.0 L 122.5 212.5 " stroke="black" fill="none" stroke-width="6.0" stroke-linecap="round" stroke-linejoin="round" />
<path d="M 98.75 180.0 L 97.5 180.0 L 93.75 178.75 L 93.75 178.75 L 96.25 180.0 L 101.25 186.25 L 106.25 195.0 L 105.0 206.25 L 98.75 217.5 L 95.0 221.25 L 93.75 220.0 L 111.25 203.75 L 138.75 182.5 L 170.0 156.25 L 197.5 142.5 L 203.75 141.25 L 202.5 148.75 L 197.5 166.25 L 195.0 180.0 L 198.75 188.75 L 211.25 190.0 L 226.25 190.0 L 232.5 195.0 L 227.5 208.75 L 212.5 228.75 L 202.5 247.5 L 198.75 252.5 " stroke="black" fill="none" stroke-width="6.0" stroke-linecap="round" stroke-linejoin="round" />
</svg>