<svg xmlns="http://www.w3.org/2000/svg" width="300" height="300" viewBox="0 0 300 300">
<path d="M 110.0 91.25 L 110.0 92.5 L 108.75 92.5 L 113.75 95.0 L 133.75 95.0 L 158.75 93.75 L 181.25 92.5 L 188.75 92.5 L 180.0 97.5 L 160.0 111.25 L 138.75 125.0 L 117.5 136.25 L 100.0 146.25 L 98.75 147.5 L 112.5 147.5 L 136.25 140.0 L 158.75 127.5 L 172.5 117.5 L 171.25 115.0 L 163.75 116.25 " stroke="black" fill="none" stroke-width="6.0" stroke-linecap="round" stroke-linejoin="round" />
<path d="M 103.75 100.0 L 101.25 102.5 L 100.0 120.0 L 100.0 165.0 L 100.0 212.5 L 100.0 236.25 L 100.0 240.0 L 107.5 232.5 L 123.75 213.75 L 140.0 195.0 L 151.25 182.5 L 155.0 173.75 L 153.75 172.5 " stroke="black" fill="none" stroke-width="6.0" stroke-linecap="round" stroke-linejoin="round" />
<path d="M 111.25 185.0 L 108.75 187.5 L 107.5 188.75 L 120.0 185.0 L 137.5 176.25 L 173.75 152.5 L 192.5 140.0 L 190.0 138.75 " stroke="black" fill="none" stroke-width="6.0" stroke-linecap="round" stroke-linejoin="round" />
<path d="M 155.0 150.0 L 155.0 151.25 L 156.25 157.5 L 168.75 187.5 L 187.5 230.0 L 201.25 255.0 L 208.75 260.0 L 212.5 258.75 L 217.5 246.25 L 221.25 222.5 L 227.5 191.25 L 236.25 146.25 L 240.0 96.25 L 240.0 86.25 " stroke="black" fill="none" stroke-width="6.0" stroke-linecap="round" stroke-linejoin="round" />
</svg>