<svg xmlns="http://www.w3.org/2000/svg" width="300" height="300" viewBox="0 0 300 300">
<path d="M 93.75 105.0 L 88.75 106.25 L 87.5 107.5 L 91.25 107.5 L 101.25 107.5 L 115.0 107.5 L 121.25 107.5 " stroke="black" fill="none" stroke-width="6.0" stroke-linecap="round" stroke-linejoin="round" />
<path d="M 85.0 140.0 L 81.25 141.25 L 78.75 145.0 L 82.5 145.0 L 93.75 142.5 L 108.75 136.25 L 121.25 130.0 L 123.75 128.75 " stroke="black" fill="none" stroke-width="6.0" stroke-linecap="round" stroke-linejoin="round" />
<path d="M 81.25 212.5 L 78.75 217.5 L 80.0 218.75 L 91.25 211.25 L 108.75 195.0 L 128.75 168.75 " stroke="black" fill="none" stroke-width="6.0" stroke-linecap="round" stroke-linejoin="round" />
<path d="M 145.0 133.75 L 141.25 136.25 L 138.75 140.0 L 148.75 138.75 L 173.75 126.25 L 207.5 103.75 L 235.0 86.25 L 242.5 80.0 L 236.25 78.75 L 221.25 81.25 L 206.25 85.0 L 195.0 86.25 L 186.25 86.25 L 185.0 85.0 L 185.0 81.25 L 187.5 78.75 L 190.0 77.5 L 191.25 77.5 L 193.75 86.25 L 196.25 118.75 L 198.75 176.25 L 201.25 225.0 L 203.75 245.0 L 203.75 250.0 L 202.5 250.0 L 196.25 246.25 L 187.5 235.0 L 177.5 216.25 " stroke="black" fill="none" stroke-width="6.0" stroke-linecap="round" stroke-linejoin="round" />
<path d="M 196.25 133.75 L 192.5 133.75 L 181.25 146.25 L 161.25 176.25 L 145.0 202.5 L 136.25 210.0 L 133.75 203.75 L 133.75 201.25 " stroke="black" fill="none" stroke-width="6.0" stroke-linecap="round" stroke-linejoin="round" />
<path d="M 192.5 140.0 L 192.5 140.0 L 196.25 141.25 L 213.75 157.5 L 237.5 182.5 L 253.75 195.0 L 262.5 200.0 L 266.25 202.5 L 266.25 203.75 " stroke="black" fill="none" stroke-width="6.0" stroke-linecap="round" stroke-linejoin="round" />
</svg>