<svg xmlns="http://www.w3.org/2000/svg" width="300" height="300" viewBox="0 0 300 300">
<path d="M 73.75 98.75 L 73.75 100.0 L 77.5 102.5 L 87.5 107.5 L 101.25 111.25 L 111.25 113.75 " stroke="black" fill="none" stroke-width="6.0" stroke-linecap="round" stroke-linejoin="round" />
<path d="M 65.0 145.0 L 63.75 146.25 L 60.0 150.0 L 62.5 151.25 L 75.0 151.25 L 90.0 150.0 L 103.75 147.5 L 107.5 146.25 " stroke="black" fill="none" stroke-width="6.0" stroke-linecap="round" stroke-linejoin="round" />
<path d="M 67.5 216.25 L 66.25 218.75 L 60.0 226.25 L 61.25 226.25 L 78.75 211.25 L 100.0 188.75 L 118.75 165.0 " stroke="black" fill="none" stroke-width="6.0" stroke-linecap="round" stroke-linejoin="round" />
<path d="M 147.5 83.75 L 146.25 85.0 L 145.0 90.0 L 147.5 115.0 L 152.5 146.25 L 153.75 157.5 " stroke="black" fill="none" stroke-width="6.0" stroke-linecap="round" stroke-linejoin="round" />
<path d="M 147.5 123.75 L 147.5 123.75 L 145.0 122.5 L 146.25 120.0 L 161.25 112.5 L 185.0 102.5 L 203.75 92.5 L 203.75 92.5 " stroke="black" fill="none" stroke-width="6.0" stroke-linecap="round" stroke-linejoin="round" />
<path d="M 117.5 178.75 L 116.25 183.75 L 117.5 192.5 L 131.25 206.25 L 147.5 220.0 L 161.25 227.5 L 166.25 228.75 L 165.0 228.75 L 160.0 227.5 L 152.5 225.0 L 142.5 220.0 L 133.75 213.75 L 130.0 205.0 L 133.75 195.0 L 151.25 181.25 L 180.0 165.0 L 202.5 157.5 L 212.5 160.0 L 210.0 175.0 L 198.75 197.5 L 181.25 218.75 L 167.5 235.0 L 168.75 236.25 L 186.25 226.25 L 207.5 207.5 L 226.25 191.25 L 230.0 186.25 " stroke="black" fill="none" stroke-width="6.0" stroke-linecap="round" stroke-linejoin="round" />
</svg>