<svg xmlns="http://www.w3.org/2000/svg" width="300" height="300" viewBox="0 0 300 300">
<path d="M 77.5 90.0 L 76.25 90.0 L 75.0 93.75 L 77.5 96.25 L 86.25 100.0 L 97.5 103.75 L 103.75 107.5 L 105.0 110.0 " stroke="black" fill="none" stroke-width="6.0" stroke-linecap="round" stroke-linejoin="round" />
<path d="M 62.5 136.25 L 60.0 138.75 L 57.5 141.25 L 61.25 143.75 L 71.25 146.25 L 83.75 147.5 L 95.0 146.25 L 96.25 146.25 " stroke="black" fill="none" stroke-width="6.0" stroke-linecap="round" stroke-linejoin="round" />
<path d="M 75.0 248.75 L 70.0 252.5 L 68.75 253.75 L 76.25 243.75 L 90.0 226.25 L 106.25 201.25 " stroke="black" fill="none" stroke-width="6.0" stroke-linecap="round" stroke-linejoin="round" />
<path d="M 172.5 77.5 L 172.5 77.5 L 171.25 76.25 L 171.25 86.25 L 175.0 117.5 L 177.5 146.25 L 180.0 153.75 L 180.0 153.75 L 178.75 153.75 L 172.5 151.25 L 166.25 148.75 L 157.5 145.0 L 148.75 141.25 L 140.0 136.25 L 136.25 133.75 L 135.0 133.75 L 138.75 133.75 L 151.25 132.5 L 172.5 126.25 L 198.75 113.75 L 221.25 102.5 L 236.25 96.25 L 241.25 96.25 L 241.25 96.25 L 236.25 103.75 L 225.0 123.75 L 208.75 156.25 L 186.25 201.25 L 156.25 242.5 L 137.5 263.75 L 123.75 270.0 L 115.0 268.75 " stroke="black" fill="none" stroke-width="6.0" stroke-linecap="round" stroke-linejoin="round" />
</svg>