<svg xmlns="http://www.w3.org/2000/svg" width="300" height="300" viewBox="0 0 300 300">
<path d="M 76.25 106.25 L 75.0 106.25 L 71.25 107.5 L 71.25 108.75 L 80.0 108.75 L 91.25 106.25 L 102.5 103.75 L 108.75 101.25 " stroke="black" fill="none" stroke-width="6.0" stroke-linecap="round" stroke-linejoin="round" />
<path d="M 73.75 166.25 L 68.75 170.0 L 67.5 171.25 L 76.25 168.75 L 88.75 161.25 L 98.75 152.5 L 103.75 145.0 L 103.75 143.75 " stroke="black" fill="none" stroke-width="6.0" stroke-linecap="round" stroke-linejoin="round" />
<path d="M 81.25 221.25 L 80.0 223.75 L 75.0 232.5 L 77.5 232.5 L 87.5 217.5 L 100.0 196.25 L 112.5 167.5 L 116.25 161.25 " stroke="black" fill="none" stroke-width="6.0" stroke-linecap="round" stroke-linejoin="round" />
<path d="M 141.25 121.25 L 138.75 122.5 L 138.75 123.75 L 148.75 118.75 L 166.25 108.75 L 192.5 97.5 L 210.0 92.5 L 212.5 93.75 L 208.75 105.0 L 198.75 122.5 L 186.25 136.25 L 173.75 141.25 " stroke="black" fill="none" stroke-width="6.0" stroke-linecap="round" stroke-linejoin="round" />
<path d="M 132.5 135.0 L 131.25 132.5 L 130.0 130.0 L 130.0 130.0 L 133.75 140.0 L 137.5 167.5 L 137.5 208.75 L 137.5 235.0 L 135.0 240.0 " stroke="black" fill="none" stroke-width="6.0" stroke-linecap="round" stroke-linejoin="round" />
<path d="M 163.75 75.0 L 163.75 75.0 L 162.5 76.25 L 165.0 95.0 L 167.5 137.5 L 167.5 170.0 L 166.25 181.25 L 163.75 183.75 L 160.0 185.0 L 160.0 185.0 L 160.0 185.0 L 165.0 178.75 L 175.0 170.0 L 187.5 161.25 L 197.5 156.25 L 201.25 155.0 L 198.75 167.5 L 186.25 190.0 L 172.5 211.25 L 160.0 227.5 L 152.5 233.75 L 151.25 232.5 L 150.0 231.25 " stroke="black" fill="none" stroke-width="6.0" stroke-linecap="round" stroke-linejoin="round" />
<path d="M 152.5 197.5 L 152.5 197.5 L 151.25 195.0 L 150.0 193.75 L 150.0 192.5 L 150.0 192.5 L 151.25 191.25 L 152.5 191.25 L 155.0 192.5 L 157.5 195.0 L 161.25 197.5 L 166.25 202.5 L 175.0 208.75 L 191.25 222.5 L 210.0 237.5 L 227.5 248.75 L 245.0 256.25 L 257.5 257.5 L 261.25 257.5 " stroke="black" fill="none" stroke-width="6.0" stroke-linecap="round" stroke-linejoin="round" />
</svg>