<svg xmlns="http://www.w3.org/2000/svg" width="300" height="300" viewBox="0 0 300 300">
<path d="M 82.5 108.75 L 80.0 110.0 L 78.75 110.0 L 77.5 111.25 L 85.0 111.25 L 95.0 110.0 L 103.75 108.75 L 106.25 107.5 " stroke="black" fill="none" stroke-width="6.0" stroke-linecap="round" stroke-linejoin="round" />
<path d="M 71.25 147.5 L 70.0 148.75 L 67.5 151.25 L 70.0 151.25 L 82.5 148.75 L 96.25 143.75 L 106.25 141.25 " stroke="black" fill="none" stroke-width="6.0" stroke-linecap="round" stroke-linejoin="round" />
<path d="M 80.0 217.5 L 76.25 223.75 L 72.5 231.25 L 76.25 230.0 L 92.5 217.5 L 111.25 197.5 L 118.75 185.0 " stroke="black" fill="none" stroke-width="6.0" stroke-linecap="round" stroke-linejoin="round" />
<path d="M 147.5 88.75 L 147.5 88.75 L 146.25 90.0 L 151.25 90.0 L 168.75 88.75 L 188.75 86.25 L 200.0 85.0 L 200.0 88.75 L 187.5 101.25 L 168.75 120.0 L 151.25 136.25 L 141.25 145.0 L 141.25 145.0 L 148.75 142.5 L 163.75 132.5 L 181.25 120.0 L 192.5 110.0 L 193.75 106.25 " stroke="black" fill="none" stroke-width="6.0" stroke-linecap="round" stroke-linejoin="round" />
<path d="M 138.75 101.25 L 138.75 103.75 L 138.75 121.25 L 138.75 166.25 L 136.25 212.5 L 128.75 242.5 L 123.75 251.25 L 121.25 246.25 L 121.25 242.5 " stroke="black" fill="none" stroke-width="6.0" stroke-linecap="round" stroke-linejoin="round" />
<path d="M 203.75 131.25 L 203.75 131.25 L 202.5 132.5 L 197.5 143.75 L 182.5 170.0 L 163.75 197.5 L 147.5 207.5 L 145.0 207.5 " stroke="black" fill="none" stroke-width="6.0" stroke-linecap="round" stroke-linejoin="round" />
<path d="M 161.25 151.25 L 161.25 151.25 L 160.0 155.0 L 160.0 173.75 L 163.75 205.0 L 173.75 222.5 L 192.5 231.25 L 211.25 231.25 L 230.0 227.5 L 242.5 225.0 L 247.5 222.5 L 247.5 221.25 L 247.5 218.75 L 247.5 212.5 L 247.5 203.75 L 247.5 191.25 L 248.75 170.0 L 247.5 142.5 " stroke="black" fill="none" stroke-width="6.0" stroke-linecap="round" stroke-linejoin="round" />
</svg>