<svg xmlns="http://www.w3.org/2000/svg" width="300" height="300" viewBox="0 0 300 300">
<path d="M 83.75 108.75 L 82.5 108.75 L 82.5 111.25 L 86.25 111.25 L 96.25 111.25 L 110.0 108.75 L 123.75 103.75 L 125.0 102.5 " stroke="black" fill="none" stroke-width="6.0" stroke-linecap="round" stroke-linejoin="round" />
<path d="M 80.0 168.75 L 78.75 171.25 L 78.75 172.5 L 85.0 171.25 L 97.5 161.25 L 112.5 150.0 L 120.0 143.75 " stroke="black" fill="none" stroke-width="6.0" stroke-linecap="round" stroke-linejoin="round" />
<path d="M 85.0 231.25 L 82.5 232.5 L 82.5 228.75 L 92.5 210.0 L 105.0 187.5 L 126.25 153.75 " stroke="black" fill="none" stroke-width="6.0" stroke-linecap="round" stroke-linejoin="round" />
<path d="M 168.75 67.5 L 170.0 62.5 L 170.0 60.0 L 170.0 61.25 L 166.25 70.0 L 162.5 81.25 L 162.5 87.5 L 168.75 88.75 L 182.5 86.25 L 198.75 80.0 L 206.25 77.5 L 206.25 86.25 L 193.75 110.0 L 168.75 145.0 L 143.75 176.25 L 120.0 197.5 L 103.75 200.0 L 100.0 196.25 " stroke="black" fill="none" stroke-width="6.0" stroke-linecap="round" stroke-linejoin="round" />
<path d="M 135.0 117.5 L 135.0 117.5 L 141.25 121.25 L 160.0 130.0 L 190.0 141.25 L 216.25 150.0 L 241.25 152.5 L 253.75 155.0 L 255.0 157.5 L 251.25 161.25 " stroke="black" fill="none" stroke-width="6.0" stroke-linecap="round" stroke-linejoin="round" />
<path d="M 142.5 186.25 L 141.25 187.5 L 141.25 190.0 L 147.5 198.75 L 160.0 215.0 L 171.25 227.5 L 177.5 232.5 L 177.5 232.5 L 175.0 228.75 L 168.75 225.0 L 161.25 220.0 L 153.75 213.75 L 147.5 207.5 L 146.25 202.5 L 153.75 197.5 L 175.0 190.0 L 201.25 183.75 L 220.0 178.75 L 230.0 176.25 L 230.0 181.25 L 220.0 193.75 L 206.25 210.0 L 192.5 227.5 L 183.75 238.75 L 185.0 240.0 L 197.5 235.0 L 213.75 223.75 L 230.0 211.25 L 245.0 200.0 L 247.5 198.75 " stroke="black" fill="none" stroke-width="6.0" stroke-linecap="round" stroke-linejoin="round" />
</svg>