<svg xmlns="http://www.w3.org/2000/svg" width="300" height="300" viewBox="0 0 300 300">
<path d="M 60.0 95.0 L 60.0 95.0 L 60.0 95.0 L 65.0 95.0 L 78.75 95.0 L 95.0 96.25 L 106.25 96.25 L 107.5 96.25 " stroke="black" fill="none" stroke-width="6.0" stroke-linecap="round" stroke-linejoin="round" />
<path d="M 62.5 150.0 L 58.75 153.75 L 57.5 155.0 L 65.0 152.5 L 81.25 145.0 L 95.0 136.25 L 105.0 130.0 L 105.0 130.0 " stroke="black" fill="none" stroke-width="6.0" stroke-linecap="round" stroke-linejoin="round" />
<path d="M 73.75 207.5 L 72.5 211.25 L 67.5 218.75 L 70.0 217.5 L 82.5 205.0 L 98.75 183.75 L 107.5 163.75 " stroke="black" fill="none" stroke-width="6.0" stroke-linecap="round" stroke-linejoin="round" />
<path d="M 135.0 83.75 L 133.75 82.5 L 133.75 82.5 L 133.75 90.0 L 137.5 101.25 L 146.25 107.5 L 162.5 103.75 L 180.0 90.0 L 191.25 78.75 L 193.75 70.0 L 186.25 68.75 L 175.0 70.0 L 171.25 70.0 " stroke="black" fill="none" stroke-width="6.0" stroke-linecap="round" stroke-linejoin="round" />
<path d="M 153.75 65.0 L 153.75 65.0 L 153.75 65.0 L 153.75 78.75 L 148.75 116.25 L 140.0 153.75 L 131.25 170.0 L 121.25 176.25 L 118.75 173.75 " stroke="black" fill="none" stroke-width="6.0" stroke-linecap="round" stroke-linejoin="round" />
<path d="M 150.0 120.0 L 152.5 118.75 L 156.25 118.75 L 166.25 125.0 L 180.0 136.25 L 195.0 147.5 L 201.25 155.0 L 200.0 157.5 " stroke="black" fill="none" stroke-width="6.0" stroke-linecap="round" stroke-linejoin="round" />
<path d="M 117.5 201.25 L 116.25 202.5 L 113.75 210.0 L 123.75 213.75 L 146.25 208.75 L 175.0 191.25 L 202.5 167.5 L 212.5 151.25 L 210.0 146.25 L 202.5 146.25 " stroke="black" fill="none" stroke-width="6.0" stroke-linecap="round" stroke-linejoin="round" />
<path d="M 158.75 175.0 L 157.5 182.5 L 155.0 200.0 L 151.25 220.0 L 143.75 241.25 L 135.0 253.75 L 121.25 258.75 L 115.0 256.25 " stroke="black" fill="none" stroke-width="6.0" stroke-linecap="round" stroke-linejoin="round" />
<path d="M 163.75 200.0 L 166.25 201.25 L 173.75 207.5 L 191.25 222.5 L 211.25 248.75 L 228.75 267.5 L 245.0 282.5 L 253.75 291.25 L 253.75 292.5 " stroke="black" fill="none" stroke-width="6.0" stroke-linecap="round" stroke-linejoin="round" />
</svg>