<svg xmlns="http://www.w3.org/2000/svg" width="300" height="300" viewBox="0 0 300 300">
<path d="M 81.25 101.25 L 78.75 101.25 L 75.0 102.5 L 75.0 102.5 L 81.25 102.5 L 93.75 101.25 L 106.25 98.75 L 110.0 98.75 " stroke="black" fill="none" stroke-width="6.0" stroke-linecap="round" stroke-linejoin="round" />
<path d="M 75.0 143.75 L 70.0 146.25 L 67.5 147.5 L 70.0 147.5 L 82.5 145.0 L 96.25 138.75 L 110.0 132.5 L 111.25 132.5 " stroke="black" fill="none" stroke-width="6.0" stroke-linecap="round" stroke-linejoin="round" />
<path d="M 81.25 218.75 L 77.5 222.5 L 73.75 226.25 L 80.0 222.5 L 95.0 207.5 L 115.0 181.25 L 125.0 165.0 " stroke="black" fill="none" stroke-width="6.0" stroke-linecap="round" stroke-linejoin="round" />
<path d="M 162.5 61.25 L 162.5 60.0 L 162.5 58.75 L 167.5 58.75 L 180.0 61.25 L 192.5 68.75 L 195.0 78.75 " stroke="black" fill="none" stroke-width="6.0" stroke-linecap="round" stroke-linejoin="round" />
<path d="M 135.0 101.25 L 133.75 101.25 L 132.5 102.5 L 137.5 110.0 L 147.5 127.5 L 157.5 146.25 L 161.25 153.75 L 161.25 153.75 " stroke="black" fill="none" stroke-width="6.0" stroke-linecap="round" stroke-linejoin="round" />
<path d="M 145.0 128.75 L 143.75 127.5 L 141.25 125.0 L 145.0 116.25 L 161.25 108.75 L 188.75 103.75 L 213.75 102.5 L 223.75 103.75 L 221.25 112.5 L 207.5 126.25 L 192.5 138.75 L 172.5 151.25 L 158.75 157.5 L 157.5 158.75 L 170.0 155.0 L 188.75 146.25 L 206.25 136.25 L 217.5 128.75 L 216.25 127.5 L 203.75 140.0 L 188.75 151.25 " stroke="black" fill="none" stroke-width="6.0" stroke-linecap="round" stroke-linejoin="round" />
<path d="M 140.0 207.5 L 136.25 212.5 L 141.25 212.5 L 161.25 200.0 L 195.0 173.75 L 222.5 147.5 L 235.0 136.25 L 231.25 133.75 L 220.0 138.75 " stroke="black" fill="none" stroke-width="6.0" stroke-linecap="round" stroke-linejoin="round" />
<path d="M 200.0 167.5 L 200.0 177.5 L 200.0 200.0 L 201.25 226.25 L 201.25 247.5 L 201.25 252.5 L 198.75 251.25 L 191.25 246.25 L 177.5 240.0 " stroke="black" fill="none" stroke-width="6.0" stroke-linecap="round" stroke-linejoin="round" />
<path d="M 140.0 212.5 L 140.0 213.75 L 138.75 218.75 L 145.0 231.25 L 155.0 248.75 L 168.75 257.5 L 171.25 257.5 " stroke="black" fill="none" stroke-width="6.0" stroke-linecap="round" stroke-linejoin="round" />
<path d="M 236.25 192.5 L 236.25 192.5 L 238.75 193.75 L 248.75 203.75 L 258.75 223.75 L 262.5 242.5 L 262.5 248.75 " stroke="black" fill="none" stroke-width="6.0" stroke-linecap="round" stroke-linejoin="round" />
</svg>