<svg xmlns="http://www.w3.org/2000/svg" width="300" height="300" viewBox="0 0 300 300">
<path d="M 81.25 96.25 L 80.0 96.25 L 77.5 96.25 L 76.25 96.25 L 76.25 97.5 L 85.0 100.0 L 96.25 102.5 L 107.5 103.75 L 107.5 106.25 " stroke="black" fill="none" stroke-width="6.0" stroke-linecap="round" stroke-linejoin="round" />
<path d="M 66.25 137.5 L 66.25 138.75 L 62.5 140.0 L 61.25 140.0 L 71.25 141.25 L 86.25 142.5 L 101.25 143.75 L 103.75 145.0 " stroke="black" fill="none" stroke-width="6.0" stroke-linecap="round" stroke-linejoin="round" />
<path d="M 75.0 217.5 L 71.25 225.0 L 71.25 226.25 L 80.0 220.0 L 98.75 202.5 L 113.75 186.25 " stroke="black" fill="none" stroke-width="6.0" stroke-linecap="round" stroke-linejoin="round" />
<path d="M 138.75 93.75 L 135.0 95.0 L 130.0 97.5 L 132.5 97.5 L 147.5 95.0 L 168.75 85.0 L 191.25 73.75 L 205.0 63.75 L 201.25 62.5 " stroke="black" fill="none" stroke-width="6.0" stroke-linecap="round" stroke-linejoin="round" />
<path d="M 147.5 76.25 L 147.5 76.25 L 146.25 77.5 L 146.25 86.25 L 150.0 115.0 L 152.5 143.75 L 153.75 151.25 L 155.0 148.75 L 163.75 141.25 L 175.0 130.0 L 187.5 120.0 L 196.25 112.5 L 198.75 110.0 L 198.75 110.0 L 196.25 111.25 L 193.75 112.5 L 192.5 112.5 L 191.25 113.75 L 191.25 113.75 L 191.25 113.75 L 191.25 113.75 L 191.25 113.75 L 191.25 113.75 L 190.0 113.75 L 188.75 112.5 L 187.5 112.5 L 187.5 112.5 L 187.5 112.5 L 187.5 112.5 L 190.0 113.75 L 198.75 120.0 L 208.75 132.5 L 210.0 135.0 " stroke="black" fill="none" stroke-width="6.0" stroke-linecap="round" stroke-linejoin="round" />
<path d="M 146.25 176.25 L 146.25 175.0 L 146.25 175.0 L 146.25 175.0 L 147.5 183.75 L 148.75 201.25 L 148.75 218.75 L 147.5 221.25 " stroke="black" fill="none" stroke-width="6.0" stroke-linecap="round" stroke-linejoin="round" />
<path d="M 167.5 166.25 L 167.5 166.25 L 168.75 167.5 L 171.25 180.0 L 172.5 202.5 L 172.5 218.75 L 167.5 221.25 L 166.25 220.0 " stroke="black" fill="none" stroke-width="6.0" stroke-linecap="round" stroke-linejoin="round" />
<path d="M 192.5 161.25 L 193.75 160.0 L 196.25 157.5 L 197.5 157.5 L 198.75 165.0 L 198.75 178.75 L 198.75 190.0 L 200.0 200.0 L 201.25 208.75 L 206.25 217.5 L 215.0 226.25 L 230.0 230.0 L 247.5 228.75 L 262.5 221.25 L 273.75 213.75 L 278.75 207.5 L 281.25 201.25 L 278.75 191.25 L 273.75 175.0 L 267.5 150.0 L 260.0 125.0 " stroke="black" fill="none" stroke-width="6.0" stroke-linecap="round" stroke-linejoin="round" />
</svg>