<svg xmlns="http://www.w3.org/2000/svg" width="300" height="300" viewBox="0 0 300 300">
<path d="M 77.5 117.5 L 72.5 117.5 L 71.25 117.5 L 75.0 117.5 L 87.5 116.25 L 98.75 113.75 L 106.25 111.25 " stroke="black" fill="none" stroke-width="6.0" stroke-linecap="round" stroke-linejoin="round" />
<path d="M 76.25 152.5 L 71.25 155.0 L 71.25 155.0 L 80.0 153.75 L 92.5 147.5 L 102.5 142.5 L 103.75 141.25 " stroke="black" fill="none" stroke-width="6.0" stroke-linecap="round" stroke-linejoin="round" />
<path d="M 73.75 217.5 L 70.0 225.0 L 67.5 230.0 L 71.25 226.25 L 86.25 210.0 L 101.25 188.75 L 108.75 175.0 " stroke="black" fill="none" stroke-width="6.0" stroke-linecap="round" stroke-linejoin="round" />
<path d="M 148.75 90.0 L 145.0 92.5 L 133.75 107.5 L 122.5 131.25 L 115.0 146.25 L 115.0 146.25 " stroke="black" fill="none" stroke-width="6.0" stroke-linecap="round" stroke-linejoin="round" />
<path d="M 171.25 90.0 L 172.5 88.75 L 175.0 88.75 L 185.0 90.0 L 196.25 93.75 L 208.75 97.5 L 212.5 101.25 L 211.25 102.5 " stroke="black" fill="none" stroke-width="6.0" stroke-linecap="round" stroke-linejoin="round" />
<path d="M 173.75 120.0 L 167.5 125.0 L 156.25 138.75 L 152.5 143.75 L 123.75 182.5 L 110.0 195.0 L 103.75 196.25 L 105.0 188.75 " stroke="black" fill="none" stroke-width="6.0" stroke-linecap="round" stroke-linejoin="round" />
<path d="M 161.25 125.0 L 166.25 123.75 L 178.75 125.0 L 198.75 132.5 L 220.0 141.25 L 243.75 150.0 L 258.75 156.25 L 262.5 160.0 L 256.25 162.5 L 253.75 163.75 " stroke="black" fill="none" stroke-width="6.0" stroke-linecap="round" stroke-linejoin="round" />
<path d="M 142.5 187.5 L 141.25 188.75 L 138.75 191.25 L 140.0 200.0 L 147.5 218.75 L 157.5 237.5 L 163.75 242.5 L 168.75 241.25 L 168.75 233.75 L 163.75 225.0 L 155.0 216.25 L 147.5 208.75 L 142.5 202.5 L 141.25 200.0 L 148.75 197.5 L 171.25 190.0 L 198.75 182.5 L 216.25 180.0 L 220.0 186.25 L 211.25 200.0 L 197.5 218.75 L 181.25 236.25 L 172.5 246.25 L 177.5 245.0 L 196.25 233.75 L 216.25 216.25 L 231.25 201.25 " stroke="black" fill="none" stroke-width="6.0" stroke-linecap="round" stroke-linejoin="round" />
</svg>