<svg xmlns="http://www.w3.org/2000/svg" width="300" height="300" viewBox="0 0 300 300">
<path d="M 72.5 145.0 L 71.25 145.0 L 70.0 146.25 L 73.75 146.25 L 86.25 143.75 L 97.5 142.5 L 103.75 141.25 " stroke="black" fill="none" stroke-width="6.0" stroke-linecap="round" stroke-linejoin="round" />
<path d="M 78.75 200.0 L 72.5 206.25 L 72.5 206.25 L 80.0 202.5 L 91.25 196.25 L 101.25 188.75 L 103.75 185.0 " stroke="black" fill="none" stroke-width="6.0" stroke-linecap="round" stroke-linejoin="round" />
<path d="M 85.0 247.5 L 80.0 251.25 L 75.0 256.25 L 77.5 255.0 L 88.75 243.75 L 101.25 225.0 " stroke="black" fill="none" stroke-width="6.0" stroke-linecap="round" stroke-linejoin="round" />
<path d="M 153.75 82.5 L 152.5 82.5 L 152.5 83.75 L 155.0 83.75 L 167.5 83.75 L 182.5 83.75 L 193.75 83.75 L 195.0 83.75 " stroke="black" fill="none" stroke-width="6.0" stroke-linecap="round" stroke-linejoin="round" />
<path d="M 137.5 132.5 L 132.5 135.0 L 130.0 135.0 L 136.25 132.5 L 151.25 126.25 L 167.5 117.5 L 185.0 110.0 L 195.0 107.5 L 193.75 111.25 L 183.75 126.25 L 167.5 142.5 L 151.25 157.5 L 138.75 170.0 L 135.0 173.75 L 140.0 171.25 L 151.25 161.25 L 168.75 148.75 L 187.5 136.25 L 202.5 128.75 L 205.0 127.5 L 196.25 137.5 L 182.5 152.5 L 165.0 171.25 L 147.5 188.75 L 137.5 196.25 L 132.5 192.5 " stroke="black" fill="none" stroke-width="6.0" stroke-linecap="round" stroke-linejoin="round" />
<path d="M 137.5 143.75 L 136.25 141.25 L 133.75 141.25 L 131.25 151.25 L 131.25 177.5 L 135.0 211.25 L 138.75 233.75 L 145.0 242.5 L 153.75 242.5 L 166.25 236.25 L 182.5 222.5 L 200.0 206.25 L 212.5 192.5 L 218.75 181.25 L 217.5 177.5 L 208.75 178.75 L 196.25 183.75 L 182.5 190.0 L 168.75 196.25 L 156.25 201.25 L 151.25 203.75 L 152.5 203.75 L 153.75 203.75 L 156.25 203.75 L 158.75 202.5 L 160.0 201.25 L 162.5 201.25 L 163.75 201.25 L 165.0 200.0 L 165.0 200.0 L 166.25 200.0 L 166.25 200.0 L 167.5 200.0 L 175.0 203.75 L 188.75 212.5 L 207.5 223.75 L 225.0 235.0 L 235.0 242.5 " stroke="black" fill="none" stroke-width="6.0" stroke-linecap="round" stroke-linejoin="round" />
</svg>