<svg xmlns="http://www.w3.org/2000/svg" width="300" height="300" viewBox="0 0 300 300">
<path d="M 82.5 110.0 L 71.25 113.75 L 70.0 115.0 L 71.25 115.0 L 81.25 115.0 L 95.0 111.25 L 106.25 106.25 L 108.75 105.0 " stroke="black" fill="none" stroke-width="6.0" stroke-linecap="round" stroke-linejoin="round" />
<path d="M 70.0 165.0 L 66.25 168.75 L 62.5 172.5 L 66.25 172.5 L 78.75 166.25 L 92.5 156.25 L 105.0 147.5 L 108.75 143.75 " stroke="black" fill="none" stroke-width="6.0" stroke-linecap="round" stroke-linejoin="round" />
<path d="M 70.0 241.25 L 66.25 246.25 L 66.25 245.0 L 77.5 227.5 L 93.75 200.0 L 112.5 162.5 L 120.0 135.0 L 121.25 115.0 L 121.25 97.5 L 121.25 92.5 L 121.25 92.5 L 121.25 95.0 L 126.25 101.25 L 132.5 116.25 L 140.0 131.25 L 146.25 138.75 L 147.5 140.0 " stroke="black" fill="none" stroke-width="6.0" stroke-linecap="round" stroke-linejoin="round" />
<path d="M 128.75 105.0 L 126.25 103.75 L 121.25 102.5 L 120.0 102.5 L 133.75 100.0 L 160.0 92.5 L 193.75 86.25 L 217.5 85.0 L 222.5 87.5 L 215.0 97.5 L 198.75 112.5 L 178.75 126.25 L 157.5 133.75 " stroke="black" fill="none" stroke-width="6.0" stroke-linecap="round" stroke-linejoin="round" />
<path d="M 161.25 105.0 L 161.25 102.5 L 161.25 101.25 L 158.75 107.5 L 155.0 126.25 L 151.25 142.5 " stroke="black" fill="none" stroke-width="6.0" stroke-linecap="round" stroke-linejoin="round" />
<path d="M 178.75 97.5 L 177.5 97.5 L 176.25 98.75 L 175.0 111.25 L 180.0 127.5 L 192.5 136.25 L 208.75 135.0 L 218.75 126.25 L 221.25 122.5 L 216.25 122.5 L 210.0 127.5 " stroke="black" fill="none" stroke-width="6.0" stroke-linecap="round" stroke-linejoin="round" />
<path d="M 108.75 203.75 L 103.75 206.25 L 101.25 208.75 L 112.5 206.25 L 140.0 195.0 L 181.25 176.25 L 213.75 158.75 L 225.0 152.5 L 226.25 151.25 L 218.75 151.25 L 206.25 155.0 L 193.75 158.75 L 181.25 161.25 L 173.75 162.5 L 172.5 162.5 L 175.0 161.25 L 178.75 161.25 L 182.5 165.0 L 186.25 185.0 L 187.5 212.5 L 188.75 238.75 L 188.75 255.0 L 188.75 257.5 L 185.0 257.5 L 177.5 253.75 L 166.25 247.5 L 157.5 241.25 " stroke="black" fill="none" stroke-width="6.0" stroke-linecap="round" stroke-linejoin="round" />
<path d="M 170.0 196.25 L 170.0 196.25 L 167.5 197.5 L 158.75 207.5 L 148.75 222.5 L 132.5 248.75 L 123.75 252.5 L 123.75 252.5 " stroke="black" fill="none" stroke-width="6.0" stroke-linecap="round" stroke-linejoin="round" />
<path d="M 188.75 191.25 L 188.75 191.25 L 193.75 193.75 L 206.25 206.25 L 223.75 221.25 L 240.0 232.5 L 251.25 238.75 L 257.5 241.25 L 257.5 243.75 " stroke="black" fill="none" stroke-width="6.0" stroke-linecap="round" stroke-linejoin="round" />
</svg>