<svg xmlns="http://www.w3.org/2000/svg" width="300" height="300" viewBox="0 0 300 300">
<path d="M 88.75 90.0 L 86.25 91.25 L 82.5 93.75 L 82.5 93.75 L 86.25 93.75 L 93.75 93.75 L 103.75 93.75 L 107.5 92.5 " stroke="black" fill="none" stroke-width="6.0" stroke-linecap="round" stroke-linejoin="round" />
<path d="M 75.0 172.5 L 72.5 178.75 L 75.0 178.75 L 83.75 171.25 L 93.75 163.75 L 101.25 156.25 L 101.25 155.0 " stroke="black" fill="none" stroke-width="6.0" stroke-linecap="round" stroke-linejoin="round" />
<path d="M 77.5 235.0 L 76.25 237.5 L 72.5 242.5 L 73.75 238.75 L 82.5 223.75 L 92.5 202.5 L 97.5 190.0 " stroke="black" fill="none" stroke-width="6.0" stroke-linecap="round" stroke-linejoin="round" />
<path d="M 120.0 100.0 L 120.0 100.0 L 121.25 98.75 L 122.5 98.75 L 127.5 107.5 L 133.75 130.0 L 137.5 148.75 L 138.75 153.75 L 137.5 150.0 L 137.5 141.25 L 137.5 132.5 L 137.5 126.25 L 136.25 121.25 L 136.25 118.75 L 141.25 115.0 L 142.5 113.75 L 161.25 103.75 L 168.75 98.75 L 167.5 98.75 L 162.5 101.25 " stroke="black" fill="none" stroke-width="6.0" stroke-linecap="round" stroke-linejoin="round" />
<path d="M 113.75 171.25 L 111.25 177.5 L 113.75 177.5 L 126.25 167.5 L 145.0 153.75 L 160.0 138.75 L 166.25 128.75 L 163.75 127.5 L 156.25 133.75 L 151.25 143.75 L 148.75 161.25 L 151.25 192.5 L 156.25 228.75 L 158.75 243.75 L 158.75 245.0 L 153.75 242.5 L 148.75 238.75 L 141.25 235.0 L 132.5 231.25 L 128.75 226.25 L 131.25 217.5 L 145.0 205.0 L 168.75 187.5 L 198.75 163.75 L 225.0 138.75 L 240.0 122.5 L 242.5 117.5 L 242.5 118.75 L 240.0 130.0 L 236.25 150.0 L 228.75 176.25 L 217.5 205.0 L 205.0 222.5 L 202.5 225.0 " stroke="black" fill="none" stroke-width="6.0" stroke-linecap="round" stroke-linejoin="round" />
<path d="M 201.25 163.75 L 201.25 163.75 L 201.25 163.75 L 203.75 167.5 L 217.5 186.25 L 243.75 217.5 L 263.75 238.75 L 277.5 248.75 L 288.75 255.0 L 288.75 256.25 " stroke="black" fill="none" stroke-width="6.0" stroke-linecap="round" stroke-linejoin="round" />
</svg>