<svg xmlns="http://www.w3.org/2000/svg" width="300" height="300" viewBox="0 0 300 300">
<path d="M 77.5 110.0 L 73.75 110.0 L 70.0 111.25 L 71.25 111.25 L 81.25 111.25 L 95.0 111.25 L 103.75 110.0 " stroke="black" fill="none" stroke-width="6.0" stroke-linecap="round" stroke-linejoin="round" />
<path d="M 68.75 157.5 L 63.75 161.25 L 62.5 161.25 L 73.75 157.5 L 87.5 151.25 L 98.75 147.5 " stroke="black" fill="none" stroke-width="6.0" stroke-linecap="round" stroke-linejoin="round" />
<path d="M 70.0 216.25 L 63.75 222.5 L 65.0 223.75 L 77.5 217.5 L 93.75 203.75 L 105.0 190.0 " stroke="black" fill="none" stroke-width="6.0" stroke-linecap="round" stroke-linejoin="round" />
<path d="M 147.5 85.0 L 143.75 86.25 L 141.25 90.0 L 137.5 100.0 L 136.25 110.0 L 138.75 115.0 L 147.5 115.0 L 161.25 110.0 L 177.5 101.25 L 192.5 95.0 L 197.5 92.5 L 196.25 95.0 L 185.0 108.75 L 168.75 132.5 L 151.25 162.5 L 137.5 193.75 L 128.75 211.25 L 127.5 213.75 L 127.5 218.75 L 128.75 218.75 L 131.25 217.5 L 135.0 216.25 L 140.0 216.25 L 146.25 216.25 L 156.25 220.0 L 173.75 222.5 L 193.75 223.75 L 207.5 223.75 L 210.0 217.5 " stroke="black" fill="none" stroke-width="6.0" stroke-linecap="round" stroke-linejoin="round" />
<path d="M 170.0 141.25 L 170.0 141.25 L 168.75 140.0 L 171.25 138.75 L 186.25 137.5 L 203.75 137.5 L 215.0 147.5 L 218.75 171.25 L 210.0 202.5 L 200.0 225.0 L 193.75 238.75 L 188.75 242.5 L 182.5 237.5 L 178.75 232.5 " stroke="black" fill="none" stroke-width="6.0" stroke-linecap="round" stroke-linejoin="round" />
<path d="M 98.75 187.5 L 97.5 188.75 L 93.75 191.25 L 100.0 191.25 L 130.0 188.75 L 170.0 177.5 L 207.5 167.5 L 218.75 162.5 L 218.75 161.25 L 208.75 161.25 " stroke="black" fill="none" stroke-width="6.0" stroke-linecap="round" stroke-linejoin="round" />
<path d="M 180.0 147.5 L 178.75 148.75 L 177.5 155.0 L 172.5 185.0 L 167.5 202.5 " stroke="black" fill="none" stroke-width="6.0" stroke-linecap="round" stroke-linejoin="round" />
</svg>