<svg xmlns="http://www.w3.org/2000/svg" width="300" height="300" viewBox="0 0 300 300">
<path d="M 71.25 111.25 L 70.0 111.25 L 66.25 111.25 L 65.0 111.25 L 68.75 112.5 L 78.75 115.0 L 91.25 115.0 L 100.0 115.0 " stroke="black" fill="none" stroke-width="6.0" stroke-linecap="round" stroke-linejoin="round" />
<path d="M 62.5 160.0 L 56.25 163.75 L 55.0 165.0 L 61.25 165.0 L 75.0 160.0 L 91.25 155.0 L 98.75 151.25 " stroke="black" fill="none" stroke-width="6.0" stroke-linecap="round" stroke-linejoin="round" />
<path d="M 66.25 222.5 L 63.75 225.0 L 56.25 232.5 L 57.5 231.25 L 71.25 218.75 L 88.75 200.0 L 101.25 182.5 " stroke="black" fill="none" stroke-width="6.0" stroke-linecap="round" stroke-linejoin="round" />
<path d="M 133.75 81.25 L 132.5 82.5 L 132.5 83.75 L 142.5 85.0 L 160.0 85.0 L 180.0 81.25 L 188.75 80.0 L 186.25 81.25 " stroke="black" fill="none" stroke-width="6.0" stroke-linecap="round" stroke-linejoin="round" />
<path d="M 108.75 127.5 L 108.75 127.5 L 108.75 128.75 L 116.25 128.75 L 140.0 122.5 L 168.75 108.75 L 193.75 97.5 L 202.5 92.5 L 200.0 92.5 L 190.0 97.5 L 171.25 110.0 L 151.25 132.5 L 127.5 167.5 L 108.75 203.75 L 105.0 213.75 L 106.25 212.5 L 107.5 208.75 " stroke="black" fill="none" stroke-width="6.0" stroke-linecap="round" stroke-linejoin="round" />
<path d="M 137.5 162.5 L 135.0 162.5 L 132.5 162.5 L 131.25 172.5 L 131.25 200.0 L 132.5 230.0 L 133.75 242.5 L 133.75 241.25 L 135.0 232.5 " stroke="black" fill="none" stroke-width="6.0" stroke-linecap="round" stroke-linejoin="round" />
<path d="M 181.25 133.75 L 182.5 131.25 L 183.75 125.0 L 183.75 125.0 L 183.75 128.75 L 177.5 146.25 L 173.75 156.25 L 172.5 161.25 L 180.0 160.0 L 196.25 148.75 L 210.0 137.5 L 218.75 131.25 L 220.0 131.25 L 215.0 143.75 L 206.25 168.75 L 196.25 198.75 L 190.0 218.75 L 180.0 237.5 L 173.75 240.0 " stroke="black" fill="none" stroke-width="6.0" stroke-linecap="round" stroke-linejoin="round" />
<path d="M 158.75 182.5 L 157.5 181.25 L 156.25 176.25 L 157.5 173.75 L 162.5 172.5 L 171.25 176.25 L 181.25 185.0 L 190.0 191.25 L 192.5 197.5 L 186.25 200.0 " stroke="black" fill="none" stroke-width="6.0" stroke-linecap="round" stroke-linejoin="round" />
<path d="M 147.5 188.75 L 145.0 188.75 L 142.5 188.75 L 142.5 188.75 L 148.75 190.0 L 161.25 195.0 L 177.5 203.75 L 196.25 216.25 L 215.0 232.5 L 231.25 243.75 L 248.75 251.25 L 267.5 255.0 L 273.75 252.5 " stroke="black" fill="none" stroke-width="6.0" stroke-linecap="round" stroke-linejoin="round" />
</svg>