<svg xmlns="http://www.w3.org/2000/svg" width="300" height="300" viewBox="0 0 300 300">
<path d="M 72.5 123.75 L 71.25 122.5 L 68.75 121.25 L 71.25 120.0 L 82.5 120.0 L 96.25 120.0 L 107.5 120.0 L 108.75 120.0 " stroke="black" fill="none" stroke-width="6.0" stroke-linecap="round" stroke-linejoin="round" />
<path d="M 78.75 151.25 L 76.25 155.0 L 71.25 158.75 L 73.75 158.75 L 83.75 158.75 L 96.25 153.75 L 107.5 148.75 L 112.5 146.25 " stroke="black" fill="none" stroke-width="6.0" stroke-linecap="round" stroke-linejoin="round" />
<path d="M 77.5 231.25 L 73.75 235.0 L 71.25 238.75 L 75.0 235.0 L 90.0 218.75 L 107.5 196.25 " stroke="black" fill="none" stroke-width="6.0" stroke-linecap="round" stroke-linejoin="round" />
<path d="M 158.75 85.0 L 158.75 85.0 L 157.5 85.0 L 157.5 85.0 L 162.5 85.0 L 180.0 85.0 L 197.5 83.75 L 208.75 82.5 L 208.75 85.0 L 202.5 88.75 " stroke="black" fill="none" stroke-width="6.0" stroke-linecap="round" stroke-linejoin="round" />
<path d="M 143.75 132.5 L 142.5 132.5 L 141.25 132.5 L 148.75 128.75 L 168.75 121.25 L 195.0 111.25 L 208.75 108.75 L 210.0 110.0 L 202.5 120.0 L 188.75 133.75 L 172.5 145.0 L 155.0 153.75 L 146.25 157.5 L 146.25 157.5 L 152.5 153.75 L 167.5 145.0 L 181.25 136.25 L 188.75 128.75 " stroke="black" fill="none" stroke-width="6.0" stroke-linecap="round" stroke-linejoin="round" />
<path d="M 150.0 130.0 L 150.0 133.75 L 147.5 147.5 L 146.25 177.5 L 142.5 206.25 L 138.75 223.75 L 131.25 237.5 L 122.5 240.0 L 117.5 237.5 " stroke="black" fill="none" stroke-width="6.0" stroke-linecap="round" stroke-linejoin="round" />
<path d="M 146.25 195.0 L 147.5 197.5 L 156.25 197.5 L 177.5 190.0 L 202.5 175.0 L 221.25 158.75 L 227.5 150.0 L 225.0 148.75 " stroke="black" fill="none" stroke-width="6.0" stroke-linecap="round" stroke-linejoin="round" />
<path d="M 186.25 152.5 L 183.75 162.5 L 181.25 185.0 L 177.5 212.5 L 171.25 236.25 L 163.75 248.75 L 156.25 252.5 L 151.25 251.25 L 150.0 245.0 " stroke="black" fill="none" stroke-width="6.0" stroke-linecap="round" stroke-linejoin="round" />
<path d="M 177.5 192.5 L 178.75 192.5 L 182.5 196.25 L 195.0 206.25 L 210.0 227.5 L 227.5 246.25 L 241.25 253.75 L 248.75 256.25 L 248.75 256.25 L 243.75 255.0 " stroke="black" fill="none" stroke-width="6.0" stroke-linecap="round" stroke-linejoin="round" />
<path d="M 245.0 131.25 L 243.75 130.0 L 242.5 128.75 L 243.75 130.0 L 252.5 138.75 L 262.5 153.75 L 266.25 162.5 " stroke="black" fill="none" stroke-width="6.0" stroke-linecap="round" stroke-linejoin="round" />
</svg>