<svg xmlns="http://www.w3.org/2000/svg" width="300" height="300" viewBox="0 0 300 300">
<path d="M 77.5 120.0 L 76.25 120.0 L 73.75 120.0 L 75.0 120.0 L 82.5 118.75 L 93.75 115.0 L 105.0 110.0 L 108.75 108.75 " stroke="black" fill="none" stroke-width="6.0" stroke-linecap="round" stroke-linejoin="round" />
<path d="M 71.25 165.0 L 68.75 166.25 L 68.75 166.25 L 77.5 161.25 L 91.25 151.25 L 103.75 143.75 L 107.5 140.0 " stroke="black" fill="none" stroke-width="6.0" stroke-linecap="round" stroke-linejoin="round" />
<path d="M 72.5 232.5 L 70.0 235.0 L 68.75 236.25 L 75.0 227.5 L 87.5 210.0 L 98.75 191.25 L 101.25 186.25 " stroke="black" fill="none" stroke-width="6.0" stroke-linecap="round" stroke-linejoin="round" />
<path d="M 120.0 103.75 L 120.0 103.75 L 120.0 100.0 L 121.25 98.75 L 125.0 100.0 L 130.0 112.5 L 135.0 126.25 L 138.75 135.0 L 148.75 136.25 L 166.25 122.5 L 186.25 106.25 L 201.25 95.0 L 205.0 88.75 L 205.0 87.5 L 196.25 87.5 L 187.5 87.5 L 177.5 87.5 L 168.75 87.5 L 163.75 86.25 L 162.5 83.75 L 163.75 82.5 L 166.25 85.0 L 168.75 100.0 L 168.75 127.5 L 165.0 148.75 L 160.0 158.75 L 151.25 163.75 L 141.25 168.75 L 130.0 175.0 L 123.75 180.0 L 123.75 180.0 L 131.25 180.0 L 147.5 171.25 L 167.5 158.75 L 191.25 145.0 L 206.25 133.75 L 208.75 130.0 L 203.75 132.5 L 195.0 137.5 L 192.5 137.5 " stroke="black" fill="none" stroke-width="6.0" stroke-linecap="round" stroke-linejoin="round" />
<path d="M 156.25 187.5 L 152.5 198.75 L 147.5 225.0 L 142.5 245.0 L 141.25 252.5 L 142.5 252.5 L 145.0 242.5 L 146.25 235.0 " stroke="black" fill="none" stroke-width="6.0" stroke-linecap="round" stroke-linejoin="round" />
<path d="M 183.75 156.25 L 183.75 157.5 L 183.75 165.0 L 186.25 190.0 L 190.0 216.25 L 200.0 231.25 L 215.0 237.5 L 233.75 235.0 L 252.5 230.0 L 262.5 225.0 L 263.75 223.75 L 263.75 221.25 L 261.25 216.25 L 258.75 207.5 L 255.0 191.25 L 248.75 155.0 " stroke="black" fill="none" stroke-width="6.0" stroke-linecap="round" stroke-linejoin="round" />
</svg>