<svg xmlns="http://www.w3.org/2000/svg" width="300" height="300" viewBox="0 0 300 300">
<path d="M 66.25 106.25 L 62.5 107.5 L 61.25 107.5 L 68.75 107.5 L 82.5 107.5 L 95.0 106.25 L 105.0 102.5 L 107.5 101.25 " stroke="black" fill="none" stroke-width="6.0" stroke-linecap="round" stroke-linejoin="round" />
<path d="M 61.25 147.5 L 60.0 151.25 L 61.25 151.25 L 71.25 150.0 L 83.75 145.0 L 95.0 138.75 L 98.75 137.5 " stroke="black" fill="none" stroke-width="6.0" stroke-linecap="round" stroke-linejoin="round" />
<path d="M 57.5 240.0 L 57.5 241.25 L 55.0 245.0 L 63.75 241.25 L 82.5 227.5 L 102.5 201.25 L 110.0 187.5 " stroke="black" fill="none" stroke-width="6.0" stroke-linecap="round" stroke-linejoin="round" />
<path d="M 133.75 87.5 L 132.5 87.5 L 126.25 88.75 L 123.75 88.75 L 130.0 90.0 L 146.25 91.25 L 168.75 87.5 L 188.75 80.0 L 200.0 75.0 L 198.75 73.75 L 183.75 80.0 " stroke="black" fill="none" stroke-width="6.0" stroke-linecap="round" stroke-linejoin="round" />
<path d="M 137.5 105.0 L 136.25 106.25 L 133.75 107.5 L 131.25 116.25 L 123.75 132.5 L 116.25 147.5 L 110.0 152.5 L 108.75 152.5 L 108.75 151.25 L 111.25 151.25 L 118.75 152.5 L 130.0 157.5 L 141.25 163.75 L 148.75 167.5 L 152.5 168.75 L 152.5 167.5 " stroke="black" fill="none" stroke-width="6.0" stroke-linecap="round" stroke-linejoin="round" />
<path d="M 180.0 98.75 L 178.75 97.5 L 172.5 100.0 L 161.25 113.75 L 148.75 131.25 L 141.25 141.25 L 140.0 141.25 L 141.25 141.25 L 146.25 145.0 L 155.0 151.25 L 163.75 157.5 L 173.75 162.5 L 181.25 166.25 L 182.5 167.5 " stroke="black" fill="none" stroke-width="6.0" stroke-linecap="round" stroke-linejoin="round" />
<path d="M 216.25 105.0 L 216.25 103.75 L 213.75 103.75 L 210.0 105.0 L 202.5 116.25 L 191.25 132.5 L 185.0 141.25 L 185.0 145.0 L 190.0 148.75 L 198.75 151.25 L 210.0 152.5 L 220.0 152.5 L 226.25 153.75 L 227.5 153.75 " stroke="black" fill="none" stroke-width="6.0" stroke-linecap="round" stroke-linejoin="round" />
<path d="M 148.75 197.5 L 146.25 198.75 L 147.5 198.75 L 161.25 198.75 L 183.75 193.75 L 205.0 183.75 L 215.0 175.0 L 208.75 176.25 " stroke="black" fill="none" stroke-width="6.0" stroke-linecap="round" stroke-linejoin="round" />
<path d="M 176.25 197.5 L 176.25 197.5 L 176.25 197.5 L 177.5 200.0 L 177.5 211.25 L 175.0 230.0 L 165.0 243.75 L 152.5 250.0 L 140.0 250.0 L 133.75 250.0 L 128.75 250.0 L 128.75 251.25 L 128.75 251.25 L 133.75 252.5 L 141.25 253.75 L 151.25 253.75 L 162.5 252.5 L 175.0 248.75 L 188.75 245.0 L 205.0 243.75 L 223.75 242.5 L 237.5 243.75 L 247.5 245.0 L 252.5 245.0 L 253.75 245.0 L 253.75 245.0 L 253.75 245.0 " stroke="black" fill="none" stroke-width="6.0" stroke-linecap="round" stroke-linejoin="round" />
</svg>