<svg xmlns="http://www.w3.org/2000/svg" width="300" height="300" viewBox="0 0 300 300">
<path d="M 91.25 87.5 L 91.25 87.5 L 88.75 90.0 L 87.5 91.25 L 91.25 91.25 L 100.0 91.25 L 107.5 91.25 L 108.75 91.25 " stroke="black" fill="none" stroke-width="6.0" stroke-linecap="round" stroke-linejoin="round" />
<path d="M 85.0 121.25 L 83.75 122.5 L 80.0 126.25 L 82.5 126.25 L 91.25 123.75 L 100.0 118.75 L 108.75 113.75 L 110.0 112.5 " stroke="black" fill="none" stroke-width="6.0" stroke-linecap="round" stroke-linejoin="round" />
<path d="M 82.5 158.75 L 80.0 163.75 L 78.75 167.5 L 86.25 165.0 L 97.5 155.0 L 115.0 140.0 L 118.75 136.25 " stroke="black" fill="none" stroke-width="6.0" stroke-linecap="round" stroke-linejoin="round" />
<path d="M 137.5 85.0 L 133.75 85.0 L 131.25 86.25 L 131.25 87.5 L 143.75 86.25 L 161.25 81.25 L 178.75 76.25 L 191.25 71.25 L 191.25 70.0 L 177.5 75.0 L 163.75 81.25 L 150.0 86.25 L 141.25 90.0 L 136.25 93.75 L 135.0 97.5 L 136.25 106.25 L 141.25 127.5 L 147.5 156.25 L 156.25 175.0 L 170.0 178.75 L 185.0 172.5 L 193.75 162.5 L 200.0 155.0 L 201.25 148.75 L 196.25 147.5 " stroke="black" fill="none" stroke-width="6.0" stroke-linecap="round" stroke-linejoin="round" />
<path d="M 143.75 120.0 L 143.75 120.0 L 142.5 118.75 L 145.0 115.0 L 157.5 110.0 L 178.75 106.25 L 195.0 106.25 L 198.75 108.75 L 190.0 116.25 L 173.75 127.5 L 156.25 138.75 L 145.0 146.25 L 142.5 147.5 L 151.25 145.0 L 166.25 137.5 L 182.5 128.75 L 196.25 118.75 L 200.0 116.25 " stroke="black" fill="none" stroke-width="6.0" stroke-linecap="round" stroke-linejoin="round" />
<path d="M 92.5 198.75 L 86.25 205.0 L 81.25 208.75 L 87.5 208.75 L 107.5 207.5 L 141.25 201.25 L 173.75 191.25 L 197.5 185.0 L 201.25 182.5 L 195.0 183.75 L 187.5 186.25 " stroke="black" fill="none" stroke-width="6.0" stroke-linecap="round" stroke-linejoin="round" />
<path d="M 137.5 187.5 L 135.0 187.5 L 135.0 187.5 L 136.25 195.0 L 142.5 218.75 L 146.25 248.75 L 147.5 263.75 L 145.0 268.75 L 140.0 268.75 L 133.75 265.0 L 126.25 258.75 L 120.0 252.5 " stroke="black" fill="none" stroke-width="6.0" stroke-linecap="round" stroke-linejoin="round" />
<path d="M 112.5 212.5 L 107.5 220.0 L 102.5 230.0 L 96.25 245.0 L 90.0 257.5 L 87.5 260.0 " stroke="black" fill="none" stroke-width="6.0" stroke-linecap="round" stroke-linejoin="round" />
<path d="M 165.0 210.0 L 167.5 211.25 L 177.5 221.25 L 191.25 233.75 L 201.25 243.75 L 207.5 247.5 L 210.0 248.75 L 210.0 248.75 L 210.0 248.75 " stroke="black" fill="none" stroke-width="6.0" stroke-linecap="round" stroke-linejoin="round" />
</svg>