<svg xmlns="http://www.w3.org/2000/svg" width="300" height="300" viewBox="0 0 300 300">
<path d="M 75.0 96.25 L 68.75 96.25 L 66.25 96.25 L 72.5 97.5 L 85.0 97.5 L 98.75 97.5 L 110.0 96.25 L 115.0 96.25 L 115.0 96.25 " stroke="black" fill="none" stroke-width="6.0" stroke-linecap="round" stroke-linejoin="round" />
<path d="M 57.5 148.75 L 56.25 150.0 L 56.25 150.0 L 66.25 146.25 L 83.75 137.5 L 98.75 128.75 L 105.0 125.0 " stroke="black" fill="none" stroke-width="6.0" stroke-linecap="round" stroke-linejoin="round" />
<path d="M 62.5 227.5 L 60.0 233.75 L 61.25 235.0 L 73.75 223.75 L 90.0 203.75 L 106.25 178.75 " stroke="black" fill="none" stroke-width="6.0" stroke-linecap="round" stroke-linejoin="round" />
<path d="M 127.5 83.75 L 125.0 83.75 L 121.25 83.75 L 125.0 83.75 L 141.25 82.5 L 163.75 76.25 L 188.75 67.5 L 200.0 60.0 L 202.5 56.25 L 188.75 56.25 L 177.5 61.25 " stroke="black" fill="none" stroke-width="6.0" stroke-linecap="round" stroke-linejoin="round" />
<path d="M 142.5 85.0 L 140.0 88.75 L 138.75 95.0 L 141.25 106.25 L 145.0 118.75 L 148.75 125.0 L 148.75 125.0 " stroke="black" fill="none" stroke-width="6.0" stroke-linecap="round" stroke-linejoin="round" />
<path d="M 161.25 82.5 L 161.25 82.5 L 162.5 82.5 L 162.5 91.25 L 161.25 107.5 L 158.75 120.0 L 157.5 122.5 " stroke="black" fill="none" stroke-width="6.0" stroke-linecap="round" stroke-linejoin="round" />
<path d="M 187.5 75.0 L 187.5 75.0 L 187.5 75.0 L 186.25 78.75 L 178.75 97.5 L 166.25 121.25 L 162.5 126.25 " stroke="black" fill="none" stroke-width="6.0" stroke-linecap="round" stroke-linejoin="round" />
<path d="M 141.25 133.75 L 140.0 133.75 L 137.5 133.75 L 136.25 136.25 L 136.25 147.5 L 135.0 160.0 L 136.25 166.25 L 143.75 165.0 L 155.0 153.75 L 170.0 141.25 L 182.5 130.0 L 187.5 127.5 L 185.0 131.25 L 173.75 145.0 L 162.5 158.75 L 153.75 170.0 L 151.25 175.0 L 152.5 175.0 L 161.25 171.25 L 173.75 163.75 L 186.25 157.5 L 192.5 155.0 L 192.5 155.0 L 182.5 165.0 L 165.0 180.0 L 148.75 193.75 L 130.0 205.0 L 112.5 212.5 L 106.25 218.75 L 106.25 222.5 L 111.25 222.5 L 126.25 218.75 L 147.5 211.25 L 177.5 200.0 L 205.0 187.5 L 218.75 180.0 L 218.75 177.5 L 208.75 177.5 L 203.75 178.75 " stroke="black" fill="none" stroke-width="6.0" stroke-linecap="round" stroke-linejoin="round" />
<path d="M 160.0 190.0 L 158.75 192.5 L 156.25 201.25 L 153.75 222.5 L 147.5 246.25 L 138.75 260.0 L 131.25 262.5 L 127.5 257.5 L 127.5 245.0 " stroke="black" fill="none" stroke-width="6.0" stroke-linecap="round" stroke-linejoin="round" />
<path d="M 161.25 203.75 L 167.5 202.5 L 180.0 206.25 L 201.25 225.0 L 225.0 251.25 L 245.0 267.5 L 258.75 276.25 L 265.0 282.5 L 266.25 282.5 L 265.0 282.5 L 257.5 282.5 " stroke="black" fill="none" stroke-width="6.0" stroke-linecap="round" stroke-linejoin="round" />
</svg>