<svg xmlns="http://www.w3.org/2000/svg" width="300" height="300" viewBox="0 0 300 300">
<path d="M 73.75 120.0 L 71.25 120.0 L 70.0 120.0 L 70.0 120.0 L 78.75 122.5 L 90.0 123.75 L 100.0 123.75 L 103.75 123.75 " stroke="black" fill="none" stroke-width="6.0" stroke-linecap="round" stroke-linejoin="round" />
<path d="M 78.75 156.25 L 77.5 156.25 L 73.75 158.75 L 72.5 158.75 L 77.5 158.75 L 87.5 153.75 L 97.5 148.75 L 102.5 147.5 " stroke="black" fill="none" stroke-width="6.0" stroke-linecap="round" stroke-linejoin="round" />
<path d="M 77.5 235.0 L 76.25 236.25 L 72.5 241.25 L 75.0 237.5 L 85.0 221.25 L 98.75 198.75 L 107.5 180.0 " stroke="black" fill="none" stroke-width="6.0" stroke-linecap="round" stroke-linejoin="round" />
<path d="M 141.25 83.75 L 140.0 82.5 L 137.5 82.5 L 137.5 83.75 L 137.5 97.5 L 141.25 118.75 L 145.0 133.75 L 147.5 138.75 L 147.5 138.75 " stroke="black" fill="none" stroke-width="6.0" stroke-linecap="round" stroke-linejoin="round" />
<path d="M 140.0 86.25 L 140.0 85.0 L 140.0 85.0 L 140.0 85.0 L 145.0 83.75 L 160.0 82.5 L 183.75 81.25 L 202.5 80.0 L 207.5 83.75 L 206.25 92.5 L 197.5 103.75 L 188.75 111.25 L 185.0 113.75 " stroke="black" fill="none" stroke-width="6.0" stroke-linecap="round" stroke-linejoin="round" />
<path d="M 158.75 103.75 L 157.5 103.75 L 155.0 105.0 L 155.0 105.0 L 156.25 105.0 L 167.5 102.5 L 178.75 100.0 L 186.25 97.5 L 186.25 96.25 L 186.25 96.25 " stroke="black" fill="none" stroke-width="6.0" stroke-linecap="round" stroke-linejoin="round" />
<path d="M 161.25 100.0 L 161.25 100.0 L 158.75 101.25 L 158.75 105.0 L 158.75 116.25 L 160.0 128.75 L 160.0 136.25 " stroke="black" fill="none" stroke-width="6.0" stroke-linecap="round" stroke-linejoin="round" />
<path d="M 126.25 145.0 L 125.0 146.25 L 122.5 151.25 L 120.0 163.75 L 120.0 182.5 L 121.25 190.0 L 125.0 190.0 L 126.25 181.25 " stroke="black" fill="none" stroke-width="6.0" stroke-linecap="round" stroke-linejoin="round" />
<path d="M 125.0 151.25 L 123.75 151.25 L 122.5 151.25 L 125.0 151.25 L 142.5 150.0 L 173.75 145.0 L 203.75 141.25 L 220.0 140.0 L 225.0 141.25 L 222.5 145.0 L 215.0 150.0 L 205.0 155.0 L 193.75 158.75 L 191.25 158.75 " stroke="black" fill="none" stroke-width="6.0" stroke-linecap="round" stroke-linejoin="round" />
<path d="M 157.5 162.5 L 157.5 162.5 L 155.0 165.0 L 152.5 172.5 L 152.5 197.5 L 153.75 226.25 L 156.25 246.25 L 157.5 253.75 L 158.75 253.75 L 157.5 248.75 L 157.5 246.25 " stroke="black" fill="none" stroke-width="6.0" stroke-linecap="round" stroke-linejoin="round" />
<path d="M 148.75 171.25 L 148.75 171.25 L 151.25 168.75 L 165.0 166.25 L 183.75 166.25 L 200.0 178.75 L 205.0 201.25 L 203.75 225.0 L 198.75 243.75 L 196.25 253.75 L 195.0 255.0 L 192.5 255.0 L 188.75 250.0 L 182.5 241.25 L 175.0 231.25 L 172.5 227.5 " stroke="black" fill="none" stroke-width="6.0" stroke-linecap="round" stroke-linejoin="round" />
<path d="M 150.0 198.75 L 150.0 200.0 L 147.5 200.0 L 146.25 201.25 L 156.25 198.75 L 176.25 192.5 L 195.0 185.0 L 200.0 183.75 " stroke="black" fill="none" stroke-width="6.0" stroke-linecap="round" stroke-linejoin="round" />
<path d="M 161.25 228.75 L 157.5 232.5 L 160.0 232.5 L 175.0 222.5 L 190.0 211.25 " stroke="black" fill="none" stroke-width="6.0" stroke-linecap="round" stroke-linejoin="round" />
</svg>