<svg xmlns="http://www.w3.org/2000/svg" width="300" height="300" viewBox="0 0 300 300">
<path d="M 78.75 112.5 L 75.0 113.75 L 75.0 115.0 L 80.0 116.25 L 91.25 116.25 L 103.75 113.75 L 108.75 111.25 " stroke="black" fill="none" stroke-width="6.0" stroke-linecap="round" stroke-linejoin="round" />
<path d="M 77.5 146.25 L 71.25 150.0 L 70.0 152.5 L 73.75 152.5 L 85.0 152.5 L 97.5 150.0 L 105.0 147.5 " stroke="black" fill="none" stroke-width="6.0" stroke-linecap="round" stroke-linejoin="round" />
<path d="M 73.75 235.0 L 68.75 242.5 L 70.0 240.0 L 82.5 222.5 L 98.75 197.5 L 117.5 163.75 L 128.75 136.25 " stroke="black" fill="none" stroke-width="6.0" stroke-linecap="round" stroke-linejoin="round" />
<path d="M 132.5 91.25 L 132.5 91.25 L 130.0 91.25 L 130.0 97.5 L 132.5 120.0 L 137.5 143.75 L 143.75 153.75 L 147.5 153.75 L 147.5 146.25 " stroke="black" fill="none" stroke-width="6.0" stroke-linecap="round" stroke-linejoin="round" />
<path d="M 137.5 107.5 L 136.25 106.25 L 135.0 105.0 L 141.25 101.25 L 157.5 97.5 L 182.5 96.25 L 201.25 97.5 L 206.25 106.25 L 200.0 120.0 L 185.0 137.5 L 167.5 148.75 L 153.75 151.25 L 150.0 147.5 L 150.0 143.75 " stroke="black" fill="none" stroke-width="6.0" stroke-linecap="round" stroke-linejoin="round" />
<path d="M 162.5 108.75 L 157.5 111.25 L 151.25 123.75 L 143.75 146.25 L 138.75 161.25 L 135.0 165.0 " stroke="black" fill="none" stroke-width="6.0" stroke-linecap="round" stroke-linejoin="round" />
<path d="M 157.5 125.0 L 158.75 123.75 L 161.25 122.5 L 168.75 126.25 L 178.75 133.75 L 186.25 141.25 L 186.25 146.25 " stroke="black" fill="none" stroke-width="6.0" stroke-linecap="round" stroke-linejoin="round" />
<path d="M 142.5 162.5 L 141.25 162.5 L 140.0 162.5 L 146.25 158.75 L 165.0 150.0 L 187.5 141.25 L 190.0 140.0 " stroke="black" fill="none" stroke-width="6.0" stroke-linecap="round" stroke-linejoin="round" />
<path d="M 123.75 190.0 L 121.25 190.0 L 118.75 188.75 L 118.75 190.0 L 126.25 200.0 L 137.5 218.75 L 146.25 235.0 L 150.0 240.0 L 151.25 238.75 L 151.25 232.5 L 147.5 223.75 L 143.75 215.0 L 138.75 207.5 L 132.5 201.25 L 126.25 196.25 L 125.0 193.75 L 135.0 191.25 L 156.25 186.25 L 187.5 181.25 L 215.0 178.75 L 230.0 181.25 L 232.5 188.75 L 225.0 198.75 L 210.0 212.5 L 192.5 225.0 L 173.75 232.5 L 162.5 235.0 " stroke="black" fill="none" stroke-width="6.0" stroke-linecap="round" stroke-linejoin="round" />
<path d="M 156.25 190.0 L 156.25 188.75 L 156.25 188.75 L 156.25 192.5 L 155.0 210.0 L 155.0 231.25 L 155.0 238.75 " stroke="black" fill="none" stroke-width="6.0" stroke-linecap="round" stroke-linejoin="round" />
<path d="M 191.25 186.25 L 188.75 186.25 L 185.0 193.75 L 175.0 210.0 L 162.5 231.25 L 151.25 245.0 L 138.75 251.25 L 126.25 253.75 L 117.5 255.0 L 113.75 255.0 L 113.75 253.75 L 115.0 253.75 L 121.25 252.5 L 131.25 250.0 L 140.0 247.5 L 148.75 246.25 L 157.5 245.0 L 168.75 245.0 L 188.75 243.75 L 213.75 238.75 L 242.5 236.25 L 262.5 235.0 L 270.0 235.0 L 273.75 238.75 L 273.75 240.0 " stroke="black" fill="none" stroke-width="6.0" stroke-linecap="round" stroke-linejoin="round" />
</svg>