<svg xmlns="http://www.w3.org/2000/svg" width="300" height="300" viewBox="0 0 300 300">
<path d="M 62.5 116.25 L 62.5 117.5 L 62.5 117.5 L 68.75 117.5 L 81.25 117.5 L 95.0 116.25 L 103.75 115.0 L 103.75 115.0 " stroke="black" fill="none" stroke-width="6.0" stroke-linecap="round" stroke-linejoin="round" />
<path d="M 71.25 160.0 L 68.75 161.25 L 66.25 162.5 L 67.5 162.5 L 77.5 161.25 L 90.0 155.0 L 98.75 151.25 L 100.0 150.0 " stroke="black" fill="none" stroke-width="6.0" stroke-linecap="round" stroke-linejoin="round" />
<path d="M 76.25 222.5 L 71.25 230.0 L 71.25 231.25 L 82.5 218.75 L 98.75 198.75 L 111.25 171.25 " stroke="black" fill="none" stroke-width="6.0" stroke-linecap="round" stroke-linejoin="round" />
<path d="M 115.0 132.5 L 112.5 132.5 L 110.0 132.5 L 112.5 132.5 L 127.5 128.75 L 146.25 120.0 L 160.0 108.75 L 163.75 102.5 L 156.25 102.5 L 147.5 105.0 L 145.0 105.0 L 133.75 106.25 L 131.25 106.25 L 131.25 107.5 L 136.25 125.0 L 138.75 151.25 L 138.75 173.75 L 136.25 181.25 " stroke="black" fill="none" stroke-width="6.0" stroke-linecap="round" stroke-linejoin="round" />
<path d="M 113.75 173.75 L 113.75 173.75 L 113.75 173.75 L 113.75 177.5 L 122.5 190.0 L 133.75 205.0 L 143.75 215.0 L 146.25 216.25 L 146.25 213.75 L 141.25 208.75 L 135.0 203.75 L 127.5 200.0 L 125.0 195.0 L 126.25 190.0 L 141.25 182.5 L 160.0 172.5 L 173.75 168.75 L 175.0 176.25 L 163.75 192.5 L 151.25 207.5 L 143.75 213.75 L 143.75 212.5 L 155.0 193.75 L 157.5 188.75 " stroke="black" fill="none" stroke-width="6.0" stroke-linecap="round" stroke-linejoin="round" />
<path d="M 190.0 111.25 L 188.75 111.25 L 187.5 111.25 L 186.25 120.0 L 187.5 161.25 L 188.75 205.0 L 188.75 225.0 L 187.5 230.0 L 183.75 222.5 " stroke="black" fill="none" stroke-width="6.0" stroke-linecap="round" stroke-linejoin="round" />
<path d="M 191.25 105.0 L 191.25 103.75 L 193.75 100.0 L 201.25 95.0 L 212.5 91.25 L 230.0 91.25 L 246.25 102.5 L 252.5 130.0 L 253.75 171.25 L 251.25 208.75 L 251.25 226.25 L 252.5 235.0 L 252.5 236.25 L 252.5 236.25 L 251.25 231.25 L 246.25 221.25 L 237.5 208.75 L 225.0 195.0 L 215.0 186.25 " stroke="black" fill="none" stroke-width="6.0" stroke-linecap="round" stroke-linejoin="round" />
<path d="M 195.0 163.75 L 193.75 163.75 L 191.25 163.75 L 190.0 162.5 L 193.75 157.5 L 208.75 148.75 L 228.75 138.75 L 243.75 132.5 L 245.0 132.5 " stroke="black" fill="none" stroke-width="6.0" stroke-linecap="round" stroke-linejoin="round" />
<path d="M 198.75 195.0 L 197.5 197.5 L 196.25 197.5 L 203.75 192.5 L 228.75 173.75 L 235.0 167.5 " stroke="black" fill="none" stroke-width="6.0" stroke-linecap="round" stroke-linejoin="round" />
</svg>