<svg xmlns="http://www.w3.org/2000/svg" width="300" height="300" viewBox="0 0 300 300">
<path d="M 85.0 121.25 L 83.75 121.25 L 78.75 121.25 L 77.5 121.25 L 82.5 121.25 L 93.75 118.75 L 105.0 115.0 L 112.5 112.5 L 113.75 111.25 " stroke="black" fill="none" stroke-width="6.0" stroke-linecap="round" stroke-linejoin="round" />
<path d="M 80.0 176.25 L 73.75 178.75 L 73.75 180.0 L 82.5 175.0 L 93.75 167.5 L 103.75 160.0 L 106.25 156.25 L 106.25 156.25 " stroke="black" fill="none" stroke-width="6.0" stroke-linecap="round" stroke-linejoin="round" />
<path d="M 83.75 228.75 L 78.75 235.0 L 80.0 235.0 L 90.0 225.0 L 102.5 207.5 L 115.0 185.0 L 117.5 178.75 " stroke="black" fill="none" stroke-width="6.0" stroke-linecap="round" stroke-linejoin="round" />
<path d="M 141.25 103.75 L 140.0 103.75 L 137.5 103.75 L 136.25 102.5 L 136.25 105.0 L 136.25 116.25 L 136.25 128.75 L 137.5 136.25 L 137.5 138.75 L 137.5 138.75 L 135.0 141.25 L 133.75 141.25 " stroke="black" fill="none" stroke-width="6.0" stroke-linecap="round" stroke-linejoin="round" />
<path d="M 157.5 91.25 L 158.75 91.25 L 158.75 90.0 L 158.75 90.0 L 160.0 88.75 L 160.0 92.5 L 158.75 102.5 L 155.0 121.25 L 148.75 140.0 " stroke="black" fill="none" stroke-width="6.0" stroke-linecap="round" stroke-linejoin="round" />
<path d="M 126.25 151.25 L 125.0 151.25 L 122.5 151.25 L 123.75 151.25 L 135.0 145.0 L 152.5 135.0 L 170.0 123.75 L 180.0 116.25 L 182.5 115.0 L 178.75 116.25 L 168.75 126.25 L 157.5 141.25 L 145.0 160.0 L 132.5 181.25 L 125.0 196.25 L 123.75 198.75 L 127.5 198.75 L 135.0 196.25 L 143.75 191.25 L 152.5 185.0 L 161.25 178.75 L 167.5 173.75 L 171.25 171.25 L 172.5 170.0 L 171.25 170.0 L 170.0 171.25 L 168.75 171.25 L 168.75 171.25 L 167.5 171.25 L 167.5 171.25 L 167.5 171.25 L 167.5 171.25 L 170.0 171.25 L 177.5 173.75 L 185.0 176.25 L 190.0 180.0 L 190.0 182.5 L 187.5 183.75 " stroke="black" fill="none" stroke-width="6.0" stroke-linecap="round" stroke-linejoin="round" />
<path d="M 155.0 142.5 L 153.75 142.5 L 153.75 142.5 L 152.5 143.75 L 152.5 160.0 L 152.5 192.5 L 150.0 217.5 L 145.0 228.75 " stroke="black" fill="none" stroke-width="6.0" stroke-linecap="round" stroke-linejoin="round" />
<path d="M 200.0 108.75 L 200.0 107.5 L 200.0 105.0 L 200.0 107.5 L 200.0 131.25 L 200.0 172.5 L 200.0 207.5 L 198.75 220.0 L 197.5 222.5 L 196.25 217.5 L 196.25 212.5 " stroke="black" fill="none" stroke-width="6.0" stroke-linecap="round" stroke-linejoin="round" />
<path d="M 198.75 123.75 L 198.75 120.0 L 200.0 112.5 L 205.0 106.25 L 213.75 101.25 L 223.75 100.0 L 231.25 102.5 L 238.75 121.25 L 243.75 152.5 L 245.0 186.25 L 246.25 207.5 L 247.5 218.75 L 248.75 225.0 L 248.75 227.5 L 248.75 227.5 L 248.75 227.5 L 247.5 225.0 L 245.0 220.0 L 241.25 216.25 " stroke="black" fill="none" stroke-width="6.0" stroke-linecap="round" stroke-linejoin="round" />
<path d="M 207.5 163.75 L 202.5 163.75 L 200.0 162.5 L 201.25 158.75 L 211.25 152.5 L 223.75 145.0 L 236.25 138.75 L 243.75 135.0 L 243.75 135.0 " stroke="black" fill="none" stroke-width="6.0" stroke-linecap="round" stroke-linejoin="round" />
<path d="M 207.5 185.0 L 206.25 186.25 L 205.0 190.0 L 210.0 190.0 L 225.0 182.5 L 245.0 168.75 L 248.75 165.0 " stroke="black" fill="none" stroke-width="6.0" stroke-linecap="round" stroke-linejoin="round" />
</svg>