<svg xmlns="http://www.w3.org/2000/svg" width="300" height="300" viewBox="0 0 300 300">
<path d="M 71.25 121.25 L 70.0 121.25 L 67.5 121.25 L 71.25 121.25 L 82.5 121.25 L 96.25 118.75 L 106.25 116.25 " stroke="black" fill="none" stroke-width="6.0" stroke-linecap="round" stroke-linejoin="round" />
<path d="M 73.75 160.0 L 68.75 162.5 L 70.0 162.5 L 81.25 160.0 L 96.25 152.5 L 107.5 143.75 L 108.75 142.5 " stroke="black" fill="none" stroke-width="6.0" stroke-linecap="round" stroke-linejoin="round" />
<path d="M 73.75 210.0 L 72.5 215.0 L 71.25 220.0 L 78.75 220.0 L 96.25 207.5 L 115.0 186.25 " stroke="black" fill="none" stroke-width="6.0" stroke-linecap="round" stroke-linejoin="round" />
<path d="M 156.25 78.75 L 155.0 80.0 L 152.5 81.25 L 152.5 81.25 L 163.75 77.5 L 182.5 68.75 L 200.0 57.5 L 206.25 51.25 L 205.0 50.0 L 192.5 52.5 L 182.5 55.0 L 175.0 57.5 L 172.5 61.25 L 172.5 73.75 L 177.5 97.5 L 178.75 118.75 L 178.75 128.75 L 176.25 130.0 " stroke="black" fill="none" stroke-width="6.0" stroke-linecap="round" stroke-linejoin="round" />
<path d="M 153.75 112.5 L 152.5 112.5 L 151.25 112.5 L 160.0 110.0 L 182.5 102.5 L 205.0 93.75 L 212.5 90.0 L 208.75 90.0 " stroke="black" fill="none" stroke-width="6.0" stroke-linecap="round" stroke-linejoin="round" />
<path d="M 127.5 156.25 L 125.0 158.75 L 121.25 162.5 L 128.75 162.5 L 152.5 151.25 L 191.25 131.25 L 222.5 108.75 L 232.5 100.0 L 230.0 97.5 L 215.0 102.5 L 201.25 111.25 L 188.75 122.5 L 177.5 138.75 L 173.75 166.25 L 176.25 206.25 L 182.5 236.25 L 187.5 248.75 L 190.0 257.5 L 190.0 257.5 L 187.5 251.25 L 180.0 240.0 L 171.25 223.75 " stroke="black" fill="none" stroke-width="6.0" stroke-linecap="round" stroke-linejoin="round" />
<path d="M 177.5 150.0 L 177.5 150.0 L 181.25 146.25 L 193.75 143.75 L 212.5 147.5 L 228.75 166.25 L 232.5 197.5 L 225.0 222.5 L 217.5 238.75 L 212.5 246.25 L 208.75 246.25 L 205.0 241.25 L 205.0 238.75 " stroke="black" fill="none" stroke-width="6.0" stroke-linecap="round" stroke-linejoin="round" />
<path d="M 173.75 190.0 L 168.75 188.75 L 166.25 188.75 L 173.75 183.75 L 192.5 175.0 L 211.25 165.0 L 223.75 156.25 " stroke="black" fill="none" stroke-width="6.0" stroke-linecap="round" stroke-linejoin="round" />
<path d="M 181.25 213.75 L 178.75 218.75 L 182.5 218.75 L 198.75 212.5 L 221.25 197.5 " stroke="black" fill="none" stroke-width="6.0" stroke-linecap="round" stroke-linejoin="round" />
</svg>