<svg xmlns="http://www.w3.org/2000/svg" width="300" height="300" viewBox="0 0 300 300">
<path d="M 71.25 101.25 L 71.25 101.25 L 68.75 101.25 L 68.75 101.25 L 77.5 102.5 L 90.0 102.5 L 105.0 101.25 L 115.0 98.75 " stroke="black" fill="none" stroke-width="6.0" stroke-linecap="round" stroke-linejoin="round" />
<path d="M 70.0 167.5 L 66.25 170.0 L 63.75 172.5 L 68.75 168.75 L 82.5 156.25 L 96.25 146.25 L 105.0 140.0 L 106.25 140.0 " stroke="black" fill="none" stroke-width="6.0" stroke-linecap="round" stroke-linejoin="round" />
<path d="M 82.5 232.5 L 80.0 237.5 L 78.75 241.25 L 82.5 231.25 L 92.5 207.5 L 106.25 177.5 L 120.0 143.75 " stroke="black" fill="none" stroke-width="6.0" stroke-linecap="round" stroke-linejoin="round" />
<path d="M 145.0 76.25 L 145.0 75.0 L 143.75 73.75 L 143.75 75.0 L 143.75 92.5 L 145.0 111.25 L 147.5 123.75 L 150.0 125.0 L 150.0 125.0 " stroke="black" fill="none" stroke-width="6.0" stroke-linecap="round" stroke-linejoin="round" />
<path d="M 143.75 78.75 L 143.75 78.75 L 143.75 77.5 L 152.5 76.25 L 167.5 76.25 L 192.5 76.25 L 202.5 82.5 L 198.75 92.5 L 188.75 101.25 L 171.25 113.75 L 156.25 117.5 " stroke="black" fill="none" stroke-width="6.0" stroke-linecap="round" stroke-linejoin="round" />
<path d="M 140.0 105.0 L 140.0 105.0 L 141.25 103.75 L 151.25 100.0 L 172.5 93.75 L 191.25 86.25 L 198.75 83.75 L 191.25 86.25 " stroke="black" fill="none" stroke-width="6.0" stroke-linecap="round" stroke-linejoin="round" />
<path d="M 147.5 123.75 L 146.25 123.75 L 143.75 126.25 L 145.0 126.25 L 157.5 121.25 L 176.25 110.0 L 192.5 98.75 L 196.25 96.25 L 193.75 96.25 " stroke="black" fill="none" stroke-width="6.0" stroke-linecap="round" stroke-linejoin="round" />
<path d="M 125.0 158.75 L 123.75 160.0 L 123.75 160.0 L 138.75 153.75 L 166.25 141.25 L 193.75 128.75 L 201.25 125.0 L 197.5 128.75 L 181.25 146.25 L 161.25 167.5 L 140.0 192.5 L 121.25 213.75 L 115.0 220.0 L 115.0 218.75 " stroke="black" fill="none" stroke-width="6.0" stroke-linecap="round" stroke-linejoin="round" />
<path d="M 152.5 177.5 L 152.5 176.25 L 152.5 176.25 L 170.0 173.75 L 201.25 170.0 L 227.5 170.0 L 237.5 177.5 L 231.25 191.25 L 213.75 208.75 L 197.5 226.25 L 183.75 237.5 L 176.25 241.25 " stroke="black" fill="none" stroke-width="6.0" stroke-linecap="round" stroke-linejoin="round" />
<path d="M 168.75 182.5 L 167.5 182.5 L 162.5 182.5 L 158.75 186.25 L 156.25 201.25 L 155.0 220.0 L 155.0 230.0 L 156.25 230.0 " stroke="black" fill="none" stroke-width="6.0" stroke-linecap="round" stroke-linejoin="round" />
<path d="M 191.25 176.25 L 191.25 176.25 L 188.75 178.75 L 183.75 197.5 L 178.75 230.0 L 175.0 245.0 " stroke="black" fill="none" stroke-width="6.0" stroke-linecap="round" stroke-linejoin="round" />
</svg>