<svg xmlns="http://www.w3.org/2000/svg" width="300" height="300" viewBox="0 0 300 300">
<path d="M 71.25 113.75 L 71.25 115.0 L 71.25 115.0 L 71.25 116.25 L 80.0 116.25 L 92.5 113.75 L 105.0 108.75 L 106.25 107.5 " stroke="black" fill="none" stroke-width="6.0" stroke-linecap="round" stroke-linejoin="round" />
<path d="M 67.5 156.25 L 62.5 158.75 L 62.5 160.0 L 72.5 156.25 L 86.25 147.5 L 98.75 138.75 L 102.5 136.25 " stroke="black" fill="none" stroke-width="6.0" stroke-linecap="round" stroke-linejoin="round" />
<path d="M 70.0 223.75 L 68.75 226.25 L 67.5 227.5 L 73.75 218.75 L 90.0 198.75 L 110.0 168.75 " stroke="black" fill="none" stroke-width="6.0" stroke-linecap="round" stroke-linejoin="round" />
<path d="M 123.75 102.5 L 123.75 102.5 L 121.25 103.75 L 123.75 103.75 L 140.0 98.75 L 170.0 87.5 L 198.75 73.75 L 208.75 67.5 L 207.5 66.25 L 197.5 71.25 L 183.75 76.25 L 165.0 78.75 L 150.0 80.0 L 138.75 81.25 L 137.5 81.25 L 137.5 83.75 L 143.75 96.25 L 150.0 112.5 L 155.0 125.0 L 160.0 127.5 L 163.75 122.5 L 167.5 110.0 L 171.25 98.75 L 175.0 88.75 L 178.75 81.25 L 181.25 78.75 L 182.5 81.25 L 178.75 92.5 L 170.0 110.0 L 160.0 127.5 " stroke="black" fill="none" stroke-width="6.0" stroke-linecap="round" stroke-linejoin="round" />
<path d="M 127.5 147.5 L 126.25 147.5 L 122.5 153.75 L 121.25 177.5 L 125.0 211.25 L 131.25 233.75 L 137.5 241.25 L 138.75 240.0 " stroke="black" fill="none" stroke-width="6.0" stroke-linecap="round" stroke-linejoin="round" />
<path d="M 128.75 166.25 L 128.75 166.25 L 127.5 166.25 L 135.0 166.25 L 150.0 162.5 L 190.0 148.75 L 213.75 137.5 L 225.0 132.5 L 230.0 131.25 L 232.5 137.5 L 235.0 153.75 L 238.75 186.25 L 242.5 220.0 L 243.75 243.75 L 243.75 252.5 L 241.25 252.5 L 237.5 251.25 L 231.25 243.75 L 220.0 233.75 L 207.5 216.25 " stroke="black" fill="none" stroke-width="6.0" stroke-linecap="round" stroke-linejoin="round" />
<path d="M 168.75 138.75 L 168.75 138.75 L 168.75 137.5 L 168.75 138.75 L 168.75 160.0 L 171.25 201.25 L 173.75 225.0 L 173.75 228.75 " stroke="black" fill="none" stroke-width="6.0" stroke-linecap="round" stroke-linejoin="round" />
<path d="M 190.0 158.75 L 191.25 158.75 L 191.25 160.0 L 197.5 165.0 L 208.75 173.75 L 221.25 183.75 L 226.25 190.0 L 221.25 193.75 " stroke="black" fill="none" stroke-width="6.0" stroke-linecap="round" stroke-linejoin="round" />
<path d="M 206.25 182.5 L 205.0 181.25 L 202.5 180.0 L 197.5 185.0 L 187.5 200.0 L 177.5 215.0 " stroke="black" fill="none" stroke-width="6.0" stroke-linecap="round" stroke-linejoin="round" />
<path d="M 136.25 185.0 L 133.75 186.25 L 133.75 187.5 L 138.75 190.0 L 148.75 195.0 L 160.0 198.75 L 167.5 201.25 L 167.5 202.5 L 162.5 202.5 L 158.75 201.25 L 155.0 201.25 L 151.25 201.25 L 146.25 203.75 L 136.25 221.25 L 128.75 233.75 " stroke="black" fill="none" stroke-width="6.0" stroke-linecap="round" stroke-linejoin="round" />
</svg>