<svg xmlns="http://www.w3.org/2000/svg" width="300" height="300" viewBox="0 0 300 300">
<path d="M 73.75 111.25 L 71.25 112.5 L 68.75 113.75 L 68.75 113.75 L 73.75 113.75 L 83.75 111.25 L 90.0 108.75 L 91.25 108.75 " stroke="black" fill="none" stroke-width="6.0" stroke-linecap="round" stroke-linejoin="round" />
<path d="M 70.0 147.5 L 68.75 148.75 L 65.0 152.5 L 66.25 152.5 L 75.0 150.0 L 85.0 146.25 L 92.5 142.5 L 95.0 141.25 " stroke="black" fill="none" stroke-width="6.0" stroke-linecap="round" stroke-linejoin="round" />
<path d="M 76.25 217.5 L 71.25 225.0 L 70.0 226.25 L 75.0 218.75 L 85.0 203.75 L 92.5 187.5 " stroke="black" fill="none" stroke-width="6.0" stroke-linecap="round" stroke-linejoin="round" />
<path d="M 111.25 98.75 L 111.25 98.75 L 110.0 100.0 L 110.0 101.25 L 115.0 101.25 L 123.75 101.25 L 140.0 100.0 L 148.75 98.75 L 148.75 98.75 " stroke="black" fill="none" stroke-width="6.0" stroke-linecap="round" stroke-linejoin="round" />
<path d="M 107.5 142.5 L 103.75 145.0 L 103.75 146.25 L 113.75 140.0 L 128.75 130.0 L 142.5 120.0 L 150.0 111.25 L 150.0 110.0 L 145.0 120.0 L 136.25 141.25 L 125.0 171.25 L 117.5 198.75 L 115.0 210.0 L 115.0 206.25 " stroke="black" fill="none" stroke-width="6.0" stroke-linecap="round" stroke-linejoin="round" />
<path d="M 133.75 151.25 L 133.75 150.0 L 133.75 148.75 L 136.25 147.5 L 142.5 151.25 L 150.0 163.75 L 155.0 182.5 L 152.5 202.5 L 141.25 217.5 L 130.0 222.5 L 123.75 221.25 L 125.0 208.75 L 128.75 201.25 " stroke="black" fill="none" stroke-width="6.0" stroke-linecap="round" stroke-linejoin="round" />
<path d="M 182.5 81.25 L 181.25 81.25 L 180.0 81.25 L 178.75 83.75 L 181.25 91.25 L 190.0 97.5 L 202.5 98.75 L 216.25 92.5 L 226.25 83.75 L 227.5 78.75 L 218.75 81.25 " stroke="black" fill="none" stroke-width="6.0" stroke-linecap="round" stroke-linejoin="round" />
<path d="M 176.25 141.25 L 176.25 141.25 L 177.5 142.5 L 178.75 142.5 L 187.5 140.0 L 198.75 136.25 L 207.5 135.0 L 210.0 135.0 L 207.5 142.5 L 201.25 150.0 L 198.75 156.25 L 198.75 158.75 L 203.75 158.75 L 212.5 160.0 L 220.0 168.75 L 223.75 188.75 L 220.0 212.5 L 213.75 231.25 L 210.0 240.0 L 207.5 241.25 L 206.25 237.5 L 203.75 230.0 L 201.25 220.0 " stroke="black" fill="none" stroke-width="6.0" stroke-linecap="round" stroke-linejoin="round" />
<path d="M 170.0 196.25 L 170.0 196.25 L 168.75 197.5 L 171.25 197.5 L 190.0 190.0 L 220.0 176.25 L 252.5 158.75 L 270.0 148.75 L 273.75 145.0 " stroke="black" fill="none" stroke-width="6.0" stroke-linecap="round" stroke-linejoin="round" />
</svg>