<svg xmlns="http://www.w3.org/2000/svg" width="300" height="300" viewBox="0 0 300 300">
<path d="M 70.0 128.75 L 68.75 128.75 L 66.25 130.0 L 71.25 130.0 L 82.5 128.75 L 93.75 127.5 L 100.0 125.0 L 101.25 123.75 " stroke="black" fill="none" stroke-width="6.0" stroke-linecap="round" stroke-linejoin="round" />
<path d="M 68.75 173.75 L 67.5 176.25 L 68.75 176.25 L 77.5 173.75 L 86.25 167.5 L 95.0 160.0 L 98.75 155.0 L 98.75 153.75 " stroke="black" fill="none" stroke-width="6.0" stroke-linecap="round" stroke-linejoin="round" />
<path d="M 71.25 231.25 L 70.0 233.75 L 68.75 236.25 L 75.0 232.5 L 86.25 220.0 L 96.25 201.25 L 102.5 187.5 " stroke="black" fill="none" stroke-width="6.0" stroke-linecap="round" stroke-linejoin="round" />
<path d="M 118.75 113.75 L 116.25 113.75 L 113.75 113.75 L 115.0 111.25 L 126.25 108.75 L 140.0 105.0 L 150.0 101.25 L 153.75 100.0 L 151.25 102.5 L 150.0 103.75 " stroke="black" fill="none" stroke-width="6.0" stroke-linecap="round" stroke-linejoin="round" />
<path d="M 113.75 148.75 L 111.25 151.25 L 112.5 151.25 L 122.5 147.5 L 135.0 140.0 L 146.25 131.25 L 150.0 127.5 L 146.25 130.0 " stroke="black" fill="none" stroke-width="6.0" stroke-linecap="round" stroke-linejoin="round" />
<path d="M 107.5 180.0 L 108.75 181.25 L 108.75 183.75 L 110.0 185.0 L 120.0 178.75 L 135.0 167.5 L 147.5 155.0 L 151.25 147.5 L 147.5 148.75 L 141.25 153.75 " stroke="black" fill="none" stroke-width="6.0" stroke-linecap="round" stroke-linejoin="round" />
<path d="M 106.25 196.25 L 106.25 197.5 L 107.5 201.25 L 111.25 207.5 L 122.5 218.75 L 135.0 230.0 L 141.25 235.0 L 141.25 235.0 L 140.0 235.0 L 133.75 233.75 L 126.25 230.0 L 121.25 227.5 L 120.0 223.75 L 122.5 216.25 L 133.75 208.75 L 147.5 200.0 L 156.25 195.0 L 157.5 196.25 L 152.5 206.25 L 143.75 218.75 L 136.25 227.5 L 133.75 230.0 L 135.0 223.75 " stroke="black" fill="none" stroke-width="6.0" stroke-linecap="round" stroke-linejoin="round" />
<path d="M 177.5 100.0 L 176.25 98.75 L 173.75 98.75 L 172.5 105.0 L 175.0 117.5 L 182.5 125.0 L 192.5 123.75 L 202.5 113.75 L 212.5 102.5 L 216.25 97.5 L 212.5 98.75 L 206.25 106.25 " stroke="black" fill="none" stroke-width="6.0" stroke-linecap="round" stroke-linejoin="round" />
<path d="M 160.0 185.0 L 160.0 185.0 L 163.75 185.0 L 181.25 175.0 L 205.0 157.5 L 217.5 146.25 L 220.0 141.25 L 216.25 140.0 L 211.25 140.0 L 205.0 138.75 L 201.25 137.5 " stroke="black" fill="none" stroke-width="6.0" stroke-linecap="round" stroke-linejoin="round" />
<path d="M 195.0 122.5 L 195.0 122.5 L 193.75 121.25 L 193.75 122.5 L 195.0 138.75 L 198.75 178.75 L 200.0 216.25 L 200.0 240.0 L 198.75 252.5 L 195.0 257.5 L 191.25 260.0 L 186.25 258.75 L 181.25 255.0 " stroke="black" fill="none" stroke-width="6.0" stroke-linecap="round" stroke-linejoin="round" />
</svg>