<svg xmlns="http://www.w3.org/2000/svg" width="300" height="300" viewBox="0 0 300 300">
<path d="M 55.0 107.5 L 55.0 107.5 L 52.5 108.75 L 53.75 110.0 L 63.75 110.0 L 78.75 108.75 L 91.25 106.25 L 98.75 102.5 L 98.75 102.5 " stroke="black" fill="none" stroke-width="6.0" stroke-linecap="round" stroke-linejoin="round" />
<path d="M 56.25 153.75 L 56.25 153.75 L 55.0 155.0 L 57.5 155.0 L 68.75 151.25 L 80.0 146.25 L 92.5 137.5 L 95.0 136.25 " stroke="black" fill="none" stroke-width="6.0" stroke-linecap="round" stroke-linejoin="round" />
<path d="M 57.5 246.25 L 57.5 247.5 L 55.0 250.0 L 55.0 250.0 L 63.75 241.25 L 77.5 221.25 L 86.25 202.5 " stroke="black" fill="none" stroke-width="6.0" stroke-linecap="round" stroke-linejoin="round" />
<path d="M 126.25 83.75 L 122.5 85.0 L 121.25 85.0 L 132.5 85.0 L 151.25 80.0 L 172.5 71.25 L 188.75 62.5 L 195.0 58.75 L 191.25 58.75 L 181.25 60.0 L 170.0 62.5 L 161.25 63.75 L 156.25 63.75 L 155.0 63.75 L 155.0 62.5 L 157.5 65.0 L 158.75 81.25 L 160.0 107.5 L 158.75 132.5 L 156.25 141.25 L 155.0 141.25 " stroke="black" fill="none" stroke-width="6.0" stroke-linecap="round" stroke-linejoin="round" />
<path d="M 155.0 86.25 L 150.0 91.25 L 141.25 107.5 L 126.25 136.25 L 115.0 153.75 L 102.5 167.5 L 98.75 168.75 L 98.75 158.75 L 98.75 156.25 " stroke="black" fill="none" stroke-width="6.0" stroke-linecap="round" stroke-linejoin="round" />
<path d="M 156.25 98.75 L 170.0 98.75 L 188.75 105.0 L 206.25 113.75 L 218.75 121.25 L 230.0 126.25 L 233.75 130.0 L 230.0 131.25 " stroke="black" fill="none" stroke-width="6.0" stroke-linecap="round" stroke-linejoin="round" />
<path d="M 155.0 148.75 L 151.25 151.25 L 142.5 161.25 L 130.0 181.25 L 113.75 200.0 L 102.5 210.0 L 96.25 211.25 L 96.25 208.75 " stroke="black" fill="none" stroke-width="6.0" stroke-linecap="round" stroke-linejoin="round" />
<path d="M 152.5 143.75 L 155.0 143.75 L 168.75 145.0 L 193.75 152.5 L 212.5 162.5 L 233.75 172.5 L 250.0 181.25 L 253.75 186.25 L 251.25 192.5 L 245.0 195.0 " stroke="black" fill="none" stroke-width="6.0" stroke-linecap="round" stroke-linejoin="round" />
<path d="M 158.75 177.5 L 158.75 177.5 L 157.5 180.0 L 157.5 200.0 L 158.75 233.75 L 160.0 256.25 L 160.0 262.5 L 156.25 262.5 L 151.25 256.25 L 150.0 253.75 " stroke="black" fill="none" stroke-width="6.0" stroke-linecap="round" stroke-linejoin="round" />
<path d="M 120.0 211.25 L 117.5 212.5 L 115.0 213.75 L 115.0 213.75 L 118.75 213.75 L 127.5 213.75 L 132.5 215.0 L 132.5 222.5 L 126.25 235.0 L 122.5 243.75 L 125.0 245.0 L 143.75 230.0 L 170.0 208.75 L 193.75 192.5 L 203.75 187.5 L 203.75 191.25 L 200.0 206.25 L 196.25 223.75 L 197.5 237.5 L 208.75 240.0 L 226.25 238.75 L 240.0 238.75 L 242.5 247.5 L 233.75 262.5 L 220.0 280.0 L 210.0 292.5 " stroke="black" fill="none" stroke-width="6.0" stroke-linecap="round" stroke-linejoin="round" />
</svg>