<svg xmlns="http://www.w3.org/2000/svg" width="300" height="300" viewBox="0 0 300 300">
<path d="M 82.5 95.0 L 82.5 95.0 L 80.0 95.0 L 80.0 95.0 L 86.25 96.25 L 96.25 100.0 L 110.0 103.75 L 118.75 108.75 " stroke="black" fill="none" stroke-width="6.0" stroke-linecap="round" stroke-linejoin="round" />
<path d="M 78.75 135.0 L 77.5 137.5 L 76.25 138.75 L 80.0 141.25 L 90.0 142.5 L 101.25 142.5 L 105.0 142.5 " stroke="black" fill="none" stroke-width="6.0" stroke-linecap="round" stroke-linejoin="round" />
<path d="M 80.0 245.0 L 75.0 248.75 L 75.0 248.75 L 85.0 233.75 L 100.0 211.25 L 115.0 192.5 " stroke="black" fill="none" stroke-width="6.0" stroke-linecap="round" stroke-linejoin="round" />
<path d="M 148.75 73.75 L 145.0 76.25 L 141.25 78.75 L 145.0 80.0 L 158.75 78.75 L 178.75 73.75 L 200.0 66.25 L 210.0 60.0 L 210.0 56.25 L 200.0 57.5 L 197.5 58.75 " stroke="black" fill="none" stroke-width="6.0" stroke-linecap="round" stroke-linejoin="round" />
<path d="M 162.5 63.75 L 157.5 63.75 L 152.5 63.75 L 151.25 66.25 L 152.5 73.75 L 156.25 85.0 L 158.75 97.5 L 158.75 102.5 " stroke="black" fill="none" stroke-width="6.0" stroke-linecap="round" stroke-linejoin="round" />
<path d="M 197.5 57.5 L 196.25 60.0 L 192.5 68.75 L 186.25 81.25 L 176.25 96.25 L 168.75 106.25 " stroke="black" fill="none" stroke-width="6.0" stroke-linecap="round" stroke-linejoin="round" />
<path d="M 150.0 108.75 L 147.5 108.75 L 145.0 108.75 L 145.0 116.25 L 147.5 138.75 L 151.25 157.5 L 152.5 166.25 L 153.75 166.25 L 152.5 160.0 " stroke="black" fill="none" stroke-width="6.0" stroke-linecap="round" stroke-linejoin="round" />
<path d="M 151.25 128.75 L 148.75 126.25 L 147.5 125.0 L 151.25 122.5 L 167.5 117.5 L 190.0 112.5 L 208.75 110.0 L 216.25 111.25 L 215.0 120.0 L 205.0 135.0 L 193.75 148.75 L 182.5 156.25 L 171.25 157.5 L 166.25 157.5 " stroke="black" fill="none" stroke-width="6.0" stroke-linecap="round" stroke-linejoin="round" />
<path d="M 155.0 142.5 L 153.75 141.25 L 152.5 141.25 L 153.75 140.0 L 166.25 136.25 L 187.5 128.75 L 203.75 121.25 L 206.25 118.75 L 202.5 121.25 " stroke="black" fill="none" stroke-width="6.0" stroke-linecap="round" stroke-linejoin="round" />
<path d="M 157.5 161.25 L 153.75 165.0 L 153.75 166.25 L 160.0 165.0 L 176.25 157.5 L 193.75 147.5 L 205.0 138.75 L 205.0 137.5 " stroke="black" fill="none" stroke-width="6.0" stroke-linecap="round" stroke-linejoin="round" />
<path d="M 131.25 205.0 L 126.25 210.0 L 126.25 212.5 L 140.0 208.75 L 165.0 197.5 L 197.5 180.0 L 217.5 162.5 L 226.25 152.5 L 222.5 151.25 L 220.0 151.25 " stroke="black" fill="none" stroke-width="6.0" stroke-linecap="round" stroke-linejoin="round" />
<path d="M 175.0 166.25 L 175.0 168.75 L 173.75 175.0 L 172.5 186.25 L 168.75 206.25 L 160.0 226.25 L 150.0 240.0 L 138.75 243.75 L 131.25 241.25 L 128.75 235.0 " stroke="black" fill="none" stroke-width="6.0" stroke-linecap="round" stroke-linejoin="round" />
<path d="M 178.75 183.75 L 181.25 183.75 L 190.0 191.25 L 203.75 202.5 L 216.25 218.75 L 230.0 237.5 L 242.5 250.0 L 248.75 256.25 L 251.25 258.75 L 251.25 258.75 L 247.5 258.75 L 246.25 258.75 " stroke="black" fill="none" stroke-width="6.0" stroke-linecap="round" stroke-linejoin="round" />
</svg>