<svg xmlns="http://www.w3.org/2000/svg" width="300" height="300" viewBox="0 0 300 300">
<path d="M 73.75 118.75 L 71.25 120.0 L 65.0 122.5 L 66.25 122.5 L 77.5 122.5 L 91.25 118.75 L 101.25 115.0 L 105.0 111.25 L 103.75 112.5 " stroke="black" fill="none" stroke-width="6.0" stroke-linecap="round" stroke-linejoin="round" />
<path d="M 72.5 171.25 L 72.5 172.5 L 70.0 177.5 L 73.75 176.25 L 85.0 167.5 L 97.5 153.75 L 105.0 143.75 L 106.25 141.25 " stroke="black" fill="none" stroke-width="6.0" stroke-linecap="round" stroke-linejoin="round" />
<path d="M 76.25 223.75 L 75.0 226.25 L 68.75 232.5 L 72.5 230.0 L 85.0 215.0 L 101.25 195.0 L 105.0 190.0 " stroke="black" fill="none" stroke-width="6.0" stroke-linecap="round" stroke-linejoin="round" />
<path d="M 151.25 50.0 L 150.0 50.0 L 148.75 48.75 L 150.0 47.5 L 161.25 46.25 L 175.0 47.5 L 186.25 51.25 L 186.25 55.0 " stroke="black" fill="none" stroke-width="6.0" stroke-linecap="round" stroke-linejoin="round" />
<path d="M 132.5 87.5 L 130.0 87.5 L 130.0 88.75 L 132.5 91.25 L 138.75 97.5 L 145.0 106.25 L 147.5 111.25 L 147.5 110.0 L 147.5 106.25 L 143.75 101.25 L 140.0 97.5 L 136.25 95.0 L 136.25 92.5 L 140.0 88.75 L 152.5 82.5 L 172.5 75.0 L 193.75 68.75 L 202.5 68.75 L 202.5 75.0 L 193.75 87.5 L 182.5 97.5 " stroke="black" fill="none" stroke-width="6.0" stroke-linecap="round" stroke-linejoin="round" />
<path d="M 151.25 112.5 L 150.0 113.75 L 145.0 117.5 L 143.75 117.5 L 147.5 117.5 L 157.5 113.75 L 170.0 105.0 L 178.75 97.5 L 186.25 90.0 L 187.5 88.75 L 185.0 88.75 L 182.5 93.75 L 180.0 103.75 L 180.0 118.75 L 180.0 132.5 L 180.0 142.5 L 178.75 146.25 L 177.5 146.25 L 175.0 143.75 L 170.0 141.25 L 161.25 140.0 L 153.75 138.75 L 147.5 138.75 L 147.5 138.75 L 148.75 137.5 L 157.5 133.75 L 171.25 127.5 L 188.75 118.75 L 202.5 112.5 L 206.25 111.25 L 202.5 117.5 L 188.75 133.75 L 168.75 151.25 L 143.75 172.5 L 120.0 191.25 L 106.25 197.5 L 102.5 197.5 " stroke="black" fill="none" stroke-width="6.0" stroke-linecap="round" stroke-linejoin="round" />
<path d="M 162.5 166.25 L 161.25 166.25 L 158.75 166.25 L 157.5 175.0 L 160.0 196.25 L 163.75 220.0 L 168.75 233.75 L 170.0 235.0 L 170.0 228.75 L 171.25 216.25 " stroke="black" fill="none" stroke-width="6.0" stroke-linecap="round" stroke-linejoin="round" />
<path d="M 163.75 177.5 L 163.75 177.5 L 160.0 175.0 L 160.0 172.5 L 166.25 166.25 L 187.5 153.75 L 202.5 147.5 L 213.75 147.5 L 217.5 160.0 L 218.75 185.0 L 216.25 207.5 L 213.75 221.25 L 211.25 225.0 L 210.0 225.0 L 206.25 220.0 L 205.0 213.75 " stroke="black" fill="none" stroke-width="6.0" stroke-linecap="round" stroke-linejoin="round" />
<path d="M 186.25 158.75 L 185.0 160.0 L 182.5 161.25 L 182.5 167.5 L 186.25 182.5 L 187.5 200.0 L 186.25 215.0 L 180.0 221.25 L 171.25 223.75 L 163.75 226.25 L 162.5 227.5 L 163.75 227.5 L 171.25 226.25 L 183.75 220.0 L 197.5 210.0 L 210.0 201.25 L 215.0 193.75 L 215.0 192.5 L 215.0 192.5 " stroke="black" fill="none" stroke-width="6.0" stroke-linecap="round" stroke-linejoin="round" />
<path d="M 193.75 220.0 L 192.5 221.25 L 188.75 227.5 L 185.0 236.25 L 178.75 243.75 L 170.0 250.0 L 161.25 251.25 L 158.75 251.25 L 158.75 250.0 " stroke="black" fill="none" stroke-width="6.0" stroke-linecap="round" stroke-linejoin="round" />
<path d="M 196.25 226.25 L 197.5 228.75 L 202.5 232.5 L 208.75 237.5 L 217.5 242.5 L 227.5 248.75 L 233.75 253.75 L 237.5 256.25 L 238.75 258.75 L 238.75 260.0 L 237.5 260.0 " stroke="black" fill="none" stroke-width="6.0" stroke-linecap="round" stroke-linejoin="round" />
</svg>