<svg xmlns="http://www.w3.org/2000/svg" width="300" height="300" viewBox="0 0 300 300">
<path d="M 85.0 96.25 L 83.75 96.25 L 82.5 96.25 L 82.5 96.25 L 86.25 97.5 L 95.0 98.75 L 107.5 100.0 L 115.0 101.25 " stroke="black" fill="none" stroke-width="6.0" stroke-linecap="round" stroke-linejoin="round" />
<path d="M 78.75 157.5 L 72.5 162.5 L 70.0 163.75 L 76.25 162.5 L 88.75 155.0 L 101.25 146.25 L 112.5 141.25 L 113.75 140.0 " stroke="black" fill="none" stroke-width="6.0" stroke-linecap="round" stroke-linejoin="round" />
<path d="M 83.75 220.0 L 78.75 226.25 L 75.0 230.0 L 77.5 227.5 L 90.0 211.25 L 102.5 190.0 L 108.75 176.25 " stroke="black" fill="none" stroke-width="6.0" stroke-linecap="round" stroke-linejoin="round" />
<path d="M 131.25 92.5 L 130.0 92.5 L 127.5 92.5 L 126.25 92.5 L 131.25 91.25 L 140.0 90.0 L 147.5 87.5 L 152.5 87.5 L 152.5 87.5 L 146.25 102.5 L 133.75 122.5 L 127.5 136.25 L 128.75 138.75 L 141.25 133.75 L 156.25 118.75 L 170.0 103.75 L 180.0 93.75 L 182.5 90.0 L 176.25 90.0 L 168.75 92.5 L 165.0 93.75 " stroke="black" fill="none" stroke-width="6.0" stroke-linecap="round" stroke-linejoin="round" />
<path d="M 153.75 102.5 L 153.75 105.0 L 150.0 113.75 L 146.25 131.25 L 141.25 153.75 L 137.5 170.0 L 135.0 173.75 " stroke="black" fill="none" stroke-width="6.0" stroke-linecap="round" stroke-linejoin="round" />
<path d="M 153.75 120.0 L 153.75 118.75 L 153.75 121.25 L 157.5 135.0 L 162.5 152.5 L 168.75 157.5 L 178.75 151.25 L 188.75 135.0 L 196.25 118.75 L 198.75 101.25 L 198.75 90.0 " stroke="black" fill="none" stroke-width="6.0" stroke-linecap="round" stroke-linejoin="round" />
<path d="M 193.75 83.75 L 192.5 82.5 L 191.25 82.5 L 190.0 82.5 L 195.0 82.5 L 203.75 80.0 L 215.0 76.25 L 223.75 72.5 L 226.25 72.5 L 220.0 76.25 L 210.0 82.5 L 200.0 91.25 L 190.0 102.5 L 186.25 110.0 L 190.0 111.25 L 200.0 106.25 L 211.25 97.5 L 223.75 87.5 L 233.75 80.0 L 235.0 77.5 L 227.5 80.0 L 225.0 81.25 " stroke="black" fill="none" stroke-width="6.0" stroke-linecap="round" stroke-linejoin="round" />
<path d="M 210.0 86.25 L 210.0 86.25 L 210.0 86.25 L 210.0 90.0 L 207.5 101.25 L 205.0 121.25 L 200.0 140.0 L 193.75 150.0 L 187.5 152.5 " stroke="black" fill="none" stroke-width="6.0" stroke-linecap="round" stroke-linejoin="round" />
<path d="M 206.25 106.25 L 206.25 106.25 L 206.25 107.5 L 208.75 116.25 L 215.0 132.5 L 223.75 143.75 L 236.25 145.0 L 252.5 135.0 L 266.25 120.0 L 270.0 111.25 " stroke="black" fill="none" stroke-width="6.0" stroke-linecap="round" stroke-linejoin="round" />
<path d="M 171.25 177.5 L 171.25 177.5 L 168.75 177.5 L 166.25 187.5 L 165.0 211.25 L 165.0 235.0 L 166.25 243.75 L 167.5 241.25 L 167.5 237.5 " stroke="black" fill="none" stroke-width="6.0" stroke-linecap="round" stroke-linejoin="round" />
<path d="M 162.5 188.75 L 162.5 186.25 L 161.25 183.75 L 170.0 177.5 L 186.25 171.25 L 202.5 167.5 L 212.5 173.75 L 216.25 192.5 L 216.25 216.25 L 212.5 238.75 L 210.0 251.25 L 208.75 252.5 L 206.25 251.25 L 203.75 247.5 " stroke="black" fill="none" stroke-width="6.0" stroke-linecap="round" stroke-linejoin="round" />
<path d="M 163.75 215.0 L 160.0 216.25 L 156.25 216.25 L 158.75 216.25 L 173.75 211.25 L 193.75 203.75 L 208.75 195.0 L 212.5 192.5 L 208.75 193.75 " stroke="black" fill="none" stroke-width="6.0" stroke-linecap="round" stroke-linejoin="round" />
<path d="M 167.5 241.25 L 165.0 243.75 L 163.75 246.25 L 172.5 245.0 L 191.25 236.25 L 210.0 226.25 " stroke="black" fill="none" stroke-width="6.0" stroke-linecap="round" stroke-linejoin="round" />
</svg>