<svg xmlns="http://www.w3.org/2000/svg" width="300" height="300" viewBox="0 0 300 300">
<path d="M 68.75 108.75 L 67.5 108.75 L 65.0 108.75 L 66.25 110.0 L 75.0 110.0 L 87.5 110.0 L 97.5 107.5 L 100.0 105.0 " stroke="black" fill="none" stroke-width="6.0" stroke-linecap="round" stroke-linejoin="round" />
<path d="M 63.75 152.5 L 62.5 152.5 L 60.0 156.25 L 63.75 157.5 L 76.25 153.75 L 91.25 147.5 L 102.5 141.25 L 105.0 140.0 " stroke="black" fill="none" stroke-width="6.0" stroke-linecap="round" stroke-linejoin="round" />
<path d="M 65.0 246.25 L 63.75 250.0 L 62.5 255.0 L 72.5 248.75 L 91.25 228.75 L 113.75 197.5 L 117.5 190.0 " stroke="black" fill="none" stroke-width="6.0" stroke-linecap="round" stroke-linejoin="round" />
<path d="M 158.75 86.25 L 157.5 86.25 L 156.25 86.25 L 158.75 86.25 L 173.75 87.5 L 193.75 90.0 L 208.75 92.5 L 212.5 96.25 L 202.5 105.0 L 182.5 117.5 L 157.5 130.0 L 138.75 138.75 L 133.75 141.25 L 141.25 140.0 L 160.0 132.5 L 188.75 120.0 L 215.0 106.25 L 225.0 100.0 L 221.25 100.0 L 206.25 106.25 L 193.75 112.5 L 176.25 116.25 L 157.5 118.75 L 147.5 113.75 L 143.75 108.75 L 143.75 106.25 L 145.0 118.75 L 145.0 158.75 L 137.5 207.5 L 128.75 237.5 L 123.75 248.75 L 122.5 248.75 L 121.25 238.75 " stroke="black" fill="none" stroke-width="6.0" stroke-linecap="round" stroke-linejoin="round" />
<path d="M 140.0 157.5 L 141.25 157.5 L 145.0 158.75 L 165.0 158.75 L 198.75 152.5 L 221.25 145.0 L 230.0 141.25 L 227.5 140.0 L 215.0 143.75 L 200.0 151.25 L 182.5 160.0 L 162.5 173.75 L 148.75 192.5 L 147.5 213.75 L 153.75 231.25 L 165.0 241.25 L 175.0 246.25 L 182.5 247.5 L 183.75 248.75 L 182.5 248.75 L 176.25 247.5 L 166.25 243.75 L 156.25 236.25 L 147.5 226.25 L 143.75 218.75 L 145.0 215.0 L 156.25 210.0 L 177.5 203.75 L 208.75 196.25 L 243.75 190.0 L 266.25 191.25 L 270.0 202.5 L 266.25 216.25 L 251.25 231.25 L 230.0 242.5 L 207.5 250.0 L 197.5 250.0 " stroke="black" fill="none" stroke-width="6.0" stroke-linecap="round" stroke-linejoin="round" />
<path d="M 206.25 161.25 L 207.5 157.5 L 207.5 153.75 L 207.5 158.75 L 206.25 185.0 L 205.0 216.25 L 202.5 240.0 L 198.75 246.25 L 198.75 245.0 " stroke="black" fill="none" stroke-width="6.0" stroke-linecap="round" stroke-linejoin="round" />
<path d="M 233.75 162.5 L 233.75 162.5 L 233.75 168.75 L 223.75 193.75 L 210.0 217.5 L 198.75 231.25 L 188.75 233.75 " stroke="black" fill="none" stroke-width="6.0" stroke-linecap="round" stroke-linejoin="round" />
<path d="M 163.75 195.0 L 163.75 193.75 L 161.25 193.75 L 161.25 198.75 L 171.25 220.0 L 186.25 247.5 L 188.75 252.5 " stroke="black" fill="none" stroke-width="6.0" stroke-linecap="round" stroke-linejoin="round" />
</svg>