<svg xmlns="http://www.w3.org/2000/svg" width="300" height="300" viewBox="0 0 300 300">
<path d="M 70.0 100.0 L 67.5 100.0 L 63.75 101.25 L 65.0 101.25 L 75.0 103.75 L 88.75 106.25 L 98.75 107.5 L 101.25 108.75 " stroke="black" fill="none" stroke-width="6.0" stroke-linecap="round" stroke-linejoin="round" />
<path d="M 70.0 145.0 L 67.5 146.25 L 63.75 148.75 L 63.75 148.75 L 75.0 148.75 L 88.75 143.75 L 101.25 138.75 L 103.75 137.5 " stroke="black" fill="none" stroke-width="6.0" stroke-linecap="round" stroke-linejoin="round" />
<path d="M 71.25 215.0 L 62.5 228.75 L 62.5 230.0 L 75.0 220.0 L 95.0 196.25 L 107.5 173.75 " stroke="black" fill="none" stroke-width="6.0" stroke-linecap="round" stroke-linejoin="round" />
<path d="M 140.0 71.25 L 140.0 71.25 L 137.5 71.25 L 136.25 72.5 L 136.25 83.75 L 141.25 102.5 L 146.25 115.0 L 148.75 118.75 L 148.75 115.0 " stroke="black" fill="none" stroke-width="6.0" stroke-linecap="round" stroke-linejoin="round" />
<path d="M 137.5 78.75 L 136.25 76.25 L 136.25 73.75 L 142.5 72.5 L 157.5 70.0 L 177.5 68.75 L 190.0 70.0 L 191.25 77.5 L 180.0 90.0 L 163.75 103.75 L 150.0 108.75 L 142.5 110.0 " stroke="black" fill="none" stroke-width="6.0" stroke-linecap="round" stroke-linejoin="round" />
<path d="M 137.5 96.25 L 137.5 96.25 L 137.5 95.0 L 140.0 92.5 L 151.25 86.25 L 167.5 80.0 L 180.0 76.25 L 177.5 78.75 L 175.0 80.0 " stroke="black" fill="none" stroke-width="6.0" stroke-linecap="round" stroke-linejoin="round" />
<path d="M 137.5 118.75 L 135.0 120.0 L 132.5 122.5 L 138.75 120.0 L 152.5 111.25 L 166.25 101.25 L 173.75 95.0 L 171.25 95.0 " stroke="black" fill="none" stroke-width="6.0" stroke-linecap="round" stroke-linejoin="round" />
<path d="M 112.5 132.5 L 112.5 135.0 L 112.5 141.25 L 121.25 155.0 L 135.0 171.25 L 146.25 182.5 L 148.75 185.0 L 148.75 182.5 L 145.0 175.0 L 138.75 167.5 L 131.25 161.25 L 125.0 153.75 L 120.0 147.5 L 117.5 143.75 L 121.25 142.5 L 136.25 138.75 L 153.75 131.25 L 180.0 120.0 L 198.75 111.25 L 203.75 110.0 L 201.25 113.75 L 192.5 131.25 L 178.75 148.75 L 160.0 165.0 L 151.25 171.25 " stroke="black" fill="none" stroke-width="6.0" stroke-linecap="round" stroke-linejoin="round" />
<path d="M 148.75 132.5 L 148.75 128.75 L 148.75 127.5 L 148.75 137.5 L 150.0 156.25 L 150.0 171.25 L 150.0 175.0 " stroke="black" fill="none" stroke-width="6.0" stroke-linecap="round" stroke-linejoin="round" />
<path d="M 171.25 113.75 L 171.25 108.75 L 171.25 108.75 L 167.5 123.75 L 160.0 145.0 L 150.0 166.25 L 145.0 177.5 L 145.0 176.25 L 152.5 167.5 L 166.25 152.5 L 181.25 138.75 L 193.75 128.75 L 197.5 126.25 L 190.0 135.0 L 187.5 137.5 " stroke="black" fill="none" stroke-width="6.0" stroke-linecap="round" stroke-linejoin="round" />
<path d="M 143.75 208.75 L 142.5 208.75 L 141.25 210.0 L 145.0 207.5 L 160.0 193.75 L 182.5 175.0 L 195.0 163.75 L 196.25 162.5 L 190.0 176.25 L 178.75 197.5 L 165.0 218.75 L 150.0 237.5 L 138.75 248.75 L 131.25 248.75 L 130.0 240.0 L 131.25 226.25 L 133.75 211.25 L 136.25 201.25 L 136.25 197.5 L 135.0 198.75 L 135.0 200.0 L 137.5 202.5 L 143.75 205.0 L 150.0 210.0 L 158.75 218.75 L 168.75 230.0 L 183.75 241.25 L 200.0 250.0 L 215.0 255.0 L 235.0 258.75 L 246.25 257.5 " stroke="black" fill="none" stroke-width="6.0" stroke-linecap="round" stroke-linejoin="round" />
</svg>