<svg xmlns="http://www.w3.org/2000/svg" width="300" height="300" viewBox="0 0 300 300">
<path d="M 66.25 131.25 L 60.0 132.5 L 57.5 133.75 L 63.75 133.75 L 76.25 133.75 L 87.5 130.0 L 95.0 125.0 L 97.5 122.5 L 97.5 122.5 " stroke="black" fill="none" stroke-width="6.0" stroke-linecap="round" stroke-linejoin="round" />
<path d="M 65.0 181.25 L 63.75 182.5 L 62.5 185.0 L 66.25 183.75 L 77.5 175.0 L 88.75 162.5 L 93.75 155.0 L 95.0 153.75 " stroke="black" fill="none" stroke-width="6.0" stroke-linecap="round" stroke-linejoin="round" />
<path d="M 62.5 242.5 L 62.5 242.5 L 61.25 242.5 L 67.5 233.75 L 85.0 207.5 L 101.25 178.75 L 108.75 155.0 L 111.25 147.5 " stroke="black" fill="none" stroke-width="6.0" stroke-linecap="round" stroke-linejoin="round" />
<path d="M 117.5 113.75 L 117.5 113.75 L 117.5 112.5 L 116.25 112.5 L 115.0 117.5 L 113.75 140.0 L 115.0 188.75 L 117.5 222.5 L 120.0 233.75 L 121.25 232.5 " stroke="black" fill="none" stroke-width="6.0" stroke-linecap="round" stroke-linejoin="round" />
<path d="M 115.0 127.5 L 113.75 127.5 L 111.25 125.0 L 111.25 123.75 L 122.5 121.25 L 137.5 117.5 L 148.75 115.0 L 155.0 115.0 L 155.0 121.25 L 148.75 132.5 L 138.75 142.5 L 126.25 150.0 L 116.25 156.25 L 112.5 157.5 L 115.0 157.5 L 125.0 152.5 L 138.75 143.75 L 150.0 136.25 L 156.25 130.0 L 157.5 130.0 L 150.0 141.25 L 140.0 155.0 L 128.75 171.25 L 121.25 182.5 L 122.5 180.0 L 125.0 176.25 " stroke="black" fill="none" stroke-width="6.0" stroke-linecap="round" stroke-linejoin="round" />
<path d="M 182.5 116.25 L 181.25 116.25 L 178.75 115.0 L 177.5 117.5 L 180.0 132.5 L 187.5 148.75 L 196.25 153.75 L 206.25 150.0 L 215.0 136.25 L 221.25 123.75 L 222.5 113.75 L 215.0 110.0 L 205.0 117.5 L 192.5 128.75 L 181.25 140.0 L 177.5 143.75 L 180.0 142.5 L 191.25 135.0 L 203.75 123.75 L 212.5 112.5 L 215.0 103.75 L 215.0 102.5 " stroke="black" fill="none" stroke-width="6.0" stroke-linecap="round" stroke-linejoin="round" />
<path d="M 187.5 112.5 L 186.25 112.5 L 185.0 112.5 L 192.5 110.0 L 202.5 105.0 L 213.75 101.25 L 222.5 100.0 L 227.5 105.0 L 230.0 125.0 L 231.25 157.5 L 235.0 196.25 L 238.75 221.25 L 241.25 237.5 L 242.5 248.75 L 242.5 253.75 L 242.5 257.5 L 242.5 257.5 L 242.5 258.75 L 242.5 258.75 L 242.5 258.75 L 242.5 258.75 L 242.5 260.0 L 241.25 260.0 L 240.0 260.0 L 236.25 257.5 L 226.25 251.25 L 222.5 248.75 " stroke="black" fill="none" stroke-width="6.0" stroke-linecap="round" stroke-linejoin="round" />
<path d="M 155.0 187.5 L 155.0 187.5 L 152.5 187.5 L 150.0 187.5 L 155.0 185.0 L 171.25 177.5 L 187.5 168.75 L 196.25 163.75 L 195.0 162.5 L 186.25 167.5 " stroke="black" fill="none" stroke-width="6.0" stroke-linecap="round" stroke-linejoin="round" />
<path d="M 155.0 207.5 L 155.0 207.5 L 155.0 210.0 L 161.25 210.0 L 175.0 202.5 L 190.0 192.5 L 195.0 183.75 L 192.5 181.25 L 190.0 181.25 " stroke="black" fill="none" stroke-width="6.0" stroke-linecap="round" stroke-linejoin="round" />
<path d="M 168.75 180.0 L 168.75 180.0 L 168.75 181.25 L 172.5 187.5 L 180.0 202.5 L 182.5 220.0 L 178.75 232.5 L 170.0 238.75 L 160.0 241.25 L 151.25 242.5 L 148.75 242.5 L 147.5 242.5 L 148.75 242.5 L 152.5 242.5 L 157.5 242.5 L 166.25 240.0 L 177.5 237.5 L 190.0 235.0 L 201.25 232.5 L 210.0 231.25 L 216.25 228.75 L 220.0 227.5 L 218.75 226.25 " stroke="black" fill="none" stroke-width="6.0" stroke-linecap="round" stroke-linejoin="round" />
</svg>