<svg xmlns="http://www.w3.org/2000/svg" width="300" height="300" viewBox="0 0 300 300">
<path d="M 66.25 118.75 L 66.25 118.75 L 66.25 118.75 L 67.5 118.75 L 76.25 117.5 L 90.0 115.0 L 103.75 112.5 L 105.0 112.5 " stroke="black" fill="none" stroke-width="6.0" stroke-linecap="round" stroke-linejoin="round" />
<path d="M 70.0 168.75 L 66.25 172.5 L 65.0 175.0 L 68.75 175.0 L 82.5 167.5 L 96.25 158.75 L 106.25 151.25 L 106.25 151.25 " stroke="black" fill="none" stroke-width="6.0" stroke-linecap="round" stroke-linejoin="round" />
<path d="M 78.75 232.5 L 75.0 237.5 L 72.5 240.0 L 77.5 232.5 L 90.0 210.0 L 101.25 183.75 " stroke="black" fill="none" stroke-width="6.0" stroke-linecap="round" stroke-linejoin="round" />
<path d="M 120.0 82.5 L 117.5 82.5 L 117.5 82.5 L 118.75 82.5 L 131.25 81.25 L 145.0 77.5 L 157.5 72.5 L 158.75 72.5 L 156.25 73.75 " stroke="black" fill="none" stroke-width="6.0" stroke-linecap="round" stroke-linejoin="round" />
<path d="M 120.0 112.5 L 118.75 112.5 L 115.0 116.25 L 117.5 116.25 L 128.75 111.25 L 142.5 102.5 L 155.0 93.75 L 157.5 90.0 L 152.5 93.75 L 142.5 102.5 L 132.5 116.25 L 122.5 131.25 L 120.0 137.5 L 127.5 135.0 L 141.25 125.0 L 155.0 110.0 L 160.0 97.5 L 160.0 95.0 " stroke="black" fill="none" stroke-width="6.0" stroke-linecap="round" stroke-linejoin="round" />
<path d="M 136.25 73.75 L 136.25 73.75 L 133.75 73.75 L 133.75 76.25 L 136.25 97.5 L 140.0 127.5 L 146.25 142.5 L 146.25 143.75 " stroke="black" fill="none" stroke-width="6.0" stroke-linecap="round" stroke-linejoin="round" />
<path d="M 175.0 72.5 L 175.0 72.5 L 176.25 71.25 L 185.0 71.25 L 200.0 76.25 L 210.0 82.5 L 211.25 92.5 L 200.0 106.25 L 187.5 113.75 L 180.0 115.0 " stroke="black" fill="none" stroke-width="6.0" stroke-linecap="round" stroke-linejoin="round" />
<path d="M 182.5 80.0 L 182.5 78.75 L 182.5 77.5 L 177.5 87.5 L 168.75 112.5 L 160.0 132.5 " stroke="black" fill="none" stroke-width="6.0" stroke-linecap="round" stroke-linejoin="round" />
<path d="M 161.25 128.75 L 161.25 128.75 L 160.0 128.75 L 155.0 131.25 L 150.0 142.5 L 143.75 157.5 L 141.25 165.0 L 142.5 166.25 L 152.5 158.75 L 166.25 148.75 L 180.0 140.0 L 187.5 136.25 L 185.0 140.0 L 171.25 153.75 L 158.75 168.75 L 146.25 182.5 L 142.5 188.75 L 146.25 186.25 L 160.0 176.25 L 176.25 162.5 L 191.25 152.5 L 198.75 150.0 L 197.5 153.75 L 186.25 167.5 L 175.0 180.0 L 165.0 191.25 L 161.25 193.75 L 166.25 191.25 L 177.5 183.75 L 190.0 173.75 L 201.25 165.0 L 206.25 160.0 L 206.25 160.0 L 203.75 163.75 L 200.0 168.75 L 200.0 168.75 " stroke="black" fill="none" stroke-width="6.0" stroke-linecap="round" stroke-linejoin="round" />
<path d="M 185.0 181.25 L 185.0 181.25 L 183.75 181.25 L 183.75 188.75 L 185.0 206.25 L 186.25 227.5 L 186.25 238.75 L 186.25 241.25 L 186.25 241.25 L 186.25 238.75 L 186.25 237.5 L 182.5 236.25 L 176.25 236.25 " stroke="black" fill="none" stroke-width="6.0" stroke-linecap="round" stroke-linejoin="round" />
<path d="M 128.75 208.75 L 128.75 208.75 L 128.75 208.75 L 132.5 213.75 L 138.75 230.0 L 143.75 247.5 L 146.25 256.25 L 147.5 256.25 " stroke="black" fill="none" stroke-width="6.0" stroke-linecap="round" stroke-linejoin="round" />
<path d="M 198.75 195.0 L 198.75 195.0 L 202.5 195.0 L 210.0 200.0 L 225.0 215.0 L 238.75 236.25 L 242.5 248.75 " stroke="black" fill="none" stroke-width="6.0" stroke-linecap="round" stroke-linejoin="round" />
</svg>