<svg xmlns="http://www.w3.org/2000/svg" width="300" height="300" viewBox="0 0 300 300">
<path d="M 62.5 107.5 L 62.5 107.5 L 60.0 108.75 L 61.25 110.0 L 72.5 112.5 L 87.5 113.75 L 101.25 113.75 L 106.25 111.25 " stroke="black" fill="none" stroke-width="6.0" stroke-linecap="round" stroke-linejoin="round" />
<path d="M 58.75 155.0 L 58.75 156.25 L 56.25 158.75 L 58.75 158.75 L 72.5 156.25 L 88.75 150.0 L 101.25 145.0 L 102.5 145.0 " stroke="black" fill="none" stroke-width="6.0" stroke-linecap="round" stroke-linejoin="round" />
<path d="M 68.75 213.75 L 63.75 221.25 L 66.25 221.25 L 80.0 212.5 L 97.5 191.25 L 115.0 165.0 L 123.75 145.0 L 125.0 130.0 L 123.75 116.25 L 122.5 108.75 L 122.5 108.75 L 122.5 117.5 L 122.5 151.25 L 122.5 193.75 L 123.75 233.75 L 130.0 256.25 L 135.0 257.5 L 135.0 252.5 " stroke="black" fill="none" stroke-width="6.0" stroke-linecap="round" stroke-linejoin="round" />
<path d="M 125.0 103.75 L 123.75 102.5 L 123.75 100.0 L 131.25 96.25 L 143.75 96.25 L 156.25 107.5 L 161.25 128.75 L 155.0 151.25 L 145.0 162.5 L 135.0 165.0 " stroke="black" fill="none" stroke-width="6.0" stroke-linecap="round" stroke-linejoin="round" />
<path d="M 121.25 141.25 L 118.75 140.0 L 116.25 140.0 L 120.0 140.0 L 135.0 136.25 L 147.5 131.25 L 152.5 130.0 L 147.5 136.25 L 135.0 151.25 L 121.25 167.5 L 117.5 173.75 L 125.0 170.0 L 147.5 152.5 L 166.25 137.5 " stroke="black" fill="none" stroke-width="6.0" stroke-linecap="round" stroke-linejoin="round" />
<path d="M 196.25 95.0 L 193.75 95.0 L 192.5 95.0 L 191.25 107.5 L 193.75 135.0 L 202.5 151.25 L 213.75 151.25 L 228.75 140.0 L 237.5 127.5 L 237.5 120.0 L 226.25 117.5 L 210.0 120.0 L 195.0 128.75 L 185.0 136.25 L 183.75 138.75 L 193.75 136.25 L 210.0 125.0 L 225.0 110.0 L 233.75 96.25 L 233.75 92.5 " stroke="black" fill="none" stroke-width="6.0" stroke-linecap="round" stroke-linejoin="round" />
<path d="M 198.75 97.5 L 196.25 97.5 L 195.0 97.5 L 198.75 97.5 L 212.5 93.75 L 230.0 90.0 L 246.25 91.25 L 253.75 116.25 L 255.0 165.0 L 255.0 215.0 L 257.5 246.25 L 260.0 260.0 L 261.25 268.75 L 261.25 268.75 L 258.75 265.0 L 252.5 255.0 L 242.5 240.0 L 231.25 220.0 L 216.25 202.5 " stroke="black" fill="none" stroke-width="6.0" stroke-linecap="round" stroke-linejoin="round" />
<path d="M 173.75 170.0 L 171.25 170.0 L 167.5 170.0 L 166.25 173.75 L 165.0 188.75 L 166.25 208.75 L 170.0 218.75 L 172.5 217.5 L 172.5 208.75 " stroke="black" fill="none" stroke-width="6.0" stroke-linecap="round" stroke-linejoin="round" />
<path d="M 171.25 178.75 L 171.25 177.5 L 170.0 175.0 L 168.75 172.5 L 172.5 172.5 L 183.75 173.75 L 196.25 180.0 L 203.75 191.25 L 203.75 203.75 L 193.75 216.25 L 180.0 221.25 L 166.25 221.25 L 161.25 217.5 " stroke="black" fill="none" stroke-width="6.0" stroke-linecap="round" stroke-linejoin="round" />
<path d="M 168.75 198.75 L 168.75 197.5 L 170.0 195.0 L 175.0 193.75 L 187.5 190.0 L 201.25 186.25 L 203.75 186.25 " stroke="black" fill="none" stroke-width="6.0" stroke-linecap="round" stroke-linejoin="round" />
<path d="M 181.25 207.5 L 176.25 211.25 L 175.0 212.5 L 187.5 210.0 L 196.25 206.25 " stroke="black" fill="none" stroke-width="6.0" stroke-linecap="round" stroke-linejoin="round" />
</svg>