<svg xmlns="http://www.w3.org/2000/svg" width="300" height="300" viewBox="0 0 300 300">
<path d="M 70.0 132.5 L 63.75 133.75 L 62.5 133.75 L 66.25 133.75 L 77.5 133.75 L 87.5 132.5 L 96.25 130.0 L 97.5 128.75 " stroke="black" fill="none" stroke-width="6.0" stroke-linecap="round" stroke-linejoin="round" />
<path d="M 66.25 172.5 L 66.25 173.75 L 65.0 177.5 L 66.25 177.5 L 76.25 172.5 L 86.25 163.75 L 93.75 156.25 L 95.0 152.5 " stroke="black" fill="none" stroke-width="6.0" stroke-linecap="round" stroke-linejoin="round" />
<path d="M 72.5 222.5 L 70.0 226.25 L 67.5 227.5 L 75.0 222.5 L 87.5 210.0 L 97.5 193.75 L 103.75 176.25 " stroke="black" fill="none" stroke-width="6.0" stroke-linecap="round" stroke-linejoin="round" />
<path d="M 110.0 106.25 L 108.75 106.25 L 107.5 106.25 L 113.75 106.25 L 130.0 105.0 L 145.0 100.0 L 156.25 95.0 L 157.5 93.75 L 151.25 96.25 L 142.5 100.0 " stroke="black" fill="none" stroke-width="6.0" stroke-linecap="round" stroke-linejoin="round" />
<path d="M 111.25 136.25 L 111.25 141.25 L 111.25 150.0 L 116.25 161.25 L 121.25 171.25 L 123.75 177.5 L 125.0 178.75 L 122.5 172.5 L 120.0 166.25 L 116.25 160.0 L 112.5 155.0 L 108.75 151.25 L 108.75 148.75 L 118.75 146.25 L 136.25 141.25 L 152.5 136.25 L 161.25 133.75 L 161.25 135.0 L 153.75 143.75 L 145.0 152.5 L 135.0 162.5 L 125.0 171.25 L 122.5 173.75 L 127.5 172.5 L 140.0 163.75 L 152.5 152.5 L 161.25 142.5 L 162.5 135.0 L 162.5 135.0 " stroke="black" fill="none" stroke-width="6.0" stroke-linecap="round" stroke-linejoin="round" />
<path d="M 135.0 87.5 L 132.5 87.5 L 131.25 87.5 L 131.25 91.25 L 135.0 118.75 L 141.25 168.75 L 143.75 207.5 L 145.0 222.5 L 142.5 231.25 L 137.5 232.5 L 133.75 225.0 " stroke="black" fill="none" stroke-width="6.0" stroke-linecap="round" stroke-linejoin="round" />
<path d="M 142.5 166.25 L 138.75 173.75 L 132.5 186.25 L 123.75 203.75 L 112.5 220.0 L 103.75 226.25 L 100.0 223.75 L 100.0 218.75 " stroke="black" fill="none" stroke-width="6.0" stroke-linecap="round" stroke-linejoin="round" />
<path d="M 128.75 182.5 L 131.25 182.5 L 138.75 183.75 L 153.75 193.75 L 170.0 207.5 L 181.25 216.25 L 181.25 217.5 " stroke="black" fill="none" stroke-width="6.0" stroke-linecap="round" stroke-linejoin="round" />
<path d="M 188.75 78.75 L 186.25 78.75 L 182.5 80.0 L 181.25 80.0 L 190.0 81.25 L 202.5 81.25 L 216.25 81.25 L 225.0 81.25 L 226.25 82.5 L 221.25 87.5 L 208.75 97.5 L 198.75 106.25 L 190.0 110.0 L 187.5 110.0 " stroke="black" fill="none" stroke-width="6.0" stroke-linecap="round" stroke-linejoin="round" />
<path d="M 197.5 92.5 L 196.25 92.5 L 193.75 95.0 L 190.0 101.25 L 185.0 120.0 L 178.75 137.5 L 177.5 138.75 " stroke="black" fill="none" stroke-width="6.0" stroke-linecap="round" stroke-linejoin="round" />
<path d="M 188.75 123.75 L 187.5 125.0 L 185.0 130.0 L 185.0 145.0 L 190.0 172.5 L 193.75 195.0 L 195.0 202.5 L 195.0 201.25 L 195.0 196.25 L 195.0 191.25 " stroke="black" fill="none" stroke-width="6.0" stroke-linecap="round" stroke-linejoin="round" />
<path d="M 188.75 151.25 L 187.5 151.25 L 183.75 151.25 L 182.5 151.25 L 186.25 151.25 L 196.25 145.0 L 210.0 138.75 L 223.75 133.75 L 232.5 133.75 L 233.75 147.5 L 228.75 170.0 L 221.25 192.5 L 212.5 203.75 L 206.25 205.0 L 205.0 202.5 " stroke="black" fill="none" stroke-width="6.0" stroke-linecap="round" stroke-linejoin="round" />
<path d="M 205.0 142.5 L 205.0 142.5 L 205.0 148.75 L 205.0 165.0 L 205.0 187.5 L 202.5 201.25 L 200.0 202.5 L 198.75 202.5 L 197.5 201.25 L 198.75 200.0 L 206.25 197.5 L 216.25 192.5 L 226.25 188.75 L 232.5 185.0 L 233.75 185.0 L 227.5 192.5 L 215.0 205.0 L 202.5 218.75 L 192.5 230.0 L 188.75 232.5 L 188.75 232.5 " stroke="black" fill="none" stroke-width="6.0" stroke-linecap="round" stroke-linejoin="round" />
<path d="M 217.5 203.75 L 217.5 203.75 L 217.5 203.75 L 217.5 203.75 L 220.0 203.75 L 222.5 203.75 L 226.25 205.0 L 227.5 205.0 L 228.75 206.25 L 230.0 206.25 L 230.0 206.25 L 230.0 206.25 L 231.25 206.25 L 231.25 206.25 L 231.25 206.25 L 231.25 208.75 L 237.5 216.25 L 247.5 228.75 L 257.5 241.25 L 261.25 247.5 " stroke="black" fill="none" stroke-width="6.0" stroke-linecap="round" stroke-linejoin="round" />
</svg>