<svg xmlns="http://www.w3.org/2000/svg" width="300" height="300" viewBox="0 0 300 300">
<path d="M 102.5 133.75 L 102.5 132.5 L 101.25 132.5 L 101.25 133.75 L 106.25 142.5 L 117.5 160.0 L 130.0 172.5 L 132.5 172.5 " stroke="black" fill="none" stroke-width="6.0" stroke-linecap="round" stroke-linejoin="round" />
<path d="M 210.0 105.0 L 211.25 105.0 L 211.25 107.5 L 203.75 116.25 L 183.75 138.75 L 161.25 160.0 L 147.5 167.5 L 137.5 166.25 " stroke="black" fill="none" stroke-width="6.0" stroke-linecap="round" stroke-linejoin="round" />
<path d="M 143.75 87.5 L 143.75 87.5 L 145.0 85.0 L 147.5 90.0 L 151.25 122.5 L 148.75 173.75 L 136.25 216.25 L 121.25 240.0 L 107.5 250.0 L 96.25 248.75 L 95.0 246.25 " stroke="black" fill="none" stroke-width="6.0" stroke-linecap="round" stroke-linejoin="round" />
<path d="M 156.25 182.5 L 163.75 193.75 L 180.0 210.0 L 197.5 230.0 L 211.25 243.75 L 228.75 252.5 L 241.25 255.0 L 243.75 256.25 " stroke="black" fill="none" stroke-width="6.0" stroke-linecap="round" stroke-linejoin="round" />
</svg>