<svg xmlns="http://www.w3.org/2000/svg" width="300" height="300" viewBox="0 0 300 300">
<path d="M 105.0 87.5 L 103.75 86.25 L 101.25 85.0 L 102.5 86.25 L 110.0 92.5 L 121.25 100.0 L 130.0 105.0 L 131.25 105.0 " stroke="black" fill="none" stroke-width="6.0" stroke-linecap="round" stroke-linejoin="round" />
<path d="M 155.0 55.0 L 155.0 55.0 L 151.25 71.25 L 133.75 128.75 L 113.75 185.0 L 97.5 221.25 L 85.0 248.75 L 77.5 255.0 L 73.75 253.75 " stroke="black" fill="none" stroke-width="6.0" stroke-linecap="round" stroke-linejoin="round" />
<path d="M 131.25 115.0 L 132.5 113.75 L 138.75 112.5 L 150.0 112.5 L 168.75 113.75 L 185.0 117.5 L 191.25 122.5 L 187.5 130.0 L 172.5 140.0 L 156.25 148.75 L 145.0 156.25 L 141.25 157.5 L 146.25 156.25 L 160.0 150.0 L 177.5 142.5 L 192.5 138.75 L 197.5 137.5 L 192.5 145.0 L 180.0 157.5 L 168.75 170.0 L 158.75 180.0 L 155.0 185.0 L 156.25 186.25 L 165.0 183.75 L 178.75 176.25 L 193.75 170.0 L 205.0 166.25 L 211.25 167.5 L 213.75 178.75 L 212.5 197.5 L 202.5 221.25 L 188.75 242.5 L 168.75 255.0 L 147.5 257.5 L 136.25 255.0 " stroke="black" fill="none" stroke-width="6.0" stroke-linecap="round" stroke-linejoin="round" />
<path d="M 103.75 197.5 L 103.75 197.5 L 103.75 197.5 L 103.75 197.5 L 111.25 207.5 L 126.25 226.25 L 138.75 238.75 L 142.5 241.25 " stroke="black" fill="none" stroke-width="6.0" stroke-linecap="round" stroke-linejoin="round" />
<path d="M 140.0 200.0 L 140.0 200.0 L 137.5 201.25 L 138.75 205.0 L 145.0 213.75 L 153.75 222.5 L 160.0 228.75 L 160.0 227.5 L 160.0 218.75 L 160.0 211.25 L 161.25 206.25 L 161.25 203.75 L 163.75 203.75 L 168.75 207.5 L 175.0 216.25 L 178.75 225.0 L 178.75 225.0 " stroke="black" fill="none" stroke-width="6.0" stroke-linecap="round" stroke-linejoin="round" />
<path d="M 195.0 202.5 L 195.0 202.5 L 195.0 202.5 L 198.75 202.5 L 210.0 208.75 L 221.25 221.25 L 226.25 233.75 L 223.75 242.5 " stroke="black" fill="none" stroke-width="6.0" stroke-linecap="round" stroke-linejoin="round" />
</svg>