<svg xmlns="http://www.w3.org/2000/svg" width="300" height="300" viewBox="0 0 300 300">
<path d="M 103.75 71.25 L 97.5 73.75 L 95.0 75.0 L 95.0 75.0 L 103.75 77.5 L 117.5 78.75 L 131.25 78.75 L 137.5 78.75 L 137.5 80.0 L 128.75 88.75 L 116.25 98.75 L 103.75 110.0 L 95.0 121.25 L 92.5 127.5 L 95.0 127.5 L 103.75 123.75 L 116.25 117.5 L 130.0 112.5 L 140.0 111.25 L 141.25 121.25 L 132.5 141.25 L 118.75 162.5 L 106.25 180.0 L 96.25 187.5 L 92.5 190.0 " stroke="black" fill="none" stroke-width="6.0" stroke-linecap="round" stroke-linejoin="round" />
<path d="M 97.5 138.75 L 95.0 138.75 L 93.75 138.75 L 96.25 140.0 L 106.25 145.0 L 117.5 151.25 " stroke="black" fill="none" stroke-width="6.0" stroke-linecap="round" stroke-linejoin="round" />
<path d="M 182.5 101.25 L 181.25 100.0 L 177.5 97.5 L 177.5 97.5 L 177.5 106.25 L 180.0 127.5 L 182.5 147.5 L 183.75 158.75 L 183.75 158.75 " stroke="black" fill="none" stroke-width="6.0" stroke-linecap="round" stroke-linejoin="round" />
<path d="M 212.5 81.25 L 212.5 81.25 L 212.5 81.25 L 213.75 91.25 L 218.75 126.25 L 220.0 158.75 L 220.0 177.5 L 218.75 185.0 L 218.75 186.25 L 218.75 185.0 L 218.75 185.0 L 217.5 182.5 L 211.25 176.25 L 201.25 168.75 " stroke="black" fill="none" stroke-width="6.0" stroke-linecap="round" stroke-linejoin="round" />
<path d="M 100.0 206.25 L 100.0 205.0 L 98.75 205.0 L 100.0 207.5 L 101.25 222.5 L 102.5 240.0 L 101.25 248.75 L 101.25 248.75 " stroke="black" fill="none" stroke-width="6.0" stroke-linecap="round" stroke-linejoin="round" />
<path d="M 142.5 191.25 L 142.5 191.25 L 142.5 195.0 L 146.25 203.75 L 151.25 218.75 L 152.5 235.0 L 152.5 245.0 L 150.0 245.0 " stroke="black" fill="none" stroke-width="6.0" stroke-linecap="round" stroke-linejoin="round" />
<path d="M 175.0 198.75 L 175.0 200.0 L 176.25 202.5 L 182.5 212.5 L 192.5 227.5 L 198.75 241.25 L 198.75 245.0 " stroke="black" fill="none" stroke-width="6.0" stroke-linecap="round" stroke-linejoin="round" />
<path d="M 236.25 200.0 L 236.25 200.0 L 236.25 200.0 L 237.5 198.75 L 242.5 203.75 L 248.75 221.25 L 250.0 226.25 " stroke="black" fill="none" stroke-width="6.0" stroke-linecap="round" stroke-linejoin="round" />
</svg>