<svg xmlns="http://www.w3.org/2000/svg" width="300" height="300" viewBox="0 0 300 300">
<path d="M 71.25 126.25 L 70.0 126.25 L 67.5 127.5 L 67.5 131.25 L 71.25 140.0 L 75.0 150.0 L 80.0 156.25 L 83.75 157.5 L 90.0 152.5 L 96.25 141.25 L 103.75 128.75 L 108.75 118.75 L 113.75 111.25 L 116.25 105.0 L 115.0 105.0 L 107.5 106.25 L 98.75 111.25 " stroke="black" fill="none" stroke-width="6.0" stroke-linecap="round" stroke-linejoin="round" />
<path d="M 87.5 105.0 L 87.5 103.75 L 86.25 102.5 L 86.25 105.0 L 88.75 127.5 L 88.75 167.5 L 85.0 205.0 L 75.0 220.0 L 63.75 221.25 L 60.0 218.75 " stroke="black" fill="none" stroke-width="6.0" stroke-linecap="round" stroke-linejoin="round" />
<path d="M 95.0 152.5 L 97.5 155.0 L 102.5 167.5 L 117.5 195.0 L 130.0 213.75 L 135.0 222.5 L 136.25 228.75 " stroke="black" fill="none" stroke-width="6.0" stroke-linecap="round" stroke-linejoin="round" />
<path d="M 161.25 86.25 L 158.75 90.0 L 157.5 96.25 L 157.5 107.5 L 161.25 115.0 L 170.0 115.0 L 186.25 105.0 L 202.5 92.5 L 212.5 85.0 L 218.75 82.5 L 220.0 92.5 L 220.0 118.75 L 220.0 158.75 L 220.0 197.5 L 220.0 217.5 L 221.25 227.5 L 222.5 232.5 L 222.5 232.5 L 222.5 232.5 L 218.75 230.0 L 212.5 223.75 L 205.0 215.0 L 196.25 207.5 " stroke="black" fill="none" stroke-width="6.0" stroke-linecap="round" stroke-linejoin="round" />
<path d="M 158.75 158.75 L 158.75 158.75 L 157.5 158.75 L 163.75 158.75 L 177.5 163.75 L 191.25 173.75 " stroke="black" fill="none" stroke-width="6.0" stroke-linecap="round" stroke-linejoin="round" />
</svg>