<svg xmlns="http://www.w3.org/2000/svg" width="300" height="300" viewBox="0 0 300 300">
<path d="M 56.25 136.25 L 56.25 137.5 L 55.0 142.5 L 55.0 148.75 L 57.5 156.25 L 60.0 162.5 " stroke="black" fill="none" stroke-width="6.0" stroke-linecap="round" stroke-linejoin="round" />
<path d="M 111.25 98.75 L 111.25 98.75 L 110.0 105.0 L 106.25 116.25 L 97.5 133.75 L 87.5 151.25 L 78.75 157.5 L 70.0 157.5 L 65.0 151.25 " stroke="black" fill="none" stroke-width="6.0" stroke-linecap="round" stroke-linejoin="round" />
<path d="M 70.0 113.75 L 70.0 111.25 L 72.5 106.25 L 76.25 108.75 L 78.75 131.25 L 77.5 167.5 L 68.75 210.0 L 56.25 242.5 L 45.0 253.75 L 38.75 252.5 L 37.5 248.75 " stroke="black" fill="none" stroke-width="6.0" stroke-linecap="round" stroke-linejoin="round" />
<path d="M 83.75 181.25 L 88.75 193.75 L 102.5 210.0 L 120.0 225.0 L 135.0 240.0 L 147.5 247.5 L 148.75 248.75 " stroke="black" fill="none" stroke-width="6.0" stroke-linecap="round" stroke-linejoin="round" />
<path d="M 125.0 86.25 L 122.5 90.0 L 125.0 100.0 L 133.75 118.75 L 141.25 131.25 L 145.0 135.0 L 145.0 133.75 " stroke="black" fill="none" stroke-width="6.0" stroke-linecap="round" stroke-linejoin="round" />
<path d="M 126.25 91.25 L 126.25 90.0 L 127.5 88.75 L 142.5 85.0 L 170.0 80.0 L 200.0 77.5 L 212.5 77.5 L 213.75 82.5 L 206.25 91.25 L 193.75 102.5 L 180.0 111.25 L 166.25 117.5 L 160.0 118.75 " stroke="black" fill="none" stroke-width="6.0" stroke-linecap="round" stroke-linejoin="round" />
<path d="M 152.5 88.75 L 152.5 88.75 L 152.5 88.75 L 152.5 91.25 L 152.5 100.0 L 152.5 111.25 L 152.5 115.0 " stroke="black" fill="none" stroke-width="6.0" stroke-linecap="round" stroke-linejoin="round" />
<path d="M 175.0 81.25 L 173.75 83.75 L 168.75 92.5 L 162.5 105.0 L 153.75 120.0 L 147.5 130.0 L 143.75 132.5 L 143.75 131.25 L 151.25 127.5 L 162.5 118.75 L 175.0 111.25 L 186.25 103.75 " stroke="black" fill="none" stroke-width="6.0" stroke-linecap="round" stroke-linejoin="round" />
<path d="M 133.75 130.0 L 133.75 130.0 L 133.75 128.75 L 133.75 128.75 L 135.0 130.0 L 137.5 138.75 L 140.0 148.75 L 146.25 156.25 L 158.75 155.0 L 181.25 145.0 L 202.5 135.0 L 216.25 130.0 L 222.5 128.75 L 225.0 130.0 L 225.0 137.5 L 225.0 155.0 L 226.25 183.75 L 227.5 213.75 L 228.75 235.0 L 230.0 245.0 L 230.0 246.25 L 228.75 246.25 L 223.75 246.25 L 215.0 243.75 L 212.5 242.5 " stroke="black" fill="none" stroke-width="6.0" stroke-linecap="round" stroke-linejoin="round" />
<path d="M 141.25 182.5 L 140.0 182.5 L 138.75 183.75 L 138.75 188.75 L 142.5 196.25 L 147.5 203.75 L 150.0 206.25 L 150.0 206.25 L 150.0 201.25 L 147.5 195.0 L 143.75 190.0 L 141.25 185.0 L 142.5 180.0 L 152.5 172.5 L 170.0 167.5 L 187.5 165.0 L 195.0 166.25 L 191.25 173.75 L 180.0 185.0 L 167.5 195.0 L 155.0 202.5 L 148.75 206.25 L 148.75 205.0 L 158.75 200.0 L 172.5 190.0 L 185.0 180.0 L 191.25 170.0 L 190.0 165.0 L 187.5 163.75 " stroke="black" fill="none" stroke-width="6.0" stroke-linecap="round" stroke-linejoin="round" />
<path d="M 166.25 156.25 L 165.0 155.0 L 163.75 155.0 L 163.75 156.25 L 163.75 172.5 L 166.25 197.5 L 167.5 217.5 L 167.5 227.5 L 166.25 230.0 L 166.25 228.75 L 171.25 226.25 L 180.0 220.0 L 188.75 212.5 L 197.5 203.75 L 202.5 196.25 L 203.75 192.5 L 203.75 190.0 L 201.25 190.0 L 200.0 190.0 L 200.0 190.0 L 200.0 190.0 L 200.0 190.0 L 200.0 190.0 L 200.0 190.0 L 200.0 190.0 L 200.0 191.25 L 200.0 192.5 L 205.0 200.0 L 211.25 215.0 L 216.25 227.5 " stroke="black" fill="none" stroke-width="6.0" stroke-linecap="round" stroke-linejoin="round" />
</svg>