<svg xmlns="http://www.w3.org/2000/svg" width="300" height="300" viewBox="0 0 300 300">
<path d="M 68.75 131.25 L 68.75 130.0 L 65.0 126.25 L 62.5 125.0 L 62.5 123.75 L 62.5 125.0 L 68.75 132.5 L 76.25 141.25 L 80.0 147.5 " stroke="black" fill="none" stroke-width="6.0" stroke-linecap="round" stroke-linejoin="round" />
<path d="M 103.75 95.0 L 106.25 95.0 L 106.25 98.75 L 101.25 116.25 L 92.5 140.0 L 83.75 153.75 L 75.0 156.25 L 70.0 150.0 " stroke="black" fill="none" stroke-width="6.0" stroke-linecap="round" stroke-linejoin="round" />
<path d="M 86.25 95.0 L 86.25 95.0 L 87.5 95.0 L 88.75 117.5 L 86.25 160.0 L 78.75 201.25 L 68.75 228.75 L 58.75 245.0 L 47.5 247.5 L 46.25 246.25 " stroke="black" fill="none" stroke-width="6.0" stroke-linecap="round" stroke-linejoin="round" />
<path d="M 90.0 168.75 L 91.25 168.75 L 97.5 176.25 L 112.5 191.25 L 128.75 208.75 L 138.75 218.75 L 152.5 227.5 L 153.75 230.0 L 153.75 230.0 " stroke="black" fill="none" stroke-width="6.0" stroke-linecap="round" stroke-linejoin="round" />
<path d="M 148.75 86.25 L 146.25 87.5 L 142.5 88.75 L 142.5 88.75 L 150.0 88.75 L 162.5 87.5 L 173.75 86.25 L 181.25 90.0 L 183.75 102.5 L 180.0 145.0 L 177.5 168.75 L 177.5 178.75 L 177.5 178.75 L 176.25 177.5 L 175.0 171.25 L 171.25 161.25 L 166.25 150.0 L 158.75 140.0 L 152.5 135.0 " stroke="black" fill="none" stroke-width="6.0" stroke-linecap="round" stroke-linejoin="round" />
<path d="M 140.0 132.5 L 137.5 132.5 L 133.75 132.5 L 132.5 132.5 L 135.0 132.5 L 145.0 126.25 L 156.25 117.5 L 166.25 110.0 L 167.5 107.5 " stroke="black" fill="none" stroke-width="6.0" stroke-linecap="round" stroke-linejoin="round" />
<path d="M 142.5 150.0 L 141.25 150.0 L 137.5 152.5 L 140.0 151.25 L 152.5 138.75 L 171.25 118.75 L 188.75 96.25 L 197.5 81.25 L 200.0 72.5 L 198.75 72.5 L 197.5 72.5 L 197.5 72.5 L 200.0 72.5 L 208.75 72.5 L 220.0 71.25 L 228.75 72.5 L 231.25 86.25 L 228.75 111.25 L 223.75 138.75 L 221.25 152.5 L 220.0 153.75 L 220.0 152.5 L 220.0 147.5 L 216.25 141.25 L 211.25 135.0 L 205.0 127.5 L 198.75 117.5 L 193.75 108.75 L 188.75 102.5 L 188.75 102.5 L 188.75 102.5 L 193.75 103.75 L 201.25 102.5 L 208.75 100.0 L 212.5 98.75 L 212.5 98.75 " stroke="black" fill="none" stroke-width="6.0" stroke-linecap="round" stroke-linejoin="round" />
<path d="M 186.25 132.5 L 183.75 136.25 L 178.75 140.0 L 181.25 140.0 L 195.0 135.0 L 212.5 125.0 L 218.75 117.5 " stroke="black" fill="none" stroke-width="6.0" stroke-linecap="round" stroke-linejoin="round" />
<path d="M 147.5 195.0 L 147.5 195.0 L 145.0 195.0 L 145.0 195.0 L 156.25 190.0 L 178.75 177.5 L 198.75 163.75 L 205.0 158.75 L 201.25 160.0 L 192.5 166.25 L 185.0 175.0 L 176.25 185.0 L 168.75 200.0 L 166.25 226.25 L 166.25 257.5 L 168.75 272.5 L 172.5 275.0 L 173.75 271.25 L 173.75 262.5 " stroke="black" fill="none" stroke-width="6.0" stroke-linecap="round" stroke-linejoin="round" />
<path d="M 170.0 216.25 L 170.0 213.75 L 171.25 212.5 L 172.5 210.0 L 180.0 205.0 L 191.25 201.25 L 203.75 198.75 L 212.5 205.0 L 215.0 226.25 L 213.75 248.75 L 210.0 265.0 L 207.5 271.25 L 203.75 271.25 " stroke="black" fill="none" stroke-width="6.0" stroke-linecap="round" stroke-linejoin="round" />
<path d="M 176.25 245.0 L 173.75 246.25 L 168.75 247.5 L 166.25 248.75 L 171.25 247.5 L 186.25 242.5 L 200.0 233.75 L 211.25 225.0 " stroke="black" fill="none" stroke-width="6.0" stroke-linecap="round" stroke-linejoin="round" />
<path d="M 186.25 273.75 L 180.0 280.0 L 180.0 281.25 L 191.25 280.0 L 206.25 271.25 L 215.0 266.25 " stroke="black" fill="none" stroke-width="6.0" stroke-linecap="round" stroke-linejoin="round" />
</svg>