<svg xmlns="http://www.w3.org/2000/svg" width="300" height="300" viewBox="0 0 300 300">
<path d="M 71.25 112.5 L 71.25 112.5 L 71.25 113.75 L 71.25 115.0 L 73.75 123.75 L 80.0 138.75 L 83.75 147.5 L 83.75 148.75 " stroke="black" fill="none" stroke-width="6.0" stroke-linecap="round" stroke-linejoin="round" />
<path d="M 116.25 96.25 L 115.0 100.0 L 112.5 108.75 L 107.5 123.75 L 101.25 138.75 L 95.0 148.75 L 91.25 148.75 " stroke="black" fill="none" stroke-width="6.0" stroke-linecap="round" stroke-linejoin="round" />
<path d="M 91.25 85.0 L 92.5 85.0 L 93.75 92.5 L 95.0 117.5 L 93.75 160.0 L 88.75 202.5 L 78.75 225.0 L 67.5 237.5 L 57.5 241.25 L 51.25 235.0 L 50.0 228.75 " stroke="black" fill="none" stroke-width="6.0" stroke-linecap="round" stroke-linejoin="round" />
<path d="M 92.5 181.25 L 93.75 183.75 L 100.0 197.5 L 112.5 210.0 L 126.25 220.0 L 136.25 225.0 L 142.5 227.5 L 142.5 227.5 " stroke="black" fill="none" stroke-width="6.0" stroke-linecap="round" stroke-linejoin="round" />
<path d="M 160.0 82.5 L 160.0 82.5 L 156.25 85.0 L 156.25 86.25 L 163.75 86.25 L 181.25 86.25 L 198.75 81.25 L 207.5 78.75 L 208.75 77.5 L 200.0 82.5 L 187.5 90.0 L 173.75 97.5 L 165.0 101.25 L 161.25 103.75 L 160.0 103.75 L 161.25 103.75 L 162.5 105.0 L 162.5 107.5 L 162.5 116.25 L 162.5 132.5 L 162.5 157.5 L 165.0 183.75 L 167.5 196.25 L 170.0 200.0 L 170.0 198.75 L 168.75 193.75 " stroke="black" fill="none" stroke-width="6.0" stroke-linecap="round" stroke-linejoin="round" />
<path d="M 158.75 127.5 L 157.5 123.75 L 158.75 120.0 L 167.5 113.75 L 185.0 107.5 L 203.75 102.5 L 213.75 103.75 L 217.5 118.75 L 218.75 146.25 L 216.25 176.25 L 212.5 195.0 L 210.0 202.5 L 208.75 202.5 L 206.25 197.5 L 203.75 191.25 " stroke="black" fill="none" stroke-width="6.0" stroke-linecap="round" stroke-linejoin="round" />
<path d="M 171.25 153.75 L 171.25 153.75 L 168.75 155.0 L 170.0 155.0 L 181.25 150.0 L 197.5 140.0 L 211.25 128.75 L 215.0 122.5 L 213.75 122.5 " stroke="black" fill="none" stroke-width="6.0" stroke-linecap="round" stroke-linejoin="round" />
<path d="M 178.75 161.25 L 176.25 166.25 L 176.25 167.5 L 183.75 166.25 L 196.25 157.5 L 207.5 148.75 L 212.5 142.5 L 212.5 142.5 " stroke="black" fill="none" stroke-width="6.0" stroke-linecap="round" stroke-linejoin="round" />
<path d="M 171.25 202.5 L 170.0 205.0 L 168.75 210.0 L 177.5 208.75 L 193.75 200.0 L 210.0 188.75 L 217.5 183.75 L 215.0 187.5 L 203.75 202.5 L 191.25 221.25 L 175.0 238.75 L 163.75 247.5 L 161.25 247.5 " stroke="black" fill="none" stroke-width="6.0" stroke-linecap="round" stroke-linejoin="round" />
<path d="M 202.5 211.25 L 205.0 213.75 L 208.75 218.75 L 217.5 231.25 L 230.0 246.25 L 241.25 253.75 L 246.25 257.5 L 247.5 260.0 L 246.25 260.0 L 245.0 260.0 " stroke="black" fill="none" stroke-width="6.0" stroke-linecap="round" stroke-linejoin="round" />
</svg>