<svg xmlns="http://www.w3.org/2000/svg" width="300" height="300" viewBox="0 0 300 300">
<path d="M 103.75 92.5 L 101.25 93.75 L 96.25 96.25 L 98.75 96.25 L 112.5 96.25 L 135.0 90.0 L 157.5 78.75 L 173.75 70.0 L 177.5 66.25 L 170.0 66.25 L 158.75 71.25 L 150.0 76.25 L 145.0 80.0 L 141.25 83.75 L 141.25 86.25 L 141.25 87.5 L 142.5 92.5 L 142.5 103.75 L 142.5 122.5 L 142.5 136.25 L 143.75 142.5 L 143.75 141.25 " stroke="black" fill="none" stroke-width="6.0" stroke-linecap="round" stroke-linejoin="round" />
<path d="M 145.0 116.25 L 143.75 116.25 L 141.25 116.25 L 141.25 116.25 L 150.0 111.25 L 165.0 102.5 L 178.75 93.75 L 182.5 90.0 L 173.75 90.0 " stroke="black" fill="none" stroke-width="6.0" stroke-linecap="round" stroke-linejoin="round" />
<path d="M 111.25 112.5 L 111.25 112.5 L 108.75 113.75 L 106.25 117.5 L 103.75 130.0 L 100.0 146.25 L 98.75 157.5 L 98.75 161.25 L 105.0 161.25 L 120.0 158.75 L 140.0 152.5 L 160.0 143.75 L 176.25 133.75 L 185.0 126.25 L 182.5 122.5 " stroke="black" fill="none" stroke-width="6.0" stroke-linecap="round" stroke-linejoin="round" />
<path d="M 128.75 190.0 L 122.5 193.75 L 122.5 195.0 L 136.25 191.25 L 152.5 180.0 L 171.25 166.25 L 182.5 156.25 L 178.75 153.75 L 165.0 157.5 L 153.75 161.25 " stroke="black" fill="none" stroke-width="6.0" stroke-linecap="round" stroke-linejoin="round" />
<path d="M 133.75 160.0 L 131.25 160.0 L 128.75 162.5 L 128.75 171.25 L 127.5 187.5 L 126.25 201.25 L 126.25 206.25 L 131.25 207.5 L 142.5 205.0 L 157.5 201.25 L 175.0 195.0 L 193.75 192.5 L 206.25 192.5 L 210.0 200.0 L 210.0 215.0 L 203.75 233.75 L 196.25 248.75 L 187.5 257.5 L 180.0 258.75 L 168.75 258.75 L 166.25 257.5 " stroke="black" fill="none" stroke-width="6.0" stroke-linecap="round" stroke-linejoin="round" />
<path d="M 86.25 231.25 L 85.0 231.25 L 82.5 232.5 L 81.25 233.75 L 85.0 240.0 L 92.5 252.5 L 100.0 263.75 L 102.5 267.5 L 102.5 267.5 " stroke="black" fill="none" stroke-width="6.0" stroke-linecap="round" stroke-linejoin="round" />
<path d="M 121.25 215.0 L 122.5 216.25 L 122.5 218.75 L 126.25 227.5 L 132.5 240.0 L 137.5 250.0 L 138.75 252.5 L 138.75 252.5 " stroke="black" fill="none" stroke-width="6.0" stroke-linecap="round" stroke-linejoin="round" />
<path d="M 150.0 215.0 L 150.0 215.0 L 150.0 217.5 L 152.5 225.0 L 157.5 235.0 L 161.25 245.0 L 162.5 248.75 " stroke="black" fill="none" stroke-width="6.0" stroke-linecap="round" stroke-linejoin="round" />
<path d="M 181.25 210.0 L 181.25 208.75 L 181.25 208.75 L 186.25 212.5 L 193.75 223.75 L 202.5 238.75 " stroke="black" fill="none" stroke-width="6.0" stroke-linecap="round" stroke-linejoin="round" />
</svg>