<svg xmlns="http://www.w3.org/2000/svg" width="300" height="300" viewBox="0 0 300 300">
<path d="M 77.5 115.0 L 76.25 115.0 L 76.25 116.25 L 76.25 118.75 L 81.25 128.75 L 87.5 140.0 L 90.0 147.5 L 90.0 148.75 " stroke="black" fill="none" stroke-width="6.0" stroke-linecap="round" stroke-linejoin="round" />
<path d="M 120.0 100.0 L 121.25 103.75 L 121.25 112.5 L 120.0 125.0 L 112.5 140.0 L 102.5 148.75 L 93.75 148.75 " stroke="black" fill="none" stroke-width="6.0" stroke-linecap="round" stroke-linejoin="round" />
<path d="M 93.75 93.75 L 95.0 93.75 L 96.25 95.0 L 100.0 115.0 L 101.25 158.75 L 96.25 201.25 L 86.25 231.25 L 73.75 245.0 L 65.0 245.0 L 62.5 240.0 " stroke="black" fill="none" stroke-width="6.0" stroke-linecap="round" stroke-linejoin="round" />
<path d="M 117.5 197.5 L 121.25 201.25 L 133.75 218.75 L 140.0 230.0 L 141.25 235.0 L 141.25 236.25 " stroke="black" fill="none" stroke-width="6.0" stroke-linecap="round" stroke-linejoin="round" />
<path d="M 153.75 83.75 L 152.5 81.25 L 151.25 80.0 L 156.25 78.75 L 172.5 77.5 L 196.25 77.5 L 212.5 81.25 L 217.5 83.75 L 211.25 91.25 L 196.25 100.0 L 178.75 108.75 L 157.5 116.25 L 143.75 123.75 L 141.25 125.0 L 147.5 123.75 L 163.75 117.5 L 185.0 108.75 L 206.25 100.0 L 218.75 90.0 L 217.5 85.0 " stroke="black" fill="none" stroke-width="6.0" stroke-linecap="round" stroke-linejoin="round" />
<path d="M 175.0 65.0 L 175.0 65.0 L 175.0 67.5 L 175.0 77.5 L 178.75 100.0 L 180.0 126.25 L 180.0 131.25 " stroke="black" fill="none" stroke-width="6.0" stroke-linecap="round" stroke-linejoin="round" />
<path d="M 168.75 128.75 L 168.75 131.25 L 170.0 137.5 L 172.5 145.0 L 175.0 153.75 L 176.25 161.25 L 175.0 161.25 L 172.5 161.25 " stroke="black" fill="none" stroke-width="6.0" stroke-linecap="round" stroke-linejoin="round" />
<path d="M 167.5 143.75 L 167.5 142.5 L 167.5 141.25 L 171.25 140.0 L 182.5 137.5 L 196.25 136.25 L 205.0 135.0 L 207.5 136.25 L 202.5 142.5 L 192.5 148.75 L 182.5 155.0 L 173.75 161.25 L 171.25 162.5 L 172.5 162.5 L 182.5 157.5 L 192.5 152.5 L 201.25 147.5 L 202.5 146.25 " stroke="black" fill="none" stroke-width="6.0" stroke-linecap="round" stroke-linejoin="round" />
<path d="M 166.25 171.25 L 166.25 172.5 L 165.0 175.0 L 168.75 175.0 L 182.5 175.0 L 196.25 172.5 L 206.25 170.0 L 207.5 170.0 L 202.5 175.0 L 192.5 183.75 L 178.75 191.25 L 163.75 200.0 L 150.0 208.75 L 145.0 215.0 L 146.25 215.0 L 157.5 216.25 L 177.5 212.5 L 200.0 207.5 L 223.75 201.25 L 243.75 197.5 L 250.0 195.0 L 248.75 192.5 L 240.0 191.25 L 231.25 190.0 L 222.5 187.5 L 215.0 182.5 L 211.25 175.0 L 208.75 166.25 L 208.75 161.25 L 208.75 160.0 L 211.25 165.0 L 213.75 185.0 L 216.25 211.25 L 217.5 240.0 L 215.0 256.25 L 212.5 260.0 L 207.5 260.0 L 201.25 260.0 L 197.5 260.0 " stroke="black" fill="none" stroke-width="6.0" stroke-linecap="round" stroke-linejoin="round" />
</svg>