<svg xmlns="http://www.w3.org/2000/svg" width="300" height="300" viewBox="0 0 300 300">
<path d="M 86.25 83.75 L 86.25 83.75 L 85.0 81.25 L 83.75 81.25 L 88.75 82.5 L 96.25 87.5 L 103.75 93.75 L 106.25 97.5 " stroke="black" fill="none" stroke-width="6.0" stroke-linecap="round" stroke-linejoin="round" />
<path d="M 126.25 63.75 L 126.25 63.75 L 126.25 63.75 L 125.0 68.75 L 118.75 81.25 L 110.0 93.75 L 100.0 98.75 L 97.5 98.75 " stroke="black" fill="none" stroke-width="6.0" stroke-linecap="round" stroke-linejoin="round" />
<path d="M 102.5 58.75 L 102.5 58.75 L 103.75 58.75 L 105.0 67.5 L 98.75 93.75 L 87.5 123.75 L 75.0 141.25 L 61.25 143.75 " stroke="black" fill="none" stroke-width="6.0" stroke-linecap="round" stroke-linejoin="round" />
<path d="M 95.0 92.5 L 100.0 93.75 L 110.0 102.5 L 126.25 118.75 L 140.0 132.5 L 146.25 141.25 L 146.25 141.25 " stroke="black" fill="none" stroke-width="6.0" stroke-linecap="round" stroke-linejoin="round" />
<path d="M 160.0 60.0 L 158.75 60.0 L 157.5 61.25 L 157.5 71.25 L 158.75 88.75 L 161.25 98.75 L 163.75 98.75 " stroke="black" fill="none" stroke-width="6.0" stroke-linecap="round" stroke-linejoin="round" />
<path d="M 197.5 51.25 L 197.5 51.25 L 197.5 52.5 L 193.75 63.75 L 180.0 83.75 L 166.25 103.75 L 156.25 95.0 " stroke="black" fill="none" stroke-width="6.0" stroke-linecap="round" stroke-linejoin="round" />
<path d="M 171.25 50.0 L 171.25 50.0 L 171.25 52.5 L 170.0 67.5 L 163.75 95.0 L 155.0 118.75 L 147.5 126.25 L 147.5 126.25 " stroke="black" fill="none" stroke-width="6.0" stroke-linecap="round" stroke-linejoin="round" />
<path d="M 165.0 87.5 L 168.75 87.5 L 180.0 95.0 L 196.25 107.5 L 211.25 121.25 L 220.0 128.75 L 220.0 130.0 " stroke="black" fill="none" stroke-width="6.0" stroke-linecap="round" stroke-linejoin="round" />
<path d="M 90.0 142.5 L 88.75 142.5 L 88.75 141.25 L 86.25 148.75 L 81.25 172.5 L 76.25 193.75 L 75.0 200.0 L 75.0 195.0 " stroke="black" fill="none" stroke-width="6.0" stroke-linecap="round" stroke-linejoin="round" />
<path d="M 88.75 158.75 L 92.5 156.25 L 108.75 152.5 L 143.75 146.25 L 181.25 143.75 L 208.75 143.75 L 216.25 146.25 L 216.25 150.0 L 203.75 157.5 L 186.25 166.25 L 161.25 173.75 " stroke="black" fill="none" stroke-width="6.0" stroke-linecap="round" stroke-linejoin="round" />
<path d="M 115.0 173.75 L 115.0 173.75 L 115.0 173.75 L 113.75 173.75 L 113.75 183.75 L 116.25 198.75 L 120.0 210.0 L 121.25 212.5 L 121.25 210.0 " stroke="black" fill="none" stroke-width="6.0" stroke-linecap="round" stroke-linejoin="round" />
<path d="M 118.75 177.5 L 118.75 175.0 L 120.0 172.5 L 128.75 171.25 L 142.5 171.25 L 158.75 171.25 L 168.75 173.75 L 171.25 177.5 L 161.25 185.0 L 146.25 195.0 L 130.0 203.75 L 116.25 211.25 L 112.5 212.5 L 122.5 211.25 L 141.25 206.25 L 158.75 201.25 L 173.75 197.5 L 176.25 198.75 L 167.5 207.5 L 152.5 220.0 L 137.5 231.25 L 118.75 240.0 L 103.75 245.0 L 98.75 245.0 L 98.75 245.0 L 101.25 245.0 L 105.0 245.0 L 112.5 247.5 L 121.25 251.25 L 131.25 258.75 L 141.25 267.5 L 147.5 272.5 L 148.75 273.75 L 148.75 273.75 L 147.5 273.75 L 147.5 273.75 L 142.5 271.25 L 135.0 266.25 L 125.0 262.5 L 113.75 257.5 L 106.25 255.0 L 103.75 252.5 L 103.75 251.25 L 106.25 248.75 L 116.25 245.0 L 131.25 238.75 L 152.5 231.25 L 178.75 223.75 L 198.75 221.25 L 205.0 222.5 L 205.0 230.0 L 196.25 240.0 L 182.5 251.25 L 163.75 262.5 L 148.75 271.25 L 146.25 272.5 L 152.5 271.25 L 171.25 262.5 L 195.0 251.25 L 216.25 238.75 L 220.0 235.0 " stroke="black" fill="none" stroke-width="6.0" stroke-linecap="round" stroke-linejoin="round" />
</svg>