<svg xmlns="http://www.w3.org/2000/svg" width="300" height="300" viewBox="0 0 300 300">
<path d="M 90.0 108.75 L 88.75 108.75 L 86.25 110.0 L 85.0 115.0 L 83.75 127.5 L 83.75 138.75 L 85.0 142.5 L 95.0 138.75 L 111.25 125.0 L 130.0 107.5 L 141.25 95.0 L 143.75 90.0 L 140.0 90.0 L 133.75 90.0 L 128.75 91.25 L 123.75 91.25 L 122.5 91.25 L 122.5 91.25 L 122.5 91.25 L 122.5 92.5 L 122.5 96.25 L 123.75 113.75 L 126.25 157.5 L 130.0 206.25 L 132.5 228.75 L 132.5 235.0 L 132.5 236.25 L 128.75 233.75 L 121.25 227.5 L 111.25 220.0 " stroke="black" fill="none" stroke-width="6.0" stroke-linecap="round" stroke-linejoin="round" />
<path d="M 82.5 193.75 L 77.5 196.25 L 73.75 198.75 L 76.25 198.75 L 85.0 193.75 L 96.25 186.25 L 108.75 177.5 L 117.5 170.0 L 118.75 170.0 L 110.0 186.25 L 97.5 207.5 L 88.75 223.75 L 85.0 230.0 L 86.25 227.5 " stroke="black" fill="none" stroke-width="6.0" stroke-linecap="round" stroke-linejoin="round" />
<path d="M 156.25 152.5 L 151.25 157.5 L 147.5 160.0 L 153.75 158.75 L 171.25 147.5 L 192.5 132.5 L 208.75 117.5 L 211.25 110.0 L 205.0 110.0 " stroke="black" fill="none" stroke-width="6.0" stroke-linecap="round" stroke-linejoin="round" />
<path d="M 168.75 113.75 L 168.75 113.75 L 167.5 113.75 L 167.5 118.75 L 172.5 157.5 L 172.5 205.0 L 166.25 227.5 L 157.5 232.5 L 152.5 230.0 " stroke="black" fill="none" stroke-width="6.0" stroke-linecap="round" stroke-linejoin="round" />
<path d="M 176.25 161.25 L 178.75 161.25 L 186.25 166.25 L 200.0 188.75 L 215.0 216.25 L 231.25 232.5 L 245.0 238.75 L 248.75 238.75 L 248.75 238.75 L 245.0 236.25 L 235.0 230.0 L 232.5 227.5 " stroke="black" fill="none" stroke-width="6.0" stroke-linecap="round" stroke-linejoin="round" />
<path d="M 213.75 95.0 L 213.75 95.0 L 213.75 92.5 L 215.0 92.5 L 220.0 100.0 L 228.75 112.5 L 237.5 127.5 L 238.75 130.0 " stroke="black" fill="none" stroke-width="6.0" stroke-linecap="round" stroke-linejoin="round" />
</svg>