<svg xmlns="http://www.w3.org/2000/svg" width="300" height="300" viewBox="0 0 300 300">
<path d="M 93.75 101.25 L 90.0 100.0 L 86.25 97.5 L 87.5 96.25 L 93.75 101.25 L 102.5 110.0 L 113.75 117.5 L 132.5 118.75 L 156.25 105.0 L 176.25 91.25 L 186.25 85.0 L 186.25 85.0 L 178.75 88.75 L 175.0 91.25 " stroke="black" fill="none" stroke-width="6.0" stroke-linecap="round" stroke-linejoin="round" />
<path d="M 85.0 195.0 L 82.5 197.5 L 85.0 197.5 L 103.75 188.75 L 140.0 171.25 L 177.5 152.5 L 201.25 141.25 L 208.75 136.25 L 207.5 133.75 " stroke="black" fill="none" stroke-width="6.0" stroke-linecap="round" stroke-linejoin="round" />
<path d="M 145.0 75.0 L 143.75 72.5 L 142.5 68.75 L 143.75 67.5 L 151.25 80.0 L 158.75 121.25 L 162.5 181.25 L 162.5 216.25 L 162.5 235.0 L 160.0 246.25 L 157.5 251.25 L 153.75 252.5 " stroke="black" fill="none" stroke-width="6.0" stroke-linecap="round" stroke-linejoin="round" />
</svg>