<svg xmlns="http://www.w3.org/2000/svg" width="300" height="300" viewBox="0 0 300 300">
<path d="M 137.5 63.75 L 137.5 63.75 L 136.25 63.75 L 138.75 65.0 L 150.0 66.25 L 166.25 68.75 L 173.75 68.75 " stroke="black" fill="none" stroke-width="6.0" stroke-linecap="round" stroke-linejoin="round" />
<path d="M 105.0 92.5 L 100.0 93.75 L 93.75 95.0 L 92.5 95.0 L 93.75 95.0 L 103.75 95.0 L 123.75 92.5 L 150.0 87.5 L 180.0 80.0 L 203.75 70.0 L 212.5 63.75 L 212.5 61.25 L 207.5 62.5 L 205.0 63.75 " stroke="black" fill="none" stroke-width="6.0" stroke-linecap="round" stroke-linejoin="round" />
<path d="M 145.0 105.0 L 145.0 103.75 L 145.0 102.5 L 143.75 102.5 L 143.75 103.75 L 141.25 113.75 L 137.5 122.5 L 136.25 128.75 L 136.25 130.0 L 143.75 127.5 L 155.0 120.0 L 166.25 111.25 L 173.75 105.0 L 176.25 103.75 L 171.25 110.0 L 160.0 125.0 L 150.0 141.25 L 138.75 156.25 L 132.5 167.5 L 131.25 170.0 L 135.0 170.0 L 142.5 167.5 L 151.25 163.75 L 158.75 158.75 L 163.75 153.75 L 167.5 150.0 L 167.5 148.75 L 167.5 148.75 L 165.0 148.75 L 163.75 148.75 L 162.5 148.75 L 162.5 148.75 L 162.5 148.75 L 162.5 148.75 L 165.0 148.75 L 173.75 150.0 L 185.0 153.75 L 193.75 157.5 L 196.25 161.25 L 195.0 162.5 " stroke="black" fill="none" stroke-width="6.0" stroke-linecap="round" stroke-linejoin="round" />
<path d="M 93.75 151.25 L 92.5 151.25 L 91.25 151.25 L 91.25 151.25 L 91.25 155.0 L 93.75 167.5 L 96.25 180.0 L 97.5 186.25 L 97.5 186.25 " stroke="black" fill="none" stroke-width="6.0" stroke-linecap="round" stroke-linejoin="round" />
<path d="M 96.25 157.5 L 96.25 157.5 L 95.0 157.5 L 95.0 156.25 L 100.0 155.0 L 118.75 150.0 L 150.0 142.5 L 182.5 135.0 L 206.25 131.25 L 217.5 130.0 L 221.25 130.0 L 220.0 132.5 L 210.0 141.25 L 198.75 151.25 " stroke="black" fill="none" stroke-width="6.0" stroke-linecap="round" stroke-linejoin="round" />
<path d="M 116.25 202.5 L 115.0 202.5 L 113.75 201.25 L 113.75 200.0 L 116.25 202.5 L 120.0 207.5 L 123.75 212.5 L 127.5 216.25 L 135.0 216.25 L 150.0 206.25 L 168.75 192.5 L 186.25 182.5 L 192.5 180.0 L 186.25 185.0 L 183.75 187.5 " stroke="black" fill="none" stroke-width="6.0" stroke-linecap="round" stroke-linejoin="round" />
<path d="M 103.75 257.5 L 103.75 258.75 L 101.25 261.25 L 106.25 261.25 L 125.0 255.0 L 152.5 242.5 L 181.25 227.5 L 200.0 215.0 L 203.75 210.0 L 201.25 207.5 L 195.0 206.25 " stroke="black" fill="none" stroke-width="6.0" stroke-linecap="round" stroke-linejoin="round" />
<path d="M 160.0 172.5 L 160.0 170.0 L 161.25 167.5 L 163.75 168.75 L 168.75 188.75 L 172.5 225.0 L 172.5 261.25 L 172.5 280.0 L 168.75 290.0 L 162.5 292.5 " stroke="black" fill="none" stroke-width="6.0" stroke-linecap="round" stroke-linejoin="round" />
</svg>