<svg xmlns="http://www.w3.org/2000/svg" width="300" height="300" viewBox="0 0 300 300">
<path d="M 80.0 105.0 L 77.5 105.0 L 75.0 105.0 L 73.75 105.0 L 73.75 111.25 L 73.75 125.0 L 77.5 136.25 L 83.75 138.75 L 96.25 135.0 L 112.5 121.25 L 127.5 106.25 L 136.25 97.5 L 135.0 93.75 L 127.5 93.75 L 120.0 93.75 L 115.0 93.75 L 111.25 93.75 L 110.0 92.5 L 110.0 91.25 L 110.0 95.0 L 112.5 120.0 L 116.25 167.5 L 118.75 207.5 L 118.75 221.25 L 120.0 222.5 L 120.0 222.5 L 120.0 221.25 L 117.5 216.25 L 111.25 212.5 L 101.25 208.75 L 88.75 205.0 L 75.0 202.5 L 65.0 200.0 L 63.75 198.75 L 68.75 197.5 L 85.0 191.25 L 103.75 177.5 L 126.25 158.75 L 136.25 147.5 " stroke="black" fill="none" stroke-width="6.0" stroke-linecap="round" stroke-linejoin="round" />
<path d="M 171.25 70.0 L 171.25 70.0 L 171.25 70.0 L 171.25 73.75 L 170.0 88.75 L 167.5 103.75 L 167.5 111.25 L 177.5 110.0 L 192.5 100.0 L 206.25 87.5 L 215.0 80.0 L 216.25 77.5 " stroke="black" fill="none" stroke-width="6.0" stroke-linecap="round" stroke-linejoin="round" />
<path d="M 195.0 106.25 L 193.75 110.0 L 192.5 122.5 L 192.5 143.75 L 191.25 171.25 L 182.5 197.5 L 168.75 212.5 L 155.0 218.75 L 145.0 220.0 L 136.25 215.0 L 133.75 203.75 L 136.25 190.0 L 141.25 173.75 L 146.25 158.75 L 151.25 153.75 L 158.75 160.0 L 172.5 181.25 L 191.25 205.0 L 208.75 223.75 L 225.0 233.75 L 238.75 237.5 L 248.75 238.75 L 255.0 238.75 " stroke="black" fill="none" stroke-width="6.0" stroke-linecap="round" stroke-linejoin="round" />
</svg>