<svg xmlns="http://www.w3.org/2000/svg" width="300" height="300" viewBox="0 0 300 300">
<path d="M 113.75 91.25 L 113.75 92.5 L 108.75 97.5 L 100.0 112.5 L 88.75 138.75 L 76.25 163.75 L 62.5 180.0 L 55.0 182.5 " stroke="black" fill="none" stroke-width="6.0" stroke-linecap="round" stroke-linejoin="round" />
<path d="M 77.5 121.25 L 76.25 121.25 L 73.75 121.25 L 73.75 121.25 L 82.5 126.25 L 96.25 138.75 L 110.0 162.5 L 113.75 192.5 L 107.5 216.25 L 96.25 236.25 L 85.0 248.75 L 73.75 253.75 L 70.0 251.25 L 71.25 241.25 L 73.75 235.0 " stroke="black" fill="none" stroke-width="6.0" stroke-linecap="round" stroke-linejoin="round" />
<path d="M 105.0 178.75 L 105.0 176.25 L 103.75 175.0 L 100.0 177.5 L 92.5 193.75 L 80.0 218.75 L 63.75 243.75 L 56.25 246.25 " stroke="black" fill="none" stroke-width="6.0" stroke-linecap="round" stroke-linejoin="round" />
<path d="M 143.75 87.5 L 140.0 88.75 L 138.75 90.0 L 138.75 97.5 L 141.25 113.75 L 146.25 127.5 L 148.75 133.75 L 148.75 133.75 " stroke="black" fill="none" stroke-width="6.0" stroke-linecap="round" stroke-linejoin="round" />
<path d="M 140.0 91.25 L 138.75 91.25 L 138.75 91.25 L 142.5 88.75 L 161.25 85.0 L 190.0 81.25 L 211.25 80.0 L 218.75 85.0 L 216.25 92.5 L 206.25 102.5 L 195.0 111.25 L 183.75 116.25 L 172.5 117.5 L 170.0 117.5 " stroke="black" fill="none" stroke-width="6.0" stroke-linecap="round" stroke-linejoin="round" />
<path d="M 161.25 90.0 L 161.25 91.25 L 158.75 96.25 L 158.75 103.75 L 158.75 115.0 L 158.75 122.5 L 158.75 122.5 " stroke="black" fill="none" stroke-width="6.0" stroke-linecap="round" stroke-linejoin="round" />
<path d="M 182.5 88.75 L 182.5 90.0 L 178.75 95.0 L 173.75 105.0 L 165.0 118.75 L 156.25 131.25 L 150.0 136.25 L 147.5 137.5 L 151.25 136.25 L 162.5 130.0 L 178.75 122.5 L 193.75 113.75 L 205.0 106.25 L 207.5 103.75 " stroke="black" fill="none" stroke-width="6.0" stroke-linecap="round" stroke-linejoin="round" />
<path d="M 145.0 141.25 L 145.0 141.25 L 145.0 140.0 L 145.0 140.0 L 145.0 143.75 L 145.0 153.75 L 146.25 162.5 L 151.25 167.5 L 165.0 165.0 L 182.5 155.0 L 198.75 146.25 L 207.5 141.25 L 211.25 138.75 L 212.5 138.75 L 213.75 142.5 L 215.0 151.25 L 216.25 171.25 L 218.75 200.0 L 222.5 230.0 L 225.0 250.0 L 226.25 257.5 L 225.0 260.0 L 222.5 260.0 L 218.75 260.0 L 212.5 255.0 L 202.5 248.75 L 197.5 245.0 " stroke="black" fill="none" stroke-width="6.0" stroke-linecap="round" stroke-linejoin="round" />
<path d="M 142.5 193.75 L 141.25 193.75 L 140.0 193.75 L 138.75 195.0 L 142.5 201.25 L 147.5 210.0 L 151.25 216.25 L 152.5 216.25 " stroke="black" fill="none" stroke-width="6.0" stroke-linecap="round" stroke-linejoin="round" />
<path d="M 148.75 191.25 L 147.5 188.75 L 147.5 187.5 L 151.25 186.25 L 165.0 183.75 L 185.0 182.5 L 196.25 181.25 L 197.5 182.5 L 190.0 191.25 L 176.25 201.25 L 163.75 208.75 L 152.5 215.0 L 150.0 216.25 L 155.0 213.75 L 168.75 205.0 L 182.5 195.0 L 191.25 186.25 L 193.75 181.25 L 186.25 181.25 L 178.75 180.0 L 172.5 177.5 L 167.5 173.75 L 167.5 171.25 L 166.25 172.5 L 166.25 183.75 L 167.5 200.0 L 167.5 218.75 L 163.75 236.25 L 158.75 245.0 L 157.5 246.25 L 158.75 245.0 L 166.25 241.25 L 178.75 235.0 L 188.75 227.5 L 196.25 222.5 L 200.0 218.75 L 200.0 218.75 L 198.75 218.75 L 196.25 217.5 L 193.75 216.25 L 191.25 215.0 L 191.25 213.75 L 190.0 213.75 L 190.0 212.5 L 190.0 212.5 L 190.0 212.5 L 193.75 217.5 L 201.25 226.25 L 207.5 236.25 " stroke="black" fill="none" stroke-width="6.0" stroke-linecap="round" stroke-linejoin="round" />
</svg>