<svg xmlns="http://www.w3.org/2000/svg" width="300" height="300" viewBox="0 0 300 300">
<path d="M 90.0 121.25 L 87.5 121.25 L 86.25 122.5 L 88.75 125.0 L 103.75 130.0 L 122.5 135.0 L 132.5 142.5 L 128.75 148.75 L 103.75 166.25 L 83.75 177.5 L 67.5 185.0 L 61.25 186.25 L 66.25 181.25 L 83.75 165.0 L 103.75 148.75 L 122.5 140.0 L 128.75 145.0 L 123.75 162.5 L 103.75 200.0 L 91.25 220.0 L 86.25 226.25 L 92.5 216.25 L 103.75 200.0 L 130.0 163.75 L 151.25 131.25 L 168.75 96.25 L 182.5 80.0 L 185.0 77.5 L 175.0 91.25 L 160.0 120.0 L 145.0 156.25 L 131.25 191.25 L 121.25 203.75 " stroke="black" fill="none" stroke-width="6.0" stroke-linecap="round" stroke-linejoin="round" />
<path d="M 170.0 92.5 L 172.5 91.25 L 185.0 95.0 L 206.25 116.25 L 228.75 140.0 L 245.0 155.0 L 246.25 163.75 " stroke="black" fill="none" stroke-width="6.0" stroke-linecap="round" stroke-linejoin="round" />
<path d="M 160.0 152.5 L 158.75 152.5 L 157.5 152.5 L 158.75 152.5 L 172.5 152.5 L 188.75 155.0 L 201.25 160.0 L 201.25 166.25 L 187.5 176.25 L 167.5 185.0 L 155.0 190.0 L 156.25 190.0 L 172.5 185.0 L 195.0 177.5 L 210.0 173.75 L 215.0 175.0 L 210.0 185.0 L 195.0 197.5 L 177.5 207.5 L 163.75 213.75 L 162.5 215.0 L 173.75 218.75 L 193.75 225.0 L 212.5 230.0 L 231.25 233.75 L 238.75 235.0 " stroke="black" fill="none" stroke-width="6.0" stroke-linecap="round" stroke-linejoin="round" />
</svg>