<svg xmlns="http://www.w3.org/2000/svg" width="300" height="300" viewBox="0 0 300 300">
<path d="M 87.5 126.25 L 85.0 126.25 L 82.5 126.25 L 83.75 126.25 L 92.5 125.0 L 107.5 122.5 L 123.75 117.5 L 132.5 113.75 L 132.5 112.5 " stroke="black" fill="none" stroke-width="6.0" stroke-linecap="round" stroke-linejoin="round" />
<path d="M 76.25 181.25 L 72.5 187.5 L 73.75 188.75 L 87.5 185.0 L 105.0 172.5 L 120.0 160.0 L 132.5 143.75 L 126.25 141.25 L 118.75 141.25 " stroke="black" fill="none" stroke-width="6.0" stroke-linecap="round" stroke-linejoin="round" />
<path d="M 97.5 142.5 L 98.75 142.5 L 98.75 143.75 L 101.25 148.75 L 106.25 158.75 L 110.0 185.0 L 103.75 202.5 L 92.5 212.5 L 82.5 218.75 L 78.75 221.25 L 86.25 221.25 L 106.25 211.25 L 136.25 191.25 L 161.25 165.0 " stroke="black" fill="none" stroke-width="6.0" stroke-linecap="round" stroke-linejoin="round" />
<path d="M 165.0 83.75 L 162.5 82.5 L 161.25 81.25 L 161.25 86.25 L 166.25 108.75 L 168.75 141.25 L 171.25 156.25 L 172.5 157.5 " stroke="black" fill="none" stroke-width="6.0" stroke-linecap="round" stroke-linejoin="round" />
<path d="M 175.0 118.75 L 175.0 117.5 L 175.0 116.25 L 176.25 115.0 L 185.0 111.25 L 198.75 105.0 L 212.5 98.75 L 216.25 98.75 " stroke="black" fill="none" stroke-width="6.0" stroke-linecap="round" stroke-linejoin="round" />
<path d="M 150.0 165.0 L 148.75 168.75 L 148.75 177.5 L 157.5 193.75 L 171.25 216.25 L 180.0 231.25 L 182.5 236.25 L 182.5 235.0 L 181.25 230.0 L 177.5 221.25 L 170.0 211.25 L 163.75 202.5 L 156.25 193.75 L 153.75 188.75 L 157.5 186.25 L 172.5 180.0 L 196.25 170.0 L 218.75 161.25 L 235.0 160.0 L 237.5 166.25 L 225.0 185.0 L 207.5 206.25 L 191.25 225.0 L 187.5 233.75 L 193.75 230.0 L 210.0 216.25 L 228.75 198.75 L 238.75 188.75 " stroke="black" fill="none" stroke-width="6.0" stroke-linecap="round" stroke-linejoin="round" />
</svg>