<svg xmlns="http://www.w3.org/2000/svg" width="300" height="300" viewBox="0 0 300 300">
<path d="M 135.0 72.5 L 135.0 72.5 L 135.0 73.75 L 142.5 76.25 L 163.75 81.25 L 187.5 87.5 L 198.75 91.25 L 198.75 92.5 " stroke="black" fill="none" stroke-width="6.0" stroke-linecap="round" stroke-linejoin="round" />
<path d="M 95.0 121.25 L 95.0 121.25 L 92.5 121.25 L 92.5 121.25 L 107.5 121.25 L 136.25 121.25 L 168.75 120.0 L 188.75 115.0 L 193.75 108.75 L 188.75 107.5 L 178.75 111.25 L 162.5 122.5 L 145.0 138.75 L 126.25 166.25 L 111.25 196.25 L 112.5 203.75 L 127.5 201.25 L 150.0 188.75 L 178.75 168.75 L 201.25 150.0 L 208.75 142.5 L 205.0 145.0 L 190.0 160.0 L 170.0 185.0 L 147.5 212.5 L 136.25 233.75 L 137.5 240.0 L 150.0 241.25 L 170.0 237.5 L 192.5 225.0 L 206.25 215.0 L 210.0 208.75 L 207.5 206.25 L 201.25 205.0 L 195.0 203.75 L 192.5 202.5 L 191.25 200.0 L 191.25 200.0 L 191.25 200.0 L 198.75 206.25 L 212.5 225.0 L 231.25 245.0 L 245.0 256.25 L 245.0 257.5 " stroke="black" fill="none" stroke-width="6.0" stroke-linecap="round" stroke-linejoin="round" />
</svg>