<svg xmlns="http://www.w3.org/2000/svg" width="300" height="300" viewBox="0 0 300 300">
<path d="M 86.25 111.25 L 80.0 113.75 L 76.25 115.0 L 77.5 115.0 L 86.25 110.0 L 100.0 103.75 L 112.5 97.5 L 122.5 92.5 L 123.75 91.25 L 118.75 93.75 " stroke="black" fill="none" stroke-width="6.0" stroke-linecap="round" stroke-linejoin="round" />
<path d="M 76.25 170.0 L 73.75 176.25 L 73.75 180.0 L 83.75 175.0 L 100.0 160.0 L 116.25 141.25 L 126.25 130.0 L 126.25 125.0 L 115.0 127.5 L 102.5 131.25 L 93.75 135.0 L 86.25 136.25 L 82.5 137.5 L 83.75 140.0 L 91.25 142.5 L 100.0 150.0 L 108.75 162.5 L 111.25 175.0 L 107.5 197.5 L 98.75 208.75 L 91.25 216.25 L 88.75 220.0 L 92.5 221.25 L 106.25 215.0 L 126.25 202.5 L 146.25 186.25 L 156.25 170.0 L 157.5 162.5 " stroke="black" fill="none" stroke-width="6.0" stroke-linecap="round" stroke-linejoin="round" />
<path d="M 153.75 91.25 L 153.75 90.0 L 153.75 87.5 L 152.5 88.75 L 151.25 102.5 L 147.5 127.5 L 143.75 146.25 L 142.5 151.25 L 141.25 145.0 " stroke="black" fill="none" stroke-width="6.0" stroke-linecap="round" stroke-linejoin="round" />
<path d="M 153.75 102.5 L 153.75 100.0 L 156.25 98.75 L 158.75 97.5 L 167.5 97.5 L 182.5 97.5 L 196.25 93.75 L 203.75 91.25 L 205.0 90.0 L 203.75 91.25 L 201.25 97.5 L 197.5 108.75 L 192.5 130.0 L 183.75 160.0 L 168.75 195.0 L 153.75 220.0 L 143.75 235.0 L 137.5 241.25 L 136.25 241.25 " stroke="black" fill="none" stroke-width="6.0" stroke-linecap="round" stroke-linejoin="round" />
<path d="M 188.75 155.0 L 190.0 155.0 L 191.25 153.75 L 191.25 152.5 L 191.25 152.5 L 191.25 152.5 L 191.25 152.5 L 191.25 152.5 L 190.0 152.5 L 190.0 153.75 L 188.75 153.75 L 188.75 153.75 L 188.75 153.75 L 188.75 153.75 L 191.25 156.25 L 201.25 170.0 L 220.0 193.75 L 238.75 213.75 L 256.25 226.25 L 268.75 228.75 L 277.5 231.25 L 277.5 231.25 " stroke="black" fill="none" stroke-width="6.0" stroke-linecap="round" stroke-linejoin="round" />
</svg>