<svg xmlns="http://www.w3.org/2000/svg" width="300" height="300" viewBox="0 0 300 300">
<path d="M 92.5 113.75 L 91.25 116.25 L 90.0 118.75 L 92.5 123.75 L 102.5 133.75 L 111.25 143.75 L 116.25 153.75 L 112.5 163.75 L 98.75 173.75 L 81.25 185.0 L 63.75 188.75 L 57.5 187.5 L 60.0 177.5 L 76.25 160.0 L 92.5 145.0 L 108.75 138.75 L 115.0 148.75 L 108.75 178.75 L 93.75 210.0 L 85.0 226.25 L 83.75 225.0 L 91.25 210.0 L 103.75 187.5 L 118.75 160.0 L 123.75 151.25 " stroke="black" fill="none" stroke-width="6.0" stroke-linecap="round" stroke-linejoin="round" />
<path d="M 150.0 102.5 L 151.25 98.75 L 152.5 97.5 L 151.25 98.75 L 150.0 111.25 L 150.0 122.5 L 157.5 128.75 L 175.0 122.5 L 195.0 107.5 L 205.0 93.75 L 201.25 90.0 L 195.0 90.0 " stroke="black" fill="none" stroke-width="6.0" stroke-linecap="round" stroke-linejoin="round" />
<path d="M 122.5 168.75 L 120.0 173.75 L 118.75 176.25 L 133.75 173.75 L 163.75 160.0 L 201.25 143.75 L 227.5 128.75 L 237.5 118.75 L 230.0 115.0 L 226.25 115.0 " stroke="black" fill="none" stroke-width="6.0" stroke-linecap="round" stroke-linejoin="round" />
<path d="M 181.25 81.25 L 180.0 78.75 L 178.75 75.0 L 178.75 73.75 L 180.0 87.5 L 181.25 130.0 L 181.25 192.5 L 180.0 221.25 L 178.75 231.25 L 176.25 233.75 L 170.0 232.5 L 163.75 225.0 L 158.75 212.5 " stroke="black" fill="none" stroke-width="6.0" stroke-linecap="round" stroke-linejoin="round" />
<path d="M 181.25 150.0 L 181.25 150.0 L 181.25 153.75 L 172.5 176.25 L 151.25 213.75 L 131.25 242.5 L 113.75 250.0 L 105.0 246.25 " stroke="black" fill="none" stroke-width="6.0" stroke-linecap="round" stroke-linejoin="round" />
<path d="M 175.0 152.5 L 176.25 156.25 L 183.75 167.5 L 198.75 188.75 L 211.25 205.0 L 232.5 225.0 L 247.5 237.5 L 251.25 241.25 " stroke="black" fill="none" stroke-width="6.0" stroke-linecap="round" stroke-linejoin="round" />
</svg>