<svg xmlns="http://www.w3.org/2000/svg" width="300" height="300" viewBox="0 0 300 300">
<path d="M 90.0 120.0 L 87.5 120.0 L 85.0 120.0 L 87.5 120.0 L 97.5 121.25 L 111.25 125.0 L 123.75 131.25 L 127.5 140.0 L 121.25 152.5 L 107.5 166.25 L 92.5 181.25 L 80.0 188.75 L 73.75 191.25 L 73.75 191.25 L 80.0 183.75 L 91.25 168.75 L 102.5 155.0 L 115.0 145.0 L 122.5 141.25 L 122.5 152.5 L 113.75 176.25 L 105.0 197.5 L 98.75 212.5 L 97.5 213.75 L 106.25 208.75 L 120.0 197.5 L 136.25 181.25 L 146.25 167.5 " stroke="black" fill="none" stroke-width="6.0" stroke-linecap="round" stroke-linejoin="round" />
<path d="M 168.75 81.25 L 168.75 81.25 L 165.0 81.25 L 163.75 80.0 L 168.75 83.75 L 175.0 91.25 L 178.75 101.25 L 178.75 103.75 " stroke="black" fill="none" stroke-width="6.0" stroke-linecap="round" stroke-linejoin="round" />
<path d="M 192.5 71.25 L 192.5 71.25 L 192.5 71.25 L 192.5 71.25 L 195.0 72.5 L 200.0 78.75 L 201.25 88.75 L 195.0 103.75 L 181.25 115.0 " stroke="black" fill="none" stroke-width="6.0" stroke-linecap="round" stroke-linejoin="round" />
<path d="M 158.75 130.0 L 158.75 130.0 L 155.0 130.0 L 153.75 130.0 L 160.0 127.5 L 178.75 118.75 L 197.5 108.75 L 211.25 102.5 L 216.25 102.5 L 213.75 107.5 L 205.0 122.5 L 192.5 137.5 L 176.25 151.25 L 158.75 162.5 L 153.75 167.5 L 156.25 167.5 L 166.25 163.75 L 182.5 155.0 L 197.5 147.5 L 210.0 140.0 L 215.0 137.5 L 212.5 140.0 L 203.75 152.5 L 188.75 170.0 L 168.75 190.0 L 150.0 206.25 L 145.0 211.25 L 148.75 210.0 L 162.5 203.75 L 183.75 191.25 L 208.75 175.0 L 235.0 158.75 L 256.25 152.5 L 260.0 153.75 L 258.75 165.0 L 247.5 183.75 L 233.75 198.75 L 217.5 208.75 L 206.25 211.25 L 203.75 207.5 " stroke="black" fill="none" stroke-width="6.0" stroke-linecap="round" stroke-linejoin="round" />
<path d="M 187.5 123.75 L 185.0 118.75 L 185.0 116.25 L 185.0 116.25 L 186.25 116.25 L 188.75 127.5 L 193.75 150.0 L 198.75 187.5 L 201.25 218.75 L 202.5 236.25 L 203.75 245.0 L 203.75 245.0 L 202.5 245.0 " stroke="black" fill="none" stroke-width="6.0" stroke-linecap="round" stroke-linejoin="round" />
<path d="M 200.0 197.5 L 200.0 197.5 L 198.75 197.5 L 197.5 197.5 L 196.25 197.5 L 196.25 197.5 L 195.0 197.5 L 195.0 197.5 L 195.0 197.5 L 195.0 197.5 L 195.0 197.5 L 195.0 197.5 L 196.25 197.5 L 196.25 197.5 L 196.25 197.5 L 196.25 197.5 L 196.25 197.5 L 196.25 197.5 L 196.25 200.0 L 190.0 210.0 L 177.5 232.5 L 165.0 253.75 L 156.25 262.5 " stroke="black" fill="none" stroke-width="6.0" stroke-linecap="round" stroke-linejoin="round" />
</svg>