<svg xmlns="http://www.w3.org/2000/svg" width="300" height="300" viewBox="0 0 300 300">
<path d="M 83.75 71.25 L 83.75 71.25 L 83.75 70.0 L 83.75 70.0 L 87.5 72.5 L 93.75 82.5 L 95.0 87.5 " stroke="black" fill="none" stroke-width="6.0" stroke-linecap="round" stroke-linejoin="round" />
<path d="M 113.75 71.25 L 112.5 78.75 L 110.0 85.0 L 106.25 91.25 L 100.0 98.75 L 91.25 102.5 L 83.75 106.25 L 63.75 112.5 L 52.5 116.25 L 50.0 117.5 L 63.75 116.25 L 68.75 115.0 L 111.25 102.5 L 137.5 95.0 L 150.0 88.75 L 147.5 87.5 L 132.5 93.75 L 117.5 100.0 L 101.25 107.5 L 87.5 120.0 L 78.75 138.75 L 73.75 170.0 L 72.5 211.25 L 76.25 236.25 L 81.25 243.75 L 83.75 242.5 L 83.75 236.25 L 82.5 227.5 L 80.0 223.75 " stroke="black" fill="none" stroke-width="6.0" stroke-linecap="round" stroke-linejoin="round" />
<path d="M 72.5 163.75 L 72.5 163.75 L 72.5 162.5 L 77.5 158.75 L 93.75 148.75 L 115.0 138.75 L 132.5 133.75 L 140.0 137.5 L 141.25 158.75 L 142.5 191.25 L 141.25 216.25 L 140.0 225.0 L 140.0 226.25 L 138.75 223.75 L 136.25 215.0 L 133.75 208.75 " stroke="black" fill="none" stroke-width="6.0" stroke-linecap="round" stroke-linejoin="round" />
<path d="M 97.5 117.5 L 96.25 118.75 L 92.5 126.25 L 90.0 147.5 L 86.25 177.5 L 82.5 197.5 L 81.25 201.25 " stroke="black" fill="none" stroke-width="6.0" stroke-linecap="round" stroke-linejoin="round" />
<path d="M 110.0 121.25 L 110.0 125.0 L 108.75 135.0 L 108.75 151.25 L 112.5 162.5 L 125.0 168.75 L 135.0 163.75 L 140.0 155.0 L 140.0 151.25 " stroke="black" fill="none" stroke-width="6.0" stroke-linecap="round" stroke-linejoin="round" />
<path d="M 91.25 190.0 L 90.0 191.25 L 87.5 195.0 L 90.0 193.75 L 101.25 187.5 L 117.5 176.25 L 131.25 166.25 L 135.0 162.5 " stroke="black" fill="none" stroke-width="6.0" stroke-linecap="round" stroke-linejoin="round" />
<path d="M 93.75 216.25 L 92.5 222.5 L 95.0 223.75 L 106.25 217.5 L 123.75 203.75 L 132.5 196.25 " stroke="black" fill="none" stroke-width="6.0" stroke-linecap="round" stroke-linejoin="round" />
<path d="M 167.5 136.25 L 167.5 137.5 L 165.0 141.25 L 168.75 141.25 L 187.5 135.0 L 210.0 122.5 L 227.5 106.25 L 232.5 96.25 " stroke="black" fill="none" stroke-width="6.0" stroke-linecap="round" stroke-linejoin="round" />
<path d="M 188.75 90.0 L 187.5 95.0 L 188.75 112.5 L 188.75 151.25 L 183.75 191.25 L 172.5 216.25 L 161.25 226.25 L 151.25 230.0 L 145.0 225.0 L 145.0 215.0 " stroke="black" fill="none" stroke-width="6.0" stroke-linecap="round" stroke-linejoin="round" />
<path d="M 186.25 157.5 L 188.75 161.25 L 196.25 175.0 L 210.0 195.0 L 227.5 213.75 L 247.5 230.0 L 261.25 241.25 L 265.0 243.75 L 265.0 243.75 L 260.0 240.0 " stroke="black" fill="none" stroke-width="6.0" stroke-linecap="round" stroke-linejoin="round" />
<path d="M 221.25 83.75 L 221.25 80.0 L 220.0 80.0 L 221.25 80.0 L 227.5 82.5 L 238.75 90.0 L 241.25 92.5 " stroke="black" fill="none" stroke-width="6.0" stroke-linecap="round" stroke-linejoin="round" />
</svg>