<svg xmlns="http://www.w3.org/2000/svg" width="300" height="300" viewBox="0 0 300 300">
<path d="M 117.5 96.25 L 117.5 93.75 L 120.0 90.0 L 121.25 88.75 L 121.25 90.0 L 112.5 108.75 L 97.5 137.5 L 77.5 170.0 L 60.0 188.75 L 52.5 186.25 " stroke="black" fill="none" stroke-width="6.0" stroke-linecap="round" stroke-linejoin="round" />
<path d="M 72.5 126.25 L 71.25 126.25 L 73.75 128.75 L 86.25 135.0 L 108.75 147.5 L 128.75 167.5 L 130.0 191.25 L 115.0 211.25 L 95.0 227.5 L 80.0 237.5 L 71.25 237.5 L 70.0 225.0 L 75.0 211.25 " stroke="black" fill="none" stroke-width="6.0" stroke-linecap="round" stroke-linejoin="round" />
<path d="M 107.5 165.0 L 107.5 165.0 L 105.0 165.0 L 97.5 176.25 L 82.5 200.0 L 62.5 223.75 L 53.75 230.0 " stroke="black" fill="none" stroke-width="6.0" stroke-linecap="round" stroke-linejoin="round" />
<path d="M 156.25 68.75 L 155.0 68.75 L 153.75 68.75 L 153.75 76.25 L 155.0 91.25 L 157.5 105.0 L 157.5 108.75 " stroke="black" fill="none" stroke-width="6.0" stroke-linecap="round" stroke-linejoin="round" />
<path d="M 188.75 70.0 L 188.75 70.0 L 188.75 70.0 L 187.5 72.5 L 182.5 83.75 L 172.5 97.5 L 160.0 108.75 L 146.25 115.0 L 132.5 120.0 L 121.25 125.0 L 120.0 125.0 L 130.0 125.0 L 153.75 120.0 L 181.25 111.25 L 208.75 103.75 L 221.25 98.75 L 221.25 98.75 L 213.75 102.5 L 201.25 108.75 L 187.5 117.5 L 170.0 128.75 L 155.0 146.25 L 147.5 170.0 L 146.25 197.5 L 148.75 213.75 L 153.75 221.25 L 156.25 223.75 L 156.25 223.75 L 155.0 222.5 L 148.75 218.75 L 147.5 216.25 " stroke="black" fill="none" stroke-width="6.0" stroke-linecap="round" stroke-linejoin="round" />
<path d="M 146.25 163.75 L 146.25 163.75 L 146.25 163.75 L 148.75 163.75 L 168.75 158.75 L 198.75 153.75 L 222.5 150.0 L 235.0 153.75 L 240.0 173.75 L 240.0 203.75 L 238.75 227.5 L 236.25 240.0 L 236.25 242.5 L 232.5 240.0 L 225.0 235.0 L 216.25 226.25 " stroke="black" fill="none" stroke-width="6.0" stroke-linecap="round" stroke-linejoin="round" />
<path d="M 172.5 121.25 L 171.25 122.5 L 165.0 132.5 L 161.25 158.75 L 157.5 188.75 L 157.5 202.5 L 157.5 203.75 L 157.5 201.25 " stroke="black" fill="none" stroke-width="6.0" stroke-linecap="round" stroke-linejoin="round" />
<path d="M 192.5 125.0 L 192.5 125.0 L 187.5 133.75 L 183.75 155.0 L 182.5 181.25 L 187.5 191.25 L 196.25 191.25 L 205.0 186.25 L 210.0 178.75 L 210.0 173.75 L 208.75 173.75 " stroke="black" fill="none" stroke-width="6.0" stroke-linecap="round" stroke-linejoin="round" />
<path d="M 161.25 205.0 L 160.0 206.25 L 160.0 206.25 L 172.5 206.25 L 190.0 201.25 L 203.75 196.25 L 210.0 193.75 L 205.0 196.25 L 196.25 200.0 " stroke="black" fill="none" stroke-width="6.0" stroke-linecap="round" stroke-linejoin="round" />
<path d="M 165.0 225.0 L 165.0 225.0 L 165.0 227.5 L 168.75 230.0 L 183.75 230.0 L 203.75 225.0 L 223.75 217.5 " stroke="black" fill="none" stroke-width="6.0" stroke-linecap="round" stroke-linejoin="round" />
</svg>