<svg xmlns="http://www.w3.org/2000/svg" width="300" height="300" viewBox="0 0 300 300">
<path d="M 83.75 131.25 L 80.0 131.25 L 78.75 131.25 L 85.0 132.5 L 100.0 136.25 L 115.0 140.0 L 123.75 147.5 L 118.75 158.75 L 101.25 173.75 L 83.75 188.75 L 67.5 196.25 L 61.25 197.5 L 65.0 191.25 L 78.75 176.25 L 95.0 160.0 L 110.0 147.5 L 118.75 146.25 L 116.25 162.5 L 103.75 188.75 L 93.75 208.75 L 88.75 220.0 L 90.0 216.25 L 101.25 200.0 L 117.5 175.0 L 137.5 145.0 L 153.75 112.5 L 167.5 90.0 L 175.0 87.5 L 168.75 97.5 L 153.75 120.0 L 138.75 148.75 L 122.5 172.5 L 111.25 183.75 " stroke="black" fill="none" stroke-width="6.0" stroke-linecap="round" stroke-linejoin="round" />
<path d="M 156.25 95.0 L 157.5 95.0 L 170.0 96.25 L 196.25 110.0 L 223.75 126.25 L 245.0 137.5 L 251.25 143.75 L 247.5 147.5 " stroke="black" fill="none" stroke-width="6.0" stroke-linecap="round" stroke-linejoin="round" />
<path d="M 175.0 145.0 L 166.25 150.0 L 153.75 162.5 L 142.5 183.75 L 131.25 200.0 L 128.75 202.5 L 128.75 200.0 " stroke="black" fill="none" stroke-width="6.0" stroke-linecap="round" stroke-linejoin="round" />
<path d="M 192.5 145.0 L 192.5 146.25 L 191.25 150.0 L 183.75 163.75 L 170.0 188.75 L 156.25 208.75 L 148.75 215.0 L 147.5 215.0 " stroke="black" fill="none" stroke-width="6.0" stroke-linecap="round" stroke-linejoin="round" />
<path d="M 205.0 158.75 L 205.0 162.5 L 205.0 173.75 L 198.75 197.5 L 185.0 225.0 L 167.5 246.25 L 151.25 256.25 L 142.5 257.5 L 140.0 257.5 " stroke="black" fill="none" stroke-width="6.0" stroke-linecap="round" stroke-linejoin="round" />
</svg>