<svg xmlns="http://www.w3.org/2000/svg" width="300" height="300" viewBox="0 0 300 300">
<path d="M 108.75 101.25 L 108.75 102.5 L 106.25 106.25 L 101.25 117.5 L 91.25 143.75 L 76.25 172.5 L 60.0 187.5 L 57.5 188.75 " stroke="black" fill="none" stroke-width="6.0" stroke-linecap="round" stroke-linejoin="round" />
<path d="M 76.25 131.25 L 75.0 128.75 L 73.75 127.5 L 78.75 127.5 L 90.0 130.0 L 105.0 136.25 L 115.0 145.0 L 123.75 168.75 L 115.0 197.5 L 101.25 217.5 L 88.75 230.0 L 78.75 235.0 L 76.25 235.0 L 76.25 225.0 " stroke="black" fill="none" stroke-width="6.0" stroke-linecap="round" stroke-linejoin="round" />
<path d="M 113.75 156.25 L 113.75 153.75 L 113.75 152.5 L 108.75 152.5 L 100.0 168.75 L 85.0 195.0 L 72.5 211.25 " stroke="black" fill="none" stroke-width="6.0" stroke-linecap="round" stroke-linejoin="round" />
<path d="M 147.5 83.75 L 145.0 83.75 L 142.5 83.75 L 142.5 83.75 L 152.5 82.5 L 171.25 80.0 L 192.5 72.5 L 205.0 65.0 L 207.5 62.5 L 200.0 63.75 L 190.0 66.25 L 180.0 67.5 L 172.5 70.0 L 167.5 71.25 L 163.75 73.75 L 161.25 83.75 L 155.0 107.5 L 148.75 138.75 L 145.0 150.0 L 145.0 146.25 L 145.0 143.75 " stroke="black" fill="none" stroke-width="6.0" stroke-linecap="round" stroke-linejoin="round" />
<path d="M 162.5 95.0 L 163.75 95.0 L 165.0 95.0 L 171.25 96.25 L 187.5 102.5 L 203.75 108.75 L 213.75 113.75 L 213.75 118.75 L 206.25 123.75 L 201.25 125.0 " stroke="black" fill="none" stroke-width="6.0" stroke-linecap="round" stroke-linejoin="round" />
<path d="M 127.5 163.75 L 126.25 163.75 L 123.75 166.25 L 125.0 166.25 L 138.75 161.25 L 161.25 150.0 L 193.75 135.0 L 213.75 122.5 L 218.75 120.0 L 210.0 122.5 L 201.25 127.5 L 198.75 130.0 " stroke="black" fill="none" stroke-width="6.0" stroke-linecap="round" stroke-linejoin="round" />
<path d="M 152.5 168.75 L 148.75 183.75 L 147.5 196.25 L 150.0 205.0 L 151.25 208.75 L 152.5 210.0 L 152.5 210.0 L 148.75 207.5 L 147.5 202.5 L 147.5 196.25 L 153.75 187.5 L 165.0 181.25 L 176.25 177.5 L 183.75 178.75 L 181.25 187.5 L 170.0 200.0 L 157.5 207.5 L 151.25 210.0 L 151.25 203.75 " stroke="black" fill="none" stroke-width="6.0" stroke-linecap="round" stroke-linejoin="round" />
<path d="M 206.25 138.75 L 206.25 137.5 L 206.25 135.0 L 207.5 135.0 L 207.5 142.5 L 208.75 167.5 L 208.75 200.0 L 210.0 228.75 L 210.0 245.0 L 210.0 248.75 L 208.75 250.0 L 207.5 250.0 L 206.25 250.0 L 201.25 251.25 L 195.0 251.25 L 185.0 251.25 L 167.5 250.0 L 148.75 247.5 L 142.5 246.25 " stroke="black" fill="none" stroke-width="6.0" stroke-linecap="round" stroke-linejoin="round" />
</svg>