<svg xmlns="http://www.w3.org/2000/svg" width="300" height="300" viewBox="0 0 300 300">
<path d="M 75.0 118.75 L 75.0 118.75 L 76.25 118.75 L 85.0 120.0 L 98.75 126.25 L 108.75 135.0 L 111.25 147.5 L 101.25 161.25 L 87.5 173.75 L 71.25 181.25 L 60.0 185.0 L 57.5 183.75 L 66.25 175.0 L 82.5 160.0 L 96.25 148.75 L 106.25 143.75 L 108.75 148.75 L 102.5 167.5 L 92.5 190.0 L 85.0 208.75 L 82.5 216.25 L 88.75 211.25 L 102.5 192.5 L 120.0 168.75 L 135.0 142.5 " stroke="black" fill="none" stroke-width="6.0" stroke-linecap="round" stroke-linejoin="round" />
<path d="M 147.5 88.75 L 146.25 90.0 L 145.0 91.25 L 148.75 91.25 L 161.25 91.25 L 180.0 88.75 L 193.75 85.0 L 196.25 86.25 " stroke="black" fill="none" stroke-width="6.0" stroke-linecap="round" stroke-linejoin="round" />
<path d="M 141.25 147.5 L 140.0 147.5 L 138.75 150.0 L 147.5 150.0 L 166.25 138.75 L 190.0 122.5 L 205.0 107.5 L 203.75 105.0 " stroke="black" fill="none" stroke-width="6.0" stroke-linecap="round" stroke-linejoin="round" />
<path d="M 165.0 151.25 L 162.5 157.5 L 157.5 183.75 L 155.0 208.75 L 155.0 221.25 L 155.0 221.25 L 155.0 215.0 " stroke="black" fill="none" stroke-width="6.0" stroke-linecap="round" stroke-linejoin="round" />
<path d="M 180.0 145.0 L 180.0 146.25 L 180.0 153.75 L 181.25 177.5 L 186.25 210.0 L 195.0 233.75 L 205.0 241.25 L 213.75 241.25 L 222.5 235.0 L 228.75 230.0 L 232.5 227.5 L 232.5 226.25 L 232.5 226.25 L 231.25 217.5 L 231.25 200.0 L 235.0 163.75 L 236.25 152.5 " stroke="black" fill="none" stroke-width="6.0" stroke-linecap="round" stroke-linejoin="round" />
</svg>