<svg xmlns="http://www.w3.org/2000/svg" width="300" height="300" viewBox="0 0 300 300">
<path d="M 95.0 127.5 L 92.5 127.5 L 90.0 127.5 L 90.0 127.5 L 100.0 130.0 L 112.5 135.0 L 120.0 140.0 L 120.0 148.75 L 107.5 161.25 L 92.5 175.0 L 77.5 183.75 L 70.0 187.5 L 70.0 186.25 L 78.75 178.75 L 92.5 165.0 L 105.0 153.75 L 117.5 147.5 L 123.75 150.0 L 121.25 168.75 L 112.5 195.0 L 102.5 212.5 L 100.0 218.75 L 101.25 215.0 L 113.75 202.5 L 130.0 186.25 L 141.25 171.25 " stroke="black" fill="none" stroke-width="6.0" stroke-linecap="round" stroke-linejoin="round" />
<path d="M 166.25 106.25 L 161.25 108.75 L 152.5 111.25 L 151.25 111.25 L 160.0 111.25 L 180.0 106.25 L 202.5 96.25 L 223.75 85.0 L 236.25 77.5 L 238.75 75.0 L 231.25 77.5 L 222.5 82.5 L 213.75 87.5 L 207.5 92.5 L 205.0 96.25 L 205.0 97.5 L 206.25 102.5 L 208.75 115.0 L 211.25 147.5 L 211.25 195.0 L 210.0 222.5 L 210.0 236.25 L 207.5 241.25 L 203.75 240.0 L 202.5 236.25 " stroke="black" fill="none" stroke-width="6.0" stroke-linecap="round" stroke-linejoin="round" />
<path d="M 166.25 126.25 L 165.0 122.5 L 163.75 122.5 L 163.75 128.75 L 167.5 155.0 L 168.75 186.25 L 168.75 205.0 L 168.75 206.25 " stroke="black" fill="none" stroke-width="6.0" stroke-linecap="round" stroke-linejoin="round" />
<path d="M 171.25 145.0 L 171.25 145.0 L 170.0 146.25 L 171.25 145.0 L 182.5 140.0 L 197.5 132.5 L 210.0 123.75 L 212.5 120.0 L 207.5 123.75 " stroke="black" fill="none" stroke-width="6.0" stroke-linecap="round" stroke-linejoin="round" />
<path d="M 178.75 162.5 L 177.5 163.75 L 173.75 167.5 L 176.25 168.75 L 186.25 166.25 L 198.75 158.75 L 207.5 152.5 L 210.0 148.75 " stroke="black" fill="none" stroke-width="6.0" stroke-linecap="round" stroke-linejoin="round" />
<path d="M 158.75 218.75 L 157.5 222.5 L 156.25 226.25 L 165.0 225.0 L 187.5 216.25 L 212.5 202.5 L 237.5 190.0 L 252.5 181.25 L 255.0 178.75 L 253.75 177.5 L 253.75 178.75 L 250.0 180.0 L 246.25 181.25 " stroke="black" fill="none" stroke-width="6.0" stroke-linecap="round" stroke-linejoin="round" />
</svg>