<svg xmlns="http://www.w3.org/2000/svg" width="300" height="300" viewBox="0 0 300 300">
<path d="M 121.25 100.0 L 120.0 101.25 L 112.5 102.5 L 115.0 102.5 L 130.0 101.25 L 150.0 96.25 L 168.75 90.0 L 181.25 85.0 L 182.5 83.75 L 170.0 86.25 L 157.5 91.25 L 146.25 95.0 L 133.75 97.5 L 122.5 101.25 L 115.0 106.25 L 111.25 110.0 L 112.5 122.5 L 116.25 155.0 L 115.0 197.5 L 108.75 231.25 L 102.5 248.75 L 97.5 251.25 L 96.25 251.25 " stroke="black" fill="none" stroke-width="6.0" stroke-linecap="round" stroke-linejoin="round" />
<path d="M 155.0 143.75 L 153.75 151.25 L 153.75 170.0 L 153.75 201.25 L 151.25 220.0 L 151.25 227.5 L 152.5 227.5 L 160.0 221.25 L 172.5 210.0 L 185.0 196.25 L 191.25 185.0 L 193.75 173.75 L 193.75 166.25 L 188.75 161.25 L 186.25 160.0 L 185.0 158.75 L 185.0 158.75 L 185.0 158.75 L 185.0 160.0 L 188.75 165.0 L 195.0 176.25 L 201.25 190.0 L 207.5 202.5 L 210.0 212.5 L 210.0 213.75 L 208.75 213.75 " stroke="black" fill="none" stroke-width="6.0" stroke-linecap="round" stroke-linejoin="round" />
<path d="M 206.25 130.0 L 203.75 127.5 L 202.5 125.0 L 202.5 125.0 L 207.5 128.75 L 218.75 147.5 L 233.75 175.0 L 253.75 198.75 L 270.0 216.25 L 281.25 227.5 " stroke="black" fill="none" stroke-width="6.0" stroke-linecap="round" stroke-linejoin="round" />
</svg>