<svg xmlns="http://www.w3.org/2000/svg" width="300" height="300" viewBox="0 0 300 300">
<path d="M 82.5 131.25 L 81.25 131.25 L 80.0 130.0 L 85.0 130.0 L 95.0 130.0 L 106.25 137.5 L 110.0 148.75 L 103.75 162.5 L 88.75 177.5 L 71.25 186.25 L 57.5 188.75 L 56.25 187.5 L 66.25 177.5 L 82.5 162.5 L 96.25 151.25 L 106.25 148.75 L 106.25 161.25 L 97.5 190.0 L 87.5 216.25 L 82.5 228.75 L 83.75 226.25 L 95.0 210.0 L 110.0 187.5 L 126.25 158.75 " stroke="black" fill="none" stroke-width="6.0" stroke-linecap="round" stroke-linejoin="round" />
<path d="M 142.5 85.0 L 141.25 85.0 L 137.5 85.0 L 137.5 85.0 L 146.25 86.25 L 160.0 86.25 L 175.0 87.5 L 186.25 87.5 L 187.5 90.0 L 177.5 96.25 L 161.25 106.25 L 146.25 116.25 L 132.5 127.5 L 130.0 131.25 L 135.0 131.25 L 151.25 122.5 L 170.0 108.75 L 188.75 95.0 L 202.5 85.0 L 205.0 81.25 L 201.25 81.25 " stroke="black" fill="none" stroke-width="6.0" stroke-linecap="round" stroke-linejoin="round" />
<path d="M 157.5 61.25 L 156.25 57.5 L 156.25 56.25 L 156.25 61.25 L 156.25 81.25 L 156.25 105.0 L 156.25 115.0 " stroke="black" fill="none" stroke-width="6.0" stroke-linecap="round" stroke-linejoin="round" />
<path d="M 150.0 132.5 L 147.5 136.25 L 146.25 142.5 L 147.5 155.0 L 152.5 166.25 L 157.5 171.25 L 160.0 171.25 L 160.0 165.0 L 157.5 158.75 L 155.0 153.75 L 152.5 150.0 L 150.0 146.25 L 150.0 142.5 L 153.75 137.5 L 163.75 132.5 L 175.0 130.0 L 182.5 130.0 L 182.5 133.75 L 175.0 143.75 L 165.0 153.75 L 153.75 163.75 L 145.0 171.25 L 142.5 173.75 L 146.25 172.5 L 157.5 163.75 L 171.25 155.0 L 181.25 147.5 L 186.25 145.0 L 182.5 148.75 L 171.25 162.5 L 158.75 178.75 L 143.75 197.5 L 133.75 211.25 L 132.5 213.75 L 141.25 212.5 L 156.25 205.0 L 172.5 196.25 L 187.5 188.75 L 192.5 186.25 L 188.75 188.75 L 175.0 200.0 L 158.75 213.75 L 141.25 232.5 L 126.25 248.75 L 126.25 253.75 L 140.0 251.25 L 166.25 240.0 L 198.75 222.5 L 230.0 206.25 L 253.75 196.25 L 258.75 192.5 L 252.5 190.0 L 241.25 188.75 L 226.25 186.25 L 213.75 182.5 L 206.25 177.5 L 205.0 170.0 L 205.0 163.75 L 206.25 160.0 L 207.5 158.75 L 207.5 158.75 L 207.5 163.75 L 208.75 186.25 L 210.0 222.5 L 213.75 267.5 L 216.25 301.25 L 216.25 316.25 L 215.0 320.0 L 210.0 320.0 L 205.0 317.5 " stroke="black" fill="none" stroke-width="6.0" stroke-linecap="round" stroke-linejoin="round" />
</svg>