<svg xmlns="http://www.w3.org/2000/svg" width="300" height="300" viewBox="0 0 300 300">
<path d="M 77.5 100.0 L 76.25 100.0 L 67.5 102.5 L 67.5 102.5 L 78.75 102.5 L 98.75 101.25 L 123.75 96.25 L 150.0 90.0 L 161.25 86.25 L 161.25 85.0 L 153.75 87.5 L 142.5 91.25 L 133.75 97.5 L 123.75 108.75 L 112.5 138.75 L 105.0 192.5 L 98.75 240.0 L 98.75 260.0 L 98.75 263.75 L 101.25 263.75 L 106.25 257.5 L 116.25 246.25 L 127.5 232.5 L 136.25 217.5 L 143.75 205.0 L 147.5 192.5 L 148.75 183.75 " stroke="black" fill="none" stroke-width="6.0" stroke-linecap="round" stroke-linejoin="round" />
<path d="M 120.0 147.5 L 112.5 148.75 L 107.5 150.0 L 108.75 150.0 L 123.75 146.25 L 145.0 138.75 L 168.75 131.25 L 188.75 127.5 L 196.25 128.75 L 197.5 143.75 L 196.25 175.0 L 198.75 213.75 L 210.0 241.25 L 225.0 252.5 L 238.75 253.75 L 246.25 253.75 L 248.75 252.5 L 248.75 252.5 L 247.5 251.25 L 242.5 246.25 L 233.75 236.25 L 230.0 233.75 " stroke="black" fill="none" stroke-width="6.0" stroke-linecap="round" stroke-linejoin="round" />
<path d="M 153.75 158.75 L 151.25 157.5 L 150.0 157.5 L 150.0 157.5 L 158.75 167.5 L 170.0 181.25 " stroke="black" fill="none" stroke-width="6.0" stroke-linecap="round" stroke-linejoin="round" />
</svg>