<svg xmlns="http://www.w3.org/2000/svg" width="300" height="300" viewBox="0 0 300 300">
<path d="M 82.5 80.0 L 81.25 80.0 L 80.0 80.0 L 80.0 80.0 L 90.0 78.75 L 103.75 78.75 L 120.0 78.75 L 127.5 80.0 L 123.75 83.75 L 111.25 91.25 L 96.25 98.75 L 86.25 105.0 L 81.25 107.5 L 82.5 107.5 L 92.5 103.75 L 103.75 96.25 L 113.75 90.0 L 116.25 88.75 L 108.75 87.5 " stroke="black" fill="none" stroke-width="6.0" stroke-linecap="round" stroke-linejoin="round" />
<path d="M 76.25 80.0 L 75.0 81.25 L 72.5 88.75 L 70.0 113.75 L 66.25 151.25 L 60.0 173.75 L 55.0 186.25 L 51.25 186.25 " stroke="black" fill="none" stroke-width="6.0" stroke-linecap="round" stroke-linejoin="round" />
<path d="M 71.25 127.5 L 72.5 127.5 L 73.75 127.5 L 78.75 136.25 L 90.0 150.0 L 98.75 158.75 L 102.5 160.0 L 101.25 155.0 L 97.5 150.0 L 92.5 145.0 L 86.25 141.25 L 80.0 137.5 L 77.5 136.25 L 80.0 136.25 L 91.25 135.0 L 108.75 131.25 L 125.0 128.75 L 131.25 128.75 L 125.0 138.75 L 111.25 151.25 L 98.75 161.25 L 92.5 166.25 L 96.25 163.75 L 111.25 150.0 L 128.75 132.5 " stroke="black" fill="none" stroke-width="6.0" stroke-linecap="round" stroke-linejoin="round" />
<path d="M 155.0 53.75 L 155.0 53.75 L 155.0 55.0 L 158.75 56.25 L 171.25 57.5 L 187.5 57.5 L 198.75 55.0 L 200.0 55.0 L 197.5 55.0 " stroke="black" fill="none" stroke-width="6.0" stroke-linecap="round" stroke-linejoin="round" />
<path d="M 141.25 87.5 L 141.25 87.5 L 141.25 87.5 L 143.75 86.25 L 158.75 80.0 L 182.5 68.75 L 196.25 60.0 L 198.75 57.5 L 187.5 62.5 L 175.0 70.0 L 163.75 80.0 L 157.5 90.0 L 153.75 103.75 L 153.75 117.5 L 153.75 120.0 " stroke="black" fill="none" stroke-width="6.0" stroke-linecap="round" stroke-linejoin="round" />
<path d="M 183.75 77.5 L 183.75 76.25 L 183.75 75.0 L 185.0 80.0 L 183.75 90.0 L 178.75 101.25 L 167.5 112.5 L 153.75 118.75 L 148.75 121.25 L 150.0 121.25 L 161.25 116.25 L 180.0 107.5 L 197.5 97.5 L 207.5 91.25 L 207.5 90.0 L 202.5 92.5 " stroke="black" fill="none" stroke-width="6.0" stroke-linecap="round" stroke-linejoin="round" />
<path d="M 148.75 151.25 L 148.75 151.25 L 148.75 151.25 L 157.5 148.75 L 183.75 135.0 L 206.25 118.75 L 212.5 108.75 L 208.75 106.25 L 200.0 108.75 L 191.25 110.0 L 185.0 110.0 L 183.75 110.0 L 183.75 110.0 L 186.25 115.0 L 187.5 132.5 L 187.5 152.5 L 182.5 168.75 " stroke="black" fill="none" stroke-width="6.0" stroke-linecap="round" stroke-linejoin="round" />
<path d="M 108.75 211.25 L 107.5 211.25 L 107.5 211.25 L 112.5 211.25 L 132.5 206.25 L 156.25 198.75 L 175.0 190.0 L 178.75 187.5 L 171.25 188.75 L 160.0 192.5 " stroke="black" fill="none" stroke-width="6.0" stroke-linecap="round" stroke-linejoin="round" />
<path d="M 123.75 243.75 L 123.75 243.75 L 127.5 242.5 L 141.25 233.75 L 161.25 220.0 L 172.5 211.25 L 172.5 206.25 L 162.5 206.25 " stroke="black" fill="none" stroke-width="6.0" stroke-linecap="round" stroke-linejoin="round" />
<path d="M 145.0 207.5 L 145.0 207.5 L 145.0 208.75 L 145.0 213.75 L 147.5 230.0 L 147.5 250.0 L 142.5 262.5 L 133.75 267.5 L 123.75 268.75 L 117.5 268.75 L 117.5 268.75 L 127.5 267.5 L 146.25 262.5 L 167.5 256.25 L 192.5 247.5 L 208.75 241.25 L 213.75 238.75 L 215.0 237.5 L 211.25 237.5 L 207.5 235.0 L 203.75 233.75 L 202.5 231.25 L 201.25 230.0 L 201.25 228.75 L 201.25 228.75 L 201.25 228.75 L 201.25 228.75 L 202.5 231.25 L 207.5 238.75 L 216.25 250.0 L 226.25 262.5 L 231.25 268.75 " stroke="black" fill="none" stroke-width="6.0" stroke-linecap="round" stroke-linejoin="round" />
</svg>