<svg xmlns="http://www.w3.org/2000/svg" width="300" height="300" viewBox="0 0 300 300">
<path d="M 78.75 136.25 L 76.25 136.25 L 71.25 136.25 L 70.0 136.25 L 76.25 136.25 L 87.5 136.25 L 98.75 137.5 L 107.5 142.5 L 108.75 151.25 L 100.0 167.5 L 86.25 183.75 L 70.0 196.25 L 58.75 200.0 L 57.5 198.75 L 65.0 191.25 L 78.75 177.5 L 92.5 163.75 L 105.0 153.75 L 110.0 152.5 L 108.75 162.5 L 101.25 183.75 L 93.75 203.75 L 91.25 211.25 L 93.75 208.75 L 103.75 190.0 L 117.5 163.75 L 121.25 156.25 " stroke="black" fill="none" stroke-width="6.0" stroke-linecap="round" stroke-linejoin="round" />
<path d="M 132.5 83.75 L 130.0 82.5 L 128.75 83.75 L 130.0 87.5 L 136.25 96.25 L 142.5 105.0 L 148.75 108.75 L 150.0 110.0 L 150.0 110.0 " stroke="black" fill="none" stroke-width="6.0" stroke-linecap="round" stroke-linejoin="round" />
<path d="M 135.0 95.0 L 133.75 93.75 L 131.25 91.25 L 133.75 87.5 L 146.25 81.25 L 167.5 73.75 L 190.0 70.0 L 203.75 68.75 L 205.0 71.25 L 197.5 78.75 L 186.25 87.5 L 172.5 97.5 L 160.0 102.5 L 150.0 103.75 " stroke="black" fill="none" stroke-width="6.0" stroke-linecap="round" stroke-linejoin="round" />
<path d="M 150.0 87.5 L 148.75 87.5 L 146.25 90.0 L 146.25 92.5 L 147.5 100.0 L 148.75 105.0 L 148.75 106.25 " stroke="black" fill="none" stroke-width="6.0" stroke-linecap="round" stroke-linejoin="round" />
<path d="M 172.5 76.25 L 172.5 76.25 L 170.0 80.0 L 166.25 87.5 L 161.25 96.25 L 152.5 111.25 L 150.0 116.25 L 148.75 116.25 L 153.75 112.5 L 162.5 105.0 L 173.75 98.75 L 182.5 92.5 L 185.0 90.0 " stroke="black" fill="none" stroke-width="6.0" stroke-linecap="round" stroke-linejoin="round" />
<path d="M 128.75 141.25 L 127.5 142.5 L 130.0 142.5 L 147.5 135.0 L 181.25 116.25 L 210.0 98.75 L 221.25 90.0 L 221.25 86.25 L 212.5 87.5 " stroke="black" fill="none" stroke-width="6.0" stroke-linecap="round" stroke-linejoin="round" />
<path d="M 158.75 136.25 L 157.5 147.5 L 158.75 156.25 L 163.75 162.5 L 166.25 166.25 L 167.5 167.5 L 165.0 166.25 L 161.25 163.75 L 156.25 160.0 L 153.75 156.25 L 153.75 151.25 L 158.75 146.25 L 170.0 140.0 L 185.0 133.75 L 197.5 131.25 L 201.25 131.25 L 195.0 138.75 L 182.5 150.0 L 168.75 161.25 L 153.75 173.75 L 150.0 177.5 L 153.75 176.25 L 166.25 167.5 L 177.5 158.75 L 186.25 152.5 L 188.75 151.25 L 182.5 161.25 L 168.75 185.0 L 155.0 211.25 L 147.5 227.5 L 146.25 231.25 L 150.0 221.25 " stroke="black" fill="none" stroke-width="6.0" stroke-linecap="round" stroke-linejoin="round" />
<path d="M 177.5 172.5 L 177.5 175.0 L 176.25 187.5 L 176.25 202.5 L 178.75 220.0 L 183.75 232.5 L 188.75 236.25 L 198.75 228.75 L 208.75 212.5 L 221.25 197.5 L 231.25 183.75 L 235.0 173.75 L 231.25 170.0 L 218.75 170.0 L 205.0 173.75 L 195.0 181.25 L 185.0 187.5 L 182.5 192.5 L 182.5 193.75 L 185.0 193.75 L 187.5 195.0 L 190.0 195.0 L 193.75 195.0 L 196.25 196.25 L 198.75 196.25 L 202.5 197.5 L 210.0 201.25 L 228.75 207.5 L 251.25 213.75 L 268.75 216.25 L 271.25 217.5 " stroke="black" fill="none" stroke-width="6.0" stroke-linecap="round" stroke-linejoin="round" />
</svg>