<svg xmlns="http://www.w3.org/2000/svg" width="300" height="300" viewBox="0 0 300 300">
<path d="M 75.0 108.75 L 70.0 112.5 L 67.5 113.75 L 71.25 113.75 L 83.75 113.75 L 95.0 111.25 L 105.0 107.5 L 110.0 103.75 L 110.0 103.75 " stroke="black" fill="none" stroke-width="6.0" stroke-linecap="round" stroke-linejoin="round" />
<path d="M 76.25 176.25 L 75.0 177.5 L 73.75 183.75 L 77.5 185.0 L 87.5 180.0 L 97.5 171.25 L 106.25 157.5 L 108.75 145.0 L 107.5 142.5 " stroke="black" fill="none" stroke-width="6.0" stroke-linecap="round" stroke-linejoin="round" />
<path d="M 82.5 141.25 L 85.0 145.0 L 87.5 151.25 L 92.5 167.5 L 93.75 188.75 L 91.25 206.25 L 82.5 215.0 L 73.75 220.0 L 68.75 221.25 L 67.5 221.25 L 76.25 218.75 L 88.75 212.5 L 102.5 202.5 L 116.25 191.25 " stroke="black" fill="none" stroke-width="6.0" stroke-linecap="round" stroke-linejoin="round" />
<path d="M 125.0 106.25 L 121.25 108.75 L 118.75 111.25 L 123.75 111.25 L 135.0 108.75 L 147.5 106.25 L 157.5 101.25 L 162.5 97.5 L 162.5 97.5 " stroke="black" fill="none" stroke-width="6.0" stroke-linecap="round" stroke-linejoin="round" />
<path d="M 126.25 146.25 L 125.0 147.5 L 125.0 148.75 L 133.75 145.0 L 146.25 137.5 L 156.25 128.75 L 160.0 125.0 L 156.25 130.0 L 147.5 151.25 L 136.25 181.25 L 126.25 206.25 L 121.25 212.5 L 121.25 206.25 " stroke="black" fill="none" stroke-width="6.0" stroke-linecap="round" stroke-linejoin="round" />
<path d="M 143.75 158.75 L 143.75 160.0 L 143.75 165.0 L 147.5 173.75 L 152.5 187.5 L 152.5 202.5 L 146.25 215.0 L 137.5 218.75 L 132.5 216.25 " stroke="black" fill="none" stroke-width="6.0" stroke-linecap="round" stroke-linejoin="round" />
<path d="M 176.25 82.5 L 177.5 80.0 L 177.5 80.0 L 177.5 85.0 L 180.0 100.0 L 183.75 113.75 L 191.25 120.0 L 203.75 117.5 L 213.75 106.25 L 223.75 97.5 L 226.25 90.0 L 222.5 90.0 L 220.0 90.0 " stroke="black" fill="none" stroke-width="6.0" stroke-linecap="round" stroke-linejoin="round" />
<path d="M 168.75 161.25 L 168.75 162.5 L 168.75 165.0 L 180.0 162.5 L 201.25 152.5 L 222.5 142.5 L 233.75 137.5 L 235.0 137.5 L 228.75 142.5 L 215.0 152.5 L 207.5 158.75 " stroke="black" fill="none" stroke-width="6.0" stroke-linecap="round" stroke-linejoin="round" />
<path d="M 202.5 156.25 L 202.5 160.0 L 202.5 165.0 L 202.5 178.75 L 202.5 196.25 L 202.5 205.0 " stroke="black" fill="none" stroke-width="6.0" stroke-linecap="round" stroke-linejoin="round" />
<path d="M 206.25 185.0 L 206.25 181.25 L 208.75 175.0 L 213.75 168.75 L 221.25 162.5 L 225.0 153.75 " stroke="black" fill="none" stroke-width="6.0" stroke-linecap="round" stroke-linejoin="round" />
<path d="M 177.5 161.25 L 173.75 167.5 L 171.25 182.5 L 171.25 201.25 L 171.25 216.25 L 171.25 226.25 L 168.75 226.25 " stroke="black" fill="none" stroke-width="6.0" stroke-linecap="round" stroke-linejoin="round" />
<path d="M 183.75 187.5 L 183.75 187.5 L 182.5 190.0 L 185.0 193.75 L 195.0 198.75 L 208.75 208.75 L 226.25 220.0 L 247.5 230.0 L 265.0 233.75 L 276.25 235.0 L 286.25 232.5 L 288.75 231.25 " stroke="black" fill="none" stroke-width="6.0" stroke-linecap="round" stroke-linejoin="round" />
</svg>