<svg xmlns="http://www.w3.org/2000/svg" width="300" height="300" viewBox="0 0 300 300">
<path d="M 86.25 127.5 L 83.75 127.5 L 82.5 127.5 L 83.75 130.0 L 96.25 136.25 L 108.75 143.75 L 117.5 152.5 L 113.75 163.75 L 98.75 176.25 L 78.75 187.5 L 60.0 193.75 L 52.5 193.75 L 55.0 190.0 L 70.0 176.25 L 87.5 161.25 L 105.0 150.0 L 115.0 148.75 L 111.25 168.75 L 100.0 200.0 L 88.75 226.25 L 85.0 237.5 L 90.0 231.25 L 105.0 206.25 L 125.0 175.0 L 141.25 141.25 L 146.25 113.75 L 146.25 102.5 L 143.75 101.25 L 142.5 103.75 L 142.5 112.5 L 142.5 130.0 L 143.75 150.0 L 147.5 165.0 L 151.25 172.5 L 151.25 173.75 " stroke="black" fill="none" stroke-width="6.0" stroke-linecap="round" stroke-linejoin="round" />
<path d="M 137.5 115.0 L 136.25 113.75 L 135.0 113.75 L 145.0 111.25 L 168.75 107.5 L 200.0 103.75 L 216.25 103.75 L 217.5 113.75 L 207.5 131.25 L 201.25 141.25 L 175.0 156.25 L 165.0 157.5 " stroke="black" fill="none" stroke-width="6.0" stroke-linecap="round" stroke-linejoin="round" />
<path d="M 143.75 153.75 L 141.25 153.75 L 140.0 153.75 L 145.0 148.75 L 162.5 140.0 L 186.25 126.25 L 202.5 115.0 L 201.25 113.75 " stroke="black" fill="none" stroke-width="6.0" stroke-linecap="round" stroke-linejoin="round" />
<path d="M 146.25 176.25 L 145.0 178.75 L 150.0 177.5 L 168.75 165.0 L 193.75 146.25 L 207.5 128.75 L 206.25 123.75 L 200.0 125.0 " stroke="black" fill="none" stroke-width="6.0" stroke-linecap="round" stroke-linejoin="round" />
<path d="M 173.75 118.75 L 173.75 116.25 L 173.75 113.75 L 173.75 117.5 L 176.25 142.5 L 177.5 187.5 L 176.25 225.0 L 175.0 245.0 L 170.0 250.0 L 163.75 247.5 " stroke="black" fill="none" stroke-width="6.0" stroke-linecap="round" stroke-linejoin="round" />
<path d="M 146.25 218.75 L 142.5 220.0 L 140.0 221.25 L 142.5 221.25 L 156.25 217.5 L 178.75 207.5 L 202.5 195.0 L 215.0 185.0 L 213.75 183.75 L 208.75 187.5 " stroke="black" fill="none" stroke-width="6.0" stroke-linecap="round" stroke-linejoin="round" />
<path d="M 146.25 261.25 L 145.0 263.75 L 150.0 263.75 L 170.0 257.5 L 198.75 246.25 L 218.75 237.5 L 228.75 235.0 L 231.25 235.0 L 231.25 235.0 L 227.5 237.5 L 225.0 238.75 " stroke="black" fill="none" stroke-width="6.0" stroke-linecap="round" stroke-linejoin="round" />
</svg>