<svg xmlns="http://www.w3.org/2000/svg" width="300" height="300" viewBox="0 0 300 300">
<path d="M 70.0 115.0 L 70.0 115.0 L 68.75 115.0 L 68.75 113.75 L 75.0 113.75 L 87.5 117.5 L 98.75 125.0 L 105.0 136.25 L 102.5 148.75 L 91.25 160.0 L 78.75 168.75 L 66.25 173.75 L 60.0 173.75 L 60.0 170.0 L 68.75 161.25 L 78.75 152.5 L 88.75 146.25 L 96.25 143.75 L 98.75 151.25 L 96.25 170.0 L 87.5 192.5 L 77.5 208.75 L 71.25 216.25 L 72.5 215.0 L 82.5 207.5 L 96.25 196.25 L 110.0 182.5 L 117.5 171.25 " stroke="black" fill="none" stroke-width="6.0" stroke-linecap="round" stroke-linejoin="round" />
<path d="M 173.75 52.5 L 173.75 52.5 L 172.5 52.5 L 171.25 53.75 L 173.75 66.25 L 178.75 83.75 L 182.5 97.5 L 183.75 102.5 L 185.0 100.0 L 183.75 93.75 " stroke="black" fill="none" stroke-width="6.0" stroke-linecap="round" stroke-linejoin="round" />
<path d="M 181.25 75.0 L 181.25 75.0 L 180.0 73.75 L 178.75 72.5 L 178.75 71.25 L 183.75 70.0 L 192.5 66.25 L 201.25 61.25 L 206.25 58.75 L 205.0 60.0 " stroke="black" fill="none" stroke-width="6.0" stroke-linecap="round" stroke-linejoin="round" />
<path d="M 151.25 102.5 L 151.25 103.75 L 150.0 106.25 L 150.0 110.0 L 151.25 118.75 L 155.0 131.25 L 158.75 140.0 L 158.75 141.25 L 158.75 140.0 L 157.5 135.0 L 156.25 130.0 L 155.0 126.25 L 153.75 123.75 L 153.75 121.25 L 161.25 117.5 L 180.0 110.0 L 200.0 101.25 L 212.5 96.25 L 213.75 95.0 L 212.5 95.0 L 206.25 101.25 L 200.0 107.5 L 193.75 113.75 L 188.75 120.0 L 185.0 122.5 L 182.5 123.75 L 182.5 123.75 L 181.25 126.25 L 177.5 135.0 L 167.5 153.75 L 153.75 175.0 L 146.25 190.0 L 145.0 193.75 L 145.0 191.25 " stroke="black" fill="none" stroke-width="6.0" stroke-linecap="round" stroke-linejoin="round" />
<path d="M 186.25 132.5 L 186.25 131.25 L 186.25 131.25 L 188.75 130.0 L 193.75 130.0 L 200.0 130.0 L 207.5 130.0 L 210.0 128.75 L 211.25 128.75 L 208.75 132.5 L 203.75 136.25 L 198.75 143.75 L 188.75 158.75 L 173.75 182.5 L 156.25 203.75 L 145.0 215.0 L 141.25 218.75 L 141.25 218.75 " stroke="black" fill="none" stroke-width="6.0" stroke-linecap="round" stroke-linejoin="round" />
<path d="M 192.5 157.5 L 193.75 157.5 L 200.0 157.5 L 210.0 157.5 L 226.25 157.5 L 245.0 157.5 L 255.0 160.0 L 256.25 161.25 L 246.25 163.75 L 243.75 163.75 " stroke="black" fill="none" stroke-width="6.0" stroke-linecap="round" stroke-linejoin="round" />
<path d="M 185.0 185.0 L 183.75 182.5 L 182.5 182.5 L 181.25 186.25 L 180.0 203.75 L 180.0 227.5 L 182.5 245.0 L 186.25 251.25 L 187.5 248.75 L 187.5 241.25 L 187.5 238.75 " stroke="black" fill="none" stroke-width="6.0" stroke-linecap="round" stroke-linejoin="round" />
<path d="M 183.75 193.75 L 183.75 191.25 L 182.5 188.75 L 182.5 186.25 L 188.75 183.75 L 200.0 180.0 L 211.25 178.75 L 218.75 187.5 L 221.25 206.25 L 221.25 227.5 L 218.75 243.75 L 217.5 251.25 L 213.75 253.75 L 210.0 252.5 L 208.75 250.0 " stroke="black" fill="none" stroke-width="6.0" stroke-linecap="round" stroke-linejoin="round" />
<path d="M 185.0 211.25 L 183.75 212.5 L 180.0 216.25 L 178.75 217.5 L 182.5 217.5 L 195.0 211.25 L 205.0 203.75 L 212.5 197.5 L 212.5 197.5 " stroke="black" fill="none" stroke-width="6.0" stroke-linecap="round" stroke-linejoin="round" />
<path d="M 185.0 235.0 L 185.0 235.0 L 181.25 237.5 L 182.5 238.75 L 192.5 233.75 L 206.25 223.75 L 215.0 216.25 L 216.25 213.75 " stroke="black" fill="none" stroke-width="6.0" stroke-linecap="round" stroke-linejoin="round" />
<path d="M 197.5 247.5 L 195.0 251.25 L 195.0 253.75 L 198.75 253.75 L 208.75 247.5 L 218.75 238.75 L 221.25 235.0 " stroke="black" fill="none" stroke-width="6.0" stroke-linecap="round" stroke-linejoin="round" />
</svg>