<svg xmlns="http://www.w3.org/2000/svg" width="300" height="300" viewBox="0 0 300 300">
<path d="M 81.25 115.0 L 80.0 116.25 L 75.0 117.5 L 75.0 118.75 L 82.5 123.75 L 96.25 128.75 L 107.5 135.0 L 111.25 143.75 L 105.0 156.25 L 91.25 171.25 L 76.25 182.5 L 63.75 187.5 L 61.25 187.5 L 66.25 177.5 L 81.25 160.0 L 95.0 145.0 L 106.25 137.5 L 110.0 143.75 L 106.25 167.5 L 96.25 198.75 L 88.75 222.5 L 86.25 228.75 L 91.25 222.5 L 102.5 206.25 L 117.5 186.25 L 128.75 168.75 " stroke="black" fill="none" stroke-width="6.0" stroke-linecap="round" stroke-linejoin="round" />
<path d="M 160.0 67.5 L 160.0 67.5 L 161.25 66.25 L 167.5 66.25 L 180.0 68.75 L 190.0 76.25 L 191.25 77.5 " stroke="black" fill="none" stroke-width="6.0" stroke-linecap="round" stroke-linejoin="round" />
<path d="M 142.5 105.0 L 141.25 108.75 L 140.0 116.25 L 146.25 136.25 L 151.25 156.25 L 156.25 167.5 L 157.5 167.5 L 156.25 166.25 " stroke="black" fill="none" stroke-width="6.0" stroke-linecap="round" stroke-linejoin="round" />
<path d="M 151.25 127.5 L 150.0 123.75 L 150.0 118.75 L 156.25 115.0 L 170.0 111.25 L 187.5 110.0 L 196.25 112.5 L 196.25 121.25 L 185.0 135.0 L 171.25 146.25 L 156.25 156.25 L 142.5 165.0 L 138.75 168.75 L 140.0 170.0 L 152.5 165.0 L 171.25 152.5 L 191.25 140.0 L 205.0 128.75 L 207.5 126.25 L 198.75 131.25 L 185.0 141.25 L 172.5 152.5 L 161.25 170.0 L 157.5 195.0 L 161.25 215.0 L 167.5 226.25 L 172.5 231.25 L 173.75 231.25 L 175.0 230.0 L 172.5 225.0 L 170.0 218.75 " stroke="black" fill="none" stroke-width="6.0" stroke-linecap="round" stroke-linejoin="round" />
<path d="M 163.75 182.5 L 166.25 180.0 L 170.0 175.0 L 183.75 168.75 L 201.25 165.0 L 211.25 166.25 L 213.75 176.25 L 206.25 193.75 L 197.5 206.25 L 186.25 215.0 L 173.75 218.75 L 163.75 218.75 L 158.75 215.0 L 157.5 212.5 L 157.5 211.25 L 160.0 207.5 L 168.75 202.5 L 180.0 195.0 L 193.75 185.0 L 203.75 175.0 L 206.25 173.75 " stroke="black" fill="none" stroke-width="6.0" stroke-linecap="round" stroke-linejoin="round" />
<path d="M 175.0 221.25 L 171.25 226.25 L 172.5 227.5 L 182.5 223.75 L 196.25 212.5 L 208.75 201.25 L 212.5 195.0 L 212.5 195.0 " stroke="black" fill="none" stroke-width="6.0" stroke-linecap="round" stroke-linejoin="round" />
<path d="M 156.25 250.0 L 155.0 252.5 L 155.0 253.75 L 165.0 253.75 L 190.0 243.75 L 216.25 233.75 L 238.75 225.0 L 251.25 223.75 L 256.25 222.5 L 256.25 221.25 L 248.75 218.75 " stroke="black" fill="none" stroke-width="6.0" stroke-linecap="round" stroke-linejoin="round" />
</svg>