<svg xmlns="http://www.w3.org/2000/svg" width="300" height="300" viewBox="0 0 300 300">
<path d="M 85.0 130.0 L 82.5 128.75 L 82.5 127.5 L 88.75 126.25 L 102.5 130.0 L 113.75 138.75 L 118.75 151.25 L 111.25 165.0 L 96.25 178.75 L 80.0 190.0 L 65.0 196.25 L 58.75 196.25 L 60.0 192.5 L 71.25 182.5 L 86.25 167.5 L 101.25 153.75 L 115.0 146.25 L 121.25 151.25 L 118.75 173.75 L 110.0 198.75 L 101.25 213.75 L 97.5 218.75 L 98.75 215.0 L 107.5 202.5 L 120.0 181.25 L 133.75 155.0 " stroke="black" fill="none" stroke-width="6.0" stroke-linecap="round" stroke-linejoin="round" />
<path d="M 156.25 90.0 L 155.0 90.0 L 151.25 90.0 L 152.5 87.5 L 165.0 87.5 L 182.5 87.5 L 200.0 87.5 L 208.75 87.5 L 211.25 87.5 L 202.5 92.5 L 190.0 101.25 L 173.75 110.0 L 157.5 120.0 L 153.75 123.75 L 157.5 123.75 L 171.25 120.0 L 188.75 110.0 L 203.75 100.0 L 210.0 93.75 L 205.0 93.75 L 195.0 98.75 L 190.0 100.0 " stroke="black" fill="none" stroke-width="6.0" stroke-linecap="round" stroke-linejoin="round" />
<path d="M 150.0 101.25 L 150.0 101.25 L 148.75 100.0 L 147.5 100.0 L 148.75 111.25 L 150.0 158.75 L 146.25 217.5 L 141.25 241.25 L 137.5 246.25 L 135.0 245.0 L 133.75 237.5 " stroke="black" fill="none" stroke-width="6.0" stroke-linecap="round" stroke-linejoin="round" />
<path d="M 147.5 152.5 L 147.5 152.5 L 147.5 152.5 L 155.0 151.25 L 176.25 143.75 L 202.5 133.75 L 218.75 123.75 L 222.5 118.75 L 218.75 118.75 L 208.75 123.75 " stroke="black" fill="none" stroke-width="6.0" stroke-linecap="round" stroke-linejoin="round" />
<path d="M 191.25 131.25 L 190.0 131.25 L 187.5 131.25 L 187.5 133.75 L 187.5 142.5 L 187.5 162.5 L 182.5 186.25 " stroke="black" fill="none" stroke-width="6.0" stroke-linecap="round" stroke-linejoin="round" />
<path d="M 156.25 185.0 L 155.0 183.75 L 153.75 183.75 L 153.75 182.5 L 155.0 182.5 L 158.75 182.5 L 162.5 185.0 L 166.25 188.75 L 170.0 193.75 L 175.0 202.5 L 181.25 213.75 L 186.25 225.0 L 191.25 231.25 L 192.5 232.5 L 192.5 232.5 L 190.0 228.75 L 183.75 225.0 L 176.25 218.75 L 168.75 213.75 L 163.75 207.5 L 162.5 203.75 L 168.75 198.75 L 183.75 191.25 L 202.5 183.75 L 218.75 177.5 L 227.5 175.0 L 230.0 180.0 L 223.75 192.5 L 213.75 206.25 L 202.5 218.75 L 195.0 230.0 L 193.75 232.5 L 198.75 232.5 L 211.25 226.25 L 230.0 215.0 L 247.5 203.75 L 253.75 197.5 " stroke="black" fill="none" stroke-width="6.0" stroke-linecap="round" stroke-linejoin="round" />
</svg>