<svg xmlns="http://www.w3.org/2000/svg" width="300" height="300" viewBox="0 0 300 300">
<path d="M 76.25 126.25 L 73.75 126.25 L 71.25 126.25 L 73.75 128.75 L 85.0 133.75 L 96.25 140.0 L 102.5 146.25 L 100.0 156.25 L 86.25 167.5 L 66.25 178.75 L 50.0 182.5 L 46.25 182.5 L 53.75 172.5 L 68.75 160.0 L 85.0 148.75 L 97.5 146.25 L 100.0 157.5 L 93.75 185.0 L 82.5 208.75 L 76.25 220.0 L 76.25 218.75 L 87.5 202.5 L 103.75 176.25 L 120.0 146.25 " stroke="black" fill="none" stroke-width="6.0" stroke-linecap="round" stroke-linejoin="round" />
<path d="M 143.75 76.25 L 142.5 76.25 L 140.0 76.25 L 140.0 76.25 L 145.0 76.25 L 153.75 80.0 L 161.25 82.5 L 162.5 87.5 L 156.25 92.5 " stroke="black" fill="none" stroke-width="6.0" stroke-linecap="round" stroke-linejoin="round" />
<path d="M 116.25 108.75 L 113.75 108.75 L 111.25 110.0 L 116.25 110.0 L 132.5 103.75 L 152.5 95.0 L 168.75 87.5 L 173.75 85.0 L 163.75 87.5 L 153.75 92.5 L 143.75 98.75 L 133.75 106.25 L 128.75 115.0 L 127.5 128.75 L 132.5 138.75 L 137.5 140.0 L 142.5 130.0 L 148.75 115.0 L 153.75 102.5 L 158.75 91.25 L 161.25 88.75 L 161.25 91.25 L 158.75 102.5 L 152.5 118.75 L 142.5 133.75 L 128.75 145.0 L 120.0 147.5 L 121.25 146.25 L 132.5 141.25 L 147.5 131.25 L 160.0 121.25 L 170.0 113.75 L 171.25 111.25 L 162.5 117.5 L 152.5 127.5 L 143.75 137.5 L 137.5 156.25 L 135.0 191.25 L 136.25 222.5 L 138.75 238.75 L 141.25 241.25 L 141.25 235.0 L 141.25 223.75 L 138.75 210.0 L 137.5 197.5 L 136.25 181.25 L 136.25 161.25 L 136.25 146.25 L 138.75 141.25 L 142.5 140.0 L 148.75 138.75 L 157.5 138.75 L 165.0 150.0 L 170.0 176.25 L 170.0 202.5 L 167.5 220.0 L 165.0 226.25 L 162.5 225.0 L 160.0 218.75 " stroke="black" fill="none" stroke-width="6.0" stroke-linecap="round" stroke-linejoin="round" />
<path d="M 141.25 182.5 L 137.5 181.25 L 133.75 180.0 L 135.0 178.75 L 146.25 172.5 L 160.0 163.75 L 173.75 156.25 L 175.0 155.0 L 167.5 160.0 " stroke="black" fill="none" stroke-width="6.0" stroke-linecap="round" stroke-linejoin="round" />
<path d="M 143.75 201.25 L 137.5 207.5 L 138.75 208.75 L 147.5 201.25 L 161.25 186.25 L 165.0 182.5 " stroke="black" fill="none" stroke-width="6.0" stroke-linecap="round" stroke-linejoin="round" />
<path d="M 202.5 106.25 L 201.25 107.5 L 192.5 108.75 L 187.5 108.75 L 187.5 108.75 L 198.75 105.0 L 211.25 98.75 L 221.25 93.75 L 226.25 91.25 L 222.5 92.5 L 212.5 95.0 L 203.75 95.0 L 197.5 95.0 L 192.5 90.0 L 191.25 87.5 L 191.25 87.5 L 191.25 97.5 L 191.25 117.5 L 191.25 133.75 L 193.75 138.75 L 200.0 136.25 L 207.5 130.0 L 216.25 122.5 L 222.5 118.75 L 226.25 117.5 L 222.5 125.0 L 211.25 137.5 L 200.0 151.25 L 192.5 161.25 L 191.25 163.75 L 196.25 162.5 L 207.5 153.75 L 218.75 146.25 L 227.5 140.0 L 231.25 138.75 L 226.25 146.25 L 217.5 167.5 L 210.0 200.0 L 208.75 227.5 L 217.5 243.75 L 236.25 243.75 L 252.5 238.75 L 262.5 230.0 L 266.25 222.5 L 265.0 217.5 L 261.25 213.75 " stroke="black" fill="none" stroke-width="6.0" stroke-linecap="round" stroke-linejoin="round" />
<path d="M 210.0 176.25 L 210.0 176.25 L 210.0 176.25 L 215.0 172.5 L 231.25 165.0 L 251.25 157.5 L 261.25 153.75 L 256.25 156.25 L 253.75 157.5 " stroke="black" fill="none" stroke-width="6.0" stroke-linecap="round" stroke-linejoin="round" />
<path d="M 212.5 190.0 L 211.25 190.0 L 210.0 191.25 L 212.5 191.25 L 227.5 186.25 L 246.25 177.5 L 256.25 170.0 L 256.25 170.0 " stroke="black" fill="none" stroke-width="6.0" stroke-linecap="round" stroke-linejoin="round" />
<path d="M 218.75 203.75 L 216.25 206.25 L 216.25 207.5 L 228.75 206.25 L 247.5 200.0 L 260.0 192.5 " stroke="black" fill="none" stroke-width="6.0" stroke-linecap="round" stroke-linejoin="round" />
</svg>