<svg xmlns="http://www.w3.org/2000/svg" width="300" height="300" viewBox="0 0 300 300">
<path d="M 52.5 121.25 L 52.5 122.5 L 50.0 125.0 L 52.5 125.0 L 67.5 118.75 L 83.75 111.25 L 97.5 101.25 L 101.25 93.75 " stroke="black" fill="none" stroke-width="6.0" stroke-linecap="round" stroke-linejoin="round" />
<path d="M 66.25 171.25 L 67.5 173.75 L 71.25 172.5 L 81.25 160.0 L 91.25 146.25 L 96.25 136.25 L 95.0 135.0 " stroke="black" fill="none" stroke-width="6.0" stroke-linecap="round" stroke-linejoin="round" />
<path d="M 73.75 137.5 L 73.75 137.5 L 75.0 140.0 L 80.0 148.75 L 85.0 172.5 L 85.0 196.25 L 77.5 210.0 L 67.5 216.25 L 60.0 218.75 L 58.75 218.75 L 62.5 216.25 L 75.0 211.25 L 90.0 206.25 L 103.75 202.5 L 117.5 198.75 L 123.75 195.0 " stroke="black" fill="none" stroke-width="6.0" stroke-linecap="round" stroke-linejoin="round" />
<path d="M 130.0 86.25 L 126.25 90.0 L 121.25 98.75 L 118.75 110.0 L 117.5 123.75 L 117.5 128.75 L 122.5 127.5 L 131.25 117.5 L 138.75 106.25 L 145.0 97.5 L 147.5 93.75 L 147.5 96.25 L 138.75 111.25 L 131.25 130.0 L 125.0 146.25 L 125.0 152.5 L 130.0 150.0 L 137.5 142.5 L 145.0 132.5 L 148.75 125.0 L 150.0 122.5 L 150.0 122.5 L 147.5 126.25 L 146.25 136.25 L 145.0 147.5 L 146.25 155.0 L 146.25 157.5 " stroke="black" fill="none" stroke-width="6.0" stroke-linecap="round" stroke-linejoin="round" />
<path d="M 198.75 78.75 L 198.75 78.75 L 197.5 78.75 L 195.0 80.0 L 192.5 91.25 L 190.0 110.0 L 188.75 121.25 L 191.25 123.75 L 200.0 116.25 L 207.5 103.75 L 213.75 95.0 L 216.25 90.0 L 215.0 91.25 L 208.75 101.25 L 202.5 115.0 L 200.0 125.0 L 198.75 130.0 L 203.75 127.5 L 213.75 118.75 L 222.5 110.0 L 226.25 107.5 L 225.0 111.25 L 216.25 126.25 L 210.0 133.75 " stroke="black" fill="none" stroke-width="6.0" stroke-linecap="round" stroke-linejoin="round" />
<path d="M 130.0 175.0 L 127.5 177.5 L 128.75 178.75 L 142.5 173.75 L 166.25 163.75 L 193.75 152.5 L 206.25 143.75 L 207.5 140.0 " stroke="black" fill="none" stroke-width="6.0" stroke-linecap="round" stroke-linejoin="round" />
<path d="M 160.0 171.25 L 152.5 187.5 L 147.5 206.25 L 145.0 220.0 L 145.0 227.5 L 145.0 222.5 L 146.25 220.0 " stroke="black" fill="none" stroke-width="6.0" stroke-linecap="round" stroke-linejoin="round" />
<path d="M 152.5 200.0 L 152.5 200.0 L 152.5 198.75 L 155.0 198.75 L 165.0 200.0 L 181.25 206.25 L 196.25 211.25 L 198.75 211.25 " stroke="black" fill="none" stroke-width="6.0" stroke-linecap="round" stroke-linejoin="round" />
<path d="M 167.5 100.0 L 166.25 100.0 L 163.75 97.5 L 167.5 100.0 L 180.0 120.0 L 200.0 162.5 L 216.25 205.0 L 230.0 231.25 L 241.25 246.25 L 250.0 251.25 L 252.5 252.5 L 253.75 251.25 L 255.0 246.25 L 253.75 237.5 L 247.5 221.25 L 241.25 203.75 L 236.25 182.5 L 235.0 177.5 " stroke="black" fill="none" stroke-width="6.0" stroke-linecap="round" stroke-linejoin="round" />
<path d="M 242.5 151.25 L 240.0 156.25 L 235.0 166.25 L 223.75 187.5 L 207.5 208.75 L 193.75 225.0 L 185.0 230.0 " stroke="black" fill="none" stroke-width="6.0" stroke-linecap="round" stroke-linejoin="round" />
<path d="M 237.5 112.5 L 237.5 112.5 L 238.75 113.75 L 247.5 122.5 L 260.0 138.75 L 266.25 150.0 " stroke="black" fill="none" stroke-width="6.0" stroke-linecap="round" stroke-linejoin="round" />
</svg>