<svg xmlns="http://www.w3.org/2000/svg" width="300" height="300" viewBox="0 0 300 300">
<path d="M 86.25 116.25 L 82.5 117.5 L 81.25 118.75 L 83.75 120.0 L 93.75 126.25 L 103.75 132.5 L 110.0 138.75 L 111.25 146.25 L 103.75 156.25 L 92.5 168.75 L 77.5 181.25 L 65.0 188.75 L 58.75 190.0 L 60.0 187.5 L 70.0 178.75 L 83.75 163.75 L 96.25 151.25 L 106.25 145.0 L 108.75 146.25 L 105.0 165.0 L 98.75 187.5 L 93.75 205.0 L 92.5 211.25 L 96.25 208.75 L 108.75 195.0 L 127.5 171.25 L 135.0 160.0 " stroke="black" fill="none" stroke-width="6.0" stroke-linecap="round" stroke-linejoin="round" />
<path d="M 171.25 63.75 L 170.0 63.75 L 167.5 62.5 L 165.0 63.75 L 165.0 70.0 L 165.0 75.0 L 165.0 78.75 L 170.0 78.75 L 177.5 75.0 L 186.25 70.0 L 192.5 66.25 L 195.0 65.0 L 191.25 72.5 L 178.75 88.75 L 162.5 106.25 L 148.75 120.0 L 145.0 123.75 " stroke="black" fill="none" stroke-width="6.0" stroke-linecap="round" stroke-linejoin="round" />
<path d="M 143.75 113.75 L 142.5 113.75 L 141.25 112.5 L 141.25 112.5 L 141.25 115.0 L 146.25 127.5 L 153.75 141.25 L 157.5 152.5 L 160.0 156.25 L 160.0 153.75 L 158.75 146.25 " stroke="black" fill="none" stroke-width="6.0" stroke-linecap="round" stroke-linejoin="round" />
<path d="M 151.25 123.75 L 147.5 123.75 L 146.25 123.75 L 151.25 121.25 L 165.0 113.75 L 183.75 106.25 L 201.25 101.25 L 207.5 100.0 L 207.5 107.5 L 200.0 121.25 L 191.25 135.0 L 181.25 141.25 L 172.5 143.75 L 168.75 142.5 " stroke="black" fill="none" stroke-width="6.0" stroke-linecap="round" stroke-linejoin="round" />
<path d="M 173.75 112.5 L 173.75 112.5 L 171.25 112.5 L 167.5 117.5 L 163.75 132.5 L 158.75 147.5 L 156.25 155.0 L 156.25 153.75 " stroke="black" fill="none" stroke-width="6.0" stroke-linecap="round" stroke-linejoin="round" />
<path d="M 173.75 121.25 L 173.75 121.25 L 175.0 118.75 L 178.75 117.5 L 191.25 117.5 L 203.75 117.5 L 211.25 117.5 L 211.25 117.5 " stroke="black" fill="none" stroke-width="6.0" stroke-linecap="round" stroke-linejoin="round" />
<path d="M 162.5 155.0 L 161.25 155.0 L 160.0 153.75 L 158.75 153.75 L 158.75 153.75 L 158.75 165.0 L 162.5 185.0 L 167.5 198.75 L 170.0 202.5 L 170.0 200.0 L 170.0 192.5 " stroke="black" fill="none" stroke-width="6.0" stroke-linecap="round" stroke-linejoin="round" />
<path d="M 163.75 153.75 L 163.75 153.75 L 161.25 153.75 L 161.25 151.25 L 168.75 146.25 L 181.25 138.75 L 191.25 135.0 L 198.75 135.0 L 201.25 147.5 L 201.25 170.0 L 201.25 191.25 L 201.25 203.75 L 201.25 206.25 L 198.75 205.0 L 196.25 201.25 L 195.0 200.0 " stroke="black" fill="none" stroke-width="6.0" stroke-linecap="round" stroke-linejoin="round" />
<path d="M 165.0 178.75 L 161.25 181.25 L 160.0 181.25 L 168.75 176.25 L 181.25 167.5 L 192.5 157.5 L 198.75 150.0 L 197.5 148.75 L 190.0 152.5 L 182.5 160.0 L 173.75 170.0 L 165.0 182.5 L 161.25 192.5 L 160.0 196.25 L 166.25 195.0 L 180.0 187.5 L 195.0 176.25 L 205.0 165.0 L 206.25 162.5 L 202.5 165.0 L 195.0 175.0 L 193.75 177.5 " stroke="black" fill="none" stroke-width="6.0" stroke-linecap="round" stroke-linejoin="round" />
<path d="M 168.75 210.0 L 166.25 213.75 L 165.0 213.75 L 172.5 210.0 L 185.0 200.0 L 195.0 191.25 L 200.0 186.25 L 197.5 187.5 L 187.5 201.25 L 172.5 221.25 L 157.5 243.75 L 147.5 258.75 L 146.25 262.5 L 150.0 257.5 L 157.5 250.0 L 165.0 242.5 L 173.75 235.0 L 183.75 226.25 L 195.0 216.25 L 205.0 206.25 L 213.75 198.75 L 216.25 197.5 L 216.25 200.0 L 213.75 208.75 L 206.25 225.0 L 198.75 240.0 L 191.25 252.5 L 182.5 258.75 L 177.5 258.75 L 175.0 253.75 " stroke="black" fill="none" stroke-width="6.0" stroke-linecap="round" stroke-linejoin="round" />
<path d="M 176.25 230.0 L 176.25 228.75 L 173.75 228.75 L 172.5 228.75 L 172.5 228.75 L 173.75 227.5 L 175.0 227.5 L 175.0 226.25 L 176.25 226.25 L 176.25 226.25 L 176.25 226.25 L 176.25 226.25 L 176.25 226.25 L 177.5 226.25 L 177.5 226.25 L 182.5 230.0 L 192.5 240.0 L 208.75 253.75 L 230.0 263.75 L 247.5 267.5 L 260.0 267.5 L 265.0 267.5 L 265.0 267.5 " stroke="black" fill="none" stroke-width="6.0" stroke-linecap="round" stroke-linejoin="round" />
</svg>