<svg xmlns="http://www.w3.org/2000/svg" width="300" height="300" viewBox="0 0 300 300">
<path d="M 95.0 82.5 L 93.75 83.75 L 92.5 85.0 L 95.0 85.0 L 103.75 85.0 L 106.25 85.0 L 121.25 78.75 L 128.75 76.25 L 133.75 72.5 L 137.5 70.0 L 138.75 68.75 " stroke="black" fill="none" stroke-width="6.0" stroke-linecap="round" stroke-linejoin="round" />
<path d="M 93.75 120.0 L 93.75 121.25 L 93.75 122.5 L 93.75 122.5 L 96.25 122.5 L 101.25 120.0 L 107.5 115.0 L 115.0 110.0 L 118.75 106.25 L 127.5 98.75 L 132.5 92.5 L 130.0 91.25 " stroke="black" fill="none" stroke-width="6.0" stroke-linecap="round" stroke-linejoin="round" />
<path d="M 108.75 90.0 L 110.0 91.25 L 112.5 92.5 L 112.5 93.75 L 115.0 95.0 L 115.0 97.5 L 117.5 103.75 L 118.75 120.0 L 116.25 135.0 L 110.0 143.75 L 103.75 146.25 L 102.5 146.25 L 96.25 147.5 L 95.0 147.5 L 95.0 147.5 L 96.25 147.5 L 100.0 146.25 L 105.0 145.0 L 112.5 142.5 L 120.0 138.75 L 127.5 136.25 L 131.25 133.75 L 141.25 127.5 L 145.0 125.0 L 146.25 122.5 " stroke="black" fill="none" stroke-width="6.0" stroke-linecap="round" stroke-linejoin="round" />
<path d="M 175.0 70.0 L 175.0 70.0 L 175.0 70.0 L 176.25 70.0 L 180.0 70.0 L 185.0 67.5 L 191.25 65.0 L 198.75 62.5 L 205.0 60.0 L 207.5 58.75 L 213.75 55.0 L 215.0 53.75 " stroke="black" fill="none" stroke-width="6.0" stroke-linecap="round" stroke-linejoin="round" />
<path d="M 168.75 105.0 L 168.75 106.25 L 168.75 106.25 L 170.0 106.25 L 173.75 106.25 L 180.0 102.5 L 183.75 101.25 L 195.0 93.75 L 207.5 85.0 L 211.25 80.0 L 205.0 78.75 L 197.5 78.75 L 193.75 78.75 L 191.25 78.75 L 188.75 78.75 L 186.25 77.5 L 186.25 76.25 L 186.25 75.0 L 186.25 75.0 L 186.25 73.75 L 190.0 76.25 L 193.75 86.25 L 195.0 101.25 L 193.75 113.75 L 192.5 117.5 L 186.25 127.5 L 183.75 130.0 L 181.25 130.0 L 180.0 130.0 L 178.75 130.0 L 178.75 128.75 L 181.25 127.5 L 183.75 126.25 L 191.25 122.5 L 201.25 115.0 L 211.25 107.5 L 217.5 100.0 L 217.5 98.75 " stroke="black" fill="none" stroke-width="6.0" stroke-linecap="round" stroke-linejoin="round" />
<path d="M 147.5 137.5 L 147.5 135.0 L 147.5 135.0 L 147.5 136.25 L 147.5 138.75 L 145.0 148.75 L 140.0 163.75 L 131.25 181.25 L 121.25 198.75 L 111.25 212.5 L 102.5 218.75 L 92.5 221.25 L 91.25 213.75 " stroke="black" fill="none" stroke-width="6.0" stroke-linecap="round" stroke-linejoin="round" />
<path d="M 151.25 133.75 L 160.0 132.5 L 180.0 138.75 L 205.0 150.0 L 223.75 165.0 L 240.0 176.25 L 247.5 183.75 L 246.25 186.25 L 242.5 188.75 " stroke="black" fill="none" stroke-width="6.0" stroke-linecap="round" stroke-linejoin="round" />
<path d="M 158.75 175.0 L 157.5 176.25 L 156.25 177.5 L 163.75 177.5 L 176.25 177.5 L 187.5 177.5 L 191.25 178.75 " stroke="black" fill="none" stroke-width="6.0" stroke-linecap="round" stroke-linejoin="round" />
<path d="M 173.75 205.0 L 191.25 201.25 L 202.5 200.0 L 203.75 203.75 L 197.5 217.5 L 185.0 236.25 L 170.0 248.75 L 153.75 256.25 L 151.25 256.25 " stroke="black" fill="none" stroke-width="6.0" stroke-linecap="round" stroke-linejoin="round" />
</svg>