<svg xmlns="http://www.w3.org/2000/svg" width="300" height="300" viewBox="0 0 300 300">
<path d="M 83.75 112.5 L 82.5 113.75 L 76.25 116.25 L 76.25 116.25 L 80.0 116.25 L 91.25 115.0 L 101.25 112.5 L 108.75 111.25 L 111.25 113.75 L 105.0 123.75 L 95.0 135.0 L 88.75 143.75 L 86.25 147.5 L 88.75 148.75 L 93.75 152.5 L 98.75 158.75 L 101.25 178.75 L 101.25 205.0 L 98.75 223.75 L 96.25 230.0 L 96.25 227.5 L 96.25 217.5 L 96.25 205.0 " stroke="black" fill="none" stroke-width="6.0" stroke-linecap="round" stroke-linejoin="round" />
<path d="M 101.25 172.5 L 101.25 172.5 L 98.75 173.75 L 101.25 172.5 L 111.25 165.0 L 125.0 156.25 L 135.0 148.75 L 133.75 146.25 " stroke="black" fill="none" stroke-width="6.0" stroke-linecap="round" stroke-linejoin="round" />
<path d="M 61.25 190.0 L 61.25 193.75 L 61.25 198.75 L 66.25 208.75 L 73.75 223.75 L 80.0 235.0 L 82.5 238.75 L 87.5 236.25 L 96.25 226.25 L 111.25 215.0 L 127.5 206.25 L 140.0 200.0 L 143.75 196.25 " stroke="black" fill="none" stroke-width="6.0" stroke-linecap="round" stroke-linejoin="round" />
<path d="M 148.75 106.25 L 143.75 110.0 L 138.75 111.25 L 141.25 111.25 L 157.5 103.75 L 180.0 95.0 L 201.25 86.25 L 211.25 78.75 L 210.0 77.5 L 201.25 80.0 L 191.25 83.75 L 181.25 86.25 L 171.25 88.75 L 166.25 90.0 L 165.0 92.5 L 165.0 106.25 L 168.75 130.0 L 172.5 146.25 L 177.5 150.0 L 186.25 147.5 L 193.75 138.75 L 201.25 127.5 L 205.0 118.75 L 206.25 112.5 L 206.25 111.25 L 206.25 111.25 L 206.25 117.5 L 208.75 127.5 L 210.0 138.75 L 208.75 150.0 " stroke="black" fill="none" stroke-width="6.0" stroke-linecap="round" stroke-linejoin="round" />
<path d="M 153.75 188.75 L 152.5 190.0 L 151.25 192.5 L 151.25 197.5 L 153.75 207.5 L 153.75 216.25 L 155.0 227.5 L 152.5 230.0 L 152.5 226.25 " stroke="black" fill="none" stroke-width="6.0" stroke-linecap="round" stroke-linejoin="round" />
<path d="M 171.25 182.5 L 172.5 181.25 L 172.5 181.25 L 176.25 181.25 L 178.75 193.75 L 180.0 211.25 L 180.0 226.25 L 180.0 235.0 L 180.0 235.0 " stroke="black" fill="none" stroke-width="6.0" stroke-linecap="round" stroke-linejoin="round" />
<path d="M 202.5 176.25 L 202.5 176.25 L 202.5 180.0 L 205.0 193.75 L 215.0 215.0 L 230.0 232.5 L 245.0 238.75 L 255.0 240.0 L 258.75 240.0 L 261.25 240.0 L 261.25 238.75 L 261.25 237.5 L 260.0 232.5 L 260.0 222.5 L 258.75 206.25 L 258.75 173.75 " stroke="black" fill="none" stroke-width="6.0" stroke-linecap="round" stroke-linejoin="round" />
</svg>