<svg xmlns="http://www.w3.org/2000/svg" width="300" height="300" viewBox="0 0 300 300">
<path d="M 115.0 81.25 L 113.75 81.25 L 111.25 81.25 L 111.25 86.25 L 113.75 107.5 L 117.5 131.25 L 120.0 142.5 L 121.25 143.75 L 120.0 140.0 " stroke="black" fill="none" stroke-width="6.0" stroke-linecap="round" stroke-linejoin="round" />
<path d="M 113.75 91.25 L 113.75 91.25 L 113.75 90.0 L 117.5 87.5 L 132.5 83.75 L 153.75 81.25 L 180.0 81.25 L 195.0 83.75 L 198.75 91.25 L 191.25 105.0 L 177.5 118.75 L 165.0 131.25 L 153.75 137.5 L 151.25 137.5 " stroke="black" fill="none" stroke-width="6.0" stroke-linecap="round" stroke-linejoin="round" />
<path d="M 130.0 113.75 L 126.25 113.75 L 123.75 115.0 L 128.75 113.75 L 141.25 111.25 L 156.25 106.25 L 166.25 101.25 L 168.75 98.75 " stroke="black" fill="none" stroke-width="6.0" stroke-linecap="round" stroke-linejoin="round" />
<path d="M 148.75 93.75 L 148.75 93.75 L 147.5 95.0 L 147.5 100.0 L 148.75 111.25 L 150.0 125.0 L 148.75 136.25 L 142.5 141.25 L 135.0 143.75 L 127.5 145.0 L 126.25 145.0 L 130.0 143.75 L 143.75 138.75 L 158.75 132.5 L 173.75 123.75 L 181.25 117.5 " stroke="black" fill="none" stroke-width="6.0" stroke-linecap="round" stroke-linejoin="round" />
<path d="M 103.75 178.75 L 103.75 178.75 L 102.5 181.25 L 103.75 182.5 L 121.25 180.0 L 148.75 171.25 L 178.75 157.5 L 197.5 147.5 L 200.0 143.75 L 197.5 142.5 " stroke="black" fill="none" stroke-width="6.0" stroke-linecap="round" stroke-linejoin="round" />
<path d="M 137.5 153.75 L 136.25 155.0 L 135.0 163.75 L 136.25 177.5 L 138.75 197.5 L 140.0 211.25 L 140.0 212.5 " stroke="black" fill="none" stroke-width="6.0" stroke-linecap="round" stroke-linejoin="round" />
<path d="M 166.25 146.25 L 166.25 146.25 L 168.75 148.75 L 171.25 156.25 L 172.5 171.25 L 166.25 191.25 L 155.0 205.0 L 141.25 211.25 L 123.75 217.5 L 108.75 221.25 L 105.0 222.5 L 106.25 222.5 L 120.0 220.0 L 143.75 213.75 L 167.5 205.0 L 192.5 195.0 L 206.25 187.5 L 207.5 185.0 " stroke="black" fill="none" stroke-width="6.0" stroke-linecap="round" stroke-linejoin="round" />
<path d="M 150.0 231.25 L 141.25 243.75 L 131.25 257.5 L 120.0 268.75 L 110.0 275.0 L 106.25 276.25 " stroke="black" fill="none" stroke-width="6.0" stroke-linecap="round" stroke-linejoin="round" />
<path d="M 183.75 225.0 L 188.75 228.75 L 196.25 235.0 L 206.25 245.0 L 215.0 256.25 L 222.5 265.0 L 227.5 270.0 L 228.75 272.5 L 228.75 275.0 L 226.25 277.5 " stroke="black" fill="none" stroke-width="6.0" stroke-linecap="round" stroke-linejoin="round" />
</svg>