<svg xmlns="http://www.w3.org/2000/svg" width="300" height="300" viewBox="0 0 300 300">
<path d="M 93.75 111.25 L 93.75 111.25 L 93.75 111.25 L 97.5 127.5 L 100.0 177.5 L 95.0 216.25 L 90.0 233.75 L 82.5 236.25 " stroke="black" fill="none" stroke-width="6.0" stroke-linecap="round" stroke-linejoin="round" />
<path d="M 117.5 97.5 L 118.75 97.5 L 130.0 95.0 L 153.75 90.0 L 183.75 85.0 L 207.5 85.0 L 218.75 90.0 L 227.5 110.0 L 228.75 148.75 L 228.75 193.75 L 233.75 238.75 L 238.75 256.25 L 242.5 263.75 L 242.5 265.0 L 242.5 265.0 L 237.5 258.75 L 227.5 247.5 L 212.5 231.25 L 197.5 211.25 L 182.5 196.25 " stroke="black" fill="none" stroke-width="6.0" stroke-linecap="round" stroke-linejoin="round" />
<path d="M 122.5 168.75 L 120.0 168.75 L 118.75 167.5 L 127.5 162.5 L 148.75 151.25 L 175.0 137.5 L 191.25 130.0 L 190.0 131.25 " stroke="black" fill="none" stroke-width="6.0" stroke-linecap="round" stroke-linejoin="round" />
<path d="M 128.75 210.0 L 128.75 211.25 L 128.75 211.25 L 140.0 201.25 L 158.75 183.75 L 187.5 152.5 L 191.25 140.0 L 186.25 138.75 " stroke="black" fill="none" stroke-width="6.0" stroke-linecap="round" stroke-linejoin="round" />
<path d="M 151.25 122.5 L 150.0 120.0 L 148.75 120.0 L 152.5 141.25 L 158.75 205.0 L 161.25 263.75 L 158.75 290.0 " stroke="black" fill="none" stroke-width="6.0" stroke-linecap="round" stroke-linejoin="round" />
</svg>