<svg xmlns="http://www.w3.org/2000/svg" width="300" height="300" viewBox="0 0 300 300">
<path d="M 82.5 95.0 L 81.25 93.75 L 77.5 92.5 L 77.5 92.5 L 77.5 106.25 L 81.25 127.5 L 91.25 141.25 L 103.75 142.5 L 116.25 131.25 L 123.75 117.5 L 125.0 108.75 L 120.0 105.0 L 107.5 105.0 L 95.0 107.5 L 82.5 112.5 L 72.5 117.5 L 71.25 118.75 L 77.5 118.75 L 92.5 111.25 L 112.5 101.25 L 130.0 92.5 L 133.75 90.0 " stroke="black" fill="none" stroke-width="6.0" stroke-linecap="round" stroke-linejoin="round" />
<path d="M 63.75 153.75 L 63.75 153.75 L 63.75 153.75 L 65.0 155.0 L 72.5 165.0 L 82.5 178.75 L 92.5 183.75 L 101.25 173.75 L 111.25 156.25 L 117.5 146.25 L 117.5 142.5 L 106.25 150.0 " stroke="black" fill="none" stroke-width="6.0" stroke-linecap="round" stroke-linejoin="round" />
<path d="M 61.25 221.25 L 61.25 221.25 L 65.0 221.25 L 83.75 211.25 L 111.25 192.5 L 131.25 178.75 L 136.25 172.5 L 128.75 175.0 L 123.75 177.5 " stroke="black" fill="none" stroke-width="6.0" stroke-linecap="round" stroke-linejoin="round" />
<path d="M 98.75 188.75 L 98.75 195.0 L 97.5 202.5 L 92.5 232.5 L 88.75 253.75 L 86.25 257.5 L 85.0 255.0 " stroke="black" fill="none" stroke-width="6.0" stroke-linecap="round" stroke-linejoin="round" />
<path d="M 102.5 205.0 L 105.0 205.0 L 108.75 205.0 L 118.75 211.25 L 135.0 227.5 L 151.25 242.5 L 158.75 243.75 " stroke="black" fill="none" stroke-width="6.0" stroke-linecap="round" stroke-linejoin="round" />
<path d="M 175.0 86.25 L 172.5 86.25 L 172.5 86.25 L 175.0 86.25 L 186.25 90.0 L 198.75 93.75 L 207.5 96.25 L 210.0 98.75 L 205.0 105.0 L 190.0 115.0 L 172.5 126.25 L 162.5 132.5 L 160.0 132.5 L 166.25 132.5 L 178.75 132.5 L 192.5 128.75 L 203.75 126.25 L 207.5 125.0 L 207.5 127.5 L 198.75 137.5 L 187.5 148.75 L 171.25 160.0 L 155.0 171.25 L 150.0 175.0 L 150.0 175.0 L 157.5 172.5 L 175.0 163.75 L 195.0 155.0 L 213.75 147.5 L 225.0 145.0 L 227.5 145.0 L 223.75 151.25 L 215.0 161.25 L 203.75 172.5 L 198.75 176.25 " stroke="black" fill="none" stroke-width="6.0" stroke-linecap="round" stroke-linejoin="round" />
<path d="M 188.75 171.25 L 188.75 172.5 L 185.0 178.75 L 185.0 191.25 L 185.0 206.25 L 187.5 218.75 L 188.75 225.0 L 188.75 225.0 L 188.75 223.75 " stroke="black" fill="none" stroke-width="6.0" stroke-linecap="round" stroke-linejoin="round" />
<path d="M 187.5 203.75 L 186.25 203.75 L 183.75 203.75 L 183.75 203.75 L 188.75 200.0 L 200.0 191.25 L 210.0 180.0 L 215.0 168.75 L 212.5 165.0 " stroke="black" fill="none" stroke-width="6.0" stroke-linecap="round" stroke-linejoin="round" />
<path d="M 158.75 173.75 L 153.75 180.0 L 152.5 196.25 L 152.5 226.25 L 152.5 247.5 L 152.5 253.75 L 152.5 255.0 L 152.5 250.0 " stroke="black" fill="none" stroke-width="6.0" stroke-linecap="round" stroke-linejoin="round" />
<path d="M 158.75 213.75 L 158.75 213.75 L 156.25 213.75 L 155.0 213.75 L 155.0 213.75 L 156.25 213.75 L 158.75 215.0 L 161.25 215.0 L 163.75 216.25 L 166.25 217.5 L 170.0 218.75 L 175.0 221.25 L 185.0 227.5 L 201.25 238.75 L 220.0 251.25 L 242.5 261.25 L 260.0 266.25 L 272.5 266.25 L 282.5 263.75 " stroke="black" fill="none" stroke-width="6.0" stroke-linecap="round" stroke-linejoin="round" />
</svg>