<svg xmlns="http://www.w3.org/2000/svg" width="300" height="300" viewBox="0 0 300 300">
<path d="M 81.25 151.25 L 80.0 151.25 L 80.0 151.25 L 88.75 151.25 L 121.25 147.5 L 163.75 137.5 L 193.75 130.0 L 203.75 125.0 L 201.25 125.0 L 196.25 125.0 " stroke="black" fill="none" stroke-width="6.0" stroke-linecap="round" stroke-linejoin="round" />
<path d="M 115.0 110.0 L 115.0 110.0 L 111.25 113.75 L 111.25 132.5 L 111.25 173.75 L 112.5 208.75 L 112.5 227.5 L 113.75 231.25 L 118.75 232.5 L 127.5 232.5 L 140.0 231.25 L 153.75 227.5 L 168.75 222.5 L 183.75 220.0 L 193.75 218.75 L 197.5 217.5 L 196.25 211.25 " stroke="black" fill="none" stroke-width="6.0" stroke-linecap="round" stroke-linejoin="round" />
<path d="M 192.5 90.0 L 192.5 90.0 L 192.5 90.0 L 193.75 102.5 L 195.0 148.75 L 192.5 193.75 L 187.5 215.0 L 183.75 218.75 " stroke="black" fill="none" stroke-width="6.0" stroke-linecap="round" stroke-linejoin="round" />
<path d="M 113.75 191.25 L 112.5 191.25 L 108.75 191.25 L 110.0 191.25 L 125.0 190.0 L 147.5 185.0 L 172.5 180.0 L 192.5 173.75 " stroke="black" fill="none" stroke-width="6.0" stroke-linecap="round" stroke-linejoin="round" />
</svg>