<svg xmlns="http://www.w3.org/2000/svg" width="300" height="300" viewBox="0 0 300 300">
<path d="M 123.75 60.0 L 123.75 60.0 L 126.25 60.0 L 132.5 60.0 L 141.25 62.5 L 150.0 67.5 L 151.25 72.5 " stroke="black" fill="none" stroke-width="6.0" stroke-linecap="round" stroke-linejoin="round" />
<path d="M 76.25 93.75 L 76.25 93.75 L 76.25 95.0 L 80.0 103.75 L 88.75 123.75 L 96.25 140.0 L 97.5 143.75 " stroke="black" fill="none" stroke-width="6.0" stroke-linecap="round" stroke-linejoin="round" />
<path d="M 93.75 101.25 L 93.75 101.25 L 95.0 101.25 L 107.5 98.75 L 140.0 93.75 L 175.0 91.25 L 195.0 91.25 L 196.25 93.75 L 182.5 100.0 L 163.75 105.0 L 145.0 108.75 L 132.5 110.0 " stroke="black" fill="none" stroke-width="6.0" stroke-linecap="round" stroke-linejoin="round" />
<path d="M 107.5 111.25 L 107.5 111.25 L 107.5 111.25 L 110.0 121.25 L 115.0 138.75 L 121.25 155.0 L 125.0 158.75 L 126.25 152.5 " stroke="black" fill="none" stroke-width="6.0" stroke-linecap="round" stroke-linejoin="round" />
<path d="M 137.5 125.0 L 137.5 125.0 L 137.5 126.25 L 142.5 133.75 L 156.25 140.0 L 191.25 135.0 L 193.75 130.0 L 182.5 128.75 L 163.75 130.0 L 147.5 133.75 L 138.75 136.25 L 141.25 136.25 L 156.25 130.0 L 176.25 118.75 L 183.75 113.75 " stroke="black" fill="none" stroke-width="6.0" stroke-linecap="round" stroke-linejoin="round" />
<path d="M 106.25 168.75 L 106.25 168.75 L 106.25 170.0 L 106.25 180.0 L 108.75 211.25 L 111.25 240.0 L 113.75 250.0 L 113.75 248.75 L 113.75 246.25 " stroke="black" fill="none" stroke-width="6.0" stroke-linecap="round" stroke-linejoin="round" />
<path d="M 116.25 175.0 L 116.25 173.75 L 117.5 170.0 L 131.25 163.75 L 155.0 157.5 L 181.25 156.25 L 197.5 167.5 L 202.5 193.75 L 202.5 226.25 L 205.0 258.75 L 207.5 267.5 L 208.75 268.75 L 208.75 267.5 L 206.25 261.25 L 201.25 251.25 L 190.0 237.5 L 183.75 230.0 " stroke="black" fill="none" stroke-width="6.0" stroke-linecap="round" stroke-linejoin="round" />
<path d="M 131.25 206.25 L 131.25 206.25 L 126.25 206.25 L 123.75 206.25 L 130.0 203.75 L 148.75 193.75 L 170.0 180.0 L 182.5 171.25 L 183.75 170.0 " stroke="black" fill="none" stroke-width="6.0" stroke-linecap="round" stroke-linejoin="round" />
<path d="M 127.5 242.5 L 127.5 242.5 L 131.25 241.25 L 147.5 225.0 L 171.25 201.25 L 181.25 185.0 L 178.75 178.75 L 170.0 178.75 " stroke="black" fill="none" stroke-width="6.0" stroke-linecap="round" stroke-linejoin="round" />
<path d="M 151.25 165.0 L 151.25 165.0 L 151.25 167.5 L 155.0 202.5 L 158.75 251.25 L 158.75 272.5 " stroke="black" fill="none" stroke-width="6.0" stroke-linecap="round" stroke-linejoin="round" />
</svg>