<svg xmlns="http://www.w3.org/2000/svg" width="300" height="300" viewBox="0 0 300 300">
<path d="M 83.75 136.25 L 82.5 135.0 L 80.0 133.75 L 80.0 133.75 L 82.5 146.25 L 90.0 178.75 L 96.25 212.5 L 101.25 230.0 L 106.25 231.25 L 106.25 220.0 L 106.25 216.25 " stroke="black" fill="none" stroke-width="6.0" stroke-linecap="round" stroke-linejoin="round" />
<path d="M 91.25 147.5 L 88.75 147.5 L 86.25 147.5 L 88.75 147.5 L 106.25 145.0 L 141.25 138.75 L 176.25 133.75 L 200.0 136.25 L 206.25 150.0 L 205.0 168.75 L 198.75 190.0 L 191.25 205.0 L 186.25 213.75 L 182.5 217.5 L 177.5 217.5 " stroke="black" fill="none" stroke-width="6.0" stroke-linecap="round" stroke-linejoin="round" />
<path d="M 100.0 195.0 L 95.0 195.0 L 90.0 195.0 L 90.0 196.25 L 100.0 195.0 L 127.5 188.75 L 157.5 182.5 L 182.5 175.0 L 188.75 170.0 L 187.5 168.75 " stroke="black" fill="none" stroke-width="6.0" stroke-linecap="round" stroke-linejoin="round" />
<path d="M 107.5 228.75 L 106.25 231.25 L 105.0 235.0 L 117.5 235.0 L 140.0 227.5 L 166.25 212.5 L 182.5 200.0 L 183.75 197.5 " stroke="black" fill="none" stroke-width="6.0" stroke-linecap="round" stroke-linejoin="round" />
<path d="M 143.75 85.0 L 142.5 85.0 L 141.25 83.75 L 141.25 92.5 L 145.0 135.0 L 147.5 177.5 L 148.75 203.75 L 148.75 207.5 " stroke="black" fill="none" stroke-width="6.0" stroke-linecap="round" stroke-linejoin="round" />
</svg>