<svg xmlns="http://www.w3.org/2000/svg" width="300" height="300" viewBox="0 0 300 300">
<path d="M 86.25 117.5 L 86.25 117.5 L 85.0 116.25 L 85.0 120.0 L 91.25 142.5 L 98.75 173.75 L 106.25 191.25 L 112.5 193.75 L 113.75 185.0 " stroke="black" fill="none" stroke-width="6.0" stroke-linecap="round" stroke-linejoin="round" />
<path d="M 91.25 128.75 L 88.75 127.5 L 87.5 126.25 L 97.5 121.25 L 126.25 113.75 L 166.25 107.5 L 202.5 107.5 L 216.25 115.0 L 218.75 130.0 L 212.5 148.75 L 201.25 165.0 L 190.0 178.75 L 176.25 186.25 L 168.75 187.5 " stroke="black" fill="none" stroke-width="6.0" stroke-linecap="round" stroke-linejoin="round" />
<path d="M 107.5 160.0 L 107.5 160.0 L 107.5 160.0 L 112.5 160.0 L 133.75 155.0 L 163.75 147.5 L 188.75 140.0 L 196.25 137.5 L 193.75 137.5 " stroke="black" fill="none" stroke-width="6.0" stroke-linecap="round" stroke-linejoin="round" />
<path d="M 117.5 195.0 L 117.5 196.25 L 118.75 197.5 L 133.75 196.25 L 158.75 185.0 L 186.25 171.25 L 195.0 160.0 " stroke="black" fill="none" stroke-width="6.0" stroke-linecap="round" stroke-linejoin="round" />
<path d="M 153.75 71.25 L 153.75 71.25 L 152.5 70.0 L 152.5 68.75 L 152.5 80.0 L 156.25 131.25 L 156.25 193.75 L 156.25 237.5 L 155.0 262.5 L 151.25 273.75 L 142.5 278.75 L 140.0 278.75 " stroke="black" fill="none" stroke-width="6.0" stroke-linecap="round" stroke-linejoin="round" />
</svg>