<svg xmlns="http://www.w3.org/2000/svg" width="300" height="300" viewBox="0 0 300 300">
<path d="M 100.0 81.25 L 100.0 81.25 L 98.75 80.0 L 97.5 80.0 L 97.5 85.0 L 103.75 102.5 L 110.0 125.0 L 115.0 137.5 L 116.25 140.0 L 115.0 140.0 " stroke="black" fill="none" stroke-width="6.0" stroke-linecap="round" stroke-linejoin="round" />
<path d="M 106.25 81.25 L 106.25 81.25 L 106.25 81.25 L 117.5 76.25 L 143.75 71.25 L 175.0 70.0 L 198.75 72.5 L 206.25 81.25 L 202.5 95.0 L 191.25 112.5 L 176.25 127.5 L 162.5 133.75 L 153.75 133.75 " stroke="black" fill="none" stroke-width="6.0" stroke-linecap="round" stroke-linejoin="round" />
<path d="M 122.5 116.25 L 120.0 118.75 L 122.5 118.75 L 136.25 113.75 L 153.75 107.5 L 175.0 97.5 L 188.75 90.0 L 185.0 87.5 L 182.5 87.5 " stroke="black" fill="none" stroke-width="6.0" stroke-linecap="round" stroke-linejoin="round" />
<path d="M 147.5 88.75 L 147.5 95.0 L 150.0 102.5 L 152.5 112.5 L 153.75 123.75 L 150.0 132.5 L 141.25 138.75 L 128.75 142.5 L 117.5 146.25 L 115.0 146.25 L 125.0 146.25 L 142.5 142.5 L 161.25 136.25 L 178.75 128.75 L 191.25 122.5 L 192.5 120.0 " stroke="black" fill="none" stroke-width="6.0" stroke-linecap="round" stroke-linejoin="round" />
<path d="M 80.0 175.0 L 75.0 180.0 L 78.75 180.0 L 96.25 178.75 L 126.25 170.0 L 163.75 157.5 L 190.0 147.5 L 200.0 142.5 L 195.0 141.25 " stroke="black" fill="none" stroke-width="6.0" stroke-linecap="round" stroke-linejoin="round" />
<path d="M 118.75 183.75 L 113.75 196.25 L 112.5 216.25 L 116.25 240.0 L 122.5 248.75 L 135.0 250.0 L 150.0 240.0 L 161.25 223.75 L 175.0 207.5 L 187.5 193.75 L 197.5 181.25 L 203.75 167.5 L 203.75 165.0 L 198.75 168.75 L 187.5 180.0 L 171.25 195.0 L 155.0 210.0 L 138.75 225.0 L 130.0 230.0 L 130.0 225.0 " stroke="black" fill="none" stroke-width="6.0" stroke-linecap="round" stroke-linejoin="round" />
<path d="M 153.75 190.0 L 153.75 190.0 L 152.5 190.0 L 151.25 190.0 L 151.25 190.0 L 155.0 191.25 L 163.75 197.5 L 177.5 208.75 L 195.0 223.75 L 211.25 237.5 L 222.5 243.75 L 230.0 245.0 L 232.5 245.0 " stroke="black" fill="none" stroke-width="6.0" stroke-linecap="round" stroke-linejoin="round" />
</svg>