<svg xmlns="http://www.w3.org/2000/svg" width="300" height="300" viewBox="0 0 300 300">
<path d="M 92.5 81.25 L 90.0 81.25 L 87.5 83.75 L 88.75 98.75 L 93.75 137.5 L 98.75 168.75 L 103.75 180.0 L 103.75 176.25 L 102.5 173.75 " stroke="black" fill="none" stroke-width="6.0" stroke-linecap="round" stroke-linejoin="round" />
<path d="M 97.5 102.5 L 96.25 101.25 L 96.25 101.25 L 111.25 98.75 L 145.0 92.5 L 180.0 88.75 L 197.5 92.5 L 200.0 106.25 L 188.75 130.0 L 171.25 150.0 L 155.0 161.25 L 145.0 163.75 L 142.5 163.75 " stroke="black" fill="none" stroke-width="6.0" stroke-linecap="round" stroke-linejoin="round" />
<path d="M 95.0 142.5 L 95.0 142.5 L 93.75 142.5 L 102.5 138.75 L 130.0 128.75 L 158.75 116.25 L 176.25 107.5 L 177.5 107.5 " stroke="black" fill="none" stroke-width="6.0" stroke-linecap="round" stroke-linejoin="round" />
<path d="M 103.75 178.75 L 100.0 183.75 L 108.75 181.25 L 135.0 166.25 L 163.75 147.5 L 183.75 132.5 L 187.5 125.0 L 186.25 125.0 " stroke="black" fill="none" stroke-width="6.0" stroke-linecap="round" stroke-linejoin="round" />
<path d="M 146.25 101.25 L 146.25 101.25 L 145.0 100.0 L 143.75 98.75 L 143.75 100.0 L 143.75 112.5 L 145.0 138.75 L 145.0 176.25 L 145.0 213.75 L 146.25 238.75 L 146.25 250.0 L 143.75 253.75 L 140.0 253.75 L 136.25 253.75 " stroke="black" fill="none" stroke-width="6.0" stroke-linecap="round" stroke-linejoin="round" />
</svg>