<svg xmlns="http://www.w3.org/2000/svg" width="300" height="300" viewBox="0 0 300 300">
<path d="M 131.25 73.75 L 131.25 73.75 L 132.5 73.75 L 138.75 77.5 L 151.25 81.25 L 163.75 83.75 L 165.0 86.25 " stroke="black" fill="none" stroke-width="6.0" stroke-linecap="round" stroke-linejoin="round" />
<path d="M 93.75 106.25 L 92.5 106.25 L 88.75 107.5 L 92.5 107.5 L 111.25 105.0 L 138.75 96.25 L 162.5 88.75 L 170.0 86.25 L 162.5 87.5 L 150.0 91.25 L 137.5 95.0 L 122.5 101.25 L 110.0 112.5 L 107.5 135.0 L 111.25 173.75 L 112.5 213.75 L 110.0 235.0 L 105.0 247.5 L 96.25 253.75 L 87.5 251.25 L 80.0 240.0 " stroke="black" fill="none" stroke-width="6.0" stroke-linecap="round" stroke-linejoin="round" />
<path d="M 75.0 158.75 L 75.0 158.75 L 72.5 158.75 L 72.5 158.75 L 76.25 158.75 L 90.0 157.5 L 107.5 155.0 L 111.25 153.75 " stroke="black" fill="none" stroke-width="6.0" stroke-linecap="round" stroke-linejoin="round" />
<path d="M 76.25 195.0 L 73.75 196.25 L 70.0 198.75 L 80.0 197.5 L 101.25 185.0 L 128.75 165.0 " stroke="black" fill="none" stroke-width="6.0" stroke-linecap="round" stroke-linejoin="round" />
<path d="M 156.25 130.0 L 153.75 130.0 L 156.25 131.25 L 173.75 133.75 L 193.75 136.25 L 206.25 140.0 L 207.5 146.25 L 196.25 156.25 L 180.0 166.25 L 160.0 173.75 L 143.75 178.75 L 140.0 180.0 L 141.25 177.5 L 146.25 173.75 L 155.0 167.5 L 168.75 158.75 L 183.75 152.5 L 196.25 148.75 L 196.25 148.75 " stroke="black" fill="none" stroke-width="6.0" stroke-linecap="round" stroke-linejoin="round" />
<path d="M 150.0 196.25 L 143.75 201.25 L 142.5 201.25 L 153.75 190.0 L 170.0 173.75 L 185.0 157.5 L 186.25 150.0 " stroke="black" fill="none" stroke-width="6.0" stroke-linecap="round" stroke-linejoin="round" />
<path d="M 145.0 143.75 L 143.75 146.25 L 142.5 157.5 L 142.5 195.0 L 143.75 235.0 L 147.5 255.0 L 152.5 257.5 L 162.5 255.0 L 178.75 240.0 L 197.5 221.25 L 213.75 201.25 L 227.5 186.25 L 231.25 180.0 L 228.75 178.75 L 221.25 180.0 L 213.75 182.5 L 207.5 185.0 L 203.75 187.5 L 200.0 188.75 L 198.75 188.75 L 197.5 190.0 L 196.25 190.0 L 195.0 190.0 L 193.75 191.25 L 191.25 191.25 L 187.5 192.5 L 185.0 192.5 L 182.5 192.5 L 180.0 193.75 L 178.75 193.75 L 178.75 193.75 L 178.75 193.75 L 178.75 193.75 L 178.75 193.75 L 178.75 193.75 L 178.75 193.75 L 177.5 193.75 L 176.25 193.75 L 173.75 193.75 L 172.5 193.75 L 171.25 195.0 L 171.25 195.0 L 171.25 195.0 L 170.0 195.0 L 170.0 195.0 L 175.0 196.25 L 186.25 202.5 L 203.75 215.0 L 225.0 231.25 L 242.5 243.75 " stroke="black" fill="none" stroke-width="6.0" stroke-linecap="round" stroke-linejoin="round" />
</svg>