<svg xmlns="http://www.w3.org/2000/svg" width="300" height="300" viewBox="0 0 300 300">
<path d="M 128.75 76.25 L 125.0 76.25 L 123.75 76.25 L 128.75 76.25 L 145.0 75.0 L 163.75 75.0 L 185.0 78.75 L 193.75 85.0 L 188.75 95.0 L 172.5 106.25 L 155.0 116.25 L 142.5 118.75 " stroke="black" fill="none" stroke-width="6.0" stroke-linecap="round" stroke-linejoin="round" />
<path d="M 93.75 102.5 L 90.0 105.0 L 91.25 105.0 L 111.25 103.75 L 136.25 100.0 L 186.25 88.75 L 212.5 83.75 L 216.25 82.5 L 208.75 86.25 L 193.75 93.75 L 185.0 96.25 " stroke="black" fill="none" stroke-width="6.0" stroke-linecap="round" stroke-linejoin="round" />
<path d="M 110.0 133.75 L 110.0 133.75 L 112.5 133.75 L 133.75 128.75 L 163.75 117.5 L 185.0 108.75 L 190.0 106.25 L 183.75 107.5 " stroke="black" fill="none" stroke-width="6.0" stroke-linecap="round" stroke-linejoin="round" />
<path d="M 111.25 152.5 L 111.25 152.5 L 113.75 152.5 L 131.25 148.75 L 157.5 140.0 L 176.25 133.75 L 175.0 135.0 " stroke="black" fill="none" stroke-width="6.0" stroke-linecap="round" stroke-linejoin="round" />
<path d="M 122.5 168.75 L 120.0 168.75 L 117.5 171.25 L 131.25 165.0 L 155.0 152.5 L 186.25 136.25 L 200.0 125.0 L 198.75 122.5 " stroke="black" fill="none" stroke-width="6.0" stroke-linecap="round" stroke-linejoin="round" />
<path d="M 151.25 68.75 L 148.75 66.25 L 147.5 66.25 L 147.5 72.5 L 151.25 105.0 L 152.5 152.5 L 150.0 180.0 " stroke="black" fill="none" stroke-width="6.0" stroke-linecap="round" stroke-linejoin="round" />
<path d="M 108.75 182.5 L 107.5 182.5 L 105.0 183.75 L 107.5 191.25 L 116.25 208.75 L 126.25 226.25 L 133.75 236.25 L 135.0 237.5 L 131.25 233.75 " stroke="black" fill="none" stroke-width="6.0" stroke-linecap="round" stroke-linejoin="round" />
<path d="M 112.5 200.0 L 111.25 200.0 L 108.75 200.0 L 108.75 200.0 L 125.0 197.5 L 152.5 192.5 L 186.25 186.25 L 205.0 186.25 L 208.75 192.5 L 200.0 206.25 L 186.25 220.0 L 170.0 232.5 L 155.0 237.5 " stroke="black" fill="none" stroke-width="6.0" stroke-linecap="round" stroke-linejoin="round" />
<path d="M 125.0 220.0 L 123.75 220.0 L 123.75 220.0 L 131.25 218.75 L 147.5 211.25 L 168.75 202.5 L 186.25 195.0 L 186.25 193.75 " stroke="black" fill="none" stroke-width="6.0" stroke-linecap="round" stroke-linejoin="round" />
<path d="M 161.25 191.25 L 161.25 192.5 L 158.75 195.0 L 157.5 203.75 L 155.0 218.75 L 151.25 232.5 L 146.25 240.0 L 140.0 241.25 L 136.25 240.0 L 135.0 238.75 L 133.75 238.75 L 133.75 237.5 L 135.0 237.5 L 136.25 237.5 L 136.25 237.5 L 136.25 237.5 L 136.25 237.5 L 136.25 237.5 L 136.25 237.5 L 136.25 237.5 L 136.25 237.5 L 136.25 237.5 L 136.25 237.5 L 137.5 237.5 L 143.75 237.5 L 157.5 235.0 L 175.0 231.25 L 187.5 230.0 L 188.75 230.0 " stroke="black" fill="none" stroke-width="6.0" stroke-linecap="round" stroke-linejoin="round" />
<path d="M 90.0 265.0 L 87.5 265.0 L 86.25 265.0 L 92.5 265.0 L 112.5 262.5 L 146.25 257.5 L 181.25 252.5 L 206.25 252.5 L 220.0 252.5 L 226.25 252.5 L 230.0 251.25 L 231.25 251.25 L 232.5 251.25 L 236.25 251.25 L 238.75 250.0 " stroke="black" fill="none" stroke-width="6.0" stroke-linecap="round" stroke-linejoin="round" />
</svg>