<svg xmlns="http://www.w3.org/2000/svg" width="300" height="300" viewBox="0 0 300 300">
<path d="M 68.75 130.0 L 66.25 130.0 L 65.0 133.75 L 67.5 148.75 L 75.0 178.75 L 81.25 198.75 L 83.75 202.5 L 83.75 201.25 " stroke="black" fill="none" stroke-width="6.0" stroke-linecap="round" stroke-linejoin="round" />
<path d="M 65.0 148.75 L 62.5 148.75 L 61.25 147.5 L 67.5 142.5 L 85.0 133.75 L 100.0 127.5 L 122.5 128.75 L 128.75 142.5 L 122.5 162.5 L 110.0 181.25 L 100.0 192.5 L 93.75 195.0 L 91.25 192.5 L 90.0 187.5 L 90.0 180.0 L 88.75 176.25 L 87.5 176.25 L 83.75 177.5 L 78.75 182.5 L 76.25 185.0 L 76.25 185.0 L 86.25 175.0 L 97.5 160.0 L 107.5 146.25 L 108.75 141.25 L 107.5 141.25 " stroke="black" fill="none" stroke-width="6.0" stroke-linecap="round" stroke-linejoin="round" />
<path d="M 92.5 142.5 L 91.25 142.5 L 90.0 143.75 L 91.25 152.5 L 93.75 168.75 L 93.75 188.75 L 92.5 202.5 L 88.75 207.5 L 86.25 210.0 L 86.25 211.25 L 86.25 211.25 L 90.0 208.75 L 97.5 201.25 L 107.5 187.5 L 115.0 176.25 " stroke="black" fill="none" stroke-width="6.0" stroke-linecap="round" stroke-linejoin="round" />
<path d="M 158.75 90.0 L 157.5 90.0 L 155.0 90.0 L 155.0 92.5 L 157.5 100.0 L 161.25 111.25 L 163.75 120.0 L 163.75 120.0 " stroke="black" fill="none" stroke-width="6.0" stroke-linecap="round" stroke-linejoin="round" />
<path d="M 211.25 73.75 L 211.25 73.75 L 211.25 75.0 L 210.0 82.5 L 202.5 95.0 L 188.75 111.25 L 170.0 126.25 L 153.75 136.25 L 146.25 145.0 L 146.25 148.75 L 152.5 150.0 L 167.5 146.25 L 188.75 136.25 L 208.75 121.25 L 222.5 110.0 L 223.75 105.0 L 218.75 106.25 " stroke="black" fill="none" stroke-width="6.0" stroke-linecap="round" stroke-linejoin="round" />
<path d="M 145.0 188.75 L 145.0 188.75 L 145.0 187.5 L 151.25 183.75 L 173.75 171.25 L 200.0 156.25 L 213.75 145.0 L 217.5 137.5 L 212.5 136.25 " stroke="black" fill="none" stroke-width="6.0" stroke-linecap="round" stroke-linejoin="round" />
<path d="M 177.5 71.25 L 177.5 70.0 L 177.5 70.0 L 176.25 70.0 L 176.25 70.0 L 176.25 72.5 L 180.0 80.0 L 187.5 105.0 L 191.25 155.0 L 191.25 201.25 L 188.75 226.25 L 185.0 240.0 L 181.25 248.75 L 173.75 252.5 L 167.5 252.5 " stroke="black" fill="none" stroke-width="6.0" stroke-linecap="round" stroke-linejoin="round" />
</svg>