<svg xmlns="http://www.w3.org/2000/svg" width="300" height="300" viewBox="0 0 300 300">
<path d="M 95.0 90.0 L 92.5 90.0 L 91.25 90.0 L 93.75 90.0 L 105.0 90.0 L 116.25 90.0 L 121.25 93.75 L 115.0 108.75 L 97.5 131.25 L 78.75 147.5 L 63.75 151.25 L 58.75 146.25 L 58.75 142.5 " stroke="black" fill="none" stroke-width="6.0" stroke-linecap="round" stroke-linejoin="round" />
<path d="M 73.75 115.0 L 73.75 115.0 L 73.75 115.0 L 73.75 116.25 L 78.75 122.5 L 91.25 132.5 " stroke="black" fill="none" stroke-width="6.0" stroke-linecap="round" stroke-linejoin="round" />
<path d="M 135.0 78.75 L 135.0 77.5 L 133.75 76.25 L 136.25 76.25 L 150.0 87.5 L 177.5 112.5 L 208.75 138.75 L 232.5 152.5 L 253.75 162.5 L 262.5 167.5 L 260.0 168.75 L 251.25 168.75 " stroke="black" fill="none" stroke-width="6.0" stroke-linecap="round" stroke-linejoin="round" />
<path d="M 186.25 86.25 L 186.25 83.75 L 183.75 78.75 L 182.5 77.5 L 181.25 82.5 L 178.75 97.5 L 175.0 111.25 L 175.0 112.5 " stroke="black" fill="none" stroke-width="6.0" stroke-linecap="round" stroke-linejoin="round" />
<path d="M 208.75 81.25 L 208.75 81.25 L 208.75 81.25 L 203.75 88.75 L 197.5 103.75 " stroke="black" fill="none" stroke-width="6.0" stroke-linecap="round" stroke-linejoin="round" />
<path d="M 105.0 151.25 L 103.75 152.5 L 102.5 153.75 L 107.5 152.5 L 125.0 146.25 L 150.0 135.0 L 167.5 126.25 L 172.5 125.0 L 163.75 130.0 " stroke="black" fill="none" stroke-width="6.0" stroke-linecap="round" stroke-linejoin="round" />
<path d="M 116.25 166.25 L 116.25 170.0 L 116.25 182.5 L 122.5 198.75 L 130.0 210.0 L 135.0 213.75 L 135.0 212.5 L 132.5 206.25 L 127.5 200.0 L 122.5 193.75 L 116.25 187.5 L 112.5 181.25 L 112.5 176.25 L 123.75 168.75 L 141.25 162.5 L 155.0 160.0 L 162.5 160.0 L 161.25 167.5 L 152.5 182.5 L 138.75 196.25 L 123.75 208.75 L 118.75 211.25 L 120.0 210.0 L 132.5 201.25 L 145.0 191.25 L 156.25 181.25 L 161.25 176.25 L 158.75 177.5 L 150.0 185.0 L 141.25 197.5 L 133.75 215.0 L 130.0 243.75 L 131.25 261.25 L 136.25 266.25 L 140.0 262.5 L 143.75 252.5 " stroke="black" fill="none" stroke-width="6.0" stroke-linecap="round" stroke-linejoin="round" />
<path d="M 165.0 200.0 L 166.25 198.75 L 170.0 196.25 L 171.25 197.5 L 170.0 210.0 L 162.5 230.0 L 152.5 250.0 L 141.25 261.25 L 128.75 265.0 L 117.5 266.25 L 113.75 265.0 L 112.5 265.0 L 112.5 263.75 L 117.5 263.75 L 130.0 263.75 L 148.75 262.5 L 172.5 258.75 L 196.25 253.75 L 212.5 251.25 L 216.25 246.25 " stroke="black" fill="none" stroke-width="6.0" stroke-linecap="round" stroke-linejoin="round" />
</svg>