<svg xmlns="http://www.w3.org/2000/svg" width="300" height="300" viewBox="0 0 300 300">
<path d="M 81.25 86.25 L 80.0 86.25 L 78.75 86.25 L 80.0 86.25 L 87.5 86.25 L 100.0 81.25 L 113.75 76.25 L 120.0 73.75 L 121.25 72.5 L 117.5 75.0 L 110.0 82.5 L 102.5 95.0 L 95.0 113.75 L 88.75 128.75 L 87.5 132.5 L 87.5 131.25 L 93.75 126.25 L 102.5 120.0 L 112.5 115.0 L 118.75 112.5 L 120.0 113.75 L 115.0 121.25 L 105.0 133.75 L 95.0 143.75 L 87.5 152.5 L 85.0 155.0 L 90.0 153.75 L 103.75 146.25 L 120.0 138.75 L 131.25 135.0 L 133.75 136.25 L 126.25 146.25 L 110.0 160.0 L 96.25 170.0 L 85.0 173.75 " stroke="black" fill="none" stroke-width="6.0" stroke-linecap="round" stroke-linejoin="round" />
<path d="M 76.25 97.5 L 72.5 101.25 L 71.25 116.25 L 72.5 145.0 L 76.25 170.0 L 83.75 183.75 L 96.25 183.75 L 112.5 178.75 L 136.25 166.25 L 155.0 155.0 L 161.25 148.75 " stroke="black" fill="none" stroke-width="6.0" stroke-linecap="round" stroke-linejoin="round" />
<path d="M 167.5 85.0 L 167.5 85.0 L 166.25 83.75 L 166.25 87.5 L 163.75 116.25 L 158.75 150.0 L 158.75 162.5 L 157.5 160.0 L 156.25 152.5 " stroke="black" fill="none" stroke-width="6.0" stroke-linecap="round" stroke-linejoin="round" />
<path d="M 156.25 123.75 L 156.25 121.25 L 155.0 118.75 L 155.0 115.0 L 161.25 111.25 L 175.0 103.75 L 191.25 95.0 L 201.25 88.75 L 200.0 87.5 L 190.0 93.75 L 187.5 95.0 " stroke="black" fill="none" stroke-width="6.0" stroke-linecap="round" stroke-linejoin="round" />
<path d="M 160.0 127.5 L 160.0 130.0 L 161.25 131.25 L 170.0 131.25 L 187.5 125.0 L 202.5 116.25 L 207.5 111.25 " stroke="black" fill="none" stroke-width="6.0" stroke-linecap="round" stroke-linejoin="round" />
<path d="M 91.25 213.75 L 91.25 213.75 L 87.5 211.25 L 87.5 210.0 L 90.0 211.25 L 100.0 223.75 L 112.5 242.5 L 122.5 256.25 L 126.25 261.25 L 122.5 257.5 L 120.0 256.25 " stroke="black" fill="none" stroke-width="6.0" stroke-linecap="round" stroke-linejoin="round" />
<path d="M 95.0 211.25 L 95.0 210.0 L 95.0 210.0 L 98.75 207.5 L 125.0 202.5 L 162.5 195.0 L 192.5 188.75 L 203.75 188.75 L 203.75 196.25 L 192.5 211.25 L 175.0 230.0 L 155.0 246.25 L 140.0 255.0 L 136.25 256.25 " stroke="black" fill="none" stroke-width="6.0" stroke-linecap="round" stroke-linejoin="round" />
<path d="M 130.0 210.0 L 130.0 210.0 L 128.75 208.75 L 128.75 215.0 L 128.75 233.75 L 130.0 252.5 L 131.25 256.25 " stroke="black" fill="none" stroke-width="6.0" stroke-linecap="round" stroke-linejoin="round" />
<path d="M 151.25 203.75 L 151.25 205.0 L 151.25 210.0 L 148.75 222.5 L 145.0 241.25 L 137.5 256.25 L 125.0 263.75 L 108.75 267.5 L 93.75 272.5 L 87.5 273.75 L 86.25 273.75 L 90.0 273.75 L 101.25 268.75 L 120.0 262.5 L 143.75 255.0 L 170.0 248.75 L 198.75 247.5 L 216.25 250.0 L 226.25 252.5 L 232.5 253.75 L 233.75 253.75 L 232.5 253.75 L 228.75 253.75 " stroke="black" fill="none" stroke-width="6.0" stroke-linecap="round" stroke-linejoin="round" />
</svg>