<svg xmlns="http://www.w3.org/2000/svg" width="300" height="300" viewBox="0 0 300 300">
<path d="M 123.75 83.75 L 122.5 83.75 L 120.0 83.75 L 122.5 83.75 L 135.0 83.75 L 151.25 82.5 L 163.75 78.75 L 165.0 78.75 " stroke="black" fill="none" stroke-width="6.0" stroke-linecap="round" stroke-linejoin="round" />
<path d="M 113.75 121.25 L 113.75 123.75 L 113.75 135.0 L 118.75 153.75 L 126.25 176.25 L 132.5 187.5 L 133.75 187.5 L 133.75 185.0 " stroke="black" fill="none" stroke-width="6.0" stroke-linecap="round" stroke-linejoin="round" />
<path d="M 126.25 133.75 L 126.25 132.5 L 126.25 130.0 L 133.75 125.0 L 150.0 118.75 L 171.25 116.25 L 185.0 121.25 L 185.0 136.25 L 171.25 155.0 L 155.0 167.5 L 142.5 173.75 L 131.25 172.5 L 123.75 163.75 L 122.5 156.25 L 122.5 151.25 L 125.0 150.0 L 131.25 146.25 L 143.75 141.25 L 158.75 133.75 L 172.5 126.25 L 173.75 126.25 " stroke="black" fill="none" stroke-width="6.0" stroke-linecap="round" stroke-linejoin="round" />
<path d="M 131.25 180.0 L 130.0 182.5 L 127.5 185.0 L 135.0 181.25 L 151.25 166.25 L 171.25 150.0 L 177.5 142.5 " stroke="black" fill="none" stroke-width="6.0" stroke-linecap="round" stroke-linejoin="round" />
<path d="M 132.5 208.75 L 132.5 208.75 L 131.25 210.0 L 132.5 210.0 L 145.0 203.75 L 167.5 190.0 L 185.0 177.5 L 187.5 173.75 L 181.25 176.25 " stroke="black" fill="none" stroke-width="6.0" stroke-linecap="round" stroke-linejoin="round" />
<path d="M 133.75 236.25 L 133.75 236.25 L 140.0 233.75 L 160.0 217.5 L 183.75 198.75 L 188.75 191.25 " stroke="black" fill="none" stroke-width="6.0" stroke-linecap="round" stroke-linejoin="round" />
<path d="M 156.25 198.75 L 156.25 200.0 L 156.25 201.25 L 160.0 211.25 L 161.25 232.5 L 157.5 250.0 L 148.75 260.0 L 133.75 262.5 L 117.5 263.75 L 105.0 265.0 L 103.75 265.0 L 108.75 265.0 L 126.25 265.0 L 150.0 262.5 L 177.5 258.75 L 210.0 253.75 L 233.75 248.75 L 246.25 247.5 L 248.75 247.5 " stroke="black" fill="none" stroke-width="6.0" stroke-linecap="round" stroke-linejoin="round" />
</svg>