<svg xmlns="http://www.w3.org/2000/svg" width="300" height="300" viewBox="0 0 300 300">
<path d="M 71.25 106.25 L 62.5 106.25 L 58.75 106.25 L 61.25 106.25 L 72.5 106.25 L 86.25 103.75 L 96.25 100.0 L 102.5 97.5 L 102.5 96.25 L 96.25 100.0 L 87.5 106.25 L 81.25 115.0 L 77.5 132.5 L 77.5 167.5 L 81.25 206.25 L 85.0 216.25 L 87.5 217.5 L 87.5 215.0 L 87.5 207.5 L 87.5 198.75 L 86.25 191.25 L 83.75 182.5 L 81.25 173.75 L 80.0 163.75 L 80.0 157.5 L 80.0 153.75 L 80.0 153.75 L 80.0 153.75 L 83.75 152.5 L 90.0 148.75 L 97.5 146.25 L 105.0 148.75 L 110.0 162.5 L 112.5 183.75 L 112.5 201.25 L 108.75 210.0 L 103.75 211.25 L 102.5 210.0 " stroke="black" fill="none" stroke-width="6.0" stroke-linecap="round" stroke-linejoin="round" />
<path d="M 86.25 181.25 L 82.5 182.5 L 81.25 182.5 L 86.25 181.25 L 96.25 172.5 L 105.0 162.5 L 110.0 156.25 " stroke="black" fill="none" stroke-width="6.0" stroke-linecap="round" stroke-linejoin="round" />
<path d="M 93.75 210.0 L 92.5 211.25 L 90.0 213.75 L 93.75 211.25 L 103.75 201.25 L 111.25 191.25 " stroke="black" fill="none" stroke-width="6.0" stroke-linecap="round" stroke-linejoin="round" />
<path d="M 153.75 75.0 L 153.75 73.75 L 153.75 71.25 L 155.0 70.0 L 161.25 71.25 L 171.25 76.25 L 181.25 81.25 L 187.5 85.0 L 185.0 88.75 " stroke="black" fill="none" stroke-width="6.0" stroke-linecap="round" stroke-linejoin="round" />
<path d="M 140.0 127.5 L 133.75 133.75 L 132.5 135.0 L 137.5 133.75 L 150.0 126.25 L 163.75 113.75 L 178.75 103.75 L 186.25 98.75 L 181.25 108.75 L 168.75 132.5 L 156.25 155.0 L 150.0 167.5 L 151.25 168.75 L 160.0 161.25 L 175.0 150.0 L 192.5 136.25 L 207.5 123.75 L 213.75 118.75 L 213.75 118.75 L 208.75 125.0 L 202.5 140.0 L 193.75 167.5 L 182.5 205.0 L 168.75 232.5 L 158.75 243.75 L 151.25 243.75 L 145.0 238.75 L 145.0 236.25 " stroke="black" fill="none" stroke-width="6.0" stroke-linecap="round" stroke-linejoin="round" />
<path d="M 147.5 188.75 L 146.25 187.5 L 145.0 185.0 L 143.75 185.0 L 143.75 185.0 L 145.0 185.0 L 146.25 185.0 L 148.75 185.0 L 150.0 186.25 L 151.25 186.25 L 151.25 186.25 L 152.5 186.25 L 152.5 186.25 L 153.75 187.5 L 155.0 188.75 L 161.25 193.75 L 176.25 206.25 L 198.75 223.75 L 220.0 238.75 L 241.25 246.25 L 255.0 248.75 L 261.25 251.25 " stroke="black" fill="none" stroke-width="6.0" stroke-linecap="round" stroke-linejoin="round" />
</svg>