<svg xmlns="http://www.w3.org/2000/svg" width="300" height="300" viewBox="0 0 300 300">
<path d="M 101.25 107.5 L 102.5 108.75 L 102.5 108.75 L 106.25 107.5 L 117.5 100.0 L 128.75 90.0 L 135.0 85.0 L 132.5 83.75 " stroke="black" fill="none" stroke-width="6.0" stroke-linecap="round" stroke-linejoin="round" />
<path d="M 91.25 87.5 L 91.25 87.5 L 90.0 87.5 L 90.0 90.0 L 91.25 103.75 L 93.75 128.75 L 96.25 142.5 L 98.75 145.0 L 106.25 141.25 L 120.0 133.75 L 133.75 125.0 L 145.0 117.5 L 150.0 108.75 L 151.25 106.25 " stroke="black" fill="none" stroke-width="6.0" stroke-linecap="round" stroke-linejoin="round" />
<path d="M 170.0 90.0 L 170.0 90.0 L 170.0 90.0 L 171.25 87.5 L 178.75 78.75 L 187.5 68.75 L 192.5 62.5 L 190.0 61.25 " stroke="black" fill="none" stroke-width="6.0" stroke-linecap="round" stroke-linejoin="round" />
<path d="M 160.0 60.0 L 160.0 63.75 L 158.75 70.0 L 160.0 88.75 L 166.25 113.75 L 180.0 128.75 L 196.25 130.0 L 208.75 125.0 L 221.25 117.5 L 233.75 110.0 L 240.0 106.25 L 243.75 103.75 L 243.75 100.0 L 243.75 92.5 L 242.5 82.5 L 236.25 67.5 L 231.25 56.25 " stroke="black" fill="none" stroke-width="6.0" stroke-linecap="round" stroke-linejoin="round" />
<path d="M 118.75 168.75 L 118.75 170.0 L 116.25 171.25 L 117.5 171.25 L 128.75 170.0 L 145.0 160.0 L 158.75 148.75 L 167.5 142.5 L 166.25 141.25 L 156.25 148.75 L 147.5 160.0 L 140.0 173.75 L 135.0 195.0 L 133.75 225.0 L 138.75 248.75 L 142.5 253.75 L 145.0 253.75 L 145.0 252.5 L 142.5 247.5 L 140.0 242.5 " stroke="black" fill="none" stroke-width="6.0" stroke-linecap="round" stroke-linejoin="round" />
<path d="M 133.75 201.25 L 133.75 201.25 L 133.75 200.0 L 137.5 197.5 L 147.5 192.5 L 166.25 186.25 L 187.5 183.75 L 198.75 192.5 L 200.0 212.5 L 197.5 235.0 L 192.5 250.0 L 186.25 255.0 L 180.0 253.75 " stroke="black" fill="none" stroke-width="6.0" stroke-linecap="round" stroke-linejoin="round" />
<path d="M 145.0 223.75 L 143.75 223.75 L 142.5 225.0 L 143.75 225.0 L 153.75 220.0 L 175.0 208.75 L 192.5 200.0 L 197.5 198.75 L 195.0 200.0 " stroke="black" fill="none" stroke-width="6.0" stroke-linecap="round" stroke-linejoin="round" />
<path d="M 146.25 260.0 L 145.0 262.5 L 145.0 263.75 L 152.5 263.75 L 172.5 256.25 L 192.5 246.25 L 195.0 243.75 " stroke="black" fill="none" stroke-width="6.0" stroke-linecap="round" stroke-linejoin="round" />
</svg>