<svg xmlns="http://www.w3.org/2000/svg" width="300" height="300" viewBox="0 0 300 300">
<path d="M 123.75 85.0 L 122.5 85.0 L 120.0 85.0 L 120.0 86.25 L 128.75 85.0 L 146.25 80.0 L 165.0 73.75 L 177.5 68.75 L 177.5 67.5 " stroke="black" fill="none" stroke-width="6.0" stroke-linecap="round" stroke-linejoin="round" />
<path d="M 145.0 92.5 L 143.75 95.0 L 141.25 107.5 L 140.0 135.0 L 140.0 156.25 L 140.0 162.5 L 141.25 160.0 L 142.5 152.5 L 142.5 151.25 " stroke="black" fill="none" stroke-width="6.0" stroke-linecap="round" stroke-linejoin="round" />
<path d="M 143.75 112.5 L 142.5 110.0 L 141.25 106.25 L 143.75 102.5 L 150.0 101.25 L 161.25 98.75 L 173.75 100.0 L 182.5 108.75 L 183.75 123.75 L 178.75 140.0 L 170.0 148.75 L 161.25 152.5 L 158.75 152.5 " stroke="black" fill="none" stroke-width="6.0" stroke-linecap="round" stroke-linejoin="round" />
<path d="M 145.0 132.5 L 143.75 132.5 L 141.25 132.5 L 141.25 132.5 L 146.25 131.25 L 157.5 126.25 L 170.0 120.0 L 177.5 115.0 L 178.75 115.0 " stroke="black" fill="none" stroke-width="6.0" stroke-linecap="round" stroke-linejoin="round" />
<path d="M 147.5 152.5 L 146.25 156.25 L 146.25 156.25 L 153.75 155.0 L 166.25 150.0 L 175.0 143.75 " stroke="black" fill="none" stroke-width="6.0" stroke-linecap="round" stroke-linejoin="round" />
<path d="M 86.25 193.75 L 85.0 193.75 L 80.0 195.0 L 80.0 195.0 L 91.25 195.0 L 117.5 190.0 L 150.0 183.75 L 186.25 176.25 L 208.75 168.75 L 213.75 163.75 L 211.25 161.25 L 202.5 161.25 " stroke="black" fill="none" stroke-width="6.0" stroke-linecap="round" stroke-linejoin="round" />
<path d="M 153.75 171.25 L 152.5 175.0 L 150.0 182.5 L 145.0 197.5 L 133.75 218.75 L 113.75 241.25 L 95.0 252.5 L 82.5 255.0 L 75.0 255.0 L 73.75 247.5 L 76.25 242.5 " stroke="black" fill="none" stroke-width="6.0" stroke-linecap="round" stroke-linejoin="round" />
<path d="M 165.0 182.5 L 171.25 181.25 L 180.0 181.25 L 191.25 183.75 L 205.0 190.0 L 220.0 200.0 L 235.0 208.75 L 242.5 212.5 L 241.25 213.75 L 238.75 213.75 " stroke="black" fill="none" stroke-width="6.0" stroke-linecap="round" stroke-linejoin="round" />
<path d="M 135.0 236.25 L 132.5 237.5 L 132.5 238.75 L 145.0 237.5 L 166.25 231.25 L 190.0 222.5 L 205.0 213.75 L 203.75 210.0 " stroke="black" fill="none" stroke-width="6.0" stroke-linecap="round" stroke-linejoin="round" />
<path d="M 155.0 202.5 L 155.0 201.25 L 155.0 201.25 L 156.25 201.25 L 161.25 217.5 L 165.0 255.0 L 162.5 293.75 L 155.0 312.5 " stroke="black" fill="none" stroke-width="6.0" stroke-linecap="round" stroke-linejoin="round" />
</svg>