<svg xmlns="http://www.w3.org/2000/svg" width="300" height="300" viewBox="0 0 300 300">
<path d="M 95.0 78.75 L 92.5 80.0 L 91.25 80.0 L 92.5 80.0 L 102.5 80.0 L 113.75 80.0 L 120.0 81.25 L 116.25 91.25 L 96.25 112.5 L 73.75 133.75 L 53.75 146.25 L 43.75 148.75 L 43.75 147.5 L 45.0 141.25 " stroke="black" fill="none" stroke-width="6.0" stroke-linecap="round" stroke-linejoin="round" />
<path d="M 71.25 96.25 L 71.25 95.0 L 71.25 91.25 L 71.25 91.25 L 71.25 92.5 L 77.5 100.0 L 87.5 110.0 L 97.5 117.5 " stroke="black" fill="none" stroke-width="6.0" stroke-linecap="round" stroke-linejoin="round" />
<path d="M 153.75 70.0 L 152.5 70.0 L 147.5 68.75 L 145.0 68.75 L 146.25 70.0 L 161.25 80.0 L 187.5 101.25 L 215.0 127.5 L 241.25 143.75 L 253.75 146.25 L 256.25 142.5 L 252.5 140.0 " stroke="black" fill="none" stroke-width="6.0" stroke-linecap="round" stroke-linejoin="round" />
<path d="M 191.25 65.0 L 190.0 65.0 L 183.75 68.75 L 175.0 81.25 L 167.5 98.75 L 167.5 103.75 L 167.5 103.75 " stroke="black" fill="none" stroke-width="6.0" stroke-linecap="round" stroke-linejoin="round" />
<path d="M 211.25 66.25 L 211.25 66.25 L 206.25 70.0 L 197.5 86.25 L 188.75 101.25 " stroke="black" fill="none" stroke-width="6.0" stroke-linecap="round" stroke-linejoin="round" />
<path d="M 88.75 150.0 L 88.75 150.0 L 87.5 150.0 L 87.5 150.0 L 91.25 152.5 L 101.25 153.75 L 111.25 156.25 L 115.0 157.5 L 112.5 163.75 L 102.5 173.75 L 93.75 182.5 L 91.25 187.5 L 92.5 188.75 L 102.5 186.25 L 112.5 183.75 L 120.0 182.5 L 120.0 186.25 L 111.25 197.5 L 100.0 211.25 L 90.0 221.25 L 86.25 226.25 L 87.5 226.25 L 97.5 220.0 L 111.25 215.0 L 122.5 213.75 L 126.25 221.25 L 118.75 238.75 L 105.0 252.5 L 93.75 257.5 L 88.75 251.25 L 90.0 233.75 L 91.25 227.5 " stroke="black" fill="none" stroke-width="6.0" stroke-linecap="round" stroke-linejoin="round" />
<path d="M 152.5 137.5 L 151.25 137.5 L 150.0 136.25 L 148.75 137.5 L 147.5 148.75 L 147.5 163.75 L 147.5 177.5 L 148.75 180.0 " stroke="black" fill="none" stroke-width="6.0" stroke-linecap="round" stroke-linejoin="round" />
<path d="M 152.5 142.5 L 151.25 141.25 L 148.75 138.75 L 148.75 136.25 L 156.25 135.0 L 171.25 132.5 L 186.25 131.25 L 192.5 132.5 L 191.25 140.0 L 180.0 153.75 L 167.5 167.5 L 158.75 178.75 L 157.5 182.5 L 162.5 181.25 L 173.75 173.75 L 186.25 165.0 L 195.0 157.5 L 198.75 155.0 L 193.75 166.25 L 180.0 185.0 L 165.0 206.25 L 150.0 225.0 L 147.5 230.0 L 150.0 228.75 L 160.0 218.75 L 175.0 206.25 L 190.0 196.25 L 200.0 191.25 L 201.25 196.25 L 192.5 210.0 L 178.75 228.75 L 162.5 246.25 L 147.5 255.0 L 142.5 256.25 " stroke="black" fill="none" stroke-width="6.0" stroke-linecap="round" stroke-linejoin="round" />
<path d="M 145.0 212.5 L 142.5 212.5 L 140.0 212.5 L 140.0 212.5 L 140.0 213.75 L 143.75 216.25 L 147.5 218.75 L 150.0 220.0 L 152.5 222.5 L 155.0 223.75 L 157.5 227.5 L 162.5 231.25 L 173.75 241.25 L 192.5 255.0 L 217.5 267.5 L 243.75 272.5 L 256.25 271.25 " stroke="black" fill="none" stroke-width="6.0" stroke-linecap="round" stroke-linejoin="round" />
</svg>