<svg xmlns="http://www.w3.org/2000/svg" width="300" height="300" viewBox="0 0 300 300">
<path d="M 127.5 87.5 L 123.75 87.5 L 120.0 86.25 L 121.25 86.25 L 135.0 83.75 L 156.25 82.5 L 178.75 83.75 L 195.0 91.25 L 196.25 105.0 L 180.0 123.75 L 161.25 137.5 L 146.25 141.25 L 135.0 138.75 L 132.5 136.25 " stroke="black" fill="none" stroke-width="6.0" stroke-linecap="round" stroke-linejoin="round" />
<path d="M 97.5 116.25 L 96.25 116.25 L 87.5 120.0 L 88.75 120.0 L 103.75 118.75 L 136.25 110.0 L 176.25 98.75 L 207.5 90.0 L 221.25 87.5 L 222.5 87.5 L 211.25 93.75 L 196.25 100.0 " stroke="black" fill="none" stroke-width="6.0" stroke-linecap="round" stroke-linejoin="round" />
<path d="M 107.5 148.75 L 107.5 150.0 L 107.5 150.0 L 123.75 146.25 L 156.25 133.75 L 186.25 118.75 L 197.5 111.25 L 193.75 108.75 L 185.0 108.75 " stroke="black" fill="none" stroke-width="6.0" stroke-linecap="round" stroke-linejoin="round" />
<path d="M 143.75 81.25 L 143.75 78.75 L 142.5 77.5 L 143.75 83.75 L 145.0 105.0 L 145.0 135.0 L 142.5 156.25 L 135.0 165.0 L 125.0 166.25 " stroke="black" fill="none" stroke-width="6.0" stroke-linecap="round" stroke-linejoin="round" />
<path d="M 92.5 171.25 L 88.75 171.25 L 83.75 172.5 L 83.75 172.5 L 98.75 172.5 L 127.5 166.25 L 163.75 155.0 L 198.75 140.0 L 212.5 132.5 L 213.75 130.0 L 203.75 132.5 L 187.5 141.25 " stroke="black" fill="none" stroke-width="6.0" stroke-linecap="round" stroke-linejoin="round" />
<path d="M 111.25 168.75 L 110.0 171.25 L 107.5 175.0 L 107.5 183.75 L 111.25 195.0 L 116.25 202.5 L 117.5 203.75 " stroke="black" fill="none" stroke-width="6.0" stroke-linecap="round" stroke-linejoin="round" />
<path d="M 128.75 172.5 L 128.75 172.5 L 128.75 172.5 L 128.75 175.0 L 130.0 183.75 L 133.75 195.0 L 136.25 200.0 L 136.25 200.0 " stroke="black" fill="none" stroke-width="6.0" stroke-linecap="round" stroke-linejoin="round" />
<path d="M 152.5 170.0 L 155.0 166.25 L 156.25 165.0 L 157.5 165.0 L 161.25 173.75 L 165.0 185.0 L 168.75 192.5 L 168.75 193.75 L 168.75 193.75 " stroke="black" fill="none" stroke-width="6.0" stroke-linecap="round" stroke-linejoin="round" />
<path d="M 185.0 161.25 L 186.25 160.0 L 191.25 153.75 L 196.25 152.5 L 201.25 153.75 L 207.5 161.25 L 208.75 172.5 L 208.75 178.75 " stroke="black" fill="none" stroke-width="6.0" stroke-linecap="round" stroke-linejoin="round" />
<path d="M 97.5 211.25 L 96.25 212.5 L 95.0 213.75 L 97.5 222.5 L 107.5 241.25 L 121.25 256.25 L 132.5 260.0 L 133.75 260.0 L 131.25 255.0 L 125.0 248.75 L 117.5 242.5 L 111.25 235.0 L 106.25 226.25 L 106.25 220.0 L 116.25 215.0 L 136.25 212.5 L 161.25 208.75 L 190.0 206.25 L 207.5 207.5 L 211.25 215.0 L 207.5 227.5 L 195.0 243.75 L 181.25 252.5 L 163.75 257.5 L 150.0 257.5 " stroke="black" fill="none" stroke-width="6.0" stroke-linecap="round" stroke-linejoin="round" />
<path d="M 150.0 212.5 L 150.0 211.25 L 148.75 210.0 L 148.75 213.75 L 148.75 228.75 L 148.75 247.5 L 148.75 256.25 L 148.75 257.5 " stroke="black" fill="none" stroke-width="6.0" stroke-linecap="round" stroke-linejoin="round" />
<path d="M 162.5 213.75 L 163.75 213.75 L 163.75 216.25 L 163.75 226.25 L 160.0 242.5 L 153.75 256.25 L 145.0 263.75 L 133.75 266.25 L 117.5 267.5 L 101.25 270.0 L 91.25 272.5 L 87.5 273.75 L 87.5 273.75 L 90.0 273.75 L 95.0 272.5 L 103.75 270.0 L 116.25 266.25 L 130.0 263.75 L 147.5 261.25 L 168.75 260.0 L 193.75 256.25 L 216.25 252.5 L 237.5 250.0 L 255.0 250.0 L 266.25 253.75 L 273.75 258.75 L 278.75 262.5 L 280.0 265.0 L 280.0 265.0 L 280.0 265.0 L 278.75 263.75 " stroke="black" fill="none" stroke-width="6.0" stroke-linecap="round" stroke-linejoin="round" />
</svg>