<svg xmlns="http://www.w3.org/2000/svg" width="300" height="300" viewBox="0 0 300 300">
<path d="M 140.0 51.25 L 138.75 51.25 L 136.25 51.25 L 135.0 56.25 L 138.75 73.75 L 142.5 90.0 L 146.25 98.75 L 147.5 97.5 L 147.5 93.75 " stroke="black" fill="none" stroke-width="6.0" stroke-linecap="round" stroke-linejoin="round" />
<path d="M 145.0 68.75 L 145.0 67.5 L 143.75 66.25 L 142.5 66.25 L 143.75 66.25 L 151.25 66.25 L 162.5 62.5 L 175.0 58.75 L 180.0 57.5 L 173.75 58.75 " stroke="black" fill="none" stroke-width="6.0" stroke-linecap="round" stroke-linejoin="round" />
<path d="M 120.0 98.75 L 117.5 100.0 L 112.5 102.5 L 115.0 103.75 L 132.5 102.5 L 153.75 95.0 L 180.0 87.5 L 198.75 85.0 L 200.0 86.25 L 188.75 95.0 L 168.75 110.0 L 150.0 122.5 L 133.75 133.75 L 120.0 136.25 L 115.0 132.5 L 113.75 123.75 L 113.75 113.75 L 113.75 108.75 L 113.75 110.0 L 113.75 132.5 L 113.75 165.0 L 113.75 236.25 L 111.25 275.0 L 110.0 293.75 L 106.25 296.25 L 103.75 291.25 " stroke="black" fill="none" stroke-width="6.0" stroke-linecap="round" stroke-linejoin="round" />
<path d="M 117.5 142.5 L 117.5 142.5 L 117.5 142.5 L 123.75 141.25 L 138.75 133.75 L 161.25 118.75 L 178.75 106.25 L 183.75 101.25 L 176.25 103.75 L 163.75 108.75 L 153.75 116.25 L 145.0 123.75 L 141.25 131.25 L 141.25 138.75 L 148.75 143.75 L 161.25 145.0 L 176.25 136.25 L 187.5 123.75 L 188.75 116.25 L 185.0 115.0 " stroke="black" fill="none" stroke-width="6.0" stroke-linecap="round" stroke-linejoin="round" />
<path d="M 135.0 156.25 L 133.75 160.0 L 132.5 167.5 L 138.75 181.25 L 148.75 191.25 L 157.5 195.0 L 161.25 195.0 L 162.5 195.0 L 156.25 193.75 L 150.0 192.5 L 143.75 188.75 L 137.5 182.5 L 136.25 172.5 L 135.0 165.0 L 136.25 161.25 L 143.75 157.5 L 157.5 152.5 L 177.5 147.5 L 193.75 146.25 L 198.75 147.5 L 195.0 156.25 L 183.75 167.5 L 171.25 177.5 L 158.75 185.0 L 151.25 188.75 " stroke="black" fill="none" stroke-width="6.0" stroke-linecap="round" stroke-linejoin="round" />
<path d="M 148.75 188.75 L 148.75 187.5 L 148.75 187.5 L 150.0 185.0 L 158.75 177.5 L 177.5 163.75 L 193.75 152.5 L 201.25 150.0 L 201.25 151.25 L 192.5 162.5 L 182.5 176.25 L 171.25 188.75 L 161.25 195.0 " stroke="black" fill="none" stroke-width="6.0" stroke-linecap="round" stroke-linejoin="round" />
<path d="M 162.5 148.75 L 163.75 150.0 L 163.75 152.5 L 163.75 156.25 L 163.75 165.0 L 165.0 178.75 L 165.0 192.5 L 163.75 195.0 " stroke="black" fill="none" stroke-width="6.0" stroke-linecap="round" stroke-linejoin="round" />
<path d="M 136.25 217.5 L 131.25 218.75 L 128.75 218.75 L 128.75 220.0 L 138.75 231.25 L 150.0 247.5 L 161.25 258.75 L 168.75 261.25 L 171.25 261.25 L 171.25 256.25 L 167.5 251.25 L 163.75 246.25 L 157.5 242.5 L 152.5 238.75 L 147.5 235.0 L 146.25 230.0 L 152.5 221.25 L 170.0 210.0 L 195.0 200.0 L 211.25 196.25 L 216.25 200.0 L 215.0 211.25 L 205.0 228.75 L 193.75 245.0 L 181.25 256.25 L 167.5 260.0 L 160.0 257.5 L 160.0 255.0 " stroke="black" fill="none" stroke-width="6.0" stroke-linecap="round" stroke-linejoin="round" />
<path d="M 167.5 218.75 L 170.0 215.0 L 171.25 213.75 L 172.5 221.25 L 172.5 237.5 L 172.5 251.25 L 172.5 255.0 " stroke="black" fill="none" stroke-width="6.0" stroke-linecap="round" stroke-linejoin="round" />
<path d="M 187.5 206.25 L 187.5 206.25 L 187.5 206.25 L 187.5 210.0 L 183.75 225.0 L 176.25 246.25 L 166.25 263.75 L 153.75 273.75 L 143.75 281.25 L 141.25 283.75 L 141.25 282.5 L 145.0 281.25 L 151.25 277.5 L 158.75 272.5 L 166.25 267.5 L 178.75 262.5 L 193.75 257.5 L 212.5 252.5 L 230.0 248.75 L 242.5 247.5 L 250.0 246.25 L 251.25 245.0 L 251.25 245.0 L 251.25 245.0 " stroke="black" fill="none" stroke-width="6.0" stroke-linecap="round" stroke-linejoin="round" />
</svg>