<svg xmlns="http://www.w3.org/2000/svg" width="300" height="300" viewBox="0 0 300 300">
<path d="M 115.0 68.75 L 108.75 70.0 L 101.25 72.5 L 100.0 72.5 L 105.0 72.5 L 122.5 72.5 L 143.75 70.0 L 161.25 66.25 L 170.0 63.75 L 172.5 63.75 L 163.75 68.75 L 148.75 81.25 L 131.25 98.75 L 110.0 118.75 L 95.0 136.25 L 93.75 140.0 L 93.75 138.75 " stroke="black" fill="none" stroke-width="6.0" stroke-linecap="round" stroke-linejoin="round" />
<path d="M 107.5 120.0 L 107.5 120.0 L 103.75 123.75 L 102.5 141.25 L 106.25 185.0 L 111.25 227.5 L 117.5 252.5 L 122.5 258.75 L 123.75 251.25 " stroke="black" fill="none" stroke-width="6.0" stroke-linecap="round" stroke-linejoin="round" />
<path d="M 105.0 141.25 L 103.75 141.25 L 102.5 140.0 L 110.0 138.75 L 130.0 132.5 L 153.75 125.0 L 175.0 123.75 L 187.5 140.0 L 191.25 173.75 L 188.75 236.25 L 187.5 247.5 L 187.5 247.5 L 185.0 243.75 L 178.75 236.25 L 171.25 223.75 L 161.25 212.5 " stroke="black" fill="none" stroke-width="6.0" stroke-linecap="round" stroke-linejoin="round" />
<path d="M 122.5 191.25 L 117.5 193.75 L 111.25 195.0 L 113.75 195.0 L 128.75 186.25 L 147.5 171.25 L 166.25 156.25 L 180.0 147.5 L 178.75 146.25 " stroke="black" fill="none" stroke-width="6.0" stroke-linecap="round" stroke-linejoin="round" />
<path d="M 123.75 248.75 L 123.75 250.0 L 121.25 252.5 L 126.25 252.5 L 143.75 243.75 L 163.75 228.75 L 181.25 216.25 L 187.5 210.0 " stroke="black" fill="none" stroke-width="6.0" stroke-linecap="round" stroke-linejoin="round" />
</svg>