<svg xmlns="http://www.w3.org/2000/svg" width="300" height="300" viewBox="0 0 300 300">
<path d="M 88.75 77.5 L 87.5 77.5 L 82.5 76.25 L 81.25 76.25 L 87.5 76.25 L 108.75 76.25 L 141.25 75.0 L 170.0 73.75 L 185.0 76.25 L 187.5 81.25 L 182.5 86.25 L 171.25 93.75 L 160.0 101.25 L 152.5 108.75 L 151.25 115.0 L 156.25 117.5 L 168.75 117.5 L 186.25 116.25 L 200.0 116.25 L 206.25 123.75 L 205.0 137.5 L 196.25 152.5 L 185.0 163.75 L 173.75 171.25 L 160.0 171.25 " stroke="black" fill="none" stroke-width="6.0" stroke-linecap="round" stroke-linejoin="round" />
<path d="M 106.25 86.25 L 106.25 86.25 L 103.75 86.25 L 100.0 90.0 L 92.5 112.5 L 86.25 137.5 L 76.25 160.0 L 73.75 162.5 L 73.75 156.25 " stroke="black" fill="none" stroke-width="6.0" stroke-linecap="round" stroke-linejoin="round" />
<path d="M 107.5 130.0 L 111.25 128.75 L 117.5 128.75 L 128.75 128.75 L 141.25 130.0 L 148.75 132.5 L 150.0 138.75 L 137.5 150.0 L 118.75 161.25 L 101.25 168.75 L 91.25 171.25 L 90.0 170.0 " stroke="black" fill="none" stroke-width="6.0" stroke-linecap="round" stroke-linejoin="round" />
<path d="M 103.75 146.25 L 103.75 146.25 L 103.75 146.25 L 111.25 148.75 L 131.25 158.75 L 148.75 166.25 " stroke="black" fill="none" stroke-width="6.0" stroke-linecap="round" stroke-linejoin="round" />
<path d="M 83.75 200.0 L 80.0 197.5 L 76.25 196.25 L 76.25 196.25 L 76.25 205.0 L 80.0 221.25 L 83.75 236.25 L 87.5 245.0 L 88.75 246.25 L 88.75 243.75 " stroke="black" fill="none" stroke-width="6.0" stroke-linecap="round" stroke-linejoin="round" />
<path d="M 82.5 201.25 L 82.5 201.25 L 82.5 200.0 L 82.5 200.0 L 91.25 198.75 L 118.75 198.75 L 157.5 198.75 L 191.25 200.0 L 203.75 205.0 L 205.0 212.5 L 198.75 222.5 L 186.25 232.5 L 171.25 240.0 L 153.75 242.5 L 150.0 242.5 " stroke="black" fill="none" stroke-width="6.0" stroke-linecap="round" stroke-linejoin="round" />
<path d="M 123.75 200.0 L 121.25 200.0 L 117.5 201.25 L 115.0 207.5 L 115.0 225.0 L 117.5 241.25 L 121.25 247.5 L 122.5 247.5 " stroke="black" fill="none" stroke-width="6.0" stroke-linecap="round" stroke-linejoin="round" />
<path d="M 147.5 203.75 L 145.0 208.75 L 141.25 217.5 L 133.75 233.75 L 125.0 246.25 L 112.5 250.0 " stroke="black" fill="none" stroke-width="6.0" stroke-linecap="round" stroke-linejoin="round" />
<path d="M 66.25 253.75 L 63.75 253.75 L 61.25 255.0 L 60.0 255.0 L 66.25 255.0 L 77.5 255.0 L 91.25 255.0 L 105.0 252.5 L 122.5 251.25 L 142.5 250.0 L 161.25 248.75 L 181.25 248.75 L 202.5 248.75 L 218.75 251.25 L 232.5 253.75 L 243.75 255.0 L 248.75 255.0 L 250.0 255.0 L 251.25 255.0 L 251.25 255.0 L 250.0 256.25 " stroke="black" fill="none" stroke-width="6.0" stroke-linecap="round" stroke-linejoin="round" />
</svg>