<svg xmlns="http://www.w3.org/2000/svg" width="300" height="300" viewBox="0 0 300 300">
<path d="M 117.5 82.5 L 115.0 83.75 L 112.5 85.0 L 116.25 86.25 L 130.0 86.25 L 146.25 82.5 L 157.5 77.5 L 163.75 71.25 L 162.5 71.25 L 153.75 73.75 L 143.75 85.0 L 136.25 111.25 L 133.75 156.25 L 133.75 201.25 L 138.75 220.0 L 141.25 223.75 L 141.25 223.75 L 141.25 217.5 L 138.75 206.25 L 133.75 193.75 L 131.25 186.25 " stroke="black" fill="none" stroke-width="6.0" stroke-linecap="round" stroke-linejoin="round" />
<path d="M 130.0 143.75 L 128.75 142.5 L 130.0 141.25 L 142.5 135.0 L 165.0 126.25 L 190.0 123.75 L 203.75 141.25 L 205.0 168.75 L 202.5 196.25 L 200.0 210.0 L 200.0 213.75 L 198.75 212.5 L 195.0 207.5 " stroke="black" fill="none" stroke-width="6.0" stroke-linecap="round" stroke-linejoin="round" />
<path d="M 143.75 170.0 L 137.5 173.75 L 136.25 176.25 L 145.0 175.0 L 163.75 168.75 L 185.0 158.75 L 197.5 151.25 L 197.5 151.25 " stroke="black" fill="none" stroke-width="6.0" stroke-linecap="round" stroke-linejoin="round" />
<path d="M 150.0 221.25 L 150.0 222.5 L 148.75 227.5 L 155.0 227.5 L 175.0 220.0 L 193.75 208.75 L 205.0 202.5 " stroke="black" fill="none" stroke-width="6.0" stroke-linecap="round" stroke-linejoin="round" />
</svg>