<svg xmlns="http://www.w3.org/2000/svg" width="300" height="300" viewBox="0 0 300 300">
<path d="M 77.5 125.0 L 76.25 123.75 L 73.75 122.5 L 73.75 122.5 L 73.75 128.75 L 76.25 151.25 L 77.5 191.25 L 78.75 218.75 L 78.75 225.0 L 78.75 221.25 L 80.0 210.0 " stroke="black" fill="none" stroke-width="6.0" stroke-linecap="round" stroke-linejoin="round" />
<path d="M 81.25 130.0 L 78.75 128.75 L 77.5 126.25 L 80.0 122.5 L 85.0 120.0 L 96.25 113.75 L 105.0 112.5 L 112.5 116.25 L 115.0 132.5 L 117.5 157.5 L 118.75 188.75 L 121.25 208.75 L 122.5 217.5 L 123.75 218.75 L 123.75 217.5 L 122.5 213.75 L 118.75 207.5 L 112.5 200.0 L 105.0 191.25 L 98.75 185.0 " stroke="black" fill="none" stroke-width="6.0" stroke-linecap="round" stroke-linejoin="round" />
<path d="M 81.25 162.5 L 77.5 162.5 L 75.0 162.5 L 76.25 161.25 L 85.0 155.0 L 96.25 146.25 L 103.75 138.75 L 106.25 136.25 L 102.5 138.75 " stroke="black" fill="none" stroke-width="6.0" stroke-linecap="round" stroke-linejoin="round" />
<path d="M 82.5 183.75 L 81.25 185.0 L 81.25 186.25 L 88.75 181.25 L 98.75 171.25 L 108.75 161.25 L 111.25 157.5 L 111.25 157.5 " stroke="black" fill="none" stroke-width="6.0" stroke-linecap="round" stroke-linejoin="round" />
<path d="M 86.25 210.0 L 85.0 212.5 L 82.5 218.75 L 85.0 216.25 L 97.5 205.0 L 113.75 187.5 " stroke="black" fill="none" stroke-width="6.0" stroke-linecap="round" stroke-linejoin="round" />
<path d="M 150.0 147.5 L 146.25 148.75 L 142.5 151.25 L 141.25 151.25 L 147.5 150.0 L 158.75 145.0 L 170.0 140.0 L 178.75 136.25 L 178.75 136.25 " stroke="black" fill="none" stroke-width="6.0" stroke-linecap="round" stroke-linejoin="round" />
<path d="M 140.0 193.75 L 136.25 198.75 L 138.75 196.25 L 148.75 185.0 L 163.75 166.25 L 175.0 145.0 L 177.5 133.75 L 175.0 126.25 L 170.0 120.0 L 166.25 115.0 L 163.75 112.5 L 163.75 111.25 L 166.25 118.75 L 170.0 140.0 L 170.0 175.0 L 165.0 212.5 L 156.25 237.5 L 148.75 242.5 L 145.0 236.25 L 145.0 232.5 " stroke="black" fill="none" stroke-width="6.0" stroke-linecap="round" stroke-linejoin="round" />
<path d="M 192.5 112.5 L 192.5 111.25 L 195.0 110.0 L 197.5 115.0 L 202.5 156.25 L 206.25 200.0 L 215.0 228.75 L 228.75 242.5 L 242.5 247.5 L 257.5 248.75 L 266.25 245.0 L 268.75 242.5 L 268.75 240.0 L 261.25 235.0 L 253.75 231.25 " stroke="black" fill="none" stroke-width="6.0" stroke-linecap="round" stroke-linejoin="round" />
<path d="M 233.75 130.0 L 235.0 128.75 L 233.75 125.0 L 231.25 125.0 L 222.5 133.75 L 210.0 147.5 L 200.0 157.5 L 197.5 161.25 L 198.75 161.25 L 206.25 162.5 L 220.0 167.5 L 237.5 173.75 L 256.25 176.25 L 272.5 177.5 " stroke="black" fill="none" stroke-width="6.0" stroke-linecap="round" stroke-linejoin="round" />
</svg>