<svg xmlns="http://www.w3.org/2000/svg" width="300" height="300" viewBox="0 0 300 300">
<path d="M 111.25 82.5 L 111.25 82.5 L 110.0 82.5 L 113.75 82.5 L 132.5 81.25 L 161.25 76.25 L 191.25 72.5 L 203.75 72.5 L 203.75 78.75 L 193.75 91.25 L 177.5 106.25 L 158.75 118.75 L 145.0 126.25 L 141.25 126.25 " stroke="black" fill="none" stroke-width="6.0" stroke-linecap="round" stroke-linejoin="round" />
<path d="M 146.25 81.25 L 146.25 81.25 L 146.25 81.25 L 146.25 82.5 L 145.0 90.0 L 142.5 103.75 L 136.25 116.25 L 131.25 120.0 " stroke="black" fill="none" stroke-width="6.0" stroke-linecap="round" stroke-linejoin="round" />
<path d="M 113.75 130.0 L 110.0 133.75 L 107.5 135.0 L 111.25 135.0 L 130.0 132.5 L 151.25 123.75 L 171.25 111.25 L 177.5 105.0 L 175.0 103.75 " stroke="black" fill="none" stroke-width="6.0" stroke-linecap="round" stroke-linejoin="round" />
<path d="M 108.75 82.5 L 108.75 82.5 L 107.5 91.25 L 102.5 135.0 L 92.5 188.75 L 78.75 231.25 L 63.75 252.5 L 53.75 255.0 " stroke="black" fill="none" stroke-width="6.0" stroke-linecap="round" stroke-linejoin="round" />
<path d="M 130.0 151.25 L 130.0 151.25 L 128.75 148.75 L 128.75 148.75 L 127.5 151.25 L 127.5 176.25 L 127.5 213.75 L 132.5 241.25 L 137.5 245.0 L 138.75 238.75 " stroke="black" fill="none" stroke-width="6.0" stroke-linecap="round" stroke-linejoin="round" />
<path d="M 130.0 151.25 L 130.0 151.25 L 130.0 150.0 L 136.25 146.25 L 153.75 142.5 L 177.5 140.0 L 195.0 148.75 L 200.0 176.25 L 196.25 206.25 L 191.25 231.25 L 188.75 241.25 L 188.75 241.25 L 186.25 238.75 L 181.25 230.0 L 173.75 222.5 " stroke="black" fill="none" stroke-width="6.0" stroke-linecap="round" stroke-linejoin="round" />
<path d="M 130.0 186.25 L 127.5 186.25 L 127.5 186.25 L 136.25 183.75 L 156.25 175.0 L 181.25 165.0 L 192.5 158.75 L 191.25 158.75 " stroke="black" fill="none" stroke-width="6.0" stroke-linecap="round" stroke-linejoin="round" />
<path d="M 137.5 203.75 L 136.25 205.0 L 136.25 205.0 L 145.0 203.75 L 165.0 197.5 L 183.75 190.0 L 188.75 188.75 " stroke="black" fill="none" stroke-width="6.0" stroke-linecap="round" stroke-linejoin="round" />
<path d="M 141.25 233.75 L 141.25 233.75 L 141.25 235.0 L 143.75 235.0 L 163.75 228.75 L 192.5 218.75 " stroke="black" fill="none" stroke-width="6.0" stroke-linecap="round" stroke-linejoin="round" />
</svg>