<svg xmlns="http://www.w3.org/2000/svg" width="300" height="300" viewBox="0 0 300 300">
<path d="M 81.25 101.25 L 80.0 101.25 L 77.5 101.25 L 76.25 101.25 L 76.25 108.75 L 77.5 138.75 L 78.75 181.25 L 78.75 202.5 L 78.75 206.25 L 80.0 200.0 L 80.0 197.5 " stroke="black" fill="none" stroke-width="6.0" stroke-linecap="round" stroke-linejoin="round" />
<path d="M 82.5 102.5 L 82.5 102.5 L 82.5 101.25 L 88.75 100.0 L 98.75 98.75 L 107.5 111.25 L 113.75 141.25 L 113.75 175.0 L 112.5 195.0 L 111.25 203.75 L 111.25 203.75 L 110.0 201.25 L 106.25 196.25 " stroke="black" fill="none" stroke-width="6.0" stroke-linecap="round" stroke-linejoin="round" />
<path d="M 80.0 151.25 L 75.0 152.5 L 73.75 153.75 L 77.5 152.5 L 90.0 145.0 L 101.25 137.5 L 111.25 130.0 L 110.0 128.75 " stroke="black" fill="none" stroke-width="6.0" stroke-linecap="round" stroke-linejoin="round" />
<path d="M 90.0 155.0 L 88.75 156.25 L 87.5 157.5 L 88.75 157.5 L 97.5 153.75 L 106.25 147.5 L 108.75 146.25 " stroke="black" fill="none" stroke-width="6.0" stroke-linecap="round" stroke-linejoin="round" />
<path d="M 88.75 195.0 L 83.75 205.0 L 82.5 207.5 L 91.25 205.0 L 106.25 192.5 L 116.25 183.75 " stroke="black" fill="none" stroke-width="6.0" stroke-linecap="round" stroke-linejoin="round" />
<path d="M 165.0 78.75 L 165.0 80.0 L 163.75 81.25 L 170.0 81.25 L 185.0 81.25 L 200.0 80.0 L 208.75 77.5 L 210.0 77.5 " stroke="black" fill="none" stroke-width="6.0" stroke-linecap="round" stroke-linejoin="round" />
<path d="M 145.0 115.0 L 140.0 120.0 L 140.0 122.5 L 150.0 121.25 L 171.25 115.0 L 201.25 103.75 L 225.0 93.75 L 231.25 91.25 L 221.25 95.0 " stroke="black" fill="none" stroke-width="6.0" stroke-linecap="round" stroke-linejoin="round" />
<path d="M 133.75 158.75 L 133.75 158.75 L 130.0 161.25 L 130.0 162.5 L 138.75 162.5 L 160.0 156.25 L 191.25 146.25 L 217.5 136.25 L 231.25 127.5 L 230.0 123.75 L 220.0 123.75 " stroke="black" fill="none" stroke-width="6.0" stroke-linecap="round" stroke-linejoin="round" />
<path d="M 162.5 130.0 L 162.5 130.0 L 161.25 133.75 L 161.25 141.25 L 165.0 157.5 L 168.75 173.75 L 168.75 176.25 " stroke="black" fill="none" stroke-width="6.0" stroke-linecap="round" stroke-linejoin="round" />
<path d="M 228.75 120.0 L 231.25 120.0 L 230.0 126.25 L 221.25 140.0 L 207.5 160.0 L 198.75 171.25 " stroke="black" fill="none" stroke-width="6.0" stroke-linecap="round" stroke-linejoin="round" />
<path d="M 145.0 195.0 L 142.5 197.5 L 140.0 197.5 L 145.0 196.25 L 163.75 188.75 L 192.5 180.0 L 221.25 171.25 L 241.25 165.0 L 246.25 163.75 L 246.25 163.75 L 238.75 166.25 L 235.0 167.5 " stroke="black" fill="none" stroke-width="6.0" stroke-linecap="round" stroke-linejoin="round" />
<path d="M 192.5 90.0 L 192.5 90.0 L 190.0 90.0 L 188.75 90.0 L 188.75 90.0 L 190.0 92.5 L 191.25 100.0 L 195.0 117.5 L 197.5 148.75 L 197.5 183.75 L 197.5 202.5 L 196.25 208.75 L 195.0 210.0 L 193.75 210.0 L 191.25 208.75 L 188.75 208.75 L 185.0 207.5 L 180.0 207.5 L 176.25 207.5 L 171.25 208.75 L 167.5 210.0 L 166.25 211.25 L 166.25 212.5 L 166.25 212.5 L 166.25 212.5 L 166.25 212.5 L 167.5 212.5 L 171.25 212.5 L 180.0 211.25 L 193.75 208.75 L 210.0 206.25 L 223.75 202.5 L 230.0 200.0 L 233.75 196.25 L 232.5 195.0 L 232.5 195.0 " stroke="black" fill="none" stroke-width="6.0" stroke-linecap="round" stroke-linejoin="round" />
</svg>