<svg xmlns="http://www.w3.org/2000/svg" width="300" height="300" viewBox="0 0 300 300">
<path d="M 73.75 116.25 L 73.75 113.75 L 72.5 112.5 L 72.5 118.75 L 72.5 147.5 L 73.75 187.5 L 76.25 211.25 L 77.5 216.25 L 77.5 208.75 " stroke="black" fill="none" stroke-width="6.0" stroke-linecap="round" stroke-linejoin="round" />
<path d="M 71.25 118.75 L 71.25 117.5 L 71.25 116.25 L 72.5 113.75 L 82.5 110.0 L 93.75 108.75 L 105.0 117.5 L 112.5 145.0 L 113.75 182.5 L 112.5 207.5 L 111.25 217.5 L 111.25 220.0 L 110.0 212.5 L 106.25 202.5 L 102.5 193.75 " stroke="black" fill="none" stroke-width="6.0" stroke-linecap="round" stroke-linejoin="round" />
<path d="M 68.75 165.0 L 65.0 165.0 L 61.25 166.25 L 62.5 166.25 L 71.25 163.75 L 88.75 155.0 L 100.0 146.25 L 102.5 142.5 L 98.75 143.75 " stroke="black" fill="none" stroke-width="6.0" stroke-linecap="round" stroke-linejoin="round" />
<path d="M 71.25 186.25 L 67.5 190.0 L 66.25 191.25 L 73.75 190.0 L 87.5 180.0 L 100.0 168.75 L 107.5 160.0 L 107.5 160.0 " stroke="black" fill="none" stroke-width="6.0" stroke-linecap="round" stroke-linejoin="round" />
<path d="M 85.0 210.0 L 82.5 215.0 L 81.25 218.75 L 86.25 213.75 L 101.25 197.5 L 117.5 176.25 " stroke="black" fill="none" stroke-width="6.0" stroke-linecap="round" stroke-linejoin="round" />
<path d="M 143.75 96.25 L 142.5 96.25 L 141.25 97.5 L 142.5 97.5 L 152.5 95.0 L 170.0 87.5 L 190.0 78.75 L 200.0 73.75 L 197.5 71.25 L 196.25 71.25 " stroke="black" fill="none" stroke-width="6.0" stroke-linecap="round" stroke-linejoin="round" />
<path d="M 172.5 65.0 L 171.25 65.0 L 168.75 66.25 L 168.75 75.0 L 170.0 96.25 L 171.25 118.75 L 167.5 128.75 L 157.5 131.25 L 146.25 131.25 L 136.25 131.25 L 135.0 131.25 L 140.0 131.25 L 157.5 126.25 L 182.5 116.25 L 206.25 102.5 L 221.25 91.25 L 221.25 87.5 L 218.75 87.5 " stroke="black" fill="none" stroke-width="6.0" stroke-linecap="round" stroke-linejoin="round" />
<path d="M 172.5 127.5 L 168.75 133.75 L 153.75 162.5 L 141.25 195.0 L 130.0 216.25 L 121.25 223.75 L 118.75 218.75 L 118.75 211.25 " stroke="black" fill="none" stroke-width="6.0" stroke-linecap="round" stroke-linejoin="round" />
<path d="M 181.25 120.0 L 187.5 120.0 L 203.75 130.0 L 223.75 146.25 L 242.5 163.75 L 253.75 178.75 L 257.5 187.5 L 253.75 191.25 L 251.25 191.25 " stroke="black" fill="none" stroke-width="6.0" stroke-linecap="round" stroke-linejoin="round" />
<path d="M 155.0 188.75 L 153.75 188.75 L 156.25 188.75 L 175.0 185.0 L 201.25 173.75 L 215.0 163.75 L 213.75 158.75 " stroke="black" fill="none" stroke-width="6.0" stroke-linecap="round" stroke-linejoin="round" />
<path d="M 182.5 155.0 L 182.5 156.25 L 182.5 160.0 L 187.5 177.5 L 192.5 201.25 L 191.25 218.75 L 181.25 225.0 L 168.75 228.75 L 156.25 228.75 L 152.5 228.75 L 152.5 228.75 L 162.5 227.5 L 181.25 227.5 L 200.0 227.5 L 218.75 227.5 L 232.5 227.5 L 238.75 227.5 L 240.0 227.5 L 240.0 225.0 " stroke="black" fill="none" stroke-width="6.0" stroke-linecap="round" stroke-linejoin="round" />
</svg>