<svg xmlns="http://www.w3.org/2000/svg" width="300" height="300" viewBox="0 0 300 300">
<path d="M 117.5 93.75 L 113.75 92.5 L 110.0 92.5 L 110.0 93.75 L 113.75 102.5 L 121.25 117.5 L 133.75 127.5 L 153.75 126.25 L 177.5 107.5 L 196.25 92.5 L 203.75 85.0 L 201.25 83.75 L 190.0 87.5 " stroke="black" fill="none" stroke-width="6.0" stroke-linecap="round" stroke-linejoin="round" />
<path d="M 90.0 201.25 L 90.0 202.5 L 95.0 203.75 L 125.0 193.75 L 163.75 177.5 L 201.25 160.0 L 217.5 145.0 L 220.0 140.0 " stroke="black" fill="none" stroke-width="6.0" stroke-linecap="round" stroke-linejoin="round" />
<path d="M 148.75 127.5 L 148.75 127.5 L 148.75 127.5 L 152.5 135.0 L 158.75 167.5 L 156.25 216.25 L 145.0 247.5 L 131.25 258.75 L 115.0 260.0 L 108.75 255.0 " stroke="black" fill="none" stroke-width="6.0" stroke-linecap="round" stroke-linejoin="round" />
<path d="M 167.5 182.5 L 176.25 198.75 L 196.25 216.25 L 216.25 243.75 L 230.0 263.75 L 246.25 277.5 L 252.5 291.25 " stroke="black" fill="none" stroke-width="6.0" stroke-linecap="round" stroke-linejoin="round" />
</svg>