<svg xmlns="http://www.w3.org/2000/svg" width="300" height="300" viewBox="0 0 300 300">
<path d="M 127.5 52.5 L 126.25 51.25 L 125.0 50.0 L 125.0 51.25 L 127.5 62.5 L 132.5 81.25 L 135.0 95.0 L 136.25 101.25 " stroke="black" fill="none" stroke-width="6.0" stroke-linecap="round" stroke-linejoin="round" />
<path d="M 136.25 73.75 L 135.0 73.75 L 133.75 72.5 L 133.75 72.5 L 143.75 70.0 L 156.25 63.75 L 170.0 58.75 L 171.25 58.75 L 168.75 60.0 " stroke="black" fill="none" stroke-width="6.0" stroke-linecap="round" stroke-linejoin="round" />
<path d="M 97.5 98.75 L 97.5 96.25 L 97.5 95.0 L 97.5 96.25 L 97.5 117.5 L 95.0 147.5 L 91.25 166.25 " stroke="black" fill="none" stroke-width="6.0" stroke-linecap="round" stroke-linejoin="round" />
<path d="M 107.5 116.25 L 112.5 113.75 L 123.75 111.25 L 145.0 106.25 L 168.75 98.75 L 190.0 93.75 L 196.25 92.5 L 191.25 96.25 L 178.75 106.25 L 161.25 118.75 L 150.0 126.25 " stroke="black" fill="none" stroke-width="6.0" stroke-linecap="round" stroke-linejoin="round" />
<path d="M 128.75 135.0 L 127.5 135.0 L 123.75 136.25 L 122.5 137.5 L 125.0 137.5 L 135.0 136.25 L 145.0 132.5 L 151.25 127.5 L 153.75 126.25 L 150.0 130.0 L 137.5 143.75 L 117.5 167.5 L 95.0 200.0 L 82.5 225.0 L 76.25 236.25 " stroke="black" fill="none" stroke-width="6.0" stroke-linecap="round" stroke-linejoin="round" />
<path d="M 152.5 145.0 L 152.5 143.75 L 155.0 143.75 L 163.75 143.75 L 177.5 145.0 L 191.25 147.5 L 192.5 148.75 " stroke="black" fill="none" stroke-width="6.0" stroke-linecap="round" stroke-linejoin="round" />
<path d="M 147.5 167.5 L 131.25 185.0 L 112.5 206.25 L 91.25 232.5 L 82.5 248.75 L 80.0 250.0 L 80.0 247.5 " stroke="black" fill="none" stroke-width="6.0" stroke-linecap="round" stroke-linejoin="round" />
<path d="M 156.25 166.25 L 161.25 166.25 L 171.25 166.25 L 188.75 171.25 L 208.75 175.0 L 226.25 178.75 L 231.25 182.5 L 222.5 186.25 " stroke="black" fill="none" stroke-width="6.0" stroke-linecap="round" stroke-linejoin="round" />
<path d="M 142.5 195.0 L 142.5 195.0 L 142.5 191.25 L 141.25 191.25 L 140.0 207.5 L 140.0 240.0 L 140.0 262.5 L 143.75 278.75 L 146.25 276.25 " stroke="black" fill="none" stroke-width="6.0" stroke-linecap="round" stroke-linejoin="round" />
<path d="M 147.5 200.0 L 147.5 197.5 L 147.5 195.0 L 152.5 192.5 L 163.75 191.25 L 180.0 198.75 L 190.0 222.5 L 190.0 250.0 L 183.75 271.25 L 178.75 282.5 L 176.25 285.0 L 173.75 282.5 L 170.0 273.75 L 163.75 262.5 " stroke="black" fill="none" stroke-width="6.0" stroke-linecap="round" stroke-linejoin="round" />
<path d="M 145.0 245.0 L 142.5 243.75 L 137.5 243.75 L 136.25 243.75 L 142.5 240.0 L 156.25 230.0 L 172.5 217.5 L 183.75 207.5 L 185.0 207.5 " stroke="black" fill="none" stroke-width="6.0" stroke-linecap="round" stroke-linejoin="round" />
<path d="M 148.75 262.5 L 147.5 262.5 L 145.0 265.0 L 145.0 265.0 L 155.0 257.5 L 171.25 246.25 L 182.5 237.5 L 183.75 236.25 " stroke="black" fill="none" stroke-width="6.0" stroke-linecap="round" stroke-linejoin="round" />
<path d="M 157.5 270.0 L 157.5 272.5 L 155.0 276.25 L 158.75 276.25 L 173.75 266.25 L 195.0 251.25 L 198.75 247.5 " stroke="black" fill="none" stroke-width="6.0" stroke-linecap="round" stroke-linejoin="round" />
</svg>