<svg xmlns="http://www.w3.org/2000/svg" width="300" height="300" viewBox="0 0 300 300">
<path d="M 76.25 108.75 L 73.75 108.75 L 72.5 113.75 L 72.5 138.75 L 75.0 178.75 L 75.0 207.5 L 76.25 212.5 L 76.25 211.25 L 75.0 202.5 " stroke="black" fill="none" stroke-width="6.0" stroke-linecap="round" stroke-linejoin="round" />
<path d="M 76.25 115.0 L 75.0 115.0 L 73.75 115.0 L 73.75 113.75 L 77.5 111.25 L 86.25 107.5 L 95.0 103.75 L 102.5 103.75 L 107.5 112.5 L 110.0 142.5 L 111.25 188.75 L 111.25 213.75 L 112.5 221.25 L 112.5 221.25 L 110.0 216.25 L 105.0 206.25 L 98.75 196.25 L 97.5 191.25 " stroke="black" fill="none" stroke-width="6.0" stroke-linecap="round" stroke-linejoin="round" />
<path d="M 72.5 170.0 L 68.75 170.0 L 66.25 170.0 L 68.75 167.5 L 80.0 158.75 L 92.5 147.5 L 101.25 140.0 L 105.0 137.5 L 101.25 140.0 " stroke="black" fill="none" stroke-width="6.0" stroke-linecap="round" stroke-linejoin="round" />
<path d="M 80.0 182.5 L 78.75 185.0 L 75.0 190.0 L 75.0 190.0 L 83.75 187.5 L 93.75 177.5 L 103.75 167.5 L 106.25 160.0 " stroke="black" fill="none" stroke-width="6.0" stroke-linecap="round" stroke-linejoin="round" />
<path d="M 82.5 216.25 L 80.0 218.75 L 78.75 220.0 L 88.75 213.75 L 105.0 197.5 L 108.75 192.5 " stroke="black" fill="none" stroke-width="6.0" stroke-linecap="round" stroke-linejoin="round" />
<path d="M 145.0 111.25 L 142.5 112.5 L 141.25 115.0 L 143.75 115.0 L 156.25 112.5 L 175.0 103.75 L 193.75 91.25 L 203.75 80.0 L 202.5 78.75 L 192.5 81.25 " stroke="black" fill="none" stroke-width="6.0" stroke-linecap="round" stroke-linejoin="round" />
<path d="M 148.75 127.5 L 143.75 133.75 L 142.5 142.5 L 141.25 156.25 L 138.75 172.5 L 135.0 182.5 L 132.5 183.75 " stroke="black" fill="none" stroke-width="6.0" stroke-linecap="round" stroke-linejoin="round" />
<path d="M 146.25 147.5 L 146.25 147.5 L 146.25 147.5 L 150.0 148.75 L 157.5 156.25 L 165.0 163.75 L 167.5 165.0 " stroke="black" fill="none" stroke-width="6.0" stroke-linecap="round" stroke-linejoin="round" />
<path d="M 210.0 112.5 L 207.5 112.5 L 202.5 116.25 L 192.5 131.25 L 178.75 145.0 L 170.0 148.75 L 168.75 150.0 L 176.25 148.75 L 191.25 145.0 L 208.75 140.0 L 223.75 133.75 L 231.25 130.0 L 231.25 126.25 L 221.25 125.0 L 216.25 123.75 " stroke="black" fill="none" stroke-width="6.0" stroke-linecap="round" stroke-linejoin="round" />
<path d="M 173.75 78.75 L 172.5 78.75 L 171.25 78.75 L 171.25 81.25 L 171.25 105.0 L 176.25 156.25 L 177.5 201.25 L 177.5 222.5 L 175.0 232.5 L 173.75 236.25 L 171.25 236.25 L 166.25 233.75 L 161.25 231.25 L 156.25 228.75 L 152.5 226.25 L 150.0 223.75 " stroke="black" fill="none" stroke-width="6.0" stroke-linecap="round" stroke-linejoin="round" />
<path d="M 173.75 185.0 L 168.75 188.75 L 156.25 197.5 L 145.0 210.0 L 132.5 221.25 L 125.0 227.5 L 120.0 227.5 L 121.25 222.5 " stroke="black" fill="none" stroke-width="6.0" stroke-linecap="round" stroke-linejoin="round" />
<path d="M 168.75 170.0 L 168.75 170.0 L 171.25 170.0 L 177.5 171.25 L 185.0 175.0 L 193.75 180.0 L 201.25 186.25 L 210.0 191.25 L 222.5 198.75 L 240.0 208.75 L 255.0 217.5 L 265.0 225.0 L 267.5 231.25 L 266.25 232.5 " stroke="black" fill="none" stroke-width="6.0" stroke-linecap="round" stroke-linejoin="round" />
</svg>