<svg xmlns="http://www.w3.org/2000/svg" width="300" height="300" viewBox="0 0 300 300">
<path d="M 63.75 97.5 L 62.5 96.25 L 61.25 95.0 L 61.25 96.25 L 68.75 106.25 L 76.25 120.0 L 85.0 126.25 L 93.75 123.75 L 105.0 111.25 L 116.25 100.0 L 123.75 93.75 L 125.0 92.5 L 121.25 95.0 L 115.0 98.75 " stroke="black" fill="none" stroke-width="6.0" stroke-linecap="round" stroke-linejoin="round" />
<path d="M 46.25 181.25 L 47.5 181.25 L 48.75 182.5 L 61.25 177.5 L 90.0 160.0 L 117.5 141.25 L 133.75 128.75 L 135.0 125.0 L 132.5 125.0 " stroke="black" fill="none" stroke-width="6.0" stroke-linecap="round" stroke-linejoin="round" />
<path d="M 98.75 123.75 L 100.0 125.0 L 100.0 130.0 L 101.25 141.25 L 98.75 166.25 L 93.75 196.25 L 87.5 213.75 L 78.75 222.5 L 67.5 226.25 L 61.25 221.25 L 60.0 218.75 " stroke="black" fill="none" stroke-width="6.0" stroke-linecap="round" stroke-linejoin="round" />
<path d="M 95.0 162.5 L 98.75 165.0 L 103.75 173.75 L 113.75 188.75 L 128.75 207.5 L 143.75 223.75 L 152.5 233.75 L 152.5 236.25 L 150.0 236.25 " stroke="black" fill="none" stroke-width="6.0" stroke-linecap="round" stroke-linejoin="round" />
<path d="M 160.0 92.5 L 158.75 95.0 L 157.5 96.25 L 161.25 96.25 L 176.25 93.75 L 197.5 87.5 L 212.5 80.0 L 217.5 76.25 L 211.25 78.75 L 198.75 87.5 " stroke="black" fill="none" stroke-width="6.0" stroke-linecap="round" stroke-linejoin="round" />
<path d="M 153.75 122.5 L 153.75 127.5 L 155.0 133.75 L 160.0 146.25 L 170.0 160.0 L 178.75 167.5 L 183.75 170.0 L 182.5 170.0 L 177.5 166.25 L 172.5 161.25 L 167.5 155.0 L 163.75 150.0 L 160.0 146.25 L 158.75 143.75 L 160.0 142.5 L 170.0 141.25 L 187.5 135.0 L 208.75 126.25 L 222.5 118.75 L 226.25 117.5 L 216.25 127.5 L 201.25 145.0 L 187.5 161.25 L 176.25 172.5 L 175.0 173.75 L 183.75 168.75 L 196.25 157.5 L 206.25 146.25 L 212.5 138.75 L 210.0 138.75 L 202.5 142.5 " stroke="black" fill="none" stroke-width="6.0" stroke-linecap="round" stroke-linejoin="round" />
<path d="M 178.75 171.25 L 178.75 175.0 L 176.25 187.5 L 175.0 205.0 L 175.0 225.0 L 178.75 237.5 L 183.75 238.75 L 185.0 226.25 " stroke="black" fill="none" stroke-width="6.0" stroke-linecap="round" stroke-linejoin="round" />
<path d="M 207.5 166.25 L 210.0 166.25 L 211.25 171.25 L 210.0 186.25 L 202.5 206.25 L 195.0 223.75 L 186.25 235.0 L 175.0 240.0 L 166.25 242.5 L 162.5 242.5 L 162.5 242.5 L 163.75 242.5 L 170.0 242.5 L 180.0 242.5 L 191.25 240.0 L 203.75 236.25 L 215.0 232.5 L 225.0 231.25 L 235.0 231.25 L 243.75 231.25 L 252.5 228.75 L 253.75 225.0 " stroke="black" fill="none" stroke-width="6.0" stroke-linecap="round" stroke-linejoin="round" />
</svg>