<svg xmlns="http://www.w3.org/2000/svg" width="300" height="300" viewBox="0 0 300 300">
<path d="M 128.75 68.75 L 128.75 73.75 L 130.0 85.0 L 135.0 105.0 L 138.75 127.5 L 140.0 137.5 L 138.75 137.5 L 136.25 135.0 L 128.75 132.5 L 116.25 127.5 L 103.75 125.0 L 92.5 121.25 L 86.25 118.75 L 86.25 117.5 L 98.75 113.75 L 123.75 107.5 L 151.25 101.25 L 178.75 96.25 L 193.75 93.75 L 190.0 96.25 L 172.5 111.25 L 150.0 135.0 L 122.5 166.25 L 91.25 202.5 L 71.25 218.75 L 61.25 220.0 " stroke="black" fill="none" stroke-width="6.0" stroke-linecap="round" stroke-linejoin="round" />
<path d="M 140.0 162.5 L 137.5 161.25 L 135.0 161.25 L 133.75 167.5 L 133.75 192.5 L 138.75 226.25 L 143.75 243.75 L 146.25 247.5 L 146.25 241.25 L 146.25 236.25 " stroke="black" fill="none" stroke-width="6.0" stroke-linecap="round" stroke-linejoin="round" />
<path d="M 133.75 181.25 L 130.0 176.25 L 128.75 171.25 L 137.5 165.0 L 152.5 156.25 L 170.0 152.5 L 186.25 153.75 L 195.0 172.5 L 196.25 200.0 L 196.25 226.25 L 193.75 243.75 L 191.25 248.75 L 190.0 248.75 L 186.25 245.0 L 182.5 241.25 " stroke="black" fill="none" stroke-width="6.0" stroke-linecap="round" stroke-linejoin="round" />
<path d="M 140.0 196.25 L 137.5 196.25 L 133.75 197.5 L 132.5 197.5 L 141.25 195.0 L 155.0 186.25 L 172.5 176.25 L 183.75 166.25 L 185.0 165.0 " stroke="black" fill="none" stroke-width="6.0" stroke-linecap="round" stroke-linejoin="round" />
<path d="M 145.0 215.0 L 145.0 216.25 L 143.75 218.75 L 147.5 217.5 L 160.0 210.0 L 178.75 198.75 L 191.25 190.0 L 192.5 190.0 " stroke="black" fill="none" stroke-width="6.0" stroke-linecap="round" stroke-linejoin="round" />
<path d="M 153.75 238.75 L 152.5 246.25 L 156.25 247.5 L 170.0 246.25 L 191.25 235.0 L 203.75 225.0 " stroke="black" fill="none" stroke-width="6.0" stroke-linecap="round" stroke-linejoin="round" />
</svg>