<svg xmlns="http://www.w3.org/2000/svg" width="300" height="300" viewBox="0 0 300 300">
<path d="M 88.75 95.0 L 85.0 93.75 L 82.5 92.5 L 82.5 92.5 L 87.5 100.0 L 93.75 112.5 L 100.0 125.0 L 101.25 132.5 L 101.25 133.75 " stroke="black" fill="none" stroke-width="6.0" stroke-linecap="round" stroke-linejoin="round" />
<path d="M 93.75 98.75 L 93.75 98.75 L 91.25 96.25 L 92.5 92.5 L 105.0 88.75 L 130.0 83.75 L 158.75 78.75 L 183.75 76.25 L 196.25 76.25 L 197.5 78.75 L 193.75 83.75 L 181.25 93.75 L 166.25 103.75 L 151.25 111.25 L 147.5 112.5 " stroke="black" fill="none" stroke-width="6.0" stroke-linecap="round" stroke-linejoin="round" />
<path d="M 131.25 93.75 L 130.0 93.75 L 128.75 95.0 L 128.75 101.25 L 128.75 111.25 L 128.75 115.0 " stroke="black" fill="none" stroke-width="6.0" stroke-linecap="round" stroke-linejoin="round" />
<path d="M 148.75 88.75 L 148.75 88.75 L 146.25 91.25 L 143.75 97.5 L 137.5 111.25 L 127.5 126.25 L 116.25 133.75 L 108.75 135.0 L 107.5 135.0 L 113.75 133.75 L 127.5 128.75 L 143.75 121.25 L 158.75 112.5 L 171.25 105.0 L 173.75 102.5 L 172.5 102.5 " stroke="black" fill="none" stroke-width="6.0" stroke-linecap="round" stroke-linejoin="round" />
<path d="M 146.25 128.75 L 140.0 131.25 L 132.5 137.5 L 121.25 151.25 L 105.0 170.0 L 92.5 185.0 L 90.0 187.5 " stroke="black" fill="none" stroke-width="6.0" stroke-linecap="round" stroke-linejoin="round" />
<path d="M 111.25 171.25 L 110.0 171.25 L 108.75 171.25 L 108.75 172.5 L 108.75 178.75 L 107.5 191.25 L 102.5 205.0 L 96.25 213.75 L 93.75 216.25 L 92.5 213.75 L 96.25 206.25 L 101.25 200.0 L 106.25 196.25 L 108.75 192.5 L 110.0 192.5 L 112.5 195.0 L 116.25 198.75 L 123.75 203.75 L 128.75 208.75 L 130.0 208.75 " stroke="black" fill="none" stroke-width="6.0" stroke-linecap="round" stroke-linejoin="round" />
<path d="M 186.25 148.75 L 183.75 148.75 L 177.5 148.75 L 170.0 156.25 L 161.25 171.25 L 155.0 182.5 L 152.5 185.0 L 153.75 185.0 L 161.25 183.75 L 173.75 181.25 L 186.25 177.5 L 198.75 173.75 L 207.5 171.25 L 208.75 171.25 L 205.0 171.25 " stroke="black" fill="none" stroke-width="6.0" stroke-linecap="round" stroke-linejoin="round" />
<path d="M 147.5 152.5 L 146.25 152.5 L 143.75 152.5 L 142.5 151.25 L 142.5 151.25 L 143.75 157.5 L 148.75 170.0 L 156.25 190.0 L 161.25 208.75 L 161.25 223.75 L 158.75 236.25 L 155.0 243.75 L 152.5 247.5 L 150.0 250.0 L 147.5 251.25 L 145.0 251.25 L 142.5 251.25 L 140.0 251.25 L 136.25 250.0 L 133.75 248.75 L 128.75 247.5 L 122.5 245.0 L 110.0 241.25 L 103.75 241.25 " stroke="black" fill="none" stroke-width="6.0" stroke-linecap="round" stroke-linejoin="round" />
</svg>