<svg xmlns="http://www.w3.org/2000/svg" width="300" height="300" viewBox="0 0 300 300">
<path d="M 71.25 105.0 L 70.0 103.75 L 68.75 102.5 L 68.75 101.25 L 72.5 106.25 L 77.5 115.0 L 83.75 122.5 L 91.25 125.0 L 102.5 117.5 L 115.0 103.75 L 122.5 93.75 L 123.75 90.0 L 115.0 91.25 L 112.5 92.5 " stroke="black" fill="none" stroke-width="6.0" stroke-linecap="round" stroke-linejoin="round" />
<path d="M 65.0 195.0 L 65.0 195.0 L 67.5 196.25 L 81.25 190.0 L 101.25 175.0 L 122.5 158.75 L 135.0 145.0 L 136.25 141.25 " stroke="black" fill="none" stroke-width="6.0" stroke-linecap="round" stroke-linejoin="round" />
<path d="M 101.25 131.25 L 101.25 133.75 L 101.25 140.0 L 102.5 157.5 L 101.25 193.75 L 93.75 226.25 L 85.0 243.75 L 73.75 247.5 L 63.75 245.0 L 61.25 240.0 " stroke="black" fill="none" stroke-width="6.0" stroke-linecap="round" stroke-linejoin="round" />
<path d="M 98.75 177.5 L 100.0 180.0 L 108.75 192.5 L 126.25 206.25 L 141.25 221.25 L 151.25 232.5 L 155.0 237.5 " stroke="black" fill="none" stroke-width="6.0" stroke-linecap="round" stroke-linejoin="round" />
<path d="M 151.25 118.75 L 151.25 118.75 L 150.0 118.75 L 152.5 117.5 L 166.25 113.75 L 186.25 106.25 L 205.0 97.5 L 212.5 91.25 L 210.0 88.75 L 205.0 88.75 " stroke="black" fill="none" stroke-width="6.0" stroke-linecap="round" stroke-linejoin="round" />
<path d="M 161.25 126.25 L 158.75 143.75 L 161.25 175.0 L 165.0 215.0 L 170.0 243.75 L 176.25 251.25 L 186.25 252.5 L 198.75 250.0 L 210.0 245.0 L 222.5 241.25 L 232.5 238.75 L 237.5 236.25 L 236.25 235.0 L 230.0 235.0 " stroke="black" fill="none" stroke-width="6.0" stroke-linecap="round" stroke-linejoin="round" />
<path d="M 168.75 173.75 L 163.75 175.0 L 163.75 176.25 L 177.5 172.5 L 195.0 168.75 L 215.0 163.75 L 230.0 161.25 L 235.0 161.25 L 232.5 167.5 L 218.75 180.0 L 205.0 192.5 L 188.75 203.75 L 173.75 211.25 L 171.25 213.75 L 177.5 211.25 L 192.5 206.25 L 207.5 197.5 L 226.25 186.25 L 235.0 181.25 " stroke="black" fill="none" stroke-width="6.0" stroke-linecap="round" stroke-linejoin="round" />
</svg>