<svg xmlns="http://www.w3.org/2000/svg" width="300" height="300" viewBox="0 0 300 300">
<path d="M 77.5 98.75 L 76.25 98.75 L 75.0 100.0 L 75.0 101.25 L 77.5 106.25 L 83.75 115.0 L 90.0 121.25 L 97.5 121.25 L 110.0 111.25 L 122.5 98.75 L 128.75 91.25 L 128.75 90.0 L 120.0 93.75 L 107.5 103.75 " stroke="black" fill="none" stroke-width="6.0" stroke-linecap="round" stroke-linejoin="round" />
<path d="M 63.75 178.75 L 63.75 181.25 L 67.5 181.25 L 81.25 173.75 L 100.0 161.25 L 117.5 147.5 L 126.25 138.75 L 123.75 136.25 " stroke="black" fill="none" stroke-width="6.0" stroke-linecap="round" stroke-linejoin="round" />
<path d="M 95.0 136.25 L 93.75 143.75 L 93.75 156.25 L 93.75 185.0 L 88.75 218.75 L 80.0 240.0 L 67.5 246.25 L 57.5 243.75 L 53.75 238.75 " stroke="black" fill="none" stroke-width="6.0" stroke-linecap="round" stroke-linejoin="round" />
<path d="M 88.75 168.75 L 90.0 168.75 L 96.25 173.75 L 110.0 187.5 L 130.0 207.5 L 143.75 226.25 L 152.5 237.5 L 153.75 241.25 L 153.75 241.25 " stroke="black" fill="none" stroke-width="6.0" stroke-linecap="round" stroke-linejoin="round" />
<path d="M 165.0 76.25 L 165.0 77.5 L 166.25 78.75 L 175.0 78.75 L 186.25 76.25 L 198.75 72.5 L 205.0 71.25 L 202.5 71.25 " stroke="black" fill="none" stroke-width="6.0" stroke-linecap="round" stroke-linejoin="round" />
<path d="M 137.5 120.0 L 135.0 123.75 L 136.25 125.0 L 147.5 123.75 L 170.0 112.5 L 196.25 100.0 L 211.25 87.5 L 212.5 81.25 L 205.0 81.25 L 196.25 82.5 L 187.5 85.0 L 177.5 86.25 L 168.75 90.0 L 162.5 97.5 L 156.25 117.5 L 145.0 156.25 L 131.25 195.0 L 120.0 203.75 L 113.75 200.0 L 113.75 188.75 " stroke="black" fill="none" stroke-width="6.0" stroke-linecap="round" stroke-linejoin="round" />
<path d="M 182.5 105.0 L 190.0 105.0 L 205.0 107.5 L 226.25 116.25 L 246.25 127.5 L 257.5 133.75 L 260.0 137.5 L 256.25 138.75 " stroke="black" fill="none" stroke-width="6.0" stroke-linecap="round" stroke-linejoin="round" />
<path d="M 167.5 127.5 L 166.25 127.5 L 165.0 130.0 L 165.0 133.75 L 168.75 142.5 L 175.0 151.25 L 177.5 156.25 L 177.5 157.5 L 175.0 152.5 L 171.25 146.25 L 168.75 141.25 L 168.75 135.0 L 172.5 131.25 L 185.0 128.75 L 200.0 127.5 L 207.5 131.25 L 208.75 136.25 L 200.0 145.0 L 188.75 151.25 L 183.75 153.75 L 183.75 152.5 L 196.25 142.5 L 207.5 130.0 " stroke="black" fill="none" stroke-width="6.0" stroke-linecap="round" stroke-linejoin="round" />
<path d="M 147.5 183.75 L 147.5 183.75 L 146.25 183.75 L 146.25 183.75 L 147.5 197.5 L 153.75 223.75 L 160.0 243.75 L 162.5 246.25 L 162.5 241.25 L 161.25 227.5 L 161.25 223.75 " stroke="black" fill="none" stroke-width="6.0" stroke-linecap="round" stroke-linejoin="round" />
<path d="M 161.25 188.75 L 158.75 186.25 L 156.25 183.75 L 161.25 178.75 L 177.5 172.5 L 197.5 165.0 L 218.75 160.0 L 233.75 158.75 L 241.25 170.0 L 243.75 193.75 L 243.75 220.0 L 243.75 241.25 L 243.75 252.5 L 243.75 255.0 L 243.75 255.0 L 240.0 253.75 L 235.0 250.0 L 226.25 242.5 L 223.75 240.0 " stroke="black" fill="none" stroke-width="6.0" stroke-linecap="round" stroke-linejoin="round" />
<path d="M 178.75 191.25 L 177.5 193.75 L 175.0 200.0 L 177.5 210.0 L 185.0 222.5 L 191.25 231.25 L 193.75 231.25 L 192.5 227.5 L 187.5 220.0 L 183.75 213.75 L 180.0 207.5 L 176.25 202.5 L 176.25 197.5 L 183.75 195.0 L 197.5 193.75 L 208.75 193.75 L 215.0 196.25 L 213.75 205.0 L 203.75 216.25 L 192.5 227.5 L 187.5 231.25 L 188.75 230.0 L 201.25 217.5 L 216.25 202.5 L 222.5 195.0 " stroke="black" fill="none" stroke-width="6.0" stroke-linecap="round" stroke-linejoin="round" />
</svg>