<svg xmlns="http://www.w3.org/2000/svg" width="300" height="300" viewBox="0 0 300 300">
<path d="M 86.25 107.5 L 85.0 110.0 L 82.5 112.5 L 86.25 112.5 L 96.25 112.5 L 110.0 110.0 L 118.75 110.0 L 120.0 117.5 L 101.25 140.0 L 77.5 167.5 L 50.0 196.25 L 32.5 211.25 L 28.75 215.0 L 32.5 208.75 L 37.5 201.25 " stroke="black" fill="none" stroke-width="6.0" stroke-linecap="round" stroke-linejoin="round" />
<path d="M 66.25 176.25 L 70.0 176.25 L 75.0 188.75 L 80.0 215.0 L 83.75 237.5 L 85.0 243.75 L 85.0 243.75 " stroke="black" fill="none" stroke-width="6.0" stroke-linecap="round" stroke-linejoin="round" />
<path d="M 81.25 195.0 L 77.5 193.75 L 73.75 193.75 L 75.0 195.0 L 86.25 195.0 L 100.0 195.0 L 112.5 195.0 L 116.25 198.75 L 108.75 208.75 L 93.75 223.75 L 82.5 235.0 L 81.25 237.5 L 88.75 228.75 L 103.75 208.75 L 116.25 193.75 " stroke="black" fill="none" stroke-width="6.0" stroke-linecap="round" stroke-linejoin="round" />
<path d="M 152.5 90.0 L 151.25 87.5 L 150.0 86.25 L 150.0 86.25 L 150.0 95.0 L 152.5 113.75 L 155.0 128.75 L 157.5 136.25 L 157.5 137.5 " stroke="black" fill="none" stroke-width="6.0" stroke-linecap="round" stroke-linejoin="round" />
<path d="M 156.25 88.75 L 152.5 86.25 L 151.25 86.25 L 160.0 83.75 L 180.0 82.5 L 198.75 82.5 L 210.0 87.5 L 210.0 97.5 L 200.0 110.0 L 186.25 122.5 L 173.75 128.75 L 161.25 130.0 " stroke="black" fill="none" stroke-width="6.0" stroke-linecap="round" stroke-linejoin="round" />
<path d="M 156.25 110.0 L 156.25 110.0 L 156.25 111.25 L 157.5 111.25 L 165.0 111.25 L 181.25 106.25 L 196.25 100.0 L 202.5 96.25 " stroke="black" fill="none" stroke-width="6.0" stroke-linecap="round" stroke-linejoin="round" />
<path d="M 158.75 131.25 L 156.25 133.75 L 155.0 135.0 L 162.5 135.0 L 182.5 126.25 L 196.25 118.75 " stroke="black" fill="none" stroke-width="6.0" stroke-linecap="round" stroke-linejoin="round" />
<path d="M 163.75 140.0 L 162.5 141.25 L 153.75 152.5 L 146.25 168.75 L 140.0 188.75 L 137.5 197.5 L 138.75 196.25 L 143.75 190.0 L 150.0 183.75 L 155.0 178.75 L 161.25 175.0 L 170.0 171.25 L 185.0 165.0 L 202.5 158.75 L 217.5 152.5 L 226.25 151.25 L 228.75 152.5 L 226.25 168.75 L 222.5 196.25 L 218.75 226.25 L 217.5 250.0 L 217.5 260.0 L 216.25 261.25 L 216.25 261.25 L 213.75 258.75 L 208.75 253.75 L 202.5 246.25 L 197.5 242.5 " stroke="black" fill="none" stroke-width="6.0" stroke-linecap="round" stroke-linejoin="round" />
<path d="M 178.75 172.5 L 173.75 177.5 L 167.5 187.5 L 161.25 201.25 L 155.0 213.75 L 153.75 215.0 " stroke="black" fill="none" stroke-width="6.0" stroke-linecap="round" stroke-linejoin="round" />
<path d="M 166.25 195.0 L 167.5 195.0 L 172.5 196.25 L 185.0 200.0 L 200.0 203.75 L 210.0 206.25 L 210.0 207.5 " stroke="black" fill="none" stroke-width="6.0" stroke-linecap="round" stroke-linejoin="round" />
<path d="M 136.25 212.5 L 132.5 216.25 L 131.25 220.0 L 132.5 230.0 L 140.0 240.0 L 151.25 245.0 L 168.75 242.5 L 190.0 233.75 L 205.0 226.25 L 210.0 221.25 " stroke="black" fill="none" stroke-width="6.0" stroke-linecap="round" stroke-linejoin="round" />
</svg>