<svg xmlns="http://www.w3.org/2000/svg" width="300" height="300" viewBox="0 0 300 300">
<path d="M 133.75 73.75 L 133.75 73.75 L 133.75 72.5 L 136.25 72.5 L 146.25 72.5 L 161.25 75.0 L 172.5 75.0 L 173.75 75.0 L 165.0 76.25 " stroke="black" fill="none" stroke-width="6.0" stroke-linecap="round" stroke-linejoin="round" />
<path d="M 95.0 98.75 L 93.75 100.0 L 92.5 101.25 L 102.5 100.0 L 130.0 93.75 L 160.0 85.0 L 183.75 76.25 L 190.0 70.0 L 183.75 70.0 " stroke="black" fill="none" stroke-width="6.0" stroke-linecap="round" stroke-linejoin="round" />
<path d="M 113.75 101.25 L 107.5 118.75 L 106.25 153.75 L 102.5 208.75 L 96.25 246.25 L 90.0 260.0 L 82.5 261.25 L 77.5 257.5 " stroke="black" fill="none" stroke-width="6.0" stroke-linecap="round" stroke-linejoin="round" />
<path d="M 115.0 137.5 L 115.0 137.5 L 113.75 137.5 L 122.5 135.0 L 140.0 125.0 L 157.5 113.75 L 168.75 105.0 L 165.0 102.5 L 155.0 103.75 L 147.5 103.75 L 141.25 106.25 L 137.5 108.75 L 137.5 115.0 L 138.75 132.5 L 142.5 156.25 L 145.0 175.0 L 145.0 178.75 L 145.0 176.25 " stroke="black" fill="none" stroke-width="6.0" stroke-linecap="round" stroke-linejoin="round" />
<path d="M 142.5 132.5 L 140.0 135.0 L 135.0 145.0 L 128.75 162.5 L 121.25 185.0 L 116.25 192.5 L 116.25 192.5 " stroke="black" fill="none" stroke-width="6.0" stroke-linecap="round" stroke-linejoin="round" />
<path d="M 143.75 133.75 L 146.25 133.75 L 150.0 135.0 L 156.25 140.0 L 166.25 147.5 L 173.75 151.25 " stroke="black" fill="none" stroke-width="6.0" stroke-linecap="round" stroke-linejoin="round" />
<path d="M 168.75 125.0 L 167.5 125.0 L 166.25 125.0 L 172.5 125.0 L 188.75 120.0 L 207.5 111.25 L 217.5 101.25 L 216.25 97.5 L 208.75 97.5 L 202.5 96.25 L 198.75 96.25 L 196.25 96.25 L 196.25 103.75 L 196.25 122.5 L 193.75 145.0 L 191.25 158.75 L 188.75 160.0 L 186.25 151.25 L 185.0 148.75 " stroke="black" fill="none" stroke-width="6.0" stroke-linecap="round" stroke-linejoin="round" />
<path d="M 191.25 113.75 L 183.75 123.75 L 173.75 138.75 L 163.75 156.25 L 157.5 168.75 L 156.25 167.5 L 156.25 165.0 " stroke="black" fill="none" stroke-width="6.0" stroke-linecap="round" stroke-linejoin="round" />
<path d="M 196.25 121.25 L 198.75 121.25 L 203.75 123.75 L 212.5 132.5 L 225.0 142.5 L 231.25 150.0 L 228.75 152.5 " stroke="black" fill="none" stroke-width="6.0" stroke-linecap="round" stroke-linejoin="round" />
<path d="M 147.5 176.25 L 143.75 180.0 L 142.5 181.25 L 151.25 181.25 L 172.5 178.75 L 197.5 171.25 L 212.5 165.0 L 215.0 162.5 L 208.75 167.5 L 192.5 181.25 L 170.0 197.5 L 143.75 216.25 L 125.0 231.25 L 118.75 235.0 L 122.5 230.0 " stroke="black" fill="none" stroke-width="6.0" stroke-linecap="round" stroke-linejoin="round" />
<path d="M 152.5 206.25 L 152.5 207.5 L 152.5 211.25 L 156.25 221.25 L 167.5 238.75 L 178.75 251.25 L 181.25 252.5 L 180.0 251.25 L 176.25 245.0 L 171.25 238.75 L 167.5 230.0 L 161.25 220.0 L 157.5 215.0 L 156.25 213.75 L 162.5 213.75 L 180.0 211.25 L 202.5 207.5 L 222.5 202.5 L 230.0 202.5 L 227.5 208.75 L 213.75 221.25 L 200.0 235.0 L 187.5 246.25 L 182.5 250.0 L 187.5 250.0 L 202.5 243.75 L 218.75 233.75 L 235.0 221.25 " stroke="black" fill="none" stroke-width="6.0" stroke-linecap="round" stroke-linejoin="round" />
</svg>