<svg xmlns="http://www.w3.org/2000/svg" width="300" height="300" viewBox="0 0 300 300">
<path d="M 62.5 96.25 L 62.5 97.5 L 60.0 98.75 L 60.0 100.0 L 66.25 98.75 L 82.5 96.25 L 96.25 93.75 L 105.0 95.0 L 106.25 102.5 L 88.75 135.0 L 66.25 166.25 L 43.75 195.0 L 35.0 206.25 L 35.0 205.0 L 40.0 196.25 " stroke="black" fill="none" stroke-width="6.0" stroke-linecap="round" stroke-linejoin="round" />
<path d="M 65.0 165.0 L 65.0 166.25 L 65.0 170.0 L 67.5 181.25 L 77.5 206.25 L 90.0 226.25 L 97.5 231.25 L 97.5 230.0 L 96.25 225.0 L 92.5 218.75 L 87.5 211.25 L 81.25 205.0 L 73.75 197.5 L 68.75 192.5 L 66.25 188.75 L 76.25 183.75 L 91.25 177.5 L 107.5 173.75 L 110.0 173.75 L 117.5 188.75 L 107.5 207.5 L 96.25 223.75 L 91.25 231.25 L 91.25 228.75 L 102.5 207.5 L 118.75 182.5 " stroke="black" fill="none" stroke-width="6.0" stroke-linecap="round" stroke-linejoin="round" />
<path d="M 162.5 70.0 L 160.0 70.0 L 157.5 70.0 L 160.0 71.25 L 170.0 75.0 L 182.5 76.25 L 191.25 77.5 L 192.5 80.0 L 180.0 85.0 L 171.25 86.25 " stroke="black" fill="none" stroke-width="6.0" stroke-linecap="round" stroke-linejoin="round" />
<path d="M 125.0 106.25 L 120.0 110.0 L 117.5 111.25 L 125.0 110.0 L 142.5 102.5 L 163.75 90.0 L 188.75 76.25 L 201.25 67.5 L 198.75 66.25 L 187.5 72.5 L 175.0 77.5 L 163.75 81.25 L 155.0 86.25 L 150.0 92.5 L 150.0 106.25 L 155.0 126.25 L 158.75 137.5 L 160.0 138.75 L 160.0 128.75 L 161.25 125.0 " stroke="black" fill="none" stroke-width="6.0" stroke-linecap="round" stroke-linejoin="round" />
<path d="M 180.0 87.5 L 182.5 82.5 L 182.5 82.5 L 180.0 91.25 L 173.75 106.25 L 163.75 126.25 L 161.25 130.0 " stroke="black" fill="none" stroke-width="6.0" stroke-linecap="round" stroke-linejoin="round" />
<path d="M 140.0 132.5 L 138.75 130.0 L 137.5 128.75 L 138.75 132.5 L 142.5 147.5 L 146.25 166.25 L 148.75 182.5 L 148.75 188.75 L 147.5 185.0 L 146.25 181.25 " stroke="black" fill="none" stroke-width="6.0" stroke-linecap="round" stroke-linejoin="round" />
<path d="M 146.25 155.0 L 146.25 151.25 L 146.25 147.5 L 155.0 142.5 L 175.0 133.75 L 198.75 123.75 L 210.0 118.75 L 211.25 117.5 L 207.5 122.5 L 198.75 132.5 L 187.5 142.5 L 175.0 151.25 L 163.75 160.0 L 158.75 165.0 L 161.25 165.0 L 171.25 163.75 L 185.0 156.25 L 197.5 148.75 L 205.0 143.75 L 206.25 142.5 L 198.75 147.5 L 187.5 156.25 L 176.25 165.0 " stroke="black" fill="none" stroke-width="6.0" stroke-linecap="round" stroke-linejoin="round" />
<path d="M 131.25 221.25 L 128.75 223.75 L 118.75 233.75 L 120.0 233.75 L 135.0 223.75 L 156.25 206.25 L 182.5 185.0 L 207.5 161.25 L 217.5 147.5 L 218.75 145.0 L 213.75 147.5 L 202.5 158.75 L 190.0 180.0 L 173.75 207.5 L 155.0 241.25 L 147.5 258.75 L 146.25 262.5 L 147.5 258.75 " stroke="black" fill="none" stroke-width="6.0" stroke-linecap="round" stroke-linejoin="round" />
<path d="M 182.5 190.0 L 182.5 190.0 L 183.75 188.75 L 187.5 187.5 L 198.75 190.0 L 213.75 195.0 L 222.5 202.5 L 225.0 218.75 L 216.25 242.5 L 206.25 260.0 L 196.25 271.25 L 188.75 272.5 L 187.5 268.75 L 187.5 258.75 L 185.0 246.25 L 182.5 238.75 " stroke="black" fill="none" stroke-width="6.0" stroke-linecap="round" stroke-linejoin="round" />
</svg>