<svg xmlns="http://www.w3.org/2000/svg" width="300" height="300" viewBox="0 0 300 300">
<path d="M 73.75 88.75 L 71.25 90.0 L 70.0 91.25 L 77.5 91.25 L 91.25 92.5 L 103.75 93.75 L 113.75 97.5 L 112.5 108.75 L 93.75 136.25 L 68.75 167.5 L 43.75 192.5 L 36.25 198.75 L 37.5 195.0 L 38.75 192.5 " stroke="black" fill="none" stroke-width="6.0" stroke-linecap="round" stroke-linejoin="round" />
<path d="M 81.25 157.5 L 81.25 167.5 L 82.5 185.0 L 87.5 205.0 L 91.25 217.5 L 92.5 218.75 L 92.5 217.5 " stroke="black" fill="none" stroke-width="6.0" stroke-linecap="round" stroke-linejoin="round" />
<path d="M 86.25 177.5 L 83.75 176.25 L 82.5 176.25 L 87.5 175.0 L 98.75 173.75 L 112.5 175.0 L 121.25 178.75 L 121.25 187.5 L 108.75 200.0 L 96.25 211.25 L 90.0 215.0 L 92.5 211.25 L 106.25 195.0 L 125.0 170.0 L 130.0 163.75 " stroke="black" fill="none" stroke-width="6.0" stroke-linecap="round" stroke-linejoin="round" />
<path d="M 165.0 67.5 L 165.0 67.5 L 163.75 66.25 L 163.75 66.25 L 180.0 65.0 L 193.75 65.0 L 203.75 63.75 L 206.25 63.75 " stroke="black" fill="none" stroke-width="6.0" stroke-linecap="round" stroke-linejoin="round" />
<path d="M 152.5 101.25 L 151.25 103.75 L 147.5 116.25 L 150.0 135.0 L 153.75 151.25 L 158.75 157.5 L 158.75 158.75 L 158.75 157.5 " stroke="black" fill="none" stroke-width="6.0" stroke-linecap="round" stroke-linejoin="round" />
<path d="M 150.0 115.0 L 148.75 111.25 L 150.0 108.75 L 163.75 105.0 L 188.75 102.5 L 210.0 102.5 L 223.75 106.25 L 226.25 117.5 L 218.75 133.75 L 205.0 148.75 L 193.75 156.25 " stroke="black" fill="none" stroke-width="6.0" stroke-linecap="round" stroke-linejoin="round" />
<path d="M 153.75 140.0 L 153.75 140.0 L 152.5 140.0 L 162.5 138.75 L 187.5 132.5 L 211.25 122.5 L 222.5 113.75 L 222.5 113.75 " stroke="black" fill="none" stroke-width="6.0" stroke-linecap="round" stroke-linejoin="round" />
<path d="M 167.5 152.5 L 163.75 155.0 L 167.5 155.0 L 182.5 147.5 L 200.0 137.5 L 208.75 127.5 " stroke="black" fill="none" stroke-width="6.0" stroke-linecap="round" stroke-linejoin="round" />
<path d="M 192.5 108.75 L 190.0 110.0 L 188.75 116.25 L 188.75 132.5 L 185.0 155.0 L 173.75 178.75 L 158.75 193.75 L 152.5 196.25 " stroke="black" fill="none" stroke-width="6.0" stroke-linecap="round" stroke-linejoin="round" />
<path d="M 127.5 205.0 L 127.5 206.25 L 128.75 208.75 L 140.0 208.75 L 162.5 205.0 L 193.75 195.0 L 220.0 183.75 L 233.75 175.0 L 238.75 170.0 L 238.75 167.5 " stroke="black" fill="none" stroke-width="6.0" stroke-linecap="round" stroke-linejoin="round" />
<path d="M 210.0 155.0 L 210.0 156.25 L 210.0 160.0 L 210.0 180.0 L 211.25 213.75 L 207.5 242.5 L 202.5 255.0 L 197.5 258.75 " stroke="black" fill="none" stroke-width="6.0" stroke-linecap="round" stroke-linejoin="round" />
</svg>