<svg xmlns="http://www.w3.org/2000/svg" width="300" height="300" viewBox="0 0 300 300">
<path d="M 58.75 92.5 L 57.5 92.5 L 55.0 92.5 L 63.75 92.5 L 80.0 92.5 L 97.5 92.5 L 110.0 91.25 L 113.75 91.25 L 110.0 98.75 L 96.25 120.0 L 75.0 147.5 L 50.0 176.25 L 36.25 192.5 L 35.0 196.25 L 35.0 195.0 " stroke="black" fill="none" stroke-width="6.0" stroke-linecap="round" stroke-linejoin="round" />
<path d="M 63.75 155.0 L 63.75 155.0 L 61.25 157.5 L 62.5 170.0 L 68.75 196.25 L 76.25 215.0 L 82.5 222.5 L 83.75 220.0 " stroke="black" fill="none" stroke-width="6.0" stroke-linecap="round" stroke-linejoin="round" />
<path d="M 68.75 171.25 L 67.5 171.25 L 65.0 171.25 L 68.75 171.25 L 81.25 171.25 L 97.5 168.75 L 112.5 167.5 L 117.5 172.5 L 107.5 187.5 L 92.5 203.75 L 80.0 216.25 L 76.25 221.25 L 81.25 220.0 L 95.0 211.25 L 115.0 197.5 L 125.0 191.25 " stroke="black" fill="none" stroke-width="6.0" stroke-linecap="round" stroke-linejoin="round" />
<path d="M 150.0 61.25 L 150.0 60.0 L 150.0 58.75 L 156.25 61.25 L 166.25 67.5 L 175.0 72.5 L 177.5 78.75 " stroke="black" fill="none" stroke-width="6.0" stroke-linecap="round" stroke-linejoin="round" />
<path d="M 142.5 91.25 L 141.25 91.25 L 140.0 96.25 L 142.5 106.25 L 147.5 121.25 L 151.25 130.0 " stroke="black" fill="none" stroke-width="6.0" stroke-linecap="round" stroke-linejoin="round" />
<path d="M 203.75 85.0 L 202.5 85.0 L 197.5 88.75 L 186.25 100.0 L 167.5 116.25 L 151.25 130.0 L 136.25 140.0 L 131.25 142.5 L 132.5 142.5 L 145.0 140.0 L 167.5 131.25 L 193.75 120.0 L 213.75 107.5 L 222.5 101.25 L 217.5 98.75 L 208.75 97.5 " stroke="black" fill="none" stroke-width="6.0" stroke-linecap="round" stroke-linejoin="round" />
<path d="M 173.75 82.5 L 172.5 83.75 L 172.5 93.75 L 171.25 123.75 L 170.0 158.75 L 170.0 180.0 L 167.5 185.0 L 163.75 183.75 " stroke="black" fill="none" stroke-width="6.0" stroke-linecap="round" stroke-linejoin="round" />
<path d="M 167.5 133.75 L 163.75 137.5 L 150.0 156.25 L 133.75 183.75 L 111.25 206.25 L 98.75 215.0 L 95.0 213.75 L 95.0 208.75 " stroke="black" fill="none" stroke-width="6.0" stroke-linecap="round" stroke-linejoin="round" />
<path d="M 175.0 132.5 L 178.75 132.5 L 195.0 136.25 L 217.5 145.0 L 233.75 150.0 L 243.75 153.75 L 245.0 156.25 L 233.75 158.75 " stroke="black" fill="none" stroke-width="6.0" stroke-linecap="round" stroke-linejoin="round" />
<path d="M 150.0 188.75 L 147.5 195.0 L 145.0 211.25 L 143.75 233.75 L 145.0 247.5 L 147.5 250.0 L 148.75 248.75 L 148.75 246.25 " stroke="black" fill="none" stroke-width="6.0" stroke-linecap="round" stroke-linejoin="round" />
<path d="M 147.5 192.5 L 147.5 192.5 L 148.75 192.5 L 162.5 191.25 L 188.75 188.75 L 210.0 188.75 L 221.25 195.0 L 221.25 210.0 L 215.0 230.0 L 205.0 247.5 L 196.25 257.5 L 193.75 257.5 " stroke="black" fill="none" stroke-width="6.0" stroke-linecap="round" stroke-linejoin="round" />
<path d="M 156.25 226.25 L 167.5 223.75 L 188.75 216.25 L 200.0 208.75 L 201.25 205.0 " stroke="black" fill="none" stroke-width="6.0" stroke-linecap="round" stroke-linejoin="round" />
<path d="M 167.5 188.75 L 167.5 190.0 L 167.5 195.0 L 170.0 207.5 L 172.5 228.75 L 171.25 246.25 L 165.0 252.5 L 155.0 253.75 L 146.25 253.75 L 142.5 253.75 L 142.5 252.5 L 153.75 251.25 L 172.5 248.75 L 196.25 246.25 L 211.25 243.75 L 217.5 241.25 L 217.5 241.25 " stroke="black" fill="none" stroke-width="6.0" stroke-linecap="round" stroke-linejoin="round" />
</svg>