<svg xmlns="http://www.w3.org/2000/svg" width="300" height="300" viewBox="0 0 300 300">
<path d="M 87.5 92.5 L 86.25 92.5 L 83.75 92.5 L 82.5 92.5 L 83.75 93.75 L 92.5 95.0 L 102.5 96.25 L 110.0 97.5 L 111.25 98.75 " stroke="black" fill="none" stroke-width="6.0" stroke-linecap="round" stroke-linejoin="round" />
<path d="M 58.75 140.0 L 57.5 142.5 L 55.0 146.25 L 60.0 147.5 L 75.0 145.0 L 93.75 138.75 L 106.25 135.0 L 110.0 133.75 L 102.5 145.0 L 86.25 167.5 L 70.0 192.5 L 53.75 208.75 L 46.25 211.25 L 46.25 206.25 " stroke="black" fill="none" stroke-width="6.0" stroke-linecap="round" stroke-linejoin="round" />
<path d="M 86.25 173.75 L 86.25 180.0 L 88.75 193.75 L 93.75 221.25 L 97.5 246.25 L 98.75 256.25 L 96.25 256.25 L 96.25 256.25 " stroke="black" fill="none" stroke-width="6.0" stroke-linecap="round" stroke-linejoin="round" />
<path d="M 90.0 182.5 L 88.75 182.5 L 87.5 182.5 L 87.5 182.5 L 93.75 182.5 L 105.0 182.5 L 120.0 180.0 " stroke="black" fill="none" stroke-width="6.0" stroke-linecap="round" stroke-linejoin="round" />
<path d="M 130.0 92.5 L 128.75 92.5 L 125.0 93.75 L 123.75 93.75 L 127.5 98.75 L 135.0 110.0 L 142.5 118.75 L 146.25 123.75 L 147.5 123.75 L 145.0 120.0 L 142.5 113.75 L 140.0 108.75 L 137.5 103.75 L 135.0 100.0 L 135.0 97.5 L 138.75 95.0 L 147.5 92.5 L 158.75 91.25 L 166.25 91.25 L 167.5 95.0 L 161.25 103.75 L 153.75 112.5 L 146.25 120.0 L 143.75 122.5 L 146.25 121.25 L 156.25 111.25 L 168.75 98.75 L 178.75 87.5 L 181.25 86.25 " stroke="black" fill="none" stroke-width="6.0" stroke-linecap="round" stroke-linejoin="round" />
<path d="M 186.25 76.25 L 186.25 76.25 L 182.5 80.0 L 182.5 85.0 L 185.0 95.0 L 190.0 105.0 L 193.75 111.25 L 196.25 113.75 L 196.25 112.5 L 195.0 107.5 L 193.75 102.5 L 192.5 97.5 L 191.25 91.25 L 188.75 87.5 L 187.5 83.75 L 187.5 81.25 L 191.25 81.25 L 198.75 80.0 L 206.25 80.0 L 210.0 82.5 L 210.0 88.75 L 202.5 98.75 L 195.0 107.5 L 190.0 111.25 L 190.0 111.25 L 197.5 106.25 L 208.75 96.25 L 216.25 87.5 " stroke="black" fill="none" stroke-width="6.0" stroke-linecap="round" stroke-linejoin="round" />
<path d="M 143.75 150.0 L 142.5 150.0 L 141.25 148.75 L 140.0 148.75 L 142.5 157.5 L 147.5 175.0 L 151.25 191.25 L 153.75 198.75 L 153.75 200.0 L 151.25 193.75 " stroke="black" fill="none" stroke-width="6.0" stroke-linecap="round" stroke-linejoin="round" />
<path d="M 146.25 155.0 L 143.75 153.75 L 141.25 152.5 L 143.75 151.25 L 158.75 146.25 L 185.0 138.75 L 207.5 133.75 L 221.25 133.75 L 222.5 140.0 L 212.5 153.75 L 200.0 171.25 L 188.75 186.25 L 177.5 192.5 L 170.0 193.75 " stroke="black" fill="none" stroke-width="6.0" stroke-linecap="round" stroke-linejoin="round" />
<path d="M 162.5 166.25 L 161.25 166.25 L 155.0 167.5 L 152.5 168.75 L 156.25 168.75 L 171.25 162.5 L 191.25 153.75 L 206.25 146.25 L 211.25 141.25 L 210.0 141.25 " stroke="black" fill="none" stroke-width="6.0" stroke-linecap="round" stroke-linejoin="round" />
<path d="M 152.5 197.5 L 150.0 200.0 L 147.5 203.75 L 151.25 201.25 L 167.5 191.25 L 188.75 177.5 L 203.75 163.75 L 207.5 157.5 L 202.5 160.0 " stroke="black" fill="none" stroke-width="6.0" stroke-linecap="round" stroke-linejoin="round" />
<path d="M 115.0 248.75 L 112.5 250.0 L 115.0 250.0 L 133.75 242.5 L 166.25 223.75 L 207.5 202.5 L 230.0 192.5 L 240.0 187.5 L 237.5 186.25 L 227.5 186.25 L 213.75 186.25 L 211.25 187.5 " stroke="black" fill="none" stroke-width="6.0" stroke-linecap="round" stroke-linejoin="round" />
<path d="M 182.5 148.75 L 182.5 146.25 L 182.5 143.75 L 183.75 141.25 L 185.0 140.0 L 187.5 140.0 L 188.75 148.75 L 191.25 175.0 L 191.25 223.75 L 191.25 270.0 L 191.25 288.75 L 190.0 296.25 L 188.75 297.5 L 186.25 297.5 L 181.25 290.0 L 180.0 288.75 " stroke="black" fill="none" stroke-width="6.0" stroke-linecap="round" stroke-linejoin="round" />
</svg>