<svg xmlns="http://www.w3.org/2000/svg" width="300" height="300" viewBox="0 0 300 300">
<path d="M 97.5 127.5 L 97.5 127.5 L 93.75 127.5 L 93.75 127.5 L 102.5 127.5 L 117.5 127.5 L 132.5 123.75 L 137.5 122.5 " stroke="black" fill="none" stroke-width="6.0" stroke-linecap="round" stroke-linejoin="round" />
<path d="M 77.5 182.5 L 75.0 183.75 L 75.0 185.0 L 85.0 180.0 L 102.5 170.0 L 118.75 162.5 L 125.0 161.25 L 117.5 177.5 L 101.25 201.25 L 86.25 223.75 L 77.5 240.0 L 75.0 242.5 L 75.0 241.25 " stroke="black" fill="none" stroke-width="6.0" stroke-linecap="round" stroke-linejoin="round" />
<path d="M 97.5 203.75 L 97.5 205.0 L 97.5 210.0 L 100.0 225.0 L 110.0 243.75 L 120.0 252.5 L 122.5 252.5 L 122.5 247.5 " stroke="black" fill="none" stroke-width="6.0" stroke-linecap="round" stroke-linejoin="round" />
<path d="M 150.0 177.5 L 146.25 178.75 L 137.5 185.0 L 122.5 197.5 L 107.5 208.75 L 100.0 213.75 L 98.75 215.0 L 105.0 215.0 L 118.75 217.5 L 133.75 222.5 L 148.75 226.25 L 158.75 226.25 L 161.25 218.75 L 161.25 216.25 " stroke="black" fill="none" stroke-width="6.0" stroke-linecap="round" stroke-linejoin="round" />
<path d="M 160.0 123.75 L 160.0 123.75 L 161.25 126.25 L 163.75 141.25 L 170.0 171.25 L 178.75 188.75 L 186.25 190.0 L 186.25 183.75 " stroke="black" fill="none" stroke-width="6.0" stroke-linecap="round" stroke-linejoin="round" />
<path d="M 172.5 145.0 L 167.5 142.5 L 166.25 141.25 L 177.5 138.75 L 197.5 135.0 L 218.75 131.25 L 235.0 131.25 L 237.5 141.25 L 228.75 158.75 L 213.75 178.75 L 200.0 192.5 L 186.25 195.0 L 182.5 195.0 " stroke="black" fill="none" stroke-width="6.0" stroke-linecap="round" stroke-linejoin="round" />
<path d="M 171.25 175.0 L 171.25 173.75 L 171.25 171.25 L 180.0 166.25 L 198.75 157.5 L 216.25 148.75 L 222.5 147.5 L 213.75 153.75 L 208.75 158.75 " stroke="black" fill="none" stroke-width="6.0" stroke-linecap="round" stroke-linejoin="round" />
<path d="M 181.25 197.5 L 181.25 198.75 L 178.75 201.25 L 185.0 200.0 L 200.0 188.75 L 216.25 170.0 L 226.25 151.25 L 226.25 143.75 L 221.25 142.5 " stroke="black" fill="none" stroke-width="6.0" stroke-linecap="round" stroke-linejoin="round" />
<path d="M 196.25 102.5 L 196.25 102.5 L 193.75 101.25 L 193.75 100.0 L 193.75 101.25 L 196.25 118.75 L 198.75 162.5 L 200.0 220.0 L 201.25 258.75 L 201.25 281.25 L 201.25 295.0 L 201.25 297.5 L 200.0 298.75 L 196.25 296.25 " stroke="black" fill="none" stroke-width="6.0" stroke-linecap="round" stroke-linejoin="round" />
</svg>