<svg xmlns="http://www.w3.org/2000/svg" width="300" height="300" viewBox="0 0 300 300">
<path d="M 123.75 78.75 L 123.75 78.75 L 122.5 78.75 L 126.25 78.75 L 138.75 78.75 L 150.0 78.75 L 158.75 76.25 L 158.75 76.25 " stroke="black" fill="none" stroke-width="6.0" stroke-linecap="round" stroke-linejoin="round" />
<path d="M 91.25 132.5 L 87.5 136.25 L 85.0 138.75 L 91.25 138.75 L 110.0 131.25 L 136.25 113.75 L 163.75 91.25 L 178.75 80.0 L 180.0 77.5 L 171.25 80.0 L 160.0 86.25 L 151.25 90.0 L 142.5 95.0 L 137.5 97.5 L 133.75 100.0 L 133.75 105.0 L 137.5 125.0 L 142.5 153.75 L 143.75 172.5 L 143.75 176.25 L 142.5 173.75 L 141.25 165.0 " stroke="black" fill="none" stroke-width="6.0" stroke-linecap="round" stroke-linejoin="round" />
<path d="M 132.5 135.0 L 120.0 146.25 L 112.5 158.75 L 95.0 192.5 L 81.25 213.75 L 72.5 221.25 L 70.0 213.75 " stroke="black" fill="none" stroke-width="6.0" stroke-linecap="round" stroke-linejoin="round" />
<path d="M 133.75 128.75 L 146.25 126.25 L 166.25 130.0 L 191.25 138.75 L 207.5 145.0 L 218.75 147.5 L 222.5 151.25 L 216.25 156.25 L 210.0 157.5 " stroke="black" fill="none" stroke-width="6.0" stroke-linecap="round" stroke-linejoin="round" />
<path d="M 121.25 188.75 L 120.0 188.75 L 115.0 188.75 L 115.0 191.25 L 120.0 207.5 L 127.5 231.25 L 135.0 245.0 L 138.75 246.25 L 138.75 246.25 " stroke="black" fill="none" stroke-width="6.0" stroke-linecap="round" stroke-linejoin="round" />
<path d="M 142.5 176.25 L 142.5 176.25 L 141.25 176.25 L 143.75 176.25 L 156.25 172.5 L 173.75 168.75 L 187.5 167.5 L 190.0 173.75 L 180.0 188.75 L 166.25 202.5 L 155.0 215.0 L 151.25 220.0 L 153.75 220.0 L 165.0 216.25 L 180.0 206.25 L 196.25 195.0 L 205.0 191.25 L 207.5 197.5 L 205.0 220.0 L 197.5 248.75 L 192.5 266.25 L 190.0 271.25 L 190.0 271.25 L 188.75 266.25 L 186.25 256.25 L 185.0 252.5 " stroke="black" fill="none" stroke-width="6.0" stroke-linecap="round" stroke-linejoin="round" />
</svg>