<svg xmlns="http://www.w3.org/2000/svg" width="300" height="300" viewBox="0 0 300 300">
<path d="M 122.5 83.75 L 120.0 85.0 L 115.0 87.5 L 116.25 88.75 L 130.0 91.25 L 150.0 91.25 L 173.75 90.0 L 197.5 82.5 L 203.75 77.5 L 198.75 75.0 " stroke="black" fill="none" stroke-width="6.0" stroke-linecap="round" stroke-linejoin="round" />
<path d="M 105.0 122.5 L 102.5 126.25 L 101.25 131.25 L 107.5 141.25 L 116.25 155.0 L 122.5 163.75 L 123.75 167.5 L 121.25 168.75 " stroke="black" fill="none" stroke-width="6.0" stroke-linecap="round" stroke-linejoin="round" />
<path d="M 108.75 135.0 L 107.5 135.0 L 110.0 133.75 L 128.75 128.75 L 150.0 125.0 L 188.75 117.5 L 202.5 116.25 L 202.5 121.25 L 191.25 131.25 L 175.0 141.25 L 157.5 148.75 L 141.25 156.25 L 131.25 162.5 L 128.75 163.75 L 133.75 163.75 L 152.5 157.5 L 172.5 148.75 L 191.25 140.0 L 200.0 133.75 " stroke="black" fill="none" stroke-width="6.0" stroke-linecap="round" stroke-linejoin="round" />
<path d="M 87.5 186.25 L 83.75 187.5 L 81.25 193.75 L 81.25 208.75 L 86.25 231.25 L 90.0 245.0 L 92.5 248.75 L 92.5 247.5 " stroke="black" fill="none" stroke-width="6.0" stroke-linecap="round" stroke-linejoin="round" />
<path d="M 95.0 206.25 L 93.75 206.25 L 91.25 205.0 L 95.0 205.0 L 113.75 201.25 L 147.5 191.25 L 181.25 180.0 L 205.0 173.75 L 216.25 176.25 L 221.25 188.75 L 220.0 208.75 L 212.5 232.5 L 206.25 250.0 L 202.5 258.75 L 200.0 260.0 L 198.75 260.0 L 197.5 257.5 L 195.0 252.5 L 192.5 250.0 " stroke="black" fill="none" stroke-width="6.0" stroke-linecap="round" stroke-linejoin="round" />
<path d="M 137.5 118.75 L 137.5 117.5 L 136.25 113.75 L 135.0 112.5 L 135.0 111.25 L 137.5 112.5 L 140.0 118.75 L 143.75 133.75 L 146.25 161.25 L 145.0 200.0 L 141.25 227.5 L 137.5 240.0 L 135.0 245.0 L 133.75 245.0 L 131.25 245.0 L 131.25 245.0 L 131.25 245.0 L 131.25 245.0 L 135.0 241.25 L 143.75 235.0 L 155.0 226.25 L 170.0 215.0 L 182.5 205.0 L 187.5 201.25 L 187.5 198.75 L 185.0 198.75 L 183.75 198.75 L 182.5 198.75 L 182.5 197.5 L 181.25 197.5 L 181.25 197.5 L 181.25 197.5 L 181.25 198.75 L 183.75 205.0 L 187.5 216.25 L 193.75 226.25 L 196.25 232.5 " stroke="black" fill="none" stroke-width="6.0" stroke-linecap="round" stroke-linejoin="round" />
</svg>