<svg xmlns="http://www.w3.org/2000/svg" width="300" height="300" viewBox="0 0 300 300">
<path d="M 76.25 112.5 L 73.75 113.75 L 68.75 115.0 L 72.5 115.0 L 86.25 116.25 L 102.5 116.25 L 118.75 113.75 L 126.25 112.5 L 123.75 112.5 " stroke="black" fill="none" stroke-width="6.0" stroke-linecap="round" stroke-linejoin="round" />
<path d="M 72.5 152.5 L 67.5 157.5 L 66.25 158.75 L 76.25 157.5 L 93.75 148.75 L 116.25 136.25 L 130.0 126.25 L 130.0 123.75 L 117.5 126.25 L 107.5 130.0 L 100.0 136.25 L 97.5 150.0 L 103.75 182.5 L 111.25 213.75 L 113.75 228.75 L 107.5 236.25 L 102.5 236.25 L 95.0 230.0 L 85.0 223.75 L 76.25 217.5 L 73.75 210.0 L 82.5 197.5 L 106.25 177.5 L 136.25 151.25 L 157.5 130.0 L 165.0 118.75 L 165.0 115.0 L 160.0 117.5 L 153.75 132.5 L 153.75 152.5 L 157.5 161.25 L 172.5 161.25 L 196.25 145.0 L 213.75 126.25 L 222.5 112.5 L 221.25 103.75 L 212.5 102.5 " stroke="black" fill="none" stroke-width="6.0" stroke-linecap="round" stroke-linejoin="round" />
<path d="M 176.25 85.0 L 176.25 85.0 L 177.5 85.0 L 180.0 103.75 L 177.5 151.25 L 165.0 191.25 L 150.0 211.25 L 136.25 220.0 L 127.5 221.25 " stroke="black" fill="none" stroke-width="6.0" stroke-linecap="round" stroke-linejoin="round" />
<path d="M 176.25 157.5 L 177.5 157.5 L 182.5 162.5 L 195.0 177.5 L 213.75 201.25 L 236.25 228.75 L 253.75 246.25 L 262.5 252.5 L 267.5 255.0 L 266.25 255.0 " stroke="black" fill="none" stroke-width="6.0" stroke-linecap="round" stroke-linejoin="round" />
</svg>