<svg xmlns="http://www.w3.org/2000/svg" width="300" height="300" viewBox="0 0 300 300">
<path d="M 93.75 92.5 L 91.25 92.5 L 90.0 92.5 L 90.0 92.5 L 97.5 92.5 L 111.25 95.0 L 123.75 96.25 L 130.0 96.25 L 130.0 96.25 " stroke="black" fill="none" stroke-width="6.0" stroke-linecap="round" stroke-linejoin="round" />
<path d="M 76.25 132.5 L 73.75 137.5 L 72.5 138.75 L 82.5 138.75 L 98.75 133.75 L 116.25 127.5 L 127.5 123.75 L 130.0 123.75 L 120.0 136.25 L 103.75 155.0 L 87.5 180.0 L 70.0 202.5 L 57.5 212.5 L 56.25 210.0 " stroke="black" fill="none" stroke-width="6.0" stroke-linecap="round" stroke-linejoin="round" />
<path d="M 102.5 160.0 L 102.5 161.25 L 101.25 163.75 L 101.25 171.25 L 102.5 192.5 L 107.5 221.25 L 112.5 242.5 L 113.75 246.25 L 111.25 246.25 " stroke="black" fill="none" stroke-width="6.0" stroke-linecap="round" stroke-linejoin="round" />
<path d="M 103.75 162.5 L 103.75 162.5 L 103.75 162.5 L 105.0 163.75 L 113.75 168.75 L 130.0 176.25 L 142.5 180.0 " stroke="black" fill="none" stroke-width="6.0" stroke-linecap="round" stroke-linejoin="round" />
<path d="M 161.25 97.5 L 161.25 97.5 L 161.25 97.5 L 166.25 97.5 L 178.75 97.5 L 196.25 97.5 L 206.25 100.0 L 210.0 105.0 L 207.5 113.75 L 197.5 126.25 L 183.75 140.0 L 168.75 152.5 L 158.75 161.25 L 156.25 165.0 L 162.5 165.0 L 177.5 160.0 L 196.25 151.25 L 211.25 142.5 L 217.5 136.25 L 218.75 131.25 L 210.0 130.0 L 203.75 130.0 " stroke="black" fill="none" stroke-width="6.0" stroke-linecap="round" stroke-linejoin="round" />
<path d="M 165.0 106.25 L 165.0 106.25 L 163.75 106.25 L 163.75 106.25 L 163.75 113.75 L 163.75 135.0 L 166.25 168.75 L 172.5 200.0 L 181.25 216.25 L 191.25 225.0 L 202.5 232.5 L 213.75 237.5 L 227.5 237.5 L 238.75 237.5 L 247.5 236.25 L 253.75 233.75 L 257.5 232.5 L 258.75 230.0 L 260.0 230.0 L 260.0 228.75 L 260.0 226.25 L 260.0 221.25 L 257.5 210.0 L 255.0 185.0 L 253.75 176.25 " stroke="black" fill="none" stroke-width="6.0" stroke-linecap="round" stroke-linejoin="round" />
</svg>