<svg xmlns="http://www.w3.org/2000/svg" width="300" height="300" viewBox="0 0 300 300">
<path d="M 131.25 80.0 L 131.25 80.0 L 130.0 80.0 L 132.5 78.75 L 145.0 83.75 L 163.75 90.0 L 182.5 97.5 L 188.75 102.5 L 180.0 107.5 " stroke="black" fill="none" stroke-width="6.0" stroke-linecap="round" stroke-linejoin="round" />
<path d="M 100.0 151.25 L 95.0 155.0 L 93.75 156.25 L 105.0 156.25 L 130.0 151.25 L 162.5 138.75 L 190.0 128.75 L 196.25 126.25 L 187.5 128.75 L 172.5 135.0 L 157.5 143.75 L 143.75 155.0 L 135.0 181.25 L 135.0 215.0 L 140.0 237.5 L 146.25 240.0 L 148.75 235.0 " stroke="black" fill="none" stroke-width="6.0" stroke-linecap="round" stroke-linejoin="round" />
<path d="M 187.5 152.5 L 187.5 152.5 L 188.75 157.5 L 185.0 181.25 L 170.0 210.0 L 153.75 230.0 L 140.0 241.25 L 123.75 245.0 L 108.75 247.5 L 105.0 247.5 L 106.25 247.5 L 116.25 246.25 L 136.25 241.25 L 157.5 236.25 L 182.5 232.5 L 210.0 231.25 L 230.0 232.5 L 245.0 236.25 L 253.75 238.75 L 253.75 238.75 " stroke="black" fill="none" stroke-width="6.0" stroke-linecap="round" stroke-linejoin="round" />
</svg>