<svg xmlns="http://www.w3.org/2000/svg" width="300" height="300" viewBox="0 0 300 300">
<path d="M 61.25 118.75 L 61.25 118.75 L 61.25 117.5 L 66.25 115.0 L 82.5 112.5 L 105.0 110.0 L 120.0 107.5 L 122.5 107.5 L 112.5 111.25 " stroke="black" fill="none" stroke-width="6.0" stroke-linecap="round" stroke-linejoin="round" />
<path d="M 58.75 166.25 L 57.5 170.0 L 57.5 171.25 L 67.5 168.75 L 88.75 157.5 L 108.75 143.75 L 118.75 135.0 L 117.5 132.5 L 105.0 133.75 L 96.25 136.25 L 91.25 140.0 L 88.75 147.5 L 90.0 171.25 L 96.25 212.5 L 97.5 240.0 L 97.5 245.0 L 95.0 245.0 L 91.25 241.25 L 85.0 235.0 L 78.75 228.75 L 75.0 222.5 L 76.25 216.25 L 87.5 205.0 L 110.0 185.0 L 128.75 167.5 " stroke="black" fill="none" stroke-width="6.0" stroke-linecap="round" stroke-linejoin="round" />
<path d="M 131.25 91.25 L 131.25 91.25 L 131.25 91.25 L 135.0 91.25 L 151.25 90.0 L 175.0 86.25 L 193.75 81.25 L 198.75 78.75 L 197.5 77.5 " stroke="black" fill="none" stroke-width="6.0" stroke-linecap="round" stroke-linejoin="round" />
<path d="M 152.5 92.5 L 151.25 95.0 L 150.0 102.5 L 148.75 116.25 L 152.5 128.75 L 157.5 131.25 L 157.5 130.0 " stroke="black" fill="none" stroke-width="6.0" stroke-linecap="round" stroke-linejoin="round" />
<path d="M 167.5 93.75 L 167.5 93.75 L 167.5 91.25 L 167.5 91.25 L 167.5 98.75 L 166.25 112.5 L 165.0 125.0 L 165.0 126.25 " stroke="black" fill="none" stroke-width="6.0" stroke-linecap="round" stroke-linejoin="round" />
<path d="M 192.5 98.75 L 192.5 97.5 L 192.5 98.75 L 185.0 110.0 L 167.5 133.75 L 158.75 143.75 " stroke="black" fill="none" stroke-width="6.0" stroke-linecap="round" stroke-linejoin="round" />
<path d="M 136.25 152.5 L 136.25 152.5 L 133.75 151.25 L 133.75 161.25 L 135.0 192.5 L 135.0 223.75 L 137.5 238.75 L 137.5 240.0 L 137.5 231.25 " stroke="black" fill="none" stroke-width="6.0" stroke-linecap="round" stroke-linejoin="round" />
<path d="M 136.25 178.75 L 135.0 178.75 L 132.5 178.75 L 132.5 178.75 L 143.75 172.5 L 165.0 160.0 L 195.0 147.5 L 213.75 142.5 L 220.0 147.5 L 222.5 168.75 L 222.5 202.5 L 222.5 236.25 L 221.25 261.25 L 221.25 266.25 L 221.25 265.0 L 217.5 260.0 L 210.0 250.0 L 201.25 238.75 L 196.25 230.0 " stroke="black" fill="none" stroke-width="6.0" stroke-linecap="round" stroke-linejoin="round" />
<path d="M 163.75 145.0 L 163.75 145.0 L 163.75 146.25 L 163.75 162.5 L 166.25 190.0 L 165.0 208.75 L 158.75 211.25 " stroke="black" fill="none" stroke-width="6.0" stroke-linecap="round" stroke-linejoin="round" />
<path d="M 150.0 197.5 L 148.75 197.5 L 147.5 196.25 L 148.75 195.0 L 161.25 190.0 L 182.5 181.25 L 198.75 171.25 L 202.5 167.5 L 200.0 168.75 " stroke="black" fill="none" stroke-width="6.0" stroke-linecap="round" stroke-linejoin="round" />
<path d="M 142.5 226.25 L 140.0 228.75 L 138.75 231.25 L 151.25 226.25 L 180.0 211.25 L 212.5 195.0 L 232.5 186.25 L 235.0 185.0 " stroke="black" fill="none" stroke-width="6.0" stroke-linecap="round" stroke-linejoin="round" />
</svg>