<svg xmlns="http://www.w3.org/2000/svg" width="300" height="300" viewBox="0 0 300 300">
<path d="M 65.0 98.75 L 65.0 98.75 L 63.75 98.75 L 62.5 98.75 L 67.5 100.0 L 80.0 102.5 L 92.5 105.0 L 100.0 107.5 L 101.25 110.0 " stroke="black" fill="none" stroke-width="6.0" stroke-linecap="round" stroke-linejoin="round" />
<path d="M 47.5 145.0 L 46.25 146.25 L 45.0 147.5 L 48.75 147.5 L 67.5 141.25 L 87.5 131.25 L 106.25 120.0 L 112.5 113.75 L 106.25 116.25 " stroke="black" fill="none" stroke-width="6.0" stroke-linecap="round" stroke-linejoin="round" />
<path d="M 77.5 143.75 L 75.0 146.25 L 72.5 155.0 L 72.5 177.5 L 75.0 201.25 L 76.25 213.75 L 76.25 215.0 " stroke="black" fill="none" stroke-width="6.0" stroke-linecap="round" stroke-linejoin="round" />
<path d="M 88.75 141.25 L 90.0 141.25 L 90.0 141.25 L 91.25 152.5 L 91.25 180.0 L 83.75 206.25 L 73.75 220.0 L 65.0 226.25 L 61.25 230.0 L 62.5 231.25 L 68.75 232.5 L 82.5 231.25 L 98.75 222.5 L 121.25 210.0 L 133.75 201.25 " stroke="black" fill="none" stroke-width="6.0" stroke-linecap="round" stroke-linejoin="round" />
<path d="M 147.5 80.0 L 146.25 78.75 L 143.75 76.25 L 143.75 76.25 L 143.75 83.75 L 145.0 97.5 L 148.75 110.0 L 156.25 116.25 L 168.75 112.5 L 185.0 100.0 L 197.5 87.5 L 202.5 78.75 L 203.75 73.75 L 203.75 71.25 L 202.5 70.0 L 202.5 68.75 L 201.25 68.75 L 201.25 68.75 L 201.25 68.75 L 201.25 68.75 L 201.25 68.75 L 203.75 72.5 L 210.0 78.75 L 216.25 88.75 L 221.25 98.75 L 220.0 106.25 L 217.5 107.5 " stroke="black" fill="none" stroke-width="6.0" stroke-linecap="round" stroke-linejoin="round" />
<path d="M 170.0 66.25 L 168.75 66.25 L 167.5 66.25 L 168.75 72.5 L 175.0 92.5 L 177.5 113.75 L 177.5 118.75 " stroke="black" fill="none" stroke-width="6.0" stroke-linecap="round" stroke-linejoin="round" />
<path d="M 152.5 140.0 L 152.5 140.0 L 152.5 140.0 L 158.75 140.0 L 176.25 138.75 L 196.25 135.0 L 205.0 135.0 L 205.0 135.0 L 192.5 146.25 L 172.5 161.25 L 151.25 176.25 L 137.5 187.5 L 133.75 187.5 L 133.75 183.75 L 136.25 178.75 L 136.25 177.5 L 136.25 177.5 L 138.75 186.25 L 145.0 205.0 L 151.25 226.25 L 157.5 240.0 L 162.5 243.75 L 162.5 241.25 L 161.25 240.0 " stroke="black" fill="none" stroke-width="6.0" stroke-linecap="round" stroke-linejoin="round" />
<path d="M 141.25 190.0 L 140.0 188.75 L 140.0 186.25 L 150.0 183.75 L 181.25 177.5 L 221.25 172.5 L 250.0 172.5 L 260.0 180.0 L 258.75 192.5 L 248.75 205.0 L 235.0 216.25 L 216.25 226.25 L 200.0 232.5 " stroke="black" fill="none" stroke-width="6.0" stroke-linecap="round" stroke-linejoin="round" />
<path d="M 183.75 188.75 L 181.25 188.75 L 178.75 193.75 L 178.75 210.0 L 182.5 228.75 L 185.0 238.75 L 185.0 238.75 " stroke="black" fill="none" stroke-width="6.0" stroke-linecap="round" stroke-linejoin="round" />
<path d="M 201.25 181.25 L 201.25 181.25 L 201.25 180.0 L 201.25 190.0 L 201.25 220.0 L 201.25 253.75 L 196.25 277.5 " stroke="black" fill="none" stroke-width="6.0" stroke-linecap="round" stroke-linejoin="round" />
</svg>