<svg xmlns="http://www.w3.org/2000/svg" width="300" height="300" viewBox="0 0 300 300">
<path d="M 76.25 93.75 L 76.25 93.75 L 75.0 93.75 L 76.25 93.75 L 85.0 95.0 L 97.5 97.5 L 108.75 100.0 L 110.0 102.5 " stroke="black" fill="none" stroke-width="6.0" stroke-linecap="round" stroke-linejoin="round" />
<path d="M 57.5 145.0 L 57.5 145.0 L 58.75 145.0 L 71.25 138.75 L 92.5 127.5 L 108.75 118.75 L 112.5 115.0 L 106.25 117.5 L 97.5 123.75 L 91.25 131.25 L 85.0 141.25 L 81.25 156.25 L 81.25 186.25 L 83.75 210.0 L 86.25 216.25 " stroke="black" fill="none" stroke-width="6.0" stroke-linecap="round" stroke-linejoin="round" />
<path d="M 103.75 130.0 L 103.75 130.0 L 103.75 132.5 L 103.75 151.25 L 98.75 181.25 L 91.25 202.5 L 81.25 211.25 L 75.0 215.0 L 73.75 216.25 L 78.75 217.5 L 90.0 217.5 L 103.75 213.75 L 117.5 208.75 L 131.25 203.75 L 138.75 197.5 " stroke="black" fill="none" stroke-width="6.0" stroke-linecap="round" stroke-linejoin="round" />
<path d="M 173.75 75.0 L 172.5 75.0 L 168.75 75.0 L 167.5 80.0 L 167.5 103.75 L 170.0 131.25 L 173.75 143.75 L 175.0 143.75 " stroke="black" fill="none" stroke-width="6.0" stroke-linecap="round" stroke-linejoin="round" />
<path d="M 163.75 91.25 L 163.75 91.25 L 162.5 90.0 L 168.75 87.5 L 186.25 85.0 L 206.25 85.0 L 216.25 92.5 L 216.25 105.0 L 203.75 123.75 L 190.0 136.25 L 176.25 140.0 L 163.75 137.5 " stroke="black" fill="none" stroke-width="6.0" stroke-linecap="round" stroke-linejoin="round" />
<path d="M 167.5 116.25 L 168.75 116.25 L 168.75 115.0 L 170.0 113.75 L 177.5 110.0 L 192.5 103.75 L 205.0 98.75 L 208.75 96.25 L 208.75 97.5 " stroke="black" fill="none" stroke-width="6.0" stroke-linecap="round" stroke-linejoin="round" />
<path d="M 173.75 138.75 L 173.75 138.75 L 171.25 140.0 L 171.25 141.25 L 181.25 136.25 L 196.25 125.0 L 207.5 113.75 L 208.75 110.0 " stroke="black" fill="none" stroke-width="6.0" stroke-linecap="round" stroke-linejoin="round" />
<path d="M 175.0 151.25 L 170.0 156.25 L 155.0 177.5 L 143.75 195.0 L 136.25 202.5 L 132.5 203.75 L 132.5 201.25 " stroke="black" fill="none" stroke-width="6.0" stroke-linecap="round" stroke-linejoin="round" />
<path d="M 168.75 166.25 L 170.0 166.25 L 172.5 165.0 L 187.5 158.75 L 207.5 152.5 L 227.5 148.75 L 240.0 148.75 L 242.5 152.5 L 238.75 168.75 L 232.5 193.75 L 227.5 213.75 L 223.75 228.75 L 221.25 238.75 L 220.0 240.0 L 217.5 238.75 L 212.5 233.75 L 203.75 227.5 L 196.25 221.25 " stroke="black" fill="none" stroke-width="6.0" stroke-linecap="round" stroke-linejoin="round" />
<path d="M 193.75 157.5 L 190.0 160.0 L 183.75 170.0 L 175.0 185.0 L 168.75 200.0 L 165.0 203.75 " stroke="black" fill="none" stroke-width="6.0" stroke-linecap="round" stroke-linejoin="round" />
<path d="M 190.0 176.25 L 190.0 176.25 L 191.25 176.25 L 195.0 176.25 L 202.5 177.5 L 207.5 182.5 L 207.5 183.75 " stroke="black" fill="none" stroke-width="6.0" stroke-linecap="round" stroke-linejoin="round" />
<path d="M 155.0 187.5 L 153.75 187.5 L 152.5 187.5 L 153.75 195.0 L 162.5 210.0 L 173.75 220.0 L 198.75 223.75 L 216.25 212.5 L 226.25 202.5 " stroke="black" fill="none" stroke-width="6.0" stroke-linecap="round" stroke-linejoin="round" />
</svg>