<svg xmlns="http://www.w3.org/2000/svg" width="300" height="300" viewBox="0 0 300 300">
<path d="M 81.25 88.75 L 80.0 90.0 L 80.0 91.25 L 81.25 92.5 L 90.0 93.75 L 101.25 95.0 L 112.5 95.0 L 115.0 95.0 L 115.0 95.0 " stroke="black" fill="none" stroke-width="6.0" stroke-linecap="round" stroke-linejoin="round" />
<path d="M 72.5 142.5 L 71.25 145.0 L 71.25 146.25 L 80.0 143.75 L 93.75 135.0 L 110.0 122.5 L 120.0 111.25 L 122.5 103.75 L 112.5 103.75 " stroke="black" fill="none" stroke-width="6.0" stroke-linecap="round" stroke-linejoin="round" />
<path d="M 97.5 111.25 L 97.5 112.5 L 96.25 116.25 L 97.5 130.0 L 102.5 166.25 L 106.25 212.5 L 105.0 232.5 L 101.25 238.75 L 96.25 238.75 L 91.25 233.75 " stroke="black" fill="none" stroke-width="6.0" stroke-linecap="round" stroke-linejoin="round" />
<path d="M 92.5 167.5 L 87.5 178.75 L 80.0 193.75 L 68.75 207.5 L 60.0 212.5 L 56.25 211.25 " stroke="black" fill="none" stroke-width="6.0" stroke-linecap="round" stroke-linejoin="round" />
<path d="M 91.25 157.5 L 92.5 157.5 L 96.25 160.0 L 102.5 163.75 L 115.0 173.75 L 127.5 183.75 L 135.0 190.0 L 137.5 192.5 L 138.75 192.5 L 138.75 192.5 L 137.5 193.75 " stroke="black" fill="none" stroke-width="6.0" stroke-linecap="round" stroke-linejoin="round" />
<path d="M 146.25 107.5 L 146.25 107.5 L 145.0 110.0 L 148.75 108.75 L 161.25 102.5 L 178.75 95.0 L 192.5 86.25 L 196.25 80.0 L 190.0 78.75 " stroke="black" fill="none" stroke-width="6.0" stroke-linecap="round" stroke-linejoin="round" />
<path d="M 163.75 82.5 L 163.75 85.0 L 162.5 92.5 L 160.0 105.0 L 156.25 127.5 L 152.5 142.5 L 150.0 143.75 L 150.0 138.75 L 150.0 136.25 " stroke="black" fill="none" stroke-width="6.0" stroke-linecap="round" stroke-linejoin="round" />
<path d="M 168.75 97.5 L 168.75 97.5 L 171.25 100.0 L 177.5 107.5 L 186.25 122.5 L 200.0 132.5 L 213.75 133.75 L 222.5 127.5 L 226.25 120.0 L 223.75 113.75 L 218.75 113.75 " stroke="black" fill="none" stroke-width="6.0" stroke-linecap="round" stroke-linejoin="round" />
<path d="M 202.5 70.0 L 202.5 70.0 L 202.5 70.0 L 203.75 72.5 L 208.75 77.5 L 210.0 80.0 " stroke="black" fill="none" stroke-width="6.0" stroke-linecap="round" stroke-linejoin="round" />
<path d="M 162.5 157.5 L 162.5 157.5 L 160.0 161.25 L 161.25 162.5 L 171.25 160.0 L 183.75 155.0 L 193.75 147.5 L 196.25 142.5 L 193.75 141.25 L 185.0 141.25 " stroke="black" fill="none" stroke-width="6.0" stroke-linecap="round" stroke-linejoin="round" />
<path d="M 146.25 142.5 L 143.75 146.25 L 143.75 153.75 L 148.75 167.5 L 162.5 177.5 L 182.5 181.25 L 202.5 175.0 L 216.25 165.0 L 225.0 155.0 L 226.25 152.5 " stroke="black" fill="none" stroke-width="6.0" stroke-linecap="round" stroke-linejoin="round" />
<path d="M 158.75 205.0 L 158.75 206.25 L 153.75 208.75 L 151.25 213.75 L 150.0 227.5 L 155.0 247.5 L 160.0 258.75 L 163.75 260.0 L 163.75 257.5 " stroke="black" fill="none" stroke-width="6.0" stroke-linecap="round" stroke-linejoin="round" />
<path d="M 155.0 207.5 L 152.5 207.5 L 152.5 206.25 L 157.5 205.0 L 175.0 201.25 L 197.5 198.75 L 213.75 197.5 L 222.5 201.25 L 222.5 211.25 L 221.25 231.25 L 217.5 248.75 L 217.5 257.5 L 216.25 261.25 L 215.0 261.25 L 211.25 260.0 " stroke="black" fill="none" stroke-width="6.0" stroke-linecap="round" stroke-linejoin="round" />
<path d="M 161.25 236.25 L 158.75 237.5 L 155.0 240.0 L 156.25 240.0 L 167.5 237.5 L 185.0 232.5 L 200.0 225.0 L 207.5 220.0 L 207.5 218.75 " stroke="black" fill="none" stroke-width="6.0" stroke-linecap="round" stroke-linejoin="round" />
<path d="M 157.5 260.0 L 156.25 261.25 L 156.25 263.75 L 167.5 263.75 L 190.0 261.25 L 208.75 255.0 L 216.25 252.5 " stroke="black" fill="none" stroke-width="6.0" stroke-linecap="round" stroke-linejoin="round" />
</svg>