<svg xmlns="http://www.w3.org/2000/svg" width="300" height="300" viewBox="0 0 300 300">
<path d="M 78.75 91.25 L 78.75 92.5 L 80.0 93.75 L 87.5 97.5 L 98.75 101.25 L 110.0 103.75 L 112.5 105.0 L 111.25 106.25 " stroke="black" fill="none" stroke-width="6.0" stroke-linecap="round" stroke-linejoin="round" />
<path d="M 57.5 148.75 L 56.25 150.0 L 56.25 151.25 L 72.5 148.75 L 96.25 137.5 L 118.75 126.25 L 128.75 118.75 " stroke="black" fill="none" stroke-width="6.0" stroke-linecap="round" stroke-linejoin="round" />
<path d="M 92.5 145.0 L 90.0 151.25 L 87.5 168.75 L 87.5 195.0 L 88.75 211.25 L 90.0 213.75 L 90.0 212.5 " stroke="black" fill="none" stroke-width="6.0" stroke-linecap="round" stroke-linejoin="round" />
<path d="M 101.25 150.0 L 101.25 151.25 L 103.75 160.0 L 105.0 178.75 L 102.5 200.0 L 95.0 212.5 L 86.25 218.75 L 76.25 221.25 L 75.0 221.25 L 78.75 220.0 L 91.25 217.5 L 108.75 212.5 L 130.0 205.0 L 145.0 197.5 " stroke="black" fill="none" stroke-width="6.0" stroke-linecap="round" stroke-linejoin="round" />
<path d="M 161.25 88.75 L 161.25 90.0 L 160.0 95.0 L 167.5 97.5 L 185.0 97.5 L 203.75 97.5 L 216.25 96.25 L 225.0 91.25 L 216.25 91.25 " stroke="black" fill="none" stroke-width="6.0" stroke-linecap="round" stroke-linejoin="round" />
<path d="M 150.0 132.5 L 150.0 133.75 L 148.75 136.25 L 156.25 137.5 L 175.0 132.5 L 198.75 123.75 L 213.75 115.0 L 217.5 108.75 " stroke="black" fill="none" stroke-width="6.0" stroke-linecap="round" stroke-linejoin="round" />
<path d="M 177.5 135.0 L 171.25 148.75 L 170.0 172.5 L 173.75 203.75 L 180.0 220.0 L 185.0 223.75 L 185.0 223.75 " stroke="black" fill="none" stroke-width="6.0" stroke-linecap="round" stroke-linejoin="round" />
<path d="M 206.25 138.75 L 206.25 138.75 L 207.5 141.25 L 210.0 152.5 L 207.5 178.75 L 202.5 202.5 L 193.75 217.5 L 182.5 223.75 L 172.5 228.75 L 166.25 230.0 L 165.0 231.25 L 165.0 231.25 L 165.0 231.25 L 168.75 231.25 L 175.0 230.0 L 185.0 227.5 L 195.0 225.0 L 206.25 222.5 L 218.75 221.25 L 233.75 220.0 L 250.0 217.5 L 262.5 213.75 L 267.5 210.0 " stroke="black" fill="none" stroke-width="6.0" stroke-linecap="round" stroke-linejoin="round" />
</svg>