<svg xmlns="http://www.w3.org/2000/svg" width="300" height="300" viewBox="0 0 300 300">
<path d="M 90.0 80.0 L 90.0 80.0 L 88.75 80.0 L 90.0 80.0 L 97.5 82.5 L 110.0 83.75 L 117.5 86.25 L 118.75 87.5 " stroke="black" fill="none" stroke-width="6.0" stroke-linecap="round" stroke-linejoin="round" />
<path d="M 61.25 123.75 L 58.75 126.25 L 60.0 127.5 L 75.0 123.75 L 96.25 112.5 L 116.25 101.25 L 123.75 96.25 L 117.5 97.5 L 103.75 102.5 L 95.0 107.5 L 86.25 116.25 L 82.5 128.75 L 82.5 147.5 L 83.75 165.0 L 85.0 172.5 " stroke="black" fill="none" stroke-width="6.0" stroke-linecap="round" stroke-linejoin="round" />
<path d="M 98.75 118.75 L 100.0 117.5 L 100.0 117.5 L 102.5 121.25 L 102.5 135.0 L 97.5 151.25 L 83.75 166.25 L 65.0 178.75 L 53.75 183.75 L 55.0 183.75 L 67.5 177.5 L 88.75 165.0 L 108.75 150.0 L 123.75 140.0 L 125.0 137.5 L 113.75 143.75 L 101.25 150.0 L 92.5 155.0 L 83.75 161.25 L 80.0 173.75 L 78.75 190.0 L 78.75 203.75 L 81.25 212.5 L 83.75 213.75 L 83.75 211.25 L 82.5 205.0 L 80.0 198.75 L 76.25 195.0 L 73.75 190.0 L 76.25 186.25 L 88.75 178.75 L 106.25 170.0 L 118.75 167.5 L 121.25 171.25 L 110.0 186.25 L 97.5 200.0 L 87.5 211.25 L 80.0 218.75 L 80.0 217.5 L 87.5 210.0 L 97.5 200.0 L 103.75 192.5 L 107.5 191.25 L 105.0 200.0 L 97.5 216.25 L 92.5 233.75 L 90.0 246.25 L 91.25 248.75 L 95.0 240.0 L 98.75 225.0 L 103.75 211.25 L 107.5 202.5 L 108.75 201.25 L 110.0 211.25 L 116.25 230.0 L 122.5 248.75 L 128.75 253.75 L 135.0 243.75 L 143.75 216.25 L 151.25 190.0 L 156.25 160.0 L 157.5 145.0 " stroke="black" fill="none" stroke-width="6.0" stroke-linecap="round" stroke-linejoin="round" />
<path d="M 165.0 68.75 L 165.0 68.75 L 167.5 70.0 L 177.5 72.5 L 193.75 76.25 L 206.25 77.5 L 207.5 80.0 L 202.5 81.25 " stroke="black" fill="none" stroke-width="6.0" stroke-linecap="round" stroke-linejoin="round" />
<path d="M 141.25 111.25 L 140.0 111.25 L 140.0 111.25 L 147.5 111.25 L 180.0 96.25 L 205.0 82.5 L 213.75 75.0 L 212.5 75.0 L 202.5 82.5 L 191.25 90.0 L 178.75 98.75 L 170.0 107.5 L 167.5 123.75 L 170.0 142.5 L 173.75 156.25 L 176.25 161.25 L 177.5 158.75 L 176.25 151.25 L 175.0 142.5 L 172.5 133.75 L 171.25 126.25 L 171.25 120.0 L 173.75 115.0 L 185.0 112.5 L 197.5 112.5 L 205.0 115.0 L 206.25 125.0 L 197.5 138.75 L 185.0 151.25 L 168.75 161.25 L 155.0 167.5 L 150.0 168.75 L 148.75 168.75 " stroke="black" fill="none" stroke-width="6.0" stroke-linecap="round" stroke-linejoin="round" />
<path d="M 146.25 172.5 L 143.75 173.75 L 141.25 175.0 L 143.75 175.0 L 160.0 168.75 L 186.25 157.5 L 213.75 142.5 L 230.0 132.5 L 233.75 131.25 L 231.25 131.25 L 222.5 135.0 L 212.5 142.5 L 202.5 148.75 L 193.75 153.75 L 190.0 156.25 " stroke="black" fill="none" stroke-width="6.0" stroke-linecap="round" stroke-linejoin="round" />
<path d="M 167.5 170.0 L 166.25 170.0 L 165.0 171.25 L 163.75 172.5 L 166.25 181.25 L 172.5 196.25 L 177.5 207.5 L 181.25 212.5 L 181.25 213.75 L 181.25 210.0 L 176.25 205.0 L 170.0 200.0 L 166.25 195.0 L 166.25 190.0 L 175.0 182.5 L 193.75 170.0 L 210.0 160.0 L 218.75 157.5 L 216.25 162.5 L 206.25 176.25 L 196.25 191.25 L 183.75 202.5 L 176.25 208.75 L 176.25 207.5 L 187.5 198.75 L 198.75 188.75 L 206.25 182.5 L 207.5 182.5 L 200.0 197.5 L 188.75 220.0 L 178.75 241.25 L 175.0 250.0 L 178.75 246.25 L 182.5 238.75 " stroke="black" fill="none" stroke-width="6.0" stroke-linecap="round" stroke-linejoin="round" />
<path d="M 203.75 192.5 L 203.75 193.75 L 203.75 201.25 L 207.5 218.75 L 216.25 237.5 L 230.0 245.0 L 245.0 238.75 L 255.0 225.0 L 260.0 211.25 L 261.25 200.0 L 258.75 188.75 L 252.5 170.0 L 248.75 157.5 " stroke="black" fill="none" stroke-width="6.0" stroke-linecap="round" stroke-linejoin="round" />
</svg>