<svg xmlns="http://www.w3.org/2000/svg" width="300" height="300" viewBox="0 0 300 300">
<path d="M 123.75 55.0 L 123.75 55.0 L 125.0 53.75 L 126.25 53.75 L 132.5 53.75 L 141.25 56.25 L 147.5 58.75 L 147.5 60.0 " stroke="black" fill="none" stroke-width="6.0" stroke-linecap="round" stroke-linejoin="round" />
<path d="M 75.0 78.75 L 73.75 78.75 L 71.25 80.0 L 71.25 85.0 L 71.25 97.5 L 73.75 112.5 L 76.25 120.0 L 76.25 120.0 " stroke="black" fill="none" stroke-width="6.0" stroke-linecap="round" stroke-linejoin="round" />
<path d="M 77.5 90.0 L 77.5 90.0 L 77.5 88.75 L 95.0 86.25 L 137.5 81.25 L 180.0 78.75 L 205.0 77.5 L 207.5 78.75 L 198.75 85.0 L 180.0 92.5 L 157.5 96.25 L 152.5 97.5 " stroke="black" fill="none" stroke-width="6.0" stroke-linecap="round" stroke-linejoin="round" />
<path d="M 115.0 85.0 L 115.0 83.75 L 115.0 83.75 L 111.25 90.0 L 102.5 111.25 L 92.5 136.25 L 88.75 142.5 " stroke="black" fill="none" stroke-width="6.0" stroke-linecap="round" stroke-linejoin="round" />
<path d="M 135.0 91.25 L 140.0 92.5 L 150.0 100.0 L 170.0 112.5 L 186.25 122.5 " stroke="black" fill="none" stroke-width="6.0" stroke-linecap="round" stroke-linejoin="round" />
<path d="M 76.25 147.5 L 71.25 148.75 L 70.0 150.0 L 77.5 150.0 L 95.0 148.75 L 112.5 143.75 L 127.5 138.75 L 128.75 136.25 L 116.25 138.75 " stroke="black" fill="none" stroke-width="6.0" stroke-linecap="round" stroke-linejoin="round" />
<path d="M 92.5 155.0 L 88.75 160.0 L 85.0 175.0 L 83.75 201.25 L 85.0 226.25 L 87.5 236.25 L 90.0 236.25 L 90.0 226.25 L 90.0 221.25 " stroke="black" fill="none" stroke-width="6.0" stroke-linecap="round" stroke-linejoin="round" />
<path d="M 82.5 176.25 L 82.5 175.0 L 82.5 175.0 L 86.25 172.5 L 98.75 166.25 L 115.0 162.5 L 128.75 170.0 L 137.5 197.5 L 137.5 232.5 L 136.25 260.0 L 135.0 268.75 L 135.0 266.25 L 132.5 257.5 L 127.5 245.0 L 120.0 233.75 L 113.75 221.25 " stroke="black" fill="none" stroke-width="6.0" stroke-linecap="round" stroke-linejoin="round" />
<path d="M 91.25 190.0 L 90.0 190.0 L 87.5 190.0 L 83.75 190.0 L 85.0 190.0 L 95.0 185.0 L 108.75 178.75 L 120.0 172.5 L 120.0 171.25 " stroke="black" fill="none" stroke-width="6.0" stroke-linecap="round" stroke-linejoin="round" />
<path d="M 81.25 208.75 L 77.5 210.0 L 76.25 211.25 L 83.75 210.0 L 98.75 202.5 L 113.75 195.0 L 122.5 190.0 L 121.25 190.0 " stroke="black" fill="none" stroke-width="6.0" stroke-linecap="round" stroke-linejoin="round" />
<path d="M 71.25 240.0 L 70.0 240.0 L 72.5 240.0 L 87.5 231.25 L 108.75 218.75 L 121.25 213.75 L 117.5 220.0 L 101.25 240.0 L 86.25 256.25 L 77.5 262.5 L 76.25 261.25 " stroke="black" fill="none" stroke-width="6.0" stroke-linecap="round" stroke-linejoin="round" />
<path d="M 160.0 135.0 L 160.0 135.0 L 160.0 135.0 L 160.0 135.0 L 165.0 136.25 L 177.5 141.25 L 190.0 147.5 L 195.0 150.0 L 191.25 155.0 L 175.0 165.0 L 157.5 175.0 L 148.75 181.25 L 148.75 181.25 L 161.25 178.75 L 178.75 171.25 L 193.75 165.0 L 201.25 163.75 L 198.75 170.0 L 186.25 187.5 L 170.0 203.75 L 153.75 215.0 L 148.75 220.0 L 151.25 218.75 L 163.75 212.5 L 182.5 203.75 L 200.0 197.5 L 211.25 196.25 L 213.75 211.25 L 208.75 240.0 L 198.75 263.75 L 190.0 275.0 L 186.25 276.25 L 182.5 275.0 L 177.5 268.75 L 170.0 260.0 " stroke="black" fill="none" stroke-width="6.0" stroke-linecap="round" stroke-linejoin="round" />
</svg>