<svg xmlns="http://www.w3.org/2000/svg" width="300" height="300" viewBox="0 0 300 300">
<path d="M 86.25 107.5 L 86.25 108.75 L 83.75 110.0 L 87.5 110.0 L 100.0 108.75 L 117.5 105.0 L 130.0 102.5 L 131.25 101.25 " stroke="black" fill="none" stroke-width="6.0" stroke-linecap="round" stroke-linejoin="round" />
<path d="M 70.0 166.25 L 68.75 168.75 L 75.0 166.25 L 92.5 157.5 L 110.0 145.0 L 123.75 136.25 L 125.0 133.75 " stroke="black" fill="none" stroke-width="6.0" stroke-linecap="round" stroke-linejoin="round" />
<path d="M 100.0 155.0 L 100.0 163.75 L 97.5 183.75 L 97.5 203.75 L 97.5 213.75 L 97.5 213.75 L 97.5 211.25 " stroke="black" fill="none" stroke-width="6.0" stroke-linecap="round" stroke-linejoin="round" />
<path d="M 115.0 151.25 L 116.25 151.25 L 118.75 152.5 L 120.0 167.5 L 113.75 193.75 L 103.75 212.5 L 95.0 223.75 L 88.75 227.5 L 87.5 227.5 L 91.25 227.5 L 101.25 227.5 L 116.25 222.5 L 136.25 213.75 L 150.0 205.0 L 156.25 195.0 L 156.25 190.0 " stroke="black" fill="none" stroke-width="6.0" stroke-linecap="round" stroke-linejoin="round" />
<path d="M 160.0 101.25 L 157.5 102.5 L 155.0 102.5 L 156.25 102.5 L 171.25 98.75 L 188.75 92.5 L 205.0 86.25 L 210.0 83.75 L 203.75 86.25 " stroke="black" fill="none" stroke-width="6.0" stroke-linecap="round" stroke-linejoin="round" />
<path d="M 153.75 128.75 L 152.5 132.5 L 151.25 147.5 L 156.25 165.0 L 163.75 180.0 L 167.5 183.75 L 168.75 185.0 L 167.5 181.25 L 163.75 175.0 L 160.0 168.75 L 156.25 162.5 L 153.75 158.75 L 152.5 156.25 L 155.0 152.5 L 170.0 147.5 L 192.5 138.75 L 213.75 130.0 L 222.5 127.5 L 222.5 128.75 L 212.5 138.75 L 201.25 151.25 L 185.0 165.0 L 166.25 180.0 L 158.75 187.5 L 162.5 186.25 L 175.0 181.25 L 192.5 170.0 L 207.5 157.5 L 216.25 147.5 L 216.25 142.5 L 213.75 141.25 " stroke="black" fill="none" stroke-width="6.0" stroke-linecap="round" stroke-linejoin="round" />
<path d="M 187.5 71.25 L 187.5 70.0 L 186.25 67.5 L 186.25 67.5 L 186.25 75.0 L 187.5 103.75 L 192.5 161.25 L 196.25 217.5 L 197.5 248.75 L 197.5 261.25 L 197.5 267.5 L 195.0 267.5 L 192.5 261.25 L 187.5 250.0 L 185.0 236.25 " stroke="black" fill="none" stroke-width="6.0" stroke-linecap="round" stroke-linejoin="round" />
<path d="M 196.25 173.75 L 196.25 175.0 L 190.0 182.5 L 182.5 197.5 L 168.75 217.5 L 155.0 235.0 L 146.25 241.25 L 142.5 238.75 L 141.25 235.0 " stroke="black" fill="none" stroke-width="6.0" stroke-linecap="round" stroke-linejoin="round" />
<path d="M 185.0 181.25 L 190.0 182.5 L 203.75 190.0 L 222.5 203.75 L 243.75 218.75 L 261.25 233.75 L 272.5 243.75 L 282.5 250.0 L 283.75 252.5 " stroke="black" fill="none" stroke-width="6.0" stroke-linecap="round" stroke-linejoin="round" />
</svg>