<svg xmlns="http://www.w3.org/2000/svg" width="300" height="300" viewBox="0 0 300 300">
<path d="M 77.5 106.25 L 73.75 105.0 L 72.5 103.75 L 71.25 105.0 L 76.25 115.0 L 80.0 128.75 L 83.75 137.5 L 91.25 138.75 L 103.75 126.25 L 120.0 108.75 L 133.75 97.5 L 136.25 95.0 L 131.25 97.5 " stroke="black" fill="none" stroke-width="6.0" stroke-linecap="round" stroke-linejoin="round" />
<path d="M 108.75 126.25 L 108.75 128.75 L 108.75 135.0 L 108.75 151.25 L 110.0 178.75 L 107.5 201.25 L 103.75 203.75 L 101.25 200.0 " stroke="black" fill="none" stroke-width="6.0" stroke-linecap="round" stroke-linejoin="round" />
<path d="M 156.25 76.25 L 157.5 75.0 L 161.25 77.5 L 165.0 87.5 L 172.5 97.5 L 188.75 100.0 L 205.0 91.25 L 215.0 77.5 L 220.0 68.75 L 216.25 66.25 L 210.0 71.25 " stroke="black" fill="none" stroke-width="6.0" stroke-linecap="round" stroke-linejoin="round" />
<path d="M 198.75 92.5 L 198.75 95.0 L 200.0 102.5 L 201.25 116.25 L 203.75 145.0 L 205.0 181.25 L 202.5 202.5 L 200.0 208.75 L 193.75 213.75 L 182.5 217.5 L 167.5 220.0 L 151.25 220.0 L 138.75 208.75 " stroke="black" fill="none" stroke-width="6.0" stroke-linecap="round" stroke-linejoin="round" />
</svg>