<svg xmlns="http://www.w3.org/2000/svg" width="300" height="300" viewBox="0 0 300 300">
<path d="M 85.0 87.5 L 83.75 87.5 L 81.25 86.25 L 80.0 86.25 L 85.0 91.25 L 93.75 96.25 L 103.75 101.25 L 110.0 103.75 L 110.0 103.75 " stroke="black" fill="none" stroke-width="6.0" stroke-linecap="round" stroke-linejoin="round" />
<path d="M 57.5 135.0 L 50.0 138.75 L 46.25 141.25 L 52.5 142.5 L 70.0 138.75 L 91.25 128.75 L 110.0 115.0 L 123.75 103.75 L 123.75 101.25 L 111.25 106.25 L 100.0 113.75 L 91.25 122.5 L 83.75 131.25 L 81.25 142.5 L 81.25 162.5 L 82.5 192.5 L 83.75 213.75 L 85.0 220.0 L 85.0 216.25 " stroke="black" fill="none" stroke-width="6.0" stroke-linecap="round" stroke-linejoin="round" />
<path d="M 100.0 137.5 L 102.5 132.5 L 103.75 130.0 L 105.0 136.25 L 105.0 153.75 L 103.75 175.0 L 100.0 196.25 L 93.75 206.25 L 86.25 215.0 L 81.25 223.75 L 81.25 230.0 L 88.75 233.75 L 100.0 232.5 L 115.0 223.75 L 130.0 213.75 L 140.0 206.25 L 142.5 198.75 " stroke="black" fill="none" stroke-width="6.0" stroke-linecap="round" stroke-linejoin="round" />
<path d="M 180.0 78.75 L 176.25 77.5 L 172.5 76.25 L 168.75 77.5 L 166.25 91.25 L 165.0 107.5 L 167.5 116.25 L 175.0 117.5 L 186.25 110.0 L 196.25 98.75 L 201.25 90.0 L 202.5 83.75 L 200.0 81.25 L 197.5 81.25 L 196.25 81.25 L 195.0 81.25 L 196.25 85.0 L 201.25 90.0 L 207.5 95.0 L 211.25 101.25 L 211.25 103.75 " stroke="black" fill="none" stroke-width="6.0" stroke-linecap="round" stroke-linejoin="round" />
<path d="M 175.0 135.0 L 173.75 137.5 L 167.5 145.0 L 161.25 163.75 L 151.25 191.25 L 147.5 205.0 L 146.25 207.5 L 147.5 198.75 L 148.75 191.25 " stroke="black" fill="none" stroke-width="6.0" stroke-linecap="round" stroke-linejoin="round" />
<path d="M 187.5 141.25 L 195.0 136.25 L 202.5 135.0 L 212.5 132.5 L 220.0 132.5 L 225.0 131.25 L 225.0 131.25 L 221.25 132.5 L 213.75 137.5 L 205.0 148.75 L 193.75 172.5 L 175.0 206.25 L 161.25 231.25 L 156.25 236.25 L 157.5 233.75 L 162.5 222.5 L 172.5 208.75 L 183.75 196.25 L 195.0 185.0 L 206.25 175.0 L 215.0 168.75 L 217.5 167.5 L 217.5 170.0 L 212.5 183.75 L 205.0 201.25 L 193.75 221.25 L 176.25 243.75 L 158.75 257.5 L 150.0 258.75 " stroke="black" fill="none" stroke-width="6.0" stroke-linecap="round" stroke-linejoin="round" />
<path d="M 180.0 203.75 L 180.0 203.75 L 180.0 202.5 L 181.25 202.5 L 182.5 201.25 L 186.25 201.25 L 191.25 202.5 L 196.25 203.75 L 200.0 205.0 L 202.5 206.25 L 206.25 208.75 L 211.25 213.75 L 222.5 221.25 L 240.0 233.75 L 261.25 245.0 L 282.5 251.25 L 295.0 253.75 " stroke="black" fill="none" stroke-width="6.0" stroke-linecap="round" stroke-linejoin="round" />
</svg>