<svg xmlns="http://www.w3.org/2000/svg" width="300" height="300" viewBox="0 0 300 300">
<path d="M 80.0 86.25 L 77.5 86.25 L 77.5 86.25 L 87.5 86.25 L 101.25 86.25 L 115.0 87.5 L 122.5 88.75 L 121.25 92.5 " stroke="black" fill="none" stroke-width="6.0" stroke-linecap="round" stroke-linejoin="round" />
<path d="M 56.25 137.5 L 55.0 140.0 L 56.25 141.25 L 72.5 137.5 L 96.25 127.5 L 115.0 113.75 L 123.75 106.25 L 118.75 103.75 " stroke="black" fill="none" stroke-width="6.0" stroke-linecap="round" stroke-linejoin="round" />
<path d="M 92.5 105.0 L 91.25 111.25 L 91.25 133.75 L 96.25 183.75 L 97.5 223.75 L 97.5 237.5 L 93.75 241.25 L 88.75 238.75 L 86.25 232.5 " stroke="black" fill="none" stroke-width="6.0" stroke-linecap="round" stroke-linejoin="round" />
<path d="M 98.75 143.75 L 97.5 146.25 L 91.25 155.0 L 81.25 175.0 L 67.5 196.25 L 57.5 202.5 L 51.25 201.25 L 50.0 197.5 " stroke="black" fill="none" stroke-width="6.0" stroke-linecap="round" stroke-linejoin="round" />
<path d="M 97.5 147.5 L 100.0 148.75 L 106.25 152.5 L 126.25 168.75 L 136.25 181.25 L 141.25 187.5 L 141.25 187.5 " stroke="black" fill="none" stroke-width="6.0" stroke-linecap="round" stroke-linejoin="round" />
<path d="M 156.25 76.25 L 156.25 76.25 L 155.0 76.25 L 157.5 76.25 L 168.75 78.75 L 186.25 78.75 L 200.0 78.75 L 205.0 78.75 L 200.0 80.0 " stroke="black" fill="none" stroke-width="6.0" stroke-linecap="round" stroke-linejoin="round" />
<path d="M 141.25 111.25 L 141.25 111.25 L 141.25 112.5 L 150.0 111.25 L 175.0 101.25 L 201.25 88.75 L 210.0 81.25 L 210.0 78.75 L 201.25 81.25 L 198.75 83.75 " stroke="black" fill="none" stroke-width="6.0" stroke-linecap="round" stroke-linejoin="round" />
<path d="M 167.5 110.0 L 167.5 111.25 L 167.5 120.0 L 171.25 131.25 L 175.0 141.25 L 177.5 143.75 L 178.75 143.75 L 173.75 138.75 L 168.75 132.5 L 165.0 127.5 L 165.0 121.25 L 172.5 113.75 L 186.25 108.75 L 201.25 106.25 L 210.0 108.75 L 207.5 117.5 L 196.25 132.5 L 183.75 142.5 L 178.75 146.25 L 180.0 143.75 L 190.0 136.25 L 200.0 125.0 L 203.75 120.0 " stroke="black" fill="none" stroke-width="6.0" stroke-linecap="round" stroke-linejoin="round" />
<path d="M 142.5 168.75 L 141.25 167.5 L 141.25 167.5 L 141.25 175.0 L 142.5 202.5 L 146.25 230.0 L 148.75 240.0 L 150.0 237.5 L 150.0 225.0 " stroke="black" fill="none" stroke-width="6.0" stroke-linecap="round" stroke-linejoin="round" />
<path d="M 147.5 180.0 L 146.25 178.75 L 146.25 178.75 L 146.25 176.25 L 157.5 171.25 L 186.25 161.25 L 216.25 150.0 L 235.0 146.25 L 245.0 153.75 L 250.0 183.75 L 250.0 220.0 L 250.0 248.75 L 250.0 257.5 L 250.0 258.75 L 250.0 257.5 L 247.5 250.0 L 241.25 238.75 L 236.25 232.5 " stroke="black" fill="none" stroke-width="6.0" stroke-linecap="round" stroke-linejoin="round" />
<path d="M 171.25 182.5 L 170.0 185.0 L 168.75 190.0 L 172.5 202.5 L 180.0 217.5 L 185.0 225.0 L 185.0 225.0 L 182.5 217.5 L 178.75 208.75 L 175.0 200.0 L 173.75 191.25 L 173.75 186.25 L 183.75 182.5 L 198.75 181.25 L 215.0 183.75 L 220.0 190.0 L 216.25 200.0 L 202.5 211.25 L 192.5 218.75 L 190.0 220.0 L 197.5 213.75 L 215.0 198.75 L 228.75 186.25 " stroke="black" fill="none" stroke-width="6.0" stroke-linecap="round" stroke-linejoin="round" />
</svg>