<svg xmlns="http://www.w3.org/2000/svg" width="300" height="300" viewBox="0 0 300 300">
<path d="M 98.75 75.0 L 98.75 75.0 L 96.25 76.25 L 95.0 82.5 L 95.0 100.0 L 95.0 120.0 L 93.75 132.5 L 92.5 132.5 " stroke="black" fill="none" stroke-width="6.0" stroke-linecap="round" stroke-linejoin="round" />
<path d="M 96.25 92.5 L 96.25 92.5 L 96.25 92.5 L 98.75 90.0 L 108.75 86.25 L 118.75 82.5 L 121.25 82.5 " stroke="black" fill="none" stroke-width="6.0" stroke-linecap="round" stroke-linejoin="round" />
<path d="M 95.0 108.75 L 93.75 111.25 L 92.5 115.0 L 100.0 113.75 L 113.75 107.5 L 130.0 96.25 L 141.25 86.25 " stroke="black" fill="none" stroke-width="6.0" stroke-linecap="round" stroke-linejoin="round" />
<path d="M 152.5 62.5 L 152.5 63.75 L 152.5 70.0 L 150.0 81.25 L 147.5 97.5 L 145.0 110.0 L 143.75 112.5 L 141.25 110.0 " stroke="black" fill="none" stroke-width="6.0" stroke-linecap="round" stroke-linejoin="round" />
<path d="M 148.75 78.75 L 148.75 77.5 L 151.25 75.0 L 156.25 71.25 L 165.0 68.75 L 176.25 66.25 L 181.25 66.25 L 180.0 68.75 " stroke="black" fill="none" stroke-width="6.0" stroke-linecap="round" stroke-linejoin="round" />
<path d="M 151.25 91.25 L 147.5 95.0 L 145.0 97.5 L 150.0 97.5 L 162.5 96.25 L 178.75 90.0 L 187.5 86.25 " stroke="black" fill="none" stroke-width="6.0" stroke-linecap="round" stroke-linejoin="round" />
<path d="M 101.25 153.75 L 98.75 155.0 L 100.0 155.0 L 113.75 150.0 L 135.0 143.75 L 155.0 137.5 L 166.25 133.75 L 167.5 132.5 L 157.5 137.5 L 145.0 145.0 L 130.0 152.5 L 112.5 160.0 L 96.25 171.25 L 90.0 183.75 L 88.75 192.5 L 95.0 203.75 L 103.75 217.5 L 111.25 226.25 L 115.0 230.0 L 113.75 228.75 " stroke="black" fill="none" stroke-width="6.0" stroke-linecap="round" stroke-linejoin="round" />
<path d="M 95.0 203.75 L 91.25 203.75 L 88.75 203.75 L 93.75 203.75 L 115.0 197.5 L 147.5 183.75 L 180.0 167.5 L 198.75 158.75 L 201.25 158.75 L 195.0 170.0 L 180.0 188.75 L 163.75 205.0 L 150.0 213.75 L 148.75 213.75 " stroke="black" fill="none" stroke-width="6.0" stroke-linecap="round" stroke-linejoin="round" />
<path d="M 148.75 137.5 L 148.75 137.5 L 147.5 137.5 L 146.25 137.5 L 146.25 151.25 L 150.0 193.75 L 150.0 238.75 L 150.0 258.75 L 148.75 266.25 L 146.25 267.5 L 145.0 265.0 " stroke="black" fill="none" stroke-width="6.0" stroke-linecap="round" stroke-linejoin="round" />
<path d="M 146.25 201.25 L 142.5 205.0 L 136.25 217.5 L 123.75 236.25 L 108.75 255.0 L 96.25 263.75 L 90.0 263.75 L 88.75 255.0 L 90.0 251.25 " stroke="black" fill="none" stroke-width="6.0" stroke-linecap="round" stroke-linejoin="round" />
<path d="M 145.0 202.5 L 146.25 203.75 L 152.5 211.25 L 167.5 222.5 L 186.25 235.0 L 202.5 241.25 L 213.75 243.75 L 221.25 247.5 L 226.25 248.75 L 226.25 250.0 " stroke="black" fill="none" stroke-width="6.0" stroke-linecap="round" stroke-linejoin="round" />
</svg>