<svg xmlns="http://www.w3.org/2000/svg" width="300" height="300" viewBox="0 0 300 300">
<path d="M 92.5 72.5 L 91.25 72.5 L 90.0 72.5 L 90.0 73.75 L 91.25 85.0 L 92.5 101.25 L 92.5 113.75 L 90.0 116.25 " stroke="black" fill="none" stroke-width="6.0" stroke-linecap="round" stroke-linejoin="round" />
<path d="M 92.5 87.5 L 92.5 87.5 L 92.5 86.25 L 96.25 85.0 L 107.5 80.0 L 122.5 75.0 L 130.0 72.5 L 130.0 72.5 " stroke="black" fill="none" stroke-width="6.0" stroke-linecap="round" stroke-linejoin="round" />
<path d="M 100.0 100.0 L 97.5 105.0 L 101.25 107.5 L 113.75 106.25 L 131.25 101.25 L 142.5 92.5 " stroke="black" fill="none" stroke-width="6.0" stroke-linecap="round" stroke-linejoin="round" />
<path d="M 155.0 56.25 L 155.0 58.75 L 153.75 65.0 L 153.75 77.5 L 151.25 93.75 L 150.0 105.0 L 147.5 106.25 L 147.5 106.25 " stroke="black" fill="none" stroke-width="6.0" stroke-linecap="round" stroke-linejoin="round" />
<path d="M 152.5 78.75 L 152.5 77.5 L 153.75 73.75 L 161.25 71.25 L 176.25 68.75 L 192.5 65.0 L 200.0 62.5 L 200.0 62.5 " stroke="black" fill="none" stroke-width="6.0" stroke-linecap="round" stroke-linejoin="round" />
<path d="M 155.0 93.75 L 155.0 96.25 L 155.0 98.75 L 162.5 100.0 L 176.25 98.75 L 191.25 95.0 L 197.5 92.5 " stroke="black" fill="none" stroke-width="6.0" stroke-linecap="round" stroke-linejoin="round" />
<path d="M 92.5 133.75 L 92.5 131.25 L 92.5 130.0 L 93.75 130.0 L 98.75 135.0 L 106.25 145.0 L 117.5 152.5 L 136.25 153.75 L 155.0 145.0 L 175.0 133.75 L 192.5 126.25 L 198.75 122.5 L 200.0 122.5 L 200.0 126.25 L 200.0 142.5 L 201.25 177.5 L 202.5 228.75 L 205.0 262.5 L 206.25 271.25 L 206.25 272.5 L 206.25 272.5 L 202.5 271.25 L 196.25 265.0 L 185.0 255.0 L 167.5 241.25 L 162.5 236.25 " stroke="black" fill="none" stroke-width="6.0" stroke-linecap="round" stroke-linejoin="round" />
<path d="M 118.75 183.75 L 117.5 182.5 L 115.0 181.25 L 115.0 182.5 L 116.25 193.75 L 121.25 210.0 L 125.0 222.5 L 126.25 225.0 L 126.25 223.75 " stroke="black" fill="none" stroke-width="6.0" stroke-linecap="round" stroke-linejoin="round" />
<path d="M 125.0 186.25 L 123.75 185.0 L 123.75 183.75 L 128.75 181.25 L 143.75 178.75 L 161.25 178.75 L 175.0 183.75 L 177.5 193.75 L 167.5 207.5 L 155.0 218.75 L 143.75 223.75 L 136.25 225.0 L 133.75 223.75 " stroke="black" fill="none" stroke-width="6.0" stroke-linecap="round" stroke-linejoin="round" />
<path d="M 125.0 206.25 L 125.0 206.25 L 125.0 206.25 L 127.5 206.25 L 137.5 202.5 L 152.5 197.5 L 166.25 192.5 L 168.75 190.0 L 166.25 190.0 " stroke="black" fill="none" stroke-width="6.0" stroke-linecap="round" stroke-linejoin="round" />
<path d="M 133.75 222.5 L 131.25 230.0 L 133.75 231.25 L 145.0 227.5 L 160.0 220.0 L 170.0 215.0 " stroke="black" fill="none" stroke-width="6.0" stroke-linecap="round" stroke-linejoin="round" />
</svg>