<svg xmlns="http://www.w3.org/2000/svg" width="300" height="300" viewBox="0 0 300 300">
<path d="M 75.0 72.5 L 75.0 72.5 L 75.0 71.25 L 75.0 71.25 L 77.5 81.25 L 80.0 96.25 L 82.5 107.5 L 85.0 111.25 L 85.0 111.25 " stroke="black" fill="none" stroke-width="6.0" stroke-linecap="round" stroke-linejoin="round" />
<path d="M 83.75 92.5 L 82.5 92.5 L 82.5 92.5 L 83.75 92.5 L 91.25 90.0 L 102.5 83.75 L 111.25 78.75 L 112.5 78.75 " stroke="black" fill="none" stroke-width="6.0" stroke-linecap="round" stroke-linejoin="round" />
<path d="M 92.5 102.5 L 91.25 102.5 L 90.0 103.75 L 90.0 105.0 L 97.5 103.75 L 110.0 100.0 L 120.0 95.0 " stroke="black" fill="none" stroke-width="6.0" stroke-linecap="round" stroke-linejoin="round" />
<path d="M 142.5 62.5 L 142.5 62.5 L 142.5 62.5 L 142.5 72.5 L 143.75 87.5 L 145.0 112.5 L 147.5 116.25 L 148.75 111.25 " stroke="black" fill="none" stroke-width="6.0" stroke-linecap="round" stroke-linejoin="round" />
<path d="M 153.75 77.5 L 152.5 71.25 L 152.5 70.0 L 153.75 68.75 L 161.25 67.5 L 173.75 65.0 L 183.75 63.75 L 185.0 65.0 " stroke="black" fill="none" stroke-width="6.0" stroke-linecap="round" stroke-linejoin="round" />
<path d="M 152.5 92.5 L 151.25 92.5 L 151.25 93.75 L 155.0 93.75 L 167.5 88.75 L 183.75 82.5 L 192.5 81.25 " stroke="black" fill="none" stroke-width="6.0" stroke-linecap="round" stroke-linejoin="round" />
<path d="M 88.75 147.5 L 87.5 147.5 L 86.25 147.5 L 88.75 147.5 L 100.0 145.0 L 115.0 143.75 L 122.5 142.5 L 121.25 148.75 L 107.5 161.25 L 92.5 175.0 L 81.25 183.75 L 80.0 185.0 L 88.75 178.75 L 105.0 168.75 L 125.0 157.5 L 137.5 152.5 L 140.0 156.25 L 127.5 173.75 L 112.5 191.25 L 96.25 203.75 L 83.75 208.75 L 80.0 203.75 L 80.0 191.25 L 82.5 175.0 L 82.5 158.75 L 81.25 151.25 L 77.5 158.75 L 76.25 185.0 L 77.5 215.0 L 85.0 241.25 L 93.75 246.25 L 106.25 242.5 L 122.5 226.25 L 137.5 205.0 L 147.5 187.5 L 152.5 175.0 L 156.25 166.25 L 161.25 161.25 L 166.25 157.5 L 175.0 153.75 L 188.75 148.75 L 203.75 141.25 L 212.5 137.5 L 215.0 137.5 L 215.0 138.75 L 215.0 145.0 L 213.75 155.0 L 210.0 166.25 L 206.25 176.25 L 202.5 183.75 L 196.25 188.75 L 190.0 190.0 L 187.5 190.0 " stroke="black" fill="none" stroke-width="6.0" stroke-linecap="round" stroke-linejoin="round" />
<path d="M 180.0 165.0 L 177.5 165.0 L 176.25 165.0 L 171.25 163.75 L 170.0 163.75 L 170.0 162.5 L 170.0 162.5 L 171.25 162.5 L 171.25 162.5 L 172.5 162.5 L 172.5 162.5 L 172.5 162.5 L 172.5 162.5 L 172.5 162.5 L 172.5 162.5 L 172.5 162.5 L 172.5 167.5 L 172.5 191.25 L 171.25 233.75 L 168.75 271.25 L 166.25 291.25 L 163.75 303.75 L 157.5 306.25 " stroke="black" fill="none" stroke-width="6.0" stroke-linecap="round" stroke-linejoin="round" />
</svg>