<svg xmlns="http://www.w3.org/2000/svg" width="300" height="300" viewBox="0 0 300 300">
<path d="M 92.5 78.75 L 92.5 78.75 L 90.0 78.75 L 90.0 78.75 L 90.0 85.0 L 93.75 97.5 L 96.25 108.75 L 96.25 113.75 " stroke="black" fill="none" stroke-width="6.0" stroke-linecap="round" stroke-linejoin="round" />
<path d="M 95.0 87.5 L 93.75 87.5 L 92.5 86.25 L 93.75 83.75 L 102.5 78.75 L 116.25 75.0 L 128.75 71.25 L 131.25 72.5 " stroke="black" fill="none" stroke-width="6.0" stroke-linecap="round" stroke-linejoin="round" />
<path d="M 98.75 102.5 L 97.5 106.25 L 95.0 110.0 L 98.75 110.0 L 111.25 106.25 L 126.25 97.5 L 137.5 88.75 " stroke="black" fill="none" stroke-width="6.0" stroke-linecap="round" stroke-linejoin="round" />
<path d="M 150.0 57.5 L 150.0 57.5 L 148.75 61.25 L 147.5 68.75 L 147.5 80.0 L 146.25 92.5 L 146.25 97.5 L 145.0 97.5 " stroke="black" fill="none" stroke-width="6.0" stroke-linecap="round" stroke-linejoin="round" />
<path d="M 145.0 75.0 L 145.0 73.75 L 145.0 70.0 L 146.25 65.0 L 152.5 60.0 L 161.25 56.25 L 172.5 52.5 L 177.5 52.5 L 172.5 57.5 L 163.75 62.5 " stroke="black" fill="none" stroke-width="6.0" stroke-linecap="round" stroke-linejoin="round" />
<path d="M 145.0 85.0 L 143.75 86.25 L 141.25 90.0 L 143.75 91.25 L 153.75 88.75 L 163.75 83.75 L 182.5 73.75 L 187.5 71.25 " stroke="black" fill="none" stroke-width="6.0" stroke-linecap="round" stroke-linejoin="round" />
<path d="M 111.25 136.25 L 108.75 138.75 L 106.25 141.25 L 113.75 140.0 L 128.75 135.0 L 143.75 125.0 L 156.25 113.75 L 157.5 108.75 " stroke="black" fill="none" stroke-width="6.0" stroke-linecap="round" stroke-linejoin="round" />
<path d="M 137.5 108.75 L 135.0 111.25 L 131.25 115.0 L 131.25 123.75 L 131.25 137.5 L 131.25 148.75 L 128.75 155.0 L 123.75 156.25 L 121.25 156.25 L 120.0 156.25 L 128.75 152.5 L 142.5 146.25 L 155.0 138.75 L 167.5 132.5 L 171.25 130.0 L 163.75 132.5 L 160.0 135.0 " stroke="black" fill="none" stroke-width="6.0" stroke-linecap="round" stroke-linejoin="round" />
<path d="M 77.5 207.5 L 75.0 211.25 L 68.75 217.5 L 76.25 216.25 L 100.0 206.25 L 138.75 190.0 L 186.25 171.25 L 218.75 158.75 L 232.5 153.75 L 227.5 152.5 L 215.0 155.0 " stroke="black" fill="none" stroke-width="6.0" stroke-linecap="round" stroke-linejoin="round" />
<path d="M 187.5 157.5 L 187.5 158.75 L 187.5 160.0 L 187.5 162.5 L 188.75 171.25 L 191.25 198.75 L 193.75 240.0 L 193.75 265.0 L 192.5 268.75 L 190.0 268.75 L 183.75 265.0 L 172.5 257.5 L 158.75 248.75 L 142.5 236.25 L 133.75 227.5 " stroke="black" fill="none" stroke-width="6.0" stroke-linecap="round" stroke-linejoin="round" />
<path d="M 120.0 191.25 L 120.0 190.0 L 121.25 188.75 L 126.25 193.75 L 135.0 210.0 L 146.25 235.0 L 152.5 251.25 " stroke="black" fill="none" stroke-width="6.0" stroke-linecap="round" stroke-linejoin="round" />
</svg>