<svg xmlns="http://www.w3.org/2000/svg" width="300" height="300" viewBox="0 0 300 300">
<path d="M 95.0 75.0 L 95.0 73.75 L 93.75 72.5 L 92.5 72.5 L 92.5 81.25 L 91.25 106.25 L 91.25 136.25 L 91.25 142.5 " stroke="black" fill="none" stroke-width="6.0" stroke-linecap="round" stroke-linejoin="round" />
<path d="M 92.5 91.25 L 92.5 91.25 L 91.25 91.25 L 92.5 91.25 L 101.25 88.75 L 112.5 86.25 L 128.75 82.5 L 130.0 81.25 " stroke="black" fill="none" stroke-width="6.0" stroke-linecap="round" stroke-linejoin="round" />
<path d="M 96.25 103.75 L 96.25 105.0 L 92.5 110.0 L 92.5 112.5 L 102.5 113.75 L 120.0 111.25 L 137.5 102.5 L 147.5 93.75 L 148.75 91.25 " stroke="black" fill="none" stroke-width="6.0" stroke-linecap="round" stroke-linejoin="round" />
<path d="M 161.25 68.75 L 161.25 68.75 L 161.25 68.75 L 160.0 72.5 L 157.5 85.0 L 153.75 102.5 L 152.5 112.5 L 151.25 111.25 L 151.25 103.75 L 151.25 93.75 L 152.5 85.0 L 155.0 78.75 L 157.5 75.0 L 162.5 73.75 L 173.75 72.5 L 188.75 70.0 L 198.75 68.75 L 198.75 67.5 L 191.25 73.75 L 178.75 80.0 L 167.5 87.5 L 158.75 95.0 L 156.25 97.5 L 162.5 97.5 L 183.75 92.5 L 200.0 87.5 L 206.25 85.0 " stroke="black" fill="none" stroke-width="6.0" stroke-linecap="round" stroke-linejoin="round" />
<path d="M 90.0 148.75 L 88.75 150.0 L 88.75 150.0 L 105.0 150.0 L 141.25 146.25 L 172.5 138.75 L 191.25 132.5 L 195.0 128.75 L 188.75 128.75 L 171.25 132.5 L 152.5 138.75 L 133.75 143.75 L 115.0 147.5 L 103.75 153.75 L 98.75 163.75 L 98.75 186.25 L 100.0 225.0 L 97.5 258.75 L 92.5 273.75 L 91.25 276.25 L 90.0 270.0 L 90.0 260.0 " stroke="black" fill="none" stroke-width="6.0" stroke-linecap="round" stroke-linejoin="round" />
<path d="M 97.5 190.0 L 97.5 188.75 L 97.5 188.75 L 102.5 187.5 L 122.5 182.5 L 148.75 173.75 L 161.25 166.25 L 162.5 163.75 L 152.5 168.75 L 142.5 177.5 " stroke="black" fill="none" stroke-width="6.0" stroke-linecap="round" stroke-linejoin="round" />
<path d="M 121.25 200.0 L 120.0 210.0 L 121.25 221.25 L 125.0 231.25 L 127.5 236.25 L 127.5 236.25 L 126.25 233.75 L 122.5 230.0 L 121.25 222.5 L 123.75 213.75 L 135.0 205.0 L 150.0 197.5 L 160.0 196.25 L 161.25 201.25 L 153.75 212.5 L 145.0 221.25 L 138.75 223.75 L 138.75 221.25 " stroke="black" fill="none" stroke-width="6.0" stroke-linecap="round" stroke-linejoin="round" />
<path d="M 163.75 138.75 L 163.75 137.5 L 165.0 136.25 L 170.0 141.25 L 185.0 175.0 L 201.25 217.5 L 213.75 242.5 L 223.75 256.25 L 228.75 261.25 L 231.25 261.25 L 232.5 261.25 L 233.75 261.25 L 233.75 261.25 L 233.75 261.25 L 233.75 261.25 L 233.75 261.25 L 233.75 261.25 L 233.75 261.25 L 233.75 261.25 L 233.75 260.0 L 233.75 257.5 L 233.75 250.0 L 237.5 232.5 L 242.5 196.25 " stroke="black" fill="none" stroke-width="6.0" stroke-linecap="round" stroke-linejoin="round" />
<path d="M 220.0 167.5 L 212.5 176.25 L 203.75 188.75 L 192.5 207.5 L 177.5 227.5 L 168.75 235.0 " stroke="black" fill="none" stroke-width="6.0" stroke-linecap="round" stroke-linejoin="round" />
<path d="M 216.25 105.0 L 217.5 103.75 L 221.25 102.5 L 226.25 111.25 L 232.5 133.75 L 233.75 147.5 " stroke="black" fill="none" stroke-width="6.0" stroke-linecap="round" stroke-linejoin="round" />
</svg>