<svg xmlns="http://www.w3.org/2000/svg" width="300" height="300" viewBox="0 0 300 300">
<path d="M 97.5 76.25 L 97.5 73.75 L 96.25 71.25 L 96.25 72.5 L 93.75 87.5 L 91.25 110.0 L 90.0 132.5 L 88.75 141.25 L 88.75 138.75 L 88.75 137.5 " stroke="black" fill="none" stroke-width="6.0" stroke-linecap="round" stroke-linejoin="round" />
<path d="M 92.5 98.75 L 92.5 98.75 L 92.5 98.75 L 93.75 98.75 L 101.25 98.75 L 118.75 96.25 L 135.0 91.25 L 138.75 88.75 L 133.75 90.0 " stroke="black" fill="none" stroke-width="6.0" stroke-linecap="round" stroke-linejoin="round" />
<path d="M 100.0 111.25 L 98.75 113.75 L 98.75 115.0 L 102.5 116.25 L 115.0 116.25 L 132.5 116.25 L 148.75 115.0 " stroke="black" fill="none" stroke-width="6.0" stroke-linecap="round" stroke-linejoin="round" />
<path d="M 167.5 75.0 L 165.0 75.0 L 161.25 75.0 L 158.75 85.0 L 156.25 103.75 L 156.25 120.0 L 156.25 128.75 L 156.25 128.75 " stroke="black" fill="none" stroke-width="6.0" stroke-linecap="round" stroke-linejoin="round" />
<path d="M 165.0 88.75 L 165.0 88.75 L 165.0 88.75 L 167.5 87.5 L 178.75 83.75 L 190.0 80.0 L 193.75 78.75 " stroke="black" fill="none" stroke-width="6.0" stroke-linecap="round" stroke-linejoin="round" />
<path d="M 163.75 111.25 L 162.5 113.75 L 165.0 115.0 L 177.5 111.25 L 198.75 105.0 L 211.25 100.0 " stroke="black" fill="none" stroke-width="6.0" stroke-linecap="round" stroke-linejoin="round" />
<path d="M 106.25 152.5 L 106.25 152.5 L 105.0 152.5 L 105.0 155.0 L 106.25 167.5 L 112.5 181.25 L 127.5 186.25 L 148.75 178.75 L 170.0 162.5 L 187.5 150.0 L 193.75 145.0 L 193.75 143.75 L 188.75 143.75 L 178.75 145.0 L 176.25 146.25 " stroke="black" fill="none" stroke-width="6.0" stroke-linecap="round" stroke-linejoin="round" />
<path d="M 161.25 142.5 L 160.0 143.75 L 158.75 150.0 L 158.75 181.25 L 158.75 218.75 L 158.75 238.75 L 156.25 247.5 L 152.5 247.5 " stroke="black" fill="none" stroke-width="6.0" stroke-linecap="round" stroke-linejoin="round" />
<path d="M 126.25 221.25 L 123.75 222.5 L 122.5 223.75 L 132.5 221.25 L 150.0 213.75 L 172.5 203.75 L 188.75 196.25 L 191.25 195.0 " stroke="black" fill="none" stroke-width="6.0" stroke-linecap="round" stroke-linejoin="round" />
<path d="M 112.5 251.25 L 112.5 252.5 L 111.25 252.5 L 121.25 252.5 L 142.5 252.5 L 171.25 248.75 L 197.5 246.25 L 215.0 246.25 L 225.0 246.25 L 230.0 246.25 L 232.5 246.25 L 233.75 246.25 L 233.75 246.25 " stroke="black" fill="none" stroke-width="6.0" stroke-linecap="round" stroke-linejoin="round" />
</svg>