<svg xmlns="http://www.w3.org/2000/svg" width="300" height="300" viewBox="0 0 300 300">
<path d="M 91.25 68.75 L 91.25 67.5 L 91.25 72.5 L 93.75 95.0 L 96.25 120.0 L 97.5 131.25 L 97.5 128.75 L 97.5 125.0 " stroke="black" fill="none" stroke-width="6.0" stroke-linecap="round" stroke-linejoin="round" />
<path d="M 91.25 93.75 L 91.25 93.75 L 87.5 92.5 L 87.5 90.0 L 93.75 87.5 L 112.5 80.0 L 130.0 73.75 L 138.75 70.0 L 135.0 72.5 L 125.0 78.75 L 112.5 87.5 L 102.5 97.5 L 96.25 106.25 L 97.5 108.75 L 108.75 107.5 L 126.25 98.75 L 145.0 87.5 L 156.25 75.0 L 156.25 71.25 " stroke="black" fill="none" stroke-width="6.0" stroke-linecap="round" stroke-linejoin="round" />
<path d="M 167.5 50.0 L 166.25 51.25 L 165.0 55.0 L 162.5 73.75 L 161.25 97.5 L 161.25 107.5 L 161.25 108.75 L 158.75 106.25 " stroke="black" fill="none" stroke-width="6.0" stroke-linecap="round" stroke-linejoin="round" />
<path d="M 160.0 67.5 L 160.0 65.0 L 160.0 61.25 L 165.0 57.5 L 176.25 56.25 L 190.0 55.0 L 196.25 56.25 L 191.25 66.25 " stroke="black" fill="none" stroke-width="6.0" stroke-linecap="round" stroke-linejoin="round" />
<path d="M 165.0 95.0 L 161.25 98.75 L 160.0 101.25 L 166.25 100.0 L 180.0 92.5 L 196.25 83.75 L 198.75 82.5 " stroke="black" fill="none" stroke-width="6.0" stroke-linecap="round" stroke-linejoin="round" />
<path d="M 130.0 136.25 L 130.0 136.25 L 128.75 136.25 L 132.5 136.25 L 143.75 137.5 L 160.0 137.5 L 171.25 136.25 L 170.0 137.5 " stroke="black" fill="none" stroke-width="6.0" stroke-linecap="round" stroke-linejoin="round" />
<path d="M 76.25 202.5 L 76.25 203.75 L 75.0 206.25 L 86.25 206.25 L 116.25 196.25 L 157.5 176.25 L 191.25 155.0 L 206.25 143.75 L 207.5 138.75 " stroke="black" fill="none" stroke-width="6.0" stroke-linecap="round" stroke-linejoin="round" />
<path d="M 147.5 157.5 L 147.5 160.0 L 147.5 170.0 L 147.5 193.75 L 140.0 223.75 L 126.25 243.75 L 111.25 251.25 L 96.25 250.0 L 93.75 246.25 " stroke="black" fill="none" stroke-width="6.0" stroke-linecap="round" stroke-linejoin="round" />
<path d="M 152.5 175.0 L 155.0 176.25 L 167.5 185.0 L 188.75 203.75 L 205.0 230.0 L 217.5 248.75 L 228.75 256.25 L 233.75 258.75 L 233.75 258.75 L 232.5 258.75 " stroke="black" fill="none" stroke-width="6.0" stroke-linecap="round" stroke-linejoin="round" />
</svg>