<svg xmlns="http://www.w3.org/2000/svg" width="300" height="300" viewBox="0 0 300 300">
<path d="M 92.5 78.75 L 91.25 78.75 L 88.75 80.0 L 87.5 82.5 L 87.5 92.5 L 87.5 111.25 L 86.25 127.5 L 85.0 132.5 " stroke="black" fill="none" stroke-width="6.0" stroke-linecap="round" stroke-linejoin="round" />
<path d="M 88.75 90.0 L 88.75 90.0 L 88.75 88.75 L 93.75 86.25 L 105.0 82.5 L 115.0 78.75 L 117.5 78.75 " stroke="black" fill="none" stroke-width="6.0" stroke-linecap="round" stroke-linejoin="round" />
<path d="M 90.0 108.75 L 88.75 110.0 L 86.25 113.75 L 87.5 115.0 L 97.5 111.25 L 112.5 105.0 L 122.5 100.0 " stroke="black" fill="none" stroke-width="6.0" stroke-linecap="round" stroke-linejoin="round" />
<path d="M 151.25 66.25 L 150.0 68.75 L 147.5 76.25 L 145.0 87.5 L 143.75 98.75 L 142.5 105.0 L 140.0 105.0 " stroke="black" fill="none" stroke-width="6.0" stroke-linecap="round" stroke-linejoin="round" />
<path d="M 147.5 75.0 L 147.5 73.75 L 148.75 70.0 L 156.25 67.5 L 170.0 65.0 L 185.0 63.75 L 193.75 63.75 " stroke="black" fill="none" stroke-width="6.0" stroke-linecap="round" stroke-linejoin="round" />
<path d="M 151.25 92.5 L 151.25 92.5 L 150.0 93.75 L 151.25 93.75 L 162.5 92.5 L 178.75 88.75 L 191.25 86.25 " stroke="black" fill="none" stroke-width="6.0" stroke-linecap="round" stroke-linejoin="round" />
<path d="M 131.25 123.75 L 118.75 136.25 L 103.75 153.75 L 88.75 176.25 L 70.0 197.5 L 55.0 207.5 L 47.5 207.5 L 47.5 198.75 " stroke="black" fill="none" stroke-width="6.0" stroke-linecap="round" stroke-linejoin="round" />
<path d="M 120.0 127.5 L 125.0 127.5 L 140.0 128.75 L 162.5 135.0 L 186.25 145.0 L 206.25 156.25 L 216.25 166.25 L 217.5 176.25 L 212.5 182.5 L 207.5 183.75 " stroke="black" fill="none" stroke-width="6.0" stroke-linecap="round" stroke-linejoin="round" />
<path d="M 101.25 181.25 L 98.75 183.75 L 96.25 186.25 L 101.25 186.25 L 117.5 185.0 L 140.0 178.75 L 160.0 172.5 L 170.0 167.5 L 170.0 166.25 L 158.75 170.0 L 146.25 177.5 L 132.5 186.25 L 121.25 197.5 L 115.0 213.75 L 120.0 230.0 L 131.25 241.25 L 142.5 246.25 L 148.75 247.5 L 148.75 247.5 L 148.75 246.25 L 145.0 246.25 L 140.0 245.0 L 133.75 241.25 L 126.25 235.0 L 120.0 230.0 L 116.25 225.0 L 118.75 220.0 L 132.5 215.0 L 151.25 208.75 L 173.75 203.75 L 192.5 201.25 L 198.75 202.5 L 193.75 210.0 L 180.0 221.25 L 163.75 235.0 L 150.0 245.0 L 145.0 248.75 L 148.75 246.25 L 162.5 238.75 L 180.0 226.25 L 190.0 220.0 " stroke="black" fill="none" stroke-width="6.0" stroke-linecap="round" stroke-linejoin="round" />
</svg>