<svg xmlns="http://www.w3.org/2000/svg" width="300" height="300" viewBox="0 0 300 300">
<path d="M 92.5 77.5 L 92.5 76.25 L 92.5 73.75 L 92.5 70.0 L 93.75 82.5 L 93.75 101.25 L 93.75 118.75 L 93.75 125.0 " stroke="black" fill="none" stroke-width="6.0" stroke-linecap="round" stroke-linejoin="round" />
<path d="M 93.75 88.75 L 93.75 88.75 L 93.75 86.25 L 96.25 83.75 L 106.25 77.5 L 121.25 72.5 L 125.0 72.5 " stroke="black" fill="none" stroke-width="6.0" stroke-linecap="round" stroke-linejoin="round" />
<path d="M 101.25 98.75 L 98.75 101.25 L 97.5 102.5 L 101.25 103.75 L 115.0 98.75 L 131.25 91.25 " stroke="black" fill="none" stroke-width="6.0" stroke-linecap="round" stroke-linejoin="round" />
<path d="M 152.5 53.75 L 152.5 53.75 L 152.5 55.0 L 152.5 62.5 L 152.5 80.0 L 152.5 95.0 L 152.5 101.25 L 151.25 100.0 " stroke="black" fill="none" stroke-width="6.0" stroke-linecap="round" stroke-linejoin="round" />
<path d="M 153.75 73.75 L 155.0 70.0 L 156.25 66.25 L 161.25 61.25 L 171.25 57.5 L 182.5 52.5 L 186.25 52.5 L 185.0 53.75 " stroke="black" fill="none" stroke-width="6.0" stroke-linecap="round" stroke-linejoin="round" />
<path d="M 158.75 81.25 L 158.75 83.75 L 158.75 86.25 L 163.75 86.25 L 176.25 80.0 L 190.0 73.75 L 192.5 71.25 " stroke="black" fill="none" stroke-width="6.0" stroke-linecap="round" stroke-linejoin="round" />
<path d="M 140.0 106.25 L 140.0 106.25 L 145.0 103.75 L 151.25 101.25 L 158.75 101.25 L 161.25 103.75 " stroke="black" fill="none" stroke-width="6.0" stroke-linecap="round" stroke-linejoin="round" />
<path d="M 86.25 137.5 L 86.25 137.5 L 86.25 136.25 L 86.25 138.75 L 87.5 155.0 L 90.0 176.25 L 90.0 185.0 L 90.0 186.25 " stroke="black" fill="none" stroke-width="6.0" stroke-linecap="round" stroke-linejoin="round" />
<path d="M 87.5 158.75 L 87.5 156.25 L 87.5 152.5 L 90.0 148.75 L 118.75 137.5 L 158.75 126.25 L 188.75 120.0 L 201.25 118.75 L 197.5 123.75 L 185.0 135.0 L 170.0 146.25 L 153.75 156.25 L 138.75 165.0 L 133.75 166.25 " stroke="black" fill="none" stroke-width="6.0" stroke-linecap="round" stroke-linejoin="round" />
<path d="M 130.0 161.25 L 130.0 160.0 L 130.0 160.0 L 132.5 171.25 L 136.25 203.75 L 137.5 237.5 L 137.5 257.5 L 137.5 263.75 L 137.5 260.0 " stroke="black" fill="none" stroke-width="6.0" stroke-linecap="round" stroke-linejoin="round" />
<path d="M 127.5 183.75 L 127.5 182.5 L 127.5 181.25 L 133.75 177.5 L 146.25 175.0 L 161.25 173.75 L 172.5 173.75 L 172.5 177.5 L 163.75 187.5 L 152.5 196.25 L 142.5 203.75 L 132.5 210.0 L 131.25 211.25 L 140.0 208.75 L 155.0 201.25 L 175.0 192.5 L 188.75 188.75 L 191.25 188.75 L 183.75 200.0 L 171.25 212.5 L 158.75 227.5 L 146.25 240.0 L 143.75 243.75 L 147.5 241.25 L 162.5 233.75 L 183.75 223.75 L 202.5 218.75 L 208.75 217.5 L 206.25 226.25 L 192.5 241.25 L 172.5 255.0 L 155.0 262.5 L 146.25 258.75 " stroke="black" fill="none" stroke-width="6.0" stroke-linecap="round" stroke-linejoin="round" />
</svg>