<svg xmlns="http://www.w3.org/2000/svg" width="300" height="300" viewBox="0 0 300 300">
<path d="M 96.25 82.5 L 96.25 82.5 L 93.75 82.5 L 93.75 83.75 L 93.75 96.25 L 95.0 113.75 L 95.0 127.5 L 95.0 132.5 L 95.0 132.5 " stroke="black" fill="none" stroke-width="6.0" stroke-linecap="round" stroke-linejoin="round" />
<path d="M 97.5 101.25 L 97.5 101.25 L 97.5 100.0 L 98.75 98.75 L 108.75 95.0 L 123.75 90.0 L 135.0 86.25 L 137.5 85.0 L 135.0 85.0 " stroke="black" fill="none" stroke-width="6.0" stroke-linecap="round" stroke-linejoin="round" />
<path d="M 103.75 111.25 L 103.75 113.75 L 102.5 116.25 L 107.5 116.25 L 118.75 112.5 L 133.75 103.75 L 141.25 96.25 " stroke="black" fill="none" stroke-width="6.0" stroke-linecap="round" stroke-linejoin="round" />
<path d="M 160.0 71.25 L 158.75 75.0 L 157.5 80.0 L 156.25 91.25 L 153.75 105.0 L 152.5 113.75 L 151.25 115.0 L 151.25 112.5 " stroke="black" fill="none" stroke-width="6.0" stroke-linecap="round" stroke-linejoin="round" />
<path d="M 156.25 87.5 L 156.25 87.5 L 156.25 85.0 L 158.75 81.25 L 166.25 78.75 L 177.5 76.25 L 191.25 73.75 L 196.25 72.5 L 195.0 73.75 " stroke="black" fill="none" stroke-width="6.0" stroke-linecap="round" stroke-linejoin="round" />
<path d="M 162.5 101.25 L 158.75 103.75 L 158.75 105.0 L 166.25 105.0 L 178.75 101.25 L 191.25 95.0 L 195.0 92.5 " stroke="black" fill="none" stroke-width="6.0" stroke-linecap="round" stroke-linejoin="round" />
<path d="M 73.75 178.75 L 73.75 178.75 L 71.25 181.25 L 81.25 178.75 L 100.0 168.75 L 122.5 157.5 L 140.0 145.0 L 145.0 138.75 L 140.0 136.25 L 131.25 136.25 L 121.25 138.75 L 115.0 140.0 L 110.0 141.25 L 110.0 145.0 L 111.25 153.75 L 112.5 178.75 L 113.75 215.0 L 115.0 240.0 L 115.0 250.0 L 111.25 251.25 L 106.25 248.75 " stroke="black" fill="none" stroke-width="6.0" stroke-linecap="round" stroke-linejoin="round" />
<path d="M 108.75 187.5 L 106.25 188.75 L 101.25 193.75 L 95.0 205.0 L 86.25 220.0 L 80.0 230.0 L 76.25 227.5 L 76.25 226.25 " stroke="black" fill="none" stroke-width="6.0" stroke-linecap="round" stroke-linejoin="round" />
<path d="M 107.5 188.75 L 108.75 187.5 L 115.0 187.5 L 126.25 190.0 L 141.25 197.5 L 158.75 203.75 L 162.5 203.75 " stroke="black" fill="none" stroke-width="6.0" stroke-linecap="round" stroke-linejoin="round" />
<path d="M 162.5 146.25 L 161.25 145.0 L 160.0 145.0 L 160.0 151.25 L 160.0 180.0 L 160.0 217.5 L 162.5 238.75 L 163.75 242.5 L 163.75 237.5 L 163.75 232.5 " stroke="black" fill="none" stroke-width="6.0" stroke-linecap="round" stroke-linejoin="round" />
<path d="M 166.25 151.25 L 166.25 150.0 L 170.0 146.25 L 181.25 142.5 L 196.25 140.0 L 208.75 141.25 L 215.0 152.5 L 217.5 180.0 L 216.25 212.5 L 215.0 233.75 L 213.75 246.25 L 213.75 248.75 L 213.75 248.75 L 213.75 245.0 L 212.5 238.75 L 207.5 231.25 " stroke="black" fill="none" stroke-width="6.0" stroke-linecap="round" stroke-linejoin="round" />
<path d="M 158.75 191.25 L 158.75 191.25 L 156.25 190.0 L 157.5 188.75 L 172.5 183.75 L 191.25 176.25 L 207.5 168.75 L 213.75 162.5 L 212.5 161.25 " stroke="black" fill="none" stroke-width="6.0" stroke-linecap="round" stroke-linejoin="round" />
<path d="M 168.75 206.25 L 168.75 206.25 L 167.5 207.5 L 173.75 207.5 L 187.5 202.5 L 201.25 195.0 L 210.0 187.5 L 210.0 187.5 " stroke="black" fill="none" stroke-width="6.0" stroke-linecap="round" stroke-linejoin="round" />
<path d="M 165.0 238.75 L 162.5 245.0 L 168.75 245.0 L 183.75 238.75 L 203.75 226.25 L 215.0 216.25 " stroke="black" fill="none" stroke-width="6.0" stroke-linecap="round" stroke-linejoin="round" />
</svg>