<svg xmlns="http://www.w3.org/2000/svg" width="300" height="300" viewBox="0 0 300 300">
<path d="M 76.25 108.75 L 75.0 108.75 L 72.5 108.75 L 71.25 108.75 L 72.5 113.75 L 78.75 122.5 L 85.0 133.75 L 85.0 135.0 " stroke="black" fill="none" stroke-width="6.0" stroke-linecap="round" stroke-linejoin="round" />
<path d="M 107.5 97.5 L 107.5 97.5 L 107.5 97.5 L 108.75 100.0 L 110.0 105.0 L 108.75 117.5 L 98.75 132.5 L 81.25 145.0 L 61.25 155.0 L 47.5 162.5 L 43.75 163.75 L 52.5 162.5 L 76.25 155.0 L 102.5 142.5 L 127.5 130.0 L 140.0 121.25 L 138.75 120.0 L 126.25 120.0 L 113.75 117.5 L 101.25 112.5 L 93.75 105.0 L 91.25 95.0 L 91.25 86.25 L 91.25 85.0 L 93.75 90.0 L 96.25 113.75 L 100.0 153.75 L 102.5 201.25 L 102.5 231.25 L 102.5 242.5 L 97.5 247.5 L 91.25 246.25 L 83.75 238.75 L 77.5 222.5 " stroke="black" fill="none" stroke-width="6.0" stroke-linecap="round" stroke-linejoin="round" />
<path d="M 100.0 163.75 L 98.75 167.5 L 90.0 188.75 L 78.75 207.5 L 63.75 225.0 L 55.0 232.5 L 47.5 230.0 L 47.5 226.25 " stroke="black" fill="none" stroke-width="6.0" stroke-linecap="round" stroke-linejoin="round" />
<path d="M 97.5 165.0 L 98.75 165.0 L 103.75 168.75 L 117.5 182.5 L 131.25 198.75 L 141.25 207.5 L 142.5 208.75 " stroke="black" fill="none" stroke-width="6.0" stroke-linecap="round" stroke-linejoin="round" />
<path d="M 180.0 65.0 L 180.0 65.0 L 178.75 62.5 L 176.25 63.75 L 163.75 87.5 L 147.5 122.5 L 133.75 145.0 L 128.75 147.5 " stroke="black" fill="none" stroke-width="6.0" stroke-linecap="round" stroke-linejoin="round" />
<path d="M 186.25 92.5 L 187.5 93.75 L 198.75 101.25 L 216.25 112.5 L 237.5 117.5 L 252.5 118.75 L 256.25 120.0 L 252.5 122.5 L 250.0 122.5 " stroke="black" fill="none" stroke-width="6.0" stroke-linecap="round" stroke-linejoin="round" />
<path d="M 150.0 171.25 L 146.25 175.0 L 146.25 176.25 L 157.5 176.25 L 172.5 173.75 L 205.0 166.25 L 221.25 162.5 L 228.75 165.0 L 228.75 180.0 L 218.75 200.0 L 207.5 217.5 L 198.75 228.75 L 191.25 233.75 L 182.5 233.75 L 177.5 225.0 L 177.5 221.25 " stroke="black" fill="none" stroke-width="6.0" stroke-linecap="round" stroke-linejoin="round" />
<path d="M 185.0 175.0 L 180.0 175.0 L 176.25 181.25 L 168.75 200.0 L 161.25 226.25 L 155.0 241.25 L 152.5 243.75 " stroke="black" fill="none" stroke-width="6.0" stroke-linecap="round" stroke-linejoin="round" />
</svg>