<svg xmlns="http://www.w3.org/2000/svg" width="300" height="300" viewBox="0 0 300 300">
<path d="M 70.0 102.5 L 67.5 100.0 L 66.25 100.0 L 67.5 100.0 L 73.75 107.5 L 80.0 120.0 L 83.75 127.5 " stroke="black" fill="none" stroke-width="6.0" stroke-linecap="round" stroke-linejoin="round" />
<path d="M 112.5 90.0 L 113.75 91.25 L 113.75 96.25 L 113.75 102.5 L 110.0 111.25 L 101.25 125.0 L 91.25 136.25 L 75.0 145.0 L 57.5 153.75 L 48.75 157.5 L 51.25 157.5 L 67.5 152.5 L 90.0 143.75 L 108.75 135.0 L 125.0 125.0 L 130.0 117.5 L 121.25 116.25 " stroke="black" fill="none" stroke-width="6.0" stroke-linecap="round" stroke-linejoin="round" />
<path d="M 92.5 93.75 L 88.75 90.0 L 87.5 90.0 L 87.5 90.0 L 92.5 113.75 L 98.75 158.75 L 101.25 207.5 L 101.25 233.75 L 98.75 241.25 L 95.0 243.75 L 91.25 241.25 " stroke="black" fill="none" stroke-width="6.0" stroke-linecap="round" stroke-linejoin="round" />
<path d="M 95.0 153.75 L 92.5 157.5 L 86.25 171.25 L 77.5 188.75 L 63.75 205.0 L 50.0 213.75 L 45.0 213.75 " stroke="black" fill="none" stroke-width="6.0" stroke-linecap="round" stroke-linejoin="round" />
<path d="M 93.75 152.5 L 95.0 152.5 L 101.25 160.0 L 113.75 173.75 L 127.5 188.75 L 140.0 196.25 L 142.5 197.5 " stroke="black" fill="none" stroke-width="6.0" stroke-linecap="round" stroke-linejoin="round" />
<path d="M 163.75 73.75 L 160.0 73.75 L 157.5 75.0 L 163.75 75.0 L 178.75 75.0 L 196.25 76.25 L 208.75 76.25 L 212.5 75.0 L 203.75 77.5 " stroke="black" fill="none" stroke-width="6.0" stroke-linecap="round" stroke-linejoin="round" />
<path d="M 148.75 102.5 L 147.5 103.75 L 147.5 105.0 L 155.0 105.0 L 168.75 101.25 L 195.0 92.5 L 210.0 85.0 L 211.25 81.25 L 201.25 82.5 L 187.5 86.25 L 173.75 91.25 L 162.5 97.5 L 156.25 107.5 L 155.0 127.5 L 155.0 160.0 L 156.25 200.0 L 155.0 220.0 L 152.5 226.25 L 150.0 225.0 L 148.75 215.0 L 148.75 211.25 " stroke="black" fill="none" stroke-width="6.0" stroke-linecap="round" stroke-linejoin="round" />
<path d="M 177.5 126.25 L 177.5 126.25 L 178.75 125.0 L 182.5 125.0 L 193.75 122.5 L 210.0 122.5 L 221.25 122.5 L 225.0 123.75 L 217.5 131.25 L 203.75 140.0 L 188.75 148.75 L 172.5 155.0 L 162.5 157.5 L 162.5 157.5 L 176.25 152.5 L 195.0 145.0 L 212.5 137.5 L 228.75 132.5 L 233.75 131.25 L 228.75 135.0 L 213.75 143.75 L 198.75 153.75 L 183.75 166.25 L 175.0 173.75 L 180.0 173.75 L 193.75 163.75 L 207.5 151.25 L 215.0 141.25 L 216.25 140.0 " stroke="black" fill="none" stroke-width="6.0" stroke-linecap="round" stroke-linejoin="round" />
<path d="M 201.25 103.75 L 200.0 103.75 L 198.75 105.0 L 198.75 110.0 L 201.25 136.25 L 206.25 185.0 L 207.5 220.0 L 208.75 235.0 L 208.75 240.0 L 207.5 240.0 L 203.75 236.25 L 198.75 227.5 " stroke="black" fill="none" stroke-width="6.0" stroke-linecap="round" stroke-linejoin="round" />
<path d="M 166.25 191.25 L 165.0 191.25 L 165.0 190.0 L 172.5 187.5 L 181.25 186.25 L 186.25 187.5 L 186.25 200.0 L 178.75 215.0 L 175.0 222.5 L 178.75 220.0 L 195.0 205.0 L 215.0 185.0 L 232.5 167.5 L 242.5 157.5 L 242.5 157.5 L 241.25 165.0 L 240.0 176.25 L 242.5 185.0 L 252.5 187.5 L 265.0 187.5 L 271.25 190.0 L 270.0 202.5 L 261.25 221.25 L 253.75 238.75 L 251.25 245.0 L 250.0 246.25 " stroke="black" fill="none" stroke-width="6.0" stroke-linecap="round" stroke-linejoin="round" />
</svg>