<svg xmlns="http://www.w3.org/2000/svg" width="300" height="300" viewBox="0 0 300 300">
<path d="M 86.25 71.25 L 83.75 71.25 L 82.5 71.25 L 82.5 73.75 L 85.0 87.5 L 86.25 105.0 L 86.25 117.5 L 86.25 118.75 " stroke="black" fill="none" stroke-width="6.0" stroke-linecap="round" stroke-linejoin="round" />
<path d="M 85.0 87.5 L 83.75 87.5 L 82.5 86.25 L 85.0 83.75 L 93.75 77.5 L 106.25 71.25 L 115.0 65.0 L 113.75 65.0 " stroke="black" fill="none" stroke-width="6.0" stroke-linecap="round" stroke-linejoin="round" />
<path d="M 88.75 97.5 L 87.5 101.25 L 88.75 102.5 L 97.5 101.25 L 113.75 93.75 L 130.0 83.75 " stroke="black" fill="none" stroke-width="6.0" stroke-linecap="round" stroke-linejoin="round" />
<path d="M 155.0 51.25 L 155.0 51.25 L 155.0 51.25 L 155.0 61.25 L 155.0 82.5 L 155.0 98.75 L 155.0 102.5 L 155.0 98.75 " stroke="black" fill="none" stroke-width="6.0" stroke-linecap="round" stroke-linejoin="round" />
<path d="M 155.0 71.25 L 155.0 71.25 L 153.75 70.0 L 155.0 67.5 L 161.25 63.75 L 172.5 60.0 L 182.5 55.0 L 186.25 53.75 L 186.25 53.75 " stroke="black" fill="none" stroke-width="6.0" stroke-linecap="round" stroke-linejoin="round" />
<path d="M 156.25 82.5 L 156.25 83.75 L 156.25 86.25 L 162.5 87.5 L 177.5 82.5 L 195.0 73.75 L 198.75 72.5 " stroke="black" fill="none" stroke-width="6.0" stroke-linecap="round" stroke-linejoin="round" />
<path d="M 75.0 138.75 L 71.25 142.5 L 71.25 155.0 L 73.75 187.5 L 77.5 222.5 L 78.75 242.5 L 80.0 246.25 L 80.0 246.25 " stroke="black" fill="none" stroke-width="6.0" stroke-linecap="round" stroke-linejoin="round" />
<path d="M 77.5 140.0 L 76.25 140.0 L 75.0 140.0 L 77.5 138.75 L 86.25 136.25 L 100.0 138.75 L 112.5 145.0 L 116.25 157.5 L 110.0 172.5 L 98.75 183.75 L 90.0 188.75 " stroke="black" fill="none" stroke-width="6.0" stroke-linecap="round" stroke-linejoin="round" />
<path d="M 78.75 165.0 L 77.5 166.25 L 76.25 167.5 L 81.25 166.25 L 91.25 162.5 L 101.25 158.75 L 106.25 156.25 L 106.25 155.0 " stroke="black" fill="none" stroke-width="6.0" stroke-linecap="round" stroke-linejoin="round" />
<path d="M 80.0 192.5 L 78.75 195.0 L 78.75 196.25 L 88.75 192.5 L 110.0 177.5 L 135.0 160.0 L 140.0 155.0 " stroke="black" fill="none" stroke-width="6.0" stroke-linecap="round" stroke-linejoin="round" />
<path d="M 161.25 127.5 L 158.75 130.0 L 157.5 136.25 L 158.75 151.25 L 165.0 165.0 L 178.75 171.25 L 193.75 167.5 L 202.5 156.25 L 205.0 147.5 L 203.75 142.5 L 197.5 141.25 L 186.25 142.5 L 172.5 146.25 L 161.25 152.5 L 156.25 156.25 L 156.25 157.5 L 168.75 153.75 L 185.0 145.0 L 198.75 135.0 L 206.25 125.0 L 206.25 121.25 " stroke="black" fill="none" stroke-width="6.0" stroke-linecap="round" stroke-linejoin="round" />
<path d="M 167.5 126.25 L 165.0 126.25 L 165.0 126.25 L 173.75 122.5 L 188.75 118.75 L 202.5 116.25 L 212.5 117.5 L 216.25 132.5 L 218.75 163.75 L 222.5 207.5 L 226.25 241.25 L 228.75 258.75 L 228.75 266.25 L 227.5 267.5 L 223.75 266.25 L 217.5 260.0 L 208.75 251.25 L 205.0 248.75 " stroke="black" fill="none" stroke-width="6.0" stroke-linecap="round" stroke-linejoin="round" />
<path d="M 142.5 188.75 L 141.25 188.75 L 138.75 191.25 L 137.5 197.5 L 137.5 208.75 L 138.75 220.0 L 141.25 225.0 L 141.25 225.0 " stroke="black" fill="none" stroke-width="6.0" stroke-linecap="round" stroke-linejoin="round" />
<path d="M 140.0 193.75 L 138.75 190.0 L 138.75 187.5 L 146.25 183.75 L 158.75 182.5 L 172.5 186.25 L 182.5 197.5 L 182.5 215.0 L 175.0 230.0 L 166.25 238.75 L 158.75 241.25 L 156.25 241.25 " stroke="black" fill="none" stroke-width="6.0" stroke-linecap="round" stroke-linejoin="round" />
<path d="M 148.75 205.0 L 153.75 203.75 L 162.5 201.25 L 173.75 198.75 L 178.75 197.5 " stroke="black" fill="none" stroke-width="6.0" stroke-linecap="round" stroke-linejoin="round" />
<path d="M 143.75 240.0 L 150.0 240.0 L 162.5 235.0 L 175.0 228.75 " stroke="black" fill="none" stroke-width="6.0" stroke-linecap="round" stroke-linejoin="round" />
</svg>