<svg xmlns="http://www.w3.org/2000/svg" width="300" height="300" viewBox="0 0 300 300">
<path d="M 63.75 96.25 L 63.75 96.25 L 63.75 98.75 L 65.0 107.5 L 72.5 120.0 L 80.0 130.0 L 80.0 132.5 " stroke="black" fill="none" stroke-width="6.0" stroke-linecap="round" stroke-linejoin="round" />
<path d="M 102.5 73.75 L 102.5 75.0 L 103.75 78.75 L 105.0 83.75 L 105.0 93.75 L 101.25 106.25 L 90.0 122.5 L 70.0 141.25 L 46.25 158.75 L 35.0 173.75 L 35.0 177.5 L 52.5 168.75 L 80.0 150.0 L 106.25 128.75 L 126.25 110.0 L 131.25 100.0 L 127.5 97.5 L 116.25 97.5 L 103.75 97.5 L 93.75 98.75 L 86.25 98.75 L 82.5 98.75 L 82.5 96.25 L 82.5 93.75 L 85.0 93.75 L 87.5 101.25 L 92.5 130.0 L 97.5 181.25 L 101.25 228.75 L 102.5 252.5 L 102.5 256.25 L 101.25 256.25 L 97.5 253.75 L 91.25 247.5 L 88.75 245.0 " stroke="black" fill="none" stroke-width="6.0" stroke-linecap="round" stroke-linejoin="round" />
<path d="M 93.75 156.25 L 87.5 168.75 L 80.0 188.75 L 68.75 210.0 L 57.5 225.0 L 48.75 230.0 L 47.5 223.75 " stroke="black" fill="none" stroke-width="6.0" stroke-linecap="round" stroke-linejoin="round" />
<path d="M 92.5 155.0 L 92.5 156.25 L 97.5 158.75 L 110.0 171.25 L 125.0 185.0 L 136.25 192.5 L 138.75 195.0 L 138.75 196.25 " stroke="black" fill="none" stroke-width="6.0" stroke-linecap="round" stroke-linejoin="round" />
<path d="M 152.5 91.25 L 151.25 91.25 L 146.25 92.5 L 145.0 92.5 L 155.0 88.75 L 178.75 80.0 L 202.5 67.5 L 215.0 60.0 L 217.5 57.5 L 206.25 65.0 L 193.75 76.25 L 178.75 85.0 L 162.5 91.25 L 153.75 93.75 L 150.0 96.25 L 150.0 105.0 L 150.0 132.5 L 150.0 178.75 L 147.5 223.75 L 141.25 251.25 L 131.25 266.25 L 121.25 268.75 L 118.75 260.0 L 118.75 252.5 " stroke="black" fill="none" stroke-width="6.0" stroke-linecap="round" stroke-linejoin="round" />
<path d="M 167.5 132.5 L 167.5 130.0 L 168.75 130.0 L 175.0 141.25 L 183.75 170.0 L 188.75 196.25 L 191.25 206.25 L 190.0 206.25 L 188.75 202.5 " stroke="black" fill="none" stroke-width="6.0" stroke-linecap="round" stroke-linejoin="round" />
<path d="M 171.25 131.25 L 171.25 130.0 L 171.25 130.0 L 178.75 126.25 L 198.75 120.0 L 222.5 117.5 L 238.75 125.0 L 241.25 138.75 L 232.5 155.0 L 218.75 171.25 L 207.5 182.5 L 201.25 187.5 " stroke="black" fill="none" stroke-width="6.0" stroke-linecap="round" stroke-linejoin="round" />
<path d="M 182.5 170.0 L 180.0 168.75 L 178.75 167.5 L 186.25 161.25 L 201.25 150.0 L 217.5 136.25 L 227.5 127.5 L 225.0 128.75 L 213.75 140.0 " stroke="black" fill="none" stroke-width="6.0" stroke-linecap="round" stroke-linejoin="round" />
<path d="M 191.25 193.75 L 190.0 197.5 L 191.25 197.5 L 200.0 186.25 L 215.0 166.25 L 228.75 147.5 L 230.0 137.5 L 226.25 137.5 " stroke="black" fill="none" stroke-width="6.0" stroke-linecap="round" stroke-linejoin="round" />
<path d="M 202.5 128.75 L 201.25 131.25 L 201.25 142.5 L 202.5 175.0 L 206.25 211.25 L 207.5 231.25 L 207.5 240.0 L 206.25 242.5 L 202.5 241.25 L 201.25 240.0 " stroke="black" fill="none" stroke-width="6.0" stroke-linecap="round" stroke-linejoin="round" />
<path d="M 192.5 220.0 L 191.25 220.0 L 190.0 220.0 L 192.5 218.75 L 205.0 211.25 L 225.0 200.0 L 242.5 188.75 L 247.5 185.0 L 245.0 185.0 " stroke="black" fill="none" stroke-width="6.0" stroke-linecap="round" stroke-linejoin="round" />
<path d="M 208.75 250.0 L 223.75 242.5 L 247.5 230.0 L 262.5 220.0 L 267.5 216.25 L 267.5 216.25 L 263.75 217.5 " stroke="black" fill="none" stroke-width="6.0" stroke-linecap="round" stroke-linejoin="round" />
</svg>