<svg xmlns="http://www.w3.org/2000/svg" width="300" height="300" viewBox="0 0 300 300">
<path d="M 61.25 107.5 L 61.25 106.25 L 61.25 105.0 L 61.25 105.0 L 65.0 105.0 L 71.25 112.5 L 77.5 122.5 L 80.0 130.0 " stroke="black" fill="none" stroke-width="6.0" stroke-linecap="round" stroke-linejoin="round" />
<path d="M 103.75 91.25 L 103.75 92.5 L 107.5 96.25 L 110.0 101.25 L 111.25 110.0 L 105.0 121.25 L 95.0 132.5 L 80.0 141.25 L 63.75 150.0 L 52.5 157.5 L 52.5 158.75 L 63.75 155.0 L 83.75 146.25 L 103.75 133.75 L 123.75 120.0 L 132.5 107.5 L 126.25 103.75 " stroke="black" fill="none" stroke-width="6.0" stroke-linecap="round" stroke-linejoin="round" />
<path d="M 90.0 93.75 L 88.75 92.5 L 87.5 92.5 L 87.5 96.25 L 92.5 123.75 L 98.75 176.25 L 100.0 220.0 L 97.5 238.75 L 93.75 243.75 L 86.25 245.0 L 83.75 242.5 " stroke="black" fill="none" stroke-width="6.0" stroke-linecap="round" stroke-linejoin="round" />
<path d="M 91.25 153.75 L 90.0 156.25 L 86.25 167.5 L 80.0 185.0 L 67.5 203.75 L 55.0 215.0 L 45.0 216.25 L 43.75 216.25 " stroke="black" fill="none" stroke-width="6.0" stroke-linecap="round" stroke-linejoin="round" />
<path d="M 90.0 157.5 L 91.25 157.5 L 101.25 160.0 L 112.5 172.5 L 125.0 188.75 L 136.25 200.0 L 136.25 201.25 " stroke="black" fill="none" stroke-width="6.0" stroke-linecap="round" stroke-linejoin="round" />
<path d="M 155.0 77.5 L 152.5 77.5 L 151.25 80.0 L 152.5 91.25 L 157.5 108.75 L 162.5 123.75 L 165.0 130.0 L 163.75 130.0 " stroke="black" fill="none" stroke-width="6.0" stroke-linecap="round" stroke-linejoin="round" />
<path d="M 151.25 90.0 L 150.0 87.5 L 150.0 86.25 L 155.0 81.25 L 171.25 78.75 L 192.5 77.5 L 208.75 78.75 L 212.5 83.75 L 208.75 92.5 L 197.5 102.5 L 186.25 110.0 L 173.75 116.25 L 167.5 117.5 " stroke="black" fill="none" stroke-width="6.0" stroke-linecap="round" stroke-linejoin="round" />
<path d="M 156.25 106.25 L 155.0 106.25 L 152.5 106.25 L 153.75 105.0 L 165.0 100.0 L 185.0 92.5 L 201.25 86.25 L 205.0 83.75 L 201.25 83.75 " stroke="black" fill="none" stroke-width="6.0" stroke-linecap="round" stroke-linejoin="round" />
<path d="M 166.25 118.75 L 166.25 120.0 L 166.25 122.5 L 176.25 121.25 L 192.5 112.5 L 205.0 102.5 " stroke="black" fill="none" stroke-width="6.0" stroke-linecap="round" stroke-linejoin="round" />
<path d="M 127.5 146.25 L 122.5 148.75 L 121.25 148.75 L 132.5 146.25 L 155.0 137.5 L 186.25 127.5 L 210.0 118.75 L 220.0 111.25 L 220.0 108.75 L 210.0 108.75 " stroke="black" fill="none" stroke-width="6.0" stroke-linecap="round" stroke-linejoin="round" />
<path d="M 156.25 145.0 L 153.75 147.5 L 151.25 155.0 L 152.5 170.0 L 156.25 191.25 L 162.5 202.5 L 165.0 205.0 L 166.25 202.5 L 161.25 198.75 L 160.0 197.5 " stroke="black" fill="none" stroke-width="6.0" stroke-linecap="round" stroke-linejoin="round" />
<path d="M 153.75 165.0 L 151.25 165.0 L 152.5 162.5 L 166.25 157.5 L 187.5 151.25 L 208.75 146.25 L 218.75 146.25 L 221.25 147.5 L 217.5 155.0 L 208.75 165.0 L 200.0 175.0 L 193.75 181.25 " stroke="black" fill="none" stroke-width="6.0" stroke-linecap="round" stroke-linejoin="round" />
<path d="M 157.5 185.0 L 156.25 185.0 L 157.5 183.75 L 170.0 177.5 L 191.25 168.75 L 207.5 158.75 L 213.75 152.5 L 208.75 151.25 " stroke="black" fill="none" stroke-width="6.0" stroke-linecap="round" stroke-linejoin="round" />
<path d="M 162.5 200.0 L 162.5 201.25 L 166.25 200.0 L 181.25 190.0 L 202.5 172.5 L 213.75 158.75 L 212.5 152.5 L 211.25 151.25 " stroke="black" fill="none" stroke-width="6.0" stroke-linecap="round" stroke-linejoin="round" />
<path d="M 193.75 145.0 L 193.75 145.0 L 191.25 146.25 L 190.0 151.25 L 190.0 173.75 L 191.25 208.75 L 192.5 231.25 L 192.5 240.0 L 191.25 241.25 L 190.0 241.25 " stroke="black" fill="none" stroke-width="6.0" stroke-linecap="round" stroke-linejoin="round" />
<path d="M 166.25 228.75 L 180.0 222.5 L 197.5 212.5 L 211.25 201.25 L 218.75 193.75 L 221.25 190.0 " stroke="black" fill="none" stroke-width="6.0" stroke-linecap="round" stroke-linejoin="round" />
<path d="M 161.25 255.0 L 161.25 256.25 L 161.25 256.25 L 176.25 252.5 L 201.25 243.75 L 226.25 235.0 L 242.5 230.0 L 246.25 227.5 L 245.0 227.5 L 238.75 227.5 " stroke="black" fill="none" stroke-width="6.0" stroke-linecap="round" stroke-linejoin="round" />
</svg>