<svg xmlns="http://www.w3.org/2000/svg" width="300" height="300" viewBox="0 0 300 300">
<path d="M 86.25 101.25 L 86.25 101.25 L 85.0 101.25 L 83.75 103.75 L 82.5 117.5 L 78.75 133.75 L 76.25 143.75 L 75.0 145.0 L 76.25 143.75 L 85.0 140.0 L 92.5 136.25 L 97.5 136.25 L 98.75 145.0 L 91.25 161.25 L 78.75 181.25 L 67.5 193.75 L 65.0 196.25 L 70.0 192.5 L 82.5 185.0 L 93.75 178.75 L 105.0 175.0 L 110.0 177.5 L 108.75 188.75 L 100.0 205.0 L 90.0 217.5 L 80.0 225.0 L 73.75 227.5 " stroke="black" fill="none" stroke-width="6.0" stroke-linecap="round" stroke-linejoin="round" />
<path d="M 47.5 202.5 L 47.5 202.5 L 46.25 202.5 L 47.5 208.75 L 53.75 222.5 L 60.0 238.75 L 61.25 246.25 L 61.25 246.25 " stroke="black" fill="none" stroke-width="6.0" stroke-linecap="round" stroke-linejoin="round" />
<path d="M 68.75 201.25 L 68.75 201.25 L 68.75 201.25 L 68.75 205.0 L 73.75 213.75 L 78.75 222.5 L 80.0 225.0 " stroke="black" fill="none" stroke-width="6.0" stroke-linecap="round" stroke-linejoin="round" />
<path d="M 90.0 193.75 L 90.0 192.5 L 90.0 192.5 L 91.25 192.5 L 95.0 200.0 L 103.75 220.0 L 105.0 225.0 " stroke="black" fill="none" stroke-width="6.0" stroke-linecap="round" stroke-linejoin="round" />
<path d="M 128.75 110.0 L 128.75 110.0 L 127.5 111.25 L 126.25 120.0 L 126.25 153.75 L 128.75 191.25 L 131.25 208.75 L 133.75 210.0 L 133.75 206.25 " stroke="black" fill="none" stroke-width="6.0" stroke-linecap="round" stroke-linejoin="round" />
<path d="M 121.25 126.25 L 120.0 126.25 L 116.25 123.75 L 117.5 120.0 L 126.25 115.0 L 138.75 111.25 L 150.0 112.5 L 155.0 131.25 L 156.25 161.25 L 156.25 191.25 L 155.0 203.75 L 155.0 205.0 L 153.75 201.25 L 150.0 196.25 L 146.25 191.25 " stroke="black" fill="none" stroke-width="6.0" stroke-linecap="round" stroke-linejoin="round" />
<path d="M 125.0 161.25 L 125.0 161.25 L 122.5 161.25 L 121.25 161.25 L 122.5 160.0 L 133.75 153.75 L 146.25 146.25 L 153.75 141.25 L 155.0 140.0 " stroke="black" fill="none" stroke-width="6.0" stroke-linecap="round" stroke-linejoin="round" />
<path d="M 130.0 183.75 L 130.0 185.0 L 128.75 186.25 L 128.75 186.25 L 136.25 181.25 L 153.75 166.25 L 163.75 157.5 L 163.75 158.75 " stroke="black" fill="none" stroke-width="6.0" stroke-linecap="round" stroke-linejoin="round" />
<path d="M 146.25 211.25 L 146.25 213.75 L 142.5 220.0 L 143.75 218.75 L 156.25 206.25 L 172.5 186.25 " stroke="black" fill="none" stroke-width="6.0" stroke-linecap="round" stroke-linejoin="round" />
<path d="M 206.25 93.75 L 203.75 93.75 L 202.5 95.0 L 201.25 106.25 L 205.0 140.0 L 206.25 172.5 L 207.5 181.25 L 207.5 181.25 L 207.5 177.5 L 203.75 171.25 L 196.25 162.5 L 185.0 152.5 L 172.5 146.25 L 162.5 143.75 L 161.25 143.75 L 168.75 145.0 L 185.0 145.0 L 203.75 141.25 L 225.0 135.0 L 245.0 127.5 L 250.0 126.25 L 246.25 132.5 L 232.5 153.75 L 215.0 187.5 L 197.5 226.25 L 176.25 261.25 L 158.75 278.75 L 148.75 282.5 " stroke="black" fill="none" stroke-width="6.0" stroke-linecap="round" stroke-linejoin="round" />
</svg>