<svg xmlns="http://www.w3.org/2000/svg" width="300" height="300" viewBox="0 0 300 300">
<path d="M 73.75 102.5 L 73.75 97.5 L 73.75 95.0 L 75.0 96.25 L 78.75 108.75 L 78.75 128.75 L 78.75 141.25 L 75.0 151.25 L 75.0 150.0 L 77.5 142.5 L 83.75 136.25 L 90.0 132.5 L 95.0 132.5 L 96.25 140.0 L 92.5 155.0 L 83.75 172.5 L 77.5 182.5 L 76.25 183.75 L 81.25 177.5 L 93.75 166.25 L 107.5 157.5 L 117.5 155.0 L 120.0 158.75 L 112.5 178.75 L 100.0 197.5 L 87.5 211.25 L 76.25 218.75 L 70.0 218.75 " stroke="black" fill="none" stroke-width="6.0" stroke-linecap="round" stroke-linejoin="round" />
<path d="M 56.25 196.25 L 56.25 196.25 L 55.0 196.25 L 55.0 197.5 L 61.25 211.25 L 71.25 230.0 L 78.75 243.75 L 78.75 243.75 " stroke="black" fill="none" stroke-width="6.0" stroke-linecap="round" stroke-linejoin="round" />
<path d="M 86.25 195.0 L 86.25 195.0 L 86.25 196.25 L 86.25 202.5 L 90.0 216.25 L 93.75 227.5 L 95.0 227.5 " stroke="black" fill="none" stroke-width="6.0" stroke-linecap="round" stroke-linejoin="round" />
<path d="M 106.25 188.75 L 106.25 188.75 L 107.5 190.0 L 113.75 198.75 L 126.25 218.75 L 131.25 230.0 " stroke="black" fill="none" stroke-width="6.0" stroke-linecap="round" stroke-linejoin="round" />
<path d="M 161.25 95.0 L 161.25 95.0 L 161.25 95.0 L 161.25 95.0 L 170.0 95.0 L 190.0 90.0 L 212.5 83.75 L 225.0 81.25 L 221.25 85.0 L 217.5 86.25 " stroke="black" fill="none" stroke-width="6.0" stroke-linecap="round" stroke-linejoin="round" />
<path d="M 151.25 166.25 L 148.75 170.0 L 147.5 175.0 L 158.75 171.25 L 183.75 156.25 L 212.5 133.75 L 230.0 116.25 L 233.75 108.75 L 227.5 108.75 " stroke="black" fill="none" stroke-width="6.0" stroke-linecap="round" stroke-linejoin="round" />
<path d="M 193.75 102.5 L 193.75 102.5 L 193.75 106.25 L 197.5 136.25 L 203.75 191.25 L 206.25 232.5 L 206.25 250.0 L 205.0 253.75 L 198.75 253.75 L 185.0 252.5 L 161.25 246.25 L 140.0 235.0 L 123.75 216.25 " stroke="black" fill="none" stroke-width="6.0" stroke-linecap="round" stroke-linejoin="round" />
</svg>