<svg xmlns="http://www.w3.org/2000/svg" width="300" height="300" viewBox="0 0 300 300">
<path d="M 85.0 95.0 L 85.0 95.0 L 85.0 95.0 L 86.25 95.0 L 90.0 100.0 L 92.5 112.5 L 90.0 128.75 L 82.5 140.0 L 73.75 147.5 L 67.5 151.25 L 67.5 151.25 L 73.75 151.25 L 82.5 148.75 L 91.25 145.0 L 98.75 142.5 L 100.0 142.5 L 98.75 147.5 L 93.75 158.75 L 87.5 170.0 L 83.75 177.5 L 83.75 180.0 L 88.75 177.5 L 97.5 171.25 L 106.25 167.5 L 111.25 166.25 L 112.5 175.0 L 106.25 195.0 L 97.5 215.0 L 90.0 228.75 L 85.0 235.0 " stroke="black" fill="none" stroke-width="6.0" stroke-linecap="round" stroke-linejoin="round" />
<path d="M 52.5 211.25 L 50.0 211.25 L 48.75 210.0 L 48.75 210.0 L 57.5 213.75 L 67.5 225.0 L 76.25 236.25 L 80.0 245.0 L 80.0 245.0 " stroke="black" fill="none" stroke-width="6.0" stroke-linecap="round" stroke-linejoin="round" />
<path d="M 80.0 206.25 L 77.5 205.0 L 76.25 203.75 L 80.0 203.75 L 87.5 210.0 L 93.75 218.75 L 97.5 227.5 L 98.75 233.75 L 98.75 233.75 " stroke="black" fill="none" stroke-width="6.0" stroke-linecap="round" stroke-linejoin="round" />
<path d="M 96.25 198.75 L 93.75 195.0 L 92.5 195.0 L 96.25 195.0 L 106.25 201.25 L 117.5 212.5 L 122.5 225.0 " stroke="black" fill="none" stroke-width="6.0" stroke-linecap="round" stroke-linejoin="round" />
<path d="M 142.5 87.5 L 137.5 87.5 L 135.0 87.5 L 135.0 87.5 L 142.5 83.75 L 152.5 80.0 L 160.0 77.5 L 163.75 78.75 L 162.5 90.0 L 153.75 108.75 L 143.75 130.0 L 132.5 143.75 L 125.0 146.25 L 122.5 143.75 " stroke="black" fill="none" stroke-width="6.0" stroke-linecap="round" stroke-linejoin="round" />
<path d="M 132.5 102.5 L 132.5 102.5 L 132.5 102.5 L 135.0 102.5 L 147.5 113.75 L 165.0 132.5 L 180.0 146.25 L 182.5 148.75 L 181.25 148.75 " stroke="black" fill="none" stroke-width="6.0" stroke-linecap="round" stroke-linejoin="round" />
<path d="M 175.0 91.25 L 173.75 90.0 L 172.5 87.5 L 178.75 83.75 L 191.25 80.0 L 202.5 76.25 L 208.75 76.25 L 210.0 80.0 L 205.0 90.0 L 198.75 103.75 L 187.5 117.5 L 177.5 127.5 L 167.5 130.0 " stroke="black" fill="none" stroke-width="6.0" stroke-linecap="round" stroke-linejoin="round" />
<path d="M 172.5 92.5 L 172.5 92.5 L 172.5 92.5 L 172.5 92.5 L 182.5 97.5 L 198.75 107.5 L 216.25 118.75 L 231.25 128.75 L 235.0 135.0 " stroke="black" fill="none" stroke-width="6.0" stroke-linecap="round" stroke-linejoin="round" />
<path d="M 140.0 191.25 L 138.75 191.25 L 136.25 191.25 L 135.0 191.25 L 140.0 187.5 L 151.25 180.0 L 161.25 173.75 L 167.5 171.25 L 166.25 178.75 L 158.75 196.25 L 150.0 215.0 L 141.25 231.25 L 133.75 238.75 L 131.25 240.0 " stroke="black" fill="none" stroke-width="6.0" stroke-linecap="round" stroke-linejoin="round" />
<path d="M 135.0 201.25 L 135.0 201.25 L 133.75 200.0 L 133.75 200.0 L 142.5 203.75 L 156.25 217.5 L 172.5 235.0 L 186.25 243.75 L 188.75 245.0 L 188.75 243.75 " stroke="black" fill="none" stroke-width="6.0" stroke-linecap="round" stroke-linejoin="round" />
<path d="M 193.75 177.5 L 191.25 176.25 L 188.75 175.0 L 192.5 171.25 L 202.5 166.25 L 215.0 161.25 L 225.0 160.0 L 227.5 166.25 L 221.25 185.0 L 210.0 207.5 L 200.0 226.25 L 191.25 237.5 L 185.0 238.75 L 183.75 237.5 " stroke="black" fill="none" stroke-width="6.0" stroke-linecap="round" stroke-linejoin="round" />
<path d="M 190.0 187.5 L 188.75 186.25 L 187.5 185.0 L 186.25 185.0 L 191.25 190.0 L 201.25 203.75 L 212.5 222.5 L 227.5 241.25 L 245.0 253.75 L 257.5 262.5 L 263.75 267.5 " stroke="black" fill="none" stroke-width="6.0" stroke-linecap="round" stroke-linejoin="round" />
</svg>