<svg xmlns="http://www.w3.org/2000/svg" width="300" height="300" viewBox="0 0 300 300">
<path d="M 101.25 102.5 L 101.25 102.5 L 101.25 101.25 L 101.25 101.25 L 100.0 102.5 L 96.25 116.25 L 90.0 137.5 L 82.5 156.25 L 80.0 160.0 L 83.75 157.5 L 92.5 151.25 L 100.0 146.25 L 108.75 143.75 L 113.75 143.75 L 112.5 152.5 L 105.0 167.5 L 96.25 181.25 L 91.25 188.75 L 90.0 190.0 L 95.0 186.25 L 106.25 178.75 L 120.0 172.5 L 130.0 170.0 L 132.5 176.25 L 123.75 190.0 L 110.0 206.25 L 97.5 218.75 L 88.75 223.75 " stroke="black" fill="none" stroke-width="6.0" stroke-linecap="round" stroke-linejoin="round" />
<path d="M 57.5 201.25 L 57.5 201.25 L 57.5 201.25 L 57.5 206.25 L 63.75 221.25 L 73.75 238.75 L 80.0 247.5 L 81.25 248.75 " stroke="black" fill="none" stroke-width="6.0" stroke-linecap="round" stroke-linejoin="round" />
<path d="M 88.75 197.5 L 88.75 196.25 L 88.75 195.0 L 91.25 197.5 L 92.5 200.0 L 101.25 226.25 L 103.75 236.25 L 103.75 236.25 " stroke="black" fill="none" stroke-width="6.0" stroke-linecap="round" stroke-linejoin="round" />
<path d="M 110.0 197.5 L 110.0 197.5 L 111.25 200.0 L 121.25 213.75 L 132.5 236.25 L 136.25 246.25 " stroke="black" fill="none" stroke-width="6.0" stroke-linecap="round" stroke-linejoin="round" />
<path d="M 163.75 111.25 L 162.5 113.75 L 161.25 116.25 L 166.25 116.25 L 181.25 111.25 L 202.5 100.0 L 217.5 88.75 L 221.25 86.25 L 213.75 91.25 L 206.25 96.25 " stroke="black" fill="none" stroke-width="6.0" stroke-linecap="round" stroke-linejoin="round" />
<path d="M 188.75 112.5 L 188.75 113.75 L 188.75 116.25 L 188.75 125.0 L 195.0 147.5 L 196.25 178.75 L 193.75 201.25 L 187.5 210.0 L 176.25 212.5 L 162.5 216.25 L 151.25 217.5 L 147.5 217.5 L 147.5 217.5 L 147.5 217.5 L 150.0 217.5 L 157.5 217.5 L 171.25 216.25 L 191.25 212.5 L 216.25 210.0 L 243.75 210.0 L 262.5 211.25 L 272.5 212.5 L 278.75 212.5 L 280.0 212.5 " stroke="black" fill="none" stroke-width="6.0" stroke-linecap="round" stroke-linejoin="round" />
</svg>