<svg xmlns="http://www.w3.org/2000/svg" width="300" height="300" viewBox="0 0 300 300">
<path d="M 97.5 110.0 L 97.5 110.0 L 97.5 108.75 L 96.25 117.5 L 91.25 141.25 L 85.0 166.25 L 80.0 176.25 L 81.25 175.0 L 91.25 163.75 L 105.0 151.25 L 117.5 143.75 L 123.75 143.75 L 120.0 153.75 L 108.75 171.25 L 97.5 190.0 L 90.0 200.0 L 90.0 202.5 L 98.75 198.75 L 115.0 190.0 L 132.5 183.75 L 142.5 182.5 L 141.25 191.25 L 128.75 207.5 L 113.75 222.5 L 101.25 232.5 L 92.5 235.0 " stroke="black" fill="none" stroke-width="6.0" stroke-linecap="round" stroke-linejoin="round" />
<path d="M 63.75 212.5 L 63.75 213.75 L 61.25 215.0 L 62.5 220.0 L 70.0 231.25 L 80.0 243.75 L 85.0 248.75 L 85.0 248.75 " stroke="black" fill="none" stroke-width="6.0" stroke-linecap="round" stroke-linejoin="round" />
<path d="M 87.5 207.5 L 87.5 207.5 L 86.25 206.25 L 86.25 207.5 L 90.0 218.75 L 95.0 235.0 L 96.25 240.0 " stroke="black" fill="none" stroke-width="6.0" stroke-linecap="round" stroke-linejoin="round" />
<path d="M 111.25 203.75 L 111.25 203.75 L 111.25 203.75 L 111.25 213.75 L 115.0 227.5 L 120.0 238.75 " stroke="black" fill="none" stroke-width="6.0" stroke-linecap="round" stroke-linejoin="round" />
<path d="M 165.0 100.0 L 161.25 103.75 L 158.75 113.75 L 160.0 131.25 L 168.75 138.75 L 186.25 137.5 L 203.75 127.5 L 216.25 117.5 L 221.25 115.0 L 221.25 122.5 L 220.0 148.75 L 220.0 188.75 L 220.0 231.25 L 221.25 256.25 L 222.5 260.0 L 221.25 261.25 L 215.0 258.75 L 206.25 252.5 L 192.5 241.25 " stroke="black" fill="none" stroke-width="6.0" stroke-linecap="round" stroke-linejoin="round" />
<path d="M 161.25 171.25 L 161.25 170.0 L 161.25 170.0 L 168.75 180.0 L 188.75 200.0 L 192.5 206.25 " stroke="black" fill="none" stroke-width="6.0" stroke-linecap="round" stroke-linejoin="round" />
</svg>