<svg xmlns="http://www.w3.org/2000/svg" width="300" height="300" viewBox="0 0 300 300">
<path d="M 103.75 70.0 L 102.5 70.0 L 100.0 73.75 L 98.75 85.0 L 98.75 102.5 L 101.25 116.25 L 102.5 121.25 L 102.5 118.75 L 101.25 112.5 L 100.0 106.25 L 100.0 103.75 L 98.75 103.75 L 100.0 101.25 L 106.25 97.5 L 116.25 92.5 L 125.0 85.0 L 127.5 82.5 " stroke="black" fill="none" stroke-width="6.0" stroke-linecap="round" stroke-linejoin="round" />
<path d="M 71.25 96.25 L 67.5 98.75 L 65.0 106.25 L 68.75 121.25 L 81.25 137.5 L 96.25 141.25 L 118.75 131.25 L 142.5 110.0 L 155.0 93.75 L 156.25 91.25 " stroke="black" fill="none" stroke-width="6.0" stroke-linecap="round" stroke-linejoin="round" />
<path d="M 160.0 87.5 L 158.75 87.5 L 156.25 88.75 L 161.25 87.5 L 173.75 80.0 L 186.25 71.25 L 191.25 65.0 L 186.25 62.5 L 171.25 62.5 L 156.25 63.75 L 143.75 68.75 L 137.5 76.25 L 140.0 88.75 L 148.75 103.75 L 165.0 111.25 L 183.75 107.5 L 200.0 97.5 L 208.75 88.75 L 208.75 86.25 L 206.25 86.25 " stroke="black" fill="none" stroke-width="6.0" stroke-linecap="round" stroke-linejoin="round" />
<path d="M 135.0 137.5 L 133.75 137.5 L 131.25 137.5 L 127.5 142.5 L 121.25 156.25 L 115.0 170.0 L 115.0 173.75 L 121.25 171.25 L 136.25 160.0 L 150.0 148.75 L 160.0 142.5 L 160.0 142.5 L 153.75 151.25 L 143.75 166.25 L 133.75 181.25 L 128.75 188.75 L 131.25 188.75 L 141.25 181.25 L 153.75 170.0 L 166.25 160.0 L 175.0 155.0 L 176.25 153.75 L 166.25 165.0 L 155.0 181.25 L 145.0 195.0 L 140.0 200.0 L 145.0 196.25 L 155.0 187.5 L 166.25 176.25 L 177.5 166.25 L 182.5 161.25 L 181.25 161.25 " stroke="black" fill="none" stroke-width="6.0" stroke-linecap="round" stroke-linejoin="round" />
<path d="M 162.5 176.25 L 162.5 176.25 L 161.25 176.25 L 160.0 186.25 L 165.0 210.0 L 167.5 241.25 L 167.5 261.25 L 167.5 262.5 L 165.0 261.25 L 158.75 257.5 L 150.0 251.25 L 138.75 242.5 L 122.5 233.75 " stroke="black" fill="none" stroke-width="6.0" stroke-linecap="round" stroke-linejoin="round" />
<path d="M 100.0 211.25 L 100.0 210.0 L 100.0 210.0 L 101.25 213.75 L 107.5 228.75 L 116.25 247.5 L 122.5 256.25 L 123.75 256.25 " stroke="black" fill="none" stroke-width="6.0" stroke-linecap="round" stroke-linejoin="round" />
<path d="M 178.75 191.25 L 182.5 191.25 L 190.0 195.0 L 202.5 206.25 L 212.5 223.75 L 220.0 237.5 L 222.5 246.25 " stroke="black" fill="none" stroke-width="6.0" stroke-linecap="round" stroke-linejoin="round" />
</svg>