<svg xmlns="http://www.w3.org/2000/svg" width="300" height="300" viewBox="0 0 300 300">
<path d="M 86.25 96.25 L 86.25 95.0 L 86.25 95.0 L 86.25 93.75 L 87.5 93.75 L 88.75 105.0 L 83.75 126.25 L 72.5 145.0 L 63.75 152.5 L 60.0 153.75 L 63.75 152.5 L 76.25 147.5 L 88.75 142.5 L 96.25 140.0 L 98.75 143.75 L 93.75 155.0 L 83.75 170.0 L 75.0 180.0 L 72.5 185.0 L 76.25 182.5 L 88.75 175.0 L 101.25 166.25 L 110.0 165.0 L 112.5 168.75 L 106.25 186.25 L 91.25 207.5 L 78.75 221.25 L 65.0 228.75 " stroke="black" fill="none" stroke-width="6.0" stroke-linecap="round" stroke-linejoin="round" />
<path d="M 40.0 201.25 L 40.0 201.25 L 40.0 201.25 L 43.75 203.75 L 53.75 216.25 L 62.5 235.0 L 63.75 243.75 L 62.5 243.75 " stroke="black" fill="none" stroke-width="6.0" stroke-linecap="round" stroke-linejoin="round" />
<path d="M 68.75 203.75 L 68.75 203.75 L 68.75 203.75 L 71.25 207.5 L 77.5 218.75 L 85.0 230.0 L 86.25 232.5 " stroke="black" fill="none" stroke-width="6.0" stroke-linecap="round" stroke-linejoin="round" />
<path d="M 98.75 193.75 L 98.75 193.75 L 98.75 193.75 L 100.0 201.25 L 106.25 216.25 L 106.25 220.0 " stroke="black" fill="none" stroke-width="6.0" stroke-linecap="round" stroke-linejoin="round" />
<path d="M 193.75 75.0 L 188.75 78.75 L 178.75 93.75 L 156.25 127.5 L 135.0 160.0 L 118.75 175.0 L 110.0 171.25 L 110.0 167.5 " stroke="black" fill="none" stroke-width="6.0" stroke-linecap="round" stroke-linejoin="round" />
<path d="M 166.25 88.75 L 172.5 88.75 L 191.25 97.5 L 215.0 116.25 L 238.75 136.25 L 255.0 147.5 L 260.0 155.0 L 256.25 161.25 L 253.75 162.5 " stroke="black" fill="none" stroke-width="6.0" stroke-linecap="round" stroke-linejoin="round" />
<path d="M 151.25 168.75 L 148.75 170.0 L 151.25 171.25 L 170.0 168.75 L 196.25 163.75 L 217.5 156.25 L 225.0 152.5 L 216.25 152.5 L 212.5 153.75 " stroke="black" fill="none" stroke-width="6.0" stroke-linecap="round" stroke-linejoin="round" />
<path d="M 156.25 197.5 L 155.0 202.5 L 153.75 217.5 L 162.5 236.25 L 173.75 250.0 L 183.75 255.0 L 187.5 255.0 L 187.5 253.75 L 182.5 251.25 L 176.25 246.25 L 167.5 240.0 L 158.75 231.25 L 153.75 223.75 L 152.5 218.75 L 160.0 213.75 L 181.25 207.5 L 205.0 201.25 L 226.25 197.5 L 233.75 197.5 L 230.0 205.0 L 216.25 218.75 L 200.0 233.75 L 186.25 245.0 L 181.25 250.0 L 187.5 248.75 L 206.25 240.0 L 226.25 227.5 L 243.75 216.25 L 247.5 212.5 " stroke="black" fill="none" stroke-width="6.0" stroke-linecap="round" stroke-linejoin="round" />
</svg>