<svg xmlns="http://www.w3.org/2000/svg" width="300" height="300" viewBox="0 0 300 300">
<path d="M 126.25 88.75 L 118.75 90.0 L 115.0 91.25 L 118.75 91.25 L 136.25 87.5 L 156.25 81.25 L 173.75 73.75 L 183.75 68.75 L 177.5 67.5 " stroke="black" fill="none" stroke-width="6.0" stroke-linecap="round" stroke-linejoin="round" />
<path d="M 147.5 62.5 L 147.5 62.5 L 147.5 62.5 L 147.5 68.75 L 147.5 86.25 L 147.5 105.0 L 146.25 110.0 " stroke="black" fill="none" stroke-width="6.0" stroke-linecap="round" stroke-linejoin="round" />
<path d="M 106.25 118.75 L 105.0 121.25 L 98.75 132.5 L 92.5 147.5 L 85.0 163.75 L 77.5 172.5 L 76.25 172.5 " stroke="black" fill="none" stroke-width="6.0" stroke-linecap="round" stroke-linejoin="round" />
<path d="M 97.5 133.75 L 98.75 132.5 L 108.75 128.75 L 136.25 122.5 L 167.5 116.25 L 196.25 112.5 L 205.0 112.5 L 202.5 117.5 L 187.5 130.0 L 170.0 140.0 L 152.5 146.25 L 148.75 146.25 " stroke="black" fill="none" stroke-width="6.0" stroke-linecap="round" stroke-linejoin="round" />
<path d="M 137.5 131.25 L 136.25 130.0 L 133.75 131.25 L 131.25 141.25 L 128.75 156.25 L 127.5 166.25 L 130.0 168.75 L 138.75 162.5 L 148.75 153.75 L 156.25 146.25 L 160.0 141.25 L 161.25 141.25 L 153.75 153.75 L 145.0 170.0 L 133.75 187.5 L 127.5 195.0 L 127.5 195.0 L 138.75 187.5 L 152.5 176.25 L 168.75 165.0 L 185.0 158.75 L 191.25 157.5 L 190.0 165.0 L 181.25 181.25 L 170.0 193.75 L 157.5 201.25 L 148.75 203.75 " stroke="black" fill="none" stroke-width="6.0" stroke-linecap="round" stroke-linejoin="round" />
<path d="M 153.75 188.75 L 153.75 188.75 L 153.75 188.75 L 153.75 188.75 L 157.5 197.5 L 162.5 225.0 L 163.75 251.25 L 162.5 261.25 L 160.0 261.25 L 153.75 258.75 L 145.0 252.5 L 135.0 245.0 L 128.75 241.25 " stroke="black" fill="none" stroke-width="6.0" stroke-linecap="round" stroke-linejoin="round" />
<path d="M 105.0 213.75 L 105.0 216.25 L 103.75 218.75 L 103.75 237.5 L 108.75 253.75 L 116.25 263.75 L 120.0 263.75 " stroke="black" fill="none" stroke-width="6.0" stroke-linecap="round" stroke-linejoin="round" />
<path d="M 202.5 191.25 L 206.25 191.25 L 211.25 197.5 L 221.25 216.25 L 231.25 238.75 L 235.0 248.75 L 237.5 252.5 L 236.25 252.5 L 235.0 252.5 " stroke="black" fill="none" stroke-width="6.0" stroke-linecap="round" stroke-linejoin="round" />
</svg>