<svg xmlns="http://www.w3.org/2000/svg" width="300" height="300" viewBox="0 0 300 300">
<path d="M 85.0 100.0 L 83.75 98.75 L 82.5 98.75 L 82.5 107.5 L 80.0 130.0 L 76.25 150.0 L 73.75 158.75 L 73.75 158.75 L 78.75 151.25 L 87.5 142.5 L 96.25 136.25 L 101.25 133.75 L 103.75 137.5 L 100.0 150.0 L 92.5 165.0 L 86.25 176.25 L 82.5 182.5 L 85.0 181.25 L 95.0 172.5 L 107.5 163.75 L 118.75 160.0 L 123.75 162.5 L 120.0 176.25 L 107.5 193.75 L 95.0 206.25 L 90.0 210.0 " stroke="black" fill="none" stroke-width="6.0" stroke-linecap="round" stroke-linejoin="round" />
<path d="M 51.25 201.25 L 50.0 198.75 L 50.0 197.5 L 52.5 197.5 L 60.0 203.75 L 67.5 211.25 L 73.75 218.75 L 73.75 221.25 " stroke="black" fill="none" stroke-width="6.0" stroke-linecap="round" stroke-linejoin="round" />
<path d="M 81.25 187.5 L 81.25 188.75 L 81.25 192.5 L 82.5 200.0 L 87.5 208.75 L 91.25 215.0 L 91.25 216.25 " stroke="black" fill="none" stroke-width="6.0" stroke-linecap="round" stroke-linejoin="round" />
<path d="M 101.25 178.75 L 101.25 178.75 L 101.25 181.25 L 103.75 190.0 L 112.5 206.25 L 115.0 210.0 " stroke="black" fill="none" stroke-width="6.0" stroke-linecap="round" stroke-linejoin="round" />
<path d="M 156.25 95.0 L 156.25 95.0 L 155.0 97.5 L 155.0 126.25 L 155.0 171.25 L 158.75 196.25 L 161.25 202.5 L 161.25 201.25 " stroke="black" fill="none" stroke-width="6.0" stroke-linecap="round" stroke-linejoin="round" />
<path d="M 155.0 102.5 L 155.0 98.75 L 160.0 93.75 L 172.5 90.0 L 188.75 90.0 L 202.5 97.5 L 208.75 118.75 L 210.0 150.0 L 210.0 178.75 L 210.0 195.0 L 210.0 200.0 L 210.0 200.0 L 207.5 196.25 L 205.0 192.5 L 201.25 187.5 " stroke="black" fill="none" stroke-width="6.0" stroke-linecap="round" stroke-linejoin="round" />
<path d="M 156.25 151.25 L 155.0 151.25 L 153.75 150.0 L 155.0 148.75 L 166.25 145.0 L 183.75 140.0 L 197.5 135.0 L 201.25 132.5 L 200.0 132.5 " stroke="black" fill="none" stroke-width="6.0" stroke-linecap="round" stroke-linejoin="round" />
<path d="M 161.25 167.5 L 161.25 171.25 L 162.5 175.0 L 173.75 176.25 L 191.25 171.25 L 207.5 163.75 L 211.25 160.0 " stroke="black" fill="none" stroke-width="6.0" stroke-linecap="round" stroke-linejoin="round" />
<path d="M 147.5 210.0 L 147.5 210.0 L 146.25 211.25 L 146.25 211.25 L 151.25 210.0 L 168.75 205.0 L 196.25 198.75 L 220.0 196.25 L 241.25 196.25 L 252.5 196.25 L 256.25 197.5 L 256.25 197.5 L 256.25 197.5 " stroke="black" fill="none" stroke-width="6.0" stroke-linecap="round" stroke-linejoin="round" />
</svg>