<svg xmlns="http://www.w3.org/2000/svg" width="300" height="300" viewBox="0 0 300 300">
<path d="M 78.75 98.75 L 78.75 97.5 L 78.75 96.25 L 80.0 95.0 L 82.5 102.5 L 82.5 122.5 L 78.75 145.0 L 75.0 156.25 L 73.75 157.5 L 76.25 153.75 L 85.0 146.25 L 96.25 138.75 L 103.75 136.25 L 105.0 138.75 L 100.0 152.5 L 88.75 171.25 L 80.0 187.5 L 77.5 191.25 L 83.75 187.5 L 96.25 176.25 L 111.25 165.0 L 121.25 162.5 L 122.5 171.25 L 113.75 188.75 L 101.25 206.25 L 92.5 217.5 L 87.5 221.25 " stroke="black" fill="none" stroke-width="6.0" stroke-linecap="round" stroke-linejoin="round" />
<path d="M 43.75 208.75 L 43.75 208.75 L 42.5 208.75 L 45.0 213.75 L 53.75 227.5 L 62.5 242.5 L 68.75 250.0 L 67.5 250.0 " stroke="black" fill="none" stroke-width="6.0" stroke-linecap="round" stroke-linejoin="round" />
<path d="M 76.25 201.25 L 76.25 201.25 L 75.0 202.5 L 76.25 208.75 L 82.5 220.0 L 87.5 228.75 L 88.75 231.25 " stroke="black" fill="none" stroke-width="6.0" stroke-linecap="round" stroke-linejoin="round" />
<path d="M 96.25 200.0 L 96.25 201.25 L 95.0 205.0 L 97.5 213.75 L 106.25 226.25 L 112.5 233.75 " stroke="black" fill="none" stroke-width="6.0" stroke-linecap="round" stroke-linejoin="round" />
<path d="M 167.5 62.5 L 166.25 62.5 L 162.5 62.5 L 157.5 70.0 L 151.25 85.0 L 148.75 98.75 L 148.75 105.0 L 155.0 106.25 L 165.0 108.75 L 176.25 111.25 L 183.75 113.75 L 187.5 116.25 L 185.0 118.75 " stroke="black" fill="none" stroke-width="6.0" stroke-linecap="round" stroke-linejoin="round" />
<path d="M 161.25 82.5 L 161.25 82.5 L 161.25 82.5 L 166.25 82.5 L 176.25 85.0 L 190.0 95.0 L 183.75 103.75 L 166.25 117.5 L 157.5 122.5 " stroke="black" fill="none" stroke-width="6.0" stroke-linecap="round" stroke-linejoin="round" />
<path d="M 143.75 138.75 L 140.0 140.0 L 137.5 141.25 L 143.75 141.25 L 162.5 135.0 L 186.25 127.5 L 205.0 120.0 L 207.5 118.75 L 200.0 130.0 L 182.5 148.75 L 160.0 173.75 L 138.75 203.75 L 126.25 225.0 L 125.0 227.5 L 127.5 222.5 " stroke="black" fill="none" stroke-width="6.0" stroke-linecap="round" stroke-linejoin="round" />
<path d="M 166.25 167.5 L 167.5 167.5 L 167.5 167.5 L 176.25 173.75 L 195.0 187.5 L 208.75 205.0 L 208.75 220.0 L 198.75 237.5 L 185.0 248.75 L 168.75 253.75 L 156.25 252.5 L 153.75 248.75 " stroke="black" fill="none" stroke-width="6.0" stroke-linecap="round" stroke-linejoin="round" />
<path d="M 177.5 185.0 L 175.0 187.5 L 161.25 198.75 L 152.5 213.75 L 146.25 232.5 L 143.75 241.25 L 143.75 238.75 " stroke="black" fill="none" stroke-width="6.0" stroke-linecap="round" stroke-linejoin="round" />
<path d="M 188.75 190.0 L 185.0 193.75 L 177.5 203.75 L 167.5 220.0 L 158.75 238.75 L 152.5 245.0 " stroke="black" fill="none" stroke-width="6.0" stroke-linecap="round" stroke-linejoin="round" />
<path d="M 233.75 148.75 L 230.0 150.0 L 222.5 156.25 L 215.0 168.75 L 207.5 185.0 L 203.75 192.5 L 203.75 192.5 L 205.0 190.0 L 205.0 190.0 L 205.0 188.75 L 207.5 188.75 L 212.5 188.75 L 221.25 191.25 L 235.0 197.5 L 253.75 207.5 L 271.25 218.75 L 282.5 225.0 " stroke="black" fill="none" stroke-width="6.0" stroke-linecap="round" stroke-linejoin="round" />
</svg>