<svg xmlns="http://www.w3.org/2000/svg" width="300" height="300" viewBox="0 0 300 300">
<path d="M 86.25 92.5 L 86.25 93.75 L 85.0 100.0 L 81.25 121.25 L 73.75 145.0 L 68.75 156.25 L 67.5 157.5 L 68.75 155.0 L 73.75 150.0 L 87.5 141.25 L 95.0 138.75 L 98.75 140.0 L 97.5 150.0 L 90.0 166.25 L 82.5 180.0 L 77.5 187.5 L 78.75 188.75 L 87.5 183.75 L 98.75 176.25 L 111.25 172.5 L 117.5 175.0 L 115.0 186.25 L 103.75 201.25 L 92.5 213.75 L 82.5 221.25 L 80.0 222.5 " stroke="black" fill="none" stroke-width="6.0" stroke-linecap="round" stroke-linejoin="round" />
<path d="M 50.0 201.25 L 50.0 202.5 L 50.0 206.25 L 56.25 216.25 L 67.5 228.75 L 73.75 238.75 L 73.75 240.0 " stroke="black" fill="none" stroke-width="6.0" stroke-linecap="round" stroke-linejoin="round" />
<path d="M 75.0 200.0 L 75.0 200.0 L 75.0 200.0 L 77.5 201.25 L 83.75 207.5 L 90.0 217.5 L 91.25 223.75 " stroke="black" fill="none" stroke-width="6.0" stroke-linecap="round" stroke-linejoin="round" />
<path d="M 95.0 192.5 L 95.0 192.5 L 95.0 192.5 L 96.25 195.0 L 106.25 208.75 L 116.25 231.25 " stroke="black" fill="none" stroke-width="6.0" stroke-linecap="round" stroke-linejoin="round" />
<path d="M 158.75 71.25 L 158.75 71.25 L 160.0 73.75 L 162.5 86.25 L 167.5 102.5 L 170.0 112.5 L 170.0 113.75 " stroke="black" fill="none" stroke-width="6.0" stroke-linecap="round" stroke-linejoin="round" />
<path d="M 162.5 95.0 L 162.5 93.75 L 162.5 91.25 L 167.5 86.25 L 181.25 80.0 L 196.25 73.75 L 203.75 71.25 L 196.25 77.5 " stroke="black" fill="none" stroke-width="6.0" stroke-linecap="round" stroke-linejoin="round" />
<path d="M 142.5 123.75 L 142.5 127.5 L 143.75 136.25 L 151.25 152.5 L 158.75 168.75 L 162.5 178.75 L 163.75 180.0 L 158.75 173.75 L 153.75 163.75 L 150.0 155.0 L 147.5 148.75 L 143.75 142.5 L 142.5 137.5 L 151.25 133.75 L 171.25 126.25 L 198.75 120.0 L 215.0 117.5 L 220.0 125.0 L 212.5 141.25 L 198.75 158.75 L 182.5 173.75 L 163.75 181.25 " stroke="black" fill="none" stroke-width="6.0" stroke-linecap="round" stroke-linejoin="round" />
<path d="M 152.5 163.75 L 152.5 163.75 L 152.5 162.5 L 162.5 157.5 L 185.0 146.25 L 203.75 135.0 L 207.5 132.5 L 197.5 138.75 L 195.0 141.25 " stroke="black" fill="none" stroke-width="6.0" stroke-linecap="round" stroke-linejoin="round" />
<path d="M 160.0 177.5 L 158.75 180.0 L 158.75 181.25 L 168.75 176.25 L 187.5 163.75 L 205.0 151.25 L 208.75 145.0 L 205.0 146.25 " stroke="black" fill="none" stroke-width="6.0" stroke-linecap="round" stroke-linejoin="round" />
<path d="M 143.75 221.25 L 143.75 221.25 L 142.5 222.5 L 150.0 220.0 L 173.75 205.0 L 206.25 185.0 L 222.5 171.25 L 226.25 165.0 L 216.25 167.5 L 205.0 171.25 L 195.0 175.0 L 185.0 175.0 L 182.5 173.75 L 181.25 171.25 L 183.75 170.0 L 186.25 177.5 L 188.75 201.25 L 190.0 240.0 L 188.75 268.75 L 186.25 280.0 L 180.0 285.0 L 168.75 287.5 L 165.0 287.5 " stroke="black" fill="none" stroke-width="6.0" stroke-linecap="round" stroke-linejoin="round" />
</svg>