<svg xmlns="http://www.w3.org/2000/svg" width="300" height="300" viewBox="0 0 300 300">
<path d="M 77.5 88.75 L 77.5 83.75 L 76.25 81.25 L 76.25 82.5 L 76.25 93.75 L 76.25 110.0 L 75.0 125.0 L 73.75 132.5 L 73.75 131.25 L 82.5 123.75 L 93.75 116.25 L 103.75 111.25 L 108.75 111.25 L 107.5 122.5 L 98.75 140.0 L 90.0 153.75 L 83.75 162.5 L 82.5 165.0 L 86.25 162.5 L 96.25 156.25 L 111.25 147.5 L 125.0 143.75 L 132.5 146.25 L 130.0 161.25 L 117.5 185.0 L 102.5 205.0 L 91.25 213.75 " stroke="black" fill="none" stroke-width="6.0" stroke-linecap="round" stroke-linejoin="round" />
<path d="M 60.0 195.0 L 60.0 195.0 L 58.75 196.25 L 61.25 203.75 L 68.75 220.0 L 77.5 236.25 L 81.25 242.5 L 81.25 242.5 " stroke="black" fill="none" stroke-width="6.0" stroke-linecap="round" stroke-linejoin="round" />
<path d="M 85.0 195.0 L 83.75 193.75 L 83.75 193.75 L 86.25 198.75 L 92.5 207.5 L 97.5 215.0 L 98.75 216.25 " stroke="black" fill="none" stroke-width="6.0" stroke-linecap="round" stroke-linejoin="round" />
<path d="M 106.25 190.0 L 107.5 188.75 L 108.75 186.25 L 111.25 186.25 L 117.5 195.0 L 126.25 208.75 L 128.75 216.25 " stroke="black" fill="none" stroke-width="6.0" stroke-linecap="round" stroke-linejoin="round" />
<path d="M 176.25 75.0 L 176.25 73.75 L 176.25 72.5 L 173.75 76.25 L 172.5 90.0 L 168.75 105.0 L 167.5 115.0 L 167.5 116.25 L 175.0 110.0 L 187.5 100.0 L 198.75 92.5 L 203.75 90.0 L 203.75 93.75 L 196.25 108.75 L 185.0 127.5 L 172.5 142.5 L 163.75 150.0 L 162.5 150.0 L 167.5 146.25 L 181.25 137.5 L 198.75 127.5 L 213.75 118.75 L 225.0 115.0 L 227.5 116.25 L 223.75 125.0 L 213.75 140.0 L 203.75 152.5 L 191.25 162.5 L 188.75 163.75 " stroke="black" fill="none" stroke-width="6.0" stroke-linecap="round" stroke-linejoin="round" />
<path d="M 190.0 148.75 L 187.5 151.25 L 185.0 153.75 L 186.25 165.0 L 192.5 188.75 L 193.75 208.75 L 193.75 225.0 L 188.75 233.75 L 185.0 236.25 L 182.5 236.25 L 177.5 231.25 L 172.5 227.5 " stroke="black" fill="none" stroke-width="6.0" stroke-linecap="round" stroke-linejoin="round" />
<path d="M 147.5 188.75 L 147.5 188.75 L 146.25 190.0 L 145.0 192.5 L 147.5 202.5 L 153.75 217.5 L 160.0 231.25 L 161.25 236.25 L 161.25 236.25 " stroke="black" fill="none" stroke-width="6.0" stroke-linecap="round" stroke-linejoin="round" />
<path d="M 203.75 183.75 L 206.25 180.0 L 210.0 180.0 L 216.25 185.0 L 228.75 196.25 L 238.75 205.0 L 248.75 216.25 L 250.0 223.75 " stroke="black" fill="none" stroke-width="6.0" stroke-linecap="round" stroke-linejoin="round" />
</svg>