<svg xmlns="http://www.w3.org/2000/svg" width="300" height="300" viewBox="0 0 300 300">
<path d="M 85.0 87.5 L 85.0 87.5 L 85.0 87.5 L 86.25 87.5 L 90.0 91.25 L 93.75 98.75 L 93.75 111.25 L 88.75 125.0 L 81.25 135.0 L 77.5 137.5 L 80.0 136.25 L 91.25 130.0 L 106.25 122.5 L 117.5 120.0 L 120.0 123.75 L 111.25 140.0 L 97.5 157.5 L 87.5 168.75 L 82.5 173.75 L 86.25 172.5 L 98.75 163.75 L 115.0 155.0 L 128.75 151.25 L 133.75 152.5 L 128.75 168.75 L 113.75 190.0 L 101.25 203.75 L 90.0 212.5 L 83.75 212.5 " stroke="black" fill="none" stroke-width="6.0" stroke-linecap="round" stroke-linejoin="round" />
<path d="M 57.5 193.75 L 56.25 193.75 L 56.25 195.0 L 60.0 201.25 L 71.25 215.0 L 85.0 231.25 L 91.25 240.0 L 91.25 241.25 " stroke="black" fill="none" stroke-width="6.0" stroke-linecap="round" stroke-linejoin="round" />
<path d="M 87.5 195.0 L 87.5 195.0 L 87.5 195.0 L 87.5 201.25 L 92.5 211.25 L 97.5 220.0 L 98.75 221.25 " stroke="black" fill="none" stroke-width="6.0" stroke-linecap="round" stroke-linejoin="round" />
<path d="M 103.75 196.25 L 103.75 196.25 L 103.75 197.5 L 108.75 202.5 L 117.5 208.75 L 123.75 208.75 " stroke="black" fill="none" stroke-width="6.0" stroke-linecap="round" stroke-linejoin="round" />
<path d="M 158.75 107.5 L 157.5 107.5 L 156.25 107.5 L 162.5 106.25 L 178.75 103.75 L 196.25 101.25 L 205.0 105.0 L 201.25 122.5 L 182.5 147.5 L 158.75 168.75 L 142.5 183.75 L 137.5 185.0 " stroke="black" fill="none" stroke-width="6.0" stroke-linecap="round" stroke-linejoin="round" />
<path d="M 143.75 126.25 L 145.0 126.25 L 148.75 127.5 L 162.5 136.25 L 197.5 156.25 L 221.25 168.75 L 242.5 176.25 L 250.0 176.25 L 246.25 176.25 L 242.5 177.5 " stroke="black" fill="none" stroke-width="6.0" stroke-linecap="round" stroke-linejoin="round" />
<path d="M 157.5 211.25 L 162.5 211.25 L 180.0 207.5 L 200.0 196.25 L 210.0 185.0 L 211.25 181.25 " stroke="black" fill="none" stroke-width="6.0" stroke-linecap="round" stroke-linejoin="round" />
<path d="M 168.75 183.75 L 168.75 185.0 L 171.25 188.75 L 181.25 198.75 L 188.75 215.0 L 190.0 230.0 L 180.0 240.0 L 166.25 245.0 L 151.25 248.75 L 145.0 248.75 L 145.0 248.75 L 147.5 247.5 L 156.25 243.75 L 171.25 241.25 L 188.75 238.75 L 207.5 237.5 L 225.0 241.25 L 238.75 246.25 L 246.25 248.75 L 255.0 248.75 L 260.0 242.5 " stroke="black" fill="none" stroke-width="6.0" stroke-linecap="round" stroke-linejoin="round" />
</svg>