<svg xmlns="http://www.w3.org/2000/svg" width="300" height="300" viewBox="0 0 300 300">
<path d="M 86.25 112.5 L 86.25 112.5 L 86.25 111.25 L 87.5 111.25 L 91.25 112.5 L 95.0 121.25 L 96.25 137.5 L 91.25 152.5 L 83.75 161.25 L 77.5 165.0 L 76.25 165.0 L 81.25 160.0 L 91.25 152.5 L 103.75 146.25 L 111.25 143.75 L 113.75 146.25 L 108.75 157.5 L 98.75 173.75 L 91.25 186.25 L 87.5 192.5 L 87.5 192.5 L 96.25 185.0 L 106.25 177.5 L 116.25 173.75 L 122.5 173.75 L 122.5 182.5 L 113.75 196.25 L 101.25 211.25 L 91.25 222.5 L 82.5 226.25 " stroke="black" fill="none" stroke-width="6.0" stroke-linecap="round" stroke-linejoin="round" />
<path d="M 63.75 206.25 L 63.75 205.0 L 62.5 205.0 L 63.75 206.25 L 70.0 215.0 L 77.5 226.25 L 81.25 236.25 L 81.25 237.5 " stroke="black" fill="none" stroke-width="6.0" stroke-linecap="round" stroke-linejoin="round" />
<path d="M 85.0 200.0 L 83.75 201.25 L 83.75 203.75 L 87.5 211.25 L 95.0 221.25 L 98.75 227.5 " stroke="black" fill="none" stroke-width="6.0" stroke-linecap="round" stroke-linejoin="round" />
<path d="M 103.75 197.5 L 103.75 197.5 L 103.75 200.0 L 107.5 206.25 L 117.5 213.75 " stroke="black" fill="none" stroke-width="6.0" stroke-linecap="round" stroke-linejoin="round" />
<path d="M 151.25 96.25 L 147.5 100.0 L 145.0 103.75 L 151.25 103.75 L 166.25 103.75 L 186.25 100.0 L 200.0 93.75 L 203.75 88.75 L 195.0 88.75 L 178.75 93.75 L 162.5 98.75 L 150.0 103.75 L 143.75 112.5 L 143.75 132.5 L 147.5 172.5 L 152.5 216.25 L 157.5 236.25 L 162.5 238.75 L 168.75 232.5 L 176.25 217.5 L 182.5 200.0 L 183.75 182.5 L 182.5 171.25 " stroke="black" fill="none" stroke-width="6.0" stroke-linecap="round" stroke-linejoin="round" />
<path d="M 150.0 160.0 L 150.0 160.0 L 148.75 161.25 L 157.5 155.0 L 178.75 143.75 L 202.5 130.0 L 213.75 120.0 L 210.0 118.75 L 207.5 118.75 " stroke="black" fill="none" stroke-width="6.0" stroke-linecap="round" stroke-linejoin="round" />
<path d="M 187.5 127.5 L 187.5 128.75 L 186.25 132.5 L 191.25 143.75 L 205.0 180.0 L 222.5 220.0 L 235.0 242.5 L 243.75 251.25 L 247.5 252.5 L 247.5 252.5 L 250.0 247.5 L 251.25 238.75 L 251.25 223.75 L 252.5 201.25 L 253.75 166.25 L 257.5 118.75 L 257.5 105.0 " stroke="black" fill="none" stroke-width="6.0" stroke-linecap="round" stroke-linejoin="round" />
</svg>