<svg xmlns="http://www.w3.org/2000/svg" width="300" height="300" viewBox="0 0 300 300">
<path d="M 83.75 98.75 L 83.75 97.5 L 83.75 96.25 L 83.75 96.25 L 85.0 105.0 L 86.25 123.75 L 80.0 143.75 L 73.75 155.0 L 68.75 158.75 L 67.5 157.5 L 75.0 151.25 L 87.5 143.75 L 100.0 137.5 L 107.5 135.0 L 110.0 137.5 L 103.75 148.75 L 93.75 162.5 L 85.0 173.75 L 80.0 182.5 L 78.75 183.75 L 85.0 180.0 L 96.25 172.5 L 107.5 167.5 L 117.5 166.25 L 122.5 168.75 L 120.0 181.25 L 110.0 197.5 L 98.75 211.25 L 90.0 217.5 " stroke="black" fill="none" stroke-width="6.0" stroke-linecap="round" stroke-linejoin="round" />
<path d="M 55.0 201.25 L 55.0 202.5 L 55.0 203.75 L 56.25 207.5 L 63.75 218.75 L 71.25 232.5 L 73.75 243.75 L 72.5 247.5 " stroke="black" fill="none" stroke-width="6.0" stroke-linecap="round" stroke-linejoin="round" />
<path d="M 77.5 202.5 L 80.0 206.25 L 83.75 213.75 L 86.25 223.75 L 87.5 226.25 L 87.5 233.75 " stroke="black" fill="none" stroke-width="6.0" stroke-linecap="round" stroke-linejoin="round" />
<path d="M 96.25 198.75 L 96.25 198.75 L 97.5 198.75 L 100.0 203.75 L 107.5 213.75 L 113.75 222.5 " stroke="black" fill="none" stroke-width="6.0" stroke-linecap="round" stroke-linejoin="round" />
<path d="M 171.25 82.5 L 171.25 82.5 L 168.75 86.25 L 172.5 88.75 L 183.75 91.25 L 195.0 92.5 L 206.25 92.5 L 210.0 92.5 L 206.25 92.5 " stroke="black" fill="none" stroke-width="6.0" stroke-linecap="round" stroke-linejoin="round" />
<path d="M 145.0 130.0 L 143.75 132.5 L 146.25 132.5 L 161.25 128.75 L 187.5 118.75 L 212.5 106.25 L 222.5 98.75 L 222.5 97.5 L 215.0 100.0 L 203.75 108.75 L 193.75 123.75 L 178.75 150.0 L 161.25 195.0 L 152.5 225.0 L 150.0 235.0 L 150.0 232.5 L 150.0 228.75 " stroke="black" fill="none" stroke-width="6.0" stroke-linecap="round" stroke-linejoin="round" />
<path d="M 177.5 157.5 L 177.5 157.5 L 177.5 157.5 L 180.0 157.5 L 190.0 160.0 L 206.25 167.5 L 221.25 177.5 L 226.25 190.0 L 220.0 203.75 L 207.5 217.5 L 196.25 227.5 L 187.5 230.0 L 182.5 228.75 L 181.25 221.25 L 183.75 208.75 " stroke="black" fill="none" stroke-width="6.0" stroke-linecap="round" stroke-linejoin="round" />
</svg>