<svg xmlns="http://www.w3.org/2000/svg" width="300" height="300" viewBox="0 0 300 300">
<path d="M 120.0 87.5 L 118.75 87.5 L 113.75 88.75 L 111.25 88.75 L 115.0 88.75 L 132.5 82.5 L 152.5 73.75 L 168.75 66.25 L 173.75 63.75 L 166.25 63.75 L 153.75 66.25 L 145.0 66.25 L 137.5 66.25 L 133.75 66.25 L 133.75 65.0 L 136.25 75.0 L 140.0 93.75 L 140.0 115.0 L 138.75 125.0 " stroke="black" fill="none" stroke-width="6.0" stroke-linecap="round" stroke-linejoin="round" />
<path d="M 127.5 101.25 L 126.25 102.5 L 125.0 102.5 L 130.0 103.75 L 142.5 102.5 L 156.25 97.5 L 165.0 93.75 L 163.75 92.5 L 158.75 93.75 " stroke="black" fill="none" stroke-width="6.0" stroke-linecap="round" stroke-linejoin="round" />
<path d="M 92.5 145.0 L 85.0 151.25 L 82.5 152.5 L 86.25 152.5 L 111.25 141.25 L 145.0 125.0 L 178.75 105.0 L 197.5 96.25 L 198.75 95.0 L 186.25 102.5 L 165.0 120.0 L 143.75 140.0 L 120.0 162.5 L 106.25 176.25 L 110.0 177.5 L 126.25 170.0 L 147.5 156.25 L 167.5 143.75 L 180.0 135.0 L 182.5 133.75 L 172.5 141.25 L 158.75 155.0 L 147.5 168.75 L 140.0 178.75 L 137.5 181.25 L 141.25 180.0 L 151.25 173.75 L 165.0 165.0 L 180.0 157.5 L 193.75 151.25 L 196.25 151.25 L 192.5 156.25 L 182.5 166.25 L 172.5 173.75 " stroke="black" fill="none" stroke-width="6.0" stroke-linecap="round" stroke-linejoin="round" />
<path d="M 160.0 170.0 L 160.0 170.0 L 160.0 170.0 L 160.0 173.75 L 160.0 193.75 L 161.25 226.25 L 162.5 252.5 L 162.5 260.0 L 160.0 260.0 L 157.5 256.25 L 151.25 248.75 L 140.0 238.75 L 137.5 236.25 " stroke="black" fill="none" stroke-width="6.0" stroke-linecap="round" stroke-linejoin="round" />
<path d="M 96.25 208.75 L 93.75 208.75 L 92.5 210.0 L 95.0 212.5 L 107.5 222.5 L 126.25 238.75 L 145.0 246.25 L 147.5 247.5 " stroke="black" fill="none" stroke-width="6.0" stroke-linecap="round" stroke-linejoin="round" />
<path d="M 198.75 193.75 L 200.0 193.75 L 202.5 195.0 L 212.5 205.0 L 227.5 225.0 L 233.75 241.25 L 233.75 247.5 " stroke="black" fill="none" stroke-width="6.0" stroke-linecap="round" stroke-linejoin="round" />
</svg>