<svg xmlns="http://www.w3.org/2000/svg" width="300" height="300" viewBox="0 0 300 300">
<path d="M 85.0 87.5 L 83.75 90.0 L 83.75 90.0 L 88.75 90.0 L 101.25 83.75 L 116.25 76.25 L 127.5 68.75 L 128.75 67.5 " stroke="black" fill="none" stroke-width="6.0" stroke-linecap="round" stroke-linejoin="round" />
<path d="M 91.25 108.75 L 91.25 111.25 L 93.75 111.25 L 103.75 103.75 L 118.75 95.0 L 131.25 86.25 L 133.75 83.75 L 128.75 86.25 " stroke="black" fill="none" stroke-width="6.0" stroke-linecap="round" stroke-linejoin="round" />
<path d="M 86.25 142.5 L 85.0 146.25 L 88.75 146.25 L 102.5 136.25 L 122.5 122.5 L 137.5 107.5 L 142.5 96.25 L 136.25 93.75 L 126.25 93.75 L 117.5 91.25 L 108.75 87.5 L 103.75 81.25 L 102.5 75.0 L 103.75 73.75 L 106.25 80.0 L 110.0 102.5 L 113.75 137.5 L 115.0 166.25 L 115.0 173.75 " stroke="black" fill="none" stroke-width="6.0" stroke-linecap="round" stroke-linejoin="round" />
<path d="M 163.75 73.75 L 161.25 76.25 L 158.75 78.75 L 166.25 78.75 L 182.5 78.75 L 197.5 77.5 L 205.0 77.5 L 206.25 82.5 L 196.25 92.5 L 183.75 103.75 L 171.25 110.0 L 162.5 111.25 " stroke="black" fill="none" stroke-width="6.0" stroke-linecap="round" stroke-linejoin="round" />
<path d="M 170.0 85.0 L 170.0 85.0 L 167.5 87.5 L 162.5 97.5 L 156.25 120.0 L 151.25 146.25 " stroke="black" fill="none" stroke-width="6.0" stroke-linecap="round" stroke-linejoin="round" />
<path d="M 145.0 147.5 L 143.75 146.25 L 141.25 146.25 L 136.25 152.5 L 130.0 168.75 L 123.75 187.5 L 121.25 196.25 L 122.5 197.5 L 133.75 191.25 L 147.5 181.25 L 161.25 171.25 L 172.5 163.75 L 176.25 162.5 L 172.5 166.25 L 161.25 180.0 L 151.25 192.5 L 141.25 205.0 L 133.75 213.75 L 132.5 216.25 L 140.0 215.0 L 153.75 206.25 L 170.0 196.25 L 186.25 188.75 L 198.75 183.75 L 201.25 183.75 L 200.0 185.0 L 188.75 193.75 L 176.25 202.5 L 161.25 211.25 " stroke="black" fill="none" stroke-width="6.0" stroke-linecap="round" stroke-linejoin="round" />
<path d="M 161.25 207.5 L 161.25 207.5 L 161.25 210.0 L 161.25 215.0 L 163.75 230.0 L 168.75 246.25 L 168.75 255.0 L 167.5 257.5 L 162.5 257.5 L 156.25 255.0 L 150.0 253.75 " stroke="black" fill="none" stroke-width="6.0" stroke-linecap="round" stroke-linejoin="round" />
<path d="M 100.0 227.5 L 100.0 227.5 L 100.0 226.25 L 105.0 228.75 L 115.0 238.75 L 126.25 253.75 L 133.75 266.25 L 135.0 270.0 " stroke="black" fill="none" stroke-width="6.0" stroke-linecap="round" stroke-linejoin="round" />
<path d="M 201.25 216.25 L 202.5 218.75 L 203.75 225.0 L 210.0 236.25 L 221.25 252.5 L 230.0 265.0 L 236.25 271.25 L 237.5 276.25 " stroke="black" fill="none" stroke-width="6.0" stroke-linecap="round" stroke-linejoin="round" />
</svg>