<svg xmlns="http://www.w3.org/2000/svg" width="300" height="300" viewBox="0 0 300 300">
<path d="M 90.0 105.0 L 90.0 103.75 L 90.0 102.5 L 90.0 101.25 L 92.5 101.25 L 93.75 111.25 L 92.5 128.75 L 86.25 146.25 L 80.0 155.0 L 77.5 157.5 L 80.0 155.0 L 90.0 148.75 L 101.25 142.5 L 110.0 138.75 L 115.0 138.75 L 112.5 150.0 L 102.5 167.5 L 92.5 183.75 L 85.0 192.5 L 83.75 195.0 L 87.5 191.25 L 96.25 182.5 L 108.75 175.0 L 120.0 172.5 L 123.75 173.75 L 121.25 185.0 L 108.75 203.75 L 96.25 217.5 L 85.0 226.25 L 76.25 230.0 " stroke="black" fill="none" stroke-width="6.0" stroke-linecap="round" stroke-linejoin="round" />
<path d="M 65.0 216.25 L 68.75 222.5 L 75.0 235.0 L 77.5 243.75 L 77.5 247.5 " stroke="black" fill="none" stroke-width="6.0" stroke-linecap="round" stroke-linejoin="round" />
<path d="M 90.0 220.0 L 95.0 230.0 L 97.5 236.25 L 98.75 237.5 " stroke="black" fill="none" stroke-width="6.0" stroke-linecap="round" stroke-linejoin="round" />
<path d="M 103.75 200.0 L 103.75 201.25 L 103.75 203.75 L 108.75 211.25 L 117.5 225.0 L 120.0 233.75 " stroke="black" fill="none" stroke-width="6.0" stroke-linecap="round" stroke-linejoin="round" />
<path d="M 188.75 86.25 L 187.5 86.25 L 183.75 87.5 L 180.0 90.0 L 175.0 97.5 L 173.75 103.75 L 175.0 106.25 L 185.0 105.0 L 198.75 98.75 L 210.0 93.75 L 216.25 90.0 L 218.75 88.75 L 211.25 98.75 L 196.25 123.75 L 172.5 153.75 L 148.75 180.0 L 135.0 191.25 L 127.5 191.25 L 125.0 186.25 " stroke="black" fill="none" stroke-width="6.0" stroke-linecap="round" stroke-linejoin="round" />
<path d="M 148.75 132.5 L 150.0 132.5 L 152.5 132.5 L 170.0 137.5 L 196.25 147.5 L 220.0 155.0 L 237.5 156.25 L 243.75 156.25 L 243.75 156.25 " stroke="black" fill="none" stroke-width="6.0" stroke-linecap="round" stroke-linejoin="round" />
<path d="M 160.0 182.5 L 160.0 182.5 L 157.5 185.0 L 157.5 185.0 L 168.75 185.0 L 188.75 178.75 L 205.0 172.5 L 212.5 167.5 L 213.75 166.25 L 206.25 166.25 L 196.25 171.25 L 187.5 176.25 L 177.5 183.75 L 166.25 192.5 L 157.5 203.75 L 152.5 210.0 L 151.25 211.25 L 153.75 211.25 L 158.75 211.25 L 168.75 210.0 L 182.5 208.75 L 197.5 205.0 L 215.0 201.25 L 230.0 198.75 L 238.75 197.5 L 242.5 196.25 L 242.5 193.75 L 241.25 192.5 " stroke="black" fill="none" stroke-width="6.0" stroke-linecap="round" stroke-linejoin="round" />
<path d="M 205.0 158.75 L 202.5 158.75 L 201.25 160.0 L 201.25 163.75 L 203.75 186.25 L 208.75 225.0 L 208.75 257.5 L 207.5 273.75 L 202.5 280.0 L 196.25 283.75 " stroke="black" fill="none" stroke-width="6.0" stroke-linecap="round" stroke-linejoin="round" />
</svg>