<svg xmlns="http://www.w3.org/2000/svg" width="300" height="300" viewBox="0 0 300 300">
<path d="M 67.5 98.75 L 67.5 97.5 L 70.0 95.0 L 73.75 93.75 L 78.75 97.5 L 80.0 113.75 L 76.25 133.75 L 66.25 151.25 L 56.25 160.0 L 53.75 160.0 L 56.25 156.25 L 65.0 150.0 L 76.25 145.0 L 85.0 141.25 L 90.0 143.75 L 87.5 153.75 L 78.75 170.0 L 70.0 183.75 L 65.0 190.0 L 66.25 190.0 L 75.0 186.25 L 86.25 180.0 L 93.75 176.25 L 97.5 180.0 L 95.0 192.5 L 86.25 210.0 L 75.0 226.25 L 63.75 233.75 L 56.25 235.0 " stroke="black" fill="none" stroke-width="6.0" stroke-linecap="round" stroke-linejoin="round" />
<path d="M 35.0 196.25 L 35.0 197.5 L 35.0 201.25 L 38.75 207.5 L 45.0 221.25 L 52.5 235.0 L 53.75 240.0 L 53.75 240.0 " stroke="black" fill="none" stroke-width="6.0" stroke-linecap="round" stroke-linejoin="round" />
<path d="M 57.5 201.25 L 56.25 205.0 L 56.25 210.0 L 61.25 218.75 L 66.25 226.25 L 68.75 230.0 " stroke="black" fill="none" stroke-width="6.0" stroke-linecap="round" stroke-linejoin="round" />
<path d="M 80.0 198.75 L 80.0 198.75 L 80.0 203.75 L 87.5 216.25 L 96.25 232.5 L 97.5 236.25 " stroke="black" fill="none" stroke-width="6.0" stroke-linecap="round" stroke-linejoin="round" />
<path d="M 132.5 81.25 L 132.5 81.25 L 130.0 81.25 L 130.0 87.5 L 131.25 107.5 L 135.0 131.25 L 137.5 141.25 L 137.5 140.0 L 137.5 135.0 " stroke="black" fill="none" stroke-width="6.0" stroke-linecap="round" stroke-linejoin="round" />
<path d="M 131.25 91.25 L 131.25 91.25 L 130.0 91.25 L 128.75 91.25 L 136.25 90.0 L 150.0 87.5 L 163.75 87.5 L 172.5 90.0 L 170.0 103.75 L 158.75 121.25 L 148.75 136.25 L 142.5 140.0 L 140.0 138.75 " stroke="black" fill="none" stroke-width="6.0" stroke-linecap="round" stroke-linejoin="round" />
<path d="M 145.0 85.0 L 145.0 85.0 L 145.0 85.0 L 143.75 92.5 L 143.75 111.25 L 145.0 130.0 L 142.5 138.75 L 140.0 138.75 L 137.5 137.5 L 137.5 136.25 L 140.0 132.5 L 147.5 127.5 L 155.0 122.5 L 160.0 121.25 L 161.25 125.0 L 153.75 140.0 L 141.25 160.0 L 131.25 171.25 L 126.25 171.25 L 126.25 168.75 " stroke="black" fill="none" stroke-width="6.0" stroke-linecap="round" stroke-linejoin="round" />
<path d="M 156.25 136.25 L 156.25 138.75 L 157.5 142.5 L 162.5 148.75 L 171.25 156.25 L 182.5 160.0 L 183.75 160.0 " stroke="black" fill="none" stroke-width="6.0" stroke-linecap="round" stroke-linejoin="round" />
<path d="M 200.0 75.0 L 196.25 76.25 L 193.75 81.25 L 193.75 92.5 L 193.75 111.25 L 197.5 123.75 L 200.0 127.5 L 200.0 126.25 " stroke="black" fill="none" stroke-width="6.0" stroke-linecap="round" stroke-linejoin="round" />
<path d="M 190.0 87.5 L 187.5 86.25 L 190.0 83.75 L 198.75 81.25 L 210.0 78.75 L 221.25 80.0 L 226.25 90.0 L 223.75 105.0 L 215.0 121.25 L 206.25 132.5 L 202.5 133.75 " stroke="black" fill="none" stroke-width="6.0" stroke-linecap="round" stroke-linejoin="round" />
<path d="M 205.0 76.25 L 206.25 73.75 L 206.25 76.25 L 206.25 85.0 L 205.0 106.25 L 202.5 120.0 L 200.0 126.25 L 200.0 126.25 L 201.25 123.75 L 206.25 120.0 L 211.25 117.5 L 216.25 116.25 L 217.5 121.25 L 210.0 136.25 L 197.5 155.0 L 185.0 168.75 L 182.5 170.0 " stroke="black" fill="none" stroke-width="6.0" stroke-linecap="round" stroke-linejoin="round" />
<path d="M 211.25 133.75 L 211.25 136.25 L 211.25 141.25 L 215.0 148.75 L 221.25 156.25 L 231.25 162.5 L 233.75 163.75 " stroke="black" fill="none" stroke-width="6.0" stroke-linecap="round" stroke-linejoin="round" />
<path d="M 167.5 168.75 L 167.5 168.75 L 166.25 167.5 L 163.75 172.5 L 162.5 197.5 L 163.75 231.25 L 172.5 250.0 L 187.5 252.5 L 201.25 250.0 L 210.0 246.25 L 212.5 245.0 L 212.5 245.0 " stroke="black" fill="none" stroke-width="6.0" stroke-linecap="round" stroke-linejoin="round" />
<path d="M 193.75 183.75 L 193.75 183.75 L 195.0 187.5 L 196.25 206.25 L 192.5 238.75 L 182.5 261.25 L 170.0 270.0 L 155.0 271.25 L 152.5 271.25 " stroke="black" fill="none" stroke-width="6.0" stroke-linecap="round" stroke-linejoin="round" />
<path d="M 121.25 218.75 L 121.25 218.75 L 120.0 218.75 L 130.0 216.25 L 153.75 211.25 L 190.0 203.75 L 217.5 197.5 L 231.25 195.0 L 237.5 192.5 L 237.5 192.5 " stroke="black" fill="none" stroke-width="6.0" stroke-linecap="round" stroke-linejoin="round" />
</svg>