<svg xmlns="http://www.w3.org/2000/svg" width="300" height="300" viewBox="0 0 300 300">
<path d="M 80.0 100.0 L 78.75 101.25 L 77.5 103.75 L 80.0 117.5 L 87.5 140.0 L 91.25 157.5 L 93.75 162.5 L 91.25 160.0 " stroke="black" fill="none" stroke-width="6.0" stroke-linecap="round" stroke-linejoin="round" />
<path d="M 77.5 121.25 L 75.0 116.25 L 77.5 111.25 L 88.75 105.0 L 107.5 98.75 L 125.0 97.5 L 132.5 103.75 L 130.0 118.75 L 117.5 137.5 L 105.0 151.25 L 95.0 155.0 L 91.25 152.5 " stroke="black" fill="none" stroke-width="6.0" stroke-linecap="round" stroke-linejoin="round" />
<path d="M 97.5 101.25 L 97.5 101.25 L 97.5 102.5 L 97.5 111.25 L 97.5 132.5 L 95.0 152.5 L 91.25 157.5 " stroke="black" fill="none" stroke-width="6.0" stroke-linecap="round" stroke-linejoin="round" />
<path d="M 72.5 133.75 L 71.25 133.75 L 67.5 133.75 L 63.75 141.25 L 60.0 155.0 L 58.75 166.25 L 63.75 171.25 L 81.25 167.5 L 102.5 156.25 L 125.0 141.25 L 141.25 128.75 L 145.0 122.5 L 140.0 122.5 L 132.5 128.75 L 125.0 133.75 L 120.0 138.75 L 115.0 143.75 L 113.75 151.25 L 112.5 170.0 L 116.25 201.25 L 117.5 230.0 L 118.75 245.0 L 118.75 246.25 L 115.0 246.25 L 106.25 243.75 L 96.25 242.5 L 87.5 240.0 L 82.5 236.25 " stroke="black" fill="none" stroke-width="6.0" stroke-linecap="round" stroke-linejoin="round" />
<path d="M 113.75 178.75 L 113.75 178.75 L 111.25 178.75 L 106.25 185.0 L 96.25 201.25 L 85.0 217.5 L 77.5 223.75 L 76.25 217.5 " stroke="black" fill="none" stroke-width="6.0" stroke-linecap="round" stroke-linejoin="round" />
<path d="M 107.5 182.5 L 110.0 182.5 L 116.25 182.5 L 128.75 190.0 L 142.5 201.25 L 152.5 206.25 L 153.75 206.25 " stroke="black" fill="none" stroke-width="6.0" stroke-linecap="round" stroke-linejoin="round" />
<path d="M 188.75 92.5 L 182.5 98.75 L 176.25 116.25 L 170.0 136.25 L 168.75 143.75 L 168.75 142.5 " stroke="black" fill="none" stroke-width="6.0" stroke-linecap="round" stroke-linejoin="round" />
<path d="M 200.0 96.25 L 200.0 97.5 L 196.25 103.75 L 188.75 123.75 L 180.0 141.25 L 176.25 150.0 L 177.5 150.0 L 187.5 142.5 L 201.25 131.25 L 212.5 120.0 L 218.75 113.75 L 221.25 113.75 L 212.5 130.0 L 201.25 150.0 L 186.25 171.25 L 166.25 191.25 L 158.75 197.5 L 160.0 196.25 L 172.5 190.0 L 191.25 176.25 L 211.25 161.25 L 228.75 148.75 L 237.5 145.0 L 238.75 147.5 L 230.0 156.25 L 220.0 163.75 L 212.5 168.75 " stroke="black" fill="none" stroke-width="6.0" stroke-linecap="round" stroke-linejoin="round" />
<path d="M 205.0 170.0 L 205.0 170.0 L 203.75 168.75 L 203.75 168.75 L 203.75 178.75 L 206.25 201.25 L 208.75 230.0 L 210.0 247.5 L 210.0 248.75 L 210.0 247.5 L 207.5 246.25 L 205.0 245.0 L 200.0 243.75 L 191.25 243.75 L 188.75 243.75 " stroke="black" fill="none" stroke-width="6.0" stroke-linecap="round" stroke-linejoin="round" />
<path d="M 161.25 210.0 L 161.25 211.25 L 161.25 211.25 L 160.0 216.25 L 160.0 233.75 L 163.75 253.75 L 168.75 265.0 L 171.25 265.0 " stroke="black" fill="none" stroke-width="6.0" stroke-linecap="round" stroke-linejoin="round" />
<path d="M 236.25 195.0 L 236.25 195.0 L 237.5 195.0 L 240.0 198.75 L 247.5 207.5 L 255.0 220.0 L 258.75 231.25 L 258.75 236.25 " stroke="black" fill="none" stroke-width="6.0" stroke-linecap="round" stroke-linejoin="round" />
</svg>