<svg xmlns="http://www.w3.org/2000/svg" width="300" height="300" viewBox="0 0 300 300">
<path d="M 81.25 98.75 L 81.25 98.75 L 81.25 97.5 L 80.0 98.75 L 78.75 111.25 L 75.0 128.75 L 72.5 140.0 L 72.5 141.25 L 77.5 137.5 L 86.25 130.0 L 96.25 123.75 L 101.25 122.5 L 103.75 127.5 L 98.75 141.25 L 90.0 157.5 L 80.0 170.0 L 75.0 177.5 L 76.25 176.25 L 86.25 168.75 L 100.0 160.0 L 112.5 155.0 L 121.25 155.0 L 121.25 166.25 L 108.75 185.0 L 96.25 200.0 L 83.75 208.75 " stroke="black" fill="none" stroke-width="6.0" stroke-linecap="round" stroke-linejoin="round" />
<path d="M 52.5 190.0 L 52.5 192.5 L 52.5 196.25 L 55.0 210.0 L 60.0 226.25 L 63.75 236.25 L 63.75 236.25 " stroke="black" fill="none" stroke-width="6.0" stroke-linecap="round" stroke-linejoin="round" />
<path d="M 75.0 193.75 L 75.0 193.75 L 75.0 193.75 L 75.0 198.75 L 77.5 208.75 L 82.5 218.75 L 83.75 222.5 " stroke="black" fill="none" stroke-width="6.0" stroke-linecap="round" stroke-linejoin="round" />
<path d="M 93.75 186.25 L 93.75 186.25 L 93.75 187.5 L 101.25 200.0 L 111.25 221.25 L 112.5 227.5 " stroke="black" fill="none" stroke-width="6.0" stroke-linecap="round" stroke-linejoin="round" />
<path d="M 146.25 78.75 L 145.0 78.75 L 145.0 78.75 L 150.0 78.75 L 168.75 78.75 L 191.25 73.75 L 203.75 67.5 L 203.75 66.25 L 195.0 70.0 " stroke="black" fill="none" stroke-width="6.0" stroke-linecap="round" stroke-linejoin="round" />
<path d="M 138.75 101.25 L 138.75 108.75 L 142.5 122.5 L 150.0 138.75 L 155.0 145.0 L 160.0 148.75 L 157.5 146.25 L 153.75 140.0 " stroke="black" fill="none" stroke-width="6.0" stroke-linecap="round" stroke-linejoin="round" />
<path d="M 137.5 113.75 L 133.75 111.25 L 133.75 108.75 L 140.0 107.5 L 157.5 103.75 L 186.25 98.75 L 212.5 95.0 L 227.5 93.75 L 228.75 97.5 L 218.75 108.75 L 202.5 122.5 L 186.25 135.0 L 177.5 137.5 " stroke="black" fill="none" stroke-width="6.0" stroke-linecap="round" stroke-linejoin="round" />
<path d="M 161.25 98.75 L 160.0 98.75 L 158.75 98.75 L 158.75 108.75 L 158.75 128.75 L 158.75 142.5 L 158.75 143.75 " stroke="black" fill="none" stroke-width="6.0" stroke-linecap="round" stroke-linejoin="round" />
<path d="M 186.25 87.5 L 186.25 87.5 L 186.25 87.5 L 183.75 95.0 L 176.25 118.75 L 166.25 138.75 L 158.75 147.5 L 155.0 147.5 L 156.25 146.25 L 165.0 143.75 L 182.5 137.5 L 198.75 127.5 L 211.25 118.75 L 212.5 116.25 L 208.75 118.75 " stroke="black" fill="none" stroke-width="6.0" stroke-linecap="round" stroke-linejoin="round" />
<path d="M 153.75 178.75 L 153.75 178.75 L 155.0 178.75 L 166.25 171.25 L 192.5 155.0 L 210.0 142.5 L 213.75 138.75 L 206.25 143.75 L 193.75 153.75 " stroke="black" fill="none" stroke-width="6.0" stroke-linecap="round" stroke-linejoin="round" />
<path d="M 146.25 202.5 L 146.25 202.5 L 146.25 203.75 L 152.5 202.5 L 180.0 187.5 L 212.5 165.0 L 228.75 151.25 L 230.0 147.5 L 218.75 150.0 L 208.75 156.25 L 201.25 162.5 L 196.25 168.75 L 195.0 171.25 L 196.25 178.75 L 200.0 196.25 L 203.75 223.75 L 203.75 247.5 L 203.75 256.25 L 201.25 255.0 L 196.25 250.0 L 186.25 242.5 L 173.75 237.5 " stroke="black" fill="none" stroke-width="6.0" stroke-linecap="round" stroke-linejoin="round" />
<path d="M 138.75 211.25 L 137.5 211.25 L 137.5 213.75 L 137.5 220.0 L 142.5 237.5 L 150.0 253.75 L 157.5 260.0 " stroke="black" fill="none" stroke-width="6.0" stroke-linecap="round" stroke-linejoin="round" />
<path d="M 235.0 196.25 L 238.75 197.5 L 245.0 203.75 L 252.5 216.25 L 260.0 231.25 L 262.5 242.5 L 262.5 248.75 " stroke="black" fill="none" stroke-width="6.0" stroke-linecap="round" stroke-linejoin="round" />
</svg>