<svg xmlns="http://www.w3.org/2000/svg" width="300" height="300" viewBox="0 0 300 300">
<path d="M 63.75 123.75 L 63.75 117.5 L 66.25 111.25 L 73.75 110.0 L 78.75 117.5 L 80.0 135.0 L 75.0 151.25 L 67.5 162.5 L 60.0 168.75 L 57.5 170.0 L 58.75 168.75 L 67.5 161.25 L 78.75 155.0 L 86.25 150.0 L 90.0 150.0 L 90.0 157.5 L 83.75 171.25 L 78.75 182.5 L 76.25 188.75 L 76.25 190.0 L 82.5 186.25 L 90.0 181.25 L 95.0 178.75 L 97.5 180.0 L 96.25 191.25 L 88.75 207.5 L 81.25 221.25 L 71.25 230.0 L 68.75 231.25 " stroke="black" fill="none" stroke-width="6.0" stroke-linecap="round" stroke-linejoin="round" />
<path d="M 45.0 207.5 L 45.0 207.5 L 43.75 207.5 L 42.5 207.5 L 46.25 215.0 L 56.25 230.0 L 63.75 243.75 L 67.5 251.25 L 67.5 250.0 " stroke="black" fill="none" stroke-width="6.0" stroke-linecap="round" stroke-linejoin="round" />
<path d="M 71.25 203.75 L 70.0 203.75 L 68.75 206.25 L 71.25 215.0 L 77.5 227.5 L 83.75 237.5 L 85.0 241.25 " stroke="black" fill="none" stroke-width="6.0" stroke-linecap="round" stroke-linejoin="round" />
<path d="M 86.25 200.0 L 86.25 200.0 L 86.25 200.0 L 86.25 201.25 L 93.75 213.75 L 105.0 232.5 L 108.75 242.5 " stroke="black" fill="none" stroke-width="6.0" stroke-linecap="round" stroke-linejoin="round" />
<path d="M 136.25 88.75 L 135.0 88.75 L 131.25 88.75 L 127.5 90.0 L 125.0 100.0 L 121.25 117.5 L 118.75 131.25 L 116.25 133.75 L 115.0 130.0 L 115.0 122.5 L 117.5 113.75 L 120.0 108.75 L 121.25 105.0 L 125.0 105.0 L 131.25 110.0 L 141.25 118.75 L 150.0 125.0 L 153.75 126.25 " stroke="black" fill="none" stroke-width="6.0" stroke-linecap="round" stroke-linejoin="round" />
<path d="M 172.5 81.25 L 172.5 81.25 L 167.5 82.5 L 162.5 88.75 L 156.25 102.5 L 151.25 116.25 L 150.0 120.0 L 150.0 116.25 L 152.5 108.75 L 155.0 102.5 L 156.25 98.75 L 158.75 97.5 L 161.25 97.5 L 166.25 102.5 L 175.0 110.0 L 180.0 116.25 " stroke="black" fill="none" stroke-width="6.0" stroke-linecap="round" stroke-linejoin="round" />
<path d="M 121.25 140.0 L 117.5 141.25 L 113.75 142.5 L 112.5 143.75 L 118.75 143.75 L 135.0 143.75 L 157.5 137.5 L 186.25 125.0 L 206.25 112.5 L 212.5 105.0 L 212.5 102.5 L 208.75 102.5 L 206.25 102.5 " stroke="black" fill="none" stroke-width="6.0" stroke-linecap="round" stroke-linejoin="round" />
<path d="M 185.0 101.25 L 185.0 100.0 L 185.0 100.0 L 185.0 100.0 L 185.0 100.0 L 188.75 112.5 L 200.0 152.5 L 215.0 201.25 L 226.25 221.25 L 237.5 235.0 L 246.25 241.25 L 253.75 242.5 L 257.5 243.75 L 258.75 243.75 L 260.0 245.0 L 260.0 245.0 L 260.0 245.0 L 260.0 245.0 L 258.75 243.75 L 256.25 238.75 L 253.75 227.5 L 250.0 208.75 " stroke="black" fill="none" stroke-width="6.0" stroke-linecap="round" stroke-linejoin="round" />
<path d="M 223.75 153.75 L 220.0 160.0 L 213.75 176.25 L 205.0 201.25 L 196.25 218.75 L 190.0 222.5 L 190.0 221.25 " stroke="black" fill="none" stroke-width="6.0" stroke-linecap="round" stroke-linejoin="round" />
<path d="M 225.0 81.25 L 225.0 80.0 L 223.75 78.75 L 223.75 78.75 L 230.0 86.25 L 237.5 97.5 L 238.75 100.0 " stroke="black" fill="none" stroke-width="6.0" stroke-linecap="round" stroke-linejoin="round" />
<path d="M 133.75 163.75 L 133.75 163.75 L 133.75 161.25 L 133.75 160.0 L 133.75 158.75 L 135.0 160.0 L 140.0 175.0 L 143.75 197.5 L 146.25 217.5 L 145.0 228.75 L 140.0 235.0 " stroke="black" fill="none" stroke-width="6.0" stroke-linecap="round" stroke-linejoin="round" />
<path d="M 117.5 190.0 L 116.25 190.0 L 113.75 190.0 L 113.75 191.25 L 115.0 191.25 L 122.5 190.0 L 128.75 187.5 L 135.0 185.0 L 136.25 185.0 " stroke="black" fill="none" stroke-width="6.0" stroke-linecap="round" stroke-linejoin="round" />
<path d="M 117.5 205.0 L 112.5 208.75 L 111.25 210.0 L 112.5 210.0 L 120.0 205.0 L 130.0 197.5 L 138.75 190.0 L 145.0 183.75 L 146.25 183.75 " stroke="black" fill="none" stroke-width="6.0" stroke-linecap="round" stroke-linejoin="round" />
<path d="M 120.0 217.5 L 118.75 218.75 L 117.5 220.0 L 121.25 218.75 L 132.5 211.25 L 143.75 201.25 L 152.5 192.5 L 153.75 191.25 " stroke="black" fill="none" stroke-width="6.0" stroke-linecap="round" stroke-linejoin="round" />
<path d="M 158.75 158.75 L 158.75 157.5 L 158.75 157.5 L 157.5 156.25 L 157.5 155.0 L 156.25 155.0 L 156.25 155.0 L 157.5 163.75 L 160.0 185.0 L 163.75 208.75 L 166.25 222.5 L 166.25 226.25 L 166.25 222.5 L 166.25 216.25 L 166.25 211.25 " stroke="black" fill="none" stroke-width="6.0" stroke-linecap="round" stroke-linejoin="round" />
<path d="M 160.0 178.75 L 160.0 178.75 L 157.5 177.5 L 156.25 176.25 L 156.25 175.0 L 160.0 172.5 L 167.5 166.25 L 175.0 161.25 L 178.75 158.75 L 178.75 158.75 L 178.75 160.0 " stroke="black" fill="none" stroke-width="6.0" stroke-linecap="round" stroke-linejoin="round" />
<path d="M 158.75 192.5 L 155.0 196.25 L 153.75 198.75 L 156.25 198.75 L 163.75 196.25 L 172.5 190.0 L 181.25 182.5 L 187.5 177.5 L 187.5 176.25 " stroke="black" fill="none" stroke-width="6.0" stroke-linecap="round" stroke-linejoin="round" />
<path d="M 165.0 208.75 L 162.5 210.0 L 161.25 211.25 L 162.5 211.25 L 171.25 208.75 L 181.25 202.5 L 188.75 198.75 L 191.25 196.25 " stroke="black" fill="none" stroke-width="6.0" stroke-linecap="round" stroke-linejoin="round" />
<path d="M 131.25 243.75 L 128.75 245.0 L 127.5 246.25 L 126.25 246.25 L 126.25 246.25 L 126.25 246.25 L 130.0 245.0 L 133.75 242.5 L 137.5 241.25 L 140.0 240.0 L 143.75 238.75 L 147.5 237.5 L 152.5 236.25 L 157.5 235.0 L 165.0 233.75 L 173.75 232.5 L 182.5 231.25 L 191.25 228.75 L 197.5 227.5 L 201.25 227.5 L 201.25 227.5 L 201.25 228.75 L 201.25 230.0 L 201.25 231.25 L 201.25 232.5 L 201.25 232.5 " stroke="black" fill="none" stroke-width="6.0" stroke-linecap="round" stroke-linejoin="round" />
</svg>