<svg xmlns="http://www.w3.org/2000/svg" width="300" height="300" viewBox="0 0 300 300">
<path d="M 90.0 106.25 L 90.0 103.75 L 91.25 102.5 L 92.5 102.5 L 95.0 110.0 L 95.0 126.25 L 88.75 143.75 L 78.75 155.0 L 72.5 158.75 L 72.5 158.75 L 81.25 153.75 L 93.75 147.5 L 103.75 142.5 L 108.75 141.25 L 107.5 151.25 L 98.75 167.5 L 90.0 183.75 L 83.75 192.5 L 82.5 193.75 L 88.75 190.0 L 98.75 182.5 L 110.0 175.0 L 118.75 172.5 L 121.25 180.0 L 115.0 197.5 L 105.0 215.0 L 95.0 230.0 L 87.5 236.25 " stroke="black" fill="none" stroke-width="6.0" stroke-linecap="round" stroke-linejoin="round" />
<path d="M 55.0 210.0 L 55.0 210.0 L 55.0 212.5 L 62.5 220.0 L 73.75 232.5 L 82.5 241.25 L 82.5 241.25 " stroke="black" fill="none" stroke-width="6.0" stroke-linecap="round" stroke-linejoin="round" />
<path d="M 83.75 205.0 L 83.75 205.0 L 82.5 206.25 L 85.0 212.5 L 91.25 222.5 L 95.0 230.0 L 96.25 232.5 " stroke="black" fill="none" stroke-width="6.0" stroke-linecap="round" stroke-linejoin="round" />
<path d="M 98.75 198.75 L 98.75 198.75 L 98.75 198.75 L 100.0 201.25 L 110.0 212.5 L 121.25 233.75 " stroke="black" fill="none" stroke-width="6.0" stroke-linecap="round" stroke-linejoin="round" />
<path d="M 157.5 93.75 L 157.5 93.75 L 158.75 93.75 L 172.5 90.0 L 196.25 82.5 L 213.75 75.0 L 216.25 70.0 L 211.25 68.75 L 200.0 72.5 L 188.75 75.0 L 178.75 76.25 L 173.75 78.75 L 172.5 85.0 L 177.5 102.5 L 178.75 132.5 L 167.5 162.5 L 151.25 178.75 L 135.0 183.75 L 123.75 182.5 " stroke="black" fill="none" stroke-width="6.0" stroke-linecap="round" stroke-linejoin="round" />
<path d="M 151.25 113.75 L 152.5 113.75 L 156.25 117.5 L 163.75 130.0 L 173.75 142.5 L 180.0 148.75 " stroke="black" fill="none" stroke-width="6.0" stroke-linecap="round" stroke-linejoin="round" />
<path d="M 207.5 101.25 L 210.0 102.5 L 221.25 110.0 L 245.0 127.5 L 265.0 143.75 L 281.25 152.5 L 285.0 153.75 " stroke="black" fill="none" stroke-width="6.0" stroke-linecap="round" stroke-linejoin="round" />
<path d="M 245.0 90.0 L 245.0 90.0 L 245.0 90.0 L 242.5 91.25 L 233.75 103.75 L 226.25 115.0 " stroke="black" fill="none" stroke-width="6.0" stroke-linecap="round" stroke-linejoin="round" />
<path d="M 182.5 127.5 L 182.5 127.5 L 182.5 130.0 L 183.75 145.0 L 186.25 167.5 L 187.5 182.5 L 187.5 185.0 " stroke="black" fill="none" stroke-width="6.0" stroke-linecap="round" stroke-linejoin="round" />
<path d="M 181.25 143.75 L 181.25 142.5 L 185.0 140.0 L 197.5 137.5 L 211.25 136.25 L 230.0 136.25 L 232.5 143.75 L 220.0 156.25 L 206.25 168.75 L 193.75 177.5 L 183.75 178.75 L 182.5 173.75 L 185.0 166.25 L 190.0 161.25 L 197.5 155.0 L 205.0 148.75 L 213.75 143.75 L 220.0 142.5 L 220.0 145.0 L 211.25 155.0 L 201.25 168.75 L 191.25 183.75 L 185.0 190.0 L 186.25 190.0 L 197.5 180.0 L 211.25 166.25 L 225.0 152.5 L 232.5 143.75 L 230.0 143.75 L 221.25 151.25 L 215.0 160.0 L 212.5 167.5 L 211.25 181.25 L 215.0 203.75 L 217.5 227.5 L 218.75 243.75 L 216.25 248.75 L 215.0 248.75 L 210.0 245.0 L 202.5 238.75 L 193.75 227.5 L 186.25 221.25 " stroke="black" fill="none" stroke-width="6.0" stroke-linecap="round" stroke-linejoin="round" />
<path d="M 163.75 202.5 L 163.75 202.5 L 165.0 205.0 L 172.5 213.75 L 185.0 233.75 L 195.0 247.5 " stroke="black" fill="none" stroke-width="6.0" stroke-linecap="round" stroke-linejoin="round" />
<path d="M 248.75 181.25 L 248.75 181.25 L 248.75 182.5 L 253.75 190.0 L 263.75 206.25 L 273.75 225.0 L 278.75 237.5 " stroke="black" fill="none" stroke-width="6.0" stroke-linecap="round" stroke-linejoin="round" />
</svg>