<svg xmlns="http://www.w3.org/2000/svg" width="300" height="300" viewBox="0 0 300 300">
<path d="M 88.75 87.5 L 87.5 85.0 L 87.5 83.75 L 88.75 83.75 L 93.75 86.25 L 98.75 90.0 L 100.0 92.5 " stroke="black" fill="none" stroke-width="6.0" stroke-linecap="round" stroke-linejoin="round" />
<path d="M 127.5 68.75 L 127.5 68.75 L 126.25 70.0 L 122.5 76.25 L 115.0 88.75 L 105.0 101.25 L 100.0 105.0 " stroke="black" fill="none" stroke-width="6.0" stroke-linecap="round" stroke-linejoin="round" />
<path d="M 107.5 71.25 L 107.5 77.5 L 106.25 91.25 L 100.0 120.0 L 90.0 150.0 L 82.5 157.5 L 77.5 157.5 " stroke="black" fill="none" stroke-width="6.0" stroke-linecap="round" stroke-linejoin="round" />
<path d="M 103.75 103.75 L 105.0 103.75 L 111.25 110.0 L 121.25 125.0 L 131.25 142.5 L 140.0 152.5 " stroke="black" fill="none" stroke-width="6.0" stroke-linecap="round" stroke-linejoin="round" />
<path d="M 172.5 72.5 L 171.25 72.5 L 170.0 72.5 L 168.75 76.25 L 168.75 87.5 L 176.25 97.5 " stroke="black" fill="none" stroke-width="6.0" stroke-linecap="round" stroke-linejoin="round" />
<path d="M 207.5 60.0 L 207.5 60.0 L 206.25 61.25 L 201.25 68.75 L 191.25 83.75 L 181.25 95.0 L 177.5 95.0 " stroke="black" fill="none" stroke-width="6.0" stroke-linecap="round" stroke-linejoin="round" />
<path d="M 186.25 51.25 L 185.0 51.25 L 182.5 55.0 L 177.5 73.75 L 170.0 102.5 L 165.0 121.25 L 163.75 122.5 " stroke="black" fill="none" stroke-width="6.0" stroke-linecap="round" stroke-linejoin="round" />
<path d="M 186.25 88.75 L 187.5 87.5 L 188.75 87.5 L 192.5 95.0 L 196.25 110.0 L 196.25 120.0 " stroke="black" fill="none" stroke-width="6.0" stroke-linecap="round" stroke-linejoin="round" />
<path d="M 97.5 146.25 L 96.25 146.25 L 93.75 146.25 L 91.25 146.25 L 90.0 146.25 L 87.5 157.5 L 83.75 176.25 L 82.5 188.75 L 82.5 190.0 L 83.75 181.25 " stroke="black" fill="none" stroke-width="6.0" stroke-linecap="round" stroke-linejoin="round" />
<path d="M 101.25 155.0 L 105.0 152.5 L 117.5 147.5 L 141.25 143.75 L 168.75 140.0 L 196.25 137.5 L 206.25 136.25 L 205.0 140.0 L 197.5 146.25 L 185.0 153.75 L 170.0 158.75 " stroke="black" fill="none" stroke-width="6.0" stroke-linecap="round" stroke-linejoin="round" />
<path d="M 142.5 155.0 L 142.5 153.75 L 142.5 152.5 L 140.0 157.5 L 136.25 170.0 L 132.5 182.5 L 131.25 187.5 L 135.0 186.25 L 147.5 177.5 L 160.0 166.25 L 170.0 160.0 L 171.25 158.75 L 163.75 171.25 L 153.75 186.25 L 142.5 200.0 L 131.25 208.75 L 126.25 211.25 L 128.75 210.0 L 140.0 203.75 L 156.25 195.0 L 175.0 186.25 L 190.0 181.25 L 196.25 181.25 L 192.5 187.5 L 182.5 197.5 L 170.0 206.25 L 157.5 212.5 L 150.0 213.75 L 147.5 212.5 L 148.75 206.25 L 151.25 203.75 L 153.75 202.5 L 155.0 202.5 L 157.5 210.0 L 160.0 226.25 L 162.5 246.25 L 162.5 257.5 L 161.25 260.0 L 156.25 258.75 L 150.0 256.25 L 142.5 251.25 L 132.5 246.25 L 128.75 245.0 " stroke="black" fill="none" stroke-width="6.0" stroke-linecap="round" stroke-linejoin="round" />
<path d="M 108.75 211.25 L 107.5 213.75 L 103.75 221.25 L 103.75 237.5 L 108.75 253.75 L 117.5 265.0 L 126.25 267.5 L 127.5 267.5 " stroke="black" fill="none" stroke-width="6.0" stroke-linecap="round" stroke-linejoin="round" />
<path d="M 191.25 216.25 L 195.0 216.25 L 200.0 220.0 L 210.0 230.0 L 226.25 246.25 L 241.25 260.0 L 246.25 267.5 L 243.75 273.75 L 241.25 273.75 " stroke="black" fill="none" stroke-width="6.0" stroke-linecap="round" stroke-linejoin="round" />
</svg>