<svg xmlns="http://www.w3.org/2000/svg" width="300" height="300" viewBox="0 0 300 300">
<path d="M 71.25 91.25 L 70.0 91.25 L 68.75 92.5 L 70.0 92.5 L 78.75 91.25 L 91.25 86.25 L 103.75 80.0 L 107.5 75.0 L 105.0 73.75 L 103.75 73.75 " stroke="black" fill="none" stroke-width="6.0" stroke-linecap="round" stroke-linejoin="round" />
<path d="M 83.75 72.5 L 83.75 72.5 L 83.75 72.5 L 85.0 76.25 L 87.5 83.75 L 90.0 92.5 L 91.25 100.0 L 87.5 103.75 L 80.0 106.25 L 72.5 110.0 L 68.75 112.5 L 67.5 115.0 L 76.25 115.0 L 87.5 111.25 L 97.5 106.25 L 103.75 101.25 L 103.75 100.0 " stroke="black" fill="none" stroke-width="6.0" stroke-linecap="round" stroke-linejoin="round" />
<path d="M 42.5 150.0 L 42.5 150.0 L 43.75 151.25 L 46.25 151.25 L 56.25 146.25 L 70.0 138.75 L 78.75 132.5 L 78.75 131.25 " stroke="black" fill="none" stroke-width="6.0" stroke-linecap="round" stroke-linejoin="round" />
<path d="M 62.5 128.75 L 62.5 130.0 L 62.5 133.75 L 62.5 142.5 L 61.25 153.75 L 61.25 161.25 L 58.75 162.5 L 56.25 162.5 L 56.25 161.25 L 57.5 160.0 L 63.75 157.5 L 73.75 153.75 L 85.0 147.5 L 95.0 140.0 " stroke="black" fill="none" stroke-width="6.0" stroke-linecap="round" stroke-linejoin="round" />
<path d="M 92.5 122.5 L 92.5 123.75 L 91.25 125.0 L 91.25 125.0 L 95.0 125.0 L 105.0 121.25 L 115.0 116.25 L 118.75 111.25 L 118.75 110.0 L 112.5 108.75 L 107.5 108.75 L 103.75 111.25 L 100.0 115.0 L 98.75 126.25 L 96.25 138.75 L 95.0 147.5 L 95.0 150.0 L 96.25 150.0 L 101.25 147.5 L 107.5 143.75 L 115.0 140.0 L 118.75 136.25 L 118.75 135.0 " stroke="black" fill="none" stroke-width="6.0" stroke-linecap="round" stroke-linejoin="round" />
<path d="M 50.0 181.25 L 50.0 182.5 L 47.5 183.75 L 50.0 185.0 L 66.25 180.0 L 90.0 167.5 L 108.75 153.75 L 118.75 146.25 L 112.5 146.25 " stroke="black" fill="none" stroke-width="6.0" stroke-linecap="round" stroke-linejoin="round" />
<path d="M 77.5 180.0 L 75.0 187.5 L 71.25 202.5 L 70.0 220.0 L 70.0 232.5 L 72.5 233.75 L 75.0 223.75 " stroke="black" fill="none" stroke-width="6.0" stroke-linecap="round" stroke-linejoin="round" />
<path d="M 96.25 171.25 L 96.25 171.25 L 96.25 171.25 L 96.25 178.75 L 101.25 201.25 L 111.25 226.25 L 127.5 242.5 L 147.5 245.0 L 170.0 248.75 L 196.25 250.0 L 215.0 251.25 L 236.25 248.75 L 255.0 245.0 L 262.5 241.25 L 265.0 238.75 L 265.0 236.25 L 262.5 228.75 L 258.75 216.25 L 247.5 200.0 L 233.75 190.0 " stroke="black" fill="none" stroke-width="6.0" stroke-linecap="round" stroke-linejoin="round" />
<path d="M 141.25 131.25 L 140.0 131.25 L 138.75 131.25 L 138.75 131.25 L 138.75 130.0 L 142.5 127.5 L 150.0 125.0 L 158.75 123.75 L 165.0 126.25 L 168.75 143.75 L 170.0 178.75 L 171.25 206.25 L 172.5 216.25 L 172.5 216.25 L 172.5 215.0 L 167.5 208.75 L 160.0 200.0 L 150.0 191.25 L 146.25 186.25 " stroke="black" fill="none" stroke-width="6.0" stroke-linecap="round" stroke-linejoin="round" />
<path d="M 133.75 175.0 L 132.5 175.0 L 131.25 175.0 L 130.0 175.0 L 133.75 173.75 L 143.75 168.75 L 156.25 162.5 L 167.5 157.5 L 167.5 157.5 " stroke="black" fill="none" stroke-width="6.0" stroke-linecap="round" stroke-linejoin="round" />
<path d="M 137.5 200.0 L 133.75 201.25 L 133.75 201.25 L 145.0 191.25 L 165.0 170.0 L 188.75 146.25 L 200.0 132.5 L 201.25 130.0 L 200.0 130.0 L 200.0 130.0 L 201.25 130.0 L 210.0 126.25 L 222.5 122.5 L 233.75 122.5 L 242.5 128.75 L 243.75 148.75 L 242.5 181.25 L 241.25 211.25 L 241.25 226.25 L 243.75 231.25 L 243.75 231.25 L 243.75 230.0 L 241.25 222.5 L 233.75 212.5 L 226.25 207.5 " stroke="black" fill="none" stroke-width="6.0" stroke-linecap="round" stroke-linejoin="round" />
<path d="M 188.75 160.0 L 188.75 160.0 L 186.25 158.75 L 186.25 158.75 L 190.0 157.5 L 201.25 156.25 L 211.25 153.75 L 215.0 153.75 " stroke="black" fill="none" stroke-width="6.0" stroke-linecap="round" stroke-linejoin="round" />
<path d="M 195.0 176.25 L 193.75 176.25 L 191.25 178.75 L 191.25 180.0 L 202.5 180.0 L 218.75 173.75 L 223.75 172.5 " stroke="black" fill="none" stroke-width="6.0" stroke-linecap="round" stroke-linejoin="round" />
</svg>