<svg xmlns="http://www.w3.org/2000/svg" width="300" height="300" viewBox="0 0 300 300">
<path d="M 110.0 65.0 L 110.0 65.0 L 110.0 65.0 L 110.0 65.0 L 115.0 71.25 L 123.75 85.0 L 133.75 100.0 L 136.25 102.5 " stroke="black" fill="none" stroke-width="6.0" stroke-linecap="round" stroke-linejoin="round" />
<path d="M 171.25 57.5 L 171.25 57.5 L 171.25 60.0 L 167.5 71.25 L 155.0 91.25 L 142.5 108.75 L 125.0 120.0 L 108.75 127.5 L 103.75 128.75 L 110.0 128.75 L 127.5 125.0 L 150.0 116.25 L 171.25 103.75 L 185.0 96.25 L 186.25 93.75 L 173.75 96.25 L 162.5 100.0 L 153.75 103.75 L 147.5 110.0 L 146.25 121.25 L 146.25 138.75 L 147.5 162.5 L 147.5 180.0 L 147.5 187.5 L 145.0 187.5 " stroke="black" fill="none" stroke-width="6.0" stroke-linecap="round" stroke-linejoin="round" />
<path d="M 117.5 165.0 L 117.5 165.0 L 115.0 166.25 L 120.0 166.25 L 138.75 160.0 L 165.0 147.5 L 183.75 138.75 L 188.75 137.5 L 176.25 143.75 L 170.0 147.5 " stroke="black" fill="none" stroke-width="6.0" stroke-linecap="round" stroke-linejoin="round" />
<path d="M 135.0 190.0 L 133.75 190.0 L 133.75 191.25 L 138.75 191.25 L 155.0 186.25 L 180.0 173.75 L 200.0 162.5 L 200.0 160.0 " stroke="black" fill="none" stroke-width="6.0" stroke-linecap="round" stroke-linejoin="round" />
<path d="M 87.5 200.0 L 87.5 200.0 L 87.5 200.0 L 87.5 203.75 L 90.0 218.75 L 90.0 240.0 L 91.25 251.25 L 91.25 251.25 " stroke="black" fill="none" stroke-width="6.0" stroke-linecap="round" stroke-linejoin="round" />
<path d="M 133.75 201.25 L 135.0 201.25 L 137.5 203.75 L 143.75 213.75 L 148.75 228.75 L 150.0 236.25 L 150.0 236.25 " stroke="black" fill="none" stroke-width="6.0" stroke-linecap="round" stroke-linejoin="round" />
<path d="M 171.25 202.5 L 173.75 202.5 L 176.25 205.0 L 181.25 210.0 L 191.25 221.25 L 200.0 231.25 L 201.25 235.0 " stroke="black" fill="none" stroke-width="6.0" stroke-linecap="round" stroke-linejoin="round" />
<path d="M 225.0 202.5 L 225.0 202.5 L 225.0 202.5 L 226.25 206.25 L 235.0 218.75 L 246.25 238.75 L 247.5 242.5 " stroke="black" fill="none" stroke-width="6.0" stroke-linecap="round" stroke-linejoin="round" />
</svg>