<svg xmlns="http://www.w3.org/2000/svg" width="300" height="300" viewBox="0 0 300 300">
<path d="M 88.75 87.5 L 87.5 87.5 L 87.5 87.5 L 87.5 93.75 L 92.5 108.75 L 96.25 125.0 L 96.25 128.75 " stroke="black" fill="none" stroke-width="6.0" stroke-linecap="round" stroke-linejoin="round" />
<path d="M 118.75 83.75 L 118.75 83.75 L 120.0 86.25 L 122.5 92.5 L 122.5 108.75 L 115.0 127.5 L 103.75 138.75 L 90.0 145.0 L 75.0 148.75 L 71.25 151.25 L 72.5 151.25 L 86.25 147.5 L 101.25 138.75 L 117.5 130.0 L 130.0 122.5 L 131.25 120.0 " stroke="black" fill="none" stroke-width="6.0" stroke-linecap="round" stroke-linejoin="round" />
<path d="M 78.75 183.75 L 75.0 187.5 L 76.25 187.5 L 87.5 181.25 L 103.75 167.5 L 120.0 153.75 L 125.0 146.25 L 113.75 151.25 L 110.0 153.75 " stroke="black" fill="none" stroke-width="6.0" stroke-linecap="round" stroke-linejoin="round" />
<path d="M 66.25 217.5 L 65.0 220.0 L 71.25 218.75 L 91.25 203.75 L 118.75 180.0 L 137.5 160.0 L 141.25 151.25 L 132.5 152.5 L 123.75 153.75 " stroke="black" fill="none" stroke-width="6.0" stroke-linecap="round" stroke-linejoin="round" />
<path d="M 97.5 145.0 L 97.5 145.0 L 97.5 146.25 L 97.5 153.75 L 100.0 185.0 L 97.5 221.25 L 88.75 246.25 L 77.5 256.25 L 65.0 256.25 " stroke="black" fill="none" stroke-width="6.0" stroke-linecap="round" stroke-linejoin="round" />
<path d="M 143.75 121.25 L 142.5 122.5 L 137.5 122.5 L 137.5 123.75 L 147.5 122.5 L 160.0 120.0 L 171.25 116.25 L 178.75 117.5 L 180.0 136.25 L 177.5 171.25 L 173.75 202.5 L 173.75 217.5 L 173.75 218.75 L 173.75 217.5 L 170.0 212.5 L 165.0 206.25 L 156.25 200.0 L 151.25 196.25 " stroke="black" fill="none" stroke-width="6.0" stroke-linecap="round" stroke-linejoin="round" />
<path d="M 138.75 168.75 L 136.25 167.5 L 135.0 167.5 L 136.25 166.25 L 146.25 162.5 L 160.0 156.25 L 171.25 151.25 L 172.5 150.0 L 171.25 150.0 " stroke="black" fill="none" stroke-width="6.0" stroke-linecap="round" stroke-linejoin="round" />
<path d="M 143.75 187.5 L 137.5 192.5 L 137.5 193.75 L 148.75 185.0 L 165.0 166.25 L 186.25 141.25 L 201.25 118.75 L 203.75 105.0 L 203.75 100.0 L 205.0 100.0 L 207.5 100.0 L 215.0 98.75 L 226.25 96.25 L 236.25 95.0 L 243.75 98.75 L 246.25 115.0 L 246.25 145.0 L 243.75 183.75 L 242.5 217.5 L 243.75 232.5 L 246.25 238.75 L 246.25 240.0 L 246.25 240.0 L 246.25 240.0 L 246.25 240.0 L 241.25 236.25 L 235.0 231.25 L 230.0 227.5 " stroke="black" fill="none" stroke-width="6.0" stroke-linecap="round" stroke-linejoin="round" />
<path d="M 198.75 151.25 L 195.0 151.25 L 193.75 152.5 L 200.0 152.5 L 213.75 152.5 L 228.75 151.25 L 235.0 150.0 " stroke="black" fill="none" stroke-width="6.0" stroke-linecap="round" stroke-linejoin="round" />
<path d="M 201.25 176.25 L 200.0 176.25 L 198.75 178.75 L 202.5 178.75 L 217.5 178.75 L 237.5 177.5 " stroke="black" fill="none" stroke-width="6.0" stroke-linecap="round" stroke-linejoin="round" />
</svg>