<svg xmlns="http://www.w3.org/2000/svg" width="300" height="300" viewBox="0 0 300 300">
<path d="M 108.75 82.5 L 108.75 81.25 L 108.75 81.25 L 115.0 81.25 L 126.25 83.75 L 137.5 88.75 L 142.5 95.0 " stroke="black" fill="none" stroke-width="6.0" stroke-linecap="round" stroke-linejoin="round" />
<path d="M 150.0 63.75 L 150.0 63.75 L 151.25 65.0 L 155.0 67.5 L 158.75 72.5 L 158.75 80.0 L 155.0 87.5 L 142.5 92.5 L 125.0 98.75 L 110.0 105.0 L 106.25 107.5 L 117.5 105.0 L 137.5 98.75 L 156.25 88.75 L 171.25 78.75 L 175.0 73.75 L 165.0 76.25 " stroke="black" fill="none" stroke-width="6.0" stroke-linecap="round" stroke-linejoin="round" />
<path d="M 143.75 93.75 L 142.5 98.75 L 141.25 108.75 L 141.25 127.5 L 141.25 142.5 L 140.0 147.5 L 136.25 146.25 L 135.0 145.0 " stroke="black" fill="none" stroke-width="6.0" stroke-linecap="round" stroke-linejoin="round" />
<path d="M 127.5 132.5 L 126.25 132.5 L 126.25 131.25 L 126.25 131.25 L 136.25 127.5 L 150.0 121.25 L 163.75 115.0 L 168.75 111.25 L 160.0 116.25 " stroke="black" fill="none" stroke-width="6.0" stroke-linecap="round" stroke-linejoin="round" />
<path d="M 125.0 150.0 L 122.5 152.5 L 123.75 153.75 L 136.25 150.0 L 152.5 141.25 L 168.75 130.0 L 173.75 125.0 L 171.25 125.0 " stroke="black" fill="none" stroke-width="6.0" stroke-linecap="round" stroke-linejoin="round" />
<path d="M 98.75 192.5 L 98.75 192.5 L 98.75 193.75 L 106.25 193.75 L 128.75 185.0 L 148.75 176.25 L 153.75 171.25 L 147.5 175.0 " stroke="black" fill="none" stroke-width="6.0" stroke-linecap="round" stroke-linejoin="round" />
<path d="M 78.75 230.0 L 78.75 231.25 L 80.0 232.5 L 95.0 226.25 L 125.0 210.0 L 150.0 195.0 L 157.5 186.25 L 152.5 186.25 L 148.75 188.75 " stroke="black" fill="none" stroke-width="6.0" stroke-linecap="round" stroke-linejoin="round" />
<path d="M 120.0 196.25 L 122.5 197.5 L 125.0 200.0 L 133.75 217.5 L 135.0 243.75 L 128.75 258.75 L 121.25 261.25 L 115.0 261.25 L 113.75 255.0 L 121.25 241.25 L 136.25 217.5 L 153.75 191.25 L 172.5 160.0 L 182.5 142.5 L 185.0 140.0 L 188.75 146.25 L 200.0 171.25 L 215.0 210.0 L 237.5 251.25 L 255.0 278.75 L 260.0 283.75 L 260.0 282.5 L 257.5 276.25 L 252.5 263.75 L 242.5 245.0 L 230.0 216.25 L 228.75 208.75 " stroke="black" fill="none" stroke-width="6.0" stroke-linecap="round" stroke-linejoin="round" />
<path d="M 233.75 161.25 L 233.75 161.25 L 235.0 163.75 L 231.25 176.25 L 215.0 200.0 L 196.25 221.25 L 180.0 227.5 L 176.25 225.0 " stroke="black" fill="none" stroke-width="6.0" stroke-linecap="round" stroke-linejoin="round" />
<path d="M 226.25 111.25 L 228.75 111.25 L 232.5 112.5 L 242.5 126.25 L 252.5 153.75 L 253.75 160.0 " stroke="black" fill="none" stroke-width="6.0" stroke-linecap="round" stroke-linejoin="round" />
</svg>