<svg xmlns="http://www.w3.org/2000/svg" width="300" height="300" viewBox="0 0 300 300">
<path d="M 117.5 60.0 L 116.25 60.0 L 116.25 60.0 L 116.25 60.0 L 122.5 67.5 L 130.0 77.5 L 133.75 82.5 " stroke="black" fill="none" stroke-width="6.0" stroke-linecap="round" stroke-linejoin="round" />
<path d="M 178.75 46.25 L 180.0 47.5 L 180.0 51.25 L 180.0 55.0 L 177.5 63.75 L 170.0 73.75 L 158.75 81.25 L 156.25 82.5 " stroke="black" fill="none" stroke-width="6.0" stroke-linecap="round" stroke-linejoin="round" />
<path d="M 81.25 93.75 L 77.5 95.0 L 73.75 96.25 L 73.75 97.5 L 86.25 97.5 L 110.0 97.5 L 147.5 90.0 L 188.75 77.5 L 212.5 67.5 L 218.75 62.5 L 213.75 62.5 L 205.0 66.25 " stroke="black" fill="none" stroke-width="6.0" stroke-linecap="round" stroke-linejoin="round" />
<path d="M 103.75 103.75 L 105.0 103.75 L 105.0 102.5 L 105.0 101.25 L 105.0 105.0 L 105.0 127.5 L 105.0 161.25 L 103.75 182.5 L 103.75 185.0 L 103.75 176.25 " stroke="black" fill="none" stroke-width="6.0" stroke-linecap="round" stroke-linejoin="round" />
<path d="M 105.0 120.0 L 105.0 113.75 L 105.0 110.0 L 110.0 106.25 L 122.5 103.75 L 136.25 103.75 L 145.0 110.0 L 148.75 128.75 L 146.25 151.25 L 140.0 166.25 L 133.75 176.25 L 128.75 177.5 L 126.25 172.5 L 125.0 171.25 " stroke="black" fill="none" stroke-width="6.0" stroke-linecap="round" stroke-linejoin="round" />
<path d="M 111.25 138.75 L 111.25 137.5 L 111.25 136.25 L 115.0 133.75 L 127.5 130.0 L 141.25 122.5 L 147.5 118.75 L 147.5 118.75 " stroke="black" fill="none" stroke-width="6.0" stroke-linecap="round" stroke-linejoin="round" />
<path d="M 111.25 153.75 L 110.0 156.25 L 110.0 157.5 L 120.0 155.0 L 141.25 142.5 L 165.0 125.0 L 172.5 118.75 " stroke="black" fill="none" stroke-width="6.0" stroke-linecap="round" stroke-linejoin="round" />
<path d="M 181.25 105.0 L 176.25 108.75 L 175.0 112.5 L 175.0 125.0 L 175.0 142.5 L 176.25 152.5 L 177.5 155.0 " stroke="black" fill="none" stroke-width="6.0" stroke-linecap="round" stroke-linejoin="round" />
<path d="M 210.0 90.0 L 210.0 91.25 L 210.0 95.0 L 210.0 110.0 L 210.0 136.25 L 210.0 155.0 L 210.0 163.75 L 210.0 165.0 L 210.0 165.0 L 207.5 163.75 L 202.5 158.75 L 191.25 152.5 " stroke="black" fill="none" stroke-width="6.0" stroke-linecap="round" stroke-linejoin="round" />
<path d="M 98.75 195.0 L 96.25 196.25 L 90.0 200.0 L 88.75 200.0 L 88.75 200.0 L 95.0 201.25 L 105.0 201.25 L 116.25 201.25 L 122.5 200.0 L 131.25 198.75 L 133.75 197.5 L 133.75 198.75 L 132.5 203.75 L 131.25 216.25 L 131.25 235.0 L 131.25 252.5 L 130.0 263.75 L 130.0 267.5 L 128.75 268.75 L 127.5 268.75 L 123.75 267.5 L 120.0 262.5 L 115.0 256.25 L 108.75 250.0 L 106.25 246.25 " stroke="black" fill="none" stroke-width="6.0" stroke-linecap="round" stroke-linejoin="round" />
<path d="M 96.25 227.5 L 92.5 230.0 L 90.0 231.25 L 90.0 232.5 L 96.25 232.5 L 110.0 226.25 L 125.0 217.5 L 135.0 211.25 L 135.0 210.0 " stroke="black" fill="none" stroke-width="6.0" stroke-linecap="round" stroke-linejoin="round" />
<path d="M 102.5 247.5 L 101.25 250.0 L 101.25 251.25 L 111.25 243.75 L 133.75 226.25 L 155.0 203.75 L 168.75 190.0 L 176.25 181.25 L 180.0 178.75 L 180.0 177.5 L 181.25 177.5 L 186.25 177.5 L 197.5 177.5 L 208.75 176.25 L 218.75 176.25 L 226.25 181.25 L 228.75 198.75 L 228.75 222.5 L 226.25 247.5 L 226.25 262.5 L 226.25 267.5 L 226.25 268.75 L 226.25 268.75 L 223.75 265.0 L 218.75 261.25 L 213.75 256.25 " stroke="black" fill="none" stroke-width="6.0" stroke-linecap="round" stroke-linejoin="round" />
<path d="M 182.5 211.25 L 180.0 212.5 L 176.25 215.0 L 176.25 216.25 L 185.0 215.0 L 197.5 211.25 L 208.75 207.5 L 211.25 205.0 " stroke="black" fill="none" stroke-width="6.0" stroke-linecap="round" stroke-linejoin="round" />
<path d="M 178.75 231.25 L 175.0 236.25 L 176.25 238.75 L 190.0 238.75 L 205.0 233.75 L 208.75 232.5 " stroke="black" fill="none" stroke-width="6.0" stroke-linecap="round" stroke-linejoin="round" />
</svg>