<svg xmlns="http://www.w3.org/2000/svg" width="300" height="300" viewBox="0 0 300 300">
<path d="M 88.75 112.5 L 86.25 121.25 L 85.0 150.0 L 85.0 190.0 L 86.25 213.75 L 88.75 220.0 L 88.75 220.0 " stroke="black" fill="none" stroke-width="6.0" stroke-linecap="round" stroke-linejoin="round" />
<path d="M 97.5 101.25 L 98.75 100.0 L 105.0 95.0 L 126.25 88.75 L 156.25 82.5 L 186.25 78.75 L 206.25 80.0 L 213.75 92.5 L 216.25 118.75 L 216.25 158.75 L 215.0 203.75 L 221.25 240.0 L 226.25 255.0 L 228.75 262.5 L 228.75 262.5 L 225.0 260.0 L 216.25 252.5 L 203.75 238.75 L 186.25 217.5 L 181.25 211.25 " stroke="black" fill="none" stroke-width="6.0" stroke-linecap="round" stroke-linejoin="round" />
<path d="M 121.25 108.75 L 121.25 108.75 L 121.25 107.5 L 122.5 110.0 L 130.0 125.0 L 137.5 142.5 L 141.25 148.75 " stroke="black" fill="none" stroke-width="6.0" stroke-linecap="round" stroke-linejoin="round" />
<path d="M 165.0 97.5 L 165.0 97.5 L 165.0 100.0 L 156.25 117.5 L 143.75 138.75 L 128.75 152.5 L 112.5 158.75 L 107.5 161.25 L 111.25 160.0 L 128.75 152.5 L 150.0 141.25 L 170.0 128.75 L 182.5 120.0 L 182.5 117.5 L 176.25 121.25 " stroke="black" fill="none" stroke-width="6.0" stroke-linecap="round" stroke-linejoin="round" />
<path d="M 150.0 142.5 L 147.5 143.75 L 146.25 147.5 L 146.25 156.25 L 146.25 172.5 L 145.0 185.0 L 140.0 192.5 L 131.25 193.75 L 121.25 193.75 L 117.5 193.75 L 117.5 193.75 L 125.0 192.5 L 138.75 187.5 L 153.75 178.75 L 167.5 167.5 L 177.5 157.5 L 173.75 155.0 L 170.0 155.0 " stroke="black" fill="none" stroke-width="6.0" stroke-linecap="round" stroke-linejoin="round" />
<path d="M 130.0 188.75 L 127.5 192.5 L 126.25 203.75 L 132.5 217.5 L 148.75 222.5 L 172.5 212.5 L 193.75 195.0 L 202.5 181.25 L 202.5 180.0 " stroke="black" fill="none" stroke-width="6.0" stroke-linecap="round" stroke-linejoin="round" />
</svg>