<svg xmlns="http://www.w3.org/2000/svg" width="300" height="300" viewBox="0 0 300 300">
<path d="M 85.0 93.75 L 82.5 92.5 L 81.25 92.5 L 85.0 92.5 L 92.5 92.5 L 102.5 92.5 L 108.75 92.5 L 110.0 92.5 " stroke="black" fill="none" stroke-width="6.0" stroke-linecap="round" stroke-linejoin="round" />
<path d="M 73.75 126.25 L 70.0 127.5 L 67.5 130.0 L 72.5 130.0 L 86.25 125.0 L 100.0 117.5 L 111.25 112.5 L 117.5 111.25 L 113.75 117.5 L 102.5 130.0 L 90.0 141.25 L 80.0 148.75 L 75.0 150.0 L 75.0 148.75 L 85.0 142.5 L 96.25 133.75 L 107.5 125.0 L 111.25 120.0 L 107.5 121.25 " stroke="black" fill="none" stroke-width="6.0" stroke-linecap="round" stroke-linejoin="round" />
<path d="M 72.5 131.25 L 68.75 131.25 L 66.25 132.5 L 65.0 146.25 L 66.25 188.75 L 63.75 230.0 L 55.0 250.0 L 45.0 253.75 " stroke="black" fill="none" stroke-width="6.0" stroke-linecap="round" stroke-linejoin="round" />
<path d="M 76.25 171.25 L 75.0 171.25 L 72.5 168.75 L 72.5 168.75 L 76.25 180.0 L 81.25 198.75 L 85.0 216.25 L 86.25 226.25 L 86.25 227.5 L 86.25 225.0 " stroke="black" fill="none" stroke-width="6.0" stroke-linecap="round" stroke-linejoin="round" />
<path d="M 81.25 186.25 L 78.75 185.0 L 78.75 183.75 L 82.5 178.75 L 95.0 167.5 L 113.75 156.25 L 132.5 152.5 L 142.5 160.0 L 143.75 185.0 L 140.0 210.0 L 135.0 226.25 L 131.25 231.25 L 127.5 231.25 L 123.75 223.75 L 120.0 215.0 L 115.0 205.0 L 113.75 203.75 " stroke="black" fill="none" stroke-width="6.0" stroke-linecap="round" stroke-linejoin="round" />
<path d="M 90.0 202.5 L 87.5 203.75 L 85.0 203.75 L 86.25 202.5 L 96.25 195.0 L 107.5 183.75 L 117.5 173.75 L 120.0 167.5 L 116.25 167.5 " stroke="black" fill="none" stroke-width="6.0" stroke-linecap="round" stroke-linejoin="round" />
<path d="M 95.0 173.75 L 95.0 173.75 L 93.75 176.25 L 93.75 183.75 L 98.75 201.25 L 103.75 218.75 L 103.75 225.0 L 103.75 225.0 " stroke="black" fill="none" stroke-width="6.0" stroke-linecap="round" stroke-linejoin="round" />
<path d="M 120.0 163.75 L 120.0 165.0 L 120.0 175.0 L 120.0 198.75 L 121.25 222.5 L 121.25 227.5 " stroke="black" fill="none" stroke-width="6.0" stroke-linecap="round" stroke-linejoin="round" />
<path d="M 153.75 130.0 L 150.0 131.25 L 147.5 132.5 L 148.75 132.5 L 156.25 131.25 L 166.25 128.75 L 175.0 126.25 L 181.25 125.0 L 185.0 136.25 L 185.0 165.0 L 183.75 192.5 L 181.25 207.5 L 181.25 208.75 L 180.0 208.75 L 178.75 206.25 L 176.25 200.0 L 172.5 195.0 L 171.25 192.5 " stroke="black" fill="none" stroke-width="6.0" stroke-linecap="round" stroke-linejoin="round" />
<path d="M 152.5 167.5 L 147.5 170.0 L 145.0 170.0 L 146.25 170.0 L 153.75 166.25 L 166.25 158.75 L 177.5 151.25 L 183.75 147.5 L 183.75 148.75 L 177.5 158.75 L 168.75 173.75 L 160.0 188.75 L 153.75 196.25 L 153.75 195.0 L 162.5 183.75 L 177.5 161.25 L 190.0 138.75 L 198.75 118.75 L 200.0 105.0 L 197.5 103.75 L 193.75 106.25 L 193.75 107.5 L 193.75 107.5 L 198.75 107.5 L 207.5 103.75 L 216.25 100.0 L 223.75 100.0 L 228.75 110.0 L 231.25 136.25 L 233.75 172.5 L 235.0 203.75 L 236.25 218.75 L 236.25 226.25 L 236.25 230.0 L 235.0 232.5 L 233.75 235.0 L 232.5 237.5 L 232.5 238.75 L 231.25 240.0 L 227.5 240.0 L 222.5 235.0 L 216.25 220.0 L 208.75 200.0 " stroke="black" fill="none" stroke-width="6.0" stroke-linecap="round" stroke-linejoin="round" />
<path d="M 198.75 151.25 L 195.0 151.25 L 193.75 151.25 L 193.75 151.25 L 198.75 151.25 L 207.5 151.25 L 217.5 151.25 L 220.0 151.25 " stroke="black" fill="none" stroke-width="6.0" stroke-linecap="round" stroke-linejoin="round" />
<path d="M 200.0 176.25 L 198.75 178.75 L 196.25 182.5 L 202.5 183.75 L 215.0 183.75 L 228.75 180.0 " stroke="black" fill="none" stroke-width="6.0" stroke-linecap="round" stroke-linejoin="round" />
</svg>