<svg xmlns="http://www.w3.org/2000/svg" width="300" height="300" viewBox="0 0 300 300">
<path d="M 93.75 68.75 L 91.25 68.75 L 91.25 68.75 L 93.75 68.75 L 105.0 67.5 L 118.75 65.0 L 128.75 61.25 L 128.75 60.0 " stroke="black" fill="none" stroke-width="6.0" stroke-linecap="round" stroke-linejoin="round" />
<path d="M 82.5 93.75 L 81.25 95.0 L 80.0 102.5 L 82.5 113.75 L 87.5 122.5 L 91.25 125.0 " stroke="black" fill="none" stroke-width="6.0" stroke-linecap="round" stroke-linejoin="round" />
<path d="M 140.0 78.75 L 138.75 78.75 L 135.0 81.25 L 122.5 95.0 L 103.75 116.25 L 87.5 133.75 L 72.5 142.5 L 65.0 145.0 L 68.75 145.0 L 85.0 136.25 L 108.75 122.5 L 135.0 106.25 L 151.25 95.0 L 152.5 91.25 L 142.5 92.5 L 131.25 96.25 L 117.5 96.25 L 106.25 95.0 L 102.5 88.75 L 101.25 85.0 L 106.25 86.25 L 111.25 102.5 L 115.0 132.5 L 115.0 162.5 L 112.5 177.5 L 107.5 177.5 L 103.75 167.5 " stroke="black" fill="none" stroke-width="6.0" stroke-linecap="round" stroke-linejoin="round" />
<path d="M 111.25 121.25 L 110.0 118.75 L 106.25 125.0 L 95.0 147.5 L 77.5 181.25 L 56.25 203.75 L 42.5 208.75 L 41.25 202.5 " stroke="black" fill="none" stroke-width="6.0" stroke-linecap="round" stroke-linejoin="round" />
<path d="M 96.25 127.5 L 103.75 125.0 L 125.0 130.0 L 148.75 140.0 L 168.75 148.75 L 182.5 152.5 L 183.75 156.25 L 170.0 158.75 " stroke="black" fill="none" stroke-width="6.0" stroke-linecap="round" stroke-linejoin="round" />
<path d="M 88.75 185.0 L 86.25 185.0 L 86.25 187.5 L 87.5 201.25 L 93.75 227.5 L 97.5 245.0 L 100.0 251.25 L 100.0 248.75 L 98.75 237.5 " stroke="black" fill="none" stroke-width="6.0" stroke-linecap="round" stroke-linejoin="round" />
<path d="M 95.0 190.0 L 95.0 190.0 L 93.75 188.75 L 93.75 186.25 L 106.25 181.25 L 130.0 175.0 L 148.75 172.5 L 156.25 183.75 L 155.0 201.25 L 145.0 221.25 L 136.25 236.25 L 126.25 242.5 L 118.75 242.5 " stroke="black" fill="none" stroke-width="6.0" stroke-linecap="round" stroke-linejoin="round" />
<path d="M 102.5 215.0 L 101.25 216.25 L 96.25 216.25 L 95.0 217.5 L 101.25 215.0 L 117.5 206.25 L 133.75 195.0 L 143.75 185.0 L 142.5 181.25 L 132.5 182.5 L 123.75 183.75 L 116.25 183.75 L 112.5 183.75 L 112.5 187.5 L 112.5 202.5 L 112.5 227.5 L 108.75 248.75 L 107.5 252.5 L 107.5 251.25 L 113.75 245.0 L 127.5 236.25 L 142.5 223.75 L 153.75 211.25 " stroke="black" fill="none" stroke-width="6.0" stroke-linecap="round" stroke-linejoin="round" />
<path d="M 171.25 122.5 L 165.0 123.75 L 162.5 125.0 L 162.5 125.0 L 170.0 125.0 L 182.5 125.0 L 193.75 123.75 L 202.5 128.75 L 206.25 155.0 L 206.25 192.5 L 205.0 216.25 L 203.75 223.75 L 202.5 225.0 L 202.5 223.75 L 200.0 216.25 L 195.0 205.0 L 188.75 192.5 L 180.0 182.5 L 172.5 176.25 L 167.5 173.75 L 163.75 173.75 L 161.25 173.75 L 161.25 176.25 L 162.5 176.25 L 173.75 173.75 L 187.5 167.5 L 198.75 160.0 L 201.25 160.0 L 192.5 172.5 L 181.25 188.75 L 170.0 200.0 L 165.0 203.75 L 170.0 197.5 L 188.75 180.0 L 207.5 155.0 L 225.0 128.75 L 230.0 115.0 L 226.25 112.5 L 222.5 112.5 L 221.25 115.0 L 221.25 115.0 L 227.5 115.0 L 240.0 113.75 L 251.25 108.75 L 257.5 108.75 L 260.0 123.75 L 260.0 153.75 L 257.5 191.25 L 257.5 218.75 L 258.75 241.25 L 260.0 243.75 L 260.0 243.75 L 260.0 241.25 L 257.5 236.25 L 250.0 228.75 L 238.75 217.5 " stroke="black" fill="none" stroke-width="6.0" stroke-linecap="round" stroke-linejoin="round" />
<path d="M 217.5 161.25 L 217.5 161.25 L 213.75 162.5 L 212.5 162.5 L 221.25 161.25 L 236.25 158.75 L 250.0 156.25 L 252.5 156.25 " stroke="black" fill="none" stroke-width="6.0" stroke-linecap="round" stroke-linejoin="round" />
<path d="M 226.25 187.5 L 221.25 191.25 L 222.5 191.25 L 236.25 187.5 L 251.25 180.0 " stroke="black" fill="none" stroke-width="6.0" stroke-linecap="round" stroke-linejoin="round" />
</svg>