<svg xmlns="http://www.w3.org/2000/svg" width="300" height="300" viewBox="0 0 300 300">
<path d="M 91.25 88.75 L 91.25 88.75 L 90.0 88.75 L 90.0 88.75 L 103.75 88.75 L 127.5 92.5 L 146.25 100.0 L 150.0 111.25 L 140.0 130.0 L 122.5 145.0 L 105.0 153.75 L 93.75 153.75 " stroke="black" fill="none" stroke-width="6.0" stroke-linecap="round" stroke-linejoin="round" />
<path d="M 71.25 133.75 L 71.25 133.75 L 70.0 133.75 L 76.25 133.75 L 97.5 127.5 L 131.25 120.0 L 155.0 111.25 L 157.5 110.0 L 152.5 111.25 " stroke="black" fill="none" stroke-width="6.0" stroke-linecap="round" stroke-linejoin="round" />
<path d="M 67.5 172.5 L 62.5 176.25 L 63.75 176.25 L 78.75 167.5 L 102.5 153.75 L 133.75 137.5 L 150.0 126.25 L 146.25 123.75 L 141.25 123.75 " stroke="black" fill="none" stroke-width="6.0" stroke-linecap="round" stroke-linejoin="round" />
<path d="M 103.75 110.0 L 100.0 113.75 L 95.0 132.5 L 85.0 176.25 L 70.0 213.75 L 57.5 238.75 L 52.5 245.0 L 53.75 240.0 L 55.0 236.25 " stroke="black" fill="none" stroke-width="6.0" stroke-linecap="round" stroke-linejoin="round" />
<path d="M 86.25 183.75 L 87.5 182.5 L 88.75 181.25 L 92.5 182.5 L 102.5 196.25 L 115.0 215.0 L 125.0 228.75 L 128.75 232.5 L 128.75 231.25 L 125.0 226.25 L 118.75 220.0 L 110.0 213.75 L 103.75 207.5 L 100.0 202.5 L 106.25 198.75 L 126.25 191.25 L 147.5 186.25 L 158.75 185.0 L 158.75 192.5 L 147.5 207.5 L 133.75 222.5 L 125.0 230.0 L 125.0 228.75 L 141.25 208.75 L 157.5 186.25 " stroke="black" fill="none" stroke-width="6.0" stroke-linecap="round" stroke-linejoin="round" />
<path d="M 170.0 80.0 L 168.75 77.5 L 167.5 76.25 L 168.75 78.75 L 177.5 91.25 L 187.5 106.25 L 192.5 115.0 " stroke="black" fill="none" stroke-width="6.0" stroke-linecap="round" stroke-linejoin="round" />
<path d="M 210.0 70.0 L 210.0 70.0 L 210.0 68.75 L 213.75 71.25 L 217.5 80.0 L 216.25 97.5 L 207.5 113.75 L 191.25 127.5 L 171.25 136.25 L 162.5 140.0 L 163.75 140.0 L 178.75 137.5 L 200.0 130.0 L 221.25 118.75 L 238.75 107.5 L 242.5 102.5 L 232.5 108.75 L 220.0 118.75 " stroke="black" fill="none" stroke-width="6.0" stroke-linecap="round" stroke-linejoin="round" />
<path d="M 172.5 182.5 L 172.5 183.75 L 172.5 183.75 L 176.25 183.75 L 196.25 172.5 L 218.75 156.25 L 231.25 147.5 L 231.25 147.5 L 218.75 157.5 L 201.25 175.0 L 182.5 195.0 L 161.25 216.25 L 158.75 222.5 L 172.5 221.25 L 196.25 208.75 L 220.0 192.5 L 240.0 175.0 L 251.25 161.25 L 252.5 156.25 L 245.0 153.75 L 232.5 152.5 L 218.75 148.75 L 210.0 143.75 L 205.0 136.25 L 205.0 130.0 L 205.0 127.5 L 205.0 127.5 L 206.25 130.0 L 208.75 145.0 L 212.5 175.0 L 215.0 216.25 L 216.25 250.0 L 213.75 271.25 L 211.25 282.5 L 207.5 286.25 L 197.5 287.5 L 190.0 287.5 " stroke="black" fill="none" stroke-width="6.0" stroke-linecap="round" stroke-linejoin="round" />
</svg>