<svg xmlns="http://www.w3.org/2000/svg" width="300" height="300" viewBox="0 0 300 300">
<path d="M 122.5 75.0 L 122.5 73.75 L 122.5 73.75 L 122.5 75.0 L 126.25 87.5 L 126.25 111.25 L 123.75 137.5 L 115.0 151.25 L 108.75 152.5 " stroke="black" fill="none" stroke-width="6.0" stroke-linecap="round" stroke-linejoin="round" />
<path d="M 86.25 100.0 L 86.25 100.0 L 85.0 100.0 L 85.0 100.0 L 92.5 98.75 L 106.25 97.5 L 123.75 96.25 L 127.5 95.0 " stroke="black" fill="none" stroke-width="6.0" stroke-linecap="round" stroke-linejoin="round" />
<path d="M 88.75 118.75 L 83.75 121.25 L 82.5 122.5 L 87.5 121.25 L 98.75 115.0 L 110.0 110.0 L 112.5 107.5 " stroke="black" fill="none" stroke-width="6.0" stroke-linecap="round" stroke-linejoin="round" />
<path d="M 80.0 145.0 L 80.0 145.0 L 77.5 146.25 L 82.5 143.75 L 101.25 132.5 L 133.75 112.5 L 157.5 93.75 L 160.0 91.25 " stroke="black" fill="none" stroke-width="6.0" stroke-linecap="round" stroke-linejoin="round" />
<path d="M 172.5 55.0 L 172.5 55.0 L 171.25 53.75 L 170.0 52.5 L 170.0 56.25 L 170.0 78.75 L 170.0 116.25 L 170.0 146.25 L 170.0 153.75 L 170.0 152.5 L 170.0 150.0 " stroke="black" fill="none" stroke-width="6.0" stroke-linecap="round" stroke-linejoin="round" />
<path d="M 173.75 81.25 L 173.75 80.0 L 171.25 78.75 L 171.25 77.5 L 178.75 76.25 L 191.25 72.5 L 202.5 70.0 L 205.0 68.75 L 205.0 70.0 " stroke="black" fill="none" stroke-width="6.0" stroke-linecap="round" stroke-linejoin="round" />
<path d="M 165.0 93.75 L 162.5 95.0 L 161.25 95.0 L 163.75 95.0 L 176.25 91.25 L 191.25 86.25 L 202.5 82.5 L 203.75 82.5 " stroke="black" fill="none" stroke-width="6.0" stroke-linecap="round" stroke-linejoin="round" />
<path d="M 167.5 116.25 L 165.0 117.5 L 162.5 120.0 L 166.25 120.0 L 181.25 113.75 L 200.0 103.75 L 215.0 93.75 " stroke="black" fill="none" stroke-width="6.0" stroke-linecap="round" stroke-linejoin="round" />
<path d="M 85.0 180.0 L 83.75 181.25 L 83.75 181.25 L 86.25 181.25 L 98.75 175.0 L 117.5 167.5 L 132.5 165.0 L 138.75 171.25 L 138.75 195.0 L 136.25 226.25 L 133.75 250.0 L 133.75 257.5 L 133.75 258.75 L 132.5 256.25 L 131.25 250.0 L 128.75 240.0 L 121.25 230.0 L 110.0 220.0 " stroke="black" fill="none" stroke-width="6.0" stroke-linecap="round" stroke-linejoin="round" />
<path d="M 88.75 208.75 L 87.5 208.75 L 85.0 208.75 L 86.25 208.75 L 96.25 205.0 L 113.75 198.75 L 130.0 192.5 L 135.0 191.25 L 130.0 195.0 " stroke="black" fill="none" stroke-width="6.0" stroke-linecap="round" stroke-linejoin="round" />
<path d="M 96.25 236.25 L 90.0 242.5 L 88.75 243.75 L 95.0 238.75 L 116.25 221.25 L 141.25 198.75 L 165.0 177.5 L 176.25 165.0 L 177.5 162.5 L 177.5 162.5 L 180.0 161.25 L 191.25 157.5 L 205.0 153.75 L 216.25 151.25 L 222.5 155.0 L 225.0 175.0 L 221.25 207.5 L 216.25 245.0 L 215.0 268.75 L 215.0 275.0 L 216.25 275.0 L 216.25 273.75 L 213.75 270.0 L 207.5 263.75 " stroke="black" fill="none" stroke-width="6.0" stroke-linecap="round" stroke-linejoin="round" />
<path d="M 166.25 198.75 L 163.75 198.75 L 162.5 197.5 L 165.0 196.25 L 180.0 196.25 L 197.5 196.25 L 210.0 198.75 " stroke="black" fill="none" stroke-width="6.0" stroke-linecap="round" stroke-linejoin="round" />
<path d="M 167.5 227.5 L 165.0 228.75 L 163.75 230.0 L 172.5 230.0 L 195.0 223.75 L 210.0 218.75 " stroke="black" fill="none" stroke-width="6.0" stroke-linecap="round" stroke-linejoin="round" />
</svg>