<svg xmlns="http://www.w3.org/2000/svg" width="300" height="300" viewBox="0 0 300 300">
<path d="M 82.5 93.75 L 81.25 93.75 L 81.25 93.75 L 87.5 93.75 L 101.25 90.0 L 115.0 88.75 L 126.25 93.75 L 130.0 111.25 L 127.5 138.75 L 123.75 157.5 L 122.5 165.0 L 121.25 165.0 L 120.0 160.0 L 116.25 151.25 L 108.75 143.75 L 103.75 138.75 " stroke="black" fill="none" stroke-width="6.0" stroke-linecap="round" stroke-linejoin="round" />
<path d="M 72.5 132.5 L 70.0 132.5 L 66.25 132.5 L 67.5 132.5 L 80.0 127.5 L 96.25 121.25 L 112.5 112.5 L 117.5 107.5 " stroke="black" fill="none" stroke-width="6.0" stroke-linecap="round" stroke-linejoin="round" />
<path d="M 85.0 151.25 L 83.75 152.5 L 82.5 152.5 L 88.75 148.75 L 117.5 125.0 L 132.5 111.25 " stroke="black" fill="none" stroke-width="6.0" stroke-linecap="round" stroke-linejoin="round" />
<path d="M 153.75 83.75 L 153.75 83.75 L 152.5 83.75 L 158.75 82.5 L 175.0 78.75 L 192.5 76.25 L 200.0 82.5 L 201.25 102.5 L 197.5 132.5 L 195.0 148.75 L 193.75 153.75 L 193.75 153.75 L 191.25 147.5 L 187.5 141.25 L 183.75 137.5 " stroke="black" fill="none" stroke-width="6.0" stroke-linecap="round" stroke-linejoin="round" />
<path d="M 152.5 111.25 L 152.5 111.25 L 151.25 111.25 L 152.5 111.25 L 161.25 110.0 L 173.75 107.5 L 178.75 105.0 " stroke="black" fill="none" stroke-width="6.0" stroke-linecap="round" stroke-linejoin="round" />
<path d="M 148.75 133.75 L 146.25 136.25 L 146.25 137.5 L 160.0 133.75 L 182.5 123.75 L 192.5 117.5 " stroke="black" fill="none" stroke-width="6.0" stroke-linecap="round" stroke-linejoin="round" />
<path d="M 115.0 170.0 L 115.0 170.0 L 112.5 175.0 L 112.5 177.5 L 126.25 176.25 L 143.75 168.75 L 158.75 160.0 L 166.25 155.0 L 163.75 155.0 L 152.5 162.5 L 140.0 177.5 L 128.75 195.0 L 121.25 218.75 L 120.0 243.75 L 123.75 253.75 L 128.75 256.25 L 130.0 255.0 L 130.0 251.25 L 127.5 246.25 " stroke="black" fill="none" stroke-width="6.0" stroke-linecap="round" stroke-linejoin="round" />
<path d="M 122.5 205.0 L 122.5 205.0 L 126.25 203.75 L 140.0 200.0 L 165.0 195.0 L 186.25 195.0 L 196.25 206.25 L 195.0 221.25 L 186.25 237.5 L 175.0 248.75 L 161.25 253.75 " stroke="black" fill="none" stroke-width="6.0" stroke-linecap="round" stroke-linejoin="round" />
<path d="M 122.5 230.0 L 122.5 230.0 L 118.75 230.0 L 120.0 231.25 L 135.0 230.0 L 155.0 226.25 L 175.0 220.0 L 182.5 216.25 L 180.0 216.25 " stroke="black" fill="none" stroke-width="6.0" stroke-linecap="round" stroke-linejoin="round" />
<path d="M 118.75 256.25 L 118.75 256.25 L 117.5 257.5 L 125.0 257.5 L 147.5 252.5 L 173.75 245.0 L 185.0 241.25 " stroke="black" fill="none" stroke-width="6.0" stroke-linecap="round" stroke-linejoin="round" />
</svg>