<svg xmlns="http://www.w3.org/2000/svg" width="300" height="300" viewBox="0 0 300 300">
<path d="M 85.0 73.75 L 83.75 76.25 L 83.75 85.0 L 88.75 97.5 L 93.75 107.5 L 97.5 108.75 L 97.5 107.5 " stroke="black" fill="none" stroke-width="6.0" stroke-linecap="round" stroke-linejoin="round" />
<path d="M 82.5 77.5 L 82.5 77.5 L 81.25 77.5 L 82.5 77.5 L 96.25 76.25 L 131.25 68.75 L 171.25 60.0 L 198.75 56.25 L 205.0 58.75 L 202.5 65.0 L 193.75 73.75 L 181.25 82.5 L 166.25 87.5 L 158.75 90.0 " stroke="black" fill="none" stroke-width="6.0" stroke-linecap="round" stroke-linejoin="round" />
<path d="M 111.25 78.75 L 111.25 78.75 L 112.5 81.25 L 113.75 91.25 L 116.25 102.5 L 116.25 106.25 " stroke="black" fill="none" stroke-width="6.0" stroke-linecap="round" stroke-linejoin="round" />
<path d="M 142.5 66.25 L 142.5 66.25 L 142.5 67.5 L 138.75 75.0 L 132.5 88.75 L 121.25 102.5 L 110.0 110.0 L 105.0 112.5 L 107.5 112.5 L 122.5 108.75 L 142.5 101.25 L 161.25 92.5 L 175.0 86.25 L 178.75 82.5 " stroke="black" fill="none" stroke-width="6.0" stroke-linecap="round" stroke-linejoin="round" />
<path d="M 92.5 146.25 L 92.5 146.25 L 92.5 146.25 L 93.75 146.25 L 97.5 146.25 L 105.0 146.25 L 107.5 150.0 L 106.25 158.75 L 96.25 167.5 L 86.25 177.5 L 81.25 181.25 L 83.75 180.0 L 93.75 173.75 L 105.0 167.5 L 112.5 165.0 L 115.0 165.0 L 108.75 176.25 L 100.0 187.5 L 93.75 195.0 L 92.5 197.5 L 97.5 196.25 L 108.75 190.0 L 120.0 186.25 L 126.25 185.0 L 127.5 191.25 L 117.5 205.0 L 105.0 220.0 L 92.5 231.25 L 87.5 235.0 " stroke="black" fill="none" stroke-width="6.0" stroke-linecap="round" stroke-linejoin="round" />
<path d="M 66.25 206.25 L 66.25 206.25 L 67.5 207.5 L 72.5 211.25 L 81.25 222.5 L 90.0 236.25 L 92.5 242.5 L 91.25 242.5 " stroke="black" fill="none" stroke-width="6.0" stroke-linecap="round" stroke-linejoin="round" />
<path d="M 90.0 201.25 L 90.0 201.25 L 90.0 202.5 L 92.5 210.0 L 97.5 221.25 L 100.0 228.75 " stroke="black" fill="none" stroke-width="6.0" stroke-linecap="round" stroke-linejoin="round" />
<path d="M 111.25 196.25 L 110.0 197.5 L 110.0 202.5 L 112.5 211.25 L 117.5 217.5 " stroke="black" fill="none" stroke-width="6.0" stroke-linecap="round" stroke-linejoin="round" />
<path d="M 146.25 130.0 L 141.25 136.25 L 135.0 147.5 L 128.75 165.0 L 127.5 178.75 L 128.75 178.75 L 132.5 167.5 " stroke="black" fill="none" stroke-width="6.0" stroke-linecap="round" stroke-linejoin="round" />
<path d="M 147.5 135.0 L 147.5 137.5 L 147.5 155.0 L 147.5 196.25 L 147.5 231.25 L 146.25 250.0 L 145.0 252.5 L 145.0 250.0 " stroke="black" fill="none" stroke-width="6.0" stroke-linecap="round" stroke-linejoin="round" />
<path d="M 162.5 123.75 L 162.5 123.75 L 163.75 123.75 L 173.75 122.5 L 188.75 123.75 L 201.25 126.25 L 205.0 128.75 L 200.0 133.75 L 188.75 138.75 " stroke="black" fill="none" stroke-width="6.0" stroke-linecap="round" stroke-linejoin="round" />
<path d="M 161.25 155.0 L 161.25 156.25 L 161.25 156.25 L 165.0 156.25 L 177.5 150.0 L 193.75 140.0 L 202.5 132.5 L 203.75 130.0 L 195.0 138.75 L 192.5 141.25 " stroke="black" fill="none" stroke-width="6.0" stroke-linecap="round" stroke-linejoin="round" />
<path d="M 165.0 190.0 L 165.0 190.0 L 166.25 190.0 L 178.75 183.75 L 200.0 165.0 L 210.0 151.25 L 212.5 146.25 L 207.5 147.5 L 201.25 150.0 L 196.25 151.25 L 191.25 152.5 L 188.75 153.75 L 187.5 161.25 L 187.5 178.75 L 187.5 203.75 L 190.0 225.0 L 191.25 233.75 L 188.75 233.75 L 182.5 227.5 L 175.0 222.5 L 168.75 217.5 L 165.0 215.0 L 163.75 215.0 L 168.75 213.75 L 183.75 206.25 L 201.25 196.25 L 215.0 185.0 L 221.25 176.25 L 217.5 176.25 L 213.75 180.0 " stroke="black" fill="none" stroke-width="6.0" stroke-linecap="round" stroke-linejoin="round" />
<path d="M 178.75 241.25 L 177.5 243.75 L 177.5 245.0 L 190.0 243.75 L 208.75 230.0 L 226.25 213.75 L 233.75 203.75 L 233.75 201.25 " stroke="black" fill="none" stroke-width="6.0" stroke-linecap="round" stroke-linejoin="round" />
</svg>