<svg xmlns="http://www.w3.org/2000/svg" width="300" height="300" viewBox="0 0 300 300">
<path d="M 98.75 78.75 L 98.75 78.75 L 98.75 77.5 L 101.25 77.5 L 110.0 81.25 L 121.25 92.5 L 127.5 106.25 L 125.0 121.25 L 111.25 133.75 L 95.0 140.0 L 78.75 142.5 L 67.5 141.25 L 63.75 137.5 L 70.0 132.5 L 83.75 125.0 L 100.0 116.25 L 117.5 108.75 L 132.5 107.5 L 135.0 112.5 L 122.5 135.0 L 107.5 150.0 L 97.5 158.75 L 95.0 160.0 L 103.75 151.25 L 122.5 132.5 L 145.0 103.75 L 163.75 78.75 L 175.0 61.25 L 180.0 53.75 L 178.75 55.0 L 173.75 70.0 L 170.0 96.25 L 170.0 120.0 L 183.75 136.25 L 203.75 137.5 L 217.5 128.75 L 226.25 118.75 L 226.25 111.25 L 218.75 107.5 L 206.25 106.25 L 190.0 106.25 L 173.75 106.25 L 165.0 106.25 L 166.25 107.5 L 181.25 103.75 L 201.25 96.25 L 220.0 88.75 L 227.5 85.0 " stroke="black" fill="none" stroke-width="6.0" stroke-linecap="round" stroke-linejoin="round" />
<path d="M 126.25 177.5 L 126.25 177.5 L 122.5 178.75 L 120.0 188.75 L 118.75 222.5 L 118.75 260.0 L 120.0 271.25 L 120.0 270.0 L 120.0 268.75 " stroke="black" fill="none" stroke-width="6.0" stroke-linecap="round" stroke-linejoin="round" />
<path d="M 125.0 170.0 L 125.0 168.75 L 125.0 166.25 L 137.5 160.0 L 160.0 152.5 L 183.75 148.75 L 197.5 158.75 L 198.75 191.25 L 198.75 231.25 L 196.25 260.0 L 196.25 271.25 L 196.25 273.75 L 196.25 272.5 L 195.0 267.5 L 191.25 258.75 L 183.75 250.0 L 175.0 242.5 " stroke="black" fill="none" stroke-width="6.0" stroke-linecap="round" stroke-linejoin="round" />
<path d="M 126.25 211.25 L 125.0 212.5 L 120.0 212.5 L 120.0 212.5 L 132.5 206.25 L 151.25 196.25 L 170.0 183.75 L 182.5 172.5 L 180.0 172.5 " stroke="black" fill="none" stroke-width="6.0" stroke-linecap="round" stroke-linejoin="round" />
<path d="M 123.75 245.0 L 120.0 248.75 L 125.0 248.75 L 142.5 238.75 L 168.75 218.75 L 192.5 198.75 " stroke="black" fill="none" stroke-width="6.0" stroke-linecap="round" stroke-linejoin="round" />
</svg>