<svg xmlns="http://www.w3.org/2000/svg" width="300" height="300" viewBox="0 0 300 300">
<path d="M 102.5 98.75 L 97.5 102.5 L 95.0 103.75 L 102.5 103.75 L 123.75 102.5 L 152.5 97.5 L 186.25 90.0 L 202.5 82.5 L 205.0 78.75 L 198.75 78.75 L 190.0 80.0 L 181.25 83.75 L 176.25 87.5 L 172.5 91.25 L 172.5 98.75 L 176.25 123.75 L 180.0 166.25 L 180.0 206.25 L 180.0 222.5 L 177.5 227.5 L 173.75 228.75 L 167.5 228.75 L 165.0 226.25 " stroke="black" fill="none" stroke-width="6.0" stroke-linecap="round" stroke-linejoin="round" />
<path d="M 128.75 122.5 L 126.25 122.5 L 125.0 126.25 L 125.0 147.5 L 128.75 182.5 L 130.0 203.75 L 130.0 206.25 L 128.75 205.0 " stroke="black" fill="none" stroke-width="6.0" stroke-linecap="round" stroke-linejoin="round" />
<path d="M 131.25 147.5 L 132.5 147.5 L 136.25 145.0 L 147.5 142.5 L 161.25 138.75 L 171.25 137.5 L 171.25 137.5 " stroke="black" fill="none" stroke-width="6.0" stroke-linecap="round" stroke-linejoin="round" />
<path d="M 137.5 166.25 L 136.25 167.5 L 136.25 168.75 L 142.5 167.5 L 151.25 162.5 L 167.5 153.75 L 172.5 148.75 L 172.5 148.75 " stroke="black" fill="none" stroke-width="6.0" stroke-linecap="round" stroke-linejoin="round" />
<path d="M 105.0 220.0 L 102.5 223.75 L 105.0 225.0 L 126.25 217.5 L 157.5 202.5 L 192.5 188.75 L 212.5 180.0 L 221.25 176.25 L 222.5 176.25 L 218.75 176.25 L 212.5 180.0 " stroke="black" fill="none" stroke-width="6.0" stroke-linecap="round" stroke-linejoin="round" />
</svg>