<svg xmlns="http://www.w3.org/2000/svg" width="300" height="300" viewBox="0 0 300 300">
<path d="M 63.75 127.5 L 58.75 130.0 L 56.25 132.5 L 60.0 132.5 L 76.25 125.0 L 98.75 107.5 L 120.0 91.25 L 128.75 83.75 L 123.75 83.75 L 108.75 88.75 L 97.5 91.25 L 87.5 93.75 L 81.25 93.75 L 78.75 93.75 L 82.5 93.75 L 91.25 95.0 L 98.75 102.5 L 105.0 120.0 L 103.75 142.5 L 95.0 161.25 L 85.0 175.0 L 73.75 182.5 L 70.0 183.75 " stroke="black" fill="none" stroke-width="6.0" stroke-linecap="round" stroke-linejoin="round" />
<path d="M 63.75 178.75 L 62.5 178.75 L 61.25 180.0 L 68.75 192.5 L 82.5 215.0 L 92.5 233.75 L 96.25 240.0 L 96.25 238.75 L 92.5 233.75 L 87.5 227.5 L 82.5 220.0 L 78.75 212.5 L 76.25 206.25 L 78.75 200.0 L 87.5 196.25 L 100.0 191.25 L 118.75 186.25 L 132.5 183.75 L 136.25 185.0 L 130.0 193.75 L 117.5 206.25 L 103.75 217.5 L 92.5 228.75 L 88.75 235.0 L 103.75 225.0 L 122.5 208.75 L 140.0 192.5 L 146.25 185.0 " stroke="black" fill="none" stroke-width="6.0" stroke-linecap="round" stroke-linejoin="round" />
<path d="M 168.75 97.5 L 170.0 97.5 L 170.0 96.25 L 170.0 101.25 L 168.75 140.0 L 165.0 193.75 L 160.0 226.25 L 152.5 242.5 L 147.5 243.75 L 146.25 242.5 " stroke="black" fill="none" stroke-width="6.0" stroke-linecap="round" stroke-linejoin="round" />
<path d="M 166.25 103.75 L 168.75 100.0 L 171.25 95.0 L 180.0 90.0 L 193.75 85.0 L 207.5 82.5 L 217.5 90.0 L 223.75 112.5 L 226.25 153.75 L 226.25 200.0 L 228.75 237.5 L 233.75 258.75 L 233.75 263.75 L 233.75 263.75 L 228.75 261.25 L 220.0 253.75 L 210.0 240.0 L 201.25 216.25 L 193.75 192.5 L 191.25 182.5 " stroke="black" fill="none" stroke-width="6.0" stroke-linecap="round" stroke-linejoin="round" />
<path d="M 176.25 162.5 L 172.5 162.5 L 170.0 163.75 L 172.5 161.25 L 186.25 152.5 L 202.5 141.25 L 215.0 130.0 L 216.25 127.5 L 213.75 130.0 " stroke="black" fill="none" stroke-width="6.0" stroke-linecap="round" stroke-linejoin="round" />
<path d="M 175.0 197.5 L 173.75 198.75 L 168.75 205.0 L 172.5 205.0 L 187.5 195.0 L 205.0 176.25 L 212.5 165.0 " stroke="black" fill="none" stroke-width="6.0" stroke-linecap="round" stroke-linejoin="round" />
</svg>