<svg xmlns="http://www.w3.org/2000/svg" width="300" height="300" viewBox="0 0 300 300">
<path d="M 67.5 108.75 L 63.75 111.25 L 61.25 112.5 L 71.25 111.25 L 91.25 103.75 L 116.25 92.5 L 137.5 81.25 L 145.0 73.75 L 141.25 72.5 L 131.25 77.5 " stroke="black" fill="none" stroke-width="6.0" stroke-linecap="round" stroke-linejoin="round" />
<path d="M 112.5 92.5 L 112.5 96.25 L 112.5 105.0 L 112.5 133.75 L 113.75 180.0 L 112.5 215.0 L 110.0 230.0 L 105.0 236.25 L 102.5 236.25 " stroke="black" fill="none" stroke-width="6.0" stroke-linecap="round" stroke-linejoin="round" />
<path d="M 80.0 126.25 L 78.75 122.5 L 77.5 120.0 L 77.5 122.5 L 81.25 135.0 L 83.75 157.5 L 85.0 180.0 L 82.5 192.5 L 80.0 193.75 " stroke="black" fill="none" stroke-width="6.0" stroke-linecap="round" stroke-linejoin="round" />
<path d="M 85.0 148.75 L 85.0 148.75 L 85.0 148.75 L 92.5 145.0 L 107.5 137.5 L 120.0 130.0 L 121.25 127.5 " stroke="black" fill="none" stroke-width="6.0" stroke-linecap="round" stroke-linejoin="round" />
<path d="M 88.75 168.75 L 87.5 170.0 L 85.0 173.75 L 86.25 173.75 L 95.0 167.5 L 108.75 157.5 L 118.75 150.0 L 118.75 148.75 " stroke="black" fill="none" stroke-width="6.0" stroke-linecap="round" stroke-linejoin="round" />
<path d="M 80.0 200.0 L 76.25 206.25 L 78.75 207.5 L 93.75 197.5 L 115.0 180.0 L 140.0 155.0 " stroke="black" fill="none" stroke-width="6.0" stroke-linecap="round" stroke-linejoin="round" />
<path d="M 176.25 62.5 L 176.25 62.5 L 175.0 62.5 L 172.5 71.25 L 157.5 113.75 L 137.5 167.5 L 118.75 196.25 L 106.25 202.5 " stroke="black" fill="none" stroke-width="6.0" stroke-linecap="round" stroke-linejoin="round" />
<path d="M 161.25 80.0 L 163.75 78.75 L 171.25 81.25 L 190.0 92.5 L 210.0 110.0 L 228.75 126.25 L 245.0 135.0 L 248.75 138.75 " stroke="black" fill="none" stroke-width="6.0" stroke-linecap="round" stroke-linejoin="round" />
<path d="M 163.75 145.0 L 163.75 145.0 L 162.5 146.25 L 166.25 147.5 L 178.75 148.75 L 195.0 150.0 L 206.25 150.0 L 208.75 152.5 L 202.5 158.75 L 190.0 167.5 L 176.25 176.25 L 168.75 181.25 L 168.75 181.25 L 181.25 181.25 L 197.5 177.5 L 208.75 173.75 L 215.0 173.75 L 213.75 177.5 L 207.5 185.0 L 191.25 196.25 L 175.0 202.5 L 163.75 205.0 L 161.25 206.25 L 165.0 207.5 L 176.25 211.25 L 191.25 220.0 L 207.5 228.75 L 220.0 235.0 L 231.25 236.25 L 232.5 235.0 " stroke="black" fill="none" stroke-width="6.0" stroke-linecap="round" stroke-linejoin="round" />
</svg>