<svg xmlns="http://www.w3.org/2000/svg" width="300" height="300" viewBox="0 0 300 300">
<path d="M 96.25 103.75 L 92.5 106.25 L 91.25 107.5 L 106.25 106.25 L 136.25 96.25 L 168.75 82.5 L 188.75 73.75 L 190.0 72.5 L 182.5 72.5 " stroke="black" fill="none" stroke-width="6.0" stroke-linecap="round" stroke-linejoin="round" />
<path d="M 136.25 77.5 L 133.75 82.5 L 130.0 96.25 L 130.0 127.5 L 130.0 148.75 L 131.25 151.25 L 142.5 146.25 L 153.75 135.0 L 163.75 121.25 L 171.25 110.0 L 173.75 105.0 L 172.5 105.0 L 170.0 107.5 L 170.0 113.75 L 171.25 123.75 L 177.5 132.5 L 185.0 137.5 L 190.0 140.0 " stroke="black" fill="none" stroke-width="6.0" stroke-linecap="round" stroke-linejoin="round" />
<path d="M 128.75 171.25 L 127.5 171.25 L 125.0 173.75 L 125.0 191.25 L 125.0 226.25 L 127.5 252.5 L 128.75 258.75 L 128.75 256.25 " stroke="black" fill="none" stroke-width="6.0" stroke-linecap="round" stroke-linejoin="round" />
<path d="M 121.25 191.25 L 120.0 190.0 L 116.25 187.5 L 121.25 180.0 L 140.0 167.5 L 160.0 156.25 L 177.5 153.75 L 188.75 172.5 L 192.5 207.5 L 192.5 246.25 L 193.75 272.5 L 196.25 278.75 L 196.25 278.75 L 196.25 272.5 L 191.25 262.5 L 181.25 251.25 L 167.5 240.0 L 163.75 237.5 " stroke="black" fill="none" stroke-width="6.0" stroke-linecap="round" stroke-linejoin="round" />
<path d="M 133.75 210.0 L 132.5 210.0 L 128.75 210.0 L 127.5 210.0 L 135.0 206.25 L 151.25 198.75 L 167.5 188.75 L 175.0 185.0 " stroke="black" fill="none" stroke-width="6.0" stroke-linecap="round" stroke-linejoin="round" />
<path d="M 131.25 232.5 L 130.0 233.75 L 131.25 235.0 L 147.5 226.25 L 180.0 207.5 L 192.5 200.0 " stroke="black" fill="none" stroke-width="6.0" stroke-linecap="round" stroke-linejoin="round" />
</svg>