<svg xmlns="http://www.w3.org/2000/svg" width="300" height="300" viewBox="0 0 300 300">
<path d="M 115.0 125.0 L 110.0 125.0 L 110.0 125.0 L 123.75 122.5 L 145.0 113.75 L 166.25 103.75 L 173.75 100.0 L 168.75 98.75 L 156.25 100.0 L 146.25 100.0 L 137.5 98.75 L 133.75 98.75 L 133.75 102.5 L 138.75 122.5 L 142.5 146.25 L 142.5 162.5 L 136.25 168.75 L 125.0 168.75 L 110.0 168.75 L 95.0 168.75 L 86.25 168.75 L 86.25 168.75 L 92.5 170.0 L 117.5 167.5 L 155.0 155.0 L 198.75 137.5 L 225.0 122.5 L 230.0 111.25 L 230.0 106.25 " stroke="black" fill="none" stroke-width="6.0" stroke-linecap="round" stroke-linejoin="round" />
<path d="M 191.25 106.25 L 172.5 137.5 L 152.5 188.75 L 130.0 245.0 L 111.25 281.25 L 108.75 295.0 L 108.75 295.0 " stroke="black" fill="none" stroke-width="6.0" stroke-linecap="round" stroke-linejoin="round" />
<path d="M 200.0 168.75 L 200.0 168.75 L 200.0 168.75 L 195.0 183.75 L 180.0 213.75 L 165.0 236.25 L 153.75 242.5 L 152.5 241.25 " stroke="black" fill="none" stroke-width="6.0" stroke-linecap="round" stroke-linejoin="round" />
<path d="M 155.0 187.5 L 153.75 187.5 L 158.75 223.75 L 175.0 246.25 L 200.0 248.75 L 228.75 235.0 L 256.25 215.0 L 262.5 205.0 L 262.5 201.25 L 256.25 197.5 L 246.25 191.25 L 238.75 185.0 " stroke="black" fill="none" stroke-width="6.0" stroke-linecap="round" stroke-linejoin="round" />
</svg>