<svg xmlns="http://www.w3.org/2000/svg" width="300" height="300" viewBox="0 0 300 300">
<path d="M 82.5 88.75 L 81.25 88.75 L 81.25 88.75 L 93.75 86.25 L 116.25 77.5 L 138.75 65.0 L 148.75 55.0 L 150.0 52.5 L 146.25 52.5 L 140.0 56.25 L 135.0 62.5 L 130.0 68.75 L 127.5 76.25 L 126.25 83.75 L 126.25 96.25 L 127.5 117.5 L 128.75 142.5 L 128.75 158.75 L 125.0 163.75 L 123.75 163.75 " stroke="black" fill="none" stroke-width="6.0" stroke-linecap="round" stroke-linejoin="round" />
<path d="M 87.5 92.5 L 87.5 92.5 L 87.5 92.5 L 86.25 93.75 L 86.25 107.5 L 86.25 131.25 L 86.25 142.5 L 86.25 143.75 " stroke="black" fill="none" stroke-width="6.0" stroke-linecap="round" stroke-linejoin="round" />
<path d="M 93.75 95.0 L 93.75 95.0 L 95.0 95.0 L 96.25 95.0 L 101.25 96.25 L 107.5 105.0 L 110.0 120.0 L 108.75 135.0 L 101.25 143.75 L 92.5 147.5 L 90.0 147.5 " stroke="black" fill="none" stroke-width="6.0" stroke-linecap="round" stroke-linejoin="round" />
<path d="M 82.5 145.0 L 82.5 146.25 L 82.5 146.25 L 83.75 146.25 L 93.75 145.0 L 115.0 137.5 L 130.0 130.0 " stroke="black" fill="none" stroke-width="6.0" stroke-linecap="round" stroke-linejoin="round" />
<path d="M 156.25 106.25 L 156.25 107.5 L 157.5 107.5 L 161.25 106.25 L 176.25 97.5 L 197.5 83.75 L 207.5 77.5 L 208.75 80.0 L 200.0 91.25 L 185.0 111.25 L 168.75 133.75 L 155.0 148.75 L 150.0 150.0 L 150.0 146.25 " stroke="black" fill="none" stroke-width="6.0" stroke-linecap="round" stroke-linejoin="round" />
<path d="M 160.0 103.75 L 160.0 103.75 L 160.0 103.75 L 161.25 106.25 L 171.25 112.5 L 193.75 123.75 L 215.0 133.75 L 225.0 137.5 " stroke="black" fill="none" stroke-width="6.0" stroke-linecap="round" stroke-linejoin="round" />
<path d="M 113.75 168.75 L 110.0 170.0 L 108.75 171.25 L 115.0 172.5 L 133.75 171.25 L 157.5 165.0 L 177.5 157.5 L 187.5 151.25 L 186.25 151.25 L 173.75 153.75 L 162.5 157.5 " stroke="black" fill="none" stroke-width="6.0" stroke-linecap="round" stroke-linejoin="round" />
<path d="M 120.0 187.5 L 117.5 188.75 L 113.75 196.25 L 107.5 208.75 L 98.75 223.75 L 93.75 232.5 L 91.25 231.25 L 91.25 227.5 " stroke="black" fill="none" stroke-width="6.0" stroke-linecap="round" stroke-linejoin="round" />
<path d="M 116.25 203.75 L 117.5 203.75 L 122.5 205.0 L 130.0 210.0 L 137.5 216.25 L 147.5 221.25 L 151.25 221.25 " stroke="black" fill="none" stroke-width="6.0" stroke-linecap="round" stroke-linejoin="round" />
<path d="M 208.75 171.25 L 202.5 175.0 L 193.75 183.75 L 180.0 196.25 L 166.25 205.0 L 162.5 207.5 L 162.5 207.5 L 172.5 206.25 L 187.5 206.25 L 203.75 205.0 L 217.5 202.5 L 226.25 198.75 L 227.5 197.5 L 222.5 197.5 " stroke="black" fill="none" stroke-width="6.0" stroke-linecap="round" stroke-linejoin="round" />
<path d="M 151.25 175.0 L 151.25 175.0 L 151.25 175.0 L 151.25 175.0 L 152.5 176.25 L 155.0 183.75 L 160.0 207.5 L 161.25 237.5 L 160.0 255.0 L 153.75 261.25 L 147.5 261.25 L 140.0 261.25 L 128.75 257.5 L 120.0 248.75 L 116.25 243.75 " stroke="black" fill="none" stroke-width="6.0" stroke-linecap="round" stroke-linejoin="round" />
</svg>