<svg xmlns="http://www.w3.org/2000/svg" width="300" height="300" viewBox="0 0 300 300">
<path d="M 85.0 88.75 L 83.75 87.5 L 82.5 87.5 L 82.5 90.0 L 85.0 110.0 L 88.75 141.25 L 88.75 161.25 L 90.0 167.5 L 88.75 167.5 " stroke="black" fill="none" stroke-width="6.0" stroke-linecap="round" stroke-linejoin="round" />
<path d="M 85.0 103.75 L 82.5 103.75 L 81.25 103.75 L 82.5 103.75 L 91.25 97.5 L 105.0 90.0 L 115.0 85.0 L 116.25 83.75 " stroke="black" fill="none" stroke-width="6.0" stroke-linecap="round" stroke-linejoin="round" />
<path d="M 96.25 121.25 L 95.0 122.5 L 91.25 128.75 L 90.0 130.0 L 91.25 130.0 L 100.0 125.0 L 111.25 115.0 L 117.5 108.75 L 117.5 106.25 " stroke="black" fill="none" stroke-width="6.0" stroke-linecap="round" stroke-linejoin="round" />
<path d="M 95.0 138.75 L 88.75 147.5 L 87.5 150.0 L 88.75 150.0 L 95.0 147.5 L 107.5 138.75 L 118.75 131.25 L 126.25 125.0 " stroke="black" fill="none" stroke-width="6.0" stroke-linecap="round" stroke-linejoin="round" />
<path d="M 51.25 203.75 L 48.75 206.25 L 48.75 206.25 L 61.25 198.75 L 85.0 182.5 L 110.0 163.75 L 127.5 151.25 L 130.0 150.0 L 123.75 153.75 L 111.25 170.0 L 98.75 188.75 L 90.0 207.5 L 85.0 223.75 L 87.5 230.0 L 95.0 226.25 L 107.5 215.0 L 120.0 201.25 L 126.25 192.5 L 128.75 187.5 L 123.75 186.25 L 118.75 186.25 L 116.25 186.25 L 115.0 186.25 L 115.0 187.5 L 118.75 193.75 L 125.0 205.0 L 133.75 216.25 L 138.75 222.5 L 138.75 222.5 " stroke="black" fill="none" stroke-width="6.0" stroke-linecap="round" stroke-linejoin="round" />
<path d="M 163.75 90.0 L 160.0 92.5 L 158.75 93.75 L 162.5 93.75 L 177.5 93.75 L 198.75 93.75 L 216.25 93.75 L 226.25 100.0 L 223.75 112.5 L 210.0 131.25 L 196.25 145.0 L 180.0 151.25 L 171.25 151.25 " stroke="black" fill="none" stroke-width="6.0" stroke-linecap="round" stroke-linejoin="round" />
<path d="M 146.25 145.0 L 145.0 145.0 L 145.0 145.0 L 150.0 140.0 L 175.0 127.5 L 208.75 106.25 L 228.75 93.75 L 237.5 87.5 L 237.5 87.5 L 226.25 93.75 L 216.25 100.0 " stroke="black" fill="none" stroke-width="6.0" stroke-linecap="round" stroke-linejoin="round" />
<path d="M 163.75 165.0 L 162.5 166.25 L 163.75 167.5 L 177.5 160.0 L 198.75 145.0 L 217.5 128.75 L 227.5 118.75 L 225.0 118.75 L 213.75 128.75 L 201.25 142.5 " stroke="black" fill="none" stroke-width="6.0" stroke-linecap="round" stroke-linejoin="round" />
<path d="M 167.5 200.0 L 166.25 203.75 L 166.25 205.0 L 180.0 197.5 L 200.0 180.0 L 220.0 158.75 L 232.5 147.5 L 232.5 147.5 L 223.75 155.0 L 208.75 173.75 L 196.25 193.75 L 181.25 216.25 L 173.75 231.25 L 180.0 231.25 L 200.0 215.0 L 226.25 190.0 L 253.75 165.0 L 272.5 145.0 L 276.25 137.5 L 266.25 137.5 L 252.5 138.75 L 233.75 140.0 L 215.0 138.75 L 203.75 130.0 L 200.0 115.0 L 198.75 101.25 L 197.5 88.75 L 196.25 78.75 L 196.25 72.5 L 196.25 70.0 L 196.25 70.0 L 196.25 70.0 L 197.5 75.0 L 200.0 87.5 L 202.5 112.5 L 207.5 150.0 L 212.5 197.5 L 213.75 232.5 L 215.0 261.25 L 216.25 276.25 L 216.25 280.0 L 216.25 281.25 L 210.0 280.0 L 201.25 276.25 " stroke="black" fill="none" stroke-width="6.0" stroke-linecap="round" stroke-linejoin="round" />
</svg>