<svg xmlns="http://www.w3.org/2000/svg" width="300" height="300" viewBox="0 0 300 300">
<path d="M 150.0 53.75 L 150.0 53.75 L 148.75 55.0 L 148.75 71.25 L 147.5 96.25 L 147.5 108.75 L 148.75 111.25 L 148.75 107.5 L 146.25 101.25 L 143.75 97.5 L 142.5 95.0 L 143.75 92.5 L 147.5 87.5 L 155.0 82.5 L 166.25 76.25 L 176.25 70.0 L 178.75 66.25 L 176.25 67.5 " stroke="black" fill="none" stroke-width="6.0" stroke-linecap="round" stroke-linejoin="round" />
<path d="M 112.5 85.0 L 111.25 85.0 L 108.75 85.0 L 110.0 91.25 L 115.0 113.75 L 125.0 131.25 L 141.25 133.75 L 163.75 116.25 L 192.5 93.75 L 210.0 80.0 L 213.75 76.25 L 211.25 76.25 L 203.75 81.25 " stroke="black" fill="none" stroke-width="6.0" stroke-linecap="round" stroke-linejoin="round" />
<path d="M 142.5 147.5 L 140.0 145.0 L 138.75 143.75 L 138.75 143.75 L 140.0 157.5 L 143.75 193.75 L 146.25 233.75 L 150.0 253.75 L 152.5 255.0 L 152.5 247.5 " stroke="black" fill="none" stroke-width="6.0" stroke-linecap="round" stroke-linejoin="round" />
<path d="M 145.0 166.25 L 142.5 165.0 L 142.5 162.5 L 148.75 155.0 L 165.0 146.25 L 183.75 140.0 L 196.25 146.25 L 202.5 176.25 L 202.5 212.5 L 201.25 243.75 L 201.25 260.0 L 202.5 261.25 L 202.5 256.25 L 198.75 247.5 L 192.5 237.5 L 183.75 223.75 L 171.25 210.0 L 157.5 198.75 L 150.0 193.75 L 143.75 193.75 L 142.5 195.0 L 142.5 195.0 L 147.5 190.0 L 161.25 175.0 L 176.25 160.0 L 186.25 150.0 L 185.0 150.0 " stroke="black" fill="none" stroke-width="6.0" stroke-linecap="round" stroke-linejoin="round" />
<path d="M 151.25 222.5 L 151.25 222.5 L 150.0 223.75 L 152.5 221.25 L 170.0 205.0 L 191.25 185.0 " stroke="black" fill="none" stroke-width="6.0" stroke-linecap="round" stroke-linejoin="round" />
</svg>