<svg xmlns="http://www.w3.org/2000/svg" width="300" height="300" viewBox="0 0 300 300">
<path d="M 76.25 87.5 L 75.0 87.5 L 72.5 87.5 L 72.5 88.75 L 85.0 88.75 L 107.5 85.0 L 131.25 77.5 L 143.75 71.25 L 146.25 67.5 L 142.5 67.5 L 136.25 67.5 L 131.25 70.0 L 127.5 72.5 L 125.0 82.5 L 125.0 106.25 L 130.0 147.5 L 133.75 176.25 L 133.75 187.5 L 127.5 190.0 L 120.0 183.75 L 117.5 181.25 " stroke="black" fill="none" stroke-width="6.0" stroke-linecap="round" stroke-linejoin="round" />
<path d="M 85.0 105.0 L 85.0 105.0 L 81.25 105.0 L 78.75 105.0 L 80.0 115.0 L 83.75 135.0 L 87.5 150.0 L 88.75 155.0 " stroke="black" fill="none" stroke-width="6.0" stroke-linecap="round" stroke-linejoin="round" />
<path d="M 88.75 111.25 L 88.75 111.25 L 86.25 111.25 L 87.5 111.25 L 95.0 107.5 L 107.5 102.5 L 117.5 98.75 L 118.75 97.5 " stroke="black" fill="none" stroke-width="6.0" stroke-linecap="round" stroke-linejoin="round" />
<path d="M 85.0 140.0 L 81.25 141.25 L 81.25 142.5 L 86.25 140.0 L 103.75 127.5 L 120.0 116.25 L 126.25 111.25 L 123.75 111.25 " stroke="black" fill="none" stroke-width="6.0" stroke-linecap="round" stroke-linejoin="round" />
<path d="M 83.75 160.0 L 81.25 163.75 L 81.25 165.0 L 95.0 155.0 L 120.0 136.25 L 152.5 111.25 L 167.5 95.0 L 171.25 87.5 L 172.5 85.0 L 168.75 83.75 L 167.5 83.75 L 167.5 92.5 L 167.5 112.5 L 172.5 132.5 L 177.5 142.5 L 177.5 141.25 L 172.5 135.0 L 166.25 125.0 L 162.5 113.75 L 161.25 101.25 L 162.5 88.75 L 172.5 81.25 L 186.25 77.5 L 200.0 77.5 L 206.25 82.5 L 203.75 93.75 L 192.5 111.25 L 176.25 127.5 L 165.0 136.25 L 165.0 135.0 L 177.5 126.25 L 190.0 115.0 L 205.0 101.25 L 205.0 101.25 " stroke="black" fill="none" stroke-width="6.0" stroke-linecap="round" stroke-linejoin="round" />
<path d="M 131.25 177.5 L 130.0 177.5 L 128.75 178.75 L 131.25 178.75 L 143.75 178.75 L 160.0 175.0 L 176.25 172.5 L 185.0 171.25 L 177.5 178.75 L 162.5 183.75 " stroke="black" fill="none" stroke-width="6.0" stroke-linecap="round" stroke-linejoin="round" />
<path d="M 85.0 227.5 L 82.5 231.25 L 82.5 232.5 L 96.25 232.5 L 123.75 225.0 L 158.75 213.75 L 186.25 206.25 L 192.5 203.75 L 183.75 203.75 L 171.25 203.75 L 167.5 203.75 " stroke="black" fill="none" stroke-width="6.0" stroke-linecap="round" stroke-linejoin="round" />
<path d="M 145.0 193.75 L 143.75 192.5 L 143.75 192.5 L 146.25 197.5 L 152.5 216.25 L 155.0 242.5 L 152.5 260.0 L 145.0 265.0 L 135.0 266.25 L 125.0 266.25 L 122.5 265.0 L 121.25 265.0 L 123.75 263.75 L 131.25 263.75 L 143.75 262.5 L 160.0 262.5 L 178.75 262.5 L 195.0 262.5 L 203.75 262.5 L 206.25 260.0 L 205.0 255.0 " stroke="black" fill="none" stroke-width="6.0" stroke-linecap="round" stroke-linejoin="round" />
</svg>