<svg xmlns="http://www.w3.org/2000/svg" width="300" height="300" viewBox="0 0 300 300">
<path d="M 78.75 113.75 L 77.5 111.25 L 76.25 110.0 L 78.75 121.25 L 82.5 156.25 L 82.5 200.0 L 78.75 221.25 L 73.75 226.25 L 70.0 225.0 " stroke="black" fill="none" stroke-width="6.0" stroke-linecap="round" stroke-linejoin="round" />
<path d="M 80.0 123.75 L 80.0 121.25 L 78.75 116.25 L 81.25 113.75 L 87.5 111.25 L 92.5 111.25 L 97.5 116.25 L 101.25 131.25 L 103.75 160.0 L 105.0 196.25 L 106.25 220.0 L 106.25 233.75 L 106.25 240.0 L 106.25 241.25 L 105.0 238.75 L 102.5 231.25 L 98.75 221.25 L 96.25 212.5 " stroke="black" fill="none" stroke-width="6.0" stroke-linecap="round" stroke-linejoin="round" />
<path d="M 77.5 173.75 L 73.75 173.75 L 72.5 172.5 L 78.75 167.5 L 91.25 158.75 L 101.25 151.25 L 106.25 147.5 L 106.25 147.5 " stroke="black" fill="none" stroke-width="6.0" stroke-linecap="round" stroke-linejoin="round" />
<path d="M 90.0 186.25 L 87.5 190.0 L 87.5 191.25 L 95.0 187.5 L 106.25 175.0 L 107.5 171.25 " stroke="black" fill="none" stroke-width="6.0" stroke-linecap="round" stroke-linejoin="round" />
<path d="M 147.5 81.25 L 146.25 81.25 L 145.0 78.75 L 151.25 77.5 L 166.25 77.5 L 182.5 77.5 L 191.25 77.5 L 191.25 78.75 " stroke="black" fill="none" stroke-width="6.0" stroke-linecap="round" stroke-linejoin="round" />
<path d="M 147.5 102.5 L 147.5 105.0 L 147.5 111.25 L 147.5 127.5 L 147.5 147.5 L 147.5 156.25 L 147.5 153.75 L 147.5 147.5 L 147.5 141.25 L 146.25 135.0 L 143.75 131.25 L 140.0 128.75 L 140.0 128.75 L 142.5 128.75 L 155.0 126.25 L 172.5 118.75 L 191.25 111.25 L 197.5 108.75 L 195.0 113.75 L 183.75 128.75 L 168.75 145.0 L 153.75 158.75 L 142.5 170.0 L 138.75 175.0 L 138.75 175.0 L 142.5 175.0 L 150.0 175.0 L 157.5 171.25 L 163.75 168.75 L 168.75 166.25 L 168.75 167.5 L 166.25 178.75 L 157.5 198.75 L 148.75 217.5 L 142.5 227.5 L 138.75 228.75 L 137.5 225.0 " stroke="black" fill="none" stroke-width="6.0" stroke-linecap="round" stroke-linejoin="round" />
<path d="M 136.25 186.25 L 135.0 185.0 L 131.25 185.0 L 131.25 185.0 L 133.75 192.5 L 141.25 201.25 L 150.0 208.75 L 155.0 210.0 " stroke="black" fill="none" stroke-width="6.0" stroke-linecap="round" stroke-linejoin="round" />
<path d="M 182.5 156.25 L 182.5 156.25 L 182.5 156.25 L 187.5 156.25 L 198.75 153.75 L 211.25 152.5 L 215.0 156.25 L 212.5 167.5 L 200.0 183.75 L 188.75 195.0 L 180.0 200.0 L 175.0 198.75 L 175.0 195.0 " stroke="black" fill="none" stroke-width="6.0" stroke-linecap="round" stroke-linejoin="round" />
<path d="M 186.25 158.75 L 185.0 161.25 L 181.25 170.0 L 181.25 191.25 L 183.75 212.5 L 188.75 230.0 L 198.75 240.0 L 211.25 243.75 L 222.5 246.25 L 232.5 250.0 L 237.5 250.0 L 238.75 250.0 L 238.75 250.0 L 238.75 248.75 L 238.75 246.25 L 240.0 241.25 L 241.25 235.0 L 242.5 222.5 L 243.75 211.25 " stroke="black" fill="none" stroke-width="6.0" stroke-linecap="round" stroke-linejoin="round" />
</svg>