<svg xmlns="http://www.w3.org/2000/svg" width="300" height="300" viewBox="0 0 300 300">
<path d="M 122.5 95.0 L 113.75 97.5 L 111.25 97.5 L 116.25 98.75 L 135.0 100.0 L 160.0 96.25 L 186.25 86.25 L 200.0 77.5 L 195.0 75.0 L 180.0 78.75 L 162.5 86.25 L 151.25 92.5 L 145.0 101.25 L 146.25 107.5 L 150.0 112.5 L 155.0 122.5 L 157.5 133.75 L 157.5 143.75 L 152.5 151.25 L 146.25 152.5 " stroke="black" fill="none" stroke-width="6.0" stroke-linecap="round" stroke-linejoin="round" />
<path d="M 113.75 160.0 L 110.0 162.5 L 107.5 163.75 L 112.5 166.25 L 131.25 165.0 L 156.25 158.75 L 182.5 150.0 L 195.0 146.25 L 195.0 146.25 L 182.5 156.25 L 165.0 168.75 L 146.25 182.5 L 130.0 193.75 L 120.0 198.75 L 120.0 200.0 L 128.75 197.5 L 147.5 190.0 L 167.5 180.0 L 185.0 170.0 L 192.5 167.5 L 190.0 167.5 " stroke="black" fill="none" stroke-width="6.0" stroke-linecap="round" stroke-linejoin="round" />
<path d="M 161.25 185.0 L 161.25 185.0 L 158.75 187.5 L 156.25 196.25 L 156.25 210.0 L 156.25 226.25 L 156.25 235.0 " stroke="black" fill="none" stroke-width="6.0" stroke-linecap="round" stroke-linejoin="round" />
<path d="M 93.75 122.5 L 91.25 120.0 L 90.0 117.5 L 90.0 118.75 L 91.25 137.5 L 93.75 178.75 L 97.5 217.5 L 100.0 237.5 L 106.25 242.5 L 118.75 242.5 L 138.75 242.5 L 160.0 240.0 L 178.75 236.25 L 196.25 232.5 L 205.0 227.5 L 207.5 226.25 L 207.5 225.0 L 207.5 225.0 L 207.5 225.0 L 207.5 222.5 " stroke="black" fill="none" stroke-width="6.0" stroke-linecap="round" stroke-linejoin="round" />
</svg>