<svg xmlns="http://www.w3.org/2000/svg" width="300" height="300" viewBox="0 0 300 300">
<path d="M 82.5 88.75 L 81.25 88.75 L 78.75 88.75 L 78.75 88.75 L 91.25 88.75 L 116.25 85.0 L 145.0 76.25 L 158.75 66.25 L 161.25 62.5 L 158.75 62.5 L 152.5 66.25 L 142.5 75.0 L 130.0 90.0 L 113.75 112.5 L 103.75 135.0 L 103.75 142.5 L 113.75 141.25 L 130.0 136.25 L 147.5 127.5 L 158.75 118.75 L 165.0 111.25 L 166.25 107.5 L 163.75 107.5 L 161.25 107.5 L 158.75 106.25 L 157.5 105.0 L 157.5 105.0 L 157.5 105.0 L 157.5 105.0 L 158.75 105.0 L 167.5 111.25 L 181.25 118.75 L 193.75 126.25 L 200.0 132.5 L 200.0 133.75 " stroke="black" fill="none" stroke-width="6.0" stroke-linecap="round" stroke-linejoin="round" />
<path d="M 106.25 191.25 L 101.25 193.75 L 101.25 195.0 L 117.5 191.25 L 141.25 181.25 L 166.25 163.75 L 177.5 152.5 L 173.75 150.0 " stroke="black" fill="none" stroke-width="6.0" stroke-linecap="round" stroke-linejoin="round" />
<path d="M 138.75 150.0 L 138.75 150.0 L 138.75 150.0 L 142.5 155.0 L 148.75 177.5 L 150.0 205.0 L 146.25 221.25 L 135.0 230.0 L 118.75 233.75 L 105.0 237.5 L 101.25 238.75 L 102.5 237.5 L 112.5 235.0 L 128.75 230.0 L 150.0 226.25 L 175.0 222.5 L 202.5 221.25 L 222.5 221.25 L 237.5 221.25 L 241.25 221.25 " stroke="black" fill="none" stroke-width="6.0" stroke-linecap="round" stroke-linejoin="round" />
</svg>