<svg xmlns="http://www.w3.org/2000/svg" width="300" height="300" viewBox="0 0 300 300">
<path d="M 76.25 101.25 L 71.25 102.5 L 71.25 103.75 L 78.75 102.5 L 92.5 97.5 L 105.0 91.25 L 113.75 86.25 L 113.75 86.25 " stroke="black" fill="none" stroke-width="6.0" stroke-linecap="round" stroke-linejoin="round" />
<path d="M 97.5 98.75 L 93.75 103.75 L 91.25 111.25 L 90.0 125.0 L 88.75 138.75 L 88.75 145.0 L 87.5 145.0 L 83.75 145.0 L 80.0 145.0 L 76.25 146.25 L 73.75 147.5 L 73.75 148.75 L 76.25 148.75 L 82.5 148.75 L 91.25 147.5 L 102.5 143.75 L 110.0 138.75 L 115.0 137.5 L 115.0 137.5 L 110.0 143.75 L 102.5 152.5 L 93.75 162.5 L 83.75 173.75 L 75.0 183.75 L 70.0 187.5 L 70.0 187.5 L 75.0 183.75 L 83.75 177.5 L 95.0 170.0 L 103.75 162.5 L 111.25 158.75 L 113.75 157.5 L 111.25 160.0 L 105.0 165.0 L 98.75 170.0 L 95.0 175.0 L 91.25 178.75 L 91.25 183.75 L 91.25 193.75 L 91.25 207.5 L 91.25 220.0 L 90.0 227.5 L 90.0 226.25 " stroke="black" fill="none" stroke-width="6.0" stroke-linecap="round" stroke-linejoin="round" />
<path d="M 65.0 125.0 L 65.0 125.0 L 63.75 123.75 L 61.25 130.0 L 58.75 156.25 L 57.5 195.0 L 57.5 218.75 L 61.25 223.75 L 66.25 225.0 L 75.0 226.25 L 82.5 226.25 L 90.0 226.25 L 96.25 226.25 L 102.5 226.25 L 107.5 226.25 L 115.0 226.25 L 120.0 218.75 " stroke="black" fill="none" stroke-width="6.0" stroke-linecap="round" stroke-linejoin="round" />
<path d="M 160.0 70.0 L 160.0 70.0 L 158.75 71.25 L 157.5 78.75 L 156.25 96.25 L 160.0 108.75 L 172.5 111.25 L 192.5 100.0 L 206.25 86.25 L 211.25 78.75 L 206.25 78.75 L 200.0 82.5 " stroke="black" fill="none" stroke-width="6.0" stroke-linecap="round" stroke-linejoin="round" />
<path d="M 136.25 131.25 L 136.25 131.25 L 136.25 131.25 L 138.75 136.25 L 147.5 148.75 L 155.0 160.0 L 158.75 163.75 L 158.75 161.25 L 156.25 155.0 L 151.25 148.75 L 147.5 143.75 L 145.0 141.25 L 143.75 138.75 L 147.5 137.5 L 160.0 135.0 L 177.5 130.0 L 191.25 127.5 L 195.0 126.25 L 188.75 135.0 L 175.0 146.25 L 160.0 157.5 L 152.5 165.0 L 151.25 165.0 L 158.75 158.75 L 173.75 148.75 L 188.75 137.5 L 191.25 136.25 " stroke="black" fill="none" stroke-width="6.0" stroke-linecap="round" stroke-linejoin="round" />
<path d="M 136.25 195.0 L 133.75 191.25 L 133.75 191.25 L 133.75 191.25 L 136.25 201.25 L 138.75 213.75 L 140.0 222.5 L 141.25 227.5 L 140.0 226.25 L 138.75 220.0 L 138.75 210.0 L 142.5 200.0 L 150.0 191.25 L 160.0 187.5 L 166.25 190.0 L 166.25 200.0 L 161.25 213.75 L 155.0 222.5 L 152.5 225.0 L 153.75 216.25 L 162.5 202.5 L 173.75 187.5 L 183.75 173.75 L 186.25 171.25 L 186.25 176.25 L 186.25 195.0 L 186.25 215.0 L 188.75 228.75 L 192.5 235.0 L 193.75 231.25 L 195.0 220.0 L 192.5 208.75 L 190.0 200.0 L 186.25 190.0 L 185.0 181.25 L 185.0 177.5 L 193.75 175.0 L 207.5 172.5 L 221.25 172.5 L 228.75 181.25 L 226.25 195.0 L 212.5 210.0 L 198.75 223.75 L 191.25 230.0 L 193.75 228.75 L 210.0 216.25 L 235.0 198.75 L 252.5 188.75 " stroke="black" fill="none" stroke-width="6.0" stroke-linecap="round" stroke-linejoin="round" />
</svg>