<svg xmlns="http://www.w3.org/2000/svg" width="300" height="300" viewBox="0 0 300 300">
<path d="M 83.75 88.75 L 81.25 88.75 L 77.5 88.75 L 78.75 90.0 L 95.0 88.75 L 127.5 82.5 L 166.25 71.25 L 191.25 61.25 L 197.5 57.5 L 192.5 57.5 L 176.25 58.75 L 166.25 60.0 " stroke="black" fill="none" stroke-width="6.0" stroke-linecap="round" stroke-linejoin="round" />
<path d="M 113.75 66.25 L 108.75 70.0 L 108.75 76.25 L 112.5 88.75 L 121.25 102.5 L 126.25 107.5 " stroke="black" fill="none" stroke-width="6.0" stroke-linecap="round" stroke-linejoin="round" />
<path d="M 161.25 57.5 L 161.25 58.75 L 160.0 61.25 L 153.75 77.5 L 143.75 102.5 L 137.5 116.25 " stroke="black" fill="none" stroke-width="6.0" stroke-linecap="round" stroke-linejoin="round" />
<path d="M 136.25 120.0 L 136.25 120.0 L 133.75 122.5 L 126.25 135.0 L 105.0 161.25 L 80.0 190.0 L 58.75 202.5 L 45.0 203.75 L 43.75 193.75 L 45.0 187.5 " stroke="black" fill="none" stroke-width="6.0" stroke-linecap="round" stroke-linejoin="round" />
<path d="M 126.25 132.5 L 133.75 132.5 L 151.25 136.25 L 173.75 147.5 L 200.0 161.25 L 220.0 171.25 L 233.75 177.5 L 237.5 180.0 L 230.0 180.0 L 222.5 181.25 " stroke="black" fill="none" stroke-width="6.0" stroke-linecap="round" stroke-linejoin="round" />
<path d="M 130.0 182.5 L 128.75 182.5 L 128.75 182.5 L 128.75 193.75 L 123.75 218.75 L 113.75 242.5 L 105.0 248.75 L 102.5 248.75 " stroke="black" fill="none" stroke-width="6.0" stroke-linecap="round" stroke-linejoin="round" />
<path d="M 161.25 166.25 L 161.25 165.0 L 165.0 165.0 L 171.25 175.0 L 176.25 201.25 L 176.25 232.5 L 172.5 253.75 L 165.0 265.0 L 161.25 266.25 " stroke="black" fill="none" stroke-width="6.0" stroke-linecap="round" stroke-linejoin="round" />
</svg>