<svg xmlns="http://www.w3.org/2000/svg" width="300" height="300" viewBox="0 0 300 300">
<path d="M 113.75 87.5 L 113.75 87.5 L 113.75 87.5 L 115.0 92.5 L 120.0 110.0 L 126.25 127.5 L 130.0 133.75 " stroke="black" fill="none" stroke-width="6.0" stroke-linecap="round" stroke-linejoin="round" />
<path d="M 140.0 85.0 L 140.0 85.0 L 140.0 86.25 L 140.0 93.75 L 143.75 112.5 L 147.5 130.0 L 148.75 135.0 L 148.75 135.0 " stroke="black" fill="none" stroke-width="6.0" stroke-linecap="round" stroke-linejoin="round" />
<path d="M 155.0 66.25 L 156.25 66.25 L 156.25 66.25 L 161.25 66.25 L 176.25 66.25 L 192.5 63.75 L 200.0 62.5 L 196.25 62.5 " stroke="black" fill="none" stroke-width="6.0" stroke-linecap="round" stroke-linejoin="round" />
<path d="M 155.0 90.0 L 155.0 90.0 L 155.0 90.0 L 155.0 90.0 L 165.0 87.5 L 182.5 80.0 L 195.0 72.5 L 198.75 71.25 L 188.75 77.5 L 186.25 78.75 " stroke="black" fill="none" stroke-width="6.0" stroke-linecap="round" stroke-linejoin="round" />
<path d="M 157.5 103.75 L 157.5 103.75 L 157.5 103.75 L 165.0 102.5 L 181.25 93.75 L 195.0 83.75 L 198.75 78.75 L 195.0 78.75 " stroke="black" fill="none" stroke-width="6.0" stroke-linecap="round" stroke-linejoin="round" />
<path d="M 177.5 57.5 L 177.5 57.5 L 177.5 57.5 L 178.75 72.5 L 178.75 100.0 L 171.25 123.75 L 160.0 137.5 L 145.0 142.5 " stroke="black" fill="none" stroke-width="6.0" stroke-linecap="round" stroke-linejoin="round" />
<path d="M 92.5 152.5 L 91.25 152.5 L 90.0 152.5 L 96.25 152.5 L 121.25 145.0 L 160.0 131.25 L 195.0 116.25 L 211.25 105.0 L 213.75 102.5 L 208.75 102.5 L 197.5 107.5 L 181.25 117.5 L 162.5 131.25 L 140.0 155.0 L 115.0 190.0 L 93.75 215.0 L 85.0 227.5 L 82.5 227.5 L 82.5 221.25 " stroke="black" fill="none" stroke-width="6.0" stroke-linecap="round" stroke-linejoin="round" />
<path d="M 167.5 127.5 L 173.75 126.25 L 188.75 128.75 L 206.25 137.5 L 223.75 148.75 L 240.0 158.75 L 245.0 163.75 L 242.5 167.5 L 228.75 171.25 L 220.0 171.25 " stroke="black" fill="none" stroke-width="6.0" stroke-linecap="round" stroke-linejoin="round" />
<path d="M 142.5 176.25 L 140.0 176.25 L 138.75 177.5 L 145.0 173.75 L 163.75 166.25 L 185.0 158.75 L 196.25 155.0 L 190.0 157.5 " stroke="black" fill="none" stroke-width="6.0" stroke-linecap="round" stroke-linejoin="round" />
<path d="M 131.25 210.0 L 131.25 211.25 L 136.25 212.5 L 156.25 205.0 L 188.75 188.75 L 211.25 171.25 L 213.75 162.5 L 207.5 158.75 L 205.0 158.75 " stroke="black" fill="none" stroke-width="6.0" stroke-linecap="round" stroke-linejoin="round" />
<path d="M 163.75 145.0 L 165.0 143.75 L 165.0 142.5 L 166.25 143.75 L 172.5 163.75 L 178.75 207.5 L 180.0 242.5 L 176.25 260.0 L 166.25 270.0 L 155.0 271.25 " stroke="black" fill="none" stroke-width="6.0" stroke-linecap="round" stroke-linejoin="round" />
</svg>