<svg xmlns="http://www.w3.org/2000/svg" width="300" height="300" viewBox="0 0 300 300">
<path d="M 97.5 92.5 L 97.5 93.75 L 98.75 96.25 L 101.25 96.25 L 112.5 95.0 L 140.0 88.75 L 173.75 80.0 L 202.5 71.25 L 212.5 68.75 L 212.5 67.5 L 206.25 67.5 L 195.0 70.0 L 181.25 70.0 L 168.75 70.0 L 155.0 70.0 L 145.0 70.0 L 140.0 68.75 L 138.75 68.75 L 138.75 73.75 L 141.25 87.5 L 143.75 103.75 L 145.0 118.75 L 146.25 122.5 " stroke="black" fill="none" stroke-width="6.0" stroke-linecap="round" stroke-linejoin="round" />
<path d="M 175.0 75.0 L 177.5 75.0 L 178.75 81.25 L 173.75 95.0 L 163.75 113.75 L 152.5 132.5 L 145.0 141.25 " stroke="black" fill="none" stroke-width="6.0" stroke-linecap="round" stroke-linejoin="round" />
<path d="M 82.5 163.75 L 81.25 166.25 L 78.75 170.0 L 78.75 171.25 L 90.0 168.75 L 116.25 160.0 L 152.5 145.0 L 185.0 132.5 L 196.25 126.25 L 195.0 125.0 L 183.75 127.5 L 181.25 128.75 " stroke="black" fill="none" stroke-width="6.0" stroke-linecap="round" stroke-linejoin="round" />
<path d="M 151.25 130.0 L 151.25 130.0 L 148.75 130.0 L 147.5 130.0 L 147.5 136.25 L 147.5 156.25 L 145.0 183.75 L 138.75 201.25 L 136.25 203.75 " stroke="black" fill="none" stroke-width="6.0" stroke-linecap="round" stroke-linejoin="round" />
<path d="M 100.0 198.75 L 101.25 198.75 L 101.25 198.75 L 105.0 201.25 L 113.75 215.0 L 132.5 237.5 L 146.25 251.25 L 151.25 255.0 L 151.25 255.0 L 148.75 253.75 L 142.5 251.25 L 136.25 246.25 L 127.5 241.25 L 121.25 236.25 L 117.5 232.5 L 117.5 228.75 L 128.75 222.5 L 150.0 211.25 L 178.75 200.0 L 207.5 192.5 L 217.5 191.25 L 220.0 195.0 L 211.25 205.0 L 198.75 218.75 L 182.5 235.0 L 165.0 248.75 L 160.0 252.5 L 165.0 252.5 L 182.5 245.0 L 203.75 233.75 L 220.0 220.0 L 227.5 211.25 L 226.25 207.5 " stroke="black" fill="none" stroke-width="6.0" stroke-linecap="round" stroke-linejoin="round" />
</svg>