<svg xmlns="http://www.w3.org/2000/svg" width="300" height="300" viewBox="0 0 300 300">
<path d="M 117.5 103.75 L 112.5 105.0 L 108.75 105.0 L 108.75 105.0 L 123.75 103.75 L 145.0 97.5 L 170.0 86.25 L 188.75 77.5 L 191.25 73.75 L 188.75 72.5 L 178.75 72.5 L 165.0 73.75 L 152.5 73.75 L 141.25 75.0 L 133.75 77.5 L 131.25 83.75 L 131.25 96.25 L 136.25 115.0 L 140.0 130.0 L 141.25 136.25 L 141.25 136.25 " stroke="black" fill="none" stroke-width="6.0" stroke-linecap="round" stroke-linejoin="round" />
<path d="M 163.75 83.75 L 163.75 83.75 L 165.0 86.25 L 166.25 93.75 L 166.25 110.0 L 160.0 127.5 L 152.5 135.0 L 151.25 136.25 " stroke="black" fill="none" stroke-width="6.0" stroke-linecap="round" stroke-linejoin="round" />
<path d="M 138.75 137.5 L 137.5 137.5 L 136.25 138.75 L 136.25 138.75 L 143.75 138.75 L 156.25 133.75 L 168.75 126.25 L 176.25 121.25 L 172.5 120.0 " stroke="black" fill="none" stroke-width="6.0" stroke-linecap="round" stroke-linejoin="round" />
<path d="M 95.0 182.5 L 92.5 185.0 L 90.0 187.5 L 100.0 185.0 L 126.25 170.0 L 156.25 151.25 L 182.5 133.75 L 195.0 123.75 L 193.75 120.0 L 185.0 122.5 L 172.5 131.25 L 160.0 141.25 L 147.5 157.5 L 136.25 190.0 L 127.5 217.5 L 122.5 226.25 L 121.25 225.0 " stroke="black" fill="none" stroke-width="6.0" stroke-linecap="round" stroke-linejoin="round" />
<path d="M 156.25 152.5 L 156.25 155.0 L 158.75 158.75 L 168.75 165.0 L 182.5 171.25 L 195.0 177.5 L 198.75 187.5 L 195.0 202.5 L 183.75 218.75 L 172.5 232.5 L 165.0 240.0 L 163.75 241.25 L 163.75 240.0 L 163.75 238.75 L 161.25 236.25 L 155.0 230.0 L 150.0 225.0 " stroke="black" fill="none" stroke-width="6.0" stroke-linecap="round" stroke-linejoin="round" />
</svg>