<svg xmlns="http://www.w3.org/2000/svg" width="300" height="300" viewBox="0 0 300 300">
<path d="M 91.25 91.25 L 87.5 92.5 L 87.5 93.75 L 97.5 93.75 L 118.75 91.25 L 147.5 83.75 L 167.5 76.25 L 172.5 72.5 L 166.25 72.5 L 155.0 76.25 L 146.25 78.75 L 135.0 78.75 L 122.5 78.75 L 113.75 78.75 L 111.25 80.0 L 113.75 93.75 L 121.25 117.5 L 126.25 133.75 L 128.75 135.0 " stroke="black" fill="none" stroke-width="6.0" stroke-linecap="round" stroke-linejoin="round" />
<path d="M 152.5 65.0 L 155.0 61.25 L 155.0 66.25 L 152.5 87.5 L 147.5 113.75 L 143.75 131.25 " stroke="black" fill="none" stroke-width="6.0" stroke-linecap="round" stroke-linejoin="round" />
<path d="M 120.0 142.5 L 118.75 143.75 L 113.75 148.75 L 113.75 151.25 L 121.25 153.75 L 131.25 153.75 L 138.75 151.25 L 142.5 148.75 L 142.5 148.75 " stroke="black" fill="none" stroke-width="6.0" stroke-linecap="round" stroke-linejoin="round" />
<path d="M 102.5 176.25 L 96.25 183.75 L 92.5 188.75 L 95.0 188.75 L 107.5 186.25 L 127.5 175.0 L 147.5 162.5 L 156.25 156.25 L 157.5 155.0 L 150.0 162.5 L 141.25 175.0 L 130.0 191.25 L 115.0 210.0 L 102.5 225.0 L 93.75 236.25 L 95.0 235.0 L 95.0 235.0 L 95.0 235.0 L 95.0 235.0 L 92.5 235.0 L 91.25 235.0 L 90.0 235.0 L 87.5 235.0 L 86.25 235.0 L 86.25 235.0 L 85.0 235.0 L 85.0 235.0 L 85.0 235.0 L 87.5 236.25 L 93.75 242.5 L 106.25 251.25 L 127.5 261.25 L 151.25 267.5 L 173.75 267.5 L 197.5 265.0 L 211.25 262.5 L 220.0 260.0 L 226.25 257.5 L 226.25 256.25 " stroke="black" fill="none" stroke-width="6.0" stroke-linecap="round" stroke-linejoin="round" />
</svg>