<svg xmlns="http://www.w3.org/2000/svg" width="300" height="300" viewBox="0 0 300 300">
<path d="M 112.5 130.0 L 112.5 130.0 L 112.5 130.0 L 112.5 130.0 L 117.5 133.75 L 126.25 147.5 L 131.25 165.0 L 133.75 175.0 L 133.75 173.75 L 132.5 171.25 " stroke="black" fill="none" stroke-width="6.0" stroke-linecap="round" stroke-linejoin="round" />
<path d="M 150.0 112.5 L 151.25 112.5 L 152.5 120.0 L 152.5 140.0 L 151.25 162.5 L 150.0 176.25 L 148.75 176.25 " stroke="black" fill="none" stroke-width="6.0" stroke-linecap="round" stroke-linejoin="round" />
<path d="M 187.5 108.75 L 188.75 110.0 L 190.0 118.75 L 186.25 136.25 L 173.75 156.25 L 160.0 173.75 L 145.0 185.0 L 133.75 190.0 " stroke="black" fill="none" stroke-width="6.0" stroke-linecap="round" stroke-linejoin="round" />
<path d="M 97.5 202.5 L 93.75 203.75 L 91.25 205.0 L 96.25 203.75 L 118.75 197.5 L 151.25 186.25 L 188.75 171.25 L 208.75 162.5 L 213.75 157.5 L 211.25 157.5 L 206.25 158.75 " stroke="black" fill="none" stroke-width="6.0" stroke-linecap="round" stroke-linejoin="round" />
<path d="M 156.25 193.75 L 155.0 197.5 L 150.0 207.5 L 141.25 226.25 L 132.5 243.75 L 125.0 251.25 L 121.25 251.25 L 121.25 245.0 " stroke="black" fill="none" stroke-width="6.0" stroke-linecap="round" stroke-linejoin="round" />
<path d="M 177.5 202.5 L 182.5 205.0 L 193.75 212.5 L 205.0 230.0 L 210.0 247.5 L 212.5 255.0 L 213.75 258.75 L 212.5 261.25 L 207.5 263.75 " stroke="black" fill="none" stroke-width="6.0" stroke-linecap="round" stroke-linejoin="round" />
</svg>