<svg xmlns="http://www.w3.org/2000/svg" width="300" height="300" viewBox="0 0 300 300">
<path d="M 91.25 98.75 L 88.75 101.25 L 88.75 101.25 L 103.75 101.25 L 133.75 93.75 L 168.75 81.25 L 198.75 71.25 L 208.75 66.25 L 210.0 65.0 L 202.5 65.0 L 188.75 68.75 L 171.25 71.25 L 153.75 72.5 L 140.0 72.5 L 132.5 71.25 L 130.0 70.0 L 130.0 68.75 L 131.25 70.0 L 135.0 82.5 L 136.25 100.0 L 136.25 117.5 L 136.25 122.5 " stroke="black" fill="none" stroke-width="6.0" stroke-linecap="round" stroke-linejoin="round" />
<path d="M 168.75 71.25 L 170.0 70.0 L 170.0 70.0 L 170.0 76.25 L 162.5 96.25 L 153.75 115.0 " stroke="black" fill="none" stroke-width="6.0" stroke-linecap="round" stroke-linejoin="round" />
<path d="M 97.5 133.75 L 97.5 133.75 L 97.5 133.75 L 97.5 133.75 L 102.5 146.25 L 110.0 166.25 L 115.0 181.25 L 117.5 185.0 L 116.25 180.0 " stroke="black" fill="none" stroke-width="6.0" stroke-linecap="round" stroke-linejoin="round" />
<path d="M 105.0 142.5 L 105.0 142.5 L 103.75 142.5 L 112.5 142.5 L 140.0 137.5 L 176.25 130.0 L 201.25 127.5 L 208.75 131.25 L 207.5 140.0 L 196.25 152.5 L 177.5 166.25 L 153.75 178.75 L 131.25 187.5 L 110.0 191.25 L 93.75 195.0 L 83.75 201.25 L 80.0 205.0 L 82.5 205.0 L 95.0 203.75 L 120.0 196.25 L 150.0 186.25 L 180.0 175.0 L 201.25 166.25 L 205.0 160.0 L 196.25 156.25 " stroke="black" fill="none" stroke-width="6.0" stroke-linecap="round" stroke-linejoin="round" />
<path d="M 143.75 126.25 L 145.0 123.75 L 146.25 123.75 L 148.75 136.25 L 147.5 172.5 L 137.5 213.75 L 125.0 238.75 L 108.75 253.75 L 96.25 257.5 L 92.5 255.0 " stroke="black" fill="none" stroke-width="6.0" stroke-linecap="round" stroke-linejoin="round" />
<path d="M 153.75 181.25 L 155.0 185.0 L 166.25 200.0 L 182.5 222.5 L 198.75 243.75 L 213.75 257.5 L 223.75 262.5 L 231.25 266.25 L 232.5 272.5 L 230.0 273.75 " stroke="black" fill="none" stroke-width="6.0" stroke-linecap="round" stroke-linejoin="round" />
</svg>