<svg xmlns="http://www.w3.org/2000/svg" width="300" height="300" viewBox="0 0 300 300">
<path d="M 128.75 60.0 L 128.75 60.0 L 128.75 60.0 L 128.75 61.25 L 127.5 73.75 L 122.5 91.25 L 118.75 100.0 L 120.0 101.25 L 130.0 96.25 L 145.0 88.75 L 158.75 83.75 L 167.5 82.5 L 170.0 85.0 L 163.75 95.0 L 152.5 108.75 L 141.25 123.75 L 127.5 135.0 " stroke="black" fill="none" stroke-width="6.0" stroke-linecap="round" stroke-linejoin="round" />
<path d="M 96.25 150.0 L 96.25 150.0 L 97.5 150.0 L 116.25 145.0 L 147.5 137.5 L 175.0 133.75 L 190.0 135.0 L 191.25 143.75 L 178.75 156.25 L 161.25 170.0 L 146.25 181.25 L 132.5 187.5 L 130.0 187.5 " stroke="black" fill="none" stroke-width="6.0" stroke-linecap="round" stroke-linejoin="round" />
<path d="M 146.25 141.25 L 146.25 141.25 L 145.0 142.5 L 140.0 155.0 L 131.25 178.75 L 123.75 195.0 L 120.0 197.5 L 120.0 195.0 L 125.0 188.75 L 135.0 181.25 L 145.0 175.0 L 153.75 168.75 L 158.75 166.25 " stroke="black" fill="none" stroke-width="6.0" stroke-linecap="round" stroke-linejoin="round" />
<path d="M 100.0 145.0 L 98.75 147.5 L 96.25 157.5 L 98.75 190.0 L 110.0 218.75 L 130.0 232.5 L 151.25 235.0 L 175.0 232.5 L 200.0 223.75 L 212.5 218.75 L 221.25 217.5 L 222.5 217.5 L 223.75 217.5 L 223.75 217.5 L 225.0 215.0 L 226.25 208.75 L 227.5 197.5 L 227.5 176.25 L 223.75 155.0 " stroke="black" fill="none" stroke-width="6.0" stroke-linecap="round" stroke-linejoin="round" />
</svg>