<svg xmlns="http://www.w3.org/2000/svg" width="300" height="300" viewBox="0 0 300 300">
<path d="M 98.75 85.0 L 98.75 85.0 L 98.75 86.25 L 102.5 86.25 L 132.5 81.25 L 172.5 71.25 L 200.0 58.75 L 207.5 52.5 L 207.5 50.0 L 195.0 50.0 L 186.25 50.0 " stroke="black" fill="none" stroke-width="6.0" stroke-linecap="round" stroke-linejoin="round" />
<path d="M 132.5 68.75 L 132.5 71.25 L 133.75 78.75 L 137.5 93.75 L 141.25 106.25 L 141.25 107.5 " stroke="black" fill="none" stroke-width="6.0" stroke-linecap="round" stroke-linejoin="round" />
<path d="M 171.25 61.25 L 172.5 61.25 L 172.5 63.75 L 166.25 78.75 L 157.5 95.0 " stroke="black" fill="none" stroke-width="6.0" stroke-linecap="round" stroke-linejoin="round" />
<path d="M 136.25 126.25 L 130.0 133.75 L 116.25 153.75 L 100.0 180.0 L 81.25 203.75 L 66.25 213.75 L 48.75 216.25 " stroke="black" fill="none" stroke-width="6.0" stroke-linecap="round" stroke-linejoin="round" />
<path d="M 141.25 117.5 L 158.75 122.5 L 186.25 133.75 L 207.5 143.75 L 225.0 151.25 L 237.5 155.0 L 240.0 157.5 L 231.25 158.75 L 228.75 158.75 " stroke="black" fill="none" stroke-width="6.0" stroke-linecap="round" stroke-linejoin="round" />
<path d="M 118.75 192.5 L 116.25 193.75 L 117.5 193.75 L 132.5 188.75 L 158.75 173.75 L 185.0 156.25 L 195.0 147.5 L 188.75 145.0 L 182.5 145.0 " stroke="black" fill="none" stroke-width="6.0" stroke-linecap="round" stroke-linejoin="round" />
<path d="M 156.25 142.5 L 156.25 141.25 L 156.25 141.25 L 156.25 142.5 L 160.0 160.0 L 162.5 196.25 L 165.0 226.25 L 166.25 240.0 L 165.0 247.5 L 161.25 251.25 L 155.0 252.5 L 147.5 252.5 L 141.25 247.5 L 140.0 246.25 " stroke="black" fill="none" stroke-width="6.0" stroke-linecap="round" stroke-linejoin="round" />
<path d="M 153.75 192.5 L 151.25 195.0 L 142.5 205.0 L 131.25 220.0 L 117.5 237.5 L 106.25 245.0 L 102.5 243.75 " stroke="black" fill="none" stroke-width="6.0" stroke-linecap="round" stroke-linejoin="round" />
<path d="M 153.75 186.25 L 155.0 186.25 L 160.0 188.75 L 175.0 200.0 L 195.0 215.0 L 210.0 226.25 L 221.25 236.25 L 232.5 243.75 L 240.0 247.5 L 246.25 253.75 " stroke="black" fill="none" stroke-width="6.0" stroke-linecap="round" stroke-linejoin="round" />
</svg>