<svg xmlns="http://www.w3.org/2000/svg" width="300" height="300" viewBox="0 0 300 300">
<path d="M 90.0 98.75 L 83.75 101.25 L 81.25 102.5 L 86.25 102.5 L 106.25 97.5 L 136.25 92.5 L 171.25 85.0 L 196.25 78.75 L 201.25 77.5 L 197.5 77.5 L 185.0 78.75 " stroke="black" fill="none" stroke-width="6.0" stroke-linecap="round" stroke-linejoin="round" />
<path d="M 122.5 86.25 L 120.0 86.25 L 120.0 86.25 L 120.0 88.75 L 125.0 96.25 L 128.75 110.0 L 130.0 120.0 " stroke="black" fill="none" stroke-width="6.0" stroke-linecap="round" stroke-linejoin="round" />
<path d="M 156.25 73.75 L 156.25 73.75 L 156.25 76.25 L 153.75 87.5 L 147.5 108.75 " stroke="black" fill="none" stroke-width="6.0" stroke-linecap="round" stroke-linejoin="round" />
<path d="M 87.5 152.5 L 86.25 152.5 L 85.0 152.5 L 85.0 152.5 L 86.25 152.5 L 90.0 160.0 L 91.25 168.75 L 92.5 177.5 L 93.75 181.25 L 97.5 181.25 L 107.5 172.5 L 120.0 161.25 L 131.25 151.25 L 135.0 146.25 L 136.25 142.5 L 131.25 141.25 L 127.5 141.25 L 123.75 141.25 L 122.5 140.0 L 121.25 140.0 L 121.25 140.0 L 120.0 140.0 L 120.0 140.0 L 120.0 140.0 L 121.25 146.25 L 123.75 166.25 L 126.25 200.0 L 127.5 228.75 L 127.5 241.25 L 125.0 246.25 L 118.75 248.75 L 115.0 248.75 " stroke="black" fill="none" stroke-width="6.0" stroke-linecap="round" stroke-linejoin="round" />
<path d="M 75.0 216.25 L 78.75 216.25 L 90.0 213.75 L 103.75 205.0 L 118.75 195.0 L 126.25 187.5 L 125.0 187.5 " stroke="black" fill="none" stroke-width="6.0" stroke-linecap="round" stroke-linejoin="round" />
<path d="M 95.0 207.5 L 93.75 211.25 L 92.5 220.0 L 91.25 233.75 L 87.5 248.75 L 82.5 257.5 L 81.25 258.75 " stroke="black" fill="none" stroke-width="6.0" stroke-linecap="round" stroke-linejoin="round" />
<path d="M 158.75 180.0 L 158.75 181.25 L 163.75 181.25 L 181.25 177.5 L 202.5 171.25 L 217.5 162.5 L 222.5 155.0 L 216.25 153.75 L 205.0 155.0 " stroke="black" fill="none" stroke-width="6.0" stroke-linecap="round" stroke-linejoin="round" />
<path d="M 175.0 143.75 L 175.0 143.75 L 176.25 143.75 L 181.25 148.75 L 190.0 171.25 L 193.75 200.0 L 191.25 216.25 L 185.0 222.5 L 176.25 225.0 L 170.0 226.25 L 166.25 226.25 L 165.0 225.0 L 165.0 225.0 L 167.5 225.0 L 173.75 223.75 L 183.75 223.75 L 197.5 223.75 L 211.25 223.75 L 225.0 221.25 L 235.0 220.0 L 240.0 216.25 " stroke="black" fill="none" stroke-width="6.0" stroke-linecap="round" stroke-linejoin="round" />
</svg>