<svg xmlns="http://www.w3.org/2000/svg" width="300" height="300" viewBox="0 0 300 300">
<path d="M 96.25 91.25 L 91.25 92.5 L 87.5 95.0 L 91.25 95.0 L 113.75 91.25 L 148.75 83.75 L 183.75 73.75 L 200.0 66.25 L 198.75 65.0 L 188.75 67.5 " stroke="black" fill="none" stroke-width="6.0" stroke-linecap="round" stroke-linejoin="round" />
<path d="M 130.0 80.0 L 127.5 85.0 L 126.25 91.25 L 128.75 105.0 L 133.75 120.0 L 137.5 125.0 " stroke="black" fill="none" stroke-width="6.0" stroke-linecap="round" stroke-linejoin="round" />
<path d="M 170.0 63.75 L 170.0 65.0 L 166.25 72.5 L 158.75 91.25 L 150.0 110.0 " stroke="black" fill="none" stroke-width="6.0" stroke-linecap="round" stroke-linejoin="round" />
<path d="M 100.0 150.0 L 100.0 150.0 L 97.5 148.75 L 96.25 150.0 L 90.0 166.25 L 78.75 200.0 L 66.25 222.5 L 58.75 225.0 L 60.0 213.75 " stroke="black" fill="none" stroke-width="6.0" stroke-linecap="round" stroke-linejoin="round" />
<path d="M 96.25 168.75 L 98.75 168.75 L 103.75 175.0 L 107.5 190.0 L 108.75 225.0 L 106.25 247.5 L 103.75 253.75 L 101.25 253.75 " stroke="black" fill="none" stroke-width="6.0" stroke-linecap="round" stroke-linejoin="round" />
<path d="M 137.5 147.5 L 138.75 147.5 L 143.75 147.5 L 158.75 145.0 L 186.25 138.75 L 213.75 123.75 L 206.25 126.25 L 195.0 133.75 L 186.25 137.5 " stroke="black" fill="none" stroke-width="6.0" stroke-linecap="round" stroke-linejoin="round" />
<path d="M 143.75 175.0 L 142.5 180.0 L 142.5 191.25 L 146.25 203.75 L 151.25 215.0 L 152.5 220.0 L 153.75 220.0 L 150.0 217.5 L 147.5 212.5 L 146.25 206.25 L 146.25 198.75 L 152.5 191.25 L 163.75 186.25 L 176.25 183.75 L 181.25 187.5 L 176.25 198.75 L 163.75 211.25 L 153.75 217.5 L 151.25 217.5 L 152.5 211.25 " stroke="black" fill="none" stroke-width="6.0" stroke-linecap="round" stroke-linejoin="round" />
<path d="M 205.0 137.5 L 205.0 137.5 L 203.75 142.5 L 202.5 157.5 L 205.0 195.0 L 208.75 235.0 L 208.75 258.75 L 206.25 268.75 L 201.25 276.25 L 193.75 281.25 L 178.75 283.75 L 161.25 282.5 L 145.0 273.75 " stroke="black" fill="none" stroke-width="6.0" stroke-linecap="round" stroke-linejoin="round" />
</svg>