<svg xmlns="http://www.w3.org/2000/svg" width="300" height="300" viewBox="0 0 300 300">
<path d="M 86.25 95.0 L 82.5 96.25 L 76.25 97.5 L 76.25 98.75 L 78.75 98.75 L 95.0 98.75 L 108.75 98.75 L 126.25 98.75 L 143.75 97.5 L 162.5 95.0 L 181.25 91.25 L 195.0 88.75 L 198.75 87.5 L 205.0 83.75 L 205.0 82.5 L 202.5 82.5 L 191.25 82.5 L 183.75 85.0 " stroke="black" fill="none" stroke-width="6.0" stroke-linecap="round" stroke-linejoin="round" />
<path d="M 128.75 86.25 L 127.5 86.25 L 127.5 86.25 L 125.0 86.25 L 125.0 87.5 L 125.0 98.75 L 128.75 117.5 L 131.25 127.5 L 131.25 130.0 " stroke="black" fill="none" stroke-width="6.0" stroke-linecap="round" stroke-linejoin="round" />
<path d="M 163.75 83.75 L 163.75 83.75 L 162.5 88.75 L 158.75 101.25 L 156.25 106.25 " stroke="black" fill="none" stroke-width="6.0" stroke-linecap="round" stroke-linejoin="round" />
<path d="M 101.25 150.0 L 101.25 148.75 L 101.25 146.25 L 101.25 145.0 L 98.75 148.75 L 95.0 166.25 L 90.0 187.5 L 87.5 200.0 L 88.75 202.5 L 100.0 195.0 L 116.25 182.5 L 132.5 170.0 L 142.5 161.25 L 143.75 158.75 L 135.0 167.5 L 120.0 187.5 L 105.0 208.75 L 92.5 228.75 L 90.0 240.0 L 93.75 242.5 L 106.25 240.0 L 122.5 231.25 L 136.25 221.25 L 145.0 213.75 L 146.25 210.0 L 143.75 207.5 L 141.25 206.25 L 140.0 205.0 L 138.75 203.75 L 138.75 203.75 L 138.75 203.75 L 143.75 211.25 L 150.0 228.75 L 155.0 245.0 L 157.5 253.75 " stroke="black" fill="none" stroke-width="6.0" stroke-linecap="round" stroke-linejoin="round" />
<path d="M 186.25 138.75 L 186.25 137.5 L 186.25 136.25 L 185.0 138.75 L 177.5 155.0 L 166.25 180.0 L 161.25 195.0 L 163.75 197.5 L 173.75 192.5 L 188.75 182.5 L 201.25 171.25 L 208.75 162.5 L 211.25 158.75 L 208.75 162.5 L 200.0 178.75 L 188.75 200.0 L 180.0 216.25 L 177.5 228.75 L 183.75 231.25 L 193.75 228.75 L 205.0 221.25 L 212.5 213.75 L 217.5 207.5 L 221.25 202.5 L 222.5 198.75 L 222.5 197.5 L 221.25 196.25 L 218.75 195.0 L 217.5 195.0 L 216.25 193.75 L 215.0 193.75 L 215.0 193.75 L 213.75 192.5 L 213.75 192.5 L 213.75 192.5 L 213.75 192.5 L 213.75 192.5 L 218.75 198.75 L 228.75 213.75 L 242.5 232.5 L 251.25 243.75 " stroke="black" fill="none" stroke-width="6.0" stroke-linecap="round" stroke-linejoin="round" />
</svg>