<svg xmlns="http://www.w3.org/2000/svg" width="300" height="300" viewBox="0 0 300 300">
<path d="M 97.5 85.0 L 97.5 85.0 L 95.0 85.0 L 93.75 86.25 L 101.25 86.25 L 127.5 85.0 L 161.25 77.5 L 186.25 66.25 L 192.5 60.0 L 190.0 57.5 L 175.0 58.75 L 157.5 60.0 L 153.75 61.25 " stroke="black" fill="none" stroke-width="6.0" stroke-linecap="round" stroke-linejoin="round" />
<path d="M 122.5 70.0 L 120.0 71.25 L 116.25 76.25 L 115.0 85.0 L 120.0 102.5 L 126.25 117.5 L 130.0 120.0 " stroke="black" fill="none" stroke-width="6.0" stroke-linecap="round" stroke-linejoin="round" />
<path d="M 151.25 71.25 L 152.5 70.0 L 152.5 68.75 L 153.75 71.25 L 155.0 83.75 L 148.75 106.25 L 143.75 118.75 " stroke="black" fill="none" stroke-width="6.0" stroke-linecap="round" stroke-linejoin="round" />
<path d="M 95.0 151.25 L 95.0 151.25 L 92.5 151.25 L 93.75 151.25 L 108.75 148.75 L 138.75 141.25 L 163.75 130.0 L 173.75 122.5 L 171.25 121.25 L 156.25 127.5 L 145.0 132.5 L 132.5 138.75 L 120.0 147.5 L 108.75 161.25 L 101.25 182.5 L 98.75 200.0 L 98.75 203.75 L 98.75 203.75 " stroke="black" fill="none" stroke-width="6.0" stroke-linecap="round" stroke-linejoin="round" />
<path d="M 115.0 162.5 L 115.0 162.5 L 113.75 162.5 L 113.75 165.0 L 122.5 178.75 L 140.0 187.5 L 143.75 187.5 " stroke="black" fill="none" stroke-width="6.0" stroke-linecap="round" stroke-linejoin="round" />
<path d="M 190.0 133.75 L 188.75 133.75 L 181.25 135.0 L 167.5 146.25 L 152.5 166.25 L 145.0 181.25 L 146.25 185.0 L 160.0 178.75 L 181.25 166.25 L 200.0 153.75 L 207.5 146.25 L 202.5 145.0 L 188.75 150.0 L 173.75 153.75 L 170.0 155.0 " stroke="black" fill="none" stroke-width="6.0" stroke-linecap="round" stroke-linejoin="round" />
<path d="M 147.5 127.5 L 147.5 125.0 L 147.5 121.25 L 148.75 120.0 L 150.0 131.25 L 151.25 160.0 L 152.5 203.75 L 153.75 243.75 L 155.0 262.5 L 156.25 265.0 L 156.25 265.0 L 152.5 257.5 L 148.75 246.25 L 143.75 232.5 L 141.25 213.75 L 142.5 197.5 L 146.25 188.75 L 150.0 186.25 L 145.0 195.0 L 133.75 211.25 L 116.25 233.75 L 100.0 253.75 L 88.75 260.0 L 87.5 255.0 L 87.5 251.25 " stroke="black" fill="none" stroke-width="6.0" stroke-linecap="round" stroke-linejoin="round" />
<path d="M 132.5 192.5 L 137.5 192.5 L 151.25 198.75 L 177.5 215.0 L 205.0 233.75 L 221.25 246.25 L 236.25 253.75 L 246.25 257.5 L 250.0 257.5 L 250.0 257.5 " stroke="black" fill="none" stroke-width="6.0" stroke-linecap="round" stroke-linejoin="round" />
</svg>