<svg xmlns="http://www.w3.org/2000/svg" width="300" height="300" viewBox="0 0 300 300">
<path d="M 93.75 81.25 L 92.5 81.25 L 88.75 83.75 L 87.5 85.0 L 97.5 86.25 L 128.75 83.75 L 166.25 72.5 L 193.75 58.75 L 200.0 53.75 L 197.5 52.5 L 183.75 55.0 L 166.25 57.5 " stroke="black" fill="none" stroke-width="6.0" stroke-linecap="round" stroke-linejoin="round" />
<path d="M 122.5 71.25 L 120.0 71.25 L 120.0 73.75 L 122.5 80.0 L 127.5 90.0 L 132.5 95.0 " stroke="black" fill="none" stroke-width="6.0" stroke-linecap="round" stroke-linejoin="round" />
<path d="M 161.25 53.75 L 161.25 53.75 L 161.25 56.25 L 157.5 67.5 L 150.0 88.75 L 140.0 105.0 L 132.5 110.0 " stroke="black" fill="none" stroke-width="6.0" stroke-linecap="round" stroke-linejoin="round" />
<path d="M 81.25 128.75 L 81.25 128.75 L 81.25 130.0 L 87.5 130.0 L 115.0 125.0 L 156.25 112.5 L 183.75 103.75 L 196.25 98.75 L 197.5 97.5 L 188.75 98.75 L 180.0 100.0 " stroke="black" fill="none" stroke-width="6.0" stroke-linecap="round" stroke-linejoin="round" />
<path d="M 110.0 115.0 L 107.5 116.25 L 105.0 117.5 L 105.0 123.75 L 113.75 138.75 L 130.0 157.5 L 147.5 167.5 L 158.75 167.5 L 166.25 162.5 L 170.0 156.25 L 168.75 152.5 L 160.0 151.25 " stroke="black" fill="none" stroke-width="6.0" stroke-linecap="round" stroke-linejoin="round" />
<path d="M 145.0 123.75 L 143.75 122.5 L 142.5 121.25 L 142.5 121.25 L 146.25 126.25 L 150.0 133.75 L 153.75 141.25 L 157.5 146.25 L 158.75 146.25 L 158.75 142.5 " stroke="black" fill="none" stroke-width="6.0" stroke-linecap="round" stroke-linejoin="round" />
<path d="M 163.75 103.75 L 163.75 103.75 L 163.75 102.5 L 165.0 102.5 L 165.0 108.75 L 165.0 122.5 L 165.0 135.0 L 163.75 142.5 L 161.25 145.0 L 158.75 145.0 L 155.0 142.5 L 153.75 141.25 " stroke="black" fill="none" stroke-width="6.0" stroke-linecap="round" stroke-linejoin="round" />
<path d="M 83.75 208.75 L 83.75 208.75 L 86.25 208.75 L 106.25 206.25 L 147.5 192.5 L 181.25 175.0 L 200.0 161.25 L 205.0 156.25 L 205.0 156.25 L 195.0 157.5 L 182.5 161.25 L 167.5 165.0 L 153.75 168.75 L 146.25 172.5 L 146.25 172.5 L 147.5 173.75 L 151.25 180.0 L 155.0 200.0 L 156.25 233.75 L 157.5 260.0 L 156.25 270.0 L 153.75 271.25 L 148.75 265.0 L 142.5 255.0 L 136.25 246.25 " stroke="black" fill="none" stroke-width="6.0" stroke-linecap="round" stroke-linejoin="round" />
<path d="M 115.0 211.25 L 115.0 212.5 L 111.25 217.5 L 107.5 228.75 L 105.0 247.5 L 105.0 260.0 L 106.25 262.5 " stroke="black" fill="none" stroke-width="6.0" stroke-linecap="round" stroke-linejoin="round" />
<path d="M 185.0 206.25 L 186.25 207.5 L 192.5 211.25 L 200.0 221.25 L 207.5 233.75 L 212.5 246.25 L 212.5 253.75 " stroke="black" fill="none" stroke-width="6.0" stroke-linecap="round" stroke-linejoin="round" />
</svg>