<svg xmlns="http://www.w3.org/2000/svg" width="300" height="300" viewBox="0 0 300 300">
<path d="M 81.25 91.25 L 80.0 92.5 L 81.25 95.0 L 97.5 95.0 L 131.25 86.25 L 170.0 72.5 L 190.0 61.25 L 193.75 58.75 L 186.25 60.0 L 166.25 66.25 L 146.25 71.25 L 126.25 76.25 L 108.75 80.0 L 101.25 82.5 L 102.5 87.5 L 107.5 97.5 L 113.75 110.0 L 120.0 118.75 L 120.0 118.75 " stroke="black" fill="none" stroke-width="6.0" stroke-linecap="round" stroke-linejoin="round" />
<path d="M 153.75 67.5 L 153.75 67.5 L 155.0 70.0 L 153.75 83.75 L 143.75 108.75 L 135.0 122.5 " stroke="black" fill="none" stroke-width="6.0" stroke-linecap="round" stroke-linejoin="round" />
<path d="M 103.75 142.5 L 103.75 142.5 L 103.75 143.75 L 106.25 143.75 L 120.0 140.0 L 141.25 127.5 L 156.25 115.0 L 157.5 110.0 L 150.0 110.0 L 140.0 113.75 L 130.0 117.5 L 125.0 121.25 L 123.75 127.5 L 128.75 137.5 L 131.25 148.75 L 128.75 161.25 L 117.5 166.25 " stroke="black" fill="none" stroke-width="6.0" stroke-linecap="round" stroke-linejoin="round" />
<path d="M 73.75 180.0 L 61.25 185.0 L 60.0 186.25 L 76.25 186.25 L 106.25 175.0 L 148.75 152.5 L 192.5 130.0 L 218.75 116.25 L 228.75 110.0 L 225.0 108.75 L 212.5 108.75 L 198.75 112.5 L 185.0 120.0 L 167.5 133.75 L 147.5 160.0 L 121.25 206.25 L 96.25 252.5 L 91.25 272.5 L 92.5 275.0 L 92.5 272.5 " stroke="black" fill="none" stroke-width="6.0" stroke-linecap="round" stroke-linejoin="round" />
<path d="M 147.5 176.25 L 147.5 176.25 L 145.0 177.5 L 143.75 191.25 L 143.75 218.75 L 145.0 238.75 L 148.75 256.25 L 151.25 257.5 L 151.25 253.75 " stroke="black" fill="none" stroke-width="6.0" stroke-linecap="round" stroke-linejoin="round" />
<path d="M 148.75 181.25 L 148.75 178.75 L 147.5 176.25 L 150.0 173.75 L 160.0 172.5 L 176.25 177.5 L 190.0 193.75 L 195.0 216.25 L 192.5 236.25 L 186.25 250.0 L 180.0 256.25 L 173.75 256.25 L 168.75 252.5 " stroke="black" fill="none" stroke-width="6.0" stroke-linecap="round" stroke-linejoin="round" />
<path d="M 146.25 212.5 L 145.0 212.5 L 141.25 213.75 L 142.5 213.75 L 151.25 212.5 L 168.75 206.25 L 183.75 198.75 L 187.5 196.25 " stroke="black" fill="none" stroke-width="6.0" stroke-linecap="round" stroke-linejoin="round" />
<path d="M 152.5 251.25 L 151.25 253.75 L 148.75 261.25 L 156.25 261.25 L 175.0 252.5 L 193.75 238.75 " stroke="black" fill="none" stroke-width="6.0" stroke-linecap="round" stroke-linejoin="round" />
</svg>