<svg xmlns="http://www.w3.org/2000/svg" width="300" height="300" viewBox="0 0 300 300">
<path d="M 92.5 82.5 L 88.75 83.75 L 87.5 85.0 L 90.0 85.0 L 108.75 85.0 L 142.5 81.25 L 177.5 76.25 L 201.25 71.25 L 206.25 68.75 L 202.5 68.75 L 195.0 68.75 " stroke="black" fill="none" stroke-width="6.0" stroke-linecap="round" stroke-linejoin="round" />
<path d="M 131.25 75.0 L 131.25 75.0 L 127.5 73.75 L 126.25 73.75 L 126.25 77.5 L 128.75 85.0 L 130.0 92.5 L 130.0 93.75 " stroke="black" fill="none" stroke-width="6.0" stroke-linecap="round" stroke-linejoin="round" />
<path d="M 152.5 71.25 L 153.75 70.0 L 153.75 71.25 L 152.5 78.75 L 150.0 85.0 " stroke="black" fill="none" stroke-width="6.0" stroke-linecap="round" stroke-linejoin="round" />
<path d="M 96.25 108.75 L 96.25 108.75 L 92.5 108.75 L 91.25 110.0 L 90.0 112.5 L 90.0 121.25 L 91.25 132.5 L 93.75 140.0 L 93.75 143.75 L 95.0 142.5 L 95.0 142.5 " stroke="black" fill="none" stroke-width="6.0" stroke-linecap="round" stroke-linejoin="round" />
<path d="M 96.25 120.0 L 95.0 120.0 L 95.0 118.75 L 95.0 117.5 L 108.75 115.0 L 136.25 112.5 L 167.5 110.0 L 195.0 110.0 L 203.75 112.5 L 203.75 116.25 L 197.5 121.25 L 186.25 126.25 L 173.75 130.0 L 166.25 131.25 " stroke="black" fill="none" stroke-width="6.0" stroke-linecap="round" stroke-linejoin="round" />
<path d="M 128.75 135.0 L 126.25 135.0 L 121.25 135.0 L 120.0 135.0 L 123.75 135.0 L 136.25 135.0 L 148.75 135.0 L 160.0 132.5 L 166.25 132.5 L 166.25 132.5 " stroke="black" fill="none" stroke-width="6.0" stroke-linecap="round" stroke-linejoin="round" />
<path d="M 100.0 162.5 L 97.5 163.75 L 96.25 165.0 L 106.25 165.0 L 126.25 160.0 L 151.25 155.0 L 170.0 151.25 L 176.25 148.75 L 173.75 150.0 L 160.0 156.25 L 145.0 166.25 L 122.5 182.5 L 95.0 200.0 L 78.75 211.25 L 76.25 212.5 L 82.5 210.0 L 92.5 202.5 L 95.0 201.25 " stroke="black" fill="none" stroke-width="6.0" stroke-linecap="round" stroke-linejoin="round" />
<path d="M 136.25 176.25 L 137.5 175.0 L 140.0 173.75 L 145.0 172.5 L 155.0 173.75 L 166.25 185.0 L 175.0 200.0 L 175.0 221.25 L 163.75 241.25 L 150.0 253.75 L 136.25 257.5 L 127.5 256.25 L 125.0 251.25 " stroke="black" fill="none" stroke-width="6.0" stroke-linecap="round" stroke-linejoin="round" />
<path d="M 150.0 192.5 L 150.0 192.5 L 146.25 192.5 L 140.0 196.25 L 128.75 208.75 L 112.5 225.0 L 101.25 236.25 L 100.0 237.5 L 103.75 232.5 " stroke="black" fill="none" stroke-width="6.0" stroke-linecap="round" stroke-linejoin="round" />
<path d="M 165.0 196.25 L 165.0 196.25 L 161.25 198.75 L 155.0 205.0 L 143.75 218.75 L 132.5 236.25 L 122.5 245.0 " stroke="black" fill="none" stroke-width="6.0" stroke-linecap="round" stroke-linejoin="round" />
<path d="M 212.5 172.5 L 212.5 172.5 L 205.0 177.5 L 197.5 185.0 L 188.75 192.5 L 182.5 200.0 L 180.0 202.5 L 180.0 203.75 L 180.0 203.75 L 180.0 203.75 L 180.0 203.75 L 180.0 203.75 L 181.25 203.75 L 182.5 205.0 L 186.25 207.5 L 192.5 211.25 L 202.5 218.75 L 221.25 230.0 L 241.25 238.75 L 256.25 243.75 L 258.75 245.0 " stroke="black" fill="none" stroke-width="6.0" stroke-linecap="round" stroke-linejoin="round" />
</svg>