<svg xmlns="http://www.w3.org/2000/svg" width="300" height="300" viewBox="0 0 300 300">
<path d="M 117.5 82.5 L 115.0 82.5 L 111.25 82.5 L 112.5 82.5 L 130.0 81.25 L 155.0 76.25 L 183.75 70.0 L 200.0 65.0 L 201.25 65.0 L 191.25 66.25 " stroke="black" fill="none" stroke-width="6.0" stroke-linecap="round" stroke-linejoin="round" />
<path d="M 143.75 63.75 L 141.25 63.75 L 140.0 67.5 L 140.0 82.5 L 141.25 102.5 L 143.75 110.0 " stroke="black" fill="none" stroke-width="6.0" stroke-linecap="round" stroke-linejoin="round" />
<path d="M 178.75 53.75 L 178.75 55.0 L 175.0 61.25 L 166.25 80.0 L 157.5 100.0 L 153.75 105.0 " stroke="black" fill="none" stroke-width="6.0" stroke-linecap="round" stroke-linejoin="round" />
<path d="M 148.75 103.75 L 148.75 103.75 L 148.75 103.75 L 148.75 105.0 L 147.5 116.25 L 145.0 127.5 L 143.75 133.75 L 146.25 133.75 L 156.25 125.0 L 170.0 116.25 L 180.0 110.0 L 183.75 115.0 L 175.0 132.5 L 160.0 155.0 L 142.5 178.75 L 125.0 195.0 L 113.75 197.5 " stroke="black" fill="none" stroke-width="6.0" stroke-linecap="round" stroke-linejoin="round" />
<path d="M 127.5 142.5 L 130.0 142.5 L 140.0 143.75 L 165.0 151.25 L 198.75 163.75 L 221.25 171.25 L 233.75 172.5 L 236.25 172.5 L 225.0 173.75 " stroke="black" fill="none" stroke-width="6.0" stroke-linecap="round" stroke-linejoin="round" />
<path d="M 153.75 176.25 L 153.75 176.25 L 152.5 176.25 L 161.25 175.0 L 177.5 170.0 L 191.25 166.25 L 193.75 165.0 " stroke="black" fill="none" stroke-width="6.0" stroke-linecap="round" stroke-linejoin="round" />
<path d="M 142.5 205.0 L 141.25 206.25 L 141.25 206.25 L 151.25 201.25 L 172.5 191.25 L 192.5 180.0 L 198.75 176.25 L 190.0 182.5 L 176.25 192.5 " stroke="black" fill="none" stroke-width="6.0" stroke-linecap="round" stroke-linejoin="round" />
<path d="M 147.5 222.5 L 146.25 223.75 L 146.25 225.0 L 156.25 220.0 L 178.75 206.25 L 200.0 191.25 L 208.75 181.25 L 203.75 180.0 L 195.0 181.25 L 185.0 181.25 L 176.25 178.75 L 172.5 175.0 L 172.5 172.5 L 173.75 177.5 L 177.5 196.25 L 178.75 218.75 L 178.75 238.75 L 175.0 245.0 " stroke="black" fill="none" stroke-width="6.0" stroke-linecap="round" stroke-linejoin="round" />
<path d="M 75.0 123.75 L 73.75 123.75 L 71.25 123.75 L 73.75 123.75 L 82.5 126.25 L 93.75 130.0 L 95.0 131.25 " stroke="black" fill="none" stroke-width="6.0" stroke-linecap="round" stroke-linejoin="round" />
<path d="M 82.5 151.25 L 82.5 151.25 L 82.5 151.25 L 82.5 152.5 L 85.0 153.75 L 90.0 156.25 L 93.75 161.25 L 95.0 168.75 L 92.5 177.5 L 88.75 185.0 L 88.75 188.75 L 91.25 190.0 L 97.5 190.0 L 105.0 193.75 L 107.5 201.25 L 105.0 213.75 L 98.75 225.0 L 91.25 235.0 L 83.75 238.75 L 77.5 240.0 L 72.5 240.0 L 71.25 238.75 L 71.25 237.5 L 71.25 236.25 L 76.25 235.0 L 85.0 233.75 L 97.5 232.5 L 113.75 233.75 L 135.0 237.5 L 155.0 241.25 L 172.5 245.0 L 191.25 246.25 L 208.75 246.25 L 223.75 245.0 L 242.5 241.25 L 260.0 236.25 L 271.25 227.5 L 273.75 221.25 " stroke="black" fill="none" stroke-width="6.0" stroke-linecap="round" stroke-linejoin="round" />
</svg>