<svg xmlns="http://www.w3.org/2000/svg" width="300" height="300" viewBox="0 0 300 300">
<path d="M 90.0 90.0 L 87.5 90.0 L 85.0 90.0 L 86.25 90.0 L 103.75 85.0 L 137.5 75.0 L 168.75 61.25 L 188.75 53.75 L 191.25 51.25 L 186.25 52.5 L 171.25 56.25 L 156.25 58.75 L 142.5 61.25 L 130.0 63.75 L 121.25 63.75 L 117.5 63.75 L 116.25 63.75 L 117.5 66.25 L 120.0 77.5 L 122.5 93.75 L 125.0 105.0 L 126.25 107.5 L 128.75 101.25 " stroke="black" fill="none" stroke-width="6.0" stroke-linecap="round" stroke-linejoin="round" />
<path d="M 157.5 51.25 L 158.75 50.0 L 161.25 50.0 L 161.25 52.5 L 153.75 70.0 L 143.75 93.75 L 132.5 112.5 L 123.75 120.0 " stroke="black" fill="none" stroke-width="6.0" stroke-linecap="round" stroke-linejoin="round" />
<path d="M 105.0 113.75 L 105.0 112.5 L 103.75 112.5 L 103.75 112.5 L 105.0 125.0 L 110.0 143.75 L 117.5 158.75 L 122.5 166.25 L 125.0 166.25 L 126.25 161.25 L 122.5 153.75 L 120.0 147.5 L 118.75 141.25 L 117.5 133.75 L 115.0 127.5 L 113.75 123.75 L 112.5 122.5 L 117.5 121.25 L 133.75 116.25 L 152.5 111.25 L 170.0 108.75 L 180.0 111.25 L 181.25 117.5 L 173.75 128.75 L 162.5 140.0 L 152.5 148.75 L 141.25 152.5 L 138.75 153.75 " stroke="black" fill="none" stroke-width="6.0" stroke-linecap="round" stroke-linejoin="round" />
<path d="M 115.0 150.0 L 115.0 150.0 L 115.0 148.75 L 123.75 143.75 L 142.5 135.0 L 160.0 125.0 L 170.0 120.0 L 168.75 118.75 L 156.25 126.25 " stroke="black" fill="none" stroke-width="6.0" stroke-linecap="round" stroke-linejoin="round" />
<path d="M 128.75 157.5 L 125.0 162.5 L 125.0 163.75 L 135.0 158.75 L 152.5 147.5 L 170.0 133.75 L 178.75 125.0 " stroke="black" fill="none" stroke-width="6.0" stroke-linecap="round" stroke-linejoin="round" />
<path d="M 85.0 178.75 L 85.0 178.75 L 85.0 176.25 L 85.0 178.75 L 87.5 195.0 L 92.5 222.5 L 96.25 245.0 L 98.75 252.5 L 101.25 250.0 L 101.25 241.25 L 101.25 232.5 L 101.25 227.5 " stroke="black" fill="none" stroke-width="6.0" stroke-linecap="round" stroke-linejoin="round" />
<path d="M 97.5 208.75 L 97.5 208.75 L 93.75 205.0 L 93.75 202.5 L 98.75 200.0 L 115.0 193.75 L 140.0 183.75 L 168.75 168.75 L 196.25 158.75 L 210.0 158.75 L 216.25 166.25 L 217.5 186.25 L 212.5 207.5 L 203.75 230.0 L 193.75 248.75 L 187.5 250.0 L 181.25 246.25 L 177.5 235.0 L 173.75 221.25 L 168.75 205.0 L 167.5 201.25 " stroke="black" fill="none" stroke-width="6.0" stroke-linecap="round" stroke-linejoin="round" />
<path d="M 146.25 122.5 L 146.25 121.25 L 146.25 120.0 L 146.25 120.0 L 146.25 121.25 L 147.5 136.25 L 148.75 163.75 L 148.75 193.75 L 146.25 211.25 L 142.5 216.25 L 137.5 217.5 L 136.25 217.5 L 136.25 217.5 L 137.5 217.5 L 143.75 212.5 L 151.25 206.25 L 160.0 200.0 L 168.75 192.5 L 175.0 187.5 L 177.5 185.0 L 178.75 182.5 L 177.5 180.0 L 176.25 177.5 L 176.25 175.0 L 175.0 173.75 L 175.0 172.5 L 173.75 172.5 L 173.75 172.5 L 173.75 172.5 L 172.5 172.5 L 172.5 172.5 L 172.5 175.0 L 172.5 178.75 L 175.0 183.75 L 180.0 193.75 L 187.5 207.5 L 191.25 222.5 " stroke="black" fill="none" stroke-width="6.0" stroke-linecap="round" stroke-linejoin="round" />
</svg>