<svg xmlns="http://www.w3.org/2000/svg" width="300" height="300" viewBox="0 0 300 300">
<path d="M 86.25 77.5 L 83.75 80.0 L 85.0 81.25 L 103.75 82.5 L 138.75 78.75 L 176.25 71.25 L 200.0 63.75 L 202.5 61.25 L 197.5 61.25 L 186.25 65.0 " stroke="black" fill="none" stroke-width="6.0" stroke-linecap="round" stroke-linejoin="round" />
<path d="M 111.25 77.5 L 110.0 77.5 L 108.75 80.0 L 108.75 86.25 L 111.25 100.0 L 113.75 110.0 " stroke="black" fill="none" stroke-width="6.0" stroke-linecap="round" stroke-linejoin="round" />
<path d="M 147.5 67.5 L 147.5 67.5 L 147.5 66.25 L 147.5 73.75 L 140.0 93.75 L 131.25 115.0 " stroke="black" fill="none" stroke-width="6.0" stroke-linecap="round" stroke-linejoin="round" />
<path d="M 87.5 127.5 L 86.25 127.5 L 85.0 128.75 L 87.5 128.75 L 98.75 128.75 L 116.25 127.5 L 131.25 125.0 L 133.75 125.0 L 128.75 126.25 " stroke="black" fill="none" stroke-width="6.0" stroke-linecap="round" stroke-linejoin="round" />
<path d="M 75.0 156.25 L 72.5 158.75 L 71.25 160.0 L 75.0 160.0 L 92.5 152.5 L 113.75 141.25 L 132.5 128.75 L 137.5 123.75 L 131.25 126.25 L 118.75 132.5 L 106.25 140.0 L 98.75 147.5 L 93.75 162.5 L 93.75 182.5 L 95.0 195.0 L 96.25 193.75 " stroke="black" fill="none" stroke-width="6.0" stroke-linecap="round" stroke-linejoin="round" />
<path d="M 113.75 138.75 L 113.75 137.5 L 113.75 137.5 L 113.75 140.0 L 115.0 152.5 L 112.5 166.25 L 105.0 177.5 L 95.0 185.0 L 87.5 188.75 L 86.25 188.75 L 91.25 186.25 L 106.25 178.75 L 125.0 166.25 L 138.75 156.25 L 143.75 152.5 L 135.0 157.5 L 131.25 160.0 " stroke="black" fill="none" stroke-width="6.0" stroke-linecap="round" stroke-linejoin="round" />
<path d="M 90.0 223.75 L 88.75 225.0 L 88.75 225.0 L 95.0 220.0 L 112.5 205.0 L 132.5 190.0 L 136.25 183.75 L 131.25 185.0 L 120.0 190.0 L 111.25 193.75 L 106.25 197.5 L 106.25 203.75 L 113.75 215.0 L 122.5 230.0 L 126.25 242.5 L 123.75 251.25 L 115.0 256.25 L 102.5 257.5 L 93.75 257.5 L 92.5 252.5 L 102.5 232.5 L 123.75 201.25 L 150.0 160.0 L 170.0 126.25 L 175.0 113.75 L 173.75 111.25 L 168.75 112.5 L 166.25 116.25 L 166.25 120.0 L 172.5 123.75 L 183.75 127.5 L 193.75 130.0 L 200.0 132.5 L 196.25 137.5 L 192.5 141.25 " stroke="black" fill="none" stroke-width="6.0" stroke-linecap="round" stroke-linejoin="round" />
<path d="M 153.75 155.0 L 153.75 158.75 L 153.75 166.25 L 157.5 183.75 L 161.25 198.75 L 162.5 203.75 L 162.5 203.75 L 161.25 200.0 L 162.5 191.25 L 172.5 178.75 L 188.75 160.0 L 206.25 142.5 L 217.5 130.0 L 220.0 126.25 L 218.75 127.5 L 210.0 135.0 L 202.5 140.0 L 196.25 146.25 L 192.5 153.75 L 192.5 168.75 L 196.25 196.25 L 200.0 226.25 L 200.0 251.25 L 200.0 261.25 L 196.25 262.5 L 186.25 263.75 L 167.5 265.0 " stroke="black" fill="none" stroke-width="6.0" stroke-linecap="round" stroke-linejoin="round" />
</svg>