<svg xmlns="http://www.w3.org/2000/svg" width="300" height="300" viewBox="0 0 300 300">
<path d="M 83.75 86.25 L 81.25 86.25 L 75.0 86.25 L 73.75 86.25 L 86.25 85.0 L 111.25 78.75 L 143.75 67.5 L 168.75 52.5 L 177.5 47.5 L 171.25 47.5 L 156.25 50.0 " stroke="black" fill="none" stroke-width="6.0" stroke-linecap="round" stroke-linejoin="round" />
<path d="M 105.0 70.0 L 105.0 70.0 L 102.5 71.25 L 102.5 75.0 L 106.25 83.75 L 111.25 95.0 L 113.75 102.5 L 113.75 102.5 " stroke="black" fill="none" stroke-width="6.0" stroke-linecap="round" stroke-linejoin="round" />
<path d="M 137.5 57.5 L 137.5 55.0 L 138.75 55.0 L 138.75 68.75 L 136.25 92.5 L 132.5 103.75 " stroke="black" fill="none" stroke-width="6.0" stroke-linecap="round" stroke-linejoin="round" />
<path d="M 71.25 140.0 L 65.0 140.0 L 62.5 141.25 L 71.25 141.25 L 87.5 140.0 L 101.25 135.0 L 110.0 132.5 L 110.0 131.25 " stroke="black" fill="none" stroke-width="6.0" stroke-linecap="round" stroke-linejoin="round" />
<path d="M 73.75 176.25 L 72.5 178.75 L 68.75 183.75 L 71.25 185.0 L 85.0 178.75 L 97.5 170.0 L 107.5 161.25 L 107.5 158.75 " stroke="black" fill="none" stroke-width="6.0" stroke-linecap="round" stroke-linejoin="round" />
<path d="M 78.75 230.0 L 76.25 231.25 L 73.75 233.75 L 80.0 228.75 L 93.75 215.0 L 108.75 196.25 L 115.0 187.5 " stroke="black" fill="none" stroke-width="6.0" stroke-linecap="round" stroke-linejoin="round" />
<path d="M 125.0 113.75 L 121.25 112.5 L 120.0 111.25 L 118.75 115.0 L 123.75 131.25 L 130.0 147.5 L 135.0 157.5 L 137.5 158.75 L 137.5 153.75 L 137.5 146.25 " stroke="black" fill="none" stroke-width="6.0" stroke-linecap="round" stroke-linejoin="round" />
<path d="M 131.25 118.75 L 130.0 118.75 L 126.25 117.5 L 126.25 116.25 L 136.25 112.5 L 150.0 108.75 L 167.5 103.75 L 180.0 102.5 L 182.5 103.75 L 176.25 111.25 L 163.75 121.25 L 150.0 132.5 L 133.75 141.25 L 122.5 147.5 L 120.0 147.5 L 126.25 146.25 L 138.75 141.25 L 152.5 135.0 L 167.5 128.75 L 176.25 125.0 L 177.5 123.75 L 167.5 132.5 L 155.0 143.75 L 142.5 153.75 L 136.25 158.75 L 137.5 158.75 L 146.25 152.5 L 160.0 143.75 L 166.25 140.0 " stroke="black" fill="none" stroke-width="6.0" stroke-linecap="round" stroke-linejoin="round" />
<path d="M 110.0 176.25 L 107.5 177.5 L 102.5 181.25 L 106.25 181.25 L 122.5 180.0 L 146.25 170.0 L 170.0 156.25 L 191.25 142.5 L 197.5 136.25 L 193.75 136.25 L 183.75 140.0 L 171.25 146.25 L 158.75 152.5 L 147.5 163.75 L 137.5 186.25 L 125.0 213.75 L 117.5 233.75 L 116.25 240.0 L 118.75 237.5 L 120.0 235.0 " stroke="black" fill="none" stroke-width="6.0" stroke-linecap="round" stroke-linejoin="round" />
<path d="M 141.25 192.5 L 138.75 192.5 L 137.5 193.75 L 138.75 193.75 L 151.25 191.25 L 170.0 185.0 L 193.75 176.25 L 207.5 173.75 L 210.0 177.5 L 207.5 191.25 L 197.5 207.5 L 188.75 222.5 L 180.0 233.75 L 172.5 237.5 L 171.25 237.5 " stroke="black" fill="none" stroke-width="6.0" stroke-linecap="round" stroke-linejoin="round" />
<path d="M 151.25 191.25 L 150.0 191.25 L 146.25 192.5 L 145.0 200.0 L 143.75 213.75 L 143.75 228.75 L 143.75 235.0 L 146.25 232.5 " stroke="black" fill="none" stroke-width="6.0" stroke-linecap="round" stroke-linejoin="round" />
<path d="M 170.0 191.25 L 170.0 191.25 L 170.0 190.0 L 168.75 195.0 L 166.25 216.25 L 161.25 243.75 L 158.75 253.75 " stroke="black" fill="none" stroke-width="6.0" stroke-linecap="round" stroke-linejoin="round" />
</svg>