<svg xmlns="http://www.w3.org/2000/svg" width="300" height="300" viewBox="0 0 300 300">
<path d="M 85.0 75.0 L 83.75 75.0 L 82.5 76.25 L 90.0 77.5 L 115.0 76.25 L 155.0 67.5 L 188.75 56.25 L 201.25 51.25 L 202.5 50.0 L 196.25 50.0 L 185.0 50.0 " stroke="black" fill="none" stroke-width="6.0" stroke-linecap="round" stroke-linejoin="round" />
<path d="M 121.25 55.0 L 118.75 57.5 L 117.5 66.25 L 118.75 80.0 L 123.75 91.25 L 127.5 92.5 " stroke="black" fill="none" stroke-width="6.0" stroke-linecap="round" stroke-linejoin="round" />
<path d="M 155.0 45.0 L 155.0 46.25 L 152.5 56.25 L 146.25 82.5 L 138.75 102.5 " stroke="black" fill="none" stroke-width="6.0" stroke-linecap="round" stroke-linejoin="round" />
<path d="M 68.75 143.75 L 67.5 143.75 L 65.0 145.0 L 66.25 146.25 L 76.25 146.25 L 87.5 142.5 L 97.5 137.5 L 100.0 136.25 " stroke="black" fill="none" stroke-width="6.0" stroke-linecap="round" stroke-linejoin="round" />
<path d="M 76.25 168.75 L 73.75 171.25 L 72.5 171.25 L 80.0 170.0 L 90.0 163.75 L 98.75 158.75 L 100.0 157.5 " stroke="black" fill="none" stroke-width="6.0" stroke-linecap="round" stroke-linejoin="round" />
<path d="M 77.5 232.5 L 77.5 233.75 L 75.0 236.25 L 78.75 232.5 L 93.75 215.0 L 115.0 190.0 L 118.75 183.75 " stroke="black" fill="none" stroke-width="6.0" stroke-linecap="round" stroke-linejoin="round" />
<path d="M 127.5 116.25 L 120.0 118.75 L 118.75 120.0 L 125.0 118.75 L 141.25 113.75 L 157.5 106.25 L 170.0 100.0 L 172.5 97.5 L 161.25 100.0 L 148.75 107.5 L 137.5 117.5 L 128.75 128.75 L 125.0 141.25 L 127.5 158.75 L 133.75 178.75 L 140.0 188.75 L 143.75 188.75 L 143.75 183.75 L 143.75 181.25 " stroke="black" fill="none" stroke-width="6.0" stroke-linecap="round" stroke-linejoin="round" />
<path d="M 130.0 140.0 L 130.0 140.0 L 130.0 140.0 L 135.0 138.75 L 151.25 135.0 L 177.5 131.25 L 196.25 133.75 L 200.0 145.0 L 191.25 161.25 L 177.5 176.25 L 165.0 183.75 L 153.75 185.0 " stroke="black" fill="none" stroke-width="6.0" stroke-linecap="round" stroke-linejoin="round" />
<path d="M 142.5 156.25 L 141.25 156.25 L 140.0 156.25 L 142.5 156.25 L 155.0 151.25 L 172.5 143.75 L 181.25 140.0 L 181.25 140.0 " stroke="black" fill="none" stroke-width="6.0" stroke-linecap="round" stroke-linejoin="round" />
<path d="M 141.25 180.0 L 140.0 182.5 L 142.5 181.25 L 157.5 171.25 L 177.5 155.0 L 192.5 137.5 L 190.0 131.25 L 187.5 131.25 " stroke="black" fill="none" stroke-width="6.0" stroke-linecap="round" stroke-linejoin="round" />
<path d="M 158.75 105.0 L 158.75 105.0 L 157.5 105.0 L 156.25 111.25 L 158.75 142.5 L 160.0 177.5 L 161.25 196.25 L 160.0 196.25 " stroke="black" fill="none" stroke-width="6.0" stroke-linecap="round" stroke-linejoin="round" />
<path d="M 195.0 91.25 L 195.0 91.25 L 195.0 91.25 L 195.0 93.75 L 197.5 111.25 L 197.5 141.25 L 196.25 152.5 " stroke="black" fill="none" stroke-width="6.0" stroke-linecap="round" stroke-linejoin="round" />
<path d="M 120.0 221.25 L 117.5 225.0 L 115.0 227.5 L 127.5 227.5 L 152.5 216.25 L 186.25 198.75 L 212.5 180.0 L 223.75 163.75 L 223.75 158.75 L 217.5 157.5 L 208.75 160.0 L 202.5 162.5 L 200.0 163.75 L 200.0 167.5 L 200.0 170.0 L 201.25 177.5 L 202.5 191.25 L 205.0 213.75 L 207.5 240.0 L 207.5 256.25 L 207.5 258.75 L 203.75 257.5 L 196.25 256.25 L 183.75 255.0 L 166.25 252.5 " stroke="black" fill="none" stroke-width="6.0" stroke-linecap="round" stroke-linejoin="round" />
<path d="M 152.5 210.0 L 152.5 210.0 L 152.5 210.0 L 157.5 212.5 L 171.25 223.75 L 177.5 231.25 " stroke="black" fill="none" stroke-width="6.0" stroke-linecap="round" stroke-linejoin="round" />
</svg>