<svg xmlns="http://www.w3.org/2000/svg" width="300" height="300" viewBox="0 0 300 300">
<path d="M 82.5 85.0 L 82.5 85.0 L 81.25 85.0 L 88.75 85.0 L 115.0 80.0 L 153.75 72.5 L 182.5 62.5 L 196.25 56.25 L 200.0 52.5 L 196.25 51.25 L 187.5 51.25 " stroke="black" fill="none" stroke-width="6.0" stroke-linecap="round" stroke-linejoin="round" />
<path d="M 120.0 63.75 L 120.0 63.75 L 120.0 63.75 L 120.0 65.0 L 120.0 71.25 L 121.25 82.5 L 121.25 93.75 " stroke="black" fill="none" stroke-width="6.0" stroke-linecap="round" stroke-linejoin="round" />
<path d="M 151.25 55.0 L 151.25 55.0 L 151.25 57.5 L 150.0 66.25 L 146.25 81.25 L 141.25 95.0 " stroke="black" fill="none" stroke-width="6.0" stroke-linecap="round" stroke-linejoin="round" />
<path d="M 100.0 118.75 L 100.0 118.75 L 98.75 118.75 L 100.0 118.75 L 110.0 117.5 L 122.5 115.0 L 132.5 115.0 L 136.25 116.25 L 130.0 122.5 L 118.75 132.5 L 106.25 140.0 L 97.5 145.0 L 96.25 146.25 L 98.75 145.0 L 108.75 140.0 L 121.25 135.0 L 135.0 130.0 L 145.0 126.25 L 147.5 126.25 L 143.75 133.75 L 133.75 146.25 L 123.75 157.5 L 112.5 165.0 L 103.75 166.25 L 102.5 166.25 " stroke="black" fill="none" stroke-width="6.0" stroke-linecap="round" stroke-linejoin="round" />
<path d="M 96.25 123.75 L 96.25 123.75 L 95.0 123.75 L 95.0 133.75 L 97.5 152.5 L 100.0 175.0 L 101.25 190.0 L 102.5 192.5 L 102.5 192.5 L 106.25 190.0 L 111.25 186.25 L 120.0 182.5 L 130.0 177.5 L 141.25 173.75 L 151.25 171.25 L 157.5 170.0 " stroke="black" fill="none" stroke-width="6.0" stroke-linecap="round" stroke-linejoin="round" />
<path d="M 163.75 101.25 L 163.75 102.5 L 163.75 103.75 L 162.5 111.25 L 162.5 125.0 L 165.0 136.25 L 168.75 140.0 L 180.0 136.25 L 191.25 125.0 L 201.25 113.75 L 205.0 106.25 L 205.0 103.75 L 198.75 103.75 " stroke="black" fill="none" stroke-width="6.0" stroke-linecap="round" stroke-linejoin="round" />
<path d="M 173.75 132.5 L 173.75 132.5 L 173.75 133.75 L 173.75 136.25 L 181.25 143.75 L 191.25 151.25 L 200.0 157.5 L 202.5 160.0 " stroke="black" fill="none" stroke-width="6.0" stroke-linecap="round" stroke-linejoin="round" />
<path d="M 108.75 212.5 L 107.5 212.5 L 106.25 215.0 L 107.5 221.25 L 116.25 236.25 L 126.25 248.75 L 132.5 252.5 L 133.75 253.75 L 127.5 248.75 L 122.5 242.5 L 117.5 235.0 L 112.5 226.25 L 107.5 218.75 L 103.75 212.5 L 102.5 208.75 L 112.5 206.25 L 133.75 202.5 L 158.75 197.5 L 187.5 195.0 L 206.25 193.75 L 211.25 196.25 L 208.75 202.5 L 200.0 212.5 L 188.75 222.5 L 173.75 232.5 L 157.5 237.5 " stroke="black" fill="none" stroke-width="6.0" stroke-linecap="round" stroke-linejoin="round" />
<path d="M 145.0 206.25 L 143.75 206.25 L 143.75 207.5 L 143.75 218.75 L 143.75 236.25 L 143.75 247.5 " stroke="black" fill="none" stroke-width="6.0" stroke-linecap="round" stroke-linejoin="round" />
<path d="M 167.5 200.0 L 167.5 202.5 L 168.75 207.5 L 167.5 218.75 L 162.5 233.75 L 153.75 247.5 L 142.5 252.5 L 140.0 253.75 " stroke="black" fill="none" stroke-width="6.0" stroke-linecap="round" stroke-linejoin="round" />
<path d="M 102.5 258.75 L 101.25 258.75 L 100.0 258.75 L 98.75 258.75 L 98.75 258.75 L 102.5 258.75 L 110.0 258.75 L 120.0 258.75 L 130.0 257.5 L 142.5 256.25 L 157.5 252.5 L 177.5 248.75 L 198.75 245.0 L 216.25 241.25 L 228.75 238.75 L 240.0 237.5 L 246.25 237.5 L 248.75 237.5 L 248.75 237.5 L 248.75 237.5 L 247.5 237.5 " stroke="black" fill="none" stroke-width="6.0" stroke-linecap="round" stroke-linejoin="round" />
</svg>