<svg xmlns="http://www.w3.org/2000/svg" width="300" height="300" viewBox="0 0 300 300">
<path d="M 95.0 80.0 L 93.75 81.25 L 91.25 83.75 L 98.75 85.0 L 123.75 81.25 L 160.0 67.5 L 193.75 51.25 L 208.75 42.5 L 208.75 41.25 L 202.5 40.0 " stroke="black" fill="none" stroke-width="6.0" stroke-linecap="round" stroke-linejoin="round" />
<path d="M 130.0 58.75 L 126.25 61.25 L 125.0 63.75 L 126.25 72.5 L 130.0 90.0 L 132.5 103.75 L 132.5 106.25 " stroke="black" fill="none" stroke-width="6.0" stroke-linecap="round" stroke-linejoin="round" />
<path d="M 160.0 53.75 L 161.25 53.75 L 163.75 53.75 L 165.0 65.0 L 158.75 91.25 L 153.75 103.75 " stroke="black" fill="none" stroke-width="6.0" stroke-linecap="round" stroke-linejoin="round" />
<path d="M 87.5 130.0 L 86.25 128.75 L 86.25 126.25 L 92.5 125.0 L 106.25 125.0 L 121.25 125.0 L 127.5 125.0 L 123.75 128.75 L 118.75 130.0 " stroke="black" fill="none" stroke-width="6.0" stroke-linecap="round" stroke-linejoin="round" />
<path d="M 83.75 152.5 L 80.0 156.25 L 78.75 157.5 L 87.5 157.5 L 98.75 153.75 L 112.5 146.25 L 121.25 140.0 L 122.5 137.5 L 113.75 138.75 L 103.75 142.5 L 101.25 143.75 " stroke="black" fill="none" stroke-width="6.0" stroke-linecap="round" stroke-linejoin="round" />
<path d="M 85.0 172.5 L 85.0 173.75 L 82.5 177.5 L 83.75 178.75 L 91.25 176.25 L 103.75 167.5 L 115.0 158.75 L 121.25 153.75 L 117.5 152.5 L 113.75 155.0 " stroke="black" fill="none" stroke-width="6.0" stroke-linecap="round" stroke-linejoin="round" />
<path d="M 82.5 201.25 L 81.25 203.75 L 81.25 206.25 L 87.5 205.0 L 98.75 198.75 L 110.0 188.75 L 117.5 181.25 L 115.0 180.0 L 111.25 181.25 " stroke="black" fill="none" stroke-width="6.0" stroke-linecap="round" stroke-linejoin="round" />
<path d="M 80.0 203.75 L 77.5 207.5 L 78.75 213.75 L 87.5 227.5 L 98.75 243.75 L 108.75 252.5 L 111.25 253.75 L 111.25 253.75 L 111.25 252.5 L 110.0 252.5 L 107.5 251.25 L 106.25 251.25 L 105.0 250.0 L 102.5 250.0 L 101.25 248.75 L 100.0 248.75 L 98.75 248.75 L 97.5 247.5 L 96.25 247.5 L 96.25 246.25 L 95.0 246.25 L 95.0 245.0 L 95.0 243.75 L 95.0 241.25 L 97.5 237.5 L 106.25 230.0 L 118.75 218.75 L 132.5 208.75 L 140.0 207.5 L 140.0 211.25 L 133.75 223.75 L 125.0 238.75 L 116.25 250.0 L 112.5 255.0 L 112.5 253.75 L 122.5 246.25 L 135.0 232.5 L 146.25 216.25 L 148.75 211.25 " stroke="black" fill="none" stroke-width="6.0" stroke-linecap="round" stroke-linejoin="round" />
<path d="M 156.25 123.75 L 153.75 122.5 L 151.25 121.25 L 151.25 121.25 L 153.75 128.75 L 158.75 142.5 L 163.75 155.0 L 166.25 163.75 L 166.25 165.0 L 165.0 160.0 " stroke="black" fill="none" stroke-width="6.0" stroke-linecap="round" stroke-linejoin="round" />
<path d="M 160.0 128.75 L 157.5 125.0 L 156.25 121.25 L 156.25 118.75 L 166.25 113.75 L 181.25 106.25 L 200.0 102.5 L 212.5 102.5 L 216.25 108.75 L 212.5 123.75 L 202.5 140.0 L 191.25 151.25 L 180.0 157.5 L 171.25 157.5 L 170.0 157.5 " stroke="black" fill="none" stroke-width="6.0" stroke-linecap="round" stroke-linejoin="round" />
<path d="M 166.25 145.0 L 166.25 143.75 L 166.25 141.25 L 166.25 140.0 L 172.5 136.25 L 186.25 128.75 L 200.0 121.25 L 207.5 116.25 L 205.0 117.5 L 202.5 120.0 " stroke="black" fill="none" stroke-width="6.0" stroke-linecap="round" stroke-linejoin="round" />
<path d="M 161.25 165.0 L 161.25 166.25 L 161.25 168.75 L 168.75 167.5 L 182.5 158.75 L 196.25 147.5 L 202.5 140.0 L 202.5 137.5 " stroke="black" fill="none" stroke-width="6.0" stroke-linecap="round" stroke-linejoin="round" />
<path d="M 173.75 162.5 L 173.75 163.75 L 168.75 171.25 L 163.75 183.75 L 157.5 203.75 L 152.5 218.75 L 151.25 220.0 L 151.25 217.5 " stroke="black" fill="none" stroke-width="6.0" stroke-linecap="round" stroke-linejoin="round" />
<path d="M 170.0 186.25 L 170.0 185.0 L 170.0 185.0 L 172.5 182.5 L 183.75 178.75 L 202.5 168.75 L 218.75 160.0 L 226.25 155.0 L 228.75 155.0 L 228.75 156.25 L 228.75 166.25 L 228.75 185.0 L 230.0 208.75 L 230.0 231.25 L 228.75 243.75 L 228.75 248.75 L 227.5 248.75 L 227.5 247.5 L 227.5 247.5 L 226.25 246.25 L 223.75 246.25 L 221.25 246.25 L 216.25 245.0 L 213.75 245.0 " stroke="black" fill="none" stroke-width="6.0" stroke-linecap="round" stroke-linejoin="round" />
<path d="M 196.25 183.75 L 195.0 183.75 L 191.25 185.0 L 187.5 192.5 L 182.5 211.25 L 176.25 228.75 L 172.5 236.25 L 171.25 236.25 " stroke="black" fill="none" stroke-width="6.0" stroke-linecap="round" stroke-linejoin="round" />
<path d="M 186.25 200.0 L 186.25 200.0 L 186.25 198.75 L 188.75 197.5 L 197.5 197.5 L 210.0 197.5 L 215.0 198.75 L 212.5 201.25 L 210.0 202.5 " stroke="black" fill="none" stroke-width="6.0" stroke-linecap="round" stroke-linejoin="round" />
<path d="M 166.25 201.25 L 165.0 201.25 L 163.75 203.75 L 162.5 215.0 L 163.75 232.5 L 167.5 243.75 L 176.25 246.25 L 188.75 246.25 L 201.25 241.25 L 211.25 236.25 L 218.75 231.25 L 223.75 228.75 L 223.75 227.5 L 223.75 227.5 L 220.0 227.5 " stroke="black" fill="none" stroke-width="6.0" stroke-linecap="round" stroke-linejoin="round" />
</svg>