<svg xmlns="http://www.w3.org/2000/svg" width="300" height="300" viewBox="0 0 300 300">
<path d="M 92.5 80.0 L 86.25 83.75 L 83.75 85.0 L 93.75 85.0 L 120.0 80.0 L 153.75 70.0 L 183.75 58.75 L 196.25 52.5 L 193.75 51.25 L 186.25 51.25 " stroke="black" fill="none" stroke-width="6.0" stroke-linecap="round" stroke-linejoin="round" />
<path d="M 123.75 52.5 L 123.75 53.75 L 123.75 57.5 L 126.25 71.25 L 128.75 88.75 L 131.25 96.25 " stroke="black" fill="none" stroke-width="6.0" stroke-linecap="round" stroke-linejoin="round" />
<path d="M 156.25 46.25 L 156.25 50.0 L 153.75 60.0 L 147.5 81.25 L 137.5 100.0 L 135.0 102.5 " stroke="black" fill="none" stroke-width="6.0" stroke-linecap="round" stroke-linejoin="round" />
<path d="M 103.75 110.0 L 102.5 111.25 L 100.0 113.75 L 98.75 115.0 L 102.5 115.0 L 117.5 111.25 L 140.0 105.0 L 163.75 98.75 L 180.0 96.25 L 185.0 100.0 L 181.25 110.0 L 168.75 123.75 L 155.0 135.0 L 138.75 142.5 " stroke="black" fill="none" stroke-width="6.0" stroke-linecap="round" stroke-linejoin="round" />
<path d="M 88.75 143.75 L 81.25 146.25 L 80.0 146.25 L 90.0 143.75 L 115.0 132.5 L 150.0 116.25 L 186.25 101.25 L 202.5 96.25 L 201.25 97.5 L 188.75 102.5 L 185.0 103.75 " stroke="black" fill="none" stroke-width="6.0" stroke-linecap="round" stroke-linejoin="round" />
<path d="M 98.75 156.25 L 96.25 158.75 L 92.5 161.25 L 100.0 160.0 L 123.75 148.75 L 151.25 133.75 L 172.5 118.75 L 173.75 116.25 " stroke="black" fill="none" stroke-width="6.0" stroke-linecap="round" stroke-linejoin="round" />
<path d="M 73.75 190.0 L 72.5 190.0 L 72.5 190.0 L 72.5 190.0 L 72.5 200.0 L 73.75 227.5 L 68.75 256.25 L 60.0 268.75 L 56.25 268.75 " stroke="black" fill="none" stroke-width="6.0" stroke-linecap="round" stroke-linejoin="round" />
<path d="M 190.0 143.75 L 190.0 142.5 L 190.0 140.0 L 190.0 138.75 L 190.0 141.25 L 193.75 162.5 L 201.25 205.0 L 207.5 246.25 L 210.0 262.5 L 210.0 267.5 L 206.25 267.5 L 198.75 265.0 L 197.5 262.5 " stroke="black" fill="none" stroke-width="6.0" stroke-linecap="round" stroke-linejoin="round" />
<path d="M 101.25 191.25 L 101.25 190.0 L 101.25 188.75 L 100.0 188.75 L 100.0 188.75 L 102.5 192.5 L 103.75 198.75 L 103.75 205.0 L 97.5 211.25 L 90.0 216.25 L 81.25 221.25 L 77.5 222.5 L 76.25 223.75 L 82.5 222.5 L 93.75 216.25 L 106.25 208.75 L 116.25 202.5 L 116.25 201.25 " stroke="black" fill="none" stroke-width="6.0" stroke-linecap="round" stroke-linejoin="round" />
<path d="M 86.25 252.5 L 85.0 252.5 L 85.0 252.5 L 88.75 250.0 L 98.75 241.25 L 108.75 232.5 L 112.5 228.75 L 113.75 231.25 L 111.25 243.75 L 112.5 257.5 L 118.75 268.75 L 128.75 272.5 L 131.25 268.75 " stroke="black" fill="none" stroke-width="6.0" stroke-linecap="round" stroke-linejoin="round" />
<path d="M 158.75 172.5 L 156.25 172.5 L 152.5 172.5 L 151.25 172.5 L 151.25 172.5 L 155.0 178.75 L 160.0 191.25 L 161.25 200.0 L 162.5 205.0 L 162.5 205.0 L 165.0 201.25 L 171.25 191.25 L 180.0 178.75 L 187.5 170.0 L 188.75 167.5 " stroke="black" fill="none" stroke-width="6.0" stroke-linecap="round" stroke-linejoin="round" />
<path d="M 153.75 231.25 L 153.75 232.5 L 152.5 232.5 L 153.75 232.5 L 162.5 226.25 L 172.5 218.75 L 177.5 213.75 L 177.5 211.25 L 172.5 213.75 L 168.75 217.5 L 166.25 226.25 L 166.25 237.5 L 165.0 251.25 L 161.25 261.25 L 156.25 262.5 L 155.0 262.5 " stroke="black" fill="none" stroke-width="6.0" stroke-linecap="round" stroke-linejoin="round" />
<path d="M 108.75 232.5 L 107.5 233.75 L 103.75 236.25 L 103.75 236.25 L 115.0 232.5 L 135.0 218.75 L 153.75 203.75 L 162.5 192.5 " stroke="black" fill="none" stroke-width="6.0" stroke-linecap="round" stroke-linejoin="round" />
<path d="M 120.0 107.5 L 120.0 107.5 L 120.0 106.25 L 118.75 106.25 L 118.75 106.25 L 121.25 116.25 L 128.75 161.25 L 135.0 221.25 L 138.75 262.5 L 140.0 283.75 " stroke="black" fill="none" stroke-width="6.0" stroke-linecap="round" stroke-linejoin="round" />
</svg>