<svg xmlns="http://www.w3.org/2000/svg" width="300" height="300" viewBox="0 0 300 300">
<path d="M 88.75 82.5 L 86.25 83.75 L 83.75 85.0 L 88.75 85.0 L 112.5 80.0 L 148.75 66.25 L 182.5 50.0 L 197.5 42.5 L 196.25 42.5 L 183.75 43.75 L 165.0 48.75 L 156.25 51.25 " stroke="black" fill="none" stroke-width="6.0" stroke-linecap="round" stroke-linejoin="round" />
<path d="M 113.75 61.25 L 113.75 62.5 L 112.5 65.0 L 112.5 73.75 L 116.25 91.25 L 120.0 106.25 L 120.0 107.5 " stroke="black" fill="none" stroke-width="6.0" stroke-linecap="round" stroke-linejoin="round" />
<path d="M 150.0 46.25 L 150.0 46.25 L 150.0 46.25 L 150.0 51.25 L 142.5 71.25 L 136.25 88.75 L 133.75 92.5 " stroke="black" fill="none" stroke-width="6.0" stroke-linecap="round" stroke-linejoin="round" />
<path d="M 105.0 105.0 L 105.0 105.0 L 105.0 105.0 L 105.0 105.0 L 105.0 105.0 L 103.75 111.25 L 103.75 118.75 L 103.75 121.25 L 111.25 118.75 L 125.0 108.75 L 137.5 101.25 L 141.25 100.0 L 135.0 117.5 L 118.75 143.75 L 101.25 172.5 L 85.0 197.5 L 73.75 205.0 L 66.25 203.75 " stroke="black" fill="none" stroke-width="6.0" stroke-linecap="round" stroke-linejoin="round" />
<path d="M 86.25 138.75 L 86.25 138.75 L 87.5 138.75 L 92.5 138.75 L 101.25 142.5 L 115.0 146.25 L 118.75 148.75 L 117.5 150.0 " stroke="black" fill="none" stroke-width="6.0" stroke-linecap="round" stroke-linejoin="round" />
<path d="M 83.75 151.25 L 81.25 151.25 L 78.75 152.5 L 85.0 156.25 L 100.0 157.5 L 110.0 157.5 " stroke="black" fill="none" stroke-width="6.0" stroke-linecap="round" stroke-linejoin="round" />
<path d="M 156.25 96.25 L 157.5 96.25 L 157.5 97.5 L 161.25 102.5 L 181.25 122.5 L 207.5 156.25 L 230.0 182.5 L 250.0 197.5 L 253.75 200.0 L 253.75 200.0 L 245.0 192.5 L 230.0 185.0 " stroke="black" fill="none" stroke-width="6.0" stroke-linecap="round" stroke-linejoin="round" />
<path d="M 162.5 105.0 L 162.5 101.25 L 160.0 97.5 L 163.75 93.75 L 175.0 92.5 L 191.25 93.75 L 203.75 98.75 L 208.75 103.75 L 206.25 111.25 L 195.0 123.75 L 177.5 137.5 L 166.25 142.5 " stroke="black" fill="none" stroke-width="6.0" stroke-linecap="round" stroke-linejoin="round" />
<path d="M 130.0 156.25 L 128.75 156.25 L 126.25 156.25 L 125.0 156.25 L 133.75 155.0 L 148.75 148.75 L 165.0 141.25 L 173.75 135.0 L 171.25 133.75 L 158.75 140.0 L 148.75 148.75 L 138.75 160.0 L 130.0 177.5 L 122.5 191.25 L 121.25 193.75 L 130.0 190.0 L 145.0 177.5 L 162.5 161.25 L 178.75 146.25 L 188.75 137.5 L 187.5 137.5 " stroke="black" fill="none" stroke-width="6.0" stroke-linecap="round" stroke-linejoin="round" />
<path d="M 165.0 158.75 L 165.0 162.5 L 165.0 168.75 L 167.5 188.75 L 171.25 217.5 L 173.75 235.0 L 173.75 241.25 L 171.25 241.25 L 167.5 241.25 L 161.25 240.0 L 153.75 237.5 L 147.5 235.0 " stroke="black" fill="none" stroke-width="6.0" stroke-linecap="round" stroke-linejoin="round" />
<path d="M 113.75 203.75 L 113.75 203.75 L 112.5 205.0 L 111.25 207.5 L 118.75 217.5 L 132.5 231.25 L 148.75 241.25 L 151.25 242.5 " stroke="black" fill="none" stroke-width="6.0" stroke-linecap="round" stroke-linejoin="round" />
<path d="M 201.25 178.75 L 201.25 178.75 L 201.25 178.75 L 202.5 183.75 L 212.5 198.75 L 223.75 216.25 L 230.0 230.0 L 230.0 235.0 " stroke="black" fill="none" stroke-width="6.0" stroke-linecap="round" stroke-linejoin="round" />
</svg>