<svg xmlns="http://www.w3.org/2000/svg" width="300" height="300" viewBox="0 0 300 300">
<path d="M 93.75 73.75 L 90.0 76.25 L 91.25 78.75 L 102.5 78.75 L 127.5 76.25 L 157.5 63.75 L 181.25 48.75 L 188.75 41.25 L 182.5 41.25 L 167.5 43.75 " stroke="black" fill="none" stroke-width="6.0" stroke-linecap="round" stroke-linejoin="round" />
<path d="M 127.5 52.5 L 126.25 53.75 L 122.5 61.25 L 122.5 73.75 L 127.5 90.0 L 132.5 102.5 L 136.25 102.5 " stroke="black" fill="none" stroke-width="6.0" stroke-linecap="round" stroke-linejoin="round" />
<path d="M 165.0 45.0 L 167.5 45.0 L 168.75 45.0 L 167.5 53.75 L 156.25 77.5 L 151.25 90.0 " stroke="black" fill="none" stroke-width="6.0" stroke-linecap="round" stroke-linejoin="round" />
<path d="M 91.25 121.25 L 91.25 120.0 L 91.25 118.75 L 91.25 118.75 L 88.75 130.0 L 83.75 146.25 L 77.5 162.5 L 73.75 166.25 L 73.75 166.25 " stroke="black" fill="none" stroke-width="6.0" stroke-linecap="round" stroke-linejoin="round" />
<path d="M 112.5 132.5 L 112.5 132.5 L 108.75 138.75 L 100.0 153.75 L 88.75 178.75 L 77.5 197.5 L 67.5 203.75 L 63.75 200.0 " stroke="black" fill="none" stroke-width="6.0" stroke-linecap="round" stroke-linejoin="round" />
<path d="M 93.75 176.25 L 96.25 176.25 L 98.75 182.5 L 98.75 203.75 L 95.0 232.5 L 87.5 251.25 L 80.0 255.0 L 75.0 248.75 " stroke="black" fill="none" stroke-width="6.0" stroke-linecap="round" stroke-linejoin="round" />
<path d="M 147.5 100.0 L 146.25 100.0 L 145.0 101.25 L 142.5 110.0 L 142.5 118.75 L 145.0 122.5 L 152.5 118.75 L 163.75 111.25 L 171.25 106.25 L 173.75 105.0 L 168.75 112.5 L 153.75 130.0 L 138.75 146.25 L 125.0 155.0 L 117.5 155.0 L 118.75 151.25 L 122.5 146.25 L 126.25 141.25 L 127.5 140.0 L 127.5 138.75 L 128.75 145.0 L 131.25 163.75 L 133.75 188.75 L 136.25 201.25 L 138.75 202.5 L 138.75 197.5 L 138.75 190.0 " stroke="black" fill="none" stroke-width="6.0" stroke-linecap="round" stroke-linejoin="round" />
<path d="M 131.25 156.25 L 128.75 156.25 L 123.75 156.25 L 123.75 156.25 L 135.0 152.5 L 151.25 147.5 L 168.75 145.0 L 183.75 146.25 L 185.0 158.75 L 172.5 177.5 L 158.75 190.0 L 147.5 196.25 L 142.5 196.25 " stroke="black" fill="none" stroke-width="6.0" stroke-linecap="round" stroke-linejoin="round" />
<path d="M 136.25 182.5 L 135.0 182.5 L 132.5 182.5 L 132.5 182.5 L 141.25 178.75 L 153.75 167.5 L 165.0 155.0 L 170.0 145.0 L 167.5 142.5 L 161.25 143.75 L 156.25 145.0 L 153.75 147.5 L 152.5 151.25 L 151.25 160.0 L 151.25 175.0 L 148.75 192.5 L 146.25 203.75 L 142.5 206.25 L 141.25 205.0 L 145.0 200.0 L 152.5 191.25 L 162.5 183.75 L 172.5 175.0 L 178.75 167.5 L 177.5 166.25 " stroke="black" fill="none" stroke-width="6.0" stroke-linecap="round" stroke-linejoin="round" />
<path d="M 121.25 230.0 L 121.25 231.25 L 120.0 232.5 L 126.25 230.0 L 142.5 220.0 L 161.25 203.75 L 178.75 188.75 L 183.75 181.25 L 178.75 181.25 L 168.75 185.0 L 160.0 188.75 L 153.75 191.25 L 150.0 192.5 L 150.0 195.0 L 151.25 200.0 L 151.25 213.75 L 148.75 233.75 L 142.5 248.75 L 133.75 252.5 L 126.25 250.0 L 126.25 243.75 " stroke="black" fill="none" stroke-width="6.0" stroke-linecap="round" stroke-linejoin="round" />
<path d="M 152.5 206.25 L 153.75 206.25 L 157.5 206.25 L 163.75 213.75 L 171.25 227.5 L 178.75 240.0 L 182.5 242.5 L 185.0 241.25 L 185.0 237.5 " stroke="black" fill="none" stroke-width="6.0" stroke-linecap="round" stroke-linejoin="round" />
<path d="M 205.0 121.25 L 201.25 123.75 L 197.5 127.5 L 197.5 127.5 L 202.5 128.75 L 215.0 126.25 L 228.75 118.75 L 238.75 111.25 L 241.25 107.5 L 235.0 108.75 " stroke="black" fill="none" stroke-width="6.0" stroke-linecap="round" stroke-linejoin="round" />
<path d="M 190.0 175.0 L 186.25 178.75 L 186.25 181.25 L 196.25 178.75 L 211.25 165.0 L 232.5 147.5 L 250.0 132.5 L 252.5 127.5 L 245.0 130.0 L 236.25 136.25 L 228.75 142.5 L 223.75 147.5 L 222.5 153.75 L 222.5 166.25 L 226.25 191.25 L 228.75 221.25 L 230.0 243.75 L 230.0 255.0 L 228.75 258.75 L 227.5 258.75 L 226.25 258.75 L 223.75 257.5 L 220.0 253.75 L 215.0 248.75 L 208.75 242.5 L 203.75 237.5 " stroke="black" fill="none" stroke-width="6.0" stroke-linecap="round" stroke-linejoin="round" />
</svg>