<svg xmlns="http://www.w3.org/2000/svg" width="300" height="300" viewBox="0 0 300 300">
<path d="M 77.5 88.75 L 75.0 88.75 L 72.5 88.75 L 71.25 88.75 L 82.5 88.75 L 110.0 88.75 L 150.0 82.5 L 180.0 75.0 L 195.0 68.75 L 197.5 67.5 L 193.75 67.5 L 182.5 68.75 L 167.5 70.0 " stroke="black" fill="none" stroke-width="6.0" stroke-linecap="round" stroke-linejoin="round" />
<path d="M 136.25 70.0 L 132.5 71.25 L 130.0 72.5 L 130.0 77.5 L 131.25 86.25 L 136.25 95.0 L 138.75 98.75 " stroke="black" fill="none" stroke-width="6.0" stroke-linecap="round" stroke-linejoin="round" />
<path d="M 163.75 66.25 L 163.75 66.25 L 163.75 66.25 L 160.0 75.0 L 151.25 95.0 L 141.25 113.75 L 137.5 117.5 " stroke="black" fill="none" stroke-width="6.0" stroke-linecap="round" stroke-linejoin="round" />
<path d="M 85.0 130.0 L 82.5 132.5 L 81.25 138.75 L 80.0 166.25 L 80.0 211.25 L 82.5 241.25 L 85.0 252.5 L 85.0 257.5 L 83.75 257.5 " stroke="black" fill="none" stroke-width="6.0" stroke-linecap="round" stroke-linejoin="round" />
<path d="M 78.75 153.75 L 78.75 152.5 L 77.5 150.0 L 82.5 146.25 L 93.75 143.75 L 111.25 141.25 L 125.0 142.5 L 127.5 150.0 L 121.25 162.5 L 107.5 175.0 L 96.25 181.25 L 91.25 182.5 " stroke="black" fill="none" stroke-width="6.0" stroke-linecap="round" stroke-linejoin="round" />
<path d="M 87.5 170.0 L 87.5 168.75 L 87.5 168.75 L 91.25 165.0 L 100.0 161.25 L 115.0 156.25 L 123.75 153.75 L 120.0 156.25 L 117.5 157.5 " stroke="black" fill="none" stroke-width="6.0" stroke-linecap="round" stroke-linejoin="round" />
<path d="M 88.75 191.25 L 82.5 195.0 L 81.25 196.25 L 88.75 191.25 L 105.0 178.75 L 126.25 162.5 L 146.25 145.0 " stroke="black" fill="none" stroke-width="6.0" stroke-linecap="round" stroke-linejoin="round" />
<path d="M 166.25 125.0 L 166.25 125.0 L 166.25 126.25 L 166.25 136.25 L 170.0 156.25 L 177.5 168.75 L 187.5 171.25 L 198.75 160.0 L 206.25 146.25 L 210.0 136.25 L 208.75 131.25 L 201.25 132.5 L 187.5 141.25 L 172.5 151.25 L 165.0 157.5 L 163.75 158.75 L 175.0 153.75 L 190.0 142.5 L 201.25 132.5 L 206.25 122.5 " stroke="black" fill="none" stroke-width="6.0" stroke-linecap="round" stroke-linejoin="round" />
<path d="M 163.75 126.25 L 163.75 126.25 L 166.25 125.0 L 177.5 121.25 L 197.5 115.0 L 211.25 113.75 L 220.0 130.0 L 223.75 165.0 L 227.5 211.25 L 233.75 258.75 L 237.5 278.75 L 238.75 286.25 L 238.75 287.5 L 235.0 285.0 L 227.5 275.0 L 217.5 260.0 L 205.0 242.5 " stroke="black" fill="none" stroke-width="6.0" stroke-linecap="round" stroke-linejoin="round" />
<path d="M 128.75 192.5 L 122.5 192.5 L 120.0 192.5 L 123.75 191.25 L 140.0 185.0 L 157.5 176.25 L 170.0 168.75 L 172.5 167.5 L 163.75 170.0 " stroke="black" fill="none" stroke-width="6.0" stroke-linecap="round" stroke-linejoin="round" />
<path d="M 118.75 200.0 L 118.75 203.75 L 120.0 215.0 L 128.75 228.75 L 137.5 237.5 L 141.25 240.0 L 141.25 238.75 L 135.0 233.75 L 127.5 227.5 L 118.75 221.25 L 112.5 216.25 L 108.75 211.25 L 115.0 207.5 L 135.0 201.25 L 157.5 195.0 L 181.25 188.75 L 191.25 187.5 L 191.25 192.5 L 180.0 203.75 L 167.5 213.75 L 153.75 220.0 L 151.25 221.25 " stroke="black" fill="none" stroke-width="6.0" stroke-linecap="round" stroke-linejoin="round" />
<path d="M 140.0 207.5 L 138.75 207.5 L 137.5 207.5 L 137.5 208.75 L 137.5 218.75 L 141.25 227.5 L 141.25 228.75 " stroke="black" fill="none" stroke-width="6.0" stroke-linecap="round" stroke-linejoin="round" />
<path d="M 168.75 188.75 L 166.25 190.0 L 160.0 197.5 L 151.25 210.0 L 142.5 226.25 L 132.5 238.75 L 130.0 240.0 L 133.75 236.25 L 146.25 226.25 L 160.0 213.75 L 172.5 203.75 L 180.0 195.0 L 178.75 193.75 L 171.25 193.75 L 168.75 193.75 " stroke="black" fill="none" stroke-width="6.0" stroke-linecap="round" stroke-linejoin="round" />
<path d="M 151.25 163.75 L 151.25 163.75 L 151.25 165.0 L 151.25 176.25 L 153.75 207.5 L 156.25 246.25 L 156.25 263.75 L 156.25 268.75 L 155.0 268.75 L 152.5 262.5 L 151.25 257.5 " stroke="black" fill="none" stroke-width="6.0" stroke-linecap="round" stroke-linejoin="round" />
<path d="M 156.25 221.25 L 155.0 223.75 L 148.75 237.5 L 140.0 251.25 L 132.5 262.5 L 126.25 267.5 L 121.25 266.25 L 121.25 261.25 " stroke="black" fill="none" stroke-width="6.0" stroke-linecap="round" stroke-linejoin="round" />
<path d="M 152.5 216.25 L 152.5 216.25 L 157.5 220.0 L 173.75 235.0 L 196.25 250.0 L 206.25 257.5 L 211.25 261.25 L 212.5 265.0 L 211.25 266.25 " stroke="black" fill="none" stroke-width="6.0" stroke-linecap="round" stroke-linejoin="round" />
</svg>