<svg xmlns="http://www.w3.org/2000/svg" width="300" height="300" viewBox="0 0 300 300">
<path d="M 86.25 77.5 L 85.0 77.5 L 78.75 80.0 L 75.0 82.5 L 73.75 83.75 L 81.25 85.0 L 98.75 81.25 L 127.5 67.5 L 161.25 50.0 L 181.25 40.0 L 192.5 36.25 L 191.25 36.25 L 181.25 40.0 L 167.5 45.0 L 152.5 48.75 L 141.25 51.25 L 130.0 51.25 L 121.25 51.25 L 120.0 51.25 L 120.0 52.5 L 122.5 63.75 L 126.25 85.0 L 128.75 103.75 L 131.25 110.0 L 131.25 103.75 " stroke="black" fill="none" stroke-width="6.0" stroke-linecap="round" stroke-linejoin="round" />
<path d="M 151.25 50.0 L 153.75 47.5 L 156.25 45.0 L 156.25 48.75 L 153.75 66.25 L 146.25 88.75 L 137.5 108.75 L 132.5 116.25 " stroke="black" fill="none" stroke-width="6.0" stroke-linecap="round" stroke-linejoin="round" />
<path d="M 98.75 107.5 L 98.75 103.75 L 98.75 101.25 L 98.75 101.25 L 98.75 108.75 L 98.75 118.75 L 98.75 125.0 L 101.25 127.5 L 110.0 121.25 L 122.5 111.25 L 130.0 106.25 L 131.25 108.75 L 121.25 123.75 L 108.75 138.75 L 97.5 151.25 L 88.75 156.25 L 82.5 157.5 L 81.25 153.75 L 81.25 150.0 L 82.5 145.0 L 83.75 143.75 L 85.0 143.75 L 87.5 153.75 L 93.75 175.0 L 100.0 192.5 L 105.0 200.0 L 106.25 200.0 L 103.75 195.0 L 101.25 188.75 L 98.75 181.25 L 96.25 171.25 L 93.75 161.25 L 91.25 155.0 L 91.25 151.25 L 95.0 148.75 L 107.5 145.0 L 125.0 141.25 L 140.0 140.0 L 145.0 146.25 L 140.0 160.0 L 130.0 177.5 L 118.75 192.5 L 107.5 197.5 L 101.25 197.5 " stroke="black" fill="none" stroke-width="6.0" stroke-linecap="round" stroke-linejoin="round" />
<path d="M 96.25 181.25 L 96.25 180.0 L 96.25 178.75 L 96.25 177.5 L 98.75 175.0 L 110.0 165.0 L 126.25 152.5 L 136.25 143.75 L 136.25 141.25 L 130.0 142.5 L 123.75 143.75 L 120.0 145.0 L 117.5 146.25 L 116.25 152.5 L 112.5 170.0 L 108.75 193.75 L 105.0 206.25 L 105.0 206.25 L 115.0 196.25 L 127.5 182.5 L 137.5 170.0 L 142.5 162.5 L 138.75 163.75 L 130.0 168.75 " stroke="black" fill="none" stroke-width="6.0" stroke-linecap="round" stroke-linejoin="round" />
<path d="M 80.0 193.75 L 77.5 195.0 L 77.5 198.75 L 83.75 210.0 L 91.25 226.25 L 97.5 237.5 L 98.75 242.5 L 97.5 242.5 " stroke="black" fill="none" stroke-width="6.0" stroke-linecap="round" stroke-linejoin="round" />
<path d="M 100.0 205.0 L 101.25 205.0 L 101.25 203.75 L 102.5 203.75 L 105.0 210.0 L 108.75 221.25 L 111.25 228.75 L 112.5 231.25 L 112.5 225.0 L 115.0 215.0 L 118.75 205.0 L 121.25 197.5 L 122.5 196.25 L 125.0 200.0 L 127.5 207.5 L 128.75 216.25 L 130.0 221.25 L 130.0 221.25 " stroke="black" fill="none" stroke-width="6.0" stroke-linecap="round" stroke-linejoin="round" />
<path d="M 138.75 201.25 L 140.0 200.0 L 142.5 197.5 L 143.75 196.25 L 146.25 201.25 L 148.75 208.75 L 151.25 220.0 L 151.25 227.5 " stroke="black" fill="none" stroke-width="6.0" stroke-linecap="round" stroke-linejoin="round" />
<path d="M 186.25 97.5 L 183.75 98.75 L 180.0 100.0 L 180.0 100.0 L 183.75 100.0 L 195.0 98.75 L 203.75 96.25 L 211.25 96.25 L 212.5 97.5 L 211.25 100.0 " stroke="black" fill="none" stroke-width="6.0" stroke-linecap="round" stroke-linejoin="round" />
<path d="M 151.25 180.0 L 150.0 182.5 L 148.75 185.0 L 157.5 178.75 L 181.25 158.75 L 210.0 132.5 L 225.0 115.0 L 228.75 108.75 L 225.0 107.5 L 213.75 113.75 L 203.75 121.25 L 196.25 126.25 L 193.75 128.75 L 192.5 128.75 L 193.75 127.5 L 195.0 126.25 L 196.25 133.75 L 198.75 163.75 L 201.25 211.25 L 203.75 241.25 L 205.0 257.5 L 206.25 261.25 L 202.5 262.5 L 197.5 260.0 L 191.25 253.75 L 185.0 242.5 L 182.5 221.25 L 182.5 211.25 " stroke="black" fill="none" stroke-width="6.0" stroke-linecap="round" stroke-linejoin="round" />
<path d="M 200.0 165.0 L 200.0 165.0 L 200.0 165.0 L 195.0 175.0 L 183.75 198.75 L 172.5 220.0 L 165.0 230.0 L 160.0 226.25 L 160.0 223.75 " stroke="black" fill="none" stroke-width="6.0" stroke-linecap="round" stroke-linejoin="round" />
<path d="M 188.75 171.25 L 188.75 170.0 L 191.25 168.75 L 198.75 172.5 L 213.75 185.0 L 233.75 196.25 L 250.0 202.5 L 257.5 203.75 L 258.75 205.0 L 256.25 207.5 L 253.75 207.5 " stroke="black" fill="none" stroke-width="6.0" stroke-linecap="round" stroke-linejoin="round" />
</svg>