<svg xmlns="http://www.w3.org/2000/svg" width="300" height="300" viewBox="0 0 300 300">
<path d="M 100.0 73.75 L 98.75 72.5 L 97.5 71.25 L 97.5 71.25 L 97.5 71.25 L 100.0 76.25 L 102.5 85.0 L 103.75 92.5 L 105.0 100.0 L 106.25 103.75 L 105.0 103.75 " stroke="black" fill="none" stroke-width="6.0" stroke-linecap="round" stroke-linejoin="round" />
<path d="M 101.25 83.75 L 101.25 83.75 L 100.0 83.75 L 100.0 83.75 L 107.5 83.75 L 120.0 81.25 L 131.25 78.75 L 137.5 77.5 L 137.5 77.5 " stroke="black" fill="none" stroke-width="6.0" stroke-linecap="round" stroke-linejoin="round" />
<path d="M 85.0 108.75 L 85.0 108.75 L 82.5 108.75 L 81.25 110.0 L 81.25 110.0 L 91.25 110.0 L 111.25 106.25 L 135.0 101.25 L 148.75 100.0 L 150.0 98.75 L 147.5 102.5 L 138.75 108.75 L 131.25 116.25 L 121.25 122.5 L 111.25 127.5 " stroke="black" fill="none" stroke-width="6.0" stroke-linecap="round" stroke-linejoin="round" />
<path d="M 90.0 111.25 L 88.75 111.25 L 86.25 111.25 L 85.0 113.75 L 85.0 131.25 L 86.25 166.25 L 87.5 200.0 L 87.5 215.0 L 87.5 218.75 L 87.5 216.25 L 86.25 206.25 L 86.25 203.75 " stroke="black" fill="none" stroke-width="6.0" stroke-linecap="round" stroke-linejoin="round" />
<path d="M 91.25 135.0 L 91.25 135.0 L 91.25 135.0 L 95.0 135.0 L 112.5 128.75 L 133.75 120.0 L 141.25 115.0 L 140.0 113.75 L 128.75 117.5 L 120.0 120.0 L 117.5 120.0 " stroke="black" fill="none" stroke-width="6.0" stroke-linecap="round" stroke-linejoin="round" />
<path d="M 103.75 120.0 L 102.5 121.25 L 101.25 126.25 L 102.5 137.5 L 110.0 147.5 L 125.0 150.0 L 140.0 142.5 L 147.5 133.75 L 148.75 128.75 " stroke="black" fill="none" stroke-width="6.0" stroke-linecap="round" stroke-linejoin="round" />
<path d="M 116.25 153.75 L 116.25 155.0 L 112.5 156.25 L 108.75 162.5 L 101.25 176.25 L 96.25 187.5 L 93.75 191.25 " stroke="black" fill="none" stroke-width="6.0" stroke-linecap="round" stroke-linejoin="round" />
<path d="M 108.75 167.5 L 110.0 168.75 L 110.0 178.75 L 110.0 201.25 L 110.0 225.0 L 110.0 240.0 L 111.25 240.0 L 111.25 231.25 " stroke="black" fill="none" stroke-width="6.0" stroke-linecap="round" stroke-linejoin="round" />
<path d="M 121.25 166.25 L 121.25 165.0 L 121.25 165.0 L 123.75 163.75 L 133.75 161.25 L 143.75 158.75 L 151.25 156.25 L 152.5 156.25 L 150.0 156.25 " stroke="black" fill="none" stroke-width="6.0" stroke-linecap="round" stroke-linejoin="round" />
<path d="M 116.25 185.0 L 115.0 185.0 L 113.75 186.25 L 120.0 186.25 L 132.5 182.5 L 146.25 175.0 L 155.0 167.5 L 155.0 166.25 L 147.5 172.5 " stroke="black" fill="none" stroke-width="6.0" stroke-linecap="round" stroke-linejoin="round" />
<path d="M 118.75 202.5 L 118.75 203.75 L 118.75 203.75 L 122.5 203.75 L 132.5 198.75 L 146.25 190.0 L 153.75 181.25 L 155.0 178.75 L 148.75 178.75 L 143.75 181.25 L 140.0 181.25 L 137.5 181.25 L 136.25 182.5 L 136.25 190.0 L 137.5 203.75 L 137.5 218.75 L 137.5 230.0 L 137.5 232.5 L 133.75 228.75 L 132.5 227.5 " stroke="black" fill="none" stroke-width="6.0" stroke-linecap="round" stroke-linejoin="round" />
<path d="M 118.75 220.0 L 118.75 221.25 L 116.25 222.5 L 113.75 223.75 L 120.0 223.75 L 133.75 217.5 L 146.25 210.0 L 155.0 202.5 L 157.5 200.0 L 152.5 202.5 L 147.5 205.0 " stroke="black" fill="none" stroke-width="6.0" stroke-linecap="round" stroke-linejoin="round" />
<path d="M 123.75 237.5 L 123.75 240.0 L 125.0 241.25 L 135.0 240.0 L 151.25 230.0 L 167.5 216.25 L 172.5 211.25 " stroke="black" fill="none" stroke-width="6.0" stroke-linecap="round" stroke-linejoin="round" />
<path d="M 183.75 107.5 L 182.5 107.5 L 182.5 107.5 L 182.5 107.5 L 193.75 106.25 L 208.75 101.25 L 225.0 95.0 L 235.0 91.25 L 231.25 92.5 L 225.0 95.0 " stroke="black" fill="none" stroke-width="6.0" stroke-linecap="round" stroke-linejoin="round" />
<path d="M 173.75 145.0 L 171.25 146.25 L 171.25 147.5 L 180.0 147.5 L 196.25 142.5 L 217.5 135.0 L 235.0 126.25 L 238.75 122.5 L 233.75 123.75 L 225.0 128.75 L 216.25 133.75 L 210.0 140.0 L 202.5 146.25 L 196.25 156.25 L 190.0 171.25 L 187.5 183.75 L 188.75 186.25 L 195.0 186.25 L 205.0 182.5 L 216.25 177.5 L 232.5 171.25 L 245.0 167.5 L 252.5 166.25 L 255.0 168.75 L 253.75 178.75 L 248.75 195.0 L 243.75 213.75 L 240.0 230.0 L 237.5 241.25 L 235.0 245.0 L 233.75 245.0 L 232.5 245.0 L 228.75 245.0 L 225.0 243.75 L 220.0 241.25 L 212.5 238.75 L 203.75 233.75 L 198.75 230.0 " stroke="black" fill="none" stroke-width="6.0" stroke-linecap="round" stroke-linejoin="round" />
</svg>