<svg xmlns="http://www.w3.org/2000/svg" width="300" height="300" viewBox="0 0 300 300">
<path d="M 147.5 68.75 L 147.5 68.75 L 146.25 68.75 L 146.25 67.5 L 146.25 76.25 L 148.75 90.0 L 152.5 102.5 L 153.75 106.25 " stroke="black" fill="none" stroke-width="6.0" stroke-linecap="round" stroke-linejoin="round" />
<path d="M 146.25 82.5 L 146.25 81.25 L 146.25 81.25 L 146.25 81.25 L 155.0 80.0 L 168.75 80.0 L 196.25 78.75 L 203.75 77.5 L 203.75 77.5 " stroke="black" fill="none" stroke-width="6.0" stroke-linecap="round" stroke-linejoin="round" />
<path d="M 115.0 112.5 L 112.5 113.75 L 111.25 115.0 L 123.75 115.0 L 153.75 108.75 L 193.75 102.5 L 212.5 101.25 L 217.5 102.5 L 210.0 110.0 L 195.0 122.5 L 175.0 130.0 L 158.75 133.75 " stroke="black" fill="none" stroke-width="6.0" stroke-linecap="round" stroke-linejoin="round" />
<path d="M 113.75 113.75 L 113.75 113.75 L 113.75 115.0 L 112.5 126.25 L 112.5 163.75 L 110.0 208.75 L 107.5 240.0 L 105.0 251.25 L 102.5 251.25 " stroke="black" fill="none" stroke-width="6.0" stroke-linecap="round" stroke-linejoin="round" />
<path d="M 132.5 146.25 L 133.75 146.25 L 138.75 146.25 L 157.5 143.75 L 186.25 136.25 L 202.5 128.75 L 203.75 125.0 " stroke="black" fill="none" stroke-width="6.0" stroke-linecap="round" stroke-linejoin="round" />
<path d="M 153.75 122.5 L 151.25 127.5 L 150.0 138.75 L 151.25 157.5 L 160.0 171.25 L 173.75 173.75 L 188.75 163.75 L 200.0 152.5 L 201.25 147.5 " stroke="black" fill="none" stroke-width="6.0" stroke-linecap="round" stroke-linejoin="round" />
<path d="M 138.75 186.25 L 135.0 190.0 L 131.25 200.0 L 130.0 213.75 L 133.75 225.0 L 143.75 228.75 L 160.0 222.5 L 185.0 210.0 L 207.5 197.5 L 218.75 191.25 L 222.5 186.25 L 222.5 185.0 L 221.25 183.75 L 220.0 181.25 L 217.5 178.75 L 216.25 177.5 L 215.0 176.25 L 215.0 175.0 L 215.0 175.0 L 215.0 175.0 L 217.5 177.5 L 225.0 186.25 L 235.0 197.5 L 240.0 206.25 " stroke="black" fill="none" stroke-width="6.0" stroke-linecap="round" stroke-linejoin="round" />
<path d="M 168.75 176.25 L 168.75 176.25 L 168.75 176.25 L 168.75 182.5 L 168.75 207.5 L 170.0 238.75 L 170.0 252.5 L 170.0 252.5 " stroke="black" fill="none" stroke-width="6.0" stroke-linecap="round" stroke-linejoin="round" />
<path d="M 195.0 165.0 L 195.0 165.0 L 195.0 167.5 L 196.25 180.0 L 196.25 207.5 L 193.75 233.75 L 186.25 248.75 L 180.0 250.0 " stroke="black" fill="none" stroke-width="6.0" stroke-linecap="round" stroke-linejoin="round" />
<path d="M 146.25 250.0 L 145.0 250.0 L 142.5 251.25 L 140.0 251.25 L 140.0 251.25 L 141.25 252.5 L 147.5 252.5 L 155.0 252.5 L 166.25 252.5 L 182.5 251.25 L 202.5 246.25 L 220.0 242.5 L 237.5 241.25 L 253.75 242.5 L 260.0 243.75 " stroke="black" fill="none" stroke-width="6.0" stroke-linecap="round" stroke-linejoin="round" />
</svg>