<svg xmlns="http://www.w3.org/2000/svg" width="300" height="300" viewBox="0 0 300 300">
<path d="M 90.0 82.5 L 87.5 80.0 L 86.25 80.0 L 88.75 85.0 L 93.75 98.75 L 98.75 110.0 L 103.75 118.75 L 103.75 118.75 L 103.75 117.5 " stroke="black" fill="none" stroke-width="6.0" stroke-linecap="round" stroke-linejoin="round" />
<path d="M 90.0 85.0 L 88.75 85.0 L 87.5 85.0 L 87.5 85.0 L 98.75 82.5 L 123.75 78.75 L 156.25 75.0 L 181.25 73.75 L 190.0 75.0 L 188.75 80.0 L 177.5 90.0 L 162.5 101.25 L 148.75 108.75 L 137.5 113.75 L 130.0 115.0 L 126.25 110.0 " stroke="black" fill="none" stroke-width="6.0" stroke-linecap="round" stroke-linejoin="round" />
<path d="M 123.75 87.5 L 122.5 87.5 L 120.0 86.25 L 118.75 86.25 L 116.25 88.75 L 116.25 98.75 L 115.0 107.5 L 115.0 110.0 " stroke="black" fill="none" stroke-width="6.0" stroke-linecap="round" stroke-linejoin="round" />
<path d="M 146.25 75.0 L 146.25 75.0 L 146.25 75.0 L 143.75 78.75 L 133.75 93.75 L 116.25 112.5 L 106.25 121.25 L 105.0 122.5 L 111.25 122.5 L 127.5 120.0 L 147.5 113.75 L 163.75 106.25 " stroke="black" fill="none" stroke-width="6.0" stroke-linecap="round" stroke-linejoin="round" />
<path d="M 93.75 136.25 L 91.25 135.0 L 88.75 133.75 L 87.5 133.75 L 87.5 138.75 L 87.5 146.25 L 90.0 153.75 L 98.75 156.25 L 115.0 153.75 L 138.75 145.0 L 158.75 135.0 L 172.5 128.75 L 177.5 127.5 L 178.75 127.5 L 180.0 130.0 L 181.25 138.75 L 183.75 158.75 L 185.0 198.75 L 187.5 242.5 L 190.0 261.25 L 191.25 266.25 L 191.25 267.5 L 188.75 267.5 L 182.5 265.0 L 170.0 257.5 L 156.25 247.5 L 147.5 240.0 " stroke="black" fill="none" stroke-width="6.0" stroke-linecap="round" stroke-linejoin="round" />
<path d="M 86.25 196.25 L 83.75 193.75 L 81.25 193.75 L 82.5 195.0 L 90.0 203.75 L 96.25 212.5 L 98.75 217.5 " stroke="black" fill="none" stroke-width="6.0" stroke-linecap="round" stroke-linejoin="round" />
<path d="M 88.75 198.75 L 86.25 197.5 L 85.0 196.25 L 95.0 192.5 L 117.5 185.0 L 146.25 176.25 L 157.5 171.25 L 157.5 172.5 L 147.5 183.75 L 135.0 196.25 L 118.75 207.5 L 103.75 216.25 L 101.25 217.5 L 106.25 213.75 L 121.25 203.75 L 135.0 191.25 L 145.0 182.5 L 145.0 178.75 L 137.5 178.75 " stroke="black" fill="none" stroke-width="6.0" stroke-linecap="round" stroke-linejoin="round" />
<path d="M 116.25 167.5 L 116.25 167.5 L 116.25 170.0 L 118.75 187.5 L 118.75 217.5 L 113.75 242.5 L 107.5 252.5 L 103.75 252.5 L 103.75 252.5 L 108.75 250.0 L 120.0 243.75 L 136.25 235.0 L 148.75 223.75 L 156.25 215.0 L 157.5 210.0 L 155.0 210.0 L 152.5 208.75 L 148.75 207.5 L 146.25 206.25 L 145.0 203.75 L 143.75 202.5 L 143.75 202.5 L 143.75 202.5 L 143.75 202.5 L 143.75 202.5 L 146.25 205.0 L 153.75 212.5 L 165.0 226.25 L 170.0 233.75 " stroke="black" fill="none" stroke-width="6.0" stroke-linecap="round" stroke-linejoin="round" />
</svg>