<svg xmlns="http://www.w3.org/2000/svg" width="300" height="300" viewBox="0 0 300 300">
<path d="M 83.75 95.0 L 83.75 96.25 L 82.5 98.75 L 86.25 100.0 L 96.25 100.0 L 110.0 100.0 L 115.0 97.5 " stroke="black" fill="none" stroke-width="6.0" stroke-linecap="round" stroke-linejoin="round" />
<path d="M 67.5 142.5 L 63.75 145.0 L 65.0 146.25 L 78.75 146.25 L 93.75 143.75 L 103.75 142.5 L 101.25 151.25 L 85.0 176.25 L 62.5 201.25 L 46.25 215.0 L 42.5 215.0 L 48.75 203.75 " stroke="black" fill="none" stroke-width="6.0" stroke-linecap="round" stroke-linejoin="round" />
<path d="M 88.75 172.5 L 86.25 178.75 L 83.75 193.75 L 86.25 213.75 L 91.25 233.75 L 95.0 241.25 L 96.25 238.75 " stroke="black" fill="none" stroke-width="6.0" stroke-linecap="round" stroke-linejoin="round" />
<path d="M 132.5 156.25 L 125.0 161.25 L 116.25 168.75 L 103.75 181.25 L 91.25 190.0 L 85.0 192.5 L 82.5 192.5 L 85.0 192.5 L 92.5 192.5 L 103.75 197.5 L 116.25 202.5 L 126.25 205.0 L 136.25 203.75 " stroke="black" fill="none" stroke-width="6.0" stroke-linecap="round" stroke-linejoin="round" />
<path d="M 167.5 115.0 L 162.5 116.25 L 160.0 117.5 L 166.25 118.75 L 185.0 121.25 L 206.25 123.75 L 225.0 126.25 L 232.5 128.75 L 228.75 135.0 L 215.0 145.0 L 198.75 155.0 L 178.75 165.0 L 158.75 172.5 L 146.25 177.5 L 142.5 181.25 L 143.75 181.25 L 155.0 178.75 L 177.5 171.25 L 202.5 163.75 L 228.75 153.75 L 250.0 145.0 L 252.5 142.5 " stroke="black" fill="none" stroke-width="6.0" stroke-linecap="round" stroke-linejoin="round" />
<path d="M 188.75 91.25 L 188.75 91.25 L 187.5 90.0 L 187.5 91.25 L 190.0 111.25 L 188.75 158.75 L 175.0 205.0 L 160.0 228.75 L 146.25 241.25 L 136.25 242.5 L 132.5 237.5 L 132.5 235.0 " stroke="black" fill="none" stroke-width="6.0" stroke-linecap="round" stroke-linejoin="round" />
<path d="M 183.75 172.5 L 186.25 175.0 L 192.5 182.5 L 203.75 200.0 L 221.25 225.0 L 241.25 248.75 L 256.25 260.0 L 270.0 268.75 L 272.5 271.25 " stroke="black" fill="none" stroke-width="6.0" stroke-linecap="round" stroke-linejoin="round" />
</svg>