<svg xmlns="http://www.w3.org/2000/svg" width="300" height="300" viewBox="0 0 300 300">
<path d="M 125.0 63.75 L 125.0 63.75 L 125.0 62.5 L 125.0 62.5 L 130.0 63.75 L 140.0 67.5 L 148.75 71.25 L 152.5 75.0 L 150.0 80.0 " stroke="black" fill="none" stroke-width="6.0" stroke-linecap="round" stroke-linejoin="round" />
<path d="M 93.75 96.25 L 90.0 101.25 L 87.5 103.75 L 91.25 103.75 L 110.0 100.0 L 135.0 91.25 L 161.25 80.0 L 176.25 71.25 L 177.5 70.0 L 162.5 76.25 " stroke="black" fill="none" stroke-width="6.0" stroke-linecap="round" stroke-linejoin="round" />
<path d="M 103.75 111.25 L 103.75 112.5 L 101.25 121.25 L 102.5 137.5 L 107.5 157.5 L 112.5 168.75 L 116.25 171.25 L 116.25 167.5 L 113.75 158.75 L 112.5 156.25 " stroke="black" fill="none" stroke-width="6.0" stroke-linecap="round" stroke-linejoin="round" />
<path d="M 105.0 131.25 L 105.0 130.0 L 103.75 128.75 L 105.0 127.5 L 117.5 123.75 L 142.5 115.0 L 167.5 107.5 L 181.25 106.25 L 183.75 111.25 L 173.75 127.5 L 160.0 140.0 L 147.5 148.75 L 136.25 151.25 L 133.75 151.25 " stroke="black" fill="none" stroke-width="6.0" stroke-linecap="round" stroke-linejoin="round" />
<path d="M 117.5 142.5 L 117.5 142.5 L 116.25 142.5 L 117.5 142.5 L 130.0 138.75 L 146.25 130.0 L 162.5 120.0 L 165.0 118.75 L 161.25 122.5 " stroke="black" fill="none" stroke-width="6.0" stroke-linecap="round" stroke-linejoin="round" />
<path d="M 122.5 163.75 L 116.25 171.25 L 118.75 171.25 L 132.5 163.75 L 150.0 151.25 L 165.0 135.0 L 173.75 123.75 L 170.0 121.25 " stroke="black" fill="none" stroke-width="6.0" stroke-linecap="round" stroke-linejoin="round" />
<path d="M 146.25 115.0 L 145.0 115.0 L 143.75 115.0 L 143.75 116.25 L 143.75 117.5 L 143.75 118.75 L 143.75 118.75 L 143.75 120.0 L 145.0 120.0 L 145.0 120.0 L 145.0 120.0 L 145.0 121.25 L 145.0 121.25 L 145.0 122.5 L 145.0 128.75 L 146.25 147.5 L 146.25 172.5 L 146.25 187.5 L 146.25 191.25 L 143.75 190.0 " stroke="black" fill="none" stroke-width="6.0" stroke-linecap="round" stroke-linejoin="round" />
<path d="M 120.0 187.5 L 117.5 187.5 L 113.75 188.75 L 113.75 188.75 L 122.5 187.5 L 137.5 180.0 L 152.5 171.25 L 160.0 165.0 L 158.75 165.0 L 147.5 173.75 " stroke="black" fill="none" stroke-width="6.0" stroke-linecap="round" stroke-linejoin="round" />
<path d="M 97.5 216.25 L 96.25 218.75 L 93.75 223.75 L 97.5 222.5 L 116.25 213.75 L 145.0 197.5 L 170.0 178.75 L 186.25 163.75 L 188.75 160.0 L 181.25 162.5 L 167.5 171.25 L 152.5 185.0 L 135.0 203.75 L 111.25 236.25 L 95.0 265.0 L 93.75 273.75 L 97.5 270.0 L 102.5 260.0 " stroke="black" fill="none" stroke-width="6.0" stroke-linecap="round" stroke-linejoin="round" />
<path d="M 140.0 205.0 L 140.0 202.5 L 140.0 200.0 L 140.0 203.75 L 140.0 223.75 L 140.0 247.5 L 143.75 261.25 L 151.25 261.25 L 166.25 248.75 L 183.75 230.0 L 198.75 211.25 L 205.0 200.0 L 206.25 196.25 L 200.0 196.25 L 190.0 201.25 L 175.0 207.5 L 161.25 215.0 L 148.75 221.25 L 145.0 223.75 L 146.25 223.75 L 147.5 222.5 L 148.75 222.5 L 150.0 222.5 L 150.0 222.5 L 150.0 222.5 L 150.0 222.5 L 150.0 222.5 L 151.25 221.25 L 160.0 221.25 L 183.75 227.5 L 218.75 237.5 L 250.0 246.25 L 263.75 246.25 " stroke="black" fill="none" stroke-width="6.0" stroke-linecap="round" stroke-linejoin="round" />
</svg>