<svg xmlns="http://www.w3.org/2000/svg" width="300" height="300" viewBox="0 0 300 300">
<path d="M 145.0 77.5 L 143.75 76.25 L 140.0 78.75 L 128.75 93.75 L 108.75 125.0 L 88.75 152.5 L 72.5 167.5 L 62.5 170.0 L 60.0 166.25 " stroke="black" fill="none" stroke-width="6.0" stroke-linecap="round" stroke-linejoin="round" />
<path d="M 142.5 82.5 L 148.75 83.75 L 166.25 92.5 L 192.5 103.75 L 212.5 113.75 L 226.25 126.25 L 228.75 133.75 L 223.75 135.0 " stroke="black" fill="none" stroke-width="6.0" stroke-linecap="round" stroke-linejoin="round" />
<path d="M 143.75 115.0 L 142.5 115.0 L 141.25 115.0 L 145.0 115.0 L 155.0 117.5 L 163.75 120.0 L 167.5 121.25 " stroke="black" fill="none" stroke-width="6.0" stroke-linecap="round" stroke-linejoin="round" />
<path d="M 130.0 140.0 L 123.75 141.25 L 122.5 142.5 L 135.0 143.75 L 153.75 143.75 L 172.5 143.75 L 185.0 143.75 L 177.5 153.75 L 157.5 167.5 L 141.25 176.25 " stroke="black" fill="none" stroke-width="6.0" stroke-linecap="round" stroke-linejoin="round" />
<path d="M 130.0 176.25 L 128.75 176.25 L 127.5 176.25 L 127.5 177.5 L 136.25 180.0 L 148.75 181.25 L 160.0 181.25 L 165.0 183.75 L 162.5 186.25 " stroke="black" fill="none" stroke-width="6.0" stroke-linecap="round" stroke-linejoin="round" />
<path d="M 91.25 208.75 L 90.0 208.75 L 87.5 208.75 L 90.0 208.75 L 112.5 205.0 L 147.5 196.25 L 180.0 187.5 L 193.75 183.75 L 192.5 183.75 L 181.25 187.5 L 160.0 198.75 L 140.0 212.5 L 116.25 232.5 L 96.25 253.75 L 92.5 261.25 L 95.0 262.5 L 102.5 255.0 L 103.75 252.5 " stroke="black" fill="none" stroke-width="6.0" stroke-linecap="round" stroke-linejoin="round" />
<path d="M 135.0 221.25 L 135.0 221.25 L 135.0 220.0 L 133.75 227.5 L 133.75 247.5 L 138.75 270.0 L 148.75 280.0 L 161.25 276.25 L 180.0 262.5 L 201.25 243.75 L 213.75 225.0 L 217.5 212.5 L 215.0 210.0 L 206.25 210.0 L 190.0 216.25 L 170.0 226.25 L 150.0 235.0 L 140.0 241.25 L 141.25 241.25 L 145.0 240.0 L 151.25 238.75 L 160.0 240.0 L 172.5 245.0 L 191.25 255.0 L 210.0 262.5 L 230.0 268.75 L 246.25 270.0 " stroke="black" fill="none" stroke-width="6.0" stroke-linecap="round" stroke-linejoin="round" />
</svg>