<svg xmlns="http://www.w3.org/2000/svg" width="300" height="300" viewBox="0 0 300 300">
<path d="M 135.0 51.25 L 132.5 52.5 L 132.5 52.5 L 140.0 53.75 L 151.25 56.25 L 161.25 58.75 L 163.75 62.5 L 161.25 63.75 " stroke="black" fill="none" stroke-width="6.0" stroke-linecap="round" stroke-linejoin="round" />
<path d="M 101.25 96.25 L 98.75 97.5 L 95.0 102.5 L 96.25 102.5 L 111.25 101.25 L 135.0 93.75 L 160.0 85.0 L 175.0 77.5 L 178.75 75.0 L 168.75 80.0 L 151.25 96.25 L 128.75 122.5 L 102.5 155.0 L 91.25 170.0 L 92.5 171.25 L 97.5 161.25 " stroke="black" fill="none" stroke-width="6.0" stroke-linecap="round" stroke-linejoin="round" />
<path d="M 142.5 110.0 L 142.5 107.5 L 141.25 106.25 L 140.0 113.75 L 140.0 132.5 L 140.0 150.0 L 145.0 158.75 L 153.75 158.75 L 167.5 147.5 L 185.0 132.5 L 197.5 117.5 L 200.0 106.25 L 196.25 103.75 L 182.5 105.0 L 166.25 111.25 L 150.0 118.75 L 142.5 123.75 L 142.5 125.0 L 148.75 125.0 L 158.75 125.0 L 172.5 126.25 L 188.75 126.25 L 200.0 126.25 L 201.25 126.25 " stroke="black" fill="none" stroke-width="6.0" stroke-linecap="round" stroke-linejoin="round" />
<path d="M 121.25 195.0 L 115.0 190.0 L 110.0 188.75 L 108.75 195.0 L 110.0 215.0 L 115.0 241.25 L 122.5 261.25 L 125.0 266.25 L 125.0 262.5 L 125.0 257.5 " stroke="black" fill="none" stroke-width="6.0" stroke-linecap="round" stroke-linejoin="round" />
<path d="M 115.0 198.75 L 113.75 198.75 L 111.25 197.5 L 116.25 195.0 L 137.5 187.5 L 166.25 176.25 L 198.75 162.5 L 217.5 156.25 L 228.75 156.25 L 231.25 165.0 L 232.5 186.25 L 233.75 213.75 L 233.75 242.5 L 233.75 262.5 L 233.75 271.25 L 233.75 272.5 L 233.75 272.5 L 230.0 268.75 L 221.25 261.25 L 218.75 258.75 " stroke="black" fill="none" stroke-width="6.0" stroke-linecap="round" stroke-linejoin="round" />
<path d="M 161.25 182.5 L 158.75 183.75 L 152.5 190.0 L 147.5 207.5 L 140.0 227.5 L 133.75 238.75 L 132.5 238.75 " stroke="black" fill="none" stroke-width="6.0" stroke-linecap="round" stroke-linejoin="round" />
<path d="M 172.5 182.5 L 173.75 182.5 L 178.75 181.25 L 191.25 183.75 L 202.5 187.5 L 207.5 193.75 L 206.25 198.75 " stroke="black" fill="none" stroke-width="6.0" stroke-linecap="round" stroke-linejoin="round" />
<path d="M 147.5 217.5 L 145.0 221.25 L 143.75 228.75 L 150.0 242.5 L 158.75 256.25 L 165.0 262.5 L 166.25 263.75 L 165.0 262.5 L 160.0 257.5 L 153.75 252.5 L 151.25 247.5 L 151.25 241.25 L 158.75 236.25 L 172.5 228.75 L 190.0 222.5 L 198.75 221.25 L 198.75 227.5 L 188.75 240.0 L 178.75 251.25 L 170.0 258.75 L 168.75 260.0 L 173.75 256.25 L 186.25 247.5 L 200.0 236.25 L 202.5 232.5 " stroke="black" fill="none" stroke-width="6.0" stroke-linecap="round" stroke-linejoin="round" />
</svg>