<svg xmlns="http://www.w3.org/2000/svg" width="300" height="300" viewBox="0 0 300 300">
<path d="M 98.75 81.25 L 98.75 78.75 L 97.5 78.75 L 96.25 86.25 L 87.5 110.0 L 71.25 138.75 L 55.0 151.25 L 48.75 151.25 " stroke="black" fill="none" stroke-width="6.0" stroke-linecap="round" stroke-linejoin="round" />
<path d="M 126.25 105.0 L 127.5 106.25 L 128.75 115.0 L 120.0 138.75 L 100.0 165.0 L 87.5 182.5 L 75.0 190.0 L 71.25 183.75 " stroke="black" fill="none" stroke-width="6.0" stroke-linecap="round" stroke-linejoin="round" />
<path d="M 106.25 155.0 L 112.5 160.0 L 117.5 177.5 L 113.75 205.0 L 105.0 225.0 L 98.75 232.5 L 98.75 232.5 " stroke="black" fill="none" stroke-width="6.0" stroke-linecap="round" stroke-linejoin="round" />
<path d="M 163.75 82.5 L 165.0 82.5 L 167.5 83.75 L 178.75 83.75 L 200.0 82.5 L 221.25 78.75 L 230.0 76.25 L 221.25 78.75 " stroke="black" fill="none" stroke-width="6.0" stroke-linecap="round" stroke-linejoin="round" />
<path d="M 147.5 162.5 L 147.5 162.5 L 150.0 163.75 L 172.5 152.5 L 210.0 130.0 L 238.75 110.0 L 250.0 100.0 L 246.25 98.75 L 231.25 105.0 " stroke="black" fill="none" stroke-width="6.0" stroke-linecap="round" stroke-linejoin="round" />
<path d="M 206.25 130.0 L 206.25 133.75 L 206.25 147.5 L 207.5 180.0 L 207.5 208.75 L 203.75 242.5 L 200.0 250.0 L 196.25 251.25 L 187.5 251.25 L 175.0 246.25 L 155.0 232.5 " stroke="black" fill="none" stroke-width="6.0" stroke-linecap="round" stroke-linejoin="round" />
</svg>