<svg xmlns="http://www.w3.org/2000/svg" width="300" height="300" viewBox="0 0 300 300">
<path d="M 85.0 90.0 L 85.0 88.75 L 85.0 88.75 L 85.0 88.75 L 86.25 98.75 L 80.0 118.75 L 68.75 137.5 L 57.5 143.75 L 53.75 143.75 " stroke="black" fill="none" stroke-width="6.0" stroke-linecap="round" stroke-linejoin="round" />
<path d="M 101.25 110.0 L 101.25 112.5 L 100.0 121.25 L 92.5 137.5 L 77.5 157.5 L 62.5 172.5 L 52.5 177.5 L 50.0 170.0 " stroke="black" fill="none" stroke-width="6.0" stroke-linecap="round" stroke-linejoin="round" />
<path d="M 91.25 146.25 L 92.5 147.5 L 95.0 155.0 L 96.25 172.5 L 91.25 200.0 L 82.5 216.25 L 75.0 220.0 " stroke="black" fill="none" stroke-width="6.0" stroke-linecap="round" stroke-linejoin="round" />
<path d="M 138.75 108.75 L 137.5 110.0 L 136.25 111.25 L 138.75 111.25 L 151.25 105.0 L 168.75 97.5 L 183.75 88.75 L 185.0 85.0 L 182.5 85.0 " stroke="black" fill="none" stroke-width="6.0" stroke-linecap="round" stroke-linejoin="round" />
<path d="M 150.0 86.25 L 151.25 86.25 L 152.5 88.75 L 156.25 101.25 L 157.5 121.25 L 152.5 138.75 L 142.5 146.25 L 131.25 150.0 L 123.75 152.5 L 123.75 152.5 L 133.75 152.5 L 148.75 147.5 L 166.25 138.75 L 181.25 128.75 L 186.25 123.75 " stroke="black" fill="none" stroke-width="6.0" stroke-linecap="round" stroke-linejoin="round" />
<path d="M 136.25 188.75 L 135.0 190.0 L 137.5 188.75 L 151.25 181.25 L 171.25 167.5 L 185.0 157.5 L 180.0 155.0 L 166.25 157.5 " stroke="black" fill="none" stroke-width="6.0" stroke-linecap="round" stroke-linejoin="round" />
<path d="M 147.5 163.75 L 147.5 163.75 L 150.0 166.25 L 156.25 176.25 L 158.75 191.25 L 156.25 205.0 L 147.5 213.75 L 135.0 218.75 L 126.25 222.5 L 126.25 222.5 L 138.75 221.25 L 158.75 213.75 L 182.5 203.75 L 206.25 190.0 L 210.0 187.5 " stroke="black" fill="none" stroke-width="6.0" stroke-linecap="round" stroke-linejoin="round" />
<path d="M 221.25 85.0 L 220.0 86.25 L 212.5 90.0 L 211.25 92.5 L 221.25 93.75 L 240.0 91.25 L 258.75 85.0 L 271.25 77.5 L 267.5 77.5 " stroke="black" fill="none" stroke-width="6.0" stroke-linecap="round" stroke-linejoin="round" />
<path d="M 197.5 147.5 L 196.25 148.75 L 197.5 150.0 L 215.0 143.75 L 248.75 125.0 L 271.25 107.5 L 278.75 98.75 L 271.25 97.5 L 262.5 101.25 L 260.0 102.5 " stroke="black" fill="none" stroke-width="6.0" stroke-linecap="round" stroke-linejoin="round" />
<path d="M 248.75 121.25 L 248.75 125.0 L 247.5 136.25 L 247.5 158.75 L 247.5 188.75 L 248.75 211.25 L 248.75 222.5 L 248.75 228.75 L 247.5 228.75 L 246.25 228.75 L 242.5 228.75 L 237.5 227.5 L 230.0 226.25 L 218.75 223.75 L 201.25 220.0 L 196.25 218.75 " stroke="black" fill="none" stroke-width="6.0" stroke-linecap="round" stroke-linejoin="round" />
</svg>