<svg xmlns="http://www.w3.org/2000/svg" width="300" height="300" viewBox="0 0 300 300">
<path d="M 78.75 101.25 L 75.0 103.75 L 75.0 105.0 L 81.25 105.0 L 91.25 105.0 L 102.5 102.5 L 108.75 100.0 L 108.75 98.75 L 101.25 103.75 " stroke="black" fill="none" stroke-width="6.0" stroke-linecap="round" stroke-linejoin="round" />
<path d="M 67.5 161.25 L 63.75 167.5 L 65.0 170.0 L 75.0 165.0 L 91.25 153.75 L 106.25 138.75 L 116.25 127.5 L 117.5 123.75 L 112.5 123.75 L 107.5 128.75 L 103.75 136.25 L 102.5 148.75 L 103.75 180.0 L 108.75 218.75 L 111.25 243.75 L 111.25 248.75 L 107.5 248.75 L 102.5 246.25 L 97.5 238.75 L 96.25 233.75 " stroke="black" fill="none" stroke-width="6.0" stroke-linecap="round" stroke-linejoin="round" />
<path d="M 96.25 173.75 L 95.0 177.5 L 86.25 195.0 L 78.75 210.0 L 71.25 223.75 L 65.0 226.25 " stroke="black" fill="none" stroke-width="6.0" stroke-linecap="round" stroke-linejoin="round" />
<path d="M 100.0 167.5 L 101.25 167.5 L 107.5 172.5 L 125.0 182.5 L 142.5 192.5 L 151.25 198.75 L 152.5 201.25 L 148.75 201.25 " stroke="black" fill="none" stroke-width="6.0" stroke-linecap="round" stroke-linejoin="round" />
<path d="M 161.25 85.0 L 160.0 85.0 L 153.75 85.0 L 153.75 85.0 L 167.5 85.0 L 187.5 83.75 L 203.75 82.5 L 211.25 82.5 L 208.75 86.25 L 197.5 96.25 L 182.5 108.75 L 166.25 123.75 L 155.0 135.0 L 152.5 138.75 L 158.75 138.75 L 171.25 133.75 L 187.5 123.75 L 200.0 111.25 L 203.75 103.75 L 201.25 102.5 L 191.25 103.75 L 183.75 105.0 " stroke="black" fill="none" stroke-width="6.0" stroke-linecap="round" stroke-linejoin="round" />
<path d="M 151.25 95.0 L 150.0 95.0 L 148.75 96.25 L 150.0 127.5 L 153.75 196.25 L 152.5 237.5 L 152.5 257.5 L 151.25 262.5 L 148.75 260.0 " stroke="black" fill="none" stroke-width="6.0" stroke-linecap="round" stroke-linejoin="round" />
<path d="M 158.75 162.5 L 160.0 162.5 L 161.25 162.5 L 173.75 160.0 L 201.25 151.25 L 220.0 141.25 L 225.0 135.0 L 218.75 135.0 L 211.25 136.25 " stroke="black" fill="none" stroke-width="6.0" stroke-linecap="round" stroke-linejoin="round" />
<path d="M 191.25 137.5 L 191.25 137.5 L 190.0 140.0 L 190.0 148.75 L 192.5 171.25 L 192.5 196.25 L 187.5 208.75 L 182.5 210.0 " stroke="black" fill="none" stroke-width="6.0" stroke-linecap="round" stroke-linejoin="round" />
<path d="M 166.25 198.75 L 165.0 198.75 L 163.75 198.75 L 165.0 201.25 L 172.5 211.25 L 182.5 226.25 L 191.25 237.5 L 193.75 241.25 L 195.0 241.25 L 192.5 240.0 L 187.5 236.25 L 183.75 231.25 L 178.75 225.0 L 175.0 218.75 L 172.5 215.0 L 173.75 211.25 L 183.75 205.0 L 198.75 197.5 L 213.75 190.0 L 226.25 187.5 L 232.5 190.0 L 231.25 200.0 L 222.5 212.5 L 213.75 225.0 L 203.75 238.75 L 197.5 248.75 L 196.25 251.25 L 201.25 248.75 L 212.5 241.25 L 230.0 231.25 L 246.25 221.25 L 256.25 215.0 L 256.25 213.75 " stroke="black" fill="none" stroke-width="6.0" stroke-linecap="round" stroke-linejoin="round" />
</svg>