<svg xmlns="http://www.w3.org/2000/svg" width="300" height="300" viewBox="0 0 300 300">
<path d="M 142.5 63.75 L 142.5 63.75 L 142.5 63.75 L 142.5 67.5 L 142.5 77.5 L 143.75 86.25 L 143.75 88.75 " stroke="black" fill="none" stroke-width="6.0" stroke-linecap="round" stroke-linejoin="round" />
<path d="M 106.25 63.75 L 105.0 62.5 L 103.75 61.25 L 105.0 62.5 L 112.5 72.5 L 122.5 85.0 L 125.0 87.5 " stroke="black" fill="none" stroke-width="6.0" stroke-linecap="round" stroke-linejoin="round" />
<path d="M 186.25 52.5 L 186.25 53.75 L 186.25 55.0 L 182.5 60.0 L 172.5 72.5 L 157.5 87.5 L 155.0 90.0 " stroke="black" fill="none" stroke-width="6.0" stroke-linecap="round" stroke-linejoin="round" />
<path d="M 88.75 93.75 L 88.75 95.0 L 83.75 98.75 L 78.75 110.0 L 72.5 135.0 L 70.0 156.25 L 71.25 161.25 L 72.5 157.5 " stroke="black" fill="none" stroke-width="6.0" stroke-linecap="round" stroke-linejoin="round" />
<path d="M 85.0 106.25 L 85.0 106.25 L 87.5 106.25 L 106.25 105.0 L 145.0 97.5 L 181.25 91.25 L 202.5 88.75 L 207.5 91.25 L 200.0 100.0 L 185.0 111.25 L 167.5 121.25 L 155.0 126.25 " stroke="black" fill="none" stroke-width="6.0" stroke-linecap="round" stroke-linejoin="round" />
<path d="M 116.25 118.75 L 115.0 118.75 L 113.75 122.5 L 113.75 133.75 L 117.5 147.5 L 122.5 156.25 L 126.25 156.25 L 126.25 151.25 L 123.75 143.75 L 122.5 137.5 L 121.25 131.25 L 122.5 125.0 L 130.0 121.25 L 142.5 120.0 L 152.5 120.0 L 156.25 125.0 L 152.5 133.75 L 142.5 143.75 L 130.0 151.25 L 120.0 157.5 L 117.5 157.5 L 127.5 153.75 L 143.75 143.75 L 157.5 133.75 L 160.0 132.5 " stroke="black" fill="none" stroke-width="6.0" stroke-linecap="round" stroke-linejoin="round" />
<path d="M 143.75 151.25 L 142.5 151.25 L 141.25 151.25 L 141.25 151.25 L 143.75 153.75 L 148.75 156.25 L 152.5 158.75 L 152.5 165.0 L 150.0 167.5 " stroke="black" fill="none" stroke-width="6.0" stroke-linecap="round" stroke-linejoin="round" />
<path d="M 91.25 197.5 L 86.25 201.25 L 85.0 201.25 L 97.5 198.75 L 122.5 187.5 L 153.75 172.5 L 177.5 160.0 L 183.75 155.0 L 175.0 157.5 L 163.75 163.75 L 152.5 172.5 L 142.5 181.25 L 132.5 190.0 L 117.5 206.25 L 102.5 231.25 L 93.75 252.5 L 92.5 256.25 " stroke="black" fill="none" stroke-width="6.0" stroke-linecap="round" stroke-linejoin="round" />
<path d="M 138.75 190.0 L 138.75 190.0 L 138.75 190.0 L 137.5 198.75 L 137.5 223.75 L 137.5 248.75 L 142.5 253.75 L 151.25 252.5 L 161.25 242.5 L 173.75 231.25 L 186.25 218.75 L 196.25 207.5 L 198.75 198.75 L 198.75 193.75 L 193.75 191.25 L 186.25 191.25 L 177.5 190.0 L 167.5 192.5 L 157.5 195.0 L 151.25 197.5 L 147.5 198.75 L 147.5 198.75 L 147.5 198.75 L 148.75 198.75 L 150.0 198.75 L 150.0 198.75 L 150.0 198.75 L 150.0 198.75 L 150.0 198.75 L 151.25 198.75 L 153.75 200.0 L 166.25 207.5 L 191.25 222.5 L 220.0 233.75 L 241.25 236.25 " stroke="black" fill="none" stroke-width="6.0" stroke-linecap="round" stroke-linejoin="round" />
</svg>