<svg xmlns="http://www.w3.org/2000/svg" width="300" height="300" viewBox="0 0 300 300">
<path d="M 87.5 102.5 L 81.25 105.0 L 81.25 106.25 L 88.75 107.5 L 102.5 107.5 L 115.0 105.0 L 120.0 103.75 " stroke="black" fill="none" stroke-width="6.0" stroke-linecap="round" stroke-linejoin="round" />
<path d="M 63.75 148.75 L 56.25 152.5 L 57.5 152.5 L 72.5 150.0 L 90.0 145.0 L 103.75 142.5 L 108.75 143.75 L 97.5 165.0 L 75.0 200.0 L 52.5 226.25 L 43.75 233.75 L 45.0 227.5 L 52.5 211.25 " stroke="black" fill="none" stroke-width="6.0" stroke-linecap="round" stroke-linejoin="round" />
<path d="M 81.25 177.5 L 81.25 177.5 L 80.0 182.5 L 82.5 197.5 L 88.75 218.75 L 95.0 231.25 L 97.5 226.25 L 100.0 217.5 " stroke="black" fill="none" stroke-width="6.0" stroke-linecap="round" stroke-linejoin="round" />
<path d="M 133.75 158.75 L 130.0 158.75 L 122.5 163.75 L 110.0 175.0 L 97.5 187.5 L 90.0 195.0 L 88.75 196.25 L 92.5 198.75 L 101.25 203.75 L 115.0 207.5 L 131.25 207.5 L 142.5 203.75 " stroke="black" fill="none" stroke-width="6.0" stroke-linecap="round" stroke-linejoin="round" />
<path d="M 152.5 106.25 L 148.75 108.75 L 145.0 110.0 L 150.0 111.25 L 170.0 111.25 L 193.75 108.75 L 210.0 108.75 L 212.5 110.0 L 201.25 121.25 L 182.5 136.25 L 161.25 146.25 L 146.25 148.75 L 145.0 148.75 " stroke="black" fill="none" stroke-width="6.0" stroke-linecap="round" stroke-linejoin="round" />
<path d="M 147.5 107.5 L 145.0 107.5 L 142.5 116.25 L 142.5 152.5 L 143.75 206.25 L 145.0 243.75 L 145.0 255.0 L 145.0 251.25 " stroke="black" fill="none" stroke-width="6.0" stroke-linecap="round" stroke-linejoin="round" />
<path d="M 167.5 71.25 L 168.75 77.5 L 168.75 106.25 L 167.5 155.0 L 163.75 186.25 L 162.5 195.0 L 162.5 195.0 L 168.75 191.25 L 180.0 181.25 L 193.75 170.0 L 206.25 163.75 L 211.25 165.0 L 210.0 178.75 L 198.75 200.0 L 185.0 220.0 L 171.25 231.25 L 158.75 235.0 L 156.25 235.0 " stroke="black" fill="none" stroke-width="6.0" stroke-linecap="round" stroke-linejoin="round" />
<path d="M 158.75 193.75 L 155.0 195.0 L 155.0 195.0 L 157.5 196.25 L 165.0 198.75 L 171.25 201.25 L 177.5 205.0 L 183.75 210.0 L 192.5 218.75 L 205.0 231.25 L 225.0 242.5 L 251.25 246.25 L 267.5 248.75 " stroke="black" fill="none" stroke-width="6.0" stroke-linecap="round" stroke-linejoin="round" />
</svg>