<svg xmlns="http://www.w3.org/2000/svg" width="300" height="300" viewBox="0 0 300 300">
<path d="M 77.5 132.5 L 76.25 132.5 L 73.75 133.75 L 73.75 133.75 L 83.75 127.5 L 100.0 118.75 L 116.25 110.0 L 125.0 107.5 L 122.5 120.0 L 107.5 148.75 L 90.0 182.5 L 76.25 202.5 L 68.75 205.0 L 65.0 198.75 L 65.0 192.5 " stroke="black" fill="none" stroke-width="6.0" stroke-linecap="round" stroke-linejoin="round" />
<path d="M 81.25 141.25 L 81.25 140.0 L 81.25 140.0 L 81.25 142.5 L 91.25 156.25 L 111.25 180.0 L 138.75 195.0 L 152.5 195.0 L 152.5 195.0 " stroke="black" fill="none" stroke-width="6.0" stroke-linecap="round" stroke-linejoin="round" />
<path d="M 161.25 90.0 L 161.25 87.5 L 160.0 83.75 L 158.75 82.5 L 158.75 95.0 L 156.25 132.5 L 156.25 173.75 L 156.25 195.0 L 158.75 196.25 L 158.75 190.0 " stroke="black" fill="none" stroke-width="6.0" stroke-linecap="round" stroke-linejoin="round" />
<path d="M 155.0 95.0 L 155.0 95.0 L 156.25 92.5 L 160.0 87.5 L 175.0 81.25 L 188.75 80.0 L 207.5 85.0 L 213.75 105.0 L 215.0 140.0 L 212.5 168.75 L 210.0 186.25 L 208.75 190.0 L 207.5 190.0 L 205.0 185.0 L 200.0 176.25 L 198.75 172.5 " stroke="black" fill="none" stroke-width="6.0" stroke-linecap="round" stroke-linejoin="round" />
<path d="M 160.0 136.25 L 158.75 136.25 L 155.0 136.25 L 158.75 136.25 L 170.0 131.25 L 193.75 120.0 L 206.25 110.0 L 207.5 106.25 L 197.5 112.5 " stroke="black" fill="none" stroke-width="6.0" stroke-linecap="round" stroke-linejoin="round" />
<path d="M 160.0 157.5 L 157.5 160.0 L 156.25 161.25 L 166.25 158.75 L 183.75 150.0 L 198.75 140.0 L 205.0 132.5 L 202.5 133.75 " stroke="black" fill="none" stroke-width="6.0" stroke-linecap="round" stroke-linejoin="round" />
<path d="M 155.0 191.25 L 153.75 192.5 L 155.0 192.5 L 170.0 187.5 L 193.75 173.75 L 210.0 158.75 L 212.5 152.5 L 206.25 155.0 L 198.75 162.5 L 191.25 175.0 L 181.25 191.25 L 170.0 210.0 L 163.75 227.5 L 161.25 235.0 L 162.5 231.25 L 168.75 220.0 " stroke="black" fill="none" stroke-width="6.0" stroke-linecap="round" stroke-linejoin="round" />
<path d="M 196.25 182.5 L 196.25 183.75 L 196.25 192.5 L 196.25 211.25 L 201.25 232.5 L 210.0 242.5 L 221.25 242.5 L 233.75 238.75 L 243.75 236.25 L 247.5 235.0 L 248.75 235.0 L 248.75 235.0 L 247.5 235.0 L 247.5 233.75 L 248.75 223.75 L 253.75 203.75 L 256.25 176.25 " stroke="black" fill="none" stroke-width="6.0" stroke-linecap="round" stroke-linejoin="round" />
</svg>