<svg xmlns="http://www.w3.org/2000/svg" width="300" height="300" viewBox="0 0 300 300">
<path d="M 95.0 76.25 L 93.75 76.25 L 91.25 78.75 L 88.75 82.5 L 87.5 88.75 L 86.25 95.0 L 87.5 98.75 L 92.5 100.0 L 100.0 97.5 L 111.25 92.5 L 120.0 90.0 L 125.0 88.75 L 125.0 91.25 L 115.0 101.25 L 100.0 116.25 L 85.0 135.0 L 72.5 146.25 " stroke="black" fill="none" stroke-width="6.0" stroke-linecap="round" stroke-linejoin="round" />
<path d="M 76.25 140.0 L 73.75 140.0 L 72.5 140.0 L 71.25 145.0 L 73.75 168.75 L 77.5 206.25 L 78.75 232.5 L 78.75 240.0 L 80.0 237.5 L 80.0 230.0 " stroke="black" fill="none" stroke-width="6.0" stroke-linecap="round" stroke-linejoin="round" />
<path d="M 76.25 151.25 L 76.25 151.25 L 75.0 148.75 L 78.75 145.0 L 90.0 138.75 L 106.25 133.75 L 123.75 132.5 L 135.0 143.75 L 138.75 167.5 L 138.75 200.0 L 138.75 225.0 L 137.5 240.0 L 136.25 246.25 L 136.25 246.25 L 136.25 246.25 L 133.75 245.0 L 130.0 240.0 L 122.5 231.25 L 111.25 220.0 L 108.75 216.25 " stroke="black" fill="none" stroke-width="6.0" stroke-linecap="round" stroke-linejoin="round" />
<path d="M 80.0 191.25 L 78.75 191.25 L 73.75 191.25 L 76.25 188.75 L 88.75 180.0 L 105.0 166.25 L 120.0 153.75 L 125.0 145.0 L 117.5 146.25 L 111.25 147.5 " stroke="black" fill="none" stroke-width="6.0" stroke-linecap="round" stroke-linejoin="round" />
<path d="M 95.0 147.5 L 95.0 147.5 L 96.25 150.0 L 97.5 156.25 L 100.0 170.0 L 101.25 188.75 L 96.25 200.0 L 90.0 205.0 L 85.0 206.25 L 85.0 206.25 L 90.0 206.25 L 101.25 200.0 L 118.75 187.5 L 130.0 177.5 " stroke="black" fill="none" stroke-width="6.0" stroke-linecap="round" stroke-linejoin="round" />
<path d="M 176.25 88.75 L 175.0 90.0 L 171.25 91.25 L 173.75 92.5 L 187.5 92.5 L 205.0 92.5 L 221.25 93.75 L 228.75 97.5 L 221.25 107.5 L 206.25 121.25 L 191.25 131.25 L 178.75 135.0 L 170.0 133.75 " stroke="black" fill="none" stroke-width="6.0" stroke-linecap="round" stroke-linejoin="round" />
<path d="M 185.0 96.25 L 185.0 96.25 L 185.0 96.25 L 185.0 97.5 L 178.75 111.25 L 168.75 141.25 L 161.25 155.0 " stroke="black" fill="none" stroke-width="6.0" stroke-linecap="round" stroke-linejoin="round" />
<path d="M 165.0 161.25 L 165.0 161.25 L 165.0 161.25 L 163.75 161.25 L 163.75 163.75 L 163.75 171.25 L 165.0 180.0 L 172.5 185.0 L 183.75 185.0 L 197.5 175.0 L 207.5 166.25 L 210.0 160.0 L 207.5 161.25 L 200.0 167.5 " stroke="black" fill="none" stroke-width="6.0" stroke-linecap="round" stroke-linejoin="round" />
<path d="M 137.5 235.0 L 137.5 236.25 L 137.5 237.5 L 150.0 235.0 L 176.25 222.5 L 207.5 208.75 L 232.5 197.5 L 242.5 191.25 L 241.25 187.5 L 227.5 187.5 L 223.75 187.5 " stroke="black" fill="none" stroke-width="6.0" stroke-linecap="round" stroke-linejoin="round" />
<path d="M 187.5 153.75 L 186.25 150.0 L 186.25 146.25 L 186.25 145.0 L 191.25 150.0 L 198.75 178.75 L 201.25 227.5 L 200.0 271.25 L 197.5 295.0 L 193.75 301.25 " stroke="black" fill="none" stroke-width="6.0" stroke-linecap="round" stroke-linejoin="round" />
</svg>