<svg xmlns="http://www.w3.org/2000/svg" width="300" height="300" viewBox="0 0 300 300">
<path d="M 107.5 88.75 L 107.5 88.75 L 107.5 100.0 L 108.75 148.75 L 110.0 191.25 L 112.5 206.25 L 113.75 202.5 " stroke="black" fill="none" stroke-width="6.0" stroke-linecap="round" stroke-linejoin="round" />
<path d="M 120.0 92.5 L 120.0 91.25 L 125.0 88.75 L 141.25 82.5 L 162.5 77.5 L 181.25 80.0 L 191.25 100.0 L 192.5 137.5 L 188.75 172.5 L 187.5 196.25 L 187.5 207.5 L 188.75 208.75 L 188.75 200.0 L 186.25 188.75 L 177.5 176.25 L 173.75 172.5 " stroke="black" fill="none" stroke-width="6.0" stroke-linecap="round" stroke-linejoin="round" />
<path d="M 117.5 145.0 L 115.0 145.0 L 107.5 145.0 L 107.5 142.5 L 122.5 135.0 L 142.5 122.5 L 160.0 110.0 L 167.5 103.75 L 160.0 105.0 " stroke="black" fill="none" stroke-width="6.0" stroke-linecap="round" stroke-linejoin="round" />
<path d="M 120.0 168.75 L 118.75 170.0 L 117.5 172.5 L 118.75 172.5 L 133.75 161.25 L 153.75 143.75 L 170.0 128.75 L 175.0 125.0 L 167.5 128.75 " stroke="black" fill="none" stroke-width="6.0" stroke-linecap="round" stroke-linejoin="round" />
<path d="M 120.0 198.75 L 118.75 201.25 L 118.75 201.25 L 128.75 196.25 L 150.0 180.0 L 167.5 163.75 L 182.5 151.25 L 178.75 152.5 L 166.25 166.25 L 152.5 186.25 L 137.5 213.75 L 117.5 246.25 L 106.25 260.0 L 103.75 260.0 " stroke="black" fill="none" stroke-width="6.0" stroke-linecap="round" stroke-linejoin="round" />
<path d="M 157.5 195.0 L 157.5 195.0 L 158.75 195.0 L 161.25 207.5 L 168.75 238.75 L 181.25 263.75 L 201.25 271.25 L 227.5 267.5 L 256.25 257.5 L 272.5 250.0 L 280.0 247.5 L 280.0 247.5 L 277.5 247.5 L 271.25 242.5 L 266.25 228.75 L 261.25 197.5 L 260.0 187.5 " stroke="black" fill="none" stroke-width="6.0" stroke-linecap="round" stroke-linejoin="round" />
</svg>