<svg xmlns="http://www.w3.org/2000/svg" width="300" height="300" viewBox="0 0 300 300">
<path d="M 100.0 87.5 L 97.5 91.25 L 95.0 96.25 L 100.0 102.5 L 122.5 103.75 L 155.0 95.0 L 186.25 82.5 L 201.25 76.25 L 196.25 77.5 L 188.75 80.0 " stroke="black" fill="none" stroke-width="6.0" stroke-linecap="round" stroke-linejoin="round" />
<path d="M 75.0 162.5 L 73.75 160.0 L 72.5 157.5 L 71.25 156.25 L 71.25 156.25 L 77.5 171.25 L 90.0 206.25 L 102.5 243.75 L 108.75 256.25 L 111.25 252.5 L 107.5 241.25 " stroke="black" fill="none" stroke-width="6.0" stroke-linecap="round" stroke-linejoin="round" />
<path d="M 91.25 176.25 L 86.25 172.5 L 83.75 171.25 L 87.5 170.0 L 107.5 166.25 L 140.0 158.75 L 177.5 152.5 L 206.25 152.5 L 217.5 166.25 L 216.25 187.5 L 205.0 207.5 L 190.0 223.75 L 171.25 232.5 L 152.5 235.0 L 145.0 232.5 " stroke="black" fill="none" stroke-width="6.0" stroke-linecap="round" stroke-linejoin="round" />
<path d="M 121.25 120.0 L 121.25 120.0 L 120.0 120.0 L 117.5 135.0 L 116.25 176.25 L 116.25 210.0 L 115.0 220.0 L 115.0 220.0 " stroke="black" fill="none" stroke-width="6.0" stroke-linecap="round" stroke-linejoin="round" />
<path d="M 152.5 108.75 L 155.0 107.5 L 157.5 120.0 L 156.25 153.75 L 155.0 185.0 L 155.0 195.0 L 165.0 192.5 L 182.5 183.75 L 196.25 175.0 L 201.25 171.25 L 200.0 175.0 L 195.0 178.75 " stroke="black" fill="none" stroke-width="6.0" stroke-linecap="round" stroke-linejoin="round" />
<path d="M 111.25 235.0 L 107.5 236.25 L 106.25 237.5 L 112.5 237.5 L 132.5 235.0 L 157.5 232.5 L 185.0 228.75 L 201.25 222.5 " stroke="black" fill="none" stroke-width="6.0" stroke-linecap="round" stroke-linejoin="round" />
</svg>