<svg xmlns="http://www.w3.org/2000/svg" width="300" height="300" viewBox="0 0 300 300">
<path d="M 77.5 96.25 L 70.0 97.5 L 66.25 98.75 L 66.25 98.75 L 72.5 100.0 L 87.5 100.0 L 100.0 100.0 L 107.5 98.75 L 107.5 100.0 " stroke="black" fill="none" stroke-width="6.0" stroke-linecap="round" stroke-linejoin="round" />
<path d="M 61.25 143.75 L 55.0 148.75 L 53.75 148.75 L 63.75 147.5 L 78.75 142.5 L 93.75 137.5 L 101.25 137.5 L 96.25 151.25 L 78.75 180.0 L 58.75 206.25 L 43.75 218.75 L 41.25 218.75 L 41.25 213.75 " stroke="black" fill="none" stroke-width="6.0" stroke-linecap="round" stroke-linejoin="round" />
<path d="M 83.75 171.25 L 81.25 180.0 L 83.75 198.75 L 88.75 222.5 L 92.5 242.5 L 96.25 247.5 L 97.5 245.0 L 96.25 236.25 " stroke="black" fill="none" stroke-width="6.0" stroke-linecap="round" stroke-linejoin="round" />
<path d="M 88.75 188.75 L 87.5 186.25 L 85.0 183.75 L 85.0 182.5 L 87.5 183.75 L 95.0 186.25 L 106.25 191.25 L 120.0 193.75 L 131.25 193.75 L 133.75 193.75 " stroke="black" fill="none" stroke-width="6.0" stroke-linecap="round" stroke-linejoin="round" />
<path d="M 80.0 181.25 L 78.75 181.25 L 72.5 183.75 L 72.5 183.75 L 80.0 182.5 L 93.75 180.0 L 107.5 176.25 L 120.0 173.75 L 122.5 172.5 " stroke="black" fill="none" stroke-width="6.0" stroke-linecap="round" stroke-linejoin="round" />
</svg>