<svg xmlns="http://www.w3.org/2000/svg" width="300" height="300" viewBox="0 0 300 300">
<path d="M 97.5 86.25 L 97.5 87.5 L 97.5 92.5 L 98.75 103.75 L 103.75 121.25 L 107.5 132.5 L 110.0 132.5 L 110.0 131.25 " stroke="black" fill="none" stroke-width="6.0" stroke-linecap="round" stroke-linejoin="round" />
<path d="M 126.25 81.25 L 126.25 85.0 L 126.25 95.0 L 126.25 112.5 L 127.5 128.75 L 130.0 132.5 L 131.25 130.0 " stroke="black" fill="none" stroke-width="6.0" stroke-linecap="round" stroke-linejoin="round" />
<path d="M 153.75 70.0 L 153.75 70.0 L 153.75 70.0 L 160.0 70.0 L 173.75 68.75 L 186.25 65.0 " stroke="black" fill="none" stroke-width="6.0" stroke-linecap="round" stroke-linejoin="round" />
<path d="M 155.0 82.5 L 152.5 85.0 L 152.5 87.5 L 157.5 87.5 L 171.25 86.25 L 186.25 81.25 L 193.75 78.75 " stroke="black" fill="none" stroke-width="6.0" stroke-linecap="round" stroke-linejoin="round" />
<path d="M 152.5 102.5 L 151.25 102.5 L 148.75 103.75 L 152.5 103.75 L 166.25 96.25 L 183.75 86.25 L 196.25 77.5 L 197.5 76.25 " stroke="black" fill="none" stroke-width="6.0" stroke-linecap="round" stroke-linejoin="round" />
<path d="M 176.25 62.5 L 173.75 61.25 L 171.25 60.0 L 168.75 66.25 L 166.25 86.25 L 160.0 113.75 " stroke="black" fill="none" stroke-width="6.0" stroke-linecap="round" stroke-linejoin="round" />
<path d="M 96.25 136.25 L 93.75 136.25 L 91.25 140.0 L 85.0 156.25 L 80.0 185.0 L 80.0 197.5 L 83.75 193.75 " stroke="black" fill="none" stroke-width="6.0" stroke-linecap="round" stroke-linejoin="round" />
<path d="M 110.0 143.75 L 116.25 142.5 L 132.5 138.75 L 161.25 135.0 L 192.5 133.75 L 207.5 132.5 L 208.75 132.5 L 197.5 138.75 L 177.5 148.75 L 153.75 158.75 L 133.75 167.5 L 117.5 171.25 L 115.0 168.75 L 117.5 162.5 L 122.5 156.25 L 123.75 152.5 L 125.0 151.25 L 125.0 153.75 L 125.0 171.25 L 126.25 203.75 L 127.5 232.5 L 131.25 242.5 L 132.5 237.5 L 133.75 231.25 " stroke="black" fill="none" stroke-width="6.0" stroke-linecap="round" stroke-linejoin="round" />
<path d="M 126.25 170.0 L 125.0 168.75 L 123.75 167.5 L 127.5 165.0 L 140.0 163.75 L 156.25 165.0 L 171.25 173.75 L 175.0 191.25 L 166.25 207.5 L 155.0 218.75 L 146.25 222.5 L 141.25 222.5 " stroke="black" fill="none" stroke-width="6.0" stroke-linecap="round" stroke-linejoin="round" />
<path d="M 127.5 192.5 L 125.0 192.5 L 121.25 192.5 L 126.25 191.25 L 141.25 186.25 L 160.0 178.75 L 176.25 170.0 L 178.75 167.5 L 173.75 170.0 " stroke="black" fill="none" stroke-width="6.0" stroke-linecap="round" stroke-linejoin="round" />
<path d="M 125.0 210.0 L 122.5 212.5 L 121.25 215.0 L 128.75 213.75 L 145.0 206.25 L 161.25 196.25 L 172.5 187.5 L 168.75 188.75 " stroke="black" fill="none" stroke-width="6.0" stroke-linecap="round" stroke-linejoin="round" />
<path d="M 133.75 241.25 L 131.25 245.0 L 133.75 245.0 L 145.0 236.25 L 161.25 220.0 L 175.0 205.0 L 176.25 201.25 L 165.0 210.0 L 152.5 230.0 L 141.25 252.5 L 131.25 275.0 L 130.0 282.5 L 136.25 273.75 L 137.5 270.0 " stroke="black" fill="none" stroke-width="6.0" stroke-linecap="round" stroke-linejoin="round" />
<path d="M 167.5 213.75 L 168.75 212.5 L 171.25 215.0 L 177.5 230.0 L 188.75 252.5 L 203.75 262.5 L 218.75 263.75 L 233.75 258.75 L 241.25 255.0 L 243.75 251.25 L 245.0 246.25 L 240.0 231.25 L 235.0 201.25 L 231.25 147.5 " stroke="black" fill="none" stroke-width="6.0" stroke-linecap="round" stroke-linejoin="round" />
</svg>