<svg xmlns="http://www.w3.org/2000/svg" width="300" height="300" viewBox="0 0 300 300">
<path d="M 73.75 97.5 L 71.25 98.75 L 71.25 100.0 L 75.0 100.0 L 86.25 100.0 L 97.5 95.0 L 106.25 91.25 L 107.5 90.0 L 101.25 92.5 L 97.5 95.0 " stroke="black" fill="none" stroke-width="6.0" stroke-linecap="round" stroke-linejoin="round" />
<path d="M 63.75 147.5 L 63.75 151.25 L 66.25 152.5 L 78.75 146.25 L 95.0 133.75 L 110.0 118.75 L 118.75 107.5 L 120.0 105.0 L 115.0 106.25 L 108.75 112.5 L 103.75 118.75 L 101.25 126.25 L 100.0 141.25 L 102.5 176.25 L 108.75 216.25 L 110.0 238.75 L 110.0 247.5 L 106.25 250.0 L 101.25 250.0 L 96.25 243.75 L 93.75 238.75 " stroke="black" fill="none" stroke-width="6.0" stroke-linecap="round" stroke-linejoin="round" />
<path d="M 100.0 157.5 L 100.0 157.5 L 96.25 158.75 L 92.5 167.5 L 86.25 187.5 L 77.5 206.25 L 68.75 215.0 L 65.0 213.75 L 65.0 212.5 " stroke="black" fill="none" stroke-width="6.0" stroke-linecap="round" stroke-linejoin="round" />
<path d="M 93.75 158.75 L 93.75 158.75 L 96.25 158.75 L 101.25 161.25 L 113.75 171.25 L 130.0 182.5 L 140.0 191.25 L 141.25 192.5 " stroke="black" fill="none" stroke-width="6.0" stroke-linecap="round" stroke-linejoin="round" />
<path d="M 145.0 85.0 L 142.5 85.0 L 140.0 86.25 L 141.25 86.25 L 153.75 85.0 L 173.75 80.0 L 196.25 73.75 L 210.0 65.0 L 213.75 61.25 L 210.0 60.0 L 200.0 62.5 L 191.25 63.75 L 178.75 67.5 L 168.75 70.0 L 160.0 71.25 L 155.0 73.75 L 153.75 75.0 L 155.0 82.5 L 158.75 95.0 L 161.25 107.5 L 162.5 111.25 L 163.75 108.75 L 165.0 103.75 " stroke="black" fill="none" stroke-width="6.0" stroke-linecap="round" stroke-linejoin="round" />
<path d="M 191.25 62.5 L 191.25 62.5 L 191.25 62.5 L 190.0 71.25 L 182.5 93.75 L 172.5 111.25 " stroke="black" fill="none" stroke-width="6.0" stroke-linecap="round" stroke-linejoin="round" />
<path d="M 135.0 122.5 L 135.0 121.25 L 132.5 120.0 L 131.25 118.75 L 131.25 118.75 L 136.25 126.25 L 145.0 136.25 L 152.5 143.75 L 157.5 148.75 L 160.0 148.75 L 158.75 147.5 L 155.0 141.25 L 152.5 136.25 L 150.0 130.0 L 147.5 127.5 L 143.75 126.25 L 141.25 125.0 L 141.25 125.0 L 151.25 121.25 L 171.25 111.25 L 196.25 102.5 L 215.0 97.5 L 221.25 97.5 L 221.25 102.5 L 212.5 112.5 L 203.75 123.75 L 192.5 132.5 L 181.25 138.75 " stroke="black" fill="none" stroke-width="6.0" stroke-linecap="round" stroke-linejoin="round" />
<path d="M 166.25 115.0 L 166.25 115.0 L 166.25 115.0 L 165.0 120.0 L 165.0 132.5 L 165.0 142.5 L 165.0 146.25 " stroke="black" fill="none" stroke-width="6.0" stroke-linecap="round" stroke-linejoin="round" />
<path d="M 191.25 106.25 L 192.5 106.25 L 192.5 106.25 L 192.5 113.75 L 186.25 130.0 L 176.25 143.75 L 165.0 152.5 L 157.5 155.0 L 157.5 155.0 L 168.75 153.75 L 185.0 147.5 L 202.5 138.75 L 216.25 130.0 L 222.5 122.5 L 222.5 122.5 " stroke="black" fill="none" stroke-width="6.0" stroke-linecap="round" stroke-linejoin="round" />
<path d="M 142.5 185.0 L 138.75 185.0 L 136.25 186.25 L 136.25 186.25 L 145.0 183.75 L 162.5 173.75 L 185.0 161.25 L 202.5 151.25 L 207.5 147.5 L 203.75 148.75 L 195.0 155.0 L 186.25 158.75 " stroke="black" fill="none" stroke-width="6.0" stroke-linecap="round" stroke-linejoin="round" />
<path d="M 147.5 185.0 L 147.5 185.0 L 146.25 190.0 L 146.25 208.75 L 146.25 235.0 L 146.25 251.25 L 147.5 252.5 L 147.5 247.5 " stroke="black" fill="none" stroke-width="6.0" stroke-linecap="round" stroke-linejoin="round" />
<path d="M 150.0 226.25 L 148.75 226.25 L 146.25 226.25 L 146.25 226.25 L 151.25 226.25 L 161.25 225.0 L 171.25 225.0 L 180.0 226.25 L 181.25 226.25 " stroke="black" fill="none" stroke-width="6.0" stroke-linecap="round" stroke-linejoin="round" />
<path d="M 185.0 160.0 L 185.0 160.0 L 185.0 158.75 L 186.25 160.0 L 196.25 183.75 L 213.75 228.75 L 227.5 256.25 L 237.5 267.5 L 246.25 275.0 L 250.0 278.75 L 251.25 278.75 L 251.25 278.75 L 251.25 277.5 L 252.5 271.25 L 252.5 262.5 L 252.5 251.25 L 250.0 237.5 L 243.75 220.0 L 241.25 216.25 " stroke="black" fill="none" stroke-width="6.0" stroke-linecap="round" stroke-linejoin="round" />
<path d="M 223.75 196.25 L 213.75 203.75 L 202.5 217.5 L 193.75 235.0 L 187.5 240.0 " stroke="black" fill="none" stroke-width="6.0" stroke-linecap="round" stroke-linejoin="round" />
<path d="M 225.0 150.0 L 225.0 150.0 L 225.0 150.0 L 223.75 150.0 L 223.75 148.75 L 227.5 150.0 L 235.0 153.75 L 243.75 158.75 L 247.5 162.5 " stroke="black" fill="none" stroke-width="6.0" stroke-linecap="round" stroke-linejoin="round" />
</svg>