<svg xmlns="http://www.w3.org/2000/svg" width="300" height="300" viewBox="0 0 300 300">
<path d="M 100.0 81.25 L 98.75 81.25 L 96.25 81.25 L 96.25 81.25 L 112.5 81.25 L 138.75 78.75 L 166.25 70.0 L 183.75 61.25 L 187.5 58.75 L 173.75 62.5 " stroke="black" fill="none" stroke-width="6.0" stroke-linecap="round" stroke-linejoin="round" />
<path d="M 85.0 106.25 L 82.5 107.5 L 82.5 110.0 L 85.0 117.5 L 92.5 128.75 L 100.0 138.75 L 103.75 141.25 L 105.0 141.25 L 103.75 138.75 " stroke="black" fill="none" stroke-width="6.0" stroke-linecap="round" stroke-linejoin="round" />
<path d="M 95.0 120.0 L 93.75 118.75 L 93.75 118.75 L 98.75 116.25 L 126.25 108.75 L 168.75 102.5 L 203.75 100.0 L 213.75 102.5 L 211.25 108.75 L 198.75 121.25 L 178.75 130.0 L 157.5 135.0 L 147.5 135.0 " stroke="black" fill="none" stroke-width="6.0" stroke-linecap="round" stroke-linejoin="round" />
<path d="M 136.25 88.75 L 133.75 87.5 L 131.25 87.5 L 130.0 90.0 L 130.0 103.75 L 131.25 121.25 L 133.75 130.0 " stroke="black" fill="none" stroke-width="6.0" stroke-linecap="round" stroke-linejoin="round" />
<path d="M 163.75 83.75 L 163.75 82.5 L 162.5 86.25 L 156.25 98.75 L 147.5 115.0 L 136.25 127.5 L 123.75 133.75 L 117.5 136.25 L 118.75 136.25 L 130.0 136.25 L 147.5 133.75 L 168.75 123.75 L 188.75 111.25 L 193.75 105.0 " stroke="black" fill="none" stroke-width="6.0" stroke-linecap="round" stroke-linejoin="round" />
<path d="M 88.75 161.25 L 86.25 162.5 L 82.5 168.75 L 77.5 181.25 L 70.0 196.25 L 66.25 203.75 L 66.25 200.0 L 73.75 190.0 L 83.75 177.5 L 93.75 167.5 L 97.5 163.75 L 98.75 168.75 L 91.25 186.25 L 82.5 203.75 L 72.5 217.5 L 67.5 221.25 L 70.0 211.25 L 80.0 200.0 L 88.75 192.5 L 93.75 190.0 L 95.0 202.5 L 92.5 230.0 L 85.0 258.75 L 77.5 278.75 L 70.0 282.5 L 68.75 280.0 " stroke="black" fill="none" stroke-width="6.0" stroke-linecap="round" stroke-linejoin="round" />
<path d="M 121.25 147.5 L 121.25 147.5 L 121.25 147.5 L 122.5 150.0 L 131.25 155.0 L 147.5 160.0 L 167.5 158.75 L 180.0 153.75 L 183.75 150.0 L 173.75 150.0 L 170.0 150.0 " stroke="black" fill="none" stroke-width="6.0" stroke-linecap="round" stroke-linejoin="round" />
<path d="M 141.25 178.75 L 140.0 178.75 L 140.0 181.25 L 140.0 187.5 L 142.5 196.25 L 147.5 211.25 L 151.25 217.5 L 151.25 218.75 L 150.0 215.0 " stroke="black" fill="none" stroke-width="6.0" stroke-linecap="round" stroke-linejoin="round" />
<path d="M 147.5 180.0 L 147.5 178.75 L 145.0 176.25 L 143.75 175.0 L 148.75 175.0 L 161.25 173.75 L 176.25 172.5 L 186.25 172.5 L 187.5 173.75 L 180.0 181.25 L 166.25 190.0 L 151.25 197.5 L 143.75 201.25 L 142.5 201.25 L 150.0 197.5 L 162.5 191.25 L 175.0 186.25 L 185.0 182.5 L 186.25 182.5 L 182.5 190.0 L 172.5 200.0 L 161.25 208.75 L 151.25 216.25 L 147.5 218.75 L 150.0 216.25 L 161.25 210.0 L 176.25 201.25 L 187.5 195.0 L 191.25 193.75 L 185.0 201.25 L 172.5 213.75 L 157.5 231.25 L 141.25 246.25 L 136.25 252.5 L 138.75 251.25 L 148.75 241.25 L 163.75 230.0 L 180.0 217.5 L 196.25 208.75 L 202.5 207.5 L 205.0 212.5 L 201.25 226.25 L 191.25 243.75 L 175.0 258.75 L 153.75 271.25 L 138.75 275.0 L 131.25 272.5 " stroke="black" fill="none" stroke-width="6.0" stroke-linecap="round" stroke-linejoin="round" />
<path d="M 138.75 240.0 L 137.5 240.0 L 136.25 240.0 L 136.25 240.0 L 142.5 242.5 L 151.25 247.5 L 163.75 253.75 L 181.25 262.5 L 200.0 272.5 L 217.5 286.25 L 233.75 296.25 L 237.5 298.75 " stroke="black" fill="none" stroke-width="6.0" stroke-linecap="round" stroke-linejoin="round" />
</svg>