<svg xmlns="http://www.w3.org/2000/svg" width="300" height="300" viewBox="0 0 300 300">
<path d="M 73.75 92.5 L 72.5 92.5 L 68.75 93.75 L 68.75 95.0 L 72.5 96.25 L 82.5 97.5 L 93.75 97.5 L 102.5 95.0 L 105.0 92.5 " stroke="black" fill="none" stroke-width="6.0" stroke-linecap="round" stroke-linejoin="round" />
<path d="M 62.5 130.0 L 61.25 132.5 L 55.0 140.0 L 53.75 141.25 L 65.0 138.75 L 80.0 132.5 L 95.0 123.75 L 103.75 118.75 L 105.0 121.25 L 93.75 140.0 L 76.25 167.5 L 56.25 196.25 L 41.25 213.75 L 40.0 213.75 L 42.5 206.25 " stroke="black" fill="none" stroke-width="6.0" stroke-linecap="round" stroke-linejoin="round" />
<path d="M 85.0 151.25 L 85.0 151.25 L 85.0 152.5 L 85.0 161.25 L 90.0 192.5 L 95.0 226.25 L 100.0 243.75 L 102.5 243.75 L 103.75 241.25 L 101.25 228.75 L 101.25 216.25 " stroke="black" fill="none" stroke-width="6.0" stroke-linecap="round" stroke-linejoin="round" />
<path d="M 125.0 148.75 L 126.25 147.5 L 126.25 147.5 L 121.25 148.75 L 112.5 157.5 L 102.5 168.75 L 93.75 178.75 L 91.25 185.0 L 92.5 187.5 L 100.0 191.25 L 112.5 195.0 L 125.0 196.25 L 135.0 196.25 L 140.0 196.25 L 140.0 191.25 L 136.25 187.5 " stroke="black" fill="none" stroke-width="6.0" stroke-linecap="round" stroke-linejoin="round" />
<path d="M 153.75 105.0 L 148.75 108.75 L 145.0 110.0 L 146.25 110.0 L 156.25 106.25 L 172.5 98.75 L 185.0 91.25 L 190.0 86.25 L 185.0 85.0 L 172.5 87.5 L 162.5 88.75 L 156.25 88.75 L 153.75 88.75 L 156.25 92.5 L 162.5 102.5 L 166.25 118.75 L 166.25 132.5 L 158.75 140.0 L 150.0 143.75 L 141.25 145.0 L 138.75 146.25 L 140.0 146.25 L 151.25 143.75 L 171.25 136.25 L 196.25 121.25 L 212.5 106.25 L 217.5 96.25 L 216.25 90.0 L 212.5 86.25 L 207.5 83.75 L 201.25 83.75 L 193.75 90.0 L 182.5 112.5 L 163.75 157.5 L 145.0 211.25 L 136.25 240.0 L 131.25 247.5 " stroke="black" fill="none" stroke-width="6.0" stroke-linecap="round" stroke-linejoin="round" />
<path d="M 166.25 161.25 L 167.5 158.75 L 167.5 160.0 L 168.75 178.75 L 171.25 203.75 L 175.0 226.25 L 177.5 236.25 L 177.5 236.25 " stroke="black" fill="none" stroke-width="6.0" stroke-linecap="round" stroke-linejoin="round" />
<path d="M 178.75 162.5 L 176.25 160.0 L 176.25 157.5 L 182.5 155.0 L 195.0 152.5 L 208.75 155.0 L 216.25 175.0 L 216.25 203.75 L 210.0 228.75 L 205.0 241.25 L 202.5 243.75 L 198.75 238.75 " stroke="black" fill="none" stroke-width="6.0" stroke-linecap="round" stroke-linejoin="round" />
<path d="M 177.5 200.0 L 176.25 200.0 L 172.5 200.0 L 172.5 200.0 L 183.75 193.75 L 200.0 181.25 L 212.5 170.0 L 215.0 165.0 L 213.75 166.25 " stroke="black" fill="none" stroke-width="6.0" stroke-linecap="round" stroke-linejoin="round" />
<path d="M 185.0 236.25 L 182.5 242.5 L 183.75 243.75 L 195.0 237.5 L 210.0 222.5 L 218.75 211.25 " stroke="black" fill="none" stroke-width="6.0" stroke-linecap="round" stroke-linejoin="round" />
</svg>