<svg xmlns="http://www.w3.org/2000/svg" width="300" height="300" viewBox="0 0 300 300">
<path d="M 98.75 81.25 L 98.75 80.0 L 98.75 78.75 L 98.75 78.75 L 97.5 83.75 L 95.0 91.25 L 93.75 97.5 L 93.75 100.0 L 95.0 100.0 L 102.5 97.5 L 111.25 93.75 L 118.75 92.5 L 121.25 92.5 L 117.5 100.0 L 106.25 111.25 L 93.75 125.0 L 83.75 133.75 L 76.25 138.75 " stroke="black" fill="none" stroke-width="6.0" stroke-linecap="round" stroke-linejoin="round" />
<path d="M 77.5 136.25 L 76.25 137.5 L 75.0 138.75 L 73.75 147.5 L 75.0 176.25 L 77.5 212.5 L 78.75 227.5 L 78.75 228.75 " stroke="black" fill="none" stroke-width="6.0" stroke-linecap="round" stroke-linejoin="round" />
<path d="M 80.0 141.25 L 80.0 141.25 L 78.75 140.0 L 80.0 138.75 L 90.0 135.0 L 107.5 130.0 L 127.5 128.75 L 138.75 135.0 L 141.25 153.75 L 140.0 187.5 L 138.75 216.25 L 138.75 238.75 L 138.75 247.5 L 138.75 247.5 L 138.75 246.25 L 137.5 241.25 L 133.75 233.75 L 127.5 225.0 L 121.25 216.25 " stroke="black" fill="none" stroke-width="6.0" stroke-linecap="round" stroke-linejoin="round" />
<path d="M 87.5 173.75 L 81.25 175.0 L 80.0 175.0 L 87.5 167.5 L 101.25 157.5 L 115.0 148.75 L 123.75 142.5 L 121.25 141.25 L 116.25 141.25 " stroke="black" fill="none" stroke-width="6.0" stroke-linecap="round" stroke-linejoin="round" />
<path d="M 100.0 140.0 L 100.0 141.25 L 100.0 145.0 L 100.0 156.25 L 97.5 180.0 L 92.5 197.5 L 90.0 200.0 L 90.0 198.75 L 97.5 190.0 L 111.25 178.75 L 130.0 163.75 L 138.75 156.25 " stroke="black" fill="none" stroke-width="6.0" stroke-linecap="round" stroke-linejoin="round" />
<path d="M 158.75 75.0 L 158.75 75.0 L 155.0 78.75 L 155.0 83.75 L 161.25 87.5 L 175.0 88.75 L 192.5 82.5 L 206.25 72.5 L 208.75 66.25 L 205.0 63.75 " stroke="black" fill="none" stroke-width="6.0" stroke-linecap="round" stroke-linejoin="round" />
<path d="M 167.5 111.25 L 167.5 112.5 L 166.25 118.75 L 166.25 130.0 L 168.75 145.0 L 172.5 158.75 L 173.75 163.75 L 172.5 163.75 " stroke="black" fill="none" stroke-width="6.0" stroke-linecap="round" stroke-linejoin="round" />
<path d="M 165.0 120.0 L 165.0 118.75 L 163.75 117.5 L 170.0 113.75 L 183.75 110.0 L 200.0 108.75 L 210.0 111.25 L 213.75 118.75 L 208.75 130.0 L 198.75 141.25 L 188.75 147.5 L 186.25 148.75 " stroke="black" fill="none" stroke-width="6.0" stroke-linecap="round" stroke-linejoin="round" />
<path d="M 172.5 136.25 L 172.5 135.0 L 172.5 133.75 L 172.5 132.5 L 180.0 130.0 L 191.25 126.25 L 203.75 121.25 L 208.75 116.25 " stroke="black" fill="none" stroke-width="6.0" stroke-linecap="round" stroke-linejoin="round" />
<path d="M 172.5 151.25 L 171.25 153.75 L 171.25 155.0 L 180.0 153.75 L 193.75 147.5 L 206.25 140.0 L 211.25 136.25 " stroke="black" fill="none" stroke-width="6.0" stroke-linecap="round" stroke-linejoin="round" />
<path d="M 152.5 173.75 L 151.25 176.25 L 150.0 178.75 L 156.25 178.75 L 176.25 171.25 L 202.5 160.0 L 220.0 150.0 L 225.0 147.5 L 222.5 148.75 L 211.25 156.25 L 200.0 170.0 L 185.0 188.75 L 166.25 207.5 L 157.5 217.5 L 156.25 217.5 L 161.25 215.0 L 171.25 210.0 L 185.0 202.5 L 200.0 195.0 L 213.75 188.75 L 228.75 183.75 L 242.5 182.5 L 248.75 187.5 L 250.0 196.25 L 245.0 207.5 L 237.5 218.75 L 228.75 226.25 L 223.75 228.75 " stroke="black" fill="none" stroke-width="6.0" stroke-linecap="round" stroke-linejoin="round" />
<path d="M 196.25 195.0 L 193.75 198.75 L 188.75 207.5 L 185.0 220.0 L 183.75 235.0 L 182.5 241.25 " stroke="black" fill="none" stroke-width="6.0" stroke-linecap="round" stroke-linejoin="round" />
<path d="M 213.75 188.75 L 213.75 187.5 L 213.75 188.75 L 211.25 201.25 L 207.5 228.75 L 203.75 250.0 " stroke="black" fill="none" stroke-width="6.0" stroke-linecap="round" stroke-linejoin="round" />
</svg>