<svg xmlns="http://www.w3.org/2000/svg" width="300" height="300" viewBox="0 0 300 300">
<path d="M 76.25 87.5 L 76.25 87.5 L 75.0 87.5 L 76.25 87.5 L 85.0 90.0 L 93.75 91.25 L 102.5 92.5 L 106.25 95.0 L 105.0 96.25 " stroke="black" fill="none" stroke-width="6.0" stroke-linecap="round" stroke-linejoin="round" />
<path d="M 42.5 128.75 L 41.25 130.0 L 41.25 130.0 L 50.0 130.0 L 71.25 125.0 L 92.5 115.0 L 105.0 107.5 L 110.0 103.75 L 102.5 103.75 " stroke="black" fill="none" stroke-width="6.0" stroke-linecap="round" stroke-linejoin="round" />
<path d="M 56.25 155.0 L 56.25 156.25 L 61.25 156.25 L 75.0 150.0 L 90.0 142.5 L 100.0 136.25 L 100.0 136.25 L 98.75 137.5 " stroke="black" fill="none" stroke-width="6.0" stroke-linecap="round" stroke-linejoin="round" />
<path d="M 62.5 185.0 L 62.5 185.0 L 62.5 185.0 L 70.0 182.5 L 85.0 171.25 L 98.75 160.0 L 102.5 155.0 L 97.5 157.5 " stroke="black" fill="none" stroke-width="6.0" stroke-linecap="round" stroke-linejoin="round" />
<path d="M 43.75 208.75 L 43.75 210.0 L 47.5 213.75 L 61.25 223.75 L 78.75 237.5 L 90.0 243.75 L 91.25 245.0 L 87.5 243.75 L 78.75 240.0 L 67.5 237.5 L 58.75 233.75 L 55.0 230.0 L 58.75 222.5 L 77.5 211.25 L 97.5 202.5 L 112.5 197.5 L 116.25 200.0 L 108.75 211.25 L 97.5 227.5 L 87.5 238.75 L 83.75 238.75 L 87.5 226.25 " stroke="black" fill="none" stroke-width="6.0" stroke-linecap="round" stroke-linejoin="round" />
<path d="M 153.75 98.75 L 152.5 100.0 L 150.0 101.25 L 150.0 102.5 L 160.0 100.0 L 176.25 92.5 L 190.0 85.0 L 195.0 78.75 L 188.75 77.5 L 173.75 78.75 L 160.0 81.25 L 152.5 83.75 L 152.5 85.0 L 162.5 90.0 L 176.25 97.5 L 186.25 107.5 L 188.75 118.75 L 176.25 131.25 L 160.0 140.0 L 143.75 147.5 L 132.5 152.5 L 132.5 153.75 L 138.75 153.75 L 156.25 150.0 L 180.0 140.0 L 202.5 128.75 L 211.25 120.0 L 211.25 118.75 L 203.75 118.75 L 191.25 127.5 " stroke="black" fill="none" stroke-width="6.0" stroke-linecap="round" stroke-linejoin="round" />
<path d="M 140.0 195.0 L 138.75 196.25 L 138.75 197.5 L 145.0 197.5 L 166.25 185.0 L 197.5 162.5 L 216.25 143.75 L 222.5 135.0 L 218.75 135.0 L 208.75 137.5 L 203.75 140.0 " stroke="black" fill="none" stroke-width="6.0" stroke-linecap="round" stroke-linejoin="round" />
<path d="M 193.75 145.0 L 193.75 145.0 L 193.75 146.25 L 196.25 161.25 L 201.25 202.5 L 202.5 243.75 L 203.75 267.5 L 203.75 275.0 L 200.0 278.75 L 193.75 278.75 L 182.5 270.0 L 170.0 257.5 L 158.75 247.5 " stroke="black" fill="none" stroke-width="6.0" stroke-linecap="round" stroke-linejoin="round" />
<path d="M 151.25 192.5 L 151.25 192.5 L 151.25 192.5 L 152.5 193.75 L 160.0 207.5 L 171.25 231.25 L 173.75 240.0 " stroke="black" fill="none" stroke-width="6.0" stroke-linecap="round" stroke-linejoin="round" />
</svg>