<svg xmlns="http://www.w3.org/2000/svg" width="300" height="300" viewBox="0 0 300 300">
<path d="M 93.75 98.75 L 91.25 98.75 L 88.75 98.75 L 87.5 100.0 L 88.75 100.0 L 98.75 101.25 L 110.0 103.75 L 118.75 105.0 " stroke="black" fill="none" stroke-width="6.0" stroke-linecap="round" stroke-linejoin="round" />
<path d="M 63.75 140.0 L 63.75 140.0 L 63.75 140.0 L 66.25 140.0 L 77.5 138.75 L 95.0 135.0 L 110.0 128.75 L 116.25 125.0 L 115.0 125.0 " stroke="black" fill="none" stroke-width="6.0" stroke-linecap="round" stroke-linejoin="round" />
<path d="M 80.0 153.75 L 80.0 153.75 L 78.75 155.0 L 78.75 155.0 L 86.25 152.5 L 96.25 147.5 L 102.5 143.75 L 102.5 143.75 " stroke="black" fill="none" stroke-width="6.0" stroke-linecap="round" stroke-linejoin="round" />
<path d="M 73.75 183.75 L 71.25 186.25 L 68.75 188.75 L 71.25 190.0 L 83.75 185.0 L 96.25 175.0 L 106.25 166.25 L 106.25 165.0 " stroke="black" fill="none" stroke-width="6.0" stroke-linecap="round" stroke-linejoin="round" />
<path d="M 68.75 197.5 L 68.75 200.0 L 67.5 205.0 L 75.0 216.25 L 83.75 225.0 L 97.5 236.25 L 100.0 236.25 L 100.0 236.25 L 96.25 233.75 L 88.75 230.0 L 80.0 226.25 L 72.5 221.25 L 71.25 217.5 L 77.5 211.25 L 96.25 201.25 L 117.5 195.0 L 127.5 195.0 L 123.75 203.75 L 108.75 218.75 L 97.5 227.5 L 95.0 227.5 L 102.5 213.75 " stroke="black" fill="none" stroke-width="6.0" stroke-linecap="round" stroke-linejoin="round" />
<path d="M 138.75 120.0 L 133.75 122.5 L 132.5 123.75 L 140.0 123.75 L 158.75 123.75 L 185.0 118.75 L 205.0 112.5 L 211.25 110.0 L 203.75 113.75 L 192.5 120.0 " stroke="black" fill="none" stroke-width="6.0" stroke-linecap="round" stroke-linejoin="round" />
<path d="M 148.75 141.25 L 147.5 147.5 L 146.25 163.75 L 147.5 195.0 L 147.5 216.25 L 147.5 222.5 L 147.5 222.5 L 147.5 218.75 L 148.75 210.0 L 152.5 197.5 L 160.0 185.0 L 170.0 175.0 L 180.0 173.75 L 186.25 186.25 L 183.75 205.0 L 173.75 218.75 L 163.75 223.75 L 158.75 218.75 " stroke="black" fill="none" stroke-width="6.0" stroke-linecap="round" stroke-linejoin="round" />
<path d="M 190.0 97.5 L 190.0 96.25 L 190.0 95.0 L 195.0 105.0 L 206.25 146.25 L 223.75 196.25 L 243.75 226.25 L 256.25 240.0 L 261.25 245.0 L 262.5 245.0 L 262.5 245.0 L 262.5 243.75 L 261.25 235.0 L 258.75 221.25 L 256.25 203.75 L 250.0 182.5 L 248.75 177.5 " stroke="black" fill="none" stroke-width="6.0" stroke-linecap="round" stroke-linejoin="round" />
<path d="M 252.5 145.0 L 247.5 150.0 L 237.5 165.0 L 218.75 192.5 L 200.0 215.0 L 183.75 231.25 L 171.25 232.5 " stroke="black" fill="none" stroke-width="6.0" stroke-linecap="round" stroke-linejoin="round" />
<path d="M 222.5 86.25 L 223.75 83.75 L 226.25 81.25 L 238.75 85.0 L 252.5 100.0 L 263.75 125.0 L 265.0 131.25 " stroke="black" fill="none" stroke-width="6.0" stroke-linecap="round" stroke-linejoin="round" />
</svg>