<svg xmlns="http://www.w3.org/2000/svg" width="300" height="300" viewBox="0 0 300 300">
<path d="M 80.0 85.0 L 78.75 86.25 L 72.5 88.75 L 71.25 90.0 L 82.5 90.0 L 103.75 86.25 L 126.25 76.25 L 141.25 67.5 L 143.75 62.5 L 136.25 61.25 L 126.25 61.25 L 118.75 62.5 L 113.75 68.75 L 112.5 83.75 L 113.75 111.25 L 116.25 136.25 L 117.5 143.75 L 115.0 142.5 L 107.5 141.25 L 97.5 138.75 L 88.75 137.5 L 83.75 136.25 L 83.75 136.25 L 88.75 135.0 L 105.0 125.0 L 128.75 108.75 L 147.5 90.0 " stroke="black" fill="none" stroke-width="6.0" stroke-linecap="round" stroke-linejoin="round" />
<path d="M 160.0 47.5 L 160.0 47.5 L 158.75 48.75 L 158.75 48.75 L 165.0 50.0 L 177.5 51.25 L 190.0 52.5 L 193.75 53.75 L 187.5 57.5 " stroke="black" fill="none" stroke-width="6.0" stroke-linecap="round" stroke-linejoin="round" />
<path d="M 153.75 70.0 L 151.25 76.25 L 150.0 86.25 L 150.0 100.0 L 153.75 108.75 L 156.25 110.0 L 157.5 103.75 L 157.5 95.0 L 156.25 90.0 L 153.75 86.25 L 152.5 83.75 L 153.75 81.25 L 165.0 78.75 L 186.25 71.25 L 203.75 62.5 L 208.75 57.5 L 205.0 56.25 L 198.75 61.25 L 192.5 67.5 L 187.5 78.75 L 186.25 95.0 L 186.25 123.75 L 185.0 151.25 L 182.5 161.25 L 178.75 161.25 " stroke="black" fill="none" stroke-width="6.0" stroke-linecap="round" stroke-linejoin="round" />
<path d="M 130.0 147.5 L 128.75 147.5 L 128.75 147.5 L 131.25 146.25 L 142.5 146.25 L 153.75 148.75 L 161.25 152.5 L 161.25 157.5 L 157.5 160.0 " stroke="black" fill="none" stroke-width="6.0" stroke-linecap="round" stroke-linejoin="round" />
<path d="M 80.0 188.75 L 77.5 188.75 L 76.25 190.0 L 81.25 190.0 L 105.0 185.0 L 143.75 175.0 L 182.5 162.5 L 202.5 152.5 L 206.25 148.75 L 200.0 148.75 L 183.75 155.0 " stroke="black" fill="none" stroke-width="6.0" stroke-linecap="round" stroke-linejoin="round" />
<path d="M 121.25 203.75 L 121.25 206.25 L 126.25 206.25 L 142.5 202.5 L 160.0 193.75 L 173.75 185.0 L 177.5 181.25 L 166.25 185.0 L 161.25 187.5 " stroke="black" fill="none" stroke-width="6.0" stroke-linecap="round" stroke-linejoin="round" />
<path d="M 122.5 221.25 L 122.5 221.25 L 122.5 222.5 L 130.0 222.5 L 151.25 212.5 L 176.25 198.75 L 187.5 191.25 L 182.5 191.25 L 170.0 196.25 " stroke="black" fill="none" stroke-width="6.0" stroke-linecap="round" stroke-linejoin="round" />
<path d="M 121.25 233.75 L 118.75 236.25 L 118.75 242.5 L 127.5 252.5 L 142.5 262.5 L 155.0 267.5 L 160.0 268.75 L 160.0 267.5 L 153.75 263.75 L 142.5 260.0 L 128.75 256.25 L 118.75 252.5 L 117.5 250.0 L 132.5 243.75 L 157.5 232.5 L 186.25 221.25 L 202.5 217.5 L 203.75 221.25 L 192.5 235.0 L 175.0 250.0 L 157.5 261.25 L 152.5 263.75 L 158.75 258.75 L 172.5 246.25 L 183.75 236.25 " stroke="black" fill="none" stroke-width="6.0" stroke-linecap="round" stroke-linejoin="round" />
</svg>