<svg xmlns="http://www.w3.org/2000/svg" width="300" height="300" viewBox="0 0 300 300">
<path d="M 101.25 91.25 L 97.5 91.25 L 95.0 91.25 L 95.0 91.25 L 98.75 91.25 L 111.25 92.5 L 123.75 92.5 L 128.75 92.5 " stroke="black" fill="none" stroke-width="6.0" stroke-linecap="round" stroke-linejoin="round" />
<path d="M 70.0 135.0 L 68.75 136.25 L 68.75 136.25 L 73.75 137.5 L 86.25 135.0 L 112.5 123.75 L 127.5 115.0 L 131.25 111.25 L 126.25 112.5 " stroke="black" fill="none" stroke-width="6.0" stroke-linecap="round" stroke-linejoin="round" />
<path d="M 87.5 153.75 L 87.5 153.75 L 87.5 155.0 L 93.75 152.5 L 108.75 143.75 L 126.25 135.0 L 131.25 132.5 L 125.0 135.0 " stroke="black" fill="none" stroke-width="6.0" stroke-linecap="round" stroke-linejoin="round" />
<path d="M 80.0 195.0 L 77.5 197.5 L 76.25 200.0 L 82.5 197.5 L 97.5 185.0 L 113.75 171.25 L 121.25 161.25 L 116.25 162.5 L 102.5 176.25 L 92.5 190.0 L 87.5 208.75 L 92.5 231.25 L 103.75 243.75 L 113.75 246.25 L 116.25 245.0 L 115.0 243.75 L 107.5 242.5 L 100.0 240.0 L 93.75 236.25 L 90.0 231.25 L 95.0 221.25 L 113.75 207.5 L 137.5 197.5 L 148.75 197.5 L 148.75 200.0 L 128.75 225.0 L 115.0 235.0 L 106.25 232.5 L 106.25 228.75 " stroke="black" fill="none" stroke-width="6.0" stroke-linecap="round" stroke-linejoin="round" />
<path d="M 170.0 81.25 L 168.75 80.0 L 168.75 82.5 L 167.5 101.25 L 167.5 121.25 L 180.0 133.75 L 197.5 125.0 L 217.5 105.0 L 231.25 91.25 L 235.0 86.25 L 220.0 92.5 " stroke="black" fill="none" stroke-width="6.0" stroke-linecap="round" stroke-linejoin="round" />
<path d="M 145.0 201.25 L 146.25 201.25 L 150.0 202.5 L 168.75 196.25 L 203.75 176.25 L 235.0 156.25 L 252.5 146.25 L 253.75 143.75 L 242.5 142.5 L 223.75 145.0 L 205.0 147.5 L 196.25 146.25 L 195.0 141.25 L 198.75 136.25 L 201.25 135.0 L 203.75 135.0 L 206.25 146.25 L 207.5 178.75 L 207.5 228.75 L 207.5 271.25 L 207.5 285.0 L 207.5 288.75 L 203.75 290.0 L 192.5 287.5 L 188.75 286.25 " stroke="black" fill="none" stroke-width="6.0" stroke-linecap="round" stroke-linejoin="round" />
</svg>