<svg xmlns="http://www.w3.org/2000/svg" width="300" height="300" viewBox="0 0 300 300">
<path d="M 86.25 97.5 L 83.75 97.5 L 83.75 98.75 L 88.75 98.75 L 100.0 100.0 L 112.5 101.25 L 121.25 101.25 L 122.5 101.25 " stroke="black" fill="none" stroke-width="6.0" stroke-linecap="round" stroke-linejoin="round" />
<path d="M 72.5 135.0 L 72.5 136.25 L 71.25 137.5 L 76.25 137.5 L 90.0 132.5 L 107.5 123.75 L 120.0 117.5 L 127.5 110.0 L 123.75 110.0 " stroke="black" fill="none" stroke-width="6.0" stroke-linecap="round" stroke-linejoin="round" />
<path d="M 80.0 156.25 L 77.5 158.75 L 80.0 158.75 L 90.0 155.0 L 102.5 147.5 L 115.0 140.0 L 120.0 136.25 L 112.5 137.5 L 110.0 138.75 " stroke="black" fill="none" stroke-width="6.0" stroke-linecap="round" stroke-linejoin="round" />
<path d="M 77.5 181.25 L 77.5 183.75 L 76.25 185.0 L 83.75 181.25 L 96.25 171.25 L 111.25 160.0 L 117.5 152.5 L 111.25 153.75 L 108.75 155.0 " stroke="black" fill="none" stroke-width="6.0" stroke-linecap="round" stroke-linejoin="round" />
<path d="M 65.0 207.5 L 65.0 211.25 L 66.25 218.75 L 75.0 228.75 L 88.75 240.0 L 100.0 245.0 L 102.5 245.0 L 101.25 245.0 L 96.25 245.0 L 91.25 245.0 L 83.75 243.75 L 77.5 241.25 L 75.0 237.5 L 78.75 228.75 L 90.0 218.75 L 107.5 208.75 L 126.25 201.25 L 135.0 200.0 L 132.5 206.25 L 121.25 221.25 L 107.5 237.5 L 97.5 246.25 L 95.0 247.5 L 106.25 233.75 L 120.0 215.0 " stroke="black" fill="none" stroke-width="6.0" stroke-linecap="round" stroke-linejoin="round" />
<path d="M 162.5 92.5 L 158.75 91.25 L 155.0 91.25 L 153.75 91.25 L 157.5 93.75 L 165.0 102.5 L 171.25 112.5 L 172.5 118.75 " stroke="black" fill="none" stroke-width="6.0" stroke-linecap="round" stroke-linejoin="round" />
<path d="M 198.75 82.5 L 201.25 82.5 L 206.25 85.0 L 211.25 88.75 L 213.75 93.75 L 210.0 106.25 L 200.0 116.25 L 182.5 127.5 L 163.75 136.25 L 155.0 141.25 L 156.25 141.25 L 168.75 138.75 L 185.0 132.5 L 202.5 122.5 L 215.0 111.25 L 218.75 103.75 L 211.25 103.75 L 208.75 106.25 " stroke="black" fill="none" stroke-width="6.0" stroke-linecap="round" stroke-linejoin="round" />
<path d="M 153.75 180.0 L 153.75 181.25 L 153.75 182.5 L 165.0 178.75 L 188.75 165.0 L 210.0 152.5 L 220.0 145.0 L 222.5 142.5 L 212.5 145.0 L 200.0 153.75 L 192.5 157.5 " stroke="black" fill="none" stroke-width="6.0" stroke-linecap="round" stroke-linejoin="round" />
<path d="M 151.25 205.0 L 151.25 207.5 L 151.25 211.25 L 152.5 213.75 L 160.0 213.75 L 170.0 212.5 L 182.5 205.0 L 196.25 193.75 L 215.0 176.25 L 233.75 160.0 L 243.75 152.5 L 245.0 150.0 L 235.0 150.0 L 231.25 151.25 " stroke="black" fill="none" stroke-width="6.0" stroke-linecap="round" stroke-linejoin="round" />
<path d="M 193.75 133.75 L 193.75 132.5 L 192.5 132.5 L 192.5 132.5 L 191.25 132.5 L 191.25 132.5 L 191.25 132.5 L 191.25 132.5 L 192.5 132.5 L 195.0 135.0 L 197.5 142.5 L 201.25 162.5 L 203.75 201.25 L 205.0 238.75 L 203.75 261.25 L 202.5 271.25 L 200.0 278.75 L 196.25 281.25 " stroke="black" fill="none" stroke-width="6.0" stroke-linecap="round" stroke-linejoin="round" />
</svg>