<svg xmlns="http://www.w3.org/2000/svg" width="300" height="300" viewBox="0 0 300 300">
<path d="M 92.5 92.5 L 91.25 92.5 L 90.0 92.5 L 88.75 92.5 L 92.5 93.75 L 102.5 95.0 L 112.5 95.0 L 117.5 96.25 L 117.5 97.5 " stroke="black" fill="none" stroke-width="6.0" stroke-linecap="round" stroke-linejoin="round" />
<path d="M 73.75 128.75 L 71.25 131.25 L 70.0 132.5 L 78.75 130.0 L 92.5 122.5 L 107.5 113.75 L 117.5 107.5 L 120.0 105.0 L 117.5 105.0 " stroke="black" fill="none" stroke-width="6.0" stroke-linecap="round" stroke-linejoin="round" />
<path d="M 78.75 147.5 L 77.5 148.75 L 75.0 152.5 L 77.5 152.5 L 85.0 150.0 L 96.25 143.75 L 106.25 136.25 L 112.5 130.0 L 110.0 130.0 L 102.5 133.75 " stroke="black" fill="none" stroke-width="6.0" stroke-linecap="round" stroke-linejoin="round" />
<path d="M 76.25 173.75 L 75.0 176.25 L 75.0 177.5 L 82.5 173.75 L 95.0 163.75 L 106.25 152.5 L 111.25 146.25 L 106.25 146.25 " stroke="black" fill="none" stroke-width="6.0" stroke-linecap="round" stroke-linejoin="round" />
<path d="M 62.5 195.0 L 62.5 195.0 L 62.5 200.0 L 68.75 205.0 L 83.75 217.5 L 96.25 231.25 L 101.25 236.25 L 101.25 236.25 L 100.0 236.25 L 97.5 233.75 L 93.75 230.0 L 90.0 225.0 L 83.75 218.75 L 78.75 213.75 L 73.75 210.0 L 71.25 207.5 L 75.0 203.75 L 87.5 198.75 L 103.75 191.25 L 121.25 183.75 L 130.0 182.5 L 127.5 187.5 L 113.75 203.75 L 100.0 218.75 L 91.25 231.25 L 90.0 232.5 L 100.0 222.5 L 116.25 205.0 L 131.25 188.75 " stroke="black" fill="none" stroke-width="6.0" stroke-linecap="round" stroke-linejoin="round" />
<path d="M 168.75 87.5 L 166.25 87.5 L 165.0 87.5 L 168.75 90.0 L 175.0 98.75 L 178.75 111.25 L 178.75 121.25 L 175.0 125.0 " stroke="black" fill="none" stroke-width="6.0" stroke-linecap="round" stroke-linejoin="round" />
<path d="M 150.0 103.75 L 148.75 103.75 L 146.25 103.75 L 147.5 105.0 L 152.5 112.5 L 162.5 121.25 L 171.25 123.75 L 181.25 118.75 L 192.5 106.25 L 201.25 95.0 L 208.75 86.25 L 208.75 83.75 L 205.0 86.25 L 196.25 95.0 L 185.0 110.0 L 173.75 126.25 L 163.75 137.5 L 160.0 138.75 L 160.0 133.75 L 161.25 130.0 L 161.25 130.0 L 161.25 132.5 L 161.25 150.0 L 161.25 186.25 L 161.25 222.5 L 161.25 238.75 L 161.25 240.0 L 161.25 236.25 L 160.0 223.75 L 158.75 207.5 L 157.5 192.5 L 157.5 173.75 L 157.5 153.75 L 157.5 142.5 L 158.75 140.0 L 166.25 137.5 L 180.0 133.75 L 196.25 130.0 L 210.0 130.0 L 218.75 140.0 L 223.75 162.5 L 225.0 195.0 L 225.0 220.0 L 225.0 237.5 L 225.0 242.5 L 225.0 242.5 L 225.0 240.0 L 221.25 235.0 L 215.0 226.25 L 206.25 213.75 L 196.25 200.0 L 193.75 196.25 " stroke="black" fill="none" stroke-width="6.0" stroke-linecap="round" stroke-linejoin="round" />
<path d="M 167.5 173.75 L 163.75 175.0 L 161.25 175.0 L 165.0 173.75 L 178.75 166.25 L 195.0 157.5 L 207.5 148.75 L 211.25 143.75 " stroke="black" fill="none" stroke-width="6.0" stroke-linecap="round" stroke-linejoin="round" />
<path d="M 168.75 198.75 L 168.75 201.25 L 167.5 202.5 L 178.75 196.25 L 197.5 182.5 L 216.25 165.0 " stroke="black" fill="none" stroke-width="6.0" stroke-linecap="round" stroke-linejoin="round" />
</svg>