<svg xmlns="http://www.w3.org/2000/svg" width="300" height="300" viewBox="0 0 300 300">
<path d="M 75.0 93.75 L 75.0 93.75 L 75.0 96.25 L 78.75 98.75 L 91.25 100.0 L 103.75 101.25 L 113.75 101.25 L 112.5 100.0 " stroke="black" fill="none" stroke-width="6.0" stroke-linecap="round" stroke-linejoin="round" />
<path d="M 63.75 130.0 L 61.25 132.5 L 60.0 135.0 L 67.5 135.0 L 85.0 130.0 L 105.0 122.5 L 120.0 113.75 L 122.5 111.25 L 116.25 113.75 " stroke="black" fill="none" stroke-width="6.0" stroke-linecap="round" stroke-linejoin="round" />
<path d="M 71.25 158.75 L 71.25 160.0 L 70.0 160.0 L 75.0 160.0 L 86.25 156.25 L 100.0 150.0 L 107.5 145.0 L 106.25 143.75 L 98.75 148.75 " stroke="black" fill="none" stroke-width="6.0" stroke-linecap="round" stroke-linejoin="round" />
<path d="M 70.0 183.75 L 67.5 187.5 L 70.0 187.5 L 80.0 185.0 L 93.75 177.5 L 103.75 168.75 L 106.25 165.0 L 101.25 166.25 " stroke="black" fill="none" stroke-width="6.0" stroke-linecap="round" stroke-linejoin="round" />
<path d="M 61.25 196.25 L 61.25 197.5 L 61.25 203.75 L 67.5 213.75 L 80.0 230.0 L 90.0 238.75 L 93.75 240.0 L 93.75 237.5 L 90.0 232.5 L 83.75 228.75 L 76.25 225.0 L 70.0 221.25 L 66.25 218.75 L 67.5 216.25 L 82.5 208.75 L 103.75 200.0 L 122.5 195.0 L 128.75 195.0 L 121.25 205.0 L 106.25 218.75 L 93.75 231.25 L 90.0 233.75 L 96.25 222.5 L 107.5 206.25 " stroke="black" fill="none" stroke-width="6.0" stroke-linecap="round" stroke-linejoin="round" />
<path d="M 153.75 122.5 L 153.75 121.25 L 153.75 121.25 L 156.25 127.5 L 160.0 153.75 L 160.0 188.75 L 153.75 205.0 L 148.75 206.25 L 146.25 202.5 " stroke="black" fill="none" stroke-width="6.0" stroke-linecap="round" stroke-linejoin="round" />
<path d="M 191.25 121.25 L 191.25 121.25 L 191.25 121.25 L 191.25 121.25 L 195.0 127.5 L 200.0 153.75 L 200.0 188.75 L 196.25 205.0 L 193.75 205.0 L 191.25 201.25 " stroke="black" fill="none" stroke-width="6.0" stroke-linecap="round" stroke-linejoin="round" />
<path d="M 226.25 86.25 L 227.5 82.5 L 227.5 80.0 L 230.0 86.25 L 231.25 117.5 L 232.5 168.75 L 231.25 216.25 L 230.0 240.0 L 228.75 251.25 L 222.5 256.25 " stroke="black" fill="none" stroke-width="6.0" stroke-linecap="round" stroke-linejoin="round" />
</svg>