<svg xmlns="http://www.w3.org/2000/svg" width="300" height="300" viewBox="0 0 300 300">
<path d="M 75.0 87.5 L 73.75 87.5 L 73.75 87.5 L 82.5 87.5 L 93.75 88.75 L 103.75 90.0 L 107.5 91.25 L 106.25 92.5 " stroke="black" fill="none" stroke-width="6.0" stroke-linecap="round" stroke-linejoin="round" />
<path d="M 57.5 132.5 L 57.5 132.5 L 57.5 132.5 L 67.5 131.25 L 88.75 125.0 L 107.5 116.25 L 117.5 110.0 L 116.25 108.75 L 110.0 111.25 " stroke="black" fill="none" stroke-width="6.0" stroke-linecap="round" stroke-linejoin="round" />
<path d="M 73.75 148.75 L 72.5 150.0 L 72.5 151.25 L 77.5 151.25 L 90.0 146.25 L 102.5 138.75 L 110.0 133.75 L 106.25 135.0 L 102.5 137.5 " stroke="black" fill="none" stroke-width="6.0" stroke-linecap="round" stroke-linejoin="round" />
<path d="M 67.5 175.0 L 67.5 176.25 L 67.5 177.5 L 78.75 173.75 L 96.25 163.75 L 108.75 153.75 L 112.5 150.0 L 106.25 151.25 " stroke="black" fill="none" stroke-width="6.0" stroke-linecap="round" stroke-linejoin="round" />
<path d="M 65.0 187.5 L 65.0 190.0 L 66.25 198.75 L 76.25 211.25 L 87.5 222.5 L 95.0 228.75 L 96.25 228.75 L 93.75 228.75 L 87.5 225.0 L 81.25 221.25 L 75.0 217.5 L 72.5 213.75 L 75.0 207.5 L 85.0 201.25 L 101.25 195.0 L 116.25 191.25 L 120.0 191.25 L 113.75 201.25 L 101.25 213.75 L 91.25 220.0 L 88.75 218.75 L 88.75 215.0 " stroke="black" fill="none" stroke-width="6.0" stroke-linecap="round" stroke-linejoin="round" />
<path d="M 146.25 86.25 L 146.25 87.5 L 145.0 90.0 L 148.75 91.25 L 162.5 91.25 L 183.75 85.0 L 200.0 76.25 L 205.0 70.0 L 198.75 68.75 L 196.25 68.75 " stroke="black" fill="none" stroke-width="6.0" stroke-linecap="round" stroke-linejoin="round" />
<path d="M 166.25 75.0 L 166.25 75.0 L 165.0 75.0 L 162.5 76.25 L 166.25 85.0 L 168.75 103.75 L 167.5 121.25 L 161.25 130.0 L 151.25 131.25 L 141.25 131.25 L 131.25 130.0 L 130.0 130.0 L 136.25 128.75 L 151.25 126.25 L 173.75 120.0 L 202.5 108.75 L 223.75 95.0 L 227.5 88.75 " stroke="black" fill="none" stroke-width="6.0" stroke-linecap="round" stroke-linejoin="round" />
<path d="M 210.0 75.0 L 206.25 75.0 L 197.5 78.75 L 185.0 96.25 L 162.5 141.25 L 141.25 195.0 L 126.25 227.5 L 122.5 238.75 L 122.5 238.75 " stroke="black" fill="none" stroke-width="6.0" stroke-linecap="round" stroke-linejoin="round" />
<path d="M 173.75 140.0 L 173.75 142.5 L 172.5 147.5 L 172.5 163.75 L 173.75 195.0 L 177.5 216.25 L 180.0 227.5 L 181.25 227.5 " stroke="black" fill="none" stroke-width="6.0" stroke-linecap="round" stroke-linejoin="round" />
<path d="M 168.75 148.75 L 168.75 148.75 L 168.75 145.0 L 175.0 142.5 L 191.25 140.0 L 207.5 140.0 L 220.0 150.0 L 225.0 172.5 L 225.0 197.5 L 218.75 212.5 L 215.0 220.0 L 211.25 221.25 L 208.75 221.25 " stroke="black" fill="none" stroke-width="6.0" stroke-linecap="round" stroke-linejoin="round" />
<path d="M 172.5 193.75 L 172.5 192.5 L 172.5 192.5 L 177.5 190.0 L 193.75 185.0 L 213.75 176.25 L 225.0 168.75 L 225.0 166.25 " stroke="black" fill="none" stroke-width="6.0" stroke-linecap="round" stroke-linejoin="round" />
<path d="M 188.75 213.75 L 186.25 221.25 L 188.75 225.0 L 201.25 222.5 L 217.5 211.25 L 226.25 203.75 " stroke="black" fill="none" stroke-width="6.0" stroke-linecap="round" stroke-linejoin="round" />
</svg>