<svg xmlns="http://www.w3.org/2000/svg" width="300" height="300" viewBox="0 0 300 300">
<path d="M 85.0 95.0 L 82.5 96.25 L 81.25 97.5 L 83.75 98.75 L 93.75 101.25 L 106.25 102.5 L 111.25 102.5 " stroke="black" fill="none" stroke-width="6.0" stroke-linecap="round" stroke-linejoin="round" />
<path d="M 62.5 136.25 L 61.25 137.5 L 60.0 137.5 L 72.5 136.25 L 91.25 130.0 L 112.5 118.75 L 123.75 108.75 L 122.5 108.75 " stroke="black" fill="none" stroke-width="6.0" stroke-linecap="round" stroke-linejoin="round" />
<path d="M 77.5 153.75 L 76.25 153.75 L 78.75 153.75 L 91.25 146.25 L 106.25 136.25 L 116.25 130.0 L 113.75 131.25 " stroke="black" fill="none" stroke-width="6.0" stroke-linecap="round" stroke-linejoin="round" />
<path d="M 73.75 183.75 L 72.5 185.0 L 68.75 188.75 L 72.5 188.75 L 86.25 180.0 L 102.5 166.25 L 117.5 152.5 L 117.5 148.75 L 113.75 150.0 " stroke="black" fill="none" stroke-width="6.0" stroke-linecap="round" stroke-linejoin="round" />
<path d="M 65.0 202.5 L 65.0 203.75 L 65.0 211.25 L 75.0 222.5 L 90.0 232.5 L 100.0 237.5 L 106.25 237.5 L 105.0 236.25 L 98.75 232.5 L 91.25 227.5 L 83.75 223.75 L 78.75 220.0 L 77.5 215.0 L 91.25 206.25 L 113.75 196.25 L 132.5 191.25 L 135.0 196.25 L 122.5 211.25 L 106.25 225.0 L 96.25 231.25 L 98.75 222.5 L 116.25 195.0 " stroke="black" fill="none" stroke-width="6.0" stroke-linecap="round" stroke-linejoin="round" />
<path d="M 163.75 85.0 L 162.5 85.0 L 158.75 85.0 L 158.75 85.0 L 171.25 86.25 L 191.25 91.25 L 206.25 100.0 L 208.75 116.25 L 196.25 135.0 L 176.25 150.0 L 152.5 157.5 L 138.75 158.75 L 137.5 153.75 L 143.75 143.75 L 157.5 133.75 L 175.0 126.25 L 193.75 122.5 L 207.5 127.5 L 210.0 138.75 L 197.5 153.75 L 177.5 167.5 L 155.0 181.25 L 141.25 188.75 L 142.5 190.0 L 156.25 185.0 L 178.75 176.25 L 200.0 163.75 L 216.25 153.75 L 220.0 150.0 L 210.0 153.75 L 207.5 155.0 " stroke="black" fill="none" stroke-width="6.0" stroke-linecap="round" stroke-linejoin="round" />
<path d="M 146.25 201.25 L 145.0 203.75 L 142.5 208.75 L 143.75 217.5 L 151.25 232.5 L 163.75 243.75 L 175.0 247.5 L 183.75 248.75 L 183.75 248.75 L 181.25 245.0 L 175.0 241.25 L 166.25 235.0 L 158.75 230.0 L 153.75 226.25 L 153.75 222.5 L 166.25 215.0 L 191.25 205.0 L 217.5 196.25 L 233.75 193.75 L 236.25 197.5 L 226.25 208.75 L 211.25 222.5 L 195.0 236.25 L 185.0 243.75 L 186.25 243.75 L 198.75 235.0 L 216.25 218.75 L 230.0 205.0 " stroke="black" fill="none" stroke-width="6.0" stroke-linecap="round" stroke-linejoin="round" />
</svg>