<svg xmlns="http://www.w3.org/2000/svg" width="300" height="300" viewBox="0 0 300 300">
<path d="M 137.5 80.0 L 137.5 80.0 L 137.5 78.75 L 146.25 78.75 L 160.0 80.0 L 175.0 85.0 L 177.5 90.0 L 176.25 91.25 " stroke="black" fill="none" stroke-width="6.0" stroke-linecap="round" stroke-linejoin="round" />
<path d="M 81.25 111.25 L 80.0 111.25 L 76.25 112.5 L 80.0 112.5 L 102.5 112.5 L 142.5 107.5 L 183.75 101.25 L 212.5 96.25 L 221.25 92.5 L 213.75 92.5 " stroke="black" fill="none" stroke-width="6.0" stroke-linecap="round" stroke-linejoin="round" />
<path d="M 130.0 150.0 L 128.75 151.25 L 128.75 151.25 L 135.0 151.25 L 150.0 146.25 L 167.5 138.75 L 178.75 133.75 L 175.0 133.75 L 167.5 137.5 " stroke="black" fill="none" stroke-width="6.0" stroke-linecap="round" stroke-linejoin="round" />
<path d="M 118.75 185.0 L 117.5 186.25 L 117.5 187.5 L 131.25 186.25 L 148.75 177.5 L 181.25 160.0 L 191.25 153.75 L 185.0 155.0 L 170.0 162.5 L 153.75 171.25 L 138.75 185.0 L 126.25 198.75 L 123.75 211.25 L 133.75 228.75 L 146.25 243.75 L 156.25 253.75 L 161.25 257.5 L 161.25 257.5 L 160.0 256.25 L 155.0 255.0 L 148.75 251.25 L 141.25 245.0 L 135.0 238.75 L 132.5 231.25 L 135.0 222.5 L 152.5 210.0 L 180.0 197.5 L 206.25 191.25 L 215.0 191.25 L 212.5 198.75 L 201.25 215.0 L 182.5 235.0 L 165.0 251.25 L 160.0 255.0 L 175.0 247.5 L 197.5 228.75 L 217.5 207.5 L 221.25 202.5 " stroke="black" fill="none" stroke-width="6.0" stroke-linecap="round" stroke-linejoin="round" />
</svg>