<svg xmlns="http://www.w3.org/2000/svg" width="300" height="300" viewBox="0 0 300 300">
<path d="M 85.0 91.25 L 82.5 91.25 L 80.0 91.25 L 80.0 91.25 L 86.25 92.5 L 96.25 96.25 L 106.25 100.0 L 107.5 101.25 " stroke="black" fill="none" stroke-width="6.0" stroke-linecap="round" stroke-linejoin="round" />
<path d="M 51.25 132.5 L 48.75 133.75 L 46.25 135.0 L 46.25 136.25 L 53.75 135.0 L 72.5 125.0 L 88.75 113.75 L 105.0 100.0 L 108.75 95.0 L 102.5 96.25 " stroke="black" fill="none" stroke-width="6.0" stroke-linecap="round" stroke-linejoin="round" />
<path d="M 63.75 150.0 L 62.5 152.5 L 62.5 153.75 L 70.0 152.5 L 82.5 146.25 L 95.0 138.75 L 101.25 131.25 L 100.0 130.0 L 98.75 130.0 " stroke="black" fill="none" stroke-width="6.0" stroke-linecap="round" stroke-linejoin="round" />
<path d="M 65.0 172.5 L 65.0 173.75 L 67.5 175.0 L 76.25 170.0 L 90.0 160.0 L 101.25 151.25 L 102.5 148.75 L 100.0 148.75 " stroke="black" fill="none" stroke-width="6.0" stroke-linecap="round" stroke-linejoin="round" />
<path d="M 53.75 193.75 L 53.75 196.25 L 52.5 201.25 L 58.75 211.25 L 70.0 226.25 L 82.5 237.5 L 87.5 238.75 L 86.25 237.5 L 81.25 232.5 L 75.0 227.5 L 70.0 222.5 L 65.0 217.5 L 61.25 213.75 L 61.25 211.25 L 66.25 210.0 L 78.75 206.25 L 93.75 201.25 L 107.5 197.5 L 113.75 196.25 L 110.0 201.25 L 97.5 215.0 L 85.0 230.0 L 78.75 236.25 L 81.25 231.25 L 95.0 211.25 " stroke="black" fill="none" stroke-width="6.0" stroke-linecap="round" stroke-linejoin="round" />
<path d="M 128.75 110.0 L 123.75 111.25 L 123.75 112.5 L 137.5 113.75 L 158.75 112.5 L 187.5 106.25 L 210.0 98.75 L 218.75 93.75 L 217.5 92.5 L 208.75 92.5 L 206.25 92.5 " stroke="black" fill="none" stroke-width="6.0" stroke-linecap="round" stroke-linejoin="round" />
<path d="M 123.75 173.75 L 122.5 175.0 L 120.0 176.25 L 122.5 177.5 L 135.0 176.25 L 153.75 165.0 L 173.75 151.25 L 183.75 141.25 L 178.75 140.0 L 175.0 140.0 " stroke="black" fill="none" stroke-width="6.0" stroke-linecap="round" stroke-linejoin="round" />
<path d="M 133.75 145.0 L 133.75 145.0 L 132.5 145.0 L 132.5 146.25 L 133.75 160.0 L 135.0 190.0 L 133.75 211.25 L 130.0 217.5 L 128.75 217.5 " stroke="black" fill="none" stroke-width="6.0" stroke-linecap="round" stroke-linejoin="round" />
<path d="M 152.5 146.25 L 155.0 146.25 L 157.5 155.0 L 160.0 182.5 L 161.25 210.0 L 160.0 217.5 " stroke="black" fill="none" stroke-width="6.0" stroke-linecap="round" stroke-linejoin="round" />
<path d="M 175.0 83.75 L 175.0 83.75 L 175.0 83.75 L 173.75 83.75 L 175.0 92.5 L 186.25 131.25 L 198.75 182.5 L 207.5 217.5 L 217.5 240.0 L 226.25 248.75 L 230.0 252.5 L 232.5 252.5 L 232.5 252.5 L 235.0 251.25 L 236.25 245.0 L 237.5 237.5 L 237.5 227.5 L 237.5 217.5 L 235.0 205.0 L 232.5 198.75 " stroke="black" fill="none" stroke-width="6.0" stroke-linecap="round" stroke-linejoin="round" />
<path d="M 226.25 151.25 L 225.0 151.25 L 218.75 155.0 L 208.75 170.0 L 193.75 197.5 L 176.25 220.0 L 161.25 226.25 L 158.75 226.25 " stroke="black" fill="none" stroke-width="6.0" stroke-linecap="round" stroke-linejoin="round" />
<path d="M 213.75 67.5 L 213.75 67.5 L 213.75 67.5 L 217.5 68.75 L 225.0 73.75 L 237.5 85.0 L 242.5 91.25 " stroke="black" fill="none" stroke-width="6.0" stroke-linecap="round" stroke-linejoin="round" />
</svg>