<svg xmlns="http://www.w3.org/2000/svg" width="300" height="300" viewBox="0 0 300 300">
<path d="M 85.0 93.75 L 85.0 93.75 L 83.75 93.75 L 83.75 92.5 L 88.75 92.5 L 97.5 95.0 L 103.75 98.75 L 105.0 100.0 " stroke="black" fill="none" stroke-width="6.0" stroke-linecap="round" stroke-linejoin="round" />
<path d="M 70.0 125.0 L 67.5 127.5 L 65.0 128.75 L 71.25 130.0 L 85.0 128.75 L 96.25 125.0 L 113.75 117.5 L 120.0 113.75 L 112.5 113.75 " stroke="black" fill="none" stroke-width="6.0" stroke-linecap="round" stroke-linejoin="round" />
<path d="M 72.5 145.0 L 71.25 145.0 L 70.0 146.25 L 73.75 146.25 L 83.75 143.75 L 95.0 141.25 L 105.0 137.5 L 108.75 136.25 L 106.25 137.5 " stroke="black" fill="none" stroke-width="6.0" stroke-linecap="round" stroke-linejoin="round" />
<path d="M 72.5 178.75 L 70.0 181.25 L 68.75 183.75 L 73.75 183.75 L 87.5 178.75 L 103.75 167.5 L 117.5 157.5 L 121.25 153.75 L 116.25 155.0 L 102.5 163.75 L 91.25 176.25 L 82.5 195.0 L 80.0 218.75 L 86.25 240.0 L 95.0 248.75 L 98.75 250.0 L 100.0 248.75 L 100.0 248.75 L 97.5 247.5 L 93.75 246.25 L 87.5 242.5 L 81.25 238.75 L 77.5 233.75 L 76.25 230.0 L 80.0 225.0 L 92.5 217.5 L 110.0 212.5 L 123.75 210.0 L 126.25 212.5 L 117.5 223.75 L 101.25 237.5 L 90.0 245.0 L 86.25 238.75 " stroke="black" fill="none" stroke-width="6.0" stroke-linecap="round" stroke-linejoin="round" />
<path d="M 165.0 87.5 L 161.25 88.75 L 156.25 90.0 L 160.0 90.0 L 176.25 88.75 L 196.25 85.0 L 212.5 78.75 L 222.5 73.75 L 222.5 72.5 L 210.0 76.25 L 198.75 78.75 L 186.25 80.0 L 177.5 78.75 L 172.5 76.25 L 173.75 73.75 L 178.75 76.25 L 185.0 90.0 L 187.5 116.25 L 187.5 136.25 L 186.25 143.75 L 182.5 143.75 L 177.5 137.5 L 175.0 133.75 " stroke="black" fill="none" stroke-width="6.0" stroke-linecap="round" stroke-linejoin="round" />
<path d="M 162.5 121.25 L 161.25 121.25 L 161.25 122.5 L 163.75 122.5 L 178.75 120.0 L 196.25 113.75 L 208.75 108.75 L 211.25 106.25 L 206.25 106.25 " stroke="black" fill="none" stroke-width="6.0" stroke-linecap="round" stroke-linejoin="round" />
<path d="M 136.25 163.75 L 135.0 166.25 L 138.75 167.5 L 160.0 160.0 L 196.25 146.25 L 227.5 132.5 L 243.75 122.5 L 243.75 121.25 L 232.5 123.75 L 215.0 131.25 L 201.25 137.5 L 188.75 142.5 L 182.5 147.5 L 182.5 153.75 L 182.5 163.75 L 185.0 187.5 L 187.5 218.75 L 191.25 245.0 L 192.5 255.0 L 193.75 255.0 L 193.75 253.75 L 191.25 246.25 L 187.5 237.5 L 186.25 233.75 " stroke="black" fill="none" stroke-width="6.0" stroke-linecap="round" stroke-linejoin="round" />
<path d="M 182.5 175.0 L 180.0 175.0 L 180.0 173.75 L 187.5 168.75 L 202.5 162.5 L 220.0 161.25 L 232.5 173.75 L 237.5 201.25 L 235.0 231.25 L 230.0 247.5 L 226.25 253.75 L 225.0 253.75 L 220.0 250.0 L 215.0 245.0 " stroke="black" fill="none" stroke-width="6.0" stroke-linecap="round" stroke-linejoin="round" />
<path d="M 188.75 197.5 L 187.5 197.5 L 183.75 197.5 L 187.5 196.25 L 201.25 190.0 L 217.5 182.5 L 231.25 173.75 L 236.25 170.0 " stroke="black" fill="none" stroke-width="6.0" stroke-linecap="round" stroke-linejoin="round" />
<path d="M 193.75 213.75 L 192.5 216.25 L 188.75 220.0 L 195.0 220.0 L 212.5 211.25 L 228.75 200.0 " stroke="black" fill="none" stroke-width="6.0" stroke-linecap="round" stroke-linejoin="round" />
</svg>