<svg xmlns="http://www.w3.org/2000/svg" width="300" height="300" viewBox="0 0 300 300">
<path d="M 83.75 102.5 L 80.0 100.0 L 78.75 98.75 L 78.75 98.75 L 87.5 97.5 L 98.75 97.5 L 113.75 97.5 L 123.75 97.5 L 125.0 98.75 " stroke="black" fill="none" stroke-width="6.0" stroke-linecap="round" stroke-linejoin="round" />
<path d="M 68.75 141.25 L 63.75 143.75 L 63.75 145.0 L 77.5 145.0 L 93.75 138.75 L 111.25 130.0 L 126.25 121.25 L 122.5 120.0 " stroke="black" fill="none" stroke-width="6.0" stroke-linecap="round" stroke-linejoin="round" />
<path d="M 77.5 162.5 L 71.25 166.25 L 71.25 167.5 L 80.0 165.0 L 92.5 157.5 L 105.0 150.0 L 113.75 143.75 L 113.75 142.5 L 108.75 145.0 " stroke="black" fill="none" stroke-width="6.0" stroke-linecap="round" stroke-linejoin="round" />
<path d="M 67.5 196.25 L 62.5 200.0 L 65.0 200.0 L 78.75 195.0 L 97.5 183.75 L 112.5 171.25 L 117.5 165.0 L 107.5 168.75 " stroke="black" fill="none" stroke-width="6.0" stroke-linecap="round" stroke-linejoin="round" />
<path d="M 58.75 212.5 L 58.75 217.5 L 60.0 227.5 L 71.25 241.25 L 83.75 248.75 L 92.5 250.0 L 93.75 250.0 L 91.25 248.75 L 85.0 247.5 L 75.0 245.0 L 68.75 241.25 L 65.0 238.75 L 71.25 232.5 L 88.75 222.5 L 108.75 212.5 L 122.5 210.0 L 122.5 215.0 L 108.75 231.25 L 95.0 246.25 L 90.0 251.25 L 96.25 241.25 L 98.75 236.25 " stroke="black" fill="none" stroke-width="6.0" stroke-linecap="round" stroke-linejoin="round" />
<path d="M 163.75 97.5 L 160.0 98.75 L 156.25 100.0 L 155.0 100.0 L 162.5 101.25 L 175.0 101.25 L 187.5 101.25 L 196.25 100.0 L 196.25 100.0 " stroke="black" fill="none" stroke-width="6.0" stroke-linecap="round" stroke-linejoin="round" />
<path d="M 145.0 142.5 L 143.75 143.75 L 143.75 145.0 L 151.25 143.75 L 170.0 136.25 L 192.5 126.25 L 202.5 121.25 L 203.75 121.25 L 198.75 136.25 L 196.25 163.75 L 196.25 206.25 L 195.0 250.0 L 196.25 265.0 L 197.5 268.75 L 197.5 268.75 L 193.75 263.75 L 187.5 252.5 L 177.5 240.0 L 172.5 232.5 " stroke="black" fill="none" stroke-width="6.0" stroke-linecap="round" stroke-linejoin="round" />
<path d="M 142.5 193.75 L 138.75 193.75 L 137.5 193.75 L 138.75 193.75 L 147.5 192.5 L 156.25 192.5 L 161.25 193.75 L 158.75 206.25 L 147.5 222.5 L 140.0 232.5 L 143.75 230.0 L 165.0 211.25 L 192.5 187.5 L 215.0 166.25 L 226.25 156.25 L 227.5 156.25 L 227.5 165.0 L 227.5 180.0 L 231.25 191.25 L 242.5 195.0 L 258.75 195.0 L 268.75 195.0 L 271.25 203.75 L 267.5 217.5 L 260.0 233.75 L 255.0 245.0 L 251.25 248.75 " stroke="black" fill="none" stroke-width="6.0" stroke-linecap="round" stroke-linejoin="round" />
</svg>