<svg xmlns="http://www.w3.org/2000/svg" width="300" height="300" viewBox="0 0 300 300">
<path d="M 86.25 78.75 L 82.5 80.0 L 78.75 81.25 L 78.75 81.25 L 82.5 81.25 L 92.5 80.0 L 103.75 76.25 L 112.5 72.5 L 117.5 68.75 L 115.0 68.75 L 106.25 72.5 L 100.0 75.0 L 95.0 77.5 L 91.25 78.75 L 90.0 81.25 L 90.0 85.0 L 90.0 92.5 L 90.0 110.0 L 92.5 128.75 L 93.75 140.0 L 95.0 140.0 L 95.0 133.75 L 95.0 125.0 L 95.0 123.75 " stroke="black" fill="none" stroke-width="6.0" stroke-linecap="round" stroke-linejoin="round" />
<path d="M 92.5 102.5 L 91.25 103.75 L 88.75 105.0 L 88.75 105.0 L 90.0 105.0 L 96.25 102.5 L 105.0 97.5 L 112.5 93.75 L 115.0 92.5 L 115.0 91.25 " stroke="black" fill="none" stroke-width="6.0" stroke-linecap="round" stroke-linejoin="round" />
<path d="M 97.5 115.0 L 96.25 118.75 L 95.0 121.25 L 96.25 121.25 L 103.75 117.5 L 113.75 111.25 L 117.5 106.25 " stroke="black" fill="none" stroke-width="6.0" stroke-linecap="round" stroke-linejoin="round" />
<path d="M 140.0 82.5 L 138.75 82.5 L 136.25 82.5 L 135.0 82.5 L 136.25 82.5 L 143.75 80.0 L 153.75 75.0 L 160.0 71.25 L 161.25 68.75 L 157.5 68.75 L 151.25 70.0 L 145.0 71.25 L 137.5 71.25 L 133.75 70.0 L 131.25 66.25 L 130.0 65.0 L 130.0 66.25 L 131.25 73.75 L 132.5 85.0 L 133.75 95.0 L 135.0 98.75 L 140.0 100.0 L 147.5 97.5 L 156.25 92.5 L 165.0 90.0 L 171.25 90.0 L 175.0 92.5 L 175.0 101.25 L 170.0 112.5 L 163.75 122.5 L 160.0 127.5 L 156.25 127.5 L 153.75 126.25 " stroke="black" fill="none" stroke-width="6.0" stroke-linecap="round" stroke-linejoin="round" />
<path d="M 152.5 95.0 L 151.25 97.5 L 148.75 103.75 L 145.0 113.75 L 140.0 127.5 L 137.5 137.5 " stroke="black" fill="none" stroke-width="6.0" stroke-linecap="round" stroke-linejoin="round" />
<path d="M 185.0 76.25 L 181.25 76.25 L 178.75 76.25 L 177.5 76.25 L 183.75 75.0 L 192.5 71.25 L 202.5 70.0 L 208.75 70.0 L 210.0 76.25 L 208.75 91.25 L 203.75 110.0 L 198.75 125.0 L 196.25 132.5 L 195.0 131.25 " stroke="black" fill="none" stroke-width="6.0" stroke-linecap="round" stroke-linejoin="round" />
<path d="M 187.5 93.75 L 185.0 93.75 L 181.25 93.75 L 181.25 95.0 L 183.75 95.0 L 191.25 92.5 L 200.0 90.0 L 203.75 88.75 L 205.0 88.75 " stroke="black" fill="none" stroke-width="6.0" stroke-linecap="round" stroke-linejoin="round" />
<path d="M 180.0 111.25 L 178.75 115.0 L 178.75 115.0 L 186.25 113.75 L 198.75 106.25 L 210.0 98.75 L 211.25 97.5 " stroke="black" fill="none" stroke-width="6.0" stroke-linecap="round" stroke-linejoin="round" />
<path d="M 50.0 151.25 L 50.0 153.75 L 47.5 155.0 L 46.25 155.0 L 48.75 155.0 L 63.75 155.0 L 92.5 151.25 L 127.5 147.5 L 165.0 140.0 L 197.5 131.25 L 213.75 125.0 L 218.75 121.25 L 217.5 121.25 L 210.0 120.0 L 200.0 121.25 L 188.75 125.0 " stroke="black" fill="none" stroke-width="6.0" stroke-linecap="round" stroke-linejoin="round" />
<path d="M 136.25 151.25 L 132.5 152.5 L 123.75 158.75 L 113.75 171.25 L 100.0 187.5 L 85.0 201.25 L 68.75 210.0 L 58.75 211.25 L 55.0 203.75 L 56.25 200.0 " stroke="black" fill="none" stroke-width="6.0" stroke-linecap="round" stroke-linejoin="round" />
<path d="M 153.75 138.75 L 158.75 138.75 L 177.5 138.75 L 196.25 145.0 L 215.0 151.25 L 232.5 158.75 L 248.75 165.0 L 256.25 170.0 L 256.25 173.75 L 253.75 176.25 " stroke="black" fill="none" stroke-width="6.0" stroke-linecap="round" stroke-linejoin="round" />
<path d="M 136.25 166.25 L 136.25 166.25 L 136.25 166.25 L 140.0 167.5 L 150.0 168.75 L 161.25 168.75 L 171.25 168.75 L 168.75 171.25 " stroke="black" fill="none" stroke-width="6.0" stroke-linecap="round" stroke-linejoin="round" />
<path d="M 116.25 193.75 L 116.25 193.75 L 116.25 195.0 L 117.5 195.0 L 131.25 195.0 L 155.0 187.5 L 180.0 178.75 L 195.0 172.5 L 196.25 171.25 L 186.25 175.0 L 172.5 182.5 L 158.75 188.75 L 145.0 196.25 L 135.0 205.0 L 128.75 211.25 L 128.75 211.25 L 137.5 210.0 L 151.25 203.75 L 166.25 196.25 L 178.75 191.25 L 182.5 188.75 L 173.75 192.5 L 166.25 196.25 " stroke="black" fill="none" stroke-width="6.0" stroke-linecap="round" stroke-linejoin="round" />
<path d="M 127.5 231.25 L 127.5 232.5 L 126.25 235.0 L 131.25 233.75 L 147.5 226.25 L 168.75 213.75 L 185.0 203.75 L 188.75 201.25 L 178.75 203.75 L 163.75 210.0 L 150.0 216.25 L 137.5 225.0 L 130.0 233.75 L 128.75 240.0 L 133.75 248.75 L 142.5 260.0 L 152.5 270.0 L 162.5 275.0 L 167.5 276.25 L 167.5 275.0 L 162.5 272.5 L 156.25 268.75 L 150.0 265.0 L 145.0 261.25 L 142.5 257.5 L 146.25 252.5 L 163.75 243.75 L 188.75 232.5 L 208.75 222.5 L 215.0 220.0 L 213.75 227.5 L 202.5 243.75 L 188.75 260.0 L 172.5 273.75 L 166.25 281.25 L 170.0 278.75 L 182.5 270.0 L 198.75 257.5 L 211.25 245.0 L 216.25 236.25 " stroke="black" fill="none" stroke-width="6.0" stroke-linecap="round" stroke-linejoin="round" />
</svg>