<svg xmlns="http://www.w3.org/2000/svg" width="300" height="300" viewBox="0 0 300 300">
<path d="M 83.75 95.0 L 81.25 95.0 L 78.75 95.0 L 80.0 95.0 L 87.5 93.75 L 97.5 93.75 L 106.25 92.5 L 106.25 92.5 " stroke="black" fill="none" stroke-width="6.0" stroke-linecap="round" stroke-linejoin="round" />
<path d="M 73.75 136.25 L 73.75 136.25 L 71.25 137.5 L 71.25 137.5 L 80.0 135.0 L 90.0 130.0 L 103.75 121.25 L 107.5 117.5 L 107.5 117.5 " stroke="black" fill="none" stroke-width="6.0" stroke-linecap="round" stroke-linejoin="round" />
<path d="M 76.25 156.25 L 76.25 157.5 L 76.25 157.5 L 76.25 157.5 L 83.75 155.0 L 95.0 147.5 L 103.75 141.25 L 105.0 140.0 " stroke="black" fill="none" stroke-width="6.0" stroke-linecap="round" stroke-linejoin="round" />
<path d="M 67.5 196.25 L 67.5 196.25 L 70.0 196.25 L 81.25 188.75 L 98.75 172.5 L 108.75 162.5 L 107.5 161.25 " stroke="black" fill="none" stroke-width="6.0" stroke-linecap="round" stroke-linejoin="round" />
<path d="M 61.25 211.25 L 62.5 217.5 L 68.75 228.75 L 81.25 240.0 L 90.0 243.75 L 93.75 245.0 L 93.75 245.0 L 81.25 242.5 L 75.0 238.75 L 71.25 235.0 L 72.5 227.5 L 82.5 216.25 L 96.25 206.25 L 110.0 201.25 L 115.0 202.5 L 107.5 213.75 L 96.25 227.5 L 87.5 236.25 L 85.0 235.0 L 88.75 221.25 " stroke="black" fill="none" stroke-width="6.0" stroke-linecap="round" stroke-linejoin="round" />
<path d="M 140.0 90.0 L 140.0 90.0 L 140.0 90.0 L 141.25 90.0 L 148.75 90.0 L 160.0 90.0 L 170.0 90.0 L 171.25 90.0 L 163.75 92.5 " stroke="black" fill="none" stroke-width="6.0" stroke-linecap="round" stroke-linejoin="round" />
<path d="M 126.25 118.75 L 126.25 118.75 L 126.25 118.75 L 133.75 116.25 L 150.0 106.25 L 167.5 97.5 L 177.5 92.5 L 175.0 91.25 L 163.75 95.0 L 155.0 100.0 L 147.5 105.0 L 142.5 111.25 L 140.0 118.75 L 140.0 132.5 L 141.25 146.25 L 142.5 155.0 L 143.75 155.0 L 146.25 147.5 L 148.75 138.75 L 151.25 128.75 L 155.0 120.0 L 158.75 113.75 L 161.25 111.25 L 161.25 120.0 L 156.25 133.75 L 148.75 147.5 L 140.0 157.5 L 132.5 163.75 L 132.5 163.75 L 146.25 155.0 L 168.75 141.25 L 195.0 122.5 L 211.25 106.25 L 215.0 98.75 L 211.25 96.25 L 206.25 93.75 L 201.25 92.5 L 196.25 90.0 L 193.75 87.5 L 192.5 87.5 L 192.5 90.0 L 197.5 110.0 L 206.25 148.75 L 220.0 202.5 L 237.5 240.0 L 252.5 256.25 L 260.0 263.75 L 262.5 266.25 L 263.75 266.25 L 263.75 266.25 L 263.75 266.25 L 263.75 265.0 L 262.5 262.5 L 261.25 257.5 L 258.75 252.5 L 256.25 245.0 L 252.5 232.5 " stroke="black" fill="none" stroke-width="6.0" stroke-linecap="round" stroke-linejoin="round" />
<path d="M 250.0 147.5 L 247.5 147.5 L 240.0 152.5 L 226.25 168.75 L 208.75 191.25 L 196.25 203.75 L 188.75 202.5 " stroke="black" fill="none" stroke-width="6.0" stroke-linecap="round" stroke-linejoin="round" />
<path d="M 217.5 105.0 L 217.5 103.75 L 218.75 103.75 L 222.5 102.5 L 230.0 105.0 L 236.25 112.5 " stroke="black" fill="none" stroke-width="6.0" stroke-linecap="round" stroke-linejoin="round" />
<path d="M 153.75 175.0 L 153.75 175.0 L 153.75 175.0 L 153.75 178.75 L 153.75 197.5 L 156.25 225.0 L 158.75 242.5 L 158.75 243.75 L 157.5 238.75 L 157.5 235.0 " stroke="black" fill="none" stroke-width="6.0" stroke-linecap="round" stroke-linejoin="round" />
<path d="M 153.75 188.75 L 152.5 186.25 L 152.5 181.25 L 155.0 177.5 L 162.5 173.75 L 173.75 173.75 L 183.75 182.5 L 187.5 201.25 L 186.25 222.5 L 180.0 238.75 L 176.25 243.75 L 172.5 243.75 L 168.75 237.5 L 167.5 233.75 " stroke="black" fill="none" stroke-width="6.0" stroke-linecap="round" stroke-linejoin="round" />
<path d="M 157.5 211.25 L 157.5 211.25 L 153.75 211.25 L 152.5 211.25 L 153.75 211.25 L 165.0 205.0 L 180.0 197.5 L 188.75 192.5 L 186.25 193.75 " stroke="black" fill="none" stroke-width="6.0" stroke-linecap="round" stroke-linejoin="round" />
<path d="M 153.75 248.75 L 153.75 251.25 L 153.75 253.75 L 160.0 252.5 L 177.5 243.75 L 193.75 230.0 " stroke="black" fill="none" stroke-width="6.0" stroke-linecap="round" stroke-linejoin="round" />
</svg>