<svg xmlns="http://www.w3.org/2000/svg" width="300" height="300" viewBox="0 0 300 300">
<path d="M 91.25 100.0 L 91.25 98.75 L 90.0 97.5 L 88.75 96.25 L 90.0 95.0 L 95.0 96.25 L 105.0 97.5 L 115.0 98.75 L 118.75 100.0 L 118.75 101.25 " stroke="black" fill="none" stroke-width="6.0" stroke-linecap="round" stroke-linejoin="round" />
<path d="M 61.25 138.75 L 57.5 142.5 L 55.0 143.75 L 66.25 142.5 L 85.0 135.0 L 107.5 123.75 L 128.75 108.75 L 136.25 100.0 L 136.25 100.0 " stroke="black" fill="none" stroke-width="6.0" stroke-linecap="round" stroke-linejoin="round" />
<path d="M 83.75 152.5 L 81.25 156.25 L 82.5 156.25 L 91.25 151.25 L 101.25 143.75 L 111.25 136.25 L 115.0 132.5 L 113.75 132.5 " stroke="black" fill="none" stroke-width="6.0" stroke-linecap="round" stroke-linejoin="round" />
<path d="M 73.75 182.5 L 72.5 185.0 L 73.75 186.25 L 83.75 181.25 L 98.75 170.0 L 112.5 160.0 L 115.0 155.0 L 113.75 155.0 " stroke="black" fill="none" stroke-width="6.0" stroke-linecap="round" stroke-linejoin="round" />
<path d="M 82.5 187.5 L 81.25 191.25 L 81.25 201.25 L 87.5 215.0 L 96.25 230.0 L 102.5 237.5 L 102.5 237.5 L 102.5 235.0 L 97.5 231.25 L 93.75 226.25 L 87.5 221.25 L 83.75 215.0 L 82.5 211.25 L 85.0 206.25 L 96.25 200.0 L 113.75 193.75 L 128.75 190.0 L 133.75 190.0 L 127.5 200.0 L 115.0 213.75 L 103.75 225.0 L 100.0 230.0 L 106.25 221.25 L 122.5 203.75 " stroke="black" fill="none" stroke-width="6.0" stroke-linecap="round" stroke-linejoin="round" />
<path d="M 150.0 96.25 L 148.75 96.25 L 146.25 95.0 L 146.25 95.0 L 148.75 103.75 L 153.75 127.5 L 160.0 148.75 L 163.75 157.5 L 163.75 157.5 L 162.5 150.0 L 160.0 141.25 L 158.75 133.75 L 155.0 123.75 L 151.25 116.25 L 147.5 108.75 L 146.25 103.75 L 146.25 101.25 L 155.0 98.75 L 171.25 96.25 L 191.25 93.75 L 206.25 92.5 L 212.5 92.5 L 212.5 97.5 L 207.5 107.5 L 200.0 122.5 L 191.25 135.0 L 182.5 142.5 L 176.25 145.0 " stroke="black" fill="none" stroke-width="6.0" stroke-linecap="round" stroke-linejoin="round" />
<path d="M 158.75 130.0 L 157.5 130.0 L 151.25 130.0 L 150.0 130.0 L 157.5 125.0 L 172.5 116.25 L 190.0 107.5 L 202.5 100.0 L 205.0 95.0 L 197.5 95.0 " stroke="black" fill="none" stroke-width="6.0" stroke-linecap="round" stroke-linejoin="round" />
<path d="M 176.25 100.0 L 175.0 101.25 L 173.75 102.5 L 173.75 111.25 L 175.0 130.0 L 176.25 147.5 L 171.25 156.25 L 167.5 157.5 L 166.25 156.25 L 167.5 153.75 L 176.25 146.25 L 188.75 138.75 L 200.0 128.75 L 206.25 121.25 L 206.25 118.75 " stroke="black" fill="none" stroke-width="6.0" stroke-linecap="round" stroke-linejoin="round" />
<path d="M 165.0 170.0 L 158.75 191.25 L 158.75 211.25 L 163.75 233.75 L 168.75 242.5 L 171.25 245.0 L 171.25 242.5 L 170.0 237.5 L 167.5 228.75 L 165.0 217.5 L 161.25 206.25 L 158.75 195.0 L 156.25 185.0 L 156.25 180.0 L 158.75 176.25 L 168.75 168.75 L 185.0 161.25 L 200.0 152.5 L 211.25 150.0 L 215.0 155.0 L 217.5 177.5 L 220.0 205.0 L 221.25 228.75 L 222.5 245.0 L 223.75 250.0 L 223.75 250.0 L 223.75 247.5 L 220.0 242.5 L 213.75 233.75 L 208.75 226.25 " stroke="black" fill="none" stroke-width="6.0" stroke-linecap="round" stroke-linejoin="round" />
<path d="M 166.25 200.0 L 166.25 201.25 L 162.5 203.75 L 166.25 202.5 L 181.25 195.0 L 198.75 186.25 L 213.75 176.25 L 217.5 170.0 L 216.25 170.0 " stroke="black" fill="none" stroke-width="6.0" stroke-linecap="round" stroke-linejoin="round" />
<path d="M 177.5 215.0 L 177.5 216.25 L 175.0 221.25 L 181.25 218.75 L 196.25 208.75 L 215.0 196.25 L 221.25 191.25 " stroke="black" fill="none" stroke-width="6.0" stroke-linecap="round" stroke-linejoin="round" />
</svg>