<svg xmlns="http://www.w3.org/2000/svg" width="300" height="300" viewBox="0 0 300 300">
<path d="M 90.0 86.25 L 88.75 86.25 L 87.5 86.25 L 87.5 86.25 L 92.5 86.25 L 101.25 88.75 L 107.5 91.25 L 110.0 93.75 L 110.0 95.0 " stroke="black" fill="none" stroke-width="6.0" stroke-linecap="round" stroke-linejoin="round" />
<path d="M 60.0 120.0 L 60.0 121.25 L 61.25 122.5 L 72.5 120.0 L 92.5 111.25 L 108.75 103.75 L 117.5 97.5 L 117.5 96.25 L 110.0 96.25 " stroke="black" fill="none" stroke-width="6.0" stroke-linecap="round" stroke-linejoin="round" />
<path d="M 77.5 141.25 L 77.5 143.75 L 80.0 143.75 L 88.75 141.25 L 98.75 135.0 L 106.25 130.0 L 107.5 128.75 L 103.75 130.0 " stroke="black" fill="none" stroke-width="6.0" stroke-linecap="round" stroke-linejoin="round" />
<path d="M 76.25 162.5 L 76.25 165.0 L 77.5 165.0 L 88.75 161.25 L 102.5 153.75 L 112.5 147.5 L 112.5 145.0 L 111.25 145.0 " stroke="black" fill="none" stroke-width="6.0" stroke-linecap="round" stroke-linejoin="round" />
<path d="M 62.5 200.0 L 63.75 203.75 L 68.75 211.25 L 82.5 222.5 L 91.25 231.25 L 95.0 233.75 L 93.75 232.5 L 88.75 230.0 L 82.5 226.25 L 76.25 222.5 L 70.0 217.5 L 67.5 213.75 L 70.0 208.75 L 80.0 203.75 L 95.0 197.5 L 111.25 191.25 L 122.5 188.75 L 123.75 191.25 L 113.75 201.25 L 101.25 212.5 L 90.0 222.5 L 87.5 225.0 L 93.75 218.75 L 107.5 205.0 L 118.75 195.0 " stroke="black" fill="none" stroke-width="6.0" stroke-linecap="round" stroke-linejoin="round" />
<path d="M 146.25 82.5 L 143.75 83.75 L 142.5 86.25 L 145.0 86.25 L 156.25 85.0 L 175.0 78.75 L 192.5 70.0 L 202.5 62.5 L 201.25 57.5 L 191.25 57.5 L 181.25 57.5 " stroke="black" fill="none" stroke-width="6.0" stroke-linecap="round" stroke-linejoin="round" />
<path d="M 170.0 61.25 L 170.0 62.5 L 171.25 65.0 L 173.75 71.25 L 176.25 81.25 L 177.5 92.5 L 171.25 100.0 L 163.75 102.5 L 157.5 103.75 L 155.0 103.75 L 157.5 103.75 L 168.75 102.5 L 181.25 98.75 L 191.25 93.75 L 197.5 88.75 L 196.25 87.5 " stroke="black" fill="none" stroke-width="6.0" stroke-linecap="round" stroke-linejoin="round" />
<path d="M 138.75 122.5 L 137.5 122.5 L 137.5 122.5 L 138.75 123.75 L 145.0 130.0 L 153.75 140.0 L 158.75 147.5 L 160.0 151.25 L 158.75 151.25 L 155.0 148.75 L 152.5 143.75 L 150.0 138.75 L 146.25 133.75 L 145.0 130.0 L 142.5 127.5 L 142.5 127.5 L 147.5 126.25 L 165.0 122.5 L 193.75 115.0 L 215.0 110.0 L 222.5 108.75 L 222.5 112.5 L 215.0 122.5 L 203.75 133.75 L 193.75 143.75 L 185.0 146.25 " stroke="black" fill="none" stroke-width="6.0" stroke-linecap="round" stroke-linejoin="round" />
<path d="M 173.75 123.75 L 172.5 125.0 L 171.25 130.0 L 171.25 137.5 L 171.25 146.25 L 171.25 148.75 " stroke="black" fill="none" stroke-width="6.0" stroke-linecap="round" stroke-linejoin="round" />
<path d="M 193.75 117.5 L 192.5 120.0 L 188.75 126.25 L 183.75 135.0 L 175.0 146.25 L 167.5 152.5 L 162.5 155.0 L 161.25 155.0 L 166.25 153.75 L 178.75 150.0 L 192.5 145.0 L 202.5 140.0 L 207.5 136.25 L 206.25 136.25 L 198.75 138.75 L 190.0 142.5 L 182.5 147.5 L 173.75 152.5 L 166.25 163.75 L 163.75 182.5 L 163.75 205.0 L 167.5 220.0 L 171.25 226.25 L 172.5 226.25 L 172.5 225.0 L 171.25 221.25 L 168.75 216.25 L 163.75 211.25 L 161.25 203.75 L 160.0 195.0 L 160.0 187.5 L 161.25 180.0 L 163.75 176.25 L 168.75 171.25 L 180.0 165.0 L 196.25 160.0 L 210.0 156.25 L 217.5 157.5 L 220.0 172.5 L 218.75 191.25 L 215.0 207.5 L 212.5 216.25 L 210.0 218.75 L 207.5 218.75 L 206.25 216.25 " stroke="black" fill="none" stroke-width="6.0" stroke-linecap="round" stroke-linejoin="round" />
<path d="M 192.5 170.0 L 192.5 172.5 L 192.5 181.25 L 192.5 192.5 L 190.0 205.0 L 185.0 215.0 L 177.5 218.75 L 168.75 222.5 L 166.25 222.5 L 167.5 222.5 L 177.5 221.25 L 191.25 216.25 L 203.75 211.25 L 213.75 206.25 L 217.5 202.5 L 217.5 201.25 L 212.5 202.5 L 207.5 206.25 L 202.5 211.25 L 196.25 218.75 L 188.75 231.25 L 180.0 243.75 L 172.5 250.0 L 171.25 250.0 " stroke="black" fill="none" stroke-width="6.0" stroke-linecap="round" stroke-linejoin="round" />
<path d="M 210.0 227.5 L 213.75 231.25 L 221.25 237.5 L 228.75 241.25 L 233.75 245.0 L 235.0 246.25 L 235.0 248.75 L 232.5 251.25 " stroke="black" fill="none" stroke-width="6.0" stroke-linecap="round" stroke-linejoin="round" />
</svg>