<svg xmlns="http://www.w3.org/2000/svg" width="300" height="300" viewBox="0 0 300 300">
<path d="M 75.0 96.25 L 75.0 96.25 L 72.5 96.25 L 71.25 96.25 L 78.75 98.75 L 93.75 101.25 L 108.75 101.25 L 112.5 101.25 " stroke="black" fill="none" stroke-width="6.0" stroke-linecap="round" stroke-linejoin="round" />
<path d="M 63.75 137.5 L 61.25 138.75 L 62.5 140.0 L 77.5 136.25 L 96.25 127.5 L 112.5 117.5 L 115.0 113.75 " stroke="black" fill="none" stroke-width="6.0" stroke-linecap="round" stroke-linejoin="round" />
<path d="M 65.0 166.25 L 65.0 167.5 L 63.75 170.0 L 66.25 170.0 L 80.0 163.75 L 96.25 152.5 L 108.75 142.5 L 111.25 138.75 L 107.5 140.0 " stroke="black" fill="none" stroke-width="6.0" stroke-linecap="round" stroke-linejoin="round" />
<path d="M 63.75 198.75 L 62.5 200.0 L 61.25 201.25 L 72.5 197.5 L 91.25 185.0 L 107.5 168.75 L 110.0 162.5 " stroke="black" fill="none" stroke-width="6.0" stroke-linecap="round" stroke-linejoin="round" />
<path d="M 61.25 216.25 L 61.25 220.0 L 63.75 233.75 L 75.0 245.0 L 87.5 250.0 L 92.5 251.25 L 92.5 251.25 L 90.0 248.75 L 82.5 246.25 L 73.75 242.5 L 67.5 240.0 L 65.0 236.25 L 92.5 217.5 L 116.25 206.25 L 130.0 203.75 L 126.25 213.75 L 112.5 230.0 L 98.75 242.5 L 92.5 245.0 L 93.75 232.5 " stroke="black" fill="none" stroke-width="6.0" stroke-linecap="round" stroke-linejoin="round" />
<path d="M 156.25 82.5 L 155.0 82.5 L 155.0 82.5 L 165.0 85.0 L 186.25 90.0 L 203.75 91.25 L 211.25 91.25 L 208.75 93.75 L 203.75 96.25 " stroke="black" fill="none" stroke-width="6.0" stroke-linecap="round" stroke-linejoin="round" />
<path d="M 147.5 130.0 L 146.25 130.0 L 146.25 130.0 L 152.5 130.0 L 173.75 125.0 L 193.75 120.0 L 202.5 120.0 L 197.5 127.5 L 181.25 140.0 L 162.5 152.5 L 146.25 163.75 L 143.75 166.25 L 150.0 163.75 L 168.75 153.75 L 188.75 143.75 L 205.0 136.25 L 210.0 135.0 L 205.0 145.0 L 191.25 162.5 L 175.0 180.0 L 158.75 192.5 L 150.0 196.25 L 148.75 188.75 L 148.75 173.75 L 150.0 156.25 L 151.25 141.25 L 150.0 136.25 L 147.5 143.75 L 145.0 172.5 L 145.0 208.75 L 147.5 241.25 L 153.75 255.0 L 167.5 256.25 L 188.75 247.5 L 208.75 230.0 L 223.75 211.25 L 232.5 198.75 L 231.25 193.75 L 222.5 193.75 L 207.5 195.0 L 192.5 200.0 L 177.5 206.25 L 163.75 212.5 L 158.75 215.0 L 160.0 215.0 L 163.75 215.0 L 168.75 213.75 L 173.75 213.75 L 177.5 213.75 L 181.25 213.75 L 186.25 213.75 L 193.75 218.75 L 210.0 230.0 L 231.25 241.25 L 257.5 250.0 L 270.0 250.0 " stroke="black" fill="none" stroke-width="6.0" stroke-linecap="round" stroke-linejoin="round" />
</svg>