<svg xmlns="http://www.w3.org/2000/svg" width="300" height="300" viewBox="0 0 300 300">
<path d="M 143.75 76.25 L 142.5 75.0 L 140.0 72.5 L 140.0 72.5 L 142.5 78.75 L 146.25 96.25 L 150.0 111.25 L 151.25 121.25 L 151.25 122.5 " stroke="black" fill="none" stroke-width="6.0" stroke-linecap="round" stroke-linejoin="round" />
<path d="M 145.0 88.75 L 142.5 88.75 L 141.25 87.5 L 142.5 87.5 L 158.75 85.0 L 180.0 78.75 L 193.75 72.5 L 193.75 72.5 " stroke="black" fill="none" stroke-width="6.0" stroke-linecap="round" stroke-linejoin="round" />
<path d="M 125.0 131.25 L 122.5 131.25 L 121.25 131.25 L 121.25 138.75 L 123.75 171.25 L 127.5 203.75 L 131.25 221.25 L 133.75 222.5 L 135.0 210.0 " stroke="black" fill="none" stroke-width="6.0" stroke-linecap="round" stroke-linejoin="round" />
<path d="M 125.0 146.25 L 121.25 146.25 L 120.0 145.0 L 128.75 140.0 L 147.5 131.25 L 171.25 121.25 L 192.5 117.5 L 200.0 127.5 L 200.0 152.5 L 196.25 182.5 L 193.75 202.5 L 193.75 211.25 L 193.75 213.75 L 192.5 210.0 L 192.5 207.5 " stroke="black" fill="none" stroke-width="6.0" stroke-linecap="round" stroke-linejoin="round" />
<path d="M 137.5 165.0 L 135.0 166.25 L 131.25 166.25 L 131.25 166.25 L 143.75 161.25 L 161.25 153.75 L 178.75 146.25 L 183.75 142.5 L 182.5 142.5 " stroke="black" fill="none" stroke-width="6.0" stroke-linecap="round" stroke-linejoin="round" />
<path d="M 140.0 183.75 L 138.75 183.75 L 136.25 187.5 L 137.5 187.5 L 150.0 182.5 L 168.75 171.25 L 186.25 160.0 L 190.0 156.25 L 187.5 156.25 " stroke="black" fill="none" stroke-width="6.0" stroke-linecap="round" stroke-linejoin="round" />
<path d="M 141.25 221.25 L 137.5 228.75 L 140.0 228.75 L 153.75 222.5 L 175.0 210.0 L 193.75 198.75 L 200.0 196.25 L 195.0 201.25 L 182.5 215.0 L 166.25 232.5 L 150.0 248.75 L 140.0 257.5 L 140.0 255.0 " stroke="black" fill="none" stroke-width="6.0" stroke-linecap="round" stroke-linejoin="round" />
<path d="M 186.25 215.0 L 186.25 215.0 L 187.5 217.5 L 198.75 228.75 L 216.25 246.25 L 228.75 256.25 L 235.0 260.0 L 235.0 260.0 L 227.5 258.75 " stroke="black" fill="none" stroke-width="6.0" stroke-linecap="round" stroke-linejoin="round" />
</svg>