<svg xmlns="http://www.w3.org/2000/svg" width="300" height="300" viewBox="0 0 300 300">
<path d="M 130.0 83.75 L 128.75 83.75 L 125.0 83.75 L 123.75 85.0 L 130.0 85.0 L 145.0 83.75 L 161.25 80.0 L 176.25 72.5 L 181.25 67.5 L 181.25 67.5 " stroke="black" fill="none" stroke-width="6.0" stroke-linecap="round" stroke-linejoin="round" />
<path d="M 152.5 81.25 L 152.5 83.75 L 153.75 86.25 L 153.75 93.75 L 155.0 103.75 L 155.0 115.0 L 150.0 123.75 L 142.5 127.5 " stroke="black" fill="none" stroke-width="6.0" stroke-linecap="round" stroke-linejoin="round" />
<path d="M 92.5 138.75 L 86.25 141.25 L 83.75 142.5 L 91.25 142.5 L 112.5 137.5 L 142.5 130.0 L 178.75 118.75 L 206.25 108.75 L 210.0 105.0 L 206.25 105.0 L 196.25 107.5 L 193.75 108.75 " stroke="black" fill="none" stroke-width="6.0" stroke-linecap="round" stroke-linejoin="round" />
<path d="M 143.75 148.75 L 141.25 152.5 L 136.25 163.75 L 136.25 187.5 L 136.25 211.25 L 140.0 225.0 L 142.5 230.0 L 143.75 231.25 L 143.75 228.75 L 142.5 222.5 L 141.25 215.0 L 141.25 213.75 " stroke="black" fill="none" stroke-width="6.0" stroke-linecap="round" stroke-linejoin="round" />
<path d="M 135.0 172.5 L 132.5 172.5 L 131.25 171.25 L 131.25 170.0 L 140.0 163.75 L 156.25 155.0 L 177.5 146.25 L 195.0 142.5 L 202.5 145.0 L 205.0 160.0 L 205.0 185.0 L 203.75 207.5 L 202.5 218.75 L 202.5 221.25 L 201.25 222.5 L 200.0 222.5 " stroke="black" fill="none" stroke-width="6.0" stroke-linecap="round" stroke-linejoin="round" />
<path d="M 150.0 188.75 L 146.25 188.75 L 145.0 188.75 L 151.25 186.25 L 166.25 178.75 L 183.75 168.75 L 193.75 160.0 " stroke="black" fill="none" stroke-width="6.0" stroke-linecap="round" stroke-linejoin="round" />
<path d="M 151.25 198.75 L 151.25 200.0 L 148.75 202.5 L 150.0 203.75 L 161.25 201.25 L 177.5 192.5 L 191.25 182.5 L 195.0 180.0 " stroke="black" fill="none" stroke-width="6.0" stroke-linecap="round" stroke-linejoin="round" />
<path d="M 150.0 227.5 L 148.75 228.75 L 145.0 235.0 L 148.75 235.0 L 161.25 227.5 L 180.0 216.25 L 198.75 206.25 L 207.5 201.25 L 205.0 203.75 L 192.5 217.5 L 176.25 236.25 L 158.75 255.0 L 148.75 265.0 L 147.5 263.75 L 150.0 260.0 " stroke="black" fill="none" stroke-width="6.0" stroke-linecap="round" stroke-linejoin="round" />
<path d="M 185.0 231.25 L 186.25 231.25 L 188.75 233.75 L 195.0 241.25 L 206.25 255.0 L 218.75 266.25 L 226.25 270.0 L 227.5 271.25 L 225.0 270.0 L 222.5 270.0 " stroke="black" fill="none" stroke-width="6.0" stroke-linecap="round" stroke-linejoin="round" />
</svg>