<svg xmlns="http://www.w3.org/2000/svg" width="300" height="300" viewBox="0 0 300 300">
<path d="M 82.5 105.0 L 78.75 105.0 L 76.25 105.0 L 80.0 105.0 L 92.5 101.25 L 108.75 97.5 L 121.25 93.75 L 122.5 93.75 " stroke="black" fill="none" stroke-width="6.0" stroke-linecap="round" stroke-linejoin="round" />
<path d="M 80.0 151.25 L 76.25 156.25 L 73.75 160.0 L 82.5 155.0 L 93.75 146.25 L 117.5 125.0 L 132.5 103.75 " stroke="black" fill="none" stroke-width="6.0" stroke-linecap="round" stroke-linejoin="round" />
<path d="M 145.0 61.25 L 143.75 61.25 L 142.5 61.25 L 142.5 62.5 L 142.5 72.5 L 142.5 82.5 L 147.5 86.25 L 157.5 83.75 L 176.25 75.0 L 193.75 65.0 L 202.5 61.25 L 202.5 62.5 L 195.0 72.5 L 183.75 86.25 L 172.5 97.5 L 162.5 101.25 L 158.75 101.25 " stroke="black" fill="none" stroke-width="6.0" stroke-linecap="round" stroke-linejoin="round" />
<path d="M 163.75 82.5 L 162.5 82.5 L 160.0 85.0 L 155.0 96.25 L 150.0 120.0 L 145.0 141.25 L 141.25 146.25 L 140.0 143.75 " stroke="black" fill="none" stroke-width="6.0" stroke-linecap="round" stroke-linejoin="round" />
<path d="M 155.0 103.75 L 156.25 103.75 L 160.0 102.5 L 171.25 107.5 L 187.5 121.25 L 203.75 135.0 L 213.75 142.5 L 215.0 143.75 " stroke="black" fill="none" stroke-width="6.0" stroke-linecap="round" stroke-linejoin="round" />
<path d="M 117.5 156.25 L 117.5 156.25 L 116.25 155.0 L 116.25 155.0 L 117.5 168.75 L 121.25 195.0 L 126.25 213.75 L 128.75 220.0 L 130.0 216.25 L 128.75 205.0 " stroke="black" fill="none" stroke-width="6.0" stroke-linecap="round" stroke-linejoin="round" />
<path d="M 121.25 178.75 L 118.75 172.5 L 118.75 168.75 L 128.75 163.75 L 145.0 157.5 L 163.75 153.75 L 177.5 155.0 L 180.0 165.0 L 173.75 183.75 L 162.5 201.25 L 150.0 213.75 L 141.25 218.75 L 133.75 216.25 " stroke="black" fill="none" stroke-width="6.0" stroke-linecap="round" stroke-linejoin="round" />
<path d="M 147.5 160.0 L 147.5 160.0 L 147.5 161.25 L 147.5 178.75 L 143.75 203.75 L 136.25 222.5 L 128.75 230.0 L 125.0 231.25 L 125.0 228.75 L 135.0 218.75 L 147.5 208.75 L 160.0 201.25 L 170.0 198.75 L 170.0 203.75 L 161.25 218.75 L 147.5 238.75 L 131.25 256.25 L 112.5 267.5 L 103.75 268.75 " stroke="black" fill="none" stroke-width="6.0" stroke-linecap="round" stroke-linejoin="round" />
<path d="M 156.25 215.0 L 157.5 215.0 L 162.5 215.0 L 172.5 221.25 L 187.5 235.0 L 200.0 247.5 L 206.25 255.0 L 207.5 257.5 L 208.75 260.0 L 210.0 262.5 L 208.75 263.75 " stroke="black" fill="none" stroke-width="6.0" stroke-linecap="round" stroke-linejoin="round" />
</svg>