<svg xmlns="http://www.w3.org/2000/svg" width="300" height="300" viewBox="0 0 300 300">
<path d="M 77.5 101.25 L 75.0 103.75 L 73.75 123.75 L 73.75 158.75 L 73.75 185.0 L 73.75 196.25 L 73.75 196.25 " stroke="black" fill="none" stroke-width="6.0" stroke-linecap="round" stroke-linejoin="round" />
<path d="M 73.75 103.75 L 72.5 103.75 L 71.25 102.5 L 76.25 98.75 L 86.25 93.75 L 97.5 92.5 L 103.75 97.5 L 107.5 120.0 L 107.5 155.0 L 108.75 186.25 L 111.25 197.5 L 112.5 198.75 L 112.5 196.25 L 110.0 190.0 L 103.75 183.75 " stroke="black" fill="none" stroke-width="6.0" stroke-linecap="round" stroke-linejoin="round" />
<path d="M 78.75 150.0 L 76.25 150.0 L 72.5 150.0 L 73.75 150.0 L 82.5 142.5 L 95.0 133.75 L 102.5 127.5 L 102.5 127.5 " stroke="black" fill="none" stroke-width="6.0" stroke-linecap="round" stroke-linejoin="round" />
<path d="M 75.0 168.75 L 72.5 170.0 L 72.5 170.0 L 78.75 166.25 L 87.5 160.0 L 98.75 150.0 L 101.25 148.75 " stroke="black" fill="none" stroke-width="6.0" stroke-linecap="round" stroke-linejoin="round" />
<path d="M 68.75 206.25 L 68.75 207.5 L 68.75 207.5 L 76.25 203.75 L 91.25 193.75 L 106.25 183.75 L 108.75 182.5 L 101.25 193.75 L 88.75 211.25 L 75.0 228.75 L 62.5 243.75 L 56.25 246.25 " stroke="black" fill="none" stroke-width="6.0" stroke-linecap="round" stroke-linejoin="round" />
<path d="M 93.75 203.75 L 93.75 203.75 L 96.25 207.5 L 108.75 218.75 L 127.5 235.0 L 140.0 243.75 L 142.5 243.75 L 141.25 241.25 " stroke="black" fill="none" stroke-width="6.0" stroke-linecap="round" stroke-linejoin="round" />
<path d="M 137.5 111.25 L 136.25 112.5 L 132.5 116.25 L 133.75 118.75 L 148.75 121.25 L 177.5 118.75 L 211.25 110.0 L 232.5 103.75 L 236.25 103.75 L 227.5 102.5 L 212.5 102.5 L 201.25 100.0 L 190.0 96.25 L 183.75 92.5 L 183.75 90.0 L 191.25 100.0 L 207.5 141.25 L 226.25 200.0 L 241.25 238.75 L 252.5 256.25 L 258.75 261.25 L 261.25 262.5 L 261.25 261.25 L 261.25 258.75 L 261.25 248.75 L 256.25 235.0 L 247.5 215.0 L 241.25 203.75 " stroke="black" fill="none" stroke-width="6.0" stroke-linecap="round" stroke-linejoin="round" />
<path d="M 225.0 91.25 L 225.0 90.0 L 225.0 87.5 L 226.25 86.25 L 230.0 86.25 L 232.5 93.75 L 232.5 96.25 " stroke="black" fill="none" stroke-width="6.0" stroke-linecap="round" stroke-linejoin="round" />
<path d="M 131.25 95.0 L 130.0 95.0 L 127.5 95.0 L 127.5 95.0 L 133.75 93.75 L 146.25 95.0 L 156.25 96.25 " stroke="black" fill="none" stroke-width="6.0" stroke-linecap="round" stroke-linejoin="round" />
<path d="M 180.0 158.75 L 178.75 160.0 L 177.5 166.25 L 177.5 190.0 L 178.75 215.0 L 181.25 223.75 L 181.25 225.0 L 181.25 221.25 L 181.25 215.0 L 181.25 207.5 L 185.0 197.5 L 192.5 188.75 L 198.75 180.0 L 202.5 173.75 L 197.5 173.75 " stroke="black" fill="none" stroke-width="6.0" stroke-linecap="round" stroke-linejoin="round" />
<path d="M 143.75 183.75 L 141.25 185.0 L 140.0 190.0 L 143.75 208.75 L 153.75 232.5 L 167.5 246.25 L 183.75 246.25 L 198.75 236.25 L 212.5 220.0 L 218.75 207.5 " stroke="black" fill="none" stroke-width="6.0" stroke-linecap="round" stroke-linejoin="round" />
</svg>