<svg xmlns="http://www.w3.org/2000/svg" width="300" height="300" viewBox="0 0 300 300">
<path d="M 140.0 50.0 L 138.75 50.0 L 137.5 50.0 L 137.5 51.25 L 145.0 52.5 L 155.0 55.0 L 163.75 57.5 L 167.5 58.75 L 166.25 60.0 " stroke="black" fill="none" stroke-width="6.0" stroke-linecap="round" stroke-linejoin="round" />
<path d="M 91.25 78.75 L 90.0 78.75 L 90.0 80.0 L 91.25 86.25 L 95.0 100.0 L 97.5 112.5 L 97.5 122.5 L 96.25 122.5 L 95.0 117.5 " stroke="black" fill="none" stroke-width="6.0" stroke-linecap="round" stroke-linejoin="round" />
<path d="M 93.75 96.25 L 92.5 96.25 L 92.5 96.25 L 101.25 93.75 L 130.0 87.5 L 166.25 81.25 L 192.5 77.5 L 200.0 77.5 L 193.75 81.25 L 180.0 90.0 L 165.0 96.25 L 161.25 97.5 " stroke="black" fill="none" stroke-width="6.0" stroke-linecap="round" stroke-linejoin="round" />
<path d="M 120.0 117.5 L 115.0 121.25 L 112.5 123.75 L 116.25 123.75 L 132.5 118.75 L 150.0 111.25 L 163.75 102.5 L 170.0 97.5 L 168.75 96.25 L 160.0 103.75 L 153.75 112.5 L 150.0 122.5 L 150.0 130.0 L 150.0 132.5 L 152.5 132.5 L 152.5 132.5 L 153.75 131.25 L 152.5 131.25 L 146.25 132.5 L 136.25 136.25 L 120.0 140.0 L 106.25 143.75 L 98.75 143.75 L 98.75 145.0 L 100.0 145.0 L 101.25 143.75 L 103.75 142.5 L 106.25 141.25 L 107.5 138.75 L 110.0 137.5 L 113.75 136.25 L 118.75 133.75 L 131.25 128.75 L 148.75 122.5 L 168.75 116.25 L 186.25 112.5 L 195.0 111.25 L 196.25 111.25 L 195.0 111.25 L 193.75 112.5 L 191.25 115.0 L 188.75 118.75 L 185.0 123.75 L 180.0 128.75 L 172.5 136.25 L 157.5 147.5 L 132.5 163.75 L 101.25 185.0 L 80.0 197.5 L 70.0 198.75 L 67.5 198.75 " stroke="black" fill="none" stroke-width="6.0" stroke-linecap="round" stroke-linejoin="round" />
<path d="M 131.25 162.5 L 130.0 162.5 L 127.5 162.5 L 127.5 168.75 L 128.75 197.5 L 130.0 228.75 L 132.5 242.5 L 135.0 238.75 L 136.25 222.5 " stroke="black" fill="none" stroke-width="6.0" stroke-linecap="round" stroke-linejoin="round" />
<path d="M 135.0 168.75 L 133.75 168.75 L 131.25 168.75 L 131.25 167.5 L 140.0 163.75 L 160.0 157.5 L 186.25 151.25 L 202.5 153.75 L 205.0 173.75 L 202.5 202.5 L 196.25 222.5 L 191.25 231.25 L 188.75 232.5 L 185.0 227.5 L 178.75 220.0 L 177.5 217.5 " stroke="black" fill="none" stroke-width="6.0" stroke-linecap="round" stroke-linejoin="round" />
<path d="M 140.0 191.25 L 135.0 191.25 L 132.5 192.5 L 135.0 192.5 L 148.75 190.0 L 166.25 185.0 L 182.5 176.25 L 190.0 170.0 L 187.5 170.0 " stroke="black" fill="none" stroke-width="6.0" stroke-linecap="round" stroke-linejoin="round" />
<path d="M 137.5 206.25 L 136.25 207.5 L 132.5 211.25 L 137.5 211.25 L 151.25 210.0 L 170.0 202.5 L 188.75 193.75 L 191.25 190.0 " stroke="black" fill="none" stroke-width="6.0" stroke-linecap="round" stroke-linejoin="round" />
<path d="M 137.5 242.5 L 132.5 247.5 L 132.5 248.75 L 143.75 246.25 L 161.25 236.25 L 181.25 225.0 L 193.75 216.25 L 191.25 216.25 L 176.25 230.0 L 158.75 246.25 L 141.25 263.75 L 130.0 273.75 L 128.75 271.25 L 130.0 268.75 " stroke="black" fill="none" stroke-width="6.0" stroke-linecap="round" stroke-linejoin="round" />
<path d="M 172.5 232.5 L 173.75 232.5 L 173.75 233.75 L 177.5 238.75 L 188.75 252.5 L 202.5 267.5 L 211.25 276.25 L 216.25 278.75 L 216.25 278.75 " stroke="black" fill="none" stroke-width="6.0" stroke-linecap="round" stroke-linejoin="round" />
</svg>