<svg xmlns="http://www.w3.org/2000/svg" width="300" height="300" viewBox="0 0 300 300">
<path d="M 77.5 103.75 L 75.0 106.25 L 75.0 107.5 L 83.75 107.5 L 100.0 102.5 L 120.0 93.75 L 135.0 87.5 L 138.75 85.0 L 133.75 86.25 " stroke="black" fill="none" stroke-width="6.0" stroke-linecap="round" stroke-linejoin="round" />
<path d="M 70.0 137.5 L 70.0 138.75 L 68.75 143.75 L 72.5 152.5 L 80.0 165.0 L 86.25 175.0 L 88.75 176.25 L 88.75 175.0 " stroke="black" fill="none" stroke-width="6.0" stroke-linecap="round" stroke-linejoin="round" />
<path d="M 72.5 147.5 L 72.5 147.5 L 70.0 147.5 L 73.75 146.25 L 88.75 140.0 L 108.75 132.5 L 123.75 127.5 L 126.25 127.5 L 115.0 137.5 L 100.0 150.0 L 85.0 163.75 L 73.75 175.0 L 73.75 176.25 L 86.25 170.0 L 101.25 156.25 L 116.25 143.75 L 123.75 132.5 L 123.75 131.25 " stroke="black" fill="none" stroke-width="6.0" stroke-linecap="round" stroke-linejoin="round" />
<path d="M 93.75 86.25 L 93.75 86.25 L 93.75 86.25 L 93.75 97.5 L 98.75 142.5 L 103.75 195.0 L 103.75 230.0 L 101.25 250.0 L 97.5 252.5 L 95.0 250.0 " stroke="black" fill="none" stroke-width="6.0" stroke-linecap="round" stroke-linejoin="round" />
<path d="M 95.0 167.5 L 93.75 170.0 L 87.5 182.5 L 77.5 200.0 L 65.0 217.5 L 55.0 226.25 L 48.75 221.25 L 48.75 218.75 " stroke="black" fill="none" stroke-width="6.0" stroke-linecap="round" stroke-linejoin="round" />
<path d="M 88.75 168.75 L 91.25 168.75 L 100.0 177.5 L 117.5 193.75 L 137.5 205.0 L 151.25 210.0 L 153.75 210.0 " stroke="black" fill="none" stroke-width="6.0" stroke-linecap="round" stroke-linejoin="round" />
<path d="M 165.0 71.25 L 162.5 72.5 L 158.75 73.75 L 162.5 76.25 L 177.5 80.0 L 195.0 83.75 L 207.5 85.0 L 211.25 87.5 L 208.75 95.0 L 197.5 106.25 L 185.0 116.25 L 171.25 120.0 L 167.5 120.0 " stroke="black" fill="none" stroke-width="6.0" stroke-linecap="round" stroke-linejoin="round" />
<path d="M 177.5 90.0 L 177.5 88.75 L 173.75 88.75 L 167.5 97.5 L 160.0 122.5 L 156.25 135.0 " stroke="black" fill="none" stroke-width="6.0" stroke-linecap="round" stroke-linejoin="round" />
<path d="M 161.25 143.75 L 160.0 145.0 L 158.75 148.75 L 158.75 167.5 L 158.75 202.5 L 163.75 227.5 L 167.5 233.75 L 170.0 230.0 L 170.0 227.5 " stroke="black" fill="none" stroke-width="6.0" stroke-linecap="round" stroke-linejoin="round" />
<path d="M 158.75 152.5 L 158.75 151.25 L 160.0 150.0 L 166.25 147.5 L 180.0 143.75 L 197.5 142.5 L 208.75 147.5 L 211.25 165.0 L 210.0 191.25 L 207.5 211.25 L 206.25 221.25 L 205.0 222.5 L 205.0 220.0 " stroke="black" fill="none" stroke-width="6.0" stroke-linecap="round" stroke-linejoin="round" />
<path d="M 165.0 182.5 L 165.0 181.25 L 165.0 181.25 L 167.5 178.75 L 180.0 171.25 L 195.0 162.5 L 203.75 155.0 L 203.75 155.0 " stroke="black" fill="none" stroke-width="6.0" stroke-linecap="round" stroke-linejoin="round" />
<path d="M 167.5 192.5 L 167.5 193.75 L 166.25 195.0 L 168.75 195.0 L 182.5 188.75 L 198.75 178.75 L 207.5 170.0 L 207.5 170.0 " stroke="black" fill="none" stroke-width="6.0" stroke-linecap="round" stroke-linejoin="round" />
<path d="M 168.75 228.75 L 168.75 230.0 L 170.0 230.0 L 178.75 226.25 L 193.75 216.25 L 206.25 206.25 L 210.0 202.5 L 207.5 205.0 L 198.75 218.75 L 187.5 236.25 L 172.5 252.5 L 161.25 262.5 L 156.25 265.0 L 156.25 261.25 " stroke="black" fill="none" stroke-width="6.0" stroke-linecap="round" stroke-linejoin="round" />
<path d="M 193.75 225.0 L 193.75 225.0 L 192.5 226.25 L 192.5 227.5 L 195.0 227.5 L 198.75 230.0 L 202.5 231.25 L 206.25 232.5 L 207.5 232.5 L 207.5 232.5 L 207.5 232.5 L 207.5 232.5 L 207.5 232.5 L 207.5 232.5 L 207.5 232.5 L 210.0 235.0 L 220.0 240.0 L 237.5 250.0 L 246.25 256.25 " stroke="black" fill="none" stroke-width="6.0" stroke-linecap="round" stroke-linejoin="round" />
</svg>