<svg xmlns="http://www.w3.org/2000/svg" width="300" height="300" viewBox="0 0 300 300">
<path d="M 143.75 80.0 L 141.25 80.0 L 133.75 86.25 L 121.25 105.0 L 103.75 130.0 L 93.75 141.25 L 88.75 140.0 " stroke="black" fill="none" stroke-width="6.0" stroke-linecap="round" stroke-linejoin="round" />
<path d="M 176.25 85.0 L 188.75 86.25 L 205.0 93.75 L 213.75 101.25 L 212.5 107.5 L 208.75 111.25 " stroke="black" fill="none" stroke-width="6.0" stroke-linecap="round" stroke-linejoin="round" />
<path d="M 156.25 127.5 L 153.75 130.0 L 142.5 146.25 L 123.75 168.75 L 103.75 191.25 L 90.0 198.75 L 82.5 198.75 L 80.0 187.5 " stroke="black" fill="none" stroke-width="6.0" stroke-linecap="round" stroke-linejoin="round" />
<path d="M 151.25 130.0 L 160.0 133.75 L 180.0 147.5 L 203.75 166.25 L 221.25 185.0 L 237.5 191.25 L 246.25 196.25 L 240.0 197.5 L 236.25 197.5 " stroke="black" fill="none" stroke-width="6.0" stroke-linecap="round" stroke-linejoin="round" />
<path d="M 117.5 206.25 L 117.5 207.5 L 118.75 215.0 L 128.75 235.0 L 138.75 253.75 L 142.5 257.5 L 145.0 255.0 L 140.0 247.5 L 133.75 237.5 L 125.0 227.5 L 117.5 217.5 L 115.0 212.5 L 123.75 208.75 L 143.75 206.25 L 171.25 202.5 L 196.25 200.0 L 202.5 201.25 L 198.75 210.0 L 182.5 223.75 L 162.5 237.5 L 145.0 250.0 L 140.0 253.75 L 148.75 251.25 L 168.75 243.75 L 193.75 233.75 L 211.25 223.75 L 213.75 221.25 " stroke="black" fill="none" stroke-width="6.0" stroke-linecap="round" stroke-linejoin="round" />
</svg>