<svg xmlns="http://www.w3.org/2000/svg" width="300" height="300" viewBox="0 0 300 300">
<path d="M 68.75 97.5 L 68.75 98.75 L 66.25 103.75 L 66.25 128.75 L 67.5 160.0 L 72.5 181.25 L 75.0 188.75 L 76.25 188.75 L 76.25 187.5 " stroke="black" fill="none" stroke-width="6.0" stroke-linecap="round" stroke-linejoin="round" />
<path d="M 67.5 107.5 L 66.25 106.25 L 66.25 101.25 L 71.25 95.0 L 82.5 88.75 L 95.0 85.0 L 105.0 86.25 L 111.25 100.0 L 113.75 127.5 L 115.0 157.5 L 115.0 176.25 L 115.0 182.5 L 115.0 181.25 L 111.25 175.0 L 107.5 165.0 L 105.0 162.5 " stroke="black" fill="none" stroke-width="6.0" stroke-linecap="round" stroke-linejoin="round" />
<path d="M 70.0 145.0 L 66.25 146.25 L 62.5 146.25 L 63.75 147.5 L 73.75 142.5 L 87.5 133.75 L 100.0 125.0 L 105.0 118.75 L 105.0 118.75 " stroke="black" fill="none" stroke-width="6.0" stroke-linecap="round" stroke-linejoin="round" />
<path d="M 71.25 168.75 L 70.0 170.0 L 68.75 171.25 L 71.25 170.0 L 83.75 161.25 L 96.25 151.25 L 105.0 143.75 L 105.0 143.75 " stroke="black" fill="none" stroke-width="6.0" stroke-linecap="round" stroke-linejoin="round" />
<path d="M 72.5 197.5 L 71.25 198.75 L 71.25 198.75 L 80.0 192.5 L 93.75 182.5 L 106.25 173.75 L 110.0 173.75 L 102.5 185.0 L 76.25 216.25 L 62.5 227.5 L 56.25 228.75 L 56.25 227.5 " stroke="black" fill="none" stroke-width="6.0" stroke-linecap="round" stroke-linejoin="round" />
<path d="M 96.25 197.5 L 97.5 197.5 L 98.75 201.25 L 105.0 212.5 L 116.25 231.25 L 128.75 243.75 L 136.25 246.25 L 137.5 246.25 L 136.25 238.75 " stroke="black" fill="none" stroke-width="6.0" stroke-linecap="round" stroke-linejoin="round" />
<path d="M 151.25 78.75 L 151.25 78.75 L 148.75 78.75 L 147.5 82.5 L 147.5 102.5 L 151.25 126.25 L 155.0 137.5 L 155.0 138.75 " stroke="black" fill="none" stroke-width="6.0" stroke-linecap="round" stroke-linejoin="round" />
<path d="M 147.5 88.75 L 148.75 88.75 L 155.0 86.25 L 173.75 85.0 L 195.0 86.25 L 206.25 91.25 L 207.5 100.0 L 197.5 112.5 L 183.75 123.75 L 167.5 128.75 L 155.0 130.0 " stroke="black" fill="none" stroke-width="6.0" stroke-linecap="round" stroke-linejoin="round" />
<path d="M 145.0 118.75 L 145.0 118.75 L 145.0 118.75 L 152.5 116.25 L 172.5 108.75 L 192.5 101.25 L 201.25 98.75 L 196.25 101.25 L 185.0 108.75 " stroke="black" fill="none" stroke-width="6.0" stroke-linecap="round" stroke-linejoin="round" />
<path d="M 150.0 146.25 L 150.0 146.25 L 150.0 146.25 L 157.5 142.5 L 176.25 133.75 L 192.5 125.0 L 196.25 123.75 L 188.75 133.75 L 170.0 153.75 L 150.0 180.0 L 126.25 208.75 L 110.0 223.75 L 108.75 225.0 L 113.75 213.75 " stroke="black" fill="none" stroke-width="6.0" stroke-linecap="round" stroke-linejoin="round" />
<path d="M 171.25 167.5 L 172.5 167.5 L 181.25 167.5 L 202.5 168.75 L 227.5 172.5 L 243.75 181.25 L 245.0 193.75 L 233.75 208.75 L 217.5 223.75 L 203.75 233.75 L 192.5 240.0 L 182.5 238.75 L 178.75 231.25 " stroke="black" fill="none" stroke-width="6.0" stroke-linecap="round" stroke-linejoin="round" />
<path d="M 177.5 173.75 L 173.75 175.0 L 168.75 181.25 L 163.75 198.75 L 156.25 220.0 L 152.5 233.75 L 151.25 236.25 " stroke="black" fill="none" stroke-width="6.0" stroke-linecap="round" stroke-linejoin="round" />
<path d="M 190.0 210.0 L 182.5 228.75 L 175.0 245.0 " stroke="black" fill="none" stroke-width="6.0" stroke-linecap="round" stroke-linejoin="round" />
<path d="M 190.0 207.5 L 190.0 207.5 L 190.0 207.5 L 190.0 208.75 L 190.0 208.75 L 190.0 208.75 L 190.0 208.75 L 190.0 210.0 L 190.0 210.0 L 190.0 210.0 L 190.0 210.0 L 190.0 210.0 L 190.0 210.0 L 190.0 210.0 L 190.0 210.0 L 190.0 208.75 L 191.25 205.0 L 193.75 198.75 L 197.5 188.75 L 200.0 180.0 L 201.25 173.75 L 201.25 172.5 L 201.25 172.5 L 201.25 176.25 " stroke="black" fill="none" stroke-width="6.0" stroke-linecap="round" stroke-linejoin="round" />
</svg>