<svg xmlns="http://www.w3.org/2000/svg" width="300" height="300" viewBox="0 0 300 300">
<path d="M 106.25 76.25 L 105.0 75.0 L 102.5 73.75 L 102.5 73.75 L 103.75 81.25 L 103.75 97.5 L 101.25 113.75 L 101.25 120.0 L 108.75 118.75 L 127.5 108.75 L 147.5 100.0 L 166.25 91.25 L 185.0 86.25 L 193.75 81.25 L 196.25 77.5 L 196.25 75.0 L 193.75 73.75 L 192.5 72.5 L 190.0 71.25 L 190.0 71.25 L 190.0 70.0 L 190.0 70.0 L 190.0 70.0 L 190.0 73.75 L 196.25 83.75 L 202.5 96.25 L 207.5 105.0 L 210.0 111.25 L 210.0 111.25 " stroke="black" fill="none" stroke-width="6.0" stroke-linecap="round" stroke-linejoin="round" />
<path d="M 153.75 45.0 L 153.75 43.75 L 152.5 42.5 L 152.5 47.5 L 153.75 68.75 L 153.75 93.75 " stroke="black" fill="none" stroke-width="6.0" stroke-linecap="round" stroke-linejoin="round" />
<path d="M 106.25 156.25 L 103.75 157.5 L 103.75 157.5 L 115.0 157.5 L 138.75 150.0 L 166.25 137.5 L 181.25 127.5 L 185.0 122.5 L 175.0 125.0 " stroke="black" fill="none" stroke-width="6.0" stroke-linecap="round" stroke-linejoin="round" />
<path d="M 115.0 171.25 L 115.0 176.25 L 115.0 185.0 L 120.0 198.75 L 127.5 211.25 L 131.25 216.25 L 132.5 216.25 L 128.75 213.75 L 121.25 210.0 L 113.75 207.5 L 106.25 203.75 L 105.0 201.25 L 113.75 195.0 L 133.75 186.25 L 155.0 178.75 L 173.75 175.0 L 178.75 175.0 L 172.5 182.5 L 160.0 195.0 L 145.0 207.5 L 131.25 217.5 L 125.0 223.75 L 128.75 221.25 L 142.5 211.25 L 157.5 200.0 L 170.0 188.75 L 176.25 181.25 L 172.5 182.5 L 161.25 190.0 L 151.25 197.5 L 142.5 210.0 L 136.25 227.5 L 135.0 248.75 L 136.25 265.0 L 138.75 270.0 L 138.75 267.5 " stroke="black" fill="none" stroke-width="6.0" stroke-linecap="round" stroke-linejoin="round" />
<path d="M 180.0 200.0 L 180.0 200.0 L 181.25 200.0 L 181.25 207.5 L 171.25 232.5 L 158.75 256.25 L 143.75 268.75 L 130.0 273.75 L 117.5 275.0 L 115.0 273.75 L 115.0 272.5 L 122.5 270.0 L 137.5 267.5 L 156.25 263.75 L 185.0 261.25 L 215.0 256.25 L 236.25 252.5 L 247.5 250.0 L 248.75 248.75 " stroke="black" fill="none" stroke-width="6.0" stroke-linecap="round" stroke-linejoin="round" />
</svg>