<svg xmlns="http://www.w3.org/2000/svg" width="300" height="300" viewBox="0 0 300 300">
<path d="M 116.25 93.75 L 115.0 92.5 L 115.0 92.5 L 115.0 95.0 L 122.5 108.75 L 131.25 122.5 L 138.75 131.25 L 138.75 131.25 " stroke="black" fill="none" stroke-width="6.0" stroke-linecap="round" stroke-linejoin="round" />
<path d="M 113.75 101.25 L 112.5 100.0 L 107.5 98.75 L 107.5 97.5 L 120.0 95.0 L 141.25 91.25 L 166.25 86.25 L 185.0 83.75 L 191.25 83.75 L 186.25 88.75 L 171.25 98.75 L 156.25 106.25 L 145.0 113.75 L 137.5 118.75 L 137.5 118.75 L 143.75 116.25 L 155.0 108.75 L 167.5 101.25 L 177.5 95.0 L 177.5 92.5 L 173.75 92.5 " stroke="black" fill="none" stroke-width="6.0" stroke-linecap="round" stroke-linejoin="round" />
<path d="M 151.25 68.75 L 151.25 68.75 L 151.25 68.75 L 151.25 76.25 L 151.25 101.25 L 148.75 131.25 L 143.75 148.75 L 138.75 151.25 " stroke="black" fill="none" stroke-width="6.0" stroke-linecap="round" stroke-linejoin="round" />
<path d="M 76.25 157.5 L 68.75 158.75 L 70.0 160.0 L 87.5 160.0 L 120.0 152.5 L 162.5 136.25 L 195.0 120.0 L 205.0 110.0 L 203.75 107.5 L 192.5 111.25 L 188.75 112.5 " stroke="black" fill="none" stroke-width="6.0" stroke-linecap="round" stroke-linejoin="round" />
<path d="M 147.5 140.0 L 140.0 150.0 L 133.75 170.0 L 132.5 196.25 L 133.75 213.75 L 138.75 222.5 L 141.25 225.0 L 142.5 222.5 L 140.0 217.5 L 136.25 212.5 L 131.25 206.25 L 128.75 196.25 L 127.5 187.5 L 127.5 176.25 L 127.5 170.0 L 131.25 165.0 L 140.0 160.0 L 155.0 153.75 L 175.0 148.75 L 191.25 147.5 L 197.5 157.5 L 195.0 177.5 L 187.5 197.5 L 177.5 212.5 L 168.75 217.5 L 163.75 218.75 " stroke="black" fill="none" stroke-width="6.0" stroke-linecap="round" stroke-linejoin="round" />
<path d="M 155.0 155.0 L 156.25 153.75 L 157.5 153.75 L 160.0 165.0 L 160.0 185.0 L 156.25 203.75 L 148.75 215.0 L 140.0 218.75 L 131.25 220.0 L 128.75 220.0 L 131.25 218.75 L 143.75 215.0 L 160.0 210.0 L 177.5 202.5 L 190.0 197.5 L 193.75 195.0 L 191.25 196.25 L 183.75 202.5 L 173.75 213.75 L 157.5 230.0 L 142.5 247.5 L 132.5 258.75 L 130.0 261.25 L 131.25 256.25 " stroke="black" fill="none" stroke-width="6.0" stroke-linecap="round" stroke-linejoin="round" />
<path d="M 170.0 220.0 L 171.25 220.0 L 172.5 220.0 L 178.75 223.75 L 193.75 233.75 L 207.5 246.25 L 217.5 255.0 L 223.75 260.0 L 225.0 262.5 L 222.5 262.5 " stroke="black" fill="none" stroke-width="6.0" stroke-linecap="round" stroke-linejoin="round" />
</svg>