<svg xmlns="http://www.w3.org/2000/svg" width="300" height="300" viewBox="0 0 300 300">
<path d="M 91.25 70.0 L 90.0 66.25 L 88.75 65.0 L 88.75 65.0 L 90.0 72.5 L 91.25 85.0 L 93.75 93.75 L 100.0 96.25 L 113.75 88.75 L 130.0 76.25 L 138.75 67.5 L 140.0 65.0 L 133.75 67.5 L 123.75 71.25 L 117.5 72.5 " stroke="black" fill="none" stroke-width="6.0" stroke-linecap="round" stroke-linejoin="round" />
<path d="M 107.5 66.25 L 107.5 66.25 L 107.5 66.25 L 107.5 66.25 L 107.5 78.75 L 103.75 97.5 L 96.25 115.0 L 90.0 123.75 L 83.75 125.0 L 82.5 125.0 L 87.5 120.0 L 101.25 111.25 L 115.0 101.25 L 128.75 93.75 L 133.75 91.25 L 128.75 95.0 L 117.5 108.75 L 106.25 123.75 L 97.5 138.75 L 95.0 146.25 L 95.0 146.25 " stroke="black" fill="none" stroke-width="6.0" stroke-linecap="round" stroke-linejoin="round" />
<path d="M 118.75 106.25 L 118.75 106.25 L 117.5 107.5 L 117.5 111.25 L 122.5 123.75 L 131.25 137.5 L 142.5 140.0 L 150.0 130.0 L 161.25 102.5 L 166.25 85.0 " stroke="black" fill="none" stroke-width="6.0" stroke-linecap="round" stroke-linejoin="round" />
<path d="M 168.75 57.5 L 166.25 58.75 L 165.0 65.0 L 165.0 73.75 L 172.5 78.75 L 186.25 78.75 L 201.25 67.5 L 210.0 56.25 L 212.5 48.75 L 205.0 47.5 L 195.0 51.25 " stroke="black" fill="none" stroke-width="6.0" stroke-linecap="round" stroke-linejoin="round" />
<path d="M 182.5 51.25 L 182.5 52.5 L 182.5 62.5 L 180.0 78.75 L 173.75 103.75 L 170.0 108.75 L 167.5 108.75 L 167.5 107.5 L 170.0 102.5 L 178.75 96.25 L 190.0 90.0 L 198.75 85.0 L 202.5 83.75 L 197.5 92.5 L 182.5 112.5 L 165.0 133.75 L 156.25 142.5 L 153.75 140.0 L 156.25 137.5 " stroke="black" fill="none" stroke-width="6.0" stroke-linecap="round" stroke-linejoin="round" />
<path d="M 191.25 95.0 L 191.25 96.25 L 192.5 100.0 L 197.5 107.5 L 211.25 115.0 L 230.0 115.0 L 245.0 106.25 L 246.25 101.25 " stroke="black" fill="none" stroke-width="6.0" stroke-linecap="round" stroke-linejoin="round" />
<path d="M 141.25 147.5 L 141.25 147.5 L 140.0 146.25 L 138.75 147.5 L 137.5 166.25 L 137.5 197.5 L 137.5 218.75 L 141.25 222.5 L 143.75 217.5 L 145.0 206.25 L 145.0 195.0 L 145.0 183.75 L 142.5 171.25 L 137.5 160.0 L 132.5 155.0 L 131.25 155.0 L 136.25 152.5 L 150.0 147.5 L 168.75 143.75 L 185.0 145.0 L 193.75 160.0 L 195.0 183.75 L 193.75 203.75 L 190.0 215.0 L 188.75 217.5 L 185.0 216.25 L 178.75 211.25 L 177.5 208.75 " stroke="black" fill="none" stroke-width="6.0" stroke-linecap="round" stroke-linejoin="round" />
<path d="M 142.5 185.0 L 141.25 185.0 L 136.25 185.0 L 138.75 185.0 L 151.25 178.75 L 168.75 168.75 L 182.5 160.0 L 183.75 156.25 " stroke="black" fill="none" stroke-width="6.0" stroke-linecap="round" stroke-linejoin="round" />
<path d="M 140.0 202.5 L 140.0 203.75 L 138.75 203.75 L 145.0 202.5 L 163.75 192.5 L 185.0 180.0 L 193.75 172.5 L 191.25 173.75 " stroke="black" fill="none" stroke-width="6.0" stroke-linecap="round" stroke-linejoin="round" />
<path d="M 146.25 230.0 L 145.0 230.0 L 145.0 231.25 L 155.0 225.0 L 173.75 213.75 L 186.25 208.75 L 185.0 213.75 L 170.0 230.0 L 153.75 246.25 L 137.5 260.0 L 126.25 266.25 L 126.25 265.0 " stroke="black" fill="none" stroke-width="6.0" stroke-linecap="round" stroke-linejoin="round" />
<path d="M 175.0 215.0 L 175.0 215.0 L 176.25 216.25 L 181.25 218.75 L 201.25 237.5 L 216.25 253.75 L 225.0 262.5 L 227.5 263.75 L 227.5 262.5 L 222.5 262.5 L 218.75 262.5 " stroke="black" fill="none" stroke-width="6.0" stroke-linecap="round" stroke-linejoin="round" />
</svg>