<svg xmlns="http://www.w3.org/2000/svg" width="300" height="300" viewBox="0 0 300 300">
<path d="M 88.75 108.75 L 87.5 108.75 L 87.5 110.0 L 90.0 108.75 L 103.75 105.0 L 122.5 97.5 L 135.0 91.25 L 131.25 88.75 " stroke="black" fill="none" stroke-width="6.0" stroke-linecap="round" stroke-linejoin="round" />
<path d="M 97.5 83.75 L 97.5 83.75 L 97.5 83.75 L 97.5 83.75 L 101.25 92.5 L 105.0 112.5 L 105.0 132.5 L 97.5 142.5 L 88.75 143.75 L 75.0 145.0 L 66.25 146.25 L 66.25 146.25 L 80.0 145.0 L 101.25 138.75 L 126.25 130.0 L 147.5 120.0 L 153.75 112.5 L 148.75 111.25 L 146.25 111.25 " stroke="black" fill="none" stroke-width="6.0" stroke-linecap="round" stroke-linejoin="round" />
<path d="M 113.75 137.5 L 112.5 143.75 L 111.25 157.5 L 111.25 178.75 L 111.25 195.0 L 111.25 197.5 L 110.0 196.25 " stroke="black" fill="none" stroke-width="6.0" stroke-linecap="round" stroke-linejoin="round" />
<path d="M 115.0 175.0 L 115.0 173.75 L 115.0 171.25 L 118.75 167.5 L 130.0 160.0 L 141.25 152.5 L 146.25 146.25 L 143.75 145.0 " stroke="black" fill="none" stroke-width="6.0" stroke-linecap="round" stroke-linejoin="round" />
<path d="M 83.75 150.0 L 83.75 150.0 L 81.25 152.5 L 81.25 163.75 L 82.5 195.0 L 81.25 225.0 L 76.25 241.25 L 70.0 241.25 L 68.75 237.5 " stroke="black" fill="none" stroke-width="6.0" stroke-linecap="round" stroke-linejoin="round" />
<path d="M 86.25 182.5 L 87.5 182.5 L 88.75 181.25 L 96.25 185.0 L 118.75 202.5 L 151.25 225.0 L 181.25 240.0 L 208.75 243.75 L 231.25 245.0 L 246.25 245.0 L 251.25 241.25 " stroke="black" fill="none" stroke-width="6.0" stroke-linecap="round" stroke-linejoin="round" />
<path d="M 165.0 93.75 L 163.75 93.75 L 158.75 95.0 L 158.75 95.0 L 175.0 93.75 L 200.0 92.5 L 220.0 92.5 L 231.25 100.0 L 230.0 116.25 L 212.5 137.5 L 196.25 152.5 L 178.75 157.5 L 175.0 157.5 " stroke="black" fill="none" stroke-width="6.0" stroke-linecap="round" stroke-linejoin="round" />
<path d="M 185.0 108.75 L 185.0 107.5 L 183.75 105.0 L 183.75 103.75 L 178.75 112.5 L 168.75 136.25 L 157.5 162.5 L 155.0 167.5 " stroke="black" fill="none" stroke-width="6.0" stroke-linecap="round" stroke-linejoin="round" />
<path d="M 155.0 173.75 L 155.0 175.0 L 155.0 181.25 L 158.75 188.75 L 166.25 201.25 L 177.5 211.25 L 185.0 215.0 L 187.5 215.0 L 187.5 212.5 L 182.5 207.5 L 173.75 202.5 L 165.0 196.25 L 160.0 191.25 L 158.75 186.25 L 171.25 181.25 L 191.25 175.0 L 211.25 170.0 L 225.0 170.0 L 226.25 175.0 L 218.75 188.75 L 205.0 203.75 L 191.25 216.25 L 183.75 220.0 L 186.25 218.75 L 198.75 210.0 L 215.0 198.75 L 231.25 183.75 " stroke="black" fill="none" stroke-width="6.0" stroke-linecap="round" stroke-linejoin="round" />
</svg>