<svg xmlns="http://www.w3.org/2000/svg" width="300" height="300" viewBox="0 0 300 300">
<path d="M 97.5 96.25 L 96.25 95.0 L 93.75 91.25 L 93.75 90.0 L 97.5 96.25 L 108.75 113.75 L 122.5 131.25 L 137.5 142.5 L 145.0 143.75 L 143.75 136.25 L 138.75 127.5 L 132.5 118.75 L 123.75 110.0 L 115.0 101.25 L 111.25 95.0 L 112.5 91.25 L 130.0 86.25 L 151.25 81.25 L 171.25 78.75 L 183.75 80.0 L 183.75 87.5 L 170.0 102.5 L 153.75 120.0 L 138.75 135.0 L 128.75 142.5 L 127.5 142.5 L 136.25 136.25 L 150.0 125.0 L 160.0 115.0 L 167.5 108.75 L 168.75 111.25 L 163.75 131.25 L 158.75 158.75 L 157.5 188.75 L 157.5 203.75 L 158.75 206.25 L 158.75 205.0 L 158.75 202.5 L 158.75 198.75 L 162.5 191.25 L 168.75 181.25 L 176.25 168.75 L 183.75 156.25 L 188.75 147.5 L 186.25 142.5 L 183.75 142.5 " stroke="black" fill="none" stroke-width="6.0" stroke-linecap="round" stroke-linejoin="round" />
<path d="M 108.75 151.25 L 107.5 152.5 L 105.0 155.0 L 103.75 176.25 L 103.75 210.0 L 102.5 232.5 L 101.25 238.75 L 98.75 236.25 " stroke="black" fill="none" stroke-width="6.0" stroke-linecap="round" stroke-linejoin="round" />
<path d="M 102.5 192.5 L 103.75 190.0 L 103.75 188.75 L 111.25 191.25 L 128.75 201.25 L 152.5 216.25 L 181.25 226.25 L 208.75 230.0 L 232.5 230.0 L 251.25 228.75 L 263.75 228.75 L 266.25 227.5 " stroke="black" fill="none" stroke-width="6.0" stroke-linecap="round" stroke-linejoin="round" />
</svg>