<svg xmlns="http://www.w3.org/2000/svg" width="300" height="300" viewBox="0 0 300 300">
<path d="M 61.25 112.5 L 61.25 111.25 L 60.0 110.0 L 60.0 108.75 L 70.0 115.0 L 80.0 127.5 L 87.5 138.75 L 88.75 141.25 " stroke="black" fill="none" stroke-width="6.0" stroke-linecap="round" stroke-linejoin="round" />
<path d="M 73.75 115.0 L 72.5 113.75 L 72.5 111.25 L 81.25 105.0 L 97.5 97.5 L 115.0 92.5 L 123.75 92.5 L 120.0 102.5 L 107.5 120.0 L 95.0 136.25 L 85.0 148.75 L 82.5 151.25 L 87.5 147.5 L 98.75 137.5 L 108.75 127.5 L 116.25 118.75 L 117.5 116.25 L 113.75 118.75 L 107.5 126.25 L 103.75 137.5 L 102.5 155.0 L 103.75 182.5 L 107.5 203.75 L 108.75 207.5 L 108.75 205.0 L 108.75 197.5 L 110.0 186.25 L 112.5 173.75 L 117.5 162.5 L 121.25 153.75 L 122.5 148.75 L 120.0 148.75 " stroke="black" fill="none" stroke-width="6.0" stroke-linecap="round" stroke-linejoin="round" />
<path d="M 68.75 168.75 L 68.75 170.0 L 67.5 175.0 L 70.0 188.75 L 77.5 208.75 L 81.25 223.75 L 82.5 227.5 L 85.0 226.25 L 90.0 220.0 L 98.75 211.25 L 112.5 202.5 L 126.25 190.0 L 138.75 172.5 L 145.0 153.75 L 146.25 148.75 " stroke="black" fill="none" stroke-width="6.0" stroke-linecap="round" stroke-linejoin="round" />
<path d="M 166.25 81.25 L 167.5 78.75 L 167.5 77.5 L 167.5 78.75 L 165.0 92.5 L 162.5 106.25 L 162.5 113.75 L 167.5 113.75 L 177.5 103.75 L 188.75 93.75 L 196.25 87.5 L 197.5 87.5 L 191.25 103.75 L 178.75 131.25 L 162.5 160.0 L 143.75 187.5 L 135.0 195.0 " stroke="black" fill="none" stroke-width="6.0" stroke-linecap="round" stroke-linejoin="round" />
<path d="M 150.0 128.75 L 150.0 128.75 L 153.75 128.75 L 172.5 135.0 L 198.75 146.25 L 222.5 157.5 L 245.0 165.0 L 255.0 168.75 L 255.0 172.5 L 251.25 176.25 " stroke="black" fill="none" stroke-width="6.0" stroke-linecap="round" stroke-linejoin="round" />
<path d="M 156.25 187.5 L 156.25 188.75 L 160.0 195.0 L 173.75 213.75 L 188.75 232.5 L 193.75 238.75 L 193.75 237.5 L 188.75 231.25 L 180.0 225.0 L 171.25 216.25 L 163.75 208.75 L 162.5 200.0 L 170.0 192.5 L 188.75 183.75 L 210.0 176.25 L 225.0 173.75 L 230.0 180.0 L 225.0 193.75 L 213.75 210.0 L 201.25 225.0 L 193.75 233.75 L 196.25 232.5 L 208.75 221.25 L 227.5 205.0 L 241.25 192.5 L 246.25 187.5 " stroke="black" fill="none" stroke-width="6.0" stroke-linecap="round" stroke-linejoin="round" />
</svg>