<svg xmlns="http://www.w3.org/2000/svg" width="300" height="300" viewBox="0 0 300 300">
<path d="M 57.5 108.75 L 55.0 108.75 L 53.75 108.75 L 56.25 112.5 L 68.75 126.25 L 78.75 138.75 L 82.5 146.25 L 81.25 147.5 " stroke="black" fill="none" stroke-width="6.0" stroke-linecap="round" stroke-linejoin="round" />
<path d="M 66.25 125.0 L 62.5 122.5 L 62.5 121.25 L 67.5 118.75 L 80.0 112.5 L 91.25 106.25 L 100.0 103.75 L 101.25 103.75 L 97.5 113.75 L 90.0 126.25 L 82.5 138.75 L 77.5 146.25 L 75.0 150.0 L 77.5 150.0 L 83.75 145.0 L 91.25 140.0 L 96.25 133.75 L 98.75 131.25 L 98.75 130.0 L 95.0 133.75 L 92.5 145.0 L 91.25 167.5 L 91.25 207.5 L 91.25 210.0 L 92.5 208.75 L 92.5 207.5 L 92.5 206.25 L 92.5 203.75 L 95.0 198.75 L 97.5 191.25 L 102.5 181.25 L 110.0 171.25 L 116.25 161.25 L 117.5 157.5 L 111.25 161.25 L 108.75 162.5 " stroke="black" fill="none" stroke-width="6.0" stroke-linecap="round" stroke-linejoin="round" />
<path d="M 53.75 182.5 L 53.75 182.5 L 53.75 182.5 L 55.0 185.0 L 61.25 203.75 L 68.75 226.25 L 72.5 237.5 L 73.75 238.75 L 78.75 235.0 L 86.25 227.5 L 95.0 220.0 L 103.75 213.75 L 113.75 210.0 L 118.75 206.25 L 118.75 205.0 " stroke="black" fill="none" stroke-width="6.0" stroke-linecap="round" stroke-linejoin="round" />
<path d="M 141.25 93.75 L 140.0 93.75 L 137.5 92.5 L 137.5 92.5 L 137.5 100.0 L 140.0 110.0 L 142.5 116.25 L 147.5 117.5 L 155.0 111.25 L 165.0 101.25 L 170.0 93.75 L 170.0 92.5 L 161.25 97.5 L 153.75 105.0 " stroke="black" fill="none" stroke-width="6.0" stroke-linecap="round" stroke-linejoin="round" />
<path d="M 117.5 178.75 L 117.5 181.25 L 121.25 182.5 L 136.25 175.0 L 155.0 160.0 L 175.0 145.0 L 183.75 135.0 L 182.5 132.5 L 173.75 133.75 L 166.25 136.25 L 160.0 137.5 " stroke="black" fill="none" stroke-width="6.0" stroke-linecap="round" stroke-linejoin="round" />
<path d="M 146.25 127.5 L 146.25 127.5 L 145.0 127.5 L 145.0 130.0 L 147.5 152.5 L 147.5 192.5 L 143.75 222.5 L 137.5 236.25 L 131.25 238.75 L 128.75 235.0 " stroke="black" fill="none" stroke-width="6.0" stroke-linecap="round" stroke-linejoin="round" />
<path d="M 151.25 165.0 L 151.25 163.75 L 152.5 163.75 L 161.25 172.5 L 177.5 193.75 L 191.25 211.25 L 200.0 221.25 L 202.5 227.5 L 202.5 230.0 " stroke="black" fill="none" stroke-width="6.0" stroke-linecap="round" stroke-linejoin="round" />
<path d="M 196.25 135.0 L 195.0 133.75 L 192.5 133.75 L 191.25 132.5 L 193.75 141.25 L 200.0 165.0 L 205.0 186.25 L 206.25 195.0 L 205.0 195.0 L 202.5 187.5 L 200.0 177.5 L 198.75 163.75 L 196.25 150.0 L 195.0 140.0 L 195.0 135.0 L 201.25 131.25 L 210.0 130.0 L 222.5 128.75 L 231.25 132.5 L 232.5 142.5 L 227.5 156.25 L 216.25 173.75 L 206.25 188.75 L 202.5 198.75 L 203.75 200.0 L 215.0 200.0 L 231.25 192.5 L 247.5 183.75 L 256.25 177.5 L 258.75 173.75 " stroke="black" fill="none" stroke-width="6.0" stroke-linecap="round" stroke-linejoin="round" />
</svg>