<svg xmlns="http://www.w3.org/2000/svg" width="300" height="300" viewBox="0 0 300 300">
<path d="M 71.25 102.5 L 66.25 103.75 L 70.0 105.0 L 83.75 103.75 L 102.5 97.5 L 122.5 87.5 L 135.0 77.5 L 128.75 73.75 " stroke="black" fill="none" stroke-width="6.0" stroke-linecap="round" stroke-linejoin="round" />
<path d="M 63.75 131.25 L 61.25 136.25 L 63.75 148.75 L 71.25 168.75 L 77.5 187.5 L 82.5 195.0 L 82.5 196.25 L 77.5 195.0 " stroke="black" fill="none" stroke-width="6.0" stroke-linecap="round" stroke-linejoin="round" />
<path d="M 70.0 150.0 L 70.0 148.75 L 70.0 147.5 L 78.75 142.5 L 98.75 136.25 L 123.75 131.25 L 140.0 132.5 L 141.25 141.25 L 132.5 155.0 L 117.5 170.0 L 102.5 180.0 L 91.25 185.0 " stroke="black" fill="none" stroke-width="6.0" stroke-linecap="round" stroke-linejoin="round" />
<path d="M 76.25 166.25 L 75.0 166.25 L 73.75 166.25 L 82.5 162.5 L 100.0 153.75 L 122.5 143.75 L 133.75 138.75 L 127.5 141.25 " stroke="black" fill="none" stroke-width="6.0" stroke-linecap="round" stroke-linejoin="round" />
<path d="M 85.0 183.75 L 83.75 183.75 L 82.5 183.75 L 90.0 180.0 L 106.25 168.75 L 123.75 157.5 L 126.25 155.0 " stroke="black" fill="none" stroke-width="6.0" stroke-linecap="round" stroke-linejoin="round" />
<path d="M 70.0 233.75 L 70.0 235.0 L 78.75 231.25 L 103.75 213.75 L 137.5 193.75 L 153.75 180.0 L 156.25 171.25 L 150.0 167.5 L 138.75 166.25 L 131.25 163.75 " stroke="black" fill="none" stroke-width="6.0" stroke-linecap="round" stroke-linejoin="round" />
<path d="M 105.0 93.75 L 105.0 92.5 L 101.25 86.25 L 101.25 83.75 L 101.25 83.75 L 103.75 97.5 L 110.0 133.75 L 113.75 190.0 L 112.5 235.0 L 108.75 258.75 L 105.0 267.5 L 101.25 267.5 L 95.0 261.25 L 90.0 246.25 " stroke="black" fill="none" stroke-width="6.0" stroke-linecap="round" stroke-linejoin="round" />
<path d="M 183.75 110.0 L 183.75 110.0 L 181.25 110.0 L 182.5 110.0 L 196.25 108.75 L 215.0 103.75 L 237.5 97.5 L 245.0 93.75 " stroke="black" fill="none" stroke-width="6.0" stroke-linecap="round" stroke-linejoin="round" />
<path d="M 156.25 191.25 L 156.25 193.75 L 157.5 197.5 L 176.25 195.0 L 207.5 178.75 L 241.25 158.75 L 261.25 145.0 L 262.5 138.75 L 255.0 138.75 " stroke="black" fill="none" stroke-width="6.0" stroke-linecap="round" stroke-linejoin="round" />
<path d="M 213.75 126.25 L 213.75 126.25 L 212.5 125.0 L 212.5 125.0 L 215.0 136.25 L 220.0 177.5 L 221.25 228.75 L 218.75 261.25 L 216.25 276.25 L 213.75 283.75 L 203.75 286.25 L 200.0 286.25 " stroke="black" fill="none" stroke-width="6.0" stroke-linecap="round" stroke-linejoin="round" />
</svg>