<svg xmlns="http://www.w3.org/2000/svg" width="300" height="300" viewBox="0 0 300 300">
<path d="M 82.5 116.25 L 77.5 115.0 L 72.5 115.0 L 71.25 115.0 L 81.25 112.5 L 98.75 107.5 L 120.0 101.25 L 140.0 95.0 L 146.25 90.0 L 142.5 88.75 " stroke="black" fill="none" stroke-width="6.0" stroke-linecap="round" stroke-linejoin="round" />
<path d="M 83.75 138.75 L 81.25 146.25 L 80.0 156.25 L 85.0 170.0 L 88.75 183.75 L 91.25 187.5 L 91.25 187.5 L 88.75 186.25 " stroke="black" fill="none" stroke-width="6.0" stroke-linecap="round" stroke-linejoin="round" />
<path d="M 78.75 158.75 L 77.5 157.5 L 75.0 156.25 L 76.25 153.75 L 87.5 150.0 L 108.75 143.75 L 133.75 140.0 L 148.75 140.0 L 150.0 145.0 L 142.5 156.25 L 130.0 170.0 L 117.5 181.25 L 105.0 185.0 L 102.5 186.25 " stroke="black" fill="none" stroke-width="6.0" stroke-linecap="round" stroke-linejoin="round" />
<path d="M 91.25 170.0 L 88.75 172.5 L 87.5 172.5 L 95.0 170.0 L 111.25 162.5 L 130.0 153.75 L 142.5 146.25 L 141.25 145.0 " stroke="black" fill="none" stroke-width="6.0" stroke-linecap="round" stroke-linejoin="round" />
<path d="M 91.25 187.5 L 88.75 191.25 L 88.75 191.25 L 100.0 187.5 L 117.5 176.25 L 135.0 163.75 L 143.75 155.0 L 143.75 155.0 " stroke="black" fill="none" stroke-width="6.0" stroke-linecap="round" stroke-linejoin="round" />
<path d="M 86.25 227.5 L 86.25 230.0 L 88.75 230.0 L 103.75 218.75 L 131.25 200.0 L 151.25 183.75 L 155.0 175.0 L 152.5 168.75 L 146.25 168.75 " stroke="black" fill="none" stroke-width="6.0" stroke-linecap="round" stroke-linejoin="round" />
<path d="M 103.75 87.5 L 102.5 82.5 L 101.25 80.0 L 102.5 80.0 L 107.5 87.5 L 113.75 118.75 L 117.5 175.0 L 115.0 226.25 L 107.5 248.75 L 102.5 256.25 L 98.75 257.5 L 95.0 253.75 L 95.0 251.25 " stroke="black" fill="none" stroke-width="6.0" stroke-linecap="round" stroke-linejoin="round" />
<path d="M 182.5 91.25 L 180.0 92.5 L 180.0 93.75 L 191.25 93.75 L 208.75 92.5 L 230.0 88.75 L 247.5 83.75 L 251.25 81.25 L 246.25 81.25 " stroke="black" fill="none" stroke-width="6.0" stroke-linecap="round" stroke-linejoin="round" />
<path d="M 173.75 135.0 L 172.5 137.5 L 170.0 146.25 L 171.25 160.0 L 176.25 176.25 L 181.25 183.75 L 182.5 183.75 L 182.5 181.25 L 178.75 176.25 L 176.25 170.0 L 175.0 162.5 L 176.25 155.0 L 183.75 148.75 L 196.25 143.75 L 207.5 143.75 L 211.25 147.5 L 207.5 158.75 L 196.25 171.25 L 185.0 181.25 L 178.75 185.0 L 182.5 182.5 L 195.0 168.75 L 208.75 153.75 " stroke="black" fill="none" stroke-width="6.0" stroke-linecap="round" stroke-linejoin="round" />
<path d="M 237.5 105.0 L 236.25 103.75 L 235.0 103.75 L 233.75 103.75 L 235.0 110.0 L 238.75 133.75 L 240.0 180.0 L 236.25 221.25 L 231.25 245.0 L 227.5 252.5 L 225.0 253.75 L 222.5 253.75 L 216.25 250.0 L 207.5 245.0 L 195.0 236.25 L 173.75 222.5 " stroke="black" fill="none" stroke-width="6.0" stroke-linecap="round" stroke-linejoin="round" />
</svg>