<svg xmlns="http://www.w3.org/2000/svg" width="300" height="300" viewBox="0 0 300 300">
<path d="M 71.25 117.5 L 70.0 117.5 L 67.5 118.75 L 67.5 118.75 L 77.5 118.75 L 93.75 112.5 L 111.25 103.75 L 121.25 95.0 L 117.5 93.75 L 106.25 97.5 L 102.5 100.0 " stroke="black" fill="none" stroke-width="6.0" stroke-linecap="round" stroke-linejoin="round" />
<path d="M 61.25 145.0 L 61.25 146.25 L 60.0 150.0 L 61.25 157.5 L 67.5 170.0 L 75.0 182.5 L 78.75 190.0 L 80.0 191.25 L 78.75 187.5 L 76.25 182.5 L 73.75 175.0 L 72.5 166.25 L 71.25 158.75 L 68.75 153.75 L 67.5 152.5 L 66.25 152.5 L 70.0 152.5 L 82.5 151.25 L 98.75 147.5 L 115.0 146.25 L 123.75 146.25 L 125.0 152.5 L 116.25 163.75 L 103.75 175.0 L 92.5 183.75 L 91.25 185.0 " stroke="black" fill="none" stroke-width="6.0" stroke-linecap="round" stroke-linejoin="round" />
<path d="M 73.75 177.5 L 71.25 177.5 L 70.0 177.5 L 77.5 175.0 L 90.0 167.5 L 105.0 157.5 L 115.0 150.0 L 115.0 148.75 L 103.75 153.75 " stroke="black" fill="none" stroke-width="6.0" stroke-linecap="round" stroke-linejoin="round" />
<path d="M 76.25 192.5 L 76.25 192.5 L 76.25 192.5 L 82.5 188.75 L 96.25 178.75 L 110.0 167.5 L 115.0 161.25 L 110.0 160.0 " stroke="black" fill="none" stroke-width="6.0" stroke-linecap="round" stroke-linejoin="round" />
<path d="M 57.5 216.25 L 50.0 220.0 L 48.75 220.0 L 51.25 220.0 L 66.25 215.0 L 88.75 203.75 L 110.0 190.0 L 125.0 178.75 L 128.75 172.5 L 122.5 170.0 L 112.5 168.75 " stroke="black" fill="none" stroke-width="6.0" stroke-linecap="round" stroke-linejoin="round" />
<path d="M 88.75 103.75 L 87.5 102.5 L 87.5 101.25 L 86.25 102.5 L 91.25 123.75 L 96.25 172.5 L 97.5 213.75 L 95.0 236.25 L 91.25 250.0 L 83.75 251.25 " stroke="black" fill="none" stroke-width="6.0" stroke-linecap="round" stroke-linejoin="round" />
<path d="M 147.5 96.25 L 147.5 92.5 L 148.75 91.25 L 151.25 95.0 L 152.5 113.75 L 152.5 132.5 L 152.5 141.25 L 156.25 142.5 L 170.0 133.75 L 186.25 125.0 L 196.25 118.75 L 201.25 116.25 L 201.25 116.25 L 201.25 120.0 L 197.5 128.75 L 190.0 140.0 L 177.5 150.0 " stroke="black" fill="none" stroke-width="6.0" stroke-linecap="round" stroke-linejoin="round" />
<path d="M 161.25 140.0 L 161.25 140.0 L 161.25 140.0 L 161.25 152.5 L 158.75 183.75 L 153.75 212.5 L 146.25 230.0 L 136.25 238.75 L 125.0 241.25 L 121.25 240.0 " stroke="black" fill="none" stroke-width="6.0" stroke-linecap="round" stroke-linejoin="round" />
<path d="M 165.0 173.75 L 165.0 173.75 L 167.5 177.5 L 177.5 188.75 L 195.0 206.25 L 215.0 227.5 L 233.75 238.75 L 247.5 243.75 L 253.75 245.0 L 257.5 245.0 L 257.5 245.0 " stroke="black" fill="none" stroke-width="6.0" stroke-linecap="round" stroke-linejoin="round" />
</svg>