<svg xmlns="http://www.w3.org/2000/svg" width="300" height="300" viewBox="0 0 300 300">
<path d="M 62.5 133.75 L 57.5 133.75 L 53.75 133.75 L 55.0 133.75 L 68.75 132.5 L 86.25 123.75 L 103.75 110.0 L 113.75 98.75 L 113.75 95.0 L 106.25 97.5 " stroke="black" fill="none" stroke-width="6.0" stroke-linecap="round" stroke-linejoin="round" />
<path d="M 71.25 145.0 L 70.0 146.25 L 65.0 152.5 L 65.0 163.75 L 71.25 182.5 L 77.5 198.75 L 81.25 203.75 L 82.5 203.75 L 82.5 200.0 L 80.0 195.0 L 76.25 190.0 L 72.5 185.0 L 70.0 177.5 L 67.5 170.0 L 68.75 162.5 L 77.5 155.0 L 90.0 148.75 L 105.0 142.5 L 113.75 141.25 L 116.25 142.5 L 110.0 152.5 L 98.75 163.75 L 88.75 175.0 L 76.25 183.75 L 71.25 186.25 L 71.25 186.25 L 80.0 180.0 L 91.25 171.25 L 102.5 163.75 L 111.25 158.75 L 113.75 157.5 L 108.75 166.25 L 97.5 180.0 L 87.5 192.5 L 76.25 201.25 L 73.75 203.75 L 77.5 201.25 L 88.75 192.5 L 101.25 181.25 L 110.0 173.75 L 112.5 170.0 L 107.5 177.5 L 105.0 180.0 " stroke="black" fill="none" stroke-width="6.0" stroke-linecap="round" stroke-linejoin="round" />
<path d="M 51.25 241.25 L 47.5 245.0 L 48.75 246.25 L 62.5 238.75 L 85.0 221.25 L 112.5 197.5 L 132.5 180.0 L 137.5 171.25 L 136.25 167.5 L 127.5 168.75 L 116.25 170.0 L 105.0 168.75 L 97.5 162.5 L 93.75 151.25 L 93.75 147.5 " stroke="black" fill="none" stroke-width="6.0" stroke-linecap="round" stroke-linejoin="round" />
<path d="M 92.5 112.5 L 91.25 108.75 L 90.0 102.5 L 90.0 98.75 L 90.0 97.5 L 90.0 97.5 L 90.0 97.5 L 90.0 98.75 L 90.0 101.25 L 90.0 112.5 L 92.5 137.5 L 95.0 186.25 L 97.5 241.25 L 97.5 273.75 L 96.25 295.0 L 92.5 305.0 L 90.0 306.25 L 86.25 301.25 L 85.0 300.0 " stroke="black" fill="none" stroke-width="6.0" stroke-linecap="round" stroke-linejoin="round" />
<path d="M 156.25 92.5 L 155.0 92.5 L 152.5 92.5 L 151.25 92.5 L 158.75 91.25 L 173.75 86.25 L 188.75 80.0 L 197.5 73.75 L 195.0 72.5 L 186.25 73.75 L 177.5 75.0 L 172.5 75.0 L 170.0 75.0 L 171.25 75.0 L 176.25 78.75 L 180.0 88.75 L 178.75 100.0 L 170.0 111.25 L 158.75 118.75 L 145.0 125.0 L 138.75 127.5 L 138.75 127.5 L 147.5 126.25 L 163.75 118.75 L 183.75 108.75 L 200.0 97.5 L 205.0 92.5 L 201.25 92.5 L 191.25 96.25 L 180.0 102.5 L 168.75 108.75 L 160.0 120.0 L 156.25 135.0 L 156.25 150.0 L 158.75 165.0 L 161.25 173.75 L 161.25 173.75 L 161.25 171.25 L 158.75 165.0 L 155.0 160.0 L 152.5 152.5 L 151.25 146.25 L 155.0 140.0 L 166.25 133.75 L 181.25 130.0 L 191.25 128.75 L 193.75 132.5 L 183.75 143.75 L 170.0 155.0 L 153.75 170.0 L 141.25 183.75 L 138.75 188.75 L 145.0 186.25 L 158.75 175.0 L 173.75 162.5 L 185.0 155.0 L 187.5 155.0 L 173.75 177.5 L 155.0 208.75 L 140.0 237.5 L 132.5 251.25 L 133.75 250.0 L 135.0 247.5 " stroke="black" fill="none" stroke-width="6.0" stroke-linecap="round" stroke-linejoin="round" />
<path d="M 171.25 180.0 L 171.25 180.0 L 170.0 185.0 L 170.0 201.25 L 170.0 231.25 L 173.75 247.5 L 183.75 247.5 L 197.5 235.0 L 211.25 213.75 L 223.75 195.0 L 232.5 178.75 L 231.25 172.5 L 220.0 173.75 L 205.0 181.25 L 188.75 192.5 L 173.75 202.5 L 166.25 208.75 L 166.25 208.75 L 170.0 207.5 L 173.75 207.5 L 176.25 207.5 L 177.5 207.5 L 178.75 207.5 L 180.0 207.5 L 180.0 207.5 L 180.0 207.5 L 180.0 207.5 L 180.0 207.5 L 181.25 208.75 L 191.25 217.5 L 212.5 238.75 L 238.75 257.5 L 256.25 261.25 L 260.0 261.25 " stroke="black" fill="none" stroke-width="6.0" stroke-linecap="round" stroke-linejoin="round" />
</svg>