<svg xmlns="http://www.w3.org/2000/svg" width="300" height="300" viewBox="0 0 300 300">
<path d="M 101.25 87.5 L 101.25 87.5 L 101.25 87.5 L 105.0 87.5 L 123.75 82.5 L 153.75 76.25 L 178.75 68.75 L 190.0 65.0 L 187.5 63.75 L 175.0 67.5 L 158.75 73.75 L 155.0 75.0 " stroke="black" fill="none" stroke-width="6.0" stroke-linecap="round" stroke-linejoin="round" />
<path d="M 111.25 91.25 L 110.0 96.25 L 110.0 108.75 L 108.75 142.5 L 105.0 182.5 L 100.0 201.25 L 95.0 203.75 L 91.25 202.5 L 88.75 195.0 " stroke="black" fill="none" stroke-width="6.0" stroke-linecap="round" stroke-linejoin="round" />
<path d="M 130.0 113.75 L 133.75 112.5 L 140.0 110.0 L 152.5 106.25 L 166.25 103.75 L 176.25 101.25 L 178.75 100.0 L 175.0 101.25 " stroke="black" fill="none" stroke-width="6.0" stroke-linecap="round" stroke-linejoin="round" />
<path d="M 127.5 143.75 L 125.0 146.25 L 122.5 148.75 L 126.25 148.75 L 137.5 143.75 L 140.0 142.5 L 161.25 126.25 L 166.25 121.25 L 162.5 121.25 L 153.75 130.0 L 145.0 146.25 L 141.25 170.0 L 141.25 191.25 L 148.75 197.5 L 161.25 191.25 L 176.25 177.5 L 191.25 161.25 L 201.25 150.0 L 205.0 143.75 L 203.75 141.25 L 195.0 141.25 L 181.25 146.25 L 165.0 152.5 L 152.5 157.5 L 145.0 161.25 L 145.0 161.25 L 147.5 161.25 L 150.0 161.25 L 151.25 161.25 L 152.5 161.25 L 153.75 161.25 L 155.0 162.5 L 155.0 162.5 L 155.0 162.5 L 155.0 162.5 L 155.0 163.75 L 156.25 163.75 L 160.0 165.0 L 172.5 166.25 L 191.25 170.0 L 208.75 173.75 L 212.5 175.0 " stroke="black" fill="none" stroke-width="6.0" stroke-linecap="round" stroke-linejoin="round" />
<path d="M 117.5 228.75 L 115.0 231.25 L 115.0 232.5 L 130.0 230.0 L 155.0 221.25 L 190.0 211.25 L 216.25 202.5 L 223.75 198.75 L 225.0 197.5 L 218.75 197.5 L 208.75 198.75 L 202.5 198.75 " stroke="black" fill="none" stroke-width="6.0" stroke-linecap="round" stroke-linejoin="round" />
<path d="M 195.0 197.5 L 195.0 197.5 L 195.0 198.75 L 195.0 200.0 L 195.0 210.0 L 197.5 238.75 L 197.5 262.5 L 197.5 271.25 L 195.0 272.5 L 190.0 271.25 L 181.25 268.75 L 168.75 263.75 L 158.75 260.0 " stroke="black" fill="none" stroke-width="6.0" stroke-linecap="round" stroke-linejoin="round" />
<path d="M 148.75 221.25 L 148.75 222.5 L 147.5 225.0 L 148.75 231.25 L 156.25 240.0 L 165.0 247.5 " stroke="black" fill="none" stroke-width="6.0" stroke-linecap="round" stroke-linejoin="round" />
</svg>