<svg xmlns="http://www.w3.org/2000/svg" width="300" height="300" viewBox="0 0 300 300">
<path d="M 85.0 90.0 L 85.0 90.0 L 83.75 90.0 L 85.0 90.0 L 93.75 91.25 L 106.25 93.75 L 116.25 95.0 L 117.5 97.5 " stroke="black" fill="none" stroke-width="6.0" stroke-linecap="round" stroke-linejoin="round" />
<path d="M 63.75 131.25 L 62.5 132.5 L 62.5 133.75 L 73.75 130.0 L 91.25 120.0 L 108.75 108.75 L 117.5 102.5 L 115.0 101.25 L 107.5 102.5 " stroke="black" fill="none" stroke-width="6.0" stroke-linecap="round" stroke-linejoin="round" />
<path d="M 86.25 126.25 L 85.0 131.25 L 83.75 137.5 L 83.75 145.0 L 83.75 151.25 L 85.0 152.5 " stroke="black" fill="none" stroke-width="6.0" stroke-linecap="round" stroke-linejoin="round" />
<path d="M 102.5 113.75 L 102.5 113.75 L 105.0 116.25 L 105.0 123.75 L 103.75 136.25 L 98.75 147.5 L 90.0 155.0 L 80.0 158.75 L 68.75 161.25 L 67.5 162.5 L 73.75 161.25 L 86.25 157.5 L 98.75 151.25 L 110.0 145.0 L 122.5 137.5 L 125.0 133.75 L 118.75 135.0 " stroke="black" fill="none" stroke-width="6.0" stroke-linecap="round" stroke-linejoin="round" />
<path d="M 67.5 203.75 L 66.25 207.5 L 68.75 208.75 L 85.0 202.5 L 107.5 188.75 L 130.0 172.5 L 137.5 160.0 L 135.0 156.25 " stroke="black" fill="none" stroke-width="6.0" stroke-linecap="round" stroke-linejoin="round" />
<path d="M 93.75 155.0 L 93.75 155.0 L 95.0 156.25 L 98.75 161.25 L 105.0 178.75 L 107.5 205.0 L 98.75 230.0 L 85.0 245.0 L 76.25 247.5 " stroke="black" fill="none" stroke-width="6.0" stroke-linecap="round" stroke-linejoin="round" />
<path d="M 147.5 138.75 L 146.25 137.5 L 145.0 137.5 L 145.0 137.5 L 148.75 141.25 L 156.25 145.0 L 162.5 150.0 L 163.75 150.0 " stroke="black" fill="none" stroke-width="6.0" stroke-linecap="round" stroke-linejoin="round" />
<path d="M 166.25 100.0 L 166.25 100.0 L 166.25 100.0 L 168.75 111.25 L 170.0 148.75 L 166.25 187.5 L 156.25 211.25 L 142.5 220.0 L 138.75 222.5 " stroke="black" fill="none" stroke-width="6.0" stroke-linecap="round" stroke-linejoin="round" />
<path d="M 202.5 87.5 L 202.5 87.5 L 202.5 87.5 L 203.75 87.5 L 210.0 87.5 L 223.75 87.5 L 236.25 86.25 L 240.0 86.25 L 230.0 88.75 " stroke="black" fill="none" stroke-width="6.0" stroke-linecap="round" stroke-linejoin="round" />
<path d="M 188.75 112.5 L 186.25 116.25 L 186.25 117.5 L 193.75 116.25 L 207.5 111.25 L 222.5 102.5 L 232.5 95.0 L 233.75 91.25 L 228.75 91.25 " stroke="black" fill="none" stroke-width="6.0" stroke-linecap="round" stroke-linejoin="round" />
<path d="M 211.25 102.5 L 210.0 106.25 L 206.25 117.5 L 203.75 131.25 L 202.5 145.0 L 202.5 147.5 " stroke="black" fill="none" stroke-width="6.0" stroke-linecap="round" stroke-linejoin="round" />
<path d="M 228.75 100.0 L 230.0 98.75 L 232.5 98.75 L 233.75 103.75 L 232.5 115.0 L 225.0 131.25 L 215.0 143.75 L 201.25 150.0 L 191.25 151.25 L 187.5 151.25 L 191.25 151.25 L 203.75 148.75 L 218.75 143.75 L 233.75 137.5 L 246.25 131.25 L 247.5 128.75 " stroke="black" fill="none" stroke-width="6.0" stroke-linecap="round" stroke-linejoin="round" />
<path d="M 186.25 192.5 L 185.0 197.5 L 188.75 200.0 L 203.75 193.75 L 230.0 178.75 L 256.25 162.5 L 265.0 152.5 L 266.25 147.5 L 258.75 147.5 " stroke="black" fill="none" stroke-width="6.0" stroke-linecap="round" stroke-linejoin="round" />
<path d="M 225.0 143.75 L 225.0 142.5 L 225.0 140.0 L 225.0 140.0 L 225.0 152.5 L 227.5 190.0 L 228.75 245.0 L 227.5 275.0 L 225.0 282.5 L 222.5 285.0 L 215.0 283.75 L 211.25 280.0 " stroke="black" fill="none" stroke-width="6.0" stroke-linecap="round" stroke-linejoin="round" />
</svg>