<svg xmlns="http://www.w3.org/2000/svg" width="300" height="300" viewBox="0 0 300 300">
<path d="M 146.25 90.0 L 145.0 91.25 L 140.0 93.75 L 141.25 95.0 L 151.25 96.25 L 167.5 97.5 L 186.25 93.75 L 196.25 90.0 L 197.5 87.5 L 188.75 90.0 L 173.75 97.5 L 161.25 108.75 L 151.25 133.75 L 148.75 180.0 L 150.0 217.5 L 152.5 228.75 L 156.25 230.0 L 158.75 221.25 L 158.75 211.25 " stroke="black" fill="none" stroke-width="6.0" stroke-linecap="round" stroke-linejoin="round" />
<path d="M 155.0 140.0 L 155.0 140.0 L 155.0 140.0 L 162.5 137.5 L 180.0 135.0 L 198.75 138.75 L 208.75 155.0 L 208.75 177.5 L 201.25 196.25 L 196.25 202.5 L 191.25 203.75 L 183.75 201.25 " stroke="black" fill="none" stroke-width="6.0" stroke-linecap="round" stroke-linejoin="round" />
<path d="M 158.75 171.25 L 157.5 172.5 L 152.5 176.25 L 152.5 176.25 L 163.75 172.5 L 181.25 165.0 L 198.75 156.25 L 207.5 150.0 L 207.5 150.0 " stroke="black" fill="none" stroke-width="6.0" stroke-linecap="round" stroke-linejoin="round" />
<path d="M 158.75 217.5 L 155.0 225.0 L 153.75 228.75 L 163.75 226.25 L 182.5 216.25 L 202.5 198.75 " stroke="black" fill="none" stroke-width="6.0" stroke-linecap="round" stroke-linejoin="round" />
<path d="M 75.0 107.5 L 73.75 108.75 L 76.25 110.0 L 87.5 111.25 L 97.5 112.5 L 103.75 117.5 " stroke="black" fill="none" stroke-width="6.0" stroke-linecap="round" stroke-linejoin="round" />
<path d="M 70.0 160.0 L 68.75 161.25 L 65.0 163.75 L 68.75 163.75 L 80.0 162.5 L 90.0 162.5 L 95.0 163.75 L 95.0 176.25 L 83.75 191.25 L 71.25 201.25 L 65.0 206.25 L 67.5 206.25 L 80.0 206.25 L 93.75 205.0 L 103.75 207.5 L 106.25 216.25 L 101.25 231.25 L 92.5 243.75 L 82.5 250.0 L 73.75 252.5 L 67.5 251.25 L 66.25 248.75 L 66.25 246.25 L 71.25 245.0 L 82.5 245.0 L 101.25 246.25 L 132.5 253.75 L 163.75 263.75 L 192.5 273.75 L 211.25 280.0 L 226.25 281.25 L 240.0 280.0 L 255.0 270.0 " stroke="black" fill="none" stroke-width="6.0" stroke-linecap="round" stroke-linejoin="round" />
</svg>