<svg xmlns="http://www.w3.org/2000/svg" width="300" height="300" viewBox="0 0 300 300">
<path d="M 91.25 101.25 L 88.75 103.75 L 83.75 106.25 L 83.75 106.25 L 93.75 103.75 L 112.5 96.25 L 130.0 88.75 L 142.5 82.5 L 142.5 81.25 L 138.75 82.5 " stroke="black" fill="none" stroke-width="6.0" stroke-linecap="round" stroke-linejoin="round" />
<path d="M 107.5 82.5 L 107.5 85.0 L 107.5 90.0 L 107.5 98.75 L 107.5 110.0 L 106.25 118.75 L 101.25 123.75 L 96.25 127.5 L 88.75 130.0 L 81.25 130.0 L 77.5 130.0 L 77.5 130.0 L 85.0 130.0 L 96.25 126.25 L 111.25 121.25 L 133.75 113.75 L 156.25 105.0 L 172.5 98.75 L 181.25 95.0 L 182.5 91.25 L 180.0 88.75 " stroke="black" fill="none" stroke-width="6.0" stroke-linecap="round" stroke-linejoin="round" />
<path d="M 167.5 80.0 L 167.5 80.0 L 165.0 78.75 L 163.75 78.75 L 162.5 81.25 L 165.0 98.75 L 175.0 138.75 L 190.0 185.0 L 205.0 213.75 L 218.75 233.75 L 231.25 247.5 L 242.5 257.5 L 247.5 261.25 L 250.0 262.5 L 250.0 262.5 L 250.0 262.5 L 248.75 257.5 L 246.25 248.75 L 241.25 236.25 L 236.25 218.75 L 232.5 206.25 " stroke="black" fill="none" stroke-width="6.0" stroke-linecap="round" stroke-linejoin="round" />
<path d="M 216.25 143.75 L 215.0 148.75 L 210.0 160.0 L 202.5 180.0 L 190.0 201.25 L 173.75 212.5 L 170.0 212.5 " stroke="black" fill="none" stroke-width="6.0" stroke-linecap="round" stroke-linejoin="round" />
<path d="M 211.25 68.75 L 211.25 68.75 L 211.25 71.25 L 218.75 77.5 L 230.0 87.5 L 238.75 95.0 " stroke="black" fill="none" stroke-width="6.0" stroke-linecap="round" stroke-linejoin="round" />
<path d="M 86.25 158.75 L 86.25 160.0 L 85.0 162.5 L 86.25 162.5 L 97.5 161.25 L 112.5 155.0 L 128.75 147.5 L 135.0 141.25 L 135.0 141.25 " stroke="black" fill="none" stroke-width="6.0" stroke-linecap="round" stroke-linejoin="round" />
<path d="M 90.0 176.25 L 88.75 181.25 L 87.5 193.75 L 87.5 207.5 L 90.0 215.0 L 92.5 217.5 L 92.5 215.0 L 92.5 211.25 " stroke="black" fill="none" stroke-width="6.0" stroke-linecap="round" stroke-linejoin="round" />
<path d="M 92.5 186.25 L 92.5 185.0 L 92.5 182.5 L 96.25 180.0 L 110.0 178.75 L 132.5 177.5 L 147.5 178.75 L 151.25 182.5 L 146.25 190.0 L 135.0 200.0 L 121.25 207.5 L 106.25 211.25 " stroke="black" fill="none" stroke-width="6.0" stroke-linecap="round" stroke-linejoin="round" />
<path d="M 88.75 206.25 L 88.75 206.25 L 87.5 207.5 L 88.75 207.5 L 98.75 202.5 L 120.0 193.75 L 138.75 185.0 L 147.5 181.25 " stroke="black" fill="none" stroke-width="6.0" stroke-linecap="round" stroke-linejoin="round" />
<path d="M 96.25 215.0 L 95.0 217.5 L 93.75 220.0 L 103.75 217.5 L 122.5 208.75 L 138.75 200.0 L 145.0 195.0 " stroke="black" fill="none" stroke-width="6.0" stroke-linecap="round" stroke-linejoin="round" />
<path d="M 95.0 237.5 L 93.75 241.25 L 96.25 242.5 L 112.5 236.25 L 140.0 220.0 L 160.0 203.75 L 165.0 193.75 L 162.5 191.25 " stroke="black" fill="none" stroke-width="6.0" stroke-linecap="round" stroke-linejoin="round" />
<path d="M 113.75 145.0 L 113.75 143.75 L 112.5 140.0 L 112.5 137.5 L 113.75 136.25 L 118.75 137.5 L 123.75 150.0 L 128.75 181.25 L 131.25 226.25 L 131.25 257.5 L 131.25 267.5 L 130.0 271.25 L 127.5 272.5 L 123.75 271.25 L 118.75 268.75 " stroke="black" fill="none" stroke-width="6.0" stroke-linecap="round" stroke-linejoin="round" />
</svg>