<svg xmlns="http://www.w3.org/2000/svg" width="300" height="300" viewBox="0 0 300 300">
<path d="M 62.5 97.5 L 62.5 97.5 L 60.0 97.5 L 60.0 97.5 L 66.25 97.5 L 82.5 93.75 L 100.0 88.75 L 110.0 83.75 L 110.0 82.5 " stroke="black" fill="none" stroke-width="6.0" stroke-linecap="round" stroke-linejoin="round" />
<path d="M 65.0 118.75 L 63.75 121.25 L 60.0 133.75 L 61.25 151.25 L 66.25 168.75 L 71.25 177.5 L 73.75 178.75 " stroke="black" fill="none" stroke-width="6.0" stroke-linecap="round" stroke-linejoin="round" />
<path d="M 65.0 140.0 L 63.75 140.0 L 63.75 140.0 L 67.5 138.75 L 83.75 133.75 L 107.5 128.75 L 125.0 127.5 L 127.5 133.75 L 117.5 146.25 L 102.5 160.0 L 91.25 167.5 L 82.5 168.75 L 81.25 167.5 " stroke="black" fill="none" stroke-width="6.0" stroke-linecap="round" stroke-linejoin="round" />
<path d="M 71.25 153.75 L 71.25 153.75 L 70.0 155.0 L 87.5 147.5 L 103.75 138.75 L 117.5 132.5 L 113.75 133.75 L 110.0 135.0 " stroke="black" fill="none" stroke-width="6.0" stroke-linecap="round" stroke-linejoin="round" />
<path d="M 71.25 173.75 L 68.75 176.25 L 68.75 177.5 L 78.75 173.75 L 93.75 163.75 L 110.0 152.5 L 120.0 145.0 L 120.0 145.0 " stroke="black" fill="none" stroke-width="6.0" stroke-linecap="round" stroke-linejoin="round" />
<path d="M 63.75 220.0 L 63.75 221.25 L 65.0 222.5 L 77.5 218.75 L 102.5 201.25 L 127.5 181.25 L 138.75 167.5 L 135.0 165.0 L 123.75 163.75 L 112.5 162.5 L 103.75 158.75 " stroke="black" fill="none" stroke-width="6.0" stroke-linecap="round" stroke-linejoin="round" />
<path d="M 90.0 100.0 L 86.25 92.5 L 83.75 86.25 L 83.75 81.25 L 83.75 80.0 L 85.0 80.0 L 85.0 80.0 L 86.25 83.75 L 88.75 102.5 L 92.5 142.5 L 95.0 197.5 L 96.25 231.25 L 96.25 248.75 L 93.75 253.75 L 91.25 252.5 L 87.5 243.75 L 87.5 240.0 " stroke="black" fill="none" stroke-width="6.0" stroke-linecap="round" stroke-linejoin="round" />
<path d="M 151.25 73.75 L 150.0 73.75 L 146.25 75.0 L 148.75 75.0 L 165.0 73.75 L 186.25 66.25 L 205.0 56.25 L 208.75 52.5 L 197.5 57.5 " stroke="black" fill="none" stroke-width="6.0" stroke-linecap="round" stroke-linejoin="round" />
<path d="M 150.0 97.5 L 150.0 100.0 L 148.75 111.25 L 150.0 131.25 L 156.25 145.0 L 161.25 150.0 L 163.75 150.0 L 161.25 143.75 " stroke="black" fill="none" stroke-width="6.0" stroke-linecap="round" stroke-linejoin="round" />
<path d="M 151.25 113.75 L 151.25 111.25 L 147.5 106.25 L 147.5 102.5 L 157.5 98.75 L 175.0 93.75 L 193.75 91.25 L 202.5 91.25 L 201.25 95.0 L 187.5 105.0 L 171.25 116.25 L 155.0 127.5 L 145.0 132.5 L 143.75 133.75 L 152.5 128.75 L 168.75 118.75 L 188.75 107.5 L 203.75 100.0 L 206.25 98.75 L 198.75 110.0 L 183.75 128.75 L 168.75 141.25 L 156.25 147.5 L 152.5 142.5 L 152.5 137.5 " stroke="black" fill="none" stroke-width="6.0" stroke-linecap="round" stroke-linejoin="round" />
<path d="M 168.75 62.5 L 168.75 62.5 L 168.75 61.25 L 168.75 68.75 L 171.25 95.0 L 175.0 130.0 L 178.75 145.0 L 182.5 146.25 L 188.75 141.25 L 197.5 132.5 L 207.5 123.75 L 216.25 117.5 L 218.75 116.25 L 216.25 123.75 L 205.0 140.0 L 192.5 157.5 L 177.5 170.0 " stroke="black" fill="none" stroke-width="6.0" stroke-linecap="round" stroke-linejoin="round" />
<path d="M 136.25 192.5 L 133.75 193.75 L 135.0 195.0 L 151.25 190.0 L 183.75 171.25 L 220.0 150.0 L 237.5 140.0 L 243.75 136.25 L 242.5 136.25 L 238.75 136.25 L 235.0 136.25 L 232.5 136.25 L 232.5 136.25 L 231.25 141.25 L 228.75 155.0 L 227.5 182.5 L 227.5 215.0 L 227.5 238.75 L 230.0 246.25 L 231.25 246.25 L 231.25 243.75 L 227.5 243.75 L 218.75 241.25 L 206.25 238.75 L 191.25 235.0 L 172.5 230.0 L 158.75 221.25 L 156.25 218.75 " stroke="black" fill="none" stroke-width="6.0" stroke-linecap="round" stroke-linejoin="round" />
<path d="M 162.5 181.25 L 162.5 181.25 L 161.25 181.25 L 160.0 180.0 L 161.25 181.25 L 172.5 188.75 L 182.5 198.75 " stroke="black" fill="none" stroke-width="6.0" stroke-linecap="round" stroke-linejoin="round" />
</svg>