<svg xmlns="http://www.w3.org/2000/svg" width="300" height="300" viewBox="0 0 300 300">
<path d="M 68.75 106.25 L 66.25 107.5 L 65.0 108.75 L 71.25 108.75 L 83.75 106.25 L 100.0 100.0 L 115.0 92.5 L 122.5 87.5 L 113.75 87.5 " stroke="black" fill="none" stroke-width="6.0" stroke-linecap="round" stroke-linejoin="round" />
<path d="M 72.5 133.75 L 71.25 136.25 L 68.75 148.75 L 73.75 168.75 L 78.75 191.25 L 82.5 200.0 L 82.5 200.0 " stroke="black" fill="none" stroke-width="6.0" stroke-linecap="round" stroke-linejoin="round" />
<path d="M 68.75 152.5 L 67.5 151.25 L 68.75 148.75 L 82.5 145.0 L 102.5 140.0 L 123.75 138.75 L 133.75 141.25 L 132.5 151.25 L 120.0 166.25 L 105.0 180.0 L 93.75 186.25 L 83.75 187.5 L 80.0 185.0 " stroke="black" fill="none" stroke-width="6.0" stroke-linecap="round" stroke-linejoin="round" />
<path d="M 78.75 172.5 L 78.75 171.25 L 77.5 171.25 L 82.5 167.5 L 93.75 161.25 L 110.0 152.5 L 121.25 146.25 L 116.25 146.25 " stroke="black" fill="none" stroke-width="6.0" stroke-linecap="round" stroke-linejoin="round" />
<path d="M 82.5 190.0 L 81.25 190.0 L 81.25 190.0 L 88.75 186.25 L 103.75 173.75 L 123.75 157.5 L 130.0 150.0 L 126.25 150.0 " stroke="black" fill="none" stroke-width="6.0" stroke-linecap="round" stroke-linejoin="round" />
<path d="M 85.0 218.75 L 85.0 218.75 L 85.0 218.75 L 95.0 210.0 L 121.25 190.0 L 141.25 170.0 L 146.25 157.5 L 142.5 156.25 " stroke="black" fill="none" stroke-width="6.0" stroke-linecap="round" stroke-linejoin="round" />
<path d="M 95.0 87.5 L 95.0 86.25 L 93.75 83.75 L 92.5 83.75 L 95.0 92.5 L 101.25 135.0 L 105.0 200.0 L 103.75 236.25 L 101.25 243.75 L 98.75 245.0 L 96.25 238.75 L 96.25 227.5 " stroke="black" fill="none" stroke-width="6.0" stroke-linecap="round" stroke-linejoin="round" />
<path d="M 143.75 116.25 L 143.75 116.25 L 145.0 113.75 L 157.5 106.25 L 182.5 95.0 L 201.25 88.75 L 205.0 90.0 L 197.5 105.0 L 178.75 135.0 L 158.75 161.25 L 145.0 175.0 L 138.75 176.25 L 138.75 173.75 " stroke="black" fill="none" stroke-width="6.0" stroke-linecap="round" stroke-linejoin="round" />
<path d="M 148.75 120.0 L 148.75 118.75 L 151.25 121.25 L 168.75 135.0 L 192.5 152.5 L 210.0 160.0 L 222.5 163.75 L 227.5 165.0 L 227.5 166.25 L 225.0 167.5 " stroke="black" fill="none" stroke-width="6.0" stroke-linecap="round" stroke-linejoin="round" />
<path d="M 147.5 216.25 L 146.25 217.5 L 143.75 218.75 L 152.5 216.25 L 173.75 205.0 L 197.5 191.25 L 207.5 178.75 L 206.25 176.25 " stroke="black" fill="none" stroke-width="6.0" stroke-linecap="round" stroke-linejoin="round" />
<path d="M 175.0 168.75 L 175.0 168.75 L 175.0 168.75 L 177.5 171.25 L 181.25 185.0 L 183.75 205.0 L 181.25 222.5 L 172.5 231.25 L 165.0 233.75 L 157.5 233.75 L 155.0 233.75 L 155.0 232.5 L 163.75 230.0 L 177.5 226.25 L 195.0 221.25 L 212.5 216.25 L 228.75 211.25 L 238.75 210.0 L 245.0 207.5 L 246.25 206.25 L 245.0 203.75 " stroke="black" fill="none" stroke-width="6.0" stroke-linecap="round" stroke-linejoin="round" />
</svg>