<svg xmlns="http://www.w3.org/2000/svg" width="300" height="300" viewBox="0 0 300 300">
<path d="M 86.25 83.75 L 85.0 83.75 L 82.5 83.75 L 82.5 83.75 L 92.5 80.0 L 111.25 73.75 L 130.0 66.25 L 136.25 63.75 L 132.5 65.0 " stroke="black" fill="none" stroke-width="6.0" stroke-linecap="round" stroke-linejoin="round" />
<path d="M 82.5 93.75 L 78.75 97.5 L 78.75 105.0 L 82.5 113.75 L 87.5 122.5 L 92.5 123.75 L 93.75 122.5 " stroke="black" fill="none" stroke-width="6.0" stroke-linecap="round" stroke-linejoin="round" />
<path d="M 96.25 88.75 L 96.25 88.75 L 96.25 87.5 L 96.25 87.5 L 97.5 88.75 L 98.75 100.0 L 100.0 108.75 L 100.0 110.0 " stroke="black" fill="none" stroke-width="6.0" stroke-linecap="round" stroke-linejoin="round" />
<path d="M 120.0 78.75 L 123.75 76.25 L 126.25 75.0 L 127.5 78.75 L 123.75 90.0 L 115.0 103.75 L 103.75 116.25 L 91.25 127.5 L 80.0 136.25 L 76.25 138.75 L 78.75 138.75 L 90.0 137.5 L 105.0 132.5 L 122.5 126.25 L 132.5 122.5 L 133.75 122.5 L 123.75 128.75 L 110.0 137.5 L 100.0 143.75 L 93.75 148.75 L 95.0 148.75 L 105.0 148.75 L 117.5 147.5 L 128.75 143.75 L 133.75 142.5 L 133.75 142.5 " stroke="black" fill="none" stroke-width="6.0" stroke-linecap="round" stroke-linejoin="round" />
<path d="M 68.75 157.5 L 65.0 160.0 L 63.75 168.75 L 70.0 198.75 L 73.75 227.5 L 78.75 243.75 L 80.0 246.25 L 80.0 243.75 " stroke="black" fill="none" stroke-width="6.0" stroke-linecap="round" stroke-linejoin="round" />
<path d="M 82.5 165.0 L 81.25 163.75 L 80.0 163.75 L 88.75 162.5 L 111.25 155.0 L 141.25 147.5 L 157.5 150.0 L 160.0 172.5 L 157.5 203.75 L 155.0 232.5 L 155.0 251.25 L 155.0 252.5 L 153.75 247.5 L 148.75 238.75 L 141.25 227.5 L 130.0 213.75 " stroke="black" fill="none" stroke-width="6.0" stroke-linecap="round" stroke-linejoin="round" />
<path d="M 111.25 162.5 L 110.0 162.5 L 106.25 166.25 L 102.5 178.75 L 100.0 193.75 L 98.75 200.0 L 102.5 198.75 L 111.25 192.5 L 120.0 183.75 L 127.5 173.75 L 133.75 166.25 L 133.75 163.75 L 133.75 168.75 L 131.25 180.0 L 130.0 193.75 L 128.75 205.0 L 127.5 206.25 " stroke="black" fill="none" stroke-width="6.0" stroke-linecap="round" stroke-linejoin="round" />
<path d="M 96.25 221.25 L 95.0 221.25 L 93.75 221.25 L 98.75 220.0 L 115.0 211.25 L 131.25 202.5 L 136.25 200.0 L 128.75 206.25 L 115.0 222.5 L 101.25 237.5 L 91.25 248.75 L 88.75 248.75 " stroke="black" fill="none" stroke-width="6.0" stroke-linecap="round" stroke-linejoin="round" />
<path d="M 92.5 220.0 L 92.5 220.0 L 92.5 220.0 L 100.0 225.0 L 116.25 235.0 L 138.75 241.25 L 146.25 241.25 " stroke="black" fill="none" stroke-width="6.0" stroke-linecap="round" stroke-linejoin="round" />
<path d="M 186.25 68.75 L 185.0 68.75 L 182.5 67.5 L 183.75 66.25 L 192.5 65.0 L 206.25 65.0 L 220.0 63.75 L 228.75 63.75 L 225.0 66.25 L 221.25 68.75 " stroke="black" fill="none" stroke-width="6.0" stroke-linecap="round" stroke-linejoin="round" />
<path d="M 162.5 102.5 L 161.25 103.75 L 157.5 107.5 L 162.5 107.5 L 180.0 103.75 L 202.5 92.5 L 218.75 80.0 L 226.25 73.75 L 218.75 73.75 L 206.25 80.0 L 196.25 86.25 L 187.5 91.25 L 183.75 100.0 L 182.5 116.25 L 185.0 135.0 L 186.25 141.25 L 188.75 136.25 L 193.75 122.5 L 201.25 106.25 L 208.75 92.5 L 215.0 83.75 L 220.0 82.5 L 223.75 88.75 L 222.5 103.75 L 215.0 121.25 L 205.0 136.25 L 196.25 143.75 L 190.0 143.75 L 190.0 142.5 L 198.75 137.5 L 211.25 130.0 L 225.0 122.5 L 233.75 117.5 L 233.75 118.75 L 221.25 132.5 L 206.25 151.25 L 191.25 172.5 L 176.25 190.0 L 175.0 193.75 L 190.0 188.75 L 210.0 172.5 L 232.5 153.75 L 251.25 141.25 L 257.5 138.75 L 251.25 142.5 L 247.5 143.75 " stroke="black" fill="none" stroke-width="6.0" stroke-linecap="round" stroke-linejoin="round" />
<path d="M 211.25 142.5 L 212.5 142.5 L 212.5 142.5 L 212.5 142.5 L 216.25 153.75 L 218.75 196.25 L 217.5 238.75 L 213.75 258.75 L 211.25 263.75 L 207.5 263.75 L 202.5 262.5 " stroke="black" fill="none" stroke-width="6.0" stroke-linecap="round" stroke-linejoin="round" />
</svg>