<svg xmlns="http://www.w3.org/2000/svg" width="300" height="300" viewBox="0 0 300 300">
<path d="M 141.25 82.5 L 140.0 81.25 L 137.5 80.0 L 136.25 80.0 L 141.25 85.0 L 147.5 95.0 L 151.25 103.75 L 152.5 111.25 L 151.25 112.5 " stroke="black" fill="none" stroke-width="6.0" stroke-linecap="round" stroke-linejoin="round" />
<path d="M 137.5 95.0 L 137.5 95.0 L 132.5 95.0 L 131.25 95.0 L 135.0 92.5 L 147.5 86.25 L 165.0 80.0 L 185.0 73.75 L 197.5 72.5 L 198.75 73.75 L 191.25 82.5 L 178.75 92.5 L 167.5 100.0 L 156.25 106.25 L 151.25 107.5 L 152.5 107.5 L 161.25 102.5 L 176.25 96.25 L 178.75 93.75 L 196.25 82.5 L 196.25 81.25 " stroke="black" fill="none" stroke-width="6.0" stroke-linecap="round" stroke-linejoin="round" />
<path d="M 158.75 66.25 L 158.75 67.5 L 158.75 67.5 L 158.75 71.25 L 163.75 83.75 L 168.75 97.5 L 170.0 112.5 L 162.5 122.5 L 152.5 127.5 L 140.0 132.5 L 126.25 137.5 L 118.75 141.25 L 118.75 141.25 L 130.0 141.25 L 147.5 135.0 L 171.25 123.75 L 197.5 108.75 L 213.75 97.5 L 216.25 93.75 L 211.25 95.0 L 202.5 100.0 L 190.0 105.0 L 175.0 112.5 L 162.5 120.0 L 153.75 130.0 L 151.25 143.75 L 152.5 168.75 L 156.25 200.0 L 160.0 213.75 L 162.5 216.25 L 162.5 216.25 L 162.5 212.5 L 161.25 206.25 L 158.75 198.75 L 156.25 192.5 " stroke="black" fill="none" stroke-width="6.0" stroke-linecap="round" stroke-linejoin="round" />
<path d="M 153.75 161.25 L 153.75 158.75 L 153.75 155.0 L 160.0 150.0 L 173.75 143.75 L 191.25 140.0 L 201.25 142.5 L 203.75 155.0 L 200.0 173.75 L 191.25 190.0 L 183.75 198.75 L 175.0 201.25 L 171.25 200.0 " stroke="black" fill="none" stroke-width="6.0" stroke-linecap="round" stroke-linejoin="round" />
<path d="M 171.25 150.0 L 172.5 147.5 L 173.75 146.25 L 177.5 151.25 L 182.5 167.5 L 183.75 187.5 L 177.5 202.5 L 168.75 210.0 L 160.0 212.5 L 157.5 212.5 L 158.75 210.0 L 167.5 205.0 L 180.0 198.75 L 195.0 190.0 L 205.0 183.75 L 207.5 182.5 L 202.5 191.25 L 191.25 206.25 L 177.5 222.5 L 162.5 237.5 L 155.0 243.75 L 155.0 243.75 " stroke="black" fill="none" stroke-width="6.0" stroke-linecap="round" stroke-linejoin="round" />
<path d="M 192.5 205.0 L 192.5 205.0 L 192.5 205.0 L 195.0 205.0 L 201.25 211.25 L 211.25 221.25 L 220.0 231.25 L 223.75 237.5 L 222.5 240.0 L 217.5 241.25 " stroke="black" fill="none" stroke-width="6.0" stroke-linecap="round" stroke-linejoin="round" />
<path d="M 93.75 106.25 L 86.25 107.5 L 81.25 107.5 L 81.25 107.5 L 90.0 107.5 L 101.25 110.0 L 112.5 113.75 L 118.75 116.25 " stroke="black" fill="none" stroke-width="6.0" stroke-linecap="round" stroke-linejoin="round" />
<path d="M 92.5 145.0 L 87.5 148.75 L 85.0 151.25 L 87.5 151.25 L 93.75 152.5 L 98.75 153.75 L 102.5 153.75 L 102.5 156.25 L 100.0 162.5 L 95.0 171.25 L 91.25 181.25 L 91.25 188.75 L 98.75 192.5 L 108.75 196.25 L 117.5 198.75 L 118.75 202.5 L 115.0 210.0 L 107.5 218.75 L 97.5 226.25 L 88.75 233.75 L 83.75 237.5 L 82.5 237.5 L 82.5 236.25 L 83.75 236.25 L 85.0 233.75 L 87.5 232.5 L 90.0 230.0 L 93.75 230.0 L 96.25 228.75 L 100.0 228.75 L 103.75 231.25 L 110.0 236.25 L 120.0 242.5 L 133.75 248.75 L 150.0 255.0 L 167.5 255.0 L 188.75 253.75 L 206.25 250.0 L 220.0 246.25 L 232.5 243.75 L 245.0 241.25 L 248.75 241.25 " stroke="black" fill="none" stroke-width="6.0" stroke-linecap="round" stroke-linejoin="round" />
</svg>