<svg xmlns="http://www.w3.org/2000/svg" width="300" height="300" viewBox="0 0 300 300">
<path d="M 120.0 90.0 L 120.0 90.0 L 117.5 91.25 L 118.75 92.5 L 126.25 93.75 L 140.0 93.75 L 150.0 93.75 L 155.0 93.75 L 155.0 93.75 " stroke="black" fill="none" stroke-width="6.0" stroke-linecap="round" stroke-linejoin="round" />
<path d="M 108.75 130.0 L 106.25 132.5 L 103.75 135.0 L 108.75 135.0 L 122.5 127.5 L 138.75 116.25 L 152.5 105.0 L 157.5 98.75 L 157.5 97.5 L 150.0 105.0 L 141.25 122.5 L 131.25 146.25 L 117.5 178.75 L 111.25 197.5 L 110.0 200.0 L 110.0 195.0 " stroke="black" fill="none" stroke-width="6.0" stroke-linecap="round" stroke-linejoin="round" />
<path d="M 132.5 140.0 L 132.5 140.0 L 130.0 138.75 L 130.0 138.75 L 132.5 140.0 L 140.0 143.75 L 148.75 150.0 L 152.5 161.25 L 146.25 183.75 L 133.75 201.25 L 123.75 206.25 L 121.25 198.75 L 126.25 180.0 L 128.75 168.75 " stroke="black" fill="none" stroke-width="6.0" stroke-linecap="round" stroke-linejoin="round" />
<path d="M 176.25 75.0 L 176.25 75.0 L 175.0 73.75 L 175.0 73.75 L 175.0 81.25 L 176.25 93.75 L 180.0 102.5 L 185.0 106.25 L 193.75 103.75 L 203.75 95.0 L 215.0 86.25 L 223.75 81.25 L 225.0 80.0 L 216.25 87.5 L 213.75 88.75 " stroke="black" fill="none" stroke-width="6.0" stroke-linecap="round" stroke-linejoin="round" />
<path d="M 176.25 127.5 L 176.25 130.0 L 175.0 132.5 L 178.75 132.5 L 187.5 130.0 L 198.75 127.5 L 205.0 127.5 L 205.0 130.0 L 201.25 137.5 L 196.25 142.5 L 193.75 146.25 L 195.0 148.75 L 200.0 148.75 L 206.25 148.75 L 211.25 155.0 L 212.5 170.0 L 208.75 191.25 L 203.75 206.25 L 200.0 211.25 L 198.75 212.5 L 196.25 210.0 L 192.5 205.0 L 187.5 198.75 L 186.25 197.5 " stroke="black" fill="none" stroke-width="6.0" stroke-linecap="round" stroke-linejoin="round" />
<path d="M 168.75 182.5 L 170.0 181.25 L 170.0 181.25 L 172.5 180.0 L 183.75 177.5 L 202.5 170.0 L 221.25 160.0 L 227.5 155.0 " stroke="black" fill="none" stroke-width="6.0" stroke-linecap="round" stroke-linejoin="round" />
<path d="M 85.0 107.5 L 81.25 107.5 L 77.5 107.5 L 76.25 108.75 L 81.25 111.25 L 91.25 115.0 L 98.75 120.0 L 98.75 121.25 " stroke="black" fill="none" stroke-width="6.0" stroke-linecap="round" stroke-linejoin="round" />
<path d="M 75.0 143.75 L 75.0 143.75 L 73.75 145.0 L 73.75 146.25 L 76.25 146.25 L 82.5 146.25 L 87.5 147.5 L 90.0 148.75 L 90.0 153.75 L 86.25 158.75 L 82.5 165.0 L 81.25 171.25 L 82.5 175.0 L 87.5 178.75 L 92.5 181.25 L 95.0 185.0 L 96.25 190.0 L 91.25 197.5 L 85.0 206.25 L 77.5 211.25 L 71.25 215.0 L 66.25 215.0 L 63.75 215.0 L 63.75 215.0 L 63.75 215.0 L 65.0 213.75 L 65.0 213.75 L 66.25 213.75 L 67.5 213.75 L 71.25 213.75 L 76.25 215.0 L 82.5 216.25 L 91.25 218.75 L 105.0 225.0 L 125.0 235.0 L 146.25 242.5 L 168.75 246.25 L 193.75 246.25 L 212.5 246.25 L 227.5 245.0 L 231.25 241.25 " stroke="black" fill="none" stroke-width="6.0" stroke-linecap="round" stroke-linejoin="round" />
</svg>