<svg xmlns="http://www.w3.org/2000/svg" width="300" height="300" viewBox="0 0 300 300">
<path d="M 96.25 65.0 L 96.25 66.25 L 96.25 67.5 L 96.25 67.5 L 98.75 70.0 L 110.0 73.75 L 122.5 77.5 L 126.25 81.25 " stroke="black" fill="none" stroke-width="6.0" stroke-linecap="round" stroke-linejoin="round" />
<path d="M 57.5 115.0 L 53.75 121.25 L 50.0 123.75 L 57.5 122.5 L 80.0 113.75 L 107.5 96.25 L 136.25 78.75 L 150.0 66.25 L 148.75 65.0 L 136.25 70.0 " stroke="black" fill="none" stroke-width="6.0" stroke-linecap="round" stroke-linejoin="round" />
<path d="M 102.5 105.0 L 102.5 108.75 L 102.5 122.5 L 102.5 141.25 L 105.0 155.0 L 107.5 160.0 L 108.75 158.75 L 107.5 152.5 L 105.0 145.0 L 103.75 138.75 L 102.5 131.25 L 108.75 121.25 L 120.0 111.25 L 135.0 105.0 L 141.25 106.25 L 137.5 120.0 L 126.25 135.0 L 113.75 148.75 L 102.5 160.0 L 97.5 163.75 L 101.25 162.5 L 112.5 155.0 L 127.5 143.75 L 140.0 132.5 L 145.0 126.25 L 145.0 126.25 L 136.25 133.75 " stroke="black" fill="none" stroke-width="6.0" stroke-linecap="round" stroke-linejoin="round" />
<path d="M 108.75 175.0 L 108.75 177.5 L 106.25 178.75 L 110.0 180.0 L 126.25 171.25 L 142.5 161.25 L 152.5 156.25 L 152.5 158.75 L 142.5 173.75 L 132.5 188.75 L 127.5 198.75 L 128.75 201.25 L 138.75 198.75 L 150.0 196.25 L 157.5 196.25 L 162.5 198.75 L 165.0 207.5 L 161.25 217.5 L 155.0 227.5 L 146.25 233.75 L 132.5 237.5 L 115.0 240.0 L 101.25 241.25 L 101.25 241.25 L 113.75 232.5 L 138.75 208.75 L 163.75 177.5 L 190.0 136.25 L 205.0 103.75 L 206.25 87.5 L 207.5 81.25 L 206.25 80.0 L 206.25 81.25 L 206.25 81.25 L 213.75 81.25 L 223.75 82.5 L 237.5 86.25 L 243.75 95.0 L 243.75 110.0 L 233.75 128.75 L 222.5 143.75 L 218.75 153.75 L 221.25 157.5 L 231.25 157.5 L 242.5 157.5 L 248.75 162.5 L 246.25 171.25 L 235.0 183.75 L 221.25 193.75 L 211.25 196.25 L 206.25 191.25 L 205.0 178.75 L 205.0 162.5 L 203.75 148.75 L 203.75 143.75 L 203.75 143.75 L 203.75 155.0 L 203.75 187.5 L 205.0 237.5 L 205.0 288.75 L 207.5 313.75 L 207.5 321.25 L 205.0 323.75 L 196.25 320.0 " stroke="black" fill="none" stroke-width="6.0" stroke-linecap="round" stroke-linejoin="round" />
</svg>