<svg xmlns="http://www.w3.org/2000/svg" width="300" height="300" viewBox="0 0 300 300">
<path d="M 133.75 112.5 L 133.75 112.5 L 130.0 112.5 L 131.25 112.5 L 142.5 110.0 L 153.75 103.75 L 161.25 98.75 L 161.25 97.5 " stroke="black" fill="none" stroke-width="6.0" stroke-linecap="round" stroke-linejoin="round" />
<path d="M 147.5 97.5 L 147.5 100.0 L 145.0 107.5 L 145.0 120.0 L 145.0 135.0 L 143.75 146.25 L 138.75 148.75 L 133.75 148.75 L 126.25 148.75 L 120.0 150.0 L 118.75 150.0 L 120.0 150.0 L 131.25 147.5 L 145.0 142.5 L 158.75 133.75 L 170.0 125.0 L 172.5 120.0 L 167.5 121.25 L 157.5 127.5 L 150.0 132.5 L 143.75 137.5 L 138.75 142.5 L 137.5 146.25 L 137.5 150.0 L 141.25 155.0 L 145.0 157.5 L 148.75 158.75 L 150.0 158.75 L 151.25 158.75 L 151.25 158.75 " stroke="black" fill="none" stroke-width="6.0" stroke-linecap="round" stroke-linejoin="round" />
<path d="M 107.5 190.0 L 106.25 191.25 L 103.75 192.5 L 105.0 192.5 L 118.75 186.25 L 140.0 171.25 L 161.25 152.5 L 171.25 141.25 L 172.5 138.75 L 168.75 138.75 L 161.25 142.5 L 155.0 150.0 L 147.5 163.75 L 140.0 187.5 L 131.25 213.75 L 126.25 227.5 L 127.5 225.0 L 130.0 216.25 " stroke="black" fill="none" stroke-width="6.0" stroke-linecap="round" stroke-linejoin="round" />
<path d="M 147.5 176.25 L 146.25 176.25 L 145.0 176.25 L 145.0 178.75 L 152.5 182.5 L 161.25 187.5 L 168.75 193.75 L 170.0 201.25 L 163.75 210.0 L 153.75 218.75 L 146.25 220.0 L 145.0 212.5 L 145.0 208.75 " stroke="black" fill="none" stroke-width="6.0" stroke-linecap="round" stroke-linejoin="round" />
<path d="M 193.75 112.5 L 192.5 112.5 L 191.25 112.5 L 191.25 113.75 L 193.75 125.0 L 196.25 135.0 L 200.0 141.25 L 205.0 140.0 L 216.25 128.75 L 231.25 113.75 L 242.5 102.5 L 243.75 100.0 " stroke="black" fill="none" stroke-width="6.0" stroke-linecap="round" stroke-linejoin="round" />
<path d="M 212.5 142.5 L 212.5 143.75 L 211.25 148.75 L 211.25 161.25 L 211.25 185.0 L 207.5 207.5 L 200.0 221.25 L 191.25 226.25 L 181.25 226.25 " stroke="black" fill="none" stroke-width="6.0" stroke-linecap="round" stroke-linejoin="round" />
<path d="M 188.75 166.25 L 188.75 166.25 L 188.75 166.25 L 196.25 177.5 L 212.5 195.0 L 232.5 210.0 L 251.25 221.25 L 261.25 228.75 L 262.5 231.25 L 262.5 232.5 " stroke="black" fill="none" stroke-width="6.0" stroke-linecap="round" stroke-linejoin="round" />
<path d="M 62.5 138.75 L 62.5 138.75 L 58.75 138.75 L 58.75 136.25 L 65.0 136.25 L 78.75 136.25 L 91.25 138.75 L 96.25 143.75 " stroke="black" fill="none" stroke-width="6.0" stroke-linecap="round" stroke-linejoin="round" />
<path d="M 80.0 173.75 L 80.0 173.75 L 76.25 176.25 L 76.25 178.75 L 82.5 180.0 L 88.75 180.0 L 92.5 180.0 L 93.75 180.0 L 93.75 181.25 L 90.0 188.75 L 83.75 200.0 L 78.75 210.0 L 77.5 216.25 L 80.0 220.0 L 86.25 221.25 L 92.5 221.25 L 96.25 222.5 L 97.5 226.25 L 95.0 233.75 L 90.0 242.5 L 83.75 248.75 L 77.5 252.5 L 73.75 253.75 L 70.0 253.75 L 70.0 253.75 L 70.0 253.75 L 71.25 252.5 L 77.5 251.25 L 85.0 251.25 L 95.0 250.0 L 111.25 251.25 L 132.5 255.0 L 157.5 258.75 L 183.75 261.25 L 206.25 263.75 L 228.75 266.25 L 252.5 268.75 L 268.75 270.0 L 281.25 268.75 L 291.25 263.75 L 293.75 260.0 " stroke="black" fill="none" stroke-width="6.0" stroke-linecap="round" stroke-linejoin="round" />
</svg>