<svg xmlns="http://www.w3.org/2000/svg" width="300" height="300" viewBox="0 0 300 300">
<path d="M 163.75 82.5 L 163.75 82.5 L 163.75 82.5 L 163.75 82.5 L 168.75 86.25 L 175.0 95.0 L 177.5 103.75 L 176.25 108.75 " stroke="black" fill="none" stroke-width="6.0" stroke-linecap="round" stroke-linejoin="round" />
<path d="M 150.0 102.5 L 148.75 102.5 L 147.5 102.5 L 147.5 102.5 L 151.25 106.25 L 158.75 113.75 L 163.75 117.5 " stroke="black" fill="none" stroke-width="6.0" stroke-linecap="round" stroke-linejoin="round" />
<path d="M 200.0 90.0 L 200.0 88.75 L 200.0 88.75 L 196.25 90.0 L 188.75 98.75 L 175.0 115.0 L 163.75 127.5 L 158.75 130.0 L 157.5 130.0 L 157.5 126.25 L 157.5 125.0 L 158.75 123.75 L 158.75 131.25 L 158.75 153.75 L 158.75 193.75 L 158.75 221.25 L 158.75 228.75 L 157.5 225.0 L 155.0 211.25 " stroke="black" fill="none" stroke-width="6.0" stroke-linecap="round" stroke-linejoin="round" />
<path d="M 155.0 146.25 L 156.25 143.75 L 158.75 140.0 L 166.25 136.25 L 183.75 132.5 L 198.75 132.5 L 208.75 136.25 L 212.5 151.25 L 212.5 175.0 L 211.25 198.75 L 210.0 211.25 L 210.0 213.75 L 210.0 216.25 L 208.75 216.25 L 207.5 213.75 L 205.0 210.0 L 200.0 205.0 L 193.75 198.75 L 183.75 192.5 L 175.0 185.0 L 168.75 180.0 L 166.25 175.0 L 163.75 173.75 L 163.75 171.25 L 171.25 166.25 L 185.0 156.25 L 197.5 147.5 L 205.0 138.75 " stroke="black" fill="none" stroke-width="6.0" stroke-linecap="round" stroke-linejoin="round" />
<path d="M 160.0 197.5 L 160.0 197.5 L 160.0 198.75 L 166.25 193.75 L 185.0 178.75 L 203.75 158.75 " stroke="black" fill="none" stroke-width="6.0" stroke-linecap="round" stroke-linejoin="round" />
<path d="M 83.75 111.25 L 82.5 111.25 L 82.5 110.0 L 83.75 107.5 L 90.0 106.25 L 98.75 107.5 L 103.75 112.5 L 103.75 115.0 " stroke="black" fill="none" stroke-width="6.0" stroke-linecap="round" stroke-linejoin="round" />
<path d="M 82.5 150.0 L 80.0 152.5 L 80.0 153.75 L 86.25 153.75 L 93.75 153.75 L 100.0 155.0 L 102.5 157.5 L 101.25 163.75 L 95.0 173.75 L 87.5 182.5 L 85.0 186.25 L 86.25 188.75 L 93.75 188.75 L 103.75 188.75 L 111.25 191.25 L 112.5 200.0 L 106.25 213.75 L 96.25 228.75 L 87.5 237.5 L 78.75 242.5 L 72.5 242.5 L 70.0 241.25 L 70.0 237.5 L 72.5 235.0 L 78.75 232.5 L 88.75 231.25 L 103.75 232.5 L 130.0 236.25 L 162.5 242.5 L 195.0 247.5 L 218.75 251.25 L 238.75 253.75 L 253.75 255.0 L 261.25 253.75 L 265.0 247.5 " stroke="black" fill="none" stroke-width="6.0" stroke-linecap="round" stroke-linejoin="round" />
</svg>