<svg xmlns="http://www.w3.org/2000/svg" width="300" height="300" viewBox="0 0 300 300">
<path d="M 123.75 100.0 L 123.75 100.0 L 123.75 100.0 L 127.5 98.75 L 145.0 92.5 L 168.75 83.75 L 185.0 76.25 L 188.75 75.0 L 178.75 76.25 " stroke="black" fill="none" stroke-width="6.0" stroke-linecap="round" stroke-linejoin="round" />
<path d="M 128.75 115.0 L 127.5 127.5 L 130.0 145.0 L 133.75 163.75 L 137.5 173.75 L 138.75 177.5 L 137.5 172.5 L 137.5 168.75 " stroke="black" fill="none" stroke-width="6.0" stroke-linecap="round" stroke-linejoin="round" />
<path d="M 130.0 142.5 L 127.5 140.0 L 127.5 137.5 L 135.0 133.75 L 152.5 125.0 L 178.75 117.5 L 197.5 115.0 L 200.0 120.0 L 196.25 131.25 L 186.25 143.75 L 176.25 152.5 L 165.0 157.5 L 156.25 158.75 " stroke="black" fill="none" stroke-width="6.0" stroke-linecap="round" stroke-linejoin="round" />
<path d="M 142.5 152.5 L 140.0 152.5 L 138.75 152.5 L 141.25 152.5 L 153.75 145.0 L 172.5 136.25 L 186.25 127.5 L 187.5 125.0 " stroke="black" fill="none" stroke-width="6.0" stroke-linecap="round" stroke-linejoin="round" />
<path d="M 140.0 170.0 L 140.0 171.25 L 142.5 170.0 L 158.75 158.75 L 186.25 142.5 L 200.0 132.5 L 196.25 131.25 " stroke="black" fill="none" stroke-width="6.0" stroke-linecap="round" stroke-linejoin="round" />
<path d="M 140.0 202.5 L 140.0 202.5 L 142.5 202.5 L 163.75 191.25 L 197.5 167.5 L 212.5 151.25 L 213.75 145.0 L 206.25 143.75 L 196.25 143.75 L 190.0 142.5 " stroke="black" fill="none" stroke-width="6.0" stroke-linecap="round" stroke-linejoin="round" />
<path d="M 155.0 80.0 L 155.0 77.5 L 153.75 73.75 L 153.75 71.25 L 153.75 75.0 L 157.5 92.5 L 163.75 132.5 L 166.25 186.25 L 166.25 215.0 L 166.25 226.25 L 163.75 228.75 L 157.5 226.25 L 152.5 220.0 " stroke="black" fill="none" stroke-width="6.0" stroke-linecap="round" stroke-linejoin="round" />
<path d="M 78.75 103.75 L 75.0 103.75 L 73.75 105.0 L 76.25 106.25 L 87.5 110.0 L 98.75 115.0 L 103.75 118.75 " stroke="black" fill="none" stroke-width="6.0" stroke-linecap="round" stroke-linejoin="round" />
<path d="M 80.0 147.5 L 80.0 147.5 L 80.0 147.5 L 80.0 148.75 L 83.75 150.0 L 86.25 152.5 L 87.5 156.25 L 87.5 162.5 L 86.25 170.0 L 85.0 176.25 L 85.0 181.25 L 87.5 183.75 L 92.5 186.25 L 96.25 191.25 L 96.25 198.75 L 92.5 208.75 L 85.0 218.75 L 76.25 227.5 L 66.25 231.25 L 60.0 232.5 L 57.5 230.0 L 56.25 227.5 L 56.25 225.0 L 58.75 223.75 L 66.25 222.5 L 80.0 221.25 L 98.75 225.0 L 126.25 232.5 L 156.25 243.75 L 181.25 251.25 L 203.75 253.75 L 220.0 253.75 L 236.25 252.5 L 248.75 250.0 L 257.5 245.0 L 260.0 242.5 " stroke="black" fill="none" stroke-width="6.0" stroke-linecap="round" stroke-linejoin="round" />
</svg>