<svg xmlns="http://www.w3.org/2000/svg" width="300" height="300" viewBox="0 0 300 300">
<path d="M 73.75 101.25 L 68.75 101.25 L 66.25 101.25 L 71.25 101.25 L 86.25 100.0 L 103.75 96.25 L 120.0 88.75 L 126.25 86.25 L 120.0 86.25 " stroke="black" fill="none" stroke-width="6.0" stroke-linecap="round" stroke-linejoin="round" />
<path d="M 56.25 150.0 L 56.25 152.5 L 61.25 160.0 L 76.25 186.25 L 91.25 207.5 L 98.75 213.75 L 101.25 213.75 L 101.25 213.75 L 98.75 211.25 L 92.5 207.5 L 86.25 202.5 L 78.75 196.25 L 75.0 187.5 L 76.25 175.0 L 90.0 158.75 L 110.0 146.25 L 130.0 140.0 L 138.75 142.5 L 137.5 156.25 L 126.25 180.0 L 112.5 203.75 L 96.25 227.5 L 86.25 243.75 L 87.5 243.75 L 97.5 235.0 L 117.5 213.75 L 138.75 192.5 L 157.5 168.75 L 165.0 150.0 L 165.0 147.5 " stroke="black" fill="none" stroke-width="6.0" stroke-linecap="round" stroke-linejoin="round" />
<path d="M 158.75 102.5 L 155.0 103.75 L 152.5 103.75 L 156.25 102.5 L 170.0 98.75 L 187.5 95.0 L 200.0 92.5 L 205.0 96.25 L 200.0 110.0 L 190.0 130.0 L 185.0 145.0 L 185.0 151.25 L 193.75 151.25 L 206.25 147.5 L 217.5 145.0 L 225.0 148.75 L 223.75 160.0 L 213.75 177.5 L 203.75 192.5 L 195.0 201.25 L 191.25 202.5 L 190.0 197.5 L 188.75 187.5 L 186.25 175.0 L 185.0 161.25 L 183.75 151.25 L 182.5 146.25 L 181.25 145.0 L 181.25 147.5 L 181.25 157.5 L 181.25 180.0 L 181.25 213.75 L 181.25 251.25 L 181.25 276.25 L 181.25 287.5 L 178.75 291.25 L 175.0 292.5 L 165.0 291.25 " stroke="black" fill="none" stroke-width="6.0" stroke-linecap="round" stroke-linejoin="round" />
</svg>