<svg xmlns="http://www.w3.org/2000/svg" width="300" height="300" viewBox="0 0 300 300">
<path d="M 75.0 107.5 L 73.75 110.0 L 72.5 111.25 L 81.25 108.75 L 97.5 103.75 L 121.25 95.0 L 142.5 86.25 L 150.0 82.5 L 145.0 85.0 " stroke="black" fill="none" stroke-width="6.0" stroke-linecap="round" stroke-linejoin="round" />
<path d="M 63.75 158.75 L 61.25 162.5 L 62.5 163.75 L 75.0 160.0 L 91.25 150.0 L 107.5 140.0 L 118.75 132.5 L 118.75 131.25 L 107.5 140.0 L 96.25 160.0 L 90.0 190.0 L 91.25 215.0 L 101.25 221.25 L 120.0 215.0 L 141.25 201.25 L 158.75 183.75 L 167.5 168.75 L 168.75 160.0 " stroke="black" fill="none" stroke-width="6.0" stroke-linecap="round" stroke-linejoin="round" />
<path d="M 176.25 90.0 L 173.75 91.25 L 178.75 91.25 L 193.75 90.0 L 211.25 88.75 L 226.25 87.5 L 231.25 88.75 L 225.0 97.5 L 211.25 113.75 L 201.25 131.25 L 198.75 141.25 L 203.75 145.0 L 216.25 145.0 L 231.25 141.25 L 241.25 141.25 L 243.75 151.25 L 232.5 171.25 L 216.25 195.0 L 202.5 207.5 L 193.75 210.0 L 188.75 207.5 L 187.5 198.75 L 186.25 186.25 L 185.0 171.25 L 182.5 156.25 L 181.25 145.0 L 180.0 136.25 L 178.75 135.0 L 177.5 135.0 L 177.5 136.25 L 177.5 137.5 L 178.75 146.25 L 180.0 170.0 L 181.25 208.75 L 182.5 250.0 L 182.5 271.25 L 182.5 277.5 L 182.5 280.0 L 178.75 278.75 L 176.25 275.0 " stroke="black" fill="none" stroke-width="6.0" stroke-linecap="round" stroke-linejoin="round" />
</svg>