<svg xmlns="http://www.w3.org/2000/svg" width="300" height="300" viewBox="0 0 300 300">
<path d="M 82.5 103.75 L 78.75 105.0 L 77.5 106.25 L 80.0 106.25 L 91.25 102.5 L 106.25 96.25 L 121.25 90.0 L 128.75 85.0 L 121.25 85.0 L 115.0 85.0 " stroke="black" fill="none" stroke-width="6.0" stroke-linecap="round" stroke-linejoin="round" />
<path d="M 92.5 83.75 L 92.5 83.75 L 91.25 85.0 L 91.25 90.0 L 92.5 103.75 L 93.75 120.0 L 95.0 132.5 L 91.25 137.5 L 85.0 137.5 L 73.75 137.5 L 63.75 138.75 L 61.25 140.0 L 67.5 141.25 L 83.75 141.25 L 105.0 133.75 L 131.25 120.0 L 148.75 105.0 L 152.5 96.25 L 151.25 91.25 L 146.25 87.5 L 141.25 85.0 L 135.0 85.0 L 125.0 91.25 L 110.0 116.25 L 86.25 167.5 L 55.0 231.25 L 41.25 262.5 L 40.0 265.0 " stroke="black" fill="none" stroke-width="6.0" stroke-linecap="round" stroke-linejoin="round" />
<path d="M 98.75 161.25 L 98.75 161.25 L 97.5 160.0 L 97.5 158.75 L 96.25 170.0 L 96.25 202.5 L 96.25 242.5 L 98.75 255.0 L 100.0 253.75 " stroke="black" fill="none" stroke-width="6.0" stroke-linecap="round" stroke-linejoin="round" />
<path d="M 97.5 171.25 L 95.0 170.0 L 92.5 168.75 L 95.0 166.25 L 105.0 162.5 L 117.5 161.25 L 128.75 171.25 L 133.75 198.75 L 132.5 226.25 L 126.25 243.75 L 121.25 247.5 L 117.5 243.75 L 117.5 241.25 " stroke="black" fill="none" stroke-width="6.0" stroke-linecap="round" stroke-linejoin="round" />
<path d="M 97.5 207.5 L 92.5 210.0 L 90.0 211.25 L 90.0 211.25 L 101.25 205.0 L 116.25 195.0 L 132.5 186.25 L 138.75 182.5 L 138.75 182.5 " stroke="black" fill="none" stroke-width="6.0" stroke-linecap="round" stroke-linejoin="round" />
<path d="M 103.75 250.0 L 102.5 252.5 L 100.0 256.25 L 102.5 257.5 L 115.0 251.25 L 133.75 236.25 L 141.25 227.5 " stroke="black" fill="none" stroke-width="6.0" stroke-linecap="round" stroke-linejoin="round" />
<path d="M 187.5 87.5 L 185.0 87.5 L 182.5 87.5 L 183.75 87.5 L 195.0 87.5 L 213.75 87.5 L 232.5 86.25 L 242.5 88.75 L 237.5 100.0 L 220.0 121.25 L 206.25 141.25 L 203.75 148.75 L 211.25 150.0 L 225.0 150.0 L 237.5 150.0 L 242.5 155.0 L 241.25 167.5 L 230.0 186.25 L 218.75 201.25 L 207.5 211.25 L 202.5 213.75 L 200.0 210.0 L 197.5 200.0 L 193.75 186.25 L 190.0 171.25 L 183.75 155.0 L 180.0 143.75 L 177.5 138.75 L 177.5 136.25 L 177.5 136.25 L 177.5 136.25 L 177.5 137.5 L 178.75 141.25 L 178.75 151.25 L 180.0 170.0 L 181.25 203.75 L 182.5 252.5 L 186.25 295.0 L 188.75 320.0 L 187.5 327.5 " stroke="black" fill="none" stroke-width="6.0" stroke-linecap="round" stroke-linejoin="round" />
</svg>