<svg xmlns="http://www.w3.org/2000/svg" width="300" height="300" viewBox="0 0 300 300">
<path d="M 135.0 82.5 L 133.75 82.5 L 131.25 81.25 L 128.75 81.25 L 128.75 81.25 L 131.25 90.0 L 135.0 103.75 L 140.0 115.0 L 142.5 120.0 L 143.75 120.0 L 142.5 116.25 " stroke="black" fill="none" stroke-width="6.0" stroke-linecap="round" stroke-linejoin="round" />
<path d="M 130.0 90.0 L 128.75 87.5 L 127.5 86.25 L 127.5 85.0 L 133.75 83.75 L 147.5 82.5 L 167.5 81.25 L 187.5 80.0 L 198.75 80.0 L 200.0 81.25 L 196.25 85.0 L 187.5 90.0 L 176.25 97.5 L 166.25 103.75 L 155.0 111.25 L 145.0 120.0 L 136.25 127.5 L 130.0 132.5 L 126.25 135.0 L 126.25 135.0 L 128.75 135.0 L 136.25 135.0 L 146.25 132.5 L 157.5 127.5 L 171.25 120.0 L 181.25 115.0 L 185.0 113.75 L 182.5 113.75 L 173.75 117.5 L 163.75 122.5 L 153.75 128.75 L 147.5 135.0 L 142.5 142.5 L 141.25 156.25 L 142.5 176.25 L 146.25 192.5 L 148.75 198.75 L 150.0 197.5 L 150.0 190.0 L 150.0 185.0 " stroke="black" fill="none" stroke-width="6.0" stroke-linecap="round" stroke-linejoin="round" />
<path d="M 142.5 146.25 L 142.5 146.25 L 142.5 146.25 L 147.5 146.25 L 163.75 143.75 L 185.0 141.25 L 195.0 141.25 L 196.25 145.0 L 188.75 152.5 L 177.5 161.25 L 165.0 170.0 L 153.75 176.25 L 146.25 178.75 L 143.75 178.75 L 142.5 178.75 L 142.5 178.75 L 141.25 177.5 L 141.25 176.25 L 142.5 173.75 L 150.0 167.5 L 160.0 160.0 L 172.5 152.5 L 181.25 146.25 L 182.5 145.0 " stroke="black" fill="none" stroke-width="6.0" stroke-linecap="round" stroke-linejoin="round" />
<path d="M 152.5 181.25 L 152.5 181.25 L 153.75 181.25 L 156.25 181.25 L 162.5 177.5 L 177.5 166.25 L 185.0 156.25 L 185.0 155.0 " stroke="black" fill="none" stroke-width="6.0" stroke-linecap="round" stroke-linejoin="round" />
<path d="M 141.25 211.25 L 141.25 212.5 L 142.5 212.5 L 151.25 208.75 L 171.25 197.5 L 196.25 183.75 L 208.75 172.5 L 208.75 166.25 L 207.5 163.75 " stroke="black" fill="none" stroke-width="6.0" stroke-linecap="round" stroke-linejoin="round" />
<path d="M 165.0 96.25 L 165.0 96.25 L 165.0 96.25 L 165.0 97.5 L 167.5 116.25 L 173.75 162.5 L 176.25 208.75 L 176.25 232.5 L 173.75 246.25 L 168.75 252.5 L 167.5 252.5 " stroke="black" fill="none" stroke-width="6.0" stroke-linecap="round" stroke-linejoin="round" />
<path d="M 83.75 96.25 L 82.5 96.25 L 78.75 97.5 L 80.0 97.5 L 85.0 100.0 L 92.5 103.75 L 96.25 105.0 " stroke="black" fill="none" stroke-width="6.0" stroke-linecap="round" stroke-linejoin="round" />
<path d="M 83.75 140.0 L 83.75 141.25 L 82.5 141.25 L 82.5 142.5 L 86.25 142.5 L 91.25 142.5 L 96.25 142.5 L 100.0 143.75 L 100.0 148.75 L 93.75 158.75 L 86.25 170.0 L 81.25 178.75 L 81.25 182.5 L 85.0 182.5 L 91.25 182.5 L 98.75 183.75 L 103.75 187.5 L 103.75 195.0 L 97.5 206.25 L 88.75 217.5 L 80.0 225.0 L 71.25 230.0 L 66.25 231.25 L 66.25 231.25 L 66.25 231.25 L 66.25 231.25 L 68.75 231.25 L 72.5 231.25 L 78.75 232.5 L 85.0 235.0 L 92.5 236.25 L 101.25 238.75 L 112.5 241.25 L 128.75 243.75 L 146.25 246.25 L 161.25 247.5 L 180.0 247.5 L 197.5 247.5 L 207.5 246.25 L 213.75 243.75 L 221.25 240.0 L 230.0 232.5 L 232.5 227.5 " stroke="black" fill="none" stroke-width="6.0" stroke-linecap="round" stroke-linejoin="round" />
</svg>