<svg xmlns="http://www.w3.org/2000/svg" width="300" height="300" viewBox="0 0 300 300">
<path d="M 115.0 100.0 L 115.0 101.25 L 110.0 102.5 L 106.25 102.5 L 106.25 102.5 L 113.75 102.5 L 130.0 98.75 L 145.0 93.75 L 158.75 87.5 L 162.5 85.0 L 158.75 85.0 " stroke="black" fill="none" stroke-width="6.0" stroke-linecap="round" stroke-linejoin="round" />
<path d="M 127.5 103.75 L 123.75 106.25 L 120.0 113.75 L 120.0 123.75 L 121.25 132.5 L 123.75 137.5 L 125.0 137.5 " stroke="black" fill="none" stroke-width="6.0" stroke-linecap="round" stroke-linejoin="round" />
<path d="M 141.25 97.5 L 140.0 97.5 L 138.75 96.25 L 137.5 98.75 L 136.25 112.5 L 136.25 130.0 L 136.25 141.25 L 136.25 141.25 L 137.5 137.5 " stroke="black" fill="none" stroke-width="6.0" stroke-linecap="round" stroke-linejoin="round" />
<path d="M 155.0 100.0 L 155.0 100.0 L 156.25 100.0 L 156.25 102.5 L 150.0 112.5 L 141.25 127.5 L 130.0 141.25 L 120.0 150.0 L 116.25 153.75 L 117.5 153.75 L 123.75 153.75 L 133.75 153.75 L 143.75 152.5 L 153.75 151.25 L 162.5 151.25 L 167.5 153.75 L 168.75 165.0 L 162.5 187.5 L 152.5 208.75 L 145.0 225.0 L 137.5 231.25 L 135.0 227.5 L 135.0 223.75 " stroke="black" fill="none" stroke-width="6.0" stroke-linecap="round" stroke-linejoin="round" />
<path d="M 143.75 161.25 L 143.75 161.25 L 141.25 161.25 L 138.75 165.0 L 131.25 181.25 L 123.75 198.75 L 117.5 207.5 L 117.5 206.25 " stroke="black" fill="none" stroke-width="6.0" stroke-linecap="round" stroke-linejoin="round" />
<path d="M 157.5 160.0 L 156.25 165.0 L 150.0 178.75 L 140.0 197.5 L 132.5 212.5 L 130.0 216.25 " stroke="black" fill="none" stroke-width="6.0" stroke-linecap="round" stroke-linejoin="round" />
<path d="M 178.75 96.25 L 177.5 96.25 L 171.25 98.75 L 168.75 98.75 L 175.0 96.25 L 190.0 90.0 L 205.0 83.75 L 216.25 77.5 L 220.0 75.0 L 211.25 77.5 L 210.0 78.75 " stroke="black" fill="none" stroke-width="6.0" stroke-linecap="round" stroke-linejoin="round" />
<path d="M 187.5 103.75 L 187.5 106.25 L 183.75 118.75 L 182.5 138.75 L 182.5 152.5 L 183.75 163.75 L 183.75 163.75 L 185.0 160.0 " stroke="black" fill="none" stroke-width="6.0" stroke-linecap="round" stroke-linejoin="round" />
<path d="M 187.5 120.0 L 186.25 117.5 L 185.0 115.0 L 188.75 112.5 L 198.75 110.0 L 211.25 108.75 L 223.75 115.0 L 227.5 127.5 L 222.5 141.25 L 212.5 152.5 L 202.5 157.5 L 197.5 157.5 L 192.5 152.5 L 191.25 151.25 " stroke="black" fill="none" stroke-width="6.0" stroke-linecap="round" stroke-linejoin="round" />
<path d="M 186.25 142.5 L 183.75 142.5 L 182.5 142.5 L 182.5 141.25 L 191.25 138.75 L 203.75 133.75 L 216.25 128.75 L 221.25 125.0 L 217.5 127.5 " stroke="black" fill="none" stroke-width="6.0" stroke-linecap="round" stroke-linejoin="round" />
<path d="M 182.5 166.25 L 181.25 170.0 L 183.75 171.25 L 193.75 167.5 L 208.75 156.25 L 223.75 146.25 L 231.25 138.75 L 231.25 138.75 " stroke="black" fill="none" stroke-width="6.0" stroke-linecap="round" stroke-linejoin="round" />
<path d="M 206.25 162.5 L 205.0 168.75 L 200.0 185.0 L 196.25 200.0 L 195.0 211.25 L 195.0 213.75 L 196.25 208.75 " stroke="black" fill="none" stroke-width="6.0" stroke-linecap="round" stroke-linejoin="round" />
<path d="M 213.75 157.5 L 213.75 160.0 L 212.5 167.5 L 213.75 186.25 L 218.75 205.0 L 228.75 218.75 L 240.0 223.75 L 250.0 223.75 L 256.25 221.25 L 258.75 220.0 L 258.75 220.0 L 258.75 220.0 L 258.75 220.0 L 258.75 218.75 L 258.75 216.25 L 257.5 207.5 L 257.5 193.75 L 257.5 188.75 " stroke="black" fill="none" stroke-width="6.0" stroke-linecap="round" stroke-linejoin="round" />
<path d="M 77.5 100.0 L 75.0 100.0 L 71.25 100.0 L 70.0 100.0 L 75.0 101.25 L 85.0 102.5 L 93.75 103.75 " stroke="black" fill="none" stroke-width="6.0" stroke-linecap="round" stroke-linejoin="round" />
<path d="M 61.25 151.25 L 61.25 151.25 L 60.0 152.5 L 61.25 153.75 L 70.0 155.0 L 78.75 156.25 L 85.0 157.5 L 86.25 161.25 L 80.0 170.0 L 68.75 181.25 L 61.25 190.0 L 60.0 193.75 L 65.0 195.0 L 75.0 193.75 L 85.0 191.25 L 91.25 191.25 L 93.75 195.0 L 90.0 203.75 L 82.5 216.25 L 73.75 227.5 L 63.75 235.0 L 58.75 238.75 L 57.5 237.5 L 57.5 236.25 L 57.5 235.0 L 58.75 233.75 L 66.25 233.75 L 77.5 233.75 L 93.75 237.5 L 116.25 243.75 L 142.5 250.0 L 165.0 251.25 L 188.75 251.25 L 211.25 251.25 L 230.0 250.0 L 251.25 250.0 L 261.25 246.25 L 263.75 241.25 L 265.0 237.5 " stroke="black" fill="none" stroke-width="6.0" stroke-linecap="round" stroke-linejoin="round" />
</svg>