<svg xmlns="http://www.w3.org/2000/svg" width="300" height="300" viewBox="0 0 300 300">
<path d="M 148.75 85.0 L 145.0 86.25 L 143.75 87.5 L 142.5 90.0 L 146.25 97.5 L 152.5 103.75 L 156.25 108.75 L 156.25 110.0 " stroke="black" fill="none" stroke-width="6.0" stroke-linecap="round" stroke-linejoin="round" />
<path d="M 145.0 92.5 L 145.0 92.5 L 142.5 92.5 L 141.25 91.25 L 145.0 90.0 L 157.5 87.5 L 176.25 85.0 L 193.75 83.75 L 200.0 83.75 L 193.75 90.0 L 181.25 97.5 L 168.75 103.75 L 157.5 108.75 L 150.0 111.25 L 148.75 112.5 L 155.0 110.0 L 168.75 103.75 L 183.75 96.25 L 193.75 90.0 L 196.25 86.25 L 191.25 86.25 L 183.75 85.0 L 177.5 82.5 L 172.5 77.5 L 168.75 72.5 L 167.5 70.0 L 167.5 72.5 L 168.75 83.75 L 170.0 100.0 L 170.0 118.75 L 162.5 131.25 L 151.25 137.5 L 137.5 141.25 L 122.5 143.75 L 111.25 147.5 L 110.0 147.5 L 123.75 146.25 L 145.0 141.25 L 170.0 133.75 L 196.25 122.5 L 213.75 112.5 L 218.75 108.75 L 213.75 108.75 L 205.0 112.5 L 196.25 116.25 L 193.75 117.5 " stroke="black" fill="none" stroke-width="6.0" stroke-linecap="round" stroke-linejoin="round" />
<path d="M 163.75 146.25 L 162.5 146.25 L 161.25 146.25 L 160.0 147.5 L 160.0 165.0 L 163.75 197.5 L 166.25 215.0 L 170.0 222.5 L 168.75 220.0 L 168.75 216.25 " stroke="black" fill="none" stroke-width="6.0" stroke-linecap="round" stroke-linejoin="round" />
<path d="M 161.25 158.75 L 161.25 158.75 L 162.5 157.5 L 170.0 155.0 L 183.75 151.25 L 197.5 151.25 L 201.25 153.75 L 197.5 161.25 L 185.0 172.5 L 172.5 181.25 L 161.25 186.25 L 156.25 188.75 L 158.75 186.25 L 172.5 178.75 L 188.75 171.25 L 201.25 165.0 L 207.5 165.0 L 206.25 171.25 L 196.25 183.75 L 185.0 196.25 L 172.5 205.0 L 166.25 208.75 L 168.75 210.0 L 182.5 205.0 L 197.5 197.5 L 210.0 191.25 L 216.25 190.0 L 213.75 197.5 L 202.5 211.25 L 188.75 223.75 L 175.0 230.0 L 163.75 231.25 " stroke="black" fill="none" stroke-width="6.0" stroke-linecap="round" stroke-linejoin="round" />
<path d="M 87.5 112.5 L 81.25 115.0 L 80.0 116.25 L 83.75 117.5 L 95.0 122.5 L 105.0 126.25 L 110.0 131.25 " stroke="black" fill="none" stroke-width="6.0" stroke-linecap="round" stroke-linejoin="round" />
<path d="M 92.5 156.25 L 90.0 160.0 L 90.0 162.5 L 91.25 165.0 L 96.25 168.75 L 101.25 172.5 L 103.75 177.5 L 103.75 185.0 L 98.75 191.25 L 93.75 197.5 L 91.25 203.75 L 91.25 206.25 L 96.25 210.0 L 102.5 215.0 L 108.75 223.75 L 110.0 236.25 L 103.75 247.5 L 96.25 253.75 L 87.5 255.0 L 81.25 255.0 L 77.5 252.5 L 76.25 248.75 L 77.5 247.5 L 82.5 246.25 L 91.25 245.0 L 106.25 245.0 L 131.25 245.0 L 161.25 247.5 L 188.75 250.0 L 207.5 251.25 L 223.75 251.25 L 237.5 251.25 L 246.25 251.25 L 253.75 251.25 L 256.25 248.75 " stroke="black" fill="none" stroke-width="6.0" stroke-linecap="round" stroke-linejoin="round" />
</svg>