<svg xmlns="http://www.w3.org/2000/svg" width="300" height="300" viewBox="0 0 300 300">
<path d="M 153.75 77.5 L 152.5 76.25 L 150.0 76.25 L 148.75 76.25 L 150.0 81.25 L 153.75 95.0 L 158.75 106.25 L 161.25 108.75 " stroke="black" fill="none" stroke-width="6.0" stroke-linecap="round" stroke-linejoin="round" />
<path d="M 188.75 66.25 L 188.75 66.25 L 188.75 66.25 L 188.75 70.0 L 187.5 80.0 L 183.75 93.75 L 173.75 102.5 " stroke="black" fill="none" stroke-width="6.0" stroke-linecap="round" stroke-linejoin="round" />
<path d="M 128.75 120.0 L 123.75 122.5 L 122.5 122.5 L 131.25 122.5 L 151.25 117.5 L 180.0 110.0 L 205.0 103.75 L 213.75 100.0 L 213.75 100.0 L 208.75 100.0 L 200.0 103.75 L 188.75 113.75 L 173.75 131.25 L 155.0 157.5 L 138.75 186.25 L 131.25 201.25 L 128.75 203.75 L 128.75 203.75 " stroke="black" fill="none" stroke-width="6.0" stroke-linecap="round" stroke-linejoin="round" />
<path d="M 168.75 143.75 L 168.75 143.75 L 173.75 143.75 L 187.5 151.25 L 200.0 168.75 L 201.25 191.25 L 190.0 207.5 L 173.75 218.75 L 156.25 225.0 L 148.75 221.25 L 148.75 207.5 L 150.0 203.75 " stroke="black" fill="none" stroke-width="6.0" stroke-linecap="round" stroke-linejoin="round" />
<path d="M 185.0 151.25 L 180.0 152.5 L 175.0 157.5 L 167.5 170.0 L 157.5 190.0 L 151.25 202.5 L 150.0 203.75 " stroke="black" fill="none" stroke-width="6.0" stroke-linecap="round" stroke-linejoin="round" />
<path d="M 190.0 165.0 L 187.5 166.25 L 182.5 172.5 L 175.0 186.25 L 165.0 201.25 L 157.5 207.5 L 156.25 207.5 " stroke="black" fill="none" stroke-width="6.0" stroke-linecap="round" stroke-linejoin="round" />
<path d="M 225.0 142.5 L 225.0 141.25 L 223.75 141.25 L 217.5 147.5 L 207.5 161.25 L 196.25 176.25 L 191.25 182.5 L 191.25 183.75 L 193.75 181.25 L 200.0 181.25 L 208.75 181.25 L 220.0 182.5 L 235.0 186.25 L 252.5 191.25 L 262.5 192.5 " stroke="black" fill="none" stroke-width="6.0" stroke-linecap="round" stroke-linejoin="round" />
<path d="M 86.25 91.25 L 80.0 92.5 L 77.5 92.5 L 81.25 93.75 L 88.75 97.5 L 98.75 103.75 L 102.5 107.5 " stroke="black" fill="none" stroke-width="6.0" stroke-linecap="round" stroke-linejoin="round" />
<path d="M 76.25 145.0 L 76.25 146.25 L 73.75 147.5 L 76.25 148.75 L 85.0 148.75 L 93.75 150.0 L 98.75 152.5 L 98.75 160.0 L 91.25 171.25 L 83.75 183.75 L 80.0 191.25 L 81.25 195.0 L 90.0 196.25 L 97.5 198.75 L 101.25 203.75 L 101.25 212.5 L 93.75 225.0 L 83.75 235.0 L 72.5 240.0 L 62.5 241.25 L 56.25 240.0 L 56.25 238.75 L 57.5 237.5 L 62.5 236.25 L 71.25 238.75 L 86.25 241.25 L 105.0 243.75 L 132.5 246.25 L 158.75 251.25 L 182.5 255.0 L 200.0 257.5 L 215.0 258.75 L 231.25 257.5 L 246.25 251.25 L 257.5 240.0 L 258.75 236.25 " stroke="black" fill="none" stroke-width="6.0" stroke-linecap="round" stroke-linejoin="round" />
</svg>