<svg xmlns="http://www.w3.org/2000/svg" width="300" height="300" viewBox="0 0 300 300">
<path d="M 123.75 70.0 L 121.25 70.0 L 120.0 70.0 L 122.5 71.25 L 133.75 70.0 L 147.5 66.25 L 157.5 62.5 L 161.25 60.0 L 160.0 60.0 " stroke="black" fill="none" stroke-width="6.0" stroke-linecap="round" stroke-linejoin="round" />
<path d="M 127.5 90.0 L 125.0 97.5 L 125.0 106.25 L 126.25 115.0 L 128.75 120.0 L 131.25 120.0 " stroke="black" fill="none" stroke-width="6.0" stroke-linecap="round" stroke-linejoin="round" />
<path d="M 121.25 98.75 L 120.0 98.75 L 120.0 98.75 L 123.75 95.0 L 137.5 90.0 L 150.0 86.25 L 170.0 82.5 L 175.0 83.75 L 173.75 90.0 L 163.75 102.5 L 152.5 112.5 L 145.0 117.5 L 143.75 117.5 " stroke="black" fill="none" stroke-width="6.0" stroke-linecap="round" stroke-linejoin="round" />
<path d="M 145.0 91.25 L 142.5 91.25 L 141.25 93.75 L 141.25 102.5 L 143.75 116.25 L 143.75 121.25 " stroke="black" fill="none" stroke-width="6.0" stroke-linecap="round" stroke-linejoin="round" />
<path d="M 190.0 53.75 L 187.5 55.0 L 183.75 57.5 L 182.5 57.5 L 187.5 57.5 L 196.25 57.5 L 206.25 56.25 L 213.75 55.0 L 216.25 53.75 L 213.75 53.75 L 205.0 58.75 L 195.0 67.5 L 186.25 77.5 L 182.5 90.0 L 183.75 97.5 L 188.75 102.5 L 193.75 102.5 L 193.75 102.5 " stroke="black" fill="none" stroke-width="6.0" stroke-linecap="round" stroke-linejoin="round" />
<path d="M 185.0 78.75 L 185.0 78.75 L 185.0 77.5 L 191.25 76.25 L 205.0 73.75 L 223.75 72.5 L 235.0 72.5 L 236.25 76.25 L 227.5 86.25 L 213.75 95.0 L 210.0 97.5 " stroke="black" fill="none" stroke-width="6.0" stroke-linecap="round" stroke-linejoin="round" />
<path d="M 200.0 80.0 L 200.0 76.25 L 200.0 76.25 L 200.0 78.75 L 200.0 90.0 L 200.0 98.75 " stroke="black" fill="none" stroke-width="6.0" stroke-linecap="round" stroke-linejoin="round" />
<path d="M 163.75 116.25 L 162.5 116.25 L 160.0 117.5 L 161.25 118.75 L 170.0 118.75 L 181.25 120.0 L 188.75 120.0 L 191.25 120.0 L 191.25 120.0 " stroke="black" fill="none" stroke-width="6.0" stroke-linecap="round" stroke-linejoin="round" />
<path d="M 123.75 141.25 L 123.75 142.5 L 126.25 142.5 L 141.25 141.25 L 166.25 135.0 L 193.75 127.5 L 207.5 120.0 L 208.75 117.5 L 203.75 120.0 L 193.75 125.0 L 181.25 130.0 L 167.5 133.75 L 155.0 136.25 L 147.5 141.25 L 143.75 151.25 L 142.5 175.0 L 140.0 206.25 L 137.5 225.0 L 137.5 228.75 L 137.5 226.25 L 138.75 220.0 " stroke="black" fill="none" stroke-width="6.0" stroke-linecap="round" stroke-linejoin="round" />
<path d="M 142.5 161.25 L 142.5 161.25 L 143.75 161.25 L 155.0 157.5 L 182.5 152.5 L 207.5 146.25 L 220.0 143.75 L 221.25 143.75 L 216.25 147.5 L 205.0 155.0 L 193.75 162.5 L 186.25 166.25 " stroke="black" fill="none" stroke-width="6.0" stroke-linecap="round" stroke-linejoin="round" />
<path d="M 165.0 142.5 L 163.75 142.5 L 162.5 145.0 L 161.25 152.5 L 162.5 165.0 L 162.5 176.25 L 163.75 177.5 L 167.5 170.0 L 172.5 158.75 L 178.75 147.5 L 185.0 138.75 L 187.5 133.75 L 188.75 135.0 L 186.25 143.75 L 182.5 157.5 L 175.0 171.25 L 168.75 181.25 L 163.75 183.75 L 163.75 183.75 L 167.5 180.0 L 176.25 172.5 L 187.5 165.0 L 196.25 157.5 L 197.5 156.25 " stroke="black" fill="none" stroke-width="6.0" stroke-linecap="round" stroke-linejoin="round" />
<path d="M 161.25 203.75 L 161.25 203.75 L 165.0 203.75 L 177.5 195.0 L 191.25 182.5 L 196.25 173.75 L 195.0 172.5 " stroke="black" fill="none" stroke-width="6.0" stroke-linecap="round" stroke-linejoin="round" />
<path d="M 160.0 186.25 L 158.75 188.75 L 157.5 200.0 L 161.25 208.75 L 172.5 213.75 L 191.25 210.0 L 207.5 200.0 L 218.75 190.0 L 222.5 181.25 L 221.25 178.75 L 217.5 178.75 L 213.75 181.25 L 213.75 181.25 L 215.0 181.25 L 222.5 175.0 L 232.5 167.5 L 241.25 157.5 L 242.5 152.5 " stroke="black" fill="none" stroke-width="6.0" stroke-linecap="round" stroke-linejoin="round" />
<path d="M 207.5 158.75 L 206.25 163.75 L 205.0 177.5 L 208.75 197.5 L 215.0 211.25 L 223.75 217.5 L 230.0 220.0 L 235.0 221.25 L 237.5 222.5 L 238.75 223.75 L 238.75 223.75 L 240.0 225.0 L 240.0 225.0 L 240.0 225.0 L 240.0 225.0 L 241.25 220.0 L 246.25 207.5 L 252.5 180.0 L 257.5 147.5 " stroke="black" fill="none" stroke-width="6.0" stroke-linecap="round" stroke-linejoin="round" />
<path d="M 80.0 100.0 L 78.75 101.25 L 73.75 101.25 L 71.25 102.5 L 71.25 102.5 L 78.75 103.75 L 87.5 106.25 L 90.0 107.5 " stroke="black" fill="none" stroke-width="6.0" stroke-linecap="round" stroke-linejoin="round" />
<path d="M 66.25 140.0 L 65.0 141.25 L 67.5 142.5 L 76.25 142.5 L 86.25 143.75 L 92.5 145.0 L 92.5 150.0 L 87.5 158.75 L 77.5 168.75 L 68.75 177.5 L 66.25 182.5 L 71.25 182.5 L 81.25 181.25 L 90.0 178.75 L 96.25 178.75 L 97.5 186.25 L 95.0 201.25 L 88.75 218.75 L 82.5 233.75 L 75.0 242.5 L 67.5 246.25 L 63.75 246.25 L 62.5 243.75 L 61.25 242.5 L 61.25 241.25 L 61.25 241.25 L 62.5 241.25 L 65.0 240.0 L 68.75 240.0 L 73.75 238.75 L 81.25 238.75 L 90.0 238.75 L 103.75 240.0 L 122.5 243.75 L 143.75 247.5 L 162.5 251.25 L 182.5 256.25 L 202.5 263.75 L 221.25 271.25 L 241.25 276.25 L 257.5 277.5 L 271.25 272.5 L 285.0 261.25 L 287.5 256.25 " stroke="black" fill="none" stroke-width="6.0" stroke-linecap="round" stroke-linejoin="round" />
</svg>