<svg xmlns="http://www.w3.org/2000/svg" width="300" height="300" viewBox="0 0 300 300">
<path d="M 68.75 145.0 L 67.5 145.0 L 63.75 147.5 L 62.5 147.5 L 75.0 142.5 L 92.5 133.75 L 113.75 120.0 L 126.25 108.75 L 125.0 106.25 L 117.5 106.25 " stroke="black" fill="none" stroke-width="6.0" stroke-linecap="round" stroke-linejoin="round" />
<path d="M 97.5 128.75 L 97.5 130.0 L 96.25 132.5 L 95.0 140.0 L 95.0 160.0 L 95.0 182.5 L 93.75 195.0 L 91.25 198.75 L 86.25 198.75 L 81.25 202.5 L 76.25 207.5 L 75.0 210.0 L 75.0 211.25 L 75.0 211.25 L 78.75 211.25 L 85.0 208.75 L 95.0 202.5 L 110.0 192.5 L 132.5 177.5 L 151.25 160.0 L 155.0 153.75 " stroke="black" fill="none" stroke-width="6.0" stroke-linecap="round" stroke-linejoin="round" />
<path d="M 162.5 88.75 L 158.75 90.0 L 151.25 92.5 L 152.5 93.75 L 166.25 95.0 L 186.25 95.0 L 207.5 91.25 L 218.75 88.75 L 220.0 88.75 L 208.75 101.25 L 198.75 117.5 L 195.0 130.0 L 200.0 135.0 L 212.5 133.75 L 225.0 131.25 L 232.5 132.5 L 232.5 143.75 L 222.5 158.75 L 211.25 175.0 L 203.75 185.0 L 198.75 187.5 L 196.25 186.25 L 193.75 178.75 L 188.75 168.75 L 185.0 160.0 " stroke="black" fill="none" stroke-width="6.0" stroke-linecap="round" stroke-linejoin="round" />
<path d="M 176.25 125.0 L 176.25 123.75 L 173.75 123.75 L 172.5 123.75 L 172.5 142.5 L 175.0 187.5 L 175.0 232.5 L 173.75 261.25 L 172.5 267.5 " stroke="black" fill="none" stroke-width="6.0" stroke-linecap="round" stroke-linejoin="round" />
</svg>