<svg xmlns="http://www.w3.org/2000/svg" width="300" height="300" viewBox="0 0 300 300">
<path d="M 173.75 70.0 L 173.75 70.0 L 170.0 72.5 L 157.5 90.0 L 138.75 123.75 L 121.25 148.75 L 107.5 155.0 L 106.25 155.0 " stroke="black" fill="none" stroke-width="6.0" stroke-linecap="round" stroke-linejoin="round" />
<path d="M 161.25 72.5 L 165.0 72.5 L 176.25 80.0 L 196.25 90.0 L 212.5 95.0 L 226.25 97.5 L 228.75 101.25 L 226.25 101.25 " stroke="black" fill="none" stroke-width="6.0" stroke-linecap="round" stroke-linejoin="round" />
<path d="M 147.5 138.75 L 146.25 140.0 L 146.25 141.25 L 152.5 138.75 L 170.0 130.0 L 191.25 117.5 L 198.75 111.25 L 193.75 111.25 L 191.25 113.75 " stroke="black" fill="none" stroke-width="6.0" stroke-linecap="round" stroke-linejoin="round" />
<path d="M 145.0 176.25 L 145.0 177.5 L 148.75 175.0 L 170.0 160.0 L 197.5 141.25 L 208.75 130.0 L 208.75 126.25 L 202.5 126.25 L 195.0 128.75 L 188.75 131.25 L 183.75 132.5 L 181.25 132.5 L 180.0 133.75 L 180.0 141.25 L 182.5 161.25 L 186.25 192.5 L 186.25 216.25 L 185.0 225.0 L 178.75 220.0 L 175.0 208.75 " stroke="black" fill="none" stroke-width="6.0" stroke-linecap="round" stroke-linejoin="round" />
<path d="M 182.5 155.0 L 181.25 157.5 L 175.0 165.0 L 163.75 182.5 L 151.25 201.25 L 141.25 211.25 L 135.0 211.25 L 133.75 206.25 " stroke="black" fill="none" stroke-width="6.0" stroke-linecap="round" stroke-linejoin="round" />
<path d="M 175.0 156.25 L 187.5 157.5 L 200.0 165.0 L 213.75 178.75 L 228.75 190.0 L 241.25 196.25 L 245.0 198.75 L 241.25 201.25 L 238.75 201.25 " stroke="black" fill="none" stroke-width="6.0" stroke-linecap="round" stroke-linejoin="round" />
<path d="M 77.5 113.75 L 76.25 113.75 L 73.75 112.5 L 75.0 111.25 L 85.0 111.25 L 97.5 111.25 L 106.25 115.0 " stroke="black" fill="none" stroke-width="6.0" stroke-linecap="round" stroke-linejoin="round" />
<path d="M 78.75 146.25 L 77.5 146.25 L 77.5 147.5 L 82.5 147.5 L 91.25 147.5 L 98.75 147.5 L 101.25 150.0 L 98.75 156.25 L 91.25 165.0 L 85.0 175.0 L 82.5 180.0 L 82.5 182.5 L 87.5 183.75 L 93.75 183.75 L 100.0 185.0 L 102.5 191.25 L 101.25 200.0 L 95.0 211.25 L 85.0 222.5 L 75.0 228.75 L 65.0 230.0 L 60.0 230.0 L 60.0 226.25 L 60.0 225.0 L 66.25 222.5 L 75.0 221.25 L 90.0 222.5 L 112.5 232.5 L 143.75 245.0 L 173.75 251.25 L 202.5 252.5 L 221.25 250.0 L 240.0 248.75 L 255.0 246.25 L 261.25 245.0 L 265.0 241.25 L 265.0 238.75 " stroke="black" fill="none" stroke-width="6.0" stroke-linecap="round" stroke-linejoin="round" />
</svg>