<svg xmlns="http://www.w3.org/2000/svg" width="300" height="300" viewBox="0 0 300 300">
<path d="M 93.75 96.25 L 91.25 97.5 L 90.0 97.5 L 92.5 97.5 L 105.0 96.25 L 122.5 96.25 L 140.0 102.5 L 147.5 113.75 L 143.75 126.25 L 131.25 137.5 L 116.25 143.75 L 103.75 147.5 L 100.0 147.5 " stroke="black" fill="none" stroke-width="6.0" stroke-linecap="round" stroke-linejoin="round" />
<path d="M 66.25 133.75 L 60.0 135.0 L 60.0 135.0 L 75.0 132.5 L 97.5 126.25 L 126.25 116.25 L 150.0 106.25 L 158.75 100.0 L 151.25 102.5 " stroke="black" fill="none" stroke-width="6.0" stroke-linecap="round" stroke-linejoin="round" />
<path d="M 78.75 160.0 L 77.5 162.5 L 81.25 163.75 L 96.25 157.5 L 121.25 145.0 L 141.25 131.25 L 143.75 125.0 " stroke="black" fill="none" stroke-width="6.0" stroke-linecap="round" stroke-linejoin="round" />
<path d="M 102.5 116.25 L 100.0 120.0 L 95.0 136.25 L 90.0 167.5 L 82.5 205.0 L 72.5 228.75 L 62.5 240.0 L 57.5 240.0 " stroke="black" fill="none" stroke-width="6.0" stroke-linecap="round" stroke-linejoin="round" />
<path d="M 93.75 181.25 L 98.75 195.0 L 105.0 208.75 L 112.5 221.25 L 120.0 226.25 L 121.25 225.0 L 120.0 220.0 L 115.0 215.0 L 107.5 210.0 L 101.25 205.0 L 96.25 200.0 L 96.25 195.0 L 103.75 190.0 L 121.25 185.0 L 142.5 180.0 L 153.75 178.75 L 155.0 182.5 L 146.25 195.0 L 135.0 208.75 L 123.75 220.0 L 117.5 226.25 L 123.75 222.5 L 137.5 207.5 L 153.75 188.75 L 163.75 173.75 " stroke="black" fill="none" stroke-width="6.0" stroke-linecap="round" stroke-linejoin="round" />
<path d="M 187.5 86.25 L 182.5 88.75 L 180.0 91.25 L 185.0 92.5 L 198.75 95.0 L 212.5 95.0 L 225.0 95.0 L 231.25 95.0 L 228.75 97.5 L 217.5 111.25 L 207.5 126.25 L 203.75 137.5 L 208.75 141.25 L 222.5 141.25 L 235.0 140.0 L 241.25 143.75 L 238.75 156.25 L 227.5 173.75 L 213.75 190.0 L 203.75 197.5 L 198.75 197.5 L 195.0 192.5 L 192.5 182.5 L 191.25 170.0 " stroke="black" fill="none" stroke-width="6.0" stroke-linecap="round" stroke-linejoin="round" />
<path d="M 187.5 127.5 L 186.25 125.0 L 183.75 122.5 L 183.75 123.75 L 183.75 140.0 L 187.5 177.5 L 188.75 223.75 L 187.5 257.5 L 185.0 270.0 L 182.5 275.0 L 178.75 275.0 " stroke="black" fill="none" stroke-width="6.0" stroke-linecap="round" stroke-linejoin="round" />
</svg>