<svg xmlns="http://www.w3.org/2000/svg" width="300" height="300" viewBox="0 0 300 300">
<path d="M 148.75 97.5 L 148.75 97.5 L 148.75 97.5 L 148.75 96.25 L 161.25 92.5 L 181.25 87.5 L 198.75 83.75 L 201.25 83.75 L 200.0 83.75 " stroke="black" fill="none" stroke-width="6.0" stroke-linecap="round" stroke-linejoin="round" />
<path d="M 142.5 123.75 L 142.5 123.75 L 141.25 128.75 L 145.0 135.0 L 152.5 146.25 L 161.25 157.5 L 163.75 162.5 L 162.5 161.25 L 157.5 155.0 L 152.5 150.0 L 147.5 145.0 L 143.75 140.0 L 143.75 136.25 L 146.25 132.5 L 158.75 127.5 L 176.25 123.75 L 191.25 121.25 L 196.25 121.25 L 188.75 131.25 L 176.25 143.75 L 161.25 155.0 L 155.0 160.0 L 156.25 158.75 L 168.75 150.0 L 182.5 138.75 L 190.0 130.0 " stroke="black" fill="none" stroke-width="6.0" stroke-linecap="round" stroke-linejoin="round" />
<path d="M 138.75 180.0 L 137.5 178.75 L 136.25 180.0 L 136.25 193.75 L 143.75 217.5 L 152.5 235.0 L 156.25 238.75 L 156.25 235.0 L 155.0 232.5 " stroke="black" fill="none" stroke-width="6.0" stroke-linecap="round" stroke-linejoin="round" />
<path d="M 142.5 196.25 L 138.75 195.0 L 136.25 192.5 L 140.0 188.75 L 156.25 180.0 L 181.25 167.5 L 202.5 160.0 L 213.75 162.5 L 216.25 177.5 L 213.75 197.5 L 208.75 215.0 L 205.0 228.75 L 201.25 232.5 L 198.75 231.25 " stroke="black" fill="none" stroke-width="6.0" stroke-linecap="round" stroke-linejoin="round" />
<path d="M 156.25 216.25 L 153.75 218.75 L 152.5 220.0 L 156.25 218.75 L 171.25 210.0 L 188.75 198.75 L 200.0 187.5 L 200.0 183.75 L 192.5 185.0 L 190.0 185.0 " stroke="black" fill="none" stroke-width="6.0" stroke-linecap="round" stroke-linejoin="round" />
<path d="M 176.25 182.5 L 176.25 182.5 L 175.0 186.25 L 175.0 196.25 L 177.5 212.5 L 177.5 228.75 L 175.0 236.25 L 166.25 241.25 L 161.25 241.25 L 161.25 240.0 L 168.75 236.25 L 183.75 228.75 L 198.75 218.75 L 210.0 207.5 L 210.0 203.75 " stroke="black" fill="none" stroke-width="6.0" stroke-linecap="round" stroke-linejoin="round" />
<path d="M 80.0 101.25 L 78.75 101.25 L 77.5 102.5 L 78.75 102.5 L 87.5 105.0 L 98.75 107.5 L 102.5 110.0 " stroke="black" fill="none" stroke-width="6.0" stroke-linecap="round" stroke-linejoin="round" />
<path d="M 76.25 148.75 L 75.0 150.0 L 73.75 151.25 L 78.75 151.25 L 86.25 152.5 L 92.5 153.75 L 95.0 158.75 L 92.5 167.5 L 83.75 178.75 L 75.0 190.0 L 71.25 195.0 L 73.75 197.5 L 82.5 197.5 L 90.0 196.25 L 97.5 196.25 L 100.0 201.25 L 97.5 211.25 L 91.25 223.75 L 83.75 235.0 L 76.25 241.25 L 70.0 243.75 L 66.25 243.75 L 65.0 241.25 L 65.0 238.75 L 70.0 237.5 L 78.75 236.25 L 88.75 237.5 L 103.75 241.25 L 123.75 248.75 L 146.25 255.0 L 166.25 257.5 L 182.5 257.5 L 198.75 257.5 L 212.5 257.5 L 223.75 255.0 L 236.25 250.0 L 245.0 241.25 " stroke="black" fill="none" stroke-width="6.0" stroke-linecap="round" stroke-linejoin="round" />
</svg>