<svg xmlns="http://www.w3.org/2000/svg" width="300" height="300" viewBox="0 0 300 300">
<path d="M 53.75 115.0 L 51.25 117.5 L 51.25 118.75 L 63.75 111.25 L 86.25 100.0 L 112.5 86.25 L 133.75 73.75 L 138.75 68.75 L 132.5 68.75 L 120.0 71.25 L 106.25 72.5 L 93.75 75.0 L 83.75 78.75 L 76.25 82.5 L 73.75 86.25 L 73.75 92.5 L 78.75 105.0 L 85.0 121.25 L 91.25 131.25 L 93.75 132.5 L 93.75 130.0 " stroke="black" fill="none" stroke-width="6.0" stroke-linecap="round" stroke-linejoin="round" />
<path d="M 103.75 81.25 L 106.25 75.0 L 107.5 73.75 L 107.5 78.75 L 103.75 95.0 L 97.5 118.75 L 91.25 137.5 " stroke="black" fill="none" stroke-width="6.0" stroke-linecap="round" stroke-linejoin="round" />
<path d="M 72.5 146.25 L 71.25 146.25 L 70.0 145.0 L 70.0 145.0 L 76.25 153.75 L 85.0 167.5 L 90.0 180.0 L 92.5 183.75 L 91.25 182.5 L 87.5 177.5 L 82.5 171.25 L 78.75 165.0 L 77.5 160.0 L 82.5 152.5 L 95.0 143.75 L 110.0 137.5 L 121.25 133.75 L 123.75 135.0 L 118.75 142.5 L 107.5 155.0 L 96.25 167.5 L 87.5 177.5 L 83.75 182.5 L 86.25 181.25 L 96.25 170.0 L 108.75 156.25 L 121.25 145.0 L 125.0 141.25 L 120.0 143.75 " stroke="black" fill="none" stroke-width="6.0" stroke-linecap="round" stroke-linejoin="round" />
<path d="M 85.0 205.0 L 85.0 205.0 L 86.25 206.25 L 86.25 206.25 L 88.75 206.25 L 95.0 200.0 L 106.25 187.5 L 121.25 171.25 L 131.25 160.0 L 130.0 157.5 " stroke="black" fill="none" stroke-width="6.0" stroke-linecap="round" stroke-linejoin="round" />
<path d="M 92.5 223.75 L 90.0 227.5 L 90.0 227.5 L 97.5 217.5 L 112.5 203.75 L 126.25 190.0 L 132.5 182.5 L 128.75 181.25 " stroke="black" fill="none" stroke-width="6.0" stroke-linecap="round" stroke-linejoin="round" />
<path d="M 102.5 148.75 L 102.5 148.75 L 102.5 148.75 L 103.75 160.0 L 108.75 190.0 L 112.5 220.0 L 112.5 237.5 L 106.25 246.25 L 97.5 250.0 L 88.75 252.5 L 83.75 252.5 L 81.25 253.75 L 81.25 253.75 L 81.25 253.75 L 81.25 253.75 L 86.25 255.0 L 96.25 253.75 L 113.75 247.5 L 135.0 237.5 L 150.0 230.0 L 155.0 223.75 L 155.0 222.5 " stroke="black" fill="none" stroke-width="6.0" stroke-linecap="round" stroke-linejoin="round" />
<path d="M 168.75 103.75 L 165.0 103.75 L 158.75 103.75 L 160.0 103.75 L 176.25 100.0 L 198.75 93.75 L 215.0 90.0 L 220.0 91.25 L 218.75 98.75 L 206.25 120.0 L 201.25 133.75 L 200.0 140.0 L 208.75 140.0 L 220.0 138.75 L 228.75 138.75 L 230.0 148.75 L 218.75 166.25 L 203.75 190.0 L 191.25 205.0 L 185.0 206.25 L 182.5 205.0 L 182.5 197.5 L 181.25 185.0 L 178.75 170.0 L 175.0 155.0 L 170.0 146.25 L 168.75 141.25 L 167.5 141.25 L 167.5 143.75 L 171.25 157.5 L 175.0 193.75 L 177.5 245.0 L 178.75 286.25 L 181.25 306.25 L 182.5 310.0 L 178.75 310.0 L 176.25 310.0 " stroke="black" fill="none" stroke-width="6.0" stroke-linecap="round" stroke-linejoin="round" />
</svg>