<svg xmlns="http://www.w3.org/2000/svg" width="300" height="300" viewBox="0 0 300 300">
<path d="M 116.25 76.25 L 116.25 76.25 L 115.0 76.25 L 115.0 81.25 L 118.75 101.25 L 126.25 122.5 L 132.5 132.5 L 135.0 130.0 L 135.0 122.5 " stroke="black" fill="none" stroke-width="6.0" stroke-linecap="round" stroke-linejoin="round" />
<path d="M 118.75 88.75 L 117.5 83.75 L 117.5 80.0 L 125.0 77.5 L 141.25 73.75 L 160.0 73.75 L 176.25 73.75 L 182.5 80.0 L 178.75 90.0 L 165.0 102.5 L 151.25 111.25 L 137.5 115.0 " stroke="black" fill="none" stroke-width="6.0" stroke-linecap="round" stroke-linejoin="round" />
<path d="M 116.25 108.75 L 116.25 108.75 L 116.25 108.75 L 118.75 106.25 L 132.5 100.0 L 151.25 91.25 L 165.0 85.0 L 165.0 85.0 L 162.5 86.25 " stroke="black" fill="none" stroke-width="6.0" stroke-linecap="round" stroke-linejoin="round" />
<path d="M 128.75 120.0 L 127.5 121.25 L 127.5 122.5 L 135.0 121.25 L 150.0 112.5 L 165.0 101.25 L 166.25 96.25 " stroke="black" fill="none" stroke-width="6.0" stroke-linecap="round" stroke-linejoin="round" />
<path d="M 61.25 163.75 L 57.5 165.0 L 58.75 166.25 L 83.75 157.5 L 131.25 136.25 L 180.0 111.25 L 205.0 97.5 L 208.75 93.75 L 200.0 96.25 L 182.5 103.75 L 176.25 106.25 " stroke="black" fill="none" stroke-width="6.0" stroke-linecap="round" stroke-linejoin="round" />
<path d="M 130.0 150.0 L 126.25 157.5 L 126.25 175.0 L 128.75 193.75 L 132.5 206.25 L 135.0 208.75 L 133.75 203.75 " stroke="black" fill="none" stroke-width="6.0" stroke-linecap="round" stroke-linejoin="round" />
<path d="M 120.0 165.0 L 116.25 162.5 L 116.25 160.0 L 130.0 155.0 L 151.25 148.75 L 173.75 145.0 L 190.0 145.0 L 192.5 155.0 L 185.0 170.0 L 172.5 186.25 L 158.75 196.25 L 148.75 201.25 " stroke="black" fill="none" stroke-width="6.0" stroke-linecap="round" stroke-linejoin="round" />
<path d="M 123.75 187.5 L 123.75 187.5 L 122.5 186.25 L 135.0 181.25 L 155.0 171.25 L 172.5 162.5 L 177.5 160.0 L 166.25 166.25 L 158.75 171.25 " stroke="black" fill="none" stroke-width="6.0" stroke-linecap="round" stroke-linejoin="round" />
<path d="M 130.0 201.25 L 126.25 205.0 L 128.75 205.0 L 142.5 200.0 L 162.5 185.0 L 182.5 166.25 L 187.5 155.0 L 183.75 153.75 " stroke="black" fill="none" stroke-width="6.0" stroke-linecap="round" stroke-linejoin="round" />
<path d="M 160.0 147.5 L 160.0 147.5 L 158.75 157.5 L 158.75 190.0 L 157.5 222.5 L 156.25 243.75 L 155.0 251.25 L 151.25 251.25 " stroke="black" fill="none" stroke-width="6.0" stroke-linecap="round" stroke-linejoin="round" />
<path d="M 123.75 237.5 L 122.5 238.75 L 121.25 238.75 L 128.75 238.75 L 147.5 231.25 L 170.0 221.25 L 185.0 213.75 L 186.25 210.0 L 178.75 212.5 " stroke="black" fill="none" stroke-width="6.0" stroke-linecap="round" stroke-linejoin="round" />
<path d="M 123.75 260.0 L 123.75 260.0 L 122.5 261.25 L 132.5 261.25 L 158.75 252.5 L 190.0 243.75 L 208.75 238.75 L 216.25 236.25 L 218.75 236.25 L 217.5 237.5 L 216.25 237.5 " stroke="black" fill="none" stroke-width="6.0" stroke-linecap="round" stroke-linejoin="round" />
</svg>