<svg xmlns="http://www.w3.org/2000/svg" width="300" height="300" viewBox="0 0 300 300">
<path d="M 77.5 113.75 L 77.5 112.5 L 77.5 112.5 L 78.75 113.75 L 78.75 125.0 L 78.75 141.25 L 75.0 157.5 L 71.25 163.75 L 71.25 165.0 L 76.25 160.0 L 85.0 153.75 L 93.75 146.25 L 98.75 143.75 L 100.0 142.5 L 98.75 151.25 L 92.5 168.75 L 85.0 185.0 L 78.75 197.5 L 77.5 201.25 L 80.0 200.0 L 88.75 192.5 L 98.75 185.0 L 107.5 178.75 L 112.5 177.5 L 113.75 186.25 L 105.0 205.0 L 92.5 227.5 L 80.0 243.75 L 72.5 246.25 L 71.25 245.0 " stroke="black" fill="none" stroke-width="6.0" stroke-linecap="round" stroke-linejoin="round" />
<path d="M 147.5 98.75 L 145.0 100.0 L 145.0 101.25 L 150.0 101.25 L 158.75 101.25 L 168.75 100.0 L 173.75 98.75 L 172.5 98.75 " stroke="black" fill="none" stroke-width="6.0" stroke-linecap="round" stroke-linejoin="round" />
<path d="M 136.25 133.75 L 132.5 136.25 L 133.75 137.5 L 143.75 135.0 L 156.25 130.0 L 168.75 123.75 L 175.0 121.25 L 175.0 122.5 L 165.0 132.5 L 153.75 143.75 L 142.5 155.0 L 137.5 161.25 L 137.5 162.5 L 145.0 158.75 L 155.0 152.5 L 167.5 146.25 L 177.5 142.5 L 180.0 141.25 L 175.0 147.5 L 165.0 161.25 L 153.75 175.0 L 142.5 186.25 L 135.0 187.5 L 132.5 182.5 L 132.5 171.25 L 136.25 157.5 L 138.75 145.0 L 140.0 136.25 L 140.0 135.0 L 140.0 146.25 L 140.0 170.0 L 140.0 197.5 L 142.5 216.25 L 146.25 227.5 L 152.5 230.0 L 158.75 227.5 L 166.25 222.5 L 171.25 216.25 L 175.0 207.5 L 177.5 198.75 L 177.5 191.25 L 176.25 187.5 L 175.0 183.75 L 172.5 182.5 L 172.5 182.5 L 171.25 182.5 L 171.25 182.5 L 171.25 182.5 L 171.25 182.5 L 171.25 182.5 L 171.25 183.75 L 172.5 185.0 L 177.5 190.0 L 183.75 196.25 L 192.5 202.5 L 198.75 203.75 " stroke="black" fill="none" stroke-width="6.0" stroke-linecap="round" stroke-linejoin="round" />
<path d="M 208.75 95.0 L 205.0 96.25 L 202.5 97.5 L 203.75 97.5 L 210.0 97.5 L 223.75 97.5 L 235.0 97.5 L 242.5 100.0 L 243.75 106.25 L 237.5 121.25 L 230.0 133.75 L 226.25 141.25 L 227.5 143.75 L 233.75 143.75 L 241.25 143.75 L 248.75 145.0 L 251.25 152.5 L 248.75 166.25 L 240.0 181.25 L 230.0 191.25 L 222.5 196.25 L 220.0 196.25 L 217.5 191.25 L 216.25 181.25 L 216.25 168.75 L 215.0 155.0 L 213.75 142.5 L 212.5 135.0 L 211.25 132.5 L 211.25 132.5 L 211.25 133.75 L 211.25 143.75 L 212.5 167.5 L 215.0 200.0 L 218.75 232.5 L 222.5 252.5 L 223.75 258.75 L 223.75 261.25 L 220.0 261.25 L 217.5 260.0 " stroke="black" fill="none" stroke-width="6.0" stroke-linecap="round" stroke-linejoin="round" />
</svg>