<svg xmlns="http://www.w3.org/2000/svg" width="300" height="300" viewBox="0 0 300 300">
<path d="M 66.25 87.5 L 60.0 87.5 L 55.0 88.75 L 55.0 88.75 L 67.5 90.0 L 88.75 88.75 L 106.25 85.0 L 117.5 81.25 L 113.75 81.25 " stroke="black" fill="none" stroke-width="6.0" stroke-linecap="round" stroke-linejoin="round" />
<path d="M 56.25 133.75 L 56.25 138.75 L 51.25 162.5 L 51.25 197.5 L 51.25 221.25 L 55.0 232.5 L 56.25 233.75 L 56.25 228.75 " stroke="black" fill="none" stroke-width="6.0" stroke-linecap="round" stroke-linejoin="round" />
<path d="M 53.75 155.0 L 51.25 155.0 L 50.0 153.75 L 57.5 150.0 L 75.0 142.5 L 93.75 135.0 L 108.75 132.5 L 118.75 141.25 L 122.5 163.75 L 122.5 197.5 L 123.75 228.75 L 127.5 248.75 L 128.75 251.25 L 128.75 250.0 L 126.25 245.0 L 117.5 236.25 L 107.5 220.0 L 96.25 202.5 L 91.25 192.5 " stroke="black" fill="none" stroke-width="6.0" stroke-linecap="round" stroke-linejoin="round" />
<path d="M 77.5 108.75 L 77.5 106.25 L 77.5 105.0 L 77.5 112.5 L 77.5 141.25 L 76.25 180.0 L 72.5 201.25 L 71.25 201.25 " stroke="black" fill="none" stroke-width="6.0" stroke-linecap="round" stroke-linejoin="round" />
<path d="M 93.75 125.0 L 93.75 126.25 L 91.25 130.0 L 90.0 152.5 L 90.0 171.25 L 97.5 178.75 L 110.0 176.25 L 121.25 165.0 L 126.25 155.0 L 122.5 151.25 " stroke="black" fill="none" stroke-width="6.0" stroke-linecap="round" stroke-linejoin="round" />
<path d="M 77.5 202.5 L 75.0 205.0 L 72.5 207.5 L 72.5 208.75 L 82.5 205.0 L 95.0 197.5 L 103.75 191.25 L 103.75 190.0 L 102.5 190.0 " stroke="black" fill="none" stroke-width="6.0" stroke-linecap="round" stroke-linejoin="round" />
<path d="M 76.25 220.0 L 73.75 225.0 L 73.75 227.5 L 85.0 226.25 L 100.0 215.0 L 110.0 206.25 " stroke="black" fill="none" stroke-width="6.0" stroke-linecap="round" stroke-linejoin="round" />
<path d="M 158.75 83.75 L 153.75 85.0 L 153.75 85.0 L 165.0 85.0 L 185.0 83.75 L 203.75 80.0 L 217.5 78.75 L 221.25 78.75 L 218.75 81.25 L 208.75 90.0 L 196.25 101.25 L 185.0 108.75 L 177.5 110.0 " stroke="black" fill="none" stroke-width="6.0" stroke-linecap="round" stroke-linejoin="round" />
<path d="M 183.75 92.5 L 180.0 92.5 L 178.75 95.0 L 177.5 102.5 L 180.0 118.75 L 182.5 133.75 L 182.5 135.0 " stroke="black" fill="none" stroke-width="6.0" stroke-linecap="round" stroke-linejoin="round" />
<path d="M 186.25 122.5 L 186.25 121.25 L 186.25 120.0 L 186.25 118.75 L 192.5 113.75 L 201.25 107.5 L 207.5 102.5 L 206.25 100.0 L 202.5 100.0 " stroke="black" fill="none" stroke-width="6.0" stroke-linecap="round" stroke-linejoin="round" />
<path d="M 158.75 98.75 L 158.75 101.25 L 156.25 112.5 L 152.5 137.5 L 147.5 157.5 L 142.5 166.25 L 137.5 167.5 L 136.25 163.75 " stroke="black" fill="none" stroke-width="6.0" stroke-linecap="round" stroke-linejoin="round" />
<path d="M 147.5 135.0 L 148.75 133.75 L 152.5 133.75 L 166.25 135.0 L 192.5 141.25 L 222.5 145.0 L 247.5 145.0 L 262.5 142.5 L 270.0 141.25 L 270.0 140.0 " stroke="black" fill="none" stroke-width="6.0" stroke-linecap="round" stroke-linejoin="round" />
<path d="M 166.25 157.5 L 166.25 157.5 L 166.25 162.5 L 166.25 187.5 L 165.0 221.25 L 162.5 241.25 L 158.75 247.5 L 153.75 246.25 " stroke="black" fill="none" stroke-width="6.0" stroke-linecap="round" stroke-linejoin="round" />
<path d="M 163.75 171.25 L 163.75 170.0 L 165.0 170.0 L 173.75 167.5 L 192.5 163.75 L 210.0 163.75 L 221.25 177.5 L 226.25 202.5 L 225.0 225.0 L 223.75 242.5 L 222.5 248.75 L 222.5 248.75 L 222.5 248.75 L 218.75 243.75 L 213.75 237.5 L 206.25 228.75 L 198.75 221.25 " stroke="black" fill="none" stroke-width="6.0" stroke-linecap="round" stroke-linejoin="round" />
<path d="M 170.0 196.25 L 167.5 196.25 L 163.75 196.25 L 165.0 196.25 L 177.5 193.75 L 195.0 187.5 L 208.75 181.25 L 215.0 175.0 L 215.0 175.0 " stroke="black" fill="none" stroke-width="6.0" stroke-linecap="round" stroke-linejoin="round" />
<path d="M 178.75 211.25 L 176.25 215.0 L 180.0 215.0 L 197.5 210.0 L 217.5 200.0 L 222.5 197.5 " stroke="black" fill="none" stroke-width="6.0" stroke-linecap="round" stroke-linejoin="round" />
</svg>