<svg xmlns="http://www.w3.org/2000/svg" width="300" height="300" viewBox="0 0 300 300">
<path d="M 77.5 90.0 L 76.25 92.5 L 72.5 95.0 L 75.0 95.0 L 88.75 91.25 L 105.0 86.25 L 120.0 78.75 L 123.75 77.5 L 120.0 77.5 " stroke="black" fill="none" stroke-width="6.0" stroke-linecap="round" stroke-linejoin="round" />
<path d="M 75.0 116.25 L 71.25 122.5 L 67.5 132.5 L 67.5 153.75 L 68.75 183.75 L 73.75 205.0 L 77.5 211.25 L 78.75 208.75 L 78.75 201.25 L 78.75 198.75 " stroke="black" fill="none" stroke-width="6.0" stroke-linecap="round" stroke-linejoin="round" />
<path d="M 65.0 152.5 L 63.75 151.25 L 62.5 151.25 L 62.5 148.75 L 72.5 142.5 L 90.0 131.25 L 110.0 120.0 L 126.25 113.75 L 132.5 118.75 L 136.25 136.25 L 138.75 162.5 L 140.0 190.0 L 142.5 207.5 L 142.5 211.25 L 142.5 210.0 L 138.75 205.0 L 132.5 197.5 L 125.0 187.5 L 113.75 175.0 L 107.5 167.5 " stroke="black" fill="none" stroke-width="6.0" stroke-linecap="round" stroke-linejoin="round" />
<path d="M 91.25 103.75 L 90.0 103.75 L 88.75 103.75 L 87.5 105.0 L 86.25 115.0 L 83.75 140.0 L 81.25 167.5 L 78.75 178.75 L 78.75 176.25 " stroke="black" fill="none" stroke-width="6.0" stroke-linecap="round" stroke-linejoin="round" />
<path d="M 98.75 107.5 L 101.25 105.0 L 102.5 105.0 L 102.5 117.5 L 101.25 136.25 L 101.25 148.75 L 107.5 151.25 L 116.25 145.0 L 122.5 137.5 L 123.75 131.25 L 117.5 131.25 " stroke="black" fill="none" stroke-width="6.0" stroke-linecap="round" stroke-linejoin="round" />
<path d="M 88.75 178.75 L 86.25 181.25 L 83.75 183.75 L 83.75 183.75 L 91.25 180.0 L 101.25 171.25 L 111.25 163.75 L 115.0 160.0 L 115.0 158.75 " stroke="black" fill="none" stroke-width="6.0" stroke-linecap="round" stroke-linejoin="round" />
<path d="M 93.75 195.0 L 93.75 197.5 L 91.25 203.75 L 91.25 205.0 L 100.0 200.0 L 116.25 188.75 L 123.75 182.5 " stroke="black" fill="none" stroke-width="6.0" stroke-linecap="round" stroke-linejoin="round" />
<path d="M 170.0 71.25 L 170.0 71.25 L 170.0 70.0 L 172.5 68.75 L 180.0 66.25 L 192.5 63.75 L 201.25 62.5 L 202.5 68.75 L 196.25 75.0 " stroke="black" fill="none" stroke-width="6.0" stroke-linecap="round" stroke-linejoin="round" />
<path d="M 156.25 101.25 L 153.75 106.25 L 151.25 108.75 L 152.5 108.75 L 166.25 102.5 L 185.0 90.0 L 203.75 77.5 L 210.0 71.25 L 206.25 73.75 L 197.5 82.5 L 186.25 90.0 L 177.5 97.5 L 170.0 106.25 L 165.0 120.0 L 160.0 141.25 L 156.25 158.75 L 153.75 165.0 L 153.75 162.5 L 155.0 152.5 L 158.75 142.5 L 163.75 133.75 L 167.5 130.0 L 170.0 128.75 L 177.5 136.25 L 187.5 146.25 L 193.75 151.25 L 195.0 151.25 " stroke="black" fill="none" stroke-width="6.0" stroke-linecap="round" stroke-linejoin="round" />
<path d="M 215.0 100.0 L 216.25 96.25 L 216.25 92.5 L 211.25 92.5 L 206.25 102.5 L 201.25 116.25 L 198.75 126.25 L 198.75 131.25 L 203.75 130.0 L 215.0 123.75 L 230.0 112.5 L 242.5 103.75 L 245.0 102.5 L 238.75 106.25 " stroke="black" fill="none" stroke-width="6.0" stroke-linecap="round" stroke-linejoin="round" />
<path d="M 156.25 201.25 L 156.25 201.25 L 155.0 205.0 L 160.0 205.0 L 182.5 195.0 L 212.5 173.75 L 235.0 153.75 L 240.0 146.25 L 236.25 145.0 L 226.25 146.25 L 213.75 146.25 L 208.75 146.25 " stroke="black" fill="none" stroke-width="6.0" stroke-linecap="round" stroke-linejoin="round" />
<path d="M 201.25 141.25 L 201.25 141.25 L 200.0 140.0 L 198.75 140.0 L 197.5 141.25 L 198.75 152.5 L 201.25 183.75 L 202.5 218.75 L 200.0 245.0 L 197.5 256.25 L 192.5 262.5 L 185.0 262.5 " stroke="black" fill="none" stroke-width="6.0" stroke-linecap="round" stroke-linejoin="round" />
</svg>