<svg xmlns="http://www.w3.org/2000/svg" width="300" height="300" viewBox="0 0 300 300">
<path d="M 73.75 103.75 L 71.25 103.75 L 70.0 105.0 L 71.25 118.75 L 80.0 143.75 L 86.25 162.5 L 87.5 167.5 L 87.5 167.5 " stroke="black" fill="none" stroke-width="6.0" stroke-linecap="round" stroke-linejoin="round" />
<path d="M 73.75 117.5 L 71.25 117.5 L 71.25 117.5 L 83.75 111.25 L 103.75 103.75 L 130.0 98.75 L 143.75 101.25 L 143.75 112.5 L 130.0 133.75 L 113.75 148.75 L 101.25 157.5 L 91.25 160.0 L 90.0 160.0 " stroke="black" fill="none" stroke-width="6.0" stroke-linecap="round" stroke-linejoin="round" />
<path d="M 81.25 150.0 L 80.0 150.0 L 81.25 148.75 L 91.25 141.25 L 110.0 130.0 L 131.25 115.0 L 136.25 110.0 " stroke="black" fill="none" stroke-width="6.0" stroke-linecap="round" stroke-linejoin="round" />
<path d="M 95.0 166.25 L 93.75 167.5 L 93.75 167.5 L 101.25 158.75 L 115.0 146.25 L 126.25 131.25 " stroke="black" fill="none" stroke-width="6.0" stroke-linecap="round" stroke-linejoin="round" />
<path d="M 110.0 115.0 L 110.0 115.0 L 110.0 116.25 L 110.0 126.25 L 111.25 155.0 L 112.5 191.25 L 112.5 212.5 L 111.25 217.5 L 108.75 216.25 L 106.25 212.5 " stroke="black" fill="none" stroke-width="6.0" stroke-linecap="round" stroke-linejoin="round" />
<path d="M 92.5 200.0 L 90.0 202.5 L 85.0 205.0 L 85.0 205.0 L 97.5 200.0 L 115.0 190.0 L 135.0 175.0 L 146.25 162.5 L 146.25 158.75 " stroke="black" fill="none" stroke-width="6.0" stroke-linecap="round" stroke-linejoin="round" />
<path d="M 102.5 227.5 L 100.0 233.75 L 101.25 233.75 L 116.25 222.5 L 137.5 205.0 L 151.25 192.5 " stroke="black" fill="none" stroke-width="6.0" stroke-linecap="round" stroke-linejoin="round" />
<path d="M 191.25 88.75 L 186.25 92.5 L 185.0 93.75 L 193.75 95.0 L 205.0 97.5 L 215.0 100.0 L 220.0 102.5 L 216.25 106.25 L 203.75 115.0 L 187.5 125.0 L 170.0 136.25 L 163.75 141.25 L 170.0 141.25 L 186.25 138.75 L 203.75 133.75 L 216.25 128.75 L 225.0 125.0 L 225.0 125.0 L 216.25 131.25 L 202.5 143.75 L 186.25 156.25 L 166.25 170.0 L 152.5 181.25 L 152.5 182.5 L 167.5 178.75 L 192.5 168.75 L 217.5 157.5 L 242.5 151.25 L 256.25 148.75 L 255.0 150.0 L 243.75 156.25 L 227.5 166.25 L 212.5 172.5 L 206.25 175.0 " stroke="black" fill="none" stroke-width="6.0" stroke-linecap="round" stroke-linejoin="round" />
<path d="M 205.0 170.0 L 205.0 171.25 L 205.0 177.5 L 207.5 200.0 L 211.25 235.0 L 211.25 258.75 L 211.25 263.75 L 211.25 263.75 L 207.5 263.75 L 202.5 260.0 L 191.25 256.25 L 172.5 250.0 L 161.25 245.0 " stroke="black" fill="none" stroke-width="6.0" stroke-linecap="round" stroke-linejoin="round" />
</svg>