<svg xmlns="http://www.w3.org/2000/svg" width="300" height="300" viewBox="0 0 300 300">
<path d="M 100.0 100.0 L 100.0 100.0 L 100.0 98.75 L 101.25 98.75 L 107.5 107.5 L 117.5 120.0 L 122.5 131.25 " stroke="black" fill="none" stroke-width="6.0" stroke-linecap="round" stroke-linejoin="round" />
<path d="M 123.75 92.5 L 123.75 92.5 L 123.75 92.5 L 128.75 92.5 L 137.5 93.75 L 142.5 102.5 L 140.0 120.0 L 125.0 137.5 L 102.5 152.5 L 82.5 167.5 L 76.25 177.5 L 80.0 177.5 L 97.5 168.75 L 118.75 152.5 L 141.25 135.0 L 152.5 125.0 L 148.75 125.0 L 145.0 127.5 " stroke="black" fill="none" stroke-width="6.0" stroke-linecap="round" stroke-linejoin="round" />
<path d="M 93.75 208.75 L 93.75 208.75 L 101.25 206.25 L 127.5 185.0 L 150.0 158.75 L 156.25 146.25 L 151.25 143.75 L 146.25 145.0 " stroke="black" fill="none" stroke-width="6.0" stroke-linecap="round" stroke-linejoin="round" />
<path d="M 112.5 157.5 L 113.75 160.0 L 118.75 167.5 L 122.5 190.0 L 120.0 220.0 L 110.0 241.25 L 100.0 246.25 L 93.75 242.5 " stroke="black" fill="none" stroke-width="6.0" stroke-linecap="round" stroke-linejoin="round" />
<path d="M 120.0 187.5 L 126.25 185.0 L 141.25 185.0 L 157.5 192.5 L 173.75 210.0 L 185.0 225.0 L 187.5 236.25 L 185.0 237.5 L 178.75 230.0 " stroke="black" fill="none" stroke-width="6.0" stroke-linecap="round" stroke-linejoin="round" />
<path d="M 195.0 116.25 L 188.75 113.75 L 187.5 112.5 L 196.25 107.5 L 212.5 102.5 L 230.0 100.0 L 240.0 100.0 L 240.0 108.75 L 230.0 125.0 L 220.0 138.75 L 217.5 147.5 L 221.25 150.0 L 232.5 150.0 L 246.25 148.75 L 253.75 150.0 L 253.75 158.75 L 246.25 175.0 L 233.75 191.25 L 221.25 201.25 L 213.75 203.75 L 208.75 201.25 L 206.25 192.5 L 205.0 178.75 L 202.5 165.0 L 200.0 153.75 L 198.75 148.75 L 197.5 147.5 L 197.5 150.0 L 200.0 156.25 L 205.0 177.5 L 207.5 212.5 L 207.5 251.25 L 207.5 270.0 L 207.5 282.5 L 202.5 287.5 L 197.5 290.0 " stroke="black" fill="none" stroke-width="6.0" stroke-linecap="round" stroke-linejoin="round" />
</svg>