<svg xmlns="http://www.w3.org/2000/svg" width="300" height="300" viewBox="0 0 300 300">
<path d="M 97.5 98.75 L 93.75 105.0 L 83.75 125.0 L 72.5 151.25 L 56.25 187.5 L 45.0 207.5 L 43.75 207.5 " stroke="black" fill="none" stroke-width="6.0" stroke-linecap="round" stroke-linejoin="round" />
<path d="M 87.5 115.0 L 88.75 115.0 L 95.0 116.25 L 110.0 118.75 L 132.5 125.0 L 150.0 132.5 L 152.5 137.5 " stroke="black" fill="none" stroke-width="6.0" stroke-linecap="round" stroke-linejoin="round" />
<path d="M 95.0 162.5 L 92.5 166.25 L 91.25 167.5 L 100.0 170.0 L 112.5 176.25 L 122.5 186.25 L 120.0 200.0 L 107.5 211.25 L 93.75 220.0 L 86.25 221.25 L 83.75 220.0 L 87.5 210.0 L 96.25 198.75 L 106.25 191.25 L 113.75 190.0 L 115.0 202.5 L 110.0 223.75 L 103.75 241.25 L 101.25 243.75 L 106.25 232.5 L 117.5 205.0 L 130.0 175.0 L 142.5 141.25 L 152.5 106.25 L 157.5 88.75 L 158.75 87.5 L 158.75 91.25 L 157.5 103.75 L 157.5 121.25 L 161.25 133.75 L 171.25 136.25 L 183.75 131.25 L 201.25 113.75 L 207.5 105.0 L 207.5 103.75 L 207.5 111.25 L 207.5 135.0 L 207.5 175.0 L 210.0 217.5 L 212.5 238.75 L 213.75 243.75 L 211.25 243.75 L 207.5 241.25 L 200.0 236.25 L 197.5 235.0 " stroke="black" fill="none" stroke-width="6.0" stroke-linecap="round" stroke-linejoin="round" />
<path d="M 157.5 175.0 L 157.5 175.0 L 157.5 175.0 L 165.0 177.5 L 181.25 185.0 L 188.75 188.75 " stroke="black" fill="none" stroke-width="6.0" stroke-linecap="round" stroke-linejoin="round" />
</svg>