<svg xmlns="http://www.w3.org/2000/svg" width="300" height="300" viewBox="0 0 300 300">
<path d="M 58.75 120.0 L 55.0 120.0 L 50.0 120.0 L 48.75 120.0 L 53.75 120.0 L 66.25 118.75 L 80.0 115.0 L 90.0 111.25 L 95.0 107.5 L 95.0 107.5 " stroke="black" fill="none" stroke-width="6.0" stroke-linecap="round" stroke-linejoin="round" />
<path d="M 62.5 151.25 L 61.25 152.5 L 58.75 155.0 L 60.0 155.0 L 70.0 152.5 L 81.25 146.25 L 91.25 138.75 L 93.75 136.25 " stroke="black" fill="none" stroke-width="6.0" stroke-linecap="round" stroke-linejoin="round" />
<path d="M 63.75 220.0 L 61.25 223.75 L 60.0 225.0 L 70.0 216.25 L 83.75 203.75 L 107.5 168.75 L 121.25 142.5 L 123.75 127.5 " stroke="black" fill="none" stroke-width="6.0" stroke-linecap="round" stroke-linejoin="round" />
<path d="M 128.75 96.25 L 128.75 96.25 L 126.25 97.5 L 126.25 98.75 L 135.0 98.75 L 153.75 97.5 L 177.5 90.0 L 195.0 81.25 L 197.5 78.75 L 193.75 80.0 L 180.0 86.25 L 163.75 95.0 L 148.75 110.0 L 137.5 133.75 L 135.0 163.75 L 138.75 197.5 L 145.0 216.25 L 151.25 225.0 L 153.75 227.5 L 153.75 227.5 L 153.75 227.5 L 150.0 227.5 L 145.0 221.25 L 138.75 213.75 L 135.0 207.5 " stroke="black" fill="none" stroke-width="6.0" stroke-linecap="round" stroke-linejoin="round" />
<path d="M 137.5 168.75 L 137.5 167.5 L 138.75 166.25 L 146.25 161.25 L 168.75 151.25 L 195.0 141.25 L 213.75 136.25 L 225.0 140.0 L 230.0 161.25 L 231.25 191.25 L 227.5 216.25 L 223.75 232.5 L 221.25 236.25 L 216.25 235.0 L 208.75 226.25 L 203.75 218.75 " stroke="black" fill="none" stroke-width="6.0" stroke-linecap="round" stroke-linejoin="round" />
<path d="M 168.75 122.5 L 167.5 122.5 L 165.0 126.25 L 161.25 151.25 L 157.5 188.75 L 156.25 206.25 L 155.0 205.0 " stroke="black" fill="none" stroke-width="6.0" stroke-linecap="round" stroke-linejoin="round" />
<path d="M 187.5 115.0 L 187.5 115.0 L 186.25 126.25 L 183.75 158.75 L 183.75 186.25 L 191.25 191.25 L 200.0 186.25 L 208.75 172.5 L 212.5 160.0 L 211.25 153.75 L 206.25 153.75 " stroke="black" fill="none" stroke-width="6.0" stroke-linecap="round" stroke-linejoin="round" />
<path d="M 166.25 198.75 L 165.0 200.0 L 163.75 202.5 L 166.25 203.75 L 178.75 201.25 L 192.5 195.0 L 202.5 188.75 L 203.75 187.5 " stroke="black" fill="none" stroke-width="6.0" stroke-linecap="round" stroke-linejoin="round" />
<path d="M 165.0 231.25 L 165.0 232.5 L 170.0 233.75 L 187.5 227.5 L 210.0 215.0 L 215.0 211.25 " stroke="black" fill="none" stroke-width="6.0" stroke-linecap="round" stroke-linejoin="round" />
</svg>