<svg xmlns="http://www.w3.org/2000/svg" width="300" height="300" viewBox="0 0 300 300">
<path d="M 96.25 88.75 L 96.25 88.75 L 93.75 88.75 L 88.75 98.75 L 76.25 136.25 L 63.75 176.25 L 52.5 202.5 L 48.75 206.25 " stroke="black" fill="none" stroke-width="6.0" stroke-linecap="round" stroke-linejoin="round" />
<path d="M 92.5 108.75 L 92.5 110.0 L 93.75 111.25 L 101.25 115.0 L 121.25 125.0 L 136.25 138.75 L 137.5 145.0 " stroke="black" fill="none" stroke-width="6.0" stroke-linecap="round" stroke-linejoin="round" />
<path d="M 83.75 182.5 L 82.5 182.5 L 80.0 182.5 L 81.25 178.75 L 92.5 173.75 L 107.5 172.5 L 117.5 178.75 L 116.25 193.75 L 103.75 211.25 L 91.25 221.25 L 86.25 222.5 L 87.5 213.75 L 96.25 195.0 L 107.5 178.75 L 117.5 171.25 L 120.0 183.75 L 113.75 207.5 L 107.5 227.5 L 107.5 235.0 L 115.0 221.25 L 128.75 193.75 L 143.75 162.5 L 153.75 128.75 L 163.75 96.25 L 171.25 82.5 L 170.0 87.5 L 160.0 108.75 L 147.5 142.5 L 132.5 178.75 L 116.25 208.75 L 112.5 211.25 " stroke="black" fill="none" stroke-width="6.0" stroke-linecap="round" stroke-linejoin="round" />
<path d="M 160.0 97.5 L 162.5 96.25 L 165.0 96.25 L 192.5 106.25 L 215.0 127.5 L 235.0 145.0 L 245.0 157.5 L 238.75 160.0 " stroke="black" fill="none" stroke-width="6.0" stroke-linecap="round" stroke-linejoin="round" />
<path d="M 166.25 151.25 L 166.25 151.25 L 166.25 151.25 L 167.5 151.25 L 177.5 152.5 L 190.0 156.25 L 196.25 161.25 L 193.75 168.75 L 178.75 176.25 L 162.5 183.75 L 153.75 186.25 L 156.25 186.25 L 171.25 183.75 L 191.25 177.5 L 206.25 173.75 L 211.25 175.0 L 206.25 185.0 L 192.5 197.5 L 176.25 207.5 L 158.75 215.0 L 153.75 217.5 L 155.0 217.5 L 168.75 223.75 L 188.75 231.25 L 207.5 237.5 L 223.75 240.0 L 228.75 241.25 " stroke="black" fill="none" stroke-width="6.0" stroke-linecap="round" stroke-linejoin="round" />
</svg>