<svg xmlns="http://www.w3.org/2000/svg" width="300" height="300" viewBox="0 0 300 300">
<path d="M 86.25 81.25 L 85.0 81.25 L 85.0 81.25 L 71.25 118.75 L 53.75 152.5 L 41.25 171.25 L 36.25 176.25 " stroke="black" fill="none" stroke-width="6.0" stroke-linecap="round" stroke-linejoin="round" />
<path d="M 86.25 90.0 L 88.75 88.75 L 96.25 90.0 L 111.25 97.5 L 130.0 106.25 L 135.0 111.25 " stroke="black" fill="none" stroke-width="6.0" stroke-linecap="round" stroke-linejoin="round" />
<path d="M 73.75 150.0 L 71.25 151.25 L 72.5 151.25 L 82.5 153.75 L 96.25 158.75 L 105.0 166.25 L 102.5 181.25 L 88.75 195.0 L 68.75 203.75 L 57.5 205.0 L 57.5 197.5 L 71.25 181.25 L 86.25 166.25 L 97.5 157.5 L 107.5 161.25 L 105.0 185.0 L 97.5 211.25 L 88.75 232.5 L 86.25 235.0 L 91.25 222.5 L 103.75 196.25 L 120.0 165.0 L 136.25 130.0 L 141.25 100.0 L 141.25 93.75 L 140.0 95.0 L 137.5 111.25 L 137.5 145.0 L 137.5 186.25 L 142.5 218.75 L 145.0 237.5 L 147.5 240.0 L 147.5 231.25 " stroke="black" fill="none" stroke-width="6.0" stroke-linecap="round" stroke-linejoin="round" />
<path d="M 148.75 88.75 L 148.75 87.5 L 148.75 83.75 L 152.5 80.0 L 170.0 76.25 L 196.25 75.0 L 216.25 81.25 L 230.0 102.5 L 235.0 136.25 L 237.5 173.75 L 240.0 210.0 L 243.75 231.25 L 245.0 243.75 L 245.0 245.0 L 245.0 241.25 L 240.0 233.75 L 232.5 217.5 L 220.0 200.0 L 205.0 180.0 L 201.25 175.0 " stroke="black" fill="none" stroke-width="6.0" stroke-linecap="round" stroke-linejoin="round" />
<path d="M 158.75 145.0 L 153.75 143.75 L 151.25 143.75 L 153.75 140.0 L 168.75 135.0 L 185.0 128.75 L 197.5 122.5 L 197.5 122.5 L 191.25 126.25 " stroke="black" fill="none" stroke-width="6.0" stroke-linecap="round" stroke-linejoin="round" />
<path d="M 148.75 162.5 L 147.5 166.25 L 147.5 182.5 L 156.25 200.0 L 166.25 211.25 L 171.25 212.5 L 172.5 212.5 L 168.75 208.75 L 162.5 203.75 L 155.0 198.75 L 151.25 192.5 L 150.0 186.25 L 157.5 177.5 L 175.0 168.75 L 193.75 163.75 L 202.5 165.0 L 201.25 178.75 L 190.0 197.5 L 175.0 211.25 L 168.75 215.0 L 171.25 211.25 L 183.75 196.25 L 191.25 185.0 " stroke="black" fill="none" stroke-width="6.0" stroke-linecap="round" stroke-linejoin="round" />
</svg>