<svg xmlns="http://www.w3.org/2000/svg" width="300" height="300" viewBox="0 0 300 300">
<path d="M 93.75 85.0 L 91.25 85.0 L 86.25 92.5 L 77.5 118.75 L 63.75 157.5 L 52.5 188.75 L 47.5 200.0 L 47.5 200.0 " stroke="black" fill="none" stroke-width="6.0" stroke-linecap="round" stroke-linejoin="round" />
<path d="M 91.25 90.0 L 91.25 88.75 L 93.75 87.5 L 105.0 90.0 L 123.75 96.25 L 141.25 103.75 L 146.25 113.75 " stroke="black" fill="none" stroke-width="6.0" stroke-linecap="round" stroke-linejoin="round" />
<path d="M 81.25 140.0 L 77.5 140.0 L 75.0 140.0 L 76.25 140.0 L 86.25 140.0 L 96.25 143.75 L 105.0 151.25 L 107.5 163.75 L 102.5 180.0 L 91.25 195.0 L 80.0 202.5 L 73.75 202.5 L 72.5 198.75 L 77.5 190.0 L 85.0 178.75 L 92.5 170.0 L 98.75 166.25 L 103.75 172.5 L 105.0 192.5 L 101.25 213.75 L 97.5 225.0 L 96.25 225.0 L 100.0 211.25 L 112.5 187.5 L 125.0 160.0 " stroke="black" fill="none" stroke-width="6.0" stroke-linecap="round" stroke-linejoin="round" />
<path d="M 143.75 97.5 L 141.25 98.75 L 140.0 98.75 L 145.0 93.75 L 160.0 82.5 L 176.25 67.5 L 187.5 57.5 L 186.25 55.0 L 175.0 58.75 L 162.5 62.5 L 153.75 65.0 L 148.75 66.25 L 147.5 67.5 L 147.5 71.25 L 150.0 80.0 L 157.5 102.5 L 171.25 133.75 L 183.75 151.25 L 192.5 155.0 L 195.0 155.0 L 195.0 153.75 L 195.0 153.75 L 195.0 151.25 L 193.75 150.0 L 193.75 147.5 L 192.5 145.0 L 191.25 142.5 L 190.0 140.0 L 188.75 138.75 L 188.75 137.5 L 188.75 137.5 L 188.75 137.5 L 188.75 137.5 L 188.75 137.5 L 188.75 138.75 L 188.75 138.75 L 188.75 138.75 L 188.75 138.75 L 188.75 138.75 L 191.25 131.25 L 192.5 123.75 " stroke="black" fill="none" stroke-width="6.0" stroke-linecap="round" stroke-linejoin="round" />
<path d="M 190.0 87.5 L 187.5 88.75 L 183.75 93.75 L 175.0 106.25 L 160.0 131.25 L 148.75 150.0 L 141.25 156.25 L 140.0 156.25 " stroke="black" fill="none" stroke-width="6.0" stroke-linecap="round" stroke-linejoin="round" />
<path d="M 181.25 63.75 L 182.5 62.5 L 183.75 57.5 L 187.5 56.25 L 191.25 56.25 L 196.25 60.0 L 202.5 68.75 L 206.25 78.75 L 207.5 81.25 " stroke="black" fill="none" stroke-width="6.0" stroke-linecap="round" stroke-linejoin="round" />
<path d="M 152.5 222.5 L 150.0 223.75 L 147.5 223.75 L 151.25 218.75 L 166.25 206.25 L 186.25 191.25 L 200.0 178.75 L 202.5 172.5 L 197.5 172.5 L 188.75 173.75 L 180.0 176.25 L 172.5 177.5 L 167.5 177.5 L 167.5 177.5 L 168.75 180.0 L 177.5 191.25 L 190.0 215.0 L 203.75 241.25 L 216.25 255.0 L 226.25 257.5 L 230.0 257.5 L 231.25 256.25 L 231.25 253.75 L 230.0 251.25 L 227.5 246.25 L 222.5 241.25 L 216.25 235.0 L 210.0 226.25 " stroke="black" fill="none" stroke-width="6.0" stroke-linecap="round" stroke-linejoin="round" />
<path d="M 220.0 178.75 L 221.25 177.5 L 221.25 175.0 L 221.25 173.75 L 213.75 186.25 L 202.5 206.25 L 186.25 232.5 L 166.25 253.75 L 153.75 256.25 L 153.75 255.0 " stroke="black" fill="none" stroke-width="6.0" stroke-linecap="round" stroke-linejoin="round" />
<path d="M 208.75 143.75 L 208.75 143.75 L 210.0 140.0 L 215.0 140.0 L 222.5 142.5 L 233.75 151.25 L 240.0 161.25 " stroke="black" fill="none" stroke-width="6.0" stroke-linecap="round" stroke-linejoin="round" />
</svg>