<svg xmlns="http://www.w3.org/2000/svg" width="300" height="300" viewBox="0 0 300 300">
<path d="M 97.5 98.75 L 97.5 97.5 L 97.5 92.5 L 97.5 91.25 L 96.25 97.5 L 90.0 130.0 L 77.5 170.0 L 63.75 196.25 L 61.25 197.5 " stroke="black" fill="none" stroke-width="6.0" stroke-linecap="round" stroke-linejoin="round" />
<path d="M 97.5 117.5 L 97.5 117.5 L 98.75 118.75 L 108.75 125.0 L 125.0 133.75 L 135.0 143.75 " stroke="black" fill="none" stroke-width="6.0" stroke-linecap="round" stroke-linejoin="round" />
<path d="M 90.0 171.25 L 88.75 171.25 L 87.5 171.25 L 88.75 172.5 L 100.0 175.0 L 111.25 180.0 L 115.0 191.25 L 107.5 203.75 L 93.75 213.75 L 83.75 215.0 L 82.5 212.5 L 88.75 200.0 L 100.0 187.5 L 112.5 181.25 L 118.75 186.25 L 116.25 206.25 L 108.75 226.25 L 103.75 235.0 L 107.5 226.25 L 121.25 197.5 L 138.75 162.5 L 145.0 145.0 " stroke="black" fill="none" stroke-width="6.0" stroke-linecap="round" stroke-linejoin="round" />
<path d="M 150.0 96.25 L 145.0 96.25 L 142.5 97.5 L 143.75 97.5 L 157.5 96.25 L 177.5 88.75 L 193.75 82.5 L 197.5 78.75 L 190.0 78.75 L 181.25 78.75 L 172.5 78.75 L 168.75 77.5 L 168.75 77.5 L 170.0 82.5 L 171.25 103.75 L 168.75 131.25 L 163.75 141.25 " stroke="black" fill="none" stroke-width="6.0" stroke-linecap="round" stroke-linejoin="round" />
<path d="M 150.0 133.75 L 150.0 132.5 L 150.0 135.0 L 153.75 148.75 L 160.0 173.75 L 163.75 191.25 L 163.75 193.75 L 158.75 187.5 L 155.0 178.75 L 153.75 166.25 L 153.75 153.75 L 153.75 146.25 L 157.5 141.25 L 170.0 136.25 L 190.0 132.5 L 205.0 131.25 L 212.5 140.0 L 211.25 156.25 L 202.5 176.25 L 188.75 191.25 L 173.75 198.75 L 167.5 198.75 " stroke="black" fill="none" stroke-width="6.0" stroke-linecap="round" stroke-linejoin="round" />
<path d="M 171.25 142.5 L 172.5 140.0 L 172.5 138.75 L 175.0 147.5 L 175.0 170.0 L 173.75 193.75 L 166.25 205.0 L 156.25 208.75 L 146.25 210.0 L 140.0 210.0 L 140.0 210.0 L 145.0 210.0 L 157.5 207.5 L 177.5 201.25 L 200.0 192.5 L 218.75 183.75 L 228.75 177.5 L 226.25 176.25 L 222.5 176.25 " stroke="black" fill="none" stroke-width="6.0" stroke-linecap="round" stroke-linejoin="round" />
<path d="M 195.0 200.0 L 190.0 208.75 L 183.75 225.0 L 175.0 245.0 L 163.75 256.25 L 153.75 258.75 L 152.5 257.5 " stroke="black" fill="none" stroke-width="6.0" stroke-linecap="round" stroke-linejoin="round" />
<path d="M 206.25 205.0 L 206.25 205.0 L 210.0 206.25 L 222.5 211.25 L 245.0 228.75 L 261.25 247.5 L 265.0 255.0 L 263.75 256.25 " stroke="black" fill="none" stroke-width="6.0" stroke-linecap="round" stroke-linejoin="round" />
</svg>