<svg xmlns="http://www.w3.org/2000/svg" width="300" height="300" viewBox="0 0 300 300">
<path d="M 80.0 105.0 L 78.75 98.75 L 77.5 95.0 L 77.5 93.75 L 77.5 102.5 L 77.5 135.0 L 77.5 178.75 L 75.0 218.75 L 75.0 235.0 L 78.75 235.0 L 80.0 222.5 L 80.0 215.0 " stroke="black" fill="none" stroke-width="6.0" stroke-linecap="round" stroke-linejoin="round" />
<path d="M 82.5 105.0 L 81.25 105.0 L 81.25 102.5 L 87.5 97.5 L 102.5 92.5 L 123.75 90.0 L 136.25 96.25 L 136.25 116.25 L 125.0 138.75 L 112.5 152.5 L 102.5 157.5 L 95.0 153.75 " stroke="black" fill="none" stroke-width="6.0" stroke-linecap="round" stroke-linejoin="round" />
<path d="M 85.0 133.75 L 82.5 133.75 L 80.0 132.5 L 82.5 131.25 L 95.0 126.25 L 113.75 117.5 L 127.5 111.25 L 126.25 111.25 " stroke="black" fill="none" stroke-width="6.0" stroke-linecap="round" stroke-linejoin="round" />
<path d="M 92.5 156.25 L 88.75 161.25 L 86.25 163.75 L 88.75 162.5 L 101.25 152.5 L 121.25 138.75 L 126.25 135.0 " stroke="black" fill="none" stroke-width="6.0" stroke-linecap="round" stroke-linejoin="round" />
<path d="M 185.0 91.25 L 183.75 91.25 L 180.0 90.0 L 177.5 95.0 L 173.75 115.0 L 173.75 138.75 L 182.5 146.25 L 196.25 143.75 L 208.75 132.5 L 216.25 120.0 L 218.75 111.25 L 215.0 108.75 L 206.25 110.0 L 197.5 113.75 L 186.25 117.5 L 176.25 122.5 L 168.75 126.25 L 165.0 127.5 L 167.5 127.5 L 180.0 121.25 L 196.25 111.25 L 210.0 101.25 L 215.0 92.5 L 215.0 91.25 " stroke="black" fill="none" stroke-width="6.0" stroke-linecap="round" stroke-linejoin="round" />
<path d="M 188.75 91.25 L 180.0 92.5 L 178.75 92.5 L 182.5 92.5 L 195.0 87.5 L 208.75 82.5 L 222.5 78.75 L 231.25 78.75 L 233.75 87.5 L 232.5 117.5 L 228.75 165.0 L 228.75 212.5 L 232.5 246.25 L 235.0 260.0 L 236.25 265.0 L 236.25 266.25 L 236.25 266.25 L 235.0 266.25 L 232.5 262.5 L 230.0 257.5 L 223.75 251.25 L 213.75 242.5 L 210.0 240.0 " stroke="black" fill="none" stroke-width="6.0" stroke-linecap="round" stroke-linejoin="round" />
<path d="M 142.5 165.0 L 141.25 163.75 L 141.25 162.5 L 140.0 162.5 L 141.25 173.75 L 141.25 200.0 L 137.5 231.25 L 132.5 247.5 L 128.75 248.75 L 128.75 238.75 L 128.75 226.25 " stroke="black" fill="none" stroke-width="6.0" stroke-linecap="round" stroke-linejoin="round" />
<path d="M 136.25 176.25 L 136.25 173.75 L 136.25 170.0 L 137.5 167.5 L 145.0 163.75 L 156.25 161.25 L 168.75 160.0 L 180.0 162.5 L 183.75 180.0 L 185.0 206.25 L 185.0 236.25 L 185.0 253.75 L 185.0 256.25 L 185.0 255.0 L 182.5 252.5 L 177.5 246.25 L 170.0 240.0 L 165.0 236.25 " stroke="black" fill="none" stroke-width="6.0" stroke-linecap="round" stroke-linejoin="round" />
<path d="M 150.0 195.0 L 148.75 195.0 L 146.25 193.75 L 146.25 192.5 L 153.75 188.75 L 168.75 182.5 L 176.25 178.75 " stroke="black" fill="none" stroke-width="6.0" stroke-linecap="round" stroke-linejoin="round" />
<path d="M 150.0 208.75 L 148.75 211.25 L 146.25 212.5 L 148.75 211.25 L 162.5 202.5 L 167.5 200.0 " stroke="black" fill="none" stroke-width="6.0" stroke-linecap="round" stroke-linejoin="round" />
</svg>