<svg xmlns="http://www.w3.org/2000/svg" width="300" height="300" viewBox="0 0 300 300">
<path d="M 77.5 86.25 L 77.5 85.0 L 77.5 82.5 L 78.75 82.5 L 80.0 105.0 L 82.5 157.5 L 82.5 208.75 L 82.5 226.25 L 82.5 228.75 " stroke="black" fill="none" stroke-width="6.0" stroke-linecap="round" stroke-linejoin="round" />
<path d="M 87.5 88.75 L 86.25 88.75 L 85.0 87.5 L 87.5 86.25 L 97.5 85.0 L 115.0 85.0 L 127.5 92.5 L 130.0 108.75 L 115.0 130.0 L 100.0 142.5 L 90.0 146.25 L 82.5 140.0 L 82.5 137.5 " stroke="black" fill="none" stroke-width="6.0" stroke-linecap="round" stroke-linejoin="round" />
<path d="M 90.0 117.5 L 90.0 117.5 L 90.0 117.5 L 91.25 116.25 L 97.5 112.5 L 110.0 105.0 L 117.5 101.25 L 112.5 103.75 L 107.5 108.75 " stroke="black" fill="none" stroke-width="6.0" stroke-linecap="round" stroke-linejoin="round" />
<path d="M 92.5 138.75 L 90.0 142.5 L 87.5 143.75 L 93.75 140.0 L 110.0 125.0 L 132.5 106.25 L 150.0 90.0 L 152.5 87.5 " stroke="black" fill="none" stroke-width="6.0" stroke-linecap="round" stroke-linejoin="round" />
<path d="M 163.75 73.75 L 163.75 73.75 L 163.75 73.75 L 163.75 75.0 L 166.25 88.75 L 177.5 106.25 L 191.25 113.75 L 201.25 110.0 L 206.25 100.0 L 206.25 92.5 L 201.25 88.75 L 190.0 88.75 L 175.0 96.25 L 163.75 103.75 L 161.25 108.75 L 172.5 105.0 L 188.75 91.25 L 202.5 76.25 L 208.75 62.5 L 205.0 57.5 L 195.0 58.75 L 192.5 58.75 " stroke="black" fill="none" stroke-width="6.0" stroke-linecap="round" stroke-linejoin="round" />
<path d="M 167.5 65.0 L 167.5 65.0 L 167.5 65.0 L 173.75 63.75 L 188.75 58.75 L 205.0 52.5 L 217.5 55.0 L 226.25 80.0 L 231.25 126.25 L 237.5 175.0 L 245.0 207.5 L 247.5 220.0 L 247.5 225.0 L 246.25 225.0 L 241.25 221.25 L 235.0 215.0 L 228.75 203.75 L 218.75 190.0 L 212.5 183.75 " stroke="black" fill="none" stroke-width="6.0" stroke-linecap="round" stroke-linejoin="round" />
<path d="M 148.75 131.25 L 146.25 131.25 L 143.75 131.25 L 142.5 131.25 L 147.5 132.5 L 161.25 132.5 L 175.0 132.5 L 178.75 133.75 " stroke="black" fill="none" stroke-width="6.0" stroke-linecap="round" stroke-linejoin="round" />
<path d="M 133.75 168.75 L 128.75 175.0 L 127.5 175.0 L 137.5 170.0 L 156.25 156.25 L 178.75 140.0 L 196.25 126.25 L 196.25 122.5 L 193.75 122.5 " stroke="black" fill="none" stroke-width="6.0" stroke-linecap="round" stroke-linejoin="round" />
<path d="M 171.25 145.0 L 171.25 148.75 L 168.75 157.5 L 166.25 176.25 L 160.0 201.25 L 151.25 220.0 L 142.5 227.5 L 133.75 227.5 L 128.75 218.75 L 128.75 203.75 L 133.75 190.0 L 138.75 175.0 L 142.5 167.5 L 145.0 166.25 L 150.0 176.25 L 163.75 193.75 L 182.5 208.75 L 200.0 220.0 L 212.5 225.0 L 217.5 228.75 " stroke="black" fill="none" stroke-width="6.0" stroke-linecap="round" stroke-linejoin="round" />
</svg>