<svg xmlns="http://www.w3.org/2000/svg" width="300" height="300" viewBox="0 0 300 300">
<path d="M 77.5 95.0 L 76.25 95.0 L 75.0 95.0 L 75.0 102.5 L 75.0 138.75 L 77.5 183.75 L 80.0 207.5 L 82.5 213.75 L 82.5 212.5 L 82.5 210.0 " stroke="black" fill="none" stroke-width="6.0" stroke-linecap="round" stroke-linejoin="round" />
<path d="M 76.25 95.0 L 76.25 95.0 L 76.25 95.0 L 77.5 95.0 L 87.5 91.25 L 107.5 88.75 L 127.5 88.75 L 135.0 96.25 L 127.5 111.25 L 111.25 130.0 L 97.5 140.0 L 91.25 140.0 " stroke="black" fill="none" stroke-width="6.0" stroke-linecap="round" stroke-linejoin="round" />
<path d="M 73.75 125.0 L 73.75 126.25 L 70.0 127.5 L 71.25 127.5 L 82.5 123.75 L 97.5 116.25 L 113.75 106.25 L 118.75 102.5 " stroke="black" fill="none" stroke-width="6.0" stroke-linecap="round" stroke-linejoin="round" />
<path d="M 78.75 148.75 L 77.5 148.75 L 76.25 150.0 L 82.5 150.0 L 102.5 141.25 L 131.25 125.0 L 137.5 121.25 " stroke="black" fill="none" stroke-width="6.0" stroke-linecap="round" stroke-linejoin="round" />
<path d="M 172.5 90.0 L 172.5 90.0 L 170.0 95.0 L 168.75 110.0 L 167.5 128.75 L 173.75 136.25 L 187.5 133.75 L 201.25 118.75 L 208.75 105.0 L 211.25 97.5 L 206.25 95.0 L 196.25 98.75 L 183.75 103.75 L 172.5 110.0 L 163.75 116.25 L 161.25 120.0 L 165.0 118.75 L 177.5 111.25 L 192.5 100.0 L 206.25 87.5 L 208.75 81.25 " stroke="black" fill="none" stroke-width="6.0" stroke-linecap="round" stroke-linejoin="round" />
<path d="M 175.0 83.75 L 173.75 83.75 L 170.0 83.75 L 170.0 83.75 L 181.25 81.25 L 197.5 78.75 L 213.75 77.5 L 226.25 85.0 L 231.25 113.75 L 231.25 161.25 L 235.0 207.5 L 238.75 246.25 L 241.25 257.5 L 242.5 260.0 L 242.5 260.0 L 237.5 256.25 L 227.5 247.5 L 215.0 232.5 L 203.75 216.25 " stroke="black" fill="none" stroke-width="6.0" stroke-linecap="round" stroke-linejoin="round" />
<path d="M 120.0 150.0 L 113.75 152.5 L 111.25 152.5 L 115.0 152.5 L 132.5 148.75 L 148.75 143.75 L 161.25 137.5 L 166.25 136.25 L 158.75 140.0 L 156.25 141.25 " stroke="black" fill="none" stroke-width="6.0" stroke-linecap="round" stroke-linejoin="round" />
<path d="M 107.5 163.75 L 105.0 165.0 L 103.75 167.5 L 103.75 173.75 L 106.25 182.5 L 113.75 196.25 L 117.5 201.25 L 117.5 202.5 " stroke="black" fill="none" stroke-width="6.0" stroke-linecap="round" stroke-linejoin="round" />
<path d="M 106.25 175.0 L 105.0 172.5 L 105.0 170.0 L 120.0 165.0 L 145.0 158.75 L 172.5 155.0 L 186.25 153.75 L 188.75 156.25 L 181.25 166.25 L 166.25 180.0 L 152.5 192.5 L 141.25 197.5 " stroke="black" fill="none" stroke-width="6.0" stroke-linecap="round" stroke-linejoin="round" />
<path d="M 130.0 175.0 L 130.0 175.0 L 126.25 175.0 L 125.0 176.25 L 127.5 183.75 L 133.75 191.25 L 135.0 192.5 " stroke="black" fill="none" stroke-width="6.0" stroke-linecap="round" stroke-linejoin="round" />
<path d="M 155.0 160.0 L 155.0 160.0 L 152.5 160.0 L 148.75 163.75 L 141.25 178.75 L 130.0 196.25 L 118.75 207.5 L 116.25 208.75 L 121.25 205.0 L 136.25 195.0 L 152.5 182.5 L 166.25 170.0 L 172.5 162.5 L 168.75 160.0 L 158.75 160.0 L 153.75 158.75 L 148.75 153.75 L 145.0 147.5 L 143.75 140.0 L 143.75 133.75 L 143.75 132.5 L 143.75 136.25 L 146.25 153.75 L 148.75 186.25 L 151.25 218.75 L 152.5 237.5 L 152.5 242.5 L 150.0 241.25 L 147.5 233.75 L 143.75 222.5 L 143.75 211.25 " stroke="black" fill="none" stroke-width="6.0" stroke-linecap="round" stroke-linejoin="round" />
<path d="M 146.25 187.5 L 145.0 188.75 L 137.5 197.5 L 128.75 208.75 L 120.0 222.5 L 111.25 230.0 L 108.75 226.25 " stroke="black" fill="none" stroke-width="6.0" stroke-linecap="round" stroke-linejoin="round" />
<path d="M 142.5 188.75 L 143.75 187.5 L 147.5 187.5 L 157.5 193.75 L 177.5 206.25 L 195.0 217.5 L 205.0 225.0 L 207.5 227.5 L 207.5 230.0 L 206.25 230.0 " stroke="black" fill="none" stroke-width="6.0" stroke-linecap="round" stroke-linejoin="round" />
</svg>