<svg xmlns="http://www.w3.org/2000/svg" width="300" height="300" viewBox="0 0 300 300">
<path d="M 71.25 91.25 L 71.25 91.25 L 67.5 101.25 L 66.25 141.25 L 67.5 187.5 L 71.25 211.25 L 73.75 213.75 L 73.75 213.75 " stroke="black" fill="none" stroke-width="6.0" stroke-linecap="round" stroke-linejoin="round" />
<path d="M 63.75 100.0 L 63.75 97.5 L 63.75 95.0 L 73.75 90.0 L 90.0 87.5 L 108.75 87.5 L 122.5 92.5 L 126.25 101.25 L 117.5 115.0 L 103.75 127.5 L 90.0 132.5 " stroke="black" fill="none" stroke-width="6.0" stroke-linecap="round" stroke-linejoin="round" />
<path d="M 75.0 116.25 L 73.75 116.25 L 73.75 117.5 L 83.75 116.25 L 98.75 108.75 L 111.25 102.5 L 111.25 100.0 " stroke="black" fill="none" stroke-width="6.0" stroke-linecap="round" stroke-linejoin="round" />
<path d="M 76.25 140.0 L 72.5 142.5 L 68.75 146.25 L 76.25 143.75 L 98.75 131.25 L 118.75 117.5 " stroke="black" fill="none" stroke-width="6.0" stroke-linecap="round" stroke-linejoin="round" />
<path d="M 166.25 82.5 L 166.25 82.5 L 163.75 87.5 L 161.25 105.0 L 163.75 127.5 L 172.5 137.5 L 190.0 133.75 L 202.5 120.0 L 210.0 108.75 L 210.0 102.5 L 203.75 102.5 L 192.5 105.0 L 177.5 110.0 L 163.75 115.0 L 153.75 120.0 L 152.5 121.25 L 155.0 120.0 L 165.0 113.75 L 180.0 105.0 L 195.0 97.5 L 203.75 90.0 L 203.75 88.75 " stroke="black" fill="none" stroke-width="6.0" stroke-linecap="round" stroke-linejoin="round" />
<path d="M 166.25 88.75 L 162.5 88.75 L 158.75 88.75 L 162.5 87.5 L 178.75 83.75 L 198.75 78.75 L 215.0 77.5 L 225.0 86.25 L 227.5 117.5 L 227.5 163.75 L 227.5 207.5 L 231.25 231.25 L 233.75 241.25 L 235.0 242.5 L 235.0 242.5 L 232.5 238.75 L 225.0 231.25 L 216.25 217.5 L 203.75 201.25 L 196.25 193.75 " stroke="black" fill="none" stroke-width="6.0" stroke-linecap="round" stroke-linejoin="round" />
<path d="M 118.75 163.75 L 117.5 163.75 L 112.5 163.75 L 110.0 163.75 L 112.5 163.75 L 130.0 157.5 L 150.0 148.75 L 167.5 142.5 L 173.75 141.25 L 170.0 141.25 " stroke="black" fill="none" stroke-width="6.0" stroke-linecap="round" stroke-linejoin="round" />
<path d="M 106.25 193.75 L 106.25 195.0 L 105.0 198.75 L 112.5 200.0 L 135.0 195.0 L 158.75 181.25 L 176.25 167.5 L 175.0 162.5 " stroke="black" fill="none" stroke-width="6.0" stroke-linecap="round" stroke-linejoin="round" />
<path d="M 131.25 166.25 L 130.0 166.25 L 128.75 170.0 L 131.25 186.25 L 135.0 210.0 L 137.5 228.75 L 138.75 231.25 " stroke="black" fill="none" stroke-width="6.0" stroke-linecap="round" stroke-linejoin="round" />
<path d="M 155.0 155.0 L 156.25 155.0 L 156.25 155.0 L 158.75 165.0 L 161.25 202.5 L 158.75 236.25 " stroke="black" fill="none" stroke-width="6.0" stroke-linecap="round" stroke-linejoin="round" />
</svg>