<svg xmlns="http://www.w3.org/2000/svg" width="300" height="300" viewBox="0 0 300 300">
<path d="M 80.0 97.5 L 78.75 97.5 L 76.25 101.25 L 76.25 120.0 L 76.25 160.0 L 76.25 195.0 L 77.5 207.5 L 77.5 211.25 L 77.5 210.0 " stroke="black" fill="none" stroke-width="6.0" stroke-linecap="round" stroke-linejoin="round" />
<path d="M 73.75 112.5 L 73.75 110.0 L 73.75 107.5 L 80.0 101.25 L 92.5 97.5 L 108.75 96.25 L 121.25 98.75 L 125.0 108.75 L 122.5 123.75 L 112.5 136.25 L 105.0 141.25 L 98.75 141.25 " stroke="black" fill="none" stroke-width="6.0" stroke-linecap="round" stroke-linejoin="round" />
<path d="M 83.75 126.25 L 81.25 127.5 L 78.75 128.75 L 80.0 128.75 L 90.0 123.75 L 105.0 116.25 L 117.5 111.25 L 118.75 111.25 " stroke="black" fill="none" stroke-width="6.0" stroke-linecap="round" stroke-linejoin="round" />
<path d="M 85.0 152.5 L 83.75 153.75 L 80.0 156.25 L 83.75 156.25 L 95.0 148.75 L 126.25 127.5 L 138.75 117.5 " stroke="black" fill="none" stroke-width="6.0" stroke-linecap="round" stroke-linejoin="round" />
<path d="M 170.0 87.5 L 170.0 87.5 L 168.75 87.5 L 166.25 97.5 L 165.0 122.5 L 167.5 143.75 L 180.0 147.5 L 197.5 138.75 L 210.0 122.5 L 215.0 110.0 L 213.75 102.5 L 202.5 103.75 L 190.0 107.5 L 175.0 113.75 L 162.5 121.25 L 156.25 126.25 L 158.75 126.25 L 168.75 121.25 L 185.0 111.25 L 201.25 100.0 L 210.0 90.0 L 211.25 85.0 " stroke="black" fill="none" stroke-width="6.0" stroke-linecap="round" stroke-linejoin="round" />
<path d="M 172.5 87.5 L 171.25 87.5 L 170.0 87.5 L 178.75 85.0 L 197.5 78.75 L 216.25 76.25 L 230.0 81.25 L 232.5 105.0 L 232.5 151.25 L 232.5 208.75 L 235.0 252.5 L 238.75 265.0 L 240.0 267.5 L 240.0 267.5 L 232.5 261.25 L 220.0 250.0 L 203.75 233.75 L 185.0 210.0 " stroke="black" fill="none" stroke-width="6.0" stroke-linecap="round" stroke-linejoin="round" />
<path d="M 143.75 170.0 L 141.25 165.0 L 138.75 162.5 L 137.5 162.5 L 137.5 170.0 L 137.5 192.5 L 138.75 212.5 L 141.25 222.5 L 141.25 220.0 L 141.25 217.5 " stroke="black" fill="none" stroke-width="6.0" stroke-linecap="round" stroke-linejoin="round" />
<path d="M 136.25 175.0 L 136.25 175.0 L 133.75 173.75 L 135.0 171.25 L 143.75 168.75 L 157.5 166.25 L 173.75 171.25 L 183.75 190.0 L 183.75 212.5 L 175.0 230.0 L 168.75 236.25 L 161.25 233.75 L 157.5 225.0 " stroke="black" fill="none" stroke-width="6.0" stroke-linecap="round" stroke-linejoin="round" />
<path d="M 140.0 197.5 L 138.75 197.5 L 133.75 198.75 L 132.5 200.0 L 140.0 198.75 L 152.5 195.0 L 166.25 188.75 L 172.5 186.25 L 172.5 186.25 " stroke="black" fill="none" stroke-width="6.0" stroke-linecap="round" stroke-linejoin="round" />
<path d="M 140.0 217.5 L 140.0 218.75 L 138.75 222.5 L 145.0 222.5 L 165.0 215.0 L 188.75 203.75 " stroke="black" fill="none" stroke-width="6.0" stroke-linecap="round" stroke-linejoin="round" />
</svg>