<svg xmlns="http://www.w3.org/2000/svg" width="300" height="300" viewBox="0 0 300 300">
<path d="M 85.0 90.0 L 82.5 87.5 L 82.5 83.75 L 82.5 83.75 L 86.25 103.75 L 90.0 148.75 L 90.0 196.25 L 87.5 217.5 L 87.5 221.25 L 87.5 211.25 L 87.5 206.25 " stroke="black" fill="none" stroke-width="6.0" stroke-linecap="round" stroke-linejoin="round" />
<path d="M 88.75 86.25 L 85.0 85.0 L 83.75 85.0 L 90.0 83.75 L 106.25 85.0 L 126.25 93.75 L 138.75 112.5 L 136.25 135.0 L 121.25 151.25 L 106.25 156.25 L 96.25 155.0 " stroke="black" fill="none" stroke-width="6.0" stroke-linecap="round" stroke-linejoin="round" />
<path d="M 90.0 125.0 L 87.5 125.0 L 87.5 125.0 L 91.25 125.0 L 107.5 120.0 L 126.25 112.5 L 136.25 108.75 L 135.0 108.75 " stroke="black" fill="none" stroke-width="6.0" stroke-linecap="round" stroke-linejoin="round" />
<path d="M 93.75 155.0 L 90.0 158.75 L 88.75 160.0 L 96.25 157.5 L 116.25 147.5 L 133.75 138.75 " stroke="black" fill="none" stroke-width="6.0" stroke-linecap="round" stroke-linejoin="round" />
<path d="M 180.0 83.75 L 178.75 83.75 L 176.25 90.0 L 171.25 117.5 L 170.0 145.0 L 178.75 150.0 L 195.0 145.0 L 211.25 130.0 L 221.25 113.75 L 225.0 103.75 L 216.25 102.5 L 203.75 106.25 L 190.0 112.5 L 172.5 117.5 L 161.25 121.25 L 156.25 122.5 L 157.5 121.25 L 168.75 116.25 L 183.75 108.75 L 201.25 100.0 L 215.0 92.5 L 217.5 87.5 " stroke="black" fill="none" stroke-width="6.0" stroke-linecap="round" stroke-linejoin="round" />
<path d="M 182.5 87.5 L 180.0 87.5 L 177.5 86.25 L 181.25 85.0 L 193.75 81.25 L 211.25 76.25 L 230.0 75.0 L 241.25 90.0 L 245.0 128.75 L 245.0 185.0 L 245.0 230.0 L 248.75 252.5 L 251.25 256.25 L 251.25 257.5 L 250.0 255.0 L 242.5 248.75 L 228.75 240.0 L 210.0 226.25 L 186.25 211.25 " stroke="black" fill="none" stroke-width="6.0" stroke-linecap="round" stroke-linejoin="round" />
</svg>