<svg xmlns="http://www.w3.org/2000/svg" width="300" height="300" viewBox="0 0 300 300">
<path d="M 115.0 100.0 L 112.5 96.25 L 111.25 91.25 L 111.25 87.5 L 111.25 85.0 L 112.5 90.0 L 113.75 112.5 L 115.0 143.75 L 115.0 165.0 L 116.25 180.0 L 117.5 180.0 L 117.5 170.0 L 117.5 152.5 " stroke="black" fill="none" stroke-width="6.0" stroke-linecap="round" stroke-linejoin="round" />
<path d="M 108.75 96.25 L 108.75 96.25 L 107.5 96.25 L 107.5 95.0 L 117.5 93.75 L 137.5 91.25 L 160.0 86.25 L 177.5 82.5 L 185.0 81.25 L 181.25 81.25 L 171.25 85.0 L 166.25 87.5 " stroke="black" fill="none" stroke-width="6.0" stroke-linecap="round" stroke-linejoin="round" />
<path d="M 117.5 126.25 L 116.25 127.5 L 113.75 128.75 L 115.0 130.0 L 125.0 128.75 L 141.25 123.75 L 157.5 115.0 L 168.75 107.5 L 170.0 106.25 L 160.0 111.25 L 148.75 120.0 " stroke="black" fill="none" stroke-width="6.0" stroke-linecap="round" stroke-linejoin="round" />
<path d="M 122.5 145.0 L 122.5 146.25 L 121.25 147.5 L 127.5 147.5 L 143.75 141.25 L 165.0 131.25 L 180.0 122.5 L 182.5 120.0 " stroke="black" fill="none" stroke-width="6.0" stroke-linecap="round" stroke-linejoin="round" />
<path d="M 70.0 190.0 L 70.0 191.25 L 80.0 191.25 L 107.5 183.75 L 145.0 171.25 L 172.5 158.75 L 187.5 152.5 L 191.25 151.25 L 181.25 150.0 L 167.5 151.25 L 150.0 156.25 L 136.25 165.0 L 123.75 177.5 L 113.75 198.75 L 112.5 228.75 L 118.75 257.5 L 132.5 271.25 L 146.25 273.75 L 160.0 265.0 L 177.5 245.0 L 193.75 222.5 L 202.5 202.5 L 205.0 191.25 L 202.5 188.75 L 196.25 188.75 L 185.0 195.0 L 168.75 206.25 L 152.5 216.25 L 141.25 225.0 L 138.75 227.5 L 138.75 227.5 L 141.25 225.0 L 142.5 222.5 L 145.0 220.0 L 145.0 218.75 L 146.25 218.75 L 146.25 217.5 L 146.25 217.5 L 146.25 217.5 L 146.25 217.5 L 146.25 217.5 L 150.0 218.75 L 162.5 223.75 L 187.5 232.5 L 212.5 238.75 L 232.5 241.25 L 246.25 241.25 L 247.5 241.25 " stroke="black" fill="none" stroke-width="6.0" stroke-linecap="round" stroke-linejoin="round" />
</svg>