<svg xmlns="http://www.w3.org/2000/svg" width="300" height="300" viewBox="0 0 300 300">
<path d="M 78.75 88.75 L 75.0 90.0 L 71.25 92.5 L 75.0 92.5 L 87.5 92.5 L 101.25 92.5 L 111.25 93.75 L 112.5 97.5 L 106.25 107.5 L 95.0 120.0 L 88.75 131.25 L 87.5 137.5 L 93.75 138.75 L 105.0 137.5 L 115.0 137.5 L 120.0 141.25 L 118.75 151.25 L 110.0 165.0 L 100.0 181.25 L 91.25 187.5 L 85.0 188.75 L 81.25 183.75 L 80.0 173.75 L 78.75 162.5 L 78.75 150.0 L 76.25 138.75 L 75.0 128.75 L 75.0 125.0 L 75.0 128.75 L 76.25 146.25 L 78.75 183.75 L 80.0 227.5 L 78.75 255.0 L 77.5 258.75 L 76.25 255.0 L 73.75 248.75 " stroke="black" fill="none" stroke-width="6.0" stroke-linecap="round" stroke-linejoin="round" />
<path d="M 183.75 76.25 L 182.5 77.5 L 178.75 83.75 L 176.25 98.75 L 175.0 121.25 L 175.0 135.0 L 175.0 135.0 L 175.0 132.5 L 177.5 128.75 L 185.0 121.25 L 195.0 111.25 L 203.75 105.0 L 210.0 98.75 L 212.5 96.25 L 207.5 96.25 L 205.0 97.5 " stroke="black" fill="none" stroke-width="6.0" stroke-linecap="round" stroke-linejoin="round" />
<path d="M 142.5 110.0 L 138.75 110.0 L 137.5 112.5 L 138.75 120.0 L 145.0 136.25 L 153.75 150.0 L 166.25 155.0 L 187.5 148.75 L 207.5 136.25 L 218.75 125.0 L 220.0 120.0 L 217.5 120.0 " stroke="black" fill="none" stroke-width="6.0" stroke-linecap="round" stroke-linejoin="round" />
<path d="M 176.25 157.5 L 176.25 157.5 L 178.75 157.5 L 180.0 157.5 L 182.5 162.5 L 185.0 177.5 L 186.25 197.5 L 185.0 208.75 L 182.5 212.5 L 180.0 212.5 L 175.0 212.5 L 166.25 212.5 L 155.0 212.5 L 146.25 212.5 L 140.0 208.75 L 138.75 202.5 L 147.5 196.25 L 162.5 191.25 L 183.75 185.0 L 206.25 178.75 L 223.75 175.0 L 232.5 176.25 L 231.25 185.0 L 220.0 202.5 L 202.5 228.75 L 181.25 256.25 L 156.25 277.5 L 138.75 288.75 L 132.5 290.0 " stroke="black" fill="none" stroke-width="6.0" stroke-linecap="round" stroke-linejoin="round" />
</svg>