<svg xmlns="http://www.w3.org/2000/svg" width="300" height="300" viewBox="0 0 300 300">
<path d="M 77.5 91.25 L 73.75 92.5 L 68.75 93.75 L 67.5 93.75 L 76.25 95.0 L 88.75 95.0 L 100.0 95.0 L 108.75 97.5 L 110.0 101.25 L 102.5 113.75 L 90.0 130.0 L 82.5 140.0 L 82.5 143.75 L 90.0 142.5 L 102.5 140.0 L 112.5 140.0 L 116.25 147.5 L 111.25 165.0 L 101.25 185.0 L 92.5 196.25 L 87.5 197.5 L 85.0 192.5 L 83.75 182.5 L 83.75 168.75 L 82.5 153.75 L 81.25 142.5 L 80.0 140.0 L 80.0 150.0 L 80.0 182.5 L 81.25 227.5 L 81.25 261.25 L 80.0 266.25 L 78.75 258.75 L 78.75 256.25 " stroke="black" fill="none" stroke-width="6.0" stroke-linecap="round" stroke-linejoin="round" />
<path d="M 155.0 71.25 L 155.0 71.25 L 157.5 71.25 L 167.5 73.75 L 182.5 80.0 L 193.75 86.25 L 196.25 91.25 L 191.25 95.0 L 186.25 96.25 " stroke="black" fill="none" stroke-width="6.0" stroke-linecap="round" stroke-linejoin="round" />
<path d="M 137.5 111.25 L 136.25 112.5 L 135.0 112.5 L 146.25 108.75 L 167.5 98.75 L 191.25 87.5 L 203.75 81.25 L 202.5 81.25 L 192.5 87.5 L 180.0 93.75 L 168.75 102.5 L 158.75 111.25 L 153.75 125.0 L 153.75 145.0 L 153.75 162.5 L 153.75 165.0 " stroke="black" fill="none" stroke-width="6.0" stroke-linecap="round" stroke-linejoin="round" />
<path d="M 181.25 106.25 L 181.25 105.0 L 182.5 103.75 L 185.0 105.0 L 185.0 118.75 L 177.5 141.25 L 166.25 160.0 L 150.0 171.25 L 133.75 178.75 L 123.75 183.75 L 122.5 183.75 L 136.25 181.25 L 157.5 172.5 L 183.75 158.75 L 206.25 146.25 L 215.0 138.75 L 212.5 138.75 L 201.25 145.0 L 187.5 153.75 L 171.25 163.75 L 155.0 178.75 L 150.0 195.0 L 152.5 215.0 L 160.0 232.5 L 166.25 241.25 L 170.0 242.5 L 170.0 242.5 L 170.0 241.25 L 167.5 236.25 L 162.5 228.75 L 156.25 220.0 L 152.5 211.25 L 148.75 206.25 L 150.0 205.0 L 160.0 201.25 L 180.0 195.0 L 201.25 188.75 L 216.25 183.75 L 220.0 185.0 L 216.25 195.0 L 205.0 210.0 L 191.25 225.0 L 176.25 238.75 L 168.75 246.25 L 172.5 246.25 L 190.0 240.0 L 208.75 227.5 L 226.25 213.75 L 235.0 205.0 L 237.5 202.5 " stroke="black" fill="none" stroke-width="6.0" stroke-linecap="round" stroke-linejoin="round" />
</svg>