<svg xmlns="http://www.w3.org/2000/svg" width="300" height="300" viewBox="0 0 300 300">
<path d="M 71.25 101.25 L 68.75 102.5 L 67.5 103.75 L 71.25 102.5 L 87.5 96.25 L 107.5 87.5 L 126.25 77.5 L 132.5 72.5 L 127.5 72.5 L 115.0 76.25 L 103.75 78.75 L 96.25 80.0 L 92.5 81.25 L 91.25 81.25 L 91.25 83.75 L 95.0 97.5 L 97.5 125.0 L 98.75 147.5 L 97.5 151.25 L 97.5 150.0 " stroke="black" fill="none" stroke-width="6.0" stroke-linecap="round" stroke-linejoin="round" />
<path d="M 97.5 103.75 L 96.25 106.25 L 88.75 118.75 L 80.0 137.5 L 67.5 156.25 L 58.75 161.25 L 53.75 158.75 " stroke="black" fill="none" stroke-width="6.0" stroke-linecap="round" stroke-linejoin="round" />
<path d="M 93.75 106.25 L 100.0 108.75 L 118.75 116.25 L 138.75 127.5 L 151.25 135.0 L 152.5 138.75 L 151.25 138.75 " stroke="black" fill="none" stroke-width="6.0" stroke-linecap="round" stroke-linejoin="round" />
<path d="M 75.0 167.5 L 72.5 168.75 L 71.25 170.0 L 76.25 170.0 L 90.0 166.25 L 106.25 160.0 L 117.5 156.25 L 121.25 153.75 L 111.25 156.25 L 98.75 162.5 " stroke="black" fill="none" stroke-width="6.0" stroke-linecap="round" stroke-linejoin="round" />
<path d="M 67.5 195.0 L 67.5 196.25 L 67.5 197.5 L 78.75 196.25 L 98.75 186.25 L 120.0 172.5 L 131.25 162.5 L 132.5 157.5 L 123.75 160.0 L 113.75 166.25 L 106.25 172.5 L 100.0 178.75 L 98.75 185.0 L 98.75 192.5 L 100.0 206.25 L 101.25 227.5 L 102.5 242.5 L 102.5 246.25 L 98.75 243.75 L 95.0 240.0 " stroke="black" fill="none" stroke-width="6.0" stroke-linecap="round" stroke-linejoin="round" />
<path d="M 68.75 206.25 L 68.75 206.25 L 66.25 210.0 L 66.25 217.5 L 68.75 231.25 L 73.75 241.25 L 77.5 243.75 " stroke="black" fill="none" stroke-width="6.0" stroke-linecap="round" stroke-linejoin="round" />
<path d="M 111.25 203.75 L 113.75 207.5 L 121.25 213.75 L 128.75 221.25 L 132.5 228.75 " stroke="black" fill="none" stroke-width="6.0" stroke-linecap="round" stroke-linejoin="round" />
<path d="M 156.25 92.5 L 156.25 92.5 L 156.25 92.5 L 161.25 91.25 L 180.0 90.0 L 206.25 88.75 L 221.25 90.0 L 223.75 92.5 L 215.0 101.25 L 198.75 112.5 L 180.0 122.5 L 158.75 132.5 L 146.25 136.25 L 146.25 137.5 L 156.25 135.0 L 176.25 128.75 L 197.5 121.25 L 213.75 116.25 L 217.5 115.0 L 213.75 117.5 L 198.75 128.75 L 180.0 141.25 L 158.75 152.5 L 148.75 155.0 L 148.75 151.25 " stroke="black" fill="none" stroke-width="6.0" stroke-linecap="round" stroke-linejoin="round" />
<path d="M 186.25 76.25 L 185.0 75.0 L 181.25 75.0 L 180.0 75.0 L 180.0 76.25 L 182.5 100.0 L 187.5 155.0 L 190.0 211.25 L 191.25 242.5 L 191.25 251.25 L 191.25 252.5 L 188.75 251.25 L 183.75 243.75 L 173.75 232.5 L 171.25 228.75 " stroke="black" fill="none" stroke-width="6.0" stroke-linecap="round" stroke-linejoin="round" />
<path d="M 140.0 183.75 L 140.0 183.75 L 137.5 183.75 L 138.75 183.75 L 146.25 183.75 L 153.75 183.75 L 158.75 183.75 L 158.75 192.5 L 147.5 207.5 L 137.5 217.5 L 133.75 217.5 " stroke="black" fill="none" stroke-width="6.0" stroke-linecap="round" stroke-linejoin="round" />
<path d="M 233.75 146.25 L 228.75 150.0 L 221.25 153.75 L 212.5 162.5 L 205.0 171.25 L 201.25 177.5 L 201.25 180.0 L 202.5 180.0 L 207.5 185.0 L 217.5 195.0 L 232.5 205.0 L 248.75 216.25 L 260.0 222.5 L 263.75 222.5 L 266.25 222.5 L 268.75 220.0 L 270.0 216.25 " stroke="black" fill="none" stroke-width="6.0" stroke-linecap="round" stroke-linejoin="round" />
</svg>