<svg xmlns="http://www.w3.org/2000/svg" width="300" height="300" viewBox="0 0 300 300">
<path d="M 103.75 71.25 L 103.75 72.5 L 102.5 73.75 L 107.5 75.0 L 128.75 73.75 L 156.25 68.75 L 181.25 62.5 L 187.5 60.0 L 186.25 60.0 " stroke="black" fill="none" stroke-width="6.0" stroke-linecap="round" stroke-linejoin="round" />
<path d="M 91.25 92.5 L 87.5 98.75 L 86.25 111.25 L 88.75 133.75 L 91.25 151.25 L 93.75 153.75 L 93.75 152.5 " stroke="black" fill="none" stroke-width="6.0" stroke-linecap="round" stroke-linejoin="round" />
<path d="M 95.0 106.25 L 95.0 106.25 L 95.0 106.25 L 106.25 106.25 L 143.75 106.25 L 188.75 98.75 L 217.5 95.0 L 227.5 96.25 L 226.25 101.25 L 212.5 111.25 L 196.25 121.25 L 177.5 128.75 L 167.5 130.0 " stroke="black" fill="none" stroke-width="6.0" stroke-linecap="round" stroke-linejoin="round" />
<path d="M 155.0 73.75 L 153.75 73.75 L 152.5 80.0 L 152.5 98.75 L 152.5 118.75 L 153.75 123.75 " stroke="black" fill="none" stroke-width="6.0" stroke-linecap="round" stroke-linejoin="round" />
<path d="M 185.0 75.0 L 183.75 75.0 L 178.75 80.0 L 171.25 95.0 L 160.0 115.0 L 148.75 130.0 L 146.25 130.0 " stroke="black" fill="none" stroke-width="6.0" stroke-linecap="round" stroke-linejoin="round" />
<path d="M 115.0 87.5 L 115.0 87.5 L 112.5 86.25 L 112.5 95.0 L 113.75 111.25 L 120.0 142.5 L 121.25 155.0 " stroke="black" fill="none" stroke-width="6.0" stroke-linecap="round" stroke-linejoin="round" />
<path d="M 115.0 135.0 L 112.5 136.25 L 110.0 146.25 L 110.0 171.25 L 113.75 197.5 L 117.5 207.5 L 120.0 207.5 L 120.0 203.75 " stroke="black" fill="none" stroke-width="6.0" stroke-linecap="round" stroke-linejoin="round" />
<path d="M 111.25 150.0 L 110.0 150.0 L 108.75 148.75 L 118.75 148.75 L 143.75 147.5 L 176.25 143.75 L 200.0 142.5 L 207.5 150.0 L 205.0 161.25 L 193.75 175.0 L 180.0 185.0 L 165.0 191.25 L 152.5 192.5 " stroke="black" fill="none" stroke-width="6.0" stroke-linecap="round" stroke-linejoin="round" />
<path d="M 113.75 180.0 L 113.75 180.0 L 112.5 180.0 L 116.25 177.5 L 136.25 172.5 L 163.75 166.25 L 185.0 162.5 L 190.0 162.5 L 176.25 170.0 L 173.75 171.25 " stroke="black" fill="none" stroke-width="6.0" stroke-linecap="round" stroke-linejoin="round" />
<path d="M 123.75 202.5 L 120.0 205.0 L 117.5 206.25 L 123.75 206.25 L 147.5 195.0 L 168.75 182.5 L 185.0 168.75 L 185.0 166.25 " stroke="black" fill="none" stroke-width="6.0" stroke-linecap="round" stroke-linejoin="round" />
<path d="M 147.5 150.0 L 145.0 150.0 L 142.5 153.75 L 141.25 172.5 L 145.0 203.75 L 153.75 225.0 L 168.75 237.5 L 191.25 242.5 L 210.0 242.5 L 226.25 240.0 L 238.75 237.5 L 241.25 236.25 L 242.5 232.5 L 242.5 223.75 L 241.25 208.75 L 240.0 186.25 L 237.5 155.0 " stroke="black" fill="none" stroke-width="6.0" stroke-linecap="round" stroke-linejoin="round" />
</svg>