<svg xmlns="http://www.w3.org/2000/svg" width="300" height="300" viewBox="0 0 300 300">
<path d="M 102.5 80.0 L 102.5 80.0 L 102.5 80.0 L 113.75 80.0 L 137.5 78.75 L 160.0 76.25 L 171.25 73.75 L 170.0 73.75 L 162.5 75.0 " stroke="black" fill="none" stroke-width="6.0" stroke-linecap="round" stroke-linejoin="round" />
<path d="M 82.5 98.75 L 81.25 100.0 L 76.25 107.5 L 76.25 127.5 L 76.25 150.0 L 76.25 162.5 L 76.25 165.0 L 76.25 163.75 " stroke="black" fill="none" stroke-width="6.0" stroke-linecap="round" stroke-linejoin="round" />
<path d="M 82.5 121.25 L 82.5 120.0 L 86.25 117.5 L 101.25 116.25 L 152.5 111.25 L 190.0 105.0 L 212.5 105.0 L 215.0 108.75 L 208.75 117.5 L 192.5 127.5 L 171.25 135.0 L 150.0 141.25 L 141.25 141.25 " stroke="black" fill="none" stroke-width="6.0" stroke-linecap="round" stroke-linejoin="round" />
<path d="M 142.5 96.25 L 142.5 95.0 L 142.5 93.75 L 142.5 95.0 L 142.5 111.25 L 142.5 131.25 L 142.5 143.75 L 142.5 143.75 " stroke="black" fill="none" stroke-width="6.0" stroke-linecap="round" stroke-linejoin="round" />
<path d="M 167.5 90.0 L 167.5 88.75 L 167.5 87.5 L 165.0 97.5 L 156.25 115.0 L 145.0 135.0 L 135.0 141.25 " stroke="black" fill="none" stroke-width="6.0" stroke-linecap="round" stroke-linejoin="round" />
<path d="M 111.25 101.25 L 111.25 100.0 L 110.0 100.0 L 110.0 116.25 L 116.25 145.0 L 123.75 162.5 " stroke="black" fill="none" stroke-width="6.0" stroke-linecap="round" stroke-linejoin="round" />
<path d="M 126.25 183.75 L 120.0 183.75 L 118.75 183.75 L 130.0 183.75 L 153.75 182.5 L 181.25 183.75 L 200.0 192.5 L 201.25 206.25 L 187.5 223.75 L 168.75 237.5 L 151.25 245.0 L 137.5 246.25 L 130.0 246.25 " stroke="black" fill="none" stroke-width="6.0" stroke-linecap="round" stroke-linejoin="round" />
<path d="M 106.25 220.0 L 98.75 220.0 L 95.0 220.0 L 96.25 221.25 L 112.5 222.5 L 138.75 221.25 L 166.25 217.5 L 187.5 215.0 L 188.75 215.0 L 185.0 216.25 " stroke="black" fill="none" stroke-width="6.0" stroke-linecap="round" stroke-linejoin="round" />
<path d="M 106.25 250.0 L 106.25 251.25 L 108.75 251.25 L 130.0 250.0 L 163.75 242.5 L 182.5 237.5 " stroke="black" fill="none" stroke-width="6.0" stroke-linecap="round" stroke-linejoin="round" />
</svg>