<svg xmlns="http://www.w3.org/2000/svg" width="300" height="300" viewBox="0 0 300 300">
<path d="M 76.25 83.75 L 73.75 83.75 L 72.5 85.0 L 75.0 85.0 L 87.5 85.0 L 105.0 78.75 L 122.5 72.5 L 131.25 67.5 L 131.25 66.25 " stroke="black" fill="none" stroke-width="6.0" stroke-linecap="round" stroke-linejoin="round" />
<path d="M 81.25 90.0 L 80.0 91.25 L 76.25 98.75 L 76.25 107.5 L 77.5 120.0 L 80.0 127.5 L 80.0 128.75 " stroke="black" fill="none" stroke-width="6.0" stroke-linecap="round" stroke-linejoin="round" />
<path d="M 95.0 92.5 L 95.0 92.5 L 95.0 95.0 L 93.75 100.0 L 93.75 105.0 L 93.75 113.75 L 93.75 115.0 " stroke="black" fill="none" stroke-width="6.0" stroke-linecap="round" stroke-linejoin="round" />
<path d="M 116.25 83.75 L 117.5 83.75 L 117.5 86.25 L 113.75 93.75 L 107.5 106.25 L 96.25 130.0 " stroke="black" fill="none" stroke-width="6.0" stroke-linecap="round" stroke-linejoin="round" />
<path d="M 93.75 130.0 L 93.75 130.0 L 91.25 135.0 L 88.75 141.25 L 86.25 150.0 L 83.75 157.5 L 83.75 158.75 L 87.5 158.75 L 96.25 151.25 L 108.75 142.5 L 120.0 135.0 L 127.5 131.25 L 128.75 131.25 L 117.5 142.5 L 105.0 156.25 L 93.75 168.75 L 86.25 178.75 L 86.25 181.25 L 93.75 177.5 L 105.0 168.75 L 118.75 161.25 L 130.0 156.25 L 137.5 153.75 L 138.75 155.0 L 128.75 162.5 L 117.5 173.75 L 102.5 185.0 L 87.5 198.75 L 72.5 211.25 L 65.0 218.75 L 70.0 218.75 L 85.0 213.75 L 103.75 203.75 L 123.75 193.75 L 141.25 183.75 L 148.75 177.5 L 146.25 176.25 " stroke="black" fill="none" stroke-width="6.0" stroke-linecap="round" stroke-linejoin="round" />
<path d="M 116.25 182.5 L 113.75 186.25 L 108.75 195.0 L 102.5 208.75 L 95.0 228.75 L 86.25 243.75 L 78.75 247.5 L 75.0 241.25 " stroke="black" fill="none" stroke-width="6.0" stroke-linecap="round" stroke-linejoin="round" />
<path d="M 110.0 198.75 L 116.25 198.75 L 125.0 203.75 L 141.25 221.25 L 152.5 237.5 L 160.0 245.0 L 162.5 247.5 L 162.5 247.5 L 161.25 247.5 " stroke="black" fill="none" stroke-width="6.0" stroke-linecap="round" stroke-linejoin="round" />
<path d="M 182.5 78.75 L 180.0 77.5 L 173.75 83.75 L 162.5 100.0 L 152.5 121.25 L 147.5 132.5 L 146.25 132.5 L 150.0 122.5 L 155.0 112.5 L 162.5 103.75 L 167.5 100.0 L 172.5 105.0 L 176.25 136.25 L 177.5 181.25 L 172.5 216.25 L 167.5 236.25 L 163.75 241.25 L 161.25 236.25 " stroke="black" fill="none" stroke-width="6.0" stroke-linecap="round" stroke-linejoin="round" />
<path d="M 193.75 95.0 L 193.75 95.0 L 193.75 92.5 L 196.25 92.5 L 205.0 92.5 L 217.5 92.5 L 227.5 92.5 L 231.25 92.5 L 230.0 93.75 " stroke="black" fill="none" stroke-width="6.0" stroke-linecap="round" stroke-linejoin="round" />
<path d="M 191.25 125.0 L 190.0 126.25 L 186.25 128.75 L 186.25 130.0 L 195.0 127.5 L 206.25 120.0 L 218.75 111.25 L 226.25 103.75 L 226.25 102.5 " stroke="black" fill="none" stroke-width="6.0" stroke-linecap="round" stroke-linejoin="round" />
<path d="M 186.25 163.75 L 183.75 168.75 L 183.75 170.0 L 193.75 166.25 L 207.5 155.0 L 220.0 143.75 L 228.75 135.0 L 228.75 133.75 " stroke="black" fill="none" stroke-width="6.0" stroke-linecap="round" stroke-linejoin="round" />
<path d="M 192.5 186.25 L 192.5 187.5 L 195.0 187.5 L 206.25 177.5 L 222.5 160.0 L 232.5 145.0 L 232.5 141.25 " stroke="black" fill="none" stroke-width="6.0" stroke-linecap="round" stroke-linejoin="round" />
<path d="M 210.0 130.0 L 210.0 128.75 L 211.25 131.25 L 211.25 147.5 L 211.25 178.75 L 210.0 201.25 L 208.75 211.25 L 206.25 213.75 L 202.5 213.75 L 196.25 216.25 L 191.25 218.75 L 188.75 221.25 L 187.5 222.5 L 187.5 222.5 L 187.5 222.5 L 192.5 221.25 L 198.75 218.75 L 207.5 216.25 L 221.25 213.75 L 237.5 211.25 L 250.0 208.75 L 255.0 207.5 L 255.0 206.25 L 253.75 206.25 " stroke="black" fill="none" stroke-width="6.0" stroke-linecap="round" stroke-linejoin="round" />
</svg>