<svg xmlns="http://www.w3.org/2000/svg" width="300" height="300" viewBox="0 0 300 300">
<path d="M 73.75 105.0 L 70.0 105.0 L 63.75 106.25 L 62.5 106.25 L 72.5 106.25 L 87.5 106.25 L 101.25 105.0 L 111.25 105.0 L 111.25 110.0 L 101.25 123.75 L 91.25 137.5 L 87.5 143.75 L 88.75 145.0 L 98.75 145.0 L 108.75 145.0 L 117.5 147.5 L 120.0 157.5 L 115.0 172.5 L 106.25 186.25 L 97.5 195.0 L 92.5 197.5 L 90.0 195.0 L 87.5 187.5 L 85.0 176.25 L 81.25 165.0 L 77.5 153.75 L 76.25 148.75 L 75.0 147.5 L 75.0 152.5 L 76.25 175.0 L 78.75 210.0 L 80.0 250.0 L 80.0 275.0 L 78.75 280.0 L 77.5 277.5 L 75.0 263.75 L 72.5 256.25 " stroke="black" fill="none" stroke-width="6.0" stroke-linecap="round" stroke-linejoin="round" />
<path d="M 155.0 87.5 L 155.0 87.5 L 155.0 87.5 L 161.25 87.5 L 180.0 88.75 L 198.75 93.75 L 206.25 100.0 L 206.25 107.5 L 195.0 122.5 L 181.25 137.5 L 165.0 147.5 L 148.75 153.75 L 142.5 152.5 L 142.5 148.75 L 143.75 145.0 L 146.25 143.75 L 152.5 140.0 L 162.5 136.25 L 176.25 131.25 L 188.75 127.5 L 192.5 127.5 L 188.75 131.25 " stroke="black" fill="none" stroke-width="6.0" stroke-linecap="round" stroke-linejoin="round" />
<path d="M 142.5 186.25 L 141.25 187.5 L 137.5 192.5 L 140.0 191.25 L 152.5 178.75 L 172.5 157.5 L 190.0 135.0 L 192.5 122.5 L 180.0 120.0 L 167.5 118.75 L 163.75 118.75 " stroke="black" fill="none" stroke-width="6.0" stroke-linecap="round" stroke-linejoin="round" />
<path d="M 146.25 111.25 L 146.25 112.5 L 143.75 117.5 L 142.5 143.75 L 142.5 193.75 L 142.5 232.5 L 147.5 250.0 L 156.25 253.75 L 168.75 251.25 L 188.75 237.5 L 205.0 213.75 L 216.25 192.5 L 223.75 177.5 L 223.75 170.0 L 218.75 168.75 L 211.25 171.25 L 200.0 177.5 L 188.75 186.25 L 177.5 193.75 L 168.75 198.75 L 167.5 198.75 L 168.75 198.75 L 170.0 197.5 L 171.25 197.5 L 172.5 196.25 L 172.5 196.25 L 172.5 196.25 L 172.5 196.25 L 172.5 196.25 L 172.5 196.25 L 172.5 196.25 L 172.5 196.25 L 180.0 201.25 L 200.0 215.0 L 223.75 232.5 L 238.75 242.5 L 250.0 245.0 " stroke="black" fill="none" stroke-width="6.0" stroke-linecap="round" stroke-linejoin="round" />
</svg>