<svg xmlns="http://www.w3.org/2000/svg" width="300" height="300" viewBox="0 0 300 300">
<path d="M 110.0 103.75 L 103.75 103.75 L 98.75 103.75 L 100.0 103.75 L 116.25 105.0 L 142.5 105.0 L 171.25 100.0 L 188.75 93.75 L 195.0 91.25 L 187.5 92.5 " stroke="black" fill="none" stroke-width="6.0" stroke-linecap="round" stroke-linejoin="round" />
<path d="M 78.75 161.25 L 78.75 162.5 L 75.0 173.75 L 81.25 195.0 L 91.25 223.75 L 98.75 247.5 L 105.0 258.75 L 106.25 260.0 L 105.0 252.5 " stroke="black" fill="none" stroke-width="6.0" stroke-linecap="round" stroke-linejoin="round" />
<path d="M 95.0 198.75 L 91.25 196.25 L 90.0 195.0 L 98.75 191.25 L 126.25 183.75 L 155.0 173.75 L 207.5 161.25 L 231.25 162.5 L 241.25 180.0 L 238.75 206.25 L 225.0 231.25 L 212.5 245.0 L 202.5 250.0 L 192.5 248.75 L 183.75 236.25 L 176.25 221.25 " stroke="black" fill="none" stroke-width="6.0" stroke-linecap="round" stroke-linejoin="round" />
<path d="M 158.75 126.25 L 157.5 123.75 L 155.0 125.0 L 155.0 145.0 L 155.0 185.0 L 153.75 216.25 L 155.0 223.75 L 155.0 221.25 " stroke="black" fill="none" stroke-width="6.0" stroke-linecap="round" stroke-linejoin="round" />
<path d="M 202.5 135.0 L 202.5 135.0 L 202.5 143.75 L 195.0 170.0 L 177.5 201.25 L 160.0 215.0 L 142.5 216.25 " stroke="black" fill="none" stroke-width="6.0" stroke-linecap="round" stroke-linejoin="round" />
<path d="M 108.75 163.75 L 108.75 162.5 L 107.5 160.0 L 110.0 165.0 L 120.0 192.5 L 135.0 228.75 L 146.25 248.75 " stroke="black" fill="none" stroke-width="6.0" stroke-linecap="round" stroke-linejoin="round" />
</svg>