<svg xmlns="http://www.w3.org/2000/svg" width="300" height="300" viewBox="0 0 300 300">
<path d="M 107.5 80.0 L 106.25 78.75 L 106.25 76.25 L 116.25 72.5 L 135.0 67.5 L 152.5 61.25 L 160.0 57.5 L 155.0 57.5 L 148.75 61.25 " stroke="black" fill="none" stroke-width="6.0" stroke-linecap="round" stroke-linejoin="round" />
<path d="M 82.5 100.0 L 80.0 103.75 L 81.25 117.5 L 91.25 136.25 L 101.25 150.0 L 115.0 162.5 L 120.0 165.0 L 118.75 165.0 L 112.5 161.25 L 105.0 156.25 L 98.75 151.25 L 93.75 143.75 L 92.5 137.5 L 100.0 128.75 L 125.0 115.0 L 157.5 101.25 L 186.25 93.75 L 201.25 95.0 L 202.5 103.75 L 192.5 118.75 L 176.25 133.75 L 160.0 142.5 L 146.25 145.0 L 142.5 137.5 " stroke="black" fill="none" stroke-width="6.0" stroke-linecap="round" stroke-linejoin="round" />
<path d="M 152.5 76.25 L 152.5 75.0 L 152.5 73.75 L 152.5 78.75 L 152.5 93.75 L 152.5 130.0 L 152.5 150.0 L 151.25 155.0 L 151.25 151.25 " stroke="black" fill="none" stroke-width="6.0" stroke-linecap="round" stroke-linejoin="round" />
<path d="M 178.75 82.5 L 180.0 81.25 L 180.0 80.0 L 178.75 86.25 L 171.25 103.75 L 160.0 126.25 L 148.75 137.5 L 140.0 137.5 " stroke="black" fill="none" stroke-width="6.0" stroke-linecap="round" stroke-linejoin="round" />
<path d="M 123.75 105.0 L 121.25 103.75 L 121.25 103.75 L 125.0 116.25 L 133.75 132.5 L 142.5 147.5 L 145.0 152.5 " stroke="black" fill="none" stroke-width="6.0" stroke-linecap="round" stroke-linejoin="round" />
<path d="M 151.25 136.25 L 146.25 142.5 L 135.0 161.25 L 117.5 200.0 L 100.0 237.5 L 86.25 265.0 L 77.5 276.25 L 73.75 272.5 L 72.5 261.25 " stroke="black" fill="none" stroke-width="6.0" stroke-linecap="round" stroke-linejoin="round" />
<path d="M 152.5 145.0 L 156.25 145.0 L 171.25 150.0 L 196.25 156.25 L 216.25 162.5 L 235.0 171.25 L 246.25 178.75 L 242.5 186.25 L 238.75 187.5 " stroke="black" fill="none" stroke-width="6.0" stroke-linecap="round" stroke-linejoin="round" />
<path d="M 150.0 175.0 L 147.5 177.5 L 147.5 178.75 L 153.75 182.5 L 167.5 186.25 L 180.0 190.0 L 186.25 191.25 L 183.75 195.0 L 171.25 201.25 L 157.5 207.5 L 148.75 211.25 L 147.5 211.25 L 151.25 210.0 L 163.75 207.5 L 177.5 206.25 L 188.75 206.25 L 192.5 210.0 L 187.5 217.5 L 175.0 227.5 L 158.75 235.0 L 146.25 237.5 L 141.25 238.75 L 142.5 238.75 L 153.75 241.25 L 173.75 243.75 L 197.5 247.5 L 217.5 248.75 L 221.25 248.75 " stroke="black" fill="none" stroke-width="6.0" stroke-linecap="round" stroke-linejoin="round" />
</svg>