<svg xmlns="http://www.w3.org/2000/svg" width="300" height="300" viewBox="0 0 300 300">
<path d="M 90.0 142.5 L 86.25 145.0 L 85.0 146.25 L 93.75 141.25 L 116.25 128.75 L 141.25 111.25 L 152.5 105.0 L 151.25 111.25 L 141.25 136.25 L 128.75 163.75 L 112.5 196.25 L 101.25 212.5 L 98.75 208.75 L 98.75 201.25 " stroke="black" fill="none" stroke-width="6.0" stroke-linecap="round" stroke-linejoin="round" />
<path d="M 101.25 142.5 L 101.25 142.5 L 101.25 143.75 L 108.75 158.75 L 125.0 187.5 L 145.0 203.75 L 157.5 206.25 L 161.25 197.5 " stroke="black" fill="none" stroke-width="6.0" stroke-linecap="round" stroke-linejoin="round" />
<path d="M 173.75 111.25 L 172.5 111.25 L 172.5 111.25 L 182.5 108.75 L 198.75 102.5 L 211.25 100.0 L 213.75 105.0 L 206.25 131.25 L 191.25 167.5 L 173.75 195.0 L 163.75 205.0 L 156.25 205.0 L 155.0 202.5 " stroke="black" fill="none" stroke-width="6.0" stroke-linecap="round" stroke-linejoin="round" />
<path d="M 157.5 130.0 L 157.5 130.0 L 157.5 132.5 L 170.0 148.75 L 192.5 180.0 L 215.0 206.25 L 237.5 221.25 L 255.0 227.5 L 262.5 226.25 " stroke="black" fill="none" stroke-width="6.0" stroke-linecap="round" stroke-linejoin="round" />
</svg>