<svg xmlns="http://www.w3.org/2000/svg" width="300" height="300" viewBox="0 0 300 300">
<path d="M 60.0 91.25 L 53.75 92.5 L 50.0 93.75 L 53.75 93.75 L 71.25 93.75 L 90.0 90.0 L 102.5 88.75 L 106.25 90.0 L 101.25 100.0 L 90.0 115.0 L 82.5 126.25 L 81.25 131.25 L 87.5 132.5 L 98.75 130.0 L 110.0 128.75 L 116.25 132.5 L 113.75 142.5 L 103.75 156.25 L 93.75 168.75 L 87.5 176.25 L 83.75 177.5 L 81.25 171.25 L 80.0 162.5 L 76.25 152.5 L 71.25 143.75 L 67.5 137.5 L 65.0 132.5 L 63.75 126.25 L 62.5 122.5 L 61.25 120.0 L 61.25 120.0 L 62.5 125.0 L 66.25 145.0 L 67.5 177.5 L 66.25 210.0 L 63.75 231.25 L 61.25 238.75 L 57.5 237.5 " stroke="black" fill="none" stroke-width="6.0" stroke-linecap="round" stroke-linejoin="round" />
<path d="M 140.0 80.0 L 136.25 80.0 L 133.75 87.5 L 133.75 110.0 L 136.25 131.25 L 145.0 137.5 L 156.25 132.5 L 167.5 117.5 L 172.5 105.0 L 171.25 98.75 L 161.25 97.5 L 148.75 101.25 L 137.5 106.25 L 131.25 108.75 L 126.25 111.25 L 127.5 112.5 L 140.0 107.5 L 156.25 97.5 L 177.5 86.25 L 182.5 83.75 " stroke="black" fill="none" stroke-width="6.0" stroke-linecap="round" stroke-linejoin="round" />
<path d="M 198.75 88.75 L 198.75 88.75 L 198.75 88.75 L 201.25 86.25 L 208.75 81.25 L 213.75 77.5 L 212.5 75.0 " stroke="black" fill="none" stroke-width="6.0" stroke-linecap="round" stroke-linejoin="round" />
<path d="M 181.25 70.0 L 180.0 70.0 L 180.0 70.0 L 183.75 82.5 L 196.25 105.0 L 211.25 120.0 L 225.0 118.75 L 237.5 106.25 L 242.5 95.0 L 242.5 92.5 " stroke="black" fill="none" stroke-width="6.0" stroke-linecap="round" stroke-linejoin="round" />
<path d="M 143.75 175.0 L 142.5 175.0 L 141.25 175.0 L 145.0 175.0 L 163.75 165.0 L 191.25 148.75 L 207.5 136.25 L 210.0 132.5 L 202.5 135.0 L 191.25 142.5 L 178.75 152.5 L 168.75 167.5 L 166.25 195.0 L 168.75 231.25 L 172.5 251.25 L 175.0 255.0 L 175.0 255.0 L 175.0 248.75 L 171.25 240.0 L 170.0 237.5 " stroke="black" fill="none" stroke-width="6.0" stroke-linecap="round" stroke-linejoin="round" />
<path d="M 171.25 181.25 L 171.25 181.25 L 176.25 180.0 L 188.75 177.5 L 206.25 178.75 L 216.25 193.75 L 218.75 215.0 L 213.75 233.75 L 208.75 245.0 L 202.5 248.75 L 200.0 250.0 " stroke="black" fill="none" stroke-width="6.0" stroke-linecap="round" stroke-linejoin="round" />
<path d="M 171.25 212.5 L 168.75 212.5 L 167.5 212.5 L 172.5 210.0 L 190.0 202.5 L 207.5 193.75 L 216.25 188.75 L 216.25 188.75 " stroke="black" fill="none" stroke-width="6.0" stroke-linecap="round" stroke-linejoin="round" />
<path d="M 177.5 243.75 L 173.75 248.75 L 173.75 252.5 L 187.5 250.0 L 205.0 241.25 L 211.25 235.0 " stroke="black" fill="none" stroke-width="6.0" stroke-linecap="round" stroke-linejoin="round" />
</svg>