<svg xmlns="http://www.w3.org/2000/svg" width="300" height="300" viewBox="0 0 300 300">
<path d="M 78.75 102.5 L 76.25 103.75 L 70.0 105.0 L 67.5 106.25 L 70.0 106.25 L 82.5 103.75 L 98.75 100.0 L 112.5 97.5 L 118.75 97.5 L 117.5 103.75 L 105.0 116.25 L 95.0 130.0 L 91.25 138.75 L 92.5 141.25 L 100.0 140.0 L 110.0 138.75 L 118.75 138.75 L 121.25 146.25 L 118.75 161.25 L 110.0 181.25 L 102.5 193.75 L 97.5 198.75 L 95.0 197.5 L 92.5 192.5 L 91.25 185.0 L 88.75 176.25 L 83.75 166.25 L 78.75 157.5 L 75.0 151.25 L 73.75 148.75 L 73.75 151.25 L 76.25 172.5 L 80.0 202.5 L 80.0 233.75 L 80.0 248.75 L 77.5 250.0 " stroke="black" fill="none" stroke-width="6.0" stroke-linecap="round" stroke-linejoin="round" />
<path d="M 155.0 93.75 L 153.75 95.0 L 155.0 96.25 L 165.0 96.25 L 181.25 93.75 L 197.5 91.25 L 206.25 88.75 L 206.25 88.75 L 200.0 92.5 " stroke="black" fill="none" stroke-width="6.0" stroke-linecap="round" stroke-linejoin="round" />
<path d="M 147.5 152.5 L 147.5 153.75 L 146.25 158.75 L 150.0 158.75 L 166.25 152.5 L 190.0 138.75 L 208.75 125.0 L 212.5 115.0 L 205.0 115.0 " stroke="black" fill="none" stroke-width="6.0" stroke-linecap="round" stroke-linejoin="round" />
<path d="M 162.5 153.75 L 156.25 173.75 L 156.25 196.25 L 157.5 215.0 L 160.0 223.75 L 161.25 221.25 L 161.25 217.5 " stroke="black" fill="none" stroke-width="6.0" stroke-linecap="round" stroke-linejoin="round" />
<path d="M 190.0 147.5 L 190.0 151.25 L 192.5 165.0 L 198.75 191.25 L 207.5 215.0 L 220.0 230.0 L 233.75 235.0 L 245.0 236.25 L 252.5 236.25 L 253.75 236.25 L 253.75 236.25 L 253.75 236.25 L 253.75 236.25 L 253.75 235.0 L 253.75 223.75 L 257.5 200.0 L 261.25 156.25 " stroke="black" fill="none" stroke-width="6.0" stroke-linecap="round" stroke-linejoin="round" />
</svg>