<svg xmlns="http://www.w3.org/2000/svg" width="300" height="300" viewBox="0 0 300 300">
<path d="M 67.5 101.25 L 67.5 102.5 L 68.75 110.0 L 68.75 147.5 L 66.25 187.5 L 62.5 208.75 L 53.75 212.5 " stroke="black" fill="none" stroke-width="6.0" stroke-linecap="round" stroke-linejoin="round" />
<path d="M 77.5 103.75 L 78.75 102.5 L 80.0 101.25 L 91.25 98.75 L 110.0 95.0 L 131.25 95.0 L 142.5 110.0 L 146.25 146.25 L 146.25 187.5 L 146.25 217.5 L 147.5 237.5 L 148.75 240.0 L 148.75 238.75 L 147.5 232.5 L 141.25 218.75 L 132.5 203.75 L 123.75 191.25 " stroke="black" fill="none" stroke-width="6.0" stroke-linecap="round" stroke-linejoin="round" />
<path d="M 92.5 140.0 L 91.25 140.0 L 85.0 140.0 L 82.5 140.0 L 86.25 137.5 L 101.25 130.0 L 118.75 120.0 L 125.0 116.25 L 125.0 116.25 " stroke="black" fill="none" stroke-width="6.0" stroke-linecap="round" stroke-linejoin="round" />
<path d="M 80.0 163.75 L 77.5 165.0 L 77.5 165.0 L 87.5 158.75 L 105.0 145.0 L 122.5 130.0 L 126.25 123.75 L 116.25 123.75 L 106.25 125.0 L 98.75 125.0 L 96.25 121.25 L 96.25 120.0 L 96.25 123.75 L 97.5 142.5 L 97.5 167.5 L 97.5 186.25 L 96.25 188.75 " stroke="black" fill="none" stroke-width="6.0" stroke-linecap="round" stroke-linejoin="round" />
<path d="M 78.75 182.5 L 77.5 182.5 L 76.25 182.5 L 77.5 185.0 L 87.5 192.5 L 98.75 200.0 L 106.25 202.5 L 108.75 203.75 L 105.0 201.25 L 96.25 197.5 L 91.25 193.75 L 88.75 190.0 L 95.0 183.75 L 115.0 172.5 L 133.75 167.5 L 137.5 171.25 L 122.5 188.75 L 105.0 202.5 L 92.5 208.75 L 92.5 203.75 " stroke="black" fill="none" stroke-width="6.0" stroke-linecap="round" stroke-linejoin="round" />
<path d="M 170.0 82.5 L 167.5 82.5 L 161.25 91.25 L 153.75 116.25 L 151.25 136.25 L 151.25 140.0 L 153.75 130.0 L 160.0 115.0 L 168.75 102.5 L 175.0 95.0 L 176.25 98.75 L 176.25 128.75 L 176.25 176.25 L 175.0 213.75 L 175.0 232.5 L 172.5 237.5 L 168.75 233.75 " stroke="black" fill="none" stroke-width="6.0" stroke-linecap="round" stroke-linejoin="round" />
<path d="M 187.5 93.75 L 187.5 93.75 L 187.5 93.75 L 192.5 93.75 L 201.25 96.25 L 211.25 98.75 L 216.25 102.5 L 216.25 103.75 " stroke="black" fill="none" stroke-width="6.0" stroke-linecap="round" stroke-linejoin="round" />
<path d="M 180.0 130.0 L 175.0 131.25 L 176.25 132.5 L 185.0 131.25 L 207.5 120.0 L 225.0 107.5 L 235.0 100.0 L 225.0 103.75 " stroke="black" fill="none" stroke-width="6.0" stroke-linecap="round" stroke-linejoin="round" />
<path d="M 181.25 168.75 L 180.0 170.0 L 180.0 171.25 L 190.0 168.75 L 206.25 157.5 L 225.0 142.5 L 237.5 130.0 L 236.25 127.5 " stroke="black" fill="none" stroke-width="6.0" stroke-linecap="round" stroke-linejoin="round" />
<path d="M 210.0 128.75 L 210.0 128.75 L 210.0 128.75 L 211.25 137.5 L 211.25 170.0 L 210.0 198.75 L 208.75 208.75 L 207.5 208.75 L 203.75 203.75 L 201.25 200.0 " stroke="black" fill="none" stroke-width="6.0" stroke-linecap="round" stroke-linejoin="round" />
<path d="M 191.25 193.75 L 188.75 195.0 L 186.25 195.0 L 187.5 195.0 L 198.75 190.0 L 218.75 178.75 L 237.5 163.75 L 248.75 153.75 L 243.75 156.25 L 228.75 171.25 L 212.5 188.75 L 200.0 206.25 L 197.5 216.25 L 200.0 216.25 L 211.25 208.75 L 225.0 198.75 L 240.0 186.25 L 248.75 177.5 " stroke="black" fill="none" stroke-width="6.0" stroke-linecap="round" stroke-linejoin="round" />
</svg>