<svg xmlns="http://www.w3.org/2000/svg" width="300" height="300" viewBox="0 0 300 300">
<path d="M 108.75 66.25 L 107.5 67.5 L 103.75 68.75 L 102.5 70.0 L 110.0 72.5 L 125.0 72.5 L 140.0 68.75 L 150.0 65.0 L 152.5 62.5 L 150.0 62.5 " stroke="black" fill="none" stroke-width="6.0" stroke-linecap="round" stroke-linejoin="round" />
<path d="M 112.5 88.75 L 112.5 92.5 L 110.0 102.5 L 107.5 127.5 L 106.25 160.0 L 106.25 183.75 L 110.0 192.5 L 110.0 190.0 L 111.25 186.25 " stroke="black" fill="none" stroke-width="6.0" stroke-linecap="round" stroke-linejoin="round" />
<path d="M 110.0 101.25 L 110.0 100.0 L 110.0 98.75 L 117.5 96.25 L 135.0 95.0 L 152.5 95.0 L 162.5 96.25 L 163.75 100.0 L 155.0 107.5 L 143.75 115.0 L 128.75 123.75 L 115.0 130.0 L 103.75 135.0 L 103.75 135.0 L 112.5 133.75 L 130.0 127.5 L 148.75 120.0 L 161.25 113.75 L 165.0 112.5 L 162.5 113.75 L 153.75 122.5 L 143.75 132.5 L 131.25 142.5 L 117.5 150.0 L 106.25 157.5 L 103.75 161.25 L 108.75 161.25 L 125.0 157.5 L 143.75 151.25 L 161.25 146.25 L 171.25 143.75 L 172.5 145.0 L 161.25 155.0 L 146.25 167.5 L 127.5 181.25 L 111.25 190.0 L 106.25 193.75 L 108.75 193.75 L 123.75 192.5 L 141.25 185.0 L 155.0 176.25 L 162.5 170.0 L 161.25 167.5 L 155.0 168.75 " stroke="black" fill="none" stroke-width="6.0" stroke-linecap="round" stroke-linejoin="round" />
<path d="M 58.75 233.75 L 58.75 233.75 L 55.0 237.5 L 56.25 240.0 L 72.5 238.75 L 102.5 233.75 L 148.75 228.75 L 186.25 227.5 L 207.5 225.0 L 210.0 222.5 L 207.5 220.0 L 198.75 216.25 L 192.5 213.75 " stroke="black" fill="none" stroke-width="6.0" stroke-linecap="round" stroke-linejoin="round" />
<path d="M 147.5 188.75 L 147.5 187.5 L 147.5 185.0 L 147.5 183.75 L 152.5 200.0 L 156.25 237.5 L 157.5 282.5 L 152.5 307.5 L 145.0 318.75 L 142.5 318.75 " stroke="black" fill="none" stroke-width="6.0" stroke-linecap="round" stroke-linejoin="round" />
</svg>