<svg xmlns="http://www.w3.org/2000/svg" width="300" height="300" viewBox="0 0 300 300">
<path d="M 81.25 106.25 L 77.5 106.25 L 76.25 106.25 L 81.25 106.25 L 92.5 106.25 L 102.5 106.25 L 107.5 106.25 L 107.5 113.75 L 98.75 126.25 L 90.0 137.5 L 86.25 146.25 L 87.5 148.75 L 95.0 147.5 L 103.75 146.25 L 110.0 145.0 L 111.25 147.5 L 108.75 155.0 L 101.25 163.75 L 95.0 170.0 L 88.75 173.75 L 83.75 173.75 L 80.0 168.75 L 75.0 162.5 L 71.25 155.0 L 68.75 148.75 L 67.5 143.75 L 67.5 142.5 L 67.5 142.5 L 67.5 142.5 L 68.75 142.5 L 68.75 145.0 L 70.0 155.0 L 72.5 182.5 L 73.75 227.5 L 76.25 267.5 L 77.5 281.25 L 77.5 285.0 L 77.5 282.5 " stroke="black" fill="none" stroke-width="6.0" stroke-linecap="round" stroke-linejoin="round" />
<path d="M 140.0 92.5 L 136.25 92.5 L 132.5 92.5 L 133.75 92.5 L 145.0 91.25 L 160.0 88.75 L 173.75 83.75 L 178.75 80.0 L 177.5 78.75 L 165.0 78.75 L 155.0 78.75 L 148.75 78.75 L 145.0 76.25 L 145.0 76.25 L 146.25 85.0 L 148.75 100.0 L 148.75 113.75 L 146.25 125.0 L 137.5 130.0 L 128.75 132.5 L 121.25 132.5 L 121.25 132.5 L 130.0 132.5 L 146.25 126.25 L 163.75 115.0 L 178.75 105.0 L 183.75 101.25 L 178.75 103.75 L 162.5 120.0 L 145.0 148.75 L 121.25 193.75 L 103.75 225.0 L 98.75 235.0 L 98.75 230.0 " stroke="black" fill="none" stroke-width="6.0" stroke-linecap="round" stroke-linejoin="round" />
<path d="M 153.75 141.25 L 156.25 138.75 L 162.5 138.75 L 176.25 141.25 L 192.5 148.75 L 206.25 155.0 L 210.0 156.25 L 206.25 157.5 L 200.0 157.5 " stroke="black" fill="none" stroke-width="6.0" stroke-linecap="round" stroke-linejoin="round" />
<path d="M 161.25 156.25 L 158.75 158.75 L 152.5 168.75 L 146.25 192.5 L 140.0 218.75 L 136.25 235.0 L 136.25 235.0 L 143.75 227.5 L 155.0 210.0 L 167.5 195.0 L 181.25 183.75 L 193.75 180.0 L 197.5 190.0 L 190.0 206.25 L 177.5 223.75 L 162.5 238.75 L 151.25 243.75 L 147.5 243.75 L 147.5 233.75 L 150.0 221.25 L 152.5 211.25 L 153.75 207.5 L 153.75 207.5 L 155.0 210.0 L 157.5 212.5 L 161.25 216.25 L 170.0 221.25 L 181.25 227.5 L 196.25 235.0 L 215.0 245.0 L 236.25 255.0 L 251.25 261.25 L 255.0 263.75 " stroke="black" fill="none" stroke-width="6.0" stroke-linecap="round" stroke-linejoin="round" />
</svg>