<svg xmlns="http://www.w3.org/2000/svg" width="300" height="300" viewBox="0 0 300 300">
<path d="M 133.75 50.0 L 133.75 50.0 L 130.0 53.75 L 117.5 76.25 L 98.75 118.75 L 88.75 143.75 L 86.25 145.0 L 88.75 136.25 " stroke="black" fill="none" stroke-width="6.0" stroke-linecap="round" stroke-linejoin="round" />
<path d="M 121.25 90.0 L 122.5 90.0 L 126.25 98.75 L 130.0 123.75 L 131.25 155.0 L 131.25 173.75 L 127.5 176.25 " stroke="black" fill="none" stroke-width="6.0" stroke-linecap="round" stroke-linejoin="round" />
<path d="M 147.5 65.0 L 147.5 65.0 L 147.5 65.0 L 153.75 62.5 L 168.75 60.0 L 185.0 56.25 L 191.25 55.0 L 185.0 56.25 " stroke="black" fill="none" stroke-width="6.0" stroke-linecap="round" stroke-linejoin="round" />
<path d="M 146.25 91.25 L 145.0 91.25 L 141.25 95.0 L 143.75 95.0 L 152.5 92.5 L 167.5 85.0 L 180.0 76.25 L 185.0 71.25 L 176.25 76.25 " stroke="black" fill="none" stroke-width="6.0" stroke-linecap="round" stroke-linejoin="round" />
<path d="M 142.5 122.5 L 141.25 125.0 L 141.25 126.25 L 148.75 122.5 L 163.75 111.25 L 180.0 96.25 L 187.5 86.25 L 182.5 86.25 " stroke="black" fill="none" stroke-width="6.0" stroke-linecap="round" stroke-linejoin="round" />
<path d="M 163.75 86.25 L 163.75 88.75 L 163.75 93.75 L 163.75 108.75 L 162.5 132.5 L 157.5 143.75 L 153.75 145.0 L 148.75 143.75 L 147.5 142.5 L 148.75 141.25 L 156.25 138.75 L 171.25 132.5 L 186.25 125.0 L 197.5 116.25 L 198.75 113.75 L 190.0 118.75 L 177.5 131.25 L 162.5 143.75 L 151.25 156.25 L 146.25 163.75 L 148.75 163.75 L 157.5 156.25 L 171.25 146.25 L 183.75 137.5 L 188.75 131.25 L 188.75 131.25 " stroke="black" fill="none" stroke-width="6.0" stroke-linecap="round" stroke-linejoin="round" />
<path d="M 82.5 223.75 L 72.5 231.25 L 73.75 232.5 L 93.75 221.25 L 128.75 202.5 L 175.0 177.5 L 207.5 157.5 L 217.5 147.5 L 218.75 145.0 L 207.5 145.0 L 193.75 151.25 L 177.5 155.0 L 165.0 158.75 L 157.5 161.25 L 156.25 163.75 L 158.75 167.5 L 163.75 181.25 L 167.5 212.5 L 167.5 250.0 L 167.5 267.5 L 165.0 271.25 L 161.25 271.25 L 155.0 265.0 L 148.75 257.5 L 142.5 246.25 L 140.0 243.75 " stroke="black" fill="none" stroke-width="6.0" stroke-linecap="round" stroke-linejoin="round" />
<path d="M 120.0 206.25 L 118.75 207.5 L 113.75 210.0 L 112.5 216.25 L 112.5 232.5 L 112.5 252.5 L 112.5 258.75 L 115.0 256.25 " stroke="black" fill="none" stroke-width="6.0" stroke-linecap="round" stroke-linejoin="round" />
<path d="M 191.25 195.0 L 193.75 195.0 L 198.75 200.0 L 207.5 212.5 L 217.5 230.0 L 225.0 241.25 L 228.75 243.75 L 228.75 243.75 L 228.75 243.75 " stroke="black" fill="none" stroke-width="6.0" stroke-linecap="round" stroke-linejoin="round" />
</svg>