<svg xmlns="http://www.w3.org/2000/svg" width="300" height="300" viewBox="0 0 300 300">
<path d="M 107.5 73.75 L 103.75 76.25 L 100.0 77.5 L 102.5 81.25 L 116.25 82.5 L 140.0 78.75 L 167.5 70.0 L 182.5 62.5 L 181.25 60.0 L 172.5 62.5 " stroke="black" fill="none" stroke-width="6.0" stroke-linecap="round" stroke-linejoin="round" />
<path d="M 85.0 97.5 L 82.5 97.5 L 81.25 101.25 L 83.75 111.25 L 90.0 128.75 L 96.25 138.75 L 98.75 140.0 " stroke="black" fill="none" stroke-width="6.0" stroke-linecap="round" stroke-linejoin="round" />
<path d="M 90.0 108.75 L 88.75 108.75 L 86.25 108.75 L 87.5 108.75 L 103.75 108.75 L 136.25 102.5 L 176.25 92.5 L 206.25 86.25 L 216.25 86.25 L 216.25 92.5 L 207.5 101.25 L 195.0 111.25 L 181.25 120.0 L 163.75 125.0 " stroke="black" fill="none" stroke-width="6.0" stroke-linecap="round" stroke-linejoin="round" />
<path d="M 148.75 76.25 L 148.75 75.0 L 147.5 75.0 L 146.25 83.75 L 146.25 96.25 L 147.5 120.0 L 147.5 123.75 " stroke="black" fill="none" stroke-width="6.0" stroke-linecap="round" stroke-linejoin="round" />
<path d="M 175.0 80.0 L 175.0 78.75 L 175.0 80.0 L 170.0 91.25 L 160.0 108.75 L 150.0 126.25 L 142.5 130.0 " stroke="black" fill="none" stroke-width="6.0" stroke-linecap="round" stroke-linejoin="round" />
<path d="M 120.0 93.75 L 120.0 92.5 L 120.0 92.5 L 121.25 95.0 L 126.25 110.0 L 132.5 126.25 " stroke="black" fill="none" stroke-width="6.0" stroke-linecap="round" stroke-linejoin="round" />
<path d="M 96.25 153.75 L 92.5 155.0 L 90.0 156.25 L 91.25 156.25 L 101.25 155.0 L 117.5 148.75 L 132.5 142.5 L 140.0 138.75 L 136.25 138.75 " stroke="black" fill="none" stroke-width="6.0" stroke-linecap="round" stroke-linejoin="round" />
<path d="M 101.25 165.0 L 100.0 175.0 L 98.75 192.5 L 98.75 210.0 L 100.0 218.75 L 101.25 218.75 L 101.25 215.0 " stroke="black" fill="none" stroke-width="6.0" stroke-linecap="round" stroke-linejoin="round" />
<path d="M 98.75 190.0 L 96.25 188.75 L 93.75 188.75 L 92.5 190.0 L 101.25 190.0 L 117.5 185.0 L 135.0 177.5 L 147.5 172.5 L 147.5 172.5 " stroke="black" fill="none" stroke-width="6.0" stroke-linecap="round" stroke-linejoin="round" />
<path d="M 165.0 145.0 L 165.0 146.25 L 161.25 148.75 L 161.25 150.0 L 167.5 150.0 L 180.0 151.25 L 193.75 152.5 L 202.5 155.0 L 205.0 161.25 L 197.5 177.5 L 183.75 191.25 L 171.25 198.75 L 158.75 198.75 " stroke="black" fill="none" stroke-width="6.0" stroke-linecap="round" stroke-linejoin="round" />
<path d="M 160.0 181.25 L 157.5 180.0 L 157.5 180.0 L 162.5 177.5 L 176.25 171.25 L 192.5 165.0 L 201.25 160.0 L 201.25 160.0 " stroke="black" fill="none" stroke-width="6.0" stroke-linecap="round" stroke-linejoin="round" />
<path d="M 96.25 222.5 L 95.0 223.75 L 91.25 226.25 L 88.75 227.5 L 90.0 227.5 L 102.5 223.75 L 128.75 212.5 L 157.5 196.25 L 180.0 183.75 L 186.25 178.75 L 177.5 182.5 " stroke="black" fill="none" stroke-width="6.0" stroke-linecap="round" stroke-linejoin="round" />
<path d="M 141.25 218.75 L 135.0 227.5 L 126.25 243.75 L 117.5 258.75 L 115.0 266.25 L 115.0 265.0 L 120.0 257.5 " stroke="black" fill="none" stroke-width="6.0" stroke-linecap="round" stroke-linejoin="round" />
<path d="M 166.25 206.25 L 168.75 205.0 L 168.75 210.0 L 166.25 225.0 L 166.25 243.75 L 171.25 255.0 L 186.25 258.75 L 202.5 258.75 L 215.0 256.25 L 227.5 256.25 L 236.25 256.25 L 237.5 256.25 L 237.5 256.25 L 237.5 256.25 L 237.5 253.75 L 237.5 247.5 L 237.5 236.25 L 235.0 218.75 L 223.75 188.75 L 215.0 168.75 " stroke="black" fill="none" stroke-width="6.0" stroke-linecap="round" stroke-linejoin="round" />
</svg>