<svg xmlns="http://www.w3.org/2000/svg" width="300" height="300" viewBox="0 0 300 300">
<path d="M 83.75 66.25 L 81.25 66.25 L 80.0 67.5 L 86.25 67.5 L 107.5 62.5 L 141.25 50.0 L 163.75 38.75 L 172.5 33.75 L 171.25 33.75 L 158.75 36.25 L 150.0 40.0 " stroke="black" fill="none" stroke-width="6.0" stroke-linecap="round" stroke-linejoin="round" />
<path d="M 82.5 77.5 L 81.25 77.5 L 80.0 76.25 L 80.0 77.5 L 83.75 95.0 L 85.0 151.25 L 78.75 211.25 L 68.75 236.25 L 57.5 248.75 L 47.5 252.5 L 46.25 248.75 " stroke="black" fill="none" stroke-width="6.0" stroke-linecap="round" stroke-linejoin="round" />
<path d="M 105.0 86.25 L 105.0 86.25 L 103.75 85.0 L 103.75 86.25 L 106.25 96.25 L 108.75 111.25 L 111.25 125.0 L 110.0 131.25 " stroke="black" fill="none" stroke-width="6.0" stroke-linecap="round" stroke-linejoin="round" />
<path d="M 105.0 90.0 L 105.0 88.75 L 103.75 86.25 L 108.75 83.75 L 117.5 81.25 L 133.75 80.0 L 141.25 81.25 L 141.25 86.25 L 133.75 92.5 L 122.5 98.75 L 112.5 103.75 L 105.0 106.25 L 102.5 106.25 L 105.0 106.25 L 113.75 101.25 L 125.0 97.5 L 135.0 93.75 L 140.0 92.5 L 140.0 93.75 L 131.25 100.0 L 120.0 108.75 L 108.75 117.5 L 103.75 121.25 L 102.5 122.5 L 108.75 120.0 L 118.75 113.75 L 127.5 107.5 L 133.75 102.5 L 135.0 101.25 L 130.0 103.75 L 122.5 110.0 L 116.25 118.75 L 112.5 136.25 L 112.5 157.5 L 113.75 175.0 L 117.5 181.25 L 117.5 181.25 L 118.75 176.25 L 117.5 170.0 L 113.75 162.5 L 111.25 155.0 L 110.0 148.75 L 108.75 142.5 L 108.75 137.5 L 108.75 133.75 L 111.25 131.25 L 116.25 127.5 L 123.75 125.0 L 132.5 123.75 L 137.5 128.75 L 141.25 143.75 L 141.25 160.0 L 138.75 172.5 L 135.0 178.75 L 131.25 178.75 L 127.5 175.0 " stroke="black" fill="none" stroke-width="6.0" stroke-linecap="round" stroke-linejoin="round" />
<path d="M 117.5 148.75 L 113.75 150.0 L 112.5 150.0 L 117.5 147.5 L 127.5 142.5 L 136.25 135.0 L 140.0 131.25 L 138.75 132.5 " stroke="black" fill="none" stroke-width="6.0" stroke-linecap="round" stroke-linejoin="round" />
<path d="M 118.75 162.5 L 116.25 166.25 L 116.25 166.25 L 126.25 158.75 L 135.0 150.0 " stroke="black" fill="none" stroke-width="6.0" stroke-linecap="round" stroke-linejoin="round" />
<path d="M 153.75 116.25 L 152.5 117.5 L 148.75 120.0 L 150.0 121.25 L 162.5 115.0 L 181.25 102.5 L 200.0 88.75 L 208.75 78.75 L 207.5 75.0 " stroke="black" fill="none" stroke-width="6.0" stroke-linecap="round" stroke-linejoin="round" />
<path d="M 171.25 81.25 L 171.25 81.25 L 170.0 83.75 L 171.25 92.5 L 173.75 116.25 L 173.75 146.25 L 167.5 162.5 L 161.25 163.75 L 157.5 162.5 " stroke="black" fill="none" stroke-width="6.0" stroke-linecap="round" stroke-linejoin="round" />
<path d="M 173.75 118.75 L 175.0 118.75 L 177.5 117.5 L 186.25 123.75 L 200.0 138.75 L 212.5 151.25 L 223.75 157.5 L 227.5 156.25 L 227.5 153.75 " stroke="black" fill="none" stroke-width="6.0" stroke-linecap="round" stroke-linejoin="round" />
<path d="M 203.75 67.5 L 203.75 67.5 L 203.75 66.25 L 203.75 67.5 L 208.75 76.25 L 212.5 87.5 " stroke="black" fill="none" stroke-width="6.0" stroke-linecap="round" stroke-linejoin="round" />
<path d="M 142.5 183.75 L 142.5 182.5 L 140.0 181.25 L 141.25 181.25 L 148.75 178.75 L 162.5 175.0 L 175.0 172.5 L 180.0 172.5 L 176.25 176.25 L 162.5 187.5 L 147.5 198.75 L 130.0 208.75 L 113.75 217.5 L 110.0 218.75 " stroke="black" fill="none" stroke-width="6.0" stroke-linecap="round" stroke-linejoin="round" />
<path d="M 103.75 213.75 L 102.5 213.75 L 100.0 213.75 L 100.0 213.75 L 101.25 215.0 L 108.75 225.0 L 122.5 245.0 L 132.5 260.0 L 135.0 263.75 L 133.75 262.5 L 130.0 257.5 L 127.5 251.25 L 125.0 242.5 L 122.5 232.5 L 118.75 222.5 L 115.0 217.5 L 111.25 216.25 L 111.25 216.25 L 112.5 218.75 L 122.5 218.75 L 141.25 216.25 L 166.25 210.0 L 197.5 201.25 L 216.25 197.5 L 223.75 198.75 L 225.0 206.25 L 218.75 223.75 L 207.5 247.5 L 195.0 263.75 L 186.25 267.5 " stroke="black" fill="none" stroke-width="6.0" stroke-linecap="round" stroke-linejoin="round" />
<path d="M 153.75 211.25 L 152.5 211.25 L 150.0 211.25 L 148.75 211.25 L 148.75 218.75 L 150.0 236.25 L 152.5 252.5 L 153.75 257.5 " stroke="black" fill="none" stroke-width="6.0" stroke-linecap="round" stroke-linejoin="round" />
<path d="M 180.0 207.5 L 180.0 207.5 L 180.0 213.75 L 181.25 232.5 L 177.5 252.5 L 170.0 263.75 " stroke="black" fill="none" stroke-width="6.0" stroke-linecap="round" stroke-linejoin="round" />
<path d="M 151.25 236.25 L 150.0 236.25 L 148.75 235.0 L 153.75 231.25 L 165.0 225.0 L 177.5 218.75 L 185.0 215.0 L 183.75 215.0 " stroke="black" fill="none" stroke-width="6.0" stroke-linecap="round" stroke-linejoin="round" />
<path d="M 155.0 242.5 L 153.75 242.5 L 152.5 243.75 L 152.5 243.75 L 160.0 243.75 L 167.5 241.25 L 173.75 238.75 L 173.75 238.75 " stroke="black" fill="none" stroke-width="6.0" stroke-linecap="round" stroke-linejoin="round" />
<path d="M 140.0 267.5 L 140.0 267.5 L 137.5 268.75 L 138.75 268.75 L 146.25 268.75 L 157.5 265.0 L 172.5 261.25 L 188.75 255.0 L 201.25 251.25 L 205.0 250.0 L 206.25 248.75 L 205.0 248.75 L 203.75 248.75 L 202.5 250.0 L 202.5 250.0 " stroke="black" fill="none" stroke-width="6.0" stroke-linecap="round" stroke-linejoin="round" />
</svg>