<svg xmlns="http://www.w3.org/2000/svg" width="300" height="300" viewBox="0 0 300 300">
<path d="M 115.0 77.5 L 107.5 80.0 L 102.5 81.25 L 106.25 83.75 L 120.0 87.5 L 140.0 87.5 L 157.5 86.25 L 166.25 85.0 L 163.75 85.0 L 148.75 96.25 L 128.75 112.5 L 106.25 128.75 L 91.25 137.5 L 85.0 140.0 L 85.0 138.75 " stroke="black" fill="none" stroke-width="6.0" stroke-linecap="round" stroke-linejoin="round" />
<path d="M 87.5 135.0 L 82.5 138.75 L 78.75 148.75 L 78.75 176.25 L 83.75 216.25 L 91.25 241.25 L 96.25 250.0 L 96.25 248.75 " stroke="black" fill="none" stroke-width="6.0" stroke-linecap="round" stroke-linejoin="round" />
<path d="M 86.25 140.0 L 83.75 140.0 L 80.0 140.0 L 82.5 140.0 L 102.5 138.75 L 137.5 132.5 L 180.0 122.5 L 207.5 120.0 L 218.75 131.25 L 220.0 158.75 L 216.25 197.5 L 212.5 228.75 L 211.25 243.75 L 210.0 246.25 L 210.0 245.0 L 208.75 240.0 L 205.0 230.0 L 196.25 215.0 L 188.75 208.75 " stroke="black" fill="none" stroke-width="6.0" stroke-linecap="round" stroke-linejoin="round" />
<path d="M 122.5 156.25 L 121.25 157.5 L 116.25 157.5 L 113.75 160.0 L 116.25 183.75 L 122.5 212.5 L 127.5 230.0 L 127.5 230.0 " stroke="black" fill="none" stroke-width="6.0" stroke-linecap="round" stroke-linejoin="round" />
<path d="M 156.25 135.0 L 156.25 140.0 L 156.25 160.0 L 155.0 192.5 L 153.75 212.5 L 151.25 218.75 " stroke="black" fill="none" stroke-width="6.0" stroke-linecap="round" stroke-linejoin="round" />
<path d="M 122.5 177.5 L 120.0 177.5 L 118.75 177.5 L 122.5 176.25 L 137.5 170.0 L 152.5 165.0 L 158.75 161.25 " stroke="black" fill="none" stroke-width="6.0" stroke-linecap="round" stroke-linejoin="round" />
<path d="M 126.25 195.0 L 121.25 196.25 L 120.0 196.25 L 123.75 196.25 L 136.25 192.5 L 147.5 190.0 L 148.75 188.75 " stroke="black" fill="none" stroke-width="6.0" stroke-linecap="round" stroke-linejoin="round" />
<path d="M 105.0 250.0 L 103.75 250.0 L 101.25 251.25 L 103.75 251.25 L 117.5 246.25 L 137.5 240.0 L 162.5 233.75 L 188.75 230.0 L 205.0 227.5 L 211.25 226.25 L 208.75 226.25 " stroke="black" fill="none" stroke-width="6.0" stroke-linecap="round" stroke-linejoin="round" />
</svg>