<svg xmlns="http://www.w3.org/2000/svg" width="300" height="300" viewBox="0 0 300 300">
<path d="M 106.25 75.0 L 105.0 75.0 L 102.5 77.5 L 110.0 77.5 L 132.5 77.5 L 160.0 71.25 L 180.0 62.5 L 185.0 58.75 " stroke="black" fill="none" stroke-width="6.0" stroke-linecap="round" stroke-linejoin="round" />
<path d="M 86.25 115.0 L 85.0 115.0 L 82.5 116.25 L 82.5 117.5 L 90.0 125.0 L 97.5 133.75 L 103.75 141.25 L 105.0 143.75 L 101.25 142.5 L 97.5 140.0 " stroke="black" fill="none" stroke-width="6.0" stroke-linecap="round" stroke-linejoin="round" />
<path d="M 90.0 127.5 L 88.75 127.5 L 87.5 127.5 L 87.5 126.25 L 100.0 122.5 L 128.75 113.75 L 166.25 101.25 L 202.5 92.5 L 222.5 90.0 L 230.0 91.25 L 227.5 96.25 L 215.0 107.5 L 201.25 120.0 L 193.75 126.25 " stroke="black" fill="none" stroke-width="6.0" stroke-linecap="round" stroke-linejoin="round" />
<path d="M 155.0 85.0 L 155.0 85.0 L 153.75 90.0 L 153.75 113.75 L 155.0 127.5 L 155.0 130.0 " stroke="black" fill="none" stroke-width="6.0" stroke-linecap="round" stroke-linejoin="round" />
<path d="M 180.0 83.75 L 180.0 83.75 L 180.0 87.5 L 175.0 105.0 L 163.75 127.5 L 152.5 137.5 " stroke="black" fill="none" stroke-width="6.0" stroke-linecap="round" stroke-linejoin="round" />
<path d="M 127.5 93.75 L 127.5 93.75 L 127.5 93.75 L 128.75 103.75 L 137.5 127.5 L 143.75 147.5 " stroke="black" fill="none" stroke-width="6.0" stroke-linecap="round" stroke-linejoin="round" />
<path d="M 115.0 162.5 L 111.25 163.75 L 106.25 165.0 L 107.5 165.0 L 123.75 162.5 L 147.5 155.0 L 173.75 143.75 L 195.0 133.75 L 198.75 131.25 L 190.0 133.75 " stroke="black" fill="none" stroke-width="6.0" stroke-linecap="round" stroke-linejoin="round" />
<path d="M 117.5 170.0 L 117.5 172.5 L 112.5 181.25 L 113.75 201.25 L 115.0 231.25 L 115.0 250.0 L 115.0 255.0 L 111.25 252.5 L 110.0 251.25 " stroke="black" fill="none" stroke-width="6.0" stroke-linecap="round" stroke-linejoin="round" />
<path d="M 132.5 186.25 L 132.5 185.0 L 135.0 183.75 L 148.75 177.5 L 168.75 170.0 L 182.5 163.75 L 181.25 163.75 " stroke="black" fill="none" stroke-width="6.0" stroke-linecap="round" stroke-linejoin="round" />
<path d="M 136.25 208.75 L 132.5 212.5 L 131.25 213.75 L 137.5 213.75 L 151.25 207.5 L 167.5 196.25 L 180.0 186.25 L 182.5 181.25 L 175.0 183.75 L 163.75 193.75 L 155.0 210.0 L 150.0 236.25 L 151.25 257.5 L 161.25 260.0 L 175.0 256.25 L 191.25 245.0 L 203.75 228.75 L 212.5 215.0 L 215.0 205.0 L 211.25 203.75 L 202.5 203.75 L 192.5 207.5 L 181.25 211.25 L 170.0 216.25 L 161.25 220.0 L 157.5 221.25 L 157.5 222.5 L 158.75 222.5 L 160.0 221.25 L 162.5 221.25 L 163.75 221.25 L 163.75 220.0 L 165.0 220.0 L 165.0 220.0 L 165.0 220.0 L 166.25 220.0 L 170.0 221.25 L 182.5 227.5 L 202.5 238.75 L 228.75 247.5 L 243.75 251.25 " stroke="black" fill="none" stroke-width="6.0" stroke-linecap="round" stroke-linejoin="round" />
</svg>