<svg xmlns="http://www.w3.org/2000/svg" width="300" height="300" viewBox="0 0 300 300">
<path d="M 126.25 61.25 L 126.25 61.25 L 127.5 60.0 L 136.25 60.0 L 148.75 60.0 L 161.25 61.25 L 163.75 63.75 L 161.25 65.0 " stroke="black" fill="none" stroke-width="6.0" stroke-linecap="round" stroke-linejoin="round" />
<path d="M 90.0 93.75 L 90.0 93.75 L 90.0 93.75 L 102.5 90.0 L 136.25 78.75 L 166.25 66.25 L 176.25 60.0 L 173.75 57.5 L 162.5 60.0 " stroke="black" fill="none" stroke-width="6.0" stroke-linecap="round" stroke-linejoin="round" />
<path d="M 105.0 95.0 L 103.75 96.25 L 101.25 111.25 L 100.0 145.0 L 95.0 190.0 L 87.5 218.75 L 77.5 233.75 L 66.25 238.75 L 60.0 225.0 L 60.0 215.0 " stroke="black" fill="none" stroke-width="6.0" stroke-linecap="round" stroke-linejoin="round" />
<path d="M 108.75 116.25 L 108.75 116.25 L 108.75 117.5 L 112.5 117.5 L 131.25 113.75 L 152.5 103.75 L 165.0 95.0 L 168.75 87.5 L 158.75 87.5 L 150.0 87.5 L 142.5 88.75 L 138.75 91.25 L 136.25 95.0 L 136.25 103.75 L 137.5 123.75 L 140.0 147.5 L 140.0 160.0 L 138.75 160.0 L 137.5 155.0 " stroke="black" fill="none" stroke-width="6.0" stroke-linecap="round" stroke-linejoin="round" />
<path d="M 140.0 113.75 L 140.0 113.75 L 136.25 120.0 L 126.25 136.25 L 112.5 157.5 L 106.25 166.25 L 103.75 163.75 " stroke="black" fill="none" stroke-width="6.0" stroke-linecap="round" stroke-linejoin="round" />
<path d="M 137.5 112.5 L 140.0 112.5 L 145.0 115.0 L 153.75 125.0 L 165.0 135.0 L 172.5 137.5 L 172.5 136.25 " stroke="black" fill="none" stroke-width="6.0" stroke-linecap="round" stroke-linejoin="round" />
<path d="M 166.25 105.0 L 166.25 105.0 L 166.25 103.75 L 168.75 101.25 L 181.25 96.25 L 198.75 87.5 L 210.0 77.5 L 210.0 73.75 L 202.5 72.5 L 193.75 75.0 L 188.75 78.75 L 186.25 86.25 L 186.25 103.75 L 186.25 131.25 L 186.25 148.75 L 186.25 152.5 L 183.75 151.25 " stroke="black" fill="none" stroke-width="6.0" stroke-linecap="round" stroke-linejoin="round" />
<path d="M 190.0 103.75 L 187.5 103.75 L 182.5 110.0 L 171.25 126.25 L 158.75 145.0 L 153.75 150.0 L 153.75 150.0 " stroke="black" fill="none" stroke-width="6.0" stroke-linecap="round" stroke-linejoin="round" />
<path d="M 185.0 101.25 L 185.0 101.25 L 185.0 101.25 L 191.25 105.0 L 203.75 120.0 L 217.5 133.75 L 220.0 136.25 " stroke="black" fill="none" stroke-width="6.0" stroke-linecap="round" stroke-linejoin="round" />
<path d="M 145.0 156.25 L 145.0 158.75 L 145.0 163.75 L 146.25 183.75 L 145.0 210.0 L 138.75 231.25 L 131.25 243.75 L 118.75 245.0 L 116.25 245.0 " stroke="black" fill="none" stroke-width="6.0" stroke-linecap="round" stroke-linejoin="round" />
<path d="M 110.0 195.0 L 110.0 193.75 L 110.0 193.75 L 117.5 192.5 L 133.75 190.0 L 147.5 185.0 L 151.25 183.75 " stroke="black" fill="none" stroke-width="6.0" stroke-linecap="round" stroke-linejoin="round" />
<path d="M 115.0 203.75 L 115.0 205.0 L 112.5 206.25 L 112.5 207.5 L 121.25 207.5 L 133.75 201.25 L 145.0 196.25 L 148.75 192.5 " stroke="black" fill="none" stroke-width="6.0" stroke-linecap="round" stroke-linejoin="round" />
<path d="M 117.5 227.5 L 117.5 228.75 L 116.25 231.25 L 122.5 228.75 L 142.5 213.75 L 168.75 192.5 L 190.0 170.0 L 196.25 157.5 L 197.5 152.5 L 193.75 150.0 L 192.5 150.0 L 192.5 150.0 L 192.5 158.75 L 192.5 185.0 L 192.5 220.0 L 195.0 252.5 L 196.25 263.75 L 197.5 263.75 L 197.5 260.0 L 196.25 255.0 " stroke="black" fill="none" stroke-width="6.0" stroke-linecap="round" stroke-linejoin="round" />
<path d="M 187.5 173.75 L 187.5 173.75 L 187.5 171.25 L 188.75 170.0 L 198.75 166.25 L 211.25 161.25 L 225.0 155.0 L 228.75 153.75 L 226.25 156.25 " stroke="black" fill="none" stroke-width="6.0" stroke-linecap="round" stroke-linejoin="round" />
<path d="M 196.25 195.0 L 195.0 196.25 L 191.25 200.0 L 191.25 200.0 L 197.5 198.75 L 208.75 191.25 L 218.75 183.75 L 226.25 176.25 L 226.25 176.25 " stroke="black" fill="none" stroke-width="6.0" stroke-linecap="round" stroke-linejoin="round" />
<path d="M 196.25 216.25 L 196.25 217.5 L 195.0 221.25 L 197.5 221.25 L 210.0 215.0 L 226.25 202.5 L 233.75 196.25 " stroke="black" fill="none" stroke-width="6.0" stroke-linecap="round" stroke-linejoin="round" />
</svg>