<svg xmlns="http://www.w3.org/2000/svg" width="300" height="300" viewBox="0 0 300 300">
<path d="M 118.75 76.25 L 117.5 76.25 L 116.25 76.25 L 125.0 76.25 L 142.5 75.0 L 166.25 66.25 L 186.25 56.25 L 187.5 53.75 L 180.0 56.25 " stroke="black" fill="none" stroke-width="6.0" stroke-linecap="round" stroke-linejoin="round" />
<path d="M 87.5 108.75 L 83.75 108.75 L 82.5 110.0 L 85.0 113.75 L 96.25 125.0 L 106.25 136.25 L 113.75 145.0 L 115.0 147.5 L 111.25 145.0 L 107.5 138.75 L 103.75 132.5 L 100.0 126.25 L 95.0 121.25 L 91.25 120.0 L 91.25 118.75 L 97.5 118.75 L 117.5 113.75 L 148.75 102.5 L 185.0 91.25 L 208.75 87.5 L 215.0 88.75 L 215.0 95.0 L 205.0 106.25 L 192.5 120.0 L 175.0 131.25 L 171.25 133.75 " stroke="black" fill="none" stroke-width="6.0" stroke-linecap="round" stroke-linejoin="round" />
<path d="M 156.25 86.25 L 155.0 86.25 L 153.75 85.0 L 152.5 85.0 L 152.5 95.0 L 152.5 118.75 L 153.75 138.75 L 153.75 142.5 " stroke="black" fill="none" stroke-width="6.0" stroke-linecap="round" stroke-linejoin="round" />
<path d="M 187.5 67.5 L 187.5 67.5 L 187.5 67.5 L 183.75 81.25 L 172.5 108.75 L 157.5 130.0 L 152.5 132.5 " stroke="black" fill="none" stroke-width="6.0" stroke-linecap="round" stroke-linejoin="round" />
<path d="M 131.25 101.25 L 127.5 100.0 L 126.25 101.25 L 127.5 113.75 L 136.25 131.25 L 142.5 140.0 " stroke="black" fill="none" stroke-width="6.0" stroke-linecap="round" stroke-linejoin="round" />
<path d="M 108.75 172.5 L 108.75 172.5 L 107.5 172.5 L 106.25 173.75 L 107.5 192.5 L 113.75 227.5 L 117.5 251.25 L 120.0 257.5 L 120.0 256.25 " stroke="black" fill="none" stroke-width="6.0" stroke-linecap="round" stroke-linejoin="round" />
<path d="M 111.25 177.5 L 107.5 176.25 L 105.0 175.0 L 105.0 175.0 L 115.0 172.5 L 130.0 168.75 L 142.5 166.25 L 148.75 166.25 L 150.0 168.75 L 142.5 178.75 L 133.75 187.5 L 122.5 195.0 L 111.25 201.25 L 107.5 202.5 L 107.5 202.5 L 115.0 200.0 L 126.25 193.75 L 140.0 185.0 L 150.0 177.5 L 152.5 173.75 L 152.5 173.75 " stroke="black" fill="none" stroke-width="6.0" stroke-linecap="round" stroke-linejoin="round" />
<path d="M 112.5 221.25 L 111.25 222.5 L 112.5 222.5 L 122.5 216.25 L 135.0 207.5 L 145.0 198.75 L 150.0 193.75 L 148.75 195.0 L 141.25 202.5 " stroke="black" fill="none" stroke-width="6.0" stroke-linecap="round" stroke-linejoin="round" />
<path d="M 117.5 240.0 L 116.25 241.25 L 113.75 243.75 L 117.5 243.75 L 130.0 236.25 L 143.75 223.75 L 156.25 210.0 L 160.0 198.75 " stroke="black" fill="none" stroke-width="6.0" stroke-linecap="round" stroke-linejoin="round" />
<path d="M 163.75 160.0 L 162.5 160.0 L 160.0 160.0 L 163.75 158.75 L 175.0 156.25 L 188.75 152.5 L 200.0 148.75 L 203.75 148.75 L 200.0 156.25 L 190.0 170.0 L 177.5 185.0 L 168.75 192.5 L 167.5 193.75 L 173.75 192.5 L 183.75 187.5 L 193.75 181.25 L 201.25 175.0 L 203.75 173.75 L 198.75 178.75 L 188.75 192.5 L 176.25 207.5 L 166.25 216.25 L 165.0 218.75 L 171.25 215.0 L 183.75 207.5 L 196.25 198.75 L 208.75 191.25 L 215.0 188.75 L 212.5 193.75 L 202.5 211.25 L 188.75 237.5 L 171.25 260.0 L 161.25 267.5 L 157.5 265.0 " stroke="black" fill="none" stroke-width="6.0" stroke-linecap="round" stroke-linejoin="round" />
<path d="M 161.25 226.25 L 161.25 225.0 L 158.75 222.5 L 157.5 221.25 L 157.5 221.25 L 157.5 221.25 L 157.5 221.25 L 157.5 221.25 L 158.75 221.25 L 158.75 221.25 L 160.0 221.25 L 161.25 221.25 L 162.5 221.25 L 163.75 222.5 L 166.25 223.75 L 172.5 226.25 L 186.25 236.25 L 206.25 251.25 L 232.5 266.25 L 255.0 276.25 L 261.25 282.5 " stroke="black" fill="none" stroke-width="6.0" stroke-linecap="round" stroke-linejoin="round" />
</svg>