<svg xmlns="http://www.w3.org/2000/svg" width="300" height="300" viewBox="0 0 300 300">
<path d="M 45.0 106.25 L 45.0 106.25 L 47.5 106.25 L 71.25 102.5 L 105.0 92.5 L 125.0 83.75 L 132.5 78.75 L 127.5 77.5 " stroke="black" fill="none" stroke-width="6.0" stroke-linecap="round" stroke-linejoin="round" />
<path d="M 70.0 88.75 L 68.75 91.25 L 67.5 100.0 L 71.25 120.0 L 76.25 135.0 L 83.75 136.25 L 87.5 126.25 L 90.0 112.5 L 91.25 101.25 L 93.75 90.0 L 96.25 81.25 L 97.5 78.75 L 98.75 81.25 L 98.75 95.0 L 97.5 112.5 L 93.75 128.75 L 88.75 137.5 L 86.25 137.5 " stroke="black" fill="none" stroke-width="6.0" stroke-linecap="round" stroke-linejoin="round" />
<path d="M 55.0 151.25 L 52.5 153.75 L 52.5 157.5 L 55.0 170.0 L 60.0 185.0 L 65.0 192.5 L 66.25 195.0 L 65.0 188.75 L 61.25 181.25 L 58.75 173.75 L 55.0 167.5 L 53.75 165.0 L 57.5 161.25 L 71.25 158.75 L 88.75 155.0 L 105.0 151.25 L 113.75 150.0 L 111.25 152.5 L 100.0 162.5 L 87.5 173.75 L 75.0 185.0 L 65.0 192.5 L 63.75 193.75 L 73.75 191.25 L 87.5 182.5 L 101.25 171.25 L 111.25 161.25 L 112.5 157.5 L 111.25 157.5 " stroke="black" fill="none" stroke-width="6.0" stroke-linecap="round" stroke-linejoin="round" />
<path d="M 61.25 216.25 L 61.25 218.75 L 68.75 217.5 L 88.75 206.25 L 111.25 191.25 L 121.25 181.25 L 118.75 177.5 L 110.0 178.75 " stroke="black" fill="none" stroke-width="6.0" stroke-linecap="round" stroke-linejoin="round" />
<path d="M 87.5 142.5 L 87.5 141.25 L 86.25 141.25 L 86.25 147.5 L 90.0 180.0 L 92.5 221.25 L 92.5 252.5 L 87.5 265.0 L 77.5 267.5 L 68.75 263.75 " stroke="black" fill="none" stroke-width="6.0" stroke-linecap="round" stroke-linejoin="round" />
<path d="M 148.75 90.0 L 147.5 90.0 L 146.25 92.5 L 145.0 101.25 L 147.5 115.0 L 158.75 118.75 L 177.5 115.0 L 197.5 102.5 L 208.75 93.75 L 212.5 91.25 L 212.5 96.25 L 212.5 121.25 L 212.5 166.25 L 212.5 215.0 L 215.0 246.25 L 216.25 256.25 L 217.5 256.25 L 217.5 255.0 L 211.25 248.75 L 202.5 235.0 L 190.0 215.0 L 185.0 210.0 " stroke="black" fill="none" stroke-width="6.0" stroke-linecap="round" stroke-linejoin="round" />
<path d="M 136.25 150.0 L 135.0 150.0 L 133.75 148.75 L 133.75 148.75 L 138.75 155.0 L 145.0 165.0 L 148.75 170.0 " stroke="black" fill="none" stroke-width="6.0" stroke-linecap="round" stroke-linejoin="round" />
<path d="M 185.0 130.0 L 185.0 130.0 L 186.25 130.0 L 185.0 132.5 L 176.25 146.25 L 158.75 167.5 L 140.0 183.75 L 123.75 192.5 L 121.25 193.75 L 131.25 190.0 L 152.5 178.75 L 178.75 162.5 L 197.5 148.75 L 202.5 142.5 L 195.0 142.5 L 182.5 145.0 L 171.25 145.0 L 161.25 142.5 L 160.0 137.5 L 160.0 135.0 L 161.25 136.25 L 165.0 156.25 L 167.5 192.5 L 170.0 223.75 L 171.25 235.0 L 171.25 236.25 L 166.25 227.5 L 163.75 213.75 L 163.75 197.5 L 165.0 181.25 L 167.5 168.75 L 167.5 166.25 L 161.25 178.75 L 152.5 196.25 L 142.5 213.75 L 133.75 222.5 L 132.5 221.25 " stroke="black" fill="none" stroke-width="6.0" stroke-linecap="round" stroke-linejoin="round" />
<path d="M 166.25 165.0 L 167.5 163.75 L 172.5 166.25 L 188.75 181.25 L 206.25 197.5 L 218.75 207.5 L 223.75 213.75 L 223.75 215.0 " stroke="black" fill="none" stroke-width="6.0" stroke-linecap="round" stroke-linejoin="round" />
</svg>