<svg xmlns="http://www.w3.org/2000/svg" width="300" height="300" viewBox="0 0 300 300">
<path d="M 81.25 110.0 L 77.5 111.25 L 73.75 113.75 L 72.5 113.75 L 80.0 112.5 L 93.75 107.5 L 110.0 100.0 L 123.75 92.5 L 130.0 87.5 L 126.25 86.25 L 116.25 86.25 L 106.25 86.25 L 98.75 87.5 L 96.25 86.25 L 96.25 85.0 L 96.25 83.75 L 97.5 83.75 L 100.0 92.5 L 101.25 106.25 L 97.5 127.5 L 95.0 136.25 " stroke="black" fill="none" stroke-width="6.0" stroke-linecap="round" stroke-linejoin="round" />
<path d="M 77.5 137.5 L 75.0 137.5 L 73.75 137.5 L 73.75 143.75 L 76.25 161.25 L 80.0 181.25 L 82.5 192.5 L 83.75 192.5 L 83.75 186.25 " stroke="black" fill="none" stroke-width="6.0" stroke-linecap="round" stroke-linejoin="round" />
<path d="M 83.75 153.75 L 81.25 152.5 L 81.25 150.0 L 83.75 147.5 L 95.0 142.5 L 108.75 138.75 L 122.5 138.75 L 128.75 145.0 L 123.75 158.75 L 112.5 173.75 L 102.5 183.75 L 96.25 186.25 " stroke="black" fill="none" stroke-width="6.0" stroke-linecap="round" stroke-linejoin="round" />
<path d="M 85.0 168.75 L 83.75 168.75 L 81.25 168.75 L 83.75 167.5 L 95.0 161.25 L 111.25 153.75 L 126.25 146.25 L 130.0 143.75 L 121.25 147.5 " stroke="black" fill="none" stroke-width="6.0" stroke-linecap="round" stroke-linejoin="round" />
<path d="M 91.25 183.75 L 90.0 185.0 L 85.0 191.25 L 85.0 191.25 L 92.5 188.75 L 105.0 180.0 L 116.25 170.0 L 123.75 162.5 L 118.75 161.25 " stroke="black" fill="none" stroke-width="6.0" stroke-linecap="round" stroke-linejoin="round" />
<path d="M 66.25 223.75 L 65.0 227.5 L 72.5 225.0 L 92.5 212.5 L 120.0 196.25 L 141.25 182.5 L 145.0 177.5 L 142.5 176.25 L 132.5 182.5 L 125.0 185.0 L 117.5 187.5 L 110.0 187.5 L 107.5 187.5 L 106.25 185.0 L 106.25 185.0 L 106.25 192.5 L 107.5 212.5 L 107.5 242.5 L 106.25 258.75 L 101.25 262.5 L 100.0 261.25 " stroke="black" fill="none" stroke-width="6.0" stroke-linecap="round" stroke-linejoin="round" />
<path d="M 168.75 82.5 L 167.5 81.25 L 166.25 81.25 L 172.5 81.25 L 187.5 81.25 L 205.0 81.25 L 218.75 82.5 L 222.5 85.0 L 218.75 88.75 L 206.25 96.25 L 191.25 103.75 L 173.75 111.25 L 155.0 118.75 L 143.75 123.75 L 140.0 126.25 L 143.75 126.25 L 157.5 122.5 L 180.0 115.0 L 206.25 105.0 L 226.25 95.0 L 236.25 87.5 L 231.25 86.25 " stroke="black" fill="none" stroke-width="6.0" stroke-linecap="round" stroke-linejoin="round" />
<path d="M 185.0 67.5 L 183.75 66.25 L 181.25 66.25 L 180.0 72.5 L 181.25 88.75 L 182.5 112.5 L 182.5 117.5 " stroke="black" fill="none" stroke-width="6.0" stroke-linecap="round" stroke-linejoin="round" />
<path d="M 175.0 137.5 L 175.0 136.25 L 172.5 136.25 L 171.25 137.5 L 172.5 145.0 L 176.25 153.75 L 178.75 160.0 L 178.75 161.25 " stroke="black" fill="none" stroke-width="6.0" stroke-linecap="round" stroke-linejoin="round" />
<path d="M 177.5 141.25 L 177.5 140.0 L 173.75 137.5 L 173.75 136.25 L 183.75 135.0 L 197.5 133.75 L 208.75 132.5 L 215.0 132.5 L 213.75 136.25 L 205.0 143.75 L 193.75 152.5 L 180.0 161.25 L 171.25 167.5 L 170.0 168.75 L 178.75 167.5 L 193.75 160.0 L 207.5 151.25 L 217.5 145.0 L 217.5 143.75 " stroke="black" fill="none" stroke-width="6.0" stroke-linecap="round" stroke-linejoin="round" />
<path d="M 153.75 196.25 L 148.75 200.0 L 150.0 200.0 L 162.5 196.25 L 183.75 188.75 L 202.5 181.25 L 211.25 177.5 L 208.75 180.0 L 198.75 191.25 L 186.25 203.75 L 172.5 216.25 L 157.5 230.0 L 150.0 242.5 L 150.0 246.25 L 160.0 246.25 L 178.75 243.75 L 202.5 233.75 L 223.75 222.5 L 241.25 215.0 L 248.75 211.25 L 247.5 211.25 L 241.25 210.0 L 232.5 208.75 L 223.75 206.25 L 213.75 201.25 L 206.25 196.25 L 203.75 188.75 L 202.5 180.0 L 202.5 170.0 L 201.25 163.75 L 201.25 160.0 L 202.5 157.5 L 203.75 156.25 L 205.0 156.25 L 205.0 157.5 L 205.0 170.0 L 206.25 193.75 L 207.5 230.0 L 210.0 260.0 L 210.0 278.75 L 211.25 288.75 L 210.0 291.25 L 208.75 291.25 L 205.0 288.75 " stroke="black" fill="none" stroke-width="6.0" stroke-linecap="round" stroke-linejoin="round" />
</svg>