<svg xmlns="http://www.w3.org/2000/svg" width="300" height="300" viewBox="0 0 300 300">
<path d="M 100.0 77.5 L 100.0 77.5 L 98.75 76.25 L 98.75 75.0 L 112.5 73.75 L 138.75 67.5 L 162.5 56.25 L 176.25 48.75 L 173.75 46.25 " stroke="black" fill="none" stroke-width="6.0" stroke-linecap="round" stroke-linejoin="round" />
<path d="M 67.5 110.0 L 66.25 115.0 L 71.25 126.25 L 85.0 141.25 L 100.0 152.5 L 107.5 157.5 L 108.75 157.5 " stroke="black" fill="none" stroke-width="6.0" stroke-linecap="round" stroke-linejoin="round" />
<path d="M 82.5 128.75 L 77.5 125.0 L 77.5 122.5 L 90.0 117.5 L 118.75 107.5 L 158.75 98.75 L 195.0 95.0 L 211.25 97.5 L 210.0 106.25 L 197.5 121.25 L 173.75 133.75 L 156.25 138.75 " stroke="black" fill="none" stroke-width="6.0" stroke-linecap="round" stroke-linejoin="round" />
<path d="M 143.75 82.5 L 143.75 80.0 L 142.5 76.25 L 142.5 75.0 L 142.5 86.25 L 142.5 106.25 L 143.75 125.0 L 143.75 128.75 " stroke="black" fill="none" stroke-width="6.0" stroke-linecap="round" stroke-linejoin="round" />
<path d="M 172.5 77.5 L 176.25 73.75 L 177.5 72.5 L 172.5 85.0 L 163.75 101.25 L 153.75 121.25 L 142.5 135.0 L 136.25 136.25 " stroke="black" fill="none" stroke-width="6.0" stroke-linecap="round" stroke-linejoin="round" />
<path d="M 110.0 95.0 L 108.75 90.0 L 111.25 90.0 L 120.0 97.5 L 131.25 118.75 L 141.25 143.75 " stroke="black" fill="none" stroke-width="6.0" stroke-linecap="round" stroke-linejoin="round" />
<path d="M 76.25 213.75 L 62.5 213.75 L 76.25 215.0 L 87.5 210.0 L 108.75 195.0 L 138.75 175.0 L 152.5 162.5 L 153.75 158.75 L 150.0 158.75 L 141.25 160.0 L 130.0 162.5 L 120.0 166.25 L 115.0 168.75 L 113.75 168.75 L 116.25 176.25 L 121.25 196.25 L 126.25 232.5 L 127.5 262.5 L 127.5 273.75 L 122.5 276.25 L 113.75 273.75 " stroke="black" fill="none" stroke-width="6.0" stroke-linecap="round" stroke-linejoin="round" />
<path d="M 120.0 197.5 L 112.5 201.25 L 102.5 216.25 L 90.0 242.5 L 80.0 258.75 L 72.5 260.0 L 71.25 255.0 " stroke="black" fill="none" stroke-width="6.0" stroke-linecap="round" stroke-linejoin="round" />
<path d="M 102.5 206.25 L 103.75 205.0 L 112.5 201.25 L 125.0 201.25 L 140.0 212.5 L 152.5 227.5 L 163.75 236.25 " stroke="black" fill="none" stroke-width="6.0" stroke-linecap="round" stroke-linejoin="round" />
<path d="M 173.75 158.75 L 170.0 156.25 L 167.5 156.25 L 167.5 177.5 L 166.25 218.75 L 166.25 252.5 L 168.75 266.25 L 170.0 268.75 " stroke="black" fill="none" stroke-width="6.0" stroke-linecap="round" stroke-linejoin="round" />
<path d="M 162.5 165.0 L 161.25 165.0 L 162.5 162.5 L 173.75 157.5 L 190.0 152.5 L 205.0 150.0 L 215.0 163.75 L 220.0 197.5 L 220.0 233.75 L 218.75 256.25 L 220.0 270.0 L 220.0 271.25 L 220.0 267.5 L 217.5 257.5 L 212.5 245.0 L 206.25 231.25 L 197.5 220.0 " stroke="black" fill="none" stroke-width="6.0" stroke-linecap="round" stroke-linejoin="round" />
<path d="M 177.5 213.75 L 175.0 213.75 L 170.0 213.75 L 167.5 212.5 L 167.5 212.5 L 172.5 208.75 L 186.25 200.0 L 202.5 187.5 L 213.75 176.25 L 216.25 172.5 " stroke="black" fill="none" stroke-width="6.0" stroke-linecap="round" stroke-linejoin="round" />
<path d="M 167.5 245.0 L 162.5 248.75 L 160.0 250.0 L 166.25 247.5 L 181.25 237.5 L 198.75 223.75 L 210.0 211.25 L 211.25 207.5 " stroke="black" fill="none" stroke-width="6.0" stroke-linecap="round" stroke-linejoin="round" />
<path d="M 177.5 263.75 L 177.5 265.0 L 176.25 267.5 L 177.5 267.5 L 190.0 260.0 L 201.25 251.25 " stroke="black" fill="none" stroke-width="6.0" stroke-linecap="round" stroke-linejoin="round" />
</svg>