<svg xmlns="http://www.w3.org/2000/svg" width="300" height="300" viewBox="0 0 300 300">
<path d="M 107.5 77.5 L 106.25 77.5 L 106.25 77.5 L 116.25 77.5 L 140.0 76.25 L 171.25 70.0 L 193.75 63.75 L 197.5 61.25 L 186.25 66.25 " stroke="black" fill="none" stroke-width="6.0" stroke-linecap="round" stroke-linejoin="round" />
<path d="M 85.0 101.25 L 82.5 102.5 L 81.25 103.75 L 81.25 108.75 L 87.5 126.25 L 93.75 147.5 L 97.5 156.25 L 98.75 156.25 " stroke="black" fill="none" stroke-width="6.0" stroke-linecap="round" stroke-linejoin="round" />
<path d="M 88.75 110.0 L 87.5 110.0 L 86.25 108.75 L 92.5 107.5 L 118.75 103.75 L 161.25 100.0 L 203.75 97.5 L 221.25 100.0 L 226.25 105.0 L 220.0 112.5 L 205.0 121.25 L 190.0 128.75 L 180.0 130.0 " stroke="black" fill="none" stroke-width="6.0" stroke-linecap="round" stroke-linejoin="round" />
<path d="M 155.0 82.5 L 155.0 82.5 L 153.75 81.25 L 152.5 81.25 L 152.5 95.0 L 153.75 116.25 L 155.0 130.0 L 156.25 130.0 " stroke="black" fill="none" stroke-width="6.0" stroke-linecap="round" stroke-linejoin="round" />
<path d="M 188.75 82.5 L 190.0 77.5 L 190.0 78.75 L 180.0 92.5 L 166.25 110.0 L 151.25 127.5 L 137.5 132.5 L 135.0 132.5 " stroke="black" fill="none" stroke-width="6.0" stroke-linecap="round" stroke-linejoin="round" />
<path d="M 122.5 103.75 L 120.0 98.75 L 118.75 97.5 L 123.75 102.5 L 130.0 120.0 L 137.5 141.25 L 138.75 146.25 " stroke="black" fill="none" stroke-width="6.0" stroke-linecap="round" stroke-linejoin="round" />
<path d="M 111.25 152.5 L 111.25 152.5 L 110.0 153.75 L 110.0 156.25 L 111.25 162.5 L 115.0 170.0 L 117.5 173.75 L 117.5 176.25 L 113.75 176.25 L 108.75 172.5 L 106.25 167.5 L 107.5 161.25 L 115.0 156.25 L 123.75 153.75 L 132.5 155.0 L 136.25 161.25 L 131.25 172.5 L 118.75 182.5 L 110.0 187.5 L 106.25 185.0 L 106.25 182.5 " stroke="black" fill="none" stroke-width="6.0" stroke-linecap="round" stroke-linejoin="round" />
<path d="M 148.75 148.75 L 148.75 148.75 L 148.75 148.75 L 148.75 150.0 L 148.75 156.25 L 150.0 168.75 L 152.5 177.5 L 153.75 178.75 L 153.75 178.75 " stroke="black" fill="none" stroke-width="6.0" stroke-linecap="round" stroke-linejoin="round" />
<path d="M 153.75 152.5 L 153.75 152.5 L 151.25 151.25 L 151.25 151.25 L 151.25 151.25 L 157.5 152.5 L 166.25 155.0 L 171.25 157.5 L 171.25 162.5 L 163.75 170.0 L 153.75 176.25 L 151.25 177.5 L 151.25 175.0 " stroke="black" fill="none" stroke-width="6.0" stroke-linecap="round" stroke-linejoin="round" />
<path d="M 187.5 143.75 L 186.25 143.75 L 185.0 142.5 L 185.0 143.75 L 185.0 151.25 L 186.25 160.0 L 188.75 165.0 L 188.75 165.0 L 188.75 160.0 L 188.75 153.75 L 188.75 148.75 L 188.75 143.75 L 190.0 141.25 L 193.75 140.0 L 198.75 142.5 L 200.0 150.0 L 196.25 160.0 L 191.25 165.0 L 190.0 167.5 L 192.5 161.25 L 198.75 150.0 " stroke="black" fill="none" stroke-width="6.0" stroke-linecap="round" stroke-linejoin="round" />
<path d="M 88.75 203.75 L 87.5 203.75 L 88.75 205.0 L 105.0 202.5 L 142.5 192.5 L 181.25 177.5 L 205.0 162.5 L 210.0 157.5 L 206.25 156.25 L 203.75 156.25 " stroke="black" fill="none" stroke-width="6.0" stroke-linecap="round" stroke-linejoin="round" />
<path d="M 138.75 201.25 L 133.75 208.75 L 130.0 222.5 L 125.0 237.5 L 122.5 245.0 L 121.25 242.5 L 121.25 237.5 " stroke="black" fill="none" stroke-width="6.0" stroke-linecap="round" stroke-linejoin="round" />
<path d="M 131.25 211.25 L 131.25 210.0 L 131.25 210.0 L 133.75 211.25 L 140.0 220.0 L 150.0 228.75 L 155.0 230.0 " stroke="black" fill="none" stroke-width="6.0" stroke-linecap="round" stroke-linejoin="round" />
<path d="M 202.5 188.75 L 201.25 188.75 L 193.75 191.25 L 182.5 198.75 L 170.0 211.25 L 161.25 222.5 L 160.0 225.0 L 167.5 225.0 L 182.5 222.5 L 197.5 218.75 L 210.0 213.75 L 216.25 211.25 L 212.5 210.0 L 210.0 210.0 " stroke="black" fill="none" stroke-width="6.0" stroke-linecap="round" stroke-linejoin="round" />
<path d="M 158.75 187.5 L 158.75 187.5 L 158.75 186.25 L 161.25 192.5 L 163.75 213.75 L 162.5 241.25 L 155.0 256.25 L 146.25 258.75 L 132.5 260.0 L 118.75 260.0 L 111.25 260.0 L 110.0 260.0 L 110.0 260.0 L 111.25 260.0 L 117.5 260.0 L 132.5 260.0 L 150.0 257.5 L 173.75 255.0 L 200.0 253.75 L 225.0 253.75 L 250.0 253.75 L 262.5 252.5 L 265.0 252.5 L 265.0 248.75 " stroke="black" fill="none" stroke-width="6.0" stroke-linecap="round" stroke-linejoin="round" />
</svg>