<svg xmlns="http://www.w3.org/2000/svg" width="300" height="300" viewBox="0 0 300 300">
<path d="M 95.0 70.0 L 95.0 70.0 L 95.0 70.0 L 95.0 70.0 L 92.5 73.75 L 86.25 85.0 L 78.75 95.0 L 75.0 100.0 L 73.75 100.0 L 77.5 98.75 L 87.5 95.0 L 97.5 92.5 L 108.75 92.5 L 117.5 93.75 L 120.0 100.0 L 113.75 113.75 L 97.5 132.5 L 78.75 148.75 L 63.75 156.25 L 55.0 156.25 L 53.75 151.25 " stroke="black" fill="none" stroke-width="6.0" stroke-linecap="round" stroke-linejoin="round" />
<path d="M 73.75 106.25 L 73.75 106.25 L 73.75 106.25 L 78.75 106.25 L 91.25 108.75 L 106.25 110.0 L 110.0 112.5 " stroke="black" fill="none" stroke-width="6.0" stroke-linecap="round" stroke-linejoin="round" />
<path d="M 77.5 122.5 L 77.5 122.5 L 76.25 122.5 L 78.75 123.75 L 90.0 125.0 L 96.25 126.25 " stroke="black" fill="none" stroke-width="6.0" stroke-linecap="round" stroke-linejoin="round" />
<path d="M 72.5 166.25 L 68.75 167.5 L 66.25 168.75 L 66.25 175.0 L 67.5 183.75 L 70.0 188.75 L 76.25 190.0 L 87.5 185.0 L 98.75 175.0 L 107.5 165.0 L 113.75 158.75 L 112.5 158.75 L 106.25 161.25 " stroke="black" fill="none" stroke-width="6.0" stroke-linecap="round" stroke-linejoin="round" />
<path d="M 61.25 218.75 L 61.25 220.0 L 62.5 220.0 L 72.5 216.25 L 91.25 206.25 L 106.25 196.25 L 115.0 188.75 L 112.5 187.5 L 102.5 192.5 L 95.0 195.0 L 90.0 195.0 L 87.5 195.0 L 87.5 193.75 L 88.75 193.75 L 91.25 197.5 L 92.5 211.25 L 92.5 230.0 L 90.0 245.0 L 85.0 248.75 " stroke="black" fill="none" stroke-width="6.0" stroke-linecap="round" stroke-linejoin="round" />
<path d="M 62.5 223.75 L 62.5 222.5 L 62.5 222.5 L 62.5 222.5 L 65.0 226.25 L 70.0 235.0 L 76.25 243.75 L 86.25 247.5 L 98.75 243.75 L 113.75 233.75 L 125.0 221.25 L 130.0 213.75 L 130.0 211.25 L 127.5 210.0 L 125.0 210.0 L 123.75 210.0 L 122.5 210.0 L 122.5 208.75 L 122.5 208.75 L 122.5 208.75 L 122.5 208.75 L 122.5 208.75 L 122.5 208.75 L 126.25 212.5 L 131.25 220.0 L 135.0 230.0 " stroke="black" fill="none" stroke-width="6.0" stroke-linecap="round" stroke-linejoin="round" />
<path d="M 143.75 103.75 L 142.5 103.75 L 141.25 103.75 L 141.25 105.0 L 143.75 126.25 L 147.5 171.25 L 146.25 210.0 L 142.5 226.25 L 133.75 232.5 L 131.25 232.5 " stroke="black" fill="none" stroke-width="6.0" stroke-linecap="round" stroke-linejoin="round" />
<path d="M 141.25 90.0 L 141.25 87.5 L 143.75 82.5 L 151.25 78.75 L 168.75 78.75 L 191.25 82.5 L 210.0 86.25 L 218.75 88.75 L 221.25 91.25 L 222.5 92.5 L 223.75 95.0 L 225.0 101.25 L 227.5 117.5 L 230.0 142.5 L 235.0 173.75 L 246.25 206.25 L 256.25 225.0 L 263.75 235.0 L 268.75 240.0 L 270.0 240.0 L 271.25 240.0 L 271.25 238.75 L 273.75 230.0 L 275.0 216.25 L 276.25 201.25 L 273.75 188.75 L 266.25 168.75 " stroke="black" fill="none" stroke-width="6.0" stroke-linecap="round" stroke-linejoin="round" />
<path d="M 167.5 127.5 L 162.5 128.75 L 160.0 128.75 L 160.0 128.75 L 171.25 128.75 L 187.5 125.0 L 201.25 121.25 L 205.0 120.0 " stroke="black" fill="none" stroke-width="6.0" stroke-linecap="round" stroke-linejoin="round" />
<path d="M 165.0 145.0 L 165.0 147.5 L 165.0 155.0 L 167.5 167.5 L 172.5 178.75 L 177.5 183.75 L 177.5 182.5 L 175.0 176.25 L 168.75 170.0 L 163.75 165.0 L 161.25 161.25 L 163.75 157.5 L 177.5 152.5 L 195.0 150.0 L 208.75 148.75 L 212.5 150.0 L 206.25 158.75 L 192.5 170.0 L 177.5 181.25 L 170.0 185.0 L 171.25 183.75 L 185.0 172.5 L 196.25 161.25 L 203.75 151.25 L 203.75 147.5 L 202.5 147.5 " stroke="black" fill="none" stroke-width="6.0" stroke-linecap="round" stroke-linejoin="round" />
<path d="M 182.5 132.5 L 182.5 131.25 L 182.5 131.25 L 182.5 135.0 L 182.5 158.75 L 182.5 190.0 L 181.25 206.25 L 180.0 210.0 L 180.0 208.75 L 181.25 207.5 L 187.5 205.0 L 196.25 200.0 L 205.0 195.0 L 210.0 190.0 L 212.5 186.25 L 212.5 185.0 L 210.0 185.0 L 206.25 183.75 L 203.75 182.5 L 202.5 181.25 L 202.5 181.25 L 201.25 181.25 L 201.25 181.25 L 206.25 190.0 L 215.0 203.75 L 225.0 222.5 L 226.25 227.5 " stroke="black" fill="none" stroke-width="6.0" stroke-linecap="round" stroke-linejoin="round" />
</svg>