<svg xmlns="http://www.w3.org/2000/svg" width="300" height="300" viewBox="0 0 300 300">
<path d="M 98.75 73.75 L 97.5 73.75 L 95.0 73.75 L 92.5 73.75 L 87.5 90.0 L 75.0 135.0 L 56.25 181.25 L 43.75 198.75 L 40.0 198.75 " stroke="black" fill="none" stroke-width="6.0" stroke-linecap="round" stroke-linejoin="round" />
<path d="M 88.75 86.25 L 88.75 85.0 L 90.0 82.5 L 95.0 82.5 L 110.0 86.25 L 130.0 96.25 L 143.75 105.0 L 147.5 113.75 " stroke="black" fill="none" stroke-width="6.0" stroke-linecap="round" stroke-linejoin="round" />
<path d="M 93.75 132.5 L 92.5 132.5 L 90.0 133.75 L 90.0 133.75 L 96.25 133.75 L 107.5 132.5 L 116.25 131.25 L 120.0 131.25 L 116.25 136.25 L 106.25 142.5 L 97.5 148.75 L 91.25 156.25 L 88.75 160.0 L 88.75 161.25 L 95.0 158.75 L 106.25 153.75 L 117.5 148.75 L 123.75 146.25 L 123.75 148.75 L 112.5 160.0 L 101.25 173.75 L 91.25 183.75 L 87.5 190.0 L 87.5 190.0 L 96.25 183.75 L 107.5 176.25 L 120.0 171.25 L 126.25 170.0 L 130.0 175.0 L 121.25 188.75 L 108.75 201.25 L 97.5 208.75 L 90.0 210.0 L 85.0 203.75 L 82.5 195.0 L 82.5 182.5 L 81.25 171.25 L 81.25 168.75 L 82.5 176.25 L 85.0 198.75 L 87.5 223.75 L 90.0 242.5 L 95.0 246.25 L 102.5 237.5 L 113.75 220.0 L 121.25 206.25 L 126.25 197.5 L 126.25 195.0 L 126.25 195.0 L 125.0 196.25 L 125.0 201.25 L 130.0 208.75 L 136.25 218.75 L 143.75 227.5 L 148.75 231.25 " stroke="black" fill="none" stroke-width="6.0" stroke-linecap="round" stroke-linejoin="round" />
<path d="M 158.75 101.25 L 157.5 101.25 L 157.5 101.25 L 160.0 101.25 L 173.75 101.25 L 193.75 98.75 L 210.0 95.0 L 216.25 90.0 L 213.75 90.0 L 208.75 92.5 " stroke="black" fill="none" stroke-width="6.0" stroke-linecap="round" stroke-linejoin="round" />
<path d="M 157.5 157.5 L 157.5 158.75 L 158.75 162.5 L 168.75 160.0 L 190.0 147.5 L 210.0 131.25 L 221.25 113.75 L 218.75 105.0 L 216.25 103.75 " stroke="black" fill="none" stroke-width="6.0" stroke-linecap="round" stroke-linejoin="round" />
<path d="M 180.0 112.5 L 180.0 116.25 L 180.0 131.25 L 182.5 156.25 L 180.0 190.0 L 172.5 213.75 L 165.0 223.75 L 157.5 225.0 L 153.75 217.5 " stroke="black" fill="none" stroke-width="6.0" stroke-linecap="round" stroke-linejoin="round" />
<path d="M 187.5 158.75 L 190.0 160.0 L 196.25 168.75 L 210.0 186.25 L 227.5 203.75 L 246.25 216.25 L 261.25 225.0 L 267.5 232.5 L 267.5 238.75 " stroke="black" fill="none" stroke-width="6.0" stroke-linecap="round" stroke-linejoin="round" />
</svg>