<svg xmlns="http://www.w3.org/2000/svg" width="300" height="300" viewBox="0 0 300 300">
<path d="M 80.0 122.5 L 76.25 125.0 L 70.0 127.5 L 70.0 127.5 L 80.0 125.0 L 95.0 120.0 L 112.5 111.25 L 127.5 105.0 L 133.75 101.25 L 126.25 101.25 " stroke="black" fill="none" stroke-width="6.0" stroke-linecap="round" stroke-linejoin="round" />
<path d="M 86.25 147.5 L 86.25 150.0 L 83.75 161.25 L 81.25 177.5 L 76.25 196.25 L 72.5 205.0 L 72.5 205.0 L 76.25 201.25 L 88.75 193.75 L 102.5 185.0 L 117.5 176.25 L 128.75 168.75 L 136.25 165.0 L 136.25 162.5 L 131.25 162.5 L 126.25 162.5 L 122.5 161.25 L 120.0 160.0 L 118.75 160.0 L 118.75 160.0 L 118.75 160.0 L 120.0 160.0 L 122.5 165.0 L 127.5 172.5 L 135.0 182.5 L 140.0 191.25 L 141.25 195.0 " stroke="black" fill="none" stroke-width="6.0" stroke-linecap="round" stroke-linejoin="round" />
<path d="M 96.25 102.5 L 93.75 101.25 L 92.5 100.0 L 92.5 98.75 L 93.75 113.75 L 97.5 150.0 L 98.75 198.75 L 98.75 220.0 L 98.75 226.25 L 98.75 226.25 L 106.25 222.5 L 117.5 216.25 L 128.75 207.5 L 137.5 201.25 L 142.5 193.75 " stroke="black" fill="none" stroke-width="6.0" stroke-linecap="round" stroke-linejoin="round" />
<path d="M 165.0 92.5 L 160.0 97.5 L 157.5 98.75 L 163.75 98.75 L 177.5 98.75 L 192.5 96.25 L 205.0 92.5 L 207.5 91.25 L 202.5 93.75 L 188.75 101.25 L 176.25 108.75 L 167.5 115.0 L 165.0 125.0 L 167.5 146.25 L 172.5 181.25 L 176.25 208.75 L 178.75 218.75 L 180.0 220.0 L 180.0 213.75 L 180.0 205.0 L 180.0 200.0 " stroke="black" fill="none" stroke-width="6.0" stroke-linecap="round" stroke-linejoin="round" />
<path d="M 168.75 140.0 L 168.75 138.75 L 168.75 137.5 L 173.75 133.75 L 188.75 127.5 L 207.5 125.0 L 221.25 131.25 L 226.25 151.25 L 222.5 180.0 L 213.75 200.0 L 208.75 203.75 L 205.0 202.5 L 203.75 197.5 " stroke="black" fill="none" stroke-width="6.0" stroke-linecap="round" stroke-linejoin="round" />
<path d="M 177.5 156.25 L 172.5 157.5 L 168.75 157.5 L 172.5 157.5 L 185.0 152.5 L 200.0 146.25 L 213.75 138.75 L 220.0 132.5 L 215.0 133.75 " stroke="black" fill="none" stroke-width="6.0" stroke-linecap="round" stroke-linejoin="round" />
<path d="M 182.5 175.0 L 180.0 176.25 L 178.75 177.5 L 186.25 175.0 L 198.75 167.5 L 211.25 157.5 L 218.75 151.25 L 218.75 150.0 " stroke="black" fill="none" stroke-width="6.0" stroke-linecap="round" stroke-linejoin="round" />
<path d="M 185.0 215.0 L 185.0 216.25 L 185.0 217.5 L 191.25 215.0 L 203.75 206.25 L 216.25 196.25 L 223.75 190.0 L 220.0 192.5 L 208.75 205.0 L 196.25 222.5 L 181.25 245.0 L 168.75 257.5 L 166.25 257.5 L 166.25 255.0 " stroke="black" fill="none" stroke-width="6.0" stroke-linecap="round" stroke-linejoin="round" />
<path d="M 207.5 208.75 L 207.5 208.75 L 208.75 207.5 L 211.25 207.5 L 218.75 213.75 L 231.25 233.75 L 243.75 252.5 L 247.5 258.75 L 248.75 260.0 L 247.5 258.75 L 245.0 257.5 " stroke="black" fill="none" stroke-width="6.0" stroke-linecap="round" stroke-linejoin="round" />
</svg>