<svg xmlns="http://www.w3.org/2000/svg" width="300" height="300" viewBox="0 0 300 300">
<path d="M 83.75 97.5 L 81.25 98.75 L 77.5 100.0 L 77.5 100.0 L 83.75 100.0 L 98.75 100.0 L 117.5 97.5 L 135.0 97.5 L 141.25 97.5 L 137.5 102.5 L 123.75 111.25 L 108.75 118.75 L 96.25 123.75 L 92.5 123.75 " stroke="black" fill="none" stroke-width="6.0" stroke-linecap="round" stroke-linejoin="round" />
<path d="M 78.75 102.5 L 76.25 102.5 L 73.75 103.75 L 72.5 112.5 L 72.5 137.5 L 73.75 173.75 L 73.75 201.25 L 71.25 205.0 " stroke="black" fill="none" stroke-width="6.0" stroke-linecap="round" stroke-linejoin="round" />
<path d="M 97.5 63.75 L 98.75 58.75 L 100.0 62.5 L 101.25 83.75 L 101.25 117.5 L 98.75 151.25 L 96.25 170.0 L 93.75 177.5 L 91.25 180.0 L 91.25 180.0 L 91.25 180.0 L 92.5 177.5 L 96.25 172.5 L 103.75 165.0 L 115.0 157.5 L 125.0 151.25 L 131.25 150.0 L 132.5 155.0 L 123.75 173.75 L 110.0 192.5 L 97.5 208.75 L 88.75 220.0 L 85.0 221.25 L 83.75 221.25 " stroke="black" fill="none" stroke-width="6.0" stroke-linecap="round" stroke-linejoin="round" />
<path d="M 92.5 175.0 L 92.5 175.0 L 90.0 178.75 L 91.25 187.5 L 101.25 202.5 L 140.0 222.5 L 152.5 223.75 L 157.5 227.5 L 157.5 230.0 " stroke="black" fill="none" stroke-width="6.0" stroke-linecap="round" stroke-linejoin="round" />
<path d="M 181.25 75.0 L 175.0 76.25 L 170.0 78.75 L 171.25 78.75 L 183.75 80.0 L 198.75 80.0 L 212.5 80.0 L 220.0 80.0 L 220.0 80.0 L 208.75 86.25 L 195.0 93.75 L 182.5 101.25 L 171.25 105.0 L 167.5 106.25 L 168.75 103.75 L 171.25 101.25 L 172.5 101.25 L 172.5 105.0 L 171.25 118.75 L 171.25 147.5 L 172.5 178.75 L 177.5 195.0 L 182.5 197.5 L 182.5 196.25 L 182.5 195.0 " stroke="black" fill="none" stroke-width="6.0" stroke-linecap="round" stroke-linejoin="round" />
<path d="M 167.5 123.75 L 166.25 123.75 L 166.25 122.5 L 170.0 118.75 L 186.25 113.75 L 206.25 107.5 L 221.25 106.25 L 231.25 113.75 L 232.5 138.75 L 231.25 165.0 L 227.5 185.0 L 225.0 195.0 L 223.75 196.25 L 220.0 196.25 L 216.25 193.75 " stroke="black" fill="none" stroke-width="6.0" stroke-linecap="round" stroke-linejoin="round" />
<path d="M 183.75 150.0 L 180.0 151.25 L 175.0 153.75 L 176.25 155.0 L 187.5 150.0 L 201.25 142.5 L 212.5 133.75 L 217.5 127.5 L 217.5 127.5 " stroke="black" fill="none" stroke-width="6.0" stroke-linecap="round" stroke-linejoin="round" />
<path d="M 186.25 161.25 L 183.75 166.25 L 182.5 168.75 L 187.5 168.75 L 198.75 163.75 L 211.25 156.25 L 220.0 148.75 L 221.25 147.5 " stroke="black" fill="none" stroke-width="6.0" stroke-linecap="round" stroke-linejoin="round" />
<path d="M 186.25 195.0 L 182.5 200.0 L 181.25 202.5 L 190.0 202.5 L 203.75 196.25 L 218.75 187.5 L 231.25 178.75 L 233.75 177.5 L 223.75 186.25 L 210.0 202.5 L 197.5 220.0 L 186.25 235.0 L 182.5 238.75 " stroke="black" fill="none" stroke-width="6.0" stroke-linecap="round" stroke-linejoin="round" />
<path d="M 215.0 205.0 L 215.0 206.25 L 216.25 211.25 L 222.5 220.0 L 236.25 232.5 L 248.75 241.25 L 253.75 243.75 L 253.75 245.0 L 252.5 246.25 " stroke="black" fill="none" stroke-width="6.0" stroke-linecap="round" stroke-linejoin="round" />
</svg>