<svg xmlns="http://www.w3.org/2000/svg" width="300" height="300" viewBox="0 0 300 300">
<path d="M 98.75 80.0 L 98.75 81.25 L 92.5 92.5 L 86.25 113.75 L 73.75 147.5 L 60.0 181.25 L 52.5 196.25 L 47.5 196.25 " stroke="black" fill="none" stroke-width="6.0" stroke-linecap="round" stroke-linejoin="round" />
<path d="M 92.5 91.25 L 96.25 93.75 L 108.75 96.25 L 127.5 102.5 L 143.75 111.25 L 150.0 116.25 L 150.0 120.0 " stroke="black" fill="none" stroke-width="6.0" stroke-linecap="round" stroke-linejoin="round" />
<path d="M 97.5 143.75 L 97.5 143.75 L 97.5 143.75 L 97.5 143.75 L 102.5 143.75 L 108.75 141.25 L 112.5 140.0 " stroke="black" fill="none" stroke-width="6.0" stroke-linecap="round" stroke-linejoin="round" />
<path d="M 91.25 163.75 L 91.25 163.75 L 91.25 163.75 L 97.5 161.25 L 111.25 155.0 L 125.0 150.0 L 128.75 150.0 L 121.25 157.5 L 110.0 170.0 L 98.75 182.5 L 91.25 191.25 L 88.75 195.0 L 92.5 192.5 L 102.5 183.75 L 113.75 175.0 L 123.75 167.5 L 130.0 165.0 L 130.0 168.75 L 121.25 182.5 L 110.0 196.25 L 98.75 205.0 L 91.25 207.5 " stroke="black" fill="none" stroke-width="6.0" stroke-linecap="round" stroke-linejoin="round" />
<path d="M 86.25 168.75 L 82.5 178.75 L 82.5 193.75 L 85.0 213.75 L 90.0 233.75 L 95.0 242.5 L 102.5 242.5 L 111.25 233.75 L 120.0 222.5 L 125.0 211.25 L 127.5 205.0 L 127.5 202.5 L 125.0 202.5 L 122.5 202.5 L 121.25 202.5 L 121.25 202.5 L 121.25 202.5 L 121.25 202.5 L 121.25 202.5 L 121.25 202.5 L 122.5 202.5 L 125.0 203.75 L 131.25 208.75 L 140.0 218.75 L 147.5 228.75 L 148.75 232.5 " stroke="black" fill="none" stroke-width="6.0" stroke-linecap="round" stroke-linejoin="round" />
<path d="M 157.5 78.75 L 157.5 78.75 L 156.25 82.5 L 156.25 87.5 L 160.0 97.5 L 168.75 106.25 L 181.25 108.75 L 193.75 106.25 L 211.25 92.5 L 220.0 85.0 L 223.75 82.5 L 225.0 82.5 L 225.0 92.5 L 226.25 116.25 L 230.0 150.0 L 233.75 180.0 L 235.0 195.0 L 236.25 200.0 L 236.25 200.0 L 236.25 200.0 L 232.5 196.25 L 227.5 190.0 L 221.25 185.0 " stroke="black" fill="none" stroke-width="6.0" stroke-linecap="round" stroke-linejoin="round" />
<path d="M 172.5 143.75 L 166.25 147.5 L 166.25 147.5 L 175.0 146.25 L 187.5 143.75 L 196.25 142.5 L 200.0 143.75 L 195.0 152.5 L 181.25 166.25 L 170.0 178.75 L 167.5 183.75 L 171.25 183.75 L 183.75 175.0 L 195.0 163.75 L 201.25 153.75 L 203.75 147.5 " stroke="black" fill="none" stroke-width="6.0" stroke-linecap="round" stroke-linejoin="round" />
<path d="M 166.25 157.5 L 163.75 166.25 L 165.0 185.0 L 172.5 206.25 L 180.0 217.5 L 200.0 225.0 L 218.75 223.75 L 238.75 221.25 L 253.75 221.25 L 262.5 221.25 L 266.25 220.0 L 267.5 218.75 L 267.5 216.25 L 267.5 212.5 L 267.5 207.5 L 266.25 198.75 L 263.75 181.25 L 260.0 156.25 " stroke="black" fill="none" stroke-width="6.0" stroke-linecap="round" stroke-linejoin="round" />
</svg>