<svg xmlns="http://www.w3.org/2000/svg" width="300" height="300" viewBox="0 0 300 300">
<path d="M 102.5 100.0 L 102.5 100.0 L 102.5 102.5 L 102.5 125.0 L 97.5 170.0 L 87.5 210.0 L 80.0 228.75 L 70.0 235.0 L 63.75 235.0 " stroke="black" fill="none" stroke-width="6.0" stroke-linecap="round" stroke-linejoin="round" />
<path d="M 98.75 112.5 L 101.25 111.25 L 112.5 106.25 L 138.75 100.0 L 166.25 92.5 L 192.5 87.5 L 207.5 83.75 L 211.25 83.75 L 211.25 91.25 L 211.25 112.5 L 211.25 152.5 L 217.5 198.75 L 233.75 230.0 L 250.0 243.75 L 261.25 248.75 L 265.0 248.75 L 266.25 246.25 L 263.75 238.75 L 256.25 226.25 L 242.5 208.75 L 233.75 202.5 " stroke="black" fill="none" stroke-width="6.0" stroke-linecap="round" stroke-linejoin="round" />
<path d="M 135.0 142.5 L 130.0 141.25 L 130.0 138.75 L 141.25 133.75 L 160.0 126.25 L 176.25 120.0 L 182.5 117.5 L 175.0 121.25 " stroke="black" fill="none" stroke-width="6.0" stroke-linecap="round" stroke-linejoin="round" />
<path d="M 112.5 165.0 L 113.75 168.75 L 121.25 176.25 L 138.75 190.0 L 150.0 198.75 L 153.75 201.25 L 153.75 201.25 L 147.5 198.75 L 137.5 193.75 L 127.5 187.5 L 121.25 182.5 L 118.75 177.5 L 132.5 171.25 L 153.75 161.25 L 182.5 152.5 L 197.5 151.25 L 197.5 155.0 L 183.75 170.0 L 166.25 188.75 L 148.75 202.5 L 141.25 205.0 L 141.25 200.0 " stroke="black" fill="none" stroke-width="6.0" stroke-linecap="round" stroke-linejoin="round" />
<path d="M 152.5 146.25 L 151.25 145.0 L 148.75 143.75 L 148.75 143.75 L 151.25 147.5 L 155.0 160.0 L 160.0 195.0 L 157.5 218.75 L 151.25 231.25 L 145.0 233.75 L 140.0 235.0 L 140.0 233.75 L 140.0 233.75 L 147.5 230.0 L 158.75 222.5 L 173.75 215.0 L 191.25 207.5 L 201.25 201.25 L 203.75 200.0 L 202.5 200.0 L 198.75 198.75 L 195.0 196.25 L 191.25 193.75 L 190.0 192.5 L 190.0 192.5 L 188.75 191.25 L 188.75 191.25 L 188.75 191.25 L 192.5 197.5 L 198.75 207.5 L 205.0 222.5 L 207.5 235.0 " stroke="black" fill="none" stroke-width="6.0" stroke-linecap="round" stroke-linejoin="round" />
</svg>