<svg xmlns="http://www.w3.org/2000/svg" width="300" height="300" viewBox="0 0 300 300">
<path d="M 102.5 96.25 L 102.5 96.25 L 102.5 96.25 L 100.0 103.75 L 92.5 137.5 L 83.75 185.0 L 76.25 215.0 L 73.75 223.75 L 73.75 222.5 " stroke="black" fill="none" stroke-width="6.0" stroke-linecap="round" stroke-linejoin="round" />
<path d="M 107.5 116.25 L 115.0 120.0 L 130.0 130.0 L 143.75 141.25 L 152.5 148.75 L 152.5 152.5 " stroke="black" fill="none" stroke-width="6.0" stroke-linecap="round" stroke-linejoin="round" />
<path d="M 101.25 158.75 L 106.25 158.75 L 115.0 158.75 L 125.0 158.75 L 131.25 160.0 L 130.0 163.75 L 121.25 171.25 L 108.75 180.0 L 97.5 188.75 L 92.5 193.75 L 92.5 195.0 L 101.25 195.0 L 115.0 190.0 L 128.75 186.25 L 136.25 185.0 L 136.25 186.25 L 128.75 193.75 L 118.75 201.25 L 110.0 206.25 L 102.5 211.25 L 100.0 211.25 L 101.25 212.5 L 108.75 216.25 L 121.25 223.75 L 135.0 231.25 L 147.5 233.75 " stroke="black" fill="none" stroke-width="6.0" stroke-linecap="round" stroke-linejoin="round" />
<path d="M 165.0 92.5 L 163.75 93.75 L 157.5 96.25 L 156.25 96.25 L 165.0 96.25 L 180.0 95.0 L 195.0 92.5 L 206.25 91.25 L 210.0 90.0 L 206.25 90.0 L 196.25 93.75 L 185.0 101.25 L 175.0 108.75 L 166.25 120.0 L 163.75 123.75 " stroke="black" fill="none" stroke-width="6.0" stroke-linecap="round" stroke-linejoin="round" />
<path d="M 170.0 122.5 L 170.0 122.5 L 168.75 126.25 L 170.0 143.75 L 175.0 181.25 L 181.25 207.5 L 185.0 215.0 L 186.25 213.75 L 186.25 207.5 L 186.25 205.0 " stroke="black" fill="none" stroke-width="6.0" stroke-linecap="round" stroke-linejoin="round" />
<path d="M 172.5 143.75 L 171.25 143.75 L 167.5 142.5 L 165.0 142.5 L 167.5 142.5 L 178.75 138.75 L 193.75 133.75 L 206.25 131.25 L 215.0 136.25 L 217.5 155.0 L 216.25 183.75 L 213.75 202.5 L 212.5 208.75 L 211.25 208.75 L 207.5 205.0 L 206.25 200.0 " stroke="black" fill="none" stroke-width="6.0" stroke-linecap="round" stroke-linejoin="round" />
<path d="M 177.5 167.5 L 177.5 167.5 L 173.75 167.5 L 172.5 167.5 L 177.5 166.25 L 190.0 158.75 L 201.25 150.0 L 207.5 142.5 L 207.5 142.5 " stroke="black" fill="none" stroke-width="6.0" stroke-linecap="round" stroke-linejoin="round" />
<path d="M 178.75 183.75 L 176.25 188.75 L 176.25 190.0 L 187.5 185.0 L 200.0 176.25 L 211.25 166.25 L 215.0 161.25 " stroke="black" fill="none" stroke-width="6.0" stroke-linecap="round" stroke-linejoin="round" />
<path d="M 192.5 216.25 L 198.75 211.25 L 208.75 203.75 L 213.75 200.0 L 213.75 201.25 L 203.75 213.75 L 193.75 230.0 L 181.25 245.0 L 168.75 253.75 L 167.5 253.75 " stroke="black" fill="none" stroke-width="6.0" stroke-linecap="round" stroke-linejoin="round" />
<path d="M 205.0 213.75 L 205.0 215.0 L 207.5 220.0 L 216.25 230.0 L 228.75 246.25 L 241.25 260.0 L 245.0 265.0 L 246.25 265.0 " stroke="black" fill="none" stroke-width="6.0" stroke-linecap="round" stroke-linejoin="round" />
</svg>