<svg xmlns="http://www.w3.org/2000/svg" width="300" height="300" viewBox="0 0 300 300">
<path d="M 80.0 95.0 L 80.0 95.0 L 77.5 95.0 L 75.0 95.0 L 77.5 95.0 L 88.75 93.75 L 105.0 90.0 L 116.25 85.0 L 117.5 85.0 " stroke="black" fill="none" stroke-width="6.0" stroke-linecap="round" stroke-linejoin="round" />
<path d="M 70.0 130.0 L 68.75 132.5 L 67.5 138.75 L 71.25 151.25 L 80.0 166.25 L 85.0 173.75 L 86.25 176.25 L 86.25 173.75 " stroke="black" fill="none" stroke-width="6.0" stroke-linecap="round" stroke-linejoin="round" />
<path d="M 76.25 148.75 L 71.25 147.5 L 68.75 146.25 L 72.5 143.75 L 82.5 140.0 L 96.25 135.0 L 106.25 132.5 L 110.0 135.0 L 106.25 143.75 L 95.0 157.5 L 83.75 171.25 L 75.0 180.0 L 73.75 181.25 L 80.0 175.0 L 91.25 165.0 L 101.25 155.0 L 105.0 150.0 L 102.5 153.75 L 93.75 170.0 L 87.5 188.75 L 83.75 213.75 L 83.75 236.25 L 87.5 247.5 L 91.25 250.0 L 92.5 246.25 L 92.5 242.5 " stroke="black" fill="none" stroke-width="6.0" stroke-linecap="round" stroke-linejoin="round" />
<path d="M 106.25 188.75 L 107.5 188.75 L 108.75 192.5 L 108.75 202.5 L 106.25 218.75 L 98.75 235.0 L 88.75 245.0 L 75.0 248.75 L 65.0 251.25 L 63.75 251.25 L 66.25 251.25 L 76.25 251.25 L 90.0 251.25 L 106.25 247.5 L 127.5 242.5 L 145.0 235.0 " stroke="black" fill="none" stroke-width="6.0" stroke-linecap="round" stroke-linejoin="round" />
<path d="M 172.5 81.25 L 168.75 81.25 L 166.25 81.25 L 166.25 81.25 L 177.5 82.5 L 193.75 81.25 L 206.25 80.0 L 211.25 78.75 L 208.75 80.0 L 197.5 87.5 L 182.5 97.5 L 170.0 110.0 L 163.75 126.25 L 165.0 152.5 L 172.5 190.0 L 180.0 213.75 L 185.0 222.5 L 185.0 223.75 L 185.0 220.0 L 181.25 210.0 " stroke="black" fill="none" stroke-width="6.0" stroke-linecap="round" stroke-linejoin="round" />
<path d="M 170.0 133.75 L 168.75 133.75 L 167.5 133.75 L 172.5 131.25 L 191.25 127.5 L 211.25 125.0 L 225.0 137.5 L 227.5 167.5 L 218.75 200.0 L 212.5 212.5 L 208.75 215.0 L 207.5 213.75 " stroke="black" fill="none" stroke-width="6.0" stroke-linecap="round" stroke-linejoin="round" />
<path d="M 168.75 171.25 L 165.0 172.5 L 158.75 176.25 L 161.25 175.0 L 176.25 167.5 L 195.0 155.0 L 212.5 142.5 L 217.5 136.25 L 215.0 136.25 " stroke="black" fill="none" stroke-width="6.0" stroke-linecap="round" stroke-linejoin="round" />
<path d="M 177.5 183.75 L 176.25 185.0 L 171.25 187.5 L 170.0 188.75 L 181.25 183.75 L 197.5 171.25 L 212.5 160.0 L 217.5 153.75 L 217.5 153.75 " stroke="black" fill="none" stroke-width="6.0" stroke-linecap="round" stroke-linejoin="round" />
<path d="M 187.5 220.0 L 186.25 222.5 L 187.5 223.75 L 197.5 215.0 L 211.25 202.5 L 221.25 193.75 L 222.5 193.75 L 212.5 207.5 L 198.75 228.75 L 181.25 252.5 L 167.5 265.0 L 162.5 263.75 " stroke="black" fill="none" stroke-width="6.0" stroke-linecap="round" stroke-linejoin="round" />
<path d="M 207.5 213.75 L 207.5 213.75 L 207.5 215.0 L 208.75 220.0 L 217.5 228.75 L 231.25 241.25 L 243.75 250.0 L 248.75 253.75 L 250.0 257.5 L 251.25 261.25 L 251.25 263.75 " stroke="black" fill="none" stroke-width="6.0" stroke-linecap="round" stroke-linejoin="round" />
</svg>