<svg xmlns="http://www.w3.org/2000/svg" width="300" height="300" viewBox="0 0 300 300">
<path d="M 108.75 77.5 L 106.25 77.5 L 103.75 77.5 L 105.0 78.75 L 121.25 80.0 L 143.75 81.25 L 168.75 78.75 L 186.25 75.0 L 195.0 70.0 L 195.0 70.0 L 191.25 70.0 L 187.5 71.25 L 185.0 82.5 L 186.25 107.5 L 196.25 141.25 L 208.75 161.25 L 223.75 173.75 L 235.0 176.25 L 241.25 176.25 L 241.25 173.75 L 240.0 172.5 L 235.0 167.5 L 226.25 160.0 L 222.5 157.5 " stroke="black" fill="none" stroke-width="6.0" stroke-linecap="round" stroke-linejoin="round" />
<path d="M 225.0 91.25 L 225.0 91.25 L 220.0 90.0 L 212.5 91.25 L 202.5 101.25 L 192.5 113.75 L 186.25 120.0 L 186.25 121.25 L 188.75 121.25 L 197.5 123.75 L 207.5 127.5 L 220.0 131.25 L 226.25 135.0 " stroke="black" fill="none" stroke-width="6.0" stroke-linecap="round" stroke-linejoin="round" />
<path d="M 95.0 116.25 L 93.75 116.25 L 91.25 116.25 L 91.25 117.5 L 98.75 117.5 L 113.75 113.75 L 130.0 108.75 L 137.5 106.25 " stroke="black" fill="none" stroke-width="6.0" stroke-linecap="round" stroke-linejoin="round" />
<path d="M 87.5 157.5 L 86.25 160.0 L 86.25 160.0 L 98.75 157.5 L 127.5 145.0 L 156.25 132.5 L 167.5 125.0 L 168.75 123.75 L 165.0 126.25 L 157.5 137.5 L 152.5 155.0 L 152.5 186.25 L 162.5 215.0 L 177.5 232.5 L 197.5 238.75 L 211.25 238.75 L 222.5 240.0 L 230.0 241.25 L 232.5 241.25 L 232.5 242.5 L 232.5 242.5 L 230.0 240.0 L 223.75 233.75 L 213.75 226.25 L 211.25 225.0 " stroke="black" fill="none" stroke-width="6.0" stroke-linecap="round" stroke-linejoin="round" />
<path d="M 210.0 162.5 L 210.0 162.5 L 206.25 162.5 L 201.25 162.5 L 192.5 171.25 L 180.0 182.5 L 165.0 191.25 L 156.25 193.75 L 155.0 193.75 L 155.0 193.75 L 160.0 192.5 L 173.75 192.5 L 191.25 196.25 L 208.75 198.75 L 218.75 198.75 L 218.75 198.75 " stroke="black" fill="none" stroke-width="6.0" stroke-linecap="round" stroke-linejoin="round" />
<path d="M 96.25 153.75 L 96.25 153.75 L 95.0 153.75 L 95.0 153.75 L 96.25 168.75 L 97.5 200.0 L 96.25 227.5 L 93.75 232.5 " stroke="black" fill="none" stroke-width="6.0" stroke-linecap="round" stroke-linejoin="round" />
<path d="M 118.75 135.0 L 120.0 135.0 L 121.25 135.0 L 125.0 147.5 L 127.5 180.0 L 122.5 216.25 L 111.25 241.25 L 102.5 251.25 " stroke="black" fill="none" stroke-width="6.0" stroke-linecap="round" stroke-linejoin="round" />
</svg>