<svg xmlns="http://www.w3.org/2000/svg" width="300" height="300" viewBox="0 0 300 300">
<path d="M 111.25 81.25 L 111.25 81.25 L 107.5 82.5 L 102.5 92.5 L 92.5 127.5 L 78.75 178.75 L 63.75 213.75 L 56.25 218.75 L 53.75 217.5 " stroke="black" fill="none" stroke-width="6.0" stroke-linecap="round" stroke-linejoin="round" />
<path d="M 102.5 101.25 L 105.0 102.5 L 115.0 105.0 L 135.0 112.5 L 152.5 122.5 L 163.75 130.0 L 163.75 135.0 " stroke="black" fill="none" stroke-width="6.0" stroke-linecap="round" stroke-linejoin="round" />
<path d="M 106.25 146.25 L 105.0 148.75 L 107.5 148.75 L 116.25 148.75 L 126.25 147.5 L 133.75 147.5 L 133.75 147.5 " stroke="black" fill="none" stroke-width="6.0" stroke-linecap="round" stroke-linejoin="round" />
<path d="M 100.0 172.5 L 98.75 173.75 L 97.5 176.25 L 103.75 175.0 L 116.25 170.0 L 130.0 165.0 L 137.5 161.25 L 137.5 162.5 L 126.25 172.5 L 112.5 185.0 L 102.5 195.0 L 96.25 198.75 L 96.25 200.0 L 105.0 195.0 L 117.5 187.5 L 131.25 181.25 L 140.0 177.5 L 142.5 177.5 L 136.25 188.75 L 123.75 201.25 L 110.0 212.5 L 98.75 216.25 L 95.0 213.75 L 93.75 205.0 L 95.0 196.25 L 96.25 186.25 L 96.25 181.25 L 96.25 183.75 L 96.25 197.5 L 96.25 216.25 L 98.75 233.75 L 105.0 241.25 L 115.0 237.5 L 126.25 223.75 L 135.0 208.75 L 140.0 201.25 L 141.25 200.0 L 142.5 202.5 L 143.75 211.25 L 146.25 221.25 L 146.25 228.75 L 147.5 230.0 " stroke="black" fill="none" stroke-width="6.0" stroke-linecap="round" stroke-linejoin="round" />
<path d="M 165.0 101.25 L 165.0 101.25 L 165.0 101.25 L 166.25 101.25 L 176.25 100.0 L 190.0 97.5 L 202.5 95.0 L 206.25 93.75 L 205.0 93.75 L 197.5 96.25 L 188.75 105.0 L 180.0 127.5 L 171.25 166.25 L 166.25 198.75 L 165.0 210.0 L 165.0 210.0 L 165.0 210.0 L 167.5 206.25 L 171.25 196.25 L 177.5 185.0 L 183.75 172.5 L 193.75 158.75 L 202.5 150.0 L 208.75 147.5 L 211.25 155.0 L 207.5 175.0 L 200.0 197.5 L 188.75 218.75 L 177.5 232.5 L 167.5 236.25 " stroke="black" fill="none" stroke-width="6.0" stroke-linecap="round" stroke-linejoin="round" />
<path d="M 176.25 178.75 L 175.0 180.0 L 175.0 182.5 L 177.5 186.25 L 192.5 200.0 L 206.25 215.0 L 225.0 230.0 L 242.5 240.0 L 255.0 242.5 L 262.5 245.0 L 265.0 246.25 " stroke="black" fill="none" stroke-width="6.0" stroke-linecap="round" stroke-linejoin="round" />
</svg>