<svg xmlns="http://www.w3.org/2000/svg" width="300" height="300" viewBox="0 0 300 300">
<path d="M 77.5 100.0 L 76.25 100.0 L 75.0 98.75 L 75.0 97.5 L 75.0 98.75 L 77.5 112.5 L 81.25 141.25 L 82.5 168.75 L 82.5 177.5 L 81.25 176.25 " stroke="black" fill="none" stroke-width="6.0" stroke-linecap="round" stroke-linejoin="round" />
<path d="M 77.5 115.0 L 76.25 113.75 L 76.25 111.25 L 77.5 108.75 L 86.25 105.0 L 101.25 97.5 L 113.75 91.25 L 120.0 87.5 L 117.5 86.25 L 112.5 87.5 " stroke="black" fill="none" stroke-width="6.0" stroke-linecap="round" stroke-linejoin="round" />
<path d="M 90.0 131.25 L 90.0 131.25 L 88.75 132.5 L 91.25 132.5 L 98.75 125.0 L 108.75 116.25 L 117.5 107.5 L 118.75 103.75 " stroke="black" fill="none" stroke-width="6.0" stroke-linecap="round" stroke-linejoin="round" />
<path d="M 90.0 153.75 L 90.0 153.75 L 88.75 155.0 L 91.25 153.75 L 101.25 147.5 L 115.0 138.75 L 123.75 130.0 L 123.75 125.0 L 121.25 125.0 " stroke="black" fill="none" stroke-width="6.0" stroke-linecap="round" stroke-linejoin="round" />
<path d="M 103.75 102.5 L 103.75 102.5 L 103.75 102.5 L 105.0 106.25 L 108.75 122.5 L 112.5 147.5 L 112.5 167.5 L 110.0 178.75 L 110.0 180.0 L 111.25 180.0 L 116.25 178.75 L 125.0 173.75 L 133.75 171.25 L 141.25 171.25 L 143.75 181.25 L 141.25 202.5 L 132.5 226.25 L 122.5 242.5 L 112.5 248.75 L 106.25 248.75 L 101.25 242.5 L 98.75 237.5 " stroke="black" fill="none" stroke-width="6.0" stroke-linecap="round" stroke-linejoin="round" />
<path d="M 67.5 216.25 L 73.75 226.25 L 76.25 235.0 L 76.25 238.75 " stroke="black" fill="none" stroke-width="6.0" stroke-linecap="round" stroke-linejoin="round" />
<path d="M 82.5 198.75 L 81.25 198.75 L 81.25 203.75 L 85.0 208.75 L 90.0 216.25 L 93.75 221.25 L 95.0 223.75 " stroke="black" fill="none" stroke-width="6.0" stroke-linecap="round" stroke-linejoin="round" />
<path d="M 96.25 198.75 L 96.25 198.75 L 97.5 200.0 L 98.75 203.75 L 102.5 210.0 L 106.25 218.75 L 106.25 223.75 " stroke="black" fill="none" stroke-width="6.0" stroke-linecap="round" stroke-linejoin="round" />
<path d="M 116.25 192.5 L 117.5 192.5 L 117.5 192.5 L 123.75 198.75 L 131.25 211.25 L 135.0 217.5 " stroke="black" fill="none" stroke-width="6.0" stroke-linecap="round" stroke-linejoin="round" />
<path d="M 172.5 91.25 L 172.5 91.25 L 173.75 92.5 L 175.0 92.5 L 183.75 95.0 L 200.0 97.5 L 213.75 97.5 L 221.25 96.25 L 222.5 95.0 L 213.75 95.0 L 211.25 96.25 " stroke="black" fill="none" stroke-width="6.0" stroke-linecap="round" stroke-linejoin="round" />
<path d="M 161.25 137.5 L 161.25 137.5 L 161.25 140.0 L 165.0 140.0 L 175.0 138.75 L 191.25 131.25 L 203.75 123.75 L 210.0 116.25 L 210.0 115.0 L 206.25 115.0 L 198.75 122.5 L 191.25 137.5 L 183.75 157.5 L 177.5 180.0 L 177.5 190.0 L 182.5 188.75 L 191.25 181.25 L 201.25 168.75 L 210.0 155.0 L 216.25 145.0 L 220.0 138.75 L 220.0 137.5 L 218.75 138.75 L 213.75 146.25 L 206.25 163.75 L 195.0 190.0 L 180.0 220.0 L 163.75 242.5 L 155.0 246.25 L 153.75 245.0 " stroke="black" fill="none" stroke-width="6.0" stroke-linecap="round" stroke-linejoin="round" />
<path d="M 242.5 146.25 L 241.25 150.0 L 236.25 160.0 L 230.0 178.75 L 220.0 202.5 L 210.0 222.5 L 200.0 233.75 L 193.75 238.75 L 191.25 238.75 " stroke="black" fill="none" stroke-width="6.0" stroke-linecap="round" stroke-linejoin="round" />
<path d="M 235.0 206.25 L 240.0 211.25 L 248.75 220.0 L 256.25 228.75 L 262.5 236.25 L 267.5 240.0 L 272.5 241.25 L 277.5 242.5 L 277.5 243.75 " stroke="black" fill="none" stroke-width="6.0" stroke-linecap="round" stroke-linejoin="round" />
</svg>