<svg xmlns="http://www.w3.org/2000/svg" width="300" height="300" viewBox="0 0 300 300">
<path d="M 66.25 92.5 L 65.0 92.5 L 63.75 92.5 L 68.75 92.5 L 80.0 90.0 L 105.0 80.0 L 126.25 71.25 L 137.5 65.0 L 138.75 62.5 L 133.75 62.5 " stroke="black" fill="none" stroke-width="6.0" stroke-linecap="round" stroke-linejoin="round" />
<path d="M 101.25 68.75 L 100.0 68.75 L 100.0 68.75 L 100.0 73.75 L 101.25 85.0 L 101.25 98.75 L 101.25 108.75 L 97.5 113.75 L 92.5 113.75 L 88.75 113.75 L 86.25 113.75 L 85.0 115.0 L 85.0 116.25 L 87.5 116.25 L 95.0 116.25 L 106.25 110.0 L 117.5 102.5 L 123.75 96.25 L 122.5 95.0 L 117.5 95.0 " stroke="black" fill="none" stroke-width="6.0" stroke-linecap="round" stroke-linejoin="round" />
<path d="M 80.0 141.25 L 78.75 143.75 L 77.5 146.25 L 81.25 146.25 L 92.5 142.5 L 106.25 133.75 L 120.0 126.25 L 128.75 121.25 L 130.0 122.5 L 123.75 131.25 L 116.25 143.75 L 107.5 155.0 L 101.25 163.75 L 96.25 165.0 L 95.0 161.25 L 95.0 153.75 L 95.0 146.25 L 96.25 138.75 L 97.5 135.0 L 97.5 133.75 L 97.5 140.0 L 95.0 152.5 L 92.5 163.75 L 91.25 170.0 L 91.25 170.0 L 96.25 163.75 L 105.0 153.75 L 112.5 143.75 L 116.25 138.75 L 110.0 137.5 L 107.5 138.75 " stroke="black" fill="none" stroke-width="6.0" stroke-linecap="round" stroke-linejoin="round" />
<path d="M 80.0 145.0 L 77.5 150.0 L 77.5 162.5 L 77.5 187.5 L 75.0 208.75 L 71.25 216.25 L 68.75 215.0 L 67.5 208.75 " stroke="black" fill="none" stroke-width="6.0" stroke-linecap="round" stroke-linejoin="round" />
<path d="M 163.75 78.75 L 163.75 78.75 L 165.0 77.5 L 166.25 78.75 L 166.25 92.5 L 165.0 108.75 L 160.0 123.75 L 156.25 130.0 L 155.0 130.0 " stroke="black" fill="none" stroke-width="6.0" stroke-linecap="round" stroke-linejoin="round" />
<path d="M 157.5 88.75 L 157.5 87.5 L 160.0 86.25 L 168.75 85.0 L 182.5 81.25 L 193.75 81.25 L 197.5 83.75 L 190.0 95.0 L 177.5 111.25 L 168.75 123.75 L 166.25 126.25 L 172.5 122.5 L 185.0 113.75 L 196.25 102.5 L 203.75 95.0 L 205.0 92.5 L 200.0 96.25 L 195.0 100.0 " stroke="black" fill="none" stroke-width="6.0" stroke-linecap="round" stroke-linejoin="round" />
<path d="M 166.25 140.0 L 170.0 137.5 L 180.0 133.75 L 190.0 128.75 L 196.25 128.75 L 195.0 133.75 L 182.5 147.5 L 168.75 161.25 L 151.25 175.0 L 141.25 180.0 L 138.75 180.0 " stroke="black" fill="none" stroke-width="6.0" stroke-linecap="round" stroke-linejoin="round" />
<path d="M 153.75 147.5 L 153.75 147.5 L 156.25 147.5 L 163.75 150.0 L 181.25 156.25 L 201.25 165.0 L 216.25 171.25 L 218.75 176.25 L 217.5 176.25 " stroke="black" fill="none" stroke-width="6.0" stroke-linecap="round" stroke-linejoin="round" />
<path d="M 106.25 188.75 L 106.25 188.75 L 107.5 187.5 L 117.5 185.0 L 140.0 180.0 L 160.0 173.75 L 167.5 171.25 L 167.5 171.25 L 156.25 177.5 L 150.0 181.25 " stroke="black" fill="none" stroke-width="6.0" stroke-linecap="round" stroke-linejoin="round" />
<path d="M 98.75 221.25 L 98.75 221.25 L 101.25 221.25 L 120.0 215.0 L 150.0 198.75 L 171.25 183.75 L 181.25 175.0 L 183.75 170.0 L 175.0 171.25 L 166.25 175.0 L 156.25 178.75 L 150.0 181.25 L 147.5 183.75 L 145.0 188.75 L 145.0 198.75 L 143.75 217.5 L 140.0 238.75 L 135.0 251.25 L 130.0 252.5 L 127.5 251.25 " stroke="black" fill="none" stroke-width="6.0" stroke-linecap="round" stroke-linejoin="round" />
<path d="M 140.0 206.25 L 137.5 208.75 L 126.25 221.25 L 111.25 242.5 L 95.0 261.25 L 81.25 273.75 L 71.25 278.75 L 67.5 275.0 L 68.75 262.5 L 70.0 258.75 " stroke="black" fill="none" stroke-width="6.0" stroke-linecap="round" stroke-linejoin="round" />
<path d="M 145.0 202.5 L 148.75 202.5 L 167.5 201.25 L 193.75 206.25 L 211.25 212.5 L 223.75 218.75 L 228.75 222.5 L 227.5 226.25 L 216.25 230.0 L 208.75 231.25 " stroke="black" fill="none" stroke-width="6.0" stroke-linecap="round" stroke-linejoin="round" />
<path d="M 141.25 238.75 L 137.5 246.25 L 133.75 260.0 L 132.5 273.75 L 132.5 282.5 L 135.0 283.75 L 135.0 281.25 L 135.0 276.25 " stroke="black" fill="none" stroke-width="6.0" stroke-linecap="round" stroke-linejoin="round" />
<path d="M 132.5 248.75 L 132.5 248.75 L 132.5 246.25 L 135.0 243.75 L 143.75 238.75 L 160.0 235.0 L 177.5 233.75 L 186.25 241.25 L 186.25 255.0 L 178.75 268.75 L 168.75 281.25 L 160.0 288.75 L 152.5 291.25 L 151.25 291.25 " stroke="black" fill="none" stroke-width="6.0" stroke-linecap="round" stroke-linejoin="round" />
<path d="M 128.75 266.25 L 128.75 266.25 L 127.5 267.5 L 127.5 267.5 L 136.25 265.0 L 152.5 258.75 L 172.5 253.75 L 182.5 251.25 L 178.75 255.0 L 172.5 257.5 " stroke="black" fill="none" stroke-width="6.0" stroke-linecap="round" stroke-linejoin="round" />
<path d="M 137.5 286.25 L 136.25 286.25 L 136.25 286.25 L 138.75 286.25 L 150.0 285.0 L 168.75 278.75 L 183.75 273.75 " stroke="black" fill="none" stroke-width="6.0" stroke-linecap="round" stroke-linejoin="round" />
</svg>