<svg xmlns="http://www.w3.org/2000/svg" width="300" height="300" viewBox="0 0 300 300">
<path d="M 78.75 107.5 L 77.5 103.75 L 76.25 101.25 L 76.25 103.75 L 80.0 127.5 L 82.5 161.25 L 85.0 188.75 L 85.0 195.0 L 85.0 188.75 L 85.0 178.75 L 83.75 176.25 " stroke="black" fill="none" stroke-width="6.0" stroke-linecap="round" stroke-linejoin="round" />
<path d="M 81.25 112.5 L 80.0 113.75 L 77.5 115.0 L 76.25 115.0 L 82.5 113.75 L 95.0 106.25 L 107.5 97.5 L 118.75 90.0 L 121.25 87.5 L 115.0 91.25 " stroke="black" fill="none" stroke-width="6.0" stroke-linecap="round" stroke-linejoin="round" />
<path d="M 88.75 143.75 L 87.5 145.0 L 83.75 148.75 L 85.0 148.75 L 92.5 145.0 L 105.0 135.0 L 116.25 123.75 L 123.75 115.0 L 123.75 113.75 " stroke="black" fill="none" stroke-width="6.0" stroke-linecap="round" stroke-linejoin="round" />
<path d="M 85.0 176.25 L 81.25 180.0 L 82.5 181.25 L 91.25 172.5 L 105.0 158.75 L 117.5 142.5 L 122.5 132.5 L 121.25 131.25 " stroke="black" fill="none" stroke-width="6.0" stroke-linecap="round" stroke-linejoin="round" />
<path d="M 105.0 112.5 L 105.0 107.5 L 105.0 111.25 L 107.5 132.5 L 108.75 162.5 L 108.75 188.75 L 108.75 197.5 L 110.0 197.5 L 117.5 192.5 L 127.5 185.0 L 136.25 182.5 L 142.5 183.75 L 142.5 195.0 L 136.25 211.25 L 126.25 230.0 L 116.25 241.25 L 110.0 242.5 L 103.75 240.0 " stroke="black" fill="none" stroke-width="6.0" stroke-linecap="round" stroke-linejoin="round" />
<path d="M 57.5 217.5 L 56.25 217.5 L 55.0 217.5 L 55.0 218.75 L 62.5 230.0 L 72.5 245.0 L 80.0 253.75 L 82.5 255.0 " stroke="black" fill="none" stroke-width="6.0" stroke-linecap="round" stroke-linejoin="round" />
<path d="M 85.0 208.75 L 82.5 208.75 L 80.0 211.25 L 81.25 217.5 L 86.25 227.5 L 91.25 237.5 L 95.0 241.25 L 96.25 241.25 L 96.25 241.25 " stroke="black" fill="none" stroke-width="6.0" stroke-linecap="round" stroke-linejoin="round" />
<path d="M 96.25 206.25 L 96.25 206.25 L 96.25 206.25 L 95.0 208.75 L 96.25 220.0 L 98.75 235.0 L 100.0 245.0 " stroke="black" fill="none" stroke-width="6.0" stroke-linecap="round" stroke-linejoin="round" />
<path d="M 118.75 207.5 L 118.75 206.25 L 118.75 203.75 L 120.0 207.5 L 126.25 221.25 L 128.75 235.0 " stroke="black" fill="none" stroke-width="6.0" stroke-linecap="round" stroke-linejoin="round" />
<path d="M 165.0 132.5 L 163.75 128.75 L 160.0 125.0 L 158.75 125.0 L 158.75 138.75 L 162.5 171.25 L 168.75 206.25 L 175.0 221.25 L 177.5 222.5 L 178.75 215.0 L 178.75 205.0 L 177.5 193.75 L 177.5 188.75 " stroke="black" fill="none" stroke-width="6.0" stroke-linecap="round" stroke-linejoin="round" />
<path d="M 163.75 148.75 L 157.5 143.75 L 153.75 143.75 L 152.5 143.75 L 157.5 142.5 L 175.0 137.5 L 197.5 128.75 L 218.75 118.75 L 238.75 113.75 L 248.75 115.0 L 250.0 130.0 L 246.25 156.25 L 236.25 187.5 L 227.5 208.75 L 223.75 217.5 L 222.5 217.5 L 222.5 217.5 L 222.5 212.5 L 222.5 205.0 L 221.25 200.0 " stroke="black" fill="none" stroke-width="6.0" stroke-linecap="round" stroke-linejoin="round" />
<path d="M 193.75 143.75 L 190.0 143.75 L 188.75 145.0 L 188.75 156.25 L 192.5 182.5 L 193.75 205.0 L 193.75 212.5 L 192.5 212.5 " stroke="black" fill="none" stroke-width="6.0" stroke-linecap="round" stroke-linejoin="round" />
<path d="M 203.75 141.25 L 203.75 138.75 L 205.0 136.25 L 206.25 141.25 L 207.5 157.5 L 207.5 180.0 L 201.25 198.75 L 195.0 210.0 L 186.25 215.0 L 180.0 217.5 L 177.5 218.75 L 177.5 218.75 L 177.5 218.75 L 177.5 218.75 L 177.5 218.75 L 177.5 218.75 L 177.5 218.75 L 178.75 218.75 L 180.0 217.5 L 181.25 217.5 L 182.5 217.5 L 186.25 216.25 L 195.0 213.75 L 207.5 211.25 L 220.0 210.0 L 228.75 211.25 L 228.75 212.5 " stroke="black" fill="none" stroke-width="6.0" stroke-linecap="round" stroke-linejoin="round" />
</svg>