<svg xmlns="http://www.w3.org/2000/svg" width="300" height="300" viewBox="0 0 300 300">
<path d="M 77.5 93.75 L 76.25 93.75 L 76.25 100.0 L 77.5 130.0 L 78.75 165.0 L 80.0 177.5 L 80.0 172.5 L 80.0 170.0 " stroke="black" fill="none" stroke-width="6.0" stroke-linecap="round" stroke-linejoin="round" />
<path d="M 77.5 107.5 L 76.25 107.5 L 76.25 107.5 L 80.0 106.25 L 92.5 100.0 L 110.0 91.25 L 125.0 83.75 L 126.25 82.5 " stroke="black" fill="none" stroke-width="6.0" stroke-linecap="round" stroke-linejoin="round" />
<path d="M 85.0 135.0 L 82.5 137.5 L 82.5 138.75 L 88.75 137.5 L 101.25 131.25 L 115.0 121.25 L 122.5 112.5 L 122.5 112.5 " stroke="black" fill="none" stroke-width="6.0" stroke-linecap="round" stroke-linejoin="round" />
<path d="M 83.75 160.0 L 82.5 162.5 L 81.25 163.75 L 87.5 162.5 L 101.25 152.5 L 120.0 140.0 L 132.5 126.25 L 132.5 120.0 " stroke="black" fill="none" stroke-width="6.0" stroke-linecap="round" stroke-linejoin="round" />
<path d="M 110.0 105.0 L 110.0 105.0 L 108.75 111.25 L 108.75 132.5 L 110.0 160.0 L 110.0 180.0 L 113.75 183.75 L 122.5 181.25 L 137.5 172.5 L 147.5 168.75 L 152.5 175.0 L 150.0 195.0 L 140.0 216.25 L 126.25 237.5 L 113.75 246.25 L 103.75 245.0 L 100.0 241.25 " stroke="black" fill="none" stroke-width="6.0" stroke-linecap="round" stroke-linejoin="round" />
<path d="M 58.75 200.0 L 56.25 200.0 L 55.0 201.25 L 60.0 207.5 L 68.75 221.25 L 75.0 233.75 L 77.5 238.75 L 77.5 238.75 " stroke="black" fill="none" stroke-width="6.0" stroke-linecap="round" stroke-linejoin="round" />
<path d="M 77.5 196.25 L 76.25 196.25 L 76.25 198.75 L 78.75 202.5 L 86.25 213.75 L 91.25 222.5 L 93.75 225.0 L 93.75 225.0 " stroke="black" fill="none" stroke-width="6.0" stroke-linecap="round" stroke-linejoin="round" />
<path d="M 93.75 200.0 L 93.75 200.0 L 93.75 202.5 L 96.25 207.5 L 100.0 213.75 L 101.25 216.25 " stroke="black" fill="none" stroke-width="6.0" stroke-linecap="round" stroke-linejoin="round" />
<path d="M 120.0 187.5 L 120.0 188.75 L 118.75 193.75 L 120.0 202.5 L 121.25 207.5 " stroke="black" fill="none" stroke-width="6.0" stroke-linecap="round" stroke-linejoin="round" />
<path d="M 168.75 90.0 L 162.5 93.75 L 157.5 100.0 L 157.5 108.75 L 161.25 117.5 L 175.0 120.0 L 195.0 115.0 L 211.25 105.0 L 222.5 98.75 L 225.0 97.5 L 226.25 105.0 L 221.25 132.5 L 220.0 170.0 L 220.0 205.0 L 222.5 227.5 L 223.75 236.25 L 223.75 237.5 L 223.75 237.5 L 222.5 236.25 L 216.25 231.25 L 206.25 223.75 L 196.25 217.5 " stroke="black" fill="none" stroke-width="6.0" stroke-linecap="round" stroke-linejoin="round" />
<path d="M 163.75 158.75 L 163.75 160.0 L 160.0 162.5 L 160.0 167.5 L 167.5 185.0 L 173.75 200.0 L 175.0 205.0 L 172.5 203.75 L 172.5 202.5 " stroke="black" fill="none" stroke-width="6.0" stroke-linecap="round" stroke-linejoin="round" />
<path d="M 166.25 171.25 L 165.0 170.0 L 162.5 168.75 L 162.5 167.5 L 172.5 166.25 L 186.25 165.0 L 196.25 166.25 L 200.0 173.75 L 193.75 188.75 L 177.5 203.75 L 167.5 212.5 L 167.5 212.5 L 182.5 203.75 L 205.0 183.75 L 212.5 172.5 " stroke="black" fill="none" stroke-width="6.0" stroke-linecap="round" stroke-linejoin="round" />
</svg>