<svg xmlns="http://www.w3.org/2000/svg" width="300" height="300" viewBox="0 0 300 300">
<path d="M 85.0 103.75 L 83.75 101.25 L 82.5 98.75 L 81.25 98.75 L 82.5 117.5 L 82.5 148.75 L 83.75 175.0 L 86.25 182.5 L 87.5 173.75 " stroke="black" fill="none" stroke-width="6.0" stroke-linecap="round" stroke-linejoin="round" />
<path d="M 82.5 106.25 L 80.0 106.25 L 80.0 105.0 L 80.0 103.75 L 88.75 102.5 L 102.5 98.75 L 115.0 95.0 L 121.25 93.75 L 121.25 93.75 " stroke="black" fill="none" stroke-width="6.0" stroke-linecap="round" stroke-linejoin="round" />
<path d="M 92.5 123.75 L 91.25 123.75 L 88.75 126.25 L 88.75 126.25 L 97.5 123.75 L 110.0 116.25 L 121.25 111.25 L 125.0 108.75 L 120.0 112.5 " stroke="black" fill="none" stroke-width="6.0" stroke-linecap="round" stroke-linejoin="round" />
<path d="M 90.0 156.25 L 87.5 158.75 L 87.5 158.75 L 96.25 153.75 L 110.0 143.75 L 123.75 132.5 L 127.5 125.0 L 123.75 122.5 L 117.5 118.75 L 112.5 113.75 L 110.0 111.25 L 108.75 111.25 L 108.75 123.75 L 110.0 146.25 L 113.75 167.5 L 121.25 180.0 L 131.25 181.25 L 141.25 175.0 L 150.0 171.25 L 153.75 175.0 L 153.75 188.75 L 145.0 206.25 L 132.5 223.75 L 117.5 237.5 L 102.5 243.75 L 97.5 243.75 " stroke="black" fill="none" stroke-width="6.0" stroke-linecap="round" stroke-linejoin="round" />
<path d="M 48.75 197.5 L 46.25 200.0 L 43.75 202.5 L 47.5 211.25 L 57.5 226.25 L 71.25 238.75 L 78.75 240.0 L 78.75 240.0 " stroke="black" fill="none" stroke-width="6.0" stroke-linecap="round" stroke-linejoin="round" />
<path d="M 83.75 190.0 L 83.75 190.0 L 82.5 190.0 L 85.0 196.25 L 90.0 208.75 L 96.25 218.75 L 97.5 221.25 " stroke="black" fill="none" stroke-width="6.0" stroke-linecap="round" stroke-linejoin="round" />
<path d="M 100.0 192.5 L 100.0 192.5 L 98.75 192.5 L 98.75 195.0 L 102.5 205.0 L 106.25 215.0 L 107.5 216.25 " stroke="black" fill="none" stroke-width="6.0" stroke-linecap="round" stroke-linejoin="round" />
<path d="M 128.75 192.5 L 128.75 191.25 L 128.75 191.25 L 131.25 196.25 L 137.5 211.25 " stroke="black" fill="none" stroke-width="6.0" stroke-linecap="round" stroke-linejoin="round" />
<path d="M 168.75 101.25 L 168.75 101.25 L 168.75 101.25 L 170.0 101.25 L 181.25 102.5 L 197.5 103.75 L 211.25 103.75 L 217.5 102.5 L 216.25 102.5 " stroke="black" fill="none" stroke-width="6.0" stroke-linecap="round" stroke-linejoin="round" />
<path d="M 168.75 147.5 L 168.75 147.5 L 167.5 148.75 L 171.25 148.75 L 185.0 142.5 L 201.25 133.75 L 215.0 125.0 L 216.25 123.75 L 215.0 125.0 " stroke="black" fill="none" stroke-width="6.0" stroke-linecap="round" stroke-linejoin="round" />
<path d="M 173.75 195.0 L 171.25 197.5 L 172.5 197.5 L 186.25 192.5 L 207.5 173.75 L 226.25 153.75 L 228.75 146.25 L 222.5 146.25 " stroke="black" fill="none" stroke-width="6.0" stroke-linecap="round" stroke-linejoin="round" />
<path d="M 200.0 150.0 L 200.0 150.0 L 200.0 150.0 L 200.0 152.5 L 202.5 170.0 L 203.75 200.0 L 200.0 221.25 L 192.5 232.5 L 180.0 236.25 L 171.25 237.5 L 166.25 237.5 L 166.25 236.25 L 167.5 236.25 L 170.0 236.25 L 175.0 235.0 L 183.75 232.5 L 195.0 231.25 L 208.75 228.75 L 227.5 227.5 L 245.0 226.25 L 257.5 225.0 L 262.5 221.25 " stroke="black" fill="none" stroke-width="6.0" stroke-linecap="round" stroke-linejoin="round" />
</svg>