<svg xmlns="http://www.w3.org/2000/svg" width="300" height="300" viewBox="0 0 300 300">
<path d="M 117.5 95.0 L 117.5 93.75 L 113.75 90.0 L 112.5 88.75 L 112.5 102.5 L 115.0 140.0 L 117.5 176.25 L 122.5 191.25 L 123.75 188.75 " stroke="black" fill="none" stroke-width="6.0" stroke-linecap="round" stroke-linejoin="round" />
<path d="M 116.25 102.5 L 116.25 102.5 L 116.25 101.25 L 118.75 100.0 L 135.0 96.25 L 158.75 88.75 L 182.5 80.0 L 192.5 75.0 L 188.75 76.25 " stroke="black" fill="none" stroke-width="6.0" stroke-linecap="round" stroke-linejoin="round" />
<path d="M 136.25 135.0 L 136.25 135.0 L 135.0 135.0 L 140.0 131.25 L 155.0 120.0 L 176.25 106.25 L 188.75 98.75 L 187.5 100.0 " stroke="black" fill="none" stroke-width="6.0" stroke-linecap="round" stroke-linejoin="round" />
<path d="M 138.75 166.25 L 137.5 167.5 L 137.5 167.5 L 147.5 157.5 L 166.25 140.0 L 185.0 123.75 L 188.75 113.75 L 186.25 111.25 " stroke="black" fill="none" stroke-width="6.0" stroke-linecap="round" stroke-linejoin="round" />
<path d="M 168.75 97.5 L 165.0 95.0 L 163.75 93.75 L 162.5 100.0 L 165.0 127.5 L 167.5 156.25 L 172.5 171.25 L 182.5 172.5 L 213.75 155.0 L 228.75 152.5 L 237.5 161.25 L 233.75 183.75 L 218.75 206.25 L 205.0 223.75 L 191.25 233.75 L 177.5 236.25 L 170.0 236.25 " stroke="black" fill="none" stroke-width="6.0" stroke-linecap="round" stroke-linejoin="round" />
<path d="M 88.75 197.5 L 87.5 197.5 L 85.0 197.5 L 83.75 200.0 L 91.25 210.0 L 101.25 227.5 L 108.75 238.75 L 111.25 240.0 " stroke="black" fill="none" stroke-width="6.0" stroke-linecap="round" stroke-linejoin="round" />
<path d="M 123.75 193.75 L 125.0 192.5 L 125.0 192.5 L 127.5 195.0 L 132.5 206.25 L 138.75 217.5 L 141.25 222.5 L 141.25 222.5 " stroke="black" fill="none" stroke-width="6.0" stroke-linecap="round" stroke-linejoin="round" />
<path d="M 146.25 198.75 L 146.25 197.5 L 146.25 196.25 L 147.5 197.5 L 152.5 207.5 L 155.0 215.0 " stroke="black" fill="none" stroke-width="6.0" stroke-linecap="round" stroke-linejoin="round" />
<path d="M 188.75 182.5 L 188.75 182.5 L 188.75 181.25 L 190.0 181.25 L 196.25 192.5 L 201.25 207.5 " stroke="black" fill="none" stroke-width="6.0" stroke-linecap="round" stroke-linejoin="round" />
</svg>