<svg xmlns="http://www.w3.org/2000/svg" width="300" height="300" viewBox="0 0 300 300">
<path d="M 90.0 78.75 L 90.0 76.25 L 90.0 72.5 L 87.5 72.5 L 83.75 83.75 L 75.0 108.75 L 63.75 143.75 L 55.0 170.0 L 51.25 176.25 L 50.0 173.75 " stroke="black" fill="none" stroke-width="6.0" stroke-linecap="round" stroke-linejoin="round" />
<path d="M 88.75 83.75 L 88.75 83.75 L 88.75 82.5 L 92.5 82.5 L 106.25 87.5 L 131.25 95.0 L 147.5 101.25 " stroke="black" fill="none" stroke-width="6.0" stroke-linecap="round" stroke-linejoin="round" />
<path d="M 90.0 126.25 L 87.5 126.25 L 86.25 126.25 L 85.0 126.25 L 88.75 126.25 L 96.25 123.75 L 103.75 120.0 L 105.0 120.0 " stroke="black" fill="none" stroke-width="6.0" stroke-linecap="round" stroke-linejoin="round" />
<path d="M 85.0 145.0 L 81.25 148.75 L 80.0 150.0 L 81.25 150.0 L 90.0 148.75 L 98.75 146.25 L 105.0 145.0 L 108.75 145.0 L 105.0 151.25 L 95.0 165.0 L 82.5 178.75 L 73.75 186.25 L 72.5 187.5 L 80.0 181.25 L 92.5 170.0 L 116.25 153.75 L 120.0 153.75 L 116.25 165.0 L 105.0 182.5 L 93.75 197.5 L 83.75 206.25 L 76.25 206.25 L 73.75 198.75 L 73.75 186.25 L 76.25 171.25 L 77.5 158.75 L 77.5 155.0 L 76.25 167.5 L 75.0 191.25 L 75.0 215.0 L 80.0 233.75 L 87.5 240.0 L 95.0 238.75 L 105.0 228.75 L 111.25 216.25 L 116.25 206.25 L 116.25 200.0 L 115.0 197.5 L 112.5 196.25 L 112.5 196.25 L 112.5 198.75 L 117.5 203.75 L 125.0 211.25 L 132.5 215.0 L 135.0 215.0 " stroke="black" fill="none" stroke-width="6.0" stroke-linecap="round" stroke-linejoin="round" />
<path d="M 165.0 77.5 L 163.75 77.5 L 158.75 80.0 L 150.0 97.5 L 138.75 127.5 L 132.5 143.75 L 126.25 146.25 " stroke="black" fill="none" stroke-width="6.0" stroke-linecap="round" stroke-linejoin="round" />
<path d="M 163.75 78.75 L 166.25 78.75 L 175.0 78.75 L 192.5 83.75 L 212.5 90.0 L 230.0 95.0 L 235.0 98.75 L 226.25 103.75 L 222.5 105.0 " stroke="black" fill="none" stroke-width="6.0" stroke-linecap="round" stroke-linejoin="round" />
<path d="M 155.0 131.25 L 152.5 131.25 L 150.0 132.5 L 152.5 132.5 L 166.25 127.5 L 183.75 120.0 L 197.5 115.0 L 200.0 116.25 L 192.5 125.0 " stroke="black" fill="none" stroke-width="6.0" stroke-linecap="round" stroke-linejoin="round" />
<path d="M 152.5 165.0 L 151.25 167.5 L 147.5 175.0 L 148.75 175.0 L 163.75 168.75 L 185.0 155.0 L 206.25 138.75 L 216.25 128.75 L 215.0 127.5 L 206.25 130.0 L 197.5 133.75 L 190.0 135.0 L 185.0 135.0 L 183.75 136.25 L 185.0 148.75 L 191.25 181.25 L 196.25 218.75 L 196.25 241.25 L 196.25 245.0 L 195.0 241.25 L 188.75 236.25 L 178.75 228.75 L 166.25 221.25 L 155.0 213.75 L 151.25 210.0 L 153.75 207.5 L 170.0 203.75 L 197.5 195.0 L 225.0 186.25 L 247.5 177.5 " stroke="black" fill="none" stroke-width="6.0" stroke-linecap="round" stroke-linejoin="round" />
</svg>