<svg xmlns="http://www.w3.org/2000/svg" width="300" height="300" viewBox="0 0 300 300">
<path d="M 83.75 98.75 L 83.75 98.75 L 82.5 96.25 L 81.25 95.0 L 81.25 105.0 L 81.25 135.0 L 81.25 166.25 L 82.5 183.75 L 85.0 181.25 L 85.0 171.25 " stroke="black" fill="none" stroke-width="6.0" stroke-linecap="round" stroke-linejoin="round" />
<path d="M 82.5 101.25 L 81.25 102.5 L 81.25 102.5 L 88.75 98.75 L 101.25 92.5 L 116.25 85.0 L 122.5 81.25 L 122.5 81.25 " stroke="black" fill="none" stroke-width="6.0" stroke-linecap="round" stroke-linejoin="round" />
<path d="M 87.5 131.25 L 86.25 131.25 L 85.0 132.5 L 86.25 131.25 L 95.0 122.5 L 107.5 111.25 L 117.5 102.5 L 116.25 102.5 " stroke="black" fill="none" stroke-width="6.0" stroke-linecap="round" stroke-linejoin="round" />
<path d="M 83.75 152.5 L 81.25 155.0 L 80.0 156.25 L 87.5 151.25 L 101.25 140.0 L 116.25 127.5 L 126.25 117.5 L 123.75 115.0 L 115.0 115.0 L 107.5 115.0 L 102.5 111.25 L 100.0 103.75 L 100.0 100.0 L 102.5 101.25 L 105.0 118.75 L 106.25 143.75 L 106.25 167.5 L 106.25 180.0 L 111.25 180.0 L 122.5 173.75 L 135.0 166.25 L 143.75 162.5 L 147.5 163.75 L 146.25 180.0 L 137.5 200.0 L 127.5 217.5 L 117.5 230.0 L 106.25 235.0 L 98.75 233.75 " stroke="black" fill="none" stroke-width="6.0" stroke-linecap="round" stroke-linejoin="round" />
<path d="M 48.75 203.75 L 47.5 203.75 L 42.5 203.75 L 41.25 203.75 L 41.25 207.5 L 46.25 221.25 L 55.0 236.25 L 60.0 242.5 L 61.25 243.75 " stroke="black" fill="none" stroke-width="6.0" stroke-linecap="round" stroke-linejoin="round" />
<path d="M 72.5 192.5 L 72.5 192.5 L 72.5 192.5 L 71.25 192.5 L 75.0 201.25 L 80.0 213.75 L 85.0 221.25 L 86.25 221.25 L 86.25 220.0 " stroke="black" fill="none" stroke-width="6.0" stroke-linecap="round" stroke-linejoin="round" />
<path d="M 88.75 193.75 L 88.75 193.75 L 88.75 192.5 L 88.75 192.5 L 91.25 198.75 L 96.25 207.5 L 100.0 215.0 L 101.25 215.0 L 101.25 213.75 " stroke="black" fill="none" stroke-width="6.0" stroke-linecap="round" stroke-linejoin="round" />
<path d="M 112.5 185.0 L 112.5 185.0 L 113.75 183.75 L 115.0 185.0 L 122.5 195.0 L 130.0 208.75 " stroke="black" fill="none" stroke-width="6.0" stroke-linecap="round" stroke-linejoin="round" />
<path d="M 157.5 113.75 L 156.25 115.0 L 152.5 121.25 L 152.5 122.5 L 160.0 118.75 L 176.25 107.5 L 195.0 95.0 L 210.0 87.5 L 215.0 91.25 L 212.5 120.0 L 201.25 160.0 L 186.25 197.5 L 168.75 220.0 L 157.5 228.75 L 152.5 223.75 " stroke="black" fill="none" stroke-width="6.0" stroke-linecap="round" stroke-linejoin="round" />
<path d="M 156.25 131.25 L 156.25 131.25 L 156.25 131.25 L 161.25 138.75 L 182.5 168.75 L 206.25 203.75 L 231.25 227.5 L 255.0 241.25 L 273.75 251.25 L 283.75 252.5 " stroke="black" fill="none" stroke-width="6.0" stroke-linecap="round" stroke-linejoin="round" />
</svg>