<svg xmlns="http://www.w3.org/2000/svg" width="300" height="300" viewBox="0 0 300 300">
<path d="M 127.5 61.25 L 126.25 61.25 L 123.75 61.25 L 123.75 63.75 L 130.0 72.5 L 137.5 82.5 L 138.75 85.0 " stroke="black" fill="none" stroke-width="6.0" stroke-linecap="round" stroke-linejoin="round" />
<path d="M 157.5 41.25 L 157.5 41.25 L 157.5 41.25 L 158.75 42.5 L 160.0 50.0 L 158.75 62.5 L 151.25 76.25 L 140.0 85.0 L 122.5 93.75 L 110.0 101.25 L 107.5 102.5 L 117.5 100.0 L 137.5 90.0 L 156.25 78.75 L 172.5 68.75 L 172.5 65.0 " stroke="black" fill="none" stroke-width="6.0" stroke-linecap="round" stroke-linejoin="round" />
<path d="M 148.75 83.75 L 146.25 92.5 L 146.25 105.0 L 146.25 122.5 L 145.0 133.75 L 141.25 135.0 " stroke="black" fill="none" stroke-width="6.0" stroke-linecap="round" stroke-linejoin="round" />
<path d="M 126.25 117.5 L 125.0 116.25 L 123.75 116.25 L 126.25 115.0 L 138.75 110.0 L 153.75 105.0 L 163.75 100.0 L 165.0 101.25 L 143.75 121.25 L 130.0 133.75 L 112.5 146.25 L 101.25 153.75 L 101.25 153.75 L 112.5 147.5 L 135.0 133.75 L 156.25 118.75 L 172.5 106.25 L 175.0 106.25 L 157.5 128.75 L 138.75 155.0 L 111.25 187.5 L 82.5 221.25 L 61.25 243.75 L 53.75 245.0 L 52.5 242.5 " stroke="black" fill="none" stroke-width="6.0" stroke-linecap="round" stroke-linejoin="round" />
<path d="M 172.5 123.75 L 178.75 123.75 L 195.0 132.5 L 212.5 143.75 L 226.25 156.25 L 236.25 165.0 L 233.75 168.75 L 227.5 168.75 " stroke="black" fill="none" stroke-width="6.0" stroke-linecap="round" stroke-linejoin="round" />
<path d="M 150.0 152.5 L 148.75 152.5 L 147.5 152.5 L 147.5 152.5 L 152.5 152.5 L 162.5 153.75 L 166.25 155.0 L 166.25 156.25 " stroke="black" fill="none" stroke-width="6.0" stroke-linecap="round" stroke-linejoin="round" />
<path d="M 145.0 168.75 L 143.75 168.75 L 143.75 168.75 L 150.0 167.5 L 165.0 162.5 L 178.75 160.0 L 182.5 161.25 L 173.75 171.25 L 160.0 183.75 L 145.0 195.0 L 133.75 203.75 L 131.25 203.75 L 137.5 201.25 L 152.5 192.5 L 170.0 183.75 L 188.75 175.0 L 197.5 172.5 L 196.25 178.75 L 182.5 193.75 L 166.25 207.5 L 148.75 218.75 L 131.25 228.75 L 122.5 230.0 " stroke="black" fill="none" stroke-width="6.0" stroke-linecap="round" stroke-linejoin="round" />
<path d="M 127.5 192.5 L 127.5 190.0 L 127.5 188.75 L 128.75 198.75 L 131.25 225.0 L 136.25 252.5 L 142.5 265.0 L 152.5 263.75 L 166.25 253.75 L 185.0 236.25 L 198.75 218.75 L 205.0 205.0 L 205.0 202.5 L 196.25 203.75 L 182.5 210.0 L 165.0 220.0 L 150.0 228.75 L 143.75 233.75 L 145.0 233.75 L 148.75 232.5 L 153.75 228.75 L 157.5 227.5 L 161.25 225.0 L 163.75 223.75 L 165.0 223.75 L 165.0 223.75 L 165.0 223.75 L 165.0 223.75 L 166.25 225.0 L 177.5 230.0 L 198.75 237.5 L 226.25 243.75 L 255.0 250.0 L 262.5 251.25 " stroke="black" fill="none" stroke-width="6.0" stroke-linecap="round" stroke-linejoin="round" />
</svg>