<svg xmlns="http://www.w3.org/2000/svg" width="300" height="300" viewBox="0 0 300 300">
<path d="M 132.5 72.5 L 132.5 72.5 L 132.5 71.25 L 133.75 71.25 L 138.75 80.0 L 143.75 96.25 L 147.5 110.0 L 147.5 111.25 " stroke="black" fill="none" stroke-width="6.0" stroke-linecap="round" stroke-linejoin="round" />
<path d="M 182.5 63.75 L 182.5 66.25 L 181.25 72.5 L 177.5 83.75 L 168.75 97.5 L 156.25 110.0 L 137.5 118.75 L 113.75 127.5 L 91.25 137.5 L 78.75 143.75 L 81.25 143.75 L 96.25 142.5 L 128.75 135.0 L 161.25 122.5 L 195.0 108.75 L 207.5 102.5 L 203.75 102.5 L 191.25 106.25 L 173.75 115.0 L 157.5 126.25 L 143.75 141.25 L 136.25 166.25 L 136.25 200.0 L 137.5 222.5 L 141.25 246.25 L 143.75 252.5 L 143.75 252.5 " stroke="black" fill="none" stroke-width="6.0" stroke-linecap="round" stroke-linejoin="round" />
<path d="M 142.5 161.25 L 142.5 161.25 L 141.25 158.75 L 145.0 155.0 L 157.5 150.0 L 175.0 150.0 L 188.75 163.75 L 192.5 190.0 L 191.25 216.25 L 186.25 233.75 L 183.75 246.25 L 180.0 246.25 " stroke="black" fill="none" stroke-width="6.0" stroke-linecap="round" stroke-linejoin="round" />
<path d="M 142.5 195.0 L 141.25 195.0 L 136.25 195.0 L 136.25 195.0 L 143.75 190.0 L 161.25 181.25 L 180.0 171.25 L 187.5 167.5 " stroke="black" fill="none" stroke-width="6.0" stroke-linecap="round" stroke-linejoin="round" />
<path d="M 143.75 215.0 L 140.0 218.75 L 138.75 218.75 L 148.75 215.0 L 167.5 205.0 L 188.75 196.25 L 192.5 193.75 " stroke="black" fill="none" stroke-width="6.0" stroke-linecap="round" stroke-linejoin="round" />
<path d="M 152.5 247.5 L 151.25 248.75 L 151.25 248.75 L 161.25 243.75 L 183.75 230.0 L 196.25 223.75 " stroke="black" fill="none" stroke-width="6.0" stroke-linecap="round" stroke-linejoin="round" />
</svg>