<svg xmlns="http://www.w3.org/2000/svg" width="300" height="300" viewBox="0 0 300 300">
<path d="M 157.5 71.25 L 156.25 67.5 L 153.75 67.5 L 153.75 72.5 L 153.75 87.5 L 152.5 105.0 L 150.0 117.5 L 150.0 120.0 L 151.25 118.75 L 160.0 111.25 L 172.5 103.75 L 182.5 100.0 L 188.75 98.75 L 187.5 106.25 L 176.25 125.0 L 160.0 143.75 L 147.5 161.25 L 140.0 173.75 L 141.25 176.25 L 151.25 172.5 L 165.0 163.75 L 180.0 158.75 L 190.0 157.5 L 191.25 172.5 L 178.75 202.5 L 162.5 236.25 L 150.0 253.75 L 142.5 257.5 L 136.25 252.5 L 133.75 248.75 " stroke="black" fill="none" stroke-width="6.0" stroke-linecap="round" stroke-linejoin="round" />
<path d="M 136.25 186.25 L 136.25 186.25 L 136.25 185.0 L 141.25 183.75 L 153.75 183.75 L 171.25 187.5 L 186.25 191.25 L 188.75 195.0 " stroke="black" fill="none" stroke-width="6.0" stroke-linecap="round" stroke-linejoin="round" />
<path d="M 136.25 206.25 L 136.25 206.25 L 133.75 210.0 L 140.0 211.25 L 155.0 212.5 L 173.75 213.75 L 180.0 215.0 " stroke="black" fill="none" stroke-width="6.0" stroke-linecap="round" stroke-linejoin="round" />
</svg>