<svg xmlns="http://www.w3.org/2000/svg" width="300" height="300" viewBox="0 0 300 300">
<path d="M 82.5 92.5 L 82.5 92.5 L 80.0 92.5 L 78.75 95.0 L 78.75 120.0 L 81.25 152.5 L 82.5 165.0 L 83.75 162.5 " stroke="black" fill="none" stroke-width="6.0" stroke-linecap="round" stroke-linejoin="round" />
<path d="M 78.75 106.25 L 76.25 106.25 L 70.0 107.5 L 70.0 107.5 L 75.0 107.5 L 90.0 103.75 L 107.5 95.0 L 121.25 86.25 L 123.75 82.5 L 117.5 85.0 " stroke="black" fill="none" stroke-width="6.0" stroke-linecap="round" stroke-linejoin="round" />
<path d="M 83.75 137.5 L 83.75 137.5 L 83.75 137.5 L 90.0 130.0 L 102.5 118.75 L 127.5 98.75 L 132.5 96.25 L 125.0 102.5 " stroke="black" fill="none" stroke-width="6.0" stroke-linecap="round" stroke-linejoin="round" />
<path d="M 90.0 153.75 L 87.5 156.25 L 87.5 156.25 L 95.0 148.75 L 107.5 135.0 L 121.25 118.75 L 126.25 106.25 L 122.5 101.25 L 116.25 100.0 L 111.25 100.0 L 108.75 102.5 L 107.5 115.0 L 107.5 138.75 L 107.5 160.0 L 113.75 168.75 L 122.5 168.75 L 135.0 161.25 L 145.0 157.5 L 148.75 161.25 L 145.0 181.25 L 135.0 203.75 L 122.5 226.25 L 110.0 242.5 L 101.25 245.0 L 95.0 238.75 L 88.75 225.0 L 87.5 222.5 " stroke="black" fill="none" stroke-width="6.0" stroke-linecap="round" stroke-linejoin="round" />
<path d="M 58.75 191.25 L 57.5 191.25 L 53.75 191.25 L 53.75 192.5 L 57.5 200.0 L 67.5 215.0 L 76.25 230.0 L 82.5 235.0 L 83.75 231.25 L 82.5 223.75 " stroke="black" fill="none" stroke-width="6.0" stroke-linecap="round" stroke-linejoin="round" />
<path d="M 82.5 191.25 L 81.25 191.25 L 81.25 191.25 L 82.5 195.0 L 88.75 206.25 L 93.75 215.0 L 96.25 217.5 L 96.25 212.5 L 96.25 205.0 L 96.25 196.25 L 96.25 190.0 L 96.25 188.75 L 97.5 191.25 L 101.25 200.0 L 105.0 208.75 L 106.25 211.25 " stroke="black" fill="none" stroke-width="6.0" stroke-linecap="round" stroke-linejoin="round" />
<path d="M 116.25 190.0 L 116.25 190.0 L 116.25 190.0 L 117.5 191.25 L 123.75 200.0 L 126.25 201.25 " stroke="black" fill="none" stroke-width="6.0" stroke-linecap="round" stroke-linejoin="round" />
<path d="M 166.25 145.0 L 158.75 148.75 L 156.25 150.0 L 162.5 150.0 L 185.0 145.0 L 207.5 135.0 L 228.75 126.25 L 238.75 123.75 L 237.5 132.5 L 226.25 148.75 L 212.5 166.25 L 201.25 176.25 L 200.0 177.5 " stroke="black" fill="none" stroke-width="6.0" stroke-linecap="round" stroke-linejoin="round" />
<path d="M 193.75 118.75 L 192.5 115.0 L 191.25 113.75 L 191.25 122.5 L 193.75 143.75 L 195.0 167.5 L 195.0 186.25 L 191.25 188.75 " stroke="black" fill="none" stroke-width="6.0" stroke-linecap="round" stroke-linejoin="round" />
<path d="M 166.25 126.25 L 166.25 122.5 L 162.5 116.25 L 161.25 113.75 L 161.25 122.5 L 165.0 150.0 L 170.0 186.25 L 180.0 216.25 L 196.25 232.5 L 212.5 236.25 L 230.0 236.25 L 248.75 235.0 L 262.5 228.75 L 268.75 223.75 L 270.0 220.0 L 271.25 216.25 L 272.5 211.25 L 272.5 200.0 L 272.5 175.0 L 270.0 141.25 " stroke="black" fill="none" stroke-width="6.0" stroke-linecap="round" stroke-linejoin="round" />
</svg>