<svg xmlns="http://www.w3.org/2000/svg" width="300" height="300" viewBox="0 0 300 300">
<path d="M 88.75 80.0 L 86.25 78.75 L 85.0 78.75 L 83.75 78.75 L 85.0 83.75 L 88.75 100.0 L 92.5 120.0 L 95.0 135.0 L 95.0 136.25 " stroke="black" fill="none" stroke-width="6.0" stroke-linecap="round" stroke-linejoin="round" />
<path d="M 86.25 81.25 L 83.75 80.0 L 81.25 80.0 L 81.25 80.0 L 90.0 77.5 L 103.75 75.0 L 120.0 72.5 L 130.0 71.25 L 132.5 71.25 " stroke="black" fill="none" stroke-width="6.0" stroke-linecap="round" stroke-linejoin="round" />
<path d="M 92.5 92.5 L 90.0 92.5 L 86.25 95.0 L 85.0 96.25 L 87.5 97.5 L 96.25 95.0 L 107.5 90.0 L 117.5 85.0 L 121.25 81.25 L 117.5 81.25 L 115.0 81.25 " stroke="black" fill="none" stroke-width="6.0" stroke-linecap="round" stroke-linejoin="round" />
<path d="M 87.5 107.5 L 87.5 108.75 L 83.75 111.25 L 82.5 111.25 L 86.25 111.25 L 93.75 110.0 L 112.5 102.5 L 125.0 97.5 L 128.75 95.0 " stroke="black" fill="none" stroke-width="6.0" stroke-linecap="round" stroke-linejoin="round" />
<path d="M 66.25 136.25 L 66.25 136.25 L 66.25 136.25 L 75.0 135.0 L 93.75 128.75 L 116.25 118.75 L 130.0 112.5 L 127.5 115.0 L 115.0 125.0 L 100.0 137.5 L 87.5 150.0 L 78.75 160.0 L 77.5 162.5 L 86.25 160.0 L 98.75 155.0 L 113.75 146.25 L 126.25 140.0 L 132.5 136.25 L 133.75 136.25 L 130.0 136.25 L 126.25 136.25 L 122.5 136.25 L 121.25 133.75 L 120.0 133.75 L 118.75 132.5 L 118.75 132.5 L 120.0 133.75 L 125.0 140.0 L 133.75 146.25 L 141.25 152.5 " stroke="black" fill="none" stroke-width="6.0" stroke-linecap="round" stroke-linejoin="round" />
<path d="M 191.25 66.25 L 191.25 66.25 L 190.0 63.75 L 187.5 63.75 L 182.5 67.5 L 171.25 81.25 L 157.5 100.0 L 148.75 113.75 L 147.5 112.5 L 150.0 110.0 " stroke="black" fill="none" stroke-width="6.0" stroke-linecap="round" stroke-linejoin="round" />
<path d="M 198.75 77.5 L 198.75 77.5 L 197.5 77.5 L 192.5 81.25 L 182.5 95.0 L 171.25 112.5 L 163.75 123.75 L 163.75 121.25 L 173.75 111.25 L 186.25 101.25 L 197.5 92.5 L 205.0 88.75 L 205.0 88.75 L 200.0 98.75 L 188.75 116.25 L 175.0 136.25 L 162.5 146.25 " stroke="black" fill="none" stroke-width="6.0" stroke-linecap="round" stroke-linejoin="round" />
<path d="M 67.5 200.0 L 66.25 200.0 L 65.0 200.0 L 70.0 200.0 L 90.0 200.0 L 130.0 192.5 L 170.0 181.25 L 198.75 170.0 L 207.5 163.75 L 205.0 162.5 L 193.75 165.0 L 172.5 168.75 L 167.5 168.75 " stroke="black" fill="none" stroke-width="6.0" stroke-linecap="round" stroke-linejoin="round" />
<path d="M 133.75 173.75 L 133.75 173.75 L 132.5 175.0 L 132.5 180.0 L 130.0 196.25 L 120.0 226.25 L 100.0 255.0 L 83.75 268.75 L 70.0 271.25 L 62.5 263.75 L 62.5 261.25 " stroke="black" fill="none" stroke-width="6.0" stroke-linecap="round" stroke-linejoin="round" />
<path d="M 122.5 206.25 L 125.0 208.75 L 136.25 221.25 L 158.75 241.25 L 182.5 257.5 L 205.0 268.75 L 223.75 276.25 L 232.5 276.25 L 231.25 270.0 L 223.75 263.75 " stroke="black" fill="none" stroke-width="6.0" stroke-linecap="round" stroke-linejoin="round" />
<path d="M 198.75 201.25 L 198.75 201.25 L 198.75 203.75 L 191.25 220.0 L 168.75 252.5 L 146.25 273.75 L 122.5 286.25 L 100.0 285.0 L 96.25 276.25 " stroke="black" fill="none" stroke-width="6.0" stroke-linecap="round" stroke-linejoin="round" />
<path d="M 228.75 148.75 L 231.25 148.75 L 233.75 150.0 L 240.0 157.5 L 247.5 171.25 L 252.5 185.0 L 252.5 187.5 " stroke="black" fill="none" stroke-width="6.0" stroke-linecap="round" stroke-linejoin="round" />
</svg>