<svg xmlns="http://www.w3.org/2000/svg" width="300" height="300" viewBox="0 0 300 300">
<path d="M 73.75 101.25 L 71.25 100.0 L 70.0 98.75 L 71.25 107.5 L 77.5 133.75 L 81.25 162.5 L 82.5 182.5 L 81.25 187.5 L 78.75 186.25 " stroke="black" fill="none" stroke-width="6.0" stroke-linecap="round" stroke-linejoin="round" />
<path d="M 76.25 117.5 L 73.75 117.5 L 72.5 117.5 L 75.0 116.25 L 86.25 108.75 L 98.75 102.5 L 110.0 96.25 L 110.0 95.0 " stroke="black" fill="none" stroke-width="6.0" stroke-linecap="round" stroke-linejoin="round" />
<path d="M 87.5 132.5 L 83.75 132.5 L 82.5 132.5 L 86.25 130.0 L 97.5 122.5 L 107.5 115.0 L 113.75 111.25 L 110.0 115.0 L 107.5 116.25 " stroke="black" fill="none" stroke-width="6.0" stroke-linecap="round" stroke-linejoin="round" />
<path d="M 91.25 146.25 L 90.0 150.0 L 88.75 151.25 L 91.25 148.75 L 100.0 141.25 L 110.0 133.75 L 116.25 127.5 L 116.25 125.0 L 115.0 125.0 " stroke="black" fill="none" stroke-width="6.0" stroke-linecap="round" stroke-linejoin="round" />
<path d="M 102.5 112.5 L 102.5 112.5 L 102.5 111.25 L 103.75 113.75 L 103.75 128.75 L 103.75 153.75 L 106.25 172.5 L 110.0 178.75 L 117.5 178.75 L 128.75 176.25 L 138.75 172.5 L 145.0 171.25 L 146.25 177.5 L 142.5 193.75 L 133.75 213.75 L 125.0 231.25 L 115.0 241.25 L 105.0 242.5 L 98.75 240.0 " stroke="black" fill="none" stroke-width="6.0" stroke-linecap="round" stroke-linejoin="round" />
<path d="M 60.0 198.75 L 60.0 198.75 L 57.5 198.75 L 56.25 200.0 L 60.0 211.25 L 66.25 228.75 L 72.5 243.75 L 73.75 248.75 L 73.75 246.25 " stroke="black" fill="none" stroke-width="6.0" stroke-linecap="round" stroke-linejoin="round" />
<path d="M 80.0 203.75 L 77.5 202.5 L 77.5 202.5 L 77.5 205.0 L 81.25 213.75 L 87.5 222.5 L 90.0 228.75 L 91.25 228.75 L 92.5 221.25 L 93.75 211.25 L 95.0 202.5 L 96.25 197.5 L 96.25 195.0 L 97.5 201.25 L 101.25 210.0 L 105.0 220.0 L 105.0 225.0 L 105.0 222.5 L 105.0 213.75 L 108.75 203.75 L 113.75 195.0 L 116.25 191.25 L 120.0 192.5 L 126.25 205.0 L 131.25 220.0 " stroke="black" fill="none" stroke-width="6.0" stroke-linecap="round" stroke-linejoin="round" />
<path d="M 153.75 83.75 L 153.75 83.75 L 152.5 86.25 L 151.25 87.5 L 151.25 90.0 L 160.0 90.0 L 171.25 87.5 L 182.5 83.75 L 185.0 82.5 L 183.75 82.5 " stroke="black" fill="none" stroke-width="6.0" stroke-linecap="round" stroke-linejoin="round" />
<path d="M 151.25 116.25 L 150.0 132.5 L 150.0 147.5 L 155.0 156.25 L 160.0 157.5 L 161.25 153.75 " stroke="black" fill="none" stroke-width="6.0" stroke-linecap="round" stroke-linejoin="round" />
<path d="M 151.25 130.0 L 150.0 127.5 L 148.75 126.25 L 155.0 123.75 L 170.0 118.75 L 187.5 113.75 L 197.5 111.25 L 198.75 116.25 L 192.5 127.5 L 183.75 137.5 L 175.0 145.0 L 167.5 146.25 L 163.75 145.0 L 163.75 137.5 L 165.0 130.0 L 167.5 126.25 L 167.5 125.0 L 167.5 128.75 L 170.0 140.0 L 172.5 151.25 L 173.75 156.25 L 175.0 157.5 " stroke="black" fill="none" stroke-width="6.0" stroke-linecap="round" stroke-linejoin="round" />
<path d="M 196.25 85.0 L 196.25 83.75 L 196.25 81.25 L 200.0 78.75 L 212.5 76.25 L 225.0 75.0 L 230.0 73.75 L 226.25 77.5 L 216.25 86.25 L 208.75 96.25 L 203.75 110.0 L 203.75 126.25 L 208.75 136.25 L 213.75 140.0 L 217.5 140.0 L 217.5 140.0 L 217.5 140.0 L 215.0 138.75 L 211.25 136.25 L 207.5 132.5 L 202.5 127.5 L 198.75 122.5 L 197.5 116.25 L 202.5 110.0 L 213.75 103.75 L 226.25 100.0 L 238.75 98.75 L 243.75 100.0 L 243.75 107.5 L 236.25 118.75 L 226.25 130.0 L 216.25 136.25 " stroke="black" fill="none" stroke-width="6.0" stroke-linecap="round" stroke-linejoin="round" />
<path d="M 216.25 100.0 L 216.25 98.75 L 216.25 98.75 L 216.25 108.75 L 216.25 130.0 L 215.0 138.75 " stroke="black" fill="none" stroke-width="6.0" stroke-linecap="round" stroke-linejoin="round" />
<path d="M 180.0 141.25 L 180.0 141.25 L 178.75 141.25 L 180.0 140.0 L 188.75 140.0 L 198.75 140.0 L 206.25 141.25 L 207.5 145.0 L 200.0 150.0 L 197.5 151.25 " stroke="black" fill="none" stroke-width="6.0" stroke-linecap="round" stroke-linejoin="round" />
<path d="M 147.5 178.75 L 143.75 181.25 L 142.5 182.5 L 148.75 181.25 L 168.75 172.5 L 196.25 157.5 L 221.25 143.75 L 232.5 138.75 L 230.0 138.75 L 216.25 146.25 L 203.75 152.5 L 192.5 157.5 L 180.0 163.75 L 170.0 172.5 L 162.5 183.75 L 160.0 203.75 L 160.0 231.25 L 162.5 253.75 L 166.25 261.25 L 167.5 260.0 L 167.5 253.75 " stroke="black" fill="none" stroke-width="6.0" stroke-linecap="round" stroke-linejoin="round" />
<path d="M 160.0 196.25 L 160.0 196.25 L 160.0 196.25 L 170.0 192.5 L 195.0 183.75 L 221.25 172.5 L 235.0 167.5 L 237.5 167.5 L 228.75 176.25 L 216.25 188.75 L 203.75 197.5 L 195.0 201.25 " stroke="black" fill="none" stroke-width="6.0" stroke-linecap="round" stroke-linejoin="round" />
<path d="M 185.0 168.75 L 185.0 168.75 L 183.75 168.75 L 183.75 173.75 L 185.0 190.0 L 188.75 205.0 L 191.25 208.75 L 193.75 203.75 " stroke="black" fill="none" stroke-width="6.0" stroke-linecap="round" stroke-linejoin="round" />
<path d="M 207.5 162.5 L 208.75 157.5 L 208.75 156.25 L 206.25 167.5 L 201.25 188.75 L 195.0 210.0 L 187.5 223.75 L 186.25 226.25 L 187.5 222.5 L 196.25 212.5 L 205.0 200.0 L 213.75 190.0 L 217.5 185.0 L 215.0 188.75 " stroke="black" fill="none" stroke-width="6.0" stroke-linecap="round" stroke-linejoin="round" />
<path d="M 192.5 242.5 L 191.25 243.75 L 190.0 246.25 L 191.25 245.0 L 200.0 233.75 L 211.25 220.0 L 218.75 208.75 L 216.25 205.0 L 210.0 206.25 L 202.5 208.75 L 196.25 208.75 L 190.0 212.5 L 185.0 221.25 L 183.75 232.5 L 188.75 246.25 L 200.0 253.75 L 211.25 252.5 L 222.5 243.75 L 231.25 231.25 L 235.0 220.0 " stroke="black" fill="none" stroke-width="6.0" stroke-linecap="round" stroke-linejoin="round" />
<path d="M 231.25 217.5 L 228.75 220.0 L 227.5 221.25 L 231.25 218.75 L 245.0 207.5 L 257.5 196.25 L 263.75 187.5 L 263.75 185.0 L 258.75 183.75 L 251.25 183.75 L 243.75 183.75 L 238.75 185.0 L 236.25 190.0 L 236.25 201.25 L 242.5 221.25 L 250.0 242.5 L 258.75 258.75 L 266.25 265.0 L 273.75 267.5 L 278.75 267.5 L 282.5 266.25 L 285.0 265.0 L 286.25 263.75 L 286.25 263.75 L 286.25 261.25 L 286.25 253.75 L 286.25 238.75 L 288.75 207.5 L 288.75 160.0 " stroke="black" fill="none" stroke-width="6.0" stroke-linecap="round" stroke-linejoin="round" />
</svg>