<svg xmlns="http://www.w3.org/2000/svg" width="300" height="300" viewBox="0 0 300 300">
<path d="M 141.25 62.5 L 140.0 62.5 L 138.75 62.5 L 138.75 62.5 L 143.75 65.0 L 156.25 70.0 L 170.0 75.0 L 176.25 80.0 L 176.25 81.25 " stroke="black" fill="none" stroke-width="6.0" stroke-linecap="round" stroke-linejoin="round" />
<path d="M 82.5 92.5 L 80.0 92.5 L 78.75 92.5 L 88.75 92.5 L 117.5 90.0 L 160.0 82.5 L 197.5 71.25 L 207.5 63.75 L 205.0 60.0 L 201.25 60.0 " stroke="black" fill="none" stroke-width="6.0" stroke-linecap="round" stroke-linejoin="round" />
<path d="M 131.25 101.25 L 131.25 102.5 L 131.25 110.0 L 133.75 126.25 L 138.75 140.0 L 141.25 145.0 L 141.25 145.0 L 137.5 138.75 L 132.5 133.75 L 128.75 126.25 L 123.75 121.25 L 123.75 116.25 L 128.75 112.5 L 143.75 108.75 L 158.75 107.5 L 170.0 107.5 L 170.0 112.5 L 157.5 125.0 L 143.75 137.5 L 132.5 145.0 L 131.25 146.25 L 141.25 140.0 L 166.25 120.0 L 166.25 117.5 " stroke="black" fill="none" stroke-width="6.0" stroke-linecap="round" stroke-linejoin="round" />
<path d="M 95.0 158.75 L 93.75 158.75 L 92.5 158.75 L 92.5 168.75 L 93.75 201.25 L 97.5 231.25 L 100.0 241.25 L 101.25 237.5 L 101.25 227.5 " stroke="black" fill="none" stroke-width="6.0" stroke-linecap="round" stroke-linejoin="round" />
<path d="M 98.75 172.5 L 98.75 172.5 L 96.25 171.25 L 100.0 170.0 L 120.0 163.75 L 157.5 151.25 L 197.5 140.0 L 222.5 137.5 L 231.25 148.75 L 232.5 173.75 L 230.0 211.25 L 231.25 240.0 L 233.75 255.0 L 235.0 258.75 L 235.0 258.75 L 232.5 256.25 L 226.25 251.25 L 217.5 241.25 L 203.75 230.0 " stroke="black" fill="none" stroke-width="6.0" stroke-linecap="round" stroke-linejoin="round" />
<path d="M 138.75 190.0 L 135.0 190.0 L 132.5 191.25 L 136.25 201.25 L 143.75 217.5 L 151.25 226.25 L 155.0 228.75 L 153.75 220.0 L 151.25 210.0 L 147.5 201.25 L 142.5 195.0 L 140.0 190.0 L 142.5 185.0 L 156.25 181.25 L 175.0 177.5 L 187.5 180.0 L 188.75 191.25 L 175.0 206.25 L 160.0 221.25 L 153.75 227.5 L 156.25 225.0 L 175.0 208.75 L 185.0 198.75 " stroke="black" fill="none" stroke-width="6.0" stroke-linecap="round" stroke-linejoin="round" />
</svg>