<svg xmlns="http://www.w3.org/2000/svg" width="300" height="300" viewBox="0 0 300 300">
<path d="M 61.25 93.75 L 61.25 93.75 L 61.25 96.25 L 61.25 105.0 L 63.75 133.75 L 66.25 162.5 L 70.0 175.0 L 70.0 175.0 L 68.75 167.5 L 68.75 161.25 " stroke="black" fill="none" stroke-width="6.0" stroke-linecap="round" stroke-linejoin="round" />
<path d="M 61.25 101.25 L 61.25 101.25 L 58.75 102.5 L 57.5 102.5 L 61.25 102.5 L 72.5 98.75 L 85.0 92.5 L 95.0 86.25 L 98.75 81.25 L 97.5 81.25 " stroke="black" fill="none" stroke-width="6.0" stroke-linecap="round" stroke-linejoin="round" />
<path d="M 63.75 131.25 L 63.75 131.25 L 63.75 131.25 L 63.75 131.25 L 70.0 128.75 L 80.0 121.25 L 91.25 112.5 L 95.0 108.75 L 93.75 108.75 " stroke="black" fill="none" stroke-width="6.0" stroke-linecap="round" stroke-linejoin="round" />
<path d="M 66.25 148.75 L 66.25 150.0 L 67.5 150.0 L 76.25 147.5 L 88.75 140.0 L 98.75 131.25 L 101.25 125.0 L 100.0 125.0 " stroke="black" fill="none" stroke-width="6.0" stroke-linecap="round" stroke-linejoin="round" />
<path d="M 81.25 101.25 L 81.25 100.0 L 81.25 98.75 L 82.5 100.0 L 85.0 116.25 L 87.5 142.5 L 88.75 163.75 L 90.0 175.0 L 92.5 176.25 L 97.5 173.75 L 106.25 168.75 L 115.0 165.0 L 122.5 165.0 L 126.25 168.75 L 122.5 183.75 L 113.75 201.25 L 105.0 216.25 L 98.75 225.0 L 96.25 225.0 L 95.0 222.5 " stroke="black" fill="none" stroke-width="6.0" stroke-linecap="round" stroke-linejoin="round" />
<path d="M 45.0 195.0 L 48.75 201.25 L 55.0 215.0 L 61.25 226.25 L 63.75 232.5 L 63.75 232.5 " stroke="black" fill="none" stroke-width="6.0" stroke-linecap="round" stroke-linejoin="round" />
<path d="M 66.25 190.0 L 66.25 190.0 L 66.25 192.5 L 67.5 198.75 L 72.5 208.75 L 77.5 217.5 L 80.0 221.25 " stroke="black" fill="none" stroke-width="6.0" stroke-linecap="round" stroke-linejoin="round" />
<path d="M 82.5 192.5 L 81.25 192.5 L 81.25 193.75 L 80.0 196.25 L 82.5 203.75 L 87.5 212.5 L 90.0 217.5 " stroke="black" fill="none" stroke-width="6.0" stroke-linecap="round" stroke-linejoin="round" />
<path d="M 98.75 186.25 L 97.5 187.5 L 97.5 192.5 L 98.75 201.25 L 102.5 211.25 " stroke="black" fill="none" stroke-width="6.0" stroke-linecap="round" stroke-linejoin="round" />
<path d="M 170.0 61.25 L 170.0 61.25 L 170.0 61.25 L 170.0 65.0 L 172.5 75.0 L 176.25 87.5 L 177.5 96.25 L 177.5 97.5 L 177.5 97.5 " stroke="black" fill="none" stroke-width="6.0" stroke-linecap="round" stroke-linejoin="round" />
<path d="M 171.25 75.0 L 171.25 75.0 L 171.25 73.75 L 171.25 73.75 L 171.25 73.75 L 173.75 72.5 L 181.25 71.25 L 191.25 67.5 L 198.75 63.75 L 201.25 62.5 L 198.75 65.0 " stroke="black" fill="none" stroke-width="6.0" stroke-linecap="round" stroke-linejoin="round" />
<path d="M 158.75 102.5 L 157.5 102.5 L 155.0 105.0 L 153.75 106.25 L 155.0 106.25 L 166.25 103.75 L 183.75 100.0 L 202.5 95.0 L 216.25 93.75 L 220.0 92.5 L 217.5 96.25 L 208.75 103.75 L 197.5 112.5 L 185.0 118.75 " stroke="black" fill="none" stroke-width="6.0" stroke-linecap="round" stroke-linejoin="round" />
<path d="M 157.5 106.25 L 157.5 106.25 L 156.25 106.25 L 155.0 112.5 L 156.25 141.25 L 161.25 186.25 L 163.75 218.75 L 162.5 237.5 L 157.5 245.0 L 152.5 246.25 L 151.25 245.0 " stroke="black" fill="none" stroke-width="6.0" stroke-linecap="round" stroke-linejoin="round" />
<path d="M 156.25 145.0 L 156.25 145.0 L 156.25 143.75 L 157.5 143.75 L 165.0 141.25 L 182.5 136.25 L 200.0 128.75 L 208.75 120.0 L 208.75 116.25 L 202.5 115.0 " stroke="black" fill="none" stroke-width="6.0" stroke-linecap="round" stroke-linejoin="round" />
<path d="M 176.25 125.0 L 176.25 126.25 L 176.25 132.5 L 178.75 141.25 L 187.5 148.75 L 201.25 150.0 L 215.0 142.5 L 223.75 131.25 L 225.0 123.75 " stroke="black" fill="none" stroke-width="6.0" stroke-linecap="round" stroke-linejoin="round" />
<path d="M 165.0 160.0 L 166.25 161.25 L 166.25 163.75 L 168.75 171.25 L 175.0 186.25 L 183.75 200.0 L 187.5 203.75 L 188.75 203.75 L 187.5 198.75 L 185.0 193.75 " stroke="black" fill="none" stroke-width="6.0" stroke-linecap="round" stroke-linejoin="round" />
<path d="M 177.5 173.75 L 177.5 172.5 L 175.0 170.0 L 175.0 167.5 L 180.0 166.25 L 192.5 162.5 L 208.75 160.0 L 222.5 160.0 L 231.25 162.5 L 232.5 170.0 L 226.25 180.0 L 217.5 188.75 L 207.5 193.75 " stroke="black" fill="none" stroke-width="6.0" stroke-linecap="round" stroke-linejoin="round" />
<path d="M 183.75 186.25 L 182.5 187.5 L 181.25 187.5 L 188.75 185.0 L 200.0 178.75 L 212.5 171.25 L 220.0 163.75 L 218.75 161.25 L 211.25 161.25 L 208.75 162.5 " stroke="black" fill="none" stroke-width="6.0" stroke-linecap="round" stroke-linejoin="round" />
<path d="M 202.5 160.0 L 202.5 161.25 L 202.5 162.5 L 202.5 168.75 L 201.25 183.75 L 198.75 198.75 L 196.25 206.25 L 195.0 207.5 L 195.0 206.25 L 197.5 202.5 L 205.0 196.25 L 213.75 188.75 L 222.5 180.0 L 225.0 177.5 " stroke="black" fill="none" stroke-width="6.0" stroke-linecap="round" stroke-linejoin="round" />
<path d="M 171.25 206.25 L 168.75 207.5 L 167.5 208.75 L 167.5 218.75 L 175.0 238.75 L 185.0 255.0 L 190.0 261.25 L 191.25 260.0 L 191.25 255.0 L 188.75 248.75 L 186.25 242.5 L 183.75 236.25 L 180.0 230.0 L 177.5 226.25 L 176.25 223.75 L 180.0 222.5 L 192.5 220.0 L 208.75 215.0 L 228.75 210.0 L 245.0 208.75 L 251.25 211.25 L 250.0 220.0 L 242.5 232.5 L 231.25 243.75 L 218.75 251.25 L 210.0 253.75 " stroke="black" fill="none" stroke-width="6.0" stroke-linecap="round" stroke-linejoin="round" />
<path d="M 198.75 235.0 L 198.75 240.0 L 200.0 250.0 L 202.5 255.0 L 203.75 253.75 " stroke="black" fill="none" stroke-width="6.0" stroke-linecap="round" stroke-linejoin="round" />
<path d="M 216.25 213.75 L 216.25 213.75 L 216.25 213.75 L 217.5 217.5 L 215.0 228.75 L 210.0 243.75 L 202.5 253.75 L 196.25 258.75 L 186.25 260.0 L 180.0 261.25 L 177.5 261.25 L 177.5 261.25 L 180.0 261.25 L 186.25 260.0 L 195.0 258.75 L 205.0 257.5 L 213.75 256.25 L 226.25 255.0 L 240.0 255.0 L 251.25 253.75 L 261.25 251.25 L 267.5 247.5 L 271.25 245.0 L 271.25 243.75 L 271.25 242.5 " stroke="black" fill="none" stroke-width="6.0" stroke-linecap="round" stroke-linejoin="round" />
</svg>