<svg xmlns="http://www.w3.org/2000/svg" width="300" height="300" viewBox="0 0 300 300">
<path d="M 106.25 116.25 L 106.25 118.75 L 101.25 128.75 L 95.0 148.75 L 87.5 177.5 L 80.0 195.0 L 77.5 195.0 L 77.5 187.5 L 82.5 175.0 L 90.0 160.0 L 96.25 148.75 L 105.0 145.0 L 112.5 161.25 L 115.0 195.0 L 108.75 227.5 L 101.25 243.75 L 98.75 238.75 L 97.5 230.0 " stroke="black" fill="none" stroke-width="6.0" stroke-linecap="round" stroke-linejoin="round" />
<path d="M 130.0 132.5 L 132.5 132.5 L 142.5 131.25 L 167.5 120.0 L 200.0 105.0 L 213.75 95.0 L 213.75 92.5 L 206.25 91.25 L 197.5 92.5 L 188.75 93.75 L 182.5 93.75 L 180.0 92.5 L 180.0 92.5 L 185.0 108.75 L 191.25 155.0 L 195.0 216.25 L 196.25 248.75 L 196.25 258.75 L 193.75 260.0 L 188.75 256.25 L 180.0 247.5 L 171.25 232.5 " stroke="black" fill="none" stroke-width="6.0" stroke-linecap="round" stroke-linejoin="round" />
<path d="M 182.5 141.25 L 181.25 142.5 L 176.25 152.5 L 163.75 173.75 L 147.5 203.75 L 133.75 220.0 L 121.25 222.5 L 120.0 220.0 " stroke="black" fill="none" stroke-width="6.0" stroke-linecap="round" stroke-linejoin="round" />
<path d="M 176.25 133.75 L 183.75 133.75 L 198.75 142.5 L 216.25 156.25 L 232.5 168.75 L 243.75 173.75 L 245.0 175.0 L 240.0 176.25 " stroke="black" fill="none" stroke-width="6.0" stroke-linecap="round" stroke-linejoin="round" />
<path d="M 172.5 211.25 L 166.25 218.75 L 167.5 220.0 L 186.25 218.75 L 208.75 210.0 L 230.0 195.0 " stroke="black" fill="none" stroke-width="6.0" stroke-linecap="round" stroke-linejoin="round" />
</svg>