<svg xmlns="http://www.w3.org/2000/svg" width="300" height="300" viewBox="0 0 300 300">
<path d="M 95.0 71.25 L 93.75 70.0 L 91.25 68.75 L 91.25 68.75 L 91.25 80.0 L 93.75 102.5 L 96.25 126.25 L 98.75 138.75 L 98.75 140.0 L 96.25 137.5 " stroke="black" fill="none" stroke-width="6.0" stroke-linecap="round" stroke-linejoin="round" />
<path d="M 92.5 81.25 L 91.25 81.25 L 90.0 81.25 L 91.25 80.0 L 98.75 77.5 L 112.5 72.5 L 126.25 66.25 L 135.0 61.25 L 133.75 61.25 L 130.0 63.75 " stroke="black" fill="none" stroke-width="6.0" stroke-linecap="round" stroke-linejoin="round" />
<path d="M 100.0 93.75 L 95.0 100.0 L 92.5 103.75 L 96.25 103.75 L 103.75 101.25 L 115.0 95.0 L 126.25 87.5 L 132.5 82.5 L 130.0 82.5 L 127.5 83.75 " stroke="black" fill="none" stroke-width="6.0" stroke-linecap="round" stroke-linejoin="round" />
<path d="M 98.75 112.5 L 98.75 113.75 L 96.25 115.0 L 95.0 116.25 L 95.0 117.5 L 98.75 116.25 L 110.0 111.25 L 123.75 105.0 L 133.75 98.75 L 136.25 96.25 L 136.25 96.25 " stroke="black" fill="none" stroke-width="6.0" stroke-linecap="round" stroke-linejoin="round" />
<path d="M 72.5 146.25 L 70.0 148.75 L 68.75 150.0 L 75.0 150.0 L 90.0 143.75 L 108.75 133.75 L 126.25 123.75 L 136.25 117.5 L 135.0 116.25 L 126.25 123.75 L 113.75 133.75 L 101.25 145.0 L 93.75 155.0 L 91.25 160.0 L 96.25 161.25 L 106.25 158.75 L 118.75 152.5 L 130.0 146.25 L 136.25 141.25 L 137.5 137.5 L 135.0 136.25 L 131.25 135.0 L 128.75 135.0 L 127.5 135.0 L 127.5 135.0 L 127.5 135.0 L 128.75 137.5 L 132.5 143.75 L 138.75 151.25 L 145.0 157.5 L 147.5 160.0 L 147.5 160.0 " stroke="black" fill="none" stroke-width="6.0" stroke-linecap="round" stroke-linejoin="round" />
<path d="M 173.75 68.75 L 173.75 68.75 L 171.25 68.75 L 167.5 75.0 L 161.25 90.0 L 156.25 107.5 L 153.75 116.25 L 155.0 113.75 " stroke="black" fill="none" stroke-width="6.0" stroke-linecap="round" stroke-linejoin="round" />
<path d="M 196.25 77.5 L 196.25 76.25 L 196.25 76.25 L 192.5 81.25 L 185.0 95.0 L 172.5 115.0 L 163.75 128.75 L 161.25 130.0 L 165.0 125.0 " stroke="black" fill="none" stroke-width="6.0" stroke-linecap="round" stroke-linejoin="round" />
<path d="M 211.25 87.5 L 211.25 88.75 L 211.25 91.25 L 207.5 103.75 L 193.75 132.5 L 173.75 155.0 " stroke="black" fill="none" stroke-width="6.0" stroke-linecap="round" stroke-linejoin="round" />
<path d="M 72.5 198.75 L 68.75 200.0 L 68.75 201.25 L 81.25 201.25 L 107.5 196.25 L 150.0 183.75 L 186.25 167.5 L 205.0 160.0 L 207.5 157.5 L 202.5 157.5 L 200.0 158.75 " stroke="black" fill="none" stroke-width="6.0" stroke-linecap="round" stroke-linejoin="round" />
<path d="M 145.0 172.5 L 145.0 172.5 L 145.0 172.5 L 147.5 175.0 L 152.5 188.75 L 153.75 207.5 L 148.75 221.25 L 142.5 227.5 L 132.5 230.0 L 122.5 230.0 L 120.0 230.0 L 120.0 230.0 L 128.75 230.0 L 141.25 226.25 L 157.5 221.25 L 172.5 213.75 L 182.5 208.75 L 183.75 206.25 L 173.75 207.5 L 171.25 207.5 " stroke="black" fill="none" stroke-width="6.0" stroke-linecap="round" stroke-linejoin="round" />
<path d="M 110.0 248.75 L 110.0 248.75 L 108.75 248.75 L 108.75 251.25 L 115.0 257.5 L 125.0 270.0 L 136.25 278.75 L 141.25 281.25 L 142.5 281.25 L 138.75 278.75 L 133.75 275.0 L 126.25 271.25 L 120.0 268.75 L 113.75 265.0 L 110.0 263.75 L 110.0 262.5 L 113.75 260.0 L 133.75 252.5 L 153.75 245.0 L 178.75 235.0 L 198.75 230.0 L 205.0 230.0 L 206.25 233.75 L 198.75 243.75 L 186.25 253.75 L 170.0 263.75 L 152.5 273.75 L 141.25 280.0 L 138.75 282.5 L 140.0 282.5 L 147.5 280.0 L 158.75 275.0 L 172.5 268.75 L 185.0 263.75 L 193.75 258.75 L 195.0 256.25 " stroke="black" fill="none" stroke-width="6.0" stroke-linecap="round" stroke-linejoin="round" />
</svg>