<svg xmlns="http://www.w3.org/2000/svg" width="300" height="300" viewBox="0 0 300 300">
<path d="M 82.5 102.5 L 81.25 102.5 L 77.5 101.25 L 76.25 103.75 L 76.25 122.5 L 80.0 156.25 L 81.25 183.75 L 82.5 192.5 L 82.5 190.0 L 83.75 181.25 L 83.75 170.0 " stroke="black" fill="none" stroke-width="6.0" stroke-linecap="round" stroke-linejoin="round" />
<path d="M 80.0 113.75 L 78.75 113.75 L 76.25 111.25 L 76.25 111.25 L 82.5 108.75 L 93.75 106.25 L 105.0 103.75 L 115.0 100.0 L 121.25 97.5 L 122.5 96.25 L 117.5 97.5 " stroke="black" fill="none" stroke-width="6.0" stroke-linecap="round" stroke-linejoin="round" />
<path d="M 88.75 143.75 L 85.0 147.5 L 85.0 148.75 L 91.25 147.5 L 101.25 141.25 L 112.5 133.75 L 122.5 125.0 L 125.0 120.0 L 121.25 122.5 L 112.5 130.0 " stroke="black" fill="none" stroke-width="6.0" stroke-linecap="round" stroke-linejoin="round" />
<path d="M 90.0 172.5 L 88.75 173.75 L 88.75 175.0 L 96.25 171.25 L 107.5 162.5 L 118.75 153.75 L 125.0 145.0 L 125.0 138.75 L 123.75 135.0 L 120.0 128.75 L 116.25 120.0 L 116.25 117.5 L 112.5 111.25 L 111.25 113.75 L 111.25 130.0 L 111.25 152.5 L 112.5 173.75 L 113.75 190.0 L 116.25 193.75 L 123.75 192.5 L 132.5 187.5 L 141.25 182.5 L 145.0 180.0 L 146.25 180.0 L 142.5 190.0 L 136.25 206.25 L 128.75 222.5 L 121.25 237.5 L 116.25 242.5 L 113.75 242.5 L 112.5 238.75 " stroke="black" fill="none" stroke-width="6.0" stroke-linecap="round" stroke-linejoin="round" />
<path d="M 65.0 207.5 L 65.0 207.5 L 63.75 208.75 L 62.5 211.25 L 68.75 218.75 L 76.25 228.75 L 82.5 238.75 L 85.0 243.75 L 85.0 243.75 L 85.0 242.5 " stroke="black" fill="none" stroke-width="6.0" stroke-linecap="round" stroke-linejoin="round" />
<path d="M 87.5 207.5 L 86.25 207.5 L 86.25 206.25 L 88.75 210.0 L 95.0 220.0 L 100.0 230.0 L 101.25 238.75 L 101.25 240.0 L 101.25 240.0 " stroke="black" fill="none" stroke-width="6.0" stroke-linecap="round" stroke-linejoin="round" />
<path d="M 102.5 210.0 L 102.5 210.0 L 101.25 210.0 L 102.5 213.75 L 107.5 220.0 L 110.0 227.5 L 110.0 231.25 " stroke="black" fill="none" stroke-width="6.0" stroke-linecap="round" stroke-linejoin="round" />
<path d="M 122.5 203.75 L 122.5 203.75 L 125.0 203.75 L 128.75 208.75 L 135.0 220.0 L 138.75 230.0 " stroke="black" fill="none" stroke-width="6.0" stroke-linecap="round" stroke-linejoin="round" />
<path d="M 175.0 107.5 L 175.0 106.25 L 175.0 106.25 L 177.5 118.75 L 178.75 152.5 L 178.75 187.5 L 173.75 208.75 L 170.0 218.75 L 167.5 221.25 L 166.25 221.25 " stroke="black" fill="none" stroke-width="6.0" stroke-linecap="round" stroke-linejoin="round" />
<path d="M 153.75 145.0 L 153.75 145.0 L 152.5 143.75 L 153.75 143.75 L 162.5 143.75 L 173.75 143.75 L 185.0 142.5 L 187.5 142.5 " stroke="black" fill="none" stroke-width="6.0" stroke-linecap="round" stroke-linejoin="round" />
<path d="M 155.0 165.0 L 155.0 166.25 L 152.5 167.5 L 152.5 167.5 L 161.25 163.75 L 172.5 157.5 L 181.25 151.25 L 183.75 150.0 L 180.0 153.75 L 176.25 158.75 " stroke="black" fill="none" stroke-width="6.0" stroke-linecap="round" stroke-linejoin="round" />
<path d="M 155.0 196.25 L 153.75 198.75 L 153.75 200.0 L 160.0 195.0 L 173.75 181.25 L 193.75 158.75 L 207.5 138.75 L 213.75 123.75 L 216.25 110.0 L 216.25 100.0 L 216.25 92.5 L 213.75 90.0 L 213.75 90.0 L 213.75 91.25 L 213.75 100.0 L 213.75 125.0 L 215.0 161.25 L 216.25 200.0 L 220.0 227.5 L 223.75 246.25 L 226.25 255.0 L 227.5 256.25 L 226.25 256.25 L 222.5 250.0 L 217.5 238.75 " stroke="black" fill="none" stroke-width="6.0" stroke-linecap="round" stroke-linejoin="round" />
<path d="M 206.25 136.25 L 206.25 135.0 L 206.25 132.5 L 210.0 130.0 L 221.25 127.5 L 235.0 125.0 L 246.25 121.25 L 251.25 121.25 L 248.75 125.0 " stroke="black" fill="none" stroke-width="6.0" stroke-linecap="round" stroke-linejoin="round" />
<path d="M 216.25 165.0 L 216.25 168.75 L 216.25 170.0 L 218.75 170.0 L 228.75 162.5 L 241.25 153.75 L 247.5 146.25 L 248.75 146.25 " stroke="black" fill="none" stroke-width="6.0" stroke-linecap="round" stroke-linejoin="round" />
<path d="M 215.0 200.0 L 213.75 206.25 L 213.75 210.0 L 223.75 208.75 L 240.0 201.25 L 255.0 192.5 L 260.0 187.5 " stroke="black" fill="none" stroke-width="6.0" stroke-linecap="round" stroke-linejoin="round" />
</svg>