<svg xmlns="http://www.w3.org/2000/svg" width="300" height="300" viewBox="0 0 300 300">
<path d="M 130.0 85.0 L 127.5 82.5 L 126.25 81.25 L 123.75 78.75 L 123.75 81.25 L 126.25 92.5 L 128.75 108.75 L 131.25 125.0 L 132.5 133.75 L 132.5 135.0 " stroke="black" fill="none" stroke-width="6.0" stroke-linecap="round" stroke-linejoin="round" />
<path d="M 131.25 87.5 L 130.0 87.5 L 128.75 87.5 L 128.75 87.5 L 128.75 87.5 L 136.25 86.25 L 146.25 82.5 L 161.25 78.75 L 177.5 75.0 L 190.0 73.75 L 195.0 75.0 L 193.75 81.25 L 188.75 92.5 L 180.0 106.25 L 173.75 118.75 L 170.0 125.0 L 170.0 125.0 " stroke="black" fill="none" stroke-width="6.0" stroke-linecap="round" stroke-linejoin="round" />
<path d="M 153.75 100.0 L 150.0 102.5 L 147.5 102.5 L 147.5 102.5 L 152.5 101.25 L 162.5 97.5 L 171.25 93.75 L 175.0 91.25 L 173.75 91.25 L 170.0 91.25 " stroke="black" fill="none" stroke-width="6.0" stroke-linecap="round" stroke-linejoin="round" />
<path d="M 153.75 98.75 L 152.5 101.25 L 151.25 102.5 L 151.25 107.5 L 151.25 120.0 L 151.25 135.0 L 151.25 136.25 " stroke="black" fill="none" stroke-width="6.0" stroke-linecap="round" stroke-linejoin="round" />
<path d="M 103.75 133.75 L 102.5 133.75 L 101.25 132.5 L 101.25 141.25 L 101.25 160.0 L 103.75 177.5 L 103.75 183.75 L 103.75 178.75 L 103.75 176.25 " stroke="black" fill="none" stroke-width="6.0" stroke-linecap="round" stroke-linejoin="round" />
<path d="M 106.25 147.5 L 106.25 147.5 L 106.25 148.75 L 107.5 148.75 L 117.5 150.0 L 148.75 147.5 L 177.5 141.25 L 197.5 136.25 L 205.0 135.0 L 205.0 136.25 L 200.0 142.5 L 190.0 151.25 L 177.5 161.25 L 165.0 167.5 " stroke="black" fill="none" stroke-width="6.0" stroke-linecap="round" stroke-linejoin="round" />
<path d="M 138.75 171.25 L 136.25 171.25 L 133.75 171.25 L 133.75 178.75 L 135.0 196.25 L 140.0 217.5 L 143.75 236.25 L 145.0 245.0 L 146.25 245.0 L 146.25 238.75 " stroke="black" fill="none" stroke-width="6.0" stroke-linecap="round" stroke-linejoin="round" />
<path d="M 140.0 191.25 L 140.0 191.25 L 137.5 187.5 L 137.5 185.0 L 141.25 181.25 L 150.0 176.25 L 157.5 172.5 L 167.5 170.0 L 176.25 168.75 L 182.5 171.25 L 186.25 183.75 L 188.75 201.25 L 188.75 222.5 L 188.75 243.75 L 188.75 258.75 L 188.75 265.0 L 188.75 266.25 L 188.75 266.25 L 186.25 262.5 L 183.75 256.25 L 180.0 250.0 L 177.5 246.25 " stroke="black" fill="none" stroke-width="6.0" stroke-linecap="round" stroke-linejoin="round" />
<path d="M 143.75 215.0 L 140.0 216.25 L 138.75 216.25 L 143.75 215.0 L 156.25 206.25 L 172.5 197.5 L 185.0 190.0 L 186.25 188.75 L 177.5 192.5 L 172.5 195.0 " stroke="black" fill="none" stroke-width="6.0" stroke-linecap="round" stroke-linejoin="round" />
<path d="M 155.0 223.75 L 153.75 228.75 L 155.0 230.0 L 166.25 228.75 L 186.25 218.75 L 197.5 211.25 " stroke="black" fill="none" stroke-width="6.0" stroke-linecap="round" stroke-linejoin="round" />
</svg>