<svg xmlns="http://www.w3.org/2000/svg" width="300" height="300" viewBox="0 0 300 300">
<path d="M 66.25 97.5 L 66.25 97.5 L 63.75 97.5 L 63.75 98.75 L 65.0 108.75 L 70.0 137.5 L 71.25 166.25 L 71.25 177.5 L 71.25 177.5 " stroke="black" fill="none" stroke-width="6.0" stroke-linecap="round" stroke-linejoin="round" />
<path d="M 76.25 98.75 L 75.0 98.75 L 75.0 98.75 L 80.0 98.75 L 91.25 93.75 L 106.25 87.5 L 116.25 81.25 L 117.5 80.0 " stroke="black" fill="none" stroke-width="6.0" stroke-linecap="round" stroke-linejoin="round" />
<path d="M 80.0 131.25 L 80.0 132.5 L 81.25 132.5 L 88.75 128.75 L 100.0 120.0 L 110.0 110.0 L 113.75 103.75 L 110.0 103.75 " stroke="black" fill="none" stroke-width="6.0" stroke-linecap="round" stroke-linejoin="round" />
<path d="M 83.75 148.75 L 83.75 150.0 L 83.75 151.25 L 86.25 151.25 L 96.25 145.0 L 108.75 135.0 L 116.25 126.25 L 115.0 121.25 " stroke="black" fill="none" stroke-width="6.0" stroke-linecap="round" stroke-linejoin="round" />
<path d="M 97.5 100.0 L 97.5 100.0 L 97.5 102.5 L 97.5 108.75 L 98.75 130.0 L 98.75 156.25 L 98.75 172.5 L 98.75 177.5 L 100.0 177.5 L 105.0 173.75 L 113.75 168.75 L 122.5 163.75 L 130.0 162.5 L 133.75 163.75 L 133.75 178.75 L 127.5 202.5 L 120.0 228.75 L 112.5 245.0 L 107.5 248.75 L 101.25 246.25 L 98.75 243.75 " stroke="black" fill="none" stroke-width="6.0" stroke-linecap="round" stroke-linejoin="round" />
<path d="M 52.5 211.25 L 58.75 220.0 L 62.5 226.25 L 63.75 227.5 " stroke="black" fill="none" stroke-width="6.0" stroke-linecap="round" stroke-linejoin="round" />
<path d="M 65.0 196.25 L 65.0 196.25 L 65.0 198.75 L 66.25 203.75 L 71.25 210.0 L 75.0 217.5 L 76.25 221.25 L 76.25 222.5 " stroke="black" fill="none" stroke-width="6.0" stroke-linecap="round" stroke-linejoin="round" />
<path d="M 83.75 195.0 L 82.5 195.0 L 82.5 195.0 L 83.75 198.75 L 86.25 203.75 L 90.0 208.75 L 92.5 215.0 L 92.5 216.25 " stroke="black" fill="none" stroke-width="6.0" stroke-linecap="round" stroke-linejoin="round" />
<path d="M 101.25 188.75 L 101.25 191.25 L 105.0 197.5 L 111.25 206.25 L 115.0 213.75 L 116.25 216.25 " stroke="black" fill="none" stroke-width="6.0" stroke-linecap="round" stroke-linejoin="round" />
<path d="M 162.5 73.75 L 162.5 73.75 L 163.75 71.25 L 166.25 70.0 L 175.0 70.0 L 187.5 75.0 L 197.5 78.75 L 201.25 81.25 L 198.75 82.5 L 196.25 83.75 " stroke="black" fill="none" stroke-width="6.0" stroke-linecap="round" stroke-linejoin="round" />
<path d="M 151.25 98.75 L 151.25 100.0 L 151.25 100.0 L 165.0 95.0 L 188.75 83.75 L 208.75 73.75 L 215.0 66.25 L 211.25 65.0 L 208.75 66.25 " stroke="black" fill="none" stroke-width="6.0" stroke-linecap="round" stroke-linejoin="round" />
<path d="M 146.25 127.5 L 146.25 127.5 L 146.25 125.0 L 146.25 123.75 L 147.5 123.75 L 148.75 123.75 L 152.5 130.0 L 156.25 138.75 L 158.75 143.75 L 160.0 146.25 L 160.0 146.25 L 157.5 143.75 L 153.75 140.0 L 152.5 136.25 L 151.25 132.5 L 152.5 128.75 L 160.0 125.0 L 171.25 121.25 L 180.0 118.75 L 182.5 120.0 L 176.25 128.75 L 167.5 137.5 L 158.75 143.75 L 156.25 146.25 L 163.75 141.25 L 177.5 128.75 L 183.75 123.75 " stroke="black" fill="none" stroke-width="6.0" stroke-linecap="round" stroke-linejoin="round" />
<path d="M 200.0 101.25 L 200.0 101.25 L 198.75 101.25 L 197.5 103.75 L 197.5 110.0 L 201.25 120.0 L 205.0 127.5 L 205.0 130.0 L 205.0 128.75 L 203.75 123.75 L 202.5 117.5 L 201.25 111.25 L 201.25 106.25 L 201.25 101.25 L 205.0 98.75 L 213.75 97.5 L 221.25 98.75 L 223.75 103.75 L 220.0 112.5 L 211.25 122.5 L 203.75 131.25 L 200.0 133.75 L 203.75 130.0 L 215.0 117.5 L 227.5 105.0 " stroke="black" fill="none" stroke-width="6.0" stroke-linecap="round" stroke-linejoin="round" />
<path d="M 160.0 151.25 L 160.0 151.25 L 160.0 152.5 L 166.25 152.5 L 182.5 151.25 L 202.5 145.0 L 211.25 138.75 L 213.75 135.0 L 208.75 133.75 L 200.0 138.75 L 196.25 141.25 " stroke="black" fill="none" stroke-width="6.0" stroke-linecap="round" stroke-linejoin="round" />
<path d="M 161.25 170.0 L 161.25 170.0 L 161.25 171.25 L 168.75 171.25 L 186.25 166.25 L 203.75 157.5 L 212.5 150.0 L 213.75 146.25 L 208.75 146.25 " stroke="black" fill="none" stroke-width="6.0" stroke-linecap="round" stroke-linejoin="round" />
<path d="M 148.75 192.5 L 147.5 195.0 L 147.5 196.25 L 158.75 195.0 L 187.5 183.75 L 215.0 170.0 L 231.25 158.75 L 233.75 153.75 L 226.25 152.5 L 215.0 152.5 " stroke="black" fill="none" stroke-width="6.0" stroke-linecap="round" stroke-linejoin="round" />
<path d="M 176.25 140.0 L 175.0 140.0 L 173.75 140.0 L 173.75 146.25 L 176.25 162.5 L 178.75 180.0 L 180.0 188.75 L 180.0 187.5 " stroke="black" fill="none" stroke-width="6.0" stroke-linecap="round" stroke-linejoin="round" />
<path d="M 195.0 141.25 L 195.0 141.25 L 196.25 142.5 L 196.25 148.75 L 196.25 162.5 L 195.0 180.0 L 192.5 187.5 " stroke="black" fill="none" stroke-width="6.0" stroke-linecap="round" stroke-linejoin="round" />
<path d="M 176.25 185.0 L 175.0 185.0 L 171.25 190.0 L 163.75 203.75 L 153.75 225.0 L 148.75 241.25 L 147.5 242.5 L 148.75 238.75 " stroke="black" fill="none" stroke-width="6.0" stroke-linecap="round" stroke-linejoin="round" />
<path d="M 177.5 193.75 L 177.5 195.0 L 177.5 203.75 L 178.75 222.5 L 181.25 247.5 L 185.0 261.25 L 191.25 261.25 L 202.5 250.0 L 213.75 232.5 L 225.0 213.75 L 233.75 200.0 L 236.25 191.25 L 231.25 191.25 L 220.0 195.0 L 207.5 201.25 L 197.5 210.0 L 191.25 216.25 L 190.0 218.75 L 192.5 218.75 L 196.25 218.75 L 200.0 218.75 L 203.75 221.25 L 207.5 223.75 L 212.5 227.5 L 218.75 230.0 L 228.75 233.75 L 245.0 236.25 L 262.5 236.25 L 267.5 236.25 " stroke="black" fill="none" stroke-width="6.0" stroke-linecap="round" stroke-linejoin="round" />
</svg>