<svg xmlns="http://www.w3.org/2000/svg" width="300" height="300" viewBox="0 0 300 300">
<path d="M 96.25 67.5 L 96.25 67.5 L 96.25 67.5 L 96.25 70.0 L 96.25 83.75 L 96.25 103.75 L 97.5 113.75 L 97.5 115.0 L 97.5 110.0 " stroke="black" fill="none" stroke-width="6.0" stroke-linecap="round" stroke-linejoin="round" />
<path d="M 91.25 82.5 L 90.0 82.5 L 88.75 82.5 L 88.75 81.25 L 96.25 78.75 L 110.0 76.25 L 126.25 72.5 L 136.25 70.0 L 136.25 71.25 L 131.25 72.5 " stroke="black" fill="none" stroke-width="6.0" stroke-linecap="round" stroke-linejoin="round" />
<path d="M 98.75 91.25 L 98.75 91.25 L 98.75 91.25 L 103.75 91.25 L 116.25 90.0 L 131.25 86.25 L 137.5 83.75 L 137.5 83.75 " stroke="black" fill="none" stroke-width="6.0" stroke-linecap="round" stroke-linejoin="round" />
<path d="M 103.75 98.75 L 102.5 100.0 L 102.5 100.0 L 105.0 100.0 L 113.75 98.75 L 126.25 95.0 L 135.0 92.5 L 135.0 92.5 " stroke="black" fill="none" stroke-width="6.0" stroke-linecap="round" stroke-linejoin="round" />
<path d="M 71.25 126.25 L 71.25 126.25 L 71.25 126.25 L 80.0 122.5 L 100.0 115.0 L 126.25 106.25 L 142.5 101.25 L 146.25 100.0 L 142.5 100.0 L 130.0 105.0 L 115.0 113.75 L 100.0 123.75 L 91.25 132.5 L 90.0 136.25 L 97.5 137.5 L 108.75 136.25 L 121.25 132.5 L 132.5 127.5 L 137.5 122.5 L 138.75 120.0 L 136.25 117.5 L 132.5 116.25 L 130.0 113.75 L 130.0 113.75 L 130.0 113.75 L 132.5 120.0 L 138.75 128.75 L 143.75 137.5 L 146.25 138.75 " stroke="black" fill="none" stroke-width="6.0" stroke-linecap="round" stroke-linejoin="round" />
<path d="M 185.0 56.25 L 183.75 58.75 L 178.75 62.5 L 170.0 72.5 L 156.25 86.25 L 150.0 95.0 L 148.75 95.0 L 153.75 90.0 " stroke="black" fill="none" stroke-width="6.0" stroke-linecap="round" stroke-linejoin="round" />
<path d="M 191.25 72.5 L 191.25 72.5 L 190.0 73.75 L 182.5 81.25 L 171.25 92.5 L 162.5 101.25 L 161.25 103.75 L 163.75 101.25 " stroke="black" fill="none" stroke-width="6.0" stroke-linecap="round" stroke-linejoin="round" />
<path d="M 200.0 81.25 L 200.0 81.25 L 200.0 83.75 L 190.0 96.25 L 175.0 112.5 L 160.0 122.5 L 157.5 122.5 " stroke="black" fill="none" stroke-width="6.0" stroke-linecap="round" stroke-linejoin="round" />
<path d="M 155.0 133.75 L 155.0 133.75 L 153.75 133.75 L 153.75 135.0 L 155.0 136.25 L 160.0 138.75 L 162.5 141.25 " stroke="black" fill="none" stroke-width="6.0" stroke-linecap="round" stroke-linejoin="round" />
<path d="M 95.0 148.75 L 95.0 148.75 L 95.0 148.75 L 95.0 148.75 L 95.0 152.5 L 95.0 161.25 L 95.0 168.75 L 95.0 172.5 L 93.75 172.5 L 93.75 167.5 L 95.0 162.5 L 98.75 160.0 L 106.25 157.5 L 123.75 153.75 L 148.75 151.25 L 176.25 147.5 L 195.0 146.25 L 200.0 146.25 L 198.75 146.25 L 192.5 147.5 L 183.75 150.0 L 176.25 151.25 " stroke="black" fill="none" stroke-width="6.0" stroke-linecap="round" stroke-linejoin="round" />
<path d="M 126.25 170.0 L 126.25 170.0 L 123.75 172.5 L 122.5 173.75 L 128.75 171.25 L 143.75 166.25 L 158.75 160.0 L 171.25 155.0 L 173.75 153.75 " stroke="black" fill="none" stroke-width="6.0" stroke-linecap="round" stroke-linejoin="round" />
<path d="M 152.5 165.0 L 151.25 167.5 L 151.25 171.25 L 151.25 177.5 L 151.25 185.0 L 150.0 191.25 " stroke="black" fill="none" stroke-width="6.0" stroke-linecap="round" stroke-linejoin="round" />
<path d="M 136.25 178.75 L 128.75 182.5 L 115.0 191.25 L 98.75 203.75 L 87.5 213.75 L 86.25 213.75 L 86.25 212.5 " stroke="black" fill="none" stroke-width="6.0" stroke-linecap="round" stroke-linejoin="round" />
<path d="M 163.75 171.25 L 166.25 170.0 L 178.75 167.5 L 195.0 163.75 L 201.25 162.5 L 201.25 162.5 L 196.25 166.25 L 181.25 175.0 L 160.0 186.25 L 131.25 202.5 L 96.25 221.25 L 75.0 235.0 L 65.0 238.75 L 63.75 237.5 " stroke="black" fill="none" stroke-width="6.0" stroke-linecap="round" stroke-linejoin="round" />
<path d="M 138.75 192.5 L 137.5 195.0 L 133.75 203.75 L 133.75 220.0 L 133.75 240.0 L 137.5 248.75 L 141.25 250.0 L 142.5 248.75 " stroke="black" fill="none" stroke-width="6.0" stroke-linecap="round" stroke-linejoin="round" />
<path d="M 136.25 200.0 L 136.25 198.75 L 136.25 198.75 L 143.75 195.0 L 158.75 191.25 L 176.25 188.75 L 187.5 193.75 L 190.0 208.75 L 185.0 226.25 L 178.75 240.0 L 176.25 245.0 L 175.0 245.0 " stroke="black" fill="none" stroke-width="6.0" stroke-linecap="round" stroke-linejoin="round" />
<path d="M 137.5 210.0 L 136.25 211.25 L 133.75 212.5 L 135.0 212.5 L 145.0 211.25 L 160.0 206.25 L 173.75 201.25 L 180.0 200.0 " stroke="black" fill="none" stroke-width="6.0" stroke-linecap="round" stroke-linejoin="round" />
<path d="M 143.75 227.5 L 142.5 228.75 L 142.5 230.0 L 151.25 227.5 L 165.0 221.25 L 180.0 215.0 L 186.25 212.5 " stroke="black" fill="none" stroke-width="6.0" stroke-linecap="round" stroke-linejoin="round" />
<path d="M 142.5 256.25 L 141.25 256.25 L 138.75 258.75 L 141.25 260.0 L 153.75 253.75 L 173.75 245.0 L 190.0 236.25 L 193.75 235.0 L 186.25 240.0 L 170.0 251.25 L 155.0 261.25 L 142.5 272.5 L 137.5 278.75 L 137.5 278.75 " stroke="black" fill="none" stroke-width="6.0" stroke-linecap="round" stroke-linejoin="round" />
<path d="M 170.0 251.25 L 170.0 251.25 L 170.0 251.25 L 175.0 253.75 L 187.5 258.75 L 202.5 266.25 L 213.75 273.75 L 216.25 280.0 L 216.25 285.0 " stroke="black" fill="none" stroke-width="6.0" stroke-linecap="round" stroke-linejoin="round" />
</svg>