<svg xmlns="http://www.w3.org/2000/svg" width="300" height="300" viewBox="0 0 300 300">
<path d="M 68.75 106.25 L 66.25 106.25 L 65.0 106.25 L 65.0 106.25 L 76.25 105.0 L 90.0 102.5 L 100.0 100.0 L 101.25 100.0 " stroke="black" fill="none" stroke-width="6.0" stroke-linecap="round" stroke-linejoin="round" />
<path d="M 72.5 141.25 L 68.75 161.25 L 67.5 191.25 L 67.5 211.25 L 70.0 221.25 L 70.0 220.0 " stroke="black" fill="none" stroke-width="6.0" stroke-linecap="round" stroke-linejoin="round" />
<path d="M 66.25 157.5 L 66.25 157.5 L 66.25 156.25 L 70.0 153.75 L 80.0 151.25 L 91.25 150.0 L 97.5 158.75 L 100.0 185.0 L 100.0 211.25 L 97.5 226.25 L 96.25 231.25 L 95.0 225.0 " stroke="black" fill="none" stroke-width="6.0" stroke-linecap="round" stroke-linejoin="round" />
<path d="M 78.75 182.5 L 75.0 182.5 L 71.25 183.75 L 71.25 183.75 L 77.5 180.0 L 90.0 172.5 L 98.75 166.25 L 100.0 163.75 " stroke="black" fill="none" stroke-width="6.0" stroke-linecap="round" stroke-linejoin="round" />
<path d="M 73.75 215.0 L 72.5 216.25 L 70.0 222.5 L 75.0 222.5 L 87.5 218.75 L 101.25 206.25 " stroke="black" fill="none" stroke-width="6.0" stroke-linecap="round" stroke-linejoin="round" />
<path d="M 142.5 73.75 L 137.5 76.25 L 137.5 76.25 L 146.25 76.25 L 162.5 72.5 L 178.75 67.5 L 187.5 65.0 L 183.75 67.5 " stroke="black" fill="none" stroke-width="6.0" stroke-linecap="round" stroke-linejoin="round" />
<path d="M 135.0 103.75 L 132.5 112.5 L 132.5 132.5 L 136.25 156.25 L 140.0 168.75 L 142.5 170.0 L 142.5 162.5 " stroke="black" fill="none" stroke-width="6.0" stroke-linecap="round" stroke-linejoin="round" />
<path d="M 138.75 123.75 L 136.25 118.75 L 136.25 115.0 L 147.5 110.0 L 166.25 106.25 L 191.25 105.0 L 207.5 108.75 L 211.25 120.0 L 207.5 135.0 L 196.25 150.0 L 180.0 157.5 L 172.5 157.5 " stroke="black" fill="none" stroke-width="6.0" stroke-linecap="round" stroke-linejoin="round" />
<path d="M 143.75 141.25 L 141.25 141.25 L 141.25 141.25 L 147.5 138.75 L 166.25 133.75 L 188.75 126.25 L 200.0 123.75 L 196.25 126.25 " stroke="black" fill="none" stroke-width="6.0" stroke-linecap="round" stroke-linejoin="round" />
<path d="M 142.5 166.25 L 140.0 168.75 L 138.75 171.25 L 147.5 167.5 L 166.25 156.25 L 188.75 142.5 L 202.5 132.5 L 200.0 131.25 " stroke="black" fill="none" stroke-width="6.0" stroke-linecap="round" stroke-linejoin="round" />
<path d="M 157.5 108.75 L 157.5 108.75 L 158.75 108.75 L 158.75 121.25 L 157.5 157.5 L 150.0 197.5 L 140.0 218.75 L 126.25 231.25 L 115.0 232.5 L 113.75 230.0 " stroke="black" fill="none" stroke-width="6.0" stroke-linecap="round" stroke-linejoin="round" />
<path d="M 163.75 155.0 L 165.0 155.0 L 168.75 161.25 L 172.5 181.25 L 180.0 208.75 L 191.25 233.75 L 203.75 245.0 L 220.0 246.25 L 241.25 246.25 L 260.0 246.25 L 267.5 243.75 L 271.25 242.5 L 270.0 238.75 L 265.0 231.25 L 257.5 220.0 L 252.5 213.75 " stroke="black" fill="none" stroke-width="6.0" stroke-linecap="round" stroke-linejoin="round" />
<path d="M 215.0 152.5 L 213.75 152.5 L 211.25 152.5 L 207.5 157.5 L 203.75 177.5 L 202.5 193.75 L 203.75 197.5 L 211.25 196.25 L 223.75 190.0 L 235.0 182.5 L 243.75 175.0 L 245.0 172.5 L 242.5 171.25 L 237.5 170.0 L 235.0 170.0 L 233.75 168.75 L 233.75 168.75 L 233.75 168.75 L 233.75 168.75 L 235.0 168.75 L 238.75 170.0 L 246.25 178.75 L 253.75 196.25 L 256.25 206.25 " stroke="black" fill="none" stroke-width="6.0" stroke-linecap="round" stroke-linejoin="round" />
</svg>