<svg xmlns="http://www.w3.org/2000/svg" width="300" height="300" viewBox="0 0 300 300">
<path d="M 95.0 90.0 L 95.0 87.5 L 95.0 85.0 L 95.0 85.0 L 93.75 88.75 L 92.5 98.75 L 91.25 106.25 L 91.25 111.25 L 96.25 111.25 L 106.25 106.25 L 117.5 101.25 L 123.75 98.75 L 123.75 100.0 L 113.75 112.5 L 100.0 131.25 L 88.75 146.25 L 78.75 156.25 L 73.75 160.0 L 72.5 160.0 L 73.75 156.25 L 76.25 151.25 L 77.5 147.5 L 77.5 145.0 L 77.5 145.0 L 77.5 148.75 L 78.75 166.25 L 81.25 187.5 L 82.5 200.0 L 83.75 202.5 L 85.0 200.0 " stroke="black" fill="none" stroke-width="6.0" stroke-linecap="round" stroke-linejoin="round" />
<path d="M 81.25 157.5 L 80.0 157.5 L 76.25 157.5 L 76.25 157.5 L 86.25 152.5 L 102.5 146.25 L 122.5 141.25 L 138.75 140.0 L 142.5 146.25 L 138.75 158.75 L 128.75 176.25 L 118.75 188.75 L 108.75 197.5 L 103.75 198.75 " stroke="black" fill="none" stroke-width="6.0" stroke-linecap="round" stroke-linejoin="round" />
<path d="M 90.0 171.25 L 87.5 171.25 L 83.75 172.5 L 82.5 173.75 L 91.25 171.25 L 105.0 165.0 L 118.75 158.75 L 126.25 152.5 L 127.5 151.25 L 121.25 150.0 L 115.0 148.75 L 108.75 147.5 L 103.75 145.0 L 101.25 145.0 L 101.25 145.0 L 101.25 152.5 L 103.75 165.0 L 103.75 180.0 L 101.25 190.0 L 96.25 196.25 L 92.5 197.5 L 92.5 197.5 L 95.0 197.5 L 102.5 193.75 L 113.75 188.75 L 126.25 181.25 L 133.75 175.0 L 133.75 173.75 L 132.5 173.75 " stroke="black" fill="none" stroke-width="6.0" stroke-linecap="round" stroke-linejoin="round" />
<path d="M 72.5 201.25 L 72.5 201.25 L 70.0 202.5 L 68.75 205.0 L 71.25 213.75 L 73.75 228.75 L 75.0 242.5 L 75.0 248.75 L 75.0 247.5 L 75.0 246.25 " stroke="black" fill="none" stroke-width="6.0" stroke-linecap="round" stroke-linejoin="round" />
<path d="M 91.25 206.25 L 91.25 206.25 L 91.25 206.25 L 93.75 211.25 L 101.25 222.5 L 105.0 235.0 L 106.25 242.5 L 105.0 242.5 " stroke="black" fill="none" stroke-width="6.0" stroke-linecap="round" stroke-linejoin="round" />
<path d="M 112.5 208.75 L 112.5 210.0 L 112.5 213.75 L 115.0 221.25 L 121.25 231.25 L 125.0 238.75 " stroke="black" fill="none" stroke-width="6.0" stroke-linecap="round" stroke-linejoin="round" />
<path d="M 131.25 205.0 L 128.75 205.0 L 127.5 205.0 L 128.75 208.75 L 137.5 215.0 L 143.75 221.25 " stroke="black" fill="none" stroke-width="6.0" stroke-linecap="round" stroke-linejoin="round" />
<path d="M 168.75 82.5 L 168.75 82.5 L 167.5 82.5 L 176.25 82.5 L 191.25 83.75 L 205.0 85.0 L 212.5 86.25 L 210.0 88.75 L 208.75 90.0 " stroke="black" fill="none" stroke-width="6.0" stroke-linecap="round" stroke-linejoin="round" />
<path d="M 158.75 107.5 L 158.75 108.75 L 155.0 112.5 L 158.75 112.5 L 173.75 107.5 L 195.0 97.5 L 215.0 86.25 L 223.75 80.0 L 221.25 81.25 L 211.25 86.25 " stroke="black" fill="none" stroke-width="6.0" stroke-linecap="round" stroke-linejoin="round" />
<path d="M 175.0 113.75 L 170.0 122.5 L 167.5 135.0 L 170.0 152.5 L 176.25 170.0 L 181.25 178.75 L 182.5 182.5 L 182.5 180.0 L 181.25 175.0 L 177.5 168.75 L 175.0 163.75 L 175.0 157.5 L 177.5 151.25 L 186.25 142.5 L 200.0 133.75 L 215.0 127.5 L 221.25 126.25 L 218.75 132.5 L 208.75 145.0 L 197.5 158.75 L 185.0 171.25 L 180.0 177.5 L 182.5 177.5 L 192.5 168.75 L 202.5 158.75 L 212.5 150.0 L 216.25 145.0 L 216.25 143.75 L 211.25 147.5 L 207.5 155.0 L 203.75 166.25 L 203.75 186.25 L 205.0 210.0 L 207.5 230.0 L 208.75 241.25 L 208.75 243.75 L 208.75 243.75 L 206.25 241.25 L 201.25 238.75 L 192.5 235.0 L 188.75 233.75 " stroke="black" fill="none" stroke-width="6.0" stroke-linecap="round" stroke-linejoin="round" />
<path d="M 158.75 197.5 L 158.75 196.25 L 158.75 196.25 L 161.25 201.25 L 170.0 215.0 L 180.0 230.0 L 182.5 238.75 L 183.75 238.75 " stroke="black" fill="none" stroke-width="6.0" stroke-linecap="round" stroke-linejoin="round" />
<path d="M 230.0 187.5 L 230.0 187.5 L 232.5 191.25 L 240.0 197.5 L 252.5 207.5 L 261.25 218.75 L 265.0 227.5 L 265.0 230.0 " stroke="black" fill="none" stroke-width="6.0" stroke-linecap="round" stroke-linejoin="round" />
</svg>