<svg xmlns="http://www.w3.org/2000/svg" width="300" height="300" viewBox="0 0 300 300">
<path d="M 68.75 120.0 L 67.5 122.5 L 66.25 123.75 L 70.0 123.75 L 83.75 123.75 L 101.25 117.5 L 120.0 108.75 L 128.75 103.75 L 128.75 102.5 " stroke="black" fill="none" stroke-width="6.0" stroke-linecap="round" stroke-linejoin="round" />
<path d="M 72.5 160.0 L 66.25 162.5 L 65.0 163.75 L 73.75 162.5 L 88.75 155.0 L 101.25 150.0 L 107.5 147.5 L 106.25 153.75 L 96.25 175.0 L 83.75 197.5 L 75.0 213.75 L 75.0 216.25 L 83.75 215.0 L 97.5 207.5 L 108.75 200.0 L 115.0 193.75 L 115.0 190.0 L 112.5 186.25 L 108.75 183.75 L 106.25 181.25 L 106.25 181.25 L 106.25 181.25 L 111.25 188.75 L 118.75 200.0 L 126.25 210.0 L 127.5 210.0 " stroke="black" fill="none" stroke-width="6.0" stroke-linecap="round" stroke-linejoin="round" />
<path d="M 152.5 80.0 L 148.75 78.75 L 146.25 78.75 L 150.0 78.75 L 163.75 78.75 L 182.5 76.25 L 198.75 72.5 L 203.75 71.25 L 198.75 73.75 " stroke="black" fill="none" stroke-width="6.0" stroke-linecap="round" stroke-linejoin="round" />
<path d="M 153.75 102.5 L 150.0 111.25 L 150.0 131.25 L 151.25 153.75 L 155.0 166.25 L 157.5 171.25 L 157.5 168.75 L 156.25 161.25 L 155.0 152.5 L 152.5 145.0 L 150.0 136.25 L 146.25 128.75 L 143.75 122.5 L 142.5 118.75 L 150.0 115.0 L 170.0 111.25 L 195.0 110.0 L 212.5 110.0 L 218.75 116.25 L 216.25 125.0 L 206.25 137.5 L 193.75 148.75 L 177.5 155.0 L 173.75 155.0 " stroke="black" fill="none" stroke-width="6.0" stroke-linecap="round" stroke-linejoin="round" />
<path d="M 152.5 146.25 L 152.5 145.0 L 151.25 145.0 L 156.25 142.5 L 172.5 138.75 L 191.25 132.5 L 202.5 130.0 L 198.75 132.5 " stroke="black" fill="none" stroke-width="6.0" stroke-linecap="round" stroke-linejoin="round" />
<path d="M 156.25 163.75 L 152.5 166.25 L 152.5 167.5 L 161.25 165.0 L 180.0 155.0 L 197.5 143.75 L 203.75 136.25 L 201.25 135.0 " stroke="black" fill="none" stroke-width="6.0" stroke-linecap="round" stroke-linejoin="round" />
<path d="M 168.75 122.5 L 168.75 121.25 L 168.75 121.25 L 167.5 135.0 L 162.5 170.0 L 155.0 206.25 L 150.0 225.0 L 143.75 233.75 L 141.25 232.5 L 142.5 218.75 L 148.75 203.75 " stroke="black" fill="none" stroke-width="6.0" stroke-linecap="round" stroke-linejoin="round" />
<path d="M 173.75 160.0 L 175.0 160.0 L 177.5 158.75 L 180.0 167.5 L 181.25 190.0 L 186.25 216.25 L 195.0 236.25 L 207.5 242.5 L 222.5 243.75 L 242.5 242.5 L 256.25 241.25 L 262.5 241.25 L 262.5 241.25 L 262.5 241.25 L 261.25 240.0 L 260.0 231.25 L 258.75 218.75 L 256.25 205.0 " stroke="black" fill="none" stroke-width="6.0" stroke-linecap="round" stroke-linejoin="round" />
<path d="M 216.25 160.0 L 215.0 160.0 L 210.0 163.75 L 206.25 175.0 L 205.0 190.0 L 206.25 197.5 L 212.5 198.75 L 221.25 196.25 L 228.75 191.25 L 235.0 186.25 L 237.5 182.5 L 238.75 180.0 L 237.5 177.5 L 236.25 176.25 L 235.0 175.0 L 233.75 175.0 L 233.75 175.0 L 233.75 175.0 L 233.75 175.0 L 233.75 175.0 L 233.75 175.0 L 233.75 175.0 L 232.5 175.0 L 232.5 175.0 L 232.5 175.0 L 232.5 175.0 L 232.5 175.0 L 235.0 180.0 L 245.0 192.5 L 247.5 197.5 " stroke="black" fill="none" stroke-width="6.0" stroke-linecap="round" stroke-linejoin="round" />
</svg>