<svg xmlns="http://www.w3.org/2000/svg" width="300" height="300" viewBox="0 0 300 300">
<path d="M 88.75 86.25 L 87.5 86.25 L 87.5 85.0 L 88.75 95.0 L 92.5 140.0 L 90.0 197.5 L 81.25 225.0 L 70.0 235.0 L 60.0 233.75 L 56.25 227.5 " stroke="black" fill="none" stroke-width="6.0" stroke-linecap="round" stroke-linejoin="round" />
<path d="M 80.0 98.75 L 80.0 98.75 L 81.25 98.75 L 93.75 93.75 L 126.25 85.0 L 162.5 77.5 L 187.5 72.5 L 198.75 70.0 L 200.0 70.0 L 198.75 72.5 L 195.0 77.5 L 192.5 86.25 L 191.25 96.25 L 191.25 116.25 L 193.75 147.5 L 200.0 182.5 L 210.0 211.25 L 222.5 233.75 L 233.75 246.25 L 242.5 248.75 L 247.5 247.5 L 251.25 243.75 L 251.25 236.25 L 248.75 225.0 L 242.5 207.5 L 240.0 201.25 " stroke="black" fill="none" stroke-width="6.0" stroke-linecap="round" stroke-linejoin="round" />
<path d="M 110.0 105.0 L 110.0 106.25 L 107.5 107.5 L 113.75 107.5 L 130.0 107.5 L 148.75 105.0 L 161.25 102.5 L 163.75 102.5 L 158.75 103.75 L 147.5 108.75 L 137.5 115.0 L 130.0 120.0 L 125.0 123.75 L 123.75 127.5 L 123.75 131.25 L 126.25 143.75 L 130.0 168.75 L 132.5 195.0 L 135.0 207.5 L 135.0 205.0 " stroke="black" fill="none" stroke-width="6.0" stroke-linecap="round" stroke-linejoin="round" />
<path d="M 125.0 130.0 L 123.75 130.0 L 122.5 130.0 L 123.75 130.0 L 136.25 128.75 L 151.25 128.75 L 165.0 131.25 L 170.0 136.25 L 162.5 142.5 L 151.25 148.75 L 140.0 150.0 L 133.75 150.0 " stroke="black" fill="none" stroke-width="6.0" stroke-linecap="round" stroke-linejoin="round" />
<path d="M 121.25 143.75 L 121.25 143.75 L 121.25 143.75 L 128.75 143.75 L 143.75 141.25 L 160.0 135.0 L 168.75 130.0 L 167.5 130.0 " stroke="black" fill="none" stroke-width="6.0" stroke-linecap="round" stroke-linejoin="round" />
<path d="M 130.0 155.0 L 128.75 156.25 L 128.75 157.5 L 133.75 157.5 L 145.0 152.5 L 157.5 145.0 L 165.0 141.25 L 165.0 141.25 " stroke="black" fill="none" stroke-width="6.0" stroke-linecap="round" stroke-linejoin="round" />
<path d="M 136.25 172.5 L 136.25 173.75 L 135.0 173.75 L 136.25 173.75 L 142.5 171.25 L 155.0 162.5 L 163.75 156.25 L 165.0 153.75 L 162.5 155.0 " stroke="black" fill="none" stroke-width="6.0" stroke-linecap="round" stroke-linejoin="round" />
<path d="M 130.0 196.25 L 127.5 198.75 L 126.25 201.25 L 131.25 201.25 L 143.75 195.0 L 158.75 186.25 L 177.5 177.5 L 190.0 172.5 L 195.0 173.75 L 195.0 182.5 L 191.25 196.25 L 185.0 208.75 L 176.25 220.0 L 165.0 227.5 L 151.25 231.25 " stroke="black" fill="none" stroke-width="6.0" stroke-linecap="round" stroke-linejoin="round" />
<path d="M 102.5 205.0 L 97.5 207.5 L 95.0 208.75 L 95.0 211.25 L 101.25 220.0 L 107.5 231.25 L 113.75 240.0 L 115.0 242.5 " stroke="black" fill="none" stroke-width="6.0" stroke-linecap="round" stroke-linejoin="round" />
<path d="M 121.25 203.75 L 121.25 205.0 L 121.25 208.75 L 123.75 213.75 L 131.25 222.5 L 140.0 230.0 L 146.25 232.5 L 147.5 230.0 L 147.5 228.75 " stroke="black" fill="none" stroke-width="6.0" stroke-linecap="round" stroke-linejoin="round" />
<path d="M 145.0 208.75 L 145.0 208.75 L 143.75 208.75 L 143.75 211.25 L 146.25 217.5 L 150.0 223.75 L 151.25 225.0 " stroke="black" fill="none" stroke-width="6.0" stroke-linecap="round" stroke-linejoin="round" />
<path d="M 170.0 196.25 L 170.0 196.25 L 170.0 197.5 L 173.75 203.75 L 187.5 216.25 L 200.0 232.5 L 202.5 240.0 " stroke="black" fill="none" stroke-width="6.0" stroke-linecap="round" stroke-linejoin="round" />
</svg>