<svg xmlns="http://www.w3.org/2000/svg" width="300" height="300" viewBox="0 0 300 300">
<path d="M 61.25 122.5 L 57.5 123.75 L 55.0 123.75 L 55.0 123.75 L 63.75 122.5 L 77.5 117.5 L 90.0 111.25 L 95.0 107.5 " stroke="black" fill="none" stroke-width="6.0" stroke-linecap="round" stroke-linejoin="round" />
<path d="M 63.75 158.75 L 58.75 162.5 L 57.5 162.5 L 63.75 161.25 L 76.25 155.0 L 87.5 148.75 L 95.0 143.75 " stroke="black" fill="none" stroke-width="6.0" stroke-linecap="round" stroke-linejoin="round" />
<path d="M 63.75 221.25 L 58.75 230.0 L 58.75 231.25 L 67.5 220.0 L 82.5 202.5 L 96.25 181.25 L 102.5 168.75 " stroke="black" fill="none" stroke-width="6.0" stroke-linecap="round" stroke-linejoin="round" />
<path d="M 110.0 138.75 L 107.5 140.0 L 107.5 140.0 L 113.75 138.75 L 128.75 131.25 L 142.5 122.5 L 148.75 116.25 L 148.75 115.0 L 142.5 118.75 L 137.5 122.5 L 132.5 126.25 L 130.0 133.75 L 128.75 145.0 L 128.75 162.5 L 126.25 178.75 L 125.0 185.0 L 123.75 185.0 L 122.5 185.0 L 122.5 183.75 L 122.5 183.75 L 122.5 183.75 L 123.75 181.25 L 131.25 175.0 L 142.5 165.0 L 153.75 152.5 " stroke="black" fill="none" stroke-width="6.0" stroke-linecap="round" stroke-linejoin="round" />
<path d="M 166.25 90.0 L 166.25 90.0 L 160.0 91.25 L 157.5 91.25 L 158.75 91.25 L 168.75 91.25 L 183.75 86.25 L 196.25 82.5 L 202.5 80.0 L 203.75 78.75 L 196.25 82.5 L 188.75 88.75 L 183.75 97.5 L 180.0 121.25 L 180.0 161.25 L 180.0 188.75 L 182.5 196.25 L 183.75 196.25 L 182.5 188.75 " stroke="black" fill="none" stroke-width="6.0" stroke-linecap="round" stroke-linejoin="round" />
<path d="M 181.25 120.0 L 181.25 118.75 L 181.25 118.75 L 190.0 112.5 L 203.75 110.0 L 218.75 108.75 L 226.25 113.75 L 226.25 122.5 L 216.25 133.75 L 205.0 141.25 L 192.5 145.0 L 180.0 147.5 L 175.0 147.5 L 176.25 146.25 L 187.5 142.5 L 201.25 136.25 L 216.25 130.0 L 227.5 127.5 L 230.0 127.5 L 223.75 135.0 L 211.25 145.0 L 198.75 155.0 L 188.75 162.5 L 185.0 165.0 L 190.0 165.0 L 201.25 158.75 L 213.75 152.5 L 222.5 148.75 L 227.5 146.25 L 223.75 151.25 L 212.5 165.0 L 200.0 181.25 L 186.25 195.0 L 180.0 200.0 L 181.25 201.25 L 195.0 197.5 L 210.0 190.0 L 228.75 182.5 L 242.5 180.0 L 246.25 186.25 L 240.0 203.75 L 226.25 227.5 L 213.75 243.75 L 202.5 253.75 L 188.75 257.5 L 175.0 257.5 " stroke="black" fill="none" stroke-width="6.0" stroke-linecap="round" stroke-linejoin="round" />
<path d="M 146.25 211.25 L 146.25 210.0 L 143.75 207.5 L 142.5 207.5 L 143.75 208.75 L 147.5 220.0 L 151.25 232.5 L 152.5 243.75 L 153.75 246.25 " stroke="black" fill="none" stroke-width="6.0" stroke-linecap="round" stroke-linejoin="round" />
<path d="M 165.0 205.0 L 165.0 205.0 L 163.75 205.0 L 166.25 208.75 L 177.5 220.0 L 188.75 233.75 L 192.5 240.0 L 192.5 240.0 " stroke="black" fill="none" stroke-width="6.0" stroke-linecap="round" stroke-linejoin="round" />
<path d="M 197.5 208.75 L 197.5 208.75 L 196.25 208.75 L 196.25 211.25 L 201.25 222.5 L 206.25 235.0 L 206.25 237.5 " stroke="black" fill="none" stroke-width="6.0" stroke-linecap="round" stroke-linejoin="round" />
<path d="M 223.75 206.25 L 223.75 206.25 L 225.0 203.75 L 228.75 203.75 L 240.0 211.25 L 253.75 230.0 L 255.0 243.75 " stroke="black" fill="none" stroke-width="6.0" stroke-linecap="round" stroke-linejoin="round" />
</svg>