<svg xmlns="http://www.w3.org/2000/svg" width="300" height="300" viewBox="0 0 300 300">
<path d="M 102.5 76.25 L 101.25 76.25 L 98.75 76.25 L 97.5 76.25 L 98.75 85.0 L 106.25 97.5 L 113.75 105.0 L 116.25 106.25 " stroke="black" fill="none" stroke-width="6.0" stroke-linecap="round" stroke-linejoin="round" />
<path d="M 103.75 77.5 L 103.75 77.5 L 103.75 76.25 L 103.75 76.25 L 116.25 73.75 L 138.75 70.0 L 162.5 67.5 L 181.25 67.5 L 188.75 71.25 L 186.25 78.75 L 176.25 85.0 L 163.75 91.25 L 150.0 95.0 L 143.75 96.25 " stroke="black" fill="none" stroke-width="6.0" stroke-linecap="round" stroke-linejoin="round" />
<path d="M 77.5 116.25 L 77.5 116.25 L 76.25 117.5 L 83.75 116.25 L 108.75 110.0 L 145.0 98.75 L 170.0 90.0 L 178.75 86.25 L 175.0 85.0 L 168.75 85.0 " stroke="black" fill="none" stroke-width="6.0" stroke-linecap="round" stroke-linejoin="round" />
<path d="M 133.75 53.75 L 132.5 57.5 L 130.0 72.5 L 125.0 101.25 L 115.0 136.25 L 101.25 157.5 L 88.75 168.75 L 76.25 173.75 L 67.5 168.75 " stroke="black" fill="none" stroke-width="6.0" stroke-linecap="round" stroke-linejoin="round" />
<path d="M 143.75 100.0 L 146.25 101.25 L 157.5 105.0 L 181.25 116.25 L 207.5 130.0 L 227.5 140.0 L 243.75 146.25 L 246.25 146.25 L 246.25 146.25 " stroke="black" fill="none" stroke-width="6.0" stroke-linecap="round" stroke-linejoin="round" />
<path d="M 113.75 131.25 L 113.75 131.25 L 111.25 132.5 L 117.5 132.5 L 135.0 130.0 L 151.25 126.25 L 160.0 121.25 L 161.25 120.0 L 153.75 122.5 L 146.25 128.75 L 138.75 137.5 L 133.75 153.75 L 132.5 178.75 L 133.75 198.75 L 137.5 203.75 L 138.75 201.25 L 137.5 196.25 L 136.25 195.0 " stroke="black" fill="none" stroke-width="6.0" stroke-linecap="round" stroke-linejoin="round" />
<path d="M 132.5 146.25 L 133.75 146.25 L 137.5 145.0 L 147.5 142.5 L 166.25 142.5 L 182.5 142.5 L 188.75 142.5 L 183.75 147.5 L 170.0 153.75 L 156.25 158.75 L 143.75 161.25 L 135.0 162.5 L 132.5 162.5 L 133.75 162.5 L 141.25 160.0 L 153.75 155.0 L 167.5 151.25 L 178.75 148.75 L 185.0 148.75 L 180.0 153.75 L 168.75 161.25 L 156.25 170.0 L 143.75 177.5 L 137.5 181.25 L 136.25 182.5 L 143.75 178.75 L 155.0 172.5 L 168.75 166.25 L 180.0 161.25 L 185.0 160.0 L 183.75 161.25 L 173.75 170.0 L 162.5 181.25 L 148.75 192.5 L 136.25 202.5 L 130.0 205.0 L 130.0 205.0 L 140.0 202.5 L 152.5 197.5 L 168.75 191.25 L 190.0 185.0 L 206.25 183.75 L 213.75 187.5 L 215.0 196.25 L 208.75 210.0 L 198.75 225.0 L 186.25 237.5 L 170.0 246.25 L 150.0 250.0 " stroke="black" fill="none" stroke-width="6.0" stroke-linecap="round" stroke-linejoin="round" />
<path d="M 90.0 211.25 L 88.75 211.25 L 86.25 212.5 L 85.0 213.75 L 88.75 221.25 L 96.25 232.5 L 105.0 241.25 L 107.5 243.75 " stroke="black" fill="none" stroke-width="6.0" stroke-linecap="round" stroke-linejoin="round" />
<path d="M 111.25 205.0 L 111.25 206.25 L 112.5 207.5 L 118.75 213.75 L 128.75 226.25 L 136.25 236.25 L 137.5 238.75 " stroke="black" fill="none" stroke-width="6.0" stroke-linecap="round" stroke-linejoin="round" />
<path d="M 142.5 211.25 L 142.5 211.25 L 142.5 211.25 L 141.25 211.25 L 145.0 215.0 L 151.25 223.75 L 157.5 231.25 L 157.5 232.5 " stroke="black" fill="none" stroke-width="6.0" stroke-linecap="round" stroke-linejoin="round" />
<path d="M 178.75 203.75 L 178.75 203.75 L 178.75 203.75 L 180.0 203.75 L 187.5 211.25 L 198.75 232.5 L 201.25 238.75 " stroke="black" fill="none" stroke-width="6.0" stroke-linecap="round" stroke-linejoin="round" />
<path d="M 170.0 90.0 L 171.25 90.0 L 171.25 88.75 L 171.25 87.5 L 172.5 87.5 L 172.5 87.5 L 172.5 87.5 L 172.5 87.5 L 172.5 87.5 L 172.5 87.5 L 172.5 87.5 L 172.5 87.5 L 172.5 87.5 L 172.5 87.5 L 173.75 86.25 L 175.0 86.25 L 178.75 86.25 L 185.0 85.0 L 192.5 83.75 L 200.0 81.25 L 206.25 78.75 L 208.75 77.5 L 210.0 76.25 L 207.5 77.5 L 206.25 77.5 " stroke="black" fill="none" stroke-width="6.0" stroke-linecap="round" stroke-linejoin="round" />
</svg>