<svg xmlns="http://www.w3.org/2000/svg" width="300" height="300" viewBox="0 0 300 300">
<path d="M 107.5 65.0 L 107.5 65.0 L 107.5 63.75 L 105.0 63.75 L 102.5 66.25 L 98.75 75.0 L 96.25 82.5 L 93.75 87.5 L 93.75 88.75 L 103.75 88.75 L 116.25 86.25 L 127.5 86.25 L 133.75 87.5 L 133.75 96.25 L 120.0 113.75 L 101.25 136.25 L 83.75 156.25 L 71.25 165.0 L 63.75 166.25 L 60.0 157.5 " stroke="black" fill="none" stroke-width="6.0" stroke-linecap="round" stroke-linejoin="round" />
<path d="M 80.0 105.0 L 80.0 105.0 L 78.75 106.25 L 86.25 110.0 L 100.0 120.0 L 110.0 125.0 " stroke="black" fill="none" stroke-width="6.0" stroke-linecap="round" stroke-linejoin="round" />
<path d="M 178.75 73.75 L 177.5 73.75 L 176.25 73.75 L 180.0 73.75 L 188.75 75.0 L 198.75 76.25 L 206.25 77.5 L 207.5 81.25 L 201.25 87.5 L 187.5 96.25 L 173.75 103.75 L 163.75 108.75 L 162.5 108.75 L 170.0 106.25 L 183.75 100.0 L 196.25 93.75 L 202.5 90.0 L 202.5 88.75 " stroke="black" fill="none" stroke-width="6.0" stroke-linecap="round" stroke-linejoin="round" />
<path d="M 158.75 81.25 L 158.75 83.75 L 158.75 92.5 L 158.75 113.75 L 161.25 133.75 L 170.0 145.0 L 185.0 147.5 L 201.25 147.5 L 216.25 147.5 L 228.75 146.25 L 233.75 145.0 L 236.25 143.75 L 236.25 143.75 L 236.25 143.75 L 236.25 143.75 L 236.25 142.5 L 236.25 141.25 L 236.25 137.5 L 236.25 130.0 L 237.5 113.75 L 237.5 82.5 " stroke="black" fill="none" stroke-width="6.0" stroke-linecap="round" stroke-linejoin="round" />
<path d="M 113.75 151.25 L 112.5 152.5 L 107.5 153.75 L 105.0 155.0 L 108.75 153.75 L 123.75 148.75 L 140.0 142.5 L 152.5 136.25 L 157.5 132.5 L 156.25 132.5 L 148.75 138.75 L 140.0 145.0 L 133.75 151.25 L 127.5 158.75 L 125.0 178.75 L 123.75 206.25 L 125.0 220.0 L 127.5 223.75 L 127.5 221.25 L 126.25 220.0 " stroke="black" fill="none" stroke-width="6.0" stroke-linecap="round" stroke-linejoin="round" />
<path d="M 127.5 171.25 L 128.75 171.25 L 136.25 170.0 L 148.75 170.0 L 162.5 170.0 L 170.0 173.75 L 171.25 181.25 L 161.25 188.75 L 152.5 192.5 L 143.75 193.75 L 142.5 193.75 " stroke="black" fill="none" stroke-width="6.0" stroke-linecap="round" stroke-linejoin="round" />
<path d="M 127.5 186.25 L 127.5 186.25 L 127.5 185.0 L 132.5 183.75 L 145.0 180.0 L 161.25 175.0 L 172.5 170.0 L 170.0 170.0 " stroke="black" fill="none" stroke-width="6.0" stroke-linecap="round" stroke-linejoin="round" />
<path d="M 133.75 195.0 L 133.75 195.0 L 132.5 195.0 L 135.0 195.0 L 143.75 191.25 L 156.25 186.25 L 165.0 181.25 L 165.0 181.25 " stroke="black" fill="none" stroke-width="6.0" stroke-linecap="round" stroke-linejoin="round" />
<path d="M 132.5 206.25 L 131.25 206.25 L 132.5 206.25 L 138.75 203.75 L 150.0 198.75 L 161.25 192.5 L 167.5 190.0 L 166.25 191.25 L 157.5 197.5 L 147.5 205.0 L 138.75 213.75 L 128.75 225.0 L 122.5 232.5 L 122.5 233.75 L 131.25 231.25 L 146.25 223.75 L 163.75 215.0 L 186.25 207.5 L 203.75 202.5 L 212.5 202.5 L 213.75 203.75 L 212.5 210.0 L 205.0 223.75 L 195.0 240.0 L 186.25 250.0 L 173.75 256.25 L 166.25 257.5 " stroke="black" fill="none" stroke-width="6.0" stroke-linecap="round" stroke-linejoin="round" />
<path d="M 95.0 238.75 L 93.75 238.75 L 91.25 238.75 L 92.5 242.5 L 97.5 252.5 L 106.25 262.5 L 110.0 267.5 " stroke="black" fill="none" stroke-width="6.0" stroke-linecap="round" stroke-linejoin="round" />
<path d="M 117.5 232.5 L 117.5 232.5 L 117.5 232.5 L 118.75 233.75 L 125.0 240.0 L 136.25 250.0 L 143.75 257.5 L 143.75 257.5 " stroke="black" fill="none" stroke-width="6.0" stroke-linecap="round" stroke-linejoin="round" />
<path d="M 150.0 228.75 L 148.75 230.0 L 147.5 232.5 L 147.5 238.75 L 152.5 247.5 L 158.75 256.25 L 162.5 261.25 " stroke="black" fill="none" stroke-width="6.0" stroke-linecap="round" stroke-linejoin="round" />
<path d="M 183.75 217.5 L 183.75 217.5 L 183.75 215.0 L 183.75 215.0 L 190.0 220.0 L 201.25 237.5 L 211.25 260.0 L 212.5 270.0 " stroke="black" fill="none" stroke-width="6.0" stroke-linecap="round" stroke-linejoin="round" />
</svg>