<svg xmlns="http://www.w3.org/2000/svg" width="300" height="300" viewBox="0 0 300 300">
<path d="M 88.75 75.0 L 87.5 76.25 L 86.25 85.0 L 86.25 100.0 L 86.25 112.5 L 86.25 115.0 L 86.25 113.75 L 91.25 108.75 L 96.25 103.75 L 107.5 97.5 L 118.75 91.25 L 127.5 87.5 L 132.5 85.0 L 127.5 86.25 " stroke="black" fill="none" stroke-width="6.0" stroke-linecap="round" stroke-linejoin="round" />
<path d="M 63.75 132.5 L 60.0 137.5 L 58.75 155.0 L 58.75 188.75 L 61.25 215.0 L 65.0 227.5 L 66.25 228.75 L 66.25 227.5 " stroke="black" fill="none" stroke-width="6.0" stroke-linecap="round" stroke-linejoin="round" />
<path d="M 60.0 150.0 L 60.0 148.75 L 62.5 143.75 L 77.5 135.0 L 101.25 122.5 L 116.25 117.5 L 132.5 123.75 L 135.0 147.5 L 136.25 181.25 L 136.25 215.0 L 138.75 243.75 L 140.0 248.75 L 141.25 250.0 L 138.75 247.5 L 132.5 238.75 L 121.25 225.0 L 113.75 217.5 " stroke="black" fill="none" stroke-width="6.0" stroke-linecap="round" stroke-linejoin="round" />
<path d="M 66.25 156.25 L 63.75 157.5 L 62.5 158.75 L 70.0 165.0 L 86.25 177.5 L 102.5 191.25 L 107.5 197.5 " stroke="black" fill="none" stroke-width="6.0" stroke-linecap="round" stroke-linejoin="round" />
<path d="M 110.0 140.0 L 106.25 145.0 L 98.75 162.5 L 91.25 190.0 L 80.0 211.25 L 65.0 225.0 L 58.75 230.0 L 58.75 230.0 L 68.75 227.5 L 83.75 222.5 L 100.0 217.5 L 111.25 213.75 L 118.75 210.0 L 117.5 208.75 " stroke="black" fill="none" stroke-width="6.0" stroke-linecap="round" stroke-linejoin="round" />
<path d="M 96.25 201.25 L 96.25 202.5 L 96.25 205.0 L 98.75 208.75 L 105.0 212.5 L 106.25 213.75 " stroke="black" fill="none" stroke-width="6.0" stroke-linecap="round" stroke-linejoin="round" />
<path d="M 55.0 167.5 L 55.0 167.5 L 53.75 167.5 L 53.75 167.5 L 58.75 172.5 L 70.0 181.25 L 77.5 186.25 " stroke="black" fill="none" stroke-width="6.0" stroke-linecap="round" stroke-linejoin="round" />
<path d="M 87.5 143.75 L 86.25 143.75 L 85.0 143.75 L 83.75 143.75 L 87.5 151.25 L 95.0 161.25 L 96.25 162.5 " stroke="black" fill="none" stroke-width="6.0" stroke-linecap="round" stroke-linejoin="round" />
<path d="M 108.75 161.25 L 108.75 163.75 L 108.75 168.75 L 115.0 176.25 L 125.0 185.0 L 126.25 186.25 " stroke="black" fill="none" stroke-width="6.0" stroke-linecap="round" stroke-linejoin="round" />
<path d="M 155.0 106.25 L 151.25 107.5 L 148.75 110.0 L 153.75 111.25 L 172.5 111.25 L 195.0 105.0 L 212.5 98.75 L 217.5 95.0 L 210.0 97.5 L 196.25 102.5 " stroke="black" fill="none" stroke-width="6.0" stroke-linecap="round" stroke-linejoin="round" />
<path d="M 158.75 121.25 L 156.25 127.5 L 153.75 143.75 L 152.5 182.5 L 152.5 218.75 L 152.5 238.75 L 153.75 245.0 L 153.75 245.0 " stroke="black" fill="none" stroke-width="6.0" stroke-linecap="round" stroke-linejoin="round" />
<path d="M 157.5 153.75 L 157.5 153.75 L 157.5 152.5 L 166.25 150.0 L 186.25 145.0 L 205.0 138.75 L 208.75 136.25 L 201.25 140.0 L 191.25 146.25 L 181.25 152.5 L 173.75 160.0 L 170.0 173.75 L 170.0 191.25 L 172.5 202.5 L 173.75 203.75 L 173.75 203.75 L 173.75 201.25 L 173.75 195.0 L 180.0 186.25 L 190.0 178.75 L 200.0 173.75 L 203.75 175.0 L 202.5 185.0 L 191.25 196.25 L 180.0 202.5 L 170.0 203.75 L 170.0 198.75 " stroke="black" fill="none" stroke-width="6.0" stroke-linecap="round" stroke-linejoin="round" />
<path d="M 197.5 101.25 L 197.5 101.25 L 197.5 101.25 L 200.0 107.5 L 211.25 148.75 L 227.5 201.25 L 241.25 226.25 L 252.5 242.5 L 258.75 248.75 L 261.25 250.0 L 262.5 248.75 L 263.75 247.5 L 265.0 242.5 L 263.75 235.0 L 260.0 223.75 L 255.0 207.5 L 248.75 183.75 L 245.0 170.0 " stroke="black" fill="none" stroke-width="6.0" stroke-linecap="round" stroke-linejoin="round" />
<path d="M 251.25 137.5 L 247.5 141.25 L 238.75 152.5 L 221.25 181.25 L 202.5 211.25 L 185.0 232.5 L 167.5 242.5 L 161.25 242.5 " stroke="black" fill="none" stroke-width="6.0" stroke-linecap="round" stroke-linejoin="round" />
<path d="M 217.5 76.25 L 218.75 75.0 L 218.75 71.25 L 223.75 70.0 L 232.5 72.5 L 243.75 88.75 L 250.0 106.25 " stroke="black" fill="none" stroke-width="6.0" stroke-linecap="round" stroke-linejoin="round" />
</svg>