<svg xmlns="http://www.w3.org/2000/svg" width="300" height="300" viewBox="0 0 300 300">
<path d="M 137.5 65.0 L 136.25 65.0 L 132.5 63.75 L 133.75 62.5 L 141.25 62.5 L 150.0 62.5 L 156.25 63.75 L 161.25 63.75 L 161.25 63.75 " stroke="black" fill="none" stroke-width="6.0" stroke-linecap="round" stroke-linejoin="round" />
<path d="M 115.0 93.75 L 115.0 93.75 L 113.75 93.75 L 113.75 95.0 L 118.75 95.0 L 132.5 92.5 L 147.5 86.25 L 158.75 80.0 L 165.0 76.25 L 162.5 75.0 L 156.25 77.5 " stroke="black" fill="none" stroke-width="6.0" stroke-linecap="round" stroke-linejoin="round" />
<path d="M 122.5 107.5 L 122.5 107.5 L 122.5 107.5 L 125.0 107.5 L 136.25 103.75 L 147.5 97.5 L 155.0 93.75 L 156.25 92.5 L 152.5 93.75 " stroke="black" fill="none" stroke-width="6.0" stroke-linecap="round" stroke-linejoin="round" />
<path d="M 122.5 130.0 L 122.5 130.0 L 122.5 130.0 L 125.0 130.0 L 136.25 123.75 L 147.5 115.0 L 155.0 110.0 L 155.0 110.0 " stroke="black" fill="none" stroke-width="6.0" stroke-linecap="round" stroke-linejoin="round" />
<path d="M 130.0 132.5 L 130.0 132.5 L 128.75 136.25 L 130.0 143.75 L 135.0 151.25 L 140.0 157.5 L 141.25 158.75 L 142.5 158.75 L 140.0 156.25 L 136.25 153.75 L 132.5 151.25 L 130.0 148.75 L 128.75 148.75 L 128.75 147.5 L 133.75 143.75 L 145.0 137.5 L 156.25 131.25 L 165.0 127.5 L 166.25 127.5 L 161.25 135.0 L 153.75 143.75 L 147.5 151.25 L 145.0 155.0 L 146.25 155.0 L 155.0 150.0 L 165.0 142.5 L 173.75 135.0 " stroke="black" fill="none" stroke-width="6.0" stroke-linecap="round" stroke-linejoin="round" />
<path d="M 191.25 81.25 L 191.25 81.25 L 191.25 78.75 L 190.0 77.5 L 190.0 81.25 L 188.75 91.25 L 187.5 100.0 L 186.25 103.75 L 187.5 105.0 L 192.5 103.75 L 198.75 97.5 L 203.75 91.25 L 206.25 87.5 L 207.5 87.5 L 205.0 93.75 L 198.75 106.25 L 192.5 121.25 L 190.0 130.0 L 191.25 131.25 L 198.75 126.25 L 208.75 117.5 L 217.5 111.25 L 222.5 107.5 L 223.75 108.75 L 216.25 120.0 L 207.5 135.0 L 196.25 147.5 L 187.5 156.25 L 185.0 157.5 " stroke="black" fill="none" stroke-width="6.0" stroke-linecap="round" stroke-linejoin="round" />
<path d="M 171.25 146.25 L 171.25 146.25 L 170.0 145.0 L 168.75 143.75 L 170.0 143.75 L 175.0 150.0 L 181.25 157.5 L 185.0 166.25 L 186.25 172.5 L 187.5 172.5 L 187.5 167.5 L 187.5 158.75 L 187.5 151.25 L 188.75 145.0 L 188.75 141.25 L 188.75 140.0 L 188.75 140.0 L 191.25 142.5 L 195.0 147.5 L 197.5 153.75 L 198.75 157.5 L 198.75 160.0 " stroke="black" fill="none" stroke-width="6.0" stroke-linecap="round" stroke-linejoin="round" />
<path d="M 205.0 141.25 L 205.0 141.25 L 205.0 140.0 L 206.25 138.75 L 211.25 140.0 L 221.25 145.0 L 230.0 152.5 " stroke="black" fill="none" stroke-width="6.0" stroke-linecap="round" stroke-linejoin="round" />
<path d="M 88.75 85.0 L 87.5 85.0 L 86.25 85.0 L 85.0 87.5 L 83.75 96.25 L 81.25 107.5 L 80.0 112.5 L 81.25 113.75 L 87.5 110.0 L 93.75 102.5 L 98.75 97.5 L 102.5 93.75 L 102.5 93.75 L 97.5 102.5 L 91.25 115.0 L 85.0 127.5 L 82.5 135.0 L 82.5 136.25 L 90.0 133.75 L 100.0 126.25 L 108.75 120.0 L 112.5 117.5 L 112.5 121.25 L 105.0 132.5 L 97.5 141.25 " stroke="black" fill="none" stroke-width="6.0" stroke-linecap="round" stroke-linejoin="round" />
<path d="M 61.25 146.25 L 61.25 146.25 L 57.5 146.25 L 57.5 146.25 L 60.0 150.0 L 67.5 156.25 L 73.75 162.5 L 77.5 166.25 L 78.75 166.25 " stroke="black" fill="none" stroke-width="6.0" stroke-linecap="round" stroke-linejoin="round" />
<path d="M 87.5 142.5 L 87.5 142.5 L 86.25 142.5 L 86.25 142.5 L 87.5 146.25 L 91.25 151.25 L 93.75 156.25 L 93.75 157.5 " stroke="black" fill="none" stroke-width="6.0" stroke-linecap="round" stroke-linejoin="round" />
<path d="M 102.5 143.75 L 102.5 143.75 L 102.5 143.75 L 102.5 143.75 L 106.25 146.25 L 111.25 153.75 L 112.5 155.0 " stroke="black" fill="none" stroke-width="6.0" stroke-linecap="round" stroke-linejoin="round" />
<path d="M 120.0 178.75 L 118.75 178.75 L 117.5 178.75 L 120.0 178.75 L 135.0 177.5 L 152.5 171.25 L 165.0 165.0 L 170.0 162.5 L 168.75 161.25 L 161.25 162.5 L 155.0 165.0 L 148.75 168.75 L 142.5 172.5 L 137.5 177.5 L 132.5 183.75 L 130.0 191.25 L 128.75 202.5 L 128.75 216.25 L 131.25 226.25 L 133.75 230.0 L 135.0 227.5 L 135.0 226.25 " stroke="black" fill="none" stroke-width="6.0" stroke-linecap="round" stroke-linejoin="round" />
<path d="M 133.75 197.5 L 133.75 196.25 L 136.25 193.75 L 147.5 190.0 L 163.75 185.0 L 176.25 183.75 L 178.75 183.75 L 172.5 187.5 L 163.75 192.5 L 153.75 198.75 L 143.75 203.75 L 137.5 207.5 L 135.0 208.75 L 138.75 208.75 L 147.5 206.25 L 158.75 201.25 L 172.5 195.0 L 182.5 191.25 L 186.25 190.0 L 181.25 193.75 L 168.75 202.5 L 156.25 211.25 L 143.75 221.25 L 136.25 227.5 L 135.0 230.0 L 138.75 230.0 L 148.75 223.75 L 163.75 216.25 L 183.75 208.75 L 201.25 205.0 L 210.0 206.25 L 210.0 218.75 L 201.25 236.25 L 188.75 251.25 L 172.5 261.25 L 156.25 265.0 L 147.5 265.0 " stroke="black" fill="none" stroke-width="6.0" stroke-linecap="round" stroke-linejoin="round" />
<path d="M 91.25 235.0 L 91.25 235.0 L 91.25 235.0 L 91.25 235.0 L 96.25 238.75 L 102.5 248.75 L 106.25 258.75 L 107.5 263.75 L 107.5 263.75 " stroke="black" fill="none" stroke-width="6.0" stroke-linecap="round" stroke-linejoin="round" />
<path d="M 125.0 240.0 L 125.0 240.0 L 125.0 240.0 L 130.0 241.25 L 137.5 246.25 L 145.0 252.5 L 147.5 257.5 L 147.5 257.5 " stroke="black" fill="none" stroke-width="6.0" stroke-linecap="round" stroke-linejoin="round" />
<path d="M 151.25 240.0 L 151.25 240.0 L 151.25 240.0 L 152.5 240.0 L 153.75 242.5 L 158.75 247.5 L 163.75 255.0 L 166.25 257.5 " stroke="black" fill="none" stroke-width="6.0" stroke-linecap="round" stroke-linejoin="round" />
<path d="M 190.0 227.5 L 190.0 227.5 L 190.0 227.5 L 190.0 230.0 L 197.5 240.0 L 205.0 253.75 L 207.5 262.5 " stroke="black" fill="none" stroke-width="6.0" stroke-linecap="round" stroke-linejoin="round" />
</svg>