<svg xmlns="http://www.w3.org/2000/svg" width="300" height="300" viewBox="0 0 300 300">
<path d="M 86.25 86.25 L 83.75 86.25 L 82.5 86.25 L 85.0 86.25 L 93.75 82.5 L 107.5 77.5 L 117.5 72.5 L 118.75 71.25 " stroke="black" fill="none" stroke-width="6.0" stroke-linecap="round" stroke-linejoin="round" />
<path d="M 81.25 100.0 L 80.0 103.75 L 81.25 113.75 L 87.5 128.75 L 93.75 140.0 L 97.5 143.75 L 97.5 143.75 L 95.0 141.25 L 91.25 135.0 L 87.5 130.0 L 85.0 125.0 L 81.25 121.25 L 80.0 117.5 L 82.5 115.0 L 92.5 111.25 L 108.75 106.25 L 128.75 101.25 L 140.0 100.0 L 141.25 101.25 L 133.75 108.75 L 122.5 118.75 L 111.25 125.0 L 110.0 126.25 " stroke="black" fill="none" stroke-width="6.0" stroke-linecap="round" stroke-linejoin="round" />
<path d="M 110.0 105.0 L 110.0 105.0 L 108.75 105.0 L 106.25 116.25 L 106.25 137.5 L 106.25 150.0 L 106.25 150.0 " stroke="black" fill="none" stroke-width="6.0" stroke-linecap="round" stroke-linejoin="round" />
<path d="M 158.75 67.5 L 158.75 67.5 L 161.25 68.75 L 171.25 70.0 L 186.25 70.0 L 197.5 67.5 L 201.25 66.25 L 196.25 67.5 L 185.0 75.0 L 172.5 86.25 L 163.75 101.25 L 163.75 116.25 L 170.0 128.75 L 178.75 133.75 L 182.5 135.0 L 183.75 135.0 L 183.75 133.75 L 180.0 132.5 L 173.75 128.75 L 167.5 122.5 L 161.25 117.5 L 156.25 112.5 L 152.5 110.0 L 153.75 107.5 L 163.75 103.75 L 180.0 97.5 L 196.25 92.5 L 208.75 90.0 L 212.5 90.0 L 210.0 96.25 L 201.25 106.25 L 192.5 113.75 L 182.5 117.5 " stroke="black" fill="none" stroke-width="6.0" stroke-linecap="round" stroke-linejoin="round" />
<path d="M 185.0 96.25 L 185.0 96.25 L 185.0 96.25 L 183.75 97.5 L 182.5 110.0 L 180.0 127.5 " stroke="black" fill="none" stroke-width="6.0" stroke-linecap="round" stroke-linejoin="round" />
<path d="M 135.0 141.25 L 133.75 141.25 L 131.25 141.25 L 131.25 141.25 L 137.5 142.5 L 146.25 142.5 L 152.5 143.75 L 152.5 143.75 " stroke="black" fill="none" stroke-width="6.0" stroke-linecap="round" stroke-linejoin="round" />
<path d="M 77.5 176.25 L 76.25 176.25 L 77.5 176.25 L 92.5 172.5 L 130.0 158.75 L 171.25 145.0 L 200.0 136.25 L 208.75 130.0 L 208.75 128.75 L 203.75 130.0 " stroke="black" fill="none" stroke-width="6.0" stroke-linecap="round" stroke-linejoin="round" />
<path d="M 106.25 178.75 L 102.5 186.25 L 97.5 211.25 L 93.75 240.0 L 90.0 262.5 L 88.75 271.25 L 87.5 276.25 L 87.5 276.25 L 88.75 267.5 L 90.0 256.25 L 92.5 246.25 " stroke="black" fill="none" stroke-width="6.0" stroke-linecap="round" stroke-linejoin="round" />
<path d="M 108.75 196.25 L 110.0 195.0 L 113.75 191.25 L 127.5 183.75 L 152.5 173.75 L 180.0 165.0 L 202.5 158.75 L 210.0 158.75 L 210.0 162.5 L 201.25 173.75 L 187.5 186.25 L 172.5 195.0 L 163.75 198.75 " stroke="black" fill="none" stroke-width="6.0" stroke-linecap="round" stroke-linejoin="round" />
<path d="M 143.75 167.5 L 142.5 167.5 L 142.5 166.25 L 141.25 172.5 L 141.25 187.5 L 141.25 203.75 L 141.25 208.75 L 145.0 205.0 L 150.0 192.5 L 156.25 177.5 L 163.75 162.5 L 168.75 153.75 L 168.75 157.5 L 163.75 173.75 L 156.25 192.5 L 150.0 206.25 L 147.5 212.5 L 148.75 211.25 L 157.5 201.25 L 171.25 190.0 L 182.5 181.25 L 187.5 176.25 L 185.0 177.5 " stroke="black" fill="none" stroke-width="6.0" stroke-linecap="round" stroke-linejoin="round" />
<path d="M 133.75 242.5 L 132.5 243.75 L 133.75 243.75 L 143.75 233.75 L 158.75 218.75 L 171.25 206.25 L 170.0 202.5 L 161.25 202.5 " stroke="black" fill="none" stroke-width="6.0" stroke-linecap="round" stroke-linejoin="round" />
<path d="M 127.5 216.25 L 126.25 217.5 L 125.0 227.5 L 127.5 245.0 L 133.75 257.5 L 143.75 262.5 L 155.0 258.75 L 168.75 247.5 L 181.25 233.75 L 190.0 222.5 L 192.5 216.25 L 191.25 213.75 L 190.0 213.75 " stroke="black" fill="none" stroke-width="6.0" stroke-linecap="round" stroke-linejoin="round" />
<path d="M 185.0 227.5 L 188.75 226.25 L 193.75 221.25 L 202.5 212.5 L 211.25 202.5 L 217.5 197.5 L 217.5 195.0 L 215.0 195.0 " stroke="black" fill="none" stroke-width="6.0" stroke-linecap="round" stroke-linejoin="round" />
<path d="M 178.75 200.0 L 178.75 202.5 L 178.75 207.5 L 178.75 221.25 L 182.5 245.0 L 190.0 262.5 L 198.75 273.75 L 205.0 278.75 L 210.0 281.25 L 216.25 283.75 L 221.25 285.0 L 222.5 285.0 L 222.5 285.0 L 222.5 285.0 L 222.5 283.75 L 222.5 280.0 L 226.25 272.5 L 233.75 257.5 L 248.75 225.0 L 266.25 182.5 L 268.75 160.0 " stroke="black" fill="none" stroke-width="6.0" stroke-linecap="round" stroke-linejoin="round" />
</svg>