<svg xmlns="http://www.w3.org/2000/svg" width="300" height="300" viewBox="0 0 300 300">
<path d="M 91.25 97.5 L 88.75 98.75 L 87.5 98.75 L 101.25 92.5 L 133.75 80.0 L 168.75 67.5 L 186.25 58.75 L 190.0 56.25 L 181.25 57.5 L 163.75 61.25 L 147.5 65.0 L 133.75 66.25 L 117.5 68.75 L 108.75 72.5 L 107.5 77.5 L 112.5 87.5 L 118.75 105.0 L 123.75 115.0 L 127.5 112.5 " stroke="black" fill="none" stroke-width="6.0" stroke-linecap="round" stroke-linejoin="round" />
<path d="M 162.5 53.75 L 166.25 52.5 L 168.75 56.25 L 167.5 75.0 L 157.5 97.5 L 147.5 111.25 L 136.25 115.0 L 131.25 115.0 L 131.25 115.0 L 140.0 112.5 L 155.0 106.25 L 171.25 100.0 L 185.0 95.0 L 185.0 93.75 " stroke="black" fill="none" stroke-width="6.0" stroke-linecap="round" stroke-linejoin="round" />
<path d="M 42.5 176.25 L 41.25 177.5 L 40.0 178.75 L 48.75 178.75 L 78.75 166.25 L 128.75 143.75 L 172.5 120.0 L 197.5 106.25 L 201.25 102.5 L 193.75 103.75 L 176.25 110.0 L 155.0 118.75 L 147.5 125.0 " stroke="black" fill="none" stroke-width="6.0" stroke-linecap="round" stroke-linejoin="round" />
<path d="M 121.25 160.0 L 117.5 173.75 L 118.75 195.0 L 125.0 211.25 L 131.25 220.0 L 135.0 223.75 L 135.0 223.75 L 133.75 218.75 L 131.25 211.25 L 126.25 201.25 L 123.75 191.25 L 122.5 181.25 L 121.25 172.5 L 122.5 168.75 L 132.5 163.75 L 150.0 157.5 L 173.75 152.5 L 193.75 153.75 L 200.0 162.5 L 195.0 178.75 L 181.25 196.25 L 165.0 208.75 L 148.75 213.75 L 146.25 213.75 " stroke="black" fill="none" stroke-width="6.0" stroke-linecap="round" stroke-linejoin="round" />
<path d="M 125.0 203.75 L 122.5 203.75 L 120.0 203.75 L 123.75 202.5 L 140.0 196.25 L 161.25 186.25 L 180.0 175.0 L 186.25 167.5 L 178.75 166.25 L 167.5 167.5 L 158.75 167.5 L 153.75 162.5 L 153.75 158.75 L 155.0 157.5 L 157.5 167.5 L 157.5 188.75 L 153.75 210.0 L 145.0 226.25 L 136.25 233.75 L 133.75 233.75 L 135.0 231.25 L 145.0 222.5 L 158.75 211.25 L 175.0 202.5 L 191.25 195.0 L 200.0 191.25 L 200.0 191.25 L 195.0 193.75 L 186.25 197.5 L 177.5 202.5 L 168.75 208.75 L 161.25 222.5 L 152.5 241.25 L 142.5 261.25 L 130.0 277.5 L 120.0 286.25 L 117.5 285.0 " stroke="black" fill="none" stroke-width="6.0" stroke-linecap="round" stroke-linejoin="round" />
<path d="M 172.5 226.25 L 173.75 226.25 L 173.75 226.25 L 181.25 228.75 L 197.5 238.75 L 218.75 256.25 L 236.25 268.75 L 247.5 277.5 L 250.0 281.25 L 251.25 285.0 L 248.75 286.25 " stroke="black" fill="none" stroke-width="6.0" stroke-linecap="round" stroke-linejoin="round" />
</svg>