<svg xmlns="http://www.w3.org/2000/svg" width="300" height="300" viewBox="0 0 300 300">
<path d="M 97.5 75.0 L 97.5 73.75 L 97.5 73.75 L 93.75 85.0 L 82.5 106.25 L 73.75 122.5 L 71.25 122.5 " stroke="black" fill="none" stroke-width="6.0" stroke-linecap="round" stroke-linejoin="round" />
<path d="M 96.25 86.25 L 96.25 86.25 L 96.25 91.25 L 98.75 105.0 L 100.0 125.0 L 101.25 137.5 L 103.75 141.25 L 103.75 140.0 " stroke="black" fill="none" stroke-width="6.0" stroke-linecap="round" stroke-linejoin="round" />
<path d="M 123.75 103.75 L 122.5 105.0 L 121.25 107.5 L 126.25 107.5 L 143.75 101.25 L 166.25 88.75 L 185.0 75.0 L 192.5 67.5 L 186.25 66.25 " stroke="black" fill="none" stroke-width="6.0" stroke-linecap="round" stroke-linejoin="round" />
<path d="M 156.25 77.5 L 156.25 77.5 L 156.25 81.25 L 165.0 95.0 L 182.5 125.0 L 200.0 148.75 L 212.5 157.5 L 222.5 162.5 L 227.5 163.75 L 227.5 162.5 L 227.5 157.5 L 223.75 148.75 L 217.5 136.25 L 207.5 120.0 L 200.0 110.0 " stroke="black" fill="none" stroke-width="6.0" stroke-linecap="round" stroke-linejoin="round" />
<path d="M 183.75 52.5 L 185.0 52.5 L 185.0 52.5 L 186.25 52.5 L 188.75 56.25 L 193.75 67.5 " stroke="black" fill="none" stroke-width="6.0" stroke-linecap="round" stroke-linejoin="round" />
<path d="M 97.5 160.0 L 97.5 160.0 L 93.75 160.0 L 92.5 160.0 L 92.5 162.5 L 100.0 173.75 L 112.5 187.5 L 121.25 196.25 L 128.75 200.0 L 127.5 198.75 L 123.75 193.75 " stroke="black" fill="none" stroke-width="6.0" stroke-linecap="round" stroke-linejoin="round" />
<path d="M 108.75 172.5 L 106.25 170.0 L 102.5 166.25 L 105.0 163.75 L 118.75 158.75 L 140.0 153.75 L 162.5 150.0 L 181.25 148.75 L 186.25 151.25 L 181.25 158.75 L 168.75 171.25 L 152.5 183.75 L 138.75 193.75 L 123.75 201.25 L 116.25 202.5 L 118.75 201.25 L 132.5 195.0 L 148.75 183.75 L 163.75 171.25 L 175.0 158.75 L 178.75 153.75 L 170.0 153.75 L 161.25 153.75 L 160.0 155.0 " stroke="black" fill="none" stroke-width="6.0" stroke-linecap="round" stroke-linejoin="round" />
<path d="M 152.5 152.5 L 152.5 153.75 L 152.5 156.25 L 152.5 172.5 L 152.5 200.0 L 151.25 218.75 L 148.75 227.5 L 145.0 226.25 " stroke="black" fill="none" stroke-width="6.0" stroke-linecap="round" stroke-linejoin="round" />
<path d="M 121.25 161.25 L 120.0 158.75 L 118.75 157.5 L 121.25 171.25 L 125.0 190.0 L 128.75 206.25 L 128.75 211.25 " stroke="black" fill="none" stroke-width="6.0" stroke-linecap="round" stroke-linejoin="round" />
<path d="M 155.0 157.5 L 153.75 158.75 L 151.25 167.5 L 146.25 187.5 L 137.5 207.5 L 131.25 220.0 L 127.5 223.75 L 128.75 222.5 L 138.75 217.5 L 153.75 208.75 L 168.75 200.0 L 182.5 193.75 L 187.5 192.5 L 182.5 198.75 L 168.75 212.5 L 155.0 228.75 L 142.5 242.5 L 137.5 247.5 L 141.25 245.0 L 152.5 236.25 L 165.0 226.25 L 175.0 217.5 L 178.75 213.75 L 170.0 217.5 " stroke="black" fill="none" stroke-width="6.0" stroke-linecap="round" stroke-linejoin="round" />
<path d="M 90.0 241.25 L 88.75 241.25 L 88.75 241.25 L 95.0 248.75 L 106.25 262.5 L 117.5 275.0 L 123.75 282.5 L 122.5 285.0 " stroke="black" fill="none" stroke-width="6.0" stroke-linecap="round" stroke-linejoin="round" />
<path d="M 132.5 242.5 L 132.5 242.5 L 132.5 242.5 L 136.25 248.75 L 142.5 260.0 L 151.25 270.0 L 158.75 273.75 L 160.0 271.25 L 161.25 267.5 " stroke="black" fill="none" stroke-width="6.0" stroke-linecap="round" stroke-linejoin="round" />
<path d="M 177.5 248.75 L 177.5 248.75 L 180.0 247.5 L 181.25 246.25 L 185.0 251.25 L 188.75 257.5 L 192.5 263.75 L 193.75 267.5 " stroke="black" fill="none" stroke-width="6.0" stroke-linecap="round" stroke-linejoin="round" />
<path d="M 223.75 237.5 L 223.75 237.5 L 223.75 237.5 L 230.0 240.0 L 243.75 250.0 L 256.25 265.0 L 258.75 280.0 L 258.75 285.0 " stroke="black" fill="none" stroke-width="6.0" stroke-linecap="round" stroke-linejoin="round" />
</svg>