<svg xmlns="http://www.w3.org/2000/svg" width="300" height="300" viewBox="0 0 300 300">
<path d="M 100.0 75.0 L 97.5 75.0 L 95.0 75.0 L 101.25 76.25 L 116.25 77.5 L 132.5 77.5 L 143.75 75.0 L 146.25 75.0 L 141.25 77.5 " stroke="black" fill="none" stroke-width="6.0" stroke-linecap="round" stroke-linejoin="round" />
<path d="M 86.25 116.25 L 85.0 116.25 L 85.0 118.75 L 87.5 118.75 L 103.75 110.0 L 127.5 96.25 L 146.25 83.75 L 150.0 80.0 L 143.75 78.75 " stroke="black" fill="none" stroke-width="6.0" stroke-linecap="round" stroke-linejoin="round" />
<path d="M 120.0 85.0 L 118.75 87.5 L 117.5 95.0 L 117.5 117.5 L 117.5 147.5 L 117.5 161.25 L 113.75 162.5 L 108.75 155.0 " stroke="black" fill="none" stroke-width="6.0" stroke-linecap="round" stroke-linejoin="round" />
<path d="M 106.25 117.5 L 100.0 126.25 L 91.25 142.5 L 82.5 157.5 L 77.5 168.75 L 77.5 167.5 L 81.25 158.75 " stroke="black" fill="none" stroke-width="6.0" stroke-linecap="round" stroke-linejoin="round" />
<path d="M 105.0 120.0 L 106.25 120.0 L 108.75 120.0 L 121.25 128.75 L 141.25 140.0 L 156.25 145.0 L 157.5 145.0 " stroke="black" fill="none" stroke-width="6.0" stroke-linecap="round" stroke-linejoin="round" />
<path d="M 176.25 66.25 L 176.25 66.25 L 173.75 65.0 L 171.25 67.5 L 168.75 80.0 L 168.75 93.75 L 171.25 100.0 L 181.25 100.0 L 196.25 93.75 L 210.0 85.0 L 220.0 81.25 L 223.75 81.25 L 220.0 91.25 L 210.0 108.75 L 201.25 126.25 L 196.25 137.5 L 196.25 137.5 L 196.25 130.0 " stroke="black" fill="none" stroke-width="6.0" stroke-linecap="round" stroke-linejoin="round" />
<path d="M 192.5 98.75 L 191.25 98.75 L 186.25 98.75 L 182.5 101.25 L 176.25 118.75 L 167.5 142.5 L 163.75 147.5 " stroke="black" fill="none" stroke-width="6.0" stroke-linecap="round" stroke-linejoin="round" />
<path d="M 156.25 151.25 L 153.75 153.75 L 143.75 166.25 L 127.5 192.5 L 101.25 221.25 L 80.0 247.5 L 60.0 257.5 L 51.25 253.75 L 50.0 237.5 L 53.75 226.25 " stroke="black" fill="none" stroke-width="6.0" stroke-linecap="round" stroke-linejoin="round" />
<path d="M 137.5 155.0 L 141.25 155.0 L 160.0 157.5 L 192.5 170.0 L 215.0 185.0 L 232.5 196.25 L 243.75 203.75 L 247.5 210.0 L 242.5 211.25 L 238.75 211.25 " stroke="black" fill="none" stroke-width="6.0" stroke-linecap="round" stroke-linejoin="round" />
<path d="M 156.25 193.75 L 156.25 193.75 L 156.25 193.75 L 156.25 201.25 L 158.75 235.0 L 161.25 263.75 L 162.5 276.25 L 160.0 278.75 L 156.25 277.5 " stroke="black" fill="none" stroke-width="6.0" stroke-linecap="round" stroke-linejoin="round" />
<path d="M 118.75 225.0 L 117.5 225.0 L 115.0 223.75 L 116.25 222.5 L 122.5 225.0 L 128.75 233.75 L 128.75 245.0 L 128.75 255.0 L 128.75 258.75 L 138.75 255.0 L 161.25 238.75 L 187.5 217.5 L 200.0 208.75 L 201.25 210.0 L 198.75 221.25 L 200.0 232.5 L 208.75 240.0 L 226.25 240.0 L 238.75 240.0 L 240.0 245.0 L 227.5 261.25 L 215.0 278.75 L 212.5 282.5 " stroke="black" fill="none" stroke-width="6.0" stroke-linecap="round" stroke-linejoin="round" />
</svg>