<svg xmlns="http://www.w3.org/2000/svg" width="300" height="300" viewBox="0 0 300 300">
<path d="M 70.0 102.5 L 68.75 102.5 L 66.25 102.5 L 66.25 105.0 L 70.0 120.0 L 77.5 142.5 L 83.75 155.0 L 85.0 157.5 L 85.0 156.25 " stroke="black" fill="none" stroke-width="6.0" stroke-linecap="round" stroke-linejoin="round" />
<path d="M 72.5 121.25 L 71.25 118.75 L 70.0 113.75 L 78.75 107.5 L 95.0 101.25 L 117.5 98.75 L 140.0 97.5 L 148.75 100.0 L 147.5 107.5 L 135.0 122.5 L 120.0 135.0 L 105.0 146.25 L 91.25 153.75 L 83.75 157.5 L 83.75 158.75 L 92.5 155.0 L 106.25 147.5 L 123.75 136.25 L 138.75 125.0 L 143.75 116.25 " stroke="black" fill="none" stroke-width="6.0" stroke-linecap="round" stroke-linejoin="round" />
<path d="M 113.75 107.5 L 112.5 107.5 L 110.0 110.0 L 110.0 120.0 L 111.25 147.5 L 113.75 178.75 L 115.0 195.0 L 112.5 197.5 L 107.5 195.0 L 103.75 191.25 " stroke="black" fill="none" stroke-width="6.0" stroke-linecap="round" stroke-linejoin="round" />
<path d="M 96.25 113.75 L 96.25 112.5 L 96.25 111.25 L 96.25 120.0 L 96.25 135.0 L 97.5 148.75 L 97.5 155.0 L 97.5 153.75 L 101.25 145.0 L 106.25 132.5 L 113.75 118.75 L 121.25 108.75 L 123.75 111.25 L 120.0 126.25 L 111.25 146.25 L 102.5 163.75 L 96.25 177.5 L 93.75 180.0 L 97.5 176.25 L 108.75 167.5 L 122.5 158.75 L 136.25 151.25 L 145.0 148.75 L 145.0 150.0 L 136.25 161.25 L 122.5 177.5 L 107.5 193.75 L 96.25 205.0 L 93.75 208.75 L 101.25 206.25 L 115.0 201.25 L 130.0 192.5 L 141.25 185.0 L 143.75 180.0 L 143.75 178.75 " stroke="black" fill="none" stroke-width="6.0" stroke-linecap="round" stroke-linejoin="round" />
<path d="M 66.25 206.25 L 66.25 207.5 L 65.0 211.25 L 67.5 216.25 L 76.25 228.75 L 86.25 241.25 L 91.25 248.75 L 91.25 251.25 L 90.0 251.25 " stroke="black" fill="none" stroke-width="6.0" stroke-linecap="round" stroke-linejoin="round" />
<path d="M 101.25 208.75 L 101.25 208.75 L 100.0 212.5 L 102.5 218.75 L 107.5 226.25 L 112.5 232.5 L 115.0 235.0 L 115.0 235.0 " stroke="black" fill="none" stroke-width="6.0" stroke-linecap="round" stroke-linejoin="round" />
<path d="M 123.75 210.0 L 123.75 210.0 L 125.0 208.75 L 126.25 208.75 L 127.5 213.75 L 130.0 221.25 L 131.25 227.5 " stroke="black" fill="none" stroke-width="6.0" stroke-linecap="round" stroke-linejoin="round" />
<path d="M 142.5 212.5 L 141.25 213.75 L 138.75 217.5 L 138.75 222.5 L 138.75 225.0 " stroke="black" fill="none" stroke-width="6.0" stroke-linecap="round" stroke-linejoin="round" />
<path d="M 181.25 106.25 L 180.0 106.25 L 178.75 107.5 L 177.5 115.0 L 178.75 132.5 L 182.5 145.0 L 188.75 148.75 L 198.75 146.25 L 212.5 135.0 L 223.75 123.75 L 233.75 112.5 L 237.5 103.75 L 237.5 101.25 L 235.0 100.0 L 232.5 100.0 L 231.25 100.0 L 231.25 100.0 L 231.25 100.0 L 231.25 100.0 L 231.25 100.0 L 231.25 100.0 L 231.25 103.75 L 235.0 110.0 L 237.5 121.25 L 240.0 136.25 L 240.0 140.0 " stroke="black" fill="none" stroke-width="6.0" stroke-linecap="round" stroke-linejoin="round" />
<path d="M 178.75 196.25 L 178.75 196.25 L 177.5 197.5 L 177.5 200.0 L 175.0 207.5 L 172.5 217.5 L 170.0 225.0 L 172.5 228.75 L 185.0 227.5 L 202.5 220.0 L 220.0 212.5 L 235.0 206.25 L 242.5 201.25 L 245.0 200.0 L 243.75 198.75 L 241.25 197.5 L 238.75 195.0 L 236.25 193.75 L 235.0 191.25 L 233.75 190.0 L 232.5 190.0 L 232.5 190.0 L 232.5 190.0 L 231.25 188.75 L 231.25 188.75 L 231.25 188.75 L 231.25 188.75 L 231.25 188.75 L 235.0 192.5 L 243.75 201.25 L 253.75 216.25 L 261.25 231.25 L 262.5 238.75 " stroke="black" fill="none" stroke-width="6.0" stroke-linecap="round" stroke-linejoin="round" />
<path d="M 202.5 85.0 L 202.5 85.0 L 202.5 85.0 L 203.75 100.0 L 207.5 141.25 L 208.75 181.25 L 207.5 203.75 L 205.0 215.0 L 203.75 216.25 " stroke="black" fill="none" stroke-width="6.0" stroke-linecap="round" stroke-linejoin="round" />
</svg>