<svg xmlns="http://www.w3.org/2000/svg" width="300" height="300" viewBox="0 0 300 300">
<path d="M 86.25 95.0 L 83.75 95.0 L 82.5 95.0 L 87.5 95.0 L 102.5 88.75 L 118.75 81.25 L 127.5 73.75 L 126.25 72.5 " stroke="black" fill="none" stroke-width="6.0" stroke-linecap="round" stroke-linejoin="round" />
<path d="M 92.5 72.5 L 92.5 72.5 L 95.0 73.75 L 102.5 82.5 L 110.0 93.75 L 111.25 105.0 L 102.5 113.75 L 91.25 118.75 L 78.75 123.75 L 68.75 128.75 L 66.25 130.0 L 77.5 130.0 L 95.0 125.0 L 118.75 115.0 L 142.5 102.5 L 151.25 96.25 L 147.5 93.75 " stroke="black" fill="none" stroke-width="6.0" stroke-linecap="round" stroke-linejoin="round" />
<path d="M 88.75 136.25 L 87.5 143.75 L 90.0 157.5 L 93.75 175.0 L 97.5 186.25 L 98.75 190.0 L 97.5 190.0 " stroke="black" fill="none" stroke-width="6.0" stroke-linecap="round" stroke-linejoin="round" />
<path d="M 85.0 156.25 L 85.0 155.0 L 86.25 152.5 L 92.5 148.75 L 106.25 146.25 L 122.5 145.0 L 130.0 146.25 L 125.0 156.25 L 111.25 170.0 L 97.5 182.5 L 90.0 190.0 L 90.0 190.0 L 101.25 181.25 L 116.25 167.5 L 128.75 155.0 L 133.75 151.25 L 125.0 155.0 L 112.5 162.5 L 101.25 172.5 L 93.75 185.0 L 91.25 201.25 L 91.25 218.75 L 93.75 235.0 L 96.25 241.25 L 97.5 241.25 " stroke="black" fill="none" stroke-width="6.0" stroke-linecap="round" stroke-linejoin="round" />
<path d="M 126.25 180.0 L 127.5 178.75 L 127.5 178.75 L 126.25 186.25 L 118.75 202.5 L 106.25 220.0 L 93.75 232.5 L 86.25 236.25 L 85.0 236.25 L 91.25 236.25 L 107.5 235.0 L 130.0 228.75 L 151.25 218.75 L 170.0 208.75 L 172.5 205.0 " stroke="black" fill="none" stroke-width="6.0" stroke-linecap="round" stroke-linejoin="round" />
<path d="M 185.0 107.5 L 180.0 110.0 L 177.5 110.0 L 180.0 111.25 L 196.25 107.5 L 216.25 98.75 L 232.5 90.0 L 236.25 86.25 L 221.25 87.5 L 207.5 90.0 L 196.25 90.0 L 190.0 86.25 L 188.75 81.25 L 191.25 80.0 L 196.25 93.75 L 197.5 121.25 L 193.75 152.5 L 185.0 168.75 L 178.75 172.5 L 177.5 172.5 L 180.0 170.0 L 192.5 165.0 L 208.75 155.0 L 227.5 145.0 L 241.25 138.75 L 246.25 138.75 L 242.5 151.25 L 228.75 173.75 L 210.0 200.0 L 191.25 222.5 L 173.75 236.25 L 160.0 240.0 L 156.25 238.75 " stroke="black" fill="none" stroke-width="6.0" stroke-linecap="round" stroke-linejoin="round" />
<path d="M 163.75 180.0 L 163.75 180.0 L 163.75 178.75 L 163.75 178.75 L 170.0 181.25 L 186.25 191.25 L 205.0 205.0 L 226.25 218.75 L 248.75 233.75 L 266.25 245.0 L 283.75 253.75 L 300.0 261.25 L 302.5 261.25 " stroke="black" fill="none" stroke-width="6.0" stroke-linecap="round" stroke-linejoin="round" />
</svg>