<svg xmlns="http://www.w3.org/2000/svg" width="300" height="300" viewBox="0 0 300 300">
<path d="M 131.25 66.25 L 130.0 67.5 L 127.5 68.75 L 133.75 68.75 L 145.0 71.25 L 156.25 72.5 L 165.0 75.0 L 165.0 77.5 L 163.75 78.75 " stroke="black" fill="none" stroke-width="6.0" stroke-linecap="round" stroke-linejoin="round" />
<path d="M 100.0 105.0 L 98.75 107.5 L 96.25 108.75 L 101.25 108.75 L 122.5 103.75 L 152.5 92.5 L 178.75 80.0 L 188.75 73.75 L 188.75 72.5 L 180.0 73.75 L 171.25 77.5 L 162.5 83.75 L 152.5 92.5 L 142.5 108.75 L 127.5 135.0 L 110.0 156.25 L 97.5 163.75 L 91.25 163.75 L 90.0 156.25 L 90.0 153.75 " stroke="black" fill="none" stroke-width="6.0" stroke-linecap="round" stroke-linejoin="round" />
<path d="M 111.25 116.25 L 112.5 115.0 L 115.0 115.0 L 131.25 118.75 L 157.5 126.25 L 190.0 131.25 L 215.0 131.25 L 230.0 131.25 L 235.0 131.25 L 226.25 133.75 L 215.0 135.0 " stroke="black" fill="none" stroke-width="6.0" stroke-linecap="round" stroke-linejoin="round" />
<path d="M 136.25 160.0 L 132.5 157.5 L 130.0 156.25 L 128.75 166.25 L 128.75 192.5 L 132.5 221.25 L 137.5 240.0 L 141.25 245.0 L 142.5 241.25 " stroke="black" fill="none" stroke-width="6.0" stroke-linecap="round" stroke-linejoin="round" />
<path d="M 165.0 142.5 L 167.5 140.0 L 170.0 140.0 L 173.75 158.75 L 176.25 195.0 L 177.5 226.25 L 175.0 243.75 L 172.5 248.75 L 168.75 248.75 L 167.5 247.5 " stroke="black" fill="none" stroke-width="6.0" stroke-linecap="round" stroke-linejoin="round" />
<path d="M 132.5 192.5 L 130.0 192.5 L 128.75 192.5 L 137.5 186.25 L 151.25 176.25 L 165.0 166.25 L 171.25 161.25 L 170.0 161.25 " stroke="black" fill="none" stroke-width="6.0" stroke-linecap="round" stroke-linejoin="round" />
<path d="M 137.5 208.75 L 133.75 212.5 L 133.75 213.75 L 146.25 208.75 L 162.5 197.5 L 175.0 187.5 " stroke="black" fill="none" stroke-width="6.0" stroke-linecap="round" stroke-linejoin="round" />
</svg>