<svg xmlns="http://www.w3.org/2000/svg" width="300" height="300" viewBox="0 0 300 300">
<path d="M 56.25 220.0 L 56.25 220.0 L 56.25 220.0 L 56.25 220.0 L 56.25 220.0 L 58.75 220.0 L 66.25 216.25 L 80.0 208.75 L 95.0 201.25 L 108.75 195.0 L 123.75 188.75 L 137.5 183.75 L 145.0 180.0 L 147.5 177.5 L 148.75 176.25 L 148.75 176.25 L 148.75 176.25 L 148.75 176.25 L 148.75 176.25 L 148.75 176.25 L 148.75 176.25 L 148.75 176.25 L 148.75 176.25 L 148.75 176.25 L 150.0 176.25 L 152.5 176.25 L 156.25 177.5 L 160.0 180.0 L 167.5 182.5 L 176.25 187.5 L 188.75 193.75 L 201.25 200.0 L 213.75 207.5 L 225.0 213.75 L 237.5 218.75 L 246.25 221.25 L 251.25 222.5 L 253.75 222.5 L 253.75 222.5 L 248.75 222.5 L 242.5 222.5 " stroke="black" fill="none" stroke-width="6.0" stroke-linecap="round" stroke-linejoin="round" />
<path d="M 68.75 255.0 L 65.0 255.0 L 62.5 256.25 L 61.25 256.25 L 62.5 256.25 L 71.25 253.75 L 83.75 247.5 L 98.75 241.25 L 117.5 231.25 L 136.25 220.0 L 146.25 213.75 L 150.0 210.0 L 151.25 208.75 L 152.5 208.75 L 152.5 208.75 L 151.25 208.75 L 151.25 208.75 L 151.25 208.75 L 151.25 208.75 L 152.5 208.75 L 152.5 210.0 L 153.75 210.0 L 156.25 210.0 L 158.75 211.25 L 161.25 212.5 L 167.5 213.75 L 176.25 216.25 L 188.75 221.25 L 200.0 226.25 L 210.0 232.5 L 217.5 237.5 L 225.0 241.25 L 232.5 242.5 L 238.75 243.75 L 241.25 243.75 L 242.5 243.75 L 242.5 243.75 L 243.75 243.75 L 243.75 245.0 " stroke="black" fill="none" stroke-width="6.0" stroke-linecap="round" stroke-linejoin="round" />
</svg>