<svg xmlns="http://www.w3.org/2000/svg" width="300" height="300" viewBox="0 0 300 300">
<path d="M 116.25 136.25 L 115.0 136.25 L 107.5 137.5 L 103.75 142.5 L 100.0 157.5 L 98.75 177.5 L 103.75 190.0 L 112.5 193.75 L 125.0 190.0 L 135.0 178.75 L 140.0 165.0 L 141.25 155.0 L 138.75 147.5 L 131.25 145.0 L 120.0 146.25 L 110.0 152.5 L 105.0 158.75 L 105.0 160.0 " stroke="black" fill="none" stroke-width="6.0" stroke-linecap="round" stroke-linejoin="round" />
<path d="M 191.25 118.75 L 190.0 118.75 L 186.25 120.0 L 177.5 131.25 L 160.0 165.0 L 143.75 207.5 L 127.5 241.25 L 113.75 265.0 L 112.5 271.25 L 113.75 268.75 " stroke="black" fill="none" stroke-width="6.0" stroke-linecap="round" stroke-linejoin="round" />
<path d="M 176.25 197.5 L 175.0 197.5 L 171.25 198.75 L 168.75 205.0 L 168.75 216.25 L 173.75 226.25 L 182.5 228.75 L 193.75 223.75 L 203.75 211.25 L 208.75 198.75 L 210.0 191.25 L 203.75 185.0 L 191.25 183.75 L 178.75 183.75 L 170.0 188.75 L 170.0 195.0 L 171.25 197.5 " stroke="black" fill="none" stroke-width="6.0" stroke-linecap="round" stroke-linejoin="round" />
</svg>