<svg xmlns="http://www.w3.org/2000/svg" width="300" height="300" viewBox="0 0 300 300">
<path d="M 97.5 90.0 L 96.25 90.0 L 93.75 90.0 L 92.5 90.0 L 92.5 90.0 L 96.25 90.0 L 101.25 90.0 L 108.75 90.0 L 115.0 90.0 L 120.0 90.0 L 123.75 88.75 L 126.25 87.5 " stroke="black" fill="none" stroke-width="6.0" stroke-linecap="round" stroke-linejoin="round" />
<path d="M 142.5 86.25 L 142.5 86.25 L 141.25 86.25 L 141.25 86.25 L 141.25 86.25 L 142.5 86.25 L 146.25 86.25 L 151.25 86.25 L 156.25 86.25 L 162.5 86.25 L 165.0 85.0 " stroke="black" fill="none" stroke-width="6.0" stroke-linecap="round" stroke-linejoin="round" />
<path d="M 185.0 81.25 L 183.75 81.25 L 182.5 81.25 L 181.25 81.25 L 181.25 81.25 L 181.25 81.25 L 185.0 82.5 L 193.75 82.5 L 203.75 82.5 L 215.0 81.25 L 222.5 80.0 L 225.0 80.0 " stroke="black" fill="none" stroke-width="6.0" stroke-linecap="round" stroke-linejoin="round" />
</svg>