<svg xmlns="http://www.w3.org/2000/svg" width="300" height="300" viewBox="0 0 300 300">
<path d="M 130.0 141.25 L 127.5 141.25 L 122.5 141.25 L 118.75 141.25 L 118.75 138.75 L 120.0 133.75 L 126.25 128.75 L 133.75 123.75 L 143.75 118.75 L 153.75 117.5 L 165.0 118.75 L 176.25 130.0 L 181.25 141.25 L 182.5 152.5 L 178.75 161.25 L 172.5 166.25 L 166.25 170.0 L 160.0 175.0 L 153.75 178.75 L 148.75 183.75 L 146.25 188.75 L 146.25 192.5 L 147.5 196.25 L 148.75 198.75 L 150.0 201.25 L 152.5 202.5 L 153.75 202.5 L 153.75 202.5 L 153.75 202.5 " stroke="black" fill="none" stroke-width="6.0" stroke-linecap="round" stroke-linejoin="round" />
<path d="M 147.5 246.25 L 147.5 246.25 L 146.25 246.25 L 146.25 246.25 L 146.25 246.25 L 147.5 246.25 L 150.0 247.5 L 150.0 247.5 L 150.0 247.5 L 148.75 247.5 L 147.5 247.5 L 147.5 246.25 L 147.5 243.75 L 148.75 242.5 L 151.25 242.5 L 152.5 242.5 L 153.75 243.75 L 153.75 245.0 L 152.5 246.25 L 150.0 247.5 L 148.75 247.5 L 147.5 246.25 L 147.5 243.75 L 148.75 242.5 L 150.0 241.25 L 152.5 241.25 L 153.75 243.75 L 153.75 246.25 L 153.75 248.75 L 151.25 250.0 L 148.75 250.0 L 146.25 248.75 L 145.0 246.25 L 145.0 242.5 L 147.5 240.0 L 150.0 238.75 L 152.5 238.75 L 153.75 240.0 L 155.0 243.75 L 153.75 246.25 L 151.25 248.75 L 148.75 248.75 L 146.25 247.5 L 145.0 245.0 L 145.0 241.25 L 145.0 238.75 L 147.5 237.5 L 150.0 237.5 L 152.5 238.75 L 153.75 241.25 L 153.75 243.75 L 152.5 246.25 L 148.75 247.5 L 146.25 247.5 L 145.0 246.25 L 145.0 243.75 L 145.0 240.0 L 147.5 237.5 L 151.25 236.25 L 153.75 236.25 L 156.25 240.0 L 157.5 243.75 L 157.5 247.5 L 156.25 248.75 " stroke="black" fill="none" stroke-width="6.0" stroke-linecap="round" stroke-linejoin="round" />
</svg>