<svg xmlns="http://www.w3.org/2000/svg" width="300" height="300" viewBox="0 0 300 300">
<path d="M 48.75 73.75 L 48.75 73.75 L 47.5 72.5 L 46.25 72.5 L 46.25 72.5 L 47.5 78.75 L 50.0 90.0 L 51.25 103.75 L 51.25 116.25 L 51.25 126.25 L 51.25 132.5 L 51.25 135.0 L 51.25 136.25 L 51.25 136.25 L 52.5 136.25 L 52.5 136.25 L 53.75 136.25 L 55.0 136.25 L 56.25 136.25 L 58.75 136.25 L 61.25 136.25 L 63.75 137.5 L 67.5 137.5 L 71.25 138.75 L 76.25 138.75 L 80.0 138.75 L 85.0 138.75 L 90.0 138.75 L 95.0 138.75 L 100.0 138.75 L 105.0 138.75 L 111.25 137.5 L 117.5 136.25 L 123.75 135.0 L 130.0 135.0 L 135.0 133.75 L 140.0 133.75 L 146.25 133.75 L 150.0 133.75 L 155.0 133.75 L 158.75 133.75 L 163.75 133.75 L 168.75 133.75 L 172.5 135.0 L 176.25 135.0 L 178.75 135.0 L 181.25 136.25 L 182.5 136.25 L 185.0 136.25 L 186.25 136.25 L 187.5 136.25 L 190.0 136.25 L 191.25 136.25 L 192.5 136.25 L 192.5 136.25 L 193.75 136.25 L 193.75 136.25 L 193.75 135.0 L 193.75 133.75 L 193.75 131.25 L 193.75 126.25 L 192.5 120.0 L 191.25 113.75 L 190.0 108.75 L 188.75 103.75 L 187.5 100.0 L 186.25 97.5 L 186.25 97.5 L 185.0 96.25 L 183.75 96.25 L 182.5 96.25 L 180.0 96.25 L 176.25 96.25 L 172.5 96.25 L 167.5 97.5 L 161.25 97.5 L 155.0 98.75 L 151.25 98.75 L 147.5 100.0 L 143.75 100.0 L 140.0 101.25 L 135.0 101.25 L 130.0 101.25 L 125.0 102.5 L 120.0 102.5 L 113.75 102.5 L 108.75 102.5 L 105.0 102.5 L 100.0 102.5 L 97.5 102.5 L 95.0 102.5 L 93.75 102.5 L 92.5 102.5 L 92.5 102.5 L 92.5 102.5 L 92.5 102.5 L 92.5 102.5 L 92.5 102.5 L 92.5 102.5 L 91.25 102.5 L 91.25 102.5 L 91.25 102.5 L 91.25 101.25 L 90.0 100.0 L 90.0 96.25 L 88.75 91.25 L 88.75 86.25 L 87.5 81.25 L 86.25 77.5 L 86.25 75.0 L 85.0 73.75 L 85.0 73.75 L 83.75 73.75 L 82.5 72.5 L 81.25 72.5 L 80.0 72.5 L 76.25 72.5 L 72.5 72.5 L 66.25 72.5 L 58.75 72.5 L 52.5 73.75 L 47.5 73.75 L 43.75 75.0 L 42.5 75.0 L 42.5 75.0 L 43.75 75.0 L 46.25 75.0 L 47.5 73.75 " stroke="black" fill="none" stroke-width="6.0" stroke-linecap="round" stroke-linejoin="round" />
</svg>