<svg xmlns="http://www.w3.org/2000/svg" width="300" height="300" viewBox="0 0 300 300">
<path d="M 147.5 152.5 L 145.0 151.25 L 143.75 151.25 L 143.75 150.0 L 145.0 150.0 L 146.25 150.0 L 147.5 152.5 L 147.5 153.75 L 147.5 156.25 L 147.5 157.5 L 145.0 157.5 L 143.75 157.5 L 142.5 156.25 L 141.25 153.75 L 141.25 151.25 L 143.75 150.0 L 146.25 150.0 L 147.5 151.25 L 148.75 153.75 L 148.75 157.5 L 147.5 160.0 L 145.0 160.0 L 142.5 160.0 L 140.0 157.5 L 140.0 153.75 L 141.25 150.0 L 145.0 147.5 L 147.5 147.5 L 150.0 148.75 L 151.25 153.75 L 151.25 157.5 L 150.0 160.0 L 147.5 161.25 L 145.0 161.25 L 143.75 160.0 L 142.5 157.5 L 143.75 152.5 L 147.5 150.0 L 150.0 150.0 L 152.5 150.0 L 153.75 152.5 L 152.5 157.5 L 150.0 160.0 L 150.0 160.0 " stroke="black" fill="none" stroke-width="6.0" stroke-linecap="round" stroke-linejoin="round" />
<path d="M 148.75 222.5 L 147.5 222.5 L 145.0 223.75 L 145.0 223.75 L 145.0 225.0 L 146.25 227.5 L 148.75 230.0 L 150.0 231.25 L 150.0 232.5 L 150.0 233.75 L 147.5 235.0 L 145.0 235.0 L 143.75 233.75 L 143.75 230.0 L 145.0 227.5 L 146.25 225.0 L 148.75 225.0 L 151.25 225.0 L 152.5 226.25 L 152.5 228.75 L 152.5 231.25 L 150.0 233.75 L 147.5 235.0 L 145.0 235.0 L 143.75 235.0 L 143.75 233.75 L 145.0 231.25 L 147.5 230.0 L 148.75 230.0 L 151.25 230.0 L 152.5 230.0 L 152.5 231.25 L 152.5 232.5 L 151.25 232.5 L 148.75 232.5 L 147.5 232.5 L 146.25 230.0 L 146.25 227.5 L 147.5 223.75 L 150.0 221.25 L 152.5 220.0 L 156.25 220.0 L 158.75 225.0 L 161.25 232.5 L 161.25 241.25 L 158.75 250.0 L 155.0 257.5 L 150.0 261.25 L 145.0 262.5 L 140.0 262.5 L 138.75 261.25 " stroke="black" fill="none" stroke-width="6.0" stroke-linecap="round" stroke-linejoin="round" />
</svg>