<svg xmlns="http://www.w3.org/2000/svg" width="300" height="300" viewBox="0 0 300 300">
<path d="M 117.5 188.75 L 116.25 187.5 L 113.75 187.5 L 112.5 187.5 L 112.5 187.5 L 112.5 191.25 L 112.5 198.75 L 111.25 207.5 L 111.25 215.0 L 111.25 218.75 L 111.25 220.0 L 111.25 220.0 L 111.25 220.0 L 111.25 218.75 L 112.5 218.75 L 113.75 218.75 L 116.25 218.75 L 118.75 218.75 L 128.75 217.5 L 136.25 217.5 L 143.75 217.5 L 151.25 216.25 L 160.0 216.25 L 168.75 215.0 L 177.5 215.0 L 186.25 215.0 L 192.5 215.0 L 198.75 215.0 L 203.75 213.75 L 206.25 213.75 L 207.5 212.5 L 207.5 212.5 L 207.5 212.5 L 207.5 212.5 L 207.5 212.5 L 207.5 212.5 L 206.25 212.5 L 206.25 212.5 L 206.25 212.5 L 206.25 212.5 L 206.25 215.0 L 206.25 218.75 L 206.25 225.0 L 206.25 231.25 L 206.25 237.5 L 206.25 242.5 L 206.25 246.25 L 206.25 248.75 L 207.5 248.75 L 207.5 250.0 L 207.5 250.0 L 207.5 250.0 L 207.5 250.0 L 207.5 250.0 L 207.5 250.0 L 207.5 250.0 L 207.5 250.0 L 207.5 250.0 L 207.5 250.0 L 207.5 250.0 L 207.5 248.75 L 208.75 248.75 L 210.0 248.75 L 213.75 247.5 L 217.5 246.25 L 223.75 243.75 L 228.75 242.5 L 235.0 241.25 L 240.0 241.25 L 245.0 241.25 L 247.5 241.25 L 248.75 241.25 L 248.75 241.25 L 248.75 241.25 L 248.75 241.25 L 248.75 241.25 L 248.75 240.0 L 247.5 237.5 L 247.5 235.0 L 246.25 230.0 L 246.25 225.0 L 245.0 218.75 L 245.0 212.5 L 245.0 206.25 L 245.0 201.25 L 245.0 196.25 L 245.0 192.5 L 245.0 188.75 L 245.0 187.5 L 245.0 185.0 L 245.0 183.75 L 245.0 183.75 L 245.0 183.75 L 245.0 182.5 L 243.75 182.5 L 243.75 182.5 L 242.5 182.5 L 241.25 182.5 L 238.75 182.5 L 236.25 182.5 L 232.5 182.5 L 226.25 183.75 L 220.0 185.0 L 215.0 186.25 L 208.75 187.5 L 203.75 187.5 L 200.0 188.75 L 197.5 188.75 L 193.75 188.75 L 191.25 190.0 L 187.5 190.0 L 183.75 190.0 L 180.0 190.0 L 175.0 190.0 L 171.25 190.0 L 167.5 190.0 L 162.5 190.0 L 158.75 190.0 L 155.0 190.0 L 152.5 190.0 L 151.25 190.0 L 150.0 190.0 L 148.75 190.0 L 146.25 190.0 L 145.0 190.0 L 142.5 188.75 L 140.0 188.75 L 138.75 188.75 L 136.25 187.5 L 132.5 187.5 L 130.0 186.25 L 127.5 185.0 L 125.0 185.0 L 122.5 183.75 L 120.0 183.75 L 117.5 183.75 L 116.25 183.75 L 115.0 183.75 L 113.75 183.75 L 113.75 183.75 L 113.75 183.75 L 113.75 183.75 L 113.75 183.75 " stroke="black" fill="none" stroke-width="6.0" stroke-linecap="round" stroke-linejoin="round" />
</svg>