<svg xmlns="http://www.w3.org/2000/svg" width="300" height="300" viewBox="0 0 300 300">
<path d="M 61.25 87.5 L 58.75 87.5 L 57.5 87.5 L 58.75 87.5 L 63.75 87.5 L 71.25 90.0 L 78.75 93.75 L 87.5 98.75 L 96.25 103.75 L 103.75 110.0 L 112.5 116.25 L 120.0 120.0 L 127.5 122.5 L 132.5 123.75 L 135.0 123.75 L 135.0 123.75 L 135.0 122.5 L 135.0 122.5 L 135.0 122.5 L 135.0 122.5 L 135.0 122.5 L 136.25 121.25 L 140.0 118.75 L 145.0 116.25 L 156.25 110.0 L 172.5 101.25 L 193.75 91.25 L 208.75 83.75 L 218.75 80.0 L 222.5 78.75 L 222.5 78.75 L 222.5 78.75 L 220.0 80.0 L 212.5 83.75 L 210.0 85.0 " stroke="black" fill="none" stroke-width="6.0" stroke-linecap="round" stroke-linejoin="round" />
<path d="M 61.25 128.75 L 58.75 126.25 L 57.5 125.0 L 57.5 123.75 L 57.5 122.5 L 62.5 122.5 L 72.5 123.75 L 83.75 128.75 L 95.0 137.5 L 107.5 145.0 L 116.25 151.25 L 125.0 153.75 L 131.25 156.25 L 133.75 157.5 L 133.75 158.75 L 133.75 158.75 L 133.75 158.75 L 133.75 158.75 L 133.75 158.75 L 135.0 158.75 L 135.0 158.75 L 137.5 158.75 L 140.0 156.25 L 145.0 153.75 L 152.5 148.75 L 163.75 141.25 L 180.0 131.25 L 195.0 122.5 L 205.0 116.25 L 210.0 111.25 L 215.0 108.75 L 218.75 107.5 L 222.5 105.0 L 223.75 105.0 L 223.75 105.0 L 221.25 105.0 " stroke="black" fill="none" stroke-width="6.0" stroke-linecap="round" stroke-linejoin="round" />
</svg>