<svg xmlns="http://www.w3.org/2000/svg" width="300" height="300" viewBox="0 0 300 300">
<path d="M 58.75 68.75 L 56.25 70.0 L 52.5 70.0 L 52.5 71.25 L 53.75 73.75 L 58.75 78.75 L 66.25 83.75 L 71.25 88.75 L 75.0 93.75 L 76.25 97.5 L 75.0 102.5 L 70.0 106.25 L 65.0 108.75 L 58.75 112.5 L 53.75 113.75 L 51.25 116.25 L 48.75 117.5 L 48.75 117.5 L 51.25 118.75 L 55.0 121.25 L 61.25 123.75 L 66.25 127.5 L 71.25 132.5 L 75.0 137.5 L 76.25 142.5 L 76.25 147.5 L 73.75 151.25 L 68.75 155.0 L 65.0 157.5 L 61.25 158.75 L 61.25 158.75 L 61.25 158.75 L 62.5 158.75 L 66.25 160.0 L 71.25 162.5 L 76.25 165.0 L 80.0 170.0 L 80.0 176.25 L 76.25 183.75 L 71.25 191.25 L 65.0 197.5 L 61.25 201.25 L 60.0 202.5 L 60.0 202.5 L 62.5 205.0 L 66.25 207.5 L 71.25 211.25 L 76.25 216.25 L 78.75 221.25 L 81.25 223.75 L 82.5 225.0 L 82.5 225.0 L 82.5 225.0 L 82.5 225.0 L 82.5 226.25 L 82.5 227.5 L 81.25 230.0 L 81.25 231.25 L 80.0 233.75 L 80.0 235.0 L 78.75 236.25 L 77.5 236.25 L 76.25 237.5 L 76.25 237.5 L 75.0 238.75 L 75.0 238.75 L 75.0 238.75 L 75.0 238.75 L 75.0 238.75 L 73.75 241.25 L 71.25 245.0 L 67.5 250.0 L 65.0 253.75 L 63.75 255.0 L 63.75 256.25 L 65.0 256.25 " stroke="black" fill="none" stroke-width="6.0" stroke-linecap="round" stroke-linejoin="round" />
</svg>