<svg xmlns="http://www.w3.org/2000/svg" width="300" height="300" viewBox="0 0 300 300">
<path d="M 57.5 71.25 L 57.5 71.25 L 55.0 70.0 L 53.75 70.0 L 53.75 70.0 L 55.0 72.5 L 57.5 78.75 L 63.75 85.0 L 70.0 90.0 L 78.75 95.0 L 88.75 98.75 L 96.25 98.75 L 103.75 97.5 L 111.25 93.75 L 118.75 91.25 L 126.25 88.75 L 131.25 87.5 L 135.0 87.5 L 138.75 87.5 L 142.5 87.5 L 145.0 88.75 L 146.25 90.0 L 147.5 92.5 L 148.75 93.75 L 150.0 95.0 L 150.0 97.5 L 151.25 98.75 L 151.25 100.0 L 152.5 102.5 L 152.5 105.0 L 152.5 108.75 L 153.75 111.25 L 153.75 115.0 L 155.0 117.5 L 155.0 118.75 L 155.0 118.75 L 155.0 118.75 L 155.0 118.75 L 155.0 118.75 L 155.0 118.75 L 155.0 117.5 L 155.0 117.5 L 155.0 117.5 L 156.25 116.25 L 156.25 112.5 L 157.5 108.75 L 160.0 103.75 L 162.5 98.75 L 165.0 95.0 L 166.25 92.5 L 167.5 91.25 L 167.5 91.25 L 168.75 91.25 L 168.75 91.25 L 168.75 91.25 L 170.0 91.25 L 172.5 91.25 L 173.75 91.25 L 176.25 91.25 L 178.75 91.25 L 182.5 91.25 L 185.0 91.25 L 187.5 91.25 L 190.0 91.25 L 192.5 91.25 L 196.25 91.25 L 198.75 91.25 L 201.25 91.25 L 203.75 91.25 L 206.25 91.25 L 210.0 91.25 L 212.5 91.25 L 216.25 91.25 L 220.0 91.25 L 225.0 91.25 L 230.0 91.25 L 236.25 90.0 L 240.0 90.0 L 243.75 88.75 L 246.25 86.25 L 248.75 85.0 L 251.25 82.5 L 252.5 78.75 L 255.0 73.75 L 257.5 66.25 L 258.75 57.5 L 258.75 50.0 L 258.75 46.25 L 258.75 45.0 L 256.25 45.0 L 253.75 48.75 L 252.5 50.0 " stroke="black" fill="none" stroke-width="6.0" stroke-linecap="round" stroke-linejoin="round" />
</svg>