<svg xmlns="http://www.w3.org/2000/svg" width="300" height="300" viewBox="0 0 300 300">
<path d="M 91.25 236.25 L 88.75 236.25 L 85.0 236.25 L 83.75 236.25 L 86.25 237.5 L 93.75 240.0 L 103.75 241.25 L 115.0 241.25 L 125.0 241.25 L 131.25 241.25 L 136.25 241.25 L 138.75 240.0 L 138.75 238.75 L 138.75 238.75 " stroke="black" fill="none" stroke-width="6.0" stroke-linecap="round" stroke-linejoin="round" />
<path d="M 150.0 241.25 L 148.75 241.25 L 147.5 241.25 L 147.5 241.25 L 147.5 241.25 L 148.75 241.25 L 151.25 241.25 L 153.75 241.25 L 155.0 241.25 L 155.0 241.25 " stroke="black" fill="none" stroke-width="6.0" stroke-linecap="round" stroke-linejoin="round" />
<path d="M 180.0 237.5 L 178.75 237.5 L 176.25 237.5 L 175.0 237.5 L 173.75 237.5 L 173.75 237.5 L 178.75 237.5 L 185.0 237.5 L 193.75 237.5 L 202.5 236.25 L 211.25 236.25 L 216.25 235.0 L 218.75 235.0 L 220.0 235.0 L 221.25 235.0 L 221.25 236.25 " stroke="black" fill="none" stroke-width="6.0" stroke-linecap="round" stroke-linejoin="round" />
</svg>