<svg xmlns="http://www.w3.org/2000/svg" width="300" height="300" viewBox="0 0 300 300">
<path d="M 51.25 190.0 L 51.25 190.0 L 51.25 190.0 L 51.25 188.75 L 51.25 188.75 L 51.25 188.75 L 52.5 188.75 L 57.5 188.75 L 66.25 188.75 L 77.5 188.75 L 88.75 190.0 L 98.75 190.0 L 108.75 190.0 L 118.75 190.0 L 131.25 188.75 L 143.75 188.75 L 156.25 187.5 L 168.75 185.0 L 182.5 183.75 L 195.0 181.25 L 205.0 181.25 L 213.75 181.25 L 221.25 181.25 L 227.5 181.25 L 232.5 181.25 L 236.25 181.25 L 238.75 181.25 L 242.5 181.25 L 245.0 181.25 L 248.75 181.25 L 251.25 181.25 L 251.25 181.25 L 251.25 181.25 L 251.25 181.25 L 251.25 181.25 L 251.25 181.25 L 251.25 181.25 L 251.25 182.5 L 250.0 185.0 L 248.75 188.75 L 247.5 195.0 L 245.0 203.75 L 241.25 215.0 L 238.75 226.25 L 236.25 236.25 L 235.0 241.25 L 235.0 242.5 L 235.0 242.5 L 235.0 242.5 L 235.0 242.5 L 235.0 242.5 L 235.0 242.5 L 235.0 242.5 L 235.0 242.5 L 235.0 242.5 L 235.0 242.5 L 235.0 241.25 L 233.75 241.25 L 232.5 240.0 L 228.75 238.75 L 225.0 236.25 L 221.25 233.75 L 216.25 230.0 L 212.5 227.5 L 208.75 225.0 L 206.25 223.75 L 205.0 222.5 L 203.75 221.25 L 202.5 220.0 L 201.25 220.0 L 200.0 218.75 L 198.75 218.75 L 197.5 217.5 L 196.25 217.5 L 193.75 216.25 L 192.5 215.0 L 190.0 215.0 L 188.75 213.75 L 186.25 212.5 L 183.75 212.5 L 182.5 211.25 L 180.0 211.25 L 177.5 210.0 L 175.0 210.0 L 173.75 210.0 L 171.25 210.0 L 168.75 210.0 L 166.25 210.0 L 162.5 210.0 L 160.0 210.0 L 156.25 210.0 L 152.5 210.0 L 148.75 210.0 L 145.0 210.0 L 141.25 211.25 L 137.5 212.5 L 133.75 213.75 L 130.0 213.75 L 127.5 215.0 L 123.75 216.25 L 121.25 217.5 L 116.25 218.75 L 112.5 220.0 L 108.75 222.5 L 103.75 223.75 L 100.0 226.25 L 96.25 228.75 L 92.5 231.25 L 88.75 233.75 L 85.0 236.25 L 81.25 237.5 L 77.5 240.0 L 75.0 242.5 L 71.25 243.75 L 68.75 246.25 L 67.5 247.5 L 65.0 250.0 L 63.75 251.25 L 63.75 252.5 L 62.5 253.75 L 62.5 253.75 L 62.5 253.75 L 62.5 253.75 L 62.5 253.75 L 62.5 253.75 L 62.5 253.75 L 62.5 253.75 L 61.25 253.75 L 60.0 252.5 L 58.75 250.0 L 57.5 246.25 L 56.25 241.25 L 55.0 233.75 L 53.75 226.25 L 53.75 218.75 L 53.75 211.25 L 53.75 205.0 L 53.75 198.75 L 53.75 195.0 L 52.5 192.5 L 50.0 190.0 L 48.75 188.75 L 47.5 188.75 L 47.5 188.75 L 46.25 188.75 L 46.25 188.75 L 46.25 188.75 L 46.25 188.75 " stroke="black" fill="none" stroke-width="6.0" stroke-linecap="round" stroke-linejoin="round" />
</svg>