<svg xmlns="http://www.w3.org/2000/svg" width="300" height="300" viewBox="0 0 300 300">
<path d="M 52.5 237.5 L 52.5 237.5 L 50.0 237.5 L 48.75 237.5 L 48.75 237.5 L 51.25 238.75 L 58.75 241.25 L 68.75 243.75 L 78.75 247.5 L 87.5 248.75 L 93.75 248.75 L 98.75 248.75 L 103.75 246.25 L 110.0 243.75 L 113.75 241.25 L 117.5 240.0 L 118.75 240.0 L 120.0 238.75 L 120.0 238.75 L 121.25 238.75 L 123.75 241.25 L 126.25 242.5 L 130.0 246.25 L 135.0 248.75 L 140.0 252.5 L 145.0 253.75 L 148.75 255.0 L 152.5 256.25 L 155.0 255.0 L 157.5 253.75 L 160.0 251.25 L 162.5 248.75 L 165.0 246.25 L 167.5 245.0 L 170.0 243.75 L 172.5 241.25 L 176.25 240.0 L 181.25 237.5 L 183.75 236.25 L 185.0 236.25 L 185.0 236.25 L 186.25 236.25 L 187.5 238.75 L 188.75 240.0 L 190.0 242.5 L 192.5 243.75 L 195.0 246.25 L 196.25 247.5 L 198.75 247.5 L 200.0 248.75 L 202.5 248.75 L 203.75 248.75 L 207.5 248.75 L 211.25 248.75 L 215.0 248.75 L 220.0 248.75 L 225.0 247.5 L 230.0 246.25 L 236.25 243.75 L 242.5 241.25 L 248.75 238.75 L 255.0 237.5 L 258.75 236.25 L 261.25 235.0 L 262.5 235.0 L 263.75 235.0 " stroke="black" fill="none" stroke-width="6.0" stroke-linecap="round" stroke-linejoin="round" />
</svg>