<svg xmlns="http://www.w3.org/2000/svg" width="300" height="300" viewBox="0 0 300 300">
<path d="M 146.25 161.25 L 146.25 161.25 L 145.0 161.25 L 145.0 161.25 L 145.0 161.25 L 146.25 162.5 L 147.5 163.75 L 147.5 165.0 L 146.25 166.25 L 142.5 166.25 L 140.0 166.25 L 138.75 162.5 L 140.0 157.5 L 142.5 155.0 L 146.25 152.5 L 148.75 152.5 L 151.25 155.0 L 152.5 160.0 L 152.5 165.0 L 151.25 168.75 L 147.5 168.75 L 145.0 168.75 L 142.5 165.0 L 142.5 160.0 L 143.75 155.0 L 146.25 152.5 L 150.0 151.25 L 152.5 153.75 L 153.75 158.75 L 153.75 165.0 L 151.25 168.75 L 148.75 171.25 L 145.0 171.25 L 143.75 170.0 L 143.75 166.25 L 143.75 162.5 L 146.25 160.0 L 150.0 158.75 L 152.5 158.75 L 153.75 160.0 L 153.75 165.0 L 152.5 168.75 L 148.75 171.25 L 145.0 171.25 L 143.75 168.75 " stroke="black" fill="none" stroke-width="6.0" stroke-linecap="round" stroke-linejoin="round" />
<path d="M 147.5 152.5 L 145.0 152.5 L 142.5 152.5 L 142.5 152.5 L 142.5 153.75 L 142.5 157.5 " stroke="black" fill="none" stroke-width="6.0" stroke-linecap="round" stroke-linejoin="round" />
<path d="M 148.75 218.75 L 148.75 220.0 L 147.5 221.25 L 147.5 223.75 L 148.75 226.25 L 150.0 228.75 L 151.25 231.25 L 151.25 232.5 L 148.75 235.0 L 145.0 235.0 L 141.25 235.0 L 138.75 232.5 L 138.75 228.75 L 140.0 225.0 L 143.75 223.75 L 147.5 222.5 L 150.0 225.0 L 151.25 227.5 L 152.5 232.5 L 150.0 235.0 L 147.5 236.25 L 143.75 236.25 L 141.25 233.75 L 141.25 230.0 L 141.25 225.0 L 145.0 221.25 L 147.5 220.0 L 150.0 220.0 L 151.25 223.75 L 152.5 227.5 L 151.25 231.25 L 148.75 233.75 L 145.0 233.75 L 143.75 233.75 L 142.5 230.0 L 142.5 225.0 L 145.0 222.5 L 147.5 221.25 L 148.75 221.25 L 151.25 223.75 L 151.25 226.25 L 151.25 228.75 L 150.0 230.0 L 148.75 230.0 L 148.75 228.75 L 147.5 225.0 L 147.5 221.25 L 148.75 220.0 L 150.0 220.0 L 150.0 221.25 L 150.0 222.5 " stroke="black" fill="none" stroke-width="6.0" stroke-linecap="round" stroke-linejoin="round" />
</svg>