<svg xmlns="http://www.w3.org/2000/svg" width="300" height="300" viewBox="0 0 300 300">
<path d="M 97.5 81.25 L 95.0 81.25 L 91.25 81.25 L 90.0 82.5 L 91.25 83.75 L 96.25 85.0 L 105.0 87.5 L 116.25 87.5 L 126.25 87.5 L 136.25 85.0 L 142.5 82.5 L 143.75 81.25 L 143.75 81.25 L 143.75 81.25 L 142.5 82.5 L 141.25 82.5 " stroke="black" fill="none" stroke-width="6.0" stroke-linecap="round" stroke-linejoin="round" />
<path d="M 158.75 86.25 L 158.75 86.25 L 157.5 85.0 L 156.25 85.0 L 156.25 85.0 L 156.25 85.0 L 156.25 85.0 L 157.5 86.25 " stroke="black" fill="none" stroke-width="6.0" stroke-linecap="round" stroke-linejoin="round" />
<path d="M 186.25 81.25 L 185.0 81.25 L 183.75 80.0 L 182.5 80.0 L 182.5 80.0 L 182.5 80.0 L 185.0 80.0 L 190.0 80.0 L 196.25 80.0 L 205.0 80.0 L 215.0 80.0 L 225.0 80.0 L 231.25 80.0 L 235.0 80.0 L 235.0 80.0 L 233.75 81.25 " stroke="black" fill="none" stroke-width="6.0" stroke-linecap="round" stroke-linejoin="round" />
</svg>