<svg xmlns="http://www.w3.org/2000/svg" width="300" height="300" viewBox="0 0 300 300">
<path d="M 168.75 122.5 L 168.75 122.5 L 166.25 121.25 L 165.0 120.0 L 163.75 120.0 L 161.25 118.75 L 160.0 118.75 L 156.25 120.0 L 152.5 123.75 L 148.75 128.75 L 146.25 135.0 L 145.0 142.5 L 145.0 151.25 L 148.75 158.75 L 152.5 166.25 L 153.75 172.5 L 153.75 177.5 L 152.5 181.25 L 148.75 182.5 L 143.75 185.0 L 136.25 186.25 L 128.75 187.5 L 123.75 188.75 L 122.5 188.75 L 122.5 188.75 L 123.75 188.75 L 127.5 188.75 L 131.25 188.75 L 136.25 188.75 L 141.25 188.75 L 145.0 190.0 L 148.75 193.75 L 150.0 200.0 L 150.0 207.5 L 147.5 218.75 L 145.0 231.25 L 142.5 240.0 L 142.5 245.0 L 142.5 246.25 L 143.75 246.25 L 147.5 246.25 L 151.25 245.0 L 158.75 245.0 L 168.75 245.0 L 173.75 243.75 " stroke="black" fill="none" stroke-width="6.0" stroke-linecap="round" stroke-linejoin="round" />
</svg>