<svg xmlns="http://www.w3.org/2000/svg" width="300" height="300" viewBox="0 0 300 300">
<path d="M 115.0 200.0 L 111.25 200.0 L 107.5 201.25 L 106.25 201.25 L 108.75 202.5 L 120.0 203.75 L 140.0 203.75 L 165.0 200.0 L 192.5 196.25 L 211.25 195.0 L 222.5 193.75 L 228.75 193.75 L 230.0 195.0 L 231.25 195.0 L 232.5 195.0 L 232.5 195.0 L 233.75 193.75 L 233.75 193.75 L 233.75 193.75 L 233.75 193.75 L 233.75 193.75 L 233.75 193.75 L 233.75 195.0 L 233.75 202.5 L 232.5 221.25 L 232.5 246.25 L 232.5 261.25 L 232.5 266.25 L 233.75 267.5 L 233.75 266.25 L 235.0 265.0 L 236.25 261.25 " stroke="black" fill="none" stroke-width="6.0" stroke-linecap="round" stroke-linejoin="round" />
</svg>