<svg xmlns="http://www.w3.org/2000/svg" width="300" height="300" viewBox="0 0 300 300">
<path d="M 62.5 85.0 L 61.25 85.0 L 58.75 83.75 L 57.5 83.75 L 57.5 83.75 L 61.25 83.75 L 70.0 88.75 L 82.5 96.25 L 96.25 108.75 L 110.0 122.5 L 125.0 132.5 L 136.25 137.5 L 142.5 140.0 L 145.0 141.25 L 145.0 141.25 L 145.0 141.25 L 145.0 141.25 L 145.0 141.25 L 145.0 141.25 L 147.5 138.75 L 150.0 135.0 L 156.25 130.0 L 167.5 123.75 L 187.5 112.5 L 207.5 100.0 L 223.75 91.25 L 235.0 85.0 L 238.75 83.75 L 238.75 82.5 L 238.75 82.5 L 238.75 82.5 L 236.25 83.75 L 233.75 83.75 " stroke="black" fill="none" stroke-width="6.0" stroke-linecap="round" stroke-linejoin="round" />
</svg>