<svg xmlns="http://www.w3.org/2000/svg" width="300" height="300" viewBox="0 0 300 300">
<path d="M 76.25 237.5 L 73.75 237.5 L 70.0 238.75 L 67.5 238.75 L 67.5 238.75 L 67.5 238.75 L 71.25 235.0 L 77.5 228.75 L 83.75 221.25 L 88.75 213.75 L 92.5 207.5 L 93.75 205.0 L 93.75 203.75 L 93.75 203.75 L 92.5 205.0 L 92.5 205.0 L 92.5 205.0 L 93.75 206.25 L 97.5 206.25 L 105.0 206.25 L 118.75 206.25 L 133.75 206.25 L 151.25 205.0 L 168.75 202.5 L 183.75 200.0 L 197.5 198.75 L 206.25 197.5 L 212.5 197.5 L 216.25 197.5 L 216.25 197.5 L 216.25 197.5 L 216.25 197.5 L 216.25 197.5 L 216.25 197.5 L 215.0 197.5 L 215.0 197.5 L 215.0 197.5 L 215.0 197.5 L 215.0 197.5 L 215.0 197.5 L 217.5 201.25 L 220.0 208.75 L 225.0 220.0 L 228.75 230.0 L 231.25 236.25 L 232.5 237.5 L 233.75 237.5 L 233.75 237.5 L 233.75 237.5 L 233.75 237.5 L 233.75 238.75 " stroke="black" fill="none" stroke-width="6.0" stroke-linecap="round" stroke-linejoin="round" />
</svg>