<svg xmlns="http://www.w3.org/2000/svg" width="300" height="300" viewBox="0 0 300 300">
<path d="M 147.5 128.75 L 147.5 127.5 L 146.25 127.5 L 146.25 127.5 L 146.25 127.5 L 146.25 128.75 L 146.25 138.75 L 146.25 157.5 L 146.25 181.25 L 146.25 197.5 L 147.5 201.25 L 148.75 201.25 L 148.75 201.25 " stroke="black" fill="none" stroke-width="6.0" stroke-linecap="round" stroke-linejoin="round" />
<path d="M 145.0 240.0 L 143.75 238.75 L 143.75 238.75 L 143.75 237.5 L 146.25 237.5 L 148.75 237.5 L 151.25 238.75 L 152.5 241.25 L 152.5 242.5 L 150.0 245.0 L 147.5 245.0 L 143.75 245.0 L 142.5 241.25 L 142.5 236.25 L 142.5 231.25 L 146.25 228.75 L 148.75 228.75 L 151.25 230.0 L 152.5 235.0 L 152.5 238.75 L 150.0 242.5 L 146.25 243.75 L 143.75 245.0 L 141.25 245.0 L 140.0 242.5 L 141.25 238.75 L 143.75 236.25 L 147.5 235.0 L 150.0 235.0 L 152.5 236.25 L 153.75 240.0 L 153.75 243.75 L 151.25 246.25 L 148.75 246.25 L 146.25 246.25 L 146.25 242.5 L 146.25 240.0 L 146.25 237.5 L 147.5 236.25 L 148.75 238.75 L 148.75 240.0 " stroke="black" fill="none" stroke-width="6.0" stroke-linecap="round" stroke-linejoin="round" />
</svg>