<svg xmlns="http://www.w3.org/2000/svg" width="300" height="300" viewBox="0 0 300 300">
<path d="M 61.25 62.5 L 61.25 62.5 L 58.75 62.5 L 57.5 68.75 L 56.25 87.5 L 55.0 110.0 L 55.0 125.0 L 56.25 127.5 L 57.5 127.5 L 57.5 125.0 L 57.5 125.0 L 57.5 123.75 L 58.75 123.75 L 60.0 123.75 L 63.75 123.75 L 70.0 123.75 L 78.75 123.75 L 92.5 123.75 L 108.75 123.75 L 130.0 122.5 L 148.75 118.75 L 165.0 116.25 L 182.5 115.0 L 195.0 115.0 L 203.75 115.0 L 208.75 116.25 L 210.0 116.25 L 210.0 116.25 L 210.0 116.25 L 210.0 116.25 L 211.25 116.25 L 210.0 116.25 " stroke="black" fill="none" stroke-width="6.0" stroke-linecap="round" stroke-linejoin="round" />
</svg>