<svg xmlns="http://www.w3.org/2000/svg" width="300" height="300" viewBox="0 0 300 300">
<path d="M 140.0 103.75 L 138.75 103.75 L 136.25 103.75 L 135.0 103.75 L 133.75 103.75 L 131.25 103.75 L 130.0 103.75 L 126.25 105.0 L 122.5 108.75 L 117.5 113.75 L 113.75 121.25 L 110.0 127.5 L 107.5 135.0 L 106.25 141.25 L 105.0 150.0 L 103.75 158.75 L 103.75 167.5 L 103.75 175.0 L 103.75 183.75 L 103.75 191.25 L 103.75 198.75 L 105.0 203.75 L 107.5 207.5 L 111.25 211.25 L 116.25 215.0 L 123.75 218.75 L 132.5 222.5 L 140.0 225.0 L 147.5 226.25 L 152.5 227.5 L 158.75 225.0 L 165.0 221.25 L 172.5 215.0 L 181.25 208.75 L 188.75 202.5 L 195.0 197.5 L 198.75 190.0 L 201.25 183.75 L 201.25 176.25 L 201.25 166.25 L 201.25 155.0 L 198.75 143.75 L 196.25 133.75 L 191.25 126.25 L 186.25 120.0 L 178.75 113.75 L 171.25 108.75 L 163.75 105.0 L 157.5 103.75 L 151.25 103.75 L 147.5 105.0 L 142.5 106.25 L 138.75 111.25 L 133.75 117.5 " stroke="black" fill="none" stroke-width="6.0" stroke-linecap="round" stroke-linejoin="round" />
</svg>