<svg xmlns="http://www.w3.org/2000/svg" width="300" height="300" viewBox="0 0 300 300">
<path d="M 155.0 85.0 L 153.75 85.0 L 152.5 83.75 L 151.25 83.75 L 151.25 82.5 L 151.25 82.5 L 151.25 82.5 L 151.25 85.0 L 152.5 96.25 L 153.75 121.25 L 156.25 160.0 L 156.25 198.75 L 158.75 223.75 L 160.0 242.5 L 160.0 252.5 L 160.0 257.5 L 160.0 258.75 L 160.0 258.75 L 158.75 256.25 L 156.25 248.75 L 153.75 242.5 " stroke="black" fill="none" stroke-width="6.0" stroke-linecap="round" stroke-linejoin="round" />
<path d="M 152.5 85.0 L 152.5 85.0 L 151.25 83.75 L 151.25 82.5 L 150.0 81.25 L 148.75 82.5 L 142.5 92.5 L 131.25 110.0 L 117.5 132.5 L 108.75 142.5 L 108.75 142.5 L 111.25 135.0 L 115.0 127.5 " stroke="black" fill="none" stroke-width="6.0" stroke-linecap="round" stroke-linejoin="round" />
<path d="M 146.25 87.5 L 146.25 87.5 L 145.0 86.25 L 145.0 85.0 L 145.0 83.75 L 145.0 83.75 L 145.0 83.75 L 147.5 83.75 L 150.0 86.25 L 152.5 88.75 L 156.25 92.5 L 161.25 97.5 L 170.0 105.0 L 180.0 115.0 L 191.25 126.25 L 198.75 135.0 L 201.25 140.0 L 200.0 145.0 " stroke="black" fill="none" stroke-width="6.0" stroke-linecap="round" stroke-linejoin="round" />
</svg>