<svg xmlns="http://www.w3.org/2000/svg" width="300" height="300" viewBox="0 0 300 300">
<path d="M 60.0 70.0 L 60.0 70.0 L 60.0 70.0 L 60.0 68.75 L 65.0 68.75 L 72.5 70.0 L 80.0 75.0 L 83.75 83.75 L 85.0 95.0 L 83.75 107.5 L 81.25 121.25 L 81.25 133.75 L 80.0 145.0 L 81.25 153.75 L 85.0 161.25 L 90.0 167.5 L 97.5 172.5 L 105.0 176.25 L 112.5 177.5 L 117.5 177.5 L 120.0 177.5 L 120.0 176.25 L 120.0 176.25 L 117.5 176.25 L 113.75 176.25 L 110.0 176.25 L 106.25 178.75 L 102.5 181.25 L 98.75 186.25 L 96.25 193.75 L 95.0 202.5 L 95.0 211.25 L 95.0 220.0 L 96.25 230.0 L 97.5 238.75 L 97.5 245.0 L 97.5 247.5 L 96.25 248.75 L 93.75 251.25 L 90.0 253.75 L 85.0 257.5 L 78.75 260.0 L 65.0 261.25 " stroke="black" fill="none" stroke-width="6.0" stroke-linecap="round" stroke-linejoin="round" />
</svg>