<svg xmlns="http://www.w3.org/2000/svg" width="300" height="300" viewBox="0 0 300 300">
<path d="M 113.75 107.5 L 113.75 107.5 L 108.75 108.75 L 105.0 117.5 L 101.25 147.5 L 96.25 191.25 L 91.25 227.5 L 86.25 248.75 L 86.25 251.25 L 87.5 240.0 " stroke="black" fill="none" stroke-width="6.0" stroke-linecap="round" stroke-linejoin="round" />
<path d="M 101.25 136.25 L 101.25 135.0 L 101.25 133.75 L 102.5 136.25 L 110.0 151.25 L 126.25 180.0 L 141.25 200.0 L 153.75 203.75 L 167.5 196.25 L 185.0 178.75 L 200.0 156.25 L 211.25 136.25 L 217.5 122.5 L 221.25 113.75 L 221.25 111.25 L 220.0 111.25 L 218.75 113.75 L 215.0 122.5 L 211.25 138.75 L 208.75 162.5 L 208.75 192.5 L 210.0 212.5 L 215.0 223.75 L 220.0 227.5 L 222.5 228.75 L 223.75 230.0 L 223.75 230.0 L 220.0 230.0 " stroke="black" fill="none" stroke-width="6.0" stroke-linecap="round" stroke-linejoin="round" />
</svg>