<svg xmlns="http://www.w3.org/2000/svg" width="300" height="300" viewBox="0 0 300 300">
<path d="M 105.0 98.75 L 105.0 98.75 L 105.0 97.5 L 105.0 96.25 L 105.0 95.0 L 105.0 95.0 L 105.0 93.75 L 105.0 93.75 L 105.0 93.75 L 105.0 96.25 L 105.0 100.0 L 105.0 105.0 L 105.0 112.5 L 105.0 120.0 L 105.0 127.5 L 105.0 135.0 L 105.0 140.0 L 105.0 145.0 L 106.25 150.0 L 107.5 155.0 L 108.75 158.75 L 110.0 163.75 L 110.0 170.0 L 111.25 176.25 L 111.25 182.5 L 112.5 187.5 L 112.5 191.25 L 113.75 195.0 L 115.0 198.75 L 117.5 202.5 L 120.0 206.25 L 122.5 211.25 L 125.0 213.75 L 128.75 217.5 L 133.75 221.25 L 137.5 225.0 L 140.0 226.25 L 145.0 228.75 L 147.5 230.0 L 151.25 230.0 L 155.0 230.0 L 158.75 228.75 L 163.75 226.25 L 168.75 225.0 L 175.0 222.5 L 181.25 218.75 L 186.25 216.25 L 188.75 211.25 L 192.5 206.25 L 195.0 198.75 L 197.5 191.25 L 200.0 182.5 L 200.0 171.25 L 200.0 158.75 L 200.0 143.75 L 200.0 128.75 L 200.0 115.0 L 200.0 102.5 L 200.0 93.75 L 200.0 88.75 L 200.0 87.5 L 200.0 87.5 L 200.0 87.5 L 200.0 87.5 L 200.0 88.75 L 200.0 90.0 " stroke="black" fill="none" stroke-width="6.0" stroke-linecap="round" stroke-linejoin="round" />
</svg>