<svg xmlns="http://www.w3.org/2000/svg" width="300" height="300" viewBox="0 0 300 300">
<path d="M 98.75 102.5 L 98.75 98.75 L 96.25 93.75 L 96.25 91.25 L 100.0 95.0 L 113.75 113.75 L 131.25 142.5 L 143.75 163.75 L 150.0 173.75 L 152.5 176.25 L 152.5 176.25 L 152.5 171.25 L 151.25 170.0 " stroke="black" fill="none" stroke-width="6.0" stroke-linecap="round" stroke-linejoin="round" />
<path d="M 200.0 93.75 L 200.0 92.5 L 198.75 91.25 L 196.25 91.25 L 190.0 97.5 L 177.5 112.5 L 162.5 131.25 L 152.5 146.25 L 148.75 152.5 L 148.75 156.25 L 148.75 157.5 L 148.75 157.5 L 150.0 157.5 L 150.0 157.5 L 150.0 157.5 L 150.0 157.5 L 150.0 157.5 L 150.0 157.5 L 150.0 157.5 L 150.0 157.5 L 150.0 157.5 L 150.0 157.5 L 150.0 160.0 L 150.0 170.0 L 150.0 196.25 L 151.25 232.5 L 152.5 258.75 L 153.75 266.25 L 153.75 267.5 L 155.0 265.0 L 155.0 257.5 L 155.0 245.0 " stroke="black" fill="none" stroke-width="6.0" stroke-linecap="round" stroke-linejoin="round" />
</svg>