<svg xmlns="http://www.w3.org/2000/svg" width="300" height="300" viewBox="0 0 300 300">
<path d="M 136.25 120.0 L 131.25 122.5 L 128.75 122.5 L 131.25 123.75 L 140.0 123.75 L 151.25 123.75 L 161.25 123.75 L 168.75 128.75 L 171.25 143.75 L 171.25 172.5 L 168.75 202.5 L 168.75 216.25 L 168.75 221.25 L 170.0 220.0 L 170.0 218.75 L 168.75 217.5 L 166.25 217.5 " stroke="black" fill="none" stroke-width="6.0" stroke-linecap="round" stroke-linejoin="round" />
<path d="M 108.75 225.0 L 103.75 226.25 L 98.75 226.25 L 98.75 227.5 L 107.5 227.5 L 132.5 226.25 L 162.5 223.75 L 193.75 221.25 L 213.75 220.0 L 222.5 220.0 L 225.0 220.0 L 222.5 220.0 " stroke="black" fill="none" stroke-width="6.0" stroke-linecap="round" stroke-linejoin="round" />
</svg>