<svg xmlns="http://www.w3.org/2000/svg" width="300" height="300" viewBox="0 0 300 300">
<path d="M 111.25 100.0 L 111.25 101.25 L 110.0 102.5 L 108.75 107.5 L 108.75 116.25 L 112.5 127.5 L 116.25 132.5 L 117.5 132.5 " stroke="black" fill="none" stroke-width="6.0" stroke-linecap="round" stroke-linejoin="round" />
<path d="M 112.5 90.0 L 111.25 91.25 L 106.25 92.5 L 105.0 93.75 L 112.5 93.75 L 132.5 91.25 L 156.25 87.5 L 182.5 85.0 L 201.25 85.0 L 208.75 88.75 L 207.5 91.25 L 203.75 95.0 L 200.0 97.5 L 192.5 103.75 L 186.25 115.0 L 176.25 140.0 L 166.25 178.75 L 158.75 215.0 L 158.75 237.5 L 162.5 248.75 L 167.5 253.75 L 170.0 257.5 L 171.25 258.75 L 171.25 258.75 L 171.25 258.75 L 171.25 257.5 L 170.0 252.5 " stroke="black" fill="none" stroke-width="6.0" stroke-linecap="round" stroke-linejoin="round" />
</svg>