<svg xmlns="http://www.w3.org/2000/svg" width="300" height="300" viewBox="0 0 300 300">
<path d="M 158.75 100.0 L 158.75 100.0 L 158.75 98.75 L 156.25 100.0 L 148.75 116.25 L 136.25 152.5 L 118.75 205.0 L 106.25 246.25 L 101.25 265.0 L 102.5 266.25 L 103.75 256.25 " stroke="black" fill="none" stroke-width="6.0" stroke-linecap="round" stroke-linejoin="round" />
<path d="M 155.0 111.25 L 155.0 111.25 L 157.5 110.0 L 158.75 107.5 L 161.25 106.25 L 163.75 105.0 L 170.0 108.75 L 178.75 127.5 L 187.5 167.5 L 196.25 215.0 L 202.5 243.75 L 203.75 255.0 L 202.5 260.0 L 200.0 260.0 L 193.75 255.0 L 191.25 252.5 " stroke="black" fill="none" stroke-width="6.0" stroke-linecap="round" stroke-linejoin="round" />
<path d="M 128.75 196.25 L 128.75 196.25 L 126.25 196.25 L 127.5 196.25 L 142.5 195.0 L 171.25 188.75 L 200.0 181.25 L 208.75 177.5 " stroke="black" fill="none" stroke-width="6.0" stroke-linecap="round" stroke-linejoin="round" />
</svg>