<svg xmlns="http://www.w3.org/2000/svg" width="300" height="300" viewBox="0 0 300 300">
<path d="M 140.0 95.0 L 136.25 95.0 L 133.75 96.25 L 132.5 97.5 L 135.0 98.75 L 146.25 98.75 L 166.25 93.75 L 183.75 87.5 L 191.25 85.0 L 191.25 83.75 L 181.25 85.0 L 168.75 88.75 L 155.0 91.25 L 143.75 95.0 L 135.0 96.25 L 131.25 97.5 L 131.25 101.25 L 132.5 113.75 L 133.75 148.75 L 130.0 197.5 L 123.75 235.0 L 118.75 253.75 L 117.5 256.25 L 116.25 256.25 L 115.0 248.75 L 115.0 237.5 L 116.25 228.75 " stroke="black" fill="none" stroke-width="6.0" stroke-linecap="round" stroke-linejoin="round" />
<path d="M 137.5 166.25 L 135.0 167.5 L 133.75 168.75 L 140.0 170.0 L 155.0 171.25 L 180.0 167.5 L 202.5 160.0 L 213.75 157.5 L 215.0 156.25 L 213.75 156.25 " stroke="black" fill="none" stroke-width="6.0" stroke-linecap="round" stroke-linejoin="round" />
</svg>