<svg xmlns="http://www.w3.org/2000/svg" width="300" height="300" viewBox="0 0 300 300">
<path d="M 105.0 102.5 L 105.0 102.5 L 105.0 102.5 L 106.25 103.75 L 116.25 117.5 L 133.75 138.75 L 146.25 158.75 L 153.75 167.5 L 155.0 170.0 L 156.25 170.0 L 156.25 170.0 L 155.0 168.75 L 152.5 163.75 L 151.25 162.5 " stroke="black" fill="none" stroke-width="6.0" stroke-linecap="round" stroke-linejoin="round" />
<path d="M 202.5 95.0 L 202.5 93.75 L 202.5 93.75 L 202.5 93.75 L 197.5 97.5 L 188.75 110.0 L 175.0 125.0 L 161.25 138.75 L 153.75 146.25 L 151.25 148.75 L 151.25 150.0 L 151.25 150.0 L 152.5 152.5 L 153.75 157.5 L 155.0 168.75 L 156.25 186.25 L 156.25 207.5 L 157.5 230.0 L 157.5 243.75 L 157.5 247.5 L 157.5 247.5 L 157.5 245.0 L 158.75 241.25 L 158.75 228.75 L 157.5 218.75 " stroke="black" fill="none" stroke-width="6.0" stroke-linecap="round" stroke-linejoin="round" />
<path d="M 108.75 165.0 L 103.75 165.0 L 101.25 165.0 L 100.0 166.25 L 107.5 166.25 L 125.0 167.5 L 146.25 167.5 L 170.0 168.75 L 188.75 170.0 L 196.25 170.0 L 197.5 170.0 L 197.5 170.0 L 193.75 171.25 L 187.5 172.5 L 185.0 172.5 " stroke="black" fill="none" stroke-width="6.0" stroke-linecap="round" stroke-linejoin="round" />
<path d="M 113.75 195.0 L 111.25 196.25 L 108.75 196.25 L 108.75 197.5 L 115.0 198.75 L 128.75 200.0 L 147.5 200.0 L 167.5 198.75 L 183.75 195.0 L 195.0 193.75 L 200.0 192.5 L 201.25 192.5 L 202.5 192.5 L 201.25 193.75 " stroke="black" fill="none" stroke-width="6.0" stroke-linecap="round" stroke-linejoin="round" />
</svg>