<svg xmlns="http://www.w3.org/2000/svg" width="300" height="300" viewBox="0 0 300 300">
<path d="M 246.25 73.75 L 241.25 72.5 L 237.5 71.25 L 233.75 71.25 L 231.25 70.0 L 228.75 70.0 L 225.0 70.0 L 222.5 73.75 L 217.5 81.25 L 213.75 92.5 L 212.5 108.75 L 212.5 128.75 L 216.25 143.75 L 218.75 155.0 L 220.0 163.75 L 217.5 171.25 L 212.5 177.5 L 207.5 181.25 L 203.75 182.5 L 200.0 182.5 L 198.75 182.5 L 197.5 181.25 L 197.5 181.25 L 197.5 180.0 L 197.5 180.0 L 200.0 181.25 L 205.0 183.75 L 208.75 186.25 L 213.75 188.75 L 218.75 193.75 L 222.5 198.75 L 223.75 205.0 L 223.75 213.75 L 221.25 225.0 L 218.75 236.25 L 218.75 245.0 L 218.75 251.25 L 221.25 255.0 L 225.0 258.75 L 230.0 260.0 L 236.25 260.0 L 242.5 260.0 L 251.25 258.75 L 256.25 255.0 " stroke="black" fill="none" stroke-width="6.0" stroke-linecap="round" stroke-linejoin="round" />
</svg>