<svg xmlns="http://www.w3.org/2000/svg" width="300" height="300" viewBox="0 0 300 300">
<path d="M 100.0 108.75 L 96.25 108.75 L 93.75 110.0 L 91.25 120.0 L 90.0 138.75 L 90.0 158.75 L 95.0 168.75 L 105.0 170.0 L 118.75 161.25 L 130.0 146.25 L 135.0 133.75 L 137.5 121.25 L 135.0 110.0 L 126.25 103.75 L 115.0 102.5 L 103.75 107.5 L 96.25 115.0 L 95.0 122.5 L 97.5 127.5 " stroke="black" fill="none" stroke-width="6.0" stroke-linecap="round" stroke-linejoin="round" />
<path d="M 198.75 77.5 L 197.5 77.5 L 193.75 77.5 L 187.5 88.75 L 168.75 128.75 L 147.5 178.75 L 127.5 223.75 L 110.0 258.75 L 105.0 273.75 L 106.25 277.5 L 106.25 273.75 " stroke="black" fill="none" stroke-width="6.0" stroke-linecap="round" stroke-linejoin="round" />
<path d="M 177.5 191.25 L 176.25 192.5 L 175.0 196.25 L 175.0 205.0 L 181.25 216.25 L 190.0 222.5 L 202.5 222.5 L 213.75 211.25 L 221.25 195.0 L 225.0 181.25 L 221.25 168.75 L 210.0 161.25 L 198.75 158.75 L 183.75 162.5 L 172.5 173.75 L 168.75 185.0 L 176.25 193.75 L 178.75 195.0 " stroke="black" fill="none" stroke-width="6.0" stroke-linecap="round" stroke-linejoin="round" />
</svg>