<svg xmlns="http://www.w3.org/2000/svg" width="300" height="300" viewBox="0 0 300 300">
<path d="M 220.0 91.25 L 220.0 91.25 L 218.75 91.25 L 216.25 91.25 L 210.0 93.75 L 198.75 101.25 L 180.0 113.75 L 155.0 126.25 L 135.0 136.25 L 115.0 145.0 L 95.0 153.75 L 83.75 161.25 L 73.75 167.5 L 71.25 170.0 L 71.25 170.0 L 71.25 170.0 L 75.0 171.25 L 80.0 173.75 L 87.5 177.5 L 95.0 181.25 L 105.0 186.25 L 118.75 193.75 L 136.25 203.75 L 153.75 216.25 L 173.75 230.0 L 192.5 238.75 L 206.25 242.5 L 215.0 245.0 L 217.5 245.0 L 218.75 245.0 L 218.75 245.0 L 218.75 245.0 L 218.75 243.75 " stroke="black" fill="none" stroke-width="6.0" stroke-linecap="round" stroke-linejoin="round" />
</svg>