<svg xmlns="http://www.w3.org/2000/svg" width="300" height="300" viewBox="0 0 300 300">
<path d="M 145.0 145.0 L 141.25 145.0 L 133.75 143.75 L 132.5 143.75 L 136.25 143.75 L 150.0 146.25 L 173.75 146.25 L 192.5 146.25 L 203.75 146.25 L 205.0 147.5 L 195.0 155.0 L 176.25 167.5 L 156.25 185.0 L 138.75 202.5 L 122.5 217.5 L 113.75 230.0 L 112.5 236.25 L 115.0 237.5 L 120.0 237.5 L 123.75 237.5 L 126.25 237.5 L 128.75 237.5 L 128.75 237.5 L 130.0 237.5 L 130.0 237.5 L 130.0 237.5 L 128.75 237.5 L 128.75 237.5 L 128.75 237.5 L 128.75 237.5 L 128.75 237.5 L 128.75 237.5 L 128.75 237.5 L 131.25 237.5 L 143.75 237.5 L 167.5 237.5 L 191.25 240.0 " stroke="black" fill="none" stroke-width="6.0" stroke-linecap="round" stroke-linejoin="round" />
</svg>