<svg xmlns="http://www.w3.org/2000/svg" width="300" height="300" viewBox="0 0 300 300">
<path d="M 193.75 100.0 L 190.0 97.5 L 185.0 95.0 L 178.75 93.75 L 172.5 93.75 L 163.75 95.0 L 152.5 100.0 L 140.0 108.75 L 126.25 127.5 L 112.5 152.5 L 110.0 177.5 L 117.5 197.5 L 133.75 210.0 L 151.25 218.75 L 170.0 220.0 L 191.25 213.75 L 205.0 201.25 L 208.75 192.5 L 210.0 185.0 L 210.0 180.0 L 206.25 178.75 L 203.75 178.75 " stroke="black" fill="none" stroke-width="6.0" stroke-linecap="round" stroke-linejoin="round" />
<path d="M 180.0 167.5 L 176.25 170.0 L 172.5 171.25 L 183.75 171.25 L 200.0 170.0 L 215.0 165.0 L 226.25 160.0 L 230.0 158.75 L 228.75 158.75 L 225.0 167.5 L 222.5 180.0 L 221.25 196.25 L 221.25 212.5 L 221.25 228.75 L 222.5 241.25 L 222.5 247.5 L 222.5 248.75 L 222.5 248.75 L 222.5 246.25 L 221.25 243.75 " stroke="black" fill="none" stroke-width="6.0" stroke-linecap="round" stroke-linejoin="round" />
</svg>