<svg xmlns="http://www.w3.org/2000/svg" width="300" height="300" viewBox="0 0 300 300">
<path d="M 126.25 122.5 L 126.25 118.75 L 127.5 113.75 L 130.0 110.0 L 133.75 110.0 L 136.25 123.75 L 133.75 150.0 L 127.5 182.5 L 120.0 211.25 L 116.25 226.25 L 117.5 228.75 L 121.25 228.75 L 131.25 228.75 L 143.75 228.75 L 161.25 226.25 L 183.75 222.5 L 202.5 221.25 L 212.5 220.0 L 217.5 218.75 L 218.75 217.5 L 218.75 216.25 L 217.5 215.0 L 216.25 211.25 L 213.75 207.5 L 212.5 203.75 L 211.25 200.0 L 208.75 195.0 L 208.75 192.5 L 207.5 190.0 " stroke="black" fill="none" stroke-width="6.0" stroke-linecap="round" stroke-linejoin="round" />
</svg>