<svg xmlns="http://www.w3.org/2000/svg" width="300" height="300" viewBox="0 0 300 300">
<path d="M 38.75 113.75 L 33.75 115.0 L 31.25 116.25 L 35.0 116.25 L 47.5 116.25 L 63.75 120.0 L 75.0 128.75 L 76.25 135.0 " stroke="black" fill="none" stroke-width="6.0" stroke-linecap="round" stroke-linejoin="round" />
<path d="M 28.75 205.0 L 27.5 206.25 L 26.25 210.0 L 32.5 208.75 L 50.0 198.75 L 76.25 177.5 L 95.0 151.25 " stroke="black" fill="none" stroke-width="6.0" stroke-linecap="round" stroke-linejoin="round" />
<path d="M 100.0 86.25 L 100.0 86.25 L 100.0 86.25 L 100.0 86.25 L 102.5 90.0 L 110.0 102.5 L 116.25 117.5 L 117.5 127.5 " stroke="black" fill="none" stroke-width="6.0" stroke-linecap="round" stroke-linejoin="round" />
<path d="M 126.25 86.25 L 126.25 82.5 L 126.25 81.25 L 130.0 82.5 L 137.5 95.0 L 146.25 113.75 " stroke="black" fill="none" stroke-width="6.0" stroke-linecap="round" stroke-linejoin="round" />
<path d="M 205.0 81.25 L 206.25 81.25 L 207.5 80.0 L 207.5 78.75 L 208.75 80.0 L 210.0 87.5 L 212.5 97.5 L 218.75 103.75 L 228.75 102.5 L 238.75 92.5 L 241.25 82.5 L 236.25 73.75 L 223.75 72.5 L 212.5 72.5 L 205.0 77.5 L 203.75 80.0 " stroke="black" fill="none" stroke-width="6.0" stroke-linecap="round" stroke-linejoin="round" />
</svg>