<svg xmlns="http://www.w3.org/2000/svg" width="300" height="300" viewBox="0 0 300 300">
<path d="M 108.75 136.25 L 108.75 135.0 L 107.5 133.75 L 107.5 140.0 L 110.0 168.75 L 111.25 203.75 L 112.5 222.5 L 112.5 223.75 L 110.0 217.5 " stroke="black" fill="none" stroke-width="6.0" stroke-linecap="round" stroke-linejoin="round" />
<path d="M 111.25 122.5 L 108.75 117.5 L 108.75 113.75 L 116.25 110.0 L 132.5 106.25 L 152.5 106.25 L 168.75 105.0 L 177.5 105.0 L 180.0 112.5 L 181.25 132.5 L 182.5 165.0 L 182.5 198.75 L 182.5 215.0 L 183.75 220.0 L 183.75 220.0 L 183.75 220.0 L 183.75 216.25 L 178.75 208.75 " stroke="black" fill="none" stroke-width="6.0" stroke-linecap="round" stroke-linejoin="round" />
<path d="M 127.5 217.5 L 125.0 217.5 L 118.75 220.0 L 117.5 221.25 L 126.25 221.25 L 143.75 220.0 L 163.75 217.5 L 172.5 215.0 " stroke="black" fill="none" stroke-width="6.0" stroke-linecap="round" stroke-linejoin="round" />
</svg>