<svg xmlns="http://www.w3.org/2000/svg" width="300" height="300" viewBox="0 0 300 300">
<path d="M 203.75 91.25 L 203.75 91.25 L 203.75 90.0 L 203.75 88.75 L 205.0 83.75 L 205.0 78.75 L 205.0 72.5 L 198.75 67.5 L 188.75 67.5 L 173.75 80.0 L 161.25 105.0 L 156.25 138.75 L 158.75 170.0 L 162.5 195.0 L 163.75 211.25 L 158.75 226.25 L 150.0 237.5 L 140.0 243.75 L 128.75 242.5 L 121.25 228.75 L 120.0 222.5 " stroke="black" fill="none" stroke-width="6.0" stroke-linecap="round" stroke-linejoin="round" />
<path d="M 126.25 161.25 L 120.0 162.5 L 117.5 162.5 L 122.5 163.75 L 141.25 163.75 L 166.25 160.0 L 196.25 157.5 L 213.75 155.0 " stroke="black" fill="none" stroke-width="6.0" stroke-linecap="round" stroke-linejoin="round" />
</svg>