<svg xmlns="http://www.w3.org/2000/svg" width="300" height="300" viewBox="0 0 300 300">
<path d="M 181.25 137.5 L 175.0 133.75 L 168.75 131.25 L 160.0 131.25 L 150.0 135.0 L 141.25 146.25 L 131.25 163.75 L 122.5 188.75 L 121.25 203.75 L 128.75 207.5 L 142.5 203.75 L 156.25 190.0 L 171.25 171.25 L 183.75 150.0 L 188.75 135.0 L 190.0 130.0 L 186.25 133.75 L 177.5 155.0 L 168.75 190.0 L 161.25 238.75 L 160.0 276.25 L 166.25 288.75 L 173.75 290.0 L 180.0 281.25 L 186.25 268.75 L 188.75 257.5 L 190.0 248.75 L 188.75 241.25 L 182.5 236.25 L 175.0 233.75 L 168.75 232.5 L 166.25 232.5 L 167.5 231.25 L 180.0 221.25 L 200.0 205.0 L 210.0 198.75 " stroke="black" fill="none" stroke-width="6.0" stroke-linecap="round" stroke-linejoin="round" />
</svg>