<svg xmlns="http://www.w3.org/2000/svg" width="300" height="300" viewBox="0 0 300 300">
<path d="M 107.5 113.75 L 102.5 115.0 L 100.0 116.25 L 108.75 117.5 L 133.75 113.75 L 160.0 106.25 L 185.0 97.5 L 191.25 95.0 L 182.5 96.25 L 173.75 98.75 " stroke="black" fill="none" stroke-width="6.0" stroke-linecap="round" stroke-linejoin="round" />
<path d="M 132.5 112.5 L 127.5 116.25 L 123.75 122.5 L 123.75 143.75 L 125.0 186.25 L 126.25 223.75 L 132.5 246.25 L 146.25 250.0 L 166.25 245.0 L 192.5 233.75 L 210.0 222.5 L 213.75 215.0 L 210.0 210.0 L 203.75 207.5 " stroke="black" fill="none" stroke-width="6.0" stroke-linecap="round" stroke-linejoin="round" />
<path d="M 132.5 190.0 L 126.25 190.0 L 125.0 190.0 L 140.0 182.5 L 168.75 168.75 L 200.0 153.75 L 212.5 146.25 " stroke="black" fill="none" stroke-width="6.0" stroke-linecap="round" stroke-linejoin="round" />
</svg>