<svg xmlns="http://www.w3.org/2000/svg" width="300" height="300" viewBox="0 0 300 300">
<path d="M 130.0 126.25 L 123.75 123.75 L 121.25 122.5 L 121.25 122.5 L 131.25 122.5 L 148.75 120.0 L 170.0 117.5 L 187.5 116.25 L 196.25 116.25 L 197.5 123.75 L 197.5 143.75 L 195.0 177.5 L 195.0 211.25 L 197.5 226.25 L 198.75 230.0 L 198.75 231.25 L 198.75 231.25 L 197.5 226.25 L 193.75 221.25 " stroke="black" fill="none" stroke-width="6.0" stroke-linecap="round" stroke-linejoin="round" />
<path d="M 135.0 171.25 L 131.25 171.25 L 127.5 171.25 L 127.5 172.5 L 137.5 175.0 L 156.25 175.0 L 178.75 172.5 L 195.0 170.0 L 197.5 170.0 " stroke="black" fill="none" stroke-width="6.0" stroke-linecap="round" stroke-linejoin="round" />
<path d="M 118.75 236.25 L 113.75 238.75 L 111.25 240.0 L 120.0 240.0 L 140.0 240.0 L 165.0 238.75 L 192.5 237.5 L 200.0 237.5 " stroke="black" fill="none" stroke-width="6.0" stroke-linecap="round" stroke-linejoin="round" />
</svg>