<svg xmlns="http://www.w3.org/2000/svg" width="300" height="300" viewBox="0 0 300 300">
<path d="M 146.25 88.75 L 143.75 87.5 L 141.25 87.5 L 141.25 87.5 L 143.75 93.75 L 148.75 103.75 L 152.5 115.0 L 152.5 117.5 " stroke="black" fill="none" stroke-width="6.0" stroke-linecap="round" stroke-linejoin="round" />
<path d="M 116.25 115.0 L 116.25 115.0 L 113.75 115.0 L 112.5 116.25 L 113.75 128.75 L 117.5 151.25 L 120.0 167.5 L 121.25 172.5 L 121.25 170.0 " stroke="black" fill="none" stroke-width="6.0" stroke-linecap="round" stroke-linejoin="round" />
<path d="M 120.0 141.25 L 118.75 140.0 L 117.5 138.75 L 120.0 138.75 L 135.0 136.25 L 156.25 132.5 L 182.5 128.75 L 196.25 126.25 L 198.75 128.75 L 196.25 142.5 L 188.75 165.0 L 180.0 191.25 L 173.75 210.0 L 167.5 220.0 L 161.25 221.25 L 152.5 220.0 " stroke="black" fill="none" stroke-width="6.0" stroke-linecap="round" stroke-linejoin="round" />
</svg>