<svg xmlns="http://www.w3.org/2000/svg" width="300" height="300" viewBox="0 0 300 300">
<path d="M 105.0 142.5 L 103.75 142.5 L 101.25 143.75 L 116.25 142.5 L 142.5 135.0 L 167.5 122.5 L 178.75 113.75 L 173.75 108.75 L 163.75 108.75 " stroke="black" fill="none" stroke-width="6.0" stroke-linecap="round" stroke-linejoin="round" />
<path d="M 140.0 107.5 L 138.75 107.5 L 136.25 107.5 L 136.25 110.0 L 145.0 127.5 L 152.5 165.0 L 151.25 207.5 L 145.0 228.75 L 138.75 236.25 L 130.0 237.5 L 118.75 233.75 L 117.5 231.25 " stroke="black" fill="none" stroke-width="6.0" stroke-linecap="round" stroke-linejoin="round" />
<path d="M 117.5 178.75 L 115.0 177.5 L 113.75 177.5 L 112.5 177.5 L 112.5 187.5 L 108.75 203.75 L 103.75 218.75 L 101.25 221.25 " stroke="black" fill="none" stroke-width="6.0" stroke-linecap="round" stroke-linejoin="round" />
<path d="M 175.0 170.0 L 176.25 170.0 L 177.5 170.0 L 182.5 173.75 L 191.25 185.0 L 198.75 197.5 L 203.75 207.5 L 205.0 211.25 " stroke="black" fill="none" stroke-width="6.0" stroke-linecap="round" stroke-linejoin="round" />
</svg>