<svg xmlns="http://www.w3.org/2000/svg" width="300" height="300" viewBox="0 0 300 300">
<path d="M 108.75 100.0 L 108.75 100.0 L 106.25 100.0 L 106.25 111.25 L 108.75 148.75 L 112.5 195.0 L 115.0 220.0 L 116.25 231.25 L 120.0 232.5 L 121.25 223.75 " stroke="black" fill="none" stroke-width="6.0" stroke-linecap="round" stroke-linejoin="round" />
<path d="M 190.0 88.75 L 186.25 88.75 L 180.0 96.25 L 165.0 117.5 L 150.0 143.75 L 136.25 165.0 L 125.0 181.25 L 117.5 190.0 L 115.0 192.5 L 115.0 192.5 " stroke="black" fill="none" stroke-width="6.0" stroke-linecap="round" stroke-linejoin="round" />
<path d="M 151.25 150.0 L 148.75 150.0 L 146.25 150.0 L 143.75 150.0 L 143.75 150.0 L 143.75 150.0 L 143.75 150.0 L 145.0 150.0 L 145.0 150.0 L 145.0 150.0 L 145.0 150.0 L 146.25 150.0 L 146.25 150.0 L 146.25 150.0 L 146.25 150.0 L 147.5 151.25 L 151.25 153.75 L 156.25 163.75 L 167.5 185.0 L 182.5 208.75 L 193.75 223.75 L 201.25 231.25 L 203.75 238.75 L 203.75 241.25 " stroke="black" fill="none" stroke-width="6.0" stroke-linecap="round" stroke-linejoin="round" />
</svg>