<svg xmlns="http://www.w3.org/2000/svg" width="300" height="300" viewBox="0 0 300 300">
<path d="M 116.25 105.0 L 112.5 105.0 L 105.0 105.0 L 105.0 105.0 L 115.0 105.0 L 137.5 105.0 L 162.5 105.0 L 190.0 105.0 L 205.0 107.5 L 206.25 111.25 L 200.0 118.75 L 186.25 132.5 L 168.75 147.5 L 150.0 168.75 L 132.5 196.25 L 117.5 216.25 L 111.25 230.0 L 108.75 233.75 L 117.5 235.0 L 116.25 236.25 L 125.0 237.5 L 135.0 238.75 L 148.75 240.0 L 165.0 242.5 L 185.0 243.75 L 200.0 243.75 L 207.5 243.75 L 207.5 243.75 L 207.5 242.5 L 202.5 236.25 " stroke="black" fill="none" stroke-width="6.0" stroke-linecap="round" stroke-linejoin="round" />
<path d="M 145.0 160.0 L 138.75 160.0 L 135.0 160.0 L 136.25 160.0 L 146.25 161.25 L 162.5 166.25 L 180.0 175.0 " stroke="black" fill="none" stroke-width="6.0" stroke-linecap="round" stroke-linejoin="round" />
</svg>