<svg xmlns="http://www.w3.org/2000/svg" width="300" height="300" viewBox="0 0 300 300">
<path d="M 130.0 132.5 L 130.0 132.5 L 127.5 132.5 L 126.25 132.5 L 125.0 132.5 L 125.0 132.5 L 125.0 136.25 L 125.0 142.5 L 125.0 152.5 L 123.75 166.25 L 123.75 177.5 L 123.75 186.25 L 123.75 190.0 L 123.75 190.0 L 123.75 191.25 L 125.0 191.25 L 125.0 192.5 L 125.0 192.5 L 125.0 193.75 L 126.25 193.75 L 126.25 195.0 L 126.25 195.0 L 127.5 196.25 L 127.5 196.25 L 127.5 197.5 L 127.5 197.5 L 128.75 197.5 L 128.75 197.5 L 131.25 198.75 L 132.5 198.75 L 136.25 198.75 L 142.5 198.75 L 148.75 198.75 L 157.5 198.75 L 165.0 197.5 L 170.0 197.5 L 173.75 197.5 L 173.75 197.5 L 175.0 196.25 L 175.0 196.25 L 175.0 196.25 L 175.0 195.0 L 175.0 195.0 L 176.25 193.75 L 177.5 193.75 L 177.5 192.5 L 177.5 190.0 L 177.5 186.25 L 177.5 181.25 L 176.25 173.75 L 173.75 166.25 L 172.5 158.75 L 171.25 151.25 L 170.0 146.25 L 168.75 141.25 L 168.75 136.25 L 167.5 133.75 L 166.25 131.25 L 165.0 128.75 L 163.75 127.5 L 161.25 127.5 L 158.75 127.5 L 156.25 127.5 L 151.25 127.5 L 147.5 127.5 L 142.5 127.5 L 137.5 128.75 L 133.75 128.75 L 130.0 130.0 L 127.5 130.0 L 125.0 130.0 L 125.0 130.0 L 125.0 130.0 L 125.0 130.0 L 127.5 130.0 L 131.25 130.0 L 136.25 130.0 L 136.25 130.0 " stroke="black" fill="none" stroke-width="20.0" stroke-linecap="round" stroke-linejoin="round" />
<path d="M 142.5 132.5 L 141.25 132.5 L 138.75 133.75 L 137.5 135.0 L 136.25 135.0 L 135.0 140.0 L 133.75 152.5 L 132.5 171.25 L 131.25 186.25 L 131.25 191.25 L 131.25 190.0 L 133.75 185.0 L 137.5 173.75 L 141.25 162.5 L 143.75 150.0 L 145.0 138.75 L 146.25 131.25 L 146.25 130.0 L 146.25 136.25 L 145.0 152.5 L 145.0 168.75 L 145.0 182.5 L 145.0 186.25 L 145.0 185.0 L 146.25 176.25 L 148.75 163.75 L 151.25 151.25 L 153.75 141.25 L 153.75 135.0 L 153.75 133.75 L 153.75 138.75 L 153.75 153.75 L 152.5 168.75 L 152.5 180.0 L 152.5 182.5 L 152.5 180.0 L 153.75 168.75 L 156.25 156.25 L 157.5 146.25 L 158.75 138.75 L 160.0 136.25 L 160.0 136.25 L 160.0 147.5 L 160.0 160.0 L 161.25 171.25 L 161.25 177.5 L 161.25 178.75 L 161.25 178.75 L 161.25 176.25 L 161.25 176.25 L 161.25 176.25 L 161.25 176.25 L 161.25 176.25 L 161.25 176.25 L 161.25 176.25 L 161.25 176.25 L 162.5 176.25 L 162.5 177.5 L 162.5 180.0 L 162.5 182.5 L 162.5 185.0 L 162.5 185.0 L 162.5 185.0 L 161.25 185.0 L 161.25 183.75 L 160.0 183.75 L 160.0 182.5 L 160.0 182.5 L 160.0 180.0 L 161.25 176.25 L 162.5 170.0 " stroke="black" fill="none" stroke-width="20.0" stroke-linecap="round" stroke-linejoin="round" />
<path d="M 160.0 136.25 L 158.75 136.25 L 158.75 136.25 L 157.5 136.25 L 157.5 136.25 L 157.5 135.0 L 157.5 135.0 L 157.5 135.0 L 157.5 133.75 L 157.5 133.75 L 160.0 132.5 L 161.25 132.5 L 162.5 132.5 L 163.75 131.25 L 165.0 131.25 L 166.25 131.25 L 166.25 130.0 L 167.5 130.0 L 167.5 130.0 L 167.5 130.0 L 165.0 131.25 L 163.75 131.25 L 163.75 131.25 " stroke="black" fill="none" stroke-width="20.0" stroke-linecap="round" stroke-linejoin="round" />
<path d="M 161.25 128.75 L 161.25 128.75 L 158.75 128.75 L 157.5 128.75 L 157.5 128.75 L 158.75 128.75 L 161.25 128.75 L 165.0 128.75 L 167.5 128.75 L 170.0 128.75 L 171.25 128.75 L 172.5 128.75 L 173.75 128.75 L 175.0 128.75 L 175.0 131.25 L 175.0 136.25 L 175.0 145.0 L 173.75 153.75 L 172.5 163.75 L 172.5 171.25 L 172.5 177.5 L 172.5 180.0 L 172.5 181.25 L 172.5 181.25 L 172.5 182.5 L 172.5 182.5 L 171.25 182.5 " stroke="black" fill="none" stroke-width="20.0" stroke-linecap="round" stroke-linejoin="round" />
</svg>