<svg xmlns="http://www.w3.org/2000/svg" width="300" height="300" viewBox="0 0 300 300">
<path d="M 102.5 162.5 L 101.25 162.5 L 98.75 162.5 L 97.5 163.75 L 100.0 165.0 L 112.5 167.5 L 130.0 168.75 L 148.75 168.75 L 165.0 168.75 L 175.0 167.5 L 178.75 166.25 L 180.0 165.0 L 180.0 165.0 L 180.0 165.0 L 177.5 165.0 L 176.25 163.75 " stroke="black" fill="none" stroke-width="6.0" stroke-linecap="round" stroke-linejoin="round" />
<path d="M 153.75 121.25 L 151.25 121.25 L 148.75 121.25 L 147.5 121.25 L 148.75 122.5 L 153.75 127.5 L 162.5 135.0 L 172.5 143.75 L 182.5 151.25 L 190.0 157.5 L 193.75 161.25 L 195.0 162.5 L 195.0 162.5 L 195.0 162.5 L 195.0 162.5 L 193.75 162.5 L 192.5 162.5 L 190.0 166.25 L 183.75 172.5 L 175.0 183.75 L 166.25 197.5 L 158.75 210.0 L 155.0 216.25 L 155.0 217.5 L 155.0 217.5 L 155.0 216.25 L 155.0 216.25 L 153.75 213.75 " stroke="black" fill="none" stroke-width="6.0" stroke-linecap="round" stroke-linejoin="round" />
</svg>