<svg xmlns="http://www.w3.org/2000/svg" width="300" height="300" viewBox="0 0 300 300">
<path d="M 118.75 113.75 L 118.75 113.75 L 118.75 113.75 L 117.5 113.75 L 116.25 117.5 L 113.75 123.75 L 111.25 132.5 L 111.25 143.75 L 110.0 151.25 L 110.0 165.0 L 111.25 177.5 L 113.75 187.5 L 116.25 195.0 L 120.0 201.25 L 123.75 205.0 L 128.75 208.75 L 133.75 212.5 L 138.75 216.25 L 143.75 217.5 L 148.75 218.75 L 153.75 218.75 L 160.0 218.75 L 166.25 216.25 L 171.25 212.5 L 177.5 207.5 L 183.75 200.0 L 190.0 190.0 L 193.75 176.25 L 197.5 162.5 L 197.5 150.0 L 198.75 138.75 L 197.5 127.5 L 193.75 116.25 L 190.0 106.25 L 183.75 98.75 L 177.5 95.0 L 168.75 93.75 L 157.5 93.75 L 148.75 96.25 L 140.0 101.25 L 132.5 107.5 L 126.25 112.5 L 121.25 117.5 L 120.0 122.5 L 122.5 127.5 " stroke="black" fill="none" stroke-width="6.0" stroke-linecap="round" stroke-linejoin="round" />
</svg>