<svg xmlns="http://www.w3.org/2000/svg" width="300" height="300" viewBox="0 0 300 300">
<path d="M 131.25 107.5 L 130.0 108.75 L 127.5 110.0 L 127.5 111.25 L 136.25 111.25 L 151.25 108.75 L 166.25 105.0 L 176.25 102.5 L 176.25 101.25 L 170.0 101.25 L 156.25 102.5 L 150.0 106.25 L 146.25 108.75 L 143.75 111.25 L 145.0 116.25 L 147.5 136.25 L 151.25 168.75 L 151.25 197.5 L 148.75 208.75 L 145.0 212.5 L 138.75 211.25 L 131.25 210.0 L 127.5 208.75 " stroke="black" fill="none" stroke-width="6.0" stroke-linecap="round" stroke-linejoin="round" />
<path d="M 115.0 216.25 L 112.5 220.0 L 111.25 220.0 L 112.5 221.25 L 126.25 221.25 L 146.25 218.75 L 170.0 215.0 L 192.5 213.75 L 205.0 213.75 L 206.25 216.25 " stroke="black" fill="none" stroke-width="6.0" stroke-linecap="round" stroke-linejoin="round" />
</svg>