<svg xmlns="http://www.w3.org/2000/svg" width="300" height="300" viewBox="0 0 300 300">
<path d="M 146.25 115.0 L 146.25 115.0 L 146.25 113.75 L 145.0 112.5 L 145.0 112.5 L 146.25 112.5 L 147.5 113.75 L 147.5 116.25 L 147.5 118.75 L 146.25 120.0 L 143.75 120.0 L 140.0 117.5 L 140.0 112.5 L 141.25 105.0 L 146.25 101.25 L 150.0 100.0 L 153.75 102.5 L 153.75 108.75 L 153.75 115.0 L 151.25 118.75 L 146.25 121.25 L 142.5 121.25 L 140.0 118.75 L 140.0 112.5 L 141.25 107.5 L 145.0 103.75 L 148.75 102.5 L 152.5 102.5 L 153.75 106.25 L 153.75 112.5 L 152.5 116.25 L 150.0 117.5 L 147.5 117.5 L 145.0 115.0 L 143.75 110.0 L 143.75 106.25 L 145.0 103.75 L 147.5 102.5 L 150.0 103.75 L 151.25 106.25 L 151.25 110.0 L 150.0 111.25 L 148.75 112.5 L 147.5 112.5 L 146.25 110.0 L 146.25 107.5 L 146.25 106.25 L 147.5 105.0 L 147.5 105.0 L 148.75 107.5 L 148.75 107.5 " stroke="black" fill="none" stroke-width="6.0" stroke-linecap="round" stroke-linejoin="round" />
<path d="M 148.75 206.25 L 148.75 206.25 L 148.75 206.25 L 148.75 206.25 L 148.75 207.5 L 151.25 208.75 L 153.75 211.25 L 156.25 215.0 L 156.25 218.75 L 152.5 221.25 L 148.75 222.5 L 145.0 222.5 L 142.5 218.75 L 142.5 213.75 L 145.0 207.5 L 148.75 205.0 L 152.5 203.75 L 155.0 203.75 L 156.25 206.25 L 156.25 211.25 L 153.75 216.25 L 150.0 218.75 L 147.5 220.0 L 145.0 220.0 L 145.0 217.5 L 145.0 213.75 L 147.5 210.0 L 150.0 207.5 L 152.5 207.5 L 155.0 207.5 L 155.0 211.25 L 153.75 215.0 L 151.25 218.75 L 147.5 218.75 L 145.0 218.75 L 143.75 216.25 L 143.75 211.25 L 145.0 207.5 L 147.5 205.0 L 150.0 205.0 L 151.25 206.25 L 152.5 208.75 L 152.5 211.25 L 152.5 213.75 L 151.25 213.75 L 150.0 213.75 L 148.75 213.75 L 148.75 212.5 L 148.75 210.0 L 148.75 208.75 L 148.75 208.75 L 148.75 208.75 L 148.75 208.75 L 148.75 208.75 " stroke="black" fill="none" stroke-width="6.0" stroke-linecap="round" stroke-linejoin="round" />
</svg>