<svg xmlns="http://www.w3.org/2000/svg" width="300" height="300" viewBox="0 0 300 300">
<path d="M 187.5 103.75 L 187.5 102.5 L 187.5 100.0 L 187.5 97.5 L 185.0 95.0 L 180.0 95.0 L 170.0 96.25 L 156.25 102.5 L 143.75 110.0 L 132.5 118.75 L 125.0 128.75 L 123.75 136.25 L 131.25 142.5 L 146.25 147.5 L 166.25 152.5 L 188.75 160.0 L 203.75 167.5 L 210.0 176.25 L 213.75 185.0 L 212.5 191.25 L 206.25 198.75 L 195.0 206.25 L 180.0 212.5 L 158.75 220.0 L 140.0 227.5 L 130.0 232.5 L 125.0 232.5 L 123.75 232.5 L 123.75 232.5 L 123.75 227.5 L 122.5 223.75 " stroke="black" fill="none" stroke-width="6.0" stroke-linecap="round" stroke-linejoin="round" />
<path d="M 157.5 56.25 L 156.25 56.25 L 155.0 56.25 L 156.25 58.75 L 161.25 75.0 L 167.5 116.25 L 168.75 170.0 L 165.0 207.5 L 163.75 227.5 L 161.25 242.5 L 158.75 247.5 L 153.75 250.0 " stroke="black" fill="none" stroke-width="6.0" stroke-linecap="round" stroke-linejoin="round" />
</svg>