<svg xmlns="http://www.w3.org/2000/svg" width="300" height="300" viewBox="0 0 300 300">
<path d="M 150.0 86.25 L 148.75 86.25 L 147.5 86.25 L 146.25 86.25 L 146.25 95.0 L 146.25 122.5 L 145.0 160.0 L 145.0 192.5 L 143.75 210.0 " stroke="black" fill="none" stroke-width="6.0" stroke-linecap="round" stroke-linejoin="round" />
<path d="M 147.5 241.25 L 146.25 240.0 L 145.0 240.0 L 145.0 238.75 L 145.0 238.75 L 147.5 238.75 L 151.25 238.75 L 153.75 240.0 L 153.75 242.5 L 153.75 245.0 L 150.0 246.25 L 146.25 247.5 L 141.25 247.5 L 140.0 243.75 L 140.0 240.0 L 143.75 235.0 L 147.5 232.5 L 150.0 232.5 L 152.5 233.75 L 152.5 237.5 L 151.25 241.25 L 148.75 245.0 L 146.25 246.25 L 143.75 246.25 L 142.5 243.75 L 142.5 238.75 L 145.0 233.75 L 148.75 231.25 L 152.5 231.25 L 153.75 235.0 L 155.0 238.75 L 153.75 243.75 L 150.0 246.25 L 146.25 247.5 L 142.5 247.5 L 141.25 245.0 L 140.0 240.0 L 142.5 235.0 L 146.25 232.5 L 150.0 231.25 L 152.5 233.75 L 153.75 237.5 L 153.75 242.5 L 150.0 246.25 L 147.5 247.5 " stroke="black" fill="none" stroke-width="6.0" stroke-linecap="round" stroke-linejoin="round" />
</svg>