<svg xmlns="http://www.w3.org/2000/svg" width="300" height="300" viewBox="0 0 300 300">
<path d="M 145.0 112.5 L 146.25 112.5 L 146.25 112.5 L 147.5 112.5 L 150.0 112.5 L 151.25 112.5 L 151.25 113.75 L 151.25 115.0 L 147.5 117.5 L 143.75 117.5 L 141.25 117.5 L 140.0 113.75 L 141.25 108.75 L 143.75 106.25 L 147.5 106.25 L 150.0 107.5 L 151.25 112.5 L 151.25 117.5 L 150.0 121.25 L 146.25 122.5 L 142.5 122.5 L 141.25 120.0 L 141.25 113.75 L 142.5 108.75 L 146.25 105.0 L 150.0 103.75 L 152.5 106.25 L 153.75 112.5 L 152.5 118.75 L 150.0 123.75 L 146.25 125.0 L 142.5 125.0 L 140.0 121.25 L 140.0 115.0 L 141.25 110.0 L 145.0 106.25 L 147.5 106.25 L 150.0 106.25 L 150.0 110.0 L 150.0 113.75 L 148.75 116.25 L 148.75 116.25 " stroke="black" fill="none" stroke-width="6.0" stroke-linecap="round" stroke-linejoin="round" />
<path d="M 152.5 197.5 L 152.5 197.5 L 151.25 197.5 L 150.0 197.5 L 150.0 198.75 L 150.0 201.25 L 150.0 205.0 L 150.0 207.5 L 147.5 210.0 L 145.0 210.0 L 143.75 210.0 L 142.5 205.0 L 143.75 201.25 L 146.25 196.25 L 148.75 195.0 L 152.5 195.0 L 155.0 196.25 L 155.0 201.25 L 155.0 206.25 L 151.25 210.0 L 147.5 212.5 L 143.75 212.5 L 141.25 211.25 L 141.25 207.5 L 142.5 203.75 L 146.25 201.25 L 148.75 200.0 L 152.5 200.0 L 153.75 201.25 L 153.75 203.75 L 153.75 206.25 L 151.25 208.75 L 148.75 210.0 L 146.25 210.0 L 145.0 207.5 L 145.0 205.0 L 146.25 202.5 L 148.75 200.0 L 150.0 200.0 L 152.5 201.25 L 152.5 203.75 L 152.5 206.25 L 151.25 207.5 L 148.75 208.75 L 147.5 208.75 L 146.25 206.25 L 146.25 202.5 L 147.5 198.75 L 150.0 196.25 L 152.5 195.0 L 156.25 195.0 L 160.0 197.5 L 162.5 202.5 L 163.75 211.25 L 162.5 220.0 L 157.5 230.0 L 152.5 235.0 L 147.5 236.25 L 145.0 236.25 " stroke="black" fill="none" stroke-width="6.0" stroke-linecap="round" stroke-linejoin="round" />
</svg>