<svg xmlns="http://www.w3.org/2000/svg" width="300" height="300" viewBox="0 0 300 300">
<path d="M 200.0 215.0 L 197.5 216.25 L 195.0 216.25 L 191.25 216.25 L 188.75 216.25 L 182.5 215.0 L 175.0 211.25 L 163.75 206.25 L 151.25 200.0 L 141.25 190.0 L 132.5 178.75 L 128.75 162.5 L 127.5 147.5 L 127.5 135.0 L 128.75 125.0 L 131.25 117.5 L 136.25 111.25 L 143.75 105.0 L 152.5 101.25 L 160.0 101.25 L 168.75 105.0 L 173.75 111.25 L 176.25 118.75 L 176.25 127.5 L 172.5 137.5 L 162.5 146.25 L 152.5 157.5 L 140.0 170.0 L 127.5 185.0 L 116.25 200.0 L 108.75 210.0 L 107.5 218.75 L 108.75 227.5 L 112.5 237.5 L 120.0 243.75 L 128.75 248.75 L 142.5 250.0 L 157.5 246.25 L 173.75 237.5 L 190.0 223.75 L 198.75 211.25 L 202.5 202.5 L 202.5 196.25 L 202.5 192.5 L 201.25 190.0 L 200.0 190.0 " stroke="black" fill="none" stroke-width="6.0" stroke-linecap="round" stroke-linejoin="round" />
</svg>