<svg xmlns="http://www.w3.org/2000/svg" width="300" height="300" viewBox="0 0 300 300">
<path d="M 106.25 113.75 L 106.25 108.75 L 103.75 105.0 L 103.75 105.0 L 103.75 123.75 L 106.25 163.75 L 106.25 207.5 L 106.25 231.25 L 106.25 237.5 L 105.0 231.25 L 103.75 223.75 " stroke="black" fill="none" stroke-width="6.0" stroke-linecap="round" stroke-linejoin="round" />
<path d="M 107.5 108.75 L 107.5 106.25 L 107.5 101.25 L 118.75 96.25 L 140.0 93.75 L 165.0 97.5 L 186.25 112.5 L 193.75 136.25 L 187.5 156.25 L 173.75 172.5 L 157.5 183.75 L 145.0 187.5 L 131.25 190.0 L 123.75 190.0 L 123.75 186.25 " stroke="black" fill="none" stroke-width="6.0" stroke-linecap="round" stroke-linejoin="round" />
<path d="M 168.75 165.0 L 167.5 167.5 L 165.0 168.75 L 165.0 168.75 L 165.0 168.75 L 166.25 168.75 L 166.25 168.75 L 167.5 168.75 L 167.5 168.75 L 167.5 168.75 L 167.5 168.75 L 168.75 168.75 L 168.75 168.75 L 168.75 168.75 L 168.75 168.75 L 168.75 168.75 L 168.75 168.75 L 168.75 168.75 L 167.5 168.75 L 167.5 168.75 L 167.5 170.0 L 167.5 171.25 L 167.5 175.0 L 171.25 187.5 L 182.5 208.75 L 197.5 228.75 L 212.5 238.75 L 220.0 240.0 L 223.75 240.0 L 221.25 241.25 L 220.0 241.25 " stroke="black" fill="none" stroke-width="6.0" stroke-linecap="round" stroke-linejoin="round" />
</svg>