<svg xmlns="http://www.w3.org/2000/svg" width="300" height="300" viewBox="0 0 300 300">
<path d="M 192.5 145.0 L 188.75 141.25 L 186.25 137.5 L 182.5 133.75 L 177.5 131.25 L 170.0 128.75 L 160.0 128.75 L 150.0 132.5 L 140.0 142.5 L 130.0 160.0 L 125.0 187.5 L 127.5 212.5 L 141.25 223.75 L 157.5 222.5 L 175.0 207.5 L 187.5 187.5 L 195.0 162.5 L 197.5 137.5 L 197.5 113.75 L 197.5 88.75 L 197.5 73.75 L 197.5 71.25 L 197.5 78.75 L 198.75 110.0 L 200.0 153.75 L 202.5 198.75 L 210.0 222.5 L 218.75 230.0 L 225.0 230.0 L 227.5 228.75 L 227.5 227.5 " stroke="black" fill="none" stroke-width="6.0" stroke-linecap="round" stroke-linejoin="round" />
</svg>