<svg xmlns="http://www.w3.org/2000/svg" width="300" height="300" viewBox="0 0 300 300">
<path d="M 153.75 93.75 L 152.5 93.75 L 151.25 92.5 L 150.0 92.5 L 150.0 92.5 L 155.0 97.5 L 162.5 102.5 L 165.0 105.0 " stroke="black" fill="none" stroke-width="6.0" stroke-linecap="round" stroke-linejoin="round" />
<path d="M 121.25 135.0 L 118.75 135.0 L 117.5 136.25 L 125.0 136.25 L 143.75 136.25 L 165.0 135.0 L 177.5 135.0 L 177.5 140.0 L 158.75 158.75 L 136.25 187.5 L 108.75 213.75 L 92.5 231.25 L 91.25 232.5 " stroke="black" fill="none" stroke-width="6.0" stroke-linecap="round" stroke-linejoin="round" />
<path d="M 155.0 165.0 L 155.0 163.75 L 155.0 163.75 L 155.0 173.75 L 158.75 210.0 L 163.75 253.75 L 168.75 268.75 L 168.75 271.25 " stroke="black" fill="none" stroke-width="6.0" stroke-linecap="round" stroke-linejoin="round" />
<path d="M 162.5 187.5 L 162.5 186.25 L 158.75 185.0 L 160.0 187.5 L 173.75 200.0 L 195.0 213.75 L 205.0 220.0 " stroke="black" fill="none" stroke-width="6.0" stroke-linecap="round" stroke-linejoin="round" />
</svg>