<svg xmlns="http://www.w3.org/2000/svg" width="300" height="300" viewBox="0 0 300 300">
<path d="M 65.0 81.25 L 65.0 81.25 L 63.75 81.25 L 63.75 81.25 L 67.5 83.75 L 77.5 91.25 L 88.75 103.75 L 97.5 121.25 L 101.25 143.75 L 100.0 166.25 L 95.0 187.5 L 88.75 205.0 L 81.25 218.75 L 73.75 227.5 L 67.5 233.75 L 62.5 238.75 L 60.0 242.5 L 58.75 243.75 L 58.75 243.75 L 58.75 242.5 " stroke="black" fill="none" stroke-width="6.0" stroke-linecap="round" stroke-linejoin="round" />
<path d="M 93.75 66.25 L 93.75 67.5 L 93.75 68.75 L 95.0 72.5 L 101.25 81.25 L 112.5 93.75 L 125.0 115.0 L 132.5 140.0 L 133.75 162.5 L 127.5 187.5 L 118.75 211.25 L 108.75 232.5 L 100.0 246.25 L 93.75 251.25 L 91.25 253.75 L 88.75 253.75 L 87.5 250.0 " stroke="black" fill="none" stroke-width="6.0" stroke-linecap="round" stroke-linejoin="round" />
</svg>