<svg xmlns="http://www.w3.org/2000/svg" width="300" height="300" viewBox="0 0 300 300">
<path d="M 125.0 161.25 L 122.5 161.25 L 118.75 162.5 L 117.5 162.5 L 121.25 163.75 L 135.0 165.0 L 152.5 165.0 L 172.5 166.25 L 192.5 166.25 L 203.75 165.0 L 207.5 162.5 L 208.75 161.25 L 206.25 161.25 L 203.75 161.25 L 198.75 160.0 L 191.25 160.0 " stroke="black" fill="none" stroke-width="6.0" stroke-linecap="round" stroke-linejoin="round" />
<path d="M 151.25 121.25 L 151.25 121.25 L 150.0 120.0 L 150.0 120.0 L 147.5 121.25 L 142.5 127.5 L 135.0 136.25 L 125.0 146.25 L 116.25 152.5 L 111.25 155.0 L 110.0 155.0 L 110.0 155.0 L 111.25 155.0 L 111.25 155.0 L 112.5 155.0 L 115.0 156.25 L 117.5 158.75 L 120.0 163.75 L 126.25 172.5 L 135.0 188.75 L 145.0 202.5 L 151.25 211.25 L 152.5 212.5 L 153.75 212.5 L 153.75 210.0 " stroke="black" fill="none" stroke-width="6.0" stroke-linecap="round" stroke-linejoin="round" />
</svg>