<svg xmlns="http://www.w3.org/2000/svg" width="300" height="300" viewBox="0 0 300 300">
<path d="M 183.75 121.25 L 182.5 121.25 L 176.25 120.0 L 171.25 120.0 L 165.0 120.0 L 157.5 122.5 L 148.75 123.75 L 141.25 126.25 L 132.5 131.25 L 122.5 138.75 L 116.25 150.0 L 113.75 162.5 L 115.0 180.0 L 122.5 193.75 L 132.5 207.5 L 146.25 216.25 L 160.0 220.0 L 175.0 220.0 L 187.5 215.0 L 195.0 210.0 L 198.75 207.5 L 198.75 206.25 L 197.5 205.0 L 195.0 202.5 L 191.25 201.25 " stroke="black" fill="none" stroke-width="6.0" stroke-linecap="round" stroke-linejoin="round" />
<path d="M 163.75 78.75 L 160.0 76.25 L 160.0 76.25 L 160.0 76.25 L 161.25 88.75 L 162.5 133.75 L 160.0 195.0 L 156.25 238.75 L 156.25 260.0 L 156.25 267.5 L 156.25 271.25 L 155.0 268.75 " stroke="black" fill="none" stroke-width="6.0" stroke-linecap="round" stroke-linejoin="round" />
</svg>