<svg xmlns="http://www.w3.org/2000/svg" width="300" height="300" viewBox="0 0 300 300">
<path d="M 153.75 93.75 L 153.75 93.75 L 153.75 93.75 L 153.75 92.5 L 153.75 91.25 L 155.0 91.25 L 156.25 92.5 L 156.25 93.75 L 156.25 96.25 L 155.0 96.25 L 153.75 97.5 L 152.5 97.5 L 152.5 95.0 L 152.5 93.75 L 152.5 92.5 L 153.75 92.5 L 155.0 92.5 L 155.0 92.5 L 156.25 92.5 L 156.25 92.5 " stroke="black" fill="none" stroke-width="6.0" stroke-linecap="round" stroke-linejoin="round" />
<path d="M 155.0 138.75 L 153.75 137.5 L 152.5 137.5 L 152.5 142.5 L 152.5 167.5 L 153.75 203.75 L 153.75 228.75 L 152.5 237.5 L 152.5 238.75 L 151.25 238.75 " stroke="black" fill="none" stroke-width="6.0" stroke-linecap="round" stroke-linejoin="round" />
</svg>