<svg xmlns="http://www.w3.org/2000/svg" width="300" height="300" viewBox="0 0 300 300">
<path d="M 91.25 141.25 L 90.0 141.25 L 87.5 141.25 L 86.25 141.25 L 88.75 143.75 L 98.75 145.0 L 120.0 146.25 L 148.75 146.25 L 177.5 145.0 L 202.5 145.0 L 216.25 145.0 L 227.5 145.0 L 230.0 146.25 L 230.0 146.25 L 226.25 146.25 L 217.5 145.0 L 207.5 143.75 " stroke="black" fill="none" stroke-width="6.0" stroke-linecap="round" stroke-linejoin="round" />
<path d="M 95.0 193.75 L 95.0 193.75 L 92.5 192.5 L 91.25 192.5 L 91.25 192.5 L 93.75 192.5 L 106.25 192.5 L 122.5 192.5 L 156.25 192.5 L 183.75 191.25 L 202.5 191.25 L 212.5 191.25 L 216.25 192.5 L 218.75 192.5 L 220.0 192.5 L 220.0 192.5 L 220.0 192.5 L 220.0 191.25 " stroke="black" fill="none" stroke-width="6.0" stroke-linecap="round" stroke-linejoin="round" />
</svg>