<svg xmlns="http://www.w3.org/2000/svg" width="300" height="300" viewBox="0 0 300 300">
<path d="M 147.5 102.5 L 146.25 102.5 L 143.75 102.5 L 142.5 103.75 L 143.75 102.5 L 152.5 98.75 L 167.5 92.5 L 185.0 85.0 L 195.0 80.0 L 196.25 78.75 L 192.5 78.75 L 191.25 80.0 " stroke="black" fill="none" stroke-width="6.0" stroke-linecap="round" stroke-linejoin="round" />
<path d="M 181.25 87.5 L 181.25 88.75 L 180.0 92.5 L 178.75 97.5 L 178.75 113.75 L 178.75 142.5 L 178.75 172.5 L 177.5 193.75 L 173.75 205.0 L 168.75 213.75 L 163.75 218.75 L 158.75 223.75 L 152.5 230.0 L 147.5 232.5 L 140.0 235.0 L 131.25 235.0 L 120.0 235.0 L 108.75 235.0 L 100.0 235.0 L 96.25 233.75 L 96.25 225.0 L 96.25 218.75 " stroke="black" fill="none" stroke-width="6.0" stroke-linecap="round" stroke-linejoin="round" />
</svg>