<svg xmlns="http://www.w3.org/2000/svg" width="300" height="300" viewBox="0 0 300 300">
<path d="M 137.5 156.25 L 131.25 157.5 L 128.75 157.5 L 133.75 156.25 L 146.25 152.5 L 160.0 148.75 L 172.5 146.25 L 181.25 145.0 L 182.5 151.25 L 182.5 171.25 L 180.0 201.25 L 178.75 221.25 L 178.75 228.75 L 178.75 228.75 L 173.75 227.5 L 167.5 225.0 " stroke="black" fill="none" stroke-width="6.0" stroke-linecap="round" stroke-linejoin="round" />
<path d="M 132.5 193.75 L 131.25 193.75 L 130.0 193.75 L 131.25 193.75 L 142.5 192.5 L 157.5 190.0 L 175.0 187.5 L 177.5 187.5 " stroke="black" fill="none" stroke-width="6.0" stroke-linecap="round" stroke-linejoin="round" />
<path d="M 130.0 230.0 L 125.0 233.75 L 125.0 236.25 L 137.5 237.5 L 156.25 235.0 L 177.5 227.5 L 181.25 225.0 " stroke="black" fill="none" stroke-width="6.0" stroke-linecap="round" stroke-linejoin="round" />
</svg>