<svg xmlns="http://www.w3.org/2000/svg" width="300" height="300" viewBox="0 0 300 300">
<path d="M 145.0 190.0 L 143.75 190.0 L 142.5 190.0 L 140.0 190.0 L 138.75 190.0 L 138.75 190.0 L 137.5 190.0 L 136.25 190.0 L 135.0 190.0 L 133.75 190.0 L 132.5 190.0 L 131.25 188.75 L 130.0 188.75 L 128.75 187.5 L 127.5 187.5 L 126.25 186.25 L 125.0 185.0 L 123.75 182.5 L 122.5 181.25 L 121.25 178.75 L 120.0 177.5 L 120.0 173.75 L 118.75 171.25 L 117.5 167.5 L 117.5 163.75 L 116.25 161.25 L 116.25 158.75 L 116.25 156.25 L 116.25 153.75 L 116.25 151.25 L 116.25 148.75 L 116.25 146.25 L 117.5 143.75 L 118.75 142.5 L 120.0 140.0 L 122.5 137.5 L 123.75 136.25 L 126.25 133.75 L 128.75 132.5 L 131.25 130.0 L 133.75 128.75 L 136.25 126.25 L 140.0 125.0 L 142.5 122.5 L 146.25 121.25 L 148.75 120.0 L 151.25 120.0 L 153.75 118.75 L 156.25 118.75 L 160.0 118.75 L 163.75 120.0 L 167.5 122.5 L 171.25 125.0 L 175.0 127.5 L 178.75 131.25 L 181.25 135.0 L 183.75 137.5 L 186.25 140.0 L 186.25 142.5 L 187.5 145.0 L 187.5 147.5 L 187.5 150.0 L 187.5 152.5 L 187.5 156.25 L 186.25 160.0 L 186.25 163.75 L 185.0 167.5 L 183.75 170.0 L 182.5 173.75 L 180.0 176.25 L 180.0 178.75 L 178.75 181.25 L 177.5 182.5 L 176.25 183.75 L 175.0 186.25 L 173.75 187.5 L 172.5 188.75 L 170.0 190.0 L 168.75 192.5 L 167.5 193.75 L 165.0 195.0 L 162.5 196.25 L 160.0 196.25 L 157.5 197.5 L 155.0 197.5 L 152.5 197.5 L 150.0 197.5 L 147.5 197.5 L 143.75 197.5 L 141.25 196.25 L 137.5 196.25 L 136.25 195.0 L 133.75 193.75 L 133.75 193.75 " stroke="black" fill="none" stroke-width="6.0" stroke-linecap="round" stroke-linejoin="round" />
</svg>