<svg xmlns="http://www.w3.org/2000/svg" width="300" height="300" viewBox="0 0 300 300">
<path d="M 245.0 77.5 L 242.5 76.25 L 240.0 75.0 L 236.25 73.75 L 231.25 72.5 L 223.75 72.5 L 215.0 72.5 L 206.25 72.5 L 201.25 72.5 L 197.5 72.5 L 196.25 73.75 L 196.25 73.75 L 196.25 75.0 L 198.75 81.25 L 200.0 93.75 L 201.25 117.5 L 201.25 148.75 L 201.25 177.5 L 198.75 201.25 L 197.5 216.25 L 196.25 226.25 L 196.25 231.25 L 196.25 232.5 L 196.25 232.5 L 196.25 232.5 L 196.25 232.5 L 196.25 232.5 L 198.75 233.75 L 201.25 236.25 L 207.5 238.75 L 216.25 241.25 L 228.75 242.5 L 241.25 243.75 L 250.0 243.75 L 256.25 243.75 L 256.25 243.75 " stroke="black" fill="none" stroke-width="6.0" stroke-linecap="round" stroke-linejoin="round" />
</svg>