<svg xmlns="http://www.w3.org/2000/svg" width="300" height="300" viewBox="0 0 300 300">
<path d="M 131.25 103.75 L 130.0 103.75 L 125.0 103.75 L 121.25 103.75 L 123.75 102.5 L 137.5 101.25 L 156.25 101.25 L 176.25 103.75 L 191.25 110.0 L 193.75 121.25 L 183.75 136.25 L 167.5 151.25 L 151.25 166.25 L 138.75 182.5 L 125.0 197.5 L 115.0 208.75 L 113.75 210.0 L 117.5 210.0 L 123.75 211.25 L 133.75 211.25 L 146.25 211.25 L 161.25 211.25 L 178.75 212.5 L 198.75 212.5 L 215.0 212.5 L 223.75 211.25 L 225.0 210.0 L 221.25 206.25 L 218.75 205.0 " stroke="black" fill="none" stroke-width="6.0" stroke-linecap="round" stroke-linejoin="round" />
</svg>