<svg xmlns="http://www.w3.org/2000/svg" width="300" height="300" viewBox="0 0 300 300">
<path d="M 126.25 58.75 L 125.0 58.75 L 123.75 58.75 L 126.25 57.5 L 136.25 57.5 L 146.25 57.5 L 151.25 61.25 L 151.25 61.25 " stroke="black" fill="none" stroke-width="6.0" stroke-linecap="round" stroke-linejoin="round" />
<path d="M 73.75 91.25 L 68.75 92.5 L 68.75 95.0 L 73.75 103.75 L 81.25 118.75 L 85.0 130.0 " stroke="black" fill="none" stroke-width="6.0" stroke-linecap="round" stroke-linejoin="round" />
<path d="M 77.5 103.75 L 76.25 103.75 L 73.75 105.0 L 78.75 103.75 L 97.5 98.75 L 130.0 90.0 L 165.0 80.0 L 190.0 73.75 L 201.25 72.5 L 202.5 73.75 L 197.5 81.25 L 183.75 95.0 L 176.25 100.0 " stroke="black" fill="none" stroke-width="6.0" stroke-linecap="round" stroke-linejoin="round" />
<path d="M 87.5 153.75 L 85.0 153.75 L 83.75 152.5 L 82.5 152.5 L 83.75 157.5 L 85.0 168.75 L 85.0 180.0 L 86.25 185.0 L 91.25 183.75 L 101.25 173.75 L 113.75 161.25 L 123.75 151.25 L 131.25 143.75 L 131.25 141.25 L 127.5 141.25 " stroke="black" fill="none" stroke-width="6.0" stroke-linecap="round" stroke-linejoin="round" />
<path d="M 110.0 131.25 L 111.25 127.5 L 111.25 125.0 L 111.25 127.5 L 113.75 143.75 L 116.25 175.0 L 117.5 211.25 L 117.5 232.5 L 113.75 238.75 L 112.5 237.5 " stroke="black" fill="none" stroke-width="6.0" stroke-linecap="round" stroke-linejoin="round" />
<path d="M 80.0 206.25 L 73.75 210.0 L 71.25 212.5 L 75.0 212.5 L 85.0 208.75 L 93.75 203.75 L 98.75 201.25 L 100.0 200.0 L 95.0 207.5 L 86.25 220.0 L 78.75 231.25 " stroke="black" fill="none" stroke-width="6.0" stroke-linecap="round" stroke-linejoin="round" />
<path d="M 152.5 146.25 L 151.25 146.25 L 146.25 147.5 L 146.25 148.75 L 156.25 145.0 L 173.75 137.5 L 192.5 128.75 L 203.75 120.0 L 205.0 117.5 L 203.75 118.75 " stroke="black" fill="none" stroke-width="6.0" stroke-linecap="round" stroke-linejoin="round" />
<path d="M 146.25 186.25 L 145.0 187.5 L 145.0 190.0 L 156.25 185.0 L 176.25 170.0 L 198.75 152.5 L 210.0 138.75 L 210.0 136.25 L 205.0 135.0 L 201.25 135.0 " stroke="black" fill="none" stroke-width="6.0" stroke-linecap="round" stroke-linejoin="round" />
<path d="M 176.25 128.75 L 176.25 127.5 L 175.0 123.75 L 175.0 122.5 L 176.25 130.0 L 182.5 155.0 L 188.75 195.0 L 191.25 226.25 L 191.25 241.25 L 190.0 248.75 L 186.25 247.5 L 185.0 246.25 " stroke="black" fill="none" stroke-width="6.0" stroke-linecap="round" stroke-linejoin="round" />
<path d="M 183.75 183.75 L 178.75 187.5 L 168.75 200.0 L 161.25 216.25 L 152.5 233.75 L 146.25 241.25 L 145.0 241.25 " stroke="black" fill="none" stroke-width="6.0" stroke-linecap="round" stroke-linejoin="round" />
<path d="M 177.5 180.0 L 180.0 180.0 L 183.75 180.0 L 196.25 188.75 L 212.5 205.0 L 228.75 218.75 L 242.5 228.75 L 251.25 235.0 L 255.0 236.25 L 256.25 237.5 L 256.25 237.5 " stroke="black" fill="none" stroke-width="6.0" stroke-linecap="round" stroke-linejoin="round" />
</svg>