<svg xmlns="http://www.w3.org/2000/svg" width="300" height="300" viewBox="0 0 300 300">
<path d="M 65.0 95.0 L 65.0 95.0 L 63.75 95.0 L 65.0 97.5 L 68.75 106.25 L 73.75 117.5 L 80.0 125.0 L 87.5 123.75 L 97.5 112.5 L 107.5 101.25 L 116.25 92.5 L 121.25 87.5 L 120.0 86.25 L 115.0 85.0 L 110.0 85.0 L 106.25 86.25 L 105.0 86.25 L 103.75 86.25 L 105.0 90.0 L 106.25 105.0 L 108.75 140.0 L 108.75 178.75 L 108.75 200.0 L 107.5 205.0 L 106.25 206.25 L 101.25 202.5 L 101.25 201.25 " stroke="black" fill="none" stroke-width="6.0" stroke-linecap="round" stroke-linejoin="round" />
<path d="M 56.25 173.75 L 52.5 176.25 L 50.0 177.5 L 56.25 177.5 L 72.5 173.75 L 87.5 168.75 L 95.0 167.5 L 90.0 178.75 L 72.5 201.25 L 55.0 221.25 L 46.25 230.0 L 46.25 226.25 " stroke="black" fill="none" stroke-width="6.0" stroke-linecap="round" stroke-linejoin="round" />
<path d="M 146.25 77.5 L 146.25 77.5 L 151.25 76.25 L 161.25 75.0 L 172.5 76.25 L 177.5 85.0 L 170.0 98.75 L 155.0 117.5 L 140.0 130.0 L 136.25 131.25 " stroke="black" fill="none" stroke-width="6.0" stroke-linecap="round" stroke-linejoin="round" />
<path d="M 140.0 97.5 L 140.0 97.5 L 140.0 97.5 L 145.0 98.75 L 158.75 100.0 L 173.75 100.0 L 176.25 100.0 " stroke="black" fill="none" stroke-width="6.0" stroke-linecap="round" stroke-linejoin="round" />
<path d="M 138.75 121.25 L 138.75 121.25 L 140.0 121.25 L 147.5 118.75 L 162.5 113.75 L 171.25 112.5 L 172.5 112.5 " stroke="black" fill="none" stroke-width="6.0" stroke-linecap="round" stroke-linejoin="round" />
<path d="M 132.5 167.5 L 131.25 168.75 L 133.75 168.75 L 150.0 158.75 L 186.25 137.5 L 213.75 112.5 L 223.75 100.0 L 223.75 98.75 L 216.25 100.0 L 207.5 105.0 L 202.5 107.5 L 201.25 111.25 L 200.0 115.0 L 200.0 123.75 L 202.5 146.25 L 205.0 185.0 L 207.5 215.0 L 208.75 230.0 L 208.75 232.5 L 207.5 232.5 L 200.0 228.75 L 188.75 223.75 L 170.0 215.0 L 165.0 212.5 " stroke="black" fill="none" stroke-width="6.0" stroke-linecap="round" stroke-linejoin="round" />
<path d="M 151.25 161.25 L 151.25 162.5 L 151.25 162.5 L 152.5 167.5 L 161.25 176.25 L 173.75 191.25 " stroke="black" fill="none" stroke-width="6.0" stroke-linecap="round" stroke-linejoin="round" />
</svg>