<svg xmlns="http://www.w3.org/2000/svg" width="300" height="300" viewBox="0 0 300 300">
<path d="M 93.75 83.75 L 92.5 83.75 L 90.0 83.75 L 88.75 85.0 L 87.5 96.25 L 87.5 113.75 L 91.25 123.75 L 101.25 123.75 L 116.25 112.5 L 130.0 100.0 L 138.75 90.0 L 140.0 85.0 L 137.5 81.25 L 133.75 78.75 L 128.75 77.5 L 127.5 76.25 L 127.5 77.5 L 127.5 90.0 L 128.75 126.25 L 131.25 183.75 L 132.5 217.5 L 132.5 231.25 L 130.0 238.75 L 126.25 237.5 L 122.5 231.25 " stroke="black" fill="none" stroke-width="6.0" stroke-linecap="round" stroke-linejoin="round" />
<path d="M 85.0 166.25 L 81.25 167.5 L 76.25 170.0 L 76.25 171.25 L 83.75 172.5 L 93.75 171.25 L 108.75 168.75 L 113.75 172.5 L 102.5 192.5 L 83.75 217.5 L 66.25 232.5 L 61.25 231.25 " stroke="black" fill="none" stroke-width="6.0" stroke-linecap="round" stroke-linejoin="round" />
<path d="M 160.0 87.5 L 160.0 86.25 L 160.0 85.0 L 158.75 85.0 L 160.0 85.0 L 163.75 92.5 L 163.75 103.75 L 160.0 118.75 L 156.25 126.25 L 155.0 127.5 L 155.0 126.25 L 158.75 120.0 L 166.25 112.5 L 176.25 103.75 L 188.75 95.0 L 200.0 91.25 L 206.25 90.0 L 207.5 91.25 L 207.5 98.75 L 205.0 113.75 L 197.5 135.0 L 185.0 156.25 L 166.25 173.75 L 157.5 180.0 " stroke="black" fill="none" stroke-width="6.0" stroke-linecap="round" stroke-linejoin="round" />
<path d="M 168.75 122.5 L 168.75 122.5 L 168.75 122.5 L 170.0 123.75 L 176.25 126.25 L 187.5 128.75 L 195.0 130.0 L 195.0 131.25 " stroke="black" fill="none" stroke-width="6.0" stroke-linecap="round" stroke-linejoin="round" />
<path d="M 161.25 141.25 L 161.25 141.25 L 158.75 140.0 L 161.25 140.0 L 175.0 137.5 L 192.5 136.25 L 195.0 136.25 " stroke="black" fill="none" stroke-width="6.0" stroke-linecap="round" stroke-linejoin="round" />
<path d="M 145.0 197.5 L 143.75 198.75 L 141.25 202.5 L 145.0 203.75 L 162.5 197.5 L 193.75 177.5 L 222.5 152.5 L 237.5 140.0 L 238.75 136.25 L 232.5 136.25 L 223.75 138.75 L 216.25 141.25 L 211.25 142.5 L 208.75 143.75 L 208.75 145.0 L 210.0 146.25 L 212.5 155.0 L 216.25 175.0 L 220.0 201.25 L 221.25 220.0 L 221.25 231.25 L 218.75 236.25 L 215.0 238.75 L 208.75 240.0 L 201.25 240.0 L 193.75 238.75 L 190.0 236.25 " stroke="black" fill="none" stroke-width="6.0" stroke-linecap="round" stroke-linejoin="round" />
<path d="M 175.0 196.25 L 175.0 196.25 L 173.75 196.25 L 173.75 195.0 L 182.5 197.5 L 193.75 203.75 L 202.5 208.75 " stroke="black" fill="none" stroke-width="6.0" stroke-linecap="round" stroke-linejoin="round" />
</svg>