<svg xmlns="http://www.w3.org/2000/svg" width="300" height="300" viewBox="0 0 300 300">
<path d="M 77.5 101.25 L 77.5 102.5 L 77.5 106.25 L 77.5 116.25 L 76.25 132.5 L 73.75 142.5 L 72.5 143.75 L 77.5 141.25 L 90.0 132.5 L 102.5 122.5 L 112.5 115.0 L 118.75 108.75 L 120.0 105.0 L 115.0 102.5 L 108.75 101.25 L 103.75 101.25 L 100.0 100.0 L 98.75 98.75 L 97.5 97.5 L 97.5 97.5 L 98.75 97.5 L 100.0 103.75 L 103.75 128.75 L 106.25 177.5 L 107.5 215.0 L 107.5 228.75 L 106.25 238.75 L 102.5 240.0 L 100.0 240.0 " stroke="black" fill="none" stroke-width="6.0" stroke-linecap="round" stroke-linejoin="round" />
<path d="M 58.75 191.25 L 55.0 193.75 L 50.0 197.5 L 50.0 197.5 L 57.5 197.5 L 71.25 193.75 L 85.0 186.25 L 97.5 178.75 L 101.25 175.0 L 98.75 178.75 L 91.25 192.5 L 78.75 212.5 L 66.25 233.75 L 57.5 246.25 L 56.25 246.25 " stroke="black" fill="none" stroke-width="6.0" stroke-linecap="round" stroke-linejoin="round" />
<path d="M 147.5 101.25 L 143.75 100.0 L 143.75 97.5 L 151.25 92.5 L 166.25 88.75 L 181.25 86.25 L 191.25 86.25 L 191.25 91.25 L 181.25 106.25 L 165.0 127.5 L 150.0 143.75 L 140.0 151.25 L 136.25 151.25 " stroke="black" fill="none" stroke-width="6.0" stroke-linecap="round" stroke-linejoin="round" />
<path d="M 145.0 105.0 L 142.5 105.0 L 142.5 105.0 L 146.25 106.25 L 157.5 107.5 L 168.75 108.75 L 176.25 110.0 L 176.25 111.25 " stroke="black" fill="none" stroke-width="6.0" stroke-linecap="round" stroke-linejoin="round" />
<path d="M 142.5 128.75 L 141.25 128.75 L 138.75 131.25 L 140.0 131.25 L 148.75 131.25 L 160.0 130.0 L 166.25 130.0 L 166.25 130.0 " stroke="black" fill="none" stroke-width="6.0" stroke-linecap="round" stroke-linejoin="round" />
<path d="M 126.25 190.0 L 123.75 192.5 L 122.5 195.0 L 131.25 193.75 L 148.75 183.75 L 176.25 165.0 L 206.25 143.75 L 222.5 131.25 L 228.75 126.25 L 228.75 125.0 L 223.75 125.0 L 218.75 125.0 L 215.0 127.5 L 211.25 130.0 L 210.0 132.5 L 207.5 135.0 L 206.25 138.75 L 206.25 151.25 L 208.75 178.75 L 211.25 211.25 L 213.75 233.75 L 213.75 246.25 L 213.75 251.25 L 212.5 251.25 L 210.0 252.5 L 208.75 252.5 L 205.0 252.5 L 198.75 250.0 L 187.5 248.75 " stroke="black" fill="none" stroke-width="6.0" stroke-linecap="round" stroke-linejoin="round" />
<path d="M 150.0 191.25 L 150.0 190.0 L 150.0 190.0 L 153.75 188.75 L 165.0 195.0 L 177.5 210.0 L 181.25 221.25 " stroke="black" fill="none" stroke-width="6.0" stroke-linecap="round" stroke-linejoin="round" />
</svg>