<svg xmlns="http://www.w3.org/2000/svg" width="300" height="300" viewBox="0 0 300 300">
<path d="M 61.25 251.25 L 60.0 253.75 L 60.0 256.25 L 67.5 258.75 L 78.75 261.25 L 92.5 262.5 L 102.5 262.5 L 108.75 261.25 L 110.0 260.0 L 107.5 258.75 " stroke="black" fill="none" stroke-width="6.0" stroke-linecap="round" stroke-linejoin="round" />
<path d="M 112.5 125.0 L 112.5 123.75 L 112.5 122.5 L 111.25 122.5 L 111.25 121.25 L 111.25 121.25 L 111.25 126.25 L 111.25 136.25 L 111.25 153.75 L 111.25 181.25 L 111.25 205.0 L 111.25 218.75 L 111.25 228.75 L 111.25 237.5 L 112.5 243.75 L 112.5 246.25 L 112.5 247.5 L 112.5 250.0 L 111.25 253.75 L 111.25 257.5 L 111.25 262.5 L 110.0 266.25 L 110.0 268.75 L 110.0 270.0 L 110.0 270.0 L 110.0 270.0 L 108.75 265.0 L 106.25 262.5 " stroke="black" fill="none" stroke-width="6.0" stroke-linecap="round" stroke-linejoin="round" />
</svg>