<svg xmlns="http://www.w3.org/2000/svg" width="300" height="300" viewBox="0 0 300 300">
<path d="M 118.75 142.5 L 118.75 140.0 L 118.75 138.75 L 118.75 137.5 L 118.75 137.5 L 118.75 137.5 L 118.75 138.75 L 118.75 145.0 L 118.75 161.25 L 118.75 187.5 L 118.75 213.75 L 120.0 231.25 L 121.25 238.75 L 122.5 240.0 L 122.5 240.0 L 122.5 238.75 L 122.5 238.75 L 122.5 238.75 L 122.5 238.75 L 122.5 238.75 L 122.5 238.75 L 122.5 238.75 L 120.0 238.75 L 116.25 238.75 L 111.25 238.75 L 105.0 238.75 L 96.25 238.75 L 88.75 240.0 L 82.5 240.0 L 77.5 241.25 L 73.75 242.5 L 72.5 243.75 L 71.25 243.75 L 71.25 243.75 L 72.5 243.75 L 72.5 243.75 L 72.5 243.75 L 73.75 243.75 L 75.0 243.75 L 77.5 243.75 " stroke="black" fill="none" stroke-width="6.0" stroke-linecap="round" stroke-linejoin="round" />
</svg>