<svg xmlns="http://www.w3.org/2000/svg" width="300" height="300" viewBox="0 0 300 300">
<path d="M 108.75 130.0 L 108.75 130.0 L 108.75 130.0 L 107.5 128.75 L 107.5 128.75 L 107.5 130.0 L 107.5 135.0 L 108.75 143.75 L 111.25 162.5 L 115.0 191.25 L 117.5 213.75 L 118.75 228.75 L 120.0 236.25 L 120.0 241.25 L 121.25 243.75 L 121.25 245.0 L 121.25 245.0 L 121.25 245.0 L 121.25 245.0 L 118.75 245.0 L 115.0 245.0 L 110.0 245.0 L 102.5 246.25 L 95.0 247.5 L 86.25 250.0 L 76.25 252.5 L 68.75 255.0 L 66.25 255.0 L 65.0 255.0 L 65.0 255.0 L 66.25 255.0 L 66.25 255.0 L 67.5 255.0 " stroke="black" fill="none" stroke-width="6.0" stroke-linecap="round" stroke-linejoin="round" />
</svg>