<svg xmlns="http://www.w3.org/2000/svg" width="300" height="300" viewBox="0 0 300 300">
<path d="M 68.75 98.75 L 67.5 100.0 L 63.75 101.25 L 65.0 102.5 L 82.5 100.0 L 107.5 91.25 L 138.75 76.25 L 152.5 65.0 L 151.25 62.5 L 140.0 65.0 L 126.25 70.0 L 122.5 71.25 " stroke="black" fill="none" stroke-width="6.0" stroke-linecap="round" stroke-linejoin="round" />
<path d="M 91.25 85.0 L 90.0 88.75 L 90.0 96.25 L 90.0 107.5 L 93.75 123.75 L 96.25 126.25 L 97.5 116.25 " stroke="black" fill="none" stroke-width="6.0" stroke-linecap="round" stroke-linejoin="round" />
<path d="M 120.0 70.0 L 121.25 68.75 L 121.25 67.5 L 120.0 76.25 L 111.25 97.5 L 98.75 123.75 L 92.5 133.75 " stroke="black" fill="none" stroke-width="6.0" stroke-linecap="round" stroke-linejoin="round" />
<path d="M 78.75 132.5 L 78.75 132.5 L 78.75 132.5 L 81.25 136.25 L 87.5 148.75 L 93.75 165.0 L 97.5 173.75 L 96.25 172.5 L 93.75 165.0 L 90.0 157.5 L 86.25 151.25 L 83.75 146.25 L 83.75 143.75 L 86.25 141.25 L 97.5 138.75 L 115.0 135.0 L 131.25 131.25 L 137.5 131.25 L 132.5 136.25 L 120.0 147.5 L 105.0 157.5 L 93.75 167.5 L 91.25 170.0 L 95.0 167.5 L 106.25 158.75 L 121.25 147.5 L 133.75 138.75 L 136.25 135.0 L 135.0 135.0 " stroke="black" fill="none" stroke-width="6.0" stroke-linecap="round" stroke-linejoin="round" />
<path d="M 86.25 192.5 L 85.0 193.75 L 85.0 193.75 L 92.5 191.25 L 112.5 177.5 L 133.75 162.5 L 137.5 157.5 L 125.0 165.0 L 117.5 171.25 " stroke="black" fill="none" stroke-width="6.0" stroke-linecap="round" stroke-linejoin="round" />
<path d="M 81.25 218.75 L 81.25 220.0 L 86.25 218.75 L 107.5 205.0 L 138.75 181.25 L 152.5 162.5 L 152.5 155.0 L 147.5 155.0 " stroke="black" fill="none" stroke-width="6.0" stroke-linecap="round" stroke-linejoin="round" />
<path d="M 100.0 137.5 L 100.0 136.25 L 101.25 135.0 L 105.0 150.0 L 106.25 188.75 L 97.5 225.0 L 85.0 246.25 L 72.5 255.0 L 65.0 252.5 L 63.75 247.5 " stroke="black" fill="none" stroke-width="6.0" stroke-linecap="round" stroke-linejoin="round" />
<path d="M 108.75 195.0 L 110.0 195.0 L 115.0 200.0 L 127.5 210.0 L 141.25 227.5 L 151.25 238.75 L 155.0 242.5 " stroke="black" fill="none" stroke-width="6.0" stroke-linecap="round" stroke-linejoin="round" />
<path d="M 177.5 78.75 L 178.75 76.25 L 178.75 73.75 L 178.75 73.75 L 175.0 90.0 L 165.0 117.5 L 153.75 142.5 L 148.75 148.75 L 148.75 143.75 L 153.75 131.25 L 161.25 118.75 L 167.5 111.25 L 172.5 115.0 L 175.0 143.75 L 176.25 187.5 L 173.75 222.5 L 171.25 237.5 L 166.25 240.0 " stroke="black" fill="none" stroke-width="6.0" stroke-linecap="round" stroke-linejoin="round" />
<path d="M 196.25 90.0 L 196.25 90.0 L 196.25 90.0 L 196.25 90.0 L 203.75 90.0 L 216.25 90.0 L 230.0 91.25 L 232.5 92.5 " stroke="black" fill="none" stroke-width="6.0" stroke-linecap="round" stroke-linejoin="round" />
<path d="M 190.0 133.75 L 188.75 133.75 L 186.25 135.0 L 186.25 135.0 L 196.25 131.25 L 212.5 121.25 L 227.5 110.0 L 233.75 103.75 L 226.25 111.25 L 222.5 115.0 " stroke="black" fill="none" stroke-width="6.0" stroke-linecap="round" stroke-linejoin="round" />
<path d="M 185.0 177.5 L 185.0 178.75 L 183.75 180.0 L 190.0 178.75 L 206.25 166.25 L 228.75 147.5 L 243.75 132.5 L 243.75 130.0 L 238.75 132.5 " stroke="black" fill="none" stroke-width="6.0" stroke-linecap="round" stroke-linejoin="round" />
<path d="M 218.75 130.0 L 218.75 130.0 L 218.75 130.0 L 218.75 145.0 L 217.5 183.75 L 217.5 212.5 L 217.5 218.75 L 217.5 220.0 L 213.75 213.75 L 211.25 210.0 " stroke="black" fill="none" stroke-width="6.0" stroke-linecap="round" stroke-linejoin="round" />
<path d="M 193.75 198.75 L 192.5 200.0 L 190.0 201.25 L 193.75 200.0 L 207.5 191.25 L 223.75 180.0 L 240.0 167.5 L 243.75 165.0 " stroke="black" fill="none" stroke-width="6.0" stroke-linecap="round" stroke-linejoin="round" />
<path d="M 198.75 222.5 L 197.5 223.75 L 196.25 227.5 L 200.0 228.75 L 216.25 223.75 L 237.5 213.75 L 255.0 205.0 L 260.0 202.5 " stroke="black" fill="none" stroke-width="6.0" stroke-linecap="round" stroke-linejoin="round" />
</svg>