<svg xmlns="http://www.w3.org/2000/svg" width="300" height="300" viewBox="0 0 300 300">
<path d="M 86.25 111.25 L 82.5 115.0 L 81.25 116.25 L 88.75 116.25 L 101.25 113.75 L 118.75 106.25 L 135.0 97.5 L 142.5 90.0 L 137.5 87.5 L 135.0 87.5 " stroke="black" fill="none" stroke-width="6.0" stroke-linecap="round" stroke-linejoin="round" />
<path d="M 108.75 82.5 L 110.0 82.5 L 112.5 88.75 L 115.0 102.5 L 117.5 122.5 L 116.25 136.25 L 108.75 141.25 L 101.25 141.25 L 93.75 142.5 L 82.5 145.0 L 73.75 148.75 L 70.0 151.25 L 72.5 151.25 L 86.25 150.0 L 103.75 143.75 L 125.0 133.75 L 143.75 122.5 L 150.0 115.0 L 146.25 113.75 L 140.0 117.5 " stroke="black" fill="none" stroke-width="6.0" stroke-linecap="round" stroke-linejoin="round" />
<path d="M 121.25 136.25 L 121.25 138.75 L 118.75 150.0 L 117.5 168.75 L 117.5 188.75 L 117.5 197.5 L 117.5 196.25 L 117.5 191.25 L 117.5 183.75 L 117.5 178.75 L 117.5 173.75 L 122.5 168.75 L 130.0 163.75 L 138.75 157.5 L 147.5 151.25 L 150.0 147.5 L 148.75 147.5 " stroke="black" fill="none" stroke-width="6.0" stroke-linecap="round" stroke-linejoin="round" />
<path d="M 87.5 153.75 L 85.0 170.0 L 85.0 193.75 L 85.0 218.75 L 85.0 232.5 L 85.0 235.0 L 82.5 233.75 " stroke="black" fill="none" stroke-width="6.0" stroke-linecap="round" stroke-linejoin="round" />
<path d="M 91.25 175.0 L 92.5 175.0 L 93.75 177.5 L 103.75 188.75 L 126.25 211.25 L 153.75 230.0 L 180.0 235.0 L 207.5 235.0 L 231.25 235.0 L 246.25 233.75 L 248.75 233.75 " stroke="black" fill="none" stroke-width="6.0" stroke-linecap="round" stroke-linejoin="round" />
<path d="M 171.25 96.25 L 170.0 98.75 L 168.75 100.0 L 175.0 101.25 L 188.75 102.5 L 205.0 102.5 L 215.0 102.5 L 217.5 103.75 L 208.75 112.5 L 193.75 126.25 L 178.75 137.5 L 166.25 145.0 L 165.0 146.25 L 172.5 143.75 L 186.25 138.75 L 200.0 130.0 L 207.5 121.25 L 208.75 113.75 L 207.5 112.5 " stroke="black" fill="none" stroke-width="6.0" stroke-linecap="round" stroke-linejoin="round" />
<path d="M 161.25 102.5 L 160.0 110.0 L 157.5 127.5 L 157.5 153.75 L 161.25 176.25 L 175.0 198.75 L 191.25 202.5 L 207.5 202.5 L 222.5 198.75 L 235.0 195.0 L 242.5 192.5 L 243.75 192.5 L 242.5 192.5 L 242.5 192.5 L 242.5 192.5 L 241.25 187.5 L 241.25 170.0 L 241.25 157.5 " stroke="black" fill="none" stroke-width="6.0" stroke-linecap="round" stroke-linejoin="round" />
</svg>