<svg xmlns="http://www.w3.org/2000/svg" width="300" height="300" viewBox="0 0 300 300">
<path d="M 75.0 106.25 L 71.25 108.75 L 70.0 110.0 L 78.75 108.75 L 93.75 106.25 L 111.25 100.0 L 126.25 91.25 L 128.75 86.25 " stroke="black" fill="none" stroke-width="6.0" stroke-linecap="round" stroke-linejoin="round" />
<path d="M 97.5 87.5 L 96.25 92.5 L 95.0 101.25 L 96.25 118.75 L 96.25 133.75 L 93.75 138.75 L 87.5 138.75 L 77.5 138.75 L 66.25 142.5 L 61.25 145.0 L 62.5 145.0 L 77.5 145.0 L 97.5 140.0 L 118.75 131.25 L 132.5 123.75 L 135.0 120.0 L 125.0 121.25 L 112.5 128.75 L 103.75 136.25 L 98.75 147.5 L 98.75 170.0 L 101.25 195.0 L 103.75 203.75 L 105.0 202.5 L 105.0 200.0 L 108.75 193.75 L 116.25 183.75 L 125.0 172.5 L 131.25 161.25 L 133.75 155.0 L 128.75 152.5 " stroke="black" fill="none" stroke-width="6.0" stroke-linecap="round" stroke-linejoin="round" />
<path d="M 76.25 146.25 L 75.0 147.5 L 72.5 158.75 L 72.5 185.0 L 72.5 218.75 L 73.75 238.75 L 73.75 238.75 L 73.75 237.5 " stroke="black" fill="none" stroke-width="6.0" stroke-linecap="round" stroke-linejoin="round" />
<path d="M 76.25 191.25 L 76.25 193.75 L 77.5 200.0 L 93.75 211.25 L 131.25 226.25 L 170.0 236.25 L 203.75 237.5 L 222.5 241.25 L 233.75 238.75 L 233.75 237.5 " stroke="black" fill="none" stroke-width="6.0" stroke-linecap="round" stroke-linejoin="round" />
<path d="M 178.75 108.75 L 177.5 108.75 L 173.75 108.75 L 172.5 108.75 L 181.25 108.75 L 195.0 108.75 L 207.5 112.5 L 215.0 117.5 L 211.25 127.5 L 197.5 138.75 L 177.5 148.75 L 163.75 155.0 L 161.25 156.25 L 168.75 155.0 L 185.0 148.75 L 202.5 141.25 L 212.5 133.75 L 212.5 130.0 " stroke="black" fill="none" stroke-width="6.0" stroke-linecap="round" stroke-linejoin="round" />
<path d="M 161.25 117.5 L 160.0 122.5 L 160.0 133.75 L 163.75 162.5 L 172.5 197.5 L 185.0 213.75 L 201.25 217.5 L 215.0 217.5 L 230.0 212.5 L 241.25 206.25 L 247.5 202.5 L 250.0 200.0 L 250.0 197.5 L 250.0 195.0 L 250.0 186.25 L 250.0 165.0 L 250.0 131.25 " stroke="black" fill="none" stroke-width="6.0" stroke-linecap="round" stroke-linejoin="round" />
</svg>