<svg xmlns="http://www.w3.org/2000/svg" width="300" height="300" viewBox="0 0 300 300">
<path d="M 87.5 93.75 L 83.75 95.0 L 78.75 100.0 L 72.5 115.0 L 62.5 138.75 L 53.75 151.25 L 48.75 153.75 " stroke="black" fill="none" stroke-width="6.0" stroke-linecap="round" stroke-linejoin="round" />
<path d="M 95.0 100.0 L 98.75 98.75 L 106.25 98.75 L 118.75 98.75 L 130.0 102.5 L 133.75 108.75 L 133.75 110.0 " stroke="black" fill="none" stroke-width="6.0" stroke-linecap="round" stroke-linejoin="round" />
<path d="M 97.5 135.0 L 93.75 141.25 L 82.5 155.0 L 68.75 177.5 L 53.75 197.5 L 46.25 201.25 L 43.75 200.0 " stroke="black" fill="none" stroke-width="6.0" stroke-linecap="round" stroke-linejoin="round" />
<path d="M 95.0 141.25 L 96.25 141.25 L 103.75 140.0 L 121.25 142.5 L 141.25 148.75 L 152.5 153.75 L 150.0 160.0 L 147.5 161.25 " stroke="black" fill="none" stroke-width="6.0" stroke-linecap="round" stroke-linejoin="round" />
<path d="M 78.75 180.0 L 78.75 182.5 L 81.25 187.5 L 90.0 198.75 L 101.25 212.5 L 107.5 217.5 L 107.5 217.5 L 101.25 212.5 L 93.75 206.25 L 88.75 200.0 L 86.25 195.0 L 88.75 188.75 L 122.5 177.5 L 135.0 176.25 L 135.0 185.0 L 121.25 198.75 L 107.5 210.0 L 98.75 212.5 L 98.75 202.5 " stroke="black" fill="none" stroke-width="6.0" stroke-linecap="round" stroke-linejoin="round" />
<path d="M 161.25 77.5 L 161.25 76.25 L 160.0 76.25 L 157.5 77.5 L 156.25 92.5 L 156.25 110.0 L 162.5 117.5 L 173.75 116.25 L 190.0 105.0 L 205.0 93.75 L 212.5 87.5 L 215.0 86.25 L 211.25 91.25 L 203.75 103.75 L 193.75 120.0 L 185.0 132.5 L 182.5 135.0 " stroke="black" fill="none" stroke-width="6.0" stroke-linecap="round" stroke-linejoin="round" />
<path d="M 178.75 120.0 L 178.75 120.0 L 176.25 126.25 L 172.5 147.5 L 167.5 178.75 L 161.25 202.5 L 152.5 213.75 L 145.0 216.25 L 141.25 213.75 " stroke="black" fill="none" stroke-width="6.0" stroke-linecap="round" stroke-linejoin="round" />
<path d="M 168.75 152.5 L 171.25 155.0 L 180.0 165.0 L 197.5 185.0 L 216.25 205.0 L 233.75 218.75 L 248.75 230.0 L 256.25 236.25 " stroke="black" fill="none" stroke-width="6.0" stroke-linecap="round" stroke-linejoin="round" />
</svg>