<svg xmlns="http://www.w3.org/2000/svg" width="300" height="300" viewBox="0 0 300 300">
<path d="M 90.0 130.0 L 88.75 130.0 L 88.75 130.0 L 96.25 126.25 L 113.75 118.75 L 136.25 106.25 L 148.75 97.5 L 150.0 93.75 L 143.75 93.75 " stroke="black" fill="none" stroke-width="6.0" stroke-linecap="round" stroke-linejoin="round" />
<path d="M 106.25 93.75 L 106.25 95.0 L 103.75 98.75 L 103.75 103.75 L 107.5 122.5 L 115.0 146.25 L 121.25 157.5 L 130.0 157.5 L 143.75 148.75 L 158.75 136.25 L 176.25 127.5 L 192.5 122.5 L 198.75 128.75 L 198.75 148.75 L 192.5 183.75 L 186.25 211.25 L 182.5 225.0 L 182.5 227.5 L 182.5 225.0 L 182.5 217.5 L 181.25 206.25 L 176.25 197.5 " stroke="black" fill="none" stroke-width="6.0" stroke-linecap="round" stroke-linejoin="round" />
<path d="M 90.0 213.75 L 83.75 216.25 L 81.25 217.5 L 87.5 216.25 L 102.5 207.5 L 123.75 196.25 L 145.0 182.5 L 152.5 173.75 L 148.75 172.5 L 141.25 173.75 " stroke="black" fill="none" stroke-width="6.0" stroke-linecap="round" stroke-linejoin="round" />
<path d="M 108.75 175.0 L 103.75 176.25 L 101.25 183.75 L 106.25 201.25 L 116.25 222.5 L 122.5 237.5 L 123.75 240.0 L 123.75 236.25 " stroke="black" fill="none" stroke-width="6.0" stroke-linecap="round" stroke-linejoin="round" />
<path d="M 136.25 168.75 L 136.25 162.5 L 138.75 166.25 L 143.75 187.5 L 145.0 216.25 L 146.25 245.0 L 145.0 256.25 L 142.5 257.5 " stroke="black" fill="none" stroke-width="6.0" stroke-linecap="round" stroke-linejoin="round" />
</svg>