<svg xmlns="http://www.w3.org/2000/svg" width="300" height="300" viewBox="0 0 300 300">
<path d="M 71.25 108.75 L 70.0 111.25 L 68.75 113.75 L 71.25 113.75 L 80.0 110.0 L 92.5 103.75 L 100.0 98.75 L 102.5 97.5 " stroke="black" fill="none" stroke-width="6.0" stroke-linecap="round" stroke-linejoin="round" />
<path d="M 63.75 155.0 L 63.75 156.25 L 61.25 161.25 L 63.75 161.25 L 73.75 152.5 L 83.75 145.0 L 97.5 131.25 L 100.0 127.5 L 97.5 130.0 " stroke="black" fill="none" stroke-width="6.0" stroke-linecap="round" stroke-linejoin="round" />
<path d="M 66.25 211.25 L 65.0 213.75 L 60.0 222.5 L 60.0 222.5 L 70.0 211.25 L 82.5 192.5 L 95.0 167.5 L 100.0 152.5 " stroke="black" fill="none" stroke-width="6.0" stroke-linecap="round" stroke-linejoin="round" />
<path d="M 146.25 65.0 L 146.25 63.75 L 145.0 63.75 L 145.0 63.75 L 148.75 63.75 L 158.75 62.5 L 165.0 62.5 L 166.25 63.75 " stroke="black" fill="none" stroke-width="6.0" stroke-linecap="round" stroke-linejoin="round" />
<path d="M 131.25 95.0 L 123.75 101.25 L 122.5 102.5 L 132.5 100.0 L 147.5 90.0 L 165.0 80.0 L 178.75 71.25 L 181.25 68.75 L 173.75 76.25 L 158.75 96.25 L 142.5 125.0 L 120.0 155.0 L 101.25 173.75 L 92.5 180.0 L 91.25 178.75 L 91.25 171.25 " stroke="black" fill="none" stroke-width="6.0" stroke-linecap="round" stroke-linejoin="round" />
<path d="M 125.0 117.5 L 126.25 116.25 L 132.5 116.25 L 147.5 118.75 L 170.0 125.0 L 201.25 127.5 L 221.25 128.75 L 226.25 130.0 L 221.25 132.5 L 207.5 136.25 L 197.5 137.5 " stroke="black" fill="none" stroke-width="6.0" stroke-linecap="round" stroke-linejoin="round" />
<path d="M 140.0 141.25 L 138.75 141.25 L 136.25 141.25 L 135.0 148.75 L 136.25 178.75 L 140.0 211.25 L 145.0 228.75 L 147.5 233.75 L 148.75 233.75 " stroke="black" fill="none" stroke-width="6.0" stroke-linecap="round" stroke-linejoin="round" />
<path d="M 181.25 142.5 L 183.75 142.5 L 186.25 145.0 L 190.0 163.75 L 191.25 198.75 L 191.25 223.75 L 188.75 242.5 L 182.5 250.0 " stroke="black" fill="none" stroke-width="6.0" stroke-linecap="round" stroke-linejoin="round" />
<path d="M 141.25 195.0 L 138.75 195.0 L 133.75 195.0 L 135.0 191.25 L 150.0 181.25 L 173.75 167.5 L 190.0 157.5 L 192.5 155.0 " stroke="black" fill="none" stroke-width="6.0" stroke-linecap="round" stroke-linejoin="round" />
<path d="M 147.5 206.25 L 146.25 208.75 L 145.0 211.25 L 153.75 206.25 L 175.0 195.0 L 192.5 185.0 " stroke="black" fill="none" stroke-width="6.0" stroke-linecap="round" stroke-linejoin="round" />
</svg>