<svg xmlns="http://www.w3.org/2000/svg" width="300" height="300" viewBox="0 0 300 300">
<path d="M 91.25 108.75 L 90.0 108.75 L 87.5 108.75 L 86.25 108.75 L 85.0 116.25 L 80.0 133.75 L 70.0 155.0 L 60.0 165.0 L 57.5 165.0 " stroke="black" fill="none" stroke-width="6.0" stroke-linecap="round" stroke-linejoin="round" />
<path d="M 102.5 128.75 L 101.25 131.25 L 98.75 137.5 L 93.75 155.0 L 83.75 183.75 L 71.25 203.75 L 66.25 205.0 " stroke="black" fill="none" stroke-width="6.0" stroke-linecap="round" stroke-linejoin="round" />
<path d="M 95.0 167.5 L 95.0 171.25 L 95.0 186.25 L 93.75 210.0 L 90.0 235.0 L 86.25 250.0 " stroke="black" fill="none" stroke-width="6.0" stroke-linecap="round" stroke-linejoin="round" />
<path d="M 118.75 100.0 L 118.75 97.5 L 117.5 95.0 L 117.5 95.0 L 117.5 106.25 L 117.5 123.75 L 120.0 133.75 L 127.5 137.5 L 140.0 130.0 L 152.5 116.25 L 162.5 105.0 L 167.5 98.75 L 167.5 98.75 L 157.5 106.25 L 153.75 112.5 " stroke="black" fill="none" stroke-width="6.0" stroke-linecap="round" stroke-linejoin="round" />
<path d="M 120.0 166.25 L 120.0 167.5 L 120.0 167.5 L 130.0 165.0 L 145.0 157.5 L 160.0 148.75 L 165.0 141.25 L 163.75 140.0 L 157.5 140.0 L 153.75 140.0 L 150.0 140.0 L 147.5 140.0 L 146.25 142.5 L 145.0 150.0 L 145.0 171.25 L 146.25 200.0 L 147.5 218.75 L 147.5 223.75 L 147.5 221.25 L 147.5 212.5 " stroke="black" fill="none" stroke-width="6.0" stroke-linecap="round" stroke-linejoin="round" />
<path d="M 148.75 195.0 L 148.75 193.75 L 146.25 192.5 L 147.5 191.25 L 153.75 185.0 L 163.75 177.5 L 170.0 172.5 L 167.5 171.25 L 165.0 172.5 " stroke="black" fill="none" stroke-width="6.0" stroke-linecap="round" stroke-linejoin="round" />
<path d="M 122.5 192.5 L 121.25 193.75 L 117.5 201.25 L 120.0 212.5 L 128.75 226.25 L 142.5 233.75 L 157.5 230.0 L 172.5 216.25 L 186.25 202.5 L 193.75 192.5 L 195.0 185.0 " stroke="black" fill="none" stroke-width="6.0" stroke-linecap="round" stroke-linejoin="round" />
<path d="M 198.75 121.25 L 195.0 122.5 L 192.5 122.5 L 196.25 123.75 L 206.25 125.0 L 217.5 125.0 L 230.0 125.0 L 236.25 131.25 L 237.5 142.5 L 227.5 158.75 L 218.75 168.75 L 213.75 172.5 L 210.0 172.5 L 208.75 166.25 L 207.5 158.75 L 207.5 150.0 L 207.5 142.5 L 207.5 133.75 L 206.25 128.75 L 205.0 127.5 L 205.0 127.5 L 205.0 132.5 L 205.0 150.0 L 205.0 181.25 L 205.0 216.25 L 206.25 241.25 L 207.5 252.5 L 208.75 256.25 L 208.75 256.25 L 203.75 256.25 L 202.5 255.0 " stroke="black" fill="none" stroke-width="6.0" stroke-linecap="round" stroke-linejoin="round" />
</svg>