<svg xmlns="http://www.w3.org/2000/svg" width="300" height="300" viewBox="0 0 300 300">
<path d="M 82.5 93.75 L 82.5 93.75 L 82.5 93.75 L 78.75 103.75 L 66.25 130.0 L 53.75 147.5 L 47.5 150.0 " stroke="black" fill="none" stroke-width="6.0" stroke-linecap="round" stroke-linejoin="round" />
<path d="M 83.75 131.25 L 83.75 132.5 L 83.75 138.75 L 76.25 156.25 L 62.5 177.5 L 48.75 191.25 L 42.5 193.75 L 41.25 193.75 " stroke="black" fill="none" stroke-width="6.0" stroke-linecap="round" stroke-linejoin="round" />
<path d="M 75.0 165.0 L 76.25 165.0 L 77.5 165.0 L 80.0 175.0 L 80.0 201.25 L 75.0 227.5 L 66.25 243.75 L 61.25 246.25 " stroke="black" fill="none" stroke-width="6.0" stroke-linecap="round" stroke-linejoin="round" />
<path d="M 110.0 93.75 L 110.0 93.75 L 110.0 92.5 L 110.0 93.75 L 111.25 98.75 L 120.0 102.5 L 136.25 98.75 L 151.25 88.75 L 160.0 80.0 L 158.75 78.75 L 148.75 91.25 L 136.25 111.25 " stroke="black" fill="none" stroke-width="6.0" stroke-linecap="round" stroke-linejoin="round" />
<path d="M 106.25 165.0 L 103.75 168.75 L 103.75 172.5 L 111.25 170.0 L 127.5 158.75 L 146.25 143.75 L 157.5 131.25 L 161.25 123.75 L 156.25 122.5 L 150.0 125.0 L 145.0 128.75 L 140.0 130.0 L 137.5 132.5 L 136.25 138.75 L 136.25 158.75 L 137.5 193.75 L 138.75 215.0 L 141.25 218.75 L 142.5 212.5 L 143.75 202.5 L 145.0 193.75 L 146.25 186.25 L 146.25 181.25 L 147.5 177.5 L 151.25 171.25 L 156.25 163.75 L 160.0 155.0 L 158.75 152.5 " stroke="black" fill="none" stroke-width="6.0" stroke-linecap="round" stroke-linejoin="round" />
<path d="M 101.25 192.5 L 101.25 193.75 L 100.0 197.5 L 103.75 206.25 L 116.25 220.0 L 132.5 225.0 L 150.0 218.75 L 162.5 205.0 L 172.5 191.25 L 176.25 180.0 " stroke="black" fill="none" stroke-width="6.0" stroke-linecap="round" stroke-linejoin="round" />
<path d="M 196.25 108.75 L 192.5 110.0 L 188.75 111.25 L 190.0 111.25 L 201.25 108.75 L 217.5 102.5 L 235.0 96.25 L 247.5 93.75 L 252.5 103.75 L 248.75 123.75 L 238.75 141.25 L 230.0 150.0 L 223.75 152.5 L 220.0 151.25 L 216.25 146.25 L 213.75 140.0 L 211.25 135.0 L 210.0 128.75 L 208.75 122.5 L 207.5 118.75 L 207.5 115.0 L 207.5 112.5 L 207.5 111.25 L 207.5 110.0 L 207.5 110.0 L 207.5 111.25 L 208.75 113.75 L 208.75 116.25 L 210.0 120.0 L 210.0 126.25 L 211.25 137.5 L 212.5 158.75 L 212.5 191.25 L 211.25 221.25 L 210.0 241.25 L 210.0 253.75 L 208.75 258.75 L 206.25 258.75 " stroke="black" fill="none" stroke-width="6.0" stroke-linecap="round" stroke-linejoin="round" />
</svg>