<svg xmlns="http://www.w3.org/2000/svg" width="300" height="300" viewBox="0 0 300 300">
<path d="M 63.75 125.0 L 63.75 125.0 L 63.75 125.0 L 65.0 126.25 L 66.25 133.75 L 67.5 143.75 L 70.0 152.5 L 73.75 155.0 L 83.75 151.25 L 93.75 143.75 L 108.75 128.75 L 116.25 120.0 L 116.25 115.0 L 108.75 113.75 L 101.25 115.0 L 95.0 116.25 L 91.25 116.25 L 88.75 115.0 L 86.25 110.0 L 85.0 103.75 L 83.75 100.0 L 83.75 98.75 L 83.75 103.75 L 88.75 128.75 L 92.5 177.5 L 92.5 222.5 L 86.25 243.75 L 76.25 248.75 " stroke="black" fill="none" stroke-width="6.0" stroke-linecap="round" stroke-linejoin="round" />
<path d="M 136.25 85.0 L 135.0 85.0 L 132.5 86.25 L 131.25 87.5 L 132.5 97.5 L 135.0 120.0 L 137.5 140.0 L 138.75 146.25 L 138.75 143.75 L 138.75 142.5 " stroke="black" fill="none" stroke-width="6.0" stroke-linecap="round" stroke-linejoin="round" />
<path d="M 137.5 82.5 L 137.5 82.5 L 137.5 80.0 L 138.75 77.5 L 145.0 75.0 L 151.25 73.75 L 157.5 73.75 L 161.25 82.5 L 162.5 100.0 L 162.5 123.75 L 162.5 140.0 L 162.5 146.25 L 162.5 145.0 L 160.0 141.25 " stroke="black" fill="none" stroke-width="6.0" stroke-linecap="round" stroke-linejoin="round" />
<path d="M 140.0 108.75 L 138.75 108.75 L 138.75 108.75 L 140.0 107.5 L 146.25 102.5 L 152.5 96.25 L 155.0 93.75 L 155.0 92.5 " stroke="black" fill="none" stroke-width="6.0" stroke-linecap="round" stroke-linejoin="round" />
<path d="M 140.0 130.0 L 138.75 131.25 L 138.75 131.25 L 142.5 128.75 L 151.25 120.0 L 161.25 107.5 L 162.5 105.0 " stroke="black" fill="none" stroke-width="6.0" stroke-linecap="round" stroke-linejoin="round" />
<path d="M 147.5 143.75 L 147.5 146.25 L 147.5 147.5 L 156.25 140.0 L 171.25 125.0 " stroke="black" fill="none" stroke-width="6.0" stroke-linecap="round" stroke-linejoin="round" />
<path d="M 196.25 70.0 L 195.0 78.75 L 193.75 93.75 L 195.0 115.0 L 197.5 132.5 L 198.75 138.75 L 198.75 138.75 L 198.75 136.25 " stroke="black" fill="none" stroke-width="6.0" stroke-linecap="round" stroke-linejoin="round" />
<path d="M 196.25 76.25 L 195.0 76.25 L 195.0 75.0 L 198.75 72.5 L 205.0 70.0 L 212.5 70.0 L 218.75 77.5 L 222.5 93.75 L 223.75 115.0 L 223.75 128.75 L 223.75 135.0 L 222.5 135.0 L 220.0 132.5 L 216.25 128.75 L 212.5 125.0 " stroke="black" fill="none" stroke-width="6.0" stroke-linecap="round" stroke-linejoin="round" />
<path d="M 196.25 100.0 L 196.25 100.0 L 195.0 100.0 L 195.0 101.25 L 196.25 100.0 L 202.5 96.25 L 211.25 91.25 L 216.25 86.25 L 216.25 86.25 " stroke="black" fill="none" stroke-width="6.0" stroke-linecap="round" stroke-linejoin="round" />
<path d="M 195.0 120.0 L 192.5 123.75 L 192.5 125.0 L 197.5 122.5 L 206.25 115.0 L 215.0 107.5 L 218.75 102.5 " stroke="black" fill="none" stroke-width="6.0" stroke-linecap="round" stroke-linejoin="round" />
<path d="M 205.0 135.0 L 205.0 135.0 L 206.25 135.0 L 215.0 127.5 L 220.0 121.25 " stroke="black" fill="none" stroke-width="6.0" stroke-linecap="round" stroke-linejoin="round" />
<path d="M 168.75 150.0 L 166.25 152.5 L 158.75 162.5 L 148.75 180.0 L 137.5 201.25 L 132.5 211.25 L 131.25 211.25 L 136.25 202.5 L 141.25 192.5 L 147.5 182.5 L 152.5 171.25 L 156.25 165.0 L 157.5 167.5 L 158.75 191.25 L 160.0 223.75 L 160.0 253.75 L 157.5 267.5 L 157.5 267.5 L 156.25 258.75 " stroke="black" fill="none" stroke-width="6.0" stroke-linecap="round" stroke-linejoin="round" />
<path d="M 180.0 156.25 L 182.5 155.0 L 187.5 153.75 L 193.75 153.75 L 201.25 155.0 L 207.5 158.75 L 208.75 161.25 L 208.75 162.5 " stroke="black" fill="none" stroke-width="6.0" stroke-linecap="round" stroke-linejoin="round" />
<path d="M 175.0 193.75 L 175.0 193.75 L 175.0 195.0 L 175.0 195.0 L 185.0 191.25 L 198.75 182.5 L 212.5 171.25 L 217.5 162.5 L 216.25 162.5 " stroke="black" fill="none" stroke-width="6.0" stroke-linecap="round" stroke-linejoin="round" />
<path d="M 178.75 218.75 L 178.75 221.25 L 180.0 221.25 L 190.0 217.5 L 205.0 205.0 L 216.25 192.5 L 220.0 183.75 L 217.5 183.75 " stroke="black" fill="none" stroke-width="6.0" stroke-linecap="round" stroke-linejoin="round" />
<path d="M 202.5 190.0 L 202.5 190.0 L 202.5 192.5 L 202.5 203.75 L 202.5 225.0 L 201.25 245.0 L 200.0 251.25 L 198.75 251.25 L 197.5 251.25 " stroke="black" fill="none" stroke-width="6.0" stroke-linecap="round" stroke-linejoin="round" />
<path d="M 188.75 245.0 L 185.0 245.0 L 182.5 245.0 L 182.5 246.25 L 191.25 243.75 L 205.0 235.0 L 220.0 223.75 L 232.5 212.5 L 236.25 206.25 L 233.75 206.25 L 231.25 207.5 " stroke="black" fill="none" stroke-width="6.0" stroke-linecap="round" stroke-linejoin="round" />
<path d="M 186.25 266.25 L 183.75 268.75 L 182.5 270.0 L 181.25 271.25 L 183.75 270.0 L 195.0 263.75 L 206.25 256.25 L 227.5 245.0 L 238.75 237.5 L 242.5 236.25 L 238.75 236.25 " stroke="black" fill="none" stroke-width="6.0" stroke-linecap="round" stroke-linejoin="round" />
</svg>