<svg xmlns="http://www.w3.org/2000/svg" width="300" height="300" viewBox="0 0 300 300">
<path d="M 80.0 107.5 L 78.75 108.75 L 75.0 110.0 L 73.75 111.25 L 82.5 111.25 L 95.0 107.5 L 106.25 102.5 L 113.75 97.5 L 112.5 97.5 " stroke="black" fill="none" stroke-width="6.0" stroke-linecap="round" stroke-linejoin="round" />
<path d="M 67.5 151.25 L 63.75 155.0 L 58.75 158.75 L 63.75 157.5 L 78.75 148.75 L 91.25 140.0 L 111.25 123.75 L 120.0 115.0 L 118.75 112.5 L 112.5 115.0 L 106.25 121.25 L 100.0 127.5 L 95.0 135.0 L 90.0 143.75 L 88.75 163.75 L 90.0 203.75 L 93.75 236.25 L 95.0 250.0 L 96.25 252.5 L 93.75 252.5 L 92.5 246.25 " stroke="black" fill="none" stroke-width="6.0" stroke-linecap="round" stroke-linejoin="round" />
<path d="M 86.25 170.0 L 82.5 177.5 L 75.0 192.5 L 67.5 206.25 L 60.0 216.25 L 56.25 217.5 L 56.25 213.75 " stroke="black" fill="none" stroke-width="6.0" stroke-linecap="round" stroke-linejoin="round" />
<path d="M 78.75 170.0 L 80.0 167.5 L 85.0 167.5 L 96.25 176.25 L 110.0 188.75 L 125.0 200.0 L 133.75 205.0 L 136.25 207.5 L 136.25 207.5 " stroke="black" fill="none" stroke-width="6.0" stroke-linecap="round" stroke-linejoin="round" />
<path d="M 138.75 110.0 L 135.0 111.25 L 130.0 112.5 L 130.0 112.5 L 136.25 111.25 L 150.0 105.0 L 165.0 96.25 L 176.25 88.75 L 181.25 85.0 L 177.5 83.75 L 170.0 85.0 L 163.75 86.25 L 157.5 87.5 L 153.75 88.75 L 150.0 90.0 L 150.0 91.25 L 150.0 101.25 L 153.75 125.0 L 156.25 150.0 L 156.25 161.25 L 156.25 161.25 L 155.0 158.75 " stroke="black" fill="none" stroke-width="6.0" stroke-linecap="round" stroke-linejoin="round" />
<path d="M 155.0 115.0 L 155.0 115.0 L 151.25 116.25 L 147.5 125.0 L 142.5 141.25 L 137.5 157.5 L 132.5 163.75 L 131.25 160.0 " stroke="black" fill="none" stroke-width="6.0" stroke-linecap="round" stroke-linejoin="round" />
<path d="M 147.5 118.75 L 147.5 118.75 L 148.75 118.75 L 152.5 120.0 L 161.25 127.5 L 175.0 137.5 L 186.25 143.75 L 187.5 143.75 " stroke="black" fill="none" stroke-width="6.0" stroke-linecap="round" stroke-linejoin="round" />
<path d="M 177.5 102.5 L 176.25 102.5 L 172.5 103.75 L 171.25 103.75 L 177.5 103.75 L 191.25 97.5 L 205.0 90.0 L 215.0 82.5 L 218.75 77.5 L 217.5 76.25 L 211.25 77.5 L 206.25 78.75 L 202.5 78.75 L 201.25 78.75 L 198.75 78.75 L 198.75 77.5 L 198.75 77.5 L 200.0 90.0 L 202.5 115.0 L 205.0 138.75 L 206.25 152.5 L 203.75 153.75 L 202.5 152.5 " stroke="black" fill="none" stroke-width="6.0" stroke-linecap="round" stroke-linejoin="round" />
<path d="M 201.25 98.75 L 201.25 98.75 L 197.5 102.5 L 192.5 113.75 L 185.0 132.5 L 176.25 148.75 L 170.0 152.5 L 170.0 146.25 " stroke="black" fill="none" stroke-width="6.0" stroke-linecap="round" stroke-linejoin="round" />
<path d="M 197.5 106.25 L 197.5 106.25 L 201.25 107.5 L 208.75 115.0 L 222.5 126.25 L 228.75 131.25 " stroke="black" fill="none" stroke-width="6.0" stroke-linecap="round" stroke-linejoin="round" />
<path d="M 148.75 180.0 L 145.0 182.5 L 143.75 183.75 L 145.0 183.75 L 157.5 182.5 L 177.5 176.25 L 197.5 165.0 L 208.75 156.25 L 210.0 153.75 L 203.75 156.25 " stroke="black" fill="none" stroke-width="6.0" stroke-linecap="round" stroke-linejoin="round" />
<path d="M 148.75 208.75 L 147.5 212.5 L 147.5 213.75 L 157.5 210.0 L 176.25 200.0 L 198.75 186.25 L 211.25 173.75 L 215.0 168.75 L 208.75 171.25 L 202.5 176.25 L 196.25 182.5 L 190.0 187.5 L 186.25 193.75 L 183.75 202.5 L 183.75 218.75 L 188.75 236.25 L 192.5 247.5 L 192.5 251.25 L 190.0 251.25 L 183.75 251.25 L 182.5 250.0 " stroke="black" fill="none" stroke-width="6.0" stroke-linecap="round" stroke-linejoin="round" />
<path d="M 145.0 216.25 L 145.0 216.25 L 141.25 216.25 L 140.0 217.5 L 140.0 223.75 L 145.0 237.5 L 151.25 250.0 L 157.5 256.25 L 161.25 256.25 L 162.5 255.0 " stroke="black" fill="none" stroke-width="6.0" stroke-linecap="round" stroke-linejoin="round" />
<path d="M 218.75 207.5 L 221.25 208.75 L 225.0 210.0 L 231.25 213.75 L 238.75 220.0 L 246.25 226.25 L 252.5 233.75 L 253.75 238.75 L 255.0 241.25 " stroke="black" fill="none" stroke-width="6.0" stroke-linecap="round" stroke-linejoin="round" />
</svg>