<svg xmlns="http://www.w3.org/2000/svg" width="300" height="300" viewBox="0 0 300 300">
<path d="M 76.25 101.25 L 73.75 102.5 L 71.25 102.5 L 72.5 102.5 L 82.5 102.5 L 93.75 100.0 L 102.5 96.25 L 106.25 95.0 L 103.75 95.0 " stroke="black" fill="none" stroke-width="6.0" stroke-linecap="round" stroke-linejoin="round" />
<path d="M 62.5 146.25 L 57.5 151.25 L 57.5 152.5 L 62.5 152.5 L 81.25 141.25 L 96.25 130.0 L 107.5 120.0 L 108.75 117.5 L 102.5 120.0 L 96.25 128.75 L 92.5 141.25 L 93.75 172.5 L 103.75 221.25 L 108.75 251.25 L 110.0 258.75 L 107.5 260.0 L 98.75 255.0 L 91.25 245.0 L 86.25 226.25 L 85.0 220.0 " stroke="black" fill="none" stroke-width="6.0" stroke-linecap="round" stroke-linejoin="round" />
<path d="M 93.75 157.5 L 92.5 160.0 L 82.5 175.0 L 71.25 198.75 L 61.25 212.5 L 55.0 215.0 L 53.75 207.5 " stroke="black" fill="none" stroke-width="6.0" stroke-linecap="round" stroke-linejoin="round" />
<path d="M 83.75 165.0 L 83.75 165.0 L 86.25 165.0 L 92.5 168.75 L 105.0 183.75 L 121.25 196.25 L 132.5 200.0 L 133.75 200.0 " stroke="black" fill="none" stroke-width="6.0" stroke-linecap="round" stroke-linejoin="round" />
<path d="M 125.0 103.75 L 125.0 103.75 L 125.0 103.75 L 128.75 102.5 L 141.25 96.25 L 157.5 86.25 L 168.75 77.5 L 168.75 73.75 L 161.25 73.75 " stroke="black" fill="none" stroke-width="6.0" stroke-linecap="round" stroke-linejoin="round" />
<path d="M 143.75 86.25 L 142.5 90.0 L 141.25 103.75 L 141.25 131.25 L 142.5 151.25 L 143.75 160.0 L 142.5 158.75 L 140.0 151.25 " stroke="black" fill="none" stroke-width="6.0" stroke-linecap="round" stroke-linejoin="round" />
<path d="M 142.5 116.25 L 141.25 113.75 L 138.75 113.75 L 133.75 127.5 L 123.75 150.0 L 117.5 165.0 L 115.0 165.0 " stroke="black" fill="none" stroke-width="6.0" stroke-linecap="round" stroke-linejoin="round" />
<path d="M 142.5 106.25 L 142.5 106.25 L 143.75 106.25 L 151.25 111.25 L 163.75 123.75 L 178.75 132.5 L 182.5 133.75 " stroke="black" fill="none" stroke-width="6.0" stroke-linecap="round" stroke-linejoin="round" />
<path d="M 170.0 107.5 L 170.0 106.25 L 168.75 106.25 L 172.5 103.75 L 186.25 97.5 L 203.75 87.5 L 215.0 80.0 L 218.75 75.0 L 213.75 75.0 L 206.25 75.0 L 200.0 75.0 L 195.0 73.75 L 193.75 76.25 L 193.75 91.25 L 195.0 118.75 L 195.0 145.0 L 195.0 153.75 L 195.0 152.5 L 192.5 143.75 L 191.25 135.0 " stroke="black" fill="none" stroke-width="6.0" stroke-linecap="round" stroke-linejoin="round" />
<path d="M 196.25 98.75 L 195.0 98.75 L 193.75 98.75 L 188.75 108.75 L 177.5 132.5 L 167.5 148.75 L 161.25 148.75 " stroke="black" fill="none" stroke-width="6.0" stroke-linecap="round" stroke-linejoin="round" />
<path d="M 193.75 101.25 L 193.75 101.25 L 196.25 101.25 L 202.5 102.5 L 211.25 111.25 L 222.5 122.5 L 231.25 132.5 L 228.75 138.75 " stroke="black" fill="none" stroke-width="6.0" stroke-linecap="round" stroke-linejoin="round" />
<path d="M 155.0 171.25 L 155.0 171.25 L 153.75 172.5 L 153.75 172.5 L 160.0 172.5 L 176.25 167.5 L 195.0 158.75 L 207.5 151.25 L 210.0 148.75 L 205.0 151.25 L 193.75 156.25 " stroke="black" fill="none" stroke-width="6.0" stroke-linecap="round" stroke-linejoin="round" />
<path d="M 147.5 201.25 L 146.25 203.75 L 146.25 205.0 L 151.25 205.0 L 171.25 195.0 L 200.0 176.25 L 220.0 158.75 L 226.25 151.25 L 223.75 151.25 L 213.75 157.5 L 203.75 163.75 L 197.5 170.0 L 192.5 177.5 L 192.5 187.5 L 195.0 203.75 L 198.75 223.75 L 201.25 237.5 L 201.25 242.5 L 201.25 242.5 L 197.5 242.5 L 188.75 238.75 L 178.75 236.25 " stroke="black" fill="none" stroke-width="6.0" stroke-linecap="round" stroke-linejoin="round" />
<path d="M 142.5 208.75 L 141.25 208.75 L 141.25 208.75 L 145.0 213.75 L 156.25 223.75 L 175.0 235.0 L 191.25 237.5 L 192.5 235.0 " stroke="black" fill="none" stroke-width="6.0" stroke-linecap="round" stroke-linejoin="round" />
<path d="M 226.25 195.0 L 226.25 195.0 L 226.25 195.0 L 226.25 195.0 L 231.25 198.75 L 241.25 213.75 L 248.75 232.5 L 253.75 241.25 " stroke="black" fill="none" stroke-width="6.0" stroke-linecap="round" stroke-linejoin="round" />
</svg>