<svg xmlns="http://www.w3.org/2000/svg" width="300" height="300" viewBox="0 0 300 300">
<path d="M 106.25 112.5 L 103.75 107.5 L 102.5 106.25 L 101.25 110.0 L 102.5 138.75 L 105.0 177.5 L 107.5 208.75 L 108.75 218.75 L 108.75 217.5 " stroke="black" fill="none" stroke-width="6.0" stroke-linecap="round" stroke-linejoin="round" />
<path d="M 106.25 116.25 L 107.5 115.0 L 112.5 110.0 L 125.0 102.5 L 145.0 93.75 L 166.25 88.75 L 185.0 91.25 L 196.25 112.5 L 198.75 152.5 L 200.0 191.25 L 200.0 217.5 L 200.0 223.75 L 200.0 222.5 L 198.75 217.5 L 195.0 205.0 L 187.5 192.5 L 175.0 181.25 " stroke="black" fill="none" stroke-width="6.0" stroke-linecap="round" stroke-linejoin="round" />
<path d="M 120.0 161.25 L 116.25 163.75 L 116.25 165.0 L 128.75 160.0 L 147.5 148.75 L 170.0 137.5 L 181.25 132.5 " stroke="black" fill="none" stroke-width="6.0" stroke-linecap="round" stroke-linejoin="round" />
<path d="M 118.75 211.25 L 118.75 212.5 L 115.0 217.5 L 117.5 218.75 L 135.0 215.0 L 158.75 202.5 L 186.25 188.75 L 192.5 183.75 " stroke="black" fill="none" stroke-width="6.0" stroke-linecap="round" stroke-linejoin="round" />
</svg>