<svg xmlns="http://www.w3.org/2000/svg" width="300" height="300" viewBox="0 0 300 300">
<path d="M 122.5 113.75 L 121.25 115.0 L 118.75 137.5 L 118.75 190.0 L 121.25 222.5 L 125.0 235.0 L 127.5 236.25 L 127.5 227.5 " stroke="black" fill="none" stroke-width="6.0" stroke-linecap="round" stroke-linejoin="round" />
<path d="M 123.75 117.5 L 122.5 117.5 L 121.25 113.75 L 123.75 111.25 L 138.75 105.0 L 158.75 98.75 L 181.25 95.0 L 197.5 98.75 L 203.75 121.25 L 205.0 157.5 L 205.0 192.5 L 205.0 211.25 L 203.75 216.25 L 202.5 216.25 L 201.25 215.0 L 198.75 208.75 L 193.75 200.0 L 183.75 190.0 L 181.25 187.5 " stroke="black" fill="none" stroke-width="6.0" stroke-linecap="round" stroke-linejoin="round" />
<path d="M 131.25 186.25 L 130.0 186.25 L 123.75 186.25 L 121.25 186.25 L 126.25 183.75 L 142.5 171.25 L 163.75 155.0 L 180.0 143.75 L 181.25 142.5 " stroke="black" fill="none" stroke-width="6.0" stroke-linecap="round" stroke-linejoin="round" />
<path d="M 133.75 226.25 L 126.25 238.75 L 126.25 242.5 L 138.75 241.25 L 156.25 227.5 L 176.25 212.5 L 191.25 201.25 L 192.5 198.75 " stroke="black" fill="none" stroke-width="6.0" stroke-linecap="round" stroke-linejoin="round" />
</svg>