<svg xmlns="http://www.w3.org/2000/svg" width="300" height="300" viewBox="0 0 300 300">
<path d="M 111.25 122.5 L 110.0 116.25 L 108.75 113.75 L 108.75 117.5 L 110.0 142.5 L 111.25 180.0 L 112.5 216.25 L 115.0 231.25 L 115.0 225.0 L 115.0 220.0 " stroke="black" fill="none" stroke-width="6.0" stroke-linecap="round" stroke-linejoin="round" />
<path d="M 113.75 111.25 L 113.75 108.75 L 118.75 106.25 L 137.5 102.5 L 161.25 97.5 L 185.0 100.0 L 195.0 118.75 L 196.25 156.25 L 195.0 198.75 L 193.75 228.75 L 195.0 241.25 L 196.25 241.25 L 196.25 237.5 L 192.5 225.0 L 185.0 208.75 L 171.25 195.0 L 163.75 187.5 " stroke="black" fill="none" stroke-width="6.0" stroke-linecap="round" stroke-linejoin="round" />
<path d="M 127.5 170.0 L 123.75 170.0 L 122.5 170.0 L 126.25 166.25 L 147.5 153.75 L 167.5 142.5 L 178.75 136.25 L 178.75 136.25 " stroke="black" fill="none" stroke-width="6.0" stroke-linecap="round" stroke-linejoin="round" />
<path d="M 121.25 226.25 L 117.5 233.75 L 121.25 235.0 L 138.75 225.0 L 162.5 207.5 L 186.25 191.25 " stroke="black" fill="none" stroke-width="6.0" stroke-linecap="round" stroke-linejoin="round" />
</svg>