<svg xmlns="http://www.w3.org/2000/svg" width="300" height="300" viewBox="0 0 300 300">
<path d="M 125.0 110.0 L 120.0 112.5 L 118.75 113.75 L 131.25 113.75 L 148.75 113.75 L 171.25 108.75 L 193.75 100.0 L 200.0 95.0 L 192.5 95.0 " stroke="black" fill="none" stroke-width="6.0" stroke-linecap="round" stroke-linejoin="round" />
<path d="M 105.0 181.25 L 103.75 183.75 L 103.75 187.5 L 120.0 187.5 L 147.5 180.0 L 178.75 163.75 L 205.0 148.75 L 212.5 140.0 L 211.25 138.75 " stroke="black" fill="none" stroke-width="6.0" stroke-linecap="round" stroke-linejoin="round" />
<path d="M 151.25 92.5 L 151.25 96.25 L 155.0 115.0 L 158.75 155.0 L 156.25 193.75 L 146.25 218.75 L 133.75 233.75 L 121.25 240.0 L 111.25 240.0 " stroke="black" fill="none" stroke-width="6.0" stroke-linecap="round" stroke-linejoin="round" />
<path d="M 170.0 187.5 L 171.25 188.75 L 178.75 197.5 L 193.75 207.5 L 207.5 222.5 L 221.25 236.25 L 233.75 243.75 L 241.25 250.0 L 245.0 256.25 L 246.25 258.75 " stroke="black" fill="none" stroke-width="6.0" stroke-linecap="round" stroke-linejoin="round" />
</svg>