<svg xmlns="http://www.w3.org/2000/svg" width="300" height="300" viewBox="0 0 300 300">
<path d="M 91.25 67.5 L 90.0 68.75 L 90.0 68.75 L 92.5 70.0 L 102.5 72.5 L 113.75 75.0 L 116.25 77.5 " stroke="black" fill="none" stroke-width="6.0" stroke-linecap="round" stroke-linejoin="round" />
<path d="M 72.5 110.0 L 68.75 111.25 L 67.5 111.25 L 80.0 108.75 L 97.5 101.25 L 115.0 95.0 L 125.0 91.25 L 121.25 90.0 L 110.0 95.0 L 100.0 101.25 L 91.25 110.0 L 87.5 126.25 L 86.25 146.25 L 86.25 152.5 L 87.5 152.5 " stroke="black" fill="none" stroke-width="6.0" stroke-linecap="round" stroke-linejoin="round" />
<path d="M 107.5 102.5 L 107.5 101.25 L 107.5 98.75 L 107.5 98.75 L 107.5 108.75 L 103.75 125.0 L 96.25 138.75 L 85.0 148.75 L 75.0 153.75 L 72.5 153.75 L 77.5 153.75 L 91.25 146.25 L 110.0 135.0 L 128.75 123.75 L 136.25 117.5 L 130.0 120.0 " stroke="black" fill="none" stroke-width="6.0" stroke-linecap="round" stroke-linejoin="round" />
<path d="M 72.5 188.75 L 70.0 192.5 L 71.25 193.75 L 82.5 187.5 L 101.25 171.25 L 118.75 155.0 L 127.5 146.25 L 123.75 146.25 L 115.0 147.5 L 106.25 151.25 L 101.25 155.0 L 100.0 161.25 L 103.75 180.0 L 111.25 206.25 L 112.5 226.25 L 110.0 236.25 L 102.5 236.25 L 91.25 232.5 L 80.0 227.5 L 71.25 225.0 L 71.25 221.25 L 86.25 211.25 L 111.25 195.0 L 142.5 170.0 L 163.75 143.75 L 167.5 131.25 " stroke="black" fill="none" stroke-width="6.0" stroke-linecap="round" stroke-linejoin="round" />
<path d="M 165.0 81.25 L 165.0 81.25 L 163.75 81.25 L 162.5 81.25 L 172.5 81.25 L 191.25 81.25 L 208.75 81.25 L 216.25 81.25 L 212.5 86.25 " stroke="black" fill="none" stroke-width="6.0" stroke-linecap="round" stroke-linejoin="round" />
<path d="M 160.0 118.75 L 160.0 120.0 L 160.0 127.5 L 163.75 140.0 L 168.75 157.5 L 172.5 168.75 L 172.5 168.75 L 170.0 161.25 L 166.25 152.5 L 165.0 145.0 L 165.0 138.75 L 167.5 132.5 L 180.0 126.25 L 202.5 115.0 L 222.5 103.75 L 232.5 98.75 L 231.25 98.75 L 218.75 106.25 L 207.5 111.25 L 200.0 118.75 L 195.0 125.0 L 195.0 135.0 L 196.25 155.0 L 197.5 191.25 L 197.5 221.25 L 193.75 237.5 L 187.5 242.5 L 175.0 243.75 L 170.0 243.75 " stroke="black" fill="none" stroke-width="6.0" stroke-linecap="round" stroke-linejoin="round" />
</svg>