<svg xmlns="http://www.w3.org/2000/svg" width="300" height="300" viewBox="0 0 300 300">
<path d="M 107.5 133.75 L 105.0 133.75 L 96.25 136.25 L 96.25 137.5 L 110.0 136.25 L 137.5 130.0 L 168.75 115.0 L 198.75 97.5 L 208.75 87.5 L 208.75 85.0 L 200.0 85.0 " stroke="black" fill="none" stroke-width="6.0" stroke-linecap="round" stroke-linejoin="round" />
<path d="M 150.0 92.5 L 147.5 96.25 L 146.25 111.25 L 142.5 156.25 L 130.0 203.75 L 112.5 227.5 L 97.5 240.0 L 86.25 242.5 L 81.25 235.0 " stroke="black" fill="none" stroke-width="6.0" stroke-linecap="round" stroke-linejoin="round" />
<path d="M 141.25 146.25 L 142.5 146.25 L 143.75 146.25 L 150.0 152.5 L 167.5 178.75 L 190.0 206.25 L 207.5 222.5 L 222.5 232.5 L 230.0 236.25 L 231.25 236.25 L 230.0 236.25 L 223.75 236.25 L 211.25 236.25 " stroke="black" fill="none" stroke-width="6.0" stroke-linecap="round" stroke-linejoin="round" />
<path d="M 121.25 218.75 L 121.25 218.75 L 120.0 218.75 L 126.25 220.0 L 137.5 225.0 L 148.75 232.5 " stroke="black" fill="none" stroke-width="6.0" stroke-linecap="round" stroke-linejoin="round" />
</svg>