<svg xmlns="http://www.w3.org/2000/svg" width="300" height="300" viewBox="0 0 300 300">
<path d="M 93.75 140.0 L 93.75 140.0 L 97.5 140.0 L 122.5 132.5 L 158.75 121.25 L 186.25 110.0 L 197.5 102.5 L 197.5 97.5 L 185.0 96.25 " stroke="black" fill="none" stroke-width="6.0" stroke-linecap="round" stroke-linejoin="round" />
<path d="M 137.5 92.5 L 137.5 93.75 L 136.25 103.75 L 135.0 133.75 L 125.0 180.0 L 107.5 216.25 L 92.5 238.75 L 82.5 243.75 L 75.0 241.25 L 75.0 226.25 L 78.75 215.0 " stroke="black" fill="none" stroke-width="6.0" stroke-linecap="round" stroke-linejoin="round" />
<path d="M 141.25 150.0 L 145.0 150.0 L 155.0 155.0 L 172.5 173.75 L 193.75 195.0 L 210.0 211.25 L 225.0 223.75 L 233.75 232.5 L 232.5 237.5 L 222.5 238.75 " stroke="black" fill="none" stroke-width="6.0" stroke-linecap="round" stroke-linejoin="round" />
<path d="M 123.75 196.25 L 122.5 196.25 L 123.75 196.25 L 137.5 201.25 L 165.0 215.0 L 178.75 225.0 " stroke="black" fill="none" stroke-width="6.0" stroke-linecap="round" stroke-linejoin="round" />
</svg>