<svg xmlns="http://www.w3.org/2000/svg" width="300" height="300" viewBox="0 0 300 300">
<path d="M 65.0 131.25 L 61.25 135.0 L 66.25 135.0 L 80.0 131.25 L 98.75 122.5 L 113.75 112.5 L 121.25 105.0 L 118.75 103.75 L 108.75 103.75 L 101.25 105.0 L 96.25 106.25 L 93.75 115.0 L 95.0 147.5 L 102.5 207.5 L 103.75 237.5 L 103.75 243.75 L 101.25 243.75 L 97.5 243.75 L 92.5 241.25 L 85.0 237.5 L 75.0 233.75 L 67.5 230.0 L 65.0 227.5 L 68.75 223.75 L 80.0 215.0 L 100.0 198.75 L 125.0 176.25 L 142.5 155.0 " stroke="black" fill="none" stroke-width="6.0" stroke-linecap="round" stroke-linejoin="round" />
<path d="M 163.75 85.0 L 160.0 87.5 L 160.0 87.5 L 170.0 86.25 L 188.75 81.25 L 207.5 71.25 L 217.5 63.75 L 213.75 61.25 L 205.0 63.75 L 196.25 67.5 L 188.75 70.0 L 180.0 73.75 L 176.25 80.0 L 176.25 95.0 L 176.25 120.0 L 171.25 138.75 L 163.75 146.25 L 153.75 148.75 L 151.25 148.75 L 152.5 148.75 L 161.25 145.0 L 178.75 137.5 L 195.0 130.0 L 208.75 121.25 L 211.25 120.0 " stroke="black" fill="none" stroke-width="6.0" stroke-linecap="round" stroke-linejoin="round" />
<path d="M 147.5 197.5 L 146.25 198.75 L 145.0 201.25 L 151.25 198.75 L 176.25 186.25 L 207.5 165.0 L 227.5 147.5 L 233.75 141.25 L 230.0 140.0 L 221.25 141.25 L 213.75 141.25 L 208.75 141.25 L 206.25 143.75 L 206.25 153.75 L 207.5 182.5 L 210.0 225.0 L 210.0 253.75 L 210.0 260.0 L 208.75 261.25 L 207.5 261.25 L 202.5 261.25 L 195.0 257.5 L 182.5 252.5 L 180.0 251.25 " stroke="black" fill="none" stroke-width="6.0" stroke-linecap="round" stroke-linejoin="round" />
<path d="M 160.0 187.5 L 160.0 187.5 L 160.0 190.0 L 163.75 197.5 L 175.0 208.75 L 185.0 216.25 L 190.0 220.0 " stroke="black" fill="none" stroke-width="6.0" stroke-linecap="round" stroke-linejoin="round" />
</svg>