<svg xmlns="http://www.w3.org/2000/svg" width="300" height="300" viewBox="0 0 300 300">
<path d="M 80.0 110.0 L 77.5 110.0 L 77.5 111.25 L 82.5 111.25 L 91.25 111.25 L 103.75 112.5 L 111.25 113.75 L 111.25 115.0 " stroke="black" fill="none" stroke-width="6.0" stroke-linecap="round" stroke-linejoin="round" />
<path d="M 73.75 148.75 L 72.5 151.25 L 71.25 152.5 L 78.75 152.5 L 90.0 150.0 L 102.5 147.5 L 108.75 146.25 " stroke="black" fill="none" stroke-width="6.0" stroke-linecap="round" stroke-linejoin="round" />
<path d="M 77.5 232.5 L 73.75 241.25 L 71.25 243.75 L 80.0 238.75 L 95.0 221.25 L 107.5 202.5 " stroke="black" fill="none" stroke-width="6.0" stroke-linecap="round" stroke-linejoin="round" />
<path d="M 136.25 112.5 L 135.0 111.25 L 132.5 108.75 L 131.25 108.75 L 131.25 132.5 L 131.25 177.5 L 130.0 220.0 L 128.75 240.0 L 128.75 240.0 L 128.75 235.0 " stroke="black" fill="none" stroke-width="6.0" stroke-linecap="round" stroke-linejoin="round" />
<path d="M 145.0 96.25 L 143.75 96.25 L 143.75 96.25 L 145.0 95.0 L 161.25 90.0 L 188.75 86.25 L 211.25 85.0 L 223.75 90.0 L 230.0 105.0 L 232.5 138.75 L 235.0 181.25 L 238.75 216.25 L 240.0 240.0 L 240.0 252.5 L 240.0 256.25 L 238.75 256.25 L 236.25 253.75 L 230.0 247.5 L 221.25 236.25 L 208.75 217.5 L 205.0 212.5 " stroke="black" fill="none" stroke-width="6.0" stroke-linecap="round" stroke-linejoin="round" />
<path d="M 150.0 151.25 L 145.0 152.5 L 145.0 152.5 L 156.25 148.75 L 175.0 141.25 L 195.0 133.75 L 205.0 128.75 L 205.0 128.75 " stroke="black" fill="none" stroke-width="6.0" stroke-linecap="round" stroke-linejoin="round" />
<path d="M 155.0 168.75 L 155.0 171.25 L 153.75 182.5 L 156.25 197.5 L 161.25 211.25 L 167.5 218.75 L 168.75 220.0 L 168.75 217.5 L 165.0 212.5 L 161.25 206.25 L 158.75 201.25 L 157.5 195.0 L 163.75 187.5 L 178.75 180.0 L 197.5 173.75 L 208.75 172.5 L 208.75 182.5 L 197.5 197.5 L 182.5 212.5 L 172.5 221.25 L 171.25 221.25 L 185.0 211.25 L 200.0 193.75 L 207.5 183.75 " stroke="black" fill="none" stroke-width="6.0" stroke-linecap="round" stroke-linejoin="round" />
</svg>