<svg xmlns="http://www.w3.org/2000/svg" width="300" height="300" viewBox="0 0 300 300">
<path d="M 72.5 98.75 L 68.75 100.0 L 67.5 101.25 L 77.5 102.5 L 96.25 100.0 L 120.0 92.5 L 142.5 82.5 L 147.5 78.75 L 141.25 80.0 " stroke="black" fill="none" stroke-width="6.0" stroke-linecap="round" stroke-linejoin="round" />
<path d="M 100.0 103.75 L 98.75 106.25 L 95.0 115.0 L 95.0 131.25 L 96.25 150.0 L 97.5 152.5 " stroke="black" fill="none" stroke-width="6.0" stroke-linecap="round" stroke-linejoin="round" />
<path d="M 120.0 103.75 L 117.5 106.25 L 116.25 113.75 L 115.0 128.75 L 115.0 143.75 L 113.75 146.25 " stroke="black" fill="none" stroke-width="6.0" stroke-linecap="round" stroke-linejoin="round" />
<path d="M 146.25 91.25 L 143.75 97.5 L 137.5 111.25 L 126.25 133.75 L 108.75 153.75 L 92.5 165.0 L 75.0 173.75 L 63.75 178.75 L 62.5 178.75 L 75.0 176.25 L 100.0 167.5 L 128.75 156.25 L 152.5 146.25 L 163.75 140.0 L 158.75 140.0 L 147.5 142.5 L 137.5 145.0 L 128.75 147.5 L 122.5 150.0 L 120.0 157.5 L 123.75 177.5 L 127.5 203.75 L 127.5 218.75 L 111.25 220.0 L 97.5 217.5 L 86.25 216.25 L 82.5 216.25 L 86.25 216.25 L 106.25 208.75 L 135.0 195.0 L 163.75 168.75 L 183.75 141.25 " stroke="black" fill="none" stroke-width="6.0" stroke-linecap="round" stroke-linejoin="round" />
<path d="M 206.25 85.0 L 206.25 86.25 L 203.75 90.0 L 197.5 103.75 L 185.0 132.5 L 171.25 155.0 L 160.0 160.0 " stroke="black" fill="none" stroke-width="6.0" stroke-linecap="round" stroke-linejoin="round" />
<path d="M 220.0 117.5 L 218.75 122.5 L 213.75 136.25 L 203.75 160.0 L 191.25 185.0 L 180.0 195.0 " stroke="black" fill="none" stroke-width="6.0" stroke-linecap="round" stroke-linejoin="round" />
<path d="M 220.0 163.75 L 218.75 166.25 L 215.0 173.75 L 207.5 191.25 L 195.0 213.75 L 177.5 235.0 L 165.0 242.5 " stroke="black" fill="none" stroke-width="6.0" stroke-linecap="round" stroke-linejoin="round" />
</svg>