<svg xmlns="http://www.w3.org/2000/svg" width="300" height="300" viewBox="0 0 300 300">
<path d="M 82.5 107.5 L 81.25 106.25 L 82.5 105.0 L 87.5 105.0 L 93.75 112.5 L 95.0 126.25 L 92.5 142.5 L 85.0 152.5 L 77.5 156.25 L 75.0 156.25 L 76.25 153.75 L 85.0 150.0 L 93.75 145.0 L 100.0 142.5 L 103.75 142.5 L 102.5 147.5 L 97.5 157.5 L 91.25 166.25 L 86.25 172.5 L 86.25 173.75 L 90.0 171.25 L 97.5 167.5 L 105.0 163.75 L 110.0 162.5 L 110.0 167.5 L 106.25 182.5 L 98.75 197.5 L 91.25 208.75 L 83.75 213.75 " stroke="black" fill="none" stroke-width="6.0" stroke-linecap="round" stroke-linejoin="round" />
<path d="M 56.25 197.5 L 55.0 196.25 L 53.75 195.0 L 53.75 195.0 L 60.0 197.5 L 71.25 208.75 L 81.25 222.5 L 86.25 236.25 L 86.25 240.0 " stroke="black" fill="none" stroke-width="6.0" stroke-linecap="round" stroke-linejoin="round" />
<path d="M 85.0 193.75 L 83.75 193.75 L 82.5 193.75 L 85.0 197.5 L 92.5 205.0 L 100.0 212.5 L 102.5 217.5 L 102.5 218.75 " stroke="black" fill="none" stroke-width="6.0" stroke-linecap="round" stroke-linejoin="round" />
<path d="M 100.0 186.25 L 98.75 183.75 L 98.75 182.5 L 105.0 185.0 L 115.0 193.75 L 126.25 208.75 L 130.0 215.0 " stroke="black" fill="none" stroke-width="6.0" stroke-linecap="round" stroke-linejoin="round" />
<path d="M 153.75 78.75 L 152.5 80.0 L 150.0 83.75 L 152.5 97.5 L 156.25 113.75 L 160.0 125.0 L 160.0 127.5 " stroke="black" fill="none" stroke-width="6.0" stroke-linecap="round" stroke-linejoin="round" />
<path d="M 155.0 96.25 L 151.25 95.0 L 150.0 93.75 L 155.0 90.0 L 168.75 83.75 L 186.25 73.75 L 197.5 67.5 L 198.75 66.25 L 191.25 72.5 " stroke="black" fill="none" stroke-width="6.0" stroke-linecap="round" stroke-linejoin="round" />
<path d="M 146.25 115.0 L 145.0 116.25 L 142.5 121.25 L 145.0 131.25 L 153.75 147.5 L 165.0 162.5 L 171.25 170.0 L 172.5 171.25 L 172.5 171.25 L 170.0 168.75 L 166.25 165.0 L 162.5 158.75 L 158.75 153.75 L 155.0 150.0 L 152.5 146.25 L 151.25 145.0 L 151.25 145.0 L 151.25 145.0 L 153.75 143.75 L 161.25 138.75 L 172.5 130.0 L 188.75 118.75 L 200.0 112.5 L 202.5 113.75 L 200.0 127.5 L 192.5 148.75 L 182.5 165.0 L 171.25 175.0 L 166.25 177.5 " stroke="black" fill="none" stroke-width="6.0" stroke-linecap="round" stroke-linejoin="round" />
<path d="M 163.75 152.5 L 161.25 153.75 L 160.0 153.75 L 160.0 155.0 L 170.0 148.75 L 183.75 140.0 L 196.25 128.75 L 203.75 122.5 L 203.75 123.75 L 197.5 131.25 L 196.25 133.75 " stroke="black" fill="none" stroke-width="6.0" stroke-linecap="round" stroke-linejoin="round" />
<path d="M 172.5 166.25 L 171.25 168.75 L 170.0 168.75 L 173.75 166.25 L 182.5 160.0 L 190.0 151.25 L 195.0 145.0 L 195.0 143.75 " stroke="black" fill="none" stroke-width="6.0" stroke-linecap="round" stroke-linejoin="round" />
<path d="M 135.0 218.75 L 132.5 220.0 L 130.0 221.25 L 136.25 218.75 L 150.0 210.0 L 171.25 196.25 L 200.0 177.5 L 216.25 163.75 L 221.25 158.75 L 220.0 158.75 L 212.5 161.25 L 205.0 166.25 L 196.25 171.25 L 190.0 173.75 L 185.0 175.0 L 183.75 175.0 L 185.0 173.75 L 187.5 172.5 L 191.25 172.5 L 195.0 178.75 L 198.75 197.5 L 200.0 226.25 L 200.0 248.75 L 200.0 257.5 L 198.75 260.0 L 196.25 260.0 L 191.25 260.0 L 185.0 258.75 " stroke="black" fill="none" stroke-width="6.0" stroke-linecap="round" stroke-linejoin="round" />
</svg>