<svg xmlns="http://www.w3.org/2000/svg" width="300" height="300" viewBox="0 0 300 300">
<path d="M 93.75 93.75 L 92.5 93.75 L 88.75 95.0 L 88.75 95.0 L 96.25 95.0 L 108.75 95.0 L 120.0 95.0 L 125.0 95.0 L 122.5 96.25 " stroke="black" fill="none" stroke-width="6.0" stroke-linecap="round" stroke-linejoin="round" />
<path d="M 71.25 145.0 L 65.0 151.25 L 61.25 153.75 L 70.0 153.75 L 85.0 151.25 L 101.25 142.5 L 116.25 132.5 L 123.75 125.0 L 122.5 123.75 L 112.5 131.25 L 100.0 150.0 L 87.5 186.25 L 73.75 225.0 L 65.0 242.5 L 63.75 242.5 " stroke="black" fill="none" stroke-width="6.0" stroke-linecap="round" stroke-linejoin="round" />
<path d="M 97.5 160.0 L 96.25 161.25 L 96.25 161.25 L 103.75 163.75 L 117.5 172.5 L 126.25 187.5 L 125.0 206.25 L 112.5 220.0 L 100.0 228.75 L 92.5 228.75 L 91.25 215.0 L 92.5 206.25 " stroke="black" fill="none" stroke-width="6.0" stroke-linecap="round" stroke-linejoin="round" />
<path d="M 143.75 80.0 L 142.5 78.75 L 141.25 78.75 L 142.5 78.75 L 150.0 83.75 L 161.25 87.5 L 176.25 87.5 L 192.5 80.0 L 202.5 68.75 L 203.75 63.75 L 197.5 66.25 L 183.75 81.25 L 176.25 88.75 " stroke="black" fill="none" stroke-width="6.0" stroke-linecap="round" stroke-linejoin="round" />
<path d="M 135.0 167.5 L 133.75 168.75 L 138.75 168.75 L 156.25 160.0 L 188.75 145.0 L 212.5 130.0 L 221.25 122.5 L 221.25 121.25 L 210.0 123.75 L 198.75 131.25 L 183.75 136.25 L 167.5 141.25 L 153.75 142.5 L 148.75 141.25 L 148.75 138.75 L 152.5 140.0 L 157.5 153.75 L 161.25 181.25 L 162.5 201.25 L 162.5 206.25 L 162.5 206.25 " stroke="black" fill="none" stroke-width="6.0" stroke-linecap="round" stroke-linejoin="round" />
<path d="M 193.75 130.0 L 196.25 125.0 L 200.0 127.5 L 203.75 143.75 L 203.75 168.75 L 197.5 196.25 L 187.5 208.75 L 185.0 210.0 " stroke="black" fill="none" stroke-width="6.0" stroke-linecap="round" stroke-linejoin="round" />
<path d="M 181.25 141.25 L 181.25 143.75 L 180.0 155.0 L 180.0 182.5 L 180.0 203.75 L 173.75 213.75 L 163.75 216.25 L 155.0 216.25 L 147.5 217.5 L 143.75 218.75 L 143.75 218.75 L 147.5 218.75 L 155.0 217.5 L 168.75 212.5 L 187.5 203.75 L 208.75 191.25 L 225.0 180.0 L 233.75 172.5 L 230.0 172.5 " stroke="black" fill="none" stroke-width="6.0" stroke-linecap="round" stroke-linejoin="round" />
<path d="M 202.5 198.75 L 200.0 205.0 L 193.75 217.5 L 186.25 233.75 L 178.75 246.25 L 171.25 250.0 L 170.0 248.75 " stroke="black" fill="none" stroke-width="6.0" stroke-linecap="round" stroke-linejoin="round" />
<path d="M 202.5 205.0 L 202.5 205.0 L 205.0 205.0 L 212.5 211.25 L 226.25 223.75 L 240.0 238.75 L 247.5 247.5 L 248.75 250.0 L 248.75 250.0 L 242.5 252.5 " stroke="black" fill="none" stroke-width="6.0" stroke-linecap="round" stroke-linejoin="round" />
</svg>