<svg xmlns="http://www.w3.org/2000/svg" width="300" height="300" viewBox="0 0 300 300">
<path d="M 85.0 105.0 L 81.25 105.0 L 80.0 105.0 L 91.25 101.25 L 117.5 92.5 L 155.0 80.0 L 180.0 68.75 L 185.0 66.25 L 172.5 70.0 L 165.0 72.5 " stroke="black" fill="none" stroke-width="6.0" stroke-linecap="round" stroke-linejoin="round" />
<path d="M 96.25 110.0 L 95.0 111.25 L 95.0 112.5 L 96.25 131.25 L 98.75 185.0 L 95.0 236.25 L 87.5 255.0 L 80.0 261.25 L 72.5 258.75 " stroke="black" fill="none" stroke-width="6.0" stroke-linecap="round" stroke-linejoin="round" />
<path d="M 108.75 136.25 L 107.5 136.25 L 106.25 136.25 L 115.0 133.75 L 131.25 127.5 L 145.0 118.75 L 150.0 113.75 L 146.25 115.0 L 141.25 117.5 " stroke="black" fill="none" stroke-width="6.0" stroke-linecap="round" stroke-linejoin="round" />
<path d="M 118.75 141.25 L 118.75 143.75 L 117.5 155.0 L 120.0 168.75 L 125.0 180.0 L 126.25 183.75 L 126.25 183.75 L 123.75 177.5 L 121.25 171.25 L 118.75 165.0 L 116.25 160.0 L 116.25 156.25 L 120.0 152.5 L 130.0 148.75 L 142.5 146.25 L 150.0 145.0 L 150.0 148.75 L 142.5 158.75 L 133.75 171.25 L 126.25 178.75 L 125.0 181.25 L 127.5 178.75 L 136.25 172.5 L 143.75 165.0 L 147.5 160.0 L 147.5 157.5 " stroke="black" fill="none" stroke-width="6.0" stroke-linecap="round" stroke-linejoin="round" />
<path d="M 103.75 200.0 L 102.5 203.75 L 103.75 211.25 L 111.25 225.0 L 121.25 238.75 L 127.5 245.0 L 127.5 245.0 L 127.5 243.75 " stroke="black" fill="none" stroke-width="6.0" stroke-linecap="round" stroke-linejoin="round" />
<path d="M 130.0 205.0 L 130.0 206.25 L 133.75 211.25 L 142.5 222.5 L 156.25 232.5 L 168.75 235.0 L 173.75 232.5 L 172.5 227.5 L 166.25 221.25 L 156.25 217.5 L 143.75 213.75 L 133.75 213.75 L 130.0 213.75 L 131.25 215.0 L 143.75 208.75 L 160.0 197.5 L 171.25 188.75 " stroke="black" fill="none" stroke-width="6.0" stroke-linecap="round" stroke-linejoin="round" />
<path d="M 160.0 73.75 L 158.75 70.0 L 157.5 68.75 L 157.5 68.75 L 163.75 77.5 L 178.75 103.75 L 197.5 151.25 L 211.25 192.5 L 218.75 213.75 L 225.0 228.75 L 228.75 237.5 L 230.0 240.0 L 231.25 240.0 L 232.5 241.25 L 232.5 241.25 L 232.5 241.25 L 232.5 241.25 L 232.5 241.25 L 232.5 241.25 L 232.5 241.25 L 232.5 240.0 L 233.75 233.75 L 233.75 220.0 L 235.0 198.75 L 231.25 180.0 " stroke="black" fill="none" stroke-width="6.0" stroke-linecap="round" stroke-linejoin="round" />
<path d="M 222.5 138.75 L 220.0 140.0 L 211.25 151.25 L 203.75 167.5 L 195.0 191.25 L 186.25 202.5 " stroke="black" fill="none" stroke-width="6.0" stroke-linecap="round" stroke-linejoin="round" />
<path d="M 216.25 82.5 L 216.25 81.25 L 215.0 81.25 L 215.0 80.0 L 221.25 83.75 L 230.0 92.5 " stroke="black" fill="none" stroke-width="6.0" stroke-linecap="round" stroke-linejoin="round" />
</svg>