<svg xmlns="http://www.w3.org/2000/svg" width="300" height="300" viewBox="0 0 300 300">
<path d="M 51.25 133.75 L 51.25 132.5 L 51.25 132.5 L 52.5 135.0 L 57.5 146.25 L 65.0 158.75 L 77.5 163.75 L 91.25 156.25 L 102.5 142.5 L 108.75 133.75 L 110.0 128.75 L 107.5 127.5 L 101.25 128.75 L 93.75 130.0 L 88.75 130.0 L 85.0 126.25 L 83.75 118.75 L 82.5 110.0 L 82.5 106.25 L 82.5 108.75 L 85.0 133.75 L 88.75 173.75 L 90.0 213.75 L 87.5 236.25 L 83.75 238.75 " stroke="black" fill="none" stroke-width="6.0" stroke-linecap="round" stroke-linejoin="round" />
<path d="M 140.0 91.25 L 140.0 91.25 L 137.5 91.25 L 137.5 91.25 L 147.5 87.5 L 166.25 80.0 L 186.25 70.0 L 192.5 66.25 L 188.75 66.25 L 177.5 66.25 L 168.75 66.25 L 160.0 65.0 L 156.25 63.75 L 155.0 67.5 L 156.25 86.25 L 158.75 111.25 L 161.25 127.5 L 160.0 132.5 L 158.75 131.25 " stroke="black" fill="none" stroke-width="6.0" stroke-linecap="round" stroke-linejoin="round" />
<path d="M 142.5 108.75 L 142.5 108.75 L 140.0 108.75 L 138.75 108.75 L 143.75 108.75 L 157.5 105.0 L 175.0 98.75 L 186.25 95.0 L 182.5 96.25 L 175.0 98.75 " stroke="black" fill="none" stroke-width="6.0" stroke-linecap="round" stroke-linejoin="round" />
<path d="M 112.5 148.75 L 105.0 155.0 L 106.25 155.0 L 128.75 148.75 L 158.75 133.75 L 191.25 113.75 L 210.0 97.5 L 211.25 93.75 L 203.75 97.5 L 191.25 105.0 L 173.75 116.25 L 158.75 131.25 L 150.0 150.0 L 150.0 183.75 L 156.25 215.0 L 162.5 236.25 L 165.0 243.75 L 165.0 242.5 L 161.25 236.25 L 156.25 223.75 L 155.0 221.25 " stroke="black" fill="none" stroke-width="6.0" stroke-linecap="round" stroke-linejoin="round" />
<path d="M 163.75 145.0 L 163.75 143.75 L 168.75 143.75 L 185.0 143.75 L 201.25 156.25 L 208.75 183.75 L 208.75 212.5 L 203.75 232.5 L 202.5 241.25 L 200.0 241.25 L 197.5 236.25 L 193.75 228.75 " stroke="black" fill="none" stroke-width="6.0" stroke-linecap="round" stroke-linejoin="round" />
<path d="M 153.75 188.75 L 152.5 188.75 L 148.75 187.5 L 148.75 187.5 L 160.0 182.5 L 180.0 172.5 L 200.0 160.0 L 205.0 153.75 L 205.0 153.75 " stroke="black" fill="none" stroke-width="6.0" stroke-linecap="round" stroke-linejoin="round" />
<path d="M 161.25 198.75 L 161.25 200.0 L 161.25 201.25 L 170.0 200.0 L 192.5 188.75 L 205.0 177.5 " stroke="black" fill="none" stroke-width="6.0" stroke-linecap="round" stroke-linejoin="round" />
</svg>