<svg xmlns="http://www.w3.org/2000/svg" width="300" height="300" viewBox="0 0 300 300">
<path d="M 86.25 131.25 L 85.0 130.0 L 82.5 130.0 L 80.0 133.75 L 75.0 145.0 L 72.5 158.75 L 71.25 165.0 L 80.0 165.0 L 96.25 156.25 L 115.0 145.0 L 131.25 135.0 L 137.5 128.75 L 137.5 127.5 L 130.0 127.5 L 121.25 126.25 L 112.5 125.0 L 106.25 120.0 L 101.25 116.25 L 98.75 110.0 L 98.75 107.5 L 100.0 106.25 L 102.5 113.75 L 106.25 140.0 L 108.75 182.5 L 110.0 220.0 L 105.0 242.5 L 100.0 251.25 L 95.0 248.75 L 93.75 246.25 " stroke="black" fill="none" stroke-width="6.0" stroke-linecap="round" stroke-linejoin="round" />
<path d="M 150.0 91.25 L 150.0 91.25 L 146.25 92.5 L 146.25 92.5 L 155.0 92.5 L 175.0 85.0 L 197.5 76.25 L 207.5 70.0 L 208.75 68.75 L 200.0 73.75 L 191.25 76.25 L 182.5 78.75 L 173.75 78.75 L 171.25 78.75 L 171.25 86.25 L 175.0 106.25 L 176.25 128.75 L 176.25 142.5 L 168.75 143.75 L 167.5 142.5 " stroke="black" fill="none" stroke-width="6.0" stroke-linecap="round" stroke-linejoin="round" />
<path d="M 150.0 125.0 L 150.0 122.5 L 148.75 120.0 L 156.25 116.25 L 172.5 111.25 L 192.5 103.75 L 205.0 97.5 L 206.25 97.5 L 202.5 98.75 " stroke="black" fill="none" stroke-width="6.0" stroke-linecap="round" stroke-linejoin="round" />
<path d="M 136.25 152.5 L 133.75 155.0 L 137.5 155.0 L 157.5 148.75 L 190.0 132.5 L 213.75 115.0 L 220.0 106.25 L 216.25 107.5 L 205.0 117.5 L 193.75 128.75 L 180.0 140.0 L 167.5 156.25 L 163.75 186.25 L 165.0 218.75 L 170.0 240.0 L 173.75 248.75 L 173.75 250.0 L 173.75 246.25 L 168.75 238.75 L 163.75 227.5 L 160.0 216.25 " stroke="black" fill="none" stroke-width="6.0" stroke-linecap="round" stroke-linejoin="round" />
<path d="M 163.75 165.0 L 165.0 163.75 L 168.75 158.75 L 181.25 153.75 L 200.0 150.0 L 215.0 155.0 L 223.75 177.5 L 227.5 203.75 L 226.25 226.25 L 223.75 241.25 L 221.25 247.5 L 217.5 247.5 L 210.0 242.5 L 207.5 238.75 " stroke="black" fill="none" stroke-width="6.0" stroke-linecap="round" stroke-linejoin="round" />
<path d="M 172.5 202.5 L 171.25 201.25 L 170.0 200.0 L 175.0 196.25 L 192.5 187.5 L 210.0 178.75 L 220.0 172.5 L 216.25 173.75 L 211.25 178.75 " stroke="black" fill="none" stroke-width="6.0" stroke-linecap="round" stroke-linejoin="round" />
<path d="M 181.25 213.75 L 176.25 221.25 L 178.75 222.5 L 193.75 216.25 L 212.5 203.75 L 226.25 192.5 " stroke="black" fill="none" stroke-width="6.0" stroke-linecap="round" stroke-linejoin="round" />
</svg>