<svg xmlns="http://www.w3.org/2000/svg" width="300" height="300" viewBox="0 0 300 300">
<path d="M 123.75 73.75 L 122.5 73.75 L 121.25 72.5 L 126.25 72.5 L 142.5 75.0 L 161.25 75.0 L 176.25 75.0 L 177.5 75.0 " stroke="black" fill="none" stroke-width="6.0" stroke-linecap="round" stroke-linejoin="round" />
<path d="M 101.25 107.5 L 101.25 107.5 L 98.75 108.75 L 103.75 108.75 L 125.0 103.75 L 152.5 95.0 L 173.75 90.0 L 177.5 90.0 L 170.0 98.75 L 153.75 112.5 L 137.5 126.25 L 120.0 138.75 L 111.25 142.5 L 115.0 140.0 L 130.0 130.0 L 148.75 116.25 L 162.5 103.75 L 167.5 98.75 L 157.5 98.75 L 155.0 100.0 " stroke="black" fill="none" stroke-width="6.0" stroke-linecap="round" stroke-linejoin="round" />
<path d="M 117.5 113.75 L 111.25 120.0 L 103.75 143.75 L 97.5 186.25 L 91.25 226.25 L 87.5 252.5 L 90.0 257.5 L 92.5 251.25 " stroke="black" fill="none" stroke-width="6.0" stroke-linecap="round" stroke-linejoin="round" />
<path d="M 142.5 133.75 L 142.5 133.75 L 145.0 132.5 L 150.0 135.0 L 158.75 143.75 L 170.0 152.5 L 178.75 156.25 L 177.5 158.75 L 171.25 158.75 " stroke="black" fill="none" stroke-width="6.0" stroke-linecap="round" stroke-linejoin="round" />
<path d="M 115.0 173.75 L 110.0 176.25 L 108.75 176.25 L 120.0 175.0 L 143.75 166.25 L 170.0 153.75 L 195.0 141.25 L 203.75 137.5 L 200.0 138.75 L 188.75 145.0 L 176.25 151.25 L 163.75 158.75 L 153.75 168.75 L 143.75 191.25 L 130.0 223.75 L 113.75 253.75 L 106.25 262.5 L 105.0 258.75 L 106.25 252.5 " stroke="black" fill="none" stroke-width="6.0" stroke-linecap="round" stroke-linejoin="round" />
<path d="M 155.0 181.25 L 155.0 181.25 L 157.5 180.0 L 163.75 180.0 L 177.5 188.75 L 191.25 201.25 L 197.5 216.25 L 190.0 235.0 L 172.5 252.5 L 152.5 263.75 L 138.75 265.0 L 137.5 251.25 L 141.25 237.5 " stroke="black" fill="none" stroke-width="6.0" stroke-linecap="round" stroke-linejoin="round" />
</svg>