<svg xmlns="http://www.w3.org/2000/svg" width="300" height="300" viewBox="0 0 300 300">
<path d="M 107.5 90.0 L 107.5 90.0 L 105.0 90.0 L 108.75 90.0 L 125.0 90.0 L 147.5 88.75 L 171.25 86.25 L 186.25 82.5 L 185.0 83.75 L 182.5 85.0 " stroke="black" fill="none" stroke-width="6.0" stroke-linecap="round" stroke-linejoin="round" />
<path d="M 101.25 141.25 L 97.5 143.75 L 100.0 145.0 L 117.5 142.5 L 146.25 135.0 L 176.25 125.0 L 193.75 122.5 L 196.25 125.0 L 187.5 135.0 L 168.75 148.75 L 150.0 162.5 L 133.75 175.0 L 117.5 180.0 L 113.75 181.25 " stroke="black" fill="none" stroke-width="6.0" stroke-linecap="round" stroke-linejoin="round" />
<path d="M 110.0 142.5 L 110.0 142.5 L 108.75 143.75 L 110.0 163.75 L 110.0 201.25 L 106.25 233.75 L 101.25 248.75 L 93.75 252.5 L 85.0 251.25 " stroke="black" fill="none" stroke-width="6.0" stroke-linecap="round" stroke-linejoin="round" />
</svg>