<svg xmlns="http://www.w3.org/2000/svg" width="300" height="300" viewBox="0 0 300 300">
<path d="M 96.25 143.75 L 96.25 145.0 L 96.25 146.25 L 110.0 145.0 L 147.5 135.0 L 183.75 118.75 L 206.25 106.25 L 210.0 101.25 L 205.0 100.0 L 202.5 100.0 " stroke="black" fill="none" stroke-width="6.0" stroke-linecap="round" stroke-linejoin="round" />
<path d="M 165.0 82.5 L 165.0 82.5 L 165.0 91.25 L 167.5 133.75 L 171.25 191.25 L 175.0 223.75 L 176.25 238.75 L 176.25 241.25 L 176.25 241.25 L 170.0 237.5 L 162.5 230.0 L 152.5 218.75 L 145.0 203.75 L 140.0 196.25 " stroke="black" fill="none" stroke-width="6.0" stroke-linecap="round" stroke-linejoin="round" />
<path d="M 171.25 142.5 L 167.5 146.25 L 155.0 158.75 L 135.0 183.75 L 110.0 208.75 L 91.25 222.5 L 86.25 225.0 " stroke="black" fill="none" stroke-width="6.0" stroke-linecap="round" stroke-linejoin="round" />
</svg>