<svg xmlns="http://www.w3.org/2000/svg" width="300" height="300" viewBox="0 0 300 300">
<path d="M 87.5 102.5 L 85.0 102.5 L 82.5 103.75 L 81.25 105.0 L 90.0 106.25 L 105.0 106.25 L 120.0 105.0 L 122.5 103.75 " stroke="black" fill="none" stroke-width="6.0" stroke-linecap="round" stroke-linejoin="round" />
<path d="M 71.25 143.75 L 70.0 143.75 L 66.25 146.25 L 68.75 146.25 L 83.75 143.75 L 98.75 138.75 L 108.75 136.25 L 108.75 142.5 L 95.0 166.25 L 77.5 195.0 L 61.25 216.25 L 56.25 222.5 L 58.75 213.75 " stroke="black" fill="none" stroke-width="6.0" stroke-linecap="round" stroke-linejoin="round" />
<path d="M 92.5 171.25 L 91.25 176.25 L 90.0 187.5 L 92.5 211.25 L 101.25 240.0 L 110.0 253.75 L 115.0 256.25 L 115.0 252.5 " stroke="black" fill="none" stroke-width="6.0" stroke-linecap="round" stroke-linejoin="round" />
<path d="M 138.75 152.5 L 136.25 151.25 L 130.0 151.25 L 120.0 160.0 L 105.0 175.0 L 92.5 186.25 L 86.25 191.25 L 87.5 192.5 L 97.5 197.5 L 113.75 201.25 L 133.75 203.75 L 150.0 201.25 L 156.25 195.0 " stroke="black" fill="none" stroke-width="6.0" stroke-linecap="round" stroke-linejoin="round" />
<path d="M 155.0 136.25 L 151.25 137.5 L 150.0 137.5 L 165.0 135.0 L 190.0 126.25 L 218.75 117.5 L 236.25 116.25 L 243.75 130.0 L 241.25 158.75 L 232.5 193.75 L 223.75 216.25 L 218.75 226.25 L 216.25 227.5 L 210.0 225.0 L 203.75 218.75 L 202.5 216.25 " stroke="black" fill="none" stroke-width="6.0" stroke-linecap="round" stroke-linejoin="round" />
<path d="M 188.75 136.25 L 185.0 136.25 L 182.5 143.75 L 176.25 181.25 L 167.5 220.0 L 157.5 245.0 L 155.0 248.75 " stroke="black" fill="none" stroke-width="6.0" stroke-linecap="round" stroke-linejoin="round" />
</svg>