<svg xmlns="http://www.w3.org/2000/svg" width="300" height="300" viewBox="0 0 300 300">
<path d="M 73.75 116.25 L 70.0 117.5 L 66.25 117.5 L 67.5 118.75 L 82.5 118.75 L 103.75 112.5 L 130.0 105.0 L 147.5 97.5 L 150.0 95.0 L 147.5 93.75 L 140.0 97.5 L 133.75 102.5 L 127.5 107.5 L 125.0 115.0 L 125.0 130.0 L 126.25 165.0 L 126.25 207.5 L 123.75 233.75 L 121.25 243.75 L 117.5 247.5 L 113.75 243.75 L 112.5 242.5 " stroke="black" fill="none" stroke-width="6.0" stroke-linecap="round" stroke-linejoin="round" />
<path d="M 78.75 138.75 L 76.25 133.75 L 75.0 133.75 L 76.25 146.25 L 80.0 173.75 L 82.5 201.25 L 82.5 213.75 L 82.5 212.5 " stroke="black" fill="none" stroke-width="6.0" stroke-linecap="round" stroke-linejoin="round" />
<path d="M 83.75 161.25 L 82.5 161.25 L 81.25 161.25 L 81.25 160.0 L 87.5 158.75 L 97.5 155.0 L 108.75 151.25 L 115.0 146.25 L 112.5 146.25 L 107.5 146.25 " stroke="black" fill="none" stroke-width="6.0" stroke-linecap="round" stroke-linejoin="round" />
<path d="M 90.0 171.25 L 86.25 177.5 L 85.0 180.0 L 92.5 180.0 L 103.75 173.75 L 117.5 163.75 L 127.5 156.25 L 127.5 153.75 " stroke="black" fill="none" stroke-width="6.0" stroke-linecap="round" stroke-linejoin="round" />
<path d="M 73.75 232.5 L 72.5 233.75 L 72.5 233.75 L 85.0 222.5 L 107.5 200.0 L 132.5 176.25 L 146.25 155.0 L 150.0 146.25 L 151.25 141.25 L 150.0 140.0 L 150.0 140.0 L 152.5 141.25 L 162.5 137.5 L 181.25 128.75 L 197.5 118.75 L 206.25 112.5 L 207.5 112.5 L 206.25 122.5 L 201.25 140.0 L 193.75 162.5 L 182.5 188.75 L 168.75 207.5 L 156.25 211.25 L 148.75 211.25 " stroke="black" fill="none" stroke-width="6.0" stroke-linecap="round" stroke-linejoin="round" />
<path d="M 157.5 150.0 L 157.5 150.0 L 157.5 148.75 L 158.75 148.75 L 166.25 155.0 L 182.5 176.25 L 198.75 201.25 L 212.5 216.25 L 228.75 225.0 L 247.5 232.5 L 260.0 233.75 L 261.25 233.75 " stroke="black" fill="none" stroke-width="6.0" stroke-linecap="round" stroke-linejoin="round" />
</svg>