<svg xmlns="http://www.w3.org/2000/svg" width="300" height="300" viewBox="0 0 300 300">
<path d="M 90.0 140.0 L 90.0 140.0 L 90.0 140.0 L 90.0 156.25 L 86.25 196.25 L 82.5 223.75 L 81.25 231.25 L 81.25 230.0 L 90.0 226.25 L 103.75 223.75 L 128.75 222.5 L 161.25 222.5 L 196.25 223.75 L 225.0 225.0 L 245.0 223.75 L 251.25 220.0 L 252.5 213.75 L 248.75 208.75 " stroke="black" fill="none" stroke-width="6.0" stroke-linecap="round" stroke-linejoin="round" />
<path d="M 235.0 132.5 L 231.25 132.5 L 231.25 137.5 L 236.25 167.5 L 242.5 203.75 L 245.0 226.25 " stroke="black" fill="none" stroke-width="6.0" stroke-linecap="round" stroke-linejoin="round" />
<path d="M 161.25 78.75 L 161.25 78.75 L 160.0 95.0 L 163.75 156.25 L 163.75 200.0 L 165.0 222.5 L 165.0 225.0 " stroke="black" fill="none" stroke-width="6.0" stroke-linecap="round" stroke-linejoin="round" />
</svg>