<svg xmlns="http://www.w3.org/2000/svg" width="300" height="300" viewBox="0 0 300 300">
<path d="M 81.25 176.25 L 78.75 171.25 L 77.5 170.0 L 77.5 171.25 L 78.75 187.5 L 81.25 211.25 L 82.5 236.25 L 82.5 248.75 L 87.5 250.0 L 101.25 243.75 L 125.0 235.0 L 155.0 226.25 L 183.75 215.0 L 206.25 207.5 L 213.75 202.5 L 215.0 200.0 L 212.5 196.25 L 207.5 193.75 L 203.75 190.0 L 201.25 187.5 L 200.0 185.0 L 200.0 182.5 L 200.0 181.25 L 200.0 180.0 L 200.0 180.0 L 200.0 180.0 L 200.0 180.0 L 201.25 180.0 L 201.25 182.5 L 205.0 187.5 L 212.5 198.75 L 220.0 211.25 L 225.0 225.0 L 225.0 231.25 " stroke="black" fill="none" stroke-width="6.0" stroke-linecap="round" stroke-linejoin="round" />
<path d="M 133.75 96.25 L 132.5 96.25 L 132.5 95.0 L 133.75 102.5 L 140.0 140.0 L 145.0 185.0 L 146.25 207.5 L 146.25 212.5 " stroke="black" fill="none" stroke-width="6.0" stroke-linecap="round" stroke-linejoin="round" />
</svg>