<svg xmlns="http://www.w3.org/2000/svg" width="300" height="300" viewBox="0 0 300 300">
<path d="M 95.0 105.0 L 95.0 103.75 L 91.25 103.75 L 90.0 113.75 L 92.5 153.75 L 97.5 206.25 L 98.75 227.5 L 100.0 232.5 L 100.0 227.5 " stroke="black" fill="none" stroke-width="6.0" stroke-linecap="round" stroke-linejoin="round" />
<path d="M 111.25 102.5 L 111.25 102.5 L 112.5 102.5 L 127.5 97.5 L 155.0 90.0 L 188.75 81.25 L 207.5 77.5 L 217.5 77.5 L 223.75 90.0 L 226.25 117.5 L 227.5 156.25 L 228.75 195.0 L 231.25 218.75 L 233.75 235.0 L 235.0 243.75 L 235.0 243.75 L 235.0 243.75 L 233.75 241.25 L 228.75 233.75 L 220.0 220.0 L 207.5 203.75 L 191.25 190.0 L 186.25 187.5 " stroke="black" fill="none" stroke-width="6.0" stroke-linecap="round" stroke-linejoin="round" />
<path d="M 138.75 147.5 L 135.0 147.5 L 133.75 150.0 L 136.25 161.25 L 142.5 177.5 L 146.25 188.75 L 146.25 191.25 L 146.25 187.5 L 146.25 185.0 " stroke="black" fill="none" stroke-width="6.0" stroke-linecap="round" stroke-linejoin="round" />
<path d="M 138.75 153.75 L 137.5 152.5 L 135.0 151.25 L 136.25 148.75 L 146.25 146.25 L 160.0 143.75 L 175.0 143.75 L 181.25 146.25 L 178.75 155.0 L 167.5 166.25 L 155.0 177.5 L 145.0 186.25 L 142.5 188.75 L 145.0 187.5 L 153.75 182.5 L 167.5 173.75 L 180.0 165.0 L 185.0 158.75 L 185.0 158.75 " stroke="black" fill="none" stroke-width="6.0" stroke-linecap="round" stroke-linejoin="round" />
<path d="M 130.0 228.75 L 128.75 230.0 L 123.75 233.75 L 125.0 235.0 L 137.5 232.5 L 155.0 225.0 L 176.25 216.25 L 193.75 208.75 L 195.0 208.75 " stroke="black" fill="none" stroke-width="6.0" stroke-linecap="round" stroke-linejoin="round" />
</svg>