<svg xmlns="http://www.w3.org/2000/svg" width="300" height="300" viewBox="0 0 300 300">
<path d="M 105.0 108.75 L 105.0 108.75 L 103.75 108.75 L 107.5 107.5 L 122.5 103.75 L 141.25 97.5 L 156.25 92.5 L 161.25 87.5 L 157.5 87.5 " stroke="black" fill="none" stroke-width="6.0" stroke-linecap="round" stroke-linejoin="round" />
<path d="M 130.0 77.5 L 130.0 77.5 L 127.5 77.5 L 127.5 83.75 L 127.5 107.5 L 128.75 133.75 L 128.75 146.25 L 125.0 147.5 L 118.75 146.25 " stroke="black" fill="none" stroke-width="6.0" stroke-linecap="round" stroke-linejoin="round" />
<path d="M 80.0 142.5 L 80.0 143.75 L 75.0 145.0 L 76.25 146.25 L 91.25 147.5 L 120.0 142.5 L 156.25 135.0 L 191.25 123.75 L 206.25 116.25 L 207.5 108.75 L 207.5 107.5 " stroke="black" fill="none" stroke-width="6.0" stroke-linecap="round" stroke-linejoin="round" />
<path d="M 178.75 85.0 L 170.0 88.75 L 158.75 107.5 L 142.5 148.75 L 118.75 197.5 L 96.25 233.75 L 88.75 250.0 L 87.5 252.5 " stroke="black" fill="none" stroke-width="6.0" stroke-linecap="round" stroke-linejoin="round" />
<path d="M 140.0 198.75 L 140.0 200.0 L 142.5 201.25 L 156.25 200.0 L 177.5 190.0 L 195.0 177.5 L 197.5 172.5 " stroke="black" fill="none" stroke-width="6.0" stroke-linecap="round" stroke-linejoin="round" />
<path d="M 127.5 175.0 L 126.25 176.25 L 123.75 183.75 L 127.5 203.75 L 140.0 235.0 L 156.25 256.25 L 177.5 261.25 L 198.75 261.25 L 212.5 256.25 L 220.0 252.5 L 221.25 251.25 L 221.25 251.25 L 221.25 251.25 L 221.25 248.75 L 222.5 240.0 L 226.25 218.75 L 231.25 186.25 L 235.0 151.25 " stroke="black" fill="none" stroke-width="6.0" stroke-linecap="round" stroke-linejoin="round" />
</svg>