<svg xmlns="http://www.w3.org/2000/svg" width="300" height="300" viewBox="0 0 300 300">
<path d="M 156.25 83.75 L 156.25 85.0 L 152.5 91.25 L 151.25 107.5 L 151.25 126.25 L 151.25 133.75 L 153.75 133.75 L 161.25 127.5 L 173.75 117.5 L 188.75 107.5 L 197.5 101.25 L 201.25 98.75 L 195.0 100.0 L 188.75 102.5 " stroke="black" fill="none" stroke-width="6.0" stroke-linecap="round" stroke-linejoin="round" />
<path d="M 108.75 111.25 L 106.25 112.5 L 103.75 116.25 L 103.75 128.75 L 110.0 150.0 L 117.5 167.5 L 126.25 172.5 L 137.5 171.25 L 156.25 160.0 L 183.75 146.25 L 206.25 133.75 L 217.5 126.25 L 218.75 123.75 L 211.25 126.25 L 203.75 132.5 " stroke="black" fill="none" stroke-width="6.0" stroke-linecap="round" stroke-linejoin="round" />
<path d="M 167.5 157.5 L 168.75 160.0 L 168.75 162.5 L 171.25 171.25 L 175.0 196.25 L 176.25 217.5 L 176.25 228.75 L 172.5 231.25 L 168.75 231.25 L 162.5 231.25 L 153.75 230.0 L 145.0 225.0 L 137.5 217.5 L 133.75 211.25 L 132.5 208.75 L 140.0 206.25 L 152.5 202.5 L 173.75 197.5 L 200.0 190.0 L 221.25 185.0 L 228.75 183.75 L 226.25 188.75 L 216.25 201.25 L 202.5 220.0 L 183.75 247.5 L 157.5 277.5 L 140.0 300.0 L 131.25 305.0 L 127.5 303.75 " stroke="black" fill="none" stroke-width="6.0" stroke-linecap="round" stroke-linejoin="round" />
</svg>