<svg xmlns="http://www.w3.org/2000/svg" width="300" height="300" viewBox="0 0 300 300">
<path d="M 121.25 65.0 L 122.5 65.0 L 123.75 66.25 L 128.75 67.5 L 138.75 70.0 L 147.5 72.5 L 153.75 75.0 L 153.75 76.25 L 152.5 77.5 " stroke="black" fill="none" stroke-width="6.0" stroke-linecap="round" stroke-linejoin="round" />
<path d="M 73.75 87.5 L 73.75 90.0 L 72.5 90.0 L 72.5 92.5 L 73.75 97.5 L 76.25 106.25 L 80.0 115.0 L 82.5 118.75 L 82.5 118.75 " stroke="black" fill="none" stroke-width="6.0" stroke-linecap="round" stroke-linejoin="round" />
<path d="M 73.75 97.5 L 73.75 97.5 L 73.75 97.5 L 72.5 97.5 L 77.5 96.25 L 101.25 90.0 L 143.75 80.0 L 178.75 73.75 L 202.5 71.25 L 211.25 73.75 L 211.25 77.5 L 205.0 83.75 L 192.5 91.25 L 175.0 97.5 L 170.0 98.75 " stroke="black" fill="none" stroke-width="6.0" stroke-linecap="round" stroke-linejoin="round" />
<path d="M 93.75 120.0 L 93.75 120.0 L 93.75 120.0 L 93.75 120.0 L 98.75 120.0 L 107.5 118.75 L 113.75 118.75 L 113.75 121.25 " stroke="black" fill="none" stroke-width="6.0" stroke-linecap="round" stroke-linejoin="round" />
<path d="M 66.25 147.5 L 66.25 150.0 L 66.25 150.0 L 75.0 148.75 L 93.75 138.75 L 112.5 127.5 L 123.75 120.0 L 125.0 117.5 L 116.25 118.75 L 106.25 122.5 L 100.0 126.25 L 95.0 130.0 L 93.75 132.5 L 92.5 138.75 L 92.5 148.75 L 93.75 160.0 L 93.75 166.25 L 93.75 166.25 " stroke="black" fill="none" stroke-width="6.0" stroke-linecap="round" stroke-linejoin="round" />
<path d="M 108.75 133.75 L 110.0 132.5 L 113.75 132.5 L 113.75 137.5 L 110.0 148.75 L 102.5 160.0 L 93.75 170.0 L 83.75 177.5 L 72.5 183.75 L 66.25 186.25 L 66.25 186.25 L 75.0 183.75 L 91.25 173.75 L 108.75 161.25 L 127.5 150.0 L 136.25 143.75 L 133.75 142.5 L 123.75 146.25 L 115.0 151.25 L 105.0 157.5 L 98.75 167.5 L 93.75 187.5 L 93.75 220.0 L 93.75 253.75 L 97.5 265.0 L 100.0 267.5 L 100.0 265.0 L 97.5 257.5 L 95.0 248.75 L 95.0 246.25 " stroke="black" fill="none" stroke-width="6.0" stroke-linecap="round" stroke-linejoin="round" />
<path d="M 96.25 187.5 L 98.75 185.0 L 100.0 182.5 L 103.75 178.75 L 111.25 178.75 L 120.0 186.25 L 125.0 202.5 L 126.25 226.25 L 121.25 246.25 L 117.5 253.75 L 115.0 255.0 L 112.5 252.5 L 108.75 248.75 L 105.0 241.25 L 102.5 232.5 L 100.0 222.5 L 96.25 216.25 L 93.75 213.75 L 93.75 212.5 L 98.75 208.75 L 108.75 203.75 L 118.75 197.5 L 123.75 193.75 L 122.5 193.75 " stroke="black" fill="none" stroke-width="6.0" stroke-linecap="round" stroke-linejoin="round" />
<path d="M 100.0 223.75 L 97.5 233.75 L 96.25 236.25 L 100.0 233.75 L 112.5 220.0 L 130.0 203.75 L 132.5 201.25 " stroke="black" fill="none" stroke-width="6.0" stroke-linecap="round" stroke-linejoin="round" />
<path d="M 158.75 132.5 L 158.75 132.5 L 156.25 136.25 L 155.0 136.25 L 157.5 136.25 L 166.25 131.25 L 178.75 123.75 L 188.75 117.5 L 191.25 113.75 L 183.75 115.0 L 173.75 117.5 L 165.0 120.0 L 158.75 120.0 L 155.0 117.5 L 153.75 116.25 L 153.75 118.75 L 153.75 132.5 L 153.75 150.0 L 153.75 162.5 L 153.75 166.25 L 156.25 166.25 L 162.5 161.25 L 172.5 155.0 L 181.25 148.75 L 187.5 146.25 L 188.75 146.25 L 181.25 156.25 L 170.0 173.75 L 158.75 188.75 L 151.25 197.5 L 151.25 198.75 L 157.5 193.75 L 166.25 185.0 L 175.0 176.25 L 181.25 170.0 L 182.5 168.75 L 178.75 181.25 L 173.75 200.0 L 172.5 223.75 L 177.5 245.0 L 190.0 252.5 L 205.0 251.25 L 217.5 246.25 L 223.75 240.0 L 225.0 233.75 L 221.25 228.75 L 216.25 225.0 " stroke="black" fill="none" stroke-width="6.0" stroke-linecap="round" stroke-linejoin="round" />
<path d="M 168.75 193.75 L 168.75 193.75 L 170.0 193.75 L 180.0 188.75 L 198.75 180.0 L 212.5 172.5 L 215.0 168.75 L 210.0 171.25 " stroke="black" fill="none" stroke-width="6.0" stroke-linecap="round" stroke-linejoin="round" />
<path d="M 176.25 201.25 L 176.25 205.0 L 173.75 208.75 L 173.75 208.75 L 182.5 206.25 L 196.25 198.75 L 207.5 191.25 L 211.25 187.5 L 211.25 187.5 " stroke="black" fill="none" stroke-width="6.0" stroke-linecap="round" stroke-linejoin="round" />
<path d="M 186.25 213.75 L 185.0 216.25 L 183.75 221.25 L 187.5 220.0 L 197.5 212.5 L 210.0 203.75 L 217.5 197.5 " stroke="black" fill="none" stroke-width="6.0" stroke-linecap="round" stroke-linejoin="round" />
</svg>