<svg xmlns="http://www.w3.org/2000/svg" width="300" height="300" viewBox="0 0 300 300">
<path d="M 140.0 63.75 L 138.75 62.5 L 137.5 61.25 L 141.25 61.25 L 148.75 62.5 L 157.5 66.25 L 161.25 70.0 L 161.25 71.25 " stroke="black" fill="none" stroke-width="6.0" stroke-linecap="round" stroke-linejoin="round" />
<path d="M 75.0 88.75 L 75.0 88.75 L 73.75 87.5 L 73.75 87.5 L 73.75 88.75 L 73.75 96.25 L 73.75 103.75 L 73.75 108.75 L 73.75 111.25 L 72.5 111.25 " stroke="black" fill="none" stroke-width="6.0" stroke-linecap="round" stroke-linejoin="round" />
<path d="M 70.0 97.5 L 70.0 97.5 L 68.75 97.5 L 68.75 97.5 L 78.75 95.0 L 100.0 92.5 L 136.25 88.75 L 168.75 86.25 L 191.25 86.25 L 210.0 86.25 L 215.0 87.5 L 215.0 90.0 L 207.5 95.0 L 197.5 101.25 L 185.0 108.75 L 175.0 112.5 " stroke="black" fill="none" stroke-width="6.0" stroke-linecap="round" stroke-linejoin="round" />
<path d="M 103.75 112.5 L 103.75 112.5 L 103.75 113.75 L 102.5 115.0 L 106.25 117.5 L 113.75 120.0 L 118.75 125.0 L 118.75 127.5 " stroke="black" fill="none" stroke-width="6.0" stroke-linecap="round" stroke-linejoin="round" />
<path d="M 70.0 145.0 L 68.75 145.0 L 67.5 145.0 L 77.5 143.75 L 95.0 137.5 L 116.25 130.0 L 131.25 122.5 L 131.25 121.25 L 120.0 125.0 L 110.0 128.75 L 101.25 132.5 L 95.0 136.25 L 93.75 141.25 L 93.75 145.0 L 93.75 152.5 L 93.75 161.25 L 93.75 165.0 L 93.75 165.0 " stroke="black" fill="none" stroke-width="6.0" stroke-linecap="round" stroke-linejoin="round" />
<path d="M 105.0 136.25 L 106.25 135.0 L 108.75 135.0 L 110.0 137.5 L 108.75 145.0 L 103.75 155.0 L 96.25 165.0 L 85.0 173.75 L 72.5 181.25 L 65.0 185.0 L 65.0 185.0 L 77.5 181.25 L 95.0 172.5 L 112.5 163.75 L 127.5 155.0 L 132.5 151.25 L 127.5 151.25 L 117.5 156.25 L 107.5 162.5 L 100.0 171.25 L 95.0 188.75 L 95.0 216.25 L 98.75 245.0 L 102.5 260.0 L 105.0 263.75 L 105.0 263.75 L 102.5 258.75 L 100.0 252.5 L 98.75 250.0 " stroke="black" fill="none" stroke-width="6.0" stroke-linecap="round" stroke-linejoin="round" />
<path d="M 96.25 193.75 L 96.25 193.75 L 96.25 192.5 L 98.75 188.75 L 107.5 186.25 L 118.75 187.5 L 128.75 202.5 L 130.0 226.25 L 125.0 243.75 L 120.0 251.25 L 116.25 251.25 L 115.0 248.75 L 113.75 247.5 " stroke="black" fill="none" stroke-width="6.0" stroke-linecap="round" stroke-linejoin="round" />
<path d="M 101.25 213.75 L 97.5 213.75 L 96.25 215.0 L 102.5 211.25 L 115.0 203.75 L 128.75 196.25 L 133.75 192.5 " stroke="black" fill="none" stroke-width="6.0" stroke-linecap="round" stroke-linejoin="round" />
<path d="M 103.75 233.75 L 98.75 240.0 L 100.0 240.0 L 112.5 227.5 L 131.25 208.75 L 135.0 203.75 " stroke="black" fill="none" stroke-width="6.0" stroke-linecap="round" stroke-linejoin="round" />
<path d="M 160.0 132.5 L 157.5 133.75 L 156.25 133.75 L 160.0 133.75 L 172.5 128.75 L 185.0 122.5 L 192.5 116.25 L 193.75 113.75 L 187.5 113.75 " stroke="black" fill="none" stroke-width="6.0" stroke-linecap="round" stroke-linejoin="round" />
<path d="M 157.5 117.5 L 157.5 116.25 L 157.5 116.25 L 157.5 116.25 L 157.5 125.0 L 156.25 141.25 L 153.75 155.0 L 152.5 161.25 L 152.5 161.25 L 156.25 158.75 L 166.25 152.5 L 178.75 148.75 L 187.5 146.25 L 190.0 145.0 L 185.0 152.5 L 173.75 163.75 L 161.25 176.25 L 152.5 187.5 L 148.75 192.5 L 151.25 191.25 L 161.25 185.0 L 175.0 173.75 L 187.5 162.5 L 195.0 157.5 L 196.25 156.25 L 188.75 167.5 L 178.75 186.25 L 171.25 210.0 L 170.0 235.0 L 178.75 248.75 L 193.75 251.25 L 207.5 248.75 L 220.0 245.0 L 227.5 241.25 L 227.5 237.5 L 221.25 233.75 L 215.0 230.0 " stroke="black" fill="none" stroke-width="6.0" stroke-linecap="round" stroke-linejoin="round" />
<path d="M 165.0 201.25 L 165.0 202.5 L 163.75 202.5 L 165.0 201.25 L 178.75 196.25 L 198.75 188.75 L 213.75 181.25 L 216.25 177.5 L 210.0 180.0 L 206.25 182.5 " stroke="black" fill="none" stroke-width="6.0" stroke-linecap="round" stroke-linejoin="round" />
<path d="M 176.25 212.5 L 177.5 213.75 L 178.75 215.0 L 187.5 212.5 L 202.5 205.0 L 215.0 197.5 L 217.5 195.0 L 210.0 196.25 " stroke="black" fill="none" stroke-width="6.0" stroke-linecap="round" stroke-linejoin="round" />
<path d="M 177.5 230.0 L 173.75 235.0 L 178.75 235.0 L 193.75 227.5 L 212.5 215.0 L 230.0 203.75 " stroke="black" fill="none" stroke-width="6.0" stroke-linecap="round" stroke-linejoin="round" />
</svg>