<svg xmlns="http://www.w3.org/2000/svg" width="300" height="300" viewBox="0 0 300 300">
<path d="M 92.5 93.75 L 88.75 95.0 L 83.75 97.5 L 85.0 97.5 L 95.0 96.25 L 115.0 91.25 L 136.25 85.0 L 150.0 77.5 L 153.75 72.5 L 143.75 73.75 " stroke="black" fill="none" stroke-width="6.0" stroke-linecap="round" stroke-linejoin="round" />
<path d="M 88.75 115.0 L 88.75 116.25 L 86.25 123.75 L 87.5 131.25 L 90.0 138.75 L 92.5 145.0 L 93.75 147.5 L 92.5 146.25 L 90.0 142.5 L 87.5 138.75 L 85.0 135.0 L 83.75 132.5 L 85.0 128.75 L 91.25 125.0 L 101.25 122.5 L 112.5 121.25 L 117.5 123.75 L 112.5 133.75 L 100.0 145.0 L 87.5 153.75 L 82.5 156.25 L 86.25 152.5 L 97.5 142.5 L 111.25 130.0 L 123.75 116.25 L 126.25 113.75 " stroke="black" fill="none" stroke-width="6.0" stroke-linecap="round" stroke-linejoin="round" />
<path d="M 136.25 93.75 L 136.25 92.5 L 135.0 91.25 L 135.0 91.25 L 135.0 93.75 L 136.25 107.5 L 136.25 130.0 L 130.0 150.0 L 123.75 156.25 " stroke="black" fill="none" stroke-width="6.0" stroke-linecap="round" stroke-linejoin="round" />
<path d="M 65.0 173.75 L 63.75 173.75 L 61.25 176.25 L 68.75 175.0 L 88.75 166.25 L 120.0 153.75 L 153.75 136.25 L 166.25 126.25 L 165.0 123.75 L 152.5 127.5 L 146.25 131.25 " stroke="black" fill="none" stroke-width="6.0" stroke-linecap="round" stroke-linejoin="round" />
<path d="M 95.0 177.5 L 93.75 180.0 L 92.5 191.25 L 93.75 203.75 L 97.5 216.25 L 100.0 221.25 L 100.0 222.5 L 97.5 221.25 L 95.0 216.25 L 92.5 211.25 L 92.5 203.75 L 97.5 195.0 L 107.5 187.5 L 121.25 183.75 L 128.75 185.0 L 127.5 195.0 L 117.5 206.25 L 106.25 213.75 L 98.75 215.0 L 98.75 207.5 " stroke="black" fill="none" stroke-width="6.0" stroke-linecap="round" stroke-linejoin="round" />
<path d="M 140.0 147.5 L 140.0 147.5 L 140.0 146.25 L 140.0 147.5 L 141.25 162.5 L 145.0 202.5 L 147.5 241.25 L 147.5 258.75 L 145.0 262.5 L 142.5 262.5 L 136.25 260.0 L 123.75 255.0 L 108.75 246.25 L 98.75 233.75 " stroke="black" fill="none" stroke-width="6.0" stroke-linecap="round" stroke-linejoin="round" />
<path d="M 182.5 92.5 L 181.25 92.5 L 180.0 92.5 L 180.0 95.0 L 181.25 105.0 L 183.75 117.5 L 188.75 126.25 L 198.75 127.5 L 212.5 118.75 L 226.25 110.0 L 236.25 105.0 L 240.0 105.0 L 237.5 107.5 L 227.5 121.25 L 215.0 135.0 L 203.75 145.0 L 200.0 146.25 " stroke="black" fill="none" stroke-width="6.0" stroke-linecap="round" stroke-linejoin="round" />
<path d="M 202.5 127.5 L 202.5 130.0 L 201.25 138.75 L 200.0 166.25 L 197.5 205.0 L 190.0 235.0 L 180.0 246.25 L 168.75 247.5 L 166.25 245.0 " stroke="black" fill="none" stroke-width="6.0" stroke-linecap="round" stroke-linejoin="round" />
<path d="M 196.25 180.0 L 197.5 183.75 L 203.75 195.0 L 220.0 211.25 L 240.0 233.75 L 256.25 247.5 L 266.25 252.5 L 275.0 256.25 L 280.0 258.75 " stroke="black" fill="none" stroke-width="6.0" stroke-linecap="round" stroke-linejoin="round" />
</svg>