<svg xmlns="http://www.w3.org/2000/svg" width="300" height="300" viewBox="0 0 300 300">
<path d="M 77.5 102.5 L 75.0 103.75 L 73.75 105.0 L 80.0 105.0 L 96.25 100.0 L 120.0 90.0 L 137.5 81.25 L 143.75 75.0 L 138.75 76.25 " stroke="black" fill="none" stroke-width="6.0" stroke-linecap="round" stroke-linejoin="round" />
<path d="M 80.0 130.0 L 76.25 136.25 L 78.75 141.25 L 85.0 150.0 L 90.0 157.5 L 91.25 160.0 L 91.25 160.0 L 90.0 157.5 L 86.25 153.75 L 82.5 151.25 L 78.75 148.75 L 77.5 146.25 L 78.75 143.75 L 85.0 141.25 L 96.25 136.25 L 107.5 132.5 L 113.75 132.5 L 111.25 136.25 L 102.5 143.75 L 93.75 151.25 L 87.5 157.5 L 87.5 158.75 L 91.25 156.25 L 101.25 148.75 L 110.0 141.25 " stroke="black" fill="none" stroke-width="6.0" stroke-linecap="round" stroke-linejoin="round" />
<path d="M 127.5 96.25 L 125.0 95.0 L 123.75 95.0 L 123.75 100.0 L 126.25 121.25 L 126.25 152.5 L 121.25 172.5 L 113.75 180.0 L 112.5 181.25 " stroke="black" fill="none" stroke-width="6.0" stroke-linecap="round" stroke-linejoin="round" />
<path d="M 56.25 193.75 L 51.25 200.0 L 50.0 201.25 L 61.25 201.25 L 82.5 195.0 L 110.0 180.0 L 141.25 157.5 L 155.0 145.0 L 157.5 141.25 L 152.5 141.25 L 145.0 146.25 " stroke="black" fill="none" stroke-width="6.0" stroke-linecap="round" stroke-linejoin="round" />
<path d="M 83.75 203.75 L 82.5 206.25 L 82.5 211.25 L 87.5 220.0 L 91.25 230.0 L 93.75 236.25 L 93.75 238.75 L 91.25 238.75 L 88.75 233.75 L 87.5 227.5 L 87.5 221.25 L 88.75 215.0 L 93.75 208.75 L 102.5 203.75 L 111.25 201.25 L 115.0 202.5 L 112.5 211.25 L 105.0 222.5 L 97.5 232.5 L 93.75 236.25 L 93.75 231.25 L 95.0 228.75 " stroke="black" fill="none" stroke-width="6.0" stroke-linecap="round" stroke-linejoin="round" />
<path d="M 130.0 168.75 L 130.0 167.5 L 130.0 167.5 L 130.0 175.0 L 133.75 197.5 L 136.25 226.25 L 137.5 245.0 L 137.5 250.0 L 136.25 250.0 L 133.75 250.0 L 128.75 248.75 L 120.0 246.25 L 108.75 241.25 L 105.0 238.75 " stroke="black" fill="none" stroke-width="6.0" stroke-linecap="round" stroke-linejoin="round" />
<path d="M 163.75 102.5 L 163.75 101.25 L 162.5 97.5 L 162.5 97.5 L 165.0 101.25 L 166.25 116.25 L 166.25 131.25 L 166.25 140.0 L 167.5 142.5 L 177.5 138.75 L 192.5 128.75 L 207.5 118.75 L 218.75 111.25 L 223.75 110.0 L 223.75 111.25 L 221.25 118.75 L 215.0 132.5 L 207.5 146.25 L 201.25 156.25 L 195.0 161.25 L 193.75 161.25 " stroke="black" fill="none" stroke-width="6.0" stroke-linecap="round" stroke-linejoin="round" />
<path d="M 192.5 142.5 L 192.5 142.5 L 190.0 141.25 L 188.75 141.25 L 187.5 147.5 L 187.5 171.25 L 183.75 206.25 L 176.25 232.5 L 170.0 243.75 L 163.75 243.75 L 162.5 241.25 " stroke="black" fill="none" stroke-width="6.0" stroke-linecap="round" stroke-linejoin="round" />
<path d="M 188.75 173.75 L 188.75 172.5 L 188.75 172.5 L 193.75 177.5 L 202.5 190.0 L 216.25 208.75 L 230.0 230.0 L 242.5 245.0 L 252.5 251.25 L 258.75 255.0 L 263.75 256.25 L 266.25 258.75 " stroke="black" fill="none" stroke-width="6.0" stroke-linecap="round" stroke-linejoin="round" />
</svg>