<svg xmlns="http://www.w3.org/2000/svg" width="300" height="300" viewBox="0 0 300 300">
<path d="M 130.0 121.25 L 128.75 121.25 L 127.5 121.25 L 127.5 121.25 L 126.25 121.25 L 126.25 121.25 L 126.25 121.25 L 125.0 121.25 L 125.0 121.25 L 125.0 121.25 L 125.0 122.5 L 123.75 126.25 L 123.75 131.25 L 122.5 138.75 L 120.0 146.25 L 118.75 153.75 L 117.5 161.25 L 120.0 171.25 L 121.25 181.25 L 122.5 192.5 L 123.75 201.25 L 123.75 208.75 L 130.0 218.75 L 133.75 222.5 L 137.5 226.25 L 143.75 227.5 L 148.75 228.75 L 155.0 228.75 L 161.25 227.5 L 166.25 225.0 L 171.25 218.75 L 175.0 210.0 L 178.75 200.0 L 181.25 188.75 L 182.5 172.5 L 181.25 155.0 L 176.25 140.0 L 172.5 130.0 L 170.0 128.75 L 166.25 122.5 L 160.0 117.5 L 155.0 113.75 L 148.75 111.25 L 141.25 112.5 L 133.75 116.25 L 128.75 120.0 L 128.75 126.25 L 128.75 132.5 " stroke="black" fill="none" stroke-width="6.0" stroke-linecap="round" stroke-linejoin="round" />
</svg>