<svg xmlns="http://www.w3.org/2000/svg" width="300" height="300" viewBox="0 0 300 300">
<path d="M 140.0 68.75 L 137.5 68.75 L 136.25 68.75 L 137.5 77.5 L 143.75 92.5 L 145.0 103.75 " stroke="black" fill="none" stroke-width="6.0" stroke-linecap="round" stroke-linejoin="round" />
<path d="M 167.5 60.0 L 167.5 60.0 L 168.75 63.75 L 172.5 68.75 L 175.0 78.75 L 168.75 92.5 L 152.5 103.75 L 133.75 112.5 L 111.25 123.75 L 91.25 133.75 L 88.75 136.25 L 98.75 135.0 L 123.75 130.0 L 152.5 118.75 L 183.75 106.25 L 201.25 97.5 L 200.0 97.5 L 188.75 101.25 L 172.5 107.5 L 156.25 116.25 L 141.25 128.75 L 127.5 143.75 L 120.0 155.0 L 116.25 161.25 L 116.25 162.5 " stroke="black" fill="none" stroke-width="6.0" stroke-linecap="round" stroke-linejoin="round" />
<path d="M 132.5 151.25 L 131.25 151.25 L 130.0 151.25 L 128.75 151.25 L 128.75 151.25 L 128.75 158.75 L 131.25 191.25 L 135.0 232.5 L 137.5 251.25 L 138.75 253.75 L 138.75 247.5 L 138.75 240.0 " stroke="black" fill="none" stroke-width="6.0" stroke-linecap="round" stroke-linejoin="round" />
<path d="M 133.75 161.25 L 132.5 161.25 L 133.75 160.0 L 142.5 155.0 L 160.0 147.5 L 175.0 143.75 L 183.75 147.5 L 186.25 168.75 L 186.25 200.0 L 187.5 228.75 L 188.75 246.25 L 190.0 252.5 L 190.0 252.5 L 187.5 250.0 L 182.5 243.75 L 173.75 232.5 L 167.5 221.25 " stroke="black" fill="none" stroke-width="6.0" stroke-linecap="round" stroke-linejoin="round" />
<path d="M 130.0 193.75 L 123.75 195.0 L 122.5 195.0 L 133.75 190.0 L 151.25 181.25 L 167.5 171.25 L 175.0 166.25 L 170.0 170.0 " stroke="black" fill="none" stroke-width="6.0" stroke-linecap="round" stroke-linejoin="round" />
<path d="M 142.5 213.75 L 140.0 216.25 L 138.75 218.75 L 143.75 218.75 L 156.25 212.5 L 168.75 205.0 L 173.75 200.0 L 175.0 198.75 " stroke="black" fill="none" stroke-width="6.0" stroke-linecap="round" stroke-linejoin="round" />
<path d="M 143.75 257.5 L 138.75 265.0 L 140.0 266.25 L 155.0 262.5 L 173.75 252.5 L 181.25 247.5 " stroke="black" fill="none" stroke-width="6.0" stroke-linecap="round" stroke-linejoin="round" />
</svg>