<svg xmlns="http://www.w3.org/2000/svg" width="300" height="300" viewBox="0 0 300 300">
<path d="M 125.0 80.0 L 123.75 80.0 L 116.25 82.5 L 116.25 86.25 L 123.75 96.25 L 132.5 106.25 L 135.0 110.0 " stroke="black" fill="none" stroke-width="6.0" stroke-linecap="round" stroke-linejoin="round" />
<path d="M 158.75 70.0 L 158.75 71.25 L 158.75 73.75 L 158.75 77.5 L 158.75 85.0 L 151.25 95.0 L 137.5 106.25 L 118.75 115.0 L 98.75 125.0 L 91.25 130.0 L 93.75 130.0 L 108.75 128.75 L 131.25 123.75 L 153.75 112.5 L 173.75 101.25 L 181.25 95.0 L 177.5 95.0 L 166.25 100.0 L 152.5 107.5 L 140.0 120.0 L 126.25 138.75 L 116.25 163.75 L 113.75 193.75 L 115.0 216.25 L 120.0 228.75 L 123.75 236.25 L 123.75 240.0 L 123.75 240.0 L 122.5 238.75 " stroke="black" fill="none" stroke-width="6.0" stroke-linecap="round" stroke-linejoin="round" />
<path d="M 128.75 148.75 L 128.75 148.75 L 128.75 148.75 L 132.5 147.5 L 142.5 146.25 L 156.25 147.5 L 168.75 157.5 L 177.5 182.5 L 180.0 205.0 L 180.0 220.0 L 175.0 230.0 L 168.75 233.75 L 162.5 231.25 " stroke="black" fill="none" stroke-width="6.0" stroke-linecap="round" stroke-linejoin="round" />
<path d="M 121.25 178.75 L 118.75 180.0 L 116.25 182.5 L 123.75 182.5 L 140.0 178.75 L 156.25 171.25 L 165.0 165.0 L 165.0 163.75 " stroke="black" fill="none" stroke-width="6.0" stroke-linecap="round" stroke-linejoin="round" />
<path d="M 122.5 198.75 L 121.25 202.5 L 125.0 202.5 L 137.5 202.5 L 155.0 196.25 L 168.75 191.25 L 170.0 190.0 " stroke="black" fill="none" stroke-width="6.0" stroke-linecap="round" stroke-linejoin="round" />
<path d="M 133.75 232.5 L 132.5 236.25 L 131.25 241.25 L 143.75 241.25 L 162.5 236.25 L 185.0 227.5 " stroke="black" fill="none" stroke-width="6.0" stroke-linecap="round" stroke-linejoin="round" />
</svg>