<svg xmlns="http://www.w3.org/2000/svg" width="300" height="300" viewBox="0 0 300 300">
<path d="M 81.25 125.0 L 80.0 125.0 L 73.75 125.0 L 72.5 125.0 L 82.5 126.25 L 93.75 126.25 L 103.75 126.25 L 107.5 126.25 " stroke="black" fill="none" stroke-width="6.0" stroke-linecap="round" stroke-linejoin="round" />
<path d="M 75.0 215.0 L 68.75 222.5 L 68.75 223.75 L 81.25 215.0 L 96.25 201.25 L 112.5 182.5 L 118.75 170.0 " stroke="black" fill="none" stroke-width="6.0" stroke-linecap="round" stroke-linejoin="round" />
<path d="M 137.5 90.0 L 135.0 91.25 L 132.5 91.25 L 136.25 90.0 L 151.25 83.75 L 170.0 73.75 L 187.5 62.5 L 193.75 56.25 L 188.75 56.25 L 178.75 58.75 L 168.75 60.0 L 158.75 61.25 L 152.5 62.5 L 150.0 62.5 L 150.0 65.0 L 152.5 71.25 L 155.0 85.0 L 155.0 100.0 L 148.75 113.75 L 140.0 122.5 L 132.5 127.5 L 130.0 128.75 L 133.75 128.75 L 145.0 126.25 L 160.0 117.5 L 178.75 106.25 L 191.25 97.5 L 195.0 93.75 L 191.25 92.5 L 181.25 97.5 L 167.5 108.75 L 153.75 130.0 L 138.75 167.5 L 122.5 207.5 L 113.75 227.5 L 111.25 230.0 L 111.25 226.25 " stroke="black" fill="none" stroke-width="6.0" stroke-linecap="round" stroke-linejoin="round" />
<path d="M 171.25 122.5 L 172.5 122.5 L 181.25 123.75 L 200.0 127.5 L 218.75 132.5 L 233.75 136.25 L 233.75 140.0 L 227.5 141.25 " stroke="black" fill="none" stroke-width="6.0" stroke-linecap="round" stroke-linejoin="round" />
<path d="M 177.5 157.5 L 168.75 168.75 L 162.5 190.0 L 156.25 207.5 L 153.75 215.0 L 152.5 217.5 L 155.0 215.0 L 162.5 205.0 L 175.0 192.5 L 188.75 180.0 L 202.5 170.0 L 208.75 166.25 L 207.5 176.25 L 197.5 196.25 L 186.25 216.25 L 172.5 236.25 L 161.25 247.5 L 157.5 248.75 " stroke="black" fill="none" stroke-width="6.0" stroke-linecap="round" stroke-linejoin="round" />
<path d="M 167.5 203.75 L 167.5 202.5 L 166.25 201.25 L 166.25 200.0 L 168.75 198.75 L 173.75 198.75 L 180.0 200.0 L 185.0 202.5 L 190.0 206.25 L 196.25 211.25 L 203.75 220.0 L 216.25 233.75 L 236.25 246.25 L 255.0 255.0 L 265.0 262.5 " stroke="black" fill="none" stroke-width="6.0" stroke-linecap="round" stroke-linejoin="round" />
</svg>