<svg xmlns="http://www.w3.org/2000/svg" width="300" height="300" viewBox="0 0 300 300">
<path d="M 66.25 92.5 L 65.0 93.75 L 62.5 95.0 L 67.5 95.0 L 83.75 92.5 L 107.5 86.25 L 130.0 77.5 L 136.25 73.75 L 130.0 73.75 L 120.0 75.0 " stroke="black" fill="none" stroke-width="6.0" stroke-linecap="round" stroke-linejoin="round" />
<path d="M 90.0 73.75 L 87.5 73.75 L 83.75 75.0 L 82.5 80.0 L 82.5 92.5 L 85.0 105.0 L 86.25 107.5 " stroke="black" fill="none" stroke-width="6.0" stroke-linecap="round" stroke-linejoin="round" />
<path d="M 106.25 76.25 L 106.25 76.25 L 106.25 76.25 L 103.75 85.0 L 98.75 102.5 L 91.25 118.75 " stroke="black" fill="none" stroke-width="6.0" stroke-linecap="round" stroke-linejoin="round" />
<path d="M 60.0 125.0 L 60.0 125.0 L 57.5 123.75 L 56.25 123.75 L 58.75 126.25 L 61.25 132.5 L 67.5 143.75 L 75.0 148.75 L 87.5 146.25 L 103.75 135.0 L 120.0 123.75 L 131.25 117.5 L 133.75 116.25 L 133.75 116.25 L 132.5 121.25 L 131.25 132.5 L 131.25 152.5 L 135.0 183.75 L 140.0 217.5 L 143.75 237.5 L 145.0 243.75 L 145.0 245.0 L 140.0 242.5 L 131.25 236.25 L 120.0 223.75 L 107.5 215.0 " stroke="black" fill="none" stroke-width="6.0" stroke-linecap="round" stroke-linejoin="round" />
<path d="M 68.75 183.75 L 67.5 183.75 L 66.25 183.75 L 67.5 191.25 L 75.0 203.75 L 81.25 211.25 L 87.5 213.75 L 86.25 207.5 L 82.5 201.25 L 78.75 195.0 L 75.0 191.25 L 73.75 187.5 L 80.0 183.75 L 92.5 180.0 L 103.75 180.0 L 106.25 186.25 L 100.0 200.0 L 90.0 211.25 L 83.75 213.75 L 87.5 205.0 L 92.5 195.0 " stroke="black" fill="none" stroke-width="6.0" stroke-linecap="round" stroke-linejoin="round" />
<path d="M 171.25 85.0 L 170.0 83.75 L 166.25 83.75 L 165.0 87.5 L 162.5 101.25 L 165.0 117.5 L 173.75 122.5 L 187.5 117.5 L 202.5 103.75 L 212.5 90.0 L 216.25 83.75 L 215.0 82.5 L 206.25 90.0 " stroke="black" fill="none" stroke-width="6.0" stroke-linecap="round" stroke-linejoin="round" />
<path d="M 186.25 130.0 L 186.25 131.25 L 186.25 137.5 L 188.75 148.75 L 191.25 167.5 L 187.5 190.0 L 178.75 206.25 L 167.5 215.0 L 153.75 220.0 L 143.75 218.75 L 141.25 210.0 " stroke="black" fill="none" stroke-width="6.0" stroke-linecap="round" stroke-linejoin="round" />
<path d="M 155.0 167.5 L 156.25 167.5 L 156.25 167.5 L 163.75 172.5 L 183.75 188.75 L 206.25 206.25 L 226.25 222.5 L 242.5 235.0 L 255.0 241.25 L 263.75 245.0 L 270.0 246.25 L 271.25 246.25 " stroke="black" fill="none" stroke-width="6.0" stroke-linecap="round" stroke-linejoin="round" />
</svg>