<svg xmlns="http://www.w3.org/2000/svg" width="300" height="300" viewBox="0 0 300 300">
<path d="M 100.0 88.75 L 100.0 88.75 L 97.5 88.75 L 96.25 88.75 L 96.25 88.75 L 98.75 87.5 L 112.5 87.5 L 125.0 90.0 L 127.5 90.0 L 137.5 93.75 L 138.75 96.25 L 138.75 100.0 L 133.75 105.0 L 126.25 111.25 L 118.75 117.5 L 111.25 122.5 L 107.5 125.0 L 97.5 132.5 L 95.0 133.75 L 91.25 137.5 L 90.0 138.75 L 98.75 136.25 L 108.75 132.5 L 112.5 131.25 L 127.5 127.5 L 132.5 127.5 L 136.25 126.25 L 138.75 126.25 L 138.75 128.75 L 136.25 133.75 L 131.25 140.0 L 127.5 142.5 L 117.5 152.5 L 115.0 155.0 L 106.25 162.5 L 96.25 171.25 L 93.75 175.0 L 96.25 175.0 L 105.0 171.25 L 110.0 168.75 L 116.25 166.25 L 121.25 166.25 L 127.5 166.25 L 132.5 168.75 L 136.25 175.0 L 137.5 178.75 L 137.5 197.5 L 130.0 222.5 L 118.75 240.0 L 107.5 246.25 L 100.0 246.25 L 96.25 242.5 L 93.75 237.5 L 93.75 230.0 L 92.5 221.25 " stroke="black" fill="none" stroke-width="6.0" stroke-linecap="round" stroke-linejoin="round" />
<path d="M 166.25 77.5 L 166.25 77.5 L 167.5 77.5 L 170.0 77.5 L 180.0 81.25 L 190.0 85.0 L 193.75 86.25 L 206.25 90.0 L 208.75 90.0 L 210.0 90.0 L 211.25 91.25 " stroke="black" fill="none" stroke-width="6.0" stroke-linecap="round" stroke-linejoin="round" />
<path d="M 153.75 117.5 L 153.75 118.75 L 153.75 120.0 L 156.25 120.0 L 162.5 120.0 L 171.25 118.75 L 180.0 116.25 L 190.0 113.75 L 200.0 111.25 L 203.75 110.0 L 211.25 106.25 L 213.75 105.0 " stroke="black" fill="none" stroke-width="6.0" stroke-linecap="round" stroke-linejoin="round" />
<path d="M 192.5 125.0 L 190.0 126.25 L 186.25 132.5 L 181.25 141.25 L 173.75 157.5 L 168.75 173.75 L 167.5 180.0 L 176.25 177.5 L 190.0 166.25 L 203.75 152.5 L 215.0 143.75 L 220.0 138.75 L 218.75 141.25 L 207.5 157.5 L 193.75 182.5 L 180.0 208.75 L 173.75 222.5 L 176.25 226.25 L 190.0 223.75 L 203.75 215.0 L 216.25 206.25 L 223.75 198.75 L 226.25 196.25 L 225.0 195.0 L 221.25 193.75 L 217.5 193.75 L 215.0 192.5 L 212.5 191.25 L 212.5 191.25 L 211.25 191.25 L 211.25 190.0 L 211.25 190.0 L 211.25 190.0 L 213.75 191.25 L 217.5 195.0 L 226.25 205.0 L 237.5 221.25 L 246.25 238.75 L 250.0 250.0 L 251.25 252.5 " stroke="black" fill="none" stroke-width="6.0" stroke-linecap="round" stroke-linejoin="round" />
</svg>