<svg xmlns="http://www.w3.org/2000/svg" width="300" height="300" viewBox="0 0 300 300">
<path d="M 138.75 86.25 L 138.75 86.25 L 140.0 86.25 L 145.0 86.25 L 156.25 90.0 L 172.5 95.0 L 182.5 100.0 L 180.0 103.75 L 177.5 105.0 " stroke="black" fill="none" stroke-width="6.0" stroke-linecap="round" stroke-linejoin="round" />
<path d="M 86.25 136.25 L 86.25 136.25 L 85.0 136.25 L 86.25 136.25 L 103.75 136.25 L 131.25 132.5 L 182.5 120.0 L 207.5 111.25 L 211.25 108.75 L 207.5 108.75 L 205.0 110.0 " stroke="black" fill="none" stroke-width="6.0" stroke-linecap="round" stroke-linejoin="round" />
<path d="M 120.0 172.5 L 120.0 172.5 L 118.75 173.75 L 122.5 175.0 L 137.5 170.0 L 161.25 158.75 L 178.75 150.0 L 183.75 146.25 L 178.75 147.5 " stroke="black" fill="none" stroke-width="6.0" stroke-linecap="round" stroke-linejoin="round" />
<path d="M 115.0 205.0 L 115.0 206.25 L 113.75 208.75 L 121.25 208.75 L 141.25 201.25 L 167.5 186.25 L 186.25 173.75 L 190.0 170.0 L 177.5 176.25 L 173.75 178.75 " stroke="black" fill="none" stroke-width="6.0" stroke-linecap="round" stroke-linejoin="round" />
<path d="M 108.75 227.5 L 108.75 228.75 L 111.25 233.75 L 122.5 246.25 L 136.25 261.25 L 146.25 270.0 L 147.5 271.25 L 145.0 271.25 L 138.75 267.5 L 131.25 263.75 L 121.25 258.75 L 113.75 253.75 L 111.25 248.75 L 118.75 242.5 L 141.25 232.5 L 168.75 221.25 L 197.5 211.25 L 210.0 210.0 L 211.25 212.5 L 203.75 226.25 L 188.75 243.75 L 168.75 258.75 L 153.75 268.75 L 151.25 270.0 L 162.5 267.5 L 182.5 257.5 L 202.5 245.0 L 212.5 235.0 " stroke="black" fill="none" stroke-width="6.0" stroke-linecap="round" stroke-linejoin="round" />
</svg>