<svg xmlns="http://www.w3.org/2000/svg" width="300" height="300" viewBox="0 0 300 300">
<path d="M 127.5 81.25 L 123.75 81.25 L 120.0 81.25 L 123.75 81.25 L 140.0 83.75 L 157.5 86.25 L 173.75 86.25 L 180.0 87.5 L 175.0 92.5 L 160.0 101.25 L 146.25 110.0 L 131.25 120.0 L 120.0 127.5 L 116.25 128.75 L 123.75 127.5 L 140.0 121.25 L 157.5 111.25 L 175.0 100.0 L 182.5 95.0 L 176.25 93.75 " stroke="black" fill="none" stroke-width="6.0" stroke-linecap="round" stroke-linejoin="round" />
<path d="M 108.75 98.75 L 106.25 100.0 L 103.75 102.5 L 103.75 121.25 L 102.5 173.75 L 96.25 222.5 L 88.75 248.75 L 80.0 255.0 L 78.75 256.25 " stroke="black" fill="none" stroke-width="6.0" stroke-linecap="round" stroke-linejoin="round" />
<path d="M 141.25 137.5 L 140.0 137.5 L 138.75 136.25 L 141.25 143.75 L 146.25 156.25 L 146.25 170.0 " stroke="black" fill="none" stroke-width="6.0" stroke-linecap="round" stroke-linejoin="round" />
<path d="M 168.75 133.75 L 171.25 132.5 L 175.0 133.75 L 178.75 138.75 L 177.5 148.75 L 165.0 162.5 L 148.75 173.75 L 131.25 183.75 L 118.75 187.5 L 117.5 188.75 L 125.0 188.75 L 140.0 183.75 L 158.75 173.75 L 180.0 160.0 L 193.75 151.25 L 196.25 148.75 L 192.5 148.75 " stroke="black" fill="none" stroke-width="6.0" stroke-linecap="round" stroke-linejoin="round" />
<path d="M 113.75 235.0 L 113.75 237.5 L 121.25 237.5 L 143.75 227.5 L 175.0 208.75 L 198.75 193.75 L 205.0 186.25 L 200.0 185.0 L 197.5 185.0 " stroke="black" fill="none" stroke-width="6.0" stroke-linecap="round" stroke-linejoin="round" />
<path d="M 136.25 183.75 L 135.0 183.75 L 133.75 188.75 L 140.0 211.25 L 147.5 245.0 L 150.0 265.0 L 150.0 267.5 L 150.0 267.5 " stroke="black" fill="none" stroke-width="6.0" stroke-linecap="round" stroke-linejoin="round" />
<path d="M 181.25 161.25 L 181.25 161.25 L 182.5 167.5 L 187.5 207.5 L 190.0 257.5 L 188.75 288.75 L 183.75 303.75 " stroke="black" fill="none" stroke-width="6.0" stroke-linecap="round" stroke-linejoin="round" />
</svg>