<svg xmlns="http://www.w3.org/2000/svg" width="300" height="300" viewBox="0 0 300 300">
<path d="M 87.5 162.5 L 82.5 166.25 L 81.25 168.75 L 91.25 160.0 L 105.0 150.0 L 121.25 138.75 L 133.75 133.75 L 136.25 135.0 L 130.0 151.25 L 118.75 178.75 L 106.25 208.75 L 96.25 231.25 L 90.0 236.25 L 86.25 230.0 L 83.75 218.75 " stroke="black" fill="none" stroke-width="6.0" stroke-linecap="round" stroke-linejoin="round" />
<path d="M 85.0 176.25 L 83.75 172.5 L 86.25 173.75 L 98.75 185.0 L 123.75 202.5 L 148.75 218.75 L 160.0 225.0 L 160.0 225.0 " stroke="black" fill="none" stroke-width="6.0" stroke-linecap="round" stroke-linejoin="round" />
<path d="M 153.75 106.25 L 153.75 103.75 L 153.75 102.5 L 156.25 106.25 L 158.75 121.25 L 161.25 136.25 L 163.75 143.75 L 173.75 143.75 L 191.25 135.0 L 207.5 126.25 L 216.25 123.75 L 217.5 126.25 L 211.25 135.0 L 198.75 147.5 L 186.25 157.5 L 177.5 161.25 " stroke="black" fill="none" stroke-width="6.0" stroke-linecap="round" stroke-linejoin="round" />
<path d="M 180.0 143.75 L 180.0 145.0 L 177.5 152.5 L 175.0 171.25 L 167.5 212.5 L 161.25 237.5 L 156.25 245.0 L 152.5 242.5 " stroke="black" fill="none" stroke-width="6.0" stroke-linecap="round" stroke-linejoin="round" />
<path d="M 180.0 178.75 L 181.25 186.25 L 187.5 197.5 L 201.25 216.25 L 221.25 237.5 L 245.0 247.5 L 262.5 252.5 L 272.5 255.0 " stroke="black" fill="none" stroke-width="6.0" stroke-linecap="round" stroke-linejoin="round" />
</svg>