<svg xmlns="http://www.w3.org/2000/svg" width="300" height="300" viewBox="0 0 300 300">
<path d="M 96.25 148.75 L 96.25 150.0 L 91.25 155.0 L 91.25 156.25 L 96.25 156.25 L 108.75 150.0 L 126.25 138.75 L 138.75 127.5 L 142.5 123.75 L 138.75 131.25 L 128.75 155.0 L 117.5 187.5 L 106.25 211.25 L 96.25 222.5 L 92.5 223.75 L 91.25 216.25 L 91.25 205.0 L 91.25 191.25 L 92.5 178.75 L 92.5 167.5 L 92.5 165.0 L 96.25 170.0 L 110.0 186.25 L 130.0 205.0 L 147.5 216.25 L 153.75 217.5 L 153.75 215.0 " stroke="black" fill="none" stroke-width="6.0" stroke-linecap="round" stroke-linejoin="round" />
<path d="M 165.0 96.25 L 165.0 96.25 L 162.5 96.25 L 161.25 98.75 L 163.75 108.75 L 166.25 123.75 L 168.75 131.25 L 170.0 131.25 L 176.25 127.5 L 188.75 120.0 L 202.5 111.25 L 215.0 106.25 L 222.5 106.25 L 223.75 112.5 L 215.0 128.75 L 203.75 145.0 L 193.75 152.5 L 188.75 155.0 " stroke="black" fill="none" stroke-width="6.0" stroke-linecap="round" stroke-linejoin="round" />
<path d="M 181.25 137.5 L 177.5 138.75 L 176.25 147.5 L 176.25 173.75 L 172.5 203.75 L 168.75 220.0 L 162.5 225.0 L 156.25 223.75 " stroke="black" fill="none" stroke-width="6.0" stroke-linecap="round" stroke-linejoin="round" />
<path d="M 178.75 168.75 L 178.75 168.75 L 178.75 168.75 L 180.0 168.75 L 186.25 176.25 L 200.0 191.25 L 213.75 208.75 L 230.0 221.25 L 246.25 231.25 L 258.75 240.0 L 266.25 248.75 L 268.75 255.0 " stroke="black" fill="none" stroke-width="6.0" stroke-linecap="round" stroke-linejoin="round" />
</svg>