<svg xmlns="http://www.w3.org/2000/svg" width="300" height="300" viewBox="0 0 300 300">
<path d="M 127.5 91.25 L 121.25 92.5 L 116.25 93.75 L 115.0 93.75 L 118.75 93.75 L 131.25 93.75 L 147.5 91.25 L 166.25 85.0 L 181.25 77.5 L 185.0 73.75 L 175.0 76.25 L 168.75 80.0 " stroke="black" fill="none" stroke-width="6.0" stroke-linecap="round" stroke-linejoin="round" />
<path d="M 105.0 122.5 L 105.0 122.5 L 101.25 122.5 L 98.75 122.5 L 98.75 123.75 L 103.75 136.25 L 112.5 166.25 L 117.5 191.25 L 121.25 197.5 L 121.25 195.0 L 118.75 187.5 L 116.25 178.75 L 113.75 167.5 L 112.5 155.0 L 110.0 145.0 L 107.5 140.0 L 106.25 140.0 L 110.0 138.75 L 127.5 135.0 L 152.5 126.25 L 182.5 120.0 L 200.0 121.25 L 203.75 130.0 L 192.5 142.5 L 175.0 155.0 L 155.0 163.75 L 136.25 172.5 L 120.0 176.25 L 110.0 177.5 L 110.0 177.5 L 121.25 172.5 L 137.5 165.0 L 155.0 155.0 L 176.25 146.25 L 195.0 137.5 L 201.25 136.25 L 192.5 142.5 L 173.75 157.5 L 151.25 176.25 L 132.5 191.25 L 123.75 197.5 L 126.25 197.5 L 138.75 192.5 L 156.25 183.75 L 175.0 171.25 L 187.5 161.25 L 188.75 158.75 " stroke="black" fill="none" stroke-width="6.0" stroke-linecap="round" stroke-linejoin="round" />
<path d="M 97.5 231.25 L 91.25 236.25 L 88.75 237.5 L 90.0 238.75 L 103.75 236.25 L 127.5 226.25 L 156.25 213.75 L 187.5 201.25 L 207.5 192.5 L 213.75 187.5 L 212.5 186.25 L 208.75 185.0 " stroke="black" fill="none" stroke-width="6.0" stroke-linecap="round" stroke-linejoin="round" />
<path d="M 148.75 72.5 L 147.5 70.0 L 146.25 66.25 L 146.25 65.0 L 146.25 63.75 L 147.5 63.75 L 150.0 63.75 L 153.75 71.25 L 157.5 95.0 L 160.0 148.75 L 160.0 212.5 L 157.5 253.75 L 153.75 271.25 L 148.75 285.0 L 143.75 290.0 " stroke="black" fill="none" stroke-width="6.0" stroke-linecap="round" stroke-linejoin="round" />
</svg>