<svg xmlns="http://www.w3.org/2000/svg" width="300" height="300" viewBox="0 0 300 300">
<path d="M 86.25 120.0 L 83.75 120.0 L 82.5 120.0 L 86.25 116.25 L 100.0 111.25 L 115.0 103.75 L 127.5 100.0 L 131.25 98.75 L 131.25 105.0 L 130.0 127.5 L 130.0 165.0 L 132.5 203.75 L 133.75 223.75 L 135.0 232.5 L 135.0 233.75 L 135.0 233.75 L 133.75 228.75 L 130.0 220.0 L 125.0 208.75 L 117.5 196.25 L 112.5 190.0 " stroke="black" fill="none" stroke-width="6.0" stroke-linecap="round" stroke-linejoin="round" />
<path d="M 87.5 167.5 L 83.75 171.25 L 82.5 171.25 L 92.5 168.75 L 106.25 161.25 L 120.0 153.75 L 127.5 147.5 L 127.5 147.5 " stroke="black" fill="none" stroke-width="6.0" stroke-linecap="round" stroke-linejoin="round" />
<path d="M 95.0 196.25 L 92.5 198.75 L 93.75 200.0 L 106.25 190.0 L 130.0 168.75 L 151.25 142.5 L 162.5 122.5 L 168.75 107.5 L 170.0 102.5 L 170.0 102.5 L 173.75 101.25 L 182.5 100.0 L 193.75 96.25 L 205.0 93.75 L 212.5 91.25 L 216.25 91.25 L 216.25 96.25 L 216.25 120.0 L 215.0 157.5 L 215.0 201.25 L 216.25 223.75 L 218.75 238.75 L 220.0 246.25 L 220.0 246.25 L 220.0 246.25 L 217.5 243.75 L 212.5 238.75 L 205.0 230.0 L 195.0 221.25 L 192.5 218.75 " stroke="black" fill="none" stroke-width="6.0" stroke-linecap="round" stroke-linejoin="round" />
<path d="M 163.75 155.0 L 162.5 155.0 L 161.25 153.75 L 165.0 151.25 L 178.75 147.5 L 195.0 145.0 L 203.75 143.75 L 203.75 147.5 " stroke="black" fill="none" stroke-width="6.0" stroke-linecap="round" stroke-linejoin="round" />
<path d="M 165.0 181.25 L 162.5 185.0 L 162.5 188.75 L 175.0 188.75 L 196.25 185.0 L 213.75 177.5 " stroke="black" fill="none" stroke-width="6.0" stroke-linecap="round" stroke-linejoin="round" />
</svg>