<svg xmlns="http://www.w3.org/2000/svg" width="300" height="300" viewBox="0 0 300 300">
<path d="M 82.5 112.5 L 81.25 113.75 L 81.25 115.0 L 88.75 113.75 L 103.75 108.75 L 122.5 101.25 L 133.75 97.5 L 135.0 102.5 L 133.75 127.5 L 132.5 168.75 L 132.5 203.75 L 133.75 221.25 L 135.0 227.5 L 135.0 226.25 L 133.75 222.5 L 128.75 213.75 L 121.25 202.5 L 108.75 191.25 L 106.25 188.75 " stroke="black" fill="none" stroke-width="6.0" stroke-linecap="round" stroke-linejoin="round" />
<path d="M 78.75 163.75 L 77.5 165.0 L 76.25 166.25 L 80.0 166.25 L 92.5 161.25 L 112.5 153.75 L 128.75 147.5 L 130.0 146.25 " stroke="black" fill="none" stroke-width="6.0" stroke-linecap="round" stroke-linejoin="round" />
<path d="M 91.25 192.5 L 90.0 195.0 L 86.25 198.75 L 90.0 195.0 L 110.0 177.5 L 140.0 147.5 L 156.25 123.75 " stroke="black" fill="none" stroke-width="6.0" stroke-linecap="round" stroke-linejoin="round" />
<path d="M 163.75 103.75 L 162.5 103.75 L 158.75 103.75 L 158.75 103.75 L 171.25 101.25 L 191.25 96.25 L 208.75 92.5 L 211.25 92.5 L 220.0 98.75 L 218.75 126.25 L 216.25 166.25 L 216.25 207.5 L 220.0 238.75 L 223.75 248.75 L 223.75 248.75 L 223.75 247.5 L 221.25 246.25 L 213.75 240.0 L 203.75 230.0 L 192.5 215.0 L 185.0 207.5 " stroke="black" fill="none" stroke-width="6.0" stroke-linecap="round" stroke-linejoin="round" />
<path d="M 160.0 152.5 L 158.75 152.5 L 157.5 152.5 L 161.25 152.5 L 177.5 150.0 L 195.0 146.25 L 202.5 146.25 " stroke="black" fill="none" stroke-width="6.0" stroke-linecap="round" stroke-linejoin="round" />
<path d="M 165.0 180.0 L 161.25 185.0 L 161.25 185.0 L 177.5 182.5 L 202.5 171.25 L 218.75 161.25 " stroke="black" fill="none" stroke-width="6.0" stroke-linecap="round" stroke-linejoin="round" />
</svg>