<svg xmlns="http://www.w3.org/2000/svg" width="300" height="300" viewBox="0 0 300 300">
<path d="M 108.75 78.75 L 108.75 78.75 L 105.0 76.25 L 105.0 76.25 L 118.75 76.25 L 141.25 76.25 L 167.5 76.25 L 188.75 75.0 L 191.25 75.0 L 177.5 78.75 L 168.75 81.25 " stroke="black" fill="none" stroke-width="6.0" stroke-linecap="round" stroke-linejoin="round" />
<path d="M 106.25 108.75 L 103.75 113.75 L 103.75 117.5 L 113.75 118.75 L 135.0 115.0 L 158.75 106.25 L 173.75 98.75 L 178.75 96.25 L 167.5 97.5 L 165.0 97.5 " stroke="black" fill="none" stroke-width="6.0" stroke-linecap="round" stroke-linejoin="round" />
<path d="M 115.0 133.75 L 106.25 143.75 L 103.75 160.0 L 106.25 183.75 L 113.75 203.75 L 121.25 211.25 L 125.0 213.75 L 123.75 211.25 L 120.0 202.5 L 117.5 193.75 L 113.75 182.5 L 111.25 168.75 L 108.75 157.5 L 107.5 151.25 L 111.25 150.0 L 125.0 148.75 L 146.25 145.0 L 173.75 142.5 L 195.0 143.75 L 203.75 151.25 L 202.5 165.0 L 193.75 180.0 L 182.5 191.25 L 168.75 196.25 L 157.5 197.5 " stroke="black" fill="none" stroke-width="6.0" stroke-linecap="round" stroke-linejoin="round" />
<path d="M 108.75 191.25 L 108.75 191.25 L 107.5 190.0 L 112.5 187.5 L 133.75 178.75 L 160.0 165.0 L 181.25 155.0 L 186.25 153.75 L 178.75 157.5 L 176.25 158.75 " stroke="black" fill="none" stroke-width="6.0" stroke-linecap="round" stroke-linejoin="round" />
<path d="M 131.25 217.5 L 130.0 220.0 L 130.0 221.25 L 140.0 216.25 L 160.0 200.0 L 182.5 181.25 L 192.5 166.25 L 188.75 158.75 L 187.5 157.5 " stroke="black" fill="none" stroke-width="6.0" stroke-linecap="round" stroke-linejoin="round" />
<path d="M 150.0 105.0 L 148.75 100.0 L 147.5 98.75 L 150.0 108.75 L 153.75 138.75 L 157.5 190.0 L 157.5 231.25 L 155.0 252.5 L 152.5 263.75 L 150.0 266.25 L 145.0 265.0 L 142.5 263.75 " stroke="black" fill="none" stroke-width="6.0" stroke-linecap="round" stroke-linejoin="round" />
<path d="M 125.0 246.25 L 123.75 246.25 L 117.5 247.5 L 116.25 247.5 L 121.25 247.5 L 138.75 241.25 L 162.5 232.5 L 185.0 225.0 L 195.0 221.25 L 193.75 222.5 L 182.5 230.0 L 176.25 232.5 " stroke="black" fill="none" stroke-width="6.0" stroke-linecap="round" stroke-linejoin="round" />
<path d="M 118.75 266.25 L 113.75 267.5 L 111.25 268.75 L 120.0 267.5 L 141.25 261.25 L 167.5 255.0 L 197.5 252.5 L 218.75 251.25 L 232.5 251.25 L 237.5 250.0 L 238.75 250.0 L 237.5 250.0 L 232.5 250.0 " stroke="black" fill="none" stroke-width="6.0" stroke-linecap="round" stroke-linejoin="round" />
</svg>