<svg xmlns="http://www.w3.org/2000/svg" width="300" height="300" viewBox="0 0 300 300">
<path d="M 115.0 83.75 L 113.75 82.5 L 110.0 81.25 L 110.0 81.25 L 117.5 81.25 L 137.5 81.25 L 160.0 81.25 L 178.75 80.0 L 186.25 77.5 L 182.5 77.5 L 166.25 81.25 " stroke="black" fill="none" stroke-width="6.0" stroke-linecap="round" stroke-linejoin="round" />
<path d="M 106.25 111.25 L 101.25 118.75 L 101.25 122.5 L 110.0 122.5 L 131.25 120.0 L 158.75 108.75 L 185.0 96.25 L 197.5 90.0 L 192.5 90.0 L 183.75 92.5 " stroke="black" fill="none" stroke-width="6.0" stroke-linecap="round" stroke-linejoin="round" />
<path d="M 110.0 135.0 L 108.75 135.0 L 106.25 138.75 L 106.25 150.0 L 112.5 176.25 L 121.25 198.75 L 128.75 205.0 L 130.0 203.75 L 127.5 196.25 " stroke="black" fill="none" stroke-width="6.0" stroke-linecap="round" stroke-linejoin="round" />
<path d="M 115.0 160.0 L 112.5 158.75 L 111.25 157.5 L 112.5 156.25 L 127.5 152.5 L 152.5 146.25 L 182.5 142.5 L 200.0 143.75 L 202.5 152.5 L 192.5 166.25 L 177.5 181.25 L 161.25 191.25 L 148.75 196.25 L 142.5 196.25 " stroke="black" fill="none" stroke-width="6.0" stroke-linecap="round" stroke-linejoin="round" />
<path d="M 125.0 190.0 L 125.0 190.0 L 123.75 190.0 L 123.75 188.75 L 136.25 181.25 L 161.25 166.25 L 186.25 153.75 L 193.75 151.25 L 183.75 155.0 " stroke="black" fill="none" stroke-width="6.0" stroke-linecap="round" stroke-linejoin="round" />
<path d="M 137.5 202.5 L 136.25 203.75 L 136.25 205.0 L 145.0 201.25 L 162.5 190.0 L 181.25 175.0 L 186.25 165.0 L 186.25 162.5 " stroke="black" fill="none" stroke-width="6.0" stroke-linecap="round" stroke-linejoin="round" />
<path d="M 157.5 107.5 L 157.5 103.75 L 156.25 101.25 L 156.25 100.0 L 156.25 98.75 L 156.25 98.75 L 156.25 102.5 L 157.5 108.75 L 160.0 125.0 L 162.5 155.0 L 162.5 196.25 L 162.5 227.5 L 162.5 245.0 L 161.25 251.25 L 160.0 252.5 L 157.5 251.25 L 153.75 246.25 L 152.5 243.75 " stroke="black" fill="none" stroke-width="6.0" stroke-linecap="round" stroke-linejoin="round" />
<path d="M 138.75 226.25 L 137.5 228.75 L 133.75 232.5 L 132.5 233.75 L 137.5 233.75 L 151.25 230.0 L 170.0 225.0 L 188.75 218.75 L 198.75 213.75 L 198.75 212.5 L 195.0 212.5 " stroke="black" fill="none" stroke-width="6.0" stroke-linecap="round" stroke-linejoin="round" />
<path d="M 95.0 265.0 L 93.75 266.25 L 90.0 267.5 L 90.0 267.5 L 95.0 267.5 L 110.0 266.25 L 133.75 262.5 L 160.0 256.25 L 185.0 250.0 L 203.75 247.5 L 217.5 248.75 L 226.25 251.25 L 232.5 252.5 L 238.75 252.5 L 242.5 251.25 L 243.75 248.75 L 246.25 248.75 L 247.5 247.5 L 248.75 248.75 " stroke="black" fill="none" stroke-width="6.0" stroke-linecap="round" stroke-linejoin="round" />
</svg>