<svg xmlns="http://www.w3.org/2000/svg" width="300" height="300" viewBox="0 0 300 300">
<path d="M 131.25 65.0 L 131.25 62.5 L 132.5 61.25 L 141.25 63.75 L 152.5 70.0 L 161.25 76.25 L 163.75 81.25 L 162.5 82.5 " stroke="black" fill="none" stroke-width="6.0" stroke-linecap="round" stroke-linejoin="round" />
<path d="M 95.0 95.0 L 93.75 95.0 L 98.75 95.0 L 121.25 90.0 L 145.0 86.25 L 176.25 76.25 L 186.25 71.25 L 178.75 71.25 L 163.75 75.0 " stroke="black" fill="none" stroke-width="6.0" stroke-linecap="round" stroke-linejoin="round" />
<path d="M 133.75 91.25 L 131.25 93.75 L 126.25 100.0 L 126.25 113.75 L 128.75 131.25 L 132.5 141.25 L 133.75 141.25 " stroke="black" fill="none" stroke-width="6.0" stroke-linecap="round" stroke-linejoin="round" />
<path d="M 161.25 86.25 L 161.25 86.25 L 161.25 86.25 L 161.25 90.0 L 156.25 102.5 L 146.25 121.25 L 133.75 132.5 L 113.75 140.0 L 95.0 146.25 L 87.5 150.0 L 87.5 150.0 L 102.5 147.5 L 130.0 137.5 L 160.0 125.0 L 187.5 112.5 L 196.25 107.5 L 193.75 106.25 L 182.5 111.25 L 168.75 118.75 L 152.5 127.5 L 141.25 137.5 L 136.25 153.75 L 135.0 181.25 L 137.5 208.75 L 140.0 221.25 L 141.25 227.5 L 141.25 227.5 L 138.75 225.0 L 135.0 217.5 " stroke="black" fill="none" stroke-width="6.0" stroke-linecap="round" stroke-linejoin="round" />
<path d="M 132.5 160.0 L 132.5 157.5 L 133.75 153.75 L 141.25 148.75 L 156.25 145.0 L 173.75 147.5 L 185.0 166.25 L 187.5 193.75 L 183.75 216.25 L 178.75 231.25 L 175.0 238.75 L 170.0 238.75 L 168.75 236.25 " stroke="black" fill="none" stroke-width="6.0" stroke-linecap="round" stroke-linejoin="round" />
<path d="M 132.5 190.0 L 128.75 190.0 L 127.5 188.75 L 136.25 186.25 L 155.0 178.75 L 175.0 168.75 L 182.5 162.5 " stroke="black" fill="none" stroke-width="6.0" stroke-linecap="round" stroke-linejoin="round" />
<path d="M 141.25 215.0 L 138.75 221.25 L 140.0 223.75 L 152.5 221.25 L 173.75 211.25 L 185.0 205.0 " stroke="black" fill="none" stroke-width="6.0" stroke-linecap="round" stroke-linejoin="round" />
</svg>