<svg xmlns="http://www.w3.org/2000/svg" width="300" height="300" viewBox="0 0 300 300">
<path d="M 140.0 55.0 L 140.0 56.25 L 141.25 57.5 L 147.5 62.5 L 161.25 70.0 L 171.25 75.0 L 172.5 78.75 " stroke="black" fill="none" stroke-width="6.0" stroke-linecap="round" stroke-linejoin="round" />
<path d="M 97.5 95.0 L 97.5 95.0 L 97.5 95.0 L 98.75 95.0 L 117.5 92.5 L 148.75 86.25 L 173.75 81.25 L 196.25 75.0 L 196.25 73.75 L 193.75 73.75 " stroke="black" fill="none" stroke-width="6.0" stroke-linecap="round" stroke-linejoin="round" />
<path d="M 151.25 90.0 L 150.0 91.25 L 147.5 96.25 L 145.0 106.25 L 145.0 123.75 L 145.0 136.25 L 145.0 138.75 " stroke="black" fill="none" stroke-width="6.0" stroke-linecap="round" stroke-linejoin="round" />
<path d="M 171.25 91.25 L 172.5 91.25 L 172.5 92.5 L 173.75 97.5 L 171.25 107.5 L 162.5 122.5 L 150.0 135.0 L 136.25 141.25 L 118.75 145.0 L 103.75 148.75 L 93.75 152.5 L 90.0 153.75 L 90.0 153.75 L 101.25 151.25 L 121.25 146.25 L 142.5 140.0 L 168.75 135.0 L 198.75 130.0 L 217.5 127.5 L 222.5 125.0 L 220.0 125.0 L 213.75 125.0 " stroke="black" fill="none" stroke-width="6.0" stroke-linecap="round" stroke-linejoin="round" />
<path d="M 141.25 178.75 L 141.25 178.75 L 138.75 180.0 L 136.25 185.0 L 135.0 205.0 L 135.0 232.5 L 137.5 250.0 L 138.75 253.75 L 138.75 252.5 " stroke="black" fill="none" stroke-width="6.0" stroke-linecap="round" stroke-linejoin="round" />
<path d="M 135.0 186.25 L 133.75 185.0 L 133.75 182.5 L 137.5 178.75 L 150.0 171.25 L 171.25 166.25 L 191.25 163.75 L 201.25 167.5 L 202.5 182.5 L 201.25 203.75 L 198.75 225.0 L 197.5 241.25 L 197.5 246.25 L 196.25 246.25 L 195.0 246.25 L 193.75 245.0 " stroke="black" fill="none" stroke-width="6.0" stroke-linecap="round" stroke-linejoin="round" />
<path d="M 142.5 217.5 L 142.5 217.5 L 140.0 218.75 L 141.25 217.5 L 152.5 211.25 L 170.0 202.5 L 190.0 192.5 L 197.5 188.75 " stroke="black" fill="none" stroke-width="6.0" stroke-linecap="round" stroke-linejoin="round" />
<path d="M 138.75 252.5 L 136.25 258.75 L 136.25 260.0 L 150.0 255.0 L 172.5 242.5 L 198.75 225.0 L 205.0 217.5 " stroke="black" fill="none" stroke-width="6.0" stroke-linecap="round" stroke-linejoin="round" />
</svg>