<svg xmlns="http://www.w3.org/2000/svg" width="300" height="300" viewBox="0 0 300 300">
<path d="M 141.25 75.0 L 140.0 75.0 L 138.75 75.0 L 141.25 76.25 L 151.25 80.0 L 161.25 82.5 L 166.25 85.0 L 166.25 85.0 " stroke="black" fill="none" stroke-width="6.0" stroke-linecap="round" stroke-linejoin="round" />
<path d="M 92.5 101.25 L 87.5 103.75 L 82.5 106.25 L 87.5 106.25 L 106.25 105.0 L 137.5 97.5 L 172.5 87.5 L 193.75 80.0 L 196.25 77.5 L 186.25 78.75 L 171.25 83.75 L 158.75 87.5 L 146.25 92.5 L 140.0 98.75 L 140.0 111.25 L 140.0 132.5 L 140.0 145.0 L 140.0 145.0 " stroke="black" fill="none" stroke-width="6.0" stroke-linecap="round" stroke-linejoin="round" />
<path d="M 173.75 88.75 L 175.0 88.75 L 177.5 87.5 L 177.5 92.5 L 166.25 116.25 L 152.5 137.5 L 136.25 148.75 L 113.75 155.0 L 92.5 161.25 L 80.0 166.25 L 78.75 167.5 L 90.0 166.25 L 116.25 157.5 L 152.5 145.0 L 186.25 132.5 L 206.25 125.0 L 206.25 125.0 L 197.5 126.25 L 182.5 133.75 L 162.5 142.5 L 145.0 155.0 L 133.75 181.25 L 132.5 221.25 L 137.5 250.0 L 141.25 260.0 L 142.5 261.25 L 142.5 260.0 L 140.0 252.5 L 138.75 247.5 " stroke="black" fill="none" stroke-width="6.0" stroke-linecap="round" stroke-linejoin="round" />
<path d="M 140.0 171.25 L 141.25 170.0 L 143.75 166.25 L 151.25 162.5 L 165.0 161.25 L 182.5 173.75 L 193.75 195.0 L 193.75 218.75 L 186.25 238.75 L 177.5 248.75 L 165.0 252.5 L 161.25 252.5 " stroke="black" fill="none" stroke-width="6.0" stroke-linecap="round" stroke-linejoin="round" />
<path d="M 135.0 205.0 L 141.25 205.0 L 156.25 202.5 L 173.75 197.5 L 188.75 192.5 L 188.75 192.5 " stroke="black" fill="none" stroke-width="6.0" stroke-linecap="round" stroke-linejoin="round" />
<path d="M 137.5 258.75 L 136.25 260.0 L 136.25 262.5 L 143.75 266.25 L 161.25 261.25 L 185.0 248.75 L 188.75 245.0 " stroke="black" fill="none" stroke-width="6.0" stroke-linecap="round" stroke-linejoin="round" />
</svg>