<svg xmlns="http://www.w3.org/2000/svg" width="300" height="300" viewBox="0 0 300 300">
<path d="M 96.25 108.75 L 96.25 110.0 L 92.5 116.25 L 87.5 130.0 L 80.0 152.5 L 70.0 177.5 L 61.25 190.0 L 56.25 192.5 " stroke="black" fill="none" stroke-width="6.0" stroke-linecap="round" stroke-linejoin="round" />
<path d="M 87.5 148.75 L 87.5 148.75 L 86.25 150.0 L 86.25 160.0 L 91.25 187.5 L 91.25 212.5 L 86.25 228.75 L 83.75 232.5 " stroke="black" fill="none" stroke-width="6.0" stroke-linecap="round" stroke-linejoin="round" />
<path d="M 135.0 91.25 L 132.5 91.25 L 130.0 90.0 L 133.75 90.0 L 146.25 90.0 L 163.75 91.25 L 178.75 91.25 L 182.5 93.75 L 172.5 97.5 L 168.75 98.75 " stroke="black" fill="none" stroke-width="6.0" stroke-linecap="round" stroke-linejoin="round" />
<path d="M 120.0 127.5 L 118.75 130.0 L 117.5 132.5 L 128.75 131.25 L 147.5 122.5 L 171.25 108.75 L 186.25 100.0 L 187.5 97.5 L 183.75 97.5 " stroke="black" fill="none" stroke-width="6.0" stroke-linecap="round" stroke-linejoin="round" />
<path d="M 128.75 151.25 L 125.0 155.0 L 126.25 156.25 L 137.5 152.5 L 152.5 146.25 L 167.5 137.5 L 171.25 135.0 L 170.0 135.0 " stroke="black" fill="none" stroke-width="6.0" stroke-linecap="round" stroke-linejoin="round" />
<path d="M 128.75 188.75 L 128.75 190.0 L 125.0 195.0 L 130.0 195.0 L 145.0 187.5 L 166.25 171.25 L 182.5 158.75 L 182.5 155.0 L 180.0 155.0 " stroke="black" fill="none" stroke-width="6.0" stroke-linecap="round" stroke-linejoin="round" />
<path d="M 121.25 205.0 L 120.0 212.5 L 121.25 223.75 L 133.75 242.5 L 146.25 253.75 L 153.75 257.5 L 156.25 257.5 L 155.0 256.25 L 152.5 255.0 L 147.5 251.25 L 141.25 247.5 L 135.0 243.75 L 131.25 240.0 L 130.0 237.5 L 132.5 233.75 L 146.25 222.5 L 166.25 210.0 L 190.0 198.75 L 205.0 193.75 L 207.5 196.25 L 205.0 205.0 L 193.75 221.25 L 180.0 237.5 L 163.75 252.5 L 156.25 260.0 L 156.25 260.0 L 163.75 256.25 L 181.25 248.75 L 200.0 236.25 L 216.25 220.0 L 226.25 207.5 L 226.25 205.0 " stroke="black" fill="none" stroke-width="6.0" stroke-linecap="round" stroke-linejoin="round" />
</svg>