<svg xmlns="http://www.w3.org/2000/svg" width="300" height="300" viewBox="0 0 300 300">
<path d="M 98.75 101.25 L 98.75 103.75 L 92.5 117.5 L 76.25 148.75 L 57.5 176.25 L 47.5 187.5 L 46.25 187.5 L 47.5 177.5 " stroke="black" fill="none" stroke-width="6.0" stroke-linecap="round" stroke-linejoin="round" />
<path d="M 90.0 145.0 L 92.5 151.25 L 95.0 172.5 L 96.25 207.5 L 91.25 237.5 L 87.5 255.0 L 85.0 255.0 " stroke="black" fill="none" stroke-width="6.0" stroke-linecap="round" stroke-linejoin="round" />
<path d="M 142.5 93.75 L 142.5 91.25 L 142.5 87.5 L 146.25 83.75 L 157.5 83.75 L 175.0 88.75 L 191.25 93.75 L 198.75 98.75 L 198.75 101.25 " stroke="black" fill="none" stroke-width="6.0" stroke-linecap="round" stroke-linejoin="round" />
<path d="M 138.75 135.0 L 138.75 135.0 L 137.5 136.25 L 142.5 137.5 L 157.5 135.0 L 181.25 125.0 L 200.0 113.75 L 205.0 108.75 L 201.25 111.25 " stroke="black" fill="none" stroke-width="6.0" stroke-linecap="round" stroke-linejoin="round" />
<path d="M 141.25 171.25 L 141.25 172.5 L 141.25 173.75 L 148.75 171.25 L 166.25 161.25 L 185.0 151.25 L 193.75 145.0 L 192.5 145.0 " stroke="black" fill="none" stroke-width="6.0" stroke-linecap="round" stroke-linejoin="round" />
<path d="M 138.75 202.5 L 138.75 202.5 L 138.75 203.75 L 145.0 202.5 L 165.0 191.25 L 188.75 175.0 L 198.75 166.25 L 193.75 166.25 " stroke="black" fill="none" stroke-width="6.0" stroke-linecap="round" stroke-linejoin="round" />
<path d="M 146.25 206.25 L 146.25 208.75 L 147.5 217.5 L 153.75 232.5 L 162.5 243.75 L 170.0 248.75 L 172.5 248.75 L 172.5 248.75 L 166.25 246.25 L 156.25 243.75 L 147.5 240.0 L 143.75 236.25 L 147.5 227.5 L 167.5 213.75 L 196.25 200.0 L 216.25 192.5 L 221.25 192.5 L 215.0 203.75 L 201.25 222.5 L 182.5 242.5 L 171.25 253.75 L 173.75 252.5 L 188.75 242.5 L 207.5 226.25 L 221.25 208.75 " stroke="black" fill="none" stroke-width="6.0" stroke-linecap="round" stroke-linejoin="round" />
</svg>