<svg xmlns="http://www.w3.org/2000/svg" width="300" height="300" viewBox="0 0 300 300">
<path d="M 85.0 86.25 L 82.5 86.25 L 81.25 86.25 L 81.25 86.25 L 87.5 86.25 L 96.25 86.25 L 102.5 85.0 L 103.75 83.75 " stroke="black" fill="none" stroke-width="6.0" stroke-linecap="round" stroke-linejoin="round" />
<path d="M 75.0 126.25 L 70.0 130.0 L 71.25 130.0 L 80.0 126.25 L 91.25 117.5 L 101.25 108.75 L 105.0 102.5 " stroke="black" fill="none" stroke-width="6.0" stroke-linecap="round" stroke-linejoin="round" />
<path d="M 83.75 162.5 L 82.5 162.5 L 80.0 163.75 L 86.25 157.5 L 98.75 141.25 L 113.75 117.5 L 117.5 111.25 " stroke="black" fill="none" stroke-width="6.0" stroke-linecap="round" stroke-linejoin="round" />
<path d="M 136.25 75.0 L 131.25 76.25 L 127.5 77.5 L 131.25 77.5 L 143.75 73.75 L 157.5 65.0 L 170.0 56.25 L 176.25 52.5 L 173.75 53.75 L 163.75 65.0 L 153.75 81.25 L 146.25 103.75 L 145.0 132.5 L 152.5 148.75 L 165.0 152.5 L 178.75 152.5 L 192.5 151.25 L 202.5 148.75 L 202.5 147.5 L 201.25 147.5 L 198.75 145.0 L 193.75 142.5 " stroke="black" fill="none" stroke-width="6.0" stroke-linecap="round" stroke-linejoin="round" />
<path d="M 158.75 91.25 L 157.5 91.25 L 157.5 91.25 L 161.25 91.25 L 173.75 90.0 L 190.0 88.75 L 198.75 88.75 L 200.0 92.5 L 187.5 101.25 L 168.75 110.0 L 151.25 120.0 L 142.5 127.5 L 143.75 127.5 L 153.75 126.25 L 172.5 117.5 L 191.25 106.25 L 201.25 98.75 " stroke="black" fill="none" stroke-width="6.0" stroke-linecap="round" stroke-linejoin="round" />
<path d="M 92.5 200.0 L 87.5 202.5 L 86.25 202.5 L 93.75 202.5 L 118.75 195.0 L 152.5 181.25 L 182.5 167.5 L 193.75 160.0 L 193.75 160.0 L 186.25 160.0 L 173.75 161.25 L 160.0 162.5 L 148.75 165.0 L 142.5 166.25 L 140.0 166.25 L 138.75 166.25 L 138.75 166.25 L 138.75 166.25 L 140.0 168.75 L 141.25 180.0 L 145.0 210.0 L 148.75 246.25 L 151.25 265.0 L 151.25 270.0 L 146.25 271.25 L 138.75 271.25 L 128.75 265.0 L 126.25 262.5 " stroke="black" fill="none" stroke-width="6.0" stroke-linecap="round" stroke-linejoin="round" />
<path d="M 132.5 201.25 L 128.75 205.0 L 113.75 223.75 L 98.75 247.5 L 86.25 261.25 L 81.25 263.75 L 81.25 257.5 " stroke="black" fill="none" stroke-width="6.0" stroke-linecap="round" stroke-linejoin="round" />
<path d="M 145.0 193.75 L 146.25 193.75 L 151.25 193.75 L 162.5 201.25 L 177.5 216.25 L 193.75 230.0 L 206.25 238.75 L 216.25 242.5 L 223.75 243.75 L 227.5 245.0 L 227.5 245.0 L 226.25 245.0 " stroke="black" fill="none" stroke-width="6.0" stroke-linecap="round" stroke-linejoin="round" />
</svg>