<svg xmlns="http://www.w3.org/2000/svg" width="300" height="300" viewBox="0 0 300 300">
<path d="M 56.25 111.25 L 55.0 111.25 L 50.0 110.0 L 50.0 111.25 L 55.0 126.25 L 63.75 146.25 L 73.75 160.0 L 76.25 162.5 " stroke="black" fill="none" stroke-width="6.0" stroke-linecap="round" stroke-linejoin="round" />
<path d="M 50.0 127.5 L 46.25 126.25 L 46.25 125.0 L 61.25 120.0 L 87.5 112.5 L 115.0 103.75 L 133.75 100.0 L 137.5 101.25 L 130.0 111.25 L 116.25 128.75 L 100.0 143.75 L 87.5 155.0 L 75.0 163.75 L 71.25 166.25 L 76.25 163.75 L 90.0 153.75 L 105.0 140.0 L 120.0 127.5 L 130.0 118.75 L 130.0 115.0 L 120.0 116.25 L 117.5 116.25 " stroke="black" fill="none" stroke-width="6.0" stroke-linecap="round" stroke-linejoin="round" />
<path d="M 96.25 108.75 L 96.25 110.0 L 96.25 116.25 L 97.5 136.25 L 102.5 168.75 L 105.0 197.5 L 105.0 206.25 L 100.0 206.25 " stroke="black" fill="none" stroke-width="6.0" stroke-linecap="round" stroke-linejoin="round" />
<path d="M 82.5 122.5 L 82.5 122.5 L 81.25 125.0 L 81.25 135.0 L 83.75 151.25 L 88.75 160.0 L 93.75 157.5 L 97.5 146.25 L 101.25 135.0 L 105.0 127.5 L 106.25 125.0 L 103.75 135.0 L 98.75 155.0 L 93.75 177.5 L 90.0 193.75 L 90.0 197.5 L 92.5 192.5 L 103.75 185.0 L 117.5 173.75 L 128.75 165.0 L 131.25 163.75 L 126.25 171.25 L 112.5 190.0 L 101.25 206.25 L 91.25 220.0 L 91.25 222.5 L 97.5 218.75 L 108.75 210.0 L 121.25 200.0 L 126.25 195.0 L 123.75 195.0 L 113.75 201.25 " stroke="black" fill="none" stroke-width="6.0" stroke-linecap="round" stroke-linejoin="round" />
<path d="M 51.25 221.25 L 50.0 222.5 L 48.75 223.75 L 57.5 235.0 L 75.0 251.25 L 88.75 261.25 L 92.5 262.5 L 91.25 261.25 " stroke="black" fill="none" stroke-width="6.0" stroke-linecap="round" stroke-linejoin="round" />
<path d="M 88.75 220.0 L 88.75 220.0 L 88.75 220.0 L 88.75 221.25 L 92.5 228.75 L 100.0 241.25 L 105.0 250.0 L 105.0 251.25 " stroke="black" fill="none" stroke-width="6.0" stroke-linecap="round" stroke-linejoin="round" />
<path d="M 108.75 218.75 L 108.75 218.75 L 108.75 218.75 L 112.5 225.0 L 122.5 238.75 L 127.5 248.75 " stroke="black" fill="none" stroke-width="6.0" stroke-linecap="round" stroke-linejoin="round" />
<path d="M 137.5 223.75 L 137.5 223.75 L 137.5 222.5 L 138.75 222.5 L 143.75 230.0 L 151.25 242.5 " stroke="black" fill="none" stroke-width="6.0" stroke-linecap="round" stroke-linejoin="round" />
<path d="M 176.25 103.75 L 176.25 103.75 L 176.25 107.5 L 182.5 131.25 L 187.5 162.5 L 192.5 178.75 L 195.0 180.0 L 195.0 177.5 " stroke="black" fill="none" stroke-width="6.0" stroke-linecap="round" stroke-linejoin="round" />
<path d="M 191.25 143.75 L 188.75 140.0 L 187.5 137.5 L 187.5 136.25 L 197.5 132.5 L 213.75 125.0 L 227.5 117.5 L 232.5 116.25 L 220.0 125.0 " stroke="black" fill="none" stroke-width="6.0" stroke-linecap="round" stroke-linejoin="round" />
<path d="M 160.0 191.25 L 158.75 197.5 L 163.75 211.25 L 180.0 231.25 L 196.25 243.75 L 203.75 247.5 L 206.25 247.5 L 206.25 247.5 L 203.75 246.25 L 197.5 241.25 L 187.5 233.75 L 180.0 227.5 L 176.25 221.25 L 182.5 212.5 L 203.75 198.75 L 228.75 187.5 L 250.0 182.5 L 253.75 187.5 L 246.25 206.25 L 228.75 230.0 L 212.5 250.0 L 210.0 255.0 L 218.75 248.75 L 237.5 230.0 L 255.0 211.25 L 261.25 201.25 " stroke="black" fill="none" stroke-width="6.0" stroke-linecap="round" stroke-linejoin="round" />
</svg>