<svg xmlns="http://www.w3.org/2000/svg" width="300" height="300" viewBox="0 0 300 300">
<path d="M 72.5 123.75 L 71.25 123.75 L 70.0 122.5 L 70.0 123.75 L 71.25 138.75 L 75.0 165.0 L 77.5 183.75 L 81.25 188.75 L 88.75 181.25 L 98.75 165.0 L 110.0 148.75 L 120.0 135.0 L 123.75 125.0 L 125.0 117.5 L 121.25 115.0 L 118.75 113.75 L 117.5 113.75 L 116.25 113.75 L 116.25 118.75 L 116.25 136.25 L 116.25 165.0 L 115.0 198.75 L 111.25 218.75 L 105.0 223.75 L 102.5 222.5 " stroke="black" fill="none" stroke-width="6.0" stroke-linecap="round" stroke-linejoin="round" />
<path d="M 148.75 75.0 L 150.0 75.0 L 150.0 73.75 L 151.25 77.5 L 153.75 91.25 L 156.25 105.0 L 160.0 111.25 L 168.75 110.0 L 186.25 98.75 L 202.5 87.5 L 212.5 80.0 L 215.0 77.5 L 210.0 78.75 L 208.75 80.0 " stroke="black" fill="none" stroke-width="6.0" stroke-linecap="round" stroke-linejoin="round" />
<path d="M 187.5 117.5 L 186.25 121.25 L 185.0 135.0 L 183.75 153.75 L 180.0 170.0 L 167.5 192.5 L 157.5 201.25 L 147.5 203.75 L 137.5 201.25 L 131.25 193.75 L 131.25 180.0 L 133.75 163.75 L 138.75 152.5 L 141.25 150.0 L 147.5 153.75 L 157.5 166.25 L 175.0 185.0 L 197.5 205.0 L 218.75 218.75 L 240.0 228.75 L 255.0 236.25 L 257.5 240.0 " stroke="black" fill="none" stroke-width="6.0" stroke-linecap="round" stroke-linejoin="round" />
</svg>