<svg xmlns="http://www.w3.org/2000/svg" width="300" height="300" viewBox="0 0 300 300">
<path d="M 86.25 142.5 L 86.25 142.5 L 83.75 141.25 L 83.75 146.25 L 87.5 168.75 L 90.0 191.25 L 92.5 200.0 L 95.0 200.0 L 100.0 195.0 L 107.5 186.25 L 116.25 176.25 L 122.5 163.75 L 125.0 152.5 L 125.0 143.75 L 123.75 140.0 L 122.5 138.75 L 122.5 138.75 L 122.5 138.75 L 122.5 138.75 L 122.5 141.25 L 122.5 150.0 L 122.5 170.0 L 122.5 197.5 L 122.5 217.5 L 118.75 227.5 L 117.5 227.5 " stroke="black" fill="none" stroke-width="6.0" stroke-linecap="round" stroke-linejoin="round" />
<path d="M 151.25 72.5 L 151.25 71.25 L 153.75 72.5 L 158.75 91.25 L 162.5 120.0 L 162.5 133.75 L 163.75 133.75 L 170.0 128.75 L 183.75 117.5 L 200.0 106.25 L 208.75 98.75 L 213.75 95.0 L 208.75 96.25 L 207.5 97.5 " stroke="black" fill="none" stroke-width="6.0" stroke-linecap="round" stroke-linejoin="round" />
<path d="M 185.0 140.0 L 185.0 141.25 L 186.25 145.0 L 190.0 153.75 L 192.5 176.25 L 190.0 201.25 L 178.75 218.75 L 162.5 228.75 L 146.25 236.25 " stroke="black" fill="none" stroke-width="6.0" stroke-linecap="round" stroke-linejoin="round" />
<path d="M 147.5 176.25 L 148.75 175.0 L 150.0 175.0 L 158.75 182.5 L 173.75 201.25 L 190.0 223.75 L 207.5 241.25 L 221.25 250.0 L 240.0 257.5 L 256.25 262.5 L 262.5 267.5 " stroke="black" fill="none" stroke-width="6.0" stroke-linecap="round" stroke-linejoin="round" />
</svg>