<svg xmlns="http://www.w3.org/2000/svg" width="300" height="300" viewBox="0 0 300 300">
<path d="M 96.25 88.75 L 91.25 91.25 L 88.75 92.5 L 91.25 92.5 L 113.75 91.25 L 148.75 82.5 L 180.0 71.25 L 193.75 65.0 L 192.5 65.0 L 180.0 68.75 L 175.0 68.75 " stroke="black" fill="none" stroke-width="6.0" stroke-linecap="round" stroke-linejoin="round" />
<path d="M 125.0 77.5 L 125.0 78.75 L 125.0 85.0 L 127.5 102.5 L 132.5 117.5 L 138.75 121.25 L 147.5 116.25 L 153.75 103.75 L 160.0 92.5 L 162.5 82.5 L 162.5 76.25 L 160.0 73.75 L 158.75 73.75 L 158.75 82.5 L 157.5 100.0 L 156.25 120.0 L 155.0 123.75 " stroke="black" fill="none" stroke-width="6.0" stroke-linecap="round" stroke-linejoin="round" />
<path d="M 82.5 148.75 L 78.75 151.25 L 71.25 155.0 L 72.5 156.25 L 90.0 155.0 L 126.25 143.75 L 170.0 123.75 L 203.75 108.75 L 210.0 105.0 L 205.0 107.5 L 196.25 111.25 " stroke="black" fill="none" stroke-width="6.0" stroke-linecap="round" stroke-linejoin="round" />
<path d="M 108.75 157.5 L 107.5 157.5 L 106.25 160.0 L 107.5 172.5 L 115.0 200.0 L 120.0 221.25 L 123.75 230.0 L 123.75 227.5 L 122.5 225.0 " stroke="black" fill="none" stroke-width="6.0" stroke-linecap="round" stroke-linejoin="round" />
<path d="M 118.75 173.75 L 118.75 173.75 L 118.75 173.75 L 130.0 171.25 L 156.25 165.0 L 185.0 162.5 L 198.75 170.0 L 196.25 186.25 L 182.5 202.5 L 167.5 213.75 L 152.5 218.75 L 138.75 220.0 L 128.75 218.75 " stroke="black" fill="none" stroke-width="6.0" stroke-linecap="round" stroke-linejoin="round" />
<path d="M 118.75 208.75 L 117.5 208.75 L 117.5 208.75 L 121.25 208.75 L 138.75 201.25 L 163.75 188.75 L 178.75 177.5 L 178.75 171.25 L 173.75 171.25 " stroke="black" fill="none" stroke-width="6.0" stroke-linecap="round" stroke-linejoin="round" />
<path d="M 151.25 168.75 L 150.0 168.75 L 148.75 171.25 L 147.5 180.0 L 147.5 201.25 L 142.5 225.0 L 136.25 238.75 L 130.0 240.0 L 128.75 238.75 L 130.0 236.25 L 140.0 227.5 L 153.75 216.25 L 170.0 206.25 L 183.75 198.75 L 187.5 197.5 L 186.25 198.75 L 175.0 205.0 L 163.75 213.75 L 151.25 231.25 L 135.0 256.25 L 120.0 276.25 L 111.25 286.25 L 111.25 280.0 " stroke="black" fill="none" stroke-width="6.0" stroke-linecap="round" stroke-linejoin="round" />
<path d="M 173.75 222.5 L 173.75 222.5 L 175.0 222.5 L 181.25 227.5 L 193.75 238.75 L 206.25 248.75 L 213.75 256.25 L 217.5 262.5 L 215.0 267.5 L 212.5 267.5 " stroke="black" fill="none" stroke-width="6.0" stroke-linecap="round" stroke-linejoin="round" />
</svg>