<svg xmlns="http://www.w3.org/2000/svg" width="300" height="300" viewBox="0 0 300 300">
<path d="M 83.75 96.25 L 82.5 97.5 L 82.5 98.75 L 98.75 97.5 L 137.5 86.25 L 177.5 70.0 L 201.25 57.5 L 202.5 53.75 L 196.25 55.0 L 177.5 58.75 L 172.5 60.0 " stroke="black" fill="none" stroke-width="6.0" stroke-linecap="round" stroke-linejoin="round" />
<path d="M 118.75 72.5 L 117.5 75.0 L 117.5 80.0 L 121.25 90.0 L 131.25 113.75 L 138.75 125.0 L 140.0 121.25 " stroke="black" fill="none" stroke-width="6.0" stroke-linecap="round" stroke-linejoin="round" />
<path d="M 157.5 56.25 L 158.75 53.75 L 160.0 51.25 L 161.25 60.0 L 160.0 83.75 L 151.25 108.75 L 143.75 125.0 L 137.5 127.5 " stroke="black" fill="none" stroke-width="6.0" stroke-linecap="round" stroke-linejoin="round" />
<path d="M 73.75 155.0 L 72.5 155.0 L 72.5 155.0 L 87.5 150.0 L 130.0 135.0 L 176.25 115.0 L 201.25 102.5 L 206.25 97.5 L 200.0 97.5 L 197.5 98.75 " stroke="black" fill="none" stroke-width="6.0" stroke-linecap="round" stroke-linejoin="round" />
<path d="M 123.75 143.75 L 120.0 148.75 L 121.25 162.5 L 128.75 190.0 L 133.75 206.25 L 137.5 212.5 L 137.5 210.0 L 133.75 201.25 L 131.25 195.0 " stroke="black" fill="none" stroke-width="6.0" stroke-linecap="round" stroke-linejoin="round" />
<path d="M 122.5 163.75 L 122.5 162.5 L 121.25 158.75 L 123.75 156.25 L 140.0 151.25 L 162.5 147.5 L 186.25 146.25 L 198.75 148.75 L 197.5 160.0 L 185.0 178.75 L 166.25 196.25 L 147.5 207.5 L 133.75 210.0 " stroke="black" fill="none" stroke-width="6.0" stroke-linecap="round" stroke-linejoin="round" />
<path d="M 121.25 193.75 L 122.5 192.5 L 123.75 191.25 L 133.75 185.0 L 152.5 173.75 L 173.75 160.0 L 183.75 151.25 L 182.5 150.0 " stroke="black" fill="none" stroke-width="6.0" stroke-linecap="round" stroke-linejoin="round" />
<path d="M 161.25 147.5 L 157.5 150.0 L 156.25 160.0 L 155.0 185.0 L 151.25 211.25 L 145.0 222.5 L 140.0 225.0 L 138.75 222.5 L 141.25 216.25 L 152.5 206.25 L 166.25 196.25 L 180.0 187.5 L 192.5 180.0 L 196.25 178.75 L 192.5 182.5 L 183.75 187.5 L 176.25 192.5 L 170.0 198.75 L 162.5 207.5 L 155.0 227.5 L 142.5 251.25 L 127.5 268.75 L 115.0 272.5 L 112.5 267.5 " stroke="black" fill="none" stroke-width="6.0" stroke-linecap="round" stroke-linejoin="round" />
<path d="M 183.75 202.5 L 186.25 206.25 L 192.5 212.5 L 203.75 226.25 L 217.5 240.0 L 227.5 248.75 L 232.5 253.75 L 233.75 255.0 L 225.0 260.0 " stroke="black" fill="none" stroke-width="6.0" stroke-linecap="round" stroke-linejoin="round" />
</svg>