<svg xmlns="http://www.w3.org/2000/svg" width="300" height="300" viewBox="0 0 300 300">
<path d="M 112.5 90.0 L 110.0 87.5 L 107.5 87.5 L 107.5 98.75 L 110.0 137.5 L 112.5 176.25 L 116.25 195.0 L 116.25 196.25 L 115.0 193.75 " stroke="black" fill="none" stroke-width="6.0" stroke-linecap="round" stroke-linejoin="round" />
<path d="M 110.0 92.5 L 110.0 92.5 L 110.0 92.5 L 115.0 92.5 L 131.25 88.75 L 152.5 82.5 L 168.75 73.75 L 172.5 70.0 L 171.25 70.0 " stroke="black" fill="none" stroke-width="6.0" stroke-linecap="round" stroke-linejoin="round" />
<path d="M 128.75 118.75 L 125.0 121.25 L 125.0 122.5 L 136.25 117.5 L 151.25 107.5 L 167.5 97.5 L 176.25 91.25 L 170.0 93.75 " stroke="black" fill="none" stroke-width="6.0" stroke-linecap="round" stroke-linejoin="round" />
<path d="M 123.75 157.5 L 121.25 160.0 L 125.0 160.0 L 140.0 151.25 L 158.75 136.25 L 175.0 121.25 L 180.0 112.5 L 178.75 111.25 " stroke="black" fill="none" stroke-width="6.0" stroke-linecap="round" stroke-linejoin="round" />
<path d="M 151.25 97.5 L 151.25 97.5 L 150.0 96.25 L 150.0 96.25 L 153.75 112.5 L 157.5 143.75 L 157.5 172.5 L 157.5 183.75 L 160.0 183.75 L 187.5 168.75 L 202.5 162.5 L 212.5 162.5 L 213.75 178.75 L 206.25 202.5 L 196.25 223.75 L 188.75 235.0 L 182.5 238.75 L 176.25 238.75 L 173.75 236.25 " stroke="black" fill="none" stroke-width="6.0" stroke-linecap="round" stroke-linejoin="round" />
<path d="M 81.25 203.75 L 80.0 203.75 L 77.5 203.75 L 76.25 203.75 L 77.5 207.5 L 85.0 223.75 L 95.0 238.75 L 98.75 245.0 " stroke="black" fill="none" stroke-width="6.0" stroke-linecap="round" stroke-linejoin="round" />
<path d="M 111.25 198.75 L 111.25 198.75 L 111.25 198.75 L 116.25 200.0 L 123.75 208.75 L 133.75 221.25 L 136.25 226.25 L 136.25 226.25 " stroke="black" fill="none" stroke-width="6.0" stroke-linecap="round" stroke-linejoin="round" />
<path d="M 138.75 200.0 L 138.75 200.0 L 138.75 198.75 L 138.75 197.5 L 140.0 201.25 L 145.0 210.0 L 148.75 218.75 " stroke="black" fill="none" stroke-width="6.0" stroke-linecap="round" stroke-linejoin="round" />
<path d="M 180.0 186.25 L 181.25 185.0 L 182.5 185.0 L 187.5 192.5 L 197.5 213.75 L 198.75 221.25 " stroke="black" fill="none" stroke-width="6.0" stroke-linecap="round" stroke-linejoin="round" />
</svg>