<svg xmlns="http://www.w3.org/2000/svg" width="300" height="300" viewBox="0 0 300 300">
<path d="M 117.5 100.0 L 117.5 97.5 L 116.25 96.25 L 117.5 105.0 L 121.25 136.25 L 122.5 168.75 L 125.0 188.75 L 125.0 188.75 L 123.75 186.25 " stroke="black" fill="none" stroke-width="6.0" stroke-linecap="round" stroke-linejoin="round" />
<path d="M 117.5 106.25 L 117.5 107.5 L 117.5 107.5 L 118.75 108.75 L 131.25 105.0 L 147.5 96.25 L 163.75 87.5 L 172.5 82.5 L 170.0 82.5 " stroke="black" fill="none" stroke-width="6.0" stroke-linecap="round" stroke-linejoin="round" />
<path d="M 131.25 131.25 L 130.0 132.5 L 130.0 132.5 L 138.75 127.5 L 156.25 116.25 L 172.5 106.25 L 177.5 105.0 L 167.5 113.75 " stroke="black" fill="none" stroke-width="6.0" stroke-linecap="round" stroke-linejoin="round" />
<path d="M 132.5 160.0 L 130.0 162.5 L 128.75 163.75 L 135.0 161.25 L 150.0 151.25 L 168.75 137.5 L 183.75 123.75 L 185.0 118.75 " stroke="black" fill="none" stroke-width="6.0" stroke-linecap="round" stroke-linejoin="round" />
<path d="M 158.75 102.5 L 158.75 102.5 L 157.5 103.75 L 157.5 123.75 L 157.5 157.5 L 163.75 178.75 L 175.0 183.75 L 190.0 180.0 L 205.0 176.25 L 217.5 173.75 L 225.0 178.75 L 221.25 193.75 L 208.75 213.75 L 195.0 235.0 L 183.75 248.75 L 177.5 251.25 L 172.5 248.75 L 170.0 243.75 " stroke="black" fill="none" stroke-width="6.0" stroke-linecap="round" stroke-linejoin="round" />
<path d="M 91.25 217.5 L 88.75 217.5 L 86.25 217.5 L 86.25 217.5 L 90.0 228.75 L 97.5 245.0 L 103.75 256.25 L 105.0 257.5 " stroke="black" fill="none" stroke-width="6.0" stroke-linecap="round" stroke-linejoin="round" />
<path d="M 118.75 202.5 L 118.75 202.5 L 118.75 202.5 L 123.75 208.75 L 132.5 220.0 L 140.0 231.25 L 141.25 233.75 " stroke="black" fill="none" stroke-width="6.0" stroke-linecap="round" stroke-linejoin="round" />
<path d="M 145.0 203.75 L 145.0 202.5 L 145.0 202.5 L 145.0 202.5 L 146.25 205.0 L 152.5 215.0 L 156.25 227.5 " stroke="black" fill="none" stroke-width="6.0" stroke-linecap="round" stroke-linejoin="round" />
<path d="M 182.5 195.0 L 182.5 195.0 L 182.5 193.75 L 185.0 200.0 L 192.5 215.0 " stroke="black" fill="none" stroke-width="6.0" stroke-linecap="round" stroke-linejoin="round" />
</svg>