<svg xmlns="http://www.w3.org/2000/svg" width="300" height="300" viewBox="0 0 300 300">
<path d="M 100.0 106.25 L 100.0 106.25 L 100.0 111.25 L 102.5 127.5 L 111.25 148.75 L 120.0 157.5 L 125.0 156.25 L 125.0 155.0 " stroke="black" fill="none" stroke-width="6.0" stroke-linecap="round" stroke-linejoin="round" />
<path d="M 95.0 123.75 L 93.75 123.75 L 91.25 121.25 L 96.25 116.25 L 118.75 108.75 L 151.25 101.25 L 178.75 98.75 L 188.75 100.0 L 185.0 108.75 L 167.5 122.5 L 150.0 135.0 L 131.25 146.25 L 116.25 155.0 L 115.0 155.0 L 128.75 150.0 L 150.0 138.75 L 168.75 127.5 L 183.75 115.0 L 186.25 110.0 L 173.75 110.0 L 167.5 110.0 " stroke="black" fill="none" stroke-width="6.0" stroke-linecap="round" stroke-linejoin="round" />
<path d="M 135.0 78.75 L 135.0 78.75 L 133.75 80.0 L 135.0 92.5 L 138.75 152.5 L 140.0 192.5 L 133.75 211.25 " stroke="black" fill="none" stroke-width="6.0" stroke-linecap="round" stroke-linejoin="round" />
<path d="M 66.25 198.75 L 66.25 198.75 L 66.25 202.5 L 73.75 222.5 L 85.0 247.5 L 97.5 258.75 L 102.5 253.75 " stroke="black" fill="none" stroke-width="6.0" stroke-linecap="round" stroke-linejoin="round" />
<path d="M 140.0 210.0 L 141.25 212.5 L 148.75 222.5 L 166.25 233.75 L 191.25 238.75 L 206.25 235.0 L 212.5 225.0 L 211.25 217.5 L 201.25 213.75 L 182.5 211.25 L 160.0 208.75 L 146.25 208.75 L 143.75 208.75 L 161.25 203.75 L 193.75 192.5 L 221.25 180.0 L 238.75 172.5 L 238.75 171.25 " stroke="black" fill="none" stroke-width="6.0" stroke-linecap="round" stroke-linejoin="round" />
</svg>