<svg xmlns="http://www.w3.org/2000/svg" width="300" height="300" viewBox="0 0 300 300">
<path d="M 80.0 130.0 L 76.25 130.0 L 73.75 130.0 L 75.0 131.25 L 82.5 146.25 L 91.25 168.75 L 98.75 185.0 L 105.0 187.5 L 115.0 175.0 L 126.25 155.0 L 135.0 138.75 L 138.75 125.0 L 138.75 115.0 L 138.75 113.75 L 138.75 118.75 L 142.5 136.25 L 143.75 155.0 L 146.25 168.75 L 150.0 172.5 " stroke="black" fill="none" stroke-width="6.0" stroke-linecap="round" stroke-linejoin="round" />
<path d="M 212.5 77.5 L 205.0 85.0 L 196.25 107.5 L 178.75 146.25 L 161.25 178.75 L 150.0 197.5 L 145.0 203.75 L 145.0 201.25 " stroke="black" fill="none" stroke-width="6.0" stroke-linecap="round" stroke-linejoin="round" />
<path d="M 182.5 142.5 L 182.5 142.5 L 186.25 148.75 L 201.25 163.75 L 223.75 183.75 L 246.25 196.25 L 261.25 201.25 L 272.5 203.75 L 275.0 203.75 " stroke="black" fill="none" stroke-width="6.0" stroke-linecap="round" stroke-linejoin="round" />
</svg>