<svg xmlns="http://www.w3.org/2000/svg" width="300" height="300" viewBox="0 0 300 300">
<path d="M 96.25 93.75 L 93.75 98.75 L 92.5 100.0 L 100.0 98.75 L 123.75 92.5 L 155.0 80.0 L 180.0 70.0 L 191.25 63.75 L 192.5 63.75 L 182.5 66.25 L 168.75 71.25 " stroke="black" fill="none" stroke-width="6.0" stroke-linecap="round" stroke-linejoin="round" />
<path d="M 137.5 72.5 L 135.0 71.25 L 131.25 71.25 L 131.25 71.25 L 131.25 80.0 L 133.75 93.75 L 137.5 106.25 L 138.75 107.5 " stroke="black" fill="none" stroke-width="6.0" stroke-linecap="round" stroke-linejoin="round" />
<path d="M 170.0 62.5 L 171.25 63.75 L 170.0 68.75 L 163.75 81.25 L 153.75 100.0 L 143.75 118.75 L 141.25 121.25 " stroke="black" fill="none" stroke-width="6.0" stroke-linecap="round" stroke-linejoin="round" />
<path d="M 102.5 113.75 L 101.25 118.75 L 97.5 132.5 L 92.5 155.0 L 87.5 178.75 L 87.5 190.0 L 87.5 190.0 L 87.5 186.25 " stroke="black" fill="none" stroke-width="6.0" stroke-linecap="round" stroke-linejoin="round" />
<path d="M 97.5 142.5 L 101.25 137.5 L 107.5 132.5 L 128.75 128.75 L 157.5 125.0 L 190.0 122.5 L 205.0 123.75 L 206.25 127.5 L 197.5 136.25 L 183.75 146.25 L 168.75 153.75 L 153.75 157.5 L 143.75 157.5 L 141.25 157.5 " stroke="black" fill="none" stroke-width="6.0" stroke-linecap="round" stroke-linejoin="round" />
<path d="M 127.5 147.5 L 127.5 147.5 L 127.5 148.75 L 128.75 153.75 L 131.25 167.5 L 135.0 187.5 L 137.5 197.5 L 138.75 200.0 L 138.75 197.5 L 136.25 190.0 L 133.75 181.25 L 131.25 172.5 L 131.25 163.75 L 136.25 156.25 L 147.5 151.25 L 163.75 148.75 L 177.5 148.75 L 181.25 152.5 L 175.0 161.25 L 161.25 172.5 L 147.5 183.75 L 135.0 192.5 L 127.5 196.25 L 128.75 196.25 L 141.25 192.5 L 155.0 186.25 L 170.0 180.0 L 176.25 178.75 L 176.25 182.5 L 162.5 193.75 L 148.75 205.0 L 133.75 216.25 L 117.5 225.0 L 102.5 231.25 L 96.25 235.0 L 96.25 235.0 L 98.75 236.25 L 107.5 241.25 L 120.0 247.5 L 136.25 255.0 L 150.0 261.25 L 157.5 265.0 L 158.75 265.0 L 158.75 265.0 L 157.5 265.0 L 155.0 262.5 L 148.75 257.5 L 140.0 252.5 L 128.75 248.75 L 118.75 245.0 L 112.5 242.5 L 113.75 240.0 L 127.5 235.0 L 147.5 225.0 L 171.25 215.0 L 196.25 208.75 L 210.0 207.5 L 211.25 211.25 L 207.5 221.25 L 196.25 236.25 L 182.5 248.75 L 163.75 262.5 L 153.75 270.0 L 153.75 270.0 L 163.75 267.5 L 182.5 260.0 L 200.0 251.25 L 212.5 242.5 L 218.75 236.25 L 220.0 230.0 L 220.0 228.75 " stroke="black" fill="none" stroke-width="6.0" stroke-linecap="round" stroke-linejoin="round" />
</svg>