<svg xmlns="http://www.w3.org/2000/svg" width="300" height="300" viewBox="0 0 300 300">
<path d="M 77.5 103.75 L 73.75 105.0 L 71.25 106.25 L 76.25 108.75 L 91.25 110.0 L 110.0 107.5 L 128.75 102.5 L 132.5 100.0 L 128.75 101.25 " stroke="black" fill="none" stroke-width="6.0" stroke-linecap="round" stroke-linejoin="round" />
<path d="M 72.5 142.5 L 71.25 143.75 L 68.75 151.25 L 76.25 177.5 L 88.75 212.5 L 95.0 226.25 L 97.5 228.75 L 96.25 225.0 " stroke="black" fill="none" stroke-width="6.0" stroke-linecap="round" stroke-linejoin="round" />
<path d="M 83.75 171.25 L 82.5 171.25 L 75.0 170.0 L 72.5 171.25 L 76.25 171.25 L 90.0 167.5 L 106.25 160.0 L 122.5 153.75 L 128.75 152.5 L 123.75 161.25 L 111.25 177.5 L 97.5 192.5 L 91.25 200.0 L 92.5 200.0 L 103.75 188.75 L 121.25 166.25 L 142.5 141.25 L 158.75 118.75 L 168.75 101.25 L 173.75 87.5 L 175.0 81.25 L 175.0 81.25 L 175.0 82.5 L 173.75 90.0 L 178.75 98.75 L 188.75 103.75 L 200.0 106.25 L 207.5 106.25 L 208.75 105.0 L 203.75 105.0 L 192.5 110.0 " stroke="black" fill="none" stroke-width="6.0" stroke-linecap="round" stroke-linejoin="round" />
<path d="M 153.75 140.0 L 153.75 140.0 L 153.75 141.25 L 153.75 142.5 L 158.75 152.5 L 163.75 180.0 L 167.5 201.25 L 168.75 207.5 L 168.75 202.5 L 168.75 193.75 L 166.25 183.75 L 163.75 173.75 L 161.25 167.5 L 158.75 165.0 L 158.75 165.0 L 168.75 160.0 L 190.0 146.25 L 213.75 128.75 L 233.75 113.75 L 241.25 106.25 L 240.0 106.25 L 231.25 113.75 L 221.25 122.5 L 215.0 131.25 L 208.75 138.75 L 206.25 148.75 L 207.5 167.5 L 211.25 196.25 L 213.75 223.75 L 213.75 241.25 L 211.25 251.25 L 207.5 255.0 L 203.75 257.5 L 197.5 260.0 " stroke="black" fill="none" stroke-width="6.0" stroke-linecap="round" stroke-linejoin="round" />
</svg>