<svg xmlns="http://www.w3.org/2000/svg" width="300" height="300" viewBox="0 0 300 300">
<path d="M 78.75 95.0 L 77.5 95.0 L 76.25 95.0 L 76.25 117.5 L 78.75 170.0 L 82.5 208.75 L 83.75 226.25 L 83.75 235.0 " stroke="black" fill="none" stroke-width="6.0" stroke-linecap="round" stroke-linejoin="round" />
<path d="M 101.25 98.75 L 110.0 97.5 L 125.0 95.0 L 148.75 93.75 L 170.0 91.25 L 188.75 90.0 L 198.75 90.0 L 201.25 96.25 L 202.5 116.25 L 202.5 148.75 L 205.0 185.0 L 208.75 217.5 L 212.5 237.5 L 213.75 243.75 L 213.75 245.0 L 212.5 245.0 L 207.5 241.25 L 201.25 230.0 L 191.25 210.0 L 176.25 188.75 " stroke="black" fill="none" stroke-width="6.0" stroke-linecap="round" stroke-linejoin="round" />
<path d="M 105.0 127.5 L 103.75 127.5 L 102.5 127.5 L 103.75 125.0 L 117.5 118.75 L 136.25 108.75 L 152.5 100.0 L 156.25 97.5 L 151.25 97.5 L 145.0 97.5 L 138.75 97.5 L 133.75 97.5 L 130.0 98.75 L 128.75 101.25 L 128.75 108.75 L 128.75 121.25 L 127.5 132.5 L 122.5 138.75 L 115.0 141.25 L 107.5 143.75 L 102.5 145.0 L 101.25 145.0 L 102.5 145.0 L 112.5 143.75 L 128.75 136.25 L 146.25 125.0 L 158.75 113.75 L 162.5 108.75 L 156.25 110.0 " stroke="black" fill="none" stroke-width="6.0" stroke-linecap="round" stroke-linejoin="round" />
<path d="M 120.0 150.0 L 118.75 157.5 L 118.75 168.75 L 121.25 178.75 L 123.75 182.5 L 125.0 182.5 L 123.75 176.25 L 121.25 170.0 L 117.5 163.75 L 115.0 160.0 L 115.0 156.25 L 121.25 151.25 L 136.25 145.0 L 152.5 140.0 L 160.0 138.75 L 160.0 141.25 L 152.5 151.25 L 142.5 162.5 L 130.0 176.25 L 117.5 187.5 L 113.75 191.25 L 118.75 187.5 L 131.25 177.5 L 142.5 167.5 L 148.75 162.5 L 147.5 165.0 L 138.75 183.75 L 125.0 206.25 L 112.5 226.25 L 105.0 237.5 L 103.75 232.5 " stroke="black" fill="none" stroke-width="6.0" stroke-linecap="round" stroke-linejoin="round" />
<path d="M 140.0 178.75 L 140.0 180.0 L 137.5 187.5 L 136.25 200.0 L 138.75 213.75 L 146.25 221.25 L 156.25 218.75 L 168.75 205.0 L 178.75 190.0 L 182.5 178.75 L 181.25 172.5 L 171.25 171.25 L 157.5 177.5 L 145.0 186.25 L 136.25 196.25 L 133.75 200.0 L 140.0 201.25 L 152.5 201.25 L 165.0 198.75 L 175.0 196.25 L 176.25 196.25 " stroke="black" fill="none" stroke-width="6.0" stroke-linecap="round" stroke-linejoin="round" />
<path d="M 98.75 238.75 L 96.25 240.0 L 96.25 241.25 L 105.0 241.25 L 133.75 240.0 L 168.75 236.25 L 198.75 232.5 L 212.5 230.0 L 212.5 230.0 " stroke="black" fill="none" stroke-width="6.0" stroke-linecap="round" stroke-linejoin="round" />
</svg>