<svg xmlns="http://www.w3.org/2000/svg" width="300" height="300" viewBox="0 0 300 300">
<path d="M 82.5 95.0 L 81.25 95.0 L 77.5 102.5 L 77.5 125.0 L 82.5 172.5 L 86.25 218.75 L 87.5 240.0 L 87.5 243.75 L 87.5 241.25 " stroke="black" fill="none" stroke-width="6.0" stroke-linecap="round" stroke-linejoin="round" />
<path d="M 102.5 96.25 L 103.75 96.25 L 107.5 95.0 L 128.75 87.5 L 156.25 83.75 L 183.75 83.75 L 203.75 87.5 L 212.5 101.25 L 216.25 131.25 L 216.25 168.75 L 220.0 203.75 L 226.25 233.75 L 232.5 255.0 L 235.0 261.25 L 236.25 263.75 L 236.25 263.75 L 233.75 263.75 L 226.25 258.75 L 216.25 247.5 L 205.0 231.25 " stroke="black" fill="none" stroke-width="6.0" stroke-linecap="round" stroke-linejoin="round" />
<path d="M 116.25 123.75 L 113.75 127.5 L 112.5 127.5 L 122.5 125.0 L 137.5 116.25 L 150.0 106.25 L 155.0 98.75 L 153.75 95.0 " stroke="black" fill="none" stroke-width="6.0" stroke-linecap="round" stroke-linejoin="round" />
<path d="M 138.75 98.75 L 137.5 101.25 L 137.5 105.0 L 137.5 112.5 L 138.75 125.0 L 138.75 136.25 L 135.0 142.5 L 126.25 145.0 L 116.25 147.5 L 108.75 148.75 L 108.75 148.75 L 116.25 146.25 L 131.25 140.0 L 148.75 131.25 L 163.75 121.25 L 173.75 112.5 L 170.0 110.0 " stroke="black" fill="none" stroke-width="6.0" stroke-linecap="round" stroke-linejoin="round" />
<path d="M 132.5 151.25 L 131.25 153.75 L 130.0 167.5 L 131.25 178.75 L 135.0 185.0 L 137.5 186.25 L 137.5 182.5 L 137.5 175.0 L 135.0 168.75 L 132.5 163.75 L 130.0 160.0 L 130.0 156.25 L 133.75 153.75 L 145.0 151.25 L 156.25 148.75 L 163.75 148.75 L 162.5 152.5 L 152.5 163.75 L 141.25 176.25 L 128.75 188.75 L 121.25 195.0 L 122.5 195.0 L 133.75 190.0 L 146.25 180.0 L 157.5 172.5 L 163.75 167.5 L 161.25 171.25 L 150.0 187.5 L 136.25 207.5 L 123.75 226.25 L 115.0 238.75 L 113.75 237.5 L 116.25 232.5 " stroke="black" fill="none" stroke-width="6.0" stroke-linecap="round" stroke-linejoin="round" />
<path d="M 143.75 196.25 L 145.0 196.25 L 146.25 197.5 L 150.0 207.5 L 155.0 221.25 L 162.5 228.75 L 171.25 226.25 L 181.25 212.5 L 191.25 198.75 L 195.0 188.75 L 193.75 182.5 L 186.25 182.5 L 173.75 187.5 L 160.0 196.25 L 148.75 205.0 L 145.0 210.0 L 147.5 211.25 L 157.5 211.25 L 170.0 210.0 L 181.25 207.5 L 191.25 205.0 L 192.5 205.0 " stroke="black" fill="none" stroke-width="6.0" stroke-linecap="round" stroke-linejoin="round" />
<path d="M 113.75 252.5 L 113.75 255.0 L 112.5 256.25 L 117.5 256.25 L 136.25 255.0 L 163.75 252.5 L 191.25 247.5 L 206.25 243.75 L 211.25 240.0 " stroke="black" fill="none" stroke-width="6.0" stroke-linecap="round" stroke-linejoin="round" />
</svg>