<svg xmlns="http://www.w3.org/2000/svg" width="300" height="300" viewBox="0 0 300 300">
<path d="M 97.5 115.0 L 97.5 115.0 L 96.25 116.25 L 95.0 116.25 L 101.25 116.25 L 115.0 112.5 L 128.75 106.25 L 132.5 103.75 " stroke="black" fill="none" stroke-width="6.0" stroke-linecap="round" stroke-linejoin="round" />
<path d="M 95.0 177.5 L 92.5 181.25 L 91.25 185.0 L 97.5 181.25 L 111.25 167.5 L 127.5 152.5 L 138.75 143.75 L 142.5 143.75 L 137.5 157.5 L 128.75 178.75 L 117.5 201.25 L 108.75 213.75 L 106.25 213.75 L 105.0 205.0 L 106.25 195.0 L 108.75 183.75 L 108.75 172.5 L 108.75 167.5 L 110.0 167.5 L 115.0 177.5 L 123.75 192.5 L 135.0 203.75 L 145.0 206.25 L 146.25 205.0 " stroke="black" fill="none" stroke-width="6.0" stroke-linecap="round" stroke-linejoin="round" />
<path d="M 153.75 130.0 L 152.5 130.0 L 150.0 130.0 L 155.0 127.5 L 171.25 118.75 L 196.25 105.0 L 215.0 92.5 L 222.5 86.25 L 222.5 85.0 L 217.5 85.0 L 210.0 87.5 L 205.0 92.5 L 202.5 102.5 L 201.25 130.0 L 205.0 188.75 L 210.0 240.0 L 211.25 258.75 L 212.5 263.75 L 212.5 263.75 L 210.0 261.25 L 203.75 255.0 L 193.75 247.5 L 181.25 237.5 L 168.75 228.75 L 166.25 227.5 " stroke="black" fill="none" stroke-width="6.0" stroke-linecap="round" stroke-linejoin="round" />
<path d="M 163.75 168.75 L 163.75 167.5 L 163.75 167.5 L 163.75 166.25 L 170.0 170.0 L 182.5 178.75 L 193.75 188.75 " stroke="black" fill="none" stroke-width="6.0" stroke-linecap="round" stroke-linejoin="round" />
</svg>