<svg xmlns="http://www.w3.org/2000/svg" width="300" height="300" viewBox="0 0 300 300">
<path d="M 102.5 125.0 L 102.5 125.0 L 100.0 127.5 L 101.25 127.5 L 112.5 126.25 L 128.75 120.0 L 138.75 115.0 " stroke="black" fill="none" stroke-width="6.0" stroke-linecap="round" stroke-linejoin="round" />
<path d="M 85.0 182.5 L 81.25 187.5 L 88.75 183.75 L 106.25 170.0 L 128.75 153.75 L 142.5 146.25 L 142.5 147.5 L 130.0 171.25 L 117.5 196.25 L 106.25 216.25 L 98.75 222.5 L 96.25 218.75 " stroke="black" fill="none" stroke-width="6.0" stroke-linecap="round" stroke-linejoin="round" />
<path d="M 101.25 182.5 L 101.25 181.25 L 102.5 181.25 L 110.0 185.0 L 125.0 195.0 L 141.25 201.25 " stroke="black" fill="none" stroke-width="6.0" stroke-linecap="round" stroke-linejoin="round" />
<path d="M 151.25 128.75 L 148.75 130.0 L 153.75 131.25 L 173.75 126.25 L 202.5 113.75 L 221.25 101.25 L 227.5 96.25 L 227.5 95.0 L 221.25 95.0 L 215.0 95.0 L 210.0 100.0 L 208.75 121.25 L 207.5 170.0 L 207.5 220.0 L 208.75 238.75 L 208.75 240.0 L 208.75 238.75 L 206.25 233.75 L 198.75 227.5 L 183.75 221.25 L 165.0 216.25 L 155.0 212.5 L 155.0 212.5 L 173.75 210.0 L 200.0 200.0 L 222.5 183.75 L 232.5 171.25 " stroke="black" fill="none" stroke-width="6.0" stroke-linecap="round" stroke-linejoin="round" />
</svg>