<svg xmlns="http://www.w3.org/2000/svg" width="300" height="300" viewBox="0 0 300 300">
<path d="M 81.25 91.25 L 80.0 91.25 L 80.0 91.25 L 95.0 87.5 L 131.25 77.5 L 165.0 67.5 L 185.0 60.0 L 190.0 58.75 L 178.75 58.75 " stroke="black" fill="none" stroke-width="6.0" stroke-linecap="round" stroke-linejoin="round" />
<path d="M 102.5 66.25 L 101.25 68.75 L 100.0 73.75 L 101.25 83.75 L 108.75 95.0 L 118.75 98.75 L 121.25 98.75 " stroke="black" fill="none" stroke-width="6.0" stroke-linecap="round" stroke-linejoin="round" />
<path d="M 151.25 45.0 L 151.25 45.0 L 148.75 48.75 L 142.5 67.5 L 132.5 100.0 L 122.5 123.75 " stroke="black" fill="none" stroke-width="6.0" stroke-linecap="round" stroke-linejoin="round" />
<path d="M 71.25 150.0 L 67.5 152.5 L 63.75 156.25 L 63.75 157.5 L 75.0 156.25 L 87.5 151.25 L 97.5 146.25 L 98.75 145.0 " stroke="black" fill="none" stroke-width="6.0" stroke-linecap="round" stroke-linejoin="round" />
<path d="M 76.25 176.25 L 76.25 177.5 L 72.5 180.0 L 73.75 180.0 L 85.0 172.5 L 96.25 165.0 L 103.75 161.25 L 103.75 161.25 " stroke="black" fill="none" stroke-width="6.0" stroke-linecap="round" stroke-linejoin="round" />
<path d="M 80.0 243.75 L 76.25 251.25 L 75.0 252.5 L 83.75 243.75 L 115.0 195.0 L 122.5 178.75 " stroke="black" fill="none" stroke-width="6.0" stroke-linecap="round" stroke-linejoin="round" />
<path d="M 131.25 113.75 L 128.75 115.0 L 123.75 117.5 L 125.0 118.75 L 137.5 116.25 L 152.5 110.0 L 167.5 103.75 L 176.25 98.75 L 175.0 98.75 L 162.5 103.75 L 148.75 113.75 L 136.25 126.25 L 128.75 141.25 L 126.25 156.25 L 130.0 168.75 L 135.0 177.5 L 140.0 183.75 L 142.5 186.25 L 142.5 186.25 " stroke="black" fill="none" stroke-width="6.0" stroke-linecap="round" stroke-linejoin="round" />
<path d="M 136.25 145.0 L 136.25 143.75 L 138.75 141.25 L 148.75 136.25 L 168.75 133.75 L 186.25 133.75 L 193.75 141.25 L 190.0 152.5 L 178.75 165.0 L 163.75 175.0 L 152.5 180.0 " stroke="black" fill="none" stroke-width="6.0" stroke-linecap="round" stroke-linejoin="round" />
<path d="M 140.0 162.5 L 140.0 162.5 L 140.0 162.5 L 140.0 161.25 L 150.0 157.5 L 166.25 150.0 L 177.5 146.25 L 176.25 146.25 " stroke="black" fill="none" stroke-width="6.0" stroke-linecap="round" stroke-linejoin="round" />
<path d="M 133.75 187.5 L 132.5 187.5 L 131.25 188.75 L 133.75 187.5 L 146.25 176.25 L 167.5 156.25 L 182.5 138.75 L 183.75 131.25 " stroke="black" fill="none" stroke-width="6.0" stroke-linecap="round" stroke-linejoin="round" />
<path d="M 160.0 113.75 L 157.5 112.5 L 156.25 112.5 L 157.5 128.75 L 160.0 157.5 L 162.5 183.75 L 162.5 192.5 L 162.5 190.0 " stroke="black" fill="none" stroke-width="6.0" stroke-linecap="round" stroke-linejoin="round" />
<path d="M 182.5 97.5 L 182.5 92.5 L 185.0 88.75 L 188.75 91.25 L 192.5 110.0 L 193.75 137.5 L 190.0 160.0 " stroke="black" fill="none" stroke-width="6.0" stroke-linecap="round" stroke-linejoin="round" />
<path d="M 122.5 218.75 L 117.5 223.75 L 118.75 225.0 L 137.5 220.0 L 166.25 203.75 L 198.75 186.25 L 222.5 170.0 L 233.75 160.0 L 232.5 160.0 L 221.25 160.0 L 210.0 163.75 L 201.25 167.5 L 197.5 168.75 L 196.25 171.25 L 197.5 178.75 L 201.25 195.0 L 205.0 220.0 L 206.25 246.25 L 207.5 261.25 L 206.25 265.0 L 206.25 263.75 L 205.0 261.25 L 198.75 256.25 L 186.25 252.5 L 168.75 250.0 " stroke="black" fill="none" stroke-width="6.0" stroke-linecap="round" stroke-linejoin="round" />
<path d="M 145.0 215.0 L 141.25 216.25 L 141.25 217.5 L 146.25 222.5 L 161.25 233.75 L 163.75 236.25 " stroke="black" fill="none" stroke-width="6.0" stroke-linecap="round" stroke-linejoin="round" />
</svg>