<svg xmlns="http://www.w3.org/2000/svg" width="300" height="300" viewBox="0 0 300 300">
<path d="M 95.0 87.5 L 93.75 87.5 L 88.75 87.5 L 87.5 87.5 L 97.5 87.5 L 121.25 85.0 L 153.75 76.25 L 185.0 62.5 L 198.75 53.75 L 200.0 51.25 L 191.25 50.0 " stroke="black" fill="none" stroke-width="6.0" stroke-linecap="round" stroke-linejoin="round" />
<path d="M 135.0 67.5 L 133.75 68.75 L 130.0 75.0 L 130.0 83.75 L 135.0 96.25 L 140.0 101.25 L 141.25 101.25 " stroke="black" fill="none" stroke-width="6.0" stroke-linecap="round" stroke-linejoin="round" />
<path d="M 167.5 48.75 L 167.5 50.0 L 167.5 53.75 L 167.5 66.25 L 161.25 88.75 L 157.5 97.5 " stroke="black" fill="none" stroke-width="6.0" stroke-linecap="round" stroke-linejoin="round" />
<path d="M 78.75 147.5 L 76.25 148.75 L 76.25 150.0 L 85.0 150.0 L 96.25 147.5 L 107.5 145.0 L 115.0 141.25 L 115.0 141.25 L 113.75 141.25 " stroke="black" fill="none" stroke-width="6.0" stroke-linecap="round" stroke-linejoin="round" />
<path d="M 83.75 183.75 L 81.25 186.25 L 81.25 187.5 L 86.25 186.25 L 95.0 180.0 L 103.75 171.25 L 108.75 165.0 L 108.75 163.75 " stroke="black" fill="none" stroke-width="6.0" stroke-linecap="round" stroke-linejoin="round" />
<path d="M 83.75 250.0 L 82.5 251.25 L 80.0 255.0 L 81.25 252.5 L 90.0 242.5 L 98.75 225.0 L 105.0 210.0 " stroke="black" fill="none" stroke-width="6.0" stroke-linecap="round" stroke-linejoin="round" />
<path d="M 141.25 118.75 L 140.0 118.75 L 140.0 120.0 L 150.0 117.5 L 167.5 112.5 L 183.75 105.0 L 191.25 101.25 L 190.0 100.0 L 182.5 101.25 L 172.5 106.25 L 161.25 112.5 L 152.5 122.5 L 146.25 137.5 L 145.0 160.0 L 145.0 183.75 L 147.5 196.25 L 148.75 198.75 L 150.0 198.75 L 150.0 197.5 L 150.0 193.75 " stroke="black" fill="none" stroke-width="6.0" stroke-linecap="round" stroke-linejoin="round" />
<path d="M 147.5 147.5 L 147.5 147.5 L 148.75 146.25 L 153.75 142.5 L 170.0 140.0 L 190.0 137.5 L 203.75 140.0 L 207.5 146.25 L 206.25 155.0 L 198.75 165.0 L 192.5 172.5 L 185.0 175.0 L 181.25 175.0 " stroke="black" fill="none" stroke-width="6.0" stroke-linecap="round" stroke-linejoin="round" />
<path d="M 148.75 166.25 L 145.0 167.5 L 145.0 167.5 L 151.25 163.75 L 166.25 156.25 L 183.75 147.5 L 193.75 142.5 L 192.5 142.5 L 188.75 145.0 " stroke="black" fill="none" stroke-width="6.0" stroke-linecap="round" stroke-linejoin="round" />
<path d="M 151.25 188.75 L 151.25 188.75 L 153.75 188.75 L 168.75 178.75 L 190.0 161.25 L 197.5 148.75 L 197.5 147.5 " stroke="black" fill="none" stroke-width="6.0" stroke-linecap="round" stroke-linejoin="round" />
<path d="M 168.75 111.25 L 168.75 111.25 L 168.75 111.25 L 168.75 111.25 L 171.25 127.5 L 175.0 163.75 L 175.0 198.75 L 175.0 207.5 L 173.75 207.5 L 172.5 203.75 " stroke="black" fill="none" stroke-width="6.0" stroke-linecap="round" stroke-linejoin="round" />
<path d="M 197.5 111.25 L 197.5 111.25 L 197.5 111.25 L 198.75 112.5 L 202.5 121.25 L 206.25 135.0 L 207.5 150.0 " stroke="black" fill="none" stroke-width="6.0" stroke-linecap="round" stroke-linejoin="round" />
<path d="M 131.25 246.25 L 127.5 246.25 L 123.75 247.5 L 123.75 247.5 L 137.5 242.5 L 155.0 232.5 L 181.25 216.25 L 205.0 200.0 L 215.0 191.25 L 218.75 187.5 L 218.75 186.25 L 215.0 187.5 L 210.0 190.0 L 206.25 192.5 L 202.5 193.75 L 201.25 196.25 L 200.0 197.5 L 200.0 198.75 L 200.0 203.75 L 201.25 218.75 L 202.5 241.25 L 205.0 261.25 L 205.0 272.5 L 205.0 277.5 L 203.75 278.75 L 202.5 278.75 L 198.75 278.75 L 193.75 278.75 L 190.0 277.5 " stroke="black" fill="none" stroke-width="6.0" stroke-linecap="round" stroke-linejoin="round" />
<path d="M 156.25 225.0 L 155.0 225.0 L 152.5 226.25 L 155.0 228.75 L 166.25 237.5 L 178.75 247.5 L 181.25 250.0 " stroke="black" fill="none" stroke-width="6.0" stroke-linecap="round" stroke-linejoin="round" />
</svg>