<svg xmlns="http://www.w3.org/2000/svg" width="300" height="300" viewBox="0 0 300 300">
<path d="M 88.75 83.75 L 87.5 83.75 L 85.0 83.75 L 85.0 83.75 L 96.25 85.0 L 128.75 85.0 L 171.25 78.75 L 203.75 71.25 L 212.5 65.0 L 213.75 62.5 L 208.75 61.25 L 196.25 60.0 L 188.75 60.0 " stroke="black" fill="none" stroke-width="6.0" stroke-linecap="round" stroke-linejoin="round" />
<path d="M 135.0 61.25 L 133.75 62.5 L 132.5 65.0 L 133.75 77.5 L 137.5 95.0 L 138.75 108.75 L 140.0 110.0 " stroke="black" fill="none" stroke-width="6.0" stroke-linecap="round" stroke-linejoin="round" />
<path d="M 165.0 67.5 L 165.0 67.5 L 162.5 73.75 L 157.5 87.5 L 148.75 108.75 L 140.0 121.25 " stroke="black" fill="none" stroke-width="6.0" stroke-linecap="round" stroke-linejoin="round" />
<path d="M 80.0 141.25 L 80.0 141.25 L 80.0 142.5 L 80.0 142.5 L 93.75 140.0 L 101.25 137.5 L 102.5 137.5 " stroke="black" fill="none" stroke-width="6.0" stroke-linecap="round" stroke-linejoin="round" />
<path d="M 75.0 182.5 L 73.75 183.75 L 72.5 186.25 L 72.5 187.5 L 81.25 185.0 L 90.0 178.75 L 98.75 171.25 L 102.5 167.5 " stroke="black" fill="none" stroke-width="6.0" stroke-linecap="round" stroke-linejoin="round" />
<path d="M 73.75 245.0 L 72.5 247.5 L 72.5 248.75 L 78.75 243.75 L 90.0 227.5 L 103.75 206.25 L 112.5 186.25 " stroke="black" fill="none" stroke-width="6.0" stroke-linecap="round" stroke-linejoin="round" />
<path d="M 135.0 127.5 L 135.0 127.5 L 135.0 127.5 L 135.0 126.25 L 140.0 125.0 L 153.75 120.0 L 171.25 113.75 L 181.25 110.0 L 183.75 108.75 L 175.0 112.5 L 162.5 120.0 L 151.25 128.75 L 142.5 137.5 L 137.5 150.0 L 136.25 166.25 L 136.25 182.5 L 138.75 190.0 L 140.0 191.25 L 140.0 188.75 L 140.0 187.5 " stroke="black" fill="none" stroke-width="6.0" stroke-linecap="round" stroke-linejoin="round" />
<path d="M 136.25 147.5 L 136.25 147.5 L 142.5 147.5 L 160.0 143.75 L 185.0 142.5 L 200.0 143.75 L 203.75 150.0 L 200.0 157.5 L 191.25 167.5 L 181.25 173.75 L 168.75 177.5 L 166.25 177.5 " stroke="black" fill="none" stroke-width="6.0" stroke-linecap="round" stroke-linejoin="round" />
<path d="M 146.25 166.25 L 146.25 166.25 L 146.25 167.5 L 146.25 167.5 L 155.0 165.0 L 170.0 158.75 L 183.75 152.5 L 186.25 150.0 L 180.0 151.25 " stroke="black" fill="none" stroke-width="6.0" stroke-linecap="round" stroke-linejoin="round" />
<path d="M 141.25 186.25 L 141.25 186.25 L 143.75 186.25 L 160.0 177.5 L 181.25 163.75 L 193.75 155.0 L 193.75 151.25 L 188.75 150.0 " stroke="black" fill="none" stroke-width="6.0" stroke-linecap="round" stroke-linejoin="round" />
<path d="M 165.0 113.75 L 165.0 113.75 L 163.75 117.5 L 162.5 130.0 L 161.25 152.5 L 161.25 172.5 L 163.75 183.75 L 165.0 183.75 L 165.0 182.5 " stroke="black" fill="none" stroke-width="6.0" stroke-linecap="round" stroke-linejoin="round" />
<path d="M 196.25 102.5 L 196.25 102.5 L 197.5 103.75 L 198.75 113.75 L 200.0 133.75 L 200.0 150.0 L 196.25 157.5 " stroke="black" fill="none" stroke-width="6.0" stroke-linecap="round" stroke-linejoin="round" />
<path d="M 127.5 213.75 L 126.25 215.0 L 126.25 216.25 L 132.5 217.5 L 151.25 211.25 L 183.75 197.5 L 210.0 183.75 L 218.75 173.75 L 221.25 171.25 L 217.5 170.0 L 211.25 172.5 L 205.0 175.0 L 201.25 176.25 L 198.75 176.25 L 196.25 177.5 L 196.25 177.5 L 196.25 181.25 L 196.25 191.25 L 197.5 212.5 L 198.75 241.25 L 200.0 257.5 L 198.75 261.25 L 196.25 262.5 L 191.25 261.25 L 183.75 258.75 L 175.0 256.25 L 162.5 252.5 L 151.25 248.75 L 150.0 248.75 " stroke="black" fill="none" stroke-width="6.0" stroke-linecap="round" stroke-linejoin="round" />
<path d="M 146.25 216.25 L 147.5 216.25 L 147.5 216.25 L 152.5 220.0 L 163.75 232.5 L 173.75 246.25 " stroke="black" fill="none" stroke-width="6.0" stroke-linecap="round" stroke-linejoin="round" />
</svg>