<svg xmlns="http://www.w3.org/2000/svg" width="300" height="300" viewBox="0 0 300 300">
<path d="M 70.0 146.25 L 68.75 146.25 L 68.75 146.25 L 70.0 151.25 L 77.5 170.0 L 86.25 188.75 L 88.75 195.0 L 87.5 195.0 " stroke="black" fill="none" stroke-width="6.0" stroke-linecap="round" stroke-linejoin="round" />
<path d="M 68.75 156.25 L 67.5 156.25 L 65.0 153.75 L 63.75 153.75 L 71.25 152.5 L 87.5 152.5 L 107.5 150.0 L 122.5 148.75 L 125.0 152.5 L 112.5 166.25 L 95.0 183.75 L 83.75 196.25 L 81.25 198.75 L 87.5 193.75 L 101.25 177.5 L 115.0 157.5 L 117.5 152.5 " stroke="black" fill="none" stroke-width="6.0" stroke-linecap="round" stroke-linejoin="round" />
<path d="M 142.5 82.5 L 142.5 82.5 L 141.25 82.5 L 141.25 87.5 L 142.5 101.25 L 147.5 113.75 L 161.25 117.5 L 181.25 111.25 L 202.5 101.25 L 213.75 96.25 L 216.25 96.25 L 213.75 101.25 L 202.5 116.25 L 188.75 135.0 L 173.75 150.0 L 160.0 156.25 L 156.25 155.0 " stroke="black" fill="none" stroke-width="6.0" stroke-linecap="round" stroke-linejoin="round" />
<path d="M 167.5 118.75 L 166.25 118.75 L 163.75 123.75 L 158.75 146.25 L 151.25 188.75 L 142.5 220.0 L 133.75 232.5 L 125.0 232.5 L 125.0 230.0 " stroke="black" fill="none" stroke-width="6.0" stroke-linecap="round" stroke-linejoin="round" />
<path d="M 151.25 165.0 L 152.5 165.0 L 157.5 171.25 L 172.5 187.5 L 196.25 210.0 L 212.5 226.25 L 227.5 236.25 L 243.75 240.0 L 245.0 240.0 " stroke="black" fill="none" stroke-width="6.0" stroke-linecap="round" stroke-linejoin="round" />
</svg>