<svg xmlns="http://www.w3.org/2000/svg" width="300" height="300" viewBox="0 0 300 300">
<path d="M 68.75 96.25 L 66.25 97.5 L 65.0 97.5 L 70.0 97.5 L 80.0 95.0 L 88.75 90.0 L 93.75 86.25 L 96.25 85.0 " stroke="black" fill="none" stroke-width="6.0" stroke-linecap="round" stroke-linejoin="round" />
<path d="M 71.25 121.25 L 67.5 123.75 L 67.5 125.0 L 73.75 123.75 L 83.75 116.25 L 91.25 108.75 L 96.25 102.5 L 97.5 101.25 " stroke="black" fill="none" stroke-width="6.0" stroke-linecap="round" stroke-linejoin="round" />
<path d="M 71.25 138.75 L 71.25 138.75 L 73.75 138.75 L 85.0 132.5 L 95.0 122.5 L 98.75 115.0 L 98.75 113.75 " stroke="black" fill="none" stroke-width="6.0" stroke-linecap="round" stroke-linejoin="round" />
<path d="M 78.75 90.0 L 77.5 88.75 L 76.25 86.25 L 76.25 85.0 L 77.5 86.25 L 81.25 100.0 L 85.0 126.25 L 87.5 148.75 L 88.75 160.0 L 88.75 158.75 " stroke="black" fill="none" stroke-width="6.0" stroke-linecap="round" stroke-linejoin="round" />
<path d="M 100.0 87.5 L 100.0 85.0 L 101.25 85.0 L 103.75 92.5 L 105.0 112.5 L 105.0 132.5 L 103.75 142.5 L 100.0 143.75 L 100.0 142.5 " stroke="black" fill="none" stroke-width="6.0" stroke-linecap="round" stroke-linejoin="round" />
<path d="M 103.75 97.5 L 103.75 96.25 L 103.75 95.0 L 107.5 91.25 L 117.5 86.25 L 131.25 78.75 L 140.0 73.75 L 141.25 72.5 L 135.0 78.75 " stroke="black" fill="none" stroke-width="6.0" stroke-linecap="round" stroke-linejoin="round" />
<path d="M 115.0 102.5 L 112.5 105.0 L 111.25 106.25 L 115.0 105.0 L 122.5 100.0 L 131.25 93.75 L 137.5 88.75 L 138.75 86.25 L 135.0 87.5 L 128.75 93.75 L 122.5 102.5 L 116.25 112.5 L 113.75 120.0 L 115.0 122.5 L 122.5 120.0 L 131.25 110.0 L 140.0 100.0 L 143.75 92.5 L 142.5 90.0 " stroke="black" fill="none" stroke-width="6.0" stroke-linecap="round" stroke-linejoin="round" />
<path d="M 125.0 82.5 L 125.0 80.0 L 125.0 77.5 L 125.0 77.5 L 126.25 80.0 L 128.75 93.75 L 130.0 113.75 L 130.0 132.5 L 130.0 142.5 L 127.5 143.75 " stroke="black" fill="none" stroke-width="6.0" stroke-linecap="round" stroke-linejoin="round" />
<path d="M 43.75 128.75 L 43.75 128.75 L 45.0 127.5 L 48.75 127.5 L 56.25 135.0 L 65.0 147.5 L 68.75 156.25 L 71.25 160.0 L 77.5 158.75 L 87.5 151.25 L 102.5 142.5 L 117.5 136.25 L 131.25 130.0 L 137.5 125.0 L 138.75 122.5 L 137.5 121.25 L 136.25 120.0 L 135.0 120.0 L 135.0 120.0 L 135.0 120.0 L 135.0 120.0 L 135.0 120.0 L 135.0 120.0 L 135.0 120.0 L 135.0 120.0 L 135.0 120.0 L 135.0 120.0 L 135.0 120.0 L 135.0 120.0 L 135.0 120.0 L 135.0 120.0 L 135.0 120.0 L 135.0 120.0 L 135.0 120.0 L 135.0 120.0 L 135.0 120.0 L 135.0 120.0 L 135.0 120.0 L 135.0 120.0 L 135.0 120.0 L 135.0 120.0 L 135.0 120.0 L 135.0 120.0 L 135.0 120.0 L 135.0 120.0 L 135.0 120.0 L 135.0 120.0 L 135.0 120.0 L 135.0 120.0 L 135.0 120.0 L 135.0 120.0 L 135.0 120.0 L 135.0 120.0 L 135.0 120.0 L 135.0 120.0 L 135.0 120.0 L 135.0 120.0 L 135.0 120.0 L 135.0 120.0 L 135.0 120.0 L 135.0 120.0 L 135.0 120.0 L 135.0 120.0 L 135.0 120.0 L 135.0 120.0 L 135.0 120.0 L 135.0 120.0 L 135.0 120.0 L 135.0 120.0 L 135.0 121.25 L 140.0 122.5 L 148.75 126.25 L 157.5 128.75 L 162.5 132.5 L 161.25 137.5 " stroke="black" fill="none" stroke-width="6.0" stroke-linecap="round" stroke-linejoin="round" />
<path d="M 71.25 182.5 L 68.75 182.5 L 68.75 182.5 L 73.75 182.5 L 87.5 178.75 L 101.25 170.0 L 115.0 158.75 L 118.75 152.5 L 112.5 151.25 " stroke="black" fill="none" stroke-width="6.0" stroke-linecap="round" stroke-linejoin="round" />
<path d="M 82.5 193.75 L 81.25 200.0 L 85.0 206.25 L 90.0 212.5 L 92.5 215.0 L 93.75 215.0 L 92.5 215.0 L 90.0 212.5 L 86.25 210.0 L 82.5 207.5 L 78.75 206.25 L 78.75 205.0 L 81.25 201.25 L 90.0 196.25 L 105.0 188.75 L 117.5 182.5 L 123.75 181.25 L 121.25 186.25 L 112.5 196.25 L 101.25 207.5 L 90.0 217.5 L 85.0 222.5 L 85.0 222.5 L 91.25 217.5 L 101.25 210.0 L 111.25 201.25 L 118.75 195.0 L 121.25 191.25 L 117.5 192.5 L 108.75 196.25 L 102.5 201.25 L 97.5 206.25 L 95.0 211.25 L 95.0 220.0 L 96.25 235.0 L 97.5 246.25 L 98.75 252.5 L 98.75 251.25 " stroke="black" fill="none" stroke-width="6.0" stroke-linecap="round" stroke-linejoin="round" />
<path d="M 126.25 200.0 L 126.25 200.0 L 126.25 202.5 L 123.75 213.75 L 115.0 232.5 L 105.0 245.0 L 93.75 251.25 L 88.75 253.75 L 85.0 255.0 L 85.0 255.0 L 85.0 255.0 L 87.5 255.0 L 90.0 253.75 L 93.75 252.5 L 96.25 251.25 L 97.5 250.0 L 98.75 248.75 L 98.75 248.75 L 98.75 248.75 L 98.75 248.75 L 98.75 248.75 L 98.75 248.75 L 98.75 248.75 L 97.5 248.75 L 97.5 248.75 L 97.5 248.75 L 101.25 248.75 L 111.25 248.75 L 115.0 248.75 L 140.0 245.0 L 140.0 243.75 " stroke="black" fill="none" stroke-width="6.0" stroke-linecap="round" stroke-linejoin="round" />
<path d="M 172.5 90.0 L 172.5 90.0 L 170.0 90.0 L 168.75 90.0 L 173.75 90.0 L 185.0 87.5 L 198.75 81.25 L 207.5 76.25 L 211.25 73.75 L 207.5 73.75 L 206.25 73.75 " stroke="black" fill="none" stroke-width="6.0" stroke-linecap="round" stroke-linejoin="round" />
<path d="M 186.25 68.75 L 186.25 67.5 L 185.0 66.25 L 185.0 66.25 L 188.75 72.5 L 195.0 85.0 L 197.5 98.75 L 196.25 111.25 L 188.75 120.0 L 180.0 123.75 L 173.75 126.25 L 173.75 126.25 L 176.25 126.25 L 187.5 122.5 L 200.0 117.5 L 211.25 111.25 L 217.5 108.75 L 217.5 108.75 L 208.75 118.75 L 198.75 132.5 L 186.25 146.25 L 175.0 158.75 L 172.5 166.25 L 176.25 167.5 L 187.5 165.0 L 200.0 161.25 L 208.75 156.25 L 213.75 151.25 L 215.0 148.75 L 213.75 147.5 L 211.25 145.0 L 207.5 142.5 L 206.25 141.25 L 205.0 141.25 L 205.0 140.0 L 205.0 140.0 L 206.25 141.25 L 213.75 146.25 L 223.75 152.5 L 232.5 158.75 L 235.0 163.75 L 235.0 165.0 " stroke="black" fill="none" stroke-width="6.0" stroke-linecap="round" stroke-linejoin="round" />
<path d="M 158.75 193.75 L 157.5 192.5 L 155.0 191.25 L 155.0 192.5 L 157.5 203.75 L 163.75 225.0 L 170.0 241.25 L 172.5 246.25 L 173.75 243.75 L 173.75 235.0 " stroke="black" fill="none" stroke-width="6.0" stroke-linecap="round" stroke-linejoin="round" />
<path d="M 160.0 205.0 L 158.75 205.0 L 153.75 203.75 L 152.5 203.75 L 157.5 203.75 L 175.0 200.0 L 198.75 195.0 L 221.25 190.0 L 238.75 190.0 L 245.0 196.25 L 242.5 205.0 L 232.5 215.0 L 220.0 223.75 L 208.75 230.0 L 203.75 232.5 " stroke="black" fill="none" stroke-width="6.0" stroke-linecap="round" stroke-linejoin="round" />
<path d="M 191.25 201.25 L 187.5 201.25 L 186.25 205.0 L 186.25 215.0 L 186.25 227.5 L 187.5 235.0 L 187.5 236.25 " stroke="black" fill="none" stroke-width="6.0" stroke-linecap="round" stroke-linejoin="round" />
<path d="M 202.5 200.0 L 202.5 200.0 L 202.5 200.0 L 202.5 206.25 L 202.5 218.75 L 198.75 235.0 L 190.0 245.0 L 180.0 248.75 L 167.5 250.0 L 158.75 250.0 L 156.25 250.0 L 156.25 250.0 L 156.25 250.0 L 157.5 250.0 L 160.0 250.0 L 163.75 248.75 L 166.25 248.75 L 170.0 247.5 L 172.5 247.5 L 176.25 246.25 L 180.0 246.25 L 183.75 246.25 L 191.25 245.0 L 202.5 241.25 L 217.5 238.75 L 237.5 235.0 L 256.25 232.5 L 268.75 231.25 L 276.25 230.0 L 280.0 230.0 L 280.0 230.0 L 280.0 230.0 L 280.0 230.0 L 277.5 231.25 " stroke="black" fill="none" stroke-width="6.0" stroke-linecap="round" stroke-linejoin="round" />
</svg>