<svg xmlns="http://www.w3.org/2000/svg" width="300" height="300" viewBox="0 0 300 300">
<path d="M 92.5 93.75 L 90.0 95.0 L 85.0 97.5 L 85.0 97.5 L 91.25 97.5 L 112.5 97.5 L 148.75 91.25 L 187.5 81.25 L 215.0 71.25 L 226.25 66.25 L 223.75 66.25 L 210.0 70.0 L 207.5 71.25 " stroke="black" fill="none" stroke-width="6.0" stroke-linecap="round" stroke-linejoin="round" />
<path d="M 137.5 83.75 L 136.25 83.75 L 135.0 85.0 L 136.25 88.75 L 140.0 101.25 L 145.0 116.25 L 147.5 125.0 L 147.5 126.25 L 147.5 125.0 L 148.75 118.75 L 151.25 112.5 L 155.0 106.25 L 157.5 100.0 L 160.0 96.25 L 161.25 93.75 L 162.5 91.25 L 162.5 90.0 L 162.5 87.5 L 162.5 86.25 L 161.25 86.25 L 158.75 86.25 L 157.5 86.25 L 156.25 86.25 L 156.25 86.25 L 155.0 85.0 L 155.0 85.0 L 153.75 83.75 L 153.75 83.75 L 153.75 82.5 L 153.75 82.5 L 153.75 82.5 L 153.75 82.5 L 153.75 82.5 L 153.75 82.5 L 153.75 83.75 L 155.0 86.25 L 156.25 88.75 L 158.75 93.75 L 162.5 103.75 L 165.0 121.25 L 166.25 135.0 " stroke="black" fill="none" stroke-width="6.0" stroke-linecap="round" stroke-linejoin="round" />
<path d="M 192.5 75.0 L 191.25 75.0 L 187.5 75.0 L 187.5 77.5 L 191.25 90.0 L 196.25 110.0 L 201.25 126.25 L 206.25 131.25 L 213.75 126.25 L 222.5 115.0 L 226.25 103.75 L 223.75 101.25 " stroke="black" fill="none" stroke-width="6.0" stroke-linecap="round" stroke-linejoin="round" />
<path d="M 91.25 103.75 L 91.25 102.5 L 90.0 97.5 L 92.5 92.5 L 97.5 90.0 L 105.0 95.0 L 107.5 115.0 L 105.0 140.0 L 97.5 158.75 " stroke="black" fill="none" stroke-width="6.0" stroke-linecap="round" stroke-linejoin="round" />
<path d="M 120.0 167.5 L 118.75 167.5 L 117.5 168.75 L 121.25 173.75 L 128.75 186.25 L 133.75 196.25 L 136.25 202.5 L 133.75 203.75 L 128.75 201.25 " stroke="black" fill="none" stroke-width="6.0" stroke-linecap="round" stroke-linejoin="round" />
<path d="M 120.0 182.5 L 118.75 176.25 L 122.5 168.75 L 136.25 161.25 L 160.0 155.0 L 190.0 150.0 L 208.75 148.75 L 212.5 148.75 L 206.25 153.75 L 192.5 166.25 L 172.5 180.0 L 148.75 193.75 L 121.25 206.25 L 97.5 216.25 L 90.0 220.0 L 90.0 221.25 L 96.25 226.25 L 110.0 238.75 L 123.75 252.5 L 135.0 265.0 L 138.75 270.0 L 138.75 270.0 L 136.25 268.75 L 130.0 267.5 L 122.5 263.75 L 112.5 260.0 L 110.0 256.25 L 115.0 248.75 L 136.25 237.5 L 168.75 222.5 L 206.25 211.25 L 230.0 208.75 L 236.25 213.75 L 231.25 225.0 L 213.75 240.0 L 196.25 250.0 L 177.5 256.25 L 163.75 255.0 L 162.5 245.0 " stroke="black" fill="none" stroke-width="6.0" stroke-linecap="round" stroke-linejoin="round" />
<path d="M 173.75 191.25 L 173.75 183.75 L 172.5 180.0 L 172.5 180.0 L 175.0 196.25 L 181.25 236.25 L 182.5 288.75 L 178.75 331.25 L 173.75 348.75 L 167.5 352.5 " stroke="black" fill="none" stroke-width="6.0" stroke-linecap="round" stroke-linejoin="round" />
</svg>