<svg xmlns="http://www.w3.org/2000/svg" width="300" height="300" viewBox="0 0 300 300">
<path d="M 83.75 92.5 L 82.5 92.5 L 81.25 91.25 L 81.25 91.25 L 83.75 97.5 L 87.5 108.75 L 91.25 120.0 L 91.25 126.25 " stroke="black" fill="none" stroke-width="6.0" stroke-linecap="round" stroke-linejoin="round" />
<path d="M 98.75 83.75 L 98.75 82.5 L 100.0 82.5 L 105.0 85.0 L 110.0 93.75 L 111.25 106.25 L 103.75 118.75 L 95.0 126.25 L 88.75 131.25 L 81.25 133.75 L 77.5 136.25 L 76.25 136.25 L 77.5 136.25 L 78.75 136.25 L 95.0 131.25 L 107.5 122.5 L 120.0 113.75 L 126.25 107.5 L 125.0 107.5 " stroke="black" fill="none" stroke-width="6.0" stroke-linecap="round" stroke-linejoin="round" />
<path d="M 75.0 180.0 L 70.0 183.75 L 71.25 183.75 L 83.75 175.0 L 98.75 162.5 L 112.5 150.0 L 121.25 141.25 L 118.75 141.25 L 110.0 146.25 L 107.5 147.5 " stroke="black" fill="none" stroke-width="6.0" stroke-linecap="round" stroke-linejoin="round" />
<path d="M 78.75 200.0 L 77.5 202.5 L 77.5 203.75 L 87.5 197.5 L 103.75 183.75 L 121.25 166.25 L 130.0 153.75 L 127.5 150.0 L 126.25 150.0 " stroke="black" fill="none" stroke-width="6.0" stroke-linecap="round" stroke-linejoin="round" />
<path d="M 95.0 138.75 L 92.5 138.75 L 92.5 140.0 L 96.25 152.5 L 100.0 182.5 L 98.75 212.5 L 92.5 231.25 L 85.0 238.75 L 81.25 236.25 " stroke="black" fill="none" stroke-width="6.0" stroke-linecap="round" stroke-linejoin="round" />
<path d="M 132.5 127.5 L 130.0 127.5 L 125.0 127.5 L 126.25 127.5 L 135.0 123.75 L 145.0 118.75 L 156.25 113.75 L 163.75 111.25 L 168.75 110.0 L 171.25 118.75 L 171.25 138.75 L 171.25 165.0 L 171.25 191.25 L 172.5 203.75 L 173.75 208.75 L 173.75 208.75 L 173.75 208.75 L 172.5 206.25 L 170.0 202.5 L 163.75 196.25 L 157.5 188.75 L 152.5 183.75 " stroke="black" fill="none" stroke-width="6.0" stroke-linecap="round" stroke-linejoin="round" />
<path d="M 132.5 166.25 L 131.25 167.5 L 126.25 170.0 L 126.25 170.0 L 133.75 168.75 L 146.25 161.25 L 158.75 152.5 L 168.75 143.75 L 171.25 140.0 L 166.25 142.5 " stroke="black" fill="none" stroke-width="6.0" stroke-linecap="round" stroke-linejoin="round" />
<path d="M 140.0 178.75 L 137.5 182.5 L 136.25 183.75 L 143.75 177.5 L 156.25 163.75 L 173.75 146.25 L 192.5 127.5 L 201.25 113.75 L 205.0 105.0 L 207.5 102.5 L 208.75 102.5 L 212.5 101.25 L 218.75 100.0 L 226.25 97.5 L 233.75 97.5 L 238.75 98.75 L 241.25 106.25 L 242.5 125.0 L 242.5 151.25 L 243.75 181.25 L 245.0 210.0 L 248.75 233.75 L 251.25 246.25 L 252.5 253.75 L 252.5 255.0 L 252.5 255.0 L 252.5 253.75 L 250.0 252.5 L 245.0 247.5 L 237.5 245.0 " stroke="black" fill="none" stroke-width="6.0" stroke-linecap="round" stroke-linejoin="round" />
<path d="M 197.5 157.5 L 196.25 157.5 L 195.0 157.5 L 196.25 157.5 L 205.0 155.0 L 216.25 152.5 L 225.0 151.25 L 226.25 151.25 " stroke="black" fill="none" stroke-width="6.0" stroke-linecap="round" stroke-linejoin="round" />
<path d="M 195.0 181.25 L 192.5 183.75 L 190.0 186.25 L 193.75 187.5 L 206.25 185.0 L 222.5 177.5 L 230.0 173.75 " stroke="black" fill="none" stroke-width="6.0" stroke-linecap="round" stroke-linejoin="round" />
</svg>