<svg xmlns="http://www.w3.org/2000/svg" width="300" height="300" viewBox="0 0 300 300">
<path d="M 52.5 137.5 L 52.5 137.5 L 52.5 137.5 L 53.75 137.5 L 68.75 133.75 L 93.75 122.5 L 110.0 111.25 L 113.75 105.0 L 108.75 103.75 " stroke="black" fill="none" stroke-width="6.0" stroke-linecap="round" stroke-linejoin="round" />
<path d="M 87.5 108.75 L 86.25 111.25 L 86.25 123.75 L 87.5 156.25 L 90.0 195.0 L 90.0 216.25 L 90.0 222.5 L 90.0 222.5 L 88.75 220.0 L 83.75 216.25 L 77.5 211.25 L 67.5 208.75 L 56.25 205.0 L 47.5 205.0 L 43.75 205.0 L 43.75 205.0 L 51.25 201.25 L 72.5 188.75 L 95.0 166.25 L 101.25 160.0 " stroke="black" fill="none" stroke-width="6.0" stroke-linecap="round" stroke-linejoin="round" />
<path d="M 152.5 98.75 L 152.5 97.5 L 152.5 96.25 L 153.75 108.75 L 155.0 147.5 L 151.25 190.0 L 145.0 210.0 L 136.25 213.75 L 133.75 213.75 " stroke="black" fill="none" stroke-width="6.0" stroke-linecap="round" stroke-linejoin="round" />
<path d="M 110.0 146.25 L 110.0 146.25 L 110.0 145.0 L 121.25 141.25 L 140.0 133.75 L 155.0 127.5 L 157.5 125.0 " stroke="black" fill="none" stroke-width="6.0" stroke-linecap="round" stroke-linejoin="round" />
<path d="M 116.25 158.75 L 112.5 162.5 L 110.0 165.0 L 113.75 165.0 L 128.75 157.5 L 145.0 148.75 L 152.5 142.5 " stroke="black" fill="none" stroke-width="6.0" stroke-linecap="round" stroke-linejoin="round" />
<path d="M 116.25 197.5 L 115.0 198.75 L 113.75 200.0 L 126.25 188.75 L 150.0 161.25 L 176.25 130.0 L 191.25 103.75 L 197.5 90.0 L 197.5 80.0 L 197.5 75.0 L 196.25 75.0 L 196.25 78.75 L 196.25 102.5 L 195.0 148.75 L 196.25 211.25 L 198.75 253.75 L 200.0 263.75 L 201.25 265.0 L 200.0 257.5 L 197.5 251.25 " stroke="black" fill="none" stroke-width="6.0" stroke-linecap="round" stroke-linejoin="round" />
<path d="M 187.5 126.25 L 183.75 123.75 L 183.75 123.75 L 188.75 122.5 L 202.5 118.75 L 217.5 113.75 L 227.5 111.25 L 225.0 112.5 " stroke="black" fill="none" stroke-width="6.0" stroke-linecap="round" stroke-linejoin="round" />
<path d="M 185.0 155.0 L 185.0 155.0 L 182.5 156.25 L 183.75 156.25 L 196.25 151.25 L 213.75 141.25 L 231.25 132.5 L 231.25 132.5 " stroke="black" fill="none" stroke-width="6.0" stroke-linecap="round" stroke-linejoin="round" />
<path d="M 198.75 183.75 L 197.5 186.25 L 197.5 188.75 L 210.0 183.75 L 235.0 167.5 L 247.5 157.5 " stroke="black" fill="none" stroke-width="6.0" stroke-linecap="round" stroke-linejoin="round" />
</svg>