<svg xmlns="http://www.w3.org/2000/svg" width="300" height="300" viewBox="0 0 300 300">
<path d="M 88.75 110.0 L 86.25 111.25 L 85.0 111.25 L 86.25 112.5 L 95.0 113.75 L 107.5 113.75 L 121.25 113.75 L 126.25 113.75 L 122.5 115.0 " stroke="black" fill="none" stroke-width="6.0" stroke-linecap="round" stroke-linejoin="round" />
<path d="M 61.25 153.75 L 60.0 155.0 L 60.0 155.0 L 71.25 153.75 L 90.0 146.25 L 110.0 135.0 L 120.0 128.75 L 116.25 128.75 " stroke="black" fill="none" stroke-width="6.0" stroke-linecap="round" stroke-linejoin="round" />
<path d="M 90.0 152.5 L 88.75 157.5 L 85.0 181.25 L 83.75 208.75 L 85.0 223.75 L 85.0 225.0 L 85.0 222.5 " stroke="black" fill="none" stroke-width="6.0" stroke-linecap="round" stroke-linejoin="round" />
<path d="M 97.5 151.25 L 97.5 151.25 L 98.75 153.75 L 98.75 170.0 L 97.5 195.0 L 92.5 212.5 L 86.25 220.0 L 80.0 222.5 L 78.75 222.5 L 80.0 222.5 L 91.25 222.5 L 108.75 215.0 L 133.75 201.25 L 148.75 190.0 " stroke="black" fill="none" stroke-width="6.0" stroke-linecap="round" stroke-linejoin="round" />
<path d="M 160.0 66.25 L 157.5 66.25 L 155.0 68.75 L 155.0 82.5 L 156.25 108.75 L 161.25 128.75 L 166.25 132.5 L 166.25 132.5 " stroke="black" fill="none" stroke-width="6.0" stroke-linecap="round" stroke-linejoin="round" />
<path d="M 158.75 80.0 L 158.75 80.0 L 162.5 80.0 L 176.25 80.0 L 195.0 81.25 L 206.25 85.0 L 208.75 88.75 L 201.25 97.5 L 188.75 105.0 L 175.0 108.75 L 165.0 108.75 " stroke="black" fill="none" stroke-width="6.0" stroke-linecap="round" stroke-linejoin="round" />
<path d="M 153.75 98.75 L 153.75 98.75 L 152.5 98.75 L 153.75 98.75 L 166.25 97.5 L 185.0 95.0 L 200.0 91.25 L 205.0 90.0 L 202.5 90.0 " stroke="black" fill="none" stroke-width="6.0" stroke-linecap="round" stroke-linejoin="round" />
<path d="M 160.0 120.0 L 158.75 121.25 L 157.5 122.5 L 158.75 122.5 L 170.0 120.0 L 182.5 115.0 L 193.75 110.0 L 197.5 107.5 L 195.0 108.75 L 185.0 118.75 L 172.5 133.75 L 156.25 156.25 L 145.0 180.0 L 142.5 187.5 L 142.5 187.5 L 146.25 182.5 L 152.5 176.25 L 160.0 168.75 L 170.0 162.5 L 183.75 157.5 L 202.5 151.25 L 220.0 148.75 L 232.5 147.5 L 236.25 146.25 L 236.25 147.5 L 235.0 148.75 L 231.25 155.0 L 228.75 165.0 L 225.0 185.0 L 221.25 211.25 L 217.5 235.0 L 216.25 245.0 L 215.0 245.0 L 210.0 241.25 L 208.75 240.0 " stroke="black" fill="none" stroke-width="6.0" stroke-linecap="round" stroke-linejoin="round" />
<path d="M 187.5 167.5 L 186.25 167.5 L 181.25 168.75 L 176.25 178.75 L 171.25 197.5 L 165.0 208.75 " stroke="black" fill="none" stroke-width="6.0" stroke-linecap="round" stroke-linejoin="round" />
<path d="M 170.0 190.0 L 170.0 190.0 L 170.0 190.0 L 176.25 190.0 L 191.25 191.25 L 203.75 192.5 L 206.25 195.0 L 206.25 196.25 " stroke="black" fill="none" stroke-width="6.0" stroke-linecap="round" stroke-linejoin="round" />
<path d="M 150.0 195.0 L 147.5 195.0 L 143.75 197.5 L 142.5 208.75 L 148.75 225.0 L 160.0 235.0 L 178.75 235.0 L 200.0 220.0 L 215.0 206.25 L 220.0 200.0 " stroke="black" fill="none" stroke-width="6.0" stroke-linecap="round" stroke-linejoin="round" />
</svg>