<svg xmlns="http://www.w3.org/2000/svg" width="300" height="300" viewBox="0 0 300 300">
<path d="M 122.5 88.75 L 122.5 87.5 L 121.25 86.25 L 128.75 87.5 L 141.25 93.75 L 156.25 102.5 L 171.25 111.25 L 173.75 113.75 " stroke="black" fill="none" stroke-width="6.0" stroke-linecap="round" stroke-linejoin="round" />
<path d="M 85.0 142.5 L 83.75 143.75 L 81.25 145.0 L 87.5 147.5 L 106.25 146.25 L 138.75 137.5 L 167.5 125.0 L 187.5 115.0 L 193.75 111.25 L 192.5 111.25 L 188.75 112.5 L 177.5 122.5 L 161.25 138.75 L 142.5 162.5 L 123.75 190.0 L 113.75 202.5 L 112.5 203.75 L 118.75 200.0 L 135.0 190.0 L 155.0 175.0 L 177.5 158.75 L 195.0 146.25 L 203.75 141.25 L 203.75 141.25 L 197.5 146.25 L 190.0 153.75 L 183.75 161.25 L 177.5 171.25 L 170.0 186.25 L 161.25 207.5 L 150.0 232.5 L 132.5 255.0 L 107.5 265.0 L 98.75 265.0 " stroke="black" fill="none" stroke-width="6.0" stroke-linecap="round" stroke-linejoin="round" />
<path d="M 112.5 208.75 L 112.5 208.75 L 112.5 210.0 L 115.0 212.5 L 127.5 222.5 L 151.25 238.75 L 181.25 250.0 L 208.75 255.0 L 235.0 260.0 L 252.5 265.0 " stroke="black" fill="none" stroke-width="6.0" stroke-linecap="round" stroke-linejoin="round" />
</svg>