<svg xmlns="http://www.w3.org/2000/svg" width="300" height="300" viewBox="0 0 300 300">
<path d="M 51.25 100.0 L 51.25 100.0 L 51.25 100.0 L 50.0 101.25 L 50.0 101.25 L 50.0 102.5 L 55.0 106.25 L 65.0 121.25 L 81.25 146.25 L 93.75 170.0 L 98.75 181.25 L 101.25 186.25 L 101.25 187.5 L 101.25 188.75 L 100.0 188.75 L 97.5 190.0 L 95.0 191.25 L 91.25 195.0 L 85.0 206.25 L 75.0 226.25 L 63.75 250.0 L 56.25 263.75 L 53.75 268.75 L 53.75 268.75 L 53.75 268.75 L 53.75 263.75 L 53.75 260.0 " stroke="black" fill="none" stroke-width="6.0" stroke-linecap="round" stroke-linejoin="round" />
<path d="M 96.25 98.75 L 95.0 98.75 L 93.75 98.75 L 92.5 98.75 L 97.5 108.75 L 112.5 130.0 L 131.25 151.25 L 145.0 165.0 L 148.75 171.25 L 150.0 172.5 L 150.0 172.5 L 148.75 173.75 L 146.25 175.0 L 142.5 177.5 L 138.75 182.5 L 132.5 192.5 L 122.5 213.75 L 111.25 242.5 L 102.5 263.75 L 97.5 272.5 L 93.75 276.25 L 92.5 277.5 L 90.0 277.5 L 90.0 276.25 " stroke="black" fill="none" stroke-width="6.0" stroke-linecap="round" stroke-linejoin="round" />
</svg>