<svg xmlns="http://www.w3.org/2000/svg" width="300" height="300" viewBox="0 0 300 300">
<path d="M 73.75 85.0 L 73.75 83.75 L 71.25 82.5 L 70.0 81.25 L 71.25 81.25 L 77.5 88.75 L 88.75 113.75 L 100.0 147.5 L 108.75 168.75 L 112.5 176.25 L 113.75 177.5 L 113.75 177.5 L 113.75 176.25 L 112.5 176.25 L 111.25 176.25 L 107.5 176.25 L 102.5 181.25 L 95.0 192.5 L 83.75 212.5 L 72.5 235.0 L 65.0 248.75 L 60.0 253.75 L 57.5 252.5 L 56.25 247.5 " stroke="black" fill="none" stroke-width="6.0" stroke-linecap="round" stroke-linejoin="round" />
<path d="M 108.75 77.5 L 108.75 77.5 L 106.25 77.5 L 105.0 78.75 L 112.5 92.5 L 127.5 121.25 L 142.5 150.0 L 151.25 165.0 L 155.0 171.25 L 155.0 173.75 L 155.0 173.75 L 155.0 173.75 L 153.75 173.75 L 151.25 173.75 L 147.5 178.75 L 141.25 187.5 L 131.25 200.0 L 117.5 216.25 L 105.0 231.25 L 102.5 236.25 " stroke="black" fill="none" stroke-width="6.0" stroke-linecap="round" stroke-linejoin="round" />
</svg>