<svg xmlns="http://www.w3.org/2000/svg" width="300" height="300" viewBox="0 0 300 300">
<path d="M 68.75 93.75 L 66.25 92.5 L 63.75 92.5 L 62.5 91.25 L 62.5 91.25 L 62.5 91.25 L 66.25 92.5 L 73.75 102.5 L 83.75 121.25 L 97.5 142.5 L 107.5 155.0 L 112.5 158.75 L 115.0 160.0 L 115.0 160.0 L 115.0 160.0 L 115.0 160.0 L 115.0 160.0 L 113.75 160.0 L 112.5 161.25 L 108.75 166.25 L 103.75 175.0 L 97.5 190.0 L 88.75 208.75 L 80.0 228.75 L 73.75 242.5 L 70.0 247.5 L 68.75 247.5 L 67.5 245.0 L 66.25 237.5 L 66.25 225.0 " stroke="black" fill="none" stroke-width="6.0" stroke-linecap="round" stroke-linejoin="round" />
<path d="M 98.75 80.0 L 97.5 78.75 L 97.5 77.5 L 100.0 83.75 L 110.0 98.75 L 126.25 121.25 L 142.5 141.25 L 151.25 150.0 L 155.0 156.25 L 156.25 161.25 L 156.25 163.75 L 156.25 165.0 L 156.25 165.0 L 156.25 165.0 L 153.75 166.25 L 152.5 168.75 L 148.75 175.0 L 142.5 186.25 L 135.0 202.5 L 126.25 218.75 L 118.75 233.75 L 115.0 242.5 L 113.75 243.75 L 112.5 245.0 L 112.5 245.0 L 110.0 243.75 L 105.0 238.75 L 103.75 237.5 " stroke="black" fill="none" stroke-width="6.0" stroke-linecap="round" stroke-linejoin="round" />
</svg>