<svg xmlns="http://www.w3.org/2000/svg" width="300" height="300" viewBox="0 0 300 300">
<path d="M 68.75 96.25 L 67.5 96.25 L 65.0 96.25 L 65.0 95.0 L 66.25 95.0 L 75.0 101.25 L 87.5 118.75 L 100.0 141.25 L 107.5 155.0 L 110.0 158.75 L 110.0 160.0 L 110.0 158.75 L 110.0 158.75 L 110.0 158.75 L 110.0 158.75 L 110.0 158.75 L 108.75 158.75 L 107.5 158.75 L 106.25 160.0 L 103.75 165.0 L 98.75 175.0 L 91.25 191.25 L 82.5 211.25 L 71.25 231.25 L 63.75 245.0 L 61.25 247.5 L 62.5 246.25 L 63.75 236.25 " stroke="black" fill="none" stroke-width="6.0" stroke-linecap="round" stroke-linejoin="round" />
<path d="M 103.75 81.25 L 103.75 81.25 L 103.75 81.25 L 102.5 81.25 L 102.5 83.75 L 107.5 93.75 L 117.5 113.75 L 133.75 142.5 L 146.25 163.75 L 150.0 172.5 L 151.25 177.5 L 151.25 177.5 L 151.25 177.5 L 151.25 177.5 L 151.25 177.5 L 151.25 177.5 L 151.25 177.5 L 150.0 177.5 L 147.5 181.25 L 141.25 190.0 L 131.25 206.25 L 120.0 225.0 L 110.0 241.25 L 102.5 250.0 L 100.0 251.25 L 98.75 251.25 L 96.25 250.0 L 96.25 248.75 " stroke="black" fill="none" stroke-width="6.0" stroke-linecap="round" stroke-linejoin="round" />
</svg>