<svg xmlns="http://www.w3.org/2000/svg" width="300" height="300" viewBox="0 0 300 300">
<path d="M 67.5 150.0 L 63.75 153.75 L 63.75 153.75 L 73.75 151.25 L 88.75 145.0 L 100.0 136.25 L 105.0 130.0 L 105.0 128.75 " stroke="black" fill="none" stroke-width="6.0" stroke-linecap="round" stroke-linejoin="round" />
<path d="M 80.0 130.0 L 78.75 131.25 L 77.5 136.25 L 80.0 147.5 L 85.0 168.75 L 86.25 193.75 L 82.5 208.75 L 75.0 215.0 L 67.5 218.75 L 65.0 221.25 L 66.25 221.25 L 73.75 221.25 L 86.25 217.5 L 98.75 208.75 L 112.5 198.75 L 115.0 195.0 " stroke="black" fill="none" stroke-width="6.0" stroke-linecap="round" stroke-linejoin="round" />
<path d="M 137.5 63.75 L 135.0 65.0 L 133.75 67.5 L 136.25 75.0 L 142.5 86.25 L 147.5 93.75 L 148.75 95.0 " stroke="black" fill="none" stroke-width="6.0" stroke-linecap="round" stroke-linejoin="round" />
<path d="M 165.0 60.0 L 165.0 60.0 L 165.0 60.0 L 165.0 62.5 L 161.25 76.25 L 153.75 90.0 L 151.25 92.5 " stroke="black" fill="none" stroke-width="6.0" stroke-linecap="round" stroke-linejoin="round" />
<path d="M 123.75 97.5 L 120.0 100.0 L 120.0 102.5 L 122.5 113.75 L 128.75 133.75 L 136.25 148.75 L 138.75 155.0 L 138.75 153.75 L 137.5 150.0 " stroke="black" fill="none" stroke-width="6.0" stroke-linecap="round" stroke-linejoin="round" />
<path d="M 122.5 115.0 L 117.5 115.0 L 115.0 115.0 L 122.5 111.25 L 141.25 103.75 L 163.75 96.25 L 192.5 88.75 L 208.75 87.5 L 212.5 90.0 L 208.75 98.75 L 198.75 113.75 L 186.25 128.75 L 173.75 136.25 " stroke="black" fill="none" stroke-width="6.0" stroke-linecap="round" stroke-linejoin="round" />
<path d="M 155.0 98.75 L 155.0 98.75 L 155.0 98.75 L 155.0 101.25 L 157.5 113.75 L 157.5 131.25 L 156.25 140.0 " stroke="black" fill="none" stroke-width="6.0" stroke-linecap="round" stroke-linejoin="round" />
<path d="M 141.25 112.5 L 138.75 112.5 L 138.75 116.25 L 143.75 126.25 L 150.0 138.75 L 153.75 146.25 L 153.75 146.25 " stroke="black" fill="none" stroke-width="6.0" stroke-linecap="round" stroke-linejoin="round" />
<path d="M 177.5 98.75 L 177.5 97.5 L 178.75 97.5 L 176.25 103.75 L 167.5 120.0 L 155.0 141.25 L 143.75 157.5 L 137.5 163.75 L 138.75 163.75 L 147.5 160.0 L 160.0 152.5 L 173.75 143.75 L 185.0 133.75 L 190.0 130.0 L 187.5 130.0 L 177.5 138.75 L 167.5 151.25 L 158.75 172.5 L 155.0 202.5 L 155.0 225.0 L 160.0 235.0 L 162.5 238.75 L 163.75 238.75 L 163.75 238.75 L 162.5 236.25 L 160.0 233.75 L 158.75 232.5 " stroke="black" fill="none" stroke-width="6.0" stroke-linecap="round" stroke-linejoin="round" />
<path d="M 160.0 181.25 L 160.0 178.75 L 163.75 175.0 L 175.0 168.75 L 188.75 165.0 L 200.0 167.5 L 202.5 182.5 L 203.75 198.75 L 200.0 215.0 L 196.25 225.0 L 192.5 231.25 L 191.25 232.5 " stroke="black" fill="none" stroke-width="6.0" stroke-linecap="round" stroke-linejoin="round" />
<path d="M 161.25 202.5 L 158.75 202.5 L 156.25 205.0 L 160.0 203.75 L 172.5 200.0 L 186.25 193.75 L 197.5 190.0 L 198.75 188.75 L 198.75 190.0 " stroke="black" fill="none" stroke-width="6.0" stroke-linecap="round" stroke-linejoin="round" />
<path d="M 165.0 227.5 L 162.5 232.5 L 165.0 233.75 L 180.0 228.75 L 196.25 218.75 L 205.0 211.25 " stroke="black" fill="none" stroke-width="6.0" stroke-linecap="round" stroke-linejoin="round" />
</svg>