<svg xmlns="http://www.w3.org/2000/svg" width="300" height="300" viewBox="0 0 300 300">
<path d="M 51.25 90.0 L 48.75 90.0 L 45.0 90.0 L 46.25 90.0 L 66.25 88.75 L 97.5 81.25 L 132.5 68.75 L 147.5 58.75 L 147.5 56.25 L 136.25 60.0 L 121.25 67.5 " stroke="black" fill="none" stroke-width="6.0" stroke-linecap="round" stroke-linejoin="round" />
<path d="M 80.0 78.75 L 78.75 78.75 L 78.75 80.0 L 78.75 83.75 L 82.5 97.5 L 90.0 113.75 L 96.25 120.0 L 100.0 115.0 L 103.75 101.25 L 107.5 87.5 L 111.25 75.0 L 116.25 66.25 L 117.5 65.0 L 118.75 72.5 L 116.25 88.75 L 110.0 106.25 L 105.0 118.75 " stroke="black" fill="none" stroke-width="6.0" stroke-linecap="round" stroke-linejoin="round" />
<path d="M 61.25 143.75 L 61.25 143.75 L 60.0 145.0 L 60.0 150.0 L 68.75 165.0 L 78.75 178.75 L 85.0 183.75 L 85.0 178.75 " stroke="black" fill="none" stroke-width="6.0" stroke-linecap="round" stroke-linejoin="round" />
<path d="M 71.25 156.25 L 66.25 153.75 L 65.0 152.5 L 75.0 150.0 L 92.5 146.25 L 113.75 141.25 L 133.75 138.75 L 138.75 138.75 L 133.75 143.75 L 118.75 152.5 L 103.75 161.25 L 87.5 170.0 L 72.5 180.0 L 70.0 182.5 L 77.5 182.5 L 93.75 173.75 L 113.75 161.25 L 131.25 148.75 L 138.75 140.0 L 132.5 138.75 L 120.0 141.25 L 113.75 142.5 " stroke="black" fill="none" stroke-width="6.0" stroke-linecap="round" stroke-linejoin="round" />
<path d="M 100.0 127.5 L 100.0 127.5 L 100.0 126.25 L 101.25 130.0 L 105.0 156.25 L 107.5 198.75 L 108.75 225.0 L 106.25 232.5 L 101.25 232.5 L 98.75 230.0 " stroke="black" fill="none" stroke-width="6.0" stroke-linecap="round" stroke-linejoin="round" />
<path d="M 73.75 202.5 L 71.25 203.75 L 71.25 203.75 L 83.75 202.5 L 101.25 195.0 L 118.75 185.0 L 123.75 178.75 L 121.25 178.75 " stroke="black" fill="none" stroke-width="6.0" stroke-linecap="round" stroke-linejoin="round" />
<path d="M 82.5 216.25 L 82.5 217.5 L 82.5 217.5 L 86.25 217.5 L 101.25 211.25 L 121.25 202.5 L 131.25 197.5 L 127.5 200.0 L 113.75 205.0 L 110.0 207.5 " stroke="black" fill="none" stroke-width="6.0" stroke-linecap="round" stroke-linejoin="round" />
<path d="M 65.0 246.25 L 63.75 247.5 L 65.0 247.5 L 77.5 247.5 L 105.0 242.5 L 132.5 233.75 L 150.0 222.5 L 152.5 212.5 " stroke="black" fill="none" stroke-width="6.0" stroke-linecap="round" stroke-linejoin="round" />
<path d="M 163.75 136.25 L 160.0 137.5 L 158.75 137.5 L 168.75 137.5 L 192.5 133.75 L 216.25 130.0 L 235.0 130.0 L 240.0 147.5 L 235.0 186.25 L 223.75 223.75 L 216.25 248.75 L 212.5 252.5 L 207.5 250.0 L 201.25 238.75 L 193.75 221.25 L 187.5 205.0 " stroke="black" fill="none" stroke-width="6.0" stroke-linecap="round" stroke-linejoin="round" />
<path d="M 190.0 83.75 L 188.75 81.25 L 187.5 81.25 L 186.25 95.0 L 181.25 147.5 L 171.25 200.0 L 157.5 235.0 L 153.75 241.25 " stroke="black" fill="none" stroke-width="6.0" stroke-linecap="round" stroke-linejoin="round" />
</svg>