<svg xmlns="http://www.w3.org/2000/svg" width="300" height="300" viewBox="0 0 300 300">
<path d="M 76.25 85.0 L 70.0 86.25 L 65.0 87.5 L 63.75 87.5 L 70.0 88.75 L 82.5 90.0 L 95.0 90.0 L 106.25 90.0 L 111.25 93.75 L 106.25 106.25 L 92.5 130.0 L 76.25 153.75 L 61.25 170.0 L 55.0 178.75 L 58.75 178.75 L 70.0 172.5 L 85.0 162.5 L 98.75 153.75 L 107.5 151.25 L 110.0 157.5 L 102.5 190.0 L 88.75 222.5 L 77.5 241.25 L 67.5 243.75 L 61.25 238.75 L 60.0 223.75 " stroke="black" fill="none" stroke-width="6.0" stroke-linecap="round" stroke-linejoin="round" />
<path d="M 67.5 183.75 L 66.25 180.0 L 66.25 180.0 L 67.5 182.5 L 76.25 192.5 L 85.0 202.5 L 95.0 210.0 " stroke="black" fill="none" stroke-width="6.0" stroke-linecap="round" stroke-linejoin="round" />
<path d="M 156.25 97.5 L 156.25 96.25 L 157.5 92.5 L 160.0 91.25 L 161.25 105.0 L 157.5 131.25 L 153.75 148.75 L 151.25 152.5 L 155.0 148.75 L 168.75 137.5 L 183.75 126.25 L 196.25 115.0 L 201.25 107.5 L 200.0 105.0 L 196.25 103.75 L 191.25 102.5 L 187.5 101.25 L 186.25 101.25 L 186.25 101.25 L 186.25 101.25 L 186.25 101.25 L 190.0 101.25 L 195.0 105.0 L 203.75 111.25 L 213.75 123.75 L 221.25 137.5 L 221.25 147.5 " stroke="black" fill="none" stroke-width="6.0" stroke-linecap="round" stroke-linejoin="round" />
<path d="M 130.0 200.0 L 126.25 198.75 L 125.0 197.5 L 128.75 198.75 L 140.0 211.25 L 152.5 231.25 L 163.75 245.0 L 170.0 248.75 L 170.0 246.25 L 166.25 241.25 L 158.75 236.25 L 150.0 230.0 L 141.25 222.5 L 137.5 216.25 L 141.25 208.75 L 157.5 200.0 L 183.75 190.0 L 208.75 183.75 L 221.25 182.5 L 221.25 192.5 L 210.0 208.75 L 195.0 226.25 L 176.25 246.25 L 166.25 256.25 L 172.5 255.0 L 191.25 247.5 L 212.5 235.0 L 228.75 222.5 L 241.25 212.5 L 242.5 210.0 " stroke="black" fill="none" stroke-width="6.0" stroke-linecap="round" stroke-linejoin="round" />
</svg>