<svg xmlns="http://www.w3.org/2000/svg" width="300" height="300" viewBox="0 0 300 300">
<path d="M 95.0 96.25 L 92.5 98.75 L 91.25 101.25 L 98.75 101.25 L 121.25 93.75 L 146.25 82.5 L 161.25 71.25 L 163.75 66.25 L 156.25 66.25 L 145.0 71.25 L 135.0 77.5 L 122.5 85.0 L 111.25 98.75 L 107.5 127.5 L 111.25 171.25 L 116.25 206.25 L 117.5 217.5 L 118.75 218.75 L 118.75 217.5 L 117.5 208.75 L 116.25 198.75 L 116.25 196.25 " stroke="black" fill="none" stroke-width="6.0" stroke-linecap="round" stroke-linejoin="round" />
<path d="M 113.75 135.0 L 112.5 136.25 L 112.5 136.25 L 126.25 133.75 L 143.75 123.75 L 162.5 108.75 L 172.5 97.5 L 173.75 95.0 L 166.25 95.0 L 157.5 97.5 L 151.25 100.0 L 146.25 102.5 L 143.75 106.25 L 143.75 115.0 L 143.75 130.0 L 143.75 145.0 L 141.25 152.5 L 141.25 152.5 " stroke="black" fill="none" stroke-width="6.0" stroke-linecap="round" stroke-linejoin="round" />
<path d="M 132.5 147.5 L 130.0 152.5 L 130.0 162.5 L 132.5 182.5 L 137.5 201.25 L 141.25 210.0 L 142.5 210.0 L 142.5 207.5 L 142.5 202.5 L 142.5 198.75 " stroke="black" fill="none" stroke-width="6.0" stroke-linecap="round" stroke-linejoin="round" />
<path d="M 132.5 165.0 L 130.0 165.0 L 126.25 165.0 L 126.25 162.5 L 136.25 155.0 L 150.0 143.75 L 165.0 136.25 L 178.75 136.25 L 185.0 152.5 L 186.25 178.75 L 182.5 198.75 L 178.75 208.75 L 175.0 210.0 L 172.5 210.0 L 171.25 208.75 " stroke="black" fill="none" stroke-width="6.0" stroke-linecap="round" stroke-linejoin="round" />
<path d="M 148.75 148.75 L 148.75 150.0 L 148.75 155.0 L 150.0 172.5 L 152.5 193.75 L 152.5 207.5 L 150.0 212.5 L 145.0 215.0 L 140.0 216.25 L 136.25 217.5 L 133.75 218.75 L 132.5 220.0 L 131.25 221.25 L 130.0 222.5 L 130.0 223.75 L 130.0 223.75 L 130.0 223.75 L 130.0 223.75 L 130.0 223.75 L 130.0 223.75 L 130.0 223.75 L 131.25 223.75 L 136.25 222.5 L 143.75 221.25 L 156.25 218.75 L 175.0 216.25 L 196.25 211.25 L 211.25 205.0 L 217.5 201.25 L 218.75 200.0 L 217.5 200.0 L 212.5 202.5 L 210.0 203.75 " stroke="black" fill="none" stroke-width="6.0" stroke-linecap="round" stroke-linejoin="round" />
</svg>