<svg xmlns="http://www.w3.org/2000/svg" width="300" height="300" viewBox="0 0 300 300">
<path d="M 75.0 111.25 L 72.5 111.25 L 68.75 111.25 L 70.0 111.25 L 80.0 111.25 L 92.5 110.0 L 103.75 107.5 L 106.25 106.25 " stroke="black" fill="none" stroke-width="6.0" stroke-linecap="round" stroke-linejoin="round" />
<path d="M 77.5 166.25 L 75.0 170.0 L 73.75 171.25 L 77.5 170.0 L 87.5 162.5 L 96.25 153.75 L 101.25 145.0 L 102.5 143.75 " stroke="black" fill="none" stroke-width="6.0" stroke-linecap="round" stroke-linejoin="round" />
<path d="M 78.75 235.0 L 73.75 240.0 L 72.5 241.25 L 80.0 228.75 L 93.75 202.5 L 106.25 170.0 L 113.75 140.0 L 115.0 133.75 " stroke="black" fill="none" stroke-width="6.0" stroke-linecap="round" stroke-linejoin="round" />
<path d="M 126.25 88.75 L 126.25 87.5 L 126.25 87.5 L 130.0 92.5 L 135.0 107.5 L 141.25 123.75 L 145.0 130.0 L 145.0 130.0 " stroke="black" fill="none" stroke-width="6.0" stroke-linecap="round" stroke-linejoin="round" />
<path d="M 127.5 97.5 L 123.75 95.0 L 121.25 92.5 L 128.75 88.75 L 147.5 83.75 L 176.25 78.75 L 202.5 76.25 L 211.25 77.5 L 208.75 83.75 L 196.25 96.25 L 181.25 107.5 L 162.5 113.75 L 151.25 113.75 L 150.0 105.0 L 153.75 93.75 L 160.0 86.25 L 162.5 83.75 L 161.25 87.5 L 156.25 106.25 L 148.75 130.0 L 146.25 138.75 " stroke="black" fill="none" stroke-width="6.0" stroke-linecap="round" stroke-linejoin="round" />
<path d="M 168.75 93.75 L 168.75 93.75 L 168.75 92.5 L 170.0 92.5 L 173.75 101.25 L 178.75 115.0 L 182.5 126.25 L 180.0 133.75 L 165.0 141.25 L 142.5 151.25 L 117.5 162.5 L 101.25 172.5 L 101.25 173.75 L 120.0 171.25 L 150.0 162.5 L 187.5 148.75 L 218.75 137.5 L 232.5 130.0 L 233.75 128.75 L 223.75 130.0 L 208.75 135.0 L 195.0 137.5 L 183.75 140.0 L 178.75 141.25 L 180.0 148.75 L 186.25 175.0 L 191.25 215.0 L 191.25 246.25 L 188.75 255.0 L 185.0 255.0 L 178.75 251.25 L 168.75 245.0 L 155.0 238.75 L 141.25 231.25 L 133.75 225.0 L 135.0 220.0 L 150.0 211.25 L 180.0 197.5 L 212.5 183.75 L 241.25 173.75 L 245.0 172.5 " stroke="black" fill="none" stroke-width="6.0" stroke-linecap="round" stroke-linejoin="round" />
</svg>