<svg xmlns="http://www.w3.org/2000/svg" width="300" height="300" viewBox="0 0 300 300">
<path d="M 113.75 87.5 L 111.25 87.5 L 111.25 87.5 L 118.75 87.5 L 132.5 85.0 L 147.5 80.0 L 156.25 73.75 L 157.5 72.5 L 150.0 76.25 " stroke="black" fill="none" stroke-width="6.0" stroke-linecap="round" stroke-linejoin="round" />
<path d="M 117.5 102.5 L 117.5 105.0 L 116.25 113.75 L 117.5 132.5 L 120.0 148.75 L 121.25 157.5 L 121.25 158.75 L 121.25 155.0 L 120.0 147.5 L 118.75 140.0 L 117.5 133.75 L 116.25 126.25 L 115.0 121.25 L 115.0 116.25 L 118.75 112.5 L 131.25 108.75 L 150.0 106.25 L 171.25 105.0 L 183.75 110.0 L 185.0 121.25 L 173.75 133.75 L 160.0 145.0 L 147.5 150.0 L 137.5 151.25 L 136.25 151.25 " stroke="black" fill="none" stroke-width="6.0" stroke-linecap="round" stroke-linejoin="round" />
<path d="M 120.0 142.5 L 118.75 142.5 L 118.75 142.5 L 125.0 140.0 L 142.5 132.5 L 160.0 121.25 L 168.75 113.75 L 166.25 113.75 L 162.5 115.0 " stroke="black" fill="none" stroke-width="6.0" stroke-linecap="round" stroke-linejoin="round" />
<path d="M 122.5 160.0 L 122.5 161.25 L 122.5 163.75 L 128.75 163.75 L 142.5 157.5 L 158.75 145.0 L 166.25 135.0 " stroke="black" fill="none" stroke-width="6.0" stroke-linecap="round" stroke-linejoin="round" />
<path d="M 105.0 190.0 L 103.75 191.25 L 105.0 192.5 L 116.25 190.0 L 138.75 182.5 L 162.5 171.25 L 175.0 163.75 L 178.75 161.25 L 168.75 165.0 " stroke="black" fill="none" stroke-width="6.0" stroke-linecap="round" stroke-linejoin="round" />
<path d="M 112.5 222.5 L 112.5 223.75 L 113.75 223.75 L 128.75 218.75 L 152.5 206.25 L 170.0 195.0 L 177.5 187.5 L 171.25 185.0 " stroke="black" fill="none" stroke-width="6.0" stroke-linecap="round" stroke-linejoin="round" />
<path d="M 146.25 183.75 L 146.25 183.75 L 146.25 183.75 L 147.5 187.5 L 151.25 202.5 L 151.25 228.75 L 147.5 247.5 L 140.0 255.0 L 128.75 256.25 L 117.5 256.25 L 106.25 256.25 L 101.25 256.25 L 100.0 256.25 L 100.0 256.25 L 102.5 256.25 L 105.0 255.0 L 108.75 255.0 L 113.75 253.75 L 117.5 253.75 L 123.75 252.5 L 132.5 252.5 L 145.0 251.25 L 162.5 250.0 L 185.0 247.5 L 206.25 246.25 L 220.0 243.75 L 225.0 242.5 L 226.25 241.25 L 222.5 240.0 " stroke="black" fill="none" stroke-width="6.0" stroke-linecap="round" stroke-linejoin="round" />
</svg>