<svg xmlns="http://www.w3.org/2000/svg" width="300" height="300" viewBox="0 0 300 300">
<path d="M 81.25 93.75 L 78.75 93.75 L 78.75 93.75 L 83.75 95.0 L 93.75 97.5 L 106.25 101.25 L 115.0 103.75 L 115.0 105.0 " stroke="black" fill="none" stroke-width="6.0" stroke-linecap="round" stroke-linejoin="round" />
<path d="M 77.5 136.25 L 73.75 138.75 L 71.25 140.0 L 73.75 140.0 L 85.0 140.0 L 96.25 136.25 L 107.5 132.5 L 110.0 132.5 " stroke="black" fill="none" stroke-width="6.0" stroke-linecap="round" stroke-linejoin="round" />
<path d="M 80.0 212.5 L 77.5 216.25 L 75.0 223.75 L 76.25 223.75 L 87.5 215.0 L 101.25 197.5 L 108.75 186.25 " stroke="black" fill="none" stroke-width="6.0" stroke-linecap="round" stroke-linejoin="round" />
<path d="M 146.25 93.75 L 142.5 93.75 L 140.0 93.75 L 138.75 96.25 L 140.0 112.5 L 145.0 131.25 L 150.0 141.25 L 151.25 142.5 L 151.25 142.5 " stroke="black" fill="none" stroke-width="6.0" stroke-linecap="round" stroke-linejoin="round" />
<path d="M 145.0 102.5 L 143.75 102.5 L 140.0 102.5 L 135.0 102.5 L 141.25 100.0 L 158.75 96.25 L 185.0 90.0 L 208.75 87.5 L 223.75 88.75 L 225.0 95.0 L 213.75 108.75 L 200.0 127.5 L 186.25 142.5 L 180.0 146.25 " stroke="black" fill="none" stroke-width="6.0" stroke-linecap="round" stroke-linejoin="round" />
<path d="M 165.0 146.25 L 163.75 148.75 L 160.0 157.5 L 158.75 176.25 L 156.25 201.25 L 152.5 218.75 L 148.75 223.75 " stroke="black" fill="none" stroke-width="6.0" stroke-linecap="round" stroke-linejoin="round" />
<path d="M 190.0 145.0 L 190.0 145.0 L 191.25 145.0 L 193.75 155.0 L 197.5 181.25 L 202.5 202.5 L 210.0 213.75 L 221.25 217.5 L 235.0 217.5 L 246.25 218.75 L 250.0 218.75 L 250.0 218.75 L 250.0 218.75 L 248.75 218.75 L 248.75 218.75 L 247.5 217.5 L 247.5 215.0 L 246.25 211.25 L 246.25 206.25 L 246.25 196.25 L 247.5 171.25 L 248.75 152.5 " stroke="black" fill="none" stroke-width="6.0" stroke-linecap="round" stroke-linejoin="round" />
</svg>