<svg xmlns="http://www.w3.org/2000/svg" width="300" height="300" viewBox="0 0 300 300">
<path d="M 111.25 107.5 L 112.5 103.75 L 112.5 101.25 L 112.5 101.25 L 112.5 113.75 L 106.25 141.25 L 95.0 173.75 L 86.25 192.5 L 82.5 195.0 " stroke="black" fill="none" stroke-width="6.0" stroke-linecap="round" stroke-linejoin="round" />
<path d="M 112.5 142.5 L 113.75 145.0 L 116.25 156.25 L 121.25 187.5 L 121.25 220.0 L 118.75 242.5 L 115.0 247.5 " stroke="black" fill="none" stroke-width="6.0" stroke-linecap="round" stroke-linejoin="round" />
<path d="M 142.5 128.75 L 140.0 128.75 L 140.0 128.75 L 148.75 122.5 L 171.25 112.5 L 192.5 102.5 L 197.5 98.75 L 192.5 98.75 " stroke="black" fill="none" stroke-width="6.0" stroke-linecap="round" stroke-linejoin="round" />
<path d="M 155.0 103.75 L 155.0 105.0 L 153.75 106.25 L 155.0 113.75 L 161.25 133.75 L 163.75 156.25 L 157.5 171.25 L 148.75 177.5 L 142.5 178.75 L 140.0 178.75 L 141.25 178.75 L 150.0 175.0 L 165.0 166.25 L 183.75 155.0 L 196.25 147.5 L 197.5 145.0 L 196.25 145.0 " stroke="black" fill="none" stroke-width="6.0" stroke-linecap="round" stroke-linejoin="round" />
<path d="M 142.5 222.5 L 142.5 223.75 L 142.5 226.25 L 151.25 220.0 L 172.5 206.25 L 197.5 191.25 L 205.0 182.5 L 201.25 181.25 " stroke="black" fill="none" stroke-width="6.0" stroke-linecap="round" stroke-linejoin="round" />
<path d="M 165.0 176.25 L 165.0 176.25 L 165.0 176.25 L 165.0 180.0 L 171.25 191.25 L 180.0 210.0 L 181.25 231.25 L 176.25 243.75 L 167.5 247.5 L 158.75 250.0 L 152.5 251.25 L 152.5 252.5 L 152.5 252.5 L 152.5 252.5 L 155.0 251.25 L 158.75 251.25 L 162.5 251.25 L 166.25 250.0 L 170.0 248.75 L 175.0 247.5 L 182.5 243.75 L 196.25 238.75 L 215.0 228.75 L 231.25 220.0 L 238.75 215.0 " stroke="black" fill="none" stroke-width="6.0" stroke-linecap="round" stroke-linejoin="round" />
</svg>