<svg xmlns="http://www.w3.org/2000/svg" width="300" height="300" viewBox="0 0 300 300">
<path d="M 112.5 121.25 L 112.5 121.25 L 112.5 122.5 L 115.0 135.0 L 120.0 171.25 L 121.25 198.75 L 121.25 201.25 L 122.5 197.5 L 131.25 190.0 L 143.75 176.25 L 152.5 165.0 L 158.75 156.25 L 160.0 152.5 L 152.5 153.75 L 150.0 155.0 " stroke="black" fill="none" stroke-width="6.0" stroke-linecap="round" stroke-linejoin="round" />
<path d="M 81.25 166.25 L 77.5 171.25 L 77.5 180.0 L 85.0 198.75 L 93.75 213.75 L 115.0 225.0 L 137.5 218.75 L 158.75 200.0 L 178.75 178.75 L 188.75 160.0 L 190.0 153.75 " stroke="black" fill="none" stroke-width="6.0" stroke-linecap="round" stroke-linejoin="round" />
<path d="M 188.75 160.0 L 187.5 160.0 L 186.25 161.25 L 193.75 156.25 L 210.0 143.75 L 227.5 128.75 L 233.75 118.75 L 228.75 116.25 " stroke="black" fill="none" stroke-width="6.0" stroke-linecap="round" stroke-linejoin="round" />
<path d="M 182.5 101.25 L 180.0 101.25 L 178.75 111.25 L 186.25 147.5 L 198.75 190.0 L 212.5 210.0 L 231.25 221.25 L 245.0 227.5 L 253.75 228.75 L 258.75 228.75 L 261.25 226.25 L 263.75 221.25 L 267.5 211.25 L 272.5 191.25 L 276.25 155.0 L 277.5 108.75 " stroke="black" fill="none" stroke-width="6.0" stroke-linecap="round" stroke-linejoin="round" />
</svg>