<svg xmlns="http://www.w3.org/2000/svg" width="300" height="300" viewBox="0 0 300 300">
<path d="M 128.75 113.75 L 127.5 116.25 L 127.5 127.5 L 127.5 153.75 L 126.25 180.0 L 126.25 191.25 L 126.25 190.0 L 126.25 188.75 L 126.25 187.5 L 127.5 186.25 L 130.0 183.75 L 137.5 175.0 L 150.0 158.75 L 161.25 141.25 L 167.5 130.0 L 163.75 126.25 L 161.25 126.25 " stroke="black" fill="none" stroke-width="6.0" stroke-linecap="round" stroke-linejoin="round" />
<path d="M 96.25 155.0 L 91.25 161.25 L 90.0 170.0 L 96.25 190.0 L 105.0 206.25 L 117.5 211.25 L 137.5 203.75 L 158.75 187.5 L 180.0 168.75 L 196.25 155.0 L 198.75 150.0 " stroke="black" fill="none" stroke-width="6.0" stroke-linecap="round" stroke-linejoin="round" />
<path d="M 197.5 142.5 L 193.75 145.0 L 193.75 145.0 L 200.0 142.5 L 211.25 136.25 L 220.0 127.5 L 222.5 118.75 " stroke="black" fill="none" stroke-width="6.0" stroke-linecap="round" stroke-linejoin="round" />
<path d="M 182.5 96.25 L 181.25 97.5 L 178.75 102.5 L 183.75 132.5 L 196.25 178.75 L 207.5 210.0 L 221.25 225.0 L 231.25 230.0 L 242.5 230.0 L 251.25 223.75 L 256.25 215.0 L 261.25 203.75 L 263.75 186.25 L 266.25 155.0 L 268.75 97.5 L 268.75 81.25 " stroke="black" fill="none" stroke-width="6.0" stroke-linecap="round" stroke-linejoin="round" />
</svg>