<svg xmlns="http://www.w3.org/2000/svg" width="300" height="300" viewBox="0 0 300 300">
<path d="M 91.25 120.0 L 90.0 120.0 L 83.75 123.75 L 82.5 123.75 L 88.75 123.75 L 101.25 121.25 L 120.0 113.75 L 137.5 103.75 L 147.5 95.0 L 146.25 92.5 L 140.0 91.25 L 136.25 91.25 " stroke="black" fill="none" stroke-width="6.0" stroke-linecap="round" stroke-linejoin="round" />
<path d="M 120.0 92.5 L 118.75 95.0 L 115.0 103.75 L 117.5 135.0 L 122.5 175.0 L 123.75 196.25 L 122.5 198.75 L 122.5 198.75 " stroke="black" fill="none" stroke-width="6.0" stroke-linecap="round" stroke-linejoin="round" />
<path d="M 111.25 140.0 L 107.5 145.0 L 101.25 157.5 L 96.25 171.25 L 96.25 180.0 L 101.25 181.25 L 115.0 173.75 L 135.0 161.25 L 151.25 146.25 L 163.75 131.25 L 171.25 117.5 L 172.5 107.5 L 171.25 103.75 L 168.75 103.75 L 167.5 103.75 L 166.25 106.25 L 165.0 117.5 L 165.0 137.5 L 165.0 163.75 L 166.25 183.75 L 168.75 191.25 L 168.75 190.0 L 168.75 181.25 L 168.75 175.0 " stroke="black" fill="none" stroke-width="6.0" stroke-linecap="round" stroke-linejoin="round" />
<path d="M 165.0 117.5 L 161.25 113.75 L 160.0 110.0 L 161.25 106.25 L 168.75 102.5 L 180.0 98.75 L 191.25 97.5 L 198.75 101.25 L 202.5 121.25 L 202.5 148.75 L 202.5 176.25 L 202.5 191.25 L 202.5 196.25 L 200.0 196.25 L 198.75 191.25 L 196.25 186.25 " stroke="black" fill="none" stroke-width="6.0" stroke-linecap="round" stroke-linejoin="round" />
<path d="M 163.75 142.5 L 161.25 142.5 L 160.0 142.5 L 163.75 141.25 L 176.25 136.25 L 188.75 131.25 L 196.25 126.25 L 197.5 125.0 L 191.25 128.75 " stroke="black" fill="none" stroke-width="6.0" stroke-linecap="round" stroke-linejoin="round" />
<path d="M 160.0 163.75 L 160.0 163.75 L 160.0 166.25 L 163.75 166.25 L 177.5 160.0 L 191.25 151.25 L 198.75 145.0 L 198.75 143.75 L 195.0 146.25 " stroke="black" fill="none" stroke-width="6.0" stroke-linecap="round" stroke-linejoin="round" />
<path d="M 167.5 187.5 L 166.25 190.0 L 165.0 192.5 L 172.5 190.0 L 188.75 178.75 L 202.5 165.0 L 203.75 162.5 " stroke="black" fill="none" stroke-width="6.0" stroke-linecap="round" stroke-linejoin="round" />
<path d="M 95.0 211.25 L 93.75 211.25 L 92.5 210.0 L 92.5 210.0 L 98.75 216.25 L 110.0 232.5 L 120.0 247.5 L 123.75 252.5 L 123.75 251.25 " stroke="black" fill="none" stroke-width="6.0" stroke-linecap="round" stroke-linejoin="round" />
<path d="M 135.0 208.75 L 136.25 211.25 L 140.0 218.75 L 152.5 231.25 L 173.75 240.0 L 198.75 242.5 L 213.75 238.75 L 218.75 233.75 L 218.75 230.0 L 211.25 227.5 L 201.25 225.0 L 186.25 222.5 L 171.25 220.0 L 161.25 218.75 L 158.75 218.75 L 168.75 218.75 L 193.75 213.75 L 221.25 203.75 L 247.5 197.5 L 255.0 195.0 " stroke="black" fill="none" stroke-width="6.0" stroke-linecap="round" stroke-linejoin="round" />
</svg>