<svg xmlns="http://www.w3.org/2000/svg" width="300" height="300" viewBox="0 0 300 300">
<path d="M 143.75 61.25 L 143.75 61.25 L 143.75 61.25 L 145.0 61.25 L 153.75 61.25 L 166.25 63.75 L 175.0 67.5 L 175.0 68.75 " stroke="black" fill="none" stroke-width="6.0" stroke-linecap="round" stroke-linejoin="round" />
<path d="M 100.0 97.5 L 100.0 97.5 L 98.75 97.5 L 103.75 97.5 L 130.0 93.75 L 165.0 85.0 L 187.5 76.25 L 193.75 71.25 L 191.25 71.25 " stroke="black" fill="none" stroke-width="6.0" stroke-linecap="round" stroke-linejoin="round" />
<path d="M 147.5 86.25 L 143.75 88.75 L 140.0 97.5 L 138.75 112.5 L 138.75 130.0 L 138.75 133.75 " stroke="black" fill="none" stroke-width="6.0" stroke-linecap="round" stroke-linejoin="round" />
<path d="M 168.75 85.0 L 170.0 85.0 L 172.5 85.0 L 172.5 88.75 L 167.5 101.25 L 156.25 117.5 L 141.25 130.0 L 121.25 137.5 L 98.75 143.75 L 87.5 147.5 L 90.0 147.5 L 106.25 143.75 L 137.5 132.5 L 171.25 118.75 L 205.0 102.5 L 216.25 95.0 L 210.0 96.25 L 197.5 102.5 L 178.75 111.25 L 160.0 122.5 L 142.5 140.0 L 132.5 163.75 L 130.0 193.75 L 130.0 211.25 L 133.75 216.25 L 135.0 215.0 " stroke="black" fill="none" stroke-width="6.0" stroke-linecap="round" stroke-linejoin="round" />
<path d="M 137.5 157.5 L 137.5 157.5 L 142.5 155.0 L 156.25 150.0 L 181.25 146.25 L 202.5 150.0 L 210.0 160.0 L 207.5 173.75 L 196.25 188.75 L 181.25 197.5 L 163.75 198.75 " stroke="black" fill="none" stroke-width="6.0" stroke-linecap="round" stroke-linejoin="round" />
<path d="M 131.25 182.5 L 130.0 182.5 L 130.0 181.25 L 142.5 176.25 L 167.5 167.5 L 192.5 160.0 L 200.0 158.75 L 191.25 162.5 " stroke="black" fill="none" stroke-width="6.0" stroke-linecap="round" stroke-linejoin="round" />
<path d="M 141.25 198.75 L 138.75 201.25 L 136.25 203.75 L 142.5 203.75 L 158.75 200.0 L 180.0 191.25 L 200.0 180.0 L 202.5 177.5 " stroke="black" fill="none" stroke-width="6.0" stroke-linecap="round" stroke-linejoin="round" />
<path d="M 117.5 255.0 L 117.5 255.0 L 117.5 257.5 L 126.25 257.5 L 152.5 248.75 L 190.0 235.0 L 213.75 221.25 L 218.75 215.0 L 212.5 213.75 L 200.0 216.25 L 193.75 217.5 " stroke="black" fill="none" stroke-width="6.0" stroke-linecap="round" stroke-linejoin="round" />
<path d="M 166.25 202.5 L 166.25 202.5 L 166.25 202.5 L 168.75 210.0 L 171.25 246.25 L 170.0 290.0 L 165.0 313.75 L 157.5 322.5 " stroke="black" fill="none" stroke-width="6.0" stroke-linecap="round" stroke-linejoin="round" />
</svg>