<svg xmlns="http://www.w3.org/2000/svg" width="300" height="300" viewBox="0 0 300 300">
<path d="M 86.25 82.5 L 86.25 82.5 L 86.25 82.5 L 86.25 82.5 L 86.25 92.5 L 85.0 112.5 L 76.25 132.5 L 63.75 143.75 L 52.5 143.75 " stroke="black" fill="none" stroke-width="6.0" stroke-linecap="round" stroke-linejoin="round" />
<path d="M 91.25 112.5 L 92.5 116.25 L 93.75 126.25 L 95.0 146.25 L 95.0 165.0 L 92.5 178.75 L 91.25 180.0 " stroke="black" fill="none" stroke-width="6.0" stroke-linecap="round" stroke-linejoin="round" />
<path d="M 113.75 101.25 L 113.75 101.25 L 112.5 101.25 L 111.25 106.25 L 111.25 128.75 L 112.5 150.0 L 112.5 156.25 " stroke="black" fill="none" stroke-width="6.0" stroke-linecap="round" stroke-linejoin="round" />
<path d="M 165.0 65.0 L 165.0 62.5 L 163.75 56.25 L 163.75 53.75 L 166.25 56.25 L 168.75 73.75 L 168.75 90.0 L 171.25 100.0 L 178.75 101.25 L 193.75 87.5 L 208.75 72.5 L 217.5 62.5 L 217.5 60.0 L 208.75 68.75 L 203.75 73.75 " stroke="black" fill="none" stroke-width="6.0" stroke-linecap="round" stroke-linejoin="round" />
<path d="M 188.75 98.75 L 188.75 98.75 L 187.5 102.5 L 186.25 116.25 L 180.0 141.25 L 166.25 163.75 L 150.0 177.5 L 135.0 182.5 L 127.5 180.0 " stroke="black" fill="none" stroke-width="6.0" stroke-linecap="round" stroke-linejoin="round" />
<path d="M 146.25 125.0 L 148.75 125.0 L 155.0 127.5 L 176.25 141.25 L 203.75 156.25 L 227.5 167.5 L 247.5 178.75 L 252.5 181.25 L 247.5 183.75 " stroke="black" fill="none" stroke-width="6.0" stroke-linecap="round" stroke-linejoin="round" />
<path d="M 101.25 241.25 L 101.25 241.25 L 98.75 241.25 L 97.5 241.25 L 103.75 251.25 L 116.25 267.5 L 128.75 276.25 L 131.25 276.25 " stroke="black" fill="none" stroke-width="6.0" stroke-linecap="round" stroke-linejoin="round" />
<path d="M 143.75 207.5 L 143.75 207.5 L 143.75 207.5 L 150.0 220.0 L 173.75 246.25 L 202.5 258.75 L 225.0 257.5 L 241.25 248.75 L 246.25 240.0 L 243.75 232.5 L 230.0 223.75 L 208.75 217.5 L 186.25 213.75 L 175.0 212.5 L 175.0 213.75 L 193.75 216.25 L 223.75 216.25 L 256.25 213.75 L 268.75 213.75 " stroke="black" fill="none" stroke-width="6.0" stroke-linecap="round" stroke-linejoin="round" />
</svg>